<?xml version="1.0" encoding="utf-8"?>
<!-- Generator: Adobe Illustrator 26.5.0, SVG Export Plug-In . SVG Version: 6.00 Build 0)  -->
<svg version="1.1" id="Layer_1" xmlns="http://www.w3.org/2000/svg" xmlns:xlink="http://www.w3.org/1999/xlink" x="0px" y="0px"
	 viewBox="0 0 177.5 211.1" style="enable-background:new 0 0 177.5 211.1;" xml:space="preserve">
<style type="text/css">
	.st0{fill:#FFFFFF;}
	.st1{clip-path:url(#SVGID_00000018238622540112962900000004326613191377644453_);}
	.st2{fill:#112E51;}
	.st3{fill:#122F52;}
	.st4{fill:#123053;}
	.st5{fill:#123054;}
	.st6{fill:#133154;}
	.st7{fill:#133155;}
	.st8{fill:#133256;}
	.st9{fill:#143257;}
	.st10{fill:#143358;}
	.st11{fill:#143459;}
	.st12{fill:#14345A;}
	.st13{fill:#15355B;}
	.st14{fill:#15355C;}
	.st15{fill:#15365D;}
	.st16{fill:#16365D;}
	.st17{fill:#16375E;}
	.st18{fill:#16375F;}
	.st19{fill:#163860;}
	.st20{fill:#173860;}
	.st21{fill:#173961;}
	.st22{fill:#173962;}
	.st23{fill:#173963;}
	.st24{fill:#173A63;}
	.st25{fill:#183A64;}
	.st26{fill:#183B65;}
	.st27{fill:#183C66;}
	.st28{fill:#193C67;}
	.st29{fill:#193C68;}
	.st30{fill:#193D68;}
	.st31{fill:#193D69;}
	.st32{fill:#193E6A;}
	.st33{fill:#193E6B;}
	.st34{fill:#1A3F6B;}
	.st35{fill:#1A3F6C;}
	.st36{fill:#1A3F6D;}
	.st37{fill:#1A406E;}
	.st38{fill:#1A416F;}
	.st39{fill:#1B4170;}
	.st40{fill:#1B4270;}
	.st41{fill:#1B4271;}
	.st42{fill:#1B4272;}
	.st43{fill:#1B4373;}
	.st44{fill:#1C4474;}
	.st45{fill:#1C4475;}
	.st46{fill:#1C4576;}
	.st47{fill:#1C4577;}
	.st48{fill:#1C4678;}
	.st49{fill:#1C4679;}
	.st50{fill:#1D477A;}
	.st51{fill:#1D487B;}
	.st52{fill:#1D487C;}
	.st53{fill:#1D487D;}
	.st54{fill:#1D497D;}
	.st55{fill:#1D497E;}
	.st56{fill:#1E4A7F;}
	.st57{fill:#1E4A80;}
	.st58{fill:#1E4B80;}
	.st59{fill:#1E4B81;}
	.st60{fill:#1E4B82;}
	.st61{fill:#1E4C83;}
	.st62{fill:#1E4C84;}
	.st63{fill:#1E4D84;}
	.st64{fill:#1E4D85;}
	.st65{fill:#1F4E86;}
	.st66{fill:#1F4E87;}
	.st67{fill:#1F4E88;}
	.st68{fill:#1F4F88;}
	.st69{fill:#1F4F89;}
	.st70{fill:#1F508A;}
	.st71{fill:#1F508B;}
	.st72{fill:#1F518C;}
	.st73{fill:#1F518D;}
	.st74{fill:#1F528E;}
	.st75{fill:#1F528F;}
	.st76{fill:#205390;}
	.st77{fill:#205391;}
	.st78{fill:#205492;}
	.st79{fill:#205593;}
	.st80{fill:#205594;}
</style>
<g>
	<g>
		<path class="st0" d="M88.8,177.5C39.8,177.5,0,137.7,0,88.8S39.8,0,88.8,0s88.8,39.8,88.8,88.8S137.7,177.5,88.8,177.5L88.8,177.5
			z"/>
		<g>
			<defs>
				<circle id="SVGID_1_" cx="88.8" cy="88.8" r="82"/>
			</defs>
			<clipPath id="SVGID_00000055699103370345948010000001171686505806819713_">
				<use xlink:href="#SVGID_1_"  style="overflow:visible;"/>
			</clipPath>
			<g style="clip-path:url(#SVGID_00000055699103370345948010000001171686505806819713_);">
				<rect x="6.7" y="6.7" class="st2" width="164.1" height="164.1"/>
				<circle class="st2" cx="88.8" cy="88.8" r="82"/>
				<circle class="st2" cx="88.8" cy="88.8" r="77.8"/>
				<circle class="st2" cx="88.8" cy="88.8" r="73.5"/>
				<circle class="st3" cx="88.8" cy="88.8" r="72.7"/>
				<circle class="st3" cx="88.8" cy="88.8" r="71.9"/>
				<circle class="st4" cx="88.8" cy="88.8" r="71.1"/>
				<circle class="st5" cx="88.8" cy="88.8" r="70.3"/>
				<circle class="st6" cx="88.8" cy="88.8" r="69.4"/>
				<circle class="st7" cx="88.8" cy="88.8" r="68.6"/>
				<circle class="st8" cx="88.8" cy="88.8" r="67.8"/>
				<circle class="st8" cx="88.8" cy="88.8" r="67"/>
				<circle class="st9" cx="88.8" cy="88.8" r="66.2"/>
				<circle class="st10" cx="88.8" cy="88.8" r="65.4"/>
				<circle class="st10" cx="88.8" cy="88.8" r="64.5"/>
				<circle class="st11" cx="88.8" cy="88.8" r="63.7"/>
				<circle class="st12" cx="88.8" cy="88.8" r="62.9"/>
				<circle class="st13" cx="88.8" cy="88.8" r="62.1"/>
				<circle class="st13" cx="88.8" cy="88.8" r="61.3"/>
				<circle class="st14" cx="88.8" cy="88.8" r="60.5"/>
				<circle class="st15" cx="88.8" cy="88.8" r="59.6"/>
				<circle class="st16" cx="88.8" cy="88.8" r="58.8"/>
				<circle class="st17" cx="88.8" cy="88.8" r="58"/>
				<circle class="st18" cx="88.8" cy="88.8" r="57.2"/>
				<circle class="st19" cx="88.8" cy="88.8" r="56.4"/>
				<circle class="st20" cx="88.8" cy="88.8" r="55.5"/>
				<circle class="st21" cx="88.8" cy="88.8" r="54.7"/>
				<circle class="st22" cx="88.8" cy="88.8" r="53.9"/>
				<circle class="st23" cx="88.8" cy="88.8" r="53.1"/>
				<circle class="st24" cx="88.8" cy="88.8" r="52.3"/>
				<circle class="st25" cx="88.8" cy="88.8" r="51.5"/>
				<circle class="st26" cx="88.8" cy="88.8" r="50.7"/>
				<circle class="st26" cx="88.8" cy="88.8" r="49.8"/>
				<circle class="st27" cx="88.8" cy="88.8" r="49"/>
				<circle class="st28" cx="88.8" cy="88.8" r="48.2"/>
				<circle class="st29" cx="88.8" cy="88.8" r="47.4"/>
				<circle class="st30" cx="88.8" cy="88.8" r="46.6"/>
				<circle class="st31" cx="88.8" cy="88.8" r="45.8"/>
				<circle class="st32" cx="88.8" cy="88.8" r="44.9"/>
				<circle class="st33" cx="88.8" cy="88.8" r="44.1"/>
				<circle class="st34" cx="88.8" cy="88.8" r="43.3"/>
				<circle class="st35" cx="88.8" cy="88.8" r="42.5"/>
				<circle class="st36" cx="88.8" cy="88.8" r="41.7"/>
				<circle class="st37" cx="88.8" cy="88.8" r="40.8"/>
				<circle class="st37" cx="88.8" cy="88.8" r="40"/>
				<circle class="st38" cx="88.8" cy="88.8" r="39.2"/>
				<circle class="st39" cx="88.8" cy="88.8" r="38.4"/>
				<circle class="st40" cx="88.8" cy="88.8" r="37.6"/>
				<circle class="st41" cx="88.8" cy="88.8" r="36.8"/>
				<circle class="st42" cx="88.8" cy="88.8" r="36"/>
				<circle class="st43" cx="88.8" cy="88.8" r="35.1"/>
				<circle class="st43" cx="88.8" cy="88.8" r="34.3"/>
				<circle class="st44" cx="88.8" cy="88.8" r="33.5"/>
				<circle class="st45" cx="88.8" cy="88.8" r="32.7"/>
				<circle class="st46" cx="88.8" cy="88.8" r="31.9"/>
				<circle class="st47" cx="88.8" cy="88.8" r="31"/>
				<circle class="st47" cx="88.8" cy="88.8" r="30.2"/>
				<circle class="st48" cx="88.8" cy="88.8" r="29.4"/>
				<circle class="st49" cx="88.8" cy="88.8" r="28.6"/>
				<circle class="st50" cx="88.8" cy="88.8" r="27.8"/>
				<circle class="st50" cx="88.8" cy="88.8" r="27"/>
				<circle class="st51" cx="88.8" cy="88.8" r="26.1"/>
				<circle class="st52" cx="88.8" cy="88.8" r="25.3"/>
				<circle class="st53" cx="88.8" cy="88.8" r="24.5"/>
				<circle class="st54" cx="88.8" cy="88.8" r="23.7"/>
				<circle class="st55" cx="88.8" cy="88.8" r="22.9"/>
				<circle class="st56" cx="88.8" cy="88.8" r="22.1"/>
				<circle class="st57" cx="88.8" cy="88.8" r="21.2"/>
				<circle class="st58" cx="88.8" cy="88.8" r="20.4"/>
				<circle class="st59" cx="88.8" cy="88.8" r="19.6"/>
				<circle class="st60" cx="88.8" cy="88.8" r="18.8"/>
				<circle class="st61" cx="88.8" cy="88.8" r="18"/>
				<circle class="st62" cx="88.8" cy="88.8" r="17.2"/>
				<circle class="st63" cx="88.8" cy="88.8" r="16.3"/>
				<circle class="st64" cx="88.8" cy="88.8" r="15.5"/>
				<circle class="st65" cx="88.8" cy="88.8" r="14.7"/>
				<circle class="st66" cx="88.8" cy="88.8" r="13.9"/>
				<circle class="st67" cx="88.8" cy="88.8" r="13.1"/>
				<circle class="st68" cx="88.8" cy="88.8" r="12.2"/>
				<circle class="st69" cx="88.8" cy="88.8" r="11.4"/>
				<circle class="st70" cx="88.8" cy="88.8" r="10.6"/>
				<circle class="st71" cx="88.8" cy="88.8" r="9.8"/>
				<circle class="st72" cx="88.8" cy="88.8" r="9"/>
				<circle class="st72" cx="88.8" cy="88.8" r="8.2"/>
				<circle class="st73" cx="88.8" cy="88.8" r="7.3"/>
				<circle class="st74" cx="88.8" cy="88.8" r="6.5"/>
				<circle class="st75" cx="88.8" cy="88.8" r="5.7"/>
				<circle class="st76" cx="88.8" cy="88.8" r="4.9"/>
				<circle class="st77" cx="88.8" cy="88.8" r="4.1"/>
				<circle class="st78" cx="88.8" cy="88.8" r="3.3"/>
				<circle class="st78" cx="88.8" cy="88.8" r="2.4"/>
				<circle class="st79" cx="88.8" cy="88.8" r="1.6"/>
				<circle class="st80" cx="88.8" cy="88.8" r="0.8"/>
			</g>
		</g>
		<path class="st0" d="M133.8,94.7l18,34.7h-22.2L113,97.8h-11.5v31.6H81.4V85.8c0-0.1,0-0.2,0-0.3s0-0.2,0-0.3v-0.5h0
			c0.3-3.4,2.9-6.1,6.3-6.6v-0.1h0.4c0.3,0,0.5,0,0.8,0c0.2,0,0.5,0,0.7,0h1.5c0.2,0,0.3,0,0.5,0h32.8c1.8-0.2,3.5-0.8,4.9-2
			c1.9-1.7,3.1-4.1,3.1-6.7c0-3.5-2.1-6.6-5.2-8c-1-0.5-2.1-0.7-3.3-0.7l-2.7,0H47.6V78h25.7v19.7H47.6v31.6H27.5V49.9
			c0-5.2,4.3-9.5,9.5-9.5h87.2c15.4,0.1,27.9,12.7,27.9,28C152.1,80.3,144.5,90.7,133.8,94.7z"/>
		<path class="st0" d="M4.3,185v10.1h11.9v3.2H4.3v12.5H0.4v-29h17.9v3.2H4.3z M39.1,207.9c-0.5,0.5-1,1-1.6,1.4
			c-0.6,0.4-1.3,0.7-2,1c-0.7,0.3-1.4,0.4-2.2,0.6s-1.5,0.2-2.2,0.2c-1.4,0-2.7-0.2-3.9-0.7s-2.2-1.2-3.1-2.1
			c-0.9-0.9-1.5-2.1-2-3.4c-0.5-1.4-0.7-2.9-0.7-4.7c0-1.4,0.2-2.8,0.7-4c0.4-1.2,1.1-2.3,1.9-3.2c0.8-0.9,1.8-1.6,3-2.1
			c1.2-0.5,2.5-0.8,4-0.8c1.2,0,2.4,0.2,3.4,0.6c1,0.4,2,1,2.7,1.8s1.4,1.7,1.8,2.9s0.7,2.4,0.7,3.9c0,0.6-0.1,0.9-0.2,1.1
			s-0.3,0.3-0.7,0.3H24.8c0,1.3,0.2,2.4,0.5,3.4c0.3,1,0.8,1.8,1.3,2.4s1.2,1.1,2,1.4s1.7,0.5,2.6,0.5c0.9,0,1.7-0.1,2.3-0.3
			c0.7-0.2,1.2-0.4,1.7-0.7s0.9-0.5,1.2-0.7c0.3-0.2,0.6-0.3,0.8-0.3c0.3,0,0.5,0.1,0.7,0.3L39.1,207.9L39.1,207.9z M36.2,198.3
			c0-0.8-0.1-1.6-0.4-2.3c-0.2-0.7-0.6-1.3-1-1.8c-0.5-0.5-1-0.9-1.7-1.2c-0.7-0.3-1.4-0.4-2.2-0.4c-1.7,0-3.1,0.5-4.1,1.5
			c-1,1-1.6,2.4-1.9,4.2L36.2,198.3L36.2,198.3z M60.8,181v29.8h-2.2c-0.5,0-0.8-0.2-1-0.8l-0.3-2.5c-0.9,1.1-1.9,1.9-3,2.6
			c-1.1,0.6-2.4,1-3.9,1c-1.2,0-2.2-0.2-3.2-0.7s-1.8-1.1-2.5-2c-0.7-0.9-1.2-2-1.6-3.3c-0.4-1.3-0.5-2.8-0.5-4.5
			c0-1.5,0.2-2.9,0.6-4.2c0.4-1.3,1-2.4,1.7-3.4c0.8-1,1.7-1.7,2.8-2.3c1.1-0.6,2.3-0.8,3.7-0.8c1.3,0,2.3,0.2,3.2,0.6
			c0.9,0.4,1.7,1,2.4,1.8V181L60.8,181L60.8,181z M57.2,195.1c-0.7-0.9-1.4-1.5-2.2-1.9s-1.7-0.5-2.6-0.5c-1.9,0-3.4,0.7-4.4,2
			c-1,1.4-1.5,3.3-1.5,5.8c0,1.3,0.1,2.5,0.3,3.4s0.6,1.7,1,2.4s1,1.1,1.6,1.4s1.4,0.4,2.2,0.4c1.2,0,2.2-0.3,3.1-0.8
			c0.9-0.5,1.7-1.3,2.4-2.3L57.2,195.1L57.2,195.1z M88.8,210.8h-3.5c-0.7,0-1.2-0.3-1.6-0.8l-7.5-10.4c-0.2-0.3-0.5-0.6-0.7-0.7
			c-0.3-0.1-0.7-0.2-1.2-0.2h-3v12.1h-3.9v-29h8.2c1.8,0,3.4,0.2,4.8,0.6c1.3,0.4,2.4,0.9,3.3,1.6c0.9,0.7,1.5,1.6,1.9,2.5
			c0.4,1,0.6,2.1,0.6,3.3c0,1-0.2,2-0.5,2.9s-0.8,1.7-1.4,2.4c-0.6,0.7-1.4,1.3-2.2,1.8s-1.9,0.9-3,1.1c0.5,0.3,0.9,0.7,1.3,1.2
			L88.8,210.8L88.8,210.8z M75.4,195.8c1.1,0,2.1-0.1,3-0.4s1.6-0.7,2.2-1.2c0.6-0.5,1-1.1,1.3-1.8s0.4-1.5,0.4-2.3
			c0-1.7-0.6-3-1.7-3.9s-2.8-1.3-5.1-1.3h-4.3v10.9L75.4,195.8L75.4,195.8z M116.3,210.8h-3c-0.3,0-0.6-0.1-0.8-0.3
			c-0.2-0.2-0.4-0.4-0.5-0.7l-2.7-7h-13l-2.7,7c-0.1,0.2-0.2,0.5-0.5,0.6s-0.5,0.3-0.8,0.3h-3l11.6-29h4L116.3,210.8L116.3,210.8z
			 M108.1,200l-4.6-11.8c-0.1-0.4-0.3-0.8-0.4-1.2c-0.2-0.5-0.3-1-0.4-1.5c-0.3,1.1-0.6,2-0.9,2.7L97.3,200L108.1,200L108.1,200z
			 M150.3,181.8v29h-3.4v-21.3c0-0.3,0-0.6,0-0.9s0-0.6,0.1-1l-10,18.1c-0.3,0.6-0.8,0.9-1.4,0.9H135c-0.6,0-1.1-0.3-1.4-0.9
			l-10.2-18.2c0.1,0.7,0.1,1.4,0.1,2v21.3h-3.4v-29h2.9c0.3,0,0.6,0,0.8,0.1c0.2,0.1,0.4,0.3,0.6,0.6l10,17.9c0.2,0.3,0.3,0.7,0.5,1
			c0.2,0.4,0.3,0.7,0.4,1.1c0.1-0.4,0.3-0.7,0.4-1.1c0.1-0.4,0.3-0.7,0.5-1l9.8-17.8c0.2-0.3,0.3-0.5,0.5-0.6s0.5-0.1,0.8-0.1
			L150.3,181.8L150.3,181.8z M166.3,181.8c1.8,0,3.4,0.2,4.8,0.6s2.5,1,3.4,1.8s1.6,1.7,2,2.8c0.4,1.1,0.7,2.3,0.7,3.7
			s-0.2,2.6-0.7,3.7s-1.2,2.1-2.1,2.9s-2,1.4-3.4,1.9c-1.3,0.4-2.9,0.7-4.6,0.7h-4.7v10.9h-3.9v-29L166.3,181.8L166.3,181.8z
			 M166.3,196.8c1.1,0,2.1-0.1,3-0.4s1.6-0.7,2.2-1.2c0.6-0.5,1-1.2,1.3-1.9s0.4-1.6,0.4-2.4c0-1.9-0.6-3.3-1.7-4.3
			c-1.1-1-2.9-1.6-5.2-1.6h-4.7v11.9L166.3,196.8L166.3,196.8z"/>
	</g>
	<path class="st0" d="M153.9,155.8h8.2v1.4h-3.2v8.3h-1.8v-8.3h-3.2V155.8z M173.2,155.8v9.8h-1.5V159l-2.6,5h-1.1l-2.6-4.9v6.5
		h-1.6v-9.8h1.4l3.4,6.5l3.4-6.5H173.2L173.2,155.8z"/>
</g>
</svg>
