<?xml version="1.0" encoding="UTF-8"?>
<svg id="Layer_1" data-name="Layer 1" xmlns="http://www.w3.org/2000/svg" xmlns:xlink="http://www.w3.org/1999/xlink" viewBox="0 0 164.71 206.97">
  <defs>
    <style>
      .cls-1 {
        fill: none;
      }

      .cls-2 {
        clip-path: url(#clippath);
      }

      .cls-3 {
        fill: #fff;
      }

      .cls-4 {
        fill: #e41d3f;
      }

      .cls-5 {
        fill: #122f52;
      }

      .cls-6 {
        fill: #123054;
      }

      .cls-7 {
        fill: #123053;
      }

      .cls-8 {
        fill: #14345a;
      }

      .cls-9 {
        fill: #143459;
      }

      .cls-10 {
        fill: #112e51;
      }

      .cls-11 {
        fill: #183a64;
      }

      .cls-12 {
        fill: #183b65;
      }

      .cls-13 {
        fill: #183c66;
      }

      .cls-14 {
        fill: #173963;
      }

      .cls-15 {
        fill: #173962;
      }

      .cls-16 {
        fill: #173a63;
      }

      .cls-17 {
        fill: #173860;
      }

      .cls-18 {
        fill: #173961;
      }

      .cls-19 {
        fill: #16365d;
      }

      .cls-20 {
        fill: #16375e;
      }

      .cls-21 {
        fill: #16375f;
      }

      .cls-22 {
        fill: #163860;
      }

      .cls-23 {
        fill: #1f4f88;
      }

      .cls-24 {
        fill: #1f4f89;
      }

      .cls-25 {
        fill: #1f508b;
      }

      .cls-26 {
        fill: #1f508a;
      }

      .cls-27 {
        fill: #1f4e87;
      }

      .cls-28 {
        fill: #1f4e88;
      }

      .cls-29 {
        fill: #1f4e86;
      }

      .cls-30 {
        fill: #1e4d85;
      }

      .cls-31 {
        fill: #1e4d84;
      }

      .cls-32 {
        fill: #1e4c84;
      }

      .cls-33 {
        fill: #1e4c83;
      }

      .cls-34 {
        fill: #1e4b82;
      }

      .cls-35 {
        fill: #1e4b80;
      }

      .cls-36 {
        fill: #1e4b81;
      }

      .cls-37 {
        fill: #1e4a80;
      }

      .cls-38 {
        fill: #1e4a7f;
      }

      .cls-39 {
        fill: #133256;
      }

      .cls-40 {
        fill: #133154;
      }

      .cls-41 {
        fill: #133155;
      }

      .cls-42 {
        fill: #205390;
      }

      .cls-43 {
        fill: #205492;
      }

      .cls-44 {
        fill: #205391;
      }

      .cls-45 {
        fill: #205593;
      }

      .cls-46 {
        fill: #205594;
      }

      .cls-47 {
        fill: #1f528f;
      }

      .cls-48 {
        fill: #1f528e;
      }

      .cls-49 {
        fill: #1f518d;
      }

      .cls-50 {
        fill: #1f518c;
      }

      .cls-51 {
        fill: #143358;
      }

      .cls-52 {
        fill: #143257;
      }

      .cls-53 {
        fill: #15355b;
      }

      .cls-54 {
        fill: #15355c;
      }

      .cls-55 {
        fill: #15365d;
      }

      .cls-56 {
        fill: #193d69;
      }

      .cls-57 {
        fill: #193e6a;
      }

      .cls-58 {
        fill: #193e6b;
      }

      .cls-59 {
        fill: #193d68;
      }

      .cls-60 {
        fill: #193c68;
      }

      .cls-61 {
        fill: #193c67;
      }

      .cls-62 {
        fill: #1d487d;
      }

      .cls-63 {
        fill: #1d497d;
      }

      .cls-64 {
        fill: #1d497e;
      }

      .cls-65 {
        fill: #1d487c;
      }

      .cls-66 {
        fill: #1d487b;
      }

      .cls-67 {
        fill: #1d477a;
      }

      .cls-68 {
        fill: #1c4678;
      }

      .cls-69 {
        fill: #1c4679;
      }

      .cls-70 {
        fill: #1b4373;
      }

      .cls-71 {
        fill: #1b4170;
      }

      .cls-72 {
        fill: #1a3f6b;
      }

      .cls-73 {
        fill: #1a3f6d;
      }

      .cls-74 {
        fill: #1a3f6c;
      }

      .cls-75 {
        fill: #1a406e;
      }

      .cls-76 {
        fill: #1a416f;
      }

      .cls-77 {
        fill: #1c4577;
      }

      .cls-78 {
        fill: #1c4576;
      }

      .cls-79 {
        fill: #1c4474;
      }

      .cls-80 {
        fill: #1c4475;
      }

      .cls-81 {
        fill: #1b4271;
      }

      .cls-82 {
        fill: #1b4270;
      }

      .cls-83 {
        fill: #1b4272;
      }
    </style>
    <clipPath id="clippath">
      <circle class="cls-1" cx="82.05" cy="82.05" r="82.05"/>
    </clipPath>
  </defs>
  <g>
    <g class="cls-2">
      <rect class="cls-10" width="164.09" height="164.09"/>
      <circle class="cls-10" cx="82.05" cy="82.05" r="82.05"/>
      <circle class="cls-10" cx="82.05" cy="82.05" r="77.79"/>
      <circle class="cls-10" cx="82.05" cy="82.05" r="73.53"/>
      <circle class="cls-5" cx="82.05" cy="82.05" r="72.71"/>
      <circle class="cls-5" cx="82.05" cy="82.05" r="71.89"/>
      <circle class="cls-7" cx="82.05" cy="82.05" r="71.07"/>
      <circle class="cls-6" cx="82.05" cy="82.05" r="70.26"/>
      <circle class="cls-40" cx="82.05" cy="82.05" r="69.44"/>
      <circle class="cls-41" cx="82.05" cy="82.05" r="68.62"/>
      <circle class="cls-39" cx="82.05" cy="82.05" r="67.81"/>
      <circle class="cls-39" cx="82.05" cy="82.05" r="66.99"/>
      <circle class="cls-52" cx="82.05" cy="82.05" r="66.17"/>
      <circle class="cls-51" cx="82.05" cy="82.05" r="65.36"/>
      <circle class="cls-51" cx="82.05" cy="82.05" r="64.54"/>
      <circle class="cls-9" cx="82.05" cy="82.05" r="63.72"/>
      <circle class="cls-8" cx="82.05" cy="82.05" r="62.91"/>
      <circle class="cls-53" cx="82.05" cy="82.05" r="62.09"/>
      <circle class="cls-53" cx="82.05" cy="82.05" r="61.27"/>
      <circle class="cls-54" cx="82.05" cy="82.05" r="60.45"/>
      <circle class="cls-55" cx="82.05" cy="82.05" r="59.64"/>
      <circle class="cls-19" cx="82.05" cy="82.05" r="58.82"/>
      <circle class="cls-20" cx="82.05" cy="82.05" r="58"/>
      <circle class="cls-21" cx="82.05" cy="82.05" r="57.19"/>
      <circle class="cls-22" cx="82.05" cy="82.05" r="56.37"/>
      <circle class="cls-17" cx="82.05" cy="82.05" r="55.55"/>
      <circle class="cls-18" cx="82.05" cy="82.05" r="54.74"/>
      <circle class="cls-15" cx="82.05" cy="82.05" r="53.92"/>
      <circle class="cls-14" cx="82.05" cy="82.05" r="53.1"/>
      <circle class="cls-16" cx="82.05" cy="82.05" r="52.28"/>
      <circle class="cls-11" cx="82.05" cy="82.05" r="51.47"/>
      <circle class="cls-12" cx="82.05" cy="82.05" r="50.65"/>
      <circle class="cls-12" cx="82.05" cy="82.05" r="49.83"/>
      <circle class="cls-13" cx="82.05" cy="82.05" r="49.02"/>
      <circle class="cls-61" cx="82.05" cy="82.05" r="48.2"/>
      <circle class="cls-60" cx="82.05" cy="82.05" r="47.38"/>
      <circle class="cls-59" cx="82.05" cy="82.05" r="46.57"/>
      <circle class="cls-56" cx="82.05" cy="82.05" r="45.75"/>
      <circle class="cls-57" cx="82.05" cy="82.05" r="44.93"/>
      <circle class="cls-58" cx="82.05" cy="82.05" r="44.12"/>
      <circle class="cls-72" cx="82.05" cy="82.05" r="43.3"/>
      <circle class="cls-74" cx="82.05" cy="82.05" r="42.48"/>
      <circle class="cls-73" cx="82.05" cy="82.05" r="41.66"/>
      <circle class="cls-75" cx="82.05" cy="82.05" r="40.85"/>
      <circle class="cls-75" cx="82.05" cy="82.05" r="40.03"/>
      <circle class="cls-76" cx="82.05" cy="82.05" r="39.21"/>
      <circle class="cls-71" cx="82.05" cy="82.05" r="38.4"/>
      <circle class="cls-82" cx="82.05" cy="82.05" r="37.58"/>
      <circle class="cls-81" cx="82.05" cy="82.05" r="36.76"/>
      <circle class="cls-83" cx="82.05" cy="82.05" r="35.95"/>
      <circle class="cls-70" cx="82.05" cy="82.05" r="35.13"/>
      <circle class="cls-70" cx="82.05" cy="82.05" r="34.31"/>
      <circle class="cls-79" cx="82.05" cy="82.05" r="33.5"/>
      <circle class="cls-80" cx="82.05" cy="82.05" r="32.68"/>
      <circle class="cls-78" cx="82.05" cy="82.05" r="31.86"/>
      <circle class="cls-77" cx="82.05" cy="82.05" r="31.04"/>
      <circle class="cls-77" cx="82.05" cy="82.05" r="30.23"/>
      <circle class="cls-68" cx="82.05" cy="82.05" r="29.41"/>
      <circle class="cls-69" cx="82.05" cy="82.05" r="28.59"/>
      <circle class="cls-67" cx="82.05" cy="82.05" r="27.78"/>
      <circle class="cls-67" cx="82.05" cy="82.05" r="26.96"/>
      <circle class="cls-66" cx="82.05" cy="82.05" r="26.14"/>
      <circle class="cls-65" cx="82.05" cy="82.05" r="25.33"/>
      <circle class="cls-62" cx="82.05" cy="82.05" r="24.51"/>
      <circle class="cls-63" cx="82.05" cy="82.05" r="23.69"/>
      <circle class="cls-64" cx="82.05" cy="82.05" r="22.87"/>
      <circle class="cls-38" cx="82.05" cy="82.05" r="22.06"/>
      <circle class="cls-37" cx="82.05" cy="82.05" r="21.24"/>
      <circle class="cls-35" cx="82.05" cy="82.05" r="20.42"/>
      <circle class="cls-36" cx="82.05" cy="82.05" r="19.61"/>
      <circle class="cls-34" cx="82.05" cy="82.05" r="18.79"/>
      <circle class="cls-33" cx="82.05" cy="82.05" r="17.97"/>
      <circle class="cls-32" cx="82.05" cy="82.05" r="17.16"/>
      <circle class="cls-31" cx="82.05" cy="82.05" r="16.34"/>
      <circle class="cls-30" cx="82.05" cy="82.05" r="15.52"/>
      <circle class="cls-29" cx="82.05" cy="82.05" r="14.71"/>
      <circle class="cls-27" cx="82.05" cy="82.05" r="13.89"/>
      <circle class="cls-28" cx="82.05" cy="82.05" r="13.07"/>
      <circle class="cls-23" cx="82.05" cy="82.05" r="12.25"/>
      <circle class="cls-24" cx="82.05" cy="82.05" r="11.44"/>
      <circle class="cls-26" cx="82.05" cy="82.05" r="10.62"/>
      <circle class="cls-25" cx="82.05" cy="82.05" r="9.8"/>
      <circle class="cls-50" cx="82.05" cy="82.05" r="8.99"/>
      <circle class="cls-50" cx="82.05" cy="82.05" r="8.17"/>
      <circle class="cls-49" cx="82.05" cy="82.05" r="7.35"/>
      <circle class="cls-48" cx="82.05" cy="82.05" r="6.54"/>
      <circle class="cls-47" cx="82.05" cy="82.05" r="5.72"/>
      <circle class="cls-42" cx="82.05" cy="82.05" r="4.9"/>
      <circle class="cls-44" cx="82.05" cy="82.05" r="4.08"/>
      <circle class="cls-43" cx="82.05" cy="82.05" r="3.27"/>
      <circle class="cls-43" cx="82.05" cy="82.05" r="2.45"/>
      <circle class="cls-45" cx="82.05" cy="82.05" r="1.63"/>
      <circle class="cls-46" cx="82.05" cy="82.05" r=".82"/>
    </g>
    <path class="cls-3" d="M127.06,91.27l18,34.69h-22.23l-16.54-31.57h-11.49v31.57h-20.11v-43.62c-.01-.1-.02-.19-.02-.29s.01-.19,.01-.29v-.46s.02,0,.02,0c.34-3.39,2.93-6.1,6.26-6.64v-.06s.42,0,.42,0c.26-.03,.52-.04,.79-.04,.23,0,.46,.01,.69,.03h1.54c.17-.02,.35-.02,.52-.02h32.79c1.82-.16,3.5-.85,4.89-2.03,1.95-1.66,3.08-4.09,3.08-6.67,0-3.47-2.05-6.61-5.23-8.02-1.03-.45-2.14-.7-3.29-.72l-2.66-.03H40.87s0,17.47,0,17.47h25.69v19.74h-25.69v31.64H20.75V46.47c0-5.24,4.26-9.5,9.5-9.5H117.4c15.42,.07,27.94,12.65,27.94,28.04,0,11.83-7.54,22.25-18.28,26.26Z"/>
    <path class="cls-4" d="M3.93,182.68v9.44H15.03v2.98H3.93v11.61H.28v-27H16.92v2.98H3.93Zm32.35,21.35c-.41,.5-.91,.94-1.49,1.31-.58,.37-1.2,.68-1.86,.91-.66,.24-1.34,.42-2.04,.54s-1.4,.18-2.09,.18c-1.32,0-2.53-.22-3.65-.67-1.11-.45-2.07-1.1-2.88-1.96-.81-.86-1.44-1.92-1.89-3.19-.45-1.27-.68-2.73-.68-4.37,0-1.33,.2-2.57,.61-3.73,.41-1.16,1-2.16,1.76-3.01,.77-.85,1.7-1.51,2.81-2,1.11-.48,2.35-.72,3.73-.72,1.14,0,2.2,.19,3.17,.57,.97,.38,1.82,.94,2.52,1.66s1.27,1.61,1.67,2.68c.4,1.06,.6,2.27,.6,3.63,0,.53-.06,.88-.17,1.05s-.33,.26-.64,.26h-12.75c.04,1.21,.2,2.25,.5,3.15,.3,.89,.71,1.64,1.23,2.23,.53,.6,1.16,1.04,1.88,1.34,.73,.29,1.55,.44,2.45,.44,.84,0,1.57-.1,2.18-.29,.61-.2,1.13-.41,1.57-.63s.81-.44,1.1-.63c.3-.19,.55-.29,.76-.29,.28,0,.49,.11,.64,.32l.94,1.23Zm-2.71-8.95c0-.78-.11-1.49-.33-2.14-.22-.65-.54-1.21-.96-1.68-.42-.47-.93-.83-1.54-1.09-.6-.26-1.29-.39-2.05-.39-1.61,0-2.88,.47-3.82,1.4-.93,.94-1.52,2.23-1.74,3.89h10.44Zm22.91-16.13v27.75h-2c-.48,0-.78-.23-.9-.7l-.3-2.32c-.82,.98-1.75,1.77-2.79,2.37-1.04,.6-2.25,.9-3.62,.9-1.09,0-2.09-.21-2.98-.63-.89-.42-1.65-1.04-2.28-1.85-.63-.82-1.11-1.83-1.45-3.05-.34-1.22-.51-2.62-.51-4.2,0-1.41,.19-2.72,.57-3.93,.38-1.21,.92-2.26,1.62-3.15,.7-.89,1.57-1.59,2.59-2.1s2.18-.76,3.46-.76c1.17,0,2.17,.2,3.01,.59,.84,.39,1.58,.94,2.23,1.65v-10.57h3.35Zm-3.35,13.21c-.63-.84-1.31-1.43-2.03-1.76-.73-.33-1.55-.5-2.45-.5-1.77,0-3.14,.63-4.09,1.9-.95,1.27-1.43,3.08-1.43,5.43,0,1.24,.11,2.31,.32,3.19,.21,.89,.53,1.61,.94,2.19,.41,.57,.92,.99,1.53,1.25,.6,.26,1.29,.39,2.05,.39,1.11,0,2.07-.25,2.89-.75,.82-.5,1.58-1.21,2.27-2.13v-9.21Zm29.41,14.54h-3.24c-.67,0-1.16-.26-1.47-.77l-7.01-9.65c-.21-.3-.44-.52-.69-.65-.25-.13-.63-.2-1.14-.2h-2.77v11.27h-3.64v-27h7.63c1.71,0,3.18,.17,4.43,.52,1.24,.34,2.27,.84,3.08,1.5,.81,.65,1.41,1.44,1.8,2.36,.39,.92,.58,1.96,.58,3.1,0,.95-.15,1.85-.45,2.68-.3,.83-.74,1.57-1.31,2.23-.57,.66-1.27,1.22-2.09,1.69-.82,.46-1.76,.82-2.8,1.05,.46,.26,.87,.65,1.21,1.15l7.87,10.72Zm-12.47-13.92c1.05,0,1.99-.13,2.8-.39s1.49-.62,2.04-1.09c.54-.47,.96-1.03,1.23-1.69,.27-.65,.41-1.37,.41-2.17,0-1.61-.53-2.82-1.58-3.64-1.05-.82-2.64-1.23-4.75-1.23h-3.99v10.19h3.84Zm38.07,13.92h-2.83c-.33,0-.59-.08-.79-.25-.2-.16-.35-.37-.45-.62l-2.52-6.52h-12.11l-2.52,6.52c-.08,.23-.22,.43-.43,.6s-.48,.26-.79,.26h-2.83l10.8-27h3.69l10.8,27Zm-7.61-10.02l-4.24-10.98c-.13-.33-.26-.71-.39-1.14-.14-.43-.27-.89-.39-1.38-.26,1.02-.53,1.87-.81,2.54l-4.24,10.96h10.08Zm39.26-16.97v27h-3.2v-19.84c0-.26,0-.55,.03-.85,.02-.3,.04-.61,.07-.92l-9.27,16.88c-.29,.56-.73,.85-1.32,.85h-.53c-.59,0-1.03-.28-1.32-.85l-9.46-16.96c.07,.67,.11,1.28,.11,1.85v19.84h-3.2v-27h2.69c.33,0,.58,.03,.76,.09,.17,.06,.34,.24,.51,.53l9.33,16.62c.15,.3,.3,.61,.44,.94,.14,.33,.28,.66,.4,1,.13-.34,.26-.68,.39-1.01,.14-.33,.29-.65,.45-.95l9.16-16.6c.15-.29,.32-.46,.5-.53s.44-.09,.76-.09h2.69Zm14.87,0c1.71,0,3.19,.2,4.45,.59,1.26,.4,2.31,.96,3.14,1.69,.83,.73,1.45,1.61,1.85,2.64,.41,1.03,.61,2.18,.61,3.45s-.22,2.41-.66,3.45c-.44,1.04-1.08,1.94-1.93,2.69-.85,.75-1.9,1.34-3.15,1.76-1.25,.42-2.69,.63-4.32,.63h-4.33v10.1h-3.64v-27h7.97Zm0,14c1.04,0,1.96-.14,2.76-.41s1.47-.66,2.02-1.16c.54-.5,.96-1.09,1.23-1.78,.27-.69,.41-1.45,.41-2.28,0-1.72-.53-3.06-1.59-4.03-1.06-.97-2.67-1.45-4.83-1.45h-4.33v11.12h4.33Z"/>
  </g>
  <path class="cls-10" d="M140.52,149.33h8.17v1.45h-3.2v8.33h-1.77v-8.33h-3.2v-1.45Zm19.21,0v9.78h-1.54v-6.58l-2.64,5.04h-1.15l-2.62-4.92v6.46h-1.59v-9.78h1.4l3.4,6.51,3.38-6.51h1.36Z"/>
</svg>