<?xml version="1.0" encoding="utf-8"?>
<!-- Generator: Adobe Illustrator 25.0.1, SVG Export Plug-In . SVG Version: 6.00 Build 0)  -->
<svg version="1.1" id="Layer_1" xmlns="http://www.w3.org/2000/svg" xmlns:xlink="http://www.w3.org/1999/xlink" x="0px" y="0px"
	 viewBox="0 0 199.6 44.2" style="enable-background:new 0 0 199.6 44.2;" xml:space="preserve">
<style type="text/css">
	.st0{fill:#1A4480;}
	.st1{fill:#FFFFFF;}
</style>
<g id="Group_4510" transform="translate(-0.6 -22.6)">
	<g id="Group_4508">
		<path id="Path_11431" class="st0" d="M22.2,23.5L178.5,23c11.7,0,21.2,9.5,21.3,21.2v0.5c0,11.7-9.5,21.2-21.2,21.3L22.3,66.4
			C10.6,66.5,1.1,57.1,1,45.4c0-0.1,0-0.1,0-0.2v-0.5c-0.1-11.6,9.3-21.1,21-21.2C22,23.5,22.1,23.5,22.2,23.5z"/>
		<path id="Path_11432" class="st0" d="M22.1,66.8c-5.7,0-11.1-2.2-15.1-6.2C2.9,56.5,0.6,51,0.6,45.2v-0.5
			C0.5,39,2.8,33.5,6.8,29.5c4.1-4.1,9.6-6.4,15.4-6.4l156.3-0.5c12,0,21.7,9.6,21.7,21.6v0.5c0,12-9.6,21.7-21.6,21.7L22.3,66.8
			H22.1z M22.2,23.9c-5.6,0-11,2.2-14.9,6.2c-3.9,3.9-6,9.2-6,14.7v0.5c0,11.5,9.4,20.8,20.9,20.8c0,0,0.1,0,0.1,0l156.3-0.4
			c11.5,0,20.8-9.4,20.8-20.9v-0.5c0-11.5-9.4-20.8-20.9-20.8L22.2,23.9z"/>
	</g>
	<g id="Group_4509">
		<path id="Path_11433" class="st1" d="M39.3,48h-5.4l-1,2.5h-2.7L35.3,39h2.6l5.2,11.5h-2.8L39.3,48z M38.4,46l-1.8-4.4L34.8,46
			H38.4z"/>
		<path id="Path_11434" class="st1" d="M53.2,41.6V49c0,3.3-1.8,4.8-5,4.8c-1.6,0.1-3.1-0.4-4.4-1.2l1-1.8c0.9,0.6,2,1,3.1,1
			c1.8,0,2.6-0.8,2.6-2.4V49c-0.7,0.7-1.8,1.1-2.8,1.1c-2.3,0.1-4.3-1.6-4.4-3.9c0-0.1,0-0.2,0-0.4c0-2.3,1.8-4.3,4.2-4.3
			c0.1,0,0.2,0,0.2,0c1.1-0.1,2.2,0.4,2.9,1.3v-1.1h2.6L53.2,41.6z M50.6,45.8c0.1-1.3-0.9-2.3-2.2-2.4s-2.3,0.9-2.4,2.2
			c-0.1,1.3,0.9,2.3,2.2,2.4c0,0,0.1,0,0.1,0c1.2,0.1,2.2-0.9,2.3-2.1C50.6,45.9,50.6,45.8,50.6,45.8z"/>
		<path id="Path_11435" class="st1" d="M64.2,46.8h-6.7c0.3,1.1,1.3,1.9,2.5,1.8c0.8,0,1.6-0.3,2.2-0.9l1.4,1.5
			c-1,1-2.3,1.5-3.7,1.4c-3.1,0-5.1-1.9-5.1-4.6c-0.1-2.5,1.9-4.5,4.4-4.6c0.1,0,0.2,0,0.3,0c2.4-0.1,4.5,1.7,4.6,4.1
			c0,0.2,0,0.3,0,0.5C64.2,46.2,64.3,46.5,64.2,46.8z M57.5,45.3h4.4c-0.2-1.1-1.1-1.9-2.2-1.8c-1.1-0.1-2,0.6-2.2,1.7
			C57.5,45.2,57.5,45.3,57.5,45.3z"/>
		<path id="Path_11436" class="st1" d="M75.1,45.4v5.1h-2.6v-4.7c0-1.4-0.7-2.1-1.8-2.1c-1.2,0-2.1,0.8-2.1,2.4v4.4H66v-8.9h2.5v1
			c0.7-0.8,1.8-1.3,2.9-1.2c2-0.1,3.7,1.5,3.7,3.5C75.1,45.1,75.1,45.2,75.1,45.4z"/>
		<path id="Path_11437" class="st1" d="M76.8,46.1c0-2.5,2-4.6,4.6-4.6c0.1,0,0.2,0,0.3,0c1.7-0.1,3.3,0.8,4,2.3l-2,1.1
			c-0.4-0.7-1.2-1.2-2-1.2c-1.2,0-2.3,1-2.3,2.2c0,0.1,0,0.2,0,0.3c-0.1,1.2,0.8,2.4,2,2.5c0.1,0,0.2,0,0.3,0c0.8,0,1.6-0.5,2-1.2
			l2,1.1c-0.8,1.5-2.3,2.4-4,2.2C78.9,50.6,76.8,48.7,76.8,46.1z"/>
		<path id="Path_11438" class="st1" d="M95.9,41.6l-4,9.4c-0.9,2.1-2.1,2.8-3.7,2.8c-0.9,0-1.8-0.3-2.5-0.8l0.9-1.8
			c0.4,0.4,0.9,0.6,1.5,0.6c0.7,0,1.1-0.3,1.5-1.1v-0.1l-3.8-8.9h2.7l2.5,6l2.5-6h2.4V41.6z"/>
		<path id="Path_11439" class="st1" d="M111.8,43.1c0,2.6-1.9,4.2-5,4.2h-2.3v3.2h-2.7V38.9h5C109.9,38.9,111.8,40.5,111.8,43.1z
			 M109.1,43.1c0-1.3-0.8-2-2.5-2h-2.2v4h2.2C108.3,45.1,109.1,44.4,109.1,43.1z"/>
		<path id="Path_11440" class="st1" d="M119.1,41.5v2.4h-0.6c-1.2-0.1-2.3,0.8-2.4,2.1c0,0.1,0,0.3,0,0.4v4.2h-2.6v-8.9h2.5v1.2
			C116.7,41.9,117.9,41.4,119.1,41.5z"/>
		<path id="Path_11441" class="st1" d="M119.9,46.1c0.2-2.7,2.5-4.8,5.2-4.6c2.5,0.2,4.4,2.1,4.6,4.6c0,2.5-2,4.6-4.5,4.6
			c-0.1,0-0.3,0-0.4,0C121.9,50.6,119.9,48.7,119.9,46.1z M127,46.1c0.1-1.3-0.9-2.4-2.1-2.5c-0.1,0-0.1,0-0.2,0
			c-1.2,0-2.3,1-2.3,2.2c0,0.1,0,0.2,0,0.3c-0.1,1.3,0.8,2.4,2.1,2.5c1.3,0.1,2.4-0.8,2.5-2.1C127,46.4,127,46.2,127,46.1z"/>
		<path id="Path_11442" class="st1" d="M130.7,46.1c0-2.5,2-4.6,4.6-4.6c0.1,0,0.2,0,0.3,0c1.7-0.1,3.3,0.8,4,2.3l-2,1.1
			c-0.4-0.7-1.2-1.2-2-1.2c-1.2,0-2.3,1-2.3,2.2c0,0.1,0,0.2,0,0.3c-0.1,1.2,0.8,2.4,2,2.5c0.1,0,0.2,0,0.3,0c0.8,0,1.6-0.5,2-1.2
			l2,1.1c-0.8,1.5-2.3,2.4-4,2.2C132.7,50.6,130.7,48.7,130.7,46.1z"/>
		<path id="Path_11443" class="st1" d="M149.6,46.8h-6.7c0.3,1.1,1.3,1.9,2.5,1.8c0.8,0,1.6-0.3,2.2-0.9l1.4,1.5
			c-1,1-2.3,1.5-3.7,1.4c-3.1,0-5.1-1.9-5.1-4.6c-0.1-2.5,1.9-4.5,4.4-4.6c0.1,0,0.2,0,0.3,0c2.4-0.1,4.5,1.7,4.6,4.1
			c0,0.2,0,0.3,0,0.5C149.6,46.2,149.7,46.5,149.6,46.8z M142.9,45.3h4.4c-0.2-1.1-1.1-1.9-2.2-1.8c-1-0.2-2,0.5-2.2,1.6
			C142.9,45.1,142.9,45.2,142.9,45.3L142.9,45.3z"/>
		<path id="Path_11444" class="st1" d="M150.5,49.7l0.9-1.8c0.9,0.6,2,0.9,3.1,0.9c1.2,0,1.6-0.3,1.6-0.8c0-1.5-5.4,0-5.4-3.5
			c0-1.7,1.5-2.9,4.1-2.9c1.2,0,2.4,0.3,3.4,0.8l-0.9,1.8c-0.8-0.5-1.7-0.7-2.6-0.7c-1.2,0-1.6,0.4-1.6,0.8c0,1.5,5.4,0,5.4,3.5
			c0,1.6-1.5,2.8-4.2,2.8C153,50.6,151.7,50.3,150.5,49.7z"/>
		<path id="Path_11445" class="st1" d="M159.3,49.7l0.9-1.8c0.9,0.6,2,0.9,3.1,0.9c1.2,0,1.6-0.3,1.6-0.8c0-1.5-5.4,0-5.4-3.5
			c0-1.7,1.5-2.9,4.1-2.9c1.2,0,2.4,0.3,3.4,0.8l-0.9,1.8c-0.8-0.5-1.7-0.7-2.6-0.7c-1.2,0-1.6,0.4-1.6,0.8c0,1.5,5.4,0,5.4,3.5
			c0,1.6-1.5,2.8-4.2,2.8C161.8,50.6,160.5,50.3,159.3,49.7z"/>
	</g>
</g>
</svg>
