<svg xmlns="http://www.w3.org/2000/svg" width="137.5" height="102.4" viewBox="0 0 137.5 102.4">
  <g id="Group_9271" data-name="Group 9271" transform="translate(-793.4 -481)">
    <g id="Group_9249" data-name="Group 9249" transform="translate(103.6 479.6)">
      <path id="Path_24114" data-name="Path 24114" d="M827,1.8H690.2v84h51.7l16.7,17.5,16.6-17.5H827Z" fill="#fff"/>
      <path id="Path_24115" data-name="Path 24115" d="M758.6,103.8,741.7,86.1H689.8V1.4H827.3V86.2h-52Zm-68-18.4h51.5l16.5,17.3L775,85.4h51.6V2.2h-136Z" fill="#1a4480"/>
    </g>
    <g id="Group_9250" data-name="Group 9250" transform="translate(103.6 479.6)" style="isolation: isolate">
      <path id="Path_24116" data-name="Path 24116" d="M708.7,24.3h7.9v1.2h-6.5V30h6.1v1.2h-6.1v5.9h-1.5l.1-12.8Z" fill="#1a4480"/>
      <path id="Path_24117" data-name="Path 24117" d="M726.1,28.1v9.1h-1.4V35.6a3.039,3.039,0,0,1-1.2,1.3,3.287,3.287,0,0,1-1.7.4,2.953,2.953,0,0,1-2.4-.9,3.646,3.646,0,0,1-.8-2.7V28.1h1.5v5.6a2.969,2.969,0,0,0,.5,1.8,1.755,1.755,0,0,0,1.5.6,2.407,2.407,0,0,0,1.9-.8,2.817,2.817,0,0,0,.7-2.1V28.1Z" fill="#1a4480"/>
      <path id="Path_24118" data-name="Path 24118" d="M728.9,23.9h1.5V37.1h-1.5Z" fill="#1a4480"/>
      <path id="Path_24119" data-name="Path 24119" d="M733.1,23.9h1.5V37.1h-1.5Z" fill="#1a4480"/>
      <path id="Path_24120" data-name="Path 24120" d="M741.6,35.7l.6-1.1a9.974,9.974,0,0,0,1.9,1.2,8.017,8.017,0,0,0,2.3.3,4.265,4.265,0,0,0,2.4-.6,1.88,1.88,0,0,0,.8-1.7,1.5,1.5,0,0,0-.4-1.1,1.975,1.975,0,0,0-1.1-.6,10.626,10.626,0,0,0-1.8-.5,18.374,18.374,0,0,1-2.4-.7,2.827,2.827,0,0,1-1.5-1.1,2.883,2.883,0,0,1-.6-1.9,3.077,3.077,0,0,1,.6-1.9,3.435,3.435,0,0,1,1.6-1.3,6.175,6.175,0,0,1,2.5-.5,6.9,6.9,0,0,1,2.5.4,5.162,5.162,0,0,1,1.9,1.2l-.6,1.1a5.825,5.825,0,0,0-1.8-1.1,6.465,6.465,0,0,0-2-.4,3.715,3.715,0,0,0-2.3.6,1.949,1.949,0,0,0-.8,1.8,1.8,1.8,0,0,0,.7,1.5,6.654,6.654,0,0,0,2.3.8c1.1.3,2,.5,2.6.7a4.355,4.355,0,0,1,1.6,1,2.445,2.445,0,0,1,.6,1.8,3.077,3.077,0,0,1-.6,1.9,4.172,4.172,0,0,1-1.6,1.3,6.566,6.566,0,0,1-2.5.4A6.437,6.437,0,0,1,741.6,35.7Z" fill="#1a4480"/>
      <path id="Path_24121" data-name="Path 24121" d="M760.9,32.6h-6.6a3.844,3.844,0,0,0,.8,2.6,2.869,2.869,0,0,0,2.3.9,4.555,4.555,0,0,0,2.9-1.1l.5,1.1a3.765,3.765,0,0,1-1.5.9,6.279,6.279,0,0,1-1.9.3,4.156,4.156,0,0,1-3.3-1.3,4.7,4.7,0,0,1-1.2-3.4,6.962,6.962,0,0,1,.5-2.5,4.977,4.977,0,0,1,1.5-1.7,4.031,4.031,0,0,1,2.2-.6,3.489,3.489,0,0,1,2.8,1.2,4.722,4.722,0,0,1,1,3.2Zm-5.7-2.9a3.1,3.1,0,0,0-.9,1.9h5.3a3.041,3.041,0,0,0-.7-1.9,2.793,2.793,0,0,0-3.7,0Z" fill="#1a4480"/>
      <path id="Path_24122" data-name="Path 24122" d="M764.6,36.7a3.319,3.319,0,0,1-1.5-1.6,4.87,4.87,0,0,1-.5-2.5,6.551,6.551,0,0,1,.5-2.5,4.978,4.978,0,0,1,1.5-1.7,4.383,4.383,0,0,1,2.3-.6,5.663,5.663,0,0,1,1.8.3,3.39,3.39,0,0,1,1.4.9l-.5,1.1a6.551,6.551,0,0,0-1.3-.8A3.079,3.079,0,0,0,767,29a2.792,2.792,0,0,0-2.2.9,4.033,4.033,0,0,0-.8,2.6,3.742,3.742,0,0,0,.8,2.5,2.792,2.792,0,0,0,2.2.9,3.079,3.079,0,0,0,1.3-.3,4.579,4.579,0,0,0,1.3-.8l.5,1.1a6.7,6.7,0,0,1-1.4.9,5.663,5.663,0,0,1-1.8.3A3.1,3.1,0,0,1,764.6,36.7Z" fill="#1a4480"/>
      <path id="Path_24123" data-name="Path 24123" d="M779.6,28.1v9.1h-1.4V35.6a3.039,3.039,0,0,1-1.2,1.3,3.287,3.287,0,0,1-1.7.4,2.953,2.953,0,0,1-2.4-.9,3.646,3.646,0,0,1-.8-2.7V28.1h1.5v5.6a2.969,2.969,0,0,0,.5,1.8,1.755,1.755,0,0,0,1.5.6,2.407,2.407,0,0,0,1.9-.8,2.817,2.817,0,0,0,.7-2.1V28.1Z" fill="#1a4480"/>
      <path id="Path_24124" data-name="Path 24124" d="M787.5,28v1.3a3.083,3.083,0,0,0-1-.1,2.629,2.629,0,0,0-2,.8,3.173,3.173,0,0,0-.6,2v5.2h-1.5V30.7a19.283,19.283,0,0,0-.1-2.5h1.4l.1,1.7a2.586,2.586,0,0,1,1.1-1.4,3.371,3.371,0,0,1,1.7-.5A1.388,1.388,0,0,1,787.5,28Z" fill="#1a4480"/>
      <path id="Path_24125" data-name="Path 24125" d="M790.6,24.3V26h-1.8V24.3Zm-1.7,3.8h1.5v9.1h-1.5Z" fill="#1a4480"/>
      <path id="Path_24126" data-name="Path 24126" d="M795.2,29.2v5a1.809,1.809,0,0,0,.4,1.4,1.594,1.594,0,0,0,1.2.4,3.553,3.553,0,0,0,1-.2V37a5.066,5.066,0,0,1-1.3.2,2.578,2.578,0,0,1-2-.7,2.918,2.918,0,0,1-.7-2.2V29.2H792V28h1.8V25.7l1.5-.5V28h2.6v1.2Z" fill="#1a4480"/>
      <path id="Path_24127" data-name="Path 24127" d="M807.6,28.1,803.4,38a5.148,5.148,0,0,1-1.7,2.3,6.257,6.257,0,0,1-2.5,1l-.3-1.1a3.745,3.745,0,0,0,1.9-.8,3.656,3.656,0,0,0,1.1-1.5l.4-.8-3.8-9H800l3.1,7.5,3.1-7.5Z" fill="#1a4480"/>
    </g>
    <g id="Group_9251" data-name="Group 9251" transform="translate(103.6 479.6)" style="isolation: isolate">
      <path id="Path_24128" data-name="Path 24128" d="M717.2,55.5h-6.7l-1.4,3.3h-1.5L713.2,46h1.3l5.6,12.8h-1.5Zm-.5-1.3-2.8-6.6-2.8,6.6Z" fill="#1a4480"/>
      <path id="Path_24129" data-name="Path 24129" d="M721.2,57.7l.5-1.1a3.675,3.675,0,0,0,1.5.8,4.671,4.671,0,0,0,1.7.3,2.537,2.537,0,0,0,1.6-.4,1.016,1.016,0,0,0,.5-1,1.086,1.086,0,0,0-.4-.9,2.254,2.254,0,0,0-1.2-.5l-1.5-.4a4.352,4.352,0,0,1-1.8-.9,1.716,1.716,0,0,1-.6-1.5,2.166,2.166,0,0,1,1-1.9,3.9,3.9,0,0,1,2.5-.7,5.662,5.662,0,0,1,1.8.3,3.39,3.39,0,0,1,1.4.9l-.5,1.1a4.473,4.473,0,0,0-2.7-1.1,2.41,2.41,0,0,0-1.5.4,1.016,1.016,0,0,0-.5,1,1.222,1.222,0,0,0,.3.9,2.257,2.257,0,0,0,1.1.5l1.5.4a4.212,4.212,0,0,1,1.9.9,2.111,2.111,0,0,1,.6,1.6,2.166,2.166,0,0,1-1,1.9,4.209,4.209,0,0,1-2.6.7A5.8,5.8,0,0,1,721.2,57.7Z" fill="#1a4480"/>
      <path id="Path_24130" data-name="Path 24130" d="M730.1,57.7l.5-1.1a3.675,3.675,0,0,0,1.5.8,4.671,4.671,0,0,0,1.7.3,2.537,2.537,0,0,0,1.6-.4,1.016,1.016,0,0,0,.5-1,1.086,1.086,0,0,0-.4-.9,2.255,2.255,0,0,0-1.2-.5l-1.5-.4a4.352,4.352,0,0,1-1.8-.9,1.716,1.716,0,0,1-.6-1.5,2.166,2.166,0,0,1,1-1.9,3.9,3.9,0,0,1,2.5-.7,5.663,5.663,0,0,1,1.8.3,3.39,3.39,0,0,1,1.4.9l-.5,1.1a4.473,4.473,0,0,0-2.7-1.1,2.41,2.41,0,0,0-1.5.4,1.016,1.016,0,0,0-.5,1,1.222,1.222,0,0,0,.3.9,2.257,2.257,0,0,0,1.1.5l1.5.4a4.213,4.213,0,0,1,1.9.9,2.111,2.111,0,0,1,.6,1.6,2.166,2.166,0,0,1-1,1.9,4.209,4.209,0,0,1-2.6.7A5.8,5.8,0,0,1,730.1,57.7Z" fill="#1a4480"/>
      <path id="Path_24131" data-name="Path 24131" d="M747.2,54.2h-6.6a3.844,3.844,0,0,0,.8,2.6,2.869,2.869,0,0,0,2.3.9,4.555,4.555,0,0,0,2.9-1.1l.5,1.1a3.765,3.765,0,0,1-1.5.9,6.279,6.279,0,0,1-1.9.3,4.156,4.156,0,0,1-3.3-1.3,4.7,4.7,0,0,1-1.2-3.4,6.963,6.963,0,0,1,.5-2.5,4.977,4.977,0,0,1,1.5-1.7,4.032,4.032,0,0,1,2.2-.6,3.489,3.489,0,0,1,2.8,1.2,4.722,4.722,0,0,1,1,3.2Zm-5.7-2.9a3.1,3.1,0,0,0-.9,1.9h5.3a3.042,3.042,0,0,0-.7-1.9,2.793,2.793,0,0,0-3.7,0Z" fill="#1a4480"/>
      <path id="Path_24132" data-name="Path 24132" d="M748.8,57.7l.5-1.1a3.675,3.675,0,0,0,1.5.8,4.671,4.671,0,0,0,1.7.3,2.537,2.537,0,0,0,1.6-.4,1.016,1.016,0,0,0,.5-1,1.086,1.086,0,0,0-.4-.9,2.255,2.255,0,0,0-1.2-.5l-1.5-.4a4.352,4.352,0,0,1-1.8-.9,1.717,1.717,0,0,1-.6-1.5,2.166,2.166,0,0,1,1-1.9,3.9,3.9,0,0,1,2.5-.7,5.663,5.663,0,0,1,1.8.3,3.39,3.39,0,0,1,1.4.9l-.5,1.1a4.473,4.473,0,0,0-2.7-1.1,2.41,2.41,0,0,0-1.5.4,1.016,1.016,0,0,0-.5,1,1.222,1.222,0,0,0,.3.9,2.257,2.257,0,0,0,1.1.5l1.5.4a4.213,4.213,0,0,1,1.9.9,2.111,2.111,0,0,1,.6,1.6,2.166,2.166,0,0,1-1,1.9,4.209,4.209,0,0,1-2.6.7A5.8,5.8,0,0,1,748.8,57.7Z" fill="#1a4480"/>
      <path id="Path_24133" data-name="Path 24133" d="M757.7,57.7l.5-1.1a3.675,3.675,0,0,0,1.5.8,4.671,4.671,0,0,0,1.7.3,2.537,2.537,0,0,0,1.6-.4,1.016,1.016,0,0,0,.5-1,1.086,1.086,0,0,0-.4-.9,2.254,2.254,0,0,0-1.2-.5l-1.5-.4a4.352,4.352,0,0,1-1.8-.9,1.716,1.716,0,0,1-.6-1.5,2.166,2.166,0,0,1,1-1.9,3.9,3.9,0,0,1,2.5-.7,5.662,5.662,0,0,1,1.8.3,3.39,3.39,0,0,1,1.4.9l-.5,1.1a4.473,4.473,0,0,0-2.7-1.1,2.41,2.41,0,0,0-1.5.4,1.016,1.016,0,0,0-.5,1,1.222,1.222,0,0,0,.3.9,2.257,2.257,0,0,0,1.1.5l1.5.4a4.212,4.212,0,0,1,1.9.9,2.111,2.111,0,0,1,.6,1.6,2.166,2.166,0,0,1-1,1.9,4.209,4.209,0,0,1-2.6.7A5.8,5.8,0,0,1,757.7,57.7Z" fill="#1a4480"/>
      <path id="Path_24134" data-name="Path 24134" d="M780.3,53.1v5.7h-1.5V53.2a3.161,3.161,0,0,0-.4-1.9,1.678,1.678,0,0,0-1.4-.6,2.2,2.2,0,0,0-1.8.8,3.281,3.281,0,0,0-.6,2.1v5.2H773V53.2a2.763,2.763,0,0,0-.5-1.8,2.026,2.026,0,0,0-1.4-.6,2.2,2.2,0,0,0-1.8.8,3.3,3.3,0,0,0-.7,2.1v5.2h-1.5V52.4a19.3,19.3,0,0,0-.1-2.5h1.4l.1,1.6a2.85,2.85,0,0,1,1.1-1.3,3.371,3.371,0,0,1,1.7-.5,3.424,3.424,0,0,1,1.8.4,2.209,2.209,0,0,1,1,1.3,3.745,3.745,0,0,1,1.2-1.3,3.453,3.453,0,0,1,1.8-.5C779.3,49.5,780.3,50.7,780.3,53.1Z" fill="#1a4480"/>
      <path id="Path_24135" data-name="Path 24135" d="M790.6,54.2H784a3.844,3.844,0,0,0,.8,2.6,2.869,2.869,0,0,0,2.3.9,4.556,4.556,0,0,0,2.9-1.1l.5,1.1a3.766,3.766,0,0,1-1.5.9,6.279,6.279,0,0,1-1.9.3,4.156,4.156,0,0,1-3.3-1.3,4.871,4.871,0,0,1-1.2-3.4,6.963,6.963,0,0,1,.5-2.5,3.588,3.588,0,0,1,1.5-1.7,4.032,4.032,0,0,1,2.2-.6,3.489,3.489,0,0,1,2.8,1.2,4.722,4.722,0,0,1,1,3.2ZM785,51.3a3.1,3.1,0,0,0-.9,1.9h5.3a3.042,3.042,0,0,0-.7-1.9,2.481,2.481,0,0,0-1.8-.7A2.352,2.352,0,0,0,785,51.3Z" fill="#1a4480"/>
      <path id="Path_24136" data-name="Path 24136" d="M800.6,53.1v5.7h-1.5V53.2a2.763,2.763,0,0,0-.5-1.8,2.359,2.359,0,0,0-1.6-.6,2.792,2.792,0,0,0-2,.8,2.865,2.865,0,0,0-.8,2.1v5.2h-1.5V52.4a19.283,19.283,0,0,0-.1-2.5H794l.1,1.6a4.072,4.072,0,0,1,1.2-1.4,4.136,4.136,0,0,1,1.9-.5C799.5,49.5,800.6,50.7,800.6,53.1Z" fill="#1a4480"/>
      <path id="Path_24137" data-name="Path 24137" d="M805.3,50.8v5a1.809,1.809,0,0,0,.4,1.4,1.594,1.594,0,0,0,1.2.4,3.553,3.553,0,0,0,1-.2v1.2a5.067,5.067,0,0,1-1.3.2,2.578,2.578,0,0,1-2-.7,2.918,2.918,0,0,1-.7-2.2V50.8h-1.8V49.6h1.8V47.3l1.5-.5v2.8H808v1.2Z" fill="#1a4480"/>
    </g>
  </g>
</svg>
