<?xml version="1.0" encoding="utf-8"?>
<!-- Generator: Adobe Illustrator 25.0.1, SVG Export Plug-In . SVG Version: 6.00 Build 0)  -->
<svg version="1.1" id="Layer_1" xmlns="http://www.w3.org/2000/svg" xmlns:xlink="http://www.w3.org/1999/xlink" x="0px" y="0px"
	 viewBox="0 0 320 87.1" style="enable-background:new 0 0 320 87.1;" xml:space="preserve">
<style type="text/css">
	.st0{opacity:0.55;}
	.st1{fill:#0A90B7;}
	.st2{fill:#444444;}
	.st3{fill:#0A90B7;enable-background:new    ;}
	.st4{fill:#F2F2F2;}
	.st5{fill:#FFFFFF;}
	.st6{fill:#A6D7E5;}
</style>
<g id="Layer_6">
</g>
<g id="Shapes">
</g>
<g id="background">
</g>
<g id="text">
</g>
<g id="Graphics">
</g>
<g id="Layer_5">
	<g>
		<g class="st0">
			<g>
				<g>
					<path class="st1" d="M50.4,23.5c-0.3-0.2-0.5-0.4-0.7-0.7s-0.3-0.6-0.3-1c0-0.3,0.1-0.6,0.3-0.9s0.4-0.5,0.7-0.7s0.6-0.3,1-0.3
						c0.3,0,0.7,0.1,1,0.3c0.3,0.2,0.5,0.4,0.7,0.7c0.2,0.3,0.3,0.6,0.3,1c0,0.3-0.1,0.7-0.3,1s-0.4,0.5-0.7,0.7s-0.6,0.3-1,0.3
						C51.1,23.7,50.7,23.6,50.4,23.5z"/>
					<path class="st1" d="M51.4,23.8c-0.4,0-0.7-0.1-1-0.3l0,0c-0.3-0.2-0.6-0.4-0.8-0.7c-0.2-0.3-0.3-0.7-0.3-1s0.1-0.7,0.3-1
						s0.4-0.6,0.8-0.8c0.6-0.4,1.4-0.4,2.1,0c0.3,0.2,0.6,0.4,0.8,0.7c0.2,0.3,0.3,0.7,0.3,1c0,0.4-0.1,0.7-0.3,1s-0.4,0.6-0.8,0.7
						C52.1,23.8,51.8,23.8,51.4,23.8z M50.5,23.4c0.6,0.3,1.3,0.3,1.8,0c0.3-0.2,0.5-0.4,0.7-0.7c0.2-0.3,0.2-0.6,0.2-0.9
						s-0.1-0.6-0.2-0.9c-0.2-0.3-0.4-0.5-0.7-0.6c-0.6-0.3-1.3-0.3-1.8,0c-0.3,0.2-0.5,0.4-0.7,0.7c-0.2,0.3-0.2,0.6-0.2,0.9
						s0.1,0.6,0.2,0.9C50,23,50.2,23.2,50.5,23.4L50.5,23.4z"/>
				</g>
				<path class="st2" d="M74.6,22.6h-4.1l-0.9,2h-0.7l3.3-7.6h0.6l3.3,7.6h-0.7L74.6,22.6z M74.3,22.1l-1.8-4.2l-1.8,4.2H74.3z"/>
				<path class="st2" d="M81.9,19.3v5.4c0,0.8-0.2,1.4-0.6,1.8s-1,0.6-1.7,0.6c-0.8,0-1.5-0.2-2.1-0.6l0.1-0.6
					c0.3,0.2,0.7,0.4,1,0.4c0.3,0.1,0.6,0.1,1,0.1c0.5,0,0.9-0.1,1.2-0.4c0.3-0.3,0.4-0.7,0.4-1.3v-1.4c-0.2,0.4-0.4,0.6-0.7,0.8
					c-0.3,0.2-0.7,0.3-1.2,0.3s-0.9-0.1-1.3-0.3s-0.6-0.5-0.9-0.9c-0.2-0.4-0.3-0.9-0.3-1.4s0.1-1,0.3-1.4c0.2-0.4,0.5-0.7,0.9-0.9
					s0.8-0.3,1.3-0.3c0.4,0,0.8,0.1,1.1,0.3c0.3,0.2,0.6,0.5,0.7,0.8v-1H81.9z M80.8,23.4c0.3-0.4,0.5-0.9,0.5-1.5s-0.2-1.2-0.5-1.5
					s-0.8-0.6-1.3-0.6c-0.6,0-1,0.2-1.3,0.6s-0.5,0.9-0.5,1.5s0.2,1.2,0.5,1.5S79,24,79.5,24C80.1,23.9,80.5,23.7,80.8,23.4z"/>
				<path class="st2" d="M84.1,21.9L84.1,21.9c0,0.8,0.2,1.3,0.5,1.7c0.3,0.4,0.8,0.6,1.4,0.6s1.2-0.2,1.8-0.7l0.3,0.5
					c-0.2,0.2-0.5,0.4-0.9,0.5s-0.7,0.2-1.1,0.2c-0.8,0-1.5-0.2-1.9-0.7s-0.7-1.2-0.7-2c0-0.5,0.1-1,0.3-1.5c0.2-0.4,0.5-0.8,0.9-1
					s0.8-0.3,1.3-0.3c0.7,0,1.3,0.2,1.7,0.7c0.4,0.5,0.6,1.1,0.6,1.9v0.1C88.3,21.9,84.1,21.9,84.1,21.9z M84.7,20.2
					c-0.3,0.3-0.5,0.7-0.6,1.2h3.4c0-0.5-0.2-1-0.5-1.3s-0.7-0.4-1.1-0.4C85.4,19.7,85,19.9,84.7,20.2z"/>
				<path class="st2" d="M94.1,21.3v3.4h-0.7v-3.4c0-0.5-0.1-0.9-0.3-1.2c-0.2-0.2-0.6-0.4-1-0.4c-0.5,0-1,0.2-1.3,0.5
					s-0.5,0.8-0.5,1.3v3.1h-0.6v-3.8c0-0.6,0-1.1-0.1-1.5h0.6l0.1,1c0.2-0.4,0.4-0.6,0.7-0.8c0.3-0.2,0.7-0.3,1.1-0.3
					C93.4,19.2,94.1,19.9,94.1,21.3z"/>
				<path class="st2" d="M96.7,24.4c-0.4-0.2-0.7-0.6-0.9-1c-0.2-0.4-0.3-0.9-0.3-1.4c0-0.6,0.1-1,0.3-1.5c0.2-0.4,0.5-0.8,0.9-1
					s0.8-0.3,1.3-0.3c0.4,0,0.7,0.1,1,0.2s0.6,0.3,0.8,0.5l-0.3,0.5c-0.3-0.2-0.5-0.4-0.8-0.5s-0.5-0.2-0.8-0.2
					c-0.6,0-1,0.2-1.4,0.6c-0.3,0.4-0.5,0.9-0.5,1.6s0.2,1.2,0.5,1.6s0.8,0.6,1.4,0.6c0.3,0,0.5-0.1,0.8-0.2s0.5-0.3,0.8-0.5
					l0.3,0.5c-0.2,0.2-0.5,0.4-0.9,0.5c-0.3,0.1-0.7,0.2-1,0.2C97.5,24.8,97.1,24.6,96.7,24.4z"/>
				<path class="st2" d="M105.7,19.3l-2.5,5.9c-0.2,0.6-0.6,1-0.9,1.3c-0.4,0.3-0.8,0.5-1.4,0.6l-0.1-0.5c0.5-0.1,0.9-0.3,1.2-0.5
					c0.3-0.2,0.5-0.5,0.7-0.9l0.2-0.5l-2.3-5.4h0.7l1.9,4.7l1.9-4.7H105.7z"/>
				<path class="st2" d="M115.6,24.7h-0.7l-1-2.5c-0.1-0.3-0.3-0.6-0.5-0.7s-0.5-0.2-0.9-0.2h-2.1v3.4h-0.7v-7.6h2.9
					c0.8,0,1.4,0.2,1.8,0.5c0.4,0.4,0.7,0.9,0.7,1.5c0,0.5-0.1,0.9-0.4,1.2s-0.6,0.6-1.1,0.7c0.2,0,0.4,0.1,0.6,0.3
					c0.2,0.1,0.3,0.4,0.4,0.7L115.6,24.7z M112.6,20.7c1.2,0,1.9-0.5,1.9-1.6c0-1-0.6-1.5-1.9-1.5h-2.2v3.1H112.6z"/>
				<path class="st2" d="M117.4,21.9L117.4,21.9c0,0.8,0.2,1.3,0.5,1.7c0.3,0.4,0.8,0.6,1.4,0.6s1.2-0.2,1.8-0.7l0.3,0.5
					c-0.2,0.2-0.5,0.4-0.9,0.5s-0.7,0.2-1.1,0.2c-0.8,0-1.5-0.2-1.9-0.7s-0.7-1.2-0.7-2c0-0.5,0.1-1,0.3-1.5c0.2-0.4,0.5-0.8,0.9-1
					s0.8-0.3,1.3-0.3c0.7,0,1.3,0.2,1.7,0.7c0.4,0.5,0.6,1.1,0.6,1.9v0.1C121.6,21.9,117.4,21.9,117.4,21.9z M118,20.2
					c-0.3,0.3-0.5,0.7-0.6,1.2h3.4c0-0.5-0.2-1-0.5-1.3s-0.7-0.4-1.1-0.4C118.7,19.7,118.3,19.9,118,20.2z"/>
				<path class="st2" d="M127.4,19.3l-2.3,5.4h-0.7l-2.3-5.4h0.7l1.9,4.7l1.9-4.7H127.4z"/>
				<path class="st2" d="M129.3,17.1v0.8h-0.9v-0.8H129.3z M128.5,19.3h0.6v5.4h-0.6V19.3z"/>
				<path class="st2" d="M131.3,21.9L131.3,21.9c0,0.8,0.2,1.3,0.5,1.7c0.3,0.4,0.8,0.6,1.4,0.6c0.6,0,1.2-0.2,1.8-0.7l0.3,0.5
					c-0.2,0.2-0.5,0.4-0.9,0.5s-0.7,0.2-1.1,0.2c-0.8,0-1.5-0.2-1.9-0.7s-0.7-1.2-0.7-2c0-0.5,0.1-1,0.3-1.5c0.2-0.4,0.5-0.8,0.9-1
					s0.8-0.3,1.3-0.3c0.7,0,1.3,0.2,1.7,0.7s0.6,1.1,0.6,1.9v0.1C135.5,21.9,131.3,21.9,131.3,21.9z M132,20.2
					c-0.3,0.3-0.5,0.7-0.6,1.2h3.4c0-0.5-0.2-1-0.5-1.3s-0.7-0.4-1.1-0.4C132.7,19.7,132.3,19.9,132,20.2z"/>
				<path class="st2" d="M144.8,19.3l-1.9,5.4h-0.7l-1.6-4.5l-1.6,4.5h-0.7l-1.9-5.4h0.7l1.6,4.6l1.7-4.6h0.7l1.6,4.6l1.6-4.6H144.8
					z"/>
				<path class="st2" d="M149.7,24.4c-0.4-0.2-0.7-0.6-0.9-1s-0.3-0.9-0.3-1.5s0.1-1,0.3-1.5c0.2-0.4,0.5-0.7,0.9-1
					c0.4-0.2,0.8-0.3,1.3-0.3s0.9,0.1,1.3,0.3c0.4,0.2,0.7,0.6,0.9,1s0.3,0.9,0.3,1.5s-0.1,1-0.3,1.5c-0.2,0.4-0.5,0.7-0.9,1
					c-0.4,0.2-0.8,0.3-1.3,0.3C150.5,24.8,150.1,24.6,149.7,24.4z M152.3,23.6c0.3-0.4,0.5-0.9,0.5-1.6s-0.2-1.2-0.5-1.6
					s-0.7-0.6-1.3-0.6s-1,0.2-1.3,0.6s-0.5,0.9-0.5,1.6s0.2,1.3,0.5,1.6s0.7,0.6,1.3,0.6S152,24,152.3,23.6z"/>
				<path class="st2" d="M156.1,17.6c-0.2,0.2-0.2,0.5-0.2,0.9v0.8h1.4v0.5h-1.4v4.8h-0.7v-4.8h-1v-0.5h1v-1c0-0.5,0.1-0.9,0.4-1.2
					s0.6-0.4,1.1-0.4c0.2,0,0.4,0,0.7,0.1v0.6c-0.2-0.1-0.4-0.1-0.5-0.1C156.5,17.4,156.2,17.4,156.1,17.6z"/>
				<path class="st2" d="M162.1,24.5c-0.5-0.2-0.9-0.4-1.2-0.8l0.3-0.5c0.4,0.3,0.8,0.6,1.1,0.7s0.9,0.2,1.4,0.2
					c0.6,0,1.1-0.1,1.5-0.4s0.5-0.6,0.5-1.1c0-0.3-0.1-0.5-0.3-0.7s-0.4-0.3-0.7-0.4s-0.6-0.2-1.1-0.3c-0.6-0.1-1.1-0.3-1.4-0.4
					c-0.4-0.1-0.7-0.3-0.9-0.6c-0.2-0.3-0.4-0.6-0.4-1.1c0-0.4,0.1-0.8,0.3-1.1s0.5-0.6,0.9-0.8c0.4-0.2,0.9-0.3,1.4-0.3
					s1,0.1,1.4,0.3c0.4,0.2,0.8,0.4,1.1,0.7l-0.3,0.5c-0.4-0.3-0.7-0.6-1.1-0.7c-0.4-0.1-0.8-0.2-1.2-0.2c-0.6,0-1.1,0.1-1.5,0.4
					s-0.5,0.7-0.5,1.1s0.2,0.7,0.5,0.9c0.3,0.2,0.8,0.4,1.4,0.5l0.3,0.1c0.6,0.1,1,0.3,1.4,0.4c0.3,0.1,0.6,0.3,0.9,0.6
					c0.2,0.3,0.4,0.6,0.4,1s-0.1,0.8-0.3,1.1c-0.2,0.3-0.5,0.6-0.9,0.7s-0.9,0.3-1.4,0.3C163.1,24.8,162.6,24.7,162.1,24.5z"/>
				<path class="st2" d="M168.2,21.9L168.2,21.9c0,0.8,0.2,1.3,0.5,1.7c0.3,0.4,0.8,0.6,1.4,0.6c0.6,0,1.2-0.2,1.8-0.7l0.3,0.5
					c-0.2,0.2-0.5,0.4-0.9,0.5s-0.7,0.2-1.1,0.2c-0.8,0-1.5-0.2-1.9-0.7s-0.7-1.2-0.7-2c0-0.5,0.1-1,0.3-1.5c0.2-0.4,0.5-0.8,0.9-1
					s0.8-0.3,1.3-0.3c0.7,0,1.3,0.2,1.7,0.7s0.6,1.1,0.6,1.9v0.1C172.4,21.9,168.2,21.9,168.2,21.9z M168.8,20.2
					c-0.3,0.3-0.5,0.7-0.6,1.2h3.4c0-0.5-0.2-1-0.5-1.3s-0.7-0.4-1.1-0.4C169.5,19.7,169.1,19.9,168.8,20.2z"/>
				<path class="st2" d="M174.5,24.4c-0.4-0.2-0.7-0.6-0.9-1s-0.3-0.9-0.3-1.4c0-0.6,0.1-1,0.3-1.5c0.2-0.4,0.5-0.8,0.9-1
					s0.8-0.3,1.3-0.3c0.4,0,0.7,0.1,1,0.2s0.6,0.3,0.8,0.5l-0.3,0.5c-0.3-0.2-0.5-0.4-0.8-0.5s-0.5-0.2-0.8-0.2
					c-0.6,0-1,0.2-1.4,0.6c-0.3,0.4-0.5,0.9-0.5,1.6s0.2,1.2,0.5,1.6s0.8,0.6,1.4,0.6c0.3,0,0.5-0.1,0.8-0.2s0.5-0.3,0.8-0.5
					l0.3,0.5c-0.2,0.2-0.5,0.4-0.9,0.5c-0.3,0.1-0.7,0.2-1,0.2C175.4,24.8,174.9,24.6,174.5,24.4z"/>
				<path class="st2" d="M183.3,19.3v5.4h-0.6v-1c-0.2,0.3-0.4,0.6-0.7,0.8c-0.3,0.2-0.7,0.3-1.1,0.3c-0.6,0-1.1-0.2-1.4-0.5
					s-0.5-0.9-0.5-1.6v-3.4h0.6v3.3c0,0.5,0.1,0.9,0.3,1.2s0.5,0.4,1,0.4s0.9-0.2,1.3-0.5c0.3-0.3,0.5-0.8,0.5-1.3v-3h0.6V19.3z"/>
				<path class="st2" d="M187.9,19.2v0.6c-0.1,0-0.3,0-0.5,0c-0.5,0-0.9,0.2-1.2,0.5s-0.4,0.8-0.4,1.2v3.1h-0.6v-3.8
					c0-0.6,0-1.1-0.1-1.5h0.6l0.1,1c0.1-0.4,0.4-0.6,0.7-0.8c0.3-0.2,0.6-0.3,1-0.3C187.6,19.2,187.8,19.2,187.9,19.2z"/>
				<path class="st2" d="M189.7,17.1v0.8h-0.9v-0.8H189.7z M188.9,19.3h0.6v5.4h-0.6V19.3z"/>
				<path class="st2" d="M192.3,19.8V23c0,0.4,0.1,0.7,0.2,0.9c0.2,0.2,0.4,0.2,0.7,0.2c0.2,0,0.4,0,0.6-0.1v0.6
					c-0.2,0.1-0.5,0.1-0.7,0.1c-0.5,0-0.8-0.1-1.1-0.4s-0.4-0.7-0.4-1.2v-3.3h-1.1v-0.5h1.1v-1.4l0.7-0.2v1.7h1.6v0.5L192.3,19.8
					L192.3,19.8z"/>
				<path class="st2" d="M199.7,19.3l-2.5,5.9c-0.2,0.6-0.6,1-0.9,1.3c-0.4,0.3-0.8,0.5-1.4,0.6l-0.1-0.5c0.5-0.1,0.9-0.3,1.2-0.5
					s0.5-0.5,0.7-0.9l0.2-0.5l-2.3-5.4h0.7l1.9,4.7l1.9-4.7H199.7z"/>
				<path class="st2" d="M208.6,22.6h-4.1l-0.9,2H203l3.3-7.6h0.6l3.3,7.6h-0.7L208.6,22.6z M208.4,22.1l-1.8-4.2l-1.8,4.2H208.4z"
					/>
				<path class="st2" d="M215.7,19.3v5.4h-0.6v-1c-0.2,0.3-0.4,0.6-0.7,0.8c-0.3,0.2-0.7,0.3-1.1,0.3c-0.6,0-1.1-0.2-1.4-0.5
					s-0.5-0.9-0.5-1.6v-3.4h0.6v3.3c0,0.5,0.1,0.9,0.3,1.2s0.5,0.4,1,0.4s0.9-0.2,1.3-0.5c0.3-0.3,0.5-0.8,0.5-1.3v-3h0.6V19.3z"/>
				<path class="st2" d="M218.4,19.8V23c0,0.4,0.1,0.7,0.2,0.9c0.2,0.2,0.4,0.2,0.7,0.2c0.2,0,0.4,0,0.6-0.1v0.6
					c-0.2,0.1-0.5,0.1-0.7,0.1c-0.5,0-0.8-0.1-1.1-0.4s-0.4-0.7-0.4-1.2v-3.3h-1.1v-0.5h1.1v-1.4l0.7-0.2v1.7h1.6v0.5L218.4,19.8
					L218.4,19.8z"/>
				<path class="st2" d="M225.6,21.3v3.4H225v-3.4c0-0.5-0.1-0.9-0.3-1.2c-0.2-0.2-0.6-0.4-1-0.4c-0.5,0-1,0.2-1.3,0.5
					s-0.5,0.8-0.5,1.3v3.1h-0.6v-7.8h0.6v3.4c0.2-0.3,0.4-0.6,0.7-0.8c0.3-0.2,0.7-0.3,1.1-0.3C225,19.2,225.6,19.9,225.6,21.3z"/>
				<path class="st2" d="M228.3,24.4c-0.4-0.2-0.7-0.6-0.9-1s-0.3-0.9-0.3-1.5s0.1-1,0.3-1.5c0.2-0.4,0.5-0.7,0.9-1
					c0.4-0.2,0.8-0.3,1.3-0.3s0.9,0.1,1.3,0.3c0.4,0.2,0.7,0.6,0.9,1s0.3,0.9,0.3,1.5s-0.1,1-0.3,1.5c-0.2,0.4-0.5,0.7-0.9,1
					c-0.4,0.2-0.8,0.3-1.3,0.3C229.1,24.8,228.6,24.6,228.3,24.4z M230.9,23.6c0.3-0.4,0.5-0.9,0.5-1.6s-0.2-1.2-0.5-1.6
					s-0.7-0.6-1.3-0.6s-1,0.2-1.3,0.6s-0.5,0.9-0.5,1.6s0.2,1.3,0.5,1.6s0.7,0.6,1.3,0.6S230.6,24,230.9,23.6z"/>
				<path class="st2" d="M236.3,19.2v0.6c-0.1,0-0.3,0-0.5,0c-0.5,0-0.9,0.2-1.2,0.5s-0.4,0.8-0.4,1.2v3.1h-0.6v-3.8
					c0-0.6,0-1.1-0.1-1.5h0.6l0.1,1c0.1-0.4,0.4-0.6,0.7-0.8c0.3-0.2,0.6-0.3,1-0.3C236,19.2,236.1,19.2,236.3,19.2z"/>
				<path class="st2" d="M238.1,17.1v0.8h-0.9v-0.8H238.1z M237.3,19.3h0.6v5.4h-0.6V19.3z"/>
				<path class="st2" d="M243.9,24.1v0.5h-4.5v-0.4l3.6-4.4h-3.4v-0.5h4.2v0.5l-3.5,4.3H243.9z"/>
				<path class="st2" d="M249.8,19.3v5.4h-0.7v-1c-0.2,0.4-0.4,0.6-0.7,0.8c-0.3,0.2-0.7,0.3-1.1,0.3c-0.5,0-0.9-0.1-1.3-0.3
					c-0.4-0.2-0.6-0.5-0.8-1c-0.2-0.4-0.3-0.9-0.3-1.5s0.1-1,0.3-1.5c0.2-0.4,0.5-0.8,0.8-1c0.4-0.2,0.8-0.3,1.2-0.3
					s0.8,0.1,1.1,0.3c0.3,0.2,0.6,0.5,0.7,0.8v-1C249,19.3,249.8,19.3,249.8,19.3z M248.7,23.6c0.3-0.4,0.5-0.9,0.5-1.6
					s-0.2-1.3-0.5-1.6c-0.3-0.4-0.7-0.6-1.3-0.6s-1,0.2-1.3,0.6s-0.5,0.9-0.5,1.6s0.2,1.2,0.5,1.6s0.8,0.6,1.3,0.6
					S248.4,24,248.7,23.6z"/>
				<path class="st2" d="M252.5,19.8V23c0,0.4,0.1,0.7,0.2,0.9c0.2,0.2,0.4,0.2,0.7,0.2c0.2,0,0.4,0,0.6-0.1v0.6
					c-0.2,0.1-0.5,0.1-0.7,0.1c-0.5,0-0.8-0.1-1.1-0.4s-0.4-0.7-0.4-1.2v-3.3h-1.1v-0.5h1.1v-1.4l0.7-0.2v1.7h1.6v0.5L252.5,19.8
					L252.5,19.8z"/>
				<path class="st2" d="M256,17.1v0.8h-0.9v-0.8H256z M255.3,19.3h0.6v5.4h-0.6V19.3z"/>
				<path class="st2" d="M258.6,24.4c-0.4-0.2-0.7-0.6-0.9-1c-0.2-0.4-0.3-0.9-0.3-1.5s0.1-1,0.3-1.5c0.2-0.4,0.5-0.7,0.9-1
					c0.4-0.2,0.8-0.3,1.3-0.3s0.9,0.1,1.3,0.3c0.4,0.2,0.7,0.6,0.9,1s0.3,0.9,0.3,1.5s-0.1,1-0.3,1.5c-0.2,0.4-0.5,0.7-0.9,1
					c-0.4,0.2-0.8,0.3-1.3,0.3C259.4,24.8,259,24.6,258.6,24.4z M261.2,23.6c0.3-0.4,0.5-0.9,0.5-1.6s-0.2-1.2-0.5-1.6
					s-0.7-0.6-1.3-0.6c-0.6,0-1,0.2-1.3,0.6s-0.5,0.9-0.5,1.6s0.2,1.3,0.5,1.6s0.7,0.6,1.3,0.6S260.9,24,261.2,23.6z"/>
				<path class="st2" d="M268.2,21.3v3.4h-0.7v-3.4c0-0.5-0.1-0.9-0.3-1.2c-0.2-0.2-0.6-0.4-1-0.4c-0.5,0-1,0.2-1.3,0.5
					s-0.5,0.8-0.5,1.3v3.1h-0.6v-3.8c0-0.6,0-1.1-0.1-1.5h0.6l0.1,1c0.2-0.4,0.4-0.6,0.7-0.8c0.3-0.2,0.7-0.3,1.1-0.3
					C267.6,19.2,268.2,19.9,268.2,21.3z"/>
				<path class="st2" d="M69.6,30.4h2.9c0.8,0,1.4,0.2,1.8,0.6s0.7,0.9,0.7,1.5c0,0.7-0.2,1.2-0.7,1.5c-0.4,0.4-1,0.6-1.8,0.6h-2.3
					V38h-0.7L69.6,30.4L69.6,30.4z M72.5,34c0.6,0,1.1-0.1,1.4-0.4s0.5-0.6,0.5-1.1s-0.2-0.9-0.5-1.1S73.1,31,72.5,31h-2.2v3H72.5z"
					/>
				<path class="st2" d="M80.9,32.7v5.4h-0.7v-1c-0.2,0.4-0.4,0.6-0.7,0.8c-0.3,0.2-0.7,0.3-1.1,0.3c-0.5,0-0.9-0.1-1.3-0.3
					c-0.4-0.2-0.6-0.5-0.8-1C76.1,36.5,76,36,76,35.4s0.1-1,0.3-1.5c0.2-0.4,0.5-0.8,0.8-1c0.4-0.2,0.8-0.3,1.2-0.3
					c0.4,0,0.8,0.1,1.1,0.3c0.3,0.2,0.6,0.5,0.7,0.8v-1C80.1,32.7,80.9,32.7,80.9,32.7z M79.7,37c0.3-0.4,0.5-0.9,0.5-1.6
					s-0.2-1.3-0.5-1.6c-0.3-0.4-0.7-0.6-1.3-0.6c-0.6,0-1,0.2-1.3,0.6s-0.5,0.9-0.5,1.6s0.2,1.2,0.5,1.6s0.8,0.6,1.3,0.6
					C79,37.5,79.4,37.4,79.7,37z"/>
				<path class="st2" d="M83.5,37.8c-0.4-0.2-0.7-0.6-0.9-1c-0.2-0.4-0.3-0.9-0.3-1.4c0-0.6,0.1-1,0.3-1.5c0.2-0.4,0.5-0.8,0.9-1
					s0.8-0.3,1.3-0.3c0.4,0,0.7,0.1,1,0.2s0.6,0.3,0.8,0.5l-0.3,0.5c-0.3-0.2-0.5-0.4-0.8-0.5s-0.5-0.2-0.8-0.2
					c-0.6,0-1,0.2-1.4,0.6c-0.3,0.4-0.5,0.9-0.5,1.6s0.2,1.2,0.5,1.6s0.8,0.6,1.4,0.6c0.3,0,0.5-0.1,0.8-0.2s0.5-0.3,0.8-0.5
					l0.3,0.5c-0.2,0.2-0.5,0.4-0.9,0.5c-0.3,0.1-0.7,0.2-1,0.2C84.3,38.1,83.9,38,83.5,37.8z"/>
				<path class="st2" d="M91.6,38l-3-2.6V38H88v-7.9h0.6v5l2.7-2.5h0.8l-2.8,2.6l3.1,2.8H91.6z"/>
				<path class="st2" d="M97.8,32.7v5.4h-0.7v-1c-0.2,0.4-0.4,0.6-0.7,0.8c-0.3,0.2-0.7,0.3-1.1,0.3c-0.5,0-0.9-0.1-1.3-0.3
					c-0.4-0.2-0.6-0.5-0.8-1c-0.2-0.4-0.3-0.9-0.3-1.5s0.1-1,0.3-1.5c0.2-0.4,0.5-0.8,0.8-1c0.4-0.2,0.8-0.3,1.2-0.3
					c0.4,0,0.8,0.1,1.1,0.3c0.3,0.2,0.6,0.5,0.7,0.8v-1C97,32.7,97.8,32.7,97.8,32.7z M96.7,37c0.3-0.4,0.5-0.9,0.5-1.6
					s-0.2-1.3-0.5-1.6c-0.3-0.4-0.7-0.6-1.3-0.6c-0.6,0-1,0.2-1.3,0.6s-0.5,0.9-0.5,1.6s0.2,1.2,0.5,1.6s0.8,0.6,1.3,0.6
					C95.9,37.5,96.4,37.4,96.7,37z"/>
				<path class="st2" d="M104.2,32.7v5.4c0,0.8-0.2,1.4-0.6,1.8c-0.4,0.4-1,0.6-1.7,0.6c-0.8,0-1.5-0.2-2.1-0.6l0.1-0.6
					c0.3,0.2,0.7,0.4,1,0.4c0.3,0.1,0.6,0.1,1,0.1c0.5,0,0.9-0.1,1.2-0.4c0.3-0.3,0.4-0.7,0.4-1.3v-1.3c-0.2,0.4-0.4,0.6-0.7,0.8
					c-0.3,0.2-0.7,0.3-1.2,0.3s-0.9-0.1-1.3-0.3s-0.6-0.5-0.9-0.9c-0.2-0.4-0.3-0.9-0.3-1.4s0.1-1,0.3-1.4c0.2-0.4,0.5-0.7,0.9-0.9
					s0.8-0.3,1.3-0.3c0.4,0,0.8,0.1,1.1,0.3c0.3,0.2,0.6,0.5,0.7,0.8v-1L104.2,32.7L104.2,32.7z M103.1,36.7
					c0.3-0.4,0.5-0.9,0.5-1.5s-0.2-1.2-0.5-1.5s-0.8-0.6-1.3-0.6c-0.6,0-1,0.2-1.3,0.6s-0.5,0.9-0.5,1.5s0.2,1.2,0.5,1.5
					s0.8,0.6,1.3,0.6C102.3,37.3,102.8,37.1,103.1,36.7z"/>
				<path class="st2" d="M106.4,35.3L106.4,35.3c0,0.8,0.2,1.3,0.5,1.7c0.3,0.4,0.8,0.6,1.4,0.6s1.2-0.2,1.8-0.7l0.3,0.5
					c-0.2,0.2-0.5,0.4-0.9,0.5s-0.7,0.2-1.1,0.2c-0.8,0-1.5-0.2-1.9-0.7s-0.7-1.2-0.7-2c0-0.5,0.1-1,0.3-1.5c0.2-0.4,0.5-0.8,0.9-1
					s0.8-0.3,1.3-0.3c0.7,0,1.3,0.2,1.7,0.7c0.4,0.5,0.6,1.1,0.6,1.9v0.1C110.6,35.3,106.4,35.3,106.4,35.3z M107,33.5
					c-0.3,0.3-0.5,0.7-0.6,1.2h3.4c0-0.5-0.2-1-0.5-1.3s-0.7-0.4-1.1-0.4C107.7,33.1,107.3,33.2,107,33.5z"/>
				<g>
					<path class="st1" d="M50.4,56.9c-0.3-0.2-0.5-0.4-0.7-0.7s-0.3-0.6-0.3-1c0-0.3,0.1-0.6,0.3-0.9c0.2-0.3,0.4-0.5,0.7-0.7
						s0.6-0.3,1-0.3c0.3,0,0.7,0.1,1,0.3s0.5,0.4,0.7,0.7s0.3,0.6,0.3,1c0,0.3-0.1,0.7-0.3,1s-0.4,0.5-0.7,0.7s-0.6,0.3-1,0.3
						C51.1,57.1,50.7,57.1,50.4,56.9z"/>
					<path class="st1" d="M51.4,57.3c-0.4,0-0.7-0.1-1-0.3l0,0c-0.3-0.2-0.6-0.4-0.8-0.7s-0.3-0.7-0.3-1s0.1-0.7,0.3-1
						s0.4-0.6,0.8-0.8c0.6-0.4,1.4-0.4,2.1,0c0.3,0.2,0.6,0.4,0.8,0.7s0.3,0.7,0.3,1c0,0.4-0.1,0.7-0.3,1s-0.4,0.6-0.8,0.7
						C52.1,57.2,51.8,57.3,51.4,57.3z M50.5,56.8c0.6,0.3,1.3,0.3,1.8,0c0.3-0.2,0.5-0.4,0.7-0.7s0.2-0.6,0.2-0.9
						c0-0.3-0.1-0.6-0.2-0.9c-0.2-0.3-0.4-0.5-0.7-0.6c-0.6-0.3-1.3-0.3-1.8,0c-0.3,0.2-0.5,0.4-0.7,0.7s-0.2,0.6-0.2,0.9
						c0,0.3,0.1,0.6,0.2,0.9C50,56.4,50.2,56.6,50.5,56.8L50.5,56.8z"/>
				</g>
				<path class="st2" d="M70.4,57.9c-0.5-0.2-0.9-0.4-1.2-0.8l0.3-0.5c0.4,0.3,0.8,0.6,1.1,0.7s0.9,0.2,1.4,0.2
					c0.6,0,1.1-0.1,1.5-0.4c0.4-0.3,0.5-0.6,0.5-1.1c0-0.3-0.1-0.5-0.3-0.7S73.3,55,73,54.9c-0.3-0.1-0.6-0.2-1.1-0.3
					c-0.6-0.1-1.1-0.3-1.4-0.4c-0.4-0.1-0.7-0.3-0.9-0.6c-0.2-0.3-0.4-0.6-0.4-1.1c0-0.4,0.1-0.8,0.3-1.1s0.5-0.6,0.9-0.8
					s0.9-0.3,1.4-0.3s1,0.1,1.4,0.3s0.8,0.4,1.1,0.7L74,51.8c-0.4-0.3-0.7-0.6-1.1-0.7c-0.4-0.1-0.8-0.2-1.2-0.2
					c-0.6,0-1.1,0.1-1.5,0.4c-0.4,0.3-0.5,0.7-0.5,1.1c0,0.4,0.2,0.7,0.5,0.9s0.8,0.4,1.4,0.5l0.3,0.1c0.6,0.1,1,0.3,1.4,0.4
					c0.3,0.1,0.6,0.3,0.9,0.6c0.2,0.3,0.4,0.6,0.4,1s-0.1,0.8-0.3,1.1c-0.2,0.3-0.5,0.6-0.9,0.7S72.5,58,72,58
					C71.4,58.2,70.9,58.1,70.4,57.9z"/>
				<path class="st2" d="M81.2,56.1h-4.1l-0.9,2h-0.7l3.3-7.6h0.6l3.3,7.6H82L81.2,56.1z M80.9,55.5l-1.8-4.2l-1.8,4.2H80.9z"/>
				<path class="st2" d="M89.9,58.1h-0.7l-1-2.5c-0.1-0.3-0.3-0.6-0.5-0.7c-0.2-0.1-0.5-0.2-0.9-0.2h-2.1v3.4H84v-7.6h3
					c0.8,0,1.4,0.2,1.8,0.5c0.4,0.4,0.7,0.9,0.7,1.5c0,0.5-0.1,0.9-0.4,1.2s-0.6,0.6-1.1,0.7c0.2,0,0.4,0.1,0.6,0.3
					c0.2,0.1,0.3,0.4,0.4,0.7L89.9,58.1z M86.9,54.1c1.2,0,1.9-0.5,1.9-1.6c0-1-0.6-1.5-1.9-1.5h-2.2v3.1H86.9z"/>
				<path class="st2" d="M94.2,50.5h2.4c1.2,0,2.1,0.3,2.8,1s1,1.6,1,2.8s-0.3,2.2-1,2.8s-1.6,1-2.8,1h-2.4V50.5z M96.7,57.5
					c1,0,1.8-0.3,2.3-0.8s0.8-1.4,0.8-2.4c0-2.1-1-3.2-3.1-3.2h-1.8v6.5h1.8V57.5z"/>
				<path class="st2" d="M102.4,55.3L102.4,55.3c0,0.8,0.2,1.3,0.5,1.7s0.8,0.6,1.4,0.6s1.2-0.2,1.8-0.7l0.3,0.5
					c-0.2,0.2-0.5,0.4-0.9,0.5s-0.7,0.2-1.1,0.2c-0.8,0-1.5-0.2-1.9-0.7s-0.7-1.2-0.7-2c0-0.5,0.1-1,0.3-1.5c0.2-0.4,0.5-0.8,0.9-1
					s0.8-0.3,1.3-0.3c0.7,0,1.3,0.2,1.7,0.7c0.4,0.5,0.6,1.1,0.6,1.9v0.1H102.4z M103.1,53.6c-0.3,0.3-0.5,0.7-0.6,1.2h3.4
					c0-0.5-0.2-1-0.5-1.3s-0.7-0.4-1.1-0.4C103.8,53.1,103.4,53.3,103.1,53.6z"/>
				<path class="st2" d="M111.7,53c0.4,0.2,0.6,0.5,0.8,1c0.2,0.4,0.3,0.9,0.3,1.5s-0.1,1-0.3,1.5c-0.2,0.4-0.5,0.8-0.8,1
					c-0.4,0.2-0.8,0.3-1.2,0.3c-0.4,0-0.8-0.1-1.1-0.3c-0.3-0.2-0.6-0.5-0.7-0.8v1H108v-7.9h0.6v3.5c0.2-0.4,0.4-0.7,0.7-0.8
					s0.7-0.3,1.1-0.3C110.9,52.6,111.4,52.7,111.7,53z M111.7,57c0.3-0.4,0.5-0.9,0.5-1.6c0-0.7-0.2-1.2-0.5-1.6
					c-0.3-0.4-0.8-0.6-1.3-0.6c-0.6,0-1,0.2-1.3,0.6c-0.3,0.4-0.5,0.9-0.5,1.6s0.2,1.2,0.5,1.6c0.3,0.4,0.7,0.6,1.3,0.6
					C110.9,57.6,111.4,57.4,111.7,57z"/>
				<path class="st2" d="M117.1,52.7v0.6c-0.1,0-0.3,0-0.5,0c-0.5,0-0.9,0.2-1.2,0.5c-0.3,0.3-0.4,0.8-0.4,1.2v3.1h-0.6v-3.9
					c0-0.6,0-1.1-0.1-1.5h0.6l0.1,1c0.1-0.4,0.4-0.6,0.7-0.8c0.3-0.2,0.6-0.3,1-0.3C116.8,52.6,117,52.6,117.1,52.7z"/>
				<path class="st2" d="M118.9,50.5v0.8H118v-0.8H118.9z M118.1,52.7h0.6v5.4h-0.6V52.7z"/>
				<path class="st2" d="M121,55.3L121,55.3c0,0.8,0.2,1.3,0.5,1.7s0.8,0.6,1.4,0.6s1.2-0.2,1.8-0.7l0.3,0.5
					c-0.2,0.2-0.5,0.4-0.9,0.5s-0.7,0.2-1.1,0.2c-0.8,0-1.5-0.2-1.9-0.7s-0.7-1.2-0.7-2c0-0.5,0.1-1,0.3-1.5c0.2-0.4,0.5-0.8,0.9-1
					s0.8-0.3,1.3-0.3c0.7,0,1.3,0.2,1.7,0.7c0.4,0.5,0.6,1.1,0.6,1.9v0.1H121z M121.6,53.6c-0.3,0.3-0.5,0.7-0.6,1.2h3.4
					c0-0.5-0.2-1-0.5-1.3s-0.7-0.4-1.1-0.4C122.3,53.1,121.9,53.3,121.6,53.6z"/>
				<path class="st2" d="M127.6,51c-0.2,0.2-0.2,0.5-0.2,0.9v0.8h1.4v0.5h-1.4V58h-0.7v-4.8h-1v-0.5h1v-1c0-0.5,0.1-0.9,0.4-1.2
					s0.6-0.4,1.1-0.4c0.2,0,0.4,0,0.7,0.1v0.6c-0.2-0.1-0.4-0.1-0.5-0.1C128,50.8,127.8,50.9,127.6,51z"/>
				<path class="st2" d="M105.2,70.6v0.8h-0.9v-0.8H105.2z"/>
				<path class="st2" d="M117.7,70.6v0.8h-0.9v-0.8H117.7z"/>
			</g>
		</g>
	</g>
	<g>
		<polygon class="st1" points="10,83.9 0,70.8 10,70.8 		"/>
		<polygon class="st1" points="310,83.9 320,70.8 310,70.8 		"/>
		<rect x="10" y="68.3" class="st3" width="300" height="15.3"/>
	</g>
	<g>
		<rect y="1.1" class="st4" width="320" height="70.4"/>
		<g>
			<g>
				<path class="st2" d="M54.9,32.7c-0.6-0.2-1-0.5-1.5-0.9l0.3-0.6c0.5,0.4,0.9,0.7,1.4,0.9c0.5,0.2,1,0.3,1.7,0.3
					c0.8,0,1.4-0.2,1.8-0.5c0.4-0.3,0.6-0.8,0.6-1.3c0-0.3-0.1-0.6-0.3-0.8c-0.2-0.2-0.5-0.4-0.8-0.5s-0.8-0.2-1.3-0.4
					c-0.7-0.2-1.3-0.3-1.7-0.5S54.3,28,54,27.6c-0.3-0.3-0.5-0.8-0.5-1.3s0.1-1,0.4-1.4c0.3-0.4,0.6-0.7,1.1-0.9
					c0.5-0.2,1.1-0.3,1.7-0.3c0.6,0,1.2,0.1,1.7,0.3c0.5,0.2,1,0.5,1.4,0.9l-0.3,0.6c-0.4-0.4-0.9-0.7-1.3-0.9s-0.9-0.3-1.5-0.3
					c-0.8,0-1.4,0.2-1.8,0.5c-0.4,0.3-0.7,0.8-0.7,1.4c0,0.5,0.2,0.9,0.6,1.1c0.4,0.2,0.9,0.5,1.7,0.6l0.4,0.1
					c0.7,0.2,1.2,0.3,1.6,0.5s0.7,0.4,1,0.7s0.4,0.7,0.4,1.2s-0.1,0.9-0.4,1.3c-0.3,0.4-0.6,0.7-1.1,0.9s-1.1,0.3-1.7,0.3
					C56.1,33,55.5,32.9,54.9,32.7z"/>
				<path class="st2" d="M62.3,29.5L62.3,29.5c0,0.9,0.2,1.6,0.6,2s1,0.7,1.8,0.7c0.8,0,1.5-0.3,2.1-0.8l0.3,0.6
					c-0.3,0.3-0.6,0.5-1.1,0.6s-0.9,0.2-1.4,0.2c-1,0-1.8-0.3-2.3-0.9c-0.5-0.6-0.9-1.4-0.9-2.5c0-0.7,0.1-1.2,0.4-1.8
					c0.3-0.5,0.6-0.9,1.1-1.2c0.5-0.3,1-0.4,1.6-0.4c0.9,0,1.5,0.3,2,0.8s0.7,1.3,0.7,2.3v0.2h-4.9V29.5z M63,27.4
					c-0.4,0.4-0.6,0.9-0.7,1.5h4.1c-0.1-0.7-0.2-1.2-0.6-1.5c-0.3-0.3-0.8-0.5-1.4-0.5C63.9,26.9,63.4,27.1,63,27.4z"/>
				<path class="st2" d="M69.9,32.5c-0.5-0.3-0.8-0.7-1.1-1.2c-0.2-0.5-0.4-1.1-0.4-1.8c0-0.7,0.1-1.3,0.4-1.8
					c0.2-0.5,0.6-0.9,1.1-1.2c0.5-0.3,1-0.4,1.6-0.4c0.4,0,0.9,0.1,1.3,0.2s0.7,0.4,1,0.6l-0.3,0.6c-0.3-0.3-0.7-0.5-1-0.6
					s-0.6-0.2-0.9-0.2c-0.7,0-1.2,0.2-1.7,0.7c-0.4,0.5-0.6,1.1-0.6,2c0,0.8,0.2,1.5,0.6,1.9s1,0.7,1.7,0.7c0.3,0,0.6-0.1,0.9-0.2
					s0.6-0.3,1-0.6l0.3,0.6c-0.3,0.3-0.6,0.5-1,0.6c-0.4,0.2-0.8,0.2-1.2,0.2C70.9,33,70.4,32.8,69.9,32.5z"/>
				<path class="st2" d="M80.5,26.4v6.5h-0.8v-1.2c-0.2,0.4-0.5,0.7-0.9,0.9c-0.4,0.2-0.8,0.3-1.3,0.3c-0.8,0-1.3-0.2-1.7-0.6
					c-0.4-0.4-0.6-1-0.6-1.9v-4.1H76v4c0,0.6,0.1,1.1,0.4,1.4c0.3,0.3,0.7,0.5,1.2,0.5c0.6,0,1.1-0.2,1.5-0.6
					c0.4-0.4,0.6-0.9,0.6-1.6v-3.7L80.5,26.4L80.5,26.4z"/>
				<path class="st2" d="M86.1,26.3V27c-0.2,0-0.4-0.1-0.6-0.1c-0.7,0-1.1,0.2-1.5,0.6c-0.3,0.4-0.5,0.9-0.5,1.5v3.8h-0.8v-4.7
					c0-0.7,0-1.3-0.1-1.8h0.7l0.1,1.2c0.2-0.4,0.4-0.8,0.8-1s0.8-0.3,1.2-0.3C85.7,26.2,85.9,26.3,86.1,26.3z"/>
				<path class="st2" d="M88.2,23.7v1h-1v-1H88.2z M87.3,26.4h0.8v6.5h-0.8V26.4z"/>
				<path class="st2" d="M91.4,27v3.8c0,0.5,0.1,0.9,0.3,1.1c0.2,0.2,0.5,0.3,0.9,0.3c0.2,0,0.5,0,0.7-0.1v0.7
					c-0.3,0.1-0.6,0.1-0.8,0.1c-0.6,0-1-0.2-1.3-0.5s-0.5-0.8-0.5-1.4v-4h-1.3v-0.6h1.3v-1.7l0.8-0.3v2h1.9V27H91.4z"/>
				<path class="st2" d="M100.3,26.4l-3,7.1c-0.3,0.7-0.7,1.2-1.1,1.6c-0.5,0.3-1,0.6-1.7,0.7l-0.2-0.6c0.6-0.1,1.1-0.3,1.4-0.6
					s0.6-0.6,0.8-1.1l0.3-0.6L94,26.4h0.8l2.3,5.7l2.4-5.7H100.3z"/>
				<path class="st2" d="M111.1,30.4h-5l-1.1,2.5h-0.8l4-9.2h0.7l4,9.2h-0.8L111.1,30.4z M110.8,29.7l-2.2-5.1l-2.2,5.1H110.8z"/>
				<path class="st2" d="M119.7,26.4v6.5h-0.8v-1.2c-0.2,0.4-0.5,0.7-0.9,0.9c-0.4,0.2-0.8,0.3-1.3,0.3c-0.8,0-1.3-0.2-1.7-0.6
					c-0.4-0.4-0.6-1-0.6-1.9v-4.1h0.8v4c0,0.6,0.1,1.1,0.4,1.4c0.3,0.3,0.7,0.5,1.2,0.5c0.6,0,1.1-0.2,1.5-0.6
					c0.4-0.4,0.6-0.9,0.6-1.6v-3.7L119.7,26.4L119.7,26.4z"/>
				<path class="st2" d="M123,27v3.8c0,0.5,0.1,0.9,0.3,1.1c0.2,0.2,0.5,0.3,0.9,0.3c0.2,0,0.5,0,0.7-0.1v0.7
					c-0.3,0.1-0.6,0.1-0.8,0.1c-0.6,0-1-0.2-1.3-0.5s-0.5-0.8-0.5-1.4v-4H121v-0.6h1.3v-1.7l0.8-0.3v2h1.9V27H123z"/>
				<path class="st2" d="M131.6,28.8v4.1h-0.8v-4.1c0-0.6-0.1-1.1-0.4-1.4c-0.3-0.3-0.7-0.5-1.2-0.5c-0.6,0-1.2,0.2-1.6,0.6
					s-0.6,0.9-0.6,1.6v3.7h-0.8v-9.5h0.8v4.2c0.2-0.4,0.5-0.7,0.9-1c0.4-0.2,0.8-0.3,1.3-0.3C130.8,26.2,131.6,27.1,131.6,28.8z"/>
				<path class="st2" d="M134.8,32.5c-0.5-0.3-0.8-0.7-1-1.2s-0.4-1.1-0.4-1.8s0.1-1.3,0.4-1.8c0.2-0.5,0.6-0.9,1-1.2
					c0.5-0.3,1-0.4,1.6-0.4s1.1,0.1,1.5,0.4s0.8,0.7,1,1.2s0.4,1.1,0.4,1.8s-0.1,1.3-0.4,1.8c-0.2,0.5-0.6,0.9-1,1.2
					c-0.4,0.3-1,0.4-1.5,0.4C135.8,33,135.3,32.8,134.8,32.5z M138,31.6c0.4-0.5,0.6-1.1,0.6-2c0-0.8-0.2-1.5-0.6-2
					c-0.4-0.5-0.9-0.7-1.6-0.7c-0.7,0-1.2,0.2-1.6,0.7c-0.4,0.5-0.6,1.1-0.6,2s0.2,1.5,0.6,2c0.4,0.5,0.9,0.7,1.6,0.7
					S137.6,32,138,31.6z"/>
				<path class="st2" d="M144.5,26.3V27c-0.2,0-0.4-0.1-0.6-0.1c-0.7,0-1.1,0.2-1.5,0.6c-0.3,0.4-0.5,0.9-0.5,1.5v3.8h-0.8v-4.7
					c0-0.7,0-1.3-0.1-1.8h0.7l0.1,1.2c0.2-0.4,0.4-0.8,0.8-1s0.8-0.3,1.2-0.3C144.1,26.2,144.3,26.3,144.5,26.3z"/>
				<path class="st2" d="M146.6,23.7v1h-1v-1H146.6z M145.7,26.4h0.8v6.5h-0.8V26.4z"/>
				<path class="st2" d="M153.7,32.2v0.6h-5.4v-0.5l4.3-5.3h-4.1v-0.6h5.1V27l-4.2,5.2C149.4,32.2,153.7,32.2,153.7,32.2z"/>
				<path class="st2" d="M160.8,26.4v6.5H160v-1.2c-0.2,0.4-0.5,0.8-0.9,1s-0.8,0.3-1.4,0.3c-0.6,0-1.1-0.1-1.5-0.4s-0.8-0.7-1-1.2
					s-0.4-1.1-0.4-1.8c0-0.7,0.1-1.3,0.4-1.8c0.2-0.5,0.6-0.9,1-1.2c0.4-0.3,0.9-0.4,1.5-0.4c0.5,0,1,0.1,1.4,0.3
					c0.4,0.2,0.7,0.6,0.9,1v-1.2L160.8,26.4L160.8,26.4z M159.4,31.6c0.4-0.5,0.6-1.1,0.6-2s-0.2-1.5-0.6-2
					c-0.4-0.5-0.9-0.7-1.6-0.7s-1.2,0.2-1.6,0.7c-0.4,0.5-0.6,1.1-0.6,2c0,0.8,0.2,1.5,0.6,1.9c0.4,0.5,0.9,0.7,1.6,0.7
					C158.6,32.3,159.1,32,159.4,31.6z"/>
				<path class="st2" d="M164.1,27v3.8c0,0.5,0.1,0.9,0.3,1.1c0.2,0.2,0.5,0.3,0.9,0.3c0.2,0,0.5,0,0.7-0.1v0.7
					c-0.3,0.1-0.6,0.1-0.8,0.1c-0.6,0-1-0.2-1.3-0.5s-0.5-0.8-0.5-1.4v-4H162v-0.6h1.3v-1.7l0.8-0.3v2h1.9V27H164.1z"/>
				<path class="st2" d="M168.3,23.7v1h-1v-1H168.3z M167.4,26.4h0.8v6.5h-0.8V26.4z"/>
				<path class="st2" d="M171.4,32.5c-0.5-0.3-0.8-0.7-1-1.2s-0.4-1.1-0.4-1.8s0.1-1.3,0.4-1.8c0.2-0.5,0.6-0.9,1-1.2
					c0.5-0.3,1-0.4,1.6-0.4s1.1,0.1,1.5,0.4s0.8,0.7,1,1.2s0.4,1.1,0.4,1.8s-0.1,1.3-0.4,1.8c-0.2,0.5-0.6,0.9-1,1.2
					c-0.4,0.3-1,0.4-1.5,0.4C172.4,33,171.9,32.8,171.4,32.5z M174.6,31.6c0.4-0.5,0.6-1.1,0.6-2c0-0.8-0.2-1.5-0.6-2
					c-0.4-0.5-0.9-0.7-1.6-0.7c-0.7,0-1.2,0.2-1.6,0.7c-0.4,0.5-0.6,1.1-0.6,2s0.2,1.5,0.6,2c0.4,0.5,0.9,0.7,1.6,0.7
					C173.7,32.3,174.2,32,174.6,31.6z"/>
				<path class="st2" d="M183.1,28.8v4.1h-0.8v-4.1c0-0.6-0.1-1.1-0.4-1.4c-0.3-0.3-0.7-0.5-1.2-0.5c-0.6,0-1.2,0.2-1.6,0.6
					c-0.4,0.4-0.6,0.9-0.6,1.6v3.7h-0.8v-4.7c0-0.7,0-1.3-0.1-1.8h0.7l0.1,1.2c0.2-0.4,0.5-0.8,0.9-1s0.9-0.3,1.4-0.3
					C182.3,26.2,183.1,27.1,183.1,28.8z"/>
				<path class="st2" d="M188.7,23.7h3.5c0.9,0,1.6,0.2,2.2,0.7c0.5,0.4,0.8,1.1,0.8,1.8c0,0.8-0.3,1.4-0.8,1.9s-1.3,0.7-2.2,0.7
					h-2.7v4.1h-0.8V23.7z M192.2,28c0.7,0,1.3-0.2,1.6-0.5c0.4-0.3,0.6-0.8,0.6-1.4s-0.2-1-0.6-1.4s-0.9-0.5-1.6-0.5h-2.7v3.7h2.7
					V28z"/>
				<path class="st2" d="M202.3,26.4v6.5h-0.8v-1.2c-0.2,0.4-0.5,0.8-0.9,1s-0.8,0.3-1.4,0.3c-0.6,0-1.1-0.1-1.5-0.4s-0.8-0.7-1-1.2
					s-0.4-1.1-0.4-1.8c0-0.7,0.1-1.3,0.4-1.8c0.2-0.5,0.6-0.9,1-1.2c0.4-0.3,0.9-0.4,1.5-0.4c0.5,0,1,0.1,1.4,0.3
					c0.4,0.2,0.7,0.6,0.9,1v-1.2L202.3,26.4L202.3,26.4z M201,31.6c0.4-0.5,0.6-1.1,0.6-2s-0.2-1.5-0.6-2c-0.4-0.5-0.9-0.7-1.6-0.7
					s-1.2,0.2-1.6,0.7c-0.4,0.5-0.6,1.1-0.6,2c0,0.8,0.2,1.5,0.6,1.9c0.4,0.5,0.9,0.7,1.6,0.7C200.1,32.3,200.6,32,201,31.6z"/>
				<path class="st2" d="M205.5,32.5c-0.5-0.3-0.8-0.7-1.1-1.2c-0.2-0.5-0.4-1.1-0.4-1.8c0-0.7,0.1-1.3,0.4-1.8
					c0.2-0.5,0.6-0.9,1.1-1.2c0.5-0.3,1-0.4,1.6-0.4c0.4,0,0.9,0.1,1.3,0.2s0.7,0.4,1,0.6l-0.3,0.6c-0.3-0.3-0.7-0.5-1-0.6
					s-0.6-0.2-0.9-0.2c-0.7,0-1.2,0.2-1.7,0.7c-0.4,0.5-0.6,1.1-0.6,2c0,0.8,0.2,1.5,0.6,1.9s1,0.7,1.7,0.7c0.3,0,0.6-0.1,0.9-0.2
					c0.3-0.1,0.6-0.3,1-0.6l0.3,0.6c-0.3,0.3-0.6,0.5-1,0.6c-0.4,0.2-0.8,0.2-1.2,0.2C206.5,33,206,32.8,205.5,32.5z"/>
				<path class="st2" d="M215.3,32.9l-3.6-3.2v3.2h-0.8v-9.5h0.8v6l3.3-3h1l-3.4,3.1l3.7,3.4H215.3z"/>
				<path class="st2" d="M222.8,26.4v6.5H222v-1.2c-0.2,0.4-0.5,0.8-0.9,1s-0.8,0.3-1.4,0.3c-0.6,0-1.1-0.1-1.5-0.4s-0.8-0.7-1-1.2
					s-0.4-1.1-0.4-1.8c0-0.7,0.1-1.3,0.4-1.8c0.2-0.5,0.6-0.9,1-1.2c0.4-0.3,0.9-0.4,1.5-0.4c0.5,0,1,0.1,1.4,0.3
					c0.4,0.2,0.7,0.6,0.9,1v-1.2L222.8,26.4L222.8,26.4z M221.4,31.6c0.4-0.5,0.6-1.1,0.6-2s-0.2-1.5-0.6-2
					c-0.4-0.5-0.9-0.7-1.6-0.7s-1.2,0.2-1.6,0.7c-0.4,0.5-0.6,1.1-0.6,2c0,0.8,0.2,1.5,0.6,1.9c0.4,0.5,0.9,0.7,1.6,0.7
					C220.5,32.3,221.1,32,221.4,31.6z"/>
				<path class="st2" d="M230.5,26.4v6.5c0,0.9-0.2,1.6-0.7,2.1s-1.1,0.7-2.1,0.7s-1.8-0.2-2.5-0.7l0.2-0.7c0.4,0.2,0.8,0.4,1.2,0.5
					s0.8,0.2,1.2,0.2c0.6,0,1.1-0.2,1.5-0.5c0.3-0.4,0.5-0.9,0.5-1.5v-1.7c-0.2,0.4-0.5,0.8-0.9,1s-0.9,0.4-1.4,0.4
					c-0.6,0-1.1-0.1-1.5-0.4s-0.8-0.7-1-1.1c-0.2-0.5-0.4-1-0.4-1.7c0-0.6,0.1-1.2,0.4-1.7c0.2-0.5,0.6-0.9,1-1.1
					c0.4-0.3,0.9-0.4,1.5-0.4c0.5,0,1,0.1,1.4,0.3c0.4,0.2,0.7,0.6,0.9,1v-1.2L230.5,26.4L230.5,26.4z M229.2,31.3
					c0.4-0.4,0.6-1.1,0.6-1.8c0-0.8-0.2-1.4-0.6-1.9s-0.9-0.7-1.6-0.7c-0.7,0-1.2,0.2-1.6,0.7c-0.4,0.5-0.6,1.1-0.6,1.9
					s0.2,1.4,0.6,1.8c0.4,0.4,0.9,0.7,1.6,0.7C228.2,32,228.8,31.7,229.2,31.3z"/>
				<path class="st2" d="M233.1,29.5L233.1,29.5c0,0.9,0.2,1.6,0.6,2s1,0.7,1.8,0.7s1.5-0.3,2.1-0.8l0.3,0.6
					c-0.3,0.3-0.6,0.5-1.1,0.6s-0.9,0.2-1.4,0.2c-1,0-1.8-0.3-2.3-0.9c-0.5-0.6-0.9-1.4-0.9-2.5c0-0.7,0.1-1.2,0.4-1.8
					c0.3-0.5,0.6-0.9,1.1-1.2c0.5-0.3,1-0.4,1.6-0.4c0.9,0,1.5,0.3,2,0.8s0.7,1.3,0.7,2.3v0.2h-4.9V29.5z M233.9,27.4
					c-0.4,0.4-0.6,0.9-0.7,1.5h4.1c-0.1-0.7-0.2-1.2-0.6-1.5c-0.3-0.3-0.8-0.5-1.4-0.5C234.7,26.9,234.3,27.1,233.9,27.4z"/>
				<path class="st2" d="M243.8,32.4c-0.2-0.9-0.3-1.9-0.3-2.9s0.1-2,0.3-2.9s0.6-1.9,1-2.9h0.7c-0.5,1-0.8,2-1,3
					c-0.2,0.9-0.3,1.9-0.3,2.8s0.1,1.9,0.3,2.8c0.2,0.9,0.5,1.9,1,3h-0.7C244.4,34.3,244,33.3,243.8,32.4z"/>
				<path class="st2" d="M248.2,32.7c-0.6-0.2-1-0.5-1.5-0.9l0.3-0.6c0.5,0.4,0.9,0.7,1.4,0.9c0.5,0.2,1,0.3,1.7,0.3
					c0.8,0,1.4-0.2,1.8-0.5c0.4-0.3,0.6-0.8,0.6-1.3c0-0.3-0.1-0.6-0.3-0.8c-0.2-0.2-0.5-0.4-0.8-0.5s-0.8-0.2-1.3-0.4
					c-0.7-0.2-1.3-0.3-1.7-0.5s-0.8-0.4-1.1-0.8c-0.3-0.3-0.5-0.8-0.5-1.3s0.1-1,0.4-1.4c0.3-0.4,0.6-0.7,1.1-0.9
					c0.5-0.2,1.1-0.3,1.7-0.3c0.6,0,1.2,0.1,1.7,0.3c0.5,0.2,1,0.5,1.4,0.9l-0.3,0.6c-0.4-0.4-0.9-0.7-1.3-0.9s-0.9-0.3-1.5-0.3
					c-0.8,0-1.4,0.2-1.8,0.5c-0.4,0.3-0.7,0.8-0.7,1.4c0,0.5,0.2,0.9,0.6,1.1c0.4,0.2,0.9,0.5,1.7,0.6l0.4,0.1
					c0.7,0.2,1.2,0.3,1.6,0.5s0.7,0.4,1,0.7s0.4,0.7,0.4,1.2s-0.1,0.9-0.4,1.3c-0.3,0.4-0.6,0.7-1.1,0.9s-1.1,0.3-1.7,0.3
					C249.3,33,248.7,32.9,248.2,32.7z"/>
				<path class="st2" d="M256.1,32.7c-0.6-0.2-1-0.5-1.5-0.9l0.3-0.6c0.5,0.4,0.9,0.7,1.4,0.9c0.5,0.2,1,0.3,1.7,0.3
					c0.8,0,1.4-0.2,1.8-0.5c0.4-0.3,0.6-0.8,0.6-1.3c0-0.3-0.1-0.6-0.3-0.8c-0.2-0.2-0.5-0.4-0.8-0.5s-0.8-0.2-1.3-0.4
					c-0.7-0.2-1.3-0.3-1.7-0.5c-0.4-0.2-0.8-0.4-1.1-0.8c-0.3-0.3-0.5-0.8-0.5-1.3s0.1-1,0.4-1.4c0.3-0.4,0.6-0.7,1.1-0.9
					c0.5-0.2,1.1-0.3,1.7-0.3s1.2,0.1,1.7,0.3c0.5,0.2,1,0.5,1.4,0.9l-0.3,0.6c-0.4-0.4-0.9-0.7-1.3-0.9s-0.9-0.3-1.5-0.3
					c-0.8,0-1.4,0.2-1.8,0.5s-0.7,0.8-0.7,1.4c0,0.5,0.2,0.9,0.6,1.1s0.9,0.5,1.7,0.6l0.4,0.1c0.7,0.2,1.2,0.3,1.6,0.5
					s0.7,0.4,1,0.7s0.4,0.7,0.4,1.2s-0.1,0.9-0.4,1.3c-0.3,0.4-0.6,0.7-1.1,0.9s-1.1,0.3-1.7,0.3C257.3,33,256.7,32.9,256.1,32.7z"
					/>
				<path class="st2" d="M263.2,23.7h3.5c0.9,0,1.6,0.2,2.2,0.7c0.5,0.4,0.8,1.1,0.8,1.8c0,0.8-0.3,1.4-0.8,1.9s-1.3,0.7-2.2,0.7
					H264v4.1h-0.8V23.7z M266.7,28c0.7,0,1.3-0.2,1.6-0.5c0.4-0.3,0.6-0.8,0.6-1.4s-0.2-1-0.6-1.4s-0.9-0.5-1.6-0.5H264v3.7h2.7V28z
					"/>
				<path class="st2" d="M271.7,31.7v0.8c0,0.3-0.1,0.6-0.2,0.9s-0.3,0.5-0.5,0.8l-0.4-0.3c0.3-0.3,0.5-0.7,0.5-1.1h-0.5v-1.1
					C270.6,31.7,271.7,31.7,271.7,31.7z"/>
				<path class="st2" d="M54.9,48.8c-0.6-0.2-1-0.5-1.5-0.9l0.3-0.6c0.5,0.4,0.9,0.7,1.4,0.9s1,0.3,1.7,0.3c0.8,0,1.4-0.2,1.8-0.5
					s0.6-0.8,0.6-1.3c0-0.3-0.1-0.6-0.3-0.8s-0.5-0.4-0.8-0.5s-0.8-0.2-1.3-0.4c-0.7-0.2-1.3-0.3-1.7-0.5s-0.8-0.4-1.1-0.8
					c-0.3-0.3-0.5-0.8-0.5-1.3s0.1-1,0.4-1.4c0.3-0.4,0.6-0.7,1.1-0.9s1.1-0.3,1.7-0.3c0.6,0,1.2,0.1,1.7,0.3s1,0.5,1.4,0.9
					l-0.3,0.6c-0.4-0.4-0.9-0.7-1.3-0.9s-0.9-0.3-1.5-0.3c-0.8,0-1.4,0.2-1.8,0.5c-0.4,0.3-0.7,0.8-0.7,1.4c0,0.5,0.2,0.9,0.6,1.1
					c0.4,0.2,0.9,0.5,1.7,0.6l0.4,0.1c0.7,0.2,1.2,0.3,1.6,0.5s0.7,0.4,1,0.7s0.4,0.7,0.4,1.2s-0.1,0.9-0.4,1.3
					c-0.3,0.4-0.6,0.7-1.1,0.9S57.3,49,56.7,49C56.1,49.1,55.5,49,54.9,48.8z"/>
				<path class="st2" d="M67.9,46.6h-5l-1.1,2.5H61l4-9.2h0.7l4,9.2H69L67.9,46.6z M67.6,45.9l-2.2-5.1l-2.2,5.1H67.6z"/>
				<path class="st2" d="M71.4,39.8h3.5c0.9,0,1.6,0.2,2.2,0.7c0.5,0.4,0.8,1.1,0.8,1.8c0,0.8-0.3,1.4-0.8,1.9s-1.3,0.7-2.2,0.7
					h-2.7V49h-0.8V39.8z M74.9,44.2c0.7,0,1.3-0.2,1.6-0.5c0.4-0.3,0.6-0.8,0.6-1.4c0-0.6-0.2-1-0.6-1.4s-0.9-0.5-1.6-0.5h-2.7v3.7
					L74.9,44.2L74.9,44.2z"/>
				<path class="st2" d="M79.9,47.9v0.8c0,0.3-0.1,0.6-0.2,0.9c-0.1,0.3-0.3,0.5-0.5,0.8l-0.4-0.3c0.3-0.3,0.5-0.7,0.5-1.1h-0.5
					v-1.1L79.9,47.9L79.9,47.9z"/>
				<path class="st2" d="M86.4,48.8c-0.6-0.2-1-0.5-1.5-0.9l0.3-0.6c0.5,0.4,0.9,0.7,1.4,0.9s1,0.3,1.7,0.3c0.8,0,1.4-0.2,1.8-0.5
					s0.6-0.8,0.6-1.3c0-0.3-0.1-0.6-0.3-0.8c-0.2-0.2-0.5-0.4-0.8-0.5s-0.8-0.2-1.3-0.4c-0.7-0.2-1.3-0.3-1.7-0.5
					c-0.4-0.2-0.8-0.4-1.1-0.8c-0.3-0.3-0.5-0.8-0.5-1.3s0.1-1,0.4-1.4s0.6-0.7,1.1-0.9s1.1-0.3,1.7-0.3s1.2,0.1,1.7,0.3
					s1,0.5,1.4,0.9L91,41.6c-0.4-0.4-0.9-0.7-1.3-0.9s-0.9-0.3-1.5-0.3c-0.8,0-1.4,0.2-1.8,0.5s-0.7,0.8-0.7,1.4
					c0,0.5,0.2,0.9,0.6,1.1c0.4,0.2,0.9,0.5,1.7,0.6l0.4,0.1c0.7,0.2,1.2,0.3,1.6,0.5s0.7,0.4,1,0.7s0.4,0.7,0.4,1.2
					s-0.1,0.9-0.4,1.3c-0.3,0.4-0.6,0.7-1.1,0.9S88.8,49,88.2,49C87.5,49.1,86.9,49,86.4,48.8z"/>
				<path class="st2" d="M99.4,46.6h-5l-1.1,2.5h-0.8l4-9.2h0.7l4,9.2h-0.8L99.4,46.6z M99.1,45.9l-2.2-5.1l-2.2,5.1H99.1z"/>
				<path class="st2" d="M109.9,49h-0.8l-1.1-3.1c-0.1-0.4-0.3-0.7-0.6-0.8c-0.3-0.1-0.6-0.2-1.1-0.2h-2.6V49h-0.8v-9.2h3.6
					c1,0,1.7,0.2,2.2,0.7c0.5,0.4,0.8,1.1,0.8,1.9c0,0.6-0.2,1.1-0.5,1.5s-0.8,0.7-1.3,0.9c0.3,0,0.5,0.2,0.7,0.3
					c0.2,0.2,0.3,0.4,0.5,0.8L109.9,49z M106.3,44.2c1.5,0,2.3-0.6,2.3-1.9c0-1.2-0.8-1.8-2.3-1.8h-2.7v3.7H106.3z"/>
				<path class="st2" d="M112.7,47.9v0.8c0,0.3-0.1,0.6-0.2,0.9c-0.1,0.3-0.3,0.5-0.5,0.8l-0.4-0.3c0.3-0.3,0.5-0.7,0.5-1.1h-0.5
					v-1.1L112.7,47.9L112.7,47.9z"/>
				<path class="st2" d="M118.2,39.8h3.5c0.9,0,1.6,0.2,2.2,0.7c0.5,0.4,0.8,1.1,0.8,1.8c0,0.8-0.3,1.4-0.8,1.9s-1.3,0.7-2.2,0.7
					H119V49h-0.8V39.8z M121.7,44.2c0.7,0,1.3-0.2,1.6-0.5c0.4-0.3,0.6-0.8,0.6-1.4c0-0.6-0.2-1-0.6-1.4s-0.9-0.5-1.6-0.5H119v3.7
					L121.7,44.2L121.7,44.2z"/>
				<path class="st2" d="M128,48.5c-0.6-0.4-1.1-0.9-1.4-1.6c-0.3-0.7-0.5-1.5-0.5-2.5s0.2-1.8,0.5-2.5s0.8-1.2,1.4-1.6
					c0.6-0.4,1.3-0.6,2.2-0.6s1.6,0.2,2.2,0.6c0.6,0.4,1.1,0.9,1.4,1.6c0.3,0.7,0.5,1.5,0.5,2.5s-0.2,1.8-0.5,2.5s-0.8,1.3-1.4,1.6
					s-1.3,0.6-2.2,0.6C129.4,49.1,128.6,48.9,128,48.5z M132.6,47.4c0.6-0.7,0.9-1.7,0.9-3s-0.3-2.3-0.9-2.9c-0.6-0.7-1.4-1-2.4-1
					s-1.8,0.3-2.4,1s-0.9,1.7-0.9,2.9s0.3,2.2,0.9,3c0.6,0.7,1.4,1.1,2.4,1.1S132,48.1,132.6,47.4z"/>
				<path class="st2" d="M142.2,46.6h-5l-1.1,2.5h-0.8l4-9.2h0.7l4,9.2h-0.8L142.2,46.6z M141.9,45.9l-2.2-5.1l-2.2,5.1H141.9z"/>
				<path class="st2" d="M153.1,48.6l-0.5,0.5c-0.7-0.4-1.3-0.8-1.8-1.3c-0.4,0.4-0.8,0.7-1.2,0.9c-0.5,0.2-1,0.3-1.5,0.3
					s-1.1-0.1-1.5-0.3s-0.8-0.5-1-0.8s-0.4-0.8-0.4-1.2c0-0.6,0.2-1.1,0.5-1.5s0.9-0.9,1.7-1.4c-0.4-0.5-0.7-0.9-0.9-1.2
					s-0.2-0.6-0.2-1c0-0.6,0.2-1.1,0.6-1.4c0.4-0.4,0.9-0.5,1.6-0.5c0.6,0,1.1,0.2,1.4,0.5c0.4,0.3,0.5,0.8,0.5,1.3
					c0,0.4-0.1,0.8-0.4,1.2c-0.3,0.3-0.8,0.8-1.5,1.3l2.3,2.7c0.4-0.8,0.6-1.8,0.7-3h0.7c0,1.4-0.3,2.6-0.9,3.6
					C151.8,47.8,152.4,48.2,153.1,48.6z M150.4,47.3l-2.5-3c-0.7,0.4-1.2,0.8-1.4,1.2c-0.3,0.4-0.4,0.7-0.4,1.2s0.2,0.9,0.6,1.2
					c0.4,0.3,0.9,0.5,1.5,0.5C149.1,48.4,149.8,48.1,150.4,47.3z M147.3,42.4c0.1,0.2,0.4,0.6,0.7,1c0.6-0.4,1-0.7,1.3-1
					c0.2-0.3,0.3-0.6,0.3-0.9c0-0.4-0.1-0.6-0.3-0.9c-0.2-0.2-0.5-0.3-0.9-0.3s-0.7,0.1-1,0.4c-0.2,0.2-0.4,0.5-0.4,0.9
					C147.1,41.9,147.2,42.2,147.3,42.4z"/>
				<path class="st2" d="M162.9,39.8V49h-0.7v-7.4L159,49h-0.6l-3.3-7.3V49h-0.7v-9.2h0.7l3.6,8.2l3.6-8.2H162.9z"/>
				<path class="st2" d="M164.6,51.4c0.4-1.1,0.8-2,1-3c0.2-0.9,0.3-1.9,0.3-2.8c0-0.9-0.1-1.9-0.3-2.8c-0.2-0.9-0.5-1.9-1-3h0.7
					c0.5,1,0.8,1.9,1,2.9c0.2,0.9,0.3,1.9,0.3,2.9s-0.1,2-0.3,2.9s-0.6,1.9-1.1,2.9L164.6,51.4L164.6,51.4z"/>
				<path class="st2" d="M169.3,43.9l1.3-1.7l-2-0.6l0.2-0.6l2,0.7l-0.1-2.1h0.6l-0.1,2.1l2-0.7l0.2,0.6l-2,0.6l1.3,1.7l-0.5,0.4
					l-1.2-1.7l-1.2,1.7L169.3,43.9z"/>
			</g>
		</g>
		<g>
			<g>
				<circle class="st1" cx="31.7" cy="30.5" r="9.8"/>
			</g>
			<g>
				<path class="st5" d="M33.8,27.9c-0.3,0-0.5-0.2-0.5-0.5v-3.2h-5c-0.7,0-1.3,0.6-1.3,1.3v10.2c0,0.7,0.6,1.3,1.3,1.3h7.4
					c0.7,0,1.3-0.6,1.3-1.3v-7.8H33.8z"/>
			</g>
			<path class="st6" d="M33.7,27.9H37l-3.7-3.7v3.2C33.3,27.7,33.5,27.9,33.7,27.9z"/>
			<polygon class="st4" points="37,30.5 37,27.9 33.8,27.9 			"/>
		</g>
	</g>
</g>
</svg>
