<?xml version="1.0" encoding="utf-8"?>
<!-- Generator: Adobe Illustrator 25.0.1, SVG Export Plug-In . SVG Version: 6.00 Build 0)  -->
<svg version="1.1" id="Layer_1" xmlns="http://www.w3.org/2000/svg" xmlns:xlink="http://www.w3.org/1999/xlink" x="0px" y="0px"
	 viewBox="0 0 320 314.3" style="enable-background:new 0 0 320 314.3;" xml:space="preserve">
<style type="text/css">
	.st0{opacity:0.55;}
	.st1{fill:#0A90B7;}
	.st2{fill:#444444;}
	.st3{fill:#0A90B7;enable-background:new    ;}
	.st4{fill:#F2F2F2;}
	.st5{fill:#FFFFFF;}
	.st6{fill:#A6D7E5;}
</style>
<g id="Layer_6">
</g>
<g id="Shapes">
</g>
<g id="background">
</g>
<g id="text">
</g>
<g id="Graphics">
</g>
<g id="Layer_5">
	<g>
		<g class="st0">
			<g>
				<g>
					<path class="st1" d="M50.4,111.7c-0.3-0.2-0.5-0.4-0.7-0.7s-0.3-0.6-0.3-1c0-0.3,0.1-0.6,0.3-0.9s0.4-0.5,0.7-0.7
						s0.6-0.3,1-0.3c0.3,0,0.7,0.1,1,0.3c0.3,0.2,0.5,0.4,0.7,0.7c0.2,0.3,0.3,0.6,0.3,1c0,0.3-0.1,0.7-0.3,1s-0.4,0.5-0.7,0.7
						s-0.6,0.3-1,0.3C51.1,111.9,50.7,111.8,50.4,111.7z"/>
					<path class="st1" d="M51.4,112c-0.4,0-0.7-0.1-1-0.3l0,0c-0.3-0.2-0.6-0.4-0.8-0.7c-0.2-0.3-0.3-0.7-0.3-1s0.1-0.7,0.3-1
						s0.4-0.6,0.8-0.8c0.6-0.4,1.4-0.4,2.1,0c0.3,0.2,0.6,0.4,0.8,0.7c0.2,0.3,0.3,0.7,0.3,1c0,0.4-0.1,0.7-0.3,1s-0.4,0.6-0.8,0.7
						C52.1,112,51.8,112,51.4,112z M50.5,111.6c0.6,0.3,1.3,0.3,1.8,0c0.3-0.2,0.5-0.4,0.7-0.7c0.2-0.3,0.2-0.6,0.2-0.9
						s-0.1-0.6-0.2-0.9c-0.2-0.3-0.4-0.5-0.7-0.6c-0.6-0.3-1.3-0.3-1.8,0c-0.3,0.2-0.5,0.4-0.7,0.7c-0.2,0.3-0.2,0.6-0.2,0.9
						s0.1,0.6,0.2,0.9C50,111.2,50.2,111.4,50.5,111.6L50.5,111.6z"/>
				</g>
				<path class="st2" d="M74.6,110.8h-4.1l-0.9,2h-0.7l3.3-7.6h0.6l3.3,7.6h-0.7L74.6,110.8z M74.3,110.3l-1.8-4.2l-1.8,4.2H74.3z"
					/>
				<path class="st2" d="M81.9,107.5v5.4c0,0.8-0.2,1.4-0.6,1.8s-1,0.6-1.7,0.6c-0.8,0-1.5-0.2-2.1-0.6l0.1-0.6
					c0.3,0.2,0.7,0.4,1,0.4c0.3,0.1,0.6,0.1,1,0.1c0.5,0,0.9-0.1,1.2-0.4c0.3-0.3,0.4-0.7,0.4-1.3v-1.4c-0.2,0.4-0.4,0.6-0.7,0.8
					c-0.3,0.2-0.7,0.3-1.2,0.3s-0.9-0.1-1.3-0.3s-0.6-0.5-0.9-0.9c-0.2-0.4-0.3-0.9-0.3-1.4s0.1-1,0.3-1.4c0.2-0.4,0.5-0.7,0.9-0.9
					s0.8-0.3,1.3-0.3c0.4,0,0.8,0.1,1.1,0.3c0.3,0.2,0.6,0.5,0.7,0.8v-1H81.9z M80.8,111.6c0.3-0.4,0.5-0.9,0.5-1.5
					s-0.2-1.2-0.5-1.5S80,108,79.5,108c-0.6,0-1,0.2-1.3,0.6s-0.5,0.9-0.5,1.5s0.2,1.2,0.5,1.5s0.8,0.6,1.3,0.6
					C80.1,112.1,80.5,111.9,80.8,111.6z"/>
				<path class="st2" d="M84.1,110.1L84.1,110.1c0,0.8,0.2,1.3,0.5,1.7c0.3,0.4,0.8,0.6,1.4,0.6s1.2-0.2,1.8-0.7l0.3,0.5
					c-0.2,0.2-0.5,0.4-0.9,0.5s-0.7,0.2-1.1,0.2c-0.8,0-1.5-0.2-1.9-0.7s-0.7-1.2-0.7-2c0-0.5,0.1-1,0.3-1.5c0.2-0.4,0.5-0.8,0.9-1
					s0.8-0.3,1.3-0.3c0.7,0,1.3,0.2,1.7,0.7c0.4,0.5,0.6,1.1,0.6,1.9v0.1C88.3,110.1,84.1,110.1,84.1,110.1z M84.7,108.4
					c-0.3,0.3-0.5,0.7-0.6,1.2h3.4c0-0.5-0.2-1-0.5-1.3s-0.7-0.4-1.1-0.4C85.4,107.9,85,108.1,84.7,108.4z"/>
				<path class="st2" d="M94.1,109.5v3.4h-0.7v-3.4c0-0.5-0.1-0.9-0.3-1.2c-0.2-0.2-0.6-0.4-1-0.4c-0.5,0-1,0.2-1.3,0.5
					s-0.5,0.8-0.5,1.3v3.1h-0.6V109c0-0.6,0-1.1-0.1-1.5h0.6l0.1,1c0.2-0.4,0.4-0.6,0.7-0.8c0.3-0.2,0.7-0.3,1.1-0.3
					C93.4,107.4,94.1,108.1,94.1,109.5z"/>
				<path class="st2" d="M96.7,112.6c-0.4-0.2-0.7-0.6-0.9-1c-0.2-0.4-0.3-0.9-0.3-1.4c0-0.6,0.1-1,0.3-1.5c0.2-0.4,0.5-0.8,0.9-1
					s0.8-0.3,1.3-0.3c0.4,0,0.7,0.1,1,0.2s0.6,0.3,0.8,0.5l-0.3,0.5c-0.3-0.2-0.5-0.4-0.8-0.5s-0.5-0.2-0.8-0.2
					c-0.6,0-1,0.2-1.4,0.6c-0.3,0.4-0.5,0.9-0.5,1.6s0.2,1.2,0.5,1.6s0.8,0.6,1.4,0.6c0.3,0,0.5-0.1,0.8-0.2s0.5-0.3,0.8-0.5
					l0.3,0.5c-0.2,0.2-0.5,0.4-0.9,0.5c-0.3,0.1-0.7,0.2-1,0.2C97.5,113,97.1,112.8,96.7,112.6z"/>
				<path class="st2" d="M105.7,107.5l-2.5,5.9c-0.2,0.6-0.6,1-0.9,1.3c-0.4,0.3-0.8,0.5-1.4,0.6l-0.1-0.5c0.5-0.1,0.9-0.3,1.2-0.5
					c0.3-0.2,0.5-0.5,0.7-0.9l0.2-0.5l-2.3-5.4h0.7l1.9,4.7l1.9-4.7H105.7z"/>
				<path class="st2" d="M115.6,112.9h-0.7l-1-2.5c-0.1-0.3-0.3-0.6-0.5-0.7s-0.5-0.2-0.9-0.2h-2.1v3.4h-0.7v-7.6h2.9
					c0.8,0,1.4,0.2,1.8,0.5c0.4,0.4,0.7,0.9,0.7,1.5c0,0.5-0.1,0.9-0.4,1.2s-0.6,0.6-1.1,0.7c0.2,0,0.4,0.1,0.6,0.3
					c0.2,0.1,0.3,0.4,0.4,0.7L115.6,112.9z M112.6,108.9c1.2,0,1.9-0.5,1.9-1.6c0-1-0.6-1.5-1.9-1.5h-2.2v3.1H112.6z"/>
				<path class="st2" d="M117.4,110.1L117.4,110.1c0,0.8,0.2,1.3,0.5,1.7c0.3,0.4,0.8,0.6,1.4,0.6s1.2-0.2,1.8-0.7l0.3,0.5
					c-0.2,0.2-0.5,0.4-0.9,0.5s-0.7,0.2-1.1,0.2c-0.8,0-1.5-0.2-1.9-0.7s-0.7-1.2-0.7-2c0-0.5,0.1-1,0.3-1.5c0.2-0.4,0.5-0.8,0.9-1
					s0.8-0.3,1.3-0.3c0.7,0,1.3,0.2,1.7,0.7c0.4,0.5,0.6,1.1,0.6,1.9v0.1C121.6,110.1,117.4,110.1,117.4,110.1z M118,108.4
					c-0.3,0.3-0.5,0.7-0.6,1.2h3.4c0-0.5-0.2-1-0.5-1.3s-0.7-0.4-1.1-0.4C118.7,107.9,118.3,108.1,118,108.4z"/>
				<path class="st2" d="M127.4,107.5l-2.3,5.4h-0.7l-2.3-5.4h0.7l1.9,4.7l1.9-4.7H127.4z"/>
				<path class="st2" d="M129.3,105.3v0.8h-0.9v-0.8H129.3z M128.5,107.5h0.6v5.4h-0.6V107.5z"/>
				<path class="st2" d="M131.3,110.1L131.3,110.1c0,0.8,0.2,1.3,0.5,1.7c0.3,0.4,0.8,0.6,1.4,0.6c0.6,0,1.2-0.2,1.8-0.7l0.3,0.5
					c-0.2,0.2-0.5,0.4-0.9,0.5s-0.7,0.2-1.1,0.2c-0.8,0-1.5-0.2-1.9-0.7s-0.7-1.2-0.7-2c0-0.5,0.1-1,0.3-1.5c0.2-0.4,0.5-0.8,0.9-1
					s0.8-0.3,1.3-0.3c0.7,0,1.3,0.2,1.7,0.7s0.6,1.1,0.6,1.9v0.1C135.5,110.1,131.3,110.1,131.3,110.1z M132,108.4
					c-0.3,0.3-0.5,0.7-0.6,1.2h3.4c0-0.5-0.2-1-0.5-1.3s-0.7-0.4-1.1-0.4C132.7,107.9,132.3,108.1,132,108.4z"/>
				<path class="st2" d="M144.8,107.5l-1.9,5.4h-0.7l-1.6-4.5l-1.6,4.5h-0.7l-1.9-5.4h0.7l1.6,4.6l1.7-4.6h0.7l1.6,4.6l1.6-4.6
					H144.8z"/>
				<path class="st2" d="M149.7,112.6c-0.4-0.2-0.7-0.6-0.9-1s-0.3-0.9-0.3-1.5s0.1-1,0.3-1.5c0.2-0.4,0.5-0.7,0.9-1
					c0.4-0.2,0.8-0.3,1.3-0.3s0.9,0.1,1.3,0.3c0.4,0.2,0.7,0.6,0.9,1s0.3,0.9,0.3,1.5s-0.1,1-0.3,1.5c-0.2,0.4-0.5,0.7-0.9,1
					c-0.4,0.2-0.8,0.3-1.3,0.3C150.5,113,150.1,112.8,149.7,112.6z M152.3,111.8c0.3-0.4,0.5-0.9,0.5-1.6s-0.2-1.2-0.5-1.6
					s-0.7-0.6-1.3-0.6s-1,0.2-1.3,0.6s-0.5,0.9-0.5,1.6s0.2,1.3,0.5,1.6s0.7,0.6,1.3,0.6S152,112.2,152.3,111.8z"/>
				<path class="st2" d="M156.1,105.8c-0.2,0.2-0.2,0.5-0.2,0.9v0.8h1.4v0.5h-1.4v4.8h-0.7V108h-1v-0.5h1v-1c0-0.5,0.1-0.9,0.4-1.2
					s0.6-0.4,1.1-0.4c0.2,0,0.4,0,0.7,0.1v0.6c-0.2-0.1-0.4-0.1-0.5-0.1C156.5,105.6,156.2,105.6,156.1,105.8z"/>
				<path class="st2" d="M162.1,112.7c-0.5-0.2-0.9-0.4-1.2-0.8l0.3-0.5c0.4,0.3,0.8,0.6,1.1,0.7s0.9,0.2,1.4,0.2
					c0.6,0,1.1-0.1,1.5-0.4s0.5-0.6,0.5-1.1c0-0.3-0.1-0.5-0.3-0.7s-0.4-0.3-0.7-0.4s-0.6-0.2-1.1-0.3c-0.6-0.1-1.1-0.3-1.4-0.4
					c-0.4-0.1-0.7-0.3-0.9-0.6c-0.2-0.3-0.4-0.6-0.4-1.1c0-0.4,0.1-0.8,0.3-1.1s0.5-0.6,0.9-0.8c0.4-0.2,0.9-0.3,1.4-0.3
					s1,0.1,1.4,0.3c0.4,0.2,0.8,0.4,1.1,0.7l-0.3,0.5c-0.4-0.3-0.7-0.6-1.1-0.7c-0.4-0.1-0.8-0.2-1.2-0.2c-0.6,0-1.1,0.1-1.5,0.4
					s-0.5,0.7-0.5,1.1s0.2,0.7,0.5,0.9c0.3,0.2,0.8,0.4,1.4,0.5l0.3,0.1c0.6,0.1,1,0.3,1.4,0.4c0.3,0.1,0.6,0.3,0.9,0.6
					c0.2,0.3,0.4,0.6,0.4,1s-0.1,0.8-0.3,1.1c-0.2,0.3-0.5,0.6-0.9,0.7s-0.9,0.3-1.4,0.3C163.1,113,162.6,112.9,162.1,112.7z"/>
				<path class="st2" d="M168.2,110.1L168.2,110.1c0,0.8,0.2,1.3,0.5,1.7c0.3,0.4,0.8,0.6,1.4,0.6c0.6,0,1.2-0.2,1.8-0.7l0.3,0.5
					c-0.2,0.2-0.5,0.4-0.9,0.5s-0.7,0.2-1.1,0.2c-0.8,0-1.5-0.2-1.9-0.7s-0.7-1.2-0.7-2c0-0.5,0.1-1,0.3-1.5c0.2-0.4,0.5-0.8,0.9-1
					s0.8-0.3,1.3-0.3c0.7,0,1.3,0.2,1.7,0.7s0.6,1.1,0.6,1.9v0.1C172.4,110.1,168.2,110.1,168.2,110.1z M168.8,108.4
					c-0.3,0.3-0.5,0.7-0.6,1.2h3.4c0-0.5-0.2-1-0.5-1.3s-0.7-0.4-1.1-0.4C169.5,107.9,169.1,108.1,168.8,108.4z"/>
				<path class="st2" d="M174.5,112.6c-0.4-0.2-0.7-0.6-0.9-1s-0.3-0.9-0.3-1.4c0-0.6,0.1-1,0.3-1.5c0.2-0.4,0.5-0.8,0.9-1
					s0.8-0.3,1.3-0.3c0.4,0,0.7,0.1,1,0.2s0.6,0.3,0.8,0.5l-0.3,0.5c-0.3-0.2-0.5-0.4-0.8-0.5s-0.5-0.2-0.8-0.2
					c-0.6,0-1,0.2-1.4,0.6c-0.3,0.4-0.5,0.9-0.5,1.6s0.2,1.2,0.5,1.6s0.8,0.6,1.4,0.6c0.3,0,0.5-0.1,0.8-0.2s0.5-0.3,0.8-0.5
					l0.3,0.5c-0.2,0.2-0.5,0.4-0.9,0.5c-0.3,0.1-0.7,0.2-1,0.2C175.4,113,174.9,112.8,174.5,112.6z"/>
				<path class="st2" d="M183.3,107.5v5.4h-0.6v-1c-0.2,0.3-0.4,0.6-0.7,0.8c-0.3,0.2-0.7,0.3-1.1,0.3c-0.6,0-1.1-0.2-1.4-0.5
					s-0.5-0.9-0.5-1.6v-3.4h0.6v3.3c0,0.5,0.1,0.9,0.3,1.2s0.5,0.4,1,0.4s0.9-0.2,1.3-0.5c0.3-0.3,0.5-0.8,0.5-1.3v-3h0.6V107.5z"/>
				<path class="st2" d="M187.9,107.4v0.6c-0.1,0-0.3,0-0.5,0c-0.5,0-0.9,0.2-1.2,0.5s-0.4,0.8-0.4,1.2v3.1h-0.6V109
					c0-0.6,0-1.1-0.1-1.5h0.6l0.1,1c0.1-0.4,0.4-0.6,0.7-0.8c0.3-0.2,0.6-0.3,1-0.3C187.6,107.4,187.8,107.4,187.9,107.4z"/>
				<path class="st2" d="M189.7,105.3v0.8h-0.9v-0.8H189.7z M188.9,107.5h0.6v5.4h-0.6V107.5z"/>
				<path class="st2" d="M192.3,108v3.2c0,0.4,0.1,0.7,0.2,0.9c0.2,0.2,0.4,0.2,0.7,0.2c0.2,0,0.4,0,0.6-0.1v0.6
					c-0.2,0.1-0.5,0.1-0.7,0.1c-0.5,0-0.8-0.1-1.1-0.4s-0.4-0.7-0.4-1.2V108h-1.1v-0.5h1.1v-1.4l0.7-0.2v1.7h1.6v0.5L192.3,108
					L192.3,108z"/>
				<path class="st2" d="M199.7,107.5l-2.5,5.9c-0.2,0.6-0.6,1-0.9,1.3c-0.4,0.3-0.8,0.5-1.4,0.6l-0.1-0.5c0.5-0.1,0.9-0.3,1.2-0.5
					s0.5-0.5,0.7-0.9l0.2-0.5l-2.3-5.4h0.7l1.9,4.7l1.9-4.7H199.7z"/>
				<path class="st2" d="M208.6,110.8h-4.1l-0.9,2H203l3.3-7.6h0.6l3.3,7.6h-0.7L208.6,110.8z M208.4,110.3l-1.8-4.2l-1.8,4.2H208.4
					z"/>
				<path class="st2" d="M215.7,107.5v5.4h-0.6v-1c-0.2,0.3-0.4,0.6-0.7,0.8c-0.3,0.2-0.7,0.3-1.1,0.3c-0.6,0-1.1-0.2-1.4-0.5
					s-0.5-0.9-0.5-1.6v-3.4h0.6v3.3c0,0.5,0.1,0.9,0.3,1.2s0.5,0.4,1,0.4s0.9-0.2,1.3-0.5c0.3-0.3,0.5-0.8,0.5-1.3v-3h0.6V107.5z"/>
				<path class="st2" d="M218.4,108v3.2c0,0.4,0.1,0.7,0.2,0.9c0.2,0.2,0.4,0.2,0.7,0.2c0.2,0,0.4,0,0.6-0.1v0.6
					c-0.2,0.1-0.5,0.1-0.7,0.1c-0.5,0-0.8-0.1-1.1-0.4s-0.4-0.7-0.4-1.2V108h-1.1v-0.5h1.1v-1.4l0.7-0.2v1.7h1.6v0.5L218.4,108
					L218.4,108z"/>
				<path class="st2" d="M225.6,109.5v3.4H225v-3.4c0-0.5-0.1-0.9-0.3-1.2c-0.2-0.2-0.6-0.4-1-0.4c-0.5,0-1,0.2-1.3,0.5
					s-0.5,0.8-0.5,1.3v3.1h-0.6V105h0.6v3.4c0.2-0.3,0.4-0.6,0.7-0.8c0.3-0.2,0.7-0.3,1.1-0.3C225,107.4,225.6,108.1,225.6,109.5z"
					/>
				<path class="st2" d="M228.3,112.6c-0.4-0.2-0.7-0.6-0.9-1s-0.3-0.9-0.3-1.5s0.1-1,0.3-1.5c0.2-0.4,0.5-0.7,0.9-1
					c0.4-0.2,0.8-0.3,1.3-0.3s0.9,0.1,1.3,0.3c0.4,0.2,0.7,0.6,0.9,1s0.3,0.9,0.3,1.5s-0.1,1-0.3,1.5c-0.2,0.4-0.5,0.7-0.9,1
					c-0.4,0.2-0.8,0.3-1.3,0.3C229.1,113,228.6,112.8,228.3,112.6z M230.9,111.8c0.3-0.4,0.5-0.9,0.5-1.6s-0.2-1.2-0.5-1.6
					s-0.7-0.6-1.3-0.6s-1,0.2-1.3,0.6s-0.5,0.9-0.5,1.6s0.2,1.3,0.5,1.6s0.7,0.6,1.3,0.6S230.6,112.2,230.9,111.8z"/>
				<path class="st2" d="M236.3,107.4v0.6c-0.1,0-0.3,0-0.5,0c-0.5,0-0.9,0.2-1.2,0.5s-0.4,0.8-0.4,1.2v3.1h-0.6V109
					c0-0.6,0-1.1-0.1-1.5h0.6l0.1,1c0.1-0.4,0.4-0.6,0.7-0.8c0.3-0.2,0.6-0.3,1-0.3C236,107.4,236.1,107.4,236.3,107.4z"/>
				<path class="st2" d="M238.1,105.3v0.8h-0.9v-0.8H238.1z M237.3,107.5h0.6v5.4h-0.6V107.5z"/>
				<path class="st2" d="M243.9,112.3v0.5h-4.5v-0.4l3.6-4.4h-3.4v-0.5h4.2v0.5l-3.5,4.3H243.9z"/>
				<path class="st2" d="M249.8,107.5v5.4h-0.7v-1c-0.2,0.4-0.4,0.6-0.7,0.8c-0.3,0.2-0.7,0.3-1.1,0.3c-0.5,0-0.9-0.1-1.3-0.3
					c-0.4-0.2-0.6-0.5-0.8-1c-0.2-0.4-0.3-0.9-0.3-1.5s0.1-1,0.3-1.5c0.2-0.4,0.5-0.8,0.8-1c0.4-0.2,0.8-0.3,1.2-0.3
					s0.8,0.1,1.1,0.3c0.3,0.2,0.6,0.5,0.7,0.8v-1C249,107.5,249.8,107.5,249.8,107.5z M248.7,111.8c0.3-0.4,0.5-0.9,0.5-1.6
					s-0.2-1.3-0.5-1.6c-0.3-0.4-0.7-0.6-1.3-0.6s-1,0.2-1.3,0.6s-0.5,0.9-0.5,1.6s0.2,1.2,0.5,1.6s0.8,0.6,1.3,0.6
					S248.4,112.2,248.7,111.8z"/>
				<path class="st2" d="M252.5,108v3.2c0,0.4,0.1,0.7,0.2,0.9c0.2,0.2,0.4,0.2,0.7,0.2c0.2,0,0.4,0,0.6-0.1v0.6
					c-0.2,0.1-0.5,0.1-0.7,0.1c-0.5,0-0.8-0.1-1.1-0.4s-0.4-0.7-0.4-1.2V108h-1.1v-0.5h1.1v-1.4l0.7-0.2v1.7h1.6v0.5L252.5,108
					L252.5,108z"/>
				<path class="st2" d="M256,105.3v0.8h-0.9v-0.8H256z M255.3,107.5h0.6v5.4h-0.6V107.5z"/>
				<path class="st2" d="M258.6,112.6c-0.4-0.2-0.7-0.6-0.9-1c-0.2-0.4-0.3-0.9-0.3-1.5s0.1-1,0.3-1.5c0.2-0.4,0.5-0.7,0.9-1
					c0.4-0.2,0.8-0.3,1.3-0.3s0.9,0.1,1.3,0.3c0.4,0.2,0.7,0.6,0.9,1s0.3,0.9,0.3,1.5s-0.1,1-0.3,1.5c-0.2,0.4-0.5,0.7-0.9,1
					c-0.4,0.2-0.8,0.3-1.3,0.3C259.4,113,259,112.8,258.6,112.6z M261.2,111.8c0.3-0.4,0.5-0.9,0.5-1.6s-0.2-1.2-0.5-1.6
					s-0.7-0.6-1.3-0.6c-0.6,0-1,0.2-1.3,0.6s-0.5,0.9-0.5,1.6s0.2,1.3,0.5,1.6s0.7,0.6,1.3,0.6S260.9,112.2,261.2,111.8z"/>
				<path class="st2" d="M268.2,109.5v3.4h-0.7v-3.4c0-0.5-0.1-0.9-0.3-1.2c-0.2-0.2-0.6-0.4-1-0.4c-0.5,0-1,0.2-1.3,0.5
					s-0.5,0.8-0.5,1.3v3.1h-0.6V109c0-0.6,0-1.1-0.1-1.5h0.6l0.1,1c0.2-0.4,0.4-0.6,0.7-0.8c0.3-0.2,0.7-0.3,1.1-0.3
					C267.6,107.4,268.2,108.1,268.2,109.5z"/>
				<path class="st2" d="M69.6,118.6h2.9c0.8,0,1.4,0.2,1.8,0.6s0.7,0.9,0.7,1.5c0,0.7-0.2,1.2-0.7,1.5c-0.4,0.4-1,0.6-1.8,0.6h-2.3
					v3.4h-0.7L69.6,118.6L69.6,118.6z M72.5,122.2c0.6,0,1.1-0.1,1.4-0.4s0.5-0.6,0.5-1.1s-0.2-0.9-0.5-1.1s-0.8-0.4-1.4-0.4h-2.2v3
					H72.5z"/>
				<path class="st2" d="M80.9,120.9v5.4h-0.7v-1c-0.2,0.4-0.4,0.6-0.7,0.8c-0.3,0.2-0.7,0.3-1.1,0.3c-0.5,0-0.9-0.1-1.3-0.3
					c-0.4-0.2-0.6-0.5-0.8-1c-0.2-0.4-0.3-0.9-0.3-1.5s0.1-1,0.3-1.5c0.2-0.4,0.5-0.8,0.8-1c0.4-0.2,0.8-0.3,1.2-0.3
					c0.4,0,0.8,0.1,1.1,0.3c0.3,0.2,0.6,0.5,0.7,0.8v-1C80.1,120.9,80.9,120.9,80.9,120.9z M79.7,125.2c0.3-0.4,0.5-0.9,0.5-1.6
					s-0.2-1.3-0.5-1.6c-0.3-0.4-0.7-0.6-1.3-0.6c-0.6,0-1,0.2-1.3,0.6s-0.5,0.9-0.5,1.6s0.2,1.2,0.5,1.6s0.8,0.6,1.3,0.6
					C79,125.7,79.4,125.6,79.7,125.2z"/>
				<path class="st2" d="M83.5,126c-0.4-0.2-0.7-0.6-0.9-1c-0.2-0.4-0.3-0.9-0.3-1.4c0-0.6,0.1-1,0.3-1.5c0.2-0.4,0.5-0.8,0.9-1
					s0.8-0.3,1.3-0.3c0.4,0,0.7,0.1,1,0.2s0.6,0.3,0.8,0.5l-0.3,0.5c-0.3-0.2-0.5-0.4-0.8-0.5s-0.5-0.2-0.8-0.2
					c-0.6,0-1,0.2-1.4,0.6c-0.3,0.4-0.5,0.9-0.5,1.6s0.2,1.2,0.5,1.6s0.8,0.6,1.4,0.6c0.3,0,0.5-0.1,0.8-0.2s0.5-0.3,0.8-0.5
					l0.3,0.5c-0.2,0.2-0.5,0.4-0.9,0.5c-0.3,0.1-0.7,0.2-1,0.2C84.3,126.3,83.9,126.2,83.5,126z"/>
				<path class="st2" d="M91.6,126.2l-3-2.6v2.6H88v-7.9h0.6v5l2.7-2.5h0.8l-2.8,2.6l3.1,2.8H91.6z"/>
				<path class="st2" d="M97.8,120.9v5.4h-0.7v-1c-0.2,0.4-0.4,0.6-0.7,0.8c-0.3,0.2-0.7,0.3-1.1,0.3c-0.5,0-0.9-0.1-1.3-0.3
					c-0.4-0.2-0.6-0.5-0.8-1c-0.2-0.4-0.3-0.9-0.3-1.5s0.1-1,0.3-1.5c0.2-0.4,0.5-0.8,0.8-1c0.4-0.2,0.8-0.3,1.2-0.3
					c0.4,0,0.8,0.1,1.1,0.3c0.3,0.2,0.6,0.5,0.7,0.8v-1C97,120.9,97.8,120.9,97.8,120.9z M96.7,125.2c0.3-0.4,0.5-0.9,0.5-1.6
					s-0.2-1.3-0.5-1.6c-0.3-0.4-0.7-0.6-1.3-0.6c-0.6,0-1,0.2-1.3,0.6s-0.5,0.9-0.5,1.6s0.2,1.2,0.5,1.6s0.8,0.6,1.3,0.6
					C95.9,125.7,96.4,125.6,96.7,125.2z"/>
				<path class="st2" d="M104.2,120.9v5.4c0,0.8-0.2,1.4-0.6,1.8c-0.4,0.4-1,0.6-1.7,0.6c-0.8,0-1.5-0.2-2.1-0.6l0.1-0.6
					c0.3,0.2,0.7,0.4,1,0.4c0.3,0.1,0.6,0.1,1,0.1c0.5,0,0.9-0.1,1.2-0.4c0.3-0.3,0.4-0.7,0.4-1.3V125c-0.2,0.4-0.4,0.6-0.7,0.8
					c-0.3,0.2-0.7,0.3-1.2,0.3s-0.9-0.1-1.3-0.3s-0.6-0.5-0.9-0.9c-0.2-0.4-0.3-0.9-0.3-1.4s0.1-1,0.3-1.4c0.2-0.4,0.5-0.7,0.9-0.9
					s0.8-0.3,1.3-0.3c0.4,0,0.8,0.1,1.1,0.3c0.3,0.2,0.6,0.5,0.7,0.8v-1L104.2,120.9L104.2,120.9z M103.1,124.9
					c0.3-0.4,0.5-0.9,0.5-1.5s-0.2-1.2-0.5-1.5s-0.8-0.6-1.3-0.6c-0.6,0-1,0.2-1.3,0.6s-0.5,0.9-0.5,1.5s0.2,1.2,0.5,1.5
					s0.8,0.6,1.3,0.6C102.3,125.5,102.8,125.3,103.1,124.9z"/>
				<path class="st2" d="M106.4,123.5L106.4,123.5c0,0.8,0.2,1.3,0.5,1.7c0.3,0.4,0.8,0.6,1.4,0.6s1.2-0.2,1.8-0.7l0.3,0.5
					c-0.2,0.2-0.5,0.4-0.9,0.5s-0.7,0.2-1.1,0.2c-0.8,0-1.5-0.2-1.9-0.7s-0.7-1.2-0.7-2c0-0.5,0.1-1,0.3-1.5c0.2-0.4,0.5-0.8,0.9-1
					s0.8-0.3,1.3-0.3c0.7,0,1.3,0.2,1.7,0.7c0.4,0.5,0.6,1.1,0.6,1.9v0.1C110.6,123.5,106.4,123.5,106.4,123.5z M107,121.7
					c-0.3,0.3-0.5,0.7-0.6,1.2h3.4c0-0.5-0.2-1-0.5-1.3s-0.7-0.4-1.1-0.4C107.7,121.3,107.3,121.4,107,121.7z"/>
				<g>
					<path class="st1" d="M50.4,145.1c-0.3-0.2-0.5-0.4-0.7-0.7s-0.3-0.6-0.3-1c0-0.3,0.1-0.6,0.3-0.9c0.2-0.3,0.4-0.5,0.7-0.7
						s0.6-0.3,1-0.3c0.3,0,0.7,0.1,1,0.3s0.5,0.4,0.7,0.7s0.3,0.6,0.3,1c0,0.3-0.1,0.7-0.3,1s-0.4,0.5-0.7,0.7s-0.6,0.3-1,0.3
						C51.1,145.3,50.7,145.3,50.4,145.1z"/>
					<path class="st1" d="M51.4,145.5c-0.4,0-0.7-0.1-1-0.3l0,0c-0.3-0.2-0.6-0.4-0.8-0.7s-0.3-0.7-0.3-1s0.1-0.7,0.3-1
						s0.4-0.6,0.8-0.8c0.6-0.4,1.4-0.4,2.1,0c0.3,0.2,0.6,0.4,0.8,0.7s0.3,0.7,0.3,1c0,0.4-0.1,0.7-0.3,1s-0.4,0.6-0.8,0.7
						C52.1,145.4,51.8,145.5,51.4,145.5z M50.5,145c0.6,0.3,1.3,0.3,1.8,0c0.3-0.2,0.5-0.4,0.7-0.7s0.2-0.6,0.2-0.9
						c0-0.3-0.1-0.6-0.2-0.9c-0.2-0.3-0.4-0.5-0.7-0.6c-0.6-0.3-1.3-0.3-1.8,0c-0.3,0.2-0.5,0.4-0.7,0.7s-0.2,0.6-0.2,0.9
						c0,0.3,0.1,0.6,0.2,0.9C50,144.6,50.2,144.8,50.5,145L50.5,145z"/>
				</g>
				<path class="st2" d="M70.4,146.1c-0.5-0.2-0.9-0.4-1.2-0.8l0.3-0.5c0.4,0.3,0.8,0.6,1.1,0.7s0.9,0.2,1.4,0.2
					c0.6,0,1.1-0.1,1.5-0.4c0.4-0.3,0.5-0.6,0.5-1.1c0-0.3-0.1-0.5-0.3-0.7s-0.4-0.3-0.7-0.4c-0.3-0.1-0.6-0.2-1.1-0.3
					c-0.6-0.1-1.1-0.3-1.4-0.4c-0.4-0.1-0.7-0.3-0.9-0.6c-0.2-0.3-0.4-0.6-0.4-1.1c0-0.4,0.1-0.8,0.3-1.1s0.5-0.6,0.9-0.8
					s0.9-0.3,1.4-0.3s1,0.1,1.4,0.3s0.8,0.4,1.1,0.7L74,140c-0.4-0.3-0.7-0.6-1.1-0.7c-0.4-0.1-0.8-0.2-1.2-0.2
					c-0.6,0-1.1,0.1-1.5,0.4c-0.4,0.3-0.5,0.7-0.5,1.1c0,0.4,0.2,0.7,0.5,0.9s0.8,0.4,1.4,0.5l0.3,0.1c0.6,0.1,1,0.3,1.4,0.4
					c0.3,0.1,0.6,0.3,0.9,0.6c0.2,0.3,0.4,0.6,0.4,1s-0.1,0.8-0.3,1.1c-0.2,0.3-0.5,0.6-0.9,0.7s-0.9,0.3-1.4,0.3
					C71.4,146.4,70.9,146.3,70.4,146.1z"/>
				<path class="st2" d="M81.2,144.3h-4.1l-0.9,2h-0.7l3.3-7.6h0.6l3.3,7.6H82L81.2,144.3z M80.9,143.7l-1.8-4.2l-1.8,4.2H80.9z"/>
				<path class="st2" d="M89.9,146.3h-0.7l-1-2.5c-0.1-0.3-0.3-0.6-0.5-0.7c-0.2-0.1-0.5-0.2-0.9-0.2h-2.1v3.4H84v-7.6h3
					c0.8,0,1.4,0.2,1.8,0.5c0.4,0.4,0.7,0.9,0.7,1.5c0,0.5-0.1,0.9-0.4,1.2s-0.6,0.6-1.1,0.7c0.2,0,0.4,0.1,0.6,0.3
					c0.2,0.1,0.3,0.4,0.4,0.7L89.9,146.3z M86.9,142.3c1.2,0,1.9-0.5,1.9-1.6c0-1-0.6-1.5-1.9-1.5h-2.2v3.1H86.9z"/>
				<path class="st2" d="M94.2,138.7h2.4c1.2,0,2.1,0.3,2.8,1s1,1.6,1,2.8s-0.3,2.2-1,2.8s-1.6,1-2.8,1h-2.4V138.7z M96.7,145.7
					c1,0,1.8-0.3,2.3-0.8s0.8-1.4,0.8-2.4c0-2.1-1-3.2-3.1-3.2h-1.8v6.5h1.8V145.7z"/>
				<path class="st2" d="M102.4,143.5L102.4,143.5c0,0.8,0.2,1.3,0.5,1.7s0.8,0.6,1.4,0.6s1.2-0.2,1.8-0.7l0.3,0.5
					c-0.2,0.2-0.5,0.4-0.9,0.5s-0.7,0.2-1.1,0.2c-0.8,0-1.5-0.2-1.9-0.7s-0.7-1.2-0.7-2c0-0.5,0.1-1,0.3-1.5c0.2-0.4,0.5-0.8,0.9-1
					s0.8-0.3,1.3-0.3c0.7,0,1.3,0.2,1.7,0.7c0.4,0.5,0.6,1.1,0.6,1.9v0.1H102.4z M103.1,141.8c-0.3,0.3-0.5,0.7-0.6,1.2h3.4
					c0-0.5-0.2-1-0.5-1.3s-0.7-0.4-1.1-0.4C103.8,141.3,103.4,141.5,103.1,141.8z"/>
				<path class="st2" d="M111.7,141.2c0.4,0.2,0.6,0.5,0.8,1c0.2,0.4,0.3,0.9,0.3,1.5s-0.1,1-0.3,1.5c-0.2,0.4-0.5,0.8-0.8,1
					c-0.4,0.2-0.8,0.3-1.2,0.3c-0.4,0-0.8-0.1-1.1-0.3c-0.3-0.2-0.6-0.5-0.7-0.8v1H108v-7.9h0.6v3.5c0.2-0.4,0.4-0.7,0.7-0.8
					s0.7-0.3,1.1-0.3C110.9,140.8,111.4,140.9,111.7,141.2z M111.7,145.2c0.3-0.4,0.5-0.9,0.5-1.6c0-0.7-0.2-1.2-0.5-1.6
					c-0.3-0.4-0.8-0.6-1.3-0.6c-0.6,0-1,0.2-1.3,0.6c-0.3,0.4-0.5,0.9-0.5,1.6s0.2,1.2,0.5,1.6c0.3,0.4,0.7,0.6,1.3,0.6
					C110.9,145.8,111.4,145.6,111.7,145.2z"/>
				<path class="st2" d="M117.1,140.9v0.6c-0.1,0-0.3,0-0.5,0c-0.5,0-0.9,0.2-1.2,0.5c-0.3,0.3-0.4,0.8-0.4,1.2v3.1h-0.6v-3.9
					c0-0.6,0-1.1-0.1-1.5h0.6l0.1,1c0.1-0.4,0.4-0.6,0.7-0.8c0.3-0.2,0.6-0.3,1-0.3C116.8,140.8,117,140.8,117.1,140.9z"/>
				<path class="st2" d="M118.9,138.7v0.8H118v-0.8H118.9z M118.1,140.9h0.6v5.4h-0.6V140.9z"/>
				<path class="st2" d="M121,143.5L121,143.5c0,0.8,0.2,1.3,0.5,1.7s0.8,0.6,1.4,0.6s1.2-0.2,1.8-0.7l0.3,0.5
					c-0.2,0.2-0.5,0.4-0.9,0.5s-0.7,0.2-1.1,0.2c-0.8,0-1.5-0.2-1.9-0.7s-0.7-1.2-0.7-2c0-0.5,0.1-1,0.3-1.5c0.2-0.4,0.5-0.8,0.9-1
					s0.8-0.3,1.3-0.3c0.7,0,1.3,0.2,1.7,0.7c0.4,0.5,0.6,1.1,0.6,1.9v0.1H121z M121.6,141.8c-0.3,0.3-0.5,0.7-0.6,1.2h3.4
					c0-0.5-0.2-1-0.5-1.3s-0.7-0.4-1.1-0.4C122.3,141.3,121.9,141.5,121.6,141.8z"/>
				<path class="st2" d="M127.6,139.2c-0.2,0.2-0.2,0.5-0.2,0.9v0.8h1.4v0.5h-1.4v4.8h-0.7v-4.8h-1v-0.5h1v-1c0-0.5,0.1-0.9,0.4-1.2
					s0.6-0.4,1.1-0.4c0.2,0,0.4,0,0.7,0.1v0.6c-0.2-0.1-0.4-0.1-0.5-0.1C128,139,127.8,139.1,127.6,139.2z"/>
				<path class="st2" d="M105.2,158.8v0.8h-0.9v-0.8H105.2z"/>
				<path class="st2" d="M117.7,158.8v0.8h-0.9v-0.8H117.7z"/>
			</g>
		</g>
	</g>
	<g>
		<polygon class="st1" points="10,173.1 0,160 10,160 		"/>
		<polygon class="st1" points="310,173.1 320,160 310,160 		"/>
		<rect x="10" y="157.5" class="st3" width="300" height="15.3"/>
	</g>
	<g>
		<rect y="89.3" class="st4" width="320" height="70.4"/>
		<g>
			<g>
				<path class="st2" d="M54.9,120.9c-0.6-0.2-1-0.5-1.5-0.9l0.3-0.6c0.5,0.4,0.9,0.7,1.4,0.9c0.5,0.2,1,0.3,1.7,0.3
					c0.8,0,1.4-0.2,1.8-0.5s0.6-0.8,0.6-1.3c0-0.3-0.1-0.6-0.3-0.8c-0.2-0.2-0.5-0.4-0.8-0.5s-0.8-0.2-1.3-0.4
					c-0.7-0.2-1.3-0.3-1.7-0.5s-0.8-0.4-1.1-0.8c-0.3-0.3-0.5-0.8-0.5-1.3s0.1-1,0.4-1.4c0.3-0.4,0.6-0.7,1.1-0.9
					c0.5-0.2,1.1-0.3,1.7-0.3c0.6,0,1.2,0.1,1.7,0.3c0.5,0.2,1,0.5,1.4,0.9l-0.3,0.6c-0.4-0.4-0.9-0.7-1.3-0.9s-0.9-0.3-1.5-0.3
					c-0.8,0-1.4,0.2-1.8,0.5c-0.4,0.3-0.7,0.8-0.7,1.4c0,0.5,0.2,0.9,0.6,1.1c0.4,0.2,0.9,0.5,1.7,0.6l0.4,0.1
					c0.7,0.2,1.2,0.3,1.6,0.5s0.7,0.4,1,0.7s0.4,0.7,0.4,1.2s-0.1,0.9-0.4,1.3c-0.3,0.4-0.6,0.7-1.1,0.9s-1.1,0.3-1.7,0.3
					C56.1,121.2,55.5,121.1,54.9,120.9z"/>
				<path class="st2" d="M62.3,117.7L62.3,117.7c0,0.9,0.2,1.6,0.6,2s1,0.7,1.8,0.7c0.8,0,1.5-0.3,2.1-0.8l0.3,0.6
					c-0.3,0.3-0.6,0.5-1.1,0.6s-0.9,0.2-1.4,0.2c-1,0-1.8-0.3-2.3-0.9s-0.9-1.4-0.9-2.5c0-0.7,0.1-1.2,0.4-1.8
					c0.3-0.5,0.6-0.9,1.1-1.2c0.5-0.3,1-0.4,1.6-0.4c0.9,0,1.5,0.3,2,0.8s0.7,1.3,0.7,2.3v0.2h-4.9V117.7z M63,115.6
					c-0.4,0.4-0.6,0.9-0.7,1.5h4.1c-0.1-0.7-0.2-1.2-0.6-1.5c-0.3-0.3-0.8-0.5-1.4-0.5C63.9,115.1,63.4,115.3,63,115.6z"/>
				<path class="st2" d="M69.9,120.7c-0.5-0.3-0.8-0.7-1.1-1.2c-0.2-0.5-0.4-1.1-0.4-1.8c0-0.7,0.1-1.3,0.4-1.8
					c0.2-0.5,0.6-0.9,1.1-1.2c0.5-0.3,1-0.4,1.6-0.4c0.4,0,0.9,0.1,1.3,0.2s0.7,0.4,1,0.6l-0.3,0.6c-0.3-0.3-0.7-0.5-1-0.6
					s-0.6-0.2-0.9-0.2c-0.7,0-1.2,0.2-1.7,0.7c-0.4,0.5-0.6,1.1-0.6,2c0,0.8,0.2,1.5,0.6,1.9s1,0.7,1.7,0.7c0.3,0,0.6-0.1,0.9-0.2
					s0.6-0.3,1-0.6l0.3,0.6c-0.3,0.3-0.6,0.5-1,0.6c-0.4,0.2-0.8,0.2-1.2,0.2C70.9,121.2,70.4,121,69.9,120.7z"/>
				<path class="st2" d="M80.5,114.6v6.5h-0.8v-1.2c-0.2,0.4-0.5,0.7-0.9,0.9c-0.4,0.2-0.8,0.3-1.3,0.3c-0.8,0-1.3-0.2-1.7-0.6
					c-0.4-0.4-0.6-1-0.6-1.9v-4.1H76v4c0,0.6,0.1,1.1,0.4,1.4s0.7,0.5,1.2,0.5c0.6,0,1.1-0.2,1.5-0.6s0.6-0.9,0.6-1.6v-3.7
					L80.5,114.6L80.5,114.6z"/>
				<path class="st2" d="M86.1,114.5v0.7c-0.2,0-0.4-0.1-0.6-0.1c-0.7,0-1.1,0.2-1.5,0.6c-0.3,0.4-0.5,0.9-0.5,1.5v3.8h-0.8v-4.7
					c0-0.7,0-1.3-0.1-1.8h0.7l0.1,1.2c0.2-0.4,0.4-0.8,0.8-1s0.8-0.3,1.2-0.3C85.7,114.4,85.9,114.5,86.1,114.5z"/>
				<path class="st2" d="M88.2,111.9v1h-1v-1H88.2z M87.3,114.6h0.8v6.5h-0.8V114.6z"/>
				<path class="st2" d="M91.4,115.2v3.8c0,0.5,0.1,0.9,0.3,1.1c0.2,0.2,0.5,0.3,0.9,0.3c0.2,0,0.5,0,0.7-0.1v0.7
					c-0.3,0.1-0.6,0.1-0.8,0.1c-0.6,0-1-0.2-1.3-0.5s-0.5-0.8-0.5-1.4v-4h-1.3v-0.6h1.3v-1.7l0.8-0.3v2h1.9v0.6H91.4z"/>
				<path class="st2" d="M100.3,114.6l-3,7.1c-0.3,0.7-0.7,1.2-1.1,1.6c-0.5,0.3-1,0.6-1.7,0.7l-0.2-0.6c0.6-0.1,1.1-0.3,1.4-0.6
					s0.6-0.6,0.8-1.1l0.3-0.6l-2.8-6.5h0.8l2.3,5.7l2.4-5.7H100.3z"/>
				<path class="st2" d="M111.1,118.6h-5l-1.1,2.5h-0.8l4-9.2h0.7l4,9.2h-0.8L111.1,118.6z M110.8,117.9l-2.2-5.1l-2.2,5.1H110.8z"
					/>
				<path class="st2" d="M119.7,114.6v6.5h-0.8v-1.2c-0.2,0.4-0.5,0.7-0.9,0.9c-0.4,0.2-0.8,0.3-1.3,0.3c-0.8,0-1.3-0.2-1.7-0.6
					c-0.4-0.4-0.6-1-0.6-1.9v-4.1h0.8v4c0,0.6,0.1,1.1,0.4,1.4s0.7,0.5,1.2,0.5c0.6,0,1.1-0.2,1.5-0.6s0.6-0.9,0.6-1.6v-3.7
					L119.7,114.6L119.7,114.6z"/>
				<path class="st2" d="M123,115.2v3.8c0,0.5,0.1,0.9,0.3,1.1c0.2,0.2,0.5,0.3,0.9,0.3c0.2,0,0.5,0,0.7-0.1v0.7
					c-0.3,0.1-0.6,0.1-0.8,0.1c-0.6,0-1-0.2-1.3-0.5s-0.5-0.8-0.5-1.4v-4H121v-0.6h1.3v-1.7l0.8-0.3v2h1.9v0.6H123z"/>
				<path class="st2" d="M131.6,117v4.1h-0.8V117c0-0.6-0.1-1.1-0.4-1.4c-0.3-0.3-0.7-0.5-1.2-0.5c-0.6,0-1.2,0.2-1.6,0.6
					s-0.6,0.9-0.6,1.6v3.7h-0.8v-9.5h0.8v4.2c0.2-0.4,0.5-0.7,0.9-1c0.4-0.2,0.8-0.3,1.3-0.3C130.8,114.4,131.6,115.3,131.6,117z"/>
				<path class="st2" d="M134.8,120.7c-0.5-0.3-0.8-0.7-1-1.2s-0.4-1.1-0.4-1.8s0.1-1.3,0.4-1.8c0.2-0.5,0.6-0.9,1-1.2
					c0.5-0.3,1-0.4,1.6-0.4s1.1,0.1,1.5,0.4s0.8,0.7,1,1.2s0.4,1.1,0.4,1.8s-0.1,1.3-0.4,1.8c-0.2,0.5-0.6,0.9-1,1.2
					c-0.4,0.3-1,0.4-1.5,0.4C135.8,121.2,135.3,121,134.8,120.7z M138,119.8c0.4-0.5,0.6-1.1,0.6-2c0-0.8-0.2-1.5-0.6-2
					c-0.4-0.5-0.9-0.7-1.6-0.7c-0.7,0-1.2,0.2-1.6,0.7c-0.4,0.5-0.6,1.1-0.6,2s0.2,1.5,0.6,2c0.4,0.5,0.9,0.7,1.6,0.7
					S137.6,120.2,138,119.8z"/>
				<path class="st2" d="M144.5,114.5v0.7c-0.2,0-0.4-0.1-0.6-0.1c-0.7,0-1.1,0.2-1.5,0.6c-0.3,0.4-0.5,0.9-0.5,1.5v3.8h-0.8v-4.7
					c0-0.7,0-1.3-0.1-1.8h0.7l0.1,1.2c0.2-0.4,0.4-0.8,0.8-1s0.8-0.3,1.2-0.3C144.1,114.4,144.3,114.5,144.5,114.5z"/>
				<path class="st2" d="M146.6,111.9v1h-1v-1H146.6z M145.7,114.6h0.8v6.5h-0.8V114.6z"/>
				<path class="st2" d="M153.7,120.4v0.6h-5.4v-0.5l4.3-5.3h-4.1v-0.6h5.1v0.6l-4.2,5.2C149.4,120.4,153.7,120.4,153.7,120.4z"/>
				<path class="st2" d="M160.8,114.6v6.5H160v-1.2c-0.2,0.4-0.5,0.8-0.9,1s-0.8,0.3-1.4,0.3c-0.6,0-1.1-0.1-1.5-0.4s-0.8-0.7-1-1.2
					s-0.4-1.1-0.4-1.8c0-0.7,0.1-1.3,0.4-1.8c0.2-0.5,0.6-0.9,1-1.2c0.4-0.3,0.9-0.4,1.5-0.4c0.5,0,1,0.1,1.4,0.3
					c0.4,0.2,0.7,0.6,0.9,1v-1.2L160.8,114.6L160.8,114.6z M159.4,119.8c0.4-0.5,0.6-1.1,0.6-2s-0.2-1.5-0.6-2
					c-0.4-0.5-0.9-0.7-1.6-0.7s-1.2,0.2-1.6,0.7c-0.4,0.5-0.6,1.1-0.6,2c0,0.8,0.2,1.5,0.6,1.9c0.4,0.5,0.9,0.7,1.6,0.7
					C158.6,120.5,159.1,120.2,159.4,119.8z"/>
				<path class="st2" d="M164.1,115.2v3.8c0,0.5,0.1,0.9,0.3,1.1s0.5,0.3,0.9,0.3c0.2,0,0.5,0,0.7-0.1v0.7c-0.3,0.1-0.6,0.1-0.8,0.1
					c-0.6,0-1-0.2-1.3-0.5s-0.5-0.8-0.5-1.4v-4H162v-0.6h1.3v-1.7l0.8-0.3v2h1.9v0.6H164.1z"/>
				<path class="st2" d="M168.3,111.9v1h-1v-1H168.3z M167.4,114.6h0.8v6.5h-0.8V114.6z"/>
				<path class="st2" d="M171.4,120.7c-0.5-0.3-0.8-0.7-1-1.2s-0.4-1.1-0.4-1.8s0.1-1.3,0.4-1.8c0.2-0.5,0.6-0.9,1-1.2
					c0.5-0.3,1-0.4,1.6-0.4s1.1,0.1,1.5,0.4s0.8,0.7,1,1.2s0.4,1.1,0.4,1.8s-0.1,1.3-0.4,1.8c-0.2,0.5-0.6,0.9-1,1.2
					c-0.4,0.3-1,0.4-1.5,0.4C172.4,121.2,171.9,121,171.4,120.7z M174.6,119.8c0.4-0.5,0.6-1.1,0.6-2c0-0.8-0.2-1.5-0.6-2
					c-0.4-0.5-0.9-0.7-1.6-0.7c-0.7,0-1.2,0.2-1.6,0.7c-0.4,0.5-0.6,1.1-0.6,2s0.2,1.5,0.6,2c0.4,0.5,0.9,0.7,1.6,0.7
					C173.7,120.5,174.2,120.2,174.6,119.8z"/>
				<path class="st2" d="M183.1,117v4.1h-0.8V117c0-0.6-0.1-1.1-0.4-1.4c-0.3-0.3-0.7-0.5-1.2-0.5c-0.6,0-1.2,0.2-1.6,0.6
					c-0.4,0.4-0.6,0.9-0.6,1.6v3.7h-0.8v-4.7c0-0.7,0-1.3-0.1-1.8h0.7l0.1,1.2c0.2-0.4,0.5-0.8,0.9-1s0.9-0.3,1.4-0.3
					C182.3,114.4,183.1,115.3,183.1,117z"/>
				<path class="st2" d="M188.7,111.9h3.5c0.9,0,1.6,0.2,2.2,0.7c0.5,0.4,0.8,1.1,0.8,1.8c0,0.8-0.3,1.4-0.8,1.9s-1.3,0.7-2.2,0.7
					h-2.7v4.1h-0.8V111.9z M192.2,116.2c0.7,0,1.3-0.2,1.6-0.5c0.4-0.3,0.6-0.8,0.6-1.4s-0.2-1-0.6-1.4s-0.9-0.5-1.6-0.5h-2.7v3.7
					h2.7V116.2z"/>
				<path class="st2" d="M202.3,114.6v6.5h-0.8v-1.2c-0.2,0.4-0.5,0.8-0.9,1s-0.8,0.3-1.4,0.3c-0.6,0-1.1-0.1-1.5-0.4
					s-0.8-0.7-1-1.2s-0.4-1.1-0.4-1.8c0-0.7,0.1-1.3,0.4-1.8c0.2-0.5,0.6-0.9,1-1.2c0.4-0.3,0.9-0.4,1.5-0.4c0.5,0,1,0.1,1.4,0.3
					c0.4,0.2,0.7,0.6,0.9,1v-1.2L202.3,114.6L202.3,114.6z M201,119.8c0.4-0.5,0.6-1.1,0.6-2s-0.2-1.5-0.6-2
					c-0.4-0.5-0.9-0.7-1.6-0.7s-1.2,0.2-1.6,0.7c-0.4,0.5-0.6,1.1-0.6,2c0,0.8,0.2,1.5,0.6,1.9c0.4,0.5,0.9,0.7,1.6,0.7
					C200.1,120.5,200.6,120.2,201,119.8z"/>
				<path class="st2" d="M205.5,120.7c-0.5-0.3-0.8-0.7-1.1-1.2c-0.2-0.5-0.4-1.1-0.4-1.8c0-0.7,0.1-1.3,0.4-1.8
					c0.2-0.5,0.6-0.9,1.1-1.2c0.5-0.3,1-0.4,1.6-0.4c0.4,0,0.9,0.1,1.3,0.2s0.7,0.4,1,0.6l-0.3,0.6c-0.3-0.3-0.7-0.5-1-0.6
					s-0.6-0.2-0.9-0.2c-0.7,0-1.2,0.2-1.7,0.7c-0.4,0.5-0.6,1.1-0.6,2c0,0.8,0.2,1.5,0.6,1.9s1,0.7,1.7,0.7c0.3,0,0.6-0.1,0.9-0.2
					c0.3-0.1,0.6-0.3,1-0.6l0.3,0.6c-0.3,0.3-0.6,0.5-1,0.6c-0.4,0.2-0.8,0.2-1.2,0.2C206.5,121.2,206,121,205.5,120.7z"/>
				<path class="st2" d="M215.3,121.1l-3.6-3.2v3.2h-0.8v-9.5h0.8v6l3.3-3h1l-3.4,3.1l3.7,3.4H215.3z"/>
				<path class="st2" d="M222.8,114.6v6.5H222v-1.2c-0.2,0.4-0.5,0.8-0.9,1s-0.8,0.3-1.4,0.3c-0.6,0-1.1-0.1-1.5-0.4s-0.8-0.7-1-1.2
					s-0.4-1.1-0.4-1.8c0-0.7,0.1-1.3,0.4-1.8c0.2-0.5,0.6-0.9,1-1.2c0.4-0.3,0.9-0.4,1.5-0.4c0.5,0,1,0.1,1.4,0.3
					c0.4,0.2,0.7,0.6,0.9,1v-1.2L222.8,114.6L222.8,114.6z M221.4,119.8c0.4-0.5,0.6-1.1,0.6-2s-0.2-1.5-0.6-2
					c-0.4-0.5-0.9-0.7-1.6-0.7s-1.2,0.2-1.6,0.7c-0.4,0.5-0.6,1.1-0.6,2c0,0.8,0.2,1.5,0.6,1.9c0.4,0.5,0.9,0.7,1.6,0.7
					C220.5,120.5,221.1,120.2,221.4,119.8z"/>
				<path class="st2" d="M230.5,114.6v6.5c0,0.9-0.2,1.6-0.7,2.1s-1.1,0.7-2.1,0.7s-1.8-0.2-2.5-0.7l0.2-0.7
					c0.4,0.2,0.8,0.4,1.2,0.5s0.8,0.2,1.2,0.2c0.6,0,1.1-0.2,1.5-0.5c0.3-0.4,0.5-0.9,0.5-1.5v-1.7c-0.2,0.4-0.5,0.8-0.9,1
					s-0.9,0.4-1.4,0.4c-0.6,0-1.1-0.1-1.5-0.4s-0.8-0.7-1-1.1c-0.2-0.5-0.4-1-0.4-1.7c0-0.6,0.1-1.2,0.4-1.7c0.2-0.5,0.6-0.9,1-1.1
					c0.4-0.3,0.9-0.4,1.5-0.4c0.5,0,1,0.1,1.4,0.3c0.4,0.2,0.7,0.6,0.9,1v-1.2L230.5,114.6L230.5,114.6z M229.2,119.5
					c0.4-0.4,0.6-1.1,0.6-1.8c0-0.8-0.2-1.4-0.6-1.9s-0.9-0.7-1.6-0.7c-0.7,0-1.2,0.2-1.6,0.7c-0.4,0.5-0.6,1.1-0.6,1.9
					s0.2,1.4,0.6,1.8c0.4,0.4,0.9,0.7,1.6,0.7C228.2,120.2,228.8,119.9,229.2,119.5z"/>
				<path class="st2" d="M233.1,117.7L233.1,117.7c0,0.9,0.2,1.6,0.6,2s1,0.7,1.8,0.7s1.5-0.3,2.1-0.8l0.3,0.6
					c-0.3,0.3-0.6,0.5-1.1,0.6s-0.9,0.2-1.4,0.2c-1,0-1.8-0.3-2.3-0.9s-0.9-1.4-0.9-2.5c0-0.7,0.1-1.2,0.4-1.8
					c0.3-0.5,0.6-0.9,1.1-1.2c0.5-0.3,1-0.4,1.6-0.4c0.9,0,1.5,0.3,2,0.8s0.7,1.3,0.7,2.3v0.2h-4.9V117.7z M233.9,115.6
					c-0.4,0.4-0.6,0.9-0.7,1.5h4.1c-0.1-0.7-0.2-1.2-0.6-1.5c-0.3-0.3-0.8-0.5-1.4-0.5C234.7,115.1,234.3,115.3,233.9,115.6z"/>
				<path class="st2" d="M243.8,120.6c-0.2-0.9-0.3-1.9-0.3-2.9s0.1-2,0.3-2.9s0.6-1.9,1-2.9h0.7c-0.5,1-0.8,2-1,3
					c-0.2,0.9-0.3,1.9-0.3,2.8s0.1,1.9,0.3,2.8s0.5,1.9,1,3h-0.7C244.4,122.5,244,121.5,243.8,120.6z"/>
				<path class="st2" d="M248.2,120.9c-0.6-0.2-1-0.5-1.5-0.9l0.3-0.6c0.5,0.4,0.9,0.7,1.4,0.9c0.5,0.2,1,0.3,1.7,0.3
					c0.8,0,1.4-0.2,1.8-0.5s0.6-0.8,0.6-1.3c0-0.3-0.1-0.6-0.3-0.8c-0.2-0.2-0.5-0.4-0.8-0.5s-0.8-0.2-1.3-0.4
					c-0.7-0.2-1.3-0.3-1.7-0.5s-0.8-0.4-1.1-0.8c-0.3-0.3-0.5-0.8-0.5-1.3s0.1-1,0.4-1.4c0.3-0.4,0.6-0.7,1.1-0.9
					c0.5-0.2,1.1-0.3,1.7-0.3c0.6,0,1.2,0.1,1.7,0.3c0.5,0.2,1,0.5,1.4,0.9l-0.3,0.6c-0.4-0.4-0.9-0.7-1.3-0.9s-0.9-0.3-1.5-0.3
					c-0.8,0-1.4,0.2-1.8,0.5c-0.4,0.3-0.7,0.8-0.7,1.4c0,0.5,0.2,0.9,0.6,1.1c0.4,0.2,0.9,0.5,1.7,0.6l0.4,0.1
					c0.7,0.2,1.2,0.3,1.6,0.5s0.7,0.4,1,0.7s0.4,0.7,0.4,1.2s-0.1,0.9-0.4,1.3c-0.3,0.4-0.6,0.7-1.1,0.9s-1.1,0.3-1.7,0.3
					C249.3,121.2,248.7,121.1,248.2,120.9z"/>
				<path class="st2" d="M256.1,120.9c-0.6-0.2-1-0.5-1.5-0.9l0.3-0.6c0.5,0.4,0.9,0.7,1.4,0.9c0.5,0.2,1,0.3,1.7,0.3
					c0.8,0,1.4-0.2,1.8-0.5s0.6-0.8,0.6-1.3c0-0.3-0.1-0.6-0.3-0.8c-0.2-0.2-0.5-0.4-0.8-0.5s-0.8-0.2-1.3-0.4
					c-0.7-0.2-1.3-0.3-1.7-0.5c-0.4-0.2-0.8-0.4-1.1-0.8c-0.3-0.3-0.5-0.8-0.5-1.3s0.1-1,0.4-1.4c0.3-0.4,0.6-0.7,1.1-0.9
					c0.5-0.2,1.1-0.3,1.7-0.3s1.2,0.1,1.7,0.3c0.5,0.2,1,0.5,1.4,0.9l-0.3,0.6c-0.4-0.4-0.9-0.7-1.3-0.9s-0.9-0.3-1.5-0.3
					c-0.8,0-1.4,0.2-1.8,0.5s-0.7,0.8-0.7,1.4c0,0.5,0.2,0.9,0.6,1.1s0.9,0.5,1.7,0.6l0.4,0.1c0.7,0.2,1.2,0.3,1.6,0.5
					s0.7,0.4,1,0.7s0.4,0.7,0.4,1.2s-0.1,0.9-0.4,1.3s-0.6,0.7-1.1,0.9s-1.1,0.3-1.7,0.3C257.3,121.2,256.7,121.1,256.1,120.9z"/>
				<path class="st2" d="M263.2,111.9h3.5c0.9,0,1.6,0.2,2.2,0.7c0.5,0.4,0.8,1.1,0.8,1.8c0,0.8-0.3,1.4-0.8,1.9s-1.3,0.7-2.2,0.7
					H264v4.1h-0.8V111.9z M266.7,116.2c0.7,0,1.3-0.2,1.6-0.5c0.4-0.3,0.6-0.8,0.6-1.4s-0.2-1-0.6-1.4s-0.9-0.5-1.6-0.5H264v3.7h2.7
					V116.2z"/>
				<path class="st2" d="M271.7,119.9v0.8c0,0.3-0.1,0.6-0.2,0.9s-0.3,0.5-0.5,0.8l-0.4-0.3c0.3-0.3,0.5-0.7,0.5-1.1h-0.5v-1.1
					C270.6,119.9,271.7,119.9,271.7,119.9z"/>
				<path class="st2" d="M54.9,137c-0.6-0.2-1-0.5-1.5-0.9l0.3-0.6c0.5,0.4,0.9,0.7,1.4,0.9s1,0.3,1.7,0.3c0.8,0,1.4-0.2,1.8-0.5
					s0.6-0.8,0.6-1.3c0-0.3-0.1-0.6-0.3-0.8s-0.5-0.4-0.8-0.5s-0.8-0.2-1.3-0.4c-0.7-0.2-1.3-0.3-1.7-0.5s-0.8-0.4-1.1-0.8
					c-0.3-0.3-0.5-0.8-0.5-1.3s0.1-1,0.4-1.4c0.3-0.4,0.6-0.7,1.1-0.9s1.1-0.3,1.7-0.3c0.6,0,1.2,0.1,1.7,0.3s1,0.5,1.4,0.9
					l-0.3,0.6c-0.4-0.4-0.9-0.7-1.3-0.9s-0.9-0.3-1.5-0.3c-0.8,0-1.4,0.2-1.8,0.5c-0.4,0.3-0.7,0.8-0.7,1.4c0,0.5,0.2,0.9,0.6,1.1
					c0.4,0.2,0.9,0.5,1.7,0.6l0.4,0.1c0.7,0.2,1.2,0.3,1.6,0.5s0.7,0.4,1,0.7s0.4,0.7,0.4,1.2s-0.1,0.9-0.4,1.3
					c-0.3,0.4-0.6,0.7-1.1,0.9s-1.1,0.3-1.7,0.3C56.1,137.3,55.5,137.2,54.9,137z"/>
				<path class="st2" d="M67.9,134.8h-5l-1.1,2.5H61l4-9.2h0.7l4,9.2H69L67.9,134.8z M67.6,134.1l-2.2-5.1l-2.2,5.1H67.6z"/>
				<path class="st2" d="M71.4,128h3.5c0.9,0,1.6,0.2,2.2,0.7c0.5,0.4,0.8,1.1,0.8,1.8c0,0.8-0.3,1.4-0.8,1.9s-1.3,0.7-2.2,0.7h-2.7
					v4.1h-0.8V128z M74.9,132.4c0.7,0,1.3-0.2,1.6-0.5c0.4-0.3,0.6-0.8,0.6-1.4c0-0.6-0.2-1-0.6-1.4s-0.9-0.5-1.6-0.5h-2.7v3.7
					L74.9,132.4L74.9,132.4z"/>
				<path class="st2" d="M79.9,136.1v0.8c0,0.3-0.1,0.6-0.2,0.9c-0.1,0.3-0.3,0.5-0.5,0.8l-0.4-0.3c0.3-0.3,0.5-0.7,0.5-1.1h-0.5
					v-1.1L79.9,136.1L79.9,136.1z"/>
				<path class="st2" d="M86.4,137c-0.6-0.2-1-0.5-1.5-0.9l0.3-0.6c0.5,0.4,0.9,0.7,1.4,0.9s1,0.3,1.7,0.3c0.8,0,1.4-0.2,1.8-0.5
					s0.6-0.8,0.6-1.3c0-0.3-0.1-0.6-0.3-0.8c-0.2-0.2-0.5-0.4-0.8-0.5s-0.8-0.2-1.3-0.4c-0.7-0.2-1.3-0.3-1.7-0.5
					c-0.4-0.2-0.8-0.4-1.1-0.8c-0.3-0.3-0.5-0.8-0.5-1.3s0.1-1,0.4-1.4s0.6-0.7,1.1-0.9s1.1-0.3,1.7-0.3s1.2,0.1,1.7,0.3
					s1,0.5,1.4,0.9l-0.3,0.6c-0.4-0.4-0.9-0.7-1.3-0.9s-0.9-0.3-1.5-0.3c-0.8,0-1.4,0.2-1.8,0.5s-0.7,0.8-0.7,1.4
					c0,0.5,0.2,0.9,0.6,1.1c0.4,0.2,0.9,0.5,1.7,0.6l0.4,0.1c0.7,0.2,1.2,0.3,1.6,0.5s0.7,0.4,1,0.7s0.4,0.7,0.4,1.2
					s-0.1,0.9-0.4,1.3c-0.3,0.4-0.6,0.7-1.1,0.9s-1.1,0.3-1.7,0.3C87.5,137.3,86.9,137.2,86.4,137z"/>
				<path class="st2" d="M99.4,134.8h-5l-1.1,2.5h-0.8l4-9.2h0.7l4,9.2h-0.8L99.4,134.8z M99.1,134.1l-2.2-5.1l-2.2,5.1H99.1z"/>
				<path class="st2" d="M109.9,137.2h-0.8l-1.1-3.1c-0.1-0.4-0.3-0.7-0.6-0.8c-0.3-0.1-0.6-0.2-1.1-0.2h-2.6v4.1h-0.8V128h3.6
					c1,0,1.7,0.2,2.2,0.7c0.5,0.4,0.8,1.1,0.8,1.9c0,0.6-0.2,1.1-0.5,1.5s-0.8,0.7-1.3,0.9c0.3,0,0.5,0.2,0.7,0.3
					c0.2,0.2,0.3,0.4,0.5,0.8L109.9,137.2z M106.3,132.4c1.5,0,2.3-0.6,2.3-1.9c0-1.2-0.8-1.8-2.3-1.8h-2.7v3.7H106.3z"/>
				<path class="st2" d="M112.7,136.1v0.8c0,0.3-0.1,0.6-0.2,0.9c-0.1,0.3-0.3,0.5-0.5,0.8l-0.4-0.3c0.3-0.3,0.5-0.7,0.5-1.1h-0.5
					v-1.1L112.7,136.1L112.7,136.1z"/>
				<path class="st2" d="M118.2,128h3.5c0.9,0,1.6,0.2,2.2,0.7c0.5,0.4,0.8,1.1,0.8,1.8c0,0.8-0.3,1.4-0.8,1.9s-1.3,0.7-2.2,0.7H119
					v4.1h-0.8V128z M121.7,132.4c0.7,0,1.3-0.2,1.6-0.5c0.4-0.3,0.6-0.8,0.6-1.4c0-0.6-0.2-1-0.6-1.4s-0.9-0.5-1.6-0.5H119v3.7
					L121.7,132.4L121.7,132.4z"/>
				<path class="st2" d="M128,136.7c-0.6-0.4-1.1-0.9-1.4-1.6c-0.3-0.7-0.5-1.5-0.5-2.5s0.2-1.8,0.5-2.5s0.8-1.2,1.4-1.6
					c0.6-0.4,1.3-0.6,2.2-0.6s1.6,0.2,2.2,0.6c0.6,0.4,1.1,0.9,1.4,1.6c0.3,0.7,0.5,1.5,0.5,2.5s-0.2,1.8-0.5,2.5s-0.8,1.3-1.4,1.6
					s-1.3,0.6-2.2,0.6C129.4,137.3,128.6,137.1,128,136.7z M132.6,135.6c0.6-0.7,0.9-1.7,0.9-3s-0.3-2.3-0.9-2.9
					c-0.6-0.7-1.4-1-2.4-1s-1.8,0.3-2.4,1s-0.9,1.7-0.9,2.9s0.3,2.2,0.9,3c0.6,0.7,1.4,1.1,2.4,1.1S132,136.3,132.6,135.6z"/>
				<path class="st2" d="M142.2,134.8h-5l-1.1,2.5h-0.8l4-9.2h0.7l4,9.2h-0.8L142.2,134.8z M141.9,134.1l-2.2-5.1l-2.2,5.1H141.9z"
					/>
				<path class="st2" d="M153.1,136.8l-0.5,0.5c-0.7-0.4-1.3-0.8-1.8-1.3c-0.4,0.4-0.8,0.7-1.2,0.9c-0.5,0.2-1,0.3-1.5,0.3
					s-1.1-0.1-1.5-0.3s-0.8-0.5-1-0.8s-0.4-0.8-0.4-1.2c0-0.6,0.2-1.1,0.5-1.5s0.9-0.9,1.7-1.4c-0.4-0.5-0.7-0.9-0.9-1.2
					s-0.2-0.6-0.2-1c0-0.6,0.2-1.1,0.6-1.4c0.4-0.4,0.9-0.5,1.6-0.5c0.6,0,1.1,0.2,1.4,0.5c0.4,0.3,0.5,0.8,0.5,1.3
					c0,0.4-0.1,0.8-0.4,1.2c-0.3,0.3-0.8,0.8-1.5,1.3l2.3,2.7c0.4-0.8,0.6-1.8,0.7-3h0.7c0,1.4-0.3,2.6-0.9,3.6
					C151.8,136,152.4,136.4,153.1,136.8z M150.4,135.5l-2.5-3c-0.7,0.4-1.2,0.8-1.4,1.2c-0.3,0.4-0.4,0.7-0.4,1.2s0.2,0.9,0.6,1.2
					c0.4,0.3,0.9,0.5,1.5,0.5C149.1,136.6,149.8,136.3,150.4,135.5z M147.3,130.6c0.1,0.2,0.4,0.6,0.7,1c0.6-0.4,1-0.7,1.3-1
					c0.2-0.3,0.3-0.6,0.3-0.9c0-0.4-0.1-0.6-0.3-0.9c-0.2-0.2-0.5-0.3-0.9-0.3s-0.7,0.1-1,0.4c-0.2,0.2-0.4,0.5-0.4,0.9
					C147.1,130.1,147.2,130.4,147.3,130.6z"/>
				<path class="st2" d="M162.9,128v9.2h-0.7v-7.4l-3.2,7.4h-0.6l-3.3-7.3v7.3h-0.7V128h0.7l3.6,8.2l3.6-8.2H162.9z"/>
				<path class="st2" d="M164.6,139.6c0.4-1.1,0.8-2,1-3c0.2-0.9,0.3-1.9,0.3-2.8c0-0.9-0.1-1.9-0.3-2.8c-0.2-0.9-0.5-1.9-1-3h0.7
					c0.5,1,0.8,1.9,1,2.9c0.2,0.9,0.3,1.9,0.3,2.9s-0.1,2-0.3,2.9s-0.6,1.9-1.1,2.9L164.6,139.6L164.6,139.6z"/>
				<path class="st2" d="M169.3,132.1l1.3-1.7l-2-0.6l0.2-0.6l2,0.7l-0.1-2.1h0.6l-0.1,2.1l2-0.7l0.2,0.6l-2,0.6l1.3,1.7l-0.5,0.4
					l-1.2-1.7l-1.2,1.7L169.3,132.1z"/>
			</g>
		</g>
		<g>
			<g>
				<circle class="st1" cx="31.7" cy="118.7" r="9.8"/>
			</g>
			<g>
				<path class="st5" d="M33.8,116.1c-0.3,0-0.5-0.2-0.5-0.5v-3.2h-5c-0.7,0-1.3,0.6-1.3,1.3v10.2c0,0.7,0.6,1.3,1.3,1.3h7.4
					c0.7,0,1.3-0.6,1.3-1.3v-7.8H33.8z"/>
			</g>
			<path class="st6" d="M33.7,116.1H37l-3.7-3.7v3.2C33.3,115.9,33.5,116.1,33.7,116.1z"/>
			<polygon class="st4" points="37,118.7 37,116.1 33.8,116.1 			"/>
		</g>
	</g>
</g>
</svg>
