<svg xmlns="http://www.w3.org/2000/svg" width="199.6" height="44.2" viewBox="0 0 199.6 44.2">
  <g id="Group_4510" data-name="Group 4510" transform="translate(-0.6 -22.6)">
    <g id="Group_4508" data-name="Group 4508">
      <path id="Path_11431" data-name="Path 11431" d="M22.2,23.5,178.5,23a21.3,21.3,0,0,1,21.3,21.2v.5A21.3,21.3,0,0,1,178.6,66l-156.3.4A21.168,21.168,0,0,1,1,45.2v-.5A21.084,21.084,0,0,1,22.2,23.5Z" fill="#fff"/>
      <path id="Path_11432" data-name="Path 11432" d="M22.1,66.8A21.425,21.425,0,0,1,7,60.6,21.719,21.719,0,0,1,.6,45.2v-.5A21.237,21.237,0,0,1,6.8,29.5a21.547,21.547,0,0,1,15.4-6.4l156.3-.5a21.659,21.659,0,0,1,21.7,21.6v.5a21.659,21.659,0,0,1-21.6,21.7l-156.3.4Zm.1-42.9A20.961,20.961,0,0,0,7.3,30.1a20.554,20.554,0,0,0-6,14.7v.5a20.827,20.827,0,0,0,21,20.8l156.3-.4a20.87,20.87,0,0,0,20.8-20.9v-.5a20.87,20.87,0,0,0-20.9-20.8Z" fill="#1a4480"/>
    </g>
    <g id="Group_4509" data-name="Group 4509" style="isolation: isolate">
      <path id="Path_11433" data-name="Path 11433" d="M39.3,48H33.9l-1,2.5H30.2L35.3,39h2.6l5.2,11.5H40.3Zm-.9-2-1.8-4.4L34.8,46Z" fill="#1a4480"/>
      <path id="Path_11434" data-name="Path 11434" d="M53.2,41.6V49c0,3.3-1.8,4.8-5,4.8a7.606,7.606,0,0,1-4.4-1.2l1-1.8a5.455,5.455,0,0,0,3.1,1c1.8,0,2.6-.8,2.6-2.4V49a3.763,3.763,0,0,1-2.8,1.1,4.174,4.174,0,0,1-4.4-4.3,4.23,4.23,0,0,1,4.4-4.3,3.351,3.351,0,0,1,2.9,1.3V41.7h2.6Zm-2.6,4.2A2.3,2.3,0,1,0,48.3,48,2.182,2.182,0,0,0,50.6,45.8Z" fill="#1a4480"/>
      <path id="Path_11435" data-name="Path 11435" d="M64.2,46.8H57.5A2.342,2.342,0,0,0,60,48.6a2.94,2.94,0,0,0,2.2-.9l1.4,1.5a4.82,4.82,0,0,1-3.7,1.4c-3.1,0-5.1-1.9-5.1-4.6a4.492,4.492,0,0,1,4.7-4.6A4.355,4.355,0,0,1,64.1,46,1.185,1.185,0,0,1,64.2,46.8Zm-6.7-1.5h4.4a2.092,2.092,0,0,0-2.2-1.8A1.95,1.95,0,0,0,57.5,45.3Z" fill="#1a4480"/>
      <path id="Path_11436" data-name="Path 11436" d="M75.1,45.4v5.1H72.5V45.8c0-1.4-.7-2.1-1.8-2.1-1.2,0-2.1.8-2.1,2.4v4.4H66V41.6h2.5v1a3.7,3.7,0,0,1,2.9-1.2A3.6,3.6,0,0,1,75.1,45.4Z" fill="#1a4480"/>
      <path id="Path_11437" data-name="Path 11437" d="M76.8,46.1a4.6,4.6,0,0,1,4.9-4.6,4.087,4.087,0,0,1,4,2.3l-2,1.1a2.311,2.311,0,0,0-2-1.2,2.263,2.263,0,0,0-2.3,2.5,2.263,2.263,0,0,0,2.3,2.5,2.311,2.311,0,0,0,2-1.2l2,1.1a4.078,4.078,0,0,1-4,2.2C78.9,50.6,76.8,48.7,76.8,46.1Z" fill="#1a4480"/>
      <path id="Path_11438" data-name="Path 11438" d="M95.9,41.6l-4,9.4c-.9,2.1-2.1,2.8-3.7,2.8a4.147,4.147,0,0,1-2.5-.8l.9-1.8a2.529,2.529,0,0,0,1.5.6c.7,0,1.1-.3,1.5-1.1v-.1l-3.8-8.9h2.7l2.5,6,2.5-6h2.4Z" fill="#1a4480"/>
      <path id="Path_11439" data-name="Path 11439" d="M111.8,43.1c0,2.6-1.9,4.2-5,4.2h-2.3v3.2h-2.7V38.9h5C109.9,38.9,111.8,40.5,111.8,43.1Zm-2.7,0c0-1.3-.8-2-2.5-2h-2.2v4h2.2C108.3,45.1,109.1,44.4,109.1,43.1Z" fill="#1a4480"/>
      <path id="Path_11440" data-name="Path 11440" d="M119.1,41.5v2.4h-.6a2.237,2.237,0,0,0-2.4,2.5v4.2h-2.6V41.7H116v1.2A3.328,3.328,0,0,1,119.1,41.5Z" fill="#1a4480"/>
      <path id="Path_11441" data-name="Path 11441" d="M119.9,46.1a4.91,4.91,0,0,1,9.8,0,4.548,4.548,0,0,1-4.9,4.6C121.9,50.6,119.9,48.7,119.9,46.1Zm7.1,0a2.317,2.317,0,0,0-2.3-2.5,2.263,2.263,0,0,0-2.3,2.5,2.308,2.308,0,1,0,4.6,0Z" fill="#1a4480"/>
      <path id="Path_11442" data-name="Path 11442" d="M130.7,46.1a4.6,4.6,0,0,1,4.9-4.6,4.087,4.087,0,0,1,4,2.3l-2,1.1a2.311,2.311,0,0,0-2-1.2,2.263,2.263,0,0,0-2.3,2.5,2.263,2.263,0,0,0,2.3,2.5,2.311,2.311,0,0,0,2-1.2l2,1.1a4.078,4.078,0,0,1-4,2.2C132.7,50.6,130.7,48.7,130.7,46.1Z" fill="#1a4480"/>
      <path id="Path_11443" data-name="Path 11443" d="M149.6,46.8h-6.7a2.342,2.342,0,0,0,2.5,1.8,2.94,2.94,0,0,0,2.2-.9l1.4,1.5a4.82,4.82,0,0,1-3.7,1.4c-3.1,0-5.1-1.9-5.1-4.6a4.492,4.492,0,0,1,4.7-4.6,4.355,4.355,0,0,1,4.6,4.6A1.185,1.185,0,0,1,149.6,46.8Zm-6.7-1.5h4.4a2.092,2.092,0,0,0-2.2-1.8A1.9,1.9,0,0,0,142.9,45.3Z" fill="#1a4480"/>
      <path id="Path_11444" data-name="Path 11444" d="M150.5,49.7l.9-1.8a6.259,6.259,0,0,0,3.1.9c1.2,0,1.6-.3,1.6-.8,0-1.5-5.4,0-5.4-3.5,0-1.7,1.5-2.9,4.1-2.9a7.116,7.116,0,0,1,3.4.8l-.9,1.8a5.09,5.09,0,0,0-2.6-.7c-1.2,0-1.6.4-1.6.8,0,1.5,5.4,0,5.4,3.5,0,1.6-1.5,2.8-4.2,2.8A8.189,8.189,0,0,1,150.5,49.7Z" fill="#1a4480"/>
      <path id="Path_11445" data-name="Path 11445" d="M159.3,49.7l.9-1.8a6.259,6.259,0,0,0,3.1.9c1.2,0,1.6-.3,1.6-.8,0-1.5-5.4,0-5.4-3.5,0-1.7,1.5-2.9,4.1-2.9a7.116,7.116,0,0,1,3.4.8l-.9,1.8a5.09,5.09,0,0,0-2.6-.7c-1.2,0-1.6.4-1.6.8,0,1.5,5.4,0,5.4,3.5,0,1.6-1.5,2.8-4.2,2.8A7.878,7.878,0,0,1,159.3,49.7Z" fill="#1a4480"/>
    </g>
  </g>
</svg>
