<svg xmlns="http://www.w3.org/2000/svg" width="127.7" height="102.4" viewBox="0 0 127.7 102.4">
  <g id="Group_9267" data-name="Group 9267" transform="translate(-412.9 -481)">
    <g id="Group_9253" data-name="Group 9253" transform="translate(103.6 479.6)">
      <path id="Path_24140" data-name="Path 24140" d="M436.6,1.8H309.7v84h45.8l16.7,17.5,16.6-17.5h47.8Z" fill="#fff"/>
      <path id="Path_24141" data-name="Path 24141" d="M372.2,103.8,355.3,86.1h-46V1.4H437V86.2H389ZM310.1,85.4h45.6l16.5,17.3,16.4-17.3h47.6V2.2H310.1Z" fill="#1a4480"/>
    </g>
    <g id="Group_9259" data-name="Group 9259" transform="translate(103.6 479.6)" style="isolation: isolate">
      <path id="Path_24163" data-name="Path 24163" d="M340.7,37.1h-1.6l-1.6-4.3a2.421,2.421,0,0,0-.8-1.1,2.649,2.649,0,0,0-1.4-.3h-3.2V37h-1.5V24.3h5.1a5.075,5.075,0,0,1,3.2.9,3.315,3.315,0,0,1,1.1,2.6,3.317,3.317,0,0,1-2.6,3.3,1.905,1.905,0,0,1,1,.5,2.979,2.979,0,0,1,.7,1.1Zm-5.1-6.8q3,0,3-2.4a2.139,2.139,0,0,0-.7-1.8,3.4,3.4,0,0,0-2.2-.6h-3.5v4.8Z" fill="#1a4480"/>
      <path id="Path_24164" data-name="Path 24164" d="M350.5,32.6h-6.6a3.844,3.844,0,0,0,.8,2.6,2.869,2.869,0,0,0,2.3.9,4.555,4.555,0,0,0,2.9-1.1l.5,1.1a3.765,3.765,0,0,1-1.5.9,6.279,6.279,0,0,1-1.9.3,4.156,4.156,0,0,1-3.3-1.3,4.7,4.7,0,0,1-1.2-3.4,6.963,6.963,0,0,1,.5-2.5,4.978,4.978,0,0,1,1.5-1.7,4.032,4.032,0,0,1,2.2-.6,3.489,3.489,0,0,1,2.8,1.2,4.722,4.722,0,0,1,1,3.2v.4Zm-5.7-2.9a3.1,3.1,0,0,0-.9,1.9h5.3a3.041,3.041,0,0,0-.7-1.9,2.793,2.793,0,0,0-3.7,0Z" fill="#1a4480"/>
      <path id="Path_24165" data-name="Path 24165" d="M360.7,28.1v9.1h-1.4V35.6a3.039,3.039,0,0,1-1.2,1.3,3.83,3.83,0,0,1-1.9.5,3.7,3.7,0,0,1-2.1-.6,3.638,3.638,0,0,1-1.4-1.6,6.175,6.175,0,0,1-.5-2.5,6.551,6.551,0,0,1,.5-2.5,3.907,3.907,0,0,1,1.4-1.7,3.7,3.7,0,0,1,2.1-.6,4.136,4.136,0,0,1,1.9.5,3.744,3.744,0,0,1,1.2,1.3V28.1Zm-2.2,7a4.023,4.023,0,0,0,.7-2.6,4.023,4.023,0,0,0-.7-2.6,2.9,2.9,0,0,0-4.2,0,4.023,4.023,0,0,0-.7,2.6,4.023,4.023,0,0,0,.7,2.6,2.583,2.583,0,0,0,2.1.9A1.964,1.964,0,0,0,358.5,35.1Z" fill="#1a4480"/>
      <path id="Path_24166" data-name="Path 24166" d="M371.5,23.9V37.1h-1.4V35.5a3.039,3.039,0,0,1-1.2,1.3,3.83,3.83,0,0,1-1.9.5,3.7,3.7,0,0,1-2.1-.6,3.907,3.907,0,0,1-1.4-1.7,6.175,6.175,0,0,1-.5-2.5,6.551,6.551,0,0,1,.5-2.5,3.638,3.638,0,0,1,1.4-1.6,3.7,3.7,0,0,1,2.1-.6,4.136,4.136,0,0,1,1.9.5,3.039,3.039,0,0,1,1.2,1.3V23.9Zm-2.2,11.2a4.023,4.023,0,0,0,.7-2.6,4.023,4.023,0,0,0-.7-2.6,2.9,2.9,0,0,0-4.2,0,3.727,3.727,0,0,0-.7,2.5,4.023,4.023,0,0,0,.7,2.6,2.583,2.583,0,0,0,2.1.9A1.786,1.786,0,0,0,369.3,35.1Z" fill="#1a4480"/>
      <path id="Path_24167" data-name="Path 24167" d="M376,24.2v1.7h-1.8V24.2Zm-1.7,3.9h1.5v9.1h-1.5Z" fill="#1a4480"/>
      <path id="Path_24168" data-name="Path 24168" d="M386.4,31.4v5.7h-1.5V31.5a2.763,2.763,0,0,0-.5-1.8,2.359,2.359,0,0,0-1.6-.6,2.792,2.792,0,0,0-2,.8A2.865,2.865,0,0,0,380,32v5.2h-1.5V30.7a19.289,19.289,0,0,0-.1-2.5h1.4l.1,1.6a4.072,4.072,0,0,1,1.2-1.4,4.136,4.136,0,0,1,1.9-.5C385.3,27.9,386.4,29.1,386.4,31.4Z" fill="#1a4480"/>
      <path id="Path_24169" data-name="Path 24169" d="M396.7,32.6h-6.6a3.844,3.844,0,0,0,.8,2.6,2.869,2.869,0,0,0,2.3.9,4.555,4.555,0,0,0,2.9-1.1l.5,1.1a3.765,3.765,0,0,1-1.5.9,6.279,6.279,0,0,1-1.9.3,4.156,4.156,0,0,1-3.3-1.3,4.7,4.7,0,0,1-1.2-3.4,6.962,6.962,0,0,1,.5-2.5,4.978,4.978,0,0,1,1.5-1.7,4.032,4.032,0,0,1,2.2-.6,3.489,3.489,0,0,1,2.8,1.2,4.722,4.722,0,0,1,1,3.2v.4ZM391,29.7a3.1,3.1,0,0,0-.9,1.9h5.3a3.041,3.041,0,0,0-.7-1.9,2.793,2.793,0,0,0-3.7,0Z" fill="#1a4480"/>
      <path id="Path_24170" data-name="Path 24170" d="M398.4,36.1l.5-1.1a3.675,3.675,0,0,0,1.5.8,4.671,4.671,0,0,0,1.7.3,2.537,2.537,0,0,0,1.6-.4,1.016,1.016,0,0,0,.5-1,1.086,1.086,0,0,0-.4-.9,2.255,2.255,0,0,0-1.2-.5L401,33a4.352,4.352,0,0,1-1.8-.9,1.717,1.717,0,0,1-.6-1.5,2.166,2.166,0,0,1,1-1.9,3.9,3.9,0,0,1,2.5-.7,5.662,5.662,0,0,1,1.8.3,3.39,3.39,0,0,1,1.4.9l-.5,1.1a4.473,4.473,0,0,0-2.7-1.1,2.41,2.41,0,0,0-1.5.4,1.107,1.107,0,0,0-.5,1,1.222,1.222,0,0,0,.3.9,2.257,2.257,0,0,0,1.1.5l1.5.4a4.213,4.213,0,0,1,1.9.9,2.111,2.111,0,0,1,.6,1.6,2.166,2.166,0,0,1-1,1.9,4.023,4.023,0,0,1-2.6.7A6.5,6.5,0,0,1,398.4,36.1Z" fill="#1a4480"/>
      <path id="Path_24171" data-name="Path 24171" d="M407.3,36.1l.5-1.1a3.675,3.675,0,0,0,1.5.8,4.671,4.671,0,0,0,1.7.3,2.537,2.537,0,0,0,1.6-.4,1.016,1.016,0,0,0,.5-1,1.086,1.086,0,0,0-.4-.9,2.255,2.255,0,0,0-1.2-.5L410,33a4.352,4.352,0,0,1-1.8-.9,1.717,1.717,0,0,1-.6-1.5,2.166,2.166,0,0,1,1-1.9,3.9,3.9,0,0,1,2.5-.7,5.662,5.662,0,0,1,1.8.3,3.39,3.39,0,0,1,1.4.9l-.5,1.1a4.473,4.473,0,0,0-2.7-1.1,2.41,2.41,0,0,0-1.5.4,1.107,1.107,0,0,0-.5,1,1.222,1.222,0,0,0,.3.9,2.257,2.257,0,0,0,1.1.5l1.5.4a4.213,4.213,0,0,1,1.9.9,2.111,2.111,0,0,1,.6,1.6,2.166,2.166,0,0,1-1,1.9,4.023,4.023,0,0,1-2.6.7A6.522,6.522,0,0,1,407.3,36.1Z" fill="#1a4480"/>
    </g>
    <g id="Group_9260" data-name="Group 9260" transform="translate(103.6 479.6)" style="isolation: isolate">
      <path id="Path_24172" data-name="Path 24172" d="M331.5,55.4h-6.7l-1.4,3.3h-1.5l5.6-12.8h1.3l5.6,12.8h-1.5Zm-.5-1.2-2.8-6.6-2.8,6.6Z" fill="#1a4480"/>
      <path id="Path_24173" data-name="Path 24173" d="M335.5,57.7l.5-1.1a3.675,3.675,0,0,0,1.5.8,4.671,4.671,0,0,0,1.7.3,2.537,2.537,0,0,0,1.6-.4,1.016,1.016,0,0,0,.5-1,1.086,1.086,0,0,0-.4-.9,2.255,2.255,0,0,0-1.2-.5l-1.5-.4a4.352,4.352,0,0,1-1.8-.9,1.717,1.717,0,0,1-.6-1.5,2.166,2.166,0,0,1,1-1.9,3.9,3.9,0,0,1,2.5-.7,5.663,5.663,0,0,1,1.8.3,3.39,3.39,0,0,1,1.4.9l-.5,1.1a4.473,4.473,0,0,0-2.7-1.1,2.41,2.41,0,0,0-1.5.4,1.107,1.107,0,0,0-.5,1,1.222,1.222,0,0,0,.3.9,2.257,2.257,0,0,0,1.1.5l1.5.4a4.213,4.213,0,0,1,1.9.9,2.111,2.111,0,0,1,.6,1.6,2.166,2.166,0,0,1-1,1.9,4.023,4.023,0,0,1-2.6.7A5.8,5.8,0,0,1,335.5,57.7Z" fill="#1a4480"/>
      <path id="Path_24174" data-name="Path 24174" d="M344.4,57.7l.5-1.1a3.675,3.675,0,0,0,1.5.8,4.671,4.671,0,0,0,1.7.3,2.537,2.537,0,0,0,1.6-.4,1.016,1.016,0,0,0,.5-1,1.086,1.086,0,0,0-.4-.9,2.255,2.255,0,0,0-1.2-.5l-1.5-.4a4.352,4.352,0,0,1-1.8-.9,1.716,1.716,0,0,1-.6-1.5,2.166,2.166,0,0,1,1-1.9,3.9,3.9,0,0,1,2.5-.7,5.663,5.663,0,0,1,1.8.3,3.39,3.39,0,0,1,1.4.9l-.5,1.1a4.473,4.473,0,0,0-2.7-1.1,2.41,2.41,0,0,0-1.5.4,1.107,1.107,0,0,0-.5,1,1.222,1.222,0,0,0,.3.9,2.257,2.257,0,0,0,1.1.5l1.5.4a4.213,4.213,0,0,1,1.9.9,2.111,2.111,0,0,1,.6,1.6,2.166,2.166,0,0,1-1,1.9,4.023,4.023,0,0,1-2.6.7A5.8,5.8,0,0,1,344.4,57.7Z" fill="#1a4480"/>
      <path id="Path_24175" data-name="Path 24175" d="M361.5,54.2h-6.6a3.844,3.844,0,0,0,.8,2.6,2.869,2.869,0,0,0,2.3.9,4.555,4.555,0,0,0,2.9-1.1l.5,1.1a3.765,3.765,0,0,1-1.5.9,6.279,6.279,0,0,1-1.9.3,4.156,4.156,0,0,1-3.3-1.3,4.7,4.7,0,0,1-1.2-3.4,6.963,6.963,0,0,1,.5-2.5,4.978,4.978,0,0,1,1.5-1.7,4.032,4.032,0,0,1,2.2-.6,3.489,3.489,0,0,1,2.8,1.2,4.722,4.722,0,0,1,1,3.2v.4Zm-5.7-2.9a3.1,3.1,0,0,0-.9,1.9h5.3a3.041,3.041,0,0,0-.7-1.9,2.793,2.793,0,0,0-3.7,0Z" fill="#1a4480"/>
      <path id="Path_24176" data-name="Path 24176" d="M363.1,57.7l.5-1.1a3.675,3.675,0,0,0,1.5.8,4.671,4.671,0,0,0,1.7.3,2.537,2.537,0,0,0,1.6-.4,1.016,1.016,0,0,0,.5-1,1.086,1.086,0,0,0-.4-.9,2.255,2.255,0,0,0-1.2-.5l-1.5-.4a4.352,4.352,0,0,1-1.8-.9,1.717,1.717,0,0,1-.6-1.5,2.166,2.166,0,0,1,1-1.9,3.9,3.9,0,0,1,2.5-.7,5.663,5.663,0,0,1,1.8.3,3.39,3.39,0,0,1,1.4.9l-.5,1.1a4.473,4.473,0,0,0-2.7-1.1,2.41,2.41,0,0,0-1.5.4,1.107,1.107,0,0,0-.5,1,1.222,1.222,0,0,0,.3.9,2.257,2.257,0,0,0,1.1.5l1.5.4a4.213,4.213,0,0,1,1.9.9,2.111,2.111,0,0,1,.6,1.6,2.166,2.166,0,0,1-1,1.9,4.023,4.023,0,0,1-2.6.7A5.8,5.8,0,0,1,363.1,57.7Z" fill="#1a4480"/>
      <path id="Path_24177" data-name="Path 24177" d="M372.1,57.7l.5-1.1a3.675,3.675,0,0,0,1.5.8,4.671,4.671,0,0,0,1.7.3,2.537,2.537,0,0,0,1.6-.4,1.016,1.016,0,0,0,.5-1,1.086,1.086,0,0,0-.4-.9,2.255,2.255,0,0,0-1.2-.5l-1.5-.4a4.352,4.352,0,0,1-1.8-.9,1.717,1.717,0,0,1-.6-1.5,2.166,2.166,0,0,1,1-1.9,3.9,3.9,0,0,1,2.5-.7,5.663,5.663,0,0,1,1.8.3,3.39,3.39,0,0,1,1.4.9l-.5,1.1a4.473,4.473,0,0,0-2.7-1.1,2.41,2.41,0,0,0-1.5.4,1.107,1.107,0,0,0-.5,1,1.222,1.222,0,0,0,.3.9,2.257,2.257,0,0,0,1.1.5l1.5.4a4.213,4.213,0,0,1,1.9.9,2.111,2.111,0,0,1,.6,1.6,2.166,2.166,0,0,1-1,1.9,4.023,4.023,0,0,1-2.6.7A5.8,5.8,0,0,1,372.1,57.7Z" fill="#1a4480"/>
      <path id="Path_24178" data-name="Path 24178" d="M394.6,53v5.7h-1.5V53.1a3.161,3.161,0,0,0-.4-1.9,1.678,1.678,0,0,0-1.4-.6,2.2,2.2,0,0,0-1.8.8,3.281,3.281,0,0,0-.6,2.1v5.2h-1.5V53.1a2.82,2.82,0,0,0-.4-1.8,1.678,1.678,0,0,0-1.4-.6,2.2,2.2,0,0,0-1.8.8,3.3,3.3,0,0,0-.7,2.1v5.2h-1.5V52.3a19.289,19.289,0,0,0-.1-2.5h1.4l.1,1.6a2.85,2.85,0,0,1,1.1-1.3,3.371,3.371,0,0,1,1.7-.5,3.425,3.425,0,0,1,1.8.4,2.209,2.209,0,0,1,1,1.3,3.744,3.744,0,0,1,1.2-1.3,3.453,3.453,0,0,1,1.8-.5C393.6,49.5,394.6,50.7,394.6,53Z" fill="#1a4480"/>
      <path id="Path_24179" data-name="Path 24179" d="M405,54.2h-6.6a3.844,3.844,0,0,0,.8,2.6,2.869,2.869,0,0,0,2.3.9,4.555,4.555,0,0,0,2.9-1.1l.5,1.1a3.765,3.765,0,0,1-1.5.9,6.279,6.279,0,0,1-1.9.3,4.156,4.156,0,0,1-3.3-1.3,4.7,4.7,0,0,1-1.2-3.4,6.963,6.963,0,0,1,.5-2.5A4.978,4.978,0,0,1,399,50a4.032,4.032,0,0,1,2.2-.6,3.489,3.489,0,0,1,2.8,1.2,4.722,4.722,0,0,1,1,3.2v.4Zm-5.7-2.9a3.1,3.1,0,0,0-.9,1.9h5.3a3.041,3.041,0,0,0-.7-1.9,2.793,2.793,0,0,0-3.7,0Z" fill="#1a4480"/>
      <path id="Path_24180" data-name="Path 24180" d="M415,53v5.7h-1.5V53.1a2.763,2.763,0,0,0-.5-1.8,2.359,2.359,0,0,0-1.6-.6,2.792,2.792,0,0,0-2,.8,2.865,2.865,0,0,0-.8,2.1v5.2h-1.5V52.3a19.289,19.289,0,0,0-.1-2.5h1.4l.1,1.6a4.071,4.071,0,0,1,1.2-1.4,4.136,4.136,0,0,1,1.9-.5C413.9,49.5,415,50.7,415,53Z" fill="#1a4480"/>
      <path id="Path_24181" data-name="Path 24181" d="M419.6,50.8v5a1.809,1.809,0,0,0,.4,1.4,1.594,1.594,0,0,0,1.2.4,3.553,3.553,0,0,0,1-.2v1.2a5.067,5.067,0,0,1-1.3.2,2.578,2.578,0,0,1-2-.7,2.918,2.918,0,0,1-.7-2.2V50.8h-1.8V49.6h1.8V47.3l1.5-.5v2.8h2.6v1.2Z" fill="#1a4480"/>
    </g>
  </g>
</svg>
