<?xml version="1.0" encoding="utf-8"?>
<!-- Generator: Adobe Illustrator 24.2.3, SVG Export Plug-In . SVG Version: 6.00 Build 0)  -->
<svg version="1.1" id="Layer_1" xmlns="http://www.w3.org/2000/svg" xmlns:xlink="http://www.w3.org/1999/xlink" x="0px" y="0px"
	 viewBox="0 0 320 347.9" style="enable-background:new 0 0 320 347.9;" xml:space="preserve">
<style type="text/css">
	.st0{opacity:0.46;fill:#FFFFFF;enable-background:new    ;}
	.st1{fill:#0A90B7;}
	.st2{fill:#F2F2F2;}
	.st3{enable-background:new    ;}
	.st4{fill:#FFFFFF;}
	.st5{fill:#757575;}
	.st6{fill:#A6D7E5;}
	.st7{opacity:0.55;}
	.st8{fill:#444444;}
	.st9{fill:#C71F25;}
	.st10{opacity:0.1;enable-background:new    ;}
	.st11{opacity:0.46;fill:#209ABD;enable-background:new    ;}
	.st12{opacity:0.6;fill:#0A90B7;enable-background:new    ;}
	.st13{fill:#D8D8D8;}
</style>
<g id="Layer_6">
	<rect x="10" class="st0" width="300" height="347.9"/>
</g>
<g id="Shapes">
	<path id="Path_7616_1_" class="st1" d="M293.6,41.6H58.7V9.4h234.9l7.1,16.1L293.6,41.6z"/>
	<rect x="19.4" y="9.4" class="st2" width="39.3" height="32.2"/>
</g>
<g id="background">
</g>
<g id="text">
	<g class="st3">
		<path class="st4" d="M78.3,24.3c0,1.9-1.4,3.1-3.7,3.1h-2v2.5H71v-8.7h3.6C76.9,21.2,78.3,22.4,78.3,24.3z M76.7,24.3
			c0-1.1-0.7-1.7-2.2-1.7h-1.9V26h1.9C75.9,26,76.7,25.4,76.7,24.3z"/>
		<path class="st4" d="M83.6,23.2v1.5c-0.1,0-0.2,0-0.4,0c-1.2,0-1.9,0.7-1.9,2.1V30h-1.6v-6.6h1.5v1C81.7,23.6,82.5,23.2,83.6,23.2
			z"/>
		<path class="st4" d="M91.2,27.1H86c0.2,1,1,1.6,2.2,1.6c0.7,0,1.3-0.2,1.8-0.7l0.8,1c-0.6,0.7-1.5,1.1-2.7,1.1
			c-2.2,0-3.7-1.4-3.7-3.4s1.5-3.4,3.4-3.4s3.4,1.4,3.4,3.4C91.2,26.8,91.2,27,91.2,27.1z M85.9,26.1h3.8c-0.1-1-0.9-1.6-1.9-1.6
			C86.8,24.4,86.1,25.1,85.9,26.1z"/>
		<path class="st4" d="M99.8,26.6c0,2.1-1.4,3.4-3.4,3.4c-0.8,0-1.6-0.3-2.1-0.9v3.2h-1.6v-9.1h1.5v0.9c0.5-0.6,1.3-0.9,2.2-0.9
			C98.4,23.2,99.8,24.5,99.8,26.6z M98.2,26.6c0-1.3-0.8-2.1-2-2.1s-2,0.8-2,2.1c0,1.3,0.9,2.1,2,2.1S98.2,27.9,98.2,26.6z"/>
		<path class="st4" d="M106.8,26v3.9h-1.5v-0.8c-0.4,0.6-1.1,0.9-2.1,0.9c-1.5,0-2.5-0.8-2.5-2c0-1.1,0.7-2,2.8-2h1.7v-0.1
			c0-0.9-0.5-1.4-1.7-1.4c-0.7,0-1.5,0.2-2,0.7L101,24c0.7-0.5,1.7-0.8,2.8-0.8C105.7,23.2,106.8,24.1,106.8,26z M105.3,27.8V27
			h-1.6c-1.1,0-1.3,0.4-1.3,0.9c0,0.6,0.5,0.9,1.3,0.9C104.3,28.9,105,28.5,105.3,27.8z"/>
		<path class="st4" d="M112.7,23.2v1.5c-0.1,0-0.2,0-0.4,0c-1.2,0-1.9,0.7-1.9,2.1V30h-1.6v-6.6h1.5v1
			C110.8,23.6,111.6,23.2,112.7,23.2z"/>
		<path class="st4" d="M119.6,26v3.9h-1.5v-0.8c-0.4,0.6-1.1,0.9-2.1,0.9c-1.5,0-2.5-0.8-2.5-2c0-1.1,0.7-2,2.8-2h1.7v-0.1
			c0-0.9-0.5-1.4-1.7-1.4c-0.7,0-1.5,0.2-2,0.7l-0.6-1.1c0.7-0.5,1.7-0.8,2.8-0.8C118.5,23.2,119.6,24.1,119.6,26z M118.1,27.8V27
			h-1.6c-1.1,0-1.3,0.4-1.3,0.9c0,0.6,0.5,0.9,1.3,0.9C117.1,28.9,117.8,28.5,118.1,27.8z"/>
		<path class="st4" d="M125.7,29.6c-0.4,0.3-0.9,0.4-1.5,0.4c-1.5,0-2.3-0.8-2.3-2.2v-3.2h-1.1v-1.2h1.1v-1.5h1.6v1.5h1.8v1.2h-1.8
			v3.2c0,0.6,0.3,1,0.9,1c0.3,0,0.6-0.1,0.9-0.3L125.7,29.6z"/>
		<path class="st4" d="M126.8,21.2c0-0.5,0.4-0.9,1-0.9c0.6,0,1,0.4,1,0.9s-0.4,1-1,1S126.8,21.8,126.8,21.2z M127,23.3h1.6v6.6H127
			V23.3z"/>
		<path class="st4" d="M130.1,26.6c0-2,1.5-3.4,3.5-3.4c2.1,0,3.5,1.4,3.5,3.4s-1.5,3.4-3.5,3.4S130.1,28.6,130.1,26.6z M135.6,26.6
			c0-1.3-0.8-2.1-2-2.1c-1.1,0-2,0.8-2,2.1c0,1.3,0.8,2.1,2,2.1S135.6,27.9,135.6,26.6z"/>
		<path class="st4" d="M145.3,26.1v3.8h-1.6v-3.6c0-1.2-0.6-1.8-1.6-1.8c-1.1,0-1.9,0.7-1.9,2v3.4h-1.6v-6.6h1.5v0.9
			c0.5-0.6,1.3-0.9,2.3-0.9C144.1,23.2,145.3,24.1,145.3,26.1z"/>
	</g>
</g>
<g id="Graphics">
	<g>
		<path id="Path_1554_3_" class="st5" d="M166.2,228.2c0,4.5-3.6,8.1-8.1,8.1s-8.1-3.6-8.1-8.1s3.6-8.1,8.1-8.1
			C162.6,220.1,166.2,223.8,166.2,228.2z"/>
		<g id="Group_1434_3_" transform="translate(4.574 4.222)">
			<g id="arrow_3_" transform="translate(4.574 0)">
				<path id="arrow-2_3_" class="st4" d="M149.1,228.9c-0.2,0-0.5-0.1-0.6-0.3l-3.5-3.4c-0.3-0.3-0.4-0.8-0.1-1.2c0,0,0,0,0.1-0.1
					c0.3-0.3,0.9-0.3,1.2,0l0,0l2.9,2.8l2.9-2.8c0.3-0.3,0.9-0.3,1.2,0l0,0c0.3,0.3,0.4,0.8,0.1,1.2c0,0,0,0-0.1,0.1l-3.5,3.4
					C149.5,228.8,149.3,228.9,149.1,228.9z"/>
			</g>
			<path class="st4" d="M153.5,228c-0.6,0-1-0.4-1-1v-7.2c0-0.6,0.4-1,1-1s1,0.4,1,1v7.2C154.5,227.6,154.1,228,153.5,228z"/>
		</g>
	</g>
	<g>
		<path class="st4" d="M33.9,33.6c-1.8,0-3.3-0.7-4.5-2.2c-1.1-1.5-1.7-3.5-1.7-5.9s0.6-4.4,1.7-5.9s2.6-2.2,4.5-2.2
			c1.8,0,3.3,0.8,4.5,2.2c1.1,1.5,1.7,3.5,1.7,5.9s-0.6,4.4-1.7,5.9C37.2,32.8,35.7,33.6,33.9,33.6L33.9,33.6z M33.9,20.9
			c-0.5,0-0.8,0.3-1,0.8s-0.4,1.5-0.4,3.7s0.2,3.2,0.4,3.7c0.2,0.6,0.5,0.8,1,0.8s0.8-0.3,1-0.8s0.4-1.5,0.4-3.7s-0.2-3.2-0.4-3.7
			C34.7,21.1,34.4,20.9,33.9,20.9L33.9,20.9z M49.4,33.6c0.3,0,0.6-0.4,0.6-0.8v-2c0-0.5-0.3-0.8-0.6-0.8h-0.8
			c-0.8,0-0.9-0.4-0.9-0.9v-11c0-0.5-0.3-0.8-0.6-0.8h-2.7c-0.3,0-0.5,0.2-0.6,0.5c-0.2,0.5-0.4,0.8-0.9,1.1c-0.5,0.3-1.2,0.4-2,0.5
			c-0.3,0-0.6,0.4-0.6,0.8v2c0,0.2,0.1,0.4,0.2,0.6c0.1,0.2,0.3,0.2,0.4,0.2h1.8v5.9v0.5c0,0.3,0,0.6-0.9,0.6h-0.9
			c-0.3,0-0.6,0.4-0.6,0.8v2c0,0.5,0.3,0.8,0.6,0.8L49.4,33.6L49.4,33.6z"/>
		<path class="st1" d="M40.9,32.7v-2h0.9c0.6,0,1-0.1,1.2-0.2s0.3-0.5,0.3-1.2v-0.5V22h-2.5v-2c0.9,0,1.7-0.2,2.3-0.5s1-0.8,1.2-1.5
			H47v10.9c0,0.8,0.1,1.3,0.2,1.4c0.2,0.2,0.6,0.3,1.3,0.3h0.8v2h-8.4V32.7z M28.3,25.5c0-2.2,0.5-4,1.6-5.3c1-1.3,2.4-2,4.1-2
			s3,0.7,4.1,2c1,1.3,1.5,3.1,1.5,5.3s-0.5,4-1.6,5.3c-1,1.3-2.4,2-4.1,2c-1.7,0-3-0.7-4.1-2C28.8,29.4,28.3,27.7,28.3,25.5z
			 M31.9,25.5c0,1.9,0.2,3.2,0.5,4.1c0.3,0.8,0.8,1.2,1.5,1.2s1.2-0.4,1.6-1.3c0.3-0.8,0.5-2.2,0.5-4.1s-0.2-3.3-0.5-4.1
			C35.2,20.5,34.7,20,34,20s-1.2,0.4-1.6,1.3C32,22.2,31.9,23.6,31.9,25.5z"/>
		<path class="st6" d="M47.2,30.6L47,31c-0.3-0.3-0.4-0.9-0.4-1.9V18.8l0.3-0.4v10.7C46.9,29.9,47,30.4,47.2,30.6z M43.4,21.5h-2
			l-0.3,0.4h2.3c0,0,0.1,0,0.1,0.1l0.2-0.3C43.6,21.6,43.5,21.5,43.4,21.5z M48.9,31.4v0.8h-7.5l-0.3,0.4h8.2V31L48.9,31.4z
			 M32.2,29.6c-0.3-0.9-0.5-2.2-0.5-4.2c0-1.9,0.2-3.3,0.5-4.2c0.3-0.9,0.9-1.4,1.7-1.4c0.5,0,1,0.2,1.3,0.6l0.2-0.3
			c-0.4-0.5-0.9-0.8-1.5-0.8c-0.9,0-1.5,0.5-1.9,1.6c-0.4,0.9-0.5,2.4-0.5,4.3c0,2,0.2,3.4,0.5,4.3c0.1,0.3,0.3,0.6,0.4,0.8l0.2-0.3
			C32.4,30.1,32.3,29.9,32.2,29.6z M37.9,20.3l-0.2,0.3c0.9,1.2,1.4,2.8,1.4,4.8s-0.5,3.7-1.4,4.9c-0.9,1.2-2.2,1.8-3.8,1.8
			s-2.8-0.6-3.8-1.8l0,0l-0.2,0.3l0,0c1,1.3,2.3,2,4,2c1.6,0,3-0.7,4-2s1.5-3,1.5-5.2C39.4,23.3,38.9,21.6,37.9,20.3z"/>
	</g>
	<g class="st7">
		<rect x="27.2" y="54.3" class="st2" width="265.6" height="157.5"/>
		<g>
			<g>
				<path class="st8" d="M77.2,119.3h-0.7l-1-2.5c-0.1-0.3-0.3-0.6-0.5-0.7s-0.5-0.2-0.9-0.2H72v3.4h-0.7v-7.6h2.9
					c0.8,0,1.4,0.2,1.8,0.5s0.7,0.9,0.7,1.5c0,0.5-0.1,0.9-0.4,1.2c-0.3,0.3-0.6,0.6-1.1,0.7c0.2,0,0.4,0.1,0.6,0.3
					c0.2,0.2,0.3,0.4,0.4,0.7L77.2,119.3z M74.2,115.3c1.3,0,1.9-0.5,1.9-1.6c0-1-0.6-1.5-1.9-1.5H72v3.1H74.2z"/>
				<path class="st8" d="M83.7,117.3h-4.1l-0.9,2H78l3.3-7.6h0.6l3.3,7.6h-0.7L83.7,117.3z M83.4,116.7l-1.8-4.2l-1.8,4.2H83.4z"/>
				<path class="st8" d="M92.4,119.3h-0.7l-1-2.5c-0.1-0.3-0.3-0.6-0.5-0.7s-0.5-0.2-0.9-0.2h-2.1v3.4h-0.7v-7.6h2.9
					c0.8,0,1.4,0.2,1.8,0.5s0.7,0.9,0.7,1.5c0,0.5-0.1,0.9-0.4,1.2c-0.3,0.3-0.6,0.6-1.1,0.7c0.2,0,0.4,0.1,0.6,0.3
					c0.2,0.2,0.3,0.4,0.4,0.7L92.4,119.3z M89.4,115.3c1.3,0,1.9-0.5,1.9-1.6c0-1-0.6-1.5-1.9-1.5h-2.3v3.1H89.4z"/>
				<path class="st8" d="M96.8,111.7h2.5c1.2,0,2.2,0.3,2.8,1c0.7,0.7,1,1.6,1,2.8c0,1.2-0.3,2.2-1,2.8s-1.6,1-2.8,1h-2.5V111.7z
					 M99.2,118.7c1,0,1.8-0.3,2.3-0.8s0.8-1.4,0.8-2.4c0-2.2-1-3.2-3.1-3.2h-1.8v6.5L99.2,118.7L99.2,118.7z"/>
				<path class="st8" d="M105,116.5L105,116.5c0,0.8,0.2,1.3,0.5,1.7c0.3,0.4,0.8,0.6,1.5,0.6c0.6,0,1.2-0.2,1.8-0.7l0.3,0.5
					c-0.2,0.2-0.5,0.4-0.9,0.5s-0.7,0.2-1.1,0.2c-0.8,0-1.5-0.2-1.9-0.7s-0.7-1.2-0.7-2c0-0.6,0.1-1,0.3-1.5s0.5-0.8,0.9-1
					s0.8-0.3,1.3-0.3c0.7,0,1.3,0.2,1.7,0.7c0.4,0.5,0.6,1.1,0.6,1.9v0.1C109.3,116.5,105,116.5,105,116.5z M105.6,114.8
					c-0.3,0.3-0.5,0.7-0.6,1.2h3.4c0-0.6-0.2-1-0.5-1.3s-0.7-0.4-1.1-0.4C106.3,114.3,105.9,114.5,105.6,114.8z"/>
				<path class="st8" d="M115,113.9l-2.3,5.4H112l-2.3-5.4h0.7l1.9,4.7l2-4.7H115z"/>
				<path class="st8" d="M116.4,116.5L116.4,116.5c0,0.8,0.2,1.3,0.5,1.7c0.3,0.4,0.8,0.6,1.5,0.6c0.6,0,1.2-0.2,1.8-0.7l0.3,0.5
					c-0.2,0.2-0.5,0.4-0.9,0.5s-0.7,0.2-1.1,0.2c-0.8,0-1.5-0.2-1.9-0.7s-0.7-1.2-0.7-2c0-0.6,0.1-1,0.3-1.5s0.5-0.8,0.9-1
					s0.8-0.3,1.3-0.3c0.7,0,1.3,0.2,1.7,0.7c0.4,0.5,0.6,1.1,0.6,1.9v0.1C120.7,116.5,116.4,116.5,116.4,116.5z M117,114.8
					c-0.3,0.3-0.5,0.7-0.6,1.2h3.4c0-0.6-0.2-1-0.5-1.3s-0.7-0.4-1.1-0.4C117.8,114.3,117.4,114.5,117,114.8z"/>
				<path class="st8" d="M122,111.4h0.6v7.9H122V111.4z"/>
				<path class="st8" d="M125.3,119c-0.4-0.2-0.7-0.6-0.9-1c-0.2-0.4-0.3-0.9-0.3-1.5s0.1-1,0.3-1.5c0.2-0.4,0.5-0.7,0.9-1
					c0.4-0.2,0.8-0.3,1.3-0.3s0.9,0.1,1.3,0.3c0.4,0.2,0.7,0.6,0.9,1s0.3,0.9,0.3,1.5s-0.1,1-0.3,1.5c-0.2,0.4-0.5,0.7-0.9,1
					c-0.4,0.2-0.8,0.3-1.3,0.3C126.1,119.4,125.7,119.3,125.3,119z M127.9,118.2c0.3-0.4,0.5-0.9,0.5-1.6s-0.2-1.2-0.5-1.6
					s-0.8-0.6-1.3-0.6c-0.6,0-1,0.2-1.3,0.6s-0.5,0.9-0.5,1.6s0.2,1.3,0.5,1.6c0.3,0.4,0.7,0.6,1.3,0.6S127.6,118.6,127.9,118.2z"/>
				<path class="st8" d="M134.3,114.1c0.4,0.2,0.6,0.6,0.8,1s0.3,0.9,0.3,1.5s-0.1,1-0.3,1.5c-0.2,0.4-0.5,0.7-0.8,1
					c-0.4,0.2-0.8,0.3-1.3,0.3s-0.8-0.1-1.2-0.3c-0.3-0.2-0.6-0.5-0.7-0.9v3.4h-0.6v-6.2c0-0.6,0-1.1-0.1-1.5h0.6l0.1,1.1
					c0.2-0.4,0.4-0.7,0.7-0.9s0.7-0.3,1.2-0.3C133.5,113.8,133.9,113.9,134.3,114.1z M134.3,118.2c0.3-0.4,0.5-0.9,0.5-1.6
					s-0.2-1.2-0.5-1.6s-0.8-0.6-1.3-0.6c-0.6,0-1,0.2-1.3,0.6s-0.5,0.9-0.5,1.6s0.2,1.2,0.5,1.6s0.7,0.6,1.3,0.6
					C133.5,118.8,134,118.6,134.3,118.2z"/>
				<path class="st8" d="M144.5,115.9v3.4h-0.7v-3.4c0-0.5-0.1-0.9-0.3-1.2s-0.5-0.4-0.9-0.4c-0.5,0-0.9,0.2-1.2,0.5
					s-0.4,0.8-0.4,1.3v3.1h-0.7v-3.4c0-0.5-0.1-0.9-0.3-1.2c-0.2-0.2-0.5-0.4-0.9-0.4c-0.5,0-0.9,0.2-1.2,0.5s-0.4,0.8-0.4,1.3v3.1
					h-0.6v-3.9c0-0.6,0-1.1-0.1-1.5h0.6l0.1,1c0.2-0.4,0.4-0.6,0.7-0.8c0.3-0.2,0.6-0.3,1-0.3c0.9,0,1.4,0.4,1.7,1.1
					c0.1-0.3,0.4-0.6,0.7-0.8c0.3-0.2,0.7-0.3,1.1-0.3C143.9,113.8,144.5,114.5,144.5,115.9z"/>
				<path class="st8" d="M146.6,116.5L146.6,116.5c0,0.8,0.2,1.3,0.5,1.7c0.3,0.4,0.8,0.6,1.5,0.6c0.6,0,1.2-0.2,1.8-0.7l0.3,0.5
					c-0.2,0.2-0.5,0.4-0.9,0.5s-0.7,0.2-1.1,0.2c-0.8,0-1.5-0.2-1.9-0.7s-0.7-1.2-0.7-2c0-0.6,0.1-1,0.3-1.5s0.5-0.8,0.9-1
					s0.8-0.3,1.3-0.3c0.7,0,1.3,0.2,1.7,0.7s0.6,1.1,0.6,1.9v0.1C150.9,116.5,146.6,116.5,146.6,116.5z M147.3,114.8
					c-0.3,0.3-0.5,0.7-0.6,1.2h3.4c0-0.6-0.2-1-0.5-1.3s-0.7-0.4-1.1-0.4C148,114.3,147.6,114.5,147.3,114.8z"/>
				<path class="st8" d="M156.6,115.9v3.4h-0.7v-3.4c0-0.5-0.1-0.9-0.3-1.2c-0.2-0.3-0.6-0.4-1-0.4c-0.5,0-1,0.2-1.3,0.5
					s-0.5,0.8-0.5,1.3v3.1h-0.6v-3.9c0-0.6,0-1.1-0.1-1.5h0.6l0.1,1c0.2-0.4,0.4-0.6,0.7-0.8c0.3-0.2,0.7-0.3,1.1-0.3
					C156,113.8,156.6,114.5,156.6,115.9z"/>
				<path class="st8" d="M159.3,114.5v3.2c0,0.4,0.1,0.7,0.2,0.9c0.2,0.2,0.4,0.2,0.7,0.2c0.2,0,0.4,0,0.6-0.1v0.6
					c-0.2,0.1-0.5,0.1-0.7,0.1c-0.5,0-0.8-0.1-1.1-0.4s-0.4-0.7-0.4-1.2v-3.3h-1.1V114h1.1v-1.4l0.7-0.2v1.7h1.6v0.5L159.3,114.5
					L159.3,114.5z"/>
				<g>
					<path class="st1" d="M52.1,138.2c-0.3-0.2-0.5-0.4-0.7-0.7s-0.3-0.6-0.3-1c0-0.3,0.1-0.6,0.3-0.9c0.2-0.3,0.4-0.5,0.7-0.7
						s0.6-0.3,1-0.3c0.3,0,0.7,0.1,1,0.3s0.5,0.4,0.7,0.7s0.3,0.6,0.3,1s-0.1,0.7-0.3,1s-0.4,0.5-0.7,0.7s-0.6,0.3-1,0.3
						S52.4,138.4,52.1,138.2z"/>
					<path class="st1" d="M53.1,138.6c-0.4,0-0.7-0.1-1-0.3s-0.6-0.4-0.8-0.7s-0.3-0.7-0.3-1s0.1-0.7,0.3-1s0.4-0.6,0.8-0.8
						c0.6-0.4,1.4-0.4,2.1,0c0.3,0.2,0.6,0.4,0.8,0.7s0.3,0.7,0.3,1c0,0.4-0.1,0.7-0.3,1s-0.4,0.6-0.8,0.7
						C53.8,138.5,53.4,138.6,53.1,138.6z M53.1,134.7c-0.3,0-0.7,0.1-0.9,0.2c-0.3,0.2-0.5,0.4-0.7,0.7s-0.2,0.6-0.2,0.9
						c0,0.3,0.1,0.6,0.2,0.9c0.2,0.3,0.4,0.5,0.7,0.7c0.6,0.3,1.3,0.3,1.8,0c0.3-0.2,0.5-0.4,0.7-0.7s0.2-0.6,0.2-0.9
						c0-0.3-0.1-0.6-0.2-0.9c-0.2-0.3-0.4-0.5-0.7-0.6C53.7,134.8,53.4,134.7,53.1,134.7z"/>
				</g>
				<path class="st8" d="M71.3,131.8h4.6v0.6H72v2.9h3.7v0.6H72v3.6h-0.7V131.8z"/>
				<path class="st8" d="M77.5,136.6L77.5,136.6c0,0.8,0.2,1.3,0.5,1.7s0.8,0.6,1.5,0.6c0.6,0,1.2-0.2,1.8-0.7l0.3,0.5
					c-0.2,0.2-0.5,0.4-0.9,0.5s-0.7,0.2-1.1,0.2c-0.8,0-1.5-0.2-1.9-0.7s-0.7-1.2-0.7-2c0-0.6,0.1-1,0.3-1.5s0.5-0.8,0.9-1
					s0.8-0.3,1.3-0.3c0.7,0,1.3,0.2,1.7,0.7c0.4,0.5,0.6,1.1,0.6,1.9v0.1H77.5z M78.1,134.9c-0.3,0.3-0.5,0.7-0.6,1.2h3.4
					c0-0.6-0.2-1-0.5-1.3s-0.7-0.4-1.1-0.4C78.8,134.4,78.4,134.6,78.1,134.9z"/>
				<path class="st8" d="M87.6,131.5v7.9h-0.7v-1c-0.2,0.4-0.4,0.6-0.7,0.8c-0.3,0.2-0.7,0.3-1.1,0.3c-0.5,0-0.9-0.1-1.2-0.3
					c-0.4-0.2-0.6-0.6-0.8-1c-0.2-0.4-0.3-0.9-0.3-1.5s0.1-1,0.3-1.5c0.2-0.4,0.5-0.7,0.8-1s0.8-0.3,1.3-0.3c0.4,0,0.8,0.1,1.1,0.3
					c0.3,0.2,0.6,0.5,0.7,0.8v-3.5H87.6z M86.5,138.3c0.3-0.4,0.5-0.9,0.5-1.6c0-0.7-0.2-1.2-0.5-1.6s-0.7-0.6-1.3-0.6
					c-0.6,0-1,0.2-1.3,0.6c-0.3,0.4-0.5,0.9-0.5,1.6c0,0.7,0.2,1.2,0.5,1.6c0.3,0.4,0.8,0.6,1.3,0.6S86.2,138.7,86.5,138.3z"/>
				<path class="st8" d="M95.4,139.4h-0.7l-1-2.5c-0.1-0.3-0.3-0.6-0.5-0.7c-0.2-0.1-0.5-0.2-0.9-0.2h-2.1v3.4h-0.7v-7.6h2.9
					c0.8,0,1.4,0.2,1.8,0.5s0.7,0.9,0.7,1.5c0,0.5-0.1,0.9-0.4,1.2s-0.6,0.6-1.1,0.7c0.2,0,0.4,0.1,0.6,0.3s0.3,0.4,0.4,0.7
					L95.4,139.4z M92.4,135.4c1.3,0,1.9-0.5,1.9-1.6c0-1-0.6-1.5-1.9-1.5h-2.3v3.1H92.4z"/>
				<path class="st8" d="M101.9,137.4h-4.1l-0.9,2h-0.7l3.3-7.6h0.6l3.3,7.6h-0.7L101.9,137.4z M101.6,136.8l-1.8-4.2l-1.8,4.2
					H101.6z"/>
				<path class="st8" d="M111.8,131.8v7.6h-0.6v-6.1l-2.7,6.1H108l-2.7-6.1v6.1h-0.6v-7.6h0.5l3,6.8l3-6.8H111.8z"/>
				<path class="st8" d="M113.9,131.8h2.9c0.8,0,1.4,0.2,1.8,0.6c0.4,0.4,0.7,0.9,0.7,1.5c0,0.7-0.2,1.2-0.7,1.5
					c-0.4,0.4-1,0.6-1.8,0.6h-2.3v3.4h-0.7L113.9,131.8L113.9,131.8z M116.8,135.4c0.6,0,1.1-0.1,1.4-0.4c0.3-0.3,0.5-0.6,0.5-1.1
					s-0.2-0.9-0.5-1.1c-0.3-0.3-0.8-0.4-1.4-0.4h-2.2v3.1h2.2V135.4z"/>
				<path class="st8" d="M123.6,131.8h2.9c0.8,0,1.4,0.2,1.8,0.6c0.4,0.4,0.7,0.9,0.7,1.5c0,0.7-0.2,1.2-0.7,1.5
					c-0.4,0.4-1,0.6-1.8,0.6h-2.3v3.4h-0.7L123.6,131.8L123.6,131.8z M126.5,135.4c0.6,0,1.1-0.1,1.4-0.4c0.3-0.3,0.5-0.6,0.5-1.1
					s-0.2-0.9-0.5-1.1c-0.3-0.3-0.8-0.4-1.4-0.4h-2.2v3.1h2.2V135.4z"/>
				<path class="st8" d="M137.7,131.8v7.6h-0.6v-6.1l-2.7,6.1h-0.5l-2.7-6.1v6.1h-0.6v-7.6h0.5l3,6.8l3-6.8H137.7z"/>
				<path class="st8" d="M141,139c-0.5-0.3-0.9-0.8-1.2-1.4c-0.3-0.6-0.4-1.3-0.4-2.1s0.1-1.5,0.4-2.1c0.3-0.6,0.7-1,1.2-1.4
					s1.1-0.5,1.8-0.5s1.3,0.2,1.8,0.5s0.9,0.8,1.2,1.3c0.3,0.6,0.4,1.3,0.4,2.1s-0.1,1.5-0.4,2.1c-0.3,0.6-0.7,1-1.2,1.4
					c-0.5,0.3-1.1,0.5-1.8,0.5C142.1,139.5,141.5,139.3,141,139z M144.8,138c0.5-0.6,0.7-1.4,0.7-2.5s-0.2-1.9-0.7-2.4
					s-1.1-0.9-2-0.9s-1.5,0.3-2,0.9c-0.5,0.6-0.7,1.4-0.7,2.4c0,1.1,0.2,1.9,0.7,2.4c0.5,0.6,1.1,0.9,2,0.9
					C143.7,138.9,144.3,138.6,144.8,138z"/>
				<path class="st8" d="M156.6,139.4h-0.7l-1-2.5c-0.1-0.3-0.3-0.6-0.5-0.7c-0.2-0.1-0.5-0.2-0.9-0.2h-2.1v3.4h-0.7v-7.6h2.9
					c0.8,0,1.4,0.2,1.8,0.5s0.7,0.9,0.7,1.5c0,0.5-0.1,0.9-0.4,1.2c-0.3,0.3-0.6,0.6-1.1,0.7c0.2,0,0.4,0.1,0.6,0.3
					c0.2,0.2,0.3,0.4,0.4,0.7L156.6,139.4z M153.7,135.4c1.3,0,1.9-0.5,1.9-1.6c0-1-0.6-1.5-1.9-1.5h-2.3v3.1H153.7z"/>
				<path class="st8" d="M158.4,136.6L158.4,136.6c0,0.8,0.2,1.3,0.5,1.7s0.8,0.6,1.5,0.6c0.6,0,1.2-0.2,1.8-0.7l0.3,0.5
					c-0.2,0.2-0.5,0.4-0.9,0.5s-0.7,0.2-1.1,0.2c-0.8,0-1.5-0.2-1.9-0.7s-0.7-1.2-0.7-2c0-0.6,0.1-1,0.3-1.5s0.5-0.8,0.9-1
					s0.8-0.3,1.3-0.3c0.7,0,1.3,0.2,1.7,0.7s0.6,1.1,0.6,1.9v0.1H158.4z M159.1,134.9c-0.3,0.3-0.5,0.7-0.6,1.2h3.4
					c0-0.6-0.2-1-0.5-1.3s-0.7-0.4-1.1-0.4C159.8,134.4,159.4,134.6,159.1,134.9z"/>
				<path class="st8" d="M168.5,134l-2.3,5.4h-0.7l-2.3-5.4h0.7l1.9,4.7l2-4.7H168.5z"/>
				<path class="st8" d="M170.4,131.8v0.8h-0.9v-0.8H170.4z M169.6,134h0.6v5.4h-0.6V134z"/>
				<path class="st8" d="M172.4,136.6L172.4,136.6c0,0.8,0.2,1.3,0.5,1.7s0.8,0.6,1.5,0.6c0.6,0,1.2-0.2,1.8-0.7l0.3,0.5
					c-0.2,0.2-0.5,0.4-0.9,0.5s-0.7,0.2-1.1,0.2c-0.8,0-1.5-0.2-1.9-0.7s-0.7-1.2-0.7-2c0-0.6,0.1-1,0.3-1.5s0.5-0.8,0.9-1
					s0.8-0.3,1.3-0.3c0.7,0,1.3,0.2,1.7,0.7s0.6,1.1,0.6,1.9v0.1H172.4z M173.1,134.9c-0.3,0.3-0.5,0.7-0.6,1.2h3.4
					c0-0.6-0.2-1-0.5-1.3s-0.7-0.4-1.1-0.4C173.8,134.4,173.4,134.6,173.1,134.9z"/>
				<path class="st8" d="M185.9,134l-2,5.4h-0.7l-1.6-4.5l-1.6,4.5h-0.7l-1.9-5.4h0.7l1.6,4.6l1.7-4.6h0.7l1.6,4.6l1.6-4.6H185.9z"
					/>
				<path class="st8" d="M190.8,139.1c-0.4-0.2-0.7-0.6-0.9-1s-0.3-0.9-0.3-1.5s0.1-1,0.3-1.5c0.2-0.4,0.5-0.7,0.9-1
					c0.4-0.2,0.8-0.3,1.3-0.3s0.9,0.1,1.3,0.3c0.4,0.2,0.7,0.6,0.9,1s0.3,0.9,0.3,1.5s-0.1,1-0.3,1.5c-0.2,0.4-0.5,0.7-0.9,1
					c-0.4,0.2-0.8,0.3-1.3,0.3C191.6,139.5,191.2,139.4,190.8,139.1z M193.4,138.3c0.3-0.4,0.5-0.9,0.5-1.6c0-0.7-0.2-1.2-0.5-1.6
					s-0.8-0.6-1.3-0.6c-0.6,0-1,0.2-1.3,0.6c-0.3,0.4-0.5,0.9-0.5,1.6c0,0.7,0.2,1.3,0.5,1.6c0.3,0.4,0.7,0.6,1.3,0.6
					S193.1,138.7,193.4,138.3z"/>
				<path class="st8" d="M197.2,132.3c-0.2,0.2-0.2,0.5-0.2,0.9v0.8h1.4v0.5H197v4.8h-0.7v-4.8h-1.1V134h1.1v-1
					c0-0.5,0.1-0.9,0.4-1.2c0.3-0.3,0.6-0.4,1.1-0.4c0.2,0,0.4,0,0.7,0.1v0.6c-0.2-0.1-0.4-0.1-0.5-0.1
					C197.6,132.1,197.4,132.1,197.2,132.3z"/>
				<path class="st8" d="M208.4,139.4h-0.7l-1-2.5c-0.1-0.3-0.3-0.6-0.5-0.7c-0.2-0.1-0.5-0.2-0.9-0.2h-2.1v3.4h-0.7v-7.6h2.9
					c0.8,0,1.4,0.2,1.8,0.5s0.7,0.9,0.7,1.5c0,0.5-0.1,0.9-0.4,1.2c-0.3,0.3-0.6,0.6-1.1,0.7c0.2,0,0.4,0.1,0.6,0.3
					c0.2,0.2,0.3,0.4,0.4,0.7L208.4,139.4z M205.4,135.4c1.3,0,1.9-0.5,1.9-1.6c0-1-0.6-1.5-1.9-1.5h-2.3v3.1H205.4z"/>
				<path class="st8" d="M214.8,137.4h-4.1l-0.9,2h-0.7l3.3-7.6h0.6l3.3,7.6h-0.7L214.8,137.4z M214.6,136.8l-1.8-4.2l-1.8,4.2
					H214.6z"/>
				<path class="st8" d="M223.6,139.4h-0.7l-1-2.5c-0.1-0.3-0.3-0.6-0.5-0.7c-0.2-0.1-0.5-0.2-0.9-0.2h-2.1v3.4h-0.7v-7.6h2.9
					c0.8,0,1.4,0.2,1.8,0.5c0.4,0.4,0.7,0.9,0.7,1.5c0,0.5-0.1,0.9-0.4,1.2c-0.3,0.3-0.6,0.6-1.1,0.7c0.2,0,0.4,0.1,0.6,0.3
					c0.2,0.2,0.3,0.4,0.4,0.7L223.6,139.4z M220.6,135.4c1.2,0,1.9-0.5,1.9-1.6c0-1-0.6-1.5-1.9-1.5h-2.3v3.1H220.6z"/>
				<g>
					<path class="st1" d="M52.1,158.3c-0.3-0.2-0.5-0.4-0.7-0.7s-0.3-0.6-0.3-1c0-0.3,0.1-0.6,0.3-0.9c0.2-0.3,0.4-0.5,0.7-0.7
						s0.6-0.3,1-0.3c0.3,0,0.7,0.1,1,0.3s0.5,0.4,0.7,0.7s0.3,0.6,0.3,1s-0.1,0.7-0.3,1s-0.4,0.5-0.7,0.7s-0.6,0.3-1,0.3
						S52.4,158.5,52.1,158.3z"/>
					<path class="st1" d="M53.1,158.7c-0.4,0-0.7-0.1-1-0.3s-0.6-0.4-0.8-0.7s-0.3-0.7-0.3-1s0.1-0.7,0.3-1s0.4-0.6,0.8-0.8
						c0.6-0.4,1.4-0.4,2.1,0c0.3,0.2,0.6,0.4,0.8,0.7s0.3,0.7,0.3,1c0,0.4-0.1,0.7-0.3,1s-0.4,0.6-0.8,0.7
						C53.8,158.6,53.4,158.7,53.1,158.7z M53.1,154.8c-0.3,0-0.7,0.1-0.9,0.2c-0.3,0.2-0.5,0.4-0.7,0.7s-0.2,0.6-0.2,0.9
						c0,0.3,0.1,0.6,0.2,0.9c0.2,0.3,0.4,0.5,0.7,0.7c0.6,0.3,1.3,0.3,1.8,0c0.3-0.2,0.5-0.4,0.7-0.7s0.2-0.6,0.2-0.9
						c0-0.3-0.1-0.6-0.2-0.9c-0.2-0.3-0.4-0.5-0.7-0.6C53.7,154.9,53.4,154.8,53.1,154.8z"/>
				</g>
				<path class="st8" d="M77.2,159.5h-0.7l-1-2.5c-0.1-0.3-0.3-0.6-0.5-0.7c-0.2-0.1-0.5-0.2-0.9-0.2H72v3.4h-0.7v-7.6h2.9
					c0.8,0,1.4,0.2,1.8,0.5s0.7,0.9,0.7,1.5c0,0.5-0.1,0.9-0.4,1.2s-0.6,0.6-1.1,0.7c0.2,0,0.4,0.1,0.6,0.3s0.3,0.4,0.4,0.7
					L77.2,159.5z M74.2,155.5c1.3,0,1.9-0.5,1.9-1.6c0-1-0.6-1.5-1.9-1.5H72v3.1H74.2z"/>
				<path class="st8" d="M79,156.7L79,156.7c0,0.8,0.2,1.3,0.5,1.7s0.8,0.6,1.5,0.6c0.6,0,1.2-0.2,1.8-0.7l0.3,0.5
					c-0.2,0.2-0.5,0.4-0.9,0.5s-0.7,0.2-1.1,0.2c-0.8,0-1.5-0.2-1.9-0.7s-0.7-1.2-0.7-2c0-0.6,0.1-1,0.3-1.5s0.5-0.8,0.9-1
					s0.8-0.3,1.3-0.3c0.7,0,1.3,0.2,1.7,0.7c0.4,0.5,0.6,1.1,0.6,1.9v0.1H79z M79.6,155c-0.3,0.3-0.5,0.7-0.6,1.2h3.4
					c0-0.6-0.2-1-0.5-1.3s-0.7-0.4-1.1-0.4C80.3,154.5,79.9,154.7,79.6,155z"/>
				<path class="st8" d="M92.1,156.1v3.4h-0.7v-3.4c0-0.5-0.1-0.9-0.3-1.2s-0.5-0.4-0.9-0.4c-0.5,0-0.9,0.2-1.2,0.5
					c-0.3,0.3-0.4,0.8-0.4,1.3v3.1H88V156c0-0.5-0.1-0.9-0.3-1.2c-0.2-0.2-0.5-0.4-0.9-0.4c-0.5,0-0.9,0.2-1.2,0.5
					c-0.3,0.3-0.4,0.8-0.4,1.3v3.1h-0.6v-3.9c0-0.6,0-1.1-0.1-1.5h0.6l0.1,1c0.2-0.4,0.4-0.6,0.7-0.8c0.3-0.2,0.6-0.3,1-0.3
					c0.9,0,1.4,0.4,1.7,1.1c0.1-0.3,0.4-0.6,0.7-0.8c0.3-0.2,0.7-0.3,1.1-0.3C91.5,154,92.1,154.7,92.1,156.1z"/>
				<path class="st8" d="M94.2,156.7L94.2,156.7c0,0.8,0.2,1.3,0.5,1.7s0.8,0.6,1.5,0.6c0.6,0,1.2-0.2,1.8-0.7l0.3,0.5
					c-0.2,0.2-0.5,0.4-0.9,0.5s-0.7,0.2-1.1,0.2c-0.8,0-1.5-0.2-1.9-0.7s-0.7-1.2-0.7-2c0-0.6,0.1-1,0.3-1.5s0.5-0.8,0.9-1
					s0.8-0.3,1.3-0.3c0.7,0,1.3,0.2,1.7,0.7c0.4,0.5,0.6,1.1,0.6,1.9v0.1H94.2z M94.9,155c-0.3,0.3-0.5,0.7-0.6,1.2h3.4
					c0-0.6-0.2-1-0.5-1.3s-0.7-0.4-1.1-0.4C95.6,154.5,95.2,154.7,94.9,155z"/>
				<path class="st8" d="M104.3,151.6v7.9h-0.7v-1c-0.2,0.4-0.4,0.6-0.7,0.8c-0.3,0.2-0.7,0.3-1.1,0.3c-0.5,0-0.9-0.1-1.2-0.3
					c-0.4-0.2-0.6-0.6-0.8-1c-0.2-0.4-0.3-0.9-0.3-1.5s0.1-1,0.3-1.5c0.2-0.4,0.5-0.7,0.8-1s0.8-0.3,1.3-0.3c0.4,0,0.8,0.1,1.1,0.3
					c0.3,0.2,0.6,0.5,0.7,0.8v-3.5H104.3z M103.2,158.4c0.3-0.4,0.5-0.9,0.5-1.6c0-0.7-0.2-1.2-0.5-1.6s-0.7-0.6-1.3-0.6
					c-0.6,0-1,0.2-1.3,0.6c-0.3,0.4-0.5,0.9-0.5,1.6c0,0.7,0.2,1.2,0.5,1.6c0.3,0.4,0.8,0.6,1.3,0.6S102.9,158.8,103.2,158.4z"/>
				<path class="st8" d="M106.9,151.9v0.8H106v-0.8H106.9z M106.2,154.1h0.6v5.4h-0.6V154.1z"/>
				<path class="st8" d="M113.2,154.1v5.4h-0.7v-1c-0.2,0.4-0.4,0.6-0.7,0.8c-0.3,0.2-0.7,0.3-1.1,0.3c-0.5,0-0.9-0.1-1.3-0.3
					s-0.6-0.5-0.8-1c-0.2-0.4-0.3-0.9-0.3-1.5s0.1-1,0.3-1.5s0.5-0.8,0.8-1c0.4-0.2,0.8-0.3,1.2-0.3c0.4,0,0.8,0.1,1.1,0.3
					c0.3,0.2,0.6,0.5,0.7,0.8v-1H113.2z M112.1,158.4c0.3-0.4,0.5-0.9,0.5-1.6c0-0.7-0.2-1.3-0.5-1.6c-0.3-0.4-0.7-0.6-1.3-0.6
					s-1,0.2-1.3,0.6c-0.3,0.4-0.5,0.9-0.5,1.6c0,0.7,0.2,1.2,0.5,1.6c0.3,0.4,0.8,0.6,1.3,0.6C111.4,159,111.8,158.8,112.1,158.4z"
					/>
				<path class="st8" d="M116,154.6v3.2c0,0.4,0.1,0.7,0.2,0.9c0.2,0.2,0.4,0.2,0.7,0.2c0.2,0,0.4,0,0.6-0.1v0.6
					c-0.2,0.1-0.5,0.1-0.7,0.1c-0.5,0-0.8-0.1-1.1-0.4c-0.3-0.3-0.4-0.7-0.4-1.2v-3.3h-1.1v-0.5h1.1v-1.4l0.7-0.2v1.7h1.6v0.5H116
					V154.6z"/>
				<path class="st8" d="M119.5,151.9v0.8h-0.9v-0.8H119.5z M118.7,154.1h0.6v5.4h-0.6V154.1z"/>
				<path class="st8" d="M122,159.2c-0.4-0.2-0.7-0.6-0.9-1c-0.2-0.4-0.3-0.9-0.3-1.5s0.1-1,0.3-1.5c0.2-0.4,0.5-0.7,0.9-1
					c0.4-0.2,0.8-0.3,1.3-0.3s0.9,0.1,1.3,0.3s0.7,0.6,0.9,1c0.2,0.4,0.3,0.9,0.3,1.5s-0.1,1-0.3,1.5c-0.2,0.4-0.5,0.7-0.9,1
					c-0.4,0.2-0.8,0.3-1.3,0.3C122.8,159.6,122.4,159.5,122,159.2z M124.6,158.4c0.3-0.4,0.5-0.9,0.5-1.6c0-0.7-0.2-1.2-0.5-1.6
					s-0.8-0.6-1.3-0.6c-0.6,0-1,0.2-1.3,0.6c-0.3,0.4-0.5,0.9-0.5,1.6c0,0.7,0.2,1.3,0.5,1.6c0.3,0.4,0.7,0.6,1.3,0.6
					S124.3,158.8,124.6,158.4z"/>
				<path class="st8" d="M131.7,156.1v3.4H131v-3.4c0-0.5-0.1-0.9-0.3-1.2s-0.6-0.4-1-0.4c-0.5,0-1,0.2-1.3,0.5s-0.5,0.8-0.5,1.3
					v3.1h-0.6v-3.9c0-0.6,0-1.1-0.1-1.5h0.6l0.1,1c0.2-0.4,0.4-0.6,0.7-0.8s0.7-0.3,1.1-0.3C131.1,154,131.7,154.7,131.7,156.1z"/>
				<path class="st8" d="M136.8,159.1c-0.2-0.8-0.3-1.6-0.3-2.4c0-0.8,0.1-1.6,0.3-2.4c0.2-0.8,0.5-1.6,0.9-2.4h0.6
					c-0.4,0.9-0.6,1.7-0.8,2.5s-0.2,1.5-0.2,2.3s0.1,1.5,0.2,2.3s0.4,1.6,0.8,2.5h-0.6C137.3,160.7,137,159.9,136.8,159.1z"/>
				<path class="st8" d="M140.4,151.9v0.8h-0.9v-0.8H140.4z M139.6,154.1h0.6v5.4h-0.6V154.1z"/>
				<path class="st8" d="M143.2,152.4c-0.2,0.2-0.2,0.5-0.2,0.9v0.8h1.4v0.5H143v4.8h-0.7v-4.8h-1.1v-0.5h1.1v-1
					c0-0.5,0.1-0.9,0.4-1.2c0.3-0.3,0.6-0.4,1.1-0.4c0.2,0,0.4,0,0.7,0.1v0.6c-0.2-0.1-0.4-0.1-0.5-0.1
					C143.6,152.2,143.4,152.2,143.2,152.4z"/>
				<path class="st8" d="M152.8,156.1v3.4h-0.7v-3.4c0-0.5-0.1-0.9-0.3-1.2s-0.6-0.4-1-0.4c-0.5,0-1,0.2-1.3,0.5s-0.5,0.8-0.5,1.3
					v3.1h-0.6v-3.9c0-0.6,0-1.1-0.1-1.5h0.6l0.1,1c0.2-0.4,0.4-0.6,0.7-0.8s0.7-0.3,1.1-0.3C152.2,154,152.8,154.7,152.8,156.1z"/>
				<path class="st8" d="M155,156.7L155,156.7c0,0.8,0.2,1.3,0.5,1.7s0.8,0.6,1.5,0.6c0.6,0,1.2-0.2,1.8-0.7l0.3,0.5
					c-0.2,0.2-0.5,0.4-0.9,0.5s-0.7,0.2-1.1,0.2c-0.8,0-1.5-0.2-1.9-0.7s-0.7-1.2-0.7-2c0-0.6,0.1-1,0.3-1.5s0.5-0.8,0.9-1
					s0.8-0.3,1.3-0.3c0.7,0,1.3,0.2,1.7,0.7s0.6,1.1,0.6,1.9v0.1H155z M155.6,155c-0.3,0.3-0.5,0.7-0.6,1.2h3.4c0-0.6-0.2-1-0.5-1.3
					s-0.7-0.4-1.1-0.4C156.3,154.5,155.9,154.7,155.6,155z"/>
				<path class="st8" d="M160.9,156.7L160.9,156.7c0,0.8,0.2,1.3,0.5,1.7s0.8,0.6,1.5,0.6c0.6,0,1.2-0.2,1.8-0.7l0.3,0.5
					c-0.2,0.2-0.5,0.4-0.9,0.5s-0.7,0.2-1.1,0.2c-0.8,0-1.5-0.2-1.9-0.7s-0.7-1.2-0.7-2c0-0.6,0.1-1,0.3-1.5s0.5-0.8,0.9-1
					s0.8-0.3,1.3-0.3c0.7,0,1.3,0.2,1.7,0.7s0.6,1.1,0.6,1.9v0.1H160.9z M161.5,155c-0.3,0.3-0.5,0.7-0.6,1.2h3.4
					c0-0.6-0.2-1-0.5-1.3s-0.7-0.4-1.1-0.4C162.2,154.5,161.8,154.7,161.5,155z"/>
				<path class="st8" d="M171,151.6v7.9h-0.7v-1c-0.2,0.4-0.4,0.6-0.7,0.8s-0.7,0.3-1.1,0.3c-0.5,0-0.9-0.1-1.2-0.3
					c-0.4-0.2-0.6-0.6-0.8-1s-0.3-0.9-0.3-1.5s0.1-1,0.3-1.5c0.2-0.4,0.5-0.7,0.8-1s0.8-0.3,1.3-0.3c0.4,0,0.8,0.1,1.1,0.3
					s0.6,0.5,0.7,0.8v-3.5H171z M169.8,158.4c0.3-0.4,0.5-0.9,0.5-1.6c0-0.7-0.2-1.2-0.5-1.6s-0.7-0.6-1.3-0.6s-1,0.2-1.3,0.6
					c-0.3,0.4-0.5,0.9-0.5,1.6c0,0.7,0.2,1.2,0.5,1.6c0.3,0.4,0.8,0.6,1.3,0.6S169.5,158.8,169.8,158.4z"/>
				<path class="st8" d="M173.1,156.7L173.1,156.7c0,0.8,0.2,1.3,0.5,1.7s0.8,0.6,1.5,0.6c0.6,0,1.2-0.2,1.8-0.7l0.3,0.5
					c-0.2,0.2-0.5,0.4-0.9,0.5s-0.7,0.2-1.1,0.2c-0.8,0-1.5-0.2-1.9-0.7s-0.7-1.2-0.7-2c0-0.6,0.1-1,0.3-1.5s0.5-0.8,0.9-1
					s0.8-0.3,1.3-0.3c0.7,0,1.3,0.2,1.7,0.7s0.6,1.1,0.6,1.9v0.1H173.1z M173.7,155c-0.3,0.3-0.5,0.7-0.6,1.2h3.4
					c0-0.6-0.2-1-0.5-1.3s-0.7-0.4-1.1-0.4C174.5,154.5,174.1,154.7,173.7,155z"/>
				<path class="st8" d="M183.2,151.6v7.9h-0.7v-1c-0.2,0.4-0.4,0.6-0.7,0.8s-0.7,0.3-1.1,0.3c-0.5,0-0.9-0.1-1.2-0.3
					c-0.4-0.2-0.6-0.6-0.8-1s-0.3-0.9-0.3-1.5s0.1-1,0.3-1.5c0.2-0.4,0.5-0.7,0.8-1s0.8-0.3,1.3-0.3c0.4,0,0.8,0.1,1.1,0.3
					s0.6,0.5,0.7,0.8v-3.5H183.2z M182.1,158.4c0.3-0.4,0.5-0.9,0.5-1.6c0-0.7-0.2-1.2-0.5-1.6s-0.7-0.6-1.3-0.6s-1,0.2-1.3,0.6
					c-0.3,0.4-0.5,0.9-0.5,1.6c0,0.7,0.2,1.2,0.5,1.6c0.3,0.4,0.8,0.6,1.3,0.6S181.8,158.8,182.1,158.4z"/>
				<path class="st8" d="M184.5,161.4c0.4-0.9,0.6-1.7,0.8-2.5s0.2-1.6,0.2-2.3c0-0.8-0.1-1.5-0.2-2.3c-0.2-0.8-0.4-1.6-0.8-2.5h0.6
					c0.4,0.8,0.7,1.6,0.9,2.4s0.3,1.6,0.3,2.4c0,0.8-0.1,1.6-0.3,2.4s-0.5,1.6-0.9,2.4L184.5,161.4L184.5,161.4z"/>
				<path class="st8" d="M71.3,172h4.6v0.6H72v2.9h3.7v0.6H72v3.6h-0.7V172z"/>
				<path class="st8" d="M77.5,176.8L77.5,176.8c0,0.8,0.2,1.3,0.5,1.7s0.8,0.6,1.5,0.6c0.6,0,1.2-0.2,1.8-0.7l0.3,0.5
					c-0.2,0.2-0.5,0.4-0.9,0.5s-0.7,0.2-1.1,0.2c-0.8,0-1.5-0.2-1.9-0.7s-0.7-1.2-0.7-2c0-0.6,0.1-1,0.3-1.5s0.5-0.8,0.9-1
					s0.8-0.3,1.3-0.3c0.7,0,1.3,0.2,1.7,0.7c0.4,0.5,0.6,1.1,0.6,1.9v0.1H77.5z M78.1,175.1c-0.3,0.3-0.5,0.7-0.6,1.2h3.4
					c0-0.6-0.2-1-0.5-1.3s-0.7-0.4-1.1-0.4C78.8,174.6,78.4,174.8,78.1,175.1z"/>
				<path class="st8" d="M87.6,171.7v7.9h-0.7v-1c-0.2,0.4-0.4,0.6-0.7,0.8c-0.3,0.2-0.7,0.3-1.1,0.3c-0.5,0-0.9-0.1-1.2-0.3
					c-0.4-0.2-0.6-0.6-0.8-1c-0.2-0.4-0.3-0.9-0.3-1.5s0.1-1,0.3-1.5c0.2-0.4,0.5-0.7,0.8-1s0.8-0.3,1.3-0.3c0.4,0,0.8,0.1,1.1,0.3
					c0.3,0.2,0.6,0.5,0.7,0.8v-3.5H87.6z M86.5,178.5c0.3-0.4,0.5-0.9,0.5-1.6c0-0.7-0.2-1.2-0.5-1.6s-0.7-0.6-1.3-0.6
					c-0.6,0-1,0.2-1.3,0.6c-0.3,0.4-0.5,0.9-0.5,1.6c0,0.7,0.2,1.2,0.5,1.6c0.3,0.4,0.8,0.6,1.3,0.6S86.2,178.9,86.5,178.5z"/>
				<path class="st8" d="M95.4,179.6h-0.7l-1-2.5c-0.1-0.3-0.3-0.6-0.5-0.7c-0.2-0.1-0.5-0.2-0.9-0.2h-2.1v3.4h-0.7V172h2.9
					c0.8,0,1.4,0.2,1.8,0.5s0.7,0.9,0.7,1.5c0,0.5-0.1,0.9-0.4,1.2s-0.6,0.6-1.1,0.7c0.2,0,0.4,0.1,0.6,0.3s0.3,0.4,0.4,0.7
					L95.4,179.6z M92.4,175.6c1.3,0,1.9-0.5,1.9-1.6c0-1-0.6-1.5-1.9-1.5h-2.3v3.1H92.4z"/>
				<path class="st8" d="M101.9,177.6h-4.1l-0.9,2h-0.7l3.3-7.6h0.6l3.3,7.6h-0.7L101.9,177.6z M101.6,177l-1.8-4.2L98,177H101.6z"
					/>
				<path class="st8" d="M111.8,172v7.6h-0.6v-6.1l-2.7,6.1H108l-2.7-6.1v6.1h-0.6V172h0.5l3,6.8l3-6.8H111.8z"/>
				<path class="st8" d="M113.9,172h2.9c0.8,0,1.4,0.2,1.8,0.6c0.4,0.4,0.7,0.9,0.7,1.5c0,0.7-0.2,1.2-0.7,1.5
					c-0.4,0.4-1,0.6-1.8,0.6h-2.3v3.4h-0.7L113.9,172L113.9,172z M116.8,175.6c0.6,0,1.1-0.1,1.4-0.4c0.3-0.3,0.5-0.6,0.5-1.1
					s-0.2-0.9-0.5-1.1c-0.3-0.3-0.8-0.4-1.4-0.4h-2.2v3.1h2.2V175.6z"/>
				<path class="st8" d="M130.7,172v7.6h-0.6v-6.1l-2.7,6.1h-0.5l-2.7-6.1v6.1h-0.6V172h0.5l3,6.8l3-6.8H130.7z"/>
				<path class="st8" d="M137.2,174.2v5.4h-0.7v-1c-0.2,0.4-0.4,0.6-0.7,0.8s-0.7,0.3-1.1,0.3c-0.5,0-0.9-0.1-1.3-0.3
					s-0.6-0.5-0.8-1c-0.2-0.4-0.3-0.9-0.3-1.5s0.1-1,0.3-1.5s0.5-0.8,0.8-1c0.4-0.2,0.8-0.3,1.2-0.3s0.8,0.1,1.1,0.3
					s0.6,0.5,0.7,0.8v-1H137.2z M136.1,178.5c0.3-0.4,0.5-0.9,0.5-1.6c0-0.7-0.2-1.3-0.5-1.6c-0.3-0.4-0.7-0.6-1.3-0.6
					s-1,0.2-1.3,0.6c-0.3,0.4-0.5,0.9-0.5,1.6c0,0.7,0.2,1.2,0.5,1.6c0.3,0.4,0.8,0.6,1.3,0.6C135.4,179.1,135.8,178.9,136.1,178.5z
					"/>
				<path class="st8" d="M141.8,174.1v0.6c-0.1,0-0.3,0-0.5,0c-0.5,0-0.9,0.2-1.2,0.5s-0.4,0.8-0.4,1.2v3.2h-0.6v-3.9
					c0-0.6,0-1.1-0.1-1.5h0.6l0.1,1c0.1-0.4,0.4-0.6,0.7-0.8s0.6-0.3,1-0.3C141.5,174.1,141.7,174.1,141.8,174.1z"/>
				<path class="st8" d="M146.4,179.6l-3-2.6v2.6h-0.6v-7.9h0.6v5l2.7-2.5h0.8l-2.8,2.6l3.1,2.8L146.4,179.6L146.4,179.6z"/>
				<path class="st8" d="M148.5,176.8L148.5,176.8c0,0.8,0.2,1.3,0.5,1.7s0.8,0.6,1.5,0.6c0.6,0,1.2-0.2,1.8-0.7l0.3,0.5
					c-0.2,0.2-0.5,0.4-0.9,0.5s-0.7,0.2-1.1,0.2c-0.8,0-1.5-0.2-1.9-0.7s-0.7-1.2-0.7-2c0-0.6,0.1-1,0.3-1.5s0.5-0.8,0.9-1
					s0.8-0.3,1.3-0.3c0.7,0,1.3,0.2,1.7,0.7s0.6,1.1,0.6,1.9v0.1H148.5z M149.1,175.1c-0.3,0.3-0.5,0.7-0.6,1.2h3.4
					c0-0.6-0.2-1-0.5-1.3s-0.7-0.4-1.1-0.4C149.8,174.6,149.4,174.8,149.1,175.1z"/>
				<path class="st8" d="M154.9,174.7v3.2c0,0.4,0.1,0.7,0.2,0.9c0.2,0.2,0.4,0.2,0.7,0.2c0.2,0,0.4,0,0.6-0.1v0.6
					c-0.2,0.1-0.5,0.1-0.7,0.1c-0.5,0-0.8-0.1-1.1-0.4c-0.3-0.3-0.4-0.7-0.4-1.2v-3.3h-1.1v-0.5h1.1v-1.4l0.7-0.2v1.7h1.6v0.5h-1.6
					V174.7z"/>
				<path class="st8" d="M161.4,174.4c0.4,0.2,0.6,0.6,0.8,1s0.3,0.9,0.3,1.5s-0.1,1-0.3,1.5c-0.2,0.4-0.5,0.7-0.8,1
					c-0.4,0.2-0.8,0.3-1.3,0.3s-0.8-0.1-1.2-0.3c-0.3-0.2-0.6-0.5-0.7-0.9v3.4h-0.6v-6.2c0-0.6,0-1.1-0.1-1.5h0.6l0.1,1.1
					c0.2-0.4,0.4-0.7,0.7-0.9s0.7-0.3,1.2-0.3C160.6,174.1,161.1,174.2,161.4,174.4z M161.4,178.5c0.3-0.4,0.5-0.9,0.5-1.6
					c0-0.7-0.2-1.2-0.5-1.6c-0.3-0.4-0.8-0.6-1.3-0.6c-0.6,0-1,0.2-1.3,0.6c-0.3,0.4-0.5,0.9-0.5,1.6c0,0.7,0.2,1.2,0.5,1.6
					c0.3,0.4,0.7,0.6,1.3,0.6C160.6,179.1,161.1,178.9,161.4,178.5z"/>
				<path class="st8" d="M164,171.7h0.6v7.9H164V171.7z"/>
				<path class="st8" d="M171.1,174.2v5.4h-0.7v-1c-0.2,0.4-0.4,0.6-0.7,0.8s-0.7,0.3-1.1,0.3c-0.5,0-0.9-0.1-1.3-0.3
					s-0.6-0.5-0.8-1c-0.2-0.4-0.3-0.9-0.3-1.5s0.1-1,0.3-1.5s0.5-0.8,0.8-1c0.4-0.2,0.8-0.3,1.2-0.3s0.8,0.1,1.1,0.3
					s0.6,0.5,0.7,0.8v-1H171.1z M170,178.5c0.3-0.4,0.5-0.9,0.5-1.6c0-0.7-0.2-1.3-0.5-1.6c-0.3-0.4-0.7-0.6-1.3-0.6s-1,0.2-1.3,0.6
					c-0.3,0.4-0.5,0.9-0.5,1.6c0,0.7,0.2,1.2,0.5,1.6c0.3,0.4,0.8,0.6,1.3,0.6S169.7,178.9,170,178.5z"/>
				<path class="st8" d="M173.8,179.3c-0.4-0.2-0.7-0.6-0.9-1s-0.3-0.9-0.3-1.5s0.1-1,0.3-1.5c0.2-0.4,0.5-0.8,0.9-1
					s0.8-0.3,1.3-0.3c0.4,0,0.7,0.1,1,0.2c0.3,0.1,0.6,0.3,0.8,0.5l-0.3,0.5c-0.3-0.2-0.5-0.4-0.8-0.5s-0.5-0.2-0.8-0.2
					c-0.6,0-1,0.2-1.4,0.6c-0.3,0.4-0.5,0.9-0.5,1.6c0,0.7,0.2,1.2,0.5,1.6c0.3,0.4,0.8,0.6,1.4,0.6c0.3,0,0.5-0.1,0.8-0.2
					c0.3-0.1,0.5-0.3,0.8-0.5l0.3,0.5c-0.2,0.2-0.5,0.4-0.9,0.5c-0.3,0.1-0.7,0.2-1,0.2C174.6,179.7,174.2,179.6,173.8,179.3z"/>
				<path class="st8" d="M178.6,176.8L178.6,176.8c0,0.8,0.2,1.3,0.5,1.7s0.8,0.6,1.5,0.6c0.6,0,1.2-0.2,1.8-0.7l0.3,0.5
					c-0.2,0.2-0.5,0.4-0.9,0.5s-0.7,0.2-1.1,0.2c-0.8,0-1.5-0.2-1.9-0.7s-0.7-1.2-0.7-2c0-0.6,0.1-1,0.3-1.5s0.5-0.8,0.9-1
					s0.8-0.3,1.3-0.3c0.7,0,1.3,0.2,1.7,0.7s0.6,1.1,0.6,1.9v0.1H178.6z M179.2,175.1c-0.3,0.3-0.5,0.7-0.6,1.2h3.4
					c0-0.6-0.2-1-0.5-1.3s-0.7-0.4-1.1-0.4C179.9,174.6,179.5,174.8,179.2,175.1z"/>
				<path class="st8" d="M187,172h2.5c1.2,0,2.2,0.3,2.8,1c0.7,0.7,1,1.6,1,2.8s-0.3,2.2-1,2.8s-1.6,1-2.8,1H187V172z M189.4,179
					c1,0,1.8-0.3,2.3-0.8s0.8-1.4,0.8-2.4c0-2.2-1-3.2-3.1-3.2h-1.8v6.5h1.8V179z"/>
				<path class="st8" d="M195.2,176.8L195.2,176.8c0,0.8,0.2,1.3,0.5,1.7s0.8,0.6,1.5,0.6c0.6,0,1.2-0.2,1.8-0.7l0.3,0.5
					c-0.2,0.2-0.5,0.4-0.9,0.5s-0.7,0.2-1.1,0.2c-0.8,0-1.5-0.2-1.9-0.7s-0.7-1.2-0.7-2c0-0.6,0.1-1,0.3-1.5s0.5-0.8,0.9-1
					s0.8-0.3,1.3-0.3c0.7,0,1.3,0.2,1.7,0.7s0.6,1.1,0.6,1.9v0.1H195.2z M195.8,175.1c-0.3,0.3-0.5,0.7-0.6,1.2h3.4
					c0-0.6-0.2-1-0.5-1.3s-0.7-0.4-1.1-0.4C196.6,174.6,196.2,174.8,195.8,175.1z"/>
				<path class="st8" d="M200.4,179l0.2-0.5c0.3,0.2,0.6,0.4,0.9,0.5s0.6,0.1,1,0.1s0.8-0.1,1-0.2c0.2-0.2,0.3-0.4,0.3-0.7
					c0-0.2-0.1-0.4-0.2-0.6c-0.2-0.1-0.4-0.3-0.8-0.3l-0.9-0.2c-0.4-0.1-0.8-0.3-1-0.5s-0.4-0.6-0.4-0.9c0-0.5,0.2-0.8,0.5-1.1
					s0.8-0.4,1.4-0.4c0.4,0,0.7,0.1,1.1,0.2s0.6,0.3,0.8,0.5l-0.2,0.5c-0.5-0.4-1-0.6-1.6-0.6c-0.4,0-0.7,0.1-1,0.2
					c-0.2,0.2-0.3,0.4-0.3,0.7c0,0.2,0.1,0.4,0.2,0.6c0.1,0.1,0.4,0.3,0.7,0.3l0.9,0.2c1,0.2,1.4,0.7,1.4,1.4c0,0.5-0.2,0.8-0.6,1.1
					c-0.4,0.3-0.9,0.4-1.5,0.4C201.6,179.7,200.9,179.4,200.4,179z"/>
				<path class="st8" d="M206.9,172v0.8H206V172H206.9z M206.1,174.2h0.6v5.4h-0.6V174.2z"/>
				<path class="st8" d="M213.2,174.2v5.4c0,0.8-0.2,1.4-0.6,1.8s-1,0.6-1.7,0.6c-0.8,0-1.5-0.2-2.1-0.6l0.1-0.6
					c0.4,0.2,0.7,0.4,1,0.4c0.3,0.1,0.6,0.1,1,0.1c0.5,0,0.9-0.1,1.2-0.4s0.4-0.7,0.4-1.3v-1.4c-0.2,0.4-0.4,0.6-0.7,0.8
					s-0.7,0.3-1.2,0.3s-0.9-0.1-1.3-0.3c-0.4-0.2-0.6-0.5-0.9-0.9c-0.2-0.4-0.3-0.9-0.3-1.4s0.1-1,0.3-1.4s0.5-0.7,0.9-0.9
					s0.8-0.3,1.3-0.3s0.8,0.1,1.2,0.3c0.3,0.2,0.6,0.5,0.7,0.8v-1L213.2,174.2L213.2,174.2z M212.1,178.3c0.3-0.4,0.5-0.9,0.5-1.5
					s-0.2-1.2-0.5-1.5c-0.3-0.4-0.8-0.6-1.3-0.6c-0.6,0-1,0.2-1.3,0.6c-0.3,0.4-0.5,0.9-0.5,1.5c0,0.7,0.2,1.2,0.5,1.5
					c0.3,0.4,0.8,0.6,1.3,0.6C211.3,178.8,211.7,178.7,212.1,178.3z"/>
				<path class="st8" d="M219.5,176.2v3.4h-0.7v-3.4c0-0.5-0.1-0.9-0.3-1.2s-0.6-0.4-1-0.4c-0.5,0-1,0.2-1.3,0.5s-0.5,0.8-0.5,1.3
					v3.1H215v-3.9c0-0.6,0-1.1-0.1-1.5h0.6l0.1,1c0.2-0.4,0.4-0.6,0.7-0.8s0.7-0.3,1.1-0.3C218.8,174.1,219.5,174.8,219.5,176.2z"/>
				<path class="st8" d="M225.8,174.2v5.4h-0.7v-1c-0.2,0.4-0.4,0.6-0.7,0.8s-0.7,0.3-1.1,0.3c-0.5,0-0.9-0.1-1.3-0.3
					c-0.4-0.2-0.6-0.5-0.8-1c-0.2-0.4-0.3-0.9-0.3-1.5s0.1-1,0.3-1.5s0.5-0.8,0.8-1c0.4-0.2,0.8-0.3,1.2-0.3s0.8,0.1,1.1,0.3
					s0.6,0.5,0.7,0.8v-1H225.8z M224.7,178.5c0.3-0.4,0.5-0.9,0.5-1.6c0-0.7-0.2-1.3-0.5-1.6c-0.3-0.4-0.7-0.6-1.3-0.6
					s-1,0.2-1.3,0.6c-0.3,0.4-0.5,0.9-0.5,1.6c0,0.7,0.2,1.2,0.5,1.6s0.8,0.6,1.3,0.6C224,179.1,224.4,178.9,224.7,178.5z"/>
				<path class="st8" d="M228.6,174.7v3.2c0,0.4,0.1,0.7,0.2,0.9c0.2,0.2,0.4,0.2,0.7,0.2c0.2,0,0.4,0,0.6-0.1v0.6
					c-0.2,0.1-0.5,0.1-0.7,0.1c-0.5,0-0.8-0.1-1.1-0.4c-0.3-0.3-0.4-0.7-0.4-1.2v-3.3h-1.1v-0.5h1.1v-1.4l0.7-0.2v1.7h1.6v0.5h-1.6
					V174.7z"/>
				<path class="st8" d="M232.1,172v0.8h-0.9V172H232.1z M231.3,174.2h0.6v5.4h-0.6V174.2z"/>
				<path class="st8" d="M234.7,179.3c-0.4-0.2-0.7-0.6-0.9-1s-0.3-0.9-0.3-1.5s0.1-1,0.3-1.5c0.2-0.4,0.5-0.7,0.9-1
					c0.4-0.2,0.8-0.3,1.3-0.3s0.9,0.1,1.3,0.3c0.4,0.2,0.7,0.6,0.9,1s0.3,0.9,0.3,1.5s-0.1,1-0.3,1.5c-0.2,0.4-0.5,0.7-0.9,1
					c-0.4,0.2-0.8,0.3-1.3,0.3C235.5,179.7,235,179.6,234.7,179.3z M237.3,178.5c0.3-0.4,0.5-0.9,0.5-1.6c0-0.7-0.2-1.2-0.5-1.6
					s-0.8-0.6-1.3-0.6c-0.6,0-1,0.2-1.3,0.6s-0.5,0.9-0.5,1.6c0,0.7,0.2,1.3,0.5,1.6c0.3,0.4,0.7,0.6,1.3,0.6
					C236.5,179.1,237,178.9,237.3,178.5z"/>
				<path class="st8" d="M244.3,176.2v3.4h-0.7v-3.4c0-0.5-0.1-0.9-0.3-1.2s-0.6-0.4-1-0.4c-0.5,0-1,0.2-1.3,0.5s-0.5,0.8-0.5,1.3
					v3.1h-0.6v-3.9c0-0.6,0-1.1-0.1-1.5h0.6l0.1,1c0.2-0.4,0.4-0.6,0.7-0.8s0.7-0.3,1.1-0.3C243.7,174.1,244.3,174.8,244.3,176.2z"
					/>
				<path class="st8" d="M248.1,176.5h5.4v0.5h-5.4V176.5z"/>
				<path class="st8" d="M77.2,193h-0.7l-1-2.5c-0.1-0.3-0.3-0.6-0.5-0.7c-0.2-0.1-0.5-0.2-0.9-0.2H72v3.4h-0.7v-7.6h2.9
					c0.8,0,1.4,0.2,1.8,0.5s0.7,0.9,0.7,1.5c0,0.5-0.1,0.9-0.4,1.2s-0.6,0.6-1.1,0.7c0.2,0,0.4,0.1,0.6,0.3s0.3,0.4,0.4,0.7
					L77.2,193z M74.2,189c1.3,0,1.9-0.5,1.9-1.6c0-1-0.6-1.5-1.9-1.5H72v3.1H74.2z"/>
				<path class="st8" d="M79,190.2L79,190.2c0,0.8,0.2,1.3,0.5,1.7s0.8,0.6,1.5,0.6c0.6,0,1.2-0.2,1.8-0.7l0.3,0.5
					c-0.2,0.2-0.5,0.4-0.9,0.5s-0.7,0.2-1.1,0.2c-0.8,0-1.5-0.2-1.9-0.7s-0.7-1.2-0.7-2c0-0.6,0.1-1,0.3-1.5s0.5-0.8,0.9-1
					s0.8-0.3,1.3-0.3c0.7,0,1.3,0.2,1.7,0.7c0.4,0.5,0.6,1.1,0.6,1.9v0.1H79z M79.6,188.5c-0.3,0.3-0.5,0.7-0.6,1.2h3.4
					c0-0.6-0.2-1-0.5-1.3s-0.7-0.4-1.1-0.4C80.3,188,79.9,188.2,79.6,188.5z"/>
				<path class="st8" d="M89.1,187.6v5.4h-0.7v-1c-0.2,0.4-0.4,0.6-0.7,0.8c-0.3,0.2-0.7,0.3-1.1,0.3c-0.5,0-0.9-0.1-1.3-0.3
					s-0.6-0.5-0.8-1c-0.2-0.4-0.3-0.9-0.3-1.5s0.1-1,0.3-1.5s0.5-0.8,0.8-1c0.4-0.2,0.8-0.3,1.2-0.3c0.4,0,0.8,0.1,1.1,0.3
					c0.3,0.2,0.6,0.5,0.7,0.8v-1H89.1z M88,191.9c0.3-0.4,0.5-0.9,0.5-1.6c0-0.7-0.2-1.3-0.5-1.6c-0.3-0.4-0.7-0.6-1.3-0.6
					s-1,0.2-1.3,0.6c-0.3,0.4-0.5,0.9-0.5,1.6c0,0.7,0.2,1.2,0.5,1.6c0.3,0.4,0.8,0.6,1.3,0.6S87.7,192.3,88,191.9z"/>
				<path class="st8" d="M95.5,185.1v7.9h-0.7v-1c-0.2,0.4-0.4,0.6-0.7,0.8c-0.3,0.2-0.7,0.3-1.1,0.3c-0.5,0-0.9-0.1-1.2-0.3
					c-0.4-0.2-0.6-0.6-0.8-1c-0.2-0.4-0.3-0.9-0.3-1.5s0.1-1,0.3-1.5c0.2-0.4,0.5-0.7,0.8-1s0.8-0.3,1.3-0.3c0.4,0,0.8,0.1,1.1,0.3
					c0.3,0.2,0.6,0.5,0.7,0.8v-3.5H95.5z M94.4,191.9c0.3-0.4,0.5-0.9,0.5-1.6c0-0.7-0.2-1.2-0.5-1.6s-0.7-0.6-1.3-0.6
					c-0.6,0-1,0.2-1.3,0.6c-0.3,0.4-0.5,0.9-0.5,1.6c0,0.7,0.2,1.2,0.5,1.6c0.3,0.4,0.8,0.6,1.3,0.6S94,192.3,94.4,191.9z"/>
				<path class="st8" d="M101.9,187.6l-2.5,5.9c-0.2,0.6-0.6,1-0.9,1.3c-0.4,0.3-0.8,0.5-1.4,0.6l-0.1-0.5c0.5-0.1,0.9-0.3,1.2-0.5
					s0.5-0.5,0.7-0.9l0.2-0.5l-2.3-5.4h0.7l1.9,4.7l2-4.7L101.9,187.6L101.9,187.6z"/>
			</g>
		</g>
		<g>
			<g>
				<path class="st1" d="M50.4,79.8l-1.8-2.6c-0.2,0-0.3,0-0.5,0H46v2.6h-1.2v-8.4h3.3c2.2,0,3.5,1.1,3.5,2.9c0,1.3-0.7,2.2-1.9,2.7
					l2,2.8H50.4z M50.4,74.3c0-1.2-0.8-1.9-2.4-1.9h-2v3.8h2C49.6,76.2,50.4,75.5,50.4,74.3z"/>
				<path class="st1" d="M59.2,77H54c0.1,1.1,1,1.9,2.3,1.9c0.7,0,1.4-0.3,1.8-0.8l0.6,0.7c-0.6,0.7-1.5,1-2.5,1
					c-2.1,0-3.4-1.4-3.4-3.3s1.4-3.3,3.2-3.3s3.2,1.3,3.2,3.3C59.3,76.8,59.2,76.9,59.2,77z M54.1,76.2h4.1c-0.1-1.1-0.9-1.8-2-1.8
					C55,74.4,54.2,75.1,54.1,76.2z"/>
				<path class="st1" d="M65.9,76v3.9h-1.1V79c-0.4,0.6-1.1,0.9-2.1,0.9c-1.4,0-2.4-0.8-2.4-1.9c0-1,0.7-1.9,2.6-1.9h1.8v-0.2
					c0-1-0.6-1.5-1.7-1.5c-0.8,0-1.5,0.3-2,0.7l-0.5-0.9c0.7-0.5,1.6-0.8,2.6-0.8C64.9,73.4,65.9,74.2,65.9,76z M64.7,77.9V77h-1.8
					c-1.1,0-1.5,0.4-1.5,1s0.5,1,1.4,1S64.4,78.6,64.7,77.9z"/>
				<path class="st1" d="M74.2,70.9v8.9h-1.1v-1c-0.5,0.7-1.3,1.1-2.3,1.1c-1.9,0-3.2-1.3-3.2-3.3s1.4-3.3,3.2-3.3
					c0.9,0,1.7,0.3,2.2,1v-3.5h1.2V70.9z M73.1,76.6c0-1.4-0.9-2.2-2.1-2.2s-2.2,0.9-2.2,2.2s0.9,2.3,2.2,2.3
					C72.1,78.9,73.1,78,73.1,76.6z"/>
				<path class="st1" d="M76.3,71.5c0-0.4,0.3-0.8,0.8-0.8c0.4,0,0.8,0.3,0.8,0.7c0,0.4-0.3,0.8-0.8,0.8
					C76.7,72.2,76.3,71.9,76.3,71.5z M76.5,73.4h1.2v6.4h-1.2V73.4z"/>
				<path class="st1" d="M86.1,76.2v3.7h-1.2v-3.5c0-1.3-0.6-1.9-1.7-1.9c-1.2,0-2,0.7-2,2.1v3.3H80v-6.4h1.1v1c0.5-0.7,1.3-1,2.3-1
					C85,73.4,86.1,74.3,86.1,76.2z"/>
				<path class="st1" d="M94.1,77h-5.2c0.1,1.1,1,1.9,2.3,1.9c0.7,0,1.4-0.3,1.8-0.8l0.6,0.7c-0.6,0.7-1.5,1-2.5,1
					c-2.1,0-3.4-1.4-3.4-3.3s1.4-3.3,3.2-3.3s3.2,1.3,3.2,3.3C94.1,76.8,94.1,76.9,94.1,77z M88.9,76.2H93c-0.1-1.1-0.9-1.8-2-1.8
					C89.9,74.4,89.1,75.1,88.9,76.2z"/>
				<path class="st1" d="M95.1,79.2l0.5-0.9c0.5,0.4,1.4,0.7,2.2,0.7c1.1,0,1.5-0.3,1.5-0.9c0-1.4-4-0.2-4-2.7c0-1.1,1-1.9,2.7-1.9
					c0.8,0,1.8,0.2,2.3,0.6L99.8,75c-0.6-0.4-1.2-0.5-1.8-0.5c-1,0-1.5,0.4-1.5,0.9c0,1.5,4,0.3,4,2.8c0,1.2-1.1,1.9-2.8,1.9
					C96.6,79.9,95.6,79.6,95.1,79.2z"/>
				<path class="st1" d="M101.2,79.2l0.5-0.9c0.5,0.4,1.4,0.7,2.2,0.7c1.1,0,1.5-0.3,1.5-0.9c0-1.4-4-0.2-4-2.7c0-1.1,1-1.9,2.7-1.9
					c0.8,0,1.8,0.2,2.3,0.6l-0.5,0.9c-0.6-0.4-1.2-0.5-1.8-0.5c-1,0-1.5,0.4-1.5,0.9c0,1.5,4.1,0.3,4.1,2.8c0,1.2-1.1,1.9-2.8,1.9
					C102.8,79.9,101.8,79.6,101.2,79.2z"/>
				<path class="st1" d="M117.1,77.7h-4.5l-0.9,2.1h-1.2l3.8-8.4h1.2l3.8,8.4H118L117.1,77.7z M116.7,76.8l-1.8-4.1l-1.8,4.1H116.7z
					"/>
				<path class="st1" d="M119.6,79.2l0.5-0.9c0.5,0.4,1.4,0.7,2.2,0.7c1.1,0,1.5-0.3,1.5-0.9c0-1.4-4-0.2-4-2.7c0-1.1,1-1.9,2.7-1.9
					c0.8,0,1.8,0.2,2.3,0.6l-0.5,0.9c-0.6-0.4-1.2-0.5-1.8-0.5c-1,0-1.5,0.4-1.5,0.9c0,1.5,4,0.3,4,2.8c0,1.2-1.1,1.9-2.8,1.9
					C121.2,79.9,120.2,79.6,119.6,79.2z"/>
				<path class="st1" d="M125.8,79.2l0.5-0.9c0.5,0.4,1.4,0.7,2.2,0.7c1.1,0,1.5-0.3,1.5-0.9c0-1.4-4-0.2-4-2.7c0-1.1,1-1.9,2.7-1.9
					c0.8,0,1.8,0.2,2.3,0.6l-0.5,0.9c-0.6-0.4-1.2-0.5-1.8-0.5c-1,0-1.5,0.4-1.5,0.9c0,1.5,4.1,0.3,4.1,2.8c0,1.2-1.1,1.9-2.8,1.9
					C127.4,79.9,126.3,79.6,125.8,79.2z"/>
				<path class="st1" d="M138.5,77h-5.2c0.1,1.1,1,1.9,2.3,1.9c0.7,0,1.4-0.3,1.8-0.8l0.6,0.7c-0.6,0.7-1.5,1-2.5,1
					c-2.1,0-3.4-1.4-3.4-3.3s1.4-3.3,3.2-3.3s3.2,1.3,3.2,3.3C138.6,76.8,138.5,76.9,138.5,77z M133.3,76.2h4.1
					c-0.1-1.1-0.9-1.8-2-1.8C134.3,74.4,133.5,75.1,133.3,76.2z"/>
				<path class="st1" d="M139.5,79.2l0.5-0.9c0.5,0.4,1.4,0.7,2.2,0.7c1.1,0,1.5-0.3,1.5-0.9c0-1.4-4-0.2-4-2.7c0-1.1,1-1.9,2.7-1.9
					c0.8,0,1.8,0.2,2.3,0.6l-0.5,0.9c-0.6-0.4-1.2-0.5-1.8-0.5c-1,0-1.5,0.4-1.5,0.9c0,1.5,4,0.3,4,2.8c0,1.2-1.1,1.9-2.8,1.9
					C141.1,79.9,140,79.6,139.5,79.2z"/>
				<path class="st1" d="M145.6,79.2l0.5-0.9c0.5,0.4,1.4,0.7,2.2,0.7c1.1,0,1.5-0.3,1.5-0.9c0-1.4-4-0.2-4-2.7c0-1.1,1-1.9,2.7-1.9
					c0.8,0,1.8,0.2,2.3,0.6l-0.5,0.9c-0.6-0.4-1.2-0.5-1.8-0.5c-1,0-1.5,0.4-1.5,0.9c0,1.5,4.1,0.3,4.1,2.8c0,1.2-1.1,1.9-2.8,1.9
					C147.2,79.9,146.2,79.6,145.6,79.2z"/>
				<path class="st1" d="M163.2,76.2v3.7H162v-3.5c0-1.3-0.6-1.9-1.7-1.9c-1.2,0-1.9,0.7-1.9,2.1v3.3h-1.2v-3.5
					c0-1.3-0.6-1.9-1.7-1.9c-1.2,0-1.9,0.7-1.9,2.1v3.3h-1.2v-6.4h1.1v1c0.5-0.7,1.2-1,2.2-1s1.8,0.4,2.2,1.2
					c0.5-0.7,1.4-1.2,2.5-1.2C162.2,73.4,163.2,74.3,163.2,76.2z"/>
				<path class="st1" d="M171.3,77h-5.2c0.1,1.1,1,1.9,2.3,1.9c0.7,0,1.4-0.3,1.8-0.8l0.6,0.7c-0.6,0.7-1.5,1-2.5,1
					c-2.1,0-3.4-1.4-3.4-3.3s1.4-3.3,3.2-3.3s3.2,1.3,3.2,3.3C171.3,76.8,171.3,76.9,171.3,77z M166.1,76.2h4.1
					c-0.1-1.1-0.9-1.8-2-1.8C167,74.4,166.2,75.1,166.1,76.2z"/>
				<path class="st1" d="M179.1,76.2v3.7h-1.2v-3.5c0-1.3-0.6-1.9-1.7-1.9c-1.2,0-2,0.7-2,2.1v3.3H173v-6.4h1.1v1
					c0.5-0.7,1.3-1,2.3-1C178,73.4,179.1,74.3,179.1,76.2z"/>
				<path class="st1" d="M184.9,79.5c-0.3,0.3-0.9,0.4-1.4,0.4c-1.3,0-2-0.7-2-2v-3.5h-1.1v-1h1.1V72h1.2v1.4h1.8v1h-1.8v3.5
					c0,0.7,0.4,1.1,1,1.1c0.3,0,0.7-0.1,0.9-0.3L184.9,79.5z"/>
			</g>
		</g>
		<g>
			<path class="st8" d="M43.7,93.9c0-0.3,0-0.5,0-0.8c0.1-1.4,0.6-2.8,1.3-4.2h0.5c-0.4,0.8-0.7,1.5-0.9,2.2s-0.3,1.4-0.4,2
				c0,0.3,0,0.5,0,0.8c0,1.1,0.2,2.2,0.6,3.4h-0.5C43.9,96.2,43.7,95.1,43.7,93.9z"/>
			<path class="st8" d="M47.5,95.3c-0.4-0.2-0.8-0.6-1-1.1s-0.3-1-0.3-1.7s0.1-1.4,0.4-2c0.2-0.6,0.6-1,1.1-1.3s1-0.5,1.6-0.5
				s1.1,0.1,1.6,0.4c0.4,0.3,0.8,0.6,1,1.1s0.3,1,0.3,1.7c0,0.8-0.1,1.4-0.4,2s-0.6,1-1.1,1.3s-1,0.5-1.6,0.5
				C48.4,95.7,47.9,95.6,47.5,95.3z M50.3,94.8c0.4-0.3,0.7-0.6,0.8-1.1c0.2-0.5,0.3-1,0.3-1.7c0-0.8-0.2-1.5-0.6-1.9
				c-0.4-0.4-1-0.7-1.7-0.7c-0.5,0-0.9,0.1-1.3,0.4c-0.4,0.3-0.7,0.6-0.8,1.1c-0.2,0.5-0.3,1-0.3,1.7c0,0.8,0.2,1.5,0.6,1.9
				c0.4,0.4,1,0.7,1.7,0.7C49.5,95.2,50,95,50.3,94.8z"/>
			<path class="st8" d="M56.7,91.1c0.3,0.2,0.5,0.4,0.7,0.8c0.2,0.3,0.3,0.7,0.3,1.2s-0.1,1-0.3,1.4s-0.4,0.7-0.8,0.9
				c-0.3,0.2-0.7,0.3-1.1,0.3c-0.4,0-0.7-0.1-1-0.3c-0.3-0.2-0.5-0.4-0.6-0.7l-0.2,2.9H53l0.4-5.4c0-0.3,0-0.5,0-0.9
				c0-0.2,0-0.3,0-0.4H54v0.8c0.1-0.3,0.4-0.5,0.7-0.7s0.6-0.2,1-0.2C56.1,90.8,56.4,90.9,56.7,91.1z M56.7,94.6
				c0.3-0.4,0.4-0.9,0.4-1.6c0-0.6-0.1-1-0.4-1.3c-0.3-0.3-0.6-0.5-1.1-0.5s-0.9,0.2-1.2,0.6S54,92.7,54,93.4c0,0.6,0.1,1,0.4,1.3
				c0.3,0.3,0.6,0.4,1.1,0.4S56.4,95,56.7,94.6z"/>
			<path class="st8" d="M59.6,94.2c0,0,0,0.1,0,0.2c0,0.3,0.1,0.5,0.2,0.6c0.1,0.1,0.3,0.2,0.6,0.2c0.2,0,0.4,0,0.5-0.1v0.5
				c-0.2,0-0.4,0.1-0.6,0.1c-0.4,0-0.7-0.1-0.9-0.3s-0.3-0.5-0.3-0.9c0-0.1,0-0.1,0-0.2l0.2-2.9h-0.9v-0.5h0.9l0.1-1.2l0.6-0.2
				L59.9,91h1.4v0.5h-1.4L59.6,94.2z"/>
			<path class="st8" d="M62.3,90.9h0.6l-0.4,4.7h-0.6L62.3,90.9z M63.1,89L63,89.7h-0.8l0.1-0.7H63.1z"/>
			<path class="st8" d="M64.9,95.4c-0.3-0.2-0.6-0.5-0.7-0.8s-0.3-0.7-0.3-1.2s0.1-1,0.3-1.4s0.4-0.7,0.8-0.9
				c0.3-0.2,0.7-0.3,1.2-0.3c0.4,0,0.8,0.1,1.1,0.3c0.3,0.2,0.6,0.5,0.7,0.8c0.2,0.3,0.3,0.7,0.3,1.2s-0.1,1-0.3,1.4
				c-0.2,0.4-0.4,0.7-0.8,0.9c-0.3,0.2-0.7,0.3-1.2,0.3C65.6,95.7,65.2,95.6,64.9,95.4z M67.2,94.6c0.3-0.4,0.4-0.9,0.4-1.6
				c0-0.6-0.1-1-0.4-1.3s-0.6-0.5-1.1-0.5s-0.9,0.2-1.2,0.6c-0.3,0.4-0.4,0.9-0.4,1.6c0,0.6,0.1,1,0.4,1.3s0.6,0.4,1.1,0.4
				C66.6,95.2,66.9,95,67.2,94.6z"/>
			<path class="st8" d="M73,91.2c0.3,0.3,0.4,0.7,0.4,1.2c0,0.1,0,0.2,0,0.3l-0.2,3h-0.6l0.2-2.9c0,0,0-0.1,0-0.2
				c0-0.4-0.1-0.7-0.3-0.9c-0.2-0.2-0.5-0.3-0.9-0.3c-0.5,0-0.9,0.1-1.1,0.4S70.1,92.5,70,93l-0.2,2.7h-0.6l0.3-3.4
				c0-0.3,0-0.5,0-0.9c0-0.2,0-0.3,0-0.4H70v0.8c0.2-0.3,0.4-0.5,0.7-0.7c0.3-0.2,0.6-0.2,1-0.2C72.3,90.8,72.7,90.9,73,91.2z"/>
			<path class="st8" d="M79.1,90.9l-0.4,4.7h-0.6l0.1-0.8c-0.1,0.3-0.4,0.5-0.7,0.6c-0.3,0.2-0.6,0.2-0.9,0.2
				c-0.4,0-0.8-0.1-1.1-0.3S75,95,74.9,94.6c-0.2-0.3-0.2-0.7-0.2-1.2s0.1-1,0.3-1.4c0.2-0.4,0.4-0.7,0.8-0.9s0.7-0.3,1.1-0.3
				s0.7,0.1,1,0.3s0.5,0.4,0.6,0.7l0.1-0.9C78.6,90.9,79.1,90.9,79.1,90.9z M77.9,94.6c0.3-0.4,0.4-0.9,0.4-1.6c0-0.6-0.1-1-0.4-1.3
				s-0.6-0.5-1.1-0.5s-0.9,0.2-1.2,0.6s-0.4,0.9-0.4,1.6c0,0.6,0.1,1,0.4,1.3s0.6,0.5,1.1,0.5C77.2,95.2,77.6,95,77.9,94.6z"/>
			<path class="st8" d="M80.8,88.7h0.6l-0.6,6.9h-0.6L80.8,88.7z"/>
			<path class="st8" d="M83.1,94.8v0.6c0,0.2-0.1,0.5-0.2,0.6c-0.1,0.2-0.2,0.4-0.4,0.5l-0.3-0.2c0.2-0.2,0.4-0.5,0.4-0.8h-0.4
				l0.1-0.8h0.8V94.8z"/>
			<path class="st8" d="M90.4,91.1c0.3,0.2,0.5,0.4,0.7,0.8c0.2,0.3,0.3,0.7,0.3,1.2s-0.1,1-0.3,1.4c-0.2,0.4-0.4,0.7-0.8,0.9
				c-0.3,0.2-0.7,0.3-1.1,0.3s-0.7-0.1-1-0.3s-0.5-0.4-0.6-0.7l-0.1,0.9h-0.6l0.6-6.9H88l-0.2,2.9c0.2-0.3,0.4-0.5,0.7-0.6
				c0.3-0.1,0.6-0.2,0.9-0.2C89.7,90.8,90.1,90.9,90.4,91.1z M90.3,94.6c0.3-0.4,0.4-0.9,0.4-1.6c0-0.6-0.1-1-0.4-1.3
				s-0.6-0.5-1.1-0.5s-0.9,0.2-1.2,0.6c-0.3,0.4-0.4,0.9-0.4,1.6c0,0.6,0.1,1,0.4,1.3s0.6,0.4,1.1,0.4S90.1,95,90.3,94.6z"/>
			<path class="st8" d="M96.6,90.9l-0.4,4.7h-0.6l0.1-0.8c-0.2,0.3-0.4,0.5-0.7,0.7c-0.3,0.2-0.6,0.2-0.9,0.2
				c-0.5,0-0.9-0.1-1.2-0.4s-0.4-0.7-0.4-1.2c0-0.1,0-0.2,0-0.2l0.2-2.9h0.6l-0.2,2.9c0,0.1,0,0.1,0,0.2c0,0.8,0.4,1.2,1.1,1.2
				c0.5,0,0.8-0.1,1.1-0.4c0.3-0.3,0.4-0.7,0.5-1.2L96,91L96.6,90.9L96.6,90.9z"/>
			<path class="st8" d="M98.7,94.2c0,0,0,0.1,0,0.2c0,0.3,0.1,0.5,0.2,0.6s0.3,0.2,0.6,0.2c0.2,0,0.4,0,0.5-0.1v0.5
				c-0.2,0-0.4,0.1-0.6,0.1c-0.4,0-0.7-0.1-0.9-0.3s-0.3-0.5-0.3-0.9c0-0.1,0-0.1,0-0.2l0.2-2.9h-0.9v-0.5h0.9l0.1-1.2l0.6-0.2
				L99,91h1.4v0.5H99L98.7,94.2z"/>
			<path class="st8" d="M107,91.2c0.3,0.3,0.4,0.7,0.4,1.2c0,0.1,0,0.2,0,0.3l-0.2,3h-0.6l0.2-2.9c0,0,0-0.1,0-0.2
				c0-0.4-0.1-0.7-0.3-0.9c-0.2-0.2-0.5-0.3-0.9-0.3c-0.5,0-0.9,0.1-1.1,0.4s-0.4,0.7-0.5,1.2l-0.2,2.7h-0.6l0.5-6.9h0.6l-0.2,3
				c0.2-0.3,0.4-0.5,0.7-0.6c0.3-0.1,0.6-0.2,1-0.2C106.3,90.8,106.7,90.9,107,91.2z"/>
			<path class="st8" d="M109.1,90.9h0.6l-0.4,4.7h-0.6L109.1,90.9z M109.9,89l-0.1,0.7H109l0.1-0.7H109.9z"/>
			<path class="st8" d="M115.3,90.9l-0.4,4.7c-0.1,1.4-0.8,2.1-2.1,2.1c-0.7,0-1.3-0.2-1.8-0.5l0.2-0.5c0.3,0.2,0.6,0.3,0.8,0.4
				c0.3,0.1,0.5,0.1,0.9,0.1c0.9,0,1.5-0.5,1.5-1.6l0.1-1.1c-0.2,0.3-0.4,0.5-0.7,0.7c-0.3,0.2-0.6,0.2-1,0.2
				c-0.6,0-1.1-0.2-1.5-0.6s-0.6-0.9-0.6-1.6c0-0.5,0.1-0.9,0.3-1.3c0.2-0.4,0.4-0.7,0.8-0.9c0.3-0.2,0.7-0.3,1.2-0.3
				c0.4,0,0.7,0.1,1,0.3s0.5,0.4,0.6,0.7l0.1-0.9h0.6V90.9z M114.1,94.4c0.3-0.4,0.4-0.8,0.4-1.5c0-0.5-0.1-0.9-0.4-1.2
				c-0.3-0.3-0.6-0.4-1.1-0.4s-0.9,0.2-1.2,0.5c-0.3,0.4-0.4,0.9-0.4,1.5c0,0.5,0.1,0.9,0.4,1.2s0.6,0.4,1.1,0.4
				C113.4,95,113.8,94.8,114.1,94.4z"/>
			<path class="st8" d="M120.2,91.2c0.3,0.3,0.4,0.7,0.4,1.2c0,0.1,0,0.2,0,0.3l-0.2,3h-0.6l0.2-2.9c0,0,0-0.1,0-0.2
				c0-0.4-0.1-0.7-0.3-0.9c-0.2-0.2-0.5-0.3-0.9-0.3c-0.5,0-0.9,0.1-1.1,0.4s-0.4,0.7-0.5,1.2l-0.2,2.7h-0.6l0.5-6.9h0.6l-0.2,3
				c0.2-0.3,0.4-0.5,0.7-0.6c0.3-0.1,0.6-0.2,1-0.2C119.5,90.8,119.9,90.9,120.2,91.2z"/>
			<path class="st8" d="M122.4,88.7h0.6l-0.6,6.9h-0.6L122.4,88.7z"/>
			<path class="st8" d="M128.4,90.9l-2.6,5.2c-0.3,0.5-0.6,0.9-0.9,1.1s-0.8,0.4-1.3,0.5l-0.1-0.5c0.5-0.1,0.8-0.2,1-0.4
				s0.5-0.4,0.6-0.8l0.2-0.5l-1.6-4.7h0.6l1.4,4.1l2-4.1h0.7V90.9z"/>
			<path class="st8" d="M134.1,90.8l-0.1,0.5c-0.1,0-0.3,0-0.4,0c-0.5,0-0.9,0.2-1.1,0.5c-0.3,0.3-0.4,0.7-0.4,1.1l-0.2,2.8h-0.6
				l0.3-3.4c0-0.4,0-0.7,0-0.9c0-0.2,0-0.3,0-0.4h0.5v0.8c0.1-0.3,0.4-0.5,0.6-0.6c0.3-0.2,0.6-0.2,0.9-0.2
				C133.9,90.8,134,90.8,134.1,90.8z"/>
			<path class="st8" d="M135,93.2c0,0.1,0,0.1,0,0.2c0,0.5,0.1,1,0.4,1.3c0.3,0.3,0.7,0.5,1.2,0.5c0.3,0,0.6,0,0.8-0.1
				c0.3-0.1,0.5-0.2,0.8-0.4l0.2,0.4c-0.2,0.2-0.4,0.3-0.8,0.5s-0.7,0.2-1,0.2c-0.7,0-1.2-0.2-1.6-0.6c-0.4-0.4-0.6-1-0.6-1.6
				c0-0.5,0.1-1,0.3-1.4s0.5-0.7,0.8-0.9c0.3-0.2,0.8-0.3,1.2-0.3c0.6,0,1.1,0.2,1.4,0.5c0.3,0.3,0.5,0.8,0.5,1.5c0,0.1,0,0.3,0,0.4
				H135V93.2z M135.6,91.7c-0.3,0.3-0.5,0.6-0.6,1.1h3c0-0.5-0.1-0.8-0.3-1.1c-0.2-0.3-0.6-0.4-1-0.4
				C136.3,91.3,135.9,91.4,135.6,91.7z"/>
			<path class="st8" d="M140.5,95.4c-0.3-0.2-0.6-0.5-0.7-0.8s-0.3-0.7-0.3-1.2s0.1-1,0.3-1.4s0.5-0.7,0.8-0.9s0.8-0.3,1.2-0.3
				c0.3,0,0.6,0.1,0.9,0.2c0.3,0.1,0.5,0.3,0.7,0.5l-0.3,0.4c-0.2-0.2-0.5-0.3-0.7-0.4s-0.5-0.1-0.7-0.1c-0.5,0-1,0.2-1.3,0.6
				s-0.5,0.9-0.5,1.6c0,0.5,0.1,1,0.4,1.3c0.3,0.3,0.7,0.5,1.2,0.5c0.2,0,0.5,0,0.7-0.1s0.4-0.2,0.7-0.4l0.2,0.4
				c-0.2,0.2-0.4,0.3-0.7,0.5c-0.3,0.1-0.6,0.2-0.9,0.2C141.2,95.7,140.8,95.6,140.5,95.4z"/>
			<path class="st8" d="M145.1,95.4c-0.3-0.2-0.6-0.5-0.7-0.8s-0.3-0.7-0.3-1.2s0.1-1,0.3-1.4s0.4-0.7,0.8-0.9
				c0.3-0.2,0.7-0.3,1.2-0.3c0.4,0,0.8,0.1,1.1,0.3c0.3,0.2,0.6,0.5,0.7,0.8c0.2,0.3,0.3,0.7,0.3,1.2s-0.1,1-0.3,1.4
				s-0.4,0.7-0.8,0.9c-0.3,0.2-0.7,0.3-1.2,0.3C145.8,95.7,145.4,95.6,145.1,95.4z M147.4,94.6c0.3-0.4,0.4-0.9,0.4-1.6
				c0-0.6-0.1-1-0.4-1.3s-0.6-0.5-1.1-0.5s-0.9,0.2-1.2,0.6s-0.4,0.9-0.4,1.6c0,0.6,0.1,1,0.4,1.3s0.6,0.4,1.1,0.4
				C146.7,95.2,147.1,95,147.4,94.6z"/>
			<path class="st8" d="M156,91.2c0.2,0.3,0.4,0.6,0.4,1.1c0,0.1,0,0.2,0,0.3l-0.2,3h-0.6l0.2-2.9c0-0.1,0-0.2,0-0.3
				c0-0.4-0.1-0.7-0.2-0.8s-0.4-0.3-0.8-0.3c-0.4,0-0.8,0.1-1,0.4c-0.3,0.3-0.4,0.7-0.4,1.2l-0.2,2.7h-0.6l0.2-2.9
				c0-0.1,0-0.1,0-0.3c0-0.4-0.1-0.7-0.2-0.8c-0.2-0.2-0.4-0.3-0.8-0.3c-0.4,0-0.8,0.1-1,0.4c-0.3,0.3-0.4,0.7-0.4,1.2l-0.2,2.7
				h-0.6l0.3-3.4c0-0.4,0-0.7,0-0.9c0-0.2,0-0.3,0-0.4h0.5v0.8c0.1-0.3,0.3-0.5,0.6-0.7s0.6-0.2,0.9-0.2c0.8,0,1.2,0.3,1.4,0.9
				c0.2-0.3,0.4-0.5,0.7-0.7s0.6-0.2,1-0.2C155.3,90.8,155.7,90.9,156,91.2z"/>
			<path class="st8" d="M164.1,91.2c0.2,0.3,0.4,0.6,0.4,1.1c0,0.1,0,0.2,0,0.3l-0.2,3h-0.6l0.2-2.9c0-0.1,0-0.2,0-0.3
				c0-0.4-0.1-0.7-0.2-0.8s-0.4-0.3-0.8-0.3c-0.4,0-0.8,0.1-1,0.4c-0.3,0.3-0.4,0.7-0.4,1.2l-0.2,2.7h-0.6l0.2-2.9
				c0-0.1,0-0.1,0-0.3c0-0.4-0.1-0.7-0.2-0.8c-0.2-0.2-0.4-0.3-0.8-0.3c-0.4,0-0.8,0.1-1,0.4c-0.3,0.3-0.4,0.7-0.4,1.2l-0.2,2.7
				h-0.6l0.3-3.4c0-0.4,0-0.7,0-0.9c0-0.2,0-0.3,0-0.4h0.5v0.8c0.1-0.3,0.3-0.5,0.6-0.7s0.6-0.2,0.9-0.2c0.8,0,1.2,0.3,1.4,0.9
				c0.2-0.3,0.4-0.5,0.7-0.7s0.6-0.2,1-0.2C163.5,90.8,163.9,90.9,164.1,91.2z"/>
			<path class="st8" d="M166.3,93.2c0,0.1,0,0.1,0,0.2c0,0.5,0.1,1,0.4,1.3c0.3,0.3,0.7,0.5,1.2,0.5c0.3,0,0.6,0,0.8-0.1
				c0.3-0.1,0.5-0.2,0.8-0.4l0.2,0.4c-0.2,0.2-0.4,0.3-0.8,0.5s-0.7,0.2-1,0.2c-0.7,0-1.2-0.2-1.6-0.6c-0.4-0.4-0.6-1-0.6-1.6
				c0-0.5,0.1-1,0.3-1.4s0.5-0.7,0.8-0.9c0.3-0.2,0.8-0.3,1.2-0.3c0.6,0,1.1,0.2,1.4,0.5c0.3,0.3,0.5,0.8,0.5,1.5c0,0.1,0,0.3,0,0.4
				h-3.6V93.2z M166.9,91.7c-0.3,0.3-0.5,0.6-0.6,1.1h3c0-0.5-0.1-0.8-0.3-1.1c-0.2-0.3-0.6-0.4-1-0.4
				C167.5,91.3,167.2,91.4,166.9,91.7z"/>
			<path class="st8" d="M174.6,91.2c0.3,0.3,0.4,0.7,0.4,1.2c0,0.1,0,0.2,0,0.3l-0.2,3h-0.6l0.2-2.9c0,0,0-0.1,0-0.2
				c0-0.4-0.1-0.7-0.3-0.9c-0.2-0.2-0.5-0.3-0.9-0.3c-0.5,0-0.9,0.1-1.1,0.4s-0.4,0.7-0.5,1.2l-0.2,2.7h-0.6l0.3-3.4
				c0-0.3,0-0.5,0-0.9c0-0.2,0-0.3,0-0.4h0.5v0.8c0.2-0.3,0.4-0.5,0.7-0.7s0.6-0.2,1-0.2C173.9,90.8,174.3,90.9,174.6,91.2z"/>
			<path class="st8" d="M180.8,88.7l-0.5,6.9h-0.6l0.1-0.8c-0.1,0.3-0.4,0.5-0.7,0.6c-0.3,0.2-0.6,0.2-0.9,0.2c-0.4,0-0.7-0.1-1-0.3
				s-0.5-0.5-0.7-0.8s-0.2-0.7-0.2-1.2s0.1-1,0.3-1.4s0.4-0.7,0.8-0.9s0.7-0.3,1.1-0.3c0.4,0,0.7,0.1,1,0.3c0.3,0.2,0.5,0.4,0.6,0.7
				l0.2-3.1h0.5V88.7z M179.5,94.6c0.3-0.4,0.4-0.9,0.4-1.6c0-0.6-0.1-1-0.4-1.3c-0.3-0.3-0.6-0.5-1.1-0.5s-0.9,0.2-1.2,0.6
				s-0.4,0.9-0.4,1.6c0,0.6,0.1,1,0.4,1.3c0.3,0.3,0.6,0.5,1.1,0.5S179.2,95,179.5,94.6z"/>
			<path class="st8" d="M182.3,93.2c0,0.1,0,0.1,0,0.2c0,0.5,0.1,1,0.4,1.3c0.3,0.3,0.7,0.5,1.2,0.5c0.3,0,0.6,0,0.8-0.1
				c0.3-0.1,0.5-0.2,0.8-0.4l0.2,0.4c-0.2,0.2-0.4,0.3-0.8,0.5s-0.7,0.2-1,0.2c-0.7,0-1.2-0.2-1.6-0.6c-0.4-0.4-0.6-1-0.6-1.6
				c0-0.5,0.1-1,0.3-1.4s0.5-0.7,0.8-0.9c0.3-0.2,0.8-0.3,1.2-0.3c0.6,0,1.1,0.2,1.4,0.5c0.3,0.3,0.5,0.8,0.5,1.5c0,0.1,0,0.3,0,0.4
				h-3.6V93.2z M182.9,91.7c-0.3,0.3-0.5,0.6-0.6,1.1h3c0-0.5-0.1-0.8-0.3-1.1c-0.2-0.3-0.6-0.4-1-0.4
				C183.6,91.3,183.2,91.4,182.9,91.7z"/>
			<path class="st8" d="M191.5,88.7l-0.5,6.9h-0.6l0.1-0.8c-0.1,0.3-0.4,0.5-0.7,0.6c-0.3,0.2-0.6,0.2-0.9,0.2c-0.4,0-0.7-0.1-1-0.3
				s-0.5-0.5-0.7-0.8s-0.2-0.7-0.2-1.2s0.1-1,0.3-1.4s0.4-0.7,0.8-0.9s0.7-0.3,1.1-0.3c0.4,0,0.7,0.1,1,0.3c0.3,0.2,0.5,0.4,0.6,0.7
				l0.2-3.1h0.5V88.7z M190.1,94.6c0.3-0.4,0.4-0.9,0.4-1.6c0-0.6-0.1-1-0.4-1.3c-0.3-0.3-0.6-0.5-1.1-0.5s-0.9,0.2-1.2,0.6
				s-0.4,0.9-0.4,1.6c0,0.6,0.1,1,0.4,1.3c0.3,0.3,0.6,0.5,1.1,0.5C189.4,95.2,189.8,95,190.1,94.6z"/>
			<path class="st8" d="M191.9,97.3c0.4-0.8,0.7-1.5,0.9-2.2s0.3-1.4,0.4-2c0-0.3,0-0.5,0-0.8c0-1.1-0.2-2.2-0.6-3.4h0.5
				c0.5,1.1,0.7,2.3,0.7,3.4c0,0.2,0,0.5,0,0.8c-0.1,0.7-0.2,1.4-0.4,2.1s-0.5,1.4-0.9,2.1H191.9z"/>
		</g>
		<rect x="52.7" y="115.7" class="st1" width="0.8" height="49.3"/>
		<g>
			<g>
				<circle class="st1" cx="53.1" cy="115.7" r="8.1"/>
			</g>
			<g>
				<path class="st4" d="M54.8,113.5c-0.2,0-0.4-0.2-0.4-0.4v-2.7h-4.1c-0.6,0-1.1,0.5-1.1,1.1v8.5c0,0.6,0.5,1.1,1.1,1.1h6.2
					c0.6,0,1.1-0.5,1.1-1.1v-6.4L54.8,113.5L54.8,113.5z"/>
			</g>
			<path class="st6" d="M54.8,113.5h2.7l-3.1-3.1v2.7C54.4,113.3,54.6,113.4,54.8,113.5z"/>
			<polygon class="st2" points="57.5,115.7 57.5,113.5 54.8,113.5 			"/>
		</g>
		<g>
			<g id="g56755_1_" transform="matrix(14,0,0,14,49637.042,519374.88)">
				<path id="path56757_1_" class="st9" d="M-3541.1-37085.4c0,0.3-0.3,0.6-0.6,0.6l0,0c-0.3,0-0.6-0.3-0.6-0.6l0,0
					c0-0.3,0.3-0.6,0.6-0.6l0,0C-3541.4-37086-3541.1-37085.8-3541.1-37085.4L-3541.1-37085.4z"/>
			</g>
			<path id="path53460_1_" class="st10" d="M56.9,175.1c-2.2,1.1-3.4,3.3-4.5,5.4l-1.5-1.5c-0.8,0.6-1.6,1-2.4,1.5l6.3,6.3
				c3.5-0.8,6.1-3.8,6.3-7.4L56.9,175.1z"/>
			<path id="path38606_1_" class="st4" d="M50.9,178.9c0.4,0.6,0.8,1.4,1.2,2.2c1.2-2.2,2.4-4.8,4.9-6.1c-0.2,1-0.4,2.3-0.1,3.3
				c-2.1,1.1-3.5,3-4.7,5c-1.3-1.8-2.3-2.4-3.6-3C49.3,180,50.1,179.5,50.9,178.9L50.9,178.9z"/>
		</g>
	</g>
	<rect x="10" y="0" class="st11" width="300" height="347.9"/>
</g>
<g id="Layer_5">
	<g>
		<polygon class="st1" points="10,331.9 0,318.8 10,318.8 		"/>
		<polygon class="st1" points="310,331.9 320,318.8 310,318.8 		"/>
		<rect x="10" y="311.7" class="st12" width="300" height="12.4"/>
	</g>
	<g>
		<rect y="153.6" class="st4" width="320" height="165.3"/>
		<g>
			<g>
				<g>
					<path class="st1" d="M30,208.4c-0.4-0.2-0.6-0.5-0.9-0.8c-0.2-0.4-0.3-0.7-0.3-1.2c0-0.4,0.1-0.8,0.3-1.1
						c0.2-0.4,0.5-0.6,0.9-0.9c0.4-0.2,0.8-0.3,1.2-0.3c0.4,0,0.8,0.1,1.2,0.3s0.6,0.5,0.9,0.8s0.3,0.7,0.3,1.2
						c0,0.4-0.1,0.8-0.3,1.2s-0.5,0.6-0.9,0.8s-0.8,0.3-1.2,0.3S30.4,208.6,30,208.4z"/>
					<path class="st1" d="M31.2,208.9c-0.4,0-0.9-0.1-1.2-0.3l0,0c-0.4-0.2-0.7-0.5-0.9-0.9c-0.2-0.4-0.3-0.8-0.3-1.2
						s0.1-0.8,0.3-1.2c0.2-0.4,0.5-0.7,0.9-0.9s0.8-0.3,1.3-0.3c0.4,0,0.8,0.1,1.2,0.3s0.7,0.5,0.9,0.9s0.3,0.8,0.3,1.2
						s-0.1,0.9-0.3,1.2c-0.2,0.4-0.5,0.7-0.9,0.9C32.1,208.8,31.7,208.9,31.2,208.9z M31.2,204.2c-0.4,0-0.8,0.1-1.1,0.3
						c-0.3,0.2-0.6,0.5-0.8,0.8c-0.2,0.3-0.3,0.7-0.3,1.1c0,0.4,0.1,0.8,0.3,1.1c0.2,0.3,0.5,0.6,0.8,0.8l0,0c0.7,0.4,1.5,0.4,2.2,0
						c0.3-0.2,0.6-0.5,0.8-0.8s0.3-0.7,0.3-1.1c0-0.4-0.1-0.8-0.3-1.1s-0.5-0.6-0.8-0.8S31.6,204.2,31.2,204.2z"/>
				</g>
				<path class="st8" d="M53.2,200.7h3.5c0.9,0,1.6,0.2,2.2,0.7c0.5,0.4,0.8,1.1,0.8,1.8c0,0.8-0.3,1.4-0.8,1.9s-1.3,0.7-2.2,0.7H54
					v4.1h-0.8V200.7z M56.7,205.1c0.7,0,1.3-0.2,1.6-0.5s0.6-0.8,0.6-1.4c0-0.6-0.2-1-0.6-1.4c-0.4-0.3-0.9-0.5-1.6-0.5H54v3.7
					L56.7,205.1L56.7,205.1z"/>
				<path class="st8" d="M66.8,203.4v6.5H66v-1.2c-0.2,0.4-0.5,0.8-0.9,1s-0.8,0.3-1.4,0.3s-1.1-0.1-1.5-0.4s-0.8-0.7-1-1.2
					s-0.4-1.1-0.4-1.8s0.1-1.3,0.4-1.8c0.2-0.5,0.6-0.9,1-1.2s0.9-0.4,1.5-0.4c0.5,0,1,0.1,1.4,0.3s0.7,0.6,0.9,1v-1.2L66.8,203.4
					L66.8,203.4z M65.4,208.6c0.4-0.5,0.6-1.1,0.6-2s-0.2-1.5-0.6-2s-0.9-0.7-1.6-0.7c-0.7,0-1.2,0.2-1.6,0.7
					c-0.4,0.5-0.6,1.1-0.6,2c0,0.8,0.2,1.5,0.6,1.9c0.4,0.5,0.9,0.7,1.6,0.7C64.5,209.3,65,209,65.4,208.6z"/>
				<path class="st8" d="M72.3,203.3v0.7c-0.2,0-0.4-0.1-0.6-0.1c-0.7,0-1.1,0.2-1.5,0.6c-0.3,0.4-0.5,0.9-0.5,1.5v3.8H69v-4.7
					c0-0.7,0-1.3-0.1-1.8h0.7l0.1,1.2c0.2-0.4,0.4-0.8,0.8-1s0.8-0.3,1.2-0.3C72,203.3,72.2,203.3,72.3,203.3z"/>
				<path class="st8" d="M75.1,204.1v3.8c0,0.5,0.1,0.9,0.3,1.1c0.2,0.2,0.5,0.3,0.9,0.3c0.2,0,0.5,0,0.7-0.1v0.7
					c-0.3,0.1-0.6,0.1-0.8,0.1c-0.6,0-1-0.2-1.3-0.5s-0.5-0.8-0.5-1.4v-4H73v-0.6h1.3v-1.7l0.8-0.3v2H77v0.6L75.1,204.1L75.1,204.1z
					"/>
				<path class="st8" d="M83.8,205.8v4.1H83v-4.1c0-0.6-0.1-1.1-0.4-1.4c-0.3-0.3-0.7-0.5-1.2-0.5c-0.6,0-1.2,0.2-1.6,0.6
					c-0.4,0.4-0.6,0.9-0.6,1.6v3.7h-0.8v-4.7c0-0.7,0-1.3-0.1-1.8H79l0.1,1.2c0.2-0.4,0.5-0.8,0.9-1s0.9-0.3,1.4-0.3
					C83,203.3,83.8,204.1,83.8,205.8z"/>
				<path class="st8" d="M86.4,206.6L86.4,206.6c0,0.9,0.2,1.6,0.6,2c0.4,0.5,1,0.7,1.7,0.7c0.8,0,1.5-0.3,2.1-0.8l0.3,0.6
					c-0.3,0.3-0.6,0.5-1.1,0.6s-0.9,0.2-1.4,0.2c-1,0-1.8-0.3-2.3-0.9c-0.6-0.6-0.9-1.4-0.9-2.5c0-0.7,0.1-1.2,0.4-1.8
					c0.3-0.5,0.6-0.9,1.1-1.2s1-0.4,1.6-0.4c0.9,0,1.5,0.3,2,0.8c0.5,0.6,0.7,1.3,0.7,2.3v0.2h-4.8V206.6z M87.1,204.4
					c-0.4,0.4-0.6,0.9-0.7,1.5h4.1c-0.1-0.7-0.2-1.2-0.6-1.5c-0.3-0.3-0.8-0.5-1.4-0.5C88,203.9,87.5,204.1,87.1,204.4z"/>
				<path class="st8" d="M96.4,203.3v0.7c-0.2,0-0.4-0.1-0.6-0.1c-0.7,0-1.1,0.2-1.5,0.6c-0.3,0.4-0.5,0.9-0.5,1.5v3.8H93v-4.7
					c0-0.7,0-1.3-0.1-1.8h0.7l0.1,1.2c0.2-0.4,0.4-0.8,0.8-1s0.8-0.3,1.2-0.3C96,203.3,96.2,203.3,96.4,203.3z"/>
				<path class="st8" d="M97.1,209.1l0.3-0.6c0.3,0.3,0.7,0.5,1,0.6s0.8,0.2,1.2,0.2c0.5,0,0.9-0.1,1.2-0.3s0.4-0.5,0.4-0.8
					s-0.1-0.5-0.3-0.7c-0.2-0.2-0.5-0.3-0.9-0.4l-1.1-0.2c-0.5-0.1-0.9-0.3-1.2-0.6c-0.3-0.3-0.4-0.7-0.4-1.1c0-0.6,0.2-1,0.7-1.4
					c0.4-0.3,1-0.5,1.7-0.5c0.5,0,0.9,0.1,1.3,0.2c0.4,0.1,0.7,0.4,1,0.6l-0.3,0.6c-0.6-0.5-1.2-0.8-1.9-0.8c-0.5,0-0.9,0.1-1.2,0.3
					c-0.3,0.2-0.4,0.5-0.4,0.8s0.1,0.5,0.3,0.7s0.4,0.3,0.8,0.4l1.1,0.3c1.2,0.3,1.7,0.8,1.7,1.7c0,0.5-0.2,1-0.7,1.3
					c-0.4,0.3-1.1,0.5-1.8,0.5C98.6,210,97.7,209.7,97.1,209.1z"/>
				<path class="st8" d="M109.3,205.8v4.1h-0.8v-4.1c0-0.6-0.1-1.1-0.4-1.4c-0.3-0.3-0.7-0.5-1.2-0.5c-0.6,0-1.2,0.2-1.6,0.6
					c-0.4,0.4-0.6,0.9-0.6,1.6v3.7H104v-9.5h0.8v4.2c0.2-0.4,0.5-0.7,0.9-1s0.8-0.3,1.3-0.3C108.5,203.3,109.3,204.1,109.3,205.8z"
					/>
				<path class="st8" d="M112.4,200.7v1h-1v-1H112.4z M111.5,203.4h0.8v6.5h-0.8V203.4z"/>
				<path class="st8" d="M119,203.7c0.4,0.3,0.8,0.7,1,1.2s0.4,1.1,0.4,1.8s-0.1,1.3-0.4,1.8c-0.2,0.5-0.6,0.9-1,1.2
					s-0.9,0.4-1.5,0.4c-0.5,0-1-0.1-1.4-0.4c-0.4-0.2-0.7-0.6-0.9-1v4.1h-0.8v-7.5c0-0.7,0-1.3-0.1-1.8h0.7l0.1,1.3
					c0.2-0.5,0.5-0.8,0.9-1.1c0.4-0.2,0.9-0.4,1.4-0.4C118.1,203.3,118.6,203.4,119,203.7z M119,208.6c0.4-0.5,0.6-1.1,0.6-1.9
					c0-0.8-0.2-1.5-0.6-2s-0.9-0.7-1.6-0.7s-1.2,0.2-1.6,0.7s-0.6,1.1-0.6,2c0,0.8,0.2,1.5,0.6,2s0.9,0.7,1.6,0.7
					C118.1,209.3,118.6,209.1,119,208.6z"/>
				<path class="st8" d="M125.7,200.7h5.7v0.7h-4.9v3.5h4.6v0.7h-4.6v3.6h4.9v0.7h-5.7V200.7z"/>
				<path class="st8" d="M132.8,209.1l0.3-0.6c0.3,0.3,0.7,0.5,1,0.6s0.8,0.2,1.2,0.2c0.5,0,0.9-0.1,1.2-0.3s0.4-0.5,0.4-0.8
					s-0.1-0.5-0.3-0.7s-0.5-0.3-0.9-0.4l-1.1-0.2c-0.5-0.1-0.9-0.3-1.2-0.6s-0.4-0.7-0.4-1.1c0-0.6,0.2-1,0.7-1.4
					c0.4-0.3,1-0.5,1.7-0.5c0.5,0,0.9,0.1,1.3,0.2c0.4,0.1,0.7,0.4,1,0.6l-0.3,0.6c-0.6-0.5-1.2-0.8-1.9-0.8c-0.5,0-0.9,0.1-1.2,0.3
					s-0.4,0.5-0.4,0.8s0.1,0.5,0.3,0.7s0.4,0.3,0.8,0.4l1.1,0.3c1.2,0.3,1.7,0.8,1.7,1.7c0,0.5-0.2,1-0.7,1.3
					c-0.4,0.3-1.1,0.5-1.8,0.5C134.2,210,133.4,209.7,132.8,209.1z"/>
				<path class="st8" d="M140.6,204.1v3.8c0,0.5,0.1,0.9,0.3,1.1c0.2,0.2,0.5,0.3,0.9,0.3c0.2,0,0.5,0,0.7-0.1v0.7
					c-0.3,0.1-0.6,0.1-0.8,0.1c-0.6,0-1-0.2-1.3-0.5s-0.5-0.8-0.5-1.4v-4h-1.3v-0.6h1.3v-1.7l0.8-0.3v2h1.9v0.6L140.6,204.1
					L140.6,204.1z"/>
				<path class="st8" d="M149.5,203.4v6.5h-0.8v-1.2c-0.2,0.4-0.5,0.8-0.9,1s-0.8,0.3-1.4,0.3c-0.6,0-1.1-0.1-1.5-0.4
					s-0.8-0.7-1-1.2s-0.4-1.1-0.4-1.8s0.1-1.3,0.4-1.8c0.2-0.5,0.6-0.9,1-1.2s0.9-0.4,1.5-0.4c0.5,0,1,0.1,1.4,0.3s0.7,0.6,0.9,1
					v-1.2L149.5,203.4L149.5,203.4z M148.1,208.6c0.4-0.5,0.6-1.1,0.6-2s-0.2-1.5-0.6-2s-0.9-0.7-1.6-0.7c-0.7,0-1.2,0.2-1.6,0.7
					c-0.4,0.5-0.6,1.1-0.6,2c0,0.8,0.2,1.5,0.6,1.9c0.4,0.5,0.9,0.7,1.6,0.7C147.2,209.3,147.7,209,148.1,208.6z"/>
				<path class="st8" d="M156.2,203.7c0.4,0.3,0.8,0.7,1,1.2s0.4,1.1,0.4,1.8s-0.1,1.3-0.4,1.8c-0.2,0.5-0.6,0.9-1,1.2
					s-0.9,0.4-1.5,0.4c-0.5,0-1-0.1-1.4-0.3s-0.7-0.6-0.9-1v1.3h-0.8v-9.5h0.8v4.2c0.2-0.4,0.5-0.8,0.9-1s0.8-0.3,1.4-0.3
					C155.2,203.3,155.8,203.4,156.2,203.7z M156.2,208.6c0.4-0.5,0.6-1.1,0.6-2c0-0.8-0.2-1.5-0.6-1.9c-0.4-0.5-0.9-0.7-1.6-0.7
					c-0.7,0-1.2,0.2-1.6,0.7s-0.6,1.1-0.6,2s0.2,1.5,0.6,2c0.4,0.5,0.9,0.7,1.6,0.7C155.3,209.3,155.8,209,156.2,208.6z"/>
				<path class="st8" d="M159.4,200.4h0.8v9.5h-0.8V200.4z"/>
				<path class="st8" d="M163.3,200.7v1h-1v-1H163.3z M162.4,203.4h0.8v6.5h-0.8V203.4z"/>
				<path class="st8" d="M165,209.1l0.3-0.6c0.3,0.3,0.7,0.5,1,0.6s0.8,0.2,1.2,0.2c0.5,0,0.9-0.1,1.2-0.3s0.4-0.5,0.4-0.8
					s-0.1-0.5-0.3-0.7s-0.5-0.3-0.9-0.4l-1.1-0.2c-0.5-0.1-0.9-0.3-1.2-0.6s-0.4-0.7-0.4-1.1c0-0.6,0.2-1,0.7-1.4
					c0.4-0.3,1-0.5,1.7-0.5c0.5,0,0.9,0.1,1.3,0.2c0.4,0.1,0.7,0.4,1,0.6l-0.3,0.6c-0.6-0.5-1.2-0.8-1.9-0.8c-0.5,0-0.9,0.1-1.2,0.3
					s-0.4,0.5-0.4,0.8s0.1,0.5,0.3,0.7s0.4,0.3,0.8,0.4l1.1,0.3c1.2,0.3,1.7,0.8,1.7,1.7c0,0.5-0.2,1-0.7,1.3
					c-0.4,0.3-1.1,0.5-1.8,0.5C166.4,210,165.6,209.7,165,209.1z"/>
				<path class="st8" d="M177.2,205.8v4.1h-0.8v-4.1c0-0.6-0.1-1.1-0.4-1.4c-0.3-0.3-0.7-0.5-1.2-0.5c-0.6,0-1.2,0.2-1.6,0.6
					c-0.4,0.4-0.6,0.9-0.6,1.6v3.7h-0.8v-9.5h0.8v4.2c0.2-0.4,0.5-0.7,0.9-1s0.8-0.3,1.3-0.3C176.4,203.3,177.2,204.1,177.2,205.8z"
					/>
				<path class="st8" d="M188.5,205.8v4.1h-0.8v-4.1c0-0.7-0.1-1.1-0.3-1.4c-0.2-0.3-0.6-0.4-1.1-0.4c-0.6,0-1.1,0.2-1.4,0.6
					c-0.3,0.4-0.5,0.9-0.5,1.6v3.7h-0.8v-4.1c0-0.7-0.1-1.1-0.4-1.4c-0.2-0.3-0.6-0.4-1.1-0.4c-0.6,0-1.1,0.2-1.4,0.6
					c-0.3,0.4-0.5,0.9-0.5,1.6v3.7h-0.8v-4.7c0-0.7,0-1.3-0.1-1.8h0.7l0.1,1.2c0.2-0.4,0.4-0.8,0.8-1c0.4-0.2,0.8-0.3,1.2-0.3
					c1,0,1.7,0.4,2,1.3c0.2-0.4,0.5-0.7,0.8-0.9c0.4-0.2,0.8-0.3,1.3-0.3C187.7,203.3,188.5,204.1,188.5,205.8z"/>
				<path class="st8" d="M191,206.6L191,206.6c0,0.9,0.2,1.6,0.6,2c0.4,0.5,1,0.7,1.7,0.7c0.8,0,1.5-0.3,2.1-0.8l0.3,0.6
					c-0.3,0.3-0.6,0.5-1.1,0.6s-0.9,0.2-1.4,0.2c-1,0-1.8-0.3-2.3-0.9c-0.6-0.6-0.9-1.4-0.9-2.5c0-0.7,0.1-1.2,0.4-1.8
					c0.3-0.5,0.6-0.9,1.1-1.2s1-0.4,1.6-0.4c0.9,0,1.5,0.3,2,0.8c0.5,0.6,0.7,1.3,0.7,2.3v0.2H191V206.6z M191.8,204.4
					c-0.4,0.4-0.6,0.9-0.7,1.5h4.1c-0.1-0.7-0.2-1.2-0.6-1.5c-0.3-0.3-0.8-0.5-1.4-0.5C192.6,203.9,192.2,204.1,191.8,204.4z"/>
				<path class="st8" d="M203,205.8v4.1h-0.8v-4.1c0-0.6-0.1-1.1-0.4-1.4c-0.3-0.3-0.7-0.5-1.2-0.5c-0.6,0-1.2,0.2-1.6,0.6
					c-0.4,0.4-0.6,0.9-0.6,1.6v3.7h-0.8v-4.7c0-0.7,0-1.3-0.1-1.8h0.7l0.1,1.2c0.2-0.4,0.5-0.8,0.9-1s0.9-0.3,1.4-0.3
					C202.3,203.3,203,204.1,203,205.8z"/>
				<path class="st8" d="M206.3,204.1v3.8c0,0.5,0.1,0.9,0.3,1.1c0.2,0.2,0.5,0.3,0.9,0.3c0.2,0,0.5,0,0.7-0.1v0.7
					c-0.3,0.1-0.6,0.1-0.8,0.1c-0.6,0-1-0.2-1.3-0.5s-0.5-0.8-0.5-1.4v-4h-1.3v-0.6h1.3v-1.7l0.8-0.3v2h1.9v0.6L206.3,204.1
					L206.3,204.1z"/>
				<g>
					<path class="st1" d="M30,232.6c-0.4-0.2-0.6-0.5-0.9-0.8c-0.2-0.4-0.3-0.7-0.3-1.2c0-0.4,0.1-0.8,0.3-1.1
						c0.2-0.4,0.5-0.6,0.9-0.9c0.4-0.2,0.8-0.3,1.2-0.3c0.4,0,0.8,0.1,1.2,0.3s0.6,0.5,0.9,0.8s0.3,0.7,0.3,1.2
						c0,0.4-0.1,0.8-0.3,1.2s-0.5,0.6-0.9,0.8s-0.8,0.3-1.2,0.3C30.8,232.9,30.4,232.8,30,232.6z"/>
					<path class="st1" d="M31.2,233.1c-0.4,0-0.9-0.1-1.2-0.3l0,0c-0.4-0.2-0.7-0.5-0.9-0.9c-0.2-0.4-0.3-0.8-0.3-1.2
						s0.1-0.8,0.3-1.2c0.2-0.4,0.5-0.7,0.9-0.9s0.8-0.3,1.3-0.3c0.4,0,0.8,0.1,1.2,0.3s0.7,0.5,0.9,0.9s0.3,0.8,0.3,1.2
						s-0.1,0.9-0.3,1.2c-0.2,0.4-0.5,0.7-0.9,0.9S31.7,233.1,31.2,233.1z M31.2,228.5c-0.4,0-0.8,0.1-1.1,0.3
						c-0.3,0.2-0.6,0.5-0.8,0.8c-0.2,0.3-0.3,0.7-0.3,1.1c0,0.4,0.1,0.8,0.3,1.1c0.2,0.3,0.5,0.6,0.8,0.8l0,0c0.7,0.4,1.5,0.4,2.2,0
						c0.3-0.2,0.6-0.5,0.8-0.8s0.3-0.7,0.3-1.1c0-0.4-0.1-0.8-0.3-1.1s-0.5-0.6-0.8-0.8C32,228.5,31.6,228.5,31.2,228.5z"/>
				</g>
				<path class="st8" d="M59.2,231.6h-5l-1.1,2.5h-0.8l4-9.2H57l4,9.2h-0.8L59.2,231.6z M58.9,230.9l-2.2-5.1l-2.2,5.1H58.9z"/>
				<path class="st8" d="M67.7,227.6v6.5H67v-1.2c-0.2,0.4-0.5,0.7-0.9,0.9s-0.8,0.3-1.3,0.3c-0.8,0-1.3-0.2-1.7-0.6
					c-0.4-0.4-0.6-1-0.6-1.9v-4.1h0.8v4c0,0.6,0.1,1.1,0.4,1.4c0.3,0.3,0.7,0.5,1.2,0.5c0.6,0,1.1-0.2,1.5-0.6
					c0.4-0.4,0.6-0.9,0.6-1.6v-3.7h0.7V227.6z"/>
				<path class="st8" d="M71,228.3v3.8c0,0.5,0.1,0.9,0.3,1.1c0.2,0.2,0.5,0.3,0.9,0.3c0.2,0,0.5,0,0.7-0.1v0.7
					c-0.3,0.1-0.6,0.1-0.8,0.1c-0.6,0-1-0.2-1.3-0.5s-0.5-0.8-0.5-1.4v-4H69v-0.6h1.3V226l0.8-0.3v2H73v0.6L71,228.3L71,228.3z"/>
				<path class="st8" d="M79.7,230v4.1h-0.8V230c0-0.6-0.1-1.1-0.4-1.4c-0.3-0.3-0.7-0.5-1.2-0.5c-0.6,0-1.2,0.2-1.6,0.6
					c-0.4,0.4-0.6,0.9-0.6,1.6v3.7h-0.8v-9.5h0.8v4.2c0.2-0.4,0.5-0.7,0.9-1s0.8-0.3,1.3-0.3C78.9,227.5,79.7,228.3,79.7,230z"/>
				<path class="st8" d="M82.9,233.8c-0.5-0.3-0.8-0.7-1-1.2s-0.4-1.1-0.4-1.8s0.1-1.3,0.4-1.8c0.2-0.5,0.6-0.9,1-1.2
					c0.5-0.3,1-0.4,1.6-0.4s1.1,0.1,1.5,0.4s0.8,0.7,1,1.2s0.4,1.1,0.4,1.8s-0.1,1.3-0.4,1.8c-0.2,0.5-0.6,0.9-1,1.2s-1,0.4-1.5,0.4
					C83.9,234.2,83.3,234.1,82.9,233.8z M86,232.8c0.4-0.5,0.6-1.1,0.6-2c0-0.8-0.2-1.5-0.6-2s-0.9-0.7-1.6-0.7s-1.2,0.2-1.6,0.7
					s-0.6,1.1-0.6,2s0.2,1.5,0.6,2s0.9,0.7,1.6,0.7S85.7,233.3,86,232.8z"/>
				<path class="st8" d="M92.6,227.5v0.7c-0.2,0-0.4-0.1-0.6-0.1c-0.7,0-1.1,0.2-1.5,0.6c-0.3,0.4-0.5,0.9-0.5,1.5v3.8h-0.8v-4.7
					c0-0.7,0-1.3-0.1-1.8h0.7l0.1,1.2c0.2-0.4,0.4-0.8,0.8-1s0.8-0.3,1.2-0.3C92.2,227.5,92.4,227.5,92.6,227.5z"/>
				<path class="st8" d="M94.7,225v1h-1v-1H94.7z M93.8,227.6h0.8v6.5h-0.8V227.6z"/>
				<path class="st8" d="M101.8,233.5v0.6h-5.4v-0.5l4.3-5.3h-4.1v-0.6h5.1v0.6l-4.2,5.2H101.8z"/>
				<path class="st8" d="M108.9,227.6v6.5h-0.8v-1.2c-0.2,0.4-0.5,0.8-0.9,1s-0.8,0.3-1.4,0.3s-1.1-0.1-1.5-0.4s-0.8-0.7-1-1.2
					s-0.4-1.1-0.4-1.8s0.1-1.3,0.4-1.8c0.2-0.5,0.6-0.9,1-1.2s0.9-0.4,1.5-0.4c0.5,0,1,0.1,1.4,0.3s0.7,0.6,0.9,1v-1.2L108.9,227.6
					L108.9,227.6z M107.5,232.8c0.4-0.5,0.6-1.1,0.6-2s-0.2-1.5-0.6-2s-0.9-0.7-1.6-0.7s-1.2,0.2-1.6,0.7s-0.6,1.1-0.6,2
					c0,0.8,0.2,1.5,0.6,1.9c0.4,0.5,0.9,0.7,1.6,0.7C106.6,233.5,107.1,233.3,107.5,232.8z"/>
				<path class="st8" d="M112.2,228.3v3.8c0,0.5,0.1,0.9,0.3,1.1c0.2,0.2,0.5,0.3,0.9,0.3c0.2,0,0.5,0,0.7-0.1v0.7
					c-0.3,0.1-0.6,0.1-0.8,0.1c-0.6,0-1-0.2-1.3-0.5s-0.5-0.8-0.5-1.4v-4h-1.3v-0.6h1.3V226l0.8-0.3v2h1.9v0.6L112.2,228.3
					L112.2,228.3z"/>
				<path class="st8" d="M116.4,225v1h-1v-1H116.4z M115.5,227.6h0.8v6.5h-0.8V227.6z"/>
				<path class="st8" d="M119.5,233.8c-0.5-0.3-0.8-0.7-1-1.2s-0.4-1.1-0.4-1.8s0.1-1.3,0.4-1.8c0.2-0.5,0.6-0.9,1-1.2
					c0.5-0.3,1-0.4,1.6-0.4s1.1,0.1,1.5,0.4s0.8,0.7,1,1.2s0.4,1.1,0.4,1.8s-0.1,1.3-0.4,1.8c-0.2,0.5-0.6,0.9-1,1.2s-1,0.4-1.5,0.4
					C120.5,234.2,119.9,234.1,119.5,233.8z M122.6,232.8c0.4-0.5,0.6-1.1,0.6-2c0-0.8-0.2-1.5-0.6-2s-0.9-0.7-1.6-0.7
					s-1.2,0.2-1.6,0.7s-0.6,1.1-0.6,2s0.2,1.5,0.6,2s0.9,0.7,1.6,0.7S122.3,233.3,122.6,232.8z"/>
				<path class="st8" d="M131.2,230v4.1h-0.8V230c0-0.6-0.1-1.1-0.4-1.4c-0.3-0.3-0.7-0.5-1.2-0.5c-0.6,0-1.2,0.2-1.6,0.6
					c-0.4,0.4-0.6,0.9-0.6,1.6v3.7h-0.8v-4.7c0-0.7,0-1.3-0.1-1.8h0.7l0.1,1.2c0.2-0.4,0.5-0.8,0.9-1s0.9-0.3,1.4-0.3
					C130.4,227.5,131.2,228.3,131.2,230z"/>
				<path class="st8" d="M136.8,224.9h3.5c0.9,0,1.6,0.2,2.2,0.7c0.5,0.4,0.8,1.1,0.8,1.8c0,0.8-0.3,1.4-0.8,1.9s-1.3,0.7-2.2,0.7
					h-2.7v4.1h-0.8V224.9z M140.3,229.3c0.7,0,1.3-0.2,1.6-0.5s0.6-0.8,0.6-1.4c0-0.6-0.2-1-0.6-1.4c-0.4-0.3-0.9-0.5-1.6-0.5h-2.7
					v3.7L140.3,229.3L140.3,229.3z"/>
				<path class="st8" d="M145.1,224.6h0.8v9.5h-0.8V224.6z"/>
				<path class="st8" d="M153.6,227.6v6.5h-0.8v-1.2c-0.2,0.4-0.5,0.8-0.9,1s-0.8,0.3-1.4,0.3c-0.6,0-1.1-0.1-1.5-0.4
					s-0.8-0.7-1-1.2s-0.4-1.1-0.4-1.8s0.1-1.3,0.4-1.8c0.2-0.5,0.6-0.9,1-1.2s0.9-0.4,1.5-0.4c0.5,0,1,0.1,1.4,0.3s0.7,0.6,0.9,1
					v-1.2L153.6,227.6L153.6,227.6z M152.2,232.8c0.4-0.5,0.6-1.1,0.6-2s-0.2-1.5-0.6-2s-0.9-0.7-1.6-0.7c-0.7,0-1.2,0.2-1.6,0.7
					c-0.4,0.5-0.6,1.1-0.6,2c0,0.8,0.2,1.5,0.6,1.9c0.4,0.5,0.9,0.7,1.6,0.7C151.3,233.5,151.9,233.3,152.2,232.8z"/>
				<path class="st8" d="M161.1,230v4.1h-0.8V230c0-0.6-0.1-1.1-0.4-1.4c-0.3-0.3-0.7-0.5-1.2-0.5c-0.6,0-1.2,0.2-1.6,0.6
					c-0.4,0.4-0.6,0.9-0.6,1.6v3.7h-0.8v-4.7c0-0.7,0-1.3-0.1-1.8h0.7l0.1,1.2c0.2-0.4,0.5-0.8,0.9-1s0.9-0.3,1.4-0.3
					C160.3,227.5,161.1,228.3,161.1,230z"/>
				<path class="st8" d="M168.6,230v4.1h-0.8V230c0-0.6-0.1-1.1-0.4-1.4c-0.3-0.3-0.7-0.5-1.2-0.5c-0.6,0-1.2,0.2-1.6,0.6
					c-0.4,0.4-0.6,0.9-0.6,1.6v3.7h-0.8v-4.7c0-0.7,0-1.3-0.1-1.8h0.7l0.1,1.2c0.2-0.4,0.5-0.8,0.9-1s0.9-0.3,1.4-0.3
					C167.9,227.5,168.6,228.3,168.6,230z"/>
				<path class="st8" d="M171.8,225v1h-1v-1H171.8z M170.8,227.6h0.8v6.5h-0.8V227.6z"/>
				<path class="st8" d="M179.2,230v4.1h-0.8V230c0-0.6-0.1-1.1-0.4-1.4c-0.3-0.3-0.7-0.5-1.2-0.5c-0.6,0-1.2,0.2-1.6,0.6
					c-0.4,0.4-0.6,0.9-0.6,1.6v3.7h-0.8v-4.7c0-0.7,0-1.3-0.1-1.8h0.7l0.1,1.2c0.2-0.4,0.5-0.8,0.9-1s0.9-0.3,1.4-0.3
					C178.4,227.5,179.2,228.3,179.2,230z"/>
				<path class="st8" d="M186.9,227.6v6.5c0,0.9-0.2,1.6-0.7,2.1s-1.1,0.7-2.1,0.7s-1.8-0.2-2.5-0.7l0.2-0.7
					c0.4,0.2,0.8,0.4,1.2,0.5s0.8,0.2,1.2,0.2c0.6,0,1.1-0.2,1.5-0.5c0.3-0.4,0.5-0.9,0.5-1.5v-1.7c-0.2,0.4-0.5,0.8-0.9,1
					s-0.9,0.4-1.4,0.4c-0.6,0-1.1-0.1-1.5-0.4c-0.4-0.3-0.8-0.6-1-1.1s-0.4-1-0.4-1.7c0-0.6,0.1-1.2,0.4-1.7c0.2-0.5,0.6-0.9,1-1.1
					c0.4-0.3,0.9-0.4,1.5-0.4c0.5,0,1,0.1,1.4,0.3s0.7,0.6,0.9,1v-1.2L186.9,227.6L186.9,227.6z M185.5,232.5
					c0.4-0.4,0.6-1.1,0.6-1.8c0-0.8-0.2-1.4-0.6-1.9c-0.4-0.5-0.9-0.7-1.6-0.7c-0.7,0-1.2,0.2-1.6,0.7c-0.4,0.5-0.6,1.1-0.6,1.9
					s0.2,1.4,0.6,1.8s0.9,0.7,1.6,0.7S185.2,233,185.5,232.5z"/>
				<g>
					<path class="st1" d="M30,256.9c-0.4-0.2-0.6-0.5-0.9-0.8c-0.2-0.4-0.3-0.7-0.3-1.2c0-0.4,0.1-0.8,0.3-1.1
						c0.2-0.4,0.5-0.6,0.9-0.9c0.4-0.2,0.8-0.3,1.2-0.3c0.4,0,0.8,0.1,1.2,0.3s0.6,0.5,0.9,0.8s0.3,0.7,0.3,1.2
						c0,0.4-0.1,0.8-0.3,1.2s-0.5,0.6-0.9,0.8c-0.4,0.2-0.8,0.3-1.2,0.3C30.8,257.2,30.4,257.1,30,256.9z"/>
					<path class="st1" d="M31.2,257.3c-0.4,0-0.9-0.1-1.2-0.3l0,0c-0.4-0.2-0.7-0.5-0.9-0.9c-0.2-0.4-0.3-0.8-0.3-1.2
						s0.1-0.8,0.3-1.2c0.2-0.4,0.5-0.7,0.9-0.9s0.8-0.3,1.3-0.3c0.4,0,0.8,0.1,1.2,0.3s0.7,0.5,0.9,0.9s0.3,0.8,0.3,1.2
						s-0.1,0.9-0.3,1.2c-0.2,0.4-0.5,0.7-0.9,0.9C32.1,257.2,31.7,257.3,31.2,257.3z M31.2,252.7c-0.4,0-0.8,0.1-1.1,0.3
						c-0.3,0.2-0.6,0.5-0.8,0.8c-0.2,0.3-0.3,0.7-0.3,1.1c0,0.4,0.1,0.8,0.3,1.1c0.2,0.3,0.5,0.6,0.8,0.8l0,0c0.7,0.4,1.5,0.4,2.2,0
						c0.3-0.2,0.6-0.5,0.8-0.8s0.3-0.7,0.3-1.1c0-0.4-0.1-0.8-0.3-1.1s-0.5-0.6-0.8-0.8C32,252.8,31.6,252.7,31.2,252.7z"/>
				</g>
				<path class="st8" d="M58.9,258.3l-4.9-4.4v4.4h-0.8v-9.2H54v4.3l4.7-4.3h1.1l-5,4.5l5.2,4.7H58.9z"/>
				<path class="st8" d="M62.1,249.2v1h-1v-1H62.1z M61.1,251.8h0.8v6.5h-0.8V251.8z"/>
				<path class="st8" d="M65.2,258c-0.5-0.3-0.8-0.7-1.1-1.2c-0.2-0.5-0.4-1.1-0.4-1.7c0-0.7,0.1-1.3,0.4-1.8
					c0.2-0.5,0.6-0.9,1.1-1.2s1-0.4,1.6-0.4c0.4,0,0.9,0.1,1.3,0.2c0.4,0.2,0.7,0.4,1,0.6l-0.3,0.6c-0.3-0.3-0.7-0.5-1-0.6
					s-0.6-0.2-0.9-0.2c-0.7,0-1.2,0.2-1.7,0.7c-0.4,0.5-0.6,1.1-0.6,2c0,0.8,0.2,1.5,0.6,1.9c0.4,0.5,1,0.7,1.7,0.7
					c0.3,0,0.6-0.1,0.9-0.2s0.6-0.3,1-0.6l0.3,0.6c-0.3,0.3-0.6,0.5-1,0.6c-0.4,0.2-0.8,0.2-1.2,0.2C66.2,258.4,65.6,258.3,65.2,258
					z"/>
				<path class="st8" d="M74.9,258.3l-3.6-3.2v3.2h-0.8v-9.5h0.8v6l3.3-3h1l-3.4,3.1l3.7,3.4H74.9z"/>
				<path class="st8" d="M76.7,254.5h3.5v0.7h-3.5V254.5z"/>
				<path class="st8" d="M83.5,258c-0.5-0.3-0.8-0.7-1-1.2s-0.4-1.1-0.4-1.8s0.1-1.3,0.4-1.8c0.2-0.5,0.6-0.9,1-1.2
					c0.5-0.3,1-0.4,1.6-0.4s1.1,0.1,1.5,0.4s0.8,0.7,1,1.2s0.4,1.1,0.4,1.8s-0.1,1.3-0.4,1.8c-0.2,0.5-0.6,0.9-1,1.2s-1,0.4-1.5,0.4
					C84.5,258.4,84,258.3,83.5,258z M86.7,257c0.4-0.5,0.6-1.1,0.6-2c0-0.8-0.2-1.5-0.6-2s-0.9-0.7-1.6-0.7s-1.2,0.2-1.6,0.7
					s-0.6,1.1-0.6,2s0.2,1.5,0.6,2s0.9,0.7,1.6,0.7C85.7,257.7,86.3,257.5,86.7,257z"/>
				<path class="st8" d="M91.2,249.8c-0.2,0.2-0.3,0.6-0.3,1.1v1h1.7v0.6h-1.7v5.8h-0.8v-5.8h-1.3v-0.6h1.3v-1.2
					c0-0.6,0.2-1.1,0.5-1.4c0.3-0.3,0.8-0.5,1.3-0.5c0.3,0,0.5,0,0.8,0.1v0.7c-0.2-0.1-0.5-0.1-0.7-0.1
					C91.7,249.5,91.4,249.6,91.2,249.8z"/>
				<path class="st8" d="M95.5,249.8c-0.2,0.2-0.3,0.6-0.3,1.1v1h1.7v0.6h-1.7v5.8h-0.8v-5.8h-1.3v-0.6h1.3v-1.2
					c0-0.6,0.2-1.1,0.5-1.4c0.3-0.3,0.8-0.5,1.3-0.5c0.3,0,0.5,0,0.8,0.1v0.7c-0.2-0.1-0.5-0.1-0.7-0.1
					C96,249.5,95.7,249.6,95.5,249.8z"/>
				<path class="st8" d="M110.4,249.1v9.2h-0.7V251l-3.2,7.4h-0.6l-3.3-7.3v7.3h-0.7v-9.2h0.7l3.6,8.2l3.6-8.2L110.4,249.1
					L110.4,249.1z"/>
				<path class="st8" d="M113.2,255L113.2,255c0,0.9,0.2,1.6,0.6,2c0.4,0.5,1,0.7,1.7,0.7c0.8,0,1.5-0.3,2.1-0.8l0.3,0.6
					c-0.3,0.3-0.6,0.5-1.1,0.6s-0.9,0.2-1.4,0.2c-1,0-1.8-0.3-2.3-0.9c-0.6-0.6-0.9-1.4-0.9-2.5c0-0.7,0.1-1.2,0.4-1.8
					c0.3-0.5,0.6-0.9,1.1-1.2s1-0.4,1.6-0.4c0.9,0,1.5,0.3,2,0.8c0.5,0.6,0.7,1.3,0.7,2.3v0.2h-4.8V255z M113.9,252.9
					c-0.4,0.4-0.6,0.9-0.7,1.5h4.1c-0.1-0.7-0.2-1.2-0.6-1.5c-0.3-0.3-0.8-0.5-1.4-0.5C114.8,252.3,114.3,252.5,113.9,252.9z"/>
				<path class="st8" d="M120.2,255L120.2,255c0,0.9,0.2,1.6,0.6,2c0.4,0.5,1,0.7,1.7,0.7c0.8,0,1.5-0.3,2.1-0.8l0.3,0.6
					c-0.3,0.3-0.6,0.5-1.1,0.6s-0.9,0.2-1.4,0.2c-1,0-1.8-0.3-2.3-0.9c-0.6-0.6-0.9-1.4-0.9-2.5c0-0.7,0.1-1.2,0.4-1.8
					c0.3-0.5,0.6-0.9,1.1-1.2s1-0.4,1.6-0.4c0.9,0,1.5,0.3,2,0.8c0.5,0.6,0.7,1.3,0.7,2.3v0.2h-4.8V255z M121,252.9
					c-0.4,0.4-0.6,0.9-0.7,1.5h4.1c-0.1-0.7-0.2-1.2-0.6-1.5c-0.3-0.3-0.8-0.5-1.4-0.5C121.8,252.3,121.3,252.5,121,252.9z"/>
				<path class="st8" d="M128,252.5v3.8c0,0.5,0.1,0.9,0.3,1.1s0.5,0.3,0.9,0.3c0.2,0,0.5,0,0.7-0.1v0.7c-0.3,0.1-0.6,0.1-0.8,0.1
					c-0.6,0-1-0.2-1.3-0.5s-0.5-0.8-0.5-1.4v-4H126v-0.6h1.3v-1.7l0.8-0.3v2h1.9v0.6H128z"/>
				<path class="st8" d="M132.2,249.2v1h-1v-1H132.2z M131.3,251.8h0.8v6.5h-0.8V251.8z"/>
				<path class="st8" d="M139.7,254.2v4.1h-0.8v-4.1c0-0.6-0.1-1.1-0.4-1.4c-0.3-0.3-0.7-0.5-1.2-0.5c-0.6,0-1.2,0.2-1.6,0.6
					c-0.4,0.4-0.6,0.9-0.6,1.6v3.7h-0.8v-4.7c0-0.7,0-1.3-0.1-1.8h0.7l0.1,1.2c0.2-0.4,0.5-0.8,0.9-1s0.9-0.3,1.4-0.3
					C138.9,251.7,139.7,252.5,139.7,254.2z"/>
				<path class="st8" d="M147.4,251.8v6.5c0,0.9-0.2,1.6-0.7,2.1s-1.1,0.7-2.1,0.7s-1.8-0.2-2.5-0.7l0.2-0.7
					c0.4,0.2,0.8,0.4,1.2,0.5s0.8,0.2,1.2,0.2c0.6,0,1.1-0.2,1.5-0.5c0.3-0.4,0.5-0.9,0.5-1.5v-1.7c-0.2,0.4-0.5,0.8-0.9,1
					s-0.9,0.4-1.4,0.4c-0.6,0-1.1-0.1-1.5-0.4s-0.8-0.6-1-1.1s-0.4-1-0.4-1.7c0-0.6,0.1-1.2,0.4-1.7c0.2-0.5,0.6-0.9,1-1.1
					c0.4-0.3,0.9-0.4,1.5-0.4c0.5,0,1,0.1,1.4,0.3s0.7,0.6,0.9,1v-1.2L147.4,251.8L147.4,251.8z M146,256.7c0.4-0.4,0.6-1.1,0.6-1.8
					c0-0.8-0.2-1.4-0.6-1.9c-0.4-0.5-0.9-0.7-1.6-0.7c-0.7,0-1.2,0.2-1.6,0.7c-0.4,0.5-0.6,1.1-0.6,1.9s0.2,1.4,0.6,1.8
					s0.9,0.7,1.6,0.7C145.1,257.4,145.6,257.2,146,256.7z"/>
				<path class="st8" d="M53.2,273.3h5.5v0.7H54v3.5h4.5v0.7H54v4.3h-0.8V273.3z"/>
				<path class="st8" d="M60.6,279.2L60.6,279.2c0,0.9,0.2,1.6,0.6,2c0.4,0.5,1,0.7,1.7,0.7c0.8,0,1.5-0.3,2.1-0.8l0.3,0.6
					c-0.3,0.3-0.6,0.5-1.1,0.6c-0.4,0.2-0.9,0.2-1.4,0.2c-1,0-1.8-0.3-2.3-0.9c-0.6-0.6-0.9-1.4-0.9-2.5c0-0.7,0.1-1.2,0.4-1.8
					c0.3-0.5,0.6-0.9,1.1-1.2s1-0.4,1.6-0.4c0.9,0,1.5,0.3,2,0.8c0.5,0.6,0.7,1.3,0.7,2.3v0.2h-4.8V279.2z M61.4,277.1
					c-0.4,0.4-0.6,0.9-0.7,1.5h4.1c-0.1-0.7-0.2-1.2-0.6-1.5c-0.3-0.3-0.8-0.5-1.4-0.5C62.2,276.5,61.8,276.7,61.4,277.1z"/>
				<path class="st8" d="M72.8,273v9.5H72v-1.2c-0.2,0.4-0.5,0.8-0.9,1s-0.8,0.3-1.4,0.3s-1.1-0.1-1.5-0.4s-0.8-0.7-1-1.2
					s-0.4-1.1-0.4-1.8s0.1-1.3,0.4-1.8c0.2-0.5,0.6-0.9,1-1.2c0.4-0.3,0.9-0.4,1.5-0.4c0.5,0,1,0.1,1.4,0.3c0.4,0.2,0.7,0.6,0.9,1
					V273H72.8z M71.4,281.2c0.4-0.5,0.6-1.1,0.6-2s-0.2-1.5-0.6-2s-0.9-0.7-1.6-0.7s-1.2,0.2-1.6,0.7s-0.6,1.1-0.6,1.9
					s0.2,1.5,0.6,2s0.9,0.7,1.6,0.7C70.5,281.9,71.1,281.7,71.4,281.2z"/>
				<path class="st8" d="M82.2,282.5h-0.8l-1.1-3.1c-0.1-0.4-0.3-0.7-0.6-0.8s-0.6-0.2-1.1-0.2H76v4.1h-0.8v-9.2h3.6
					c1,0,1.7,0.2,2.2,0.7c0.5,0.4,0.8,1.1,0.8,1.9c0,0.6-0.2,1.1-0.5,1.5s-0.8,0.7-1.3,0.9c0.3,0,0.5,0.2,0.7,0.3s0.3,0.4,0.5,0.8
					L82.2,282.5z M78.6,277.7c1.5,0,2.3-0.6,2.3-1.9c0-1.2-0.8-1.8-2.3-1.8h-2.7v3.7L78.6,277.7L78.6,277.7z"/>
				<path class="st8" d="M90,280.1h-5l-1.1,2.5h-0.8l4-9.2h0.7l4,9.2H91L90,280.1z M89.7,279.4l-2.2-5.1l-2.2,5.1H89.7z"/>
				<path class="st8" d="M102,273.3v9.2h-0.7v-7.4l-3.2,7.4h-0.6l-3.3-7.3v7.3h-0.7v-9.2h0.7l3.6,8.2l3.6-8.2H102z"/>
				<path class="st8" d="M104.5,273.3h3.5c0.9,0,1.6,0.2,2.2,0.7c0.5,0.4,0.8,1.1,0.8,1.8c0,0.8-0.3,1.4-0.8,1.9s-1.3,0.7-2.2,0.7
					h-2.7v4.1h-0.8V273.3z M107.9,277.7c0.7,0,1.3-0.2,1.6-0.5s0.6-0.8,0.6-1.4s-0.2-1-0.6-1.4c-0.4-0.3-0.9-0.5-1.6-0.5h-2.7v3.7
					L107.9,277.7L107.9,277.7z"/>
				<path class="st8" d="M124.8,273.3v9.2H124v-7.4l-3.2,7.4h-0.6l-3.3-7.3v7.3h-0.7v-9.2h0.7l3.6,8.2l3.6-8.2H124.8z"/>
				<path class="st8" d="M132.6,276.1v6.5h-0.8v-1.2c-0.2,0.4-0.5,0.8-0.9,1s-0.8,0.3-1.4,0.3c-0.6,0-1.1-0.1-1.5-0.4
					s-0.8-0.7-1-1.2s-0.4-1.1-0.4-1.8s0.1-1.3,0.4-1.8c0.2-0.5,0.6-0.9,1-1.2c0.4-0.3,0.9-0.4,1.5-0.4c0.5,0,1,0.1,1.4,0.3
					c0.4,0.2,0.7,0.6,0.9,1V276h0.8V276.1z M131.2,281.2c0.4-0.5,0.6-1.1,0.6-2s-0.2-1.5-0.6-2s-0.9-0.7-1.6-0.7
					c-0.7,0-1.2,0.2-1.6,0.7s-0.6,1.1-0.6,2c0,0.8,0.2,1.5,0.6,1.9c0.4,0.5,0.9,0.7,1.6,0.7C130.3,281.9,130.9,281.7,131.2,281.2z"
					/>
				<path class="st8" d="M138.1,276v0.7c-0.2,0-0.4-0.1-0.6-0.1c-0.7,0-1.1,0.2-1.5,0.6c-0.3,0.4-0.5,0.9-0.5,1.5v3.8h-0.8v-4.7
					c0-0.7,0-1.3-0.1-1.8h0.7l0.1,1.2c0.2-0.4,0.4-0.8,0.8-1c0.4-0.2,0.8-0.3,1.2-0.3C137.8,275.9,138,275.9,138.1,276z"/>
				<path class="st8" d="M143.7,282.5l-3.6-3.2v3.2h-0.8V273h0.8v6l3.3-3h1l-3.4,3.1l3.7,3.4H143.7z"/>
				<path class="st8" d="M146.1,279.2L146.1,279.2c0,0.9,0.2,1.6,0.6,2c0.4,0.5,1,0.7,1.7,0.7c0.8,0,1.5-0.3,2.1-0.8l0.3,0.6
					c-0.3,0.3-0.6,0.5-1.1,0.6s-0.9,0.2-1.4,0.2c-1,0-1.8-0.3-2.3-0.9c-0.6-0.6-0.9-1.4-0.9-2.5c0-0.7,0.1-1.2,0.4-1.8
					c0.3-0.5,0.6-0.9,1.1-1.2s1-0.4,1.6-0.4c0.9,0,1.5,0.3,2,0.8c0.5,0.6,0.7,1.3,0.7,2.3v0.2h-4.8V279.2z M146.9,277.1
					c-0.4,0.4-0.6,0.9-0.7,1.5h4.1c-0.1-0.7-0.2-1.2-0.6-1.5c-0.3-0.3-0.8-0.5-1.4-0.5C147.7,276.5,147.3,276.7,146.9,277.1z"/>
				<path class="st8" d="M153.9,276.7v3.8c0,0.5,0.1,0.9,0.3,1.1s0.5,0.3,0.9,0.3c0.2,0,0.5,0,0.7-0.1v0.7c-0.3,0.1-0.6,0.1-0.8,0.1
					c-0.6,0-1-0.2-1.3-0.5s-0.5-0.8-0.5-1.4v-4h-1.3v-0.6h1.3v-1.7l0.8-0.3v2h1.9v0.6H153.9z"/>
				<path class="st8" d="M161.7,276.3c0.4,0.3,0.8,0.7,1,1.2s0.4,1.1,0.4,1.8s-0.1,1.3-0.4,1.8c-0.2,0.5-0.6,0.9-1,1.2
					s-0.9,0.4-1.5,0.4c-0.5,0-1-0.1-1.4-0.4c-0.4-0.2-0.7-0.6-0.9-1v4.1h-0.8v-7.5c0-0.7,0-1.3-0.1-1.8h0.7l0.1,1.3
					c0.2-0.5,0.5-0.8,0.9-1.1c0.4-0.2,0.9-0.4,1.4-0.4C160.8,275.9,161.3,276,161.7,276.3z M161.7,281.2c0.4-0.5,0.6-1.1,0.6-1.9
					s-0.2-1.5-0.6-2c-0.4-0.5-0.9-0.7-1.6-0.7c-0.7,0-1.2,0.2-1.6,0.7s-0.6,1.1-0.6,2c0,0.8,0.2,1.5,0.6,2s0.9,0.7,1.6,0.7
					C160.8,281.9,161.3,281.7,161.7,281.2z"/>
				<path class="st8" d="M164.9,273h0.8v9.5h-0.8V273z"/>
				<path class="st8" d="M173.4,276.1v6.5h-0.8v-1.2c-0.2,0.4-0.5,0.8-0.9,1s-0.8,0.3-1.4,0.3c-0.6,0-1.1-0.1-1.5-0.4
					s-0.8-0.7-1-1.2s-0.4-1.1-0.4-1.8s0.1-1.3,0.4-1.8c0.2-0.5,0.6-0.9,1-1.2c0.4-0.3,0.9-0.4,1.5-0.4c0.5,0,1,0.1,1.4,0.3
					c0.4,0.2,0.7,0.6,0.9,1V276h0.8V276.1z M172,281.2c0.4-0.5,0.6-1.1,0.6-2s-0.2-1.5-0.6-2s-0.9-0.7-1.6-0.7
					c-0.7,0-1.2,0.2-1.6,0.7c-0.4,0.5-0.6,1.1-0.6,2c0,0.8,0.2,1.5,0.6,1.9c0.4,0.5,0.9,0.7,1.6,0.7
					C171.2,281.9,171.7,281.7,172,281.2z"/>
				<path class="st8" d="M176.6,282.2c-0.5-0.3-0.8-0.7-1.1-1.2c-0.2-0.5-0.4-1.1-0.4-1.7c0-0.7,0.1-1.3,0.4-1.8
					c0.2-0.5,0.6-0.9,1.1-1.2s1-0.4,1.6-0.4c0.4,0,0.9,0.1,1.3,0.2c0.4,0.2,0.7,0.4,1,0.6l-0.3,0.6c-0.3-0.3-0.7-0.5-1-0.6
					s-0.6-0.2-0.9-0.2c-0.7,0-1.2,0.2-1.7,0.7c-0.4,0.5-0.6,1.1-0.6,2c0,0.8,0.2,1.5,0.6,1.9c0.4,0.5,1,0.7,1.7,0.7
					c0.3,0,0.6-0.1,0.9-0.2c0.3-0.1,0.6-0.3,1-0.6l0.3,0.6c-0.3,0.3-0.6,0.5-1,0.6c-0.4,0.2-0.8,0.2-1.2,0.2
					C177.6,282.6,177.1,282.5,176.6,282.2z"/>
				<path class="st8" d="M182.4,279.2L182.4,279.2c0,0.9,0.2,1.6,0.6,2c0.4,0.5,1,0.7,1.7,0.7c0.8,0,1.5-0.3,2.1-0.8l0.3,0.6
					c-0.3,0.3-0.6,0.5-1.1,0.6s-0.9,0.2-1.4,0.2c-1,0-1.8-0.3-2.3-0.9c-0.6-0.6-0.9-1.4-0.9-2.5c0-0.7,0.1-1.2,0.4-1.8
					c0.3-0.5,0.6-0.9,1.1-1.2s1-0.4,1.6-0.4c0.9,0,1.5,0.3,2,0.8c0.5,0.6,0.7,1.3,0.7,2.3v0.2h-4.8V279.2z M183.2,277.1
					c-0.4,0.4-0.6,0.9-0.7,1.5h4.1c-0.1-0.7-0.2-1.2-0.6-1.5c-0.3-0.3-0.8-0.5-1.4-0.5C184,276.5,183.5,276.7,183.2,277.1z"/>
				<path class="st8" d="M192.5,273.3h3c1.5,0,2.6,0.4,3.4,1.2s1.2,1.9,1.2,3.4s-0.4,2.6-1.2,3.4s-1.9,1.2-3.4,1.2h-3V273.3z
					 M195.5,281.8c1.2,0,2.2-0.3,2.8-1s0.9-1.6,0.9-2.9c0-2.6-1.3-3.9-3.8-3.9h-2.1v7.8H195.5z"/>
				<path class="st8" d="M202.4,279.2L202.4,279.2c0,0.9,0.2,1.6,0.6,2c0.4,0.5,1,0.7,1.7,0.7c0.8,0,1.5-0.3,2.1-0.8l0.3,0.6
					c-0.3,0.3-0.6,0.5-1.1,0.6s-0.9,0.2-1.4,0.2c-1,0-1.8-0.3-2.3-0.9c-0.6-0.6-0.9-1.4-0.9-2.5c0-0.7,0.1-1.2,0.4-1.8
					c0.3-0.5,0.6-0.9,1.1-1.2s1-0.4,1.6-0.4c0.9,0,1.5,0.3,2,0.8c0.5,0.6,0.7,1.3,0.7,2.3v0.2h-4.8V279.2z M203.2,277.1
					c-0.4,0.4-0.6,0.9-0.7,1.5h4.1c-0.1-0.7-0.2-1.2-0.6-1.5c-0.3-0.3-0.8-0.5-1.4-0.5C204,276.5,203.6,276.7,203.2,277.1z"/>
				<path class="st8" d="M208.7,281.7l0.3-0.6c0.3,0.3,0.7,0.5,1,0.6s0.8,0.2,1.2,0.2c0.5,0,0.9-0.1,1.2-0.3
					c0.3-0.2,0.4-0.5,0.4-0.8s-0.1-0.5-0.3-0.7s-0.5-0.3-0.9-0.4l-1.1-0.2c-0.5-0.1-0.9-0.3-1.2-0.6c-0.3-0.3-0.4-0.7-0.4-1.1
					c0-0.6,0.2-1,0.7-1.4c0.4-0.3,1-0.5,1.7-0.5c0.5,0,0.9,0.1,1.3,0.2c0.4,0.1,0.7,0.4,1,0.6l-0.3,0.6c-0.6-0.5-1.2-0.8-1.9-0.8
					c-0.5,0-0.9,0.1-1.2,0.3c-0.3,0.2-0.4,0.5-0.4,0.8s0.1,0.5,0.3,0.7s0.5,0.3,0.8,0.4l1.1,0.3c1.2,0.3,1.7,0.8,1.7,1.7
					c0,0.5-0.2,1-0.7,1.3c-0.4,0.3-1.1,0.5-1.8,0.5C210.2,282.6,209.3,282.3,208.7,281.7z"/>
				<path class="st8" d="M216.5,273.4v1h-1v-1H216.5z M215.5,276.1h0.8v6.5h-0.8V276.1z"/>
				<path class="st8" d="M224.1,276.1v6.5c0,0.9-0.2,1.6-0.7,2.1s-1.1,0.7-2.1,0.7s-1.8-0.2-2.5-0.7l0.2-0.7
					c0.4,0.2,0.8,0.4,1.2,0.5s0.8,0.2,1.2,0.2c0.6,0,1.1-0.2,1.5-0.5c0.3-0.4,0.5-0.9,0.5-1.5V281c-0.2,0.4-0.5,0.8-0.9,1
					s-0.9,0.4-1.4,0.4c-0.6,0-1.1-0.1-1.5-0.4s-0.8-0.6-1-1.1s-0.4-1-0.4-1.7c0-0.6,0.1-1.2,0.4-1.7s0.6-0.9,1-1.1
					c0.4-0.3,0.9-0.4,1.5-0.4c0.5,0,1,0.1,1.4,0.3c0.4,0.2,0.7,0.6,0.9,1v-1.2L224.1,276.1L224.1,276.1z M222.7,280.9
					c0.4-0.4,0.6-1.1,0.6-1.8c0-0.8-0.2-1.4-0.6-1.9c-0.4-0.5-0.9-0.7-1.6-0.7c-0.7,0-1.2,0.2-1.6,0.7c-0.4,0.5-0.6,1.1-0.6,1.9
					s0.2,1.4,0.6,1.8c0.4,0.4,0.9,0.7,1.6,0.7S222.3,281.4,222.7,280.9z"/>
				<path class="st8" d="M231.6,278.4v4.1h-0.8v-4.1c0-0.6-0.1-1.1-0.4-1.4s-0.7-0.5-1.2-0.5c-0.6,0-1.2,0.2-1.6,0.6
					c-0.4,0.4-0.6,0.9-0.6,1.6v3.7h-0.8v-4.7c0-0.7,0-1.3-0.1-1.8h0.7l0.1,1.2c0.2-0.4,0.5-0.8,0.9-1s0.9-0.3,1.4-0.3
					C230.9,275.9,231.6,276.7,231.6,278.4z"/>
				<path class="st8" d="M239.3,276.1v6.5h-0.8v-1.2c-0.2,0.4-0.5,0.8-0.9,1s-0.8,0.3-1.4,0.3c-0.6,0-1.1-0.1-1.5-0.4
					s-0.8-0.7-1-1.2s-0.4-1.1-0.4-1.8s0.1-1.3,0.4-1.8c0.2-0.5,0.6-0.9,1-1.2s0.9-0.4,1.5-0.4c0.5,0,1,0.1,1.4,0.3
					c0.4,0.2,0.7,0.6,0.9,1V276h0.8V276.1z M238,281.2c0.4-0.5,0.6-1.1,0.6-2s-0.2-1.5-0.6-2c-0.4-0.5-0.9-0.7-1.6-0.7
					c-0.7,0-1.2,0.2-1.6,0.7c-0.4,0.5-0.6,1.1-0.6,2c0,0.8,0.2,1.5,0.6,1.9c0.4,0.5,0.9,0.7,1.6,0.7
					C237.1,281.9,237.6,281.7,238,281.2z"/>
				<path class="st8" d="M242.6,276.7v3.8c0,0.5,0.1,0.9,0.3,1.1s0.5,0.3,0.9,0.3c0.2,0,0.5,0,0.7-0.1v0.7c-0.3,0.1-0.6,0.1-0.8,0.1
					c-0.6,0-1-0.2-1.3-0.5s-0.5-0.8-0.5-1.4v-4h-1.3v-0.6h1.3v-1.7l0.8-0.3v2h1.9v0.6H242.6z"/>
				<path class="st8" d="M246.9,273.4v1h-1v-1H246.9z M245.9,276.1h0.8v6.5h-0.8V276.1z"/>
				<path class="st8" d="M249.9,282.2c-0.5-0.3-0.8-0.7-1-1.2s-0.4-1.1-0.4-1.8s0.1-1.3,0.4-1.8s0.6-0.9,1-1.2s1-0.4,1.6-0.4
					s1.1,0.1,1.5,0.4s0.8,0.7,1,1.2s0.4,1.1,0.4,1.8s-0.1,1.3-0.4,1.8c-0.2,0.5-0.6,0.9-1,1.2s-1,0.4-1.5,0.4
					C250.9,282.6,250.4,282.5,249.9,282.2z M253.1,281.2c0.4-0.5,0.6-1.1,0.6-2c0-0.8-0.2-1.5-0.6-2c-0.4-0.5-0.9-0.7-1.6-0.7
					c-0.7,0-1.2,0.2-1.6,0.7c-0.4,0.5-0.6,1.1-0.6,2s0.2,1.5,0.6,2c0.4,0.5,0.9,0.7,1.6,0.7S252.7,281.7,253.1,281.2z"/>
				<path class="st8" d="M261.6,278.4v4.1h-0.8v-4.1c0-0.6-0.1-1.1-0.4-1.4s-0.7-0.5-1.2-0.5c-0.6,0-1.2,0.2-1.6,0.6
					s-0.6,0.9-0.6,1.6v3.7h-0.8v-4.7c0-0.7,0-1.3-0.1-1.8h0.7l0.1,1.2c0.2-0.4,0.5-0.8,0.9-1s0.9-0.3,1.4-0.3
					C260.8,275.9,261.6,276.7,261.6,278.4z"/>
				<path class="st8" d="M266.1,278.8h6.5v0.6h-6.5V278.8z"/>
				<path class="st8" d="M277.2,273.3h0.8v9.2h-0.8V273.3z"/>
				<path class="st8" d="M285.7,278.4v4.1h-0.8v-4.1c0-0.6-0.1-1.1-0.4-1.4s-0.7-0.5-1.2-0.5c-0.6,0-1.2,0.2-1.6,0.6
					s-0.6,0.9-0.6,1.6v3.7h-0.8v-4.7c0-0.7,0-1.3-0.1-1.8h0.7l0.1,1.2c0.2-0.4,0.5-0.8,0.9-1s0.9-0.3,1.4-0.3
					C284.9,275.9,285.7,276.7,285.7,278.4z"/>
				<path class="st8" d="M53.2,289.5h3.5c0.9,0,1.6,0.2,2.2,0.7c0.5,0.4,0.8,1.1,0.8,1.8c0,0.8-0.3,1.4-0.8,1.9s-1.3,0.7-2.2,0.7H54
					v4.1h-0.8V289.5z M56.7,293.8c0.7,0,1.3-0.2,1.6-0.5s0.6-0.8,0.6-1.4s-0.2-1-0.6-1.4c-0.4-0.3-0.9-0.5-1.6-0.5H54v3.7
					L56.7,293.8L56.7,293.8z"/>
				<path class="st8" d="M64.7,292.1v0.7c-0.2,0-0.4-0.1-0.6-0.1c-0.7,0-1.1,0.2-1.5,0.6c-0.3,0.4-0.5,0.9-0.5,1.5v3.8h-0.8V294
					c0-0.7,0-1.3-0.1-1.8H62l0.1,1.2c0.2-0.4,0.4-0.8,0.8-1c0.4-0.2,0.8-0.3,1.2-0.3C64.3,292,64.5,292.1,64.7,292.1z"/>
				<path class="st8" d="M66.8,298.3c-0.5-0.3-0.8-0.7-1-1.2s-0.4-1.1-0.4-1.8s0.1-1.3,0.4-1.8c0.2-0.5,0.6-0.9,1-1.2
					c0.5-0.3,1-0.4,1.6-0.4s1.1,0.1,1.5,0.4s0.8,0.7,1,1.2s0.4,1.1,0.4,1.8s-0.1,1.3-0.4,1.8c-0.2,0.5-0.6,0.9-1,1.2s-1,0.4-1.5,0.4
					C67.7,298.8,67.2,298.6,66.8,298.3z M69.9,297.4c0.4-0.5,0.6-1.1,0.6-2c0-0.8-0.2-1.5-0.6-2s-0.9-0.7-1.6-0.7s-1.2,0.2-1.6,0.7
					s-0.6,1.1-0.6,2s0.2,1.5,0.6,2s0.9,0.7,1.6,0.7S69.5,297.8,69.9,297.4z"/>
				<path class="st8" d="M74.1,298.3c-0.5-0.3-0.8-0.7-1.1-1.2c-0.2-0.5-0.4-1.1-0.4-1.7c0-0.7,0.1-1.3,0.4-1.8
					c0.2-0.5,0.6-0.9,1.1-1.2s1-0.4,1.6-0.4c0.4,0,0.9,0.1,1.3,0.2c0.4,0.2,0.7,0.4,1,0.6l-0.3,0.6c-0.3-0.3-0.7-0.5-1-0.6
					s-0.6-0.2-0.9-0.2c-0.7,0-1.2,0.2-1.7,0.7c-0.4,0.5-0.6,1.1-0.6,2c0,0.8,0.2,1.5,0.6,1.9c0.4,0.5,1,0.7,1.7,0.7
					c0.3,0,0.6-0.1,0.9-0.2s0.6-0.3,1-0.6l0.3,0.6c-0.3,0.3-0.6,0.5-1,0.6c-0.4,0.2-0.8,0.2-1.2,0.2
					C75.1,298.8,74.6,298.6,74.1,298.3z"/>
				<path class="st8" d="M79.9,295.3L79.9,295.3c0,0.9,0.2,1.6,0.6,2c0.4,0.5,1,0.7,1.7,0.7c0.8,0,1.5-0.3,2.1-0.8l0.3,0.6
					c-0.3,0.3-0.6,0.5-1.1,0.6s-0.9,0.2-1.4,0.2c-1,0-1.8-0.3-2.3-0.9c-0.6-0.6-0.9-1.4-0.9-2.5c0-0.7,0.1-1.2,0.4-1.8
					c0.3-0.5,0.6-0.9,1.1-1.2s1-0.4,1.6-0.4c0.9,0,1.5,0.3,2,0.8c0.5,0.6,0.7,1.3,0.7,2.3v0.2h-4.8V295.3z M80.6,293.2
					c-0.4,0.4-0.6,0.9-0.7,1.5H84c-0.1-0.7-0.2-1.2-0.6-1.5c-0.3-0.3-0.8-0.5-1.4-0.5C81.5,292.7,81,292.9,80.6,293.2z"/>
				<path class="st8" d="M86.2,297.9l0.3-0.6c0.3,0.3,0.7,0.5,1,0.6s0.8,0.2,1.2,0.2c0.5,0,0.9-0.1,1.2-0.3s0.4-0.5,0.4-0.8
					s-0.1-0.5-0.3-0.7c-0.2-0.2-0.5-0.3-0.9-0.4l-1.1-0.2c-0.5-0.1-0.9-0.3-1.2-0.6c-0.3-0.3-0.4-0.7-0.4-1.1c0-0.6,0.2-1,0.7-1.4
					c0.4-0.3,1-0.5,1.7-0.5c0.5,0,0.9,0.1,1.3,0.2s0.7,0.4,1,0.6l-0.3,0.6c-0.6-0.5-1.2-0.8-1.9-0.8c-0.5,0-0.9,0.1-1.2,0.3
					c-0.3,0.2-0.4,0.5-0.4,0.8s0.1,0.5,0.3,0.7s0.4,0.3,0.8,0.4l1.1,0.3c1.2,0.3,1.7,0.8,1.7,1.7c0,0.5-0.2,1-0.7,1.3
					c-0.4,0.3-1.1,0.5-1.8,0.5C87.6,298.8,86.8,298.5,86.2,297.9z"/>
				<path class="st8" d="M92.6,297.9l0.3-0.6c0.3,0.3,0.7,0.5,1,0.6s0.8,0.2,1.2,0.2c0.5,0,0.9-0.1,1.2-0.3s0.4-0.5,0.4-0.8
					s-0.1-0.5-0.3-0.7c-0.2-0.2-0.5-0.3-0.9-0.4l-1.1-0.2c-0.5-0.1-0.9-0.3-1.2-0.6c-0.3-0.3-0.4-0.7-0.4-1.1c0-0.6,0.2-1,0.7-1.4
					c0.4-0.3,1-0.5,1.7-0.5c0.5,0,0.9,0.1,1.3,0.2s0.7,0.4,1,0.6l-0.3,0.6c-0.6-0.5-1.2-0.8-1.9-0.8c-0.5,0-0.9,0.1-1.2,0.3
					c-0.3,0.2-0.4,0.5-0.4,0.8s0.1,0.5,0.3,0.7s0.4,0.3,0.8,0.4l1.1,0.3c1.2,0.3,1.7,0.8,1.7,1.7c0,0.5-0.2,1-0.7,1.3
					c-0.4,0.3-1.1,0.5-1.8,0.5C94.1,298.8,93.2,298.5,92.6,297.9z"/>
			</g>
		</g>
		<g>
			<g>
				<path class="st1" d="M29.4,178.2c0,2.2-1.6,3.5-4.2,3.5h-2.5v3.1h-1.5v-10.2h4C27.8,174.6,29.4,176,29.4,178.2z M28,178.2
					c0-1.5-1-2.3-2.8-2.3h-2.5v4.6h2.5C27,180.5,28,179.6,28,178.2z"/>
				<path class="st1" d="M35.5,177v1.4c-0.1,0-0.2,0-0.3,0c-1.5,0-2.4,0.9-2.4,2.6v3.8h-1.4v-7.7h1.3v1.3
					C33.2,177.5,34.1,177,35.5,177z"/>
				<path class="st1" d="M44.2,181.4H38c0.2,1.4,1.3,2.3,2.8,2.3c0.9,0,1.7-0.3,2.2-0.9l0.8,0.9c-0.7,0.8-1.8,1.2-3,1.2
					c-2.5,0-4.1-1.6-4.1-3.9c0-2.3,1.6-3.9,3.9-3.9s3.8,1.6,3.8,4C44.2,181.1,44.2,181.3,44.2,181.4z M38,180.4h4.9
					c-0.1-1.3-1.1-2.2-2.5-2.2C39.1,178.2,38.1,179.1,38,180.4z"/>
				<path class="st1" d="M46,180.2h3.9v1.2H46V180.2z"/>
				<path class="st1" d="M58.6,182.3h-5.4l-1.1,2.5h-1.5l4.6-10.2h1.4l4.6,10.2h-1.5L58.6,182.3z M58.1,181.1l-2.2-5l-2.2,5H58.1z"
					/>
				<path class="st1" d="M69.7,177.1v7.7h-1.3v-1.2c-0.6,0.8-1.5,1.2-2.6,1.2c-2,0-3.3-1.1-3.3-3.4V177h1.4v4.3
					c0,1.5,0.8,2.3,2.1,2.3c1.5,0,2.4-0.9,2.4-2.6v-4L69.7,177.1L69.7,177.1z"/>
				<path class="st1" d="M76.9,184.3c-0.4,0.4-1.1,0.5-1.7,0.5c-1.6,0-2.4-0.9-2.4-2.4v-4.2h-1.3v-1.1h1.3v-1.7h1.4v1.7h2.2v1.1
					h-2.2v4.2c0,0.8,0.4,1.3,1.2,1.3c0.4,0,0.8-0.1,1.1-0.4L76.9,184.3z"/>
				<path class="st1" d="M86,180.4v4.4h-1.4v-4.3c0-1.5-0.8-2.3-2.1-2.3c-1.5,0-2.4,0.9-2.4,2.6v4h-1.4V174h1.4v4.2
					c0.6-0.7,1.5-1.2,2.7-1.2C84.7,177,86,178.1,86,180.4z"/>
				<path class="st1" d="M88.1,180.9c0-2.3,1.7-3.9,4-3.9s4,1.6,4,3.9c0,2.3-1.7,3.9-4,3.9C89.8,184.9,88.1,183.2,88.1,180.9z
					 M94.6,180.9c0-1.6-1.1-2.7-2.6-2.7s-2.6,1.1-2.6,2.7c0,1.6,1.1,2.7,2.6,2.7C93.5,183.7,94.6,182.6,94.6,180.9z"/>
				<path class="st1" d="M102.3,177v1.4c-0.1,0-0.2,0-0.3,0c-1.5,0-2.4,0.9-2.4,2.6v3.8h-1.4v-7.7h1.3v1.3
					C100,177.5,100.9,177,102.3,177z"/>
				<path class="st1" d="M103.9,174.7c0-0.5,0.4-0.9,0.9-0.9s0.9,0.4,0.9,0.9s-0.4,0.9-0.9,0.9C104.3,175.6,103.9,175.2,103.9,174.7
					z M104.1,177.1h1.4v7.7h-1.4V177.1z"/>
				<path class="st1" d="M114,183.6v1.1h-6.4v-0.9l4.5-5.7h-4.5V177h6.2v0.9l-4.5,5.6L114,183.6L114,183.6z"/>
				<path class="st1" d="M122.1,180.1v4.6h-1.3v-1c-0.5,0.7-1.3,1.1-2.5,1.1c-1.7,0-2.8-0.9-2.8-2.3c0-1.2,0.8-2.3,3.1-2.3h2.2v-0.3
					c0-1.2-0.7-1.9-2.1-1.9c-0.9,0-1.8,0.3-2.4,0.8l-0.6-1c0.8-0.6,1.9-1,3.2-1C121,177,122.1,178,122.1,180.1z M120.8,182.4v-1.1
					h-2.1c-1.4,0-1.8,0.5-1.8,1.2c0,0.8,0.6,1.2,1.7,1.2C119.6,183.8,120.4,183.3,120.8,182.4z"/>
				<path class="st1" d="M129.2,184.3c-0.4,0.4-1.1,0.5-1.7,0.5c-1.6,0-2.4-0.9-2.4-2.4v-4.2h-1.3v-1.1h1.3v-1.7h1.4v1.7h2.2v1.1
					h-2.2v4.2c0,0.8,0.4,1.3,1.2,1.3c0.4,0,0.8-0.1,1.1-0.4L129.2,184.3z"/>
				<path class="st1" d="M130.8,174.7c0-0.5,0.4-0.9,0.9-0.9s0.9,0.4,0.9,0.9s-0.4,0.9-0.9,0.9C131.2,175.6,130.8,175.2,130.8,174.7
					z M131,177.1h1.4v7.7H131V177.1z"/>
				<path class="st1" d="M134.5,180.9c0-2.3,1.7-3.9,4-3.9s4,1.6,4,3.9c0,2.3-1.7,3.9-4,3.9C136.2,184.9,134.5,183.2,134.5,180.9z
					 M141.1,180.9c0-1.6-1.1-2.7-2.6-2.7s-2.6,1.1-2.6,2.7c0,1.6,1.1,2.7,2.6,2.7C140,183.7,141.1,182.6,141.1,180.9z"/>
				<path class="st1" d="M151.9,180.4v4.4h-1.4v-4.3c0-1.5-0.8-2.3-2.1-2.3c-1.5,0-2.4,0.9-2.4,2.6v4h-1.4v-7.7h1.3v1.2
					c0.6-0.8,1.6-1.2,2.8-1.2C150.6,177,151.9,178.1,151.9,180.4z"/>
			</g>
		</g>
		<rect x="30.9" y="204.8" class="st1" width="0.8" height="57.9"/>
		<g>
			<path class="st13" d="M41.6,281.6c0-1.2,0-1.3,0-2.5l-2.2-0.8c-0.3-0.7-0.4-1.1-0.7-1.8l1-2.1c-0.9-0.9-0.9-0.9-1.8-1.8l-2.2,1
				c-0.7-0.3-1.1-0.5-1.8-0.8l-0.8-2.2c-1.2,0-1.3,0-2.5,0l-0.8,2.2c-0.7,0.3-1.1,0.4-1.8,0.7l-2.1-1c-0.9,0.9-0.9,0.9-1.8,1.8
				l1,2.2c-0.3,0.7-0.5,1.1-0.8,1.8l-2.2,0.8c0,1.2,0,1.3,0,2.5l2.2,0.8c0.3,0.7,0.4,1.1,0.7,1.8l-1,2.1c0.9,0.9,0.9,0.9,1.8,1.8
				l2.2-1c0.7,0.3,1.1,0.5,1.8,0.8l0.8,2.2c1.2,0,1.3,0,2.5,0l0.8-2.2c0.7-0.3,1.1-0.4,1.8-0.7l2.1,1c0.9-0.9,0.9-0.9,1.8-1.8
				l-1-2.2c0.3-0.7,0.5-1.1,0.8-1.8L41.6,281.6z M31.8,284.1c-2.1,0-3.8-1.7-3.8-3.8c0-2.1,1.7-3.8,3.8-3.8s3.8,1.7,3.8,3.8
				S33.9,284.1,31.8,284.1z"/>
			<path class="st9" d="M40.4,280.8c0-1.2,0-1.3,0-2.5l-2.2-0.8c-0.3-0.7-0.4-1.1-0.7-1.8l1-2.1c-0.9-0.9-0.9-0.9-1.8-1.8l-2.2,1
				c-0.7-0.3-1.1-0.5-1.8-0.8l-0.8-2.2c-1.2,0-1.3,0-2.5,0l-0.8,2.2c-0.7,0.3-1.1,0.4-1.8,0.7l-2.1-1c-0.9,0.9-0.9,0.9-1.8,1.8
				l1,2.2c-0.3,0.7-0.5,1.1-0.8,1.8l-2.2,0.8c0,1.2,0,1.3,0,2.5l2.2,0.8c0.3,0.7,0.4,1.1,0.7,1.8l-1,2.1c0.9,0.9,0.9,0.9,1.8,1.8
				l2.2-1c0.7,0.3,1.1,0.5,1.8,0.8l0.8,2.2c1.2,0,1.3,0,2.5,0l0.8-2.2c0.7-0.3,1.1-0.4,1.8-0.7l2.1,1c0.9-0.9,0.9-0.9,1.8-1.8
				l-1-2.2c0.3-0.7,0.5-1.1,0.8-1.8L40.4,280.8z M30.7,283.3c-2.1,0-3.8-1.7-3.8-3.8c0-2.1,1.7-3.8,3.8-3.8s3.8,1.7,3.8,3.8
				C34.5,281.6,32.8,283.3,30.7,283.3z"/>
		</g>
	</g>
</g>
</svg>
