<?xml version="1.0" encoding="utf-8"?>
<!-- Generator: Adobe Illustrator 24.2.3, SVG Export Plug-In . SVG Version: 6.00 Build 0)  -->
<svg version="1.1" id="Layer_1" xmlns="http://www.w3.org/2000/svg" xmlns:xlink="http://www.w3.org/1999/xlink" x="0px" y="0px"
	 viewBox="0 0 320 373.7" style="enable-background:new 0 0 320 373.7;" xml:space="preserve">
<style type="text/css">
	.st0{opacity:0.46;fill:#FFFFFF;enable-background:new    ;}
	.st1{fill:#0A90B7;}
	.st2{fill:#F2F2F2;}
	.st3{opacity:0.55;fill:#F2F2F2;enable-background:new    ;}
	.st4{opacity:0.55;}
	.st5{fill:#444444;}
	.st6{enable-background:new    ;}
	.st7{fill:#FFFFFF;}
	.st8{fill:#757575;}
	.st9{fill:#A6D7E5;}
	.st10{opacity:0.46;fill:#209ABD;enable-background:new    ;}
	.st11{opacity:0.6;fill:#0A90B7;enable-background:new    ;}
	.st12{fill:#D8D8D8;}
	.st13{fill:#A00A0F;}
	.st14{fill:#C71F25;}
</style>
<g id="Layer_6">
</g>
<g id="Shapes">
</g>
<g id="background">
</g>
<g id="text">
</g>
<g id="Graphics">
</g>
<g id="Layer_5">
	<rect x="10.2" class="st0" width="300" height="373.7"/>
	<path id="Path_7616_2_" class="st1" d="M295.6,43.7H61V11.6h234.6l7.1,16.1L295.6,43.7z"/>
	<rect x="21.7" y="11.6" class="st2" width="39.3" height="32.2"/>
	<rect x="26.1" y="56.7" class="st3" width="265" height="81"/>
	<g class="st4">
		<g>
			<path class="st5" d="M71.6,105.6c-0.5-0.2-0.9-0.4-1.2-0.8l0.3-0.5c0.4,0.3,0.8,0.6,1.1,0.7s0.9,0.2,1.4,0.2
				c0.6,0,1.1-0.1,1.5-0.4s0.5-0.6,0.5-1.1c0-0.3-0.1-0.5-0.3-0.7s-0.4-0.3-0.7-0.4s-0.6-0.2-1.1-0.3c-0.6-0.1-1.1-0.3-1.4-0.4
				c-0.4-0.1-0.7-0.3-0.9-0.6c-0.2-0.3-0.4-0.6-0.4-1.1c0-0.4,0.1-0.8,0.3-1.1c0.2-0.3,0.5-0.6,0.9-0.8C72,98.1,72.5,98,73,98
				s1,0.1,1.4,0.3c0.4,0.2,0.8,0.4,1.1,0.7l-0.3,0.5c-0.4-0.3-0.7-0.6-1.1-0.7s-0.8-0.2-1.2-0.2c-0.6,0-1.1,0.1-1.5,0.4
				s-0.5,0.7-0.5,1.1s0.2,0.7,0.5,0.9c0.3,0.2,0.8,0.4,1.4,0.5l0.3,0.1c0.6,0.1,1,0.3,1.4,0.4c0.3,0.1,0.6,0.3,0.9,0.6
				c0.2,0.3,0.4,0.6,0.4,1s-0.1,0.8-0.3,1.1c-0.2,0.3-0.5,0.6-0.9,0.7s-0.9,0.3-1.4,0.3C72.6,105.9,72.1,105.8,71.6,105.6z"/>
			<path class="st5" d="M77.7,103L77.7,103c0,0.8,0.2,1.3,0.5,1.7c0.3,0.4,0.8,0.6,1.4,0.6s1.2-0.2,1.8-0.7l0.3,0.5
				c-0.2,0.2-0.5,0.4-0.9,0.5s-0.7,0.2-1.1,0.2c-0.8,0-1.5-0.2-1.9-0.7s-0.7-1.2-0.7-2c0-0.5,0.1-1,0.3-1.5c0.2-0.4,0.5-0.8,0.9-1
				s0.8-0.3,1.3-0.3c0.7,0,1.3,0.2,1.7,0.7c0.4,0.5,0.6,1.1,0.6,1.9v0.1C81.9,103,77.7,103,77.7,103z M78.3,101.3
				c-0.3,0.3-0.5,0.7-0.6,1.2h3.4c0-0.5-0.2-1-0.5-1.3s-0.7-0.4-1.1-0.4C79,100.8,78.6,101,78.3,101.3z"/>
			<path class="st5" d="M84,105.5c-0.4-0.2-0.7-0.6-0.9-1s-0.3-0.9-0.3-1.4c0-0.6,0.1-1,0.3-1.5c0.2-0.4,0.5-0.8,0.9-1
				s0.8-0.3,1.3-0.3c0.4,0,0.7,0.1,1,0.2s0.6,0.3,0.8,0.5l-0.3,0.5c-0.3-0.2-0.5-0.4-0.8-0.5s-0.5-0.2-0.8-0.2c-0.6,0-1,0.2-1.4,0.6
				s-0.5,0.9-0.5,1.6s0.2,1.2,0.5,1.6s0.8,0.6,1.4,0.6c0.3,0,0.5-0.1,0.8-0.2s0.5-0.3,0.8-0.5l0.3,0.5c-0.2,0.2-0.5,0.4-0.9,0.5
				c-0.3,0.1-0.7,0.2-1,0.2C84.9,105.8,84.4,105.7,84,105.5z"/>
			<path class="st5" d="M92.8,100.4v5.4h-0.6v-1c-0.2,0.3-0.4,0.6-0.7,0.8c-0.3,0.2-0.7,0.3-1.1,0.3c-0.6,0-1.1-0.2-1.4-0.5
				s-0.5-0.9-0.5-1.6v-3.4h0.6v3.3c0,0.5,0.1,0.9,0.3,1.2s0.5,0.4,1,0.4s0.9-0.2,1.3-0.5c0.3-0.3,0.5-0.8,0.5-1.3v-3h0.6V100.4z"/>
			<path class="st5" d="M97.4,100.3v0.6c-0.1,0-0.3,0-0.5,0c-0.5,0-0.9,0.2-1.2,0.5s-0.4,0.8-0.4,1.2v3.1h-0.6v-3.9
				c0-0.6,0-1.1-0.1-1.5h0.6l0.1,1c0.1-0.4,0.4-0.6,0.7-0.8s0.6-0.3,1-0.3C97.1,100.3,97.3,100.3,97.4,100.3z"/>
			<path class="st5" d="M99.2,98.2V99h-0.9v-0.8H99.2z M98.4,100.4H99v5.4h-0.6V100.4z"/>
			<path class="st5" d="M101.8,100.9v3.2c0,0.4,0.1,0.7,0.2,0.9c0.2,0.2,0.4,0.2,0.7,0.2c0.2,0,0.4,0,0.6-0.1v0.6
				c-0.2,0.1-0.5,0.1-0.7,0.1c-0.5,0-0.8-0.1-1.1-0.4c-0.3-0.3-0.4-0.7-0.4-1.2v-3.3H100v-0.5h1.1V99l0.7-0.2v1.7h1.6v0.5
				L101.8,100.9L101.8,100.9z"/>
			<path class="st5" d="M109.2,100.4l-2.5,5.9c-0.2,0.6-0.6,1-0.9,1.3s-0.8,0.5-1.4,0.6l-0.1-0.5c0.5-0.1,0.9-0.3,1.2-0.5
				c0.3-0.2,0.5-0.5,0.7-0.9l0.2-0.5l-2.3-5.4h0.7l1.9,4.7l1.9-4.7H109.2z"/>
			<path class="st5" d="M118.1,103.7H114l-0.9,2h-0.7l3.3-7.6h0.6l3.3,7.6H119L118.1,103.7z M117.9,103.2l-1.8-4.2l-1.8,4.2H117.9z"
				/>
			<path class="st5" d="M125.2,100.4v5.4h-0.6v-1c-0.2,0.3-0.4,0.6-0.7,0.8c-0.3,0.2-0.7,0.3-1.1,0.3c-0.6,0-1.1-0.2-1.4-0.5
				s-0.5-0.9-0.5-1.6v-3.4h0.6v3.3c0,0.5,0.1,0.9,0.3,1.2s0.5,0.4,1,0.4s0.9-0.2,1.3-0.5c0.3-0.3,0.5-0.8,0.5-1.3v-3h0.6V100.4z"/>
			<path class="st5" d="M127.9,100.9v3.2c0,0.4,0.1,0.7,0.2,0.9c0.2,0.2,0.4,0.2,0.7,0.2c0.2,0,0.4,0,0.6-0.1v0.6
				c-0.2,0.1-0.5,0.1-0.7,0.1c-0.5,0-0.8-0.1-1.1-0.4c-0.3-0.3-0.4-0.7-0.4-1.2v-3.3h-1.1v-0.5h1.1V99l0.7-0.2v1.7h1.6v0.5
				L127.9,100.9L127.9,100.9z"/>
			<path class="st5" d="M135.1,102.4v3.4h-0.7v-3.4c0-0.5-0.1-0.9-0.3-1.2c-0.2-0.2-0.6-0.4-1-0.4c-0.5,0-1,0.2-1.3,0.5
				s-0.5,0.8-0.5,1.3v3.1h-0.6v-7.9h0.6v3.4c0.2-0.3,0.4-0.6,0.7-0.8c0.3-0.2,0.7-0.3,1.1-0.3C134.5,100.3,135.1,101,135.1,102.4z"
				/>
			<path class="st5" d="M137.8,105.5c-0.4-0.2-0.7-0.6-0.9-1s-0.3-0.9-0.3-1.5s0.1-1,0.3-1.5c0.2-0.4,0.5-0.7,0.9-1
				c0.4-0.2,0.8-0.3,1.3-0.3s0.9,0.1,1.3,0.3c0.4,0.2,0.7,0.6,0.9,1s0.3,0.9,0.3,1.5s-0.1,1-0.3,1.5c-0.2,0.4-0.5,0.7-0.9,1
				c-0.4,0.2-0.8,0.3-1.3,0.3S138.1,105.7,137.8,105.5z M140.4,104.7c0.3-0.4,0.5-0.9,0.5-1.6s-0.2-1.2-0.5-1.6s-0.7-0.6-1.3-0.6
				s-1,0.2-1.3,0.6s-0.5,0.9-0.5,1.6s0.2,1.3,0.5,1.6s0.7,0.6,1.3,0.6S140.1,105.1,140.4,104.7z"/>
			<path class="st5" d="M145.8,100.3v0.6c-0.1,0-0.3,0-0.5,0c-0.5,0-0.9,0.2-1.2,0.5s-0.4,0.8-0.4,1.2v3.1H143v-3.9
				c0-0.6,0-1.1-0.1-1.5h0.6l0.1,1c0.1-0.4,0.4-0.6,0.7-0.8c0.3-0.2,0.6-0.3,1-0.3C145.5,100.3,145.6,100.3,145.8,100.3z"/>
			<path class="st5" d="M147.5,98.2V99h-0.9v-0.8H147.5z M146.8,100.4h0.6v5.4h-0.6V100.4z"/>
			<path class="st5" d="M153.4,105.2v0.5h-4.5v-0.4l3.6-4.4h-3.4v-0.5h4.2v0.5l-3.5,4.3H153.4z"/>
			<path class="st5" d="M159.3,100.4v5.4h-0.7v-1c-0.2,0.4-0.4,0.6-0.7,0.8c-0.3,0.2-0.7,0.3-1.1,0.3c-0.5,0-0.9-0.1-1.3-0.3
				s-0.6-0.5-0.8-1s-0.3-0.9-0.3-1.5s0.1-1,0.3-1.5c0.2-0.4,0.5-0.8,0.8-1c0.4-0.2,0.8-0.3,1.2-0.3s0.8,0.1,1.1,0.3
				c0.3,0.2,0.6,0.5,0.7,0.8v-1C158.5,100.4,159.3,100.4,159.3,100.4z M158.2,104.7c0.3-0.4,0.5-0.9,0.5-1.6s-0.2-1.3-0.5-1.6
				c-0.3-0.4-0.7-0.6-1.3-0.6s-1,0.2-1.3,0.6s-0.5,0.9-0.5,1.6s0.2,1.2,0.5,1.6s0.8,0.6,1.3,0.6
				C157.4,105.3,157.9,105.1,158.2,104.7z"/>
			<path class="st5" d="M162,100.9v3.2c0,0.4,0.1,0.7,0.2,0.9c0.2,0.2,0.4,0.2,0.7,0.2c0.2,0,0.4,0,0.6-0.1v0.6
				c-0.2,0.1-0.5,0.1-0.7,0.1c-0.5,0-0.8-0.1-1.1-0.4s-0.4-0.7-0.4-1.2v-3.3h-1.1v-0.5h1.1V99l0.7-0.2v1.7h1.6v0.5L162,100.9
				L162,100.9z"/>
			<path class="st5" d="M165.5,98.2V99h-0.9v-0.8H165.5z M164.8,100.4h0.6v5.4h-0.6V100.4z"/>
			<path class="st5" d="M168.1,105.5c-0.4-0.2-0.7-0.6-0.9-1s-0.3-0.9-0.3-1.5s0.1-1,0.3-1.5c0.2-0.4,0.5-0.7,0.9-1
				c0.4-0.2,0.8-0.3,1.3-0.3s0.9,0.1,1.3,0.3c0.4,0.2,0.7,0.6,0.9,1s0.3,0.9,0.3,1.5s-0.1,1-0.3,1.5c-0.2,0.4-0.5,0.7-0.9,1
				c-0.4,0.2-0.8,0.3-1.3,0.3C168.9,105.8,168.5,105.7,168.1,105.5z M170.7,104.7c0.3-0.4,0.5-0.9,0.5-1.6s-0.2-1.2-0.5-1.6
				s-0.7-0.6-1.3-0.6s-1,0.2-1.3,0.6s-0.5,0.9-0.5,1.6s0.2,1.3,0.5,1.6s0.7,0.6,1.3,0.6S170.4,105.1,170.7,104.7z"/>
			<path class="st5" d="M177.7,102.4v3.4H177v-3.4c0-0.5-0.1-0.9-0.3-1.2c-0.2-0.2-0.6-0.4-1-0.4c-0.5,0-1,0.2-1.3,0.5
				s-0.5,0.8-0.5,1.3v3.1h-0.6v-3.9c0-0.6,0-1.1-0.1-1.5h0.6l0.1,1c0.2-0.4,0.4-0.6,0.7-0.8c0.3-0.2,0.7-0.3,1.1-0.3
				C177.1,100.3,177.7,101,177.7,102.4z"/>
			<path class="st5" d="M182.4,98.2h2.9c0.8,0,1.4,0.2,1.8,0.6c0.4,0.4,0.7,0.9,0.7,1.5c0,0.7-0.2,1.2-0.7,1.5
				c-0.4,0.4-1,0.6-1.8,0.6H183v3.4h-0.7v-7.6H182.4z M185.3,101.8c0.6,0,1.1-0.1,1.4-0.4s0.5-0.6,0.5-1.1s-0.2-0.9-0.5-1.1
				s-0.8-0.4-1.4-0.4h-2.2v3H185.3z"/>
			<path class="st5" d="M193.7,100.4v5.4H193v-1c-0.2,0.4-0.4,0.6-0.7,0.8c-0.3,0.2-0.7,0.3-1.1,0.3c-0.5,0-0.9-0.1-1.3-0.3
				s-0.6-0.5-0.8-1s-0.3-0.9-0.3-1.5s0.1-1,0.3-1.5c0.2-0.4,0.5-0.8,0.8-1c0.4-0.2,0.8-0.3,1.2-0.3s0.8,0.1,1.1,0.3
				c0.3,0.2,0.6,0.5,0.7,0.8v-1C192.9,100.4,193.7,100.4,193.7,100.4z M192.5,104.7c0.3-0.4,0.5-0.9,0.5-1.6s-0.2-1.3-0.5-1.6
				c-0.3-0.4-0.7-0.6-1.3-0.6s-1,0.2-1.3,0.6s-0.5,0.9-0.5,1.6s0.2,1.2,0.5,1.6s0.8,0.6,1.3,0.6
				C191.8,105.3,192.2,105.1,192.5,104.7z"/>
			<path class="st5" d="M196.3,105.5c-0.4-0.2-0.7-0.6-0.9-1s-0.3-0.9-0.3-1.4c0-0.6,0.1-1,0.3-1.5c0.2-0.4,0.5-0.8,0.9-1
				s0.8-0.3,1.3-0.3c0.4,0,0.7,0.1,1,0.2s0.6,0.3,0.8,0.5l-0.3,0.5c-0.3-0.2-0.5-0.4-0.8-0.5s-0.5-0.2-0.8-0.2c-0.6,0-1,0.2-1.4,0.6
				c-0.3,0.4-0.5,0.9-0.5,1.6s0.2,1.2,0.5,1.6s0.8,0.6,1.4,0.6c0.3,0,0.5-0.1,0.8-0.2s0.5-0.3,0.8-0.5l0.3,0.5
				c-0.2,0.2-0.5,0.4-0.9,0.5c-0.3,0.1-0.7,0.2-1,0.2C197.1,105.8,196.7,105.7,196.3,105.5z"/>
			<path class="st5" d="M204.4,105.8l-3-2.6v2.6h-0.6v-7.9h0.6v5l2.7-2.5h0.8l-2.8,2.6l3.1,2.8H204.4z"/>
			<path class="st5" d="M210.6,100.4v5.4h-0.7v-1c-0.2,0.4-0.4,0.6-0.7,0.8c-0.3,0.2-0.7,0.3-1.1,0.3c-0.5,0-0.9-0.1-1.3-0.3
				s-0.6-0.5-0.8-1s-0.3-0.9-0.3-1.5s0.1-1,0.3-1.5c0.2-0.4,0.5-0.8,0.8-1c0.4-0.2,0.8-0.3,1.2-0.3s0.8,0.1,1.1,0.3
				c0.3,0.2,0.6,0.5,0.7,0.8v-1C209.8,100.4,210.6,100.4,210.6,100.4z M209.5,104.7c0.3-0.4,0.5-0.9,0.5-1.6s-0.2-1.3-0.5-1.6
				c-0.3-0.4-0.7-0.6-1.3-0.6s-1,0.2-1.3,0.6s-0.5,0.9-0.5,1.6s0.2,1.2,0.5,1.6s0.8,0.6,1.3,0.6
				C208.7,105.3,209.2,105.1,209.5,104.7z"/>
			<path class="st5" d="M217,100.4v5.4c0,0.8-0.2,1.4-0.6,1.8c-0.4,0.4-1,0.6-1.7,0.6c-0.8,0-1.5-0.2-2.1-0.6l0.1-0.6
				c0.3,0.2,0.7,0.4,1,0.4c0.3,0.1,0.6,0.1,1,0.1c0.5,0,0.9-0.1,1.2-0.4s0.4-0.7,0.4-1.3v-1.4c-0.2,0.4-0.4,0.6-0.7,0.8
				c-0.3,0.2-0.7,0.3-1.2,0.3s-0.9-0.1-1.3-0.3c-0.4-0.2-0.6-0.5-0.9-0.9c-0.2-0.4-0.3-0.9-0.3-1.4s0.1-1,0.3-1.4s0.5-0.7,0.9-0.9
				c0.4-0.2,0.8-0.3,1.3-0.3c0.4,0,0.8,0.1,1.1,0.3c0.3,0.2,0.6,0.5,0.7,0.8v-1H217z M215.9,104.5c0.3-0.4,0.5-0.9,0.5-1.5
				s-0.2-1.2-0.5-1.5s-0.8-0.6-1.3-0.6c-0.6,0-1,0.2-1.3,0.6s-0.5,0.9-0.5,1.5s0.2,1.2,0.5,1.5c0.3,0.4,0.8,0.6,1.3,0.6
				C215.1,105,215.6,104.8,215.9,104.5z"/>
			<path class="st5" d="M219.2,103L219.2,103c0,0.8,0.2,1.3,0.5,1.7c0.3,0.4,0.8,0.6,1.4,0.6c0.6,0,1.2-0.2,1.8-0.7l0.3,0.5
				c-0.2,0.2-0.5,0.4-0.9,0.5s-0.7,0.2-1.1,0.2c-0.8,0-1.5-0.2-1.9-0.7s-0.7-1.2-0.7-2c0-0.5,0.1-1,0.3-1.5c0.2-0.4,0.5-0.8,0.9-1
				s0.8-0.3,1.3-0.3c0.7,0,1.3,0.2,1.7,0.7s0.6,1.1,0.6,1.9v0.1C223.4,103,219.2,103,219.2,103z M219.8,101.3
				c-0.3,0.3-0.5,0.7-0.6,1.2h3.4c0-0.5-0.2-1-0.5-1.3s-0.7-0.4-1.1-0.4C220.5,100.8,220.1,101,219.8,101.3z"/>
			<path class="st5" d="M228,105.3c-0.2-0.8-0.3-1.6-0.3-2.4s0.1-1.6,0.3-2.4s0.5-1.6,0.9-2.4h0.6c-0.4,0.9-0.6,1.7-0.8,2.5
				s-0.2,1.5-0.2,2.3s0.1,1.5,0.2,2.3c0.2,0.8,0.4,1.6,0.8,2.5h-0.6C228.5,106.9,228.2,106.1,228,105.3z"/>
			<path class="st5" d="M231.6,105.6c-0.5-0.2-0.9-0.4-1.2-0.8l0.3-0.5c0.4,0.3,0.8,0.6,1.1,0.7s0.9,0.2,1.4,0.2
				c0.6,0,1.1-0.1,1.5-0.4s0.5-0.6,0.5-1.1c0-0.3-0.1-0.5-0.3-0.7s-0.4-0.3-0.7-0.4s-0.6-0.2-1.1-0.3c-0.6-0.1-1.1-0.3-1.4-0.4
				c-0.4-0.1-0.7-0.3-0.9-0.6s-0.4-0.6-0.4-1.1c0-0.4,0.1-0.8,0.3-1.1c0.2-0.3,0.5-0.6,0.9-0.8c0.4-0.2,0.9-0.3,1.4-0.3
				s1,0.1,1.4,0.3c0.4,0.2,0.8,0.4,1.1,0.7l-0.3,0.5c-0.4-0.3-0.7-0.6-1.1-0.7s-0.8-0.2-1.2-0.2c-0.6,0-1.1,0.1-1.5,0.4
				s-0.5,0.7-0.5,1.1s0.2,0.7,0.5,0.9c0.3,0.2,0.8,0.4,1.4,0.5l0.3,0.1c0.6,0.1,1,0.3,1.4,0.4c0.3,0.1,0.6,0.3,0.9,0.6
				c0.2,0.3,0.4,0.6,0.4,1s-0.1,0.8-0.3,1.1s-0.5,0.6-0.9,0.7s-0.9,0.3-1.4,0.3C232.6,105.9,232.1,105.8,231.6,105.6z"/>
			<path class="st5" d="M238.2,105.6c-0.5-0.2-0.9-0.4-1.2-0.8l0.3-0.5c0.4,0.3,0.8,0.6,1.1,0.7s0.9,0.2,1.4,0.2
				c0.6,0,1.1-0.1,1.5-0.4s0.5-0.6,0.5-1.1c0-0.3-0.1-0.5-0.3-0.7s-0.4-0.3-0.7-0.4s-0.6-0.2-1.1-0.3c-0.6-0.1-1.1-0.3-1.4-0.4
				c-0.4-0.1-0.7-0.3-0.9-0.6c-0.2-0.3-0.4-0.6-0.4-1.1c0-0.4,0.1-0.8,0.3-1.1c0.2-0.3,0.5-0.6,0.9-0.8c0.4-0.2,0.9-0.3,1.4-0.3
				s1,0.1,1.4,0.3c0.4,0.2,0.8,0.4,1.1,0.7l-0.3,0.5c-0.4-0.3-0.7-0.6-1.1-0.7c-0.4-0.1-0.8-0.2-1.2-0.2c-0.6,0-1.1,0.1-1.5,0.4
				s-0.5,0.7-0.5,1.1s0.2,0.7,0.5,0.9c0.3,0.2,0.8,0.4,1.4,0.5l0.3,0.1c0.6,0.1,1,0.3,1.4,0.4c0.3,0.1,0.6,0.3,0.9,0.6
				c0.2,0.3,0.4,0.6,0.4,1s-0.1,0.8-0.3,1.1c-0.2,0.3-0.5,0.6-0.9,0.7s-0.9,0.3-1.4,0.3C239.2,105.9,238.7,105.8,238.2,105.6z"/>
			<path class="st5" d="M244.1,98.2h2.9c0.8,0,1.4,0.2,1.8,0.6c0.4,0.4,0.7,0.9,0.7,1.5c0,0.7-0.2,1.2-0.7,1.5
				c-0.4,0.4-1,0.6-1.8,0.6h-2.3v3.4H244v-7.6H244.1z M246.9,101.8c0.6,0,1.1-0.1,1.4-0.4s0.5-0.6,0.5-1.1s-0.2-0.9-0.5-1.1
				s-0.8-0.4-1.4-0.4h-2.2v3H246.9z"/>
			<path class="st5" d="M251.1,104.8v0.7c0,0.3,0,0.5-0.1,0.7s-0.2,0.4-0.4,0.6l-0.3-0.3c0.2-0.3,0.4-0.6,0.4-0.9h-0.4v-0.9h0.8
				V104.8z"/>
			<path class="st5" d="M71.6,119c-0.5-0.2-0.9-0.4-1.2-0.8l0.3-0.5c0.4,0.3,0.8,0.6,1.1,0.7s0.9,0.2,1.4,0.2c0.6,0,1.1-0.1,1.5-0.4
				s0.5-0.6,0.5-1.1c0-0.3-0.1-0.5-0.3-0.7s-0.4-0.3-0.7-0.4s-0.6-0.2-1.1-0.3c-0.6-0.1-1.1-0.3-1.4-0.4c-0.4-0.1-0.7-0.3-0.9-0.6
				c-0.2-0.3-0.4-0.6-0.4-1.1c0-0.4,0.1-0.8,0.3-1.1c0.2-0.3,0.5-0.6,0.9-0.8c0.4-0.2,0.9-0.3,1.4-0.3s1,0.1,1.4,0.3
				c0.4,0.2,0.8,0.4,1.1,0.7l-0.3,0.5c-0.4-0.3-0.7-0.6-1.1-0.7s-0.8-0.2-1.2-0.2c-0.6,0-1.1,0.1-1.5,0.4s-0.5,0.7-0.5,1.1
				s0.2,0.7,0.5,0.9c0.3,0.2,0.8,0.4,1.4,0.5l0.3,0.1c0.6,0.1,1,0.3,1.4,0.4c0.3,0.1,0.6,0.3,0.9,0.6c0.2,0.3,0.4,0.6,0.4,1
				s-0.1,0.8-0.3,1.1c-0.2,0.3-0.5,0.6-0.9,0.7s-0.9,0.3-1.4,0.3C72.6,119.2,72.1,119.1,71.6,119z"/>
			<path class="st5" d="M82.4,117.1h-4.1l-0.9,2h-0.7l3.3-7.6h0.6l3.3,7.6h-0.7L82.4,117.1z M82.1,116.5l-1.8-4.2l-1.8,4.2H82.1z"/>
			<path class="st5" d="M85.2,111.5h2.9c0.8,0,1.4,0.2,1.8,0.6s0.7,0.9,0.7,1.5c0,0.7-0.2,1.2-0.7,1.5c-0.4,0.4-1,0.6-1.8,0.6h-2.3
				v3.4h-0.7L85.2,111.5L85.2,111.5z M88.1,115.1c0.6,0,1.1-0.1,1.4-0.4s0.5-0.6,0.5-1.1s-0.2-0.9-0.5-1.1s-0.8-0.4-1.4-0.4h-2.2v3
				H88.1z"/>
			<path class="st5" d="M92.3,118.2v0.7c0,0.3,0,0.5-0.1,0.7s-0.2,0.4-0.4,0.6l-0.3-0.3c0.2-0.3,0.4-0.6,0.4-0.9h-0.4v-0.9h0.8
				V118.2z"/>
			<path class="st5" d="M97.6,119c-0.5-0.2-0.9-0.4-1.2-0.8l0.3-0.5c0.4,0.3,0.8,0.6,1.1,0.7s0.9,0.2,1.4,0.2c0.6,0,1.1-0.1,1.5-0.4
				s0.5-0.6,0.5-1.1c0-0.3-0.1-0.5-0.3-0.7s-0.4-0.3-0.7-0.4c-0.3-0.1-0.6-0.2-1.1-0.3c-0.6-0.1-1.1-0.3-1.4-0.4
				c-0.4-0.1-0.7-0.3-0.9-0.6s-0.4-0.6-0.4-1.1c0-0.4,0.1-0.8,0.3-1.1c0.2-0.3,0.5-0.6,0.9-0.8c0.4-0.2,0.9-0.3,1.4-0.3
				s1,0.1,1.4,0.3c0.4,0.2,0.8,0.4,1.1,0.7l-0.3,0.5c-0.4-0.3-0.7-0.6-1.1-0.7s-0.8-0.2-1.2-0.2c-0.6,0-1.1,0.1-1.5,0.4
				s-0.5,0.7-0.5,1.1s0.2,0.7,0.5,0.9c0.3,0.2,0.8,0.4,1.4,0.5l0.3,0.1c0.6,0.1,1,0.3,1.4,0.4c0.3,0.1,0.6,0.3,0.9,0.6
				c0.2,0.3,0.4,0.6,0.4,1s-0.1,0.8-0.3,1.1s-0.5,0.6-0.9,0.7s-0.9,0.3-1.4,0.3C98.6,119.2,98.1,119.1,97.6,119z"/>
			<path class="st5" d="M108.4,117.1h-4.1l-0.9,2h-0.7l3.3-7.6h0.6l3.3,7.6h-0.7L108.4,117.1z M108.2,116.5l-1.8-4.2l-1.8,4.2H108.2
				z"/>
			<path class="st5" d="M117.1,119.1h-0.7l-1-2.5c-0.1-0.3-0.3-0.6-0.5-0.7s-0.5-0.2-0.9-0.2h-2.1v3.4h-0.7v-7.6h2.9
				c0.8,0,1.4,0.2,1.8,0.5c0.4,0.4,0.7,0.9,0.7,1.5c0,0.5-0.1,0.9-0.4,1.2c-0.3,0.3-0.6,0.6-1.1,0.7c0.2,0,0.4,0.1,0.6,0.3
				c0.2,0.1,0.3,0.4,0.4,0.7L117.1,119.1z M114.2,115.2c1.2,0,1.9-0.5,1.9-1.6c0-1-0.6-1.5-1.9-1.5H112v3.1H114.2z"/>
			<path class="st5" d="M119.5,118.2v0.7c0,0.3,0,0.5-0.1,0.7s-0.2,0.4-0.4,0.6l-0.3-0.3c0.2-0.3,0.4-0.6,0.4-0.9h-0.4v-0.9h0.8
				V118.2z"/>
			<path class="st5" d="M124,111.5h2.9c0.8,0,1.4,0.2,1.8,0.6s0.7,0.9,0.7,1.5c0,0.7-0.2,1.2-0.7,1.5c-0.4,0.4-1,0.6-1.8,0.6h-2.3
				v3.4H124V111.5z M126.9,115.1c0.6,0,1.1-0.1,1.4-0.4s0.5-0.6,0.5-1.1s-0.2-0.9-0.5-1.1s-0.8-0.4-1.4-0.4h-2.2v3H126.9z"/>
			<path class="st5" d="M132.1,118.8c-0.5-0.3-0.9-0.8-1.2-1.3s-0.4-1.3-0.4-2.1s0.1-1.5,0.4-2.1c0.3-0.6,0.7-1,1.2-1.3
				s1.1-0.5,1.8-0.5s1.3,0.2,1.8,0.5s0.9,0.8,1.2,1.3c0.3,0.6,0.4,1.3,0.4,2.1s-0.1,1.5-0.4,2.1c-0.3,0.6-0.7,1-1.2,1.4
				s-1.1,0.5-1.8,0.5C133.3,119.2,132.7,119.1,132.1,118.8z M135.9,117.8c0.5-0.6,0.7-1.4,0.7-2.4c0-1.1-0.2-1.9-0.7-2.4
				c-0.5-0.6-1.1-0.9-2-0.9s-1.5,0.3-2,0.9s-0.7,1.4-0.7,2.4s0.2,1.9,0.7,2.4c0.5,0.6,1.1,0.9,2,0.9
				C134.8,118.6,135.5,118.3,135.9,117.8z"/>
			<path class="st5" d="M143.9,117.1h-4.1l-0.9,2h-0.7l3.3-7.6h0.6l3.3,7.6h-0.7L143.9,117.1z M143.6,116.5l-1.8-4.2l-1.8,4.2H143.6
				z"/>
			<path class="st5" d="M152.9,118.8l-0.4,0.4c-0.6-0.3-1.1-0.7-1.5-1.1c-0.3,0.3-0.6,0.6-1,0.8c-0.4,0.2-0.8,0.3-1.3,0.3
				s-0.9-0.1-1.2-0.2c-0.4-0.2-0.6-0.4-0.8-0.7c-0.2-0.3-0.3-0.6-0.3-1c0-0.5,0.1-0.9,0.4-1.2s0.7-0.8,1.4-1.2
				c-0.3-0.4-0.6-0.8-0.7-1s-0.2-0.5-0.2-0.8c0-0.5,0.2-0.9,0.5-1.2c0.3-0.3,0.8-0.4,1.3-0.4s0.9,0.1,1.2,0.4s0.4,0.6,0.4,1.1
				c0,0.4-0.1,0.7-0.3,1s-0.6,0.6-1.3,1l1.9,2.2c0.3-0.7,0.5-1.5,0.6-2.5h0.6c0,1.2-0.3,2.2-0.8,3
				C151.8,118.1,152.3,118.5,152.9,118.8z M150.7,117.7l-2.1-2.4c-0.6,0.4-1,0.7-1.2,1s-0.3,0.6-0.3,1s0.2,0.8,0.5,1
				c0.3,0.3,0.7,0.4,1.3,0.4C149.6,118.7,150.2,118.3,150.7,117.7z M148.1,113.7c0.1,0.2,0.3,0.5,0.6,0.9c0.5-0.3,0.9-0.6,1.1-0.8
				c0.2-0.2,0.3-0.5,0.3-0.7c0-0.3-0.1-0.5-0.3-0.7s-0.4-0.3-0.7-0.3s-0.6,0.1-0.8,0.3c-0.2,0.2-0.3,0.5-0.3,0.8
				C148,113.3,148,113.5,148.1,113.7z"/>
			<path class="st5" d="M161,111.5v7.6h-0.6V113l-2.7,6.1h-0.5l-2.7-6v6h-0.6v-7.6h0.5l3,6.8l3-6.8H161z"/>
			<path class="st5" d="M162.4,121.1c0.4-0.9,0.6-1.7,0.8-2.5s0.2-1.6,0.2-2.3c0-0.8-0.1-1.5-0.2-2.3c-0.2-0.8-0.4-1.6-0.8-2.5h0.6
				c0.4,0.8,0.7,1.6,0.9,2.4s0.3,1.6,0.3,2.4s-0.1,1.6-0.3,2.4s-0.5,1.6-0.9,2.4H162.4z"/>
			<path class="st5" d="M166.3,114.9l1.1-1.4l-1.7-0.5l0.2-0.5l1.6,0.6l-0.1-1.7h0.5v1.7l1.6-0.6l0.2,0.5l-1.7,0.5l1.1,1.4l-0.4,0.3
				l-1-1.4l-1,1.4L166.3,114.9z"/>
		</g>
	</g>
	<g class="st4">
		<g>
			<path class="st1" d="M46.4,75.9v2.9h4.2v1h-4.2v3.4h-1.2v-8.4h5.9v1L46.4,75.9L46.4,75.9z"/>
			<path class="st1" d="M58.5,76.9v6.4h-1.1v-1c-0.5,0.7-1.3,1-2.2,1c-1.6,0-2.7-0.9-2.7-2.8v-3.7h1.2v3.5c0,1.3,0.6,1.9,1.7,1.9
				c1.2,0,2-0.7,2-2.1v-3.3L58.5,76.9L58.5,76.9z"/>
			<path class="st1" d="M60.9,74.4H62v8.9h-1.2v-8.9H60.9z"/>
			<path class="st1" d="M64.3,74.4h1.2v8.9h-1.2V74.4z"/>
			<path class="st1" d="M70.6,82.4l0.4-0.9c0.6,0.6,1.7,1,2.8,1c1.5,0,2.1-0.6,2.1-1.3c0-2.1-5.1-0.8-5.1-3.9c0-1.3,1-2.4,3.2-2.4
				c1,0,2,0.3,2.7,0.7l-0.4,1c-0.7-0.5-1.6-0.7-2.3-0.7c-1.4,0-2,0.6-2,1.3c0,2.1,5.1,0.8,5.1,3.9c0,1.3-1,2.4-3.3,2.4
				C72.5,83.4,71.2,83,70.6,82.4z"/>
			<path class="st1" d="M84.5,80.5h-5.2c0.1,1.1,1,1.9,2.3,1.9c0.7,0,1.4-0.3,1.8-0.8l0.6,0.7c-0.6,0.7-1.5,1-2.5,1
				c-2.1,0-3.4-1.4-3.4-3.3s1.4-3.3,3.2-3.3s3.2,1.3,3.2,3.3C84.5,80.3,84.5,80.4,84.5,80.5z M79.3,79.7h4.1c-0.1-1.1-0.9-1.8-2-1.8
				C80.3,77.9,79.5,78.6,79.3,79.7z"/>
			<path class="st1" d="M85.7,80.1c0-1.9,1.4-3.3,3.4-3.3c1.1,0,2.1,0.5,2.6,1.4l-0.9,0.6c-0.4-0.6-1-0.9-1.7-0.9
				c-1.3,0-2.2,0.9-2.2,2.2c0,1.4,0.9,2.3,2.2,2.3c0.7,0,1.3-0.3,1.7-0.9l0.9,0.6c-0.5,0.9-1.5,1.4-2.6,1.4
				C87.1,83.4,85.7,82,85.7,80.1z"/>
			<path class="st1" d="M99.2,76.9v6.4h-1.1v-1c-0.5,0.7-1.3,1-2.2,1c-1.6,0-2.7-0.9-2.7-2.8v-3.7h1.2v3.5c0,1.3,0.6,1.9,1.7,1.9
				c1.2,0,2-0.7,2-2.1v-3.3L99.2,76.9L99.2,76.9z"/>
			<path class="st1" d="M104.9,76.9V78c-0.1,0-0.2,0-0.3,0c-1.2,0-2,0.8-2,2.2v3.2h-1.2V77h1.1v1C103,77.3,103.8,76.9,104.9,76.9z"
				/>
			<path class="st1" d="M106.3,75c0-0.4,0.3-0.8,0.8-0.8c0.4,0,0.8,0.3,0.8,0.7c0,0.4-0.3,0.8-0.8,0.8
				C106.6,75.7,106.3,75.4,106.3,75z M106.5,76.9h1.2v6.4h-1.2V76.9z"/>
			<path class="st1" d="M113.5,83c-0.3,0.3-0.9,0.4-1.4,0.4c-1.3,0-2-0.7-2-2v-3.5H109v-1h1.1v-1.4h1.2v1.4h1.8v1h-1.8v3.5
				c0,0.7,0.4,1.1,1,1.1c0.3,0,0.7-0.1,0.9-0.3L113.5,83z"/>
			<path class="st1" d="M120.6,76.9l-3.1,7c-0.6,1.3-1.3,1.8-2.3,1.8c-0.6,0-1.2-0.2-1.6-0.6l0.5-0.9c0.3,0.3,0.7,0.5,1.1,0.5
				c0.6,0,0.9-0.3,1.2-1l0.2-0.4l-2.8-6.4h1.2l2.2,5.1l2.2-5.1H120.6z"/>
			<path class="st1" d="M130.7,81.2h-4.5l-0.9,2.1H124l3.8-8.4h1.2l3.8,8.4h-1.3L130.7,81.2z M130.3,80.3l-1.8-4.1l-1.8,4.1H130.3z"
				/>
			<path class="st1" d="M133.2,82.7l0.5-0.9c0.5,0.4,1.4,0.7,2.2,0.7c1.1,0,1.5-0.3,1.5-0.9c0-1.4-4-0.2-4-2.7c0-1.1,1-1.9,2.7-1.9
				c0.8,0,1.8,0.2,2.3,0.6l-0.5,0.9c-0.6-0.4-1.2-0.5-1.8-0.5c-1,0-1.5,0.4-1.5,0.9c0,1.5,4,0.3,4,2.8c0,1.2-1.1,1.9-2.8,1.9
				C134.8,83.4,133.7,83.1,133.2,82.7z"/>
			<path class="st1" d="M139.3,82.7l0.5-0.9c0.5,0.4,1.4,0.7,2.2,0.7c1.1,0,1.5-0.3,1.5-0.9c0-1.4-4-0.2-4-2.7c0-1.1,1-1.9,2.7-1.9
				c0.8,0,1.8,0.2,2.3,0.6l-0.5,0.9c-0.6-0.4-1.2-0.5-1.8-0.5c-1,0-1.5,0.4-1.5,0.9c0,1.5,4,0.3,4,2.8c0,1.2-1.1,1.9-2.8,1.9
				C140.9,83.4,139.9,83.1,139.3,82.7z"/>
			<path class="st1" d="M152,80.5h-5.2c0.1,1.1,1,1.9,2.3,1.9c0.7,0,1.4-0.3,1.8-0.8l0.6,0.7c-0.6,0.7-1.5,1-2.5,1
				c-2.1,0-3.4-1.4-3.4-3.3s1.4-3.3,3.2-3.3S152,78,152,80C152.1,80.3,152.1,80.4,152,80.5z M146.9,79.7h4.1c-0.1-1.1-0.9-1.8-2-1.8
				C147.8,77.9,147,78.6,146.9,79.7z"/>
			<path class="st1" d="M153,82.7l0.5-0.9c0.5,0.4,1.4,0.7,2.2,0.7c1.1,0,1.5-0.3,1.5-0.9c0-1.4-4-0.2-4-2.7c0-1.1,1-1.9,2.7-1.9
				c0.8,0,1.8,0.2,2.3,0.6l-0.5,0.9c-0.6-0.4-1.2-0.5-1.8-0.5c-1,0-1.5,0.4-1.5,0.9c0,1.5,4,0.3,4,2.8c0,1.2-1.1,1.9-2.8,1.9
				C154.6,83.4,153.5,83.1,153,82.7z"/>
			<path class="st1" d="M159.1,82.7l0.5-0.9c0.5,0.4,1.4,0.7,2.2,0.7c1.1,0,1.5-0.3,1.5-0.9c0-1.4-4-0.2-4-2.7c0-1.1,1-1.9,2.7-1.9
				c0.8,0,1.8,0.2,2.3,0.6l-0.5,0.9c-0.6-0.4-1.2-0.5-1.8-0.5c-1,0-1.5,0.4-1.5,0.9c0,1.5,4,0.3,4,2.8c0,1.2-1.1,1.9-2.8,1.9
				C160.7,83.4,159.7,83.1,159.1,82.7z"/>
			<path class="st1" d="M176.7,79.7v3.7h-1.2v-3.5c0-1.3-0.6-1.9-1.6-1.9c-1.2,0-1.9,0.7-1.9,2.1v3.3h-1.2v-3.5
				c0-1.3-0.6-1.9-1.6-1.9c-1.2,0-1.9,0.7-1.9,2.1v3.3h-1.2V77h1.1v1c0.5-0.7,1.2-1,2.2-1s1.8,0.4,2.2,1.2c0.5-0.7,1.4-1.2,2.5-1.2
				C175.6,76.9,176.7,77.8,176.7,79.7z"/>
			<path class="st1" d="M184.7,80.5h-5.2c0.1,1.1,1,1.9,2.3,1.9c0.7,0,1.4-0.3,1.8-0.8l0.6,0.7c-0.6,0.7-1.5,1-2.5,1
				c-2.1,0-3.4-1.4-3.4-3.3s1.4-3.3,3.2-3.3s3.2,1.3,3.2,3.3C184.7,80.3,184.7,80.4,184.7,80.5z M179.5,79.7h4.1
				c-0.1-1.1-0.9-1.8-2-1.8C180.5,77.9,179.6,78.6,179.5,79.7z"/>
			<path class="st1" d="M192.5,79.7v3.7h-1.2v-3.5c0-1.3-0.6-1.9-1.7-1.9c-1.2,0-2,0.7-2,2.1v3.3h-1.2V77h1.1v1c0.5-0.6,1.3-1,2.3-1
				C191.4,76.9,192.5,77.8,192.5,79.7z"/>
			<path class="st1" d="M198.3,83c-0.3,0.3-0.9,0.4-1.4,0.4c-1.3,0-2-0.7-2-2v-3.5h-1.1v-1h1.1v-1.4h1.2v1.4h1.8v1h-1.8v3.5
				c0,0.7,0.4,1.1,1,1.1c0.3,0,0.7-0.1,0.9-0.3L198.3,83z"/>
		</g>
	</g>
	<g class="st6">
		<path class="st7" d="M80.4,30.1H76l-0.9,2h-1.7l3.9-8.7H79l3.9,8.7h-1.7L80.4,30.1z M79.8,28.8L78.2,25l-1.6,3.8H79.8z"/>
		<path class="st7" d="M90.3,25.5v6.6h-1.5v-0.8c-0.5,0.6-1.3,0.9-2.1,0.9c-1.7,0-2.9-0.9-2.9-2.9v-3.8h1.6v3.6
			c0,1.2,0.6,1.8,1.6,1.8c1.1,0,1.8-0.7,1.8-2v-3.4C88.8,25.5,90.3,25.5,90.3,25.5z"/>
		<path class="st7" d="M96.3,31.8c-0.4,0.3-0.9,0.4-1.5,0.4c-1.5,0-2.3-0.8-2.3-2.2v-3.2h-1.1v-1.2h1.1V24h1.6v1.5h1.8v1.2h-1.8v3.2
			c0,0.6,0.3,1,0.9,1c0.3,0,0.6-0.1,0.9-0.3L96.3,31.8z"/>
		<path class="st7" d="M104.2,28.3v3.8h-1.6v-3.6c0-1.2-0.6-1.8-1.6-1.8c-1.1,0-1.9,0.7-1.9,2v3.4h-1.6v-9.2h1.6v3.4
			c0.5-0.5,1.3-0.8,2.2-0.8C103,25.4,104.2,26.3,104.2,28.3z"/>
		<path class="st7" d="M105.8,28.8c0-2,1.5-3.4,3.5-3.4c2.1,0,3.5,1.4,3.5,3.4s-1.5,3.4-3.5,3.4S105.8,30.8,105.8,28.8z M111.3,28.8
			c0-1.3-0.8-2.1-2-2.1c-1.1,0-2,0.8-2,2.1s0.8,2.1,2,2.1C110.4,30.9,111.3,30.1,111.3,28.8z"/>
		<path class="st7" d="M118.3,25.4v1.5c-0.1,0-0.2,0-0.4,0c-1.2,0-1.9,0.7-1.9,2.1v3.2h-1.6v-6.6h1.5v1
			C116.3,25.7,117.1,25.4,118.3,25.4z"/>
		<path class="st7" d="M119.4,23.4c0-0.5,0.4-0.9,1-0.9s1,0.4,1,0.9s-0.4,1-1,1S119.4,24,119.4,23.4z M119.6,25.5h1.6v6.6h-1.6V25.5
			z"/>
		<path class="st7" d="M128.5,30.9v1.2h-5.7v-1l3.6-4.4h-3.6v-1.2h5.6v1l-3.7,4.4C124.7,30.9,128.5,30.9,128.5,30.9z"/>
		<path class="st7" d="M135.5,28.2v3.9H134v-0.8c-0.4,0.6-1.1,0.9-2.1,0.9c-1.5,0-2.5-0.8-2.5-2c0-1.1,0.7-2,2.8-2h1.7v-0.1
			c0-0.9-0.5-1.4-1.7-1.4c-0.7,0-1.5,0.2-2,0.7l-0.6-1.1c0.7-0.5,1.7-0.8,2.8-0.8C134.4,25.4,135.5,26.3,135.5,28.2z M134,30v-0.8
			h-1.6c-1.1,0-1.3,0.4-1.3,0.9c0,0.6,0.5,0.9,1.3,0.9C133,31.1,133.7,30.7,134,30z"/>
		<path class="st7" d="M141.6,31.8c-0.4,0.3-0.9,0.4-1.5,0.4c-1.5,0-2.3-0.8-2.3-2.2v-3.2h-1.1v-1.2h1.1V24h1.6v1.5h1.8v1.2h-1.8
			v3.2c0,0.6,0.3,1,0.9,1c0.3,0,0.6-0.1,0.9-0.3L141.6,31.8z"/>
		<path class="st7" d="M142.7,23.4c0-0.5,0.4-0.9,1-0.9s1,0.4,1,0.9s-0.4,1-1,1C143.1,24.4,142.7,24,142.7,23.4z M142.9,25.5h1.6
			v6.6h-1.6V25.5z"/>
		<path class="st7" d="M146,28.8c0-2,1.5-3.4,3.5-3.4c2.1,0,3.5,1.4,3.5,3.4s-1.5,3.4-3.5,3.4S146,30.8,146,28.8z M151.5,28.8
			c0-1.3-0.8-2.1-2-2.1c-1.1,0-2,0.8-2,2.1s0.8,2.1,2,2.1S151.5,30.1,151.5,28.8z"/>
		<path class="st7" d="M161.2,28.3v3.8h-1.6v-3.6c0-1.2-0.6-1.8-1.6-1.8c-1.1,0-1.9,0.7-1.9,2v3.4h-1.6v-6.6h1.5v0.9
			c0.5-0.6,1.3-0.9,2.3-0.9C160,25.4,161.2,26.3,161.2,28.3z"/>
	</g>
	<g class="st4">
		<path id="Path_1554_1_" class="st8" d="M162.1,154.4c0,4.5-3.6,8.1-8.1,8.1s-8.1-3.6-8.1-8.1s3.6-8.1,8.1-8.1
			S162.1,149.9,162.1,154.4z"/>
		<g id="Group_1434_1_" transform="translate(4.574 4.222)">
			<g id="arrow_1_" transform="translate(4.574 0)">
				<path id="arrow-2_1_" class="st7" d="M145,155c-0.2,0-0.5-0.1-0.6-0.3l-3.5-3.4c-0.3-0.3-0.4-0.8-0.1-1.2c0,0,0,0,0.1-0.1
					c0.3-0.3,0.9-0.3,1.2,0l0,0l2.9,2.8l2.9-2.8c0.3-0.3,0.9-0.3,1.2,0l0,0c0.3,0.3,0.4,0.8,0.1,1.2c0,0,0,0-0.1,0.1l-3.5,3.4
					C145.4,154.9,145.2,155,145,155z"/>
			</g>
			<path class="st7" d="M149.5,154.2c-0.6,0-1-0.4-1-1V146c0-0.6,0.4-1,1-1s1,0.4,1,1v7.2C150.5,153.7,150,154.2,149.5,154.2z"/>
		</g>
	</g>
	<g class="st4">
		<g>
			<circle class="st1" cx="52.4" cy="103.8" r="8.1"/>
		</g>
		<g>
			<path class="st7" d="M54.1,101.6c-0.2,0-0.4-0.2-0.4-0.4v-2.7h-4.1c-0.6,0-1.1,0.5-1.1,1.1v8.4c0,0.6,0.5,1.1,1.1,1.1h6.2
				c0.6,0,1.1-0.5,1.1-1.1v-6.4H54.1z"/>
		</g>
		<path class="st9" d="M54.1,101.6h2.7l-3.1-3.1v2.7C53.7,101.4,53.8,101.6,54.1,101.6z"/>
		<polygon class="st2" points="56.7,103.8 56.7,101.6 54.1,101.6 		"/>
	</g>
	<g>
		<path class="st7" d="M49.4,35.8c-0.7,0-1.5-0.2-2.5-0.7L46.7,35l-0.1-0.1c-0.4-0.2-0.8-0.3-1.1-0.4c-0.2-0.1-0.4-0.1-0.6-0.1
			c-0.2,0-0.3,0-0.4,0.1c-0.1,0.1-0.2,0.2-0.2,0.3c-0.1,0.3-0.3,0.4-0.6,0.4h-1.8c-0.3,0-0.6-0.3-0.6-0.6c0-0.1,0-0.3,0-0.4
			c0-0.1,0-0.3,0-0.5c0-1,0.2-1.9,0.6-2.7c0.4-0.8,0.9-1.6,1.7-2.3c0.2-0.2,0.5-0.5,0.9-0.7c-0.1,0-0.2,0-0.3,0
			c-0.8,0-1.5-0.3-2-0.9s-0.8-1.4-0.8-2.4c0-1.5,0.6-2.8,1.8-3.8c1.1-0.9,2.6-1.4,4.2-1.4c1.8,0,3.3,0.5,4.4,1.4
			c1.2,1,1.8,2.3,1.8,4c0,1.3-0.4,2.4-1.2,3.3c-0.2,0.3-0.5,0.5-0.8,0.7h1.6c0.3,0,0.6,0.3,0.6,0.7c0,0.1,0,0.2,0,0.4
			c0,0.1,0,0.3,0,0.5c0,1.7-0.4,3.1-1.1,3.9C52,35.3,50.9,35.8,49.4,35.8L49.4,35.8z M48.1,30.4c0.2,0,0.5,0.1,0.8,0.2
			c0.9,0.2,1.2,0.2,1.2,0.2c0.1,0,0.3,0,0.4-0.1c0-0.1,0.1-0.3,0.1-1c0-0.1,0-0.2,0-0.2c-0.5,0.3-1,0.5-1.5,0.7
			c-0.2,0.1-0.4,0.1-0.8,0.2C48.3,30.3,48.2,30.4,48.1,30.4L48.1,30.4z M45.5,23.3c0.2,0.1,0.4,0.2,0.5,0.4c0.4,0.4,0.6,1,0.6,1.7
			c0,0.5-0.1,1-0.4,1.4c0.2-0.2,0.4-0.3,0.6-0.4c0.7-0.5,1-0.8,1.1-1c0.2-0.2,0.2-0.5,0.2-0.9s-0.1-0.7-0.4-0.9
			c-0.3-0.3-0.8-0.5-1.4-0.5C46,23.2,45.8,23.2,45.5,23.3L45.5,23.3z M35.1,35.8c-1.8,0-3.3-0.7-4.5-2.2c-1.1-1.5-1.7-3.5-1.7-5.9
			s0.6-4.4,1.7-5.9s2.6-2.2,4.5-2.2c1.8,0,3.3,0.7,4.5,2.2c1.1,1.5,1.7,3.5,1.7,5.9s-0.6,4.4-1.7,5.9C38.4,35,36.9,35.8,35.1,35.8
			L35.1,35.8z M35.1,23.1c-0.5,0-0.8,0.3-1,0.8s-0.4,1.5-0.4,3.7s0.2,3.2,0.4,3.7c0.2,0.6,0.5,0.8,1,0.8s0.8-0.3,1-0.8
			s0.4-1.5,0.4-3.7s-0.2-3.2-0.4-3.7C35.9,23.3,35.6,23.1,35.1,23.1L35.1,23.1z"/>
		<path class="st1" d="M41.9,34.6c0-0.1,0-0.2,0-0.3s0-0.3,0-0.5c0-0.9,0.2-1.6,0.5-2.3s0.8-1.4,1.5-2c0.5-0.5,1.2-1,2.3-1.6
			c0.5-0.3,0.8-0.5,1-0.6c0.6-0.4,1.1-0.8,1.3-1.2c0.2-0.4,0.4-0.8,0.4-1.4c0-0.7-0.2-1.2-0.7-1.6c-0.4-0.4-1.1-0.6-1.8-0.6
			c-0.6,0-1.1,0.1-1.5,0.4s-0.7,0.7-0.9,1.2c0.1,0,0.2-0.1,0.4-0.1c0.1,0,0.2,0,0.3,0c0.4,0,0.8,0.1,1.1,0.4s0.4,0.7,0.4,1.1
			c0,0.5-0.2,1-0.6,1.3c-0.4,0.4-0.8,0.5-1.4,0.5c-0.7,0-1.2-0.2-1.6-0.7c-0.4-0.5-0.6-1.1-0.6-1.8c0-1.3,0.5-2.3,1.5-3.2
			c1-0.9,2.3-1.3,3.9-1.3c1.7,0,3,0.4,4,1.3c1,0.8,1.5,2,1.5,3.3c0,1-0.3,1.9-1,2.7c-0.6,0.7-1.6,1.3-2.9,1.7
			c-0.2,0.1-0.4,0.1-0.7,0.2c-2.1,0.7-3.4,1.4-3.9,2.3c0.4-0.3,0.8-0.4,1.3-0.6c0.4-0.1,0.9-0.2,1.3-0.2c0.5,0,1.1,0.1,1.8,0.3
			c0.7,0.2,1.2,0.2,1.4,0.2c0.4,0,0.7-0.1,0.9-0.4s0.3-0.8,0.3-1.5h1.8c0,0.1,0,0.2,0,0.3c0,0.1,0,0.3,0,0.5c0,1.5-0.3,2.7-0.9,3.4
			c-0.6,0.7-1.6,1.1-2.8,1.1c-0.6,0-1.4-0.2-2.3-0.6c-0.1-0.1-0.3-0.1-0.3-0.1c-0.5-0.2-0.8-0.3-1.1-0.4c-0.3-0.1-0.5-0.1-0.7-0.1
			c-0.3,0-0.5,0.1-0.7,0.2c-0.2,0.2-0.4,0.4-0.5,0.7H41.9z M29.5,27.6c0-2.2,0.5-4,1.6-5.3c1-1.3,2.4-2,4.1-2s3,0.7,4.1,2
			c1,1.3,1.5,3.1,1.5,5.3s-0.5,4-1.6,5.3c-1,1.3-2.4,2-4.1,2c-1.7,0-3-0.7-4.1-2C30,31.6,29.5,29.9,29.5,27.6z M33.1,27.6
			c0,1.9,0.2,3.2,0.5,4.1c0.3,0.8,0.8,1.2,1.5,1.2s1.2-0.4,1.6-1.3c0.3-0.8,0.5-2.2,0.5-4.1s-0.2-3.2-0.5-4.1
			c-0.3-0.8-0.8-1.2-1.5-1.2s-1.2,0.4-1.5,1.3C33.2,24.4,33.1,25.8,33.1,27.6z"/>
		<path class="st9" d="M33.8,32.5l-0.2,0.3c-0.2-0.2-0.3-0.5-0.4-0.8c-0.4-0.9-0.5-2.3-0.5-4.3s0.2-3.4,0.5-4.3
			c0.4-1,1.1-1.6,1.9-1.6c0.6,0,1.1,0.3,1.5,0.8l-0.2,0.3c-0.3-0.4-0.8-0.6-1.3-0.6c-0.8,0-1.3,0.5-1.7,1.4
			c-0.3,0.9-0.5,2.2-0.5,4.2c0,1.9,0.2,3.3,0.5,4.2C33.5,32.1,33.6,32.3,33.8,32.5z M39.1,22.5l-0.2,0.3c0.9,1.2,1.4,2.8,1.4,4.8
			s-0.5,3.7-1.4,4.9s-2.2,1.8-3.8,1.8s-2.8-0.6-3.8-1.8l0,0l-0.2,0.3l0,0c1,1.3,2.3,2,4,2c1.6,0,3-0.7,4-2s1.5-3,1.5-5.2
			C40.6,25.5,40.1,23.8,39.1,22.5z M53,30v-0.1l-0.3,0.4c0,0.1,0,0.2,0,0.3c0,1.4-0.3,2.4-0.8,3s-1.4,0.9-2.5,0.9
			c-0.6,0-1.3-0.2-2.1-0.6L47,33.7c-0.5-0.2-0.9-0.3-1.2-0.4c-0.3-0.1-0.6-0.1-0.8-0.1c-0.4,0-0.7,0.1-1,0.3
			c-0.2,0.1-0.4,0.3-0.5,0.6h-1.1l-0.3,0.4h1.5c0.1-0.3,0.3-0.5,0.5-0.6c0.2-0.2,0.5-0.2,0.8-0.2c0.2,0,0.5,0,0.8,0.1
			s0.7,0.2,1.1,0.4l0.3,0.1c0.9,0.4,1.6,0.6,2.2,0.6c1.2,0,2.1-0.3,2.7-1c0.6-0.7,0.9-1.8,0.9-3.2C53,30.3,53,30.1,53,30z
			 M42.6,26.5c0.4,0.4,0.9,0.6,1.5,0.6c0.5,0,0.9-0.2,1.3-0.5c0.3-0.3,0.5-0.7,0.5-1.2c0-0.4-0.1-0.7-0.3-1l-0.2,0.3l0,0
			c0.2,0.2,0.2,0.4,0.2,0.7c0,0.3-0.1,0.6-0.4,0.9c-0.3,0.3-0.6,0.4-1.1,0.4c-0.6,0-1-0.2-1.3-0.5L42.6,26.5L42.6,26.5z M51.8,22.8
			L51.8,22.8c0.4,0.6,0.6,1.3,0.6,2.1c0,0.9-0.3,1.6-0.8,2.3c-0.6,0.7-1.5,1.2-2.7,1.6c-0.2,0.1-0.4,0.1-0.7,0.2
			c-2.2,0.7-3.6,1.5-4.2,2.5c-0.1,0.2-0.1,0.5,0,0.7l0.2-0.2c0-0.1,0-0.2,0-0.2c0.6-0.9,1.9-1.7,4-2.4c0.3-0.1,0.6-0.2,0.7-0.2
			c1.2-0.4,2.2-1,2.8-1.7s0.9-1.6,0.9-2.5s-0.2-1.7-0.7-2.4L51.8,22.8z M48.4,22.5c-0.5-0.5-1.2-0.7-2.1-0.7c-0.7,0-1.3,0.2-1.8,0.5
			s-0.9,0.8-1.1,1.4c-0.1,0.2-0.1,0.4,0.1,0.6l0.2-0.2c0-0.1,0-0.1,0-0.2c0.2-0.5,0.5-1,1-1.3c0.4-0.3,1-0.4,1.6-0.4
			c0.8,0,1.4,0.2,1.9,0.6L48.4,22.5C48.5,22.5,48.4,22.5,48.4,22.5z"/>
	</g>
	<rect x="10.2" class="st10" width="300" height="373.7"/>
	<g>
		<polygon class="st1" points="10,364.2 0,351.1 10,351.1 		"/>
		<polygon class="st1" points="310,364.2 320,351.1 310,351.1 		"/>
		<rect x="10" y="343.9" class="st11" width="300" height="12.4"/>
	</g>
	<g>
		<rect y="69" class="st7" width="320" height="282.3"/>
		<g>
			<g>
				<g>
					<path class="st1" d="M30.9,126.7c-0.4-0.2-0.7-0.5-0.9-0.8c-0.2-0.4-0.3-0.7-0.3-1.2c0-0.4,0.1-0.8,0.3-1.1
						c0.2-0.4,0.5-0.6,0.9-0.9c0.4-0.2,0.8-0.3,1.2-0.3c0.4,0,0.8,0.1,1.2,0.3c0.4,0.2,0.6,0.5,0.9,0.8c0.2,0.4,0.3,0.7,0.3,1.2
						c0,0.4-0.1,0.8-0.3,1.2c-0.2,0.4-0.5,0.6-0.9,0.8c-0.4,0.2-0.8,0.3-1.2,0.3C31.6,127,31.2,126.9,30.9,126.7z"/>
					<path class="st1" d="M32,127.1c-0.4,0-0.9-0.1-1.2-0.3c-0.4-0.2-0.7-0.5-0.9-0.9c-0.2-0.4-0.3-0.8-0.3-1.2
						c0-0.4,0.1-0.8,0.3-1.2c0.2-0.4,0.5-0.7,0.9-0.9c0.4-0.2,0.8-0.3,1.3-0.3c0.4,0,0.8,0.1,1.2,0.3c0.4,0.2,0.7,0.5,0.9,0.9
						s0.3,0.8,0.3,1.2c0,0.4-0.1,0.9-0.3,1.2c-0.2,0.4-0.5,0.7-0.9,0.9S32.5,127.1,32,127.1z M32,122.5c-0.4,0-0.8,0.1-1.1,0.3
						c-0.3,0.2-0.6,0.5-0.8,0.8c-0.2,0.3-0.3,0.7-0.3,1.1s0.1,0.8,0.3,1.1s0.5,0.6,0.8,0.8l0,0c0.7,0.4,1.5,0.4,2.2,0
						c0.3-0.2,0.6-0.5,0.8-0.8s0.3-0.7,0.3-1.1s-0.1-0.8-0.3-1.1c-0.2-0.3-0.5-0.6-0.8-0.8S32.4,122.5,32,122.5z"/>
				</g>
				<path class="st5" d="M60,125.7h-5l-1.1,2.5h-0.8l4-9.2h0.7l4,9.2H61L60,125.7z M59.7,125l-2.2-5.1l-2.2,5.1H59.7z"/>
				<path class="st5" d="M68.9,121.7v6.5c0,0.9-0.2,1.6-0.7,2.1s-1.1,0.7-2.1,0.7s-1.8-0.2-2.5-0.7l0.2-0.7c0.4,0.2,0.8,0.4,1.2,0.5
					s0.8,0.2,1.2,0.2c0.6,0,1.1-0.2,1.5-0.5c0.3-0.4,0.5-0.9,0.5-1.5v-1.7c-0.2,0.4-0.5,0.8-0.9,1s-0.9,0.4-1.4,0.4
					c-0.6,0-1.1-0.1-1.5-0.4s-0.8-0.6-1-1.1s-0.4-1-0.4-1.7c0-0.6,0.1-1.2,0.4-1.7c0.2-0.5,0.6-0.9,1-1.1c0.4-0.3,0.9-0.4,1.5-0.4
					c0.5,0,1,0.1,1.4,0.3c0.4,0.2,0.7,0.6,0.9,1v-1.2L68.9,121.7L68.9,121.7z M67.5,126.6c0.4-0.4,0.6-1.1,0.6-1.8
					c0-0.8-0.2-1.4-0.6-1.9s-0.9-0.7-1.6-0.7s-1.2,0.2-1.6,0.7s-0.6,1.1-0.6,1.9s0.2,1.4,0.6,1.8c0.4,0.4,0.9,0.7,1.6,0.7
					C66.6,127.2,67.1,127,67.5,126.6z"/>
				<path class="st5" d="M71.5,124.8L71.5,124.8c0,0.9,0.2,1.6,0.6,2c0.4,0.5,1,0.7,1.8,0.7s1.5-0.3,2.1-0.8l0.3,0.6
					c-0.3,0.3-0.6,0.5-1.1,0.6c-0.4,0.2-0.9,0.2-1.4,0.2c-1,0-1.8-0.3-2.3-0.9c-0.6-0.6-0.9-1.4-0.9-2.5c0-0.7,0.1-1.3,0.4-1.8
					s0.6-0.9,1.1-1.2c0.5-0.3,1-0.4,1.6-0.4c0.9,0,1.5,0.3,2,0.8c0.5,0.6,0.7,1.3,0.7,2.3v0.2h-4.9V124.8z M72.3,122.7
					c-0.4,0.4-0.6,0.9-0.7,1.5h4.1c-0.1-0.7-0.2-1.2-0.6-1.5c-0.3-0.3-0.8-0.5-1.4-0.5C73.1,122.2,72.6,122.3,72.3,122.7z"/>
				<path class="st5" d="M83.5,124v4.1h-0.8V124c0-0.6-0.1-1.1-0.4-1.4s-0.7-0.5-1.2-0.5c-0.6,0-1.2,0.2-1.6,0.6s-0.6,0.9-0.6,1.6
					v3.7h-0.8v-4.7c0-0.7,0-1.3-0.1-1.8h0.7l0.1,1.2c0.2-0.4,0.5-0.8,0.9-1s0.9-0.3,1.4-0.3C82.7,121.5,83.5,122.3,83.5,124z"/>
				<path class="st5" d="M86.7,127.8c-0.5-0.3-0.8-0.7-1.1-1.2c-0.2-0.5-0.4-1.1-0.4-1.8c0-0.7,0.1-1.3,0.4-1.8
					c0.2-0.5,0.6-0.9,1.1-1.2c0.5-0.3,1-0.4,1.6-0.4c0.4,0,0.9,0.1,1.3,0.2s0.7,0.4,1,0.6l-0.3,0.6c-0.3-0.3-0.7-0.5-1-0.6
					s-0.6-0.2-0.9-0.2c-0.7,0-1.2,0.2-1.7,0.7s-0.6,1.1-0.6,2c0,0.8,0.2,1.5,0.6,1.9s1,0.7,1.7,0.7c0.3,0,0.6-0.1,0.9-0.2
					s0.6-0.3,1-0.6l0.3,0.6c-0.3,0.3-0.6,0.5-1,0.6c-0.4,0.2-0.8,0.2-1.2,0.2C87.7,128.2,87.2,128.1,86.7,127.8z"/>
				<path class="st5" d="M97.6,121.7l-3,7.1c-0.3,0.7-0.7,1.2-1.1,1.6c-0.5,0.3-1,0.6-1.7,0.7l-0.2-0.6c0.6-0.1,1.1-0.3,1.4-0.6
					c0.3-0.2,0.6-0.6,0.8-1.1l0.3-0.6l-2.8-6.5h0.8l2.3,5.7l2.4-5.7L97.6,121.7L97.6,121.7z"/>
				<path class="st5" d="M109.5,128.1h-0.8l-1.1-3.1c-0.1-0.4-0.3-0.7-0.6-0.8c-0.3-0.1-0.6-0.2-1.1-0.2h-2.6v4.1h-0.8v-9.2h3.6
					c1,0,1.7,0.2,2.2,0.7c0.5,0.4,0.8,1.1,0.8,1.9c0,0.6-0.2,1.1-0.5,1.5s-0.8,0.7-1.3,0.9c0.3,0,0.5,0.2,0.7,0.3
					c0.2,0.2,0.3,0.4,0.5,0.8L109.5,128.1z M105.9,123.3c1.5,0,2.3-0.6,2.3-1.9c0-1.2-0.8-1.8-2.3-1.8h-2.7v3.7
					C103.2,123.3,105.9,123.3,105.9,123.3z"/>
				<path class="st5" d="M111.7,124.8L111.7,124.8c0,0.9,0.2,1.6,0.6,2c0.4,0.5,1,0.7,1.8,0.7s1.5-0.3,2.1-0.8l0.3,0.6
					c-0.3,0.3-0.6,0.5-1.1,0.6c-0.4,0.2-0.9,0.2-1.4,0.2c-1,0-1.8-0.3-2.3-0.9c-0.6-0.6-0.9-1.4-0.9-2.5c0-0.7,0.1-1.3,0.4-1.8
					s0.6-0.9,1.1-1.2c0.5-0.3,1-0.4,1.6-0.4c0.9,0,1.5,0.3,2,0.8c0.5,0.6,0.7,1.3,0.7,2.3v0.2h-4.9V124.8z M112.4,122.7
					c-0.4,0.4-0.6,0.9-0.7,1.5h4.1c-0.1-0.7-0.2-1.2-0.6-1.5c-0.3-0.3-0.8-0.5-1.4-0.5C113.3,122.2,112.8,122.3,112.4,122.7z"/>
				<path class="st5" d="M123.7,121.7l-2.8,6.5h-0.8l-2.7-6.5h0.8l2.3,5.7l2.4-5.7H123.7z"/>
				<path class="st5" d="M126,119v1h-1v-1H126z M125.1,121.7h0.8v6.5h-0.8V121.7z"/>
				<path class="st5" d="M128.5,124.8L128.5,124.8c0,0.9,0.2,1.6,0.6,2c0.4,0.5,1,0.7,1.8,0.7s1.5-0.3,2.1-0.8l0.3,0.6
					c-0.3,0.3-0.6,0.5-1.1,0.6c-0.4,0.2-0.9,0.2-1.4,0.2c-1,0-1.8-0.3-2.3-0.9c-0.6-0.6-0.9-1.4-0.9-2.5c0-0.7,0.1-1.3,0.4-1.8
					s0.6-0.9,1.1-1.2c0.5-0.3,1-0.4,1.6-0.4c0.9,0,1.5,0.3,2,0.8c0.5,0.6,0.7,1.3,0.7,2.3v0.2h-4.9V124.8z M129.3,122.7
					c-0.4,0.4-0.6,0.9-0.7,1.5h4.1c-0.1-0.7-0.2-1.2-0.6-1.5c-0.3-0.3-0.8-0.5-1.4-0.5C130.1,122.2,129.6,122.3,129.3,122.7z"/>
				<path class="st5" d="M144.8,121.7l-2.4,6.5h-0.8l-2-5.5l-2,5.5h-0.8l-2.3-6.5h0.8l1.9,5.5l2-5.5h0.8l2,5.5l2-5.5H144.8z"/>
				<path class="st5" d="M150.7,127.8c-0.5-0.3-0.8-0.7-1-1.2s-0.4-1.1-0.4-1.8c0-0.7,0.1-1.3,0.4-1.8c0.2-0.5,0.6-0.9,1-1.2
					c0.5-0.3,1-0.4,1.6-0.4s1.1,0.1,1.5,0.4s0.8,0.7,1,1.2s0.4,1.1,0.4,1.8c0,0.7-0.1,1.3-0.4,1.8c-0.2,0.5-0.6,0.9-1,1.2
					c-0.4,0.3-1,0.4-1.5,0.4C151.7,128.2,151.1,128.1,150.7,127.8z M153.8,126.8c0.4-0.5,0.6-1.1,0.6-2c0-0.8-0.2-1.5-0.6-2
					c-0.4-0.5-0.9-0.7-1.6-0.7c-0.7,0-1.2,0.2-1.6,0.7s-0.6,1.1-0.6,2s0.2,1.5,0.6,2c0.4,0.5,0.9,0.7,1.6,0.7
					C152.9,127.5,153.5,127.3,153.8,126.8z"/>
				<path class="st5" d="M158.4,119.6c-0.2,0.2-0.3,0.6-0.3,1.1v1h1.7v0.6h-1.7v5.8h-0.8v-5.8H156v-0.6h1.3v-1.2
					c0-0.6,0.2-1.1,0.5-1.4s0.8-0.5,1.3-0.5c0.3,0,0.5,0,0.8,0.1v0.7c-0.2-0.1-0.5-0.1-0.7-0.1C158.9,119.3,158.6,119.4,158.4,119.6
					z"/>
				<path class="st5" d="M165.7,128c-0.6-0.2-1-0.5-1.5-0.9l0.3-0.6c0.5,0.4,0.9,0.7,1.4,0.9s1,0.3,1.7,0.3c0.8,0,1.4-0.2,1.8-0.5
					c0.4-0.3,0.6-0.8,0.6-1.3c0-0.3-0.1-0.6-0.3-0.8s-0.5-0.4-0.8-0.5s-0.8-0.2-1.3-0.4c-0.7-0.2-1.3-0.3-1.7-0.5s-0.8-0.4-1.1-0.8
					c-0.3-0.3-0.5-0.8-0.5-1.3s0.1-1,0.4-1.4c0.3-0.4,0.6-0.7,1.1-0.9c0.5-0.2,1.1-0.3,1.7-0.3c0.6,0,1.2,0.1,1.7,0.3s1,0.5,1.4,0.9
					l-0.3,0.6c-0.4-0.4-0.9-0.7-1.3-0.9c-0.4-0.2-0.9-0.3-1.5-0.3c-0.8,0-1.4,0.2-1.8,0.5c-0.4,0.3-0.7,0.8-0.7,1.4
					c0,0.5,0.2,0.9,0.6,1.1c0.4,0.2,0.9,0.5,1.7,0.6l0.4,0.1c0.7,0.2,1.2,0.3,1.6,0.5c0.4,0.2,0.7,0.4,1,0.7
					c0.3,0.3,0.4,0.7,0.4,1.2s-0.1,0.9-0.4,1.3c-0.3,0.4-0.6,0.7-1.1,0.9c-0.5,0.2-1.1,0.3-1.7,0.3
					C166.9,128.2,166.2,128.1,165.7,128z"/>
				<path class="st5" d="M173,124.8L173,124.8c0,0.9,0.2,1.6,0.6,2c0.4,0.5,1,0.7,1.8,0.7s1.5-0.3,2.1-0.8l0.3,0.6
					c-0.3,0.3-0.6,0.5-1.1,0.6c-0.4,0.2-0.9,0.2-1.4,0.2c-1,0-1.8-0.3-2.3-0.9c-0.6-0.6-0.9-1.4-0.9-2.5c0-0.7,0.1-1.3,0.4-1.8
					c0.3-0.5,0.6-0.9,1.1-1.2c0.5-0.3,1-0.4,1.6-0.4c0.9,0,1.5,0.3,2,0.8c0.5,0.6,0.7,1.3,0.7,2.3v0.2H173V124.8z M173.8,122.7
					c-0.4,0.4-0.6,0.9-0.7,1.5h4.1c-0.1-0.7-0.2-1.2-0.6-1.5c-0.3-0.3-0.8-0.5-1.4-0.5C174.6,122.2,174.1,122.3,173.8,122.7z"/>
				<path class="st5" d="M180.7,127.8c-0.5-0.3-0.8-0.7-1.1-1.2c-0.2-0.5-0.4-1.1-0.4-1.8c0-0.7,0.1-1.3,0.4-1.8
					c0.2-0.5,0.6-0.9,1.1-1.2c0.5-0.3,1-0.4,1.6-0.4c0.4,0,0.9,0.1,1.3,0.2s0.7,0.4,1,0.6l-0.3,0.6c-0.3-0.3-0.7-0.5-1-0.6
					s-0.6-0.2-0.9-0.2c-0.7,0-1.2,0.2-1.7,0.7s-0.6,1.1-0.6,2c0,0.8,0.2,1.5,0.6,1.9s1,0.7,1.7,0.7c0.3,0,0.6-0.1,0.9-0.2
					s0.6-0.3,1-0.6l0.3,0.6c-0.3,0.3-0.6,0.5-1,0.6c-0.4,0.2-0.8,0.2-1.2,0.2C181.7,128.2,181.2,128.1,180.7,127.8z"/>
				<path class="st5" d="M191.3,121.7v6.5h-0.8V127c-0.2,0.4-0.5,0.7-0.9,0.9s-0.8,0.3-1.3,0.3c-0.8,0-1.3-0.2-1.7-0.6
					s-0.6-1-0.6-1.9v-4.1h0.8v4c0,0.6,0.1,1.1,0.4,1.4c0.3,0.3,0.7,0.5,1.2,0.5c0.6,0,1.1-0.2,1.5-0.6s0.6-0.9,0.6-1.6v-3.7
					L191.3,121.7L191.3,121.7z"/>
				<path class="st5" d="M196.8,121.6v0.7c-0.2,0-0.4-0.1-0.6-0.1c-0.7,0-1.1,0.2-1.5,0.6c-0.3,0.4-0.5,0.9-0.5,1.5v3.8h-0.8v-4.7
					c0-0.7,0-1.3-0.1-1.8h0.7l0.1,1.2c0.2-0.4,0.4-0.8,0.8-1c0.4-0.2,0.8-0.3,1.2-0.3C196.5,121.5,196.7,121.5,196.8,121.6z"/>
				<path class="st5" d="M199,119v1h-1v-1H199z M198.1,121.7h0.8v6.5h-0.8V121.7z"/>
				<path class="st5" d="M202.2,122.3v3.8c0,0.5,0.1,0.9,0.3,1.1s0.5,0.3,0.9,0.3c0.2,0,0.5,0,0.7-0.1v0.7c-0.3,0.1-0.6,0.1-0.8,0.1
					c-0.6,0-1-0.2-1.3-0.5s-0.5-0.8-0.5-1.4v-4h-1.3v-0.6h1.3V120l0.8-0.3v2h1.9v0.6C204.2,122.3,202.2,122.3,202.2,122.3z"/>
				<path class="st5" d="M211,121.7l-3,7.1c-0.3,0.7-0.7,1.2-1.1,1.6c-0.5,0.3-1,0.6-1.7,0.7l-0.2-0.6c0.6-0.1,1.1-0.3,1.4-0.6
					c0.3-0.2,0.6-0.6,0.8-1.1l0.3-0.6l-2.8-6.5h0.8l2.3,5.7l2.4-5.7L211,121.7L211,121.7z"/>
				<path class="st5" d="M221.9,125.7h-5l-1.1,2.5H215l4-9.2h0.7l4,9.2h-0.8L221.9,125.7z M221.5,125l-2.2-5.1l-2.2,5.1H221.5z"/>
				<path class="st5" d="M230.4,121.7v6.5h-0.8V127c-0.2,0.4-0.5,0.7-0.9,0.9s-0.8,0.3-1.3,0.3c-0.8,0-1.3-0.2-1.7-0.6
					s-0.6-1-0.6-1.9v-4.1h0.8v4c0,0.6,0.1,1.1,0.4,1.4c0.3,0.3,0.7,0.5,1.2,0.5c0.6,0,1.1-0.2,1.5-0.6s0.6-0.9,0.6-1.6v-3.7
					L230.4,121.7L230.4,121.7z"/>
				<path class="st5" d="M233.7,122.3v3.8c0,0.5,0.1,0.9,0.3,1.1s0.5,0.3,0.9,0.3c0.2,0,0.5,0,0.7-0.1v0.7c-0.3,0.1-0.6,0.1-0.8,0.1
					c-0.6,0-1-0.2-1.3-0.5s-0.5-0.8-0.5-1.4v-4h-1.3v-0.6h1.3V120l0.8-0.3v2h1.9v0.6C235.7,122.3,233.7,122.3,233.7,122.3z"/>
				<path class="st5" d="M242.4,124v4.1h-0.8V124c0-0.6-0.1-1.1-0.4-1.4c-0.3-0.3-0.7-0.5-1.2-0.5c-0.6,0-1.2,0.2-1.6,0.6
					c-0.4,0.4-0.6,0.9-0.6,1.6v3.7H237v-9.5h0.8v4.2c0.2-0.4,0.5-0.7,0.9-1c0.4-0.2,0.8-0.3,1.3-0.3
					C241.6,121.5,242.4,122.3,242.4,124z"/>
				<path class="st5" d="M245.6,127.8c-0.5-0.3-0.8-0.7-1-1.2s-0.4-1.1-0.4-1.8c0-0.7,0.1-1.3,0.4-1.8c0.2-0.5,0.6-0.9,1-1.2
					c0.5-0.3,1-0.4,1.6-0.4s1.1,0.1,1.5,0.4s0.8,0.7,1,1.2s0.4,1.1,0.4,1.8c0,0.7-0.1,1.3-0.4,1.8c-0.2,0.5-0.6,0.9-1,1.2
					c-0.4,0.3-1,0.4-1.5,0.4C246.5,128.2,246,128.1,245.6,127.8z M248.7,126.8c0.4-0.5,0.6-1.1,0.6-2c0-0.8-0.2-1.5-0.6-2
					s-0.9-0.7-1.6-0.7c-0.7,0-1.2,0.2-1.6,0.7c-0.4,0.5-0.6,1.1-0.6,2s0.2,1.5,0.6,2c0.4,0.5,0.9,0.7,1.6,0.7
					S248.3,127.3,248.7,126.8z"/>
				<path class="st5" d="M255.2,121.6v0.7c-0.2,0-0.4-0.1-0.6-0.1c-0.7,0-1.1,0.2-1.5,0.6c-0.3,0.4-0.5,0.9-0.5,1.5v3.8h-0.8v-4.7
					c0-0.7,0-1.3-0.1-1.8h0.7l0.1,1.2c0.2-0.4,0.4-0.8,0.8-1c0.4-0.2,0.8-0.3,1.2-0.3C254.9,121.5,255.1,121.5,255.2,121.6z"/>
				<path class="st5" d="M257.4,119v1h-1v-1H257.4z M256.4,121.7h0.8v6.5h-0.8V121.7z"/>
				<path class="st5" d="M264.4,127.5v0.6H259v-0.5l4.3-5.3h-4.1v-0.6h5.1v0.6l-4.2,5.2H264.4z"/>
				<path class="st5" d="M271.5,121.7v6.5h-0.8V127c-0.2,0.4-0.5,0.8-0.9,1s-0.8,0.3-1.4,0.3s-1.1-0.1-1.5-0.4
					c-0.4-0.3-0.8-0.7-1-1.2s-0.4-1.1-0.4-1.8s0.1-1.3,0.4-1.8c0.2-0.5,0.6-0.9,1-1.2c0.4-0.3,0.9-0.4,1.5-0.4c0.5,0,1,0.1,1.4,0.3
					c0.4,0.2,0.7,0.6,0.9,1v-1.2L271.5,121.7L271.5,121.7z M270.2,126.8c0.4-0.5,0.6-1.1,0.6-2s-0.2-1.5-0.6-2s-0.9-0.7-1.6-0.7
					s-1.2,0.2-1.6,0.7s-0.6,1.1-0.6,2c0,0.8,0.2,1.5,0.6,1.9c0.4,0.5,0.9,0.7,1.6,0.7C269.3,127.5,269.8,127.3,270.2,126.8z"/>
				<path class="st5" d="M274.8,122.3v3.8c0,0.5,0.1,0.9,0.3,1.1c0.2,0.2,0.5,0.3,0.9,0.3c0.2,0,0.5,0,0.7-0.1v0.7
					c-0.3,0.1-0.6,0.1-0.8,0.1c-0.6,0-1-0.2-1.3-0.5s-0.5-0.8-0.5-1.4v-4h-1.3v-0.6h1.3V120l0.8-0.3v2h1.9v0.6
					C276.8,122.3,274.8,122.3,274.8,122.3z"/>
				<path class="st5" d="M279.1,119v1h-1v-1H279.1z M278.2,121.7h0.8v6.5h-0.8V121.7z"/>
				<path class="st5" d="M282.2,127.8c-0.5-0.3-0.8-0.7-1-1.2s-0.4-1.1-0.4-1.8c0-0.7,0.1-1.3,0.4-1.8c0.2-0.5,0.6-0.9,1-1.2
					c0.5-0.3,1-0.4,1.6-0.4s1.1,0.1,1.5,0.4s0.8,0.7,1,1.2s0.4,1.1,0.4,1.8c0,0.7-0.1,1.3-0.4,1.8c-0.2,0.5-0.6,0.9-1,1.2
					c-0.4,0.3-1,0.4-1.5,0.4C283.1,128.2,282.6,128.1,282.2,127.8z M285.3,126.8c0.4-0.5,0.6-1.1,0.6-2c0-0.8-0.2-1.5-0.6-2
					s-0.9-0.7-1.6-0.7s-1.2,0.2-1.6,0.7s-0.6,1.1-0.6,2s0.2,1.5,0.6,2s0.9,0.7,1.6,0.7S284.9,127.3,285.3,126.8z"/>
				<path class="st5" d="M293.8,124v4.1H293V124c0-0.6-0.1-1.1-0.4-1.4s-0.7-0.5-1.2-0.5c-0.6,0-1.2,0.2-1.6,0.6s-0.6,0.9-0.6,1.6
					v3.7h-0.8v-4.7c0-0.7,0-1.3-0.1-1.8h0.7l0.1,1.2c0.2-0.4,0.5-0.8,0.9-1s0.9-0.3,1.4-0.3C293.1,121.5,293.8,122.3,293.8,124z"/>
				<path class="st5" d="M54,135.1h3.5c0.9,0,1.6,0.2,2.2,0.7c0.5,0.4,0.8,1.1,0.8,1.8c0,0.8-0.3,1.4-0.8,1.9s-1.3,0.7-2.2,0.7h-2.7
					v4.1H54V135.1z M57.5,139.5c0.7,0,1.3-0.2,1.6-0.5c0.4-0.3,0.6-0.8,0.6-1.4c0-0.6-0.2-1-0.6-1.4c-0.4-0.3-0.9-0.5-1.6-0.5h-2.7
					v3.7L57.5,139.5L57.5,139.5z"/>
				<path class="st5" d="M67.6,137.8v6.5h-0.8V143c-0.2,0.4-0.5,0.8-0.9,1s-0.8,0.3-1.4,0.3s-1.1-0.1-1.5-0.4
					c-0.4-0.3-0.8-0.7-1-1.2s-0.4-1.1-0.4-1.8s0.1-1.3,0.4-1.8c0.2-0.5,0.6-0.9,1-1.2s0.9-0.4,1.5-0.4c0.5,0,1,0.1,1.4,0.3
					s0.7,0.6,0.9,1v-1.2h0.8V137.8z M66.2,143c0.4-0.5,0.6-1.1,0.6-2s-0.2-1.5-0.6-2s-0.9-0.7-1.6-0.7s-1.2,0.2-1.6,0.7
					s-0.6,1.1-0.6,2c0,0.8,0.2,1.5,0.6,1.9c0.4,0.5,0.9,0.7,1.6,0.7C65.3,143.7,65.9,143.4,66.2,143z"/>
				<path class="st5" d="M70.8,144c-0.5-0.3-0.8-0.7-1.1-1.2c-0.2-0.5-0.4-1.1-0.4-1.8s0.1-1.3,0.4-1.8c0.2-0.5,0.6-0.9,1.1-1.2
					s1-0.4,1.6-0.4c0.4,0,0.9,0.1,1.3,0.2s0.7,0.4,1,0.6l-0.3,0.6c-0.3-0.3-0.7-0.5-1-0.6s-0.6-0.2-0.9-0.2c-0.7,0-1.2,0.2-1.7,0.7
					s-0.6,1.1-0.6,2c0,0.8,0.2,1.5,0.6,1.9s1,0.7,1.7,0.7c0.3,0,0.6-0.1,0.9-0.2s0.6-0.3,1-0.6l0.3,0.6c-0.3,0.3-0.6,0.5-1,0.6
					c-0.4,0.2-0.8,0.2-1.2,0.2C71.8,144.4,71.3,144.2,70.8,144z"/>
				<path class="st5" d="M80.5,144.3l-3.6-3.2v3.2h-0.8v-9.5h0.8v6l3.3-3h1l-3.4,3.1l3.7,3.4H80.5z"/>
				<path class="st5" d="M88,137.8v6.5h-0.8V143c-0.2,0.4-0.5,0.8-0.9,1s-0.8,0.3-1.4,0.3s-1.1-0.1-1.5-0.4c-0.4-0.3-0.8-0.7-1-1.2
					s-0.4-1.1-0.4-1.8s0.1-1.3,0.4-1.8c0.2-0.5,0.6-0.9,1-1.2s0.9-0.4,1.5-0.4c0.5,0,1,0.1,1.4,0.3s0.7,0.6,0.9,1v-1.2H88V137.8z
					 M86.7,143c0.4-0.5,0.6-1.1,0.6-2s-0.2-1.5-0.6-2s-0.9-0.7-1.6-0.7s-1.2,0.2-1.6,0.7s-0.6,1.1-0.6,2c0,0.8,0.2,1.5,0.6,1.9
					c0.4,0.5,0.9,0.7,1.6,0.7C85.8,143.7,86.3,143.4,86.7,143z"/>
				<path class="st5" d="M95.8,137.8v6.5c0,0.9-0.2,1.6-0.7,2.1s-1.1,0.7-2.1,0.7s-1.8-0.2-2.5-0.7l0.2-0.7c0.4,0.2,0.8,0.4,1.2,0.5
					s0.8,0.2,1.2,0.2c0.6,0,1.1-0.2,1.5-0.5c0.3-0.4,0.5-0.9,0.5-1.5v-1.7c-0.2,0.4-0.5,0.8-0.9,1s-0.9,0.4-1.4,0.4
					c-0.6,0-1.1-0.1-1.5-0.4s-0.8-0.6-1-1.1s-0.4-1-0.4-1.7c0-0.6,0.1-1.2,0.4-1.7c0.2-0.5,0.6-0.9,1-1.1c0.4-0.3,0.9-0.4,1.5-0.4
					c0.5,0,1,0.1,1.4,0.3s0.7,0.6,0.9,1v-1.2L95.8,137.8L95.8,137.8z M94.4,142.7c0.4-0.4,0.6-1.1,0.6-1.8c0-0.8-0.2-1.4-0.6-1.9
					s-0.9-0.7-1.6-0.7s-1.2,0.2-1.6,0.7s-0.6,1.1-0.6,1.9s0.2,1.4,0.6,1.8c0.4,0.4,0.9,0.7,1.6,0.7S94,143.2,94.4,142.7z"/>
				<path class="st5" d="M98.4,140.9L98.4,140.9c0,0.9,0.2,1.6,0.6,2c0.4,0.5,1,0.7,1.8,0.7s1.5-0.3,2.1-0.8l0.3,0.6
					c-0.3,0.3-0.6,0.5-1.1,0.6c-0.4,0.2-0.9,0.2-1.4,0.2c-1,0-1.8-0.3-2.3-0.9c-0.6-0.6-0.9-1.4-0.9-2.5c0-0.7,0.1-1.3,0.4-1.8
					s0.6-0.9,1.1-1.2s1-0.4,1.6-0.4c0.9,0,1.5,0.3,2,0.8c0.5,0.6,0.7,1.3,0.7,2.3v0.2h-4.9V140.9z M99.1,138.8
					c-0.4,0.4-0.6,0.9-0.7,1.5h4.1c-0.1-0.7-0.2-1.2-0.6-1.5c-0.3-0.3-0.8-0.5-1.4-0.5C100,138.3,99.5,138.5,99.1,138.8z"/>
				<g>
					<path class="st1" d="M30.9,167c-0.4-0.2-0.7-0.5-0.9-0.8c-0.2-0.4-0.3-0.7-0.3-1.2c0-0.4,0.1-0.8,0.3-1.1
						c0.2-0.4,0.5-0.6,0.9-0.9c0.4-0.2,0.8-0.3,1.2-0.3c0.4,0,0.8,0.1,1.2,0.3s0.6,0.5,0.9,0.8c0.2,0.4,0.3,0.7,0.3,1.2
						c0,0.4-0.1,0.8-0.3,1.2s-0.5,0.6-0.9,0.8s-0.8,0.3-1.2,0.3C31.6,167.3,31.2,167.2,30.9,167z"/>
					<path class="st1" d="M32,167.5c-0.4,0-0.9-0.1-1.2-0.3c-0.4-0.2-0.7-0.5-0.9-0.9c-0.2-0.4-0.3-0.8-0.3-1.2s0.1-0.8,0.3-1.2
						c0.2-0.4,0.5-0.7,0.9-0.9s0.8-0.3,1.3-0.3c0.4,0,0.8,0.1,1.2,0.3s0.7,0.5,0.9,0.9s0.3,0.8,0.3,1.2s-0.1,0.9-0.3,1.2
						c-0.2,0.4-0.5,0.7-0.9,0.9S32.5,167.5,32,167.5z M32,162.8c-0.4,0-0.8,0.1-1.1,0.3c-0.3,0.2-0.6,0.5-0.8,0.8
						c-0.2,0.3-0.3,0.7-0.3,1.1c0,0.4,0.1,0.8,0.3,1.1s0.5,0.6,0.8,0.8l0,0c0.7,0.4,1.5,0.4,2.2,0c0.3-0.2,0.6-0.5,0.8-0.8
						s0.3-0.7,0.3-1.1c0-0.4-0.1-0.8-0.3-1.1s-0.5-0.6-0.8-0.8C32.8,162.9,32.4,162.8,32,162.8z"/>
				</g>
				<path class="st5" d="M55,168.3c-0.6-0.2-1-0.5-1.5-0.9l0.3-0.6c0.5,0.4,0.9,0.7,1.4,0.9s1,0.3,1.7,0.3c0.8,0,1.4-0.2,1.8-0.5
					c0.4-0.3,0.6-0.8,0.6-1.3c0-0.3-0.1-0.6-0.3-0.8s-0.5-0.4-0.8-0.5s-0.8-0.2-1.3-0.4c-0.7-0.2-1.3-0.3-1.7-0.5s-0.8-0.4-1.1-0.8
					c-0.3-0.3-0.5-0.8-0.5-1.3s0.1-1,0.4-1.4c0.3-0.4,0.6-0.7,1.1-0.9s1.1-0.3,1.7-0.3c0.6,0,1.2,0.1,1.7,0.3s1,0.5,1.4,0.9
					l-0.3,0.6c-0.4-0.4-0.9-0.7-1.3-0.9c-0.4-0.2-0.9-0.3-1.5-0.3c-0.8,0-1.4,0.2-1.8,0.5c-0.4,0.3-0.7,0.8-0.7,1.4
					c0,0.5,0.2,0.9,0.6,1.1c0.4,0.2,0.9,0.5,1.7,0.6l0.4,0.1c0.7,0.2,1.2,0.3,1.6,0.5c0.4,0.2,0.7,0.4,1,0.7s0.4,0.7,0.4,1.2
					s-0.1,0.9-0.4,1.3c-0.3,0.4-0.6,0.7-1.1,0.9s-1.1,0.3-1.7,0.3C56.1,168.6,55.5,168.5,55,168.3z"/>
				<path class="st5" d="M68,166h-5l-1.1,2.5h-0.8l4-9.2h0.7l4,9.2H69L68,166z M67.7,165.3l-2.2-5.1l-2.2,5.1H67.7z"/>
				<path class="st5" d="M78.5,168.5h-0.8l-1.1-3.1c-0.1-0.4-0.3-0.7-0.6-0.8c-0.3-0.1-0.6-0.2-1.1-0.2h-2.6v4.1h-0.8v-9.2H75
					c1,0,1.7,0.2,2.2,0.7c0.5,0.4,0.8,1.1,0.8,1.9c0,0.6-0.2,1.1-0.5,1.5s-0.8,0.7-1.3,0.9c0.3,0,0.5,0.2,0.7,0.3
					c0.2,0.2,0.3,0.4,0.5,0.8L78.5,168.5z M74.9,163.7c1.5,0,2.3-0.6,2.3-1.9c0-1.2-0.8-1.8-2.3-1.8h-2.7v3.7H74.9z"/>
				<path class="st5" d="M83.7,159.3h3c1.5,0,2.6,0.4,3.4,1.2s1.2,1.9,1.2,3.4s-0.4,2.6-1.2,3.4s-1.9,1.2-3.4,1.2h-3V159.3z
					 M86.7,167.8c1.2,0,2.2-0.3,2.8-1c0.6-0.7,0.9-1.6,0.9-2.9c0-2.6-1.3-3.9-3.8-3.9h-2.1v7.8L86.7,167.8L86.7,167.8z"/>
				<path class="st5" d="M93.6,165.2L93.6,165.2c0,0.9,0.2,1.6,0.6,2c0.4,0.5,1,0.7,1.8,0.7s1.5-0.3,2.1-0.8l0.3,0.6
					c-0.3,0.3-0.6,0.5-1.1,0.6c-0.4,0.2-0.9,0.2-1.4,0.2c-1,0-1.8-0.3-2.3-0.9c-0.6-0.6-0.9-1.4-0.9-2.5c0-0.7,0.1-1.3,0.4-1.8
					s0.6-0.9,1.1-1.2s1-0.4,1.6-0.4c0.9,0,1.5,0.3,2,0.8c0.5,0.6,0.7,1.3,0.7,2.3v0.2h-4.9V165.2z M94.4,163.1
					c-0.4,0.4-0.6,0.9-0.7,1.5h4.1c-0.1-0.7-0.2-1.2-0.6-1.5c-0.3-0.3-0.8-0.5-1.4-0.5C95.2,162.5,94.8,162.7,94.4,163.1z"/>
				<path class="st5" d="M104.8,162.3c0.4,0.3,0.8,0.7,1,1.2s0.4,1.1,0.4,1.8s-0.1,1.3-0.4,1.8c-0.2,0.5-0.6,0.9-1,1.2
					s-0.9,0.4-1.5,0.4c-0.5,0-1-0.1-1.4-0.3s-0.7-0.6-0.9-1v1.3h-0.8V159h0.8v4.2c0.2-0.4,0.5-0.8,0.9-1s0.8-0.3,1.4-0.3
					S104.4,162,104.8,162.3z M104.8,167.2c0.4-0.5,0.6-1.1,0.6-2c0-0.8-0.2-1.5-0.6-2s-0.9-0.7-1.6-0.7s-1.2,0.2-1.6,0.7
					s-0.6,1.1-0.6,2s0.2,1.5,0.6,2s0.9,0.7,1.6,0.7S104.4,167.6,104.8,167.2z"/>
				<path class="st5" d="M111.4,161.9v0.7c-0.2,0-0.4-0.1-0.6-0.1c-0.7,0-1.1,0.2-1.5,0.6c-0.3,0.4-0.5,0.9-0.5,1.5v3.8H108v-4.7
					c0-0.7,0-1.3-0.1-1.8h0.7l0.1,1.2c0.2-0.4,0.4-0.8,0.8-1s0.8-0.3,1.2-0.3C111,161.9,111.2,161.9,111.4,161.9z"/>
				<path class="st5" d="M113.5,159.4v1h-1v-1H113.5z M112.6,162h0.8v6.5h-0.8V162z"/>
				<path class="st5" d="M116,165.2L116,165.2c0,0.9,0.2,1.6,0.6,2c0.4,0.5,1,0.7,1.8,0.7s1.5-0.3,2.1-0.8l0.3,0.6
					c-0.3,0.3-0.6,0.5-1.1,0.6c-0.4,0.2-0.9,0.2-1.4,0.2c-1,0-1.8-0.3-2.3-0.9c-0.6-0.6-0.9-1.4-0.9-2.5c0-0.7,0.1-1.3,0.4-1.8
					s0.6-0.9,1.1-1.2s1-0.4,1.6-0.4c0.9,0,1.5,0.3,2,0.8c0.5,0.6,0.7,1.3,0.7,2.3v0.2H116V165.2z M116.7,163.1
					c-0.4,0.4-0.6,0.9-0.7,1.5h4.1c-0.1-0.7-0.2-1.2-0.6-1.5c-0.3-0.3-0.8-0.5-1.4-0.5C117.6,162.5,117.1,162.7,116.7,163.1z"/>
				<path class="st5" d="M124,159.9c-0.2,0.2-0.3,0.6-0.3,1.1v1h1.7v0.6h-1.7v5.8H123v-5.8h-1.3V162h1.3v-1.2c0-0.6,0.2-1.1,0.5-1.4
					c0.3-0.3,0.8-0.5,1.3-0.5c0.3,0,0.5,0,0.8,0.1v0.7c-0.2-0.1-0.5-0.1-0.7-0.1C124.5,159.6,124.2,159.7,124,159.9z"/>
				<g>
					<path class="st1" d="M30.9,191.3c-0.4-0.2-0.7-0.5-0.9-0.8c-0.2-0.4-0.3-0.7-0.3-1.2c0-0.4,0.1-0.8,0.3-1.1
						c0.2-0.4,0.5-0.6,0.9-0.9c0.4-0.2,0.8-0.3,1.2-0.3c0.4,0,0.8,0.1,1.2,0.3s0.6,0.5,0.9,0.8c0.2,0.4,0.3,0.7,0.3,1.2
						c0,0.4-0.1,0.8-0.3,1.2s-0.5,0.6-0.9,0.8s-0.8,0.3-1.2,0.3C31.6,191.6,31.2,191.5,30.9,191.3z"/>
					<path class="st1" d="M32,191.7c-0.4,0-0.9-0.1-1.2-0.3c-0.4-0.2-0.7-0.5-0.9-0.9c-0.2-0.4-0.3-0.8-0.3-1.2s0.1-0.8,0.3-1.2
						c0.2-0.4,0.5-0.7,0.9-0.9s0.8-0.3,1.3-0.3c0.4,0,0.8,0.1,1.2,0.3s0.7,0.5,0.9,0.9s0.3,0.8,0.3,1.2s-0.1,0.9-0.3,1.2
						c-0.2,0.4-0.5,0.7-0.9,0.9S32.5,191.7,32,191.7z M32,187.1c-0.4,0-0.8,0.1-1.1,0.3c-0.3,0.2-0.6,0.5-0.8,0.8
						c-0.2,0.3-0.3,0.7-0.3,1.1c0,0.4,0.1,0.8,0.3,1.1s0.5,0.6,0.8,0.8l0,0c0.7,0.4,1.5,0.4,2.2,0c0.3-0.2,0.6-0.5,0.8-0.8
						s0.3-0.7,0.3-1.1c0-0.4-0.1-0.8-0.3-1.1s-0.5-0.6-0.8-0.8C32.8,187.2,32.4,187.1,32,187.1z"/>
				</g>
				<path class="st5" d="M61.1,192.7h-0.8l-1.1-3.1c-0.1-0.4-0.3-0.7-0.6-0.8s-0.6-0.2-1.1-0.2h-2.6v4.1H54v-9.2h3.6
					c1,0,1.7,0.2,2.2,0.7c0.5,0.4,0.8,1.1,0.8,1.9c0,0.6-0.2,1.1-0.5,1.5s-0.8,0.7-1.3,0.9c0.3,0,0.5,0.2,0.7,0.3
					c0.2,0.2,0.3,0.4,0.5,0.8L61.1,192.7z M57.5,187.9c1.5,0,2.3-0.6,2.3-1.9c0-1.2-0.8-1.8-2.3-1.8h-2.7v3.7H57.5z"/>
				<path class="st5" d="M63.3,189.4L63.3,189.4c0,0.9,0.2,1.6,0.6,2c0.4,0.5,1,0.7,1.8,0.7s1.5-0.3,2.1-0.8l0.3,0.6
					c-0.3,0.3-0.6,0.5-1.1,0.6c-0.4,0.2-0.9,0.2-1.4,0.2c-1,0-1.8-0.3-2.3-0.9c-0.6-0.6-0.9-1.4-0.9-2.5c0-0.7,0.1-1.3,0.4-1.8
					c0.3-0.5,0.6-0.9,1.1-1.2c0.5-0.3,1-0.4,1.6-0.4c0.9,0,1.5,0.3,2,0.8c0.5,0.6,0.7,1.3,0.7,2.3v0.2h-4.9V189.4z M64,187.3
					c-0.4,0.4-0.6,0.9-0.7,1.5h4.1c-0.1-0.7-0.2-1.2-0.6-1.5c-0.3-0.3-0.8-0.5-1.4-0.5C64.9,186.7,64.4,186.9,64,187.3z"/>
				<path class="st5" d="M79,188.6v4.1h-0.8v-4.1c0-0.7-0.1-1.1-0.3-1.4c-0.2-0.3-0.6-0.4-1.1-0.4c-0.6,0-1.1,0.2-1.4,0.6
					c-0.3,0.4-0.5,0.9-0.5,1.6v3.7h-0.8v-4.1c0-0.7-0.1-1.1-0.4-1.4c-0.2-0.3-0.6-0.4-1.1-0.4c-0.6,0-1.1,0.2-1.4,0.6
					c-0.3,0.4-0.5,0.9-0.5,1.6v3.7h-0.8V188c0-0.7,0-1.3-0.1-1.8h0.7l0.1,1.2c0.2-0.4,0.4-0.8,0.8-1s0.8-0.3,1.2-0.3
					c1,0,1.7,0.4,2,1.3c0.2-0.4,0.5-0.7,0.8-0.9c0.4-0.2,0.8-0.3,1.3-0.3C78.3,186.1,79,186.9,79,188.6z"/>
				<path class="st5" d="M81.6,189.4L81.6,189.4c0,0.9,0.2,1.6,0.6,2c0.4,0.5,1,0.7,1.8,0.7s1.5-0.3,2.1-0.8l0.3,0.6
					c-0.3,0.3-0.6,0.5-1.1,0.6c-0.4,0.2-0.9,0.2-1.4,0.2c-1,0-1.8-0.3-2.3-0.9c-0.6-0.6-0.9-1.4-0.9-2.5c0-0.7,0.1-1.3,0.4-1.8
					s0.6-0.9,1.1-1.2s1-0.4,1.6-0.4c0.9,0,1.5,0.3,2,0.8c0.5,0.6,0.7,1.3,0.7,2.3v0.2h-4.9V189.4z M82.4,187.3
					c-0.4,0.4-0.6,0.9-0.7,1.5h4.1c-0.1-0.7-0.2-1.2-0.6-1.5c-0.3-0.3-0.8-0.5-1.4-0.5C83.2,186.7,82.7,186.9,82.4,187.3z"/>
				<path class="st5" d="M93.8,183.2v9.5H93v-1.2c-0.2,0.4-0.5,0.8-0.9,1s-0.8,0.3-1.4,0.3s-1.1-0.1-1.5-0.4c-0.4-0.3-0.8-0.7-1-1.2
					s-0.4-1.1-0.4-1.8s0.1-1.3,0.4-1.8s0.6-0.9,1-1.2s0.9-0.4,1.5-0.4c0.5,0,1,0.1,1.4,0.3s0.7,0.6,0.9,1v-4.2L93.8,183.2
					L93.8,183.2z M92.4,191.4c0.4-0.5,0.6-1.1,0.6-2c0-0.8-0.2-1.5-0.6-2s-0.9-0.7-1.6-0.7s-1.2,0.2-1.6,0.7s-0.6,1.1-0.6,2
					c0,0.8,0.2,1.5,0.6,2s0.9,0.7,1.6,0.7S92.1,191.9,92.4,191.4z"/>
				<path class="st5" d="M96.9,183.6v1h-1v-1H96.9z M96,186.2h0.8v6.5H96V186.2z"/>
				<path class="st5" d="M104.5,186.2v6.5h-0.8v-1.2c-0.2,0.4-0.5,0.8-0.9,1s-0.8,0.3-1.4,0.3s-1.1-0.1-1.5-0.4
					c-0.4-0.3-0.8-0.7-1-1.2s-0.4-1.1-0.4-1.8s0.1-1.3,0.4-1.8c0.2-0.5,0.6-0.9,1-1.2s0.9-0.4,1.5-0.4c0.5,0,1,0.1,1.4,0.3
					s0.7,0.6,0.9,1v-1.2L104.5,186.2L104.5,186.2z M103.1,191.4c0.4-0.5,0.6-1.1,0.6-2s-0.2-1.5-0.6-2s-0.9-0.7-1.6-0.7
					s-1.2,0.2-1.6,0.7s-0.6,1.1-0.6,2c0,0.8,0.2,1.5,0.6,1.9c0.4,0.5,0.9,0.7,1.6,0.7C102.2,192.1,102.8,191.9,103.1,191.4z"/>
				<path class="st5" d="M107.8,186.9v3.8c0,0.5,0.1,0.9,0.3,1.1c0.2,0.2,0.5,0.3,0.9,0.3c0.2,0,0.5,0,0.7-0.1v0.7
					c-0.3,0.1-0.6,0.1-0.8,0.1c-0.6,0-1-0.2-1.3-0.5s-0.5-0.8-0.5-1.4v-4h-1.3v-0.6h1.3v-1.7l0.8-0.3v2h1.9v0.6L107.8,186.9
					L107.8,186.9z"/>
				<path class="st5" d="M112,183.6v1h-1v-1H112z M111.1,186.2h0.8v6.5h-0.8V186.2z"/>
				<path class="st5" d="M115.1,192.4c-0.5-0.3-0.8-0.7-1-1.2s-0.4-1.1-0.4-1.8s0.1-1.3,0.4-1.8c0.2-0.5,0.6-0.9,1-1.2
					c0.5-0.3,1-0.4,1.6-0.4s1.1,0.1,1.5,0.4c0.4,0.3,0.8,0.7,1,1.2s0.4,1.1,0.4,1.8s-0.1,1.3-0.4,1.8c-0.2,0.5-0.6,0.9-1,1.2
					s-1,0.4-1.5,0.4C116.1,192.8,115.6,192.7,115.1,192.4z M118.3,191.4c0.4-0.5,0.6-1.1,0.6-2c0-0.8-0.2-1.5-0.6-2
					s-0.9-0.7-1.6-0.7s-1.2,0.2-1.6,0.7s-0.6,1.1-0.6,2s0.2,1.5,0.6,2s0.9,0.7,1.6,0.7C117.4,192.1,117.9,191.9,118.3,191.4z"/>
				<path class="st5" d="M126.8,188.6v4.1H126v-4.1c0-0.6-0.1-1.1-0.4-1.4c-0.3-0.3-0.7-0.5-1.2-0.5c-0.6,0-1.2,0.2-1.6,0.6
					c-0.4,0.4-0.6,0.9-0.6,1.6v3.7h-0.8V188c0-0.7,0-1.3-0.1-1.8h0.7l0.1,1.2c0.2-0.4,0.5-0.8,0.9-1s0.9-0.3,1.4-0.3
					C126,186.1,126.8,186.9,126.8,188.6z"/>
				<g>
					<path class="st1" d="M30.9,215.5c-0.4-0.2-0.7-0.5-0.9-0.8c-0.2-0.4-0.3-0.7-0.3-1.2c0-0.4,0.1-0.8,0.3-1.1
						c0.2-0.4,0.5-0.6,0.9-0.9c0.4-0.2,0.8-0.3,1.2-0.3c0.4,0,0.8,0.1,1.2,0.3s0.6,0.5,0.9,0.8c0.2,0.4,0.3,0.7,0.3,1.2
						c0,0.4-0.1,0.8-0.3,1.2s-0.5,0.6-0.9,0.8s-0.8,0.3-1.2,0.3C31.6,215.8,31.2,215.7,30.9,215.5z"/>
					<path class="st1" d="M32,215.9c-0.4,0-0.9-0.1-1.2-0.3c-0.4-0.2-0.7-0.5-0.9-0.9c-0.2-0.4-0.3-0.8-0.3-1.2s0.1-0.8,0.3-1.2
						c0.2-0.4,0.5-0.7,0.9-0.9s0.8-0.3,1.3-0.3c0.4,0,0.8,0.1,1.2,0.3s0.7,0.5,0.9,0.9s0.3,0.8,0.3,1.2s-0.1,0.9-0.3,1.2
						c-0.2,0.4-0.5,0.7-0.9,0.9S32.5,215.9,32,215.9z M32,211.3c-0.4,0-0.8,0.1-1.1,0.3c-0.3,0.2-0.6,0.5-0.8,0.8
						c-0.2,0.3-0.3,0.7-0.3,1.1c0,0.4,0.1,0.8,0.3,1.1s0.5,0.6,0.8,0.8l0,0c0.7,0.4,1.5,0.4,2.2,0c0.3-0.2,0.6-0.5,0.8-0.8
						s0.3-0.7,0.3-1.1c0-0.4-0.1-0.8-0.3-1.1s-0.5-0.6-0.8-0.8C32.8,211.4,32.4,211.3,32,211.3z"/>
				</g>
				<path class="st5" d="M60,214.5h-5l-1.1,2.5h-0.8l4-9.2h0.7l4,9.2H61L60,214.5z M59.7,213.8l-2.2-5.1l-2.2,5.1H59.7z"/>
				<path class="st5" d="M68.9,210.4v6.5c0,0.9-0.2,1.6-0.7,2.1s-1.1,0.7-2.1,0.7s-1.8-0.2-2.5-0.7l0.2-0.7c0.4,0.2,0.8,0.4,1.2,0.5
					s0.8,0.2,1.2,0.2c0.6,0,1.1-0.2,1.5-0.5c0.3-0.4,0.5-0.9,0.5-1.5v-1.7c-0.2,0.4-0.5,0.8-0.9,1s-0.9,0.4-1.4,0.4
					c-0.6,0-1.1-0.1-1.5-0.4s-0.8-0.6-1-1.1s-0.4-1-0.4-1.7c0-0.6,0.1-1.2,0.4-1.7c0.2-0.5,0.6-0.9,1-1.1c0.4-0.3,0.9-0.4,1.5-0.4
					c0.5,0,1,0.1,1.4,0.3s0.7,0.6,0.9,1v-1.2L68.9,210.4L68.9,210.4z M67.5,215.3c0.4-0.4,0.6-1.1,0.6-1.8c0-0.8-0.2-1.4-0.6-1.9
					s-0.9-0.7-1.6-0.7s-1.2,0.2-1.6,0.7s-0.6,1.1-0.6,1.9s0.2,1.4,0.6,1.8c0.4,0.4,0.9,0.7,1.6,0.7S67.1,215.8,67.5,215.3z"/>
				<path class="st5" d="M71.5,213.6L71.5,213.6c0,0.9,0.2,1.6,0.6,2c0.4,0.5,1,0.7,1.8,0.7s1.5-0.3,2.1-0.8l0.3,0.6
					c-0.3,0.3-0.6,0.5-1.1,0.6c-0.4,0.2-0.9,0.2-1.4,0.2c-1,0-1.8-0.3-2.3-0.9c-0.6-0.6-0.9-1.4-0.9-2.5c0-0.7,0.1-1.3,0.4-1.8
					s0.6-0.9,1.1-1.2s1-0.4,1.6-0.4c0.9,0,1.5,0.3,2,0.8c0.5,0.6,0.7,1.3,0.7,2.3v0.2h-4.9V213.6z M72.3,211.5
					c-0.4,0.4-0.6,0.9-0.7,1.5h4.1c-0.1-0.7-0.2-1.2-0.6-1.5c-0.3-0.3-0.8-0.5-1.4-0.5C73.1,210.9,72.6,211.1,72.3,211.5z"/>
				<path class="st5" d="M83.5,212.8v4.1h-0.8v-4.1c0-0.6-0.1-1.1-0.4-1.4c-0.3-0.3-0.7-0.5-1.2-0.5c-0.6,0-1.2,0.2-1.6,0.6
					c-0.4,0.4-0.6,0.9-0.6,1.6v3.7h-0.8v-4.7c0-0.7,0-1.3-0.1-1.8h0.7l0.1,1.2c0.2-0.4,0.5-0.8,0.9-1s0.9-0.3,1.4-0.3
					C82.7,210.3,83.5,211.1,83.5,212.8z"/>
				<path class="st5" d="M86.7,216.6c-0.5-0.3-0.8-0.7-1.1-1.2c-0.2-0.5-0.4-1.1-0.4-1.8s0.1-1.3,0.4-1.8c0.2-0.5,0.6-0.9,1.1-1.2
					s1-0.4,1.6-0.4c0.4,0,0.9,0.1,1.3,0.2s0.7,0.4,1,0.6l-0.3,0.6c-0.3-0.3-0.7-0.5-1-0.6s-0.6-0.2-0.9-0.2c-0.7,0-1.2,0.2-1.7,0.7
					s-0.6,1.1-0.6,2c0,0.8,0.2,1.5,0.6,1.9s1,0.7,1.7,0.7c0.3,0,0.6-0.1,0.9-0.2s0.6-0.3,1-0.6l0.3,0.6c-0.3,0.3-0.6,0.5-1,0.6
					c-0.4,0.2-0.8,0.2-1.2,0.2C87.7,217,87.2,216.9,86.7,216.6z"/>
				<path class="st5" d="M97.6,210.4l-3,7.1c-0.3,0.7-0.7,1.2-1.1,1.6c-0.5,0.3-1,0.6-1.7,0.7l-0.2-0.6c0.6-0.1,1.1-0.3,1.4-0.6
					c0.3-0.2,0.6-0.6,0.8-1.1l0.3-0.6l-2.8-6.5h0.8l2.3,5.7l2.4-5.7L97.6,210.4L97.6,210.4z"/>
				<path class="st5" d="M102.4,207.7h5.5v0.7h-4.7v3.5h4.5v0.7h-4.5v4.3h-0.8V207.7z"/>
				<path class="st5" d="M110.5,207.8v1h-1v-1H110.5z M109.6,210.4h0.8v6.5h-0.8V210.4z"/>
				<path class="st5" d="M117.9,212.8v4.1h-0.8v-4.1c0-0.6-0.1-1.1-0.4-1.4c-0.3-0.3-0.7-0.5-1.2-0.5c-0.6,0-1.2,0.2-1.6,0.6
					c-0.4,0.4-0.6,0.9-0.6,1.6v3.7h-0.8v-4.7c0-0.7,0-1.3-0.1-1.8h0.7l0.1,1.2c0.2-0.4,0.5-0.8,0.9-1s0.9-0.3,1.4-0.3
					C117.1,210.3,117.9,211.1,117.9,212.8z"/>
				<path class="st5" d="M125.6,210.4v6.5h-0.8v-1.2c-0.2,0.4-0.5,0.8-0.9,1s-0.8,0.3-1.4,0.3s-1.1-0.1-1.5-0.4
					c-0.4-0.3-0.8-0.7-1-1.2s-0.4-1.1-0.4-1.8s0.1-1.3,0.4-1.8c0.2-0.5,0.6-0.9,1-1.2s0.9-0.4,1.5-0.4c0.5,0,1,0.1,1.4,0.3
					s0.7,0.6,0.9,1v-1.2L125.6,210.4L125.6,210.4z M124.3,215.6c0.4-0.5,0.6-1.1,0.6-2s-0.2-1.5-0.6-2s-0.9-0.7-1.6-0.7
					s-1.2,0.2-1.6,0.7s-0.6,1.1-0.6,2c0,0.8,0.2,1.5,0.6,1.9c0.4,0.5,0.9,0.7,1.6,0.7C123.4,216.3,123.9,216.1,124.3,215.6z"/>
				<path class="st5" d="M127.8,207.4h0.8v9.5h-0.8V207.4z"/>
				<path class="st5" d="M141.4,216.9h-0.8l-1.1-3.1c-0.1-0.4-0.3-0.7-0.6-0.8s-0.6-0.2-1.1-0.2h-2.6v4.1h-0.8v-9.2h3.6
					c1,0,1.7,0.2,2.2,0.7c0.5,0.4,0.8,1.1,0.8,1.9c0,0.6-0.2,1.1-0.5,1.5s-0.8,0.7-1.3,0.9c0.3,0,0.5,0.2,0.7,0.3
					c0.2,0.2,0.3,0.4,0.5,0.8L141.4,216.9z M137.8,212.1c1.5,0,2.3-0.6,2.3-1.9c0-1.2-0.8-1.8-2.3-1.8h-2.7v3.7H137.8z"/>
				<path class="st5" d="M143.5,213.6L143.5,213.6c0,0.9,0.2,1.6,0.6,2c0.4,0.5,1,0.7,1.8,0.7s1.5-0.3,2.1-0.8l0.3,0.6
					c-0.3,0.3-0.6,0.5-1.1,0.6c-0.4,0.2-0.9,0.2-1.4,0.2c-1,0-1.8-0.3-2.3-0.9c-0.6-0.6-0.9-1.4-0.9-2.5c0-0.7,0.1-1.3,0.4-1.8
					c0.3-0.5,0.6-0.9,1.1-1.2s1-0.4,1.6-0.4c0.9,0,1.5,0.3,2,0.8c0.5,0.6,0.7,1.3,0.7,2.3v0.2h-4.9V213.6z M144.3,211.5
					c-0.4,0.4-0.6,0.9-0.7,1.5h4.1c-0.1-0.7-0.2-1.2-0.6-1.5c-0.3-0.3-0.8-0.5-1.4-0.5C145.1,210.9,144.6,211.1,144.3,211.5z"/>
				<path class="st5" d="M155.6,210.4l-2.8,6.5H152l-2.7-6.5h0.8l2.3,5.7l2.4-5.7H155.6z"/>
				<path class="st5" d="M157.9,207.8v1h-1v-1H157.9z M157,210.4h0.8v6.5H157V210.4z"/>
				<path class="st5" d="M160.4,213.6L160.4,213.6c0,0.9,0.2,1.6,0.6,2c0.4,0.5,1,0.7,1.8,0.7s1.5-0.3,2.1-0.8l0.3,0.6
					c-0.3,0.3-0.6,0.5-1.1,0.6c-0.4,0.2-0.9,0.2-1.4,0.2c-1,0-1.8-0.3-2.3-0.9c-0.6-0.6-0.9-1.4-0.9-2.5c0-0.7,0.1-1.3,0.4-1.8
					c0.3-0.5,0.6-0.9,1.1-1.2s1-0.4,1.6-0.4c0.9,0,1.5,0.3,2,0.8c0.5,0.6,0.7,1.3,0.7,2.3v0.2h-4.9V213.6z M161.1,211.5
					c-0.4,0.4-0.6,0.9-0.7,1.5h4.1c-0.1-0.7-0.2-1.2-0.6-1.5c-0.3-0.3-0.8-0.5-1.4-0.5C162,210.9,161.5,211.1,161.1,211.5z"/>
				<path class="st5" d="M176.6,210.4l-2.4,6.5h-0.8l-2-5.5l-2,5.5h-0.8l-2.3-6.5h0.8l1.9,5.5l2-5.5h0.8l2,5.5l2-5.5H176.6z"/>
				<g>
					<path class="st1" d="M30.9,239.7c-0.4-0.2-0.7-0.5-0.9-0.8c-0.2-0.4-0.3-0.7-0.3-1.2c0-0.4,0.1-0.8,0.3-1.1
						c0.2-0.4,0.5-0.6,0.9-0.9c0.4-0.2,0.8-0.3,1.2-0.3c0.4,0,0.8,0.1,1.2,0.3s0.6,0.5,0.9,0.8c0.2,0.4,0.3,0.7,0.3,1.2
						c0,0.4-0.1,0.8-0.3,1.2s-0.5,0.6-0.9,0.8s-0.8,0.3-1.2,0.3C31.6,240,31.2,239.9,30.9,239.7z"/>
					<path class="st1" d="M32,240.1c-0.4,0-0.9-0.1-1.2-0.3c-0.4-0.2-0.7-0.5-0.9-0.9c-0.2-0.4-0.3-0.8-0.3-1.2s0.1-0.8,0.3-1.2
						c0.2-0.4,0.5-0.7,0.9-0.9s0.8-0.3,1.3-0.3c0.4,0,0.8,0.1,1.2,0.3s0.7,0.5,0.9,0.9s0.3,0.8,0.3,1.2s-0.1,0.9-0.3,1.2
						c-0.2,0.4-0.5,0.7-0.9,0.9S32.5,240.1,32,240.1z M32,235.5c-0.4,0-0.8,0.1-1.1,0.3c-0.3,0.2-0.6,0.5-0.8,0.8
						c-0.2,0.3-0.3,0.7-0.3,1.1c0,0.4,0.1,0.8,0.3,1.1s0.5,0.6,0.8,0.8l0,0c0.7,0.4,1.5,0.4,2.2,0c0.3-0.2,0.6-0.5,0.8-0.8
						s0.3-0.7,0.3-1.1c0-0.4-0.1-0.8-0.3-1.1s-0.5-0.6-0.8-0.8S32.4,235.5,32,235.5z"/>
				</g>
				<path class="st5" d="M60,238.7h-5l-1.1,2.5h-0.8l4-9.2h0.7l4,9.2H61L60,238.7z M59.7,238l-2.2-5.1l-2.2,5.1H59.7z"/>
				<path class="st5" d="M68.9,234.7v6.5c0,0.9-0.2,1.6-0.7,2.1s-1.1,0.7-2.1,0.7s-1.8-0.2-2.5-0.7l0.2-0.7c0.4,0.2,0.8,0.4,1.2,0.5
					s0.8,0.2,1.2,0.2c0.6,0,1.1-0.2,1.5-0.5c0.3-0.4,0.5-0.9,0.5-1.5v-1.7c-0.2,0.4-0.5,0.8-0.9,1s-0.9,0.4-1.4,0.4
					c-0.6,0-1.1-0.1-1.5-0.4s-0.8-0.6-1-1.1s-0.4-1-0.4-1.7c0-0.6,0.1-1.2,0.4-1.7c0.2-0.5,0.6-0.9,1-1.1c0.4-0.3,0.9-0.4,1.5-0.4
					c0.5,0,1,0.1,1.4,0.3s0.7,0.6,0.9,1v-1.2L68.9,234.7L68.9,234.7z M67.5,239.6c0.4-0.4,0.6-1.1,0.6-1.8c0-0.8-0.2-1.4-0.6-1.9
					s-0.9-0.7-1.6-0.7s-1.2,0.2-1.6,0.7s-0.6,1.1-0.6,1.9s0.2,1.4,0.6,1.8c0.4,0.4,0.9,0.7,1.6,0.7C66.6,240.2,67.1,240,67.5,239.6z
					"/>
				<path class="st5" d="M71.5,237.8L71.5,237.8c0,0.9,0.2,1.6,0.6,2c0.4,0.5,1,0.7,1.8,0.7s1.5-0.3,2.1-0.8l0.3,0.6
					c-0.3,0.3-0.6,0.5-1.1,0.6c-0.4,0.2-0.9,0.2-1.4,0.2c-1,0-1.8-0.3-2.3-0.9c-0.6-0.6-0.9-1.4-0.9-2.5c0-0.7,0.1-1.3,0.4-1.8
					s0.6-0.9,1.1-1.2s1-0.4,1.6-0.4c0.9,0,1.5,0.3,2,0.8c0.5,0.6,0.7,1.3,0.7,2.3v0.2h-4.9V237.8z M72.3,235.7
					c-0.4,0.4-0.6,0.9-0.7,1.5h4.1c-0.1-0.7-0.2-1.2-0.6-1.5c-0.3-0.3-0.8-0.5-1.4-0.5C73.1,235.2,72.6,235.3,72.3,235.7z"/>
				<path class="st5" d="M83.5,237v4.1h-0.8V237c0-0.6-0.1-1.1-0.4-1.4c-0.3-0.3-0.7-0.5-1.2-0.5c-0.6,0-1.2,0.2-1.6,0.6
					c-0.4,0.4-0.6,0.9-0.6,1.6v3.7h-0.8v-4.7c0-0.7,0-1.3-0.1-1.8h0.7l0.1,1.2c0.2-0.4,0.5-0.8,0.9-1s0.9-0.3,1.4-0.3
					C82.7,234.5,83.5,235.3,83.5,237z"/>
				<path class="st5" d="M86.7,240.8c-0.5-0.3-0.8-0.7-1.1-1.2c-0.2-0.5-0.4-1.1-0.4-1.8s0.1-1.3,0.4-1.8c0.2-0.5,0.6-0.9,1.1-1.2
					s1-0.4,1.6-0.4c0.4,0,0.9,0.1,1.3,0.2s0.7,0.4,1,0.6l-0.3,0.6c-0.3-0.3-0.7-0.5-1-0.6s-0.6-0.2-0.9-0.2c-0.7,0-1.2,0.2-1.7,0.7
					s-0.6,1.1-0.6,2c0,0.8,0.2,1.5,0.6,1.9s1,0.7,1.7,0.7c0.3,0,0.6-0.1,0.9-0.2s0.6-0.3,1-0.6l0.3,0.6c-0.3,0.3-0.6,0.5-1,0.6
					c-0.4,0.2-0.8,0.2-1.2,0.2C87.7,241.2,87.2,241.1,86.7,240.8z"/>
				<path class="st5" d="M97.6,234.7l-3,7.1c-0.3,0.7-0.7,1.2-1.1,1.6c-0.5,0.3-1,0.6-1.7,0.7l-0.2-0.6c0.6-0.1,1.1-0.3,1.4-0.6
					c0.3-0.2,0.6-0.6,0.8-1.1l0.3-0.6l-2.8-6.5h0.8l2.3,5.7l2.4-5.7L97.6,234.7L97.6,234.7z"/>
				<path class="st5" d="M102.4,231.9h0.8v9.2h-0.8V231.9z"/>
				<path class="st5" d="M105.2,240.4l0.3-0.6c0.3,0.3,0.7,0.5,1,0.6s0.8,0.2,1.2,0.2c0.5,0,0.9-0.1,1.2-0.3
					c0.3-0.2,0.4-0.5,0.4-0.8s-0.1-0.5-0.3-0.7c-0.2-0.2-0.5-0.3-0.9-0.4l-1.1-0.2c-0.5-0.1-0.9-0.3-1.2-0.6
					c-0.3-0.3-0.4-0.7-0.4-1.1c0-0.6,0.2-1,0.7-1.4c0.4-0.3,1-0.5,1.7-0.5c0.5,0,0.9,0.1,1.3,0.2c0.4,0.1,0.7,0.4,1,0.6l-0.3,0.6
					c-0.6-0.5-1.2-0.8-1.9-0.8c-0.5,0-0.9,0.1-1.2,0.3c-0.3,0.2-0.4,0.5-0.4,0.8s0.1,0.5,0.3,0.7c0.2,0.2,0.4,0.3,0.8,0.4l1.1,0.3
					c1.2,0.3,1.7,0.8,1.7,1.7c0,0.5-0.2,1-0.7,1.3c-0.4,0.3-1.1,0.5-1.8,0.5C106.6,241.2,105.8,240.9,105.2,240.4z"/>
				<path class="st5" d="M111.6,240.4l0.3-0.6c0.3,0.3,0.7,0.5,1,0.6s0.8,0.2,1.2,0.2c0.5,0,0.9-0.1,1.2-0.3
					c0.3-0.2,0.4-0.5,0.4-0.8s-0.1-0.5-0.3-0.7c-0.2-0.2-0.5-0.3-0.9-0.4l-1.1-0.2c-0.5-0.1-0.9-0.3-1.2-0.6
					c-0.3-0.3-0.4-0.7-0.4-1.1c0-0.6,0.2-1,0.7-1.4c0.4-0.3,1-0.5,1.7-0.5c0.5,0,0.9,0.1,1.3,0.2c0.4,0.1,0.7,0.4,1,0.6l-0.3,0.6
					c-0.6-0.5-1.2-0.8-1.9-0.8c-0.5,0-0.9,0.1-1.2,0.3c-0.3,0.2-0.4,0.5-0.4,0.8s0.1,0.5,0.3,0.7c0.2,0.2,0.4,0.3,0.8,0.4l1.1,0.3
					c1.2,0.3,1.7,0.8,1.7,1.7c0,0.5-0.2,1-0.7,1.3c-0.4,0.3-1.1,0.5-1.8,0.5C113,241.2,112.2,240.9,111.6,240.4z"/>
				<path class="st5" d="M123.6,234.7v6.5h-0.8V240c-0.2,0.4-0.5,0.7-0.9,0.9s-0.8,0.3-1.3,0.3c-0.8,0-1.3-0.2-1.7-0.6
					c-0.4-0.4-0.6-1-0.6-1.9v-4.1h0.8v4c0,0.6,0.1,1.1,0.4,1.4c0.3,0.3,0.7,0.5,1.2,0.5c0.6,0,1.1-0.2,1.5-0.6s0.6-0.9,0.6-1.6v-3.7
					h0.8V234.7z"/>
				<path class="st5" d="M126.3,237.8L126.3,237.8c0,0.9,0.2,1.6,0.6,2c0.4,0.5,1,0.7,1.8,0.7c0.8,0,1.5-0.3,2.1-0.8l0.3,0.6
					c-0.3,0.3-0.6,0.5-1.1,0.6c-0.4,0.2-0.9,0.2-1.4,0.2c-1,0-1.8-0.3-2.3-0.9c-0.6-0.6-0.9-1.4-0.9-2.5c0-0.7,0.1-1.3,0.4-1.8
					s0.6-0.9,1.1-1.2s1-0.4,1.6-0.4c0.9,0,1.5,0.3,2,0.8c0.5,0.6,0.7,1.3,0.7,2.3v0.2h-4.9V237.8z M127,235.7
					c-0.4,0.4-0.6,0.9-0.7,1.5h4.1c-0.1-0.7-0.2-1.2-0.6-1.5c-0.3-0.3-0.8-0.5-1.4-0.5C127.9,235.2,127.4,235.3,127,235.7z"/>
				<path class="st5" d="M132.5,240.4l0.3-0.6c0.3,0.3,0.7,0.5,1,0.6s0.8,0.2,1.2,0.2c0.5,0,0.9-0.1,1.2-0.3s0.4-0.5,0.4-0.8
					s-0.1-0.5-0.3-0.7s-0.5-0.3-0.9-0.4l-1.1-0.2c-0.5-0.1-0.9-0.3-1.2-0.6s-0.4-0.7-0.4-1.1c0-0.6,0.2-1,0.7-1.4
					c0.4-0.3,1-0.5,1.7-0.5c0.5,0,0.9,0.1,1.3,0.2c0.4,0.1,0.7,0.4,1,0.6l-0.3,0.6c-0.6-0.5-1.2-0.8-1.9-0.8c-0.5,0-0.9,0.1-1.2,0.3
					s-0.4,0.5-0.4,0.8s0.1,0.5,0.3,0.7s0.4,0.3,0.8,0.4l1.1,0.3c1.2,0.3,1.7,0.8,1.7,1.7c0,0.5-0.2,1-0.7,1.3
					c-0.4,0.3-1.1,0.5-1.8,0.5C134,241.2,133.1,240.9,132.5,240.4z"/>
				<path class="st5" d="M148.8,238.7h-5l-1.1,2.5H142l4-9.2h0.7l4,9.2h-0.8L148.8,238.7z M148.5,238l-2.2-5.1l-2.2,5.1H148.5z"/>
				<path class="st5" d="M153.5,232.6h-3.3v-0.7h7.4v0.7h-3.3v8.5h-0.8L153.5,232.6L153.5,232.6z"/>
				<path class="st5" d="M160,240.7c-0.6-0.4-1.1-0.9-1.4-1.6s-0.5-1.5-0.5-2.5s0.2-1.8,0.5-2.5s0.8-1.2,1.4-1.6
					c0.6-0.4,1.3-0.6,2.2-0.6c0.8,0,1.6,0.2,2.2,0.6c0.6,0.4,1.1,0.9,1.4,1.6c0.3,0.7,0.5,1.5,0.5,2.5s-0.2,1.8-0.5,2.5
					s-0.8,1.3-1.4,1.6c-0.6,0.4-1.3,0.6-2.2,0.6C161.3,241.2,160.6,241,160,240.7z M164.6,239.5c0.6-0.7,0.9-1.7,0.9-3
					s-0.3-2.3-0.9-2.9c-0.6-0.7-1.4-1-2.4-1s-1.8,0.3-2.4,1c-0.6,0.7-0.9,1.7-0.9,2.9s0.3,2.2,0.9,3c0.6,0.7,1.4,1.1,2.4,1.1
					C163.2,240.5,164,240.2,164.6,239.5z"/>
				<g>
					<path class="st1" d="M30.9,263.9c-0.4-0.2-0.7-0.5-0.9-0.8c-0.2-0.4-0.3-0.7-0.3-1.2c0-0.4,0.1-0.8,0.3-1.1
						c0.2-0.4,0.5-0.6,0.9-0.9c0.4-0.2,0.8-0.3,1.2-0.3c0.4,0,0.8,0.1,1.2,0.3c0.4,0.2,0.6,0.5,0.9,0.8c0.2,0.4,0.3,0.7,0.3,1.2
						c0,0.4-0.1,0.8-0.3,1.2c-0.2,0.4-0.5,0.6-0.9,0.8c-0.4,0.2-0.8,0.3-1.2,0.3C31.6,264.2,31.2,264.1,30.9,263.9z"/>
					<path class="st1" d="M32,264.3c-0.4,0-0.9-0.1-1.2-0.3c-0.4-0.2-0.7-0.5-0.9-0.9c-0.2-0.4-0.3-0.8-0.3-1.2
						c0-0.4,0.1-0.8,0.3-1.2c0.2-0.4,0.5-0.7,0.9-0.9c0.4-0.2,0.8-0.3,1.3-0.3c0.4,0,0.8,0.1,1.2,0.3c0.4,0.2,0.7,0.5,0.9,0.9
						s0.3,0.8,0.3,1.2c0,0.4-0.1,0.9-0.3,1.2c-0.2,0.4-0.5,0.7-0.9,0.9S32.5,264.3,32,264.3z M32,259.7c-0.4,0-0.8,0.1-1.1,0.3
						c-0.3,0.2-0.6,0.5-0.8,0.8c-0.2,0.3-0.3,0.7-0.3,1.1s0.1,0.8,0.3,1.1s0.5,0.6,0.8,0.8l0,0c0.7,0.4,1.5,0.4,2.2,0
						c0.3-0.2,0.6-0.5,0.8-0.8s0.3-0.7,0.3-1.1s-0.1-0.8-0.3-1.1c-0.2-0.3-0.5-0.6-0.8-0.8C32.8,259.8,32.4,259.7,32,259.7z"/>
				</g>
				<path class="st5" d="M54,256.1h5.5v0.7h-4.7v3.5h4.5v0.7h-4.5v4.3H54V256.1z"/>
				<path class="st5" d="M61.5,262L61.5,262c0,0.9,0.2,1.6,0.6,2c0.4,0.5,1,0.7,1.8,0.7s1.5-0.3,2.1-0.8l0.3,0.6
					c-0.3,0.3-0.6,0.5-1.1,0.6c-0.4,0.2-0.9,0.2-1.4,0.2c-1,0-1.8-0.3-2.3-0.9c-0.6-0.6-0.9-1.4-0.9-2.5c0-0.7,0.1-1.3,0.4-1.8
					c0.3-0.5,0.6-0.9,1.1-1.2c0.5-0.3,1-0.4,1.6-0.4c0.9,0,1.5,0.3,2,0.8c0.5,0.6,0.7,1.3,0.7,2.3v0.2h-4.9V262z M62.2,259.9
					c-0.4,0.4-0.6,0.9-0.7,1.5h4.1c-0.1-0.7-0.2-1.2-0.6-1.5c-0.3-0.3-0.8-0.5-1.4-0.5C63.1,259.4,62.6,259.5,62.2,259.9z"/>
				<path class="st5" d="M73.6,255.8v9.5h-0.8v-1.2c-0.2,0.4-0.5,0.8-0.9,1s-0.8,0.3-1.4,0.3s-1.1-0.1-1.5-0.4s-0.8-0.7-1-1.2
					s-0.4-1.1-0.4-1.8s0.1-1.3,0.4-1.8s0.6-0.9,1-1.2c0.4-0.3,0.9-0.4,1.5-0.4c0.5,0,1,0.1,1.4,0.3c0.4,0.2,0.7,0.6,0.9,1v-4.2h0.8
					V255.8z M72.3,264c0.4-0.5,0.6-1.1,0.6-2c0-0.8-0.2-1.5-0.6-2s-0.9-0.7-1.6-0.7s-1.2,0.2-1.6,0.7s-0.6,1.1-0.6,2
					c0,0.8,0.2,1.5,0.6,2s0.9,0.7,1.6,0.7S71.9,264.5,72.3,264z"/>
				<path class="st5" d="M83,265.3h-0.8l-1.1-3.1c-0.1-0.4-0.3-0.7-0.6-0.8c-0.3-0.1-0.6-0.2-1.1-0.2h-2.6v4.1H76v-9.2h3.6
					c1,0,1.7,0.2,2.2,0.7c0.5,0.4,0.8,1.1,0.8,1.9c0,0.6-0.2,1.1-0.5,1.5s-0.8,0.7-1.3,0.9c0.3,0,0.5,0.2,0.7,0.3
					c0.2,0.2,0.3,0.4,0.5,0.8L83,265.3z M79.4,260.5c1.5,0,2.3-0.6,2.3-1.9c0-1.2-0.8-1.8-2.3-1.8h-2.7v3.7L79.4,260.5L79.4,260.5z"
					/>
				<path class="st5" d="M90.8,262.9h-5l-1.1,2.5H84l4-9.2h0.7l4,9.2h-0.8L90.8,262.9z M90.5,262.2l-2.2-5.1l-2.2,5.1H90.5z"/>
				<path class="st5" d="M102.8,256.1v9.2h-0.7V258l-3.2,7.4h-0.6L95,258v7.3h-0.7v-9.2H95l3.6,8.2l3.6-8.2L102.8,256.1L102.8,256.1
					z"/>
				<path class="st5" d="M105.3,256.1h3.5c0.9,0,1.6,0.2,2.2,0.7c0.5,0.4,0.8,1.1,0.8,1.8c0,0.8-0.3,1.4-0.8,1.9s-1.3,0.7-2.2,0.7
					h-2.7v4.1h-0.8V256.1z M108.8,260.5c0.7,0,1.3-0.2,1.6-0.5c0.4-0.3,0.6-0.8,0.6-1.4s-0.2-1-0.6-1.4c-0.4-0.3-0.9-0.5-1.6-0.5
					h-2.7v3.7L108.8,260.5L108.8,260.5z"/>
				<path class="st5" d="M117,256.1h3.5c0.9,0,1.6,0.2,2.2,0.7c0.5,0.4,0.8,1.1,0.8,1.8c0,0.8-0.3,1.4-0.8,1.9s-1.3,0.7-2.2,0.7
					h-2.7v4.1H117V256.1z M120.5,260.5c0.7,0,1.3-0.2,1.6-0.5c0.4-0.3,0.6-0.8,0.6-1.4s-0.2-1-0.6-1.4c-0.4-0.3-0.9-0.5-1.6-0.5
					h-2.7v3.7L120.5,260.5L120.5,260.5z"/>
				<path class="st5" d="M134,256.1v9.2h-0.7V258l-3.2,7.4h-0.6l-3.3-7.3v7.3h-0.7v-9.2h0.7l3.6,8.2l3.6-8.2L134,256.1L134,256.1z"
					/>
				<path class="st5" d="M138,264.9c-0.6-0.4-1.1-0.9-1.4-1.6s-0.5-1.5-0.5-2.5s0.2-1.8,0.5-2.5s0.8-1.2,1.4-1.6
					c0.6-0.4,1.3-0.6,2.2-0.6c0.8,0,1.6,0.2,2.2,0.6c0.6,0.4,1.1,0.9,1.4,1.6c0.3,0.7,0.5,1.5,0.5,2.5s-0.2,1.8-0.5,2.5
					s-0.8,1.3-1.4,1.6c-0.6,0.4-1.3,0.6-2.2,0.6C139.3,265.4,138.6,265.3,138,264.9z M142.6,263.7c0.6-0.7,0.9-1.7,0.9-3
					s-0.3-2.3-0.9-2.9c-0.6-0.7-1.4-1-2.4-1s-1.8,0.3-2.4,1c-0.6,0.7-0.9,1.7-0.9,2.9s0.3,2.2,0.9,3c0.6,0.7,1.4,1.1,2.4,1.1
					C141.2,264.7,142,264.4,142.6,263.7z"/>
				<path class="st5" d="M156.8,265.3H156l-1.1-3.1c-0.1-0.4-0.3-0.7-0.6-0.8c-0.3-0.1-0.6-0.2-1.1-0.2h-2.6v4.1h-0.8v-9.2h3.6
					c1,0,1.7,0.2,2.2,0.7c0.5,0.4,0.8,1.1,0.8,1.9c0,0.6-0.2,1.1-0.5,1.5s-0.8,0.7-1.3,0.9c0.3,0,0.5,0.2,0.7,0.3
					c0.2,0.2,0.3,0.4,0.5,0.8L156.8,265.3z M153.2,260.5c1.5,0,2.3-0.6,2.3-1.9c0-1.2-0.8-1.8-2.3-1.8h-2.7v3.7L153.2,260.5
					L153.2,260.5z"/>
				<path class="st5" d="M159,262L159,262c0,0.9,0.2,1.6,0.6,2c0.4,0.5,1,0.7,1.8,0.7s1.5-0.3,2.1-0.8l0.3,0.6
					c-0.3,0.3-0.6,0.5-1.1,0.6c-0.4,0.2-0.9,0.2-1.4,0.2c-1,0-1.8-0.3-2.3-0.9c-0.6-0.6-0.9-1.4-0.9-2.5c0-0.7,0.1-1.3,0.4-1.8
					c0.3-0.5,0.6-0.9,1.1-1.2c0.5-0.3,1-0.4,1.6-0.4c0.9,0,1.5,0.3,2,0.8c0.5,0.6,0.7,1.3,0.7,2.3v0.2H159V262z M159.7,259.9
					c-0.4,0.4-0.6,0.9-0.7,1.5h4.1c-0.1-0.7-0.2-1.2-0.6-1.5c-0.3-0.3-0.8-0.5-1.4-0.5C160.6,259.4,160.1,259.5,159.7,259.9z"/>
				<path class="st5" d="M171,258.9l-2.8,6.5h-0.8l-2.7-6.5h0.8l2.3,5.7l2.4-5.7H171z"/>
				<path class="st5" d="M173.3,256.2v1h-1v-1H173.3z M172.4,258.9h0.8v6.5h-0.8V258.9z"/>
				<path class="st5" d="M175.8,262L175.8,262c0,0.9,0.2,1.6,0.6,2c0.4,0.5,1,0.7,1.8,0.7s1.5-0.3,2.1-0.8l0.3,0.6
					c-0.3,0.3-0.6,0.5-1.1,0.6c-0.4,0.2-0.9,0.2-1.4,0.2c-1,0-1.8-0.3-2.3-0.9c-0.6-0.6-0.9-1.4-0.9-2.5c0-0.7,0.1-1.3,0.4-1.8
					c0.3-0.5,0.6-0.9,1.1-1.2c0.5-0.3,1-0.4,1.6-0.4c0.9,0,1.5,0.3,2,0.8c0.5,0.6,0.7,1.3,0.7,2.3v0.2h-4.9V262z M176.6,259.9
					c-0.4,0.4-0.6,0.9-0.7,1.5h4.1c-0.1-0.7-0.2-1.2-0.6-1.5c-0.3-0.3-0.8-0.5-1.4-0.5C177.4,259.4,176.9,259.5,176.6,259.9z"/>
				<path class="st5" d="M192.1,258.9l-2.4,6.5h-0.8l-2-5.5l-2,5.5h-0.8l-2.3-6.5h0.8l1.9,5.5l2-5.5h0.8l2,5.5l2-5.5H192.1z"/>
				<g>
					<path class="st1" d="M30.9,288.1c-0.4-0.2-0.7-0.5-0.9-0.8c-0.2-0.4-0.3-0.7-0.3-1.2c0-0.4,0.1-0.8,0.3-1.1
						c0.2-0.4,0.5-0.6,0.9-0.9c0.4-0.2,0.8-0.3,1.2-0.3c0.4,0,0.8,0.1,1.2,0.3c0.4,0.2,0.6,0.5,0.9,0.8c0.2,0.4,0.3,0.7,0.3,1.2
						c0,0.4-0.1,0.8-0.3,1.2c-0.2,0.4-0.5,0.6-0.9,0.8c-0.4,0.2-0.8,0.3-1.2,0.3C31.6,288.4,31.2,288.3,30.9,288.1z"/>
					<path class="st1" d="M32,288.5c-0.4,0-0.9-0.1-1.2-0.3c-0.4-0.2-0.7-0.5-0.9-0.9c-0.2-0.4-0.3-0.8-0.3-1.2
						c0-0.4,0.1-0.8,0.3-1.2c0.2-0.4,0.5-0.7,0.9-0.9c0.4-0.2,0.8-0.3,1.3-0.3c0.4,0,0.8,0.1,1.2,0.3c0.4,0.2,0.7,0.5,0.9,0.9
						s0.3,0.8,0.3,1.2c0,0.4-0.1,0.9-0.3,1.2c-0.2,0.4-0.5,0.7-0.9,0.9S32.5,288.5,32,288.5z M32,283.9c-0.4,0-0.8,0.1-1.1,0.3
						c-0.3,0.2-0.6,0.5-0.8,0.8c-0.2,0.3-0.3,0.7-0.3,1.1s0.1,0.8,0.3,1.1s0.5,0.6,0.8,0.8l0,0c0.7,0.4,1.5,0.4,2.2,0
						c0.3-0.2,0.6-0.5,0.8-0.8s0.3-0.7,0.3-1.1s-0.1-0.8-0.3-1.1c-0.2-0.3-0.5-0.6-0.8-0.8S32.4,283.9,32,283.9z"/>
				</g>
				<path class="st5" d="M61.1,289.6h-0.8l-1.1-3.1c-0.1-0.4-0.3-0.7-0.6-0.8c-0.3-0.1-0.6-0.2-1.1-0.2h-2.6v4.1H54v-9.2h3.6
					c1,0,1.7,0.2,2.2,0.7c0.5,0.4,0.8,1.1,0.8,1.9c0,0.6-0.2,1.1-0.5,1.5s-0.8,0.7-1.3,0.9c0.3,0,0.5,0.2,0.7,0.3
					c0.2,0.2,0.3,0.4,0.5,0.8L61.1,289.6z M57.5,284.8c1.5,0,2.3-0.6,2.3-1.9c0-1.2-0.8-1.8-2.3-1.8h-2.7v3.7L57.5,284.8L57.5,284.8
					z"/>
				<path class="st5" d="M63.3,286.2L63.3,286.2c0,0.9,0.2,1.6,0.6,2c0.4,0.5,1,0.7,1.8,0.7s1.5-0.3,2.1-0.8l0.3,0.6
					c-0.3,0.3-0.6,0.5-1.1,0.6c-0.4,0.2-0.9,0.2-1.4,0.2c-1,0-1.8-0.3-2.3-0.9c-0.6-0.6-0.9-1.4-0.9-2.5c0-0.7,0.1-1.3,0.4-1.8
					c0.3-0.5,0.6-0.9,1.1-1.2c0.5-0.3,1-0.4,1.6-0.4c0.9,0,1.5,0.3,2,0.8c0.5,0.6,0.7,1.3,0.7,2.3v0.2h-4.9V286.2z M64,284.1
					c-0.4,0.4-0.6,0.9-0.7,1.5h4.1c-0.1-0.7-0.2-1.2-0.6-1.5c-0.3-0.3-0.8-0.5-1.4-0.5C64.9,283.6,64.4,283.8,64,284.1z"/>
				<path class="st5" d="M79,285.4v4.1h-0.8v-4.1c0-0.7-0.1-1.1-0.3-1.4c-0.2-0.3-0.6-0.4-1.1-0.4c-0.6,0-1.1,0.2-1.4,0.6
					s-0.5,0.9-0.5,1.6v3.7h-0.8v-4.1c0-0.7-0.1-1.1-0.4-1.4c-0.2-0.3-0.6-0.4-1.1-0.4c-0.6,0-1.1,0.2-1.4,0.6s-0.5,0.9-0.5,1.6v3.7
					h-0.8v-4.7c0-0.7,0-1.3-0.1-1.8h0.7l0.1,1.2c0.2-0.4,0.4-0.8,0.8-1s0.8-0.3,1.2-0.3c1,0,1.7,0.4,2,1.3c0.2-0.4,0.5-0.7,0.8-0.9
					c0.4-0.2,0.8-0.3,1.3-0.3C78.3,282.9,79,283.8,79,285.4z"/>
				<path class="st5" d="M81.6,286.2L81.6,286.2c0,0.9,0.2,1.6,0.6,2c0.4,0.5,1,0.7,1.8,0.7s1.5-0.3,2.1-0.8l0.3,0.6
					c-0.3,0.3-0.6,0.5-1.1,0.6c-0.4,0.2-0.9,0.2-1.4,0.2c-1,0-1.8-0.3-2.3-0.9c-0.6-0.6-0.9-1.4-0.9-2.5c0-0.7,0.1-1.3,0.4-1.8
					s0.6-0.9,1.1-1.2c0.5-0.3,1-0.4,1.6-0.4c0.9,0,1.5,0.3,2,0.8c0.5,0.6,0.7,1.3,0.7,2.3v0.2h-4.9V286.2z M82.4,284.1
					c-0.4,0.4-0.6,0.9-0.7,1.5h4.1c-0.1-0.7-0.2-1.2-0.6-1.5c-0.3-0.3-0.8-0.5-1.4-0.5C83.2,283.6,82.7,283.8,82.4,284.1z"/>
				<path class="st5" d="M93.8,280.1v9.5H93v-1.2c-0.2,0.4-0.5,0.8-0.9,1s-0.8,0.3-1.4,0.3s-1.1-0.1-1.5-0.4s-0.8-0.7-1-1.2
					s-0.4-1.1-0.4-1.8s0.1-1.3,0.4-1.8s0.6-0.9,1-1.2c0.4-0.3,0.9-0.4,1.5-0.4c0.5,0,1,0.1,1.4,0.3c0.4,0.2,0.7,0.6,0.9,1V280h0.8
					V280.1z M92.4,288.3c0.4-0.5,0.6-1.1,0.6-2c0-0.8-0.2-1.5-0.6-2s-0.9-0.7-1.6-0.7s-1.2,0.2-1.6,0.7s-0.6,1.1-0.6,2
					c0,0.8,0.2,1.5,0.6,2s0.9,0.7,1.6,0.7S92.1,288.7,92.4,288.3z"/>
				<path class="st5" d="M96.9,280.4v1h-1v-1H96.9z M96,283.1h0.8v6.5H96V283.1z"/>
				<path class="st5" d="M104.5,283.1v6.5h-0.8v-1.2c-0.2,0.4-0.5,0.8-0.9,1s-0.8,0.3-1.4,0.3s-1.1-0.1-1.5-0.4s-0.8-0.7-1-1.2
					s-0.4-1.1-0.4-1.8s0.1-1.3,0.4-1.8c0.2-0.5,0.6-0.9,1-1.2c0.4-0.3,0.9-0.4,1.5-0.4c0.5,0,1,0.1,1.4,0.3c0.4,0.2,0.7,0.6,0.9,1
					V283h0.8V283.1z M103.1,288.3c0.4-0.5,0.6-1.1,0.6-2s-0.2-1.5-0.6-2s-0.9-0.7-1.6-0.7s-1.2,0.2-1.6,0.7s-0.6,1.1-0.6,2
					c0,0.8,0.2,1.5,0.6,1.9c0.4,0.5,0.9,0.7,1.6,0.7S102.8,288.7,103.1,288.3z"/>
				<path class="st5" d="M107.8,283.7v3.8c0,0.5,0.1,0.9,0.3,1.1c0.2,0.2,0.5,0.3,0.9,0.3c0.2,0,0.5,0,0.7-0.1v0.7
					c-0.3,0.1-0.6,0.1-0.8,0.1c-0.6,0-1-0.2-1.3-0.5s-0.5-0.8-0.5-1.4v-4h-1.3v-0.6h1.3v-1.7l0.8-0.3v2h1.9v0.6H107.8z"/>
				<path class="st5" d="M112,280.4v1h-1v-1H112z M111.1,283.1h0.8v6.5h-0.8V283.1z"/>
				<path class="st5" d="M115.1,289.2c-0.5-0.3-0.8-0.7-1-1.2s-0.4-1.1-0.4-1.8c0-0.7,0.1-1.3,0.4-1.8c0.2-0.5,0.6-0.9,1-1.2
					c0.5-0.3,1-0.4,1.6-0.4s1.1,0.1,1.5,0.4s0.8,0.7,1,1.2s0.4,1.1,0.4,1.8c0,0.7-0.1,1.3-0.4,1.8c-0.2,0.5-0.6,0.9-1,1.2
					c-0.4,0.3-1,0.4-1.5,0.4C116.1,289.6,115.6,289.5,115.1,289.2z M118.3,288.3c0.4-0.5,0.6-1.1,0.6-2c0-0.8-0.2-1.5-0.6-2
					s-0.9-0.7-1.6-0.7s-1.2,0.2-1.6,0.7s-0.6,1.1-0.6,2s0.2,1.5,0.6,2s0.9,0.7,1.6,0.7C117.4,288.9,117.9,288.7,118.3,288.3z"/>
				<path class="st5" d="M126.8,285.4v4.1H126v-4.1c0-0.6-0.1-1.1-0.4-1.4s-0.7-0.5-1.2-0.5c-0.6,0-1.2,0.2-1.6,0.6
					s-0.6,0.9-0.6,1.6v3.7h-0.8v-4.7c0-0.7,0-1.3-0.1-1.8h0.7l0.1,1.2c0.2-0.4,0.5-0.8,0.9-1s0.9-0.3,1.4-0.3
					C126,282.9,126.8,283.8,126.8,285.4z"/>
				<path class="st5" d="M133,289.1c-0.2-0.9-0.3-1.9-0.3-2.9s0.1-2,0.3-2.9s0.6-1.9,1-2.9h0.7c-0.5,1.1-0.8,2-1,3
					c-0.2,0.9-0.3,1.9-0.3,2.8s0.1,1.9,0.3,2.8s0.5,1.9,1,3H134C133.5,291,133.2,290,133,289.1z"/>
				<path class="st5" d="M137.2,280.4v1h-1v-1H137.2z M136.3,283.1h0.8v6.5h-0.8V283.1z"/>
				<path class="st5" d="M140.7,281c-0.2,0.2-0.3,0.6-0.3,1.1v1h1.7v0.6h-1.7v5.8h-0.8v-5.8h-1.3v-0.6h1.3v-1.2
					c0-0.6,0.2-1.1,0.5-1.4s0.8-0.5,1.3-0.5c0.3,0,0.5,0,0.8,0.1v0.7c-0.2-0.1-0.5-0.1-0.7-0.1C141.1,280.7,140.8,280.8,140.7,281z"
					/>
				<path class="st5" d="M152.2,285.4v4.1h-0.8v-4.1c0-0.6-0.1-1.1-0.4-1.4c-0.3-0.3-0.7-0.5-1.2-0.5c-0.6,0-1.2,0.2-1.6,0.6
					c-0.4,0.4-0.6,0.9-0.6,1.6v3.7h-0.8v-4.7c0-0.7,0-1.3-0.1-1.8h0.7l0.1,1.2c0.2-0.4,0.5-0.8,0.9-1s0.9-0.3,1.4-0.3
					C151.4,282.9,152.2,283.8,152.2,285.4z"/>
				<path class="st5" d="M154.8,286.2L154.8,286.2c0,0.9,0.2,1.6,0.6,2c0.4,0.5,1,0.7,1.8,0.7s1.5-0.3,2.1-0.8l0.3,0.6
					c-0.3,0.3-0.6,0.5-1.1,0.6c-0.4,0.2-0.9,0.2-1.4,0.2c-1,0-1.8-0.3-2.3-0.9c-0.6-0.6-0.9-1.4-0.9-2.5c0-0.7,0.1-1.3,0.4-1.8
					c0.3-0.5,0.6-0.9,1.1-1.2c0.5-0.3,1-0.4,1.6-0.4c0.9,0,1.5,0.3,2,0.8c0.5,0.6,0.7,1.3,0.7,2.3v0.2h-4.9V286.2z M155.6,284.1
					c-0.4,0.4-0.6,0.9-0.7,1.5h4.1c-0.1-0.7-0.2-1.2-0.6-1.5c-0.3-0.3-0.8-0.5-1.4-0.5C156.4,283.6,155.9,283.8,155.6,284.1z"/>
				<path class="st5" d="M161.9,286.2L161.9,286.2c0,0.9,0.2,1.6,0.6,2c0.4,0.5,1,0.7,1.8,0.7s1.5-0.3,2.1-0.8l0.3,0.6
					c-0.3,0.3-0.6,0.5-1.1,0.6c-0.4,0.2-0.9,0.2-1.4,0.2c-1,0-1.8-0.3-2.3-0.9c-0.6-0.6-0.9-1.4-0.9-2.5c0-0.7,0.1-1.3,0.4-1.8
					c0.3-0.5,0.6-0.9,1.1-1.2c0.5-0.3,1-0.4,1.6-0.4c0.9,0,1.5,0.3,2,0.8c0.5,0.6,0.7,1.3,0.7,2.3v0.2h-4.9V286.2z M162.6,284.1
					c-0.4,0.4-0.6,0.9-0.7,1.5h4.1c-0.1-0.7-0.2-1.2-0.6-1.5c-0.3-0.3-0.8-0.5-1.4-0.5C163.5,283.6,163,283.8,162.6,284.1z"/>
				<path class="st5" d="M174,280.1v9.5h-0.8v-1.2c-0.2,0.4-0.5,0.8-0.9,1s-0.8,0.3-1.4,0.3c-0.6,0-1.1-0.1-1.5-0.4s-0.8-0.7-1-1.2
					s-0.4-1.1-0.4-1.8s0.1-1.3,0.4-1.8s0.6-0.9,1-1.2c0.4-0.3,0.9-0.4,1.5-0.4c0.5,0,1,0.1,1.4,0.3c0.4,0.2,0.7,0.6,0.9,1V280h0.8
					V280.1z M172.7,288.3c0.4-0.5,0.6-1.1,0.6-2c0-0.8-0.2-1.5-0.6-2c-0.4-0.5-0.9-0.7-1.6-0.7c-0.7,0-1.2,0.2-1.6,0.7
					s-0.6,1.1-0.6,2c0,0.8,0.2,1.5,0.6,2s0.9,0.7,1.6,0.7S172.3,288.7,172.7,288.3z"/>
				<path class="st5" d="M176.7,286.2L176.7,286.2c0,0.9,0.2,1.6,0.6,2c0.4,0.5,1,0.7,1.8,0.7s1.5-0.3,2.1-0.8l0.3,0.6
					c-0.3,0.3-0.6,0.5-1.1,0.6c-0.4,0.2-0.9,0.2-1.4,0.2c-1,0-1.8-0.3-2.3-0.9c-0.6-0.6-0.9-1.4-0.9-2.5c0-0.7,0.1-1.3,0.4-1.8
					c0.3-0.5,0.6-0.9,1.1-1.2c0.5-0.3,1-0.4,1.6-0.4c0.9,0,1.5,0.3,2,0.8c0.5,0.6,0.7,1.3,0.7,2.3v0.2h-4.9V286.2z M177.4,284.1
					c-0.4,0.4-0.6,0.9-0.7,1.5h4.1c-0.1-0.7-0.2-1.2-0.6-1.5c-0.3-0.3-0.8-0.5-1.4-0.5C178.3,283.6,177.8,283.8,177.4,284.1z"/>
				<path class="st5" d="M188.8,280.1v9.5H188v-1.2c-0.2,0.4-0.5,0.8-0.9,1s-0.8,0.3-1.4,0.3c-0.6,0-1.1-0.1-1.5-0.4s-0.8-0.7-1-1.2
					s-0.4-1.1-0.4-1.8s0.1-1.3,0.4-1.8s0.6-0.9,1-1.2c0.4-0.3,0.9-0.4,1.5-0.4c0.5,0,1,0.1,1.4,0.3c0.4,0.2,0.7,0.6,0.9,1V280h0.8
					V280.1z M187.5,288.3c0.4-0.5,0.6-1.1,0.6-2c0-0.8-0.2-1.5-0.6-2c-0.4-0.5-0.9-0.7-1.6-0.7c-0.7,0-1.2,0.2-1.6,0.7
					s-0.6,1.1-0.6,2c0,0.8,0.2,1.5,0.6,2s0.9,0.7,1.6,0.7S187.1,288.7,187.5,288.3z"/>
				<path class="st5" d="M190.4,291.9c0.4-1.1,0.8-2,1-3c0.2-0.9,0.3-1.9,0.3-2.8s-0.1-1.9-0.3-2.8s-0.5-1.9-1-3h0.7
					c0.5,1,0.8,1.9,1,2.9c0.2,0.9,0.3,1.9,0.3,2.9s-0.1,2-0.3,2.9s-0.6,1.9-1.1,2.9H190.4z"/>
				<path class="st5" d="M54,304.6h5.5v0.7h-4.7v3.5h4.5v0.7h-4.5v4.3H54V304.6z"/>
				<path class="st5" d="M61.5,310.4L61.5,310.4c0,0.9,0.2,1.6,0.6,2c0.4,0.5,1,0.7,1.8,0.7s1.5-0.3,2.1-0.8l0.3,0.6
					c-0.3,0.3-0.6,0.5-1.1,0.6c-0.4,0.2-0.9,0.2-1.4,0.2c-1,0-1.8-0.3-2.3-0.9c-0.6-0.6-0.9-1.4-0.9-2.5c0-0.7,0.1-1.3,0.4-1.8
					c0.3-0.5,0.6-0.9,1.1-1.2c0.5-0.3,1-0.4,1.6-0.4c0.9,0,1.5,0.3,2,0.8c0.5,0.6,0.7,1.3,0.7,2.3v0.2h-4.9V310.4z M62.2,308.3
					c-0.4,0.4-0.6,0.9-0.7,1.5h4.1c-0.1-0.7-0.2-1.2-0.6-1.5c-0.3-0.3-0.8-0.5-1.4-0.5C63.1,307.8,62.6,308,62.2,308.3z"/>
				<path class="st5" d="M73.6,304.3v9.5h-0.8v-1.2c-0.2,0.4-0.5,0.8-0.9,1s-0.8,0.3-1.4,0.3s-1.1-0.1-1.5-0.4s-0.8-0.7-1-1.2
					s-0.4-1.1-0.4-1.8s0.1-1.3,0.4-1.8s0.6-0.9,1-1.2c0.4-0.3,0.9-0.4,1.5-0.4c0.5,0,1,0.1,1.4,0.3c0.4,0.2,0.7,0.6,0.9,1v-4.2h0.8
					V304.3z M72.3,312.5c0.4-0.5,0.6-1.1,0.6-2c0-0.8-0.2-1.5-0.6-2s-0.9-0.7-1.6-0.7s-1.2,0.2-1.6,0.7s-0.6,1.1-0.6,2
					c0,0.8,0.2,1.5,0.6,2s0.9,0.7,1.6,0.7S71.9,312.9,72.3,312.5z"/>
				<path class="st5" d="M83,313.8h-0.8l-1.1-3.1c-0.1-0.4-0.3-0.7-0.6-0.8c-0.3-0.1-0.6-0.2-1.1-0.2h-2.6v4.1H76v-9.2h3.6
					c1,0,1.7,0.2,2.2,0.7c0.5,0.4,0.8,1.1,0.8,1.9c0,0.6-0.2,1.1-0.5,1.5s-0.8,0.7-1.3,0.9c0.3,0,0.5,0.2,0.7,0.3
					c0.2,0.2,0.3,0.4,0.5,0.8L83,313.8z M79.4,309c1.5,0,2.3-0.6,2.3-1.9c0-1.2-0.8-1.8-2.3-1.8h-2.7v3.7L79.4,309L79.4,309z"/>
				<path class="st5" d="M90.8,311.3h-5l-1.1,2.5H84l4-9.2h0.7l4,9.2h-0.8L90.8,311.3z M90.5,310.6l-2.2-5.1l-2.2,5.1H90.5z"/>
				<path class="st5" d="M102.8,304.6v9.2h-0.7v-7.4l-3.2,7.4h-0.6l-3.3-7.3v7.3h-0.7v-9.2H95l3.6,8.2l3.6-8.2H102.8z"/>
				<path class="st5" d="M105.3,304.6h3.5c0.9,0,1.6,0.2,2.2,0.7c0.5,0.4,0.8,1.1,0.8,1.8c0,0.8-0.3,1.4-0.8,1.9s-1.3,0.7-2.2,0.7
					h-2.7v4.1h-0.8V304.6z M108.8,308.9c0.7,0,1.3-0.2,1.6-0.5c0.4-0.3,0.6-0.8,0.6-1.4s-0.2-1-0.6-1.4c-0.4-0.3-0.9-0.5-1.6-0.5
					h-2.7v3.7L108.8,308.9L108.8,308.9z"/>
				<path class="st5" d="M125.6,304.6v9.2h-0.7v-7.4l-3.2,7.4H121l-3.3-7.3v7.3H117v-9.2h0.7l3.6,8.2l3.6-8.2H125.6z"/>
				<path class="st5" d="M133.4,307.3v6.5h-0.8v-1.2c-0.2,0.4-0.5,0.8-0.9,1s-0.8,0.3-1.4,0.3c-0.6,0-1.1-0.1-1.5-0.4
					s-0.8-0.7-1-1.2s-0.4-1.1-0.4-1.8s0.1-1.3,0.4-1.8c0.2-0.5,0.6-0.9,1-1.2c0.4-0.3,0.9-0.4,1.5-0.4c0.5,0,1,0.1,1.4,0.3
					c0.4,0.2,0.7,0.6,0.9,1v-1.2h0.8V307.3z M132.1,312.5c0.4-0.5,0.6-1.1,0.6-2s-0.2-1.5-0.6-2c-0.4-0.5-0.9-0.7-1.6-0.7
					s-1.2,0.2-1.6,0.7s-0.6,1.1-0.6,2c0,0.8,0.2,1.5,0.6,1.9c0.4,0.5,0.9,0.7,1.6,0.7C131.2,313.2,131.7,312.9,132.1,312.5z"/>
				<path class="st5" d="M139,307.2v0.7c-0.2,0-0.4-0.1-0.6-0.1c-0.7,0-1.1,0.2-1.5,0.6c-0.3,0.4-0.5,0.9-0.5,1.5v3.8h-0.8V309
					c0-0.7,0-1.3-0.1-1.8h0.7l0.1,1.2c0.2-0.4,0.4-0.8,0.8-1c0.4-0.2,0.8-0.3,1.2-0.3C138.6,307.1,138.8,307.2,139,307.2z"/>
				<path class="st5" d="M144.5,313.8l-3.6-3.2v3.2h-0.8v-9.5h0.8v6l3.3-3h1l-3.4,3.1l3.7,3.4H144.5z"/>
				<path class="st5" d="M147,310.4L147,310.4c0,0.9,0.2,1.6,0.6,2c0.4,0.5,1,0.7,1.8,0.7s1.5-0.3,2.1-0.8l0.3,0.6
					c-0.3,0.3-0.6,0.5-1.1,0.6c-0.4,0.2-0.9,0.2-1.4,0.2c-1,0-1.8-0.3-2.3-0.9c-0.6-0.6-0.9-1.4-0.9-2.5c0-0.7,0.1-1.3,0.4-1.8
					c0.3-0.5,0.6-0.9,1.1-1.2c0.5-0.3,1-0.4,1.6-0.4c0.9,0,1.5,0.3,2,0.8c0.5,0.6,0.7,1.3,0.7,2.3v0.2H147V310.4z M147.7,308.3
					c-0.4,0.4-0.6,0.9-0.7,1.5h4.1c-0.1-0.7-0.2-1.2-0.6-1.5c-0.3-0.3-0.8-0.5-1.4-0.5C148.6,307.8,148.1,308,147.7,308.3z"/>
				<path class="st5" d="M154.7,307.9v3.8c0,0.5,0.1,0.9,0.3,1.1s0.5,0.3,0.9,0.3c0.2,0,0.5,0,0.7-0.1v0.7c-0.3,0.1-0.6,0.1-0.8,0.1
					c-0.6,0-1-0.2-1.3-0.5s-0.5-0.8-0.5-1.4v-4h-1.3v-0.6h1.3v-1.7l0.8-0.3v2h1.9v0.6H154.7z"/>
				<path class="st5" d="M162.6,307.6c0.4,0.3,0.8,0.7,1,1.2s0.4,1.1,0.4,1.8s-0.1,1.3-0.4,1.8c-0.2,0.5-0.6,0.9-1,1.2
					c-0.4,0.3-0.9,0.4-1.5,0.4c-0.5,0-1-0.1-1.4-0.4c-0.4-0.2-0.7-0.6-0.9-1v4.1H158v-7.5c0-0.7,0-1.3-0.1-1.8h0.7l0.1,1.3
					c0.2-0.5,0.5-0.8,0.9-1.1s0.9-0.4,1.4-0.4C161.6,307.1,162.1,307.3,162.6,307.6z M162.5,312.5c0.4-0.5,0.6-1.1,0.6-1.9
					s-0.2-1.5-0.6-2s-0.9-0.7-1.6-0.7c-0.7,0-1.2,0.2-1.6,0.7c-0.4,0.5-0.6,1.1-0.6,2c0,0.8,0.2,1.5,0.6,2c0.4,0.5,0.9,0.7,1.6,0.7
					S162.2,312.9,162.5,312.5z"/>
				<path class="st5" d="M165.7,304.3h0.8v9.5h-0.8V304.3z"/>
				<path class="st5" d="M174.2,307.3v6.5h-0.8v-1.2c-0.2,0.4-0.5,0.8-0.9,1s-0.8,0.3-1.4,0.3c-0.6,0-1.1-0.1-1.5-0.4
					s-0.8-0.7-1-1.2s-0.4-1.1-0.4-1.8s0.1-1.3,0.4-1.8c0.2-0.5,0.6-0.9,1-1.2c0.4-0.3,0.9-0.4,1.5-0.4c0.5,0,1,0.1,1.4,0.3
					c0.4,0.2,0.7,0.6,0.9,1v-1.2h0.8V307.3z M172.9,312.5c0.4-0.5,0.6-1.1,0.6-2s-0.2-1.5-0.6-2c-0.4-0.5-0.9-0.7-1.6-0.7
					s-1.2,0.2-1.6,0.7s-0.6,1.1-0.6,2c0,0.8,0.2,1.5,0.6,1.9c0.4,0.5,0.9,0.7,1.6,0.7C172,313.2,172.5,312.9,172.9,312.5z"/>
				<path class="st5" d="M177.5,313.4c-0.5-0.3-0.8-0.7-1.1-1.2c-0.2-0.5-0.4-1.1-0.4-1.8c0-0.7,0.1-1.3,0.4-1.8
					c0.2-0.5,0.6-0.9,1.1-1.2c0.5-0.3,1-0.4,1.6-0.4c0.4,0,0.9,0.1,1.3,0.2s0.7,0.4,1,0.6l-0.3,0.6c-0.3-0.3-0.7-0.5-1-0.6
					s-0.6-0.2-0.9-0.2c-0.7,0-1.2,0.2-1.7,0.7s-0.6,1.1-0.6,2c0,0.8,0.2,1.5,0.6,1.9s1,0.7,1.7,0.7c0.3,0,0.6-0.1,0.9-0.2
					s0.6-0.3,1-0.6l0.3,0.6c-0.3,0.3-0.6,0.5-1,0.6c-0.4,0.2-0.8,0.2-1.2,0.2C178.4,313.9,177.9,313.7,177.5,313.4z"/>
				<path class="st5" d="M183.2,310.4L183.2,310.4c0,0.9,0.2,1.6,0.6,2c0.4,0.5,1,0.7,1.8,0.7s1.5-0.3,2.1-0.8l0.3,0.6
					c-0.3,0.3-0.6,0.5-1.1,0.6c-0.4,0.2-0.9,0.2-1.4,0.2c-1,0-1.8-0.3-2.3-0.9c-0.6-0.6-0.9-1.4-0.9-2.5c0-0.7,0.1-1.3,0.4-1.8
					c0.3-0.5,0.6-0.9,1.1-1.2c0.5-0.3,1-0.4,1.6-0.4c0.9,0,1.5,0.3,2,0.8c0.5,0.6,0.7,1.3,0.7,2.3v0.2h-4.9V310.4z M184,308.3
					c-0.4,0.4-0.6,0.9-0.7,1.5h4.1c-0.1-0.7-0.2-1.2-0.6-1.5c-0.3-0.3-0.8-0.5-1.4-0.5C184.8,307.8,184.4,308,184,308.3z"/>
				<path class="st5" d="M193.4,304.6h3c1.5,0,2.6,0.4,3.4,1.2c0.8,0.8,1.2,1.9,1.2,3.4s-0.4,2.6-1.2,3.4s-1.9,1.2-3.4,1.2h-3V304.6
					z M196.3,313.1c1.2,0,2.2-0.3,2.8-1s0.9-1.6,0.9-2.9c0-2.6-1.3-3.9-3.8-3.9h-2.1v7.8H196.3z"/>
				<path class="st5" d="M203.3,310.4L203.3,310.4c0,0.9,0.2,1.6,0.6,2c0.4,0.5,1,0.7,1.8,0.7s1.5-0.3,2.1-0.8l0.3,0.6
					c-0.3,0.3-0.6,0.5-1.1,0.6c-0.4,0.2-0.9,0.2-1.4,0.2c-1,0-1.8-0.3-2.3-0.9c-0.6-0.6-0.9-1.4-0.9-2.5c0-0.7,0.1-1.3,0.4-1.8
					c0.3-0.5,0.6-0.9,1.1-1.2c0.5-0.3,1-0.4,1.6-0.4c0.9,0,1.5,0.3,2,0.8c0.5,0.6,0.7,1.3,0.7,2.3v0.2h-4.9V310.4z M204,308.3
					c-0.4,0.4-0.6,0.9-0.7,1.5h4.1c-0.1-0.7-0.2-1.2-0.6-1.5c-0.3-0.3-0.8-0.5-1.4-0.5C204.9,307.8,204.4,308,204,308.3z"/>
				<path class="st5" d="M209.6,313l0.3-0.6c0.3,0.3,0.7,0.5,1,0.6s0.8,0.2,1.2,0.2c0.5,0,0.9-0.1,1.2-0.3c0.3-0.2,0.4-0.5,0.4-0.8
					s-0.1-0.5-0.3-0.7s-0.5-0.3-0.9-0.4l-1.1-0.2c-0.5-0.1-0.9-0.3-1.2-0.6c-0.3-0.3-0.4-0.7-0.4-1.1c0-0.6,0.2-1,0.7-1.4
					c0.4-0.3,1-0.5,1.7-0.5c0.5,0,0.9,0.1,1.3,0.2c0.4,0.1,0.7,0.4,1,0.6l-0.3,0.6c-0.6-0.5-1.2-0.8-2-0.8c-0.5,0-0.9,0.1-1.2,0.3
					c-0.3,0.2-0.4,0.5-0.4,0.8s0.1,0.5,0.3,0.7s0.4,0.3,0.8,0.4l1.1,0.3c1.2,0.3,1.7,0.8,1.7,1.7c0,0.5-0.2,1-0.7,1.3
					c-0.4,0.3-1,0.5-1.8,0.5C211,313.9,210.2,313.6,209.6,313z"/>
				<path class="st5" d="M217.3,304.6v1h-1v-1H217.3z M216.4,307.3h0.8v6.5h-0.8V307.3z"/>
				<path class="st5" d="M224.9,307.3v6.5c0,0.9-0.2,1.6-0.7,2.1s-1.1,0.7-2.1,0.7s-1.8-0.2-2.5-0.7l0.2-0.7
					c0.4,0.2,0.8,0.4,1.2,0.5s0.8,0.2,1.2,0.2c0.6,0,1.1-0.2,1.5-0.5c0.3-0.4,0.5-0.9,0.5-1.5v-1.7c-0.2,0.4-0.5,0.8-0.9,1
					s-0.9,0.4-1.4,0.4c-0.6,0-1.1-0.1-1.5-0.4s-0.8-0.6-1-1.1s-0.4-1-0.4-1.7c0-0.6,0.1-1.2,0.4-1.7c0.2-0.5,0.6-0.9,1-1.1
					c0.4-0.3,0.9-0.4,1.5-0.4c0.5,0,1,0.1,1.4,0.3c0.4,0.2,0.7,0.6,0.9,1v-1.2L224.9,307.3L224.9,307.3z M223.6,312.2
					c0.4-0.4,0.6-1.1,0.6-1.8c0-0.8-0.2-1.4-0.6-1.9c-0.4-0.5-0.9-0.7-1.6-0.7c-0.7,0-1.2,0.2-1.6,0.7c-0.4,0.5-0.6,1.1-0.6,1.9
					s0.2,1.4,0.6,1.8c0.4,0.4,0.9,0.7,1.6,0.7C222.7,312.9,223.2,312.6,223.6,312.2z"/>
				<path class="st5" d="M232.5,309.7v4.1h-0.8v-4.1c0-0.6-0.1-1.1-0.4-1.4c-0.3-0.3-0.7-0.5-1.2-0.5c-0.6,0-1.2,0.2-1.6,0.6
					c-0.4,0.4-0.6,0.9-0.6,1.6v3.7h-0.8V309c0-0.7,0-1.3-0.1-1.8h0.7l0.1,1.2c0.2-0.4,0.5-0.8,0.9-1s0.9-0.3,1.4-0.3
					C231.7,307.1,232.5,308,232.5,309.7z"/>
				<path class="st5" d="M240.2,307.3v6.5h-0.8v-1.2c-0.2,0.4-0.5,0.8-0.9,1s-0.8,0.3-1.4,0.3c-0.6,0-1.1-0.1-1.5-0.4
					s-0.8-0.7-1-1.2s-0.4-1.1-0.4-1.8s0.1-1.3,0.4-1.8c0.2-0.5,0.6-0.9,1-1.2c0.4-0.3,0.9-0.4,1.5-0.4c0.5,0,1,0.1,1.4,0.3
					c0.4,0.2,0.7,0.6,0.9,1v-1.2h0.8V307.3z M238.8,312.5c0.4-0.5,0.6-1.1,0.6-2s-0.2-1.5-0.6-2s-0.9-0.7-1.6-0.7s-1.2,0.2-1.6,0.7
					c-0.4,0.5-0.6,1.1-0.6,2c0,0.8,0.2,1.5,0.6,1.9c0.4,0.5,0.9,0.7,1.6,0.7C237.9,313.2,238.4,312.9,238.8,312.5z"/>
				<path class="st5" d="M243.5,307.9v3.8c0,0.5,0.1,0.9,0.3,1.1s0.5,0.3,0.9,0.3c0.2,0,0.5,0,0.7-0.1v0.7c-0.3,0.1-0.6,0.1-0.8,0.1
					c-0.6,0-1-0.2-1.3-0.5s-0.5-0.8-0.5-1.4v-4h-1.3v-0.6h1.3v-1.7l0.8-0.3v2h1.9v0.6H243.5z"/>
				<path class="st5" d="M247.7,304.6v1h-1v-1H247.7z M246.8,307.3h0.8v6.5h-0.8V307.3z"/>
				<path class="st5" d="M250.8,313.4c-0.5-0.3-0.8-0.7-1-1.2s-0.4-1.1-0.4-1.8c0-0.7,0.1-1.3,0.4-1.8c0.2-0.5,0.6-0.9,1-1.2
					c0.5-0.3,1-0.4,1.6-0.4s1.1,0.1,1.5,0.4s0.8,0.7,1,1.2s0.4,1.1,0.4,1.8c0,0.7-0.1,1.3-0.4,1.8c-0.2,0.5-0.6,0.9-1,1.2
					c-0.4,0.3-1,0.4-1.5,0.4C251.8,313.9,251.2,313.7,250.8,313.4z M253.9,312.5c0.4-0.5,0.6-1.1,0.6-2c0-0.8-0.2-1.5-0.6-2
					s-0.9-0.7-1.6-0.7c-0.7,0-1.2,0.2-1.6,0.7c-0.4,0.5-0.6,1.1-0.6,2s0.2,1.5,0.6,2c0.4,0.5,0.9,0.7,1.6,0.7
					S253.6,312.9,253.9,312.5z"/>
				<path class="st5" d="M262.5,309.7v4.1h-0.8v-4.1c0-0.6-0.1-1.1-0.4-1.4s-0.7-0.5-1.2-0.5c-0.6,0-1.2,0.2-1.6,0.6
					s-0.6,0.9-0.6,1.6v3.7h-0.8V309c0-0.7,0-1.3-0.1-1.8h0.7l0.1,1.2c0.2-0.4,0.5-0.8,0.9-1s0.9-0.3,1.4-0.3
					C261.7,307.1,262.5,308,262.5,309.7z"/>
				<path class="st5" d="M267.9,310h3.5v0.7h-3.5V310z"/>
				<path class="st5" d="M60,327.5h-5l-1.1,2.5h-0.8l4-9.2h0.7l4,9.2H61L60,327.5z M59.7,326.8l-2.2-5.1l-2.2,5.1H59.7z"/>
				<path class="st5" d="M68.6,323.4v6.5h-0.8v-1.2c-0.2,0.4-0.5,0.7-0.9,0.9s-0.8,0.3-1.3,0.3c-0.8,0-1.3-0.2-1.7-0.6
					c-0.4-0.4-0.6-1-0.6-1.9v-4.1h0.8v4c0,0.6,0.1,1.1,0.4,1.4s0.7,0.5,1.2,0.5c0.6,0,1.1-0.2,1.5-0.6s0.6-0.9,0.6-1.6v-3.7h0.8
					V323.4z"/>
				<path class="st5" d="M71.9,324.1v3.8c0,0.5,0.1,0.9,0.3,1.1c0.2,0.2,0.5,0.3,0.9,0.3c0.2,0,0.5,0,0.7-0.1v0.7
					c-0.3,0.1-0.6,0.1-0.8,0.1c-0.6,0-1-0.2-1.3-0.5s-0.5-0.8-0.5-1.4v-4h-1.3v-0.6h1.3v-1.7l0.8-0.3v2h1.9v0.6H71.9z"/>
				<path class="st5" d="M80.5,325.8v4.1h-0.8v-4.1c0-0.6-0.1-1.1-0.4-1.4s-0.7-0.5-1.2-0.5c-0.6,0-1.2,0.2-1.6,0.6
					s-0.6,0.9-0.6,1.6v3.7h-0.8v-9.5H76v4.2c0.2-0.4,0.5-0.7,0.9-1c0.4-0.2,0.8-0.3,1.3-0.3C79.7,323.3,80.5,324.1,80.5,325.8z"/>
				<path class="st5" d="M83.7,329.6c-0.5-0.3-0.8-0.7-1-1.2s-0.4-1.1-0.4-1.8c0-0.7,0.1-1.3,0.4-1.8c0.2-0.5,0.6-0.9,1-1.2
					c0.5-0.3,1-0.4,1.6-0.4s1.1,0.1,1.5,0.4s0.8,0.7,1,1.2s0.4,1.1,0.4,1.8c0,0.7-0.1,1.3-0.4,1.8c-0.2,0.5-0.6,0.9-1,1.2
					c-0.4,0.3-1,0.4-1.5,0.4C84.7,330,84.2,329.9,83.7,329.6z M86.9,328.6c0.4-0.5,0.6-1.1,0.6-2c0-0.8-0.2-1.5-0.6-2
					s-0.9-0.7-1.6-0.7s-1.2,0.2-1.6,0.7s-0.6,1.1-0.6,2s0.2,1.5,0.6,2s0.9,0.7,1.6,0.7C86,329.3,86.5,329.1,86.9,328.6z"/>
				<path class="st5" d="M93.4,323.3v0.7c-0.2,0-0.4-0.1-0.6-0.1c-0.7,0-1.1,0.2-1.5,0.6c-0.3,0.4-0.5,0.9-0.5,1.5v3.8H90v-4.7
					c0-0.7,0-1.3-0.1-1.8h0.7l0.1,1.2c0.2-0.4,0.4-0.8,0.8-1s0.8-0.3,1.2-0.3C93,323.3,93.2,323.3,93.4,323.3z"/>
				<path class="st5" d="M95.5,320.8v1h-1v-1H95.5z M94.6,323.4h0.8v6.5h-0.8V323.4z"/>
				<path class="st5" d="M102.6,329.3v0.6h-5.4v-0.5l4.3-5.3h-4.1v-0.6h5.1v0.6l-4.2,5.2L102.6,329.3L102.6,329.3z"/>
				<path class="st5" d="M104.6,326.6L104.6,326.6c0,0.9,0.2,1.6,0.6,2c0.4,0.5,1,0.7,1.8,0.7s1.5-0.3,2.1-0.8l0.3,0.6
					c-0.3,0.3-0.6,0.5-1.1,0.6c-0.4,0.2-0.9,0.2-1.4,0.2c-1,0-1.8-0.3-2.3-0.9c-0.6-0.6-0.9-1.4-0.9-2.5c0-0.7,0.1-1.3,0.4-1.8
					s0.6-0.9,1.1-1.2c0.5-0.3,1-0.4,1.6-0.4c0.9,0,1.5,0.3,2,0.8c0.5,0.6,0.7,1.3,0.7,2.3v0.2h-4.9V326.6z M105.4,324.5
					c-0.4,0.4-0.6,0.9-0.7,1.5h4.1c-0.1-0.7-0.2-1.2-0.6-1.5c-0.3-0.3-0.8-0.5-1.4-0.5C106.2,323.9,105.7,324.1,105.4,324.5z"/>
				<path class="st5" d="M116.8,320.4v9.5H116v-1.2c-0.2,0.4-0.5,0.8-0.9,1s-0.8,0.3-1.4,0.3s-1.1-0.1-1.5-0.4s-0.8-0.7-1-1.2
					s-0.4-1.1-0.4-1.8s0.1-1.3,0.4-1.8s0.6-0.9,1-1.2c0.4-0.3,0.9-0.4,1.5-0.4c0.5,0,1,0.1,1.4,0.3c0.4,0.2,0.7,0.6,0.9,1v-4.2h0.8
					V320.4z M115.4,328.6c0.4-0.5,0.6-1.1,0.6-2c0-0.8-0.2-1.5-0.6-2s-0.9-0.7-1.6-0.7s-1.2,0.2-1.6,0.7s-0.6,1.1-0.6,2
					c0,0.8,0.2,1.5,0.6,2s0.9,0.7,1.6,0.7S115,329.1,115.4,328.6z"/>
			</g>
		</g>
		<g>
			<g>
				<path class="st1" d="M29.6,97.9h-5.4l-1.1,2.5h-1.5l4.6-10.2h1.4l4.6,10.2h-1.5L29.6,97.9z M29.1,96.8l-2.2-5l-2.2,5H29.1z"/>
				<path class="st1" d="M41,92.8v6.7c0,2.7-1.4,4-4,4c-1.4,0-2.8-0.4-3.7-1.1l0.7-1.1c0.7,0.6,1.8,1,3,1c1.8,0,2.6-0.8,2.6-2.6V99
					c-0.7,0.8-1.7,1.2-2.8,1.2c-2.2,0-3.9-1.5-3.9-3.7s1.7-3.7,3.9-3.7c1.1,0,2.2,0.4,2.8,1.3v-1.2H41V92.8z M39.6,96.4
					c0-1.5-1.1-2.5-2.6-2.5c-1.6,0-2.7,1-2.7,2.5s1.1,2.5,2.7,2.5C38.5,98.9,39.6,97.9,39.6,96.4z"/>
				<path class="st1" d="M50.7,97.1h-6.2c0.2,1.4,1.3,2.3,2.8,2.3c0.9,0,1.7-0.3,2.2-0.9l0.8,0.9c-0.7,0.8-1.8,1.2-3,1.2
					c-2.5,0-4.1-1.6-4.1-3.9s1.6-3.9,3.9-3.9s3.8,1.6,3.8,4C50.7,96.8,50.7,97,50.7,97.1z M44.4,96.1h4.9c-0.1-1.3-1.1-2.2-2.5-2.2
					C45.6,93.9,44.6,94.8,44.4,96.1z"/>
				<path class="st1" d="M60.1,96v4.4h-1.4v-4.3c0-1.5-0.8-2.3-2.1-2.3c-1.5,0-2.4,0.9-2.4,2.6v4h-1.4v-7.7h1.3v1.2
					c0.6-0.8,1.6-1.2,2.8-1.2C58.8,92.7,60.1,93.8,60.1,96z"/>
				<path class="st1" d="M62.2,96.6c0-2.3,1.7-3.9,4.1-3.9c1.4,0,2.5,0.6,3.1,1.6L68.3,95c-0.5-0.8-1.2-1.1-2.1-1.1
					c-1.5,0-2.6,1.1-2.6,2.7c0,1.7,1.1,2.7,2.6,2.7c0.8,0,1.6-0.3,2.1-1.1l1.1,0.7c-0.6,1.1-1.8,1.7-3.1,1.7
					C63.9,100.6,62.2,98.9,62.2,96.6z"/>
				<path class="st1" d="M78,92.8l-3.7,8.5c-0.7,1.6-1.6,2.1-2.7,2.1c-0.7,0-1.5-0.2-2-0.7l0.6-1c0.4,0.4,0.9,0.6,1.4,0.6
					c0.7,0,1.1-0.3,1.5-1.2l0.2-0.5l-3.4-7.7h1.5l2.7,6.2l2.7-6.2H78V92.8z"/>
				<path class="st1" d="M90.2,97.9h-5.4l-1.1,2.5h-1.5l4.6-10.2h1.4l4.6,10.2h-1.5L90.2,97.9z M89.7,96.8l-2.2-5l-2.2,5H89.7z"/>
				<path class="st1" d="M101.3,92.8v7.7H100v-1.2c-0.6,0.8-1.5,1.2-2.6,1.2c-2,0-3.3-1.1-3.3-3.4v-4.4h1.4V97
					c0,1.5,0.8,2.3,2.1,2.3c1.5,0,2.4-0.9,2.4-2.6v-4L101.3,92.8L101.3,92.8z"/>
				<path class="st1" d="M108.5,100c-0.4,0.4-1.1,0.5-1.7,0.5c-1.6,0-2.4-0.9-2.4-2.4v-4.2H103v-1.1h1.3v-1.7h1.4v1.7h2.2v1.1h-2.2
					v4.2c0,0.8,0.4,1.3,1.2,1.3c0.4,0,0.8-0.1,1.1-0.4L108.5,100z"/>
				<path class="st1" d="M117.6,96v4.4h-1.4v-4.3c0-1.5-0.8-2.3-2.1-2.3c-1.5,0-2.4,0.9-2.4,2.6v4h-1.4V89.7h1.4v4.2
					c0.6-0.7,1.5-1.2,2.7-1.2C116.3,92.7,117.6,93.8,117.6,96z"/>
				<path class="st1" d="M119.7,96.6c0-2.3,1.7-3.9,4-3.9s4,1.6,4,3.9s-1.7,3.9-4,3.9C121.4,100.6,119.7,98.9,119.7,96.6z
					 M126.3,96.6c0-1.6-1.1-2.7-2.6-2.7s-2.6,1.1-2.6,2.7s1.1,2.7,2.6,2.7C125.2,99.3,126.3,98.3,126.3,96.6z"/>
				<path class="st1" d="M133.9,92.7v1.4c-0.1,0-0.2,0-0.3,0c-1.5,0-2.4,0.9-2.4,2.6v3.8h-1.4v-7.7h1.3v1.3
					C131.6,93.2,132.6,92.7,133.9,92.7z"/>
				<path class="st1" d="M135.5,90.4c0-0.5,0.4-0.9,0.9-0.9s0.9,0.4,0.9,0.9s-0.4,0.9-0.9,0.9S135.5,90.9,135.5,90.4z M135.8,92.8
					h1.4v7.7h-1.4V92.8z"/>
				<path class="st1" d="M145.7,99.3v1.1h-6.4v-0.9l4.5-5.7h-4.5v-1.1h6.2v0.9l-4.5,5.6L145.7,99.3L145.7,99.3z"/>
				<path class="st1" d="M153.8,95.8v4.6h-1.3v-1c-0.5,0.7-1.3,1.1-2.5,1.1c-1.7,0-2.8-0.9-2.8-2.3c0-1.2,0.8-2.3,3.1-2.3h2.2v-0.3
					c0-1.2-0.7-1.9-2.1-1.9c-0.9,0-1.8,0.3-2.4,0.8l-0.6-1c0.8-0.6,1.9-1,3.2-1C152.6,92.7,153.8,93.7,153.8,95.8z M152.4,98.1V97
					h-2.1c-1.4,0-1.8,0.5-1.8,1.2c0,0.8,0.6,1.2,1.7,1.2C151.2,99.5,152,99,152.4,98.1z"/>
				<path class="st1" d="M160.8,100c-0.4,0.4-1.1,0.5-1.7,0.5c-1.6,0-2.4-0.9-2.4-2.4v-4.2h-1.3v-1.1h1.3v-1.7h1.4v1.7h2.2v1.1h-2.2
					v4.2c0,0.8,0.4,1.3,1.2,1.3c0.4,0,0.8-0.1,1.1-0.4L160.8,100z"/>
				<path class="st1" d="M162.4,90.4c0-0.5,0.4-0.9,0.9-0.9s0.9,0.4,0.9,0.9s-0.4,0.9-0.9,0.9C162.8,91.3,162.4,90.9,162.4,90.4z
					 M162.7,92.8h1.4v7.7h-1.4V92.8z"/>
				<path class="st1" d="M166.2,96.6c0-2.3,1.7-3.9,4-3.9s4,1.6,4,3.9s-1.7,3.9-4,3.9C167.9,100.6,166.2,98.9,166.2,96.6z
					 M172.8,96.6c0-1.6-1.1-2.7-2.6-2.7s-2.6,1.1-2.6,2.7s1.1,2.7,2.6,2.7C171.6,99.3,172.8,98.3,172.8,96.6z"/>
				<path class="st1" d="M183.5,96v4.4h-1.4v-4.3c0-1.5-0.8-2.3-2.1-2.3c-1.5,0-2.4,0.9-2.4,2.6v4h-1.4v-7.7h1.3v1.2
					c0.6-0.8,1.6-1.2,2.8-1.2C182.2,92.7,183.5,93.8,183.5,96z"/>
				<path class="st1" d="M198.7,93.8c0,2.2-1.6,3.5-4.2,3.5H192v3.1h-1.5V90.3h4C197.1,90.3,198.7,91.6,198.7,93.8z M197.3,93.8
					c0-1.5-1-2.3-2.8-2.3H192v4.6h2.5C196.3,96.1,197.3,95.3,197.3,93.8z"/>
				<path class="st1" d="M204.8,92.7v1.4c-0.1,0-0.2,0-0.3,0c-1.5,0-2.4,0.9-2.4,2.6v3.8h-1.4v-7.7h1.3v1.3
					C202.5,93.2,203.5,92.7,204.8,92.7z"/>
				<path class="st1" d="M205.9,96.6c0-2.3,1.7-3.9,4-3.9s4,1.6,4,3.9s-1.7,3.9-4,3.9S205.9,98.9,205.9,96.6z M212.5,96.6
					c0-1.6-1.1-2.7-2.6-2.7s-2.6,1.1-2.6,2.7s1.1,2.7,2.6,2.7C211.4,99.3,212.5,98.3,212.5,96.6z"/>
				<path class="st1" d="M215.3,96.6c0-2.3,1.7-3.9,4.1-3.9c1.4,0,2.5,0.6,3.1,1.6l-1.1,0.7c-0.5-0.8-1.2-1.1-2.1-1.1
					c-1.5,0-2.6,1.1-2.6,2.7c0,1.7,1.1,2.7,2.6,2.7c0.8,0,1.6-0.3,2.1-1.1l1.1,0.7c-0.6,1.1-1.8,1.7-3.1,1.7
					C217,100.6,215.3,98.9,215.3,96.6z"/>
				<path class="st1" d="M231.2,97.1H225c0.2,1.4,1.3,2.3,2.8,2.3c0.9,0,1.7-0.3,2.2-0.9l0.8,0.9c-0.7,0.8-1.8,1.2-3,1.2
					c-2.5,0-4.1-1.6-4.1-3.9s1.6-3.9,3.9-3.9c2.2,0,3.8,1.6,3.8,4C231.3,96.8,231.3,97,231.2,97.1z M225,96.1h4.9
					c-0.1-1.3-1.1-2.2-2.5-2.2C226.1,93.9,225.1,94.8,225,96.1z"/>
				<path class="st1" d="M232.4,99.7l0.6-1.1c0.7,0.5,1.7,0.8,2.7,0.8c1.3,0,1.8-0.4,1.8-1c0-1.7-4.9-0.2-4.9-3.3
					c0-1.4,1.2-2.3,3.2-2.3c1,0,2.1,0.3,2.8,0.7l-0.6,1.1c-0.7-0.5-1.5-0.6-2.2-0.6c-1.2,0-1.8,0.5-1.8,1.1c0,1.8,4.9,0.3,4.9,3.3
					c0,1.4-1.3,2.3-3.3,2.3C234.3,100.6,233,100.2,232.4,99.7z"/>
				<path class="st1" d="M239.8,99.7l0.6-1.1c0.7,0.5,1.7,0.8,2.7,0.8c1.3,0,1.8-0.4,1.8-1c0-1.7-4.9-0.2-4.9-3.3
					c0-1.4,1.2-2.3,3.2-2.3c1,0,2.1,0.3,2.8,0.7l-0.6,1.1c-0.7-0.5-1.5-0.6-2.2-0.6c-1.2,0-1.8,0.5-1.8,1.1c0,1.8,4.9,0.3,4.9,3.3
					c0,1.4-1.3,2.3-3.3,2.3C241.7,100.6,240.4,100.2,239.8,99.7z"/>
			</g>
		</g>
		<rect x="31.4" y="123.5" class="st1" width="0.8" height="172"/>
		<g>
			<path class="st12" d="M40.9,316.7c0.4-0.7-0.3-1.9-0.1-2.6c0.2-0.8,1.4-1.4,1.4-2.2c0-0.8-1.2-1.5-1.4-2.2
				c-0.2-0.8,0.5-2,0.1-2.6c-0.4-0.7-1.8-0.7-2.3-1.2c-0.6-0.6-0.5-1.9-1.2-2.3s-1.9,0.3-2.6,0.1c-0.8-0.2-1.4-1.4-2.2-1.4
				s-1.5,1.2-2.2,1.4c-0.8,0.2-2-0.5-2.6-0.1c-0.7,0.4-0.7,1.8-1.2,2.3c-0.6,0.6-1.9,0.5-2.3,1.2s0.3,1.9,0.1,2.6
				c-0.2,0.8-1.4,1.4-1.4,2.2c0,0.8,1.2,1.5,1.4,2.2c0.2,0.8-0.5,2-0.1,2.6c0.4,0.7,1.8,0.7,2.3,1.2c0.4,0.4,0.5,1.1,0.7,1.6
				l-3.1,6.5l4.2-1l2.2,3.7l2.2-5.8l2.2,5.8l2.2-3.7l4.2,1l-3.1-6.5c0.2-0.6,0.4-1.3,0.7-1.6C39.2,317.4,40.5,317.4,40.9,316.7z"/>
			<g>
				<g>
					<polygon class="st13" points="28.9,327.5 26.7,323.8 22.5,324.8 28.2,313 33.4,315.2 					"/>
					<polygon class="st13" points="33.2,327.5 35.4,323.8 39.6,324.8 33.9,313 28.6,315.2 					"/>
				</g>
				<path class="st14" d="M40.8,310.5c0,0.8-1.2,1.5-1.4,2.2c-0.2,0.8,0.5,2,0.1,2.6c-0.4,0.7-1.8,0.7-2.3,1.2
					c-0.6,0.6-0.5,1.9-1.2,2.3s-1.9-0.3-2.6-0.1c-0.8,0.2-1.4,1.4-2.2,1.4c-0.8,0-1.5-1.2-2.2-1.4c-0.8-0.2-2,0.5-2.6,0.1
					c-0.7-0.4-0.7-1.8-1.2-2.3c-0.6-0.6-1.9-0.5-2.3-1.2s0.3-1.9,0.1-2.6c-0.2-0.8-1.4-1.4-1.4-2.2c0-0.8,1.2-1.5,1.4-2.2
					c0.2-0.8-0.5-2-0.1-2.6c0.4-0.7,1.8-0.7,2.3-1.2c0.6-0.6,0.5-1.9,1.2-2.3s1.9,0.3,2.6,0.1c0.8-0.2,1.4-1.4,2.2-1.4
					c0.8,0,1.5,1.2,2.2,1.4c0.8,0.2,2-0.5,2.6-0.1c0.7,0.4,0.7,1.8,1.2,2.3c0.6,0.6,1.9,0.5,2.3,1.2c0.4,0.7-0.3,1.9-0.1,2.6
					S40.8,309.6,40.8,310.5z"/>
				<g>
					<path class="st2" d="M36.6,310.5c0,3.1-2.5,5.6-5.6,5.6s-5.6-2.5-5.6-5.6s2.5-5.6,5.6-5.6S36.6,307.4,36.6,310.5"/>
					<path class="st7" d="M35.6,310.5c0,2.5-2,4.6-4.6,4.6s-4.6-2-4.6-4.6s2-4.6,4.6-4.6S35.6,307.9,35.6,310.5"/>
				</g>
			</g>
		</g>
	</g>
</g>
</svg>
