<?xml version="1.0" encoding="utf-8"?>
<!-- Generator: Adobe Illustrator 25.0.1, SVG Export Plug-In . SVG Version: 6.00 Build 0)  -->
<svg version="1.1" id="Layer_1" xmlns="http://www.w3.org/2000/svg" xmlns:xlink="http://www.w3.org/1999/xlink" x="0px" y="0px"
	 viewBox="0 0 500 400" style="enable-background:new 0 0 500 400;" xml:space="preserve">
<style type="text/css">
	.st0{fill:#E3E3E3;}
	.st1{font-family:'MyriadPro-Regular';}
	.st2{font-size:34.6193px;}
</style>
<g id="Layer_7">
	<rect y="-50" class="st0" width="500" height="500"/>
</g>
<g id="Layer_16">
	<path d="M109.1,174.8l-3.5,17.5h-3.8l2-10.4l-6.7,8.6h-1.8l-3.6-8.6l-2.1,10.5h-3.8l3.5-17.5h3.3l4.4,10.9l8.6-10.9L109.1,174.8z"
		/>
	<path d="M109.8,186.5c-0.1-4.3,3.4-7.8,7.6-7.8c0.2,0,0.3,0,0.5,0c4.1,0,6.8,2.4,6.8,6c0,4.5-3.4,7.8-8.1,7.8
		C112.4,192.5,109.8,190.1,109.8,186.5z M120.8,184.8c0.1-1.5-1-2.9-2.5-3c-0.2,0-0.3,0-0.5,0c-2.3,0-4,1.8-4,4.4
		c-0.1,1.5,1,2.9,2.6,3c0.2,0,0.4,0,0.5,0C119.1,189.3,120.7,187.5,120.8,184.8L120.8,184.8z"/>
	<path d="M141.9,184.7c0.2,4.1-3,7.6-7.1,7.8c-0.1,0-0.2,0-0.3,0c-1.8,0.2-3.5-0.7-4.5-2.2l-0.4,2h-3.7l3.7-18.6h3.9l-1.2,6.2
		c1.1-0.9,2.5-1.4,3.9-1.4c3.1-0.1,5.7,2.4,5.8,5.5C141.9,184.3,141.9,184.5,141.9,184.7z M137.9,184.8c0.1-1.5-1-2.9-2.5-3
		c-0.2,0-0.4,0-0.5,0c-2.3,0-3.9,1.8-3.9,4.4c-0.1,1.5,1,2.9,2.5,3c0.2,0,0.4,0,0.5,0c2.4,0,4.1-1.8,4.1-4.4L137.9,184.8z"/>
	<path d="M145.8,178.9h3.9l-2.6,13.4h-3.9L145.8,178.9z M146.1,175c0-1.3,1.1-2.4,2.4-2.3c0.1,0,0.1,0,0.2,0
		c1.1-0.1,2.2,0.7,2.3,1.8c0,0.1,0,0.1,0,0.2c0,1.3-1,2.4-2.3,2.4c-0.1,0-0.2,0-0.3,0c-1.1,0.1-2.2-0.7-2.3-1.9
		C146.1,175.1,146.1,175,146.1,175L146.1,175z"/>
	<path d="M154.3,173.8h3.9l-3.7,18.6h-3.9L154.3,173.8z"/>
	<path d="M172.5,186.6h-10.3c0.1,1.8,1.2,2.8,3.5,2.8c1.3,0,2.6-0.4,3.6-1.2l1.6,2.6c-1.6,1.2-3.6,1.9-5.6,1.8c-4.2,0-6.9-2.4-6.9-6
		c-0.1-4.2,3.1-7.7,7.3-7.8c0.2,0,0.4,0,0.6,0c3.9,0,6.4,2.3,6.4,5.9C172.7,185.3,172.6,186,172.5,186.6z M162.5,184.4h6.7
		c0.1-1.5-1.1-2.7-2.6-2.8c-0.1,0-0.3,0-0.4,0C164.4,181.5,162.9,182.7,162.5,184.4L162.5,184.4z"/>
	<path d="M180.1,191.1l1.5-2.8c1.4,0.8,3,1.3,4.7,1.3c1.8,0,2.6-0.5,2.6-1.3c0-1.9-7.1-0.3-7.1-4.9c0-3,2.8-4.7,6.7-4.7
		c1.7,0,3.5,0.4,5,1.1l-1.4,2.9c-1.2-0.7-2.6-1-4-1c-1.8,0-2.6,0.6-2.6,1.3c0,2,7.1,0.4,7.1,4.9c0,3.1-2.9,4.7-6.8,4.7
		C183.8,192.6,181.8,192.1,180.1,191.1z"/>
	<path d="M209.6,183.2c0,0.5-0.1,1.1-0.2,1.6l-1.5,7.4H204l1.4-7.2c0.1-0.3,0.1-0.6,0.1-0.9c0-1.4-0.8-2.1-2.3-2.1
		c-2,0-3.4,1.1-3.8,3.4l-1.3,6.8h-3.9l3.7-18.6h3.9l-1.2,6.3c1.2-1,2.6-1.5,4.1-1.4C207.6,178.6,209.6,180.2,209.6,183.2z"/>
	<path d="M211.9,186.5c-0.1-4.3,3.4-7.8,7.6-7.8c0.2,0,0.3,0,0.5,0c4.1,0,6.8,2.4,6.8,6c0,4.5-3.4,7.8-8.1,7.8
		C214.5,192.5,211.9,190.1,211.9,186.5z M222.9,184.8c0.1-1.5-1-2.9-2.5-3c-0.2,0-0.4,0-0.5,0c-2.3,0-3.9,1.8-3.9,4.4
		c-0.1,1.5,1,2.9,2.5,3c0.2,0,0.4,0,0.5,0C221.1,189.3,222.8,187.5,222.9,184.8L222.9,184.8z"/>
	<path d="M244.2,178.9l-2.7,13.4h-3.7l0.3-1.4c-1.2,1.1-2.8,1.7-4.4,1.6c-2.9,0-4.8-1.6-4.8-4.6c0-0.5,0.1-1.1,0.2-1.6l1.5-7.4h3.9
		L233,186c-0.1,0.3-0.1,0.7-0.1,1c0,1.4,0.7,2.1,2.2,2.1c1.9,0,3.3-1.1,3.8-3.4l1.4-6.8L244.2,178.9z"/>
	<path d="M248.8,173.8h3.9l-3.7,18.6h-3.9L248.8,173.8z"/>
	<path d="M270,173.8l-3.7,18.6h-3.7l0.3-1.4c-1.1,1-2.6,1.6-4.1,1.6c-3.1,0.1-5.7-2.4-5.8-5.5c0-0.2,0-0.3,0-0.5
		c-0.2-4.1,3-7.6,7.1-7.8c0.1,0,0.2,0,0.3,0c1.7-0.1,3.3,0.6,4.4,2l1.4-6.9L270,173.8z M263.9,184.9c0.1-1.5-1-2.9-2.5-3
		c-0.2,0-0.4,0-0.5,0c-2.3,0-4,1.8-4,4.4c-0.1,1.5,1,2.9,2.5,3c0.2,0,0.4,0,0.5,0C262.3,189.3,263.9,187.5,263.9,184.9L263.9,184.9z
		"/>
	<path d="M293.1,184.7c0.2,4.1-3,7.6-7.1,7.8c-0.1,0-0.2,0-0.3,0c-1.8,0.2-3.5-0.7-4.5-2.2l-0.4,2H277l3.7-18.6h3.9l-1.2,6.2
		c1.1-0.9,2.5-1.4,3.9-1.4c3.1-0.1,5.7,2.4,5.8,5.5C293.1,184.3,293.1,184.5,293.1,184.7z M289.1,184.8c0.1-1.5-1-2.9-2.5-3
		c-0.2,0-0.4,0-0.5,0c-2.3,0-3.9,1.8-3.9,4.4c-0.1,1.5,1,2.9,2.5,3c0.2,0,0.4,0,0.5,0C287.5,189.3,289.1,187.5,289.1,184.8
		L289.1,184.8z"/>
	<path d="M308.6,186.6h-10.3c0.1,1.8,1.2,2.8,3.5,2.8c1.3,0,2.6-0.4,3.6-1.2l1.6,2.6c-1.6,1.2-3.6,1.9-5.6,1.8c-4.2,0-6.9-2.4-6.9-6
		c-0.1-4.2,3.1-7.7,7.3-7.8c0.2,0,0.4,0,0.6,0c3.9,0,6.4,2.3,6.4,5.9C308.9,185.3,308.8,186,308.6,186.6z M298.6,184.4h6.7
		c0.1-1.5-1.1-2.7-2.6-2.8c-0.1,0-0.3,0-0.4,0C300.6,181.5,299.1,182.7,298.6,184.4L298.6,184.4z"/>
	<path d="M316.2,191.1l1.5-2.8c1.4,0.8,3,1.3,4.7,1.3c1.8,0,2.6-0.5,2.6-1.3c0-1.9-7.1-0.3-7.1-4.9c0-3,2.8-4.7,6.8-4.7
		c1.7,0,3.5,0.4,5,1.1l-1.4,2.9c-1.2-0.7-2.6-1-4-1c-1.8,0-2.6,0.6-2.6,1.3c0,2,7.1,0.4,7.1,4.9c0,3.1-2.9,4.7-6.8,4.7
		C319.9,192.6,317.9,192.1,316.2,191.1z"/>
	<path d="M346.6,178.9l-3.6,18.3h-3.9l1.2-6c-1.1,0.9-2.5,1.3-3.9,1.3c-3.1,0.1-5.7-2.4-5.8-5.5c0-0.2,0-0.3,0-0.5
		c-0.2-4.1,3-7.6,7.1-7.8c0.1,0,0.2,0,0.3,0c2,0,3.7,0.7,4.5,2.2l0.4-2.1L346.6,178.9z M337.6,189.3c2.3,0,4-1.8,4-4.4
		c0.1-1.5-1-2.9-2.6-3c-0.2,0-0.4,0-0.5,0c-2.3,0-4,1.8-4,4.4c-0.1,1.5,1,2.9,2.5,3C337.2,189.3,337.4,189.3,337.6,189.3
		L337.6,189.3z"/>
	<path d="M363.8,178.9l-2.7,13.4h-3.7l0.3-1.4c-1.2,1.1-2.8,1.7-4.4,1.6c-2.9,0-4.8-1.6-4.8-4.6c0-0.5,0.1-1.1,0.2-1.6l1.5-7.4h3.9
		l-1.4,7.2c-0.1,0.3-0.1,0.7-0.1,1c0,1.4,0.7,2.1,2.2,2.1c1.9,0,3.3-1.1,3.8-3.4l1.4-6.8L363.8,178.9z"/>
	<path d="M381.1,178.9l-2.7,13.4h-3.7l0.3-1.3c-1.1,1-2.6,1.6-4.1,1.5c-3.1,0.1-5.7-2.4-5.8-5.5c0-0.2,0-0.3,0-0.5
		c-0.2-4.1,3-7.6,7.1-7.8c0.1,0,0.2,0,0.3,0c1.7-0.2,3.4,0.6,4.4,2l0.4-1.8L381.1,178.9z M376,184.9c0.1-1.5-1-2.9-2.5-3
		c-0.2,0-0.4,0-0.5,0c-2.3,0-4,1.8-4,4.4c-0.1,1.5,1,2.9,2.5,3c0.2,0,0.4,0,0.5,0C374.3,189.3,376,187.5,376,184.9L376,184.9z"/>
	<path d="M393.1,178.6l-0.7,3.6c-0.4,0-0.6-0.1-0.9-0.1c-2.3,0-3.8,1.1-4.3,3.6l-1.3,6.5H382l2.7-13.4h3.7l-0.3,1.6
		C389.4,179.1,391.2,178.5,393.1,178.6z"/>
	<path d="M406.9,186.6h-10.3c0.1,1.8,1.2,2.8,3.5,2.8c1.3,0,2.6-0.4,3.6-1.2l1.6,2.6c-1.6,1.2-3.6,1.9-5.6,1.8c-4.2,0-6.9-2.4-6.9-6
		c-0.1-4.2,3.1-7.7,7.3-7.8c0.2,0,0.4,0,0.6,0c3.9,0,6.4,2.3,6.4,5.9C407.1,185.3,407.1,186,406.9,186.6z M396.9,184.4h6.7
		c0.1-1.5-1.1-2.7-2.6-2.8c-0.1,0-0.3,0-0.4,0C398.9,181.5,397.3,182.7,396.9,184.4L396.9,184.4z"/>
	<path d="M94.3,216.5c-0.1-4.3,3.4-7.8,7.6-7.8c0.2,0,0.3,0,0.5,0c4.1,0,6.8,2.4,6.8,6c0,4.5-3.4,7.8-8.1,7.8
		C97,222.5,94.3,220.1,94.3,216.5z M105.3,214.9c0.1-1.5-1-2.9-2.5-3c-0.2,0-0.3,0-0.5,0c-2.3,0-4,1.8-4,4.4c-0.1,1.5,1,2.9,2.5,3
		c0.2,0,0.4,0,0.5,0C103.6,219.3,105.3,217.5,105.3,214.9L105.3,214.9z"/>
	<path d="M121.5,208.6l-0.7,3.6c-0.3,0-0.6,0-0.9,0c-2.3,0-3.8,1.1-4.3,3.6l-1.3,6.5h-3.9l2.7-13.5h3.7l-0.3,1.6
		C117.8,209.1,119.6,208.5,121.5,208.6z"/>
	<path d="M127.4,221.1l1.5-2.8c1.4,0.8,3,1.3,4.7,1.3c1.8,0,2.6-0.5,2.6-1.3c0-1.9-7.1-0.3-7.1-4.9c0-3,2.8-4.7,6.8-4.7
		c1.7,0,3.5,0.3,5,1.1l-1.4,2.9c-1.2-0.7-2.6-1-4-1c-1.8,0-2.6,0.6-2.6,1.3c0,2,7.1,0.4,7.1,4.9c0,3.1-2.9,4.7-6.8,4.7
		C131.2,222.6,129.2,222.1,127.4,221.1z"/>
	<path d="M141.8,216.5c-0.1-4.3,3.4-7.8,7.6-7.8c0.2,0,0.3,0,0.5,0c4.1,0,6.8,2.4,6.8,6c0,4.5-3.4,7.8-8.1,7.8
		C144.5,222.5,141.8,220.1,141.8,216.5z M152.8,214.9c0.1-1.5-1-2.9-2.5-3c-0.2,0-0.4,0-0.5,0c-2.3,0-3.9,1.8-3.9,4.4
		c-0.1,1.5,1,2.9,2.6,3c0.2,0,0.4,0,0.5,0C151.1,219.3,152.8,217.5,152.8,214.9z"/>
	<path d="M182.2,213.2c0,0.6-0.1,1.1-0.2,1.6l-1.5,7.5h-3.9l1.4-7.2c0.1-0.3,0.1-0.7,0.1-1c0.2-1-0.5-2-1.6-2.1c-0.2,0-0.4,0-0.6,0
		c-1.8,0-3,1-3.5,3.4l-1.4,6.9h-3.9l1.4-7.2c0.1-0.3,0.1-0.7,0.1-1c0.1-1-0.6-2-1.6-2.1c-0.2,0-0.3,0-0.5,0c-1.8,0-3,1-3.6,3.4
		l-1.4,6.9h-3.9l2.7-13.5h3.7l-0.3,1.4c1.2-1,2.7-1.6,4.2-1.6c1.7-0.1,3.3,0.7,4.1,2.2c1.3-1.4,3.2-2.2,5.1-2.2
		C180.3,208.6,182.2,210.2,182.2,213.2z"/>
	<path d="M198.6,216.6h-10.3c0.1,1.8,1.2,2.8,3.5,2.8c1.3,0,2.6-0.4,3.6-1.2l1.6,2.6c-1.6,1.2-3.6,1.9-5.6,1.8c-4.2,0-6.9-2.4-6.9-6
		c-0.1-4.2,3.1-7.7,7.3-7.8c0.2,0,0.4,0,0.6,0c3.9,0,6.4,2.3,6.4,5.9C198.9,215.3,198.8,216,198.6,216.6z M188.6,214.4h6.7
		c0.1-1.5-1.1-2.7-2.6-2.8c-0.1,0-0.3,0-0.4,0C190.6,211.5,189.1,212.7,188.6,214.4L188.6,214.4z"/>
	<path d="M205.3,217.5c0,0.2-0.1,0.4-0.1,0.5c0,0.8,0.4,1.3,1.4,1.3c0.6,0,1.1-0.2,1.6-0.5l0.6,2.8c-1,0.6-2.2,0.8-3.4,0.8
		c-2.5,0-4.2-1.4-4.2-3.8c0-0.4,0-0.8,0.1-1.2l1.1-5.4h-2.1l0.6-3h2.1l0.6-3.3h3.9l-0.6,3.3h3.4l-0.6,3h-3.4L205.3,217.5z"/>
	<path d="M226.2,213.2c0,0.5-0.1,1.1-0.2,1.6l-1.5,7.5h-3.9l1.4-7.2c0.1-0.3,0.1-0.6,0.1-0.9c0-1.4-0.8-2.1-2.3-2.1
		c-2,0-3.3,1.1-3.8,3.5l-1.4,6.8h-3.9l3.7-18.6h3.9l-1.2,6.3c1.2-1,2.6-1.5,4.1-1.4C224.3,208.6,226.2,210.2,226.2,213.2z"/>
	<path d="M230.8,208.9h3.9l-2.7,13.4h-3.9L230.8,208.9z M231.1,205c0-1.3,1.1-2.3,2.4-2.3c0.1,0,0.1,0,0.2,0
		c1.1-0.1,2.2,0.7,2.3,1.8c0,0.1,0,0.1,0,0.2c0,1.3-1,2.4-2.3,2.4c-0.1,0-0.2,0-0.3,0c-1.1,0.1-2.2-0.7-2.3-1.9
		C231.1,205.1,231.1,205,231.1,205L231.1,205z"/>
	<path d="M251,213.2c0,0.5-0.1,1.1-0.2,1.6l-1.5,7.5h-3.9l1.4-7.2c0.1-0.3,0.1-0.6,0.1-0.9c0-1.4-0.8-2.1-2.3-2.1
		c-2,0-3.4,1.1-3.8,3.5l-1.4,6.8h-3.9l2.7-13.5h3.7l-0.3,1.5c1.2-1.1,2.8-1.7,4.4-1.6C249.1,208.6,251,210.2,251,213.2z"/>
	<path d="M269.6,208.9l-2.2,11.2c-1,5.2-4,7.3-8.6,7.3c-2.3,0.1-4.5-0.5-6.4-1.8l1.9-2.8c1.4,1,3.1,1.5,4.8,1.5
		c2.7,0,3.9-1.2,4.4-3.5l0.1-0.6c-1.1,1-2.6,1.5-4.1,1.5c-3.3,0-6-2.1-6-5.6c0-4,3.2-7.3,7.2-7.4c0.1,0,0.2,0,0.3,0
		c2,0,3.7,0.7,4.5,2.4l0.4-2.2H269.6z M264.3,214.5c0-1.6-1.1-2.6-3-2.6c-2.1-0.1-3.8,1.5-3.9,3.6c0,0.1,0,0.2,0,0.3
		c0,1.6,1.1,2.6,3.1,2.6c2.1,0.1,3.8-1.6,3.9-3.6C264.3,214.7,264.3,214.6,264.3,214.5L264.3,214.5z"/>
	<path d="M277.9,216.5c0-4.5,3.4-7.8,8.2-7.8c2.9,0,5,1.2,6,3.4l-3.3,1.6c-0.5-1.2-1.7-1.9-3-1.8c-2.3,0-4,1.8-4,4.4
		c-0.1,1.6,1.1,2.9,2.6,3c0.2,0,0.3,0,0.5,0c1.3,0,2.6-0.6,3.3-1.8l2.9,1.8c-1.4,2.1-3.9,3.3-6.4,3.2
		C280.5,222.5,277.9,220.1,277.9,216.5z"/>
	<path d="M296,203.8h3.9l-3.7,18.5h-3.9L296,203.8z"/>
	<path d="M300.1,216.5c-0.1-4.3,3.4-7.8,7.6-7.8c0.2,0,0.3,0,0.5,0c4.1,0,6.8,2.4,6.8,6c0,4.5-3.4,7.8-8.1,7.8
		C302.8,222.5,300.1,220.1,300.1,216.5z M311,214.9c0.1-1.5-1-2.9-2.5-3c-0.2,0-0.3,0-0.5,0c-2.3,0-4,1.8-4,4.4
		c-0.1,1.5,1,2.9,2.6,3c0.2,0,0.4,0,0.5,0C309.4,219.3,311,217.5,311,214.9z"/>
	<path d="M315.3,221.1l1.5-2.8c1.4,0.8,3,1.3,4.7,1.3c1.8,0,2.6-0.5,2.6-1.3c0-1.9-7.1-0.3-7.1-4.9c0-3,2.8-4.7,6.8-4.7
		c1.7,0,3.5,0.3,5,1.1l-1.4,2.9c-1.2-0.7-2.6-1-4-1c-1.8,0-2.6,0.6-2.6,1.3c0,2,7.1,0.4,7.1,4.9c0,3.1-2.9,4.7-6.8,4.7
		C319.1,222.6,317.1,222.1,315.3,221.1z"/>
	<path d="M343.8,216.6h-10.3c0.1,1.8,1.2,2.8,3.5,2.8c1.3,0,2.6-0.4,3.6-1.2l1.6,2.6c-1.6,1.2-3.6,1.9-5.6,1.8c-4.2,0-6.9-2.4-6.9-6
		c-0.1-4.2,3.1-7.7,7.3-7.8c0.2,0,0.4,0,0.6,0c3.9,0,6.4,2.3,6.4,5.9C344,215.3,344,216,343.8,216.6z M333.8,214.4h6.7
		c0.1-1.5-1.1-2.7-2.6-2.8c-0.1,0-0.3,0-0.4,0C335.8,211.5,334.2,212.7,333.8,214.4L333.8,214.4z"/>
	<path d="M357.5,217.5c0,0.2,0,0.4,0,0.5c0,0.8,0.5,1.3,1.4,1.3c0.6,0,1.1-0.2,1.6-0.5l0.6,2.8c-1,0.6-2.2,0.8-3.4,0.8
		c-2.5,0-4.2-1.4-4.2-3.8c0-0.4,0-0.8,0.1-1.2l1.1-5.4h-2.1l0.6-3h2.1l0.6-3.3h3.9l-0.6,3.3h3.4l-0.6,3h-3.4L357.5,217.5z"/>
	<path d="M362.9,216.5c-0.1-4.3,3.4-7.8,7.6-7.8c0.2,0,0.3,0,0.5,0c4.1,0,6.8,2.4,6.8,6c0,4.5-3.4,7.8-8.1,7.8
		C365.6,222.5,362.9,220.1,362.9,216.5z M373.9,214.9c0.1-1.5-1-2.9-2.5-3c-0.2,0-0.4,0-0.5,0c-2.3,0-4,1.8-4,4.4
		c-0.1,1.5,1,2.9,2.6,3c0.2,0,0.4,0,0.5,0C372.2,219.3,373.9,217.5,373.9,214.9L373.9,214.9z"/>
	<path d="M388.8,208.9h3.9l-2.6,13.4h-3.9L388.8,208.9z M389.1,205c0-1.3,1.1-2.3,2.4-2.3c0.1,0,0.1,0,0.2,0
		c1.1-0.1,2.2,0.7,2.3,1.8c0,0.1,0,0.1,0,0.2c0,1.3-1,2.4-2.3,2.4c-0.1,0-0.2,0-0.3,0c-1.1,0.1-2.2-0.7-2.3-1.9
		C389.1,205.1,389.1,205,389.1,205L389.1,205z"/>
	<path d="M392.8,221.1l1.5-2.8c1.4,0.8,3,1.3,4.7,1.3c1.8,0,2.6-0.5,2.6-1.3c0-1.9-7.1-0.3-7.1-4.9c0-3,2.8-4.7,6.8-4.7
		c1.7,0,3.5,0.4,5,1.1l-1.4,2.9c-1.2-0.7-2.6-1-4-1c-1.8,0-2.6,0.6-2.6,1.3c0,2,7.1,0.4,7.1,4.9c0,3.1-2.9,4.7-6.8,4.7
		C396.5,222.6,394.5,222.1,392.8,221.1z"/>
</g>
<text transform="matrix(1 0 0 1 186.999 288.9307)" class="st1 st2">500 X 400</text>
</svg>
