<svg xmlns="http://www.w3.org/2000/svg" width="127.5" height="102.4" viewBox="0 0 127.5 102.4">
  <g id="Group_9269" data-name="Group 9269" transform="translate(-573.8 -481)">
    <g id="Group_9252" data-name="Group 9252" transform="translate(103.6 479.6)">
      <path id="Path_24138" data-name="Path 24138" d="M597.4,1.8H470.6v84h48.1l16.7,17.5,16.7-17.5h45.3Z" fill="#fff"/>
      <path id="Path_24139" data-name="Path 24139" d="M535.4,103.8,518.5,86.1H470.2V1.4H597.7V86.2H552.2ZM471,85.4h47.9l16.5,17.3,16.5-17.3H597V2.2H471Z" fill="#1a4480"/>
    </g>
    <g id="Group_9257" data-name="Group 9257" transform="translate(103.6 479.6)" style="isolation: isolate">
      <path id="Path_24146" data-name="Path 24146" d="M517.2,24.3h5.1a4.454,4.454,0,0,1,3.1,1,3.623,3.623,0,0,1,0,5.2,4.79,4.79,0,0,1-3.1,1h-3.6v5.6h-1.5Zm5,6a3.1,3.1,0,0,0,2.1-.6,2.481,2.481,0,0,0,.7-1.8,2.139,2.139,0,0,0-.7-1.8,3.281,3.281,0,0,0-2.1-.6h-3.5v4.7l3.5.1Z" fill="#1a4480"/>
      <path id="Path_24147" data-name="Path 24147" d="M533.6,28v1.3a3.083,3.083,0,0,0-1-.1,2.629,2.629,0,0,0-2,.8,3.174,3.174,0,0,0-.6,2v5.2h-1.5V30.7a19.3,19.3,0,0,0-.1-2.5h1.4l.1,1.7a2.586,2.586,0,0,1,1.1-1.4,3.371,3.371,0,0,1,1.7-.5A1.379,1.379,0,0,1,533.6,28Z" fill="#1a4480"/>
      <path id="Path_24148" data-name="Path 24148" d="M542.5,32.6h-6.6a3.844,3.844,0,0,0,.8,2.6,2.869,2.869,0,0,0,2.3.9,4.556,4.556,0,0,0,2.9-1.1l.5,1.1a3.766,3.766,0,0,1-1.5.9,6.28,6.28,0,0,1-1.9.3,4.156,4.156,0,0,1-3.3-1.3,4.7,4.7,0,0,1-1.2-3.4,6.963,6.963,0,0,1,.5-2.5,4.978,4.978,0,0,1,1.5-1.7,4.032,4.032,0,0,1,2.2-.6,3.489,3.489,0,0,1,2.8,1.2,4.722,4.722,0,0,1,1,3.2Zm-5.7-2.9a3.1,3.1,0,0,0-.9,1.9h5.3a3.041,3.041,0,0,0-.7-1.9,2.793,2.793,0,0,0-3.7,0Z" fill="#1a4480"/>
      <path id="Path_24149" data-name="Path 24149" d="M544.8,31.7h5.1v1.2h-5.1Z" fill="#1a4480"/>
    </g>
    <g id="Group_9258" data-name="Group 9258" transform="translate(103.6 479.6)" style="isolation: isolate">
      <path id="Path_24150" data-name="Path 24150" d="M486.1,55.4h-6.7L478,58.7h-1.5l5.6-12.8h1.3L489,58.7h-1.5Zm-.5-1.2-2.8-6.6L480,54.2Z" fill="#1a4480"/>
      <path id="Path_24151" data-name="Path 24151" d="M498.3,49.7v9.1h-1.4V57.2a3.039,3.039,0,0,1-1.2,1.3,3.287,3.287,0,0,1-1.7.4,2.953,2.953,0,0,1-2.4-.9,3.646,3.646,0,0,1-.8-2.7V49.7h1.5v5.6a2.969,2.969,0,0,0,.5,1.8,1.755,1.755,0,0,0,1.5.6,2.407,2.407,0,0,0,1.9-.8,2.817,2.817,0,0,0,.7-2.1V49.7Z" fill="#1a4480"/>
      <path id="Path_24152" data-name="Path 24152" d="M503.1,50.8v5a1.809,1.809,0,0,0,.4,1.4,1.594,1.594,0,0,0,1.2.4,3.553,3.553,0,0,0,1-.2v1.2a5.067,5.067,0,0,1-1.3.2,2.578,2.578,0,0,1-2-.7,2.918,2.918,0,0,1-.7-2.2V50.8h-1.8V49.6h1.8V47.3l1.5-.5v2.8h2.6v1.2Z" fill="#1a4480"/>
      <path id="Path_24153" data-name="Path 24153" d="M515.2,53v5.7h-1.5V53.1a2.763,2.763,0,0,0-.5-1.8,2.359,2.359,0,0,0-1.6-.6,2.792,2.792,0,0,0-2,.8,2.865,2.865,0,0,0-.8,2.1v5.2h-1.5V45.5h1.5v5.7a3.039,3.039,0,0,1,1.2-1.3,3.424,3.424,0,0,1,1.8-.4C514.1,49.5,515.2,50.7,515.2,53Z" fill="#1a4480"/>
      <path id="Path_24154" data-name="Path 24154" d="M519.4,58.3a4.628,4.628,0,0,1-1.5-1.6,4.869,4.869,0,0,1-.5-2.5,6.55,6.55,0,0,1,.5-2.5,3.345,3.345,0,0,1,1.5-1.6,4.333,4.333,0,0,1,4.4,0,4.628,4.628,0,0,1,1.5,1.6,4.869,4.869,0,0,1,.5,2.5,6.551,6.551,0,0,1-.5,2.5,3.345,3.345,0,0,1-1.5,1.6,4.032,4.032,0,0,1-2.2.6A4.282,4.282,0,0,1,519.4,58.3Zm4.4-1.5a4.023,4.023,0,0,0,.7-2.6,4.023,4.023,0,0,0-.7-2.6,2.9,2.9,0,0,0-4.2,0,4.023,4.023,0,0,0-.7,2.6,4.023,4.023,0,0,0,.7,2.6,2.9,2.9,0,0,0,4.2,0Z" fill="#1a4480"/>
      <path id="Path_24155" data-name="Path 24155" d="M533.3,49.6v1.3a3.083,3.083,0,0,0-1-.1,2.629,2.629,0,0,0-2,.8,3.174,3.174,0,0,0-.6,2v5.2h-1.5V52.3a19.283,19.283,0,0,0-.1-2.5h1.4l.1,1.7a2.587,2.587,0,0,1,1.1-1.4,3.371,3.371,0,0,1,1.7-.5A1.379,1.379,0,0,1,533.3,49.6Z" fill="#1a4480"/>
      <path id="Path_24156" data-name="Path 24156" d="M536.4,45.8v1.7h-1.8V45.8Zm-1.6,3.9h1.5v9.1h-1.5Z" fill="#1a4480"/>
      <path id="Path_24157" data-name="Path 24157" d="M546.2,57.6v1.2h-7.6v-1l5.7-6.9h-5.5V49.7h7.3v1.1l-5.7,6.8Z" fill="#1a4480"/>
      <path id="Path_24158" data-name="Path 24158" d="M556.1,49.7v9.1h-1.4V57.2a3.039,3.039,0,0,1-1.2,1.3,3.83,3.83,0,0,1-1.9.5,3.7,3.7,0,0,1-2.1-.6,3.639,3.639,0,0,1-1.4-1.6,6.175,6.175,0,0,1-.5-2.5,6.551,6.551,0,0,1,.5-2.5,3.907,3.907,0,0,1,1.4-1.7,3.7,3.7,0,0,1,2.1-.6,4.136,4.136,0,0,1,1.9.5,3.745,3.745,0,0,1,1.2,1.3V49.7Zm-2.1,7a4.023,4.023,0,0,0,.7-2.6,4.023,4.023,0,0,0-.7-2.6,2.9,2.9,0,0,0-4.2,0,4.023,4.023,0,0,0-.7,2.6,4.023,4.023,0,0,0,.7,2.6,2.583,2.583,0,0,0,2.1.9A2.116,2.116,0,0,0,554,56.7Z" fill="#1a4480"/>
      <path id="Path_24159" data-name="Path 24159" d="M560.9,50.8v5a1.809,1.809,0,0,0,.4,1.4,1.594,1.594,0,0,0,1.2.4,3.553,3.553,0,0,0,1-.2v1.2a5.067,5.067,0,0,1-1.3.2,2.578,2.578,0,0,1-2-.7,2.918,2.918,0,0,1-.7-2.2V50.8h-1.8V49.6h1.8V47.3l1.5-.5v2.8h2.6v1.2Z" fill="#1a4480"/>
      <path id="Path_24160" data-name="Path 24160" d="M566.9,45.8v1.7h-1.8V45.8Zm-1.6,3.9h1.5v9.1h-1.5Z" fill="#1a4480"/>
      <path id="Path_24161" data-name="Path 24161" d="M571,58.3a4.629,4.629,0,0,1-1.5-1.6,4.869,4.869,0,0,1-.5-2.5,6.551,6.551,0,0,1,.5-2.5,3.346,3.346,0,0,1,1.5-1.6,4.333,4.333,0,0,1,4.4,0,4.63,4.63,0,0,1,1.5,1.6,4.87,4.87,0,0,1,.5,2.5,6.551,6.551,0,0,1-.5,2.5,3.346,3.346,0,0,1-1.5,1.6,4.032,4.032,0,0,1-2.2.6A4.282,4.282,0,0,1,571,58.3Zm4.4-1.5a4.023,4.023,0,0,0,.7-2.6,4.023,4.023,0,0,0-.7-2.6,2.9,2.9,0,0,0-4.2,0,4.023,4.023,0,0,0-.7,2.6,4.023,4.023,0,0,0,.7,2.6,2.9,2.9,0,0,0,4.2,0Z" fill="#1a4480"/>
      <path id="Path_24162" data-name="Path 24162" d="M587.6,53v5.7h-1.5V53.1a2.763,2.763,0,0,0-.5-1.8,2.359,2.359,0,0,0-1.6-.6,2.792,2.792,0,0,0-2,.8,2.865,2.865,0,0,0-.8,2.1v5.2h-1.5V52.3a19.283,19.283,0,0,0-.1-2.5H581l.1,1.6a4.072,4.072,0,0,1,1.2-1.4,4.136,4.136,0,0,1,1.9-.5C586.5,49.5,587.6,50.7,587.6,53Z" fill="#1a4480"/>
    </g>
  </g>
</svg>
