<?xml version="1.0" encoding="utf-8"?>
<!-- Generator: Adobe Illustrator 25.0.1, SVG Export Plug-In . SVG Version: 6.00 Build 0)  -->
<svg version="1.1" id="Layer_1" xmlns="http://www.w3.org/2000/svg" xmlns:xlink="http://www.w3.org/1999/xlink" x="0px" y="0px"
	 viewBox="0 0 320 302.7" style="enable-background:new 0 0 320 302.7;" xml:space="preserve">
<style type="text/css">
	.st0{opacity:0.55;}
	.st1{fill:#444444;}
	.st2{fill:#757575;}
	.st3{fill:#FFFFFF;}
	.st4{fill:#F2F2F2;}
	.st5{fill:#0A90B7;}
	.st6{fill:#0A90B7;enable-background:new    ;}
	.st7{fill:#D8D8D8;}
	.st8{fill:#A00A0F;}
	.st9{fill:#C71F25;}
</style>
<g id="Layer_6">
</g>
<g id="Shapes">
</g>
<g id="background">
</g>
<g id="text">
</g>
<g id="Graphics">
</g>
<g id="Layer_5">
	<g class="st0">
		<g>
			<path class="st1" d="M78.3,36.1c-0.3,0.3-0.5,0.7-0.6,1.2h3.4c0-0.5-0.2-1-0.5-1.3s-0.7-0.4-1.1-0.4C79,35.6,78.6,35.8,78.3,36.1
				z"/>
			<path class="st1" d="M92.8,35.2v5.4h-0.6v-1c-0.2,0.3-0.4,0.6-0.7,0.8c-0.3,0.2-0.7,0.3-1.1,0.3c-0.6,0-1.1-0.2-1.4-0.5
				s-0.5-0.9-0.5-1.6v-3.4h0.6v3.3c0,0.5,0.1,0.9,0.3,1.2s0.5,0.4,1,0.4s0.9-0.2,1.3-0.5c0.3-0.3,0.5-0.8,0.5-1.3v-3h0.6
				C92.8,35.3,92.8,35.2,92.8,35.2z"/>
			<path class="st1" d="M98.4,35.2H99v5.4h-0.6V35.2z"/>
			<path class="st1" d="M109.2,35.2l-2.5,5.9c-0.2,0.6-0.6,1-0.9,1.3s-0.8,0.5-1.4,0.6l-0.1-0.5c0.5-0.1,0.9-0.3,1.2-0.5
				c0.3-0.2,0.5-0.5,0.7-0.9l0.2-0.5l-2.3-5.4h0.7l1.9,4.7l1.9-4.7H109.2z"/>
			<path class="st1" d="M125.2,35.2v5.4h-0.6v-1c-0.2,0.3-0.4,0.6-0.7,0.8c-0.3,0.2-0.7,0.3-1.1,0.3c-0.6,0-1.1-0.2-1.4-0.5
				s-0.5-0.9-0.5-1.6v-3.4h0.6v3.3c0,0.5,0.1,0.9,0.3,1.2s0.5,0.4,1,0.4s0.9-0.2,1.3-0.5c0.3-0.3,0.5-0.8,0.5-1.3v-3h0.6
				C125.2,35.3,125.2,35.2,125.2,35.2z"/>
			<path class="st1" d="M140.4,39.5c0.3-0.4,0.5-0.9,0.5-1.6s-0.2-1.2-0.5-1.6s-0.7-0.6-1.3-0.6s-1,0.2-1.3,0.6s-0.5,0.9-0.5,1.6
				s0.2,1.3,0.5,1.6s0.7,0.6,1.3,0.6S140.1,39.9,140.4,39.5z"/>
			<path class="st1" d="M146.8,35.2h0.6v5.4h-0.6V35.2z"/>
			<path class="st1" d="M153.4,40v0.5h-4.5v-0.4l3.6-4.4h-3.4v-0.5h4.2v0.5l-3.5,4.3H153.4z"/>
			<path class="st1" d="M158.2,39.5c0.3-0.4,0.5-0.9,0.5-1.6s-0.2-1.3-0.5-1.6c-0.3-0.4-0.7-0.6-1.3-0.6s-1,0.2-1.3,0.6
				s-0.5,0.9-0.5,1.6s0.2,1.2,0.5,1.6s0.8,0.6,1.3,0.6C157.4,40.1,157.9,39.9,158.2,39.5z"/>
			<path class="st1" d="M164.8,35.2h0.6v5.4h-0.6V35.2z"/>
			<path class="st1" d="M170.7,39.5c0.3-0.4,0.5-0.9,0.5-1.6s-0.2-1.2-0.5-1.6s-0.7-0.6-1.3-0.6s-1,0.2-1.3,0.6s-0.5,0.9-0.5,1.6
				s0.2,1.3,0.5,1.6s0.7,0.6,1.3,0.6S170.4,39.9,170.7,39.5z"/>
			<path class="st1" d="M192.5,39.5c0.3-0.4,0.5-0.9,0.5-1.6s-0.2-1.3-0.5-1.6c-0.3-0.4-0.7-0.6-1.3-0.6s-1,0.2-1.3,0.6
				s-0.5,0.9-0.5,1.6s0.2,1.2,0.5,1.6s0.8,0.6,1.3,0.6C191.8,40.1,192.2,39.9,192.5,39.5z"/>
			<path class="st1" d="M209.5,39.5c0.3-0.4,0.5-0.9,0.5-1.6s-0.2-1.3-0.5-1.6c-0.3-0.4-0.7-0.6-1.3-0.6s-1,0.2-1.3,0.6
				s-0.5,0.9-0.5,1.6s0.2,1.2,0.5,1.6s0.8,0.6,1.3,0.6C208.7,40.1,209.2,39.9,209.5,39.5z"/>
			<path class="st1" d="M215.9,39.3c0.3-0.4,0.5-0.9,0.5-1.5s-0.2-1.2-0.5-1.5s-0.8-0.6-1.3-0.6c-0.6,0-1,0.2-1.3,0.6
				s-0.5,0.9-0.5,1.5s0.2,1.2,0.5,1.5c0.3,0.4,0.8,0.6,1.3,0.6C215.1,39.8,215.6,39.6,215.9,39.3z"/>
			<path class="st1" d="M219.8,36.1c-0.3,0.3-0.5,0.7-0.6,1.2h3.4c0-0.5-0.2-1-0.5-1.3s-0.7-0.4-1.1-0.4
				C220.5,35.6,220.1,35.8,219.8,36.1z"/>
			<path class="st1" d="M251.1,39.6v0.7c0,0.3,0,0.5-0.1,0.7s-0.2,0.4-0.4,0.6l-0.3-0.3c0.2-0.3,0.4-0.6,0.4-0.9h-0.4v-0.9h0.8V39.6
				z"/>
			<path class="st1" d="M71.6,53.8c-0.5-0.2-0.9-0.4-1.2-0.8l0.3-0.5c0.4,0.3,0.8,0.6,1.1,0.7s0.9,0.2,1.4,0.2
				c0.6,0,1.1-0.1,1.5-0.4s0.5-0.6,0.5-1.1c0-0.3-0.1-0.5-0.3-0.7s-0.4-0.3-0.7-0.4s-0.6-0.2-1.1-0.3c-0.6-0.1-1.1-0.3-1.4-0.4
				c-0.4-0.1-0.7-0.3-0.9-0.6c-0.2-0.3-0.4-0.6-0.4-1.1c0-0.4,0.1-0.8,0.3-1.1c0.2-0.3,0.5-0.6,0.9-0.8c0.4-0.2,0.9-0.3,1.4-0.3
				s1,0.1,1.4,0.3c0.4,0.2,0.8,0.4,1.1,0.7l-0.3,0.5c-0.4-0.3-0.7-0.6-1.1-0.7s-0.8-0.2-1.2-0.2c-0.6,0-1.1,0.1-1.5,0.4
				s-0.5,0.7-0.5,1.1s0.2,0.7,0.5,0.9c0.3,0.2,0.8,0.4,1.4,0.5l0.3,0.1c0.6,0.1,1,0.3,1.4,0.4c0.3,0.1,0.6,0.3,0.9,0.6
				c0.2,0.3,0.4,0.6,0.4,1s-0.1,0.8-0.3,1.1c-0.2,0.3-0.5,0.6-0.9,0.7s-0.9,0.3-1.4,0.3C72.6,54,72.1,53.9,71.6,53.8z"/>
			<path class="st1" d="M82.4,51.9h-4.1l-0.9,2h-0.7l3.3-7.6h0.6l3.3,7.6h-0.7L82.4,51.9z M82.1,51.3l-1.8-4.2l-1.8,4.2H82.1z"/>
			<path class="st1" d="M85.2,46.3h2.9c0.8,0,1.4,0.2,1.8,0.6s0.7,0.9,0.7,1.5c0,0.7-0.2,1.2-0.7,1.5c-0.4,0.4-1,0.6-1.8,0.6h-2.3
				v3.4h-0.7L85.2,46.3L85.2,46.3z M88.1,49.9c0.6,0,1.1-0.1,1.4-0.4s0.5-0.6,0.5-1.1s-0.2-0.9-0.5-1.1s-0.8-0.4-1.4-0.4h-2.2v3
				H88.1z"/>
			<path class="st1" d="M92.3,53v0.7c0,0.3,0,0.5-0.1,0.7S92,54.8,91.8,55l-0.3-0.3c0.2-0.3,0.4-0.6,0.4-0.9h-0.4v-0.9h0.8V53z"/>
			<path class="st1" d="M97.6,53.8c-0.5-0.2-0.9-0.4-1.2-0.8l0.3-0.5c0.4,0.3,0.8,0.6,1.1,0.7s0.9,0.2,1.4,0.2
				c0.6,0,1.1-0.1,1.5-0.4s0.5-0.6,0.5-1.1c0-0.3-0.1-0.5-0.3-0.7s-0.4-0.3-0.7-0.4c-0.3-0.1-0.6-0.2-1.1-0.3
				c-0.6-0.1-1.1-0.3-1.4-0.4c-0.4-0.1-0.7-0.3-0.9-0.6s-0.4-0.6-0.4-1.1c0-0.4,0.1-0.8,0.3-1.1c0.2-0.3,0.5-0.6,0.9-0.8
				c0.4-0.2,0.9-0.3,1.4-0.3s1,0.1,1.4,0.3c0.4,0.2,0.8,0.4,1.1,0.7l-0.3,0.5c-0.4-0.3-0.7-0.6-1.1-0.7s-0.8-0.2-1.2-0.2
				c-0.6,0-1.1,0.1-1.5,0.4s-0.5,0.7-0.5,1.1s0.2,0.7,0.5,0.9c0.3,0.2,0.8,0.4,1.4,0.5l0.3,0.1c0.6,0.1,1,0.3,1.4,0.4
				c0.3,0.1,0.6,0.3,0.9,0.6c0.2,0.3,0.4,0.6,0.4,1s-0.1,0.8-0.3,1.1s-0.5,0.6-0.9,0.7s-0.9,0.3-1.4,0.3
				C98.6,54,98.1,53.9,97.6,53.8z"/>
			<path class="st1" d="M108.4,51.9h-4.1l-0.9,2h-0.7l3.3-7.6h0.6l3.3,7.6h-0.7L108.4,51.9z M108.2,51.3l-1.8-4.2l-1.8,4.2H108.2z"
				/>
			<path class="st1" d="M117.1,53.9h-0.7l-1-2.5c-0.1-0.3-0.3-0.6-0.5-0.7s-0.5-0.2-0.9-0.2h-2.1v3.4h-0.7v-7.6h2.9
				c0.8,0,1.4,0.2,1.8,0.5c0.4,0.4,0.7,0.9,0.7,1.5c0,0.5-0.1,0.9-0.4,1.2c-0.3,0.3-0.6,0.6-1.1,0.7c0.2,0,0.4,0.1,0.6,0.3
				c0.2,0.1,0.3,0.4,0.4,0.7L117.1,53.9z M114.2,50c1.2,0,1.9-0.5,1.9-1.6c0-1-0.6-1.5-1.9-1.5H112V50H114.2z"/>
			<path class="st1" d="M119.5,53v0.7c0,0.3,0,0.5-0.1,0.7s-0.2,0.4-0.4,0.6l-0.3-0.3c0.2-0.3,0.4-0.6,0.4-0.9h-0.4v-0.9h0.8V53z"/>
			<path class="st1" d="M124,46.3h2.9c0.8,0,1.4,0.2,1.8,0.6s0.7,0.9,0.7,1.5c0,0.7-0.2,1.2-0.7,1.5c-0.4,0.4-1,0.6-1.8,0.6h-2.3
				v3.4H124V46.3z M126.9,49.9c0.6,0,1.1-0.1,1.4-0.4s0.5-0.6,0.5-1.1s-0.2-0.9-0.5-1.1s-0.8-0.4-1.4-0.4h-2.2v3H126.9z"/>
			<path class="st1" d="M132.1,53.6c-0.5-0.3-0.9-0.8-1.2-1.3s-0.4-1.3-0.4-2.1s0.1-1.5,0.4-2.1c0.3-0.6,0.7-1,1.2-1.3
				s1.1-0.5,1.8-0.5s1.3,0.2,1.8,0.5s0.9,0.8,1.2,1.3c0.3,0.6,0.4,1.3,0.4,2.1s-0.1,1.5-0.4,2.1c-0.3,0.6-0.7,1-1.2,1.4
				s-1.1,0.5-1.8,0.5C133.3,54,132.7,53.9,132.1,53.6z M135.9,52.6c0.5-0.6,0.7-1.4,0.7-2.4c0-1.1-0.2-1.9-0.7-2.4
				c-0.5-0.6-1.1-0.9-2-0.9s-1.5,0.3-2,0.9s-0.7,1.4-0.7,2.4s0.2,1.9,0.7,2.4c0.5,0.6,1.1,0.9,2,0.9
				C134.8,53.4,135.5,53.1,135.9,52.6z"/>
			<path class="st1" d="M143.9,51.9h-4.1l-0.9,2h-0.7l3.3-7.6h0.6l3.3,7.6h-0.7L143.9,51.9z M143.6,51.3l-1.8-4.2l-1.8,4.2H143.6z"
				/>
			<path class="st1" d="M152.9,53.6l-0.4,0.4c-0.6-0.3-1.1-0.7-1.5-1.1c-0.3,0.3-0.6,0.6-1,0.8c-0.4,0.2-0.8,0.3-1.3,0.3
				s-0.9-0.1-1.2-0.2c-0.4-0.2-0.6-0.4-0.8-0.7c-0.2-0.3-0.3-0.6-0.3-1c0-0.5,0.1-0.9,0.4-1.2s0.7-0.8,1.4-1.2
				c-0.3-0.4-0.6-0.8-0.7-1s-0.2-0.5-0.2-0.8c0-0.5,0.2-0.9,0.5-1.2c0.3-0.3,0.8-0.4,1.3-0.4s0.9,0.1,1.2,0.4s0.4,0.6,0.4,1.1
				c0,0.4-0.1,0.7-0.3,1s-0.6,0.6-1.3,1L151,52c0.3-0.7,0.5-1.5,0.6-2.5h0.6c0,1.2-0.3,2.2-0.8,3C151.8,52.9,152.3,53.3,152.9,53.6z
				 M150.7,52.5l-2.1-2.4c-0.6,0.4-1,0.7-1.2,1s-0.3,0.6-0.3,1s0.2,0.8,0.5,1c0.3,0.3,0.7,0.4,1.3,0.4
				C149.6,53.5,150.2,53.1,150.7,52.5z M148.1,48.5c0.1,0.2,0.3,0.5,0.6,0.9c0.5-0.3,0.9-0.6,1.1-0.8c0.2-0.2,0.3-0.5,0.3-0.7
				c0-0.3-0.1-0.5-0.3-0.7s-0.4-0.3-0.7-0.3s-0.6,0.1-0.8,0.3c-0.2,0.2-0.3,0.5-0.3,0.8C148,48.1,148,48.3,148.1,48.5z"/>
			<path class="st1" d="M161,46.3v7.6h-0.6v-6.1l-2.7,6.1h-0.5l-2.7-6v6h-0.6v-7.6h0.5l3,6.8l3-6.8H161z"/>
			<path class="st1" d="M162.4,55.9c0.4-0.9,0.6-1.7,0.8-2.5s0.2-1.6,0.2-2.3c0-0.8-0.1-1.5-0.2-2.3c-0.2-0.8-0.4-1.6-0.8-2.5h0.6
				c0.4,0.8,0.7,1.6,0.9,2.4s0.3,1.6,0.3,2.4s-0.1,1.6-0.3,2.4s-0.5,1.6-0.9,2.4H162.4z"/>
			<path class="st1" d="M166.3,49.7l1.1-1.4l-1.7-0.5l0.2-0.5l1.6,0.6l-0.1-1.7h0.5v1.7l1.6-0.6l0.2,0.5l-1.7,0.5l1.1,1.4l-0.4,0.3
				l-1-1.4l-1,1.4L166.3,49.7z"/>
		</g>
	</g>
	<g class="st0">
		<path id="Path_1554_1_" class="st2" d="M162.1,89.2c0,4.5-3.6,8.1-8.1,8.1s-8.1-3.6-8.1-8.1s3.6-8.1,8.1-8.1
			S162.1,84.7,162.1,89.2z"/>
		<g id="Group_1434_1_" transform="translate(4.574 4.222)">
			<g id="arrow_1_" transform="translate(4.574 0)">
				<path id="arrow-2_1_" class="st3" d="M145,89.8c-0.2,0-0.5-0.1-0.6-0.3l-3.5-3.4c-0.3-0.3-0.4-0.8-0.1-1.2c0,0,0,0,0.1-0.1
					c0.3-0.3,0.9-0.3,1.2,0l0,0l2.9,2.8l2.9-2.8c0.3-0.3,0.9-0.3,1.2,0l0,0c0.3,0.3,0.4,0.8,0.1,1.2c0,0,0,0-0.1,0.1l-3.5,3.4
					C145.4,89.7,145.2,89.8,145,89.8z"/>
			</g>
			<path class="st3" d="M149.5,89c-0.6,0-1-0.4-1-1v-7.2c0-0.6,0.4-1,1-1s1,0.4,1,1V88C150.5,88.5,150,89,149.5,89z"/>
		</g>
	</g>
	<g class="st0">
		<polygon class="st4" points="56.7,38.6 56.7,36.4 54.1,36.4 		"/>
	</g>
	<g>
		<polygon class="st5" points="10,299 0,285.9 10,285.9 		"/>
		<polygon class="st5" points="310,299 320,285.9 310,285.9 		"/>
		<rect x="10" y="280.5" class="st6" width="300" height="18.4"/>
	</g>
	<g>
		<rect y="3.8" class="st3" width="320" height="282.3"/>
		<g>
			<g>
				<g>
					<path class="st5" d="M30.9,61.5c-0.4-0.2-0.7-0.5-0.9-0.8c-0.2-0.4-0.3-0.7-0.3-1.2c0-0.4,0.1-0.8,0.3-1.1
						c0.2-0.4,0.5-0.6,0.9-0.9c0.4-0.2,0.8-0.3,1.2-0.3c0.4,0,0.8,0.1,1.2,0.3c0.4,0.2,0.6,0.5,0.9,0.8c0.2,0.4,0.3,0.7,0.3,1.2
						c0,0.4-0.1,0.8-0.3,1.2c-0.2,0.4-0.5,0.6-0.9,0.8c-0.4,0.2-0.8,0.3-1.2,0.3C31.6,61.8,31.2,61.7,30.9,61.5z"/>
					<path class="st5" d="M32,61.9c-0.4,0-0.9-0.1-1.2-0.3c-0.4-0.2-0.7-0.5-0.9-0.9c-0.2-0.4-0.3-0.8-0.3-1.2
						c0-0.4,0.1-0.8,0.3-1.2c0.2-0.4,0.5-0.7,0.9-0.9c0.4-0.2,0.8-0.3,1.3-0.3c0.4,0,0.8,0.1,1.2,0.3c0.4,0.2,0.7,0.5,0.9,0.9
						s0.3,0.8,0.3,1.2c0,0.4-0.1,0.9-0.3,1.2c-0.2,0.4-0.5,0.7-0.9,0.9S32.5,61.9,32,61.9z M32,57.3c-0.4,0-0.8,0.1-1.1,0.3
						c-0.3,0.2-0.6,0.5-0.8,0.8c-0.2,0.3-0.3,0.7-0.3,1.1s0.1,0.8,0.3,1.1s0.5,0.6,0.8,0.8l0,0c0.7,0.4,1.5,0.4,2.2,0
						c0.3-0.2,0.6-0.5,0.8-0.8s0.3-0.7,0.3-1.1s-0.1-0.8-0.3-1.1c-0.2-0.3-0.5-0.6-0.8-0.8S32.4,57.3,32,57.3z"/>
				</g>
				<path class="st1" d="M60,60.5h-5L53.9,63h-0.8l4-9.2h0.7l4,9.2H61L60,60.5z M59.7,59.8l-2.2-5.1l-2.2,5.1H59.7z"/>
				<path class="st1" d="M68.9,56.5V63c0,0.9-0.2,1.6-0.7,2.1s-1.1,0.7-2.1,0.7s-1.8-0.2-2.5-0.7l0.2-0.7c0.4,0.2,0.8,0.4,1.2,0.5
					s0.8,0.2,1.2,0.2c0.6,0,1.1-0.2,1.5-0.5c0.3-0.4,0.5-0.9,0.5-1.5v-1.7c-0.2,0.4-0.5,0.8-0.9,1s-0.9,0.4-1.4,0.4
					c-0.6,0-1.1-0.1-1.5-0.4s-0.8-0.6-1-1.1s-0.4-1-0.4-1.7c0-0.6,0.1-1.2,0.4-1.7c0.2-0.5,0.6-0.9,1-1.1c0.4-0.3,0.9-0.4,1.5-0.4
					c0.5,0,1,0.1,1.4,0.3c0.4,0.2,0.7,0.6,0.9,1v-1.2L68.9,56.5L68.9,56.5z M67.5,61.4c0.4-0.4,0.6-1.1,0.6-1.8
					c0-0.8-0.2-1.4-0.6-1.9S66.6,57,65.9,57s-1.2,0.2-1.6,0.7s-0.6,1.1-0.6,1.9s0.2,1.4,0.6,1.8c0.4,0.4,0.9,0.7,1.6,0.7
					C66.6,62,67.1,61.8,67.5,61.4z"/>
				<path class="st1" d="M71.5,59.6L71.5,59.6c0,0.9,0.2,1.6,0.6,2c0.4,0.5,1,0.7,1.8,0.7s1.5-0.3,2.1-0.8l0.3,0.6
					c-0.3,0.3-0.6,0.5-1.1,0.6c-0.4,0.2-0.9,0.2-1.4,0.2c-1,0-1.8-0.3-2.3-0.9c-0.6-0.6-0.9-1.4-0.9-2.5c0-0.7,0.1-1.3,0.4-1.8
					s0.6-0.9,1.1-1.2c0.5-0.3,1-0.4,1.6-0.4c0.9,0,1.5,0.3,2,0.8c0.5,0.6,0.7,1.3,0.7,2.3v0.2h-4.9C71.5,59.4,71.5,59.6,71.5,59.6z
					 M72.3,57.5c-0.4,0.4-0.6,0.9-0.7,1.5h4.1c-0.1-0.7-0.2-1.2-0.6-1.5c-0.3-0.3-0.8-0.5-1.4-0.5C73.1,57,72.6,57.1,72.3,57.5z"/>
				<path class="st1" d="M83.5,58.8v4.1h-0.8v-4.1c0-0.6-0.1-1.1-0.4-1.4s-0.7-0.5-1.2-0.5c-0.6,0-1.2,0.2-1.6,0.6s-0.6,0.9-0.6,1.6
					v3.7h-0.8v-4.7c0-0.7,0-1.3-0.1-1.8h0.7l0.1,1.2c0.2-0.4,0.5-0.8,0.9-1s0.9-0.3,1.4-0.3C82.7,56.3,83.5,57.1,83.5,58.8z"/>
				<path class="st1" d="M86.7,62.6c-0.5-0.3-0.8-0.7-1.1-1.2c-0.2-0.5-0.4-1.1-0.4-1.8c0-0.7,0.1-1.3,0.4-1.8
					c0.2-0.5,0.6-0.9,1.1-1.2c0.5-0.3,1-0.4,1.6-0.4c0.4,0,0.9,0.1,1.3,0.2s0.7,0.4,1,0.6l-0.3,0.6c-0.3-0.3-0.7-0.5-1-0.6
					s-0.6-0.2-0.9-0.2c-0.7,0-1.2,0.2-1.7,0.7s-0.6,1.1-0.6,2c0,0.8,0.2,1.5,0.6,1.9s1,0.7,1.7,0.7c0.3,0,0.6-0.1,0.9-0.2
					s0.6-0.3,1-0.6l0.3,0.6c-0.3,0.3-0.6,0.5-1,0.6c-0.4,0.2-0.8,0.2-1.2,0.2C87.7,63,87.2,62.9,86.7,62.6z"/>
				<path class="st1" d="M97.6,56.5l-3,7.1c-0.3,0.7-0.7,1.2-1.1,1.6c-0.5,0.3-1,0.6-1.7,0.7l-0.2-0.6c0.6-0.1,1.1-0.3,1.4-0.6
					c0.3-0.2,0.6-0.6,0.8-1.1l0.3-0.6l-2.8-6.5h0.8l2.3,5.7l2.4-5.7L97.6,56.5L97.6,56.5z"/>
				<path class="st1" d="M109.5,62.9h-0.8l-1.1-3.1c-0.1-0.4-0.3-0.7-0.6-0.8c-0.3-0.1-0.6-0.2-1.1-0.2h-2.6v4.1h-0.8v-9.2h3.6
					c1,0,1.7,0.2,2.2,0.7c0.5,0.4,0.8,1.1,0.8,1.9c0,0.6-0.2,1.1-0.5,1.5s-0.8,0.7-1.3,0.9c0.3,0,0.5,0.2,0.7,0.3
					c0.2,0.2,0.3,0.4,0.5,0.8L109.5,62.9z M105.9,58.1c1.5,0,2.3-0.6,2.3-1.9c0-1.2-0.8-1.8-2.3-1.8h-2.7v3.7
					C103.2,58.1,105.9,58.1,105.9,58.1z"/>
				<path class="st1" d="M111.7,59.6L111.7,59.6c0,0.9,0.2,1.6,0.6,2c0.4,0.5,1,0.7,1.8,0.7s1.5-0.3,2.1-0.8l0.3,0.6
					c-0.3,0.3-0.6,0.5-1.1,0.6c-0.4,0.2-0.9,0.2-1.4,0.2c-1,0-1.8-0.3-2.3-0.9c-0.6-0.6-0.9-1.4-0.9-2.5c0-0.7,0.1-1.3,0.4-1.8
					s0.6-0.9,1.1-1.2c0.5-0.3,1-0.4,1.6-0.4c0.9,0,1.5,0.3,2,0.8c0.5,0.6,0.7,1.3,0.7,2.3v0.2h-4.9
					C111.7,59.4,111.7,59.6,111.7,59.6z M112.4,57.5c-0.4,0.4-0.6,0.9-0.7,1.5h4.1c-0.1-0.7-0.2-1.2-0.6-1.5
					c-0.3-0.3-0.8-0.5-1.4-0.5C113.3,57,112.8,57.1,112.4,57.5z"/>
				<path class="st1" d="M123.7,56.5l-2.8,6.5h-0.8l-2.7-6.5h0.8l2.3,5.7l2.4-5.7H123.7z"/>
				<path class="st1" d="M126,53.8v1h-1v-1H126z M125.1,56.5h0.8V63h-0.8V56.5z"/>
				<path class="st1" d="M128.5,59.6L128.5,59.6c0,0.9,0.2,1.6,0.6,2c0.4,0.5,1,0.7,1.8,0.7s1.5-0.3,2.1-0.8l0.3,0.6
					c-0.3,0.3-0.6,0.5-1.1,0.6c-0.4,0.2-0.9,0.2-1.4,0.2c-1,0-1.8-0.3-2.3-0.9c-0.6-0.6-0.9-1.4-0.9-2.5c0-0.7,0.1-1.3,0.4-1.8
					s0.6-0.9,1.1-1.2c0.5-0.3,1-0.4,1.6-0.4c0.9,0,1.5,0.3,2,0.8c0.5,0.6,0.7,1.3,0.7,2.3v0.2h-4.9L128.5,59.6L128.5,59.6z
					 M129.3,57.5c-0.4,0.4-0.6,0.9-0.7,1.5h4.1c-0.1-0.7-0.2-1.2-0.6-1.5c-0.3-0.3-0.8-0.5-1.4-0.5C130.1,57,129.6,57.1,129.3,57.5z
					"/>
				<path class="st1" d="M144.8,56.5l-2.4,6.5h-0.8l-2-5.5l-2,5.5h-0.8l-2.3-6.5h0.8l1.9,5.5l2-5.5h0.8l2,5.5l2-5.5H144.8z"/>
				<path class="st1" d="M150.7,62.6c-0.5-0.3-0.8-0.7-1-1.2s-0.4-1.1-0.4-1.8c0-0.7,0.1-1.3,0.4-1.8c0.2-0.5,0.6-0.9,1-1.2
					c0.5-0.3,1-0.4,1.6-0.4s1.1,0.1,1.5,0.4s0.8,0.7,1,1.2s0.4,1.1,0.4,1.8c0,0.7-0.1,1.3-0.4,1.8c-0.2,0.5-0.6,0.9-1,1.2
					c-0.4,0.3-1,0.4-1.5,0.4C151.7,63,151.1,62.9,150.7,62.6z M153.8,61.6c0.4-0.5,0.6-1.1,0.6-2c0-0.8-0.2-1.5-0.6-2
					c-0.4-0.5-0.9-0.7-1.6-0.7c-0.7,0-1.2,0.2-1.6,0.7s-0.6,1.1-0.6,2s0.2,1.5,0.6,2c0.4,0.5,0.9,0.7,1.6,0.7
					C152.9,62.3,153.5,62.1,153.8,61.6z"/>
				<path class="st1" d="M158.4,54.4c-0.2,0.2-0.3,0.6-0.3,1.1v1h1.7v0.6h-1.7v5.8h-0.8v-5.8H156v-0.6h1.3v-1.2
					c0-0.6,0.2-1.1,0.5-1.4s0.8-0.5,1.3-0.5c0.3,0,0.5,0,0.8,0.1v0.7c-0.2-0.1-0.5-0.1-0.7-0.1C158.9,54.1,158.6,54.2,158.4,54.4z"
					/>
				<path class="st1" d="M165.7,62.8c-0.6-0.2-1-0.5-1.5-0.9l0.3-0.6c0.5,0.4,0.9,0.7,1.4,0.9s1,0.3,1.7,0.3c0.8,0,1.4-0.2,1.8-0.5
					c0.4-0.3,0.6-0.8,0.6-1.3c0-0.3-0.1-0.6-0.3-0.8s-0.5-0.4-0.8-0.5s-0.8-0.2-1.3-0.4c-0.7-0.2-1.3-0.3-1.7-0.5s-0.8-0.4-1.1-0.8
					c-0.3-0.3-0.5-0.8-0.5-1.3s0.1-1,0.4-1.4c0.3-0.4,0.6-0.7,1.1-0.9c0.5-0.2,1.1-0.3,1.7-0.3c0.6,0,1.2,0.1,1.7,0.3s1,0.5,1.4,0.9
					l-0.3,0.6c-0.4-0.4-0.9-0.7-1.3-0.9c-0.4-0.2-0.9-0.3-1.5-0.3c-0.8,0-1.4,0.2-1.8,0.5c-0.4,0.3-0.7,0.8-0.7,1.4
					c0,0.5,0.2,0.9,0.6,1.1c0.4,0.2,0.9,0.5,1.7,0.6l0.4,0.1c0.7,0.2,1.2,0.3,1.6,0.5c0.4,0.2,0.7,0.4,1,0.7
					c0.3,0.3,0.4,0.7,0.4,1.2s-0.1,0.9-0.4,1.3c-0.3,0.4-0.6,0.7-1.1,0.9c-0.5,0.2-1.1,0.3-1.7,0.3C166.9,63,166.2,62.9,165.7,62.8z
					"/>
				<path class="st1" d="M173,59.6L173,59.6c0,0.9,0.2,1.6,0.6,2c0.4,0.5,1,0.7,1.8,0.7s1.5-0.3,2.1-0.8l0.3,0.6
					c-0.3,0.3-0.6,0.5-1.1,0.6c-0.4,0.2-0.9,0.2-1.4,0.2c-1,0-1.8-0.3-2.3-0.9c-0.6-0.6-0.9-1.4-0.9-2.5c0-0.7,0.1-1.3,0.4-1.8
					c0.3-0.5,0.6-0.9,1.1-1.2c0.5-0.3,1-0.4,1.6-0.4c0.9,0,1.5,0.3,2,0.8c0.5,0.6,0.7,1.3,0.7,2.3v0.2H173V59.6z M173.8,57.5
					c-0.4,0.4-0.6,0.9-0.7,1.5h4.1c-0.1-0.7-0.2-1.2-0.6-1.5c-0.3-0.3-0.8-0.5-1.4-0.5C174.6,57,174.1,57.1,173.8,57.5z"/>
				<path class="st1" d="M180.7,62.6c-0.5-0.3-0.8-0.7-1.1-1.2c-0.2-0.5-0.4-1.1-0.4-1.8c0-0.7,0.1-1.3,0.4-1.8
					c0.2-0.5,0.6-0.9,1.1-1.2c0.5-0.3,1-0.4,1.6-0.4c0.4,0,0.9,0.1,1.3,0.2s0.7,0.4,1,0.6l-0.3,0.6c-0.3-0.3-0.7-0.5-1-0.6
					s-0.6-0.2-0.9-0.2c-0.7,0-1.2,0.2-1.7,0.7s-0.6,1.1-0.6,2c0,0.8,0.2,1.5,0.6,1.9s1,0.7,1.7,0.7c0.3,0,0.6-0.1,0.9-0.2
					s0.6-0.3,1-0.6l0.3,0.6c-0.3,0.3-0.6,0.5-1,0.6c-0.4,0.2-0.8,0.2-1.2,0.2C181.7,63,181.2,62.9,180.7,62.6z"/>
				<path class="st1" d="M191.3,56.5V63h-0.8v-1.2c-0.2,0.4-0.5,0.7-0.9,0.9s-0.8,0.3-1.3,0.3c-0.8,0-1.3-0.2-1.7-0.6
					s-0.6-1-0.6-1.9v-4.1h0.8v4c0,0.6,0.1,1.1,0.4,1.4c0.3,0.3,0.7,0.5,1.2,0.5c0.6,0,1.1-0.2,1.5-0.6s0.6-0.9,0.6-1.6v-3.7
					L191.3,56.5L191.3,56.5z"/>
				<path class="st1" d="M196.8,56.4v0.7c-0.2,0-0.4-0.1-0.6-0.1c-0.7,0-1.1,0.2-1.5,0.6c-0.3,0.4-0.5,0.9-0.5,1.5v3.8h-0.8v-4.7
					c0-0.7,0-1.3-0.1-1.8h0.7l0.1,1.2c0.2-0.4,0.4-0.8,0.8-1c0.4-0.2,0.8-0.3,1.2-0.3C196.5,56.3,196.7,56.3,196.8,56.4z"/>
				<path class="st1" d="M199,53.8v1h-1v-1H199z M198.1,56.5h0.8V63h-0.8V56.5z"/>
				<path class="st1" d="M202.2,57.1v3.8c0,0.5,0.1,0.9,0.3,1.1s0.5,0.3,0.9,0.3c0.2,0,0.5,0,0.7-0.1v0.7c-0.3,0.1-0.6,0.1-0.8,0.1
					c-0.6,0-1-0.2-1.3-0.5s-0.5-0.8-0.5-1.4v-4h-1.3v-0.6h1.3v-1.7l0.8-0.3v2h1.9v0.6C204.2,57.1,202.2,57.1,202.2,57.1z"/>
				<path class="st1" d="M211,56.5l-3,7.1c-0.3,0.7-0.7,1.2-1.1,1.6c-0.5,0.3-1,0.6-1.7,0.7l-0.2-0.6c0.6-0.1,1.1-0.3,1.4-0.6
					c0.3-0.2,0.6-0.6,0.8-1.1l0.3-0.6l-2.8-6.5h0.8l2.3,5.7l2.4-5.7L211,56.5L211,56.5z"/>
				<path class="st1" d="M221.9,60.5h-5l-1.1,2.5H215l4-9.2h0.7l4,9.2h-0.8L221.9,60.5z M221.5,59.8l-2.2-5.1l-2.2,5.1H221.5z"/>
				<path class="st1" d="M230.4,56.5V63h-0.8v-1.2c-0.2,0.4-0.5,0.7-0.9,0.9s-0.8,0.3-1.3,0.3c-0.8,0-1.3-0.2-1.7-0.6
					s-0.6-1-0.6-1.9v-4.1h0.8v4c0,0.6,0.1,1.1,0.4,1.4c0.3,0.3,0.7,0.5,1.2,0.5c0.6,0,1.1-0.2,1.5-0.6s0.6-0.9,0.6-1.6v-3.7
					L230.4,56.5L230.4,56.5z"/>
				<path class="st1" d="M233.7,57.1v3.8c0,0.5,0.1,0.9,0.3,1.1s0.5,0.3,0.9,0.3c0.2,0,0.5,0,0.7-0.1v0.7c-0.3,0.1-0.6,0.1-0.8,0.1
					c-0.6,0-1-0.2-1.3-0.5s-0.5-0.8-0.5-1.4v-4h-1.3v-0.6h1.3v-1.7l0.8-0.3v2h1.9v0.6C235.7,57.1,233.7,57.1,233.7,57.1z"/>
				<path class="st1" d="M242.4,58.8v4.1h-0.8v-4.1c0-0.6-0.1-1.1-0.4-1.4c-0.3-0.3-0.7-0.5-1.2-0.5c-0.6,0-1.2,0.2-1.6,0.6
					c-0.4,0.4-0.6,0.9-0.6,1.6v3.7H237v-9.5h0.8v4.2c0.2-0.4,0.5-0.7,0.9-1c0.4-0.2,0.8-0.3,1.3-0.3
					C241.6,56.3,242.4,57.1,242.4,58.8z"/>
				<path class="st1" d="M245.6,62.6c-0.5-0.3-0.8-0.7-1-1.2s-0.4-1.1-0.4-1.8c0-0.7,0.1-1.3,0.4-1.8c0.2-0.5,0.6-0.9,1-1.2
					c0.5-0.3,1-0.4,1.6-0.4s1.1,0.1,1.5,0.4s0.8,0.7,1,1.2s0.4,1.1,0.4,1.8c0,0.7-0.1,1.3-0.4,1.8c-0.2,0.5-0.6,0.9-1,1.2
					c-0.4,0.3-1,0.4-1.5,0.4C246.5,63,246,62.9,245.6,62.6z M248.7,61.6c0.4-0.5,0.6-1.1,0.6-2c0-0.8-0.2-1.5-0.6-2
					s-0.9-0.7-1.6-0.7c-0.7,0-1.2,0.2-1.6,0.7c-0.4,0.5-0.6,1.1-0.6,2s0.2,1.5,0.6,2c0.4,0.5,0.9,0.7,1.6,0.7S248.3,62.1,248.7,61.6
					z"/>
				<path class="st1" d="M255.2,56.4v0.7c-0.2,0-0.4-0.1-0.6-0.1c-0.7,0-1.1,0.2-1.5,0.6c-0.3,0.4-0.5,0.9-0.5,1.5v3.8h-0.8v-4.7
					c0-0.7,0-1.3-0.1-1.8h0.7l0.1,1.2c0.2-0.4,0.4-0.8,0.8-1c0.4-0.2,0.8-0.3,1.2-0.3C254.9,56.3,255.1,56.3,255.2,56.4z"/>
				<path class="st1" d="M257.4,53.8v1h-1v-1H257.4z M256.4,56.5h0.8V63h-0.8V56.5z"/>
				<path class="st1" d="M264.4,62.3v0.6H259v-0.5l4.3-5.3h-4.1v-0.6h5.1v0.6l-4.2,5.2H264.4z"/>
				<path class="st1" d="M271.5,56.5V63h-0.8v-1.2c-0.2,0.4-0.5,0.8-0.9,1s-0.8,0.3-1.4,0.3s-1.1-0.1-1.5-0.4
					c-0.4-0.3-0.8-0.7-1-1.2s-0.4-1.1-0.4-1.8s0.1-1.3,0.4-1.8c0.2-0.5,0.6-0.9,1-1.2c0.4-0.3,0.9-0.4,1.5-0.4c0.5,0,1,0.1,1.4,0.3
					c0.4,0.2,0.7,0.6,0.9,1v-1.2L271.5,56.5L271.5,56.5z M270.2,61.6c0.4-0.5,0.6-1.1,0.6-2s-0.2-1.5-0.6-2s-0.9-0.7-1.6-0.7
					s-1.2,0.2-1.6,0.7s-0.6,1.1-0.6,2c0,0.8,0.2,1.5,0.6,1.9c0.4,0.5,0.9,0.7,1.6,0.7C269.3,62.3,269.8,62.1,270.2,61.6z"/>
				<path class="st1" d="M274.8,57.1v3.8c0,0.5,0.1,0.9,0.3,1.1c0.2,0.2,0.5,0.3,0.9,0.3c0.2,0,0.5,0,0.7-0.1v0.7
					c-0.3,0.1-0.6,0.1-0.8,0.1c-0.6,0-1-0.2-1.3-0.5s-0.5-0.8-0.5-1.4v-4h-1.3v-0.6h1.3v-1.7l0.8-0.3v2h1.9v0.6
					C276.8,57.1,274.8,57.1,274.8,57.1z"/>
				<path class="st1" d="M279.1,53.8v1h-1v-1H279.1z M278.2,56.5h0.8V63h-0.8V56.5z"/>
				<path class="st1" d="M282.2,62.6c-0.5-0.3-0.8-0.7-1-1.2s-0.4-1.1-0.4-1.8c0-0.7,0.1-1.3,0.4-1.8c0.2-0.5,0.6-0.9,1-1.2
					c0.5-0.3,1-0.4,1.6-0.4s1.1,0.1,1.5,0.4s0.8,0.7,1,1.2s0.4,1.1,0.4,1.8c0,0.7-0.1,1.3-0.4,1.8c-0.2,0.5-0.6,0.9-1,1.2
					c-0.4,0.3-1,0.4-1.5,0.4C283.1,63,282.6,62.9,282.2,62.6z M285.3,61.6c0.4-0.5,0.6-1.1,0.6-2c0-0.8-0.2-1.5-0.6-2
					s-0.9-0.7-1.6-0.7s-1.2,0.2-1.6,0.7s-0.6,1.1-0.6,2s0.2,1.5,0.6,2s0.9,0.7,1.6,0.7S284.9,62.1,285.3,61.6z"/>
				<path class="st1" d="M293.8,58.8v4.1H293v-4.1c0-0.6-0.1-1.1-0.4-1.4s-0.7-0.5-1.2-0.5c-0.6,0-1.2,0.2-1.6,0.6s-0.6,0.9-0.6,1.6
					v3.7h-0.8v-4.7c0-0.7,0-1.3-0.1-1.8h0.7l0.1,1.2c0.2-0.4,0.5-0.8,0.9-1s0.9-0.3,1.4-0.3C293.1,56.3,293.8,57.1,293.8,58.8z"/>
				<path class="st1" d="M54,69.9h3.5c0.9,0,1.6,0.2,2.2,0.7c0.5,0.4,0.8,1.1,0.8,1.8c0,0.8-0.3,1.4-0.8,1.9S58.4,75,57.5,75h-2.7
					v4.1H54V69.9z M57.5,74.3c0.7,0,1.3-0.2,1.6-0.5c0.4-0.3,0.6-0.8,0.6-1.4c0-0.6-0.2-1-0.6-1.4c-0.4-0.3-0.9-0.5-1.6-0.5h-2.7
					v3.7L57.5,74.3L57.5,74.3z"/>
				<path class="st1" d="M67.6,72.6v6.5h-0.8v-1.3c-0.2,0.4-0.5,0.8-0.9,1s-0.8,0.3-1.4,0.3S63.4,79,63,78.7c-0.4-0.3-0.8-0.7-1-1.2
					s-0.4-1.1-0.4-1.8s0.1-1.3,0.4-1.8c0.2-0.5,0.6-0.9,1-1.2s0.9-0.4,1.5-0.4c0.5,0,1,0.1,1.4,0.3s0.7,0.6,0.9,1v-1.2h0.8V72.6z
					 M66.2,77.8c0.4-0.5,0.6-1.1,0.6-2s-0.2-1.5-0.6-2s-0.9-0.7-1.6-0.7s-1.2,0.2-1.6,0.7s-0.6,1.1-0.6,2c0,0.8,0.2,1.5,0.6,1.9
					c0.4,0.5,0.9,0.7,1.6,0.7C65.3,78.5,65.9,78.2,66.2,77.8z"/>
				<path class="st1" d="M70.8,78.8c-0.5-0.3-0.8-0.7-1.1-1.2c-0.2-0.5-0.4-1.1-0.4-1.8s0.1-1.3,0.4-1.8c0.2-0.5,0.6-0.9,1.1-1.2
					s1-0.4,1.6-0.4c0.4,0,0.9,0.1,1.3,0.2s0.7,0.4,1,0.6l-0.3,0.6c-0.3-0.3-0.7-0.5-1-0.6S72.8,73,72.5,73c-0.7,0-1.2,0.2-1.7,0.7
					s-0.6,1.1-0.6,2c0,0.8,0.2,1.5,0.6,1.9s1,0.7,1.7,0.7c0.3,0,0.6-0.1,0.9-0.2s0.6-0.3,1-0.6l0.3,0.6c-0.3,0.3-0.6,0.5-1,0.6
					c-0.4,0.2-0.8,0.2-1.2,0.2C71.8,79.2,71.3,79,70.8,78.8z"/>
				<path class="st1" d="M80.5,79.1l-3.6-3.2v3.2h-0.8v-9.5h0.8v6l3.3-3h1l-3.4,3.1l3.7,3.4H80.5z"/>
				<path class="st1" d="M88,72.6v6.5h-0.8v-1.3c-0.2,0.4-0.5,0.8-0.9,1s-0.8,0.3-1.4,0.3s-1.1-0.1-1.5-0.4c-0.4-0.3-0.8-0.7-1-1.2
					S82,76.4,82,75.7s0.1-1.3,0.4-1.8c0.2-0.5,0.6-0.9,1-1.2s0.9-0.4,1.5-0.4c0.5,0,1,0.1,1.4,0.3s0.7,0.6,0.9,1v-1.2H88V72.6z
					 M86.7,77.8c0.4-0.5,0.6-1.1,0.6-2s-0.2-1.5-0.6-2s-0.9-0.7-1.6-0.7s-1.2,0.2-1.6,0.7s-0.6,1.1-0.6,2c0,0.8,0.2,1.5,0.6,1.9
					c0.4,0.5,0.9,0.7,1.6,0.7C85.8,78.5,86.3,78.2,86.7,77.8z"/>
				<path class="st1" d="M95.8,72.6v6.5c0,0.9-0.2,1.6-0.7,2.1S94,81.9,93,81.9s-1.8-0.2-2.5-0.7l0.2-0.7c0.4,0.2,0.8,0.4,1.2,0.5
					s0.8,0.2,1.2,0.2c0.6,0,1.1-0.2,1.5-0.5c0.3-0.4,0.5-0.9,0.5-1.5v-1.7c-0.2,0.4-0.5,0.8-0.9,1s-0.9,0.4-1.4,0.4
					c-0.6,0-1.1-0.1-1.5-0.4s-0.8-0.6-1-1.1s-0.4-1-0.4-1.7c0-0.6,0.1-1.2,0.4-1.7c0.2-0.5,0.6-0.9,1-1.1c0.4-0.3,0.9-0.4,1.5-0.4
					c0.5,0,1,0.1,1.4,0.3s0.7,0.6,0.9,1v-1.2L95.8,72.6L95.8,72.6z M94.4,77.5c0.4-0.4,0.6-1.1,0.6-1.8c0-0.8-0.2-1.4-0.6-1.9
					s-0.9-0.7-1.6-0.7s-1.2,0.2-1.6,0.7s-0.6,1.1-0.6,1.9s0.2,1.4,0.6,1.8c0.4,0.4,0.9,0.7,1.6,0.7S94,78,94.4,77.5z"/>
				<path class="st1" d="M98.4,75.7L98.4,75.7c0,0.9,0.2,1.6,0.6,2c0.4,0.5,1,0.7,1.8,0.7s1.5-0.3,2.1-0.8l0.3,0.6
					c-0.3,0.3-0.6,0.5-1.1,0.6c-0.4,0.2-0.9,0.2-1.4,0.2c-1,0-1.8-0.3-2.3-0.9c-0.6-0.6-0.9-1.4-0.9-2.5c0-0.7,0.1-1.3,0.4-1.8
					s0.6-0.9,1.1-1.2s1-0.4,1.6-0.4c0.9,0,1.5,0.3,2,0.8c0.5,0.6,0.7,1.3,0.7,2.3v0.2h-4.9C98.4,75.5,98.4,75.7,98.4,75.7z
					 M99.1,73.6c-0.4,0.4-0.6,0.9-0.7,1.5h4.1c-0.1-0.7-0.2-1.2-0.6-1.5c-0.3-0.3-0.8-0.5-1.4-0.5C100,73.1,99.5,73.3,99.1,73.6z"/>
				<g>
					<path class="st5" d="M30.9,101.8c-0.4-0.2-0.7-0.5-0.9-0.8c-0.2-0.4-0.3-0.7-0.3-1.2c0-0.4,0.1-0.8,0.3-1.1
						c0.2-0.4,0.5-0.6,0.9-0.9c0.4-0.2,0.8-0.3,1.2-0.3c0.4,0,0.8,0.1,1.2,0.3s0.6,0.5,0.9,0.8c0.2,0.4,0.3,0.7,0.3,1.2
						c0,0.4-0.1,0.8-0.3,1.2s-0.5,0.6-0.9,0.8s-0.8,0.3-1.2,0.3C31.6,102.1,31.2,102,30.9,101.8z"/>
					<path class="st5" d="M32,102.3c-0.4,0-0.9-0.1-1.2-0.3c-0.4-0.2-0.7-0.5-0.9-0.9c-0.2-0.4-0.3-0.8-0.3-1.2s0.1-0.8,0.3-1.2
						c0.2-0.4,0.5-0.7,0.9-0.9s0.8-0.3,1.3-0.3c0.4,0,0.8,0.1,1.2,0.3s0.7,0.5,0.9,0.9s0.3,0.8,0.3,1.2s-0.1,0.9-0.3,1.2
						c-0.2,0.4-0.5,0.7-0.9,0.9S32.5,102.3,32,102.3z M32,97.6c-0.4,0-0.8,0.1-1.1,0.3c-0.3,0.2-0.6,0.5-0.8,0.8
						c-0.2,0.3-0.3,0.7-0.3,1.1c0,0.4,0.1,0.8,0.3,1.1s0.5,0.6,0.8,0.8l0,0c0.7,0.4,1.5,0.4,2.2,0c0.3-0.2,0.6-0.5,0.8-0.8
						s0.3-0.7,0.3-1.1c0-0.4-0.1-0.8-0.3-1.1s-0.5-0.6-0.8-0.8C32.8,97.7,32.4,97.6,32,97.6z"/>
				</g>
				<path class="st1" d="M55,103.1c-0.6-0.2-1-0.5-1.5-0.9l0.3-0.6c0.5,0.4,0.9,0.7,1.4,0.9s1,0.3,1.7,0.3c0.8,0,1.4-0.2,1.8-0.5
					c0.4-0.3,0.6-0.8,0.6-1.3c0-0.3-0.1-0.6-0.3-0.8s-0.5-0.4-0.8-0.5s-0.8-0.2-1.3-0.4c-0.7-0.2-1.3-0.3-1.7-0.5s-0.8-0.4-1.1-0.8
					c-0.3-0.3-0.5-0.8-0.5-1.3s0.1-1,0.4-1.4c0.3-0.4,0.6-0.7,1.1-0.9s1.1-0.3,1.7-0.3c0.6,0,1.2,0.1,1.7,0.3s1,0.5,1.4,0.9
					l-0.3,0.6c-0.4-0.4-0.9-0.7-1.3-0.9c-0.4-0.2-0.9-0.3-1.5-0.3c-0.8,0-1.4,0.2-1.8,0.5c-0.4,0.3-0.7,0.8-0.7,1.4
					c0,0.5,0.2,0.9,0.6,1.1c0.4,0.2,0.9,0.5,1.7,0.6l0.4,0.1c0.7,0.2,1.2,0.3,1.6,0.5c0.4,0.2,0.7,0.4,1,0.7s0.4,0.7,0.4,1.2
					s-0.1,0.9-0.4,1.3c-0.3,0.4-0.6,0.7-1.1,0.9s-1.1,0.3-1.7,0.3C56.1,103.4,55.5,103.3,55,103.1z"/>
				<path class="st1" d="M68,100.8h-5l-1.1,2.5h-0.8l4-9.2h0.7l4,9.2H69L68,100.8z M67.7,100.1L65.5,95l-2.2,5.1H67.7z"/>
				<path class="st1" d="M78.5,103.3h-0.8l-1.1-3.1c-0.1-0.4-0.3-0.7-0.6-0.8c-0.3-0.1-0.6-0.2-1.1-0.2h-2.6v4.1h-0.8v-9.2H75
					c1,0,1.7,0.2,2.2,0.7c0.5,0.4,0.8,1.1,0.8,1.9c0,0.6-0.2,1.1-0.5,1.5s-0.8,0.7-1.3,0.9c0.3,0,0.5,0.2,0.7,0.3
					c0.2,0.2,0.3,0.4,0.5,0.8L78.5,103.3z M74.9,98.5c1.5,0,2.3-0.6,2.3-1.9c0-1.2-0.8-1.8-2.3-1.8h-2.7v3.7H74.9z"/>
				<path class="st1" d="M83.7,94.1h3c1.5,0,2.6,0.4,3.4,1.2s1.2,1.9,1.2,3.4s-0.4,2.6-1.2,3.4s-1.9,1.2-3.4,1.2h-3V94.1z
					 M86.7,102.6c1.2,0,2.2-0.3,2.8-1c0.6-0.7,0.9-1.6,0.9-2.9c0-2.6-1.3-3.9-3.8-3.9h-2.1v7.8L86.7,102.6L86.7,102.6z"/>
				<path class="st1" d="M93.6,100L93.6,100c0,0.9,0.2,1.6,0.6,2c0.4,0.5,1,0.7,1.8,0.7s1.5-0.3,2.1-0.8l0.3,0.6
					c-0.3,0.3-0.6,0.5-1.1,0.6c-0.4,0.2-0.9,0.2-1.4,0.2c-1,0-1.8-0.3-2.3-0.9c-0.6-0.6-0.9-1.4-0.9-2.5c0-0.7,0.1-1.3,0.4-1.8
					s0.6-0.9,1.1-1.2s1-0.4,1.6-0.4c0.9,0,1.5,0.3,2,0.8c0.5,0.6,0.7,1.3,0.7,2.3v0.2h-4.9C93.6,99.8,93.6,100,93.6,100z M94.4,97.9
					c-0.4,0.4-0.6,0.9-0.7,1.5h4.1c-0.1-0.7-0.2-1.2-0.6-1.5c-0.3-0.3-0.8-0.5-1.4-0.5C95.2,97.3,94.8,97.5,94.4,97.9z"/>
				<path class="st1" d="M104.8,97.1c0.4,0.3,0.8,0.7,1,1.2s0.4,1.1,0.4,1.8s-0.1,1.3-0.4,1.8c-0.2,0.5-0.6,0.9-1,1.2
					s-0.9,0.4-1.5,0.4c-0.5,0-1-0.1-1.4-0.3s-0.7-0.6-0.9-1v1.3h-0.8v-9.7h0.8V98c0.2-0.4,0.5-0.8,0.9-1s0.8-0.3,1.4-0.3
					S104.4,96.8,104.8,97.1z M104.8,102c0.4-0.5,0.6-1.1,0.6-2c0-0.8-0.2-1.5-0.6-2s-0.9-0.7-1.6-0.7s-1.2,0.2-1.6,0.7
					s-0.6,1.1-0.6,2s0.2,1.5,0.6,2s0.9,0.7,1.6,0.7S104.4,102.4,104.8,102z"/>
				<path class="st1" d="M111.4,96.7v0.7c-0.2,0-0.4-0.1-0.6-0.1c-0.7,0-1.1,0.2-1.5,0.6c-0.3,0.4-0.5,0.9-0.5,1.5v3.8H108v-4.7
					c0-0.7,0-1.3-0.1-1.8h0.7l0.1,1.2c0.2-0.4,0.4-0.8,0.8-1s0.8-0.3,1.2-0.3C111,96.7,111.2,96.7,111.4,96.7z"/>
				<path class="st1" d="M113.5,94.2v1h-1v-1H113.5z M112.6,96.8h0.8v6.5h-0.8V96.8z"/>
				<path class="st1" d="M116,100L116,100c0,0.9,0.2,1.6,0.6,2c0.4,0.5,1,0.7,1.8,0.7s1.5-0.3,2.1-0.8l0.3,0.6
					c-0.3,0.3-0.6,0.5-1.1,0.6c-0.4,0.2-0.9,0.2-1.4,0.2c-1,0-1.8-0.3-2.3-0.9c-0.6-0.6-0.9-1.4-0.9-2.5c0-0.7,0.1-1.3,0.4-1.8
					s0.6-0.9,1.1-1.2s1-0.4,1.6-0.4c0.9,0,1.5,0.3,2,0.8c0.5,0.6,0.7,1.3,0.7,2.3v0.2H116V100z M116.7,97.9
					c-0.4,0.4-0.6,0.9-0.7,1.5h4.1c-0.1-0.7-0.2-1.2-0.6-1.5c-0.3-0.3-0.8-0.5-1.4-0.5C117.6,97.3,117.1,97.5,116.7,97.9z"/>
				<path class="st1" d="M124,94.7c-0.2,0.2-0.3,0.6-0.3,1.1v1h1.7v0.6h-1.7v5.8H123v-5.8h-1.3v-0.6h1.3v-1.2c0-0.6,0.2-1.1,0.5-1.4
					c0.3-0.3,0.8-0.5,1.3-0.5c0.3,0,0.5,0,0.8,0.1v0.7c-0.2-0.1-0.5-0.1-0.7-0.1C124.5,94.4,124.2,94.5,124,94.7z"/>
				<g>
					<path class="st5" d="M30.9,126.1c-0.4-0.2-0.7-0.5-0.9-0.8c-0.2-0.4-0.3-0.7-0.3-1.2c0-0.4,0.1-0.8,0.3-1.1
						c0.2-0.4,0.5-0.6,0.9-0.9c0.4-0.2,0.8-0.3,1.2-0.3c0.4,0,0.8,0.1,1.2,0.3s0.6,0.5,0.9,0.8c0.2,0.4,0.3,0.7,0.3,1.2
						c0,0.4-0.1,0.8-0.3,1.2s-0.5,0.6-0.9,0.8s-0.8,0.3-1.2,0.3C31.6,126.4,31.2,126.3,30.9,126.1z"/>
					<path class="st5" d="M32,126.5c-0.4,0-0.9-0.1-1.2-0.3c-0.4-0.2-0.7-0.5-0.9-0.9c-0.2-0.4-0.3-0.8-0.3-1.2s0.1-0.8,0.3-1.2
						c0.2-0.4,0.5-0.7,0.9-0.9s0.8-0.3,1.3-0.3c0.4,0,0.8,0.1,1.2,0.3s0.7,0.5,0.9,0.9s0.3,0.8,0.3,1.2s-0.1,0.9-0.3,1.2
						c-0.2,0.4-0.5,0.7-0.9,0.9S32.5,126.5,32,126.5z M32,121.9c-0.4,0-0.8,0.1-1.1,0.3c-0.3,0.2-0.6,0.5-0.8,0.8
						c-0.2,0.3-0.3,0.7-0.3,1.1c0,0.4,0.1,0.8,0.3,1.1s0.5,0.6,0.8,0.8l0,0c0.7,0.4,1.5,0.4,2.2,0c0.3-0.2,0.6-0.5,0.8-0.8
						s0.3-0.7,0.3-1.1c0-0.4-0.1-0.8-0.3-1.1s-0.5-0.6-0.8-0.8C32.8,122,32.4,121.9,32,121.9z"/>
				</g>
				<path class="st1" d="M61.1,127.5h-0.8l-1.1-3.1c-0.1-0.4-0.3-0.7-0.6-0.8s-0.6-0.2-1.1-0.2h-2.6v4.1H54v-9.2h3.6
					c1,0,1.7,0.2,2.2,0.7c0.5,0.4,0.8,1.1,0.8,1.9c0,0.6-0.2,1.1-0.5,1.5s-0.8,0.7-1.3,0.9c0.3,0,0.5,0.2,0.7,0.3
					c0.2,0.2,0.3,0.4,0.5,0.8L61.1,127.5z M57.5,122.7c1.5,0,2.3-0.6,2.3-1.9c0-1.2-0.8-1.8-2.3-1.8h-2.7v3.7H57.5z"/>
				<path class="st1" d="M63.3,124.2L63.3,124.2c0,0.9,0.2,1.6,0.6,2c0.4,0.5,1,0.7,1.8,0.7s1.5-0.3,2.1-0.8l0.3,0.6
					c-0.3,0.3-0.6,0.5-1.1,0.6c-0.4,0.2-0.9,0.2-1.4,0.2c-1,0-1.8-0.3-2.3-0.9c-0.6-0.6-0.9-1.4-0.9-2.5c0-0.7,0.1-1.3,0.4-1.8
					c0.3-0.5,0.6-0.9,1.1-1.2c0.5-0.3,1-0.4,1.6-0.4c0.9,0,1.5,0.3,2,0.8c0.5,0.6,0.7,1.3,0.7,2.3v0.2h-4.9
					C63.3,124,63.3,124.2,63.3,124.2z M64,122.1c-0.4,0.4-0.6,0.9-0.7,1.5h4.1c-0.1-0.7-0.2-1.2-0.6-1.5c-0.3-0.3-0.8-0.5-1.4-0.5
					C64.9,121.5,64.4,121.7,64,122.1z"/>
				<path class="st1" d="M79,123.4v4.1h-0.8v-4.1c0-0.7-0.1-1.1-0.3-1.4c-0.2-0.3-0.6-0.4-1.1-0.4c-0.6,0-1.1,0.2-1.4,0.6
					c-0.3,0.4-0.5,0.9-0.5,1.6v3.7h-0.8v-4.1c0-0.7-0.1-1.1-0.4-1.4c-0.2-0.3-0.6-0.4-1.1-0.4c-0.6,0-1.1,0.2-1.4,0.6
					c-0.3,0.4-0.5,0.9-0.5,1.6v3.7h-0.8v-4.7c0-0.7,0-1.3-0.1-1.8h0.7l0.1,1.2c0.2-0.4,0.4-0.8,0.8-1s0.8-0.3,1.2-0.3
					c1,0,1.7,0.4,2,1.3c0.2-0.4,0.5-0.7,0.8-0.9c0.4-0.2,0.8-0.3,1.3-0.3C78.3,120.9,79,121.7,79,123.4z"/>
				<path class="st1" d="M81.6,124.2L81.6,124.2c0,0.9,0.2,1.6,0.6,2c0.4,0.5,1,0.7,1.8,0.7s1.5-0.3,2.1-0.8l0.3,0.6
					c-0.3,0.3-0.6,0.5-1.1,0.6c-0.4,0.2-0.9,0.2-1.4,0.2c-1,0-1.8-0.3-2.3-0.9c-0.6-0.6-0.9-1.4-0.9-2.5c0-0.7,0.1-1.3,0.4-1.8
					s0.6-0.9,1.1-1.2s1-0.4,1.6-0.4c0.9,0,1.5,0.3,2,0.8c0.5,0.6,0.7,1.3,0.7,2.3v0.2h-4.9C81.6,124,81.6,124.2,81.6,124.2z
					 M82.4,122.1c-0.4,0.4-0.6,0.9-0.7,1.5h4.1c-0.1-0.7-0.2-1.2-0.6-1.5c-0.3-0.3-0.8-0.5-1.4-0.5
					C83.2,121.5,82.7,121.7,82.4,122.1z"/>
				<path class="st1" d="M93.8,118v9.5H93v-1.2c-0.2,0.4-0.5,0.8-0.9,1s-0.8,0.3-1.4,0.3s-1.1-0.1-1.5-0.4c-0.4-0.3-0.8-0.7-1-1.2
					s-0.4-1.1-0.4-1.8s0.1-1.3,0.4-1.8s0.6-0.9,1-1.2s0.9-0.4,1.5-0.4c0.5,0,1,0.1,1.4,0.3s0.7,0.6,0.9,1v-4.2L93.8,118L93.8,118z
					 M92.4,126.2c0.4-0.5,0.6-1.1,0.6-2c0-0.8-0.2-1.5-0.6-2s-0.9-0.7-1.6-0.7s-1.2,0.2-1.6,0.7s-0.6,1.1-0.6,2c0,0.8,0.2,1.5,0.6,2
					s0.9,0.7,1.6,0.7S92.1,126.7,92.4,126.2z"/>
				<path class="st1" d="M96.9,118.4v1h-1v-1H96.9z M96,121h0.8v6.5H96V121z"/>
				<path class="st1" d="M104.5,121v6.5h-0.8v-1.2c-0.2,0.4-0.5,0.8-0.9,1s-0.8,0.3-1.4,0.3s-1.1-0.1-1.5-0.4
					c-0.4-0.3-0.8-0.7-1-1.2s-0.4-1.1-0.4-1.8s0.1-1.3,0.4-1.8c0.2-0.5,0.6-0.9,1-1.2s0.9-0.4,1.5-0.4c0.5,0,1,0.1,1.4,0.3
					s0.7,0.6,0.9,1v-1.2L104.5,121L104.5,121z M103.1,126.2c0.4-0.5,0.6-1.1,0.6-2s-0.2-1.5-0.6-2s-0.9-0.7-1.6-0.7
					s-1.2,0.2-1.6,0.7s-0.6,1.1-0.6,2c0,0.8,0.2,1.5,0.6,1.9c0.4,0.5,0.9,0.7,1.6,0.7C102.2,126.9,102.8,126.7,103.1,126.2z"/>
				<path class="st1" d="M107.8,121.7v3.8c0,0.5,0.1,0.9,0.3,1.1c0.2,0.2,0.5,0.3,0.9,0.3c0.2,0,0.5,0,0.7-0.1v0.7
					c-0.3,0.1-0.6,0.1-0.8,0.1c-0.6,0-1-0.2-1.3-0.5s-0.5-0.8-0.5-1.4v-4h-1.3v-0.6h1.3v-1.7l0.8-0.3v2h1.9v0.6L107.8,121.7
					L107.8,121.7z"/>
				<path class="st1" d="M112,118.4v1h-1v-1H112z M111.1,121h0.8v6.5h-0.8V121z"/>
				<path class="st1" d="M115.1,127.2c-0.5-0.3-0.8-0.7-1-1.2s-0.4-1.1-0.4-1.8s0.1-1.3,0.4-1.8c0.2-0.5,0.6-0.9,1-1.2
					c0.5-0.3,1-0.4,1.6-0.4s1.1,0.1,1.5,0.4c0.4,0.3,0.8,0.7,1,1.2s0.4,1.1,0.4,1.8s-0.1,1.3-0.4,1.8c-0.2,0.5-0.6,0.9-1,1.2
					s-1,0.4-1.5,0.4C116.1,127.6,115.6,127.5,115.1,127.2z M118.3,126.2c0.4-0.5,0.6-1.1,0.6-2c0-0.8-0.2-1.5-0.6-2
					s-0.9-0.7-1.6-0.7s-1.2,0.2-1.6,0.7s-0.6,1.1-0.6,2s0.2,1.5,0.6,2s0.9,0.7,1.6,0.7C117.4,126.9,117.9,126.7,118.3,126.2z"/>
				<path class="st1" d="M126.8,123.4v4.1H126v-4.1c0-0.6-0.1-1.1-0.4-1.4c-0.3-0.3-0.7-0.5-1.2-0.5c-0.6,0-1.2,0.2-1.6,0.6
					c-0.4,0.4-0.6,0.9-0.6,1.6v3.7h-0.8v-4.6c0-0.7,0-1.3-0.1-1.8h0.7l0.1,1.2c0.2-0.4,0.5-0.8,0.9-1s0.9-0.3,1.4-0.3
					C126,120.9,126.8,121.7,126.8,123.4z"/>
				<g>
					<path class="st5" d="M30.9,150.3c-0.4-0.2-0.7-0.5-0.9-0.8c-0.2-0.4-0.3-0.7-0.3-1.2c0-0.4,0.1-0.8,0.3-1.1
						c0.2-0.4,0.5-0.6,0.9-0.9c0.4-0.2,0.8-0.3,1.2-0.3c0.4,0,0.8,0.1,1.2,0.3s0.6,0.5,0.9,0.8c0.2,0.4,0.3,0.7,0.3,1.2
						c0,0.4-0.1,0.8-0.3,1.2s-0.5,0.6-0.9,0.8s-0.8,0.3-1.2,0.3C31.6,150.6,31.2,150.5,30.9,150.3z"/>
					<path class="st5" d="M32,150.7c-0.4,0-0.9-0.1-1.2-0.3c-0.4-0.2-0.7-0.5-0.9-0.9c-0.2-0.4-0.3-0.8-0.3-1.2s0.1-0.8,0.3-1.2
						c0.2-0.4,0.5-0.7,0.9-0.9s0.8-0.3,1.3-0.3c0.4,0,0.8,0.1,1.2,0.3s0.7,0.5,0.9,0.9s0.3,0.8,0.3,1.2s-0.1,0.9-0.3,1.2
						c-0.2,0.4-0.5,0.7-0.9,0.9S32.5,150.7,32,150.7z M32,146.1c-0.4,0-0.8,0.1-1.1,0.3c-0.3,0.2-0.6,0.5-0.8,0.8
						c-0.2,0.3-0.3,0.7-0.3,1.1c0,0.4,0.1,0.8,0.3,1.1s0.5,0.6,0.8,0.8l0,0c0.7,0.4,1.5,0.4,2.2,0c0.3-0.2,0.6-0.5,0.8-0.8
						s0.3-0.7,0.3-1.1c0-0.4-0.1-0.8-0.3-1.1s-0.5-0.6-0.8-0.8C32.8,146.2,32.4,146.1,32,146.1z"/>
				</g>
				<path class="st1" d="M60,149.3h-5l-1.1,2.5h-0.8l4-9.2h0.7l4,9.2H61L60,149.3z M59.7,148.6l-2.2-5.1l-2.2,5.1H59.7z"/>
				<path class="st1" d="M68.9,145.2v6.5c0,0.9-0.2,1.6-0.7,2.1s-1.1,0.7-2.1,0.7s-1.8-0.2-2.5-0.7l0.2-0.7c0.4,0.2,0.8,0.4,1.2,0.5
					s0.8,0.2,1.2,0.2c0.6,0,1.1-0.2,1.5-0.5c0.3-0.4,0.5-0.9,0.5-1.5v-1.7c-0.2,0.4-0.5,0.8-0.9,1s-0.9,0.4-1.4,0.4
					c-0.6,0-1.1-0.1-1.5-0.4s-0.8-0.6-1-1.1s-0.4-1-0.4-1.7c0-0.6,0.1-1.2,0.4-1.7c0.2-0.5,0.6-0.9,1-1.1c0.4-0.3,0.9-0.4,1.5-0.4
					c0.5,0,1,0.1,1.4,0.3s0.7,0.6,0.9,1v-1.2L68.9,145.2L68.9,145.2z M67.5,150.1c0.4-0.4,0.6-1.1,0.6-1.8c0-0.8-0.2-1.4-0.6-1.9
					s-0.9-0.7-1.6-0.7s-1.2,0.2-1.6,0.7s-0.6,1.1-0.6,1.9s0.2,1.4,0.6,1.8c0.4,0.4,0.9,0.7,1.6,0.7S67.1,150.6,67.5,150.1z"/>
				<path class="st1" d="M71.5,148.4L71.5,148.4c0,0.9,0.2,1.6,0.6,2c0.4,0.5,1,0.7,1.8,0.7s1.5-0.3,2.1-0.8l0.3,0.6
					c-0.3,0.3-0.6,0.5-1.1,0.6c-0.4,0.2-0.9,0.2-1.4,0.2c-1,0-1.8-0.3-2.3-0.9c-0.6-0.6-0.9-1.4-0.9-2.5c0-0.7,0.1-1.3,0.4-1.8
					s0.6-0.9,1.1-1.2s1-0.4,1.6-0.4c0.9,0,1.5,0.3,2,0.8c0.5,0.6,0.7,1.3,0.7,2.3v0.2h-4.9C71.5,148.2,71.5,148.4,71.5,148.4z
					 M72.3,146.3c-0.4,0.4-0.6,0.9-0.7,1.5h4.1c-0.1-0.7-0.2-1.2-0.6-1.5c-0.3-0.3-0.8-0.5-1.4-0.5
					C73.1,145.7,72.6,145.9,72.3,146.3z"/>
				<path class="st1" d="M83.5,147.6v4.1h-0.8v-4.1c0-0.6-0.1-1.1-0.4-1.4c-0.3-0.3-0.7-0.5-1.2-0.5c-0.6,0-1.2,0.2-1.6,0.6
					c-0.4,0.4-0.6,0.9-0.6,1.6v3.7h-0.8v-4.7c0-0.7,0-1.3-0.1-1.8h0.7l0.1,1.2c0.2-0.4,0.5-0.8,0.9-1s0.9-0.3,1.4-0.3
					C82.7,145.1,83.5,145.9,83.5,147.6z"/>
				<path class="st1" d="M86.7,151.4c-0.5-0.3-0.8-0.7-1.1-1.2c-0.2-0.5-0.4-1.1-0.4-1.8s0.1-1.3,0.4-1.8c0.2-0.5,0.6-0.9,1.1-1.2
					s1-0.4,1.6-0.4c0.4,0,0.9,0.1,1.3,0.2s0.7,0.4,1,0.6l-0.3,0.6c-0.3-0.3-0.7-0.5-1-0.6s-0.6-0.2-0.9-0.2c-0.7,0-1.2,0.2-1.7,0.7
					s-0.6,1.1-0.6,2c0,0.8,0.2,1.5,0.6,1.9s1,0.7,1.7,0.7c0.3,0,0.6-0.1,0.9-0.2s0.6-0.3,1-0.6l0.3,0.6c-0.3,0.3-0.6,0.5-1,0.6
					c-0.4,0.2-0.8,0.2-1.2,0.2C87.7,151.8,87.2,151.7,86.7,151.4z"/>
				<path class="st1" d="M97.6,145.2l-3,7.1c-0.3,0.7-0.7,1.2-1.1,1.6c-0.5,0.3-1,0.6-1.7,0.7l-0.2-0.6c0.6-0.1,1.1-0.3,1.4-0.6
					c0.3-0.2,0.6-0.6,0.8-1.1l0.3-0.6l-2.8-6.5h0.8l2.3,5.7l2.4-5.7L97.6,145.2L97.6,145.2z"/>
				<path class="st1" d="M102.4,142.5h5.5v0.7h-4.7v3.5h4.5v0.7h-4.5v4.3h-0.8V142.5z"/>
				<path class="st1" d="M110.5,142.6v1h-1v-1H110.5z M109.6,145.2h0.8v6.5h-0.8V145.2z"/>
				<path class="st1" d="M117.9,147.6v4.1h-0.8v-4.1c0-0.6-0.1-1.1-0.4-1.4c-0.3-0.3-0.7-0.5-1.2-0.5c-0.6,0-1.2,0.2-1.6,0.6
					c-0.4,0.4-0.6,0.9-0.6,1.6v3.7h-0.8v-4.7c0-0.7,0-1.3-0.1-1.8h0.7l0.1,1.2c0.2-0.4,0.5-0.8,0.9-1s0.9-0.3,1.4-0.3
					C117.1,145.1,117.9,145.9,117.9,147.6z"/>
				<path class="st1" d="M125.6,145.2v6.5h-0.8v-1.2c-0.2,0.4-0.5,0.8-0.9,1s-0.8,0.3-1.4,0.3s-1.1-0.1-1.5-0.4
					c-0.4-0.3-0.8-0.7-1-1.2s-0.4-1.1-0.4-1.8s0.1-1.3,0.4-1.8c0.2-0.5,0.6-0.9,1-1.2s0.9-0.4,1.5-0.4c0.5,0,1,0.1,1.4,0.3
					s0.7,0.6,0.9,1v-1.2L125.6,145.2L125.6,145.2z M124.3,150.4c0.4-0.5,0.6-1.1,0.6-2s-0.2-1.5-0.6-2s-0.9-0.7-1.6-0.7
					s-1.2,0.2-1.6,0.7s-0.6,1.1-0.6,2c0,0.8,0.2,1.5,0.6,1.9c0.4,0.5,0.9,0.7,1.6,0.7C123.4,151.1,123.9,150.9,124.3,150.4z"/>
				<path class="st1" d="M127.8,142.2h0.8v9.5h-0.8V142.2z"/>
				<path class="st1" d="M141.4,151.7h-0.8l-1.1-3.1c-0.1-0.4-0.3-0.7-0.6-0.8s-0.6-0.2-1.1-0.2h-2.6v4.1h-0.8v-9.2h3.6
					c1,0,1.7,0.2,2.2,0.7c0.5,0.4,0.8,1.1,0.8,1.9c0,0.6-0.2,1.1-0.5,1.5s-0.8,0.7-1.3,0.9c0.3,0,0.5,0.2,0.7,0.3
					c0.2,0.2,0.3,0.4,0.5,0.8L141.4,151.7z M137.8,146.9c1.5,0,2.3-0.6,2.3-1.9c0-1.2-0.8-1.8-2.3-1.8h-2.7v3.7H137.8z"/>
				<path class="st1" d="M143.5,148.4L143.5,148.4c0,0.9,0.2,1.6,0.6,2c0.4,0.5,1,0.7,1.8,0.7s1.5-0.3,2.1-0.8l0.3,0.6
					c-0.3,0.3-0.6,0.5-1.1,0.6c-0.4,0.2-0.9,0.2-1.4,0.2c-1,0-1.8-0.3-2.3-0.9c-0.6-0.6-0.9-1.4-0.9-2.5c0-0.7,0.1-1.3,0.4-1.8
					c0.3-0.5,0.6-0.9,1.1-1.2s1-0.4,1.6-0.4c0.9,0,1.5,0.3,2,0.8c0.5,0.6,0.7,1.3,0.7,2.3v0.2h-4.9L143.5,148.4L143.5,148.4z
					 M144.3,146.3c-0.4,0.4-0.6,0.9-0.7,1.5h4.1c-0.1-0.7-0.2-1.2-0.6-1.5c-0.3-0.3-0.8-0.5-1.4-0.5
					C145.1,145.7,144.6,145.9,144.3,146.3z"/>
				<path class="st1" d="M155.6,145.2l-2.8,6.5H152l-2.7-6.5h0.8l2.3,5.7l2.4-5.7H155.6z"/>
				<path class="st1" d="M157.9,142.6v1h-1v-1H157.9z M157,145.2h0.8v6.5H157V145.2z"/>
				<path class="st1" d="M160.4,148.4L160.4,148.4c0,0.9,0.2,1.6,0.6,2c0.4,0.5,1,0.7,1.8,0.7s1.5-0.3,2.1-0.8l0.3,0.6
					c-0.3,0.3-0.6,0.5-1.1,0.6c-0.4,0.2-0.9,0.2-1.4,0.2c-1,0-1.8-0.3-2.3-0.9c-0.6-0.6-0.9-1.4-0.9-2.5c0-0.7,0.1-1.3,0.4-1.8
					c0.3-0.5,0.6-0.9,1.1-1.2s1-0.4,1.6-0.4c0.9,0,1.5,0.3,2,0.8c0.5,0.6,0.7,1.3,0.7,2.3v0.2h-4.9L160.4,148.4L160.4,148.4z
					 M161.1,146.3c-0.4,0.4-0.6,0.9-0.7,1.5h4.1c-0.1-0.7-0.2-1.2-0.6-1.5c-0.3-0.3-0.8-0.5-1.4-0.5
					C162,145.7,161.5,145.9,161.1,146.3z"/>
				<path class="st1" d="M176.6,145.2l-2.4,6.5h-0.8l-2-5.5l-2,5.5h-0.8l-2.3-6.5h0.8l1.9,5.5l2-5.5h0.8l2,5.5l2-5.5H176.6z"/>
				<g>
					<path class="st5" d="M30.9,174.5c-0.4-0.2-0.7-0.5-0.9-0.8c-0.2-0.4-0.3-0.7-0.3-1.2c0-0.4,0.1-0.8,0.3-1.1
						c0.2-0.4,0.5-0.6,0.9-0.9c0.4-0.2,0.8-0.3,1.2-0.3c0.4,0,0.8,0.1,1.2,0.3s0.6,0.5,0.9,0.8c0.2,0.4,0.3,0.7,0.3,1.2
						c0,0.4-0.1,0.8-0.3,1.2s-0.5,0.6-0.9,0.8s-0.8,0.3-1.2,0.3C31.6,174.8,31.2,174.7,30.9,174.5z"/>
					<path class="st5" d="M32,174.9c-0.4,0-0.9-0.1-1.2-0.3c-0.4-0.2-0.7-0.5-0.9-0.9c-0.2-0.4-0.3-0.8-0.3-1.2s0.1-0.8,0.3-1.2
						c0.2-0.4,0.5-0.7,0.9-0.9s0.8-0.3,1.3-0.3c0.4,0,0.8,0.1,1.2,0.3s0.7,0.5,0.9,0.9s0.3,0.8,0.3,1.2s-0.1,0.9-0.3,1.2
						c-0.2,0.4-0.5,0.7-0.9,0.9S32.5,174.9,32,174.9z M32,170.3c-0.4,0-0.8,0.1-1.1,0.3c-0.3,0.2-0.6,0.5-0.8,0.8
						c-0.2,0.3-0.3,0.7-0.3,1.1c0,0.4,0.1,0.8,0.3,1.1s0.5,0.6,0.8,0.8l0,0c0.7,0.4,1.5,0.4,2.2,0c0.3-0.2,0.6-0.5,0.8-0.8
						s0.3-0.7,0.3-1.1c0-0.4-0.1-0.8-0.3-1.1s-0.5-0.6-0.8-0.8S32.4,170.3,32,170.3z"/>
				</g>
				<path class="st1" d="M60,173.5h-5l-1.1,2.5h-0.8l4-9.2h0.7l4,9.2H61L60,173.5z M59.7,172.8l-2.2-5.1l-2.2,5.1H59.7z"/>
				<path class="st1" d="M68.9,169.5v6.5c0,0.9-0.2,1.6-0.7,2.1s-1.1,0.7-2.1,0.7s-1.8-0.2-2.5-0.7l0.2-0.7c0.4,0.2,0.8,0.4,1.2,0.5
					s0.8,0.2,1.2,0.2c0.6,0,1.1-0.2,1.5-0.5c0.3-0.4,0.5-0.9,0.5-1.5v-1.7c-0.2,0.4-0.5,0.8-0.9,1s-0.9,0.4-1.4,0.4
					c-0.6,0-1.1-0.1-1.5-0.4s-0.8-0.6-1-1.1s-0.4-1-0.4-1.7c0-0.6,0.1-1.2,0.4-1.7c0.2-0.5,0.6-0.9,1-1.1c0.4-0.3,0.9-0.4,1.5-0.4
					c0.5,0,1,0.1,1.4,0.3s0.7,0.6,0.9,1v-1.2L68.9,169.5L68.9,169.5z M67.5,174.4c0.4-0.4,0.6-1.1,0.6-1.8c0-0.8-0.2-1.4-0.6-1.9
					s-0.9-0.7-1.6-0.7s-1.2,0.2-1.6,0.7s-0.6,1.1-0.6,1.9s0.2,1.4,0.6,1.8c0.4,0.4,0.9,0.7,1.6,0.7C66.6,175,67.1,174.8,67.5,174.4z
					"/>
				<path class="st1" d="M71.5,172.6L71.5,172.6c0,0.9,0.2,1.6,0.6,2c0.4,0.5,1,0.7,1.8,0.7s1.5-0.3,2.1-0.8l0.3,0.6
					c-0.3,0.3-0.6,0.5-1.1,0.6c-0.4,0.2-0.9,0.2-1.4,0.2c-1,0-1.8-0.3-2.3-0.9c-0.6-0.6-0.9-1.4-0.9-2.5c0-0.7,0.1-1.3,0.4-1.8
					s0.6-0.9,1.1-1.2s1-0.4,1.6-0.4c0.9,0,1.5,0.3,2,0.8c0.5,0.6,0.7,1.3,0.7,2.3v0.2h-4.9C71.5,172.4,71.5,172.6,71.5,172.6z
					 M72.3,170.5c-0.4,0.4-0.6,0.9-0.7,1.5h4.1c-0.1-0.7-0.2-1.2-0.6-1.5c-0.3-0.3-0.8-0.5-1.4-0.5C73.1,170,72.6,170.1,72.3,170.5z
					"/>
				<path class="st1" d="M83.5,171.8v4.1h-0.8v-4.1c0-0.6-0.1-1.1-0.4-1.4c-0.3-0.3-0.7-0.5-1.2-0.5c-0.6,0-1.2,0.2-1.6,0.6
					c-0.4,0.4-0.6,0.9-0.6,1.6v3.7h-0.8v-4.7c0-0.7,0-1.3-0.1-1.8h0.7l0.1,1.2c0.2-0.4,0.5-0.8,0.9-1s0.9-0.3,1.4-0.3
					C82.7,169.3,83.5,170.1,83.5,171.8z"/>
				<path class="st1" d="M86.7,175.6c-0.5-0.3-0.8-0.7-1.1-1.2c-0.2-0.5-0.4-1.1-0.4-1.8s0.1-1.3,0.4-1.8c0.2-0.5,0.6-0.9,1.1-1.2
					s1-0.4,1.6-0.4c0.4,0,0.9,0.1,1.3,0.2s0.7,0.4,1,0.6l-0.3,0.6c-0.3-0.3-0.7-0.5-1-0.6s-0.6-0.2-0.9-0.2c-0.7,0-1.2,0.2-1.7,0.7
					s-0.6,1.1-0.6,2c0,0.8,0.2,1.5,0.6,1.9s1,0.7,1.7,0.7c0.3,0,0.6-0.1,0.9-0.2s0.6-0.3,1-0.6l0.3,0.6c-0.3,0.3-0.6,0.5-1,0.6
					c-0.4,0.2-0.8,0.2-1.2,0.2C87.7,176,87.2,175.9,86.7,175.6z"/>
				<path class="st1" d="M97.6,169.5l-3,7.1c-0.3,0.7-0.7,1.2-1.1,1.6c-0.5,0.3-1,0.6-1.7,0.7l-0.2-0.6c0.6-0.1,1.1-0.3,1.4-0.6
					c0.3-0.2,0.6-0.6,0.8-1.1l0.3-0.6l-2.8-6.5h0.8l2.3,5.7l2.4-5.7L97.6,169.5L97.6,169.5z"/>
				<path class="st1" d="M102.4,166.7h0.8v9.2h-0.8V166.7z"/>
				<path class="st1" d="M105.2,175.2l0.3-0.6c0.3,0.3,0.7,0.5,1,0.6s0.8,0.2,1.2,0.2c0.5,0,0.9-0.1,1.2-0.3
					c0.3-0.2,0.4-0.5,0.4-0.8s-0.1-0.5-0.3-0.7c-0.2-0.2-0.5-0.3-0.9-0.4L107,173c-0.5-0.1-0.9-0.3-1.2-0.6
					c-0.3-0.3-0.4-0.7-0.4-1.1c0-0.6,0.2-1,0.7-1.4c0.4-0.3,1-0.5,1.7-0.5c0.5,0,0.9,0.1,1.3,0.2c0.4,0.1,0.7,0.4,1,0.6l-0.3,0.6
					c-0.6-0.5-1.2-0.8-1.9-0.8c-0.5,0-0.9,0.1-1.2,0.3c-0.3,0.2-0.4,0.5-0.4,0.8s0.1,0.5,0.3,0.7c0.2,0.2,0.4,0.3,0.8,0.4l1.1,0.3
					c1.2,0.3,1.7,0.8,1.7,1.7c0,0.5-0.2,1-0.7,1.3c-0.4,0.3-1.1,0.5-1.8,0.5C106.6,176,105.8,175.7,105.2,175.2z"/>
				<path class="st1" d="M111.6,175.2l0.3-0.6c0.3,0.3,0.7,0.5,1,0.6s0.8,0.2,1.2,0.2c0.5,0,0.9-0.1,1.2-0.3
					c0.3-0.2,0.4-0.5,0.4-0.8s-0.1-0.5-0.3-0.7c-0.2-0.2-0.5-0.3-0.9-0.4l-1.1-0.2c-0.5-0.1-0.9-0.3-1.2-0.6
					c-0.3-0.3-0.4-0.7-0.4-1.1c0-0.6,0.2-1,0.7-1.4c0.4-0.3,1-0.5,1.7-0.5c0.5,0,0.9,0.1,1.3,0.2c0.4,0.1,0.7,0.4,1,0.6l-0.3,0.6
					c-0.6-0.5-1.2-0.8-1.9-0.8c-0.5,0-0.9,0.1-1.2,0.3c-0.3,0.2-0.4,0.5-0.4,0.8s0.1,0.5,0.3,0.7c0.2,0.2,0.4,0.3,0.8,0.4l1.1,0.3
					c1.2,0.3,1.7,0.8,1.7,1.7c0,0.5-0.2,1-0.7,1.3c-0.4,0.3-1.1,0.5-1.8,0.5C113,176,112.2,175.7,111.6,175.2z"/>
				<path class="st1" d="M123.6,169.5v6.5h-0.8v-1.2c-0.2,0.4-0.5,0.7-0.9,0.9s-0.8,0.3-1.3,0.3c-0.8,0-1.3-0.2-1.7-0.6
					c-0.4-0.4-0.6-1-0.6-1.9v-4.1h0.8v4c0,0.6,0.1,1.1,0.4,1.4c0.3,0.3,0.7,0.5,1.2,0.5c0.6,0,1.1-0.2,1.5-0.6s0.6-0.9,0.6-1.6v-3.7
					h0.8V169.5z"/>
				<path class="st1" d="M126.3,172.6L126.3,172.6c0,0.9,0.2,1.6,0.6,2c0.4,0.5,1,0.7,1.8,0.7c0.8,0,1.5-0.3,2.1-0.8l0.3,0.6
					c-0.3,0.3-0.6,0.5-1.1,0.6c-0.4,0.2-0.9,0.2-1.4,0.2c-1,0-1.8-0.3-2.3-0.9c-0.6-0.6-0.9-1.4-0.9-2.5c0-0.7,0.1-1.3,0.4-1.8
					s0.6-0.9,1.1-1.2s1-0.4,1.6-0.4c0.9,0,1.5,0.3,2,0.8c0.5,0.6,0.7,1.3,0.7,2.3v0.2h-4.9C126.3,172.4,126.3,172.6,126.3,172.6z
					 M127,170.5c-0.4,0.4-0.6,0.9-0.7,1.5h4.1c-0.1-0.7-0.2-1.2-0.6-1.5c-0.3-0.3-0.8-0.5-1.4-0.5C127.9,170,127.4,170.1,127,170.5z
					"/>
				<path class="st1" d="M132.5,175.2l0.3-0.6c0.3,0.3,0.7,0.5,1,0.6s0.8,0.2,1.2,0.2c0.5,0,0.9-0.1,1.2-0.3s0.4-0.5,0.4-0.8
					s-0.1-0.5-0.3-0.7s-0.5-0.3-0.9-0.4l-1.1-0.2c-0.5-0.1-0.9-0.3-1.2-0.6s-0.4-0.7-0.4-1.1c0-0.6,0.2-1,0.7-1.4
					c0.4-0.3,1-0.5,1.7-0.5c0.5,0,0.9,0.1,1.3,0.2c0.4,0.1,0.7,0.4,1,0.6l-0.3,0.6c-0.6-0.5-1.2-0.8-1.9-0.8c-0.5,0-0.9,0.1-1.2,0.3
					s-0.4,0.5-0.4,0.8s0.1,0.5,0.3,0.7s0.4,0.3,0.8,0.4l1.1,0.3c1.2,0.3,1.7,0.8,1.7,1.7c0,0.5-0.2,1-0.7,1.3
					c-0.4,0.3-1.1,0.5-1.8,0.5C134,176,133.1,175.7,132.5,175.2z"/>
				<path class="st1" d="M148.8,173.5h-5l-1.1,2.5H142l4-9.2h0.7l4,9.2h-0.8L148.8,173.5z M148.5,172.8l-2.2-5.1l-2.2,5.1H148.5z"/>
				<path class="st1" d="M153.5,167.4h-3.3v-0.7h7.4v0.7h-3.3v8.5h-0.8L153.5,167.4L153.5,167.4z"/>
				<path class="st1" d="M160,175.5c-0.6-0.4-1.1-0.9-1.4-1.6s-0.5-1.5-0.5-2.5s0.2-1.8,0.5-2.5s0.8-1.2,1.4-1.6
					c0.6-0.4,1.3-0.6,2.2-0.6c0.8,0,1.6,0.2,2.2,0.6c0.6,0.4,1.1,0.9,1.4,1.6c0.3,0.7,0.5,1.5,0.5,2.5s-0.2,1.8-0.5,2.5
					s-0.8,1.3-1.4,1.6c-0.6,0.4-1.3,0.6-2.2,0.6C161.3,176,160.6,175.8,160,175.5z M164.6,174.3c0.6-0.7,0.9-1.7,0.9-3
					s-0.3-2.3-0.9-2.9c-0.6-0.7-1.4-1-2.4-1s-1.8,0.3-2.4,1c-0.6,0.7-0.9,1.7-0.9,2.9s0.3,2.2,0.9,3c0.6,0.7,1.4,1.1,2.4,1.1
					C163.2,175.3,164,175,164.6,174.3z"/>
				<g>
					<path class="st5" d="M30.9,198.7c-0.4-0.2-0.7-0.5-0.9-0.8c-0.2-0.4-0.3-0.7-0.3-1.2c0-0.4,0.1-0.8,0.3-1.1
						c0.2-0.4,0.5-0.6,0.9-0.9c0.4-0.2,0.8-0.3,1.2-0.3c0.4,0,0.8,0.1,1.2,0.3c0.4,0.2,0.6,0.5,0.9,0.8c0.2,0.4,0.3,0.7,0.3,1.2
						c0,0.4-0.1,0.8-0.3,1.2c-0.2,0.4-0.5,0.6-0.9,0.8c-0.4,0.2-0.8,0.3-1.2,0.3C31.6,199,31.2,198.9,30.9,198.7z"/>
					<path class="st5" d="M32,199.1c-0.4,0-0.9-0.1-1.2-0.3c-0.4-0.2-0.7-0.5-0.9-0.9c-0.2-0.4-0.3-0.8-0.3-1.2
						c0-0.4,0.1-0.8,0.3-1.2c0.2-0.4,0.5-0.7,0.9-0.9c0.4-0.2,0.8-0.3,1.3-0.3c0.4,0,0.8,0.1,1.2,0.3c0.4,0.2,0.7,0.5,0.9,0.9
						s0.3,0.8,0.3,1.2c0,0.4-0.1,0.9-0.3,1.2c-0.2,0.4-0.5,0.7-0.9,0.9S32.5,199.1,32,199.1z M32,194.5c-0.4,0-0.8,0.1-1.1,0.3
						c-0.3,0.2-0.6,0.5-0.8,0.8c-0.2,0.3-0.3,0.7-0.3,1.1s0.1,0.8,0.3,1.1s0.5,0.6,0.8,0.8l0,0c0.7,0.4,1.5,0.4,2.2,0
						c0.3-0.2,0.6-0.5,0.8-0.8s0.3-0.7,0.3-1.1s-0.1-0.8-0.3-1.1c-0.2-0.3-0.5-0.6-0.8-0.8C32.8,194.6,32.4,194.5,32,194.5z"/>
				</g>
				<path class="st1" d="M54,190.9h5.5v0.7h-4.7v3.5h4.5v0.7h-4.5v4.3H54V190.9z"/>
				<path class="st1" d="M61.5,196.8L61.5,196.8c0,0.9,0.2,1.6,0.6,2c0.4,0.5,1,0.7,1.8,0.7s1.5-0.3,2.1-0.8l0.3,0.6
					c-0.3,0.3-0.6,0.5-1.1,0.6c-0.4,0.2-0.9,0.2-1.4,0.2c-1,0-1.8-0.3-2.3-0.9c-0.6-0.6-0.9-1.4-0.9-2.5c0-0.7,0.1-1.3,0.4-1.8
					c0.3-0.5,0.6-0.9,1.1-1.2c0.5-0.3,1-0.4,1.6-0.4c0.9,0,1.5,0.3,2,0.8c0.5,0.6,0.7,1.3,0.7,2.3v0.2h-4.9
					C61.5,196.6,61.5,196.8,61.5,196.8z M62.2,194.7c-0.4,0.4-0.6,0.9-0.7,1.5h4.1c-0.1-0.7-0.2-1.2-0.6-1.5
					c-0.3-0.3-0.8-0.5-1.4-0.5C63.1,194.2,62.6,194.3,62.2,194.7z"/>
				<path class="st1" d="M73.6,190.6v9.5h-0.8v-1.2c-0.2,0.4-0.5,0.8-0.9,1s-0.8,0.3-1.4,0.3s-1.1-0.1-1.5-0.4s-0.8-0.7-1-1.2
					s-0.4-1.1-0.4-1.8s0.1-1.3,0.4-1.8s0.6-0.9,1-1.2c0.4-0.3,0.9-0.4,1.5-0.4c0.5,0,1,0.1,1.4,0.3c0.4,0.2,0.7,0.6,0.9,1v-4.2h0.8
					V190.6z M72.3,198.8c0.4-0.5,0.6-1.1,0.6-2c0-0.8-0.2-1.5-0.6-2s-0.9-0.7-1.6-0.7s-1.2,0.2-1.6,0.7s-0.6,1.1-0.6,2
					c0,0.8,0.2,1.5,0.6,2s0.9,0.7,1.6,0.7S71.9,199.3,72.3,198.8z"/>
				<path class="st1" d="M83,200.1h-0.8l-1.1-3.1c-0.1-0.4-0.3-0.7-0.6-0.8c-0.3-0.1-0.6-0.2-1.1-0.2h-2.6v4.1H76v-9.2h3.6
					c1,0,1.7,0.2,2.2,0.7c0.5,0.4,0.8,1.1,0.8,1.9c0,0.6-0.2,1.1-0.5,1.5s-0.8,0.7-1.3,0.9c0.3,0,0.5,0.2,0.7,0.3
					c0.2,0.2,0.3,0.4,0.5,0.8L83,200.1z M79.4,195.3c1.5,0,2.3-0.6,2.3-1.9c0-1.2-0.8-1.8-2.3-1.8h-2.7v3.7L79.4,195.3L79.4,195.3z"
					/>
				<path class="st1" d="M90.8,197.7h-5l-1.1,2.5H84l4-9.2h0.7l4,9.2h-0.8L90.8,197.7z M90.5,197l-2.2-5.1l-2.2,5.1H90.5z"/>
				<path class="st1" d="M102.8,190.9v9.2h-0.7v-7.3l-3.2,7.4h-0.6l-3.3-7.4v7.3h-0.7v-9.2H95l3.6,8.2l3.6-8.2L102.8,190.9
					L102.8,190.9z"/>
				<path class="st1" d="M105.3,190.9h3.5c0.9,0,1.6,0.2,2.2,0.7c0.5,0.4,0.8,1.1,0.8,1.8c0,0.8-0.3,1.4-0.8,1.9s-1.3,0.7-2.2,0.7
					h-2.7v4.1h-0.8V190.9z M108.8,195.3c0.7,0,1.3-0.2,1.6-0.5c0.4-0.3,0.6-0.8,0.6-1.4s-0.2-1-0.6-1.4c-0.4-0.3-0.9-0.5-1.6-0.5
					h-2.7v3.7L108.8,195.3L108.8,195.3z"/>
				<path class="st1" d="M117,190.9h3.5c0.9,0,1.6,0.2,2.2,0.7c0.5,0.4,0.8,1.1,0.8,1.8c0,0.8-0.3,1.4-0.8,1.9s-1.3,0.7-2.2,0.7
					h-2.7v4.1H117V190.9z M120.5,195.3c0.7,0,1.3-0.2,1.6-0.5c0.4-0.3,0.6-0.8,0.6-1.4s-0.2-1-0.6-1.4c-0.4-0.3-0.9-0.5-1.6-0.5
					h-2.7v3.7L120.5,195.3L120.5,195.3z"/>
				<path class="st1" d="M134,190.9v9.2h-0.7v-7.3l-3.2,7.4h-0.6l-3.3-7.3v7.3h-0.7V191h0.7l3.6,8.2l3.6-8.2L134,190.9L134,190.9z"
					/>
				<path class="st1" d="M138,199.7c-0.6-0.4-1.1-0.9-1.4-1.6s-0.5-1.5-0.5-2.5s0.2-1.8,0.5-2.5s0.8-1.2,1.4-1.6
					c0.6-0.4,1.3-0.6,2.2-0.6c0.8,0,1.6,0.2,2.2,0.6c0.6,0.4,1.1,0.9,1.4,1.6c0.3,0.7,0.5,1.5,0.5,2.5s-0.2,1.8-0.5,2.5
					s-0.8,1.3-1.4,1.6c-0.6,0.4-1.3,0.6-2.2,0.6C139.3,200.2,138.6,200.1,138,199.7z M142.6,198.5c0.6-0.7,0.9-1.7,0.9-3
					s-0.3-2.3-0.9-2.9c-0.6-0.7-1.4-1-2.4-1s-1.8,0.3-2.4,1c-0.6,0.7-0.9,1.7-0.9,2.9s0.3,2.2,0.9,3c0.6,0.7,1.4,1.1,2.4,1.1
					C141.2,199.5,142,199.2,142.6,198.5z"/>
				<path class="st1" d="M156.8,200.1H156l-1.1-3.1c-0.1-0.4-0.3-0.7-0.6-0.8c-0.3-0.1-0.6-0.2-1.1-0.2h-2.6v4.1h-0.8v-9.2h3.6
					c1,0,1.7,0.2,2.2,0.7c0.5,0.4,0.8,1.1,0.8,1.9c0,0.6-0.2,1.1-0.5,1.5s-0.8,0.7-1.3,0.9c0.3,0,0.5,0.2,0.7,0.3
					c0.2,0.2,0.3,0.4,0.5,0.8L156.8,200.1z M153.2,195.3c1.5,0,2.3-0.6,2.3-1.9c0-1.2-0.8-1.8-2.3-1.8h-2.7v3.7L153.2,195.3
					L153.2,195.3z"/>
				<path class="st1" d="M159,196.8L159,196.8c0,0.9,0.2,1.6,0.6,2c0.4,0.5,1,0.7,1.8,0.7s1.5-0.3,2.1-0.8l0.3,0.6
					c-0.3,0.3-0.6,0.5-1.1,0.6c-0.4,0.2-0.9,0.2-1.4,0.2c-1,0-1.8-0.3-2.3-0.9c-0.6-0.6-0.9-1.4-0.9-2.5c0-0.7,0.1-1.3,0.4-1.8
					c0.3-0.5,0.6-0.9,1.1-1.2c0.5-0.3,1-0.4,1.6-0.4c0.9,0,1.5,0.3,2,0.8c0.5,0.6,0.7,1.3,0.7,2.3v0.2H159V196.8z M159.7,194.7
					c-0.4,0.4-0.6,0.9-0.7,1.5h4.1c-0.1-0.7-0.2-1.2-0.6-1.5c-0.3-0.3-0.8-0.5-1.4-0.5C160.6,194.2,160.1,194.3,159.7,194.7z"/>
				<path class="st1" d="M171,193.7l-2.8,6.5h-0.8l-2.7-6.5h0.8l2.3,5.7l2.4-5.7H171z"/>
				<path class="st1" d="M173.3,191v1h-1v-1H173.3z M172.4,193.7h0.8v6.5h-0.8V193.7z"/>
				<path class="st1" d="M175.8,196.8L175.8,196.8c0,0.9,0.2,1.6,0.6,2c0.4,0.5,1,0.7,1.8,0.7s1.5-0.3,2.1-0.8l0.3,0.6
					c-0.3,0.3-0.6,0.5-1.1,0.6c-0.4,0.2-0.9,0.2-1.4,0.2c-1,0-1.8-0.3-2.3-0.9c-0.6-0.6-0.9-1.4-0.9-2.5c0-0.7,0.1-1.3,0.4-1.8
					c0.3-0.5,0.6-0.9,1.1-1.2c0.5-0.3,1-0.4,1.6-0.4c0.9,0,1.5,0.3,2,0.8c0.5,0.6,0.7,1.3,0.7,2.3v0.2h-4.9L175.8,196.8L175.8,196.8
					z M176.6,194.7c-0.4,0.4-0.6,0.9-0.7,1.5h4.1c-0.1-0.7-0.2-1.2-0.6-1.5c-0.3-0.3-0.8-0.5-1.4-0.5
					C177.4,194.2,176.9,194.3,176.6,194.7z"/>
				<path class="st1" d="M192.1,193.7l-2.4,6.5h-0.8l-2-5.5l-2,5.5h-0.8l-2.3-6.5h0.8l1.9,5.5l2-5.5h0.8l2,5.5l2-5.5H192.1z"/>
				<g>
					<path class="st5" d="M30.9,222.9c-0.4-0.2-0.7-0.5-0.9-0.8c-0.2-0.4-0.3-0.7-0.3-1.2c0-0.4,0.1-0.8,0.3-1.1
						c0.2-0.4,0.5-0.6,0.9-0.9c0.4-0.2,0.8-0.3,1.2-0.3c0.4,0,0.8,0.1,1.2,0.3c0.4,0.2,0.6,0.5,0.9,0.8c0.2,0.4,0.3,0.7,0.3,1.2
						c0,0.4-0.1,0.8-0.3,1.2c-0.2,0.4-0.5,0.6-0.9,0.8c-0.4,0.2-0.8,0.3-1.2,0.3C31.6,223.2,31.2,223.1,30.9,222.9z"/>
					<path class="st5" d="M32,223.3c-0.4,0-0.9-0.1-1.2-0.3c-0.4-0.2-0.7-0.5-0.9-0.9c-0.2-0.4-0.3-0.8-0.3-1.2
						c0-0.4,0.1-0.8,0.3-1.2c0.2-0.4,0.5-0.7,0.9-0.9c0.4-0.2,0.8-0.3,1.3-0.3c0.4,0,0.8,0.1,1.2,0.3c0.4,0.2,0.7,0.5,0.9,0.9
						s0.3,0.8,0.3,1.2c0,0.4-0.1,0.9-0.3,1.2c-0.2,0.4-0.5,0.7-0.9,0.9S32.5,223.3,32,223.3z M32,218.7c-0.4,0-0.8,0.1-1.1,0.3
						c-0.3,0.2-0.6,0.5-0.8,0.8c-0.2,0.3-0.3,0.7-0.3,1.1s0.1,0.8,0.3,1.1s0.5,0.6,0.8,0.8l0,0c0.7,0.4,1.5,0.4,2.2,0
						c0.3-0.2,0.6-0.5,0.8-0.8s0.3-0.7,0.3-1.1s-0.1-0.8-0.3-1.1c-0.2-0.3-0.5-0.6-0.8-0.8S32.4,218.7,32,218.7z"/>
				</g>
				<path class="st1" d="M61.1,224.4h-0.8l-1.1-3.1c-0.1-0.4-0.3-0.7-0.6-0.8c-0.3-0.1-0.6-0.2-1.1-0.2h-2.6v4.1H54v-9.2h3.6
					c1,0,1.7,0.2,2.2,0.7c0.5,0.4,0.8,1.1,0.8,1.9c0,0.6-0.2,1.1-0.5,1.5s-0.8,0.7-1.3,0.9c0.3,0,0.5,0.2,0.7,0.3
					c0.2,0.2,0.3,0.4,0.5,0.8L61.1,224.4z M57.5,219.6c1.5,0,2.3-0.6,2.3-1.9c0-1.2-0.8-1.8-2.3-1.8h-2.7v3.7L57.5,219.6L57.5,219.6
					z"/>
				<path class="st1" d="M63.3,221L63.3,221c0,0.9,0.2,1.6,0.6,2c0.4,0.5,1,0.7,1.8,0.7s1.5-0.3,2.1-0.8l0.3,0.6
					c-0.3,0.3-0.6,0.5-1.1,0.6c-0.4,0.2-0.9,0.2-1.4,0.2c-1,0-1.8-0.3-2.3-0.9c-0.6-0.6-0.9-1.4-0.9-2.5c0-0.7,0.1-1.3,0.4-1.8
					c0.3-0.5,0.6-0.9,1.1-1.2c0.5-0.3,1-0.4,1.6-0.4c0.9,0,1.5,0.3,2,0.8c0.5,0.6,0.7,1.3,0.7,2.3v0.2h-4.9
					C63.3,220.8,63.3,221,63.3,221z M64,218.9c-0.4,0.4-0.6,0.9-0.7,1.5h4.1c-0.1-0.7-0.2-1.2-0.6-1.5c-0.3-0.3-0.8-0.5-1.4-0.5
					C64.9,218.4,64.4,218.6,64,218.9z"/>
				<path class="st1" d="M79,220.2v4.1h-0.8v-4.1c0-0.7-0.1-1.1-0.3-1.4c-0.2-0.3-0.6-0.4-1.1-0.4c-0.6,0-1.1,0.2-1.4,0.6
					s-0.5,0.9-0.5,1.6v3.7h-0.8v-4.1c0-0.7-0.1-1.1-0.4-1.4c-0.2-0.3-0.6-0.4-1.1-0.4c-0.6,0-1.1,0.2-1.4,0.6s-0.5,0.9-0.5,1.6v3.7
					h-0.8v-4.7c0-0.7,0-1.3-0.1-1.8h0.7l0.1,1.2c0.2-0.4,0.4-0.8,0.8-1s0.8-0.3,1.2-0.3c1,0,1.7,0.4,2,1.3c0.2-0.4,0.5-0.7,0.8-0.9
					c0.4-0.2,0.8-0.3,1.3-0.3C78.3,217.7,79,218.6,79,220.2z"/>
				<path class="st1" d="M81.6,221L81.6,221c0,0.9,0.2,1.6,0.6,2c0.4,0.5,1,0.7,1.8,0.7s1.5-0.3,2.1-0.8l0.3,0.6
					c-0.3,0.3-0.6,0.5-1.1,0.6c-0.4,0.2-0.9,0.2-1.4,0.2c-1,0-1.8-0.3-2.3-0.9c-0.6-0.6-0.9-1.4-0.9-2.5c0-0.7,0.1-1.3,0.4-1.8
					s0.6-0.9,1.1-1.2c0.5-0.3,1-0.4,1.6-0.4c0.9,0,1.5,0.3,2,0.8c0.5,0.6,0.7,1.3,0.7,2.3v0.2h-4.9C81.6,220.8,81.6,221,81.6,221z
					 M82.4,218.9c-0.4,0.4-0.6,0.9-0.7,1.5h4.1c-0.1-0.7-0.2-1.2-0.6-1.5c-0.3-0.3-0.8-0.5-1.4-0.5
					C83.2,218.4,82.7,218.6,82.4,218.9z"/>
				<path class="st1" d="M93.8,214.9v9.5H93v-1.2c-0.2,0.4-0.5,0.8-0.9,1s-0.8,0.3-1.4,0.3s-1.1-0.1-1.5-0.4s-0.8-0.7-1-1.2
					s-0.4-1.1-0.4-1.8s0.1-1.3,0.4-1.8s0.6-0.9,1-1.2c0.4-0.3,0.9-0.4,1.5-0.4c0.5,0,1,0.1,1.4,0.3c0.4,0.2,0.7,0.6,0.9,1v-4.2h0.8
					V214.9z M92.4,223.1c0.4-0.5,0.6-1.1,0.6-2c0-0.8-0.2-1.5-0.6-2s-0.9-0.7-1.6-0.7s-1.2,0.2-1.6,0.7s-0.6,1.1-0.6,2
					c0,0.8,0.2,1.5,0.6,2s0.9,0.7,1.6,0.7S92.1,223.5,92.4,223.1z"/>
				<path class="st1" d="M96.9,215.2v1h-1v-1H96.9z M96,217.9h0.8v6.5H96V217.9z"/>
				<path class="st1" d="M104.5,217.9v6.5h-0.8v-1.2c-0.2,0.4-0.5,0.8-0.9,1s-0.8,0.3-1.4,0.3s-1.1-0.1-1.5-0.4s-0.8-0.7-1-1.2
					s-0.4-1.1-0.4-1.8s0.1-1.3,0.4-1.8c0.2-0.5,0.6-0.9,1-1.2c0.4-0.3,0.9-0.4,1.5-0.4c0.5,0,1,0.1,1.4,0.3c0.4,0.2,0.7,0.6,0.9,1
					v-1.2h0.8V217.9z M103.1,223.1c0.4-0.5,0.6-1.1,0.6-2s-0.2-1.5-0.6-2s-0.9-0.7-1.6-0.7s-1.2,0.2-1.6,0.7s-0.6,1.1-0.6,2
					c0,0.8,0.2,1.5,0.6,1.9c0.4,0.5,0.9,0.7,1.6,0.7S102.8,223.5,103.1,223.1z"/>
				<path class="st1" d="M107.8,218.5v3.8c0,0.5,0.1,0.9,0.3,1.1c0.2,0.2,0.5,0.3,0.9,0.3c0.2,0,0.5,0,0.7-0.1v0.7
					c-0.3,0.1-0.6,0.1-0.8,0.1c-0.6,0-1-0.2-1.3-0.5s-0.5-0.8-0.5-1.4v-4h-1.3v-0.6h1.3v-1.7l0.8-0.3v2h1.9v0.6H107.8z"/>
				<path class="st1" d="M112,215.2v1h-1v-1H112z M111.1,217.9h0.8v6.5h-0.8V217.9z"/>
				<path class="st1" d="M115.1,224c-0.5-0.3-0.8-0.7-1-1.2s-0.4-1.1-0.4-1.8c0-0.7,0.1-1.3,0.4-1.8c0.2-0.5,0.6-0.9,1-1.2
					c0.5-0.3,1-0.4,1.6-0.4s1.1,0.1,1.5,0.4s0.8,0.7,1,1.2s0.4,1.1,0.4,1.8c0,0.7-0.1,1.3-0.4,1.8c-0.2,0.5-0.6,0.9-1,1.2
					c-0.4,0.3-1,0.4-1.5,0.4C116.1,224.4,115.6,224.3,115.1,224z M118.3,223.1c0.4-0.5,0.6-1.1,0.6-2c0-0.8-0.2-1.5-0.6-2
					s-0.9-0.7-1.6-0.7s-1.2,0.2-1.6,0.7s-0.6,1.1-0.6,2s0.2,1.5,0.6,2s0.9,0.7,1.6,0.7C117.4,223.7,117.9,223.5,118.3,223.1z"/>
				<path class="st1" d="M126.8,220.2v4.1H126v-4.1c0-0.6-0.1-1.1-0.4-1.4s-0.7-0.5-1.2-0.5c-0.6,0-1.2,0.2-1.6,0.6
					s-0.6,0.9-0.6,1.6v3.7h-0.8v-4.7c0-0.7,0-1.3-0.1-1.8h0.7l0.1,1.2c0.2-0.4,0.5-0.8,0.9-1s0.9-0.3,1.4-0.3
					C126,217.7,126.8,218.6,126.8,220.2z"/>
				<path class="st1" d="M133,223.9c-0.2-0.9-0.3-1.9-0.3-2.9s0.1-2,0.3-2.9s0.6-1.9,1-2.9h0.7c-0.5,1.1-0.8,2-1,3
					c-0.2,0.9-0.3,1.9-0.3,2.8s0.1,1.9,0.3,2.8s0.5,1.9,1,3H134C133.5,225.8,133.2,224.8,133,223.9z"/>
				<path class="st1" d="M137.2,215.2v1h-1v-1H137.2z M136.3,217.9h0.8v6.5h-0.8V217.9z"/>
				<path class="st1" d="M140.7,215.8c-0.2,0.2-0.3,0.6-0.3,1.1v1h1.7v0.6h-1.7v5.8h-0.8v-5.8h-1.3v-0.6h1.3v-1.2
					c0-0.6,0.2-1.1,0.5-1.4s0.8-0.5,1.3-0.5c0.3,0,0.5,0,0.8,0.1v0.7c-0.2-0.1-0.5-0.1-0.7-0.1C141.1,215.5,140.8,215.6,140.7,215.8
					z"/>
				<path class="st1" d="M152.2,220.2v4.1h-0.8v-4.1c0-0.6-0.1-1.1-0.4-1.4c-0.3-0.3-0.7-0.5-1.2-0.5c-0.6,0-1.2,0.2-1.6,0.6
					c-0.4,0.4-0.6,0.9-0.6,1.6v3.7h-0.8v-4.7c0-0.7,0-1.3-0.1-1.8h0.7l0.1,1.2c0.2-0.4,0.5-0.8,0.9-1s0.9-0.3,1.4-0.3
					C151.4,217.7,152.2,218.6,152.2,220.2z"/>
				<path class="st1" d="M154.8,221L154.8,221c0,0.9,0.2,1.6,0.6,2c0.4,0.5,1,0.7,1.8,0.7s1.5-0.3,2.1-0.8l0.3,0.6
					c-0.3,0.3-0.6,0.5-1.1,0.6c-0.4,0.2-0.9,0.2-1.4,0.2c-1,0-1.8-0.3-2.3-0.9c-0.6-0.6-0.9-1.4-0.9-2.5c0-0.7,0.1-1.3,0.4-1.8
					c0.3-0.5,0.6-0.9,1.1-1.2c0.5-0.3,1-0.4,1.6-0.4c0.9,0,1.5,0.3,2,0.8c0.5,0.6,0.7,1.3,0.7,2.3v0.2h-4.9L154.8,221L154.8,221z
					 M155.6,218.9c-0.4,0.4-0.6,0.9-0.7,1.5h4.1c-0.1-0.7-0.2-1.2-0.6-1.5c-0.3-0.3-0.8-0.5-1.4-0.5
					C156.4,218.4,155.9,218.6,155.6,218.9z"/>
				<path class="st1" d="M161.9,221L161.9,221c0,0.9,0.2,1.6,0.6,2c0.4,0.5,1,0.7,1.8,0.7s1.5-0.3,2.1-0.8l0.3,0.6
					c-0.3,0.3-0.6,0.5-1.1,0.6c-0.4,0.2-0.9,0.2-1.4,0.2c-1,0-1.8-0.3-2.3-0.9c-0.6-0.6-0.9-1.4-0.9-2.5c0-0.7,0.1-1.3,0.4-1.8
					c0.3-0.5,0.6-0.9,1.1-1.2c0.5-0.3,1-0.4,1.6-0.4c0.9,0,1.5,0.3,2,0.8c0.5,0.6,0.7,1.3,0.7,2.3v0.2h-4.9L161.9,221L161.9,221z
					 M162.6,218.9c-0.4,0.4-0.6,0.9-0.7,1.5h4.1c-0.1-0.7-0.2-1.2-0.6-1.5c-0.3-0.3-0.8-0.5-1.4-0.5
					C163.5,218.4,163,218.6,162.6,218.9z"/>
				<path class="st1" d="M174,214.9v9.5h-0.8v-1.2c-0.2,0.4-0.5,0.8-0.9,1s-0.8,0.3-1.4,0.3c-0.6,0-1.1-0.1-1.5-0.4s-0.8-0.7-1-1.2
					s-0.4-1.1-0.4-1.8s0.1-1.3,0.4-1.8s0.6-0.9,1-1.2c0.4-0.3,0.9-0.4,1.5-0.4c0.5,0,1,0.1,1.4,0.3c0.4,0.2,0.7,0.6,0.9,1v-4.2h0.8
					V214.9z M172.7,223.1c0.4-0.5,0.6-1.1,0.6-2c0-0.8-0.2-1.5-0.6-2c-0.4-0.5-0.9-0.7-1.6-0.7c-0.7,0-1.2,0.2-1.6,0.7
					s-0.6,1.1-0.6,2c0,0.8,0.2,1.5,0.6,2s0.9,0.7,1.6,0.7S172.3,223.5,172.7,223.1z"/>
				<path class="st1" d="M176.7,221L176.7,221c0,0.9,0.2,1.6,0.6,2c0.4,0.5,1,0.7,1.8,0.7s1.5-0.3,2.1-0.8l0.3,0.6
					c-0.3,0.3-0.6,0.5-1.1,0.6c-0.4,0.2-0.9,0.2-1.4,0.2c-1,0-1.8-0.3-2.3-0.9c-0.6-0.6-0.9-1.4-0.9-2.5c0-0.7,0.1-1.3,0.4-1.8
					c0.3-0.5,0.6-0.9,1.1-1.2c0.5-0.3,1-0.4,1.6-0.4c0.9,0,1.5,0.3,2,0.8c0.5,0.6,0.7,1.3,0.7,2.3v0.2h-4.9L176.7,221L176.7,221z
					 M177.4,218.9c-0.4,0.4-0.6,0.9-0.7,1.5h4.1c-0.1-0.7-0.2-1.2-0.6-1.5c-0.3-0.3-0.8-0.5-1.4-0.5
					C178.3,218.4,177.8,218.6,177.4,218.9z"/>
				<path class="st1" d="M188.8,214.9v9.5H188v-1.2c-0.2,0.4-0.5,0.8-0.9,1s-0.8,0.3-1.4,0.3c-0.6,0-1.1-0.1-1.5-0.4s-0.8-0.7-1-1.2
					s-0.4-1.1-0.4-1.8s0.1-1.3,0.4-1.8s0.6-0.9,1-1.2c0.4-0.3,0.9-0.4,1.5-0.4c0.5,0,1,0.1,1.4,0.3c0.4,0.2,0.7,0.6,0.9,1v-4.2h0.8
					V214.9z M187.5,223.1c0.4-0.5,0.6-1.1,0.6-2c0-0.8-0.2-1.5-0.6-2c-0.4-0.5-0.9-0.7-1.6-0.7c-0.7,0-1.2,0.2-1.6,0.7
					s-0.6,1.1-0.6,2c0,0.8,0.2,1.5,0.6,2s0.9,0.7,1.6,0.7S187.1,223.5,187.5,223.1z"/>
				<path class="st1" d="M190.4,226.7c0.4-1.1,0.8-2,1-3c0.2-0.9,0.3-1.9,0.3-2.8s-0.1-1.9-0.3-2.8s-0.5-1.9-1-3h0.7
					c0.5,1,0.8,1.9,1,2.9c0.2,0.9,0.3,1.9,0.3,2.9s-0.1,2-0.3,2.9s-0.6,1.9-1.1,2.9H190.4z"/>
				<path class="st1" d="M54,239.4h5.5v0.7h-4.7v3.5h4.5v0.7h-4.5v4.3H54V239.4z"/>
				<path class="st1" d="M61.5,245.2L61.5,245.2c0,0.9,0.2,1.6,0.6,2c0.4,0.5,1,0.7,1.8,0.7s1.5-0.3,2.1-0.8l0.3,0.6
					c-0.3,0.3-0.6,0.5-1.1,0.6c-0.4,0.2-0.9,0.2-1.4,0.2c-1,0-1.8-0.3-2.3-0.9c-0.6-0.6-0.9-1.4-0.9-2.5c0-0.7,0.1-1.3,0.4-1.8
					c0.3-0.5,0.6-0.9,1.1-1.2c0.5-0.3,1-0.4,1.6-0.4c0.9,0,1.5,0.3,2,0.8c0.5,0.6,0.7,1.3,0.7,2.3v0.2h-4.9
					C61.5,245,61.5,245.2,61.5,245.2z M62.2,243.1c-0.4,0.4-0.6,0.9-0.7,1.5h4.1c-0.1-0.7-0.2-1.2-0.6-1.5c-0.3-0.3-0.8-0.5-1.4-0.5
					C63.1,242.6,62.6,242.8,62.2,243.1z"/>
				<path class="st1" d="M73.6,239.1v9.5h-0.8v-1.2c-0.2,0.4-0.5,0.8-0.9,1s-0.8,0.3-1.4,0.3s-1.1-0.1-1.5-0.4s-0.8-0.7-1-1.2
					s-0.4-1.1-0.4-1.8s0.1-1.3,0.4-1.8s0.6-0.9,1-1.2c0.4-0.3,0.9-0.4,1.5-0.4c0.5,0,1,0.1,1.4,0.3c0.4,0.2,0.7,0.6,0.9,1V239h0.8
					V239.1z M72.3,247.3c0.4-0.5,0.6-1.1,0.6-2c0-0.8-0.2-1.5-0.6-2s-0.9-0.7-1.6-0.7s-1.2,0.2-1.6,0.7s-0.6,1.1-0.6,2
					c0,0.8,0.2,1.5,0.6,2s0.9,0.7,1.6,0.7S71.9,247.7,72.3,247.3z"/>
				<path class="st1" d="M83,248.6h-0.8l-1.1-3.1c-0.1-0.4-0.3-0.7-0.6-0.8c-0.3-0.1-0.6-0.2-1.1-0.2h-2.6v4.1H76v-9.2h3.6
					c1,0,1.7,0.2,2.2,0.7c0.5,0.4,0.8,1.1,0.8,1.9c0,0.6-0.2,1.1-0.5,1.5s-0.8,0.7-1.3,0.9c0.3,0,0.5,0.2,0.7,0.3
					c0.2,0.2,0.3,0.4,0.5,0.8L83,248.6z M79.4,243.8c1.5,0,2.3-0.6,2.3-1.9c0-1.2-0.8-1.8-2.3-1.8h-2.7v3.7L79.4,243.8L79.4,243.8z"
					/>
				<path class="st1" d="M90.8,246.1h-5l-1.1,2.5H84l4-9.2h0.7l4,9.2h-0.8L90.8,246.1z M90.5,245.4l-2.2-5.1l-2.2,5.1H90.5z"/>
				<path class="st1" d="M102.8,239.4v9.2h-0.7v-7.4l-3.2,7.4h-0.6l-3.3-7.3v7.3h-0.7v-9.2H95l3.6,8.2l3.6-8.2H102.8z"/>
				<path class="st1" d="M105.3,239.4h3.5c0.9,0,1.6,0.2,2.2,0.7c0.5,0.4,0.8,1.1,0.8,1.8c0,0.8-0.3,1.4-0.8,1.9s-1.3,0.7-2.2,0.7
					h-2.7v4.1h-0.8V239.4z M108.8,243.7c0.7,0,1.3-0.2,1.6-0.5c0.4-0.3,0.6-0.8,0.6-1.4s-0.2-1-0.6-1.4c-0.4-0.3-0.9-0.5-1.6-0.5
					h-2.7v3.7L108.8,243.7L108.8,243.7z"/>
				<path class="st1" d="M125.6,239.4v9.2h-0.7v-7.4l-3.2,7.4H121l-3.3-7.3v7.3H117v-9.2h0.7l3.6,8.2l3.6-8.2H125.6z"/>
				<path class="st1" d="M133.4,242.1v6.5h-0.8v-1.2c-0.2,0.4-0.5,0.8-0.9,1s-0.8,0.3-1.4,0.3c-0.6,0-1.1-0.1-1.5-0.4
					s-0.8-0.7-1-1.2s-0.4-1.1-0.4-1.8s0.1-1.3,0.4-1.8c0.2-0.5,0.6-0.9,1-1.2c0.4-0.3,0.9-0.4,1.5-0.4c0.5,0,1,0.1,1.4,0.3
					c0.4,0.2,0.7,0.6,0.9,1V242h0.8V242.1z M132.1,247.3c0.4-0.5,0.6-1.1,0.6-2s-0.2-1.5-0.6-2c-0.4-0.5-0.9-0.7-1.6-0.7
					s-1.2,0.2-1.6,0.7s-0.6,1.1-0.6,2c0,0.8,0.2,1.5,0.6,1.9c0.4,0.5,0.9,0.7,1.6,0.7C131.2,248,131.7,247.7,132.1,247.3z"/>
				<path class="st1" d="M139,242v0.7c-0.2,0-0.4-0.1-0.6-0.1c-0.7,0-1.1,0.2-1.5,0.6c-0.3,0.4-0.5,0.9-0.5,1.5v3.8h-0.8v-4.7
					c0-0.7,0-1.3-0.1-1.8h0.7l0.1,1.2c0.2-0.4,0.4-0.8,0.8-1c0.4-0.2,0.8-0.3,1.2-0.3C138.6,241.9,138.8,242,139,242z"/>
				<path class="st1" d="M144.5,248.6l-3.6-3.2v3.2h-0.8v-9.5h0.8v6l3.3-3h1l-3.4,3.1l3.7,3.4H144.5z"/>
				<path class="st1" d="M147,245.2L147,245.2c0,0.9,0.2,1.6,0.6,2c0.4,0.5,1,0.7,1.8,0.7s1.5-0.3,2.1-0.8l0.3,0.6
					c-0.3,0.3-0.6,0.5-1.1,0.6c-0.4,0.2-0.9,0.2-1.4,0.2c-1,0-1.8-0.3-2.3-0.9c-0.6-0.6-0.9-1.4-0.9-2.5c0-0.7,0.1-1.3,0.4-1.8
					c0.3-0.5,0.6-0.9,1.1-1.2c0.5-0.3,1-0.4,1.6-0.4c0.9,0,1.5,0.3,2,0.8c0.5,0.6,0.7,1.3,0.7,2.3v0.2H147V245.2z M147.7,243.1
					c-0.4,0.4-0.6,0.9-0.7,1.5h4.1c-0.1-0.7-0.2-1.2-0.6-1.5c-0.3-0.3-0.8-0.5-1.4-0.5C148.6,242.6,148.1,242.8,147.7,243.1z"/>
				<path class="st1" d="M154.7,242.7v3.8c0,0.5,0.1,0.9,0.3,1.1s0.5,0.3,0.9,0.3c0.2,0,0.5,0,0.7-0.1v0.7c-0.3,0.1-0.6,0.1-0.8,0.1
					c-0.6,0-1-0.2-1.3-0.5s-0.5-0.8-0.5-1.4v-4h-1.3v-0.6h1.3v-1.7l0.8-0.3v2h1.9v0.6H154.7z"/>
				<path class="st1" d="M162.6,242.4c0.4,0.3,0.8,0.7,1,1.2s0.4,1.1,0.4,1.8s-0.1,1.3-0.4,1.8c-0.2,0.5-0.6,0.9-1,1.2
					c-0.4,0.3-0.9,0.4-1.5,0.4c-0.5,0-1-0.1-1.4-0.4c-0.4-0.2-0.7-0.6-0.9-1v4.1H158V244c0-0.7,0-1.3-0.1-1.8h0.7l0.1,1.3
					c0.2-0.5,0.5-0.8,0.9-1.1s0.9-0.4,1.4-0.4C161.6,241.9,162.1,242.1,162.6,242.4z M162.5,247.3c0.4-0.5,0.6-1.1,0.6-1.9
					s-0.2-1.5-0.6-2s-0.9-0.7-1.6-0.7c-0.7,0-1.2,0.2-1.6,0.7c-0.4,0.5-0.6,1.1-0.6,2c0,0.8,0.2,1.5,0.6,2c0.4,0.5,0.9,0.7,1.6,0.7
					S162.2,247.7,162.5,247.3z"/>
				<path class="st1" d="M165.7,239.1h0.8v9.5h-0.8V239.1z"/>
				<path class="st1" d="M174.2,242.1v6.5h-0.8v-1.2c-0.2,0.4-0.5,0.8-0.9,1s-0.8,0.3-1.4,0.3c-0.6,0-1.1-0.1-1.5-0.4
					s-0.8-0.7-1-1.2s-0.4-1.1-0.4-1.8s0.1-1.3,0.4-1.8c0.2-0.5,0.6-0.9,1-1.2c0.4-0.3,0.9-0.4,1.5-0.4c0.5,0,1,0.1,1.4,0.3
					c0.4,0.2,0.7,0.6,0.9,1V242h0.8V242.1z M172.9,247.3c0.4-0.5,0.6-1.1,0.6-2s-0.2-1.5-0.6-2c-0.4-0.5-0.9-0.7-1.6-0.7
					s-1.2,0.2-1.6,0.7s-0.6,1.1-0.6,2c0,0.8,0.2,1.5,0.6,1.9c0.4,0.5,0.9,0.7,1.6,0.7C172,248,172.5,247.7,172.9,247.3z"/>
				<path class="st1" d="M177.5,248.2c-0.5-0.3-0.8-0.7-1.1-1.2c-0.2-0.5-0.4-1.1-0.4-1.8c0-0.7,0.1-1.3,0.4-1.8
					c0.2-0.5,0.6-0.9,1.1-1.2c0.5-0.3,1-0.4,1.6-0.4c0.4,0,0.9,0.1,1.3,0.2s0.7,0.4,1,0.6l-0.3,0.6c-0.3-0.3-0.7-0.5-1-0.6
					s-0.6-0.2-0.9-0.2c-0.7,0-1.2,0.2-1.7,0.7s-0.6,1.1-0.6,2c0,0.8,0.2,1.5,0.6,1.9s1,0.7,1.7,0.7c0.3,0,0.6-0.1,0.9-0.2
					s0.6-0.3,1-0.6l0.3,0.6c-0.3,0.3-0.6,0.5-1,0.6c-0.4,0.2-0.8,0.2-1.2,0.2C178.4,248.7,177.9,248.5,177.5,248.2z"/>
				<path class="st1" d="M183.2,245.2L183.2,245.2c0,0.9,0.2,1.6,0.6,2c0.4,0.5,1,0.7,1.8,0.7s1.5-0.3,2.1-0.8l0.3,0.6
					c-0.3,0.3-0.6,0.5-1.1,0.6c-0.4,0.2-0.9,0.2-1.4,0.2c-1,0-1.8-0.3-2.3-0.9c-0.6-0.6-0.9-1.4-0.9-2.5c0-0.7,0.1-1.3,0.4-1.8
					c0.3-0.5,0.6-0.9,1.1-1.2c0.5-0.3,1-0.4,1.6-0.4c0.9,0,1.5,0.3,2,0.8c0.5,0.6,0.7,1.3,0.7,2.3v0.2h-4.9L183.2,245.2L183.2,245.2
					z M184,243.1c-0.4,0.4-0.6,0.9-0.7,1.5h4.1c-0.1-0.7-0.2-1.2-0.6-1.5c-0.3-0.3-0.8-0.5-1.4-0.5
					C184.8,242.6,184.4,242.8,184,243.1z"/>
				<path class="st1" d="M193.4,239.4h3c1.5,0,2.6,0.4,3.4,1.2c0.8,0.8,1.2,1.9,1.2,3.4s-0.4,2.6-1.2,3.4s-1.9,1.2-3.4,1.2h-3V239.4
					z M196.3,247.9c1.2,0,2.2-0.3,2.8-1s0.9-1.6,0.9-2.9c0-2.6-1.3-3.9-3.8-3.9h-2.1v7.8H196.3z"/>
				<path class="st1" d="M203.3,245.2L203.3,245.2c0,0.9,0.2,1.6,0.6,2c0.4,0.5,1,0.7,1.8,0.7s1.5-0.3,2.1-0.8l0.3,0.6
					c-0.3,0.3-0.6,0.5-1.1,0.6c-0.4,0.2-0.9,0.2-1.4,0.2c-1,0-1.8-0.3-2.3-0.9c-0.6-0.6-0.9-1.4-0.9-2.5c0-0.7,0.1-1.3,0.4-1.8
					c0.3-0.5,0.6-0.9,1.1-1.2c0.5-0.3,1-0.4,1.6-0.4c0.9,0,1.5,0.3,2,0.8c0.5,0.6,0.7,1.3,0.7,2.3v0.2h-4.9L203.3,245.2L203.3,245.2
					z M204,243.1c-0.4,0.4-0.6,0.9-0.7,1.5h4.1c-0.1-0.7-0.2-1.2-0.6-1.5c-0.3-0.3-0.8-0.5-1.4-0.5
					C204.9,242.6,204.4,242.8,204,243.1z"/>
				<path class="st1" d="M209.6,247.8l0.3-0.6c0.3,0.3,0.7,0.5,1,0.6s0.8,0.2,1.2,0.2c0.5,0,0.9-0.1,1.2-0.3
					c0.3-0.2,0.4-0.5,0.4-0.8s-0.1-0.5-0.3-0.7s-0.5-0.3-0.9-0.4l-1.1-0.2c-0.5-0.1-0.9-0.3-1.2-0.6c-0.3-0.3-0.4-0.7-0.4-1.1
					c0-0.6,0.2-1,0.7-1.4c0.4-0.3,1-0.5,1.7-0.5c0.5,0,0.9,0.1,1.3,0.2c0.4,0.1,0.7,0.4,1,0.6l-0.3,0.6c-0.6-0.5-1.2-0.8-2-0.8
					c-0.5,0-0.9,0.1-1.2,0.3c-0.3,0.2-0.4,0.5-0.4,0.8s0.1,0.5,0.3,0.7s0.4,0.3,0.8,0.4l1.1,0.3c1.2,0.3,1.7,0.8,1.7,1.7
					c0,0.5-0.2,1-0.7,1.3c-0.4,0.3-1,0.5-1.8,0.5C211,248.7,210.2,248.4,209.6,247.8z"/>
				<path class="st1" d="M217.3,239.4v1h-1v-1H217.3z M216.4,242.1h0.8v6.5h-0.8V242.1z"/>
				<path class="st1" d="M224.9,242.1v6.5c0,0.9-0.2,1.6-0.7,2.1s-1.1,0.7-2.1,0.7s-1.8-0.2-2.5-0.7l0.2-0.7
					c0.4,0.2,0.8,0.4,1.2,0.5s0.8,0.2,1.2,0.2c0.6,0,1.1-0.2,1.5-0.5c0.3-0.4,0.5-0.9,0.5-1.5V247c-0.2,0.4-0.5,0.8-0.9,1
					s-0.9,0.4-1.4,0.4c-0.6,0-1.1-0.1-1.5-0.4s-0.8-0.6-1-1.1s-0.4-1-0.4-1.7c0-0.6,0.1-1.2,0.4-1.7c0.2-0.5,0.6-0.9,1-1.1
					c0.4-0.3,0.9-0.4,1.5-0.4c0.5,0,1,0.1,1.4,0.3c0.4,0.2,0.7,0.6,0.9,1v-1.2L224.9,242.1L224.9,242.1z M223.6,247
					c0.4-0.4,0.6-1.1,0.6-1.8c0-0.8-0.2-1.4-0.6-1.9c-0.4-0.5-0.9-0.7-1.6-0.7c-0.7,0-1.2,0.2-1.6,0.7c-0.4,0.5-0.6,1.1-0.6,1.9
					s0.2,1.4,0.6,1.8c0.4,0.4,0.9,0.7,1.6,0.7C222.7,247.7,223.2,247.4,223.6,247z"/>
				<path class="st1" d="M232.5,244.5v4.1h-0.8v-4.1c0-0.6-0.1-1.1-0.4-1.4c-0.3-0.3-0.7-0.5-1.2-0.5c-0.6,0-1.2,0.2-1.6,0.6
					c-0.4,0.4-0.6,0.9-0.6,1.6v3.7h-0.8v-4.7c0-0.7,0-1.3-0.1-1.8h0.7l0.1,1.2c0.2-0.4,0.5-0.8,0.9-1s0.9-0.3,1.4-0.3
					C231.7,241.9,232.5,242.8,232.5,244.5z"/>
				<path class="st1" d="M240.2,242.1v6.5h-0.8v-1.2c-0.2,0.4-0.5,0.8-0.9,1s-0.8,0.3-1.4,0.3c-0.6,0-1.1-0.1-1.5-0.4
					s-0.8-0.7-1-1.2s-0.4-1.1-0.4-1.8s0.1-1.3,0.4-1.8c0.2-0.5,0.6-0.9,1-1.2c0.4-0.3,0.9-0.4,1.5-0.4c0.5,0,1,0.1,1.4,0.3
					c0.4,0.2,0.7,0.6,0.9,1V242h0.8V242.1z M238.8,247.3c0.4-0.5,0.6-1.1,0.6-2s-0.2-1.5-0.6-2s-0.9-0.7-1.6-0.7s-1.2,0.2-1.6,0.7
					c-0.4,0.5-0.6,1.1-0.6,2c0,0.8,0.2,1.5,0.6,1.9c0.4,0.5,0.9,0.7,1.6,0.7C237.9,248,238.4,247.7,238.8,247.3z"/>
				<path class="st1" d="M243.5,242.7v3.8c0,0.5,0.1,0.9,0.3,1.1s0.5,0.3,0.9,0.3c0.2,0,0.5,0,0.7-0.1v0.7c-0.3,0.1-0.6,0.1-0.8,0.1
					c-0.6,0-1-0.2-1.3-0.5s-0.5-0.8-0.5-1.4v-4h-1.3v-0.6h1.3v-1.7l0.8-0.3v2h1.9v0.6H243.5z"/>
				<path class="st1" d="M247.7,239.4v1h-1v-1H247.7z M246.8,242.1h0.8v6.5h-0.8V242.1z"/>
				<path class="st1" d="M250.8,248.2c-0.5-0.3-0.8-0.7-1-1.2s-0.4-1.1-0.4-1.8c0-0.7,0.1-1.3,0.4-1.8c0.2-0.5,0.6-0.9,1-1.2
					c0.5-0.3,1-0.4,1.6-0.4s1.1,0.1,1.5,0.4s0.8,0.7,1,1.2s0.4,1.1,0.4,1.8c0,0.7-0.1,1.3-0.4,1.8c-0.2,0.5-0.6,0.9-1,1.2
					c-0.4,0.3-1,0.4-1.5,0.4C251.8,248.7,251.2,248.5,250.8,248.2z M253.9,247.3c0.4-0.5,0.6-1.1,0.6-2c0-0.8-0.2-1.5-0.6-2
					s-0.9-0.7-1.6-0.7c-0.7,0-1.2,0.2-1.6,0.7c-0.4,0.5-0.6,1.1-0.6,2s0.2,1.5,0.6,2c0.4,0.5,0.9,0.7,1.6,0.7
					S253.6,247.7,253.9,247.3z"/>
				<path class="st1" d="M262.5,244.5v4.1h-0.8v-4.1c0-0.6-0.1-1.1-0.4-1.4s-0.7-0.5-1.2-0.5c-0.6,0-1.2,0.2-1.6,0.6
					s-0.6,0.9-0.6,1.6v3.7h-0.8v-4.7c0-0.7,0-1.3-0.1-1.8h0.7l0.1,1.2c0.2-0.4,0.5-0.8,0.9-1s0.9-0.3,1.4-0.3
					C261.7,241.9,262.5,242.8,262.5,244.5z"/>
				<path class="st1" d="M267.9,244.8h3.5v0.7h-3.5V244.8z"/>
				<path class="st1" d="M60,262.3h-5l-1.1,2.5h-0.8l4-9.2h0.7l4,9.2H61L60,262.3z M59.7,261.6l-2.2-5.1l-2.2,5.1H59.7z"/>
				<path class="st1" d="M68.6,258.2v6.5h-0.8v-1.2c-0.2,0.4-0.5,0.7-0.9,0.9s-0.8,0.3-1.3,0.3c-0.8,0-1.3-0.2-1.7-0.6
					c-0.4-0.4-0.6-1-0.6-1.9v-4.1h0.8v4c0,0.6,0.1,1.1,0.4,1.4s0.7,0.5,1.2,0.5c0.6,0,1.1-0.2,1.5-0.6s0.6-0.9,0.6-1.6v-3.7h0.8
					C68.6,258.1,68.6,258.2,68.6,258.2z"/>
				<path class="st1" d="M71.9,258.9v3.8c0,0.5,0.1,0.9,0.3,1.1c0.2,0.2,0.5,0.3,0.9,0.3c0.2,0,0.5,0,0.7-0.1v0.7
					c-0.3,0.1-0.6,0.1-0.8,0.1c-0.6,0-1-0.2-1.3-0.5s-0.5-0.8-0.5-1.4v-4h-1.3v-0.6h1.3v-1.7l0.8-0.3v2h1.9v0.6H71.9z"/>
				<path class="st1" d="M80.5,260.6v4.1h-0.8v-4.1c0-0.6-0.1-1.1-0.4-1.4s-0.7-0.5-1.2-0.5c-0.6,0-1.2,0.2-1.6,0.6
					s-0.6,0.9-0.6,1.6v3.7h-0.8v-9.5H76v4.2c0.2-0.4,0.5-0.7,0.9-1c0.4-0.2,0.8-0.3,1.3-0.3C79.7,258.1,80.5,258.9,80.5,260.6z"/>
				<path class="st1" d="M83.7,264.4c-0.5-0.3-0.8-0.7-1-1.2s-0.4-1.1-0.4-1.8c0-0.7,0.1-1.3,0.4-1.8c0.2-0.5,0.6-0.9,1-1.2
					c0.5-0.3,1-0.4,1.6-0.4s1.1,0.1,1.5,0.4s0.8,0.7,1,1.2s0.4,1.1,0.4,1.8c0,0.7-0.1,1.3-0.4,1.8c-0.2,0.5-0.6,0.9-1,1.2
					c-0.4,0.3-1,0.4-1.5,0.4C84.7,264.8,84.2,264.7,83.7,264.4z M86.9,263.4c0.4-0.5,0.6-1.1,0.6-2c0-0.8-0.2-1.5-0.6-2
					s-0.9-0.7-1.6-0.7s-1.2,0.2-1.6,0.7s-0.6,1.1-0.6,2s0.2,1.5,0.6,2s0.9,0.7,1.6,0.7C86,264.1,86.5,263.9,86.9,263.4z"/>
				<path class="st1" d="M93.4,258.1v0.7c-0.2,0-0.4-0.1-0.6-0.1c-0.7,0-1.1,0.2-1.5,0.6c-0.3,0.4-0.5,0.9-0.5,1.5v3.8H90v-4.7
					c0-0.7,0-1.3-0.1-1.8h0.7l0.1,1.2c0.2-0.4,0.4-0.8,0.8-1s0.8-0.3,1.2-0.3C93,258.1,93.2,258.1,93.4,258.1z"/>
				<path class="st1" d="M95.5,255.6v1h-1v-1H95.5z M94.6,258.2h0.8v6.5h-0.8V258.2z"/>
				<path class="st1" d="M102.6,264.1v0.6h-5.4v-0.5l4.3-5.3h-4.1v-0.6h5.1v0.6l-4.2,5.2L102.6,264.1L102.6,264.1z"/>
				<path class="st1" d="M104.6,261.4L104.6,261.4c0,0.9,0.2,1.6,0.6,2c0.4,0.5,1,0.7,1.8,0.7s1.5-0.3,2.1-0.8l0.3,0.6
					c-0.3,0.3-0.6,0.5-1.1,0.6c-0.4,0.2-0.9,0.2-1.4,0.2c-1,0-1.8-0.3-2.3-0.9c-0.6-0.6-0.9-1.4-0.9-2.5c0-0.7,0.1-1.3,0.4-1.8
					s0.6-0.9,1.1-1.2c0.5-0.3,1-0.4,1.6-0.4c0.9,0,1.5,0.3,2,0.8c0.5,0.6,0.7,1.3,0.7,2.3v0.2h-4.9
					C104.6,261.2,104.6,261.4,104.6,261.4z M105.4,259.3c-0.4,0.4-0.6,0.9-0.7,1.5h4.1c-0.1-0.7-0.2-1.2-0.6-1.5
					c-0.3-0.3-0.8-0.5-1.4-0.5C106.2,258.7,105.7,258.9,105.4,259.3z"/>
				<path class="st1" d="M116.8,255.2v9.5H116v-1.2c-0.2,0.4-0.5,0.8-0.9,1s-0.8,0.3-1.4,0.3s-1.1-0.1-1.5-0.4s-0.8-0.7-1-1.2
					s-0.4-1.1-0.4-1.8s0.1-1.3,0.4-1.8s0.6-0.9,1-1.2c0.4-0.3,0.9-0.4,1.5-0.4c0.5,0,1,0.1,1.4,0.3c0.4,0.2,0.7,0.6,0.9,1v-4.2h0.8
					V255.2z M115.4,263.4c0.4-0.5,0.6-1.1,0.6-2c0-0.8-0.2-1.5-0.6-2s-0.9-0.7-1.6-0.7s-1.2,0.2-1.6,0.7s-0.6,1.1-0.6,2
					c0,0.8,0.2,1.5,0.6,2s0.9,0.7,1.6,0.7S115,263.9,115.4,263.4z"/>
			</g>
		</g>
		<rect x="31.4" y="58.3" class="st5" width="0.8" height="172"/>
		<g>
			<path class="st7" d="M40.9,251.5c0.4-0.7-0.3-1.9-0.1-2.6c0.2-0.8,1.4-1.4,1.4-2.2c0-0.8-1.2-1.5-1.4-2.2c-0.2-0.8,0.5-2,0.1-2.6
				c-0.4-0.7-1.8-0.7-2.3-1.2c-0.6-0.6-0.5-1.9-1.2-2.3s-1.9,0.3-2.6,0.1c-0.8-0.2-1.4-1.4-2.2-1.4s-1.5,1.2-2.2,1.4
				c-0.8,0.2-2-0.5-2.6-0.1c-0.7,0.4-0.7,1.8-1.2,2.3c-0.6,0.6-1.9,0.5-2.3,1.2s0.3,1.9,0.1,2.6c-0.2,0.8-1.4,1.4-1.4,2.2
				c0,0.8,1.2,1.5,1.4,2.2c0.2,0.8-0.5,2-0.1,2.6c0.4,0.7,1.8,0.7,2.3,1.2c0.4,0.4,0.5,1.1,0.7,1.6l-3.1,6.5l4.2-1l2.2,3.7l2.2-5.8
				l2.2,5.8l2.2-3.7l4.2,1l-3.1-6.5c0.2-0.6,0.4-1.3,0.7-1.6C39.2,252.2,40.5,252.2,40.9,251.5z"/>
			<g>
				<g>
					<polygon class="st8" points="28.9,262.3 26.7,258.6 22.5,259.6 28.2,247.8 33.4,250 					"/>
					<polygon class="st8" points="33.2,262.3 35.4,258.6 39.6,259.6 33.9,247.8 28.6,250 					"/>
				</g>
				<path class="st9" d="M40.8,245.3c0,0.8-1.2,1.5-1.4,2.2c-0.2,0.8,0.5,2,0.1,2.6c-0.4,0.7-1.8,0.7-2.3,1.2
					c-0.6,0.6-0.5,1.9-1.2,2.3s-1.9-0.3-2.6-0.1c-0.8,0.2-1.4,1.4-2.2,1.4c-0.8,0-1.5-1.2-2.2-1.4c-0.8-0.2-2,0.5-2.6,0.1
					c-0.7-0.4-0.7-1.8-1.2-2.3c-0.6-0.6-1.9-0.5-2.3-1.2s0.3-1.9,0.1-2.6c-0.2-0.8-1.4-1.4-1.4-2.2c0-0.8,1.2-1.5,1.4-2.2
					c0.2-0.8-0.5-2-0.1-2.6c0.4-0.7,1.8-0.7,2.3-1.2c0.6-0.6,0.5-1.9,1.2-2.3s1.9,0.3,2.6,0.1c0.8-0.2,1.4-1.4,2.2-1.4
					c0.8,0,1.5,1.2,2.2,1.4c0.8,0.2,2-0.5,2.6-0.1c0.7,0.4,0.7,1.8,1.2,2.3c0.6,0.6,1.9,0.5,2.3,1.2c0.4,0.7-0.3,1.9-0.1,2.6
					S40.8,244.4,40.8,245.3z"/>
				<g>
					<path class="st4" d="M36.6,245.3c0,3.1-2.5,5.6-5.6,5.6s-5.6-2.5-5.6-5.6s2.5-5.6,5.6-5.6S36.6,242.2,36.6,245.3"/>
					<path class="st3" d="M35.6,245.3c0,2.5-2,4.6-4.6,4.6s-4.6-2-4.6-4.6s2-4.6,4.6-4.6S35.6,242.7,35.6,245.3"/>
				</g>
			</g>
		</g>
	</g>
</g>
</svg>
