<svg xmlns="http://www.w3.org/2000/svg" width="130.577" height="129.587" viewBox="0 0 130.577 129.587">
  <g id="Group_3753" data-name="Group 3753" transform="translate(-6.439 -7.207)">
    <g id="Circles">
      <circle id="Ellipse_633" data-name="Ellipse 633" cx="64.793" cy="64.793" r="64.793" transform="translate(7.43 7.207)" fill="#ccecfc"/>
    </g>
    <g id="Icon_Art" data-name="Icon Art">
      <ellipse id="Ellipse_634" data-name="Ellipse 634" cx="32.84" cy="3.964" rx="32.84" ry="3.964" transform="translate(8.573 116.833)" fill="#ccecfc" style="mix-blend-mode: multiply;isolation: isolate"/>
      <g id="Group_3734" data-name="Group 3734">
        <path id="Path_7921" data-name="Path 7921" d="M122.922,70.484c-.748-.139-1.5-.259-2.241-.432a16.576,16.576,0,0,1-3.2-1.192c-.206-.1-.406-.2-.608-.3h-.2c-.02.013-.04.028-.06.042a.391.391,0,0,1-.062.037c-.388.179-.775.361-1.166.534q-.439.2-.886.366t-.9.315a13.486,13.486,0,0,1-1.868.45l-.295.05-1.747.3h0v.7h0c.019.347.039.694.058,1.041s.036.713.055,1.069.038.714.064,1.07a10.226,10.226,0,0,0,.189,1.318c.045.218.1.434.15.65s.113.431.173.646a11.328,11.328,0,0,0,.413,1.2,13.168,13.168,0,0,0,1.945,3.255,11.071,11.071,0,0,0,1.4,1.425q.252.219.511.432.362.3.746.565a9.16,9.16,0,0,0,.8.493,5.983,5.983,0,0,0,.559.251.13.13,0,0,0,.041.009.217.217,0,0,0,.092-.014c.137-.055.275-.114.406-.182a11.681,11.681,0,0,0,1.889-1.315,12.307,12.307,0,0,0,3.157-3.912,12.891,12.891,0,0,0,1.05-2.876,11.968,11.968,0,0,0,.367-2.5c.035-.795.078-1.589.118-2.384,0-.044.015-.088.022-.132v-.814C123.566,70.593,123.243,70.544,122.922,70.484Zm.4,1.271c-.048.865-.1,1.655-.134,2.445a11.031,11.031,0,0,1-.339,2.327,11.851,11.851,0,0,1-1.215,3.1,12.974,12.974,0,0,1-1.555,2.139,12.184,12.184,0,0,1-1.8,1.574,15.128,15.128,0,0,1-1.356.816.281.281,0,0,1-.127.034.234.234,0,0,1-.081-.011,3.873,3.873,0,0,1-.484-.215c-.191-.1-.375-.207-.553-.322a12.864,12.864,0,0,1-1.491-1.178,10.784,10.784,0,0,1-1.9-2.211,12.505,12.505,0,0,1-.845-1.527,12.3,12.3,0,0,1-.976-3.293,13.387,13.387,0,0,1-.123-1.43c-.049-.917-.084-1.834-.126-2.751a.118.118,0,0,1,.018-.082.093.093,0,0,1,.031-.023.184.184,0,0,1,.048-.013c.159-.026.318-.054.477-.082s.318-.055.477-.078a17.07,17.07,0,0,0,2.223-.453c.4-.116.8-.251,1.189-.4q.39-.15.772-.317t.759-.344l.376-.179a.462.462,0,0,1,.079-.027c.011,0,.022-.008.033-.01a.344.344,0,0,1,.1-.005h0a.448.448,0,0,1,.149.044c.537.247,1.073.5,1.619.724a13.183,13.183,0,0,0,3.021.861c.54.087,1.079.178,1.62.262.094.014.126.05.123.14C123.313,71.459,123.317,71.644,123.317,71.755Z" fill="#ccecfc" style="mix-blend-mode: multiply;isolation: isolate"/>
        <path id="Path_7922" data-name="Path 7922" d="M122.583,71.4c-.808-.147-1.623-.269-2.422-.455a14.579,14.579,0,0,1-3.182-1.243.456.456,0,0,0-.192-.053.379.379,0,0,0-.105.011.559.559,0,0,0-.11.042,15,15,0,0,1-3.2,1.244c-.524.122-1.057.213-1.588.306-.177.031-.355.062-.531.1l-.291.055-.3.057h0c.015.442.027.862.046,1.282.021.487.052.975.072,1.462a12.544,12.544,0,0,0,.227,1.936,11.424,11.424,0,0,0,.322,1.248,11.1,11.1,0,0,0,.754,1.8,10.758,10.758,0,0,0,2.947,3.538,8.8,8.8,0,0,0,1.373.9c.072.037.142.076.217.11l.022.009a.418.418,0,0,0,.144.034.4.4,0,0,0,.2-.051,7.7,7.7,0,0,0,1.425-.914,12.752,12.752,0,0,0,1.491-1.36,10.594,10.594,0,0,0,2.229-3.838c.214-.694.377-1.4.534-2.112a5.767,5.767,0,0,0,.09-.958c.047-.934.091-1.869.123-2.8C122.894,71.424,122.962,71.47,122.583,71.4Z" fill="#fff"/>
        <path id="Path_7923" data-name="Path 7923" d="M123.319,71.274c0-.09-.029-.126-.123-.14-.541-.084-1.08-.175-1.62-.262a13.183,13.183,0,0,1-3.021-.861c-.546-.228-1.082-.477-1.619-.724a.448.448,0,0,0-.149-.044.344.344,0,0,0-.1.005c-.011,0-.022.007-.033.01a.462.462,0,0,0-.079.027l-.376.179q-.378.179-.759.344t-.772.317c-.389.149-.785.284-1.189.4a17.07,17.07,0,0,1-2.223.453c-.159.023-.318.051-.477.078s-.318.056-.477.082a.184.184,0,0,0-.048.013.093.093,0,0,0-.031.023.118.118,0,0,0-.018.082c.042.917.077,1.834.126,2.751a13.387,13.387,0,0,0,.123,1.43,12.3,12.3,0,0,0,.976,3.293,12.505,12.505,0,0,0,.845,1.527,10.784,10.784,0,0,0,1.9,2.211,12.758,12.758,0,0,0,1.491,1.178c.178.115.362.224.553.322a3.873,3.873,0,0,0,.484.215.234.234,0,0,0,.081.011.281.281,0,0,0,.127-.034,15.128,15.128,0,0,0,1.356-.816,12.184,12.184,0,0,0,1.8-1.574,12.974,12.974,0,0,0,1.555-2.139,11.851,11.851,0,0,0,1.215-3.1,11.031,11.031,0,0,0,.339-2.327c.037-.79.086-1.58.134-2.445C123.317,71.644,123.313,71.459,123.319,71.274Zm-.436.475c-.032.935-.076,1.87-.123,2.8a5.767,5.767,0,0,1-.09.958c-.157.708-.32,1.418-.534,2.112a10.594,10.594,0,0,1-2.229,3.838,12.752,12.752,0,0,1-1.491,1.36,7.7,7.7,0,0,1-1.425.914.4.4,0,0,1-.2.051.418.418,0,0,1-.144-.034l-.022-.009c-.075-.034-.145-.073-.217-.11a8.8,8.8,0,0,1-1.373-.9,10.758,10.758,0,0,1-2.947-3.538,11.1,11.1,0,0,1-.754-1.8,11.424,11.424,0,0,1-.322-1.248,12.544,12.544,0,0,1-.227-1.936c-.02-.487-.051-.975-.072-1.462-.019-.42-.031-.84-.046-1.282l.3-.057.291-.055c.176-.033.354-.064.531-.1.531-.093,1.064-.184,1.588-.306a15,15,0,0,0,3.2-1.244.559.559,0,0,1,.11-.042.379.379,0,0,1,.105-.011.456.456,0,0,1,.192.053,14.579,14.579,0,0,0,3.182,1.243c.8.186,1.614.308,2.422.455C122.962,71.47,122.894,71.424,122.883,71.749Z" fill="#ccecfc"/>
      </g>
      <path id="Path_7924" data-name="Path 7924" d="M111.383,74.892a.372.372,0,0,1-.022-.524l1.657-1.8a.372.372,0,0,1,.524-.022l2.892,2.655a.346.346,0,0,0,.507-.037l5.568-6.832a.372.372,0,0,1,.522-.053l1.9,1.548a.372.372,0,0,1,.053.522L117.277,79.8a.346.346,0,0,1-.507.036Z" fill="#cc1d1d"/>
      <g id="Group_3739" data-name="Group 3739">
        <g id="Group_3735" data-name="Group 3735">
          <rect id="Rectangle_2449" data-name="Rectangle 2449" width="11.238" height="1.647" transform="translate(81.495 69.171)" fill="#cc1d1d"/>
        </g>
        <g id="Group_3736" data-name="Group 3736">
          <rect id="Rectangle_2450" data-name="Rectangle 2450" width="22.477" height="1.646" transform="translate(81.495 73.34)" fill="#ccecfc" style="mix-blend-mode: multiply;isolation: isolate"/>
        </g>
        <g id="Group_3737" data-name="Group 3737">
          <rect id="Rectangle_2451" data-name="Rectangle 2451" width="22.477" height="1.646" transform="translate(81.495 77.397)" fill="#ccecfc" style="mix-blend-mode: multiply;isolation: isolate"/>
        </g>
        <g id="Group_3738" data-name="Group 3738">
          <rect id="Rectangle_2452" data-name="Rectangle 2452" width="22.477" height="1.647" transform="translate(81.495 81.453)" fill="#ccecfc" style="mix-blend-mode: multiply;isolation: isolate"/>
        </g>
      </g>
      <g id="Group_3740" data-name="Group 3740">
        <path id="Path_7925" data-name="Path 7925" d="M122.922,96.482c-.748-.139-1.5-.259-2.241-.432a16.576,16.576,0,0,1-3.2-1.192c-.206-.1-.406-.2-.608-.3h-.2c-.02.013-.04.028-.06.042a.391.391,0,0,1-.062.037c-.388.18-.775.361-1.166.534q-.439.195-.886.366t-.9.315a13.633,13.633,0,0,1-1.868.451l-.295.049-1.747.3h0v.706h0c.019.346.039.693.058,1.04s.036.713.055,1.07.038.713.064,1.069a10.241,10.241,0,0,0,.189,1.319c.045.217.1.434.15.649s.113.431.173.646a11.328,11.328,0,0,0,.413,1.2,13.173,13.173,0,0,0,1.945,3.256,11.063,11.063,0,0,0,1.4,1.424q.252.219.511.432.362.3.746.566a8.914,8.914,0,0,0,.8.492,5.734,5.734,0,0,0,.559.251.13.13,0,0,0,.041.009.234.234,0,0,0,.092-.013c.137-.056.275-.115.406-.183a11.739,11.739,0,0,0,1.889-1.314,12.311,12.311,0,0,0,3.157-3.913,12.855,12.855,0,0,0,1.05-2.876,11.958,11.958,0,0,0,.367-2.5c.035-.795.078-1.589.118-2.384,0-.044.015-.088.022-.132v-.814C123.566,96.591,123.243,96.542,122.922,96.482Zm.4,1.272c-.048.865-.1,1.654-.134,2.445a11.05,11.05,0,0,1-.339,2.327,11.845,11.845,0,0,1-1.215,3.1,12.982,12.982,0,0,1-1.555,2.14,12.236,12.236,0,0,1-1.8,1.573,15.135,15.135,0,0,1-1.356.817.294.294,0,0,1-.127.033.212.212,0,0,1-.081-.011,3.868,3.868,0,0,1-.484-.214q-.287-.149-.553-.323a12.758,12.758,0,0,1-1.491-1.178,10.784,10.784,0,0,1-1.9-2.211,11.931,11.931,0,0,1-1.821-4.82,13.365,13.365,0,0,1-.123-1.43c-.049-.917-.084-1.834-.126-2.751a.116.116,0,0,1,.018-.081.081.081,0,0,1,.031-.023.182.182,0,0,1,.048-.014c.159-.025.318-.054.477-.081s.318-.055.477-.079a16.906,16.906,0,0,0,2.223-.453c.4-.115.8-.251,1.189-.4.26-.1.517-.206.772-.316s.507-.226.759-.344c.126-.059.251-.119.376-.18a.463.463,0,0,1,.079-.027c.011,0,.022-.008.033-.01a.344.344,0,0,1,.1-.005h0a.473.473,0,0,1,.149.044c.537.247,1.073.5,1.619.725a13.181,13.181,0,0,0,3.021.86c.54.087,1.079.178,1.62.262.094.015.126.05.123.14C123.313,97.457,123.317,97.643,123.317,97.754Z" fill="#ccecfc" style="mix-blend-mode: multiply;isolation: isolate"/>
        <path id="Path_7926" data-name="Path 7926" d="M122.583,97.4c-.808-.147-1.623-.269-2.422-.455a14.627,14.627,0,0,1-3.182-1.242.458.458,0,0,0-.192-.054.381.381,0,0,0-.105.012.5.5,0,0,0-.11.041,15,15,0,0,1-3.2,1.244c-.524.122-1.057.213-1.588.306-.177.031-.355.063-.531.1l-.291.054-.3.058h0c.015.441.027.861.046,1.281.021.488.052.975.072,1.463a12.545,12.545,0,0,0,.227,1.935,11.424,11.424,0,0,0,.322,1.248,11.149,11.149,0,0,0,.754,1.8,10.764,10.764,0,0,0,2.947,3.537,8.726,8.726,0,0,0,1.373.9c.072.037.142.077.217.111l.022.008a.445.445,0,0,0,.144.035.422.422,0,0,0,.2-.051,7.749,7.749,0,0,0,1.425-.914,12.672,12.672,0,0,0,1.491-1.361,10.582,10.582,0,0,0,2.229-3.837c.214-.695.377-1.4.534-2.113a5.755,5.755,0,0,0,.09-.957c.047-.935.091-1.869.123-2.805C122.894,97.422,122.962,97.468,122.583,97.4Z" fill="#fff"/>
        <path id="Path_7927" data-name="Path 7927" d="M123.319,97.272c0-.09-.029-.125-.123-.14-.541-.084-1.08-.175-1.62-.262a13.181,13.181,0,0,1-3.021-.86c-.546-.229-1.082-.478-1.619-.725a.473.473,0,0,0-.149-.044.344.344,0,0,0-.1.005c-.011,0-.022.007-.033.01a.463.463,0,0,0-.079.027c-.125.061-.25.121-.376.18q-.378.177-.759.344c-.255.11-.512.216-.772.316-.389.149-.785.285-1.189.4a16.906,16.906,0,0,1-2.223.453c-.159.024-.318.051-.477.079s-.318.056-.477.081a.182.182,0,0,0-.048.014.081.081,0,0,0-.031.023.116.116,0,0,0-.018.081c.042.917.077,1.834.126,2.751a13.365,13.365,0,0,0,.123,1.43,11.931,11.931,0,0,0,1.821,4.82,10.784,10.784,0,0,0,1.9,2.211,12.758,12.758,0,0,0,1.491,1.178q.267.174.553.323a3.868,3.868,0,0,0,.484.214.212.212,0,0,0,.081.011.294.294,0,0,0,.127-.033,15.135,15.135,0,0,0,1.356-.817,12.236,12.236,0,0,0,1.8-1.573,12.982,12.982,0,0,0,1.555-2.14,11.845,11.845,0,0,0,1.215-3.1,11.05,11.05,0,0,0,.339-2.327c.037-.791.086-1.58.134-2.445C123.317,97.643,123.313,97.457,123.319,97.272Zm-.436.475c-.032.936-.076,1.87-.123,2.805a5.755,5.755,0,0,1-.09.957c-.157.709-.32,1.418-.534,2.113a10.582,10.582,0,0,1-2.229,3.837,12.672,12.672,0,0,1-1.491,1.361,7.749,7.749,0,0,1-1.425.914.422.422,0,0,1-.2.051.445.445,0,0,1-.144-.035l-.022-.008c-.075-.034-.145-.074-.217-.111a8.726,8.726,0,0,1-1.373-.9,10.764,10.764,0,0,1-2.947-3.537,11.149,11.149,0,0,1-.754-1.8,11.424,11.424,0,0,1-.322-1.248,12.545,12.545,0,0,1-.227-1.935c-.02-.488-.051-.975-.072-1.463-.019-.42-.031-.84-.046-1.281l.3-.058.291-.054c.176-.033.354-.065.531-.1.531-.093,1.064-.184,1.588-.306a15,15,0,0,0,3.2-1.244.5.5,0,0,1,.11-.041.381.381,0,0,1,.105-.012.458.458,0,0,1,.192.054,14.627,14.627,0,0,0,3.182,1.242c.8.186,1.614.308,2.422.455C122.962,97.468,122.894,97.422,122.883,97.747Z" fill="#ccecfc"/>
      </g>
      <path id="Path_7928" data-name="Path 7928" d="M111.383,100.891a.372.372,0,0,1-.022-.524l1.657-1.806a.372.372,0,0,1,.524-.022l2.892,2.655a.345.345,0,0,0,.507-.037l5.568-6.832a.372.372,0,0,1,.522-.053l1.9,1.549a.371.371,0,0,1,.053.521l-7.707,9.458a.346.346,0,0,1-.507.037Z" fill="#cc1d1d"/>
      <g id="Group_3745" data-name="Group 3745">
        <g id="Group_3741" data-name="Group 3741">
          <rect id="Rectangle_2453" data-name="Rectangle 2453" width="11.238" height="1.647" transform="translate(81.495 95.169)" fill="#cc1d1d"/>
        </g>
        <g id="Group_3742" data-name="Group 3742">
          <rect id="Rectangle_2454" data-name="Rectangle 2454" width="22.477" height="1.646" transform="translate(81.495 99.338)" fill="#ccecfc" style="mix-blend-mode: multiply;isolation: isolate"/>
        </g>
        <g id="Group_3743" data-name="Group 3743">
          <rect id="Rectangle_2455" data-name="Rectangle 2455" width="22.477" height="1.646" transform="translate(81.495 103.395)" fill="#ccecfc" style="mix-blend-mode: multiply;isolation: isolate"/>
        </g>
        <g id="Group_3744" data-name="Group 3744">
          <rect id="Rectangle_2456" data-name="Rectangle 2456" width="22.477" height="1.647" transform="translate(81.495 107.451)" fill="#ccecfc" style="mix-blend-mode: multiply;isolation: isolate"/>
        </g>
      </g>
      <g id="Group_3747" data-name="Group 3747">
        <g id="Group_3746" data-name="Group 3746">
          <path id="Path_7929" data-name="Path 7929" d="M98.1,21.788c-.113,0-.225.006-.338.007a27.405,27.405,0,0,0-40.953-8.889,20.315,20.315,0,0,0-9.174-2.253A20.374,20.374,0,0,0,27.461,34.921a17.652,17.652,0,0,0,2.091,35.185H93.429a22.747,22.747,0,0,0,2.3-.117q1.168.116,2.366.117a24.159,24.159,0,1,0,0-48.318Z" fill="#fff"/>
          <path id="Path_7930" data-name="Path 7930" d="M112.708,26.708A24.162,24.162,0,0,1,82.1,60.825a27.5,27.5,0,0,0,8.6-47.556A27.5,27.5,0,0,1,49.065,46.94a10.912,10.912,0,0,0,.191-16.393,10.558,10.558,0,0,1,1.55,5.519c0,5.858-4.544,11.013-13.033,11.013a10.942,10.942,0,0,1-3.41-.547,10.907,10.907,0,0,0,7.475,3.059,17.7,17.7,0,0,1-26.5,13.367,17.675,17.675,0,0,0,14.212,7.148H98.1a24.157,24.157,0,0,0,14.61-43.4Z" fill="#d9f1fd"/>
        </g>
      </g>
      <g id="Group_3748" data-name="Group 3748">
        <path id="Path_7931" data-name="Path 7931" d="M11.065,42.549c3.58-.667,7.185-1.241,10.724-2.069a79.6,79.6,0,0,0,15.319-5.7c.984-.458,1.941-.968,2.91-1.453h.944a4.9,4.9,0,0,0,.587.38c1.856.859,3.707,1.727,5.578,2.555a72.415,72.415,0,0,0,17.505,5.414c3.26.541,6.517,1.1,9.775,1.653V46.7q-.139,2.49-.278,4.978c-.186,3.413-.323,6.83-.568,10.238a63.011,63.011,0,0,1-2.453,12.509A60.184,60.184,0,0,1,59.824,95.757a61.519,61.519,0,0,1-9.134,8.884,46.862,46.862,0,0,1-7.4,5.063,27.847,27.847,0,0,1-2.676,1.2.662.662,0,0,1-.2.043,1.022,1.022,0,0,1-.438-.065c-.659-.267-1.316-.549-1.947-.874A56.161,56.161,0,0,1,29,103.72,58.891,58.891,0,0,1,13.892,85,61.5,61.5,0,0,1,8.868,71.232,57.055,57.055,0,0,1,7.111,59.263c-.17-3.8-.373-7.6-.567-11.408a5.516,5.516,0,0,0-.105-.632v-3.9C7.981,43.068,9.529,42.835,11.065,42.549ZM9.172,48.632c.229,4.14.463,7.919.641,11.7A52.938,52.938,0,0,0,11.436,71.47a56.6,56.6,0,0,0,5.816,14.85,61.962,61.962,0,0,0,7.442,10.241,58.427,58.427,0,0,0,8.632,7.53A72.988,72.988,0,0,0,39.813,108a1.373,1.373,0,0,0,.61.158,1.06,1.06,0,0,0,.387-.05,18.713,18.713,0,0,0,2.318-1.027A49.089,49.089,0,0,0,52.909,99.9,54.161,54.161,0,0,0,66.043,82.012a59.14,59.14,0,0,0,4.671-15.76,64.649,64.649,0,0,0,.586-6.846c.236-4.386.4-8.776.6-13.163.016-.346-.094-.507-.464-.566-1.524-.244-3.04-.542-4.567-.765a81.36,81.36,0,0,1-10.638-2.169A93.2,93.2,0,0,1,41.417,36.81a1.811,1.811,0,0,0-.994-.2,2.224,2.224,0,0,0-.714.209c-2.568,1.185-5.135,2.375-7.745,3.469A63.192,63.192,0,0,1,17.5,44.4c-2.585.415-5.166.852-7.753,1.252-.451.07-.6.239-.589.671C9.191,47.214,9.172,48.1,9.172,48.632Z" fill="#cc1d1d"/>
        <path id="Path_7932" data-name="Path 7932" d="M64.633,41.673a72.409,72.409,0,0,1-17.506-5.414c-1.871-.828-3.722-1.7-5.578-2.555a4.9,4.9,0,0,1-.587-.38h-.539v3.284a1.811,1.811,0,0,1,.994.2,93.2,93.2,0,0,0,14.818,5.933,81.36,81.36,0,0,0,10.638,2.169c1.527.223,3.043.521,4.567.765.37.059.48.22.464.566-.2,4.387-.368,8.777-.6,13.163a64.649,64.649,0,0,1-.586,6.846,59.14,59.14,0,0,1-4.671,15.76A54.161,54.161,0,0,1,52.909,99.9a49.129,49.129,0,0,1-9.781,7.181,18.713,18.713,0,0,1-2.318,1.027,1.06,1.06,0,0,1-.387.05v2.792a.662.662,0,0,0,.2-.043,27.847,27.847,0,0,0,2.676-1.2,46.862,46.862,0,0,0,7.4-5.063,61.519,61.519,0,0,0,9.134-8.884A60.184,60.184,0,0,0,71.108,74.428a63,63,0,0,0,2.453-12.509c.245-3.408.382-6.825.568-10.238q.137-2.489.278-4.978V43.326C71.149,42.774,67.892,42.214,64.633,41.673Z" fill="#cc1d1d" style="mix-blend-mode: multiply;isolation: isolate"/>
        <path id="Path_7933" data-name="Path 7933" d="M12.684,46.936c3.87-.7,7.771-1.289,11.595-2.179a69.852,69.852,0,0,0,15.226-5.945,2.2,2.2,0,0,1,.918-.256,2.126,2.126,0,0,1,1.031.254,71.842,71.842,0,0,0,15.3,5.954c3.346.779,6.759,1.289,10.142,1.921.921.172,1.84.347,2.839.535-.075,2.113-.132,4.123-.22,6.132-.1,2.334-.253,4.666-.347,7a55.527,55.527,0,0,1-6.234,23.865,51.522,51.522,0,0,1-14.106,16.931A38.9,38.9,0,0,1,41.219,106a2.057,2.057,0,0,1-.8.206,1.953,1.953,0,0,1-.976-.245,36.879,36.879,0,0,1-6.819-4.374,60.662,60.662,0,0,1-7.135-6.512A50.677,50.677,0,0,1,14.824,76.714C13.8,73.392,13.02,70,12.27,66.6a27.731,27.731,0,0,1-.431-4.581c-.226-4.472-.437-8.946-.591-13.421C11.195,47.045,10.873,47.266,12.684,46.936Z" fill="#1a4480"/>
        <path id="Path_7934" data-name="Path 7934" d="M48.826,101.149A51.522,51.522,0,0,0,62.932,84.218a55.527,55.527,0,0,0,6.234-23.865c.094-2.335.245-4.667.347-7,.088-2.009.145-4.019.22-6.132-1-.188-1.918-.363-2.839-.535-3.383-.632-6.8-1.142-10.142-1.921a71.842,71.842,0,0,1-15.3-5.954,2.126,2.126,0,0,0-1.031-.254v67.653a2.057,2.057,0,0,0,.8-.206A38.9,38.9,0,0,0,48.826,101.149Z" fill="#162e51" opacity="0.68" style="mix-blend-mode: multiply;isolation: isolate"/>
        <path id="Path_7935" data-name="Path 7935" d="M9.163,46.328c-.014-.432.138-.6.589-.671,2.587-.4,5.168-.837,7.753-1.252a63.192,63.192,0,0,0,14.459-4.119c2.61-1.094,5.177-2.284,7.745-3.469a2.224,2.224,0,0,1,.714-.209,1.811,1.811,0,0,1,.994.2,93.2,93.2,0,0,0,14.818,5.933,81.36,81.36,0,0,0,10.638,2.169c1.527.223,3.043.521,4.567.765.37.059.48.22.464.566-.2,4.387-.368,8.777-.6,13.163a64.649,64.649,0,0,1-.586,6.846,59.14,59.14,0,0,1-4.671,15.76A54.161,54.161,0,0,1,52.909,99.9a49.089,49.089,0,0,1-9.781,7.181,18.713,18.713,0,0,1-2.318,1.027,1.06,1.06,0,0,1-.387.05,1.373,1.373,0,0,1-.61-.158,72.988,72.988,0,0,1-6.487-3.908,58.427,58.427,0,0,1-8.632-7.53A61.962,61.962,0,0,1,17.252,86.32a56.6,56.6,0,0,1-5.816-14.85A52.938,52.938,0,0,1,9.813,60.333c-.178-3.782-.412-7.561-.641-11.7C9.172,48.1,9.191,47.214,9.163,46.328ZM11.248,48.6c.154,4.475.365,8.949.591,13.421A27.731,27.731,0,0,0,12.27,66.6c.75,3.392,1.531,6.788,2.554,10.11A50.677,50.677,0,0,0,25.493,95.078a60.662,60.662,0,0,0,7.135,6.512,36.879,36.879,0,0,0,6.819,4.374,1.953,1.953,0,0,0,.976.245,2.057,2.057,0,0,0,.8-.206,38.9,38.9,0,0,0,7.607-4.854A51.522,51.522,0,0,0,62.932,84.218a55.527,55.527,0,0,0,6.234-23.865c.094-2.335.245-4.667.347-7,.088-2.009.145-4.019.22-6.132-1-.188-1.918-.363-2.839-.535-3.383-.632-6.8-1.142-10.142-1.921a71.842,71.842,0,0,1-15.3-5.954,2.126,2.126,0,0,0-1.031-.254,2.2,2.2,0,0,0-.918.256,69.852,69.852,0,0,1-15.226,5.945c-3.824.89-7.725,1.475-11.595,2.179C10.873,47.266,11.195,47.045,11.248,48.6Z" fill="#162e51"/>
        <path id="Path_7936" data-name="Path 7936" d="M41.454,38.81a71.842,71.842,0,0,0,15.3,5.954c3.346.779,6.759,1.289,10.142,1.921.921.172,1.84.347,2.839.535-.075,2.113-.132,4.123-.22,6.132-.1,2.334-.253,4.666-.347,7a55.527,55.527,0,0,1-6.234,23.865,51.522,51.522,0,0,1-14.106,16.931A38.9,38.9,0,0,1,41.219,106a2.057,2.057,0,0,1-.8.206v1.948a1.06,1.06,0,0,0,.387-.05,18.713,18.713,0,0,0,2.318-1.027A49.129,49.129,0,0,0,52.909,99.9,54.161,54.161,0,0,0,66.043,82.012a59.14,59.14,0,0,0,4.671-15.76,64.649,64.649,0,0,0,.586-6.846c.236-4.386.4-8.776.6-13.163.016-.346-.094-.507-.464-.566-1.524-.244-3.04-.542-4.567-.765a81.36,81.36,0,0,1-10.638-2.169A93.2,93.2,0,0,1,41.417,36.81a1.811,1.811,0,0,0-.994-.2v1.948A2.126,2.126,0,0,1,41.454,38.81Z" fill="#162e51" style="mix-blend-mode: multiply;isolation: isolate"/>
      </g>
      <g id="Group_3752" data-name="Group 3752">
        <path id="Path_7937" data-name="Path 7937" d="M57.245,69.5a10.933,10.933,0,1,1-.934-15.433A10.933,10.933,0,0,1,57.245,69.5Z" fill="#d9f1fd" opacity="0.8"/>
        <path id="Glass_Effect" d="M44.266,53.529a2.294,2.294,0,0,0-.828.8c-1.072,2.291,2.885,5.8,5.473,8.089s6.546,5.8,8.691,4.459a2.3,2.3,0,0,0,.7-.919A10,10,0,0,0,44.266,53.529Z" fill="#fff" opacity="0.5"/>
        <path id="Path_7938" data-name="Path 7938" d="M38.727,73.856l1.7-1.913a12.972,12.972,0,0,0,1.042.833l-1.945,2.2a3.029,3.029,0,0,0-.792-1.115Z" fill="#162e51"/>
        <path id="Path_7939" data-name="Path 7939" d="M40.423,71.943l-1.7,1.913a3.037,3.037,0,0,0-1.2-.652l1.945-2.2Q39.918,71.494,40.423,71.943Z" fill="#162e51"/>
        <path id="Path_7940" data-name="Path 7940" d="M56.317,54l1.414-1.6A13.051,13.051,0,1,1,40.423,71.943l1.057-1.194.357-.4A10.918,10.918,0,1,0,56.317,54Z" fill="#162e51"/>
        <path id="Path_7941" data-name="Path 7941" d="M57.731,52.4,56.317,54a10.918,10.918,0,1,0-14.48,16.345l-.357.4-1.057,1.194q-.506-.449-.954-.935A13.051,13.051,0,0,1,57.731,52.4Z" fill="#162e51"/>
        <path id="Path_7942" data-name="Path 7942" d="M57.731,52.4,56.317,54a10.918,10.918,0,1,0-14.48,16.345l-.357.4-1.057,1.194q-.506-.449-.954-.935A13.051,13.051,0,0,1,57.731,52.4Z" fill="#fff" opacity="0.1"/>
        <g id="Group_3749" data-name="Group 3749">
          <path id="Path_7943" data-name="Path 7943" d="M33.166,76.445l.832.738,1,.884-4.444,5.017-4.936,5.572c-.743-2.186-.7-2.438-.382-4.951C25.444,83.468,25.446,83.94,33.166,76.445Z" fill="#162e51"/>
          <path id="Path_7944" data-name="Path 7944" d="M33.166,76.445c.651-.636,2.683-2.622,3.432-3.36a3.213,3.213,0,0,1,.926.119,3.037,3.037,0,0,1,1.2.652L35,78.067Z" fill="#162e51"/>
        </g>
        <path id="Path_7945" data-name="Path 7945" d="M33.165,76.446,35,78.067l3.73-4.211a3.052,3.052,0,0,0-1.2-.653c-.061-.016-.123-.032-.185-.045a3.233,3.233,0,0,0-.742-.073l-1.016,1C34.7,74.949,33.61,76.01,33.165,76.446Z" fill="#fff" opacity="0.1"/>
        <g id="Group_3750" data-name="Group 3750">
          <path id="Path_7946" data-name="Path 7946" d="M36.827,79.689c-6.5,8.557-6.1,8.593-6.3,8.825a17.881,17.881,0,0,0-4.907.142h0l4.936-5.572L35,78.067l1,.884Z" fill="#162e51"/>
          <path id="Path_7947" data-name="Path 7947" d="M35,78.067l1.83,1.621c.379-.493,1.3-1.7,2.055-2.682.349-.457.662-.865.867-1.13a3.219,3.219,0,0,0-.162-.726c-.02-.06-.043-.119-.067-.178a3.052,3.052,0,0,0-.793-1.116Z" fill="#162e51"/>
        </g>
        <path id="Path_7948" data-name="Path 7948" d="M37.232,75.544l1.65,1.462c.349-.457.662-.865.867-1.13a3.219,3.219,0,0,0-.162-.726l-.126-.112-1-.884Z" fill="#cc1d1d"/>
        <path id="Path_7949" data-name="Path 7949" d="M37.232,75.544l1.65,1.462c.349-.457.662-.865.867-1.13a3.219,3.219,0,0,0-.162-.726l-.126-.112-1-.884Z" fill="#cc1d1d" style="mix-blend-mode: multiply;isolation: isolate"/>
        <path id="Path_7950" data-name="Path 7950" d="M35.581,74.083l.652.577,1,.884,1.231-1.39-1-.884-.127-.112a3.233,3.233,0,0,0-.742-.073Z" fill="#cc1d1d"/>
        <g id="Group_3751" data-name="Group 3751">
          <path id="Path_7951" data-name="Path 7951" d="M27.905,86.072l-2.671-2.367c.236-.175,1.006-.536,7.932-7.26l.832.738,1,.884-4.444,5.017Z" fill="#fff" opacity="0.1"/>
          <path id="Path_7952" data-name="Path 7952" d="M25.234,83.705l2.671,2.367-2.289,2.584a3.639,3.639,0,0,1-.451-4.889A.376.376,0,0,1,25.234,83.705Z" fill="#cc1d1d"/>
          <path id="Path_7953" data-name="Path 7953" d="M30.552,83.084,35,78.067l1,.884.833.738C31,87.354,30.72,88.182,30.576,88.438l-2.671-2.366Z" fill="#162e51"/>
          <path id="Path_7954" data-name="Path 7954" d="M30.576,88.438a.344.344,0,0,1-.053.076,3.638,3.638,0,0,1-4.907.142h0l2.289-2.584Z" fill="#cc1d1d"/>
          <path id="Path_7955" data-name="Path 7955" d="M30.576,88.438a.344.344,0,0,1-.053.076,3.638,3.638,0,0,1-4.907.142h0l2.289-2.584Z" fill="#cc1d1d" style="mix-blend-mode: multiply;isolation: isolate"/>
        </g>
      </g>
    </g>
  </g>
</svg>
