<svg id="Group_8372" data-name="Group 8372" xmlns="http://www.w3.org/2000/svg" xmlns:xlink="http://www.w3.org/1999/xlink" width="372.314" height="286.383" viewBox="0 0 372.314 286.383">
  <defs>
    <clipPath id="clip-path">
      <rect id="Rectangle_5206" data-name="Rectangle 5206" width="372.314" height="286.383" fill="none"/>
    </clipPath>
    <clipPath id="clip-path-4">
      <rect id="Rectangle_5195" data-name="Rectangle 5195" width="305.088" height="286.383" fill="none"/>
    </clipPath>
    <clipPath id="clip-path-6">
      <rect id="Rectangle_5198" data-name="Rectangle 5198" width="305.584" height="80.799" fill="none"/>
    </clipPath>
  </defs>
  <g id="Group_8371" data-name="Group 8371" clip-path="url(#clip-path)">
    <rect id="Rectangle_5188" data-name="Rectangle 5188" width="277.622" height="138.264" transform="translate(47.526 130.686)" fill="#f2f2f2"/>
    <g id="Group_8358" data-name="Group 8358">
      <g id="Group_8357" data-name="Group 8357" clip-path="url(#clip-path)">
        <path id="Path_25495" data-name="Path 25495" d="M121.15,231.179c0,2.408-1.895,3.82-4.964,3.82h-2.978v3.322h-1.715V227.276h4.693c3.069.083,4.964,1.495,4.964,3.9m-1.715,0c0-1.578-1.173-2.491-3.339-2.491h-2.889v4.983H116.1c2.256,0,3.339-.914,3.339-2.491" transform="translate(-32.108 -65.45)" fill="#0a90b7"/>
        <path id="Path_25496" data-name="Path 25496" d="M127.338,235.243c0-2.491,1.985-4.235,4.692-4.235s4.694,1.744,4.694,4.235-1.986,4.235-4.694,4.235-4.692-1.744-4.692-4.235m7.762,0a2.845,2.845,0,0,0-3.07-2.906,2.893,2.893,0,0,0-3.068,2.906,2.959,2.959,0,0,0,3.068,2.989,2.864,2.864,0,0,0,3.07-2.989" transform="translate(-36.67 -66.525)" fill="#0a90b7"/>
        <path id="Path_25497" data-name="Path 25497" d="M142.422,238.564l.722-1.162a6.3,6.3,0,0,0,3.159.83c1.534,0,2.167-.415,2.167-1.163,0-1.91-5.777-.249-5.777-3.571,0-1.495,1.444-2.491,3.791-2.491a7,7,0,0,1,3.34.747l-.723,1.163a4.9,4.9,0,0,0-2.617-.664c-1.444,0-2.166.5-2.166,1.163,0,1.992,5.776.332,5.776,3.653,0,1.495-1.534,2.491-3.971,2.491a6.6,6.6,0,0,1-3.7-1" transform="translate(-41.014 -66.525)" fill="#0a90b7"/>
        <path id="Path_25498" data-name="Path 25498" d="M160.872,238.275a3.26,3.26,0,0,1-1.986.581c-1.8,0-2.888-.914-2.888-2.657v-4.567h-1.534v-1.245H156v-1.827h1.625v1.827h2.617v1.245h-2.617V236.2a1.3,1.3,0,0,0,1.444,1.412,2.279,2.279,0,0,0,1.263-.415Z" transform="translate(-44.482 -65.819)" fill="#0a90b7"/>
        <path id="Path_25499" data-name="Path 25499" d="M180.509,235.58H174.1l-1.354,2.74h-1.8l5.416-11.044h1.715l5.415,11.044h-1.8Zm-.632-1.246-2.617-5.4-2.617,5.4Z" transform="translate(-49.227 -65.45)" fill="#0a90b7"/>
        <path id="Path_25500" data-name="Path 25500" d="M199.327,231.125v8.387h-1.534v-1.246a3.86,3.86,0,0,1-3.069,1.329c-2.347,0-3.881-1.162-3.881-3.653v-4.816h1.625v4.65a2.215,2.215,0,0,0,2.437,2.491,2.549,2.549,0,0,0,2.8-2.74v-4.318h1.625Z" transform="translate(-54.958 -66.558)" fill="#0a90b7"/>
        <path id="Path_25501" data-name="Path 25501" d="M212.082,238.275a3.26,3.26,0,0,1-1.986.581c-1.8,0-2.888-.914-2.888-2.657v-4.567h-1.534v-1.245h1.534v-1.827h1.625v1.827h2.617v1.245h-2.617V236.2a1.3,1.3,0,0,0,1.444,1.412,2.279,2.279,0,0,0,1.263-.415Z" transform="translate(-59.229 -65.819)" fill="#0a90b7"/>
        <path id="Path_25502" data-name="Path 25502" d="M226.29,233.351v4.816h-1.624v-4.65a2.155,2.155,0,0,0-2.437-2.408,2.62,2.62,0,0,0-2.889,2.741v4.318h-1.624V226.459h1.624v4.567a4.076,4.076,0,0,1,3.25-1.245,3.254,3.254,0,0,1,3.7,3.571" transform="translate(-62.697 -65.215)" fill="#0a90b7"/>
        <path id="Path_25503" data-name="Path 25503" d="M233.181,235.243c0-2.491,1.985-4.235,4.692-4.235s4.694,1.744,4.694,4.235-1.986,4.235-4.694,4.235-4.692-1.744-4.692-4.235m7.761,0a2.844,2.844,0,0,0-3.069-2.906,2.893,2.893,0,0,0-3.068,2.906,2.959,2.959,0,0,0,3.068,2.989,2.864,2.864,0,0,0,3.069-2.989" transform="translate(-67.15 -66.525)" fill="#0a90b7"/>
        <path id="Path_25504" data-name="Path 25504" d="M254.786,231.008V232.5h-.361a2.6,2.6,0,0,0-2.887,2.823v4.153h-1.626v-8.387h1.535V232.5a3.608,3.608,0,0,1,3.339-1.495" transform="translate(-71.968 -66.525)" fill="#0a90b7"/>
        <path id="Path_25505" data-name="Path 25505" d="M259.419,227.106a1.087,1.087,0,1,1,1.084,1c-.542-.083-1.084-.5-1.084-1m.271,2.575h1.625v8.387H259.69Z" transform="translate(-74.706 -65.114)" fill="#0a90b7"/>
        <path id="Path_25506" data-name="Path 25506" d="M273.211,238.149V239.4H265.63v-1l5.324-6.145H265.72v-1.245h7.4v1l-5.325,6.145Z" transform="translate(-76.495 -66.525)" fill="#0a90b7"/>
        <path id="Path_25507" data-name="Path 25507" d="M286.538,234.412v5.065H285V238.4a3.468,3.468,0,0,1-2.979,1.162c-2.076,0-3.339-1-3.339-2.491,0-1.329.9-2.408,3.61-2.408h2.617v-.333c0-1.245-.812-1.993-2.437-1.993a4.733,4.733,0,0,0-2.889.914l-.721-1.162a6.488,6.488,0,0,1,3.79-1.079c2.437,0,3.881,1.079,3.881,3.4m-1.624,2.491v-1.163h-2.528c-1.624,0-2.076.582-2.076,1.329,0,.83.722,1.329,1.985,1.329a2.842,2.842,0,0,0,2.618-1.495" transform="translate(-80.255 -66.525)" fill="#0a90b7"/>
        <path id="Path_25508" data-name="Path 25508" d="M298.784,238.275a3.26,3.26,0,0,1-1.986.581c-1.8,0-2.888-.914-2.888-2.657v-4.567h-1.534v-1.245h1.534v-1.827h1.625v1.827h2.617v1.245h-2.617V236.2a1.3,1.3,0,0,0,1.444,1.412,2.279,2.279,0,0,0,1.263-.415Z" transform="translate(-84.197 -65.819)" fill="#0a90b7"/>
        <path id="Path_25509" data-name="Path 25509" d="M304.038,227.106a1.087,1.087,0,1,1,1.083,1,1.116,1.116,0,0,1-1.083-1m.271,2.575h1.625v8.387h-1.625Z" transform="translate(-87.555 -65.114)" fill="#0a90b7"/>
        <path id="Path_25510" data-name="Path 25510" d="M310.25,235.243c0-2.491,1.985-4.235,4.692-4.235s4.693,1.744,4.693,4.235-1.986,4.235-4.693,4.235-4.692-1.744-4.692-4.235m7.762,0a2.845,2.845,0,0,0-3.07-2.906,2.894,2.894,0,0,0-3.069,2.906,2.96,2.96,0,0,0,3.069,2.989,2.864,2.864,0,0,0,3.07-2.989" transform="translate(-89.344 -66.525)" fill="#0a90b7"/>
        <path id="Path_25511" data-name="Path 25511" d="M335.555,234.661v4.816h-1.624v-4.65a2.155,2.155,0,0,0-2.437-2.408,2.619,2.619,0,0,0-2.888,2.741v4.318h-1.625v-8.387h1.534v1.245a3.989,3.989,0,0,1,3.25-1.328c2.256,0,3.79,1.162,3.79,3.653" transform="translate(-94.162 -66.525)" fill="#0a90b7"/>
        <path id="Path_25512" data-name="Path 25512" d="M166.057,272.875v10.047h-.9v-8.054l-3.79,8.054h-.722l-3.881-7.971v7.971h-.9V272.875h.812L161,281.843l4.242-8.968Z" transform="translate(-44.883 -78.581)" fill="#444"/>
        <path id="Path_25513" data-name="Path 25513" d="M174.939,283.8a3.468,3.468,0,0,1-1.265-1.245,4.272,4.272,0,0,1,0-3.82,2.923,2.923,0,0,1,1.265-1.245,3.511,3.511,0,0,1,1.895-.416,3.8,3.8,0,0,1,1.8.416,3.374,3.374,0,0,1,1.715,3.155,4.048,4.048,0,0,1-.451,1.91,2.538,2.538,0,0,1-1.264,1.245,3.39,3.39,0,0,1-1.8.415,4.485,4.485,0,0,1-1.895-.415m3.7-1.079a4,4,0,0,0,0-4.318,2.776,2.776,0,0,0-3.79,0,4,4,0,0,0,0,4.318,2.778,2.778,0,0,0,3.79,0" transform="translate(-49.884 -79.79)" fill="#444"/>
        <path id="Path_25514" data-name="Path 25514" d="M192.308,279.513V284h-.9v-4.484a2.591,2.591,0,0,0-.451-1.578,1.863,1.863,0,0,0-1.445-.5,3.062,3.062,0,0,0-1.895.665,2.006,2.006,0,0,0-.722,1.744v4.069h-.9v-5.148a13.522,13.522,0,0,0-.09-1.993h.9l.09,1.329a2.624,2.624,0,0,1,1.083-1.08,3.33,3.33,0,0,1,1.624-.415,2.6,2.6,0,0,1,2.708,2.906" transform="translate(-53.535 -79.656)" fill="#444"/>
        <path id="Path_25515" data-name="Path 25515" d="M199.365,276.8v4.235c0,.581.09,1,.362,1.163a1.807,1.807,0,0,0,1.082.332,2.851,2.851,0,0,0,.813-.166v.747a4.009,4.009,0,0,1-.993.083,2.664,2.664,0,0,1-1.625-.5,2.009,2.009,0,0,1-.541-1.578v-4.4h-1.534v-.664h1.534v-1.91l.9-.332v2.242h2.256v.664h-2.257Z" transform="translate(-56.71 -78.85)" fill="#444"/>
        <path id="Path_25516" data-name="Path 25516" d="M212.119,278.271v4.484h-.9v-4.484a2.591,2.591,0,0,0-.451-1.578,1.864,1.864,0,0,0-1.445-.5,3.065,3.065,0,0,0-1.9.665,2.008,2.008,0,0,0-.721,1.744v4.068h-.9V272.293h.9v4.567a2.62,2.62,0,0,1,1.083-1.08,3.319,3.319,0,0,1,1.624-.332,2.5,2.5,0,0,1,2.708,2.823" transform="translate(-59.266 -78.414)" fill="#444"/>
        <rect id="Rectangle_5189" data-name="Rectangle 5189" width="0.903" height="10.38" transform="translate(155.38 193.962)" fill="#444"/>
        <path id="Path_25517" data-name="Path 25517" d="M229.263,277.073l-3.61,7.806a3.858,3.858,0,0,1-1.354,1.66,6,6,0,0,1-1.986.748l-.18-.664a4.908,4.908,0,0,0,1.625-.582,2.492,2.492,0,0,0,.9-1.162l.361-.664-3.249-7.058h.993l2.8,6.227,2.8-6.227h.9Z" transform="translate(-63.865 -79.79)" fill="#444"/>
        <path id="Path_25518" data-name="Path 25518" d="M241.865,282.425a4.156,4.156,0,0,1-1.715-1.744,6.24,6.24,0,0,1-.632-2.741,5.2,5.2,0,0,1,.632-2.74,4.156,4.156,0,0,1,1.715-1.744,5.244,5.244,0,0,1,2.618-.582,5.708,5.708,0,0,1,2.076.333,5.175,5.175,0,0,1,1.624,1l-.361.664a6.338,6.338,0,0,0-1.534-.914,5.281,5.281,0,0,0-1.715-.249,3.635,3.635,0,0,0-2.888,1.163,5.574,5.574,0,0,0-.09,6.477,3.836,3.836,0,0,0,2.978,1.163,5.274,5.274,0,0,0,1.715-.249,5,5,0,0,0,1.534-.914l.361.664a5.177,5.177,0,0,1-1.624,1,5.71,5.71,0,0,1-2.076.333,15.321,15.321,0,0,1-2.617-.914" transform="translate(-68.976 -78.581)" fill="#444"/>
        <path id="Path_25519" data-name="Path 25519" d="M255.43,283.8a3.472,3.472,0,0,1-1.264-1.245,4.273,4.273,0,0,1,0-3.82,2.925,2.925,0,0,1,1.264-1.245,3.517,3.517,0,0,1,1.9-.416,3.8,3.8,0,0,1,1.805.416,3.378,3.378,0,0,1,1.715,3.155,4.039,4.039,0,0,1-.451,1.91,2.534,2.534,0,0,1-1.263,1.245,3.392,3.392,0,0,1-1.805.415,4.494,4.494,0,0,1-1.9-.415m3.791-1.079a4.005,4.005,0,0,0,0-4.318,2.777,2.777,0,0,0-3.791,0,4.006,4.006,0,0,0,0,4.318,2.778,2.778,0,0,0,3.791,0" transform="translate(-73.064 -79.79)" fill="#444"/>
        <path id="Path_25520" data-name="Path 25520" d="M272.926,279.513V284h-.9v-4.484a2.591,2.591,0,0,0-.451-1.578,1.865,1.865,0,0,0-1.445-.5,3.064,3.064,0,0,0-1.9.665,2.006,2.006,0,0,0-.721,1.744v4.069h-.9v-5.148a13.527,13.527,0,0,0-.09-1.993h.9l.09,1.329a2.618,2.618,0,0,1,1.082-1.08,3.331,3.331,0,0,1,1.625-.415,2.6,2.6,0,0,1,2.708,2.906" transform="translate(-76.751 -79.656)" fill="#444"/>
        <path id="Path_25521" data-name="Path 25521" d="M279.856,276.8v4.235c0,.581.09,1,.362,1.163a1.807,1.807,0,0,0,1.082.332,2.841,2.841,0,0,0,.812-.166v.747a4,4,0,0,1-.993.083,2.664,2.664,0,0,1-1.625-.5,2.009,2.009,0,0,1-.542-1.578v-4.4h-1.534v-.664h1.534v-1.91l.9-.332v2.242h2.256v.664h-2.256Z" transform="translate(-79.89 -78.85)" fill="#444"/>
        <path id="Path_25522" data-name="Path 25522" d="M287.3,274.071h-1.263v-1.079H287.3Zm-1.083,1.826h.9v7.058h-.9Z" transform="translate(-82.372 -78.615)" fill="#444"/>
        <path id="Path_25523" data-name="Path 25523" d="M297.517,279.513V284h-.9v-4.484a2.59,2.59,0,0,0-.451-1.578,1.864,1.864,0,0,0-1.445-.5,3.066,3.066,0,0,0-1.9.665,2.008,2.008,0,0,0-.721,1.744v4.069h-.9v-5.148a13.518,13.518,0,0,0-.09-1.993h.9l.09,1.329a2.618,2.618,0,0,1,1.082-1.08,3.331,3.331,0,0,1,1.625-.415,2.6,2.6,0,0,1,2.708,2.906" transform="translate(-83.832 -79.656)" fill="#444"/>
        <path id="Path_25524" data-name="Path 25524" d="M309.722,277.04V284.1h-.9v-1.329a2.422,2.422,0,0,1-1.083,1,3.185,3.185,0,0,1-1.534.332,3.041,3.041,0,0,1-2.076-.664,2.81,2.81,0,0,1-.722-2.076v-4.4h.9v4.4a2.583,2.583,0,0,0,.451,1.578,1.86,1.86,0,0,0,1.444.5,2.639,2.639,0,0,0,1.8-.664,2.226,2.226,0,0,0,.632-1.744V277.04Z" transform="translate(-87.373 -79.757)" fill="#444"/>
        <path id="Path_25525" data-name="Path 25525" d="M316.908,283.8a3.466,3.466,0,0,1-1.264-1.245,4.272,4.272,0,0,1,0-3.82,2.921,2.921,0,0,1,1.264-1.245,3.515,3.515,0,0,1,1.9-.416,3.8,3.8,0,0,1,1.8.416,3.378,3.378,0,0,1,1.715,3.155,4.039,4.039,0,0,1-.451,1.91,2.534,2.534,0,0,1-1.263,1.245,3.392,3.392,0,0,1-1.8.415,4.491,4.491,0,0,1-1.9-.415m3.7-1.079a4,4,0,0,0,0-4.318,2.777,2.777,0,0,0-3.791,0,4.006,4.006,0,0,0,0,4.318,2.778,2.778,0,0,0,3.791,0" transform="translate(-90.768 -79.79)" fill="#444"/>
        <path id="Path_25526" data-name="Path 25526" d="M334.186,277.04V284.1h-.9v-1.329a2.418,2.418,0,0,1-1.083,1,3.183,3.183,0,0,1-1.534.332,3.041,3.041,0,0,1-2.076-.664,2.81,2.81,0,0,1-.722-2.076v-4.4h.9v4.4a2.587,2.587,0,0,0,.451,1.578,1.86,1.86,0,0,0,1.445.5,2.64,2.64,0,0,0,1.8-.664,2.226,2.226,0,0,0,.632-1.744V277.04Z" transform="translate(-94.418 -79.757)" fill="#444"/>
        <path id="Path_25527" data-name="Path 25527" d="M339.656,283.2l.362-.664a4.643,4.643,0,0,0,1.263.664,4.052,4.052,0,0,0,1.445.166,2.447,2.447,0,0,0,1.443-.332.941.941,0,0,0,.542-.914.786.786,0,0,0-.361-.748,2.133,2.133,0,0,0-1.084-.415L342,280.709a2.606,2.606,0,0,1-1.444-.747,1.579,1.579,0,0,1-.541-1.163,1.837,1.837,0,0,1,.812-1.495,3.76,3.76,0,0,1,2.076-.582,4.553,4.553,0,0,1,1.535.249,5.192,5.192,0,0,1,1.173.664l-.361.664a3.51,3.51,0,0,0-2.347-.83,1.992,1.992,0,0,0-1.354.332.946.946,0,0,0-.451.914.966.966,0,0,0,.271.748,2.119,2.119,0,0,0,.993.415l1.354.332c1.354.249,2.076.914,2.076,1.91a1.6,1.6,0,0,1-.812,1.411,4.09,4.09,0,0,1-2.166.582,4.829,4.829,0,0,1-3.159-.914" transform="translate(-97.813 -79.689)" fill="#444"/>
        <path id="Path_25528" data-name="Path 25528" d="M166.057,299.7v10.047h-.9v-8.054l-3.79,8.054h-.722l-3.881-7.971v7.971h-.9V299.7h.812L161,308.666l4.242-8.968Z" transform="translate(-44.883 -86.306)" fill="#444"/>
        <path id="Path_25529" data-name="Path 25529" d="M174.939,310.623a3.457,3.457,0,0,1-1.265-1.245,4.272,4.272,0,0,1,0-3.82,2.93,2.93,0,0,1,1.265-1.245,3.518,3.518,0,0,1,1.895-.415,3.8,3.8,0,0,1,1.8.415,3.374,3.374,0,0,1,1.715,3.155,4.048,4.048,0,0,1-.451,1.91,2.536,2.536,0,0,1-1.264,1.245,3.384,3.384,0,0,1-1.8.415,4.485,4.485,0,0,1-1.895-.415m3.7-1.079a4,4,0,0,0,0-4.318,2.776,2.776,0,0,0-3.79,0,4,4,0,0,0,0,4.318,2.776,2.776,0,0,0,3.79,0" transform="translate(-49.884 -87.515)" fill="#444"/>
        <path id="Path_25530" data-name="Path 25530" d="M192.308,306.336v4.484h-.9v-4.484a2.591,2.591,0,0,0-.451-1.578,1.863,1.863,0,0,0-1.445-.5,3.062,3.062,0,0,0-1.895.665,2.006,2.006,0,0,0-.722,1.744v4.068h-.9V305.59a13.537,13.537,0,0,0-.09-1.994h.9l.09,1.329a2.62,2.62,0,0,1,1.083-1.08,3.322,3.322,0,0,1,1.624-.415,2.6,2.6,0,0,1,2.708,2.906" transform="translate(-53.535 -87.38)" fill="#444"/>
        <path id="Path_25531" data-name="Path 25531" d="M199.586,300.894h-1.263v-1.079h1.263Zm-1.174,1.827h.9v7.058h-.9Z" transform="translate(-57.112 -86.339)" fill="#444"/>
        <path id="Path_25532" data-name="Path 25532" d="M204.308,303.621v4.235c0,.581.09,1,.361,1.163a1.814,1.814,0,0,0,1.083.332,2.829,2.829,0,0,0,.812-.167v.748a4,4,0,0,1-.993.083,2.662,2.662,0,0,1-1.624-.5,2.008,2.008,0,0,1-.542-1.578v-4.4h-1.534v-.664h1.534v-1.91l.9-.333v2.242h2.256v.664h-2.256Z" transform="translate(-58.134 -86.574)" fill="#444"/>
        <path id="Path_25533" data-name="Path 25533" d="M211.7,310.623a3.461,3.461,0,0,1-1.264-1.245,4.272,4.272,0,0,1,0-3.82,2.932,2.932,0,0,1,1.264-1.245,3.522,3.522,0,0,1,1.9-.415,3.8,3.8,0,0,1,1.8.415,3.378,3.378,0,0,1,1.715,3.155,4.039,4.039,0,0,1-.451,1.91,2.531,2.531,0,0,1-1.263,1.245,3.385,3.385,0,0,1-1.8.415,4.192,4.192,0,0,1-1.9-.415m3.7-1.079a4,4,0,0,0,0-4.318,2.776,2.776,0,0,0-3.79,0,4,4,0,0,0,0,4.318,2.776,2.776,0,0,0,3.79,0" transform="translate(-60.47 -87.515)" fill="#444"/>
        <path id="Path_25534" data-name="Path 25534" d="M226.72,303.6l-.09.748c-.18,0-.451-.083-.722-.083a2.13,2.13,0,0,0-1.715.664,2.493,2.493,0,0,0-.542,1.661v4.152h-.9v-5.149a13.527,13.527,0,0,0-.09-1.993h.9l.09,1.329a2.27,2.27,0,0,1,.9-1.079A2.9,2.9,0,0,1,226,303.43a1.464,1.464,0,0,0,.722.166" transform="translate(-64.12 -87.38)" fill="#444"/>
        <path id="Path_25535" data-name="Path 25535" d="M231.4,300.894h-1.264v-1.079H231.4Zm-1.173,1.827h.9v7.058h-.9Z" transform="translate(-66.274 -86.339)" fill="#444"/>
        <path id="Path_25536" data-name="Path 25536" d="M241.49,306.336v4.484h-.9v-4.484a2.591,2.591,0,0,0-.451-1.578,1.862,1.862,0,0,0-1.444-.5,3.064,3.064,0,0,0-1.9.665,2.006,2.006,0,0,0-.722,1.744v4.068h-.9V305.59a13.642,13.642,0,0,0-.09-1.994h.9l.09,1.329a2.619,2.619,0,0,1,1.083-1.08,3.322,3.322,0,0,1,1.624-.415,2.6,2.6,0,0,1,2.708,2.906" transform="translate(-67.698 -87.38)" fill="#444"/>
        <path id="Path_25537" data-name="Path 25537" d="M254,303.9v7.141a3.1,3.1,0,0,1-.812,2.326,3.507,3.507,0,0,1-2.437.83,5.6,5.6,0,0,1-2.978-.747l.181-.748a8.728,8.728,0,0,0,1.353.581,6.785,6.785,0,0,0,1.445.167,2.105,2.105,0,0,0,1.715-.582,2.379,2.379,0,0,0,.632-1.66v-1.827a2.192,2.192,0,0,1-1.084,1.08,3.326,3.326,0,0,1-1.624.415,4.406,4.406,0,0,1-1.8-.415,4.329,4.329,0,0,1-1.264-1.246,3.927,3.927,0,0,1,0-3.653,3.457,3.457,0,0,1,1.264-1.246,3.207,3.207,0,0,1,1.8-.415,3.317,3.317,0,0,1,1.624.332,2.02,2.02,0,0,1,.993,1.08v-1.245H254Zm-1.624,5.315a3.112,3.112,0,0,0,0-3.986,2.778,2.778,0,0,0-3.791,0,3.112,3.112,0,0,0,0,3.986,2.776,2.776,0,0,0,3.791,0" transform="translate(-71.093 -87.515)" fill="#444"/>
        <path id="Path_25538" data-name="Path 25538" d="M266.137,299.7h3.52a5.749,5.749,0,0,1,4.061,1.329,4.871,4.871,0,0,1,1.443,3.737,4.8,4.8,0,0,1-1.443,3.737,5.517,5.517,0,0,1-3.972,1.329h-3.52V299.7Zm3.52,9.3A4.533,4.533,0,0,0,273,307.919a4.474,4.474,0,0,0,1.084-3.238c0-2.823-1.444-4.235-4.422-4.235H267.13V309Z" transform="translate(-76.641 -86.306)" fill="#444"/>
        <path id="Path_25539" data-name="Path 25539" d="M282.214,307.168h0a3.25,3.25,0,0,0,.723,2.241,2.708,2.708,0,0,0,2.076.748,4.072,4.072,0,0,0,2.528-.914l.361.664a2.98,2.98,0,0,1-1.264.664,5.519,5.519,0,0,1-1.625.249,3.923,3.923,0,0,1-2.8-1,3.772,3.772,0,0,1-.993-2.657,4.3,4.3,0,0,1,.451-1.91,3.114,3.114,0,0,1,1.263-1.329,3.549,3.549,0,0,1,1.9-.5,3.119,3.119,0,0,1,2.347.913,3.524,3.524,0,0,1,.812,2.491V307h-5.777Zm.9-2.325a2.5,2.5,0,0,0-.812,1.661h4.874a2.433,2.433,0,0,0-.722-1.661,2.143,2.143,0,0,0-1.625-.581,2.791,2.791,0,0,0-1.715.581" transform="translate(-80.985 -87.381)" fill="#444"/>
        <rect id="Rectangle_5190" data-name="Rectangle 5190" width="0.903" height="10.38" transform="translate(209.082 213.061)" fill="#444"/>
        <path id="Path_25540" data-name="Path 25540" d="M299.6,300.894h-1.263v-1.079H299.6Zm-1.084,1.827h.9v7.058h-.9Z" transform="translate(-85.913 -86.339)" fill="#444"/>
        <path id="Path_25541" data-name="Path 25541" d="M309.591,303.9l-3.339,7.058h-.993L302.01,303.9H303l2.8,6.228,2.8-6.228Z" transform="translate(-86.972 -87.515)" fill="#444"/>
        <path id="Path_25542" data-name="Path 25542" d="M314.918,307.168h0a3.25,3.25,0,0,0,.722,2.241,2.71,2.71,0,0,0,2.076.748,4.069,4.069,0,0,0,2.527-.914l.361.664a2.98,2.98,0,0,1-1.264.664,5.514,5.514,0,0,1-1.624.249,3.923,3.923,0,0,1-2.8-1,3.772,3.772,0,0,1-.993-2.657,4.308,4.308,0,0,1,.451-1.91,3.123,3.123,0,0,1,1.263-1.329,3.551,3.551,0,0,1,1.9-.5,3.119,3.119,0,0,1,2.347.913,3.52,3.52,0,0,1,.812,2.491V307h-5.777Zm.9-2.325a2.5,2.5,0,0,0-.812,1.661h4.874a2.437,2.437,0,0,0-.723-1.661,2.142,2.142,0,0,0-1.624-.581,2.791,2.791,0,0,0-1.715.581" transform="translate(-90.403 -87.381)" fill="#444"/>
        <path id="Path_25543" data-name="Path 25543" d="M330.282,303.6l-.09.748c-.181,0-.451-.083-.723-.083a2.13,2.13,0,0,0-1.715.664,2.493,2.493,0,0,0-.542,1.661v4.152h-.9v-5.149a13.637,13.637,0,0,0-.09-1.993h.9l.09,1.329a2.27,2.27,0,0,1,.9-1.079,2.9,2.9,0,0,1,1.444-.415,1.465,1.465,0,0,0,.723.166" transform="translate(-93.944 -87.38)" fill="#444"/>
        <path id="Path_25544" data-name="Path 25544" d="M340.014,303.863v7.058h-.9v-1.329a2.017,2.017,0,0,1-.993,1.079,3.321,3.321,0,0,1-1.625.415,4.079,4.079,0,0,1-1.8-.415,3.189,3.189,0,0,1-1.173-1.246,4.3,4.3,0,0,1-.451-1.91,4.038,4.038,0,0,1,.451-1.91,3.545,3.545,0,0,1,1.173-1.329,3.242,3.242,0,0,1,1.8-.5,3.312,3.312,0,0,1,1.625.333,2.015,2.015,0,0,1,.993,1.079v-1.245h.9Zm-1.624,5.646a4,4,0,0,0,0-4.318,2.777,2.777,0,0,0-3.791,0,4.006,4.006,0,0,0,0,4.318,2.776,2.776,0,0,0,3.791,0" transform="translate(-95.914 -87.481)" fill="#444"/>
        <path id="Path_25545" data-name="Path 25545" d="M351.827,302.8A3.185,3.185,0,0,1,353,304.048a4.3,4.3,0,0,1,.451,1.91,4.038,4.038,0,0,1-.451,1.91,3.529,3.529,0,0,1-1.173,1.328,3.039,3.039,0,0,1-1.8.5,3.319,3.319,0,0,1-1.625-.415,2.013,2.013,0,0,1-.993-1.079v1.412h-.9v-10.38h.9v4.65a2.015,2.015,0,0,1,.993-1.079,3.319,3.319,0,0,1,1.625-.416,3.387,3.387,0,0,1,1.8.416m-.09,5.4a4.006,4.006,0,0,0,0-4.318,2.777,2.777,0,0,0-3.791,0,4.006,4.006,0,0,0,0,4.318,2.427,2.427,0,0,0,1.9.748,2.3,2.3,0,0,0,1.9-.748" transform="translate(-99.784 -86.171)" fill="#444"/>
        <rect id="Rectangle_5191" data-name="Rectangle 5191" width="0.903" height="10.38" transform="translate(255.743 213.061)" fill="#444"/>
        <path id="Path_25546" data-name="Path 25546" d="M364.354,307.168h0a3.25,3.25,0,0,0,.722,2.241,2.71,2.71,0,0,0,2.076.748,4.069,4.069,0,0,0,2.527-.914l.361.664a2.98,2.98,0,0,1-1.264.664,5.514,5.514,0,0,1-1.624.249,3.923,3.923,0,0,1-2.8-1,3.773,3.773,0,0,1-.993-2.657,4.309,4.309,0,0,1,.451-1.91,3.123,3.123,0,0,1,1.263-1.329,3.551,3.551,0,0,1,1.9-.5,3.119,3.119,0,0,1,2.347.913,3.52,3.52,0,0,1,.812,2.491V307h-5.777Zm.9-2.325a2.5,2.5,0,0,0-.813,1.661h4.875a2.436,2.436,0,0,0-.723-1.661,2.142,2.142,0,0,0-1.624-.581,2.6,2.6,0,0,0-1.715.581" transform="translate(-104.639 -87.381)" fill="#444"/>
        <path id="Path_25547" data-name="Path 25547" d="M375.149,310.024l.361-.664a4.627,4.627,0,0,0,1.264.664,4.051,4.051,0,0,0,1.444.166,2.443,2.443,0,0,0,1.444-.332.941.941,0,0,0,.542-.914.784.784,0,0,0-.361-.747,2.126,2.126,0,0,0-1.084-.416l-1.263-.249a2.6,2.6,0,0,1-1.444-.747,1.58,1.58,0,0,1-.542-1.163,1.839,1.839,0,0,1,.812-1.495,3.758,3.758,0,0,1,2.076-.581,4.553,4.553,0,0,1,1.535.248,5.2,5.2,0,0,1,1.173.665l-.361.664a3.508,3.508,0,0,0-2.347-.831,1.992,1.992,0,0,0-1.354.332.946.946,0,0,0-.451.914.965.965,0,0,0,.271.747,2.112,2.112,0,0,0,.993.415l1.354.333c1.354.249,2.076.913,2.076,1.91a1.6,1.6,0,0,1-.812,1.412,4.1,4.1,0,0,1-2.166.581,4.662,4.662,0,0,1-3.159-.914" transform="translate(-108.034 -87.414)" fill="#444"/>
        <path id="Path_25548" data-name="Path 25548" d="M162.587,342.075H156.72l-1.264,2.657h-.993l4.783-10.047h.9l4.784,10.047h-.993Zm-.361-.83-2.617-5.564-2.618,5.564Z" transform="translate(-44.482 -96.381)" fill="#444"/>
        <path id="Path_25549" data-name="Path 25549" d="M177.6,341.323v4.484h-.9v-4.484a2.589,2.589,0,0,0-.451-1.578,1.86,1.86,0,0,0-1.444-.5,3.063,3.063,0,0,0-1.9.664,2.008,2.008,0,0,0-.722,1.744v4.069h-.9v-5.149a13.635,13.635,0,0,0-.09-1.993h.9l.09,1.329a2.618,2.618,0,0,1,1.083-1.079,3.322,3.322,0,0,1,1.624-.415,2.6,2.6,0,0,1,2.708,2.906" transform="translate(-49.3 -97.456)" fill="#444"/>
        <path id="Path_25550" data-name="Path 25550" d="M190.153,341.323v4.484h-.9v-4.484a2.589,2.589,0,0,0-.451-1.578,1.86,1.86,0,0,0-1.444-.5,3.063,3.063,0,0,0-1.9.664,2.007,2.007,0,0,0-.721,1.744v4.069h-.9v-5.149a13.534,13.534,0,0,0-.09-1.993h.9l.09,1.329a2.612,2.612,0,0,1,1.082-1.079,3.323,3.323,0,0,1,1.625-.415,2.651,2.651,0,0,1,2.707,2.906" transform="translate(-52.914 -97.456)" fill="#444"/>
        <path id="Path_25551" data-name="Path 25551" d="M202.358,338.849v7.058h-.9v-1.329a2.411,2.411,0,0,1-1.082,1,3.178,3.178,0,0,1-1.534.332,3.035,3.035,0,0,1-2.076-.665,2.808,2.808,0,0,1-.723-2.076v-4.4h.9v4.4a2.591,2.591,0,0,0,.451,1.578,1.862,1.862,0,0,0,1.445.5,2.64,2.64,0,0,0,1.8-.664,2.226,2.226,0,0,0,.632-1.744v-3.986Z" transform="translate(-56.455 -97.556)" fill="#444"/>
        <path id="Path_25552" data-name="Path 25552" d="M214.779,338.85v7.058h-.9V344.58a2.017,2.017,0,0,1-.993,1.079,3.328,3.328,0,0,1-1.625.415,4.09,4.09,0,0,1-1.8-.415,3.193,3.193,0,0,1-1.173-1.246,4.3,4.3,0,0,1-.451-1.91,4.034,4.034,0,0,1,.451-1.91,3.533,3.533,0,0,1,1.173-1.329,3.237,3.237,0,0,1,1.8-.5,3.32,3.32,0,0,1,1.625.332,2.019,2.019,0,0,1,.993,1.08v-1.246h.9Zm-1.534,5.646a4.006,4.006,0,0,0,0-4.318,2.776,2.776,0,0,0-3.791,0,4.006,4.006,0,0,0,0,4.318,2.778,2.778,0,0,0,3.791,0" transform="translate(-59.85 -97.556)" fill="#444"/>
        <rect id="Rectangle_5192" data-name="Rectangle 5192" width="0.903" height="10.38" transform="translate(157.546 237.972)" fill="#444"/>
        <path id="Path_25553" data-name="Path 25553" d="M238.515,342.075h-5.866l-1.264,2.657h-.993l4.783-10.047h.9l4.784,10.047h-.993Zm-.361-.83-2.617-5.564-2.618,5.564Z" transform="translate(-66.347 -96.381)" fill="#444"/>
        <path id="Path_25554" data-name="Path 25554" d="M246.49,345.01l.361-.664a4.644,4.644,0,0,0,1.263.664,4.053,4.053,0,0,0,1.445.166,2.442,2.442,0,0,0,1.443-.332.941.941,0,0,0,.542-.914.786.786,0,0,0-.361-.748,2.132,2.132,0,0,0-1.084-.415l-1.263-.249a2.6,2.6,0,0,1-1.443-.747,1.577,1.577,0,0,1-.542-1.163,1.837,1.837,0,0,1,.812-1.495,3.76,3.76,0,0,1,2.076-.582,4.552,4.552,0,0,1,1.535.249,5.191,5.191,0,0,1,1.173.664l-.361.664a3.51,3.51,0,0,0-2.347-.83,2,2,0,0,0-1.354.332.947.947,0,0,0-.451.914.965.965,0,0,0,.271.748,2.123,2.123,0,0,0,.993.415l1.354.332c1.354.249,2.076.913,2.076,1.91a1.6,1.6,0,0,1-.812,1.411,4.092,4.092,0,0,1-2.166.582,5,5,0,0,1-3.159-.914" transform="translate(-70.983 -97.489)" fill="#444"/>
        <path id="Path_25555" data-name="Path 25555" d="M257.138,345.01l.361-.664a4.644,4.644,0,0,0,1.263.664,4.052,4.052,0,0,0,1.445.166,2.446,2.446,0,0,0,1.444-.332.941.941,0,0,0,.541-.914.785.785,0,0,0-.361-.748,2.129,2.129,0,0,0-1.083-.415l-1.264-.249a2.6,2.6,0,0,1-1.443-.747,1.577,1.577,0,0,1-.542-1.163,1.837,1.837,0,0,1,.812-1.495,3.763,3.763,0,0,1,2.076-.582,4.551,4.551,0,0,1,1.534.249,5.211,5.211,0,0,1,1.173.664l-.362.664a3.508,3.508,0,0,0-2.346-.83,1.994,1.994,0,0,0-1.354.332.945.945,0,0,0-.451.914.965.965,0,0,0,.271.748,2.126,2.126,0,0,0,.993.415l1.354.332c1.354.249,2.076.913,2.076,1.91a1.6,1.6,0,0,1-.812,1.411,4.092,4.092,0,0,1-2.166.582,4.827,4.827,0,0,1-3.159-.914" transform="translate(-74.049 -97.489)" fill="#444"/>
        <path id="Path_25556" data-name="Path 25556" d="M268.778,342.154h0a3.251,3.251,0,0,0,.722,2.242,2.71,2.71,0,0,0,2.076.747,4.072,4.072,0,0,0,2.527-.913l.361.664a2.988,2.988,0,0,1-1.264.664,5.513,5.513,0,0,1-1.624.248,3.92,3.92,0,0,1-2.8-1,3.771,3.771,0,0,1-.993-2.657,4.308,4.308,0,0,1,.451-1.91,3.123,3.123,0,0,1,1.263-1.329,3.551,3.551,0,0,1,1.9-.5,3.119,3.119,0,0,1,2.347.914,3.519,3.519,0,0,1,.812,2.491v.166h-5.777Zm.9-2.325a2.5,2.5,0,0,0-.813,1.66h4.874a2.436,2.436,0,0,0-.723-1.66,2.142,2.142,0,0,0-1.624-.581,2.785,2.785,0,0,0-1.715.581" transform="translate(-77.115 -97.456)" fill="#444"/>
        <path id="Path_25557" data-name="Path 25557" d="M279.573,345.01l.362-.664a4.644,4.644,0,0,0,1.263.664,4.052,4.052,0,0,0,1.445.166,2.442,2.442,0,0,0,1.443-.332.941.941,0,0,0,.542-.914.786.786,0,0,0-.361-.748,2.133,2.133,0,0,0-1.084-.415l-1.263-.249a2.605,2.605,0,0,1-1.444-.747,1.579,1.579,0,0,1-.541-1.163,1.837,1.837,0,0,1,.812-1.495,3.76,3.76,0,0,1,2.076-.582,4.552,4.552,0,0,1,1.535.249,5.191,5.191,0,0,1,1.173.664l-.361.664a3.51,3.51,0,0,0-2.347-.83,2,2,0,0,0-1.354.332.947.947,0,0,0-.451.914.965.965,0,0,0,.271.748,2.123,2.123,0,0,0,.993.415l1.353.332c1.354.249,2.076.913,2.076,1.91a1.6,1.6,0,0,1-.812,1.411,4.09,4.09,0,0,1-2.166.582,4.828,4.828,0,0,1-3.159-.914" transform="translate(-80.51 -97.489)" fill="#444"/>
        <path id="Path_25558" data-name="Path 25558" d="M290.221,345.01l.362-.664a4.644,4.644,0,0,0,1.263.664,4.053,4.053,0,0,0,1.445.166,2.442,2.442,0,0,0,1.443-.332.941.941,0,0,0,.542-.914.786.786,0,0,0-.361-.748,2.132,2.132,0,0,0-1.084-.415l-1.263-.249a2.605,2.605,0,0,1-1.444-.747,1.579,1.579,0,0,1-.541-1.163,1.837,1.837,0,0,1,.812-1.495,3.76,3.76,0,0,1,2.076-.582,4.552,4.552,0,0,1,1.535.249,5.192,5.192,0,0,1,1.173.664l-.361.664a3.509,3.509,0,0,0-2.347-.83,2,2,0,0,0-1.354.332.947.947,0,0,0-.451.914.965.965,0,0,0,.271.748,2.123,2.123,0,0,0,.993.415l1.354.332c1.354.249,2.076.913,2.076,1.91a1.6,1.6,0,0,1-.812,1.411,4.089,4.089,0,0,1-2.166.582,4.829,4.829,0,0,1-3.159-.914" transform="translate(-83.576 -97.489)" fill="#444"/>
        <path id="Path_25559" data-name="Path 25559" d="M312.3,341.29v4.484h-.9V341.29a2.418,2.418,0,0,0-.451-1.578,1.653,1.653,0,0,0-1.354-.5,2.059,2.059,0,0,0-1.625.664,2.607,2.607,0,0,0-.632,1.744v4.069h-.9v-4.484a2.419,2.419,0,0,0-.451-1.578,1.654,1.654,0,0,0-1.354-.5A2.058,2.058,0,0,0,303,339.8a2.607,2.607,0,0,0-.631,1.744v4.069h-.9v-5.149a13.516,13.516,0,0,0-.09-1.992h.9l.09,1.245a2.014,2.014,0,0,1,.992-1.079,2.833,2.833,0,0,1,1.445-.333,2.225,2.225,0,0,1,2.346,1.412,2.184,2.184,0,0,1,.993-1,3.175,3.175,0,0,1,1.534-.333,2.585,2.585,0,0,1,2.618,2.906" transform="translate(-86.789 -97.422)" fill="#444"/>
        <path id="Path_25560" data-name="Path 25560" d="M320.495,342.154h0a3.25,3.25,0,0,0,.722,2.242,2.709,2.709,0,0,0,2.076.747,4.072,4.072,0,0,0,2.527-.913l.362.664a2.994,2.994,0,0,1-1.265.664,5.509,5.509,0,0,1-1.624.248,3.92,3.92,0,0,1-2.8-1,3.774,3.774,0,0,1-.993-2.657,4.309,4.309,0,0,1,.451-1.91,3.12,3.12,0,0,1,1.264-1.329,3.547,3.547,0,0,1,1.895-.5,3.12,3.12,0,0,1,2.347.914,3.519,3.519,0,0,1,.812,2.491v.166h-5.777Zm.9-2.325a2.5,2.5,0,0,0-.812,1.66h4.874a2.435,2.435,0,0,0-.722-1.66,2.143,2.143,0,0,0-1.625-.581,2.786,2.786,0,0,0-1.715.581" transform="translate(-92.009 -97.456)" fill="#444"/>
        <path id="Path_25561" data-name="Path 25561" d="M338.206,341.323v4.484h-.9v-4.484a2.589,2.589,0,0,0-.451-1.578,1.862,1.862,0,0,0-1.445-.5,3.063,3.063,0,0,0-1.9.664,2.007,2.007,0,0,0-.721,1.744v4.069h-.9v-5.149a13.537,13.537,0,0,0-.09-1.993h.9l.09,1.329a2.612,2.612,0,0,1,1.082-1.079,3.322,3.322,0,0,1,1.625-.415,2.6,2.6,0,0,1,2.708,2.906" transform="translate(-95.55 -97.456)" fill="#444"/>
        <path id="Path_25562" data-name="Path 25562" d="M345.262,338.607v4.235c0,.581.09,1,.361,1.163a1.811,1.811,0,0,0,1.083.332,2.828,2.828,0,0,0,.812-.166v.747a4,4,0,0,1-.993.083,2.663,2.663,0,0,1-1.624-.5,2.009,2.009,0,0,1-.542-1.578v-4.4h-1.534v-.664h1.534v-1.91l.9-.332v2.242h2.256v.664h-2.256Z" transform="translate(-98.725 -96.65)" fill="#444"/>
        <line id="Line_503" data-name="Line 503" y2="39.36" transform="translate(89.314 197.449)" fill="none" stroke="#0a90b7" stroke-miterlimit="10" stroke-width="0.912"/>
        <path id="Path_25563" data-name="Path 25563" d="M68.513,19.984V54.2H289.126V49.463l13.087,6.227L289.126,62V57.1H65.149V17.161H336.51l9.476,19.929L336.51,57.1H309.433V54.2h24.64l.542-.83,6.949-15.694.361-.582-.361-.5-7.04-15.777-.451-.831Z" transform="translate(-18.761 -4.942)" fill="#1294c2"/>
        <path id="Path_25564" data-name="Path 25564" d="M98.649,44.367c0-3.156,2.617-5.4,6.137-5.4A6.24,6.24,0,0,1,109.48,40.8l-1.715,1.412a3.682,3.682,0,0,0-2.889-1.246,3.333,3.333,0,1,0,0,6.643,3.814,3.814,0,0,0,2.889-1.245l1.715,1.411a5.994,5.994,0,0,1-4.694,1.91c-3.52.083-6.137-2.159-6.137-5.315" transform="translate(-28.408 -11.222)" fill="#0a90b7"/>
        <path id="Path_25565" data-name="Path 25565" d="M114.746,46.62c0-2.408,2.076-4.153,4.784-4.153s4.783,1.744,4.783,4.153-1.985,4.152-4.783,4.152-4.784-1.744-4.784-4.152m7.04,0a2.256,2.256,0,1,0-2.256,2.241,2.183,2.183,0,0,0,2.256-2.241" transform="translate(-33.044 -12.229)" fill="#0a90b7"/>
        <path id="Path_25566" data-name="Path 25566" d="M139.527,46.005v4.567H137V46.337c0-1.328-.632-1.91-1.8-1.91a1.9,1.9,0,0,0-2.076,2.159v3.986h-2.528V42.518h2.437v.914a4.2,4.2,0,0,1,2.889-1.079c2.076.083,3.61,1.162,3.61,3.653" transform="translate(-37.607 -12.196)" fill="#0a90b7"/>
        <path id="Path_25567" data-name="Path 25567" d="M151.594,49.452a3.993,3.993,0,0,1-2.076.5c-2.076,0-3.25-1-3.25-2.906V43.722h-1.354V41.895h1.354V39.9H148.8v1.993h2.166v1.91H148.8v3.238a1.022,1.022,0,0,0,1.084,1.079,1.429,1.429,0,0,0,.993-.333Z" transform="translate(-41.732 -11.491)" fill="#0a90b7"/>
        <path id="Path_25568" data-name="Path 25568" d="M155.943,38.666a1.4,1.4,0,0,1,1.534-1.329c.9,0,1.534.5,1.534,1.245a1.4,1.4,0,0,1-1.534,1.329,1.3,1.3,0,0,1-1.534-1.245m.271,2.408h2.527v8.055h-2.527Z" transform="translate(-44.908 -10.752)" fill="#0a90b7"/>
        <path id="Path_25569" data-name="Path 25569" d="M172.1,46.005v4.567h-2.527V46.337c0-1.328-.632-1.91-1.805-1.91a1.9,1.9,0,0,0-2.076,2.159v3.986h-2.527V42.518h2.437v.914a4.2,4.2,0,0,1,2.888-1.079c2.076.083,3.61,1.162,3.61,3.653" transform="translate(-46.988 -12.196)" fill="#0a90b7"/>
        <path id="Path_25570" data-name="Path 25570" d="M187.731,42.551v8.055h-2.437v-1a3.753,3.753,0,0,1-2.708,1.079,3.352,3.352,0,0,1-3.7-3.653V42.468h2.528V46.7c0,1.329.632,1.91,1.8,1.91s1.985-.664,1.985-2.16V42.468h2.527Z" transform="translate(-51.515 -12.23)" fill="#0a90b7"/>
        <path id="Path_25571" data-name="Path 25571" d="M193.717,46.62c0-2.408,2.076-4.153,4.783-4.153s4.784,1.744,4.784,4.153-1.986,4.152-4.784,4.152-4.783-1.744-4.783-4.152m7.04,0a2.256,2.256,0,1,0-2.256,2.241,2.183,2.183,0,0,0,2.256-2.241" transform="translate(-55.786 -12.229)" fill="#0a90b7"/>
        <path id="Path_25572" data-name="Path 25572" d="M218.407,42.551v8.055H215.97v-1a3.753,3.753,0,0,1-2.708,1.079,3.352,3.352,0,0,1-3.7-3.653V42.468h2.527V46.7c0,1.329.632,1.91,1.8,1.91s1.986-.664,1.986-2.16V42.468h2.527Z" transform="translate(-60.349 -12.23)" fill="#0a90b7"/>
        <path id="Path_25573" data-name="Path 25573" d="M224.139,49.858l.812-1.66a6.156,6.156,0,0,0,3.068.747c1.174,0,1.625-.248,1.625-.747,0-1.329-5.325,0-5.325-3.156,0-1.495,1.534-2.574,4.061-2.574a8.15,8.15,0,0,1,3.339.664l-.812,1.66a5.891,5.891,0,0,0-2.528-.581c-1.173,0-1.624.333-1.624.748,0,1.411,5.325.083,5.325,3.238,0,1.495-1.534,2.574-4.152,2.574a7.78,7.78,0,0,1-3.79-.914" transform="translate(-64.546 -12.23)" fill="#0a90b7"/>
        <path id="Path_25574" data-name="Path 25574" d="M254.455,49.665V43.355L251.116,48.5h-1.174L246.6,43.437v6.145h-2.437V39.2h2.166l4.242,6.477,4.152-6.477h2.166V49.665Z" transform="translate(-70.314 -11.289)" fill="#0a90b7"/>
        <path id="Path_25575" data-name="Path 25575" d="M264.7,46.62c0-2.408,2.076-4.153,4.783-4.153s4.783,1.744,4.783,4.153-1.985,4.152-4.783,4.152S264.7,49.028,264.7,46.62m7.04,0a2.256,2.256,0,1,0-2.256,2.241,2.183,2.183,0,0,0,2.256-2.241" transform="translate(-76.227 -12.229)" fill="#0a90b7"/>
        <path id="Path_25576" data-name="Path 25576" d="M289.481,46.005v4.567h-2.528V46.337c0-1.328-.632-1.91-1.8-1.91a1.9,1.9,0,0,0-2.076,2.159v3.986h-2.528V42.518h2.437v.914a4.2,4.2,0,0,1,2.888-1.079c2.076.083,3.611,1.162,3.611,3.653" transform="translate(-80.79 -12.196)" fill="#0a90b7"/>
        <path id="Path_25577" data-name="Path 25577" d="M295.883,38.666a1.4,1.4,0,0,1,1.534-1.329c.9,0,1.534.5,1.534,1.245a1.4,1.4,0,0,1-1.534,1.329c-.9,0-1.534-.5-1.534-1.245m.361,2.408h2.528v8.055h-2.528Z" transform="translate(-85.207 -10.752)" fill="#0a90b7"/>
        <path id="Path_25578" data-name="Path 25578" d="M308.393,49.452a3.993,3.993,0,0,1-2.076.5c-2.076,0-3.25-1-3.25-2.906V43.722h-1.354V41.895h1.354V39.9h2.527v1.993h2.167v1.91h-2.167v3.238a1.022,1.022,0,0,0,1.084,1.079,1.429,1.429,0,0,0,.993-.333Z" transform="translate(-86.886 -11.491)" fill="#0a90b7"/>
        <path id="Path_25579" data-name="Path 25579" d="M311.854,46.62c0-2.408,2.076-4.153,4.783-4.153s4.784,1.744,4.784,4.153-1.986,4.152-4.784,4.152-4.783-1.744-4.783-4.152m7.04,0a2.256,2.256,0,1,0-2.256,2.241,2.183,2.183,0,0,0,2.256-2.241" transform="translate(-89.806 -12.229)" fill="#0a90b7"/>
        <path id="Path_25580" data-name="Path 25580" d="M333.115,42.468v2.159h-.542a2.08,2.08,0,0,0-2.347,2.242v3.82H327.7V42.634h2.436v1.08a3.5,3.5,0,0,1,2.979-1.246" transform="translate(-94.369 -12.23)" fill="#0a90b7"/>
        <path id="Path_25581" data-name="Path 25581" d="M336.952,38.666a1.4,1.4,0,0,1,1.535-1.329c.9,0,1.534.5,1.534,1.245a1.4,1.4,0,0,1-1.534,1.329c-.9,0-1.535-.5-1.535-1.245m.362,2.408h2.527v8.055h-2.527Z" transform="translate(-97.034 -10.752)" fill="#0a90b7"/>
        <path id="Path_25582" data-name="Path 25582" d="M353.24,46.005v4.567h-2.528V46.337c0-1.328-.632-1.91-1.8-1.91a1.9,1.9,0,0,0-2.076,2.159v3.986H344.3V42.518h2.437v.914a4.2,4.2,0,0,1,2.889-1.079c2.076.083,3.61,1.162,3.61,3.653" transform="translate(-99.151 -12.196)" fill="#0a90b7"/>
        <path id="Path_25583" data-name="Path 25583" d="M368.882,42.584V49.31c0,2.989-1.715,4.4-4.874,4.4a8.685,8.685,0,0,1-4.333-1.079l.993-1.661a5.29,5.29,0,0,0,3.068.914c1.8,0,2.527-.748,2.527-2.159v-.333a3.774,3.774,0,0,1-2.8,1c-2.437,0-4.333-1.578-4.333-3.9a4.054,4.054,0,0,1,4.333-3.9,3.635,3.635,0,0,1,2.888,1.163v-1h2.528Zm-2.437,3.82a2.087,2.087,0,0,0-2.256-1.993,2.02,2.02,0,1,0,0,3.986,2.14,2.14,0,0,0,2.256-1.993" transform="translate(-103.422 -12.263)" fill="#0a90b7"/>
        <path id="Path_25584" data-name="Path 25584" d="M120.24,265.528c6.231,0,11.282,4.647,11.282,10.38s-5.051,10.38-11.282,10.38-11.282-4.647-11.282-10.38,5.051-10.38,11.282-10.38" transform="translate(-31.377 -76.465)" fill="#0a90b7"/>
        <path id="Path_25585" data-name="Path 25585" d="M124.923,274.529a.594.594,0,0,1-.632-.581v-3.4h-5.776a1.372,1.372,0,0,0-1.444,1.329v10.878a1.372,1.372,0,0,0,1.444,1.329h8.574a1.372,1.372,0,0,0,1.444-1.329v-8.22Z" transform="translate(-33.714 -77.91)" fill="#fff"/>
        <path id="Path_25586" data-name="Path 25586" d="M127.88,274.529h3.79l-4.332-3.986v3.488a.5.5,0,0,0,.542.5" transform="translate(-36.67 -77.91)" fill="#ababab"/>
        <path id="Path_25587" data-name="Path 25587" d="M131.8,279v-2.741h-3.7Z" transform="translate(-36.889 -79.555)" fill="#f2f2f2"/>
        <path id="Path_25588" data-name="Path 25588" d="M120.24,326.755c6.231,0,11.282,4.647,11.282,10.38s-5.051,10.38-11.282,10.38-11.282-4.647-11.282-10.38,5.051-10.38,11.282-10.38" transform="translate(-31.377 -94.097)" fill="#0a90b7"/>
        <path id="Path_25589" data-name="Path 25589" d="M124.923,335.755a.594.594,0,0,1-.632-.581v-3.4h-5.776a1.372,1.372,0,0,0-1.444,1.329v10.878a1.372,1.372,0,0,0,1.444,1.329h8.574a1.372,1.372,0,0,0,1.444-1.329v-8.22Z" transform="translate(-33.714 -95.541)" fill="#fff"/>
        <path id="Path_25590" data-name="Path 25590" d="M127.88,335.755h3.79l-4.332-3.986v3.487a.561.561,0,0,0,.542.5" transform="translate(-36.67 -95.541)" fill="#ababab"/>
        <path id="Path_25591" data-name="Path 25591" d="M131.8,340.19v-2.823h-3.7Z" transform="translate(-36.889 -97.153)" fill="#f2f2f2"/>
      </g>
    </g>
    <g id="Group_8363" data-name="Group 8363">
      <g id="Group_8362" data-name="Group 8362" clip-path="url(#clip-path)">
        <g id="Group_8361" data-name="Group 8361" transform="translate(33.772)" opacity="0.61" style="isolation: isolate">
          <g id="Group_8360" data-name="Group 8360">
            <g id="Group_8359" data-name="Group 8359" clip-path="url(#clip-path-4)">
              <rect id="Rectangle_5194" data-name="Rectangle 5194" width="305.088" height="286.383" transform="translate(0)" fill="#0a90b7"/>
            </g>
          </g>
        </g>
      </g>
    </g>
    <g id="Group_8368" data-name="Group 8368">
      <g id="Group_8367" data-name="Group 8367" clip-path="url(#clip-path)">
        <g id="Group_8366" data-name="Group 8366" transform="translate(33.095 179.909)" opacity="0.61" style="isolation: isolate">
          <g id="Group_8365" data-name="Group 8365">
            <g id="Group_8364" data-name="Group 8364" clip-path="url(#clip-path-6)">
              <rect id="Rectangle_5197" data-name="Rectangle 5197" width="305.584" height="80.798" transform="translate(0)" fill="#0a90b7"/>
            </g>
          </g>
        </g>
      </g>
    </g>
    <path id="Path_25592" data-name="Path 25592" d="M0,351.011l33.635,20.612V351.011Z" transform="translate(0 -101.082)" fill="#0a90b7"/>
    <path id="Path_25593" data-name="Path 25593" d="M475.655,351.011v20.612l33.635-20.612Z" transform="translate(-136.977 -101.082)" fill="#0a90b7"/>
    <rect id="Rectangle_5200" data-name="Rectangle 5200" width="371.953" height="197.25" transform="translate(0.361 53.111)" fill="#f2f2f2"/>
    <g id="Group_8370" data-name="Group 8370">
      <g id="Group_8369" data-name="Group 8369" clip-path="url(#clip-path)">
        <path id="Path_25594" data-name="Path 25594" d="M73.4,122.476c0,3.226-2.54,5.117-6.65,5.117H62.754v4.451h-2.3v-14.8h6.288c4.111.111,6.65,2,6.65,5.228m-2.3,0c0-2.113-1.572-3.337-4.474-3.337h-3.87v6.675h3.87c3.023,0,4.474-1.223,4.474-3.337" transform="translate(-17.41 -33.765)" fill="#0a90b7"/>
        <path id="Path_25595" data-name="Path 25595" d="M81.684,127.921c0-3.337,2.66-5.673,6.288-5.673s6.288,2.336,6.288,5.673S91.6,133.6,87.972,133.6s-6.288-2.337-6.288-5.674m10.4,0a3.811,3.811,0,0,0-4.111-3.894,3.877,3.877,0,0,0-4.111,3.894,3.966,3.966,0,0,0,4.111,4.005,3.836,3.836,0,0,0,4.111-4.005" transform="translate(-23.523 -35.204)" fill="#0a90b7"/>
        <path id="Path_25596" data-name="Path 25596" d="M101.894,132.372l.967-1.558a8.428,8.428,0,0,0,4.233,1.113c2.055,0,2.9-.556,2.9-1.558,0-2.558-7.738-.333-7.738-4.783,0-2,1.935-3.337,5.078-3.337a9.378,9.378,0,0,1,4.474,1l-.968,1.558a6.568,6.568,0,0,0-3.507-.89c-1.935,0-2.9.667-2.9,1.557,0,2.671,7.74.445,7.74,4.9,0,2-2.056,3.338-5.321,3.338a8.845,8.845,0,0,1-4.958-1.335" transform="translate(-29.343 -35.204)" fill="#0a90b7"/>
        <path id="Path_25597" data-name="Path 25597" d="M126.613,131.983a4.37,4.37,0,0,1-2.66.779c-2.419,0-3.87-1.224-3.87-3.56v-6.119h-2.056v-1.668h2.056v-2.448h2.177v2.448h3.507v1.668h-3.507V129.2a1.741,1.741,0,0,0,1.935,1.891,3.044,3.044,0,0,0,1.692-.556Z" transform="translate(-33.989 -34.259)" fill="#0a90b7"/>
        <path id="Path_25598" data-name="Path 25598" d="M152.922,128.372h-8.585l-1.814,3.671H140.1l7.255-14.8h2.3l7.256,14.8h-2.419Zm-.847-1.669-3.507-7.231-3.507,7.231Z" transform="translate(-40.347 -33.764)" fill="#0a90b7"/>
        <path id="Path_25599" data-name="Path 25599" d="M178.135,122.4V133.64h-2.056v-1.669a5.167,5.167,0,0,1-4.111,1.78c-3.144,0-5.2-1.557-5.2-4.9V122.4h2.177v6.23c0,2.225,1.209,3.337,3.265,3.337a3.415,3.415,0,0,0,3.748-3.671v-5.785h2.177Z" transform="translate(-48.025 -35.249)" fill="#0a90b7"/>
        <path id="Path_25600" data-name="Path 25600" d="M195.222,131.983a4.37,4.37,0,0,1-2.66.779c-2.419,0-3.87-1.224-3.87-3.56v-6.119h-2.056v-1.668h2.056v-2.448h2.177v2.448h3.507v1.668h-3.507V129.2a1.741,1.741,0,0,0,1.935,1.891,3.046,3.046,0,0,0,1.692-.556Z" transform="translate(-53.747 -34.259)" fill="#0a90b7"/>
        <path id="Path_25601" data-name="Path 25601" d="M214.258,125.388v6.453h-2.177V125.61c0-2.225-1.209-3.226-3.265-3.226-2.3,0-3.869,1.335-3.869,3.671v5.786H202.77V116.154h2.177v6.118A5.461,5.461,0,0,1,209.3,120.6c2.9-.112,4.958,1.446,4.958,4.783" transform="translate(-58.393 -33.449)" fill="#0a90b7"/>
        <path id="Path_25602" data-name="Path 25602" d="M223.49,127.921c0-3.337,2.66-5.673,6.288-5.673s6.288,2.336,6.288,5.673-2.661,5.674-6.288,5.674-6.288-2.337-6.288-5.674m10.4,0a3.811,3.811,0,0,0-4.111-3.894,3.877,3.877,0,0,0-4.111,3.894,3.966,3.966,0,0,0,4.111,4.005,3.837,3.837,0,0,0,4.111-4.005" transform="translate(-64.36 -35.204)" fill="#0a90b7"/>
        <path id="Path_25603" data-name="Path 25603" d="M252.436,122.248v2h-.483c-2.418,0-3.869,1.335-3.869,3.783V133.6h-2.177V122.359h2.056v1.891c.846-1.335,2.3-2,4.474-2" transform="translate(-70.815 -35.204)" fill="#0a90b7"/>
        <path id="Path_25604" data-name="Path 25604" d="M258.644,117.02a1.456,1.456,0,1,1,1.451,1.335c-.726-.111-1.451-.667-1.451-1.335m.362,3.449h2.177v11.236h-2.177Z" transform="translate(-74.483 -33.314)" fill="#0a90b7"/>
        <path id="Path_25605" data-name="Path 25605" d="M277.122,131.815v1.669H266.965v-1.335l7.135-8.233h-7.014v-1.668H277v1.334l-7.134,8.233Z" transform="translate(-76.879 -35.204)" fill="#0a90b7"/>
        <path id="Path_25606" data-name="Path 25606" d="M294.978,126.809V133.6h-2.056v-1.446c-.726,1-2.056,1.557-3.991,1.557-2.781,0-4.474-1.335-4.474-3.338,0-1.78,1.209-3.226,4.837-3.226H292.8V126.7c0-1.668-1.088-2.67-3.265-2.67a6.337,6.337,0,0,0-3.87,1.224l-.967-1.558a8.693,8.693,0,0,1,5.078-1.446c3.265,0,5.2,1.446,5.2,4.562m-2.177,3.337v-1.558h-3.386c-2.176,0-2.78.779-2.78,1.78,0,1.113.967,1.781,2.659,1.781a3.809,3.809,0,0,0,3.507-2" transform="translate(-81.917 -35.204)" fill="#0a90b7"/>
        <path id="Path_25607" data-name="Path 25607" d="M311.385,131.983a4.369,4.369,0,0,1-2.66.779c-2.419,0-3.869-1.224-3.869-3.56v-6.119H302.8v-1.668h2.056v-2.448h2.177v2.448h3.507v1.668h-3.507V129.2a1.741,1.741,0,0,0,1.935,1.891,3.046,3.046,0,0,0,1.693-.556Z" transform="translate(-87.199 -34.259)" fill="#0a90b7"/>
        <path id="Path_25608" data-name="Path 25608" d="M318.423,117.02a1.456,1.456,0,1,1,1.451,1.335,1.5,1.5,0,0,1-1.451-1.335m.363,3.449h2.177v11.236h-2.177Z" transform="translate(-91.698 -33.314)" fill="#0a90b7"/>
        <path id="Path_25609" data-name="Path 25609" d="M326.745,127.921c0-3.337,2.66-5.673,6.288-5.673s6.288,2.336,6.288,5.673-2.661,5.674-6.288,5.674-6.288-2.337-6.288-5.674m10.4,0a3.811,3.811,0,0,0-4.111-3.894,3.877,3.877,0,0,0-4.112,3.894,3.966,3.966,0,0,0,4.112,4.005,3.837,3.837,0,0,0,4.111-4.005" transform="translate(-94.094 -35.204)" fill="#0a90b7"/>
        <path id="Path_25610" data-name="Path 25610" d="M360.649,127.142V133.6h-2.177v-6.231c0-2.225-1.209-3.226-3.265-3.226-2.3,0-3.869,1.335-3.869,3.671V133.6h-2.177V122.359h2.056v1.668a5.344,5.344,0,0,1,4.353-1.78c3.023,0,5.079,1.558,5.079,4.9" transform="translate(-100.55 -35.204)" fill="#0a90b7"/>
        <path id="Path_25611" data-name="Path 25611" d="M133.56,178.34V191.8h-1.209V181.01L127.272,191.8H126.3l-5.2-10.68V191.8H119.9V178.34h1.088l5.8,12.015,5.684-12.015Z" transform="translate(-34.527 -51.358)" fill="#444"/>
        <path id="Path_25612" data-name="Path 25612" d="M145.459,192.976a4.64,4.64,0,0,1-1.692-1.668,5.719,5.719,0,0,1,0-5.118,3.917,3.917,0,0,1,1.692-1.668,4.717,4.717,0,0,1,2.54-.557,5.085,5.085,0,0,1,2.418.557,4.525,4.525,0,0,1,2.3,4.227,5.416,5.416,0,0,1-.605,2.559,3.4,3.4,0,0,1-1.693,1.668,4.54,4.54,0,0,1-2.418.557,6.021,6.021,0,0,1-2.54-.557m4.959-1.446a5.369,5.369,0,0,0,0-5.785,3.721,3.721,0,0,0-5.079,0,5.365,5.365,0,0,0,0,5.785,3.721,3.721,0,0,0,5.079,0" transform="translate(-41.227 -52.977)" fill="#444"/>
        <path id="Path_25613" data-name="Path 25613" d="M168.73,187.234v6.007h-1.209v-6.007a3.466,3.466,0,0,0-.605-2.114,2.493,2.493,0,0,0-1.935-.667,4.1,4.1,0,0,0-2.539.89,2.687,2.687,0,0,0-.967,2.336v5.451h-1.21v-6.9a18.133,18.133,0,0,0-.121-2.67h1.21l.121,1.78a3.5,3.5,0,0,1,1.45-1.446,4.449,4.449,0,0,1,2.177-.557c2.419.223,3.628,1.446,3.628,3.894" transform="translate(-46.117 -52.797)" fill="#444"/>
        <path id="Path_25614" data-name="Path 25614" d="M178.184,183.6v5.673c0,.779.12,1.335.483,1.558a2.424,2.424,0,0,0,1.451.445,3.774,3.774,0,0,0,1.088-.223v1a5.383,5.383,0,0,1-1.33.111,3.572,3.572,0,0,1-2.177-.668,2.692,2.692,0,0,1-.725-2.113v-5.9h-2.056v-.89h2.056v-2.559l1.209-.445v3h3.023v.89h-3.023Z" transform="translate(-50.372 -51.717)" fill="#444"/>
        <path id="Path_25615" data-name="Path 25615" d="M195.271,185.569v6.007h-1.21v-6.007a3.466,3.466,0,0,0-.6-2.114,2.493,2.493,0,0,0-1.935-.667,4.1,4.1,0,0,0-2.539.89,2.688,2.688,0,0,0-.968,2.336v5.451h-1.21V177.559h1.21v6.119a3.5,3.5,0,0,1,1.451-1.446,4.436,4.436,0,0,1,2.177-.445c2.418.111,3.628,1.334,3.628,3.782" transform="translate(-53.795 -51.133)" fill="#444"/>
        <rect id="Rectangle_5201" data-name="Rectangle 5201" width="1.209" height="13.907" transform="translate(144.861 126.537)" fill="#444"/>
        <path id="Path_25616" data-name="Path 25616" d="M218.242,183.965,213.4,194.423a5.173,5.173,0,0,1-1.814,2.225,8.024,8.024,0,0,1-2.659,1l-.242-.89a6.6,6.6,0,0,0,2.177-.778,3.346,3.346,0,0,0,1.209-1.558l.484-.89-4.354-9.456h1.33l3.749,8.344,3.749-8.344h1.209Z" transform="translate(-59.958 -52.977)" fill="#444"/>
        <path id="Path_25617" data-name="Path 25617" d="M235.125,191.135a5.573,5.573,0,0,1-2.3-2.336,8.358,8.358,0,0,1-.847-3.671,6.973,6.973,0,0,1,.847-3.671,5.574,5.574,0,0,1,2.3-2.337,7.02,7.02,0,0,1,3.507-.778,7.643,7.643,0,0,1,2.781.445,6.907,6.907,0,0,1,2.177,1.335l-.483.89a8.44,8.44,0,0,0-2.056-1.224,7.046,7.046,0,0,0-2.3-.334,4.869,4.869,0,0,0-3.87,1.558,7.466,7.466,0,0,0-.121,8.677,5.141,5.141,0,0,0,3.991,1.557,7.069,7.069,0,0,0,2.3-.333,6.69,6.69,0,0,0,2.056-1.224l.484.89a6.933,6.933,0,0,1-2.177,1.335,7.661,7.661,0,0,1-2.781.445,20.443,20.443,0,0,1-3.507-1.224" transform="translate(-66.805 -51.358)" fill="#444"/>
        <path id="Path_25618" data-name="Path 25618" d="M253.3,192.976a4.643,4.643,0,0,1-1.693-1.668,5.725,5.725,0,0,1,0-5.118,3.922,3.922,0,0,1,1.693-1.668,4.713,4.713,0,0,1,2.54-.557,5.087,5.087,0,0,1,2.417.557,4.523,4.523,0,0,1,2.3,4.227,5.424,5.424,0,0,1-.6,2.559,3.4,3.4,0,0,1-1.693,1.668,4.541,4.541,0,0,1-2.417.557,6.011,6.011,0,0,1-2.54-.557m5.079-1.446a5.372,5.372,0,0,0,0-5.785,3.721,3.721,0,0,0-5.079,0,5.365,5.365,0,0,0,0,5.785,3.721,3.721,0,0,0,5.079,0" transform="translate(-72.283 -52.977)" fill="#444"/>
        <path id="Path_25619" data-name="Path 25619" d="M276.74,187.234v6.007h-1.209v-6.007a3.466,3.466,0,0,0-.605-2.114,2.492,2.492,0,0,0-1.935-.667,4.1,4.1,0,0,0-2.539.89,2.689,2.689,0,0,0-.967,2.336v5.451h-1.21v-6.9a18.131,18.131,0,0,0-.121-2.67h1.21l.121,1.78a3.5,3.5,0,0,1,1.45-1.446,4.449,4.449,0,0,1,2.177-.557c2.419.223,3.628,1.446,3.628,3.894" transform="translate(-77.222 -52.797)" fill="#444"/>
        <path id="Path_25620" data-name="Path 25620" d="M286.025,183.6v5.673c0,.779.121,1.335.484,1.558a2.419,2.419,0,0,0,1.45.445,3.778,3.778,0,0,0,1.089-.223v1a5.388,5.388,0,0,1-1.33.111,3.572,3.572,0,0,1-2.177-.668,2.694,2.694,0,0,1-.725-2.113v-5.9H282.76v-.89h2.056v-2.559l1.209-.445v3h3.023v.89h-3.023Z" transform="translate(-81.428 -51.717)" fill="#444"/>
        <path id="Path_25621" data-name="Path 25621" d="M296,179.943h-1.693V178.5H296Zm-1.451,2.447h1.209v9.456H294.55Z" transform="translate(-84.753 -51.403)" fill="#444"/>
        <path id="Path_25622" data-name="Path 25622" d="M309.686,187.234v6.007h-1.209v-6.007a3.47,3.47,0,0,0-.6-2.114,2.5,2.5,0,0,0-1.935-.667,4.1,4.1,0,0,0-2.539.89,2.689,2.689,0,0,0-.967,2.336v5.451h-1.21v-6.9a18.136,18.136,0,0,0-.121-2.67h1.21l.121,1.78a3.5,3.5,0,0,1,1.451-1.446,4.446,4.446,0,0,1,2.176-.557c2.419.223,3.628,1.446,3.628,3.894" transform="translate(-86.709 -52.797)" fill="#444"/>
        <path id="Path_25623" data-name="Path 25623" d="M326.039,183.92v9.456H324.83V191.6a3.251,3.251,0,0,1-1.451,1.335,4.256,4.256,0,0,1-2.056.445,4.074,4.074,0,0,1-2.781-.89,3.762,3.762,0,0,1-.968-2.781v-5.9h1.21v5.9a3.463,3.463,0,0,0,.6,2.113,2.5,2.5,0,0,0,1.935.668,3.536,3.536,0,0,0,2.419-.89,2.983,2.983,0,0,0,.847-2.336v-5.34Z" transform="translate(-91.453 -52.932)" fill="#444"/>
        <path id="Path_25624" data-name="Path 25624" d="M335.666,192.976a4.637,4.637,0,0,1-1.693-1.668,5.725,5.725,0,0,1,0-5.118,3.918,3.918,0,0,1,1.693-1.668,4.716,4.716,0,0,1,2.54-.557,5.089,5.089,0,0,1,2.418.557,4.526,4.526,0,0,1,2.3,4.227,5.416,5.416,0,0,1-.605,2.559,3.4,3.4,0,0,1-1.692,1.668,4.543,4.543,0,0,1-2.418.557,6.016,6.016,0,0,1-2.54-.557m4.958-1.446a5.369,5.369,0,0,0,0-5.785,3.721,3.721,0,0,0-5.079,0,5.369,5.369,0,0,0,0,5.785,3.721,3.721,0,0,0,5.079,0" transform="translate(-96.002 -52.977)" fill="#444"/>
        <path id="Path_25625" data-name="Path 25625" d="M358.815,183.92v9.456h-1.209V191.6a3.247,3.247,0,0,1-1.451,1.335,4.254,4.254,0,0,1-2.056.445,4.075,4.075,0,0,1-2.781-.89,3.765,3.765,0,0,1-.968-2.781v-5.9h1.21v5.9a3.468,3.468,0,0,0,.6,2.113,2.5,2.5,0,0,0,1.935.668,3.536,3.536,0,0,0,2.418-.89,2.983,2.983,0,0,0,.847-2.336v-5.34Z" transform="translate(-100.892 -52.932)" fill="#444"/>
        <path id="Path_25626" data-name="Path 25626" d="M366.145,192.174l.483-.89a6.209,6.209,0,0,0,1.693.89,5.425,5.425,0,0,0,1.934.222,3.277,3.277,0,0,0,1.935-.444,1.26,1.26,0,0,0,.726-1.224,1.052,1.052,0,0,0-.483-1,2.844,2.844,0,0,0-1.451-.556l-1.693-.334a3.5,3.5,0,0,1-1.935-1,2.116,2.116,0,0,1-.726-1.558,2.46,2.46,0,0,1,1.089-2,5.039,5.039,0,0,1,2.78-.779,6.083,6.083,0,0,1,2.056.334,6.955,6.955,0,0,1,1.571.89l-.483.89A4.7,4.7,0,0,0,370.5,184.5a2.667,2.667,0,0,0-1.814.445,1.268,1.268,0,0,0-.6,1.224,1.293,1.293,0,0,0,.363,1,2.83,2.83,0,0,0,1.33.556l1.814.445c1.813.334,2.78,1.224,2.78,2.559a2.143,2.143,0,0,1-1.088,1.891,5.484,5.484,0,0,1-2.9.779,6.464,6.464,0,0,1-4.232-1.224" transform="translate(-105.441 -52.843)" fill="#444"/>
        <path id="Path_25627" data-name="Path 25627" d="M133.56,214.277v13.462h-1.209V216.948l-5.079,10.791H126.3l-5.2-10.68v10.68H119.9V214.277h1.088l5.8,12.015,5.684-12.015Z" transform="translate(-34.527 -61.707)" fill="#444"/>
        <path id="Path_25628" data-name="Path 25628" d="M145.459,228.913a4.64,4.64,0,0,1-1.692-1.668,5.719,5.719,0,0,1,0-5.118,3.916,3.916,0,0,1,1.692-1.668A4.717,4.717,0,0,1,148,219.9a5.085,5.085,0,0,1,2.418.557,4.525,4.525,0,0,1,2.3,4.227,5.416,5.416,0,0,1-.605,2.559,3.4,3.4,0,0,1-1.693,1.668,4.54,4.54,0,0,1-2.418.557,6.021,6.021,0,0,1-2.54-.557m4.959-1.446a5.369,5.369,0,0,0,0-5.785,3.721,3.721,0,0,0-5.079,0,5.365,5.365,0,0,0,0,5.785,3.721,3.721,0,0,0,5.079,0" transform="translate(-41.227 -63.326)" fill="#444"/>
        <path id="Path_25629" data-name="Path 25629" d="M168.73,223.171v6.007h-1.209v-6.007a3.466,3.466,0,0,0-.605-2.114,2.493,2.493,0,0,0-1.935-.667,4.1,4.1,0,0,0-2.539.89,2.687,2.687,0,0,0-.967,2.336v5.451h-1.21v-6.9a18.133,18.133,0,0,0-.121-2.67h1.21l.121,1.78a3.5,3.5,0,0,1,1.45-1.446,4.449,4.449,0,0,1,2.177-.557c2.419.223,3.628,1.446,3.628,3.894" transform="translate(-46.117 -63.146)" fill="#444"/>
        <path id="Path_25630" data-name="Path 25630" d="M178.48,215.88h-1.693v-1.446h1.693Zm-1.572,2.447h1.209v9.456h-1.209Z" transform="translate(-50.91 -61.752)" fill="#444"/>
        <path id="Path_25631" data-name="Path 25631" d="M184.808,219.532v5.673c0,.779.121,1.335.483,1.558a2.424,2.424,0,0,0,1.451.445,3.769,3.769,0,0,0,1.088-.223v1a5.379,5.379,0,0,1-1.329.111,3.572,3.572,0,0,1-2.177-.668,2.7,2.7,0,0,1-.725-2.113v-5.9h-2.056v-.89H183.6v-2.559l1.209-.445v3h3.023v.89h-3.023Z" transform="translate(-52.28 -62.066)" fill="#444"/>
        <path id="Path_25632" data-name="Path 25632" d="M194.709,228.913a4.635,4.635,0,0,1-1.692-1.668,5.719,5.719,0,0,1,0-5.118,3.917,3.917,0,0,1,1.692-1.668,4.717,4.717,0,0,1,2.54-.557,5.087,5.087,0,0,1,2.418.557,4.523,4.523,0,0,1,2.3,4.227,5.416,5.416,0,0,1-.6,2.559,3.4,3.4,0,0,1-1.693,1.668,4.54,4.54,0,0,1-2.418.557,5.621,5.621,0,0,1-2.54-.557m4.958-1.446a5.365,5.365,0,0,0,0-5.785,3.72,3.72,0,0,0-5.078,0,5.365,5.365,0,0,0,0,5.785,3.72,3.72,0,0,0,5.078,0" transform="translate(-55.41 -63.326)" fill="#444"/>
        <path id="Path_25633" data-name="Path 25633" d="M214.835,219.5l-.121,1c-.242,0-.6-.111-.967-.111a2.854,2.854,0,0,0-2.3.89,3.335,3.335,0,0,0-.726,2.225v5.562h-1.21v-6.9a18.245,18.245,0,0,0-.12-2.67h1.21l.12,1.78a3.026,3.026,0,0,1,1.21-1.446,3.875,3.875,0,0,1,1.935-.556,1.958,1.958,0,0,0,.967.222" transform="translate(-60.3 -63.147)" fill="#444"/>
        <path id="Path_25634" data-name="Path 25634" d="M221.106,215.88h-1.692v-1.446h1.692Zm-1.571,2.447h1.209v9.456h-1.209Z" transform="translate(-63.186 -61.752)" fill="#444"/>
        <path id="Path_25635" data-name="Path 25635" d="M234.623,223.171v6.007h-1.209v-6.007a3.466,3.466,0,0,0-.605-2.114,2.492,2.492,0,0,0-1.935-.667,4.1,4.1,0,0,0-2.539.89,2.689,2.689,0,0,0-.967,2.336v5.451h-1.21v-6.9a18.135,18.135,0,0,0-.121-2.67h1.21l.121,1.78a3.5,3.5,0,0,1,1.451-1.446,4.446,4.446,0,0,1,2.176-.557c2.419.223,3.628,1.446,3.628,3.894" transform="translate(-65.093 -63.146)" fill="#444"/>
        <path id="Path_25636" data-name="Path 25636" d="M251.385,219.9v9.568a4.149,4.149,0,0,1-1.089,3.114,4.694,4.694,0,0,1-3.265,1.113,7.5,7.5,0,0,1-3.99-1l.242-1a11.713,11.713,0,0,0,1.814.779,9.112,9.112,0,0,0,1.935.223,2.821,2.821,0,0,0,2.3-.779,3.194,3.194,0,0,0,.846-2.225v-2.447a2.931,2.931,0,0,1-1.451,1.446,4.445,4.445,0,0,1-2.176.556,5.889,5.889,0,0,1-2.419-.556,5.8,5.8,0,0,1-1.693-1.669,5.263,5.263,0,0,1,0-4.9,4.637,4.637,0,0,1,1.693-1.668,4.293,4.293,0,0,1,2.419-.557,4.441,4.441,0,0,1,2.176.445,2.7,2.7,0,0,1,1.33,1.447v-1.669h1.331Zm-2.177,7.12a4.17,4.17,0,0,0,0-5.34,3.721,3.721,0,0,0-5.079,0,4.17,4.17,0,0,0,0,5.34,3.721,3.721,0,0,0,5.079,0" transform="translate(-69.642 -63.326)" fill="#444"/>
        <path id="Path_25637" data-name="Path 25637" d="M267.645,214.277h4.716a7.708,7.708,0,0,1,5.442,1.78,6.529,6.529,0,0,1,1.934,5.007,6.429,6.429,0,0,1-1.934,5.006,7.4,7.4,0,0,1-5.321,1.779h-4.716V214.277Zm4.716,12.46a6.077,6.077,0,0,0,4.474-1.446,6,6,0,0,0,1.45-4.339c0-3.782-1.935-5.673-5.925-5.673h-3.386v11.459Z" transform="translate(-77.075 -61.706)" fill="#444"/>
        <path id="Path_25638" data-name="Path 25638" d="M289.184,224.284h0a4.354,4.354,0,0,0,.968,3,3.628,3.628,0,0,0,2.781,1,5.453,5.453,0,0,0,3.386-1.224l.484.89a4,4,0,0,1-1.693.89,7.4,7.4,0,0,1-2.177.334,5.25,5.25,0,0,1-3.748-1.335,5.048,5.048,0,0,1-1.33-3.56,5.765,5.765,0,0,1,.6-2.559,4.183,4.183,0,0,1,1.693-1.78,4.76,4.76,0,0,1,2.54-.667,4.176,4.176,0,0,1,3.144,1.224,4.715,4.715,0,0,1,1.088,3.337v.222h-7.739Zm1.209-3.115a3.355,3.355,0,0,0-1.088,2.225h6.53a3.264,3.264,0,0,0-.968-2.225,2.873,2.873,0,0,0-2.177-.779,3.737,3.737,0,0,0-2.3.779" transform="translate(-82.895 -63.147)" fill="#444"/>
        <rect id="Rectangle_5202" data-name="Rectangle 5202" width="1.209" height="13.907" transform="translate(216.809 152.126)" fill="#444"/>
        <path id="Path_25639" data-name="Path 25639" d="M312.473,215.88H310.78v-1.446h1.693Zm-1.451,2.447h1.209v9.456h-1.209Z" transform="translate(-89.497 -61.752)" fill="#444"/>
        <path id="Path_25640" data-name="Path 25640" d="M325.864,219.9l-4.474,9.456h-1.33l-4.353-9.456h1.331l3.748,8.344,3.749-8.344Z" transform="translate(-90.915 -63.326)" fill="#444"/>
        <path id="Path_25641" data-name="Path 25641" d="M333,224.284h0a4.355,4.355,0,0,0,.968,3,3.628,3.628,0,0,0,2.781,1,5.453,5.453,0,0,0,3.386-1.224l.484.89a4,4,0,0,1-1.693.89,7.4,7.4,0,0,1-2.177.334A5.25,5.25,0,0,1,333,227.844a5.047,5.047,0,0,1-1.329-3.56,5.765,5.765,0,0,1,.6-2.559,4.187,4.187,0,0,1,1.693-1.78,4.76,4.76,0,0,1,2.54-.667,4.176,4.176,0,0,1,3.143,1.224,4.715,4.715,0,0,1,1.088,3.337v.222H333Zm1.21-3.115a3.356,3.356,0,0,0-1.089,2.225h6.53a3.267,3.267,0,0,0-.967-2.225,2.873,2.873,0,0,0-2.177-.779,3.732,3.732,0,0,0-2.3.779" transform="translate(-95.513 -63.147)" fill="#444"/>
        <path id="Path_25642" data-name="Path 25642" d="M353.584,219.5l-.121,1c-.242,0-.605-.111-.967-.111a2.855,2.855,0,0,0-2.3.89,3.339,3.339,0,0,0-.725,2.225v5.562h-1.21v-6.9a18.132,18.132,0,0,0-.121-2.67h1.21l.121,1.78a3.024,3.024,0,0,1,1.209-1.446,3.875,3.875,0,0,1,1.935-.556,1.961,1.961,0,0,0,.968.222" transform="translate(-100.256 -63.147)" fill="#444"/>
        <path id="Path_25643" data-name="Path 25643" d="M366.624,219.857v9.456h-1.21v-1.78a2.7,2.7,0,0,1-1.33,1.447,4.453,4.453,0,0,1-2.176.556,5.476,5.476,0,0,1-2.419-.556,4.3,4.3,0,0,1-1.572-1.669,5.763,5.763,0,0,1-.6-2.559,5.411,5.411,0,0,1,.6-2.558,4.749,4.749,0,0,1,1.572-1.78,4.341,4.341,0,0,1,2.419-.668,4.433,4.433,0,0,1,2.176.445,2.7,2.7,0,0,1,1.33,1.446v-1.668h1.21Zm-2.177,7.565a5.369,5.369,0,0,0,0-5.785,3.721,3.721,0,0,0-5.079,0,5.369,5.369,0,0,0,0,5.785,3.721,3.721,0,0,0,5.079,0" transform="translate(-102.897 -63.281)" fill="#444"/>
        <path id="Path_25644" data-name="Path 25644" d="M382.449,218.436a4.286,4.286,0,0,1,1.572,1.669,5.773,5.773,0,0,1,.6,2.559,5.419,5.419,0,0,1-.6,2.558,4.749,4.749,0,0,1-1.572,1.78,4.075,4.075,0,0,1-2.419.668,4.451,4.451,0,0,1-2.177-.557,2.7,2.7,0,0,1-1.329-1.446v1.891h-1.21V213.652h1.21v6.23a2.7,2.7,0,0,1,1.329-1.446,4.448,4.448,0,0,1,2.177-.556,4.543,4.543,0,0,1,2.419.556m-.121,7.231a5.369,5.369,0,0,0,0-5.785,3.721,3.721,0,0,0-5.079,0,5.369,5.369,0,0,0,0,5.785,3.254,3.254,0,0,0,2.54,1,3.086,3.086,0,0,0,2.539-1" transform="translate(-108.081 -61.526)" fill="#444"/>
        <rect id="Rectangle_5203" data-name="Rectangle 5203" width="1.209" height="13.907" transform="translate(279.326 152.126)" fill="#444"/>
        <path id="Path_25645" data-name="Path 25645" d="M399.233,224.284h0a4.355,4.355,0,0,0,.967,3,3.628,3.628,0,0,0,2.781,1,5.453,5.453,0,0,0,3.386-1.224l.484.89a4,4,0,0,1-1.693.89,7.4,7.4,0,0,1-2.177.334,5.25,5.25,0,0,1-3.748-1.335,5.051,5.051,0,0,1-1.33-3.56,5.775,5.775,0,0,1,.6-2.559,4.183,4.183,0,0,1,1.693-1.78,4.76,4.76,0,0,1,2.54-.667,4.176,4.176,0,0,1,3.144,1.224,4.715,4.715,0,0,1,1.089,3.337v.222h-7.739Zm1.209-3.115a3.352,3.352,0,0,0-1.089,2.225h6.53a3.264,3.264,0,0,0-.968-2.225,2.872,2.872,0,0,0-2.176-.779,3.479,3.479,0,0,0-2.3.779" transform="translate(-114.586 -63.147)" fill="#444"/>
        <path id="Path_25646" data-name="Path 25646" d="M413.7,228.111l.483-.89a6.2,6.2,0,0,0,1.693.89,5.423,5.423,0,0,0,1.934.222,3.277,3.277,0,0,0,1.935-.444,1.261,1.261,0,0,0,.726-1.224,1.051,1.051,0,0,0-.484-1,2.838,2.838,0,0,0-1.45-.556l-1.693-.334a3.5,3.5,0,0,1-1.935-1,2.116,2.116,0,0,1-.726-1.558,2.461,2.461,0,0,1,1.088-2,5.043,5.043,0,0,1,2.781-.779,6.076,6.076,0,0,1,2.056.334,6.943,6.943,0,0,1,1.572.89l-.483.89a4.7,4.7,0,0,0-3.144-1.113,2.666,2.666,0,0,0-1.814.445,1.268,1.268,0,0,0-.6,1.224,1.293,1.293,0,0,0,.363,1,2.827,2.827,0,0,0,1.33.556l1.814.445c1.814.334,2.781,1.224,2.781,2.559a2.144,2.144,0,0,1-1.088,1.891,5.486,5.486,0,0,1-2.9.779,6.239,6.239,0,0,1-4.232-1.224" transform="translate(-119.134 -63.192)" fill="#444"/>
        <path id="Path_25647" data-name="Path 25647" d="M128.911,271.052h-7.86l-1.692,3.56h-1.33l6.408-13.462h1.209l6.409,13.462h-1.33Zm-.484-1.112-3.507-7.454-3.507,7.454Z" transform="translate(-33.989 -75.205)" fill="#444"/>
        <path id="Path_25648" data-name="Path 25648" d="M149.03,270.045v6.007h-1.209v-6.007a3.466,3.466,0,0,0-.605-2.114,2.492,2.492,0,0,0-1.935-.667,4.1,4.1,0,0,0-2.539.89,2.689,2.689,0,0,0-.967,2.336v5.451h-1.21v-6.9a18.131,18.131,0,0,0-.121-2.67h1.21l.121,1.78a3.5,3.5,0,0,1,1.451-1.446,4.446,4.446,0,0,1,2.176-.557c2.419.223,3.628,1.446,3.628,3.894" transform="translate(-40.444 -76.645)" fill="#444"/>
        <path id="Path_25649" data-name="Path 25649" d="M165.843,270.045v6.007h-1.209v-6.007a3.471,3.471,0,0,0-.6-2.114,2.494,2.494,0,0,0-1.935-.667,4.1,4.1,0,0,0-2.539.89,2.689,2.689,0,0,0-.967,2.336v5.451h-1.21v-6.9a18.135,18.135,0,0,0-.121-2.67h1.21l.121,1.78a3.5,3.5,0,0,1,1.451-1.446,4.448,4.448,0,0,1,2.176-.557c2.3.223,3.628,1.446,3.628,3.894" transform="translate(-45.286 -76.645)" fill="#444"/>
        <path id="Path_25650" data-name="Path 25650" d="M182.195,266.732v9.456h-1.209v-1.78a3.243,3.243,0,0,1-1.451,1.335,4.254,4.254,0,0,1-2.056.445,4.075,4.075,0,0,1-2.781-.89,3.764,3.764,0,0,1-.968-2.781v-5.9h1.21v5.9a3.47,3.47,0,0,0,.6,2.114,2.5,2.5,0,0,0,1.935.667,3.536,3.536,0,0,0,2.418-.89,2.983,2.983,0,0,0,.847-2.336v-5.34Z" transform="translate(-50.03 -76.78)" fill="#444"/>
        <path id="Path_25651" data-name="Path 25651" d="M198.835,266.731v9.456h-1.21v-1.78a2.7,2.7,0,0,1-1.33,1.447,4.451,4.451,0,0,1-2.176.556,5.478,5.478,0,0,1-2.419-.556,4.3,4.3,0,0,1-1.572-1.669,5.775,5.775,0,0,1-.6-2.559,5.424,5.424,0,0,1,.6-2.559,4.76,4.76,0,0,1,1.572-1.78,4.343,4.343,0,0,1,2.419-.667,4.432,4.432,0,0,1,2.176.445,2.7,2.7,0,0,1,1.33,1.446v-1.669h1.21ZM196.78,274.3a5.369,5.369,0,0,0,0-5.785,3.721,3.721,0,0,0-5.079,0,5.369,5.369,0,0,0,0,5.785,3.721,3.721,0,0,0,5.079,0" transform="translate(-54.578 -76.78)" fill="#444"/>
        <rect id="Rectangle_5204" data-name="Rectangle 5204" width="1.21" height="13.907" transform="translate(147.764 185.502)" fill="#444"/>
        <path id="Path_25652" data-name="Path 25652" d="M230.638,271.052h-7.86l-1.693,3.56h-1.329l6.408-13.462h1.209l6.409,13.462h-1.33Zm-.484-1.112-3.507-7.454-3.507,7.454Z" transform="translate(-63.284 -75.205)" fill="#444"/>
        <path id="Path_25653" data-name="Path 25653" d="M241.321,274.985l.484-.89a6.2,6.2,0,0,0,1.692.89,5.428,5.428,0,0,0,1.935.222,3.276,3.276,0,0,0,1.935-.444,1.261,1.261,0,0,0,.726-1.224,1.053,1.053,0,0,0-.484-1,2.857,2.857,0,0,0-1.451-.556l-1.692-.333a3.494,3.494,0,0,1-1.935-1,2.114,2.114,0,0,1-.725-1.557,2.461,2.461,0,0,1,1.088-2,5.041,5.041,0,0,1,2.781-.778,6.1,6.1,0,0,1,2.056.333,7.016,7.016,0,0,1,1.572.89l-.484.89a4.7,4.7,0,0,0-3.144-1.112,2.669,2.669,0,0,0-1.814.445,1.268,1.268,0,0,0-.6,1.224,1.294,1.294,0,0,0,.363,1,2.831,2.831,0,0,0,1.329.556l1.814.445c1.813.334,2.781,1.224,2.781,2.559a2.144,2.144,0,0,1-1.088,1.891,5.489,5.489,0,0,1-2.9.779,6.7,6.7,0,0,1-4.232-1.224" transform="translate(-69.494 -76.69)" fill="#444"/>
        <path id="Path_25654" data-name="Path 25654" d="M255.587,274.985l.484-.89a6.2,6.2,0,0,0,1.693.89,5.428,5.428,0,0,0,1.935.222,3.276,3.276,0,0,0,1.935-.444,1.261,1.261,0,0,0,.726-1.224,1.053,1.053,0,0,0-.484-1,2.857,2.857,0,0,0-1.451-.556l-1.693-.333a3.494,3.494,0,0,1-1.935-1,2.114,2.114,0,0,1-.725-1.557,2.461,2.461,0,0,1,1.088-2,5.041,5.041,0,0,1,2.781-.778,6.1,6.1,0,0,1,2.056.333,7.031,7.031,0,0,1,1.572.89l-.484.89a4.7,4.7,0,0,0-3.144-1.112,2.668,2.668,0,0,0-1.814.445,1.267,1.267,0,0,0-.6,1.224,1.294,1.294,0,0,0,.362,1,2.838,2.838,0,0,0,1.33.556l1.814.445c1.813.334,2.781,1.224,2.781,2.559a2.144,2.144,0,0,1-1.088,1.891,5.489,5.489,0,0,1-2.9.779,6.464,6.464,0,0,1-4.232-1.224" transform="translate(-73.603 -76.69)" fill="#444"/>
        <path id="Path_25655" data-name="Path 25655" d="M271.183,271.158h0a4.361,4.361,0,0,0,.967,3,3.631,3.631,0,0,0,2.781,1,5.453,5.453,0,0,0,3.386-1.224l.484.89a3.987,3.987,0,0,1-1.693.89,7.373,7.373,0,0,1-2.177.334,5.25,5.25,0,0,1-3.748-1.335,5.051,5.051,0,0,1-1.33-3.56,5.766,5.766,0,0,1,.6-2.559,4.178,4.178,0,0,1,1.692-1.78,4.761,4.761,0,0,1,2.54-.667,4.179,4.179,0,0,1,3.144,1.224,4.718,4.718,0,0,1,1.088,3.337v.222h-7.739Zm1.209-3.115a3.349,3.349,0,0,0-1.088,2.225h6.529a3.258,3.258,0,0,0-.968-2.225,2.871,2.871,0,0,0-2.176-.779,3.734,3.734,0,0,0-2.3.779" transform="translate(-77.711 -76.645)" fill="#444"/>
        <path id="Path_25656" data-name="Path 25656" d="M285.647,274.985l.484-.89a6.2,6.2,0,0,0,1.692.89,5.428,5.428,0,0,0,1.935.222,3.276,3.276,0,0,0,1.935-.444,1.26,1.26,0,0,0,.726-1.224,1.052,1.052,0,0,0-.483-1,2.856,2.856,0,0,0-1.451-.556l-1.693-.333a3.494,3.494,0,0,1-1.935-1,2.114,2.114,0,0,1-.725-1.557,2.461,2.461,0,0,1,1.088-2,5.041,5.041,0,0,1,2.781-.778,6.1,6.1,0,0,1,2.056.333,7.031,7.031,0,0,1,1.572.89l-.484.89A4.7,4.7,0,0,0,290,267.309a2.668,2.668,0,0,0-1.814.445,1.267,1.267,0,0,0-.6,1.224,1.294,1.294,0,0,0,.362,1,2.838,2.838,0,0,0,1.33.556l1.814.445c1.813.334,2.781,1.224,2.781,2.559a2.144,2.144,0,0,1-1.089,1.891,5.484,5.484,0,0,1-2.9.779,6.464,6.464,0,0,1-4.232-1.224" transform="translate(-82.259 -76.69)" fill="#444"/>
        <path id="Path_25657" data-name="Path 25657" d="M299.912,274.985l.483-.89a6.2,6.2,0,0,0,1.693.89,5.424,5.424,0,0,0,1.934.222,3.277,3.277,0,0,0,1.935-.444,1.261,1.261,0,0,0,.726-1.224,1.053,1.053,0,0,0-.484-1,2.851,2.851,0,0,0-1.45-.556l-1.693-.333a3.492,3.492,0,0,1-1.935-1,2.115,2.115,0,0,1-.726-1.557,2.463,2.463,0,0,1,1.088-2,5.043,5.043,0,0,1,2.781-.778,6.1,6.1,0,0,1,2.056.333,7.01,7.01,0,0,1,1.571.89l-.483.89a4.705,4.705,0,0,0-3.144-1.112,2.667,2.667,0,0,0-1.814.445,1.267,1.267,0,0,0-.6,1.224,1.294,1.294,0,0,0,.363,1,2.834,2.834,0,0,0,1.33.556l1.814.445c1.814.334,2.781,1.224,2.781,2.559a2.144,2.144,0,0,1-1.088,1.891,5.487,5.487,0,0,1-2.9.779,6.463,6.463,0,0,1-4.232-1.224" transform="translate(-86.367 -76.69)" fill="#444"/>
        <path id="Path_25658" data-name="Path 25658" d="M329.487,270v6.007h-1.209V270a3.238,3.238,0,0,0-.6-2.114,2.214,2.214,0,0,0-1.814-.667,2.755,2.755,0,0,0-2.176.89,3.487,3.487,0,0,0-.847,2.336V275.9h-1.209v-6.007a3.237,3.237,0,0,0-.605-2.114,2.212,2.212,0,0,0-1.814-.667,2.759,2.759,0,0,0-2.177.889,3.494,3.494,0,0,0-.847,2.337v5.451h-1.209v-6.9a18.126,18.126,0,0,0-.121-2.67h1.209l.121,1.668a2.7,2.7,0,0,1,1.331-1.446,3.788,3.788,0,0,1,1.934-.445,2.983,2.983,0,0,1,3.144,1.891,2.932,2.932,0,0,1,1.33-1.335,4.264,4.264,0,0,1,2.056-.445c2.3.223,3.507,1.446,3.507,3.894" transform="translate(-90.671 -76.6)" fill="#444"/>
        <path id="Path_25659" data-name="Path 25659" d="M340.472,271.158h0a4.358,4.358,0,0,0,.968,3,3.629,3.629,0,0,0,2.78,1,5.456,5.456,0,0,0,3.386-1.224l.483.89a3.984,3.984,0,0,1-1.692.89,7.382,7.382,0,0,1-2.177.334,5.252,5.252,0,0,1-3.748-1.335,5.051,5.051,0,0,1-1.329-3.56,5.765,5.765,0,0,1,.6-2.559,4.179,4.179,0,0,1,1.693-1.78,4.76,4.76,0,0,1,2.54-.667,4.176,4.176,0,0,1,3.144,1.224,4.718,4.718,0,0,1,1.088,3.337v.222h-7.739Zm1.209-3.115a3.355,3.355,0,0,0-1.088,2.225h6.53a3.264,3.264,0,0,0-.968-2.225,2.873,2.873,0,0,0-2.177-.779,3.736,3.736,0,0,0-2.3.779" transform="translate(-97.665 -76.645)" fill="#444"/>
        <path id="Path_25660" data-name="Path 25660" d="M364.2,270.045v6.007h-1.209v-6.007a3.466,3.466,0,0,0-.605-2.114,2.492,2.492,0,0,0-1.935-.667,4.1,4.1,0,0,0-2.539.89,2.689,2.689,0,0,0-.967,2.336v5.451h-1.21v-6.9a18.135,18.135,0,0,0-.121-2.67h1.21l.121,1.78a3.5,3.5,0,0,1,1.45-1.446,4.449,4.449,0,0,1,2.177-.557c2.419.223,3.628,1.446,3.628,3.894" transform="translate(-102.408 -76.645)" fill="#444"/>
        <path id="Path_25661" data-name="Path 25661" d="M373.656,266.407v5.674c0,.778.121,1.335.483,1.557a2.419,2.419,0,0,0,1.451.445,3.792,3.792,0,0,0,1.088-.222v1a5.383,5.383,0,0,1-1.33.111,3.571,3.571,0,0,1-2.177-.667,2.694,2.694,0,0,1-.725-2.114v-5.9h-2.056v-.89h2.056v-2.559l1.209-.445v3h3.023v.89h-3.023Z" transform="translate(-106.663 -75.565)" fill="#444"/>
        <line id="Line_504" data-name="Line 504" y2="52.734" transform="translate(56.347 131.21)" fill="none" stroke="#0a90b7" stroke-miterlimit="10" stroke-width="1.222"/>
        <path id="Path_25662" data-name="Path 25662" d="M72.174,168.5c8.348,0,15.116,6.227,15.116,13.907S80.522,196.31,72.174,196.31,57.059,190.084,57.059,182.4,63.826,168.5,72.174,168.5" transform="translate(-16.432 -48.523)" fill="#0a90b7"/>
        <path id="Path_25663" data-name="Path 25663" d="M78.448,180.555a.8.8,0,0,1-.846-.779v-4.561h-7.74A1.838,1.838,0,0,0,67.928,177v14.574a1.838,1.838,0,0,0,1.935,1.78H81.35a1.838,1.838,0,0,0,1.935-1.78V180.555Z" transform="translate(-19.562 -50.458)" fill="#fff"/>
        <path id="Path_25664" data-name="Path 25664" d="M82.409,180.555h5.079l-5.805-5.34v4.673a.673.673,0,0,0,.726.667" transform="translate(-23.523 -50.458)" fill="#ababab"/>
        <path id="Path_25665" data-name="Path 25665" d="M87.661,186.543v-3.671H82.7Z" transform="translate(-23.816 -52.663)" fill="#f2f2f2"/>
        <path id="Path_25666" data-name="Path 25666" d="M72.174,250.527c8.348,0,15.116,6.226,15.116,13.907S80.522,278.34,72.174,278.34s-15.115-6.227-15.115-13.907,6.767-13.907,15.115-13.907" transform="translate(-16.432 -72.146)" fill="#0a90b7"/>
        <path id="Path_25667" data-name="Path 25667" d="M78.448,262.585a.8.8,0,0,1-.846-.779v-4.561h-7.74a1.838,1.838,0,0,0-1.935,1.78V273.6a1.838,1.838,0,0,0,1.935,1.78H81.35a1.839,1.839,0,0,0,1.935-1.78V262.585Z" transform="translate(-19.562 -74.08)" fill="#fff"/>
        <path id="Path_25668" data-name="Path 25668" d="M82.409,262.585h5.079l-5.805-5.34v4.673a.752.752,0,0,0,.726.667" transform="translate(-23.523 -74.08)" fill="#ababab"/>
        <path id="Path_25669" data-name="Path 25669" d="M87.661,268.528v-3.782H82.7Z" transform="translate(-23.816 -76.24)" fill="#f2f2f2"/>
      </g>
    </g>
  </g>
</svg>
