<svg xmlns="http://www.w3.org/2000/svg" width="137.5" height="102.4" viewBox="0 0 137.5 102.4">
  <g id="Group_9272" data-name="Group 9272" transform="translate(-981.9 -82)">
    <path id="Path_23906" data-name="Path 23906" d="M983.8,1.8H847v84h51.7l16.7,17.5,16.7-17.5h51.7Z" transform="translate(135.3 80.6)" fill="#fff"/>
    <path id="Path_23907" data-name="Path 23907" d="M915.4,103.8,898.5,86.1H846.6V1.4H984.1V86.2H932.2Z" transform="translate(135.3 80.6)" fill="#1a4480"/>
    <path id="Path_23908" data-name="Path 23908" d="M894.5,23.3h-6.7l-1.4,3.3h-1.5l5.6-12.8h1.3l5.6,12.8h-1.5ZM894,22l-2.8-6.6L888.4,22Z" transform="translate(135.3 80.6)" fill="#fff"/>
    <path id="Path_23909" data-name="Path 23909" d="M907.2,17.5v9a4.292,4.292,0,0,1-1,3.1,4.139,4.139,0,0,1-3.1,1,6.871,6.871,0,0,1-3.6-.9l.3-1.2a7.092,7.092,0,0,0,1.6.7,8.807,8.807,0,0,0,1.7.2,2.578,2.578,0,0,0,2-.7,3.1,3.1,0,0,0,.7-2.1V24.5a3.039,3.039,0,0,1-1.2,1.3,3.829,3.829,0,0,1-1.9.5,3.7,3.7,0,0,1-2.1-.6,3.638,3.638,0,0,1-1.4-1.6,6.01,6.01,0,0,1,0-4.8,3.638,3.638,0,0,1,1.4-1.6,3.7,3.7,0,0,1,2.1-.6,4.136,4.136,0,0,1,1.9.5,3.745,3.745,0,0,1,1.2,1.3V17.3h1.4v.2ZM905,24.2a3.612,3.612,0,0,0,.7-2.4,3.612,3.612,0,0,0-.7-2.4,2.9,2.9,0,0,0-4.2,0,3.649,3.649,0,0,0-.8,2.4,3.649,3.649,0,0,0,.8,2.4,2.9,2.9,0,0,0,4.2,0Z" transform="translate(135.3 80.6)" fill="#fff"/>
    <path id="Path_23910" data-name="Path 23910" d="M917.6,22H911a3.844,3.844,0,0,0,.8,2.6,2.869,2.869,0,0,0,2.3.9,4.556,4.556,0,0,0,2.9-1.1l.5,1.1a3.766,3.766,0,0,1-1.5.9,6.279,6.279,0,0,1-1.9.3,4.156,4.156,0,0,1-3.3-1.3,4.7,4.7,0,0,1-1.2-3.4,6.963,6.963,0,0,1,.5-2.5,4.978,4.978,0,0,1,1.5-1.7,4.032,4.032,0,0,1,2.2-.6,3.489,3.489,0,0,1,2.8,1.2,4.722,4.722,0,0,1,1,3.2Zm-5.7-2.9A3.1,3.1,0,0,0,911,21h5.3a3.041,3.041,0,0,0-.7-1.9,2.793,2.793,0,0,0-3.7,0Z" transform="translate(135.3 80.6)" fill="#fff"/>
    <path id="Path_23911" data-name="Path 23911" d="M927.6,20.9v5.7h-1.5V21a2.763,2.763,0,0,0-.5-1.8,2.359,2.359,0,0,0-1.6-.6,2.792,2.792,0,0,0-2,.8,2.865,2.865,0,0,0-.8,2.1v5.2h-1.5V20a19.283,19.283,0,0,0-.1-2.5H921l.1,1.6a4.072,4.072,0,0,1,1.2-1.4,4.136,4.136,0,0,1,1.9-.5C926.5,17.3,927.6,18.5,927.6,20.9Z" transform="translate(135.3 80.6)" fill="#fff"/>
    <path id="Path_23912" data-name="Path 23912" d="M931.8,26.1a3.318,3.318,0,0,1-1.5-1.6,4.87,4.87,0,0,1-.5-2.5,6.551,6.551,0,0,1,.5-2.5,4.125,4.125,0,0,1,1.5-1.7,4.383,4.383,0,0,1,2.3-.6,5.663,5.663,0,0,1,1.8.3,3.39,3.39,0,0,1,1.4.9l-.5,1.1a6.551,6.551,0,0,0-1.3-.8,3.079,3.079,0,0,0-1.3-.3,2.792,2.792,0,0,0-2.2.9,4.033,4.033,0,0,0-.8,2.6,3.742,3.742,0,0,0,.8,2.5,2.792,2.792,0,0,0,2.2.9,3.079,3.079,0,0,0,1.3-.3,4.579,4.579,0,0,0,1.3-.8l.5,1.1a6.7,6.7,0,0,1-1.4.9,5.663,5.663,0,0,1-1.8.3A3.02,3.02,0,0,1,931.8,26.1Z" transform="translate(135.3 80.6)" fill="#fff"/>
    <path id="Path_23913" data-name="Path 23913" d="M947.2,17.5,943,27.4a5.148,5.148,0,0,1-1.7,2.3,6.257,6.257,0,0,1-2.5,1l-.3-1.1a3.745,3.745,0,0,0,1.9-.8,3.656,3.656,0,0,0,1.1-1.5l.4-.8-3.8-9h1.5l3.1,7.5,3.1-7.5Z" transform="translate(135.3 80.6)" fill="#fff"/>
    <path id="Path_23914" data-name="Path 23914" d="M868.8,44.9h-6.7l-1.4,3.3h-1.5l5.6-12.8h1.3l5.6,12.8h-1.5Zm-.5-1.3L865.5,37l-2.8,6.6Z" transform="translate(135.3 80.6)" fill="#fff"/>
    <path id="Path_23915" data-name="Path 23915" d="M881,39.1v9.1h-1.4V46.6a3.039,3.039,0,0,1-1.2,1.3,3.287,3.287,0,0,1-1.7.4,2.953,2.953,0,0,1-2.4-.9,3.647,3.647,0,0,1-.8-2.7V39.1H875v5.6a2.969,2.969,0,0,0,.5,1.8,1.755,1.755,0,0,0,1.5.6,2.407,2.407,0,0,0,1.9-.8,2.817,2.817,0,0,0,.7-2.1V39.1Z" transform="translate(135.3 80.6)" fill="#fff"/>
    <path id="Path_23916" data-name="Path 23916" d="M885.8,40.2v5a1.809,1.809,0,0,0,.4,1.4,1.594,1.594,0,0,0,1.2.4,3.553,3.553,0,0,0,1-.2V48a5.067,5.067,0,0,1-1.3.2,2.578,2.578,0,0,1-2-.7,2.918,2.918,0,0,1-.7-2.2V40.2h-1.8V39h1.8V36.7l1.5-.5V39h2.6v1.2Z" transform="translate(135.3 80.6)" fill="#fff"/>
    <path id="Path_23917" data-name="Path 23917" d="M897.9,42.5v5.7h-1.5V42.6a2.763,2.763,0,0,0-.5-1.8,2.359,2.359,0,0,0-1.6-.6,2.792,2.792,0,0,0-2,.8,2.865,2.865,0,0,0-.8,2.1v5.2H890V34.9h1.5v5.7a3.039,3.039,0,0,1,1.2-1.3,3.424,3.424,0,0,1,1.8-.4C896.8,38.9,897.9,40.1,897.9,42.5Z" transform="translate(135.3 80.6)" fill="#fff"/>
    <path id="Path_23918" data-name="Path 23918" d="M902.1,47.7a4.63,4.63,0,0,1-1.5-1.6,4.87,4.87,0,0,1-.5-2.5,6.551,6.551,0,0,1,.5-2.5,3.891,3.891,0,0,1,1.5-1.6,4.032,4.032,0,0,1,2.2-.6,3.8,3.8,0,0,1,2.2.6,4.63,4.63,0,0,1,1.5,1.6,4.869,4.869,0,0,1,.5,2.5,6.551,6.551,0,0,1-.5,2.5,3.891,3.891,0,0,1-1.5,1.6,4.032,4.032,0,0,1-2.2.6A4.282,4.282,0,0,1,902.1,47.7Zm4.4-1.5a4.023,4.023,0,0,0,.7-2.6,4.023,4.023,0,0,0-.7-2.6,2.9,2.9,0,0,0-4.2,0,4.023,4.023,0,0,0-.7,2.6,4.023,4.023,0,0,0,.7,2.6,2.9,2.9,0,0,0,4.2,0Z" transform="translate(135.3 80.6)" fill="#fff"/>
    <path id="Path_23919" data-name="Path 23919" d="M916,39v1.3a3.083,3.083,0,0,0-1-.1,2.629,2.629,0,0,0-2,.8,3.173,3.173,0,0,0-.6,2v5.2h-1.5V41.7a19.283,19.283,0,0,0-.1-2.5h1.4l.1,1.7a2.586,2.586,0,0,1,1.1-1.4,3.371,3.371,0,0,1,1.7-.5A1.379,1.379,0,0,1,916,39Z" transform="translate(135.3 80.6)" fill="#fff"/>
    <path id="Path_23920" data-name="Path 23920" d="M919.1,35.3V37h-1.8V35.3Zm-1.6,3.8H919v9.1h-1.5Z" transform="translate(135.3 80.6)" fill="#fff"/>
    <path id="Path_23921" data-name="Path 23921" d="M928.9,47v1.2h-7.6v-1l5.7-6.9h-5.5V39.1h7.3v1.1L923,47Z" transform="translate(135.3 80.6)" fill="#fff"/>
    <path id="Path_23922" data-name="Path 23922" d="M938.8,39.1v9.1h-1.4V46.6a3.04,3.04,0,0,1-1.2,1.3,3.83,3.83,0,0,1-1.9.5,3.7,3.7,0,0,1-2.1-.6,3.638,3.638,0,0,1-1.4-1.6,6.175,6.175,0,0,1-.5-2.5,6.551,6.551,0,0,1,.5-2.5,3.907,3.907,0,0,1,1.4-1.7,3.7,3.7,0,0,1,2.1-.6,4.136,4.136,0,0,1,1.9.5,3.745,3.745,0,0,1,1.2,1.3V39.1Zm-2.1,7.1a4.023,4.023,0,0,0,.7-2.6,4.023,4.023,0,0,0-.7-2.6,2.9,2.9,0,0,0-4.2,0,4.023,4.023,0,0,0-.7,2.6,4.023,4.023,0,0,0,.7,2.6,2.9,2.9,0,0,0,4.2,0Z" transform="translate(135.3 80.6)" fill="#fff"/>
    <path id="Path_23923" data-name="Path 23923" d="M943.6,40.2v5a1.809,1.809,0,0,0,.4,1.4,1.594,1.594,0,0,0,1.2.4,3.553,3.553,0,0,0,1-.2V48a5.067,5.067,0,0,1-1.3.2,2.578,2.578,0,0,1-2-.7,2.918,2.918,0,0,1-.7-2.2V40.2h-1.8V39h1.8V36.7l1.5-.5V39h2.6v1.2Z" transform="translate(135.3 80.6)" fill="#fff"/>
    <path id="Path_23924" data-name="Path 23924" d="M949.6,35.3V37h-1.8V35.3ZM948,39.1h1.5v9.1H948Z" transform="translate(135.3 80.6)" fill="#fff"/>
    <path id="Path_23925" data-name="Path 23925" d="M953.7,47.7a4.628,4.628,0,0,1-1.5-1.6,4.869,4.869,0,0,1-.5-2.5,6.551,6.551,0,0,1,.5-2.5,3.89,3.89,0,0,1,1.5-1.6,4.032,4.032,0,0,1,2.2-.6,3.8,3.8,0,0,1,2.2.6,4.628,4.628,0,0,1,1.5,1.6,4.869,4.869,0,0,1,.5,2.5,6.55,6.55,0,0,1-.5,2.5,3.89,3.89,0,0,1-1.5,1.6,4.031,4.031,0,0,1-2.2.6A4.282,4.282,0,0,1,953.7,47.7Zm4.4-1.5a4.023,4.023,0,0,0,.7-2.6,4.023,4.023,0,0,0-.7-2.6,2.9,2.9,0,0,0-4.2,0,4.023,4.023,0,0,0-.7,2.6,4.023,4.023,0,0,0,.7,2.6,2.9,2.9,0,0,0,4.2,0Z" transform="translate(135.3 80.6)" fill="#fff"/>
    <path id="Path_23926" data-name="Path 23926" d="M970.3,42.5v5.7h-1.5V42.6a2.763,2.763,0,0,0-.5-1.8,2.359,2.359,0,0,0-1.6-.6,2.792,2.792,0,0,0-2,.8,2.865,2.865,0,0,0-.8,2.1v5.2h-1.5V41.8a19.283,19.283,0,0,0-.1-2.5h1.4l.1,1.6a4.071,4.071,0,0,1,1.2-1.4,4.136,4.136,0,0,1,1.9-.5C969.2,38.9,970.3,40.1,970.3,42.5Z" transform="translate(135.3 80.6)" fill="#fff"/>
    <path id="Path_23927" data-name="Path 23927" d="M884.9,56.9H890a4.454,4.454,0,0,1,3.1,1,3.623,3.623,0,0,1,0,5.2,4.789,4.789,0,0,1-3.1,1h-3.6v5.6h-1.5Zm5,6a3.1,3.1,0,0,0,2.1-.6,2.664,2.664,0,0,0,0-3.6,3.281,3.281,0,0,0-2.1-.6h-3.5v4.7l3.5.1Z" transform="translate(135.3 80.6)" fill="#fff"/>
    <path id="Path_23928" data-name="Path 23928" d="M901.3,60.6v1.3a3.083,3.083,0,0,0-1-.1,2.629,2.629,0,0,0-2,.8,3.174,3.174,0,0,0-.6,2v5.2h-1.5V63.3a19.283,19.283,0,0,0-.1-2.5h1.4l.1,1.7a2.587,2.587,0,0,1,1.1-1.4,3.371,3.371,0,0,1,1.7-.5A1.379,1.379,0,0,1,901.3,60.6Z" transform="translate(135.3 80.6)" fill="#fff"/>
    <path id="Path_23929" data-name="Path 23929" d="M904.1,69.3a4.63,4.63,0,0,1-1.5-1.6,4.87,4.87,0,0,1-.5-2.5,6.551,6.551,0,0,1,.5-2.5,3.891,3.891,0,0,1,1.5-1.6,4.032,4.032,0,0,1,2.2-.6,3.8,3.8,0,0,1,2.2.6,4.63,4.63,0,0,1,1.5,1.6,4.869,4.869,0,0,1,.5,2.5,6.551,6.551,0,0,1-.5,2.5,3.891,3.891,0,0,1-1.5,1.6,4.333,4.333,0,0,1-4.4,0Zm4.3-1.5a5.179,5.179,0,0,0,0-5.2,2.9,2.9,0,0,0-4.2,0,5.179,5.179,0,0,0,0,5.2,2.9,2.9,0,0,0,4.2,0Z" transform="translate(135.3 80.6)" fill="#fff"/>
    <path id="Path_23930" data-name="Path 23930" d="M914.4,69.3a3.318,3.318,0,0,1-1.5-1.6,4.869,4.869,0,0,1-.5-2.5,6.55,6.55,0,0,1,.5-2.5,4.977,4.977,0,0,1,1.5-1.7,4.383,4.383,0,0,1,2.3-.6,5.662,5.662,0,0,1,1.8.3,3.391,3.391,0,0,1,1.4.9l-.5,1.1a6.551,6.551,0,0,0-1.3-.8,3.079,3.079,0,0,0-1.3-.3,2.792,2.792,0,0,0-2.2.9,4.033,4.033,0,0,0-.8,2.6,3.742,3.742,0,0,0,.8,2.5,2.792,2.792,0,0,0,2.2.9,3.079,3.079,0,0,0,1.3-.3,4.58,4.58,0,0,0,1.3-.8l.5,1.1a6.707,6.707,0,0,1-1.4.9,5.663,5.663,0,0,1-1.8.3A2.938,2.938,0,0,1,914.4,69.3Z" transform="translate(135.3 80.6)" fill="#fff"/>
    <path id="Path_23931" data-name="Path 23931" d="M929.4,65.2h-6.6a3.844,3.844,0,0,0,.8,2.6,2.869,2.869,0,0,0,2.3.9,4.555,4.555,0,0,0,2.9-1.1l.5,1.1a3.765,3.765,0,0,1-1.5.9,6.279,6.279,0,0,1-1.9.3,4.156,4.156,0,0,1-3.3-1.3,4.871,4.871,0,0,1-1.2-3.4,6.962,6.962,0,0,1,.5-2.5,3.587,3.587,0,0,1,1.5-1.7,4.031,4.031,0,0,1,2.2-.6,3.489,3.489,0,0,1,2.8,1.2,4.722,4.722,0,0,1,1,3.2Zm-5.7-2.9a3.1,3.1,0,0,0-.9,1.9h5.3a3.041,3.041,0,0,0-.7-1.9,2.793,2.793,0,0,0-3.7,0Z" transform="translate(135.3 80.6)" fill="#fff"/>
    <path id="Path_23932" data-name="Path 23932" d="M931,68.7l.5-1.1a3.675,3.675,0,0,0,1.5.8,8.585,8.585,0,0,0,1.7.3,2.537,2.537,0,0,0,1.6-.4,1.016,1.016,0,0,0,.5-1,1.086,1.086,0,0,0-.4-.9,2.255,2.255,0,0,0-1.2-.5l-1.5-.4a4.352,4.352,0,0,1-1.8-.9,1.717,1.717,0,0,1-.6-1.5,2.166,2.166,0,0,1,1-1.9,3.9,3.9,0,0,1,2.5-.7,5.662,5.662,0,0,1,1.8.3,3.39,3.39,0,0,1,1.4.9l-.5,1.1a4.473,4.473,0,0,0-2.7-1.1,2.41,2.41,0,0,0-1.5.4,1.016,1.016,0,0,0-.5,1,1.223,1.223,0,0,0,.3.9,2.257,2.257,0,0,0,1.1.5l1.5.4a4.212,4.212,0,0,1,1.9.9,2.111,2.111,0,0,1,.6,1.6,2.166,2.166,0,0,1-1,1.9,4.023,4.023,0,0,1-2.6.7A5.8,5.8,0,0,1,931,68.7Z" transform="translate(135.3 80.6)" fill="#fff"/>
    <path id="Path_23933" data-name="Path 23933" d="M940,68.7l.5-1.1a3.675,3.675,0,0,0,1.5.8,8.585,8.585,0,0,0,1.7.3,2.537,2.537,0,0,0,1.6-.4,1.016,1.016,0,0,0,.5-1,1.086,1.086,0,0,0-.4-.9,2.255,2.255,0,0,0-1.2-.5l-1.5-.4a4.352,4.352,0,0,1-1.8-.9,1.717,1.717,0,0,1-.6-1.5,2.166,2.166,0,0,1,1-1.9,3.9,3.9,0,0,1,2.5-.7,5.662,5.662,0,0,1,1.8.3,3.39,3.39,0,0,1,1.4.9l-.5,1.1a4.473,4.473,0,0,0-2.7-1.1,2.41,2.41,0,0,0-1.5.4,1.016,1.016,0,0,0-.5,1,1.223,1.223,0,0,0,.3.9,2.257,2.257,0,0,0,1.1.5l1.5.4a4.212,4.212,0,0,1,1.9.9,2.111,2.111,0,0,1,.6,1.6,2.166,2.166,0,0,1-1,1.9,4.023,4.023,0,0,1-2.6.7A5.582,5.582,0,0,1,940,68.7Z" transform="translate(135.3 80.6)" fill="#fff"/>
  </g>
</svg>
