<?xml version="1.0" encoding="utf-8"?>
<!-- Generator: Adobe Illustrator 24.2.3, SVG Export Plug-In . SVG Version: 6.00 Build 0)  -->
<svg version="1.1" xmlns="http://www.w3.org/2000/svg" xmlns:xlink="http://www.w3.org/1999/xlink" x="0px" y="0px"
	 viewBox="0 0 320 396" style="enable-background:new 0 0 320 396;" xml:space="preserve">
<style type="text/css">
	.st0{opacity:0.46;fill:#FFFFFF;}
	.st1{fill:#0A90B7;}
	.st2{fill:#F2F2F2;}
	.st3{enable-background:new    ;}
	.st4{fill:#FFFFFF;}
	.st5{fill:#757575;}
	.st6{opacity:0.55;}
	.st7{fill:#444444;}
	.st8{fill:#D8D8D8;}
	.st9{fill:#C71F25;}
	.st10{fill:#A6D7E5;}
	.st11{opacity:0.46;fill:#209ABD;}
	.st12{opacity:0.1;enable-background:new    ;}
	.st13{opacity:0.6;fill:#0A90B7;}
	.st14{fill:#1294C2;}
	.st15{opacity:0.55;fill:#F2F2F2;}
	.st16{fill:#A00A0F;}
	.st17{opacity:0.55;fill:#0A90B7;}
</style>
<g id="Layer_6">
	<rect x="10" class="st0" width="300" height="396"/>
</g>
<g id="Shapes">
	<path id="Path_7616_6_" class="st1" d="M293.6,41.6H58.7V9.4h234.9l7.1,16.1L293.6,41.6z"/>
	<rect x="19.4" y="9.4" class="st2" width="39.3" height="32.2"/>
</g>
<g id="background">
</g>
<g id="text">
	<g class="st3">
		<path class="st4" d="M78.3,24.3c0,1.9-1.4,3.1-3.7,3.1h-2v2.5H71v-8.7h3.6C76.9,21.2,78.3,22.4,78.3,24.3z M76.7,24.3
			c0-1.1-0.7-1.7-2.2-1.7h-1.9V26h1.9C75.9,26,76.7,25.4,76.7,24.3z"/>
		<path class="st4" d="M83.6,23.2v1.5c-0.1,0-0.2,0-0.4,0c-1.2,0-1.9,0.7-1.9,2.1v3.2h-1.6v-6.6h1.5v1
			C81.7,23.6,82.5,23.2,83.6,23.2z"/>
		<path class="st4" d="M91.2,27.1h-5.2c0.2,1,1,1.6,2.2,1.6c0.7,0,1.3-0.2,1.8-0.7l0.8,1c-0.6,0.7-1.5,1.1-2.7,1.1
			c-2.2,0-3.7-1.4-3.7-3.4c0-2,1.5-3.4,3.4-3.4c1.9,0,3.4,1.4,3.4,3.4C91.2,26.8,91.2,27,91.2,27.1z M85.9,26.1h3.8
			c-0.1-1-0.9-1.6-1.9-1.6C86.8,24.4,86.1,25.1,85.9,26.1z"/>
		<path class="st4" d="M99.8,26.6c0,2.1-1.4,3.4-3.4,3.4c-0.8,0-1.6-0.3-2.1-0.9v3.2h-1.6v-9.1h1.5v0.9c0.5-0.6,1.3-0.9,2.2-0.9
			C98.4,23.2,99.8,24.5,99.8,26.6z M98.2,26.6c0-1.3-0.8-2.1-2-2.1s-2,0.8-2,2.1c0,1.3,0.9,2.1,2,2.1S98.2,27.9,98.2,26.6z"/>
		<path class="st4" d="M106.8,26v3.9h-1.5v-0.8c-0.4,0.6-1.1,0.9-2.1,0.9c-1.5,0-2.5-0.8-2.5-2c0-1.1,0.7-2,2.8-2h1.7v-0.1
			c0-0.9-0.5-1.4-1.7-1.4c-0.7,0-1.5,0.2-2,0.7L101,24c0.7-0.5,1.7-0.8,2.8-0.8C105.7,23.2,106.8,24.1,106.8,26z M105.3,27.8v-0.8
			h-1.6c-1.1,0-1.3,0.4-1.3,0.9c0,0.6,0.5,0.9,1.3,0.9C104.3,28.9,105,28.5,105.3,27.8z"/>
		<path class="st4" d="M112.7,23.2v1.5c-0.1,0-0.2,0-0.4,0c-1.2,0-1.9,0.7-1.9,2.1v3.2h-1.6v-6.6h1.5v1
			C110.8,23.6,111.6,23.2,112.7,23.2z"/>
		<path class="st4" d="M119.6,26v3.9h-1.5v-0.8c-0.4,0.6-1.1,0.9-2.1,0.9c-1.5,0-2.5-0.8-2.5-2c0-1.1,0.7-2,2.8-2h1.7v-0.1
			c0-0.9-0.5-1.4-1.7-1.4c-0.7,0-1.5,0.2-2,0.7l-0.6-1.1c0.7-0.5,1.7-0.8,2.8-0.8C118.5,23.2,119.6,24.1,119.6,26z M118.1,27.8v-0.8
			h-1.6c-1.1,0-1.3,0.4-1.3,0.9c0,0.6,0.5,0.9,1.3,0.9C117.1,28.9,117.8,28.5,118.1,27.8z"/>
		<path class="st4" d="M125.7,29.6c-0.4,0.3-0.9,0.4-1.5,0.4c-1.5,0-2.3-0.8-2.3-2.2v-3.2h-1.1v-1.2h1.1v-1.5h1.6v1.5h1.8v1.2h-1.8
			v3.2c0,0.6,0.3,1,0.9,1c0.3,0,0.6-0.1,0.9-0.3L125.7,29.6z"/>
		<path class="st4" d="M126.8,21.2c0-0.5,0.4-0.9,1-0.9c0.6,0,1,0.4,1,0.9c0,0.5-0.4,1-1,1C127.2,22.2,126.8,21.8,126.8,21.2z
			 M127,23.3h1.6v6.6H127V23.3z"/>
		<path class="st4" d="M130.1,26.6c0-2,1.5-3.4,3.5-3.4c2.1,0,3.5,1.4,3.5,3.4s-1.5,3.4-3.5,3.4C131.6,30,130.1,28.6,130.1,26.6z
			 M135.6,26.6c0-1.3-0.8-2.1-2-2.1c-1.1,0-2,0.8-2,2.1c0,1.3,0.8,2.1,2,2.1C134.8,28.7,135.6,27.9,135.6,26.6z"/>
		<path class="st4" d="M145.3,26.1v3.8h-1.6v-3.6c0-1.2-0.6-1.8-1.6-1.8c-1.1,0-1.9,0.7-1.9,2v3.4h-1.6v-6.6h1.5v0.9
			c0.5-0.6,1.3-0.9,2.3-0.9C144.1,23.2,145.3,24.1,145.3,26.1z"/>
	</g>
</g>
<g id="Graphics">
	<g>
		<path id="Path_1554_2_" class="st5" d="M166.2,228.2c0,4.5-3.6,8.1-8.1,8.1c-4.5,0-8.1-3.6-8.1-8.1c0-4.5,3.6-8.1,8.1-8.1
			C162.6,220.1,166.2,223.8,166.2,228.2z"/>
		<g id="Group_1434_2_" transform="translate(4.574 4.222)">
			<g id="arrow_2_" transform="translate(4.574 0)">
				<path id="arrow-2_2_" class="st4" d="M149.1,228.9c-0.2,0-0.5-0.1-0.6-0.3l-3.5-3.4c-0.3-0.3-0.4-0.8-0.1-1.2c0,0,0,0,0.1-0.1
					c0.3-0.3,0.9-0.3,1.2,0c0,0,0,0,0,0l2.9,2.8l2.9-2.8c0.3-0.3,0.9-0.3,1.2,0c0,0,0,0,0,0c0.3,0.3,0.4,0.8,0.1,1.2
					c0,0,0,0-0.1,0.1l-3.5,3.4C149.5,228.8,149.3,228.9,149.1,228.9z"/>
			</g>
			<path class="st4" d="M153.5,228c-0.6,0-1-0.4-1-1v-7.2c0-0.6,0.4-1,1-1s1,0.4,1,1v7.2C154.5,227.6,154.1,228,153.5,228z"/>
		</g>
	</g>
	<g class="st6">
		<rect x="27.3" y="242.7" class="st2" width="265.5" height="137.2"/>
		<g>
			<g>
				<g>
					<path class="st1" d="M52.2,288.2c-0.3-0.2-0.5-0.4-0.7-0.7c-0.2-0.3-0.3-0.6-0.3-1c0-0.3,0.1-0.6,0.3-0.9
						c0.2-0.3,0.4-0.5,0.7-0.7c0.3-0.2,0.6-0.3,1-0.3c0.3,0,0.7,0.1,1,0.3c0.3,0.2,0.5,0.4,0.7,0.7c0.2,0.3,0.3,0.6,0.3,1
						c0,0.4-0.1,0.7-0.3,1c-0.2,0.3-0.4,0.5-0.7,0.7c-0.3,0.2-0.6,0.3-1,0.3S52.5,288.4,52.2,288.2z"/>
					<path class="st1" d="M53.1,288.6c-0.4,0-0.7-0.1-1-0.3l0,0c-0.3-0.2-0.6-0.4-0.8-0.7c-0.2-0.3-0.3-0.7-0.3-1
						c0-0.3,0.1-0.7,0.3-1c0.2-0.3,0.4-0.6,0.8-0.8c0.6-0.4,1.4-0.4,2.1,0c0.3,0.2,0.6,0.4,0.8,0.7c0.2,0.3,0.3,0.7,0.3,1
						c0,0.4-0.1,0.7-0.3,1s-0.4,0.6-0.8,0.7C53.9,288.5,53.5,288.6,53.1,288.6z M53.1,284.8c-0.3,0-0.7,0.1-0.9,0.2
						c-0.3,0.2-0.5,0.4-0.7,0.7c-0.2,0.3-0.2,0.6-0.2,0.9c0,0.3,0.1,0.6,0.2,0.9c0.2,0.3,0.4,0.5,0.7,0.7l0,0c0.6,0.3,1.3,0.3,1.8,0
						c0.3-0.2,0.5-0.4,0.7-0.7c0.2-0.3,0.2-0.6,0.2-0.9c0-0.3-0.1-0.6-0.2-0.9c-0.2-0.3-0.4-0.5-0.7-0.6
						C53.8,284.9,53.5,284.8,53.1,284.8z"/>
				</g>
				<path class="st7" d="M71.4,281.8h2.9c0.8,0,1.4,0.2,1.8,0.6c0.4,0.4,0.7,0.9,0.7,1.5c0,0.7-0.2,1.2-0.7,1.5
					c-0.4,0.4-1,0.6-1.8,0.6h-2.3v3.4h-0.7V281.8z M74.3,285.4c0.6,0,1.1-0.1,1.4-0.4s0.5-0.6,0.5-1.1c0-0.5-0.2-0.9-0.5-1.1
					c-0.3-0.3-0.8-0.4-1.4-0.4h-2.2v3.1H74.3z"/>
				<path class="st7" d="M82.6,284.1v5.4H82v-1c-0.2,0.4-0.4,0.6-0.7,0.8c-0.3,0.2-0.7,0.3-1.1,0.3c-0.5,0-0.9-0.1-1.3-0.3
					c-0.4-0.2-0.6-0.5-0.8-1c-0.2-0.4-0.3-0.9-0.3-1.5c0-0.6,0.1-1,0.3-1.5c0.2-0.4,0.5-0.8,0.8-1c0.4-0.2,0.8-0.3,1.2-0.3
					c0.4,0,0.8,0.1,1.1,0.3c0.3,0.2,0.6,0.5,0.7,0.8v-1H82.6z M81.5,288.4c0.3-0.4,0.5-0.9,0.5-1.6c0-0.7-0.2-1.3-0.5-1.6
					c-0.3-0.4-0.7-0.6-1.3-0.6s-1,0.2-1.3,0.6c-0.3,0.4-0.5,0.9-0.5,1.6c0,0.7,0.2,1.2,0.5,1.6c0.3,0.4,0.8,0.6,1.3,0.6
					C80.8,288.9,81.2,288.7,81.5,288.4z"/>
				<path class="st7" d="M87.3,284l0,0.6c-0.1,0-0.3,0-0.5,0c-0.5,0-0.9,0.2-1.2,0.5c-0.3,0.3-0.4,0.8-0.4,1.2v3.2h-0.6v-3.9
					c0-0.6,0-1.1-0.1-1.5H85l0.1,1c0.1-0.4,0.4-0.6,0.7-0.8s0.6-0.3,1-0.3C87,283.9,87.1,284,87.3,284z"/>
				<path class="st7" d="M89.6,284.6v3.2c0,0.4,0.1,0.7,0.2,0.9c0.2,0.2,0.4,0.2,0.7,0.2c0.2,0,0.4,0,0.6-0.1v0.6
					c-0.2,0.1-0.5,0.1-0.7,0.1c-0.5,0-0.8-0.1-1.1-0.4c-0.3-0.3-0.4-0.7-0.4-1.2v-3.3h-1.1v-0.5h1.1v-1.4l0.7-0.2v1.7h1.6v0.5H89.6z
					"/>
				<path class="st7" d="M96.8,286v3.4h-0.7v-3.4c0-0.5-0.1-0.9-0.3-1.2c-0.2-0.2-0.6-0.4-1-0.4c-0.5,0-1,0.2-1.3,0.5
					s-0.5,0.8-0.5,1.3v3.1h-0.6v-3.9c0-0.6,0-1.1-0.1-1.5h0.6l0.1,1c0.2-0.4,0.4-0.6,0.7-0.8s0.7-0.3,1.1-0.3
					C96.1,283.9,96.8,284.6,96.8,286z"/>
				<path class="st7" d="M98.9,286.7L98.9,286.7c0,0.8,0.2,1.3,0.5,1.7c0.3,0.4,0.8,0.6,1.5,0.6c0.6,0,1.2-0.2,1.8-0.7l0.3,0.5
					c-0.2,0.2-0.5,0.4-0.9,0.5c-0.4,0.1-0.7,0.2-1.1,0.2c-0.8,0-1.5-0.2-1.9-0.7c-0.5-0.5-0.7-1.2-0.7-2c0-0.5,0.1-1,0.3-1.5
					c0.2-0.4,0.5-0.8,0.9-1c0.4-0.2,0.8-0.3,1.3-0.3c0.7,0,1.3,0.2,1.7,0.7s0.6,1.1,0.6,1.9v0.1H98.9z M99.5,284.9
					c-0.3,0.3-0.5,0.7-0.6,1.2h3.4c0-0.5-0.2-1-0.5-1.3c-0.3-0.3-0.7-0.4-1.1-0.4C100.2,284.5,99.8,284.6,99.5,284.9z"/>
				<path class="st7" d="M107.2,284l0,0.6c-0.1,0-0.3,0-0.5,0c-0.5,0-0.9,0.2-1.2,0.5c-0.3,0.3-0.4,0.8-0.4,1.2v3.2h-0.6v-3.9
					c0-0.6,0-1.1-0.1-1.5h0.6l0.1,1c0.1-0.4,0.4-0.6,0.7-0.8s0.6-0.3,1-0.3C106.9,283.9,107.1,284,107.2,284z"/>
				<path class="st7" d="M107.9,288.8l0.2-0.5c0.3,0.2,0.6,0.4,0.9,0.5c0.3,0.1,0.6,0.1,1,0.1c0.4,0,0.8-0.1,1-0.2
					c0.2-0.2,0.3-0.4,0.3-0.7c0-0.2-0.1-0.4-0.2-0.6c-0.2-0.1-0.4-0.3-0.8-0.3l-0.9-0.2c-0.4-0.1-0.8-0.3-1-0.5
					c-0.2-0.3-0.4-0.6-0.4-0.9c0-0.5,0.2-0.8,0.5-1.1c0.4-0.3,0.8-0.4,1.4-0.4c0.4,0,0.7,0.1,1.1,0.2c0.3,0.1,0.6,0.3,0.8,0.5
					l-0.2,0.5c-0.5-0.4-1-0.6-1.6-0.6c-0.4,0-0.7,0.1-1,0.2c-0.2,0.2-0.3,0.4-0.3,0.7c0,0.2,0.1,0.4,0.2,0.6s0.4,0.3,0.7,0.3
					l0.9,0.2c1,0.2,1.4,0.7,1.4,1.4c0,0.5-0.2,0.8-0.6,1.1c-0.4,0.3-0.9,0.4-1.5,0.4C109.1,289.5,108.4,289.3,107.9,288.8z"/>
				<path class="st7" d="M118,286v3.4h-0.7v-3.4c0-0.5-0.1-0.9-0.3-1.2c-0.2-0.2-0.6-0.4-1-0.4c-0.5,0-1,0.2-1.3,0.5
					s-0.5,0.8-0.5,1.3v3.1h-0.6v-7.9h0.6v3.5c0.2-0.4,0.4-0.6,0.7-0.8c0.3-0.2,0.7-0.3,1.1-0.3C117.3,283.9,118,284.6,118,286z"/>
				<path class="st7" d="M120.5,281.8v0.8h-0.9v-0.8H120.5z M119.8,284.1h0.6v5.4h-0.6V284.1z"/>
				<path class="st7" d="M126,284.3c0.4,0.2,0.6,0.6,0.8,1c0.2,0.4,0.3,0.9,0.3,1.5c0,0.6-0.1,1-0.3,1.5c-0.2,0.4-0.5,0.7-0.8,1
					c-0.4,0.2-0.8,0.3-1.3,0.3c-0.5,0-0.8-0.1-1.2-0.3c-0.3-0.2-0.6-0.5-0.7-0.9v3.4h-0.6v-6.2c0-0.6,0-1.1-0.1-1.5h0.6l0.1,1
					c0.2-0.4,0.4-0.7,0.7-0.9s0.7-0.3,1.2-0.3C125.2,283.9,125.7,284.1,126,284.3z M126,288.4c0.3-0.4,0.5-0.9,0.5-1.6
					c0-0.7-0.2-1.2-0.5-1.6c-0.3-0.4-0.8-0.6-1.3-0.6c-0.6,0-1,0.2-1.3,0.6s-0.5,0.9-0.5,1.6c0,0.7,0.2,1.2,0.5,1.6s0.7,0.6,1.3,0.6
					C125.3,288.9,125.7,288.7,126,288.4z"/>
				<path class="st7" d="M131.5,281.8h4.7v0.6h-4.1v2.9h3.8v0.6h-3.8v3h4.1v0.6h-4.7V281.8z"/>
				<path class="st7" d="M137.4,288.8l0.2-0.5c0.3,0.2,0.6,0.4,0.9,0.5c0.3,0.1,0.6,0.1,1,0.1c0.4,0,0.8-0.1,1-0.2
					c0.2-0.2,0.3-0.4,0.3-0.7c0-0.2-0.1-0.4-0.2-0.6c-0.2-0.1-0.4-0.3-0.8-0.3l-0.9-0.2c-0.4-0.1-0.8-0.3-1-0.5
					c-0.2-0.3-0.4-0.6-0.4-0.9c0-0.5,0.2-0.8,0.5-1.1c0.4-0.3,0.8-0.4,1.4-0.4c0.4,0,0.7,0.1,1.1,0.2c0.3,0.1,0.6,0.3,0.8,0.5
					l-0.2,0.5c-0.5-0.4-1-0.6-1.6-0.6c-0.4,0-0.7,0.1-1,0.2c-0.2,0.2-0.3,0.4-0.3,0.7c0,0.2,0.1,0.4,0.2,0.6s0.4,0.3,0.7,0.3
					l0.9,0.2c1,0.2,1.4,0.7,1.4,1.4c0,0.5-0.2,0.8-0.6,1.1c-0.4,0.3-0.9,0.4-1.5,0.4C138.6,289.5,137.9,289.3,137.4,288.8z"/>
				<path class="st7" d="M144,284.6v3.2c0,0.4,0.1,0.7,0.2,0.9c0.2,0.2,0.4,0.2,0.7,0.2c0.2,0,0.4,0,0.6-0.1v0.6
					c-0.2,0.1-0.5,0.1-0.7,0.1c-0.5,0-0.8-0.1-1.1-0.4c-0.3-0.3-0.4-0.7-0.4-1.2v-3.3h-1.1v-0.5h1.1v-1.4l0.7-0.2v1.7h1.6v0.5H144z"
					/>
				<path class="st7" d="M151.3,284.1v5.4h-0.7v-1c-0.2,0.4-0.4,0.6-0.7,0.8c-0.3,0.2-0.7,0.3-1.1,0.3c-0.5,0-0.9-0.1-1.3-0.3
					c-0.4-0.2-0.6-0.5-0.8-1c-0.2-0.4-0.3-0.9-0.3-1.5c0-0.6,0.1-1,0.3-1.5c0.2-0.4,0.5-0.8,0.8-1c0.4-0.2,0.8-0.3,1.2-0.3
					c0.4,0,0.8,0.1,1.1,0.3c0.3,0.2,0.6,0.5,0.7,0.8v-1H151.3z M150.2,288.4c0.3-0.4,0.5-0.9,0.5-1.6c0-0.7-0.2-1.3-0.5-1.6
					c-0.3-0.4-0.7-0.6-1.3-0.6s-1,0.2-1.3,0.6c-0.3,0.4-0.5,0.9-0.5,1.6c0,0.7,0.2,1.2,0.5,1.6c0.3,0.4,0.8,0.6,1.3,0.6
					C149.4,288.9,149.9,288.7,150.2,288.4z"/>
				<path class="st7" d="M156.9,284.3c0.4,0.2,0.6,0.5,0.8,1c0.2,0.4,0.3,0.9,0.3,1.5c0,0.6-0.1,1-0.3,1.5c-0.2,0.4-0.5,0.8-0.8,1
					c-0.4,0.2-0.8,0.3-1.2,0.3c-0.4,0-0.8-0.1-1.1-0.3s-0.6-0.5-0.7-0.8v1.1h-0.7v-7.9h0.6v3.5c0.2-0.4,0.4-0.7,0.7-0.8
					c0.3-0.2,0.7-0.3,1.1-0.3C156.1,283.9,156.5,284.1,156.9,284.3z M156.8,288.3c0.3-0.4,0.5-0.9,0.5-1.6c0-0.7-0.2-1.2-0.5-1.6
					s-0.8-0.6-1.3-0.6c-0.6,0-1,0.2-1.3,0.6s-0.5,0.9-0.5,1.6c0,0.7,0.2,1.3,0.5,1.6c0.3,0.4,0.7,0.6,1.3,0.6
					C156.1,288.9,156.5,288.7,156.8,288.3z"/>
				<path class="st7" d="M159.5,281.5h0.6v7.9h-0.6V281.5z"/>
				<path class="st7" d="M162.8,281.8v0.8h-0.9v-0.8H162.8z M162,284.1h0.6v5.4H162V284.1z"/>
				<path class="st7" d="M164.2,288.8l0.2-0.5c0.3,0.2,0.6,0.4,0.9,0.5c0.3,0.1,0.6,0.1,1,0.1c0.4,0,0.8-0.1,1-0.2
					c0.2-0.2,0.3-0.4,0.3-0.7c0-0.2-0.1-0.4-0.2-0.6c-0.2-0.1-0.4-0.3-0.8-0.3l-0.9-0.2c-0.4-0.1-0.8-0.3-1-0.5
					c-0.2-0.3-0.4-0.6-0.4-0.9c0-0.5,0.2-0.8,0.5-1.1c0.4-0.3,0.8-0.4,1.4-0.4c0.4,0,0.7,0.1,1.1,0.2c0.3,0.1,0.6,0.3,0.8,0.5
					l-0.2,0.5c-0.5-0.4-1-0.6-1.6-0.6c-0.4,0-0.7,0.1-1,0.2c-0.2,0.2-0.3,0.4-0.3,0.7c0,0.2,0.1,0.4,0.2,0.6s0.4,0.3,0.7,0.3
					l0.9,0.2c1,0.2,1.4,0.7,1.4,1.4c0,0.5-0.2,0.8-0.6,1.1c-0.4,0.3-0.9,0.4-1.5,0.4C165.4,289.5,164.7,289.3,164.2,288.8z"/>
				<path class="st7" d="M174.3,286v3.4h-0.7v-3.4c0-0.5-0.1-0.9-0.3-1.2c-0.2-0.2-0.6-0.4-1-0.4c-0.5,0-1,0.2-1.3,0.5
					s-0.5,0.8-0.5,1.3v3.1h-0.6v-7.9h0.6v3.5c0.2-0.4,0.4-0.6,0.7-0.8c0.3-0.2,0.7-0.3,1.1-0.3C173.6,283.9,174.3,284.6,174.3,286z"
					/>
				<path class="st7" d="M183.6,286v3.4H183v-3.4c0-0.5-0.1-0.9-0.3-1.2c-0.2-0.2-0.5-0.4-0.9-0.4c-0.5,0-0.9,0.2-1.2,0.5
					s-0.4,0.8-0.4,1.3v3.1h-0.7v-3.4c0-0.5-0.1-0.9-0.3-1.2c-0.2-0.2-0.5-0.4-0.9-0.4c-0.5,0-0.9,0.2-1.2,0.5
					c-0.3,0.3-0.4,0.8-0.4,1.3v3.1h-0.6v-3.9c0-0.6,0-1.1-0.1-1.5h0.6l0.1,1c0.1-0.4,0.4-0.6,0.7-0.8c0.3-0.2,0.6-0.3,1-0.3
					c0.9,0,1.4,0.4,1.7,1.1c0.1-0.3,0.4-0.6,0.7-0.8c0.3-0.2,0.7-0.3,1.1-0.3C183.1,283.9,183.6,284.6,183.6,286z"/>
				<path class="st7" d="M185.8,286.7L185.8,286.7c0,0.8,0.2,1.3,0.5,1.7c0.3,0.4,0.8,0.6,1.5,0.6c0.6,0,1.2-0.2,1.8-0.7l0.3,0.5
					c-0.2,0.2-0.5,0.4-0.9,0.5c-0.4,0.1-0.7,0.2-1.1,0.2c-0.8,0-1.5-0.2-1.9-0.7c-0.5-0.5-0.7-1.2-0.7-2c0-0.5,0.1-1,0.3-1.5
					c0.2-0.4,0.5-0.8,0.9-1c0.4-0.2,0.8-0.3,1.3-0.3c0.7,0,1.3,0.2,1.7,0.7s0.6,1.1,0.6,1.9v0.1H185.8z M186.4,284.9
					c-0.3,0.3-0.5,0.7-0.6,1.2h3.4c0-0.5-0.2-1-0.5-1.3c-0.3-0.3-0.7-0.4-1.1-0.4C187.1,284.5,186.7,284.6,186.4,284.9z"/>
				<path class="st7" d="M195.8,286v3.4h-0.7v-3.4c0-0.5-0.1-0.9-0.3-1.2c-0.2-0.2-0.6-0.4-1-0.4c-0.5,0-1,0.2-1.3,0.5
					s-0.5,0.8-0.5,1.3v3.1h-0.6v-3.9c0-0.6,0-1.1-0.1-1.5h0.6l0.1,1c0.2-0.4,0.4-0.6,0.7-0.8s0.7-0.3,1.1-0.3
					C195.1,283.9,195.8,284.6,195.8,286z"/>
				<path class="st7" d="M198.5,284.6v3.2c0,0.4,0.1,0.7,0.2,0.9c0.2,0.2,0.4,0.2,0.7,0.2c0.2,0,0.4,0,0.6-0.1v0.6
					c-0.2,0.1-0.5,0.1-0.7,0.1c-0.5,0-0.8-0.1-1.1-0.4c-0.3-0.3-0.4-0.7-0.4-1.2v-3.3h-1.1v-0.5h1.1v-1.4l0.7-0.2v1.7h1.6v0.5H198.5
					z"/>
				<g>
					<path class="st1" d="M52.2,308.3c-0.3-0.2-0.5-0.4-0.7-0.7c-0.2-0.3-0.3-0.6-0.3-1c0-0.3,0.1-0.6,0.3-0.9
						c0.2-0.3,0.4-0.5,0.7-0.7c0.3-0.2,0.6-0.3,1-0.3c0.3,0,0.7,0.1,1,0.3c0.3,0.2,0.5,0.4,0.7,0.7c0.2,0.3,0.3,0.6,0.3,1
						c0,0.4-0.1,0.7-0.3,1c-0.2,0.3-0.4,0.5-0.7,0.7c-0.3,0.2-0.6,0.3-1,0.3S52.5,308.5,52.2,308.3z"/>
					<path class="st1" d="M53.1,308.7c-0.4,0-0.7-0.1-1-0.3l0,0c-0.3-0.2-0.6-0.4-0.8-0.7c-0.2-0.3-0.3-0.7-0.3-1
						c0-0.3,0.1-0.7,0.3-1c0.2-0.3,0.4-0.6,0.8-0.8c0.6-0.4,1.4-0.4,2.1,0c0.3,0.2,0.6,0.4,0.8,0.7c0.2,0.3,0.3,0.7,0.3,1
						c0,0.4-0.1,0.7-0.3,1s-0.4,0.6-0.8,0.7C53.9,308.6,53.5,308.7,53.1,308.7z M53.1,304.9c-0.3,0-0.7,0.1-0.9,0.2
						c-0.3,0.2-0.5,0.4-0.7,0.7c-0.2,0.3-0.2,0.6-0.2,0.9c0,0.3,0.1,0.6,0.2,0.9c0.2,0.3,0.4,0.5,0.7,0.7l0,0c0.6,0.3,1.3,0.3,1.8,0
						c0.3-0.2,0.5-0.4,0.7-0.7c0.2-0.3,0.2-0.6,0.2-0.9c0-0.3-0.1-0.6-0.2-0.9c-0.2-0.3-0.4-0.5-0.7-0.6
						C53.8,304.9,53.5,304.9,53.1,304.9z"/>
				</g>
				<path class="st7" d="M76.4,307.5h-4.1l-0.9,2h-0.7l3.3-7.6h0.6l3.3,7.6h-0.7L76.4,307.5z M76.1,306.9l-1.8-4.2l-1.8,4.2H76.1z"
					/>
				<path class="st7" d="M83.5,304.2v5.4h-0.6v-1c-0.2,0.3-0.4,0.6-0.7,0.8s-0.7,0.3-1.1,0.3c-0.6,0-1.1-0.2-1.4-0.5
					c-0.3-0.3-0.5-0.9-0.5-1.6v-3.4h0.6v3.3c0,0.5,0.1,0.9,0.3,1.2c0.2,0.3,0.5,0.4,1,0.4c0.5,0,1-0.2,1.3-0.5
					c0.3-0.3,0.5-0.8,0.5-1.3v-3H83.5z"/>
				<path class="st7" d="M86.2,304.7v3.2c0,0.4,0.1,0.7,0.2,0.9c0.2,0.2,0.4,0.2,0.7,0.2c0.2,0,0.4,0,0.6-0.1v0.6
					c-0.2,0.1-0.5,0.1-0.7,0.1c-0.5,0-0.8-0.1-1.1-0.4c-0.3-0.3-0.4-0.7-0.4-1.2v-3.3h-1.1v-0.5h1.1v-1.4l0.7-0.2v1.7h1.6v0.5H86.2z
					"/>
				<path class="st7" d="M93.4,306.1v3.4h-0.7v-3.4c0-0.5-0.1-0.9-0.3-1.2c-0.2-0.2-0.6-0.4-1-0.4c-0.5,0-1,0.2-1.3,0.5
					s-0.5,0.8-0.5,1.3v3.1H89v-7.9h0.6v3.5c0.2-0.4,0.4-0.6,0.7-0.8c0.3-0.2,0.7-0.3,1.1-0.3C92.7,304,93.4,304.7,93.4,306.1z"/>
				<path class="st7" d="M96,309.3c-0.4-0.2-0.7-0.6-0.9-1c-0.2-0.4-0.3-0.9-0.3-1.5c0-0.6,0.1-1,0.3-1.5s0.5-0.7,0.9-1
					c0.4-0.2,0.8-0.3,1.3-0.3c0.5,0,0.9,0.1,1.3,0.3c0.4,0.2,0.7,0.6,0.9,1s0.3,0.9,0.3,1.5c0,0.6-0.1,1-0.3,1.5
					c-0.2,0.4-0.5,0.7-0.9,1c-0.4,0.2-0.8,0.3-1.3,0.3C96.8,309.6,96.4,309.5,96,309.3z M98.6,308.5c0.3-0.4,0.5-0.9,0.5-1.6
					c0-0.7-0.2-1.2-0.5-1.6c-0.3-0.4-0.8-0.6-1.3-0.6c-0.6,0-1,0.2-1.3,0.6c-0.3,0.4-0.5,0.9-0.5,1.6c0,0.7,0.2,1.3,0.5,1.6
					c0.3,0.4,0.7,0.6,1.3,0.6C97.9,309,98.3,308.8,98.6,308.5z"/>
				<path class="st7" d="M104.1,304.1l0,0.6c-0.1,0-0.3,0-0.5,0c-0.5,0-0.9,0.2-1.2,0.5c-0.3,0.3-0.4,0.8-0.4,1.2v3.2h-0.6v-3.9
					c0-0.6,0-1.1-0.1-1.5h0.6l0.1,1c0.1-0.4,0.4-0.6,0.7-0.8s0.6-0.3,1-0.3C103.8,304,103.9,304,104.1,304.1z"/>
				<path class="st7" d="M105.8,301.9v0.8H105v-0.8H105.8z M105.1,304.2h0.6v5.4h-0.6V304.2z"/>
				<path class="st7" d="M111.7,309v0.5h-4.5v-0.5l3.6-4.4h-3.4v-0.5h4.2v0.5l-3.5,4.3H111.7z"/>
				<path class="st7" d="M117.6,304.2v5.4h-0.7v-1c-0.2,0.4-0.4,0.6-0.7,0.8c-0.3,0.2-0.7,0.3-1.1,0.3c-0.5,0-0.9-0.1-1.3-0.3
					c-0.4-0.2-0.6-0.5-0.8-1c-0.2-0.4-0.3-0.9-0.3-1.5c0-0.6,0.1-1,0.3-1.5c0.2-0.4,0.5-0.8,0.8-1c0.4-0.2,0.8-0.3,1.2-0.3
					c0.4,0,0.8,0.1,1.1,0.3c0.3,0.2,0.6,0.5,0.7,0.8v-1H117.6z M116.5,308.4c0.3-0.4,0.5-0.9,0.5-1.6c0-0.7-0.2-1.3-0.5-1.6
					c-0.3-0.4-0.7-0.6-1.3-0.6s-1,0.2-1.3,0.6c-0.3,0.4-0.5,0.9-0.5,1.6c0,0.7,0.2,1.2,0.5,1.6c0.3,0.4,0.8,0.6,1.3,0.6
					C115.7,309,116.2,308.8,116.5,308.4z"/>
				<path class="st7" d="M120.3,304.7v3.2c0,0.4,0.1,0.7,0.2,0.9c0.2,0.2,0.4,0.2,0.7,0.2c0.2,0,0.4,0,0.6-0.1v0.6
					c-0.2,0.1-0.5,0.1-0.7,0.1c-0.5,0-0.8-0.1-1.1-0.4c-0.3-0.3-0.4-0.7-0.4-1.2v-3.3h-1.1v-0.5h1.1v-1.4l0.7-0.2v1.7h1.6v0.5H120.3
					z"/>
				<path class="st7" d="M123.9,301.9v0.8H123v-0.8H123.9z M123.1,304.2h0.6v5.4h-0.6V304.2z"/>
				<path class="st7" d="M126.4,309.3c-0.4-0.2-0.7-0.6-0.9-1c-0.2-0.4-0.3-0.9-0.3-1.5c0-0.6,0.1-1,0.3-1.5s0.5-0.7,0.9-1
					c0.4-0.2,0.8-0.3,1.3-0.3c0.5,0,0.9,0.1,1.3,0.3c0.4,0.2,0.7,0.6,0.9,1s0.3,0.9,0.3,1.5c0,0.6-0.1,1-0.3,1.5
					c-0.2,0.4-0.5,0.7-0.9,1c-0.4,0.2-0.8,0.3-1.3,0.3C127.2,309.6,126.8,309.5,126.4,309.3z M129,308.5c0.3-0.4,0.5-0.9,0.5-1.6
					c0-0.7-0.2-1.2-0.5-1.6c-0.3-0.4-0.8-0.6-1.3-0.6c-0.6,0-1,0.2-1.3,0.6c-0.3,0.4-0.5,0.9-0.5,1.6c0,0.7,0.2,1.3,0.5,1.6
					c0.3,0.4,0.7,0.6,1.3,0.6C128.3,309,128.7,308.8,129,308.5z"/>
				<path class="st7" d="M136.1,306.1v3.4h-0.7v-3.4c0-0.5-0.1-0.9-0.3-1.2c-0.2-0.2-0.6-0.4-1-0.4c-0.5,0-1,0.2-1.3,0.5
					s-0.5,0.8-0.5,1.3v3.1h-0.6v-3.9c0-0.6,0-1.1-0.1-1.5h0.6l0.1,1c0.2-0.4,0.4-0.6,0.7-0.8s0.7-0.3,1.1-0.3
					C135.4,304,136.1,304.7,136.1,306.1z"/>
				<path class="st7" d="M140.8,301.9h2.9c0.8,0,1.4,0.2,1.8,0.6c0.4,0.4,0.7,0.9,0.7,1.5c0,0.7-0.2,1.2-0.7,1.5
					c-0.4,0.4-1,0.6-1.8,0.6h-2.3v3.4h-0.7V301.9z M143.7,305.5c0.6,0,1.1-0.1,1.4-0.4s0.5-0.6,0.5-1.1c0-0.5-0.2-0.9-0.5-1.1
					c-0.3-0.3-0.8-0.4-1.4-0.4h-2.2v3.1H143.7z"/>
				<path class="st7" d="M147.6,301.6h0.6v7.9h-0.6V301.6z"/>
				<path class="st7" d="M154.7,304.2v5.4H154v-1c-0.2,0.4-0.4,0.6-0.7,0.8c-0.3,0.2-0.7,0.3-1.1,0.3c-0.5,0-0.9-0.1-1.3-0.3
					c-0.4-0.2-0.6-0.5-0.8-1c-0.2-0.4-0.3-0.9-0.3-1.5c0-0.6,0.1-1,0.3-1.5c0.2-0.4,0.5-0.8,0.8-1c0.4-0.2,0.8-0.3,1.2-0.3
					c0.4,0,0.8,0.1,1.1,0.3c0.3,0.2,0.6,0.5,0.7,0.8v-1H154.7z M153.6,308.4c0.3-0.4,0.5-0.9,0.5-1.6c0-0.7-0.2-1.3-0.5-1.6
					c-0.3-0.4-0.7-0.6-1.3-0.6s-1,0.2-1.3,0.6c-0.3,0.4-0.5,0.9-0.5,1.6c0,0.7,0.2,1.2,0.5,1.6c0.3,0.4,0.8,0.6,1.3,0.6
					C152.8,309,153.3,308.8,153.6,308.4z"/>
				<path class="st7" d="M161,306.1v3.4h-0.7v-3.4c0-0.5-0.1-0.9-0.3-1.2c-0.2-0.2-0.6-0.4-1-0.4c-0.5,0-1,0.2-1.3,0.5
					s-0.5,0.8-0.5,1.3v3.1h-0.6v-3.9c0-0.6,0-1.1-0.1-1.5h0.6l0.1,1c0.2-0.4,0.4-0.6,0.7-0.8s0.7-0.3,1.1-0.3
					C160.3,304,161,304.7,161,306.1z"/>
				<path class="st7" d="M167.2,306.1v3.4h-0.7v-3.4c0-0.5-0.1-0.9-0.3-1.2c-0.2-0.2-0.6-0.4-1-0.4c-0.5,0-1,0.2-1.3,0.5
					s-0.5,0.8-0.5,1.3v3.1h-0.6v-3.9c0-0.6,0-1.1-0.1-1.5h0.6l0.1,1c0.2-0.4,0.4-0.6,0.7-0.8s0.7-0.3,1.1-0.3
					C166.6,304,167.2,304.7,167.2,306.1z"/>
				<path class="st7" d="M169.8,301.9v0.8h-0.9v-0.8H169.8z M169,304.2h0.6v5.4H169V304.2z"/>
				<path class="st7" d="M176,306.1v3.4h-0.7v-3.4c0-0.5-0.1-0.9-0.3-1.2c-0.2-0.2-0.6-0.4-1-0.4c-0.5,0-1,0.2-1.3,0.5
					s-0.5,0.8-0.5,1.3v3.1h-0.6v-3.9c0-0.6,0-1.1-0.1-1.5h0.6l0.1,1c0.2-0.4,0.4-0.6,0.7-0.8s0.7-0.3,1.1-0.3
					C175.3,304,176,304.7,176,306.1z"/>
				<path class="st7" d="M182.4,304.2v5.4c0,0.8-0.2,1.4-0.6,1.8s-1,0.6-1.7,0.6c-0.8,0-1.5-0.2-2.1-0.6l0.1-0.6
					c0.4,0.2,0.7,0.4,1,0.4c0.3,0.1,0.6,0.1,1,0.1c0.5,0,0.9-0.1,1.2-0.4s0.4-0.7,0.4-1.3v-1.4c-0.2,0.4-0.4,0.6-0.7,0.8
					c-0.3,0.2-0.7,0.3-1.2,0.3c-0.5,0-0.9-0.1-1.3-0.3c-0.4-0.2-0.6-0.5-0.9-0.9c-0.2-0.4-0.3-0.9-0.3-1.4c0-0.5,0.1-1,0.3-1.4
					c0.2-0.4,0.5-0.7,0.9-0.9c0.4-0.2,0.8-0.3,1.3-0.3c0.5,0,0.8,0.1,1.2,0.3c0.3,0.2,0.6,0.5,0.7,0.8v-1H182.4z M181.2,308.2
					c0.3-0.4,0.5-0.9,0.5-1.5c0-0.6-0.2-1.2-0.5-1.5s-0.8-0.6-1.3-0.6c-0.6,0-1,0.2-1.3,0.6c-0.3,0.4-0.5,0.9-0.5,1.5
					c0,0.7,0.2,1.2,0.5,1.5c0.3,0.4,0.8,0.6,1.3,0.6C180.5,308.8,180.9,308.6,181.2,308.2z"/>
				<g>
					<path class="st1" d="M52.2,328.4c-0.3-0.2-0.5-0.4-0.7-0.7c-0.2-0.3-0.3-0.6-0.3-1c0-0.3,0.1-0.6,0.3-0.9
						c0.2-0.3,0.4-0.5,0.7-0.7c0.3-0.2,0.6-0.3,1-0.3c0.3,0,0.7,0.1,1,0.3c0.3,0.2,0.5,0.4,0.7,0.7c0.2,0.3,0.3,0.6,0.3,1
						c0,0.4-0.1,0.7-0.3,1c-0.2,0.3-0.4,0.5-0.7,0.7c-0.3,0.2-0.6,0.3-1,0.3S52.5,328.6,52.2,328.4z"/>
					<path class="st1" d="M53.1,328.8c-0.4,0-0.7-0.1-1-0.3l0,0c-0.3-0.2-0.6-0.4-0.8-0.7c-0.2-0.3-0.3-0.7-0.3-1
						c0-0.3,0.1-0.7,0.3-1c0.2-0.3,0.4-0.6,0.8-0.8c0.6-0.4,1.4-0.4,2.1,0c0.3,0.2,0.6,0.4,0.8,0.7c0.2,0.3,0.3,0.7,0.3,1
						c0,0.4-0.1,0.7-0.3,1s-0.4,0.6-0.8,0.7C53.9,328.7,53.5,328.8,53.1,328.8z M53.1,325c-0.3,0-0.7,0.1-0.9,0.2
						c-0.3,0.2-0.5,0.4-0.7,0.7c-0.2,0.3-0.2,0.6-0.2,0.9c0,0.3,0.1,0.6,0.2,0.9c0.2,0.3,0.4,0.5,0.7,0.7l0,0c0.6,0.3,1.3,0.3,1.8,0
						c0.3-0.2,0.5-0.4,0.7-0.7c0.2-0.3,0.2-0.6,0.2-0.9c0-0.3-0.1-0.6-0.2-0.9c-0.2-0.3-0.4-0.5-0.7-0.6C53.8,325,53.5,325,53.1,325
						z"/>
				</g>
				<path class="st7" d="M76.2,329.6l-4.1-3.7v3.7h-0.7V322h0.7v3.5L76,322h0.9l-4.1,3.7l4.3,3.9H76.2z"/>
				<path class="st7" d="M78.7,322v0.8h-0.9V322H78.7z M78,324.3h0.6v5.4H78V324.3z"/>
				<path class="st7" d="M81.3,329.4c-0.4-0.2-0.7-0.6-0.9-1c-0.2-0.4-0.3-0.9-0.3-1.5c0-0.6,0.1-1,0.3-1.5c0.2-0.4,0.5-0.8,0.9-1
					c0.4-0.2,0.8-0.3,1.3-0.3c0.4,0,0.7,0.1,1,0.2c0.3,0.1,0.6,0.3,0.8,0.5l-0.3,0.5c-0.3-0.2-0.5-0.4-0.8-0.5
					c-0.3-0.1-0.5-0.2-0.8-0.2c-0.6,0-1,0.2-1.4,0.6c-0.3,0.4-0.5,0.9-0.5,1.6c0,0.7,0.2,1.2,0.5,1.6c0.3,0.4,0.8,0.6,1.4,0.6
					c0.3,0,0.5-0.1,0.8-0.2c0.3-0.1,0.5-0.3,0.8-0.5l0.3,0.5c-0.2,0.2-0.5,0.4-0.9,0.5c-0.3,0.1-0.7,0.2-1,0.2
					C82.1,329.7,81.7,329.6,81.3,329.4z"/>
				<path class="st7" d="M89.4,329.6l-3-2.6v2.6h-0.6v-7.9h0.6v5l2.7-2.5H90l-2.8,2.6l3.1,2.8H89.4z"/>
				<path class="st7" d="M90.9,326.5h2.9v0.6h-2.9V326.5z"/>
				<path class="st7" d="M96.5,329.4c-0.4-0.2-0.7-0.6-0.9-1c-0.2-0.4-0.3-0.9-0.3-1.5c0-0.6,0.1-1,0.3-1.5s0.5-0.7,0.9-1
					c0.4-0.2,0.8-0.3,1.3-0.3c0.5,0,0.9,0.1,1.3,0.3c0.4,0.2,0.7,0.6,0.9,1s0.3,0.9,0.3,1.5c0,0.6-0.1,1-0.3,1.5
					c-0.2,0.4-0.5,0.7-0.9,1c-0.4,0.2-0.8,0.3-1.3,0.3C97.4,329.7,96.9,329.6,96.5,329.4z M99.2,328.5c0.3-0.4,0.5-0.9,0.5-1.6
					c0-0.7-0.2-1.2-0.5-1.6c-0.3-0.4-0.8-0.6-1.3-0.6c-0.6,0-1,0.2-1.3,0.6c-0.3,0.4-0.5,0.9-0.5,1.6c0,0.7,0.2,1.3,0.5,1.6
					c0.3,0.4,0.7,0.6,1.3,0.6C98.4,329.1,98.8,328.9,99.2,328.5z"/>
				<path class="st7" d="M102.9,322.5c-0.2,0.2-0.2,0.5-0.2,0.9v0.8h1.4v0.5h-1.4v4.8H102v-4.8h-1v-0.5h1v-1c0-0.5,0.1-0.9,0.4-1.2
					c0.3-0.3,0.6-0.4,1.1-0.4c0.2,0,0.4,0,0.7,0.1v0.6c-0.2-0.1-0.4-0.1-0.5-0.1C103.3,322.3,103.1,322.4,102.9,322.5z"/>
				<path class="st7" d="M106.5,322.5c-0.2,0.2-0.2,0.5-0.2,0.9v0.8h1.4v0.5h-1.4v4.8h-0.7v-4.8h-1v-0.5h1v-1c0-0.5,0.1-0.9,0.4-1.2
					c0.3-0.3,0.6-0.4,1.1-0.4c0.2,0,0.4,0,0.7,0.1v0.6c-0.2-0.1-0.4-0.1-0.5-0.1C106.9,322.3,106.7,322.4,106.5,322.5z"/>
				<path class="st7" d="M118.9,322v7.6h-0.6v-6.1l-2.7,6.1h-0.5l-2.7-6.1l0,6.1h-0.6V322h0.5l3,6.8l3-6.8H118.9z"/>
				<path class="st7" d="M121.2,326.9L121.2,326.9c0,0.8,0.2,1.3,0.5,1.7c0.3,0.4,0.8,0.6,1.5,0.6c0.6,0,1.2-0.2,1.8-0.7l0.3,0.5
					c-0.2,0.2-0.5,0.4-0.9,0.5c-0.4,0.1-0.7,0.2-1.1,0.2c-0.8,0-1.5-0.2-1.9-0.7c-0.5-0.5-0.7-1.2-0.7-2c0-0.5,0.1-1,0.3-1.5
					c0.2-0.4,0.5-0.8,0.9-1c0.4-0.2,0.8-0.3,1.3-0.3c0.7,0,1.3,0.2,1.7,0.7s0.6,1.1,0.6,1.9v0.1H121.2z M121.8,325.1
					c-0.3,0.3-0.5,0.7-0.6,1.2h3.4c0-0.5-0.2-1-0.5-1.3c-0.3-0.3-0.7-0.4-1.1-0.4C122.5,324.7,122.1,324.8,121.8,325.1z"/>
				<path class="st7" d="M127,326.9L127,326.9c0,0.8,0.2,1.3,0.5,1.7c0.3,0.4,0.8,0.6,1.5,0.6c0.6,0,1.2-0.2,1.8-0.7l0.3,0.5
					c-0.2,0.2-0.5,0.4-0.9,0.5c-0.4,0.1-0.7,0.2-1.1,0.2c-0.8,0-1.5-0.2-1.9-0.7c-0.5-0.5-0.7-1.2-0.7-2c0-0.5,0.1-1,0.3-1.5
					c0.2-0.4,0.5-0.8,0.9-1c0.4-0.2,0.8-0.3,1.3-0.3c0.7,0,1.3,0.2,1.7,0.7s0.6,1.1,0.6,1.9v0.1H127z M127.6,325.1
					c-0.3,0.3-0.5,0.7-0.6,1.2h3.4c0-0.5-0.2-1-0.5-1.3c-0.3-0.3-0.7-0.4-1.1-0.4C128.4,324.7,128,324.8,127.6,325.1z"/>
				<path class="st7" d="M133.5,324.8v3.2c0,0.4,0.1,0.7,0.2,0.9c0.2,0.2,0.4,0.2,0.7,0.2c0.2,0,0.4,0,0.6-0.1v0.6
					c-0.2,0.1-0.5,0.1-0.7,0.1c-0.5,0-0.8-0.1-1.1-0.4c-0.3-0.3-0.4-0.7-0.4-1.2v-3.3h-1.1v-0.5h1.1v-1.4l0.7-0.2v1.7h1.6v0.5H133.5
					z"/>
				<path class="st7" d="M137,322v0.8h-0.9V322H137z M136.2,324.3h0.6v5.4h-0.6V324.3z"/>
				<path class="st7" d="M143.1,326.2v3.4h-0.7v-3.4c0-0.5-0.1-0.9-0.3-1.2c-0.2-0.2-0.6-0.4-1-0.4c-0.5,0-1,0.2-1.3,0.5
					s-0.5,0.8-0.5,1.3v3.1h-0.6v-3.9c0-0.6,0-1.1-0.1-1.5h0.6l0.1,1c0.2-0.4,0.4-0.6,0.7-0.8s0.7-0.3,1.1-0.3
					C142.5,324.1,143.1,324.8,143.1,326.2z"/>
				<path class="st7" d="M149.6,324.3v5.4c0,0.8-0.2,1.4-0.6,1.8s-1,0.6-1.7,0.6c-0.8,0-1.5-0.2-2.1-0.6l0.1-0.6
					c0.4,0.2,0.7,0.4,1,0.4c0.3,0.1,0.6,0.1,1,0.1c0.5,0,0.9-0.1,1.2-0.4s0.4-0.7,0.4-1.3v-1.4c-0.2,0.4-0.4,0.6-0.7,0.8
					c-0.3,0.2-0.7,0.3-1.2,0.3c-0.5,0-0.9-0.1-1.3-0.3c-0.4-0.2-0.6-0.5-0.9-0.9c-0.2-0.4-0.3-0.9-0.3-1.4c0-0.5,0.1-1,0.3-1.4
					c0.2-0.4,0.5-0.7,0.9-0.9c0.4-0.2,0.8-0.3,1.3-0.3c0.5,0,0.8,0.1,1.2,0.3c0.3,0.2,0.6,0.5,0.7,0.8v-1H149.6z M148.4,328.3
					c0.3-0.4,0.5-0.9,0.5-1.5c0-0.6-0.2-1.2-0.5-1.5s-0.8-0.6-1.3-0.6c-0.6,0-1,0.2-1.3,0.6c-0.3,0.4-0.5,0.9-0.5,1.5
					c0,0.7,0.2,1.2,0.5,1.5c0.3,0.4,0.8,0.6,1.3,0.6C147.7,328.9,148.1,328.7,148.4,328.3z"/>
				<path class="st7" d="M71.4,342.1H76v0.6h-3.9v2.9h3.7v0.6h-3.7v3.6h-0.7V342.1z"/>
				<path class="st7" d="M77.6,346.9L77.6,346.9c0,0.8,0.2,1.3,0.5,1.7c0.3,0.4,0.8,0.6,1.5,0.6c0.6,0,1.2-0.2,1.8-0.7l0.3,0.5
					c-0.2,0.2-0.5,0.4-0.9,0.5c-0.4,0.1-0.7,0.2-1.1,0.2c-0.8,0-1.5-0.2-1.9-0.7c-0.5-0.5-0.7-1.2-0.7-2c0-0.5,0.1-1,0.3-1.5
					c0.2-0.4,0.5-0.8,0.9-1c0.4-0.2,0.8-0.3,1.3-0.3c0.7,0,1.3,0.2,1.7,0.7s0.6,1.1,0.6,1.9v0.1H77.6z M78.2,345.2
					c-0.3,0.3-0.5,0.7-0.6,1.2H81c0-0.5-0.2-1-0.5-1.3c-0.3-0.3-0.7-0.4-1.1-0.4C78.9,344.8,78.5,344.9,78.2,345.2z"/>
				<path class="st7" d="M87.6,341.8v7.9H87v-1c-0.2,0.4-0.4,0.6-0.7,0.8c-0.3,0.2-0.7,0.3-1.1,0.3c-0.5,0-0.9-0.1-1.2-0.3
					c-0.4-0.2-0.6-0.6-0.8-1c-0.2-0.4-0.3-0.9-0.3-1.5c0-0.6,0.1-1,0.3-1.5c0.2-0.4,0.5-0.7,0.8-1c0.4-0.2,0.8-0.3,1.3-0.3
					c0.4,0,0.8,0.1,1.1,0.3c0.3,0.2,0.6,0.5,0.7,0.8v-3.5H87.6z M86.5,348.6c0.3-0.4,0.5-0.9,0.5-1.6c0-0.7-0.2-1.2-0.5-1.6
					c-0.3-0.4-0.7-0.6-1.3-0.6c-0.6,0-1,0.2-1.3,0.6c-0.3,0.4-0.5,0.9-0.5,1.6c0,0.7,0.2,1.2,0.5,1.6c0.3,0.4,0.8,0.6,1.3,0.6
					S86.2,349,86.5,348.6z"/>
				<path class="st7" d="M95.4,349.7h-0.7l-1-2.5c-0.1-0.3-0.3-0.6-0.5-0.7s-0.5-0.2-0.9-0.2h-2.1v3.4h-0.7v-7.6h2.9
					c0.8,0,1.4,0.2,1.8,0.5c0.4,0.4,0.7,0.9,0.7,1.5c0,0.5-0.1,0.9-0.4,1.2c-0.3,0.3-0.6,0.6-1.1,0.7c0.2,0,0.4,0.1,0.6,0.3
					c0.2,0.2,0.3,0.4,0.4,0.7L95.4,349.7z M92.5,345.7c1.2,0,1.9-0.5,1.9-1.6c0-1-0.6-1.5-1.9-1.5h-2.3v3.1H92.5z"/>
				<path class="st7" d="M101.9,347.7h-4.1l-0.9,2h-0.7l3.3-7.6h0.6l3.3,7.6h-0.7L101.9,347.7z M101.7,347.1l-1.8-4.2l-1.8,4.2
					H101.7z"/>
				<path class="st7" d="M111.9,342.1v7.6h-0.6v-6.1l-2.7,6.1h-0.5l-2.7-6.1l0,6.1h-0.6v-7.6h0.5l3,6.8l3-6.8H111.9z"/>
				<path class="st7" d="M113.9,342.1h2.9c0.8,0,1.4,0.2,1.8,0.6c0.4,0.4,0.7,0.9,0.7,1.5c0,0.7-0.2,1.2-0.7,1.5
					c-0.4,0.4-1,0.6-1.8,0.6h-2.3v3.4h-0.7V342.1z M116.8,345.7c0.6,0,1.1-0.1,1.4-0.4s0.5-0.6,0.5-1.1c0-0.5-0.2-0.9-0.5-1.1
					c-0.3-0.3-0.8-0.4-1.4-0.4h-2.2v3.1H116.8z"/>
				<path class="st7" d="M130.8,342.1v7.6h-0.6v-6.1l-2.7,6.1H127l-2.7-6.1l0,6.1h-0.6v-7.6h0.5l3,6.8l3-6.8H130.8z"/>
				<path class="st7" d="M137.3,344.3v5.4h-0.7v-1c-0.2,0.4-0.4,0.6-0.7,0.8c-0.3,0.2-0.7,0.3-1.1,0.3c-0.5,0-0.9-0.1-1.3-0.3
					c-0.4-0.2-0.6-0.5-0.8-1c-0.2-0.4-0.3-0.9-0.3-1.5c0-0.6,0.1-1,0.3-1.5c0.2-0.4,0.5-0.8,0.8-1c0.4-0.2,0.8-0.3,1.2-0.3
					c0.4,0,0.8,0.1,1.1,0.3c0.3,0.2,0.6,0.5,0.7,0.8v-1H137.3z M136.2,348.6c0.3-0.4,0.5-0.9,0.5-1.6c0-0.7-0.2-1.3-0.5-1.6
					c-0.3-0.4-0.7-0.6-1.3-0.6s-1,0.2-1.3,0.6c-0.3,0.4-0.5,0.9-0.5,1.6c0,0.7,0.2,1.2,0.5,1.6c0.3,0.4,0.8,0.6,1.3,0.6
					C135.4,349.2,135.8,349,136.2,348.6z"/>
				<path class="st7" d="M141.9,344.3l0,0.6c-0.1,0-0.3,0-0.5,0c-0.5,0-0.9,0.2-1.2,0.5c-0.3,0.3-0.4,0.8-0.4,1.2v3.2h-0.6v-3.9
					c0-0.6,0-1.1-0.1-1.5h0.6l0.1,1c0.1-0.4,0.4-0.6,0.7-0.8s0.6-0.3,1-0.3C141.6,344.2,141.8,344.2,141.9,344.3z"/>
				<path class="st7" d="M146.5,349.7l-3-2.6v2.6h-0.6v-7.9h0.6v5l2.7-2.5h0.8l-2.8,2.6l3.1,2.8H146.5z"/>
				<path class="st7" d="M148.5,346.9L148.5,346.9c0,0.8,0.2,1.3,0.5,1.7c0.3,0.4,0.8,0.6,1.5,0.6c0.6,0,1.2-0.2,1.8-0.7l0.3,0.5
					c-0.2,0.2-0.5,0.4-0.9,0.5c-0.4,0.1-0.7,0.2-1.1,0.2c-0.8,0-1.5-0.2-1.9-0.7c-0.5-0.5-0.7-1.2-0.7-2c0-0.5,0.1-1,0.3-1.5
					c0.2-0.4,0.5-0.8,0.9-1c0.4-0.2,0.8-0.3,1.3-0.3c0.7,0,1.3,0.2,1.7,0.7s0.6,1.1,0.6,1.9v0.1H148.5z M149.1,345.2
					c-0.3,0.3-0.5,0.7-0.6,1.2h3.4c0-0.5-0.2-1-0.5-1.3c-0.3-0.3-0.7-0.4-1.1-0.4C149.8,344.8,149.4,344.9,149.1,345.2z"/>
				<path class="st7" d="M155,344.9v3.2c0,0.4,0.1,0.7,0.2,0.9c0.2,0.2,0.4,0.2,0.7,0.2c0.2,0,0.4,0,0.6-0.1v0.6
					c-0.2,0.1-0.5,0.1-0.7,0.1c-0.5,0-0.8-0.1-1.1-0.4c-0.3-0.3-0.4-0.7-0.4-1.2v-3.3h-1.1v-0.5h1.1v-1.4l0.7-0.2v1.7h1.6v0.5H155z"
					/>
				<path class="st7" d="M161.5,344.6c0.4,0.2,0.6,0.6,0.8,1c0.2,0.4,0.3,0.9,0.3,1.5c0,0.6-0.1,1-0.3,1.5c-0.2,0.4-0.5,0.7-0.8,1
					c-0.4,0.2-0.8,0.3-1.3,0.3c-0.5,0-0.8-0.1-1.2-0.3c-0.3-0.2-0.6-0.5-0.7-0.9v3.4h-0.6v-6.2c0-0.6,0-1.1-0.1-1.5h0.6l0.1,1
					c0.2-0.4,0.4-0.7,0.7-0.9s0.7-0.3,1.2-0.3C160.7,344.2,161.1,344.3,161.5,344.6z M161.4,348.6c0.3-0.4,0.5-0.9,0.5-1.6
					c0-0.7-0.2-1.2-0.5-1.6c-0.3-0.4-0.8-0.6-1.3-0.6c-0.6,0-1,0.2-1.3,0.6s-0.5,0.9-0.5,1.6c0,0.7,0.2,1.2,0.5,1.6s0.7,0.6,1.3,0.6
					C160.7,349.2,161.1,349,161.4,348.6z"/>
				<path class="st7" d="M164.1,341.8h0.6v7.9h-0.6V341.8z"/>
				<path class="st7" d="M171.1,344.3v5.4h-0.7v-1c-0.2,0.4-0.4,0.6-0.7,0.8c-0.3,0.2-0.7,0.3-1.1,0.3c-0.5,0-0.9-0.1-1.3-0.3
					c-0.4-0.2-0.6-0.5-0.8-1c-0.2-0.4-0.3-0.9-0.3-1.5c0-0.6,0.1-1,0.3-1.5c0.2-0.4,0.5-0.8,0.8-1c0.4-0.2,0.8-0.3,1.2-0.3
					c0.4,0,0.8,0.1,1.1,0.3c0.3,0.2,0.6,0.5,0.7,0.8v-1H171.1z M170,348.6c0.3-0.4,0.5-0.9,0.5-1.6c0-0.7-0.2-1.3-0.5-1.6
					c-0.3-0.4-0.7-0.6-1.3-0.6s-1,0.2-1.3,0.6c-0.3,0.4-0.5,0.9-0.5,1.6c0,0.7,0.2,1.2,0.5,1.6c0.3,0.4,0.8,0.6,1.3,0.6
					C169.3,349.2,169.7,349,170,348.6z"/>
				<path class="st7" d="M173.8,349.4c-0.4-0.2-0.7-0.6-0.9-1c-0.2-0.4-0.3-0.9-0.3-1.5c0-0.6,0.1-1,0.3-1.5c0.2-0.4,0.5-0.8,0.9-1
					c0.4-0.2,0.8-0.3,1.3-0.3c0.4,0,0.7,0.1,1,0.2c0.3,0.1,0.6,0.3,0.8,0.5l-0.3,0.5c-0.3-0.2-0.5-0.4-0.8-0.5
					c-0.3-0.1-0.5-0.2-0.8-0.2c-0.6,0-1,0.2-1.4,0.6c-0.3,0.4-0.5,0.9-0.5,1.6c0,0.7,0.2,1.2,0.5,1.6c0.3,0.4,0.8,0.6,1.4,0.6
					c0.3,0,0.5-0.1,0.8-0.2c0.3-0.1,0.5-0.3,0.8-0.5l0.3,0.5c-0.2,0.2-0.5,0.4-0.9,0.5c-0.3,0.1-0.7,0.2-1,0.2
					C174.6,349.8,174.2,349.7,173.8,349.4z"/>
				<path class="st7" d="M178.6,346.9L178.6,346.9c0,0.8,0.2,1.3,0.5,1.7c0.3,0.4,0.8,0.6,1.5,0.6c0.6,0,1.2-0.2,1.8-0.7l0.3,0.5
					c-0.2,0.2-0.5,0.4-0.9,0.5c-0.4,0.1-0.7,0.2-1.1,0.2c-0.8,0-1.5-0.2-1.9-0.7c-0.5-0.5-0.7-1.2-0.7-2c0-0.5,0.1-1,0.3-1.5
					c0.2-0.4,0.5-0.8,0.9-1c0.4-0.2,0.8-0.3,1.3-0.3c0.7,0,1.3,0.2,1.7,0.7s0.6,1.1,0.6,1.9v0.1H178.6z M179.2,345.2
					c-0.3,0.3-0.5,0.7-0.6,1.2h3.4c0-0.5-0.2-1-0.5-1.3c-0.3-0.3-0.7-0.4-1.1-0.4C180,344.8,179.6,344.9,179.2,345.2z"/>
				<path class="st7" d="M187,342.1h2.5c1.2,0,2.2,0.3,2.8,1s1,1.6,1,2.8s-0.3,2.2-1,2.8s-1.6,1-2.8,1H187V342.1z M189.5,349.1
					c1,0,1.8-0.3,2.3-0.8s0.8-1.4,0.8-2.4c0-2.2-1-3.2-3.1-3.2h-1.8v6.5H189.5z"/>
				<path class="st7" d="M195.3,346.9L195.3,346.9c0,0.8,0.2,1.3,0.5,1.7c0.3,0.4,0.8,0.6,1.5,0.6c0.6,0,1.2-0.2,1.8-0.7l0.3,0.5
					c-0.2,0.2-0.5,0.4-0.9,0.5c-0.4,0.1-0.7,0.2-1.1,0.2c-0.8,0-1.5-0.2-1.9-0.7c-0.5-0.5-0.7-1.2-0.7-2c0-0.5,0.1-1,0.3-1.5
					c0.2-0.4,0.5-0.8,0.9-1c0.4-0.2,0.8-0.3,1.3-0.3c0.7,0,1.3,0.2,1.7,0.7s0.6,1.1,0.6,1.9v0.1H195.3z M195.9,345.2
					c-0.3,0.3-0.5,0.7-0.6,1.2h3.4c0-0.5-0.2-1-0.5-1.3c-0.3-0.3-0.7-0.4-1.1-0.4C196.6,344.8,196.2,344.9,195.9,345.2z"/>
				<path class="st7" d="M200.5,349.1l0.2-0.5c0.3,0.2,0.6,0.4,0.9,0.5c0.3,0.1,0.6,0.1,1,0.1c0.4,0,0.8-0.1,1-0.2
					c0.2-0.2,0.3-0.4,0.3-0.7c0-0.2-0.1-0.4-0.2-0.6c-0.2-0.1-0.4-0.3-0.8-0.3l-0.9-0.2c-0.4-0.1-0.8-0.3-1-0.5
					c-0.2-0.3-0.4-0.6-0.4-0.9c0-0.5,0.2-0.8,0.5-1.1c0.4-0.3,0.8-0.4,1.4-0.4c0.4,0,0.7,0.1,1.1,0.2c0.3,0.1,0.6,0.3,0.8,0.5
					l-0.2,0.5c-0.5-0.4-1-0.6-1.6-0.6c-0.4,0-0.7,0.1-1,0.2c-0.2,0.2-0.3,0.4-0.3,0.7c0,0.2,0.1,0.4,0.2,0.6s0.4,0.3,0.7,0.3
					l0.9,0.2c1,0.2,1.4,0.7,1.4,1.4c0,0.5-0.2,0.8-0.6,1.1c-0.4,0.3-0.9,0.4-1.5,0.4C201.7,349.8,201,349.5,200.5,349.1z"/>
				<path class="st7" d="M206.9,342.1v0.8H206v-0.8H206.9z M206.1,344.3h0.6v5.4h-0.6V344.3z"/>
				<path class="st7" d="M213.2,344.3v5.4c0,0.8-0.2,1.4-0.6,1.8s-1,0.6-1.7,0.6c-0.8,0-1.5-0.2-2.1-0.6l0.1-0.6
					c0.4,0.2,0.7,0.4,1,0.4c0.3,0.1,0.6,0.1,1,0.1c0.5,0,0.9-0.1,1.2-0.4s0.4-0.7,0.4-1.3v-1.4c-0.2,0.4-0.4,0.6-0.7,0.8
					c-0.3,0.2-0.7,0.3-1.2,0.3c-0.5,0-0.9-0.1-1.3-0.3c-0.4-0.2-0.6-0.5-0.9-0.9c-0.2-0.4-0.3-0.9-0.3-1.4c0-0.5,0.1-1,0.3-1.4
					c0.2-0.4,0.5-0.7,0.9-0.9c0.4-0.2,0.8-0.3,1.3-0.3c0.5,0,0.8,0.1,1.2,0.3c0.3,0.2,0.6,0.5,0.7,0.8v-1H213.2z M212.1,348.4
					c0.3-0.4,0.5-0.9,0.5-1.5c0-0.6-0.2-1.2-0.5-1.5s-0.8-0.6-1.3-0.6c-0.6,0-1,0.2-1.3,0.6c-0.3,0.4-0.5,0.9-0.5,1.5
					c0,0.7,0.2,1.2,0.5,1.5c0.3,0.4,0.8,0.6,1.3,0.6C211.3,349,211.8,348.8,212.1,348.4z"/>
				<path class="st7" d="M219.5,346.3v3.4h-0.7v-3.4c0-0.5-0.1-0.9-0.3-1.2c-0.2-0.2-0.6-0.4-1-0.4c-0.5,0-1,0.2-1.3,0.5
					s-0.5,0.8-0.5,1.3v3.1h-0.6v-3.9c0-0.6,0-1.1-0.1-1.5h0.6l0.1,1c0.2-0.4,0.4-0.6,0.7-0.8s0.7-0.3,1.1-0.3
					C218.8,344.2,219.5,344.9,219.5,346.3z"/>
				<path class="st7" d="M225.9,344.3v5.4h-0.7v-1c-0.2,0.4-0.4,0.6-0.7,0.8c-0.3,0.2-0.7,0.3-1.1,0.3c-0.5,0-0.9-0.1-1.3-0.3
					c-0.4-0.2-0.6-0.5-0.8-1c-0.2-0.4-0.3-0.9-0.3-1.5c0-0.6,0.1-1,0.3-1.5c0.2-0.4,0.5-0.8,0.8-1c0.4-0.2,0.8-0.3,1.2-0.3
					c0.4,0,0.8,0.1,1.1,0.3c0.3,0.2,0.6,0.5,0.7,0.8v-1H225.9z M224.7,348.6c0.3-0.4,0.5-0.9,0.5-1.6c0-0.7-0.2-1.3-0.5-1.6
					c-0.3-0.4-0.7-0.6-1.3-0.6s-1,0.2-1.3,0.6c-0.3,0.4-0.5,0.9-0.5,1.6c0,0.7,0.2,1.2,0.5,1.6c0.3,0.4,0.8,0.6,1.3,0.6
					C224,349.2,224.4,349,224.7,348.6z"/>
				<path class="st7" d="M228.6,344.9v3.2c0,0.4,0.1,0.7,0.2,0.9c0.2,0.2,0.4,0.2,0.7,0.2c0.2,0,0.4,0,0.6-0.1v0.6
					c-0.2,0.1-0.5,0.1-0.7,0.1c-0.5,0-0.8-0.1-1.1-0.4c-0.3-0.3-0.4-0.7-0.4-1.2v-3.3h-1.1v-0.5h1.1v-1.4l0.7-0.2v1.7h1.6v0.5H228.6
					z"/>
				<path class="st7" d="M232.1,342.1v0.8h-0.9v-0.8H232.1z M231.4,344.3h0.6v5.4h-0.6V344.3z"/>
				<path class="st7" d="M234.7,349.4c-0.4-0.2-0.7-0.6-0.9-1c-0.2-0.4-0.3-0.9-0.3-1.5c0-0.6,0.1-1,0.3-1.5s0.5-0.7,0.9-1
					c0.4-0.2,0.8-0.3,1.3-0.3c0.5,0,0.9,0.1,1.3,0.3c0.4,0.2,0.7,0.6,0.9,1s0.3,0.9,0.3,1.5c0,0.6-0.1,1-0.3,1.5
					c-0.2,0.4-0.5,0.7-0.9,1c-0.4,0.2-0.8,0.3-1.3,0.3C235.5,349.8,235.1,349.7,234.7,349.4z M237.3,348.6c0.3-0.4,0.5-0.9,0.5-1.6
					c0-0.7-0.2-1.2-0.5-1.6c-0.3-0.4-0.8-0.6-1.3-0.6c-0.6,0-1,0.2-1.3,0.6c-0.3,0.4-0.5,0.9-0.5,1.6c0,0.7,0.2,1.3,0.5,1.6
					c0.3,0.4,0.7,0.6,1.3,0.6C236.5,349.2,237,349,237.3,348.6z"/>
				<path class="st7" d="M244.4,346.3v3.4h-0.7v-3.4c0-0.5-0.1-0.9-0.3-1.2c-0.2-0.2-0.6-0.4-1-0.4c-0.5,0-1,0.2-1.3,0.5
					s-0.5,0.8-0.5,1.3v3.1h-0.6v-3.9c0-0.6,0-1.1-0.1-1.5h0.6l0.1,1c0.2-0.4,0.4-0.6,0.7-0.8s0.7-0.3,1.1-0.3
					C243.7,344.2,244.4,344.9,244.4,346.3z"/>
				<path class="st7" d="M248.1,346.6h5.4v0.5h-5.4V346.6z"/>
				<path class="st7" d="M257.3,342.1h0.7v7.6h-0.7V342.1z"/>
				<path class="st7" d="M264.3,346.3v3.4h-0.7v-3.4c0-0.5-0.1-0.9-0.3-1.2c-0.2-0.2-0.6-0.4-1-0.4c-0.5,0-1,0.2-1.3,0.5
					s-0.5,0.8-0.5,1.3v3.1h-0.6v-3.9c0-0.6,0-1.1-0.1-1.5h0.6l0.1,1c0.2-0.4,0.4-0.6,0.7-0.8s0.7-0.3,1.1-0.3
					C263.7,344.2,264.3,344.9,264.3,346.3z"/>
				<path class="st7" d="M71.4,355.5h2.9c0.8,0,1.4,0.2,1.8,0.6c0.4,0.4,0.7,0.9,0.7,1.5c0,0.7-0.2,1.2-0.7,1.5
					c-0.4,0.4-1,0.6-1.8,0.6h-2.3v3.4h-0.7V355.5z M74.3,359.1c0.6,0,1.1-0.1,1.4-0.4s0.5-0.6,0.5-1.1c0-0.5-0.2-0.9-0.5-1.1
					c-0.3-0.3-0.8-0.4-1.4-0.4h-2.2v3.1H74.3z"/>
				<path class="st7" d="M80.9,357.7l0,0.6c-0.1,0-0.3,0-0.5,0c-0.5,0-0.9,0.2-1.2,0.5c-0.3,0.3-0.4,0.8-0.4,1.2v3.2h-0.6v-3.9
					c0-0.6,0-1.1-0.1-1.5h0.6l0.1,1c0.1-0.4,0.4-0.6,0.7-0.8s0.6-0.3,1-0.3C80.6,357.6,80.8,357.6,80.9,357.7z"/>
				<path class="st7" d="M82.7,362.8c-0.4-0.2-0.7-0.6-0.9-1c-0.2-0.4-0.3-0.9-0.3-1.5c0-0.6,0.1-1,0.3-1.5s0.5-0.7,0.9-1
					c0.4-0.2,0.8-0.3,1.3-0.3c0.5,0,0.9,0.1,1.3,0.3c0.4,0.2,0.7,0.6,0.9,1s0.3,0.9,0.3,1.5c0,0.6-0.1,1-0.3,1.5
					c-0.2,0.4-0.5,0.7-0.9,1c-0.4,0.2-0.8,0.3-1.3,0.3C83.5,363.2,83,363.1,82.7,362.8z M85.3,362c0.3-0.4,0.5-0.9,0.5-1.6
					c0-0.7-0.2-1.2-0.5-1.6c-0.3-0.4-0.8-0.6-1.3-0.6c-0.6,0-1,0.2-1.3,0.6c-0.3,0.4-0.5,0.9-0.5,1.6c0,0.7,0.2,1.3,0.5,1.6
					c0.3,0.4,0.7,0.6,1.3,0.6C84.5,362.6,85,362.4,85.3,362z"/>
				<path class="st7" d="M88.7,362.8c-0.4-0.2-0.7-0.6-0.9-1c-0.2-0.4-0.3-0.9-0.3-1.5c0-0.6,0.1-1,0.3-1.5c0.2-0.4,0.5-0.8,0.9-1
					c0.4-0.2,0.8-0.3,1.3-0.3c0.4,0,0.7,0.1,1,0.2c0.3,0.1,0.6,0.3,0.8,0.5l-0.3,0.5c-0.3-0.2-0.5-0.4-0.8-0.5
					c-0.3-0.1-0.5-0.2-0.8-0.2c-0.6,0-1,0.2-1.4,0.6c-0.3,0.4-0.5,0.9-0.5,1.6c0,0.7,0.2,1.2,0.5,1.6c0.3,0.4,0.8,0.6,1.4,0.6
					c0.3,0,0.5-0.1,0.8-0.2c0.3-0.1,0.5-0.3,0.8-0.5l0.3,0.5c-0.2,0.2-0.5,0.4-0.9,0.5c-0.3,0.1-0.7,0.2-1,0.2
					C89.6,363.2,89.1,363.1,88.7,362.8z"/>
				<path class="st7" d="M93.5,360.3L93.5,360.3c0,0.8,0.2,1.3,0.5,1.7c0.3,0.4,0.8,0.6,1.5,0.6c0.6,0,1.2-0.2,1.8-0.7l0.3,0.5
					c-0.2,0.2-0.5,0.4-0.9,0.5c-0.4,0.1-0.7,0.2-1.1,0.2c-0.8,0-1.5-0.2-1.9-0.7c-0.5-0.5-0.7-1.2-0.7-2c0-0.5,0.1-1,0.3-1.5
					c0.2-0.4,0.5-0.8,0.9-1c0.4-0.2,0.8-0.3,1.3-0.3c0.7,0,1.3,0.2,1.7,0.7s0.6,1.1,0.6,1.9v0.1H93.5z M94.2,358.6
					c-0.3,0.3-0.5,0.7-0.6,1.2H97c0-0.5-0.2-1-0.5-1.3c-0.3-0.3-0.7-0.4-1.1-0.4C94.9,358.1,94.5,358.3,94.2,358.6z"/>
				<path class="st7" d="M98.8,362.5L99,362c0.3,0.2,0.6,0.4,0.9,0.5c0.3,0.1,0.6,0.1,1,0.1c0.4,0,0.8-0.1,1-0.2
					c0.2-0.2,0.3-0.4,0.3-0.7c0-0.2-0.1-0.4-0.2-0.6c-0.2-0.1-0.4-0.3-0.8-0.3l-0.9-0.2c-0.4-0.1-0.8-0.3-1-0.5
					c-0.2-0.3-0.4-0.6-0.4-0.9c0-0.5,0.2-0.8,0.5-1.1c0.4-0.3,0.8-0.4,1.4-0.4c0.4,0,0.7,0.1,1.1,0.2c0.3,0.1,0.6,0.3,0.8,0.5
					l-0.2,0.5c-0.5-0.4-1-0.6-1.6-0.6c-0.4,0-0.7,0.1-1,0.2c-0.2,0.2-0.3,0.4-0.3,0.7c0,0.2,0.1,0.4,0.2,0.6s0.4,0.3,0.7,0.3
					l0.9,0.2c1,0.2,1.4,0.7,1.4,1.4c0,0.5-0.2,0.8-0.6,1.1c-0.4,0.3-0.9,0.4-1.5,0.4C100,363.2,99.3,362.9,98.8,362.5z"/>
				<path class="st7" d="M104.1,362.5l0.2-0.5c0.3,0.2,0.6,0.4,0.9,0.5c0.3,0.1,0.6,0.1,1,0.1c0.4,0,0.8-0.1,1-0.2
					c0.2-0.2,0.3-0.4,0.3-0.7c0-0.2-0.1-0.4-0.2-0.6c-0.2-0.1-0.4-0.3-0.8-0.3l-0.9-0.2c-0.4-0.1-0.8-0.3-1-0.5
					c-0.2-0.3-0.4-0.6-0.4-0.9c0-0.5,0.2-0.8,0.5-1.1c0.4-0.3,0.8-0.4,1.4-0.4c0.4,0,0.7,0.1,1.1,0.2c0.3,0.1,0.6,0.3,0.8,0.5
					l-0.2,0.5c-0.5-0.4-1-0.6-1.6-0.6c-0.4,0-0.7,0.1-1,0.2c-0.2,0.2-0.3,0.4-0.3,0.7c0,0.2,0.1,0.4,0.2,0.6s0.4,0.3,0.7,0.3
					l0.9,0.2c1,0.2,1.4,0.7,1.4,1.4c0,0.5-0.2,0.8-0.6,1.1c-0.4,0.3-0.9,0.4-1.5,0.4C105.3,363.2,104.6,362.9,104.1,362.5z"/>
			</g>
		</g>
		<g>
			<g>
				<path class="st1" d="M51.7,263.1c0,1.8-1.3,2.9-3.5,2.9h-2.1v2.6h-1.2v-8.4h3.3C50.3,260.2,51.7,261.3,51.7,263.1z M50.5,263.1
					c0-1.2-0.8-1.9-2.4-1.9h-2v3.8h2C49.6,265,50.5,264.4,50.5,263.1z"/>
				<path class="st1" d="M56.7,262.2v1.1c-0.1,0-0.2,0-0.3,0c-1.2,0-2,0.8-2,2.2v3.2h-1.2v-6.4h1.1v1.1
					C54.8,262.6,55.6,262.2,56.7,262.2z"/>
				<path class="st1" d="M63.9,265.8h-5.2c0.1,1.1,1,1.9,2.3,1.9c0.7,0,1.4-0.3,1.8-0.8l0.6,0.7c-0.6,0.7-1.5,1-2.5,1
					c-2.1,0-3.4-1.4-3.4-3.3c0-1.9,1.4-3.3,3.2-3.3s3.2,1.3,3.2,3.3C64,265.6,64,265.7,63.9,265.8z M58.8,265h4.1
					c-0.1-1.1-0.9-1.8-2-1.8C59.7,263.2,58.9,263.9,58.8,265z"/>
				<path class="st1" d="M65.4,264.8h3.2v1h-3.2V264.8z"/>
				<path class="st1" d="M75.9,266.5h-4.5l-0.9,2.1h-1.2l3.8-8.4h1.2l3.8,8.4h-1.3L75.9,266.5z M75.5,265.6l-1.8-4.1l-1.8,4.1H75.5z
					"/>
				<path class="st1" d="M85.1,262.3v6.4H84v-1c-0.5,0.7-1.3,1-2.2,1c-1.7,0-2.7-0.9-2.7-2.8v-3.7h1.2v3.5c0,1.3,0.6,1.9,1.7,1.9
					c1.2,0,2-0.7,2-2.1v-3.3H85.1z"/>
				<path class="st1" d="M91,268.3c-0.3,0.3-0.9,0.4-1.4,0.4c-1.3,0-2-0.7-2-2v-3.5h-1.1v-1h1.1v-1.4h1.2v1.4h1.8v1h-1.8v3.5
					c0,0.7,0.4,1.1,1,1.1c0.3,0,0.7-0.1,0.9-0.3L91,268.3z"/>
				<path class="st1" d="M98.6,265v3.7h-1.2v-3.5c0-1.3-0.6-1.9-1.7-1.9c-1.2,0-2,0.7-2,2.1v3.3h-1.2v-8.9h1.2v3.5
					c0.5-0.6,1.3-1,2.3-1C97.5,262.2,98.6,263.1,98.6,265z"/>
				<path class="st1" d="M100.3,265.4c0-1.9,1.4-3.3,3.3-3.3c1.9,0,3.3,1.4,3.3,3.3c0,1.9-1.4,3.3-3.3,3.3
					C101.7,268.7,100.3,267.4,100.3,265.4z M105.8,265.4c0-1.4-0.9-2.2-2.1-2.2c-1.2,0-2.2,0.9-2.2,2.2c0,1.4,0.9,2.3,2.2,2.3
					C104.9,267.7,105.8,266.8,105.8,265.4z"/>
				<path class="st1" d="M112.1,262.2v1.1c-0.1,0-0.2,0-0.3,0c-1.2,0-2,0.8-2,2.2v3.2h-1.2v-6.4h1.1v1.1
					C110.2,262.6,111,262.2,112.1,262.2z"/>
				<path class="st1" d="M113.5,260.3c0-0.4,0.3-0.8,0.8-0.8c0.4,0,0.8,0.3,0.8,0.7c0,0.4-0.3,0.8-0.8,0.8
					C113.8,261,113.5,260.7,113.5,260.3z M113.7,262.3h1.2v6.4h-1.2V262.3z"/>
				<path class="st1" d="M121.9,267.7v1h-5.4v-0.7l3.8-4.7h-3.7v-1h5.2v0.8l-3.8,4.7H121.9z"/>
				<path class="st1" d="M128.6,264.8v3.9h-1.1v-0.8c-0.4,0.6-1.1,0.9-2.1,0.9c-1.4,0-2.4-0.8-2.4-1.9c0-1,0.7-1.9,2.6-1.9h1.8v-0.2
					c0-1-0.6-1.5-1.7-1.5c-0.8,0-1.5,0.3-2,0.7l-0.5-0.9c0.7-0.5,1.6-0.8,2.6-0.8C127.6,262.2,128.6,263,128.6,264.8z M127.5,266.7
					v-0.9h-1.8c-1.1,0-1.5,0.4-1.5,1c0,0.6,0.5,1,1.4,1C126.5,267.8,127.2,267.4,127.5,266.7z"/>
				<path class="st1" d="M134.5,268.3c-0.3,0.3-0.9,0.4-1.4,0.4c-1.3,0-2-0.7-2-2v-3.5H130v-1h1.1v-1.4h1.2v1.4h1.8v1h-1.8v3.5
					c0,0.7,0.4,1.1,1,1.1c0.3,0,0.7-0.1,0.9-0.3L134.5,268.3z"/>
				<path class="st1" d="M135.8,260.3c0-0.4,0.3-0.8,0.8-0.8c0.4,0,0.8,0.3,0.8,0.7c0,0.4-0.3,0.8-0.8,0.8
					C136.1,261,135.8,260.7,135.8,260.3z M136,262.3h1.2v6.4H136V262.3z"/>
				<path class="st1" d="M138.9,265.4c0-1.9,1.4-3.3,3.3-3.3c1.9,0,3.3,1.4,3.3,3.3c0,1.9-1.4,3.3-3.3,3.3
					C140.3,268.7,138.9,267.4,138.9,265.4z M144.4,265.4c0-1.4-0.9-2.2-2.1-2.2c-1.2,0-2.2,0.9-2.2,2.2c0,1.4,0.9,2.3,2.2,2.3
					C143.4,267.7,144.4,266.8,144.4,265.4z"/>
				<path class="st1" d="M153.3,265v3.7h-1.2v-3.5c0-1.3-0.6-1.9-1.7-1.9c-1.2,0-2,0.7-2,2.1v3.3h-1.2v-6.4h1.1v1
					c0.5-0.7,1.3-1,2.3-1C152.2,262.2,153.3,263.1,153.3,265z"/>
			</g>
		</g>
		<rect x="52.8" y="285.2" class="st1" width="0.8" height="48"/>
		<g>
			<path class="st8" d="M61.7,349c0-1,0-1,0-2.1l-1.9-0.7c-0.2-0.6-0.4-0.9-0.6-1.5l0.9-1.8c-0.7-0.7-0.7-0.7-1.5-1.5l-1.8,0.8
				c-0.6-0.3-0.9-0.4-1.5-0.6l-0.6-1.9c-1,0-1,0-2.1,0l-0.7,1.9c-0.6,0.2-0.9,0.4-1.5,0.6l-1.8-0.9c-0.7,0.7-0.7,0.7-1.5,1.5
				l0.8,1.8c-0.3,0.6-0.4,0.9-0.6,1.5l-1.9,0.6c0,1,0,1,0,2.1l1.9,0.7c0.2,0.6,0.4,0.9,0.6,1.5l-0.9,1.8c0.7,0.7,0.7,0.7,1.5,1.5
				l1.8-0.8c0.6,0.3,0.9,0.4,1.5,0.6l0.6,1.9c1,0,1,0,2.1,0l0.7-1.9c0.6-0.2,0.9-0.4,1.5-0.6l1.8,0.9c0.7-0.7,0.7-0.7,1.5-1.5
				l-0.8-1.8c0.3-0.6,0.4-0.9,0.6-1.5L61.7,349z M53.6,351c-1.7,0-3.2-1.4-3.2-3.2c0-1.7,1.4-3.2,3.2-3.2c1.7,0,3.2,1.4,3.2,3.2
				C56.8,349.6,55.4,351,53.6,351z"/>
			<path class="st9" d="M60.8,348.3c0-1,0-1,0-2.1l-1.9-0.7c-0.2-0.6-0.4-0.9-0.6-1.5l0.9-1.8c-0.7-0.7-0.7-0.7-1.5-1.5l-1.8,0.8
				c-0.6-0.3-0.9-0.4-1.5-0.6l-0.6-1.9c-1,0-1,0-2.1,0l-0.7,1.9c-0.6,0.2-0.9,0.4-1.5,0.6l-1.8-0.9c-0.7,0.7-0.7,0.7-1.5,1.5
				l0.8,1.8c-0.3,0.6-0.4,0.9-0.6,1.5l-1.9,0.6c0,1,0,1,0,2.1l1.9,0.7c0.2,0.6,0.4,0.9,0.6,1.5l-0.9,1.8c0.7,0.7,0.7,0.7,1.5,1.5
				l1.8-0.8c0.6,0.3,0.9,0.4,1.5,0.6l0.6,1.9c1,0,1,0,2.1,0l0.7-1.9c0.6-0.2,0.9-0.4,1.5-0.6l1.8,0.9c0.7-0.7,0.7-0.7,1.5-1.5
				l-0.8-1.8c0.3-0.6,0.4-0.9,0.6-1.5L60.8,348.3z M52.7,350.4c-1.7,0-3.2-1.4-3.2-3.2c0-1.7,1.4-3.2,3.2-3.2c1.7,0,3.2,1.4,3.2,3.2
				C55.9,348.9,54.4,350.4,52.7,350.4z"/>
		</g>
	</g>
	<g>
		<path class="st4" d="M33.9,33.6c-1.8,0-3.3-0.7-4.5-2.2c-1.1-1.5-1.7-3.5-1.7-5.9c0-2.4,0.6-4.4,1.7-5.9c1.1-1.5,2.6-2.2,4.5-2.2
			c1.8,0,3.3,0.8,4.5,2.2c1.1,1.5,1.7,3.5,1.7,5.9c0,2.4-0.6,4.4-1.7,5.9C37.2,32.8,35.7,33.6,33.9,33.6L33.9,33.6z M33.9,20.9
			c-0.5,0-0.8,0.3-1,0.8c-0.2,0.5-0.4,1.5-0.4,3.7c0,2.2,0.2,3.2,0.4,3.7c0.2,0.6,0.5,0.8,1,0.8c0.5,0,0.8-0.3,1-0.8
			c0.2-0.5,0.4-1.5,0.4-3.7c0-2.2-0.2-3.2-0.4-3.7C34.7,21.2,34.4,20.9,33.9,20.9L33.9,20.9z M49.4,33.6c0.3,0,0.6-0.4,0.6-0.8v-2
			c0-0.5-0.3-0.8-0.6-0.8h-0.8c-0.8,0-0.9-0.4-0.9-0.9V18.1c0-0.5-0.3-0.8-0.6-0.8h-2.7c-0.3,0-0.5,0.2-0.6,0.5
			c-0.2,0.5-0.4,0.8-0.9,1.1c-0.5,0.3-1.2,0.4-2,0.5c-0.3,0-0.6,0.4-0.6,0.8v2c0,0.2,0.1,0.4,0.2,0.6c0.1,0.2,0.3,0.2,0.4,0.2h1.8
			v5.9v0.5c0,0.3,0,0.6-0.9,0.6h-0.9c-0.3,0-0.6,0.4-0.6,0.8v2c0,0.5,0.3,0.8,0.6,0.8H49.4L49.4,33.6z"/>
		<path class="st1" d="M40.9,32.7v-2h0.9c0.6,0,1-0.1,1.2-0.2c0.2-0.1,0.3-0.5,0.3-1.2v-0.5v-6.8h-2.5v-2c0.9,0,1.7-0.2,2.3-0.5
			c0.6-0.3,1-0.8,1.2-1.5h2.7v10.9c0,0.8,0.1,1.3,0.2,1.4c0.2,0.2,0.6,0.3,1.3,0.3h0.8v2H40.9z M28.3,25.5c0-2.2,0.5-4,1.6-5.3
			c1-1.3,2.4-2,4.1-2c1.7,0,3,0.7,4.1,2c1,1.3,1.5,3.1,1.5,5.3c0,2.2-0.5,4-1.6,5.3c-1,1.3-2.4,2-4.1,2c-1.7,0-3-0.7-4.1-2
			C28.8,29.4,28.3,27.7,28.3,25.5z M31.9,25.5c0,1.9,0.2,3.2,0.5,4.1c0.3,0.8,0.8,1.2,1.5,1.2c0.7,0,1.2-0.4,1.6-1.3
			c0.3-0.8,0.5-2.2,0.5-4.1c0-1.9-0.2-3.3-0.5-4.1c-0.3-0.8-0.8-1.3-1.5-1.3c-0.7,0-1.2,0.4-1.6,1.3C32,22.2,31.9,23.6,31.9,25.5z"
			/>
		<path class="st10" d="M47.2,30.6L47,31c-0.3-0.3-0.4-0.9-0.4-1.9V18.8l0.3-0.4v10.7C46.9,29.9,47,30.4,47.2,30.6z M43.4,21.5h-2
			l-0.3,0.4h2.3c0,0,0.1,0,0.1,0.1l0.2-0.3C43.6,21.6,43.5,21.5,43.4,21.5z M48.9,31.4v0.8h-7.5l-0.3,0.4h8.2V31L48.9,31.4z
			 M32.2,29.6c-0.3-0.9-0.5-2.2-0.5-4.2c0-1.9,0.2-3.3,0.5-4.2c0.3-0.9,0.9-1.4,1.7-1.4c0.5,0,1,0.2,1.3,0.6l0.2-0.3
			c-0.4-0.5-0.9-0.8-1.5-0.8c-0.9,0-1.5,0.5-1.9,1.6c-0.4,0.9-0.5,2.4-0.5,4.3c0,2,0.2,3.4,0.5,4.3c0.1,0.3,0.3,0.6,0.4,0.8l0.2-0.3
			C32.4,30.1,32.3,29.9,32.2,29.6z M37.9,20.3l-0.2,0.3c0.9,1.2,1.4,2.8,1.4,4.8c0,2-0.5,3.7-1.4,4.9c-0.9,1.2-2.2,1.8-3.8,1.8
			c-1.6,0-2.8-0.6-3.8-1.8v0l-0.2,0.3c0,0,0,0,0,0c1,1.3,2.3,2,4,2c1.6,0,3-0.7,4-2c1-1.3,1.5-3,1.5-5.2
			C39.4,23.3,38.9,21.6,37.9,20.3z"/>
	</g>
	<rect x="10" class="st11" width="300" height="396"/>
</g>
<g id="Layer_5">
	<g>
		<polygon class="st1" points="10,250.4 0,237.3 10,237.3 		"/>
		<polygon class="st1" points="310,250.4 320,237.3 310,237.3 		"/>
		<rect x="10" y="230.2" class="st13" width="300" height="12.4"/>
	</g>
	<g>
		<rect y="47.5" class="st2" width="320" height="189.8"/>
		<g>
			<g>
				<path class="st7" d="M60.2,125.8h-0.8l-1.1-3.1c-0.1-0.4-0.3-0.7-0.6-0.8s-0.6-0.2-1.1-0.2H54v4.1h-0.8v-9.2h3.6
					c1,0,1.7,0.2,2.2,0.7c0.5,0.4,0.8,1.1,0.8,1.9c0,0.6-0.2,1.1-0.5,1.5c-0.3,0.4-0.8,0.7-1.3,0.9c0.3,0,0.5,0.2,0.7,0.3
					c0.2,0.2,0.3,0.4,0.5,0.8L60.2,125.8z M56.7,121c1.5,0,2.3-0.6,2.3-1.9c0-1.2-0.8-1.8-2.3-1.8h-2.7v3.7H56.7z"/>
				<path class="st7" d="M68,123.4h-5l-1.1,2.5h-0.8l4-9.2h0.7l4,9.2h-0.8L68,123.4z M67.7,122.7l-2.2-5.1l-2.2,5.1H67.7z"/>
				<path class="st7" d="M78.6,125.8h-0.8l-1.1-3.1c-0.1-0.4-0.3-0.7-0.6-0.8s-0.6-0.2-1.1-0.2h-2.6v4.1h-0.8v-9.2H75
					c1,0,1.7,0.2,2.2,0.7c0.5,0.4,0.8,1.1,0.8,1.9c0,0.6-0.2,1.1-0.5,1.5c-0.3,0.4-0.8,0.7-1.3,0.9c0.3,0,0.5,0.2,0.7,0.3
					c0.2,0.2,0.3,0.4,0.5,0.8L78.6,125.8z M75,121c1.5,0,2.3-0.6,2.3-1.9c0-1.2-0.8-1.8-2.3-1.8h-2.7v3.7H75z"/>
				<path class="st7" d="M83.8,116.6h3c1.5,0,2.6,0.4,3.4,1.2c0.8,0.8,1.2,1.9,1.2,3.4c0,1.5-0.4,2.6-1.2,3.4s-1.9,1.2-3.4,1.2h-3
					V116.6z M86.7,125.1c1.2,0,2.2-0.3,2.8-1s0.9-1.6,0.9-2.9c0-2.6-1.3-3.9-3.8-3.9h-2.1v7.8H86.7z"/>
				<path class="st7" d="M93.7,122.5L93.7,122.5c0,0.9,0.2,1.6,0.6,2s1,0.7,1.8,0.7c0.8,0,1.5-0.3,2.1-0.8l0.3,0.6
					c-0.3,0.3-0.6,0.5-1.1,0.6s-0.9,0.2-1.4,0.2c-1,0-1.8-0.3-2.3-0.9s-0.9-1.4-0.9-2.5c0-0.7,0.1-1.3,0.4-1.8s0.6-0.9,1.1-1.2
					c0.5-0.3,1-0.4,1.6-0.4c0.9,0,1.5,0.3,2,0.8c0.5,0.6,0.7,1.3,0.7,2.3v0.2H93.7z M94.5,120.4c-0.4,0.4-0.6,0.9-0.7,1.5h4.1
					c-0.1-0.7-0.2-1.2-0.6-1.5c-0.3-0.3-0.8-0.5-1.4-0.5C95.3,119.9,94.8,120,94.5,120.4z"/>
				<path class="st7" d="M105.8,119.4l-2.8,6.5h-0.8l-2.7-6.5h0.8l2.3,5.7l2.4-5.7H105.8z"/>
				<path class="st7" d="M107.5,122.5L107.5,122.5c0,0.9,0.2,1.6,0.6,2s1,0.7,1.8,0.7c0.8,0,1.5-0.3,2.1-0.8l0.3,0.6
					c-0.3,0.3-0.6,0.5-1.1,0.6s-0.9,0.2-1.4,0.2c-1,0-1.8-0.3-2.3-0.9s-0.9-1.4-0.9-2.5c0-0.7,0.1-1.3,0.4-1.8s0.6-0.9,1.1-1.2
					c0.5-0.3,1-0.4,1.6-0.4c0.9,0,1.5,0.3,2,0.8c0.5,0.6,0.7,1.3,0.7,2.3v0.2H107.5z M108.2,120.4c-0.4,0.4-0.6,0.9-0.7,1.5h4.1
					c-0.1-0.7-0.2-1.2-0.6-1.5c-0.3-0.3-0.8-0.5-1.4-0.5C109.1,119.9,108.6,120,108.2,120.4z"/>
				<path class="st7" d="M114.2,116.3h0.8v9.5h-0.8V116.3z"/>
				<path class="st7" d="M118.2,125.5c-0.5-0.3-0.8-0.7-1-1.2c-0.2-0.5-0.4-1.1-0.4-1.8s0.1-1.3,0.4-1.8c0.2-0.5,0.6-0.9,1-1.2
					c0.5-0.3,1-0.4,1.6-0.4c0.6,0,1.1,0.1,1.5,0.4c0.4,0.3,0.8,0.7,1,1.2c0.2,0.5,0.4,1.1,0.4,1.8s-0.1,1.3-0.4,1.8
					c-0.2,0.5-0.6,0.9-1,1.2s-1,0.4-1.5,0.4C119.1,125.9,118.6,125.8,118.2,125.5z M121.3,124.5c0.4-0.5,0.6-1.1,0.6-2
					c0-0.8-0.2-1.5-0.6-2c-0.4-0.5-0.9-0.7-1.6-0.7c-0.7,0-1.2,0.2-1.6,0.7c-0.4,0.5-0.6,1.1-0.6,2c0,0.9,0.2,1.5,0.6,2
					c0.4,0.5,0.9,0.7,1.6,0.7C120.4,125.2,121,125,121.3,124.5z"/>
				<path class="st7" d="M129,119.6c0.4,0.3,0.8,0.7,1,1.2c0.2,0.5,0.4,1.1,0.4,1.8s-0.1,1.3-0.4,1.8c-0.2,0.5-0.6,0.9-1,1.2
					c-0.4,0.3-0.9,0.4-1.5,0.4c-0.5,0-1-0.1-1.4-0.4c-0.4-0.2-0.7-0.6-0.9-1v4.1h-0.8v-7.5c0-0.7,0-1.3-0.1-1.8h0.7l0.1,1.3
					c0.2-0.5,0.5-0.8,0.9-1.1c0.4-0.2,0.9-0.4,1.4-0.4C128.1,119.2,128.6,119.3,129,119.6z M129,124.5c0.4-0.5,0.6-1.1,0.6-1.9
					c0-0.8-0.2-1.5-0.6-2c-0.4-0.5-0.9-0.7-1.6-0.7c-0.7,0-1.2,0.2-1.6,0.7s-0.6,1.1-0.6,2c0,0.8,0.2,1.5,0.6,2
					c0.4,0.5,0.9,0.7,1.6,0.7C128.1,125.2,128.6,125,129,124.5z"/>
				<path class="st7" d="M141.3,121.7v4.1h-0.8v-4.1c0-0.7-0.1-1.1-0.3-1.4c-0.2-0.3-0.6-0.4-1.1-0.4c-0.6,0-1.1,0.2-1.4,0.6
					s-0.5,0.9-0.5,1.6v3.7h-0.8v-4.1c0-0.7-0.1-1.1-0.4-1.4c-0.2-0.3-0.6-0.4-1.1-0.4c-0.6,0-1.1,0.2-1.4,0.6
					c-0.3,0.4-0.5,0.9-0.5,1.6v3.7h-0.8v-4.7c0-0.7,0-1.3-0.1-1.8h0.7l0.1,1.2c0.2-0.4,0.4-0.8,0.8-1c0.4-0.2,0.8-0.3,1.2-0.3
					c1,0,1.7,0.4,2,1.3c0.2-0.4,0.5-0.7,0.8-0.9c0.4-0.2,0.8-0.3,1.3-0.3C140.6,119.2,141.3,120,141.3,121.7z"/>
				<path class="st7" d="M143.9,122.5L143.9,122.5c0,0.9,0.2,1.6,0.6,2s1,0.7,1.8,0.7c0.8,0,1.5-0.3,2.1-0.8l0.3,0.6
					c-0.3,0.3-0.6,0.5-1.1,0.6s-0.9,0.2-1.4,0.2c-1,0-1.8-0.3-2.3-0.9s-0.9-1.4-0.9-2.5c0-0.7,0.1-1.3,0.4-1.8s0.6-0.9,1.1-1.2
					c0.5-0.3,1-0.4,1.6-0.4c0.9,0,1.5,0.3,2,0.8c0.5,0.6,0.7,1.3,0.7,2.3v0.2H143.9z M144.6,120.4c-0.4,0.4-0.6,0.9-0.7,1.5h4.1
					c-0.1-0.7-0.2-1.2-0.6-1.5c-0.3-0.3-0.8-0.5-1.4-0.5C145.5,119.9,145,120,144.6,120.4z"/>
				<path class="st7" d="M155.9,121.7v4.1h-0.8v-4.1c0-0.6-0.1-1.1-0.4-1.4c-0.3-0.3-0.7-0.5-1.2-0.5c-0.6,0-1.2,0.2-1.6,0.6
					s-0.6,0.9-0.6,1.6v3.7h-0.8v-4.7c0-0.7,0-1.3-0.1-1.8h0.7l0.1,1.2c0.2-0.4,0.5-0.8,0.9-1c0.4-0.2,0.9-0.3,1.4-0.3
					C155.1,119.2,155.9,120,155.9,121.7z"/>
				<path class="st7" d="M159.2,120v3.8c0,0.5,0.1,0.9,0.3,1.1c0.2,0.2,0.5,0.3,0.9,0.3c0.2,0,0.5,0,0.7-0.1v0.7
					c-0.3,0.1-0.6,0.1-0.8,0.1c-0.6,0-1-0.2-1.3-0.5c-0.3-0.3-0.5-0.8-0.5-1.4v-4h-1.3v-0.6h1.3v-1.7l0.8-0.3v2h1.9v0.6H159.2z"/>
				<g>
					<path class="st1" d="M30,148.6c-0.4-0.2-0.6-0.5-0.9-0.8c-0.2-0.4-0.3-0.7-0.3-1.2c0-0.4,0.1-0.8,0.3-1.1s0.5-0.6,0.9-0.9
						c0.4-0.2,0.8-0.3,1.2-0.3c0.4,0,0.8,0.1,1.2,0.3c0.4,0.2,0.6,0.5,0.9,0.8c0.2,0.4,0.3,0.7,0.3,1.2c0,0.4-0.1,0.8-0.3,1.2
						s-0.5,0.6-0.9,0.8c-0.4,0.2-0.8,0.3-1.2,0.3S30.4,148.8,30,148.6z"/>
					<path class="st1" d="M31.2,149c-0.4,0-0.9-0.1-1.2-0.3l0,0c-0.4-0.2-0.7-0.5-0.9-0.9c-0.2-0.4-0.3-0.8-0.3-1.2
						c0-0.4,0.1-0.8,0.3-1.2c0.2-0.4,0.5-0.7,0.9-0.9c0.4-0.2,0.8-0.3,1.3-0.3c0.4,0,0.8,0.1,1.2,0.3s0.7,0.5,0.9,0.9
						c0.2,0.4,0.3,0.8,0.3,1.2c0,0.4-0.1,0.9-0.3,1.2c-0.2,0.4-0.5,0.7-0.9,0.9C32,148.9,31.6,149,31.2,149z M31.2,144.4
						c-0.4,0-0.8,0.1-1.1,0.3c-0.3,0.2-0.6,0.5-0.8,0.8c-0.2,0.3-0.3,0.7-0.3,1.1c0,0.4,0.1,0.8,0.3,1.1c0.2,0.3,0.5,0.6,0.8,0.8
						l0,0c0.7,0.4,1.5,0.4,2.2,0c0.3-0.2,0.6-0.5,0.8-0.8c0.2-0.3,0.3-0.7,0.3-1.1c0-0.4-0.1-0.8-0.3-1.1c-0.2-0.3-0.5-0.6-0.8-0.8
						C31.9,144.5,31.6,144.4,31.2,144.4z"/>
				</g>
				<path class="st7" d="M53.2,140.9h5.5v0.7H54v3.5h4.5v0.7H54v4.3h-0.8V140.9z"/>
				<path class="st7" d="M60.6,146.7L60.6,146.7c0,0.9,0.2,1.6,0.6,2s1,0.7,1.8,0.7c0.8,0,1.5-0.3,2.1-0.8l0.3,0.6
					c-0.3,0.3-0.6,0.5-1.1,0.6s-0.9,0.2-1.4,0.2c-1,0-1.8-0.3-2.3-0.9s-0.9-1.4-0.9-2.5c0-0.7,0.1-1.3,0.4-1.8s0.6-0.9,1.1-1.2
					c0.5-0.3,1-0.4,1.6-0.4c0.9,0,1.5,0.3,2,0.8c0.5,0.6,0.7,1.3,0.7,2.3v0.2H60.6z M61.3,144.6c-0.4,0.4-0.6,0.9-0.7,1.5h4.1
					c-0.1-0.7-0.2-1.2-0.6-1.5c-0.3-0.3-0.8-0.5-1.4-0.5C62.2,144.1,61.7,144.2,61.3,144.6z"/>
				<path class="st7" d="M72.7,140.5v9.5H72v-1.2c-0.2,0.4-0.5,0.8-0.9,1c-0.4,0.2-0.8,0.3-1.4,0.3c-0.6,0-1.1-0.1-1.5-0.4
					c-0.4-0.3-0.8-0.7-1-1.2c-0.2-0.5-0.4-1.1-0.4-1.8c0-0.7,0.1-1.3,0.4-1.8c0.2-0.5,0.6-0.9,1-1.2c0.4-0.3,0.9-0.4,1.5-0.4
					c0.5,0,1,0.1,1.4,0.3c0.4,0.2,0.7,0.6,0.9,1v-4.2H72.7z M71.4,148.7c0.4-0.5,0.6-1.1,0.6-2s-0.2-1.5-0.6-2
					c-0.4-0.5-0.9-0.7-1.6-0.7c-0.7,0-1.2,0.2-1.6,0.7c-0.4,0.5-0.6,1.1-0.6,2c0,0.8,0.2,1.5,0.6,2c0.4,0.5,0.9,0.7,1.6,0.7
					S71,149.2,71.4,148.7z"/>
				<path class="st7" d="M82.1,150h-0.8l-1.1-3.1c-0.1-0.4-0.3-0.7-0.6-0.8s-0.6-0.2-1.1-0.2h-2.6v4.1h-0.8v-9.2h3.6
					c1,0,1.7,0.2,2.2,0.7c0.5,0.4,0.8,1.1,0.8,1.9c0,0.6-0.2,1.1-0.5,1.5c-0.3,0.4-0.8,0.7-1.3,0.9c0.3,0,0.5,0.2,0.7,0.3
					c0.2,0.2,0.3,0.4,0.5,0.8L82.1,150z M78.6,145.2c1.5,0,2.3-0.6,2.3-1.9c0-1.2-0.8-1.8-2.3-1.8h-2.7v3.7H78.6z"/>
				<path class="st7" d="M89.9,147.6h-5l-1.1,2.5h-0.8l4-9.2h0.7l4,9.2H91L89.9,147.6z M89.6,146.9l-2.2-5.1l-2.2,5.1H89.6z"/>
				<path class="st7" d="M102,140.9v9.2h-0.7v-7.4L98,150h-0.6l-3.3-7.3l0,7.3h-0.7v-9.2h0.7l3.6,8.2l3.6-8.2H102z"/>
				<path class="st7" d="M104.4,140.9h3.5c0.9,0,1.6,0.2,2.2,0.7c0.5,0.4,0.8,1.1,0.8,1.8c0,0.8-0.3,1.4-0.8,1.9
					c-0.5,0.5-1.3,0.7-2.2,0.7h-2.7v4.1h-0.8V140.9z M107.9,145.2c0.7,0,1.3-0.2,1.6-0.5s0.6-0.8,0.6-1.4c0-0.6-0.2-1-0.6-1.4
					s-0.9-0.5-1.6-0.5h-2.7v3.7H107.9z"/>
				<path class="st7" d="M116.2,140.9h3.5c0.9,0,1.6,0.2,2.2,0.7c0.5,0.4,0.8,1.1,0.8,1.8c0,0.8-0.3,1.4-0.8,1.9
					c-0.5,0.5-1.3,0.7-2.2,0.7H117v4.1h-0.8V140.9z M119.7,145.2c0.7,0,1.3-0.2,1.6-0.5s0.6-0.8,0.6-1.4c0-0.6-0.2-1-0.6-1.4
					s-0.9-0.5-1.6-0.5H117v3.7H119.7z"/>
				<path class="st7" d="M133.1,140.9v9.2h-0.7v-7.4l-3.2,7.4h-0.6l-3.3-7.3l0,7.3h-0.7v-9.2h0.7l3.6,8.2l3.6-8.2H133.1z"/>
				<path class="st7" d="M137.1,149.6c-0.6-0.4-1.1-0.9-1.4-1.6c-0.3-0.7-0.5-1.5-0.5-2.5s0.2-1.8,0.5-2.5c0.3-0.7,0.8-1.2,1.4-1.6
					c0.6-0.4,1.3-0.6,2.2-0.6s1.6,0.2,2.2,0.6c0.6,0.4,1.1,0.9,1.4,1.6s0.5,1.5,0.5,2.5c0,1-0.2,1.8-0.5,2.5s-0.8,1.3-1.4,1.6
					s-1.3,0.6-2.2,0.6C138.5,150.2,137.7,150,137.1,149.6z M141.7,148.4c0.6-0.7,0.9-1.7,0.9-3c0-1.3-0.3-2.3-0.9-2.9
					c-0.6-0.7-1.4-1-2.4-1c-1,0-1.8,0.3-2.4,1s-0.9,1.7-0.9,2.9s0.3,2.2,0.9,3c0.6,0.7,1.4,1.1,2.4,1.1S141.1,149.1,141.7,148.4z"/>
				<path class="st7" d="M155.9,150h-0.8L154,147c-0.1-0.4-0.3-0.7-0.6-0.8s-0.6-0.2-1.1-0.2h-2.6v4.1h-0.8v-9.2h3.6
					c1,0,1.7,0.2,2.2,0.7c0.5,0.4,0.8,1.1,0.8,1.9c0,0.6-0.2,1.1-0.5,1.5c-0.3,0.4-0.8,0.7-1.3,0.9c0.3,0,0.5,0.2,0.7,0.3
					c0.2,0.2,0.3,0.4,0.5,0.8L155.9,150z M152.4,145.2c1.5,0,2.3-0.6,2.3-1.9c0-1.2-0.8-1.8-2.3-1.8h-2.7v3.7H152.4z"/>
				<path class="st7" d="M158.1,146.7L158.1,146.7c0,0.9,0.2,1.6,0.6,2s1,0.7,1.8,0.7c0.8,0,1.5-0.3,2.1-0.8l0.3,0.6
					c-0.3,0.3-0.6,0.5-1.1,0.6s-0.9,0.2-1.4,0.2c-1,0-1.8-0.3-2.3-0.9s-0.9-1.4-0.9-2.5c0-0.7,0.1-1.3,0.4-1.8s0.6-0.9,1.1-1.2
					c0.5-0.3,1-0.4,1.6-0.4c0.9,0,1.5,0.3,2,0.8c0.5,0.6,0.7,1.3,0.7,2.3v0.2H158.1z M158.9,144.6c-0.4,0.4-0.6,0.9-0.7,1.5h4.1
					c-0.1-0.7-0.2-1.2-0.6-1.5c-0.3-0.3-0.8-0.5-1.4-0.5C159.7,144.1,159.2,144.2,158.9,144.6z"/>
				<path class="st7" d="M170.2,143.6l-2.8,6.5h-0.8l-2.7-6.5h0.8l2.3,5.7l2.4-5.7H170.2z"/>
				<path class="st7" d="M172.5,140.9v1h-1v-1H172.5z M171.6,143.6h0.8v6.5h-0.8V143.6z"/>
				<path class="st7" d="M175,146.7L175,146.7c0,0.9,0.2,1.6,0.6,2s1,0.7,1.8,0.7c0.8,0,1.5-0.3,2.1-0.8l0.3,0.6
					c-0.3,0.3-0.6,0.5-1.1,0.6s-0.9,0.2-1.4,0.2c-1,0-1.8-0.3-2.3-0.9s-0.9-1.4-0.9-2.5c0-0.7,0.1-1.3,0.4-1.8s0.6-0.9,1.1-1.2
					c0.5-0.3,1-0.4,1.6-0.4c0.9,0,1.5,0.3,2,0.8c0.5,0.6,0.7,1.3,0.7,2.3v0.2H175z M175.7,144.6c-0.4,0.4-0.6,0.9-0.7,1.5h4.1
					c-0.1-0.7-0.2-1.2-0.6-1.5c-0.3-0.3-0.8-0.5-1.4-0.5C176.6,144.1,176.1,144.2,175.7,144.6z"/>
				<path class="st7" d="M191.2,143.6l-2.4,6.5h-0.8l-2-5.5l-2,5.5h-0.8l-2.3-6.5h0.8l1.9,5.5l2-5.5h0.8l2,5.5l2-5.5H191.2z"/>
				<path class="st7" d="M197.2,149.7c-0.5-0.3-0.8-0.7-1-1.2c-0.2-0.5-0.4-1.1-0.4-1.8s0.1-1.3,0.4-1.8c0.2-0.5,0.6-0.9,1-1.2
					c0.5-0.3,1-0.4,1.6-0.4c0.6,0,1.1,0.1,1.5,0.4c0.4,0.3,0.8,0.7,1,1.2c0.2,0.5,0.4,1.1,0.4,1.8s-0.1,1.3-0.4,1.8
					c-0.2,0.5-0.6,0.9-1,1.2s-1,0.4-1.5,0.4C198.1,150.1,197.6,150,197.2,149.7z M200.3,148.8c0.4-0.5,0.6-1.1,0.6-2
					c0-0.8-0.2-1.5-0.6-2c-0.4-0.5-0.9-0.7-1.6-0.7c-0.7,0-1.2,0.2-1.6,0.7c-0.4,0.5-0.6,1.1-0.6,2c0,0.9,0.2,1.5,0.6,2
					c0.4,0.5,0.9,0.7,1.6,0.7C199.4,149.4,199.9,149.2,200.3,148.8z"/>
				<path class="st7" d="M204.9,141.5c-0.2,0.2-0.3,0.6-0.3,1.1v1h1.7v0.6h-1.7v5.8h-0.8v-5.8h-1.3v-0.6h1.3v-1.2
					c0-0.6,0.2-1.1,0.5-1.4c0.3-0.3,0.8-0.5,1.3-0.5c0.3,0,0.5,0,0.8,0.1v0.7c-0.2-0.1-0.5-0.1-0.7-0.1
					C205.3,141.2,205.1,141.3,204.9,141.5z"/>
				<path class="st7" d="M218.3,150h-0.8l-1.1-3.1c-0.1-0.4-0.3-0.7-0.6-0.8s-0.6-0.2-1.1-0.2H212v4.1h-0.8v-9.2h3.6
					c1,0,1.7,0.2,2.2,0.7c0.5,0.4,0.8,1.1,0.8,1.9c0,0.6-0.2,1.1-0.5,1.5c-0.3,0.4-0.8,0.7-1.3,0.9c0.3,0,0.5,0.2,0.7,0.3
					c0.2,0.2,0.3,0.4,0.5,0.8L218.3,150z M214.7,145.2c1.5,0,2.3-0.6,2.3-1.9c0-1.2-0.8-1.8-2.3-1.8H212v3.7H214.7z"/>
				<path class="st7" d="M226.1,147.6h-5l-1.1,2.5h-0.8l4-9.2h0.7l4,9.2h-0.8L226.1,147.6z M225.8,146.9l-2.2-5.1l-2.2,5.1H225.8z"
					/>
				<path class="st7" d="M236.6,150h-0.8l-1.1-3.1c-0.1-0.4-0.3-0.7-0.6-0.8s-0.6-0.2-1.1-0.2h-2.6v4.1h-0.8v-9.2h3.6
					c1,0,1.7,0.2,2.2,0.7c0.5,0.4,0.8,1.1,0.8,1.9c0,0.6-0.2,1.1-0.5,1.5c-0.3,0.4-0.8,0.7-1.3,0.9c0.3,0,0.5,0.2,0.7,0.3
					c0.2,0.2,0.3,0.4,0.5,0.8L236.6,150z M233,145.2c1.5,0,2.3-0.6,2.3-1.9c0-1.2-0.8-1.8-2.3-1.8h-2.7v3.7H233z"/>
				<g>
					<path class="st1" d="M30,172.8c-0.4-0.2-0.6-0.5-0.9-0.8c-0.2-0.4-0.3-0.7-0.3-1.2c0-0.4,0.1-0.8,0.3-1.1s0.5-0.6,0.9-0.9
						c0.4-0.2,0.8-0.3,1.2-0.3c0.4,0,0.8,0.1,1.2,0.3c0.4,0.2,0.6,0.5,0.9,0.8c0.2,0.4,0.3,0.7,0.3,1.2c0,0.4-0.1,0.8-0.3,1.2
						s-0.5,0.6-0.9,0.8c-0.4,0.2-0.8,0.3-1.2,0.3S30.4,173,30,172.8z"/>
					<path class="st1" d="M31.2,173.2c-0.4,0-0.9-0.1-1.2-0.3l0,0c-0.4-0.2-0.7-0.5-0.9-0.9c-0.2-0.4-0.3-0.8-0.3-1.2
						c0-0.4,0.1-0.8,0.3-1.2c0.2-0.4,0.5-0.7,0.9-0.9c0.4-0.2,0.8-0.3,1.3-0.3c0.4,0,0.8,0.1,1.2,0.3s0.7,0.5,0.9,0.9
						c0.2,0.4,0.3,0.8,0.3,1.2c0,0.4-0.1,0.9-0.3,1.2c-0.2,0.4-0.5,0.7-0.9,0.9C32,173.1,31.6,173.2,31.2,173.2z M31.2,168.6
						c-0.4,0-0.8,0.1-1.1,0.3c-0.3,0.2-0.6,0.5-0.8,0.8c-0.2,0.3-0.3,0.7-0.3,1.1c0,0.4,0.1,0.8,0.3,1.1c0.2,0.3,0.5,0.6,0.8,0.8
						l0,0c0.7,0.4,1.5,0.4,2.2,0c0.3-0.2,0.6-0.5,0.8-0.8c0.2-0.3,0.3-0.7,0.3-1.1c0-0.4-0.1-0.8-0.3-1.1c-0.2-0.3-0.5-0.6-0.8-0.8
						C31.9,168.7,31.6,168.6,31.2,168.6z"/>
				</g>
				<path class="st7" d="M60.2,174.3h-0.8l-1.1-3.1c-0.1-0.4-0.3-0.7-0.6-0.8s-0.6-0.2-1.1-0.2H54v4.1h-0.8v-9.2h3.6
					c1,0,1.7,0.2,2.2,0.7c0.5,0.4,0.8,1.1,0.8,1.9c0,0.6-0.2,1.1-0.5,1.5c-0.3,0.4-0.8,0.7-1.3,0.9c0.3,0,0.5,0.2,0.7,0.3
					c0.2,0.2,0.3,0.4,0.5,0.8L60.2,174.3z M56.7,169.5c1.5,0,2.3-0.6,2.3-1.9c0-1.2-0.8-1.8-2.3-1.8h-2.7v3.7H56.7z"/>
				<path class="st7" d="M62.4,170.9L62.4,170.9c0,0.9,0.2,1.6,0.6,2s1,0.7,1.8,0.7c0.8,0,1.5-0.3,2.1-0.8l0.3,0.6
					c-0.3,0.3-0.6,0.5-1.1,0.6s-0.9,0.2-1.4,0.2c-1,0-1.8-0.3-2.3-0.9s-0.9-1.4-0.9-2.5c0-0.7,0.1-1.3,0.4-1.8s0.6-0.9,1.1-1.2
					c0.5-0.3,1-0.4,1.6-0.4c0.9,0,1.5,0.3,2,0.8c0.5,0.6,0.7,1.3,0.7,2.3v0.2H62.4z M63.1,168.8c-0.4,0.4-0.6,0.9-0.7,1.5h4.1
					c-0.1-0.7-0.2-1.2-0.6-1.5c-0.3-0.3-0.8-0.5-1.4-0.5C64,168.3,63.5,168.5,63.1,168.8z"/>
				<path class="st7" d="M78.2,170.1v4.1h-0.8v-4.1c0-0.7-0.1-1.1-0.3-1.4c-0.2-0.3-0.6-0.4-1.1-0.4c-0.6,0-1.1,0.2-1.4,0.6
					s-0.5,0.9-0.5,1.6v3.7h-0.8v-4.1c0-0.7-0.1-1.1-0.4-1.4c-0.2-0.3-0.6-0.4-1.1-0.4c-0.6,0-1.1,0.2-1.4,0.6
					c-0.3,0.4-0.5,0.9-0.5,1.6v3.7h-0.8v-4.7c0-0.7,0-1.3-0.1-1.8h0.7l0.1,1.2c0.2-0.4,0.4-0.8,0.8-1c0.4-0.2,0.8-0.3,1.2-0.3
					c1,0,1.7,0.4,2,1.3c0.2-0.4,0.5-0.7,0.8-0.9c0.4-0.2,0.8-0.3,1.3-0.3C77.5,167.6,78.2,168.5,78.2,170.1z"/>
				<path class="st7" d="M80.8,170.9L80.8,170.9c0,0.9,0.2,1.6,0.6,2s1,0.7,1.8,0.7c0.8,0,1.5-0.3,2.1-0.8l0.3,0.6
					c-0.3,0.3-0.6,0.5-1.1,0.6s-0.9,0.2-1.4,0.2c-1,0-1.8-0.3-2.3-0.9s-0.9-1.4-0.9-2.5c0-0.7,0.1-1.3,0.4-1.8s0.6-0.9,1.1-1.2
					c0.5-0.3,1-0.4,1.6-0.4c0.9,0,1.5,0.3,2,0.8c0.5,0.6,0.7,1.3,0.7,2.3v0.2H80.8z M81.5,168.8c-0.4,0.4-0.6,0.9-0.7,1.5h4.1
					c-0.1-0.7-0.2-1.2-0.6-1.5c-0.3-0.3-0.8-0.5-1.4-0.5C82.4,168.3,81.9,168.5,81.5,168.8z"/>
				<path class="st7" d="M92.9,164.8v9.5h-0.8V173c-0.2,0.4-0.5,0.8-0.9,1c-0.4,0.2-0.8,0.3-1.4,0.3c-0.6,0-1.1-0.1-1.5-0.4
					c-0.4-0.3-0.8-0.7-1-1.2c-0.2-0.5-0.4-1.1-0.4-1.8c0-0.7,0.1-1.3,0.4-1.8c0.2-0.5,0.6-0.9,1-1.2c0.4-0.3,0.9-0.4,1.5-0.4
					c0.5,0,1,0.1,1.4,0.3c0.4,0.2,0.7,0.6,0.9,1v-4.2H92.9z M91.6,173c0.4-0.5,0.6-1.1,0.6-2s-0.2-1.5-0.6-2
					c-0.4-0.5-0.9-0.7-1.6-0.7c-0.7,0-1.2,0.2-1.6,0.7c-0.4,0.5-0.6,1.1-0.6,2c0,0.8,0.2,1.5,0.6,2c0.4,0.5,0.9,0.7,1.6,0.7
					S91.2,173.4,91.6,173z"/>
				<path class="st7" d="M96.1,165.1v1h-1v-1H96.1z M95.1,167.8h0.8v6.5h-0.8V167.8z"/>
				<path class="st7" d="M103.6,167.8v6.5h-0.8V173c-0.2,0.4-0.5,0.8-0.9,1c-0.4,0.2-0.8,0.3-1.4,0.3c-0.6,0-1.1-0.1-1.5-0.4
					c-0.4-0.3-0.8-0.7-1-1.2c-0.2-0.5-0.4-1.1-0.4-1.8s0.1-1.3,0.4-1.8c0.2-0.5,0.6-0.9,1-1.2c0.4-0.3,0.9-0.4,1.5-0.4
					c0.5,0,1,0.1,1.4,0.3c0.4,0.2,0.7,0.6,0.9,1v-1.2H103.6z M102.3,173c0.4-0.5,0.6-1.1,0.6-2c0-0.9-0.2-1.5-0.6-2
					s-0.9-0.7-1.6-0.7s-1.2,0.2-1.6,0.7c-0.4,0.5-0.6,1.1-0.6,2c0,0.8,0.2,1.5,0.6,1.9c0.4,0.5,0.9,0.7,1.6,0.7
					C101.4,173.7,101.9,173.4,102.3,173z"/>
				<path class="st7" d="M106.9,168.4v3.8c0,0.5,0.1,0.9,0.3,1.1c0.2,0.2,0.5,0.3,0.9,0.3c0.2,0,0.5,0,0.7-0.1v0.7
					c-0.3,0.1-0.6,0.1-0.8,0.1c-0.6,0-1-0.2-1.3-0.5c-0.3-0.3-0.5-0.8-0.5-1.4v-4h-1.3v-0.6h1.3v-1.7l0.8-0.3v2h1.9v0.6H106.9z"/>
				<path class="st7" d="M111.2,165.1v1h-1v-1H111.2z M110.2,167.8h0.8v6.5h-0.8V167.8z"/>
				<path class="st7" d="M114.3,173.9c-0.5-0.3-0.8-0.7-1-1.2c-0.2-0.5-0.4-1.1-0.4-1.8s0.1-1.3,0.4-1.8c0.2-0.5,0.6-0.9,1-1.2
					c0.5-0.3,1-0.4,1.6-0.4c0.6,0,1.1,0.1,1.5,0.4c0.4,0.3,0.8,0.7,1,1.2c0.2,0.5,0.4,1.1,0.4,1.8s-0.1,1.3-0.4,1.8
					c-0.2,0.5-0.6,0.9-1,1.2s-1,0.4-1.5,0.4C115.2,174.4,114.7,174.2,114.3,173.9z M117.4,173c0.4-0.5,0.6-1.1,0.6-2
					c0-0.8-0.2-1.5-0.6-2c-0.4-0.5-0.9-0.7-1.6-0.7c-0.7,0-1.2,0.2-1.6,0.7c-0.4,0.5-0.6,1.1-0.6,2c0,0.9,0.2,1.5,0.6,2
					c0.4,0.5,0.9,0.7,1.6,0.7C116.5,173.7,117,173.4,117.4,173z"/>
				<path class="st7" d="M125.9,170.1v4.1h-0.8v-4.1c0-0.6-0.1-1.1-0.4-1.4c-0.3-0.3-0.7-0.5-1.2-0.5c-0.6,0-1.2,0.2-1.6,0.6
					s-0.6,0.9-0.6,1.6v3.7h-0.8v-4.7c0-0.7,0-1.3-0.1-1.8h0.7l0.1,1.2c0.2-0.4,0.5-0.8,0.9-1c0.4-0.2,0.9-0.3,1.4-0.3
					C125.1,167.6,125.9,168.5,125.9,170.1z"/>
				<path class="st7" d="M132.1,173.8c-0.2-0.9-0.3-1.9-0.3-2.9c0-1,0.1-2,0.3-2.9c0.2-0.9,0.6-1.9,1-2.9h0.7c-0.5,1.1-0.8,2-1,3
					c-0.2,0.9-0.3,1.9-0.3,2.8c0,0.9,0.1,1.9,0.3,2.8s0.5,1.9,1,3h-0.7C132.7,175.7,132.3,174.7,132.1,173.8z"/>
				<path class="st7" d="M136.3,165.1v1h-1v-1H136.3z M135.4,167.8h0.8v6.5h-0.8V167.8z"/>
				<path class="st7" d="M139.8,165.7c-0.2,0.2-0.3,0.6-0.3,1.1v1h1.7v0.6h-1.7v5.8h-0.8v-5.8h-1.3v-0.6h1.3v-1.2
					c0-0.6,0.2-1.1,0.5-1.4c0.3-0.3,0.8-0.5,1.3-0.5c0.3,0,0.5,0,0.8,0.1v0.7c-0.2-0.1-0.5-0.1-0.7-0.1
					C140.3,165.4,140,165.5,139.8,165.7z"/>
				<path class="st7" d="M151.4,170.1v4.1h-0.8v-4.1c0-0.6-0.1-1.1-0.4-1.4c-0.3-0.3-0.7-0.5-1.2-0.5c-0.6,0-1.2,0.2-1.6,0.6
					s-0.6,0.9-0.6,1.6v3.7H146v-4.7c0-0.7,0-1.3-0.1-1.8h0.7l0.1,1.2c0.2-0.4,0.5-0.8,0.9-1c0.4-0.2,0.9-0.3,1.4-0.3
					C150.6,167.6,151.4,168.5,151.4,170.1z"/>
				<path class="st7" d="M154,170.9L154,170.9c0,0.9,0.2,1.6,0.6,2s1,0.7,1.8,0.7c0.8,0,1.5-0.3,2.1-0.8l0.3,0.6
					c-0.3,0.3-0.6,0.5-1.1,0.6s-0.9,0.2-1.4,0.2c-1,0-1.8-0.3-2.3-0.9s-0.9-1.4-0.9-2.5c0-0.7,0.1-1.3,0.4-1.8s0.6-0.9,1.1-1.2
					c0.5-0.3,1-0.4,1.6-0.4c0.9,0,1.5,0.3,2,0.8c0.5,0.6,0.7,1.3,0.7,2.3v0.2H154z M154.7,168.8c-0.4,0.4-0.6,0.9-0.7,1.5h4.1
					c-0.1-0.7-0.2-1.2-0.6-1.5c-0.3-0.3-0.8-0.5-1.4-0.5C155.6,168.3,155.1,168.5,154.7,168.8z"/>
				<path class="st7" d="M161,170.9L161,170.9c0,0.9,0.2,1.6,0.6,2s1,0.7,1.8,0.7c0.8,0,1.5-0.3,2.1-0.8l0.3,0.6
					c-0.3,0.3-0.6,0.5-1.1,0.6s-0.9,0.2-1.4,0.2c-1,0-1.8-0.3-2.3-0.9s-0.9-1.4-0.9-2.5c0-0.7,0.1-1.3,0.4-1.8s0.6-0.9,1.1-1.2
					c0.5-0.3,1-0.4,1.6-0.4c0.9,0,1.5,0.3,2,0.8c0.5,0.6,0.7,1.3,0.7,2.3v0.2H161z M161.8,168.8c-0.4,0.4-0.6,0.9-0.7,1.5h4.1
					c-0.1-0.7-0.2-1.2-0.6-1.5c-0.3-0.3-0.8-0.5-1.4-0.5C162.6,168.3,162.2,168.5,161.8,168.8z"/>
				<path class="st7" d="M173.2,164.8v9.5h-0.8V173c-0.2,0.4-0.5,0.8-0.9,1c-0.4,0.2-0.8,0.3-1.4,0.3c-0.6,0-1.1-0.1-1.5-0.4
					c-0.4-0.3-0.8-0.7-1-1.2c-0.2-0.5-0.4-1.1-0.4-1.8c0-0.7,0.1-1.3,0.4-1.8c0.2-0.5,0.6-0.9,1-1.2c0.4-0.3,0.9-0.4,1.5-0.4
					c0.5,0,1,0.1,1.4,0.3c0.4,0.2,0.7,0.6,0.9,1v-4.2H173.2z M171.9,173c0.4-0.5,0.6-1.1,0.6-2s-0.2-1.5-0.6-2
					c-0.4-0.5-0.9-0.7-1.6-0.7c-0.7,0-1.2,0.2-1.6,0.7c-0.4,0.5-0.6,1.1-0.6,2c0,0.8,0.2,1.5,0.6,2c0.4,0.5,0.9,0.7,1.6,0.7
					S171.5,173.4,171.9,173z"/>
				<path class="st7" d="M175.8,170.9L175.8,170.9c0,0.9,0.2,1.6,0.6,2s1,0.7,1.8,0.7c0.8,0,1.5-0.3,2.1-0.8l0.3,0.6
					c-0.3,0.3-0.6,0.5-1.1,0.6s-0.9,0.2-1.4,0.2c-1,0-1.8-0.3-2.3-0.9s-0.9-1.4-0.9-2.5c0-0.7,0.1-1.3,0.4-1.8s0.6-0.9,1.1-1.2
					c0.5-0.3,1-0.4,1.6-0.4c0.9,0,1.5,0.3,2,0.8c0.5,0.6,0.7,1.3,0.7,2.3v0.2H175.8z M176.6,168.8c-0.4,0.4-0.6,0.9-0.7,1.5h4.1
					c-0.1-0.7-0.2-1.2-0.6-1.5c-0.3-0.3-0.8-0.5-1.4-0.5C177.4,168.3,176.9,168.5,176.6,168.8z"/>
				<path class="st7" d="M188,164.8v9.5h-0.8V173c-0.2,0.4-0.5,0.8-0.9,1c-0.4,0.2-0.8,0.3-1.4,0.3c-0.6,0-1.1-0.1-1.5-0.4
					c-0.4-0.3-0.8-0.7-1-1.2c-0.2-0.5-0.4-1.1-0.4-1.8c0-0.7,0.1-1.3,0.4-1.8c0.2-0.5,0.6-0.9,1-1.2c0.4-0.3,0.9-0.4,1.5-0.4
					c0.5,0,1,0.1,1.4,0.3c0.4,0.2,0.7,0.6,0.9,1v-4.2H188z M186.6,173c0.4-0.5,0.6-1.1,0.6-2s-0.2-1.5-0.6-2
					c-0.4-0.5-0.9-0.7-1.6-0.7c-0.7,0-1.2,0.2-1.6,0.7c-0.4,0.5-0.6,1.1-0.6,2c0,0.8,0.2,1.5,0.6,2c0.4,0.5,0.9,0.7,1.6,0.7
					S186.3,173.4,186.6,173z"/>
				<path class="st7" d="M189.5,176.6c0.4-1.1,0.8-2,1-3s0.3-1.9,0.3-2.8c0-0.9-0.1-1.9-0.3-2.8c-0.2-0.9-0.5-1.9-1-3h0.7
					c0.5,1,0.8,1.9,1,2.9c0.2,0.9,0.3,1.9,0.3,2.9c0,1-0.1,2-0.3,2.9c-0.2,0.9-0.6,1.9-1.1,2.9H189.5z"/>
				<path class="st7" d="M53.2,189.3h5.5v0.7H54v3.5h4.5v0.7H54v4.3h-0.8V189.3z"/>
				<path class="st7" d="M60.6,195.1L60.6,195.1c0,0.9,0.2,1.6,0.6,2s1,0.7,1.8,0.7c0.8,0,1.5-0.3,2.1-0.8l0.3,0.6
					c-0.3,0.3-0.6,0.5-1.1,0.6s-0.9,0.2-1.4,0.2c-1,0-1.8-0.3-2.3-0.9s-0.9-1.4-0.9-2.5c0-0.7,0.1-1.3,0.4-1.8s0.6-0.9,1.1-1.2
					c0.5-0.3,1-0.4,1.6-0.4c0.9,0,1.5,0.3,2,0.8c0.5,0.6,0.7,1.3,0.7,2.3v0.2H60.6z M61.3,193c-0.4,0.4-0.6,0.9-0.7,1.5h4.1
					c-0.1-0.7-0.2-1.2-0.6-1.5c-0.3-0.3-0.8-0.5-1.4-0.5C62.2,192.5,61.7,192.7,61.3,193z"/>
				<path class="st7" d="M72.7,189v9.5H72v-1.2c-0.2,0.4-0.5,0.8-0.9,1c-0.4,0.2-0.8,0.3-1.4,0.3c-0.6,0-1.1-0.1-1.5-0.4
					c-0.4-0.3-0.8-0.7-1-1.2c-0.2-0.5-0.4-1.1-0.4-1.8c0-0.7,0.1-1.3,0.4-1.8c0.2-0.5,0.6-0.9,1-1.2c0.4-0.3,0.9-0.4,1.5-0.4
					c0.5,0,1,0.1,1.4,0.3c0.4,0.2,0.7,0.6,0.9,1V189H72.7z M71.4,197.2c0.4-0.5,0.6-1.1,0.6-2s-0.2-1.5-0.6-2
					c-0.4-0.5-0.9-0.7-1.6-0.7c-0.7,0-1.2,0.2-1.6,0.7c-0.4,0.5-0.6,1.1-0.6,2c0,0.8,0.2,1.5,0.6,2c0.4,0.5,0.9,0.7,1.6,0.7
					S71,197.6,71.4,197.2z"/>
				<path class="st7" d="M82.1,198.5h-0.8l-1.1-3.1c-0.1-0.4-0.3-0.7-0.6-0.8s-0.6-0.2-1.1-0.2h-2.6v4.1h-0.8v-9.2h3.6
					c1,0,1.7,0.2,2.2,0.7c0.5,0.4,0.8,1.1,0.8,1.9c0,0.6-0.2,1.1-0.5,1.5c-0.3,0.4-0.8,0.7-1.3,0.9c0.3,0,0.5,0.2,0.7,0.3
					c0.2,0.2,0.3,0.4,0.5,0.8L82.1,198.5z M78.6,193.7c1.5,0,2.3-0.6,2.3-1.9c0-1.2-0.8-1.8-2.3-1.8h-2.7v3.7H78.6z"/>
				<path class="st7" d="M89.9,196h-5l-1.1,2.5h-0.8l4-9.2h0.7l4,9.2H91L89.9,196z M89.6,195.3l-2.2-5.1l-2.2,5.1H89.6z"/>
				<path class="st7" d="M102,189.3v9.2h-0.7v-7.4l-3.2,7.4h-0.6l-3.3-7.3l0,7.3h-0.7v-9.2h0.7l3.6,8.2l3.6-8.2H102z"/>
				<path class="st7" d="M104.4,189.3h3.5c0.9,0,1.6,0.2,2.2,0.7c0.5,0.4,0.8,1.1,0.8,1.8c0,0.8-0.3,1.4-0.8,1.9
					c-0.5,0.5-1.3,0.7-2.2,0.7h-2.7v4.1h-0.8V189.3z M107.9,193.7c0.7,0,1.3-0.2,1.6-0.5s0.6-0.8,0.6-1.4c0-0.6-0.2-1-0.6-1.4
					s-0.9-0.5-1.6-0.5h-2.7v3.7H107.9z"/>
				<path class="st7" d="M124.7,189.3v9.2H124v-7.4l-3.2,7.4h-0.6l-3.3-7.3l0,7.3h-0.7v-9.2h0.7l3.6,8.2l3.6-8.2H124.7z"/>
				<path class="st7" d="M132.6,192v6.5h-0.8v-1.2c-0.2,0.4-0.5,0.8-0.9,1c-0.4,0.2-0.8,0.3-1.4,0.3c-0.6,0-1.1-0.1-1.5-0.4
					c-0.4-0.3-0.8-0.7-1-1.2c-0.2-0.5-0.4-1.1-0.4-1.8s0.1-1.3,0.4-1.8c0.2-0.5,0.6-0.9,1-1.2c0.4-0.3,0.9-0.4,1.5-0.4
					c0.5,0,1,0.1,1.4,0.3c0.4,0.2,0.7,0.6,0.9,1V192H132.6z M131.2,197.2c0.4-0.5,0.6-1.1,0.6-2c0-0.9-0.2-1.5-0.6-2
					s-0.9-0.7-1.6-0.7s-1.2,0.2-1.6,0.7c-0.4,0.5-0.6,1.1-0.6,2c0,0.8,0.2,1.5,0.6,1.9c0.4,0.5,0.9,0.7,1.6,0.7
					C130.3,197.9,130.8,197.6,131.2,197.2z"/>
				<path class="st7" d="M138.1,191.9l0,0.7c-0.2,0-0.4-0.1-0.6-0.1c-0.7,0-1.1,0.2-1.5,0.6c-0.3,0.4-0.5,0.9-0.5,1.5v3.8h-0.8v-4.7
					c0-0.7,0-1.3-0.1-1.8h0.7l0.1,1.2c0.2-0.4,0.4-0.8,0.8-1s0.8-0.3,1.2-0.3C137.8,191.9,138,191.9,138.1,191.9z"/>
				<path class="st7" d="M143.7,198.5l-3.6-3.2v3.2h-0.8V189h0.8v6l3.3-3h1l-3.4,3.1l3.7,3.4H143.7z"/>
				<path class="st7" d="M146.1,195.1L146.1,195.1c0,0.9,0.2,1.6,0.6,2s1,0.7,1.8,0.7c0.8,0,1.5-0.3,2.1-0.8l0.3,0.6
					c-0.3,0.3-0.6,0.5-1.1,0.6s-0.9,0.2-1.4,0.2c-1,0-1.8-0.3-2.3-0.9s-0.9-1.4-0.9-2.5c0-0.7,0.1-1.3,0.4-1.8s0.6-0.9,1.1-1.2
					c0.5-0.3,1-0.4,1.6-0.4c0.9,0,1.5,0.3,2,0.8c0.5,0.6,0.7,1.3,0.7,2.3v0.2H146.1z M146.9,193c-0.4,0.4-0.6,0.9-0.7,1.5h4.1
					c-0.1-0.7-0.2-1.2-0.6-1.5c-0.3-0.3-0.8-0.5-1.4-0.5C147.7,192.5,147.2,192.7,146.9,193z"/>
				<path class="st7" d="M153.9,192.6v3.8c0,0.5,0.1,0.9,0.3,1.1c0.2,0.2,0.5,0.3,0.9,0.3c0.2,0,0.5,0,0.7-0.1v0.7
					c-0.3,0.1-0.6,0.1-0.8,0.1c-0.6,0-1-0.2-1.3-0.5c-0.3-0.3-0.5-0.8-0.5-1.4v-4h-1.3V192h1.3v-1.7l0.8-0.3v2h1.9v0.6H153.9z"/>
				<path class="st7" d="M161.7,192.3c0.4,0.3,0.8,0.7,1,1.2c0.2,0.5,0.4,1.1,0.4,1.8s-0.1,1.3-0.4,1.8c-0.2,0.5-0.6,0.9-1,1.2
					c-0.4,0.3-0.9,0.4-1.5,0.4c-0.5,0-1-0.1-1.4-0.4c-0.4-0.2-0.7-0.6-0.9-1v4.1h-0.8v-7.5c0-0.7,0-1.3-0.1-1.8h0.7l0.1,1.3
					c0.2-0.5,0.5-0.8,0.9-1.1c0.4-0.2,0.9-0.4,1.4-0.4C160.8,191.9,161.3,192,161.7,192.3z M161.7,197.2c0.4-0.5,0.6-1.1,0.6-1.9
					c0-0.8-0.2-1.5-0.6-2c-0.4-0.5-0.9-0.7-1.6-0.7c-0.7,0-1.2,0.2-1.6,0.7s-0.6,1.1-0.6,2c0,0.8,0.2,1.5,0.6,2
					c0.4,0.5,0.9,0.7,1.6,0.7S161.3,197.6,161.7,197.2z"/>
				<path class="st7" d="M164.9,189h0.8v9.5h-0.8V189z"/>
				<path class="st7" d="M173.4,192v6.5h-0.8v-1.2c-0.2,0.4-0.5,0.8-0.9,1c-0.4,0.2-0.8,0.3-1.4,0.3c-0.6,0-1.1-0.1-1.5-0.4
					c-0.4-0.3-0.8-0.7-1-1.2c-0.2-0.5-0.4-1.1-0.4-1.8s0.1-1.3,0.4-1.8c0.2-0.5,0.6-0.9,1-1.2c0.4-0.3,0.9-0.4,1.5-0.4
					c0.5,0,1,0.1,1.4,0.3c0.4,0.2,0.7,0.6,0.9,1V192H173.4z M172,197.2c0.4-0.5,0.6-1.1,0.6-2c0-0.9-0.2-1.5-0.6-2s-0.9-0.7-1.6-0.7
					s-1.2,0.2-1.6,0.7c-0.4,0.5-0.6,1.1-0.6,2c0,0.8,0.2,1.5,0.6,1.9c0.4,0.5,0.9,0.7,1.6,0.7C171.1,197.9,171.7,197.6,172,197.2z"
					/>
				<path class="st7" d="M176.6,198.2c-0.5-0.3-0.8-0.7-1.1-1.2c-0.2-0.5-0.4-1.1-0.4-1.8c0-0.7,0.1-1.3,0.4-1.8
					c0.2-0.5,0.6-0.9,1.1-1.2c0.5-0.3,1-0.4,1.6-0.4c0.4,0,0.9,0.1,1.3,0.2c0.4,0.2,0.7,0.4,1,0.6l-0.3,0.6c-0.3-0.3-0.7-0.5-1-0.6
					c-0.3-0.1-0.6-0.2-0.9-0.2c-0.7,0-1.2,0.2-1.7,0.7c-0.4,0.5-0.6,1.1-0.6,2c0,0.8,0.2,1.5,0.6,1.9c0.4,0.5,1,0.7,1.7,0.7
					c0.3,0,0.6-0.1,0.9-0.2c0.3-0.1,0.6-0.3,1-0.6l0.3,0.6c-0.3,0.3-0.6,0.5-1,0.6c-0.4,0.2-0.8,0.2-1.2,0.2
					C177.6,198.6,177.1,198.4,176.6,198.2z"/>
				<path class="st7" d="M182.4,195.1L182.4,195.1c0,0.9,0.2,1.6,0.6,2s1,0.7,1.8,0.7c0.8,0,1.5-0.3,2.1-0.8l0.3,0.6
					c-0.3,0.3-0.6,0.5-1.1,0.6s-0.9,0.2-1.4,0.2c-1,0-1.8-0.3-2.3-0.9s-0.9-1.4-0.9-2.5c0-0.7,0.1-1.3,0.4-1.8s0.6-0.9,1.1-1.2
					c0.5-0.3,1-0.4,1.6-0.4c0.9,0,1.5,0.3,2,0.8c0.5,0.6,0.7,1.3,0.7,2.3v0.2H182.4z M183.1,193c-0.4,0.4-0.6,0.9-0.7,1.5h4.1
					c-0.1-0.7-0.2-1.2-0.6-1.5c-0.3-0.3-0.8-0.5-1.4-0.5C184,192.5,183.5,192.7,183.1,193z"/>
				<path class="st7" d="M192.5,189.3h3c1.5,0,2.6,0.4,3.4,1.2c0.8,0.8,1.2,1.9,1.2,3.4c0,1.5-0.4,2.6-1.2,3.4s-1.9,1.2-3.4,1.2h-3
					V189.3z M195.5,197.8c1.2,0,2.2-0.3,2.8-1s0.9-1.6,0.9-2.9c0-2.6-1.3-3.9-3.8-3.9h-2.1v7.8H195.5z"/>
				<path class="st7" d="M202.4,195.1L202.4,195.1c0,0.9,0.2,1.6,0.6,2s1,0.7,1.8,0.7c0.8,0,1.5-0.3,2.1-0.8l0.3,0.6
					c-0.3,0.3-0.6,0.5-1.1,0.6s-0.9,0.2-1.4,0.2c-1,0-1.8-0.3-2.3-0.9s-0.9-1.4-0.9-2.5c0-0.7,0.1-1.3,0.4-1.8s0.6-0.9,1.1-1.2
					c0.5-0.3,1-0.4,1.6-0.4c0.9,0,1.5,0.3,2,0.8c0.5,0.6,0.7,1.3,0.7,2.3v0.2H202.4z M203.2,193c-0.4,0.4-0.6,0.9-0.7,1.5h4.1
					c-0.1-0.7-0.2-1.2-0.6-1.5c-0.3-0.3-0.8-0.5-1.4-0.5C204,192.5,203.6,192.7,203.2,193z"/>
				<path class="st7" d="M208.7,197.7l0.3-0.6c0.3,0.3,0.7,0.5,1,0.6s0.8,0.2,1.2,0.2c0.5,0,0.9-0.1,1.2-0.3
					c0.3-0.2,0.4-0.5,0.4-0.8c0-0.3-0.1-0.5-0.3-0.7c-0.2-0.2-0.5-0.3-0.9-0.4l-1.1-0.2c-0.5-0.1-0.9-0.3-1.2-0.6s-0.4-0.7-0.4-1.1
					c0-0.6,0.2-1,0.7-1.4s1-0.5,1.7-0.5c0.5,0,0.9,0.1,1.3,0.2s0.7,0.4,1,0.6l-0.3,0.6c-0.6-0.5-1.2-0.8-2-0.8
					c-0.5,0-0.9,0.1-1.2,0.3c-0.3,0.2-0.4,0.5-0.4,0.8c0,0.3,0.1,0.5,0.3,0.7c0.2,0.2,0.4,0.3,0.8,0.4l1.1,0.3
					c1.2,0.3,1.7,0.8,1.7,1.7c0,0.5-0.2,1-0.7,1.3s-1.1,0.5-1.8,0.5C210.2,198.6,209.3,198.3,208.7,197.7z"/>
				<path class="st7" d="M216.5,189.3v1h-1v-1H216.5z M215.5,192h0.8v6.5h-0.8V192z"/>
				<path class="st7" d="M224.1,192v6.5c0,0.9-0.2,1.6-0.7,2.1s-1.1,0.7-2.1,0.7c-1,0-1.8-0.2-2.5-0.7l0.2-0.7
					c0.4,0.2,0.8,0.4,1.2,0.5c0.4,0.1,0.8,0.2,1.2,0.2c0.6,0,1.1-0.2,1.5-0.5c0.3-0.4,0.5-0.9,0.5-1.5v-1.7c-0.2,0.4-0.5,0.8-0.9,1
					c-0.4,0.2-0.9,0.4-1.4,0.4c-0.6,0-1.1-0.1-1.5-0.4c-0.4-0.3-0.8-0.6-1-1.1c-0.2-0.5-0.4-1-0.4-1.7c0-0.6,0.1-1.2,0.4-1.7
					c0.2-0.5,0.6-0.9,1-1.1c0.4-0.3,0.9-0.4,1.5-0.4c0.5,0,1,0.1,1.4,0.3c0.4,0.2,0.7,0.6,0.9,1V192H224.1z M222.7,196.9
					c0.4-0.4,0.6-1.1,0.6-1.8c0-0.8-0.2-1.4-0.6-1.9c-0.4-0.5-0.9-0.7-1.6-0.7c-0.7,0-1.2,0.2-1.6,0.7c-0.4,0.5-0.6,1.1-0.6,1.9
					c0,0.8,0.2,1.4,0.6,1.8c0.4,0.4,0.9,0.7,1.6,0.7C221.8,197.6,222.4,197.4,222.7,196.9z"/>
				<path class="st7" d="M231.7,194.4v4.1h-0.8v-4.1c0-0.6-0.1-1.1-0.4-1.4c-0.3-0.3-0.7-0.5-1.2-0.5c-0.6,0-1.2,0.2-1.6,0.6
					s-0.6,0.9-0.6,1.6v3.7h-0.8v-4.7c0-0.7,0-1.3-0.1-1.8h0.7l0.1,1.2c0.2-0.4,0.5-0.8,0.9-1c0.4-0.2,0.9-0.3,1.4-0.3
					C230.9,191.9,231.7,192.7,231.7,194.4z"/>
				<path class="st7" d="M239.3,192v6.5h-0.8v-1.2c-0.2,0.4-0.5,0.8-0.9,1c-0.4,0.2-0.8,0.3-1.4,0.3c-0.6,0-1.1-0.1-1.5-0.4
					c-0.4-0.3-0.8-0.7-1-1.2c-0.2-0.5-0.4-1.1-0.4-1.8s0.1-1.3,0.4-1.8c0.2-0.5,0.6-0.9,1-1.2c0.4-0.3,0.9-0.4,1.5-0.4
					c0.5,0,1,0.1,1.4,0.3c0.4,0.2,0.7,0.6,0.9,1V192H239.3z M238,197.2c0.4-0.5,0.6-1.1,0.6-2c0-0.9-0.2-1.5-0.6-2s-0.9-0.7-1.6-0.7
					s-1.2,0.2-1.6,0.7c-0.4,0.5-0.6,1.1-0.6,2c0,0.8,0.2,1.5,0.6,1.9c0.4,0.5,0.9,0.7,1.6,0.7C237.1,197.9,237.6,197.6,238,197.2z"
					/>
				<path class="st7" d="M242.6,192.6v3.8c0,0.5,0.1,0.9,0.3,1.1c0.2,0.2,0.5,0.3,0.9,0.3c0.2,0,0.5,0,0.7-0.1v0.7
					c-0.3,0.1-0.6,0.1-0.8,0.1c-0.6,0-1-0.2-1.3-0.5c-0.3-0.3-0.5-0.8-0.5-1.4v-4h-1.3V192h1.3v-1.7l0.8-0.3v2h1.9v0.6H242.6z"/>
				<path class="st7" d="M246.9,189.3v1h-1v-1H246.9z M246,192h0.8v6.5H246V192z"/>
				<path class="st7" d="M250,198.2c-0.5-0.3-0.8-0.7-1-1.2c-0.2-0.5-0.4-1.1-0.4-1.8s0.1-1.3,0.4-1.8c0.2-0.5,0.6-0.9,1-1.2
					c0.5-0.3,1-0.4,1.6-0.4c0.6,0,1.1,0.1,1.5,0.4c0.4,0.3,0.8,0.7,1,1.2c0.2,0.5,0.4,1.1,0.4,1.8s-0.1,1.3-0.4,1.8
					c-0.2,0.5-0.6,0.9-1,1.2s-1,0.4-1.5,0.4C250.9,198.6,250.4,198.4,250,198.2z M253.1,197.2c0.4-0.5,0.6-1.1,0.6-2
					c0-0.8-0.2-1.5-0.6-2c-0.4-0.5-0.9-0.7-1.6-0.7c-0.7,0-1.2,0.2-1.6,0.7c-0.4,0.5-0.6,1.1-0.6,2c0,0.9,0.2,1.5,0.6,2
					c0.4,0.5,0.9,0.7,1.6,0.7C252.2,197.9,252.7,197.6,253.1,197.2z"/>
				<path class="st7" d="M261.6,194.4v4.1h-0.8v-4.1c0-0.6-0.1-1.1-0.4-1.4c-0.3-0.3-0.7-0.5-1.2-0.5c-0.6,0-1.2,0.2-1.6,0.6
					s-0.6,0.9-0.6,1.6v3.7h-0.8v-4.7c0-0.7,0-1.3-0.1-1.8h0.7l0.1,1.2c0.2-0.4,0.5-0.8,0.9-1c0.4-0.2,0.9-0.3,1.4-0.3
					C260.9,191.9,261.6,192.7,261.6,194.4z"/>
				<path class="st7" d="M266.1,194.7h6.5v0.6h-6.5V194.7z"/>
				<path class="st7" d="M60.2,214.6h-0.8l-1.1-3.1c-0.1-0.4-0.3-0.7-0.6-0.8s-0.6-0.2-1.1-0.2H54v4.1h-0.8v-9.2h3.6
					c1,0,1.7,0.2,2.2,0.7c0.5,0.4,0.8,1.1,0.8,1.9c0,0.6-0.2,1.1-0.5,1.5c-0.3,0.4-0.8,0.7-1.3,0.9c0.3,0,0.5,0.2,0.7,0.3
					c0.2,0.2,0.3,0.4,0.5,0.8L60.2,214.6z M56.7,209.8c1.5,0,2.3-0.6,2.3-1.9c0-1.2-0.8-1.8-2.3-1.8h-2.7v3.7H56.7z"/>
				<path class="st7" d="M62.4,211.3L62.4,211.3c0,0.9,0.2,1.6,0.6,2s1,0.7,1.8,0.7c0.8,0,1.5-0.3,2.1-0.8l0.3,0.6
					c-0.3,0.3-0.6,0.5-1.1,0.6s-0.9,0.2-1.4,0.2c-1,0-1.8-0.3-2.3-0.9s-0.9-1.4-0.9-2.5c0-0.7,0.1-1.3,0.4-1.8s0.6-0.9,1.1-1.2
					c0.5-0.3,1-0.4,1.6-0.4c0.9,0,1.5,0.3,2,0.8c0.5,0.6,0.7,1.3,0.7,2.3v0.2H62.4z M63.1,209.2c-0.4,0.4-0.6,0.9-0.7,1.5h4.1
					c-0.1-0.7-0.2-1.2-0.6-1.5c-0.3-0.3-0.8-0.5-1.4-0.5C64,208.6,63.5,208.8,63.1,209.2z"/>
				<path class="st7" d="M74.6,208.2v6.5h-0.8v-1.2c-0.2,0.4-0.5,0.8-0.9,1c-0.4,0.2-0.8,0.3-1.4,0.3c-0.6,0-1.1-0.1-1.5-0.4
					c-0.4-0.3-0.8-0.7-1-1.2c-0.2-0.5-0.4-1.1-0.4-1.8s0.1-1.3,0.4-1.8c0.2-0.5,0.6-0.9,1-1.2c0.4-0.3,0.9-0.4,1.5-0.4
					c0.5,0,1,0.1,1.4,0.3c0.4,0.2,0.7,0.6,0.9,1v-1.2H74.6z M73.2,213.3c0.4-0.5,0.6-1.1,0.6-2c0-0.9-0.2-1.5-0.6-2
					s-0.9-0.7-1.6-0.7s-1.2,0.2-1.6,0.7c-0.4,0.5-0.6,1.1-0.6,2c0,0.8,0.2,1.5,0.6,1.9c0.4,0.5,0.9,0.7,1.6,0.7
					C72.3,214,72.8,213.8,73.2,213.3z"/>
				<path class="st7" d="M82.2,205.1v9.5h-0.8v-1.2c-0.2,0.4-0.5,0.8-0.9,1c-0.4,0.2-0.8,0.3-1.4,0.3c-0.6,0-1.1-0.1-1.5-0.4
					c-0.4-0.3-0.8-0.7-1-1.2c-0.2-0.5-0.4-1.1-0.4-1.8c0-0.7,0.1-1.3,0.4-1.8c0.2-0.5,0.6-0.9,1-1.2c0.4-0.3,0.9-0.4,1.5-0.4
					c0.5,0,1,0.1,1.4,0.3c0.4,0.2,0.7,0.6,0.9,1v-4.2H82.2z M80.9,213.3c0.4-0.5,0.6-1.1,0.6-2s-0.2-1.5-0.6-2
					c-0.4-0.5-0.9-0.7-1.6-0.7c-0.7,0-1.2,0.2-1.6,0.7c-0.4,0.5-0.6,1.1-0.6,2c0,0.8,0.2,1.5,0.6,2c0.4,0.5,0.9,0.7,1.6,0.7
					S80.5,213.8,80.9,213.3z"/>
				<path class="st7" d="M89.9,208.2l-3,7.1c-0.3,0.7-0.7,1.2-1.1,1.6c-0.5,0.3-1,0.6-1.7,0.7l-0.2-0.6c0.6-0.1,1.1-0.3,1.4-0.6
					s0.6-0.6,0.8-1.1l0.3-0.6l-2.8-6.5h0.8l2.3,5.7l2.4-5.7H89.9z"/>
			</g>
		</g>
		<g>
			<g>
				<path class="st1" d="M28,78.3l-2.2-3.1c-0.2,0-0.4,0-0.6,0h-2.5v3.1h-1.5V68.1h4c2.6,0,4.2,1.3,4.2,3.5c0,1.6-0.8,2.7-2.2,3.2
					l2.4,3.4H28z M27.9,71.6c0-1.5-1-2.3-2.8-2.3h-2.5v4.6h2.5C26.9,73.9,27.9,73.1,27.9,71.6z"/>
				<path class="st1" d="M38.6,74.9h-6.2c0.2,1.4,1.3,2.3,2.8,2.3c0.9,0,1.7-0.3,2.2-0.9l0.8,0.9c-0.7,0.8-1.8,1.2-3,1.2
					c-2.5,0-4.1-1.6-4.1-3.9c0-2.3,1.6-3.9,3.9-3.9s3.8,1.6,3.8,4C38.6,74.6,38.6,74.7,38.6,74.9z M32.4,73.9h4.9
					c-0.1-1.3-1.1-2.2-2.5-2.2C33.5,71.7,32.5,72.6,32.4,73.9z"/>
				<path class="st1" d="M46.6,73.6v4.6h-1.3v-1c-0.5,0.7-1.3,1.1-2.5,1.1c-1.7,0-2.8-0.9-2.8-2.3c0-1.2,0.8-2.3,3.1-2.3h2.2v-0.3
					c0-1.2-0.7-1.9-2.1-1.9c-0.9,0-1.8,0.3-2.4,0.8l-0.6-1c0.8-0.6,1.9-1,3.2-1C45.4,70.5,46.6,71.5,46.6,73.6z M45.2,75.9v-1.1H43
					c-1.4,0-1.8,0.5-1.8,1.2c0,0.8,0.6,1.2,1.7,1.2C44,77.3,44.8,76.8,45.2,75.9z"/>
				<path class="st1" d="M56.6,67.5v10.8h-1.3V77c-0.6,0.9-1.6,1.3-2.7,1.3c-2.3,0-3.9-1.6-3.9-3.9c0-2.4,1.6-3.9,3.9-3.9
					c1.1,0,2,0.4,2.7,1.2v-4.2H56.6z M55.3,74.4c0-1.6-1.1-2.7-2.6-2.7c-1.5,0-2.6,1.1-2.6,2.7s1.1,2.7,2.6,2.7
					C54.1,77.1,55.3,76.1,55.3,74.4z"/>
				<path class="st1" d="M59.2,68.2c0-0.5,0.4-0.9,0.9-0.9c0.5,0,0.9,0.4,0.9,0.9c0,0.5-0.4,0.9-0.9,0.9
					C59.6,69.1,59.2,68.7,59.2,68.2z M59.4,70.6h1.4v7.7h-1.4V70.6z"/>
				<path class="st1" d="M70.9,73.8v4.4h-1.4V74c0-1.5-0.8-2.3-2.1-2.3c-1.5,0-2.4,0.9-2.4,2.6v4h-1.4v-7.7H65v1.2
					c0.6-0.8,1.6-1.2,2.8-1.2C69.6,70.5,70.9,71.6,70.9,73.8z"/>
				<path class="st1" d="M80.6,74.9h-6.2c0.2,1.4,1.3,2.3,2.8,2.3c0.9,0,1.7-0.3,2.2-0.9l0.8,0.9c-0.7,0.8-1.8,1.2-3,1.2
					c-2.5,0-4.1-1.6-4.1-3.9c0-2.3,1.6-3.9,3.9-3.9s3.8,1.6,3.8,4C80.7,74.6,80.6,74.7,80.6,74.9z M74.4,73.9h4.9
					c-0.1-1.3-1.1-2.2-2.5-2.2C75.5,71.7,74.5,72.6,74.4,73.9z"/>
				<path class="st1" d="M81.8,77.4l0.6-1.1c0.7,0.5,1.7,0.8,2.7,0.8c1.3,0,1.8-0.4,1.8-1c0-1.7-4.9-0.2-4.9-3.3
					c0-1.4,1.2-2.3,3.2-2.3c1,0,2.1,0.3,2.8,0.7l-0.6,1.1c-0.7-0.5-1.5-0.6-2.2-0.6c-1.2,0-1.8,0.5-1.8,1.1c0,1.8,4.9,0.3,4.9,3.3
					c0,1.4-1.3,2.3-3.3,2.3C83.7,78.3,82.4,78,81.8,77.4z"/>
				<path class="st1" d="M89.2,77.4l0.6-1.1c0.7,0.5,1.7,0.8,2.7,0.8c1.3,0,1.8-0.4,1.8-1c0-1.7-4.9-0.2-4.9-3.3
					c0-1.4,1.2-2.3,3.2-2.3c1,0,2.1,0.3,2.8,0.7l-0.6,1.1c-0.7-0.5-1.5-0.6-2.2-0.6c-1.2,0-1.8,0.5-1.8,1.1c0,1.8,4.9,0.3,4.9,3.3
					c0,1.4-1.3,2.3-3.3,2.3C91.1,78.3,89.8,78,89.2,77.4z"/>
				<path class="st1" d="M108.3,75.7h-5.4l-1.1,2.5h-1.5l4.6-10.2h1.4l4.6,10.2h-1.5L108.3,75.7z M107.8,74.6l-2.2-5l-2.2,5H107.8z"
					/>
				<path class="st1" d="M111.4,77.4l0.6-1.1c0.7,0.5,1.7,0.8,2.7,0.8c1.3,0,1.8-0.4,1.8-1c0-1.7-4.9-0.2-4.9-3.3
					c0-1.4,1.2-2.3,3.2-2.3c1,0,2.1,0.3,2.8,0.7l-0.6,1.1c-0.7-0.5-1.5-0.6-2.2-0.6c-1.2,0-1.8,0.5-1.8,1.1c0,1.8,4.9,0.3,4.9,3.3
					c0,1.4-1.3,2.3-3.3,2.3C113.3,78.3,112,78,111.4,77.4z"/>
				<path class="st1" d="M118.8,77.4l0.6-1.1c0.7,0.5,1.7,0.8,2.7,0.8c1.3,0,1.8-0.4,1.8-1c0-1.7-4.9-0.2-4.9-3.3
					c0-1.4,1.2-2.3,3.2-2.3c1,0,2.1,0.3,2.8,0.7l-0.6,1.1c-0.7-0.5-1.5-0.6-2.2-0.6c-1.2,0-1.8,0.5-1.8,1.1c0,1.8,4.9,0.3,4.9,3.3
					c0,1.4-1.3,2.3-3.3,2.3C120.7,78.3,119.4,78,118.8,77.4z"/>
				<path class="st1" d="M134.1,74.9h-6.2c0.2,1.4,1.3,2.3,2.8,2.3c0.9,0,1.7-0.3,2.2-0.9l0.8,0.9c-0.7,0.8-1.8,1.2-3,1.2
					c-2.5,0-4.1-1.6-4.1-3.9c0-2.3,1.6-3.9,3.9-3.9s3.8,1.6,3.8,4C134.2,74.6,134.1,74.7,134.1,74.9z M127.9,73.9h4.9
					c-0.1-1.3-1.1-2.2-2.5-2.2C129,71.7,128,72.6,127.9,73.9z"/>
				<path class="st1" d="M135.3,77.4l0.6-1.1c0.7,0.5,1.7,0.8,2.7,0.8c1.3,0,1.8-0.4,1.8-1c0-1.7-4.9-0.2-4.9-3.3
					c0-1.4,1.2-2.3,3.2-2.3c1,0,2.1,0.3,2.8,0.7l-0.6,1.1c-0.7-0.5-1.5-0.6-2.2-0.6c-1.2,0-1.8,0.5-1.8,1.1c0,1.8,4.9,0.3,4.9,3.3
					c0,1.4-1.3,2.3-3.3,2.3C137.2,78.3,135.9,78,135.3,77.4z"/>
				<path class="st1" d="M142.7,77.4l0.6-1.1c0.7,0.5,1.7,0.8,2.7,0.8c1.3,0,1.8-0.4,1.8-1c0-1.7-4.9-0.2-4.9-3.3
					c0-1.4,1.2-2.3,3.2-2.3c1,0,2.1,0.3,2.8,0.7l-0.6,1.1c-0.7-0.5-1.5-0.6-2.2-0.6c-1.2,0-1.8,0.5-1.8,1.1c0,1.8,4.9,0.3,4.9,3.3
					c0,1.4-1.3,2.3-3.3,2.3C144.6,78.3,143.3,78,142.7,77.4z"/>
				<path class="st1" d="M163.9,73.8v4.4h-1.4V74c0-1.5-0.7-2.3-2-2.3c-1.4,0-2.3,0.9-2.3,2.6v4h-1.4V74c0-1.5-0.7-2.3-2-2.3
					c-1.4,0-2.3,0.9-2.3,2.6v4h-1.4v-7.7h1.3v1.1c0.6-0.8,1.5-1.2,2.7-1.2c1.2,0,2.2,0.5,2.7,1.4c0.6-0.9,1.7-1.4,3-1.4
					C162.6,70.5,163.9,71.6,163.9,73.8z"/>
				<path class="st1" d="M173.6,74.9h-6.2c0.2,1.4,1.3,2.3,2.8,2.3c0.9,0,1.7-0.3,2.2-0.9l0.8,0.9c-0.7,0.8-1.8,1.2-3,1.2
					c-2.5,0-4.1-1.6-4.1-3.9c0-2.3,1.6-3.9,3.9-3.9s3.8,1.6,3.8,4C173.6,74.6,173.6,74.7,173.6,74.9z M167.3,73.9h4.9
					c-0.1-1.3-1.1-2.2-2.5-2.2C168.5,71.7,167.5,72.6,167.3,73.9z"/>
				<path class="st1" d="M183,73.8v4.4h-1.4V74c0-1.5-0.8-2.3-2.1-2.3c-1.5,0-2.4,0.9-2.4,2.6v4h-1.4v-7.7h1.3v1.2
					c0.6-0.8,1.6-1.2,2.8-1.2C181.7,70.5,183,71.6,183,73.8z"/>
				<path class="st1" d="M190,77.8c-0.4,0.4-1.1,0.5-1.7,0.5c-1.6,0-2.4-0.9-2.4-2.4v-4.2h-1.3v-1.1h1.3v-1.7h1.4v1.7h2.2v1.1h-2.2
					v4.2c0,0.8,0.4,1.3,1.2,1.3c0.4,0,0.8-0.1,1.1-0.4L190,77.8z"/>
			</g>
		</g>
		<g>
			<path class="st7" d="M19.9,95.2c0-0.3,0-0.6,0-0.9c0.1-1.7,0.7-3.4,1.6-5h0.6c-0.5,0.9-0.8,1.8-1.1,2.6c-0.2,0.8-0.4,1.6-0.4,2.4
				c0,0.3,0,0.6,0,0.9c0,1.3,0.2,2.7,0.7,4.1h-0.6C20.2,98,19.9,96.6,19.9,95.2z"/>
			<path class="st7" d="M24.4,96.9c-0.5-0.3-0.9-0.7-1.2-1.3c-0.3-0.6-0.4-1.2-0.4-2c0-0.9,0.2-1.7,0.5-2.4s0.7-1.2,1.3-1.6
				c0.6-0.4,1.2-0.5,1.9-0.5c0.7,0,1.3,0.2,1.9,0.5s0.9,0.7,1.2,1.3c0.3,0.6,0.4,1.2,0.4,2c0,0.9-0.2,1.7-0.5,2.4
				c-0.3,0.7-0.7,1.2-1.3,1.6c-0.6,0.4-1.2,0.5-2,0.5C25.6,97.4,24.9,97.2,24.4,96.9z M27.9,96.3c0.4-0.3,0.8-0.7,1-1.3
				s0.4-1.3,0.4-2.1c0-1-0.2-1.8-0.7-2.3s-1.2-0.8-2.1-0.8c-0.6,0-1.1,0.2-1.6,0.5c-0.4,0.3-0.8,0.8-1,1.3c-0.2,0.6-0.4,1.3-0.4,2.1
				c0,1,0.2,1.8,0.7,2.3c0.5,0.5,1.2,0.8,2.1,0.8C26.9,96.7,27.4,96.6,27.9,96.3z"/>
			<path class="st7" d="M35.6,91.8c0.4,0.2,0.6,0.5,0.9,1c0.2,0.4,0.3,0.9,0.3,1.4c0,0.6-0.1,1.2-0.3,1.6s-0.5,0.8-0.9,1.1
				c-0.4,0.3-0.9,0.4-1.4,0.4c-0.5,0-0.9-0.1-1.2-0.3c-0.3-0.2-0.6-0.5-0.8-0.9l-0.3,3.5h-0.7l0.5-6.5c0-0.3,0-0.7,0-1.1
				c0-0.2,0-0.4,0-0.5h0.6l0,1c0.2-0.3,0.4-0.6,0.8-0.8s0.7-0.3,1.2-0.3C34.8,91.5,35.2,91.6,35.6,91.8z M35.5,96.1
				c0.3-0.5,0.5-1.1,0.5-1.9c0-0.7-0.2-1.2-0.5-1.6s-0.8-0.6-1.3-0.6c-0.6,0-1.1,0.2-1.4,0.7c-0.4,0.5-0.5,1.1-0.5,1.9
				c0,0.7,0.2,1.2,0.5,1.6c0.3,0.4,0.8,0.5,1.4,0.5S35.1,96.5,35.5,96.1z"/>
			<path class="st7" d="M39.1,95.5c0,0.1,0,0.1,0,0.2c0,0.4,0.1,0.6,0.2,0.8c0.2,0.1,0.4,0.2,0.7,0.2c0.2,0,0.4,0,0.6-0.1l0,0.6
				c-0.2,0.1-0.5,0.1-0.7,0.1c-0.5,0-0.8-0.1-1.1-0.4c-0.3-0.2-0.4-0.6-0.4-1.1c0-0.1,0-0.2,0-0.2l0.3-3.5h-1.1l0-0.6h1.1l0.1-1.5
				l0.7-0.3l-0.1,1.8h1.7l0,0.6h-1.7L39.1,95.5z"/>
			<path class="st7" d="M42.3,91.6H43l-0.5,5.7h-0.7L42.3,91.6z M43.2,89.3l-0.1,0.9h-0.9l0.1-0.9H43.2z"/>
			<path class="st7" d="M45.4,97c-0.4-0.2-0.7-0.5-0.9-1c-0.2-0.4-0.3-0.9-0.3-1.4c0-0.6,0.1-1.2,0.3-1.6s0.5-0.8,0.9-1.1
				c0.4-0.3,0.9-0.4,1.4-0.4c0.5,0,0.9,0.1,1.3,0.3c0.4,0.2,0.7,0.5,0.9,1s0.3,0.9,0.3,1.4c0,0.6-0.1,1.2-0.3,1.6s-0.5,0.8-0.9,1.1
				c-0.4,0.3-0.9,0.4-1.4,0.4C46.3,97.4,45.8,97.2,45.4,97z M48.2,96.1c0.3-0.5,0.5-1.1,0.5-1.9c0-0.7-0.2-1.2-0.5-1.6
				c-0.3-0.4-0.8-0.6-1.3-0.6c-0.6,0-1.1,0.2-1.4,0.7c-0.4,0.5-0.5,1.1-0.5,1.9c0,0.7,0.2,1.2,0.5,1.6c0.3,0.4,0.8,0.5,1.4,0.5
				C47.4,96.8,47.9,96.5,48.2,96.1z"/>
			<path class="st7" d="M55.2,92c0.3,0.3,0.5,0.8,0.5,1.4c0,0.1,0,0.2,0,0.3l-0.3,3.6h-0.7l0.3-3.5c0-0.1,0-0.2,0-0.3
				c0-0.5-0.1-0.8-0.3-1.1s-0.6-0.3-1-0.3c-0.6,0-1,0.2-1.4,0.5c-0.3,0.3-0.5,0.8-0.6,1.4l-0.3,3.3h-0.7l0.3-4.1c0-0.3,0-0.7,0-1.1
				c0-0.2,0-0.4,0-0.5h0.6l0,1c0.2-0.4,0.5-0.6,0.8-0.8c0.3-0.2,0.7-0.3,1.2-0.3C54.4,91.5,54.9,91.6,55.2,92z"/>
			<path class="st7" d="M62.5,91.6l-0.5,5.7h-0.7l0.1-1c-0.2,0.3-0.4,0.6-0.8,0.8c-0.4,0.2-0.7,0.3-1.1,0.3c-0.5,0-0.9-0.1-1.3-0.3
				s-0.6-0.5-0.8-1c-0.2-0.4-0.3-0.9-0.3-1.4c0-0.6,0.1-1.2,0.3-1.6c0.2-0.5,0.5-0.8,0.9-1.1c0.4-0.3,0.9-0.4,1.4-0.4
				c0.5,0,0.9,0.1,1.2,0.3s0.6,0.5,0.8,0.9l0.1-1H62.5z M61.1,96.1c0.4-0.5,0.5-1.1,0.5-1.9c0-0.7-0.2-1.2-0.5-1.6
				c-0.3-0.4-0.8-0.5-1.4-0.5c-0.6,0-1.1,0.2-1.4,0.7c-0.3,0.5-0.5,1.1-0.5,1.9c0,0.7,0.2,1.2,0.5,1.6c0.3,0.4,0.8,0.6,1.4,0.6
				C60.3,96.8,60.8,96.5,61.1,96.1z"/>
			<path class="st7" d="M64.6,89h0.7l-0.7,8.3h-0.7L64.6,89z"/>
			<path class="st7" d="M67.4,96.3L67.3,97c0,0.3-0.1,0.5-0.2,0.8c-0.1,0.2-0.3,0.5-0.5,0.7l-0.4-0.3c0.3-0.3,0.5-0.6,0.5-0.9h-0.5
				l0.1-1H67.4z"/>
			<path class="st7" d="M76.1,91.8c0.4,0.2,0.6,0.5,0.9,1c0.2,0.4,0.3,0.9,0.3,1.4c0,0.6-0.1,1.2-0.3,1.6S76.4,96.7,76,97
				c-0.4,0.3-0.9,0.4-1.4,0.4c-0.5,0-0.9-0.1-1.2-0.3c-0.3-0.2-0.6-0.5-0.8-0.9l-0.1,1.1h-0.7l0.7-8.3h0.7L73,92.5
				c0.2-0.3,0.5-0.6,0.8-0.8c0.3-0.2,0.7-0.3,1.1-0.3C75.4,91.5,75.8,91.6,76.1,91.8z M76.1,96.1c0.3-0.5,0.5-1.1,0.5-1.9
				c0-0.7-0.2-1.2-0.5-1.6c-0.3-0.4-0.8-0.6-1.3-0.6c-0.6,0-1.1,0.2-1.4,0.7c-0.4,0.5-0.5,1.1-0.5,1.9c0,0.7,0.2,1.2,0.5,1.6
				c0.3,0.4,0.8,0.5,1.4,0.5S75.7,96.5,76.1,96.1z"/>
			<path class="st7" d="M83.6,91.6l-0.4,5.7h-0.7l0.1-1c-0.2,0.3-0.5,0.6-0.8,0.8s-0.7,0.3-1.1,0.3c-0.6,0-1.1-0.2-1.4-0.5
				c-0.3-0.3-0.5-0.8-0.5-1.4c0-0.1,0-0.2,0-0.3l0.3-3.5h0.7l-0.3,3.5c0,0.1,0,0.2,0,0.3c0,0.9,0.4,1.4,1.3,1.4c0.6,0,1-0.2,1.3-0.5
				c0.3-0.3,0.5-0.8,0.6-1.4l0.3-3.2H83.6z"/>
			<path class="st7" d="M86.1,95.5c0,0.1,0,0.1,0,0.2c0,0.4,0.1,0.6,0.2,0.8c0.2,0.1,0.4,0.2,0.7,0.2c0.2,0,0.4,0,0.6-0.1l0,0.6
				c-0.2,0.1-0.5,0.1-0.7,0.1c-0.5,0-0.8-0.1-1.1-0.4c-0.3-0.2-0.4-0.6-0.4-1.1c0-0.1,0-0.2,0-0.2l0.3-3.5h-1.1l0-0.6h1.1l0.1-1.5
				l0.7-0.3l-0.1,1.8h1.7l0,0.6h-1.7L86.1,95.5z"/>
			<path class="st7" d="M96.2,92c0.3,0.3,0.5,0.8,0.5,1.4c0,0.1,0,0.2,0,0.3l-0.3,3.6h-0.7l0.3-3.5c0-0.1,0-0.2,0-0.3
				c0-0.5-0.1-0.8-0.3-1.1s-0.6-0.3-1-0.3c-0.6,0-1,0.2-1.4,0.5c-0.3,0.3-0.5,0.8-0.6,1.4l-0.3,3.3h-0.7l0.7-8.3h0.7l-0.3,3.6
				c0.2-0.3,0.5-0.6,0.8-0.8c0.3-0.2,0.7-0.3,1.2-0.3C95.4,91.5,95.8,91.6,96.2,92z"/>
			<path class="st7" d="M98.7,91.6h0.7l-0.5,5.7h-0.7L98.7,91.6z M99.7,89.3l-0.1,0.9h-0.9l0.1-0.9H99.7z"/>
			<path class="st7" d="M106.1,91.6l-0.5,5.7c-0.1,1.7-1,2.5-2.5,2.5c-0.8,0-1.6-0.2-2.2-0.6l0.2-0.6c0.4,0.2,0.7,0.4,1,0.5
				s0.7,0.1,1.1,0.1c1.1,0,1.8-0.6,1.9-1.9l0.1-1.3c-0.2,0.3-0.4,0.6-0.8,0.8c-0.4,0.2-0.7,0.3-1.1,0.3c-0.8,0-1.4-0.2-1.8-0.7
				c-0.4-0.5-0.7-1.1-0.7-1.9c0-0.6,0.1-1.1,0.3-1.6c0.2-0.5,0.5-0.8,0.9-1.1c0.4-0.2,0.9-0.4,1.4-0.4c0.5,0,0.9,0.1,1.2,0.3
				s0.6,0.5,0.8,0.9l0.1-1H106.1z M104.7,95.8c0.4-0.4,0.5-1,0.5-1.8c0-0.6-0.2-1.1-0.5-1.5c-0.3-0.4-0.8-0.5-1.4-0.5
				c-0.6,0-1.1,0.2-1.5,0.6c-0.4,0.4-0.5,1-0.5,1.8c0,0.6,0.2,1.1,0.5,1.5c0.3,0.3,0.8,0.5,1.4,0.5
				C103.9,96.5,104.4,96.3,104.7,95.8z"/>
			<path class="st7" d="M112,92c0.3,0.3,0.5,0.8,0.5,1.4c0,0.1,0,0.2,0,0.3l-0.3,3.6h-0.7l0.3-3.5c0-0.1,0-0.2,0-0.3
				c0-0.5-0.1-0.8-0.3-1.1s-0.6-0.3-1-0.3c-0.6,0-1,0.2-1.4,0.5c-0.3,0.3-0.5,0.8-0.6,1.4l-0.3,3.3h-0.7l0.7-8.3h0.7l-0.3,3.6
				c0.2-0.3,0.5-0.6,0.8-0.8c0.3-0.2,0.7-0.3,1.2-0.3C111.2,91.5,111.7,91.6,112,92z"/>
			<path class="st7" d="M114.7,89h0.7l-0.7,8.3h-0.7L114.7,89z"/>
			<path class="st7" d="M121.9,91.6l-3.2,6.2c-0.3,0.6-0.7,1.1-1.1,1.4c-0.4,0.3-0.9,0.5-1.5,0.6l-0.1-0.6c0.5-0.1,1-0.3,1.2-0.5
				c0.3-0.2,0.5-0.5,0.8-0.9l0.3-0.5l-2-5.7h0.7l1.7,5l2.5-5H121.9z"/>
			<path class="st7" d="M128.8,91.5l-0.1,0.6c-0.1,0-0.3,0-0.5,0c-0.6,0-1,0.2-1.3,0.6c-0.3,0.4-0.5,0.8-0.5,1.3l-0.3,3.3h-0.7
				l0.3-4.1c0-0.5,0-0.9,0-1.1c0-0.2,0-0.3,0-0.4h0.6l0,0.9c0.2-0.3,0.4-0.6,0.8-0.8s0.7-0.3,1.1-0.3
				C128.6,91.5,128.7,91.5,128.8,91.5z"/>
			<path class="st7" d="M129.9,94.4c0,0.1,0,0.2,0,0.3c0,0.7,0.2,1.2,0.5,1.5c0.3,0.4,0.8,0.6,1.4,0.6c0.3,0,0.7-0.1,1-0.2
				c0.3-0.1,0.6-0.3,0.9-0.5l0.2,0.5c-0.2,0.2-0.5,0.4-0.9,0.5c-0.4,0.1-0.8,0.2-1.2,0.2c-0.8,0-1.4-0.2-1.9-0.7
				c-0.5-0.5-0.7-1.2-0.7-2c0-0.6,0.1-1.2,0.3-1.6s0.5-0.8,1-1.1c0.4-0.3,0.9-0.4,1.5-0.4c0.7,0,1.3,0.2,1.7,0.6
				c0.4,0.4,0.6,1,0.6,1.8c0,0.2,0,0.3,0,0.5H129.9z M130.6,92.5c-0.3,0.3-0.6,0.8-0.7,1.3h3.7c0-0.6-0.1-1-0.4-1.3
				c-0.3-0.3-0.7-0.5-1.2-0.5C131.4,92,131,92.2,130.6,92.5z"/>
			<path class="st7" d="M136.5,97c-0.4-0.2-0.7-0.5-0.9-1c-0.2-0.4-0.3-0.9-0.3-1.4c0-0.6,0.1-1.2,0.3-1.7s0.5-0.8,1-1.1
				c0.4-0.3,0.9-0.4,1.5-0.4c0.4,0,0.8,0.1,1.1,0.2c0.4,0.1,0.6,0.3,0.9,0.6l-0.3,0.5c-0.3-0.2-0.6-0.4-0.9-0.5
				c-0.3-0.1-0.6-0.2-0.9-0.2c-0.6,0-1.2,0.2-1.5,0.7c-0.4,0.5-0.5,1.1-0.5,1.9c0,0.7,0.2,1.2,0.5,1.5c0.3,0.4,0.8,0.6,1.4,0.6
				c0.3,0,0.6-0.1,0.8-0.2c0.3-0.1,0.5-0.3,0.8-0.5l0.2,0.5c-0.2,0.2-0.5,0.4-0.9,0.6c-0.3,0.1-0.7,0.2-1.1,0.2
				C137.3,97.4,136.9,97.2,136.5,97z"/>
			<path class="st7" d="M142,97c-0.4-0.2-0.7-0.5-0.9-1c-0.2-0.4-0.3-0.9-0.3-1.4c0-0.6,0.1-1.2,0.3-1.6s0.5-0.8,0.9-1.1
				c0.4-0.3,0.9-0.4,1.4-0.4c0.5,0,0.9,0.1,1.3,0.3c0.4,0.2,0.7,0.5,0.9,1s0.3,0.9,0.3,1.4c0,0.6-0.1,1.2-0.3,1.6s-0.5,0.8-0.9,1.1
				c-0.4,0.3-0.9,0.4-1.4,0.4C142.9,97.4,142.4,97.2,142,97z M144.8,96.1c0.3-0.5,0.5-1.1,0.5-1.9c0-0.7-0.2-1.2-0.5-1.6
				c-0.3-0.4-0.8-0.6-1.3-0.6c-0.6,0-1.1,0.2-1.4,0.7c-0.4,0.5-0.5,1.1-0.5,1.9c0,0.7,0.2,1.2,0.5,1.6c0.3,0.4,0.8,0.5,1.4,0.5
				C144,96.8,144.5,96.5,144.8,96.1z"/>
			<path class="st7" d="M155.1,91.9c0.3,0.3,0.5,0.8,0.5,1.4c0,0.2,0,0.3,0,0.4l-0.3,3.6h-0.7l0.3-3.5c0-0.1,0-0.2,0-0.3
				c0-0.5-0.1-0.8-0.3-1c-0.2-0.2-0.5-0.3-0.9-0.3c-0.5,0-0.9,0.2-1.3,0.5c-0.3,0.3-0.5,0.8-0.5,1.4l-0.3,3.3H151l0.3-3.5
				c0-0.1,0-0.2,0-0.3c0-0.5-0.1-0.8-0.3-1c-0.2-0.2-0.5-0.3-0.9-0.3c-0.5,0-0.9,0.2-1.3,0.5c-0.3,0.3-0.5,0.8-0.5,1.4l-0.3,3.3
				h-0.7l0.3-4.1c0-0.5,0-0.9,0-1.1c0-0.2,0-0.3,0-0.4h0.6l0,1c0.2-0.4,0.4-0.6,0.7-0.8c0.3-0.2,0.7-0.3,1.1-0.3
				c0.9,0,1.5,0.4,1.7,1.1c0.2-0.3,0.5-0.6,0.8-0.8c0.3-0.2,0.7-0.3,1.2-0.3C154.4,91.5,154.8,91.6,155.1,91.9z"/>
			<path class="st7" d="M165,91.9c0.3,0.3,0.5,0.8,0.5,1.4c0,0.2,0,0.3,0,0.4l-0.3,3.6h-0.7l0.3-3.5c0-0.1,0-0.2,0-0.3
				c0-0.5-0.1-0.8-0.3-1c-0.2-0.2-0.5-0.3-0.9-0.3c-0.5,0-0.9,0.2-1.3,0.5c-0.3,0.3-0.5,0.8-0.5,1.4l-0.3,3.3h-0.7l0.3-3.5
				c0-0.1,0-0.2,0-0.3c0-0.5-0.1-0.8-0.3-1c-0.2-0.2-0.5-0.3-0.9-0.3c-0.5,0-0.9,0.2-1.3,0.5c-0.3,0.3-0.5,0.8-0.5,1.4l-0.3,3.3
				h-0.7l0.3-4.1c0-0.5,0-0.9,0-1.1c0-0.2,0-0.3,0-0.4h0.6l0,1c0.2-0.4,0.4-0.6,0.7-0.8c0.3-0.2,0.7-0.3,1.1-0.3
				c0.9,0,1.5,0.4,1.7,1.1c0.2-0.3,0.5-0.6,0.8-0.8c0.3-0.2,0.7-0.3,1.2-0.3C164.2,91.5,164.6,91.6,165,91.9z"/>
			<path class="st7" d="M167.6,94.4c0,0.1,0,0.2,0,0.3c0,0.7,0.2,1.2,0.5,1.5c0.3,0.4,0.8,0.6,1.4,0.6c0.3,0,0.7-0.1,1-0.2
				c0.3-0.1,0.6-0.3,0.9-0.5l0.2,0.5c-0.2,0.2-0.5,0.4-0.9,0.5c-0.4,0.1-0.8,0.2-1.2,0.2c-0.8,0-1.4-0.2-1.9-0.7
				c-0.5-0.5-0.7-1.2-0.7-2c0-0.6,0.1-1.2,0.3-1.6s0.5-0.8,1-1.1c0.4-0.3,0.9-0.4,1.5-0.4c0.7,0,1.3,0.2,1.7,0.6
				c0.4,0.4,0.6,1,0.6,1.8c0,0.2,0,0.3,0,0.5H167.6z M168.3,92.5c-0.3,0.3-0.6,0.8-0.7,1.3h3.7c0-0.6-0.1-1-0.4-1.3
				c-0.3-0.3-0.7-0.5-1.2-0.5C169.1,92,168.6,92.2,168.3,92.5z"/>
			<path class="st7" d="M177.6,92c0.3,0.3,0.5,0.8,0.5,1.4c0,0.1,0,0.2,0,0.3l-0.3,3.6h-0.7l0.3-3.5c0-0.1,0-0.2,0-0.3
				c0-0.5-0.1-0.8-0.3-1.1s-0.6-0.3-1-0.3c-0.6,0-1,0.2-1.4,0.5c-0.3,0.3-0.5,0.8-0.6,1.4l-0.3,3.3h-0.7l0.3-4.1c0-0.3,0-0.7,0-1.1
				c0-0.2,0-0.4,0-0.5h0.6l0,1c0.2-0.4,0.5-0.6,0.8-0.8c0.3-0.2,0.7-0.3,1.2-0.3C176.7,91.5,177.2,91.6,177.6,92z"/>
			<path class="st7" d="M185.1,89l-0.7,8.3h-0.7l0.1-1c-0.2,0.3-0.4,0.6-0.8,0.8s-0.7,0.3-1.1,0.3c-0.5,0-0.9-0.1-1.3-0.3
				c-0.4-0.2-0.6-0.5-0.8-1c-0.2-0.4-0.3-0.9-0.3-1.4c0-0.6,0.1-1.2,0.3-1.7s0.5-0.8,0.9-1.1c0.4-0.3,0.9-0.4,1.4-0.4
				c0.5,0,0.9,0.1,1.2,0.3s0.6,0.5,0.8,0.9l0.3-3.7H185.1z M183.5,96.1c0.4-0.5,0.5-1.1,0.5-1.9c0-0.7-0.2-1.2-0.5-1.6
				c-0.3-0.4-0.8-0.5-1.4-0.5c-0.6,0-1.1,0.2-1.4,0.7s-0.5,1.1-0.5,1.9c0,0.7,0.2,1.2,0.5,1.6c0.3,0.4,0.8,0.6,1.4,0.6
				C182.6,96.8,183.1,96.5,183.5,96.1z"/>
			<path class="st7" d="M186.9,94.4c0,0.1,0,0.2,0,0.3c0,0.7,0.2,1.2,0.5,1.5c0.3,0.4,0.8,0.6,1.4,0.6c0.3,0,0.7-0.1,1-0.2
				c0.3-0.1,0.6-0.3,0.9-0.5l0.2,0.5c-0.2,0.2-0.5,0.4-0.9,0.5c-0.4,0.1-0.8,0.2-1.2,0.2c-0.8,0-1.4-0.2-1.9-0.7
				c-0.5-0.5-0.7-1.2-0.7-2c0-0.6,0.1-1.2,0.3-1.6s0.5-0.8,1-1.1c0.4-0.3,0.9-0.4,1.5-0.4c0.7,0,1.3,0.2,1.7,0.6
				c0.4,0.4,0.6,1,0.6,1.8c0,0.2,0,0.3,0,0.5H186.9z M187.6,92.5c-0.3,0.3-0.6,0.8-0.7,1.3h3.7c0-0.6-0.1-1-0.4-1.3
				c-0.3-0.3-0.7-0.5-1.2-0.5C188.4,92,188,92.2,187.6,92.5z"/>
			<path class="st7" d="M197.9,89l-0.7,8.3h-0.7l0.1-1c-0.2,0.3-0.4,0.6-0.8,0.8s-0.7,0.3-1.1,0.3c-0.5,0-0.9-0.1-1.3-0.3
				c-0.4-0.2-0.6-0.5-0.8-1c-0.2-0.4-0.3-0.9-0.3-1.4c0-0.6,0.1-1.2,0.3-1.7s0.5-0.8,0.9-1.1c0.4-0.3,0.9-0.4,1.4-0.4
				c0.5,0,0.9,0.1,1.2,0.3s0.6,0.5,0.8,0.9l0.3-3.7H197.9z M196.3,96.1c0.4-0.5,0.5-1.1,0.5-1.9c0-0.7-0.2-1.2-0.5-1.6
				c-0.3-0.4-0.8-0.5-1.4-0.5c-0.6,0-1.1,0.2-1.4,0.7s-0.5,1.1-0.5,1.9c0,0.7,0.2,1.2,0.5,1.6c0.3,0.4,0.8,0.6,1.4,0.6
				C195.5,96.8,195.9,96.5,196.3,96.1z"/>
			<path class="st7" d="M198.4,99.3c0.5-0.9,0.8-1.8,1.1-2.6s0.4-1.6,0.5-2.5c0-0.3,0-0.6,0-0.9c0-1.3-0.2-2.7-0.7-4.1h0.6
				c0.6,1.3,0.8,2.7,0.8,4.1c0,0.3,0,0.6,0,0.9c-0.1,0.9-0.2,1.7-0.5,2.6s-0.6,1.7-1.1,2.5H198.4z"/>
		</g>
		<rect x="30.8" y="121.4" class="st1" width="0.8" height="59.5"/>
		<g>
			<g>
				<circle class="st1" cx="31.2" cy="121.4" r="9.8"/>
			</g>
			<g>
				<path class="st4" d="M33.2,118.8c-0.3,0-0.5-0.2-0.5-0.5V115h-5c-0.7,0-1.3,0.6-1.3,1.3v10.2c0,0.7,0.6,1.3,1.3,1.3h7.4
					c0.7,0,1.3-0.6,1.3-1.3v-7.8H33.2z"/>
			</g>
			<path class="st10" d="M33.2,118.8h3.2l-3.7-3.7v3.2C32.8,118.5,33,118.7,33.2,118.8z"/>
			<polygon class="st2" points="36.5,121.4 36.5,118.8 33.2,118.8 			"/>
		</g>
		<g>
			<g id="g56755_3_" transform="matrix(14,0,0,14,49637.042,519374.88)">
				<path id="path56757_3_" class="st9" d="M-3542.6-37084.1c0,0.4-0.3,0.7-0.7,0.7l0,0c-0.4,0-0.7-0.3-0.7-0.7l0,0
					c0-0.4,0.3-0.7,0.7-0.7l0,0C-3542.9-37084.8-3542.6-37084.5-3542.6-37084.1L-3542.6-37084.1z"/>
			</g>
			<path id="path53460_3_" class="st12" d="M35.8,193c-2.7,1.3-4.1,4-5.4,6.5l-1.8-1.8c-0.9,0.7-1.9,1.2-2.8,1.8l7.6,7.6
				c4.2-1,7.3-4.6,7.6-8.9L35.8,193z"/>
			<path id="path38606_3_" class="st4" d="M28.5,197.6c0.5,0.7,1,1.6,1.4,2.6c1.4-2.7,2.9-5.8,5.8-7.3c-0.3,1.3-0.5,2.8-0.1,4
				c-2.5,1.3-4.2,3.6-5.7,6c-1.6-2.1-2.8-2.9-4.3-3.6C26.6,198.9,27.6,198.3,28.5,197.6L28.5,197.6z"/>
		</g>
	</g>
</g>
</svg>
