<svg xmlns="http://www.w3.org/2000/svg" width="116.863" height="103.84" viewBox="0 0 116.863 103.84">
  <g id="Group_8231" data-name="Group 8231" transform="translate(-142 -4802)">
    <path id="Path_21670" data-name="Path 21670" d="M0,0H112.6V80.627L57.333,98.156,0,80.627Z" transform="translate(146.263 4807.684)" fill="#162e51"/>
    <path id="Path_21669" data-name="Path 21669" d="M0,0H112.6V80.627L57.333,98.156,0,80.627Z" transform="translate(142 4802)" fill="#f2f2f2"/>
    <g id="Group_8140" data-name="Group 8140" transform="translate(157.943 4820.994)">
      <path id="Path_21671" data-name="Path 21671" d="M542.735,881.076a17.752,17.752,0,0,1-14.543-7.041c-3.714-4.683-5.588-10.949-5.588-18.608,0-7.643,1.885-13.909,5.625-18.612a18.525,18.525,0,0,1,29.119-.02c3.716,4.7,5.6,10.969,5.6,18.632,0,7.629-1.9,13.895-5.636,18.588a17.8,17.8,0,0,1-14.579,7.06Zm.062-40.055c-1.6,0-2.636.825-3.352,2.624-.62,1.591-1.367,4.9-1.367,11.784s.742,10.2,1.351,11.763c.71,1.805,1.729,2.6,3.306,2.6,1.611,0,2.648-.814,3.368-2.624.624-1.561,1.355-4.867,1.355-11.739,0-6.916-.72-10.233-1.333-11.813-.7-1.789-1.725-2.594-3.328-2.594Zm38.434,40.055c-5.547,0-10.066-1.2-13.378-3.582a12.912,12.912,0,0,1-5.53-10.893,10.839,10.839,0,0,1,2.582-7.477,8.325,8.325,0,0,1,6.436-2.82,7.6,7.6,0,0,1,5.6,2.3,8.6,8.6,0,0,1,2.458,6.2,8.017,8.017,0,0,1-1.649,5.087,12.566,12.566,0,0,0,1.585.084c2.409,0,4.219-.542,5.391-1.627a5.184,5.184,0,0,0,1.5-4.124c0-1.933-.674-2.7-1.271-3.136-.784-.59-2.46-1.3-5.878-1.3a2.271,2.271,0,0,1-2.037-2.454v-5.667a8.5,8.5,0,0,1-11-.71,9.558,9.558,0,0,1-2.361-6.738,12.96,12.96,0,0,1,5.385-10.837c3.25-2.405,7.641-3.648,13.058-3.648,6.008,0,10.571,1.125,13.933,3.4A12.542,12.542,0,0,1,601.626,844a11.515,11.515,0,0,1-4.507,9.518,14.026,14.026,0,0,1,2.946,2.379,12.445,12.445,0,0,1,3.252,8.774c0,5.391-2.125,9.708-6.132,12.508-3.75,2.628-8.974,3.9-15.954,3.9Zm-2.844-40.484a7.451,7.451,0,0,1,1.443,4.649,9.252,9.252,0,0,1-.678,3.572c2.876-.172,4.313-.862,5.011-1.4a2.919,2.919,0,0,0,1.115-2.562,3.427,3.427,0,0,0-1.311-2.894,7.386,7.386,0,0,0-4.815-1.385c-.266,0-.524,0-.764.024Z" transform="translate(-522.604 -829.73)" fill="#fff"/>
      <path id="Path_21672" data-name="Path 21672" d="M523.552,854.195q0-10.471,5.057-16.843a16.925,16.925,0,0,1,26.461-.02q5.022,6.358,5.027,16.863,0,10.465-5.053,16.815a16.964,16.964,0,0,1-26.473.02Q523.549,864.707,523.552,854.195Zm11.679,0q0,8.94,1.551,12.886c1.031,2.63,2.7,3.948,5,3.948q3.479,0,5.057-3.958t1.573-12.876c0-5.978-.516-10.276-1.545-12.924s-2.7-3.954-5.023-3.954-4,1.331-5.043,3.974S535.231,848.247,535.231,854.195Zm42.893,1.9v-6.044c2.778-.142,4.845-.753,6.2-1.813a5.541,5.541,0,0,0,2.035-4.627,5.994,5.994,0,0,0-2.205-4.929,9.02,9.02,0,0,0-5.964-1.819,10.7,10.7,0,0,0-3.692.6,8.289,8.289,0,0,0-2.954,1.867h.6a4.676,4.676,0,0,1,3.422,1.251,4.615,4.615,0,0,1,1.275,3.422,5.5,5.5,0,0,1-1.585,4.111,5.854,5.854,0,0,1-4.239,1.547,6,6,0,0,1-4.579-1.779,6.874,6.874,0,0,1-1.667-4.905,10.32,10.32,0,0,1,4.407-8.744q4.425-3.281,12-3.276,8.393,0,12.932,3.076a9.953,9.953,0,0,1,4.529,8.727,8.992,8.992,0,0,1-2.3,6.28,10.88,10.88,0,0,1-6.36,3.286,16.041,16.041,0,0,1,7.781,4.165,9.771,9.771,0,0,1,2.57,6.94q0,6.823-5.109,10.389t-14.934,3.564q-7.814,0-12.336-3.258a10.227,10.227,0,0,1-4.531-8.764,8.225,8.225,0,0,1,1.929-5.678,6.494,6.494,0,0,1,5.047-2.159,5.889,5.889,0,0,1,6.022,6.038,5.092,5.092,0,0,1-1.475,3.824,5.553,5.553,0,0,1-4.014,1.425,9.665,9.665,0,0,0,3.264,1.805,13.707,13.707,0,0,0,4.2.57c2.862,0,5.081-.7,6.62-2.119a7.847,7.847,0,0,0,2.321-6.086,6.1,6.1,0,0,0-2.236-5.229C583.6,856.65,581.286,856.1,578.124,856.1Z" transform="translate(-521.655 -828.497)" fill="#0a90b7"/>
      <path id="Path_21673" data-name="Path 21673" d="M572.1,840.216l.721-.871a3.983,3.983,0,0,1,.828,2.632,4.825,4.825,0,0,1-1.389,3.632,5.4,5.4,0,0,1-3.916,1.415A5.571,5.571,0,0,1,564.1,845.4l.727-.877a4.712,4.712,0,0,0,3.518,1.265,4.469,4.469,0,0,0,3.272-1.143,3.468,3.468,0,0,0,1.021-2.666A2.613,2.613,0,0,0,572.1,840.216Zm22.336.518a6.856,6.856,0,0,1-1.805,4.909,9.5,9.5,0,0,1-5.564,2.83,1.76,1.76,0,0,0-1.3,1.749,2.046,2.046,0,0,0,.5,1.4l.722-.848a.7.7,0,0,1-.2-.5.584.584,0,0,1,.436-.59,10.432,10.432,0,0,0,6.1-3.13,8.248,8.248,0,0,0,2.139-5.826,9.369,9.369,0,0,0-2.189-6.328l-.714.867A8.016,8.016,0,0,1,594.437,840.734ZM583.22,854.17a11.464,11.464,0,0,0-6.238-1.913h0l-1.017,1.2h0c2.986.046,5.237.636,6.72,1.745a6.715,6.715,0,0,1,.931.883l.71-.873A6.579,6.579,0,0,0,583.22,854.17Zm-11.013,7.367a3.018,3.018,0,0,1-.9,2.382,4.222,4.222,0,0,1-3.058,1.011,1.586,1.586,0,0,0-1.463,1.291,2.118,2.118,0,0,0,.354,1.819l.713-.873a.749.749,0,0,1-.1-.572.538.538,0,0,1,.5-.428,5.163,5.163,0,0,0,3.7-1.283,4.431,4.431,0,0,0,1.279-3.346,5.13,5.13,0,0,0-1.2-3.43l-.729.858A3.8,3.8,0,0,1,572.207,861.537Zm23-6.076-.714.877a7.829,7.829,0,0,1,1.635,5.067c0,3.928-1.385,6.718-4.347,8.794-3.158,2.187-7.917,3.306-14.169,3.306-4.9,0-8.8-.995-11.559-2.982a10.369,10.369,0,0,1-1.985-1.853l-.716.857a11.47,11.47,0,0,0,2.185,2.057c2.922,2.093,6.987,3.162,12.076,3.162,6.432,0,11.371-1.177,14.671-3.488,3.28-2.281,4.865-5.505,4.865-9.852A9.169,9.169,0,0,0,595.2,855.461ZM582.345,835.12a10.411,10.411,0,0,0-6.824-2.129,11.934,11.934,0,0,0-4.131.68,10.124,10.124,0,0,0-3.472,2.177,2.1,2.1,0,0,0-.494,2.055,1.934,1.934,0,0,0,.368.666l.71-.858a.522.522,0,0,1-.114-.22.7.7,0,0,1,.168-.676,8.99,8.99,0,0,1,3.128-1.971,11.04,11.04,0,0,1,3.836-.63,9.654,9.654,0,0,1,6.258,1.921,7.232,7.232,0,0,1,.907.917l.722-.857A7.709,7.709,0,0,0,582.345,835.12Zm-47.464,32.354-.666.88a9.551,9.551,0,0,1-1.363-2.452c-1.167-2.93-1.725-7.427-1.725-13.741s.57-10.795,1.729-13.745c1.283-3.262,3.476-4.985,6.318-4.985A5.963,5.963,0,0,1,544,835.819l-.67.865a5.083,5.083,0,0,0-4.159-2.015c-2.491,0-4.343,1.447-5.469,4.313-1.093,2.758-1.629,7.071-1.629,13.182s.524,10.427,1.611,13.168A8.922,8.922,0,0,0,534.881,867.475Zm17.339-31.522-.67.885c2.944,3.848,4.441,8.988,4.441,15.326,0,6.428-1.553,11.631-4.619,15.494a15.776,15.776,0,0,1-24.483.022v-.01l-.666.859c.008.01.008.03.01.03a16.545,16.545,0,0,0,25.8-.03c3.26-4.081,4.909-9.6,4.909-16.364C556.943,845.489,555.354,840.034,552.22,835.953Z" transform="translate(-518.981 -826.465)" fill="#fff" opacity="0.494"/>
    </g>
  </g>
</svg>
