<?xml version="1.0" encoding="utf-8"?>
<!-- Generator: Adobe Illustrator 24.2.3, SVG Export Plug-In . SVG Version: 6.00 Build 0)  -->
<svg version="1.1" xmlns="http://www.w3.org/2000/svg" xmlns:xlink="http://www.w3.org/1999/xlink" x="0px" y="0px"
	 viewBox="0 0 450 525.7" style="enable-background:new 0 0 450 525.7;" xml:space="preserve">
<style type="text/css">
	.st0{opacity:0.46;fill:#FFFFFF;}
	.st1{fill:#F2F2F2;}
	.st2{fill:#0A90B7;}
	.st3{fill:#1294C2;}
	.st4{fill:#FFFFFF;}
	.st5{fill:#A6D7E5;}
	.st6{opacity:0.46;fill:#209ABD;}
	.st7{opacity:0.6;fill:#0A90B7;}
	.st8{fill:none;stroke:#0A90B7;stroke-width:0.75;stroke-miterlimit:10;}
	.st9{fill:#757575;}
	.st10{fill:none;stroke:#FFFFFF;stroke-width:2;stroke-linecap:round;}
	.st11{fill:#C71F25;}
	.st12{opacity:0.1;enable-background:new    ;}
	.st13{opacity:0.55;}
	.st14{fill:#D8D8D8;}
	.st15{opacity:0.55;fill:#F2F2F2;}
	.st16{opacity:0.55;fill:none;stroke:#0A90B7;stroke-width:0.75;stroke-miterlimit:10;}
	.st17{fill:#A00A0F;}
	.st18{fill:none;}
	.st19{fill:#444444;}
	.st20{font-family:'Muli-Light';}
	.st21{font-size:15.0404px;}
	.st22{letter-spacing:24;}
	.st23{font-family:'Montserrat-Medium';}
	.st24{font-size:16.9205px;}
	.st25{font-family:'Montserrat-SemiBold';}
	.st26{font-size:17.4847px;}
	.st27{fill:#0A90B7;stroke:#0A90B7;stroke-width:0.25;stroke-miterlimit:10;}
	.st28{font-family:'Muli-Black';}
	.st29{font-size:18.1596px;}
	.st30{letter-spacing:19;}
	.st31{letter-spacing:29;}
	.st32{font-size:20.4296px;}
</style>
<g id="Layer_6">
</g>
<g id="Shapes">
</g>
<g id="background">
</g>
<g id="text">
</g>
<g id="Graphics">
</g>
<g id="Layer_5">
	<rect x="14.3" class="st0" width="421.9" height="525.5"/>
	<path id="Path_7616_2_" class="st2" d="M415.7,61.5h-330V16.3h330l9.9,22.6L415.7,61.5z"/>
	<rect x="30.5" y="16.3" class="st1" width="55.2" height="45.2"/>
	<rect x="36.7" y="79.8" class="st15" width="372.7" height="113.9"/>
	<g class="st13">
		<rect x="70" y="137.8" class="st18" width="298.6" height="34"/>
		<text transform="matrix(1 0 0 1 70.0068 148.834)"><tspan x="0" y="0" class="st19 st20 st21 st22">	</tspan><tspan x="28.2" y="0" class="st19 st20 st21">Security Authorization Package (SSP, </tspan><tspan x="28.2" y="18.8" class="st19 st20 st21">SAP, SAR, POA&amp;M)*</tspan></text>
	</g>
	<g class="st13">
		<rect x="61.8" y="102.8" class="st18" width="223.9" height="19.4"/>
		<text transform="matrix(1 0 0 1 61.7949 117.1743)" class="st2 st23 st24">Full Security Assessment</text>
	</g>
	<text transform="matrix(1 0 0 1 103.3447 45.1636)" class="st4 st25 st26">Authorization</text>
	<g class="st13">
		<path id="Path_1554_1_" class="st9" d="M228,217.1c0,6.3-5.1,11.4-11.4,11.4s-11.4-5.1-11.4-11.4c0-6.3,5.1-11.4,11.4-11.4
			S228,210.8,228,217.1z"/>
		<g id="Group_1434_1_" transform="translate(4.574 4.222)">
			<g id="arrow_1_" transform="translate(4.574 0)">
				<path id="arrow-2_1_" class="st4" d="M207.6,219.7c-0.3,0-0.6-0.1-0.9-0.4l-5-4.8c-0.5-0.4-0.5-1.2-0.1-1.6c0,0,0-0.1,0.1-0.1
					c0.5-0.5,1.3-0.5,1.7,0c0,0,0,0,0,0l4.1,4l4.1-4c0.5-0.5,1.3-0.5,1.7,0c0,0,0,0,0,0c0.5,0.4,0.5,1.2,0.1,1.6c0,0,0,0-0.1,0.1
					l-5,4.8C208.2,219.6,207.9,219.7,207.6,219.7z"/>
			</g>
			<path id="Path_1968_1_" class="st10" d="M212,217.1V207"/>
		</g>
	</g>
	<g class="st13">
		<g>
			<circle class="st2" cx="73.7" cy="145.9" r="11.4"/>
		</g>
		<g>
			<path class="st4" d="M76.1,142.8c-0.3,0-0.6-0.3-0.6-0.6v-3.7h-5.8c-0.8,0-1.5,0.7-1.5,1.5v11.9c0,0.8,0.7,1.5,1.5,1.5h8.7
				c0.8,0,1.5-0.7,1.5-1.5v-9H76.1z"/>
		</g>
		<path class="st5" d="M76,142.8h3.8l-4.3-4.3v3.8C75.5,142.6,75.7,142.8,76,142.8z"/>
		<polygon class="st1" points="79.8,145.9 79.8,142.9 76,142.9 		"/>
	</g>
	<g>
		<path class="st4" d="M69.5,50.3c-1,0-2.1-0.3-3.5-0.9l-0.3-0.1l-0.2-0.1c-0.6-0.2-1.1-0.4-1.5-0.5c-0.3-0.1-0.6-0.2-0.8-0.2
			c-0.2,0-0.4,0.1-0.6,0.2c-0.1,0.1-0.3,0.3-0.3,0.5c-0.1,0.4-0.4,0.6-0.8,0.6H59c-0.4,0-0.8-0.4-0.9-0.9c0-0.2,0-0.4-0.1-0.6
			c0-0.1,0-0.4,0-0.7c0-1.4,0.3-2.7,0.8-3.8c0.5-1.1,1.3-2.2,2.3-3.2c0.3-0.3,0.8-0.7,1.3-1c-0.1,0-0.3,0-0.4,0
			c-1.2,0-2.1-0.4-2.9-1.2c-0.7-0.8-1.1-2-1.1-3.4c0-2.2,0.9-4,2.6-5.4c1.6-1.3,3.6-2,6-2c2.5,0,4.6,0.7,6.1,2
			c1.7,1.4,2.5,3.3,2.5,5.6c0,1.8-0.5,3.3-1.6,4.6c-0.3,0.4-0.7,0.7-1.1,1h2.3c0.5,0,0.8,0.4,0.9,1c0,0.2,0,0.3,0,0.5
			c0,0.2,0,0.4,0,0.7c0,2.4-0.5,4.3-1.6,5.5C73.1,49.7,71.5,50.3,69.5,50.3L69.5,50.3z M67.6,42.8c0.4,0.1,0.7,0.1,1.1,0.2
			c1.3,0.3,1.6,0.3,1.7,0.3c0.2,0,0.5,0,0.6-0.2c0.1-0.1,0.2-0.4,0.2-1.4c0-0.1,0-0.2,0-0.3c-0.6,0.4-1.4,0.7-2.2,0.9
			c-0.2,0.1-0.6,0.2-1.1,0.3C68,42.7,67.8,42.7,67.6,42.8L67.6,42.8z M64,32.8c0.3,0.1,0.5,0.3,0.7,0.6c0.6,0.6,0.9,1.4,0.9,2.4
			c0,0.7-0.2,1.4-0.5,2c0.3-0.2,0.6-0.4,0.8-0.5c1-0.7,1.4-1.2,1.6-1.5c0.2-0.3,0.3-0.8,0.3-1.2c0-0.6-0.2-1-0.6-1.3
			c-0.5-0.4-1.2-0.6-2-0.6C64.7,32.6,64.3,32.6,64,32.8L64,32.8z M49.3,50.3c-2.6,0-4.7-1.1-6.3-3.1c-1.6-2.1-2.4-4.9-2.4-8.3
			c0-3.4,0.8-6.2,2.4-8.3c1.6-2.1,3.7-3.1,6.3-3.1c2.6,0,4.7,1.1,6.3,3.1c1.6,2.1,2.4,4.9,2.4,8.3c0,3.4-0.8,6.2-2.4,8.3
			C54,49.2,51.9,50.3,49.3,50.3L49.3,50.3z M49.4,32.5c-0.7,0-1.1,0.4-1.4,1.2c-0.3,0.7-0.6,2.2-0.6,5.2c0,3.1,0.3,4.5,0.6,5.2
			c0.3,0.8,0.7,1.2,1.4,1.2c0.7,0,1.1-0.4,1.5-1.2c0.3-0.7,0.6-2.2,0.6-5.2c0-3.1-0.3-4.5-0.6-5.3C50.5,32.8,50,32.5,49.4,32.5
			L49.4,32.5z"/>
		<path class="st2" d="M59,48.6c0-0.1,0-0.3,0-0.4c0-0.1,0-0.4,0-0.7c0-1.2,0.2-2.3,0.7-3.3c0.4-1,1.2-2,2.1-2.9
			c0.7-0.6,1.7-1.4,3.2-2.3c0.6-0.4,1.1-0.7,1.4-0.9c0.9-0.6,1.5-1.2,1.9-1.7c0.3-0.5,0.5-1.2,0.5-1.9c0-0.9-0.3-1.7-0.9-2.2
			c-0.6-0.6-1.5-0.8-2.5-0.8c-0.9,0-1.6,0.2-2.2,0.6c-0.6,0.4-1,0.9-1.3,1.6c0.2,0,0.3-0.1,0.5-0.1c0.2,0,0.3,0,0.4,0
			c0.6,0,1.1,0.2,1.5,0.6c0.4,0.4,0.6,0.9,0.6,1.6c0,0.7-0.3,1.4-0.8,1.9c-0.5,0.5-1.2,0.8-1.9,0.8c-0.9,0-1.7-0.3-2.3-1
			c-0.6-0.6-0.8-1.5-0.8-2.6c0-1.8,0.7-3.3,2.2-4.5c1.4-1.2,3.3-1.8,5.5-1.8c2.4,0,4.2,0.6,5.6,1.8c1.4,1.2,2.1,2.7,2.1,4.7
			c0,1.5-0.5,2.7-1.4,3.8c-0.9,1-2.2,1.9-4,2.4c-0.2,0.1-0.6,0.2-1,0.3c-2.9,0.9-4.7,2-5.5,3.2c0.6-0.4,1.2-0.6,1.8-0.8
			c0.6-0.2,1.2-0.3,1.9-0.3c0.7,0,1.6,0.1,2.5,0.4c1,0.2,1.6,0.3,1.9,0.3c0.6,0,1-0.2,1.3-0.6c0.3-0.4,0.4-1.1,0.4-2.1h2.6
			c0,0.2,0,0.3,0,0.5c0,0.2,0,0.4,0,0.7c0,2.1-0.4,3.7-1.3,4.7c-0.9,1-2.2,1.5-4,1.5c-0.9,0-1.9-0.3-3.2-0.9
			c-0.2-0.1-0.4-0.2-0.5-0.2c-0.7-0.3-1.2-0.5-1.6-0.6c-0.4-0.1-0.7-0.2-1-0.2c-0.4,0-0.7,0.1-1,0.3c-0.3,0.2-0.5,0.5-0.7,0.9H59z
			 M41.4,38.9c0-3.1,0.7-5.6,2.2-7.5c1.5-1.9,3.4-2.8,5.7-2.8c2.4,0,4.3,0.9,5.7,2.8c1.4,1.9,2.2,4.4,2.2,7.5c0,3.1-0.7,5.6-2.2,7.5
			c-1.5,1.9-3.4,2.8-5.7,2.8c-2.4,0-4.3-0.9-5.7-2.8C42.2,44.5,41.4,42,41.4,38.9z M46.5,38.9c0,2.6,0.2,4.6,0.7,5.7
			c0.4,1.2,1.2,1.8,2.2,1.8c1,0,1.7-0.6,2.2-1.8c0.5-1.2,0.7-3.1,0.7-5.7c0-2.7-0.2-4.6-0.7-5.7c-0.4-1.2-1.2-1.8-2.2-1.8
			c-1,0-1.7,0.6-2.2,1.8C46.7,34.3,46.5,36.2,46.5,38.9z"/>
		<path class="st5" d="M47.5,45.7l-0.3,0.4c-0.2-0.3-0.4-0.7-0.6-1.1c-0.5-1.3-0.7-3.3-0.7-6.1c0-2.8,0.2-4.8,0.7-6.1
			c0.6-1.4,1.5-2.2,2.7-2.2c0.8,0,1.5,0.4,2.1,1.1L51.1,32c-0.5-0.6-1.1-0.9-1.8-0.9c-1.1,0-1.9,0.6-2.4,1.9
			c-0.5,1.2-0.7,3.1-0.7,5.9c0,2.7,0.2,4.6,0.7,5.9C47.1,45.1,47.3,45.4,47.5,45.7z M55,31.7l-0.3,0.4c1.3,1.7,1.9,4,1.9,6.8
			c0,2.9-0.7,5.2-2,6.9c-1.3,1.7-3.1,2.6-5.3,2.6c-2.2,0-4-0.9-5.3-2.6v0l-0.3,0.4c0,0,0,0,0,0c1.4,1.8,3.3,2.7,5.6,2.7
			c2.3,0,4.2-0.9,5.6-2.8c1.4-1.8,2.1-4.3,2.1-7.3C57,35.9,56.3,33.5,55,31.7z M74.5,42.2c0-0.1,0-0.1,0-0.2l-0.4,0.5
			c0,0.1,0,0.2,0,0.4c0,1.9-0.4,3.3-1.1,4.2c-0.7,0.9-1.9,1.3-3.5,1.3c-0.8,0-1.8-0.3-3-0.8L66,47.3c-0.7-0.3-1.2-0.5-1.7-0.6
			c-0.5-0.1-0.8-0.2-1.2-0.2c-0.5,0-1,0.1-1.4,0.4c-0.3,0.2-0.5,0.5-0.7,0.8h-1.5l-0.4,0.5h2.1c0.2-0.4,0.4-0.7,0.7-0.9
			c0.3-0.2,0.7-0.3,1.1-0.3c0.3,0,0.7,0.1,1.1,0.2c0.4,0.1,1,0.3,1.6,0.6l0.5,0.2c1.3,0.6,2.3,0.8,3.2,0.8c1.7,0,3-0.5,3.8-1.5
			c0.8-1,1.2-2.5,1.2-4.6C74.6,42.6,74.5,42.3,74.5,42.2z M59.9,37.2c0.5,0.6,1.2,0.9,2.1,0.9c0.7,0,1.3-0.2,1.8-0.7
			c0.5-0.5,0.7-1,0.7-1.7c0-0.6-0.2-1-0.5-1.4l-0.3,0.4c0,0,0,0,0,0c0.2,0.2,0.3,0.6,0.3,1c0,0.5-0.2,0.9-0.5,1.2
			c-0.4,0.4-0.9,0.6-1.5,0.6c-0.8,0-1.4-0.2-1.8-0.7L59.9,37.2C59.9,37.2,59.9,37.2,59.9,37.2z M72.8,32.1
			C72.8,32.1,72.9,32.1,72.8,32.1c0.6,0.9,0.8,1.8,0.8,2.9c0,1.2-0.4,2.3-1.1,3.2c-0.8,0.9-2.1,1.7-3.7,2.2c-0.3,0.1-0.6,0.2-1,0.3
			c-3.1,1-5,2.1-5.9,3.5c-0.2,0.3-0.2,0.7,0,1l0.3-0.3c-0.1-0.1-0.1-0.2,0-0.3c0.8-1.3,2.7-2.4,5.7-3.3c0.4-0.1,0.8-0.2,1-0.3
			c1.7-0.6,3-1.4,3.9-2.4c0.9-1,1.3-2.2,1.3-3.6c0-1.3-0.3-2.4-1-3.3L72.8,32.1z M68.1,31.7c-0.7-0.7-1.7-1-2.9-1
			c-1,0-1.8,0.2-2.5,0.7c-0.7,0.5-1.2,1.1-1.5,2c-0.1,0.3-0.1,0.6,0.1,0.9l0.3-0.3c0-0.1-0.1-0.2,0-0.3c0.3-0.8,0.7-1.4,1.4-1.8
			c0.6-0.4,1.4-0.6,2.3-0.6c1.1,0,2,0.3,2.6,0.9L68.1,31.7C68.1,31.7,68.1,31.7,68.1,31.7z"/>
	</g>
	<rect x="14.3" class="st6" width="421.9" height="525.5"/>
	<g>
		<polygon class="st2" points="14.1,512.7 0,494.3 14.1,494.3 		"/>
		<polygon class="st2" points="435.9,512.7 450,494.3 435.9,494.3 		"/>
		<rect x="14.1" y="484.3" class="st7" width="421.9" height="17.4"/>
	</g>
	<g>
		<rect x="0.1" y="97.1" class="st4" width="449.9" height="397"/>
		<g>
			<rect x="40.2" y="164.7" class="st18" width="378.5" height="304.2"/>
			<text transform="matrix(1 0 0 1 40.2373 180.2051)"><tspan x="0" y="0" class="st27 st28 st29">•</tspan><tspan x="9.7" y="0" class="st19 st20 st29 st30">	</tspan><tspan x="34" y="0" class="st19 st20 st29">Agency Review of Security Authorization </tspan><tspan x="34" y="22.7" class="st19 st20 st29">Package</tspan><tspan x="0" y="56.7" class="st27 st28 st29">•</tspan><tspan x="9.7" y="56.7" class="st19 st20 st29 st30">	</tspan><tspan x="34" y="56.7" class="st19 st20 st29">SAR Debrief</tspan><tspan x="0" y="90.8" class="st27 st28 st29">•</tspan><tspan x="9.7" y="90.8" class="st19 st20 st29 st30">	</tspan><tspan x="34" y="90.8" class="st19 st20 st29">Remediation</tspan><tspan x="0" y="124.8" class="st27 st28 st29">•</tspan><tspan x="9.7" y="124.8" class="st19 st20 st29 st30">	</tspan><tspan x="34" y="124.8" class="st19 st20 st29">Agency Final Review</tspan><tspan x="0" y="158.9" class="st27 st28 st29">•</tspan><tspan x="9.7" y="158.9" class="st19 st20 st29 st30">	</tspan><tspan x="34" y="158.9" class="st19 st20 st29">Agency Issues ATO</tspan><tspan x="0" y="192.9" class="st27 st28 st29">•</tspan><tspan x="9.7" y="192.9" class="st19 st20 st29 st30">	</tspan><tspan x="34" y="192.9" class="st19 st20 st29">FedRAMP PMO Review</tspan><tspan x="0" y="227" class="st27 st28 st29">•</tspan><tspan x="9.7" y="227" class="st19 st20 st29 st30">	</tspan><tspan x="34" y="227" class="st19 st20 st29">Remediation (if needed)</tspan><tspan x="0" y="261" class="st19 st20 st29 st31">	</tspan><tspan x="34" y="261" class="st19 st20 st29">FedRAMP Marketplace Designation - </tspan><tspan x="34" y="283.7" class="st19 st20 st29">Authorized</tspan></text>
		</g>
		<g>
			<rect x="30.3" y="123.9" class="st18" width="325.9" height="23.4"/>
			<text transform="matrix(1 0 0 1 30.3213 141.2866)" class="st2 st23 st32">Agency Authorization Process</text>
		</g>
		<line class="st8" x1="44.7" y1="173.7" x2="44.7" y2="415.6"/>
		<g>
			<path class="st14" d="M57.6,445.4c0.6-1-0.4-2.6-0.1-3.7c0.3-1.1,2-2,2-3.2c0-1.2-1.7-2.1-2-3.2c-0.3-1.1,0.7-2.7,0.1-3.7
				c-0.6-1-2.5-0.9-3.3-1.7c-0.8-0.8-0.8-2.7-1.7-3.3c-1-0.6-2.6,0.4-3.7,0.1c-1.1-0.3-2-2-3.2-2c-1.2,0-2.1,1.7-3.2,2
				c-1.1,0.3-2.7-0.7-3.7-0.1c-1,0.6-0.9,2.5-1.7,3.3c-0.8,0.8-2.7,0.8-3.3,1.7c-0.6,1,0.4,2.6,0.1,3.7c-0.3,1.1-2,2-2,3.2
				c0,1.2,1.7,2.1,2,3.2c0.3,1.1-0.7,2.7-0.1,3.7c0.6,1,2.5,0.9,3.3,1.7c0.5,0.5,0.7,1.5,1,2.3l-4.4,9.2l5.9-1.4l3.1,5.2l3-8.2
				l3,8.2l3.1-5.2l5.9,1.4l-4.4-9.2c0.3-0.8,0.5-1.8,1-2.3C55.1,446.3,57,446.4,57.6,445.4z"/>
			<g>
				<g>
					<polygon class="st17" points="40.6,460.5 37.6,455.3 31.6,456.7 39.6,440.2 47,443.3 					"/>
					<polygon class="st17" points="46.7,460.5 49.8,455.3 55.7,456.7 47.7,440.2 40.3,443.3 					"/>
				</g>
				<path class="st11" d="M57.4,436.6c0,1.2-1.7,2.1-2,3.2c-0.3,1.1,0.7,2.7,0.1,3.7c-0.6,1-2.5,0.9-3.3,1.7
					c-0.8,0.8-0.8,2.7-1.7,3.3c-1,0.6-2.6-0.4-3.7-0.1c-1.1,0.3-2,2-3.2,2c-1.2,0-2.1-1.7-3.2-2c-1.1-0.3-2.7,0.7-3.7,0.1
					c-1-0.6-0.9-2.5-1.7-3.3c-0.8-0.8-2.7-0.8-3.3-1.7c-0.6-1,0.4-2.6,0.1-3.7c-0.3-1.1-2-2-2-3.2c0-1.2,1.7-2.1,2-3.2
					c0.3-1.1-0.7-2.7-0.1-3.7c0.6-1,2.5-0.9,3.3-1.7c0.8-0.8,0.8-2.7,1.7-3.3c1-0.6,2.6,0.4,3.7,0.1c1.1-0.3,2-2,3.2-2
					c1.2,0,2.1,1.7,3.2,2c1.1,0.3,2.7-0.7,3.7-0.1c1,0.6,0.9,2.5,1.7,3.3c0.8,0.8,2.7,0.8,3.3,1.7c0.6,1-0.4,2.6-0.1,3.7
					C55.7,434.5,57.4,435.4,57.4,436.6z"/>
				<g>
					<path class="st1" d="M51.5,436.6c0,4.3-3.5,7.8-7.8,7.8s-7.8-3.5-7.8-7.8s3.5-7.8,7.8-7.8S51.5,432.3,51.5,436.6"/>
					<path class="st4" d="M50.1,436.6c0,3.6-2.9,6.4-6.4,6.4s-6.4-2.9-6.4-6.4s2.9-6.4,6.4-6.4S50.1,433,50.1,436.6"/>
				</g>
			</g>
		</g>
	</g>
</g>
</svg>
