<?xml version="1.0" encoding="utf-8"?>
<!-- Generator: Adobe Illustrator 24.2.3, SVG Export Plug-In . SVG Version: 6.00 Build 0)  -->
<svg version="1.1" xmlns="http://www.w3.org/2000/svg" xmlns:xlink="http://www.w3.org/1999/xlink" x="0px" y="0px"
	 viewBox="0 0 648 966.7" style="enable-background:new 0 0 648 966.7;" xml:space="preserve">
<style type="text/css">
	.st0{fill:#FFFFFF;}
	.st1{fill:#0A90B7;}
	.st2{fill:#1294C2;}
	.st3{fill:#F2F2F2;}
	.st4{fill:none;}
	.st5{fill:#0A90B7;stroke:#0A90B7;stroke-width:0.25;stroke-miterlimit:10;}
	.st6{font-family:'Muli-Black';}
	.st7{font-size:16px;}
	.st8{fill:#444444;}
	.st9{font-family:'Muli-Light';}
	.st10{letter-spacing:17;}
	.st11{letter-spacing:25;}
	.st12{font-family:'Montserrat-Medium';}
	.st13{font-size:18px;}
	.st14{font-family:'Muli-LightItalic';}
	.st15{font-size:14px;}
	.st16{font-family:'Montserrat-SemiBold';}
	.st17{fill:none;stroke:#757575;stroke-width:0.25;stroke-miterlimit:10;}
	.st18{fill:none;stroke:#0A90B7;stroke-width:0.75;stroke-miterlimit:10;}
	.st19{fill:#757575;}
	.st20{fill:none;stroke:#FFFFFF;stroke-width:2;stroke-linecap:round;}
	.st21{fill:#A6D7E5;}
	.st22{fill:#D8D8D8;}
	.st23{fill:#A00A0F;}
	.st24{fill:#C71F25;}
	.st25{opacity:0.1;enable-background:new    ;}
</style>
<g id="Shapes">
	<rect y="313.7" class="st0" width="648" height="462.6"/>
	<path id="Path_7616_8_" class="st1" d="M624.6,388.1H73.9v-46.5h550.7l10.2,23.3L624.6,388.1z"/>
	<path id="Path_7616_7_" class="st1" d="M624.6,46.5H73.9V0h550.7l10.2,23.3L624.6,46.5z"/>
	<rect y="341.5" class="st3" width="73.9" height="46.5"/>
	<rect y="799.4" class="st0" width="73.9" height="46.5"/>
	<rect class="st0" width="73.9" height="46.5"/>
	<g>
		<polygon class="st1" points="78.3,802.7 78.3,842.7 578,842.7 578,841 578,837.1 590,844.4 578,851.7 578,846 75,846 75,799.4 
			108.1,799.4 626.8,799.4 637,822.7 626.8,846 597.8,846 597.8,842.7 624.2,842.7 624.8,841.7 632.3,823.4 632.7,822.7 
			632.3,822.1 624.8,803.7 624.2,802.7 		"/>
	</g>
</g>
<g id="background">
</g>
<g id="text">
	<g>
		<rect x="388" y="471.1" class="st4" width="230.8" height="268.1"/>
		<text transform="matrix(1 0 0 1 387.969 484.8156)"><tspan x="0" y="0" class="st5 st6 st7">•</tspan><tspan x="8.5" y="0" class="st8 st9 st7 st10">	</tspan><tspan x="30" y="0" class="st8 st9 st7">Agency Review of Security </tspan><tspan x="30" y="20" class="st8 st9 st7">Authorization Package</tspan><tspan x="0" y="50" class="st5 st6 st7">•</tspan><tspan x="8.5" y="50" class="st8 st9 st7 st10">	</tspan><tspan x="30" y="50" class="st8 st9 st7">SAR Debrief</tspan><tspan x="0" y="80" class="st5 st6 st7">•</tspan><tspan x="8.5" y="80" class="st8 st9 st7 st10">	</tspan><tspan x="30" y="80" class="st8 st9 st7">Remediation</tspan><tspan x="0" y="110" class="st5 st6 st7">•</tspan><tspan x="8.5" y="110" class="st8 st9 st7 st10">	</tspan><tspan x="30" y="110" class="st8 st9 st7">Agency Final Review</tspan><tspan x="0" y="140" class="st5 st6 st7">•</tspan><tspan x="8.5" y="140" class="st8 st9 st7 st10">	</tspan><tspan x="30" y="140" class="st8 st9 st7">Agency Issues ATO</tspan><tspan x="0" y="170" class="st5 st6 st7">•</tspan><tspan x="8.5" y="170" class="st8 st9 st7 st10">	</tspan><tspan x="30" y="170" class="st8 st9 st7">FedRAMP PMO Review</tspan><tspan x="0" y="200" class="st5 st6 st7">•</tspan><tspan x="8.5" y="200" class="st8 st9 st7 st10">	</tspan><tspan x="30" y="200" class="st8 st9 st7">Remediation (if needed)</tspan><tspan x="0" y="230" class="st8 st9 st7 st11">	</tspan><tspan x="30" y="230" class="st8 st9 st7">FedRAMP Marketplace </tspan><tspan x="30" y="250" class="st8 st9 st7">Designation - Authorized</tspan></text>
	</g>
	<g>
		<rect x="389.4" y="108.9" class="st4" width="229.4" height="128.1"/>
		<text transform="matrix(1 0 0 1 389.3562 122.6095)"><tspan x="0" y="0" class="st5 st6 st7">•</tspan><tspan x="8.5" y="0" class="st8 st9 st7 st10">	</tspan><tspan x="30" y="0" class="st8 st9 st7">Partnership Establishment</tspan><tspan x="0" y="30" class="st5 st6 st7">•</tspan><tspan x="8.5" y="30" class="st8 st9 st7 st10">	</tspan><tspan x="30" y="30" class="st8 st9 st7">Authorization Planning</tspan><tspan x="0" y="60" class="st5 st6 st7">•</tspan><tspan x="8.5" y="60" class="st8 st9 st7 st10">	</tspan><tspan x="30" y="60" class="st8 st9 st7">Kick-off Meeting</tspan><tspan x="0" y="90" class="st8 st9 st7 st11">	</tspan><tspan x="30" y="90" class="st8 st9 st7">FedRAMP Marketplace </tspan><tspan x="30" y="110" class="st8 st9 st7">Designation – In Process</tspan></text>
	</g>
	<g>
		<rect x="32.4" y="456.6" class="st4" width="229.9" height="56.1"/>
		<text transform="matrix(1 0 0 1 32.3835 468.3546)"><tspan x="0" y="0" class="st8 st9 st7 st11">	</tspan><tspan x="30" y="0" class="st8 st9 st7">Security Authorization </tspan><tspan x="30" y="20" class="st8 st9 st7">Package (SSP, SAP, SAR, </tspan><tspan x="30" y="40" class="st8 st9 st7">POA&amp;M)*</tspan></text>
	</g>
	<g>
		<rect x="32.4" y="137.4" class="st4" width="228.9" height="148.1"/>
		<text transform="matrix(1 0 0 1 32.3806 151.0468)"><tspan x="0" y="0" class="st8 st9 st7 st11">	</tspan><tspan x="30" y="0" class="st8 st9 st7">RAR Development</tspan><tspan x="0" y="30" class="st5 st6 st7">•</tspan><tspan x="8.5" y="30" class="st8 st9 st7 st10">	</tspan><tspan x="30" y="30" class="st8 st9 st7">FedRAMP PMO Review of </tspan><tspan x="30" y="50" class="st8 st9 st7">RAR</tspan><tspan x="0" y="80" class="st5 st6 st7">•</tspan><tspan x="8.5" y="80" class="st8 st9 st7 st10">	</tspan><tspan x="30" y="80" class="st8 st9 st7">Remediation (if needed)</tspan><tspan x="0" y="110" class="st8 st9 st7 st11">	</tspan><tspan x="30" y="110" class="st8 st9 st7">FedRAMP Marketplace </tspan><tspan x="30" y="130" class="st8 st9 st7">Designation – Ready</tspan></text>
	</g>
	<g>
		<rect x="22.1" y="877.6" class="st4" width="250.3" height="20"/>
		<text transform="matrix(1 0 0 1 22.1261 892.8542)" class="st1 st12 st13">Post Authorization</text>
	</g>
	<g>
		<rect x="32.4" y="915.4" class="st4" width="501.6" height="48.1"/>
		<text transform="matrix(1 0 0 1 32.3832 929.0676)"><tspan x="0" y="0" class="st8 st9 st7 st11">	</tspan><tspan x="30" y="0" class="st8 st9 st7">Ongoing Continuous Monitoring Deliverables</tspan><tspan x="0" y="30" class="st8 st9 st7 st11">	</tspan><tspan x="30" y="30" class="st8 st9 st7">Annual Assessment</tspan></text>
	</g>
	<g>
		<rect x="379.3" y="76.3" class="st4" width="170.3" height="20.6"/>
		<text transform="matrix(1 0 0 1 379.3123 91.5783)" class="st1 st12 st13">Pre-Authorization</text>
	</g>
	<g>
		<rect x="22.3" y="76.8" class="st4" width="217.8" height="49.8"/>
		<text transform="matrix(1 0 0 1 22.3298 92.0624)" class="st1 st12 st13">Readiness Assessment</text>
	</g>
	<g>
		<rect x="22.7" y="419.1" class="st4" width="238.2" height="20.6"/>
		<text transform="matrix(1 0 0 1 22.6601 434.3595)" class="st1 st12 st13">Full Security Assessment</text>
	</g>
	<g>
		<rect x="379.2" y="419.1" class="st4" width="252.1" height="37.4"/>
		<text transform="matrix(1 0 0 1 379.2317 434.359)"><tspan x="0" y="0" class="st1 st12 st13">Agency Authorization </tspan><tspan x="0" y="21.6" class="st1 st12 st13">Process</tspan></text>
	</g>
	<g>
		<rect x="20.9" y="581.8" class="st4" width="249.4" height="105.8"/>
		<text transform="matrix(1 0 0 1 20.8727 593.8018)"><tspan x="0" y="0" class="st8 st14 st15">* The full security assessment may  </tspan><tspan x="9.7" y="18" class="st8 st14 st15">be prepared in advance of the </tspan><tspan x="9.7" y="36" class="st8 st14 st15">authorization phase, or completed </tspan><tspan x="9.7" y="54" class="st8 st14 st15">during the authorization phase. This </tspan><tspan x="9.7" y="72" class="st8 st14 st15">is dependent on the agency&apos;s review </tspan><tspan x="9.7" y="90" class="st8 st14 st15">approach.</tspan></text>
	</g>
	<text transform="matrix(1 0 0 1 99.7065 29.728)" class="st0 st16 st13">Preparation</text>
	<text transform="matrix(1 0 0 1 100.0659 371.2739)" class="st0 st16 st13">Authorization</text>
	<text transform="matrix(1 0 0 1 99.7242 829.1218)" class="st1 st16 st13">Continuous Monitoring</text>
	<text transform="matrix(1 0 0 1 21.1501 115.6215)" class="st8 st14 st15">(Optional, but highly recommended)</text>
</g>
<g id="Graphics">
	<line class="st18" x1="34.7" y1="916.4" x2="34.7" y2="962.3"/>
	<g>
		<path id="Path_1554_7_" class="st19" d="M324,159.4c6.7,0,12.1,5.4,12.1,12.1c0,6.7-5.4,12.1-12.1,12.1s-12.1-5.4-12.1-12.1
			C311.9,164.9,317.3,159.4,324,159.4z"/>
		<g id="Group_1434_7_" transform="translate(4.574 4.222)">
			<g id="arrow_7_" transform="translate(4.574 0)">
				<path id="arrow-2_7_" class="st0" d="M322.1,167.2c0,0.3-0.1,0.7-0.4,0.9l-5.1,5.3c-0.5,0.5-1.2,0.5-1.7,0.1
					c0,0-0.1-0.1-0.1-0.1c-0.5-0.5-0.5-1.3,0-1.8c0,0,0,0,0,0l4.2-4.4l-4.2-4.4c-0.5-0.5-0.5-1.3,0-1.8c0,0,0,0,0,0
					c0.5-0.5,1.2-0.5,1.7-0.1c0,0,0.1,0,0.1,0.1l5.1,5.3C322,166.5,322.1,166.9,322.1,167.2z"/>
			</g>
			<path id="Path_1968_7_" class="st20" d="M323.9,167.3h-10.8"/>
		</g>
	</g>
	<g>
		<path id="Path_1554_6_" class="st19" d="M324,447.3c6.7,0,12.1,5.4,12.1,12.1c0,6.7-5.4,12.1-12.1,12.1s-12.1-5.4-12.1-12.1
			C311.9,452.7,317.3,447.3,324,447.3z"/>
		<g id="Group_1434_6_" transform="translate(4.574 4.222)">
			<g id="arrow_6_" transform="translate(4.574 0)">
				<path id="arrow-2_6_" class="st0" d="M322.1,455c0,0.3-0.1,0.7-0.4,0.9l-5.1,5.3c-0.5,0.5-1.2,0.5-1.7,0.1c0,0-0.1-0.1-0.1-0.1
					c-0.5-0.5-0.5-1.3,0-1.8c0,0,0,0,0,0l4.2-4.4l-4.2-4.4c-0.5-0.5-0.5-1.3,0-1.8c0,0,0,0,0,0c0.5-0.5,1.2-0.5,1.7-0.1
					c0,0,0.1,0,0.1,0.1l5.1,5.3C322,454.3,322.1,454.7,322.1,455z"/>
			</g>
			<path id="Path_1968_6_" class="st20" d="M323.9,455.1h-10.8"/>
		</g>
	</g>
	<line class="st18" x1="36.6" y1="145.5" x2="36.6" y2="242"/>
	<g>
		<g>
			<circle class="st1" cx="34.2" cy="922.8" r="12.1"/>
		</g>
		<g>
			<path class="st0" d="M36.8,919.5c-0.3,0-0.6-0.3-0.6-0.6v-4H30c-0.9,0-1.6,0.7-1.6,1.6v12.6c0,0.9,0.7,1.6,1.6,1.6h9.2
				c0.9,0,1.6-0.7,1.6-1.6v-9.6H36.8z"/>
		</g>
		<path class="st21" d="M36.7,919.5h4l-4.6-4.6v4C36.2,919.2,36.4,919.5,36.7,919.5z"/>
		<polygon class="st3" points="40.8,922.8 40.8,919.5 36.8,919.5 		"/>
	</g>
	<g>
		<g>
			<circle class="st1" cx="35.3" cy="464.9" r="12.1"/>
		</g>
		<g>
			<path class="st0" d="M37.8,461.7c-0.3,0-0.6-0.3-0.6-0.6v-4H31c-0.9,0-1.6,0.7-1.6,1.6v12.6c0,0.9,0.7,1.6,1.6,1.6h9.2
				c0.9,0,1.6-0.7,1.6-1.6v-9.6H37.8z"/>
		</g>
		<path class="st21" d="M37.8,461.7h4l-4.6-4.6v4C37.2,461.4,37.5,461.6,37.8,461.7z"/>
		<polygon class="st3" points="41.8,464.9 41.8,461.7 37.8,461.7 		"/>
	</g>
	<g>
		<g>
			<circle class="st1" cx="36.6" cy="145.5" r="12.1"/>
		</g>
		<g>
			<path class="st0" d="M39.2,142.2c-0.3,0-0.6-0.3-0.6-0.6v-4h-6.2c-0.9,0-1.6,0.7-1.6,1.6v12.6c0,0.9,0.7,1.6,1.6,1.6h9.2
				c0.9,0,1.6-0.7,1.6-1.6v-9.6H39.2z"/>
		</g>
		<path class="st21" d="M39.1,142.2h4l-4.6-4.6v4C38.6,142,38.8,142.2,39.1,142.2z"/>
		<polygon class="st3" points="43.2,145.5 43.2,142.3 39.2,142.3 		"/>
	</g>
	<g>
		<g>
			<circle class="st1" cx="34.2" cy="954.6" r="12.1"/>
		</g>
		<g>
			<path class="st0" d="M36.8,951.4c-0.3,0-0.6-0.3-0.6-0.6v-4H30c-0.9,0-1.6,0.7-1.6,1.6V961c0,0.9,0.7,1.6,1.6,1.6h9.2
				c0.9,0,1.6-0.7,1.6-1.6v-9.6H36.8z"/>
		</g>
		<path class="st21" d="M36.7,951.3h4l-4.6-4.6v4C36.2,951.1,36.4,951.3,36.7,951.3z"/>
		<polygon class="st3" points="40.8,954.6 40.8,951.4 36.8,951.4 		"/>
	</g>
	<line class="st18" x1="393.6" y1="117.1" x2="393.6" y2="188.8"/>
	<line class="st18" x1="391.9" y1="481.2" x2="391.9" y2="694.3"/>
	<g>
		<path class="st22" d="M403.2,721.5c0.5-0.9-0.4-2.3-0.1-3.3c0.3-0.9,1.7-1.8,1.7-2.8c0-1-1.5-1.8-1.7-2.8c-0.3-1,0.6-2.4,0.1-3.3
			c-0.5-0.9-2.2-0.8-2.9-1.5c-0.7-0.7-0.7-2.4-1.5-2.9c-0.9-0.5-2.3,0.4-3.3,0.1c-0.9-0.3-1.8-1.7-2.8-1.7c-1,0-1.8,1.5-2.8,1.7
			c-1,0.3-2.4-0.6-3.3-0.1c-0.9,0.5-0.8,2.2-1.5,2.9c-0.7,0.7-2.4,0.7-2.9,1.5c-0.5,0.9,0.4,2.3,0.1,3.3c-0.3,0.9-1.7,1.8-1.7,2.8
			c0,1,1.5,1.8,1.7,2.8c0.3,1-0.6,2.4-0.1,3.3c0.5,0.9,2.2,0.8,2.9,1.5c0.5,0.5,0.6,1.3,0.9,2l-3.9,8.1l5.2-1.3l2.7,4.6l2.7-7.2
			l2.7,7.2l2.7-4.6l5.2,1.3l-3.9-8.1c0.3-0.7,0.4-1.6,0.9-2C401,722.4,402.7,722.4,403.2,721.5z"/>
		<g>
			<g>
				<polygon class="st23" points="388.3,734.9 385.6,730.3 380.4,731.5 387.4,716.9 394,719.7 				"/>
				<polygon class="st23" points="393.7,734.9 396.4,730.3 401.6,731.5 394.6,716.9 388,719.7 				"/>
			</g>
			<path class="st24" d="M403.1,713.8c0,1-1.5,1.8-1.7,2.8c-0.3,1,0.6,2.4,0.1,3.3c-0.5,0.9-2.2,0.8-2.9,1.5
				c-0.7,0.7-0.7,2.4-1.5,2.9c-0.9,0.5-2.3-0.4-3.3-0.1c-0.9,0.3-1.8,1.7-2.8,1.7c-1,0-1.8-1.5-2.8-1.7c-1-0.3-2.4,0.6-3.3,0.1
				c-0.9-0.5-0.8-2.2-1.5-2.9c-0.7-0.7-2.4-0.7-2.9-1.5c-0.5-0.9,0.4-2.3,0.1-3.3c-0.3-0.9-1.7-1.8-1.7-2.8s1.5-1.8,1.7-2.8
				c0.3-1-0.6-2.4-0.1-3.3c0.5-0.9,2.2-0.8,2.9-1.5c0.7-0.7,0.7-2.4,1.5-2.9c0.9-0.5,2.3,0.4,3.3,0.1c0.9-0.3,1.8-1.7,2.8-1.7
				c1,0,1.8,1.5,2.8,1.7c1,0.3,2.4-0.6,3.3-0.1c0.9,0.5,0.8,2.2,1.5,2.9c0.7,0.7,2.4,0.7,2.9,1.5c0.5,0.9-0.4,2.3-0.1,3.3
				C401.6,712,403.1,712.8,403.1,713.8z"/>
			<g>
				<path class="st3" d="M397.9,713.8c0,3.8-3.1,6.9-6.9,6.9c-3.8,0-6.9-3.1-6.9-6.9s3.1-6.9,6.9-6.9
					C394.8,706.9,397.9,710,397.9,713.8"/>
				<path class="st0" d="M396.6,713.8c0,3.1-2.5,5.7-5.7,5.7s-5.7-2.5-5.7-5.7s2.5-5.7,5.7-5.7S396.6,710.7,396.6,713.8"/>
			</g>
		</g>
	</g>
	<g>
		<g id="g56755_2_" transform="matrix(14,0,0,14,49637.042,519374.88)">
			<path id="path56757_2_" class="st24" d="M-3542-37079.6c0,0.5-0.4,0.9-0.9,0.9l0,0c-0.5,0-0.9-0.4-0.9-0.9l0,0
				c0-0.5,0.4-0.9,0.9-0.9l0,0C-3542.4-37080.5-3542-37080.1-3542-37079.6L-3542-37079.6z"/>
		</g>
		<path id="path53460_2_" class="st25" d="M42.4,254.2c-3.4,1.6-5.1,5-6.7,8l-2.3-2.3c-1.2,0.9-2.4,1.5-3.5,2.2l9.5,9.5
			c5.3-1.2,9.1-5.7,9.4-11.1L42.4,254.2z"/>
		<path id="path38606_2_" class="st0" d="M33.4,260c0.7,0.9,1.2,2,1.8,3.3c1.7-3.3,3.5-7.2,7.2-9c-0.4,1.5-0.6,3.4-0.1,5
			c-3.1,1.6-5.1,4.5-7.1,7.4c-1.9-2.6-3.5-3.5-5.4-4.4C31,261.5,32.2,260.8,33.4,260L33.4,260z"/>
	</g>
	<g>
		<path class="st22" d="M406.4,208.3c0-1.5,0-1.6,0-3.1l-2.8-1c-0.4-0.9-0.6-1.4-0.9-2.3l1.3-2.7c-1.1-1.1-1.1-1.1-2.2-2.2l-2.7,1.2
			c-0.9-0.4-1.4-0.6-2.2-1l-1-2.8c-1.5,0-1.6,0-3.1,0l-1,2.8c-0.9,0.4-1.4,0.6-2.3,0.9L387,197c-1.1,1.1-1.1,1.1-2.2,2.2l1.2,2.7
			c-0.4,0.9-0.6,1.4-1,2.2l-2.8,1c0,1.5,0,1.6,0,3.1l2.8,1c0.4,0.9,0.6,1.4,0.9,2.3l-1.3,2.7c1.1,1.1,1.1,1.1,2.2,2.2l2.7-1.2
			c0.9,0.4,1.4,0.6,2.2,1l1,2.8c1.5,0,1.6,0,3.1,0l1-2.8c0.9-0.4,1.4-0.6,2.3-0.9l2.7,1.3c1.1-1.1,1.1-1.1,2.2-2.2l-1.2-2.7
			c0.4-0.9,0.6-1.4,1-2.2L406.4,208.3z M394.3,211.4c-2.6,0-4.7-2.1-4.7-4.7c0-2.6,2.1-4.7,4.7-4.7c2.6,0,4.7,2.1,4.7,4.7
			C399.1,209.3,396.9,211.4,394.3,211.4z"/>
		<path class="st24" d="M405,207.3c0-1.5,0-1.6,0-3.1l-2.8-1c-0.4-0.9-0.6-1.4-0.9-2.3l1.3-2.7c-1.1-1.1-1.1-1.1-2.2-2.2l-2.7,1.2
			c-0.9-0.4-1.4-0.6-2.2-1l-1-2.8c-1.5,0-1.6,0-3.1,0l-1,2.8c-0.9,0.4-1.4,0.6-2.3,0.9l-2.7-1.3c-1.1,1.1-1.1,1.1-2.2,2.2l1.2,2.7
			c-0.4,0.9-0.6,1.4-1,2.2l-2.8,1c0,1.5,0,1.6,0,3.1l2.8,1c0.4,0.9,0.6,1.4,0.9,2.3l-1.3,2.7c1.1,1.1,1.1,1.1,2.2,2.2l2.7-1.2
			c0.9,0.4,1.4,0.6,2.2,1l1,2.8c1.5,0,1.6,0,3.1,0l1-2.8c0.9-0.4,1.4-0.6,2.3-0.9l2.7,1.3c1.1-1.1,1.1-1.1,2.2-2.2l-1.2-2.7
			c0.4-0.9,0.6-1.4,1-2.2L405,207.3z M392.9,210.4c-2.6,0-4.7-2.1-4.7-4.7c0-2.6,2.1-4.7,4.7-4.7c2.6,0,4.7,2.1,4.7,4.7
			C397.6,208.3,395.5,210.4,392.9,210.4z"/>
	</g>
	<g>
		<path class="st3" d="M48.1,376.5c-1,0-2.2-0.3-3.6-0.9l-0.3-0.1l-0.2-0.1c-0.6-0.3-1.1-0.4-1.5-0.6c-0.3-0.1-0.6-0.2-0.9-0.2
			c-0.2,0-0.4,0.1-0.6,0.2c-0.1,0.1-0.3,0.3-0.4,0.5c-0.2,0.4-0.5,0.6-0.8,0.6h-2.5c-0.4,0-0.8-0.4-0.9-0.9c0-0.2,0-0.4-0.1-0.6
			c0-0.2,0-0.4,0-0.7c0-1.4,0.3-2.8,0.8-3.9c0.5-1.2,1.3-2.3,2.4-3.3c0.4-0.3,0.8-0.7,1.3-1.1c-0.1,0-0.3,0-0.4,0
			c-1.2,0-2.2-0.4-2.9-1.3c-0.8-0.9-1.2-2-1.2-3.5c0-2.2,0.9-4.1,2.6-5.6c1.6-1.4,3.7-2.1,6.1-2.1c2.6,0,4.7,0.7,6.3,2
			c1.7,1.4,2.6,3.4,2.6,5.8c0,1.8-0.6,3.4-1.7,4.7c-0.3,0.4-0.7,0.7-1.1,1h2.3c0.5,0,0.9,0.5,0.9,1c0,0.2,0,0.3,0,0.5
			c0,0.2,0,0.4,0,0.8c0,2.5-0.5,4.4-1.6,5.7C51.8,375.9,50.2,376.5,48.1,376.5L48.1,376.5z M46.2,368.8c0.4,0.1,0.7,0.1,1.2,0.2
			c1.3,0.3,1.7,0.3,1.8,0.3c0.2,0,0.5,0,0.6-0.2c0.1-0.1,0.2-0.4,0.2-1.5c0-0.1,0-0.2,0-0.3c-0.7,0.4-1.4,0.7-2.2,0.9
			c-0.2,0.1-0.6,0.2-1.1,0.3C46.5,368.7,46.4,368.8,46.2,368.8L46.2,368.8z M42.5,358.5c0.3,0.1,0.5,0.3,0.8,0.6
			c0.6,0.6,0.9,1.5,0.9,2.5c0,0.8-0.2,1.5-0.6,2.1c0.4-0.2,0.6-0.4,0.8-0.5c1-0.7,1.5-1.2,1.7-1.5c0.2-0.4,0.3-0.8,0.3-1.3
			c0-0.6-0.2-1-0.6-1.4c-0.5-0.4-1.2-0.7-2.1-0.7C43.2,358.3,42.8,358.4,42.5,358.5L42.5,358.5z M27.4,376.5c-2.6,0-4.8-1.1-6.5-3.2
			c-1.7-2.1-2.5-5-2.5-8.5c0-3.5,0.8-6.4,2.5-8.5c1.7-2.2,3.8-3.2,6.5-3.2c2.6,0,4.8,1.1,6.5,3.2c1.7,2.2,2.5,5,2.5,8.5
			c0,3.5-0.8,6.4-2.5,8.5C32.2,375.5,30,376.5,27.4,376.5L27.4,376.5z M27.4,358.2c-0.7,0-1.2,0.4-1.5,1.2c-0.3,0.7-0.6,2.2-0.6,5.4
			c0,3.2,0.3,4.7,0.6,5.4c0.3,0.8,0.8,1.2,1.5,1.2c0.7,0,1.2-0.4,1.5-1.2c0.3-0.7,0.6-2.2,0.6-5.4c0-3.2-0.3-4.7-0.6-5.4
			C28.6,358.6,28.1,358.2,27.4,358.2L27.4,358.2z"/>
		<path class="st1" d="M37.3,374.8c0-0.1,0-0.3,0-0.4c0-0.1,0-0.4,0-0.7c0-1.2,0.2-2.4,0.7-3.4c0.5-1,1.2-2,2.2-3
			c0.7-0.7,1.8-1.4,3.3-2.4c0.7-0.4,1.2-0.7,1.5-0.9c0.9-0.6,1.6-1.2,1.9-1.8c0.3-0.6,0.5-1.2,0.5-2c0-0.9-0.3-1.7-1-2.3
			c-0.7-0.6-1.5-0.9-2.6-0.9c-0.9,0-1.6,0.2-2.2,0.6c-0.6,0.4-1,0.9-1.3,1.7c0.2,0,0.3-0.1,0.5-0.1c0.2,0,0.3,0,0.4,0
			c0.6,0,1.1,0.2,1.5,0.6c0.4,0.4,0.6,1,0.6,1.6c0,0.8-0.3,1.4-0.8,1.9c-0.5,0.5-1.2,0.8-2,0.8c-1,0-1.7-0.3-2.3-1
			c-0.6-0.7-0.9-1.5-0.9-2.7c0-1.8,0.7-3.4,2.2-4.6c1.5-1.2,3.4-1.9,5.6-1.9c2.4,0,4.4,0.6,5.8,1.8c1.4,1.2,2.2,2.8,2.2,4.8
			c0,1.5-0.5,2.8-1.4,3.9c-0.9,1.1-2.3,1.9-4.1,2.5c-0.3,0.1-0.6,0.2-1.1,0.3c-3,1-4.9,2.1-5.7,3.3c0.6-0.4,1.2-0.6,1.8-0.8
			c0.6-0.2,1.3-0.3,1.9-0.3c0.7,0,1.6,0.1,2.6,0.4c1,0.2,1.7,0.4,2,0.4c0.6,0,1.1-0.2,1.3-0.6c0.3-0.4,0.4-1.1,0.4-2.2h2.6
			c0,0.2,0,0.3,0,0.5c0,0.2,0,0.4,0,0.7c0,2.2-0.4,3.8-1.3,4.9c-0.9,1.1-2.2,1.6-4.1,1.6c-0.9,0-2-0.3-3.3-0.9
			c-0.2-0.1-0.4-0.2-0.5-0.2c-0.7-0.3-1.2-0.5-1.6-0.6c-0.4-0.1-0.8-0.2-1.1-0.2c-0.4,0-0.8,0.1-1.1,0.3c-0.3,0.2-0.5,0.5-0.7,1
			H37.3z M19.3,364.8c0-3.2,0.8-5.8,2.2-7.7c1.5-1.9,3.5-2.9,5.9-2.9c2.4,0,4.4,1,5.9,2.9c1.5,1.9,2.2,4.5,2.2,7.7
			c0,3.2-0.8,5.8-2.2,7.7c-1.5,1.9-3.5,2.9-5.9,2.9c-2.4,0-4.4-1-5.9-2.9C20,370.6,19.3,368,19.3,364.8z M24.5,364.8
			c0,2.7,0.2,4.7,0.7,5.9c0.5,1.2,1.2,1.8,2.2,1.8c1,0,1.8-0.6,2.2-1.8c0.5-1.2,0.7-3.2,0.7-5.9c0-2.7-0.2-4.7-0.7-5.9
			c-0.5-1.2-1.2-1.8-2.2-1.8c-1,0-1.8,0.6-2.2,1.8C24.7,360.1,24.5,362.1,24.5,364.8z"/>
		<path class="st21" d="M25.5,371.8l-0.3,0.4c-0.2-0.3-0.4-0.7-0.6-1.1c-0.5-1.3-0.8-3.4-0.8-6.3c0-2.9,0.3-4.9,0.8-6.3
			c0.6-1.5,1.5-2.3,2.8-2.3c0.9,0,1.6,0.4,2.1,1.1l-0.3,0.4c-0.5-0.6-1.1-0.9-1.8-0.9c-1.1,0-1.9,0.7-2.4,2c-0.5,1.3-0.7,3.2-0.7,6
			c0,2.8,0.2,4.8,0.7,6C25.1,371.2,25.3,371.5,25.5,371.8z M33.2,357.4l-0.3,0.4c1.3,1.8,2,4.1,2,7c0,2.9-0.7,5.3-2.1,7.1
			c-1.4,1.8-3.2,2.7-5.5,2.7c-2.2,0-4.1-0.9-5.4-2.7v0l-0.3,0.4c0,0,0,0,0,0c1.4,1.9,3.4,2.8,5.7,2.8c2.4,0,4.3-1,5.7-2.8
			c1.4-1.9,2.2-4.4,2.2-7.5C35.3,361.7,34.6,359.3,33.2,357.4z M53.3,368.2c0-0.1,0-0.1,0-0.2l-0.4,0.6c0,0.1,0,0.2,0,0.4
			c0,2-0.4,3.4-1.1,4.3c-0.8,0.9-2,1.3-3.6,1.3c-0.8,0-1.9-0.3-3.1-0.8l-0.5-0.2c-0.7-0.3-1.3-0.5-1.7-0.6c-0.5-0.1-0.9-0.2-1.2-0.2
			c-0.5,0-1,0.1-1.4,0.4c-0.3,0.2-0.5,0.5-0.8,0.9h-1.5l-0.4,0.6h2.2c0.2-0.4,0.4-0.7,0.7-0.9c0.3-0.2,0.7-0.4,1.2-0.4
			c0.3,0,0.7,0.1,1.1,0.2c0.4,0.1,1,0.3,1.7,0.6l0.5,0.2c1.3,0.6,2.4,0.9,3.2,0.9c1.8,0,3.1-0.5,3.9-1.5c0.8-1,1.3-2.6,1.3-4.7
			C53.3,368.6,53.3,368.4,53.3,368.2z M38.3,363.1c0.5,0.6,1.3,0.9,2.2,0.9c0.7,0,1.3-0.3,1.8-0.7c0.5-0.5,0.7-1,0.7-1.7
			c0-0.6-0.2-1-0.5-1.4l-0.3,0.4c0,0,0,0,0,0c0.2,0.3,0.4,0.6,0.4,1c0,0.5-0.2,0.9-0.5,1.3c-0.4,0.4-0.9,0.6-1.6,0.6
			c-0.8,0-1.4-0.3-1.9-0.8L38.3,363.1C38.3,363.1,38.3,363.1,38.3,363.1z M51.6,357.8C51.6,357.8,51.6,357.8,51.6,357.8
			c0.6,0.9,0.9,1.9,0.9,3c0,1.3-0.4,2.4-1.2,3.3c-0.8,1-2.1,1.7-3.8,2.3c-0.3,0.1-0.6,0.2-1.1,0.3c-3.2,1-5.1,2.2-6.1,3.6
			c-0.2,0.3-0.2,0.7,0,1.1l0.4-0.3c-0.1-0.1-0.1-0.2,0-0.3c0.9-1.3,2.8-2.4,5.8-3.4c0.5-0.1,0.8-0.2,1.1-0.3c1.8-0.6,3.1-1.4,4-2.4
			c0.9-1,1.3-2.3,1.3-3.7c0-1.3-0.3-2.5-1-3.4L51.6,357.8z M46.7,357.4c-0.8-0.7-1.8-1-3-1c-1,0-1.9,0.2-2.5,0.7
			c-0.7,0.5-1.3,1.2-1.6,2.1c-0.1,0.3-0.1,0.6,0.1,0.9l0.4-0.3c0-0.1-0.1-0.2,0-0.3c0.3-0.8,0.8-1.4,1.4-1.8
			c0.6-0.4,1.4-0.6,2.3-0.6c1.1,0,2,0.3,2.7,0.9L46.7,357.4C46.7,357.4,46.7,357.4,46.7,357.4z"/>
	</g>
	<g>
		<path class="st0" d="M29,35c-2.6,0-4.8-1.1-6.5-3.2c-1.7-2.1-2.5-5-2.5-8.5c0-3.5,0.8-6.4,2.5-8.5c1.7-2.2,3.8-3.2,6.5-3.2
			c2.6,0,4.8,1.1,6.5,3.2c1.7,2.2,2.5,5,2.5,8.5c0,3.5-0.8,6.4-2.5,8.5C33.8,33.9,31.6,35,29,35L29,35z M29,16.7
			c-0.7,0-1.2,0.4-1.5,1.2c-0.3,0.7-0.6,2.2-0.6,5.4c0,3.2,0.3,4.7,0.6,5.4c0.3,0.8,0.8,1.2,1.5,1.2c0.7,0,1.2-0.4,1.5-1.2
			c0.3-0.7,0.6-2.2,0.6-5.4c0-3.2-0.3-4.7-0.6-5.4C30.2,17,29.7,16.7,29,16.7L29,16.7z M51.4,35c0.5,0,0.9-0.5,0.9-1.2v-2.9
			c0-0.7-0.4-1.2-0.9-1.2h-1.2c-1.2,0-1.3-0.6-1.3-1.3V12.7c0-0.7-0.4-1.2-0.9-1.2h-3.9c-0.4,0-0.7,0.3-0.8,0.7
			c-0.2,0.7-0.6,1.2-1.2,1.6c-0.7,0.4-1.7,0.6-2.9,0.7c-0.5,0-0.9,0.5-0.9,1.2v2.8c0,0.3,0.1,0.6,0.3,0.8c0.2,0.2,0.4,0.4,0.6,0.4
			h2.7v8.6v0.7c0,0.4,0,0.8-1.3,0.8h-1.4c-0.5,0-0.9,0.5-0.9,1.2v2.9c0,0.7,0.4,1.2,0.9,1.2H51.4L51.4,35z"/>
		<path class="st1" d="M39.2,33.8v-2.9h1.4c0.9,0,1.5-0.1,1.8-0.3c0.3-0.2,0.4-0.8,0.4-1.7v-0.7v-9.8h-3.6v-2.9
			c1.4,0,2.5-0.3,3.3-0.8c0.8-0.5,1.4-1.2,1.7-2.2H48v15.8c0,1.1,0.1,1.8,0.4,2.1c0.2,0.3,0.9,0.4,1.8,0.4h1.2v2.9H39.2z M20.9,23.3
			c0-3.2,0.8-5.8,2.2-7.7c1.5-1.9,3.5-2.9,5.9-2.9c2.4,0,4.4,1,5.9,2.9c1.5,1.9,2.2,4.5,2.2,7.7c0,3.2-0.8,5.8-2.2,7.7
			c-1.5,1.9-3.5,2.9-5.9,2.9c-2.4,0-4.4-1-5.9-2.9C21.6,29,20.9,26.5,20.9,23.3z M26.1,23.3c0,2.7,0.2,4.7,0.7,5.9
			C27.2,30.4,28,31,29,31c1,0,1.8-0.6,2.2-1.8c0.5-1.2,0.7-3.2,0.7-5.9c0-2.7-0.2-4.7-0.7-5.9c-0.5-1.2-1.2-1.8-2.2-1.8
			c-1,0-1.8,0.6-2.2,1.8C26.3,18.6,26.1,20.5,26.1,23.3z"/>
		<path class="st21" d="M48.3,30.8L48,31.2c-0.4-0.5-0.6-1.3-0.6-2.7V13.6l0.5-0.6v15.5C47.8,29.7,48,30.4,48.3,30.8z M42.7,17.6
			h-2.9l-0.5,0.6h3.3c0.1,0,0.1,0,0.2,0.1l0.3-0.4C43.1,17.7,42.9,17.6,42.7,17.6z M50.8,31.8v1.1H39.9l-0.5,0.6h11.8v-2.3
			L50.8,31.8z M26.6,29.3c-0.5-1.3-0.7-3.2-0.7-6c0-2.8,0.2-4.8,0.7-6c0.5-1.3,1.3-2,2.4-2c0.8,0,1.4,0.3,1.8,0.9l0.3-0.4
			c-0.6-0.7-1.3-1.1-2.1-1.1c-1.3,0-2.2,0.8-2.8,2.3c-0.5,1.3-0.8,3.4-0.8,6.3c0,2.9,0.2,4.9,0.8,6.3c0.2,0.4,0.4,0.8,0.6,1.1
			l0.3-0.4C26.9,30,26.7,29.7,26.6,29.3z M34.8,15.8l-0.3,0.4c1.3,1.8,2,4.1,2,7c0,2.9-0.7,5.3-2.1,7.1C33.1,32.1,31.2,33,29,33
			c-2.2,0-4.1-0.9-5.4-2.7v0l-0.3,0.4c0,0,0,0,0,0c1.4,1.9,3.4,2.8,5.7,2.8c2.4,0,4.3-1,5.7-2.8c1.4-1.9,2.2-4.4,2.2-7.5
			C36.9,20.2,36.2,17.7,34.8,15.8z"/>
	</g>
	<g>
		<path class="st0" d="M27.4,835.1c-2.9,0-5.2-1.1-7-3.4c-1.8-2.3-2.7-5.3-2.7-9c0-3.7,0.9-6.7,2.7-9c1.8-2.3,4.2-3.4,7-3.4
			c2.9,0,5.3,1.1,7,3.4c1.8,2.3,2.7,5.3,2.7,9c0,3.7-0.9,6.7-2.7,9C32.6,833.9,30.3,835.1,27.4,835.1L27.4,835.1z M27.4,815.7
			c-0.8,0-1.3,0.4-1.6,1.3c-0.3,0.8-0.7,2.4-0.7,5.7c0,3.3,0.4,4.9,0.7,5.7c0.3,0.9,0.8,1.3,1.6,1.3c0.8,0,1.3-0.4,1.6-1.3
			c0.3-0.8,0.7-2.4,0.7-5.7c0-3.3-0.3-5-0.6-5.7C28.7,816.1,28.2,815.7,27.4,815.7L27.4,815.7z M46,835.1c-2.7,0-4.9-0.6-6.5-1.7
			c-1.8-1.3-2.7-3.1-2.7-5.3c0-1.5,0.4-2.7,1.2-3.6c0.8-0.9,1.9-1.4,3.1-1.4c1.1,0,2,0.4,2.7,1.1c0.8,0.8,1.2,1.8,1.2,3
			c0,1-0.3,1.8-0.8,2.5c0.2,0,0.5,0,0.8,0c1.2,0,2-0.3,2.6-0.8c0.5-0.5,0.7-1.1,0.7-2c0-0.9-0.3-1.3-0.6-1.5
			c-0.4-0.3-1.2-0.6-2.8-0.6c-0.5,0-1-0.5-1-1.2v-2.7c-0.7,0.5-1.5,0.8-2.5,0.8c-1.2,0-2.1-0.4-2.9-1.2c-0.7-0.8-1.1-1.9-1.1-3.3
			c0-2.2,0.9-4,2.6-5.2c1.6-1.2,3.7-1.8,6.3-1.8c2.9,0,5.1,0.5,6.7,1.6c1.8,1.2,2.7,3,2.7,5.3c0,1.5-0.5,2.9-1.4,3.9
			c-0.2,0.3-0.5,0.5-0.7,0.7c0.5,0.3,1,0.7,1.4,1.2c1,1.1,1.6,2.5,1.6,4.2c0,2.6-1,4.7-3,6.1C51.9,834.4,49.4,835.1,46,835.1
			L46,835.1z M44.6,815.5c0.5,0.6,0.7,1.4,0.7,2.2c0,0.6-0.1,1.2-0.3,1.7c1.4-0.1,2.1-0.4,2.4-0.7c0.4-0.3,0.5-0.7,0.5-1.2
			c0-0.6-0.2-1-0.6-1.4c-0.5-0.4-1.3-0.7-2.3-0.7C44.9,815.5,44.8,815.5,44.6,815.5L44.6,815.5z"/>
		<path class="st1" d="M18.6,822.7c0-3.4,0.8-6.1,2.4-8.2c1.6-2.1,3.8-3.1,6.4-3.1c2.6,0,4.8,1,6.4,3.1c1.6,2.1,2.4,4.8,2.4,8.2
			c0,3.4-0.8,6.1-2.4,8.1c-1.6,2.1-3.8,3.1-6.4,3.1c-2.6,0-4.8-1-6.4-3.1C19.4,828.8,18.6,826,18.6,822.7z M24.2,822.7
			c0,2.9,0.3,5,0.8,6.2c0.5,1.3,1.3,1.9,2.4,1.9c1.1,0,1.9-0.6,2.4-1.9c0.5-1.3,0.8-3.4,0.8-6.2c0-2.9-0.3-5-0.7-6.3
			c-0.5-1.3-1.3-1.9-2.4-1.9c-1.1,0-1.9,0.6-2.4,1.9C24.5,817.7,24.2,819.8,24.2,822.7z M45,823.6v-2.9c1.3-0.1,2.3-0.4,3-0.9
			c0.7-0.5,1-1.3,1-2.2c0-1-0.4-1.8-1.1-2.4c-0.7-0.6-1.7-0.9-2.9-0.9c-0.7,0-1.3,0.1-1.8,0.3c-0.5,0.2-1,0.5-1.4,0.9h0.3
			c0.7,0,1.2,0.2,1.7,0.6c0.4,0.4,0.6,1,0.6,1.7c0,0.8-0.3,1.5-0.8,2c-0.5,0.5-1.2,0.7-2.1,0.7c-0.9,0-1.7-0.3-2.2-0.9
			c-0.5-0.6-0.8-1.4-0.8-2.4c0-1.8,0.7-3.2,2.1-4.2c1.4-1.1,3.4-1.6,5.8-1.6c2.7,0,4.8,0.5,6.3,1.5c1.5,1,2.2,2.4,2.2,4.2
			c0,1.2-0.4,2.2-1.1,3c-0.7,0.8-1.8,1.3-3.1,1.6c1.7,0.5,2.9,1.1,3.8,2c0.8,0.9,1.2,2,1.2,3.4c0,2.2-0.8,3.9-2.5,5
			c-1.6,1.2-4.1,1.7-7.2,1.7c-2.5,0-4.5-0.5-6-1.6c-1.5-1-2.2-2.5-2.2-4.2c0-1.1,0.3-2,0.9-2.7c0.6-0.7,1.4-1,2.4-1
			c0.8,0,1.5,0.3,2.1,0.8c0.6,0.6,0.8,1.2,0.8,2.1c0,0.8-0.2,1.4-0.7,1.9c-0.5,0.5-1.1,0.7-1.9,0.7c0.5,0.4,1,0.7,1.6,0.9
			c0.6,0.2,1.3,0.3,2,0.3c1.4,0,2.5-0.3,3.2-1c0.7-0.7,1.1-1.7,1.1-2.9c0-1.2-0.4-2-1.1-2.5C47.6,823.8,46.5,823.6,45,823.6z"/>
		<path class="st21" d="M43.4,816.9l0.3-0.4c0.3,0.3,0.4,0.7,0.4,1.3c0,0.7-0.2,1.3-0.7,1.8c-0.5,0.5-1.1,0.7-1.9,0.7
			c-0.9,0-1.6-0.3-2.1-0.8l0.4-0.4c0.4,0.4,1,0.6,1.7,0.6c0.7,0,1.2-0.2,1.6-0.6c0.3-0.3,0.5-0.7,0.5-1.3
			C43.6,817.4,43.5,817.1,43.4,816.9z M54.2,817.1c0,1-0.3,1.7-0.9,2.4c-0.6,0.7-1.5,1.2-2.7,1.4c-0.3,0.1-0.6,0.4-0.6,0.8
			c0,0.3,0.1,0.5,0.2,0.7l0.3-0.4c-0.1-0.1-0.1-0.1-0.1-0.2c0-0.1,0.1-0.3,0.2-0.3c1.3-0.2,2.3-0.7,2.9-1.5c0.7-0.8,1-1.7,1-2.8
			c0-1.2-0.4-2.2-1.1-3.1l-0.3,0.4C53.9,815.2,54.2,816,54.2,817.1z M48.7,823.6c-0.7-0.5-1.7-0.8-3-0.9l0,0l-0.5,0.6l0,0
			c1.4,0,2.5,0.3,3.3,0.8c0.2,0.1,0.3,0.3,0.5,0.4l0.3-0.4C49.1,823.9,48.9,823.8,48.7,823.6z M43.4,827.2c0,0.5-0.1,0.9-0.4,1.2
			c-0.3,0.3-0.8,0.5-1.5,0.5c-0.3,0-0.6,0.3-0.7,0.6c-0.1,0.3,0,0.6,0.2,0.9l0.3-0.4c0-0.1-0.1-0.2,0-0.3c0-0.1,0.1-0.2,0.2-0.2
			c0.8,0,1.4-0.2,1.8-0.6c0.4-0.4,0.6-0.9,0.6-1.6c0-0.7-0.2-1.2-0.6-1.7l-0.4,0.4C43.3,826.3,43.4,826.7,43.4,827.2z M54.5,824.2
			l-0.3,0.4c0.5,0.7,0.8,1.5,0.8,2.5c0,1.9-0.7,3.3-2.1,4.3c-1.5,1.1-3.8,1.6-6.9,1.6c-2.4,0-4.3-0.5-5.6-1.4
			c-0.4-0.3-0.7-0.6-1-0.9l-0.3,0.4c0.3,0.4,0.6,0.7,1.1,1c1.4,1,3.4,1.5,5.8,1.5c3.1,0,5.5-0.6,7.1-1.7c1.6-1.1,2.4-2.7,2.4-4.8
			C55.5,826,55.2,825,54.5,824.2z M48.3,814.4c-0.8-0.7-1.9-1-3.3-1c-0.7,0-1.4,0.1-2,0.3c-0.6,0.2-1.2,0.6-1.7,1.1
			c-0.2,0.2-0.3,0.6-0.2,1c0,0.1,0.1,0.2,0.2,0.3l0.3-0.4c0,0,0-0.1-0.1-0.1c0-0.1,0-0.2,0.1-0.3c0.5-0.4,1-0.8,1.5-1
			c0.5-0.2,1.2-0.3,1.9-0.3c1.3,0,2.3,0.3,3,0.9c0.2,0.1,0.3,0.3,0.4,0.4l0.3-0.4C48.7,814.7,48.5,814.6,48.3,814.4z M25.3,830.1
			l-0.3,0.4c-0.3-0.3-0.5-0.7-0.7-1.2c-0.6-1.4-0.8-3.6-0.8-6.7c0-3.1,0.3-5.2,0.8-6.7c0.6-1.6,1.7-2.4,3.1-2.4
			c0.9,0,1.7,0.4,2.3,1.2l-0.3,0.4c-0.5-0.6-1.2-1-2-1c-1.2,0-2.1,0.7-2.6,2.1c-0.5,1.3-0.8,3.4-0.8,6.4c0,3,0.3,5,0.8,6.4
			C24.9,829.4,25.1,829.8,25.3,830.1z M33.7,814.8l-0.3,0.4c1.4,1.9,2.1,4.3,2.1,7.4c0,3.1-0.8,5.6-2.2,7.5
			c-1.5,1.9-3.5,2.8-5.9,2.8c-2.4,0-4.4-0.9-5.9-2.8v0l-0.3,0.4c0,0,0,0,0,0c1.6,2,3.7,3,6.2,3c2.6,0,4.7-1,6.3-3
			c1.6-2,2.4-4.6,2.4-7.9C36,819.4,35.3,816.8,33.7,814.8z"/>
	</g>
</g>
</svg>
