<?xml version="1.0" encoding="utf-8"?>
<!-- Generator: Adobe Illustrator 24.2.3, SVG Export Plug-In . SVG Version: 6.00 Build 0)  -->
<svg version="1.1" xmlns="http://www.w3.org/2000/svg" xmlns:xlink="http://www.w3.org/1999/xlink" x="0px" y="0px"
	 viewBox="0 0 450 290.9" style="enable-background:new 0 0 450 290.9;" xml:space="preserve">
<style type="text/css">
	.st0{opacity:0.46;fill:#FFFFFF;enable-background:new    ;}
	.st1{fill:#F1F1F1;}
	.st2{fill:#3E8EB2;}
	.st3{fill:none;}
	.st4{enable-background:new    ;}
	.st5{fill:#4292BD;}
	.st6{fill:#FFFFFF;}
	.st7{fill:#AFD5E2;}
	.st8{opacity:0.46;fill:#4998B8;enable-background:new    ;}
	.st9{opacity:0.6;fill:#3E8EB2;enable-background:new    ;}
	.st10{fill:#444444;}
	.st11{fill:#757575;}
	.st12{opacity:0.55;}
	.st13{fill:#B6322E;}
	.st14{opacity:0.1;enable-background:new    ;}
	.st15{opacity:0.55;fill:#F1F1F1;enable-background:new    ;}
	.st16{opacity:0.55;fill:#3E8EB2;enable-background:new    ;}
</style>
<g id="Layer_6">
</g>
<g id="Shapes">
</g>
<g id="background">
</g>
<g id="text">
</g>
<g id="Graphics">
</g>
<g id="Layer_5">
	<rect x="52.8" class="st0" width="351.6" height="291.5"/>
	<path id="Path_7616_6_" class="st2" d="M386.1,51.2h-275V13.6h275l8.3,18.8L386.1,51.2z"/>
	<rect x="65.1" y="13.6" class="st1" width="46" height="37.7"/>
	<g class="st4">
		<path class="st6" d="M133.8,35.2h-5.1l-1,2.4h-2l4.6-10.2h1.9l4.6,10.2h-2L133.8,35.2z M133.2,33.7l-1.9-4.5l-1.9,4.5H133.2z"/>
		<path class="st6" d="M145.3,29.8v7.8h-1.7v-1c-0.6,0.7-1.5,1.1-2.5,1.1c-2,0-3.4-1.1-3.4-3.4v-4.4h1.8V34c0,1.4,0.7,2.1,1.8,2.1
			c1.3,0,2.1-0.8,2.1-2.3v-3.9H145.3z"/>
		<path class="st6" d="M152.4,37.1c-0.4,0.3-1.1,0.5-1.7,0.5c-1.7,0-2.7-0.9-2.7-2.6v-3.7h-1.3v-1.5h1.3V28h1.8v1.8h2.1v1.5h-2.1V35
			c0,0.8,0.4,1.2,1.1,1.2c0.4,0,0.7-0.1,1-0.3L152.4,37.1z"/>
		<path class="st6" d="M161.5,33.1v4.5h-1.8v-4.2c0-1.4-0.7-2.1-1.9-2.1c-1.3,0-2.2,0.8-2.2,2.3v3.9h-1.8V26.7h1.8v3.9
			c0.6-0.6,1.5-1,2.6-1C160.2,29.7,161.5,30.7,161.5,33.1z"/>
		<path class="st6" d="M163.3,33.6c0-2.3,1.7-4,4.1-4c2.4,0,4.2,1.6,4.2,4s-1.7,4-4.2,4C165,37.6,163.3,36,163.3,33.6z M169.7,33.6
			c0-1.5-1-2.4-2.3-2.4c-1.3,0-2.3,0.9-2.3,2.4s1,2.4,2.3,2.4C168.7,36.1,169.7,35.1,169.7,33.6z"/>
		<path class="st6" d="M177.8,29.7v1.7c-0.2,0-0.3,0-0.4,0c-1.4,0-2.3,0.8-2.3,2.4v3.8h-1.8v-7.8h1.7v1.1
			C175.6,30.1,176.5,29.7,177.8,29.7z"/>
		<path class="st6" d="M179.1,27.4c0-0.6,0.5-1.1,1.2-1.1c0.7,0,1.2,0.5,1.2,1c0,0.6-0.5,1.1-1.2,1.1
			C179.6,28.5,179.1,28,179.1,27.4z M179.4,29.8h1.8v7.8h-1.8V29.8z"/>
		<path class="st6" d="M189.7,36.1v1.5h-6.7v-1.2l4.3-5.2H183v-1.5h6.5v1.2l-4.3,5.2H189.7z"/>
		<path class="st6" d="M197.8,33v4.6h-1.7v-0.9c-0.4,0.7-1.3,1-2.4,1c-1.8,0-2.9-1-2.9-2.3c0-1.3,0.9-2.3,3.2-2.3h2v-0.1
			c0-1.1-0.6-1.7-1.9-1.7c-0.9,0-1.8,0.3-2.4,0.8l-0.7-1.3c0.8-0.6,2-1,3.3-1C196.5,29.7,197.8,30.7,197.8,33z M196,35.1v-0.9h-1.9
			c-1.2,0-1.6,0.5-1.6,1c0,0.7,0.6,1.1,1.5,1.1C194.9,36.3,195.7,35.9,196,35.1z"/>
		<path class="st6" d="M204.9,37.1c-0.4,0.3-1.1,0.5-1.7,0.5c-1.7,0-2.7-0.9-2.7-2.6v-3.7h-1.3v-1.5h1.3V28h1.8v1.8h2.1v1.5h-2.1V35
			c0,0.8,0.4,1.2,1.1,1.2c0.4,0,0.7-0.1,1-0.3L204.9,37.1z"/>
		<path class="st6" d="M206.1,27.4c0-0.6,0.5-1.1,1.2-1.1c0.7,0,1.2,0.5,1.2,1c0,0.6-0.5,1.1-1.2,1.1
			C206.6,28.5,206.1,28,206.1,27.4z M206.4,29.8h1.8v7.8h-1.8V29.8z"/>
		<path class="st6" d="M209.9,33.6c0-2.3,1.7-4,4.1-4c2.4,0,4.2,1.6,4.2,4s-1.7,4-4.2,4C211.7,37.6,209.9,36,209.9,33.6z
			 M216.4,33.6c0-1.5-1-2.4-2.3-2.4c-1.3,0-2.3,0.9-2.3,2.4s1,2.4,2.3,2.4C215.4,36.1,216.4,35.1,216.4,33.6z"/>
		<path class="st6" d="M227.6,33.1v4.5h-1.8v-4.2c0-1.4-0.7-2.1-1.9-2.1c-1.3,0-2.2,0.8-2.2,2.3v3.9H220v-7.8h1.7v1
			c0.6-0.7,1.5-1.1,2.7-1.1C226.2,29.7,227.6,30.7,227.6,33.1z"/>
	</g>
	<g>
		<rect x="70.3" y="62.4" class="st15" width="310.6" height="209.8"/>
		<g class="st12">
			<rect x="98" y="106.4" class="st3" width="261.2" height="147.3"/>
			<g class="st4">
				<path class="st2" d="M100.2,115.7c-0.4-0.2-0.6-0.5-0.8-0.8c-0.2-0.3-0.3-0.7-0.3-1.1c0-0.4,0.1-0.8,0.3-1.1s0.5-0.6,0.8-0.8
					s0.7-0.3,1.2-0.3c0.4,0,0.8,0.1,1.1,0.3c0.4,0.2,0.6,0.5,0.8,0.8s0.3,0.7,0.3,1.1c0,0.4-0.1,0.8-0.3,1.1s-0.5,0.6-0.8,0.8
					c-0.4,0.2-0.7,0.3-1.1,0.3S100.6,115.9,100.2,115.7z"/>
			</g>
			<g class="st4">
				<path class="st2" d="M101.3,116.1c-0.4,0-0.8-0.1-1.2-0.3l0,0c-0.4-0.2-0.7-0.5-0.9-0.9c-0.2-0.4-0.3-0.8-0.3-1.2
					c0-0.4,0.1-0.8,0.3-1.2c0.2-0.4,0.5-0.7,0.9-0.9c0.4-0.2,0.8-0.3,1.2-0.3c0.4,0,0.8,0.1,1.2,0.3c0.4,0.2,0.7,0.5,0.9,0.9
					c0.2,0.4,0.3,0.8,0.3,1.2c0,0.4-0.1,0.8-0.3,1.2c-0.2,0.4-0.5,0.6-0.9,0.9C102.2,116,101.8,116.1,101.3,116.1z M101.3,111.6
					c-0.4,0-0.8,0.1-1.1,0.3c-0.3,0.2-0.6,0.5-0.8,0.8c-0.2,0.3-0.3,0.7-0.3,1c0,0.4,0.1,0.7,0.3,1.1c0.2,0.3,0.5,0.6,0.8,0.8l0,0
					c0.7,0.4,1.5,0.4,2.2,0c0.3-0.2,0.6-0.4,0.8-0.8c0.2-0.3,0.3-0.7,0.3-1.1c0-0.4-0.1-0.8-0.3-1.1c-0.2-0.3-0.5-0.6-0.8-0.8
					C102.1,111.7,101.7,111.6,101.3,111.6z"/>
			</g>
			<g class="st4">
				<path class="st10" d="M129.5,117.1h-0.8l-1.1-3c-0.1-0.4-0.3-0.7-0.6-0.8c-0.3-0.1-0.6-0.2-1.1-0.2h-2.5v4h-0.8v-8.9h3.4
					c0.9,0,1.6,0.2,2.2,0.6s0.8,1,0.8,1.8c0,0.6-0.2,1.1-0.5,1.5s-0.7,0.7-1.3,0.8c0.3,0,0.5,0.2,0.7,0.3c0.2,0.2,0.3,0.4,0.5,0.8
					L129.5,117.1z M126.1,112.5c1.5,0,2.2-0.6,2.2-1.8c0-1.2-0.7-1.8-2.2-1.8h-2.6v3.6H126.1z"/>
				<path class="st10" d="M131.6,113.9L131.6,113.9c0,0.9,0.2,1.5,0.6,2c0.4,0.4,1,0.7,1.7,0.7c0.8,0,1.4-0.3,2.1-0.8l0.3,0.6
					c-0.3,0.3-0.6,0.5-1.1,0.6c-0.4,0.2-0.9,0.2-1.3,0.2c-1,0-1.7-0.3-2.3-0.9c-0.6-0.6-0.8-1.4-0.8-2.4c0-0.6,0.1-1.2,0.4-1.7
					s0.6-0.9,1-1.2s1-0.4,1.5-0.4c0.8,0,1.5,0.3,1.9,0.8c0.5,0.5,0.7,1.3,0.7,2.2v0.2H131.6z M132.3,111.8c-0.4,0.3-0.6,0.8-0.7,1.5
					h4c0-0.6-0.2-1.1-0.6-1.5c-0.3-0.3-0.8-0.5-1.3-0.5C133.1,111.3,132.7,111.5,132.3,111.8z"/>
				<path class="st10" d="M146.8,113.1v4h-0.8v-3.9c0-0.6-0.1-1.1-0.3-1.4s-0.6-0.4-1.1-0.4c-0.6,0-1,0.2-1.4,0.6s-0.5,0.9-0.5,1.6
					v3.6H142v-3.9c0-0.6-0.1-1.1-0.3-1.4c-0.2-0.3-0.6-0.4-1.1-0.4c-0.6,0-1,0.2-1.4,0.6s-0.5,0.9-0.5,1.6v3.6H138v-4.5
					c0-0.7,0-1.2-0.1-1.7h0.7l0.1,1.1c0.2-0.4,0.4-0.7,0.8-1c0.3-0.2,0.7-0.3,1.2-0.3c1,0,1.7,0.4,1.9,1.2c0.2-0.4,0.4-0.7,0.8-0.9
					c0.4-0.2,0.8-0.3,1.3-0.3C146.1,110.7,146.8,111.5,146.8,113.1z"/>
				<path class="st10" d="M149.3,113.9L149.3,113.9c0,0.9,0.2,1.5,0.6,2c0.4,0.4,1,0.7,1.7,0.7c0.8,0,1.4-0.3,2.1-0.8l0.3,0.6
					c-0.3,0.3-0.6,0.5-1.1,0.6c-0.4,0.2-0.9,0.2-1.3,0.2c-1,0-1.7-0.3-2.3-0.9c-0.6-0.6-0.8-1.4-0.8-2.4c0-0.6,0.1-1.2,0.4-1.7
					s0.6-0.9,1-1.2s1-0.4,1.5-0.4c0.8,0,1.5,0.3,1.9,0.8c0.5,0.5,0.7,1.3,0.7,2.2v0.2H149.3z M150,111.8c-0.4,0.3-0.6,0.8-0.7,1.5h4
					c0-0.6-0.2-1.1-0.6-1.5c-0.3-0.3-0.8-0.5-1.3-0.5C150.8,111.3,150.4,111.5,150,111.8z"/>
				<path class="st10" d="M161,107.9v9.2h-0.8v-1.2c-0.2,0.4-0.5,0.7-0.8,1c-0.4,0.2-0.8,0.3-1.3,0.3c-0.6,0-1-0.1-1.5-0.4
					c-0.4-0.3-0.8-0.7-1-1.2s-0.4-1.1-0.4-1.7c0-0.7,0.1-1.2,0.3-1.7c0.2-0.5,0.6-0.9,1-1.1c0.4-0.3,0.9-0.4,1.5-0.4
					c0.5,0,1,0.1,1.3,0.3c0.4,0.2,0.7,0.5,0.8,1v-4.1H161z M159.7,115.9c0.4-0.5,0.5-1.1,0.5-1.9s-0.2-1.5-0.5-1.9
					c-0.4-0.5-0.9-0.7-1.5-0.7c-0.7,0-1.2,0.2-1.6,0.7c-0.4,0.5-0.6,1.1-0.6,1.9c0,0.8,0.2,1.5,0.6,1.9s0.9,0.7,1.5,0.7
					C158.8,116.5,159.4,116.3,159.7,115.9z"/>
				<path class="st10" d="M164,108.2v1h-1v-1H164z M163.1,110.8h0.8v6.3h-0.8V110.8z"/>
				<path class="st10" d="M171.3,110.8v6.3h-0.8v-1.2c-0.2,0.4-0.5,0.7-0.8,1c-0.4,0.2-0.8,0.3-1.3,0.3c-0.6,0-1.1-0.1-1.5-0.4
					s-0.7-0.6-1-1.1c-0.2-0.5-0.3-1.1-0.3-1.7s0.1-1.2,0.4-1.7s0.6-0.9,1-1.2s0.9-0.4,1.5-0.4c0.5,0,1,0.1,1.3,0.3
					c0.4,0.2,0.7,0.5,0.8,1v-1.1H171.3z M170,115.9c0.4-0.5,0.5-1.1,0.5-1.9c0-0.8-0.2-1.5-0.5-1.9c-0.4-0.5-0.9-0.7-1.5-0.7
					c-0.7,0-1.2,0.2-1.5,0.7s-0.6,1.1-0.6,1.9c0,0.8,0.2,1.4,0.6,1.9c0.4,0.4,0.9,0.7,1.6,0.7C169.1,116.5,169.6,116.3,170,115.9z"
					/>
				<path class="st10" d="M174.4,111.5v3.7c0,0.5,0.1,0.8,0.3,1c0.2,0.2,0.5,0.3,0.9,0.3c0.2,0,0.5,0,0.7-0.1v0.7
					c-0.3,0.1-0.5,0.1-0.8,0.1c-0.6,0-1-0.2-1.3-0.5c-0.3-0.3-0.5-0.8-0.5-1.4v-3.9h-1.2v-0.6h1.2v-1.7l0.8-0.3v2h1.9v0.6H174.4z"/>
				<path class="st10" d="M178.5,108.2v1h-1v-1H178.5z M177.6,110.8h0.8v6.3h-0.8V110.8z"/>
				<path class="st10" d="M181.4,116.8c-0.4-0.3-0.8-0.6-1-1.1c-0.2-0.5-0.4-1.1-0.4-1.7s0.1-1.2,0.4-1.7c0.2-0.5,0.6-0.9,1-1.1
					c0.4-0.3,0.9-0.4,1.5-0.4c0.6,0,1.1,0.1,1.5,0.4c0.4,0.3,0.8,0.6,1,1.1c0.2,0.5,0.4,1.1,0.4,1.7s-0.1,1.2-0.4,1.7
					c-0.2,0.5-0.6,0.9-1,1.1c-0.4,0.3-0.9,0.4-1.5,0.4C182.4,117.2,181.9,117.1,181.4,116.8z M184.5,115.9c0.4-0.4,0.5-1.1,0.5-1.9
					c0-0.8-0.2-1.5-0.6-1.9c-0.4-0.5-0.9-0.7-1.5-0.7c-0.7,0-1.2,0.2-1.5,0.7c-0.4,0.5-0.6,1.1-0.6,1.9c0,0.8,0.2,1.5,0.5,1.9
					c0.4,0.4,0.9,0.7,1.5,0.7S184.1,116.3,184.5,115.9z"/>
				<path class="st10" d="M192.7,113.1v4h-0.8v-3.9c0-0.6-0.1-1.1-0.4-1.4c-0.3-0.3-0.7-0.4-1.2-0.4c-0.6,0-1.1,0.2-1.5,0.6
					s-0.6,0.9-0.6,1.6v3.6h-0.8v-4.5c0-0.7,0-1.2-0.1-1.7h0.7l0.1,1.2c0.2-0.4,0.5-0.7,0.9-1c0.4-0.2,0.8-0.3,1.3-0.3
					C191.9,110.7,192.7,111.5,192.7,113.1z"/>
			</g>
			<g class="st4">
				<path class="st2" d="M100.2,139.2c-0.4-0.2-0.6-0.5-0.8-0.8c-0.2-0.3-0.3-0.7-0.3-1.1c0-0.4,0.1-0.8,0.3-1.1s0.5-0.6,0.8-0.8
					s0.7-0.3,1.2-0.3c0.4,0,0.8,0.1,1.1,0.3c0.4,0.2,0.6,0.5,0.8,0.8s0.3,0.7,0.3,1.1c0,0.4-0.1,0.8-0.3,1.1s-0.5,0.6-0.8,0.8
					c-0.4,0.2-0.7,0.3-1.1,0.3S100.6,139.4,100.2,139.2z"/>
			</g>
			<g class="st4">
				<path class="st2" d="M101.3,139.6c-0.4,0-0.8-0.1-1.2-0.3l0,0c-0.4-0.2-0.7-0.5-0.9-0.9c-0.2-0.4-0.3-0.8-0.3-1.2
					c0-0.4,0.1-0.8,0.3-1.2c0.2-0.4,0.5-0.7,0.9-0.9c0.4-0.2,0.8-0.3,1.2-0.3c0.4,0,0.8,0.1,1.2,0.3c0.4,0.2,0.7,0.5,0.9,0.9
					c0.2,0.4,0.3,0.8,0.3,1.2c0,0.4-0.1,0.8-0.3,1.2c-0.2,0.4-0.5,0.6-0.9,0.9C102.2,139.5,101.8,139.6,101.3,139.6z M101.3,135.1
					c-0.4,0-0.8,0.1-1.1,0.3c-0.3,0.2-0.6,0.5-0.8,0.8c-0.2,0.3-0.3,0.7-0.3,1c0,0.4,0.1,0.7,0.3,1.1c0.2,0.3,0.5,0.6,0.8,0.8l0,0
					c0.7,0.4,1.5,0.4,2.2,0c0.3-0.2,0.6-0.4,0.8-0.8c0.2-0.3,0.3-0.7,0.3-1.1c0-0.4-0.1-0.8-0.3-1.1c-0.2-0.3-0.5-0.6-0.8-0.8
					C102.1,135.2,101.7,135.1,101.3,135.1z"/>
			</g>
			<g class="st4">
				<path class="st10" d="M128.5,138.2h-4.8l-1,2.4h-0.8l3.9-8.9h0.7l3.9,8.9h-0.8L128.5,138.2z M128.2,137.6l-2.1-4.9l-2.1,4.9
					H128.2z"/>
				<path class="st10" d="M137.1,134.3v6.3c0,0.9-0.2,1.6-0.7,2.1c-0.5,0.5-1.1,0.7-2,0.7c-0.9,0-1.8-0.2-2.4-0.7l0.2-0.7
					c0.4,0.2,0.8,0.4,1.1,0.5c0.3,0.1,0.7,0.2,1.2,0.2c0.6,0,1.1-0.2,1.4-0.5c0.3-0.3,0.5-0.8,0.5-1.5v-1.6c-0.2,0.4-0.5,0.8-0.9,1
					c-0.4,0.2-0.8,0.3-1.4,0.3c-0.6,0-1-0.1-1.5-0.4c-0.4-0.3-0.8-0.6-1-1.1c-0.2-0.5-0.4-1-0.4-1.6c0-0.6,0.1-1.2,0.4-1.6
					c0.2-0.5,0.6-0.8,1-1.1c0.4-0.3,0.9-0.4,1.5-0.4c0.5,0,1,0.1,1.3,0.3c0.4,0.2,0.7,0.5,0.8,1v-1.1H137.1z M135.7,139.1
					c0.4-0.4,0.6-1,0.6-1.8c0-0.8-0.2-1.4-0.6-1.8c-0.4-0.4-0.9-0.7-1.5-0.7c-0.7,0-1.2,0.2-1.6,0.7s-0.6,1-0.6,1.8
					c0,0.8,0.2,1.4,0.6,1.8c0.4,0.4,0.9,0.6,1.6,0.6C134.8,139.7,135.4,139.5,135.7,139.1z"/>
				<path class="st10" d="M139.5,137.4L139.5,137.4c0,0.9,0.2,1.5,0.6,2c0.4,0.4,1,0.7,1.7,0.7c0.8,0,1.4-0.3,2.1-0.8l0.3,0.6
					c-0.3,0.3-0.6,0.5-1.1,0.6c-0.4,0.2-0.9,0.2-1.3,0.2c-1,0-1.7-0.3-2.3-0.9c-0.6-0.6-0.8-1.4-0.8-2.4c0-0.6,0.1-1.2,0.4-1.7
					s0.6-0.9,1-1.2s1-0.4,1.5-0.4c0.8,0,1.5,0.3,1.9,0.8c0.5,0.5,0.7,1.3,0.7,2.2v0.2H139.5z M140.3,135.3c-0.4,0.3-0.6,0.8-0.7,1.5
					h4c0-0.6-0.2-1.1-0.6-1.5c-0.3-0.3-0.8-0.5-1.3-0.5C141.1,134.8,140.6,135,140.3,135.3z"/>
				<path class="st10" d="M151.1,136.6v4h-0.8v-3.9c0-0.6-0.1-1.1-0.4-1.4c-0.3-0.3-0.7-0.4-1.2-0.4c-0.6,0-1.1,0.2-1.5,0.6
					s-0.6,0.9-0.6,1.6v3.6h-0.8v-4.5c0-0.7,0-1.2-0.1-1.7h0.7l0.1,1.2c0.2-0.4,0.5-0.7,0.9-1c0.4-0.2,0.8-0.3,1.3-0.3
					C150.4,134.2,151.1,135,151.1,136.6z"/>
				<path class="st10" d="M154.2,140.3c-0.4-0.3-0.8-0.6-1-1.1c-0.2-0.5-0.4-1.1-0.4-1.7c0-0.7,0.1-1.2,0.4-1.7
					c0.2-0.5,0.6-0.9,1-1.2s1-0.4,1.6-0.4c0.4,0,0.8,0.1,1.2,0.2c0.4,0.1,0.7,0.3,1,0.6l-0.3,0.6c-0.3-0.3-0.6-0.5-0.9-0.6
					c-0.3-0.1-0.6-0.2-0.9-0.2c-0.7,0-1.2,0.2-1.6,0.7s-0.6,1.1-0.6,1.9c0,0.8,0.2,1.4,0.6,1.9c0.4,0.5,0.9,0.7,1.6,0.7
					c0.3,0,0.6-0.1,0.9-0.2c0.3-0.1,0.6-0.3,0.9-0.6l0.3,0.6c-0.3,0.3-0.6,0.5-1,0.6s-0.8,0.2-1.2,0.2
					C155.1,140.7,154.6,140.6,154.2,140.3z"/>
				<path class="st10" d="M164.7,134.3l-3,6.9c-0.3,0.7-0.7,1.2-1.1,1.5c-0.4,0.3-1,0.5-1.6,0.7l-0.2-0.6c0.6-0.1,1.1-0.3,1.4-0.6
					c0.3-0.2,0.6-0.6,0.8-1.1l0.3-0.6l-2.7-6.3h0.8l2.3,5.5l2.3-5.5H164.7z"/>
				<path class="st10" d="M169.2,131.7h5.4v0.7H170v3.4h4.3v0.7H170v4.2h-0.8V131.7z"/>
				<path class="st10" d="M177,131.7v1h-1v-1H177z M176.1,134.3h0.8v6.3h-0.8V134.3z"/>
				<path class="st10" d="M184.1,136.6v4h-0.8v-3.9c0-0.6-0.1-1.1-0.4-1.4c-0.3-0.3-0.7-0.4-1.2-0.4c-0.6,0-1.1,0.2-1.5,0.6
					s-0.6,0.9-0.6,1.6v3.6H179v-4.5c0-0.7,0-1.2-0.1-1.7h0.7l0.1,1.2c0.2-0.4,0.5-0.7,0.9-1c0.4-0.2,0.8-0.3,1.3-0.3
					C183.4,134.2,184.1,135,184.1,136.6z"/>
				<path class="st10" d="M191.5,134.3v6.3h-0.8v-1.2c-0.2,0.4-0.5,0.7-0.8,1c-0.4,0.2-0.8,0.3-1.3,0.3c-0.6,0-1.1-0.1-1.5-0.4
					s-0.7-0.6-1-1.1c-0.2-0.5-0.3-1.1-0.3-1.7s0.1-1.2,0.4-1.7s0.6-0.9,1-1.2s0.9-0.4,1.5-0.4c0.5,0,1,0.1,1.3,0.3
					c0.4,0.2,0.7,0.5,0.8,1v-1.1H191.5z M190.2,139.4c0.4-0.5,0.5-1.1,0.5-1.9c0-0.8-0.2-1.5-0.5-1.9c-0.4-0.5-0.9-0.7-1.5-0.7
					c-0.7,0-1.2,0.2-1.5,0.7s-0.6,1.1-0.6,1.9c0,0.8,0.2,1.4,0.6,1.9c0.4,0.4,0.9,0.7,1.6,0.7C189.4,140,189.9,139.8,190.2,139.4z"
					/>
				<path class="st10" d="M193.6,131.4h0.8v9.2h-0.8V131.4z"/>
				<path class="st10" d="M206.6,140.6h-0.8l-1.1-3c-0.1-0.4-0.3-0.7-0.6-0.8c-0.3-0.1-0.6-0.2-1.1-0.2h-2.5v4h-0.8v-8.9h3.4
					c0.9,0,1.6,0.2,2.2,0.6s0.8,1,0.8,1.8c0,0.6-0.2,1.1-0.5,1.5s-0.7,0.7-1.3,0.8c0.3,0,0.5,0.2,0.7,0.3c0.2,0.2,0.3,0.4,0.5,0.8
					L206.6,140.6z M203.2,136c1.5,0,2.2-0.6,2.2-1.8c0-1.2-0.7-1.8-2.2-1.8h-2.6v3.6H203.2z"/>
				<path class="st10" d="M208.7,137.4L208.7,137.4c0,0.9,0.2,1.5,0.6,2c0.4,0.4,1,0.7,1.7,0.7c0.8,0,1.4-0.3,2.1-0.8l0.3,0.6
					c-0.3,0.3-0.6,0.5-1.1,0.6c-0.4,0.2-0.9,0.2-1.3,0.2c-1,0-1.7-0.3-2.3-0.9c-0.6-0.6-0.8-1.4-0.8-2.4c0-0.6,0.1-1.2,0.4-1.7
					s0.6-0.9,1-1.2s1-0.4,1.5-0.4c0.8,0,1.5,0.3,1.9,0.8c0.5,0.5,0.7,1.3,0.7,2.2v0.2H208.7z M209.4,135.3c-0.4,0.3-0.6,0.8-0.7,1.5
					h4c0-0.6-0.2-1.1-0.6-1.5c-0.3-0.3-0.8-0.5-1.3-0.5C210.2,134.8,209.8,135,209.4,135.3z"/>
				<path class="st10" d="M220.4,134.3l-2.7,6.3h-0.8l-2.7-6.3h0.8l2.3,5.5l2.3-5.5H220.4z"/>
				<path class="st10" d="M222.5,131.7v1h-1v-1H222.5z M221.6,134.3h0.8v6.3h-0.8V134.3z"/>
				<path class="st10" d="M224.9,137.4L224.9,137.4c0,0.9,0.2,1.5,0.6,2c0.4,0.4,1,0.7,1.7,0.7c0.8,0,1.4-0.3,2.1-0.8l0.3,0.6
					c-0.3,0.3-0.6,0.5-1.1,0.6c-0.4,0.2-0.9,0.2-1.3,0.2c-1,0-1.7-0.3-2.3-0.9c-0.6-0.6-0.8-1.4-0.8-2.4c0-0.6,0.1-1.2,0.4-1.7
					s0.6-0.9,1-1.2s1-0.4,1.5-0.4c0.8,0,1.5,0.3,1.9,0.8c0.5,0.5,0.7,1.3,0.7,2.2v0.2H224.9z M225.6,135.3c-0.4,0.3-0.6,0.8-0.7,1.5
					h4c-0.1-0.6-0.2-1.1-0.6-1.5s-0.8-0.5-1.3-0.5C226.4,134.8,225.9,135,225.6,135.3z"/>
				<path class="st10" d="M240.6,134.3l-2.3,6.3h-0.8l-1.9-5.3l-1.9,5.3h-0.8l-2.3-6.3h0.8l1.9,5.4l2-5.4h0.8l1.9,5.4l1.9-5.4H240.6
					z"/>
			</g>
			<g class="st4">
				<path class="st2" d="M100.2,162.7c-0.4-0.2-0.6-0.5-0.8-0.8c-0.2-0.3-0.3-0.7-0.3-1.1c0-0.4,0.1-0.8,0.3-1.1s0.5-0.6,0.8-0.8
					s0.7-0.3,1.2-0.3c0.4,0,0.8,0.1,1.1,0.3c0.4,0.2,0.6,0.5,0.8,0.8s0.3,0.7,0.3,1.1c0,0.4-0.1,0.8-0.3,1.1s-0.5,0.6-0.8,0.8
					c-0.4,0.2-0.7,0.3-1.1,0.3S100.6,162.9,100.2,162.7z"/>
			</g>
			<g class="st4">
				<path class="st2" d="M101.3,163.1c-0.4,0-0.8-0.1-1.2-0.3l0,0c-0.4-0.2-0.7-0.5-0.9-0.9c-0.2-0.4-0.3-0.8-0.3-1.2
					c0-0.4,0.1-0.8,0.3-1.2c0.2-0.4,0.5-0.7,0.9-0.9c0.4-0.2,0.8-0.3,1.2-0.3c0.4,0,0.8,0.1,1.2,0.3c0.4,0.2,0.7,0.5,0.9,0.9
					c0.2,0.4,0.3,0.8,0.3,1.2c0,0.4-0.1,0.8-0.3,1.2c-0.2,0.4-0.5,0.6-0.9,0.9C102.2,163,101.8,163.1,101.3,163.1z M101.3,158.6
					c-0.4,0-0.8,0.1-1.1,0.3c-0.3,0.2-0.6,0.5-0.8,0.8c-0.2,0.3-0.3,0.7-0.3,1c0,0.4,0.1,0.7,0.3,1.1c0.2,0.3,0.5,0.6,0.8,0.8l0,0
					c0.7,0.4,1.5,0.4,2.2,0c0.3-0.2,0.6-0.4,0.8-0.8c0.2-0.3,0.3-0.7,0.3-1.1c0-0.4-0.1-0.8-0.3-1.1c-0.2-0.3-0.5-0.6-0.8-0.8
					C102.1,158.7,101.7,158.6,101.3,158.6z"/>
			</g>
			<g class="st4">
				<path class="st10" d="M128.5,161.7h-4.8l-1,2.4h-0.8l3.9-8.9h0.7l3.9,8.9h-0.8L128.5,161.7z M128.2,161.1l-2.1-4.9l-2.1,4.9
					H128.2z"/>
				<path class="st10" d="M137.1,157.8v6.3c0,0.9-0.2,1.6-0.7,2.1c-0.5,0.5-1.1,0.7-2,0.7c-0.9,0-1.8-0.2-2.4-0.7l0.2-0.7
					c0.4,0.2,0.8,0.4,1.1,0.5c0.3,0.1,0.7,0.2,1.2,0.2c0.6,0,1.1-0.2,1.4-0.5c0.3-0.3,0.5-0.8,0.5-1.5v-1.6c-0.2,0.4-0.5,0.8-0.9,1
					c-0.4,0.2-0.8,0.3-1.4,0.3c-0.6,0-1-0.1-1.5-0.4c-0.4-0.3-0.8-0.6-1-1.1c-0.2-0.5-0.4-1-0.4-1.6c0-0.6,0.1-1.2,0.4-1.6
					c0.2-0.5,0.6-0.8,1-1.1c0.4-0.3,0.9-0.4,1.5-0.4c0.5,0,1,0.1,1.3,0.3c0.4,0.2,0.7,0.5,0.8,1v-1.1H137.1z M135.7,162.6
					c0.4-0.4,0.6-1,0.6-1.8c0-0.8-0.2-1.4-0.6-1.8c-0.4-0.4-0.9-0.7-1.5-0.7c-0.7,0-1.2,0.2-1.6,0.7s-0.6,1-0.6,1.8
					c0,0.8,0.2,1.4,0.6,1.8c0.4,0.4,0.9,0.6,1.6,0.6C134.8,163.2,135.4,163,135.7,162.6z"/>
				<path class="st10" d="M139.5,160.9L139.5,160.9c0,0.9,0.2,1.5,0.6,2c0.4,0.4,1,0.7,1.7,0.7c0.8,0,1.4-0.3,2.1-0.8l0.3,0.6
					c-0.3,0.3-0.6,0.5-1.1,0.6c-0.4,0.2-0.9,0.2-1.3,0.2c-1,0-1.7-0.3-2.3-0.9c-0.6-0.6-0.8-1.4-0.8-2.4c0-0.6,0.1-1.2,0.4-1.7
					s0.6-0.9,1-1.2s1-0.4,1.5-0.4c0.8,0,1.5,0.3,1.9,0.8c0.5,0.5,0.7,1.3,0.7,2.2v0.2H139.5z M140.3,158.8c-0.4,0.3-0.6,0.8-0.7,1.5
					h4c0-0.6-0.2-1.1-0.6-1.5c-0.3-0.3-0.8-0.5-1.3-0.5C141.1,158.3,140.6,158.5,140.3,158.8z"/>
				<path class="st10" d="M151.1,160.1v4h-0.8v-3.9c0-0.6-0.1-1.1-0.4-1.4c-0.3-0.3-0.7-0.4-1.2-0.4c-0.6,0-1.1,0.2-1.5,0.6
					s-0.6,0.9-0.6,1.6v3.6h-0.8v-4.5c0-0.7,0-1.2-0.1-1.7h0.7l0.1,1.2c0.2-0.4,0.5-0.7,0.9-1c0.4-0.2,0.8-0.3,1.3-0.3
					C150.4,157.7,151.1,158.5,151.1,160.1z"/>
				<path class="st10" d="M154.2,163.8c-0.4-0.3-0.8-0.6-1-1.1c-0.2-0.5-0.4-1.1-0.4-1.7c0-0.7,0.1-1.2,0.4-1.7
					c0.2-0.5,0.6-0.9,1-1.2s1-0.4,1.6-0.4c0.4,0,0.8,0.1,1.2,0.2c0.4,0.1,0.7,0.3,1,0.6l-0.3,0.6c-0.3-0.3-0.6-0.5-0.9-0.6
					c-0.3-0.1-0.6-0.2-0.9-0.2c-0.7,0-1.2,0.2-1.6,0.7s-0.6,1.1-0.6,1.9c0,0.8,0.2,1.4,0.6,1.9c0.4,0.5,0.9,0.7,1.6,0.7
					c0.3,0,0.6-0.1,0.9-0.2c0.3-0.1,0.6-0.3,0.9-0.6l0.3,0.6c-0.3,0.3-0.6,0.5-1,0.6s-0.8,0.2-1.2,0.2
					C155.1,164.2,154.6,164.1,154.2,163.8z"/>
				<path class="st10" d="M164.7,157.8l-3,6.9c-0.3,0.7-0.7,1.2-1.1,1.5c-0.4,0.3-1,0.5-1.6,0.7l-0.2-0.6c0.6-0.1,1.1-0.3,1.4-0.6
					c0.3-0.2,0.6-0.6,0.8-1.1l0.3-0.6l-2.7-6.3h0.8l2.3,5.5l2.3-5.5H164.7z"/>
				<path class="st10" d="M169.2,155.2h0.8v8.9h-0.8V155.2z"/>
				<path class="st10" d="M171.8,163.4l0.3-0.6c0.3,0.3,0.7,0.5,1,0.6c0.3,0.1,0.7,0.2,1.2,0.2c0.5,0,0.9-0.1,1.2-0.3
					c0.3-0.2,0.4-0.4,0.4-0.8c0-0.3-0.1-0.5-0.3-0.7c-0.2-0.2-0.5-0.3-0.9-0.4l-1.1-0.2c-0.5-0.1-0.9-0.3-1.2-0.6
					c-0.3-0.3-0.4-0.7-0.4-1.1c0-0.6,0.2-1,0.6-1.3s1-0.5,1.7-0.5c0.4,0,0.9,0.1,1.2,0.2c0.4,0.1,0.7,0.3,0.9,0.6l-0.3,0.6
					c-0.6-0.5-1.2-0.8-1.9-0.8c-0.5,0-0.9,0.1-1.1,0.3s-0.4,0.5-0.4,0.8c0,0.3,0.1,0.5,0.3,0.7c0.2,0.2,0.4,0.3,0.8,0.4l1.1,0.3
					c1.1,0.3,1.7,0.8,1.7,1.7c0,0.5-0.2,1-0.7,1.3c-0.4,0.3-1,0.5-1.8,0.5C173.2,164.2,172.4,163.9,171.8,163.4z"/>
				<path class="st10" d="M178,163.4l0.3-0.6c0.3,0.3,0.7,0.5,1,0.6c0.3,0.1,0.7,0.2,1.2,0.2c0.5,0,0.9-0.1,1.2-0.3
					c0.3-0.2,0.4-0.4,0.4-0.8c0-0.3-0.1-0.5-0.3-0.7c-0.2-0.2-0.5-0.3-0.9-0.4l-1.1-0.2c-0.5-0.1-0.9-0.3-1.2-0.6
					c-0.3-0.3-0.4-0.7-0.4-1.1c0-0.6,0.2-1,0.6-1.3s1-0.5,1.7-0.5c0.4,0,0.9,0.1,1.2,0.2c0.4,0.1,0.7,0.3,0.9,0.6l-0.3,0.6
					c-0.6-0.5-1.2-0.8-1.9-0.8c-0.5,0-0.9,0.1-1.1,0.3s-0.4,0.5-0.4,0.8c0,0.3,0.1,0.5,0.3,0.7c0.2,0.2,0.4,0.3,0.8,0.4l1.1,0.3
					c1.1,0.3,1.7,0.8,1.7,1.7c0,0.5-0.2,1-0.7,1.3c-0.4,0.3-1,0.5-1.8,0.5C179.4,164.2,178.6,163.9,178,163.4z"/>
				<path class="st10" d="M189.6,157.8v6.3h-0.7V163c-0.2,0.4-0.5,0.7-0.9,0.9s-0.8,0.3-1.3,0.3c-0.7,0-1.3-0.2-1.7-0.6
					c-0.4-0.4-0.6-1-0.6-1.8v-3.9h0.8v3.9c0,0.6,0.1,1.1,0.4,1.4c0.3,0.3,0.6,0.4,1.2,0.4c0.6,0,1.1-0.2,1.5-0.6s0.6-0.9,0.6-1.5
					v-3.6H189.6z"/>
				<path class="st10" d="M192.1,160.9L192.1,160.9c0,0.9,0.2,1.5,0.6,2c0.4,0.4,1,0.7,1.7,0.7c0.8,0,1.4-0.3,2.1-0.8l0.3,0.6
					c-0.3,0.3-0.6,0.5-1.1,0.6c-0.4,0.2-0.9,0.2-1.3,0.2c-1,0-1.7-0.3-2.3-0.9c-0.6-0.6-0.8-1.4-0.8-2.4c0-0.6,0.1-1.2,0.4-1.7
					s0.6-0.9,1-1.2s1-0.4,1.5-0.4c0.8,0,1.5,0.3,1.9,0.8c0.5,0.5,0.7,1.3,0.7,2.2v0.2H192.1z M192.8,158.8c-0.4,0.3-0.6,0.8-0.7,1.5
					h4c0-0.6-0.2-1.1-0.6-1.5c-0.3-0.3-0.8-0.5-1.3-0.5C193.7,158.3,193.2,158.5,192.8,158.8z"/>
				<path class="st10" d="M198.1,163.4l0.3-0.6c0.3,0.3,0.7,0.5,1,0.6c0.3,0.1,0.7,0.2,1.2,0.2c0.5,0,0.9-0.1,1.2-0.3
					c0.3-0.2,0.4-0.4,0.4-0.8c0-0.3-0.1-0.5-0.3-0.7c-0.2-0.2-0.5-0.3-0.9-0.4l-1.1-0.2c-0.5-0.1-0.9-0.3-1.2-0.6
					c-0.3-0.3-0.4-0.7-0.4-1.1c0-0.6,0.2-1,0.6-1.3s1-0.5,1.7-0.5c0.4,0,0.9,0.1,1.2,0.2c0.4,0.1,0.7,0.3,0.9,0.6l-0.3,0.6
					c-0.6-0.5-1.2-0.8-1.9-0.8c-0.5,0-0.9,0.1-1.1,0.3s-0.4,0.5-0.4,0.8c0,0.3,0.1,0.5,0.3,0.7c0.2,0.2,0.4,0.3,0.8,0.4l1.1,0.3
					c1.1,0.3,1.7,0.8,1.7,1.7c0,0.5-0.2,1-0.7,1.3c-0.4,0.3-1,0.5-1.8,0.5C199.5,164.2,198.7,163.9,198.1,163.4z"/>
				<path class="st10" d="M213.8,161.7H209l-1,2.4h-0.8l3.9-8.9h0.7l3.9,8.9h-0.8L213.8,161.7z M213.5,161.1l-2.1-4.9l-2.1,4.9
					H213.5z"/>
				<path class="st10" d="M218.3,155.9h-3.2v-0.7h7.2v0.7h-3.2v8.2h-0.8V155.9z"/>
				<path class="st10" d="M224.5,163.7c-0.6-0.4-1.1-0.9-1.4-1.6c-0.3-0.7-0.5-1.5-0.5-2.4c0-0.9,0.2-1.7,0.5-2.4
					c0.3-0.7,0.8-1.2,1.4-1.6c0.6-0.4,1.3-0.6,2.1-0.6c0.8,0,1.5,0.2,2.1,0.6s1.1,0.9,1.4,1.6c0.3,0.7,0.5,1.5,0.5,2.4
					c0,0.9-0.2,1.7-0.5,2.4c-0.3,0.7-0.8,1.2-1.4,1.6s-1.3,0.6-2.1,0.6C225.8,164.2,225.1,164,224.5,163.7z M229,162.5
					c0.6-0.7,0.8-1.6,0.8-2.9c0-1.2-0.3-2.2-0.8-2.9c-0.6-0.7-1.3-1-2.3-1c-1,0-1.8,0.3-2.3,1c-0.6,0.7-0.8,1.6-0.8,2.9
					c0,1.2,0.3,2.2,0.8,2.9s1.3,1,2.3,1C227.6,163.5,228.4,163.2,229,162.5z"/>
			</g>
			<g class="st4">
				<path class="st2" d="M100.2,186.2c-0.4-0.2-0.6-0.5-0.8-0.8c-0.2-0.3-0.3-0.7-0.3-1.1c0-0.4,0.1-0.8,0.3-1.1s0.5-0.6,0.8-0.8
					s0.7-0.3,1.2-0.3c0.4,0,0.8,0.1,1.1,0.3c0.4,0.2,0.6,0.5,0.8,0.8s0.3,0.7,0.3,1.1c0,0.4-0.1,0.8-0.3,1.1s-0.5,0.6-0.8,0.8
					c-0.4,0.2-0.7,0.3-1.1,0.3S100.6,186.4,100.2,186.2z"/>
			</g>
			<g class="st4">
				<path class="st2" d="M101.3,186.6c-0.4,0-0.8-0.1-1.2-0.3l0,0c-0.4-0.2-0.7-0.5-0.9-0.9c-0.2-0.4-0.3-0.8-0.3-1.2
					c0-0.4,0.1-0.8,0.3-1.2c0.2-0.4,0.5-0.7,0.9-0.9c0.4-0.2,0.8-0.3,1.2-0.3c0.4,0,0.8,0.1,1.2,0.3c0.4,0.2,0.7,0.5,0.9,0.9
					c0.2,0.4,0.3,0.8,0.3,1.2c0,0.4-0.1,0.8-0.3,1.2c-0.2,0.4-0.5,0.6-0.9,0.9C102.2,186.5,101.8,186.6,101.3,186.6z M101.3,182.1
					c-0.4,0-0.8,0.1-1.1,0.3c-0.3,0.2-0.6,0.5-0.8,0.8c-0.2,0.3-0.3,0.7-0.3,1c0,0.4,0.1,0.7,0.3,1.1c0.2,0.3,0.5,0.6,0.8,0.8l0,0
					c0.7,0.4,1.5,0.4,2.2,0c0.3-0.2,0.6-0.4,0.8-0.8c0.2-0.3,0.3-0.7,0.3-1.1c0-0.4-0.1-0.8-0.3-1.1c-0.2-0.3-0.5-0.6-0.8-0.8
					C102.1,182.2,101.7,182.1,101.3,182.1z"/>
			</g>
			<g class="st4">
				<path class="st10" d="M122.7,178.7h5.4v0.7h-4.6v3.4h4.3v0.7h-4.3v4.2h-0.8V178.7z"/>
				<path class="st10" d="M129.8,184.4L129.8,184.4c0,0.9,0.2,1.5,0.6,2c0.4,0.4,1,0.7,1.7,0.7c0.8,0,1.4-0.3,2.1-0.8l0.3,0.6
					c-0.3,0.3-0.6,0.5-1.1,0.6c-0.4,0.2-0.9,0.2-1.3,0.2c-1,0-1.7-0.3-2.3-0.9c-0.6-0.6-0.8-1.4-0.8-2.4c0-0.6,0.1-1.2,0.4-1.7
					s0.6-0.9,1-1.2s1-0.4,1.5-0.4c0.8,0,1.5,0.3,1.9,0.8c0.5,0.5,0.7,1.3,0.7,2.2v0.2H129.8z M130.6,182.3c-0.4,0.3-0.6,0.8-0.7,1.5
					h4c0-0.6-0.2-1.1-0.6-1.5c-0.3-0.3-0.8-0.5-1.3-0.5C131.4,181.8,130.9,182,130.6,182.3z"/>
				<path class="st10" d="M141.6,178.4v9.2h-0.8v-1.2c-0.2,0.4-0.5,0.7-0.8,1c-0.4,0.2-0.8,0.3-1.3,0.3c-0.6,0-1-0.1-1.5-0.4
					c-0.4-0.3-0.8-0.7-1-1.2s-0.4-1.1-0.4-1.7c0-0.7,0.1-1.2,0.3-1.7c0.2-0.5,0.6-0.9,1-1.1c0.4-0.3,0.9-0.4,1.5-0.4
					c0.5,0,1,0.1,1.3,0.3c0.4,0.2,0.7,0.5,0.8,1v-4.1H141.6z M140.3,186.4c0.4-0.5,0.5-1.1,0.5-1.9s-0.2-1.5-0.5-1.9
					c-0.4-0.5-0.9-0.7-1.5-0.7c-0.7,0-1.2,0.2-1.6,0.7c-0.4,0.5-0.6,1.1-0.6,1.9c0,0.8,0.2,1.5,0.6,1.9s0.9,0.7,1.5,0.7
					C139.4,187,139.9,186.8,140.3,186.4z"/>
				<path class="st10" d="M150.6,187.6h-0.8l-1.1-3c-0.1-0.4-0.3-0.7-0.6-0.8c-0.3-0.1-0.6-0.2-1.1-0.2h-2.5v4h-0.8v-8.9h3.4
					c0.9,0,1.6,0.2,2.2,0.6s0.8,1,0.8,1.8c0,0.6-0.2,1.1-0.5,1.5s-0.7,0.7-1.3,0.8c0.3,0,0.5,0.2,0.7,0.3c0.2,0.2,0.3,0.4,0.5,0.8
					L150.6,187.6z M147.2,183c1.5,0,2.2-0.6,2.2-1.8c0-1.2-0.7-1.8-2.2-1.8h-2.6v3.6H147.2z"/>
				<path class="st10" d="M158.1,185.2h-4.8l-1,2.4h-0.8l3.9-8.9h0.7l3.9,8.9h-0.8L158.1,185.2z M157.8,184.6l-2.1-4.9l-2.1,4.9
					H157.8z"/>
				<path class="st10" d="M169.8,178.7v8.9H169v-7.1l-3.1,7.1h-0.6l-3.2-7.1l0,7.1h-0.7v-8.9h0.6l3.5,8l3.5-8H169.8z"/>
				<path class="st10" d="M172.1,178.7h3.4c0.9,0,1.6,0.2,2.1,0.7s0.8,1,0.8,1.8c0,0.8-0.3,1.4-0.8,1.8c-0.5,0.4-1.2,0.7-2.1,0.7
					h-2.7v4h-0.8V178.7z M175.4,182.9c0.7,0,1.2-0.2,1.6-0.5s0.5-0.8,0.5-1.3c0-0.6-0.2-1-0.5-1.3s-0.9-0.5-1.6-0.5h-2.6v3.6H175.4z
					"/>
				<path class="st10" d="M183.3,178.7h3.4c0.9,0,1.6,0.2,2.1,0.7s0.8,1,0.8,1.8c0,0.8-0.3,1.4-0.8,1.8c-0.5,0.4-1.2,0.7-2.1,0.7
					h-2.7v4h-0.8V178.7z M186.7,182.9c0.7,0,1.2-0.2,1.6-0.5s0.5-0.8,0.5-1.3c0-0.6-0.2-1-0.5-1.3s-0.9-0.5-1.6-0.5h-2.6v3.6H186.7z
					"/>
				<path class="st10" d="M199.7,178.7v8.9H199v-7.1l-3.1,7.1h-0.6l-3.2-7.1l0,7.1h-0.7v-8.9h0.6l3.5,8l3.5-8H199.7z"/>
				<path class="st10" d="M203.6,187.2c-0.6-0.4-1.1-0.9-1.4-1.6c-0.3-0.7-0.5-1.5-0.5-2.4c0-0.9,0.2-1.7,0.5-2.4
					c0.3-0.7,0.8-1.2,1.4-1.6c0.6-0.4,1.3-0.6,2.1-0.6s1.5,0.2,2.1,0.6s1.1,0.9,1.4,1.6c0.3,0.7,0.5,1.5,0.5,2.4
					c0,0.9-0.2,1.7-0.5,2.4c-0.3,0.7-0.8,1.2-1.4,1.6c-0.6,0.4-1.3,0.6-2.1,0.6C204.9,187.7,204.1,187.5,203.6,187.2z M208,186
					c0.6-0.7,0.8-1.6,0.8-2.9c0-1.2-0.3-2.2-0.8-2.9c-0.6-0.7-1.3-1-2.3-1c-1,0-1.8,0.3-2.3,1c-0.6,0.7-0.8,1.6-0.8,2.9
					c0,1.2,0.3,2.2,0.8,2.9s1.3,1,2.3,1C206.7,187,207.4,186.7,208,186z"/>
				<path class="st10" d="M221.7,187.6h-0.8l-1.1-3c-0.1-0.4-0.3-0.7-0.6-0.8c-0.3-0.1-0.6-0.2-1.1-0.2h-2.5v4h-0.8v-8.9h3.4
					c0.9,0,1.6,0.2,2.2,0.6s0.8,1,0.8,1.8c0,0.6-0.2,1.1-0.5,1.5s-0.7,0.7-1.3,0.8c0.3,0,0.5,0.2,0.7,0.3c0.2,0.2,0.3,0.4,0.5,0.8
					L221.7,187.6z M218.2,183c1.5,0,2.2-0.6,2.2-1.8c0-1.2-0.7-1.8-2.2-1.8h-2.6v3.6H218.2z"/>
				<path class="st10" d="M223.7,184.4L223.7,184.4c0,0.9,0.2,1.5,0.6,2c0.4,0.4,1,0.7,1.7,0.7c0.8,0,1.4-0.3,2.1-0.8l0.3,0.6
					c-0.3,0.3-0.6,0.5-1.1,0.6c-0.4,0.2-0.9,0.2-1.3,0.2c-1,0-1.7-0.3-2.3-0.9c-0.6-0.6-0.8-1.4-0.8-2.4c0-0.6,0.1-1.2,0.4-1.7
					s0.6-0.9,1-1.2s1-0.4,1.5-0.4c0.8,0,1.5,0.3,1.9,0.8c0.5,0.5,0.7,1.3,0.7,2.2v0.2H223.7z M224.5,182.3c-0.4,0.3-0.6,0.8-0.7,1.5
					h4c-0.1-0.6-0.2-1.1-0.6-1.5s-0.8-0.5-1.3-0.5C225.3,181.8,224.8,182,224.5,182.3z"/>
				<path class="st10" d="M235.4,181.3l-2.7,6.3h-0.8l-2.7-6.3h0.8l2.3,5.5l2.3-5.5H235.4z"/>
				<path class="st10" d="M237.5,178.7v1h-1v-1H237.5z M236.6,181.3h0.8v6.3h-0.8V181.3z"/>
				<path class="st10" d="M239.9,184.4L239.9,184.4c0,0.9,0.2,1.5,0.6,2c0.4,0.4,1,0.7,1.7,0.7c0.8,0,1.4-0.3,2.1-0.8l0.3,0.6
					c-0.3,0.3-0.6,0.5-1.1,0.6c-0.4,0.2-0.9,0.2-1.3,0.2c-1,0-1.7-0.3-2.3-0.9c-0.6-0.6-0.8-1.4-0.8-2.4c0-0.6,0.1-1.2,0.4-1.7
					s0.6-0.9,1-1.2c0.4-0.3,1-0.4,1.5-0.4c0.8,0,1.5,0.3,1.9,0.8s0.7,1.3,0.7,2.2v0.2H239.9z M240.6,182.3c-0.4,0.3-0.6,0.8-0.7,1.5
					h4c-0.1-0.6-0.2-1.1-0.6-1.5s-0.8-0.5-1.3-0.5C241.5,181.8,241,182,240.6,182.3z"/>
				<path class="st10" d="M255.6,181.3l-2.3,6.3h-0.8l-1.9-5.3l-1.9,5.3h-0.8l-2.3-6.3h0.8l1.9,5.4l2-5.4h0.8l1.9,5.4l1.9-5.4H255.6
					z"/>
			</g>
			<g class="st4">
				<path class="st2" d="M100.2,209.7c-0.4-0.2-0.6-0.5-0.8-0.8c-0.2-0.3-0.3-0.7-0.3-1.1c0-0.4,0.1-0.7,0.3-1.1
					c0.2-0.3,0.5-0.6,0.8-0.8s0.7-0.3,1.2-0.3c0.4,0,0.8,0.1,1.1,0.3c0.4,0.2,0.6,0.5,0.8,0.8c0.2,0.3,0.3,0.7,0.3,1.1
					c0,0.4-0.1,0.8-0.3,1.1c-0.2,0.3-0.5,0.6-0.8,0.8c-0.4,0.2-0.7,0.3-1.1,0.3S100.6,209.9,100.2,209.7z"/>
			</g>
			<g class="st4">
				<path class="st2" d="M101.3,210.1c-0.4,0-0.8-0.1-1.2-0.3l0,0c-0.4-0.2-0.7-0.5-0.9-0.9c-0.2-0.4-0.3-0.8-0.3-1.2
					c0-0.4,0.1-0.8,0.3-1.2c0.2-0.4,0.5-0.7,0.9-0.9c0.4-0.2,0.8-0.3,1.2-0.3c0.4,0,0.8,0.1,1.2,0.3c0.4,0.2,0.7,0.5,0.9,0.9
					c0.2,0.4,0.3,0.8,0.3,1.2c0,0.4-0.1,0.8-0.3,1.2c-0.2,0.4-0.5,0.6-0.9,0.9C102.2,210,101.8,210.1,101.3,210.1z M100.3,209.6
					c0.7,0.4,1.5,0.4,2.2,0c0.3-0.2,0.6-0.4,0.8-0.8c0.2-0.3,0.3-0.7,0.3-1.1c0-0.4-0.1-0.8-0.3-1.1c-0.2-0.3-0.5-0.6-0.8-0.8
					c-0.7-0.4-1.5-0.4-2.2,0c-0.3,0.2-0.6,0.5-0.8,0.8s-0.3,0.7-0.3,1c0,0.4,0.1,0.7,0.3,1.1C99.7,209.2,99.9,209.4,100.3,209.6
					L100.3,209.6z"/>
			</g>
			<g class="st4">
				<path class="st10" d="M129.5,211.1h-0.8l-1.1-3c-0.1-0.4-0.3-0.7-0.6-0.8c-0.3-0.1-0.6-0.2-1.1-0.2h-2.5v4h-0.8v-8.9h3.4
					c0.9,0,1.6,0.2,2.2,0.6s0.8,1,0.8,1.8c0,0.6-0.2,1.1-0.5,1.5c-0.3,0.4-0.7,0.7-1.3,0.8c0.3,0,0.5,0.2,0.7,0.3
					c0.2,0.2,0.3,0.4,0.5,0.8L129.5,211.1z M126.1,206.5c1.5,0,2.2-0.6,2.2-1.8c0-1.2-0.7-1.8-2.2-1.8h-2.6v3.6H126.1z"/>
				<path class="st10" d="M131.6,207.9L131.6,207.9c0,0.9,0.2,1.5,0.6,2c0.4,0.4,1,0.7,1.7,0.7c0.8,0,1.4-0.3,2.1-0.8l0.3,0.6
					c-0.3,0.3-0.6,0.5-1.1,0.6c-0.4,0.2-0.9,0.2-1.3,0.2c-1,0-1.7-0.3-2.3-0.9c-0.6-0.6-0.8-1.4-0.8-2.4c0-0.6,0.1-1.2,0.4-1.7
					s0.6-0.9,1-1.2s1-0.4,1.5-0.4c0.8,0,1.5,0.3,1.9,0.8c0.5,0.5,0.7,1.3,0.7,2.2v0.2H131.6z M132.3,205.8c-0.4,0.3-0.6,0.8-0.7,1.5
					h4c0-0.6-0.2-1.1-0.6-1.5c-0.3-0.3-0.8-0.5-1.3-0.5C133.1,205.3,132.7,205.5,132.3,205.8z"/>
				<path class="st10" d="M146.8,207.1v4h-0.8v-3.9c0-0.6-0.1-1.1-0.3-1.4s-0.6-0.4-1.1-0.4c-0.6,0-1,0.2-1.4,0.6
					c-0.3,0.4-0.5,0.9-0.5,1.6v3.6H142v-3.9c0-0.6-0.1-1.1-0.3-1.4c-0.2-0.3-0.6-0.4-1.1-0.4c-0.6,0-1,0.2-1.4,0.6
					c-0.3,0.4-0.5,0.9-0.5,1.6v3.6H138v-4.5c0-0.7,0-1.2-0.1-1.7h0.7l0.1,1.1c0.2-0.4,0.4-0.7,0.8-1c0.3-0.2,0.7-0.3,1.2-0.3
					c1,0,1.7,0.4,1.9,1.2c0.2-0.4,0.4-0.7,0.8-0.9c0.4-0.2,0.8-0.3,1.3-0.3C146.1,204.7,146.8,205.5,146.8,207.1z"/>
				<path class="st10" d="M149.3,207.9L149.3,207.9c0,0.9,0.2,1.5,0.6,2c0.4,0.4,1,0.7,1.7,0.7c0.8,0,1.4-0.3,2.1-0.8l0.3,0.6
					c-0.3,0.3-0.6,0.5-1.1,0.6c-0.4,0.2-0.9,0.2-1.3,0.2c-1,0-1.7-0.3-2.3-0.9c-0.6-0.6-0.8-1.4-0.8-2.4c0-0.6,0.1-1.2,0.4-1.7
					s0.6-0.9,1-1.2s1-0.4,1.5-0.4c0.8,0,1.5,0.3,1.9,0.8c0.5,0.5,0.7,1.3,0.7,2.2v0.2H149.3z M150,205.8c-0.4,0.3-0.6,0.8-0.7,1.5h4
					c0-0.6-0.2-1.1-0.6-1.5c-0.3-0.3-0.8-0.5-1.3-0.5C150.8,205.3,150.4,205.5,150,205.8z"/>
				<path class="st10" d="M161,201.9v9.2h-0.8v-1.2c-0.2,0.4-0.5,0.7-0.8,1c-0.4,0.2-0.8,0.3-1.3,0.3c-0.6,0-1-0.1-1.5-0.4
					s-0.8-0.7-1-1.2s-0.4-1.1-0.4-1.7c0-0.7,0.1-1.2,0.3-1.7c0.2-0.5,0.6-0.9,1-1.1c0.4-0.3,0.9-0.4,1.5-0.4c0.5,0,1,0.1,1.3,0.3
					c0.4,0.2,0.7,0.5,0.8,1v-4.1H161z M159.7,209.9c0.4-0.5,0.5-1.1,0.5-1.9s-0.2-1.5-0.5-1.9c-0.4-0.5-0.9-0.7-1.5-0.7
					c-0.7,0-1.2,0.2-1.6,0.7s-0.6,1.1-0.6,1.9c0,0.8,0.2,1.5,0.6,1.9s0.9,0.7,1.5,0.7C158.8,210.5,159.4,210.3,159.7,209.9z"/>
				<path class="st10" d="M164,202.2v1h-1v-1H164z M163.1,204.8h0.8v6.3h-0.8V204.8z"/>
				<path class="st10" d="M171.3,204.8v6.3h-0.8v-1.2c-0.2,0.4-0.5,0.7-0.8,1c-0.4,0.2-0.8,0.3-1.3,0.3c-0.6,0-1.1-0.1-1.5-0.4
					c-0.4-0.3-0.7-0.6-1-1.1c-0.2-0.5-0.3-1.1-0.3-1.7c0-0.7,0.1-1.2,0.4-1.7s0.6-0.9,1-1.2s0.9-0.4,1.5-0.4c0.5,0,1,0.1,1.3,0.3
					c0.4,0.2,0.7,0.5,0.8,1v-1.1H171.3z M170,209.9c0.4-0.5,0.5-1.1,0.5-1.9c0-0.8-0.2-1.5-0.5-1.9s-0.9-0.7-1.5-0.7
					c-0.7,0-1.2,0.2-1.5,0.7c-0.4,0.5-0.6,1.1-0.6,1.9c0,0.8,0.2,1.4,0.6,1.9c0.4,0.4,0.9,0.7,1.6,0.7
					C169.1,210.5,169.6,210.3,170,209.9z"/>
				<path class="st10" d="M174.4,205.5v3.7c0,0.5,0.1,0.8,0.3,1c0.2,0.2,0.5,0.3,0.9,0.3c0.2,0,0.5,0,0.7-0.1v0.7
					c-0.3,0.1-0.5,0.1-0.8,0.1c-0.6,0-1-0.2-1.3-0.5c-0.3-0.3-0.5-0.8-0.5-1.4v-3.9h-1.2v-0.6h1.2v-1.7l0.8-0.3v2h1.9v0.6H174.4z"/>
				<path class="st10" d="M178.5,202.2v1h-1v-1H178.5z M177.6,204.8h0.8v6.3h-0.8V204.8z"/>
				<path class="st10" d="M181.4,210.8c-0.4-0.3-0.8-0.6-1-1.1c-0.2-0.5-0.4-1.1-0.4-1.7s0.1-1.2,0.4-1.7c0.2-0.5,0.6-0.9,1-1.1
					c0.4-0.3,0.9-0.4,1.5-0.4c0.6,0,1.1,0.1,1.5,0.4c0.4,0.3,0.8,0.6,1,1.1s0.4,1.1,0.4,1.7s-0.1,1.2-0.4,1.7s-0.6,0.9-1,1.1
					c-0.4,0.3-0.9,0.4-1.5,0.4C182.4,211.2,181.9,211.1,181.4,210.8z M184.5,209.9c0.4-0.4,0.5-1.1,0.5-1.9c0-0.8-0.2-1.5-0.6-1.9
					c-0.4-0.5-0.9-0.7-1.5-0.7c-0.7,0-1.2,0.2-1.5,0.7c-0.4,0.5-0.6,1.1-0.6,1.9c0,0.8,0.2,1.5,0.5,1.9c0.4,0.4,0.9,0.7,1.5,0.7
					S184.1,210.3,184.5,209.9z"/>
				<path class="st10" d="M192.7,207.1v4h-0.8v-3.9c0-0.6-0.1-1.1-0.4-1.4c-0.3-0.3-0.7-0.4-1.2-0.4c-0.6,0-1.1,0.2-1.5,0.6
					c-0.4,0.4-0.6,0.9-0.6,1.6v3.6h-0.8v-4.5c0-0.7,0-1.2-0.1-1.7h0.7l0.1,1.2c0.2-0.4,0.5-0.8,0.9-1c0.4-0.2,0.8-0.3,1.3-0.3
					C191.9,204.7,192.7,205.5,192.7,207.1z"/>
				<path class="st10" d="M198.5,210.6c-0.2-0.9-0.3-1.9-0.3-2.8c0-1,0.1-1.9,0.3-2.8s0.6-1.8,1-2.8h0.7c-0.4,1-0.8,2-0.9,2.9
					s-0.3,1.8-0.3,2.7s0.1,1.8,0.3,2.7c0.2,0.9,0.5,1.9,0.9,2.9h-0.7C199.1,212.5,198.8,211.5,198.5,210.6z"/>
				<path class="st10" d="M202.6,202.2v1h-1v-1H202.6z M201.7,204.8h0.8v6.3h-0.8V204.8z"/>
				<path class="st10" d="M205.9,202.8c-0.2,0.2-0.3,0.5-0.3,1v1h1.6v0.6h-1.6v5.7h-0.8v-5.7h-1.2v-0.6h1.2v-1.1
					c0-0.6,0.2-1.1,0.5-1.4c0.3-0.3,0.7-0.5,1.3-0.5c0.3,0,0.5,0,0.8,0.1v0.7c-0.2-0.1-0.4-0.1-0.6-0.1
					C206.4,202.5,206.1,202.6,205.9,202.8z"/>
				<path class="st10" d="M217,207.1v4h-0.8v-3.9c0-0.6-0.1-1.1-0.4-1.4c-0.3-0.3-0.7-0.4-1.2-0.4c-0.6,0-1.1,0.2-1.5,0.6
					c-0.4,0.4-0.6,0.9-0.6,1.6v3.6h-0.8v-4.5c0-0.7,0-1.2-0.1-1.7h0.7l0.1,1.2c0.2-0.4,0.5-0.8,0.9-1c0.4-0.2,0.8-0.3,1.3-0.3
					C216.2,204.7,217,205.5,217,207.1z"/>
				<path class="st10" d="M219.4,207.9L219.4,207.9c0,0.9,0.2,1.5,0.6,2c0.4,0.4,1,0.7,1.7,0.7c0.8,0,1.4-0.3,2.1-0.8l0.3,0.6
					c-0.3,0.3-0.6,0.5-1.1,0.6c-0.4,0.2-0.9,0.2-1.3,0.2c-1,0-1.7-0.3-2.3-0.9c-0.6-0.6-0.8-1.4-0.8-2.4c0-0.6,0.1-1.2,0.4-1.7
					s0.6-0.9,1-1.2s1-0.4,1.5-0.4c0.8,0,1.5,0.3,1.9,0.8c0.5,0.5,0.7,1.3,0.7,2.2v0.2H219.4z M220.2,205.8c-0.4,0.3-0.6,0.8-0.7,1.5
					h4c0-0.6-0.2-1.1-0.6-1.5c-0.3-0.3-0.8-0.5-1.3-0.5C221,205.3,220.5,205.5,220.2,205.8z"/>
				<path class="st10" d="M226.3,207.9L226.3,207.9c0,0.9,0.2,1.5,0.6,2c0.4,0.4,1,0.7,1.7,0.7c0.8,0,1.4-0.3,2.1-0.8l0.3,0.6
					c-0.3,0.3-0.6,0.5-1.1,0.6c-0.4,0.2-0.9,0.2-1.3,0.2c-1,0-1.7-0.3-2.3-0.9c-0.6-0.6-0.8-1.4-0.8-2.4c0-0.6,0.1-1.2,0.4-1.7
					s0.6-0.9,1-1.2c0.4-0.3,1-0.4,1.5-0.4c0.8,0,1.5,0.3,1.9,0.8c0.5,0.5,0.7,1.3,0.7,2.2v0.2H226.3z M227,205.8
					c-0.4,0.3-0.6,0.8-0.7,1.5h4c-0.1-0.6-0.2-1.1-0.6-1.5c-0.3-0.3-0.8-0.5-1.3-0.5C227.8,205.3,227.3,205.5,227,205.8z"/>
				<path class="st10" d="M238,201.9v9.2h-0.8v-1.2c-0.2,0.4-0.5,0.7-0.8,1c-0.4,0.2-0.8,0.3-1.3,0.3c-0.6,0-1-0.1-1.5-0.4
					s-0.8-0.7-1-1.2c-0.2-0.5-0.4-1.1-0.4-1.7c0-0.7,0.1-1.2,0.3-1.7c0.2-0.5,0.6-0.9,1-1.1c0.4-0.3,0.9-0.4,1.5-0.4
					c0.5,0,1,0.1,1.3,0.3c0.4,0.2,0.7,0.5,0.8,1v-4.1H238z M236.7,209.9c0.4-0.5,0.5-1.1,0.5-1.9s-0.2-1.5-0.5-1.9
					c-0.4-0.5-0.9-0.7-1.5-0.7c-0.7,0-1.2,0.2-1.6,0.7c-0.4,0.5-0.6,1.1-0.6,1.9c0,0.8,0.2,1.5,0.6,1.9c0.4,0.5,0.9,0.7,1.5,0.7
					S236.3,210.3,236.7,209.9z"/>
				<path class="st10" d="M240.5,207.9L240.5,207.9c0,0.9,0.2,1.5,0.6,2c0.4,0.4,1,0.7,1.7,0.7c0.8,0,1.4-0.3,2.1-0.8l0.3,0.6
					c-0.3,0.3-0.6,0.5-1.1,0.6c-0.4,0.2-0.9,0.2-1.3,0.2c-1,0-1.7-0.3-2.3-0.9c-0.6-0.6-0.8-1.4-0.8-2.4c0-0.6,0.1-1.2,0.4-1.7
					s0.6-0.9,1-1.2c0.4-0.3,1-0.4,1.5-0.4c0.8,0,1.5,0.3,1.9,0.8c0.5,0.5,0.7,1.3,0.7,2.2v0.2H240.5z M241.2,205.8
					c-0.4,0.3-0.6,0.8-0.7,1.5h4c-0.1-0.6-0.2-1.1-0.6-1.5c-0.3-0.3-0.8-0.5-1.3-0.5C242,205.3,241.6,205.5,241.2,205.8z"/>
				<path class="st10" d="M252.2,201.9v9.2h-0.8v-1.2c-0.2,0.4-0.5,0.7-0.8,1c-0.4,0.2-0.8,0.3-1.3,0.3c-0.6,0-1-0.1-1.5-0.4
					s-0.8-0.7-1-1.2c-0.2-0.5-0.4-1.1-0.4-1.7c0-0.7,0.1-1.2,0.3-1.7c0.2-0.5,0.6-0.9,1-1.1c0.4-0.3,0.9-0.4,1.5-0.4
					c0.5,0,1,0.1,1.3,0.3c0.4,0.2,0.7,0.5,0.8,1v-4.1H252.2z M250.9,209.9c0.4-0.5,0.5-1.1,0.5-1.9s-0.2-1.5-0.5-1.9
					c-0.4-0.5-0.9-0.7-1.5-0.7c-0.7,0-1.2,0.2-1.6,0.7c-0.4,0.5-0.6,1.1-0.6,1.9c0,0.8,0.2,1.5,0.6,1.9c0.4,0.5,0.9,0.7,1.5,0.7
					S250.5,210.3,250.9,209.9z"/>
				<path class="st10" d="M253.7,213.4c0.4-1,0.7-2,0.9-2.9c0.2-0.9,0.3-1.8,0.3-2.7c0-0.9-0.1-1.8-0.3-2.7
					c-0.2-0.9-0.5-1.9-0.9-2.9h0.7c0.5,0.9,0.8,1.9,1,2.8c0.2,0.9,0.3,1.9,0.3,2.8c0,1-0.1,1.9-0.3,2.8c-0.2,0.9-0.6,1.8-1,2.8
					H253.7z"/>
			</g>
			<g class="st4">
				<path class="st10" d="M122.7,225.7h5.4v0.7h-4.6v3.4h4.3v0.7h-4.3v4.2h-0.8V225.7z"/>
				<path class="st10" d="M129.8,231.4L129.8,231.4c0,0.9,0.2,1.5,0.6,2c0.4,0.4,1,0.7,1.7,0.7c0.8,0,1.4-0.3,2.1-0.8l0.3,0.6
					c-0.3,0.3-0.6,0.5-1.1,0.6c-0.4,0.2-0.9,0.2-1.3,0.2c-1,0-1.7-0.3-2.3-0.9c-0.6-0.6-0.8-1.4-0.8-2.4c0-0.6,0.1-1.2,0.4-1.7
					s0.6-0.9,1-1.2s1-0.4,1.5-0.4c0.8,0,1.5,0.3,1.9,0.8c0.5,0.5,0.7,1.3,0.7,2.2v0.2H129.8z M130.6,229.3c-0.4,0.3-0.6,0.8-0.7,1.5
					h4c0-0.6-0.2-1.1-0.6-1.5c-0.3-0.3-0.8-0.5-1.3-0.5C131.4,228.8,130.9,229,130.6,229.3z"/>
				<path class="st10" d="M141.6,225.4v9.2h-0.8v-1.2c-0.2,0.4-0.5,0.7-0.8,1c-0.4,0.2-0.8,0.3-1.3,0.3c-0.6,0-1-0.1-1.5-0.4
					s-0.8-0.7-1-1.2s-0.4-1.1-0.4-1.7c0-0.7,0.1-1.2,0.3-1.7c0.2-0.5,0.6-0.9,1-1.1c0.4-0.3,0.9-0.4,1.5-0.4c0.5,0,1,0.1,1.3,0.3
					c0.4,0.2,0.7,0.5,0.8,1v-4.1H141.6z M140.3,233.4c0.4-0.5,0.5-1.1,0.5-1.9s-0.2-1.5-0.5-1.9c-0.4-0.5-0.9-0.7-1.5-0.7
					c-0.7,0-1.2,0.2-1.6,0.7s-0.6,1.1-0.6,1.9c0,0.8,0.2,1.5,0.6,1.9s0.9,0.7,1.5,0.7C139.4,234,139.9,233.8,140.3,233.4z"/>
				<path class="st10" d="M150.6,234.6h-0.8l-1.1-3c-0.1-0.4-0.3-0.7-0.6-0.8c-0.3-0.1-0.6-0.2-1.1-0.2h-2.5v4h-0.8v-8.9h3.4
					c0.9,0,1.6,0.2,2.2,0.6s0.8,1,0.8,1.8c0,0.6-0.2,1.1-0.5,1.5c-0.3,0.4-0.7,0.7-1.3,0.8c0.3,0,0.5,0.2,0.7,0.3
					c0.2,0.2,0.3,0.4,0.5,0.8L150.6,234.6z M147.2,230c1.5,0,2.2-0.6,2.2-1.8c0-1.2-0.7-1.8-2.2-1.8h-2.6v3.6H147.2z"/>
				<path class="st10" d="M158.1,232.2h-4.8l-1,2.4h-0.8l3.9-8.9h0.7l3.9,8.9h-0.8L158.1,232.2z M157.8,231.6l-2.1-4.9l-2.1,4.9
					H157.8z"/>
				<path class="st10" d="M169.8,225.7v8.9H169v-7.1l-3.1,7.1h-0.6l-3.2-7.1l0,7.1h-0.7v-8.9h0.6l3.5,8l3.5-8H169.8z"/>
				<path class="st10" d="M172.1,225.7h3.4c0.9,0,1.6,0.2,2.1,0.7c0.5,0.4,0.8,1,0.8,1.8c0,0.8-0.3,1.4-0.8,1.8
					c-0.5,0.4-1.2,0.7-2.1,0.7h-2.7v4h-0.8V225.7z M175.4,229.9c0.7,0,1.2-0.2,1.6-0.5c0.4-0.3,0.5-0.8,0.5-1.3c0-0.6-0.2-1-0.5-1.3
					c-0.4-0.3-0.9-0.5-1.6-0.5h-2.6v3.6H175.4z"/>
				<path class="st10" d="M191.7,225.7v8.9h-0.7v-7.1l-3.1,7.1h-0.6l-3.2-7.1l0,7.1h-0.7v-8.9h0.6l3.5,8l3.5-8H191.7z"/>
				<path class="st10" d="M199.2,228.3v6.3h-0.8v-1.2c-0.2,0.4-0.5,0.7-0.8,1c-0.4,0.2-0.8,0.3-1.3,0.3c-0.6,0-1.1-0.1-1.5-0.4
					c-0.4-0.3-0.7-0.6-1-1.1c-0.2-0.5-0.3-1.1-0.3-1.7c0-0.7,0.1-1.2,0.4-1.7s0.6-0.9,1-1.2s0.9-0.4,1.5-0.4c0.5,0,1,0.1,1.3,0.3
					c0.4,0.2,0.7,0.5,0.8,1v-1.1H199.2z M197.9,233.4c0.4-0.5,0.5-1.1,0.5-1.9c0-0.8-0.2-1.5-0.5-1.9s-0.9-0.7-1.5-0.7
					c-0.7,0-1.2,0.2-1.5,0.7c-0.4,0.5-0.6,1.1-0.6,1.9c0,0.8,0.2,1.4,0.6,1.9c0.4,0.4,0.9,0.7,1.6,0.7
					C197,234,197.5,233.8,197.9,233.4z"/>
				<path class="st10" d="M204.5,228.2l0,0.7c-0.2,0-0.4,0-0.6,0c-0.6,0-1.1,0.2-1.4,0.6s-0.5,0.9-0.5,1.4v3.7h-0.8v-4.5
					c0-0.7,0-1.2-0.1-1.7h0.7l0.1,1.2c0.2-0.4,0.4-0.8,0.8-1c0.4-0.2,0.8-0.3,1.2-0.3C204.2,228.2,204.4,228.2,204.5,228.2z"/>
				<path class="st10" d="M209.8,234.6l-3.5-3.1v3.1h-0.8v-9.2h0.8v5.9l3.2-2.9h1l-3.3,3l3.6,3.3H209.8z"/>
				<path class="st10" d="M212.1,231.4L212.1,231.4c0,0.9,0.2,1.5,0.6,2c0.4,0.4,1,0.7,1.7,0.7c0.8,0,1.4-0.3,2.1-0.8l0.3,0.6
					c-0.3,0.3-0.6,0.5-1.1,0.6c-0.4,0.2-0.9,0.2-1.3,0.2c-1,0-1.7-0.3-2.3-0.9c-0.6-0.6-0.8-1.4-0.8-2.4c0-0.6,0.1-1.2,0.4-1.7
					s0.6-0.9,1-1.2s1-0.4,1.5-0.4c0.8,0,1.5,0.3,1.9,0.8c0.5,0.5,0.7,1.3,0.7,2.2v0.2H212.1z M212.9,229.3c-0.4,0.3-0.6,0.8-0.7,1.5
					h4c0-0.6-0.2-1.1-0.6-1.5c-0.3-0.3-0.8-0.5-1.3-0.5C213.7,228.8,213.2,229,212.9,229.3z"/>
				<path class="st10" d="M219.6,229v3.7c0,0.5,0.1,0.8,0.3,1c0.2,0.2,0.5,0.3,0.9,0.3c0.2,0,0.5,0,0.7-0.1v0.7
					c-0.3,0.1-0.5,0.1-0.8,0.1c-0.6,0-1-0.2-1.3-0.5c-0.3-0.3-0.5-0.8-0.5-1.4V229h-1.2v-0.6h1.2v-1.7l0.8-0.3v2h1.9v0.6H219.6z"/>
				<path class="st10" d="M227.2,228.6c0.4,0.3,0.8,0.7,1,1.2c0.2,0.5,0.4,1.1,0.4,1.7c0,0.7-0.1,1.2-0.3,1.7
					c-0.2,0.5-0.6,0.9-1,1.1s-0.9,0.4-1.5,0.4c-0.5,0-1-0.1-1.3-0.3c-0.4-0.2-0.6-0.6-0.8-1v4h-0.8v-7.2c0-0.7,0-1.2-0.1-1.7h0.7
					l0.1,1.2c0.2-0.4,0.5-0.8,0.8-1c0.4-0.2,0.8-0.4,1.4-0.4C226.2,228.2,226.7,228.3,227.2,228.6z M227.1,233.4
					c0.4-0.4,0.6-1.1,0.6-1.9c0-0.8-0.2-1.5-0.6-1.9c-0.4-0.5-0.9-0.7-1.5-0.7c-0.7,0-1.2,0.2-1.5,0.7s-0.5,1.1-0.5,1.9
					c0,0.8,0.2,1.5,0.5,1.9s0.9,0.7,1.5,0.7C226.3,234,226.8,233.8,227.1,233.4z"/>
				<path class="st10" d="M230.2,225.4h0.8v9.2h-0.8V225.4z"/>
				<path class="st10" d="M238.4,228.3v6.3h-0.8v-1.2c-0.2,0.4-0.5,0.7-0.8,1c-0.4,0.2-0.8,0.3-1.3,0.3c-0.6,0-1.1-0.1-1.5-0.4
					c-0.4-0.3-0.7-0.6-1-1.1c-0.2-0.5-0.3-1.1-0.3-1.7c0-0.7,0.1-1.2,0.4-1.7c0.2-0.5,0.6-0.9,1-1.2s0.9-0.4,1.5-0.4
					c0.5,0,1,0.1,1.3,0.3c0.4,0.2,0.7,0.5,0.8,1v-1.1H238.4z M237,233.4c0.4-0.5,0.5-1.1,0.5-1.9c0-0.8-0.2-1.5-0.5-1.9
					s-0.9-0.7-1.5-0.7s-1.2,0.2-1.5,0.7c-0.4,0.5-0.6,1.1-0.6,1.9c0,0.8,0.2,1.4,0.6,1.9c0.4,0.4,0.9,0.7,1.6,0.7
					C236.2,234,236.7,233.8,237,233.4z"/>
				<path class="st10" d="M241.4,234.3c-0.4-0.3-0.8-0.6-1-1.1c-0.2-0.5-0.4-1.1-0.4-1.7c0-0.7,0.1-1.2,0.4-1.7
					c0.2-0.5,0.6-0.9,1-1.2s1-0.4,1.6-0.4c0.4,0,0.8,0.1,1.2,0.2c0.4,0.1,0.7,0.3,1,0.6l-0.3,0.6c-0.3-0.3-0.6-0.5-0.9-0.6
					s-0.6-0.2-0.9-0.2c-0.7,0-1.2,0.2-1.6,0.7c-0.4,0.5-0.6,1.1-0.6,1.9c0,0.8,0.2,1.4,0.6,1.9s0.9,0.7,1.6,0.7
					c0.3,0,0.6-0.1,0.9-0.2s0.6-0.3,0.9-0.6l0.3,0.6c-0.3,0.3-0.6,0.5-1,0.6s-0.8,0.2-1.2,0.2C242.4,234.7,241.9,234.6,241.4,234.3z
					"/>
				<path class="st10" d="M247,231.4L247,231.4c0,0.9,0.2,1.5,0.6,2c0.4,0.4,1,0.7,1.7,0.7c0.8,0,1.4-0.3,2.1-0.8l0.3,0.6
					c-0.3,0.3-0.6,0.5-1.1,0.6c-0.4,0.2-0.9,0.2-1.3,0.2c-1,0-1.7-0.3-2.3-0.9c-0.6-0.6-0.8-1.4-0.8-2.4c0-0.6,0.1-1.2,0.4-1.7
					s0.6-0.9,1-1.2c0.4-0.3,1-0.4,1.5-0.4c0.8,0,1.5,0.3,1.9,0.8c0.5,0.5,0.7,1.3,0.7,2.2v0.2H247z M247.7,229.3
					c-0.4,0.3-0.6,0.8-0.7,1.5h4c-0.1-0.6-0.2-1.1-0.6-1.5c-0.3-0.3-0.8-0.5-1.3-0.5C248.5,228.8,248.1,229,247.7,229.3z"/>
				<path class="st10" d="M256.7,225.7h2.9c1.4,0,2.5,0.4,3.3,1.2c0.8,0.8,1.2,1.9,1.2,3.3s-0.4,2.5-1.2,3.3
					c-0.8,0.8-1.9,1.2-3.3,1.2h-2.9V225.7z M259.5,233.9c1.2,0,2.1-0.3,2.7-1c0.6-0.6,0.9-1.6,0.9-2.8c0-2.5-1.2-3.8-3.6-3.8h-2.1
					v7.6H259.5z"/>
				<path class="st10" d="M266.2,231.4L266.2,231.4c0,0.9,0.2,1.5,0.6,2c0.4,0.4,1,0.7,1.7,0.7c0.8,0,1.4-0.3,2.1-0.8l0.3,0.6
					c-0.3,0.3-0.6,0.5-1.1,0.6c-0.4,0.2-0.9,0.2-1.3,0.2c-1,0-1.7-0.3-2.3-0.9c-0.6-0.6-0.8-1.4-0.8-2.4c0-0.6,0.1-1.2,0.4-1.7
					s0.6-0.9,1-1.2c0.4-0.3,1-0.4,1.5-0.4c0.8,0,1.5,0.3,1.9,0.8c0.5,0.5,0.7,1.3,0.7,2.2v0.2H266.2z M267,229.3
					c-0.4,0.3-0.6,0.8-0.7,1.5h4c-0.1-0.6-0.2-1.1-0.6-1.5c-0.3-0.3-0.8-0.5-1.3-0.5C267.8,228.8,267.3,229,267,229.3z"/>
				<path class="st10" d="M272.3,233.9l0.3-0.6c0.3,0.3,0.7,0.5,1,0.6c0.3,0.1,0.7,0.2,1.2,0.2c0.5,0,0.9-0.1,1.2-0.3
					c0.3-0.2,0.4-0.4,0.4-0.8c0-0.3-0.1-0.5-0.3-0.7s-0.5-0.3-0.9-0.4l-1.1-0.2c-0.5-0.1-0.9-0.3-1.2-0.6s-0.4-0.7-0.4-1.1
					c0-0.6,0.2-1,0.6-1.3c0.4-0.3,1-0.5,1.7-0.5c0.4,0,0.9,0.1,1.2,0.2c0.4,0.1,0.7,0.3,0.9,0.6l-0.3,0.6c-0.6-0.5-1.2-0.8-1.9-0.8
					c-0.5,0-0.9,0.1-1.1,0.3c-0.3,0.2-0.4,0.5-0.4,0.8c0,0.3,0.1,0.5,0.3,0.7c0.2,0.2,0.4,0.3,0.8,0.4l1.1,0.3
					c1.1,0.3,1.7,0.8,1.7,1.7c0,0.5-0.2,1-0.7,1.3c-0.4,0.3-1,0.5-1.8,0.5C273.7,234.7,272.9,234.4,272.3,233.9z"/>
				<path class="st10" d="M279.7,225.7v1h-1v-1H279.7z M278.8,228.3h0.8v6.3h-0.8V228.3z"/>
				<path class="st10" d="M287.1,228.3v6.3c0,0.9-0.2,1.6-0.7,2.1s-1.1,0.7-2,0.7c-0.9,0-1.8-0.2-2.4-0.7l0.2-0.7
					c0.4,0.2,0.8,0.4,1.1,0.5s0.7,0.2,1.2,0.2c0.6,0,1.1-0.2,1.4-0.5s0.5-0.8,0.5-1.5v-1.6c-0.2,0.4-0.5,0.8-0.9,1
					c-0.4,0.2-0.8,0.3-1.4,0.3c-0.6,0-1-0.1-1.5-0.4c-0.4-0.3-0.8-0.6-1-1.1c-0.2-0.5-0.4-1-0.4-1.6c0-0.6,0.1-1.2,0.4-1.6
					s0.6-0.8,1-1.1c0.4-0.3,0.9-0.4,1.5-0.4c0.5,0,1,0.1,1.3,0.3c0.4,0.2,0.7,0.5,0.8,1v-1.1H287.1z M285.7,233.1
					c0.4-0.4,0.6-1,0.6-1.8c0-0.8-0.2-1.4-0.6-1.8s-0.9-0.7-1.5-0.7c-0.7,0-1.2,0.2-1.6,0.7c-0.4,0.4-0.6,1-0.6,1.8
					c0,0.8,0.2,1.4,0.6,1.8c0.4,0.4,0.9,0.6,1.6,0.6C284.9,233.7,285.4,233.5,285.7,233.1z"/>
				<path class="st10" d="M294.3,230.6v4h-0.8v-3.9c0-0.6-0.1-1.1-0.4-1.4c-0.3-0.3-0.7-0.4-1.2-0.4c-0.6,0-1.1,0.2-1.5,0.6
					c-0.4,0.4-0.6,0.9-0.6,1.6v3.6h-0.8v-4.5c0-0.7,0-1.2-0.1-1.7h0.7l0.1,1.2c0.2-0.4,0.5-0.8,0.9-1c0.4-0.2,0.8-0.3,1.3-0.3
					C293.6,228.2,294.3,229,294.3,230.6z"/>
				<path class="st10" d="M301.7,228.3v6.3H301v-1.2c-0.2,0.4-0.5,0.7-0.8,1c-0.4,0.2-0.8,0.3-1.3,0.3c-0.6,0-1.1-0.1-1.5-0.4
					c-0.4-0.3-0.7-0.6-1-1.1c-0.2-0.5-0.3-1.1-0.3-1.7c0-0.7,0.1-1.2,0.4-1.7c0.2-0.5,0.6-0.9,1-1.2s0.9-0.4,1.5-0.4
					c0.5,0,1,0.1,1.3,0.3c0.4,0.2,0.7,0.5,0.8,1v-1.1H301.7z M300.4,233.4c0.4-0.5,0.5-1.1,0.5-1.9c0-0.8-0.2-1.5-0.5-1.9
					s-0.9-0.7-1.5-0.7s-1.2,0.2-1.5,0.7c-0.4,0.5-0.6,1.1-0.6,1.9c0,0.8,0.2,1.4,0.6,1.9c0.4,0.4,0.9,0.7,1.6,0.7
					C299.6,234,300.1,233.8,300.4,233.4z"/>
				<path class="st10" d="M304.9,229v3.7c0,0.5,0.1,0.8,0.3,1s0.5,0.3,0.9,0.3c0.2,0,0.5,0,0.7-0.1v0.7c-0.3,0.1-0.5,0.1-0.8,0.1
					c-0.6,0-1-0.2-1.3-0.5c-0.3-0.3-0.5-0.8-0.5-1.4V229h-1.2v-0.6h1.2v-1.7l0.8-0.3v2h1.9v0.6H304.9z"/>
				<path class="st10" d="M308.9,225.7v1h-1v-1H308.9z M308,228.3h0.8v6.3H308V228.3z"/>
				<path class="st10" d="M311.9,234.3c-0.4-0.3-0.8-0.6-1-1.1s-0.4-1.1-0.4-1.7s0.1-1.2,0.4-1.7s0.6-0.9,1-1.1s0.9-0.4,1.5-0.4
					c0.6,0,1.1,0.1,1.5,0.4s0.8,0.6,1,1.1c0.2,0.5,0.4,1.1,0.4,1.7s-0.1,1.2-0.4,1.7c-0.2,0.5-0.6,0.9-1,1.1s-0.9,0.4-1.5,0.4
					C312.8,234.7,312.3,234.6,311.9,234.3z M314.9,233.4c0.4-0.4,0.5-1.1,0.5-1.9c0-0.8-0.2-1.5-0.6-1.9c-0.4-0.5-0.9-0.7-1.5-0.7
					c-0.7,0-1.2,0.2-1.5,0.7c-0.4,0.5-0.6,1.1-0.6,1.9c0,0.8,0.2,1.5,0.5,1.9c0.4,0.4,0.9,0.7,1.5,0.7
					C314,234,314.5,233.8,314.9,233.4z"/>
				<path class="st10" d="M323.1,230.6v4h-0.8v-3.9c0-0.6-0.1-1.1-0.4-1.4c-0.3-0.3-0.7-0.4-1.2-0.4c-0.6,0-1.1,0.2-1.5,0.6
					c-0.4,0.4-0.6,0.9-0.6,1.6v3.6h-0.8v-4.5c0-0.7,0-1.2-0.1-1.7h0.7l0.1,1.2c0.2-0.4,0.5-0.8,0.9-1c0.4-0.2,0.8-0.3,1.3-0.3
					C322.4,228.2,323.1,229,323.1,230.6z"/>
				<path class="st10" d="M328.3,230.9h3.4v0.7h-3.4V230.9z"/>
			</g>
			<g class="st4">
				<path class="st10" d="M128.5,247.9h-4.8l-1,2.4h-0.8l3.9-8.9h0.7l3.9,8.9h-0.8L128.5,247.9z M128.2,247.2l-2.1-4.9l-2.1,4.9
					H128.2z"/>
				<path class="st10" d="M136.7,244v6.3H136v-1.1c-0.2,0.4-0.5,0.7-0.9,0.9s-0.8,0.3-1.3,0.3c-0.7,0-1.3-0.2-1.7-0.6
					s-0.6-1-0.6-1.8V244h0.8v3.9c0,0.6,0.1,1.1,0.4,1.4c0.3,0.3,0.6,0.4,1.2,0.4c0.6,0,1.1-0.2,1.5-0.6s0.6-0.9,0.6-1.5V244H136.7z"
					/>
				<path class="st10" d="M139.9,244.6v3.7c0,0.5,0.1,0.8,0.3,1c0.2,0.2,0.5,0.3,0.9,0.3c0.2,0,0.5,0,0.7-0.1v0.7
					c-0.3,0.1-0.5,0.1-0.8,0.1c-0.6,0-1-0.2-1.3-0.5c-0.3-0.3-0.5-0.8-0.5-1.4v-3.9h-1.2V244h1.2v-1.7l0.8-0.3v2h1.9v0.6H139.9z"/>
				<path class="st10" d="M148.2,246.3v4h-0.8v-3.9c0-0.6-0.1-1.1-0.4-1.4c-0.3-0.3-0.7-0.4-1.2-0.4c-0.6,0-1.1,0.2-1.5,0.6
					c-0.4,0.4-0.6,0.9-0.6,1.6v3.6H143v-9.2h0.8v4c0.2-0.4,0.5-0.7,0.9-0.9s0.8-0.3,1.3-0.3C147.5,243.9,148.2,244.7,148.2,246.3z"
					/>
				<path class="st10" d="M151.2,250c-0.4-0.3-0.8-0.6-1-1.1c-0.2-0.5-0.4-1.1-0.4-1.7s0.1-1.2,0.4-1.7c0.2-0.5,0.6-0.9,1-1.1
					c0.4-0.3,0.9-0.4,1.5-0.4c0.6,0,1.1,0.1,1.5,0.4c0.4,0.3,0.8,0.6,1,1.1s0.4,1.1,0.4,1.7s-0.1,1.2-0.4,1.7s-0.6,0.9-1,1.1
					c-0.4,0.3-0.9,0.4-1.5,0.4C152.2,250.4,151.7,250.2,151.2,250z M154.3,249c0.4-0.4,0.5-1.1,0.5-1.9c0-0.8-0.2-1.5-0.6-1.9
					c-0.4-0.5-0.9-0.7-1.5-0.7c-0.7,0-1.2,0.2-1.5,0.7c-0.4,0.5-0.6,1.1-0.6,1.9c0,0.8,0.2,1.5,0.5,1.9c0.4,0.4,0.9,0.7,1.5,0.7
					S153.9,249.5,154.3,249z"/>
				<path class="st10" d="M160.6,243.9l0,0.7c-0.2,0-0.4,0-0.6,0c-0.6,0-1.1,0.2-1.4,0.6s-0.5,0.9-0.5,1.4v3.7h-0.8v-4.5
					c0-0.7,0-1.2-0.1-1.7h0.7l0.1,1.2c0.2-0.4,0.4-0.8,0.8-1c0.4-0.2,0.8-0.3,1.2-0.3C160.2,243.9,160.4,243.9,160.6,243.9z"/>
				<path class="st10" d="M162.6,241.4v1h-1v-1H162.6z M161.7,244h0.8v6.3h-0.8V244z"/>
				<path class="st10" d="M169.4,249.7v0.6h-5.2v-0.5l4.2-5.1h-4V244h5v0.6l-4.1,5.1H169.4z"/>
				<path class="st10" d="M171.3,247.1L171.3,247.1c0,0.9,0.2,1.5,0.6,2c0.4,0.4,1,0.7,1.7,0.7c0.8,0,1.4-0.3,2.1-0.8l0.3,0.6
					c-0.3,0.3-0.6,0.5-1.1,0.6c-0.4,0.2-0.9,0.2-1.3,0.2c-1,0-1.7-0.3-2.3-0.9c-0.6-0.6-0.8-1.4-0.8-2.4c0-0.6,0.1-1.2,0.4-1.7
					s0.6-0.9,1-1.2s1-0.4,1.5-0.4c0.8,0,1.5,0.3,1.9,0.8c0.5,0.5,0.7,1.3,0.7,2.2v0.2H171.3z M172,245c-0.4,0.3-0.6,0.8-0.7,1.5h4
					c0-0.6-0.2-1.1-0.6-1.5c-0.3-0.3-0.8-0.5-1.3-0.5C172.8,244.5,172.4,244.7,172,245z"/>
				<path class="st10" d="M183,241.1v9.2h-0.8v-1.2c-0.2,0.4-0.5,0.7-0.8,1c-0.4,0.2-0.8,0.3-1.3,0.3c-0.6,0-1-0.1-1.5-0.4
					s-0.8-0.7-1-1.2s-0.4-1.1-0.4-1.7c0-0.7,0.1-1.2,0.3-1.7c0.2-0.5,0.6-0.9,1-1.1c0.4-0.3,0.9-0.4,1.5-0.4c0.5,0,1,0.1,1.3,0.3
					c0.4,0.2,0.7,0.5,0.8,1v-4.1H183z M181.7,249c0.4-0.5,0.5-1.1,0.5-1.9s-0.2-1.5-0.5-1.9c-0.4-0.5-0.9-0.7-1.5-0.7
					c-0.7,0-1.2,0.2-1.6,0.7s-0.6,1.1-0.6,1.9c0,0.8,0.2,1.5,0.6,1.9s0.9,0.7,1.5,0.7C180.8,249.7,181.4,249.5,181.7,249z"/>
			</g>
		</g>
		<rect x="100.7" y="115.2" class="st16" width="0.8" height="102.7"/>
		<g>
			<g id="g56755_2_" transform="matrix(14,0,0,14,49637.042,519374.88)">
				<path id="path56757_2_" class="st13" d="M-3537.4-37081.4c0,0.4-0.3,0.8-0.8,0.8l0,0c-0.4,0-0.8-0.3-0.8-0.8l0,0
					c0-0.4,0.3-0.8,0.8-0.8l0,0C-3537.8-37082.2-3537.4-37081.9-3537.4-37081.4L-3537.4-37081.4z"/>
			</g>
			<path id="path53460_2_" class="st14" d="M106.4,229.7c-3.2,1.6-4.8,4.7-6.3,7.6l-2.2-2.2c-1.1,0.8-2.2,1.5-3.3,2.1l9,9
				c5-1.1,8.6-5.4,8.9-10.5L106.4,229.7z"/>
			<path id="path38606_2_" class="st6" d="M97.9,235.1c0.7,0.8,1.2,1.9,1.7,3.1c1.7-3.2,3.3-6.8,6.8-8.6c-0.3,1.5-0.6,3.2-0.1,4.7
				c-3,1.5-4.8,4.2-6.7,7c-1.8-2.5-3.3-3.3-5.1-4.2C95.6,236.6,96.8,236,97.9,235.1L97.9,235.1z"/>
		</g>
	</g>
	<g>
		<path class="st6" d="M97.6,41.9c-0.8,0-1.8-0.2-2.9-0.8l-0.2-0.1L94.3,41c-0.5-0.2-0.9-0.3-1.2-0.4c-0.2-0.1-0.5-0.2-0.7-0.2
			c-0.2,0-0.3,0.1-0.5,0.2c-0.1,0.1-0.2,0.2-0.2,0.4c-0.1,0.3-0.3,0.5-0.7,0.5h-2.1c-0.3,0-0.7-0.3-0.7-0.8c0-0.2,0-0.3-0.1-0.5
			c0-0.1,0-0.3,0-0.6c0-1.2,0.2-2.2,0.7-3.2c0.4-0.9,1.1-1.8,1.9-2.7c0.2-0.2,0.7-0.6,1.1-0.8c-0.1,0-0.2,0-0.3,0
			c-1,0-1.8-0.3-2.4-1c-0.6-0.7-0.9-1.7-0.9-2.8c0-1.8,0.7-3.3,2.2-4.5c1.3-1.1,3-1.7,5-1.7c2.1,0,3.8,0.6,5.1,1.7
			c1.4,1.2,2.1,2.8,2.1,4.7c0,1.5-0.4,2.8-1.3,3.8c-0.2,0.3-0.6,0.6-0.9,0.8h1.9c0.4,0,0.7,0.3,0.7,0.8c0,0.2,0,0.2,0,0.4
			s0,0.3,0,0.6c0,2-0.4,3.6-1.3,4.6C100.6,41.4,99.3,41.9,97.6,41.9L97.6,41.9z M96.1,35.7c0.3,0.1,0.6,0.1,0.9,0.2
			c1.1,0.2,1.3,0.2,1.4,0.2c0.2,0,0.4,0,0.5-0.2c0.1-0.1,0.2-0.3,0.2-1.2c0-0.1,0-0.2,0-0.2c-0.5,0.3-1.2,0.6-1.8,0.8
			c-0.2,0.1-0.5,0.2-0.9,0.2C96.3,35.6,96.2,35.6,96.1,35.7L96.1,35.7z M93,27.3c0.2,0.1,0.4,0.2,0.6,0.5c0.5,0.5,0.7,1.2,0.7,2
			c0,0.6-0.2,1.2-0.4,1.7c0.2-0.2,0.5-0.3,0.7-0.4c0.8-0.6,1.2-1,1.3-1.2c0.2-0.2,0.2-0.7,0.2-1c0-0.5-0.2-0.8-0.5-1.1
			c-0.4-0.3-1-0.5-1.7-0.5C93.7,27.2,93.3,27.2,93,27.3L93,27.3z M80.8,41.9c-2.2,0-3.9-0.9-5.2-2.6c-1.3-1.8-2-4.1-2-6.9
			s0.7-5.2,2-6.9c1.3-1.8,3.1-2.6,5.2-2.6c2.2,0,3.9,0.9,5.2,2.6c1.3,1.7,2,4.1,2,6.9c0,2.8-0.7,5.2-2,6.9
			C84.7,41,82.9,41.9,80.8,41.9L80.8,41.9z M80.8,27.1c-0.6,0-0.9,0.3-1.2,1c-0.2,0.6-0.5,1.8-0.5,4.3c0,2.6,0.2,3.8,0.5,4.3
			c0.2,0.7,0.6,1,1.2,1c0.6,0,0.9-0.3,1.2-1c0.2-0.6,0.5-1.8,0.5-4.3c0-2.6-0.2-3.8-0.5-4.4C81.8,27.3,81.4,27.1,80.8,27.1
			L80.8,27.1z"/>
		<path class="st2" d="M88.8,40.5c0-0.1,0-0.2,0-0.3c0-0.1,0-0.3,0-0.6c0-1,0.2-1.9,0.6-2.8c0.3-0.8,1-1.7,1.8-2.4
			c0.6-0.5,1.4-1.2,2.7-1.9c0.5-0.3,0.9-0.6,1.2-0.8c0.7-0.5,1.2-1,1.6-1.4c0.2-0.4,0.4-1,0.4-1.6c0-0.8-0.2-1.4-0.7-1.8
			c-0.5-0.5-1.2-0.7-2.1-0.7c-0.7,0-1.3,0.2-1.8,0.5c-0.5,0.3-0.8,0.8-1.1,1.3c0.2,0,0.2-0.1,0.4-0.1s0.2,0,0.3,0
			c0.5,0,0.9,0.2,1.2,0.5c0.3,0.3,0.5,0.8,0.5,1.3c0,0.6-0.2,1.2-0.7,1.6c-0.4,0.4-1,0.7-1.6,0.7c-0.8,0-1.4-0.2-1.9-0.8
			c-0.5-0.5-0.7-1.2-0.7-2.2c0-1.5,0.6-2.7,1.8-3.8c1.2-1,2.7-1.5,4.6-1.5c2,0,3.5,0.5,4.7,1.5c1.2,1,1.8,2.3,1.8,3.9
			c0,1.2-0.4,2.2-1.2,3.2c-0.7,0.8-1.8,1.6-3.3,2c-0.2,0.1-0.5,0.2-0.8,0.2c-2.4,0.8-3.9,1.7-4.6,2.7c0.5-0.3,1-0.5,1.5-0.7
			c0.5-0.2,1-0.2,1.6-0.2c0.6,0,1.3,0.1,2.1,0.3c0.8,0.2,1.3,0.2,1.6,0.2c0.5,0,0.8-0.2,1.1-0.5c0.2-0.3,0.3-0.9,0.3-1.8h2.2
			c0,0.2,0,0.2,0,0.4s0,0.3,0,0.6c0,1.7-0.3,3.1-1.1,3.9c-0.8,0.8-1.8,1.2-3.3,1.2c-0.7,0-1.6-0.2-2.7-0.8c-0.2-0.1-0.3-0.2-0.4-0.2
			c-0.6-0.2-1-0.4-1.3-0.5s-0.6-0.2-0.8-0.2c-0.3,0-0.6,0.1-0.8,0.2c-0.2,0.2-0.4,0.4-0.6,0.8h-2.3V40.5z M74.3,32.4
			c0-2.6,0.6-4.7,1.8-6.2c1.2-1.6,2.8-2.3,4.8-2.3c2,0,3.6,0.8,4.8,2.3c1.2,1.6,1.8,3.7,1.8,6.2s-0.6,4.7-1.8,6.2S82.8,41,80.8,41
			c-2,0-3.6-0.8-4.8-2.3C74.8,37.1,74.3,35,74.3,32.4z M78.4,32.4c0,2.2,0.2,3.8,0.6,4.8c0.3,1,1,1.5,1.8,1.5c0.8,0,1.4-0.5,1.8-1.5
			c0.4-1,0.6-2.6,0.6-4.8c0-2.2-0.2-3.8-0.6-4.8c-0.3-1-1-1.5-1.8-1.5c-0.8,0-1.4,0.5-1.8,1.5C78.6,28.6,78.4,30.2,78.4,32.4z"/>
		<path class="st7" d="M79.3,38.1L79,38.4c-0.2-0.2-0.3-0.6-0.5-0.9c-0.4-1.1-0.6-2.8-0.6-5.1s0.2-4,0.6-5.1
			c0.5-1.2,1.2-1.8,2.3-1.8c0.7,0,1.2,0.3,1.8,0.9l-0.2,0.3c-0.4-0.5-0.9-0.8-1.5-0.8c-0.9,0-1.6,0.5-2,1.6c-0.4,1-0.6,2.6-0.6,4.9
			c0,2.2,0.2,3.8,0.6,4.9C78.9,37.6,79.1,37.8,79.3,38.1z M85.5,26.4l-0.2,0.3c1.1,1.4,1.6,3.3,1.6,5.7c0,2.4-0.6,4.3-1.7,5.8
			c-1.1,1.4-2.6,2.2-4.4,2.2c-1.8,0-3.3-0.8-4.4-2.2l0,0l-0.2,0.3l0,0c1.2,1.5,2.7,2.2,4.7,2.2c1.9,0,3.5-0.8,4.7-2.3
			c1.2-1.5,1.8-3.6,1.8-6.1C87.2,29.9,86.7,27.9,85.5,26.4z M101.8,35.2c0-0.1,0-0.1,0-0.2l-0.3,0.4c0,0.1,0,0.2,0,0.3
			c0,1.6-0.3,2.8-0.9,3.5c-0.6,0.8-1.6,1.1-2.9,1.1c-0.7,0-1.5-0.2-2.5-0.7l-0.4-0.2c-0.6-0.2-1-0.4-1.4-0.5s-0.7-0.2-1-0.2
			c-0.4,0-0.8,0.1-1.2,0.3c-0.2,0.2-0.4,0.4-0.6,0.7h-1.2L89,40.3h1.8c0.2-0.3,0.3-0.6,0.6-0.8c0.2-0.2,0.6-0.2,0.9-0.2
			c0.2,0,0.6,0.1,0.9,0.2s0.8,0.2,1.3,0.5l0.4,0.2c1.1,0.5,1.9,0.7,2.7,0.7c1.4,0,2.5-0.4,3.2-1.2c0.7-0.8,1-2.1,1-3.8
			C101.8,35.5,101.8,35.2,101.8,35.2z M89.6,31c0.4,0.5,1,0.8,1.8,0.8c0.6,0,1.1-0.2,1.5-0.6c0.4-0.4,0.6-0.8,0.6-1.4
			c0-0.5-0.2-0.8-0.4-1.2l-0.2,0.3l0,0c0.2,0.2,0.2,0.5,0.2,0.8c0,0.4-0.2,0.8-0.4,1c-0.3,0.3-0.7,0.5-1.2,0.5
			c-0.7,0-1.2-0.2-1.5-0.6L89.6,31L89.6,31z M100.3,26.7C100.4,26.7,100.4,26.7,100.3,26.7c0.5,0.8,0.7,1.5,0.7,2.4
			c0,1-0.3,1.9-0.9,2.7c-0.7,0.8-1.8,1.4-3.1,1.8c-0.2,0.1-0.5,0.2-0.8,0.2c-2.6,0.8-4.2,1.8-4.9,2.9c-0.2,0.2-0.2,0.6,0,0.8
			l0.2-0.2c-0.1-0.1-0.1-0.2,0-0.2c0.7-1.1,2.3-2,4.8-2.8c0.3-0.1,0.7-0.2,0.8-0.2c1.4-0.5,2.5-1.2,3.2-2c0.8-0.8,1.1-1.8,1.1-3
			c0-1.1-0.2-2-0.8-2.8L100.3,26.7z M96.4,26.4c-0.6-0.6-1.4-0.8-2.4-0.8c-0.8,0-1.5,0.2-2.1,0.6s-1,0.9-1.2,1.7
			c-0.1,0.2-0.1,0.5,0.1,0.8l0.2-0.2c0-0.1-0.1-0.2,0-0.2c0.2-0.7,0.6-1.2,1.2-1.5c0.5-0.3,1.2-0.5,1.9-0.5c0.9,0,1.7,0.2,2.2,0.8
			L96.4,26.4C96.5,26.4,96.4,26.4,96.4,26.4z"/>
	</g>
	<rect x="52.8" y="0" class="st8" width="351.6" height="291.5"/>
	<g>
		<polygon class="st2" points="52.8,202.9 41.1,187.6 52.8,187.6 		"/>
		<polygon class="st2" points="404.3,202.9 416.1,187.6 404.3,187.6 		"/>
		<rect x="52.8" y="179.2" class="st9" width="351.6" height="14.5"/>
	</g>
	<g>
		<rect x="41.1" y="72.6" class="st1" width="375" height="114.7"/>
		<g>
			<rect x="74.6" y="131.2" class="st3" width="300.4" height="34.2"/>
			<g class="st4">
				<path class="st10" d="M105.5,142.1c-0.7-0.2-1.2-0.6-1.7-1.1l0.4-0.7c0.5,0.5,1.1,0.8,1.6,1c0.5,0.2,1.2,0.3,2,0.3
					c0.9,0,1.6-0.2,2.1-0.6c0.5-0.4,0.8-0.9,0.8-1.6c0-0.4-0.1-0.7-0.4-1c-0.2-0.2-0.6-0.4-0.9-0.6c-0.4-0.1-0.9-0.3-1.5-0.4
					c-0.8-0.2-1.5-0.4-2-0.6c-0.5-0.2-1-0.5-1.3-0.9c-0.4-0.4-0.5-0.9-0.5-1.6c0-0.6,0.2-1.1,0.5-1.6c0.3-0.5,0.8-0.8,1.3-1.1
					c0.6-0.3,1.3-0.4,2-0.4c0.7,0,1.4,0.1,2,0.4c0.6,0.2,1.2,0.6,1.6,1.1l-0.4,0.7c-0.5-0.5-1-0.8-1.5-1c-0.5-0.2-1.1-0.3-1.7-0.3
					c-0.9,0-1.6,0.2-2.1,0.6c-0.5,0.4-0.8,0.9-0.8,1.6c0,0.6,0.2,1,0.7,1.3c0.4,0.3,1.1,0.5,2,0.7l0.4,0.1c0.8,0.2,1.4,0.4,1.9,0.6
					s0.9,0.5,1.2,0.8s0.5,0.8,0.5,1.5c0,0.6-0.2,1.1-0.5,1.6c-0.3,0.4-0.8,0.8-1.3,1c-0.6,0.2-1.3,0.4-2,0.4
					C106.9,142.4,106.1,142.3,105.5,142.1z"/>
				<path class="st10" d="M114,138.4L114,138.4c0,1.1,0.2,1.8,0.7,2.4c0.5,0.5,1.2,0.8,2.1,0.8c0.9,0,1.7-0.3,2.5-0.9l0.4,0.7
					c-0.3,0.3-0.8,0.6-1.3,0.7c-0.5,0.2-1,0.3-1.6,0.3c-1.2,0-2.1-0.3-2.7-1c-0.7-0.7-1-1.7-1-2.9c0-0.8,0.1-1.5,0.4-2.1
					c0.3-0.6,0.7-1.1,1.2-1.4c0.5-0.3,1.2-0.5,1.8-0.5c1,0,1.8,0.3,2.3,1c0.6,0.6,0.8,1.5,0.8,2.7v0.2H114z M114.9,135.9
					c-0.4,0.4-0.7,1-0.8,1.8h4.8c-0.1-0.8-0.3-1.4-0.7-1.8c-0.4-0.4-0.9-0.6-1.6-0.6C115.9,135.3,115.3,135.5,114.9,135.9z"/>
				<path class="st10" d="M122.9,141.9c-0.5-0.3-0.9-0.8-1.2-1.4c-0.3-0.6-0.4-1.3-0.4-2.1c0-0.8,0.1-1.5,0.4-2.1
					c0.3-0.6,0.7-1.1,1.3-1.4c0.5-0.3,1.2-0.5,1.9-0.5c0.5,0,1,0.1,1.5,0.3c0.5,0.2,0.9,0.4,1.2,0.7l-0.4,0.7
					c-0.4-0.3-0.8-0.6-1.1-0.7c-0.4-0.1-0.7-0.2-1.1-0.2c-0.8,0-1.5,0.3-1.9,0.8s-0.7,1.3-0.7,2.3c0,1,0.2,1.7,0.7,2.3
					c0.5,0.5,1.1,0.8,1.9,0.8c0.4,0,0.8-0.1,1.1-0.2c0.4-0.1,0.7-0.4,1.1-0.7l0.4,0.7c-0.3,0.3-0.7,0.6-1.2,0.7
					c-0.5,0.2-1,0.3-1.5,0.3C124.1,142.4,123.5,142.2,122.9,141.9z"/>
				<path class="st10" d="M135.3,134.7v7.6h-0.9v-1.4c-0.2,0.5-0.6,0.9-1,1.1c-0.4,0.3-1,0.4-1.5,0.4c-0.9,0-1.6-0.2-2-0.7
					c-0.5-0.5-0.7-1.2-0.7-2.2v-4.8h0.9v4.7c0,0.7,0.2,1.3,0.5,1.6c0.3,0.4,0.8,0.5,1.4,0.5c0.7,0,1.3-0.2,1.8-0.7
					c0.4-0.5,0.7-1.1,0.7-1.9v-4.3H135.3z"/>
				<path class="st10" d="M141.7,134.6l0,0.8c-0.2,0-0.4-0.1-0.7-0.1c-0.8,0-1.3,0.2-1.7,0.7c-0.4,0.5-0.6,1.1-0.6,1.7v4.4h-0.9
					v-5.5c0-0.8,0-1.5-0.1-2.1h0.9l0.1,1.4c0.2-0.5,0.5-0.9,0.9-1.2c0.4-0.3,0.9-0.4,1.5-0.4C141.3,134.5,141.5,134.5,141.7,134.6z"
					/>
				<path class="st10" d="M144.1,131.6v1.2h-1.2v-1.2H144.1z M143.1,134.7h0.9v7.6h-0.9V134.7z"/>
				<path class="st10" d="M147.8,135.5v4.5c0,0.6,0.1,1,0.3,1.3c0.2,0.2,0.6,0.3,1,0.3c0.3,0,0.6,0,0.8-0.1v0.8
					c-0.3,0.1-0.7,0.1-1,0.1c-0.7,0-1.2-0.2-1.6-0.6c-0.4-0.4-0.6-0.9-0.6-1.7v-4.7h-1.5v-0.7h1.5v-2l0.9-0.3v2.4h2.2v0.7H147.8z"/>
				<path class="st10" d="M158.1,134.7l-3.6,8.4c-0.4,0.8-0.8,1.4-1.3,1.8c-0.5,0.4-1.2,0.7-2,0.8L151,145c0.7-0.2,1.3-0.4,1.6-0.7
					c0.4-0.3,0.7-0.7,0.9-1.3l0.3-0.7l-3.2-7.6h1l2.7,6.7l2.8-6.7H158.1z"/>
				<path class="st10" d="M170.6,139.4h-5.8l-1.2,2.9h-1l4.7-10.8h0.8l4.7,10.8h-1L170.6,139.4z M170.3,138.6l-2.5-5.9l-2.6,5.9
					H170.3z"/>
				<path class="st10" d="M180.6,134.7v7.6h-0.9v-1.4c-0.2,0.5-0.6,0.9-1,1.1c-0.4,0.3-1,0.4-1.5,0.4c-0.9,0-1.6-0.2-2-0.7
					c-0.5-0.5-0.7-1.2-0.7-2.2v-4.8h0.9v4.7c0,0.7,0.2,1.3,0.5,1.6c0.3,0.4,0.8,0.5,1.4,0.5c0.7,0,1.3-0.2,1.8-0.7
					c0.4-0.5,0.7-1.1,0.7-1.9v-4.3H180.6z"/>
				<path class="st10" d="M184.4,135.5v4.5c0,0.6,0.1,1,0.3,1.3c0.2,0.2,0.6,0.3,1,0.3c0.3,0,0.6,0,0.8-0.1v0.8
					c-0.3,0.1-0.7,0.1-1,0.1c-0.7,0-1.2-0.2-1.6-0.6c-0.4-0.4-0.6-0.9-0.6-1.7v-4.7H182v-0.7h1.5v-2l0.9-0.3v2.4h2.2v0.7H184.4z"/>
				<path class="st10" d="M194.5,137.5v4.8h-0.9v-4.8c0-0.8-0.2-1.3-0.5-1.7c-0.3-0.4-0.8-0.5-1.4-0.5c-0.8,0-1.4,0.2-1.8,0.7
					c-0.5,0.5-0.7,1.1-0.7,1.9v4.4h-0.9v-11.1h0.9v4.9c0.2-0.5,0.6-0.9,1-1.1c0.5-0.3,1-0.4,1.6-0.4
					C193.6,134.5,194.5,135.5,194.5,137.5z"/>
				<path class="st10" d="M198.1,141.9c-0.5-0.3-0.9-0.8-1.2-1.4c-0.3-0.6-0.4-1.3-0.4-2.1s0.1-1.5,0.4-2.1c0.3-0.6,0.7-1.1,1.2-1.4
					s1.1-0.5,1.8-0.5c0.7,0,1.3,0.2,1.8,0.5c0.5,0.3,0.9,0.8,1.2,1.4c0.3,0.6,0.4,1.3,0.4,2.1s-0.1,1.5-0.4,2.1
					c-0.3,0.6-0.7,1.1-1.2,1.4c-0.5,0.3-1.1,0.5-1.8,0.5C199.3,142.4,198.7,142.2,198.1,141.9z M201.8,140.8
					c0.4-0.5,0.7-1.3,0.7-2.3c0-1-0.2-1.8-0.7-2.3c-0.4-0.5-1.1-0.8-1.8-0.8c-0.8,0-1.4,0.3-1.9,0.8c-0.4,0.6-0.7,1.3-0.7,2.3
					c0,1,0.2,1.8,0.7,2.3c0.4,0.5,1.1,0.8,1.9,0.8S201.4,141.3,201.8,140.8z"/>
				<path class="st10" d="M209.4,134.6l0,0.8c-0.2,0-0.4-0.1-0.7-0.1c-0.8,0-1.3,0.2-1.7,0.7c-0.4,0.5-0.6,1.1-0.6,1.7v4.4h-0.9
					v-5.5c0-0.8,0-1.5-0.1-2.1h0.9l0.1,1.4c0.2-0.5,0.5-0.9,0.9-1.2c0.4-0.3,0.9-0.4,1.5-0.4C209,134.5,209.2,134.5,209.4,134.6z"/>
				<path class="st10" d="M211.8,131.6v1.2h-1.2v-1.2H211.8z M210.7,134.7h0.9v7.6h-0.9V134.7z"/>
				<path class="st10" d="M220,141.5v0.8h-6.3v-0.6l5-6.2h-4.9v-0.7h6v0.7l-5,6.1H220z"/>
				<path class="st10" d="M228.3,134.7v7.6h-0.9v-1.5c-0.2,0.5-0.6,0.9-1,1.2c-0.4,0.3-1,0.4-1.6,0.4c-0.7,0-1.3-0.2-1.8-0.5
					c-0.5-0.3-0.9-0.8-1.2-1.4s-0.4-1.3-0.4-2.1s0.1-1.5,0.4-2.1c0.3-0.6,0.7-1.1,1.2-1.4c0.5-0.3,1.1-0.5,1.8-0.5
					c0.6,0,1.1,0.1,1.6,0.4c0.4,0.3,0.8,0.6,1,1.2v-1.4H228.3z M226.7,140.8c0.4-0.5,0.7-1.3,0.7-2.3c0-1-0.2-1.8-0.7-2.3
					c-0.4-0.5-1-0.8-1.8-0.8c-0.8,0-1.4,0.3-1.9,0.8s-0.7,1.3-0.7,2.3c0,1,0.2,1.7,0.7,2.3c0.4,0.5,1.1,0.8,1.9,0.8
					C225.6,141.6,226.3,141.3,226.7,140.8z"/>
				<path class="st10" d="M232.1,135.5v4.5c0,0.6,0.1,1,0.3,1.3c0.2,0.2,0.6,0.3,1,0.3c0.3,0,0.6,0,0.8-0.1v0.8
					c-0.3,0.1-0.7,0.1-1,0.1c-0.7,0-1.2-0.2-1.6-0.6c-0.4-0.4-0.6-0.9-0.6-1.7v-4.7h-1.5v-0.7h1.5v-2l0.9-0.3v2.4h2.2v0.7H232.1z"/>
				<path class="st10" d="M237,131.6v1.2h-1.2v-1.2H237z M235.9,134.7h0.9v7.6h-0.9V134.7z"/>
				<path class="st10" d="M240.5,141.9c-0.5-0.3-0.9-0.8-1.2-1.4c-0.3-0.6-0.4-1.3-0.4-2.1s0.1-1.5,0.4-2.1c0.3-0.6,0.7-1.1,1.2-1.4
					c0.5-0.3,1.1-0.5,1.8-0.5c0.7,0,1.3,0.2,1.8,0.5s0.9,0.8,1.2,1.4c0.3,0.6,0.4,1.3,0.4,2.1s-0.1,1.5-0.4,2.1
					c-0.3,0.6-0.7,1.1-1.2,1.4c-0.5,0.3-1.1,0.5-1.8,0.5C241.6,142.4,241,142.2,240.5,141.9z M244.2,140.8c0.4-0.5,0.7-1.3,0.7-2.3
					c0-1-0.2-1.8-0.7-2.3c-0.4-0.5-1.1-0.8-1.8-0.8c-0.8,0-1.4,0.3-1.9,0.8c-0.4,0.6-0.7,1.3-0.7,2.3c0,1,0.2,1.8,0.7,2.3
					c0.4,0.5,1.1,0.8,1.9,0.8C243.1,141.6,243.8,141.3,244.2,140.8z"/>
				<path class="st10" d="M254.1,137.5v4.8h-0.9v-4.8c0-0.8-0.2-1.3-0.5-1.7c-0.3-0.4-0.8-0.5-1.4-0.5c-0.8,0-1.4,0.2-1.8,0.7
					c-0.5,0.5-0.7,1.1-0.7,1.9v4.4h-0.9v-5.5c0-0.8,0-1.5-0.1-2.1h0.9l0.1,1.4c0.2-0.5,0.6-0.9,1-1.2c0.5-0.3,1-0.4,1.6-0.4
					C253.2,134.5,254.1,135.5,254.1,137.5z"/>
				<path class="st10" d="M260.6,131.5h4.1c1.1,0,1.9,0.3,2.5,0.8c0.6,0.5,0.9,1.2,0.9,2.2c0,0.9-0.3,1.7-0.9,2.2
					c-0.6,0.5-1.5,0.8-2.5,0.8h-3.2v4.8h-0.9V131.5z M264.7,136.6c0.8,0,1.5-0.2,1.9-0.6c0.4-0.4,0.7-0.9,0.7-1.6
					c0-0.7-0.2-1.2-0.7-1.6c-0.4-0.4-1.1-0.6-1.9-0.6h-3.1v4.3H264.7z"/>
				<path class="st10" d="M276.4,134.7v7.6h-0.9v-1.5c-0.2,0.5-0.6,0.9-1,1.2c-0.4,0.3-1,0.4-1.6,0.4c-0.7,0-1.3-0.2-1.8-0.5
					c-0.5-0.3-0.9-0.8-1.2-1.4c-0.3-0.6-0.4-1.3-0.4-2.1s0.1-1.5,0.4-2.1c0.3-0.6,0.7-1.1,1.2-1.4c0.5-0.3,1.1-0.5,1.8-0.5
					c0.6,0,1.1,0.1,1.6,0.4c0.4,0.3,0.8,0.6,1,1.2v-1.4H276.4z M274.8,140.8c0.4-0.5,0.7-1.3,0.7-2.3c0-1-0.2-1.8-0.7-2.3
					c-0.4-0.5-1-0.8-1.8-0.8c-0.8,0-1.4,0.3-1.9,0.8s-0.7,1.3-0.7,2.3c0,1,0.2,1.7,0.7,2.3c0.4,0.5,1.1,0.8,1.9,0.8
					C273.8,141.6,274.4,141.3,274.8,140.8z"/>
				<path class="st10" d="M280.1,141.9c-0.5-0.3-0.9-0.8-1.2-1.4c-0.3-0.6-0.4-1.3-0.4-2.1c0-0.8,0.1-1.5,0.4-2.1
					c0.3-0.6,0.7-1.1,1.3-1.4c0.5-0.3,1.2-0.5,1.9-0.5c0.5,0,1,0.1,1.5,0.3c0.5,0.2,0.9,0.4,1.2,0.7l-0.4,0.7
					c-0.4-0.3-0.8-0.6-1.1-0.7c-0.4-0.1-0.7-0.2-1.1-0.2c-0.8,0-1.5,0.3-1.9,0.8c-0.5,0.6-0.7,1.3-0.7,2.3c0,1,0.2,1.7,0.7,2.3
					c0.5,0.5,1.1,0.8,1.9,0.8c0.4,0,0.8-0.1,1.1-0.2c0.4-0.1,0.7-0.4,1.1-0.7l0.4,0.7c-0.3,0.3-0.7,0.6-1.2,0.7s-1,0.3-1.5,0.3
					C281.3,142.4,280.6,142.2,280.1,141.9z"/>
				<path class="st10" d="M291.4,142.3l-4.2-3.7v3.7h-0.9v-11.1h0.9v7.1l3.8-3.5h1.2l-4,3.6l4.4,3.9H291.4z"/>
				<path class="st10" d="M300.1,134.7v7.6h-0.9v-1.5c-0.2,0.5-0.6,0.9-1,1.2c-0.4,0.3-1,0.4-1.6,0.4c-0.7,0-1.3-0.2-1.8-0.5
					c-0.5-0.3-0.9-0.8-1.2-1.4c-0.3-0.6-0.4-1.3-0.4-2.1s0.1-1.5,0.4-2.1c0.3-0.6,0.7-1.1,1.2-1.4c0.5-0.3,1.1-0.5,1.8-0.5
					c0.6,0,1.1,0.1,1.6,0.4c0.4,0.3,0.8,0.6,1,1.2v-1.4H300.1z M298.6,140.8c0.4-0.5,0.7-1.3,0.7-2.3c0-1-0.2-1.8-0.7-2.3
					c-0.4-0.5-1-0.8-1.8-0.8c-0.8,0-1.4,0.3-1.9,0.8s-0.7,1.3-0.7,2.3c0,1,0.2,1.7,0.7,2.3c0.4,0.5,1.1,0.8,1.9,0.8
					C297.5,141.6,298.1,141.3,298.6,140.8z"/>
				<path class="st10" d="M309.1,134.7v7.6c0,1.1-0.3,1.9-0.8,2.5s-1.3,0.8-2.4,0.8c-1.1,0-2.1-0.3-3-0.8l0.2-0.8
					c0.5,0.3,0.9,0.5,1.4,0.6c0.4,0.1,0.9,0.2,1.4,0.2c0.8,0,1.3-0.2,1.7-0.6c0.4-0.4,0.6-1,0.6-1.8v-2c-0.2,0.5-0.6,0.9-1,1.2
					s-1,0.4-1.6,0.4c-0.7,0-1.3-0.2-1.8-0.5s-0.9-0.8-1.2-1.3c-0.3-0.6-0.4-1.2-0.4-2c0-0.7,0.1-1.4,0.4-2c0.3-0.6,0.7-1,1.2-1.3
					c0.5-0.3,1.1-0.5,1.8-0.5c0.6,0,1.2,0.1,1.6,0.4c0.4,0.3,0.8,0.6,1,1.2v-1.4H309.1z M307.5,140.4c0.4-0.5,0.7-1.2,0.7-2.1
					c0-0.9-0.2-1.6-0.7-2.2s-1.1-0.8-1.9-0.8c-0.8,0-1.4,0.3-1.9,0.8s-0.7,1.3-0.7,2.2c0,0.9,0.2,1.6,0.7,2.2s1.1,0.8,1.9,0.8
					C306.5,141.2,307.1,141,307.5,140.4z"/>
				<path class="st10" d="M312.1,138.4L312.1,138.4c0,1.1,0.2,1.8,0.7,2.4c0.5,0.5,1.2,0.8,2.1,0.8c0.9,0,1.7-0.3,2.5-0.9l0.4,0.7
					c-0.3,0.3-0.8,0.6-1.3,0.7c-0.5,0.2-1,0.3-1.6,0.3c-1.2,0-2.1-0.3-2.7-1s-1-1.7-1-2.9c0-0.8,0.1-1.5,0.4-2.1
					c0.3-0.6,0.7-1.1,1.2-1.4c0.5-0.3,1.2-0.5,1.8-0.5c1,0,1.8,0.3,2.3,1c0.6,0.6,0.8,1.5,0.8,2.7v0.2H312.1z M313,135.9
					c-0.4,0.4-0.7,1-0.8,1.8h4.8c-0.1-0.8-0.3-1.4-0.7-1.8s-0.9-0.6-1.6-0.6C314,135.3,313.5,135.5,313,135.9z"/>
				<path class="st10" d="M324.5,141.7c-0.3-1.1-0.4-2.3-0.4-3.4c0-1.2,0.1-2.3,0.4-3.4c0.3-1.1,0.7-2.2,1.2-3.3h0.8
					c-0.5,1.2-0.9,2.4-1.1,3.5c-0.2,1.1-0.3,2.2-0.3,3.3s0.1,2.2,0.3,3.3c0.2,1.1,0.6,2.3,1.1,3.5h-0.8
					C325.2,143.9,324.7,142.8,324.5,141.7z"/>
				<path class="st10" d="M329.5,142.1c-0.7-0.2-1.2-0.6-1.7-1.1l0.4-0.7c0.5,0.5,1.1,0.8,1.6,1c0.5,0.2,1.2,0.3,2,0.3
					c0.9,0,1.6-0.2,2.1-0.6c0.5-0.4,0.8-0.9,0.8-1.6c0-0.4-0.1-0.7-0.4-1c-0.2-0.2-0.6-0.4-0.9-0.6c-0.4-0.1-0.9-0.3-1.5-0.4
					c-0.8-0.2-1.5-0.4-2-0.6s-1-0.5-1.3-0.9c-0.4-0.4-0.5-0.9-0.5-1.6c0-0.6,0.2-1.1,0.5-1.6c0.3-0.5,0.8-0.8,1.3-1.1
					c0.6-0.3,1.3-0.4,2-0.4c0.7,0,1.4,0.1,2,0.4c0.6,0.2,1.2,0.6,1.6,1.1l-0.4,0.7c-0.5-0.5-1-0.8-1.5-1c-0.5-0.2-1.1-0.3-1.7-0.3
					c-0.9,0-1.6,0.2-2.1,0.6c-0.5,0.4-0.8,0.9-0.8,1.6c0,0.6,0.2,1,0.7,1.3c0.4,0.3,1.1,0.5,2,0.7l0.4,0.1c0.8,0.2,1.4,0.4,1.9,0.6
					c0.5,0.2,0.9,0.5,1.2,0.8c0.3,0.4,0.5,0.8,0.5,1.5c0,0.6-0.2,1.1-0.5,1.6c-0.3,0.4-0.8,0.8-1.3,1c-0.6,0.2-1.3,0.4-2,0.4
					C330.9,142.4,330.2,142.3,329.5,142.1z"/>
				<path class="st10" d="M338.8,142.1c-0.7-0.2-1.2-0.6-1.7-1.1l0.4-0.7c0.5,0.5,1.1,0.8,1.6,1c0.5,0.2,1.2,0.3,2,0.3
					c0.9,0,1.6-0.2,2.1-0.6c0.5-0.4,0.8-0.9,0.8-1.6c0-0.4-0.1-0.7-0.4-1c-0.2-0.2-0.6-0.4-0.9-0.6c-0.4-0.1-0.9-0.3-1.5-0.4
					c-0.8-0.2-1.5-0.4-2-0.6s-1-0.5-1.3-0.9c-0.4-0.4-0.5-0.9-0.5-1.6c0-0.6,0.2-1.1,0.5-1.6c0.3-0.5,0.8-0.8,1.3-1.1
					c0.6-0.3,1.3-0.4,2-0.4c0.7,0,1.4,0.1,2,0.4c0.6,0.2,1.2,0.6,1.6,1.1l-0.4,0.7c-0.5-0.5-1-0.8-1.5-1c-0.5-0.2-1.1-0.3-1.7-0.3
					c-0.9,0-1.6,0.2-2.1,0.6c-0.5,0.4-0.8,0.9-0.8,1.6c0,0.6,0.2,1,0.7,1.3c0.4,0.3,1.1,0.5,2,0.7l0.4,0.1c0.8,0.2,1.4,0.4,1.9,0.6
					c0.5,0.2,0.9,0.5,1.2,0.8c0.3,0.4,0.5,0.8,0.5,1.5c0,0.6-0.2,1.1-0.5,1.6c-0.3,0.4-0.8,0.8-1.3,1c-0.6,0.2-1.3,0.4-2,0.4
					C340.2,142.4,339.4,142.3,338.8,142.1z"/>
				<path class="st10" d="M347,131.5h4.1c1.1,0,1.9,0.3,2.5,0.8c0.6,0.5,0.9,1.2,0.9,2.2c0,0.9-0.3,1.7-0.9,2.2
					c-0.6,0.5-1.5,0.8-2.5,0.8h-3.2v4.8H347V131.5z M351.1,136.6c0.8,0,1.5-0.2,1.9-0.6c0.4-0.4,0.7-0.9,0.7-1.6
					c0-0.7-0.2-1.2-0.7-1.6c-0.4-0.4-1.1-0.6-1.9-0.6h-3.1v4.3H351.1z"/>
				<path class="st10" d="M356.9,141v1c0,0.4-0.1,0.7-0.2,1.1c-0.1,0.3-0.3,0.6-0.6,0.9l-0.5-0.4c0.3-0.4,0.5-0.8,0.6-1.2h-0.6V141
					H356.9z"/>
			</g>
			<g class="st4">
				<path class="st10" d="M105.5,161c-0.7-0.2-1.2-0.6-1.7-1.1l0.4-0.7c0.5,0.5,1.1,0.8,1.6,1c0.5,0.2,1.2,0.3,2,0.3
					c0.9,0,1.6-0.2,2.1-0.6c0.5-0.4,0.8-0.9,0.8-1.6c0-0.4-0.1-0.7-0.4-1c-0.2-0.2-0.6-0.4-0.9-0.6c-0.4-0.1-0.9-0.3-1.5-0.4
					c-0.8-0.2-1.5-0.4-2-0.6c-0.5-0.2-1-0.5-1.3-0.9c-0.4-0.4-0.5-0.9-0.5-1.6c0-0.6,0.2-1.1,0.5-1.6c0.3-0.5,0.8-0.8,1.3-1.1
					c0.6-0.3,1.3-0.4,2-0.4c0.7,0,1.4,0.1,2,0.4c0.6,0.2,1.2,0.6,1.6,1.1l-0.4,0.7c-0.5-0.5-1-0.8-1.5-1c-0.5-0.2-1.1-0.3-1.7-0.3
					c-0.9,0-1.6,0.2-2.1,0.6c-0.5,0.4-0.8,0.9-0.8,1.6c0,0.6,0.2,1,0.7,1.3c0.4,0.3,1.1,0.5,2,0.7l0.4,0.1c0.8,0.2,1.4,0.4,1.9,0.6
					s0.9,0.5,1.2,0.8s0.5,0.8,0.5,1.5c0,0.6-0.2,1.1-0.5,1.6c-0.3,0.4-0.8,0.8-1.3,1c-0.6,0.2-1.3,0.4-2,0.4
					C106.9,161.3,106.1,161.2,105.5,161z"/>
				<path class="st10" d="M120.7,158.3h-5.8l-1.2,2.9h-1l4.7-10.8h0.8l4.7,10.8h-1L120.7,158.3z M120.3,157.5l-2.5-5.9l-2.6,5.9
					H120.3z"/>
				<path class="st10" d="M124.7,150.4h4.1c1.1,0,1.9,0.3,2.5,0.8c0.6,0.5,0.9,1.2,0.9,2.2c0,0.9-0.3,1.7-0.9,2.2
					c-0.6,0.5-1.5,0.8-2.5,0.8h-3.2v4.8h-0.9V150.4z M128.7,155.5c0.8,0,1.5-0.2,1.9-0.6c0.4-0.4,0.7-0.9,0.7-1.6
					c0-0.7-0.2-1.2-0.7-1.6c-0.4-0.4-1.1-0.6-1.9-0.6h-3.1v4.3H128.7z"/>
				<path class="st10" d="M134.6,159.9v1c0,0.4-0.1,0.7-0.2,1.1c-0.1,0.3-0.3,0.6-0.6,0.9l-0.5-0.4c0.3-0.4,0.5-0.8,0.6-1.2h-0.6
					v-1.3H134.6z"/>
				<path class="st10" d="M141.9,161c-0.7-0.2-1.2-0.6-1.7-1.1l0.4-0.7c0.5,0.5,1.1,0.8,1.6,1c0.5,0.2,1.2,0.3,2,0.3
					c0.9,0,1.6-0.2,2.1-0.6c0.5-0.4,0.8-0.9,0.8-1.6c0-0.4-0.1-0.7-0.4-1c-0.2-0.2-0.6-0.4-0.9-0.6c-0.4-0.1-0.9-0.3-1.5-0.4
					c-0.8-0.2-1.5-0.4-2-0.6c-0.5-0.2-1-0.5-1.3-0.9c-0.4-0.4-0.5-0.9-0.5-1.6c0-0.6,0.2-1.1,0.5-1.6c0.3-0.5,0.8-0.8,1.3-1.1
					c0.6-0.3,1.3-0.4,2-0.4c0.7,0,1.4,0.1,2,0.4c0.6,0.2,1.2,0.6,1.6,1.1l-0.4,0.7c-0.5-0.5-1-0.8-1.5-1c-0.5-0.2-1.1-0.3-1.7-0.3
					c-0.9,0-1.6,0.2-2.1,0.6c-0.5,0.4-0.8,0.9-0.8,1.6c0,0.6,0.2,1,0.7,1.3c0.4,0.3,1.1,0.5,2,0.7l0.4,0.1c0.8,0.2,1.4,0.4,1.9,0.6
					s0.9,0.5,1.2,0.8s0.5,0.8,0.5,1.5c0,0.6-0.2,1.1-0.5,1.6c-0.3,0.4-0.8,0.8-1.3,1c-0.6,0.2-1.3,0.4-2,0.4
					C143.3,161.3,142.6,161.2,141.9,161z"/>
				<path class="st10" d="M157.1,158.3h-5.8l-1.2,2.9h-1l4.7-10.8h0.8l4.7,10.8h-1L157.1,158.3z M156.8,157.5l-2.5-5.9l-2.6,5.9
					H156.8z"/>
				<path class="st10" d="M169.4,161.2h-1l-1.3-3.6c-0.2-0.5-0.4-0.8-0.7-1s-0.7-0.2-1.3-0.2h-3v4.8h-0.9v-10.8h4.2
					c1.1,0,2,0.3,2.6,0.8c0.6,0.5,0.9,1.2,0.9,2.2c0,0.7-0.2,1.3-0.6,1.8c-0.4,0.5-0.9,0.8-1.6,1c0.3,0.1,0.6,0.2,0.8,0.4
					c0.2,0.2,0.4,0.5,0.6,0.9L169.4,161.2z M165.2,155.6c1.8,0,2.6-0.7,2.6-2.2c0-1.4-0.9-2.1-2.6-2.1H162v4.3H165.2z"/>
				<path class="st10" d="M172.6,159.9v1c0,0.4-0.1,0.7-0.2,1.1c-0.1,0.3-0.3,0.6-0.6,0.9l-0.5-0.4c0.3-0.4,0.5-0.8,0.6-1.2h-0.6
					v-1.3H172.6z"/>
				<path class="st10" d="M178.9,150.4h4.1c1.1,0,1.9,0.3,2.5,0.8c0.6,0.5,0.9,1.2,0.9,2.2c0,0.9-0.3,1.7-0.9,2.2
					c-0.6,0.5-1.5,0.8-2.5,0.8h-3.2v4.8h-0.9V150.4z M183,155.5c0.8,0,1.5-0.2,1.9-0.6c0.4-0.4,0.7-0.9,0.7-1.6
					c0-0.7-0.2-1.2-0.7-1.6c-0.4-0.4-1.1-0.6-1.9-0.6h-3.1v4.3H183z"/>
				<path class="st10" d="M190.3,160.7c-0.7-0.4-1.3-1.1-1.7-1.9c-0.4-0.8-0.6-1.8-0.6-2.9c0-1.1,0.2-2.1,0.6-2.9
					c0.4-0.8,0.9-1.5,1.7-1.9c0.7-0.4,1.6-0.7,2.6-0.7c1,0,1.8,0.2,2.6,0.7c0.7,0.4,1.3,1.1,1.7,1.9c0.4,0.8,0.6,1.8,0.6,2.9
					c0,1.1-0.2,2.1-0.6,2.9c-0.4,0.8-0.9,1.5-1.7,1.9c-0.7,0.4-1.6,0.7-2.6,0.7C191.9,161.3,191.1,161.1,190.3,160.7z M195.7,159.3
					c0.7-0.8,1-2,1-3.5c0-1.5-0.3-2.6-1-3.5c-0.7-0.8-1.6-1.2-2.8-1.2c-1.2,0-2.2,0.4-2.8,1.2c-0.7,0.8-1,2-1,3.4
					c0,1.5,0.3,2.6,1,3.5c0.7,0.8,1.6,1.2,2.8,1.2C194.1,160.5,195,160.1,195.7,159.3z"/>
				<path class="st10" d="M206.9,158.3h-5.8l-1.2,2.9h-1l4.7-10.8h0.8l4.7,10.8h-1L206.9,158.3z M206.5,157.5l-2.5-5.9l-2.6,5.9
					H206.5z"/>
				<path class="st10" d="M219.5,160.7l-0.5,0.6c-0.8-0.4-1.5-0.9-2.1-1.5c-0.4,0.5-0.9,0.9-1.5,1.1c-0.5,0.3-1.1,0.4-1.8,0.4
					c-0.7,0-1.2-0.1-1.7-0.3c-0.5-0.2-0.9-0.5-1.2-1c-0.3-0.4-0.4-0.9-0.4-1.4c0-0.6,0.2-1.2,0.6-1.8c0.4-0.5,1.1-1.1,2-1.6
					c-0.5-0.6-0.8-1.1-1-1.4c-0.2-0.4-0.3-0.7-0.3-1.1c0-0.7,0.2-1.2,0.7-1.6c0.5-0.4,1.1-0.6,1.8-0.6c0.7,0,1.3,0.2,1.7,0.6
					c0.4,0.4,0.6,0.9,0.6,1.5c0,0.5-0.2,1-0.5,1.4c-0.3,0.4-0.9,0.9-1.8,1.5l2.7,3.2c0.5-0.9,0.8-2.1,0.8-3.5h0.9
					c0,1.7-0.4,3.1-1.1,4.2C218,159.7,218.7,160.3,219.5,160.7z M216.4,159.2l-3-3.5c-0.8,0.5-1.4,1-1.7,1.4
					c-0.3,0.4-0.5,0.9-0.5,1.4c0,0.6,0.2,1.1,0.7,1.4c0.4,0.4,1,0.5,1.8,0.5C214.8,160.5,215.7,160.1,216.4,159.2z M212.8,153.5
					c0.2,0.3,0.4,0.7,0.9,1.2c0.7-0.5,1.2-0.9,1.5-1.2c0.3-0.3,0.4-0.7,0.4-1c0-0.4-0.1-0.7-0.4-1c-0.3-0.3-0.6-0.4-1-0.4
					c-0.5,0-0.9,0.1-1.1,0.4s-0.4,0.6-0.4,1.1C212.6,152.9,212.6,153.2,212.8,153.5z"/>
				<path class="st10" d="M230.9,150.4v10.8h-0.9v-8.6l-3.8,8.6h-0.7l-3.8-8.6l0,8.6h-0.9v-10.8h0.8l4.3,9.7l4.2-9.7H230.9z"/>
				<path class="st10" d="M232.8,164c0.5-1.2,0.9-2.4,1.1-3.5c0.2-1.1,0.3-2.2,0.3-3.3c0-1.1-0.1-2.2-0.3-3.3
					c-0.2-1.1-0.6-2.2-1.1-3.5h0.8c0.6,1.1,1,2.2,1.2,3.3c0.3,1.1,0.4,2.2,0.4,3.4c0,1.2-0.1,2.3-0.4,3.4c-0.3,1.1-0.7,2.2-1.2,3.3
					H232.8z"/>
				<path class="st10" d="M238.3,155.2l1.5-1.9l-2.4-0.7l0.2-0.7l2.3,0.8l-0.1-2.5h0.8l-0.1,2.5l2.3-0.8l0.2,0.7l-2.3,0.7l1.5,1.9
					l-0.6,0.5l-1.4-2l-1.4,2L238.3,155.2z"/>
			</g>
		</g>
		<g>
			<rect x="66.3" y="95.8" class="st3" width="225.3" height="19.5"/>
			<g class="st4">
				<path class="st2" d="M69.8,99.7v4.2h6v1.5h-6v4.8h-1.7V98.2h8.4v1.5H69.8z"/>
				<path class="st2" d="M86.8,101.1v9h-1.5v-1.4c-0.7,0.9-1.8,1.5-3.1,1.5c-2.3,0-3.9-1.3-3.9-3.9v-5.2h1.6v5
					c0,1.8,0.9,2.7,2.4,2.7c1.7,0,2.8-1.1,2.8-3v-4.7H86.8z"/>
				<path class="st2" d="M89.9,97.5h1.6v12.6h-1.6V97.5z"/>
				<path class="st2" d="M94.7,97.5h1.6v12.6h-1.6V97.5z"/>
				<path class="st2" d="M103.1,108.7l0.6-1.3c0.9,0.8,2.4,1.4,3.9,1.4c2.1,0,2.9-0.8,2.9-1.8c0-2.9-7.2-1.1-7.2-5.5
					c0-1.8,1.4-3.4,4.6-3.4c1.4,0,2.8,0.4,3.8,1.1l-0.6,1.4c-1-0.7-2.2-1-3.3-1c-2,0-2.9,0.9-2.9,1.9c0,2.9,7.2,1.1,7.2,5.5
					c0,1.8-1.5,3.4-4.6,3.4C105.9,110.2,104.1,109.6,103.1,108.7z"/>
				<path class="st2" d="M122.7,106.1h-7.3c0.2,1.6,1.5,2.6,3.3,2.6c1.1,0,1.9-0.4,2.6-1.1l0.9,1.1c-0.8,1-2.1,1.5-3.6,1.5
					c-2.9,0-4.9-1.9-4.9-4.6c0-2.7,1.9-4.6,4.5-4.6c2.6,0,4.5,1.9,4.5,4.6C122.7,105.8,122.7,106,122.7,106.1z M115.4,105h5.8
					c-0.2-1.5-1.3-2.6-2.9-2.6C116.7,102.4,115.5,103.4,115.4,105z"/>
				<path class="st2" d="M124.2,105.6c0-2.7,2-4.6,4.8-4.6c1.6,0,3,0.7,3.7,1.9l-1.2,0.8c-0.6-0.9-1.5-1.3-2.5-1.3
					c-1.8,0-3.1,1.2-3.1,3.2c0,2,1.3,3.2,3.1,3.2c1,0,1.9-0.4,2.5-1.3l1.2,0.8c-0.7,1.3-2.1,1.9-3.7,1.9
					C126.1,110.2,124.2,108.3,124.2,105.6z"/>
				<path class="st2" d="M143.1,101.1v9h-1.5v-1.4c-0.7,0.9-1.8,1.5-3.1,1.5c-2.3,0-3.9-1.3-3.9-3.9v-5.2h1.6v5
					c0,1.8,0.9,2.7,2.4,2.7c1.7,0,2.8-1.1,2.8-3v-4.7H143.1z"/>
				<path class="st2" d="M151.1,101v1.6c-0.1,0-0.3,0-0.4,0c-1.8,0-2.8,1.1-2.8,3v4.5h-1.6v-9h1.6v1.5
					C148.4,101.5,149.5,101,151.1,101z"/>
				<path class="st2" d="M152.8,98.3c0-0.6,0.5-1.1,1.1-1.1c0.6,0,1.1,0.5,1.1,1c0,0.6-0.5,1.1-1.1,1.1
					C153.3,99.3,152.8,98.9,152.8,98.3z M153.1,101.1h1.6v9h-1.6V101.1z"/>
				<path class="st2" d="M162.9,109.6c-0.5,0.4-1.2,0.6-2,0.6c-1.8,0-2.9-1-2.9-2.8v-5h-1.5v-1.3h1.5v-2h1.6v2h2.6v1.3h-2.6v4.9
					c0,1,0.5,1.5,1.4,1.5c0.5,0,0.9-0.2,1.3-0.4L162.9,109.6z"/>
				<path class="st2" d="M172.7,101.1l-4.4,9.9c-0.8,1.9-1.8,2.5-3.2,2.5c-0.9,0-1.8-0.3-2.3-0.8l0.7-1.2c0.4,0.4,1,0.7,1.6,0.7
					c0.8,0,1.3-0.4,1.7-1.4l0.3-0.6l-4-9h1.7l3.2,7.2l3.1-7.2H172.7z"/>
				<path class="st2" d="M186.7,107.1h-6.3l-1.3,3h-1.8l5.4-11.9h1.7l5.4,11.9H188L186.7,107.1z M186.1,105.8l-2.6-5.8l-2.6,5.8
					H186.1z"/>
				<path class="st2" d="M190.1,109.1l0.7-1.3c0.8,0.5,2,0.9,3.2,0.9c1.5,0,2.1-0.5,2.1-1.2c0-2-5.7-0.3-5.7-3.9
					c0-1.6,1.4-2.7,3.8-2.7c1.2,0,2.5,0.3,3.3,0.8l-0.7,1.3c-0.8-0.5-1.7-0.7-2.6-0.7c-1.4,0-2.1,0.5-2.1,1.2c0,2.1,5.7,0.4,5.7,3.9
					c0,1.6-1.5,2.7-3.9,2.7C192.3,110.2,190.8,109.7,190.1,109.1z"/>
				<path class="st2" d="M198.6,109.1l0.7-1.3c0.8,0.5,2,0.9,3.2,0.9c1.5,0,2.1-0.5,2.1-1.2c0-2-5.7-0.3-5.7-3.9
					c0-1.6,1.4-2.7,3.8-2.7c1.2,0,2.5,0.3,3.3,0.8l-0.7,1.3c-0.8-0.5-1.7-0.7-2.6-0.7c-1.4,0-2.1,0.5-2.1,1.2c0,2.1,5.7,0.4,5.7,3.9
					c0,1.6-1.5,2.7-3.9,2.7C200.8,110.2,199.3,109.7,198.6,109.1z"/>
				<path class="st2" d="M216.4,106.1h-7.3c0.2,1.6,1.5,2.6,3.3,2.6c1.1,0,1.9-0.4,2.6-1.1l0.9,1.1c-0.8,1-2.1,1.5-3.6,1.5
					c-2.9,0-4.9-1.9-4.9-4.6c0-2.7,1.9-4.6,4.5-4.6c2.6,0,4.5,1.9,4.5,4.6C216.4,105.8,216.4,106,216.4,106.1z M209.1,105h5.8
					c-0.2-1.5-1.3-2.6-2.9-2.6C210.4,102.4,209.2,103.4,209.1,105z"/>
				<path class="st2" d="M217.5,109.1l0.7-1.3c0.8,0.5,2,0.9,3.2,0.9c1.5,0,2.1-0.5,2.1-1.2c0-2-5.7-0.3-5.7-3.9
					c0-1.6,1.4-2.7,3.8-2.7c1.2,0,2.5,0.3,3.3,0.8l-0.7,1.3c-0.8-0.5-1.7-0.7-2.6-0.7c-1.4,0-2.1,0.5-2.1,1.2c0,2.1,5.7,0.4,5.7,3.9
					c0,1.6-1.5,2.7-3.9,2.7C219.8,110.2,218.3,109.7,217.5,109.1z"/>
				<path class="st2" d="M226.1,109.1l0.7-1.3c0.8,0.5,2,0.9,3.2,0.9c1.5,0,2.1-0.5,2.1-1.2c0-2-5.7-0.3-5.7-3.9
					c0-1.6,1.4-2.7,3.8-2.7c1.2,0,2.5,0.3,3.3,0.8l-0.7,1.3c-0.8-0.5-1.7-0.7-2.6-0.7c-1.4,0-2.1,0.5-2.1,1.2c0,2.1,5.7,0.4,5.7,3.9
					c0,1.6-1.5,2.7-3.9,2.7C228.3,110.2,226.8,109.7,226.1,109.1z"/>
				<path class="st2" d="M250.7,104.9v5.2h-1.6v-5c0-1.8-0.9-2.6-2.3-2.6c-1.6,0-2.7,1-2.7,3v4.6h-1.6v-5c0-1.8-0.9-2.6-2.3-2.6
					c-1.6,0-2.7,1-2.7,3v4.6h-1.6v-9h1.6v1.3c0.6-0.9,1.8-1.4,3.1-1.4c1.4,0,2.5,0.5,3.1,1.7c0.7-1,1.9-1.7,3.5-1.7
					C249.2,101,250.7,102.3,250.7,104.9z"/>
				<path class="st2" d="M261.9,106.1h-7.3c0.2,1.6,1.5,2.6,3.3,2.6c1.1,0,1.9-0.4,2.6-1.1l0.9,1.1c-0.8,1-2.1,1.5-3.6,1.5
					c-2.9,0-4.9-1.9-4.9-4.6c0-2.7,1.9-4.6,4.5-4.6s4.5,1.9,4.5,4.6C261.9,105.8,261.9,106,261.9,106.1z M254.6,105h5.8
					c-0.2-1.5-1.3-2.6-2.9-2.6C255.9,102.4,254.8,103.4,254.6,105z"/>
				<path class="st2" d="M272.8,104.9v5.2h-1.6v-5c0-1.8-0.9-2.6-2.4-2.6c-1.7,0-2.9,1-2.9,3v4.6h-1.6v-9h1.6v1.4
					c0.7-0.9,1.8-1.4,3.3-1.4C271.2,101,272.8,102.3,272.8,104.9z"/>
				<path class="st2" d="M280.9,109.6c-0.5,0.4-1.2,0.6-2,0.6c-1.8,0-2.9-1-2.9-2.8v-5h-1.5v-1.3h1.5v-2h1.6v2h2.6v1.3h-2.6v4.9
					c0,1,0.5,1.5,1.4,1.5c0.5,0,0.9-0.2,1.3-0.4L280.9,109.6z"/>
			</g>
		</g>
		<g>
			<g>
				<circle class="st2" cx="78.3" cy="139.2" r="11.4"/>
			</g>
			<g>
				<path class="st6" d="M80.7,136c-0.3,0-0.6-0.2-0.6-0.6v-3.8h-5.8c-0.8,0-1.5,0.7-1.5,1.5v11.9c0,0.8,0.7,1.5,1.5,1.5H83
					c0.8,0,1.5-0.7,1.5-1.5V136L80.7,136L80.7,136z"/>
			</g>
			<path class="st7" d="M80.6,136h3.8l-4.3-4.3v3.8C80.1,135.8,80.3,136,80.6,136z"/>
			<polygon class="st1" points="84.4,139.2 84.4,136.1 80.7,136.1 			"/>
		</g>
	</g>
</g>
</svg>
