<svg xmlns="http://www.w3.org/2000/svg" width="90" height="90" viewBox="0 0 90 90">
  <g id="Group_8562" data-name="Group 8562" transform="translate(-274.891 -6363.32)">
    <g id="Group_8219" data-name="Group 8219" transform="translate(275.156 6363.32)">
      <circle id="Ellipse_1293" data-name="Ellipse 1293" cx="45" cy="45" r="45" transform="translate(-0.266)" fill="#1a4480"/>
    </g>
    <g id="Group_8561" data-name="Group 8561" transform="translate(302.401 6383.775)">
      <g id="Group_5026" data-name="Group 5026" transform="translate(0)">
        <g id="Group_1708" data-name="Group 1708">
          <g id="Group_1707" data-name="Group 1707">
            <g id="Group_1706" data-name="Group 1706">
              <g id="Group_1697" data-name="Group 1697" transform="translate(27.02)">
                <g id="Group_1696" data-name="Group 1696">
                  <g id="Group_1695" data-name="Group 1695">
                    <g id="Group_1694" data-name="Group 1694">
                      <g id="Group_1693" data-name="Group 1693">
                        <g id="Group_1692" data-name="Group 1692">
                          <g id="Group_1691" data-name="Group 1691">
                            <path id="Path_1573" data-name="Path 1573" d="M28.337,0V8.835H37.4Z" transform="translate(-28.337)" fill="#e5e5e5"/>
                          </g>
                        </g>
                      </g>
                    </g>
                  </g>
                </g>
              </g>
              <g id="Group_1705" data-name="Group 1705">
                <g id="Group_1704" data-name="Group 1704">
                  <g id="Group_1703" data-name="Group 1703">
                    <g id="Group_1702" data-name="Group 1702">
                      <g id="Group_1701" data-name="Group 1701">
                        <g id="Group_1700" data-name="Group 1700">
                          <g id="Group_1699" data-name="Group 1699">
                            <g id="Group_1698" data-name="Group 1698">
                              <path id="Path_1574" data-name="Path 1574" d="M30.079,8.835V0H3.059V45.493H39.139V8.835H30.079Z" transform="translate(-3.059)" fill="#fff"/>
                            </g>
                          </g>
                        </g>
                      </g>
                    </g>
                  </g>
                </g>
              </g>
            </g>
          </g>
        </g>
      </g>
      <path id="Path_13365" data-name="Path 13365" d="M535.1,522.229c-.084,0-.169-.01-.253-.01s-.173.006-.258.01a12.3,12.3,0,1,0-.006,24.609c.088,0,.176.011.264.011s.172-.006.257-.01a12.9,12.9,0,0,0,3.212-.47l-.214-.729-.112-.381-.249-.848a4.468,4.468,0,0,1-2.3,1.23v-4.463q.688.007,1.363.033l-.342-1.166c-.338-.01-.678-.018-1.021-.021v-4.719h5.622c-.024.619-.077,1.226-.154,1.813l1.116.58a20.384,20.384,0,0,0,.223-2.393h4.017a10.847,10.847,0,0,1-1.086,4.03l1.046.543a11.979,11.979,0,0,0,1.255-5.347A12.479,12.479,0,0,0,535.1,522.229Zm8.283,4.881c-.758.158-1.571.294-2.428.405a13.038,13.038,0,0,0-.769-1.565,9.723,9.723,0,0,0-1.412-1.9A11.509,11.509,0,0,1,543.385,527.11Zm-13.84,1.663c1.491.159,3.082.252,4.713.27v5.11h-5.632A17.734,17.734,0,0,1,529.545,528.773Zm4.713-5.345v4.461c-1.475-.017-2.915-.095-4.272-.23C531.019,525.333,532.55,523.731,534.258,523.427Zm1.184,0c1.745.3,3.281,1.888,4.308,4.229-1.368.137-2.82.216-4.308.233Zm-4.518.628a9.738,9.738,0,0,0-1.413,1.9,13.237,13.237,0,0,0-.769,1.565c-.856-.112-1.669-.247-2.427-.405A11.5,11.5,0,0,1,530.924,524.054Zm-5.427,4.06c.873.2,1.825.373,2.835.512a19.032,19.032,0,0,0-.892,5.527h-4.028A10.907,10.907,0,0,1,525.5,528.114Zm1.954,7.194a18.868,18.868,0,0,0,.881,5.136c-1.011.139-1.964.309-2.835.511a10.9,10.9,0,0,1-2.063-5.647Zm-1.137,6.651c.758-.158,1.571-.294,2.427-.405a13.238,13.238,0,0,0,.769,1.566,9.726,9.726,0,0,0,1.413,1.9A11.509,11.509,0,0,1,526.315,541.959Zm7.943,3.682c-1.708-.3-3.238-1.906-4.272-4.23,1.358-.135,2.8-.213,4.272-.23Zm0-5.615c-1.628.018-3.219.11-4.712.27a17.585,17.585,0,0,1-.908-4.989h5.62Zm1.184-5.874v-5.11c1.641-.019,3.242-.112,4.74-.272a18,18,0,0,1,.893,5.382Zm6.817,0a19.055,19.055,0,0,0-.891-5.527c1.011-.138,1.962-.31,2.835-.512a10.908,10.908,0,0,1,2.085,6.039Zm3.725,7.123-2.905.825a.164.164,0,0,0-.1.277l.006.008,2.615,3.142a.266.266,0,0,1-.041.379l-1.115.882a.28.28,0,0,1-.1.051.323.323,0,0,1-.077.01.279.279,0,0,1-.215-.1l-2.6-3.118-.011-.014a.2.2,0,0,0-.148-.078.133.133,0,0,0-.041.006.2.2,0,0,0-.117.1l-1.433,2.593a.171.171,0,0,1-.09.089l-.018,0c-.04,0-.077-.038-.1-.113l-2.873-9.791c-.026-.088-.007-.144.043-.157a.076.076,0,0,1,.027,0,.217.217,0,0,1,.1.03l9.2,4.778C546.139,541.143,546.13,541.234,545.984,541.276Z" transform="translate(-517.303 -510.268)" fill="#0080a7"/>
    </g>
  </g>
</svg>
