<?xml version="1.0" encoding="utf-8"?>
<!-- Generator: Adobe Illustrator 24.2.3, SVG Export Plug-In . SVG Version: 6.00 Build 0)  -->
<svg version="1.1" xmlns="http://www.w3.org/2000/svg" xmlns:xlink="http://www.w3.org/1999/xlink" x="0px" y="0px"
	 viewBox="0 0 1200 598.3" style="enable-background:new 0 0 1200 598.3;" xml:space="preserve">
<style type="text/css">
	.st0{display:none;}
	.st1{display:inline;fill:#F2F2F2;}
	.st2{fill:#FFFFFF;}
	.st3{fill:#0A90B7;}
	.st4{fill:#1294C2;}
	.st5{fill:none;stroke:#0D3751;stroke-width:0.1394;stroke-linecap:round;stroke-linejoin:round;stroke-miterlimit:10;}
	.st6{fill:none;}
	.st7{fill:#444444;}
	.st8{font-family:'Muli-LightItalic';}
	.st9{font-size:14px;}
	.st10{fill:none;stroke:#0A90B7;stroke-miterlimit:10;}
	.st11{fill:#F2F2F2;}
	.st12{fill:#B8322E;}
	.st13{fill:#A00A0F;}
	.st14{opacity:0.52;fill:#A00A0F;}
	.st15{opacity:0.45;fill:#B8322E;}
	.st16{fill:#0A90B7;stroke:#0A90B7;stroke-width:0.25;stroke-miterlimit:10;}
	.st17{font-family:'Muli-Black';}
	.st18{font-size:16px;}
	.st19{font-family:'Muli-Light';}
	.st20{letter-spacing:17;}
	.st21{letter-spacing:25;}
	.st22{letter-spacing:21;}
	.st23{font-family:'Montserrat-Medium';}
	.st24{font-size:18px;}
	.st25{font-family:'Montserrat-LightItalic';}
	.st26{font-family:'Montserrat-SemiBold';}
	.st27{fill:none;stroke:#757575;stroke-width:0.25;stroke-miterlimit:10;}
	.st28{fill:none;stroke:#0A90B7;stroke-width:0.75;stroke-miterlimit:10;}
	.st29{fill:#A6D7E5;}
	.st30{fill:#757575;}
	.st31{fill:none;stroke:#FFFFFF;stroke-width:2;stroke-linecap:round;}
	.st32{fill:#D8D8D8;}
	.st33{fill:#C71F25;}
	.st34{opacity:0.1;enable-background:new    ;}
</style>
<g id="Layer_5" class="st0">
	<rect x="-632.2" y="-381.8" class="st1" width="5698.4" height="2596.5"/>
</g>
<g id="Shapes">
	<path id="Path_7616_6_" class="st3" d="M839.4,46.5H522.7V0h316.7l10.2,23.3L839.4,46.5z"/>
	<path id="Path_7616_5_" class="st3" d="M419.6,46.5H56.9V0h362.7l10.2,23.3L419.6,46.5z"/>
	<rect x="465.9" class="st2" width="56.9" height="46.5"/>
	<rect x="886.5" class="st2" width="56.9" height="46.5"/>
	<rect class="st2" width="56.9" height="46.5"/>
	<g>
		<polygon class="st3" points="947.1,3.3 947.1,43.3 1141,43.3 1141,41.6 1141,37.8 1153,45 1141,52.3 1141,46.6 943.7,46.6 
			943.7,0 966.8,0 1189.8,0 1200,23.3 1189.8,46.6 1160.8,46.6 1160.8,43.3 1187.3,43.3 1187.8,42.3 1195.3,24 1195.7,23.3 
			1195.3,22.7 1187.8,4.3 1187.2,3.3 		"/>
	</g>
	<g>
		<rect x="488.2" y="541" class="st6" width="688.3" height="32.1"/>
		<text transform="matrix(1 0 0 1 488.1843 551.2737)"><tspan x="0" y="0" class="st7 st8 st9">Note: During the authorization process a CSP must be prioritized by the JAB before entering the JAB P-ATO </tspan><tspan x="0" y="18" class="st7 st8 st9">process. The CSP can obtain FedRAMP Ready status either before or after the JAB’s prioritization.</tspan></text>
	</g>
</g>
<g id="background">
	<rect y="243" class="st2" width="419.4" height="191.3"/>
	<rect y="70" class="st2" width="419.4" height="129.8"/>
	<rect x="886.7" y="70" class="st2" width="304.6" height="157.6"/>
	<rect x="465.9" y="70" class="st2" width="373.4" height="320.8"/>
	<rect y="477" class="st2" width="419.4" height="121.2"/>
</g>
<g id="text">
	<g>
		<rect x="34.4" y="299" class="st6" width="362.1" height="108.1"/>
		<text transform="matrix(1 0 0 1 34.3745 312.6977)"><tspan x="0" y="0" class="st16 st17 st18">•</tspan><tspan x="8.5" y="0" class="st7 st19 st18 st20">	</tspan><tspan x="30" y="0" class="st7 st19 st18">RAR Development</tspan><tspan x="0" y="30" class="st16 st17 st18">•</tspan><tspan x="8.5" y="30" class="st7 st19 st18 st20">	</tspan><tspan x="30" y="30" class="st7 st19 st18">FedRAMP PMO Review of RAR</tspan><tspan x="0" y="60" class="st16 st17 st18">•</tspan><tspan x="8.5" y="60" class="st7 st19 st18 st20">	</tspan><tspan x="30" y="60" class="st7 st19 st18">Remediation (if needed)</tspan><tspan x="0" y="90" class="st7 st19 st18 st21">	</tspan><tspan x="30" y="90" class="st7 st19 st18">FedRAMP Marketplace  Designation - Ready</tspan></text>
	</g>
	<g>
		<rect x="501.3" y="131.9" class="st6" width="317.6" height="236.1"/>
		<text transform="matrix(1 0 0 1 501.2743 143.7202)"><tspan x="0" y="0" class="st16 st17 st18">•</tspan><tspan x="8.5" y="0" class="st7 st19 st18 st20">	</tspan><tspan x="30" y="0" class="st7 st19 st18">Kick-Off (~1 week)</tspan><tspan x="0" y="30" class="st16 st17 st18"> </tspan><tspan x="4.7" y="30" class="st7 st19 st18 st22">	</tspan><tspan x="30" y="30" class="st7 st19 st18">FedRAMP Marketplace Designation </tspan><tspan x="30" y="50" class="st7 st19 st18">- In Process</tspan><tspan x="0" y="80" class="st16 st17 st18">•</tspan><tspan x="8.5" y="80" class="st7 st19 st18 st20">	</tspan><tspan x="30" y="80" class="st7 st19 st18">Review (~3-4 weeks)</tspan><tspan x="0" y="110" class="st16 st17 st18">•</tspan><tspan x="8.5" y="110" class="st7 st19 st18 st20">	</tspan><tspan x="30" y="110" class="st7 st19 st18">Remediation (~3 weeks)</tspan><tspan x="0" y="140" class="st16 st17 st18">•</tspan><tspan x="8.5" y="140" class="st7 st19 st18 st20">	</tspan><tspan x="30" y="140" class="st7 st19 st18">Final Review (~4 weeks)</tspan><tspan x="0" y="170" class="st16 st17 st18">•</tspan><tspan x="8.5" y="170" class="st7 st19 st18 st20">	</tspan><tspan x="30" y="170" class="st7 st19 st18">JAB P-ATO Issued</tspan><tspan x="0" y="200" class="st16 st17 st18 st21">	</tspan><tspan x="30" y="200" class="st7 st19 st18">FedRAMP Marketplace Designation  </tspan><tspan x="30" y="220" class="st7 st19 st18">- Authorized</tspan></text>
	</g>
	<g>
		<rect x="911.9" y="94.2" class="st6" width="250.3" height="20"/>
		<text transform="matrix(1 0 0 1 911.9385 109.4731)" class="st3 st23 st24">Post Authorization</text>
	</g>
	<g>
		<rect x="920.2" y="132" class="st6" width="256.9" height="68.1"/>
		<text transform="matrix(1 0 0 1 920.1934 145.6865)"><tspan x="0" y="0" class="st7 st19 st18 st21">	</tspan><tspan x="30" y="0" class="st7 st19 st18">Ongoing Continuous </tspan><tspan x="30" y="20" class="st7 st19 st18">Monitoring Deliverables</tspan><tspan x="0" y="50" class="st7 st19 st18 st21">	</tspan><tspan x="30" y="50" class="st7 st19 st18">Annual Assessment</tspan></text>
	</g>
	<g>
		<rect x="24.3" y="266.4" class="st6" width="305.8" height="20"/>
		<text transform="matrix(1 0 0 1 24.3296 281.6665)"><tspan x="0" y="0" class="st3 st23 st24">Readiness Assessment</tspan><tspan x="211.9" y="0" class="st7 st25 st9"> (required)</tspan></text>
	</g>
	<g>
		<rect x="24.3" y="92.8" class="st6" width="217.8" height="49.8"/>
		<text transform="matrix(1 0 0 1 24.331 108.0752)" class="st3 st23 st24">FedRAMP Connect</text>
	</g>
	<g>
		<text transform="matrix(1 0 0 1 492.5374 109.8271)" class="st3 st23 st24">JAB Authorization Process</text>
	</g>
	<g>
		<rect x="35.4" y="539" class="st6" width="361" height="36.1"/>
		<text transform="matrix(1 0 0 1 35.3997 550.7366)"><tspan x="0" y="0" class="st7 st19 st18 st21">	</tspan><tspan x="30" y="0" class="st7 st19 st18">Security Authorization Package (SSP, SAP, </tspan><tspan x="30" y="20" class="st7 st19 st18">SAR, POA&amp;M)</tspan></text>
	</g>
	<g>
		<rect x="26.7" y="501.5" class="st6" width="238.2" height="20.6"/>
		<text transform="matrix(1 0 0 1 26.6629 516.8441)" class="st3 st23 st24">Full Security Assessment</text>
	</g>
	<text transform="matrix(1 0 0 1 72.6186 29.728)" class="st2 st26 st24">Preparation</text>
	<text transform="matrix(1 0 0 1 540.8487 29.728)" class="st2 st26 st24">Authorization</text>
	<text transform="matrix(1 0 0 1 962.9424 29.728)" class="st3 st26 st24">Continuous Monitoring</text>
	<g>
		<rect x="34.3" y="131.9" class="st6" width="305.8" height="48.2"/>
		<text transform="matrix(1 0 0 1 34.3104 145.6405)"><tspan x="0" y="0" class="st7 st19 st18 st21">	</tspan><tspan x="30" y="0" class="st7 st19 st18">FedRAMP Connect Business Case</tspan><tspan x="0" y="30" class="st16 st17 st18">•</tspan><tspan x="8.5" y="30" class="st7 st19 st18 st20">	</tspan><tspan x="30" y="30" class="st7 st19 st18">Prioritized to work with JAB</tspan></text>
	</g>
</g>
<g id="Graphics">
	<line class="st28" x1="924.5" y1="138.1" x2="924.5" y2="184"/>
	<g>
		<path id="Path_1554_4_" class="st30" d="M221.8,221.3c0,6.7-5.4,12.1-12.1,12.1s-12.1-5.4-12.1-12.1s5.4-12.1,12.1-12.1
			S221.8,214.6,221.8,221.3z"/>
		<g id="Group_1434_4_" transform="translate(4.574 4.222)">
			<g id="arrow_4_" transform="translate(4.574 0)">
				<path id="arrow-2_4_" class="st2" d="M200.7,224.4c-0.3,0-0.7-0.1-0.9-0.4l-5.3-5.1c-0.5-0.5-0.5-1.2-0.1-1.7
					c0,0,0.1-0.1,0.1-0.1c0.5-0.5,1.3-0.5,1.8,0c0,0,0,0,0,0l4.4,4.2l4.4-4.2c0.5-0.5,1.3-0.5,1.8,0c0,0,0,0,0,0
					c0.5,0.5,0.5,1.2,0.1,1.7c0,0,0,0.1-0.1,0.1l-5.3,5.1C201.4,224.2,201,224.4,200.7,224.4z"/>
			</g>
			<path id="Path_1968_4_" class="st31" d="M205.2,221.6v-10.8"/>
		</g>
	</g>
	<g>
		<path id="Path_1554_12_" class="st30" d="M221.8,455.9c0,6.7-5.4,12.1-12.1,12.1s-12.1-5.4-12.1-12.1c0-6.7,5.4-12.1,12.1-12.1
			S221.8,449.2,221.8,455.9z"/>
		<g id="Group_1434_12_" transform="translate(4.574 4.222)">
			<g id="arrow_12_" transform="translate(4.574 0)">
				<path id="arrow-2_12_" class="st2" d="M200.7,459c-0.3,0-0.7-0.1-0.9-0.4l-5.3-5.1c-0.5-0.5-0.5-1.2-0.1-1.7
					c0,0,0.1-0.1,0.1-0.1c0.5-0.5,1.3-0.5,1.8,0c0,0,0,0,0,0l4.4,4.2l4.4-4.2c0.5-0.5,1.3-0.5,1.8,0c0,0,0,0,0,0
					c0.5,0.5,0.5,1.2,0.1,1.7c0,0,0,0.1-0.1,0.1l-5.3,5.1C201.4,458.8,201,459,200.7,459z"/>
			</g>
			<path id="Path_1968_12_" class="st31" d="M205.2,456.2v-10.8"/>
		</g>
	</g>
	<line class="st28" x1="38.7" y1="136.5" x2="38.7" y2="170.9"/>
	<g>
		<g>
			<circle class="st3" cx="924" cy="140.4" r="12.1"/>
		</g>
		<g>
			<path class="st2" d="M926.6,137.1c-0.3,0-0.6-0.3-0.6-0.6v-4h-6.2c-0.9,0-1.6,0.7-1.6,1.6v12.6c0,0.9,0.7,1.6,1.6,1.6h9.2
				c0.9,0,1.6-0.7,1.6-1.6v-9.6H926.6z"/>
		</g>
		<path class="st29" d="M926.5,137.1h4l-4.6-4.6v4C926,136.9,926.2,137.1,926.5,137.1z"/>
		<polygon class="st11" points="930.6,140.4 930.6,137.2 926.6,137.2 		"/>
	</g>
	<g>
		<g>
			<circle class="st3" cx="39.3" cy="547.4" r="12.1"/>
		</g>
		<g>
			<path class="st2" d="M41.8,544.2c-0.3,0-0.6-0.3-0.6-0.6v-4H35c-0.9,0-1.6,0.7-1.6,1.6v12.6c0,0.9,0.7,1.6,1.6,1.6h9.2
				c0.9,0,1.6-0.7,1.6-1.6v-9.6H41.8z"/>
		</g>
		<path class="st29" d="M41.8,544.2h4l-4.6-4.6v4C41.2,543.9,41.5,544.1,41.8,544.2z"/>
		<polygon class="st11" points="45.8,547.4 45.8,544.2 41.8,544.2 		"/>
	</g>
	<g>
		<g>
			<circle class="st3" cx="38.7" cy="140.4" r="12.1"/>
		</g>
		<g>
			<path class="st2" d="M41.2,137.1c-0.3,0-0.6-0.3-0.6-0.6v-4h-6.2c-0.9,0-1.6,0.7-1.6,1.6v12.6c0,0.9,0.7,1.6,1.6,1.6h9.2
				c0.9,0,1.6-0.7,1.6-1.6v-9.6H41.2z"/>
		</g>
		<path class="st29" d="M41.1,137.1h4l-4.6-4.6v4C40.6,136.9,40.8,137.1,41.1,137.1z"/>
		<polygon class="st11" points="45.2,140.4 45.2,137.2 41.2,137.2 		"/>
	</g>
	<g>
		<g>
			<circle class="st3" cx="924" cy="191.2" r="12.1"/>
		</g>
		<g>
			<path class="st2" d="M926.6,188c-0.3,0-0.6-0.3-0.6-0.6v-4h-6.2c-0.9,0-1.6,0.7-1.6,1.6v12.6c0,0.9,0.7,1.6,1.6,1.6h9.2
				c0.9,0,1.6-0.7,1.6-1.6V188H926.6z"/>
		</g>
		<path class="st29" d="M926.5,188h4l-4.6-4.6v4C926,187.7,926.2,187.9,926.5,188z"/>
		<polygon class="st11" points="930.6,191.2 930.6,188 926.6,188 		"/>
	</g>
	<line class="st28" x1="38.7" y1="306.4" x2="38.7" y2="378.1"/>
	<line class="st28" x1="505.2" y1="189.3" x2="505.2" y2="323.9"/>
	<line class="st28" x1="505.2" y1="137.7" x2="505.2" y2="148.8"/>
	<g>
		<path class="st32" d="M516.5,350.9c0.5-0.9-0.4-2.3-0.1-3.3c0.3-0.9,1.7-1.8,1.7-2.8c0-1-1.5-1.8-1.7-2.8c-0.3-1,0.6-2.4,0.1-3.3
			c-0.5-0.9-2.2-0.8-2.9-1.5c-0.7-0.7-0.7-2.4-1.5-2.9c-0.9-0.5-2.3,0.4-3.3,0.1c-0.9-0.3-1.8-1.7-2.8-1.7c-1,0-1.8,1.5-2.8,1.7
			c-1,0.3-2.4-0.6-3.3-0.1c-0.9,0.5-0.8,2.2-1.5,2.9c-0.7,0.7-2.4,0.7-2.9,1.5c-0.5,0.9,0.4,2.3,0.1,3.3c-0.3,0.9-1.7,1.8-1.7,2.8
			c0,1,1.5,1.8,1.7,2.8c0.3,1-0.6,2.4-0.1,3.3c0.5,0.9,2.2,0.8,2.9,1.5c0.5,0.5,0.6,1.3,0.9,2l-3.9,8.1l5.2-1.3l2.7,4.6l2.7-7.2
			l2.7,7.2l2.7-4.6l5.2,1.3l-3.9-8.1c0.3-0.7,0.4-1.6,0.9-2C514.4,351.8,516,351.8,516.5,350.9z"/>
		<g>
			<g>
				<polygon class="st13" points="501.6,364.3 498.9,359.7 493.7,360.9 500.7,346.3 507.3,349.1 				"/>
				<polygon class="st13" points="507,364.3 509.7,359.7 514.9,360.9 507.9,346.3 501.3,349.1 				"/>
			</g>
			<path class="st33" d="M516.4,343.2c0,1-1.5,1.8-1.7,2.8c-0.3,1,0.6,2.4,0.1,3.3c-0.5,0.9-2.2,0.8-2.9,1.5
				c-0.7,0.7-0.7,2.4-1.5,2.9c-0.9,0.5-2.3-0.4-3.3-0.1c-0.9,0.3-1.8,1.7-2.8,1.7c-1,0-1.8-1.5-2.8-1.7c-1-0.3-2.4,0.6-3.3,0.1
				c-0.9-0.5-0.8-2.2-1.5-2.9c-0.7-0.7-2.4-0.7-2.9-1.5c-0.5-0.9,0.4-2.3,0.1-3.3c-0.3-0.9-1.7-1.8-1.7-2.8c0-1,1.5-1.8,1.7-2.8
				c0.3-1-0.6-2.4-0.1-3.3c0.5-0.9,2.2-0.8,2.9-1.5c0.7-0.7,0.7-2.4,1.5-2.9c0.9-0.5,2.3,0.4,3.3,0.1c0.9-0.3,1.8-1.7,2.8-1.7
				c1,0,1.8,1.5,2.8,1.7c1,0.3,2.4-0.6,3.3-0.1c0.9,0.5,0.8,2.2,1.5,2.9c0.7,0.7,2.4,0.7,2.9,1.5c0.5,0.9-0.4,2.3-0.1,3.3
				C514.9,341.4,516.4,342.2,516.4,343.2z"/>
			<g>
				<path class="st11" d="M511.2,343.2c0,3.8-3.1,6.9-6.9,6.9c-3.8,0-6.9-3.1-6.9-6.9c0-3.8,3.1-6.9,6.9-6.9
					C508.1,336.3,511.2,339.4,511.2,343.2"/>
				<path class="st2" d="M510,343.2c0,3.1-2.5,5.7-5.7,5.7s-5.7-2.5-5.7-5.7s2.5-5.7,5.7-5.7S510,340.1,510,343.2"/>
			</g>
		</g>
	</g>
	<g>
		<g id="g56755_1_" transform="matrix(14,0,0,14,49637.042,519374.88)">
			<path id="path56757_1_" class="st33" d="M-3541.9-37069.9c0,0.5-0.4,0.9-0.9,0.9l0,0c-0.5,0-0.9-0.4-0.9-0.9l0,0
				c0-0.5,0.4-0.9,0.9-0.9l0,0C-3542.3-37070.8-3541.9-37070.4-3541.9-37069.9L-3541.9-37069.9z"/>
		</g>
		<path id="path53460_1_" class="st34" d="M44.4,390.8c-3.4,1.6-5.1,5-6.7,8l-2.3-2.3c-1.2,0.9-2.4,1.5-3.5,2.2l9.5,9.5
			c5.3-1.2,9.1-5.7,9.4-11.1L44.4,390.8z"/>
		<path id="path38606_1_" class="st2" d="M35.4,396.6c0.7,0.9,1.2,2,1.8,3.3c1.7-3.3,3.5-7.2,7.2-9c-0.4,1.5-0.6,3.4-0.1,5
			c-3.1,1.6-5.1,4.5-7.1,7.4c-1.9-2.6-3.5-3.5-5.4-4.4C33,398.2,34.2,397.5,35.4,396.6L35.4,396.6z"/>
	</g>
	<g>
		<path class="st32" d="M518.9,172.5c0-1.5,0-1.6,0-3.1l-2.8-1c-0.4-0.9-0.6-1.4-0.9-2.3l1.3-2.7c-1.1-1.1-1.1-1.1-2.2-2.2l-2.7,1.2
			c-0.9-0.4-1.4-0.6-2.2-1l-1-2.8c-1.5,0-1.6,0-3.1,0l-1,2.8c-0.9,0.4-1.4,0.6-2.3,0.9l-2.7-1.3c-1.1,1.1-1.1,1.1-2.2,2.2l1.2,2.7
			c-0.4,0.9-0.6,1.4-1,2.2l-2.8,1c0,1.5,0,1.6,0,3.1l2.8,1c0.4,0.9,0.6,1.4,0.9,2.3l-1.3,2.7c1.1,1.1,1.1,1.1,2.2,2.2l2.7-1.2
			c0.9,0.4,1.4,0.6,2.2,1l1,2.8c1.5,0,1.6,0,3.1,0l1-2.8c0.9-0.4,1.4-0.6,2.3-0.9l2.7,1.3c1.1-1.1,1.1-1.1,2.2-2.2l-1.2-2.7
			c0.4-0.9,0.6-1.4,1-2.2L518.9,172.5z M506.8,175.5c-2.6,0-4.7-2.1-4.7-4.7c0-2.6,2.1-4.7,4.7-4.7c2.6,0,4.7,2.1,4.7,4.7
			C511.5,173.4,509.4,175.5,506.8,175.5z"/>
		<path class="st33" d="M517.4,171.4c0-1.5,0-1.6,0-3.1l-2.8-1c-0.4-0.9-0.6-1.4-0.9-2.3l1.3-2.7c-1.1-1.1-1.1-1.1-2.2-2.2l-2.7,1.2
			c-0.9-0.4-1.4-0.6-2.2-1l-1-2.8c-1.5,0-1.6,0-3.1,0l-1,2.8c-0.9,0.4-1.4,0.6-2.3,0.9l-2.7-1.3c-1.1,1.1-1.1,1.1-2.2,2.2l1.2,2.7
			c-0.4,0.9-0.6,1.4-1,2.2l-2.8,1c0,1.5,0,1.6,0,3.1l2.8,1c0.4,0.9,0.6,1.4,0.9,2.3l-1.3,2.7c1.1,1.1,1.1,1.1,2.2,2.2l2.7-1.2
			c0.9,0.4,1.4,0.6,2.2,1l1,2.8c1.5,0,1.6,0,3.1,0l1-2.8c0.9-0.4,1.4-0.6,2.3-0.9l2.7,1.3c1.1-1.1,1.1-1.1,2.2-2.2l-1.2-2.7
			c0.4-0.9,0.6-1.4,1-2.2L517.4,171.4z M505.4,174.5c-2.6,0-4.7-2.1-4.7-4.7c0-2.6,2.1-4.7,4.7-4.7c2.6,0,4.7,2.1,4.7,4.7
			C510.1,172.4,508,174.5,505.4,174.5z"/>
	</g>
	<g>
		<path class="st2" d="M506,35c-1,0-2.2-0.3-3.6-0.9l-0.3-0.1l-0.2-0.1c-0.6-0.3-1.1-0.4-1.5-0.6c-0.3-0.1-0.6-0.2-0.9-0.2
			c-0.2,0-0.4,0.1-0.6,0.2c-0.1,0.1-0.3,0.3-0.4,0.5c-0.2,0.4-0.5,0.6-0.8,0.6h-2.5c-0.4,0-0.8-0.4-0.9-0.9c0-0.2,0-0.4-0.1-0.6
			c0-0.2,0-0.4,0-0.7c0-1.4,0.3-2.8,0.8-3.9c0.5-1.2,1.3-2.3,2.4-3.3c0.4-0.3,0.8-0.7,1.3-1.1c-0.1,0-0.3,0-0.4,0
			c-1.2,0-2.2-0.4-2.9-1.3c-0.8-0.9-1.2-2-1.2-3.5c0-2.2,0.9-4.1,2.6-5.6c1.6-1.4,3.7-2.1,6.1-2.1c2.6,0,4.7,0.7,6.3,2
			c1.7,1.4,2.6,3.4,2.6,5.8c0,1.8-0.6,3.4-1.7,4.7c-0.3,0.4-0.7,0.7-1.1,1h2.3c0.5,0,0.9,0.5,0.9,1c0,0.2,0,0.3,0,0.5
			c0,0.2,0,0.4,0,0.8c0,2.5-0.5,4.4-1.6,5.7C509.7,34.4,508.1,35,506,35L506,35z M504.1,27.3c0.4,0.1,0.7,0.1,1.2,0.2
			c1.3,0.3,1.7,0.3,1.8,0.3c0.2,0,0.5,0,0.6-0.2c0.1-0.1,0.2-0.4,0.2-1.5c0-0.1,0-0.2,0-0.3c-0.7,0.4-1.4,0.7-2.2,0.9
			c-0.2,0.1-0.6,0.2-1.1,0.3C504.4,27.2,504.3,27.2,504.1,27.3L504.1,27.3z M500.4,17c0.3,0.1,0.5,0.3,0.8,0.6
			c0.6,0.6,0.9,1.5,0.9,2.5c0,0.8-0.2,1.5-0.6,2.1c0.4-0.2,0.6-0.4,0.8-0.5c1-0.7,1.5-1.2,1.7-1.5c0.2-0.4,0.3-0.8,0.3-1.3
			c0-0.6-0.2-1-0.6-1.4c-0.5-0.4-1.2-0.7-2.1-0.7C501.1,16.8,500.7,16.8,500.4,17L500.4,17z M485.2,35c-2.6,0-4.8-1.1-6.5-3.2
			c-1.7-2.1-2.5-5-2.5-8.5c0-3.5,0.8-6.4,2.5-8.5c1.7-2.2,3.8-3.2,6.5-3.2c2.6,0,4.8,1.1,6.5,3.2c1.7,2.2,2.5,5,2.5,8.5
			c0,3.5-0.8,6.4-2.5,8.5C490.1,33.9,487.9,35,485.2,35L485.2,35z M485.3,16.7c-0.7,0-1.2,0.4-1.5,1.2c-0.3,0.7-0.6,2.2-0.6,5.4
			c0,3.2,0.3,4.7,0.6,5.4c0.3,0.8,0.8,1.2,1.5,1.2c0.7,0,1.2-0.4,1.5-1.2c0.3-0.7,0.6-2.2,0.6-5.4c0-3.2-0.3-4.7-0.6-5.4
			C486.4,17,486,16.7,485.3,16.7L485.3,16.7z"/>
		<path class="st3" d="M495.2,33.3c0-0.1,0-0.3,0-0.4c0-0.1,0-0.4,0-0.7c0-1.2,0.2-2.4,0.7-3.4c0.5-1,1.2-2,2.2-3
			c0.7-0.7,1.8-1.4,3.3-2.4c0.7-0.4,1.2-0.7,1.5-0.9c0.9-0.6,1.6-1.2,1.9-1.8c0.3-0.6,0.5-1.2,0.5-2c0-0.9-0.3-1.7-1-2.3
			c-0.7-0.6-1.5-0.9-2.6-0.9c-0.9,0-1.6,0.2-2.2,0.6c-0.6,0.4-1,0.9-1.3,1.7c0.2,0,0.3-0.1,0.5-0.1c0.2,0,0.3,0,0.4,0
			c0.6,0,1.1,0.2,1.5,0.6c0.4,0.4,0.6,1,0.6,1.6c0,0.8-0.3,1.4-0.8,1.9c-0.5,0.5-1.2,0.8-2,0.8c-1,0-1.7-0.3-2.3-1
			c-0.6-0.7-0.9-1.5-0.9-2.7c0-1.8,0.7-3.4,2.2-4.6c1.5-1.2,3.4-1.9,5.6-1.9c2.4,0,4.4,0.6,5.8,1.8c1.4,1.2,2.2,2.8,2.2,4.8
			c0,1.5-0.5,2.8-1.4,3.9c-0.9,1.1-2.3,1.9-4.1,2.5c-0.3,0.1-0.6,0.2-1.1,0.3c-3,1-4.9,2.1-5.7,3.3c0.6-0.4,1.2-0.6,1.8-0.8
			c0.6-0.2,1.3-0.3,1.9-0.3c0.7,0,1.6,0.1,2.6,0.4c1,0.2,1.7,0.4,2,0.4c0.6,0,1.1-0.2,1.3-0.6c0.3-0.4,0.4-1.1,0.4-2.2h2.6
			c0,0.2,0,0.3,0,0.5c0,0.2,0,0.4,0,0.7c0,2.2-0.4,3.8-1.3,4.9c-0.9,1.1-2.2,1.6-4.1,1.6c-0.9,0-2-0.3-3.3-0.9
			c-0.2-0.1-0.4-0.2-0.5-0.2c-0.7-0.3-1.2-0.5-1.6-0.6c-0.4-0.1-0.8-0.2-1.1-0.2c-0.4,0-0.8,0.1-1.1,0.3c-0.3,0.2-0.5,0.5-0.7,1
			H495.2z M477.1,23.3c0-3.2,0.8-5.8,2.2-7.7c1.5-1.9,3.5-2.9,5.9-2.9c2.4,0,4.4,1,5.9,2.9c1.5,1.9,2.2,4.5,2.2,7.7
			c0,3.2-0.8,5.8-2.2,7.7c-1.5,1.9-3.5,2.9-5.9,2.9c-2.4,0-4.4-1-5.9-2.9C477.9,29,477.1,26.5,477.1,23.3z M482.3,23.3
			c0,2.7,0.2,4.7,0.7,5.9c0.5,1.2,1.2,1.8,2.2,1.8c1,0,1.8-0.6,2.2-1.8c0.5-1.2,0.7-3.2,0.7-5.9c0-2.7-0.2-4.7-0.7-5.9
			c-0.5-1.2-1.2-1.8-2.2-1.8c-1,0-1.8,0.6-2.2,1.8C482.6,18.6,482.3,20.5,482.3,23.3z"/>
		<path class="st29" d="M483.4,30.3l-0.3,0.4c-0.2-0.3-0.4-0.7-0.6-1.1c-0.5-1.3-0.8-3.4-0.8-6.3c0-2.9,0.3-4.9,0.8-6.3
			c0.6-1.5,1.5-2.3,2.8-2.3c0.9,0,1.6,0.4,2.1,1.1l-0.3,0.4c-0.5-0.6-1.1-0.9-1.8-0.9c-1.1,0-1.9,0.7-2.4,2c-0.5,1.3-0.7,3.2-0.7,6
			c0,2.8,0.2,4.8,0.7,6C483,29.7,483.2,30,483.4,30.3z M491.1,15.8l-0.3,0.4c1.3,1.8,2,4.1,2,7c0,2.9-0.7,5.3-2.1,7.1
			c-1.4,1.8-3.2,2.7-5.5,2.7c-2.2,0-4.1-0.9-5.4-2.7v0l-0.3,0.4c0,0,0,0,0,0c1.4,1.9,3.4,2.8,5.7,2.8c2.4,0,4.3-1,5.7-2.8
			c1.4-1.9,2.2-4.4,2.2-7.5C493.2,20.2,492.5,17.7,491.1,15.8z M511.2,26.7c0-0.1,0-0.1,0-0.2l-0.4,0.6c0,0.1,0,0.2,0,0.4
			c0,2-0.4,3.4-1.1,4.3c-0.8,0.9-2,1.3-3.6,1.3c-0.8,0-1.9-0.3-3.1-0.8l-0.5-0.2c-0.7-0.3-1.3-0.5-1.7-0.6c-0.5-0.1-0.9-0.2-1.2-0.2
			c-0.5,0-1,0.1-1.4,0.4c-0.3,0.2-0.5,0.5-0.8,0.9h-1.5l-0.4,0.6h2.2c0.2-0.4,0.4-0.7,0.7-0.9c0.3-0.2,0.7-0.4,1.2-0.4
			c0.3,0,0.7,0.1,1.1,0.2c0.4,0.1,1,0.3,1.7,0.6l0.5,0.2c1.3,0.6,2.4,0.9,3.2,0.9c1.8,0,3.1-0.5,3.9-1.5c0.8-1,1.3-2.6,1.3-4.7
			C511.2,27.1,511.2,26.8,511.2,26.7z M496.2,21.6c0.5,0.6,1.3,0.9,2.2,0.9c0.7,0,1.3-0.3,1.8-0.7c0.5-0.5,0.7-1,0.7-1.7
			c0-0.6-0.2-1-0.5-1.4l-0.3,0.4c0,0,0,0,0,0c0.2,0.3,0.4,0.6,0.4,1c0,0.5-0.2,0.9-0.5,1.3c-0.4,0.4-0.9,0.6-1.6,0.6
			c-0.8,0-1.4-0.3-1.9-0.8L496.2,21.6C496.1,21.6,496.2,21.6,496.2,21.6z M509.4,16.3C509.4,16.3,509.5,16.3,509.4,16.3
			c0.6,0.9,0.9,1.9,0.9,3c0,1.3-0.4,2.4-1.2,3.3c-0.8,1-2.1,1.7-3.8,2.3c-0.3,0.1-0.6,0.2-1.1,0.3c-3.2,1-5.1,2.2-6.1,3.6
			c-0.2,0.3-0.2,0.7,0,1.1l0.4-0.3c-0.1-0.1-0.1-0.2,0-0.3c0.9-1.3,2.8-2.4,5.8-3.4c0.5-0.1,0.8-0.2,1.1-0.3c1.8-0.6,3.1-1.4,4-2.4
			c0.9-1,1.3-2.3,1.3-3.7c0-1.3-0.3-2.5-1-3.4L509.4,16.3z M504.6,15.8c-0.8-0.7-1.8-1-3-1c-1,0-1.9,0.2-2.5,0.7
			c-0.7,0.5-1.3,1.2-1.6,2.1c-0.1,0.3-0.1,0.6,0.1,0.9l0.4-0.3c0-0.1-0.1-0.2,0-0.3c0.3-0.8,0.8-1.4,1.4-1.8
			c0.6-0.4,1.4-0.6,2.3-0.6c1.1,0,2,0.3,2.7,0.9L504.6,15.8C504.6,15.8,504.6,15.8,504.6,15.8z"/>
	</g>
	<g>
		<path class="st2" d="M21,35c-2.6,0-4.8-1.1-6.5-3.2c-1.7-2.1-2.5-5-2.5-8.5c0-3.5,0.8-6.4,2.5-8.5c1.7-2.2,3.8-3.2,6.5-3.2
			c2.6,0,4.8,1.1,6.5,3.2c1.7,2.2,2.5,5,2.5,8.5c0,3.5-0.8,6.4-2.5,8.5C25.8,33.9,23.6,35,21,35L21,35z M21,16.7
			c-0.7,0-1.2,0.4-1.5,1.2c-0.3,0.7-0.6,2.2-0.6,5.4c0,3.2,0.3,4.7,0.6,5.4c0.3,0.8,0.8,1.2,1.5,1.2c0.7,0,1.2-0.4,1.5-1.2
			c0.3-0.7,0.6-2.2,0.6-5.4c0-3.2-0.3-4.7-0.6-5.4C22.2,17,21.7,16.7,21,16.7L21,16.7z M43.4,35c0.5,0,0.9-0.5,0.9-1.2v-2.9
			c0-0.7-0.4-1.2-0.9-1.2h-1.2c-1.2,0-1.3-0.6-1.3-1.3V12.7c0-0.7-0.4-1.2-0.9-1.2h-3.9c-0.4,0-0.7,0.3-0.8,0.7
			c-0.2,0.7-0.6,1.2-1.2,1.6c-0.7,0.4-1.7,0.6-2.9,0.7c-0.5,0-0.9,0.5-0.9,1.2v2.8c0,0.3,0.1,0.6,0.3,0.8c0.2,0.2,0.4,0.4,0.6,0.4
			h2.7v8.6v0.7c0,0.4,0,0.8-1.3,0.8h-1.4c-0.5,0-0.9,0.5-0.9,1.2v2.9c0,0.7,0.4,1.2,0.9,1.2H43.4L43.4,35z"/>
		<path class="st3" d="M31.2,33.8v-2.9h1.4c0.9,0,1.5-0.1,1.8-0.3c0.3-0.2,0.4-0.8,0.4-1.7v-0.7v-9.8h-3.6v-2.9
			c1.4,0,2.5-0.3,3.3-0.8c0.8-0.5,1.4-1.2,1.7-2.2H40v15.8c0,1.1,0.1,1.8,0.4,2.1c0.2,0.3,0.9,0.4,1.8,0.4h1.2v2.9H31.2z M12.9,23.3
			c0-3.2,0.8-5.8,2.2-7.7c1.5-1.9,3.5-2.9,5.9-2.9c2.4,0,4.4,1,5.9,2.9c1.5,1.9,2.2,4.5,2.2,7.7c0,3.2-0.8,5.8-2.2,7.7
			c-1.5,1.9-3.5,2.9-5.9,2.9c-2.4,0-4.4-1-5.9-2.9C13.6,29,12.9,26.5,12.9,23.3z M18.1,23.3c0,2.7,0.2,4.7,0.7,5.9
			C19.2,30.4,20,31,21,31c1,0,1.8-0.6,2.2-1.8c0.5-1.2,0.7-3.2,0.7-5.9c0-2.7-0.2-4.7-0.7-5.9c-0.5-1.2-1.2-1.8-2.2-1.8
			c-1,0-1.8,0.6-2.2,1.8C18.3,18.6,18.1,20.5,18.1,23.3z"/>
		<path class="st29" d="M40.2,30.8L40,31.2c-0.4-0.5-0.6-1.3-0.6-2.7V13.6l0.5-0.6v15.5C39.8,29.7,40,30.4,40.2,30.8z M34.7,17.6
			h-2.9l-0.5,0.6h3.3c0.1,0,0.1,0,0.2,0.1l0.3-0.4C35.1,17.7,34.9,17.6,34.7,17.6z M42.8,31.8v1.1H31.9l-0.5,0.6h11.8v-2.3
			L42.8,31.8z M18.6,29.3c-0.5-1.3-0.7-3.2-0.7-6c0-2.8,0.2-4.8,0.7-6c0.5-1.3,1.3-2,2.4-2c0.8,0,1.4,0.3,1.8,0.9l0.3-0.4
			c-0.6-0.7-1.3-1.1-2.1-1.1c-1.3,0-2.2,0.8-2.8,2.3c-0.5,1.3-0.8,3.4-0.8,6.3c0,2.9,0.2,4.9,0.8,6.3c0.2,0.4,0.4,0.8,0.6,1.1
			l0.3-0.4C18.9,30,18.7,29.7,18.6,29.3z M26.8,15.8l-0.3,0.4c1.3,1.8,2,4.1,2,7c0,2.9-0.7,5.3-2.1,7.1C25.1,32.1,23.2,33,21,33
			c-2.2,0-4.1-0.9-5.4-2.7v0l-0.3,0.4c0,0,0,0,0,0c1.4,1.9,3.4,2.8,5.7,2.8c2.4,0,4.3-1,5.7-2.8c1.4-1.9,2.2-4.4,2.2-7.5
			C28.9,20.2,28.2,17.7,26.8,15.8z"/>
	</g>
	<g>
		<path class="st2" d="M905.2,35.7c-2.9,0-5.2-1.1-7-3.4c-1.8-2.3-2.7-5.3-2.7-9c0-3.7,0.9-6.7,2.7-9c1.8-2.3,4.2-3.4,7-3.4
			c2.9,0,5.3,1.1,7,3.4c1.8,2.3,2.7,5.3,2.7,9c0,3.7-0.9,6.7-2.7,9C910.4,34.5,908.1,35.7,905.2,35.7L905.2,35.7z M905.2,16.3
			c-0.8,0-1.3,0.4-1.6,1.3c-0.3,0.8-0.7,2.4-0.7,5.7c0,3.3,0.4,4.9,0.7,5.7c0.3,0.9,0.8,1.3,1.6,1.3c0.8,0,1.3-0.4,1.6-1.3
			c0.3-0.8,0.7-2.4,0.7-5.7c0-3.3-0.3-5-0.6-5.7C906.5,16.7,906,16.3,905.2,16.3L905.2,16.3z M923.8,35.7c-2.7,0-4.9-0.6-6.5-1.7
			c-1.8-1.3-2.7-3.1-2.7-5.3c0-1.5,0.4-2.7,1.2-3.6c0.8-0.9,1.9-1.4,3.1-1.4c1.1,0,2,0.4,2.7,1.1c0.8,0.8,1.2,1.8,1.2,3
			c0,1-0.3,1.8-0.8,2.5c0.2,0,0.5,0,0.8,0c1.2,0,2-0.3,2.6-0.8c0.5-0.5,0.7-1.1,0.7-2c0-0.9-0.3-1.3-0.6-1.5
			c-0.4-0.3-1.2-0.6-2.8-0.6c-0.5,0-1-0.5-1-1.2v-2.7c-0.7,0.5-1.5,0.8-2.5,0.8c-1.2,0-2.1-0.4-2.9-1.2c-0.7-0.8-1.1-1.9-1.1-3.3
			c0-2.2,0.9-4,2.6-5.2c1.6-1.2,3.7-1.8,6.3-1.8c2.9,0,5.1,0.5,6.7,1.6c1.8,1.2,2.7,3,2.7,5.3c0,1.5-0.5,2.9-1.4,3.9
			c-0.2,0.3-0.5,0.5-0.7,0.7c0.5,0.3,1,0.7,1.4,1.2c1,1.1,1.6,2.5,1.6,4.2c0,2.6-1,4.7-3,6.1C929.7,35.1,927.2,35.7,923.8,35.7
			L923.8,35.7z M922.4,16.1c0.5,0.6,0.7,1.4,0.7,2.2c0,0.6-0.1,1.2-0.3,1.7c1.4-0.1,2.1-0.4,2.4-0.7c0.4-0.3,0.5-0.7,0.5-1.2
			c0-0.6-0.2-1-0.6-1.4c-0.5-0.4-1.3-0.7-2.3-0.7C922.7,16.1,922.6,16.1,922.4,16.1L922.4,16.1z"/>
		<path class="st3" d="M896.4,23.3c0-3.4,0.8-6.1,2.4-8.2c1.6-2.1,3.8-3.1,6.4-3.1c2.6,0,4.8,1,6.4,3.1c1.6,2.1,2.4,4.8,2.4,8.2
			c0,3.4-0.8,6.1-2.4,8.1c-1.6,2.1-3.8,3.1-6.4,3.1c-2.6,0-4.8-1-6.4-3.1C897.2,29.4,896.4,26.6,896.4,23.3z M902,23.3
			c0,2.9,0.3,5,0.8,6.2c0.5,1.3,1.3,1.9,2.4,1.9c1.1,0,1.9-0.6,2.4-1.9c0.5-1.3,0.8-3.4,0.8-6.2c0-2.9-0.3-5-0.7-6.3
			c-0.5-1.3-1.3-1.9-2.4-1.9c-1.1,0-1.9,0.6-2.4,1.9C902.3,18.3,902,20.4,902,23.3z M922.8,24.2v-2.9c1.3-0.1,2.3-0.4,3-0.9
			c0.7-0.5,1-1.3,1-2.2c0-1-0.3-1.8-1.1-2.4c-0.7-0.6-1.7-0.9-2.9-0.9c-0.7,0-1.3,0.1-1.8,0.3c-0.5,0.2-1,0.5-1.4,0.9h0.3
			c0.7,0,1.2,0.2,1.7,0.6c0.4,0.4,0.6,1,0.6,1.7c0,0.8-0.3,1.5-0.8,2c-0.5,0.5-1.2,0.7-2.1,0.7c-0.9,0-1.7-0.3-2.2-0.9
			c-0.5-0.6-0.8-1.4-0.8-2.4c0-1.8,0.7-3.2,2.1-4.2c1.4-1.1,3.4-1.6,5.8-1.6c2.7,0,4.8,0.5,6.3,1.5c1.5,1,2.2,2.4,2.2,4.2
			c0,1.2-0.4,2.2-1.1,3c-0.7,0.8-1.8,1.3-3.1,1.6c1.7,0.5,2.9,1.1,3.8,2c0.8,0.9,1.2,2,1.2,3.4c0,2.2-0.8,3.9-2.5,5
			c-1.6,1.2-4.1,1.7-7.2,1.7c-2.5,0-4.5-0.5-6-1.6c-1.5-1-2.2-2.5-2.2-4.2c0-1.1,0.3-2,0.9-2.7c0.6-0.7,1.4-1,2.4-1
			c0.8,0,1.5,0.3,2.1,0.8c0.6,0.6,0.8,1.2,0.8,2.1c0,0.8-0.2,1.4-0.7,1.9c-0.5,0.5-1.1,0.7-1.9,0.7c0.5,0.4,1,0.7,1.6,0.9
			c0.6,0.2,1.3,0.3,2,0.3c1.4,0,2.5-0.3,3.2-1c0.7-0.7,1.1-1.7,1.1-2.9c0-1.2-0.4-2-1.1-2.5C925.4,24.4,924.3,24.2,922.8,24.2z"/>
		<path class="st29" d="M921.2,17.5l0.3-0.4c0.3,0.3,0.4,0.7,0.4,1.3c0,0.7-0.2,1.3-0.7,1.8c-0.5,0.5-1.1,0.7-1.9,0.7
			c-0.9,0-1.6-0.3-2.1-0.8l0.4-0.4c0.4,0.4,1,0.6,1.7,0.6c0.7,0,1.2-0.2,1.6-0.6c0.3-0.3,0.5-0.7,0.5-1.3
			C921.4,18,921.3,17.7,921.2,17.5z M932,17.7c0,1-0.3,1.7-0.9,2.4c-0.6,0.7-1.5,1.2-2.7,1.4c-0.3,0.1-0.6,0.4-0.6,0.8
			c0,0.3,0.1,0.5,0.2,0.7l0.3-0.4c-0.1-0.1-0.1-0.1-0.1-0.2c0-0.1,0.1-0.3,0.2-0.3c1.3-0.2,2.3-0.7,2.9-1.5c0.7-0.8,1-1.7,1-2.8
			c0-1.2-0.4-2.2-1.1-3.1l-0.3,0.4C931.7,15.8,932,16.7,932,17.7z M926.5,24.2c-0.7-0.5-1.7-0.8-3-0.9l0,0l-0.5,0.6l0,0
			c1.4,0,2.5,0.3,3.3,0.8c0.2,0.1,0.3,0.3,0.5,0.4l0.3-0.4C926.9,24.6,926.7,24.4,926.5,24.2z M921.2,27.8c0,0.5-0.1,0.9-0.4,1.2
			c-0.3,0.3-0.8,0.5-1.5,0.5c-0.3,0-0.6,0.3-0.7,0.6c-0.1,0.3,0,0.6,0.2,0.9l0.3-0.4c0-0.1-0.1-0.2,0-0.3c0-0.1,0.1-0.2,0.2-0.2
			c0.8,0,1.4-0.2,1.8-0.6c0.4-0.4,0.6-0.9,0.6-1.6c0-0.7-0.2-1.2-0.6-1.7l-0.4,0.4C921.1,26.9,921.2,27.3,921.2,27.8z M932.3,24.9
			l-0.3,0.4c0.5,0.7,0.8,1.5,0.8,2.5c0,1.9-0.7,3.3-2.1,4.3c-1.5,1.1-3.8,1.6-6.9,1.6c-2.4,0-4.3-0.5-5.6-1.4
			c-0.4-0.3-0.7-0.6-1-0.9l-0.3,0.4c0.3,0.4,0.6,0.7,1.1,1c1.4,1,3.4,1.5,5.8,1.5c3.1,0,5.5-0.6,7.1-1.7c1.6-1.1,2.4-2.7,2.4-4.8
			C933.3,26.6,933,25.6,932.3,24.9z M926.1,15c-0.8-0.7-1.9-1-3.3-1c-0.7,0-1.4,0.1-2,0.3c-0.6,0.2-1.2,0.6-1.7,1.1
			c-0.2,0.2-0.3,0.6-0.2,1c0,0.1,0.1,0.2,0.2,0.3l0.3-0.4c0,0,0-0.1-0.1-0.1c0-0.1,0-0.2,0.1-0.3c0.5-0.4,1-0.8,1.5-1
			c0.5-0.2,1.2-0.3,1.9-0.3c1.3,0,2.3,0.3,3,0.9c0.2,0.1,0.3,0.3,0.4,0.4l0.3-0.4C926.5,15.3,926.3,15.2,926.1,15z M903.1,30.7
			l-0.3,0.4c-0.3-0.3-0.5-0.7-0.7-1.2c-0.6-1.4-0.8-3.6-0.8-6.7c0-3.1,0.3-5.2,0.8-6.7c0.6-1.6,1.7-2.4,3.1-2.4
			c0.9,0,1.7,0.4,2.3,1.2l-0.3,0.4c-0.5-0.6-1.2-1-2-1c-1.2,0-2.1,0.7-2.6,2.1c-0.5,1.3-0.8,3.4-0.8,6.4c0,3,0.3,5,0.8,6.4
			C902.7,30,902.9,30.4,903.1,30.7z M911.5,15.4l-0.3,0.4c1.4,1.9,2.1,4.3,2.1,7.4c0,3.1-0.8,5.6-2.2,7.5c-1.5,1.9-3.5,2.8-5.9,2.8
			c-2.4,0-4.4-0.9-5.9-2.8v0l-0.3,0.4c0,0,0,0,0,0c1.6,2,3.7,3,6.2,3c2.6,0,4.7-1,6.3-3c1.6-2,2.4-4.6,2.4-7.9
			C913.8,20,913.1,17.4,911.5,15.4z"/>
	</g>
</g>
</svg>
