<?xml version="1.0" encoding="utf-8"?>
<!-- Generator: Adobe Illustrator 24.2.3, SVG Export Plug-In . SVG Version: 6.00 Build 0)  -->
<svg version="1.1" xmlns="http://www.w3.org/2000/svg" xmlns:xlink="http://www.w3.org/1999/xlink" x="0px" y="0px"
	 viewBox="0 0 450 292" style="enable-background:new 0 0 450 292;" xml:space="preserve">
<style type="text/css">
	.st0{opacity:0.46;fill:#FFFFFF;}
	.st1{fill:#0A90B7;}
	.st2{fill:#F2F2F2;}
	.st3{enable-background:new    ;}
	.st4{fill:#FFFFFF;}
	.st5{fill:#A6D7E5;}
	.st6{opacity:0.55;}
	.st7{fill:#757575;}
	.st8{fill:#444444;}
	.st9{opacity:0.46;fill:#209ABD;}
	.st10{opacity:0.6;fill:#0A90B7;}
	.st11{opacity:0.55;fill:#F2F2F2;}
	.st12{fill:#1294C2;}
	.st13{fill:#C71F25;}
	.st14{opacity:0.1;enable-background:new    ;}
</style>
<g id="Layer_6">
</g>
<g id="Shapes">
</g>
<g id="background">
</g>
<g id="text">
</g>
<g id="Graphics">
</g>
<g id="Layer_5">
	<rect x="49.2" class="st0" width="351.6" height="291.7"/>
	<rect x="59.8" y="10.9" class="st2" width="45.2" height="37"/>
	<g>
		<polygon class="st1" points="107.8,13.6 107.8,45.3 342.4,45.3 342.4,44 342.4,40.9 352,46.7 342.4,52.5 342.4,47.9 105.2,47.9 
			105.2,10.9 123.5,10.9 381.2,10.9 389.3,29.4 381.2,47.9 358.1,47.9 358.1,45.3 379.1,45.3 379.6,44.5 385.5,30 385.8,29.4 
			385.5,28.9 379.5,14.4 379.1,13.6 		"/>
	</g>
	<g class="st3">
		<path class="st1" d="M121.3,29.5c0-3,2.3-5.1,5.4-5.1c1.6,0,3,0.6,4,1.7l-1.2,1.1c-0.7-0.8-1.6-1.2-2.7-1.2
			c-2.1,0-3.6,1.5-3.6,3.5c0,2.1,1.5,3.5,3.6,3.5c1,0,1.9-0.4,2.7-1.2l1.2,1.1c-0.9,1.1-2.3,1.7-4,1.7
			C123.6,34.6,121.3,32.4,121.3,29.5z"/>
		<path class="st1" d="M131.4,30.6c0-2.3,1.7-3.9,4.1-3.9c2.4,0,4.1,1.6,4.1,3.9s-1.7,3.9-4.1,3.9C133.1,34.6,131.4,32.9,131.4,30.6
			z M137.7,30.6c0-1.5-1-2.4-2.3-2.4c-1.3,0-2.3,0.9-2.3,2.4s1,2.4,2.3,2.4C136.7,33,137.7,32.1,137.7,30.6z"/>
		<path class="st1" d="M148.7,30.1v4.4h-1.8v-4.1c0-1.4-0.7-2-1.8-2c-1.3,0-2.1,0.8-2.1,2.3v3.9h-1.8v-7.6h1.7v1
			c0.6-0.7,1.5-1.1,2.6-1.1C147.4,26.7,148.7,27.8,148.7,30.1z"/>
		<path class="st1" d="M155.6,34c-0.4,0.3-1.1,0.5-1.7,0.5c-1.7,0-2.6-0.9-2.6-2.6v-3.7H150v-1.4h1.3v-1.7h1.8v1.7h2v1.4h-2v3.6
			c0,0.7,0.4,1.1,1.1,1.1c0.4,0,0.7-0.1,1-0.3L155.6,34z"/>
		<path class="st1" d="M156.8,24.5c0-0.6,0.5-1.1,1.1-1.1c0.7,0,1.1,0.4,1.1,1c0,0.6-0.5,1.1-1.1,1.1
			C157.3,25.6,156.8,25.1,156.8,24.5z M157.1,26.8h1.8v7.6h-1.8V26.8z"/>
		<path class="st1" d="M168.7,30.1v4.4h-1.8v-4.1c0-1.4-0.7-2-1.8-2c-1.3,0-2.1,0.8-2.1,2.3v3.9h-1.8v-7.6h1.7v1
			c0.6-0.7,1.5-1.1,2.6-1.1C167.4,26.7,168.7,27.8,168.7,30.1z"/>
		<path class="st1" d="M178.4,26.8v7.6h-1.7v-1c-0.6,0.7-1.5,1.1-2.5,1.1c-2,0-3.3-1.1-3.3-3.4v-4.4h1.8v4.1c0,1.4,0.7,2,1.8,2
			c1.2,0,2.1-0.8,2.1-2.3v-3.9H178.4z"/>
		<path class="st1" d="M180.1,30.6c0-2.3,1.7-3.9,4.1-3.9c2.4,0,4.1,1.6,4.1,3.9s-1.7,3.9-4.1,3.9C181.8,34.6,180.1,32.9,180.1,30.6
			z M186.4,30.6c0-1.5-1-2.4-2.3-2.4c-1.3,0-2.3,0.9-2.3,2.4s1,2.4,2.3,2.4C185.5,33,186.4,32.1,186.4,30.6z"/>
		<path class="st1" d="M197.3,26.8v7.6h-1.7v-1c-0.6,0.7-1.5,1.1-2.5,1.1c-2,0-3.3-1.1-3.3-3.4v-4.4h1.8v4.1c0,1.4,0.7,2,1.8,2
			c1.2,0,2.1-0.8,2.1-2.3v-3.9H197.3z"/>
		<path class="st1" d="M198.8,33.7l0.7-1.4c0.7,0.4,1.7,0.8,2.7,0.8c1.1,0,1.6-0.3,1.6-0.8c0-1.5-4.7-0.1-4.7-3.1
			c0-1.4,1.3-2.4,3.4-2.4c1,0,2.2,0.2,2.9,0.7l-0.7,1.4c-0.7-0.4-1.5-0.6-2.2-0.6c-1.1,0-1.6,0.4-1.6,0.9c0,1.5,4.7,0.2,4.7,3.2
			c0,1.4-1.3,2.4-3.5,2.4C200.8,34.6,199.5,34.2,198.8,33.7z"/>
		<path class="st1" d="M220.4,34.5l0-6.6l-3.3,5.5h-0.8l-3.3-5.4v6.5h-1.8v-10h1.5l4,6.6l3.9-6.6h1.5l0,10H220.4z"/>
		<path class="st1" d="M224,30.6c0-2.3,1.7-3.9,4.1-3.9c2.4,0,4.1,1.6,4.1,3.9s-1.7,3.9-4.1,3.9C225.7,34.6,224,32.9,224,30.6z
			 M230.3,30.6c0-1.5-1-2.4-2.3-2.4c-1.3,0-2.3,0.9-2.3,2.4s1,2.4,2.3,2.4C229.4,33,230.3,32.1,230.3,30.6z"/>
		<path class="st1" d="M241.4,30.1v4.4h-1.8v-4.1c0-1.4-0.7-2-1.8-2c-1.3,0-2.1,0.8-2.1,2.3v3.9h-1.8v-7.6h1.7v1
			c0.6-0.7,1.5-1.1,2.6-1.1C240,26.7,241.4,27.8,241.4,30.1z"/>
		<path class="st1" d="M243.4,24.5c0-0.6,0.5-1.1,1.1-1.1c0.7,0,1.1,0.4,1.1,1c0,0.6-0.5,1.1-1.1,1.1
			C243.9,25.6,243.4,25.1,243.4,24.5z M243.7,26.8h1.8v7.6h-1.8V26.8z"/>
		<path class="st1" d="M252.4,34c-0.4,0.3-1.1,0.5-1.7,0.5c-1.7,0-2.6-0.9-2.6-2.6v-3.7h-1.3v-1.4h1.3v-1.7h1.8v1.7h2v1.4h-2v3.6
			c0,0.7,0.4,1.1,1.1,1.1c0.4,0,0.7-0.1,1-0.3L252.4,34z"/>
		<path class="st1" d="M253,30.6c0-2.3,1.7-3.9,4.1-3.9c2.4,0,4.1,1.6,4.1,3.9s-1.7,3.9-4.1,3.9C254.7,34.6,253,32.9,253,30.6z
			 M259.3,30.6c0-1.5-1-2.4-2.3-2.4c-1.3,0-2.3,0.9-2.3,2.4s1,2.4,2.3,2.4C258.3,33,259.3,32.1,259.3,30.6z"/>
		<path class="st1" d="M267.2,26.7v1.7c-0.2,0-0.3,0-0.4,0c-1.4,0-2.2,0.8-2.2,2.4v3.7h-1.8v-7.6h1.7v1.1
			C265,27.1,266,26.7,267.2,26.7z"/>
		<path class="st1" d="M268.5,24.5c0-0.6,0.5-1.1,1.1-1.1c0.7,0,1.1,0.4,1.1,1c0,0.6-0.5,1.1-1.1,1.1
			C269,25.6,268.5,25.1,268.5,24.5z M268.8,26.8h1.8v7.6h-1.8V26.8z"/>
		<path class="st1" d="M280.4,30.1v4.4h-1.8v-4.1c0-1.4-0.7-2-1.8-2c-1.3,0-2.1,0.8-2.1,2.3v3.9h-1.8v-7.6h1.7v1
			c0.6-0.7,1.5-1.1,2.6-1.1C279,26.7,280.4,27.8,280.4,30.1z"/>
		<path class="st1" d="M290.3,26.8v6.5c0,2.8-1.4,4-4.1,4c-1.4,0-2.8-0.4-3.7-1.1l0.8-1.3c0.7,0.6,1.8,0.9,2.8,0.9
			c1.7,0,2.4-0.8,2.4-2.3v-0.4c-0.6,0.7-1.5,1-2.6,1c-2.2,0-3.9-1.5-3.9-3.7c0-2.2,1.7-3.7,3.9-3.7c1.1,0,2,0.3,2.6,1.1v-1H290.3z
			 M288.6,30.4c0-1.3-1-2.2-2.3-2.2c-1.4,0-2.3,0.9-2.3,2.2c0,1.3,1,2.2,2.3,2.2C287.6,32.6,288.6,31.7,288.6,30.4z"/>
	</g>
	<g>
		<path class="st4" d="M74.6,39.2c-2.3,0-4.2-0.9-5.6-2.7c-1.4-1.8-2.1-4.2-2.1-7.2c0-2.9,0.7-5.3,2.2-7.2c1.4-1.8,3.3-2.7,5.6-2.7
			c2.3,0,4.2,0.9,5.6,2.7c1.4,1.8,2.2,4.2,2.2,7.2c0,2.9-0.7,5.3-2.2,7.1C78.8,38.3,76.9,39.2,74.6,39.2L74.6,39.2z M74.6,23.8
			c-0.6,0-1,0.3-1.3,1c-0.2,0.6-0.5,1.9-0.5,4.5c0,2.7,0.3,3.9,0.5,4.5c0.3,0.7,0.7,1,1.3,1c0.6,0,1-0.3,1.3-1
			c0.2-0.6,0.5-1.9,0.5-4.5c0-2.7-0.3-3.9-0.5-4.5C75.6,24.2,75.2,23.8,74.6,23.8L74.6,23.8z M89.4,39.2c-2.1,0-3.9-0.5-5.1-1.4
			c-1.4-1-2.1-2.4-2.1-4.2c0-1.2,0.3-2.1,1-2.9c0.6-0.7,1.5-1.1,2.5-1.1c0.8,0,1.6,0.3,2.2,0.9c0.6,0.6,0.9,1.4,0.9,2.4
			c0,0.8-0.2,1.4-0.6,2c0.2,0,0.4,0,0.6,0c0.9,0,1.6-0.2,2.1-0.6c0.4-0.4,0.6-0.9,0.6-1.6c0-0.7-0.3-1-0.5-1.2
			c-0.3-0.2-0.9-0.5-2.3-0.5c-0.4,0-0.8-0.4-0.8-0.9v-2.2c-0.5,0.4-1.2,0.6-2,0.6c-0.9,0-1.7-0.3-2.3-0.9c-0.6-0.6-0.9-1.5-0.9-2.6
			c0-1.7,0.7-3.2,2.1-4.2c1.2-0.9,2.9-1.4,5-1.4c2.3,0,4.1,0.4,5.4,1.3c1.4,0.9,2.1,2.4,2.1,4.2c0,1.2-0.4,2.3-1.1,3.1
			c-0.2,0.2-0.4,0.4-0.6,0.5c0.4,0.3,0.8,0.6,1.1,0.9c0.8,0.9,1.2,2,1.2,3.4c0,2.1-0.8,3.7-2.4,4.8C94.1,38.8,92.1,39.2,89.4,39.2
			L89.4,39.2z M88.3,23.7c0.4,0.5,0.6,1.1,0.6,1.8c0,0.5-0.1,1-0.3,1.4c1.1-0.1,1.7-0.3,1.9-0.5c0.3-0.2,0.4-0.5,0.4-1
			c0-0.5-0.2-0.8-0.5-1.1c-0.4-0.4-1.1-0.5-1.9-0.5C88.5,23.7,88.4,23.7,88.3,23.7L88.3,23.7z"/>
		<path class="st1" d="M67.6,29.4c0-2.7,0.6-4.8,1.9-6.5c1.3-1.6,3-2.5,5.1-2.5c2.1,0,3.8,0.8,5.1,2.4c1.3,1.6,1.9,3.8,1.9,6.5
			c0,2.7-0.6,4.8-1.9,6.5c-1.3,1.6-3,2.4-5.1,2.4c-2.1,0-3.8-0.8-5.1-2.4C68.2,34.2,67.6,32.1,67.6,29.4z M72.1,29.4
			c0,2.3,0.2,3.9,0.6,5c0.4,1,1,1.5,1.9,1.5c0.9,0,1.5-0.5,1.9-1.5c0.4-1,0.6-2.7,0.6-4.9c0-2.3-0.2-4-0.6-5c-0.4-1-1-1.5-1.9-1.5
			c-0.9,0-1.5,0.5-1.9,1.5C72.3,25.4,72.1,27.1,72.1,29.4z M88.5,30.1v-2.3c1.1-0.1,1.9-0.3,2.4-0.7c0.5-0.4,0.8-1,0.8-1.8
			c0-0.8-0.3-1.4-0.8-1.9c-0.6-0.5-1.3-0.7-2.3-0.7c-0.5,0-1,0.1-1.4,0.2c-0.4,0.2-0.8,0.4-1.1,0.7h0.2c0.5,0,1,0.2,1.3,0.5
			c0.3,0.3,0.5,0.8,0.5,1.3c0,0.7-0.2,1.2-0.6,1.6c-0.4,0.4-1,0.6-1.6,0.6c-0.7,0-1.3-0.2-1.8-0.7c-0.4-0.5-0.6-1.1-0.6-1.9
			c0-1.4,0.6-2.5,1.7-3.4c1.1-0.8,2.7-1.3,4.6-1.3c2.2,0,3.8,0.4,5,1.2c1.2,0.8,1.7,1.9,1.7,3.4c0,1-0.3,1.8-0.9,2.4
			c-0.6,0.7-1.4,1.1-2.4,1.3c1.3,0.4,2.3,0.9,3,1.6c0.7,0.7,1,1.6,1,2.7c0,1.7-0.7,3.1-2,4c-1.3,0.9-3.2,1.4-5.7,1.4
			c-2,0-3.6-0.4-4.7-1.3c-1.2-0.8-1.7-2-1.7-3.4c0-0.9,0.2-1.6,0.7-2.2c0.5-0.6,1.1-0.8,1.9-0.8c0.7,0,1.2,0.2,1.7,0.7
			c0.4,0.4,0.7,1,0.7,1.7c0,0.6-0.2,1.1-0.6,1.5c-0.4,0.4-0.9,0.5-1.5,0.5c0.4,0.3,0.8,0.5,1.3,0.7c0.5,0.2,1,0.2,1.6,0.2
			c1.1,0,2-0.3,2.5-0.8c0.6-0.5,0.9-1.3,0.9-2.3c0-0.9-0.3-1.6-0.9-2C90.7,30.3,89.8,30.1,88.5,30.1z"/>
		<path class="st5" d="M87.3,24.8l0.3-0.3c0.2,0.3,0.3,0.6,0.3,1c0,0.6-0.2,1-0.5,1.4c-0.4,0.4-0.9,0.5-1.5,0.5
			c-0.7,0-1.2-0.2-1.6-0.6l0.3-0.3c0.3,0.3,0.8,0.5,1.4,0.5c0.5,0,1-0.1,1.3-0.4c0.3-0.3,0.4-0.6,0.4-1C87.5,25.2,87.4,25,87.3,24.8
			z M95.8,25c0,0.8-0.2,1.4-0.7,1.9c-0.5,0.6-1.2,0.9-2.1,1.1c-0.3,0-0.5,0.3-0.5,0.7c0,0.2,0.1,0.4,0.2,0.5l0.3-0.3
			c0,0-0.1-0.1-0.1-0.2c0-0.1,0.1-0.2,0.2-0.2c1-0.2,1.8-0.6,2.3-1.2c0.6-0.6,0.8-1.3,0.8-2.2c0-1-0.3-1.8-0.8-2.4l-0.3,0.3
			C95.6,23.5,95.8,24.1,95.8,25z M91.5,30.2c-0.6-0.4-1.4-0.7-2.4-0.7l0,0l-0.4,0.5l0,0c1.1,0,2,0.2,2.6,0.7
			c0.1,0.1,0.2,0.2,0.4,0.3l0.3-0.3C91.8,30.4,91.7,30.3,91.5,30.2z M87.3,33c0,0.4-0.1,0.7-0.3,0.9c-0.3,0.3-0.7,0.4-1.2,0.4
			c-0.3,0-0.5,0.2-0.6,0.5c-0.1,0.3,0,0.5,0.1,0.7l0.3-0.3c0-0.1-0.1-0.1,0-0.2c0-0.1,0.1-0.2,0.2-0.2c0.6,0,1.1-0.2,1.4-0.5
			c0.3-0.3,0.5-0.7,0.5-1.3c0-0.5-0.2-1-0.5-1.3L86.9,32C87.2,32.3,87.3,32.6,87.3,33z M96.1,30.7L95.9,31c0.4,0.5,0.6,1.2,0.6,1.9
			c0,1.5-0.5,2.6-1.7,3.4c-1.2,0.8-3,1.3-5.4,1.3c-1.9,0-3.4-0.4-4.4-1.1c-0.3-0.2-0.6-0.5-0.8-0.7l-0.3,0.3
			c0.2,0.3,0.5,0.6,0.8,0.8c1.1,0.8,2.7,1.2,4.6,1.2c2.5,0,4.4-0.5,5.6-1.3c1.3-0.9,1.9-2.1,1.9-3.8C96.9,32,96.6,31.3,96.1,30.7z
			 M91.2,22.8c-0.7-0.5-1.5-0.8-2.6-0.8c-0.6,0-1.1,0.1-1.6,0.3c-0.5,0.2-0.9,0.5-1.3,0.8c-0.2,0.2-0.3,0.5-0.2,0.8
			c0,0.1,0.1,0.2,0.1,0.3l0.3-0.3c0,0,0,0,0-0.1c0-0.1,0-0.2,0.1-0.3c0.4-0.3,0.8-0.6,1.2-0.8c0.4-0.2,0.9-0.2,1.5-0.2
			c1,0,1.8,0.3,2.4,0.7c0.1,0.1,0.2,0.2,0.3,0.4l0.3-0.3C91.5,23.1,91.3,23,91.2,22.8z M72.9,35.3l-0.3,0.3
			c-0.2-0.3-0.4-0.6-0.5-0.9c-0.4-1.1-0.7-2.9-0.7-5.3c0-2.4,0.2-4.1,0.7-5.3c0.5-1.3,1.3-1.9,2.4-1.9c0.8,0,1.4,0.3,1.9,0.9
			l-0.3,0.3c-0.4-0.5-0.9-0.8-1.6-0.8c-1,0-1.7,0.6-2.1,1.7c-0.4,1.1-0.6,2.7-0.6,5.1c0,2.3,0.2,4,0.6,5.1
			C72.6,34.8,72.8,35,72.9,35.3z M79.6,23.2l-0.3,0.3c1.1,1.5,1.7,3.5,1.7,5.9c0,2.5-0.6,4.5-1.8,6c-1.2,1.5-2.8,2.2-4.7,2.2
			c-1.9,0-3.5-0.8-4.7-2.2v0l-0.3,0.3c0,0,0,0,0,0c1.2,1.6,2.9,2.4,5,2.4c2,0,3.7-0.8,5-2.4c1.3-1.6,1.9-3.7,1.9-6.3
			C81.4,26.8,80.8,24.7,79.6,23.2z"/>
	</g>
	<rect x="49.2" class="st9" width="351.6" height="291.7"/>
	<g>
		<polygon class="st1" points="49.2,260.3 37.5,245 49.2,245 		"/>
		<polygon class="st1" points="400.8,260.3 412.5,245 400.8,245 		"/>
		<rect x="49.2" y="236.6" class="st10" width="351.6" height="14.5"/>
	</g>
	<rect x="37.5" y="78.4" class="st2" width="375" height="166.9"/>
	<g>
		<g>
			<path class="st1" d="M73.3,117.8c0,2.6-1.9,4.2-5,4.2h-3v3.7h-1.7v-12.1h4.7C71.4,113.6,73.3,115.2,73.3,117.8z M71.5,117.8
				c0-1.7-1.2-2.7-3.4-2.7h-2.9v5.4h2.9C70.4,120.5,71.5,119.5,71.5,117.8z"/>
			<path class="st1" d="M74.8,121.1c0-2.7,2-4.7,4.8-4.7c2.7,0,4.7,1.9,4.7,4.7s-2,4.7-4.7,4.7C76.9,125.8,74.8,123.8,74.8,121.1z
				 M82.7,121.1c0-2-1.3-3.2-3.1-3.2c-1.8,0-3.1,1.3-3.1,3.2s1.3,3.2,3.1,3.2C81.4,124.3,82.7,123.1,82.7,121.1z"/>
			<path class="st1" d="M85.7,124.7l0.7-1.3c0.8,0.6,2,0.9,3.2,0.9c1.5,0,2.2-0.5,2.2-1.2c0-2.1-5.8-0.3-5.8-3.9
				c0-1.6,1.5-2.7,3.8-2.7c1.2,0,2.5,0.3,3.3,0.8l-0.7,1.3c-0.8-0.5-1.7-0.7-2.6-0.7c-1.4,0-2.2,0.5-2.2,1.3c0,2.2,5.8,0.4,5.8,4
				c0,1.7-1.5,2.7-4,2.7C87.9,125.8,86.4,125.3,85.7,124.7z"/>
			<path class="st1" d="M100.8,125.2c-0.5,0.4-1.3,0.6-2,0.6c-1.8,0-2.9-1-2.9-2.9v-5h-1.6v-1.4h1.6v-2h1.7v2h2.6v1.4h-2.6v5
				c0,1,0.5,1.5,1.4,1.5c0.5,0,0.9-0.2,1.3-0.4L100.8,125.2z"/>
			<path class="st1" d="M115.7,122.7h-6.4l-1.3,3h-1.8l5.5-12.1h1.7l5.5,12.1H117L115.7,122.7z M115.1,121.3l-2.6-5.9l-2.6,5.9
				H115.1z"/>
			<path class="st1" d="M128.9,116.5v9.1h-1.6v-1.4c-0.7,0.9-1.8,1.5-3.1,1.5c-2.4,0-3.9-1.3-3.9-4v-5.3h1.7v5.1
				c0,1.8,0.9,2.7,2.5,2.7c1.7,0,2.8-1.1,2.8-3v-4.7H128.9z"/>
			<path class="st1" d="M137.4,125.2c-0.5,0.4-1.3,0.6-2,0.6c-1.8,0-2.9-1-2.9-2.9v-5h-1.6v-1.4h1.6v-2h1.7v2h2.6v1.4h-2.6v5
				c0,1,0.5,1.5,1.4,1.5c0.5,0,0.9-0.2,1.3-0.4L137.4,125.2z"/>
			<path class="st1" d="M148.2,120.4v5.3h-1.7v-5.1c0-1.8-0.9-2.7-2.5-2.7c-1.8,0-2.9,1.1-2.9,3v4.7h-1.7v-12.8h1.7v5
				c0.7-0.9,1.8-1.4,3.2-1.4C146.7,116.5,148.2,117.7,148.2,120.4z"/>
			<path class="st1" d="M150.7,121.1c0-2.7,2-4.7,4.8-4.7c2.7,0,4.7,1.9,4.7,4.7s-2,4.7-4.7,4.7
				C152.7,125.8,150.7,123.8,150.7,121.1z M158.5,121.1c0-2-1.3-3.2-3.1-3.2c-1.8,0-3.1,1.3-3.1,3.2s1.3,3.2,3.1,3.2
				C157.2,124.3,158.5,123.1,158.5,121.1z"/>
			<path class="st1" d="M167.6,116.5v1.6c-0.1,0-0.3,0-0.4,0c-1.8,0-2.9,1.1-2.9,3.1v4.6h-1.7v-9.1h1.6v1.5
				C164.8,117,166,116.5,167.6,116.5z"/>
			<path class="st1" d="M169.5,113.7c0-0.6,0.5-1.1,1.1-1.1c0.6,0,1.1,0.5,1.1,1.1c0,0.6-0.5,1.1-1.1,1.1
				C170,114.8,169.5,114.3,169.5,113.7z M169.8,116.5h1.7v9.1h-1.7V116.5z"/>
			<path class="st1" d="M181.6,124.3v1.4h-7.7v-1.1l5.4-6.7H174v-1.4h7.4v1.1l-5.4,6.7H181.6z"/>
			<path class="st1" d="M191.2,120.2v5.5h-1.6v-1.2c-0.6,0.8-1.6,1.3-3,1.3c-2.1,0-3.4-1.1-3.4-2.7c0-1.5,0.9-2.7,3.7-2.7h2.6v-0.3
				c0-1.4-0.8-2.2-2.5-2.2c-1.1,0-2.2,0.4-2.9,1l-0.7-1.2c0.9-0.8,2.3-1.2,3.8-1.2C189.8,116.5,191.2,117.7,191.2,120.2z
				 M189.5,122.9v-1.3H187c-1.6,0-2.1,0.6-2.1,1.4c0,0.9,0.8,1.5,2,1.5C188.1,124.5,189.1,123.9,189.5,122.9z"/>
			<path class="st1" d="M199.6,125.2c-0.5,0.4-1.3,0.6-2,0.6c-1.8,0-2.9-1-2.9-2.9v-5h-1.6v-1.4h1.6v-2h1.7v2h2.6v1.4h-2.6v5
				c0,1,0.5,1.5,1.4,1.5c0.5,0,0.9-0.2,1.3-0.4L199.6,125.2z"/>
			<path class="st1" d="M201.5,113.7c0-0.6,0.5-1.1,1.1-1.1c0.6,0,1.1,0.5,1.1,1.1c0,0.6-0.5,1.1-1.1,1.1
				C201.9,114.8,201.5,114.3,201.5,113.7z M201.7,116.5h1.7v9.1h-1.7V116.5z"/>
			<path class="st1" d="M205.9,121.1c0-2.7,2-4.7,4.8-4.7c2.7,0,4.7,1.9,4.7,4.7s-2,4.7-4.7,4.7
				C207.9,125.8,205.9,123.8,205.9,121.1z M213.7,121.1c0-2-1.3-3.2-3.1-3.2c-1.8,0-3.1,1.3-3.1,3.2s1.3,3.2,3.1,3.2
				C212.4,124.3,213.7,123.1,213.7,121.1z"/>
			<path class="st1" d="M226.5,120.4v5.3h-1.7v-5.1c0-1.8-0.9-2.7-2.5-2.7c-1.8,0-2.9,1.1-2.9,3v4.7h-1.7v-9.1h1.6v1.4
				c0.7-0.9,1.8-1.5,3.3-1.5C225,116.5,226.5,117.7,226.5,120.4z"/>
		</g>
	</g>
	<g>
		<g>
			<path class="st8" d="M101.6,157.2c-0.7-0.4-1.3-1.1-1.7-1.9c-0.4-0.8-0.6-1.8-0.6-3s0.2-2.1,0.6-3c0.4-0.8,0.9-1.5,1.7-1.9
				c0.7-0.5,1.6-0.7,2.6-0.7s1.9,0.2,2.6,0.7c0.7,0.4,1.3,1.1,1.7,1.9s0.6,1.8,0.6,3c0,1.1-0.2,2.1-0.6,3c-0.4,0.8-1,1.5-1.7,1.9
				c-0.7,0.5-1.6,0.7-2.6,0.7C103.2,157.9,102.4,157.6,101.6,157.2z M107.1,155.8c0.7-0.8,1-2,1-3.5c0-1.5-0.3-2.7-1-3.5
				s-1.6-1.2-2.9-1.2c-1.2,0-2.2,0.4-2.9,1.2c-0.7,0.8-1,2-1,3.5c0,1.5,0.3,2.7,1,3.5c0.7,0.8,1.6,1.2,2.9,1.2
				C105.5,157,106.4,156.6,107.1,155.8z"/>
			<path class="st8" d="M117.8,152.8v4.9h-0.9v-4.8c0-0.8-0.2-1.3-0.5-1.7c-0.3-0.4-0.8-0.5-1.5-0.5c-0.8,0-1.4,0.2-1.9,0.7
				c-0.5,0.5-0.7,1.1-0.7,1.9v4.4h-0.9v-5.6c0-0.8,0-1.5-0.1-2.1h0.9l0.1,1.4c0.2-0.5,0.6-0.9,1.1-1.2s1-0.4,1.6-0.4
				C116.9,149.9,117.8,150.9,117.8,152.8z"/>
			<path class="st8" d="M127,150v7.7c0,1.1-0.3,2-0.8,2.5c-0.6,0.6-1.4,0.9-2.4,0.9c-1.1,0-2.1-0.3-3-0.8l0.2-0.8
				c0.5,0.3,1,0.5,1.4,0.6c0.4,0.1,0.9,0.2,1.4,0.2c0.8,0,1.3-0.2,1.7-0.6c0.4-0.4,0.6-1,0.6-1.8v-2c-0.2,0.5-0.6,0.9-1,1.2
				s-1,0.4-1.7,0.4c-0.7,0-1.3-0.2-1.8-0.5c-0.5-0.3-0.9-0.8-1.2-1.3c-0.3-0.6-0.4-1.2-0.4-2c0-0.8,0.1-1.4,0.4-2
				c0.3-0.6,0.7-1,1.2-1.3s1.1-0.5,1.8-0.5c0.6,0,1.2,0.1,1.6,0.4c0.5,0.3,0.8,0.7,1,1.2V150H127z M125.4,155.9
				c0.5-0.5,0.7-1.3,0.7-2.2c0-0.9-0.2-1.7-0.7-2.2c-0.5-0.5-1.1-0.8-1.9-0.8c-0.8,0-1.4,0.3-1.9,0.8c-0.5,0.5-0.7,1.3-0.7,2.2
				c0,0.9,0.2,1.7,0.7,2.2c0.5,0.5,1.1,0.8,1.9,0.8C124.3,156.7,124.9,156.4,125.4,155.9z"/>
			<path class="st8" d="M130.8,157.3c-0.5-0.3-1-0.8-1.2-1.4c-0.3-0.6-0.4-1.3-0.4-2.1c0-0.8,0.1-1.5,0.4-2.1
				c0.3-0.6,0.7-1.1,1.2-1.4c0.5-0.3,1.2-0.5,1.9-0.5c0.7,0,1.3,0.2,1.8,0.5c0.5,0.3,0.9,0.8,1.2,1.4c0.3,0.6,0.4,1.3,0.4,2.1
				c0,0.8-0.1,1.5-0.4,2.1c-0.3,0.6-0.7,1.1-1.2,1.4c-0.5,0.3-1.1,0.5-1.8,0.5C131.9,157.8,131.3,157.7,130.8,157.3z M134.5,156.2
				c0.4-0.5,0.7-1.3,0.7-2.3c0-1-0.2-1.8-0.7-2.3c-0.5-0.6-1.1-0.8-1.9-0.8c-0.8,0-1.4,0.3-1.9,0.8c-0.5,0.6-0.7,1.3-0.7,2.3
				c0,1,0.2,1.8,0.7,2.3c0.4,0.5,1.1,0.8,1.9,0.8S134.1,156.7,134.5,156.2z"/>
			<path class="st8" d="M139.4,146.9v1.2h-1.2v-1.2H139.4z M138.3,150h0.9v7.7h-0.9V150z"/>
			<path class="st8" d="M148.2,152.8v4.9h-0.9v-4.8c0-0.8-0.2-1.3-0.5-1.7c-0.3-0.4-0.8-0.5-1.5-0.5c-0.8,0-1.4,0.2-1.9,0.7
				c-0.5,0.5-0.7,1.1-0.7,1.9v4.4h-0.9v-5.6c0-0.8,0-1.5-0.1-2.1h0.9l0.1,1.4c0.2-0.5,0.6-0.9,1.1-1.2s1-0.4,1.6-0.4
				C147.3,149.9,148.2,150.9,148.2,152.8z"/>
			<path class="st8" d="M157.4,150v7.7c0,1.1-0.3,2-0.8,2.5c-0.6,0.6-1.4,0.9-2.4,0.9c-1.1,0-2.1-0.3-3-0.8l0.2-0.8
				c0.5,0.3,1,0.5,1.4,0.6c0.4,0.1,0.9,0.2,1.4,0.2c0.8,0,1.3-0.2,1.7-0.6c0.4-0.4,0.6-1,0.6-1.8v-2c-0.2,0.5-0.6,0.9-1,1.2
				s-1,0.4-1.7,0.4c-0.7,0-1.3-0.2-1.8-0.5c-0.5-0.3-0.9-0.8-1.2-1.3c-0.3-0.6-0.4-1.2-0.4-2c0-0.8,0.1-1.4,0.4-2
				c0.3-0.6,0.7-1,1.2-1.3s1.1-0.5,1.8-0.5c0.6,0,1.2,0.1,1.6,0.4c0.5,0.3,0.8,0.7,1,1.2V150H157.4z M155.8,155.9
				c0.5-0.5,0.7-1.3,0.7-2.2c0-0.9-0.2-1.7-0.7-2.2c-0.5-0.5-1.1-0.8-1.9-0.8c-0.8,0-1.4,0.3-1.9,0.8c-0.5,0.5-0.7,1.3-0.7,2.2
				c0,0.9,0.2,1.7,0.7,2.2c0.5,0.5,1.1,0.8,1.9,0.8C154.7,156.7,155.3,156.4,155.8,155.9z"/>
			<path class="st8" d="M166,157.2c-0.7-0.4-1.3-1.1-1.7-1.9c-0.4-0.8-0.6-1.8-0.6-3c0-1.1,0.2-2.1,0.6-3c0.4-0.8,1-1.5,1.7-1.9
				c0.7-0.4,1.6-0.7,2.6-0.7c0.8,0,1.4,0.1,2.1,0.4s1.2,0.6,1.6,1.1l-0.4,0.8c-0.5-0.5-1-0.8-1.6-1s-1.1-0.3-1.7-0.3
				c-1.3,0-2.2,0.4-2.9,1.2c-0.7,0.8-1,2-1,3.5c0,1.5,0.3,2.7,1,3.5c0.7,0.8,1.7,1.2,2.9,1.2c0.6,0,1.2-0.1,1.7-0.3s1-0.5,1.6-1
				l0.4,0.8c-0.5,0.5-1,0.8-1.6,1.1s-1.3,0.4-2.1,0.4C167.7,157.9,166.8,157.6,166,157.2z"/>
			<path class="st8" d="M175.6,157.3c-0.5-0.3-1-0.8-1.2-1.4c-0.3-0.6-0.4-1.3-0.4-2.1c0-0.8,0.1-1.5,0.4-2.1
				c0.3-0.6,0.7-1.1,1.2-1.4c0.5-0.3,1.2-0.5,1.9-0.5c0.7,0,1.3,0.2,1.8,0.5c0.5,0.3,0.9,0.8,1.2,1.4c0.3,0.6,0.4,1.3,0.4,2.1
				c0,0.8-0.1,1.5-0.4,2.1c-0.3,0.6-0.7,1.1-1.2,1.4c-0.5,0.3-1.1,0.5-1.8,0.5C176.8,157.8,176.1,157.7,175.6,157.3z M179.3,156.2
				c0.4-0.5,0.7-1.3,0.7-2.3c0-1-0.2-1.8-0.7-2.3c-0.5-0.6-1.1-0.8-1.9-0.8c-0.8,0-1.4,0.3-1.9,0.8c-0.5,0.6-0.7,1.3-0.7,2.3
				c0,1,0.2,1.8,0.7,2.3c0.4,0.5,1.1,0.8,1.9,0.8S178.9,156.7,179.3,156.2z"/>
			<path class="st8" d="M189.5,152.8v4.9h-0.9v-4.8c0-0.8-0.2-1.3-0.5-1.7c-0.3-0.4-0.8-0.5-1.5-0.5c-0.8,0-1.4,0.2-1.9,0.7
				c-0.5,0.5-0.7,1.1-0.7,1.9v4.4h-0.9v-5.6c0-0.8,0-1.5-0.1-2.1h0.9l0.1,1.4c0.2-0.5,0.6-0.9,1.1-1.2s1-0.4,1.6-0.4
				C188.5,149.9,189.5,150.9,189.5,152.8z"/>
			<path class="st8" d="M193.3,150.8v4.6c0,0.6,0.1,1,0.4,1.3c0.2,0.2,0.6,0.4,1,0.4c0.3,0,0.6,0,0.8-0.1v0.8
				c-0.3,0.1-0.7,0.1-1,0.1c-0.7,0-1.2-0.2-1.6-0.6c-0.4-0.4-0.6-0.9-0.6-1.7v-4.8h-1.5V150h1.5v-2l0.9-0.4v2.4h2.3v0.8H193.3z"/>
			<path class="st8" d="M198.4,146.9v1.2h-1.2v-1.2H198.4z M197.3,150h0.9v7.7h-0.9V150z"/>
			<path class="st8" d="M207.2,152.8v4.9h-0.9v-4.8c0-0.8-0.2-1.3-0.5-1.7c-0.3-0.4-0.8-0.5-1.5-0.5c-0.8,0-1.4,0.2-1.9,0.7
				c-0.5,0.5-0.7,1.1-0.7,1.9v4.4h-0.9v-5.6c0-0.8,0-1.5-0.1-2.1h0.9l0.1,1.4c0.2-0.5,0.6-0.9,1.1-1.2s1-0.4,1.6-0.4
				C206.3,149.9,207.2,150.9,207.2,152.8z"/>
			<path class="st8" d="M216,150v7.7h-0.9v-1.4c-0.2,0.5-0.6,0.9-1,1.1c-0.5,0.3-1,0.4-1.5,0.4c-0.9,0-1.6-0.3-2-0.8
				s-0.7-1.2-0.7-2.2V150h0.9v4.8c0,0.8,0.2,1.3,0.5,1.7c0.3,0.4,0.8,0.5,1.4,0.5c0.8,0,1.4-0.2,1.8-0.7c0.4-0.5,0.7-1.1,0.7-1.9
				V150H216z"/>
			<path class="st8" d="M219.8,157.3c-0.5-0.3-1-0.8-1.2-1.4c-0.3-0.6-0.4-1.3-0.4-2.1c0-0.8,0.1-1.5,0.4-2.1
				c0.3-0.6,0.7-1.1,1.2-1.4c0.5-0.3,1.2-0.5,1.9-0.5c0.7,0,1.3,0.2,1.8,0.5c0.5,0.3,0.9,0.8,1.2,1.4c0.3,0.6,0.4,1.3,0.4,2.1
				c0,0.8-0.1,1.5-0.4,2.1c-0.3,0.6-0.7,1.1-1.2,1.4c-0.5,0.3-1.1,0.5-1.8,0.5C221,157.8,220.3,157.7,219.8,157.3z M223.5,156.2
				c0.4-0.5,0.7-1.3,0.7-2.3c0-1-0.2-1.8-0.7-2.3c-0.5-0.6-1.1-0.8-1.9-0.8c-0.8,0-1.4,0.3-1.9,0.8c-0.5,0.6-0.7,1.3-0.7,2.3
				c0,1,0.2,1.8,0.7,2.3c0.4,0.5,1.1,0.8,1.9,0.8S223.1,156.7,223.5,156.2z"/>
			<path class="st8" d="M233.5,150v7.7h-0.9v-1.4c-0.2,0.5-0.6,0.9-1,1.1c-0.5,0.3-1,0.4-1.5,0.4c-0.9,0-1.6-0.3-2-0.8
				s-0.7-1.2-0.7-2.2V150h0.9v4.8c0,0.8,0.2,1.3,0.5,1.7c0.3,0.4,0.8,0.5,1.4,0.5c0.8,0,1.4-0.2,1.8-0.7c0.4-0.5,0.7-1.1,0.7-1.9
				V150H233.5z"/>
			<path class="st8" d="M235.6,156.8l0.3-0.7c0.4,0.3,0.8,0.6,1.2,0.7c0.4,0.1,0.9,0.2,1.4,0.2c0.6,0,1.1-0.1,1.4-0.3
				c0.3-0.2,0.5-0.5,0.5-1c0-0.3-0.1-0.6-0.3-0.8c-0.2-0.2-0.6-0.4-1.1-0.5l-1.3-0.3c-0.6-0.1-1.1-0.4-1.4-0.8
				c-0.4-0.4-0.5-0.8-0.5-1.3c0-0.7,0.3-1.2,0.8-1.6c0.5-0.4,1.2-0.6,2.1-0.6c0.5,0,1,0.1,1.5,0.3c0.5,0.2,0.9,0.4,1.2,0.8l-0.4,0.7
				c-0.7-0.6-1.5-0.9-2.3-0.9c-0.6,0-1.1,0.1-1.4,0.4s-0.5,0.6-0.5,1c0,0.3,0.1,0.6,0.3,0.8c0.2,0.2,0.5,0.4,1,0.5l1.3,0.3
				c1.4,0.3,2.1,1,2.1,2c0,0.6-0.3,1.2-0.8,1.6c-0.5,0.4-1.2,0.6-2.1,0.6C237.4,157.8,236.4,157.5,235.6,156.8z"/>
			<path class="st8" d="M258.1,146.8v10.9h-0.9V149l-3.8,8.7h-0.7l-3.9-8.7l0,8.7h-0.9v-10.9h0.8l4.3,9.8l4.3-9.8H258.1z"/>
			<path class="st8" d="M262,157.3c-0.5-0.3-1-0.8-1.2-1.4c-0.3-0.6-0.4-1.3-0.4-2.1c0-0.8,0.1-1.5,0.4-2.1c0.3-0.6,0.7-1.1,1.2-1.4
				c0.5-0.3,1.2-0.5,1.9-0.5c0.7,0,1.3,0.2,1.8,0.5c0.5,0.3,0.9,0.8,1.2,1.4c0.3,0.6,0.4,1.3,0.4,2.1c0,0.8-0.1,1.5-0.4,2.1
				c-0.3,0.6-0.7,1.1-1.2,1.4c-0.5,0.3-1.1,0.5-1.8,0.5C263.2,157.8,262.6,157.7,262,157.3z M265.8,156.2c0.4-0.5,0.7-1.3,0.7-2.3
				c0-1-0.2-1.8-0.7-2.3c-0.5-0.6-1.1-0.8-1.9-0.8c-0.8,0-1.4,0.3-1.9,0.8c-0.5,0.6-0.7,1.3-0.7,2.3c0,1,0.2,1.8,0.7,2.3
				c0.4,0.5,1.1,0.8,1.9,0.8S265.3,156.7,265.8,156.2z"/>
			<path class="st8" d="M275.9,152.8v4.9h-0.9v-4.8c0-0.8-0.2-1.3-0.5-1.7c-0.3-0.4-0.8-0.5-1.5-0.5c-0.8,0-1.4,0.2-1.9,0.7
				c-0.5,0.5-0.7,1.1-0.7,1.9v4.4h-0.9v-5.6c0-0.8,0-1.5-0.1-2.1h0.9l0.1,1.4c0.2-0.5,0.6-0.9,1.1-1.2s1-0.4,1.6-0.4
				C275,149.9,275.9,150.9,275.9,152.8z"/>
			<path class="st8" d="M279.6,146.9v1.2h-1.2v-1.2H279.6z M278.5,150h0.9v7.7h-0.9V150z"/>
			<path class="st8" d="M283.3,150.8v4.6c0,0.6,0.1,1,0.4,1.3c0.2,0.2,0.6,0.4,1,0.4c0.3,0,0.6,0,0.8-0.1v0.8
				c-0.3,0.1-0.7,0.1-1,0.1c-0.7,0-1.2-0.2-1.6-0.6c-0.4-0.4-0.6-0.9-0.6-1.7v-4.8h-1.5V150h1.5v-2l0.9-0.4v2.4h2.3v0.8H283.3z"/>
			<path class="st8" d="M288.5,157.3c-0.5-0.3-1-0.8-1.2-1.4c-0.3-0.6-0.4-1.3-0.4-2.1c0-0.8,0.1-1.5,0.4-2.1
				c0.3-0.6,0.7-1.1,1.2-1.4c0.5-0.3,1.2-0.5,1.9-0.5c0.7,0,1.3,0.2,1.8,0.5c0.5,0.3,0.9,0.8,1.2,1.4c0.3,0.6,0.4,1.3,0.4,2.1
				c0,0.8-0.1,1.5-0.4,2.1c-0.3,0.6-0.7,1.1-1.2,1.4c-0.5,0.3-1.1,0.5-1.8,0.5C289.6,157.8,289,157.7,288.5,157.3z M292.2,156.2
				c0.4-0.5,0.7-1.3,0.7-2.3c0-1-0.2-1.8-0.7-2.3c-0.5-0.6-1.1-0.8-1.9-0.8c-0.8,0-1.4,0.3-1.9,0.8c-0.5,0.6-0.7,1.3-0.7,2.3
				c0,1,0.2,1.8,0.7,2.3c0.4,0.5,1.1,0.8,1.9,0.8S291.8,156.7,292.2,156.2z"/>
			<path class="st8" d="M300,149.9l0,0.8c-0.2,0-0.4-0.1-0.7-0.1c-0.8,0-1.4,0.2-1.7,0.7c-0.4,0.5-0.6,1.1-0.6,1.8v4.5H296v-5.6
				c0-0.8,0-1.5-0.1-2.1h0.9l0.1,1.4c0.2-0.5,0.5-0.9,0.9-1.2c0.4-0.3,0.9-0.4,1.5-0.4C299.6,149.9,299.8,149.9,300,149.9z"/>
			<path class="st8" d="M302.5,146.9v1.2h-1.2v-1.2H302.5z M301.4,150h0.9v7.7h-0.9V150z"/>
			<path class="st8" d="M311.3,152.8v4.9h-0.9v-4.8c0-0.8-0.2-1.3-0.5-1.7c-0.3-0.4-0.8-0.5-1.5-0.5c-0.8,0-1.4,0.2-1.9,0.7
				c-0.5,0.5-0.7,1.1-0.7,1.9v4.4H305v-5.6c0-0.8,0-1.5-0.1-2.1h0.9l0.1,1.4c0.2-0.5,0.6-0.9,1.1-1.2s1-0.4,1.6-0.4
				C310.4,149.9,311.3,150.9,311.3,152.8z"/>
			<path class="st8" d="M320.5,150v7.7c0,1.1-0.3,2-0.8,2.5c-0.6,0.6-1.4,0.9-2.4,0.9c-1.1,0-2.1-0.3-3-0.8l0.2-0.8
				c0.5,0.3,1,0.5,1.4,0.6c0.4,0.1,0.9,0.2,1.4,0.2c0.8,0,1.3-0.2,1.7-0.6c0.4-0.4,0.6-1,0.6-1.8v-2c-0.2,0.5-0.6,0.9-1,1.2
				s-1,0.4-1.7,0.4c-0.7,0-1.3-0.2-1.8-0.5c-0.5-0.3-0.9-0.8-1.2-1.3c-0.3-0.6-0.4-1.2-0.4-2c0-0.8,0.1-1.4,0.4-2
				c0.3-0.6,0.7-1,1.2-1.3s1.1-0.5,1.8-0.5c0.6,0,1.2,0.1,1.6,0.4c0.5,0.3,0.8,0.7,1,1.2V150H320.5z M318.9,155.9
				c0.5-0.5,0.7-1.3,0.7-2.2c0-0.9-0.2-1.7-0.7-2.2c-0.5-0.5-1.1-0.8-1.9-0.8c-0.8,0-1.4,0.3-1.9,0.8c-0.5,0.5-0.7,1.3-0.7,2.2
				c0,0.9,0.2,1.7,0.7,2.2c0.5,0.5,1.1,0.8,1.9,0.8C317.8,156.7,318.4,156.4,318.9,155.9z"/>
			<path class="st8" d="M99.8,166h3.5c1.7,0,3.1,0.5,4,1.4c0.9,0.9,1.4,2.3,1.4,4c0,1.7-0.5,3.1-1.4,4c-0.9,1-2.3,1.4-4,1.4h-3.5
				V166z M103.2,176.1c1.5,0,2.6-0.4,3.3-1.2s1.1-1.9,1.1-3.5c0-3.1-1.5-4.6-4.5-4.6h-2.5v9.3H103.2z"/>
			<path class="st8" d="M111.5,172.9L111.5,172.9c0,1.1,0.2,1.9,0.7,2.4c0.5,0.5,1.2,0.8,2.1,0.8c0.9,0,1.8-0.3,2.5-1l0.4,0.7
				c-0.3,0.3-0.8,0.6-1.3,0.8s-1.1,0.3-1.6,0.3c-1.2,0-2.1-0.4-2.8-1.1c-0.7-0.7-1-1.7-1-2.9c0-0.8,0.2-1.5,0.5-2.1s0.7-1.1,1.3-1.4
				c0.5-0.3,1.2-0.5,1.9-0.5c1,0,1.8,0.3,2.4,1c0.6,0.7,0.9,1.6,0.9,2.7v0.2H111.5z M112.4,170.4c-0.4,0.4-0.7,1-0.8,1.8h4.9
				c-0.1-0.8-0.3-1.4-0.7-1.8c-0.4-0.4-0.9-0.6-1.6-0.6C113.4,169.8,112.9,170,112.4,170.4z"/>
			<path class="st8" d="M119.5,165.6h0.9v11.3h-0.9V165.6z"/>
			<path class="st8" d="M124.1,166v1.2h-1.2V166H124.1z M123,169.2h0.9v7.7H123V169.2z"/>
			<path class="st8" d="M133.1,169.2l-3.3,7.7h-1l-3.3-7.7h1l2.8,6.7l2.8-6.7H133.1z"/>
			<path class="st8" d="M135.1,172.9L135.1,172.9c0,1.1,0.2,1.9,0.7,2.4c0.5,0.5,1.2,0.8,2.1,0.8c0.9,0,1.8-0.3,2.5-1l0.4,0.7
				c-0.3,0.3-0.8,0.6-1.3,0.8s-1.1,0.3-1.6,0.3c-1.2,0-2.1-0.4-2.8-1.1c-0.7-0.7-1-1.7-1-2.9c0-0.8,0.2-1.5,0.5-2.1s0.7-1.1,1.3-1.4
				c0.5-0.3,1.2-0.5,1.9-0.5c1,0,1.8,0.3,2.4,1c0.6,0.7,0.9,1.6,0.9,2.7v0.2H135.1z M136,170.4c-0.4,0.4-0.7,1-0.8,1.8h4.9
				c-0.1-0.8-0.3-1.4-0.7-1.8c-0.4-0.4-0.9-0.6-1.6-0.6C137,169.8,136.5,170,136,170.4z"/>
			<path class="st8" d="M147,169.1l0,0.8c-0.2,0-0.4-0.1-0.7-0.1c-0.8,0-1.4,0.2-1.7,0.7c-0.4,0.5-0.6,1.1-0.6,1.8v4.5h-0.9v-5.6
				c0-0.8,0-1.5-0.1-2.1h0.9l0.1,1.4c0.2-0.5,0.5-0.9,0.9-1.2c0.4-0.3,0.9-0.4,1.5-0.4C146.6,169,146.9,169.1,147,169.1z"/>
			<path class="st8" d="M154.9,169.2v7.7h-0.9v-1.5c-0.2,0.5-0.6,0.9-1,1.2c-0.5,0.3-1,0.4-1.6,0.4c-0.7,0-1.3-0.2-1.8-0.5
				c-0.5-0.3-0.9-0.8-1.2-1.4s-0.4-1.3-0.4-2.1s0.1-1.5,0.4-2.1c0.3-0.6,0.7-1.1,1.2-1.4c0.5-0.3,1.1-0.5,1.8-0.5
				c0.6,0,1.2,0.1,1.6,0.4c0.5,0.3,0.8,0.7,1,1.2v-1.4H154.9z M153.3,175.4c0.4-0.6,0.7-1.3,0.7-2.3c0-1-0.2-1.8-0.7-2.3
				c-0.4-0.6-1.1-0.8-1.9-0.8s-1.4,0.3-1.9,0.9c-0.5,0.6-0.7,1.4-0.7,2.4c0,1,0.2,1.8,0.7,2.3c0.5,0.5,1.1,0.8,1.9,0.8
				C152.2,176.2,152.8,175.9,153.3,175.4z"/>
			<path class="st8" d="M162.9,169.5c0.5,0.3,0.9,0.8,1.2,1.4c0.3,0.6,0.4,1.3,0.4,2.1c0,0.8-0.1,1.5-0.4,2.1
				c-0.3,0.6-0.7,1.1-1.2,1.4c-0.5,0.3-1.1,0.5-1.8,0.5c-0.6,0-1.2-0.1-1.6-0.4c-0.5-0.3-0.8-0.7-1-1.2v1.5h-0.9v-11.3h0.9v5
				c0.2-0.5,0.6-0.9,1-1.2c0.5-0.3,1-0.4,1.6-0.4C161.7,169,162.3,169.2,162.9,169.5z M162.8,175.3c0.4-0.6,0.7-1.3,0.7-2.3
				c0-1-0.2-1.8-0.7-2.3c-0.5-0.6-1.1-0.8-1.9-0.8s-1.4,0.3-1.9,0.8c-0.4,0.6-0.7,1.3-0.7,2.3s0.2,1.8,0.7,2.3
				c0.4,0.5,1.1,0.8,1.9,0.8C161.8,176.2,162.4,175.9,162.8,175.3z"/>
			<path class="st8" d="M166.6,165.6h0.9v11.3h-0.9V165.6z"/>
			<path class="st8" d="M170.7,172.9L170.7,172.9c0,1.1,0.2,1.9,0.7,2.4c0.5,0.5,1.2,0.8,2.1,0.8c0.9,0,1.8-0.3,2.5-1l0.4,0.7
				c-0.3,0.3-0.8,0.6-1.3,0.8s-1.1,0.3-1.6,0.3c-1.2,0-2.1-0.4-2.8-1.1c-0.7-0.7-1-1.7-1-2.9c0-0.8,0.2-1.5,0.5-2.1s0.7-1.1,1.3-1.4
				c0.5-0.3,1.2-0.5,1.9-0.5c1,0,1.8,0.3,2.4,1c0.6,0.7,0.9,1.6,0.9,2.7v0.2H170.7z M171.6,170.4c-0.4,0.4-0.7,1-0.8,1.8h4.9
				c-0.1-0.8-0.3-1.4-0.7-1.8c-0.4-0.4-0.9-0.6-1.6-0.6C172.6,169.8,172,170,171.6,170.4z"/>
			<path class="st8" d="M178.1,176l0.3-0.7c0.4,0.3,0.8,0.6,1.2,0.7c0.4,0.1,0.9,0.2,1.4,0.2c0.6,0,1.1-0.1,1.4-0.3
				c0.3-0.2,0.5-0.5,0.5-1c0-0.3-0.1-0.6-0.3-0.8c-0.2-0.2-0.6-0.4-1.1-0.5l-1.3-0.3c-0.6-0.1-1.1-0.4-1.4-0.8
				c-0.4-0.4-0.5-0.8-0.5-1.3c0-0.7,0.3-1.2,0.8-1.6c0.5-0.4,1.2-0.6,2.1-0.6c0.5,0,1,0.1,1.5,0.3c0.5,0.2,0.9,0.4,1.2,0.8l-0.4,0.7
				c-0.7-0.6-1.5-0.9-2.3-0.9c-0.6,0-1.1,0.1-1.4,0.4s-0.5,0.6-0.5,1c0,0.3,0.1,0.6,0.3,0.8c0.2,0.2,0.5,0.4,1,0.5l1.3,0.3
				c1.4,0.3,2.1,1,2.1,2c0,0.6-0.3,1.2-0.8,1.6c-0.5,0.4-1.2,0.6-2.1,0.6C179.8,177,178.9,176.7,178.1,176z"/>
			<path class="st8" d="M106.9,202.7H101l-1.3,2.9h-1l4.8-10.9h0.9l4.7,10.9h-1L106.9,202.7z M106.5,201.9l-2.6-6l-2.6,6H106.5z"/>
			<path class="st8" d="M117.2,200.8v4.9h-0.9v-4.8c0-0.8-0.2-1.3-0.5-1.7c-0.3-0.4-0.8-0.5-1.5-0.5c-0.8,0-1.4,0.2-1.9,0.7
				c-0.5,0.5-0.7,1.1-0.7,1.9v4.4h-0.9v-5.6c0-0.8,0-1.5-0.1-2.1h0.9l0.1,1.4c0.2-0.5,0.6-0.9,1.1-1.2s1-0.4,1.6-0.4
				C116.3,197.8,117.2,198.8,117.2,200.8z"/>
			<path class="st8" d="M126.2,200.8v4.9h-0.9v-4.8c0-0.8-0.2-1.3-0.5-1.7c-0.3-0.4-0.8-0.5-1.5-0.5c-0.8,0-1.4,0.2-1.9,0.7
				c-0.5,0.5-0.7,1.1-0.7,1.9v4.4h-0.9v-5.6c0-0.8,0-1.5-0.1-2.1h0.9l0.1,1.4c0.2-0.5,0.6-0.9,1.1-1.2s1-0.4,1.6-0.4
				C125.2,197.8,126.2,198.8,126.2,200.8z"/>
			<path class="st8" d="M134.9,198v7.7H134v-1.4c-0.2,0.5-0.6,0.9-1,1.1c-0.5,0.3-1,0.4-1.5,0.4c-0.9,0-1.6-0.2-2-0.8
				c-0.5-0.5-0.7-1.2-0.7-2.2V198h0.9v4.8c0,0.8,0.2,1.3,0.5,1.7c0.3,0.4,0.8,0.5,1.4,0.5c0.8,0,1.4-0.2,1.8-0.7
				c0.4-0.5,0.7-1.1,0.7-1.9V198H134.9z"/>
			<path class="st8" d="M144.1,198v7.7h-0.9v-1.5c-0.2,0.5-0.6,0.9-1,1.2s-1,0.4-1.6,0.4c-0.7,0-1.3-0.2-1.8-0.5
				c-0.5-0.3-0.9-0.8-1.2-1.4s-0.4-1.3-0.4-2.1s0.1-1.5,0.4-2.1c0.3-0.6,0.7-1.1,1.2-1.4c0.5-0.3,1.1-0.5,1.8-0.5
				c0.6,0,1.2,0.1,1.6,0.4c0.5,0.3,0.8,0.7,1,1.2V198H144.1z M142.5,204.1c0.4-0.6,0.7-1.3,0.7-2.3c0-1-0.2-1.8-0.7-2.3
				c-0.4-0.6-1.1-0.8-1.9-0.8s-1.4,0.3-1.9,0.9c-0.5,0.6-0.7,1.4-0.7,2.4c0,1,0.2,1.8,0.7,2.3c0.5,0.5,1.1,0.8,1.9,0.8
				C141.4,204.9,142,204.7,142.5,204.1z"/>
			<path class="st8" d="M146.7,194.4h0.9v11.3h-0.9V194.4z"/>
			<path class="st8" d="M161.5,202.7h-5.9l-1.3,2.9h-1l4.8-10.9h0.9l4.7,10.9h-1L161.5,202.7z M161.1,201.9l-2.6-6l-2.6,6H161.1z"/>
			<path class="st8" d="M164.9,204.7l0.3-0.7c0.4,0.3,0.8,0.6,1.2,0.7c0.4,0.1,0.9,0.2,1.4,0.2c0.6,0,1.1-0.1,1.4-0.3
				c0.3-0.2,0.5-0.5,0.5-1c0-0.3-0.1-0.6-0.3-0.8c-0.2-0.2-0.6-0.4-1.1-0.5l-1.3-0.3c-0.6-0.1-1.1-0.4-1.4-0.8
				c-0.4-0.4-0.5-0.8-0.5-1.3c0-0.7,0.3-1.2,0.8-1.6c0.5-0.4,1.2-0.6,2.1-0.6c0.5,0,1,0.1,1.5,0.3c0.5,0.2,0.9,0.4,1.2,0.8l-0.4,0.7
				c-0.7-0.6-1.5-0.9-2.3-0.9c-0.6,0-1.1,0.1-1.4,0.4s-0.5,0.6-0.5,1c0,0.3,0.1,0.6,0.3,0.8c0.2,0.2,0.5,0.4,1,0.5l1.3,0.3
				c1.4,0.3,2.1,1,2.1,2c0,0.6-0.3,1.2-0.8,1.6c-0.5,0.4-1.2,0.6-2.1,0.6C166.7,205.8,165.7,205.4,164.9,204.7z"/>
			<path class="st8" d="M172.6,204.7l0.3-0.7c0.4,0.3,0.8,0.6,1.2,0.7c0.4,0.1,0.9,0.2,1.4,0.2c0.6,0,1.1-0.1,1.4-0.3
				c0.3-0.2,0.5-0.5,0.5-1c0-0.3-0.1-0.6-0.3-0.8c-0.2-0.2-0.6-0.4-1.1-0.5l-1.3-0.3c-0.6-0.1-1.1-0.4-1.4-0.8
				c-0.4-0.4-0.5-0.8-0.5-1.3c0-0.7,0.3-1.2,0.8-1.6c0.5-0.4,1.2-0.6,2.1-0.6c0.5,0,1,0.1,1.5,0.3c0.5,0.2,0.9,0.4,1.2,0.8l-0.4,0.7
				c-0.7-0.6-1.5-0.9-2.3-0.9c-0.6,0-1.1,0.1-1.4,0.4s-0.5,0.6-0.5,1c0,0.3,0.1,0.6,0.3,0.8c0.2,0.2,0.5,0.4,1,0.5l1.3,0.3
				c1.4,0.3,2.1,1,2.1,2c0,0.6-0.3,1.2-0.8,1.6c-0.5,0.4-1.2,0.6-2.1,0.6C174.3,205.8,173.3,205.4,172.6,204.7z"/>
			<path class="st8" d="M181.2,201.7L181.2,201.7c0,1.1,0.2,1.9,0.7,2.4c0.5,0.5,1.2,0.8,2.1,0.8c0.9,0,1.8-0.3,2.5-1l0.4,0.7
				c-0.3,0.3-0.8,0.6-1.3,0.8c-0.5,0.2-1.1,0.3-1.6,0.3c-1.2,0-2.1-0.4-2.8-1.1c-0.7-0.7-1-1.7-1-2.9c0-0.8,0.2-1.5,0.5-2.1
				s0.7-1.1,1.3-1.4c0.5-0.3,1.2-0.5,1.9-0.5c1,0,1.8,0.3,2.4,1c0.6,0.7,0.9,1.6,0.9,2.7v0.2H181.2z M182.1,199.2
				c-0.4,0.4-0.7,1-0.8,1.8h4.9c-0.1-0.8-0.3-1.4-0.7-1.8c-0.4-0.4-0.9-0.6-1.6-0.6C183.1,198.6,182.5,198.8,182.1,199.2z"/>
			<path class="st8" d="M188.7,204.7l0.3-0.7c0.4,0.3,0.8,0.6,1.2,0.7c0.4,0.1,0.9,0.2,1.4,0.2c0.6,0,1.1-0.1,1.4-0.3
				c0.3-0.2,0.5-0.5,0.5-1c0-0.3-0.1-0.6-0.3-0.8c-0.2-0.2-0.6-0.4-1.1-0.5l-1.3-0.3c-0.6-0.1-1.1-0.4-1.4-0.8
				c-0.4-0.4-0.5-0.8-0.5-1.3c0-0.7,0.3-1.2,0.8-1.6c0.5-0.4,1.2-0.6,2.1-0.6c0.5,0,1,0.1,1.5,0.3c0.5,0.2,0.9,0.4,1.2,0.8l-0.4,0.7
				c-0.7-0.6-1.5-0.9-2.3-0.9c-0.6,0-1.1,0.1-1.4,0.4s-0.5,0.6-0.5,1c0,0.3,0.1,0.6,0.3,0.8c0.2,0.2,0.5,0.4,1,0.5l1.3,0.3
				c1.4,0.3,2.1,1,2.1,2c0,0.6-0.3,1.2-0.8,1.6c-0.5,0.4-1.2,0.6-2.1,0.6C190.4,205.8,189.4,205.4,188.7,204.7z"/>
			<path class="st8" d="M196.3,204.7l0.3-0.7c0.4,0.3,0.8,0.6,1.2,0.7c0.4,0.1,0.9,0.2,1.4,0.2c0.6,0,1.1-0.1,1.4-0.3
				c0.3-0.2,0.5-0.5,0.5-1c0-0.3-0.1-0.6-0.3-0.8c-0.2-0.2-0.6-0.4-1.1-0.5l-1.3-0.3c-0.6-0.1-1.1-0.4-1.4-0.8
				c-0.4-0.4-0.5-0.8-0.5-1.3c0-0.7,0.3-1.2,0.8-1.6c0.5-0.4,1.2-0.6,2.1-0.6c0.5,0,1,0.1,1.5,0.3c0.5,0.2,0.9,0.4,1.2,0.8l-0.4,0.7
				c-0.7-0.6-1.5-0.9-2.3-0.9c-0.6,0-1.1,0.1-1.4,0.4s-0.5,0.6-0.5,1c0,0.3,0.1,0.6,0.3,0.8c0.2,0.2,0.5,0.4,1,0.5l1.3,0.3
				c1.4,0.3,2.1,1,2.1,2c0,0.6-0.3,1.2-0.8,1.6c-0.5,0.4-1.2,0.6-2.1,0.6C198,205.8,197,205.4,196.3,204.7z"/>
			<path class="st8" d="M215.3,200.8v4.9h-0.9v-4.8c0-0.8-0.1-1.3-0.4-1.7c-0.3-0.4-0.7-0.5-1.3-0.5c-0.7,0-1.3,0.2-1.7,0.7
				c-0.4,0.5-0.6,1.1-0.6,1.9v4.4h-0.9v-4.8c0-0.8-0.1-1.3-0.4-1.7c-0.3-0.4-0.7-0.5-1.3-0.5c-0.7,0-1.2,0.2-1.7,0.7
				c-0.4,0.5-0.6,1.1-0.6,1.9v4.4h-0.9v-5.6c0-0.8,0-1.5-0.1-2.1h0.9l0.1,1.4c0.2-0.5,0.5-0.9,1-1.2c0.4-0.3,0.9-0.4,1.5-0.4
				c1.2,0,2,0.5,2.4,1.5c0.2-0.5,0.5-0.8,1-1.1c0.5-0.3,1-0.4,1.6-0.4C214.4,197.8,215.3,198.8,215.3,200.8z"/>
			<path class="st8" d="M218.3,201.7L218.3,201.7c0,1.1,0.2,1.9,0.7,2.4c0.5,0.5,1.2,0.8,2.1,0.8c0.9,0,1.8-0.3,2.5-1l0.4,0.7
				c-0.3,0.3-0.8,0.6-1.3,0.8c-0.5,0.2-1.1,0.3-1.6,0.3c-1.2,0-2.1-0.4-2.8-1.1c-0.7-0.7-1-1.7-1-2.9c0-0.8,0.2-1.5,0.5-2.1
				s0.7-1.1,1.3-1.4c0.5-0.3,1.2-0.5,1.9-0.5c1,0,1.8,0.3,2.4,1c0.6,0.7,0.9,1.6,0.9,2.7v0.2H218.3z M219.2,199.2
				c-0.4,0.4-0.7,1-0.8,1.8h4.9c-0.1-0.8-0.3-1.4-0.7-1.8c-0.4-0.4-0.9-0.6-1.6-0.6C220.2,198.6,219.6,198.8,219.2,199.2z"/>
			<path class="st8" d="M232.6,200.8v4.9h-0.9v-4.8c0-0.8-0.2-1.3-0.5-1.7c-0.3-0.4-0.8-0.5-1.5-0.5c-0.8,0-1.4,0.2-1.9,0.7
				c-0.5,0.5-0.7,1.1-0.7,1.9v4.4h-0.9v-5.6c0-0.8,0-1.5-0.1-2.1h0.9l0.1,1.4c0.2-0.5,0.6-0.9,1.1-1.2s1-0.4,1.6-0.4
				C231.7,197.8,232.6,198.8,232.6,200.8z"/>
			<path class="st8" d="M236.5,198.7v4.6c0,0.6,0.1,1,0.4,1.3c0.2,0.2,0.6,0.4,1,0.4c0.3,0,0.6,0,0.8-0.1v0.8
				c-0.3,0.1-0.7,0.1-1,0.1c-0.7,0-1.2-0.2-1.6-0.6c-0.4-0.4-0.6-0.9-0.6-1.7v-4.8H234V198h1.5v-2l0.9-0.4v2.4h2.3v0.8H236.5z"/>
		</g>
	</g>
	<rect x="73.3" y="149.4" class="st1" width="0.8" height="44"/>
	<g>
		<g>
			<circle class="st1" cx="73.3" cy="151.7" r="11.6"/>
		</g>
		<g>
			<path class="st4" d="M75.7,148.5c-0.3,0-0.6-0.3-0.6-0.6v-3.8h-5.9c-0.8,0-1.5,0.7-1.5,1.5v12.1c0,0.8,0.7,1.5,1.5,1.5H78
				c0.8,0,1.5-0.7,1.5-1.5v-9.2H75.7z"/>
		</g>
		<path class="st5" d="M75.7,148.5h3.9l-4.4-4.4v3.9C75.2,148.3,75.4,148.5,75.7,148.5z"/>
		<polygon class="st2" points="79.5,151.7 79.5,148.6 75.7,148.6 		"/>
	</g>
	<g>
		<g>
			<circle class="st1" cx="73.3" cy="200.4" r="11.6"/>
		</g>
		<g>
			<path class="st4" d="M75.7,197.3c-0.3,0-0.6-0.3-0.6-0.6v-3.8h-5.9c-0.8,0-1.5,0.7-1.5,1.5v12.1c0,0.8,0.7,1.5,1.5,1.5H78
				c0.8,0,1.5-0.7,1.5-1.5v-9.2H75.7z"/>
		</g>
		<path class="st5" d="M75.7,197.3h3.9l-4.4-4.4v3.9C75.2,197,75.4,197.2,75.7,197.3z"/>
		<polygon class="st2" points="79.5,200.4 79.5,197.3 75.7,197.3 		"/>
	</g>
</g>
</svg>
