<?xml version="1.0" encoding="utf-8"?>
<!-- Generator: Adobe Illustrator 24.2.3, SVG Export Plug-In . SVG Version: 6.00 Build 0)  -->
<svg version="1.1" xmlns="http://www.w3.org/2000/svg" xmlns:xlink="http://www.w3.org/1999/xlink" x="0px" y="0px"
	 viewBox="0 0 450 291.5" style="enable-background:new 0 0 450 291.5;" xml:space="preserve">
<style type="text/css">
	.st0{opacity:0.46;fill:#FFFFFF;}
	.st1{fill:#0A90B7;}
	.st2{fill:#F2F2F2;}
	.st3{fill:#FFFFFF;}
	.st4{fill:#A6D7E5;}
	.st5{opacity:0.55;}
	.st6{fill:#757575;}
	.st7{fill:none;stroke:#FFFFFF;stroke-width:2;stroke-linecap:round;}
	.st8{fill:none;stroke:#0A90B7;stroke-width:0.75;stroke-miterlimit:10;}
	.st9{opacity:0.46;fill:#209ABD;}
	.st10{opacity:0.6;fill:#0A90B7;}
	.st11{opacity:0.55;fill:#F2F2F2;}
	.st12{fill:#1294C2;}
	.st13{font-family:'Montserrat-SemiBold';}
	.st14{font-size:14.2968px;}
	.st15{fill:none;}
	.st16{font-family:'Montserrat-Medium';}
	.st17{font-size:17.2542px;}
	.st18{fill:#444444;}
	.st19{font-family:'Muli-Light';}
	.st20{font-size:15.3371px;}
	.st21{letter-spacing:24;}
	.st22{fill:#C71F25;}
	.st23{opacity:0.1;enable-background:new    ;}
</style>
<g id="Layer_6">
</g>
<g id="Shapes">
</g>
<g id="background">
</g>
<g id="text">
</g>
<g id="Graphics">
</g>
<g id="Layer_5">
	<rect x="49.2" class="st0" width="351.6" height="291.7"/>
	<rect x="59.8" y="10.9" class="st2" width="45.2" height="37"/>
	<g>
		<polygon class="st1" points="107.8,13.6 107.8,45.3 342.4,45.3 342.4,44 342.4,40.9 352,46.7 342.4,52.5 342.4,47.9 105.2,47.9 
			105.2,10.9 123.5,10.9 381.2,10.9 389.3,29.4 381.2,47.9 358.1,47.9 358.1,45.3 379.1,45.3 379.6,44.5 385.5,30 385.8,29.4 
			385.5,28.9 379.5,14.4 379.1,13.6 		"/>
	</g>
	<text transform="matrix(1 0 0 1 120.4365 34.4546)" class="st1 st13 st14">Continuous Monitoring</text>
	<g>
		<path class="st3" d="M74.6,39.2c-2.3,0-4.2-0.9-5.6-2.7c-1.4-1.8-2.1-4.2-2.1-7.2c0-2.9,0.7-5.3,2.2-7.2c1.4-1.8,3.3-2.7,5.6-2.7
			c2.3,0,4.2,0.9,5.6,2.7c1.4,1.8,2.2,4.2,2.2,7.2c0,2.9-0.7,5.3-2.2,7.1C78.8,38.3,76.9,39.2,74.6,39.2L74.6,39.2z M74.6,23.8
			c-0.6,0-1,0.3-1.3,1c-0.2,0.6-0.5,1.9-0.5,4.5c0,2.7,0.3,3.9,0.5,4.5c0.3,0.7,0.7,1,1.3,1c0.6,0,1-0.3,1.3-1
			c0.2-0.6,0.5-1.9,0.5-4.5c0-2.7-0.3-3.9-0.5-4.5C75.6,24.2,75.2,23.8,74.6,23.8L74.6,23.8z M89.4,39.2c-2.1,0-3.9-0.5-5.1-1.4
			c-1.4-1-2.1-2.4-2.1-4.2c0-1.2,0.3-2.1,1-2.9c0.6-0.7,1.5-1.1,2.5-1.1c0.8,0,1.6,0.3,2.2,0.9c0.6,0.6,0.9,1.4,0.9,2.4
			c0,0.8-0.2,1.4-0.6,2c0.2,0,0.4,0,0.6,0c0.9,0,1.6-0.2,2.1-0.6c0.4-0.4,0.6-0.9,0.6-1.6c0-0.7-0.3-1-0.5-1.2
			c-0.3-0.2-0.9-0.5-2.3-0.5c-0.4,0-0.8-0.4-0.8-0.9v-2.2c-0.5,0.4-1.2,0.6-2,0.6c-0.9,0-1.7-0.3-2.3-0.9c-0.6-0.6-0.9-1.5-0.9-2.6
			c0-1.7,0.7-3.2,2.1-4.2c1.2-0.9,2.9-1.4,5-1.4c2.3,0,4.1,0.4,5.4,1.3c1.4,0.9,2.1,2.4,2.1,4.2c0,1.2-0.4,2.3-1.1,3.1
			c-0.2,0.2-0.4,0.4-0.6,0.5c0.4,0.3,0.8,0.6,1.1,0.9c0.8,0.9,1.2,2,1.2,3.4c0,2.1-0.8,3.7-2.4,4.8C94.1,38.8,92.1,39.2,89.4,39.2
			L89.4,39.2z M88.3,23.7c0.4,0.5,0.6,1.1,0.6,1.8c0,0.5-0.1,1-0.3,1.4c1.1-0.1,1.7-0.3,1.9-0.5c0.3-0.2,0.4-0.5,0.4-1
			c0-0.5-0.2-0.8-0.5-1.1c-0.4-0.4-1.1-0.5-1.9-0.5C88.5,23.7,88.4,23.7,88.3,23.7L88.3,23.7z"/>
		<path class="st1" d="M67.6,29.4c0-2.7,0.6-4.8,1.9-6.5c1.3-1.6,3-2.5,5.1-2.5c2.1,0,3.8,0.8,5.1,2.4c1.3,1.6,1.9,3.8,1.9,6.5
			c0,2.7-0.6,4.8-1.9,6.5c-1.3,1.6-3,2.4-5.1,2.4c-2.1,0-3.8-0.8-5.1-2.4C68.2,34.2,67.6,32.1,67.6,29.4z M72.1,29.4
			c0,2.3,0.2,3.9,0.6,5c0.4,1,1,1.5,1.9,1.5c0.9,0,1.5-0.5,1.9-1.5c0.4-1,0.6-2.7,0.6-4.9c0-2.3-0.2-4-0.6-5c-0.4-1-1-1.5-1.9-1.5
			c-0.9,0-1.5,0.5-1.9,1.5C72.3,25.4,72.1,27.1,72.1,29.4z M88.5,30.1v-2.3c1.1-0.1,1.9-0.3,2.4-0.7c0.5-0.4,0.8-1,0.8-1.8
			c0-0.8-0.3-1.4-0.8-1.9c-0.6-0.5-1.3-0.7-2.3-0.7c-0.5,0-1,0.1-1.4,0.2c-0.4,0.2-0.8,0.4-1.1,0.7h0.2c0.5,0,1,0.2,1.3,0.5
			c0.3,0.3,0.5,0.8,0.5,1.3c0,0.7-0.2,1.2-0.6,1.6c-0.4,0.4-1,0.6-1.6,0.6c-0.7,0-1.3-0.2-1.8-0.7c-0.4-0.5-0.6-1.1-0.6-1.9
			c0-1.4,0.6-2.5,1.7-3.4c1.1-0.8,2.7-1.3,4.6-1.3c2.2,0,3.8,0.4,5,1.2c1.2,0.8,1.7,1.9,1.7,3.4c0,1-0.3,1.8-0.9,2.4
			c-0.6,0.7-1.4,1.1-2.4,1.3c1.3,0.4,2.3,0.9,3,1.6c0.7,0.7,1,1.6,1,2.7c0,1.7-0.7,3.1-2,4c-1.3,0.9-3.2,1.4-5.7,1.4
			c-2,0-3.6-0.4-4.7-1.3c-1.2-0.8-1.7-2-1.7-3.4c0-0.9,0.2-1.6,0.7-2.2c0.5-0.6,1.1-0.8,1.9-0.8c0.7,0,1.2,0.2,1.7,0.7
			c0.4,0.4,0.7,1,0.7,1.7c0,0.6-0.2,1.1-0.6,1.5c-0.4,0.4-0.9,0.5-1.5,0.5c0.4,0.3,0.8,0.5,1.3,0.7c0.5,0.2,1,0.2,1.6,0.2
			c1.1,0,2-0.3,2.5-0.8c0.6-0.5,0.9-1.3,0.9-2.3c0-0.9-0.3-1.6-0.9-2C90.7,30.3,89.8,30.1,88.5,30.1z"/>
		<path class="st4" d="M87.3,24.8l0.3-0.3c0.2,0.3,0.3,0.6,0.3,1c0,0.6-0.2,1-0.5,1.4c-0.4,0.4-0.9,0.5-1.5,0.5
			c-0.7,0-1.2-0.2-1.6-0.6l0.3-0.3c0.3,0.3,0.8,0.5,1.4,0.5c0.5,0,1-0.1,1.3-0.4c0.3-0.3,0.4-0.6,0.4-1C87.5,25.2,87.4,25,87.3,24.8
			z M95.8,25c0,0.8-0.2,1.4-0.7,1.9c-0.5,0.6-1.2,0.9-2.1,1.1c-0.3,0-0.5,0.3-0.5,0.7c0,0.2,0.1,0.4,0.2,0.5l0.3-0.3
			c0,0-0.1-0.1-0.1-0.2c0-0.1,0.1-0.2,0.2-0.2c1-0.2,1.8-0.6,2.3-1.2c0.6-0.6,0.8-1.3,0.8-2.2c0-1-0.3-1.8-0.8-2.4l-0.3,0.3
			C95.6,23.5,95.8,24.1,95.8,25z M91.5,30.2c-0.6-0.4-1.4-0.7-2.4-0.7l0,0l-0.4,0.5l0,0c1.1,0,2,0.2,2.6,0.7
			c0.1,0.1,0.2,0.2,0.4,0.3l0.3-0.3C91.8,30.4,91.7,30.3,91.5,30.2z M87.3,33c0,0.4-0.1,0.7-0.3,0.9c-0.3,0.3-0.7,0.4-1.2,0.4
			c-0.3,0-0.5,0.2-0.6,0.5c-0.1,0.3,0,0.5,0.1,0.7l0.3-0.3c0-0.1-0.1-0.1,0-0.2c0-0.1,0.1-0.2,0.2-0.2c0.6,0,1.1-0.2,1.4-0.5
			c0.3-0.3,0.5-0.7,0.5-1.3c0-0.5-0.2-1-0.5-1.3L86.9,32C87.2,32.3,87.3,32.6,87.3,33z M96.1,30.7L95.9,31c0.4,0.5,0.6,1.2,0.6,1.9
			c0,1.5-0.5,2.6-1.7,3.4c-1.2,0.8-3,1.3-5.4,1.3c-1.9,0-3.4-0.4-4.4-1.1c-0.3-0.2-0.6-0.5-0.8-0.7l-0.3,0.3
			c0.2,0.3,0.5,0.6,0.8,0.8c1.1,0.8,2.7,1.2,4.6,1.2c2.5,0,4.4-0.5,5.6-1.3c1.3-0.9,1.9-2.1,1.9-3.8C96.9,32,96.6,31.3,96.1,30.7z
			 M91.2,22.8c-0.7-0.5-1.5-0.8-2.6-0.8c-0.6,0-1.1,0.1-1.6,0.3c-0.5,0.2-0.9,0.5-1.3,0.8c-0.2,0.2-0.3,0.5-0.2,0.8
			c0,0.1,0.1,0.2,0.1,0.3l0.3-0.3c0,0,0,0,0-0.1c0-0.1,0-0.2,0.1-0.3c0.4-0.3,0.8-0.6,1.2-0.8c0.4-0.2,0.9-0.2,1.5-0.2
			c1,0,1.8,0.3,2.4,0.7c0.1,0.1,0.2,0.2,0.3,0.4l0.3-0.3C91.5,23.1,91.3,23,91.2,22.8z M72.9,35.3l-0.3,0.3
			c-0.2-0.3-0.4-0.6-0.5-0.9c-0.4-1.1-0.7-2.9-0.7-5.3c0-2.4,0.2-4.1,0.7-5.3c0.5-1.3,1.3-1.9,2.4-1.9c0.8,0,1.4,0.3,1.9,0.9
			l-0.3,0.3c-0.4-0.5-0.9-0.8-1.6-0.8c-1,0-1.7,0.6-2.1,1.7c-0.4,1.1-0.6,2.7-0.6,5.1c0,2.3,0.2,4,0.6,5.1
			C72.6,34.8,72.8,35,72.9,35.3z M79.6,23.2l-0.3,0.3c1.1,1.5,1.7,3.5,1.7,5.9c0,2.5-0.6,4.5-1.8,6c-1.2,1.5-2.8,2.2-4.7,2.2
			c-1.9,0-3.5-0.8-4.7-2.2v0l-0.3,0.3c0,0,0,0,0,0c1.2,1.6,2.9,2.4,5,2.4c2,0,3.7-0.8,5-2.4c1.3-1.6,1.9-3.7,1.9-6.3
			C81.4,26.8,80.8,24.7,79.6,23.2z"/>
	</g>
	<rect x="49.2" class="st9" width="351.6" height="291.7"/>
	<g>
		<polygon class="st1" points="49.2,260.3 37.5,245 49.2,245 		"/>
		<polygon class="st1" points="400.8,260.3 412.5,245 400.8,245 		"/>
		<rect x="49.2" y="236.6" class="st10" width="351.6" height="14.5"/>
	</g>
	<rect x="37.5" y="78.4" class="st2" width="375" height="166.9"/>
	<g>
		<rect x="61.7" y="111" class="st15" width="239.9" height="19.2"/>
		<text transform="matrix(1 0 0 1 61.6963 125.689)" class="st1 st16 st17">Post Authorization</text>
	</g>
	<g>
		<rect x="69.6" y="144.6" class="st15" width="309.2" height="65.2"/>
		<text transform="matrix(1 0 0 1 69.6094 157.7275)"><tspan x="0" y="0" class="st18 st19 st20 st21">	</tspan><tspan x="28.8" y="0" class="st18 st19 st20">Ongoing Continuous Monitoring </tspan><tspan x="28.8" y="19.2" class="st18 st19 st20">Deliverables</tspan><tspan x="0" y="47.9" class="st18 st19 st20 st21">	</tspan><tspan x="28.8" y="47.9" class="st18 st19 st20">Annual Assessment</tspan></text>
	</g>
	<line class="st8" x1="73.7" y1="149.4" x2="73.7" y2="193.4"/>
	<g>
		<g>
			<circle class="st1" cx="73.3" cy="151.7" r="11.6"/>
		</g>
		<g>
			<path class="st3" d="M75.7,148.5c-0.3,0-0.6-0.3-0.6-0.6v-3.8h-5.9c-0.8,0-1.5,0.7-1.5,1.5v12.1c0,0.8,0.7,1.5,1.5,1.5H78
				c0.8,0,1.5-0.7,1.5-1.5v-9.2H75.7z"/>
		</g>
		<path class="st4" d="M75.7,148.5h3.9l-4.4-4.4v3.9C75.2,148.3,75.4,148.5,75.7,148.5z"/>
		<polygon class="st2" points="79.5,151.7 79.5,148.6 75.7,148.6 		"/>
	</g>
	<g>
		<g>
			<circle class="st1" cx="73.3" cy="200.4" r="11.6"/>
		</g>
		<g>
			<path class="st3" d="M75.7,197.3c-0.3,0-0.6-0.3-0.6-0.6v-3.8h-5.9c-0.8,0-1.5,0.7-1.5,1.5v12.1c0,0.8,0.7,1.5,1.5,1.5H78
				c0.8,0,1.5-0.7,1.5-1.5v-9.2H75.7z"/>
		</g>
		<path class="st4" d="M75.7,197.3h3.9l-4.4-4.4v3.9C75.2,197,75.4,197.2,75.7,197.3z"/>
		<polygon class="st2" points="79.5,200.4 79.5,197.3 75.7,197.3 		"/>
	</g>
</g>
</svg>
