<?xml version="1.0" encoding="utf-8"?>
<!-- Generator: Adobe Illustrator 24.2.3, SVG Export Plug-In . SVG Version: 6.00 Build 0)  -->
<svg version="1.1" xmlns="http://www.w3.org/2000/svg" xmlns:xlink="http://www.w3.org/1999/xlink" x="0px" y="0px"
	 viewBox="0 0 450 504.4" style="enable-background:new 0 0 450 504.4;" xml:space="preserve">
<style type="text/css">
	.st0{opacity:0.46;fill:#FFFFFF;}
	.st1{fill:#0A90B7;}
	.st2{fill:#F2F2F2;}
	.st3{fill:#FFFFFF;}
	.st4{fill:#A6D7E5;}
	.st5{opacity:0.55;}
	.st6{fill:#757575;}
	.st7{fill:none;stroke:#FFFFFF;stroke-width:2;stroke-linecap:round;}
	.st8{fill:none;stroke:#0A90B7;stroke-width:0.75;stroke-miterlimit:10;}
	.st9{opacity:0.46;fill:#209ABD;}
	.st10{opacity:0.6;fill:#0A90B7;}
	.st11{fill:#C71F25;}
	.st12{opacity:0.1;enable-background:new    ;}
	.st13{opacity:0.55;fill:#F2F2F2;}
	.st14{fill:none;}
	.st15{fill:#444444;}
	.st16{font-family:'Muli-Light';}
	.st17{font-size:15.0404px;}
	.st18{letter-spacing:24;}
	.st19{font-family:'Montserrat-Medium';}
	.st20{font-size:16.9205px;}
	.st21{font-family:'Montserrat-SemiBold';}
	.st22{font-size:17.4847px;}
	.st23{fill:#0A90B7;stroke:#0A90B7;stroke-width:0.25;stroke-miterlimit:10;}
	.st24{font-family:'Muli-Black';}
	.st25{font-size:18.3765px;}
	.st26{letter-spacing:19;}
	.st27{letter-spacing:29;}
	.st28{font-size:20.6736px;}
	.st29{fill:#D8D8D8;}
	.st30{fill:#A00A0F;}
	.st31{fill:#1294C2;}
</style>
<g id="Layer_6">
</g>
<g id="Shapes">
</g>
<g id="background">
</g>
<g id="text">
</g>
<g id="Graphics">
</g>
<g id="Layer_5">
	<rect x="14.3" class="st0" width="421.9" height="504.4"/>
	<path id="Path_7616_2_" class="st1" d="M415.7,61.5h-330V16.3h330l9.9,22.6L415.7,61.5z"/>
	<rect x="30.5" y="16.3" class="st2" width="55.2" height="45.2"/>
	<rect x="36.7" y="79.8" class="st13" width="372.7" height="113.9"/>
	<g class="st5">
		<rect x="70" y="137.6" class="st14" width="298.6" height="34"/>
		<text transform="matrix(1 0 0 1 70.0078 148.6449)"><tspan x="0" y="0" class="st15 st16 st17 st18">	</tspan><tspan x="28.2" y="0" class="st15 st16 st17">Security Authorization Package (SSP, </tspan><tspan x="28.2" y="18.8" class="st15 st16 st17">SAP, SAR, POA&amp;M)*</tspan></text>
	</g>
	<g class="st5">
		<rect x="61.8" y="102.8" class="st14" width="223.9" height="19.4"/>
		<text transform="matrix(1 0 0 1 61.7939 117.1737)" class="st1 st19 st20">Full Security Assessment</text>
	</g>
	<text transform="matrix(1 0 0 1 103.3447 45.1635)" class="st3 st21 st22">Authorization</text>
	<g class="st5">
		<path id="Path_1554_1_" class="st6" d="M228,217.1c0,6.3-5.1,11.4-11.4,11.4s-11.4-5.1-11.4-11.4c0-6.3,5.1-11.4,11.4-11.4
			S228,210.8,228,217.1z"/>
		<g id="Group_1434_1_" transform="translate(4.574 4.222)">
			<g id="arrow_1_" transform="translate(4.574 0)">
				<path id="arrow-2_1_" class="st3" d="M207.6,219.7c-0.3,0-0.6-0.1-0.9-0.4l-5-4.8c-0.5-0.4-0.5-1.2-0.1-1.6c0,0,0-0.1,0.1-0.1
					c0.5-0.5,1.3-0.5,1.7,0c0,0,0,0,0,0l4.1,4l4.1-4c0.5-0.5,1.3-0.5,1.7,0c0,0,0,0,0,0c0.5,0.4,0.5,1.2,0.1,1.6c0,0,0,0-0.1,0.1
					l-5,4.8C208.2,219.6,207.9,219.7,207.6,219.7z"/>
			</g>
			<path id="Path_1968_1_" class="st7" d="M212,217.1V207"/>
		</g>
	</g>
	<g class="st5">
		<g>
			<circle class="st1" cx="73.7" cy="145.9" r="11.4"/>
		</g>
		<g>
			<path class="st3" d="M76.1,142.8c-0.3,0-0.6-0.3-0.6-0.6v-3.7h-5.8c-0.8,0-1.5,0.7-1.5,1.5v11.9c0,0.8,0.7,1.5,1.5,1.5h8.7
				c0.8,0,1.5-0.7,1.5-1.5v-9H76.1z"/>
		</g>
		<path class="st4" d="M76,142.8h3.8l-4.3-4.3v3.8C75.5,142.6,75.7,142.8,76,142.8z"/>
		<polygon class="st2" points="79.8,145.9 79.8,142.9 76,142.9 		"/>
	</g>
	<g>
		<path class="st3" d="M69.5,50.3c-1,0-2.1-0.3-3.5-0.9l-0.3-0.1l-0.2-0.1c-0.6-0.2-1.1-0.4-1.5-0.5c-0.3-0.1-0.6-0.2-0.8-0.2
			c-0.2,0-0.4,0.1-0.6,0.2c-0.1,0.1-0.3,0.3-0.3,0.5c-0.1,0.4-0.4,0.6-0.8,0.6H59c-0.4,0-0.8-0.4-0.9-0.9c0-0.2,0-0.4-0.1-0.6
			c0-0.1,0-0.4,0-0.7c0-1.4,0.3-2.7,0.8-3.8c0.5-1.1,1.3-2.2,2.3-3.2c0.3-0.3,0.8-0.7,1.3-1c-0.1,0-0.3,0-0.4,0
			c-1.2,0-2.1-0.4-2.9-1.2c-0.7-0.8-1.1-2-1.1-3.4c0-2.2,0.9-4,2.6-5.4c1.6-1.3,3.6-2,6-2c2.5,0,4.6,0.7,6.1,2
			c1.7,1.4,2.5,3.3,2.5,5.6c0,1.8-0.5,3.3-1.6,4.6c-0.3,0.4-0.7,0.7-1.1,1h2.3c0.5,0,0.8,0.4,0.9,1c0,0.2,0,0.3,0,0.5
			c0,0.2,0,0.4,0,0.7c0,2.4-0.5,4.3-1.6,5.5C73.1,49.7,71.5,50.3,69.5,50.3L69.5,50.3z M67.6,42.8c0.4,0.1,0.7,0.1,1.1,0.2
			c1.3,0.3,1.6,0.3,1.7,0.3c0.2,0,0.5,0,0.6-0.2c0.1-0.1,0.2-0.4,0.2-1.4c0-0.1,0-0.2,0-0.3c-0.6,0.4-1.4,0.7-2.2,0.9
			c-0.2,0.1-0.6,0.2-1.1,0.3C68,42.7,67.8,42.7,67.6,42.8L67.6,42.8z M64,32.8c0.3,0.1,0.5,0.3,0.7,0.6c0.6,0.6,0.9,1.4,0.9,2.4
			c0,0.7-0.2,1.4-0.5,2c0.3-0.2,0.6-0.4,0.8-0.5c1-0.7,1.4-1.2,1.6-1.5c0.2-0.3,0.3-0.8,0.3-1.2c0-0.6-0.2-1-0.6-1.3
			c-0.5-0.4-1.2-0.6-2-0.6C64.7,32.6,64.3,32.6,64,32.8L64,32.8z M49.3,50.3c-2.6,0-4.7-1.1-6.3-3.1c-1.6-2.1-2.4-4.9-2.4-8.3
			c0-3.4,0.8-6.2,2.4-8.3c1.6-2.1,3.7-3.1,6.3-3.1c2.6,0,4.7,1.1,6.3,3.1c1.6,2.1,2.4,4.9,2.4,8.3c0,3.4-0.8,6.2-2.4,8.3
			C54,49.2,51.9,50.3,49.3,50.3L49.3,50.3z M49.4,32.5c-0.7,0-1.1,0.4-1.4,1.2c-0.3,0.7-0.6,2.2-0.6,5.2c0,3.1,0.3,4.5,0.6,5.2
			c0.3,0.8,0.7,1.2,1.4,1.2c0.7,0,1.1-0.4,1.5-1.2c0.3-0.7,0.6-2.2,0.6-5.2c0-3.1-0.3-4.5-0.6-5.3C50.5,32.8,50,32.5,49.4,32.5
			L49.4,32.5z"/>
		<path class="st1" d="M59,48.6c0-0.1,0-0.3,0-0.4c0-0.1,0-0.4,0-0.7c0-1.2,0.2-2.3,0.7-3.3c0.4-1,1.2-2,2.1-2.9
			c0.7-0.6,1.7-1.4,3.2-2.3c0.6-0.4,1.1-0.7,1.4-0.9c0.9-0.6,1.5-1.2,1.9-1.7c0.3-0.5,0.5-1.2,0.5-1.9c0-0.9-0.3-1.7-0.9-2.2
			c-0.6-0.6-1.5-0.8-2.5-0.8c-0.9,0-1.6,0.2-2.2,0.6c-0.6,0.4-1,0.9-1.3,1.6c0.2,0,0.3-0.1,0.5-0.1c0.2,0,0.3,0,0.4,0
			c0.6,0,1.1,0.2,1.5,0.6c0.4,0.4,0.6,0.9,0.6,1.6c0,0.7-0.3,1.4-0.8,1.9c-0.5,0.5-1.2,0.8-1.9,0.8c-0.9,0-1.7-0.3-2.3-1
			c-0.6-0.6-0.8-1.5-0.8-2.6c0-1.8,0.7-3.3,2.2-4.5c1.4-1.2,3.3-1.8,5.5-1.8c2.4,0,4.2,0.6,5.6,1.8c1.4,1.2,2.1,2.7,2.1,4.7
			c0,1.5-0.5,2.7-1.4,3.8c-0.9,1-2.2,1.9-4,2.4c-0.2,0.1-0.6,0.2-1,0.3c-2.9,0.9-4.7,2-5.5,3.2c0.6-0.4,1.2-0.6,1.8-0.8
			c0.6-0.2,1.2-0.3,1.9-0.3c0.7,0,1.6,0.1,2.5,0.4c1,0.2,1.6,0.3,1.9,0.3c0.6,0,1-0.2,1.3-0.6c0.3-0.4,0.4-1.1,0.4-2.1h2.6
			c0,0.2,0,0.3,0,0.5c0,0.2,0,0.4,0,0.7c0,2.1-0.4,3.7-1.3,4.7c-0.9,1-2.2,1.5-4,1.5c-0.9,0-1.9-0.3-3.2-0.9
			c-0.2-0.1-0.4-0.2-0.5-0.2c-0.7-0.3-1.2-0.5-1.6-0.6c-0.4-0.1-0.7-0.2-1-0.2c-0.4,0-0.7,0.1-1,0.3c-0.3,0.2-0.5,0.5-0.7,0.9H59z
			 M41.4,38.9c0-3.1,0.7-5.6,2.2-7.5c1.5-1.9,3.4-2.8,5.7-2.8c2.4,0,4.3,0.9,5.7,2.8c1.4,1.9,2.2,4.4,2.2,7.5c0,3.1-0.7,5.6-2.2,7.5
			c-1.5,1.9-3.4,2.8-5.7,2.8c-2.4,0-4.3-0.9-5.7-2.8C42.2,44.5,41.4,42,41.4,38.9z M46.5,38.9c0,2.6,0.2,4.6,0.7,5.7
			c0.4,1.2,1.2,1.8,2.2,1.8c1,0,1.7-0.6,2.2-1.8c0.5-1.2,0.7-3.1,0.7-5.7c0-2.7-0.2-4.6-0.7-5.7c-0.4-1.2-1.2-1.8-2.2-1.8
			c-1,0-1.7,0.6-2.2,1.8C46.7,34.3,46.5,36.2,46.5,38.9z"/>
		<path class="st4" d="M47.5,45.7l-0.3,0.4c-0.2-0.3-0.4-0.7-0.6-1.1c-0.5-1.3-0.7-3.3-0.7-6.1c0-2.8,0.2-4.8,0.7-6.1
			c0.6-1.4,1.5-2.2,2.7-2.2c0.8,0,1.5,0.4,2.1,1.1L51.1,32c-0.5-0.6-1.1-0.9-1.8-0.9c-1.1,0-1.9,0.6-2.4,1.9
			c-0.5,1.2-0.7,3.1-0.7,5.9c0,2.7,0.2,4.6,0.7,5.9C47.1,45.1,47.3,45.4,47.5,45.7z M55,31.7l-0.3,0.4c1.3,1.7,1.9,4,1.9,6.8
			c0,2.9-0.7,5.2-2,6.9c-1.3,1.7-3.1,2.6-5.3,2.6c-2.2,0-4-0.9-5.3-2.6v0l-0.3,0.4c0,0,0,0,0,0c1.4,1.8,3.3,2.7,5.6,2.7
			c2.3,0,4.2-0.9,5.6-2.8c1.4-1.8,2.1-4.3,2.1-7.3C57,35.9,56.3,33.5,55,31.7z M74.5,42.2c0-0.1,0-0.1,0-0.2l-0.4,0.5
			c0,0.1,0,0.2,0,0.4c0,1.9-0.4,3.3-1.1,4.2c-0.7,0.9-1.9,1.3-3.5,1.3c-0.8,0-1.8-0.3-3-0.8L66,47.3c-0.7-0.3-1.2-0.5-1.7-0.6
			c-0.5-0.1-0.8-0.2-1.2-0.2c-0.5,0-1,0.1-1.4,0.4c-0.3,0.2-0.5,0.5-0.7,0.8h-1.5l-0.4,0.5h2.1c0.2-0.4,0.4-0.7,0.7-0.9
			c0.3-0.2,0.7-0.3,1.1-0.3c0.3,0,0.7,0.1,1.1,0.2c0.4,0.1,1,0.3,1.6,0.6l0.5,0.2c1.3,0.6,2.3,0.8,3.2,0.8c1.7,0,3-0.5,3.8-1.5
			c0.8-1,1.2-2.5,1.2-4.6C74.6,42.6,74.5,42.3,74.5,42.2z M59.9,37.2c0.5,0.6,1.2,0.9,2.1,0.9c0.7,0,1.3-0.2,1.8-0.7
			c0.5-0.5,0.7-1,0.7-1.7c0-0.6-0.2-1-0.5-1.4l-0.3,0.4c0,0,0,0,0,0c0.2,0.2,0.3,0.6,0.3,1c0,0.5-0.2,0.9-0.5,1.2
			c-0.4,0.4-0.9,0.6-1.5,0.6c-0.8,0-1.4-0.2-1.8-0.7L59.9,37.2C59.9,37.2,59.9,37.2,59.9,37.2z M72.8,32.1
			C72.8,32.1,72.9,32.1,72.8,32.1c0.6,0.9,0.8,1.8,0.8,2.9c0,1.2-0.4,2.3-1.1,3.2c-0.8,0.9-2.1,1.7-3.7,2.2c-0.3,0.1-0.6,0.2-1,0.3
			c-3.1,1-5,2.1-5.9,3.5c-0.2,0.3-0.2,0.7,0,1l0.3-0.3c-0.1-0.1-0.1-0.2,0-0.3c0.8-1.3,2.7-2.4,5.7-3.3c0.4-0.1,0.8-0.2,1-0.3
			c1.7-0.6,3-1.4,3.9-2.4c0.9-1,1.3-2.2,1.3-3.6c0-1.3-0.3-2.4-1-3.3L72.8,32.1z M68.1,31.7c-0.7-0.7-1.7-1-2.9-1
			c-1,0-1.8,0.2-2.5,0.7c-0.7,0.5-1.2,1.1-1.5,2c-0.1,0.3-0.1,0.6,0.1,0.9l0.3-0.3c0-0.1-0.1-0.2,0-0.3c0.3-0.8,0.7-1.4,1.4-1.8
			c0.6-0.4,1.4-0.6,2.3-0.6c1.1,0,2,0.3,2.6,0.9L68.1,31.7C68.1,31.7,68.1,31.7,68.1,31.7z"/>
	</g>
	<rect x="14.3" class="st9" width="421.9" height="504.4"/>
	<g>
		<polygon class="st1" points="14.1,490.8 0,472.4 14.1,472.4 		"/>
		<polygon class="st1" points="435.9,490.8 450,472.4 435.9,472.4 		"/>
		<rect x="14.1" y="462.4" class="st10" width="421.9" height="17.4"/>
	</g>
	<g>
		<rect x="0.1" y="97.1" class="st2" width="449.9" height="375"/>
	</g>
	<g>
		<rect x="40.7" y="170.7" class="st14" width="364.8" height="271.2"/>
		<text transform="matrix(1 0 0 1 40.6572 184.1991)"><tspan x="0" y="0" class="st23 st24 st25">•</tspan><tspan x="9.8" y="0" class="st15 st16 st25 st26">	</tspan><tspan x="34.5" y="0" class="st15 st16 st25">Kick-Off (~1 week)</tspan><tspan x="0" y="34.5" class="st23 st24 st25"> </tspan><tspan x="5.4" y="34.5" class="st15 st16 st25 st18">	</tspan><tspan x="34.5" y="34.5" class="st15 st16 st25">FedRAMP Marketplace Designation </tspan><tspan x="34.5" y="57.4" class="st15 st16 st25">- In Process</tspan><tspan x="0" y="91.9" class="st23 st24 st25">•</tspan><tspan x="9.8" y="91.9" class="st15 st16 st25 st26">	</tspan><tspan x="34.5" y="91.9" class="st15 st16 st25">Review (~3-4 weeks)</tspan><tspan x="0" y="126.3" class="st23 st24 st25">•</tspan><tspan x="9.8" y="126.3" class="st15 st16 st25 st26">	</tspan><tspan x="34.5" y="126.3" class="st15 st16 st25">Remediation (~3 weeks)</tspan><tspan x="0" y="160.8" class="st23 st24 st25">•</tspan><tspan x="9.8" y="160.8" class="st15 st16 st25 st26">	</tspan><tspan x="34.5" y="160.8" class="st15 st16 st25">Final Review (~4 weeks)</tspan><tspan x="0" y="195.3" class="st23 st24 st25">•</tspan><tspan x="9.8" y="195.3" class="st15 st16 st25 st26">	</tspan><tspan x="34.5" y="195.3" class="st15 st16 st25">JAB P-ATO Issued</tspan><tspan x="0" y="229.7" class="st23 st24 st25 st27">	</tspan><tspan x="34.5" y="229.7" class="st15 st16 st25">FedRAMP Marketplace Designation  </tspan><tspan x="34.5" y="252.7" class="st15 st16 st25">- Authorized</tspan></text>
	</g>
	<g>
		<text transform="matrix(1 0 0 1 30.6142 145.0785)" class="st1 st19 st28">JAB Authorization Process</text>
	</g>
	<line class="st8" x1="45.1" y1="236.3" x2="45.1" y2="390.9"/>
	<line class="st8" x1="45.1" y1="177.1" x2="45.1" y2="189.9"/>
	<g>
		<path class="st29" d="M58.2,422c0.6-1-0.4-2.6-0.1-3.8c0.3-1.1,2-2,2-3.2c0-1.2-1.7-2.1-2-3.2c-0.3-1.1,0.7-2.8,0.1-3.8
			c-0.6-1-2.5-1-3.3-1.8c-0.8-0.8-0.8-2.7-1.8-3.3c-1-0.6-2.6,0.4-3.8,0.1c-1.1-0.3-2-2-3.2-2c-1.2,0-2.1,1.7-3.2,2
			c-1.1,0.3-2.8-0.7-3.8-0.1c-1,0.6-1,2.5-1.8,3.3c-0.8,0.8-2.7,0.8-3.3,1.8c-0.6,1,0.4,2.6,0.1,3.8c-0.3,1.1-2,2-2,3.2
			c0,1.2,1.7,2.1,2,3.2c0.3,1.1-0.7,2.8-0.1,3.8c0.6,1,2.5,1,3.3,1.8c0.5,0.5,0.7,1.5,1,2.3l-4.5,9.3l6-1.5l3.1,5.3l3.1-8.2l3.1,8.2
			l3.1-5.3l6,1.5l-4.5-9.3c0.3-0.8,0.5-1.8,1-2.3C55.7,423,57.6,423,58.2,422z"/>
		<g>
			<g>
				<polygon class="st30" points="41,437.3 37.9,432 32,433.5 40,416.7 47.5,419.9 				"/>
				<polygon class="st30" points="47.2,437.3 50.3,432 56.3,433.5 48.2,416.7 40.7,419.9 				"/>
			</g>
			<path class="st11" d="M58,413.1c0,1.2-1.7,2.1-2,3.2c-0.3,1.1,0.7,2.8,0.1,3.8c-0.6,1-2.5,1-3.3,1.8c-0.8,0.8-0.8,2.7-1.8,3.3
				c-1,0.6-2.6-0.4-3.8-0.1c-1.1,0.3-2,2-3.2,2c-1.2,0-2.1-1.7-3.2-2c-1.1-0.3-2.8,0.7-3.8,0.1c-1-0.6-1-2.5-1.8-3.3
				c-0.8-0.8-2.7-0.8-3.3-1.8c-0.6-1,0.4-2.6,0.1-3.8c-0.3-1.1-2-2-2-3.2c0-1.2,1.7-2.1,2-3.2c0.3-1.1-0.7-2.8-0.1-3.8
				c0.6-1,2.5-1,3.3-1.8c0.8-0.8,0.8-2.7,1.8-3.3c1-0.6,2.6,0.4,3.8,0.1c1.1-0.3,2-2,3.2-2c1.2,0,2.1,1.7,3.2,2
				c1.1,0.3,2.8-0.7,3.8-0.1c1,0.6,1,2.5,1.8,3.3c0.8,0.8,2.7,0.8,3.3,1.8c0.6,1-0.4,2.6-0.1,3.8C56.3,411,58,412,58,413.1z"/>
			<g>
				<path class="st2" d="M52,413.1c0,4.4-3.5,7.9-7.9,7.9s-7.9-3.5-7.9-7.9s3.5-7.9,7.9-7.9S52,408.8,52,413.1"/>
				<path class="st3" d="M50.6,413.1c0,3.6-2.9,6.5-6.5,6.5s-6.5-2.9-6.5-6.5s2.9-6.5,6.5-6.5S50.6,409.5,50.6,413.1"/>
			</g>
		</g>
	</g>
	<g>
		<path class="st29" d="M60.8,217c0-1.8,0-1.8,0-3.6l-3.2-1.2c-0.4-1-0.6-1.6-1.1-2.6l1.5-3c-1.2-1.3-1.3-1.3-2.5-2.5l-3.1,1.4
			c-1-0.4-1.6-0.7-2.6-1.1l-1.1-3.2c-1.8,0-1.8,0-3.6,0l-1.2,3.2c-1,0.4-1.6,0.6-2.6,1.1l-3-1.5c-1.3,1.2-1.3,1.3-2.5,2.5l1.4,3.1
			c-0.4,1-0.7,1.6-1.1,2.6l-3.2,1.1c0,1.8,0,1.8,0,3.6l3.2,1.2c0.4,1,0.6,1.6,1.1,2.6l-1.5,3c1.2,1.3,1.3,1.3,2.5,2.5l3.1-1.4
			c1,0.4,1.6,0.7,2.6,1.1l1.1,3.2c1.8,0,1.8,0,3.6,0l1.2-3.2c1-0.4,1.6-0.6,2.6-1.1l3,1.5c1.3-1.2,1.3-1.3,2.5-2.5l-1.4-3.1
			c0.4-1,0.7-1.6,1.1-2.6L60.8,217z M47,220.5c-3,0-5.4-2.4-5.4-5.4c0-3,2.4-5.4,5.4-5.4c3,0,5.4,2.4,5.4,5.4
			C52.4,218.1,50,220.5,47,220.5z"/>
		<path class="st11" d="M59.2,215.8c0-1.8,0-1.8,0-3.6l-3.2-1.2c-0.4-1-0.6-1.6-1.1-2.6l1.5-3c-1.2-1.3-1.3-1.3-2.5-2.5l-3.1,1.4
			c-1-0.4-1.6-0.7-2.6-1.1l-1.1-3.2c-1.8,0-1.8,0-3.6,0l-1.2,3.2c-1,0.4-1.6,0.6-2.6,1.1l-3-1.5c-1.3,1.2-1.3,1.3-2.5,2.5l1.4,3.1
			c-0.4,1-0.7,1.6-1.1,2.6l-3.2,1.1c0,1.8,0,1.8,0,3.6l3.2,1.2c0.4,1,0.6,1.6,1.1,2.6l-1.5,3c1.2,1.3,1.3,1.3,2.5,2.5l3.1-1.4
			c1,0.4,1.6,0.7,2.6,1.1l1.1,3.2c1.8,0,1.8,0,3.6,0l1.2-3.2c1-0.4,1.6-0.6,2.6-1.1l3,1.5c1.3-1.2,1.3-1.3,2.5-2.5l-1.4-3.1
			c0.4-1,0.7-1.6,1.1-2.6L59.2,215.8z M45.3,219.4c-3,0-5.4-2.4-5.4-5.4c0-3,2.4-5.4,5.4-5.4c3,0,5.4,2.4,5.4,5.4
			C50.8,216.9,48.3,219.4,45.3,219.4z"/>
	</g>
</g>
</svg>
