<?xml version="1.0" encoding="utf-8"?>
<!-- Generator: Adobe Illustrator 24.2.3, SVG Export Plug-In . SVG Version: 6.00 Build 0)  -->
<svg version="1.1" xmlns="http://www.w3.org/2000/svg" xmlns:xlink="http://www.w3.org/1999/xlink" x="0px" y="0px"
	 viewBox="0 0 968 609.9" style="enable-background:new 0 0 968 609.9;" xml:space="preserve">
<style type="text/css">
	.st0{display:none;}
	.st1{display:inline;fill:#F2F2F2;}
	.st2{fill:#FFFFFF;}
	.st3{fill:#0A90B7;}
	.st4{fill:#1294C2;}
	.st5{fill:none;stroke:#0D3751;stroke-width:0.1394;stroke-linecap:round;stroke-linejoin:round;stroke-miterlimit:10;}
	.st6{fill:none;}
	.st7{fill:#444444;}
	.st8{font-family:'Muli-LightItalic';}
	.st9{font-size:14px;}
	.st10{fill:none;stroke:#0A90B7;stroke-miterlimit:10;}
	.st11{fill:#F2F2F2;}
	.st12{fill:#B8322E;}
	.st13{fill:#A00A0F;}
	.st14{opacity:0.52;fill:#A00A0F;}
	.st15{opacity:0.45;fill:#B8322E;}
	.st16{font-family:'Montserrat-Medium';}
	.st17{font-size:18px;}
	.st18{font-family:'Muli-Light';}
	.st19{font-size:16px;}
	.st20{letter-spacing:25;}
	.st21{font-family:'Montserrat-SemiBold';}
	.st22{font-size:17.5px;}
	.st23{fill:#0A90B7;stroke:#0A90B7;stroke-width:0.25;stroke-miterlimit:10;}
	.st24{font-family:'Muli-Black';}
	.st25{letter-spacing:17;}
	.st26{letter-spacing:21;}
	.st27{font-family:'Montserrat-LightItalic';}
	.st28{fill:none;stroke:#757575;stroke-width:0.25;stroke-miterlimit:10;}
	.st29{fill:none;stroke:#0A90B7;stroke-width:0.75;stroke-miterlimit:10;}
	.st30{fill:#A6D7E5;}
	.st31{fill:#757575;}
	.st32{fill:none;stroke:#FFFFFF;stroke-width:2;stroke-linecap:round;}
	.st33{fill:#D8D8D8;}
	.st34{fill:#C71F25;}
	.st35{opacity:0.1;enable-background:new    ;}
</style>
<g id="Layer_5" class="st0">
	<rect x="-2057.1" y="-381.8" class="st1" width="5698.4" height="2596.5"/>
</g>
<g id="Shapes">
	<path id="Path_7616_2_" class="st3" d="M636.4,46.5H417.8V0h218.6l10.2,23.3L636.4,46.5z"/>
	<path id="Path_7616_3_" class="st3" d="M327.6,46.5H57V0h270.7l10.2,23.3L327.6,46.5z"/>
	<rect x="360.9" class="st2" width="56.9" height="46.5"/>
	<rect x="666.5" class="st2" width="56.9" height="46.5"/>
	<rect x="0.1" class="st2" width="56.9" height="46.5"/>
	<g>
		<polygon class="st3" points="727,3.3 727,43.3 907.9,43.3 907.9,41.6 907.9,37.8 919.9,45 907.9,52.3 907.9,46.6 723.6,46.6 
			723.6,0 746.8,0 956.7,0 966.9,23.3 956.7,46.6 927.7,46.6 927.7,43.3 954.2,43.3 954.7,42.3 962.2,24 962.6,23.3 962.2,22.7 
			954.7,4.3 954.2,3.3 		"/>
	</g>
	<g>
		<rect x="381.3" y="523.4" class="st6" width="559.7" height="49.7"/>
		<text transform="matrix(1 0 0 1 381.3426 533.6877)"><tspan x="0" y="0" class="st7 st8 st9">Note: During the authorization process a CSP must be prioritized by the JAB before </tspan><tspan x="0" y="18" class="st7 st8 st9">entering the JAB P-ATO process. The CSP can obtain FedRAMP Ready status either </tspan><tspan x="0" y="36" class="st7 st8 st9">before or after the JAB’s prioritization.</tspan></text>
	</g>
</g>
<g id="background">
	<rect x="666.6" y="70" class="st2" width="291.6" height="154.6"/>
	<rect x="360.9" y="70" class="st2" width="277.3" height="346.2"/>
	<rect x="0" y="243" class="st2" width="329.1" height="202.9"/>
	<rect x="0" y="70" class="st2" width="329.1" height="129.8"/>
	<rect x="0" y="488.6" class="st2" width="329.1" height="121.2"/>
</g>
<g id="text">
	<g>
		<rect x="686.9" y="91.8" class="st6" width="239.3" height="20"/>
		<text transform="matrix(1 0 0 1 686.8514 107.0753)" class="st3 st16 st17">Post Authorization</text>
	</g>
	<g>
		<rect x="697.1" y="129" class="st6" width="253.9" height="68.1"/>
		<text transform="matrix(1 0 0 1 697.109 142.6841)"><tspan x="0" y="0" class="st7 st18 st19 st20">	</tspan><tspan x="30" y="0" class="st7 st18 st19">Ongoing Continuous </tspan><tspan x="30" y="20" class="st7 st18 st19">Monitoring Deliverables</tspan><tspan x="0" y="50" class="st7 st18 st19 st20">	</tspan><tspan x="30" y="50" class="st7 st18 st19">Annual Assessment</tspan></text>
	</g>
	<text transform="matrix(1 0 0 1 73.7183 29.728)" class="st2 st21 st17">Preparation</text>
	<text transform="matrix(1 0 0 1 435.8585 29.728)" class="st2 st21 st17">Authorization</text>
	<text transform="matrix(1 0 0 1 738.8434 29.728)" class="st3 st21 st22">Continuous Monitoring</text>
	<g>
		<rect x="391.3" y="154.3" class="st6" width="265.9" height="236.1"/>
		<text transform="matrix(1 0 0 1 391.2809 166.0756)"><tspan x="0" y="0" class="st23 st24 st19">•</tspan><tspan x="8.5" y="0" class="st7 st18 st19 st25">	</tspan><tspan x="30" y="0" class="st7 st18 st19">Kick-Off (~1 week)</tspan><tspan x="0" y="30" class="st23 st24 st19"> </tspan><tspan x="4.7" y="30" class="st7 st18 st19 st26">	</tspan><tspan x="30" y="30" class="st7 st18 st19">FedRAMP Marketplace </tspan><tspan x="30" y="50" class="st7 st18 st19">Designation - In Process</tspan><tspan x="0" y="80" class="st23 st24 st19">•</tspan><tspan x="8.5" y="80" class="st7 st18 st19 st25">	</tspan><tspan x="30" y="80" class="st7 st18 st19">Review (~3-4 weeks)</tspan><tspan x="0" y="110" class="st23 st24 st19">•</tspan><tspan x="8.5" y="110" class="st7 st18 st19 st25">	</tspan><tspan x="30" y="110" class="st7 st18 st19">Remediation (~3 weeks)</tspan><tspan x="0" y="140" class="st23 st24 st19">•</tspan><tspan x="8.5" y="140" class="st7 st18 st19 st25">	</tspan><tspan x="30" y="140" class="st7 st18 st19">Final Review (~4 weeks)</tspan><tspan x="0" y="170" class="st23 st24 st19">•</tspan><tspan x="8.5" y="170" class="st7 st18 st19 st25">	</tspan><tspan x="30" y="170" class="st7 st18 st19">JAB P-ATO Issued</tspan><tspan x="0" y="200" class="st23 st24 st19 st20">	</tspan><tspan x="30" y="200" class="st7 st18 st19">FedRAMP Marketplace </tspan><tspan x="30" y="220" class="st7 st18 st19">Designation - Authorized</tspan></text>
	</g>
	<g>
		<rect x="382.4" y="94.5" class="st6" width="192" height="37.3"/>
		<text transform="matrix(1 0 0 1 382.3824 109.8271)"><tspan x="0" y="0" class="st3 st16 st17">JAB Authorization </tspan><tspan x="0" y="21.6" class="st3 st16 st17">Process</tspan></text>
	</g>
	<g>
		<rect x="30" y="299" class="st6" width="288.8" height="128.1"/>
		<text transform="matrix(1 0 0 1 30.0212 312.6967)"><tspan x="0" y="0" class="st23 st24 st19">•</tspan><tspan x="8.5" y="0" class="st7 st18 st19 st25">	</tspan><tspan x="30" y="0" class="st7 st18 st19">RAR Development</tspan><tspan x="0" y="30" class="st23 st24 st19">•</tspan><tspan x="8.5" y="30" class="st7 st18 st19 st25">	</tspan><tspan x="30" y="30" class="st7 st18 st19">FedRAMP PMO Review of RAR</tspan><tspan x="0" y="60" class="st23 st24 st19">•</tspan><tspan x="8.5" y="60" class="st7 st18 st19 st25">	</tspan><tspan x="30" y="60" class="st7 st18 st19">Remediation (if needed)</tspan><tspan x="0" y="90" class="st7 st18 st19 st20">	</tspan><tspan x="30" y="90" class="st7 st18 st19">FedRAMP Marketplace  </tspan><tspan x="30" y="110" class="st7 st18 st19">Designation - Ready</tspan></text>
	</g>
	<g>
		<rect x="20" y="266.4" class="st6" width="309.8" height="20"/>
		<text transform="matrix(1 0 0 1 19.9763 281.6665)"><tspan x="0" y="0" class="st3 st16 st17">Readiness Assessment</tspan><tspan x="211.9" y="0" class="st7 st27 st9"> (required)</tspan></text>
	</g>
	<g>
		<rect x="20" y="92.8" class="st6" width="217.8" height="49.8"/>
		<text transform="matrix(1 0 0 1 19.9778 108.0752)" class="st3 st16 st17">FedRAMP Connect</text>
	</g>
	<g>
		<rect x="31" y="550.5" class="st6" width="287.8" height="36.1"/>
		<text transform="matrix(1 0 0 1 31.0455 562.2729)"><tspan x="0" y="0" class="st7 st18 st19 st20">	</tspan><tspan x="30" y="0" class="st7 st18 st19">Security Authorization Package </tspan><tspan x="30" y="20" class="st7 st18 st19">(SSP, SAP, SAR, POA&amp;M)</tspan></text>
	</g>
	<g>
		<rect x="22.3" y="513.1" class="st6" width="238.2" height="20.6"/>
		<text transform="matrix(1 0 0 1 22.3091 528.3803)" class="st3 st16 st17">Full Security Assessment</text>
	</g>
	<g>
		<rect x="30" y="131.9" class="st6" width="280.9" height="48.2"/>
		<text transform="matrix(1 0 0 1 29.9567 145.6405)"><tspan x="0" y="0" class="st7 st18 st19 st20">	</tspan><tspan x="30" y="0" class="st7 st18 st19">FedRAMP Connect Business Case</tspan><tspan x="0" y="30" class="st23 st24 st19">•</tspan><tspan x="8.5" y="30" class="st7 st18 st19 st25">	</tspan><tspan x="30" y="30" class="st7 st18 st19">Prioritized to work with JAB</tspan></text>
	</g>
</g>
<g id="Graphics">
	<line class="st29" x1="699.4" y1="135.1" x2="699.4" y2="181"/>
	<g>
		<g>
			<circle class="st3" cx="699" cy="137.4" r="12.1"/>
		</g>
		<g>
			<path class="st2" d="M701.5,134.1c-0.3,0-0.6-0.3-0.6-0.6v-4h-6.2c-0.9,0-1.6,0.7-1.6,1.6v12.6c0,0.9,0.7,1.6,1.6,1.6h9.2
				c0.9,0,1.6-0.7,1.6-1.6v-9.6H701.5z"/>
		</g>
		<path class="st30" d="M701.5,134.1h4l-4.6-4.6v4C700.9,133.9,701.1,134.1,701.5,134.1z"/>
		<polygon class="st11" points="705.5,137.4 705.5,134.2 701.5,134.2 		"/>
	</g>
	<g>
		<g>
			<circle class="st3" cx="699" cy="188.2" r="12.1"/>
		</g>
		<g>
			<path class="st2" d="M701.5,185c-0.3,0-0.6-0.3-0.6-0.6v-4h-6.2c-0.9,0-1.6,0.7-1.6,1.6v12.6c0,0.9,0.7,1.6,1.6,1.6h9.2
				c0.9,0,1.6-0.7,1.6-1.6V185H701.5z"/>
		</g>
		<path class="st30" d="M701.5,185h4l-4.6-4.6v4C700.9,184.7,701.1,184.9,701.5,185z"/>
		<polygon class="st11" points="705.5,188.2 705.5,185 701.5,185 		"/>
	</g>
	<g>
		<path class="st2" d="M401,35c-1,0-2.2-0.3-3.6-0.9l-0.3-0.1l-0.2-0.1c-0.6-0.3-1.1-0.4-1.5-0.6c-0.3-0.1-0.6-0.2-0.9-0.2
			c-0.2,0-0.4,0.1-0.6,0.2c-0.1,0.1-0.3,0.3-0.4,0.5c-0.2,0.4-0.5,0.6-0.8,0.6h-2.5c-0.4,0-0.8-0.4-0.9-0.9c0-0.2,0-0.4-0.1-0.6
			c0-0.2,0-0.4,0-0.7c0-1.4,0.3-2.8,0.8-3.9c0.5-1.2,1.3-2.3,2.4-3.3c0.4-0.3,0.8-0.7,1.3-1.1c-0.1,0-0.3,0-0.4,0
			c-1.2,0-2.2-0.4-2.9-1.3c-0.8-0.9-1.2-2-1.2-3.5c0-2.2,0.9-4.1,2.6-5.6c1.6-1.4,3.7-2.1,6.1-2.1c2.6,0,4.7,0.7,6.3,2
			c1.7,1.4,2.6,3.4,2.6,5.8c0,1.8-0.6,3.4-1.7,4.7c-0.3,0.4-0.7,0.7-1.1,1h2.3c0.5,0,0.9,0.5,0.9,1c0,0.2,0,0.3,0,0.5
			c0,0.2,0,0.4,0,0.8c0,2.5-0.5,4.4-1.6,5.7C404.7,34.4,403.1,35,401,35L401,35z M399.1,27.3c0.4,0.1,0.7,0.1,1.2,0.2
			c1.3,0.3,1.7,0.3,1.8,0.3c0.2,0,0.5,0,0.6-0.2c0.1-0.1,0.2-0.4,0.2-1.5c0-0.1,0-0.2,0-0.3c-0.7,0.4-1.4,0.7-2.2,0.9
			c-0.2,0.1-0.6,0.2-1.1,0.3C399.4,27.2,399.3,27.2,399.1,27.3L399.1,27.3z M395.4,17c0.3,0.1,0.5,0.3,0.8,0.6
			c0.6,0.6,0.9,1.5,0.9,2.5c0,0.8-0.2,1.5-0.6,2.1c0.4-0.2,0.6-0.4,0.8-0.5c1-0.7,1.5-1.2,1.7-1.5c0.2-0.4,0.3-0.8,0.3-1.3
			c0-0.6-0.2-1-0.6-1.4c-0.5-0.4-1.2-0.7-2.1-0.7C396.1,16.8,395.7,16.8,395.4,17L395.4,17z M380.2,35c-2.6,0-4.8-1.1-6.5-3.2
			c-1.7-2.1-2.5-5-2.5-8.5c0-3.5,0.8-6.4,2.5-8.5c1.7-2.2,3.8-3.2,6.5-3.2c2.6,0,4.8,1.1,6.5,3.2c1.7,2.2,2.5,5,2.5,8.5
			c0,3.5-0.8,6.4-2.5,8.5C385.1,33.9,382.9,35,380.2,35L380.2,35z M380.3,16.7c-0.7,0-1.2,0.4-1.5,1.2c-0.3,0.7-0.6,2.2-0.6,5.4
			c0,3.2,0.3,4.7,0.6,5.4c0.3,0.8,0.8,1.2,1.5,1.2c0.7,0,1.2-0.4,1.5-1.2c0.3-0.7,0.6-2.2,0.6-5.4c0-3.2-0.3-4.7-0.6-5.4
			C381.4,17,381,16.7,380.3,16.7L380.3,16.7z"/>
		<path class="st3" d="M390.2,33.3c0-0.1,0-0.3,0-0.4c0-0.1,0-0.4,0-0.7c0-1.2,0.2-2.4,0.7-3.4c0.5-1,1.2-2,2.2-3
			c0.7-0.7,1.8-1.4,3.3-2.4c0.7-0.4,1.2-0.7,1.5-0.9c0.9-0.6,1.6-1.2,1.9-1.8c0.3-0.6,0.5-1.2,0.5-2c0-0.9-0.3-1.7-1-2.3
			c-0.7-0.6-1.5-0.9-2.6-0.9c-0.9,0-1.6,0.2-2.2,0.6c-0.6,0.4-1,0.9-1.3,1.7c0.2,0,0.3-0.1,0.5-0.1c0.2,0,0.3,0,0.4,0
			c0.6,0,1.1,0.2,1.5,0.6c0.4,0.4,0.6,1,0.6,1.6c0,0.8-0.3,1.4-0.8,1.9c-0.5,0.5-1.2,0.8-2,0.8c-1,0-1.7-0.3-2.3-1
			c-0.6-0.7-0.9-1.5-0.9-2.7c0-1.8,0.7-3.4,2.2-4.6c1.5-1.2,3.4-1.9,5.6-1.9c2.4,0,4.4,0.6,5.8,1.8c1.4,1.2,2.2,2.8,2.2,4.8
			c0,1.5-0.5,2.8-1.4,3.9c-0.9,1.1-2.3,1.9-4.1,2.5c-0.3,0.1-0.6,0.2-1.1,0.3c-3,1-4.9,2.1-5.7,3.3c0.6-0.4,1.2-0.6,1.8-0.8
			c0.6-0.2,1.3-0.3,1.9-0.3c0.7,0,1.6,0.1,2.6,0.4c1,0.2,1.7,0.4,2,0.4c0.6,0,1.1-0.2,1.3-0.6c0.3-0.4,0.4-1.1,0.4-2.2h2.6
			c0,0.2,0,0.3,0,0.5c0,0.2,0,0.4,0,0.7c0,2.2-0.4,3.8-1.3,4.9c-0.9,1.1-2.2,1.6-4.1,1.6c-0.9,0-2-0.3-3.3-0.9
			c-0.2-0.1-0.4-0.2-0.5-0.2c-0.7-0.3-1.2-0.5-1.6-0.6c-0.4-0.1-0.8-0.2-1.1-0.2c-0.4,0-0.8,0.1-1.1,0.3c-0.3,0.2-0.5,0.5-0.7,1
			H390.2z M372.1,23.3c0-3.2,0.8-5.8,2.2-7.7c1.5-1.9,3.5-2.9,5.9-2.9c2.4,0,4.4,1,5.9,2.9c1.5,1.9,2.2,4.5,2.2,7.7
			c0,3.2-0.8,5.8-2.2,7.7c-1.5,1.9-3.5,2.9-5.9,2.9c-2.4,0-4.4-1-5.9-2.9C372.9,29,372.1,26.5,372.1,23.3z M377.3,23.3
			c0,2.7,0.2,4.7,0.7,5.9c0.5,1.2,1.2,1.8,2.2,1.8c1,0,1.8-0.6,2.2-1.8c0.5-1.2,0.7-3.2,0.7-5.9c0-2.7-0.2-4.7-0.7-5.9
			c-0.5-1.2-1.2-1.8-2.2-1.8c-1,0-1.8,0.6-2.2,1.8C377.6,18.6,377.3,20.5,377.3,23.3z"/>
		<path class="st30" d="M378.4,30.3l-0.3,0.4c-0.2-0.3-0.4-0.7-0.6-1.1c-0.5-1.3-0.8-3.4-0.8-6.3c0-2.9,0.3-4.9,0.8-6.3
			c0.6-1.5,1.5-2.3,2.8-2.3c0.9,0,1.6,0.4,2.1,1.1l-0.3,0.4c-0.5-0.6-1.1-0.9-1.8-0.9c-1.1,0-1.9,0.7-2.4,2c-0.5,1.3-0.7,3.2-0.7,6
			c0,2.8,0.2,4.8,0.7,6C378,29.7,378.2,30,378.4,30.3z M386.1,15.8l-0.3,0.4c1.3,1.8,2,4.1,2,7c0,2.9-0.7,5.3-2.1,7.1
			c-1.4,1.8-3.2,2.7-5.5,2.7c-2.2,0-4.1-0.9-5.4-2.7v0l-0.3,0.4c0,0,0,0,0,0c1.4,1.9,3.4,2.8,5.7,2.8c2.4,0,4.3-1,5.7-2.8
			c1.4-1.9,2.2-4.4,2.2-7.5C388.2,20.2,387.5,17.7,386.1,15.8z M406.2,26.7c0-0.1,0-0.1,0-0.2l-0.4,0.6c0,0.1,0,0.2,0,0.4
			c0,2-0.4,3.4-1.1,4.3c-0.8,0.9-2,1.3-3.6,1.3c-0.8,0-1.9-0.3-3.1-0.8l-0.5-0.2c-0.7-0.3-1.3-0.5-1.7-0.6c-0.5-0.1-0.9-0.2-1.2-0.2
			c-0.5,0-1,0.1-1.4,0.4c-0.3,0.2-0.5,0.5-0.8,0.9h-1.5l-0.4,0.6h2.2c0.2-0.4,0.4-0.7,0.7-0.9c0.3-0.2,0.7-0.4,1.2-0.4
			c0.3,0,0.7,0.1,1.1,0.2c0.4,0.1,1,0.3,1.7,0.6l0.5,0.2c1.3,0.6,2.4,0.9,3.2,0.9c1.8,0,3.1-0.5,3.9-1.5c0.8-1,1.3-2.6,1.3-4.7
			C406.2,27.1,406.2,26.8,406.2,26.7z M391.2,21.6c0.5,0.6,1.3,0.9,2.2,0.9c0.7,0,1.3-0.3,1.8-0.7c0.5-0.5,0.7-1,0.7-1.7
			c0-0.6-0.2-1-0.5-1.4l-0.3,0.4c0,0,0,0,0,0c0.2,0.3,0.4,0.6,0.4,1c0,0.5-0.2,0.9-0.5,1.3c-0.4,0.4-0.9,0.6-1.6,0.6
			c-0.8,0-1.4-0.3-1.9-0.8L391.2,21.6C391.2,21.6,391.2,21.6,391.2,21.6z M404.4,16.3C404.5,16.3,404.5,16.3,404.4,16.3
			c0.6,0.9,0.9,1.9,0.9,3c0,1.3-0.4,2.4-1.2,3.3c-0.8,1-2.1,1.7-3.8,2.3c-0.3,0.1-0.6,0.2-1.1,0.3c-3.2,1-5.1,2.2-6.1,3.6
			c-0.2,0.3-0.2,0.7,0,1.1l0.4-0.3c-0.1-0.1-0.1-0.2,0-0.3c0.9-1.3,2.8-2.4,5.8-3.4c0.5-0.1,0.8-0.2,1.1-0.3c1.8-0.6,3.1-1.4,4-2.4
			c0.9-1,1.3-2.3,1.3-3.7c0-1.3-0.3-2.5-1-3.4L404.4,16.3z M399.6,15.8c-0.8-0.7-1.8-1-3-1c-1,0-1.9,0.2-2.5,0.7
			c-0.7,0.5-1.3,1.2-1.6,2.1c-0.1,0.3-0.1,0.6,0.1,0.9l0.4-0.3c0-0.1-0.1-0.2,0-0.3c0.3-0.8,0.8-1.4,1.4-1.8
			c0.6-0.4,1.4-0.6,2.3-0.6c1.1,0,2,0.3,2.7,0.9L399.6,15.8C399.6,15.8,399.6,15.8,399.6,15.8z"/>
	</g>
	<g>
		<path class="st2" d="M21.1,35c-2.6,0-4.8-1.1-6.5-3.2c-1.7-2.1-2.5-5-2.5-8.5c0-3.5,0.8-6.4,2.5-8.5c1.7-2.2,3.8-3.2,6.5-3.2
			c2.6,0,4.8,1.1,6.5,3.2c1.7,2.2,2.5,5,2.5,8.5c0,3.5-0.8,6.4-2.5,8.5C25.9,33.9,23.7,35,21.1,35L21.1,35z M21.1,16.7
			c-0.7,0-1.2,0.4-1.5,1.2c-0.3,0.7-0.6,2.2-0.6,5.4c0,3.2,0.3,4.7,0.6,5.4c0.3,0.8,0.8,1.2,1.5,1.2c0.7,0,1.2-0.4,1.5-1.2
			c0.3-0.7,0.6-2.2,0.6-5.4c0-3.2-0.3-4.7-0.6-5.4C22.3,17,21.8,16.7,21.1,16.7L21.1,16.7z M43.5,35c0.5,0,0.9-0.5,0.9-1.2v-2.9
			c0-0.7-0.4-1.2-0.9-1.2h-1.2c-1.2,0-1.3-0.6-1.3-1.3V12.7c0-0.7-0.4-1.2-0.9-1.2h-3.9c-0.4,0-0.7,0.3-0.8,0.7
			c-0.2,0.7-0.6,1.2-1.2,1.6c-0.7,0.4-1.7,0.6-2.9,0.7c-0.5,0-0.9,0.5-0.9,1.2v2.8c0,0.3,0.1,0.6,0.3,0.8c0.2,0.2,0.4,0.4,0.6,0.4
			h2.7v8.6v0.7c0,0.4,0,0.8-1.3,0.8h-1.4c-0.5,0-0.9,0.5-0.9,1.2v2.9c0,0.7,0.4,1.2,0.9,1.2H43.5L43.5,35z"/>
		<path class="st3" d="M31.3,33.8v-2.9h1.4c0.9,0,1.5-0.1,1.8-0.3c0.3-0.2,0.4-0.8,0.4-1.7v-0.7v-9.8h-3.6v-2.9
			c1.4,0,2.5-0.3,3.3-0.8c0.8-0.5,1.4-1.2,1.7-2.2h3.9v15.8c0,1.1,0.1,1.8,0.4,2.1c0.2,0.3,0.9,0.4,1.8,0.4h1.2v2.9H31.3z M13,23.3
			c0-3.2,0.8-5.8,2.2-7.7c1.5-1.9,3.5-2.9,5.9-2.9c2.4,0,4.4,1,5.9,2.9c1.5,1.9,2.2,4.5,2.2,7.7c0,3.2-0.8,5.8-2.2,7.7
			c-1.5,1.9-3.5,2.9-5.9,2.9c-2.4,0-4.4-1-5.9-2.9C13.7,29,13,26.5,13,23.3z M18.2,23.3c0,2.7,0.2,4.7,0.7,5.9
			c0.5,1.2,1.2,1.8,2.2,1.8c1,0,1.8-0.6,2.2-1.8c0.5-1.2,0.7-3.2,0.7-5.9c0-2.7-0.2-4.7-0.7-5.9c-0.5-1.2-1.2-1.8-2.2-1.8
			c-1,0-1.8,0.6-2.2,1.8C18.4,18.6,18.2,20.5,18.2,23.3z"/>
		<path class="st30" d="M40.3,30.8L40,31.2c-0.4-0.5-0.6-1.3-0.6-2.7V13.6l0.5-0.6v15.5C39.9,29.7,40,30.4,40.3,30.8z M34.8,17.6
			h-2.9l-0.5,0.6h3.3c0.1,0,0.1,0,0.2,0.1l0.3-0.4C35.2,17.7,35,17.6,34.8,17.6z M42.9,31.8v1.1H31.9l-0.5,0.6h11.8v-2.3L42.9,31.8z
			 M18.7,29.3c-0.5-1.3-0.7-3.2-0.7-6c0-2.8,0.2-4.8,0.7-6c0.5-1.3,1.3-2,2.4-2c0.8,0,1.4,0.3,1.8,0.9l0.3-0.4
			c-0.6-0.7-1.3-1.1-2.1-1.1c-1.3,0-2.2,0.8-2.8,2.3c-0.5,1.3-0.8,3.4-0.8,6.3c0,2.9,0.2,4.9,0.8,6.3c0.2,0.4,0.4,0.8,0.6,1.1
			l0.3-0.4C19,30,18.8,29.7,18.7,29.3z M26.9,15.8l-0.3,0.4c1.3,1.8,2,4.1,2,7c0,2.9-0.7,5.3-2.1,7.1c-1.4,1.8-3.2,2.7-5.5,2.7
			c-2.2,0-4.1-0.9-5.4-2.7v0l-0.3,0.4c0,0,0,0,0,0c1.4,1.9,3.4,2.8,5.7,2.8c2.4,0,4.3-1,5.7-2.8c1.4-1.9,2.2-4.4,2.2-7.5
			C29,20.2,28.3,17.7,26.9,15.8z"/>
	</g>
	<g>
		<path class="st2" d="M685.1,35.7c-2.9,0-5.2-1.1-7-3.4c-1.8-2.3-2.7-5.3-2.7-9c0-3.7,0.9-6.7,2.7-9c1.8-2.3,4.2-3.4,7-3.4
			c2.9,0,5.3,1.1,7,3.4c1.8,2.3,2.7,5.3,2.7,9c0,3.7-0.9,6.7-2.7,9C690.4,34.5,688,35.7,685.1,35.7L685.1,35.7z M685.1,16.3
			c-0.8,0-1.3,0.4-1.6,1.3c-0.3,0.8-0.7,2.4-0.7,5.7c0,3.3,0.4,4.9,0.7,5.7c0.3,0.9,0.8,1.3,1.6,1.3c0.8,0,1.3-0.4,1.6-1.3
			c0.3-0.8,0.7-2.4,0.7-5.7c0-3.3-0.3-5-0.6-5.7C686.4,16.7,685.9,16.3,685.1,16.3L685.1,16.3z M703.7,35.7c-2.7,0-4.9-0.6-6.5-1.7
			c-1.8-1.3-2.7-3.1-2.7-5.3c0-1.5,0.4-2.7,1.2-3.6c0.8-0.9,1.9-1.4,3.1-1.4c1.1,0,2,0.4,2.7,1.1c0.8,0.8,1.2,1.8,1.2,3
			c0,1-0.3,1.8-0.8,2.5c0.2,0,0.5,0,0.8,0c1.2,0,2-0.3,2.6-0.8c0.5-0.5,0.7-1.1,0.7-2c0-0.9-0.3-1.3-0.6-1.5
			c-0.4-0.3-1.2-0.6-2.8-0.6c-0.5,0-1-0.5-1-1.2v-2.7c-0.7,0.5-1.5,0.8-2.5,0.8c-1.2,0-2.1-0.4-2.9-1.2c-0.7-0.8-1.1-1.9-1.1-3.3
			c0-2.2,0.9-4,2.6-5.2c1.6-1.2,3.7-1.8,6.3-1.8c2.9,0,5.1,0.5,6.7,1.6c1.8,1.2,2.7,3,2.7,5.3c0,1.5-0.5,2.9-1.4,3.9
			c-0.2,0.3-0.5,0.5-0.7,0.7c0.5,0.3,1,0.7,1.4,1.2c1,1.1,1.6,2.5,1.6,4.2c0,2.6-1,4.7-3,6.1C709.6,35.1,707.1,35.7,703.7,35.7
			L703.7,35.7z M702.4,16.1c0.5,0.6,0.7,1.4,0.7,2.2c0,0.6-0.1,1.2-0.3,1.7c1.4-0.1,2.1-0.4,2.4-0.7c0.4-0.3,0.5-0.7,0.5-1.2
			c0-0.6-0.2-1-0.6-1.4c-0.5-0.4-1.3-0.7-2.3-0.7C702.6,16.1,702.5,16.1,702.4,16.1L702.4,16.1z"/>
		<path class="st3" d="M676.3,23.3c0-3.4,0.8-6.1,2.4-8.2c1.6-2.1,3.8-3.1,6.4-3.1c2.6,0,4.8,1,6.4,3.1c1.6,2.1,2.4,4.8,2.4,8.2
			c0,3.4-0.8,6.1-2.4,8.1c-1.6,2.1-3.8,3.1-6.4,3.1c-2.6,0-4.8-1-6.4-3.1C677.1,29.4,676.3,26.6,676.3,23.3z M681.9,23.3
			c0,2.9,0.3,5,0.8,6.2c0.5,1.3,1.3,1.9,2.4,1.9c1.1,0,1.9-0.6,2.4-1.9c0.5-1.3,0.8-3.4,0.8-6.2c0-2.9-0.3-5-0.7-6.3
			c-0.5-1.3-1.3-1.9-2.4-1.9c-1.1,0-1.9,0.6-2.4,1.9C682.2,18.3,681.9,20.4,681.9,23.3z M702.7,24.2v-2.9c1.3-0.1,2.3-0.4,3-0.9
			c0.7-0.5,1-1.3,1-2.2c0-1-0.3-1.8-1.1-2.4c-0.7-0.6-1.7-0.9-2.9-0.9c-0.7,0-1.3,0.1-1.8,0.3c-0.5,0.2-1,0.5-1.4,0.9h0.3
			c0.7,0,1.2,0.2,1.7,0.6c0.4,0.4,0.6,1,0.6,1.7c0,0.8-0.3,1.5-0.8,2c-0.5,0.5-1.2,0.7-2.1,0.7c-0.9,0-1.7-0.3-2.2-0.9
			c-0.5-0.6-0.8-1.4-0.8-2.4c0-1.8,0.7-3.2,2.1-4.2c1.4-1.1,3.4-1.6,5.8-1.6c2.7,0,4.8,0.5,6.3,1.5c1.5,1,2.2,2.4,2.2,4.2
			c0,1.2-0.4,2.2-1.1,3c-0.7,0.8-1.8,1.3-3.1,1.6c1.7,0.5,2.9,1.1,3.8,2c0.8,0.9,1.2,2,1.2,3.4c0,2.2-0.8,3.9-2.5,5
			c-1.6,1.2-4.1,1.7-7.2,1.7c-2.5,0-4.5-0.5-6-1.6c-1.5-1-2.2-2.5-2.2-4.2c0-1.1,0.3-2,0.9-2.7c0.6-0.7,1.4-1,2.4-1
			c0.8,0,1.5,0.3,2.1,0.8c0.6,0.6,0.8,1.2,0.8,2.1c0,0.8-0.2,1.4-0.7,1.9c-0.5,0.5-1.1,0.7-1.9,0.7c0.5,0.4,1,0.7,1.6,0.9
			c0.6,0.2,1.3,0.3,2,0.3c1.4,0,2.5-0.3,3.2-1c0.7-0.7,1.1-1.7,1.1-2.9c0-1.2-0.4-2-1.1-2.5C705.3,24.4,704.2,24.2,702.7,24.2z"/>
		<path class="st30" d="M701.1,17.5l0.3-0.4c0.3,0.3,0.4,0.7,0.4,1.3c0,0.7-0.2,1.3-0.7,1.8c-0.5,0.5-1.1,0.7-1.9,0.7
			c-0.9,0-1.6-0.3-2.1-0.8l0.4-0.4c0.4,0.4,1,0.6,1.7,0.6c0.7,0,1.2-0.2,1.6-0.6c0.3-0.3,0.5-0.7,0.5-1.3
			C701.3,18,701.3,17.7,701.1,17.5z M711.9,17.7c0,1-0.3,1.7-0.9,2.4c-0.6,0.7-1.5,1.2-2.7,1.4c-0.3,0.1-0.6,0.4-0.6,0.8
			c0,0.3,0.1,0.5,0.2,0.7l0.3-0.4c-0.1-0.1-0.1-0.1-0.1-0.2c0-0.1,0.1-0.3,0.2-0.3c1.3-0.2,2.3-0.7,2.9-1.5c0.7-0.8,1-1.7,1-2.8
			c0-1.2-0.4-2.2-1.1-3.1l-0.3,0.4C711.6,15.8,711.9,16.7,711.9,17.7z M706.5,24.2c-0.7-0.5-1.7-0.8-3-0.9l0,0l-0.5,0.6l0,0
			c1.4,0,2.5,0.3,3.3,0.8c0.2,0.1,0.3,0.3,0.5,0.4l0.3-0.4C706.8,24.6,706.7,24.4,706.5,24.2z M701.1,27.8c0,0.5-0.1,0.9-0.4,1.2
			c-0.3,0.3-0.8,0.5-1.5,0.5c-0.3,0-0.6,0.3-0.7,0.6c-0.1,0.3,0,0.6,0.2,0.9l0.3-0.4c0-0.1-0.1-0.2,0-0.3c0-0.1,0.1-0.2,0.2-0.2
			c0.8,0,1.4-0.2,1.8-0.6c0.4-0.4,0.6-0.9,0.6-1.6c0-0.7-0.2-1.2-0.6-1.7l-0.4,0.4C701,26.9,701.1,27.3,701.1,27.8z M712.3,24.9
			l-0.3,0.4c0.5,0.7,0.8,1.5,0.8,2.5c0,1.9-0.7,3.3-2.1,4.3c-1.5,1.1-3.8,1.6-6.9,1.6c-2.4,0-4.3-0.5-5.6-1.4
			c-0.4-0.3-0.7-0.6-1-0.9l-0.3,0.4c0.3,0.4,0.6,0.7,1.1,1c1.4,1,3.4,1.5,5.8,1.5c3.1,0,5.5-0.6,7.1-1.7c1.6-1.1,2.4-2.7,2.4-4.8
			C713.2,26.6,712.9,25.6,712.3,24.9z M706,15c-0.8-0.7-1.9-1-3.3-1c-0.7,0-1.4,0.1-2,0.3c-0.6,0.2-1.2,0.6-1.7,1.1
			c-0.2,0.2-0.3,0.6-0.2,1c0,0.1,0.1,0.2,0.2,0.3l0.3-0.4c0,0,0-0.1-0.1-0.1c0-0.1,0-0.2,0.1-0.3c0.5-0.4,1-0.8,1.5-1
			c0.5-0.2,1.2-0.3,1.9-0.3c1.3,0,2.3,0.3,3,0.9c0.2,0.1,0.3,0.3,0.4,0.4l0.3-0.4C706.4,15.3,706.2,15.2,706,15z M683.1,30.7
			l-0.3,0.4c-0.3-0.3-0.5-0.7-0.7-1.2c-0.6-1.4-0.8-3.6-0.8-6.7c0-3.1,0.3-5.2,0.8-6.7c0.6-1.6,1.7-2.4,3.1-2.4
			c0.9,0,1.7,0.4,2.3,1.2l-0.3,0.4c-0.5-0.6-1.2-1-2-1c-1.2,0-2.1,0.7-2.6,2.1c-0.5,1.3-0.8,3.4-0.8,6.4c0,3,0.3,5,0.8,6.4
			C682.6,30,682.8,30.4,683.1,30.7z M691.5,15.4l-0.3,0.4c1.4,1.9,2.1,4.3,2.1,7.4c0,3.1-0.8,5.6-2.2,7.5c-1.5,1.9-3.5,2.8-5.9,2.8
			c-2.4,0-4.4-0.9-5.9-2.8v0l-0.3,0.4c0,0,0,0,0,0c1.6,2,3.7,3,6.2,3c2.6,0,4.7-1,6.3-3c1.6-2,2.4-4.6,2.4-7.9
			C693.7,20,693,17.4,691.5,15.4z"/>
	</g>
	<g>
		<path id="Path_1554_9_" class="st31" d="M176.7,221.3c0,6.7-5.4,12.1-12.1,12.1s-12.1-5.4-12.1-12.1s5.4-12.1,12.1-12.1
			S176.7,214.6,176.7,221.3z"/>
		<g id="Group_1434_9_" transform="translate(4.574 4.222)">
			<g id="arrow_9_" transform="translate(4.574 0)">
				<path id="arrow-2_9_" class="st2" d="M155.5,224.4c-0.3,0-0.7-0.1-0.9-0.4l-5.3-5.1c-0.5-0.5-0.5-1.2-0.1-1.7
					c0,0,0.1-0.1,0.1-0.1c0.5-0.5,1.3-0.5,1.8,0c0,0,0,0,0,0l4.4,4.2l4.4-4.2c0.5-0.5,1.3-0.5,1.8,0c0,0,0,0,0,0
					c0.5,0.5,0.5,1.2,0.1,1.7c0,0,0,0.1-0.1,0.1l-5.3,5.1C156.2,224.2,155.9,224.4,155.5,224.4z"/>
			</g>
			<path id="Path_1968_9_" class="st32" d="M160,221.6v-10.8"/>
		</g>
	</g>
	<g>
		<path id="Path_1554_5_" class="st31" d="M176.7,467.4c0,6.7-5.4,12.1-12.1,12.1s-12.1-5.4-12.1-12.1c0-6.7,5.4-12.1,12.1-12.1
			S176.7,460.8,176.7,467.4z"/>
		<g id="Group_1434_5_" transform="translate(4.574 4.222)">
			<g id="arrow_5_" transform="translate(4.574 0)">
				<path id="arrow-2_5_" class="st2" d="M155.5,470.5c-0.3,0-0.7-0.1-0.9-0.4l-5.3-5.1c-0.5-0.5-0.5-1.2-0.1-1.7
					c0,0,0.1-0.1,0.1-0.1c0.5-0.5,1.3-0.5,1.8,0c0,0,0,0,0,0l4.4,4.2l4.4-4.2c0.5-0.5,1.3-0.5,1.8,0c0,0,0,0,0,0
					c0.5,0.5,0.5,1.2,0.1,1.7c0,0,0,0.1-0.1,0.1l-5.3,5.1C156.2,470.4,155.9,470.5,155.5,470.5z"/>
			</g>
			<path id="Path_1968_5_" class="st32" d="M160,467.7v-10.8"/>
		</g>
	</g>
	<line class="st29" x1="34.3" y1="136.5" x2="34.3" y2="170.9"/>
	<g>
		<g>
			<circle class="st3" cx="34.9" cy="559" r="12.1"/>
		</g>
		<g>
			<path class="st2" d="M37.5,555.7c-0.3,0-0.6-0.3-0.6-0.6v-4h-6.2c-0.9,0-1.6,0.7-1.6,1.6v12.6c0,0.9,0.7,1.6,1.6,1.6h9.2
				c0.9,0,1.6-0.7,1.6-1.6v-9.6H37.5z"/>
		</g>
		<path class="st30" d="M37.4,555.7h4l-4.6-4.6v4C36.9,555.4,37.1,555.7,37.4,555.7z"/>
		<polygon class="st11" points="41.5,559 41.5,555.7 37.5,555.7 		"/>
	</g>
	<g>
		<g>
			<circle class="st3" cx="34.3" cy="140.4" r="12.1"/>
		</g>
		<g>
			<path class="st2" d="M36.8,137.1c-0.3,0-0.6-0.3-0.6-0.6v-4H30c-0.9,0-1.6,0.7-1.6,1.6v12.6c0,0.9,0.7,1.6,1.6,1.6h9.2
				c0.9,0,1.6-0.7,1.6-1.6v-9.6H36.8z"/>
		</g>
		<path class="st30" d="M36.8,137.1h4l-4.6-4.6v4C36.2,136.9,36.5,137.1,36.8,137.1z"/>
		<polygon class="st11" points="40.8,140.4 40.8,137.2 36.8,137.2 		"/>
	</g>
	<line class="st29" x1="34.3" y1="306.4" x2="34.3" y2="378.1"/>
	<g>
		<g id="g56755_4_" transform="matrix(14,0,0,14,49637.042,519374.88)">
			<path id="path56757_4_" class="st34" d="M-3542.2-37069.9c0,0.5-0.4,0.9-0.9,0.9l0,0c-0.5,0-0.9-0.4-0.9-0.9l0,0
				c0-0.5,0.4-0.9,0.9-0.9l0,0C-3542.6-37070.8-3542.2-37070.4-3542.2-37069.9L-3542.2-37069.9z"/>
		</g>
		<path id="path53460_4_" class="st35" d="M40,390.8c-3.4,1.6-5.1,5-6.7,8l-2.3-2.3c-1.2,0.9-2.4,1.5-3.5,2.2l9.5,9.5
			c5.3-1.2,9.1-5.7,9.4-11.1L40,390.8z"/>
		<path id="path38606_4_" class="st2" d="M31,396.6c0.7,0.9,1.2,2,1.8,3.3c1.7-3.3,3.5-7.2,7.2-9c-0.4,1.5-0.6,3.4-0.1,5
			c-3.1,1.6-5.1,4.5-7.1,7.4c-1.9-2.6-3.5-3.5-5.4-4.4C28.6,398.2,29.8,397.5,31,396.6L31,396.6z"/>
	</g>
	<line class="st29" x1="395.2" y1="211.6" x2="395.2" y2="346.3"/>
	<line class="st29" x1="395.2" y1="160.1" x2="395.2" y2="171.2"/>
	<g>
		<path class="st33" d="M406.6,373.3c0.5-0.9-0.4-2.3-0.1-3.3c0.3-0.9,1.7-1.8,1.7-2.8c0-1-1.5-1.8-1.7-2.8c-0.3-1,0.6-2.4,0.1-3.3
			c-0.5-0.9-2.2-0.8-2.9-1.5c-0.7-0.7-0.7-2.4-1.5-2.9c-0.9-0.5-2.3,0.4-3.3,0.1c-0.9-0.3-1.8-1.7-2.8-1.7c-1,0-1.8,1.5-2.8,1.7
			c-1,0.3-2.4-0.6-3.3-0.1c-0.9,0.5-0.8,2.2-1.5,2.9c-0.7,0.7-2.4,0.7-2.9,1.5c-0.5,0.9,0.4,2.3,0.1,3.3c-0.3,0.9-1.7,1.8-1.7,2.8
			c0,1,1.5,1.8,1.7,2.8c0.3,1-0.6,2.4-0.1,3.3c0.5,0.9,2.2,0.8,2.9,1.5c0.5,0.5,0.6,1.3,0.9,2l-3.9,8.1l5.2-1.3l2.7,4.6l2.7-7.2
			l2.7,7.2l2.7-4.6l5.2,1.3l-3.9-8.1c0.3-0.7,0.4-1.6,0.9-2C404.4,374.1,406.1,374.2,406.6,373.3z"/>
		<g>
			<g>
				<polygon class="st13" points="391.6,386.7 388.9,382 383.7,383.3 390.7,368.7 397.3,371.5 				"/>
				<polygon class="st13" points="397,386.7 399.7,382 404.9,383.3 397.9,368.7 391.3,371.5 				"/>
			</g>
			<path class="st34" d="M406.4,365.6c0,1-1.5,1.8-1.7,2.8c-0.3,1,0.6,2.4,0.1,3.3c-0.5,0.9-2.2,0.8-2.9,1.5s-0.7,2.4-1.5,2.9
				c-0.9,0.5-2.3-0.4-3.3-0.1c-0.9,0.3-1.8,1.7-2.8,1.7c-1,0-1.8-1.5-2.8-1.7c-1-0.3-2.4,0.6-3.3,0.1c-0.9-0.5-0.8-2.2-1.5-2.9
				c-0.7-0.7-2.4-0.7-2.9-1.5c-0.5-0.9,0.4-2.3,0.1-3.3c-0.3-0.9-1.7-1.8-1.7-2.8c0-1,1.5-1.8,1.7-2.8c0.3-1-0.6-2.4-0.1-3.3
				c0.5-0.9,2.2-0.8,2.9-1.5c0.7-0.7,0.7-2.4,1.5-2.9c0.9-0.5,2.3,0.4,3.3,0.1c0.9-0.3,1.8-1.7,2.8-1.7c1,0,1.8,1.5,2.8,1.7
				c1,0.3,2.4-0.6,3.3-0.1c0.9,0.5,0.8,2.2,1.5,2.9c0.7,0.7,2.4,0.7,2.9,1.5c0.5,0.9-0.4,2.3-0.1,3.3
				C404.9,363.7,406.4,364.5,406.4,365.6z"/>
			<g>
				<path class="st11" d="M401.2,365.6c0,3.8-3.1,6.9-6.9,6.9c-3.8,0-6.9-3.1-6.9-6.9c0-3.8,3.1-6.9,6.9-6.9
					C398.1,358.7,401.2,361.8,401.2,365.6"/>
				<path class="st2" d="M400,365.6c0,3.1-2.5,5.7-5.7,5.7c-3.1,0-5.7-2.5-5.7-5.7s2.5-5.7,5.7-5.7C397.4,359.9,400,362.4,400,365.6
					"/>
			</g>
		</g>
	</g>
	<g>
		<path class="st33" d="M408.9,194.8c0-1.5,0-1.6,0-3.1l-2.8-1c-0.4-0.9-0.6-1.4-0.9-2.3l1.3-2.7c-1.1-1.1-1.1-1.1-2.2-2.2l-2.7,1.2
			c-0.9-0.4-1.4-0.6-2.2-1l-1-2.8c-1.5,0-1.6,0-3.1,0l-1,2.8c-0.9,0.4-1.4,0.6-2.3,0.9l-2.7-1.3c-1.1,1.1-1.1,1.1-2.2,2.2l1.2,2.7
			c-0.4,0.9-0.6,1.4-1,2.2l-2.8,1c0,1.5,0,1.6,0,3.1l2.8,1c0.4,0.9,0.6,1.4,0.9,2.3l-1.3,2.7c1.1,1.1,1.1,1.1,2.2,2.2l2.7-1.2
			c0.9,0.4,1.4,0.6,2.2,1l1,2.8c1.5,0,1.6,0,3.1,0l1-2.8c0.9-0.4,1.4-0.6,2.3-0.9l2.7,1.3c1.1-1.1,1.1-1.1,2.2-2.2l-1.2-2.7
			c0.4-0.9,0.6-1.4,1-2.2L408.9,194.8z M396.8,197.9c-2.6,0-4.7-2.1-4.7-4.7c0-2.6,2.1-4.7,4.7-4.7c2.6,0,4.7,2.1,4.7,4.7
			C401.5,195.8,399.4,197.9,396.8,197.9z"/>
		<path class="st34" d="M407.4,193.8c0-1.5,0-1.6,0-3.1l-2.8-1c-0.4-0.9-0.6-1.4-0.9-2.3l1.3-2.7c-1.1-1.1-1.1-1.1-2.2-2.2l-2.7,1.2
			c-0.9-0.4-1.4-0.6-2.2-1l-1-2.8c-1.5,0-1.6,0-3.1,0l-1,2.8c-0.9,0.4-1.4,0.6-2.3,0.9l-2.7-1.3c-1.1,1.1-1.1,1.1-2.2,2.2l1.2,2.7
			c-0.4,0.9-0.6,1.4-1,2.2l-2.8,1c0,1.5,0,1.6,0,3.1l2.8,1c0.4,0.9,0.6,1.4,0.9,2.3l-1.3,2.7c1.1,1.1,1.1,1.1,2.2,2.2l2.7-1.2
			c0.9,0.4,1.4,0.6,2.2,1l1,2.8c1.5,0,1.6,0,3.1,0l1-2.8c0.9-0.4,1.4-0.6,2.3-0.9l2.7,1.3c1.1-1.1,1.1-1.1,2.2-2.2l-1.2-2.7
			c0.4-0.9,0.6-1.4,1-2.2L407.4,193.8z M395.4,196.9c-2.6,0-4.7-2.1-4.7-4.7c0-2.6,2.1-4.7,4.7-4.7c2.6,0,4.7,2.1,4.7,4.7
			C400.1,194.7,398,196.9,395.4,196.9z"/>
	</g>
</g>
</svg>
