<?xml version="1.0" encoding="utf-8"?>
<!-- Generator: Adobe Illustrator 24.2.3, SVG Export Plug-In . SVG Version: 6.00 Build 0)  -->
<svg version="1.1" xmlns="http://www.w3.org/2000/svg" xmlns:xlink="http://www.w3.org/1999/xlink" x="0px" y="0px"
	 viewBox="0 0 968 581.6" style="enable-background:new 0 0 968 581.6;" xml:space="preserve">
<style type="text/css">
	.st0{fill:#FFFFFF;}
	.st1{fill:#0A90B7;}
	.st2{fill:#1294C2;}
	.st3{fill:#F2F2F2;}
	.st4{fill:none;}
	.st5{fill:#0A90B7;stroke:#0A90B7;stroke-width:0.25;stroke-miterlimit:10;}
	.st6{font-family:'Muli-Black';}
	.st7{font-size:16px;}
	.st8{fill:#444444;}
	.st9{font-family:'Muli-Light';}
	.st10{letter-spacing:17;}
	.st11{letter-spacing:25;}
	.st12{font-family:'Montserrat-Medium';}
	.st13{font-size:18px;}
	.st14{font-family:'Muli-LightItalic';}
	.st15{font-size:14px;}
	.st16{font-family:'Montserrat-SemiBold';}
	.st17{font-size:17.5px;}
	.st18{fill:none;stroke:#757575;stroke-width:0.25;stroke-miterlimit:10;}
	.st19{fill:none;stroke:#0A90B7;stroke-width:0.75;stroke-miterlimit:10;}
	.st20{fill:#757575;}
	.st21{fill:none;stroke:#FFFFFF;stroke-width:2;stroke-linecap:round;}
	.st22{fill:#A6D7E5;}
	.st23{fill:#D8D8D8;}
	.st24{fill:#A00A0F;}
	.st25{fill:#C71F25;}
	.st26{opacity:0.1;enable-background:new    ;}
</style>
<g id="Shapes">
	<path id="Path_7616_2_" class="st1" d="M636.4,46.5H378.7V0h257.6l10.2,23.3L636.4,46.5z"/>
	<path id="Path_7616_3_" class="st1" d="M289.6,46.5H57V0h232.6l10.2,23.3L289.6,46.5z"/>
	<rect x="321.9" class="st0" width="56.9" height="46.5"/>
	<rect x="664.5" class="st0" width="56.9" height="46.5"/>
	<rect x="0.1" class="st0" width="56.9" height="46.5"/>
	<g>
		<polygon class="st1" points="725,3.3 725,43.3 907.9,43.3 907.9,41.6 907.9,37.8 919.9,45 907.9,52.3 907.9,46.6 721.6,46.6 
			721.6,0 744.8,0 956.7,0 966.9,23.3 956.7,46.6 927.7,46.6 927.7,43.3 954.2,43.3 954.7,42.3 962.2,24 962.6,23.3 962.2,22.7 
			954.7,4.3 954.2,3.3 		"/>
	</g>
</g>
<g id="background">
	<rect x="0" y="367.4" class="st0" width="289.3" height="200.8"/>
	<rect x="322.9" y="233.8" class="st0" width="314.2" height="347.8"/>
	<rect x="0" y="70" class="st0" width="289.3" height="251.1"/>
	<rect x="664.6" y="70" class="st0" width="293.6" height="154.6"/>
	<rect x="322.8" y="70" class="st0" width="314.4" height="116.8"/>
</g>
<g id="text">
	<g>
		<rect x="352.3" y="291.2" class="st4" width="257.3" height="268.1"/>
		<text transform="matrix(1 0 0 1 352.2642 304.8948)"><tspan x="0" y="0" class="st5 st6 st7">•</tspan><tspan x="8.5" y="0" class="st8 st9 st7 st10">	</tspan><tspan x="30" y="0" class="st8 st9 st7">Agency Review of Security </tspan><tspan x="30" y="20" class="st8 st9 st7">Authorization Package</tspan><tspan x="0" y="50" class="st5 st6 st7">•</tspan><tspan x="8.5" y="50" class="st8 st9 st7 st10">	</tspan><tspan x="30" y="50" class="st8 st9 st7">SAR Debrief</tspan><tspan x="0" y="80" class="st5 st6 st7">•</tspan><tspan x="8.5" y="80" class="st8 st9 st7 st10">	</tspan><tspan x="30" y="80" class="st8 st9 st7">Remediation</tspan><tspan x="0" y="110" class="st5 st6 st7">•</tspan><tspan x="8.5" y="110" class="st8 st9 st7 st10">	</tspan><tspan x="30" y="110" class="st8 st9 st7">Agency Final Review</tspan><tspan x="0" y="140" class="st5 st6 st7">•</tspan><tspan x="8.5" y="140" class="st8 st9 st7 st10">	</tspan><tspan x="30" y="140" class="st8 st9 st7">Agency Issues ATO</tspan><tspan x="0" y="170" class="st5 st6 st7">•</tspan><tspan x="8.5" y="170" class="st8 st9 st7 st10">	</tspan><tspan x="30" y="170" class="st8 st9 st7">FedRAMP PMO Review</tspan><tspan x="0" y="200" class="st5 st6 st7">•</tspan><tspan x="8.5" y="200" class="st8 st9 st7 st10">	</tspan><tspan x="30" y="200" class="st8 st9 st7">Remediation (if needed)</tspan><tspan x="0" y="230" class="st8 st9 st7 st11">	</tspan><tspan x="30" y="230" class="st8 st9 st7">FedRAMP Marketplace </tspan><tspan x="30" y="250" class="st8 st9 st7">Designation - Authorized</tspan></text>
	</g>
	<g>
		<rect x="30.5" y="419.5" class="st4" width="253.5" height="128.1"/>
		<text transform="matrix(1 0 0 1 30.4641 433.1516)"><tspan x="0" y="0" class="st5 st6 st7">•</tspan><tspan x="8.5" y="0" class="st8 st9 st7 st10">	</tspan><tspan x="30" y="0" class="st8 st9 st7">Partnership Establishment</tspan><tspan x="0" y="30" class="st5 st6 st7">•</tspan><tspan x="8.5" y="30" class="st8 st9 st7 st10">	</tspan><tspan x="30" y="30" class="st8 st9 st7">Authorization Planning</tspan><tspan x="0" y="60" class="st5 st6 st7">•</tspan><tspan x="8.5" y="60" class="st8 st9 st7 st10">	</tspan><tspan x="30" y="60" class="st8 st9 st7">Kick-off Meeting</tspan><tspan x="0" y="90" class="st8 st9 st7 st11">	</tspan><tspan x="30" y="90" class="st8 st9 st7">FedRAMP Marketplace </tspan><tspan x="30" y="110" class="st8 st9 st7">Designation – In Process</tspan></text>
	</g>
	<g>
		<rect x="352.3" y="128.9" class="st4" width="262.9" height="36.1"/>
		<text transform="matrix(1 0 0 1 352.2637 140.7178)"><tspan x="0" y="0" class="st8 st9 st7 st11">	</tspan><tspan x="30" y="0" class="st8 st9 st7">Security Authorization Package </tspan><tspan x="30" y="20" class="st8 st9 st7">(SSP, SAP, SAR, POA&amp;M)*</tspan></text>
	</g>
	<g>
		<rect x="30.5" y="150.4" class="st4" width="218.9" height="148.1"/>
		<text transform="matrix(1 0 0 1 30.4641 164.0571)"><tspan x="0" y="0" class="st8 st9 st7 st11">	</tspan><tspan x="30" y="0" class="st8 st9 st7">RAR Development</tspan><tspan x="0" y="30" class="st5 st6 st7">•</tspan><tspan x="8.5" y="30" class="st8 st9 st7 st10">	</tspan><tspan x="30" y="30" class="st8 st9 st7">FedRAMP PMO Review </tspan><tspan x="30" y="50" class="st8 st9 st7">of RAR</tspan><tspan x="0" y="80" class="st5 st6 st7">•</tspan><tspan x="8.5" y="80" class="st8 st9 st7 st10">	</tspan><tspan x="30" y="80" class="st8 st9 st7">Remediation (if needed)</tspan><tspan x="0" y="110" class="st8 st9 st7 st11">	</tspan><tspan x="30" y="110" class="st8 st9 st7">FedRAMP Marketplace </tspan><tspan x="30" y="130" class="st8 st9 st7">Designation – Ready</tspan></text>
	</g>
	<g>
		<rect x="689.9" y="91.8" class="st4" width="239.3" height="20"/>
		<text transform="matrix(1 0 0 1 689.854 107.0744)" class="st1 st12 st13">Post Authorization</text>
	</g>
	<g>
		<rect x="699.1" y="129" class="st4" width="253.9" height="68.1"/>
		<text transform="matrix(1 0 0 1 699.1097 142.6841)"><tspan x="0" y="0" class="st8 st9 st7 st11">	</tspan><tspan x="30" y="0" class="st8 st9 st7">Ongoing Continuous </tspan><tspan x="30" y="20" class="st8 st9 st7">Monitoring Deliverables</tspan><tspan x="0" y="50" class="st8 st9 st7 st11">	</tspan><tspan x="30" y="50" class="st8 st9 st7">Annual Assessment</tspan></text>
	</g>
	<g>
		<text transform="matrix(1 0 0 1 22.4216 402.5578)" class="st1 st12 st13">Pre-Authorization</text>
	</g>
	<g>
		<text transform="matrix(1 0 0 1 22.422 107.0745)" class="st1 st12 st13">Readiness Assessment</text>
	</g>
	<g>
		<text transform="matrix(1 0 0 1 344.1334 107.0745)" class="st1 st12 st13">Full Security Assessment</text>
	</g>
	<g>
		<text transform="matrix(0.98 0 0 1 344.1525 271.1248)" class="st1 st12 st13">Agency Authorization Process</text>
	</g>
	<g>
		<rect x="686.3" y="454.4" class="st4" width="242.8" height="105.8"/>
		<text transform="matrix(1 0 0 1 686.3167 466.3883)"><tspan x="0" y="0" class="st8 st14 st15">* The full security assessment may  </tspan><tspan x="9.7" y="18" class="st8 st14 st15">be prepared in advance of the </tspan><tspan x="9.7" y="36" class="st8 st14 st15">authorization phase, or completed </tspan><tspan x="9.7" y="54" class="st8 st14 st15">during the authorization phase. This </tspan><tspan x="9.7" y="72" class="st8 st14 st15">is dependent on the agency&apos;s review </tspan><tspan x="9.7" y="90" class="st8 st14 st15">approach.</tspan></text>
	</g>
	<text transform="matrix(1 0 0 1 73.7183 29.728)" class="st0 st16 st13">Preparation</text>
	<text transform="matrix(1 0 0 1 396.8252 29.728)" class="st0 st16 st13">Authorization</text>
	<text transform="matrix(1 0 0 1 736.8417 29.728)" class="st1 st16 st17">Continuous Monitoring</text>
	<text transform="matrix(1 0 0 1 22.4216 128.6319)" class="st8 st14 st15">(Optional, but highly recommended)</text>
</g>
<g id="Graphics">
	<line class="st19" x1="702.4" y1="135.1" x2="702.4" y2="181"/>
	<g>
		<path id="Path_1554_5_" class="st20" d="M156.8,345.8c0,6.7-5.4,12.1-12.1,12.1s-12.1-5.4-12.1-12.1c0-6.7,5.4-12.1,12.1-12.1
			S156.8,339.1,156.8,345.8z"/>
		<g id="Group_1434_5_" transform="translate(4.574 4.222)">
			<g id="arrow_5_" transform="translate(4.574 0)">
				<path id="arrow-2_5_" class="st0" d="M135.6,348.8c-0.3,0-0.7-0.1-0.9-0.4l-5.3-5.1c-0.5-0.5-0.5-1.2-0.1-1.7
					c0,0,0.1-0.1,0.1-0.1c0.5-0.5,1.3-0.5,1.8,0c0,0,0,0,0,0l4.4,4.2l4.4-4.2c0.5-0.5,1.3-0.5,1.8,0c0,0,0,0,0,0
					c0.5,0.5,0.5,1.2,0.1,1.7c0,0,0,0.1-0.1,0.1l-5.3,5.1C136.3,348.7,136,348.8,135.6,348.8z"/>
			</g>
			<path id="Path_1968_5_" class="st21" d="M140.1,346v-10.8"/>
		</g>
	</g>
	<g>
		<path id="Path_1554_3_" class="st20" d="M492.1,211.8c0,6.7-5.4,12.1-12.1,12.1c-6.7,0-12.1-5.4-12.1-12.1s5.4-12.1,12.1-12.1
			C486.7,199.6,492.1,205.1,492.1,211.8z"/>
		<g id="Group_1434_3_" transform="translate(4.574 4.222)">
			<g id="arrow_3_" transform="translate(4.574 0)">
				<path id="arrow-2_3_" class="st0" d="M471,214.8c-0.3,0-0.7-0.1-0.9-0.4l-5.3-5.1c-0.5-0.5-0.5-1.2-0.1-1.7c0,0,0.1-0.1,0.1-0.1
					c0.5-0.5,1.3-0.5,1.8,0c0,0,0,0,0,0l4.4,4.2l4.4-4.2c0.5-0.5,1.3-0.5,1.8,0c0,0,0,0,0,0c0.5,0.5,0.5,1.2,0.1,1.7
					c0,0,0,0.1-0.1,0.1l-5.3,5.1C471.6,214.7,471.3,214.8,471,214.8z"/>
			</g>
			<path id="Path_1968_3_" class="st21" d="M475.4,212v-10.8"/>
		</g>
	</g>
	<line class="st19" x1="34.2" y1="158.5" x2="34.2" y2="258.2"/>
	<g>
		<g>
			<circle class="st1" cx="702" cy="137.4" r="12.1"/>
		</g>
		<g>
			<path class="st0" d="M704.5,134.1c-0.3,0-0.6-0.3-0.6-0.6v-4h-6.2c-0.9,0-1.6,0.7-1.6,1.6v12.6c0,0.9,0.7,1.6,1.6,1.6h9.2
				c0.9,0,1.6-0.7,1.6-1.6v-9.6H704.5z"/>
		</g>
		<path class="st22" d="M704.5,134.1h4l-4.6-4.6v4C703.9,133.9,704.1,134.1,704.5,134.1z"/>
		<polygon class="st3" points="708.5,137.4 708.5,134.2 704.5,134.2 		"/>
	</g>
	<g>
		<g>
			<circle class="st1" cx="356.3" cy="137.4" r="12.1"/>
		</g>
		<g>
			<path class="st0" d="M358.8,134.1c-0.3,0-0.6-0.3-0.6-0.6v-4H352c-0.9,0-1.6,0.7-1.6,1.6v12.6c0,0.9,0.7,1.6,1.6,1.6h9.2
				c0.9,0,1.6-0.7,1.6-1.6v-9.6H358.8z"/>
		</g>
		<path class="st22" d="M358.8,134.1h4l-4.6-4.6v4C358.2,133.9,358.5,134.1,358.8,134.1z"/>
		<polygon class="st3" points="362.8,137.4 362.8,134.2 358.8,134.2 		"/>
	</g>
	<g>
		<g>
			<circle class="st1" cx="34.2" cy="158.5" r="12.1"/>
		</g>
		<g>
			<path class="st0" d="M36.7,155.3c-0.3,0-0.6-0.3-0.6-0.6v-4h-6.2c-0.9,0-1.6,0.7-1.6,1.6v12.6c0,0.9,0.7,1.6,1.6,1.6h9.2
				c0.9,0,1.6-0.7,1.6-1.6v-9.6H36.7z"/>
		</g>
		<path class="st22" d="M36.6,155.3h4l-4.6-4.6v4C36.1,155,36.3,155.2,36.6,155.3z"/>
		<polygon class="st3" points="40.7,158.5 40.7,155.3 36.7,155.3 		"/>
	</g>
	<g>
		<g>
			<circle class="st1" cx="702" cy="188.2" r="12.1"/>
		</g>
		<g>
			<path class="st0" d="M704.5,185c-0.3,0-0.6-0.3-0.6-0.6v-4h-6.2c-0.9,0-1.6,0.7-1.6,1.6v12.6c0,0.9,0.7,1.6,1.6,1.6h9.2
				c0.9,0,1.6-0.7,1.6-1.6V185H704.5z"/>
		</g>
		<path class="st22" d="M704.5,185h4l-4.6-4.6v4C703.9,184.7,704.1,184.9,704.5,185z"/>
		<polygon class="st3" points="708.5,188.2 708.5,185 704.5,185 		"/>
	</g>
	<line class="st19" x1="34.2" y1="426.9" x2="34.2" y2="500.6"/>
	<line class="st19" x1="356.3" y1="299.2" x2="356.3" y2="512.3"/>
	<g>
		<path class="st23" d="M368.5,538.6c0.5-0.9-0.4-2.3-0.1-3.3c0.3-0.9,1.7-1.8,1.7-2.8c0-1-1.5-1.8-1.7-2.8c-0.3-1,0.6-2.4,0.1-3.3
			c-0.5-0.9-2.2-0.8-2.9-1.5c-0.7-0.7-0.7-2.4-1.5-2.9c-0.9-0.5-2.3,0.4-3.3,0.1c-0.9-0.3-1.8-1.7-2.8-1.7c-1,0-1.8,1.5-2.8,1.7
			c-1,0.3-2.4-0.6-3.3-0.1c-0.9,0.5-0.8,2.2-1.5,2.9c-0.7,0.7-2.4,0.7-2.9,1.5c-0.5,0.9,0.4,2.3,0.1,3.3c-0.3,0.9-1.7,1.8-1.7,2.8
			c0,1,1.5,1.8,1.7,2.8c0.3,1-0.6,2.4-0.1,3.3c0.5,0.9,2.2,0.8,2.9,1.5c0.5,0.5,0.6,1.3,0.9,2l-3.9,8.1l5.2-1.3l2.7,4.6l2.7-7.2
			l2.7,7.2l2.7-4.6l5.2,1.3l-3.9-8.1c0.3-0.7,0.4-1.6,0.9-2C366.3,539.4,368,539.5,368.5,538.6z"/>
		<g>
			<g>
				<polygon class="st24" points="353.6,552 350.9,547.3 345.7,548.6 352.7,534 359.2,536.8 				"/>
				<polygon class="st24" points="358.9,552 361.6,547.3 366.8,548.6 359.8,534 353.3,536.8 				"/>
			</g>
			<path class="st25" d="M368.3,530.9c0,1-1.5,1.8-1.7,2.8c-0.3,1,0.6,2.4,0.1,3.3c-0.5,0.9-2.2,0.8-2.9,1.5
				c-0.7,0.7-0.7,2.4-1.5,2.9c-0.9,0.5-2.3-0.4-3.3-0.1c-0.9,0.3-1.8,1.7-2.8,1.7c-1,0-1.8-1.5-2.8-1.7c-1-0.3-2.4,0.6-3.3,0.1
				c-0.9-0.5-0.8-2.2-1.5-2.9c-0.7-0.7-2.4-0.7-2.9-1.5c-0.5-0.9,0.4-2.3,0.1-3.3c-0.3-0.9-1.7-1.8-1.7-2.8s1.5-1.8,1.7-2.8
				c0.3-1-0.6-2.4-0.1-3.3c0.5-0.9,2.2-0.8,2.9-1.5c0.7-0.7,0.7-2.4,1.5-2.9c0.9-0.5,2.3,0.4,3.3,0.1c0.9-0.3,1.8-1.7,2.8-1.7
				c1,0,1.8,1.5,2.8,1.7c1,0.3,2.4-0.6,3.3-0.1c0.9,0.5,0.8,2.2,1.5,2.9c0.7,0.7,2.4,0.7,2.9,1.5c0.5,0.9-0.4,2.3-0.1,3.3
				C366.9,529,368.3,529.9,368.3,530.9z"/>
			<g>
				<path class="st3" d="M363.1,530.9c0,3.8-3.1,6.9-6.9,6.9c-3.8,0-6.9-3.1-6.9-6.9c0-3.8,3.1-6.9,6.9-6.9
					C360,524,363.1,527.1,363.1,530.9"/>
				<path class="st0" d="M361.9,530.9c0,3.1-2.5,5.7-5.7,5.7s-5.7-2.5-5.7-5.7s2.5-5.7,5.7-5.7S361.9,527.7,361.9,530.9"/>
			</g>
		</g>
	</g>
	<g>
		<g id="g56755_3_" transform="matrix(14,0,0,14,49637.042,519374.88)">
			<path id="path56757_3_" class="st25" d="M-3542.2-37078.4c0,0.5-0.4,0.9-0.9,0.9l0,0c-0.5,0-0.9-0.4-0.9-0.9l0,0
				c0-0.5,0.4-0.9,0.9-0.9l0,0C-3542.6-37079.3-3542.2-37078.9-3542.2-37078.4L-3542.2-37078.4z"/>
		</g>
		<path id="path53460_3_" class="st26" d="M39.9,271.1c-3.4,1.6-5.1,5-6.7,8l-2.3-2.3c-1.2,0.9-2.4,1.5-3.5,2.2l9.5,9.5
			c5.3-1.2,9.1-5.7,9.4-11.1L39.9,271.1z"/>
		<path id="path38606_3_" class="st0" d="M30.9,276.9c0.7,0.9,1.2,2,1.8,3.3c1.7-3.3,3.5-7.2,7.2-9c-0.4,1.5-0.6,3.4-0.1,5
			c-3.1,1.6-5.1,4.5-7.1,7.4c-1.9-2.6-3.5-3.5-5.4-4.4C28.5,278.4,29.7,277.7,30.9,276.9L30.9,276.9z"/>
	</g>
	<g>
		<path class="st23" d="M46.9,522.1c0-1.5,0-1.6,0-3.1l-2.8-1c-0.4-0.9-0.6-1.4-0.9-2.3l1.3-2.7c-1.1-1.1-1.1-1.1-2.2-2.2l-2.7,1.2
			c-0.9-0.4-1.4-0.6-2.2-1l-1-2.8c-1.5,0-1.6,0-3.1,0l-1,2.8c-0.9,0.4-1.4,0.6-2.3,0.9l-2.7-1.3c-1.1,1.1-1.1,1.1-2.2,2.2l1.2,2.7
			c-0.4,0.9-0.6,1.4-1,2.2l-2.8,1c0,1.5,0,1.6,0,3.1l2.8,1c0.4,0.9,0.6,1.4,0.9,2.3l-1.3,2.7c1.1,1.1,1.1,1.1,2.2,2.2l2.7-1.2
			c0.9,0.4,1.4,0.6,2.2,1l1,2.8c1.5,0,1.6,0,3.1,0l1-2.8c0.9-0.4,1.4-0.6,2.3-0.9l2.7,1.3c1.1-1.1,1.1-1.1,2.2-2.2l-1.2-2.7
			c0.4-0.9,0.6-1.4,1-2.2L46.9,522.1z M34.9,525.2c-2.6,0-4.7-2.1-4.7-4.7c0-2.6,2.1-4.7,4.7-4.7c2.6,0,4.7,2.1,4.7,4.7
			C39.6,523,37.5,525.2,34.9,525.2z"/>
		<path class="st25" d="M45.5,521.1c0-1.5,0-1.6,0-3.1l-2.8-1c-0.4-0.9-0.6-1.4-0.9-2.3l1.3-2.7c-1.1-1.1-1.1-1.1-2.2-2.2l-2.7,1.2
			c-0.9-0.4-1.4-0.6-2.2-1l-1-2.8c-1.5,0-1.6,0-3.1,0l-1,2.8c-0.9,0.4-1.4,0.6-2.3,0.9l-2.7-1.3c-1.1,1.1-1.1,1.1-2.2,2.2l1.2,2.7
			c-0.4,0.9-0.6,1.4-1,2.2l-2.8,1c0,1.5,0,1.6,0,3.1l2.8,1c0.4,0.9,0.6,1.4,0.9,2.3l-1.3,2.7c1.1,1.1,1.1,1.1,2.2,2.2l2.7-1.2
			c0.9,0.4,1.4,0.6,2.2,1l1,2.8c1.5,0,1.6,0,3.1,0l1-2.8c0.9-0.4,1.4-0.6,2.3-0.9l2.7,1.3c1.1-1.1,1.1-1.1,2.2-2.2l-1.2-2.7
			c0.4-0.9,0.6-1.4,1-2.2L45.5,521.1z M33.4,524.1c-2.6,0-4.7-2.1-4.7-4.7c0-2.6,2.1-4.7,4.7-4.7c2.6,0,4.7,2.1,4.7,4.7
			C38.2,522,36,524.1,33.4,524.1z"/>
	</g>
	<g>
		<path class="st0" d="M362,35c-1,0-2.2-0.3-3.6-0.9l-0.3-0.1l-0.2-0.1c-0.6-0.3-1.1-0.4-1.5-0.6c-0.3-0.1-0.6-0.2-0.9-0.2
			c-0.2,0-0.4,0.1-0.6,0.2c-0.1,0.1-0.3,0.3-0.4,0.5c-0.2,0.4-0.5,0.6-0.8,0.6h-2.5c-0.4,0-0.8-0.4-0.9-0.9c0-0.2,0-0.4-0.1-0.6
			c0-0.2,0-0.4,0-0.7c0-1.4,0.3-2.8,0.8-3.9c0.5-1.2,1.3-2.3,2.4-3.3c0.4-0.3,0.8-0.7,1.3-1.1c-0.1,0-0.3,0-0.4,0
			c-1.2,0-2.2-0.4-2.9-1.3c-0.8-0.9-1.2-2-1.2-3.5c0-2.2,0.9-4.1,2.6-5.6c1.6-1.4,3.7-2.1,6.1-2.1c2.6,0,4.7,0.7,6.3,2
			c1.7,1.4,2.6,3.4,2.6,5.8c0,1.8-0.6,3.4-1.7,4.7c-0.3,0.4-0.7,0.7-1.1,1h2.3c0.5,0,0.9,0.5,0.9,1c0,0.2,0,0.3,0,0.5
			c0,0.2,0,0.4,0,0.8c0,2.5-0.5,4.4-1.6,5.7C365.7,34.4,364.1,35,362,35L362,35z M360.1,27.3c0.4,0.1,0.7,0.1,1.2,0.2
			c1.3,0.3,1.7,0.3,1.8,0.3c0.2,0,0.5,0,0.6-0.2c0.1-0.1,0.2-0.4,0.2-1.5c0-0.1,0-0.2,0-0.3c-0.7,0.4-1.4,0.7-2.2,0.9
			c-0.2,0.1-0.6,0.2-1.1,0.3C360.4,27.2,360.2,27.2,360.1,27.3L360.1,27.3z M356.3,17c0.3,0.1,0.5,0.3,0.8,0.6
			c0.6,0.6,0.9,1.5,0.9,2.5c0,0.8-0.2,1.5-0.6,2.1c0.4-0.2,0.6-0.4,0.8-0.5c1-0.7,1.5-1.2,1.7-1.5c0.2-0.4,0.3-0.8,0.3-1.3
			c0-0.6-0.2-1-0.6-1.4c-0.5-0.4-1.2-0.7-2.1-0.7C357.1,16.8,356.7,16.8,356.3,17L356.3,17z M341.2,35c-2.6,0-4.8-1.1-6.5-3.2
			c-1.7-2.1-2.5-5-2.5-8.5c0-3.5,0.8-6.4,2.5-8.5c1.7-2.2,3.8-3.2,6.5-3.2c2.6,0,4.8,1.1,6.5,3.2c1.7,2.2,2.5,5,2.5,8.5
			c0,3.5-0.8,6.4-2.5,8.5C346,33.9,343.9,35,341.2,35L341.2,35z M341.2,16.7c-0.7,0-1.2,0.4-1.5,1.2c-0.3,0.7-0.6,2.2-0.6,5.4
			c0,3.2,0.3,4.7,0.6,5.4c0.3,0.8,0.8,1.2,1.5,1.2c0.7,0,1.2-0.4,1.5-1.2c0.3-0.7,0.6-2.2,0.6-5.4c0-3.2-0.3-4.7-0.6-5.4
			C342.4,17,342,16.7,341.2,16.7L341.2,16.7z"/>
		<path class="st1" d="M351.2,33.3c0-0.1,0-0.3,0-0.4c0-0.1,0-0.4,0-0.7c0-1.2,0.2-2.4,0.7-3.4c0.5-1,1.2-2,2.2-3
			c0.7-0.7,1.8-1.4,3.3-2.4c0.7-0.4,1.2-0.7,1.5-0.9c0.9-0.6,1.6-1.2,1.9-1.8c0.3-0.6,0.5-1.2,0.5-2c0-0.9-0.3-1.7-1-2.3
			c-0.7-0.6-1.5-0.9-2.6-0.9c-0.9,0-1.6,0.2-2.2,0.6c-0.6,0.4-1,0.9-1.3,1.7c0.2,0,0.3-0.1,0.5-0.1c0.2,0,0.3,0,0.4,0
			c0.6,0,1.1,0.2,1.5,0.6c0.4,0.4,0.6,1,0.6,1.6c0,0.8-0.3,1.4-0.8,1.9c-0.5,0.5-1.2,0.8-2,0.8c-1,0-1.7-0.3-2.3-1
			c-0.6-0.7-0.9-1.5-0.9-2.7c0-1.8,0.7-3.4,2.2-4.6c1.5-1.2,3.4-1.9,5.6-1.9c2.4,0,4.4,0.6,5.8,1.8c1.4,1.2,2.2,2.8,2.2,4.8
			c0,1.5-0.5,2.8-1.4,3.9c-0.9,1.1-2.3,1.9-4.1,2.5c-0.3,0.1-0.6,0.2-1.1,0.3c-3,1-4.9,2.1-5.7,3.3c0.6-0.4,1.2-0.6,1.8-0.8
			c0.6-0.2,1.3-0.3,1.9-0.3c0.7,0,1.6,0.1,2.6,0.4c1,0.2,1.7,0.4,2,0.4c0.6,0,1.1-0.2,1.3-0.6c0.3-0.4,0.4-1.1,0.4-2.2h2.6
			c0,0.2,0,0.3,0,0.5c0,0.2,0,0.4,0,0.7c0,2.2-0.4,3.8-1.3,4.9c-0.9,1.1-2.2,1.6-4.1,1.6c-0.9,0-2-0.3-3.3-0.9
			c-0.2-0.1-0.4-0.2-0.5-0.2c-0.7-0.3-1.2-0.5-1.6-0.6c-0.4-0.1-0.8-0.2-1.1-0.2c-0.4,0-0.8,0.1-1.1,0.3c-0.3,0.2-0.5,0.5-0.7,1
			H351.2z M333.1,23.3c0-3.2,0.8-5.8,2.2-7.7c1.5-1.9,3.5-2.9,5.9-2.9c2.4,0,4.4,1,5.9,2.9c1.5,1.9,2.2,4.5,2.2,7.7
			c0,3.2-0.8,5.8-2.2,7.7c-1.5,1.9-3.5,2.9-5.9,2.9c-2.4,0-4.4-1-5.9-2.9C333.8,29,333.1,26.5,333.1,23.3z M338.3,23.3
			c0,2.7,0.2,4.7,0.7,5.9c0.5,1.2,1.2,1.8,2.2,1.8c1,0,1.8-0.6,2.2-1.8c0.5-1.2,0.7-3.2,0.7-5.9c0-2.7-0.2-4.7-0.7-5.9
			c-0.5-1.2-1.2-1.8-2.2-1.8c-1,0-1.8,0.6-2.2,1.8C338.5,18.6,338.3,20.5,338.3,23.3z"/>
		<path class="st22" d="M339.3,30.3l-0.3,0.4c-0.2-0.3-0.4-0.7-0.6-1.1c-0.5-1.3-0.8-3.4-0.8-6.3c0-2.9,0.3-4.9,0.8-6.3
			c0.6-1.5,1.5-2.3,2.8-2.3c0.9,0,1.6,0.4,2.1,1.1l-0.3,0.4c-0.5-0.6-1.1-0.9-1.8-0.9c-1.1,0-1.9,0.7-2.4,2c-0.5,1.3-0.7,3.2-0.7,6
			c0,2.8,0.2,4.8,0.7,6C339,29.7,339.1,30,339.3,30.3z M347,15.8l-0.3,0.4c1.3,1.8,2,4.1,2,7c0,2.9-0.7,5.3-2.1,7.1
			c-1.4,1.8-3.2,2.7-5.5,2.7c-2.2,0-4.1-0.9-5.4-2.7v0l-0.3,0.4c0,0,0,0,0,0c1.4,1.9,3.4,2.8,5.7,2.8c2.4,0,4.3-1,5.7-2.8
			c1.4-1.9,2.2-4.4,2.2-7.5C349.1,20.2,348.4,17.7,347,15.8z M367.2,26.7c0-0.1,0-0.1,0-0.2l-0.4,0.6c0,0.1,0,0.2,0,0.4
			c0,2-0.4,3.4-1.1,4.3c-0.8,0.9-2,1.3-3.6,1.3c-0.8,0-1.9-0.3-3.1-0.8l-0.5-0.2c-0.7-0.3-1.3-0.5-1.7-0.6c-0.5-0.1-0.9-0.2-1.2-0.2
			c-0.5,0-1,0.1-1.4,0.4c-0.3,0.2-0.5,0.5-0.8,0.9h-1.5l-0.4,0.6h2.2c0.2-0.4,0.4-0.7,0.7-0.9c0.3-0.2,0.7-0.4,1.2-0.4
			c0.3,0,0.7,0.1,1.1,0.2c0.4,0.1,1,0.3,1.7,0.6l0.5,0.2c1.3,0.6,2.4,0.9,3.2,0.9c1.8,0,3.1-0.5,3.9-1.5c0.8-1,1.3-2.6,1.3-4.7
			C367.2,27.1,367.2,26.8,367.2,26.7z M352.1,21.6c0.5,0.6,1.3,0.9,2.2,0.9c0.7,0,1.3-0.3,1.8-0.7c0.5-0.5,0.7-1,0.7-1.7
			c0-0.6-0.2-1-0.5-1.4L356,19c0,0,0,0,0,0c0.2,0.3,0.4,0.6,0.4,1c0,0.5-0.2,0.9-0.5,1.3c-0.4,0.4-0.9,0.6-1.6,0.6
			c-0.8,0-1.4-0.3-1.9-0.8L352.1,21.6C352.1,21.6,352.1,21.6,352.1,21.6z M365.4,16.3C365.4,16.3,365.4,16.3,365.4,16.3
			c0.6,0.9,0.9,1.9,0.9,3c0,1.3-0.4,2.4-1.2,3.3c-0.8,1-2.1,1.7-3.8,2.3c-0.3,0.1-0.6,0.2-1.1,0.3c-3.2,1-5.1,2.2-6.1,3.6
			c-0.2,0.3-0.2,0.7,0,1.1l0.4-0.3c-0.1-0.1-0.1-0.2,0-0.3c0.9-1.3,2.8-2.4,5.8-3.4c0.5-0.1,0.8-0.2,1.1-0.3c1.8-0.6,3.1-1.4,4-2.4
			c0.9-1,1.3-2.3,1.3-3.7c0-1.3-0.3-2.5-1-3.4L365.4,16.3z M360.6,15.8c-0.8-0.7-1.8-1-3-1c-1,0-1.9,0.2-2.5,0.7
			c-0.7,0.5-1.3,1.2-1.6,2.1c-0.1,0.3-0.1,0.6,0.1,0.9l0.4-0.3c0-0.1-0.1-0.2,0-0.3c0.3-0.8,0.8-1.4,1.4-1.8
			c0.6-0.4,1.4-0.6,2.3-0.6c1.1,0,2,0.3,2.7,0.9L360.6,15.8C360.6,15.8,360.6,15.8,360.6,15.8z"/>
	</g>
	<g>
		<path class="st0" d="M21.1,35c-2.6,0-4.8-1.1-6.5-3.2c-1.7-2.1-2.5-5-2.5-8.5c0-3.5,0.8-6.4,2.5-8.5c1.7-2.2,3.8-3.2,6.5-3.2
			c2.6,0,4.8,1.1,6.5,3.2c1.7,2.2,2.5,5,2.5,8.5c0,3.5-0.8,6.4-2.5,8.5C25.9,33.9,23.7,35,21.1,35L21.1,35z M21.1,16.7
			c-0.7,0-1.2,0.4-1.5,1.2c-0.3,0.7-0.6,2.2-0.6,5.4c0,3.2,0.3,4.7,0.6,5.4c0.3,0.8,0.8,1.2,1.5,1.2c0.7,0,1.2-0.4,1.5-1.2
			c0.3-0.7,0.6-2.2,0.6-5.4c0-3.2-0.3-4.7-0.6-5.4C22.3,17,21.8,16.7,21.1,16.7L21.1,16.7z M43.5,35c0.5,0,0.9-0.5,0.9-1.2v-2.9
			c0-0.7-0.4-1.2-0.9-1.2h-1.2c-1.2,0-1.3-0.6-1.3-1.3V12.7c0-0.7-0.4-1.2-0.9-1.2h-3.9c-0.4,0-0.7,0.3-0.8,0.7
			c-0.2,0.7-0.6,1.2-1.2,1.6c-0.7,0.4-1.7,0.6-2.9,0.7c-0.5,0-0.9,0.5-0.9,1.2v2.8c0,0.3,0.1,0.6,0.3,0.8c0.2,0.2,0.4,0.4,0.6,0.4
			h2.7v8.6v0.7c0,0.4,0,0.8-1.3,0.8h-1.4c-0.5,0-0.9,0.5-0.9,1.2v2.9c0,0.7,0.4,1.2,0.9,1.2H43.5L43.5,35z"/>
		<path class="st1" d="M31.3,33.8v-2.9h1.4c0.9,0,1.5-0.1,1.8-0.3c0.3-0.2,0.4-0.8,0.4-1.7v-0.7v-9.8h-3.6v-2.9
			c1.4,0,2.5-0.3,3.3-0.8c0.8-0.5,1.4-1.2,1.7-2.2h3.9v15.8c0,1.1,0.1,1.8,0.4,2.1c0.2,0.3,0.9,0.4,1.8,0.4h1.2v2.9H31.3z M13,23.3
			c0-3.2,0.8-5.8,2.2-7.7c1.5-1.9,3.5-2.9,5.9-2.9c2.4,0,4.4,1,5.9,2.9c1.5,1.9,2.2,4.5,2.2,7.7c0,3.2-0.8,5.8-2.2,7.7
			c-1.5,1.9-3.5,2.9-5.9,2.9c-2.4,0-4.4-1-5.9-2.9C13.7,29,13,26.5,13,23.3z M18.2,23.3c0,2.7,0.2,4.7,0.7,5.9
			c0.5,1.2,1.2,1.8,2.2,1.8c1,0,1.8-0.6,2.2-1.8c0.5-1.2,0.7-3.2,0.7-5.9c0-2.7-0.2-4.7-0.7-5.9c-0.5-1.2-1.2-1.8-2.2-1.8
			c-1,0-1.8,0.6-2.2,1.8C18.4,18.6,18.2,20.5,18.2,23.3z"/>
		<path class="st22" d="M40.3,30.8L40,31.2c-0.4-0.5-0.6-1.3-0.6-2.7V13.6l0.5-0.6v15.5C39.9,29.7,40,30.4,40.3,30.8z M34.8,17.6
			h-2.9l-0.5,0.6h3.3c0.1,0,0.1,0,0.2,0.1l0.3-0.4C35.2,17.7,35,17.6,34.8,17.6z M42.9,31.8v1.1H31.9l-0.5,0.6h11.8v-2.3L42.9,31.8z
			 M18.7,29.3c-0.5-1.3-0.7-3.2-0.7-6c0-2.8,0.2-4.8,0.7-6c0.5-1.3,1.3-2,2.4-2c0.8,0,1.4,0.3,1.8,0.9l0.3-0.4
			c-0.6-0.7-1.3-1.1-2.1-1.1c-1.3,0-2.2,0.8-2.8,2.3c-0.5,1.3-0.8,3.4-0.8,6.3c0,2.9,0.2,4.9,0.8,6.3c0.2,0.4,0.4,0.8,0.6,1.1
			l0.3-0.4C19,30,18.8,29.7,18.7,29.3z M26.9,15.8l-0.3,0.4c1.3,1.8,2,4.1,2,7c0,2.9-0.7,5.3-2.1,7.1c-1.4,1.8-3.2,2.7-5.5,2.7
			c-2.2,0-4.1-0.9-5.4-2.7v0l-0.3,0.4c0,0,0,0,0,0c1.4,1.9,3.4,2.8,5.7,2.8c2.4,0,4.3-1,5.7-2.8c1.4-1.9,2.2-4.4,2.2-7.5
			C29,20.2,28.3,17.7,26.9,15.8z"/>
	</g>
	<g>
		<path class="st0" d="M683.1,35.7c-2.9,0-5.2-1.1-7-3.4c-1.8-2.3-2.7-5.3-2.7-9c0-3.7,0.9-6.7,2.7-9c1.8-2.3,4.2-3.4,7-3.4
			c2.9,0,5.3,1.1,7,3.4c1.8,2.3,2.7,5.3,2.7,9c0,3.7-0.9,6.7-2.7,9C688.4,34.5,686,35.7,683.1,35.7L683.1,35.7z M683.1,16.3
			c-0.8,0-1.3,0.4-1.6,1.3c-0.3,0.8-0.7,2.4-0.7,5.7c0,3.3,0.4,4.9,0.7,5.7c0.3,0.9,0.8,1.3,1.6,1.3c0.8,0,1.3-0.4,1.6-1.3
			c0.3-0.8,0.7-2.4,0.7-5.7c0-3.3-0.3-5-0.6-5.7C684.4,16.7,683.9,16.3,683.1,16.3L683.1,16.3z M701.7,35.7c-2.7,0-4.9-0.6-6.5-1.7
			c-1.8-1.3-2.7-3.1-2.7-5.3c0-1.5,0.4-2.7,1.2-3.6c0.8-0.9,1.9-1.4,3.1-1.4c1.1,0,2,0.4,2.7,1.1c0.8,0.8,1.2,1.8,1.2,3
			c0,1-0.3,1.8-0.8,2.5c0.2,0,0.5,0,0.8,0c1.2,0,2-0.3,2.6-0.8c0.5-0.5,0.7-1.1,0.7-2c0-0.9-0.3-1.3-0.6-1.5
			c-0.4-0.3-1.2-0.6-2.8-0.6c-0.5,0-1-0.5-1-1.2v-2.7c-0.7,0.5-1.5,0.8-2.5,0.8c-1.2,0-2.1-0.4-2.9-1.2c-0.7-0.8-1.1-1.9-1.1-3.3
			c0-2.2,0.9-4,2.6-5.2c1.6-1.2,3.7-1.8,6.3-1.8c2.9,0,5.1,0.5,6.7,1.6c1.8,1.2,2.7,3,2.7,5.3c0,1.5-0.5,2.9-1.4,3.9
			c-0.2,0.3-0.5,0.5-0.7,0.7c0.5,0.3,1,0.7,1.4,1.2c1,1.1,1.6,2.5,1.6,4.2c0,2.6-1,4.7-3,6.1C707.6,35.1,705.1,35.7,701.7,35.7
			L701.7,35.7z M700.4,16.1c0.5,0.6,0.7,1.4,0.7,2.2c0,0.6-0.1,1.2-0.3,1.7c1.4-0.1,2.1-0.4,2.4-0.7c0.4-0.3,0.5-0.7,0.5-1.2
			c0-0.6-0.2-1-0.6-1.4c-0.5-0.4-1.3-0.7-2.3-0.7C700.6,16.1,700.5,16.1,700.4,16.1L700.4,16.1z"/>
		<path class="st1" d="M674.3,23.3c0-3.4,0.8-6.1,2.4-8.2c1.6-2.1,3.8-3.1,6.4-3.1c2.6,0,4.8,1,6.4,3.1c1.6,2.1,2.4,4.8,2.4,8.2
			c0,3.4-0.8,6.1-2.4,8.1c-1.6,2.1-3.8,3.1-6.4,3.1c-2.6,0-4.8-1-6.4-3.1C675.1,29.4,674.3,26.6,674.3,23.3z M679.9,23.3
			c0,2.9,0.3,5,0.8,6.2c0.5,1.3,1.3,1.9,2.4,1.9c1.1,0,1.9-0.6,2.4-1.9c0.5-1.3,0.8-3.4,0.8-6.2c0-2.9-0.3-5-0.7-6.3
			c-0.5-1.3-1.3-1.9-2.4-1.9c-1.1,0-1.9,0.6-2.4,1.9C680.2,18.3,679.9,20.4,679.9,23.3z M700.7,24.2v-2.9c1.3-0.1,2.3-0.4,3-0.9
			c0.7-0.5,1-1.3,1-2.2c0-1-0.4-1.8-1.1-2.4c-0.7-0.6-1.7-0.9-2.9-0.9c-0.7,0-1.3,0.1-1.8,0.3c-0.5,0.2-1,0.5-1.4,0.9h0.3
			c0.7,0,1.2,0.2,1.7,0.6c0.4,0.4,0.6,1,0.6,1.7c0,0.8-0.3,1.5-0.8,2c-0.5,0.5-1.2,0.7-2.1,0.7c-0.9,0-1.7-0.3-2.2-0.9
			c-0.5-0.6-0.8-1.4-0.8-2.4c0-1.8,0.7-3.2,2.1-4.2c1.4-1.1,3.4-1.6,5.8-1.6c2.7,0,4.8,0.5,6.3,1.5c1.5,1,2.2,2.4,2.2,4.2
			c0,1.2-0.4,2.2-1.1,3c-0.7,0.8-1.8,1.3-3.1,1.6c1.7,0.5,2.9,1.1,3.8,2c0.8,0.9,1.2,2,1.2,3.4c0,2.2-0.8,3.9-2.5,5
			c-1.6,1.2-4.1,1.7-7.2,1.7c-2.5,0-4.5-0.5-6-1.6c-1.5-1-2.2-2.5-2.2-4.2c0-1.1,0.3-2,0.9-2.7c0.6-0.7,1.4-1,2.4-1
			c0.8,0,1.5,0.3,2.1,0.8c0.6,0.6,0.8,1.2,0.8,2.1c0,0.8-0.2,1.4-0.7,1.9c-0.5,0.5-1.1,0.7-1.9,0.7c0.5,0.4,1,0.7,1.6,0.9
			c0.6,0.2,1.3,0.3,2,0.3c1.4,0,2.5-0.3,3.2-1c0.7-0.7,1.1-1.7,1.1-2.9c0-1.2-0.4-2-1.1-2.5C703.3,24.4,702.2,24.2,700.7,24.2z"/>
		<path class="st22" d="M699.1,17.5l0.3-0.4c0.3,0.3,0.4,0.7,0.4,1.3c0,0.7-0.2,1.3-0.7,1.8c-0.5,0.5-1.1,0.7-1.9,0.7
			c-0.9,0-1.6-0.3-2.1-0.8l0.4-0.4c0.4,0.4,1,0.6,1.7,0.6c0.7,0,1.2-0.2,1.6-0.6c0.3-0.3,0.5-0.7,0.5-1.3
			C699.3,18,699.3,17.7,699.1,17.5z M709.9,17.7c0,1-0.3,1.7-0.9,2.4c-0.6,0.7-1.5,1.2-2.7,1.4c-0.3,0.1-0.6,0.4-0.6,0.8
			c0,0.3,0.1,0.5,0.2,0.7l0.4-0.4c-0.1-0.1-0.1-0.1-0.1-0.2c0-0.1,0.1-0.3,0.2-0.3c1.3-0.2,2.3-0.7,2.9-1.5c0.7-0.8,1-1.7,1-2.8
			c0-1.2-0.4-2.2-1.1-3.1l-0.3,0.4C709.6,15.8,709.9,16.7,709.9,17.7z M704.5,24.2c-0.7-0.5-1.7-0.8-3-0.9l0,0l-0.5,0.6l0,0
			c1.4,0,2.5,0.3,3.3,0.8c0.2,0.1,0.3,0.3,0.5,0.4l0.3-0.4C704.8,24.6,704.7,24.4,704.5,24.2z M699.1,27.8c0,0.5-0.1,0.9-0.4,1.2
			c-0.3,0.3-0.8,0.5-1.5,0.5c-0.3,0-0.6,0.3-0.7,0.6c-0.1,0.3,0,0.6,0.2,0.9l0.3-0.4c0-0.1-0.1-0.2,0-0.3c0-0.1,0.1-0.2,0.2-0.2
			c0.8,0,1.4-0.2,1.8-0.6c0.4-0.4,0.6-0.9,0.6-1.6c0-0.7-0.2-1.2-0.6-1.7l-0.4,0.4C699,26.9,699.1,27.3,699.1,27.8z M710.3,24.9
			l-0.3,0.4c0.5,0.7,0.8,1.5,0.8,2.5c0,1.9-0.7,3.3-2.1,4.3c-1.5,1.1-3.8,1.6-6.9,1.6c-2.4,0-4.3-0.5-5.6-1.4
			c-0.4-0.3-0.7-0.6-1-0.9l-0.3,0.4c0.3,0.4,0.6,0.7,1.1,1c1.4,1,3.4,1.5,5.8,1.5c3.1,0,5.5-0.6,7.1-1.7c1.6-1.1,2.4-2.7,2.4-4.8
			C711.2,26.6,710.9,25.6,710.3,24.9z M704,15c-0.8-0.7-1.9-1-3.3-1c-0.7,0-1.4,0.1-2,0.3c-0.6,0.2-1.2,0.6-1.7,1.1
			c-0.2,0.2-0.3,0.6-0.2,1c0,0.1,0.1,0.2,0.2,0.3l0.3-0.4c0,0,0-0.1-0.1-0.1c0-0.1,0-0.2,0.1-0.3c0.5-0.4,1-0.8,1.5-1
			c0.5-0.2,1.2-0.3,1.9-0.3c1.3,0,2.3,0.3,3,0.9c0.2,0.1,0.3,0.3,0.4,0.4l0.3-0.4C704.4,15.3,704.2,15.2,704,15z M681.1,30.7
			l-0.3,0.4c-0.3-0.3-0.5-0.7-0.7-1.2c-0.6-1.4-0.8-3.6-0.8-6.7c0-3.1,0.3-5.2,0.8-6.7c0.6-1.6,1.7-2.4,3.1-2.4
			c0.9,0,1.7,0.4,2.3,1.2l-0.3,0.4c-0.5-0.6-1.2-1-2-1c-1.2,0-2.1,0.7-2.6,2.1c-0.5,1.3-0.8,3.4-0.8,6.4c0,3,0.3,5,0.8,6.4
			C680.6,30,680.8,30.4,681.1,30.7z M689.5,15.4l-0.3,0.4c1.4,1.9,2.1,4.3,2.1,7.4c0,3.1-0.8,5.6-2.2,7.5c-1.5,1.9-3.5,2.8-5.9,2.8
			c-2.4,0-4.4-0.9-5.9-2.8v0l-0.3,0.4c0,0,0,0,0,0c1.6,2,3.7,3,6.2,3c2.6,0,4.7-1,6.3-3c1.6-2,2.4-4.6,2.4-7.9
			C691.7,20,691,17.4,689.5,15.4z"/>
	</g>
</g>
</svg>
