<svg xmlns="http://www.w3.org/2000/svg" width="450" height="291.67" viewBox="0 0 450 291.67"><rect x="53.31" width="350.56" height="290.89" fill="#fff" opacity="0.46" style="isolation:isolate"/><path d="M384.67,48.54H110.24V11H384.67l8.23,18.78Z" fill="#3e8eb2"/><rect x="64.2" y="10.97" width="45.96" height="37.65" fill="#f1f1f1"/><g style="isolation:isolate"><path d="M130.77,25.23a3.38,3.38,0,0,1,1.5,1.25,3.84,3.84,0,0,1,0,3.86,3.33,3.33,0,0,1-1.5,1.26,5.7,5.7,0,0,1-2.31.43h-2.3V35h-1.89V24.79h4.19A5.7,5.7,0,0,1,130.77,25.23Zm-.52,4.68a1.82,1.82,0,0,0,.64-1.5,1.79,1.79,0,0,0-.64-1.49,2.91,2.91,0,0,0-1.88-.53h-2.21v4.05h2.21A2.91,2.91,0,0,0,130.25,29.91Z" fill="#fff"/><path d="M138.93,27.12v1.73a2.12,2.12,0,0,0-.42,0,2.2,2.2,0,0,0-1.66.61,2.48,2.48,0,0,0-.59,1.79V35h-1.82V27.21h1.73v1.13A3,3,0,0,1,138.93,27.12Z" fill="#fff"/><path d="M147.67,31.67h-6.09a2.09,2.09,0,0,0,.84,1.36,2.69,2.69,0,0,0,1.67.5,2.82,2.82,0,0,0,2.11-.84l1,1.12a3.2,3.2,0,0,1-1.33.94,4.66,4.66,0,0,1-1.8.32,4.78,4.78,0,0,1-2.25-.51,3.67,3.67,0,0,1-1.51-1.41,4,4,0,0,1-.53-2.06,4,4,0,0,1,.52-2,3.62,3.62,0,0,1,1.43-1.42,4.17,4.17,0,0,1,2.06-.51,4.1,4.1,0,0,1,2,.5A3.58,3.58,0,0,1,147.2,29a4.35,4.35,0,0,1,.5,2.1Q147.7,31.33,147.67,31.67Zm-5.37-2.58a2.19,2.19,0,0,0-.74,1.37H146a2.13,2.13,0,0,0-.71-1.36,2.17,2.17,0,0,0-1.49-.53A2.2,2.2,0,0,0,142.3,29.09Z" fill="#fff"/><path d="M155.78,27.61a3.56,3.56,0,0,1,1.4,1.4,4.14,4.14,0,0,1,.51,2.08,4.23,4.23,0,0,1-.51,2.09,3.56,3.56,0,0,1-1.4,1.4,4.12,4.12,0,0,1-2,.49,3.14,3.14,0,0,1-2.49-1v3.76h-1.81V27.21h1.73v1a2.83,2.83,0,0,1,1.11-.82,3.65,3.65,0,0,1,1.46-.28A4.12,4.12,0,0,1,155.78,27.61Zm-.58,5.24a2.71,2.71,0,0,0,0-3.52,2.18,2.18,0,0,0-1.65-.67,2.33,2.33,0,0,0-1.18.3,2.12,2.12,0,0,0-.83.85,2.63,2.63,0,0,0-.3,1.28,2.66,2.66,0,0,0,.3,1.28,2.12,2.12,0,0,0,.83.85,2.33,2.33,0,0,0,1.18.3A2.22,2.22,0,0,0,155.2,32.85Z" fill="#fff"/><path d="M164.91,27.94a3.16,3.16,0,0,1,.91,2.48V35h-1.71V34a2.1,2.1,0,0,1-1,.77,3.71,3.71,0,0,1-1.49.27,3.75,3.75,0,0,1-1.52-.29,2.42,2.42,0,0,1-1-.83,2.19,2.19,0,0,1-.35-1.2,2,2,0,0,1,.78-1.68,3.85,3.85,0,0,1,2.45-.63h2v-.12a1.61,1.61,0,0,0-.48-1.25,2.13,2.13,0,0,0-1.45-.44,4.34,4.34,0,0,0-1.29.2,3.3,3.3,0,0,0-1.07.57L159,28.08a4.37,4.37,0,0,1,1.47-.71,6.35,6.35,0,0,1,1.82-.25A3.76,3.76,0,0,1,164.91,27.94Zm-1.66,5.5a1.66,1.66,0,0,0,.75-.9v-.9h-1.87c-1,0-1.57.35-1.57,1a.93.93,0,0,0,.39.79,1.83,1.83,0,0,0,1.09.29A2.29,2.29,0,0,0,163.25,33.44Z" fill="#fff"/><path d="M172.64,27.12v1.73a2.12,2.12,0,0,0-.42,0,2.2,2.2,0,0,0-1.66.61,2.48,2.48,0,0,0-.59,1.79V35h-1.82V27.21h1.73v1.13A3,3,0,0,1,172.64,27.12Z" fill="#fff"/><path d="M179.73,27.94a3.16,3.16,0,0,1,.91,2.48V35h-1.72V34a2,2,0,0,1-.95.77,3.71,3.71,0,0,1-1.49.27,3.83,3.83,0,0,1-1.53-.29,2.45,2.45,0,0,1-1-.83,2.19,2.19,0,0,1-.35-1.2,2,2,0,0,1,.78-1.68,3.85,3.85,0,0,1,2.45-.63h2v-.12a1.61,1.61,0,0,0-.48-1.25,2.13,2.13,0,0,0-1.45-.44,4.34,4.34,0,0,0-1.29.2,3.3,3.3,0,0,0-1.07.57l-.71-1.32a4.37,4.37,0,0,1,1.47-.71,6.35,6.35,0,0,1,1.82-.25A3.76,3.76,0,0,1,179.73,27.94Zm-1.66,5.5a1.66,1.66,0,0,0,.75-.9v-.9H177c-1,0-1.57.35-1.57,1a.93.93,0,0,0,.39.79,1.81,1.81,0,0,0,1.09.29A2.32,2.32,0,0,0,178.07,33.44Z" fill="#fff"/><path d="M187.64,34.55a2,2,0,0,1-.78.39,3.44,3.44,0,0,1-1,.13,2.75,2.75,0,0,1-2-.67,2.57,2.57,0,0,1-.7-1.94V28.72h-1.27V27.26h1.27V25.49H185v1.77h2.08v1.46H185v3.69a1.21,1.21,0,0,0,.28.87,1,1,0,0,0,.8.3,1.63,1.63,0,0,0,1-.32Z" fill="#fff"/><path d="M189.22,25.61a1,1,0,0,1-.33-.77,1,1,0,0,1,.33-.78,1.16,1.16,0,0,1,.83-.31,1.19,1.19,0,0,1,.83.29,1,1,0,0,1,.33.75,1.11,1.11,0,0,1-1.16,1.14A1.16,1.16,0,0,1,189.22,25.61Zm-.09,1.6H191V35h-1.82Z" fill="#fff"/><path d="M194.7,34.56a3.63,3.63,0,0,1-1.47-1.41,4,4,0,0,1-.53-2.06,3.89,3.89,0,0,1,.53-2.05,3.7,3.7,0,0,1,1.47-1.41,4.7,4.7,0,0,1,4.26,0A3.72,3.72,0,0,1,200.44,29a4,4,0,0,1,.53,2.05,4,4,0,0,1-.53,2.06A3.66,3.66,0,0,1,199,34.56a4.7,4.7,0,0,1-4.26,0Zm3.78-1.71a2.68,2.68,0,0,0,0-3.52,2.37,2.37,0,0,0-3.3,0,2.71,2.71,0,0,0,0,3.52,2.37,2.37,0,0,0,3.3,0Z" fill="#fff"/><path d="M209.48,28a3.38,3.38,0,0,1,.89,2.54V35h-1.82V30.75a2.18,2.18,0,0,0-.48-1.53,1.8,1.8,0,0,0-1.37-.52,2.09,2.09,0,0,0-1.58.61,2.39,2.39,0,0,0-.59,1.74V35h-1.81V27.21h1.73v1a2.73,2.73,0,0,1,1.13-.81,4,4,0,0,1,1.54-.28A3.26,3.26,0,0,1,209.48,28Z" fill="#fff"/></g><path d="M235.82,266.7a9.48,9.48,0,1,1-9.47-9.47A9.47,9.47,0,0,1,235.82,266.7Z" fill="#757575"/><path d="M226.47,272.37a1,1,0,0,1-.75-.33l-4.15-4a.93.93,0,0,1-.09-1.33.08.08,0,0,1,.09-.08,1,1,0,0,1,1.41,0h0l3.41,3.32,3.41-3.32a1,1,0,0,1,1.41,0h0a.94.94,0,0,1,.08,1.33l-.08.08-4.16,4A.55.55,0,0,1,226.47,272.37Z" fill="#fff"/><path d="M226.41,270.21v-8.39" fill="none" stroke="#fff" stroke-linecap="round" stroke-width="2"/><path d="M81.15,39.23a6.46,6.46,0,0,1-5.23-2.58,11.13,11.13,0,0,1-2-6.9,11.12,11.12,0,0,1,2-6.89,6.22,6.22,0,0,1,5.23-2.58,6.45,6.45,0,0,1,5.24,2.58,11.11,11.11,0,0,1,2,6.89,11.12,11.12,0,0,1-2,6.9,6.48,6.48,0,0,1-5.24,2.58Zm.09-14.8c-.59,0-.92.34-1.17,1a12.18,12.18,0,0,0-.5,4.32,11.91,11.91,0,0,0,.5,4.33c.25.66.58,1,1.17,1s.91-.33,1.24-1a12.25,12.25,0,0,0,.5-4.33,12.42,12.42,0,0,0-.5-4.4c-.33-.67-.66-.92-1.24-.92Zm18.11,14.8a.85.85,0,0,0,.75-.92V36c0-.5-.33-1-.75-1h-1c-1,0-1-.5-1-1V21.19c0-.5-.33-1-.75-1H93.45a.7.7,0,0,0-.66.58,1.89,1.89,0,0,1-1,1.24,4.53,4.53,0,0,1-2.33.5.85.85,0,0,0-.74.92v2.32a1.65,1.65,0,0,0,.16.67.71.71,0,0,0,.5.25h2.16v7.4c0,.33,0,.66-1.08.66H89.38c-.41,0-.75.42-.75,1v2.49a.86.86,0,0,0,.75.92h10Z" fill="#fff"/><path d="M89.38,38.23V35.9h1.08a2.56,2.56,0,0,0,1.41-.25c.25-.16.34-.66.34-1.41V25.85H89.3V23.52A6.06,6.06,0,0,0,92,22.94a3.3,3.3,0,0,0,1.41-1.75h3.16V33.91a3.08,3.08,0,0,0,.25,1.66c.16.25.66.33,1.49.33h1v2.33ZM74.67,29.75a9.74,9.74,0,0,1,1.83-6.23,5.75,5.75,0,0,1,4.74-2.33A5.53,5.53,0,0,1,86,23.52a10.24,10.24,0,0,1,1.83,6.23A9.75,9.75,0,0,1,86,36a5.72,5.72,0,0,1-4.73,2.32A5.53,5.53,0,0,1,76.5,36,9.75,9.75,0,0,1,74.67,29.75Zm4.16,0a12.7,12.7,0,0,0,.58,4.74A1.91,1.91,0,0,0,81.24,36c.83,0,1.41-.5,1.82-1.5a13.29,13.29,0,0,0,.59-4.74A12.63,12.63,0,0,0,83.06,25a1.9,1.9,0,0,0-1.82-1.5c-.83,0-1.42.5-1.83,1.5A12.68,12.68,0,0,0,78.83,29.75Z" fill="#3e8eb2"/><path d="M96.78,35.82l-.25.33a3.39,3.39,0,0,1-.5-2.24v-12l.33-.5V34C96.45,35,96.53,35.57,96.78,35.82ZM92.29,25.18H90l-.33.5h2.66c.08,0,.08,0,.17.08l.25-.33A.48.48,0,0,0,92.29,25.18Zm6.48,11.47v.92H90l-.33.49h9.56V36.24ZM79.24,34.57a13.94,13.94,0,0,1-.58-4.9,14.62,14.62,0,0,1,.58-4.9,2.08,2.08,0,0,1,2-1.58,1.87,1.87,0,0,1,1.49.75L83,23.6a2.05,2.05,0,0,0-1.74-.91A2.43,2.43,0,0,0,79,24.52a15.42,15.42,0,0,0-.58,5.07A15.46,15.46,0,0,0,79,34.66a9.31,9.31,0,0,0,.5.91l.25-.33A.85.85,0,0,1,79.24,34.57Zm6.65-10.8-.25.33a9.14,9.14,0,0,1,1.58,5.65,9.24,9.24,0,0,1-1.66,5.74,5.57,5.57,0,0,1-8.81,0h0l-.25.33h0a5.61,5.61,0,0,0,4.65,2.24,5.51,5.51,0,0,0,4.66-2.32,9.79,9.79,0,0,0,1.74-6.07A9.4,9.4,0,0,0,85.89,23.77Z" fill="#afd5e2"/><g opacity="0.55"><rect x="73.34" y="63.5" width="310.42" height="184.09" fill="#f1f1f1"/><rect x="100.27" y="128.74" width="275.51" height="100.23" fill="none"/><g style="isolation:isolate"><g style="isolation:isolate"><path d="M131.83,139.49H131l-1.12-3a1.35,1.35,0,0,0-.59-.8,2.26,2.26,0,0,0-1.09-.21h-2.49v4H125v-8.92h3.45a3.28,3.28,0,0,1,2.15.64,2.21,2.21,0,0,1,.77,1.81,2.33,2.33,0,0,1-.46,1.45,2.46,2.46,0,0,1-1.31.83,1.21,1.21,0,0,1,.66.32,2.07,2.07,0,0,1,.47.78Zm-3.47-4.66q2.19,0,2.19-1.83c0-1.17-.73-1.76-2.19-1.76h-2.63v3.59Z" fill="#444"/><path d="M139.33,137.11h-4.81l-1,2.38h-.8l3.89-8.92h.7l3.87,8.92h-.8Zm-.3-.67-2.1-4.93-2.12,4.93Z" fill="#444"/><path d="M149.49,139.49h-.8l-1.12-3a1.34,1.34,0,0,0-.58-.8,2.32,2.32,0,0,0-1.09-.21h-2.5v4h-.77v-8.92h3.44a3.31,3.31,0,0,1,2.16.64A2.23,2.23,0,0,1,149,133a2.27,2.27,0,0,1-.46,1.45,2.42,2.42,0,0,1-1.31.83,1.27,1.27,0,0,1,.67.32,2.06,2.06,0,0,1,.46.78ZM146,134.83q2.19,0,2.19-1.83c0-1.17-.73-1.76-2.19-1.76h-2.63v3.59Z" fill="#444"/><path d="M154.44,130.57h2.87a4.47,4.47,0,1,1,0,8.92h-2.87Zm2.83,8.25a3.6,3.6,0,0,0,2.73-1,4,4,0,0,0,.92-2.84q0-3.77-3.65-3.77h-2.05v7.57Z" fill="#444"/><path d="M164,136.26v0a2.84,2.84,0,0,0,.59,1.93,2.11,2.11,0,0,0,1.69.67,3.13,3.13,0,0,0,2.07-.77l.3.6a3,3,0,0,1-1,.62,3.94,3.94,0,0,1-1.32.23,3,3,0,0,1-2.25-.86,3.31,3.31,0,0,1-.83-2.38,3.84,3.84,0,0,1,.37-1.71,2.79,2.79,0,0,1,1-1.16,2.85,2.85,0,0,1,1.52-.4,2.41,2.41,0,0,1,1.94.8,3.31,3.31,0,0,1,.69,2.23v.16Zm.73-2a2.53,2.53,0,0,0-.68,1.46h4a2.3,2.3,0,0,0-.57-1.47,1.76,1.76,0,0,0-1.34-.51A2,2,0,0,0,164.71,134.21Z" fill="#444"/><path d="M175.65,133.22l-2.7,6.27h-.79l-2.65-6.27h.81l2.27,5.51,2.28-5.51Z" fill="#444"/><path d="M177.24,136.26v0a2.84,2.84,0,0,0,.58,1.93,2.12,2.12,0,0,0,1.7.67,3.13,3.13,0,0,0,2.06-.77l.31.6a3.13,3.13,0,0,1-1.06.62,3.88,3.88,0,0,1-1.31.23,3,3,0,0,1-2.26-.86,3.31,3.31,0,0,1-.82-2.38,3.71,3.71,0,0,1,.37-1.71,2.77,2.77,0,0,1,1-1.16,2.86,2.86,0,0,1,1.53-.4,2.4,2.4,0,0,1,1.93.8,3.26,3.26,0,0,1,.7,2.23v.16Zm.72-2a2.52,2.52,0,0,0-.67,1.46h4a2.35,2.35,0,0,0-.56-1.47,1.77,1.77,0,0,0-1.34-.51A2,2,0,0,0,178,134.21Z" fill="#444"/><path d="M183.64,130.27h.75v9.22h-.75Z" fill="#444"/><path d="M187.47,139.18a2.69,2.69,0,0,1-1-1.14,4.27,4.27,0,0,1,0-3.43,2.64,2.64,0,0,1,1-1.14,2.8,2.8,0,0,1,1.52-.4,2.76,2.76,0,0,1,1.5.4,2.61,2.61,0,0,1,1,1.14,4.27,4.27,0,0,1,0,3.43,2.67,2.67,0,0,1-1,1.14,2.76,2.76,0,0,1-1.5.4A2.8,2.8,0,0,1,187.47,139.18Zm3.05-1a2.9,2.9,0,0,0,.55-1.91,3,3,0,0,0-.55-1.91,2.07,2.07,0,0,0-3.07,0,3.64,3.64,0,0,0,0,3.83,2.12,2.12,0,0,0,3.08,0Z" fill="#444"/><path d="M197.93,133.47a2.73,2.73,0,0,1,1,1.16,4,4,0,0,1,.35,1.72,3.91,3.91,0,0,1-.34,1.7,2.6,2.6,0,0,1-1,1.13,2.65,2.65,0,0,1-1.46.4,2.51,2.51,0,0,1-1.35-.34,2.11,2.11,0,0,1-.83-1v4h-.75V135a14.87,14.87,0,0,0-.1-1.74h.72l.1,1.22a2.2,2.2,0,0,1,.85-1,2.57,2.57,0,0,1,1.36-.35A2.67,2.67,0,0,1,197.93,133.47Zm0,4.76a2.9,2.9,0,0,0,.55-1.88,3,3,0,0,0-.55-1.92,1.84,1.84,0,0,0-1.53-.7,1.86,1.86,0,0,0-1.54.68,3.65,3.65,0,0,0,0,3.82,1.84,1.84,0,0,0,1.53.67A1.88,1.88,0,0,0,197.91,138.23Z" fill="#444"/><path d="M209.78,135.5v4H209v-3.94a2.24,2.24,0,0,0-.34-1.39,1.31,1.31,0,0,0-1.08-.43,1.69,1.69,0,0,0-1.36.58,2.3,2.3,0,0,0-.49,1.56v3.62H205v-3.94a2.24,2.24,0,0,0-.34-1.39,1.32,1.32,0,0,0-1.08-.43,1.71,1.71,0,0,0-1.36.58,2.26,2.26,0,0,0-.51,1.56v3.62h-.75V135a13,13,0,0,0-.1-1.74h.72l.11,1.12a2,2,0,0,1,.78-1,2.28,2.28,0,0,1,1.21-.32,1.83,1.83,0,0,1,1.94,1.22,2,2,0,0,1,.82-.9,2.56,2.56,0,0,1,1.28-.32C209.09,133.07,209.78,133.88,209.78,135.5Z" fill="#444"/><path d="M212.23,136.26v0a2.84,2.84,0,0,0,.58,1.93,2.12,2.12,0,0,0,1.7.67,3.13,3.13,0,0,0,2.06-.77l.3.6a3,3,0,0,1-1.05.62,3.93,3.93,0,0,1-1.31.23,3,3,0,0,1-2.26-.86,3.31,3.31,0,0,1-.83-2.38,3.84,3.84,0,0,1,.37-1.71,2.79,2.79,0,0,1,1-1.16,2.85,2.85,0,0,1,1.52-.4,2.41,2.41,0,0,1,1.94.8,3.31,3.31,0,0,1,.7,2.23v.16Zm.72-2a2.46,2.46,0,0,0-.67,1.46h4a2.35,2.35,0,0,0-.56-1.47,1.79,1.79,0,0,0-1.35-.51A2,2,0,0,0,213,134.21Z" fill="#444"/><path d="M223.81,135.5v4h-.76v-3.94a2.09,2.09,0,0,0-.38-1.38,1.53,1.53,0,0,0-1.2-.44,2,2,0,0,0-1.52.58,2.1,2.1,0,0,0-.57,1.55v3.63h-.75V135a14.87,14.87,0,0,0-.1-1.74h.72l.1,1.15a2.06,2.06,0,0,1,.87-1,2.6,2.6,0,0,1,1.33-.33C223.06,133.07,223.81,133.88,223.81,135.5Z" fill="#444"/><path d="M226.93,133.83v3.73a1.47,1.47,0,0,0,.29,1,1.13,1.13,0,0,0,.85.29,2.2,2.2,0,0,0,.68-.11v.69a3.75,3.75,0,0,1-.82.1,1.75,1.75,0,0,1-1.29-.47,1.83,1.83,0,0,1-.47-1.39v-3.88h-1.24v-.61h1.24v-1.67l.76-.29v2h1.86v.61Z" fill="#444"/></g><g style="isolation:isolate"><path d="M102.47,161.6a2.18,2.18,0,0,1-.84-.81,2.14,2.14,0,0,1-.31-1.13,2.17,2.17,0,0,1,.3-1.1,2.33,2.33,0,0,1,2-1.15,2.25,2.25,0,0,1,1.13.3,2.18,2.18,0,0,1,.84.81,2.12,2.12,0,0,1,.31,1.14,2.08,2.08,0,0,1-.31,1.12,2.18,2.18,0,0,1-.83.82,2.32,2.32,0,0,1-2.28,0Z" fill="#3e8eb2"/></g><g style="isolation:isolate"><path d="M102.47,161.6a2.18,2.18,0,0,1-.84-.81,2.14,2.14,0,0,1-.31-1.13,2.17,2.17,0,0,1,.3-1.1,2.33,2.33,0,0,1,2-1.15,2.25,2.25,0,0,1,1.13.3,2.18,2.18,0,0,1,.84.81,2.12,2.12,0,0,1,.31,1.14,2.08,2.08,0,0,1-.31,1.12,2.18,2.18,0,0,1-.83.82,2.32,2.32,0,0,1-2.28,0Z" fill="none" stroke="#3e8eb2" stroke-miterlimit="10" stroke-width="0.25"/></g><g style="isolation:isolate"><path d="M125,154.09h5.38v.67h-4.6v3.38h4.35v.69h-4.35V163H125Z" fill="#444"/><path d="M132.12,159.78v0a2.84,2.84,0,0,0,.58,1.93,2.12,2.12,0,0,0,1.7.67,3.13,3.13,0,0,0,2.06-.77l.3.6a2.84,2.84,0,0,1-1,.62,3.88,3.88,0,0,1-1.31.23,3,3,0,0,1-2.26-.86,3.31,3.31,0,0,1-.83-2.38,3.84,3.84,0,0,1,.37-1.71,2.79,2.79,0,0,1,1-1.16,2.86,2.86,0,0,1,1.53-.4,2.4,2.4,0,0,1,1.93.8,3.26,3.26,0,0,1,.7,2.23v.16Zm.72-2.05a2.46,2.46,0,0,0-.67,1.46h4a2.35,2.35,0,0,0-.56-1.47,1.79,1.79,0,0,0-1.34-.51A2,2,0,0,0,132.84,157.73Z" fill="#444"/><path d="M143.84,153.79V163h-.76v-1.2a2,2,0,0,1-.84,1,2.82,2.82,0,0,1-2.79-.08,2.64,2.64,0,0,1-1-1.15,3.92,3.92,0,0,1-.35-1.72,4,4,0,0,1,.34-1.71,2.65,2.65,0,0,1,1-1.13,2.74,2.74,0,0,1,1.47-.39,2.63,2.63,0,0,1,1.32.32,2.1,2.1,0,0,1,.85,1v-4.08Zm-1.3,8a3,3,0,0,0,.54-1.91,3,3,0,0,0-.54-1.91,1.84,1.84,0,0,0-1.52-.68,1.89,1.89,0,0,0-1.55.68,2.9,2.9,0,0,0-.55,1.89,3,3,0,0,0,.55,1.92,2.08,2.08,0,0,0,3.07,0Z" fill="#444"/><path d="M152.9,163h-.8L151,160a1.35,1.35,0,0,0-.59-.8,2.26,2.26,0,0,0-1.09-.21h-2.49v4H146v-8.92h3.45a3.28,3.28,0,0,1,2.15.64,2.21,2.21,0,0,1,.77,1.81,2.27,2.27,0,0,1-.46,1.45,2.42,2.42,0,0,1-1.31.83,1.21,1.21,0,0,1,.66.32,2.07,2.07,0,0,1,.47.78Zm-3.47-4.66q2.19,0,2.19-1.83c0-1.17-.73-1.76-2.19-1.76H146.8v3.59Z" fill="#444"/><path d="M160.4,160.63h-4.81l-1,2.38h-.8l3.89-8.92h.7l3.87,8.92h-.8Zm-.3-.67L158,155,155.88,160Z" fill="#444"/><path d="M172,154.09V163h-.72v-7.14L168.16,163h-.58l-3.16-7.07,0,7.07h-.73v-8.92h.64l3.53,8,3.48-8Z" fill="#444"/><path d="M174.32,154.09h3.43a3.12,3.12,0,0,1,2.11.66,2.22,2.22,0,0,1,.76,1.79,2.26,2.26,0,0,1-.77,1.81,3.11,3.11,0,0,1-2.1.65H175.1v4h-.78Zm3.38,4.24a2.43,2.43,0,0,0,1.59-.46,1.67,1.67,0,0,0,.54-1.33,1.65,1.65,0,0,0-.54-1.32,2.38,2.38,0,0,0-1.59-.46h-2.6v3.57Z" fill="#444"/><path d="M185.58,154.09H189a3.12,3.12,0,0,1,2.11.66,2.22,2.22,0,0,1,.76,1.79,2.26,2.26,0,0,1-.77,1.81,3.11,3.11,0,0,1-2.1.65h-2.65v4h-.78Zm3.38,4.24a2.43,2.43,0,0,0,1.59-.46,1.67,1.67,0,0,0,.54-1.33,1.65,1.65,0,0,0-.54-1.32,2.38,2.38,0,0,0-1.59-.46h-2.6v3.57Z" fill="#444"/><path d="M202,154.09V163h-.73v-7.14L198.11,163h-.58l-3.16-7.07,0,7.07h-.73v-8.92h.64l3.53,8,3.48-8Z" fill="#444"/><path d="M205.79,162.56a3.63,3.63,0,0,1-1.38-1.58,5.66,5.66,0,0,1-.48-2.43,5.73,5.73,0,0,1,.48-2.43,3.51,3.51,0,0,1,1.37-1.57,4.31,4.31,0,0,1,4.25,0,3.53,3.53,0,0,1,1.38,1.57,6.33,6.33,0,0,1,0,4.86,3.55,3.55,0,0,1-1.37,1.58,4,4,0,0,1-2.13.55A3.93,3.93,0,0,1,205.79,162.56Zm4.45-1.15a4.44,4.44,0,0,0,.83-2.87,4.36,4.36,0,0,0-.82-2.85,2.89,2.89,0,0,0-2.35-1,2.85,2.85,0,0,0-2.33,1,4.33,4.33,0,0,0-.84,2.85,4.37,4.37,0,0,0,.84,2.86,3.19,3.19,0,0,0,4.67,0Z" fill="#444"/><path d="M223.91,163h-.8L222,160a1.4,1.4,0,0,0-.59-.8,2.29,2.29,0,0,0-1.09-.21h-2.5v4h-.77v-8.92h3.44a3.31,3.31,0,0,1,2.16.64,2.2,2.2,0,0,1,.76,1.81A2.27,2.27,0,0,1,223,158a2.43,2.43,0,0,1-1.3.83,1.24,1.24,0,0,1,.66.32,2.06,2.06,0,0,1,.46.78Zm-3.47-4.66q2.19,0,2.19-1.83c0-1.17-.73-1.76-2.19-1.76h-2.63v3.59Z" fill="#444"/><path d="M226,159.78v0a2.84,2.84,0,0,0,.59,1.93,2.11,2.11,0,0,0,1.69.67,3.15,3.15,0,0,0,2.07-.77l.3.6a2.84,2.84,0,0,1-1,.62,3.94,3.94,0,0,1-1.32.23,3,3,0,0,1-2.25-.86,3.31,3.31,0,0,1-.83-2.38,3.84,3.84,0,0,1,.37-1.71,2.79,2.79,0,0,1,1-1.16,2.85,2.85,0,0,1,1.52-.4,2.41,2.41,0,0,1,1.94.8,3.31,3.31,0,0,1,.69,2.23v.16Zm.73-2.05a2.53,2.53,0,0,0-.68,1.46h4a2.3,2.3,0,0,0-.57-1.47,1.76,1.76,0,0,0-1.34-.51A2,2,0,0,0,226.68,157.73Z" fill="#444"/><path d="M237.62,156.74l-2.7,6.27h-.79l-2.65-6.27h.81l2.27,5.51,2.28-5.51Z" fill="#444"/><path d="M239.77,154.14v1h-1v-1Zm-.9,2.6h.75V163h-.75Z" fill="#444"/><path d="M242.13,159.78v0a2.84,2.84,0,0,0,.58,1.93,2.12,2.12,0,0,0,1.7.67,3.13,3.13,0,0,0,2.06-.77l.3.6a2.84,2.84,0,0,1-1.05.62,3.88,3.88,0,0,1-1.31.23,3,3,0,0,1-2.26-.86,3.31,3.31,0,0,1-.83-2.38,3.84,3.84,0,0,1,.37-1.71,2.73,2.73,0,0,1,2.57-1.56,2.4,2.4,0,0,1,1.93.8,3.26,3.26,0,0,1,.7,2.23v.16Zm.72-2.05a2.46,2.46,0,0,0-.67,1.46h4a2.35,2.35,0,0,0-.56-1.47,1.79,1.79,0,0,0-1.34-.51A2,2,0,0,0,242.85,157.73Z" fill="#444"/><path d="M257.81,156.74,255.53,163h-.79l-1.9-5.3-1.92,5.3h-.8l-2.27-6.27h.82l1.85,5.36,1.95-5.36h.77l1.89,5.36,1.9-5.36Z" fill="#444"/><path d="M263.44,162.7a2.61,2.61,0,0,1-1-1.14,4.27,4.27,0,0,1,0-3.43,2.61,2.61,0,0,1,1-1.14,2.85,2.85,0,0,1,1.52-.4,2.82,2.82,0,0,1,1.51.4,2.74,2.74,0,0,1,1,1.14,4.38,4.38,0,0,1,0,3.43,2.74,2.74,0,0,1-1,1.14,2.82,2.82,0,0,1-1.51.4A2.85,2.85,0,0,1,263.44,162.7Zm3.06-.95a3.62,3.62,0,0,0,0-3.82,2.07,2.07,0,0,0-3.07,0,3.64,3.64,0,0,0,0,3.83,2.13,2.13,0,0,0,3.09,0Z" fill="#444"/><path d="M270.85,154.72a1.46,1.46,0,0,0-.29,1v1h1.62v.61h-1.62V163h-.76v-5.66h-1.23v-.61h1.23v-1.13a1.89,1.89,0,0,1,.46-1.4,1.74,1.74,0,0,1,1.28-.47,3.63,3.63,0,0,1,.78.1v.69a2.56,2.56,0,0,0-.64-.1A1.13,1.13,0,0,0,270.85,154.72Z" fill="#444"/><path d="M283.74,163h-.8l-1.12-3a1.34,1.34,0,0,0-.58-.8,2.32,2.32,0,0,0-1.09-.21h-2.5v4h-.77v-8.92h3.44a3.31,3.31,0,0,1,2.16.64,2.23,2.23,0,0,1,.76,1.81,2.27,2.27,0,0,1-.46,1.45,2.42,2.42,0,0,1-1.31.83,1.27,1.27,0,0,1,.67.32,2.06,2.06,0,0,1,.46.78Zm-3.47-4.66q2.19,0,2.19-1.83c0-1.17-.73-1.76-2.19-1.76h-2.63v3.59Z" fill="#444"/><path d="M291.24,160.63h-4.81l-1,2.38h-.81l3.89-8.92h.7l3.87,8.92h-.8Zm-.3-.67-2.1-4.93L286.72,160Z" fill="#444"/><path d="M301.4,163h-.8l-1.11-3a1.4,1.4,0,0,0-.59-.8,2.29,2.29,0,0,0-1.09-.21h-2.49v4h-.78v-8.92H298a3.31,3.31,0,0,1,2.16.64,2.2,2.2,0,0,1,.76,1.81,2.32,2.32,0,0,1-.45,1.45,2.5,2.5,0,0,1-1.31.83,1.21,1.21,0,0,1,.66.32,2.06,2.06,0,0,1,.46.78Zm-3.47-4.66c1.47,0,2.2-.61,2.2-1.83s-.73-1.76-2.2-1.76H295.3v3.59Z" fill="#444"/></g><g style="isolation:isolate"><path d="M102.47,185a2.25,2.25,0,0,1-.84-.81,2.17,2.17,0,0,1-.31-1.14,2.13,2.13,0,0,1,.3-1.09,2.23,2.23,0,0,1,.83-.84,2.29,2.29,0,0,1,1.16-.31,2.25,2.25,0,0,1,1.13.3,2.22,2.22,0,0,1,.84.8,2.17,2.17,0,0,1,.31,1.14,2.11,2.11,0,0,1-.31,1.13,2.33,2.33,0,0,1-.83.82,2.32,2.32,0,0,1-2.28,0Z" fill="#3e8eb2"/></g><g style="isolation:isolate"><path d="M102.47,185a2.25,2.25,0,0,1-.84-.81,2.17,2.17,0,0,1-.31-1.14,2.13,2.13,0,0,1,.3-1.09,2.23,2.23,0,0,1,.83-.84,2.29,2.29,0,0,1,1.16-.31,2.25,2.25,0,0,1,1.13.3,2.22,2.22,0,0,1,.84.8,2.17,2.17,0,0,1,.31,1.14,2.11,2.11,0,0,1-.31,1.13,2.33,2.33,0,0,1-.83.82,2.32,2.32,0,0,1-2.28,0Z" fill="none" stroke="#3e8eb2" stroke-miterlimit="10" stroke-width="0.25"/></g><g style="isolation:isolate"><path d="M131.83,186.45H131l-1.12-3a1.41,1.41,0,0,0-.59-.81,2.4,2.4,0,0,0-1.09-.2h-2.49v4H125v-8.92h3.45a3.28,3.28,0,0,1,2.15.63,2.24,2.24,0,0,1,.77,1.81,2.34,2.34,0,0,1-.46,1.46,2.39,2.39,0,0,1-1.31.82,1.22,1.22,0,0,1,.66.33,2,2,0,0,1,.47.78Zm-3.47-4.66q2.19,0,2.19-1.83c0-1.18-.73-1.76-2.19-1.76h-2.63v3.59Z" fill="#444"/><path d="M133.87,183.22v0a2.84,2.84,0,0,0,.58,1.93,2.13,2.13,0,0,0,1.7.67,3.22,3.22,0,0,0,2.07-.77l.3.6a3.13,3.13,0,0,1-1.06.62,3.88,3.88,0,0,1-1.31.23,3,3,0,0,1-2.25-.87,3.26,3.26,0,0,1-.83-2.38,3.77,3.77,0,0,1,.37-1.71,2.74,2.74,0,0,1,1-1.15A2.87,2.87,0,0,1,136,180a2.39,2.39,0,0,1,1.93.81,3.24,3.24,0,0,1,.7,2.23v.16Zm.73-2.05a2.44,2.44,0,0,0-.68,1.46h4a2.29,2.29,0,0,0-.56-1.47,1.77,1.77,0,0,0-1.34-.51A1.91,1.91,0,0,0,134.6,181.17Z" fill="#444"/><path d="M149.12,182.45v4h-.77V182.5a2.22,2.22,0,0,0-.34-1.38,1.26,1.26,0,0,0-1.07-.43,1.7,1.7,0,0,0-1.36.57,2.35,2.35,0,0,0-.5,1.57v3.62h-.76V182.5a2.22,2.22,0,0,0-.35-1.38,1.29,1.29,0,0,0-1.08-.43,1.73,1.73,0,0,0-1.36.57,2.3,2.3,0,0,0-.51,1.57v3.62h-.75v-4.53a13,13,0,0,0-.1-1.75h.73l.1,1.13a1.94,1.94,0,0,1,.78-1A2.22,2.22,0,0,1,143,180a1.82,1.82,0,0,1,1.94,1.23,2,2,0,0,1,.82-.9A2.48,2.48,0,0,1,147,180C148.42,180,149.12,180.83,149.12,182.45Z" fill="#444"/><path d="M151.56,183.22v0a2.84,2.84,0,0,0,.58,1.93,2.12,2.12,0,0,0,1.7.67,3.18,3.18,0,0,0,2.06-.77l.31.6a3.13,3.13,0,0,1-1.06.62,3.88,3.88,0,0,1-1.31.23,3,3,0,0,1-2.26-.87,3.29,3.29,0,0,1-.82-2.38,3.77,3.77,0,0,1,.37-1.71,2.74,2.74,0,0,1,1-1.15,2.87,2.87,0,0,1,1.53-.41,2.41,2.41,0,0,1,1.93.81,3.24,3.24,0,0,1,.7,2.23v.16Zm.72-2.05a2.49,2.49,0,0,0-.67,1.46h4a2.35,2.35,0,0,0-.56-1.47,1.77,1.77,0,0,0-1.34-.51A1.93,1.93,0,0,0,152.28,181.17Z" fill="#444"/><path d="M163.28,177.23v9.22h-.76v-1.2a2.06,2.06,0,0,1-.83,1,2.61,2.61,0,0,1-1.34.33,2.6,2.6,0,0,1-2.44-1.56,4.06,4.06,0,0,1-.35-1.72,4,4,0,0,1,.34-1.71,2.59,2.59,0,0,1,1-1.13,2.74,2.74,0,0,1,1.47-.4,2.54,2.54,0,0,1,1.32.33,2.07,2.07,0,0,1,.85,1v-4.07Zm-1.3,8a3.65,3.65,0,0,0,0-3.82,1.83,1.83,0,0,0-1.52-.68,1.9,1.9,0,0,0-1.55.67,2.94,2.94,0,0,0-.55,1.9,3,3,0,0,0,.55,1.91,1.86,1.86,0,0,0,1.54.69A1.84,1.84,0,0,0,162,185.19Z" fill="#444"/><path d="M166.26,177.58v1h-1v-1Zm-.9,2.59h.75v6.28h-.75Z" fill="#444"/><path d="M173.54,180.17v6.28h-.76v-1.2a2.06,2.06,0,0,1-.83,1,2.61,2.61,0,0,1-1.34.33,2.66,2.66,0,0,1-1.47-.4,2.62,2.62,0,0,1-1-1.12,4,4,0,0,1-.34-1.71,3.93,3.93,0,0,1,.35-1.73,2.7,2.7,0,0,1,1-1.15,2.65,2.65,0,0,1,1.46-.41,2.54,2.54,0,0,1,1.32.33,2.07,2.07,0,0,1,.85,1v-1.13Zm-1.3,5a3.67,3.67,0,0,0,0-3.83,1.84,1.84,0,0,0-1.53-.67,1.86,1.86,0,0,0-1.54.69,3,3,0,0,0-.55,1.93,2.85,2.85,0,0,0,.55,1.88,1.9,1.9,0,0,0,1.55.67A1.82,1.82,0,0,0,172.24,185.19Z" fill="#444"/><path d="M176.69,180.79v3.73a1.47,1.47,0,0,0,.28,1,1.19,1.19,0,0,0,.86.29,2.14,2.14,0,0,0,.67-.11v.69a3.66,3.66,0,0,1-.81.1,1.79,1.79,0,0,1-1.3-.47,1.88,1.88,0,0,1-.47-1.39v-3.88h-1.24v-.62h1.24v-1.66l.77-.29v1.95h1.85v.62Z" fill="#444"/><path d="M180.75,177.58v1h-1v-1Zm-.91,2.59h.75v6.28h-.75Z" fill="#444"/><path d="M183.67,186.14a2.61,2.61,0,0,1-1-1.14,4.29,4.29,0,0,1,0-3.44,2.53,2.53,0,0,1,1-1.13,2.86,2.86,0,0,1,1.52-.41,2.82,2.82,0,0,1,1.51.41,2.57,2.57,0,0,1,1,1.13,4.29,4.29,0,0,1,0,3.44,2.65,2.65,0,0,1-1,1.14,2.91,2.91,0,0,1-1.51.4A3,3,0,0,1,183.67,186.14Zm3.06-.95a3.62,3.62,0,0,0,0-3.82,2.07,2.07,0,0,0-3.07,0,3.64,3.64,0,0,0,0,3.83,2.13,2.13,0,0,0,3.09,0Z" fill="#444"/><path d="M194.93,182.45v4h-.77V182.5a2.08,2.08,0,0,0-.38-1.37,1.49,1.49,0,0,0-1.2-.44,2.05,2.05,0,0,0-1.51.57,2.11,2.11,0,0,0-.58,1.56v3.63h-.75v-4.53a13,13,0,0,0-.1-1.75h.73l.1,1.16a2,2,0,0,1,.86-1,2.63,2.63,0,0,1,1.33-.34C194.17,180,194.93,180.83,194.93,182.45Z" fill="#444"/><path d="M200.79,186a12.3,12.3,0,0,1,0-5.66,12.56,12.56,0,0,1,1-2.77h.68a15.34,15.34,0,0,0-.95,2.88,13.85,13.85,0,0,0-.28,2.71,14,14,0,0,0,.28,2.72,15.19,15.19,0,0,0,.95,2.89h-.67A12.6,12.6,0,0,1,200.79,186Z" fill="#444"/><path d="M204.83,177.58v1h-1v-1Zm-.9,2.59h.75v6.28h-.75Z" fill="#444"/><path d="M208.13,178.16a1.44,1.44,0,0,0-.29,1v1h1.62v.62h-1.62v5.66h-.76v-5.66h-1.23v-.62h1.23v-1.12a1.92,1.92,0,0,1,.46-1.41,1.76,1.76,0,0,1,1.28-.46,3,3,0,0,1,.77.1V178a2.06,2.06,0,0,0-.63-.1A1.13,1.13,0,0,0,208.13,178.16Z" fill="#444"/><path d="M219.23,182.45v4h-.77V182.5a2,2,0,0,0-.38-1.37,1.47,1.47,0,0,0-1.2-.44,2.05,2.05,0,0,0-1.51.57,2.11,2.11,0,0,0-.58,1.56v3.63H214v-4.53a13,13,0,0,0-.1-1.75h.73l.1,1.16a2,2,0,0,1,.86-1A2.66,2.66,0,0,1,217,180C218.47,180,219.23,180.83,219.23,182.45Z" fill="#444"/><path d="M221.68,183.22v0a2.89,2.89,0,0,0,.58,1.93,2.13,2.13,0,0,0,1.7.67,3.22,3.22,0,0,0,2.07-.77l.3.6a3.17,3.17,0,0,1-1.05.62,4,4,0,0,1-1.32.23,3,3,0,0,1-2.25-.87,3.3,3.3,0,0,1-.83-2.38,3.77,3.77,0,0,1,.37-1.71,2.81,2.81,0,0,1,1-1.15,2.92,2.92,0,0,1,1.53-.41,2.43,2.43,0,0,1,1.94.81,3.29,3.29,0,0,1,.69,2.23v.16Zm.73-2.05a2.44,2.44,0,0,0-.68,1.46h4a2.3,2.3,0,0,0-.57-1.47,1.76,1.76,0,0,0-1.34-.51A1.93,1.93,0,0,0,222.41,181.17Z" fill="#444"/><path d="M228.48,183.22v0a2.84,2.84,0,0,0,.59,1.93,2.11,2.11,0,0,0,1.69.67,3.2,3.2,0,0,0,2.07-.77l.3.6a3,3,0,0,1-1,.62,4,4,0,0,1-1.32.23,3,3,0,0,1-2.25-.87,3.3,3.3,0,0,1-.83-2.38,3.91,3.91,0,0,1,.37-1.71,2.76,2.76,0,0,1,1-1.15,2.86,2.86,0,0,1,1.52-.41,2.41,2.41,0,0,1,1.94.81,3.29,3.29,0,0,1,.69,2.23v.16Zm.73-2.05a2.5,2.5,0,0,0-.68,1.46h4a2.3,2.3,0,0,0-.57-1.47,1.76,1.76,0,0,0-1.34-.51A1.93,1.93,0,0,0,229.21,181.17Z" fill="#444"/><path d="M240.21,177.23v9.22h-.76v-1.2a2.08,2.08,0,0,1-.84,1,2.55,2.55,0,0,1-1.33.33,2.6,2.6,0,0,1-2.44-1.56,4.32,4.32,0,0,1,0-3.43,2.53,2.53,0,0,1,1-1.13,2.74,2.74,0,0,1,1.47-.4,2.54,2.54,0,0,1,1.32.33,2.13,2.13,0,0,1,.85,1v-4.07Zm-1.3,8a3.65,3.65,0,0,0,0-3.82,1.84,1.84,0,0,0-1.52-.68,1.88,1.88,0,0,0-1.55.67,2.94,2.94,0,0,0-.55,1.9,3,3,0,0,0,.55,1.91,1.86,1.86,0,0,0,1.54.69A1.84,1.84,0,0,0,238.91,185.19Z" fill="#444"/><path d="M242.69,183.22v0a2.84,2.84,0,0,0,.58,1.93,2.13,2.13,0,0,0,1.7.67,3.22,3.22,0,0,0,2.07-.77l.3.6a3.13,3.13,0,0,1-1.06.62,3.88,3.88,0,0,1-1.31.23,3,3,0,0,1-2.26-.87,3.29,3.29,0,0,1-.82-2.38,3.77,3.77,0,0,1,.37-1.71,2.74,2.74,0,0,1,1-1.15,2.87,2.87,0,0,1,1.53-.41,2.39,2.39,0,0,1,1.93.81,3.24,3.24,0,0,1,.7,2.23v.16Zm.73-2.05a2.44,2.44,0,0,0-.68,1.46h4a2.29,2.29,0,0,0-.56-1.47,1.77,1.77,0,0,0-1.34-.51A1.91,1.91,0,0,0,243.42,181.17Z" fill="#444"/><path d="M254.41,177.23v9.22h-.76v-1.2a2,2,0,0,1-.83,1,2.59,2.59,0,0,1-1.34.33,2.68,2.68,0,0,1-1.46-.41,2.64,2.64,0,0,1-1-1.15,4.06,4.06,0,0,1-.35-1.72,4,4,0,0,1,.34-1.71,2.59,2.59,0,0,1,1-1.13,2.74,2.74,0,0,1,1.47-.4,2.54,2.54,0,0,1,1.32.33,2,2,0,0,1,.85,1v-4.07Zm-1.3,8a3.65,3.65,0,0,0,0-3.82,1.82,1.82,0,0,0-1.51-.68,1.9,1.9,0,0,0-1.56.67,2.94,2.94,0,0,0-.55,1.9,3,3,0,0,0,.55,1.91,1.86,1.86,0,0,0,1.54.69A1.84,1.84,0,0,0,253.11,185.19Z" fill="#444"/><path d="M255.88,188.73a14.91,14.91,0,0,0,.93-2.9,13.29,13.29,0,0,0,.29-2.71,13.14,13.14,0,0,0-.29-2.71,14.58,14.58,0,0,0-.94-2.88h.67a13.13,13.13,0,0,1,1,2.77,12.67,12.67,0,0,1,0,5.66,12.65,12.65,0,0,1-1,2.77Z" fill="#444"/></g><g style="isolation:isolate"><path d="M125,201.05h5.38v.67h-4.6v3.38h4.35v.69h-4.35V210H125Z" fill="#444"/><path d="M132.12,206.74v0a2.84,2.84,0,0,0,.58,1.93,2.12,2.12,0,0,0,1.7.67,3.18,3.18,0,0,0,2.06-.77l.3.6a3,3,0,0,1-1,.62,3.88,3.88,0,0,1-1.31.23,3,3,0,0,1-2.26-.86,3.32,3.32,0,0,1-.83-2.39,3.83,3.83,0,0,1,.37-1.7,2.73,2.73,0,0,1,1-1.16,2.86,2.86,0,0,1,1.53-.4,2.4,2.4,0,0,1,1.93.8,3.24,3.24,0,0,1,.7,2.23v.16Zm.72-2.05a2.43,2.43,0,0,0-.67,1.46h4a2.35,2.35,0,0,0-.56-1.47,1.79,1.79,0,0,0-1.34-.51A2,2,0,0,0,132.84,204.69Z" fill="#444"/><path d="M143.84,200.75V210h-.76v-1.2a2,2,0,0,1-.84,1,2.55,2.55,0,0,1-1.33.33,2.6,2.6,0,0,1-2.44-1.56,3.92,3.92,0,0,1-.35-1.72,4,4,0,0,1,.34-1.71,2.59,2.59,0,0,1,1-1.13,2.74,2.74,0,0,1,1.47-.39,2.53,2.53,0,0,1,1.32.32,2.13,2.13,0,0,1,.85.95v-4.07Zm-1.3,8a3.65,3.65,0,0,0,0-3.82,2.07,2.07,0,0,0-3.07,0,2.9,2.9,0,0,0-.55,1.89,3,3,0,0,0,.55,1.91,1.86,1.86,0,0,0,1.54.69A1.84,1.84,0,0,0,142.54,208.71Z" fill="#444"/><path d="M152.9,210h-.8L151,207a1.41,1.41,0,0,0-.59-.81,2.4,2.4,0,0,0-1.09-.2h-2.49v4H146v-8.92h3.45a3.23,3.23,0,0,1,2.15.64,2.21,2.21,0,0,1,.77,1.81,2.27,2.27,0,0,1-.46,1.45,2.42,2.42,0,0,1-1.31.83,1.21,1.21,0,0,1,.66.32,2.07,2.07,0,0,1,.47.78Zm-3.47-4.66q2.19,0,2.19-1.83c0-1.17-.73-1.76-2.19-1.76H146.8v3.59Z" fill="#444"/><path d="M160.4,207.59h-4.81l-1,2.38h-.8l3.89-8.92h.7l3.87,8.92h-.8Zm-.3-.67L158,202l-2.12,4.93Z" fill="#444"/><path d="M172,201.05V210h-.72v-7.14L168.16,210h-.58l-3.16-7.08,0,7.08h-.73v-8.92h.64l3.53,8,3.48-8Z" fill="#444"/><path d="M174.32,201.05h3.43a3.17,3.17,0,0,1,2.11.65,2.5,2.5,0,0,1,0,3.6,3.11,3.11,0,0,1-2.1.66H175.1v4h-.78Zm3.38,4.24a2.38,2.38,0,0,0,1.59-.47,1.88,1.88,0,0,0,0-2.64,2.38,2.38,0,0,0-1.59-.46h-2.6v3.57Z" fill="#444"/><path d="M193.9,201.05V210h-.73v-7.14L190,210h-.58l-3.15-7.08V210h-.73v-8.92h.64l3.53,8,3.49-8Z" fill="#444"/><path d="M201.41,203.7V210h-.76v-1.2a2,2,0,0,1-.83,1,2.59,2.59,0,0,1-1.34.33,2.74,2.74,0,0,1-1.47-.39,2.65,2.65,0,0,1-1-1.13,4,4,0,0,1-.34-1.71,4,4,0,0,1,.35-1.72,2.56,2.56,0,0,1,2.44-1.56,2.53,2.53,0,0,1,1.32.32,2.07,2.07,0,0,1,.85.95V203.7Zm-1.3,5a3.65,3.65,0,0,0,0-3.82,1.82,1.82,0,0,0-1.53-.68,1.86,1.86,0,0,0-1.54.69,3,3,0,0,0-.55,1.93,2.85,2.85,0,0,0,.55,1.88,1.9,1.9,0,0,0,1.56.67A1.82,1.82,0,0,0,200.11,208.71Z" fill="#444"/><path d="M206.75,203.6l0,.68a3.1,3.1,0,0,0-.57-.05,1.69,1.69,0,0,0-1.42.61,2.27,2.27,0,0,0-.47,1.45V210h-.76v-4.53a13,13,0,0,0-.1-1.74h.73l.1,1.16a2,2,0,0,1,.77-1,2.27,2.27,0,0,1,1.21-.33A2.29,2.29,0,0,1,206.75,203.6Z" fill="#444"/><path d="M212.08,210l-3.46-3.05V210h-.75v-9.22h.75v5.86l3.15-2.91h1l-3.28,3,3.63,3.26Z" fill="#444"/><path d="M214.38,206.74v0a2.84,2.84,0,0,0,.58,1.93,2.13,2.13,0,0,0,1.7.67,3.22,3.22,0,0,0,2.07-.77l.3.6a3.13,3.13,0,0,1-1.06.62,3.88,3.88,0,0,1-1.31.23,3,3,0,0,1-2.26-.86,3.32,3.32,0,0,1-.82-2.39,3.7,3.7,0,0,1,.37-1.7,2.71,2.71,0,0,1,1-1.16,2.86,2.86,0,0,1,1.53-.4,2.39,2.39,0,0,1,1.93.8,3.24,3.24,0,0,1,.7,2.23v.16Zm.73-2.05a2.44,2.44,0,0,0-.68,1.46h4a2.29,2.29,0,0,0-.56-1.47,1.77,1.77,0,0,0-1.34-.51A2,2,0,0,0,215.11,204.69Z" fill="#444"/><path d="M221.83,204.31V208a1.47,1.47,0,0,0,.29,1,1.17,1.17,0,0,0,.85.29,2.2,2.2,0,0,0,.68-.11V210a3.75,3.75,0,0,1-.82.1,1.75,1.75,0,0,1-1.29-.47,1.88,1.88,0,0,1-.47-1.39v-3.88h-1.24v-.61h1.24V202l.76-.29v2h1.86v.61Z" fill="#444"/><path d="M229.38,204a2.67,2.67,0,0,1,1,1.16,4.41,4.41,0,0,1,0,3.42,2.65,2.65,0,0,1-1,1.13,2.7,2.7,0,0,1-1.47.4,2.56,2.56,0,0,1-1.35-.35,2.09,2.09,0,0,1-.83-1v4H225v-7.24a13,13,0,0,0-.1-1.74h.73l.1,1.22a2.12,2.12,0,0,1,.84-1,2.51,2.51,0,0,1,1.36-.35A2.65,2.65,0,0,1,229.38,204Zm0,4.76a2.85,2.85,0,0,0,.55-1.88,3,3,0,0,0-.55-1.93,2.06,2.06,0,0,0-3.07,0,3.65,3.65,0,0,0,0,3.82,1.84,1.84,0,0,0,1.53.67A1.88,1.88,0,0,0,229.36,208.71Z" fill="#444"/><path d="M232.39,200.75h.76V210h-.76Z" fill="#444"/><path d="M240.57,203.7V210h-.76v-1.2a2.06,2.06,0,0,1-.83,1,2.61,2.61,0,0,1-1.34.33,2.74,2.74,0,0,1-1.47-.39,2.65,2.65,0,0,1-1-1.13,4,4,0,0,1-.34-1.71,4,4,0,0,1,.35-1.72,2.67,2.67,0,0,1,1-1.16,2.65,2.65,0,0,1,1.46-.4,2.53,2.53,0,0,1,1.32.32,2.13,2.13,0,0,1,.85.95V203.7Zm-1.3,5a3.65,3.65,0,0,0,0-3.82,1.82,1.82,0,0,0-1.53-.68,1.86,1.86,0,0,0-1.54.69,3,3,0,0,0-.55,1.93,2.85,2.85,0,0,0,.55,1.88,1.9,1.9,0,0,0,1.55.67A1.82,1.82,0,0,0,239.27,208.71Z" fill="#444"/><path d="M243.64,209.66a2.78,2.78,0,0,1-1-1.14,3.76,3.76,0,0,1-.36-1.69,3.89,3.89,0,0,1,.36-1.72,2.73,2.73,0,0,1,1-1.16,3,3,0,0,1,1.57-.4,3.56,3.56,0,0,1,1.22.21,2.6,2.6,0,0,1,1,.61l-.3.6a4.1,4.1,0,0,0-.93-.58,2.47,2.47,0,0,0-.92-.18,2,2,0,0,0-1.61.69,2.93,2.93,0,0,0-.59,1.93,2.79,2.79,0,0,0,.59,1.88,2,2,0,0,0,1.61.67,2.47,2.47,0,0,0,.92-.18,4,4,0,0,0,.93-.57l.3.59a2.86,2.86,0,0,1-1,.61,3.36,3.36,0,0,1-1.2.23A2.92,2.92,0,0,1,243.64,209.66Z" fill="#444"/><path d="M249.19,206.74v0a2.89,2.89,0,0,0,.58,1.93,2.13,2.13,0,0,0,1.7.67,3.22,3.22,0,0,0,2.07-.77l.3.6a3.17,3.17,0,0,1-1.05.62,4,4,0,0,1-1.32.23,3,3,0,0,1-2.25-.86,3.32,3.32,0,0,1-.83-2.39,3.7,3.7,0,0,1,.37-1.7,2.78,2.78,0,0,1,1-1.16,2.91,2.91,0,0,1,1.53-.4,2.42,2.42,0,0,1,1.94.8,3.29,3.29,0,0,1,.69,2.23v.16Zm.73-2.05a2.44,2.44,0,0,0-.68,1.46h4a2.3,2.3,0,0,0-.57-1.47,1.76,1.76,0,0,0-1.34-.51A2,2,0,0,0,249.92,204.69Z" fill="#444"/><path d="M258.9,201.05h2.87a4.47,4.47,0,1,1,0,8.92H258.9Zm2.83,8.24a3.6,3.6,0,0,0,2.73-.95,4,4,0,0,0,.92-2.84q0-3.76-3.65-3.77h-2.05v7.56Z" fill="#444"/><path d="M268.44,206.74v0a2.84,2.84,0,0,0,.59,1.93,2.12,2.12,0,0,0,1.7.67,3.18,3.18,0,0,0,2.06-.77l.3.6a3,3,0,0,1-1,.62,3.93,3.93,0,0,1-1.31.23,3,3,0,0,1-2.26-.86,3.32,3.32,0,0,1-.83-2.39,3.83,3.83,0,0,1,.37-1.7,2.73,2.73,0,0,1,1-1.16,2.85,2.85,0,0,1,1.52-.4,2.41,2.41,0,0,1,1.94.8,3.29,3.29,0,0,1,.7,2.23v.16Zm.73-2.05a2.43,2.43,0,0,0-.67,1.46h4a2.35,2.35,0,0,0-.56-1.47,1.79,1.79,0,0,0-1.35-.51A2,2,0,0,0,269.17,204.69Z" fill="#444"/><path d="M274.47,209.22l.28-.59a3.28,3.28,0,0,0,1,.59,3.53,3.53,0,0,0,1.18.18,2.15,2.15,0,0,0,1.18-.27.89.89,0,0,0,.41-.79.87.87,0,0,0-.27-.67,2.12,2.12,0,0,0-.89-.39L276.3,207a2.31,2.31,0,0,1-1.18-.63,1.47,1.47,0,0,1-.44-1,1.58,1.58,0,0,1,.64-1.32,2.64,2.64,0,0,1,1.68-.49,3.53,3.53,0,0,1,1.23.21,2.4,2.4,0,0,1,.95.61l-.29.59a2.8,2.8,0,0,0-1.89-.75,2,2,0,0,0-1.13.29,1,1,0,0,0-.4.8,1,1,0,0,0,.26.69,1.72,1.72,0,0,0,.79.39l1.08.26c1.13.25,1.69.81,1.69,1.67a1.5,1.5,0,0,1-.65,1.27,2.88,2.88,0,0,1-1.75.48A3.38,3.38,0,0,1,274.47,209.22Z" fill="#444"/><path d="M281.94,201.1v1h-1v-1Zm-.91,2.6h.76V210H281Z" fill="#444"/><path d="M289.26,203.7V210a2.84,2.84,0,0,1-.67,2.06,2.64,2.64,0,0,1-2,.71,4.42,4.42,0,0,1-2.45-.68l.15-.67a4.81,4.81,0,0,0,1.13.52,4.23,4.23,0,0,0,1.18.15,1.85,1.85,0,0,0,1.42-.51,2.16,2.16,0,0,0,.48-1.51v-1.61a2.14,2.14,0,0,1-.85,1,2.53,2.53,0,0,1-1.35.34,2.78,2.78,0,0,1-1.47-.39,2.64,2.64,0,0,1-1-1.1,3.87,3.87,0,0,1,0-3.26,2.64,2.64,0,0,1,1-1.1,2.78,2.78,0,0,1,1.47-.38,2.65,2.65,0,0,1,1.35.32,2.1,2.1,0,0,1,.84.95V203.7Zm-1.32,4.74a2.63,2.63,0,0,0,.56-1.77,2.67,2.67,0,0,0-.56-1.8,1.89,1.89,0,0,0-1.53-.66,1.92,1.92,0,0,0-1.55.66,3.1,3.1,0,0,0,0,3.58,1.94,1.94,0,0,0,1.55.64A1.88,1.88,0,0,0,287.94,208.44Z" fill="#444"/><path d="M296.53,206v4h-.76V206a2,2,0,0,0-.39-1.38,1.5,1.5,0,0,0-1.19-.44,2,2,0,0,0-1.52.58,2.1,2.1,0,0,0-.57,1.55V210h-.76v-4.53a13,13,0,0,0-.1-1.74H292l.1,1.15a2,2,0,0,1,.87-1,2.59,2.59,0,0,1,1.32-.33C295.77,203.55,296.53,204.36,296.53,206Z" fill="#444"/><path d="M303.91,203.7V210h-.77v-1.2a2,2,0,0,1-.83,1,2.57,2.57,0,0,1-1.33.33,2.8,2.8,0,0,1-1.48-.39,2.62,2.62,0,0,1-1-1.13,4,4,0,0,1-.35-1.71,4,4,0,0,1,.35-1.72,2.76,2.76,0,0,1,1-1.16,2.65,2.65,0,0,1,1.46-.4,2.53,2.53,0,0,1,1.32.32,2.1,2.1,0,0,1,.84.95V203.7Zm-1.3,5a3.71,3.71,0,0,0,0-3.82,1.82,1.82,0,0,0-1.53-.68,1.85,1.85,0,0,0-1.54.69,3,3,0,0,0-.56,1.93,2.85,2.85,0,0,0,.56,1.88,1.87,1.87,0,0,0,1.55.67A1.84,1.84,0,0,0,302.61,208.71Z" fill="#444"/><path d="M307.05,204.31V208a1.47,1.47,0,0,0,.29,1,1.17,1.17,0,0,0,.85.29,2.2,2.2,0,0,0,.68-.11V210a3.75,3.75,0,0,1-.82.1,1.75,1.75,0,0,1-1.29-.47,1.84,1.84,0,0,1-.47-1.39v-3.88h-1.24v-.61h1.24V202l.76-.29v2h1.86v.61Z" fill="#444"/><path d="M311.11,201.1v1h-1v-1Zm-.9,2.6H311V210h-.75Z" fill="#444"/><path d="M314,209.66a2.69,2.69,0,0,1-1-1.14,3.89,3.89,0,0,1-.36-1.72,3.84,3.84,0,0,1,.36-1.71,2.58,2.58,0,0,1,1-1.14,2.8,2.8,0,0,1,1.52-.4,2.76,2.76,0,0,1,1.5.4,2.56,2.56,0,0,1,1,1.14,3.84,3.84,0,0,1,.36,1.71,3.89,3.89,0,0,1-.36,1.72,2.67,2.67,0,0,1-1,1.14,2.76,2.76,0,0,1-1.5.4A2.8,2.8,0,0,1,314,209.66Zm3-.95a2.9,2.9,0,0,0,.55-1.91,3,3,0,0,0-.55-1.91,2.07,2.07,0,0,0-3.07,0,3,3,0,0,0-.55,1.91,3,3,0,0,0,.53,1.92,1.89,1.89,0,0,0,1.55.66A1.86,1.86,0,0,0,317.09,208.71Z" fill="#444"/><path d="M325.29,206v4h-.76V206a2.09,2.09,0,0,0-.38-1.38,1.53,1.53,0,0,0-1.2-.44,2,2,0,0,0-1.52.58,2.1,2.1,0,0,0-.57,1.55V210h-.76v-4.53a13,13,0,0,0-.1-1.74h.73l.1,1.15a2,2,0,0,1,.87-1,2.59,2.59,0,0,1,1.32-.33C324.54,203.55,325.29,204.36,325.29,206Z" fill="#444"/><path d="M329.5,206.34h6.33v.55H329.5Z" fill="#444"/></g><g style="isolation:isolate"><path d="M131.83,225.6H131l-1.12-3a1.41,1.41,0,0,0-.59-.81,2.26,2.26,0,0,0-1.09-.21h-2.49v4H125v-8.92h3.45a3.28,3.28,0,0,1,2.15.63,2.21,2.21,0,0,1,.77,1.81,2.31,2.31,0,0,1-.46,1.45,2.46,2.46,0,0,1-1.31.83,1.21,1.21,0,0,1,.66.32,2.07,2.07,0,0,1,.47.78Zm-3.47-4.66q2.19,0,2.19-1.83t-2.19-1.77h-2.63v3.6Z" fill="#444"/><path d="M133.87,222.36v0a2.86,2.86,0,0,0,.58,1.94,2.16,2.16,0,0,0,1.7.67,3.18,3.18,0,0,0,2.07-.78l.3.6a3,3,0,0,1-1.06.62,3.65,3.65,0,0,1-1.31.23,3,3,0,0,1-2.25-.86,3.27,3.27,0,0,1-.83-2.38,3.77,3.77,0,0,1,.37-1.71,2.68,2.68,0,0,1,1-1.15,2.87,2.87,0,0,1,1.53-.41,2.42,2.42,0,0,1,1.93.8,3.28,3.28,0,0,1,.7,2.23v.16Zm.73-2a2.41,2.41,0,0,0-.68,1.46h4a2.3,2.3,0,0,0-.56-1.48,1.76,1.76,0,0,0-1.34-.5A1.91,1.91,0,0,0,134.6,220.32Z" fill="#444"/><path d="M145.6,219.32v6.28h-.77v-1.21a2,2,0,0,1-.83,1,2.59,2.59,0,0,1-1.34.33,2.74,2.74,0,0,1-1.47-.39,2.59,2.59,0,0,1-1-1.13,4,4,0,0,1-.34-1.71,4.06,4.06,0,0,1,.35-1.72,2.64,2.64,0,0,1,1-1.15,2.68,2.68,0,0,1,1.46-.41,2.6,2.6,0,0,1,1.33.33,2,2,0,0,1,.84.95v-1.13Zm-1.31,5a3,3,0,0,0,.54-1.9,3,3,0,0,0-.54-1.92,1.85,1.85,0,0,0-1.53-.68,1.87,1.87,0,0,0-1.54.7,3,3,0,0,0-.55,1.92,3,3,0,0,0,.55,1.89,1.93,1.93,0,0,0,1.56.67A1.82,1.82,0,0,0,144.29,224.33Z" fill="#444"/><path d="M153,216.38v9.22h-.77v-1.21a2,2,0,0,1-.83,1,2.57,2.57,0,0,1-1.33.33,2.65,2.65,0,0,1-1.46-.4,2.82,2.82,0,0,1-1-1.16,4,4,0,0,1-.35-1.72,4,4,0,0,1,.35-1.71,2.58,2.58,0,0,1,1-1.13,2.74,2.74,0,0,1,1.47-.39,2.54,2.54,0,0,1,1.32.33,2,2,0,0,1,.84.95v-4.07Zm-1.3,8a3,3,0,0,0,.53-1.9,3.06,3.06,0,0,0-.53-1.91,1.82,1.82,0,0,0-1.52-.69,1.88,1.88,0,0,0-1.55.68,2.9,2.9,0,0,0-.55,1.89,3,3,0,0,0,.55,1.92,2.06,2.06,0,0,0,3.07,0Z" fill="#444"/><path d="M160.4,219.32l-3,6.93a3.68,3.68,0,0,1-1.1,1.51,4.13,4.13,0,0,1-1.65.68l-.15-.6a3.82,3.82,0,0,0,1.36-.55,2.51,2.51,0,0,0,.77-1.07l.26-.61-2.68-6.29h.82l2.27,5.51,2.27-5.51Z" fill="#444"/></g></g><rect x="92.46" y="81.28" width="170.54" height="38.98" fill="none"/><g style="isolation:isolate"><path d="M100.5,93.3l-2.12-3c-.27,0-.47,0-.62,0H95.32v3H93.91V83.43h3.85a4.57,4.57,0,0,1,3,.92,3.11,3.11,0,0,1,1.1,2.52,3.31,3.31,0,0,1-.56,1.94A3.14,3.14,0,0,1,99.7,90L102,93.3Zm-.74-4.78a2,2,0,0,0,.7-1.65,2,2,0,0,0-.7-1.64,3.19,3.19,0,0,0-2.05-.57H95.32V89.1h2.39A3.19,3.19,0,0,0,99.76,88.52Z" fill="#3e8eb2"/><path d="M110.68,90h-6.06a2.34,2.34,0,0,0,.86,1.59,2.85,2.85,0,0,0,1.84.6,2.76,2.76,0,0,0,2.16-.9l.75.87a3.38,3.38,0,0,1-1.26.9,4.75,4.75,0,0,1-3.79-.18,3.36,3.36,0,0,1-1.41-1.36,3.82,3.82,0,0,1-.5-2,4,4,0,0,1,.48-2,3.57,3.57,0,0,1,1.34-1.36,3.85,3.85,0,0,1,1.92-.48,3.76,3.76,0,0,1,1.91.48,3.43,3.43,0,0,1,1.31,1.36,4.11,4.11,0,0,1,.48,2A3.58,3.58,0,0,1,110.68,90Zm-5.29-2.52a2.34,2.34,0,0,0-.77,1.55h4.79a2.4,2.4,0,0,0-.77-1.54,2.52,2.52,0,0,0-3.25,0Z" fill="#3e8eb2"/><path d="M117.46,86.52a2.92,2.92,0,0,1,.83,2.27V93.3H117v-1a2.2,2.2,0,0,1-1,.8,3.74,3.74,0,0,1-1.49.27,3.06,3.06,0,0,1-2-.61,1.92,1.92,0,0,1-.76-1.59,2,2,0,0,1,.72-1.58,3.53,3.53,0,0,1,2.28-.6h2.15v-.27a1.73,1.73,0,0,0-.51-1.34,2.16,2.16,0,0,0-1.5-.46,3.8,3.8,0,0,0-1.29.22,3.22,3.22,0,0,0-1.07.58l-.57-1a4.29,4.29,0,0,1,1.38-.71,6,6,0,0,1,1.71-.24A3.36,3.36,0,0,1,117.46,86.52ZM116.12,92a2,2,0,0,0,.82-1V90h-2.09c-1.15,0-1.72.39-1.72,1.16a1,1,0,0,0,.44.88,2,2,0,0,0,1.21.33A2.52,2.52,0,0,0,116.12,92Z" fill="#3e8eb2"/><path d="M127.89,82.84V93.3h-1.3V92.11a2.91,2.91,0,0,1-1.14,1,3.63,3.63,0,0,1-1.52.32,3.91,3.91,0,0,1-2-.48,3.55,3.55,0,0,1-1.35-1.34,4.39,4.39,0,0,1,0-4A3.52,3.52,0,0,1,122,86.24a3.91,3.91,0,0,1,2-.48,3.66,3.66,0,0,1,1.48.3,2.86,2.86,0,0,1,1.12.89V82.84Zm-2.57,9a2.24,2.24,0,0,0,.9-.93,3,3,0,0,0,0-2.75,2.24,2.24,0,0,0-.9-.93,2.74,2.74,0,0,0-2.57,0,2.37,2.37,0,0,0-.9.93,3,3,0,0,0,0,2.75,2.37,2.37,0,0,0,.9.93,2.67,2.67,0,0,0,2.57,0Z" fill="#3e8eb2"/><path d="M130.47,84.14a.88.88,0,0,1,0-1.25,1,1,0,0,1,1.31,0,.8.8,0,0,1,.26.62.84.84,0,0,1-.26.64.89.89,0,0,1-.65.26A.91.91,0,0,1,130.47,84.14Zm0,1.69h1.35V93.3h-1.35Z" fill="#3e8eb2"/><path d="M140.63,86.58a3.25,3.25,0,0,1,.84,2.42v4.3h-1.35V89.15a2.31,2.31,0,0,0-.52-1.63,2,2,0,0,0-1.5-.55,2.31,2.31,0,0,0-1.73.64,2.52,2.52,0,0,0-.64,1.84V93.3h-1.35V85.83h1.3V87a2.6,2.6,0,0,1,1.1-.88,3.86,3.86,0,0,1,1.59-.31A3.08,3.08,0,0,1,140.63,86.58Z" fill="#3e8eb2"/><path d="M150.74,90h-6.06a2.39,2.39,0,0,0,.87,1.59,2.83,2.83,0,0,0,1.84.6,2.79,2.79,0,0,0,2.16-.9l.74.87a3.38,3.38,0,0,1-1.26.9,4.73,4.73,0,0,1-3.78-.18,3.39,3.39,0,0,1-1.42-1.36,4.15,4.15,0,0,1,0-3.93,3.5,3.5,0,0,1,1.34-1.36,4.06,4.06,0,0,1,3.83,0,3.5,3.5,0,0,1,1.31,1.36,4.22,4.22,0,0,1,.47,2A3.58,3.58,0,0,1,150.74,90Zm-5.29-2.52a2.38,2.38,0,0,0-.77,1.55h4.8a2.45,2.45,0,0,0-.77-1.54,2.33,2.33,0,0,0-1.63-.6A2.37,2.37,0,0,0,145.45,87.49Z" fill="#3e8eb2"/><path d="M153,93.13a3.83,3.83,0,0,1-1.33-.62l.57-1.07a4,4,0,0,0,1.19.56,5,5,0,0,0,1.43.21c1.18,0,1.77-.34,1.77-1a.66.66,0,0,0-.24-.54,1.53,1.53,0,0,0-.6-.29c-.24-.06-.58-.13-1-.2a9.68,9.68,0,0,1-1.47-.33,2.25,2.25,0,0,1-1-.62,1.73,1.73,0,0,1-.41-1.22,1.91,1.91,0,0,1,.85-1.63,3.77,3.77,0,0,1,2.27-.61,6.39,6.39,0,0,1,1.49.18,4.15,4.15,0,0,1,1.23.49l-.58,1.07a3.93,3.93,0,0,0-2.16-.59,2.58,2.58,0,0,0-1.31.28.86.86,0,0,0-.45.75.7.7,0,0,0,.25.58,1.69,1.69,0,0,0,.63.31c.25.07.6.14,1.05.22a12,12,0,0,1,1.46.34,2.1,2.1,0,0,1,1,.59,1.71,1.71,0,0,1,.4,1.19,1.87,1.87,0,0,1-.87,1.61,4.1,4.1,0,0,1-2.36.6A6,6,0,0,1,153,93.13Z" fill="#3e8eb2"/><path d="M160.09,93.13a3.83,3.83,0,0,1-1.33-.62l.57-1.07a4,4,0,0,0,1.19.56,5,5,0,0,0,1.43.21c1.18,0,1.77-.34,1.77-1a.66.66,0,0,0-.24-.54,1.53,1.53,0,0,0-.6-.29c-.24-.06-.58-.13-1-.2a9.68,9.68,0,0,1-1.47-.33,2.25,2.25,0,0,1-1-.62A1.73,1.73,0,0,1,159,88a1.91,1.91,0,0,1,.85-1.63,3.77,3.77,0,0,1,2.27-.61,6.39,6.39,0,0,1,1.49.18,4.15,4.15,0,0,1,1.23.49l-.58,1.07a3.93,3.93,0,0,0-2.16-.59,2.58,2.58,0,0,0-1.31.28.86.86,0,0,0-.45.75.7.7,0,0,0,.25.58,1.69,1.69,0,0,0,.63.31c.25.07.6.14,1.05.22a12,12,0,0,1,1.46.34,2.1,2.1,0,0,1,1,.59,1.71,1.71,0,0,1,.4,1.19,1.87,1.87,0,0,1-.87,1.61,4.1,4.1,0,0,1-2.36.6A6,6,0,0,1,160.09,93.13Z" fill="#3e8eb2"/><path d="M177,90.83H171.8l-1.09,2.47h-1.45l4.47-9.87h1.39l4.49,9.87h-1.48Zm-.49-1.13-2.13-4.83-2.13,4.83Z" fill="#3e8eb2"/><path d="M181.18,93.13a3.87,3.87,0,0,1-1.32-.62l.56-1.07a4.17,4.17,0,0,0,1.2.56,4.93,4.93,0,0,0,1.42.21c1.19,0,1.78-.34,1.78-1a.66.66,0,0,0-.24-.54,1.53,1.53,0,0,0-.6-.29c-.24-.06-.58-.13-1-.2a9.68,9.68,0,0,1-1.47-.33,2.25,2.25,0,0,1-1-.62A1.69,1.69,0,0,1,180.1,88a1.92,1.92,0,0,1,.84-1.63,3.79,3.79,0,0,1,2.27-.61,6.41,6.41,0,0,1,1.5.18,4.08,4.08,0,0,1,1.22.49l-.57,1.07a4,4,0,0,0-2.16-.59,2.58,2.58,0,0,0-1.31.28.86.86,0,0,0-.45.75.7.7,0,0,0,.25.58,1.69,1.69,0,0,0,.63.31c.25.07.6.14,1.05.22a12,12,0,0,1,1.46.34,2.1,2.1,0,0,1,.95.59,1.71,1.71,0,0,1,.39,1.19,1.88,1.88,0,0,1-.86,1.61,4.1,4.1,0,0,1-2.36.6A6.11,6.11,0,0,1,181.18,93.13Z" fill="#3e8eb2"/><path d="M188.24,93.13a3.87,3.87,0,0,1-1.32-.62l.56-1.07a4.17,4.17,0,0,0,1.2.56,4.93,4.93,0,0,0,1.42.21c1.19,0,1.78-.34,1.78-1a.66.66,0,0,0-.24-.54,1.53,1.53,0,0,0-.6-.29c-.24-.06-.58-.13-1-.2a9.68,9.68,0,0,1-1.47-.33,2.25,2.25,0,0,1-1-.62,1.69,1.69,0,0,1-.41-1.22,1.92,1.92,0,0,1,.84-1.63,3.79,3.79,0,0,1,2.27-.61,6.41,6.41,0,0,1,1.5.18,4.08,4.08,0,0,1,1.22.49l-.57,1.07a4,4,0,0,0-2.16-.59,2.58,2.58,0,0,0-1.31.28.86.86,0,0,0-.45.75.7.7,0,0,0,.25.58,1.69,1.69,0,0,0,.63.31c.25.07.6.14,1.05.22a12,12,0,0,1,1.46.34,2.1,2.1,0,0,1,1,.59,1.71,1.71,0,0,1,.39,1.19,1.88,1.88,0,0,1-.86,1.61,4.1,4.1,0,0,1-2.36.6A6.11,6.11,0,0,1,188.24,93.13Z" fill="#3e8eb2"/><path d="M201.65,90h-6.06a2.34,2.34,0,0,0,.86,1.59,2.85,2.85,0,0,0,1.84.6,2.79,2.79,0,0,0,2.16-.9l.75.87a3.34,3.34,0,0,1-1.27.9,4.73,4.73,0,0,1-3.78-.18,3.45,3.45,0,0,1-1.42-1.36,3.92,3.92,0,0,1-.5-2,4,4,0,0,1,.49-2,3.5,3.5,0,0,1,1.34-1.36,3.85,3.85,0,0,1,1.92-.48,3.76,3.76,0,0,1,1.91.48,3.43,3.43,0,0,1,1.31,1.36,4.1,4.1,0,0,1,.47,2A3.26,3.26,0,0,1,201.65,90Zm-5.3-2.52a2.37,2.37,0,0,0-.76,1.55h4.79a2.4,2.4,0,0,0-.77-1.54,2.33,2.33,0,0,0-1.63-.6A2.37,2.37,0,0,0,196.35,87.49Z" fill="#3e8eb2"/><path d="M203.93,93.13a3.92,3.92,0,0,1-1.33-.62l.57-1.07a4.17,4.17,0,0,0,1.2.56,4.93,4.93,0,0,0,1.42.21c1.18,0,1.77-.34,1.77-1a.68.68,0,0,0-.23-.54,1.53,1.53,0,0,0-.6-.29c-.24-.06-.58-.13-1-.2a9.68,9.68,0,0,1-1.47-.33,2.25,2.25,0,0,1-1-.62,1.73,1.73,0,0,1-.41-1.22,1.93,1.93,0,0,1,.85-1.63,3.77,3.77,0,0,1,2.27-.61,6.32,6.32,0,0,1,1.49.18,4.15,4.15,0,0,1,1.23.49l-.58,1.07a3.93,3.93,0,0,0-2.16-.59,2.58,2.58,0,0,0-1.31.28.86.86,0,0,0-.45.75.71.71,0,0,0,.26.58,1.64,1.64,0,0,0,.62.31c.25.07.6.14,1.05.22a12,12,0,0,1,1.46.34,2.1,2.1,0,0,1,1,.59,1.66,1.66,0,0,1,.4,1.19,1.87,1.87,0,0,1-.87,1.61,4.08,4.08,0,0,1-2.36.6A6,6,0,0,1,203.93,93.13Z" fill="#3e8eb2"/><path d="M211,93.13a3.78,3.78,0,0,1-1.32-.62l.56-1.07a4.17,4.17,0,0,0,1.2.56,4.93,4.93,0,0,0,1.42.21c1.18,0,1.78-.34,1.78-1a.66.66,0,0,0-.24-.54,1.53,1.53,0,0,0-.6-.29c-.24-.06-.58-.13-1-.2a9.56,9.56,0,0,1-1.48-.33,2.31,2.31,0,0,1-1-.62A1.73,1.73,0,0,1,209.9,88a1.93,1.93,0,0,1,.85-1.63,3.77,3.77,0,0,1,2.27-.61,6.32,6.32,0,0,1,1.49.18,4.15,4.15,0,0,1,1.23.49l-.58,1.07a3.93,3.93,0,0,0-2.16-.59,2.58,2.58,0,0,0-1.31.28.86.86,0,0,0-.45.75.71.71,0,0,0,.26.58,1.72,1.72,0,0,0,.62.31c.25.07.6.14,1,.22a11.53,11.53,0,0,1,1.46.34,2.1,2.1,0,0,1,1,.59,1.66,1.66,0,0,1,.4,1.19,1.87,1.87,0,0,1-.87,1.61,4.08,4.08,0,0,1-2.36.6A6,6,0,0,1,211,93.13Z" fill="#3e8eb2"/><path d="M229.25,86.57a3.29,3.29,0,0,1,.82,2.43v4.3h-1.35V89.15a2.35,2.35,0,0,0-.5-1.63,1.83,1.83,0,0,0-1.43-.55,2.15,2.15,0,0,0-1.64.64,2.6,2.6,0,0,0-.6,1.84V93.3h-1.36V89.15a2.31,2.31,0,0,0-.5-1.63,1.82,1.82,0,0,0-1.43-.55,2.12,2.12,0,0,0-1.63.64,2.56,2.56,0,0,0-.61,1.84V93.3h-1.35V85.83H219v1.11a2.64,2.64,0,0,1,1.07-.88,3.6,3.6,0,0,1,1.51-.3,3.28,3.28,0,0,1,1.55.35,2.46,2.46,0,0,1,1,1,2.92,2.92,0,0,1,1.17-1,3.92,3.92,0,0,1,1.7-.36A3.06,3.06,0,0,1,229.25,86.57Z" fill="#3e8eb2"/><path d="M239.33,90h-6.06a2.31,2.31,0,0,0,.87,1.59,2.81,2.81,0,0,0,1.84.6,2.76,2.76,0,0,0,2.15-.9l.75.87a3.38,3.38,0,0,1-1.26.9,4.75,4.75,0,0,1-3.79-.18,3.36,3.36,0,0,1-1.41-1.36,3.82,3.82,0,0,1-.5-2,4,4,0,0,1,.48-2,3.57,3.57,0,0,1,1.34-1.36,3.86,3.86,0,0,1,1.93-.48,3.79,3.79,0,0,1,1.91.48,3.57,3.57,0,0,1,1.31,1.36,4.22,4.22,0,0,1,.47,2A3.58,3.58,0,0,1,239.33,90ZM234,87.49a2.38,2.38,0,0,0-.77,1.55h4.79a2.36,2.36,0,0,0-.77-1.54,2.3,2.3,0,0,0-1.62-.6A2.37,2.37,0,0,0,234,87.49Z" fill="#3e8eb2"/><path d="M247.48,86.58a3.25,3.25,0,0,1,.84,2.42v4.3H247V89.15a2.31,2.31,0,0,0-.52-1.63A2,2,0,0,0,245,87a2.31,2.31,0,0,0-1.73.64,2.52,2.52,0,0,0-.63,1.84V93.3h-1.36V85.83h1.3V87a2.57,2.57,0,0,1,1.11-.88,3.78,3.78,0,0,1,1.58-.31A3.08,3.08,0,0,1,247.48,86.58Z" fill="#3e8eb2"/><path d="M255,92.86a2,2,0,0,1-.73.39,3.08,3.08,0,0,1-.91.13,2.35,2.35,0,0,1-1.74-.61A2.28,2.28,0,0,1,251,91v-4.1h-1.27V85.83H251V84.19h1.35v1.64h2.14v1.11h-2.14v4a1.33,1.33,0,0,0,.3.93,1.15,1.15,0,0,0,.87.32,1.67,1.67,0,0,0,1.06-.35Z" fill="#3e8eb2"/></g><g style="isolation:isolate"><path d="M92.65,109.71c0-.3,0-.59,0-.88a11.6,11.6,0,0,1,1.54-4.89h.62a13.57,13.57,0,0,0-1,2.52,12.29,12.29,0,0,0-.42,2.37c0,.3,0,.61,0,.92a12,12,0,0,0,.72,4h-.57A10.11,10.11,0,0,1,92.65,109.71Z" fill="#444"/><path d="M97.06,111.39a2.86,2.86,0,0,1-1.17-1.26,4.38,4.38,0,0,1-.41-1.95,5.64,5.64,0,0,1,.44-2.29,3.29,3.29,0,0,1,3.14-2,3.59,3.59,0,0,1,1.81.44,2.83,2.83,0,0,1,1.18,1.26,4.38,4.38,0,0,1,.4,2,5.41,5.41,0,0,1-.44,2.29,3.26,3.26,0,0,1-3.14,2A3.59,3.59,0,0,1,97.06,111.39Zm3.34-.62a2.82,2.82,0,0,0,1-1.28,5.21,5.21,0,0,0,.34-2,3.29,3.29,0,0,0-.69-2.25,2.5,2.5,0,0,0-2-.79,2.62,2.62,0,0,0-1.54.45,2.84,2.84,0,0,0-1,1.29,5.21,5.21,0,0,0-.35,2,3.28,3.28,0,0,0,.7,2.24,2.53,2.53,0,0,0,2,.78A2.59,2.59,0,0,0,100.4,110.77Z" fill="#444"/><path d="M107.86,106.44a2.21,2.21,0,0,1,.83.93,3.1,3.1,0,0,1,.3,1.4,3.66,3.66,0,0,1-.33,1.6,2.38,2.38,0,0,1-2.24,1.45,2.25,2.25,0,0,1-1.18-.3,1.85,1.85,0,0,1-.74-.85l-.27,3.44h-.66l.51-6.34c0-.3,0-.64,0-1,0-.22,0-.39,0-.5h.62v.94a2,2,0,0,1,.78-.79,2.3,2.3,0,0,1,1.12-.28A2.34,2.34,0,0,1,107.86,106.44Zm-.06,4.13a3,3,0,0,0,.5-1.82,2.27,2.27,0,0,0-.47-1.52,1.62,1.62,0,0,0-1.3-.54,1.66,1.66,0,0,0-1.4.67,3,3,0,0,0-.51,1.84,2.28,2.28,0,0,0,.46,1.52,1.73,1.73,0,0,0,1.34.52A1.62,1.62,0,0,0,107.8,110.57Z" fill="#444"/><path d="M111.3,110.05a1.35,1.35,0,0,0,0,.22.8.8,0,0,0,.91,1,1.82,1.82,0,0,0,.59-.1l0,.59a2.71,2.71,0,0,1-.71.09,1.49,1.49,0,0,1-1-.35,1.4,1.4,0,0,1-.38-1.06,1.15,1.15,0,0,1,0-.2l.26-3.41h-1.08l0-.54h1.09l.11-1.46.68-.25-.14,1.71h1.63l0,.54h-1.62Z" fill="#444"/><path d="M114.38,106.25h.67l-.44,5.49h-.67Zm.94-2.27-.07.86h-.88l.06-.86Z" fill="#444"/><path d="M117.45,111.49a2.19,2.19,0,0,1-.85-.93,3.06,3.06,0,0,1-.3-1.39,3.7,3.7,0,0,1,.32-1.61,2.45,2.45,0,0,1,.92-1.06,2.37,2.37,0,0,1,1.35-.38,2.48,2.48,0,0,1,1.29.33,2.19,2.19,0,0,1,.86.92,3.1,3.1,0,0,1,.3,1.4,3.81,3.81,0,0,1-.32,1.6,2.57,2.57,0,0,1-3.57,1.12Zm2.71-.92a3,3,0,0,0,.5-1.83,2.24,2.24,0,0,0-.47-1.51,1.8,1.8,0,0,0-2.69.13,3,3,0,0,0-.51,1.84,2.23,2.23,0,0,0,.46,1.52,1.7,1.7,0,0,0,1.34.52A1.63,1.63,0,0,0,120.16,110.57Z" fill="#444"/><path d="M126.91,106.58a1.83,1.83,0,0,1,.49,1.39,2.45,2.45,0,0,1,0,.3l-.28,3.47h-.65l.27-3.43a1.86,1.86,0,0,0,0-.26,1.39,1.39,0,0,0-.33-1,1.34,1.34,0,0,0-1-.33,1.84,1.84,0,0,0-1.35.49,2.07,2.07,0,0,0-.56,1.37l-.25,3.18h-.67l.32-4c0-.3,0-.64,0-1,0-.22,0-.39,0-.5h.62v1a1.94,1.94,0,0,1,.78-.8,2.3,2.3,0,0,1,1.15-.28A2,2,0,0,1,126.91,106.58Z" fill="#444"/><path d="M134,106.25l-.44,5.49h-.64l.07-.95a1.8,1.8,0,0,1-.77.75,2.22,2.22,0,0,1-1.1.28,2.18,2.18,0,0,1-2-1.26,3.25,3.25,0,0,1-.29-1.41,3.79,3.79,0,0,1,.32-1.59,2.39,2.39,0,0,1,2.25-1.44,2.37,2.37,0,0,1,1.18.29,1.89,1.89,0,0,1,.74.84l.07-1Zm-1.36,4.32a3,3,0,0,0,.51-1.83,2.29,2.29,0,0,0-.46-1.53,1.87,1.87,0,0,0-2.72.14,3,3,0,0,0-.5,1.84,2.29,2.29,0,0,0,.46,1.51,1.65,1.65,0,0,0,1.32.54A1.68,1.68,0,0,0,132.66,110.57Z" fill="#444"/><path d="M136.05,103.67h.67l-.65,8.07h-.67Z" fill="#444"/><path d="M138.76,110.79l-.06.73a2,2,0,0,1-.19.75,1.8,1.8,0,0,1-.49.64l-.34-.27a1.82,1.82,0,0,0,.52-.9h-.44l.06-.95Z" fill="#444"/><path d="M147.23,106.44a2.21,2.21,0,0,1,.83.93,3.1,3.1,0,0,1,.3,1.4,3.66,3.66,0,0,1-.33,1.6,2.38,2.38,0,0,1-2.24,1.45,2.26,2.26,0,0,1-1.17-.3,1.76,1.76,0,0,1-.74-.83l-.08,1h-.67l.65-8.07h.65l-.27,3.45a1.89,1.89,0,0,1,.77-.74,2.43,2.43,0,0,1,2.3.06Zm-.06,4.13a2.92,2.92,0,0,0,.51-1.82,2.27,2.27,0,0,0-.47-1.52,1.83,1.83,0,0,0-2.71.13,3,3,0,0,0-.51,1.84,2.28,2.28,0,0,0,.46,1.52,1.73,1.73,0,0,0,1.34.52A1.61,1.61,0,0,0,147.17,110.57Z" fill="#444"/><path d="M154.46,106.25l-.43,5.49h-.64l.07-1a2,2,0,0,1-.77.77,2.2,2.2,0,0,1-1.09.27,1.91,1.91,0,0,1-1.39-.48,1.88,1.88,0,0,1-.48-1.39,2.1,2.1,0,0,1,0-.28l.27-3.42h.66l-.26,3.36a1.94,1.94,0,0,0,0,.27c0,.9.43,1.36,1.29,1.36a1.76,1.76,0,0,0,1.3-.5,2.08,2.08,0,0,0,.56-1.38l.25-3.11Z" fill="#444"/><path d="M156.91,110.05a1.35,1.35,0,0,0,0,.22,1,1,0,0,0,.23.75,1,1,0,0,0,.68.21,1.87,1.87,0,0,0,.59-.1l-.05.59a2.63,2.63,0,0,1-.7.09,1.53,1.53,0,0,1-1.05-.35,1.4,1.4,0,0,1-.37-1.06,1.15,1.15,0,0,1,0-.2l.26-3.41h-1.08l0-.54h1.08l.11-1.46.68-.25-.13,1.71h1.62l0,.54h-1.62Z" fill="#444"/><path d="M166.66,106.58a1.86,1.86,0,0,1,.48,1.39,2.45,2.45,0,0,1,0,.3l-.27,3.47h-.66l.28-3.43c0-.06,0-.15,0-.26a1.39,1.39,0,0,0-.33-1,1.35,1.35,0,0,0-1-.33,1.81,1.81,0,0,0-1.34.49,2.08,2.08,0,0,0-.57,1.37l-.25,3.18h-.67l.64-8.07h.67l-.28,3.46a1.8,1.8,0,0,1,.77-.75,2.29,2.29,0,0,1,1.12-.26A2,2,0,0,1,166.66,106.58Z" fill="#444"/><path d="M169.12,106.25h.67l-.44,5.49h-.67Zm.94-2.27-.07.86h-.88l.06-.86Z" fill="#444"/><path d="M176.3,106.25l-.44,5.51a2.28,2.28,0,0,1-2.47,2.43,3.89,3.89,0,0,1-2.15-.61l.19-.58a3.62,3.62,0,0,0,.95.47,3.56,3.56,0,0,0,1,.13c1.11,0,1.71-.6,1.81-1.82l.11-1.24a1.82,1.82,0,0,1-.77.76,2.34,2.34,0,0,1-1.11.28,2.27,2.27,0,0,1-1.75-.69,2.61,2.61,0,0,1-.64-1.86,3.58,3.58,0,0,1,.31-1.53,2.44,2.44,0,0,1,.91-1,2.52,2.52,0,0,1,1.35-.36,2.42,2.42,0,0,1,1.2.29,1.83,1.83,0,0,1,.74.84l.08-1Zm-1.36,4.11a2.65,2.65,0,0,0,.51-1.72,2.06,2.06,0,0,0-.47-1.44,1.73,1.73,0,0,0-1.33-.51,1.71,1.71,0,0,0-1.4.63,2.69,2.69,0,0,0-.51,1.74,2,2,0,0,0,.46,1.43,2,2,0,0,0,2.74-.13Z" fill="#444"/><path d="M182,106.58a1.83,1.83,0,0,1,.49,1.39,2.45,2.45,0,0,1,0,.3l-.28,3.47h-.65l.27-3.43a1.86,1.86,0,0,0,0-.26,1.39,1.39,0,0,0-.33-1,1.34,1.34,0,0,0-1-.33,1.84,1.84,0,0,0-1.35.49,2.07,2.07,0,0,0-.56,1.37l-.25,3.18h-.67l.63-8.07H179l-.27,3.46a1.8,1.8,0,0,1,.77-.75,2.25,2.25,0,0,1,1.11-.26A2,2,0,0,1,182,106.58Z" fill="#444"/><path d="M184.67,103.67h.67l-.65,8.07H184Z" fill="#444"/><path d="M191.61,106.25l-3.08,6.06a3.52,3.52,0,0,1-1.06,1.33,4.11,4.11,0,0,1-1.46.59l-.1-.54a3.38,3.38,0,0,0,1.21-.48,2.55,2.55,0,0,0,.75-.92l.29-.53-1.92-5.51h.68l1.62,4.83,2.38-4.83Z" fill="#444"/><path d="M198.35,106.16l-.07.59a2.37,2.37,0,0,0-.49,0,1.58,1.58,0,0,0-1.29.54,2.11,2.11,0,0,0-.5,1.27l-.26,3.22h-.67l.32-4c0-.48,0-.84,0-1.09s0-.34,0-.43h.63v.9a1.89,1.89,0,0,1,.75-.76,2.21,2.21,0,0,1,1.07-.27A2.05,2.05,0,0,1,198.35,106.16Z" fill="#444"/><path d="M199.36,108.91a2.19,2.19,0,0,0,0,.29,2.22,2.22,0,0,0,.47,1.49,1.72,1.72,0,0,0,1.38.55,3.08,3.08,0,0,0,1-.17,2.68,2.68,0,0,0,.87-.49l.22.5a2.28,2.28,0,0,1-.91.53,3.5,3.5,0,0,1-1.18.21,2.42,2.42,0,0,1-1.85-.72,2.65,2.65,0,0,1-.68-1.92,3.66,3.66,0,0,1,.33-1.6,2.52,2.52,0,0,1,.93-1.08,2.67,2.67,0,0,1,1.42-.38,2.19,2.19,0,0,1,1.63.59,2.27,2.27,0,0,1,.6,1.7,2.89,2.89,0,0,1,0,.5Zm.72-1.8a2.29,2.29,0,0,0-.67,1.29H203a1.73,1.73,0,0,0-.4-1.29,1.54,1.54,0,0,0-1.16-.46A1.9,1.9,0,0,0,200.08,107.11Z" fill="#444"/><path d="M205.76,111.49a2.25,2.25,0,0,1-.85-.93,3,3,0,0,1-.3-1.38,3.72,3.72,0,0,1,.33-1.62,2.43,2.43,0,0,1,.94-1.06,2.64,2.64,0,0,1,1.45-.38,3.28,3.28,0,0,1,1.09.18,2.52,2.52,0,0,1,.86.54l-.3.52a3.06,3.06,0,0,0-.83-.51,2.2,2.2,0,0,0-.86-.16,1.75,1.75,0,0,0-1.46.67,2.84,2.84,0,0,0-.53,1.84,2.22,2.22,0,0,0,.47,1.49,1.66,1.66,0,0,0,1.35.55,2,2,0,0,0,.81-.16,3.33,3.33,0,0,0,.8-.5l.22.5a2.57,2.57,0,0,1-.85.54,2.84,2.84,0,0,1-1,.2A2.48,2.48,0,0,1,205.76,111.49Z" fill="#444"/><path d="M211.14,111.49a2.21,2.21,0,0,1-.86-.93,3.06,3.06,0,0,1-.3-1.39,3.85,3.85,0,0,1,.32-1.61,2.45,2.45,0,0,1,.92-1.06,2.38,2.38,0,0,1,1.36-.38,2.41,2.41,0,0,1,1.28.33,2.19,2.19,0,0,1,.86.92,3.1,3.1,0,0,1,.3,1.4,3.81,3.81,0,0,1-.32,1.6,2.43,2.43,0,0,1-2.28,1.45A2.41,2.41,0,0,1,211.14,111.49Zm2.7-.92a3,3,0,0,0,.5-1.83,2.24,2.24,0,0,0-.47-1.51,1.63,1.63,0,0,0-1.29-.54,1.65,1.65,0,0,0-1.4.67,3,3,0,0,0-.51,1.84,2.23,2.23,0,0,0,.46,1.52,1.72,1.72,0,0,0,1.34.52A1.63,1.63,0,0,0,213.84,110.57Z" fill="#444"/><path d="M223.84,106.57a1.85,1.85,0,0,1,.44,1.35,3.33,3.33,0,0,1,0,.35l-.27,3.47h-.65l.26-3.43a2.63,2.63,0,0,0,0-.33,1.41,1.41,0,0,0-.29-1,1.15,1.15,0,0,0-.89-.31,1.55,1.55,0,0,0-1.21.49,2.17,2.17,0,0,0-.52,1.38l-.25,3.17h-.66l.27-3.43a2.11,2.11,0,0,0,0-.3,1.48,1.48,0,0,0-.29-1,1.16,1.16,0,0,0-.89-.32,1.55,1.55,0,0,0-1.21.49,2.23,2.23,0,0,0-.52,1.38l-.25,3.17h-.67l.32-4c0-.46,0-.83,0-1.09s0-.34,0-.43h.63v.93a1.81,1.81,0,0,1,.7-.79,2.07,2.07,0,0,1,1.07-.27,1.51,1.51,0,0,1,1.65,1,1.82,1.82,0,0,1,.76-.77,2.26,2.26,0,0,1,1.12-.27A1.71,1.71,0,0,1,223.84,106.57Z" fill="#444"/><path d="M233.37,106.57a1.89,1.89,0,0,1,.44,1.35c0,.15,0,.27,0,.35l-.28,3.47h-.64l.26-3.43a3,3,0,0,0,0-.33,1.41,1.41,0,0,0-.28-1,1.15,1.15,0,0,0-.89-.31,1.57,1.57,0,0,0-1.22.49,2.16,2.16,0,0,0-.51,1.38l-.26,3.17h-.65l.27-3.43a2.45,2.45,0,0,0,0-.3,1.48,1.48,0,0,0-.29-1,1.14,1.14,0,0,0-.88-.32,1.57,1.57,0,0,0-1.22.49,2.16,2.16,0,0,0-.51,1.38l-.26,3.17h-.66l.31-4c0-.46,0-.83,0-1.09s0-.34,0-.43h.62v.93a1.83,1.83,0,0,1,.71-.79,2,2,0,0,1,1.07-.27,1.5,1.5,0,0,1,1.64,1,1.88,1.88,0,0,1,.76-.77,2.3,2.3,0,0,1,1.13-.27A1.71,1.71,0,0,1,233.37,106.57Z" fill="#444"/><path d="M235.89,108.91a2.71,2.71,0,0,0,.47,1.78,1.69,1.69,0,0,0,1.37.55,3,3,0,0,0,1-.17,2.83,2.83,0,0,0,.88-.49l.21.5a2.21,2.21,0,0,1-.91.53,3.46,3.46,0,0,1-1.18.21,2.42,2.42,0,0,1-1.85-.72,2.7,2.7,0,0,1-.68-1.92,3.66,3.66,0,0,1,.33-1.6,2.54,2.54,0,0,1,.94-1.08,2.62,2.62,0,0,1,1.42-.38,2.18,2.18,0,0,1,1.62.59,2.27,2.27,0,0,1,.6,1.7,4.32,4.32,0,0,1,0,.5Zm.72-1.8a2.28,2.28,0,0,0-.66,1.29h3.54a1.73,1.73,0,0,0-.41-1.29,1.52,1.52,0,0,0-1.16-.46A1.92,1.92,0,0,0,236.61,107.11Z" fill="#444"/><path d="M245.6,106.58a1.86,1.86,0,0,1,.48,1.39,2.45,2.45,0,0,1,0,.3l-.27,3.47h-.66l.28-3.43c0-.06,0-.15,0-.26a1.39,1.39,0,0,0-.33-1,1.35,1.35,0,0,0-1-.33,1.81,1.81,0,0,0-1.34.49,2.13,2.13,0,0,0-.57,1.37l-.25,3.18h-.67l.32-4c0-.3,0-.64,0-1,0-.22,0-.39,0-.5h.63v1a1.83,1.83,0,0,1,.78-.8,2.28,2.28,0,0,1,1.15-.28A2,2,0,0,1,245.6,106.58Z" fill="#444"/><path d="M252.89,103.67l-.63,8.07h-.65l.08-.94a1.88,1.88,0,0,1-.78.75,2.3,2.3,0,0,1-1.1.27,2.25,2.25,0,0,1-1.22-.33,2.12,2.12,0,0,1-.82-.93,3,3,0,0,1-.29-1.38,3.7,3.7,0,0,1,.32-1.61,2.58,2.58,0,0,1,.9-1.07,2.55,2.55,0,0,1,2.52-.09,1.81,1.81,0,0,1,.74.85l.28-3.59Zm-1.56,6.9a3,3,0,0,0,.51-1.83,2.24,2.24,0,0,0-.46-1.53,1.86,1.86,0,0,0-2.71.14,2.92,2.92,0,0,0-.5,1.82,2.26,2.26,0,0,0,.46,1.52,1.62,1.62,0,0,0,1.31.55A1.67,1.67,0,0,0,251.33,110.57Z" fill="#444"/><path d="M254.66,108.91a2.19,2.19,0,0,0,0,.29,2.17,2.17,0,0,0,.47,1.49,1.72,1.72,0,0,0,1.38.55,3,3,0,0,0,1-.17,2.62,2.62,0,0,0,.88-.49l.22.5a2.28,2.28,0,0,1-.91.53,3.54,3.54,0,0,1-1.18.21,2.44,2.44,0,0,1-1.86-.72,2.7,2.7,0,0,1-.68-1.92,3.66,3.66,0,0,1,.33-1.6,2.54,2.54,0,0,1,.94-1.08,2.67,2.67,0,0,1,1.42-.38,2.19,2.19,0,0,1,1.63.59,2.27,2.27,0,0,1,.6,1.7,4.38,4.38,0,0,1,0,.5Zm.72-1.8a2.23,2.23,0,0,0-.67,1.29h3.54a1.73,1.73,0,0,0-.4-1.29,1.56,1.56,0,0,0-1.17-.46A1.89,1.89,0,0,0,255.38,107.11Z" fill="#444"/><path d="M265.32,103.67l-.63,8.07H264l.08-.94a1.88,1.88,0,0,1-.78.75,2.3,2.3,0,0,1-1.1.27,2.25,2.25,0,0,1-1.22-.33,2.12,2.12,0,0,1-.82-.93,3,3,0,0,1-.29-1.38,3.7,3.7,0,0,1,.32-1.61,2.5,2.5,0,0,1,.9-1.07,2.55,2.55,0,0,1,2.52-.09,1.81,1.81,0,0,1,.74.85l.28-3.59Zm-1.56,6.9a3,3,0,0,0,.51-1.83,2.24,2.24,0,0,0-.46-1.53,1.86,1.86,0,0,0-2.71.14,2.92,2.92,0,0,0-.5,1.82,2.26,2.26,0,0,0,.46,1.52,1.62,1.62,0,0,0,1.31.55A1.67,1.67,0,0,0,263.76,110.57Z" fill="#444"/><path d="M265.8,113.74a14.35,14.35,0,0,0,1-2.54,11.74,11.74,0,0,0,.44-2.37c0-.3,0-.6,0-.89a12,12,0,0,0-.72-4h.58a10.14,10.14,0,0,1,.83,4c0,.28,0,.58,0,.88a10.39,10.39,0,0,1-.48,2.47,12.12,12.12,0,0,1-1.09,2.44Z" fill="#444"/></g><line x1="103.68" y1="135.14" x2="103.68" y2="192.82" fill="none" stroke="#3e8eb2" stroke-miterlimit="10" stroke-width="0.75"/><circle cx="103.68" cy="135.14" r="9.47" fill="#3e8eb2"/><path d="M105.59,132.56a.54.54,0,0,1-.5-.5V129h-4.82A1.28,1.28,0,0,0,99,130.24v9.89a1.28,1.28,0,0,0,1.25,1.24h7.23a1.28,1.28,0,0,0,1.25-1.24v-7.57Z" fill="#fff"/><path d="M105.59,132.56h3.16L105.17,129v3.16A.39.39,0,0,0,105.59,132.56Z" fill="#afd5e2"/><polygon points="108.75 135.14 108.75 132.56 105.59 132.56 108.75 135.14" fill="#f1f1f1"/><path d="M113.44,209.51a9.19,9.19,0,0,1-9.31,9.32h0c-4.66,0-9.31-4.64-9.31-9.32h0c0-4.63,4.65-9.32,9.31-9.32h0c4.65-1.18,9.31,3.5,9.31,9.32Z" fill="#b6322e"/><path d="M108.08,204.54c-2.66,1.24-4,3.9-5.23,6.31l-1.75-1.74a26,26,0,0,1-2.74,1.74l7.39,7.4a9.45,9.45,0,0,0,7.4-8.64Z" opacity="0.1" style="isolation:isolate"/><path d="M101,209.11a12.51,12.51,0,0,1,1.41,2.57c1.33-2.57,2.74-5.65,5.65-7.06a7.74,7.74,0,0,0-.08,3.91c-2.5,1.24-4.07,3.49-5.57,5.81a9.93,9.93,0,0,0-4.24-3.49,23.42,23.42,0,0,0,2.83-1.74Z" fill="#fff"/></g><rect x="53.31" width="350.56" height="290.89" fill="#4998b8" opacity="0.46" style="isolation:isolate"/><polygon points="53.31 286.9 41.59 271.61 53.31 271.61 53.31 286.9" fill="#3e8eb2"/><polygon points="403.87 286.9 415.51 271.61 403.87 271.61 403.87 286.9" fill="#3e8eb2"/><rect x="53.31" y="263.3" width="350.56" height="14.46" fill="#3e8eb2" opacity="0.6" style="isolation:isolate"/><rect x="41.68" y="78.54" width="373.92" height="193.23" fill="#fff"/><rect x="74.09" y="131.56" width="311.83" height="120.76" fill="none"/><g style="isolation:isolate"><g style="isolation:isolate"><path d="M76.69,142.75a2.79,2.79,0,0,1-1-1,2.6,2.6,0,0,1,0-2.69,2.75,2.75,0,0,1,2.4-1.38,2.77,2.77,0,0,1,1.35.35,2.64,2.64,0,0,1,1,1,2.5,2.5,0,0,1,.38,1.37,2.57,2.57,0,0,1-.37,1.36,2.69,2.69,0,0,1-1,1,2.72,2.72,0,0,1-1.37.36A2.86,2.86,0,0,1,76.69,142.75Z" fill="#3e8eb2"/></g><g style="isolation:isolate"><path d="M76.69,142.75a2.79,2.79,0,0,1-1-1,2.6,2.6,0,0,1,0-2.69,2.75,2.75,0,0,1,2.4-1.38,2.77,2.77,0,0,1,1.35.35,2.64,2.64,0,0,1,1,1,2.5,2.5,0,0,1,.38,1.37,2.57,2.57,0,0,1-.37,1.36,2.69,2.69,0,0,1-1,1,2.72,2.72,0,0,1-1.37.36A2.86,2.86,0,0,1,76.69,142.75Z" fill="none" stroke="#3e8eb2" stroke-miterlimit="10" stroke-width="0.25"/></g><g style="isolation:isolate"><path d="M103.71,133.7h4.14a3.74,3.74,0,0,1,2.53.79,2.65,2.65,0,0,1,.92,2.15,2.72,2.72,0,0,1-.92,2.18,3.78,3.78,0,0,1-2.53.8h-3.2v4.82h-.94Zm4.08,5.1a2.86,2.86,0,0,0,1.91-.56,2.27,2.27,0,0,0,0-3.18,2.86,2.86,0,0,0-1.91-.56h-3.14v4.3Z" fill="#444"/><path d="M119.48,136.88v7.56h-.92V143a2.5,2.5,0,0,1-1,1.15,3.08,3.08,0,0,1-1.61.4,3.26,3.26,0,0,1-1.77-.48,3.12,3.12,0,0,1-1.18-1.35,4.77,4.77,0,0,1-.41-2.06,4.86,4.86,0,0,1,.42-2.08A3.11,3.11,0,0,1,116,136.7a3,3,0,0,1,1.59.4,2.47,2.47,0,0,1,1,1.14v-1.36Zm-1.57,6a4.39,4.39,0,0,0,0-4.6,2.19,2.19,0,0,0-1.84-.82,2.26,2.26,0,0,0-1.86.84,3.66,3.66,0,0,0-.66,2.32,3.51,3.51,0,0,0,.66,2.27,2.3,2.3,0,0,0,1.88.8A2.2,2.2,0,0,0,117.91,142.92Z" fill="#444"/><path d="M125.91,136.76l0,.83a3.4,3.4,0,0,0-.69-.06,2,2,0,0,0-1.71.74,2.72,2.72,0,0,0-.57,1.74v4.43H122V139a16.41,16.41,0,0,0-.13-2.1h.88l.12,1.41a2.26,2.26,0,0,1,.93-1.18,2.67,2.67,0,0,1,1.45-.41A3.26,3.26,0,0,1,125.91,136.76Z" fill="#444"/><path d="M129.08,137.62v4.5a1.76,1.76,0,0,0,.34,1.25,1.43,1.43,0,0,0,1,.35,2.46,2.46,0,0,0,.81-.14v.83a4,4,0,0,1-1,.12,2.14,2.14,0,0,1-1.56-.55,2.3,2.3,0,0,1-.56-1.68v-4.68h-1.5v-.74h1.5v-2l.92-.35v2.35h2.23v.74Z" fill="#444"/><path d="M139.13,139.63v4.81h-.92v-4.75a2.53,2.53,0,0,0-.46-1.66,1.84,1.84,0,0,0-1.45-.53,2.43,2.43,0,0,0-1.82.7,2.53,2.53,0,0,0-.7,1.87v4.37h-.9V139a16.54,16.54,0,0,0-.12-2.1h.87l.12,1.39a2.55,2.55,0,0,1,1.05-1.17,3.19,3.19,0,0,1,1.6-.4C138.22,136.7,139.13,137.68,139.13,139.63Z" fill="#444"/><path d="M142.08,140.55v0a3.45,3.45,0,0,0,.71,2.33,2.53,2.53,0,0,0,2,.8,3.86,3.86,0,0,0,2.49-.93l.36.72a3.51,3.51,0,0,1-1.27.75,4.5,4.5,0,0,1-1.58.28,3.61,3.61,0,0,1-2.72-1,4,4,0,0,1-1-2.87,4.69,4.69,0,0,1,.44-2.06,3.31,3.31,0,0,1,1.25-1.39,3.49,3.49,0,0,1,1.84-.49,2.94,2.94,0,0,1,2.33,1,4,4,0,0,1,.84,2.68v.2Zm.88-2.47a3,3,0,0,0-.82,1.76h4.8a2.75,2.75,0,0,0-.68-1.77,2.12,2.12,0,0,0-1.61-.61A2.35,2.35,0,0,0,143,138.08Z" fill="#444"/><path d="M153.72,136.76l-.05.83a3.4,3.4,0,0,0-.69-.06,2,2,0,0,0-1.72.74,2.77,2.77,0,0,0-.56,1.74v4.43h-.91V139a16.54,16.54,0,0,0-.12-2.1h.88l.12,1.41a2.26,2.26,0,0,1,.93-1.18,2.64,2.64,0,0,1,1.45-.41A3.33,3.33,0,0,1,153.72,136.76Z" fill="#444"/><path d="M154.53,143.54l.33-.71a4.07,4.07,0,0,0,1.22.71,4.36,4.36,0,0,0,1.41.21,2.62,2.62,0,0,0,1.42-.32,1.06,1.06,0,0,0,.49-1,1,1,0,0,0-.32-.8,2.44,2.44,0,0,0-1.06-.48l-1.29-.29a2.81,2.81,0,0,1-1.42-.75,1.77,1.77,0,0,1-.52-1.27,1.92,1.92,0,0,1,.76-1.59,3.19,3.19,0,0,1,2-.6,4.28,4.28,0,0,1,1.49.26,3,3,0,0,1,1.13.74l-.34.71a3.4,3.4,0,0,0-2.28-.91,2.32,2.32,0,0,0-1.36.35,1.12,1.12,0,0,0-.48,1,1.14,1.14,0,0,0,.31.83,1.87,1.87,0,0,0,1,.46l1.29.32q2,.45,2,2a1.83,1.83,0,0,1-.78,1.53,3.48,3.48,0,0,1-2.12.58A4.1,4.1,0,0,1,154.53,143.54Z" fill="#444"/><path d="M168.68,139.63v4.81h-.92v-4.75a2.48,2.48,0,0,0-.46-1.66,1.8,1.8,0,0,0-1.44-.53,2.43,2.43,0,0,0-1.82.7,2.49,2.49,0,0,0-.7,1.87v4.37h-.9v-11.1h.9v4.86a2.46,2.46,0,0,1,1-1.12,3.23,3.23,0,0,1,1.57-.38C167.77,136.7,168.68,137.68,168.68,139.63Z" fill="#444"/><path d="M172.25,133.76v1.18H171v-1.18Zm-1.09,3.12h.9v7.56h-.9Z" fill="#444"/><path d="M179.89,137.19a3.23,3.23,0,0,1,1.18,1.39,4.86,4.86,0,0,1,.42,2.08,4.69,4.69,0,0,1-.41,2.05,3.26,3.26,0,0,1-1.18,1.36,3.31,3.31,0,0,1-1.77.48,3,3,0,0,1-1.62-.42,2.53,2.53,0,0,1-1-1.19v4.76h-.9V139a16.54,16.54,0,0,0-.12-2.1h.87l.12,1.48a2.64,2.64,0,0,1,1-1.23,3.11,3.11,0,0,1,1.64-.43A3.26,3.26,0,0,1,179.89,137.19Zm0,5.74a3.45,3.45,0,0,0,.67-2.27,3.6,3.6,0,0,0-.67-2.32,2.47,2.47,0,0,0-3.69,0,4.39,4.39,0,0,0,0,4.6,2.21,2.21,0,0,0,1.84.81A2.25,2.25,0,0,0,179.86,142.93Z" fill="#444"/><path d="M187.5,133.7h6.62v.8h-5.7v4.07h5.4v.83h-5.4v4.24h5.7v.8H187.5Z" fill="#444"/><path d="M195.74,143.54l.33-.71a4,4,0,0,0,1.21.71,4.36,4.36,0,0,0,1.41.21,2.66,2.66,0,0,0,1.43-.32,1.06,1.06,0,0,0,.49-1,1,1,0,0,0-.32-.8,2.43,2.43,0,0,0-1.07-.48l-1.28-.29a2.85,2.85,0,0,1-1.43-.75,1.81,1.81,0,0,1-.52-1.27,1.92,1.92,0,0,1,.77-1.59,3.17,3.17,0,0,1,2-.6,4.22,4.22,0,0,1,1.48.26,2.93,2.93,0,0,1,1.14.74l-.35.71a3.36,3.36,0,0,0-2.27-.91,2.3,2.3,0,0,0-1.36.35,1.13,1.13,0,0,0-.49,1,1.18,1.18,0,0,0,.31.83,2,2,0,0,0,1,.46l1.3.32q2,.45,2,2a1.81,1.81,0,0,1-.79,1.53,3.45,3.45,0,0,1-2.11.58A4.07,4.07,0,0,1,195.74,143.54Z" fill="#444"/><path d="M204.85,137.62v4.5a1.76,1.76,0,0,0,.35,1.25,1.39,1.39,0,0,0,1,.35,2.48,2.48,0,0,0,.82-.14v.83a4,4,0,0,1-1,.12,2.11,2.11,0,0,1-1.56-.55,2.26,2.26,0,0,1-.57-1.68v-4.68h-1.49v-.74h1.49v-2l.92-.35v2.35h2.23v.74Z" fill="#444"/><path d="M215.07,136.88v7.56h-.92V143a2.52,2.52,0,0,1-1,1.15,3,3,0,0,1-1.6.4,3.27,3.27,0,0,1-1.78-.48,3,3,0,0,1-1.17-1.35,4.77,4.77,0,0,1-.42-2.06,4.86,4.86,0,0,1,.42-2.08,3.14,3.14,0,0,1,2.95-1.88,3,3,0,0,1,1.59.4,2.58,2.58,0,0,1,1,1.14v-1.36Zm-1.57,6a4.39,4.39,0,0,0,0-4.6,2.48,2.48,0,0,0-3.7,0,3.66,3.66,0,0,0-.66,2.32,3.51,3.51,0,0,0,.66,2.27,2.28,2.28,0,0,0,1.87.8A2.22,2.22,0,0,0,213.5,142.92Z" fill="#444"/><path d="M222.87,137.19a3.18,3.18,0,0,1,1.18,1.35,5.23,5.23,0,0,1,0,4.13,3.23,3.23,0,0,1-1.18,1.39,3.15,3.15,0,0,1-1.76.49,3.08,3.08,0,0,1-1.61-.41,2.5,2.5,0,0,1-1-1.17v1.47h-.92v-11.1h.91v5a2.42,2.42,0,0,1,1-1.19,3.08,3.08,0,0,1,1.61-.41A3.21,3.21,0,0,1,222.87,137.19Zm0,5.71a3.6,3.6,0,0,0,.66-2.3,3.52,3.52,0,0,0-.66-2.28,2.26,2.26,0,0,0-1.86-.82,2.2,2.2,0,0,0-1.84.82,4.41,4.41,0,0,0,0,4.61,2.51,2.51,0,0,0,3.7,0Z" fill="#444"/><path d="M226.49,133.34h.9v11.1h-.9Z" fill="#444"/><path d="M231,133.76v1.18h-1.22v-1.18Zm-1.08,3.12h.9v7.56h-.9Z" fill="#444"/><path d="M232.92,143.54l.33-.71a3.91,3.91,0,0,0,1.21.71,4.36,4.36,0,0,0,1.41.21,2.66,2.66,0,0,0,1.43-.32,1.06,1.06,0,0,0,.49-1,1,1,0,0,0-.33-.8,2.38,2.38,0,0,0-1.06-.48l-1.28-.29a2.8,2.8,0,0,1-1.43-.75,1.81,1.81,0,0,1-.52-1.27,1.94,1.94,0,0,1,.76-1.59,3.2,3.2,0,0,1,2-.6,4.24,4.24,0,0,1,1.49.26,2.93,2.93,0,0,1,1.14.74l-.35.71a3.36,3.36,0,0,0-2.28-.91,2.28,2.28,0,0,0-1.35.35,1.11,1.11,0,0,0-.49,1,1.18,1.18,0,0,0,.31.83,2,2,0,0,0,1,.46l1.3.32c1.36.3,2,1,2,2a1.83,1.83,0,0,1-.78,1.53,3.45,3.45,0,0,1-2.11.58A4.07,4.07,0,0,1,232.92,143.54Z" fill="#444"/><path d="M247.07,139.63v4.81h-.92v-4.75a2.53,2.53,0,0,0-.46-1.66,1.83,1.83,0,0,0-1.44-.53,2.44,2.44,0,0,0-1.83.7,2.52,2.52,0,0,0-.69,1.87v4.37h-.91v-11.1h.91v4.86a2.46,2.46,0,0,1,1-1.12,3.17,3.17,0,0,1,1.57-.38C246.16,136.7,247.07,137.68,247.07,139.63Z" fill="#444"/><path d="M260.2,139.63v4.81h-.93v-4.75a2.76,2.76,0,0,0-.4-1.67,1.57,1.57,0,0,0-1.3-.52,2,2,0,0,0-1.64.7,2.82,2.82,0,0,0-.59,1.88v4.36h-.92v-4.75A2.68,2.68,0,0,0,254,138a1.59,1.59,0,0,0-1.3-.52,2.05,2.05,0,0,0-1.64.7,2.73,2.73,0,0,0-.61,1.88v4.36h-.91V139a16.54,16.54,0,0,0-.12-2.1h.88l.12,1.36a2.37,2.37,0,0,1,.94-1.14,2.62,2.62,0,0,1,1.46-.4,2.22,2.22,0,0,1,2.34,1.48,2.38,2.38,0,0,1,1-1.08,3,3,0,0,1,1.55-.4C259.36,136.7,260.2,137.68,260.2,139.63Z" fill="#444"/><path d="M263.14,140.55v0a3.45,3.45,0,0,0,.7,2.33,2.55,2.55,0,0,0,2,.8,3.82,3.82,0,0,0,2.49-.93l.37.72a3.69,3.69,0,0,1-1.27.75,4.51,4.51,0,0,1-1.59.28,3.59,3.59,0,0,1-2.71-1,4,4,0,0,1-1-2.87,4.56,4.56,0,0,1,.45-2.06,3.29,3.29,0,0,1,1.24-1.39,3.54,3.54,0,0,1,1.84-.49,2.92,2.92,0,0,1,2.33,1,4,4,0,0,1,.84,2.68v.2Zm.87-2.47a3,3,0,0,0-.81,1.76H268a2.8,2.8,0,0,0-.68-1.77,2.14,2.14,0,0,0-1.62-.61A2.36,2.36,0,0,0,264,138.08Z" fill="#444"/><path d="M277.09,139.63v4.81h-.92v-4.75a2.48,2.48,0,0,0-.46-1.66,1.8,1.8,0,0,0-1.44-.53,2.43,2.43,0,0,0-1.82.7,2.49,2.49,0,0,0-.7,1.87v4.37h-.9V139a16.54,16.54,0,0,0-.12-2.1h.87l.12,1.39a2.53,2.53,0,0,1,1-1.17,3.25,3.25,0,0,1,1.6-.4C276.18,136.7,277.09,137.68,277.09,139.63Z" fill="#444"/><path d="M280.85,137.62v4.5a1.76,1.76,0,0,0,.35,1.25,1.39,1.39,0,0,0,1,.35,2.48,2.48,0,0,0,.82-.14v.83a4,4,0,0,1-1,.12,2.11,2.11,0,0,1-1.56-.55,2.26,2.26,0,0,1-.57-1.68v-4.68h-1.49v-.74h1.49v-2l.92-.35v2.35h2.23v.74Z" fill="#444"/></g><g style="isolation:isolate"><path d="M76.69,171a2.64,2.64,0,0,1-1-1,2.58,2.58,0,0,1-.38-1.36,2.63,2.63,0,0,1,.37-1.32,2.82,2.82,0,0,1,1-1,2.7,2.7,0,0,1,1.41-.37,2.77,2.77,0,0,1,1.35.35,2.69,2.69,0,0,1,1,1,2.54,2.54,0,0,1,.38,1.38,2.6,2.6,0,0,1-.37,1.36,2.69,2.69,0,0,1-1,1,2.72,2.72,0,0,1-1.37.36A2.76,2.76,0,0,1,76.69,171Z" fill="#3e8eb2"/></g><g style="isolation:isolate"><path d="M76.69,171a2.64,2.64,0,0,1-1-1,2.58,2.58,0,0,1-.38-1.36,2.63,2.63,0,0,1,.37-1.32,2.82,2.82,0,0,1,1-1,2.7,2.7,0,0,1,1.41-.37,2.77,2.77,0,0,1,1.35.35,2.69,2.69,0,0,1,1,1,2.54,2.54,0,0,1,.38,1.38,2.6,2.6,0,0,1-.37,1.36,2.69,2.69,0,0,1-1,1,2.72,2.72,0,0,1-1.37.36A2.76,2.76,0,0,1,76.69,171Z" fill="none" stroke="#3e8eb2" stroke-miterlimit="10" stroke-width="0.25"/></g><g style="isolation:isolate"><path d="M110.71,169.83h-5.79l-1.24,2.87h-1L107.4,162h.84l4.66,10.74h-1Zm-.36-.81-2.53-5.93L105.27,169Z" fill="#444"/><path d="M120.63,165.14v7.56h-.89v-1.37a2.55,2.55,0,0,1-1,1.1,3,3,0,0,1-1.52.38,2.6,2.6,0,0,1-2-.74,3.14,3.14,0,0,1-.68-2.19v-4.74h.91v4.68a2.49,2.49,0,0,0,.45,1.64,1.72,1.72,0,0,0,1.4.53,2.31,2.31,0,0,0,1.78-.7,2.57,2.57,0,0,0,.67-1.86v-4.29Z" fill="#444"/><path d="M124.41,165.88v4.5a1.76,1.76,0,0,0,.35,1.25,1.39,1.39,0,0,0,1,.35,2.46,2.46,0,0,0,.81-.14v.83a4,4,0,0,1-1,.12,2.1,2.1,0,0,1-1.56-.56,2.24,2.24,0,0,1-.57-1.67v-4.68H122v-.74h1.49v-2l.92-.35v2.35h2.24v.74Z" fill="#444"/><path d="M134.46,167.89v4.81h-.92V168a2.46,2.46,0,0,0-.46-1.66,1.8,1.8,0,0,0-1.44-.53,2.43,2.43,0,0,0-1.82.7,2.49,2.49,0,0,0-.7,1.87v4.37h-.9V161.6h.9v4.86a2.46,2.46,0,0,1,1-1.12,3.23,3.23,0,0,1,1.57-.38C133.55,165,134.46,165.94,134.46,167.89Z" fill="#444"/><path d="M138.11,172.32a3.13,3.13,0,0,1-1.22-1.37,5.17,5.17,0,0,1,0-4.13,3.16,3.16,0,0,1,1.22-1.38,3.47,3.47,0,0,1,1.83-.48,3.4,3.4,0,0,1,1.81.48,3.29,3.29,0,0,1,1.22,1.38,5.17,5.17,0,0,1,0,4.13,3.26,3.26,0,0,1-1.22,1.37,3.32,3.32,0,0,1-1.81.49A3.39,3.39,0,0,1,138.11,172.32Zm3.68-1.13a4.33,4.33,0,0,0,0-4.61,2.24,2.24,0,0,0-1.84-.82,2.3,2.3,0,0,0-1.86.82,4.38,4.38,0,0,0,0,4.61,2.23,2.23,0,0,0,1.86.8A2.29,2.29,0,0,0,141.79,171.19Z" fill="#444"/><path d="M149.34,165l0,.83a3.58,3.58,0,0,0-.7-.06,2.05,2.05,0,0,0-1.71.73,2.76,2.76,0,0,0-.57,1.75v4.43h-.9v-5.46a16.54,16.54,0,0,0-.12-2.1h.87l.12,1.41a2.26,2.26,0,0,1,.93-1.18,2.68,2.68,0,0,1,1.46-.41A3.23,3.23,0,0,1,149.34,165Z" fill="#444"/><path d="M151.77,162v1.18h-1.22V162Zm-1.09,3.12h.91v7.56h-.91Z" fill="#444"/><path d="M160,172v.75h-6.31v-.63l5-6.19h-4.85v-.74h6v.7l-5,6.11Z" fill="#444"/><path d="M168.16,165.14v7.56h-.92v-1.45a2.5,2.5,0,0,1-1,1.16,3.14,3.14,0,0,1-1.6.4,3.27,3.27,0,0,1-1.78-.48,3,3,0,0,1-1.17-1.36,4.7,4.7,0,0,1-.42-2.06,4.84,4.84,0,0,1,.42-2.07,3.25,3.25,0,0,1,1.19-1.39,3.42,3.42,0,0,1,3.35-.1,2.6,2.6,0,0,1,1,1.15v-1.36Zm-1.57,6a4.39,4.39,0,0,0,0-4.6,2.48,2.48,0,0,0-3.7,0,3.65,3.65,0,0,0-.66,2.31,3.52,3.52,0,0,0,.66,2.28,2.31,2.31,0,0,0,1.87.8A2.22,2.22,0,0,0,166.59,171.18Z" fill="#444"/><path d="M171.94,165.88v4.5a1.76,1.76,0,0,0,.35,1.25,1.39,1.39,0,0,0,1,.35,2.46,2.46,0,0,0,.81-.14v.83a4,4,0,0,1-1,.12,2.1,2.1,0,0,1-1.56-.56,2.24,2.24,0,0,1-.57-1.67v-4.68h-1.49v-.74H171v-2l.92-.35v2.35h2.24v.74Z" fill="#444"/><path d="M176.83,162v1.18h-1.22V162Zm-1.08,3.12h.9v7.56h-.9Z" fill="#444"/><path d="M180.35,172.32a3.26,3.26,0,0,1-1.22-1.37,5.17,5.17,0,0,1,0-4.13,3.29,3.29,0,0,1,1.22-1.38,3.48,3.48,0,0,1,1.84-.48,3.4,3.4,0,0,1,1.81.48,3.2,3.2,0,0,1,1.21,1.38,5.17,5.17,0,0,1,0,4.13,3.17,3.17,0,0,1-1.21,1.37,3.32,3.32,0,0,1-1.81.49A3.4,3.4,0,0,1,180.35,172.32Zm3.69-1.13a4.38,4.38,0,0,0,0-4.61,2.5,2.5,0,0,0-3.7,0,3.6,3.6,0,0,0-.66,2.3,3.53,3.53,0,0,0,.65,2.31,2.22,2.22,0,0,0,1.85.8A2.29,2.29,0,0,0,184,171.19Z" fill="#444"/><path d="M193.91,167.89v4.81H193V168a2.46,2.46,0,0,0-.46-1.66,1.83,1.83,0,0,0-1.44-.53,2.47,2.47,0,0,0-1.83.7,2.52,2.52,0,0,0-.69,1.87v4.37h-.9v-5.46a16.41,16.41,0,0,0-.13-2.1h.88l.12,1.39a2.53,2.53,0,0,1,1-1.17,3.12,3.12,0,0,1,1.6-.4C193,165,193.91,165.94,193.91,167.89Z" fill="#444"/><path d="M200.37,162h4.13a3.8,3.8,0,0,1,2.54.78,3,3,0,0,1,0,4.34,3.76,3.76,0,0,1-2.53.79h-3.19v4.83h-.94Zm4.07,5.1a2.88,2.88,0,0,0,1.92-.56,2,2,0,0,0,.65-1.6,2,2,0,0,0-.65-1.58,2.82,2.82,0,0,0-1.92-.56h-3.13v4.3Z" fill="#444"/><path d="M210,161.6h.91v11.1H210Z" fill="#444"/><path d="M219.8,165.14v7.56h-.92v-1.45a2.42,2.42,0,0,1-1,1.16,3.15,3.15,0,0,1-1.61.4,3.26,3.26,0,0,1-1.77-.48,3.09,3.09,0,0,1-1.18-1.36,5.35,5.35,0,0,1,0-4.13,3.25,3.25,0,0,1,1.19-1.39,3.12,3.12,0,0,1,1.75-.49,3.07,3.07,0,0,1,1.59.39,2.54,2.54,0,0,1,1,1.15v-1.36Zm-1.57,6a4.39,4.39,0,0,0,0-4.6,2.19,2.19,0,0,0-1.84-.82,2.22,2.22,0,0,0-1.85.84,3.65,3.65,0,0,0-.67,2.31,3.52,3.52,0,0,0,.67,2.28,2.29,2.29,0,0,0,1.87.8A2.2,2.2,0,0,0,218.23,171.18Z" fill="#444"/><path d="M228.55,167.89v4.81h-.92V168a2.46,2.46,0,0,0-.46-1.66,1.8,1.8,0,0,0-1.44-.53,2.43,2.43,0,0,0-1.82.7,2.49,2.49,0,0,0-.7,1.87v4.37h-.9v-5.46a16.54,16.54,0,0,0-.12-2.1h.87l.12,1.39a2.53,2.53,0,0,1,1-1.17,3.14,3.14,0,0,1,1.6-.4C227.64,165,228.55,165.94,228.55,167.89Z" fill="#444"/><path d="M237.28,167.89v4.81h-.92V168a2.51,2.51,0,0,0-.46-1.66,1.84,1.84,0,0,0-1.45-.53,2.43,2.43,0,0,0-1.82.7,2.53,2.53,0,0,0-.7,1.87v4.37H231v-5.46a16.54,16.54,0,0,0-.12-2.1h.87l.12,1.39a2.55,2.55,0,0,1,1-1.17,3.08,3.08,0,0,1,1.59-.4C236.37,165,237.28,165.94,237.28,167.89Z" fill="#444"/><path d="M240.84,162v1.18h-1.23V162Zm-1.09,3.12h.91v7.56h-.91Z" fill="#444"/><path d="M249.44,167.89v4.81h-.92V168a2.51,2.51,0,0,0-.46-1.66,1.83,1.83,0,0,0-1.44-.53,2.44,2.44,0,0,0-1.83.7,2.52,2.52,0,0,0-.69,1.87v4.37h-.91v-5.46a16.54,16.54,0,0,0-.12-2.1h.87l.13,1.39a2.47,2.47,0,0,1,1-1.17,3.09,3.09,0,0,1,1.6-.4C248.53,165,249.44,165.94,249.44,167.89Z" fill="#444"/><path d="M258.38,165.14v7.59a3.46,3.46,0,0,1-.81,2.49,3.19,3.19,0,0,1-2.4.85,5.28,5.28,0,0,1-2.94-.82l.18-.8a5.92,5.92,0,0,0,1.36.62,5.05,5.05,0,0,0,1.42.18,2.22,2.22,0,0,0,1.71-.62,2.52,2.52,0,0,0,.58-1.81v-1.94a2.58,2.58,0,0,1-1,1.18,3,3,0,0,1-1.63.42,3.25,3.25,0,0,1-1.76-.48,3.29,3.29,0,0,1-1.2-1.33,4.68,4.68,0,0,1,0-3.92,3.2,3.2,0,0,1,1.2-1.32,3.33,3.33,0,0,1,1.76-.47,3.2,3.2,0,0,1,1.63.39,2.58,2.58,0,0,1,1,1.15v-1.36Zm-1.59,5.72a3.17,3.17,0,0,0,.67-2.14,3.24,3.24,0,0,0-.67-2.17,2.27,2.27,0,0,0-1.85-.79,2.34,2.34,0,0,0-1.87.79,3.24,3.24,0,0,0-.68,2.17,3.19,3.19,0,0,0,.68,2.15,2.37,2.37,0,0,0,1.87.78A2.3,2.3,0,0,0,256.79,170.86Z" fill="#444"/></g><g style="isolation:isolate"><path d="M76.69,199.35a2.74,2.74,0,0,1-1-1A2.58,2.58,0,0,1,75.3,197a2.63,2.63,0,0,1,.37-1.32,2.71,2.71,0,0,1,1-1,2.62,2.62,0,0,1,1.41-.38,2.77,2.77,0,0,1,1.35.35,2.64,2.64,0,0,1,1,1,2.5,2.5,0,0,1,.38,1.37,2.6,2.6,0,0,1-.37,1.36,2.69,2.69,0,0,1-1,1,2.72,2.72,0,0,1-1.37.36A2.86,2.86,0,0,1,76.69,199.35Z" fill="#3e8eb2"/></g><g style="isolation:isolate"><path d="M76.69,199.35a2.74,2.74,0,0,1-1-1A2.58,2.58,0,0,1,75.3,197a2.63,2.63,0,0,1,.37-1.32,2.71,2.71,0,0,1,1-1,2.62,2.62,0,0,1,1.41-.38,2.77,2.77,0,0,1,1.35.35,2.64,2.64,0,0,1,1,1,2.5,2.5,0,0,1,.38,1.37,2.6,2.6,0,0,1-.37,1.36,2.69,2.69,0,0,1-1,1,2.72,2.72,0,0,1-1.37.36A2.86,2.86,0,0,1,76.69,199.35Z" fill="none" stroke="#3e8eb2" stroke-miterlimit="10" stroke-width="0.25"/></g><g style="isolation:isolate"><path d="M110.43,201l-5.78-5.14V201h-.94V190.3h.94v5l5.49-5h1.24l-5.8,5.25L111.7,201Z" fill="#444"/><path d="M114,190.36v1.18h-1.22v-1.18Zm-1.08,3.12h.9V201h-.9Z" fill="#444"/><path d="M117.55,200.67a3.3,3.3,0,0,1-1.24-1.37,4.57,4.57,0,0,1-.44-2,4.72,4.72,0,0,1,.44-2.08,3.25,3.25,0,0,1,1.25-1.39,3.69,3.69,0,0,1,1.89-.49,4.08,4.08,0,0,1,1.47.27,3.11,3.11,0,0,1,1.16.73l-.37.72a4.54,4.54,0,0,0-1.12-.7,2.85,2.85,0,0,0-1.11-.22,2.39,2.39,0,0,0-1.93.84,3.5,3.5,0,0,0-.71,2.32,3.34,3.34,0,0,0,.7,2.26,2.44,2.44,0,0,0,1.94.81,2.85,2.85,0,0,0,1.11-.22,4.42,4.42,0,0,0,1.12-.68l.37.71a3.63,3.63,0,0,1-1.2.74,4.14,4.14,0,0,1-1.46.27A3.56,3.56,0,0,1,117.55,200.67Z" fill="#444"/><path d="M128.82,201l-4.16-3.68V201h-.91v-11.1h.91V197l3.8-3.52h1.19l-4,3.64,4.37,3.92Z" fill="#444"/><path d="M132.28,200.67a3.22,3.22,0,0,1-1.22-1.38,5.17,5.17,0,0,1,0-4.13,3.22,3.22,0,0,1,1.22-1.38,3.48,3.48,0,0,1,1.84-.48,3.42,3.42,0,0,1,1.81.48,3.26,3.26,0,0,1,1.21,1.38,5.17,5.17,0,0,1,0,4.13,3.26,3.26,0,0,1-1.21,1.38,3.42,3.42,0,0,1-1.81.48A3.48,3.48,0,0,1,132.28,200.67Zm3.68-1.14a3.56,3.56,0,0,0,.66-2.3,3.61,3.61,0,0,0-.66-2.31,2.5,2.5,0,0,0-3.7,0,3.61,3.61,0,0,0-.66,2.31,3.52,3.52,0,0,0,.65,2.3,2.22,2.22,0,0,0,1.85.8A2.26,2.26,0,0,0,136,199.53Z" fill="#444"/><path d="M141.21,191.05a1.77,1.77,0,0,0-.35,1.24v1.19h1.95v.74h-1.95V201h-.92v-6.82h-1.48v-.74h1.48v-1.36a2.29,2.29,0,0,1,.56-1.68,2,2,0,0,1,1.54-.56,3.83,3.83,0,0,1,.93.12v.83a2.68,2.68,0,0,0-.77-.12A1.34,1.34,0,0,0,141.21,191.05Z" fill="#444"/><path d="M146.16,191.05a1.77,1.77,0,0,0-.35,1.24v1.19h1.95v.74h-1.95V201h-.92v-6.82h-1.48v-.74h1.48v-1.36a2.29,2.29,0,0,1,.56-1.68,2,2,0,0,1,1.54-.56,3.83,3.83,0,0,1,.93.12v.83a2.73,2.73,0,0,0-.77-.12A1.34,1.34,0,0,0,146.16,191.05Z" fill="#444"/><path d="M163.43,190.3V201h-.87v-8.6l-3.77,8.6h-.7l-3.8-8.52V201h-.87V190.3h.77l4.25,9.63,4.2-9.63Z" fill="#444"/><path d="M166.56,197.15v0a3.46,3.46,0,0,0,.7,2.34,2.59,2.59,0,0,0,2,.8,3.82,3.82,0,0,0,2.49-.93l.36.72a3.7,3.7,0,0,1-1.26.75,4.55,4.55,0,0,1-1.59.28,3.59,3.59,0,0,1-2.71-1,4,4,0,0,1-1-2.87,4.56,4.56,0,0,1,.45-2.06,3.29,3.29,0,0,1,1.24-1.39,3.51,3.51,0,0,1,1.84-.49,2.9,2.9,0,0,1,2.33,1,4,4,0,0,1,.84,2.68v.2Zm.87-2.47a3,3,0,0,0-.81,1.76h4.8a2.84,2.84,0,0,0-.68-1.77,2.14,2.14,0,0,0-1.62-.61A2.36,2.36,0,0,0,167.43,194.68Z" fill="#444"/><path d="M174.75,197.15v0a3.46,3.46,0,0,0,.7,2.34,2.59,2.59,0,0,0,2.05.8,3.86,3.86,0,0,0,2.49-.93l.36.72a3.75,3.75,0,0,1-1.27.75,4.5,4.5,0,0,1-1.58.28,3.59,3.59,0,0,1-2.72-1,4,4,0,0,1-1-2.87,4.56,4.56,0,0,1,.45-2.06,3.36,3.36,0,0,1,1.24-1.39,3.54,3.54,0,0,1,1.84-.49,2.92,2.92,0,0,1,2.34,1,4,4,0,0,1,.83,2.68v.2Zm.87-2.47a3,3,0,0,0-.81,1.76h4.8a2.78,2.78,0,0,0-.68-1.77,2.13,2.13,0,0,0-1.62-.61A2.38,2.38,0,0,0,175.62,194.68Z" fill="#444"/><path d="M183.73,194.22v4.5a1.76,1.76,0,0,0,.34,1.25,1.43,1.43,0,0,0,1,.35,2.57,2.57,0,0,0,.82-.14V201a4.13,4.13,0,0,1-1,.12,2.1,2.1,0,0,1-1.56-.56,2.28,2.28,0,0,1-.56-1.67v-4.68h-1.5v-.74h1.5v-2l.92-.35v2.35H186v.74Z" fill="#444"/><path d="M188.62,190.36v1.18h-1.23v-1.18Zm-1.09,3.12h.91V201h-.91Z" fill="#444"/><path d="M197.22,196.23V201h-.92v-4.75a2.53,2.53,0,0,0-.46-1.66,1.84,1.84,0,0,0-1.45-.53,2.43,2.43,0,0,0-1.82.7,2.52,2.52,0,0,0-.69,1.87V201H191v-5.46a16.54,16.54,0,0,0-.12-2.1h.87l.12,1.39a2.55,2.55,0,0,1,1-1.17,3.19,3.19,0,0,1,1.6-.4C196.31,193.3,197.22,194.28,197.22,196.23Z" fill="#444"/><path d="M206.16,193.48v7.59a3.46,3.46,0,0,1-.81,2.49,3.15,3.15,0,0,1-2.4.85,5.2,5.2,0,0,1-2.94-.82l.18-.8a5.92,5.92,0,0,0,1.36.62,5,5,0,0,0,1.41.18,2.22,2.22,0,0,0,1.72-.62,2.57,2.57,0,0,0,.58-1.81v-1.94a2.58,2.58,0,0,1-1,1.18,3,3,0,0,1-1.63.42,3.25,3.25,0,0,1-1.76-.48,3.16,3.16,0,0,1-1.2-1.33,4.68,4.68,0,0,1,0-3.92,3.08,3.08,0,0,1,1.2-1.32,3.33,3.33,0,0,1,1.76-.47,3.2,3.2,0,0,1,1.63.39,2.58,2.58,0,0,1,1,1.15v-1.36Zm-1.59,5.72a3.17,3.17,0,0,0,.67-2.14,3.24,3.24,0,0,0-.67-2.17,2.32,2.32,0,0,0-1.85-.79,2.37,2.37,0,0,0-1.87.79,3.24,3.24,0,0,0-.68,2.17,3.19,3.19,0,0,0,.68,2.15,2.37,2.37,0,0,0,1.87.78A2.32,2.32,0,0,0,204.57,199.2Z" fill="#444"/></g><g style="isolation:isolate"><path d="M103.71,218.56h6.48v.8h-5.54v4.07h5.23v.83h-5.23v5h-.94Z" fill="#444"/><path d="M112.33,225.41v0a3.42,3.42,0,0,0,.7,2.33,2.57,2.57,0,0,0,2,.81,3.81,3.81,0,0,0,2.48-.93l.37.72a3.85,3.85,0,0,1-1.27.75,4.74,4.74,0,0,1-1.58.28,3.56,3.56,0,0,1-2.72-1,4,4,0,0,1-1-2.86,4.53,4.53,0,0,1,.45-2.06,3.29,3.29,0,0,1,1.24-1.39,3.45,3.45,0,0,1,1.84-.49,2.92,2.92,0,0,1,2.34,1,4,4,0,0,1,.83,2.68v.2Zm.87-2.47a3,3,0,0,0-.81,1.76h4.8a2.81,2.81,0,0,0-.68-1.78,2.16,2.16,0,0,0-1.62-.61A2.34,2.34,0,0,0,113.2,222.94Z" fill="#444"/><path d="M126.45,218.19V229.3h-.92v-1.45a2.47,2.47,0,0,1-1,1.16,3.18,3.18,0,0,1-1.61.4,3.26,3.26,0,0,1-1.76-.49,3.36,3.36,0,0,1-1.18-1.39,4.86,4.86,0,0,1-.42-2.08,4.77,4.77,0,0,1,.41-2.06,3.15,3.15,0,0,1,1.18-1.36,3.34,3.34,0,0,1,1.77-.47,3.1,3.1,0,0,1,1.59.39,2.49,2.49,0,0,1,1,1.15v-4.91Zm-1.57,9.59a4.39,4.39,0,0,0,0-4.6,2.18,2.18,0,0,0-1.82-.82,2.27,2.27,0,0,0-1.87.81,3.5,3.5,0,0,0-.67,2.28,3.55,3.55,0,0,0,.67,2.31,2.24,2.24,0,0,0,1.85.83A2.21,2.21,0,0,0,124.88,227.78Z" fill="#444"/><path d="M137.36,229.3h-1l-1.35-3.58a1.67,1.67,0,0,0-.71-1,2.72,2.72,0,0,0-1.31-.25h-3v4.8h-.94V218.56h4.15a4,4,0,0,1,2.6.76,2.68,2.68,0,0,1,.92,2.18,2.81,2.81,0,0,1-.55,1.75,3,3,0,0,1-1.58,1,1.48,1.48,0,0,1,.8.39,2.42,2.42,0,0,1,.56.93Zm-4.18-5.61c1.76,0,2.64-.74,2.64-2.21s-.88-2.12-2.64-2.12H130v4.33Z" fill="#444"/><path d="M146.4,226.43h-5.8l-1.23,2.87h-1l4.68-10.74h.84l4.67,10.74h-1Zm-.36-.81-2.54-5.93L141,225.62Z" fill="#444"/><path d="M160.39,218.56V229.3h-.88v-8.6l-3.77,8.6H155l-3.8-8.53,0,8.53h-.88V218.56h.77l4.26,9.62,4.19-9.62Z" fill="#444"/><path d="M163.16,218.56h4.14a3.79,3.79,0,0,1,2.53.78,2.69,2.69,0,0,1,.92,2.16,2.72,2.72,0,0,1-.93,2.18,3.73,3.73,0,0,1-2.52.79h-3.2v4.83h-.94Zm4.08,5.1a2.86,2.86,0,0,0,1.91-.56,2,2,0,0,0,.65-1.6,2,2,0,0,0-.65-1.58,2.81,2.81,0,0,0-1.91-.56H164.1v4.3Z" fill="#444"/><path d="M186.75,218.56V229.3h-.88v-8.6l-3.77,8.6h-.7l-3.8-8.53,0,8.53h-.88V218.56h.77l4.26,9.62,4.19-9.62Z" fill="#444"/><path d="M195.8,221.74v7.56h-.92v-1.45a2.53,2.53,0,0,1-1,1.16,3.18,3.18,0,0,1-1.61.4,3.21,3.21,0,0,1-1.77-.48,3.08,3.08,0,0,1-1.18-1.36,5.23,5.23,0,0,1,0-4.13,3.23,3.23,0,0,1,1.18-1.39,3.42,3.42,0,0,1,3.35-.1,2.49,2.49,0,0,1,1,1.15v-1.36Zm-1.57,6a4.41,4.41,0,0,0,0-4.61,2.49,2.49,0,0,0-3.7,0,3.63,3.63,0,0,0-.66,2.31,3.47,3.47,0,0,0,.66,2.27,2.3,2.3,0,0,0,1.87.81A2.2,2.2,0,0,0,194.23,227.78Z" fill="#444"/><path d="M202.23,221.62l0,.83a3.4,3.4,0,0,0-.69-.06,2,2,0,0,0-1.72.73,2.81,2.81,0,0,0-.56,1.74v4.44h-.91v-5.46a16.31,16.31,0,0,0-.12-2.1h.88l.12,1.4a2.27,2.27,0,0,1,.93-1.17,2.64,2.64,0,0,1,1.45-.41A3.33,3.33,0,0,1,202.23,221.62Z" fill="#444"/><path d="M208.64,229.3l-4.17-3.68v3.68h-.9V218.19h.9v7.07l3.81-3.52h1.19l-3.95,3.64,4.37,3.92Z" fill="#444"/><path d="M211.42,225.41v0a3.42,3.42,0,0,0,.7,2.33,2.54,2.54,0,0,0,2,.81,3.82,3.82,0,0,0,2.49-.93l.36.72a3.7,3.7,0,0,1-1.26.75,4.84,4.84,0,0,1-1.59.28,3.58,3.58,0,0,1-2.72-1,4,4,0,0,1-1-2.86,4.66,4.66,0,0,1,.44-2.06,3.38,3.38,0,0,1,1.25-1.39,3.42,3.42,0,0,1,1.84-.49,2.9,2.9,0,0,1,2.33,1,3.93,3.93,0,0,1,.84,2.68v.2Zm.87-2.47a3,3,0,0,0-.81,1.76h4.79a2.76,2.76,0,0,0-.68-1.78,2.16,2.16,0,0,0-1.61-.61A2.33,2.33,0,0,0,212.29,222.94Z" fill="#444"/><path d="M220.39,222.48V227a1.76,1.76,0,0,0,.35,1.25,1.39,1.39,0,0,0,1,.35,2.46,2.46,0,0,0,.81-.14v.83a4,4,0,0,1-1,.12,2.14,2.14,0,0,1-1.56-.56,2.24,2.24,0,0,1-.57-1.67v-4.68H218v-.74h1.49v-2l.92-.34v2.35h2.24v.74Z" fill="#444"/><path d="M229.48,222.05a3.25,3.25,0,0,1,1.19,1.39,5.32,5.32,0,0,1,0,4.12,3.17,3.17,0,0,1-3,1.85,3,3,0,0,1-1.63-.42,2.58,2.58,0,0,1-1-1.2v4.77h-.9v-8.72a16.18,16.18,0,0,0-.13-2.1H225l.12,1.48a2.58,2.58,0,0,1,1-1.23,3,3,0,0,1,1.64-.43A3.12,3.12,0,0,1,229.48,222.05Zm0,5.73a3.47,3.47,0,0,0,.66-2.27,3.63,3.63,0,0,0-.66-2.31,2.22,2.22,0,0,0-1.84-.84,2.26,2.26,0,0,0-1.86.81,4.47,4.47,0,0,0,0,4.61,2.52,2.52,0,0,0,3.7,0Z" fill="#444"/><path d="M233.11,218.19H234V229.3h-.91Z" fill="#444"/><path d="M243,221.74v7.56H242v-1.45a2.47,2.47,0,0,1-1,1.16,3.15,3.15,0,0,1-1.61.4,3.26,3.26,0,0,1-1.77-.48,3.15,3.15,0,0,1-1.18-1.36,5.35,5.35,0,0,1,0-4.13,3.25,3.25,0,0,1,1.19-1.39A3.42,3.42,0,0,1,241,222a2.53,2.53,0,0,1,1,1.15v-1.36Zm-1.56,6a4.47,4.47,0,0,0,0-4.61,2.49,2.49,0,0,0-3.7,0,3.63,3.63,0,0,0-.66,2.31,3.47,3.47,0,0,0,.66,2.27,2.28,2.28,0,0,0,1.87.81A2.23,2.23,0,0,0,241.4,227.78Z" fill="#444"/><path d="M246.66,228.92a3.27,3.27,0,0,1-1.24-1.36,4.58,4.58,0,0,1-.43-2.05,4.7,4.7,0,0,1,.43-2.07,3.27,3.27,0,0,1,1.26-1.39,3.54,3.54,0,0,1,1.88-.49,4.21,4.21,0,0,1,1.47.26,3.15,3.15,0,0,1,1.16.73l-.36.73a4.46,4.46,0,0,0-1.13-.7,2.82,2.82,0,0,0-1.11-.22,2.39,2.39,0,0,0-1.93.84,3.47,3.47,0,0,0-.71,2.31,3.42,3.42,0,0,0,.7,2.27,2.44,2.44,0,0,0,1.94.81,2.82,2.82,0,0,0,1.11-.22,4.64,4.64,0,0,0,1.13-.68l.36.7a3.3,3.3,0,0,1-1.2.74,4.11,4.11,0,0,1-1.46.28A3.48,3.48,0,0,1,246.66,228.92Z" fill="#444"/><path d="M253.35,225.41v0a3.42,3.42,0,0,0,.7,2.33,2.56,2.56,0,0,0,2,.81,3.82,3.82,0,0,0,2.49-.93l.36.72a3.7,3.7,0,0,1-1.26.75,4.84,4.84,0,0,1-1.59.28,3.54,3.54,0,0,1-2.71-1,3.94,3.94,0,0,1-1-2.86,4.53,4.53,0,0,1,.45-2.06,3.29,3.29,0,0,1,1.24-1.39,3.42,3.42,0,0,1,1.84-.49,2.9,2.9,0,0,1,2.33,1,3.93,3.93,0,0,1,.84,2.68v.2Zm.87-2.47a3,3,0,0,0-.81,1.76h4.79a2.76,2.76,0,0,0-.68-1.78,2.16,2.16,0,0,0-1.61-.61A2.33,2.33,0,0,0,254.22,222.94Z" fill="#444"/><path d="M265,218.56h3.45a4.85,4.85,0,0,1,5.35,5.35,5.43,5.43,0,0,1-1.4,4,5.35,5.35,0,0,1-3.95,1.4H265Zm3.41,9.93a4.35,4.35,0,0,0,3.29-1.16,4.8,4.8,0,0,0,1.1-3.42c0-3-1.46-4.54-4.39-4.54H266v9.12Z" fill="#444"/><path d="M276.54,225.41v0a3.42,3.42,0,0,0,.7,2.33,2.56,2.56,0,0,0,2,.81,3.82,3.82,0,0,0,2.49-.93l.36.72a3.7,3.7,0,0,1-1.26.75,4.8,4.8,0,0,1-1.59.28,3.56,3.56,0,0,1-2.71-1,3.94,3.94,0,0,1-1-2.86,4.53,4.53,0,0,1,.45-2.06,3.29,3.29,0,0,1,1.24-1.39,3.42,3.42,0,0,1,1.84-.49,2.89,2.89,0,0,1,2.33,1,3.93,3.93,0,0,1,.84,2.68v.2Zm.87-2.47a3,3,0,0,0-.81,1.76h4.8a2.87,2.87,0,0,0-.68-1.78,2.18,2.18,0,0,0-1.62-.61A2.33,2.33,0,0,0,277.41,222.94Z" fill="#444"/><path d="M283.79,228.39l.34-.7a3.87,3.87,0,0,0,1.21.7,4.09,4.09,0,0,0,1.41.22,2.56,2.56,0,0,0,1.43-.33,1.07,1.07,0,0,0,.49-.94,1,1,0,0,0-.33-.81,2.39,2.39,0,0,0-1.06-.47l-1.28-.29a2.74,2.74,0,0,1-1.43-.76,1.75,1.75,0,0,1-.52-1.26,1.89,1.89,0,0,1,.76-1.59,3.2,3.2,0,0,1,2-.6,4,4,0,0,1,1.49.26,2.91,2.91,0,0,1,1.14.73l-.35.71a3.4,3.4,0,0,0-2.28-.9,2.27,2.27,0,0,0-1.36.35,1.23,1.23,0,0,0-.17,1.79,2,2,0,0,0,1,.47l1.3.32c1.35.3,2,1,2,2a1.8,1.8,0,0,1-.78,1.53,3.45,3.45,0,0,1-2.11.59A4.07,4.07,0,0,1,283.79,228.39Z" fill="#444"/><path d="M292.79,218.62v1.17h-1.23v-1.17Zm-1.09,3.12h.91v7.56h-.91Z" fill="#444"/><path d="M301.61,221.74v7.59a3.46,3.46,0,0,1-.81,2.49,3.19,3.19,0,0,1-2.4.85,5.28,5.28,0,0,1-2.94-.82l.18-.8a5.92,5.92,0,0,0,1.36.62,5.05,5.05,0,0,0,1.42.18,2.25,2.25,0,0,0,1.71-.62,2.54,2.54,0,0,0,.58-1.81v-1.95a2.56,2.56,0,0,1-1,1.19,3,3,0,0,1-1.63.41,3.18,3.18,0,0,1-3-1.8,4.68,4.68,0,0,1,0-3.92,3.14,3.14,0,0,1,1.2-1.32,3.33,3.33,0,0,1,1.76-.47,3.2,3.2,0,0,1,1.63.39,2.53,2.53,0,0,1,1,1.15v-1.36ZM300,227.46a3.17,3.17,0,0,0,.67-2.14,3.24,3.24,0,0,0-.67-2.17,2.29,2.29,0,0,0-1.85-.79,2.34,2.34,0,0,0-1.87.79,3.24,3.24,0,0,0-.68,2.17,3.19,3.19,0,0,0,.68,2.15,2.39,2.39,0,0,0,1.87.77A2.31,2.31,0,0,0,300,227.46Z" fill="#444"/><path d="M310.37,224.49v4.81h-.93v-4.75a2.46,2.46,0,0,0-.46-1.66,1.8,1.8,0,0,0-1.44-.53,2.47,2.47,0,0,0-1.82.69,2.56,2.56,0,0,0-.7,1.87v4.38h-.9v-5.46a16.31,16.31,0,0,0-.12-2.1h.87l.12,1.39a2.58,2.58,0,0,1,1-1.17,3.14,3.14,0,0,1,1.6-.4C309.45,221.56,310.37,222.54,310.37,224.49Z" fill="#444"/><path d="M319.25,221.74v7.56h-.92v-1.45a2.47,2.47,0,0,1-1,1.16,3.18,3.18,0,0,1-1.61.4,3.26,3.26,0,0,1-1.77-.48,3.15,3.15,0,0,1-1.18-1.36,4.74,4.74,0,0,1-.41-2.06,4.84,4.84,0,0,1,.42-2.07,3.3,3.3,0,0,1,1.18-1.39,3.17,3.17,0,0,1,1.76-.49,3.1,3.1,0,0,1,1.59.39,2.49,2.49,0,0,1,1,1.15v-1.36Zm-1.57,6a4.41,4.41,0,0,0,0-4.61,2.48,2.48,0,0,0-3.69,0,3.57,3.57,0,0,0-.67,2.31,3.42,3.42,0,0,0,.67,2.27,2.27,2.27,0,0,0,1.87.81A2.2,2.2,0,0,0,317.68,227.78Z" fill="#444"/><path d="M323,222.48V227a1.71,1.71,0,0,0,.35,1.25,1.39,1.39,0,0,0,1,.35,2.52,2.52,0,0,0,.82-.14v.83a4,4,0,0,1-1,.12,2.15,2.15,0,0,1-1.57-.56,2.28,2.28,0,0,1-.56-1.67v-4.68h-1.5v-.74h1.5v-2l.92-.34v2.35h2.23v.74Z" fill="#444"/><path d="M327.93,218.62v1.17h-1.22v-1.17Zm-1.09,3.12h.91v7.56h-.91Z" fill="#444"/><path d="M331.45,228.92a3.19,3.19,0,0,1-1.22-1.37,5.17,5.17,0,0,1,0-4.13,3.16,3.16,0,0,1,1.22-1.38,3.47,3.47,0,0,1,1.83-.48,3.37,3.37,0,0,1,1.81.48,3.16,3.16,0,0,1,1.22,1.38,5.17,5.17,0,0,1,0,4.13,3.19,3.19,0,0,1-1.22,1.37,3.29,3.29,0,0,1-1.81.49A3.39,3.39,0,0,1,331.45,228.92Zm3.68-1.14a4.31,4.31,0,0,0,0-4.6,2.49,2.49,0,0,0-3.69,0,4.36,4.36,0,0,0,0,4.61,2.55,2.55,0,0,0,3.72,0Z" fill="#444"/><path d="M345,224.49v4.81h-.92v-4.75a2.51,2.51,0,0,0-.46-1.66,1.83,1.83,0,0,0-1.44-.53,2.47,2.47,0,0,0-1.83.69,2.55,2.55,0,0,0-.69,1.87v4.38h-.91v-5.46a16.31,16.31,0,0,0-.12-2.1h.88l.12,1.39a2.47,2.47,0,0,1,1-1.17,3.09,3.09,0,0,1,1.6-.4C344.1,221.56,345,222.54,345,224.49Z" fill="#444"/></g><g style="isolation:isolate"><path d="M106.17,243.79h7.62v.66h-7.62Z" fill="#444"/><path d="M119,237.42H120v10.75H119Z" fill="#444"/><path d="M128.85,243.35v4.82h-.92v-4.76a2.49,2.49,0,0,0-.46-1.66,1.83,1.83,0,0,0-1.44-.52,2.49,2.49,0,0,0-1.83.69,2.54,2.54,0,0,0-.69,1.87v4.38h-.91V242.7a16.26,16.26,0,0,0-.12-2.09h.88l.12,1.39a2.43,2.43,0,0,1,1-1.17,3.12,3.12,0,0,1,1.6-.4C127.94,240.43,128.85,241.4,128.85,243.35Z" fill="#444"/><path d="M135.31,237.42h4.13a3.77,3.77,0,0,1,2.54.79,2.69,2.69,0,0,1,.92,2.16,2.72,2.72,0,0,1-.93,2.18,3.81,3.81,0,0,1-2.53.79h-3.2v4.83h-.93Zm4.07,5.1a2.82,2.82,0,0,0,1.92-.56,2.27,2.27,0,0,0,0-3.18,2.88,2.88,0,0,0-1.92-.56h-3.14v4.3Z" fill="#444"/><path d="M148.66,240.49l0,.83a3.58,3.58,0,0,0-.7-.06,2,2,0,0,0-1.71.73,2.76,2.76,0,0,0-.57,1.74v4.44h-.9V242.7a16.26,16.26,0,0,0-.12-2.09h.87l.12,1.4a2.29,2.29,0,0,1,.93-1.18,2.67,2.67,0,0,1,1.46-.4A3.23,3.23,0,0,1,148.66,240.49Z" fill="#444"/><path d="M151,247.79a3.19,3.19,0,0,1-1.22-1.37,5.2,5.2,0,0,1,0-4.14,3.19,3.19,0,0,1,1.22-1.37,3.48,3.48,0,0,1,1.84-.48,3.42,3.42,0,0,1,1.81.48,3.24,3.24,0,0,1,1.21,1.37,5.2,5.2,0,0,1,0,4.14,3.24,3.24,0,0,1-1.21,1.37,3.42,3.42,0,0,1-1.81.48A3.48,3.48,0,0,1,151,247.79Zm3.68-1.14a4.34,4.34,0,0,0,0-4.6,2.5,2.5,0,0,0-3.7,0,3.58,3.58,0,0,0-.66,2.3,3.63,3.63,0,0,0,.64,2.31,2.29,2.29,0,0,0,1.86.8A2.24,2.24,0,0,0,154.7,246.65Z" fill="#444"/><path d="M159.53,247.79a3.17,3.17,0,0,1-1.24-1.37,4.57,4.57,0,0,1-.44-2,4.72,4.72,0,0,1,.44-2.08,3.22,3.22,0,0,1,1.25-1.38,3.55,3.55,0,0,1,1.89-.49,4.07,4.07,0,0,1,1.47.26,3.11,3.11,0,0,1,1.15.73l-.36.73a4.49,4.49,0,0,0-1.12-.71,3,3,0,0,0-1.11-.21,2.37,2.37,0,0,0-1.93.83,3.44,3.44,0,0,0-.71,2.32,3.34,3.34,0,0,0,.7,2.26,2.4,2.4,0,0,0,1.94.82,3,3,0,0,0,1.11-.22,5,5,0,0,0,1.12-.69l.36.71a3.44,3.44,0,0,1-1.2.74,4.09,4.09,0,0,1-1.45.27A3.54,3.54,0,0,1,159.53,247.79Z" fill="#444"/><path d="M166.21,244.27v0a3.45,3.45,0,0,0,.7,2.33,2.57,2.57,0,0,0,2.05.81,3.81,3.81,0,0,0,2.49-.94l.36.73a3.58,3.58,0,0,1-1.27.74,4.5,4.5,0,0,1-1.58.28,3.59,3.59,0,0,1-2.72-1,4,4,0,0,1-1-2.87,4.56,4.56,0,0,1,.45-2.06,3.33,3.33,0,0,1,1.24-1.38,3.45,3.45,0,0,1,1.84-.49,3,3,0,0,1,2.34,1,4,4,0,0,1,.83,2.69v.19Zm.87-2.46a2.93,2.93,0,0,0-.81,1.75h4.8a2.8,2.8,0,0,0-.68-1.77,2.13,2.13,0,0,0-1.62-.61A2.34,2.34,0,0,0,167.08,241.81Z" fill="#444"/><path d="M173.47,247.26l.33-.71a4,4,0,0,0,1.21.71,4.36,4.36,0,0,0,1.41.21,2.66,2.66,0,0,0,1.43-.32,1.06,1.06,0,0,0,.49-1,1,1,0,0,0-.32-.8,2.43,2.43,0,0,0-1.07-.48l-1.28-.28a2.94,2.94,0,0,1-1.43-.76,1.79,1.79,0,0,1-.52-1.27,1.92,1.92,0,0,1,.77-1.59,3.16,3.16,0,0,1,2-.59,4.22,4.22,0,0,1,1.48.25,2.93,2.93,0,0,1,1.14.74l-.35.71a3.39,3.39,0,0,0-2.27-.9,2.3,2.3,0,0,0-1.36.34,1.12,1.12,0,0,0-.49,1,1.17,1.17,0,0,0,.31.83,2,2,0,0,0,1,.47l1.3.31q2,.45,2,2a1.83,1.83,0,0,1-.79,1.53,3.45,3.45,0,0,1-2.11.58A4.07,4.07,0,0,1,173.47,247.26Z" fill="#444"/><path d="M180.92,247.26l.33-.71a4,4,0,0,0,1.22.71,4.31,4.31,0,0,0,1.41.21,2.62,2.62,0,0,0,1.42-.32,1.06,1.06,0,0,0,.49-1,1,1,0,0,0-.32-.8,2.44,2.44,0,0,0-1.06-.48l-1.29-.28a2.86,2.86,0,0,1-1.42-.76,1.75,1.75,0,0,1-.52-1.27,1.92,1.92,0,0,1,.76-1.59,3.18,3.18,0,0,1,2-.59,4.28,4.28,0,0,1,1.49.25,3,3,0,0,1,1.13.74l-.34.71a3.44,3.44,0,0,0-2.28-.9,2.32,2.32,0,0,0-1.36.34,1.24,1.24,0,0,0-.17,1.8,1.88,1.88,0,0,0,1,.47l1.29.31q2,.45,2,2a1.83,1.83,0,0,1-.78,1.53,3.48,3.48,0,0,1-2.12.58A4.09,4.09,0,0,1,180.92,247.26Z" fill="#444"/></g></g><rect x="64.61" y="100.56" width="160.65" height="19.45" fill="none"/><g style="isolation:isolate"><path d="M74.64,104.24a4.14,4.14,0,0,1,0,6.08,5.47,5.47,0,0,1-3.63,1.1H68.07V115h-1.7V103.14H71A5.52,5.52,0,0,1,74.64,104.24Zm-1.22,5a2.42,2.42,0,0,0,.85-2,2.39,2.39,0,0,0-.85-2,3.83,3.83,0,0,0-2.46-.69H68.07V110H71A3.83,3.83,0,0,0,73.42,109.26Z" fill="#3e8eb2"/><path d="M80.89,106.35a4.57,4.57,0,0,1,2-.41v1.58l-.38,0a2.74,2.74,0,0,0-2.07.79,3.11,3.11,0,0,0-.76,2.25V115H78.07v-9h1.56v1.51A2.75,2.75,0,0,1,80.89,106.35Z" fill="#3e8eb2"/><path d="M92.92,111.07h-7.3a2.84,2.84,0,0,0,1,1.91,3.39,3.39,0,0,0,2.21.72,3.32,3.32,0,0,0,2.6-1.09l.9,1.06a4,4,0,0,1-1.52,1.08,5.78,5.78,0,0,1-4.56-.21,4.2,4.2,0,0,1-1.7-1.64,4.61,4.61,0,0,1-.61-2.38,4.74,4.74,0,0,1,.59-2.35,4.16,4.16,0,0,1,1.61-1.64,4.63,4.63,0,0,1,2.32-.59,4.5,4.5,0,0,1,2.3.59,4.09,4.09,0,0,1,1.58,1.64,5,5,0,0,1,.57,2.41A3.5,3.5,0,0,1,92.92,111.07Zm-6.37-3a2.85,2.85,0,0,0-.93,1.87H91.4a2.92,2.92,0,0,0-.93-1.86,3,3,0,0,0-3.92,0Z" fill="#3e8eb2"/><path d="M94.81,109.66h4.56v1.41H94.81Z" fill="#3e8eb2"/><path d="M109.39,112.05h-6.32l-1.3,3H100l5.38-11.88h1.68l5.4,11.88H110.7Zm-.6-1.36-2.56-5.82-2.56,5.82Z" fill="#3e8eb2"/><path d="M122.22,106v9h-1.54v-1.35a3.25,3.25,0,0,1-1.3,1.07,4,4,0,0,1-1.76.38,3.92,3.92,0,0,1-2.83-1,3.88,3.88,0,0,1-1-2.93V106h1.63v5a2.76,2.76,0,0,0,.63,2,2.34,2.34,0,0,0,1.8.68,2.67,2.67,0,0,0,2-.79,3,3,0,0,0,.75-2.2V106Z" fill="#3e8eb2"/><path d="M130.39,114.5a2.42,2.42,0,0,1-.89.46,3.58,3.58,0,0,1-1.08.16,2.92,2.92,0,0,1-2.11-.72,2.8,2.8,0,0,1-.75-2.09v-4.94H124V106h1.52v-2h1.63v2h2.58v1.34h-2.58v4.87a1.59,1.59,0,0,0,.37,1.12,1.35,1.35,0,0,0,1,.39,2,2,0,0,0,1.28-.42Z" fill="#3e8eb2"/><path d="M139.88,106.93a3.91,3.91,0,0,1,1,2.92V115h-1.63v-5a2.76,2.76,0,0,0-.63-2,2.33,2.33,0,0,0-1.79-.66,2.82,2.82,0,0,0-2.09.77,3,3,0,0,0-.77,2.22V115h-1.63V102.43H134v4.87a3.4,3.4,0,0,1,1.34-1,4.54,4.54,0,0,1,1.84-.36A3.71,3.71,0,0,1,139.88,106.93Z" fill="#3e8eb2"/><path d="M145.41,114.53a4.25,4.25,0,0,1-1.67-1.64,4.89,4.89,0,0,1,0-4.73,4.16,4.16,0,0,1,1.67-1.63,5.2,5.2,0,0,1,4.81,0,4.2,4.2,0,0,1,1.66,1.63,4.89,4.89,0,0,1,0,4.73,4.29,4.29,0,0,1-1.66,1.64,5.2,5.2,0,0,1-4.81,0Zm4-1.23a2.84,2.84,0,0,0,1.08-1.12,3.71,3.71,0,0,0,0-3.31,2.75,2.75,0,0,0-1.08-1.11,3.28,3.28,0,0,0-3.1,0,2.77,2.77,0,0,0-1.09,1.11,3.62,3.62,0,0,0,0,3.31,2.86,2.86,0,0,0,1.09,1.12,3.2,3.2,0,0,0,3.1,0Z" fill="#3e8eb2"/><path d="M157.56,106.35a4.6,4.6,0,0,1,2-.41v1.58l-.37,0a2.77,2.77,0,0,0-2.08.79,3.11,3.11,0,0,0-.76,2.25V115h-1.63v-9h1.57v1.51A2.77,2.77,0,0,1,157.56,106.35Z" fill="#3e8eb2"/><path d="M161.61,104a1,1,0,0,1-.31-.75,1,1,0,0,1,.31-.75,1.07,1.07,0,0,1,.79-.32,1.09,1.09,0,0,1,.79.3,1,1,0,0,1,.31.74,1,1,0,0,1-.31.77,1.06,1.06,0,0,1-.79.31A1.09,1.09,0,0,1,161.61,104Zm0,2h1.63v9h-1.63Z" fill="#3e8eb2"/><path d="M173,113.68V115h-7.53v-1l5.31-6.6h-5.21V106h7.3v1.07l-5.32,6.58Z" fill="#3e8eb2"/><path d="M181.3,106.86a3.54,3.54,0,0,1,1,2.73V115h-1.54v-1.19a2.57,2.57,0,0,1-1.16,1,4.47,4.47,0,0,1-1.79.33,3.77,3.77,0,0,1-2.42-.72,2.34,2.34,0,0,1-.91-1.92,2.37,2.37,0,0,1,.86-1.91,4.29,4.29,0,0,1,2.75-.72h2.58v-.33a2.06,2.06,0,0,0-.61-1.61,2.57,2.57,0,0,0-1.8-.56,4.91,4.91,0,0,0-1.56.26,4,4,0,0,0-1.29.71l-.68-1.22a4.89,4.89,0,0,1,1.67-.86,6.87,6.87,0,0,1,2.05-.3A4.06,4.06,0,0,1,181.3,106.86Zm-1.62,6.59a2.33,2.33,0,0,0,1-1.18V111h-2.51c-1.38,0-2.07.46-2.07,1.39a1.27,1.27,0,0,0,.53,1.07,2.39,2.39,0,0,0,1.46.39A3,3,0,0,0,179.68,113.45Z" fill="#3e8eb2"/><path d="M190.37,114.5a2.3,2.3,0,0,1-.88.46,3.6,3.6,0,0,1-1.09.16,2.91,2.91,0,0,1-2.1-.72,2.8,2.8,0,0,1-.75-2.09v-4.94H184V106h1.53v-2h1.63v2h2.58v1.34h-2.58v4.87a1.55,1.55,0,0,0,.37,1.12,1.35,1.35,0,0,0,1,.39,2,2,0,0,0,1.27-.42Z" fill="#3e8eb2"/><path d="M192.37,104a1,1,0,0,1-.32-.75,1,1,0,0,1,.32-.75,1.07,1.07,0,0,1,.79-.32,1.11,1.11,0,0,1,.79.3,1,1,0,0,1,.31.74,1,1,0,0,1-.31.77,1.08,1.08,0,0,1-.79.31A1.09,1.09,0,0,1,192.37,104Zm0,2H194v9h-1.63Z" fill="#3e8eb2"/><path d="M198.52,114.53a4.32,4.32,0,0,1-1.67-1.64,5,5,0,0,1,0-4.73,4.22,4.22,0,0,1,1.67-1.63,4.94,4.94,0,0,1,2.41-.59,4.85,4.85,0,0,1,2.4.59,4.29,4.29,0,0,1,1.67,1.63,5,5,0,0,1,0,4.73,4.38,4.38,0,0,1-1.67,1.64,4.75,4.75,0,0,1-2.4.59A4.84,4.84,0,0,1,198.52,114.53Zm4-1.23a2.84,2.84,0,0,0,1.08-1.12,3.71,3.71,0,0,0,0-3.31,2.75,2.75,0,0,0-1.08-1.11,3.28,3.28,0,0,0-3.1,0,2.84,2.84,0,0,0-1.09,1.11,3.62,3.62,0,0,0,0,3.31,2.93,2.93,0,0,0,1.09,1.12,3.2,3.2,0,0,0,3.1,0Z" fill="#3e8eb2"/><path d="M215.38,106.93a3.92,3.92,0,0,1,1,2.92V115h-1.63v-5a2.76,2.76,0,0,0-.63-2,2.37,2.37,0,0,0-1.8-.66,2.83,2.83,0,0,0-2.09.77,3,3,0,0,0-.76,2.22V115h-1.63v-9h1.56v1.35a3.21,3.21,0,0,1,1.33-1.07,4.82,4.82,0,0,1,1.91-.37A3.71,3.71,0,0,1,215.38,106.93Z" fill="#3e8eb2"/></g><line x1="78.08" y1="138.38" x2="78.08" y2="206.03" fill="none" stroke="#3e8eb2" stroke-miterlimit="10" stroke-width="0.75"/><path d="M90.08,223a11.69,11.69,0,0,1-11.67,11.67h0A11.69,11.69,0,0,1,66.74,223h0a11.69,11.69,0,0,1,11.67-11.66h0c5.83,1.14,11.67,5.83,11.67,11.66Z" fill="#b6322e"/><path d="M83.46,218c-3.17,1.58-4.84,4.67-6.34,7.58L75,223.46a24.34,24.34,0,0,1-3.34,2.08l9,9A11.44,11.44,0,0,0,89.54,224Z" opacity="0.1" style="isolation:isolate"/><path d="M75,223.46a13.53,13.53,0,0,1,1.66,3.08c1.67-3.17,3.34-6.83,6.84-8.58a8.79,8.79,0,0,0-.09,4.66c-3,1.5-4.83,4.25-6.66,7a11.7,11.7,0,0,0-5.09-4.16,17.88,17.88,0,0,0,3.34-2Z" fill="#fff"/></svg>