<svg xmlns="http://www.w3.org/2000/svg" width="69" height="69" viewBox="0 0 69 69">
  <g id="Group_8242" data-name="Group 8242" transform="translate(-95 -7552)">
    <g id="Group_8241" data-name="Group 8241" transform="translate(95 7552)">
      <circle id="Ellipse_1293" data-name="Ellipse 1293" cx="34.5" cy="34.5" r="34.5" fill="#1a4480"/>
      <g id="Group_7422" data-name="Group 7422" transform="translate(18.78 16.14)">
        <g id="Group_1697" data-name="Group 1697" transform="translate(22.578 0)">
          <g id="Group_1696" data-name="Group 1696">
            <g id="Group_1695" data-name="Group 1695">
              <g id="Group_1694" data-name="Group 1694">
                <g id="Group_1693" data-name="Group 1693">
                  <g id="Group_1692" data-name="Group 1692">
                    <g id="Group_1691" data-name="Group 1691">
                      <path id="Path_1573" data-name="Path 1573" d="M28.337,0V6.755h6.754Z" transform="translate(-28.337)" fill="#e5e5e5"/>
                    </g>
                  </g>
                </g>
              </g>
            </g>
          </g>
        </g>
        <g id="Group_1705" data-name="Group 1705" transform="translate(2.437 0)">
          <g id="Group_1704" data-name="Group 1704">
            <g id="Group_1703" data-name="Group 1703">
              <g id="Group_1702" data-name="Group 1702">
                <g id="Group_1701" data-name="Group 1701">
                  <g id="Group_1700" data-name="Group 1700">
                    <g id="Group_1699" data-name="Group 1699">
                      <g id="Group_1698" data-name="Group 1698">
                        <path id="Path_1574" data-name="Path 1574" d="M23.2,6.755V0H3.059V34.781h26.9V6.755H23.2Z" transform="translate(-3.059)" fill="#fff"/>
                      </g>
                    </g>
                  </g>
                </g>
              </g>
            </g>
          </g>
        </g>
        <path id="Path_1575" data-name="Path 1575" d="M30.67,14.345H.886A.886.886,0,0,0,0,15.232v9.819H30.67a.887.887,0,0,0,.887-.887V15.232A.887.887,0,0,0,30.67,14.345Z" transform="translate(0 -2.915)" fill="#d02128"/>
        <path id="Path_1576" data-name="Path 1576" d="M0,27.781l2.437,2.437V27.781Z" transform="translate(0 -5.645)" fill="#970b22"/>
        <path id="Path_1577" data-name="Path 1577" d="M34.105,30.587a7.107,7.107,0,0,0-9.357,10.22h9.357Z" transform="translate(-4.773 -6.028)" fill="#dbdbdb" opacity="0.5"/>
        <ellipse id="Ellipse_198" data-name="Ellipse 198" cx="5.7" cy="5.7" rx="5.7" ry="5.7" transform="translate(20.124 25.041)" fill="#fff"/>
        <path id="Path_1578" data-name="Path 1578" d="M34.488,37.842H33.178V35.05a.132.132,0,0,0-.131-.131H30.23a.132.132,0,0,0-.131.131v2.792H28.79a.174.174,0,0,0-.134.284l2.849,3.46a.174.174,0,0,0,.269,0l2.849-3.46A.174.174,0,0,0,34.488,37.842Z" transform="translate(-5.815 -7.096)" fill="#d02128"/>
        <path id="Path_1579" data-name="Path 1579" d="M8.668,16.818h2.441c1.523,0,2.77.543,2.77,2.249,0,1.662-1.268,2.387-2.728,2.387H10.33v2.3H8.668Zm2.387,3.325c.821,0,1.2-.384,1.2-1.076s-.437-.938-1.247-.938H10.33v2.014Z" transform="translate(-1.762 -3.417)" fill="#fff"/>
        <path id="Path_1580" data-name="Path 1580" d="M17.027,16.818H19.02c2.121,0,3.516,1.033,3.516,3.442a3.134,3.134,0,0,1-3.421,3.5H17.027Zm1.9,5.605c1.119,0,1.918-.522,1.918-2.163s-.8-2.11-1.918-2.11H18.69v4.273Z" transform="translate(-3.46 -3.417)" fill="#fff"/>
        <path id="Path_1581" data-name="Path 1581" d="M25.881,16.818h4.433V18.2H27.543v1.513H29.91V21.1H27.543v2.653H25.881Z" transform="translate(-5.26 -3.417)" fill="#fff"/>
      </g>
    </g>
  </g>
</svg>
