<?xml version="1.0" encoding="utf-8"?>
<!-- Generator: Adobe Illustrator 24.2.3, SVG Export Plug-In . SVG Version: 6.00 Build 0)  -->
<svg version="1.1" xmlns="http://www.w3.org/2000/svg" xmlns:xlink="http://www.w3.org/1999/xlink" x="0px" y="0px"
	 viewBox="0 0 450 350" style="enable-background:new 0 0 450 350;" xml:space="preserve">
<style type="text/css">
	.st0{opacity:0.46;fill:#FFFFFF;}
	.st1{fill:#F2F2F2;}
	.st2{fill:#0A90B7;}
	.st3{fill:#1294C2;}
	.st4{fill:#FFFFFF;}
	.st5{fill:#A6D7E5;}
	.st6{opacity:0.46;fill:#209ABD;}
	.st7{opacity:0.6;fill:#0A90B7;}
	.st8{fill:none;stroke:#0A90B7;stroke-width:0.75;stroke-miterlimit:10;}
	.st9{font-family:'Montserrat-SemiBold';}
	.st10{font-size:17.5003px;}
	.st11{fill:#757575;}
	.st12{fill:none;stroke:#FFFFFF;stroke-width:2;stroke-linecap:round;}
	.st13{fill:none;}
	.st14{fill:#444444;}
	.st15{font-family:'Muli-Light';}
	.st16{font-size:18.1619px;}
	.st17{letter-spacing:29;}
	.st18{fill:#0A90B7;stroke:#0A90B7;stroke-width:0.25;stroke-miterlimit:10;}
	.st19{font-family:'Muli-Black';}
	.st20{letter-spacing:19;}
	.st21{font-family:'Montserrat-Medium';}
	.st22{font-size:20.4321px;}
	.st23{font-family:'Muli-LightItalic';}
	.st24{font-size:15.8916px;}
	.st25{fill:#C71F25;}
	.st26{opacity:0.1;enable-background:new    ;}
	.st27{opacity:0.55;}
	.st28{fill:#D8D8D8;}
	.st29{opacity:0.55;fill:#F2F2F2;}
	.st30{opacity:0.55;fill:none;stroke:#0A90B7;stroke-width:0.75;stroke-miterlimit:10;}
	.st31{fill:#A00A0F;}
</style>
<g id="Layer_6">
</g>
<g id="Shapes">
</g>
<g id="background">
</g>
<g id="text">
</g>
<g id="Graphics">
</g>
<g id="Layer_5">
	<rect x="14.1" class="st0" width="421.9" height="350"/>
	<path id="Path_7616_1_" class="st2" d="M412.8,58.4H82.5V13.2h330.3l9.9,22.6L412.8,58.4z"/>
	<rect x="27.2" y="13.2" class="st1" width="55.3" height="45.3"/>
	<text transform="matrix(1 0 0 1 97.8501 42.0854)" class="st4 st9 st10">Preparation</text>
	<g>
		<path id="Path_1554_3_" class="st11" d="M233.8,320.9c0,6.3-5.1,11.4-11.4,11.4c-6.3,0-11.4-5.1-11.4-11.4s5.1-11.4,11.4-11.4
			C228.7,309.5,233.8,314.7,233.8,320.9z"/>
		<g id="Group_1434_3_" transform="translate(4.574 4.222)">
			<g id="arrow_3_" transform="translate(4.574 0)">
				<path id="arrow-2_3_" class="st4" d="M213.3,323.6c-0.3,0-0.6-0.1-0.9-0.4l-5-4.9c-0.5-0.4-0.5-1.2-0.1-1.6c0,0,0-0.1,0.1-0.1
					c0.5-0.5,1.3-0.5,1.7,0c0,0,0,0,0,0l4.1,4l4.1-4c0.5-0.5,1.3-0.5,1.7,0c0,0,0,0,0,0c0.5,0.4,0.5,1.2,0.1,1.6c0,0,0,0-0.1,0.1
					l-5,4.9C214,323.5,213.7,323.6,213.3,323.6z"/>
			</g>
			<path id="Path_1968_3_" class="st12" d="M217.8,320.9v-10.1"/>
		</g>
	</g>
	<g>
		<path class="st4" d="M47.6,47.2c-2.6,0-4.7-1.1-6.3-3.1c-1.6-2.1-2.4-4.9-2.4-8.3c0-3.4,0.8-6.2,2.4-8.3c1.6-2.1,3.7-3.1,6.3-3.1
			c2.6,0,4.7,1.1,6.3,3.1c1.6,2.1,2.4,4.9,2.4,8.3c0,3.4-0.8,6.2-2.4,8.3C52.3,46.2,50.2,47.2,47.6,47.2L47.6,47.2z M47.7,29.4
			c-0.7,0-1.1,0.4-1.4,1.2c-0.3,0.7-0.6,2.2-0.6,5.2c0,3.1,0.3,4.5,0.6,5.2c0.3,0.8,0.7,1.2,1.4,1.2c0.7,0,1.1-0.4,1.5-1.2
			c0.3-0.7,0.6-2.2,0.6-5.2c0-3.1-0.3-4.6-0.6-5.3C48.8,29.7,48.4,29.4,47.7,29.4L47.7,29.4z M69.5,47.2c0.5,0,0.9-0.5,0.9-1.1v-2.8
			c0-0.6-0.4-1.2-0.9-1.2h-1.2c-1.2,0-1.2-0.6-1.2-1.2V25.5c0-0.6-0.4-1.2-0.9-1.2h-3.8c-0.4,0-0.7,0.3-0.8,0.7
			c-0.2,0.7-0.6,1.2-1.2,1.5c-0.7,0.4-1.6,0.6-2.8,0.6c-0.5,0-0.9,0.5-0.9,1.1v2.8c0,0.3,0.1,0.6,0.2,0.8c0.2,0.2,0.4,0.3,0.6,0.3
			h2.6v8.3v0.6c0,0.4,0,0.8-1.3,0.8h-1.3c-0.5,0-0.9,0.5-0.9,1.2v2.8c0,0.6,0.4,1.1,0.9,1.1H69.5L69.5,47.2z"/>
		<path class="st2" d="M57.6,46.1v-2.8h1.3c0.9,0,1.4-0.1,1.7-0.3c0.3-0.2,0.4-0.8,0.4-1.7v-0.6v-9.5h-3.5v-2.8
			c1.3,0,2.4-0.3,3.2-0.7c0.8-0.5,1.4-1.2,1.7-2.1h3.8v15.3c0,1.1,0.1,1.8,0.3,2c0.2,0.3,0.8,0.4,1.8,0.4h1.2v2.8H57.6z M39.8,35.8
			c0-3.1,0.7-5.6,2.2-7.5c1.5-1.9,3.4-2.8,5.7-2.8c2.4,0,4.3,0.9,5.7,2.8c1.4,1.9,2.2,4.4,2.2,7.5c0,3.1-0.7,5.6-2.2,7.5
			c-1.5,1.9-3.4,2.8-5.7,2.8c-2.4,0-4.3-0.9-5.7-2.8C40.5,41.4,39.8,38.9,39.8,35.8z M44.8,35.8c0,2.7,0.2,4.6,0.7,5.7
			c0.4,1.2,1.2,1.8,2.2,1.8c1,0,1.7-0.6,2.2-1.8c0.5-1.2,0.7-3.1,0.7-5.7c0-2.7-0.2-4.6-0.7-5.7c-0.4-1.2-1.2-1.8-2.2-1.8
			c-1,0-1.7,0.6-2.2,1.8C45,31.2,44.8,33.1,44.8,35.8z"/>
		<path class="st5" d="M66.4,43.1l-0.3,0.4c-0.4-0.4-0.6-1.3-0.6-2.7V26.4l0.4-0.6v15.1C66,42.1,66.1,42.8,66.4,43.1z M61,30.3h-2.8
			l-0.4,0.6H61c0.1,0,0.1,0,0.2,0.1l0.3-0.4C61.4,30.4,61.2,30.3,61,30.3z M68.8,44.1v1.1H58.2l-0.4,0.6h11.5v-2.2L68.8,44.1z
			 M45.3,41.7c-0.5-1.2-0.7-3.1-0.7-5.9c0-2.7,0.2-4.6,0.7-5.9c0.5-1.3,1.3-1.9,2.4-1.9c0.7,0,1.3,0.3,1.8,0.9l0.3-0.4
			c-0.5-0.7-1.2-1.1-2.1-1.1c-1.2,0-2.2,0.8-2.7,2.2c-0.5,1.3-0.7,3.3-0.7,6.1c0,2.8,0.2,4.8,0.7,6.1c0.2,0.4,0.4,0.8,0.6,1.1
			l0.3-0.4C45.6,42.3,45.4,42,45.3,41.7z M53.3,28.6L53,29c1.3,1.7,1.9,4,1.9,6.8c0,2.9-0.7,5.2-2,6.9c-1.3,1.7-3.1,2.6-5.3,2.6
			c-2.2,0-4-0.9-5.3-2.6v0l-0.3,0.4c0,0,0,0,0,0c1.4,1.8,3.3,2.7,5.6,2.7c2.3,0,4.2-0.9,5.6-2.8c1.4-1.8,2.1-4.3,2.1-7.3
			C55.3,32.8,54.7,30.4,53.3,28.6z"/>
	</g>
	<rect x="14.1" class="st6" width="421.9" height="350"/>
	<g>
		<polygon class="st2" points="14.1,345.1 0,326.7 14.1,326.7 		"/>
		<polygon class="st2" points="435.9,345.1 450,326.7 435.9,326.7 		"/>
		<rect x="14.1" y="316.7" class="st7" width="421.9" height="17.4"/>
	</g>
	<g>
		<rect x="0" y="66.9" class="st1" width="450" height="259.8"/>
		<g>
			<rect x="39" y="162.9" class="st13" width="399.4" height="145.4"/>
			<text transform="matrix(1 0 0 1 39.0195 178.4407)"><tspan x="0" y="0" class="st14 st15 st16 st17">	</tspan><tspan x="34.1" y="0" class="st14 st15 st16">RAR Development</tspan><tspan x="0" y="34.1" class="st18 st19 st16">•</tspan><tspan x="9.7" y="34.1" class="st14 st15 st16 st20">	</tspan><tspan x="34.1" y="34.1" class="st14 st15 st16">FedRAMP PMO Review of RAR</tspan><tspan x="0" y="68.1" class="st18 st19 st16">•</tspan><tspan x="9.7" y="68.1" class="st14 st15 st16 st20">	</tspan><tspan x="34.1" y="68.1" class="st14 st15 st16">Remediation (if needed)</tspan><tspan x="0" y="102.2" class="st14 st15 st16 st17">	</tspan><tspan x="34.1" y="102.2" class="st14 st15 st16">FedRAMP Marketplace Designation – </tspan><tspan x="34.1" y="124.9" class="st14 st15 st16">Ready</tspan></text>
		</g>
		<g>
			<rect x="27.6" y="85.7" class="st13" width="247.2" height="56.6"/>
			<text transform="matrix(1 0 0 1 27.6196 102.9368)" class="st2 st21 st22">Readiness Assessment</text>
		</g>
		<text transform="matrix(1 0 0 1 26.2778 129.676)" class="st14 st23 st24">(Optional, but highly recommended)</text>
		<line class="st8" x1="43.9" y1="163.7" x2="43.9" y2="247.3"/>
		<g>
			<g>
				<circle class="st2" cx="43.9" cy="163.7" r="13.7"/>
			</g>
			<g>
				<path class="st4" d="M46.8,160c-0.4,0-0.7-0.3-0.7-0.7v-4.5h-7c-1,0-1.8,0.8-1.8,1.8v14.3c0,1,0.8,1.8,1.8,1.8h10.5
					c1,0,1.8-0.8,1.8-1.8V160H46.8z"/>
			</g>
			<path class="st5" d="M46.7,160h4.6l-5.2-5.2v4.6C46.1,159.7,46.4,160,46.7,160z"/>
			<polygon class="st1" points="51.3,163.7 51.3,160 46.7,160 			"/>
		</g>
		<g>
			<g id="g56755_3_" transform="matrix(14,0,0,14,49637.042,519374.88)">
				<path id="path56757_3_" class="st25" d="M-3541.4-37078.9c0,0.5-0.4,1-1,1l0,0c-0.5,0-1-0.4-1-1l0,0c0-0.5,0.4-1,1-1l0,0
					C-3541.8-37079.8-3541.4-37079.4-3541.4-37078.9L-3541.4-37078.9z"/>
			</g>
			<path id="path53460_3_" class="st26" d="M50.3,264.4c-3.8,1.9-5.8,5.6-7.6,9.1l-2.6-2.6c-1.3,1-2.7,1.8-4,2.5l10.8,10.8
				c6-1.3,10.3-6.5,10.7-12.6L50.3,264.4z"/>
			<path id="path38606_3_" class="st4" d="M40.1,270.9c0.8,1,1.4,2.3,2,3.7c2-3.8,4-8.2,8.2-10.3c-0.4,1.8-0.7,3.9-0.1,5.6
				c-3.6,1.8-5.8,5.1-8,8.4c-2.2-3-4-4-6.1-5C37.4,272.7,38.8,271.9,40.1,270.9L40.1,270.9z"/>
		</g>
	</g>
</g>
</svg>
