<?xml version="1.0" encoding="utf-8"?>
<!-- Generator: Adobe Illustrator 24.2.3, SVG Export Plug-In . SVG Version: 6.00 Build 0)  -->
<svg version="1.1" xmlns="http://www.w3.org/2000/svg" xmlns:xlink="http://www.w3.org/1999/xlink" x="0px" y="0px"
	 viewBox="0 0 450 420.4" style="enable-background:new 0 0 450 420.4;" xml:space="preserve">
<style type="text/css">
	.st0{opacity:0.46;fill:#FFFFFF;}
	.st1{fill:#0A90B7;}
	.st2{fill:#F2F2F2;}
	.st3{enable-background:new    ;}
	.st4{fill:#FFFFFF;}
	.st5{fill:#A6D7E5;}
	.st6{opacity:0.55;}
	.st7{fill:#757575;}
	.st8{fill:#444444;}
	.st9{opacity:0.46;fill:#209ABD;}
	.st10{opacity:0.6;fill:#0A90B7;}
	.st11{opacity:0.55;fill:#F2F2F2;}
	.st12{fill:#1294C2;}
	.st13{fill:#C71F25;}
	.st14{opacity:0.1;enable-background:new    ;}
</style>
<g id="Layer_6">
</g>
<g id="Shapes">
</g>
<g id="background">
</g>
<g id="text">
</g>
<g id="Graphics">
</g>
<g id="Layer_5">
	<rect x="49.5" class="st0" width="351.6" height="420.4"/>
	<path id="Path_7616_2_" class="st1" d="M383.9,51.3H109V13.6h275l8.3,18.8L383.9,51.3z"/>
	<rect x="62.9" y="13.6" class="st2" width="46" height="37.7"/>
	<rect x="68.1" y="66.5" class="st11" width="310.5" height="95"/>
	<g class="st6">
		<g>
			<path class="st8" d="M121.4,123.7c-0.5-0.2-1-0.5-1.4-0.9l0.3-0.6c0.4,0.4,0.9,0.7,1.3,0.8c0.5,0.2,1,0.3,1.6,0.3
				c0.8,0,1.3-0.2,1.8-0.5s0.6-0.7,0.6-1.3c0-0.3-0.1-0.6-0.3-0.8c-0.2-0.2-0.5-0.4-0.8-0.5c-0.3-0.1-0.7-0.2-1.2-0.4
				c-0.7-0.2-1.2-0.3-1.7-0.5c-0.4-0.2-0.8-0.4-1.1-0.7c-0.3-0.3-0.4-0.8-0.4-1.3c0-0.5,0.1-0.9,0.4-1.3c0.3-0.4,0.6-0.7,1.1-0.9
				s1-0.3,1.7-0.3c0.6,0,1.2,0.1,1.7,0.3c0.5,0.2,1,0.5,1.3,0.9l-0.3,0.6c-0.4-0.4-0.8-0.7-1.3-0.8c-0.4-0.2-0.9-0.3-1.4-0.3
				c-0.8,0-1.3,0.2-1.8,0.5c-0.4,0.3-0.6,0.8-0.6,1.3c0,0.5,0.2,0.9,0.6,1.1c0.4,0.2,0.9,0.4,1.6,0.6l0.4,0.1
				c0.7,0.2,1.2,0.3,1.6,0.5s0.7,0.4,1,0.7c0.3,0.3,0.4,0.7,0.4,1.2c0,0.5-0.1,0.9-0.4,1.3c-0.3,0.4-0.6,0.7-1.1,0.9
				c-0.5,0.2-1,0.3-1.7,0.3C122.6,123.9,121.9,123.9,121.4,123.7z"/>
			<path class="st8" d="M128.5,120.6L128.5,120.6c0,0.9,0.2,1.5,0.6,2c0.4,0.4,1,0.7,1.7,0.7c0.8,0,1.4-0.3,2.1-0.8l0.3,0.6
				c-0.3,0.3-0.6,0.5-1.1,0.6c-0.4,0.2-0.9,0.2-1.3,0.2c-1,0-1.7-0.3-2.3-0.9c-0.6-0.6-0.8-1.4-0.8-2.4c0-0.6,0.1-1.2,0.4-1.7
				s0.6-0.9,1-1.2c0.4-0.3,1-0.4,1.5-0.4c0.8,0,1.5,0.3,1.9,0.8s0.7,1.3,0.7,2.2v0.2H128.5z M129.3,118.6c-0.4,0.3-0.6,0.8-0.7,1.5
				h4c-0.1-0.6-0.2-1.1-0.6-1.5s-0.8-0.5-1.3-0.5C130.1,118,129.6,118.2,129.3,118.6z"/>
			<path class="st8" d="M136,123.5c-0.4-0.3-0.8-0.6-1-1.1c-0.2-0.5-0.4-1.1-0.4-1.7c0-0.7,0.1-1.2,0.4-1.7c0.2-0.5,0.6-0.9,1-1.2
				s1-0.4,1.6-0.4c0.4,0,0.8,0.1,1.2,0.2c0.4,0.1,0.7,0.3,1,0.6l-0.3,0.6c-0.3-0.3-0.6-0.5-0.9-0.6c-0.3-0.1-0.6-0.2-0.9-0.2
				c-0.7,0-1.2,0.2-1.6,0.7s-0.6,1.1-0.6,1.9c0,0.8,0.2,1.4,0.6,1.9c0.4,0.5,0.9,0.7,1.6,0.7c0.3,0,0.6-0.1,0.9-0.2
				c0.3-0.1,0.6-0.3,0.9-0.6l0.3,0.6c-0.3,0.3-0.6,0.5-1,0.6s-0.8,0.2-1.2,0.2C136.9,123.9,136.4,123.8,136,123.5z"/>
			<path class="st8" d="M146.2,117.6v6.3h-0.7v-1.1c-0.2,0.4-0.5,0.7-0.9,0.9c-0.4,0.2-0.8,0.3-1.3,0.3c-0.7,0-1.3-0.2-1.7-0.6
				c-0.4-0.4-0.6-1-0.6-1.8v-3.9h0.8v3.9c0,0.6,0.1,1.1,0.4,1.4s0.6,0.4,1.2,0.4c0.6,0,1.1-0.2,1.5-0.6c0.4-0.4,0.6-0.9,0.6-1.5
				v-3.6H146.2z"/>
			<path class="st8" d="M151.7,117.5l0,0.7c-0.2,0-0.4,0-0.6,0c-0.6,0-1.1,0.2-1.4,0.6c-0.3,0.4-0.5,0.9-0.5,1.4v3.7h-0.8v-4.5
				c0-0.7,0-1.2-0.1-1.7h0.7l0.1,1.2c0.2-0.4,0.4-0.8,0.8-1s0.8-0.3,1.2-0.3C151.3,117.4,151.5,117.4,151.7,117.5z"/>
			<path class="st8" d="M153.7,115v1h-1v-1H153.7z M152.8,117.6h0.8v6.3h-0.8V117.6z"/>
			<path class="st8" d="M156.8,118.2v3.7c0,0.5,0.1,0.8,0.3,1c0.2,0.2,0.5,0.3,0.9,0.3c0.2,0,0.5,0,0.7-0.1v0.7
				c-0.3,0.1-0.5,0.1-0.8,0.1c-0.6,0-1-0.2-1.3-0.5c-0.3-0.3-0.5-0.8-0.5-1.4v-3.9h-1.2v-0.6h1.2v-1.7l0.8-0.3v2h1.9v0.6H156.8z"/>
			<path class="st8" d="M165.4,117.6l-3,6.9c-0.3,0.7-0.7,1.2-1.1,1.5c-0.4,0.3-1,0.5-1.6,0.7l-0.2-0.6c0.6-0.1,1.1-0.3,1.4-0.6
				c0.3-0.2,0.6-0.6,0.8-1.1l0.3-0.6l-2.7-6.3h0.8l2.3,5.5l2.3-5.5H165.4z"/>
			<path class="st8" d="M175.9,121.5h-4.8l-1,2.4h-0.8l3.9-8.9h0.7l3.9,8.9h-0.8L175.9,121.5z M175.6,120.8l-2.1-4.9l-2.1,4.9H175.6
				z"/>
			<path class="st8" d="M184.2,117.6v6.3h-0.7v-1.1c-0.2,0.4-0.5,0.7-0.9,0.9c-0.4,0.2-0.8,0.3-1.3,0.3c-0.7,0-1.3-0.2-1.7-0.6
				c-0.4-0.4-0.6-1-0.6-1.8v-3.9h0.8v3.9c0,0.6,0.1,1.1,0.4,1.4s0.6,0.4,1.2,0.4c0.6,0,1.1-0.2,1.5-0.6c0.4-0.4,0.6-0.9,0.6-1.5
				v-3.6H184.2z"/>
			<path class="st8" d="M187.4,118.2v3.7c0,0.5,0.1,0.8,0.3,1c0.2,0.2,0.5,0.3,0.9,0.3c0.2,0,0.5,0,0.7-0.1v0.7
				c-0.3,0.1-0.5,0.1-0.8,0.1c-0.6,0-1-0.2-1.3-0.5c-0.3-0.3-0.5-0.8-0.5-1.4v-3.9h-1.2v-0.6h1.2v-1.7l0.8-0.3v2h1.9v0.6H187.4z"/>
			<path class="st8" d="M195.8,119.8v4h-0.8v-3.9c0-0.6-0.1-1.1-0.4-1.4s-0.7-0.4-1.2-0.4c-0.6,0-1.1,0.2-1.5,0.6
				c-0.4,0.4-0.6,0.9-0.6,1.6v3.6h-0.8v-9.2h0.8v4c0.2-0.4,0.5-0.7,0.9-0.9c0.4-0.2,0.8-0.3,1.3-0.3
				C195.1,117.4,195.8,118.2,195.8,119.8z"/>
			<path class="st8" d="M198.9,123.5c-0.4-0.3-0.8-0.6-1-1.1c-0.2-0.5-0.4-1.1-0.4-1.7s0.1-1.2,0.4-1.7c0.2-0.5,0.6-0.9,1-1.1
				c0.4-0.3,0.9-0.4,1.5-0.4c0.6,0,1.1,0.1,1.5,0.4c0.4,0.3,0.8,0.6,1,1.1c0.2,0.5,0.4,1.1,0.4,1.7s-0.1,1.2-0.4,1.7
				c-0.2,0.5-0.6,0.9-1,1.1c-0.4,0.3-0.9,0.4-1.5,0.4C199.9,123.9,199.4,123.8,198.9,123.5z M202,122.6c0.4-0.4,0.5-1.1,0.5-1.9
				c0-0.8-0.2-1.5-0.6-1.9c-0.4-0.5-0.9-0.7-1.5-0.7c-0.7,0-1.2,0.2-1.5,0.7c-0.4,0.5-0.6,1.1-0.6,1.9c0,0.8,0.2,1.5,0.5,1.9
				s0.9,0.7,1.5,0.7C201.1,123.3,201.6,123,202,122.6z"/>
			<path class="st8" d="M208.3,117.5l0,0.7c-0.2,0-0.4,0-0.6,0c-0.6,0-1.1,0.2-1.4,0.6c-0.3,0.4-0.5,0.9-0.5,1.4v3.7h-0.8v-4.5
				c0-0.7,0-1.2-0.1-1.7h0.7l0.1,1.2c0.2-0.4,0.4-0.8,0.8-1s0.8-0.3,1.2-0.3C208,117.4,208.2,117.4,208.3,117.5z"/>
			<path class="st8" d="M210.4,115v1h-1v-1H210.4z M209.5,117.6h0.8v6.3h-0.8V117.6z"/>
			<path class="st8" d="M217.3,123.2v0.6H212v-0.5l4.2-5.1h-4v-0.6h5v0.6l-4.1,5.1H217.3z"/>
			<path class="st8" d="M224.1,117.6v6.3h-0.8v-1.2c-0.2,0.4-0.5,0.7-0.8,1c-0.4,0.2-0.8,0.3-1.3,0.3c-0.6,0-1.1-0.1-1.5-0.4
				c-0.4-0.3-0.7-0.6-1-1.1c-0.2-0.5-0.3-1.1-0.3-1.7s0.1-1.2,0.4-1.7c0.2-0.5,0.6-0.9,1-1.2s0.9-0.4,1.5-0.4c0.5,0,1,0.1,1.3,0.3
				c0.4,0.2,0.7,0.5,0.8,1v-1.1H224.1z M222.8,122.6c0.4-0.5,0.5-1.1,0.5-1.9c0-0.8-0.2-1.5-0.5-1.9s-0.9-0.7-1.5-0.7
				s-1.2,0.2-1.5,0.7c-0.4,0.5-0.6,1.1-0.6,1.9c0,0.8,0.2,1.4,0.6,1.9c0.4,0.4,0.9,0.7,1.6,0.7C222,123.3,222.5,123,222.8,122.6z"/>
			<path class="st8" d="M227.4,118.2v3.7c0,0.5,0.1,0.8,0.3,1c0.2,0.2,0.5,0.3,0.9,0.3c0.2,0,0.5,0,0.7-0.1v0.7
				c-0.3,0.1-0.5,0.1-0.8,0.1c-0.6,0-1-0.2-1.3-0.5c-0.3-0.3-0.5-0.8-0.5-1.4v-3.9h-1.2v-0.6h1.2v-1.7l0.8-0.3v2h1.9v0.6H227.4z"/>
			<path class="st8" d="M231.5,115v1h-1v-1H231.5z M230.6,117.6h0.8v6.3h-0.8V117.6z"/>
			<path class="st8" d="M234.5,123.5c-0.4-0.3-0.8-0.6-1-1.1c-0.2-0.5-0.4-1.1-0.4-1.7s0.1-1.2,0.4-1.7c0.2-0.5,0.6-0.9,1-1.1
				c0.4-0.3,0.9-0.4,1.5-0.4c0.6,0,1.1,0.1,1.5,0.4c0.4,0.3,0.8,0.6,1,1.1c0.2,0.5,0.4,1.1,0.4,1.7s-0.1,1.2-0.4,1.7
				c-0.2,0.5-0.6,0.9-1,1.1c-0.4,0.3-0.9,0.4-1.5,0.4C235.4,123.9,234.9,123.8,234.5,123.5z M237.5,122.6c0.4-0.4,0.5-1.1,0.5-1.9
				c0-0.8-0.2-1.5-0.6-1.9c-0.4-0.5-0.9-0.7-1.5-0.7c-0.7,0-1.2,0.2-1.5,0.7c-0.4,0.5-0.6,1.1-0.6,1.9c0,0.8,0.2,1.5,0.5,1.9
				s0.9,0.7,1.5,0.7C236.6,123.3,237.2,123,237.5,122.6z"/>
			<path class="st8" d="M245.8,119.8v4H245v-3.9c0-0.6-0.1-1.1-0.4-1.4s-0.7-0.4-1.2-0.4c-0.6,0-1.1,0.2-1.5,0.6
				c-0.4,0.4-0.6,0.9-0.6,1.6v3.6h-0.8v-4.5c0-0.7,0-1.2-0.1-1.7h0.7l0.1,1.2c0.2-0.4,0.5-0.7,0.9-1c0.4-0.2,0.8-0.3,1.3-0.3
				C245,117.4,245.8,118.2,245.8,119.8z"/>
			<path class="st8" d="M251.3,114.9h3.4c0.9,0,1.6,0.2,2.1,0.7c0.5,0.4,0.8,1,0.8,1.8c0,0.8-0.3,1.4-0.8,1.8
				c-0.5,0.4-1.2,0.7-2.1,0.7h-2.7v4h-0.8V114.9z M254.7,119.2c0.7,0,1.2-0.2,1.6-0.5s0.5-0.8,0.5-1.3c0-0.6-0.2-1-0.5-1.3
				s-0.9-0.5-1.6-0.5h-2.6v3.6H254.7z"/>
			<path class="st8" d="M264.4,117.6v6.3h-0.8v-1.2c-0.2,0.4-0.5,0.7-0.8,1c-0.4,0.2-0.8,0.3-1.3,0.3c-0.6,0-1.1-0.1-1.5-0.4
				c-0.4-0.3-0.7-0.6-1-1.1c-0.2-0.5-0.3-1.1-0.3-1.7s0.1-1.2,0.4-1.7c0.2-0.5,0.6-0.9,1-1.2s0.9-0.4,1.5-0.4c0.5,0,1,0.1,1.3,0.3
				c0.4,0.2,0.7,0.5,0.8,1v-1.1H264.4z M263.1,122.6c0.4-0.5,0.5-1.1,0.5-1.9c0-0.8-0.2-1.5-0.5-1.9s-0.9-0.7-1.5-0.7
				s-1.2,0.2-1.5,0.7c-0.4,0.5-0.6,1.1-0.6,1.9c0,0.8,0.2,1.4,0.6,1.9c0.4,0.4,0.9,0.7,1.6,0.7C262.3,123.3,262.8,123,263.1,122.6z"
				/>
			<path class="st8" d="M267.6,123.5c-0.4-0.3-0.8-0.6-1-1.1c-0.2-0.5-0.4-1.1-0.4-1.7c0-0.7,0.1-1.2,0.4-1.7c0.2-0.5,0.6-0.9,1-1.2
				s1-0.4,1.6-0.4c0.4,0,0.8,0.1,1.2,0.2c0.4,0.1,0.7,0.3,1,0.6l-0.3,0.6c-0.3-0.3-0.6-0.5-0.9-0.6c-0.3-0.1-0.6-0.2-0.9-0.2
				c-0.7,0-1.2,0.2-1.6,0.7s-0.6,1.1-0.6,1.9c0,0.8,0.2,1.4,0.6,1.9c0.4,0.5,0.9,0.7,1.6,0.7c0.3,0,0.6-0.1,0.9-0.2
				c0.3-0.1,0.6-0.3,0.9-0.6l0.3,0.6c-0.3,0.3-0.6,0.5-1,0.6s-0.8,0.2-1.2,0.2C268.5,123.9,268,123.8,267.6,123.5z"/>
			<path class="st8" d="M277,123.8l-3.5-3.1v3.1h-0.8v-9.2h0.8v5.9l3.2-2.9h1l-3.3,3l3.6,3.3H277z"/>
			<path class="st8" d="M284.3,117.6v6.3h-0.8v-1.2c-0.2,0.4-0.5,0.7-0.8,1c-0.4,0.2-0.8,0.3-1.3,0.3c-0.6,0-1.1-0.1-1.5-0.4
				c-0.4-0.3-0.7-0.6-1-1.1c-0.2-0.5-0.3-1.1-0.3-1.7s0.1-1.2,0.4-1.7c0.2-0.5,0.6-0.9,1-1.2s0.9-0.4,1.5-0.4c0.5,0,1,0.1,1.3,0.3
				c0.4,0.2,0.7,0.5,0.8,1v-1.1H284.3z M283,122.6c0.4-0.5,0.5-1.1,0.5-1.9c0-0.8-0.2-1.5-0.5-1.9s-0.9-0.7-1.5-0.7
				s-1.2,0.2-1.5,0.7c-0.4,0.5-0.6,1.1-0.6,1.9c0,0.8,0.2,1.4,0.6,1.9c0.4,0.4,0.9,0.7,1.6,0.7C282.1,123.3,282.6,123,283,122.6z"/>
			<path class="st8" d="M291.8,117.6v6.3c0,0.9-0.2,1.6-0.7,2.1c-0.5,0.5-1.1,0.7-2,0.7c-0.9,0-1.8-0.2-2.4-0.7l0.2-0.7
				c0.4,0.2,0.8,0.4,1.1,0.5s0.7,0.2,1.2,0.2c0.6,0,1.1-0.2,1.4-0.5c0.3-0.3,0.5-0.8,0.5-1.5v-1.6c-0.2,0.4-0.5,0.8-0.9,1
				c-0.4,0.2-0.8,0.3-1.4,0.3c-0.6,0-1-0.1-1.5-0.4c-0.4-0.3-0.8-0.6-1-1.1s-0.4-1-0.4-1.6c0-0.6,0.1-1.2,0.4-1.6s0.6-0.8,1-1.1
				c0.4-0.3,0.9-0.4,1.5-0.4c0.5,0,1,0.1,1.3,0.3s0.7,0.5,0.8,1v-1.1H291.8z M290.5,122.3c0.4-0.4,0.6-1,0.6-1.8
				c0-0.8-0.2-1.4-0.6-1.8c-0.4-0.4-0.9-0.7-1.5-0.7c-0.7,0-1.2,0.2-1.6,0.7c-0.4,0.4-0.6,1-0.6,1.8c0,0.8,0.2,1.4,0.6,1.8
				c0.4,0.4,0.9,0.6,1.6,0.6C289.6,123,290.1,122.8,290.5,122.3z"/>
			<path class="st8" d="M294.4,120.6L294.4,120.6c0,0.9,0.2,1.5,0.6,2c0.4,0.4,1,0.7,1.7,0.7c0.8,0,1.4-0.3,2.1-0.8l0.3,0.6
				c-0.3,0.3-0.6,0.5-1.1,0.6c-0.4,0.2-0.9,0.2-1.3,0.2c-1,0-1.7-0.3-2.3-0.9c-0.6-0.6-0.8-1.4-0.8-2.4c0-0.6,0.1-1.2,0.4-1.7
				s0.6-0.9,1-1.2c0.4-0.3,1-0.4,1.5-0.4c0.8,0,1.5,0.3,1.9,0.8s0.7,1.3,0.7,2.2v0.2H294.4z M295.1,118.6c-0.4,0.3-0.6,0.8-0.7,1.5
				h4c-0.1-0.6-0.2-1.1-0.6-1.5s-0.8-0.5-1.3-0.5C295.9,118,295.4,118.2,295.1,118.6z"/>
			<path class="st8" d="M304.7,123.4c-0.2-0.9-0.3-1.9-0.3-2.8c0-1,0.1-1.9,0.3-2.8c0.2-0.9,0.6-1.8,1-2.8h0.7c-0.4,1-0.8,2-0.9,2.9
				c-0.2,0.9-0.3,1.8-0.3,2.7s0.1,1.8,0.3,2.7c0.2,0.9,0.5,1.9,0.9,2.9h-0.7C305.3,125.2,304.9,124.3,304.7,123.4z"/>
			<path class="st8" d="M308.9,123.7c-0.5-0.2-1-0.5-1.4-0.9l0.3-0.6c0.4,0.4,0.9,0.7,1.3,0.8c0.5,0.2,1,0.3,1.6,0.3
				c0.8,0,1.3-0.2,1.8-0.5s0.6-0.7,0.6-1.3c0-0.3-0.1-0.6-0.3-0.8c-0.2-0.2-0.5-0.4-0.8-0.5c-0.3-0.1-0.7-0.2-1.2-0.4
				c-0.7-0.2-1.2-0.3-1.7-0.5c-0.4-0.2-0.8-0.4-1.1-0.7c-0.3-0.3-0.4-0.8-0.4-1.3c0-0.5,0.1-0.9,0.4-1.3c0.3-0.4,0.6-0.7,1.1-0.9
				s1-0.3,1.7-0.3c0.6,0,1.2,0.1,1.7,0.3c0.5,0.2,1,0.5,1.3,0.9l-0.3,0.6c-0.4-0.4-0.8-0.7-1.3-0.8c-0.4-0.2-0.9-0.3-1.4-0.3
				c-0.8,0-1.3,0.2-1.8,0.5c-0.4,0.3-0.6,0.8-0.6,1.3c0,0.5,0.2,0.9,0.6,1.1c0.4,0.2,0.9,0.4,1.6,0.6l0.4,0.1
				c0.7,0.2,1.2,0.3,1.6,0.5s0.7,0.4,1,0.7c0.3,0.3,0.4,0.7,0.4,1.2c0,0.5-0.1,0.9-0.4,1.3c-0.3,0.4-0.6,0.7-1.1,0.9
				c-0.5,0.2-1,0.3-1.7,0.3C310.1,123.9,309.5,123.9,308.9,123.7z"/>
			<path class="st8" d="M316.7,123.7c-0.5-0.2-1-0.5-1.4-0.9l0.3-0.6c0.4,0.4,0.9,0.7,1.3,0.8c0.5,0.2,1,0.3,1.6,0.3
				c0.8,0,1.3-0.2,1.8-0.5s0.6-0.7,0.6-1.3c0-0.3-0.1-0.6-0.3-0.8c-0.2-0.2-0.5-0.4-0.8-0.5c-0.3-0.1-0.7-0.2-1.2-0.4
				c-0.7-0.2-1.2-0.3-1.7-0.5c-0.4-0.2-0.8-0.4-1.1-0.7c-0.3-0.3-0.4-0.8-0.4-1.3c0-0.5,0.1-0.9,0.4-1.3c0.3-0.4,0.6-0.7,1.1-0.9
				s1-0.3,1.7-0.3c0.6,0,1.2,0.1,1.7,0.3c0.5,0.2,1,0.5,1.3,0.9l-0.3,0.6c-0.4-0.4-0.8-0.7-1.3-0.8c-0.4-0.2-0.9-0.3-1.4-0.3
				c-0.8,0-1.3,0.2-1.8,0.5c-0.4,0.3-0.6,0.8-0.6,1.3c0,0.5,0.2,0.9,0.6,1.1c0.4,0.2,0.9,0.4,1.6,0.6l0.4,0.1
				c0.7,0.2,1.2,0.3,1.6,0.5s0.7,0.4,1,0.7c0.3,0.3,0.4,0.7,0.4,1.2c0,0.5-0.1,0.9-0.4,1.3c-0.3,0.4-0.6,0.7-1.1,0.9
				c-0.5,0.2-1,0.3-1.7,0.3C317.8,123.9,317.2,123.9,316.7,123.7z"/>
			<path class="st8" d="M323.5,114.9h3.4c0.9,0,1.6,0.2,2.1,0.7c0.5,0.4,0.8,1,0.8,1.8c0,0.8-0.3,1.4-0.8,1.8
				c-0.5,0.4-1.2,0.7-2.1,0.7h-2.7v4h-0.8V114.9z M326.9,119.2c0.7,0,1.2-0.2,1.6-0.5s0.5-0.8,0.5-1.3c0-0.6-0.2-1-0.5-1.3
				s-0.9-0.5-1.6-0.5h-2.6v3.6H326.9z"/>
			<path class="st8" d="M331.8,122.8v0.8c0,0.3-0.1,0.6-0.2,0.9c-0.1,0.3-0.3,0.5-0.5,0.8l-0.4-0.3c0.3-0.3,0.4-0.7,0.5-1h-0.5v-1.1
				H331.8z"/>
			<path class="st8" d="M121.4,139.3c-0.5-0.2-1-0.5-1.4-0.9l0.3-0.6c0.4,0.4,0.9,0.7,1.3,0.8c0.5,0.2,1,0.3,1.6,0.3
				c0.8,0,1.3-0.2,1.8-0.5s0.6-0.7,0.6-1.3c0-0.3-0.1-0.6-0.3-0.8c-0.2-0.2-0.5-0.4-0.8-0.5c-0.3-0.1-0.7-0.2-1.2-0.4
				c-0.7-0.2-1.2-0.3-1.7-0.5c-0.4-0.2-0.8-0.4-1.1-0.7c-0.3-0.3-0.4-0.8-0.4-1.3c0-0.5,0.1-0.9,0.4-1.3c0.3-0.4,0.6-0.7,1.1-0.9
				s1-0.3,1.7-0.3c0.6,0,1.2,0.1,1.7,0.3c0.5,0.2,1,0.5,1.3,0.9l-0.3,0.6c-0.4-0.4-0.8-0.7-1.3-0.8c-0.4-0.2-0.9-0.3-1.4-0.3
				c-0.8,0-1.3,0.2-1.8,0.5c-0.4,0.3-0.6,0.8-0.6,1.3c0,0.5,0.2,0.9,0.6,1.1c0.4,0.2,0.9,0.4,1.6,0.6l0.4,0.1
				c0.7,0.2,1.2,0.3,1.6,0.5s0.7,0.4,1,0.7c0.3,0.3,0.4,0.7,0.4,1.2c0,0.5-0.1,0.9-0.4,1.3c-0.3,0.4-0.6,0.7-1.1,0.9
				c-0.5,0.2-1,0.3-1.7,0.3C122.6,139.6,121.9,139.5,121.4,139.3z"/>
			<path class="st8" d="M134,137.1h-4.8l-1,2.4h-0.8l3.9-8.9h0.7l3.9,8.9h-0.8L134,137.1z M133.7,136.5l-2.1-4.9l-2.1,4.9H133.7z"/>
			<path class="st8" d="M137.4,130.6h3.4c0.9,0,1.6,0.2,2.1,0.7c0.5,0.4,0.8,1,0.8,1.8c0,0.8-0.3,1.4-0.8,1.8
				c-0.5,0.4-1.2,0.7-2.1,0.7h-2.7v4h-0.8V130.6z M140.8,134.8c0.7,0,1.2-0.2,1.6-0.5s0.5-0.8,0.5-1.3c0-0.6-0.2-1-0.5-1.3
				s-0.9-0.5-1.6-0.5h-2.6v3.6H140.8z"/>
			<path class="st8" d="M145.7,138.4v0.8c0,0.3-0.1,0.6-0.2,0.9c-0.1,0.3-0.3,0.5-0.5,0.8l-0.4-0.3c0.3-0.3,0.4-0.7,0.5-1h-0.5v-1.1
				H145.7z"/>
			<path class="st8" d="M151.9,139.3c-0.5-0.2-1-0.5-1.4-0.9l0.3-0.6c0.4,0.4,0.9,0.7,1.3,0.8c0.5,0.2,1,0.3,1.6,0.3
				c0.8,0,1.3-0.2,1.8-0.5s0.6-0.7,0.6-1.3c0-0.3-0.1-0.6-0.3-0.8c-0.2-0.2-0.5-0.4-0.8-0.5c-0.3-0.1-0.7-0.2-1.2-0.4
				c-0.7-0.2-1.2-0.3-1.7-0.5c-0.4-0.2-0.8-0.4-1.1-0.7c-0.3-0.3-0.4-0.8-0.4-1.3c0-0.5,0.1-0.9,0.4-1.3c0.3-0.4,0.6-0.7,1.1-0.9
				s1-0.3,1.7-0.3c0.6,0,1.2,0.1,1.7,0.3c0.5,0.2,1,0.5,1.3,0.9l-0.3,0.6c-0.4-0.4-0.8-0.7-1.3-0.8c-0.4-0.2-0.9-0.3-1.4-0.3
				c-0.8,0-1.3,0.2-1.8,0.5c-0.4,0.3-0.6,0.8-0.6,1.3c0,0.5,0.2,0.9,0.6,1.1c0.4,0.2,0.9,0.4,1.6,0.6l0.4,0.1
				c0.7,0.2,1.2,0.3,1.6,0.5s0.7,0.4,1,0.7c0.3,0.3,0.4,0.7,0.4,1.2c0,0.5-0.1,0.9-0.4,1.3c-0.3,0.4-0.6,0.7-1.1,0.9
				c-0.5,0.2-1,0.3-1.7,0.3C153.1,139.6,152.4,139.5,151.9,139.3z"/>
			<path class="st8" d="M164.5,137.1h-4.8l-1,2.4h-0.8l3.9-8.9h0.7l3.9,8.9h-0.8L164.5,137.1z M164.2,136.5l-2.1-4.9l-2.1,4.9H164.2
				z"/>
			<path class="st8" d="M174.8,139.5H174l-1.1-3c-0.1-0.4-0.3-0.7-0.6-0.8c-0.3-0.1-0.6-0.2-1.1-0.2h-2.5v4h-0.8v-8.9h3.4
				c0.9,0,1.6,0.2,2.2,0.6s0.8,1,0.8,1.8c0,0.6-0.2,1.1-0.5,1.5s-0.7,0.7-1.3,0.8c0.3,0,0.5,0.2,0.7,0.3c0.2,0.2,0.3,0.4,0.5,0.8
				L174.8,139.5z M171.3,134.9c1.5,0,2.2-0.6,2.2-1.8c0-1.2-0.7-1.8-2.2-1.8h-2.6v3.6H171.3z"/>
			<path class="st8" d="M177.5,138.4v0.8c0,0.3-0.1,0.6-0.2,0.9c-0.1,0.3-0.3,0.5-0.5,0.8l-0.4-0.3c0.3-0.3,0.4-0.7,0.5-1h-0.5v-1.1
				H177.5z"/>
			<path class="st8" d="M182.8,130.6h3.4c0.9,0,1.6,0.2,2.1,0.7c0.5,0.4,0.8,1,0.8,1.8c0,0.8-0.3,1.4-0.8,1.8
				c-0.5,0.4-1.2,0.7-2.1,0.7h-2.7v4h-0.8V130.6z M186.2,134.8c0.7,0,1.2-0.2,1.6-0.5s0.5-0.8,0.5-1.3c0-0.6-0.2-1-0.5-1.3
				s-0.9-0.5-1.6-0.5h-2.6v3.6H186.2z"/>
			<path class="st8" d="M192.4,139.1c-0.6-0.4-1.1-0.9-1.4-1.6c-0.3-0.7-0.5-1.5-0.5-2.4s0.2-1.7,0.5-2.4s0.8-1.2,1.4-1.6
				s1.3-0.6,2.1-0.6c0.8,0,1.5,0.2,2.1,0.6s1.1,0.9,1.4,1.6c0.3,0.7,0.5,1.5,0.5,2.4c0,0.9-0.2,1.7-0.5,2.4s-0.8,1.2-1.4,1.6
				s-1.3,0.6-2.1,0.6C193.7,139.6,193,139.4,192.4,139.1z M196.8,137.9c0.6-0.7,0.8-1.6,0.8-2.9c0-1.2-0.3-2.2-0.8-2.9s-1.3-1-2.3-1
				c-1,0-1.8,0.3-2.3,1c-0.6,0.7-0.8,1.6-0.8,2.9c0,1.2,0.3,2.2,0.8,2.9c0.6,0.7,1.3,1,2.3,1S196.2,138.6,196.8,137.9z"/>
			<path class="st8" d="M206.1,137.1h-4.8l-1,2.4h-0.8l3.9-8.9h0.7l3.9,8.9h-0.8L206.1,137.1z M205.8,136.5l-2.1-4.9l-2.1,4.9H205.8
				z"/>
			<path class="st8" d="M216.7,139.1l-0.5,0.5c-0.7-0.4-1.3-0.8-1.7-1.2c-0.4,0.4-0.8,0.7-1.2,0.9s-0.9,0.3-1.5,0.3
				c-0.5,0-1-0.1-1.4-0.3s-0.7-0.5-1-0.8c-0.2-0.3-0.3-0.7-0.3-1.2c0-0.5,0.2-1,0.5-1.5c0.3-0.4,0.9-0.9,1.6-1.4
				c-0.4-0.5-0.7-0.9-0.8-1.2c-0.2-0.3-0.2-0.6-0.2-0.9c0-0.6,0.2-1,0.6-1.4c0.4-0.3,0.9-0.5,1.5-0.5c0.6,0,1,0.2,1.4,0.5
				c0.3,0.3,0.5,0.7,0.5,1.3c0,0.4-0.1,0.8-0.4,1.2s-0.8,0.7-1.5,1.2l2.2,2.6c0.4-0.8,0.6-1.7,0.7-2.9h0.7c0,1.4-0.3,2.5-0.9,3.5
				C215.4,138.3,216,138.7,216.7,139.1z M214.1,137.9l-2.5-2.9c-0.7,0.4-1.1,0.8-1.4,1.2s-0.4,0.7-0.4,1.2c0,0.5,0.2,0.9,0.6,1.2
				c0.4,0.3,0.9,0.4,1.5,0.4C212.8,139,213.5,138.6,214.1,137.9z M211.1,133.1c0.1,0.2,0.4,0.6,0.7,1c0.6-0.4,1-0.7,1.2-1
				s0.3-0.5,0.3-0.9c0-0.3-0.1-0.6-0.3-0.8s-0.5-0.3-0.9-0.3c-0.4,0-0.7,0.1-0.9,0.3c-0.2,0.2-0.4,0.5-0.4,0.9
				C210.9,132.6,210.9,132.9,211.1,133.1z"/>
			<path class="st8" d="M226.2,130.6v8.9h-0.7v-7.1l-3.1,7.1h-0.6l-3.2-7.1l0,7.1h-0.7v-8.9h0.6l3.5,8l3.5-8H226.2z"/>
			<path class="st8" d="M227.8,141.8c0.4-1,0.7-2,0.9-2.9c0.2-0.9,0.3-1.8,0.3-2.7c0-0.9-0.1-1.8-0.3-2.7c-0.2-0.9-0.5-1.9-0.9-2.9
				h0.7c0.5,0.9,0.8,1.9,1,2.8c0.2,0.9,0.3,1.9,0.3,2.8c0,1-0.1,1.9-0.3,2.8c-0.2,0.9-0.6,1.8-1,2.8H227.8z"/>
			<path class="st8" d="M232.4,134.5l1.2-1.6l-2-0.6l0.2-0.6l1.9,0.7l-0.1-2h0.6l-0.1,2l1.9-0.7l0.2,0.6l-1.9,0.6l1.2,1.6l-0.5,0.4
				l-1.2-1.7l-1.2,1.7L232.4,134.5z"/>
		</g>
	</g>
	<g class="st6">
		<g>
			<path class="st1" d="M91.9,89v3.4h4.9v1.2h-4.9v4h-1.4v-9.9h7V89H91.9z"/>
			<path class="st1" d="M106.1,90.2v7.5h-1.3v-1.1c-0.5,0.8-1.5,1.2-2.5,1.2c-1.9,0-3.2-1.1-3.2-3.3v-4.3h1.4v4.1
				c0,1.5,0.7,2.2,2,2.2c1.4,0,2.3-0.9,2.3-2.5v-3.9H106.1z"/>
			<path class="st1" d="M108.8,87.2h1.4v10.5h-1.4V87.2z"/>
			<path class="st1" d="M112.9,87.2h1.4v10.5h-1.4V87.2z"/>
			<path class="st1" d="M120.2,96.5l0.5-1.1c0.7,0.7,2,1.1,3.3,1.1c1.7,0,2.4-0.7,2.4-1.5c0-2.4-6-0.9-6-4.6c0-1.5,1.2-2.8,3.8-2.8
				c1.2,0,2.4,0.3,3.2,0.9l-0.5,1.1c-0.9-0.5-1.8-0.8-2.7-0.8c-1.7,0-2.4,0.7-2.4,1.6c0,2.4,6,0.9,6,4.5c0,1.5-1.2,2.8-3.8,2.8
				C122.5,97.8,121,97.2,120.2,96.5z"/>
			<path class="st1" d="M136.5,94.4h-6.1c0.2,1.3,1.2,2.2,2.7,2.2c0.9,0,1.6-0.3,2.2-0.9l0.7,0.9c-0.7,0.8-1.7,1.2-2.9,1.2
				c-2.4,0-4-1.6-4-3.8c0-2.2,1.6-3.8,3.8-3.8s3.7,1.6,3.7,3.8C136.6,94.1,136.5,94.2,136.5,94.4z M130.5,93.4h4.8
				c-0.1-1.3-1.1-2.1-2.4-2.1C131.6,91.2,130.6,92.1,130.5,93.4z"/>
			<path class="st1" d="M137.9,93.9c0-2.2,1.7-3.8,3.9-3.8c1.3,0,2.5,0.5,3,1.6l-1,0.7c-0.5-0.7-1.2-1.1-2-1.1c-1.5,0-2.6,1-2.6,2.6
				c0,1.6,1.1,2.6,2.6,2.6c0.8,0,1.6-0.3,2-1.1l1,0.6c-0.6,1-1.7,1.6-3,1.6C139.5,97.7,137.9,96.1,137.9,93.9z"/>
			<path class="st1" d="M153.7,90.2v7.5h-1.3v-1.1c-0.5,0.8-1.5,1.2-2.5,1.2c-1.9,0-3.2-1.1-3.2-3.3v-4.3h1.4v4.1
				c0,1.5,0.7,2.2,2,2.2c1.4,0,2.3-0.9,2.3-2.5v-3.9H153.7z"/>
			<path class="st1" d="M160.5,90.1v1.3c-0.1,0-0.2,0-0.3,0c-1.5,0-2.4,0.9-2.4,2.5v3.7h-1.4v-7.5h1.3v1.3
				C158.2,90.6,159.2,90.1,160.5,90.1z"/>
			<path class="st1" d="M162,87.9c0-0.5,0.4-0.9,0.9-0.9s0.9,0.4,0.9,0.9c0,0.5-0.4,0.9-0.9,0.9C162.4,88.7,162,88.4,162,87.9z
				 M162.3,90.2h1.4v7.5h-1.4V90.2z"/>
			<path class="st1" d="M170.5,97.2c-0.4,0.4-1,0.5-1.6,0.5c-1.5,0-2.4-0.8-2.4-2.3v-4.1h-1.3v-1.1h1.3v-1.6h1.4v1.6h2.1v1.1h-2.1v4
				c0,0.8,0.4,1.3,1.2,1.3c0.4,0,0.8-0.1,1.1-0.4L170.5,97.2z"/>
			<path class="st1" d="M178.8,90.2l-3.6,8.2c-0.7,1.6-1.5,2.1-2.7,2.1c-0.7,0-1.5-0.2-1.9-0.7l0.6-1c0.4,0.4,0.8,0.5,1.3,0.5
				c0.6,0,1.1-0.3,1.4-1.2l0.2-0.5l-3.3-7.5h1.4l2.6,6l2.6-6H178.8z"/>
			<path class="st1" d="M190.6,95.2h-5.2l-1.1,2.5h-1.5l4.5-9.9h1.4l4.5,9.9h-1.5L190.6,95.2z M190.1,94l-2.1-4.8l-2.1,4.8H190.1z"
				/>
			<path class="st1" d="M193.6,96.9l0.6-1.1c0.6,0.5,1.6,0.8,2.6,0.8c1.3,0,1.8-0.4,1.8-1c0-1.7-4.7-0.2-4.7-3.2
				c0-1.3,1.2-2.2,3.1-2.2c1,0,2.1,0.3,2.7,0.7l-0.6,1.1c-0.7-0.4-1.4-0.6-2.2-0.6c-1.2,0-1.8,0.4-1.8,1c0,1.8,4.7,0.3,4.7,3.2
				c0,1.4-1.2,2.2-3.2,2.2C195.4,97.7,194.2,97.3,193.6,96.9z"/>
			<path class="st1" d="M200.8,96.9l0.6-1.1c0.6,0.5,1.6,0.8,2.6,0.8c1.3,0,1.8-0.4,1.8-1c0-1.7-4.7-0.2-4.7-3.2
				c0-1.3,1.2-2.2,3.1-2.2c1,0,2.1,0.3,2.7,0.7l-0.6,1.1c-0.7-0.4-1.4-0.6-2.2-0.6c-1.2,0-1.8,0.4-1.8,1c0,1.8,4.7,0.3,4.7,3.2
				c0,1.4-1.2,2.2-3.2,2.2C202.6,97.7,201.4,97.3,200.8,96.9z"/>
			<path class="st1" d="M215.7,94.4h-6.1c0.2,1.3,1.2,2.2,2.7,2.2c0.9,0,1.6-0.3,2.2-0.9l0.7,0.9c-0.7,0.8-1.7,1.2-2.9,1.2
				c-2.4,0-4-1.6-4-3.8c0-2.2,1.6-3.8,3.8-3.8s3.7,1.6,3.7,3.8C215.7,94.1,215.7,94.2,215.7,94.4z M209.6,93.4h4.8
				c-0.1-1.3-1.1-2.1-2.4-2.1C210.7,91.2,209.7,92.1,209.6,93.4z"/>
			<path class="st1" d="M216.8,96.9l0.6-1.1c0.6,0.5,1.6,0.8,2.6,0.8c1.3,0,1.8-0.4,1.8-1c0-1.7-4.7-0.2-4.7-3.2
				c0-1.3,1.2-2.2,3.1-2.2c1,0,2.1,0.3,2.7,0.7l-0.6,1.1c-0.7-0.4-1.4-0.6-2.2-0.6c-1.2,0-1.8,0.4-1.8,1c0,1.8,4.7,0.3,4.7,3.2
				c0,1.4-1.2,2.2-3.2,2.2C218.6,97.7,217.4,97.3,216.8,96.9z"/>
			<path class="st1" d="M224,96.9l0.6-1.1c0.6,0.5,1.6,0.8,2.6,0.8c1.3,0,1.8-0.4,1.8-1c0-1.7-4.7-0.2-4.7-3.2
				c0-1.3,1.2-2.2,3.1-2.2c1,0,2.1,0.3,2.7,0.7l-0.6,1.1c-0.7-0.4-1.4-0.6-2.2-0.6c-1.2,0-1.8,0.4-1.8,1c0,1.8,4.7,0.3,4.7,3.2
				c0,1.4-1.2,2.2-3.2,2.2C225.8,97.7,224.6,97.3,224,96.9z"/>
			<path class="st1" d="M244.5,93.3v4.3h-1.4v-4.1c0-1.5-0.7-2.2-1.9-2.2c-1.4,0-2.2,0.9-2.2,2.5v3.8h-1.4v-4.1
				c0-1.5-0.7-2.2-1.9-2.2c-1.4,0-2.2,0.9-2.2,2.5v3.8h-1.4v-7.5h1.3v1.1c0.5-0.8,1.5-1.2,2.6-1.2c1.1,0,2.1,0.5,2.6,1.4
				c0.6-0.8,1.6-1.4,2.9-1.4C243.3,90.1,244.5,91.1,244.5,93.3z"/>
			<path class="st1" d="M253.9,94.4h-6.1c0.2,1.3,1.2,2.2,2.7,2.2c0.9,0,1.6-0.3,2.2-0.9l0.7,0.9c-0.7,0.8-1.7,1.2-2.9,1.2
				c-2.4,0-4-1.6-4-3.8c0-2.2,1.6-3.8,3.8-3.8s3.7,1.6,3.7,3.8C254,94.1,254,94.2,253.9,94.4z M247.9,93.4h4.8
				c-0.1-1.3-1.1-2.1-2.4-2.1C249,91.2,248,92.1,247.9,93.4z"/>
			<path class="st1" d="M263.1,93.3v4.3h-1.4v-4.1c0-1.5-0.7-2.2-2-2.2c-1.4,0-2.4,0.9-2.4,2.5v3.8H256v-7.5h1.3v1.1
				c0.5-0.8,1.5-1.2,2.7-1.2C261.8,90.1,263.1,91.1,263.1,93.3z"/>
			<path class="st1" d="M269.9,97.2c-0.4,0.4-1,0.5-1.6,0.5c-1.5,0-2.4-0.8-2.4-2.3v-4.1h-1.3v-1.1h1.3v-1.6h1.4v1.6h2.1v1.1h-2.1v4
				c0,0.8,0.4,1.3,1.2,1.3c0.4,0,0.8-0.1,1.1-0.4L269.9,97.2z"/>
		</g>
	</g>
	<g class="st3">
		<path class="st4" d="M131.7,35.3h-5.1l-1,2.4h-2l4.6-10.2h1.9l4.6,10.2h-2L131.7,35.3z M131.1,33.8l-1.9-4.5l-1.9,4.5H131.1z"/>
		<path class="st4" d="M143.3,29.9v7.8h-1.7v-1c-0.6,0.7-1.5,1.1-2.5,1.1c-2,0-3.4-1.1-3.4-3.4v-4.4h1.8v4.2c0,1.4,0.7,2.1,1.8,2.1
			c1.3,0,2.1-0.8,2.1-2.3v-3.9H143.3z"/>
		<path class="st4" d="M150.4,37.2c-0.4,0.3-1.1,0.5-1.7,0.5c-1.7,0-2.7-0.9-2.7-2.6v-3.7h-1.3v-1.5h1.3v-1.8h1.8v1.8h2.1v1.5h-2.1
			v3.7c0,0.8,0.4,1.2,1.1,1.2c0.4,0,0.7-0.1,1-0.3L150.4,37.2z"/>
		<path class="st4" d="M159.6,33.2v4.5h-1.8v-4.2c0-1.4-0.7-2.1-1.9-2.1c-1.3,0-2.2,0.8-2.2,2.3v3.9H152V26.8h1.8v3.9
			c0.6-0.6,1.5-1,2.6-1C158.3,29.8,159.6,30.8,159.6,33.2z"/>
		<path class="st4" d="M161.5,33.7c0-2.3,1.7-4,4.1-4c2.4,0,4.2,1.6,4.2,4s-1.7,4-4.2,4C163.2,37.7,161.5,36.1,161.5,33.7z
			 M167.9,33.7c0-1.5-1-2.4-2.3-2.4c-1.3,0-2.3,0.9-2.3,2.4s1,2.4,2.3,2.4C166.9,36.2,167.9,35.2,167.9,33.7z"/>
		<path class="st4" d="M176.1,29.8v1.7c-0.2,0-0.3,0-0.4,0c-1.4,0-2.3,0.8-2.3,2.4v3.8h-1.8v-7.8h1.7V31
			C173.8,30.2,174.8,29.8,176.1,29.8z"/>
		<path class="st4" d="M177.4,27.5c0-0.6,0.5-1.1,1.2-1.1c0.7,0,1.2,0.5,1.2,1c0,0.6-0.5,1.1-1.2,1.1
			C177.9,28.6,177.4,28.1,177.4,27.5z M177.7,29.9h1.8v7.8h-1.8V29.9z"/>
		<path class="st4" d="M188.1,36.2v1.5h-6.7v-1.2l4.3-5.2h-4.2v-1.5h6.5V31l-4.3,5.2H188.1z"/>
		<path class="st4" d="M196.3,33.1v4.6h-1.7v-0.9c-0.4,0.7-1.3,1-2.4,1c-1.8,0-2.9-1-2.9-2.3c0-1.3,0.9-2.3,3.2-2.3h2V33
			c0-1.1-0.6-1.7-1.9-1.7c-0.9,0-1.8,0.3-2.4,0.8l-0.7-1.3c0.8-0.6,2-1,3.3-1C195,29.8,196.3,30.8,196.3,33.1z M194.5,35.2v-0.9
			h-1.9c-1.2,0-1.6,0.5-1.6,1c0,0.7,0.6,1.1,1.5,1.1C193.4,36.4,194.2,36,194.5,35.2z"/>
		<path class="st4" d="M203.4,37.2c-0.4,0.3-1.1,0.5-1.7,0.5c-1.7,0-2.7-0.9-2.7-2.6v-3.7h-1.3v-1.5h1.3v-1.8h1.8v1.8h2.1v1.5h-2.1
			v3.7c0,0.8,0.4,1.2,1.1,1.2c0.4,0,0.7-0.1,1-0.3L203.4,37.2z"/>
		<path class="st4" d="M204.7,27.5c0-0.6,0.5-1.1,1.2-1.1c0.7,0,1.2,0.5,1.2,1c0,0.6-0.5,1.1-1.2,1.1
			C205.2,28.6,204.7,28.1,204.7,27.5z M205,29.9h1.8v7.8H205V29.9z"/>
		<path class="st4" d="M208.6,33.7c0-2.3,1.7-4,4.1-4c2.4,0,4.2,1.6,4.2,4s-1.7,4-4.2,4C210.4,37.7,208.6,36.1,208.6,33.7z
			 M215.1,33.7c0-1.5-1-2.4-2.3-2.4c-1.3,0-2.3,0.9-2.3,2.4s1,2.4,2.3,2.4C214.1,36.2,215.1,35.2,215.1,33.7z"/>
		<path class="st4" d="M226.4,33.2v4.5h-1.8v-4.2c0-1.4-0.7-2.1-1.9-2.1c-1.3,0-2.2,0.8-2.2,2.3v3.9h-1.8v-7.8h1.7v1
			c0.6-0.7,1.5-1.1,2.7-1.1C225,29.8,226.4,30.8,226.4,33.2z"/>
	</g>
	<g class="st6">
		<path id="Path_1554_1_" class="st7" d="M227.5,180.9c0,5.2-4.2,9.5-9.5,9.5c-5.2,0-9.5-4.2-9.5-9.5c0-5.2,4.2-9.5,9.5-9.5
			C223.2,171.4,227.5,175.7,227.5,180.9z"/>
		<g id="Group_1434_1_" transform="translate(4.574 4.222)">
			<g id="arrow_1_" transform="translate(4.574 0)">
				<path id="arrow-2_1_" class="st4" d="M208.9,182.4c-0.3,0-0.5-0.1-0.7-0.3l-4.1-4c-0.4-0.4-0.4-1-0.1-1.4c0,0,0,0,0.1-0.1
					c0.4-0.4,1-0.4,1.4,0c0,0,0,0,0,0l3.4,3.3l3.4-3.3c0.4-0.4,1-0.4,1.4,0c0,0,0,0,0,0c0.4,0.4,0.4,1,0.1,1.4c0,0,0,0-0.1,0.1
					l-4.1,4C209.5,182.3,209.2,182.4,208.9,182.4z"/>
			</g>
			<path class="st4" d="M213.4,181.2c-0.6,0-1-0.4-1-1v-8.4c0-0.6,0.4-1,1-1s1,0.4,1,1v8.4C214.4,180.8,214,181.2,213.4,181.2z"/>
		</g>
	</g>
	<g class="st6">
		<g>
			<circle class="st1" cx="98.9" cy="121.6" r="9.5"/>
		</g>
		<g>
			<path class="st4" d="M100.9,119c-0.3,0-0.5-0.2-0.5-0.5v-3.1h-4.8c-0.7,0-1.2,0.6-1.2,1.2v9.9c0,0.7,0.6,1.2,1.2,1.2h7.2
				c0.7,0,1.2-0.6,1.2-1.2V119H100.9z"/>
		</g>
		<path class="st5" d="M100.8,119h3.2l-3.6-3.6v3.2C100.4,118.8,100.6,119,100.8,119z"/>
		<polygon class="st2" points="104,121.6 104,119.1 100.9,119.1 		"/>
	</g>
	<g>
		<path class="st4" d="M95.4,41.9c-0.8,0-1.8-0.3-2.9-0.8L92.3,41l-0.2-0.1c-0.5-0.2-0.9-0.4-1.2-0.4c-0.3-0.1-0.5-0.1-0.7-0.1
			c-0.2,0-0.4,0-0.5,0.1c-0.1,0.1-0.2,0.2-0.3,0.4c-0.1,0.3-0.4,0.5-0.7,0.5h-2.1c-0.4,0-0.7-0.3-0.7-0.7c0-0.1,0-0.3,0-0.5
			c0-0.1,0-0.3,0-0.6c0-1.2,0.2-2.2,0.7-3.2c0.4-0.9,1.1-1.8,1.9-2.7c0.3-0.3,0.6-0.6,1-0.9c-0.1,0-0.2,0-0.3,0c-1,0-1.8-0.3-2.4-1
			c-0.6-0.7-0.9-1.7-0.9-2.8c0-1.8,0.7-3.3,2.1-4.5c1.3-1.1,3-1.7,5-1.7c2.1,0,3.8,0.6,5.1,1.6c1.4,1.1,2.1,2.7,2.1,4.7
			c0,1.5-0.5,2.8-1.4,3.8c-0.3,0.3-0.6,0.6-0.9,0.8h1.9c0.4,0,0.7,0.4,0.7,0.8c0,0.1,0,0.3,0,0.4c0,0.1,0,0.3,0,0.6
			c0,2-0.4,3.6-1.3,4.6C98.4,41.4,97.1,41.9,95.4,41.9L95.4,41.9z M93.9,35.7c0.3,0,0.6,0.1,0.9,0.2c1,0.2,1.4,0.3,1.4,0.3
			c0.1,0,0.4,0,0.5-0.2c0-0.1,0.2-0.3,0.2-1.2c0-0.1,0-0.2,0-0.3c-0.5,0.3-1.1,0.6-1.8,0.8c-0.2,0.1-0.5,0.2-0.9,0.3
			C94.1,35.6,94,35.6,93.9,35.7L93.9,35.7z M90.8,27.3c0.2,0.1,0.4,0.3,0.6,0.5c0.5,0.5,0.7,1.2,0.7,2c0,0.6-0.2,1.2-0.5,1.7
			c0.3-0.2,0.5-0.3,0.7-0.4c0.8-0.6,1.2-1,1.3-1.2c0.2-0.3,0.3-0.6,0.3-1c0-0.5-0.1-0.8-0.5-1.1c-0.4-0.4-1-0.5-1.7-0.5
			C91.5,27.2,91.1,27.2,90.8,27.3L90.8,27.3z M78.6,41.9c-2.1,0-3.9-0.9-5.2-2.6c-1.3-1.7-2-4.1-2-6.9c0-2.8,0.7-5.2,2-6.9
			c1.3-1.7,3.1-2.6,5.2-2.6c2.1,0,3.9,0.9,5.2,2.6c1.3,1.7,2,4.1,2,6.9c0,2.8-0.7,5.1-2,6.9C82.5,41,80.7,41.9,78.6,41.9L78.6,41.9z
			 M78.6,27.1c-0.6,0-0.9,0.3-1.2,1c-0.2,0.6-0.5,1.8-0.5,4.4c0,2.6,0.3,3.8,0.5,4.4c0.3,0.7,0.6,1,1.2,1c0.6,0,1-0.3,1.2-1
			c0.2-0.6,0.5-1.8,0.5-4.3c0-2.6-0.3-3.8-0.5-4.4C79.6,27.4,79.2,27.1,78.6,27.1L78.6,27.1z"/>
		<path class="st1" d="M86.7,40.5c0-0.1,0-0.2,0-0.3c0-0.1,0-0.3,0-0.5c0-1,0.2-1.9,0.6-2.8c0.4-0.8,1-1.6,1.8-2.4
			c0.6-0.5,1.4-1.2,2.6-1.9c0.5-0.3,0.9-0.6,1.2-0.7c0.8-0.5,1.3-1,1.6-1.4c0.3-0.5,0.4-1,0.4-1.6c0-0.8-0.3-1.4-0.8-1.8
			c-0.5-0.5-1.2-0.7-2.1-0.7c-0.7,0-1.3,0.2-1.8,0.5c-0.5,0.3-0.8,0.8-1,1.4c0.1,0,0.3-0.1,0.4-0.1c0.1,0,0.2,0,0.3,0
			c0.5,0,0.9,0.2,1.2,0.5c0.3,0.3,0.5,0.8,0.5,1.3c0,0.6-0.2,1.1-0.6,1.6c-0.4,0.4-1,0.6-1.6,0.6c-0.8,0-1.4-0.3-1.9-0.8
			c-0.5-0.5-0.7-1.2-0.7-2.2c0-1.5,0.6-2.7,1.8-3.7c1.2-1,2.7-1.5,4.6-1.5c2,0,3.5,0.5,4.7,1.5c1.2,1,1.8,2.3,1.8,3.9
			c0,1.2-0.4,2.3-1.1,3.1c-0.8,0.9-1.9,1.5-3.3,2c-0.2,0.1-0.5,0.2-0.9,0.3c-2.4,0.8-4,1.7-4.6,2.7c0.5-0.3,1-0.5,1.5-0.7
			c0.5-0.1,1-0.2,1.6-0.2c0.6,0,1.3,0.1,2.1,0.3c0.8,0.2,1.3,0.3,1.6,0.3c0.5,0,0.9-0.2,1.1-0.5c0.2-0.3,0.3-0.9,0.3-1.7h2.1
			c0,0.1,0,0.3,0,0.4c0,0.1,0,0.3,0,0.6c0,1.8-0.4,3.1-1.1,4C98,40.6,96.9,41,95.4,41c-0.7,0-1.6-0.2-2.7-0.7
			c-0.2-0.1-0.3-0.1-0.4-0.2c-0.5-0.2-1-0.4-1.3-0.5c-0.3-0.1-0.6-0.1-0.9-0.1c-0.3,0-0.6,0.1-0.9,0.3c-0.2,0.2-0.4,0.4-0.6,0.8
			H86.7z M72,32.4c0-2.6,0.6-4.7,1.8-6.2c1.2-1.6,2.8-2.4,4.8-2.4c2,0,3.6,0.8,4.8,2.4c1.2,1.6,1.8,3.7,1.8,6.2
			c0,2.6-0.6,4.7-1.8,6.2c-1.2,1.6-2.8,2.4-4.8,2.4c-2,0-3.6-0.8-4.8-2.3C72.6,37.1,72,35,72,32.4z M76.2,32.4
			c0,2.2,0.2,3.8,0.6,4.8c0.4,1,1,1.5,1.8,1.5c0.8,0,1.4-0.5,1.8-1.5c0.4-1,0.6-2.6,0.6-4.8c0-2.2-0.2-3.8-0.6-4.8
			c-0.4-1-1-1.5-1.8-1.5c-0.8,0-1.4,0.5-1.8,1.5C76.4,28.6,76.2,30.2,76.2,32.4z"/>
		<path class="st5" d="M77.1,38.1l-0.2,0.3c-0.2-0.3-0.4-0.6-0.5-0.9c-0.4-1.1-0.6-2.8-0.6-5.1c0-2.3,0.2-4,0.6-5.1
			c0.5-1.2,1.3-1.8,2.3-1.8c0.7,0,1.3,0.3,1.7,0.9l-0.2,0.3c-0.4-0.5-0.9-0.7-1.5-0.7c-0.9,0-1.6,0.5-2,1.6c-0.4,1-0.6,2.6-0.6,4.9
			c0,2.3,0.2,3.9,0.6,4.9C76.8,37.6,76.9,37.8,77.1,38.1z M83.3,26.4l-0.2,0.3c1.1,1.4,1.6,3.3,1.6,5.7c0,2.4-0.6,4.3-1.7,5.7
			c-1.1,1.4-2.6,2.2-4.4,2.2c-1.8,0-3.3-0.7-4.4-2.2v0L74,38.5c0,0,0,0,0,0c1.2,1.5,2.7,2.3,4.6,2.3c1.9,0,3.5-0.8,4.7-2.3
			c1.2-1.5,1.8-3.6,1.8-6.1C85,29.9,84.5,27.9,83.3,26.4z M99.6,35.2c0-0.1,0-0.1,0-0.2l-0.4,0.5c0,0.1,0,0.2,0,0.3
			c0,1.6-0.3,2.8-0.9,3.5c-0.6,0.7-1.6,1.1-2.9,1.1c-0.7,0-1.5-0.2-2.5-0.7l-0.4-0.2c-0.6-0.2-1-0.4-1.4-0.5c-0.4-0.1-0.7-0.2-1-0.2
			c-0.4,0-0.8,0.1-1.1,0.4c-0.2,0.2-0.4,0.4-0.6,0.7h-1.2l-0.4,0.5h1.8c0.2-0.3,0.4-0.6,0.6-0.8c0.3-0.2,0.6-0.3,1-0.3
			c0.3,0,0.6,0.1,0.9,0.2c0.4,0.1,0.8,0.3,1.3,0.5l0.4,0.2c1,0.5,1.9,0.7,2.6,0.7c1.4,0,2.5-0.4,3.2-1.2c0.7-0.8,1-2.1,1-3.8
			C99.6,35.5,99.6,35.3,99.6,35.2z M87.4,31c0.4,0.5,1,0.7,1.8,0.7c0.6,0,1.1-0.2,1.5-0.6c0.4-0.4,0.6-0.8,0.6-1.4
			c0-0.5-0.1-0.8-0.4-1.1L90.6,29c0,0,0,0,0,0c0.2,0.2,0.3,0.5,0.3,0.8c0,0.4-0.1,0.7-0.4,1c-0.3,0.3-0.7,0.5-1.3,0.5
			c-0.6,0-1.1-0.2-1.5-0.6L87.4,31C87.4,31,87.4,31,87.4,31z M98.2,26.7C98.2,26.8,98.2,26.8,98.2,26.7c0.5,0.7,0.7,1.5,0.7,2.4
			c0,1-0.3,1.9-1,2.7c-0.7,0.8-1.7,1.4-3.1,1.9c-0.2,0.1-0.5,0.2-0.9,0.3c-2.6,0.8-4.2,1.8-4.9,2.9c-0.2,0.2-0.2,0.6,0,0.9l0.3-0.3
			c-0.1-0.1-0.1-0.2,0-0.3c0.7-1.1,2.2-2,4.7-2.8c0.4-0.1,0.7-0.2,0.9-0.3c1.4-0.5,2.5-1.1,3.3-2c0.7-0.8,1.1-1.8,1.1-3
			c0-1.1-0.3-2-0.8-2.8L98.2,26.7z M94.3,26.4c-0.6-0.5-1.4-0.8-2.4-0.8c-0.8,0-1.5,0.2-2.1,0.5c-0.6,0.4-1,1-1.3,1.7
			c-0.1,0.2-0.1,0.5,0.1,0.7l0.3-0.3c0-0.1-0.1-0.2,0-0.2c0.2-0.6,0.6-1.1,1.1-1.5c0.5-0.3,1.1-0.5,1.9-0.5c0.9,0,1.6,0.2,2.2,0.7
			L94.3,26.4C94.3,26.4,94.3,26.4,94.3,26.4z"/>
	</g>
	<rect x="49.5" class="st9" width="351.6" height="420.4"/>
	<g>
		<polygon class="st1" points="49.2,409 37.5,393.7 49.2,393.7 		"/>
		<polygon class="st1" points="400.8,409 412.5,393.7 400.8,393.7 		"/>
		<rect x="49.2" y="385.3" class="st10" width="351.6" height="14.5"/>
	</g>
	<g>
		<rect x="37.6" y="80.9" class="st2" width="374.9" height="312.5"/>
	</g>
	<g>
		<g>
			<g>
				<path class="st1" d="M74,151.8c-0.4-0.2-0.8-0.6-1-1c-0.3-0.4-0.4-0.9-0.4-1.4c0-0.5,0.1-0.9,0.4-1.3c0.2-0.4,0.6-0.8,1-1
					c0.4-0.3,0.9-0.4,1.4-0.4c0.5,0,0.9,0.1,1.4,0.4s0.8,0.6,1,1c0.3,0.4,0.4,0.9,0.4,1.4c0,0.5-0.1,1-0.4,1.4c-0.2,0.4-0.6,0.8-1,1
					c-0.4,0.2-0.9,0.4-1.4,0.4C74.9,152.1,74.5,152,74,151.8z"/>
				<path class="st1" d="M75.4,152.3c-0.5,0-1-0.1-1.5-0.4l0,0c-0.4-0.2-0.8-0.6-1.1-1c-0.3-0.4-0.4-0.9-0.4-1.5
					c0-0.5,0.1-1,0.4-1.4c0.3-0.4,0.6-0.8,1.1-1.1c0.4-0.3,0.9-0.4,1.5-0.4c0.5,0,1,0.1,1.4,0.4c0.4,0.2,0.8,0.6,1.1,1
					c0.3,0.4,0.4,0.9,0.4,1.5c0,0.5-0.1,1-0.4,1.4c-0.3,0.4-0.6,0.8-1.1,1C76.4,152.1,76,152.3,75.4,152.3z M75.4,146.8
					c-0.5,0-1,0.1-1.4,0.4c-0.4,0.2-0.7,0.6-1,1c-0.2,0.4-0.4,0.8-0.4,1.3c0,0.5,0.1,0.9,0.4,1.3c0.2,0.4,0.6,0.7,1,1v0
					c0.8,0.5,1.8,0.5,2.7,0c0.4-0.2,0.7-0.6,1-1c0.2-0.4,0.4-0.8,0.4-1.3c0-0.5-0.1-0.9-0.4-1.3c-0.2-0.4-0.6-0.7-1-0.9
					C76.3,146.9,75.9,146.8,75.4,146.8z"/>
			</g>
			<path class="st8" d="M108.3,153.5l-5.9-5.2v5.2h-0.9v-10.9h0.9v5.1l5.6-5.1h1.3l-5.9,5.3l6.2,5.6H108.3z"/>
			<path class="st8" d="M112,142.7v1.2h-1.2v-1.2H112z M110.9,145.8h0.9v7.7h-0.9V145.8z"/>
			<path class="st8" d="M115.7,153.1c-0.5-0.3-1-0.8-1.3-1.4c-0.3-0.6-0.4-1.3-0.4-2.1c0-0.8,0.1-1.5,0.4-2.1
				c0.3-0.6,0.7-1.1,1.3-1.4c0.6-0.3,1.2-0.5,1.9-0.5c0.5,0,1,0.1,1.5,0.3s0.9,0.4,1.2,0.7l-0.4,0.7c-0.4-0.3-0.8-0.6-1.1-0.7
				s-0.7-0.2-1.1-0.2c-0.8,0-1.5,0.3-2,0.9c-0.5,0.6-0.7,1.4-0.7,2.4c0,1,0.2,1.7,0.7,2.3c0.5,0.6,1.1,0.8,2,0.8
				c0.4,0,0.8-0.1,1.1-0.2c0.4-0.1,0.7-0.4,1.1-0.7l0.4,0.7c-0.3,0.3-0.7,0.6-1.2,0.8s-1,0.3-1.5,0.3
				C116.9,153.6,116.2,153.4,115.7,153.1z"/>
			<path class="st8" d="M127.2,153.5l-4.2-3.7v3.7h-0.9v-11.3h0.9v7.2l3.9-3.6h1.2l-4,3.7l4.4,4H127.2z"/>
			<path class="st8" d="M129.3,149h4.2v0.8h-4.2V149z"/>
			<path class="st8" d="M138,152.9c-0.7-0.4-1.3-1.1-1.7-1.9c-0.4-0.8-0.6-1.8-0.6-3s0.2-2.1,0.6-3c0.4-0.8,0.9-1.5,1.7-1.9
				c0.7-0.4,1.6-0.7,2.6-0.7c1,0,1.9,0.2,2.6,0.7s1.3,1.1,1.7,1.9s0.6,1.8,0.6,3c0,1.1-0.2,2.1-0.6,3c-0.4,0.8-1,1.5-1.7,1.9
				c-0.7,0.4-1.6,0.7-2.6,0.7C139.6,153.6,138.8,153.4,138,152.9z M143.5,151.5c0.7-0.8,1-2,1-3.5c0-1.5-0.3-2.7-1-3.5
				s-1.6-1.2-2.9-1.2c-1.2,0-2.2,0.4-2.9,1.2c-0.7,0.8-1,2-1,3.5c0,1.5,0.3,2.7,1,3.5c0.7,0.8,1.6,1.2,2.9,1.2
				C141.8,152.8,142.8,152.4,143.5,151.5z"/>
			<path class="st8" d="M149.5,143.4c-0.2,0.2-0.4,0.7-0.4,1.3v1.2h2v0.8h-2v6.9h-0.9v-6.9h-1.5v-0.8h1.5v-1.4
				c0-0.8,0.2-1.3,0.6-1.7c0.4-0.4,0.9-0.6,1.6-0.6c0.3,0,0.6,0,0.9,0.1v0.8c-0.3-0.1-0.5-0.1-0.8-0.1
				C150,143,149.7,143.1,149.5,143.4z"/>
			<path class="st8" d="M154.6,143.4c-0.2,0.2-0.4,0.7-0.4,1.3v1.2h2v0.8h-2v6.9h-0.9v-6.9h-1.5v-0.8h1.5v-1.4
				c0-0.8,0.2-1.3,0.6-1.7c0.4-0.4,0.9-0.6,1.6-0.6c0.3,0,0.6,0,0.9,0.1v0.8c-0.3-0.1-0.5-0.1-0.8-0.1
				C155.1,143,154.8,143.1,154.6,143.4z"/>
			<path class="st8" d="M162.7,152.9c-0.3-1.1-0.4-2.3-0.4-3.5c0-1.2,0.1-2.3,0.4-3.4s0.7-2.3,1.2-3.4h0.8c-0.5,1.2-0.9,2.4-1.2,3.5
				s-0.3,2.2-0.3,3.3c0,1.1,0.1,2.2,0.3,3.3c0.2,1.1,0.6,2.3,1.2,3.5H164C163.4,155.2,163,154,162.7,152.9z"/>
			<path class="st8" d="M173.7,148.7c-0.4,1-1.1,1.5-2,1.5c-0.3,0-0.7-0.1-1-0.2c-0.3-0.1-0.7-0.3-1.1-0.5c-0.3-0.2-0.6-0.3-0.8-0.4
				c-0.2-0.1-0.4-0.1-0.6-0.1c-0.3,0-0.6,0.1-0.8,0.3c-0.2,0.2-0.4,0.4-0.5,0.8l-0.7-0.4c0.4-1,1.1-1.5,2-1.5c0.3,0,0.7,0.1,1,0.2
				s0.7,0.3,1.1,0.5c0.3,0.2,0.6,0.3,0.8,0.4s0.4,0.1,0.6,0.1c0.3,0,0.6-0.1,0.8-0.3c0.2-0.2,0.4-0.4,0.5-0.8L173.7,148.7z"/>
			<path class="st8" d="M182.5,152.7v0.8h-5.8v-0.8h2.4v-8.8l-2.3,1.5v-1l2.7-1.7h0.5v10.1H182.5z"/>
			<path class="st8" d="M200.6,145.8l-2.8,7.7h-1l-2.3-6.5l-2.3,6.5h-1l-2.8-7.7h1l2.3,6.6l2.4-6.6h0.9l2.3,6.6l2.3-6.6H200.6z"/>
			<path class="st8" d="M202.8,149.5L202.8,149.5c0,1.1,0.2,1.9,0.7,2.4c0.5,0.5,1.2,0.8,2.1,0.8c0.9,0,1.8-0.3,2.5-0.9l0.4,0.7
				c-0.3,0.3-0.8,0.6-1.3,0.8c-0.5,0.2-1.1,0.3-1.6,0.3c-1.2,0-2.1-0.4-2.8-1.1c-0.7-0.7-1-1.7-1-2.9c0-0.8,0.2-1.5,0.5-2.1
				c0.3-0.6,0.7-1.1,1.3-1.4c0.5-0.3,1.2-0.5,1.9-0.5c1,0,1.8,0.3,2.4,1s0.8,1.6,0.8,2.7v0.2H202.8z M203.7,147
				c-0.4,0.4-0.7,1-0.8,1.8h4.9c-0.1-0.8-0.3-1.4-0.7-1.8c-0.4-0.4-0.9-0.6-1.6-0.6C204.7,146.4,204.2,146.6,203.7,147z"/>
			<path class="st8" d="M211.2,149.5L211.2,149.5c0,1.1,0.2,1.9,0.7,2.4c0.5,0.5,1.2,0.8,2.1,0.8c0.9,0,1.8-0.3,2.5-0.9l0.4,0.7
				c-0.3,0.3-0.8,0.6-1.3,0.8c-0.5,0.2-1.1,0.3-1.6,0.3c-1.2,0-2.1-0.4-2.8-1.1c-0.7-0.7-1-1.7-1-2.9c0-0.8,0.2-1.5,0.5-2.1
				c0.3-0.6,0.7-1.1,1.3-1.4c0.5-0.3,1.2-0.5,1.9-0.5c1,0,1.8,0.3,2.4,1s0.8,1.6,0.8,2.7v0.2H211.2z M212.1,147
				c-0.4,0.4-0.7,1-0.8,1.8h4.9c-0.1-0.8-0.3-1.4-0.7-1.8c-0.4-0.4-0.9-0.6-1.6-0.6C213.1,146.4,212.6,146.6,212.1,147z"/>
			<path class="st8" d="M224.3,153.5l-4.2-3.7v3.7h-0.9v-11.3h0.9v7.2l3.9-3.6h1.2l-4,3.7l4.4,4H224.3z"/>
			<path class="st8" d="M226.1,156.3c0.5-1.2,0.9-2.4,1.1-3.5c0.2-1.1,0.3-2.2,0.3-3.3c0-1.1-0.1-2.2-0.3-3.3
				c-0.2-1.1-0.6-2.3-1.2-3.5h0.8c0.6,1.1,1,2.3,1.2,3.4s0.4,2.3,0.4,3.4c0,1.2-0.1,2.4-0.4,3.5s-0.7,2.3-1.3,3.4H226.1z"/>
			<path class="st8" d="M101.5,171.3h6.6v0.8h-5.6v4.1h5.3v0.8h-5.3v5.1h-0.9V171.3z"/>
			<path class="st8" d="M110.3,178.3L110.3,178.3c0,1.1,0.2,1.9,0.7,2.4c0.5,0.5,1.2,0.8,2.1,0.8c0.9,0,1.8-0.3,2.5-0.9l0.4,0.7
				c-0.3,0.3-0.8,0.6-1.3,0.8c-0.5,0.2-1.1,0.3-1.6,0.3c-1.2,0-2.1-0.4-2.8-1.1c-0.7-0.7-1-1.7-1-2.9c0-0.8,0.2-1.5,0.5-2.1
				c0.3-0.6,0.7-1.1,1.3-1.4c0.5-0.3,1.2-0.5,1.9-0.5c1,0,1.8,0.3,2.4,1s0.8,1.6,0.8,2.7v0.2H110.3z M111.2,175.8
				c-0.4,0.4-0.7,1-0.8,1.8h4.9c-0.1-0.8-0.3-1.4-0.7-1.8c-0.4-0.4-0.9-0.6-1.6-0.6C112.2,175.1,111.6,175.3,111.2,175.8z"/>
			<path class="st8" d="M124.7,170.9v11.3h-0.9v-1.5c-0.2,0.5-0.6,0.9-1,1.2c-0.5,0.3-1,0.4-1.6,0.4c-0.7,0-1.3-0.2-1.8-0.5
				c-0.5-0.3-0.9-0.8-1.2-1.4c-0.3-0.6-0.4-1.3-0.4-2.1c0-0.8,0.1-1.5,0.4-2.1c0.3-0.6,0.7-1.1,1.2-1.4s1.1-0.5,1.8-0.5
				c0.6,0,1.2,0.1,1.6,0.4c0.5,0.3,0.8,0.7,1,1.2v-5H124.7z M123.1,180.7c0.4-0.6,0.7-1.3,0.7-2.3c0-1-0.2-1.8-0.7-2.3
				c-0.4-0.6-1.1-0.8-1.9-0.8c-0.8,0-1.5,0.3-1.9,0.8s-0.7,1.3-0.7,2.3c0,1,0.2,1.8,0.7,2.3s1.1,0.8,1.9,0.8
				S122.7,181.2,123.1,180.7z"/>
			<path class="st8" d="M135.9,182.2h-1l-1.4-3.6c-0.2-0.5-0.4-0.8-0.7-1c-0.3-0.2-0.8-0.3-1.3-0.3h-3v4.9h-0.9v-10.9h4.2
				c1.1,0,2,0.3,2.6,0.8s0.9,1.3,0.9,2.2c0,0.7-0.2,1.3-0.6,1.8c-0.4,0.5-0.9,0.8-1.6,1c0.3,0.1,0.6,0.2,0.8,0.4s0.4,0.5,0.6,0.9
				L135.9,182.2z M131.6,176.5c1.8,0,2.7-0.7,2.7-2.2c0-1.4-0.9-2.2-2.7-2.2h-3.2v4.4H131.6z"/>
			<path class="st8" d="M145.1,179.3h-5.9l-1.3,2.9h-1l4.7-10.9h0.9l4.7,10.9h-1L145.1,179.3z M144.8,178.5l-2.6-6l-2.6,6H144.8z"/>
			<path class="st8" d="M159.4,171.3v10.9h-0.9v-8.7l-3.8,8.7H154l-3.9-8.7l0,8.7h-0.9v-10.9h0.8l4.3,9.8l4.3-9.8H159.4z"/>
			<path class="st8" d="M162.3,171.3h4.2c1.1,0,2,0.3,2.6,0.8c0.6,0.5,0.9,1.3,0.9,2.2c0,0.9-0.3,1.7-0.9,2.2
				c-0.6,0.5-1.5,0.8-2.6,0.8h-3.2v4.9h-0.9V171.3z M166.4,176.5c0.9,0,1.5-0.2,1.9-0.6c0.4-0.4,0.7-0.9,0.7-1.6
				c0-0.7-0.2-1.2-0.7-1.6c-0.4-0.4-1.1-0.6-1.9-0.6h-3.2v4.4H166.4z"/>
			<path class="st8" d="M186.4,171.3v10.9h-0.9v-8.7l-3.8,8.7H181l-3.9-8.7l0,8.7h-0.9v-10.9h0.8l4.3,9.8l4.3-9.8H186.4z"/>
			<path class="st8" d="M195.7,174.5v7.7h-0.9v-1.5c-0.2,0.5-0.6,0.9-1,1.2c-0.5,0.3-1,0.4-1.6,0.4c-0.7,0-1.3-0.2-1.8-0.5
				c-0.5-0.3-0.9-0.8-1.2-1.4c-0.3-0.6-0.4-1.3-0.4-2.1s0.1-1.5,0.4-2.1c0.3-0.6,0.7-1.1,1.2-1.4c0.5-0.3,1.1-0.5,1.8-0.5
				c0.6,0,1.2,0.1,1.6,0.4c0.5,0.3,0.8,0.7,1,1.2v-1.4H195.7z M194.1,180.7c0.4-0.6,0.7-1.3,0.7-2.3c0-1-0.2-1.8-0.7-2.3
				c-0.4-0.6-1.1-0.8-1.9-0.8s-1.4,0.3-1.9,0.9c-0.4,0.6-0.7,1.4-0.7,2.4c0,1,0.2,1.8,0.7,2.3c0.4,0.5,1.1,0.8,1.9,0.8
				C193,181.5,193.6,181.2,194.1,180.7z"/>
			<path class="st8" d="M202.3,174.4l0,0.8c-0.2,0-0.4-0.1-0.7-0.1c-0.8,0-1.4,0.2-1.7,0.7c-0.4,0.5-0.6,1.1-0.6,1.8v4.5h-0.9v-5.5
				c0-0.8,0-1.5-0.1-2.1h0.9l0.1,1.4c0.2-0.5,0.5-0.9,0.9-1.2c0.4-0.3,0.9-0.4,1.5-0.4C201.8,174.4,202.1,174.4,202.3,174.4z"/>
			<path class="st8" d="M208.8,182.2l-4.2-3.7v3.7h-0.9v-11.3h0.9v7.2l3.9-3.6h1.2l-4,3.7l4.4,4H208.8z"/>
			<path class="st8" d="M211.7,178.3L211.7,178.3c0,1.1,0.2,1.9,0.7,2.4c0.5,0.5,1.2,0.8,2.1,0.8c0.9,0,1.8-0.3,2.5-0.9l0.4,0.7
				c-0.3,0.3-0.8,0.6-1.3,0.8c-0.5,0.2-1.1,0.3-1.6,0.3c-1.2,0-2.1-0.4-2.8-1.1c-0.7-0.7-1-1.7-1-2.9c0-0.8,0.2-1.5,0.5-2.1
				c0.3-0.6,0.7-1.1,1.3-1.4c0.5-0.3,1.2-0.5,1.9-0.5c1,0,1.8,0.3,2.4,1s0.8,1.6,0.8,2.7v0.2H211.7z M212.6,175.8
				c-0.4,0.4-0.7,1-0.8,1.8h4.9c-0.1-0.8-0.3-1.4-0.7-1.8c-0.4-0.4-0.9-0.6-1.6-0.6C213.6,175.1,213.1,175.3,212.6,175.8z"/>
			<path class="st8" d="M220.9,175.3v4.6c0,0.6,0.1,1,0.4,1.3c0.2,0.2,0.6,0.4,1,0.4c0.3,0,0.6,0,0.8-0.1v0.8
				c-0.3,0.1-0.7,0.1-1,0.1c-0.7,0-1.2-0.2-1.6-0.6s-0.6-0.9-0.6-1.7v-4.7h-1.5v-0.8h1.5v-2l0.9-0.4v2.4h2.3v0.8H220.9z"/>
			<path class="st8" d="M230.2,174.9c0.5,0.3,0.9,0.8,1.2,1.4c0.3,0.6,0.4,1.3,0.4,2.1s-0.1,1.5-0.4,2.1c-0.3,0.6-0.7,1.1-1.2,1.4
				s-1.1,0.5-1.8,0.5c-0.6,0-1.2-0.1-1.6-0.4s-0.8-0.7-1-1.2v4.8h-0.9v-8.9c0-0.8,0-1.5-0.1-2.1h0.9l0.1,1.5c0.2-0.5,0.6-1,1-1.2
				c0.5-0.3,1-0.4,1.7-0.4C229.1,174.4,229.7,174.5,230.2,174.9z M230.2,180.7c0.4-0.5,0.7-1.3,0.7-2.3c0-1-0.2-1.8-0.7-2.4
				c-0.4-0.6-1.1-0.9-1.9-0.9c-0.8,0-1.4,0.3-1.9,0.8c-0.4,0.6-0.7,1.3-0.7,2.3c0,1,0.2,1.8,0.7,2.3c0.4,0.6,1.1,0.8,1.9,0.8
				C229.1,181.5,229.7,181.2,230.2,180.7z"/>
			<path class="st8" d="M234,170.9h0.9v11.3H234V170.9z"/>
			<path class="st8" d="M244.1,174.5v7.7h-0.9v-1.5c-0.2,0.5-0.6,0.9-1,1.2c-0.5,0.3-1,0.4-1.6,0.4c-0.7,0-1.3-0.2-1.8-0.5
				c-0.5-0.3-0.9-0.8-1.2-1.4c-0.3-0.6-0.4-1.3-0.4-2.1s0.1-1.5,0.4-2.1c0.3-0.6,0.7-1.1,1.2-1.4c0.5-0.3,1.1-0.5,1.8-0.5
				c0.6,0,1.2,0.1,1.6,0.4c0.5,0.3,0.8,0.7,1,1.2v-1.4H244.1z M242.5,180.7c0.4-0.6,0.7-1.3,0.7-2.3c0-1-0.2-1.8-0.7-2.3
				c-0.4-0.6-1.1-0.8-1.9-0.8s-1.4,0.3-1.9,0.9c-0.4,0.6-0.7,1.4-0.7,2.4c0,1,0.2,1.8,0.7,2.3c0.4,0.5,1.1,0.8,1.9,0.8
				C241.4,181.5,242,181.2,242.5,180.7z"/>
			<path class="st8" d="M247.9,181.8c-0.5-0.3-1-0.8-1.3-1.4c-0.3-0.6-0.4-1.3-0.4-2.1c0-0.8,0.1-1.5,0.4-2.1
				c0.3-0.6,0.7-1.1,1.3-1.4c0.6-0.3,1.2-0.5,1.9-0.5c0.5,0,1,0.1,1.5,0.3s0.9,0.4,1.2,0.7l-0.4,0.7c-0.4-0.3-0.8-0.6-1.1-0.7
				s-0.7-0.2-1.1-0.2c-0.8,0-1.5,0.3-2,0.9c-0.5,0.6-0.7,1.4-0.7,2.4c0,1,0.2,1.7,0.7,2.3c0.5,0.6,1.1,0.8,2,0.8
				c0.4,0,0.8-0.1,1.1-0.2c0.4-0.1,0.7-0.4,1.1-0.7l0.4,0.7c-0.3,0.3-0.7,0.6-1.2,0.8s-1,0.3-1.5,0.3
				C249.1,182.3,248.4,182.2,247.9,181.8z"/>
			<path class="st8" d="M254.7,178.3L254.7,178.3c0,1.1,0.2,1.9,0.7,2.4c0.5,0.5,1.2,0.8,2.1,0.8c0.9,0,1.8-0.3,2.5-0.9l0.4,0.7
				c-0.3,0.3-0.8,0.6-1.3,0.8c-0.5,0.2-1.1,0.3-1.6,0.3c-1.2,0-2.1-0.4-2.8-1.1c-0.7-0.7-1-1.7-1-2.9c0-0.8,0.2-1.5,0.5-2.1
				c0.3-0.6,0.7-1.1,1.3-1.4c0.5-0.3,1.2-0.5,1.9-0.5c1,0,1.8,0.3,2.4,1s0.8,1.6,0.8,2.7v0.2H254.7z M255.6,175.8
				c-0.4,0.4-0.7,1-0.8,1.8h4.9c-0.1-0.8-0.3-1.4-0.7-1.8c-0.4-0.4-0.9-0.6-1.6-0.6C256.6,175.1,256.1,175.3,255.6,175.8z"/>
			<path class="st8" d="M266.8,171.3h3.5c1.7,0,3.1,0.5,4,1.4c0.9,0.9,1.4,2.3,1.4,4c0,1.7-0.5,3.1-1.4,4c-0.9,0.9-2.3,1.4-4,1.4
				h-3.5V171.3z M270.2,181.4c1.5,0,2.6-0.4,3.3-1.2c0.7-0.8,1.1-1.9,1.1-3.5c0-3.1-1.5-4.6-4.5-4.6h-2.5v9.2H270.2z"/>
			<path class="st8" d="M278.5,178.3L278.5,178.3c0,1.1,0.2,1.9,0.7,2.4c0.5,0.5,1.2,0.8,2.1,0.8c0.9,0,1.8-0.3,2.5-0.9l0.4,0.7
				c-0.3,0.3-0.8,0.6-1.3,0.8c-0.5,0.2-1.1,0.3-1.6,0.3c-1.2,0-2.1-0.4-2.8-1.1c-0.7-0.7-1-1.7-1-2.9c0-0.8,0.2-1.5,0.5-2.1
				c0.3-0.6,0.7-1.1,1.3-1.4c0.5-0.3,1.2-0.5,1.9-0.5c1,0,1.8,0.3,2.4,1s0.8,1.6,0.8,2.7v0.2H278.5z M279.4,175.8
				c-0.4,0.4-0.7,1-0.8,1.8h4.9c-0.1-0.8-0.3-1.4-0.7-1.8c-0.4-0.4-0.9-0.6-1.6-0.6C280.4,175.1,279.8,175.3,279.4,175.8z"/>
			<path class="st8" d="M286,181.3l0.3-0.7c0.4,0.3,0.8,0.6,1.2,0.7c0.4,0.1,0.9,0.2,1.4,0.2c0.6,0,1.1-0.1,1.4-0.3
				c0.3-0.2,0.5-0.5,0.5-1c0-0.3-0.1-0.6-0.3-0.8s-0.6-0.4-1.1-0.5l-1.3-0.3c-0.6-0.1-1.1-0.4-1.4-0.8c-0.4-0.4-0.5-0.8-0.5-1.3
				c0-0.7,0.3-1.2,0.8-1.6c0.5-0.4,1.2-0.6,2.1-0.6c0.5,0,1,0.1,1.5,0.3c0.5,0.2,0.9,0.4,1.2,0.8l-0.4,0.7c-0.7-0.6-1.5-0.9-2.3-0.9
				c-0.6,0-1.1,0.1-1.4,0.4c-0.3,0.2-0.5,0.6-0.5,1c0,0.3,0.1,0.6,0.3,0.8s0.5,0.4,1,0.5l1.3,0.3c1.4,0.3,2.1,1,2.1,2
				c0,0.6-0.3,1.2-0.8,1.6c-0.5,0.4-1.2,0.6-2.1,0.6C287.7,182.3,286.7,182,286,181.3z"/>
			<path class="st8" d="M295.2,171.4v1.2h-1.2v-1.2H295.2z M294.1,174.5h0.9v7.7h-0.9V174.5z"/>
			<path class="st8" d="M304.2,174.5v7.7c0,1.1-0.3,2-0.8,2.5c-0.6,0.6-1.4,0.9-2.4,0.9c-1.1,0-2.1-0.3-3-0.8l0.2-0.8
				c0.5,0.3,1,0.5,1.4,0.6c0.4,0.1,0.9,0.2,1.4,0.2c0.8,0,1.3-0.2,1.7-0.6c0.4-0.4,0.6-1,0.6-1.8v-2c-0.2,0.5-0.6,0.9-1,1.2
				c-0.5,0.3-1,0.4-1.7,0.4c-0.7,0-1.3-0.2-1.8-0.5c-0.5-0.3-0.9-0.8-1.2-1.3s-0.4-1.2-0.4-2c0-0.8,0.1-1.4,0.4-2
				c0.3-0.6,0.7-1,1.2-1.3c0.5-0.3,1.1-0.5,1.8-0.5c0.6,0,1.2,0.1,1.6,0.4c0.5,0.3,0.8,0.7,1,1.2v-1.4H304.2z M302.6,180.3
				c0.5-0.5,0.7-1.3,0.7-2.2c0-0.9-0.2-1.7-0.7-2.2c-0.5-0.5-1.1-0.8-1.9-0.8c-0.8,0-1.4,0.3-1.9,0.8c-0.5,0.5-0.7,1.3-0.7,2.2
				c0,0.9,0.2,1.7,0.7,2.2c0.5,0.5,1.1,0.8,1.9,0.8C301.5,181.1,302.1,180.9,302.6,180.3z"/>
			<path class="st8" d="M313.2,177.3v4.9h-0.9v-4.8c0-0.8-0.2-1.3-0.5-1.7s-0.8-0.5-1.5-0.5c-0.8,0-1.4,0.2-1.9,0.7
				c-0.5,0.5-0.7,1.1-0.7,1.9v4.4h-0.9v-5.5c0-0.8,0-1.5-0.1-2.1h0.9l0.1,1.4c0.2-0.5,0.6-0.9,1.1-1.2s1-0.4,1.6-0.4
				C312.2,174.4,313.2,175.3,313.2,177.3z"/>
			<path class="st8" d="M322.2,174.5v7.7h-0.9v-1.5c-0.2,0.5-0.6,0.9-1,1.2c-0.5,0.3-1,0.4-1.6,0.4c-0.7,0-1.3-0.2-1.8-0.5
				c-0.5-0.3-0.9-0.8-1.2-1.4c-0.3-0.6-0.4-1.3-0.4-2.1s0.1-1.5,0.4-2.1c0.3-0.6,0.7-1.1,1.2-1.4c0.5-0.3,1.1-0.5,1.8-0.5
				c0.6,0,1.2,0.1,1.6,0.4c0.5,0.3,0.8,0.7,1,1.2v-1.4H322.2z M320.7,180.7c0.4-0.6,0.7-1.3,0.7-2.3c0-1-0.2-1.8-0.7-2.3
				c-0.4-0.6-1.1-0.8-1.9-0.8s-1.4,0.3-1.9,0.9c-0.4,0.6-0.7,1.4-0.7,2.4c0,1,0.2,1.8,0.7,2.3c0.4,0.5,1.1,0.8,1.9,0.8
				C319.6,181.5,320.2,181.2,320.7,180.7z"/>
			<path class="st8" d="M326.2,175.3v4.6c0,0.6,0.1,1,0.4,1.3c0.2,0.2,0.6,0.4,1,0.4c0.3,0,0.6,0,0.8-0.1v0.8
				c-0.3,0.1-0.7,0.1-1,0.1c-0.7,0-1.2-0.2-1.6-0.6s-0.6-0.9-0.6-1.7v-4.7h-1.5v-0.8h1.5v-2l0.9-0.4v2.4h2.3v0.8H326.2z"/>
			<path class="st8" d="M331.2,171.4v1.2H330v-1.2H331.2z M330.1,174.5h0.9v7.7h-0.9V174.5z"/>
			<path class="st8" d="M334.9,181.8c-0.5-0.3-0.9-0.8-1.2-1.4c-0.3-0.6-0.4-1.3-0.4-2.1s0.1-1.5,0.4-2.1s0.7-1.1,1.2-1.4
				s1.2-0.5,1.9-0.5c0.7,0,1.3,0.2,1.8,0.5c0.5,0.3,0.9,0.8,1.2,1.4s0.4,1.3,0.4,2.1s-0.1,1.5-0.4,2.1c-0.3,0.6-0.7,1.1-1.2,1.4
				c-0.5,0.3-1.1,0.5-1.8,0.5C336,182.3,335.4,182.2,334.9,181.8z M338.6,180.7c0.4-0.5,0.7-1.3,0.7-2.3c0-1-0.2-1.8-0.7-2.3
				c-0.4-0.6-1.1-0.8-1.9-0.8c-0.8,0-1.4,0.3-1.9,0.8c-0.4,0.6-0.7,1.3-0.7,2.3c0,1,0.2,1.8,0.7,2.3c0.4,0.5,1.1,0.8,1.9,0.8
				C337.5,181.5,338.1,181.2,338.6,180.7z"/>
			<path class="st8" d="M348.7,177.3v4.9h-0.9v-4.8c0-0.8-0.2-1.3-0.5-1.7s-0.8-0.5-1.5-0.5c-0.8,0-1.4,0.2-1.9,0.7
				c-0.5,0.5-0.7,1.1-0.7,1.9v4.4h-0.9v-5.5c0-0.8,0-1.5-0.1-2.1h0.9l0.1,1.4c0.2-0.5,0.6-0.9,1.1-1.2s1-0.4,1.6-0.4
				C347.8,174.4,348.7,175.3,348.7,177.3z"/>
			<path class="st8" d="M101.2,196.8h4.2v0.8h-4.2V196.8z"/>
			<path class="st8" d="M112.1,190.5h0.9v10.9h-0.9V190.5z"/>
			<path class="st8" d="M122.1,196.5v4.9h-0.9v-4.8c0-0.8-0.2-1.3-0.5-1.7s-0.8-0.5-1.5-0.5c-0.8,0-1.4,0.2-1.9,0.7
				c-0.5,0.5-0.7,1.1-0.7,1.9v4.4h-0.9v-5.5c0-0.8,0-1.5-0.1-2.1h0.9l0.1,1.4c0.2-0.5,0.6-0.9,1.1-1.2s1-0.4,1.6-0.4
				C121.2,193.5,122.1,194.5,122.1,196.5z"/>
			<path class="st8" d="M128.8,190.5h4.2c1.1,0,2,0.3,2.6,0.8c0.6,0.5,0.9,1.3,0.9,2.2c0,0.9-0.3,1.7-0.9,2.2
				c-0.6,0.5-1.5,0.8-2.6,0.8h-3.2v4.9h-0.9V190.5z M132.9,195.6c0.9,0,1.5-0.2,1.9-0.6c0.4-0.4,0.7-0.9,0.7-1.6
				c0-0.7-0.2-1.2-0.7-1.6c-0.4-0.4-1.1-0.6-1.9-0.6h-3.2v4.4H132.9z"/>
			<path class="st8" d="M142.4,193.6l0,0.8c-0.2,0-0.4-0.1-0.7-0.1c-0.8,0-1.4,0.2-1.7,0.7c-0.4,0.5-0.6,1.1-0.6,1.8v4.5h-0.9v-5.5
				c0-0.8,0-1.5-0.1-2.1h0.9l0.1,1.4c0.2-0.5,0.5-0.9,0.9-1.2c0.4-0.3,0.9-0.4,1.5-0.4C142,193.5,142.2,193.5,142.4,193.6z"/>
			<path class="st8" d="M144.9,201c-0.5-0.3-0.9-0.8-1.2-1.4c-0.3-0.6-0.4-1.3-0.4-2.1s0.1-1.5,0.4-2.1s0.7-1.1,1.2-1.4
				s1.2-0.5,1.9-0.5c0.7,0,1.3,0.2,1.8,0.5c0.5,0.3,0.9,0.8,1.2,1.4s0.4,1.3,0.4,2.1s-0.1,1.5-0.4,2.1c-0.3,0.6-0.7,1.1-1.2,1.4
				c-0.5,0.3-1.1,0.5-1.8,0.5C146.1,201.5,145.4,201.3,144.9,201z M148.6,199.8c0.4-0.5,0.7-1.3,0.7-2.3c0-1-0.2-1.8-0.7-2.3
				c-0.4-0.6-1.1-0.8-1.9-0.8c-0.8,0-1.4,0.3-1.9,0.8c-0.4,0.6-0.7,1.3-0.7,2.3c0,1,0.2,1.8,0.7,2.3c0.4,0.5,1.1,0.8,1.9,0.8
				C147.6,200.6,148.2,200.4,148.6,199.8z"/>
			<path class="st8" d="M153.6,201c-0.5-0.3-1-0.8-1.3-1.4c-0.3-0.6-0.4-1.3-0.4-2.1c0-0.8,0.1-1.5,0.4-2.1c0.3-0.6,0.7-1.1,1.3-1.4
				c0.6-0.3,1.2-0.5,1.9-0.5c0.5,0,1,0.1,1.5,0.3s0.9,0.4,1.2,0.7l-0.4,0.7c-0.4-0.3-0.8-0.6-1.1-0.7s-0.7-0.2-1.1-0.2
				c-0.8,0-1.5,0.3-2,0.9c-0.5,0.6-0.7,1.4-0.7,2.4c0,1,0.2,1.7,0.7,2.3c0.5,0.6,1.1,0.8,2,0.8c0.4,0,0.8-0.1,1.1-0.2
				c0.4-0.1,0.7-0.4,1.1-0.7l0.4,0.7c-0.3,0.3-0.7,0.6-1.2,0.8s-1,0.3-1.5,0.3C154.8,201.5,154.2,201.3,153.6,201z"/>
			<path class="st8" d="M160.5,197.4L160.5,197.4c0,1.1,0.2,1.9,0.7,2.4c0.5,0.5,1.2,0.8,2.1,0.8c0.9,0,1.8-0.3,2.5-0.9l0.4,0.7
				c-0.3,0.3-0.8,0.6-1.3,0.8c-0.5,0.2-1.1,0.3-1.6,0.3c-1.2,0-2.1-0.4-2.8-1.1c-0.7-0.7-1-1.7-1-2.9c0-0.8,0.2-1.5,0.5-2.1
				c0.3-0.6,0.7-1.1,1.3-1.4c0.5-0.3,1.2-0.5,1.9-0.5c1,0,1.8,0.3,2.4,1s0.8,1.6,0.8,2.7v0.2H160.5z M161.4,194.9
				c-0.4,0.4-0.7,1-0.8,1.8h4.9c-0.1-0.8-0.3-1.4-0.7-1.8c-0.4-0.4-0.9-0.6-1.6-0.6C162.4,194.3,161.8,194.5,161.4,194.9z"/>
			<path class="st8" d="M167.9,200.4l0.3-0.7c0.4,0.3,0.8,0.6,1.2,0.7c0.4,0.1,0.9,0.2,1.4,0.2c0.6,0,1.1-0.1,1.4-0.3
				c0.3-0.2,0.5-0.5,0.5-1c0-0.3-0.1-0.6-0.3-0.8s-0.6-0.4-1.1-0.5l-1.3-0.3c-0.6-0.1-1.1-0.4-1.4-0.8c-0.4-0.4-0.5-0.8-0.5-1.3
				c0-0.7,0.3-1.2,0.8-1.6c0.5-0.4,1.2-0.6,2.1-0.6c0.5,0,1,0.1,1.5,0.3c0.5,0.2,0.9,0.4,1.2,0.8l-0.4,0.7c-0.7-0.6-1.5-0.9-2.3-0.9
				c-0.6,0-1.1,0.1-1.4,0.4c-0.3,0.2-0.5,0.6-0.5,1c0,0.3,0.1,0.6,0.3,0.8s0.5,0.4,1,0.5l1.3,0.3c1.4,0.3,2.1,1,2.1,2
				c0,0.6-0.3,1.2-0.8,1.6c-0.5,0.4-1.2,0.6-2.1,0.6C169.6,201.5,168.6,201.1,167.9,200.4z"/>
			<path class="st8" d="M175.6,200.4l0.3-0.7c0.4,0.3,0.8,0.6,1.2,0.7c0.4,0.1,0.9,0.2,1.4,0.2c0.6,0,1.1-0.1,1.4-0.3
				c0.3-0.2,0.5-0.5,0.5-1c0-0.3-0.1-0.6-0.3-0.8s-0.6-0.4-1.1-0.5l-1.3-0.3c-0.6-0.1-1.1-0.4-1.4-0.8c-0.4-0.4-0.5-0.8-0.5-1.3
				c0-0.7,0.3-1.2,0.8-1.6c0.5-0.4,1.2-0.6,2.1-0.6c0.5,0,1,0.1,1.5,0.3c0.5,0.2,0.9,0.4,1.2,0.8l-0.4,0.7c-0.7-0.6-1.5-0.9-2.3-0.9
				c-0.6,0-1.1,0.1-1.4,0.4c-0.3,0.2-0.5,0.6-0.5,1c0,0.3,0.1,0.6,0.3,0.8s0.5,0.4,1,0.5l1.3,0.3c1.4,0.3,2.1,1,2.1,2
				c0,0.6-0.3,1.2-0.8,1.6c-0.5,0.4-1.2,0.6-2.1,0.6C177.3,201.5,176.3,201.1,175.6,200.4z"/>
			<g>
				<path class="st1" d="M74,228.3c-0.4-0.2-0.8-0.6-1-1c-0.3-0.4-0.4-0.9-0.4-1.4c0-0.5,0.1-0.9,0.4-1.3c0.2-0.4,0.6-0.8,1-1
					c0.4-0.3,0.9-0.4,1.4-0.4c0.5,0,0.9,0.1,1.4,0.4s0.8,0.6,1,1c0.3,0.4,0.4,0.9,0.4,1.4c0,0.5-0.1,1-0.4,1.4s-0.6,0.8-1,1
					c-0.4,0.2-0.9,0.4-1.4,0.4C74.9,228.7,74.5,228.6,74,228.3z"/>
				<path class="st1" d="M75.4,228.8c-0.5,0-1-0.1-1.5-0.4c-0.4-0.2-0.8-0.6-1.1-1s-0.4-0.9-0.4-1.5c0-0.5,0.1-1,0.4-1.4
					s0.6-0.8,1.1-1.1c0.4-0.3,0.9-0.4,1.5-0.4c0.5,0,1,0.1,1.4,0.4c0.4,0.2,0.8,0.6,1.1,1c0.3,0.4,0.4,0.9,0.4,1.5
					c0,0.5-0.1,1-0.4,1.4c-0.3,0.4-0.6,0.8-1.1,1C76.4,228.7,76,228.8,75.4,228.8z M75.4,223.3c-0.5,0-1,0.1-1.4,0.4
					c-0.4,0.2-0.7,0.6-1,1c-0.2,0.4-0.4,0.8-0.4,1.3c0,0.5,0.1,0.9,0.4,1.3c0.2,0.4,0.6,0.7,1,1h0c0.8,0.5,1.8,0.5,2.7,0
					c0.4-0.2,0.7-0.6,1-1c0.2-0.4,0.4-0.8,0.4-1.3c0-0.5-0.1-0.9-0.4-1.3c-0.2-0.4-0.6-0.7-1-0.9C76.3,223.5,75.9,223.3,75.4,223.3z
					"/>
			</g>
			<path class="st8" d="M109.9,230.1h-1l-1.4-3.6c-0.2-0.5-0.4-0.8-0.7-1c-0.3-0.2-0.8-0.3-1.3-0.3h-3v4.9h-0.9v-10.9h4.2
				c1.1,0,2,0.3,2.6,0.8s0.9,1.3,0.9,2.2c0,0.7-0.2,1.3-0.6,1.8c-0.4,0.5-0.9,0.8-1.6,1c0.3,0.1,0.6,0.2,0.8,0.4
				c0.2,0.2,0.4,0.5,0.6,1L109.9,230.1z M105.7,224.4c1.8,0,2.7-0.7,2.7-2.2c0-1.4-0.9-2.2-2.7-2.2h-3.2v4.4H105.7z"/>
			<path class="st8" d="M112.5,226.1L112.5,226.1c0,1.1,0.2,1.9,0.7,2.4c0.5,0.5,1.2,0.8,2.1,0.8c0.9,0,1.8-0.3,2.5-0.9l0.4,0.7
				c-0.3,0.3-0.8,0.6-1.3,0.8c-0.5,0.2-1.1,0.3-1.6,0.3c-1.2,0-2.1-0.4-2.8-1.1c-0.7-0.7-1-1.7-1-2.9c0-0.8,0.2-1.5,0.5-2.1
				c0.3-0.6,0.7-1.1,1.3-1.4c0.5-0.3,1.2-0.5,1.9-0.5c1,0,1.8,0.3,2.4,1s0.8,1.6,0.8,2.7v0.2H112.5z M113.4,223.6
				c-0.4,0.4-0.7,1-0.8,1.8h4.9c-0.1-0.8-0.3-1.4-0.7-1.8c-0.4-0.4-0.9-0.6-1.6-0.6C114.4,223,113.8,223.2,113.4,223.6z"/>
			<path class="st8" d="M126.8,222.4l-3.3,7.7h-1l-3.2-7.7h1l2.8,6.7l2.8-6.7H126.8z"/>
			<path class="st8" d="M129.5,219.2v1.2h-1.2v-1.2H129.5z M128.4,222.4h0.9v7.7h-0.9V222.4z"/>
			<path class="st8" d="M132.5,226.1L132.5,226.1c0,1.1,0.2,1.9,0.7,2.4c0.5,0.5,1.2,0.8,2.1,0.8c0.9,0,1.8-0.3,2.5-0.9l0.4,0.7
				c-0.3,0.3-0.8,0.6-1.3,0.8c-0.5,0.2-1.1,0.3-1.6,0.3c-1.2,0-2.1-0.4-2.8-1.1c-0.7-0.7-1-1.7-1-2.9c0-0.8,0.2-1.5,0.5-2.1
				c0.3-0.6,0.7-1.1,1.3-1.4c0.5-0.3,1.2-0.5,1.9-0.5c1,0,1.8,0.3,2.4,1s0.8,1.6,0.8,2.7v0.2H132.5z M133.4,223.6
				c-0.4,0.4-0.7,1-0.8,1.8h4.9c-0.1-0.8-0.3-1.4-0.7-1.8c-0.4-0.4-0.9-0.6-1.6-0.6C134.4,223,133.8,223.2,133.4,223.6z"/>
			<path class="st8" d="M151.7,222.4l-2.8,7.7h-1l-2.3-6.5l-2.3,6.5h-1l-2.8-7.7h1l2.3,6.6l2.4-6.6h0.9l2.3,6.6l2.3-6.6H151.7z"/>
			<path class="st8" d="M158.3,229.5c-0.3-1.1-0.4-2.3-0.4-3.5c0-1.2,0.1-2.3,0.4-3.4c0.3-1.1,0.7-2.3,1.2-3.4h0.8
				c-0.5,1.2-0.9,2.4-1.2,3.5s-0.3,2.2-0.3,3.3s0.1,2.2,0.3,3.3c0.2,1.1,0.6,2.3,1.2,3.5h-0.8C159,231.7,158.6,230.6,158.3,229.5z"
				/>
			<path class="st8" d="M169.3,225.2c-0.4,1-1.1,1.5-2,1.5c-0.3,0-0.7-0.1-1-0.2c-0.3-0.1-0.7-0.3-1.1-0.5c-0.3-0.2-0.6-0.3-0.8-0.4
				c-0.2-0.1-0.4-0.1-0.6-0.1c-0.3,0-0.6,0.1-0.8,0.3c-0.2,0.2-0.4,0.4-0.5,0.8l-0.7-0.4c0.4-1,1.1-1.5,2-1.5c0.3,0,0.7,0.1,1,0.2
				c0.3,0.1,0.7,0.3,1.1,0.5c0.3,0.2,0.6,0.3,0.8,0.4s0.4,0.1,0.6,0.1c0.3,0,0.6-0.1,0.8-0.3c0.2-0.2,0.4-0.4,0.5-0.8L169.3,225.2z"
				/>
			<path class="st8" d="M177.7,225.4c0.3,0.5,0.5,1,0.5,1.7c0,0.9-0.3,1.7-0.9,2.2c-0.6,0.5-1.5,0.8-2.5,0.8c-0.7,0-1.4-0.1-2-0.4
				c-0.6-0.2-1.2-0.6-1.6-1l0.4-0.8c0.5,0.4,1,0.8,1.5,1c0.5,0.2,1.1,0.3,1.7,0.3c0.8,0,1.4-0.2,1.8-0.6s0.7-0.9,0.7-1.6
				c0-1.4-0.9-2.2-2.7-2.2h-1.2v-0.8h0.9c0.9,0,1.5-0.2,2-0.6c0.5-0.4,0.7-1,0.7-1.7c0-0.6-0.2-1.1-0.6-1.4
				c-0.4-0.3-0.9-0.5-1.6-0.5c-1.1,0-2.1,0.4-3.1,1.3l-0.4-0.8c0.4-0.4,1-0.8,1.6-1s1.3-0.4,2-0.4c1,0,1.7,0.2,2.3,0.7
				s0.8,1.2,0.8,2c0,0.6-0.2,1.2-0.5,1.7s-0.7,0.8-1.3,1C176.9,224.6,177.4,225,177.7,225.4z"/>
			<path class="st8" d="M180.6,225.6h4.2v0.8h-4.2V225.6z"/>
			<path class="st8" d="M194.7,227.6H193v2.5H192v-2.5h-5.2v-0.7l5.3-7.7h0.8v7.6h1.7V227.6z M192,226.8v-5.9l-4.1,5.9H192z"/>
			<path class="st8" d="M212,222.4l-2.8,7.7h-1l-2.3-6.5l-2.3,6.5h-1l-2.8-7.7h1l2.3,6.6l2.4-6.6h0.9l2.3,6.6l2.3-6.6H212z"/>
			<path class="st8" d="M214.3,226.1L214.3,226.1c0,1.1,0.2,1.9,0.7,2.4c0.5,0.5,1.2,0.8,2.1,0.8c0.9,0,1.8-0.3,2.5-0.9l0.4,0.7
				c-0.3,0.3-0.8,0.6-1.3,0.8c-0.5,0.2-1.1,0.3-1.6,0.3c-1.2,0-2.1-0.4-2.8-1.1c-0.7-0.7-1-1.7-1-2.9c0-0.8,0.2-1.5,0.5-2.1
				c0.3-0.6,0.7-1.1,1.3-1.4c0.5-0.3,1.2-0.5,1.9-0.5c1,0,1.8,0.3,2.4,1s0.8,1.6,0.8,2.7v0.2H214.3z M215.2,223.6
				c-0.4,0.4-0.7,1-0.8,1.8h4.9c-0.1-0.8-0.3-1.4-0.7-1.8c-0.4-0.4-0.9-0.6-1.6-0.6C216.2,223,215.6,223.2,215.2,223.6z"/>
			<path class="st8" d="M222.7,226.1L222.7,226.1c0,1.1,0.2,1.9,0.7,2.4c0.5,0.5,1.2,0.8,2.1,0.8c0.9,0,1.8-0.3,2.5-0.9l0.4,0.7
				c-0.3,0.3-0.8,0.6-1.3,0.8c-0.5,0.2-1.1,0.3-1.6,0.3c-1.2,0-2.1-0.4-2.8-1.1c-0.7-0.7-1-1.7-1-2.9c0-0.8,0.2-1.5,0.5-2.1
				c0.3-0.6,0.7-1.1,1.3-1.4c0.5-0.3,1.2-0.5,1.9-0.5c1,0,1.8,0.3,2.4,1s0.8,1.6,0.8,2.7v0.2H222.7z M223.6,223.6
				c-0.4,0.4-0.7,1-0.8,1.8h4.9c-0.1-0.8-0.3-1.4-0.7-1.8c-0.4-0.4-0.9-0.6-1.6-0.6C224.6,223,224,223.2,223.6,223.6z"/>
			<path class="st8" d="M235.7,230.1l-4.2-3.7v3.7h-0.9v-11.3h0.9v7.2l3.9-3.6h1.2l-4,3.7l4.4,4H235.7z"/>
			<path class="st8" d="M237.7,229.1l0.3-0.7c0.4,0.3,0.8,0.6,1.2,0.7c0.4,0.1,0.9,0.2,1.4,0.2c0.6,0,1.1-0.1,1.4-0.3
				c0.3-0.2,0.5-0.5,0.5-1c0-0.3-0.1-0.6-0.3-0.8c-0.2-0.2-0.6-0.4-1.1-0.5l-1.3-0.3c-0.6-0.1-1.1-0.4-1.4-0.8
				c-0.4-0.4-0.5-0.8-0.5-1.3c0-0.7,0.3-1.2,0.8-1.6c0.5-0.4,1.2-0.6,2.1-0.6c0.5,0,1,0.1,1.5,0.3c0.5,0.2,0.9,0.4,1.2,0.8l-0.4,0.7
				c-0.7-0.6-1.5-0.9-2.3-0.9c-0.6,0-1.1,0.1-1.4,0.4c-0.3,0.2-0.5,0.6-0.5,1c0,0.3,0.1,0.6,0.3,0.8c0.2,0.2,0.5,0.4,1,0.5l1.3,0.3
				c1.4,0.3,2.1,1,2.1,2c0,0.6-0.3,1.2-0.8,1.6c-0.5,0.4-1.2,0.6-2.1,0.6C239.4,230.2,238.4,229.8,237.7,229.1z"/>
			<path class="st8" d="M245,232.9c0.5-1.2,0.9-2.4,1.1-3.5c0.2-1.1,0.3-2.2,0.3-3.3c0-1.1-0.1-2.2-0.3-3.3
				c-0.2-1.1-0.6-2.3-1.2-3.5h0.8c0.6,1.1,1,2.3,1.2,3.4c0.3,1.1,0.4,2.3,0.4,3.4c0,1.2-0.1,2.4-0.4,3.5c-0.3,1.1-0.7,2.3-1.3,3.4
				H245z"/>
			<g>
				<path class="st1" d="M74,257.1c-0.4-0.2-0.8-0.6-1-1c-0.3-0.4-0.4-0.9-0.4-1.4c0-0.5,0.1-0.9,0.4-1.3c0.2-0.4,0.6-0.8,1-1
					c0.4-0.3,0.9-0.4,1.4-0.4c0.5,0,0.9,0.1,1.4,0.4s0.8,0.6,1,1c0.3,0.4,0.4,0.9,0.4,1.4c0,0.5-0.1,1-0.4,1.4s-0.6,0.8-1,1
					c-0.4,0.2-0.9,0.4-1.4,0.4C74.9,257.4,74.5,257.3,74,257.1z"/>
				<path class="st1" d="M75.4,257.5c-0.5,0-1-0.1-1.5-0.4c-0.4-0.2-0.8-0.6-1.1-1s-0.4-0.9-0.4-1.5c0-0.5,0.1-1,0.4-1.4
					s0.6-0.8,1.1-1.1c0.4-0.3,0.9-0.4,1.5-0.4c0.5,0,1,0.1,1.4,0.4c0.4,0.2,0.8,0.6,1.1,1c0.3,0.4,0.4,0.9,0.4,1.5
					c0,0.5-0.1,1-0.4,1.4c-0.3,0.4-0.6,0.8-1.1,1C76.4,257.4,76,257.5,75.4,257.5z M75.4,252.1c-0.5,0-1,0.1-1.4,0.4
					c-0.4,0.2-0.7,0.6-1,1c-0.2,0.4-0.4,0.8-0.4,1.3c0,0.5,0.1,0.9,0.4,1.3c0.2,0.4,0.6,0.7,1,1h0c0.8,0.5,1.8,0.5,2.7,0
					c0.4-0.2,0.7-0.6,1-1c0.2-0.4,0.4-0.8,0.4-1.3c0-0.5-0.1-0.9-0.4-1.3c-0.2-0.4-0.6-0.7-1-0.9C76.3,252.2,75.9,252.1,75.4,252.1z
					"/>
			</g>
			<path class="st8" d="M109.9,258.8h-1l-1.4-3.6c-0.2-0.5-0.4-0.8-0.7-1c-0.3-0.2-0.8-0.3-1.3-0.3h-3v4.9h-0.9v-10.9h4.2
				c1.1,0,2,0.3,2.6,0.8s0.9,1.3,0.9,2.2c0,0.7-0.2,1.3-0.6,1.8c-0.4,0.5-0.9,0.8-1.6,1c0.3,0.1,0.6,0.2,0.8,0.4
				c0.2,0.2,0.4,0.5,0.6,1L109.9,258.8z M105.7,253.1c1.8,0,2.7-0.7,2.7-2.2c0-1.4-0.9-2.2-2.7-2.2h-3.2v4.4H105.7z"/>
			<path class="st8" d="M112.5,254.8L112.5,254.8c0,1.1,0.2,1.9,0.7,2.4c0.5,0.5,1.2,0.8,2.1,0.8c0.9,0,1.8-0.3,2.5-0.9l0.4,0.7
				c-0.3,0.3-0.8,0.6-1.3,0.8c-0.5,0.2-1.1,0.3-1.6,0.3c-1.2,0-2.1-0.4-2.8-1.1c-0.7-0.7-1-1.7-1-2.9c0-0.8,0.2-1.5,0.5-2.1
				c0.3-0.6,0.7-1.1,1.3-1.4c0.5-0.3,1.2-0.5,1.9-0.5c1,0,1.8,0.3,2.4,1s0.8,1.6,0.8,2.7v0.2H112.5z M113.4,252.3
				c-0.4,0.4-0.7,1-0.8,1.8h4.9c-0.1-0.8-0.3-1.4-0.7-1.8c-0.4-0.4-0.9-0.6-1.6-0.6C114.4,251.7,113.8,251.9,113.4,252.3z"/>
			<path class="st8" d="M131.2,253.9v4.9h-0.9V254c0-0.8-0.1-1.3-0.4-1.7c-0.3-0.4-0.7-0.5-1.3-0.5c-0.7,0-1.3,0.2-1.7,0.7
				c-0.4,0.5-0.6,1.1-0.6,1.9v4.4h-0.9V254c0-0.8-0.1-1.3-0.4-1.7c-0.3-0.4-0.7-0.5-1.3-0.5c-0.7,0-1.2,0.2-1.7,0.7
				c-0.4,0.5-0.6,1.1-0.6,1.9v4.4h-0.9v-5.5c0-0.8,0-1.5-0.1-2.1h0.9l0.1,1.4c0.2-0.5,0.5-0.9,1-1.2s0.9-0.4,1.5-0.4
				c1.2,0,2,0.5,2.4,1.5c0.2-0.5,0.5-0.8,1-1.1s1-0.4,1.6-0.4C130.3,250.9,131.2,251.9,131.2,253.9z"/>
			<path class="st8" d="M134.2,254.8L134.2,254.8c0,1.1,0.2,1.9,0.7,2.4c0.5,0.5,1.2,0.8,2.1,0.8c0.9,0,1.8-0.3,2.5-0.9l0.4,0.7
				c-0.3,0.3-0.8,0.6-1.3,0.8c-0.5,0.2-1.1,0.3-1.6,0.3c-1.2,0-2.1-0.4-2.8-1.1c-0.7-0.7-1-1.7-1-2.9c0-0.8,0.2-1.5,0.5-2.1
				c0.3-0.6,0.7-1.1,1.3-1.4c0.5-0.3,1.2-0.5,1.9-0.5c1,0,1.8,0.3,2.4,1s0.8,1.6,0.8,2.7v0.2H134.2z M135.1,252.3
				c-0.4,0.4-0.7,1-0.8,1.8h4.9c-0.1-0.8-0.3-1.4-0.7-1.8c-0.4-0.4-0.9-0.6-1.6-0.6C136.1,251.7,135.6,251.9,135.1,252.3z"/>
			<path class="st8" d="M148.7,247.5v11.3h-0.9v-1.5c-0.2,0.5-0.6,0.9-1,1.2c-0.5,0.3-1,0.4-1.6,0.4c-0.7,0-1.3-0.2-1.8-0.5
				c-0.5-0.3-0.9-0.8-1.2-1.4c-0.3-0.6-0.4-1.3-0.4-2.1c0-0.8,0.1-1.5,0.4-2.1c0.3-0.6,0.7-1.1,1.2-1.4c0.5-0.3,1.1-0.5,1.8-0.5
				c0.6,0,1.2,0.1,1.6,0.4s0.8,0.7,1,1.2v-5H148.7z M147.1,257.2c0.4-0.6,0.7-1.3,0.7-2.3c0-1-0.2-1.8-0.7-2.3
				c-0.4-0.6-1.1-0.8-1.9-0.8c-0.8,0-1.5,0.3-1.9,0.8c-0.4,0.6-0.7,1.3-0.7,2.3c0,1,0.2,1.8,0.7,2.3s1.1,0.8,1.9,0.8
				S146.6,257.8,147.1,257.2z"/>
			<path class="st8" d="M152.4,247.9v1.2h-1.2v-1.2H152.4z M151.3,251.1h0.9v7.7h-0.9V251.1z"/>
			<path class="st8" d="M161.3,251.1v7.7h-0.9v-1.5c-0.2,0.5-0.6,0.9-1,1.2c-0.5,0.3-1,0.4-1.6,0.4c-0.7,0-1.3-0.2-1.8-0.5
				s-0.9-0.8-1.2-1.4c-0.3-0.6-0.4-1.3-0.4-2.1s0.1-1.5,0.4-2.1c0.3-0.6,0.7-1.1,1.2-1.4c0.5-0.3,1.1-0.5,1.8-0.5
				c0.6,0,1.2,0.1,1.6,0.4s0.8,0.7,1,1.2v-1.4H161.3z M159.8,257.2c0.4-0.6,0.7-1.3,0.7-2.3c0-1-0.2-1.8-0.7-2.3
				c-0.4-0.6-1.1-0.8-1.9-0.8s-1.4,0.3-1.9,0.8s-0.7,1.4-0.7,2.4c0,1,0.2,1.8,0.7,2.3s1.1,0.8,1.9,0.8
				C158.7,258.1,159.3,257.8,159.8,257.2z"/>
			<path class="st8" d="M165.3,251.9v4.6c0,0.6,0.1,1,0.4,1.3c0.2,0.2,0.6,0.4,1,0.4c0.3,0,0.6,0,0.8-0.1v0.8
				c-0.3,0.1-0.7,0.1-1,0.1c-0.7,0-1.2-0.2-1.6-0.6s-0.6-0.9-0.6-1.7v-4.7h-1.5v-0.8h1.5v-2l0.9-0.4v2.4h2.3v0.8H165.3z"/>
			<path class="st8" d="M170.3,247.9v1.2h-1.2v-1.2H170.3z M169.2,251.1h0.9v7.7h-0.9V251.1z"/>
			<path class="st8" d="M174,258.4c-0.5-0.3-0.9-0.8-1.2-1.4s-0.4-1.3-0.4-2.1c0-0.8,0.1-1.5,0.4-2.1c0.3-0.6,0.7-1.1,1.2-1.4
				c0.5-0.3,1.2-0.5,1.9-0.5c0.7,0,1.3,0.2,1.8,0.5c0.5,0.3,0.9,0.8,1.2,1.4c0.3,0.6,0.4,1.3,0.4,2.1c0,0.8-0.1,1.5-0.4,2.1
				s-0.7,1.1-1.2,1.4c-0.5,0.3-1.1,0.5-1.8,0.5C175.1,258.9,174.5,258.7,174,258.4z M177.7,257.2c0.4-0.5,0.7-1.3,0.7-2.3
				c0-1-0.2-1.8-0.7-2.3c-0.4-0.6-1.1-0.8-1.9-0.8c-0.8,0-1.4,0.3-1.9,0.8c-0.4,0.6-0.7,1.3-0.7,2.3c0,1,0.2,1.8,0.7,2.3
				c0.4,0.5,1.1,0.8,1.9,0.8C176.6,258.1,177.2,257.8,177.7,257.2z"/>
			<path class="st8" d="M187.8,253.9v4.9h-0.9V254c0-0.8-0.2-1.3-0.5-1.7c-0.3-0.4-0.8-0.5-1.5-0.5c-0.8,0-1.4,0.2-1.9,0.7
				c-0.5,0.5-0.7,1.1-0.7,1.9v4.4h-0.9v-5.5c0-0.8,0-1.5-0.1-2.1h0.9l0.1,1.4c0.2-0.5,0.6-0.9,1.1-1.2s1-0.4,1.6-0.4
				C186.9,250.9,187.8,251.9,187.8,253.9z"/>
			<path class="st8" d="M195.1,258.2c-0.3-1.1-0.4-2.3-0.4-3.5c0-1.2,0.1-2.3,0.4-3.4c0.3-1.1,0.7-2.3,1.2-3.4h0.8
				c-0.5,1.2-0.9,2.4-1.2,3.5s-0.3,2.2-0.3,3.3s0.1,2.2,0.3,3.3c0.2,1.1,0.6,2.3,1.2,3.5h-0.8C195.8,260.4,195.4,259.3,195.1,258.2z
				"/>
			<path class="st8" d="M206.1,253.9c-0.4,1-1.1,1.5-2,1.5c-0.3,0-0.7-0.1-1-0.2c-0.3-0.1-0.7-0.3-1.1-0.5c-0.3-0.2-0.6-0.3-0.8-0.4
				c-0.2-0.1-0.4-0.1-0.6-0.1c-0.3,0-0.6,0.1-0.8,0.3c-0.2,0.2-0.4,0.4-0.5,0.8l-0.7-0.4c0.4-1,1.1-1.5,2-1.5c0.3,0,0.7,0.1,1,0.2
				c0.3,0.1,0.7,0.3,1.1,0.5c0.3,0.2,0.6,0.3,0.8,0.4s0.4,0.1,0.6,0.1c0.3,0,0.6-0.1,0.8-0.3c0.2-0.2,0.4-0.4,0.5-0.8L206.1,253.9z"
				/>
			<path class="st8" d="M214.5,254.1c0.3,0.5,0.5,1,0.5,1.7c0,0.9-0.3,1.7-0.9,2.2c-0.6,0.5-1.5,0.8-2.5,0.8c-0.7,0-1.4-0.1-2-0.4
				c-0.6-0.2-1.2-0.6-1.6-1l0.4-0.8c0.5,0.4,1,0.8,1.5,1c0.5,0.2,1.1,0.3,1.7,0.3c0.8,0,1.4-0.2,1.8-0.6s0.7-0.9,0.7-1.6
				c0-1.4-0.9-2.2-2.7-2.2h-1.2v-0.8h0.9c0.9,0,1.5-0.2,2-0.6c0.5-0.4,0.7-1,0.7-1.7c0-0.6-0.2-1.1-0.6-1.4
				c-0.4-0.3-0.9-0.5-1.6-0.5c-1.1,0-2.1,0.4-3.1,1.3l-0.4-0.8c0.4-0.4,1-0.8,1.6-1s1.3-0.4,2-0.4c1,0,1.7,0.2,2.3,0.7
				s0.8,1.2,0.8,2c0,0.6-0.2,1.2-0.5,1.7s-0.7,0.8-1.3,1C213.7,253.4,214.2,253.7,214.5,254.1z"/>
			<path class="st8" d="M233,251.1l-2.8,7.7h-1l-2.3-6.5l-2.3,6.5h-1l-2.8-7.7h1l2.3,6.6l2.4-6.6h0.9l2.3,6.6l2.3-6.6H233z"/>
			<path class="st8" d="M235.3,254.8L235.3,254.8c0,1.1,0.2,1.9,0.7,2.4c0.5,0.5,1.2,0.8,2.1,0.8c0.9,0,1.8-0.3,2.5-0.9l0.4,0.7
				c-0.3,0.3-0.8,0.6-1.3,0.8c-0.5,0.2-1.1,0.3-1.6,0.3c-1.2,0-2.1-0.4-2.8-1.1c-0.7-0.7-1-1.7-1-2.9c0-0.8,0.2-1.5,0.5-2.1
				c0.3-0.6,0.7-1.1,1.3-1.4c0.5-0.3,1.2-0.5,1.9-0.5c1,0,1.8,0.3,2.4,1s0.8,1.6,0.8,2.7v0.2H235.3z M236.1,252.3
				c-0.4,0.4-0.7,1-0.8,1.8h4.9c-0.1-0.8-0.3-1.4-0.7-1.8c-0.4-0.4-0.9-0.6-1.6-0.6C237.2,251.7,236.6,251.9,236.1,252.3z"/>
			<path class="st8" d="M243.6,254.8L243.6,254.8c0,1.1,0.2,1.9,0.7,2.4c0.5,0.5,1.2,0.8,2.1,0.8c0.9,0,1.8-0.3,2.5-0.9l0.4,0.7
				c-0.3,0.3-0.8,0.6-1.3,0.8c-0.5,0.2-1.1,0.3-1.6,0.3c-1.2,0-2.1-0.4-2.8-1.1c-0.7-0.7-1-1.7-1-2.9c0-0.8,0.2-1.5,0.5-2.1
				c0.3-0.6,0.7-1.1,1.3-1.4c0.5-0.3,1.2-0.5,1.9-0.5c1,0,1.8,0.3,2.4,1s0.8,1.6,0.8,2.7v0.2H243.6z M244.5,252.3
				c-0.4,0.4-0.7,1-0.8,1.8h4.9c-0.1-0.8-0.3-1.4-0.7-1.8c-0.4-0.4-0.9-0.6-1.6-0.6C245.5,251.7,245,251.9,244.5,252.3z"/>
			<path class="st8" d="M256.7,258.8l-4.2-3.7v3.7h-0.9v-11.3h0.9v7.2l3.9-3.6h1.2l-4,3.7l4.4,4H256.7z"/>
			<path class="st8" d="M258.6,257.9l0.3-0.7c0.4,0.3,0.8,0.6,1.2,0.7c0.4,0.1,0.9,0.2,1.4,0.2c0.6,0,1.1-0.1,1.4-0.3
				c0.3-0.2,0.5-0.5,0.5-1c0-0.3-0.1-0.6-0.3-0.8c-0.2-0.2-0.6-0.4-1.1-0.5l-1.3-0.3c-0.6-0.1-1.1-0.4-1.4-0.8
				c-0.4-0.4-0.5-0.8-0.5-1.3c0-0.7,0.3-1.2,0.8-1.6c0.5-0.4,1.2-0.6,2.1-0.6c0.5,0,1,0.1,1.5,0.3c0.5,0.2,0.9,0.4,1.2,0.8l-0.4,0.7
				c-0.7-0.6-1.5-0.9-2.3-0.9c-0.6,0-1.1,0.1-1.4,0.4c-0.3,0.2-0.5,0.6-0.5,1c0,0.3,0.1,0.6,0.3,0.8c0.2,0.2,0.5,0.4,1,0.5l1.3,0.3
				c1.4,0.3,2.1,1,2.1,2c0,0.6-0.3,1.2-0.8,1.6c-0.5,0.4-1.2,0.6-2.1,0.6C260.3,258.9,259.4,258.5,258.6,257.9z"/>
			<path class="st8" d="M266,261.6c0.5-1.2,0.9-2.4,1.1-3.5c0.2-1.1,0.3-2.2,0.3-3.3c0-1.1-0.1-2.2-0.3-3.3
				c-0.2-1.1-0.6-2.3-1.2-3.5h0.8c0.6,1.1,1,2.3,1.2,3.4c0.3,1.1,0.4,2.3,0.4,3.4c0,1.2-0.1,2.4-0.4,3.5c-0.3,1.1-0.7,2.3-1.3,3.4
				H266z"/>
			<g>
				<path class="st1" d="M74,285.8c-0.4-0.2-0.8-0.6-1-1c-0.3-0.4-0.4-0.9-0.4-1.4c0-0.5,0.1-0.9,0.4-1.3c0.2-0.4,0.6-0.8,1-1
					c0.4-0.3,0.9-0.4,1.4-0.4c0.5,0,0.9,0.1,1.4,0.4s0.8,0.6,1,1c0.3,0.4,0.4,0.9,0.4,1.4c0,0.5-0.1,1-0.4,1.4s-0.6,0.8-1,1
					c-0.4,0.2-0.9,0.4-1.4,0.4C74.9,286.1,74.5,286,74,285.8z"/>
				<path class="st1" d="M75.4,286.3c-0.5,0-1-0.1-1.5-0.4c-0.4-0.2-0.8-0.6-1.1-1s-0.4-0.9-0.4-1.5c0-0.5,0.1-1,0.4-1.4
					s0.6-0.8,1.1-1.1c0.4-0.3,0.9-0.4,1.5-0.4c0.5,0,1,0.1,1.4,0.4c0.4,0.2,0.8,0.6,1.1,1c0.3,0.4,0.4,0.9,0.4,1.5
					c0,0.5-0.1,1-0.4,1.4c-0.3,0.4-0.6,0.8-1.1,1C76.4,286.1,76,286.3,75.4,286.3z M75.4,280.8c-0.5,0-1,0.1-1.4,0.4
					c-0.4,0.2-0.7,0.6-1,1c-0.2,0.4-0.4,0.8-0.4,1.3c0,0.5,0.1,0.9,0.4,1.3c0.2,0.4,0.6,0.7,1,1h0c0.8,0.5,1.8,0.5,2.7,0
					c0.4-0.2,0.7-0.6,1-1c0.2-0.4,0.4-0.8,0.4-1.3c0-0.5-0.1-0.9-0.4-1.3c-0.2-0.4-0.6-0.7-1-0.9C76.3,280.9,75.9,280.8,75.4,280.8z
					"/>
			</g>
			<path class="st8" d="M101.5,276.6h6.6v0.8h-5.6v4.1h5.3v0.8h-5.3v5.1h-0.9V276.6z"/>
			<path class="st8" d="M111.1,276.7v1.2h-1.2v-1.2H111.1z M110,279.8h0.9v7.7H110V279.8z"/>
			<path class="st8" d="M119.9,282.6v4.9H119v-4.8c0-0.8-0.2-1.3-0.5-1.7c-0.3-0.4-0.8-0.5-1.5-0.5c-0.8,0-1.4,0.2-1.9,0.7
				c-0.5,0.5-0.7,1.1-0.7,1.9v4.4h-0.9V282c0-0.8,0-1.5-0.1-2.1h0.9l0.1,1.4c0.2-0.5,0.6-0.9,1.1-1.2s1-0.4,1.6-0.4
				C119,279.6,119.9,280.6,119.9,282.6z"/>
			<path class="st8" d="M129,279.8v7.7h-0.9V286c-0.2,0.5-0.6,0.9-1,1.2c-0.5,0.3-1,0.4-1.6,0.4c-0.7,0-1.3-0.2-1.8-0.5
				s-0.9-0.8-1.2-1.4c-0.3-0.6-0.4-1.3-0.4-2.1s0.1-1.5,0.4-2.1c0.3-0.6,0.7-1.1,1.2-1.4c0.5-0.3,1.1-0.5,1.8-0.5
				c0.6,0,1.2,0.1,1.6,0.4s0.8,0.7,1,1.2v-1.4H129z M127.4,285.9c0.4-0.6,0.7-1.3,0.7-2.3c0-1-0.2-1.8-0.7-2.3
				c-0.4-0.6-1.1-0.8-1.9-0.8s-1.4,0.3-1.9,0.8s-0.7,1.4-0.7,2.4c0,1,0.2,1.8,0.7,2.3s1.1,0.8,1.9,0.8
				C126.3,286.8,127,286.5,127.4,285.9z"/>
			<path class="st8" d="M131.6,276.2h0.9v11.3h-0.9V276.2z"/>
			<path class="st8" d="M147.7,287.5h-1l-1.4-3.6c-0.2-0.5-0.4-0.8-0.7-1c-0.3-0.2-0.8-0.3-1.3-0.3h-3v4.9h-0.9v-10.9h4.2
				c1.1,0,2,0.3,2.6,0.8s0.9,1.3,0.9,2.2c0,0.7-0.2,1.3-0.6,1.8c-0.4,0.5-0.9,0.8-1.6,1c0.3,0.1,0.6,0.2,0.8,0.4
				c0.2,0.2,0.4,0.5,0.6,1L147.7,287.5z M143.4,281.8c1.8,0,2.7-0.7,2.7-2.2c0-1.4-0.9-2.2-2.7-2.2h-3.2v4.4H143.4z"/>
			<path class="st8" d="M150.3,283.5L150.3,283.5c0,1.1,0.2,1.9,0.7,2.4c0.5,0.5,1.2,0.8,2.1,0.8c0.9,0,1.8-0.3,2.5-0.9l0.4,0.7
				c-0.3,0.3-0.8,0.6-1.3,0.8c-0.5,0.2-1.1,0.3-1.6,0.3c-1.2,0-2.1-0.4-2.8-1.1c-0.7-0.7-1-1.7-1-2.9c0-0.8,0.2-1.5,0.5-2.1
				c0.3-0.6,0.7-1.1,1.3-1.4c0.5-0.3,1.2-0.5,1.9-0.5c1,0,1.8,0.3,2.4,1s0.8,1.6,0.8,2.7v0.2H150.3z M151.1,281
				c-0.4,0.4-0.7,1-0.8,1.8h4.9c-0.1-0.8-0.3-1.4-0.7-1.8c-0.4-0.4-0.9-0.6-1.6-0.6C152.2,280.4,151.6,280.6,151.1,281z"/>
			<path class="st8" d="M164.6,279.8l-3.3,7.7h-1l-3.2-7.7h1l2.8,6.7l2.8-6.7H164.6z"/>
			<path class="st8" d="M167.3,276.7v1.2h-1.2v-1.2H167.3z M166.2,279.8h0.9v7.7h-0.9V279.8z"/>
			<path class="st8" d="M170.3,283.5L170.3,283.5c0,1.1,0.2,1.9,0.7,2.4c0.5,0.5,1.2,0.8,2.1,0.8c0.9,0,1.8-0.3,2.5-0.9l0.4,0.7
				c-0.3,0.3-0.8,0.6-1.3,0.8c-0.5,0.2-1.1,0.3-1.6,0.3c-1.2,0-2.1-0.4-2.8-1.1c-0.7-0.7-1-1.7-1-2.9c0-0.8,0.2-1.5,0.5-2.1
				c0.3-0.6,0.7-1.1,1.3-1.4c0.5-0.3,1.2-0.5,1.9-0.5c1,0,1.8,0.3,2.4,1s0.8,1.6,0.8,2.7v0.2H170.3z M171.1,281
				c-0.4,0.4-0.7,1-0.8,1.8h4.9c-0.1-0.8-0.3-1.4-0.7-1.8c-0.4-0.4-0.9-0.6-1.6-0.6C172.2,280.4,171.6,280.6,171.1,281z"/>
			<path class="st8" d="M189.5,279.8l-2.8,7.7h-1l-2.3-6.5l-2.3,6.5h-1l-2.8-7.7h1l2.3,6.6l2.4-6.6h0.9l2.3,6.6l2.3-6.6H189.5z"/>
			<path class="st8" d="M196.1,286.9c-0.3-1.1-0.4-2.3-0.4-3.5c0-1.2,0.1-2.3,0.4-3.4c0.3-1.1,0.7-2.3,1.2-3.4h0.8
				c-0.5,1.2-0.9,2.4-1.2,3.5s-0.3,2.2-0.3,3.3s0.1,2.2,0.3,3.3c0.2,1.1,0.6,2.3,1.2,3.5h-0.8C196.8,289.1,196.4,288,196.1,286.9z"
				/>
			<path class="st8" d="M207.1,282.7c-0.4,1-1.1,1.5-2,1.5c-0.3,0-0.7-0.1-1-0.2c-0.3-0.1-0.7-0.3-1.1-0.5c-0.3-0.2-0.6-0.3-0.8-0.4
				c-0.2-0.1-0.4-0.1-0.6-0.1c-0.3,0-0.6,0.1-0.8,0.3c-0.2,0.2-0.4,0.4-0.5,0.8l-0.7-0.4c0.4-1,1.1-1.5,2-1.5c0.3,0,0.7,0.1,1,0.2
				c0.3,0.1,0.7,0.3,1.1,0.5c0.3,0.2,0.6,0.3,0.8,0.4s0.4,0.1,0.6,0.1c0.3,0,0.6-0.1,0.8-0.3c0.2-0.2,0.4-0.4,0.5-0.8L207.1,282.7z"
				/>
			<path class="st8" d="M216.6,285h-1.7v2.5H214V285h-5.2v-0.7l5.3-7.7h0.8v7.6h1.7V285z M214,284.2v-5.9l-4.1,5.9H214z"/>
			<path class="st8" d="M234,279.8l-2.8,7.7h-1l-2.3-6.5l-2.3,6.5h-1l-2.8-7.7h1l2.3,6.6l2.4-6.6h0.9l2.3,6.6l2.3-6.6H234z"/>
			<path class="st8" d="M236.2,283.5L236.2,283.5c0,1.1,0.2,1.9,0.7,2.4c0.5,0.5,1.2,0.8,2.1,0.8c0.9,0,1.8-0.3,2.5-0.9l0.4,0.7
				c-0.3,0.3-0.8,0.6-1.3,0.8c-0.5,0.2-1.1,0.3-1.6,0.3c-1.2,0-2.1-0.4-2.8-1.1c-0.7-0.7-1-1.7-1-2.9c0-0.8,0.2-1.5,0.5-2.1
				c0.3-0.6,0.7-1.1,1.3-1.4c0.5-0.3,1.2-0.5,1.9-0.5c1,0,1.8,0.3,2.4,1s0.8,1.6,0.8,2.7v0.2H236.2z M237.1,281
				c-0.4,0.4-0.7,1-0.8,1.8h4.9c-0.1-0.8-0.3-1.4-0.7-1.8c-0.4-0.4-0.9-0.6-1.6-0.6C238.1,280.4,237.6,280.6,237.1,281z"/>
			<path class="st8" d="M244.6,283.5L244.6,283.5c0,1.1,0.2,1.9,0.7,2.4c0.5,0.5,1.2,0.8,2.1,0.8c0.9,0,1.8-0.3,2.5-0.9l0.4,0.7
				c-0.3,0.3-0.8,0.6-1.3,0.8c-0.5,0.2-1.1,0.3-1.6,0.3c-1.2,0-2.1-0.4-2.8-1.1c-0.7-0.7-1-1.7-1-2.9c0-0.8,0.2-1.5,0.5-2.1
				c0.3-0.6,0.7-1.1,1.3-1.4c0.5-0.3,1.2-0.5,1.9-0.5c1,0,1.8,0.3,2.4,1s0.8,1.6,0.8,2.7v0.2H244.6z M245.5,281
				c-0.4,0.4-0.7,1-0.8,1.8h4.9c-0.1-0.8-0.3-1.4-0.7-1.8c-0.4-0.4-0.9-0.6-1.6-0.6C246.5,280.4,246,280.6,245.5,281z"/>
			<path class="st8" d="M257.7,287.5l-4.2-3.7v3.7h-0.9v-11.3h0.9v7.2l3.9-3.6h1.2l-4,3.7l4.4,4H257.7z"/>
			<path class="st8" d="M259.6,286.6l0.3-0.7c0.4,0.3,0.8,0.6,1.2,0.7c0.4,0.1,0.9,0.2,1.4,0.2c0.6,0,1.1-0.1,1.4-0.3
				c0.3-0.2,0.5-0.5,0.5-1c0-0.3-0.1-0.6-0.3-0.8c-0.2-0.2-0.6-0.4-1.1-0.5l-1.3-0.3c-0.6-0.1-1.1-0.4-1.4-0.8
				c-0.4-0.4-0.5-0.8-0.5-1.3c0-0.7,0.3-1.2,0.8-1.6c0.5-0.4,1.2-0.6,2.1-0.6c0.5,0,1,0.1,1.5,0.3c0.5,0.2,0.9,0.4,1.2,0.8l-0.4,0.7
				c-0.7-0.6-1.5-0.9-2.3-0.9c-0.6,0-1.1,0.1-1.4,0.4c-0.3,0.2-0.5,0.6-0.5,1c0,0.3,0.1,0.6,0.3,0.8c0.2,0.2,0.5,0.4,1,0.5l1.3,0.3
				c1.4,0.3,2.1,1,2.1,2c0,0.6-0.3,1.2-0.8,1.6c-0.5,0.4-1.2,0.6-2.1,0.6C261.3,287.6,260.4,287.3,259.6,286.6z"/>
			<path class="st8" d="M267,290.3c0.5-1.2,0.9-2.4,1.1-3.5c0.2-1.1,0.3-2.2,0.3-3.3c0-1.1-0.1-2.2-0.3-3.3
				c-0.2-1.1-0.6-2.3-1.2-3.5h0.8c0.6,1.1,1,2.3,1.2,3.4c0.3,1.1,0.4,2.3,0.4,3.4c0,1.2-0.1,2.4-0.4,3.5c-0.3,1.1-0.7,2.3-1.3,3.4
				H267z"/>
			<g>
				<path class="st1" d="M74,314.5c-0.4-0.2-0.8-0.6-1-1c-0.3-0.4-0.4-0.9-0.4-1.4c0-0.5,0.1-0.9,0.4-1.3c0.2-0.4,0.6-0.8,1-1
					c0.4-0.3,0.9-0.4,1.4-0.4c0.5,0,0.9,0.1,1.4,0.4s0.8,0.6,1,1c0.3,0.4,0.4,0.9,0.4,1.4c0,0.5-0.1,1-0.4,1.4s-0.6,0.8-1,1
					c-0.4,0.2-0.9,0.4-1.4,0.4C74.9,314.8,74.5,314.7,74,314.5z"/>
				<path class="st1" d="M75.4,315c-0.5,0-1-0.1-1.5-0.4c-0.4-0.2-0.8-0.6-1.1-1s-0.4-0.9-0.4-1.5c0-0.5,0.1-1,0.4-1.4
					s0.6-0.8,1.1-1.1c0.4-0.3,0.9-0.4,1.5-0.4c0.5,0,1,0.1,1.4,0.4c0.4,0.2,0.8,0.6,1.1,1c0.3,0.4,0.4,0.9,0.4,1.5
					c0,0.5-0.1,1-0.4,1.4c-0.3,0.4-0.6,0.8-1.1,1C76.4,314.8,76,315,75.4,315z M75.4,309.5c-0.5,0-1,0.1-1.4,0.4
					c-0.4,0.2-0.7,0.6-1,1c-0.2,0.4-0.4,0.8-0.4,1.3c0,0.5,0.1,0.9,0.4,1.3c0.2,0.4,0.6,0.7,1,1h0c0.8,0.5,1.8,0.5,2.7,0
					c0.4-0.2,0.7-0.6,1-1c0.2-0.4,0.4-0.8,0.4-1.3c0-0.5-0.1-0.9-0.4-1.3c-0.2-0.4-0.6-0.7-1-0.9C76.3,309.6,75.9,309.5,75.4,309.5z
					"/>
			</g>
			<path class="st8" d="M100,318.1c0.5,0.1,0.8,0.1,1.1,0.1c0.5,0,0.9-0.2,1.1-0.5c0.2-0.3,0.3-0.8,0.3-1.6v-10.9h0.9v10.9
				c0,1-0.2,1.7-0.5,2.2c-0.4,0.4-0.9,0.7-1.7,0.7c-0.3,0-0.8,0-1.2-0.1V318.1z"/>
			<path class="st8" d="M113.5,313.3h-5.9l-1.3,2.9h-1l4.7-10.9h0.9l4.7,10.9h-1L113.5,313.3z M113.1,312.5l-2.6-6l-2.6,6H113.1z"/>
			<path class="st8" d="M125,311.5c0.3,0.5,0.5,1,0.5,1.7c0,0.9-0.3,1.7-0.9,2.2c-0.6,0.5-1.5,0.8-2.6,0.8h-4.4v-10.9h4.2
				c1.1,0,2,0.2,2.6,0.7c0.6,0.5,0.9,1.2,0.9,2.1c0,0.6-0.2,1.1-0.5,1.5s-0.7,0.7-1.3,0.9C124.2,310.8,124.7,311.1,125,311.5z
				 M118.5,310.3h3.1c0.9,0,1.5-0.2,2-0.5s0.7-0.9,0.7-1.6c0-1.4-0.9-2-2.7-2h-3.1V310.3z M123.9,314.9c0.4-0.3,0.7-0.9,0.7-1.6
				c0-1.5-0.9-2.2-2.7-2.2h-3.4v4.3h3.4C122.8,315.4,123.5,315.2,123.9,314.9z"/>
			<path class="st8" d="M132,305.3h4.2c1.1,0,2,0.3,2.6,0.8c0.6,0.5,0.9,1.3,0.9,2.2c0,0.9-0.3,1.7-0.9,2.2s-1.5,0.8-2.6,0.8H133
				v4.9H132V305.3z M136.1,310.5c0.9,0,1.5-0.2,1.9-0.6c0.4-0.4,0.7-0.9,0.7-1.6c0-0.7-0.2-1.2-0.7-1.6c-0.4-0.4-1.1-0.6-1.9-0.6
				H133v4.4H136.1z"/>
			<path class="st8" d="M141.2,311.7h4.2v0.8h-4.2V311.7z"/>
			<path class="st8" d="M154.9,313.3h-5.9l-1.3,2.9h-1l4.7-10.9h0.9l4.7,10.9h-1L154.9,313.3z M154.6,312.5l-2.6-6l-2.6,6H154.6z"/>
			<path class="st8" d="M160.5,306.1h-3.9v-0.8h8.8v0.8h-3.9v10.1h-0.9V306.1z"/>
			<path class="st8" d="M168.2,315.7c-0.7-0.4-1.3-1.1-1.7-1.9c-0.4-0.8-0.6-1.8-0.6-3c0-1.1,0.2-2.1,0.6-3c0.4-0.8,0.9-1.5,1.7-1.9
				c0.7-0.4,1.6-0.7,2.6-0.7c1,0,1.9,0.2,2.6,0.7c0.7,0.5,1.3,1.1,1.7,1.9c0.4,0.8,0.6,1.8,0.6,3s-0.2,2.1-0.6,3
				c-0.4,0.8-1,1.5-1.7,1.9c-0.7,0.5-1.6,0.7-2.6,0.7C169.8,316.3,168.9,316.1,168.2,315.7z M173.6,314.2c0.7-0.8,1-2,1-3.5
				s-0.3-2.7-1-3.5c-0.7-0.8-1.6-1.2-2.9-1.2c-1.2,0-2.2,0.4-2.9,1.2c-0.7,0.8-1,2-1,3.5s0.3,2.7,1,3.5c0.7,0.8,1.6,1.2,2.9,1.2
				C172,315.5,172.9,315.1,173.6,314.2z"/>
			<path class="st8" d="M182.1,305.3h0.9v10.9h-0.9V305.3z"/>
			<path class="st8" d="M185.3,315.3l0.3-0.7c0.4,0.3,0.8,0.6,1.2,0.7c0.4,0.1,0.9,0.2,1.4,0.2c0.6,0,1.1-0.1,1.4-0.3
				c0.3-0.2,0.5-0.5,0.5-1c0-0.3-0.1-0.6-0.3-0.8c-0.2-0.2-0.6-0.4-1.1-0.5l-1.3-0.3c-0.6-0.1-1.1-0.4-1.4-0.8
				c-0.4-0.4-0.5-0.8-0.5-1.3c0-0.7,0.3-1.2,0.8-1.6c0.5-0.4,1.2-0.6,2.1-0.6c0.5,0,1,0.1,1.5,0.3c0.5,0.2,0.9,0.4,1.2,0.8l-0.4,0.7
				c-0.7-0.6-1.5-0.9-2.3-0.9c-0.6,0-1.1,0.1-1.4,0.4c-0.3,0.2-0.5,0.6-0.5,1c0,0.3,0.1,0.6,0.3,0.8c0.2,0.2,0.5,0.4,1,0.5l1.3,0.3
				c1.4,0.3,2.1,1,2.1,2c0,0.6-0.3,1.2-0.8,1.6c-0.5,0.4-1.2,0.6-2.1,0.6C187,316.3,186.1,316,185.3,315.3z"/>
			<path class="st8" d="M193,315.3l0.3-0.7c0.4,0.3,0.8,0.6,1.2,0.7c0.4,0.1,0.9,0.2,1.4,0.2c0.6,0,1.1-0.1,1.4-0.3
				c0.3-0.2,0.5-0.5,0.5-1c0-0.3-0.1-0.6-0.3-0.8c-0.2-0.2-0.6-0.4-1.1-0.5l-1.3-0.3c-0.6-0.1-1.1-0.4-1.4-0.8
				c-0.4-0.4-0.5-0.8-0.5-1.3c0-0.7,0.3-1.2,0.8-1.6c0.5-0.4,1.2-0.6,2.1-0.6c0.5,0,1,0.1,1.5,0.3c0.5,0.2,0.9,0.4,1.2,0.8l-0.4,0.7
				c-0.7-0.6-1.5-0.9-2.3-0.9c-0.6,0-1.1,0.1-1.4,0.4c-0.3,0.2-0.5,0.6-0.5,1c0,0.3,0.1,0.6,0.3,0.8c0.2,0.2,0.5,0.4,1,0.5l1.3,0.3
				c1.4,0.3,2.1,1,2.1,2c0,0.6-0.3,1.2-0.8,1.6c-0.5,0.4-1.2,0.6-2.1,0.6C194.7,316.3,193.7,316,193,315.3z"/>
			<path class="st8" d="M207.2,308.5v7.7h-0.9v-1.4c-0.2,0.5-0.6,0.9-1,1.1c-0.5,0.3-1,0.4-1.5,0.4c-0.9,0-1.6-0.2-2-0.8
				c-0.5-0.5-0.7-1.2-0.7-2.2v-4.8h0.9v4.7c0,0.8,0.2,1.3,0.5,1.7c0.3,0.4,0.8,0.5,1.4,0.5c0.8,0,1.4-0.2,1.8-0.7
				c0.4-0.5,0.7-1.1,0.7-1.9v-4.3H207.2z"/>
			<path class="st8" d="M210.3,312.3L210.3,312.3c0,1.1,0.2,1.9,0.7,2.4c0.5,0.5,1.2,0.8,2.1,0.8c0.9,0,1.8-0.3,2.5-0.9l0.4,0.7
				c-0.3,0.3-0.8,0.6-1.3,0.8c-0.5,0.2-1.1,0.3-1.6,0.3c-1.2,0-2.1-0.4-2.8-1.1c-0.7-0.7-1-1.7-1-2.9c0-0.8,0.2-1.5,0.5-2.1
				c0.3-0.6,0.7-1.1,1.3-1.4c0.5-0.3,1.2-0.5,1.9-0.5c1,0,1.8,0.3,2.4,1s0.8,1.6,0.8,2.7v0.2H210.3z M211.2,309.8
				c-0.4,0.4-0.7,1-0.8,1.8h4.9c-0.1-0.8-0.3-1.4-0.7-1.8c-0.4-0.4-0.9-0.6-1.6-0.6C212.2,309.1,211.7,309.3,211.2,309.8z"/>
			<path class="st8" d="M224.8,304.9v11.3h-0.9v-1.5c-0.2,0.5-0.6,0.9-1,1.2c-0.5,0.3-1,0.4-1.6,0.4c-0.7,0-1.3-0.2-1.8-0.5
				c-0.5-0.3-0.9-0.8-1.2-1.4c-0.3-0.6-0.4-1.3-0.4-2.1c0-0.8,0.1-1.5,0.4-2.1c0.3-0.6,0.7-1.1,1.2-1.4c0.5-0.3,1.1-0.5,1.8-0.5
				c0.6,0,1.2,0.1,1.6,0.4s0.8,0.7,1,1.2v-5H224.8z M223.2,314.7c0.4-0.6,0.7-1.3,0.7-2.3c0-1-0.2-1.8-0.7-2.3
				c-0.4-0.6-1.1-0.8-1.9-0.8c-0.8,0-1.5,0.3-1.9,0.8c-0.4,0.6-0.7,1.3-0.7,2.3c0,1,0.2,1.8,0.7,2.3s1.1,0.8,1.9,0.8
				S222.7,315.2,223.2,314.7z"/>
			<path class="st8" d="M101.5,334h6.6v0.8h-5.6v4.1h5.3v0.8h-5.3v5.1h-0.9V334z"/>
			<path class="st8" d="M110.3,341L110.3,341c0,1.1,0.2,1.9,0.7,2.4c0.5,0.5,1.2,0.8,2.1,0.8c0.9,0,1.8-0.3,2.5-0.9l0.4,0.7
				c-0.3,0.3-0.8,0.6-1.3,0.8c-0.5,0.2-1.1,0.3-1.6,0.3c-1.2,0-2.1-0.4-2.8-1.1c-0.7-0.7-1-1.7-1-2.9c0-0.8,0.2-1.5,0.5-2.1
				c0.3-0.6,0.7-1.1,1.3-1.4c0.5-0.3,1.2-0.5,1.9-0.5c1,0,1.8,0.3,2.4,1s0.8,1.6,0.8,2.7v0.2H110.3z M111.2,338.5
				c-0.4,0.4-0.7,1-0.8,1.8h4.9c-0.1-0.8-0.3-1.4-0.7-1.8c-0.4-0.4-0.9-0.6-1.6-0.6C112.2,337.8,111.6,338,111.2,338.5z"/>
			<path class="st8" d="M124.7,333.7v11.3h-0.9v-1.5c-0.2,0.5-0.6,0.9-1,1.2c-0.5,0.3-1,0.4-1.6,0.4c-0.7,0-1.3-0.2-1.8-0.5
				c-0.5-0.3-0.9-0.8-1.2-1.4c-0.3-0.6-0.4-1.3-0.4-2.1c0-0.8,0.1-1.5,0.4-2.1c0.3-0.6,0.7-1.1,1.2-1.4c0.5-0.3,1.1-0.5,1.8-0.5
				c0.6,0,1.2,0.1,1.6,0.4s0.8,0.7,1,1.2v-5H124.7z M123.1,343.4c0.4-0.6,0.7-1.3,0.7-2.3c0-1-0.2-1.8-0.7-2.3
				c-0.4-0.6-1.1-0.8-1.9-0.8c-0.8,0-1.5,0.3-1.9,0.8c-0.4,0.6-0.7,1.3-0.7,2.3c0,1,0.2,1.8,0.7,2.3s1.1,0.8,1.9,0.8
				S122.7,343.9,123.1,343.4z"/>
			<path class="st8" d="M135.9,344.9h-1l-1.4-3.6c-0.2-0.5-0.4-0.8-0.7-1c-0.3-0.2-0.8-0.3-1.3-0.3h-3v4.9h-0.9V334h4.2
				c1.1,0,2,0.3,2.6,0.8s0.9,1.3,0.9,2.2c0,0.7-0.2,1.3-0.6,1.8c-0.4,0.5-0.9,0.8-1.6,1c0.3,0.1,0.6,0.2,0.8,0.4
				c0.2,0.2,0.4,0.5,0.6,1L135.9,344.9z M131.6,339.2c1.8,0,2.7-0.7,2.7-2.2c0-1.4-0.9-2.2-2.7-2.2h-3.2v4.4H131.6z"/>
			<path class="st8" d="M145.1,342h-5.9l-1.3,2.9h-1l4.7-10.9h0.9l4.7,10.9h-1L145.1,342z M144.8,341.2l-2.6-6l-2.6,6H144.8z"/>
			<path class="st8" d="M159.4,334v10.9h-0.9v-8.7l-3.8,8.7H154l-3.9-8.7l0,8.7h-0.9V334h0.8l4.3,9.8l4.3-9.8H159.4z"/>
			<path class="st8" d="M162.3,334h4.2c1.1,0,2,0.3,2.6,0.8c0.6,0.5,0.9,1.3,0.9,2.2c0,0.9-0.3,1.7-0.9,2.2s-1.5,0.8-2.6,0.8h-3.2
				v4.9h-0.9V334z M166.4,339.2c0.9,0,1.5-0.2,1.9-0.6c0.4-0.4,0.7-0.9,0.7-1.6c0-0.7-0.2-1.2-0.7-1.6c-0.4-0.4-1.1-0.6-1.9-0.6
				h-3.2v4.4H166.4z"/>
			<path class="st8" d="M186.4,334v10.9h-0.9v-8.7l-3.8,8.7H181l-3.9-8.7l0,8.7h-0.9V334h0.8l4.3,9.8l4.3-9.8H186.4z"/>
			<path class="st8" d="M195.7,337.2v7.7h-0.9v-1.5c-0.2,0.5-0.6,0.9-1,1.2c-0.5,0.3-1,0.4-1.6,0.4c-0.7,0-1.3-0.2-1.8-0.5
				s-0.9-0.8-1.2-1.4c-0.3-0.6-0.4-1.3-0.4-2.1s0.1-1.5,0.4-2.1c0.3-0.6,0.7-1.1,1.2-1.4c0.5-0.3,1.1-0.5,1.8-0.5
				c0.6,0,1.2,0.1,1.6,0.4s0.8,0.7,1,1.2v-1.4H195.7z M194.1,343.4c0.4-0.6,0.7-1.3,0.7-2.3c0-1-0.2-1.8-0.7-2.3
				c-0.4-0.6-1.1-0.8-1.9-0.8s-1.4,0.3-1.9,0.8s-0.7,1.4-0.7,2.4c0,1,0.2,1.8,0.7,2.3s1.1,0.8,1.9,0.8
				C193,344.2,193.6,343.9,194.1,343.4z"/>
			<path class="st8" d="M202.3,337.1l0,0.8c-0.2,0-0.4-0.1-0.7-0.1c-0.8,0-1.4,0.2-1.7,0.7c-0.4,0.5-0.6,1.1-0.6,1.8v4.5h-0.9v-5.5
				c0-0.8,0-1.5-0.1-2.1h0.9l0.1,1.4c0.2-0.5,0.5-0.9,0.9-1.2c0.4-0.3,0.9-0.4,1.5-0.4C201.8,337.1,202.1,337.1,202.3,337.1z"/>
			<path class="st8" d="M208.8,344.9l-4.2-3.7v3.7h-0.9v-11.3h0.9v7.2l3.9-3.6h1.2l-4,3.7l4.4,4H208.8z"/>
			<path class="st8" d="M211.7,341L211.7,341c0,1.1,0.2,1.9,0.7,2.4c0.5,0.5,1.2,0.8,2.1,0.8c0.9,0,1.8-0.3,2.5-0.9l0.4,0.7
				c-0.3,0.3-0.8,0.6-1.3,0.8c-0.5,0.2-1.1,0.3-1.6,0.3c-1.2,0-2.1-0.4-2.8-1.1c-0.7-0.7-1-1.7-1-2.9c0-0.8,0.2-1.5,0.5-2.1
				c0.3-0.6,0.7-1.1,1.3-1.4c0.5-0.3,1.2-0.5,1.9-0.5c1,0,1.8,0.3,2.4,1s0.8,1.6,0.8,2.7v0.2H211.7z M212.6,338.5
				c-0.4,0.4-0.7,1-0.8,1.8h4.9c-0.1-0.8-0.3-1.4-0.7-1.8c-0.4-0.4-0.9-0.6-1.6-0.6C213.6,337.8,213.1,338,212.6,338.5z"/>
			<path class="st8" d="M220.9,338v4.6c0,0.6,0.1,1,0.4,1.3c0.2,0.2,0.6,0.4,1,0.4c0.3,0,0.6,0,0.8-0.1v0.8c-0.3,0.1-0.7,0.1-1,0.1
				c-0.7,0-1.2-0.2-1.6-0.6s-0.6-0.9-0.6-1.7V338h-1.5v-0.8h1.5v-2l0.9-0.4v2.4h2.3v0.8H220.9z"/>
			<path class="st8" d="M230.2,337.6c0.5,0.3,0.9,0.8,1.2,1.4c0.3,0.6,0.4,1.3,0.4,2.1s-0.1,1.5-0.4,2.1c-0.3,0.6-0.7,1.1-1.2,1.4
				c-0.5,0.3-1.1,0.5-1.8,0.5c-0.6,0-1.2-0.1-1.6-0.4c-0.5-0.3-0.8-0.7-1-1.2v4.8h-0.9v-8.9c0-0.8,0-1.5-0.1-2.1h0.9l0.1,1.5
				c0.2-0.5,0.6-1,1-1.2c0.5-0.3,1-0.4,1.7-0.4C229.1,337.1,229.7,337.2,230.2,337.6z M230.2,343.4c0.4-0.5,0.7-1.3,0.7-2.3
				c0-1-0.2-1.8-0.7-2.4s-1.1-0.8-1.9-0.8c-0.8,0-1.4,0.3-1.9,0.8c-0.4,0.6-0.7,1.3-0.7,2.3c0,1,0.2,1.8,0.7,2.3
				c0.4,0.6,1.1,0.8,1.9,0.8C229.1,344.2,229.8,343.9,230.2,343.4z"/>
			<path class="st8" d="M234,333.7h0.9v11.3H234V333.7z"/>
			<path class="st8" d="M244.1,337.2v7.7h-0.9v-1.5c-0.2,0.5-0.6,0.9-1,1.2c-0.5,0.3-1,0.4-1.6,0.4c-0.7,0-1.3-0.2-1.8-0.5
				s-0.9-0.8-1.2-1.4c-0.3-0.6-0.4-1.3-0.4-2.1s0.1-1.5,0.4-2.1c0.3-0.6,0.7-1.1,1.2-1.4c0.5-0.3,1.1-0.5,1.8-0.5
				c0.6,0,1.2,0.1,1.6,0.4s0.8,0.7,1,1.2v-1.4H244.1z M242.5,343.4c0.4-0.6,0.7-1.3,0.7-2.3c0-1-0.2-1.8-0.7-2.3
				c-0.4-0.6-1.1-0.8-1.9-0.8s-1.4,0.3-1.9,0.8s-0.7,1.4-0.7,2.4c0,1,0.2,1.8,0.7,2.3s1.1,0.8,1.9,0.8
				C241.4,344.2,242,343.9,242.5,343.4z"/>
			<path class="st8" d="M247.9,344.5c-0.5-0.3-1-0.8-1.3-1.4c-0.3-0.6-0.4-1.3-0.4-2.1c0-0.8,0.1-1.5,0.4-2.1
				c0.3-0.6,0.7-1.1,1.3-1.4c0.6-0.3,1.2-0.5,1.9-0.5c0.5,0,1,0.1,1.5,0.3s0.9,0.4,1.2,0.7l-0.4,0.7c-0.4-0.3-0.8-0.6-1.1-0.7
				c-0.4-0.1-0.7-0.2-1.1-0.2c-0.8,0-1.5,0.3-2,0.8c-0.5,0.6-0.7,1.4-0.7,2.4c0,1,0.2,1.7,0.7,2.3c0.5,0.6,1.1,0.8,2,0.8
				c0.4,0,0.8-0.1,1.1-0.2c0.4-0.1,0.7-0.4,1.1-0.7l0.4,0.7c-0.3,0.3-0.7,0.6-1.2,0.8c-0.5,0.2-1,0.3-1.5,0.3
				C249.1,345,248.4,344.9,247.9,344.5z"/>
			<path class="st8" d="M254.7,341L254.7,341c0,1.1,0.2,1.9,0.7,2.4c0.5,0.5,1.2,0.8,2.1,0.8c0.9,0,1.8-0.3,2.5-0.9l0.4,0.7
				c-0.3,0.3-0.8,0.6-1.3,0.8c-0.5,0.2-1.1,0.3-1.6,0.3c-1.2,0-2.1-0.4-2.8-1.1c-0.7-0.7-1-1.7-1-2.9c0-0.8,0.2-1.5,0.5-2.1
				c0.3-0.6,0.7-1.1,1.3-1.4c0.5-0.3,1.2-0.5,1.9-0.5c1,0,1.8,0.3,2.4,1s0.8,1.6,0.8,2.7v0.2H254.7z M255.6,338.5
				c-0.4,0.4-0.7,1-0.8,1.8h4.9c-0.1-0.8-0.3-1.4-0.7-1.8c-0.4-0.4-0.9-0.6-1.6-0.6C256.6,337.8,256.1,338,255.6,338.5z"/>
			<path class="st8" d="M266.8,334h3.5c1.7,0,3.1,0.5,4,1.4s1.4,2.3,1.4,4c0,1.7-0.5,3.1-1.4,4c-0.9,0.9-2.3,1.4-4,1.4h-3.5V334z
				 M270.2,344.1c1.5,0,2.6-0.4,3.3-1.2c0.7-0.8,1.1-1.9,1.1-3.5c0-3.1-1.5-4.6-4.5-4.6h-2.5v9.2H270.2z"/>
			<path class="st8" d="M278.5,341L278.5,341c0,1.1,0.2,1.9,0.7,2.4c0.5,0.5,1.2,0.8,2.1,0.8c0.9,0,1.8-0.3,2.5-0.9l0.4,0.7
				c-0.3,0.3-0.8,0.6-1.3,0.8c-0.5,0.2-1.1,0.3-1.6,0.3c-1.2,0-2.1-0.4-2.8-1.1c-0.7-0.7-1-1.7-1-2.9c0-0.8,0.2-1.5,0.5-2.1
				c0.3-0.6,0.7-1.1,1.3-1.4c0.5-0.3,1.2-0.5,1.9-0.5c1,0,1.8,0.3,2.4,1s0.8,1.6,0.8,2.7v0.2H278.5z M279.4,338.5
				c-0.4,0.4-0.7,1-0.8,1.8h4.9c-0.1-0.8-0.3-1.4-0.7-1.8c-0.4-0.4-0.9-0.6-1.6-0.6C280.4,337.8,279.8,338,279.4,338.5z"/>
			<path class="st8" d="M286,344l0.3-0.7c0.4,0.3,0.8,0.6,1.2,0.7c0.4,0.1,0.9,0.2,1.4,0.2c0.6,0,1.1-0.1,1.4-0.3
				c0.3-0.2,0.5-0.5,0.5-1c0-0.3-0.1-0.6-0.3-0.8c-0.2-0.2-0.6-0.4-1.1-0.5l-1.3-0.3c-0.6-0.1-1.1-0.4-1.4-0.8
				c-0.4-0.4-0.5-0.8-0.5-1.3c0-0.7,0.3-1.2,0.8-1.6c0.5-0.4,1.2-0.6,2.1-0.6c0.5,0,1,0.1,1.5,0.3c0.5,0.2,0.9,0.4,1.2,0.8l-0.4,0.7
				c-0.7-0.6-1.5-0.9-2.3-0.9c-0.6,0-1.1,0.1-1.4,0.4c-0.3,0.2-0.5,0.6-0.5,1c0,0.3,0.1,0.6,0.3,0.8c0.2,0.2,0.5,0.4,1,0.5l1.3,0.3
				c1.4,0.3,2.1,1,2.1,2c0,0.6-0.3,1.2-0.8,1.6c-0.5,0.4-1.2,0.6-2.1,0.6C287.7,345,286.7,344.7,286,344z"/>
			<path class="st8" d="M295.2,334.1v1.2h-1.2v-1.2H295.2z M294.1,337.2h0.9v7.7h-0.9V337.2z"/>
			<path class="st8" d="M304.2,337.2v7.7c0,1.1-0.3,2-0.8,2.5c-0.6,0.6-1.4,0.9-2.4,0.9c-1.1,0-2.1-0.3-3-0.8l0.2-0.8
				c0.5,0.3,1,0.5,1.4,0.6c0.4,0.1,0.9,0.2,1.4,0.2c0.8,0,1.3-0.2,1.7-0.6c0.4-0.4,0.6-1,0.6-1.8v-2c-0.2,0.5-0.6,0.9-1,1.2
				c-0.5,0.3-1,0.4-1.7,0.4c-0.7,0-1.3-0.2-1.8-0.5s-0.9-0.8-1.2-1.3s-0.4-1.2-0.4-2c0-0.8,0.1-1.4,0.4-2c0.3-0.6,0.7-1,1.2-1.3
				s1.1-0.5,1.8-0.5c0.6,0,1.2,0.1,1.6,0.4c0.5,0.3,0.8,0.7,1,1.2v-1.4H304.2z M302.6,343.1c0.5-0.5,0.7-1.3,0.7-2.2
				c0-0.9-0.2-1.7-0.7-2.2s-1.1-0.8-1.9-0.8c-0.8,0-1.4,0.3-1.9,0.8s-0.7,1.3-0.7,2.2c0,0.9,0.2,1.7,0.7,2.2
				c0.5,0.5,1.1,0.8,1.9,0.8C301.5,343.8,302.1,343.6,302.6,343.1z"/>
			<path class="st8" d="M313.2,340v4.9h-0.9v-4.8c0-0.8-0.2-1.3-0.5-1.7c-0.3-0.4-0.8-0.5-1.5-0.5c-0.8,0-1.4,0.2-1.9,0.7
				c-0.5,0.5-0.7,1.1-0.7,1.9v4.4h-0.9v-5.5c0-0.8,0-1.5-0.1-2.1h0.9l0.1,1.4c0.2-0.5,0.6-0.9,1.1-1.2s1-0.4,1.6-0.4
				C312.2,337.1,313.2,338.1,313.2,340z"/>
			<path class="st8" d="M322.2,337.2v7.7h-0.9v-1.5c-0.2,0.5-0.6,0.9-1,1.2c-0.5,0.3-1,0.4-1.6,0.4c-0.7,0-1.3-0.2-1.8-0.5
				s-0.9-0.8-1.2-1.4c-0.3-0.6-0.4-1.3-0.4-2.1s0.1-1.5,0.4-2.1c0.3-0.6,0.7-1.1,1.2-1.4c0.5-0.3,1.1-0.5,1.8-0.5
				c0.6,0,1.2,0.1,1.6,0.4s0.8,0.7,1,1.2v-1.4H322.2z M320.7,343.4c0.4-0.6,0.7-1.3,0.7-2.3c0-1-0.2-1.8-0.7-2.3
				c-0.4-0.6-1.1-0.8-1.9-0.8s-1.4,0.3-1.9,0.8s-0.7,1.4-0.7,2.4c0,1,0.2,1.8,0.7,2.3s1.1,0.8,1.9,0.8
				C319.6,344.2,320.2,343.9,320.7,343.4z"/>
			<path class="st8" d="M326.2,338v4.6c0,0.6,0.1,1,0.4,1.3c0.2,0.2,0.6,0.4,1,0.4c0.3,0,0.6,0,0.8-0.1v0.8c-0.3,0.1-0.7,0.1-1,0.1
				c-0.7,0-1.2-0.2-1.6-0.6s-0.6-0.9-0.6-1.7V338h-1.5v-0.8h1.5v-2l0.9-0.4v2.4h2.3v0.8H326.2z"/>
			<path class="st8" d="M331.2,334.1v1.2H330v-1.2H331.2z M330.1,337.2h0.9v7.7h-0.9V337.2z"/>
			<path class="st8" d="M334.9,344.5c-0.5-0.3-0.9-0.8-1.2-1.4s-0.4-1.3-0.4-2.1c0-0.8,0.1-1.5,0.4-2.1c0.3-0.6,0.7-1.1,1.2-1.4
				c0.5-0.3,1.2-0.5,1.9-0.5c0.7,0,1.3,0.2,1.8,0.5c0.5,0.3,0.9,0.8,1.2,1.4c0.3,0.6,0.4,1.3,0.4,2.1c0,0.8-0.1,1.5-0.4,2.1
				s-0.7,1.1-1.2,1.4c-0.5,0.3-1.1,0.5-1.8,0.5C336,345,335.4,344.9,334.9,344.5z M338.6,343.4c0.4-0.5,0.7-1.3,0.7-2.3
				c0-1-0.2-1.8-0.7-2.3c-0.4-0.6-1.1-0.8-1.9-0.8c-0.8,0-1.4,0.3-1.9,0.8c-0.4,0.6-0.7,1.3-0.7,2.3c0,1,0.2,1.8,0.7,2.3
				c0.4,0.5,1.1,0.8,1.9,0.8C337.5,344.2,338.1,343.9,338.6,343.4z"/>
			<path class="st8" d="M348.7,340v4.9h-0.9v-4.8c0-0.8-0.2-1.3-0.5-1.7c-0.3-0.4-0.8-0.5-1.5-0.5c-0.8,0-1.4,0.2-1.9,0.7
				c-0.5,0.5-0.7,1.1-0.7,1.9v4.4h-0.9v-5.5c0-0.8,0-1.5-0.1-2.1h0.9l0.1,1.4c0.2-0.5,0.6-0.9,1.1-1.2s1-0.4,1.6-0.4
				C347.8,337.1,348.7,338.1,348.7,340z"/>
			<path class="st8" d="M101.2,359.5h4.2v0.8h-4.2V359.5z"/>
			<path class="st8" d="M119.2,361.2h-5.9l-1.3,2.9h-1l4.7-10.9h0.9l4.7,10.9h-1L119.2,361.2z M118.8,360.3l-2.6-6l-2.6,6H118.8z"/>
			<path class="st8" d="M129.3,356.4v7.7h-0.9v-1.4c-0.2,0.5-0.6,0.9-1,1.1c-0.5,0.3-1,0.4-1.5,0.4c-0.9,0-1.6-0.2-2-0.8
				c-0.5-0.5-0.7-1.2-0.7-2.2v-4.8h0.9v4.7c0,0.8,0.2,1.3,0.5,1.7c0.3,0.4,0.8,0.5,1.4,0.5c0.8,0,1.4-0.2,1.8-0.7
				c0.4-0.5,0.7-1.1,0.7-1.9v-4.3H129.3z"/>
			<path class="st8" d="M133.2,357.1v4.6c0,0.6,0.1,1,0.4,1.3c0.2,0.2,0.6,0.4,1,0.4c0.3,0,0.6,0,0.8-0.1v0.8
				c-0.3,0.1-0.7,0.1-1,0.1c-0.7,0-1.2-0.2-1.6-0.6s-0.6-0.9-0.6-1.7v-4.7h-1.5v-0.8h1.5v-2l0.9-0.4v2.4h2.3v0.8H133.2z"/>
			<path class="st8" d="M143.5,359.2v4.9h-0.9v-4.8c0-0.8-0.2-1.3-0.5-1.7c-0.3-0.4-0.8-0.5-1.5-0.5c-0.8,0-1.4,0.2-1.9,0.7
				c-0.5,0.5-0.7,1.1-0.7,1.9v4.4h-0.9v-11.3h0.9v4.9c0.2-0.5,0.6-0.9,1.1-1.1c0.5-0.3,1-0.4,1.6-0.4
				C142.6,356.2,143.5,357.2,143.5,359.2z"/>
			<path class="st8" d="M147.3,363.7c-0.5-0.3-0.9-0.8-1.2-1.4s-0.4-1.3-0.4-2.1c0-0.8,0.1-1.5,0.4-2.1c0.3-0.6,0.7-1.1,1.2-1.4
				c0.5-0.3,1.2-0.5,1.9-0.5c0.7,0,1.3,0.2,1.8,0.5c0.5,0.3,0.9,0.8,1.2,1.4c0.3,0.6,0.4,1.3,0.4,2.1c0,0.8-0.1,1.5-0.4,2.1
				s-0.7,1.1-1.2,1.4c-0.5,0.3-1.1,0.5-1.8,0.5C148.4,364.2,147.8,364,147.3,363.7z M151,362.5c0.4-0.5,0.7-1.3,0.7-2.3
				c0-1-0.2-1.8-0.7-2.3c-0.4-0.6-1.1-0.8-1.9-0.8c-0.8,0-1.4,0.3-1.9,0.8c-0.4,0.6-0.7,1.3-0.7,2.3c0,1,0.2,1.8,0.7,2.3
				c0.4,0.5,1.1,0.8,1.9,0.8C149.9,363.3,150.6,363.1,151,362.5z"/>
			<path class="st8" d="M158.7,356.3l0,0.8c-0.2,0-0.4-0.1-0.7-0.1c-0.8,0-1.4,0.2-1.7,0.7c-0.4,0.5-0.6,1.1-0.6,1.8v4.5h-0.9v-5.5
				c0-0.8,0-1.5-0.1-2.1h0.9l0.1,1.4c0.2-0.5,0.5-0.9,0.9-1.2c0.4-0.3,0.9-0.4,1.5-0.4C158.3,356.2,158.6,356.2,158.7,356.3z"/>
			<path class="st8" d="M161.3,353.2v1.2H160v-1.2H161.3z M160.2,356.4h0.9v7.7h-0.9V356.4z"/>
			<path class="st8" d="M169.7,363.3v0.8h-6.4v-0.6l5.1-6.3h-4.9v-0.8h6v0.7l-5,6.2H169.7z"/>
			<path class="st8" d="M172.1,360.1L172.1,360.1c0,1.1,0.2,1.9,0.7,2.4c0.5,0.5,1.2,0.8,2.1,0.8c0.9,0,1.8-0.3,2.5-0.9l0.4,0.7
				c-0.3,0.3-0.8,0.6-1.3,0.8c-0.5,0.2-1.1,0.3-1.6,0.3c-1.2,0-2.1-0.4-2.8-1.1c-0.7-0.7-1-1.7-1-2.9c0-0.8,0.2-1.5,0.5-2.1
				c0.3-0.6,0.7-1.1,1.3-1.4c0.5-0.3,1.2-0.5,1.9-0.5c1,0,1.8,0.3,2.4,1s0.8,1.6,0.8,2.7v0.2H172.1z M172.9,357.6
				c-0.4,0.4-0.7,1-0.8,1.8h4.9c-0.1-0.8-0.3-1.4-0.7-1.8c-0.4-0.4-0.9-0.6-1.6-0.6C174,357,173.4,357.2,172.9,357.6z"/>
			<path class="st8" d="M186.5,352.8v11.3h-0.9v-1.5c-0.2,0.5-0.6,0.9-1,1.2c-0.5,0.3-1,0.4-1.6,0.4c-0.7,0-1.3-0.2-1.8-0.5
				c-0.5-0.3-0.9-0.8-1.2-1.4c-0.3-0.6-0.4-1.3-0.4-2.1c0-0.8,0.1-1.5,0.4-2.1c0.3-0.6,0.7-1.1,1.2-1.4c0.5-0.3,1.1-0.5,1.8-0.5
				c0.6,0,1.2,0.1,1.6,0.4s0.8,0.7,1,1.2v-5H186.5z M184.9,362.5c0.4-0.6,0.7-1.3,0.7-2.3c0-1-0.2-1.8-0.7-2.3
				c-0.4-0.6-1.1-0.8-1.9-0.8c-0.8,0-1.5,0.3-1.9,0.8c-0.4,0.6-0.7,1.3-0.7,2.3c0,1,0.2,1.8,0.7,2.3s1.1,0.8,1.9,0.8
				S184.4,363.1,184.9,362.5z"/>
		</g>
	</g>
	<g>
		<g>
			<path class="st1" d="M62.9,119.3l1-1.2c0.7,0.9,1.5,1.4,2.5,1.4c1.4,0,2.1-0.8,2.1-2.4v-6.8h-4.4v-1.5h6.1v8.2c0,2.7-1.3,4-3.8,4
				C64.9,121,63.6,120.4,62.9,119.3z"/>
			<path class="st1" d="M81.3,117.9h-6.4l-1.3,3h-1.8l5.5-12.1h1.7l5.5,12.1h-1.8L81.3,117.9z M80.7,116.5l-2.6-5.9l-2.6,5.9H80.7z"
				/>
			<path class="st1" d="M96.7,117.6c0,2.1-1.6,3.3-4.6,3.3h-5.8v-12.1h5.4c2.8,0,4.3,1.2,4.3,3.1c0,1.3-0.7,2.2-1.6,2.7
				C95.8,115,96.7,116,96.7,117.6z M88.1,110.2v3.9h3.5c1.8,0,2.8-0.7,2.8-1.9c0-1.3-1-1.9-2.8-1.9H88.1z M95,117.5c0-1.4-1-2-2.9-2
				h-4v4h4C94,119.5,95,118.9,95,117.5z"/>
			<path class="st1" d="M112.1,117.9h-6.4l-1.3,3h-1.8l5.5-12.1h1.7l5.5,12.1h-1.8L112.1,117.9z M111.5,116.5l-2.6-5.9l-2.6,5.9
				H111.5z"/>
			<path class="st1" d="M125.3,111.8v9.1h-1.6v-1.4c-0.7,0.9-1.8,1.5-3.1,1.5c-2.4,0-3.9-1.3-3.9-4v-5.3h1.7v5.1
				c0,1.8,0.9,2.7,2.5,2.7c1.7,0,2.8-1.1,2.8-3v-4.7H125.3z"/>
			<path class="st1" d="M133.7,120.4c-0.5,0.4-1.3,0.6-2,0.6c-1.8,0-2.9-1-2.9-2.9v-5h-1.5v-1.4h1.5v-2h1.7v2h2.6v1.4h-2.6v4.9
				c0,1,0.5,1.5,1.4,1.5c0.5,0,0.9-0.2,1.3-0.4L133.7,120.4z"/>
			<path class="st1" d="M144.5,115.6v5.3h-1.7v-5.1c0-1.8-0.9-2.7-2.5-2.7c-1.8,0-2.9,1.1-2.9,3v4.7h-1.7v-12.8h1.7v4.9
				c0.7-0.9,1.8-1.4,3.2-1.4C143,111.7,144.5,113,144.5,115.6z"/>
			<path class="st1" d="M147,116.3c0-2.7,2-4.7,4.8-4.7s4.7,1.9,4.7,4.7c0,2.7-2,4.7-4.7,4.7S147,119.1,147,116.3z M154.8,116.3
				c0-1.9-1.3-3.2-3.1-3.2c-1.8,0-3.1,1.3-3.1,3.2c0,1.9,1.3,3.2,3.1,3.2C153.5,119.6,154.8,118.3,154.8,116.3z"/>
			<path class="st1" d="M163.9,111.7v1.6c-0.1,0-0.3,0-0.4,0c-1.8,0-2.9,1.1-2.9,3.1v4.5H159v-9.1h1.6v1.5
				C161.1,112.2,162.3,111.7,163.9,111.7z"/>
			<path class="st1" d="M165.8,108.9c0-0.6,0.5-1.1,1.1-1.1s1.1,0.5,1.1,1.1c0,0.6-0.5,1.1-1.1,1.1
				C166.3,110,165.8,109.5,165.8,108.9z M166.1,111.8h1.7v9.1h-1.7V111.8z"/>
			<path class="st1" d="M177.8,119.5v1.4h-7.6v-1.1l5.4-6.7h-5.3v-1.4h7.4v1.1l-5.4,6.7H177.8z"/>
			<path class="st1" d="M187.4,115.4v5.5h-1.6v-1.2c-0.6,0.8-1.6,1.3-3,1.3c-2.1,0-3.4-1.1-3.4-2.7c0-1.5,0.9-2.7,3.7-2.7h2.6v-0.3
				c0-1.4-0.8-2.2-2.4-2.2c-1.1,0-2.2,0.4-2.9,1l-0.7-1.2c0.9-0.8,2.3-1.2,3.8-1.2C186,111.7,187.4,112.9,187.4,115.4z M185.8,118.1
				v-1.3h-2.5c-1.6,0-2.1,0.6-2.1,1.4c0,0.9,0.8,1.5,2,1.5C184.4,119.7,185.4,119.2,185.8,118.1z"/>
			<path class="st1" d="M195.8,120.4c-0.5,0.4-1.3,0.6-2,0.6c-1.8,0-2.9-1-2.9-2.9v-5h-1.5v-1.4h1.5v-2h1.7v2h2.6v1.4h-2.6v4.9
				c0,1,0.5,1.5,1.4,1.5c0.5,0,0.9-0.2,1.3-0.4L195.8,120.4z"/>
			<path class="st1" d="M197.7,108.9c0-0.6,0.5-1.1,1.1-1.1s1.1,0.5,1.1,1.1c0,0.6-0.5,1.1-1.1,1.1
				C198.2,110,197.7,109.5,197.7,108.9z M198,111.8h1.7v9.1H198V111.8z"/>
			<path class="st1" d="M202.1,116.3c0-2.7,2-4.7,4.8-4.7s4.7,1.9,4.7,4.7c0,2.7-2,4.7-4.7,4.7S202.1,119.1,202.1,116.3z
				 M209.9,116.3c0-1.9-1.3-3.2-3.1-3.2c-1.8,0-3.1,1.3-3.1,3.2c0,1.9,1.3,3.2,3.1,3.2C208.6,119.6,209.9,118.3,209.9,116.3z"/>
			<path class="st1" d="M222.7,115.6v5.3h-1.7v-5.1c0-1.8-0.9-2.7-2.5-2.7c-1.8,0-2.9,1.1-2.9,3v4.7h-1.7v-9.1h1.6v1.4
				c0.7-0.9,1.8-1.5,3.3-1.5C221.2,111.7,222.7,113,222.7,115.6z"/>
			<path class="st1" d="M240.7,113c0,2.6-1.9,4.2-5,4.2h-3v3.7H231v-12.1h4.7C238.9,108.8,240.7,110.4,240.7,113z M239,113
				c0-1.7-1.2-2.7-3.4-2.7h-2.9v5.4h2.9C237.9,115.7,239,114.8,239,113z"/>
			<path class="st1" d="M248,111.7v1.6c-0.1,0-0.3,0-0.4,0c-1.8,0-2.9,1.1-2.9,3.1v4.5h-1.7v-9.1h1.6v1.5
				C245.2,112.2,246.4,111.7,248,111.7z"/>
			<path class="st1" d="M249.2,116.3c0-2.7,2-4.7,4.8-4.7s4.7,1.9,4.7,4.7c0,2.7-2,4.7-4.7,4.7S249.2,119.1,249.2,116.3z
				 M257.1,116.3c0-1.9-1.3-3.2-3.1-3.2c-1.8,0-3.1,1.3-3.1,3.2c0,1.9,1.3,3.2,3.1,3.2C255.8,119.6,257.1,118.3,257.1,116.3z"/>
			<path class="st1" d="M260.4,116.3c0-2.7,2-4.7,4.8-4.7c1.6,0,3,0.7,3.7,1.9l-1.3,0.8c-0.6-0.9-1.5-1.3-2.5-1.3
				c-1.8,0-3.1,1.3-3.1,3.2c0,2,1.3,3.2,3.1,3.2c1,0,1.9-0.4,2.5-1.3l1.3,0.8c-0.7,1.3-2.1,2-3.7,2
				C262.4,121,260.4,119.1,260.4,116.3z"/>
			<path class="st1" d="M279.3,116.9h-7.4c0.2,1.6,1.5,2.7,3.3,2.7c1.1,0,2-0.4,2.6-1.1l0.9,1.1c-0.8,1-2.1,1.5-3.6,1.5
				c-2.9,0-4.9-1.9-4.9-4.7c0-2.7,1.9-4.7,4.6-4.7s4.5,1.9,4.5,4.7C279.3,116.5,279.3,116.7,279.3,116.9z M271.9,115.7h5.9
				c-0.2-1.5-1.3-2.6-2.9-2.6C273.2,113.1,272.1,114.1,271.9,115.7z"/>
			<path class="st1" d="M280.6,119.9l0.7-1.3c0.8,0.6,2,0.9,3.2,0.9c1.5,0,2.2-0.5,2.2-1.2c0-2-5.8-0.3-5.8-3.9
				c0-1.6,1.5-2.7,3.8-2.7c1.2,0,2.5,0.3,3.3,0.8l-0.7,1.3c-0.8-0.5-1.7-0.7-2.6-0.7c-1.4,0-2.2,0.5-2.2,1.3c0,2.2,5.8,0.4,5.8,3.9
				c0,1.7-1.5,2.7-3.9,2.7C282.9,121,281.4,120.5,280.6,119.9z"/>
			<path class="st1" d="M289.4,119.9l0.7-1.3c0.8,0.6,2,0.9,3.2,0.9c1.5,0,2.2-0.5,2.2-1.2c0-2-5.8-0.3-5.8-3.9
				c0-1.6,1.5-2.7,3.8-2.7c1.2,0,2.5,0.3,3.3,0.8l-0.7,1.3c-0.8-0.5-1.7-0.7-2.6-0.7c-1.4,0-2.2,0.5-2.2,1.3c0,2.2,5.8,0.4,5.8,3.9
				c0,1.7-1.5,2.7-3.9,2.7C291.7,121,290.2,120.5,289.4,119.9z"/>
		</g>
	</g>
	<rect x="74.7" y="196.9" class="st1" width="0.8" height="128.9"/>
	<rect x="74.7" y="147.6" class="st1" width="0.8" height="10.7"/>
	<g>
		<g id="g56755_1_" transform="matrix(14,0,0,14,49637.042,519374.88)">
			<path id="path56757_1_" class="st13" d="M-3539.3-37085.5c0,0.4-0.4,0.8-0.8,0.8l0,0c-0.5,0-0.8-0.4-0.8-0.8l0,0
				c0-0.5,0.4-0.8,0.8-0.8l0,0C-3539.7-37086.3-3539.3-37086-3539.3-37085.5L-3539.3-37085.5z"/>
		</g>
		<path id="path53460_1_" class="st14" d="M80.3,171.7c-3.3,1.6-5,4.8-6.6,7.8l-2.2-2.2c-1.1,0.8-2.3,1.5-3.4,2.1l9.2,9.2
			c5.1-1.2,8.9-5.6,9.2-10.8L80.3,171.7z"/>
		<path id="path38606_1_" class="st4" d="M71.5,177.3c0.7,0.9,1.2,2,1.7,3.2c1.7-3.3,3.4-7.1,7.1-8.8c-0.3,1.5-0.6,3.3-0.1,4.9
			c-3.1,1.5-5,4.3-6.9,7.3c-1.9-2.6-3.4-3.4-5.2-4.3C69.2,178.8,70.4,178.2,71.5,177.3L71.5,177.3z"/>
	</g>
	<g>
		<g id="g56755_3_" transform="matrix(14,0,0,14,49637.042,519374.88)">
			<path id="path56757_3_" class="st13" d="M-3539.3-37073.9c0,0.5-0.4,0.8-0.8,0.8l0,0c-0.5,0-0.8-0.4-0.8-0.8l0,0
				c0-0.4,0.4-0.8,0.8-0.8l0,0C-3539.7-37074.8-3539.3-37074.4-3539.3-37073.9L-3539.3-37073.9z"/>
		</g>
		<path id="path53460_3_" class="st14" d="M80.3,333.8c-3.3,1.6-5,4.8-6.6,7.8l-2.2-2.2c-1.1,0.8-2.3,1.5-3.4,2.1l9.2,9.2
			c5.1-1.2,8.9-5.6,9.2-10.8L80.3,333.8z"/>
		<path id="path38606_3_" class="st4" d="M71.5,339.4c0.7,0.9,1.2,2,1.7,3.2c1.7-3.3,3.4-7.1,7.1-8.8c-0.3,1.5-0.6,3.3-0.1,4.9
			c-3.1,1.5-5,4.3-6.9,7.3c-1.9-2.6-3.4-3.4-5.2-4.3C69.2,340.9,70.4,340.2,71.5,339.4L71.5,339.4z"/>
	</g>
</g>
</svg>
