<?xml version="1.0" encoding="utf-8"?>
<!-- Generator: Adobe Illustrator 25.2.3, SVG Export Plug-In . SVG Version: 6.00 Build 0)  -->
<svg version="1.1" id="Layer_1" xmlns="http://www.w3.org/2000/svg" xmlns:xlink="http://www.w3.org/1999/xlink" x="0px" y="0px"
	 viewBox="0 0 90 90" style="enable-background:new 0 0 90 90;" xml:space="preserve">
<style type="text/css">
	.st0{fill:#1A4480;}
	.st1{fill:#E5E5E5;}
	.st2{fill:#FFFFFF;}
	.st3{fill:#2798D8;}
	.st4{fill:#124A88;}
	.st5{opacity:0.5;fill:#DBDBDB;enable-background:new    ;}
</style>
<g id="Group_8242" transform="translate(-95.753 -7552.753)">
	<g id="Group_8241" transform="translate(95.438 7552.438)">
		<circle id="Ellipse_1293" class="st0" cx="45.3" cy="45.3" r="45"/>
		<g>
			<g id="Group_1687" transform="translate(1.966)">
				<g id="Group_1686">
					<g id="Group_1685">
						<g id="Group_1676" transform="translate(16.249)">
							<g id="Group_1675">
								<g id="Group_1674">
									<g id="Group_1673">
										<g id="Group_1672">
											<g id="Group_1671">
												<g id="Group_1670">
													<path id="Path_1564" class="st1" d="M35.9,20v9.1H45L35.9,20z"/>
												</g>
											</g>
										</g>
									</g>
								</g>
							</g>
						</g>
						<g id="Group_1684">
							<g id="Group_1683">
								<g id="Group_1682">
									<g id="Group_1681">
										<g id="Group_1680">
											<g id="Group_1679">
												<g id="Group_1678">
													<g id="Group_1677">
														<path id="Path_1565" class="st2" d="M52.1,29.1V20H24.9v47h36.3V29.1H52.1z"/>
													</g>
												</g>
											</g>
										</g>
									</g>
								</g>
							</g>
						</g>
					</g>
				</g>
			</g>
			<path id="Path_1566" class="st3" d="M65,35.4H24.8c-0.7,0-1.2,0.5-1.2,1.2l0,0v13.3H65c0.7,0,1.2-0.5,1.2-1.2V36.6
				C66.2,35.9,65.7,35.4,65,35.4z"/>
			<path id="Path_1567" class="st4" d="M23.6,49.9l3.3,3.3v-3.3H23.6z"/>
			<g id="Group_1688" transform="translate(15.098 19.066)">
				<path id="Path_1568" class="st5" d="M48.1,34.1c-4.6-2.6-10.5-1-13.1,3.6c-1.8,3.2-1.6,7.2,0.4,10.2h12.6L48.1,34.1z"/>
			</g>
			<ellipse id="Ellipse_197" class="st2" cx="58.5" cy="61.5" rx="7.7" ry="7.7"/>
			<path id="Path_1569" class="st3" d="M62.3,61.5h-1.8v-3.8c0-0.1-0.1-0.2-0.2-0.2l0,0h-3.8c-0.1,0-0.2,0.1-0.2,0.2v3.8h-1.8
				c-0.1,0-0.2,0.1-0.2,0.2c0,0.1,0,0.1,0.1,0.1l3.9,4.7c0.1,0.1,0.2,0.1,0.3,0c0,0,0,0,0,0l3.9-4.7c0.1-0.1,0.1-0.2,0-0.3
				C62.4,61.5,62.4,61.5,62.3,61.5z"/>
			<g id="Group_1689" transform="translate(4.938 10.708)">
				<path id="Path_1570" class="st2" d="M26.9,27.4h2.7c2.3-0.3,4.4,1.3,4.7,3.6c0,0.3,0.1,0.7,0,1c0.3,2.3-1.4,4.4-3.7,4.7
					c-0.3,0-0.6,0-0.9,0h-2.8V27.4z M29.5,34.9c1.5,0,2.6-0.7,2.6-2.9c0-2.2-1.1-2.8-2.6-2.8h-0.3v5.8H29.5z"/>
				<path id="Path_1571" class="st2" d="M36,32c0-3.1,1.7-4.8,4.3-4.8s4.3,1.8,4.3,4.8s-1.7,4.9-4.3,4.9S36,35.1,36,32z M42.3,32
					c0-1.8-0.8-2.9-2-2.9c-1.2,0-2,1.1-2,2.9c0,1.8,0.8,3,2,3C41.5,35,42.3,33.8,42.3,32z"/>
				<path id="Path_1572" class="st2" d="M46.3,32.1c-0.2-2.5,1.6-4.7,4.1-4.9c0.1,0,0.2,0,0.4,0c1.1,0,2.1,0.4,2.8,1.2l-1.2,1.4
					c-0.4-0.4-1-0.7-1.6-0.6c-1.2,0-2.2,1.1-2.2,2.9c0,1.9,0.9,3,2.2,3c0.7,0,1.3-0.3,1.8-0.8l1.2,1.3c-0.8,0.9-1.9,1.4-3,1.4
					c-2.4,0.1-4.4-1.8-4.4-4.2C46.2,32.5,46.3,32.3,46.3,32.1z"/>
			</g>
		</g>
	</g>
</g>
</svg>
