<?xml version="1.0" encoding="utf-8"?>
<!-- Generator: Adobe Illustrator 24.2.3, SVG Export Plug-In . SVG Version: 6.00 Build 0)  -->
<svg version="1.1" xmlns="http://www.w3.org/2000/svg" xmlns:xlink="http://www.w3.org/1999/xlink" x="0px" y="0px"
	 viewBox="0 0 500 400" style="enable-background:new 0 0 500 400;" xml:space="preserve">
<style type="text/css">
	.st0{fill:#F7F7F7;}
	.st1{fill:none;stroke:#DFDFDF;}
	.st2{fill:#424344;}
	.st3{fill:#0077B4;}
	.st4{fill:#EAEAEA;stroke:#FFFFFF;}
	.st5{opacity:0.21;}
	.st6{opacity:0.15;}
	.st7{fill:#FFFFFF;}
	.st8{fill:#C71F25;}
	.st9{fill:#C94F30;}
	.st10{fill:#E5E5E5;}
	.st11{fill:#0A90B7;}
	.st12{fill:#444444;}
	.st13{opacity:0.1;}
	.st14{opacity:0.11;fill:#FFFFFF;}
	.st15{fill:#757575;}
	.st16{opacity:0.14;fill:#FFFFFF;}
	.st17{opacity:0.21;fill:#FFFFFF;}
	.st18{fill:#F0F0F0;}
	.st19{fill:none;stroke:#E5E5E5;stroke-width:0.25;stroke-miterlimit:10;}
	.st20{fill:#1A4480;}
	.st21{fill:#C4C4C4;}
	.st22{fill:#141414;}
	.st23{fill:#0F0F0F;}
	.st24{fill:#1E1E1E;}
	.st25{opacity:0.5;fill:#424242;}
	.st26{opacity:6.000000e-02;}
	.st27{fill:#1B2225;}
	.st28{fill:#F4F4F4;}
	.st29{opacity:0.13;}
</style>
<g id="Layer_10">
	
		<ellipse transform="matrix(0.9265 -0.3763 0.3763 0.9265 -48.2318 114.9117)" class="st0" cx="270.1" cy="180.9" rx="238" ry="170.8"/>
	<g>
		<line class="st1" x1="33.2" y1="34.7" x2="33.2" y2="353.2"/>
		<line class="st1" x1="465.9" y1="156.4" x2="465.9" y2="373.7"/>
		<line class="st1" x1="336.5" y1="373.4" x2="465.9" y2="373.4"/>
		<line class="st1" x1="62.8" y1="136.4" x2="258.8" y2="136.4"/>
		<line class="st1" x1="46.8" y1="249.8" x2="335.8" y2="249.8"/>
		<line class="st1" x1="122.8" y1="197" x2="167.7" y2="197"/>
	</g>
	<g>
		
			<rect x="13.7" y="7.9" transform="matrix(0.7071 -0.7071 0.7071 0.7071 -9.5298 31.1919)" class="st4" width="38.3" height="38.3"/>
		
			<rect x="142.2" y="117" transform="matrix(0.7071 -0.7071 0.7071 0.7071 -49.0562 153.9649)" class="st4" width="38.3" height="38.3"/>
		
			<rect x="446.7" y="119" transform="matrix(0.7071 -0.7071 0.7071 0.7071 38.7716 369.8921)" class="st4" width="38.3" height="38.3"/>
		
			<rect x="13.7" y="231.2" transform="matrix(0.7071 -0.7071 0.7071 0.7071 -167.424 96.5938)" class="st4" width="38.3" height="38.3"/>
		
			<rect x="317" y="231.2" transform="matrix(0.7071 -0.7071 0.7071 0.7071 -78.5835 311.0736)" class="st4" width="38.3" height="38.3"/>
		<path class="st4" d="M61.2,370.4c0,15.6-12.7,28.3-28.3,28.3S4.6,386,4.6,370.4c0-15.6,12.7-28.3,28.3-28.3S61.2,354.8,61.2,370.4
			z"/>
		<path class="st4" d="M494.2,370.4c0,15.6-12.7,28.3-28.3,28.3s-28.3-12.7-28.3-28.3c0-15.6,12.7-28.3,28.3-28.3
			S494.2,354.8,494.2,370.4z"/>
		<rect x="-0.9" y="118.8" class="st4" width="67.6" height="39.9"/>
		<rect x="302" y="353.1" class="st4" width="67.6" height="39.9"/>
		<rect x="432.1" y="233.5" class="st4" width="67.6" height="39.9"/>
	</g>
</g>
<g id="Layer_5" class="st5">
</g>
<g id="Layer_8">
</g>
<g id="Layer_16">
</g>
<g id="Layer_7">
	<g id="Layer_9">
	</g>
</g>
<g id="Layer_6">
</g>
<g id="Layer_15">
	<path class="st6" d="M390.9,11H180.8c-3.6,0-5.8,4-3.8,7l23.5,44.5c0.8,1.3,2.3,2.1,3.8,2.1h-0.1c-2,0-3.7,2.1-3.7,4.8V171
		c0,2.7,1.6,4.8,3.7,4.8h67.4h28.8h67.4c2,0,3.7-2.1,3.7-4.8V69.4c0-2.7-1.6-4.8-3.7-4.8h-0.1c1.5,0,3-0.8,3.8-2.1L394.7,18
		C396.7,15,394.5,11,390.9,11z"/>
	<g>
		<path class="st23" d="M364.8,62.1H201.5c-1.5,0-3-0.8-3.8-2.1l-23.5-44.5c-2-3,0.2-7,3.8-7h210.1c3.6,0,5.8,4,3.8,7l-23.3,44.5
			C367.8,61.4,366.3,62.1,364.8,62.1z"/>
		<path class="st24" d="M362.8,56.9H203.4l-18.9-41.4c-0.2-0.5,0.1-1.1,0.7-1.1h195.7c0.6,0,0.9,0.6,0.7,1.1L362.8,56.9z"/>
		<path class="st25" d="M238.6,14.4l41.1,42.5h83.1l18.9-41.5c0.2-0.4-0.1-0.9-0.6-0.9H238.6z"/>
		<path class="st12" d="M197.7,66.9v101.6c0,2.7,1.6,4.8,3.7,4.8h163.5c2,0,3.7-2.1,3.7-4.8V66.9c0-2.7-1.6-4.8-3.7-4.8H201.4
			C199.4,62.1,197.7,64.3,197.7,66.9z"/>
		<path class="st26" d="M208.4,133.8h149.9c1.5,0,2.7-1.2,2.7-2.7V76.5c0-1.5-1.2-2.7-2.7-2.7H208.4c-1.5,0-2.7,1.2-2.7,2.7v54.7
			C205.7,132.6,206.9,133.8,208.4,133.8z"/>
		<path class="st23" d="M347.3,62.1H218.8v5c0,0.3,0.3,0.6,0.6,0.6h127.3c0.3,0,0.6-0.3,0.6-0.6V62.1z"/>
		<g>
			<path class="st15" d="M210.5,80.9h7.4c0.5,0,0.9-0.4,0.9-0.9v-1.9c0-0.5-0.4-0.9-0.9-0.9h-7.4c-0.5,0-0.9,0.4-0.9,0.9V80
				C209.6,80.5,210,80.9,210.5,80.9z"/>
			<path class="st15" d="M221.2,80.9h7.4c0.5,0,0.9-0.4,0.9-0.9v-1.9c0-0.5-0.4-0.9-0.9-0.9h-7.4c-0.5,0-0.9,0.4-0.9,0.9V80
				C220.4,80.5,220.8,80.9,221.2,80.9z"/>
			<path class="st15" d="M232,80.9h7.4c0.5,0,0.9-0.4,0.9-0.9v-1.9c0-0.5-0.4-0.9-0.9-0.9H232c-0.5,0-0.9,0.4-0.9,0.9V80
				C231.1,80.5,231.5,80.9,232,80.9z"/>
			<path class="st15" d="M242.8,80.9h7.4c0.5,0,0.9-0.4,0.9-0.9v-1.9c0-0.5-0.4-0.9-0.9-0.9h-7.4c-0.5,0-0.9,0.4-0.9,0.9V80
				C241.9,80.5,242.3,80.9,242.8,80.9z"/>
			<path class="st15" d="M253.5,80.9h7.4c0.5,0,0.9-0.4,0.9-0.9v-1.9c0-0.5-0.4-0.9-0.9-0.9h-7.4c-0.5,0-0.9,0.4-0.9,0.9V80
				C252.7,80.5,253,80.9,253.5,80.9z"/>
			<path class="st15" d="M264.3,80.9h7.4c0.5,0,0.9-0.4,0.9-0.9v-1.9c0-0.5-0.4-0.9-0.9-0.9h-7.4c-0.5,0-0.9,0.4-0.9,0.9V80
				C263.4,80.5,263.8,80.9,264.3,80.9z"/>
			<path class="st15" d="M275,80.9h7.4c0.5,0,0.9-0.4,0.9-0.9v-1.9c0-0.5-0.4-0.9-0.9-0.9H275c-0.5,0-0.9,0.4-0.9,0.9V80
				C274.2,80.5,274.5,80.9,275,80.9z"/>
			<path class="st15" d="M285.8,80.9h7.4c0.5,0,0.9-0.4,0.9-0.9v-1.9c0-0.5-0.4-0.9-0.9-0.9h-7.4c-0.5,0-0.9,0.4-0.9,0.9V80
				C284.9,80.5,285.3,80.9,285.8,80.9z"/>
			<path class="st15" d="M296.5,80.9h7.4c0.5,0,0.9-0.4,0.9-0.9v-1.9c0-0.5-0.4-0.9-0.9-0.9h-7.4c-0.5,0-0.9,0.4-0.9,0.9V80
				C295.7,80.5,296,80.9,296.5,80.9z"/>
			<path class="st15" d="M307.3,80.9h7.4c0.5,0,0.9-0.4,0.9-0.9v-1.9c0-0.5-0.4-0.9-0.9-0.9h-7.4c-0.5,0-0.9,0.4-0.9,0.9V80
				C306.4,80.5,306.8,80.9,307.3,80.9z"/>
			<path class="st15" d="M318,80.9h7.4c0.5,0,0.9-0.4,0.9-0.9v-1.9c0-0.5-0.4-0.9-0.9-0.9H318c-0.5,0-0.9,0.4-0.9,0.9V80
				C317.2,80.5,317.6,80.9,318,80.9z"/>
			<path class="st15" d="M328.8,80.9h7.4c0.5,0,0.9-0.4,0.9-0.9v-1.9c0-0.5-0.4-0.9-0.9-0.9h-7.4c-0.5,0-0.9,0.4-0.9,0.9V80
				C327.9,80.5,328.3,80.9,328.8,80.9z"/>
			<path class="st15" d="M339.5,80.9h7.4c0.5,0,0.9-0.4,0.9-0.9v-1.9c0-0.5-0.4-0.9-0.9-0.9h-7.4c-0.5,0-0.9,0.4-0.9,0.9V80
				C338.7,80.5,339.1,80.9,339.5,80.9z"/>
			<path class="st15" d="M357.6,77.3h-7.4c-0.5,0-0.9,0.4-0.9,0.9V80c0,0.5,0.4,0.9,0.9,0.9h7.4c0.5,0,0.9-0.4,0.9-0.9v-1.9
				C358.5,77.7,358.1,77.3,357.6,77.3z"/>
			<path class="st15" d="M210.9,91h5.7c0.7,0,1.3-0.6,1.3-1.3V84c0-0.7-0.6-1.3-1.3-1.3h-5.7c-0.7,0-1.3,0.6-1.3,1.3v5.7
				C209.6,90.4,210.2,91,210.9,91z"/>
			<path class="st15" d="M220.4,91h5.7c0.7,0,1.3-0.6,1.3-1.3V84c0-0.7-0.6-1.3-1.3-1.3h-5.7c-0.7,0-1.3,0.6-1.3,1.3v5.7
				C219.1,90.4,219.7,91,220.4,91z"/>
			<path class="st15" d="M228.6,84v5.7c0,0.7,0.6,1.3,1.3,1.3h5.7c0.7,0,1.3-0.6,1.3-1.3V84c0-0.7-0.6-1.3-1.3-1.3h-5.7
				C229.2,82.7,228.6,83.3,228.6,84z"/>
			<path class="st15" d="M245.2,91c0.7,0,1.3-0.6,1.3-1.3V84c0-0.7-0.6-1.3-1.3-1.3h-5.7c-0.7,0-1.3,0.6-1.3,1.3v5.7
				c0,0.7,0.6,1.3,1.3,1.3H245.2z"/>
			<path class="st15" d="M255.9,89.7V84c0-0.7-0.6-1.3-1.3-1.3h-5.7c-0.7,0-1.3,0.6-1.3,1.3v5.7c0,0.7,0.6,1.3,1.3,1.3h5.7
				C255.4,91,255.9,90.4,255.9,89.7z"/>
			<path class="st15" d="M264.2,82.7h-5.7c-0.7,0-1.3,0.6-1.3,1.3v5.7c0,0.7,0.6,1.3,1.3,1.3h5.7c0.7,0,1.3-0.6,1.3-1.3V84
				C265.4,83.3,264.9,82.7,264.2,82.7z"/>
			<path class="st15" d="M266.6,84v5.7c0,0.7,0.6,1.3,1.3,1.3h5.7c0.7,0,1.3-0.6,1.3-1.3V84c0-0.7-0.6-1.3-1.3-1.3h-5.7
				C267.2,82.7,266.6,83.3,266.6,84z"/>
			<path class="st15" d="M277.4,82.7c-0.7,0-1.3,0.6-1.3,1.3v5.7c0,0.7,0.6,1.3,1.3,1.3h5.7c0.7,0,1.3-0.6,1.3-1.3V84
				c0-0.7-0.6-1.3-1.3-1.3H277.4z"/>
			<path class="st15" d="M292.7,91c0.7,0,1.3-0.6,1.3-1.3V84c0-0.7-0.6-1.3-1.3-1.3h-5.7c-0.7,0-1.3,0.6-1.3,1.3v5.7
				c0,0.7,0.6,1.3,1.3,1.3H292.7z"/>
			<path class="st15" d="M296.4,91h5.7c0.7,0,1.3-0.6,1.3-1.3V84c0-0.7-0.6-1.3-1.3-1.3h-5.7c-0.7,0-1.3,0.6-1.3,1.3v5.7
				C295.1,90.4,295.7,91,296.4,91z"/>
			<path class="st15" d="M304.6,89.7c0,0.7,0.6,1.3,1.3,1.3h5.7c0.7,0,1.3-0.6,1.3-1.3V84c0-0.7-0.6-1.3-1.3-1.3h-5.7
				c-0.7,0-1.3,0.6-1.3,1.3V89.7z"/>
			<path class="st15" d="M321.2,91c0.7,0,1.3-0.6,1.3-1.3V84c0-0.7-0.6-1.3-1.3-1.3h-5.7c-0.7,0-1.3,0.6-1.3,1.3v5.7
				c0,0.7,0.6,1.3,1.3,1.3H321.2z"/>
			<path class="st15" d="M330.7,91c0.7,0,1.3-0.6,1.3-1.3V84c0-0.7-0.6-1.3-1.3-1.3h-5.7c-0.7,0-1.3,0.6-1.3,1.3v5.7
				c0,0.7,0.6,1.3,1.3,1.3H330.7z"/>
			<path class="st15" d="M340.2,91c0.7,0,1.3-0.6,1.3-1.3V84c0-0.7-0.6-1.3-1.3-1.3h-5.7c-0.7,0-1.3,0.6-1.3,1.3v5.7
				c0,0.7,0.6,1.3,1.3,1.3H340.2z"/>
			<path class="st15" d="M357.2,82.7h-13.3c-0.7,0-1.3,0.6-1.3,1.3v5.7c0,0.7,0.6,1.3,1.3,1.3h13.3c0.7,0,1.3-0.6,1.3-1.3V84
				C358.5,83.3,357.9,82.7,357.2,82.7z"/>
			<path class="st15" d="M357.2,92.8h-5.7c-0.7,0-1.3,0.6-1.3,1.3v5.7c0,0.7,0.6,1.3,1.3,1.3h5.7c0.7,0,1.3-0.6,1.3-1.3v-5.7
				C358.5,93.4,357.9,92.8,357.2,92.8z"/>
			<path class="st15" d="M347.7,101.1c0.7,0,1.3-0.6,1.3-1.3v-5.7c0-0.7-0.6-1.3-1.3-1.3H342c-0.7,0-1.3,0.6-1.3,1.3v5.7
				c0,0.7,0.6,1.3,1.3,1.3H347.7z"/>
			<path class="st15" d="M338.2,101.1c0.7,0,1.3-0.6,1.3-1.3v-5.7c0-0.7-0.6-1.3-1.3-1.3h-5.7c-0.7,0-1.3,0.6-1.3,1.3v5.7
				c0,0.7,0.6,1.3,1.3,1.3H338.2z"/>
			<path class="st15" d="M328.7,101.1c0.7,0,1.3-0.6,1.3-1.3v-5.7c0-0.7-0.6-1.3-1.3-1.3H323c-0.7,0-1.3,0.6-1.3,1.3v5.7
				c0,0.7,0.6,1.3,1.3,1.3H328.7z"/>
			<path class="st15" d="M312.2,94.1v5.7c0,0.7,0.6,1.3,1.3,1.3h5.7c0.7,0,1.3-0.6,1.3-1.3v-5.7c0-0.7-0.6-1.3-1.3-1.3h-5.7
				C312.8,92.8,312.2,93.4,312.2,94.1z"/>
			<path class="st15" d="M309.7,101.1c0.7,0,1.3-0.6,1.3-1.3v-5.7c0-0.7-0.6-1.3-1.3-1.3H304c-0.7,0-1.3,0.6-1.3,1.3v5.7
				c0,0.7,0.6,1.3,1.3,1.3H309.7z"/>
			<path class="st15" d="M293.2,94.1v5.7c0,0.7,0.6,1.3,1.3,1.3h5.7c0.7,0,1.3-0.6,1.3-1.3v-5.7c0-0.7-0.6-1.3-1.3-1.3h-5.7
				C293.8,92.8,293.2,93.4,293.2,94.1z"/>
			<path class="st15" d="M283.7,94.1v5.7c0,0.7,0.6,1.3,1.3,1.3h5.7c0.7,0,1.3-0.6,1.3-1.3v-5.7c0-0.7-0.6-1.3-1.3-1.3H285
				C284.3,92.8,283.7,93.4,283.7,94.1z"/>
			<path class="st15" d="M281.2,101.1c0.7,0,1.3-0.6,1.3-1.3v-5.7c0-0.7-0.6-1.3-1.3-1.3h-5.7c-0.7,0-1.3,0.6-1.3,1.3v5.7
				c0,0.7,0.6,1.3,1.3,1.3H281.2z"/>
			<path class="st15" d="M264.7,94.1v5.7c0,0.7,0.6,1.3,1.3,1.3h5.7c0.7,0,1.3-0.6,1.3-1.3v-5.7c0-0.7-0.6-1.3-1.3-1.3H266
				C265.3,92.8,264.7,93.4,264.7,94.1z"/>
			<path class="st15" d="M256.5,101.1h5.7c0.7,0,1.3-0.6,1.3-1.3v-5.7c0-0.7-0.6-1.3-1.3-1.3h-5.7c-0.7,0-1.3,0.6-1.3,1.3v5.7
				C255.2,100.5,255.8,101.1,256.5,101.1z"/>
			<path class="st15" d="M252.7,101.1c0.7,0,1.3-0.6,1.3-1.3v-5.7c0-0.7-0.6-1.3-1.3-1.3H247c-0.7,0-1.3,0.6-1.3,1.3v5.7
				c0,0.7,0.6,1.3,1.3,1.3H252.7z"/>
			<path class="st15" d="M236.2,94.1v5.7c0,0.7,0.6,1.3,1.3,1.3h5.7c0.7,0,1.3-0.6,1.3-1.3v-5.7c0-0.7-0.6-1.3-1.3-1.3h-5.7
				C236.8,92.8,236.2,93.4,236.2,94.1z"/>
			<path class="st15" d="M228,92.8c-0.7,0-1.3,0.6-1.3,1.3v5.7c0,0.7,0.6,1.3,1.3,1.3h5.7c0.7,0,1.3-0.6,1.3-1.3v-5.7
				c0-0.7-0.6-1.3-1.3-1.3H228z"/>
			<path class="st15" d="M210.9,101.1h13.3c0.7,0,1.3-0.6,1.3-1.3v-5.7c0-0.7-0.6-1.3-1.3-1.3h-13.3c-0.7,0-1.3,0.6-1.3,1.3v5.7
				C209.6,100.5,210.2,101.1,210.9,101.1z"/>
			<path class="st15" d="M237.4,104.2c0-0.7-0.6-1.3-1.3-1.3h-5.7c-0.7,0-1.3,0.6-1.3,1.3v5.7c0,0.7,0.6,1.3,1.3,1.3h5.7
				c0.7,0,1.3-0.6,1.3-1.3V104.2z"/>
			<path class="st15" d="M239.9,111.2h5.7c0.7,0,1.3-0.6,1.3-1.3v-5.7c0-0.7-0.6-1.3-1.3-1.3h-5.7c-0.7,0-1.3,0.6-1.3,1.3v5.7
				C238.6,110.6,239.2,111.2,239.9,111.2z"/>
			<path class="st15" d="M256.4,104.2c0-0.7-0.6-1.3-1.3-1.3h-5.7c-0.7,0-1.3,0.6-1.3,1.3v5.7c0,0.7,0.6,1.3,1.3,1.3h5.7
				c0.7,0,1.3-0.6,1.3-1.3V104.2z"/>
			<path class="st15" d="M265.9,109.9v-5.7c0-0.7-0.6-1.3-1.3-1.3h-5.7c-0.7,0-1.3,0.6-1.3,1.3v5.7c0,0.7,0.6,1.3,1.3,1.3h5.7
				C265.3,111.2,265.9,110.6,265.9,109.9z"/>
			<path class="st15" d="M275.4,109.9v-5.7c0-0.7-0.6-1.3-1.3-1.3h-5.7c-0.7,0-1.3,0.6-1.3,1.3v5.7c0,0.7,0.6,1.3,1.3,1.3h5.7
				C274.8,111.2,275.4,110.6,275.4,109.9z"/>
			<path class="st15" d="M284.9,109.9v-5.7c0-0.7-0.6-1.3-1.3-1.3h-5.7c-0.7,0-1.3,0.6-1.3,1.3v5.7c0,0.7,0.6,1.3,1.3,1.3h5.7
				C284.3,111.2,284.9,110.6,284.9,109.9z"/>
			<path class="st15" d="M294.4,109.9v-5.7c0-0.7-0.6-1.3-1.3-1.3h-5.7c-0.7,0-1.3,0.6-1.3,1.3v5.7c0,0.7,0.6,1.3,1.3,1.3h5.7
				C293.8,111.2,294.4,110.6,294.4,109.9z"/>
			<path class="st15" d="M303.9,109.9v-5.7c0-0.7-0.6-1.3-1.3-1.3h-5.7c-0.7,0-1.3,0.6-1.3,1.3v5.7c0,0.7,0.6,1.3,1.3,1.3h5.7
				C303.3,111.2,303.9,110.6,303.9,109.9z"/>
			<path class="st15" d="M313.4,109.9v-5.7c0-0.7-0.6-1.3-1.3-1.3h-5.7c-0.7,0-1.3,0.6-1.3,1.3v5.7c0,0.7,0.6,1.3,1.3,1.3h5.7
				C312.8,111.2,313.4,110.6,313.4,109.9z"/>
			<path class="st15" d="M322.9,109.9v-5.7c0-0.7-0.6-1.3-1.3-1.3h-5.7c-0.7,0-1.3,0.6-1.3,1.3v5.7c0,0.7,0.6,1.3,1.3,1.3h5.7
				C322.3,111.2,322.9,110.6,322.9,109.9z"/>
			<path class="st15" d="M325.4,111.2h5.7c0.7,0,1.3-0.6,1.3-1.3v-5.7c0-0.7-0.6-1.3-1.3-1.3h-5.7c-0.7,0-1.3,0.6-1.3,1.3v5.7
				C324.1,110.6,324.7,111.2,325.4,111.2z"/>
			<path class="st15" d="M334.9,111.2h5.7c0.7,0,1.3-0.6,1.3-1.3v-5.7c0-0.7-0.6-1.3-1.3-1.3h-5.7c-0.7,0-1.3,0.6-1.3,1.3v5.7
				C333.6,110.6,334.2,111.2,334.9,111.2z"/>
			<path class="st15" d="M357.2,102.9h-13.3c-0.7,0-1.3,0.6-1.3,1.3v5.7c0,0.7,0.6,1.3,1.3,1.3h13.3c0.7,0,1.3-0.6,1.3-1.3v-5.7
				C358.5,103.5,357.9,102.9,357.2,102.9z"/>
			<path class="st15" d="M210.9,111.2h15.7c0.7,0,1.3-0.6,1.3-1.3v-5.7c0-0.7-0.6-1.3-1.3-1.3h-15.7c-0.7,0-1.3,0.6-1.3,1.3v5.7
				C209.6,110.6,210.2,111.2,210.9,111.2z"/>
			<path class="st15" d="M244.2,121.3c0.7,0,1.3-0.6,1.3-1.3v-5.7c0-0.7-0.6-1.3-1.3-1.3h-5.7c-0.7,0-1.3,0.6-1.3,1.3v5.7
				c0,0.7,0.6,1.3,1.3,1.3H244.2z"/>
			<path class="st15" d="M216.7,123.1h-5.7c-0.7,0-1.3,0.6-1.3,1.3v5.7c0,0.7,0.6,1.3,1.3,1.3h5.7c0.7,0,1.3-0.6,1.3-1.3v-5.7
				C217.9,123.7,217.4,123.1,216.7,123.1z"/>
			<path class="st15" d="M226.2,123.1h-5.7c-0.7,0-1.3,0.6-1.3,1.3v5.7c0,0.7,0.6,1.3,1.3,1.3h5.7c0.7,0,1.3-0.6,1.3-1.3v-5.7
				C227.4,123.7,226.9,123.1,226.2,123.1z"/>
			<path class="st15" d="M235.7,123.1h-5.7c-0.7,0-1.3,0.6-1.3,1.3v5.7c0,0.7,0.6,1.3,1.3,1.3h5.7c0.7,0,1.3-0.6,1.3-1.3v-5.7
				C236.9,123.7,236.4,123.1,235.7,123.1z"/>
			<path class="st15" d="M310.7,123.1h-53.2c-0.7,0-1.3,0.6-1.3,1.3v5.7c0,0.7,0.6,1.3,1.3,1.3h53.2c0.7,0,1.3-0.6,1.3-1.3v-5.7
				C312,123.7,311.4,123.1,310.7,123.1z"/>
			<path class="st15" d="M253.7,113h-5.7c-0.7,0-1.3,0.6-1.3,1.3v5.7c0,0.7,0.6,1.3,1.3,1.3h5.7c0.7,0,1.3-0.6,1.3-1.3v-5.7
				C255,113.6,254.4,113,253.7,113z"/>
			<path class="st15" d="M256.2,120c0,0.7,0.6,1.3,1.3,1.3h5.7c0.7,0,1.3-0.6,1.3-1.3v-5.7c0-0.7-0.6-1.3-1.3-1.3h-5.7
				c-0.7,0-1.3,0.6-1.3,1.3V120z"/>
			<path class="st15" d="M266.9,121.3h5.7c0.7,0,1.3-0.6,1.3-1.3v-5.7c0-0.7-0.6-1.3-1.3-1.3h-5.7c-0.7,0-1.3,0.6-1.3,1.3v5.7
				C265.7,120.8,266.2,121.3,266.9,121.3z"/>
			<path class="st15" d="M276.4,121.3h5.7c0.7,0,1.3-0.6,1.3-1.3v-5.7c0-0.7-0.6-1.3-1.3-1.3h-5.7c-0.7,0-1.3,0.6-1.3,1.3v5.7
				C275.2,120.8,275.7,121.3,276.4,121.3z"/>
			<path class="st15" d="M285.9,121.3h5.7c0.7,0,1.3-0.6,1.3-1.3v-5.7c0-0.7-0.6-1.3-1.3-1.3h-5.7c-0.7,0-1.3,0.6-1.3,1.3v5.7
				C284.7,120.8,285.2,121.3,285.9,121.3z"/>
			<path class="st15" d="M295.4,121.3h5.7c0.7,0,1.3-0.6,1.3-1.3v-5.7c0-0.7-0.6-1.3-1.3-1.3h-5.7c-0.7,0-1.3,0.6-1.3,1.3v5.7
				C294.2,120.8,294.7,121.3,295.4,121.3z"/>
			<path class="st15" d="M310.7,113h-5.7c-0.7,0-1.3,0.6-1.3,1.3v5.7c0,0.7,0.6,1.3,1.3,1.3h5.7c0.7,0,1.3-0.6,1.3-1.3v-5.7
				C312,113.6,311.4,113,310.7,113z"/>
			<path class="st15" d="M313.2,120c0,0.7,0.6,1.3,1.3,1.3h5.7c0.7,0,1.3-0.6,1.3-1.3v-5.7c0-0.7-0.6-1.3-1.3-1.3h-5.7
				c-0.7,0-1.3,0.6-1.3,1.3V120z"/>
			<path class="st15" d="M331,114.3c0-0.7-0.6-1.3-1.3-1.3h-5.7c-0.7,0-1.3,0.6-1.3,1.3v5.7c0,0.7,0.6,1.3,1.3,1.3h5.7
				c0.7,0,1.3-0.6,1.3-1.3V114.3z"/>
			<path class="st15" d="M357.2,113h-23.8c-0.7,0-1.3,0.6-1.3,1.3v5.7c0,0.7,0.6,1.3,1.3,1.3h23.8c0.7,0,1.3-0.6,1.3-1.3v-5.7
				C358.5,113.6,357.9,113,357.2,113z"/>
			<path class="st15" d="M210.9,121.3h23.8c0.7,0,1.3-0.6,1.3-1.3v-5.7c0-0.7-0.6-1.3-1.3-1.3h-23.8c-0.7,0-1.3,0.6-1.3,1.3v5.7
				C209.6,120.8,210.2,121.3,210.9,121.3z"/>
			<path class="st15" d="M338,127.3h-5.7c-0.7,0-1.3,0.6-1.3,1.3v1.6c0,0.7,0.6,1.3,1.3,1.3h5.7c0.7,0,1.3-0.6,1.3-1.3v-1.6
				C339.3,127.9,338.7,127.3,338,127.3z"/>
			<path class="st15" d="M357,127.3h-5.7c-0.7,0-1.3,0.6-1.3,1.3v1.6c0,0.7,0.6,1.3,1.3,1.3h5.7c0.7,0,1.3-0.6,1.3-1.3v-1.6
				C358.3,127.9,357.7,127.3,357,127.3z"/>
			<path class="st15" d="M328.5,123.1h-14.3c-0.7,0-1.3,0.6-1.3,1.3v5.7c0,0.7,0.6,1.3,1.3,1.3h14.3c0.7,0,1.3-0.6,1.3-1.3v-5.7
				C329.8,123.7,329.2,123.1,328.5,123.1z"/>
			<path class="st15" d="M253.7,123.1h-14.3c-0.7,0-1.3,0.6-1.3,1.3v5.7c0,0.7,0.6,1.3,1.3,1.3h14.3c0.7,0,1.3-0.6,1.3-1.3v-5.7
				C255,123.7,254.4,123.1,253.7,123.1z"/>
			<path class="st15" d="M348.4,127.9h-7.6c-0.2,0-0.3,0.2-0.3,0.3v1.9c0,0.7,0.6,1.3,1.3,1.3h5.7c0.7,0,1.3-0.6,1.3-1.3v-1.9
				C348.8,128,348.6,127.9,348.4,127.9z"/>
			<path class="st15" d="M347.5,123.1h-5.7c-0.7,0-1.3,0.6-1.3,1.3v1.9c0,0.2,0.2,0.3,0.3,0.3h7.6c0.2,0,0.3-0.2,0.3-0.3v-1.9
				C348.8,123.7,348.2,123.1,347.5,123.1z"/>
		</g>
		<path class="st27" d="M217.1,80.2h-7.4c-0.5,0-0.9-0.4-0.9-0.9v-1.9c0-0.5,0.4-0.9,0.9-0.9h7.4c0.5,0,0.9,0.4,0.9,0.9v1.9
			C218,79.8,217.6,80.2,217.1,80.2z M228.7,79.3v-1.9c0-0.5-0.4-0.9-0.9-0.9h-7.4c-0.5,0-0.9,0.4-0.9,0.9v1.9c0,0.5,0.4,0.9,0.9,0.9
			h7.4C228.3,80.2,228.7,79.8,228.7,79.3z M239.5,79.3v-1.9c0-0.5-0.4-0.9-0.9-0.9h-7.4c-0.5,0-0.9,0.4-0.9,0.9v1.9
			c0,0.5,0.4,0.9,0.9,0.9h7.4C239.1,80.2,239.5,79.8,239.5,79.3z M250.2,79.3v-1.9c0-0.5-0.4-0.9-0.9-0.9H242
			c-0.5,0-0.9,0.4-0.9,0.9v1.9c0,0.5,0.4,0.9,0.9,0.9h7.4C249.8,80.2,250.2,79.8,250.2,79.3z M261,79.3v-1.9c0-0.5-0.4-0.9-0.9-0.9
			h-7.4c-0.5,0-0.9,0.4-0.9,0.9v1.9c0,0.5,0.4,0.9,0.9,0.9h7.4C260.6,80.2,261,79.8,261,79.3z M271.7,79.3v-1.9
			c0-0.5-0.4-0.9-0.9-0.9h-7.4c-0.5,0-0.9,0.4-0.9,0.9v1.9c0,0.5,0.4,0.9,0.9,0.9h7.4C271.4,80.2,271.7,79.8,271.7,79.3z
			 M282.5,79.3v-1.9c0-0.5-0.4-0.9-0.9-0.9h-7.4c-0.5,0-0.9,0.4-0.9,0.9v1.9c0,0.5,0.4,0.9,0.9,0.9h7.4
			C282.1,80.2,282.5,79.8,282.5,79.3z M293.2,79.3v-1.9c0-0.5-0.4-0.9-0.9-0.9H285c-0.5,0-0.9,0.4-0.9,0.9v1.9
			c0,0.5,0.4,0.9,0.9,0.9h7.4C292.9,80.2,293.2,79.8,293.2,79.3z M304,79.3v-1.9c0-0.5-0.4-0.9-0.9-0.9h-7.4c-0.5,0-0.9,0.4-0.9,0.9
			v1.9c0,0.5,0.4,0.9,0.9,0.9h7.4C303.6,80.2,304,79.8,304,79.3z M314.7,79.3v-1.9c0-0.5-0.4-0.9-0.9-0.9h-7.4
			c-0.5,0-0.9,0.4-0.9,0.9v1.9c0,0.5,0.4,0.9,0.9,0.9h7.4C314.4,80.2,314.7,79.8,314.7,79.3z M325.5,79.3v-1.9
			c0-0.5-0.4-0.9-0.9-0.9h-7.4c-0.5,0-0.9,0.4-0.9,0.9v1.9c0,0.5,0.4,0.9,0.9,0.9h7.4C325.1,80.2,325.5,79.8,325.5,79.3z
			 M336.2,79.3v-1.9c0-0.5-0.4-0.9-0.9-0.9H328c-0.5,0-0.9,0.4-0.9,0.9v1.9c0,0.5,0.4,0.9,0.9,0.9h7.4
			C335.9,80.2,336.2,79.8,336.2,79.3z M347,79.3v-1.9c0-0.5-0.4-0.9-0.9-0.9h-7.4c-0.5,0-0.9,0.4-0.9,0.9v1.9c0,0.5,0.4,0.9,0.9,0.9
			h7.4C346.6,80.2,347,79.8,347,79.3z M357.8,79.3v-1.9c0-0.5-0.4-0.9-0.9-0.9h-7.4c-0.5,0-0.9,0.4-0.9,0.9v1.9
			c0,0.5,0.4,0.9,0.9,0.9h7.4C357.4,80.2,357.8,79.8,357.8,79.3z M217.2,89v-5.7c0-0.7-0.6-1.3-1.3-1.3h-5.7c-0.7,0-1.3,0.6-1.3,1.3
			V89c0,0.7,0.6,1.3,1.3,1.3h5.7C216.6,90.3,217.2,89.7,217.2,89z M226.7,89v-5.7c0-0.7-0.6-1.3-1.3-1.3h-5.7
			c-0.7,0-1.3,0.6-1.3,1.3V89c0,0.7,0.6,1.3,1.3,1.3h5.7C226.1,90.3,226.7,89.7,226.7,89z M236.2,89v-5.7c0-0.7-0.6-1.3-1.3-1.3
			h-5.7c-0.7,0-1.3,0.6-1.3,1.3V89c0,0.7,0.6,1.3,1.3,1.3h5.7C235.6,90.3,236.2,89.7,236.2,89z M245.7,89v-5.7
			c0-0.7-0.6-1.3-1.3-1.3h-5.7c-0.7,0-1.3,0.6-1.3,1.3V89c0,0.7,0.6,1.3,1.3,1.3h5.7C245.1,90.3,245.7,89.7,245.7,89z M255.2,89
			v-5.7c0-0.7-0.6-1.3-1.3-1.3h-5.7c-0.7,0-1.3,0.6-1.3,1.3V89c0,0.7,0.6,1.3,1.3,1.3h5.7C254.6,90.3,255.2,89.7,255.2,89z
			 M264.7,89v-5.7c0-0.7-0.6-1.3-1.3-1.3h-5.7c-0.7,0-1.3,0.6-1.3,1.3V89c0,0.7,0.6,1.3,1.3,1.3h5.7C264.1,90.3,264.7,89.7,264.7,89
			z M274.2,89v-5.7c0-0.7-0.6-1.3-1.3-1.3h-5.7c-0.7,0-1.3,0.6-1.3,1.3V89c0,0.7,0.6,1.3,1.3,1.3h5.7
			C273.6,90.3,274.2,89.7,274.2,89z M283.7,89v-5.7c0-0.7-0.6-1.3-1.3-1.3h-5.7c-0.7,0-1.3,0.6-1.3,1.3V89c0,0.7,0.6,1.3,1.3,1.3
			h5.7C283.1,90.3,283.7,89.7,283.7,89z M293.2,89v-5.7c0-0.7-0.6-1.3-1.3-1.3h-5.7c-0.7,0-1.3,0.6-1.3,1.3V89
			c0,0.7,0.6,1.3,1.3,1.3h5.7C292.6,90.3,293.2,89.7,293.2,89z M302.7,89v-5.7c0-0.7-0.6-1.3-1.3-1.3h-5.7c-0.7,0-1.3,0.6-1.3,1.3
			V89c0,0.7,0.6,1.3,1.3,1.3h5.7C302.1,90.3,302.7,89.7,302.7,89z M312.2,89v-5.7c0-0.7-0.6-1.3-1.3-1.3h-5.7
			c-0.7,0-1.3,0.6-1.3,1.3V89c0,0.7,0.6,1.3,1.3,1.3h5.7C311.6,90.3,312.2,89.7,312.2,89z M321.7,89v-5.7c0-0.7-0.6-1.3-1.3-1.3
			h-5.7c-0.7,0-1.3,0.6-1.3,1.3V89c0,0.7,0.6,1.3,1.3,1.3h5.7C321.1,90.3,321.7,89.7,321.7,89z M331.2,89v-5.7
			c0-0.7-0.6-1.3-1.3-1.3h-5.7c-0.7,0-1.3,0.6-1.3,1.3V89c0,0.7,0.6,1.3,1.3,1.3h5.7C330.6,90.3,331.2,89.7,331.2,89z M340.7,89
			v-5.7c0-0.7-0.6-1.3-1.3-1.3h-5.7c-0.7,0-1.3,0.6-1.3,1.3V89c0,0.7,0.6,1.3,1.3,1.3h5.7C340.1,90.3,340.7,89.7,340.7,89z
			 M357.8,89v-5.7c0-0.7-0.6-1.3-1.3-1.3h-13.3c-0.7,0-1.3,0.6-1.3,1.3V89c0,0.7,0.6,1.3,1.3,1.3h13.3
			C357.2,90.3,357.8,89.7,357.8,89z M350.7,100.4h5.7c0.7,0,1.3-0.6,1.3-1.3v-5.7c0-0.7-0.6-1.3-1.3-1.3h-5.7
			c-0.7,0-1.3,0.6-1.3,1.3v5.7C349.5,99.8,350,100.4,350.7,100.4z M341.2,100.4h5.7c0.7,0,1.3-0.6,1.3-1.3v-5.7
			c0-0.7-0.6-1.3-1.3-1.3h-5.7c-0.7,0-1.3,0.6-1.3,1.3v5.7C340,99.8,340.5,100.4,341.2,100.4z M331.7,100.4h5.7
			c0.7,0,1.3-0.6,1.3-1.3v-5.7c0-0.7-0.6-1.3-1.3-1.3h-5.7c-0.7,0-1.3,0.6-1.3,1.3v5.7C330.5,99.8,331,100.4,331.7,100.4z
			 M322.2,100.4h5.7c0.7,0,1.3-0.6,1.3-1.3v-5.7c0-0.7-0.6-1.3-1.3-1.3h-5.7c-0.7,0-1.3,0.6-1.3,1.3v5.7
			C321,99.8,321.5,100.4,322.2,100.4z M312.7,100.4h5.7c0.7,0,1.3-0.6,1.3-1.3v-5.7c0-0.7-0.6-1.3-1.3-1.3h-5.7
			c-0.7,0-1.3,0.6-1.3,1.3v5.7C311.5,99.8,312,100.4,312.7,100.4z M303.2,100.4h5.7c0.7,0,1.3-0.6,1.3-1.3v-5.7
			c0-0.7-0.6-1.3-1.3-1.3h-5.7c-0.7,0-1.3,0.6-1.3,1.3v5.7C302,99.8,302.5,100.4,303.2,100.4z M293.7,100.4h5.7
			c0.7,0,1.3-0.6,1.3-1.3v-5.7c0-0.7-0.6-1.3-1.3-1.3h-5.7c-0.7,0-1.3,0.6-1.3,1.3v5.7C292.5,99.8,293,100.4,293.7,100.4z
			 M284.2,100.4h5.7c0.7,0,1.3-0.6,1.3-1.3v-5.7c0-0.7-0.6-1.3-1.3-1.3h-5.7c-0.7,0-1.3,0.6-1.3,1.3v5.7
			C283,99.8,283.5,100.4,284.2,100.4z M274.7,100.4h5.7c0.7,0,1.3-0.6,1.3-1.3v-5.7c0-0.7-0.6-1.3-1.3-1.3h-5.7
			c-0.7,0-1.3,0.6-1.3,1.3v5.7C273.5,99.8,274,100.4,274.7,100.4z M265.2,100.4h5.7c0.7,0,1.3-0.6,1.3-1.3v-5.7
			c0-0.7-0.6-1.3-1.3-1.3h-5.7c-0.7,0-1.3,0.6-1.3,1.3v5.7C264,99.8,264.5,100.4,265.2,100.4z M255.7,100.4h5.7
			c0.7,0,1.3-0.6,1.3-1.3v-5.7c0-0.7-0.6-1.3-1.3-1.3h-5.7c-0.7,0-1.3,0.6-1.3,1.3v5.7C254.5,99.8,255,100.4,255.7,100.4z
			 M246.2,100.4h5.7c0.7,0,1.3-0.6,1.3-1.3v-5.7c0-0.7-0.6-1.3-1.3-1.3h-5.7c-0.7,0-1.3,0.6-1.3,1.3v5.7
			C245,99.8,245.5,100.4,246.2,100.4z M236.7,100.4h5.7c0.7,0,1.3-0.6,1.3-1.3v-5.7c0-0.7-0.6-1.3-1.3-1.3h-5.7
			c-0.7,0-1.3,0.6-1.3,1.3v5.7C235.5,99.8,236,100.4,236.7,100.4z M227.2,100.4h5.7c0.7,0,1.3-0.6,1.3-1.3v-5.7
			c0-0.7-0.6-1.3-1.3-1.3h-5.7c-0.7,0-1.3,0.6-1.3,1.3v5.7C226,99.8,226.5,100.4,227.2,100.4z M210.2,100.4h13.3
			c0.7,0,1.3-0.6,1.3-1.3v-5.7c0-0.7-0.6-1.3-1.3-1.3h-13.3c-0.7,0-1.3,0.6-1.3,1.3v5.7C208.9,99.8,209.5,100.4,210.2,100.4z
			 M236.7,109.2v-5.7c0-0.7-0.6-1.3-1.3-1.3h-5.7c-0.7,0-1.3,0.6-1.3,1.3v5.7c0,0.7,0.6,1.3,1.3,1.3h5.7
			C236.1,110.5,236.7,110,236.7,109.2z M246.2,109.2v-5.7c0-0.7-0.6-1.3-1.3-1.3h-5.7c-0.7,0-1.3,0.6-1.3,1.3v5.7
			c0,0.7,0.6,1.3,1.3,1.3h5.7C245.6,110.5,246.2,110,246.2,109.2z M255.7,109.2v-5.7c0-0.7-0.6-1.3-1.3-1.3h-5.7
			c-0.7,0-1.3,0.6-1.3,1.3v5.7c0,0.7,0.6,1.3,1.3,1.3h5.7C255.1,110.5,255.7,110,255.7,109.2z M265.2,109.2v-5.7
			c0-0.7-0.6-1.3-1.3-1.3h-5.7c-0.7,0-1.3,0.6-1.3,1.3v5.7c0,0.7,0.6,1.3,1.3,1.3h5.7C264.6,110.5,265.2,110,265.2,109.2z
			 M274.7,109.2v-5.7c0-0.7-0.6-1.3-1.3-1.3h-5.7c-0.7,0-1.3,0.6-1.3,1.3v5.7c0,0.7,0.6,1.3,1.3,1.3h5.7
			C274.1,110.5,274.7,110,274.7,109.2z M284.2,109.2v-5.7c0-0.7-0.6-1.3-1.3-1.3h-5.7c-0.7,0-1.3,0.6-1.3,1.3v5.7
			c0,0.7,0.6,1.3,1.3,1.3h5.7C283.6,110.5,284.2,110,284.2,109.2z M293.7,109.2v-5.7c0-0.7-0.6-1.3-1.3-1.3h-5.7
			c-0.7,0-1.3,0.6-1.3,1.3v5.7c0,0.7,0.6,1.3,1.3,1.3h5.7C293.1,110.5,293.7,110,293.7,109.2z M303.2,109.2v-5.7
			c0-0.7-0.6-1.3-1.3-1.3h-5.7c-0.7,0-1.3,0.6-1.3,1.3v5.7c0,0.7,0.6,1.3,1.3,1.3h5.7C302.6,110.5,303.2,110,303.2,109.2z
			 M312.7,109.2v-5.7c0-0.7-0.6-1.3-1.3-1.3h-5.7c-0.7,0-1.3,0.6-1.3,1.3v5.7c0,0.7,0.6,1.3,1.3,1.3h5.7
			C312.1,110.5,312.7,110,312.7,109.2z M322.2,109.2v-5.7c0-0.7-0.6-1.3-1.3-1.3h-5.7c-0.7,0-1.3,0.6-1.3,1.3v5.7
			c0,0.7,0.6,1.3,1.3,1.3h5.7C321.6,110.5,322.2,110,322.2,109.2z M331.7,109.2v-5.7c0-0.7-0.6-1.3-1.3-1.3h-5.7
			c-0.7,0-1.3,0.6-1.3,1.3v5.7c0,0.7,0.6,1.3,1.3,1.3h5.7C331.1,110.5,331.7,110,331.7,109.2z M341.2,109.2v-5.7
			c0-0.7-0.6-1.3-1.3-1.3h-5.7c-0.7,0-1.3,0.6-1.3,1.3v5.7c0,0.7,0.6,1.3,1.3,1.3h5.7C340.6,110.5,341.2,110,341.2,109.2z
			 M357.8,109.2v-5.7c0-0.7-0.6-1.3-1.3-1.3h-13.3c-0.7,0-1.3,0.6-1.3,1.3v5.7c0,0.7,0.6,1.3,1.3,1.3h13.3
			C357.2,110.5,357.8,110,357.8,109.2z M227.2,109.2v-5.7c0-0.7-0.6-1.3-1.3-1.3h-15.7c-0.7,0-1.3,0.6-1.3,1.3v5.7
			c0,0.7,0.6,1.3,1.3,1.3h15.7C226.6,110.5,227.2,110,227.2,109.2z M244.7,119.4v-5.7c0-0.7-0.6-1.3-1.3-1.3h-5.7
			c-0.7,0-1.3,0.6-1.3,1.3v5.7c0,0.7,0.6,1.3,1.3,1.3h5.7C244.2,120.6,244.7,120.1,244.7,119.4z M217.2,129.5v-5.7
			c0-0.7-0.6-1.3-1.3-1.3h-5.7c-0.7,0-1.3,0.6-1.3,1.3v5.7c0,0.7,0.6,1.3,1.3,1.3h5.7C216.6,130.8,217.2,130.2,217.2,129.5z
			 M226.7,129.5v-5.7c0-0.7-0.6-1.3-1.3-1.3h-5.7c-0.7,0-1.3,0.6-1.3,1.3v5.7c0,0.7,0.6,1.3,1.3,1.3h5.7
			C226.1,130.8,226.7,130.2,226.7,129.5z M236.2,129.5v-5.7c0-0.7-0.6-1.3-1.3-1.3h-5.7c-0.7,0-1.3,0.6-1.3,1.3v5.7
			c0,0.7,0.6,1.3,1.3,1.3h5.7C235.6,130.8,236.2,130.2,236.2,129.5z M311.2,129.5v-5.7c0-0.7-0.6-1.3-1.3-1.3h-53.2
			c-0.7,0-1.3,0.6-1.3,1.3v5.7c0,0.7,0.6,1.3,1.3,1.3h53.2C310.7,130.8,311.2,130.2,311.2,129.5z M254.2,119.4v-5.7
			c0-0.7-0.6-1.3-1.3-1.3h-5.7c-0.7,0-1.3,0.6-1.3,1.3v5.7c0,0.7,0.6,1.3,1.3,1.3h5.7C253.7,120.6,254.2,120.1,254.2,119.4z
			 M263.7,119.4v-5.7c0-0.7-0.6-1.3-1.3-1.3h-5.7c-0.7,0-1.3,0.6-1.3,1.3v5.7c0,0.7,0.6,1.3,1.3,1.3h5.7
			C263.2,120.6,263.7,120.1,263.7,119.4z M273.2,119.4v-5.7c0-0.7-0.6-1.3-1.3-1.3h-5.7c-0.7,0-1.3,0.6-1.3,1.3v5.7
			c0,0.7,0.6,1.3,1.3,1.3h5.7C272.7,120.6,273.2,120.1,273.2,119.4z M282.7,119.4v-5.7c0-0.7-0.6-1.3-1.3-1.3h-5.7
			c-0.7,0-1.3,0.6-1.3,1.3v5.7c0,0.7,0.6,1.3,1.3,1.3h5.7C282.2,120.6,282.7,120.1,282.7,119.4z M292.2,119.4v-5.7
			c0-0.7-0.6-1.3-1.3-1.3h-5.7c-0.7,0-1.3,0.6-1.3,1.3v5.7c0,0.7,0.6,1.3,1.3,1.3h5.7C291.7,120.6,292.2,120.1,292.2,119.4z
			 M301.7,119.4v-5.7c0-0.7-0.6-1.3-1.3-1.3h-5.7c-0.7,0-1.3,0.6-1.3,1.3v5.7c0,0.7,0.6,1.3,1.3,1.3h5.7
			C301.2,120.6,301.7,120.1,301.7,119.4z M311.2,119.4v-5.7c0-0.7-0.6-1.3-1.3-1.3h-5.7c-0.7,0-1.3,0.6-1.3,1.3v5.7
			c0,0.7,0.6,1.3,1.3,1.3h5.7C310.7,120.6,311.2,120.1,311.2,119.4z M320.7,119.4v-5.7c0-0.7-0.6-1.3-1.3-1.3h-5.7
			c-0.7,0-1.3,0.6-1.3,1.3v5.7c0,0.7,0.6,1.3,1.3,1.3h5.7C320.2,120.6,320.7,120.1,320.7,119.4z M330.2,119.4v-5.7
			c0-0.7-0.6-1.3-1.3-1.3h-5.7c-0.7,0-1.3,0.6-1.3,1.3v5.7c0,0.7,0.6,1.3,1.3,1.3h5.7C329.7,120.6,330.2,120.1,330.2,119.4z
			 M357.8,119.4v-5.7c0-0.7-0.6-1.3-1.3-1.3h-23.8c-0.7,0-1.3,0.6-1.3,1.3v5.7c0,0.7,0.6,1.3,1.3,1.3h23.8
			C357.2,120.6,357.8,120.1,357.8,119.4z M235.2,119.4v-5.7c0-0.7-0.6-1.3-1.3-1.3h-23.8c-0.7,0-1.3,0.6-1.3,1.3v5.7
			c0,0.7,0.6,1.3,1.3,1.3H234C234.7,120.6,235.2,120.1,235.2,119.4z M338.5,129.5v-1.6c0-0.7-0.6-1.3-1.3-1.3h-5.7
			c-0.7,0-1.3,0.6-1.3,1.3v1.6c0,0.7,0.6,1.3,1.3,1.3h5.7C338,130.8,338.5,130.2,338.5,129.5z M357.5,129.5v-1.6
			c0-0.7-0.6-1.3-1.3-1.3h-5.7c-0.7,0-1.3,0.6-1.3,1.3v1.6c0,0.7,0.6,1.3,1.3,1.3h5.7C357,130.8,357.5,130.2,357.5,129.5z
			 M329,129.5v-5.7c0-0.7-0.6-1.3-1.3-1.3h-14.3c-0.7,0-1.3,0.6-1.3,1.3v5.7c0,0.7,0.6,1.3,1.3,1.3h14.3
			C328.5,130.8,329,130.2,329,129.5z M254.2,129.5v-5.7c0-0.7-0.6-1.3-1.3-1.3h-14.3c-0.7,0-1.3,0.6-1.3,1.3v5.7
			c0,0.7,0.6,1.3,1.3,1.3H253C253.7,130.8,254.2,130.2,254.2,129.5z M348,129.5v-1.9c0-0.2-0.2-0.3-0.3-0.3h-7.6
			c-0.2,0-0.3,0.2-0.3,0.3v1.9c0,0.7,0.6,1.3,1.3,1.3h5.7C347.5,130.8,348,130.2,348,129.5z M339.7,123.7v1.9c0,0.2,0.2,0.3,0.3,0.3
			h7.6c0.2,0,0.3-0.2,0.3-0.3v-1.9c0-0.7-0.6-1.3-1.3-1.3H341C340.3,122.5,339.7,123,339.7,123.7z"/>
		<path class="st13" d="M307.8,140.5v24.1c0,1-0.8,1.8-1.9,1.8h-44.1c-0.7,0-1.3-0.4-1.7-0.9c0.3,0.2,0.6,0.3,1,0.3h44.1
			c1,0,1.9-0.8,1.9-1.8v-24.1c0-0.3-0.1-0.6-0.2-0.9C307.4,139.3,307.8,139.9,307.8,140.5z"/>
		<path class="st13" d="M295.8,171.5h-25.2c-1,0-1.8,0.8-1.8,1.8l0,0h28.8l0,0C297.6,172.3,296.8,171.5,295.8,171.5z"/>
		<path class="st27" d="M305.2,138.1h-44.1c-1,0-1.9,0.8-1.9,1.9v23.9c0,1,0.8,1.9,1.9,1.9h44.1c1,0,1.9-0.8,1.9-1.9V140
			C307.1,138.9,306.2,138.1,305.2,138.1z"/>
	</g>
	<g>
		<polygon class="st6" points="474.9,77.4 474.9,77.4 474.9,65.2 470.7,65.2 470.7,62.4 469.2,62.4 469.2,65.2 465.3,65.2 
			465.3,62.4 463.8,62.4 463.8,65.2 459.9,65.2 459.9,62.4 458.3,62.4 458.4,65.2 454.4,65.2 454.4,62.4 452.9,62.4 452.9,65.2 
			449,65.2 449,62.4 447.5,62.4 447.5,65.2 443.5,65.2 443.5,62.4 442,62.4 442,65.2 438.1,65.2 438.1,62.4 436.6,62.4 436.6,65.2 
			432.7,65.2 432.7,62.4 431.1,62.4 431.1,65.2 427.2,65.2 427.2,62.4 425.7,62.4 425.7,65.2 421.8,65.2 421.8,62.4 420.3,62.4 
			420.3,65.2 416.3,65.2 416.3,62.4 414.8,62.4 414.8,65.2 410.9,65.2 410.9,62.4 409.4,62.4 409.4,65.2 405.5,65.2 405.4,62.4 
			403.9,62.4 403.9,65.2 400,65.2 400,62.4 398.5,62.4 398.5,65.2 394.5,65.2 394.5,62.4 393,62.4 393,65.2 388.9,65.2 388.9,137 
			474.9,136.9 		"/>
		<g>
			<rect x="386.1" y="62.9" class="st7" width="86" height="71.7"/>
			<rect x="386.1" y="62.9" class="st8" width="86" height="12.2"/>
			<g>
				<path class="st9" d="M392.7,67.9c0,0.9-0.7,1.7-1.7,1.7c-0.9,0-1.7-0.7-1.7-1.7c0-0.9,0.7-1.7,1.7-1.7
					C391.9,66.2,392.7,66.9,392.7,67.9z"/>
				<path class="st9" d="M398.1,67.9c0,0.9-0.7,1.7-1.7,1.7c-0.9,0-1.7-0.7-1.7-1.7s0.7-1.7,1.7-1.7
					C397.3,66.2,398.1,66.9,398.1,67.9z"/>
				<path class="st9" d="M403.5,67.9c0,0.9-0.7,1.7-1.7,1.7c-0.9,0-1.7-0.7-1.7-1.7c0-0.9,0.7-1.7,1.7-1.7
					C402.8,66.2,403.5,66.9,403.5,67.9z"/>
				<path class="st9" d="M409,67.9c0,0.9-0.7,1.7-1.7,1.7c-0.9,0-1.7-0.7-1.7-1.7c0-0.9,0.7-1.7,1.7-1.7
					C408.2,66.2,409,66.9,409,67.9z"/>
				<path class="st9" d="M414.4,67.9c0,0.9-0.7,1.7-1.7,1.7c-0.9,0-1.7-0.7-1.7-1.7c0-0.9,0.7-1.7,1.7-1.7
					C413.7,66.2,414.4,66.9,414.4,67.9z"/>
				<path class="st9" d="M419.9,67.9c0,0.9-0.7,1.7-1.7,1.7c-0.9,0-1.7-0.7-1.7-1.7c0-0.9,0.7-1.7,1.7-1.7
					C419.1,66.2,419.9,66.9,419.9,67.9z"/>
				<path class="st9" d="M425.3,67.8c0,0.9-0.7,1.7-1.7,1.7c-0.9,0-1.7-0.7-1.7-1.7c0-0.9,0.7-1.7,1.7-1.7
					C424.6,66.2,425.3,66.9,425.3,67.8z"/>
				<path class="st9" d="M430.7,67.8c0,0.9-0.7,1.7-1.7,1.7c-0.9,0-1.7-0.7-1.7-1.7c0-0.9,0.7-1.7,1.7-1.7
					C430,66.2,430.7,66.9,430.7,67.8z"/>
				<path class="st9" d="M436.2,67.8c0,0.9-0.7,1.7-1.7,1.7c-0.9,0-1.7-0.7-1.7-1.7c0-0.9,0.7-1.7,1.7-1.7
					C435.4,66.2,436.2,66.9,436.2,67.8z"/>
				<path class="st9" d="M441.6,67.8c0,0.9-0.7,1.7-1.7,1.7c-0.9,0-1.7-0.7-1.7-1.7c0-0.9,0.7-1.7,1.7-1.7
					C440.9,66.2,441.6,66.9,441.6,67.8z"/>
				<path class="st9" d="M447.1,67.8c0,0.9-0.7,1.7-1.7,1.7c-0.9,0-1.7-0.7-1.7-1.7c0-0.9,0.7-1.7,1.7-1.7
					C446.3,66.2,447.1,66.9,447.1,67.8z"/>
				<path class="st9" d="M452.5,67.8c0,0.9-0.7,1.7-1.7,1.7c-0.9,0-1.7-0.7-1.7-1.7c0-0.9,0.7-1.7,1.7-1.7
					C451.8,66.2,452.5,66.9,452.5,67.8z"/>
				<path class="st9" d="M457.9,67.8c0,0.9-0.7,1.7-1.7,1.7c-0.9,0-1.7-0.7-1.7-1.7c0-0.9,0.7-1.7,1.7-1.7
					C457.2,66.2,457.9,66.9,457.9,67.8z"/>
				<path class="st9" d="M463.4,67.8c0,0.9-0.7,1.7-1.7,1.7c-0.9,0-1.7-0.7-1.7-1.7c0-0.9,0.7-1.7,1.7-1.7
					C462.6,66.2,463.4,66.9,463.4,67.8z"/>
				<path class="st9" d="M468.8,67.8c0,0.9-0.7,1.7-1.7,1.7c-0.9,0-1.7-0.7-1.7-1.7c0-0.9,0.7-1.7,1.7-1.7
					C468.1,66.2,468.8,66.9,468.8,67.8z"/>
			</g>
			<g>
				<rect x="390.2" y="60.1" class="st7" width="1.5" height="7.6"/>
				<rect x="395.7" y="60.1" class="st7" width="1.5" height="7.6"/>
				<rect x="401.1" y="60.1" class="st7" width="1.5" height="7.6"/>
				<rect x="406.6" y="60.1" class="st7" width="1.5" height="7.6"/>
				<rect x="412" y="60.1" class="st7" width="1.5" height="7.6"/>
				<rect x="417.5" y="60.1" class="st7" width="1.5" height="7.6"/>
				<rect x="422.9" y="60.1" class="st7" width="1.5" height="7.6"/>
				<rect x="428.3" y="60.1" class="st7" width="1.5" height="7.6"/>
				<rect x="433.8" y="60.1" class="st7" width="1.5" height="7.6"/>
				<rect x="439.2" y="60.1" class="st7" width="1.5" height="7.6"/>
				<rect x="444.7" y="60.1" class="st7" width="1.5" height="7.6"/>
				<rect x="450.1" y="60.1" class="st7" width="1.5" height="7.6"/>
				<rect x="455.5" y="60.1" class="st7" width="1.5" height="7.6"/>
				<rect x="461" y="60.1" class="st7" width="1.5" height="7.6"/>
				<rect x="466.4" y="60.1" class="st7" width="1.5" height="7.6"/>
			</g>
			<rect x="436.1" y="90.7" class="st7" width="14.4" height="9.6"/>
			<path class="st10" d="M436.6,81.8l13.5,0l0,8.7l-13.5,0L436.6,81.8z M450.1,99.9l-13.5,0l0-8.6l13.5,0L450.1,99.9z M450.1,109.3
				l-13.5,0l0-8.6l13.5,0L450.1,109.3z M450.1,118.7l-13.5,0l0-8.6l13.5,0L450.1,118.7L450.1,118.7z M408.1,118.7l0-8.6l13.5,0
				l0,8.6L408.1,118.7z M408.1,100.7l13.5,0l0,8.6l-13.5,0L408.1,100.7z M408.1,91.3l13.5,0l0,8.6l-13.5,0L408.1,91.3z M435.9,91.3
				l0,8.6l-13.5,0l0-8.6L435.9,91.3z M435.9,109.3l-13.5,0l0-8.6l13.5,0L435.9,109.3z M422.3,118.7l0-8.6l13.5,0l0,8.6L422.3,118.7z
				 M422.3,81.8l13.5,0l0,8.7l-13.5,0L422.3,81.8z M408.1,81.8l13.5,0l0,8.7l-13.5,0L408.1,81.8z M393.8,91.3l13.5,0l0,8.6l-13.5,0
				L393.8,91.3z M393.8,100.7l13.5,0l0,8.6l-13.5,0L393.8,100.7z M393.8,110.1l13.5,0l0,8.6l-13.5,0L393.8,110.1z M407.3,128.2
				l-13.5,0l0-8.7l13.5,0L407.3,128.2z M421.6,128.2l-13.5,0l0-8.7l13.5,0L421.6,128.2z M435.9,128.2l-13.5,0l0-8.7l13.5,0
				L435.9,128.2L435.9,128.2z M436.6,128.2l0-8.7l13.5,0l15,0l0-0.8l0-8.6l0-0.8l0-8.6l0-0.8l0-8.6l0-0.8l0-9.4l-14.3,0l-0.7,0
				l-13.5,0l-0.7,0l-13.5,0l-0.7,0l-13.5,0l-0.7,0l0,0.7l0,8.7l-13.5,0l-0.7,0l0,0.8l0,8.6l0,0.8l0,8.6l0,0.8l0,8.6l0,0.8l0,9.4
				l14.3,0l0.7,0l13.5,0l0.7,0l13.5,0l0.7,0L436.6,128.2z M464.4,118.7l-13.5,0l0-8.6l13.5,0L464.4,118.7z M464.4,109.3l-13.5,0
				l0-8.6l13.5,0L464.4,109.3z M464.4,99.9l-13.5,0l0-8.6l13.5,0L464.4,99.9z M450.8,90.5l0-8.7l13.5,0l0,8.7L450.8,90.5z"/>
			<g>
				<rect x="409.4" y="82.8" class="st10" width="2.3" height="1.8"/>
				<rect x="423.6" y="82.8" class="st10" width="2.3" height="1.8"/>
				<rect x="437.8" y="82.8" class="st10" width="2.3" height="1.8"/>
				<rect x="452.1" y="82.8" class="st10" width="2.3" height="1.8"/>
			</g>
			<g>
				<rect x="395.2" y="92.5" class="st10" width="2.3" height="1.8"/>
				<rect x="409.4" y="92.5" class="st10" width="2.3" height="1.8"/>
				<rect x="423.6" y="92.4" class="st10" width="2.3" height="1.8"/>
				<rect x="437.8" y="92.4" class="st10" width="2.3" height="1.8"/>
				<rect x="452.1" y="92.4" class="st10" width="2.3" height="1.8"/>
			</g>
			<g>
				<rect x="395.2" y="102" class="st10" width="2.3" height="1.8"/>
				<rect x="409.4" y="102" class="st10" width="2.3" height="1.8"/>
				<rect x="423.6" y="102" class="st10" width="2.3" height="1.8"/>
				<rect x="437.8" y="102" class="st10" width="2.3" height="1.8"/>
				<rect x="452.1" y="102" class="st10" width="2.3" height="1.8"/>
			</g>
			<g>
				<rect x="395.2" y="111.5" class="st10" width="2.3" height="1.8"/>
				<rect x="409.4" y="111.4" class="st10" width="2.3" height="1.8"/>
				<rect x="423.6" y="111.4" class="st10" width="2.3" height="1.8"/>
				<rect x="437.8" y="111.4" class="st10" width="2.3" height="1.8"/>
				<rect x="452.1" y="111.4" class="st10" width="2.3" height="1.8"/>
			</g>
			<g>
				<rect x="395.2" y="121" class="st10" width="2.3" height="1.8"/>
				<rect x="409.4" y="121" class="st10" width="2.3" height="1.8"/>
				<rect x="423.6" y="121" class="st10" width="2.3" height="1.8"/>
			</g>
			<g>
				<path class="st11" d="M418.5,83.1c-0.3-0.4-0.9-0.4-1.3-0.1l-2.3,2l-2.4-1.7c-0.4-0.3-1-0.2-1.2,0.2c-0.3,0.4-0.2,1,0.2,1.2
					l2.1,1.5l-2,1.8c-0.4,0.3-0.4,0.9-0.1,1.3c0.1,0.1,0.3,0.2,0.5,0.3c0.3,0.1,0.6,0,0.8-0.2l2.3-2l2.7,1.9
					c0.1,0.1,0.2,0.1,0.3,0.1c0.3,0.1,0.7-0.1,0.9-0.4c0.3-0.4,0.2-1-0.2-1.2l-2.4-1.7l2-1.8C418.8,84.1,418.8,83.5,418.5,83.1z"/>
			</g>
			<g>
				<path class="st11" d="M432.7,83.4c-0.3-0.4-0.9-0.4-1.3-0.1l-2.3,2l-2.4-1.7c-0.4-0.3-1-0.2-1.2,0.2c-0.3,0.4-0.2,1,0.2,1.2
					l2.1,1.5l-2,1.8c-0.4,0.3-0.4,0.9-0.1,1.3c0.1,0.1,0.3,0.2,0.5,0.3c0.3,0.1,0.6,0,0.8-0.2l2.3-2l2.7,1.9
					c0.1,0.1,0.2,0.1,0.3,0.1c0.3,0.1,0.7-0.1,0.9-0.4c0.3-0.4,0.2-1-0.2-1.2l-2.4-1.7l2-1.8C433,84.3,433,83.7,432.7,83.4z"/>
			</g>
			<g>
				<path class="st11" d="M447.2,83c-0.3-0.4-0.9-0.4-1.3-0.1l-2.3,2l-2.4-1.7c-0.4-0.3-1-0.2-1.2,0.2c-0.3,0.4-0.2,1,0.2,1.2
					l2.1,1.5l-2,1.8c-0.4,0.3-0.4,0.9-0.1,1.3c0.1,0.1,0.3,0.2,0.5,0.3c0.3,0.1,0.6,0,0.8-0.2l2.3-2l2.7,1.9
					c0.1,0.1,0.2,0.1,0.3,0.1c0.3,0.1,0.7-0.1,0.9-0.4c0.3-0.4,0.2-1-0.2-1.2l-2.4-1.7l2-1.8C447.5,84,447.6,83.4,447.2,83z"/>
			</g>
			<g>
				<path class="st11" d="M460.9,83.5c-0.3-0.4-0.9-0.4-1.3-0.1l-2.3,2l-2.4-1.7c-0.4-0.3-1-0.2-1.2,0.2c-0.3,0.4-0.2,1,0.2,1.2
					l2.1,1.5l-2,1.8c-0.4,0.3-0.4,0.9-0.1,1.3c0.1,0.1,0.3,0.2,0.5,0.3c0.3,0.1,0.6,0,0.8-0.2l2.3-2l2.7,1.9
					c0.1,0.1,0.2,0.1,0.3,0.1c0.3,0.1,0.7-0.1,0.9-0.4c0.3-0.4,0.2-1-0.2-1.2l-2.4-1.7l2-1.8C461.2,84.4,461.2,83.8,460.9,83.5z"/>
			</g>
			<g>
				<path class="st11" d="M404.9,92.6c-0.3-0.4-0.9-0.4-1.3-0.1l-2.3,2l-2.4-1.7c-0.4-0.3-1-0.2-1.2,0.2c-0.3,0.4-0.2,1,0.2,1.2
					l2.1,1.5l-2,1.8c-0.4,0.3-0.4,0.9-0.1,1.3c0.1,0.1,0.3,0.2,0.5,0.3c0.3,0.1,0.6,0,0.8-0.2l2.3-2l2.7,1.9
					c0.1,0.1,0.2,0.1,0.3,0.1c0.3,0.1,0.7-0.1,0.9-0.4c0.3-0.4,0.2-1-0.2-1.2l-2.4-1.7l2-1.8C405.2,93.5,405.3,92.9,404.9,92.6z"/>
			</g>
			<g>
				<path class="st11" d="M417.9,92.5c-0.3-0.4-0.9-0.4-1.3-0.1l-2.3,2l-2.4-1.7c-0.4-0.3-1-0.2-1.2,0.2c-0.3,0.4-0.2,1,0.2,1.2
					l2.1,1.5l-2,1.8c-0.4,0.3-0.4,0.9-0.1,1.3c0.1,0.1,0.3,0.2,0.5,0.3c0.3,0.1,0.6,0,0.8-0.2l2.3-2l2.7,1.9
					c0.1,0.1,0.2,0.1,0.3,0.1c0.3,0.1,0.7-0.1,0.9-0.4c0.3-0.4,0.2-1-0.2-1.2l-2.4-1.7l2-1.8C418.2,93.4,418.2,92.8,417.9,92.5z"/>
			</g>
		</g>
	</g>
	<g>
		<g>
			<polygon class="st6" points="424,200.6 304.8,200.6 304.8,336.3 304.8,336.3 304.8,360.5 395.6,360.5 424,360.5 424,360.5 
				424,360.5 			"/>
			<g>
				<g>
					<rect x="297.9" y="192.6" class="st6" width="122.6" height="164.6"/>
				</g>
				<rect x="297.9" y="192.6" class="st7" width="122.6" height="164.6"/>
				<polygon class="st12" points="420.5,192.6 420.5,220.7 349.6,192.6 				"/>
				<rect x="322" y="236.9" class="st13" width="83.3" height="2"/>
				<rect x="345.7" y="228.9" class="st13" width="35.8" height="2"/>
				<rect x="313.1" y="242.3" class="st13" width="92.1" height="2"/>
				<rect x="313.1" y="247.6" class="st13" width="92.1" height="2"/>
				<rect x="322" y="252.9" class="st13" width="83.3" height="2"/>
				<rect x="313.1" y="258.3" class="st13" width="92.1" height="2"/>
				<rect x="313.1" y="263.6" class="st13" width="92.1" height="2"/>
				<rect x="313.1" y="268.9" class="st13" width="92.1" height="2"/>
				<rect x="313.1" y="274.2" class="st13" width="92.1" height="2"/>
				<rect x="313.1" y="279.6" class="st13" width="92.1" height="2"/>
				<rect x="313.1" y="284.9" class="st13" width="92.1" height="2"/>
				<rect x="313.1" y="290.2" class="st13" width="92.1" height="2"/>
				<rect x="313.1" y="295.5" class="st13" width="92.1" height="2"/>
				<rect x="322" y="300.9" class="st13" width="83.3" height="2"/>
				<rect x="313.1" y="306.2" class="st13" width="92.1" height="2"/>
				<rect x="387.2" y="324.3" class="st13" width="18.1" height="2"/>
				<rect x="313.1" y="311.5" class="st13" width="92.1" height="2"/>
				<polygon class="st12" points="391.3,357.2 297.9,357.2 297.9,332.2 				"/>
				<polygon class="st14" points="368.4,192.6 364.5,192.7 420.5,240.3 420.5,204.8 				"/>
				<polygon class="st14" points="297.9,353.9 420.5,337.9 420.5,357.2 297.9,357.2 				"/>
				<g class="st13">
					<path d="M395.1,198.8h-26c-0.9,0-1.8-0.3-2.7-0.9c-0.6-0.4-2.1-0.9-4.4-0.9c-2.3,0-3.8,0.5-4.4,0.9c-0.8,0.6-1.8,0.9-2.7,0.9
						h-26c-1.1,0-1.9-0.8-1.9-1.8v-5c0-1,0.9-1.8,1.9-1.8h66c1.1,0,1.9,0.8,1.9,1.8v5C397.1,197.9,396.2,198.8,395.1,198.8z
						 M362.1,195.7c2.2,0,4.1,0.4,5.1,1.1c0.6,0.4,1.3,0.6,1.9,0.6h26c0.3,0,0.6-0.2,0.6-0.5v-5c0-0.3-0.3-0.5-0.6-0.5h-66
						c-0.3,0-0.6,0.2-0.6,0.5v5c0,0.3,0.3,0.5,0.6,0.5h26c0.6,0,1.3-0.2,1.9-0.6C358,196.1,359.9,195.7,362.1,195.7z"/>
				</g>
				<g>
					<path class="st11" d="M394.6,197.9h-26c-0.9,0-1.8-0.3-2.7-0.9c-0.6-0.4-2.1-0.9-4.4-0.9c-2.3,0-3.8,0.5-4.4,0.9
						c-0.8,0.6-1.8,0.9-2.7,0.9h-26c-1.1,0-1.9-0.8-1.9-1.8v-5c0-1,0.9-1.8,1.9-1.8h66c1.1,0,1.9,0.8,1.9,1.8v5
						C396.5,197.1,395.7,197.9,394.6,197.9z M361.6,194.9c2.2,0,4.1,0.4,5.1,1.1c0.6,0.4,1.3,0.6,1.9,0.6h26c0.3,0,0.6-0.2,0.6-0.5
						v-5c0-0.3-0.3-0.5-0.6-0.5h-66c-0.3,0-0.6,0.2-0.6,0.5v5c0,0.3,0.3,0.5,0.6,0.5h26c0.6,0,1.3-0.2,1.9-0.6
						C357.4,195.3,359.4,194.9,361.6,194.9z"/>
				</g>
			</g>
		</g>
		<path class="st6" d="M391.5,255.4c-1.1-1.5-2.2-2.5-2.6-2.3c-2.6,1.3-5.2,2.6-7.6,4.1l-30.6,20.7l-1.2,1.1l0.2,0.3l-28.8,21
			L306.8,314l0.1,0.2c-1.2,0.9-2,1.8-1.8,2.1c0.2,0.3,1.3-0.2,2.6-1l0.2,0.2l17.4-8.9l29.6-19.9l0.2,0.2l1.4-0.8l20.5-15
			c0.5,0.5,1.1,1.2,0.9,1.6c-2.3,1.3-4.6,2.5-6.3,3.4c-1.8,0.9-3.3,1.7-4,2.1c-2.5,1.8-6.9,6.4-7.1,6.6c0,0-0.5,0.7-0.1,1.1
			c0.3,0.2,0.9-0.4,0.9-0.4c0,0,4.5-4.8,7-6.5c0.6-0.4,2.1-1.2,3.8-2.1c7.3-3.7,13.7-7.2,13.2-10.1c0-0.2,0-0.3-0.1-0.4
			c-0.3-0.4-0.7-0.5-1.1-0.6l2.2-1.6c2.3-1.8,4.4-3.7,6.5-5.8c0,0,0,0,0,0C393.1,258.3,392.5,256.9,391.5,255.4z"/>
		<g>
			<path class="st10" d="M391.2,256.8c-0.4,0.3-1.5-0.8-2.6-2.3c-1.1-1.5-1.6-2.9-1.3-3.2c0.4-0.3,1.5,0.8,2.6,2.3
				C391,255.1,391.6,256.6,391.2,256.8z"/>
			<path class="st15" d="M380.2,268.8c2.2-1.5,4-3.3,3.5-4c-1.8-2.5-8.8,4.1-8.8,4.1s2.3,1.8,1.3,2.3
				C375.2,271.8,378.1,270.3,380.2,268.8z"/>
			<path class="st8" d="M305.6,312.3c1.3-0.9,2.5-1.4,2.7-1.1c0.2,0.3-0.7,1.3-1.9,2.2c-1.3,0.9-2.5,1.4-2.7,1.1
				C303.4,314.2,304.3,313.2,305.6,312.3z"/>
			<polygon class="st10" points="319.4,298.6 323.8,304.9 306.3,313.7 305.3,312.2 			"/>
			<polygon class="st11" points="349.4,276.7 354.6,284.2 323.8,304.9 319.4,298.6 			"/>
			<g>
				<path class="st11" d="M379.8,255.5c1.7,2.3,3.4,4.7,5.1,7c-9.9,7.3-20.2,14.6-30,21.8c-2-2.7-4-5.5-5.9-8.2
					C359.2,269.3,369.8,262.4,379.8,255.5z"/>
			</g>
			<polygon class="st10" points="349.2,276.2 355,284.4 353.5,285.2 348,277.3 			"/>
			<path class="st8" d="M391.2,256.8c-1.3-1.8-2.5-3.6-3.8-5.4c-2.6,1.3-5.2,2.6-7.6,4.1c1.6,2.3,3.3,4.7,4.9,7
				C387,260.8,389.2,258.8,391.2,256.8z"/>
			
				<rect x="336.2" y="276.8" transform="matrix(-0.5752 -0.818 0.818 -0.5752 291.644 737.2961)" class="st16" width="2.1" height="32.2"/>
			
				<rect x="367.3" y="255" transform="matrix(-0.5752 -0.818 0.818 -0.5752 358.3562 728.3076)" class="st16" width="2.1" height="32.2"/>
			<polygon class="st17" points="388.7,255.5 389.5,256.6 384.9,260.7 383.7,259 			"/>
			<polygon class="st18" points="305.9,313.1 323.2,304.1 322,302.4 			"/>
			<g>
				<path class="st12" d="M359,283.1c0.2-0.2,4.6-4.8,7.1-6.6c0.7-0.5,2.1-1.2,4-2.1c4.4-2.2,13.4-6.8,12.7-9.1l0.9-0.3
					c0.9,2.9-5.7,6.5-13.2,10.3c-1.7,0.9-3.2,1.6-3.8,2.1c-2.4,1.7-6.9,6.4-7,6.5c0,0-0.6,0.6-0.9,0.4
					C358.5,283.8,359,283.1,359,283.1z"/>
			</g>
		</g>
	</g>
	<g>
		<polygon class="st6" points="205,145.2 86.3,145.2 86.3,280.2 86.3,280.2 86.3,304.4 176.7,304.4 205,304.4 205,304.4 205,304.4 
					"/>
		<g>
			<rect x="82.7" y="142" class="st7" width="118.6" height="159.2"/>
			<g>
				<rect x="92.1" y="249.7" class="st19" width="3" height="3"/>
				<rect x="92.1" y="246.6" class="st19" width="3" height="3"/>
				<rect x="92.1" y="243.6" class="st19" width="3" height="3"/>
				<rect x="92.1" y="240.6" class="st19" width="3" height="3"/>
				<rect x="92.1" y="237.6" class="st19" width="3" height="3"/>
				<rect x="92.1" y="234.5" class="st19" width="3" height="3"/>
				<rect x="92.1" y="231.5" class="st19" width="3" height="3"/>
				<rect x="92.1" y="228.5" class="st19" width="3" height="3"/>
				<rect x="92.1" y="225.4" class="st19" width="3" height="3"/>
				<rect x="95.1" y="249.7" class="st19" width="3" height="3"/>
				<rect x="95.1" y="246.6" class="st19" width="3" height="3"/>
				<rect x="95.1" y="243.6" class="st19" width="3" height="3"/>
				<rect x="95.1" y="240.6" class="st19" width="3" height="3"/>
				<rect x="95.1" y="237.6" class="st19" width="3" height="3"/>
				<rect x="95.1" y="234.5" class="st19" width="3" height="3"/>
				<rect x="95.1" y="231.5" class="st19" width="3" height="3"/>
				<rect x="95.1" y="228.5" class="st19" width="3" height="3"/>
				<rect x="95.1" y="225.4" class="st19" width="3" height="3"/>
				<rect x="98.1" y="249.7" class="st19" width="3" height="3"/>
				<rect x="98.1" y="246.6" class="st19" width="3" height="3"/>
				<rect x="98.1" y="243.6" class="st19" width="3" height="3"/>
				<rect x="98.1" y="240.6" class="st19" width="3" height="3"/>
				<rect x="98.1" y="237.6" class="st19" width="3" height="3"/>
				<rect x="98.1" y="234.5" class="st19" width="3" height="3"/>
				<rect x="98.1" y="231.5" class="st19" width="3" height="3"/>
				<rect x="98.1" y="228.5" class="st19" width="3" height="3"/>
				<rect x="98.1" y="225.4" class="st19" width="3" height="3"/>
				<rect x="101.1" y="249.7" class="st19" width="3" height="3"/>
				<rect x="101.1" y="246.6" class="st19" width="3" height="3"/>
				<rect x="101.1" y="243.6" class="st19" width="3" height="3"/>
				<rect x="101.1" y="240.6" class="st19" width="3" height="3"/>
				<rect x="101.1" y="237.6" class="st19" width="3" height="3"/>
				<rect x="101.1" y="234.5" class="st19" width="3" height="3"/>
				<rect x="101.1" y="231.5" class="st19" width="3" height="3"/>
				<rect x="101.1" y="228.5" class="st19" width="3" height="3"/>
				<rect x="101.1" y="225.4" class="st19" width="3" height="3"/>
				<rect x="104.2" y="249.7" class="st19" width="3" height="3"/>
				<rect x="104.2" y="246.6" class="st19" width="3" height="3"/>
				<rect x="104.2" y="243.6" class="st19" width="3" height="3"/>
				<rect x="104.2" y="240.6" class="st19" width="3" height="3"/>
				<rect x="104.2" y="237.6" class="st19" width="3" height="3"/>
				<rect x="104.2" y="234.5" class="st19" width="3" height="3"/>
				<rect x="104.2" y="231.5" class="st19" width="3" height="3"/>
				<rect x="104.2" y="228.5" class="st19" width="3" height="3"/>
				<rect x="104.2" y="225.4" class="st19" width="3" height="3"/>
				<rect x="107.2" y="249.7" class="st19" width="3" height="3"/>
				<rect x="107.2" y="246.6" class="st19" width="3" height="3"/>
				<rect x="107.2" y="243.6" class="st19" width="3" height="3"/>
				<rect x="107.2" y="240.6" class="st19" width="3" height="3"/>
				<rect x="107.2" y="237.6" class="st19" width="3" height="3"/>
				<rect x="107.2" y="234.5" class="st19" width="3" height="3"/>
				<rect x="107.2" y="231.5" class="st19" width="3" height="3"/>
				<rect x="107.2" y="228.5" class="st19" width="3" height="3"/>
				<rect x="107.2" y="225.4" class="st19" width="3" height="3"/>
				<rect x="110.2" y="249.7" class="st19" width="3" height="3"/>
				<rect x="110.2" y="246.6" class="st19" width="3" height="3"/>
				<rect x="110.2" y="243.6" class="st19" width="3" height="3"/>
				<rect x="110.2" y="240.6" class="st19" width="3" height="3"/>
				<rect x="110.2" y="237.6" class="st19" width="3" height="3"/>
				<rect x="110.2" y="234.5" class="st19" width="3" height="3"/>
				<rect x="110.2" y="231.5" class="st19" width="3" height="3"/>
				<rect x="110.2" y="228.5" class="st19" width="3" height="3"/>
				<rect x="110.2" y="225.4" class="st19" width="3" height="3"/>
				<rect x="113.3" y="249.7" class="st19" width="3" height="3"/>
				<rect x="113.3" y="246.6" class="st19" width="3" height="3"/>
				<rect x="113.3" y="243.6" class="st19" width="3" height="3"/>
				<rect x="113.3" y="240.6" class="st19" width="3" height="3"/>
				<rect x="113.3" y="237.6" class="st19" width="3" height="3"/>
				<rect x="113.3" y="234.5" class="st19" width="3" height="3"/>
				<rect x="113.3" y="231.5" class="st19" width="3" height="3"/>
				<rect x="113.3" y="228.5" class="st19" width="3" height="3"/>
				<rect x="113.3" y="225.4" class="st19" width="3" height="3"/>
				<rect x="116.3" y="249.7" class="st19" width="3" height="3"/>
				<rect x="116.3" y="246.6" class="st19" width="3" height="3"/>
				<rect x="116.3" y="243.6" class="st19" width="3" height="3"/>
				<rect x="116.3" y="240.6" class="st19" width="3" height="3"/>
				<rect x="116.3" y="237.6" class="st19" width="3" height="3"/>
				<rect x="116.3" y="234.5" class="st19" width="3" height="3"/>
				<rect x="116.3" y="231.5" class="st19" width="3" height="3"/>
				<rect x="116.3" y="228.5" class="st19" width="3" height="3"/>
				<rect x="116.3" y="225.4" class="st19" width="3" height="3"/>
				<rect x="119.3" y="249.7" class="st19" width="3" height="3"/>
				<rect x="119.3" y="246.6" class="st19" width="3" height="3"/>
				<rect x="119.3" y="243.6" class="st19" width="3" height="3"/>
				<rect x="119.3" y="240.6" class="st19" width="3" height="3"/>
				<rect x="119.3" y="237.6" class="st19" width="3" height="3"/>
				<rect x="119.3" y="234.5" class="st19" width="3" height="3"/>
				<rect x="119.3" y="231.5" class="st19" width="3" height="3"/>
				<rect x="119.3" y="228.5" class="st19" width="3" height="3"/>
				<rect x="119.3" y="225.4" class="st19" width="3" height="3"/>
				<rect x="122.3" y="249.7" class="st19" width="3" height="3"/>
				<rect x="122.3" y="246.6" class="st19" width="3" height="3"/>
				<rect x="122.3" y="243.6" class="st19" width="3" height="3"/>
				<rect x="122.3" y="240.6" class="st19" width="3" height="3"/>
				<rect x="122.3" y="237.6" class="st19" width="3" height="3"/>
				<rect x="122.3" y="234.5" class="st19" width="3" height="3"/>
				<rect x="122.3" y="231.5" class="st19" width="3" height="3"/>
				<rect x="122.3" y="228.5" class="st19" width="3" height="3"/>
				<rect x="122.3" y="225.4" class="st19" width="3" height="3"/>
				<rect x="125.4" y="249.7" class="st19" width="3" height="3"/>
				<rect x="125.4" y="246.6" class="st19" width="3" height="3"/>
				<rect x="125.4" y="243.6" class="st19" width="3" height="3"/>
				<rect x="125.4" y="240.6" class="st19" width="3" height="3"/>
				<rect x="125.4" y="237.6" class="st19" width="3" height="3"/>
				<rect x="125.4" y="234.5" class="st19" width="3" height="3"/>
				<rect x="125.4" y="231.5" class="st19" width="3" height="3"/>
				<rect x="125.4" y="228.5" class="st19" width="3" height="3"/>
				<rect x="125.4" y="225.4" class="st19" width="3" height="3"/>
				<rect x="128.4" y="249.7" class="st19" width="3" height="3"/>
				<rect x="128.4" y="246.6" class="st19" width="3" height="3"/>
				<rect x="128.4" y="243.6" class="st19" width="3" height="3"/>
				<rect x="128.4" y="240.6" class="st19" width="3" height="3"/>
				<rect x="128.4" y="237.6" class="st19" width="3" height="3"/>
				<rect x="128.4" y="234.5" class="st19" width="3" height="3"/>
				<rect x="128.4" y="231.5" class="st19" width="3" height="3"/>
				<rect x="128.4" y="228.5" class="st19" width="3" height="3"/>
				<rect x="128.4" y="225.4" class="st19" width="3" height="3"/>
				<rect x="131.4" y="249.7" class="st19" width="3" height="3"/>
				<rect x="131.4" y="246.6" class="st19" width="3" height="3"/>
				<rect x="131.4" y="243.6" class="st19" width="3" height="3"/>
				<rect x="131.4" y="240.6" class="st19" width="3" height="3"/>
				<rect x="131.4" y="237.6" class="st19" width="3" height="3"/>
				<rect x="131.4" y="234.5" class="st19" width="3" height="3"/>
				<rect x="131.4" y="231.5" class="st19" width="3" height="3"/>
				<rect x="131.4" y="228.5" class="st19" width="3" height="3"/>
				<rect x="131.4" y="225.4" class="st19" width="3" height="3"/>
				<rect x="134.4" y="249.7" class="st19" width="3" height="3"/>
				<rect x="134.4" y="246.6" class="st19" width="3" height="3"/>
				<rect x="134.4" y="243.6" class="st19" width="3" height="3"/>
				<rect x="134.4" y="240.6" class="st19" width="3" height="3"/>
				<rect x="134.4" y="237.6" class="st19" width="3" height="3"/>
				<rect x="134.4" y="234.5" class="st19" width="3" height="3"/>
				<rect x="134.4" y="231.5" class="st19" width="3" height="3"/>
				<rect x="134.4" y="228.5" class="st19" width="3" height="3"/>
				<rect x="134.4" y="225.4" class="st19" width="3" height="3"/>
				<rect x="137.5" y="249.7" class="st19" width="3" height="3"/>
				<rect x="137.5" y="246.6" class="st19" width="3" height="3"/>
				<rect x="137.5" y="243.6" class="st19" width="3" height="3"/>
				<rect x="137.5" y="240.6" class="st19" width="3" height="3"/>
				<rect x="137.5" y="237.6" class="st19" width="3" height="3"/>
				<rect x="137.5" y="234.5" class="st19" width="3" height="3"/>
				<rect x="137.5" y="231.5" class="st19" width="3" height="3"/>
				<rect x="137.5" y="228.5" class="st19" width="3" height="3"/>
				<rect x="137.5" y="225.4" class="st19" width="3" height="3"/>
				<rect x="140.5" y="249.7" class="st19" width="3" height="3"/>
				<rect x="140.5" y="246.6" class="st19" width="3" height="3"/>
				<rect x="140.5" y="243.6" class="st19" width="3" height="3"/>
				<rect x="140.5" y="240.6" class="st19" width="3" height="3"/>
				<rect x="140.5" y="237.6" class="st19" width="3" height="3"/>
				<rect x="140.5" y="234.5" class="st19" width="3" height="3"/>
				<rect x="140.5" y="231.5" class="st19" width="3" height="3"/>
				<rect x="140.5" y="228.5" class="st19" width="3" height="3"/>
				<rect x="140.5" y="225.4" class="st19" width="3" height="3"/>
				<rect x="143.5" y="249.7" class="st19" width="3" height="3"/>
				<rect x="143.5" y="246.6" class="st19" width="3" height="3"/>
				<rect x="143.5" y="243.6" class="st19" width="3" height="3"/>
				<rect x="143.5" y="240.6" class="st19" width="3" height="3"/>
				<rect x="143.5" y="237.6" class="st19" width="3" height="3"/>
				<rect x="143.5" y="234.5" class="st19" width="3" height="3"/>
				<rect x="143.5" y="231.5" class="st19" width="3" height="3"/>
				<rect x="143.5" y="228.5" class="st19" width="3" height="3"/>
				<rect x="143.5" y="225.4" class="st19" width="3" height="3"/>
				<rect x="146.6" y="249.7" class="st19" width="3" height="3"/>
				<rect x="146.6" y="246.6" class="st19" width="3" height="3"/>
				<rect x="146.6" y="243.6" class="st19" width="3" height="3"/>
				<rect x="146.6" y="240.6" class="st19" width="3" height="3"/>
				<rect x="146.6" y="237.6" class="st19" width="3" height="3"/>
				<rect x="146.6" y="234.5" class="st19" width="3" height="3"/>
				<rect x="146.6" y="231.5" class="st19" width="3" height="3"/>
				<rect x="146.6" y="228.5" class="st19" width="3" height="3"/>
				<rect x="146.6" y="225.4" class="st19" width="3" height="3"/>
				<rect x="149.6" y="249.7" class="st19" width="3" height="3"/>
				<rect x="149.6" y="246.6" class="st19" width="3" height="3"/>
				<rect x="149.6" y="243.6" class="st19" width="3" height="3"/>
				<rect x="149.6" y="240.6" class="st19" width="3" height="3"/>
				<rect x="149.6" y="237.6" class="st19" width="3" height="3"/>
				<rect x="149.6" y="234.5" class="st19" width="3" height="3"/>
				<rect x="149.6" y="231.5" class="st19" width="3" height="3"/>
				<rect x="149.6" y="228.5" class="st19" width="3" height="3"/>
				<rect x="149.6" y="225.4" class="st19" width="3" height="3"/>
				<rect x="152.6" y="249.7" class="st19" width="3" height="3"/>
				<rect x="152.6" y="246.6" class="st19" width="3" height="3"/>
				<rect x="152.6" y="243.6" class="st19" width="3" height="3"/>
				<rect x="152.6" y="240.6" class="st19" width="3" height="3"/>
				<rect x="152.6" y="237.6" class="st19" width="3" height="3"/>
				<rect x="152.6" y="234.5" class="st19" width="3" height="3"/>
				<rect x="152.6" y="231.5" class="st19" width="3" height="3"/>
				<rect x="152.6" y="228.5" class="st19" width="3" height="3"/>
				<rect x="152.6" y="225.4" class="st19" width="3" height="3"/>
				<rect x="155.6" y="249.7" class="st19" width="3" height="3"/>
				<rect x="155.6" y="246.6" class="st19" width="3" height="3"/>
				<rect x="155.6" y="243.6" class="st19" width="3" height="3"/>
				<rect x="155.6" y="240.6" class="st19" width="3" height="3"/>
				<rect x="155.6" y="237.6" class="st19" width="3" height="3"/>
				<rect x="155.6" y="234.5" class="st19" width="3" height="3"/>
				<rect x="155.6" y="231.5" class="st19" width="3" height="3"/>
				<rect x="155.6" y="228.5" class="st19" width="3" height="3"/>
				<rect x="155.6" y="225.4" class="st19" width="3" height="3"/>
				<rect x="158.7" y="249.7" class="st19" width="3" height="3"/>
				<rect x="158.7" y="246.6" class="st19" width="3" height="3"/>
				<rect x="158.7" y="243.6" class="st19" width="3" height="3"/>
				<rect x="158.7" y="240.6" class="st19" width="3" height="3"/>
				<rect x="158.7" y="237.6" class="st19" width="3" height="3"/>
				<rect x="158.7" y="234.5" class="st19" width="3" height="3"/>
				<rect x="158.7" y="231.5" class="st19" width="3" height="3"/>
				<rect x="158.7" y="228.5" class="st19" width="3" height="3"/>
				<rect x="158.7" y="225.4" class="st19" width="3" height="3"/>
				<rect x="161.7" y="249.7" class="st19" width="3" height="3"/>
				<rect x="161.7" y="246.6" class="st19" width="3" height="3"/>
				<rect x="161.7" y="243.6" class="st19" width="3" height="3"/>
				<rect x="161.7" y="240.6" class="st19" width="3" height="3"/>
				<rect x="161.7" y="237.6" class="st19" width="3" height="3"/>
				<rect x="161.7" y="234.5" class="st19" width="3" height="3"/>
				<rect x="161.7" y="231.5" class="st19" width="3" height="3"/>
				<rect x="161.7" y="228.5" class="st19" width="3" height="3"/>
				<rect x="161.7" y="225.4" class="st19" width="3" height="3"/>
				<rect x="164.7" y="249.7" class="st19" width="3" height="3"/>
				<rect x="164.7" y="246.6" class="st19" width="3" height="3"/>
				<rect x="164.7" y="243.6" class="st19" width="3" height="3"/>
				<rect x="164.7" y="240.6" class="st19" width="3" height="3"/>
				<rect x="164.7" y="237.6" class="st19" width="3" height="3"/>
				<rect x="164.7" y="234.5" class="st19" width="3" height="3"/>
				<rect x="164.7" y="231.5" class="st19" width="3" height="3"/>
				<rect x="164.7" y="228.5" class="st19" width="3" height="3"/>
				<rect x="164.7" y="225.4" class="st19" width="3" height="3"/>
				<rect x="167.7" y="249.7" class="st19" width="3" height="3"/>
				<rect x="167.7" y="246.6" class="st19" width="3" height="3"/>
				<rect x="167.7" y="243.6" class="st19" width="3" height="3"/>
				<rect x="167.7" y="240.6" class="st19" width="3" height="3"/>
				<rect x="167.7" y="237.6" class="st19" width="3" height="3"/>
				<rect x="167.7" y="234.5" class="st19" width="3" height="3"/>
				<rect x="167.7" y="231.5" class="st19" width="3" height="3"/>
				<rect x="167.7" y="228.5" class="st19" width="3" height="3"/>
				<rect x="167.7" y="225.4" class="st19" width="3" height="3"/>
				<rect x="170.8" y="249.7" class="st19" width="3" height="3"/>
				<rect x="170.8" y="246.6" class="st19" width="3" height="3"/>
				<rect x="170.8" y="243.6" class="st19" width="3" height="3"/>
				<rect x="170.8" y="240.6" class="st19" width="3" height="3"/>
				<rect x="170.8" y="237.6" class="st19" width="3" height="3"/>
				<rect x="170.8" y="234.5" class="st19" width="3" height="3"/>
				<rect x="170.8" y="231.5" class="st19" width="3" height="3"/>
				<rect x="170.8" y="228.5" class="st19" width="3" height="3"/>
				<rect x="170.8" y="225.4" class="st19" width="3" height="3"/>
				<rect x="173.8" y="249.7" class="st19" width="3" height="3"/>
				<rect x="173.8" y="246.6" class="st19" width="3" height="3"/>
				<rect x="173.8" y="243.6" class="st19" width="3" height="3"/>
				<rect x="173.8" y="240.6" class="st19" width="3" height="3"/>
				<rect x="173.8" y="237.6" class="st19" width="3" height="3"/>
				<rect x="173.8" y="234.5" class="st19" width="3" height="3"/>
				<rect x="173.8" y="231.5" class="st19" width="3" height="3"/>
				<rect x="173.8" y="228.5" class="st19" width="3" height="3"/>
				<rect x="173.8" y="225.4" class="st19" width="3" height="3"/>
				<rect x="176.8" y="249.7" class="st19" width="3" height="3"/>
				<rect x="176.8" y="246.6" class="st19" width="3" height="3"/>
				<rect x="176.8" y="243.6" class="st19" width="3" height="3"/>
				<rect x="176.8" y="240.6" class="st19" width="3" height="3"/>
				<rect x="176.8" y="237.6" class="st19" width="3" height="3"/>
				<rect x="176.8" y="234.5" class="st19" width="3" height="3"/>
				<rect x="176.8" y="231.5" class="st19" width="3" height="3"/>
				<rect x="176.8" y="228.5" class="st19" width="3" height="3"/>
				<rect x="176.8" y="225.4" class="st19" width="3" height="3"/>
				<rect x="179.8" y="249.7" class="st19" width="3" height="3"/>
				<rect x="179.8" y="246.6" class="st19" width="3" height="3"/>
				<rect x="179.8" y="243.6" class="st19" width="3" height="3"/>
				<rect x="179.8" y="240.6" class="st19" width="3" height="3"/>
				<rect x="179.8" y="237.6" class="st19" width="3" height="3"/>
				<rect x="179.8" y="234.5" class="st19" width="3" height="3"/>
				<rect x="179.8" y="231.5" class="st19" width="3" height="3"/>
				<rect x="179.8" y="228.5" class="st19" width="3" height="3"/>
				<rect x="179.8" y="225.4" class="st19" width="3" height="3"/>
				<rect x="182.9" y="249.7" class="st19" width="3" height="3"/>
				<rect x="182.9" y="246.6" class="st19" width="3" height="3"/>
				<rect x="182.9" y="243.6" class="st19" width="3" height="3"/>
				<rect x="182.9" y="240.6" class="st19" width="3" height="3"/>
				<rect x="182.9" y="237.6" class="st19" width="3" height="3"/>
				<rect x="182.9" y="234.5" class="st19" width="3" height="3"/>
				<rect x="182.9" y="231.5" class="st19" width="3" height="3"/>
				<rect x="182.9" y="228.5" class="st19" width="3" height="3"/>
				<rect x="182.9" y="225.4" class="st19" width="3" height="3"/>
				<rect x="185.9" y="249.7" class="st19" width="3" height="3"/>
				<rect x="185.9" y="246.6" class="st19" width="3" height="3"/>
				<rect x="185.9" y="243.6" class="st19" width="3" height="3"/>
				<rect x="185.9" y="240.6" class="st19" width="3" height="3"/>
				<rect x="185.9" y="237.6" class="st19" width="3" height="3"/>
				<rect x="185.9" y="234.5" class="st19" width="3" height="3"/>
				<rect x="185.9" y="231.5" class="st19" width="3" height="3"/>
				<rect x="185.9" y="228.5" class="st19" width="3" height="3"/>
				<rect x="185.9" y="225.4" class="st19" width="3" height="3"/>
				<rect x="188.9" y="249.7" class="st19" width="3" height="3"/>
				<rect x="188.9" y="246.6" class="st19" width="3" height="3"/>
				<rect x="188.9" y="243.6" class="st19" width="3" height="3"/>
				<rect x="188.9" y="240.6" class="st19" width="3" height="3"/>
				<rect x="188.9" y="237.6" class="st19" width="3" height="3"/>
				<rect x="188.9" y="234.5" class="st19" width="3" height="3"/>
				<rect x="188.9" y="231.5" class="st19" width="3" height="3"/>
				<rect x="188.9" y="228.5" class="st19" width="3" height="3"/>
				<rect x="188.9" y="225.4" class="st19" width="3" height="3"/>
			</g>
			<polygon class="st12" points="201.3,142 201.3,169.1 132.7,142 			"/>
			<polygon class="st12" points="173.1,301.2 82.7,301.2 82.7,277 			"/>
			<polygon class="st14" points="150.9,142 147.2,142.1 201.3,188.2 201.3,153.8 			"/>
			<polygon class="st14" points="82.7,298 201.3,282.6 201.3,301.2 82.7,301.2 			"/>
			<rect x="98.5" y="258.1" class="st13" width="3.9" height="1.9"/>
			<rect x="105.8" y="258.1" class="st13" width="10.1" height="1.9"/>
			<rect x="92.1" y="265.7" class="st13" width="6.5" height="1.9"/>
			<rect x="92.1" y="271.6" class="st13" width="4.5" height="1.9"/>
			<rect x="119.9" y="271.6" class="st13" width="4.5" height="1.9"/>
			<rect x="128.8" y="271.6" class="st13" width="8.6" height="1.9"/>
			<rect x="103.3" y="265.7" class="st13" width="11.2" height="1.9"/>
			<rect x="119.5" y="265.7" class="st13" width="2.9" height="1.9"/>
			<rect x="158.8" y="265.7" class="st13" width="2.9" height="1.9"/>
			<rect x="127.3" y="265.7" class="st13" width="15.4" height="1.9"/>
			<rect x="179.9" y="282.3" class="st13" width="12" height="1.9"/>
			<rect x="147.8" y="265.7" class="st13" width="6.3" height="1.9"/>
			<rect x="166.2" y="265.7" class="st13" width="10.2" height="1.9"/>
			<rect x="101.1" y="271.6" class="st13" width="14.2" height="1.9"/>
			<rect x="101.4" y="205.6" class="st13" width="19" height="3.9"/>
			<rect x="91.8" y="153.8" class="st13" width="19" height="3.9"/>
			<rect x="92.1" y="205.6" class="st13" width="4.5" height="3.9"/>
			<rect x="92.1" y="212.9" class="st13" width="13.1" height="1.9"/>
			<rect x="134.4" y="212.9" class="st13" width="9.1" height="1.9"/>
			<rect x="149.2" y="212.9" class="st13" width="3.4" height="1.9"/>
			<rect x="158" y="212.9" class="st13" width="18.1" height="1.9"/>
			<rect x="92.1" y="218.8" class="st13" width="4.5" height="1.9"/>
			<rect x="120.9" y="218.8" class="st13" width="4.5" height="1.9"/>
			<rect x="110" y="212.9" class="st13" width="4.5" height="1.9"/>
			<rect x="119.5" y="212.9" class="st13" width="9.4" height="1.9"/>
			<rect x="101.9" y="218.8" class="st13" width="14.2" height="1.9"/>
			<rect x="130.4" y="218.8" class="st13" width="8.6" height="1.9"/>
			<rect x="143.7" y="218.8" class="st13" width="4.8" height="1.9"/>
			<rect x="153.1" y="218.8" class="st13" width="11.8" height="1.9"/>
			<rect x="169.8" y="218.8" class="st13" width="22" height="1.9"/>
			<rect x="92.1" y="197.2" class="st8" width="6.4" height="3.4"/>
			<rect x="98.1" y="249.8" class="st8" width="3" height="2.9"/>
			<rect x="101.1" y="246.7" class="st20" width="3" height="5.9"/>
			<rect x="104.2" y="236.9" class="st11" width="3" height="15.8"/>
			<rect x="107.2" y="243.8" class="st21" width="3" height="8.9"/>
			<rect x="122.3" y="248.6" class="st8" width="3" height="4.1"/>
			<rect x="125.4" y="243.1" class="st20" width="3" height="9.6"/>
			<rect x="128.4" y="239.9" class="st11" width="3" height="12.8"/>
			<rect x="131.4" y="246.1" class="st21" width="3" height="6.6"/>
			<rect x="146.6" y="247.6" class="st8" width="3" height="5.1"/>
			<rect x="149.6" y="241.2" class="st20" width="3" height="11.5"/>
			<rect x="152.6" y="234.9" class="st11" width="3" height="17.8"/>
			<rect x="155.6" y="246.9" class="st21" width="3" height="5.8"/>
			<rect x="170.8" y="245.5" class="st22" width="3" height="7.2"/>
			<rect x="173.8" y="242.4" class="st20" width="3" height="10.3"/>
			<rect x="176.8" y="230.4" class="st11" width="3" height="22.3"/>
			<rect x="179.8" y="237.9" class="st21" width="3" height="14.8"/>
			<rect x="100.6" y="190.8" class="st8" width="6.4" height="9.7"/>
			<rect x="109.1" y="181.4" class="st11" width="6.4" height="19.1"/>
			<rect x="117.6" y="193" class="st8" width="6.4" height="7.5"/>
			<rect x="126.1" y="184.9" class="st11" width="6.4" height="15.7"/>
			<rect x="134.6" y="172.7" class="st11" width="6.4" height="27.8"/>
			<rect x="143" y="165" class="st11" width="6.4" height="35.6"/>
			<rect x="151.5" y="175.1" class="st11" width="6.4" height="25.5"/>
			<rect x="160" y="189.7" class="st22" width="6.4" height="10.9"/>
			<rect x="168.5" y="197.2" class="st22" width="6.4" height="3.4"/>
			<rect x="177" y="181.4" class="st11" width="6.4" height="19.1"/>
			<rect x="185.5" y="197.2" class="st22" width="6.4" height="3.4"/>
			<g>
				<rect x="92.1" y="252.4" class="st22" width="99.9" height="0.6"/>
			</g>
			<g>
				<rect x="92.1" y="200.3" class="st22" width="99.9" height="0.6"/>
			</g>
			<rect x="91.8" y="161.6" class="st13" width="3.5" height="1.9"/>
			<rect x="99.3" y="161.6" class="st13" width="9.2" height="1.9"/>
			<rect x="112.4" y="161.6" class="st13" width="6" height="1.9"/>
			<path class="st8" d="M95.1,258.6c0-0.8-0.7-1.5-1.5-1.5c-0.8,0-1.5,0.7-1.5,1.5c0,0.8,0.7,1.5,1.5,1.5
				C94.4,260.2,95.1,259.5,95.1,258.6z"/>
			<rect x="127.7" y="258.1" class="st13" width="8.3" height="1.9"/>
			<rect x="147.2" y="258.1" class="st13" width="16.8" height="1.9"/>
			<path class="st20" d="M124.2,258.6c0-0.8-0.7-1.5-1.5-1.5c-0.8,0-1.5,0.7-1.5,1.5c0,0.8,0.7,1.5,1.5,1.5
				C123.6,260.2,124.2,259.5,124.2,258.6z"/>
			<path class="st11" d="M143.5,258.6c0-0.8-0.7-1.5-1.5-1.5c-0.8,0-1.5,0.7-1.5,1.5c0,0.8,0.7,1.5,1.5,1.5
				C142.9,260.2,143.5,259.5,143.5,258.6z"/>
			<rect x="175.3" y="258.1" class="st13" width="2.4" height="1.9"/>
			<rect x="180.8" y="258.1" class="st13" width="10.5" height="1.9"/>
			<path class="st21" d="M171.6,258.6c0-0.8-0.7-1.5-1.5-1.5s-1.5,0.7-1.5,1.5c0,0.8,0.7,1.5,1.5,1.5S171.6,259.5,171.6,258.6z"/>
		</g>
	</g>
	<g>
		<g>
			<path class="st6" d="M268.4,265.2l3.1-100.9l-6-0.2l-0.1-2.5l-42.8,1.2l-72.5-2.2l-0.1,4.3l-5.9,0.2l0,0.5h-0.4
				c-0.5,0-0.9,0.4-0.9,0.9v80.5v80.5c0,0.5,0.4,0.9,0.9,0.9h119.5c0.5,0,0.9-0.4,0.9-0.9v-0.5l2.4,0.1l0.1-2.6l3.5-0.1L268.4,265.2
				z"/>
		</g>
		
			<rect x="143" y="160" transform="matrix(0.9996 -2.914015e-02 2.914015e-02 0.9996 -6.9508 6.0403)" class="st28" width="121.4" height="162.9"/>
		
			<rect x="143" y="160" transform="matrix(0.9996 -2.914015e-02 2.914015e-02 0.9996 -6.9508 6.0403)" class="st26" width="121.4" height="162.9"/>
		
			<rect x="123.5" y="179.9" transform="matrix(3.025521e-02 -0.9995 0.9995 3.025521e-02 -41.71 438.2457)" class="st28" width="162.9" height="121.4"/>
		<path class="st11" d="M250.6,219.9c0-5.8,7.9-12.2,7.9-16.5v-37.4c0-0.5-0.4-0.9-0.9-0.9H138c-0.5,0-0.9,0.4-0.9,0.9v80.5V327
			c0,0.5,0.4,0.9,0.9,0.9h119.5c0.5,0,0.9-0.4,0.9-0.9v-37.4c0-4.4-7.9-10.7-7.9-16.5c0-5.8,0-18.5,0-26.6S250.6,225.7,250.6,219.9z
			"/>
		<rect x="159.6" y="196.3" class="st13" width="75.9" height="39.8"/>
		<rect x="158.3" y="195" class="st28" width="75.9" height="39.8"/>
		<path class="st29" d="M146.5,165v162.9h-8.3c-0.5,0-0.9-0.4-0.9-0.9V165.9c0-0.5,0.4-0.9,0.9-0.9H146.5z"/>
		<path class="st15" d="M196.7,214.9h-32.2v-4h32.2V214.9z M208.4,210.9h-5.1v4h5.1V210.9z M228.5,210.9h-14.2v4h14.2V210.9z
			 M174.5,220.1h-10.1v2h10.1V220.1z M199.8,220.1h-18.2v2h18.2V220.1z M212.3,220.1h-5.2v2h5.2V220.1z M186.7,227.2h-22.2v2h22.2
			V227.2z"/>
		<path class="st26" d="M250,219.8v53.1c0,5.8,7.9,12.2,7.9,16.5v37.4c0,0.5-0.4,0.9-0.9,0.9H145.6v-7h76.2
			c11.9,0,21.5-9.6,21.5-21.5V165.1h14c0.3,0.2,0.4,0.5,0.4,0.8v37.4C257.8,207.6,250,214,250,219.8z"/>
	</g>
</g>
</svg>
