<svg xmlns="http://www.w3.org/2000/svg" width="450" height="420.36" viewBox="0 0 450 420.36"><g style="isolation:isolate"><rect x="49.45" width="351.56" height="420.36" fill="#fff" opacity="0.46"/><path d="M384,51.25H109V13.57H384l8.28,18.84Z" fill="#0a90b7"/><rect x="62.93" y="13.57" width="46.04" height="37.68" fill="#f2f2f2"/><rect x="68.11" y="66.47" width="310.55" height="94.96" fill="#f2f2f2" opacity="0.55"/><g opacity="0.55"><path d="M121.4,123.67a3.88,3.88,0,0,1-1.43-.89l.32-.61a4.53,4.53,0,0,0,1.35.84,4.92,4.92,0,0,0,1.62.25,2.9,2.9,0,0,0,1.76-.47,1.52,1.52,0,0,0,.63-1.3,1.11,1.11,0,0,0-.31-.8,2.34,2.34,0,0,0-.78-.48,11.79,11.79,0,0,0-1.25-.35,12.85,12.85,0,0,1-1.67-.47,2.72,2.72,0,0,1-1.08-.73,1.86,1.86,0,0,1-.44-1.31,2.28,2.28,0,0,1,.39-1.32,2.36,2.36,0,0,1,1.11-.89,4.11,4.11,0,0,1,1.67-.32,4.66,4.66,0,0,1,1.69.3,3.46,3.46,0,0,1,1.34.87l-.32.61a4.73,4.73,0,0,0-1.28-.83,3.91,3.91,0,0,0-1.43-.26,2.79,2.79,0,0,0-1.76.49,1.61,1.61,0,0,0-.64,1.34,1.23,1.23,0,0,0,.56,1.1,4.91,4.91,0,0,0,1.61.62l.37.09a13.77,13.77,0,0,1,1.59.46,2.58,2.58,0,0,1,1,.68,1.68,1.68,0,0,1,.41,1.2,2.15,2.15,0,0,1-.38,1.28,2.44,2.44,0,0,1-1.11.87,4.34,4.34,0,0,1-1.68.31A5.87,5.87,0,0,1,121.4,123.67Z" fill="#444"/><path d="M128.53,120.61v0a2.88,2.88,0,0,0,.58,1.94,2.15,2.15,0,0,0,1.7.67,3.18,3.18,0,0,0,2.07-.78l.3.6a3,3,0,0,1-1.06.62,3.65,3.65,0,0,1-1.31.23,3,3,0,0,1-2.26-.86,3.31,3.31,0,0,1-.82-2.38,3.84,3.84,0,0,1,.36-1.71,2.73,2.73,0,0,1,2.57-1.56,2.39,2.39,0,0,1,1.93.8,3.26,3.26,0,0,1,.7,2.23v.16Zm.72-2a2.46,2.46,0,0,0-.67,1.46h4a2.29,2.29,0,0,0-.56-1.47,1.77,1.77,0,0,0-1.34-.51A2,2,0,0,0,129.25,118.56Z" fill="#444"/><path d="M136,123.53a2.61,2.61,0,0,1-1-1.13,3.7,3.7,0,0,1-.37-1.7A3.76,3.76,0,0,1,135,119a2.72,2.72,0,0,1,1-1.16,3,3,0,0,1,1.56-.4,3.39,3.39,0,0,1,1.23.22,2.75,2.75,0,0,1,1,.6l-.31.61a3.49,3.49,0,0,0-.93-.59,2.43,2.43,0,0,0-.92-.18,2,2,0,0,0-1.61.7,2.88,2.88,0,0,0-.58,1.92,2.78,2.78,0,0,0,.58,1.88,2,2,0,0,0,1.61.68,2.43,2.43,0,0,0,.92-.18,4.32,4.32,0,0,0,.93-.57l.31.58a3,3,0,0,1-1,.62,3.4,3.4,0,0,1-1.21.22A3,3,0,0,1,136,123.53Z" fill="#444"/><path d="M146.25,117.57v6.28h-.74v-1.14a2.08,2.08,0,0,1-.85.91,2.52,2.52,0,0,1-1.27.31,2.17,2.17,0,0,1-1.67-.61,2.63,2.63,0,0,1-.56-1.82v-3.93h.75v3.88a2.08,2.08,0,0,0,.38,1.37,1.46,1.46,0,0,0,1.16.44,1.93,1.93,0,0,0,1.48-.59,2.13,2.13,0,0,0,.56-1.54v-3.56Z" fill="#444"/><path d="M151.65,117.47l0,.69a2.37,2.37,0,0,0-.57,0,1.68,1.68,0,0,0-1.42.6,2.28,2.28,0,0,0-.48,1.45v3.69h-.75v-4.54a13,13,0,0,0-.1-1.74H149l.1,1.16a1.92,1.92,0,0,1,.77-1,2.19,2.19,0,0,1,1.21-.34A2.29,2.29,0,0,1,151.65,117.47Z" fill="#444"/><path d="M153.73,115v1h-1v-1Zm-.9,2.6h.75v6.28h-.75Z" fill="#444"/><path d="M156.82,118.18v3.74a1.49,1.49,0,0,0,.28,1,1.19,1.19,0,0,0,.86.29,1.89,1.89,0,0,0,.67-.12v.69a3.15,3.15,0,0,1-.81.1,1.77,1.77,0,0,1-1.3-.46,1.88,1.88,0,0,1-.47-1.39v-3.89h-1.24v-.61h1.24V115.9l.77-.29v2h1.85v.61Z" fill="#444"/><path d="M165.43,117.57l-3,6.93a3.61,3.61,0,0,1-1.1,1.51,4.13,4.13,0,0,1-1.65.68l-.15-.6a3.82,3.82,0,0,0,1.36-.55,2.51,2.51,0,0,0,.77-1.07l.27-.61-2.69-6.29h.82l2.27,5.51,2.28-5.51Z" fill="#444"/><path d="M175.93,121.47h-4.81l-1,2.38h-.8l3.88-8.93h.7l3.88,8.93h-.81Zm-.3-.68-2.11-4.93-2.12,4.93Z" fill="#444"/><path d="M184.23,117.57v6.28h-.74v-1.14a2.1,2.1,0,0,1-.86.91,2.48,2.48,0,0,1-1.26.31,2.15,2.15,0,0,1-1.67-.61,2.63,2.63,0,0,1-.56-1.82v-3.93h.75v3.88a2,2,0,0,0,.38,1.37,1.44,1.44,0,0,0,1.16.44,1.94,1.94,0,0,0,1.48-.59,2.12,2.12,0,0,0,.55-1.54v-3.56Z" fill="#444"/><path d="M187.44,118.18v3.74a1.49,1.49,0,0,0,.28,1,1.19,1.19,0,0,0,.86.29,1.89,1.89,0,0,0,.67-.12v.69a3.15,3.15,0,0,1-.81.1,1.77,1.77,0,0,1-1.3-.46,1.88,1.88,0,0,1-.47-1.39v-3.89h-1.24v-.61h1.24V115.9l.77-.29v2h1.85v.61Z" fill="#444"/><path d="M195.85,119.85v4h-.77V119.9a2.09,2.09,0,0,0-.38-1.38,1.53,1.53,0,0,0-1.2-.44,2,2,0,0,0-1.51.58,2.07,2.07,0,0,0-.58,1.55v3.64h-.75v-9.23h.75v4a2.1,2.1,0,0,1,.86-.93,2.64,2.64,0,0,1,1.31-.31C195.09,117.42,195.85,118.23,195.85,119.85Z" fill="#444"/><path d="M198.93,123.53a2.62,2.62,0,0,1-1-1.14,4.27,4.27,0,0,1,0-3.43,2.74,2.74,0,0,1,1-1.14,2.86,2.86,0,0,1,1.53-.4,2.76,2.76,0,0,1,1.5.4,2.67,2.67,0,0,1,1,1.14,4.27,4.27,0,0,1,0,3.43,2.56,2.56,0,0,1-1,1.14,2.76,2.76,0,0,1-1.5.4A2.86,2.86,0,0,1,198.93,123.53Zm3.06-.94a2.94,2.94,0,0,0,.55-1.91,3,3,0,0,0-.55-1.92,2.07,2.07,0,0,0-3.07,0,3,3,0,0,0-.56,1.92,3,3,0,0,0,.54,1.91,1.86,1.86,0,0,0,1.54.67A1.9,1.9,0,0,0,202,122.59Z" fill="#444"/><path d="M208.33,117.47l0,.69a2.45,2.45,0,0,0-.58,0,1.69,1.69,0,0,0-1.42.6,2.33,2.33,0,0,0-.47,1.45v3.69h-.75v-4.54a13,13,0,0,0-.1-1.74h.73l.1,1.16a1.87,1.87,0,0,1,.77-1,2.16,2.16,0,0,1,1.21-.34A2.29,2.29,0,0,1,208.33,117.47Z" fill="#444"/><path d="M210.41,115v1h-1v-1Zm-.9,2.6h.75v6.28h-.75Z" fill="#444"/><path d="M217.26,123.22v.63H212v-.53l4.17-5.14h-4v-.61h4.95v.57L213,123.22Z" fill="#444"/><path d="M224.15,117.57v6.28h-.77v-1.21a2,2,0,0,1-.83,1,2.59,2.59,0,0,1-1.34.33,2.74,2.74,0,0,1-1.47-.39,2.59,2.59,0,0,1-1-1.13,4,4,0,0,1-.34-1.71,4,4,0,0,1,.35-1.72,2.73,2.73,0,0,1,1-1.16,2.65,2.65,0,0,1,1.46-.4,2.7,2.7,0,0,1,1.33.32,2.08,2.08,0,0,1,.84,1v-1.13Zm-1.31,5a3.65,3.65,0,0,0,0-3.82,2.05,2.05,0,0,0-3.07,0,3,3,0,0,0-.55,1.92,2.9,2.9,0,0,0,.55,1.89,1.93,1.93,0,0,0,1.56.67A1.82,1.82,0,0,0,222.84,122.58Z" fill="#444"/><path d="M227.35,118.18v3.74a1.49,1.49,0,0,0,.29,1,1.18,1.18,0,0,0,.86.29,1.89,1.89,0,0,0,.67-.12v.69a3.21,3.21,0,0,1-.81.1,1.77,1.77,0,0,1-1.3-.46,1.88,1.88,0,0,1-.47-1.39v-3.89h-1.24v-.61h1.24V115.9l.76-.29v2h1.86v.61Z" fill="#444"/><path d="M231.48,115v1h-1v-1Zm-.9,2.6h.75v6.28h-.75Z" fill="#444"/><path d="M234.47,123.53a2.58,2.58,0,0,1-1-1.14,4.27,4.27,0,0,1,0-3.43,2.69,2.69,0,0,1,1-1.14,2.83,2.83,0,0,1,1.52-.4,2.76,2.76,0,0,1,1.5.4,2.67,2.67,0,0,1,1,1.14,4.27,4.27,0,0,1,0,3.43,2.56,2.56,0,0,1-1,1.14,2.76,2.76,0,0,1-1.5.4A2.83,2.83,0,0,1,234.47,123.53Zm3.06-.94a3.64,3.64,0,0,0,0-3.83,2.07,2.07,0,0,0-3.07,0,3.64,3.64,0,0,0,0,3.83,1.84,1.84,0,0,0,1.54.67A1.91,1.91,0,0,0,237.53,122.59Z" fill="#444"/><path d="M245.79,119.85v4H245V119.9a2,2,0,0,0-.39-1.38,1.5,1.5,0,0,0-1.19-.44,2,2,0,0,0-1.52.58,2.11,2.11,0,0,0-.58,1.55v3.64h-.75v-4.54a13,13,0,0,0-.1-1.74h.73l.1,1.15a2,2,0,0,1,.86-1,2.65,2.65,0,0,1,1.33-.33C245,117.42,245.79,118.23,245.79,119.85Z" fill="#444"/><path d="M251.28,114.92h3.43a3.17,3.17,0,0,1,2.11.65,2.49,2.49,0,0,1,0,3.61,3.11,3.11,0,0,1-2.1.66h-2.65v4h-.78Zm3.39,4.24a2.43,2.43,0,0,0,1.59-.46,1.67,1.67,0,0,0,.54-1.33,1.65,1.65,0,0,0-.54-1.32,2.38,2.38,0,0,0-1.59-.46h-2.61v3.57Z" fill="#444"/><path d="M264.44,117.57v6.28h-.76v-1.21a2.08,2.08,0,0,1-.84,1,2.55,2.55,0,0,1-1.33.33,2.74,2.74,0,0,1-1.47-.39,2.53,2.53,0,0,1-1-1.13,4,4,0,0,1-.35-1.71,4,4,0,0,1,.35-1.72,2.75,2.75,0,0,1,1-1.16,2.87,2.87,0,0,1,2.78-.08,2.16,2.16,0,0,1,.85,1v-1.13Zm-1.3,5a3.65,3.65,0,0,0,0-3.82,1.85,1.85,0,0,0-1.53-.68,1.83,1.83,0,0,0-1.54.7,3,3,0,0,0-.56,1.92,2.9,2.9,0,0,0,.56,1.89,1.9,1.9,0,0,0,1.55.67A1.84,1.84,0,0,0,263.14,122.58Z" fill="#444"/><path d="M267.57,123.53a2.61,2.61,0,0,1-1-1.13,3.7,3.7,0,0,1-.37-1.7,3.76,3.76,0,0,1,.37-1.72,2.66,2.66,0,0,1,1-1.16,3,3,0,0,1,1.56-.4,3.39,3.39,0,0,1,1.23.22,2.62,2.62,0,0,1,.95.6l-.3.61a3.49,3.49,0,0,0-.93-.59,2.43,2.43,0,0,0-.92-.18,2,2,0,0,0-1.61.7,2.88,2.88,0,0,0-.59,1.92,2.79,2.79,0,0,0,.59,1.88,2,2,0,0,0,1.61.68,2.43,2.43,0,0,0,.92-.18,4.32,4.32,0,0,0,.93-.57l.3.58a2.83,2.83,0,0,1-1,.62,3.4,3.4,0,0,1-1.21.22A3,3,0,0,1,267.57,123.53Z" fill="#444"/><path d="M277,123.85l-3.46-3.06v3.06h-.75v-9.23h.75v5.87l3.16-2.92h1l-3.29,3,3.64,3.26Z" fill="#444"/><path d="M284.29,117.57v6.28h-.76v-1.21a2.06,2.06,0,0,1-.83,1,2.61,2.61,0,0,1-1.34.33,2.74,2.74,0,0,1-1.47-.39,2.53,2.53,0,0,1-1-1.13,4,4,0,0,1-.34-1.71,3.89,3.89,0,0,1,.35-1.72,2.73,2.73,0,0,1,1-1.16,2.87,2.87,0,0,1,2.78-.08,2.1,2.1,0,0,1,.85,1v-1.13Zm-1.3,5a3.65,3.65,0,0,0,0-3.82,2.05,2.05,0,0,0-3.07,0,3,3,0,0,0-.55,1.92,2.9,2.9,0,0,0,.55,1.89,1.91,1.91,0,0,0,1.55.67A1.84,1.84,0,0,0,283,122.58Z" fill="#444"/><path d="M291.81,117.57v6.3a2.88,2.88,0,0,1-.67,2.07,2.65,2.65,0,0,1-2,.7,4.3,4.3,0,0,1-2.44-.68l.15-.66a5.18,5.18,0,0,0,1.13.51,4.18,4.18,0,0,0,1.18.15,1.87,1.87,0,0,0,1.42-.51,2.11,2.11,0,0,0,.48-1.5v-1.62a2.15,2.15,0,0,1-.85,1,2.56,2.56,0,0,1-1.35.35,2.69,2.69,0,0,1-2.47-1.5,3.51,3.51,0,0,1-.35-1.62,3.57,3.57,0,0,1,.35-1.64,2.58,2.58,0,0,1,1-1.09,2.76,2.76,0,0,1,1.47-.39,2.68,2.68,0,0,1,1.34.32,2,2,0,0,1,.85,1v-1.13Zm-1.32,4.75a2.67,2.67,0,0,0,.56-1.78,2.71,2.71,0,0,0-.56-1.8,1.89,1.89,0,0,0-1.53-.66,2,2,0,0,0-1.56.66,2.71,2.71,0,0,0-.56,1.8,2.64,2.64,0,0,0,.56,1.78A2,2,0,0,0,289,123,1.92,1.92,0,0,0,290.49,122.32Z" fill="#444"/><path d="M294.36,120.61v0a2.88,2.88,0,0,0,.58,1.94,2.15,2.15,0,0,0,1.7.67,3.18,3.18,0,0,0,2.07-.78l.3.6a3,3,0,0,1-1.06.62,3.65,3.65,0,0,1-1.31.23,3,3,0,0,1-2.26-.86,3.31,3.31,0,0,1-.82-2.38,3.84,3.84,0,0,1,.36-1.71,2.73,2.73,0,0,1,2.57-1.56,2.39,2.39,0,0,1,1.93.8,3.26,3.26,0,0,1,.7,2.23v.16Zm.72-2a2.46,2.46,0,0,0-.67,1.46h4a2.29,2.29,0,0,0-.56-1.47,1.77,1.77,0,0,0-1.34-.51A2,2,0,0,0,295.08,118.56Z" fill="#444"/><path d="M304.7,123.36a12.21,12.21,0,0,1-.33-2.85,12.08,12.08,0,0,1,.33-2.82,13.08,13.08,0,0,1,1-2.77h.68a15.19,15.19,0,0,0-.95,2.89,13,13,0,0,0-.28,2.7,13.22,13.22,0,0,0,.28,2.72,15.27,15.27,0,0,0,.95,2.9h-.66A12.65,12.65,0,0,1,304.7,123.36Z" fill="#444"/><path d="M308.93,123.67a4,4,0,0,1-1.44-.89l.33-.61a4.3,4.3,0,0,0,1.35.84,4.84,4.84,0,0,0,1.62.25,2.89,2.89,0,0,0,1.75-.47,1.52,1.52,0,0,0,.63-1.3,1.07,1.07,0,0,0-.31-.8,2.2,2.2,0,0,0-.77-.48,12.53,12.53,0,0,0-1.25-.35,12.4,12.4,0,0,1-1.67-.47,2.69,2.69,0,0,1-1.09-.73,1.9,1.9,0,0,1-.44-1.31A2.28,2.28,0,0,1,308,116a2.41,2.41,0,0,1,1.11-.89,4.15,4.15,0,0,1,1.67-.32,4.71,4.71,0,0,1,1.7.3,3.61,3.61,0,0,1,1.34.87l-.33.61a4.58,4.58,0,0,0-1.28-.83,3.87,3.87,0,0,0-1.43-.26,2.79,2.79,0,0,0-1.76.49,1.61,1.61,0,0,0-.63,1.34,1.22,1.22,0,0,0,.55,1.1,5.07,5.07,0,0,0,1.62.62l.36.09a13.2,13.2,0,0,1,1.59.46,2.62,2.62,0,0,1,1,.68,1.73,1.73,0,0,1,.41,1.2,2.16,2.16,0,0,1-.39,1.28,2.44,2.44,0,0,1-1.11.87,4.32,4.32,0,0,1-1.67.31A5.87,5.87,0,0,1,308.93,123.67Z" fill="#444"/><path d="M316.67,123.67a3.88,3.88,0,0,1-1.43-.89l.32-.61a4.53,4.53,0,0,0,1.35.84,4.92,4.92,0,0,0,1.62.25,2.9,2.9,0,0,0,1.76-.47,1.52,1.52,0,0,0,.63-1.3,1.11,1.11,0,0,0-.31-.8,2.34,2.34,0,0,0-.78-.48,11.79,11.79,0,0,0-1.25-.35,12.85,12.85,0,0,1-1.67-.47,2.72,2.72,0,0,1-1.08-.73,1.86,1.86,0,0,1-.44-1.31,2.28,2.28,0,0,1,.39-1.32,2.38,2.38,0,0,1,1.1-.89,4.19,4.19,0,0,1,1.68-.32,4.66,4.66,0,0,1,1.69.3,3.46,3.46,0,0,1,1.34.87l-.32.61a4.73,4.73,0,0,0-1.28-.83,3.91,3.91,0,0,0-1.43-.26,2.79,2.79,0,0,0-1.76.49,1.61,1.61,0,0,0-.64,1.34,1.23,1.23,0,0,0,.56,1.1,4.91,4.91,0,0,0,1.61.62l.37.09a13.77,13.77,0,0,1,1.59.46,2.66,2.66,0,0,1,1,.68,1.68,1.68,0,0,1,.41,1.2,2.15,2.15,0,0,1-.38,1.28,2.44,2.44,0,0,1-1.11.87,4.34,4.34,0,0,1-1.68.31A5.87,5.87,0,0,1,316.67,123.67Z" fill="#444"/><path d="M323.51,114.92h3.43a3.17,3.17,0,0,1,2.11.65,2.51,2.51,0,0,1,0,3.61,3.11,3.11,0,0,1-2.1.66h-2.65v4h-.78Zm3.38,4.24a2.44,2.44,0,0,0,1.6-.46,1.7,1.7,0,0,0,.53-1.33,1.67,1.67,0,0,0-.53-1.32,2.39,2.39,0,0,0-1.6-.46h-2.6v3.57Z" fill="#444"/><path d="M331.78,122.76v.8a2.5,2.5,0,0,1-.15.88,2.29,2.29,0,0,1-.5.75l-.4-.32a1.82,1.82,0,0,0,.48-1h-.49v-1.09Z" fill="#444"/><path d="M121.4,139.33a3.85,3.85,0,0,1-1.43-.88l.32-.62a4.16,4.16,0,0,0,1.35.84,4.67,4.67,0,0,0,1.62.25,2.9,2.9,0,0,0,1.76-.46,1.52,1.52,0,0,0,.63-1.3,1.11,1.11,0,0,0-.31-.8,2.34,2.34,0,0,0-.78-.48,9.8,9.8,0,0,0-1.25-.35,12.85,12.85,0,0,1-1.67-.47,2.65,2.65,0,0,1-1.08-.74,1.83,1.83,0,0,1-.44-1.3,2.34,2.34,0,0,1,.39-1.33,2.49,2.49,0,0,1,1.11-.89,4.11,4.11,0,0,1,1.67-.31,4.88,4.88,0,0,1,1.69.29,3.6,3.6,0,0,1,1.34.88l-.32.61a4.5,4.5,0,0,0-1.28-.83,3.91,3.91,0,0,0-1.43-.26,2.79,2.79,0,0,0-1.76.49,1.6,1.6,0,0,0-.64,1.34,1.23,1.23,0,0,0,.56,1.1,5.14,5.14,0,0,0,1.61.62l.37.08a13.51,13.51,0,0,1,1.59.47,2.56,2.56,0,0,1,1,.67,1.71,1.71,0,0,1,.41,1.21,2.17,2.17,0,0,1-.38,1.28,2.58,2.58,0,0,1-1.11.87,4.34,4.34,0,0,1-1.68.3A5.6,5.6,0,0,1,121.4,139.33Z" fill="#444"/><path d="M134,137.13h-4.81l-1,2.38h-.8l3.88-8.92H132l3.87,8.92h-.8Zm-.3-.67-2.1-4.93-2.12,4.93Z" fill="#444"/><path d="M137.4,130.59h3.43a3.17,3.17,0,0,1,2.11.65,2.48,2.48,0,0,1,0,3.6,3.11,3.11,0,0,1-2.1.66h-2.65v4h-.78Zm3.39,4.24a2.38,2.38,0,0,0,1.59-.47,1.88,1.88,0,0,0,0-2.64,2.38,2.38,0,0,0-1.59-.47h-2.61v3.58Z" fill="#444"/><path d="M145.67,138.42v.81a2.45,2.45,0,0,1-.15.87,2,2,0,0,1-.5.75l-.4-.31a1.78,1.78,0,0,0,.48-1h-.49v-1.09Z" fill="#444"/><path d="M151.91,139.33a4,4,0,0,1-1.44-.88l.33-.62a4,4,0,0,0,1.35.84,4.6,4.6,0,0,0,1.62.25,2.92,2.92,0,0,0,1.76-.46,1.54,1.54,0,0,0,.62-1.3,1.07,1.07,0,0,0-.31-.8,2.2,2.2,0,0,0-.77-.48,10.3,10.3,0,0,0-1.25-.35,12.85,12.85,0,0,1-1.67-.47,2.75,2.75,0,0,1-1.09-.74,1.88,1.88,0,0,1-.44-1.3,2.34,2.34,0,0,1,.39-1.33,2.54,2.54,0,0,1,1.11-.89,4.16,4.16,0,0,1,1.68-.31,4.88,4.88,0,0,1,1.69.29,3.68,3.68,0,0,1,1.34.88l-.33.61a4.37,4.37,0,0,0-1.28-.83,3.86,3.86,0,0,0-1.42-.26,2.77,2.77,0,0,0-1.76.49,1.58,1.58,0,0,0-.64,1.34,1.24,1.24,0,0,0,.55,1.1,5.32,5.32,0,0,0,1.62.62l.36.08a13.76,13.76,0,0,1,1.6.47,2.63,2.63,0,0,1,1,.67,1.75,1.75,0,0,1,.41,1.21,2.18,2.18,0,0,1-.39,1.28,2.58,2.58,0,0,1-1.11.87,4.29,4.29,0,0,1-1.67.3A5.6,5.6,0,0,1,151.91,139.33Z" fill="#444"/><path d="M164.55,137.13h-4.81l-1,2.38h-.8l3.88-8.92h.7l3.88,8.92h-.81Zm-.3-.67-2.11-4.93L160,136.46Z" fill="#444"/><path d="M174.78,139.51H174l-1.11-3a1.41,1.41,0,0,0-.59-.81,2.4,2.4,0,0,0-1.09-.2h-2.49v4h-.78v-8.92h3.44a3.31,3.31,0,0,1,2.16.63,2.22,2.22,0,0,1,.77,1.81,2.34,2.34,0,0,1-.46,1.46,2.39,2.39,0,0,1-1.31.82,1.29,1.29,0,0,1,.66.33,2.07,2.07,0,0,1,.47.78Zm-3.48-4.66c1.47,0,2.2-.61,2.2-1.83s-.73-1.77-2.2-1.77h-2.63v3.6Z" fill="#444"/><path d="M177.48,138.42v.81a2.45,2.45,0,0,1-.15.87,2,2,0,0,1-.5.75l-.4-.31a1.85,1.85,0,0,0,.48-1h-.49v-1.09Z" fill="#444"/><path d="M182.81,130.59h3.43a3.17,3.17,0,0,1,2.11.65,2.48,2.48,0,0,1,0,3.6,3.11,3.11,0,0,1-2.1.66h-2.65v4h-.78Zm3.38,4.24a2.39,2.39,0,0,0,1.6-.47,1.88,1.88,0,0,0,0-2.64,2.39,2.39,0,0,0-1.6-.47h-2.6v3.58Z" fill="#444"/><path d="M192.35,139.06a3.6,3.6,0,0,1-1.37-1.58,5.52,5.52,0,0,1-.49-2.43,5.73,5.73,0,0,1,.48-2.43,3.59,3.59,0,0,1,1.37-1.58,4.4,4.4,0,0,1,4.26,0,3.59,3.59,0,0,1,1.38,1.57,5.82,5.82,0,0,1,.47,2.43,5.74,5.74,0,0,1-.48,2.44,3.56,3.56,0,0,1-1.38,1.58,4.36,4.36,0,0,1-4.24,0Zm4.45-1.15a5.33,5.33,0,0,0,0-5.73,3.23,3.23,0,0,0-4.68,0,4.32,4.32,0,0,0-.83,2.85,4.37,4.37,0,0,0,.83,2.86,3.19,3.19,0,0,0,4.67,0Z" fill="#444"/><path d="M206.11,137.13H201.3l-1,2.38h-.8l3.88-8.92h.7l3.88,8.92h-.8Zm-.3-.67-2.11-4.93-2.11,4.93Z" fill="#444"/><path d="M216.68,139.09l-.45.52a6.08,6.08,0,0,1-1.71-1.24,3.64,3.64,0,0,1-1.2.92,3.81,3.81,0,0,1-2.94,0,2.3,2.3,0,0,1-1-.8,2.13,2.13,0,0,1-.34-1.2,2.33,2.33,0,0,1,.49-1.45,6,6,0,0,1,1.64-1.36,7.5,7.5,0,0,1-.85-1.19,2.07,2.07,0,0,1-.23-.94,1.73,1.73,0,0,1,.57-1.36,2.13,2.13,0,0,1,1.51-.52,2,2,0,0,1,1.39.47,1.61,1.61,0,0,1,.51,1.26,1.8,1.8,0,0,1-.4,1.16,6.25,6.25,0,0,1-1.46,1.22l2.24,2.64a6.39,6.39,0,0,0,.65-2.91h.73a6.7,6.7,0,0,1-.92,3.46A6.17,6.17,0,0,0,216.68,139.09Zm-2.6-1.22L211.62,135a6,6,0,0,0-1.4,1.15,1.84,1.84,0,0,0-.4,1.16,1.43,1.43,0,0,0,.55,1.19,2.3,2.3,0,0,0,1.49.45A2.73,2.73,0,0,0,214.08,137.87Zm-3-4.75a6.73,6.73,0,0,0,.73,1,6.36,6.36,0,0,0,1.24-1,1.31,1.31,0,0,0,.33-.86,1.13,1.13,0,0,0-.32-.83,1.22,1.22,0,0,0-.86-.31,1.32,1.32,0,0,0-.95.35,1.16,1.16,0,0,0-.35.89A1.59,1.59,0,0,0,211.07,133.12Z" fill="#444"/><path d="M226.16,130.59v8.92h-.72v-7.14l-3.14,7.14h-.57l-3.16-7.08v7.08h-.73v-8.92h.64l3.54,8,3.48-8Z" fill="#444"/><path d="M227.81,141.79a15.39,15.39,0,0,0,.93-2.9,13.25,13.25,0,0,0,0-5.42,14.65,14.65,0,0,0-1-2.88h.68a13.13,13.13,0,0,1,1,2.77,12.67,12.67,0,0,1,0,5.66,12.46,12.46,0,0,1-1,2.77Z" fill="#444"/><path d="M232.37,134.51l1.24-1.6-2-.59.2-.6,1.92.67-.06-2h.63l-.05,2,1.93-.67.18.6-1.94.59,1.24,1.6-.51.38L234,133.2l-1.16,1.69Z" fill="#444"/></g><g opacity="0.55"><path d="M91.88,89v3.44h5v1.21h-5v4H90.47V87.77h7V89Z" fill="#0a90b7"/><path d="M106.1,90.17v7.47h-1.28V96.52a2.85,2.85,0,0,1-1.08.89,3.42,3.42,0,0,1-1.46.32,3.28,3.28,0,0,1-2.36-.83,3.23,3.23,0,0,1-.86-2.43v-4.3h1.36v4.15a2.31,2.31,0,0,0,.52,1.64,2,2,0,0,0,1.49.56,2.22,2.22,0,0,0,1.69-.65,2.54,2.54,0,0,0,.63-1.84V90.17Z" fill="#0a90b7"/><path d="M108.82,87.18h1.35V97.64h-1.35Z" fill="#0a90b7"/><path d="M112.89,87.18h1.36V97.64h-1.36Z" fill="#0a90b7"/><path d="M121.83,97.41a4.48,4.48,0,0,1-1.63-.89l.52-1.1a4.48,4.48,0,0,0,1.45.82,5.31,5.31,0,0,0,1.81.32,3.24,3.24,0,0,0,1.83-.42,1.28,1.28,0,0,0,.61-1.1,1.07,1.07,0,0,0-.34-.83,2.34,2.34,0,0,0-.81-.49c-.33-.11-.79-.24-1.38-.38a13.1,13.1,0,0,1-1.8-.53,3.1,3.1,0,0,1-1.17-.83,2.21,2.21,0,0,1-.48-1.5,2.59,2.59,0,0,1,.41-1.42,2.87,2.87,0,0,1,1.27-1,5.15,5.15,0,0,1,2.1-.38,6.72,6.72,0,0,1,1.72.23,4.39,4.39,0,0,1,1.45.65l-.47,1.12a5.25,5.25,0,0,0-1.32-.6,5.17,5.17,0,0,0-1.38-.2,3.06,3.06,0,0,0-1.8.44,1.33,1.33,0,0,0-.6,1.13,1.06,1.06,0,0,0,.34.82,2.17,2.17,0,0,0,.84.49,11.35,11.35,0,0,0,1.36.38,14,14,0,0,1,1.79.53,3,3,0,0,1,1.16.82A2.13,2.13,0,0,1,127.8,95a2.54,2.54,0,0,1-.42,1.42,2.84,2.84,0,0,1-1.29,1,5.27,5.27,0,0,1-2.11.38A6.73,6.73,0,0,1,121.83,97.41Z" fill="#0a90b7"/><path d="M136.53,94.36h-6.07a2.39,2.39,0,0,0,.87,1.59,2.82,2.82,0,0,0,1.84.59,2.79,2.79,0,0,0,2.16-.9l.74.88a3.23,3.23,0,0,1-1.26.9,4.73,4.73,0,0,1-3.78-.18,3.45,3.45,0,0,1-1.42-1.36,3.92,3.92,0,0,1-.5-2,3.88,3.88,0,0,1,.49-2,3.48,3.48,0,0,1,1.33-1.36,3.8,3.8,0,0,1,1.93-.49,3.7,3.7,0,0,1,1.91.49A3.37,3.37,0,0,1,136.08,92a4.08,4.08,0,0,1,.47,2C136.55,94.05,136.54,94.19,136.53,94.36Zm-5.3-2.53a2.43,2.43,0,0,0-.77,1.56h4.8a2.48,2.48,0,0,0-.77-1.55,2.33,2.33,0,0,0-1.63-.6A2.37,2.37,0,0,0,131.23,91.83Z" fill="#0a90b7"/><path d="M139.79,97.24a3.66,3.66,0,0,1-1.4-1.36,4.06,4.06,0,0,1,0-3.94,3.5,3.5,0,0,1,1.4-1.35,4.16,4.16,0,0,1,2-.49,4,4,0,0,1,1.81.41,2.92,2.92,0,0,1,1.23,1.18l-1,.67a2.24,2.24,0,0,0-.87-.81,2.47,2.47,0,0,0-1.16-.26,2.62,2.62,0,0,0-1.31.32,2.33,2.33,0,0,0-.92.92,2.82,2.82,0,0,0-.33,1.38,2.86,2.86,0,0,0,.33,1.39,2.33,2.33,0,0,0,.92.92,2.62,2.62,0,0,0,1.31.32,2.47,2.47,0,0,0,1.16-.26,2.24,2.24,0,0,0,.87-.81l1,.65a2.88,2.88,0,0,1-1.23,1.19,3.83,3.83,0,0,1-1.81.42A4.27,4.27,0,0,1,139.79,97.24Z" fill="#0a90b7"/><path d="M153.73,90.17v7.47h-1.28V96.52a2.85,2.85,0,0,1-1.08.89,3.42,3.42,0,0,1-1.46.32,3.28,3.28,0,0,1-2.36-.83,3.23,3.23,0,0,1-.86-2.43v-4.3h1.36v4.15a2.31,2.31,0,0,0,.52,1.64,2,2,0,0,0,1.49.56,2.22,2.22,0,0,0,1.69-.65,2.54,2.54,0,0,0,.63-1.84V90.17Z" fill="#0a90b7"/><path d="M158.79,90.44a3.73,3.73,0,0,1,1.68-.34v1.31h-.31a2.31,2.31,0,0,0-1.73.65,2.6,2.6,0,0,0-.63,1.87v3.72h-1.35V90.17h1.3v1.26A2.27,2.27,0,0,1,158.79,90.44Z" fill="#0a90b7"/><path d="M162.3,88.48a.83.83,0,0,1-.27-.62.85.85,0,0,1,.27-.63A.89.89,0,0,1,163,87a.92.92,0,0,1,.66.25.82.82,0,0,1,.26.61.93.93,0,0,1-1.57.65Zm0,1.69h1.36v7.47h-1.36Z" fill="#0a90b7"/><path d="M170.55,97.21a2,2,0,0,1-.73.39,3.43,3.43,0,0,1-.9.13,2.36,2.36,0,0,1-1.75-.61,2.28,2.28,0,0,1-.62-1.73v-4.1h-1.27V90.17h1.27V88.54h1.35v1.63H170v1.12H167.9v4a1.3,1.3,0,0,0,.3.93,1.13,1.13,0,0,0,.87.33,1.62,1.62,0,0,0,1.06-.36Z" fill="#0a90b7"/><path d="M178.8,90.17l-3.63,8.22a3.63,3.63,0,0,1-1.12,1.61,2.53,2.53,0,0,1-1.54.46,3.14,3.14,0,0,1-1.06-.17,2.18,2.18,0,0,1-.86-.52l.58-1a1.92,1.92,0,0,0,1.34.55,1.3,1.3,0,0,0,.82-.26,2.16,2.16,0,0,0,.6-.9l.24-.52-3.3-7.46h1.41l2.61,6,2.58-6Z" fill="#0a90b7"/><path d="M190.63,95.18h-5.25l-1.08,2.46h-1.46l4.47-9.87h1.4l4.48,9.87h-1.48Zm-.5-1.13L188,89.21l-2.12,4.84Z" fill="#0a90b7"/><path d="M194.92,97.48a3.66,3.66,0,0,1-1.33-.63l.56-1.07a3.93,3.93,0,0,0,1.2.57,5,5,0,0,0,1.43.21q1.77,0,1.77-1a.65.65,0,0,0-.24-.53,1.53,1.53,0,0,0-.6-.29q-.36-.09-1-.21a9.82,9.82,0,0,1-1.47-.32,2.25,2.25,0,0,1-1-.62,1.69,1.69,0,0,1-.41-1.23,1.93,1.93,0,0,1,.84-1.63A3.9,3.9,0,0,1,197,90.1a6.39,6.39,0,0,1,1.49.18,4.14,4.14,0,0,1,1.23.5l-.58,1.07a3.84,3.84,0,0,0-2.16-.59,2.48,2.48,0,0,0-1.31.28.86.86,0,0,0-.45.75.7.7,0,0,0,.25.57,1.44,1.44,0,0,0,.63.31c.25.07.6.15,1,.23a10.52,10.52,0,0,1,1.46.33,2.21,2.21,0,0,1,.95.6,1.69,1.69,0,0,1,.4,1.19,1.87,1.87,0,0,1-.87,1.61,4.1,4.1,0,0,1-2.36.6A6,6,0,0,1,194.92,97.48Z" fill="#0a90b7"/><path d="M202.12,97.48a3.75,3.75,0,0,1-1.33-.63l.57-1.07a3.93,3.93,0,0,0,1.2.57,4.93,4.93,0,0,0,1.42.21c1.19,0,1.78-.34,1.78-1a.65.65,0,0,0-.24-.53,1.53,1.53,0,0,0-.6-.29q-.36-.09-1-.21a9.71,9.71,0,0,1-1.48-.32,2.31,2.31,0,0,1-1-.62,1.74,1.74,0,0,1-.41-1.23,1.94,1.94,0,0,1,.85-1.63,3.84,3.84,0,0,1,2.27-.61,6.26,6.26,0,0,1,1.49.18,4.14,4.14,0,0,1,1.23.5l-.58,1.07a3.83,3.83,0,0,0-2.15-.59,2.45,2.45,0,0,0-1.31.28.85.85,0,0,0-.46.75.7.7,0,0,0,.26.57,1.45,1.45,0,0,0,.62.31c.25.07.6.15,1.06.23a10.33,10.33,0,0,1,1.45.33,2.24,2.24,0,0,1,1,.6,1.69,1.69,0,0,1,.39,1.19,1.87,1.87,0,0,1-.87,1.61,4.06,4.06,0,0,1-2.36.6A6,6,0,0,1,202.12,97.48Z" fill="#0a90b7"/><path d="M215.67,94.36h-6.06a2.31,2.31,0,0,0,.87,1.59,2.8,2.8,0,0,0,1.84.59,2.76,2.76,0,0,0,2.15-.9l.75.88a3.38,3.38,0,0,1-1.26.9,4.75,4.75,0,0,1-3.79-.18,3.51,3.51,0,0,1-1.42-1.36,3.92,3.92,0,0,1-.5-2,4,4,0,0,1,.49-2,3.5,3.5,0,0,1,1.34-1.36A3.76,3.76,0,0,1,212,90.1a3.71,3.71,0,0,1,1.92.49A3.5,3.5,0,0,1,215.23,92a4.19,4.19,0,0,1,.47,2A3.74,3.74,0,0,1,215.67,94.36Zm-5.29-2.53a2.38,2.38,0,0,0-.77,1.56h4.79a2.38,2.38,0,0,0-.77-1.55,2.31,2.31,0,0,0-1.63-.6A2.34,2.34,0,0,0,210.38,91.83Z" fill="#0a90b7"/><path d="M218.1,97.48a3.66,3.66,0,0,1-1.33-.63l.56-1.07a3.93,3.93,0,0,0,1.2.57,5,5,0,0,0,1.43.21q1.77,0,1.77-1a.67.67,0,0,0-.23-.53,1.68,1.68,0,0,0-.6-.29c-.24-.06-.59-.13-1-.21a9.82,9.82,0,0,1-1.47-.32,2.25,2.25,0,0,1-1-.62,1.74,1.74,0,0,1-.41-1.23,1.92,1.92,0,0,1,.85-1.63,3.84,3.84,0,0,1,2.27-.61,6.39,6.39,0,0,1,1.49.18,4.14,4.14,0,0,1,1.23.5l-.58,1.07a3.84,3.84,0,0,0-2.16-.59,2.48,2.48,0,0,0-1.31.28.86.86,0,0,0-.45.75.7.7,0,0,0,.25.57,1.44,1.44,0,0,0,.63.31c.25.07.6.15,1.05.23a10.52,10.52,0,0,1,1.46.33,2.21,2.21,0,0,1,.95.6,1.65,1.65,0,0,1,.4,1.19,1.87,1.87,0,0,1-.87,1.61,4.08,4.08,0,0,1-2.36.6A6,6,0,0,1,218.1,97.48Z" fill="#0a90b7"/><path d="M225.3,97.48a3.69,3.69,0,0,1-1.32-.63l.56-1.07a3.93,3.93,0,0,0,1.2.57,4.93,4.93,0,0,0,1.42.21c1.19,0,1.78-.34,1.78-1a.65.65,0,0,0-.24-.53,1.53,1.53,0,0,0-.6-.29q-.36-.09-1-.21a10.28,10.28,0,0,1-1.48-.32,2.31,2.31,0,0,1-1-.62,1.74,1.74,0,0,1-.4-1.23,1.93,1.93,0,0,1,.84-1.63,3.86,3.86,0,0,1,2.27-.61,6.41,6.41,0,0,1,1.5.18,4.08,4.08,0,0,1,1.22.5l-.57,1.07a3.89,3.89,0,0,0-2.16-.59,2.45,2.45,0,0,0-1.31.28.86.86,0,0,0-.45.75.7.7,0,0,0,.25.57,1.44,1.44,0,0,0,.63.31c.25.07.6.15,1.05.23a10.52,10.52,0,0,1,1.46.33,2.27,2.27,0,0,1,1,.6,1.69,1.69,0,0,1,.39,1.19,1.88,1.88,0,0,1-.86,1.61,4.12,4.12,0,0,1-2.37.6A6.09,6.09,0,0,1,225.3,97.48Z" fill="#0a90b7"/><path d="M243.71,90.92a3.26,3.26,0,0,1,.83,2.42v4.3h-1.36V93.5a2.4,2.4,0,0,0-.5-1.64,1.85,1.85,0,0,0-1.43-.55,2.15,2.15,0,0,0-1.64.65,2.57,2.57,0,0,0-.6,1.83v3.85h-1.36V93.5a2.35,2.35,0,0,0-.5-1.64,1.85,1.85,0,0,0-1.43-.55,2.13,2.13,0,0,0-1.63.65,2.53,2.53,0,0,0-.61,1.83v3.85h-1.35V90.17h1.29v1.12a2.69,2.69,0,0,1,1.08-.89,3.59,3.59,0,0,1,1.5-.3,3.41,3.41,0,0,1,1.56.35,2.52,2.52,0,0,1,1,1,2.79,2.79,0,0,1,1.18-1,3.76,3.76,0,0,1,1.7-.37A3,3,0,0,1,243.71,90.92Z" fill="#0a90b7"/><path d="M253.94,94.36h-6.06a2.31,2.31,0,0,0,.87,1.59,2.79,2.79,0,0,0,1.83.59,2.76,2.76,0,0,0,2.16-.9l.75.88a3.38,3.38,0,0,1-1.26.9,4.75,4.75,0,0,1-3.79-.18A3.51,3.51,0,0,1,247,95.88a3.92,3.92,0,0,1-.5-2,4,4,0,0,1,.49-2,3.44,3.44,0,0,1,1.34-1.36,3.76,3.76,0,0,1,1.92-.49,3.71,3.71,0,0,1,1.92.49A3.5,3.5,0,0,1,253.5,92a4.19,4.19,0,0,1,.47,2A3.74,3.74,0,0,1,253.94,94.36Zm-5.29-2.53a2.38,2.38,0,0,0-.77,1.56h4.79a2.38,2.38,0,0,0-.77-1.55,2.31,2.31,0,0,0-1.63-.6A2.34,2.34,0,0,0,248.65,91.83Z" fill="#0a90b7"/><path d="M262.24,90.93a3.23,3.23,0,0,1,.84,2.41v4.3h-1.35V93.5a2.31,2.31,0,0,0-.53-1.64,2,2,0,0,0-1.49-.55A2.35,2.35,0,0,0,258,92a2.49,2.49,0,0,0-.63,1.83v3.85H256V90.17h1.29V91.3a2.65,2.65,0,0,1,1.11-.89A3.82,3.82,0,0,1,260,90.1,3.08,3.08,0,0,1,262.24,90.93Z" fill="#0a90b7"/><path d="M269.93,97.21a2,2,0,0,1-.73.39,3.38,3.38,0,0,1-.9.13,2.36,2.36,0,0,1-1.75-.61,2.28,2.28,0,0,1-.62-1.73v-4.1h-1.27V90.17h1.27V88.54h1.35v1.63h2.14v1.12h-2.14v4a1.3,1.3,0,0,0,.3.93,1.15,1.15,0,0,0,.87.33,1.62,1.62,0,0,0,1.06-.36Z" fill="#0a90b7"/></g><g style="isolation:isolate"><g style="isolation:isolate"><path d="M131.68,35.28h-5.1l-1,2.36h-1.95l4.59-10.2h1.87l4.6,10.2h-2Zm-.63-1.49-1.92-4.46-1.91,4.46Z" fill="#fff"/><path d="M143.26,29.86v7.78h-1.73v-1a2.92,2.92,0,0,1-1.09.8,3.53,3.53,0,0,1-1.42.29,3.35,3.35,0,0,1-2.45-.87,3.41,3.41,0,0,1-.9-2.57V29.86h1.82v4.19a2.25,2.25,0,0,0,.48,1.57,1.73,1.73,0,0,0,1.34.52,2.09,2.09,0,0,0,1.56-.61,2.43,2.43,0,0,0,.57-1.74V29.86Z" fill="#fff"/><path d="M150.4,37.21a2.06,2.06,0,0,1-.78.4,3.79,3.79,0,0,1-1,.13,2.79,2.79,0,0,1-2-.67,2.61,2.61,0,0,1-.7-2V31.37h-1.28V29.91H146V28.14h1.82v1.77h2.09v1.46h-2.09v3.7a1.26,1.26,0,0,0,.28.87,1,1,0,0,0,.8.3,1.61,1.61,0,0,0,1-.32Z" fill="#fff"/><path d="M158.75,30.63a3.39,3.39,0,0,1,.89,2.55v4.46h-1.82V33.41a2.2,2.2,0,0,0-.48-1.54,1.8,1.8,0,0,0-1.37-.51,2.12,2.12,0,0,0-1.59.6,2.39,2.39,0,0,0-.58,1.74v3.94H152V26.82h1.83v3.94a3,3,0,0,1,1.11-.74,4.1,4.1,0,0,1,1.48-.25A3.22,3.22,0,0,1,158.75,30.63Z" fill="#fff"/><path d="M163.47,37.23A3.74,3.74,0,0,1,162,35.81a4.08,4.08,0,0,1-.53-2.06,4,4,0,0,1,.53-2.06,3.79,3.79,0,0,1,1.48-1.41,4.72,4.72,0,0,1,4.27,0,3.79,3.79,0,0,1,1.48,1.41,4,4,0,0,1,.53,2.06,4.08,4.08,0,0,1-.53,2.06,3.74,3.74,0,0,1-1.48,1.42,4.72,4.72,0,0,1-4.27,0Zm3.79-1.72a2.69,2.69,0,0,0,0-3.53,2.39,2.39,0,0,0-3.32,0,2.75,2.75,0,0,0,0,3.53,2.39,2.39,0,0,0,3.32,0Z" fill="#fff"/><path d="M176.07,29.77V31.5a2.12,2.12,0,0,0-.42,0,2.17,2.17,0,0,0-1.66.62,2.46,2.46,0,0,0-.6,1.78v3.78h-1.82V29.86h1.74V31A3,3,0,0,1,176.07,29.77Z" fill="#fff"/><path d="M177.78,28.26a1.06,1.06,0,0,1,0-1.56,1.16,1.16,0,0,1,.83-.31,1.19,1.19,0,0,1,.83.3,1,1,0,0,1,.34.75,1.1,1.1,0,0,1-.33.81,1.17,1.17,0,0,1-.84.32A1.16,1.16,0,0,1,177.78,28.26Zm-.09,1.6h1.82v7.78h-1.82Z" fill="#fff"/><path d="M188.05,36.18v1.46h-6.72V36.49l4.27-5.18h-4.18V29.86h6.51V31l-4.28,5.17Z" fill="#fff"/><path d="M195.4,30.59a3.18,3.18,0,0,1,.91,2.49v4.56h-1.72v-1a2.11,2.11,0,0,1-1,.78,3.71,3.71,0,0,1-1.49.27,3.6,3.6,0,0,1-1.53-.3,2.42,2.42,0,0,1-1-.83,2.11,2.11,0,0,1-.35-1.2,2.05,2.05,0,0,1,.78-1.69,3.85,3.85,0,0,1,2.45-.63h2V33a1.58,1.58,0,0,0-.49-1.25,2.11,2.11,0,0,0-1.45-.44,4.15,4.15,0,0,0-1.29.21,3,3,0,0,0-1.07.57l-.71-1.33A4.37,4.37,0,0,1,191,30a6.35,6.35,0,0,1,1.82-.25A3.79,3.79,0,0,1,195.4,30.59Zm-1.66,5.51a1.71,1.71,0,0,0,.75-.9v-.9h-1.88c-1.05,0-1.57.34-1.57,1a.93.93,0,0,0,.39.79,1.76,1.76,0,0,0,1.09.29A2.33,2.33,0,0,0,193.74,36.1Z" fill="#fff"/><path d="M203.39,37.21a2.06,2.06,0,0,1-.78.4,3.73,3.73,0,0,1-1,.13,2.79,2.79,0,0,1-2-.67,2.61,2.61,0,0,1-.7-2V31.37h-1.28V29.91H199V28.14h1.83v1.77h2.08v1.46h-2.08v3.7a1.26,1.26,0,0,0,.27.87,1,1,0,0,0,.8.3,1.61,1.61,0,0,0,1-.32Z" fill="#fff"/><path d="M205.05,28.26a1.09,1.09,0,0,1,0-1.56,1.17,1.17,0,0,1,.83-.31,1.24,1.24,0,0,1,.84.3,1,1,0,0,1,.33.75,1.1,1.1,0,0,1-.33.81,1.15,1.15,0,0,1-.84.32A1.17,1.17,0,0,1,205.05,28.26Zm-.08,1.6h1.82v7.78H205Z" fill="#fff"/><path d="M210.62,37.23a3.74,3.74,0,0,1-1.48-1.42,4.08,4.08,0,0,1-.53-2.06,4,4,0,0,1,.53-2.06,3.79,3.79,0,0,1,1.48-1.41,4.72,4.72,0,0,1,4.27,0,3.79,3.79,0,0,1,1.48,1.41,4,4,0,0,1,.53,2.06,4.08,4.08,0,0,1-.53,2.06,3.74,3.74,0,0,1-1.48,1.42,4.72,4.72,0,0,1-4.27,0Zm3.79-1.72a2.69,2.69,0,0,0,0-3.53,2.39,2.39,0,0,0-3.32,0,2.75,2.75,0,0,0,0,3.53,2.39,2.39,0,0,0,3.32,0Z" fill="#fff"/><path d="M225.5,30.63a3.39,3.39,0,0,1,.89,2.55v4.46h-1.82V33.41a2.21,2.21,0,0,0-.49-1.54,1.78,1.78,0,0,0-1.37-.51,2.08,2.08,0,0,0-1.58.6,2.39,2.39,0,0,0-.59,1.74v3.94h-1.82V29.86h1.74v1a2.92,2.92,0,0,1,1.13-.82,4.2,4.2,0,0,1,1.55-.27A3.22,3.22,0,0,1,225.5,30.63Z" fill="#fff"/></g></g><g opacity="0.55"><path d="M227.48,180.92a9.49,9.49,0,1,1-9.48-9.49A9.48,9.48,0,0,1,227.48,180.92Z" fill="#757575"/><path d="M218.09,186.61a1,1,0,0,1-.73-.3l-4.14-4a1,1,0,0,1-.06-1.35l.06-.06a1,1,0,0,1,1.45,0h0l3.42,3.32,3.42-3.32a1,1,0,0,1,1.44,0h0a1,1,0,0,1,0,1.35l0,.06-4.15,4A.93.93,0,0,1,218.09,186.61Z" fill="#fff"/><path d="M218,184.43V176" fill="none" stroke="#fff" stroke-linecap="round" stroke-width="2"/></g><g opacity="0.55"><circle cx="98.89" cy="121.61" r="9.48" fill="#0a90b7"/><path d="M100.88,119a.49.49,0,0,1-.49-.5v-3.11H95.54a1.25,1.25,0,0,0-1.24,1.24v9.9a1.25,1.25,0,0,0,1.24,1.24h7.22a1.25,1.25,0,0,0,1.24-1.24V119Z" fill="#fff"/><path d="M100.85,119H104l-3.61-3.61v3.15A.5.5,0,0,0,100.85,119Z" fill="#a6d7e5"/><polygon points="104 121.61 104 119.05 100.87 119.05 104 121.61" fill="#f2f2f2" style="mix-blend-mode:multiply"/></g><path d="M95.42,41.9a7.54,7.54,0,0,1-2.94-.77l-.23-.1L92.09,41a12.66,12.66,0,0,0-1.25-.45,2.33,2.33,0,0,0-.69-.13.89.89,0,0,0-.5.14.9.9,0,0,0-.29.4.72.72,0,0,1-.65.5H86.65a.8.8,0,0,1-.72-.74,3.57,3.57,0,0,1,0-.47c0-.13,0-.33,0-.58a7.83,7.83,0,0,1,.66-3.2,8.69,8.69,0,0,1,1.95-2.67,11.58,11.58,0,0,1,1-.87,1.72,1.72,0,0,1-.33,0,3,3,0,0,1-2.38-1,4.14,4.14,0,0,1-.94-2.82A5.61,5.61,0,0,1,88,24.55a7.49,7.49,0,0,1,5-1.67,7.76,7.76,0,0,1,5.11,1.64,5.82,5.82,0,0,1,2.07,4.67A5.64,5.64,0,0,1,98.81,33a6.71,6.71,0,0,1-.91.84h1.89a.83.83,0,0,1,.73.85c0,.13,0,.27,0,.42s0,.35,0,.63a7.06,7.06,0,0,1-1.29,4.61,4.75,4.75,0,0,1-3.83,1.54Zm-1.55-6.24c.29,0,.6.11.93.19a9,9,0,0,0,1.45.27c.14,0,.4,0,.49-.16a2.55,2.55,0,0,0,.17-1.2,1.27,1.27,0,0,1,0-.28,11,11,0,0,1-1.79.77l-.88.27-.4.14Zm-3-8.36a2.12,2.12,0,0,1,.61.47,2.87,2.87,0,0,1,.73,2,3.18,3.18,0,0,1-.45,1.68A7.39,7.39,0,0,0,92.4,31a4.73,4.73,0,0,0,1.34-1.21,1.88,1.88,0,0,0,.26-1,1.35,1.35,0,0,0-.48-1.1,2.45,2.45,0,0,0-1.69-.53,3,3,0,0,0-1,.14ZM78.6,41.9a6.32,6.32,0,0,1-5.23-2.61,11,11,0,0,1-2-6.89,11.09,11.09,0,0,1,2-6.9,6.55,6.55,0,0,1,10.48,0,11,11,0,0,1,2,6.9,11,11,0,0,1-2,6.88A6.34,6.34,0,0,1,78.6,41.9Zm0-14.84c-.58,0-.95.31-1.21,1a13.26,13.26,0,0,0-.49,4.37,13.12,13.12,0,0,0,.48,4.35c.26.67.63,1,1.19,1a1.25,1.25,0,0,0,1.22-1,13.22,13.22,0,0,0,.48-4.35A13.42,13.42,0,0,0,79.82,28c-.25-.66-.62-1-1.19-1Z" fill="#fff"/><path d="M86.65,40.5c0-.1,0-.22,0-.34s0-.3,0-.54a6.51,6.51,0,0,1,.57-2.75,7.83,7.83,0,0,1,1.75-2.4,16.07,16.07,0,0,1,2.65-1.9c.54-.32.94-.57,1.18-.75a5.49,5.49,0,0,0,1.55-1.43,3,3,0,0,0,.43-1.6,2.33,2.33,0,0,0-.8-1.85,3.08,3.08,0,0,0-2.11-.69,3.17,3.17,0,0,0-1.8.47,2.75,2.75,0,0,0-1,1.36L89.4,28a1.47,1.47,0,0,1,.33,0,1.62,1.62,0,0,1,1.24.51,1.85,1.85,0,0,1,.48,1.32A2.2,2.2,0,0,1,89.2,32a2.38,2.38,0,0,1-1.88-.79,3.15,3.15,0,0,1-.71-2.15,4.7,4.7,0,0,1,1.81-3.75A6.91,6.91,0,0,1,93,23.8a7.06,7.06,0,0,1,4.69,1.47,4.86,4.86,0,0,1,1.76,3.92,4.68,4.68,0,0,1-1.13,3.15,7.32,7.32,0,0,1-3.35,2l-.87.28c-2.41.77-4,1.67-4.62,2.68a6.36,6.36,0,0,1,1.5-.66,5.83,5.83,0,0,1,1.57-.21,9.52,9.52,0,0,1,2.12.29,9.7,9.7,0,0,0,1.59.29,1.15,1.15,0,0,0,1.07-.52,3.45,3.45,0,0,0,.32-1.75h2.15c0,.13,0,.25,0,.39s0,.34,0,.6a6.05,6.05,0,0,1-1.07,4A4.07,4.07,0,0,1,95.42,41a7,7,0,0,1-2.7-.71l-.38-.17A12.49,12.49,0,0,0,91,39.61a3,3,0,0,0-.86-.15,1.46,1.46,0,0,0-.86.26,1.76,1.76,0,0,0-.58.78ZM72,32.4a10,10,0,0,1,1.82-6.24,6,6,0,0,1,9.53,0A10,10,0,0,1,85.2,32.4a9.91,9.91,0,0,1-1.82,6.22,6,6,0,0,1-9.53,0A9.9,9.9,0,0,1,72,32.4Zm4.2,0a14.64,14.64,0,0,0,.56,4.77,1.85,1.85,0,0,0,3.62,0A14.35,14.35,0,0,0,81,32.4a14.74,14.74,0,0,0-.56-4.79,1.88,1.88,0,0,0-1.8-1.46,1.92,1.92,0,0,0-1.82,1.47A14.38,14.38,0,0,0,76.24,32.4Z" fill="#0a90b7"/><path d="M77.08,38.07l-.24.32a3.49,3.49,0,0,1-.49-.9,15.07,15.07,0,0,1-.62-5.09,15.07,15.07,0,0,1,.62-5.09,2.44,2.44,0,0,1,2.28-1.85,2.12,2.12,0,0,1,1.73.88l-.24.32a1.81,1.81,0,0,0-1.49-.74,2.08,2.08,0,0,0-2,1.59,14.45,14.45,0,0,0-.59,4.89,14.59,14.59,0,0,0,.58,4.87A3.33,3.33,0,0,0,77.08,38.07Zm6.24-11.68-.24.33a9.33,9.33,0,0,1,1.6,5.68A9.21,9.21,0,0,1,83,38.14a5.58,5.58,0,0,1-8.82,0h0l-.24.32h0a5.56,5.56,0,0,0,4.63,2.28,5.63,5.63,0,0,0,4.66-2.29A9.7,9.7,0,0,0,85,32.4,9.82,9.82,0,0,0,83.32,26.39Zm16.3,8.77s0-.11,0-.17l-.35.46v.3a5.43,5.43,0,0,1-.9,3.46,3.67,3.67,0,0,1-2.94,1.09,6.53,6.53,0,0,1-2.51-.68l-.38-.17c-.56-.23-1-.4-1.39-.51a3.6,3.6,0,0,0-1-.17,1.89,1.89,0,0,0-1.14.36,2,2,0,0,0-.6.69H87.17l-.36.45H88.6a1.82,1.82,0,0,1,.6-.75,1.6,1.6,0,0,1,1-.29,3.06,3.06,0,0,1,.91.16c.35.1.8.27,1.35.49l.38.17a6.7,6.7,0,0,0,2.63.7,3.94,3.94,0,0,0,3.19-1.21,5.88,5.88,0,0,0,1-3.79C99.63,35.49,99.62,35.29,99.62,35.16ZM87.44,31a2.23,2.23,0,0,0,1.76.74,2.07,2.07,0,0,0,1.49-.6,1.87,1.87,0,0,0,.58-1.39,1.61,1.61,0,0,0-.41-1.14L90.6,29a0,0,0,0,1,0,0,1.07,1.07,0,0,1,.29.8,1.37,1.37,0,0,1-.44,1,1.69,1.69,0,0,1-1.26.5,1.87,1.87,0,0,1-1.5-.61l-.26.32ZM98.2,26.75s0,0,0,0a4.37,4.37,0,0,1,.67,2.42,3.86,3.86,0,0,1-1,2.65,6.71,6.71,0,0,1-3.11,1.86L94,34c-2.56.82-4.16,1.78-4.91,2.92a.79.79,0,0,0,0,.85l.29-.28a.28.28,0,0,1,0-.28c.7-1.07,2.24-2,4.72-2.76.37-.12.66-.2.87-.28a7.12,7.12,0,0,0,3.26-2,4.44,4.44,0,0,0,1.08-3,4.71,4.71,0,0,0-.8-2.76Zm-3.94-.37a3.59,3.59,0,0,0-2.43-.82,3.68,3.68,0,0,0-2,.55,3.33,3.33,0,0,0-1.29,1.68.83.83,0,0,0,.06.72l.29-.28a.29.29,0,0,1,0-.24A2.94,2.94,0,0,1,90,26.51,3.43,3.43,0,0,1,91.83,26a3.27,3.27,0,0,1,2.2.72l.26-.33S94.27,26.4,94.26,26.38Z" fill="#a6d7e5"/><rect x="49.45" width="351.56" height="420.36" fill="#209abd" opacity="0.46"/><polygon points="49.22 409.03 37.5 393.68 49.22 393.68 49.22 409.03" fill="#0a90b7"/><polygon points="400.78 409.03 412.5 393.68 400.78 393.68 400.78 409.03" fill="#0a90b7"/><rect x="49.22" y="385.35" width="351.56" height="14.52" fill="#0a90b7" opacity="0.6"/><rect x="37.55" y="80.92" width="374.95" height="312.53" fill="#f2f2f2"/><path d="M74.05,151.78a2.67,2.67,0,0,1-1-1,2.56,2.56,0,0,1-.38-1.38,2.67,2.67,0,0,1,.36-1.34,2.82,2.82,0,0,1,1-1,2.72,2.72,0,0,1,1.43-.39,2.79,2.79,0,0,1,1.38.36,2.69,2.69,0,0,1,1,1,2.68,2.68,0,0,1,0,2.77,2.82,2.82,0,0,1-3.8,1Z" fill="#0a90b7" stroke="#0a90b7" stroke-miterlimit="10" stroke-width="0.25"/><path d="M108.32,153.5l-5.87-5.22v5.22h-1V142.6h1v5.05L108,142.6h1.25l-5.88,5.33,6.2,5.57Z" fill="#444"/><path d="M112,142.66v1.19h-1.24v-1.19Zm-1.1,3.17h.92v7.67h-.92Z" fill="#444"/><path d="M115.7,153.12a3.33,3.33,0,0,1-1.26-1.39,4.7,4.7,0,0,1-.44-2.07,4.85,4.85,0,0,1,.44-2.11,3.29,3.29,0,0,1,1.27-1.41,3.69,3.69,0,0,1,1.92-.5,4.14,4.14,0,0,1,1.49.27,3.13,3.13,0,0,1,1.17.74l-.37.74a4.24,4.24,0,0,0-1.14-.71,2.87,2.87,0,0,0-1.12-.22,2.42,2.42,0,0,0-2,.85,3.51,3.51,0,0,0-.72,2.35,3.41,3.41,0,0,0,.71,2.29,2.47,2.47,0,0,0,2,.83,2.87,2.87,0,0,0,1.12-.22,4.45,4.45,0,0,0,1.14-.7l.37.72a3.36,3.36,0,0,1-1.21.75,4.26,4.26,0,0,1-1.48.28A3.65,3.65,0,0,1,115.7,153.12Z" fill="#444"/><path d="M127.21,153.5,123,149.76v3.74h-.92V142.23H123v7.17l3.86-3.57h1.21l-4,3.69,4.45,4Z" fill="#444"/><path d="M130.8,153.12a3.32,3.32,0,0,1-1.24-1.4,5.32,5.32,0,0,1,0-4.19,3.32,3.32,0,0,1,1.24-1.4,3.59,3.59,0,0,1,1.87-.49,3.48,3.48,0,0,1,1.83.49,3.32,3.32,0,0,1,1.24,1.4,5.32,5.32,0,0,1,0,4.19,3.32,3.32,0,0,1-1.24,1.4,3.48,3.48,0,0,1-1.83.49A3.59,3.59,0,0,1,130.8,153.12Zm3.74-1.16a4.38,4.38,0,0,0,0-4.67,2.25,2.25,0,0,0-1.86-.83,2.28,2.28,0,0,0-1.89.83,4.45,4.45,0,0,0,0,4.68,2.59,2.59,0,0,0,3.77,0Z" fill="#444"/><path d="M139.94,143.36a1.81,1.81,0,0,0-.35,1.26v1.21h2v.75h-2v6.92h-.94v-6.92h-1.5v-.75h1.5v-1.38a2.33,2.33,0,0,1,.57-1.72,2.14,2.14,0,0,1,1.56-.56,4,4,0,0,1,.95.12v.84A2.74,2.74,0,0,0,141,143,1.38,1.38,0,0,0,139.94,143.36Z" fill="#444"/><path d="M145,143.36a1.76,1.76,0,0,0-.35,1.26v1.21h2v.75h-2v6.92h-.94v-6.92h-1.5v-.75h1.5v-1.38a2.33,2.33,0,0,1,.57-1.72,2.14,2.14,0,0,1,1.56-.56,4,4,0,0,1,1,.12v.84a2.8,2.8,0,0,0-.78-.12A1.38,1.38,0,0,0,145,143.36Z" fill="#444"/><path d="M153.17,152.9a15.16,15.16,0,0,1,0-6.92,16.12,16.12,0,0,1,1.24-3.38h.83a18.28,18.28,0,0,0-1.16,3.52,16.1,16.1,0,0,0-.34,3.31,16.34,16.34,0,0,0,.34,3.32,18.44,18.44,0,0,0,1.16,3.54h-.81A15.74,15.74,0,0,1,153.17,152.9Z" fill="#444"/><path d="M164.18,148.66a2.09,2.09,0,0,1-2,1.47,2.55,2.55,0,0,1-1-.19c-.32-.13-.69-.31-1.13-.54a7.19,7.19,0,0,0-.82-.42,1.68,1.68,0,0,0-.64-.14,1.24,1.24,0,0,0-.83.28,1.89,1.89,0,0,0-.51.78l-.66-.35a2.06,2.06,0,0,1,2-1.46,2.42,2.42,0,0,1,1,.19c.31.12.69.3,1.15.53a7.19,7.19,0,0,0,.82.42,1.66,1.66,0,0,0,.64.13,1.23,1.23,0,0,0,.82-.27,2.17,2.17,0,0,0,.52-.75Z" fill="#444"/><path d="M172.93,152.67v.83h-5.78v-.83h2.42v-8.82l-2.25,1.46v-1L170,142.6h.53v10.07Z" fill="#444"/><path d="M191,145.83l-2.79,7.67h-1L185,147l-2.34,6.48h-1l-2.77-7.67h1l2.27,6.55,2.38-6.55h.94l2.31,6.55,2.33-6.55Z" fill="#444"/><path d="M193.31,149.55v0A3.53,3.53,0,0,0,194,152a2.6,2.6,0,0,0,2.08.82,3.86,3.86,0,0,0,2.52-.95l.37.74a3.8,3.8,0,0,1-1.28.75,4.72,4.72,0,0,1-1.61.29,3.65,3.65,0,0,1-2.76-1.06,4,4,0,0,1-1-2.91,4.66,4.66,0,0,1,.45-2.09,3.33,3.33,0,0,1,1.26-1.41,3.56,3.56,0,0,1,1.87-.5,3,3,0,0,1,2.37,1,4,4,0,0,1,.85,2.73v.2Zm.89-2.51a3,3,0,0,0-.83,1.79h4.87a2.8,2.8,0,0,0-.69-1.8,2.18,2.18,0,0,0-1.64-.62A2.37,2.37,0,0,0,194.2,147Z" fill="#444"/><path d="M201.7,149.55v0a3.53,3.53,0,0,0,.71,2.37,2.6,2.6,0,0,0,2.08.82,3.91,3.91,0,0,0,2.53-.95l.36.74a3.7,3.7,0,0,1-1.28.75,4.67,4.67,0,0,1-1.61.29,3.68,3.68,0,0,1-2.76-1.06,4,4,0,0,1-1-2.91,4.66,4.66,0,0,1,.45-2.09,3.35,3.35,0,0,1,1.27-1.41,3.5,3.5,0,0,1,1.86-.5,3,3,0,0,1,2.37,1,4,4,0,0,1,.85,2.73v.2Zm.89-2.51a3.06,3.06,0,0,0-.83,1.79h4.87a2.8,2.8,0,0,0-.69-1.8,2.18,2.18,0,0,0-1.64-.62A2.37,2.37,0,0,0,202.59,147Z" fill="#444"/><path d="M214.75,153.5l-4.23-3.74v3.74h-.92V142.23h.92v7.17l3.86-3.57h1.21l-4,3.69,4.44,4Z" fill="#444"/><path d="M216.56,156.29a18.86,18.86,0,0,0,1.14-3.55,16.39,16.39,0,0,0,.34-3.31,16.1,16.1,0,0,0-.34-3.31,18.28,18.28,0,0,0-1.16-3.52h.83a16.12,16.12,0,0,1,1.24,3.38,15.16,15.16,0,0,1,0,6.92,15.74,15.74,0,0,1-1.26,3.39Z" fill="#444"/><path d="M101.5,171.31h6.57v.81h-5.62v4.14h5.32v.84h-5.32v5.11h-1Z" fill="#444"/><path d="M110.32,178.26v.05a3.45,3.45,0,0,0,.72,2.36,2.57,2.57,0,0,0,2.07.82,3.85,3.85,0,0,0,2.53-1l.36.74a3.57,3.57,0,0,1-1.28.76,4.66,4.66,0,0,1-1.61.28,3.64,3.64,0,0,1-2.76-1.06,4,4,0,0,1-1-2.91,4.69,4.69,0,0,1,.45-2.09,3.54,3.54,0,0,1,1.27-1.41,3.5,3.5,0,0,1,1.87-.49,2.92,2.92,0,0,1,2.36,1,4,4,0,0,1,.85,2.72v.2Zm.89-2.5a3,3,0,0,0-.83,1.78h4.87a2.84,2.84,0,0,0-.69-1.8,2.15,2.15,0,0,0-1.63-.62A2.35,2.35,0,0,0,111.21,175.76Z" fill="#444"/><path d="M124.73,170.94v11.27h-.93v-1.47a2.54,2.54,0,0,1-1,1.17,3,3,0,0,1-1.63.41,3.22,3.22,0,0,1-1.78-.5,3.29,3.29,0,0,1-1.21-1.41,5,5,0,0,1-.43-2.1,4.7,4.7,0,0,1,.43-2.09,3.1,3.1,0,0,1,1.19-1.38,3.34,3.34,0,0,1,1.8-.48,3.17,3.17,0,0,1,1.61.39,2.58,2.58,0,0,1,1,1.17v-5Zm-1.59,9.73a4.46,4.46,0,0,0,0-4.67,2.24,2.24,0,0,0-1.85-.83,2.29,2.29,0,0,0-1.9.83,3.55,3.55,0,0,0-.68,2.31,3.64,3.64,0,0,0,.68,2.34,2.53,2.53,0,0,0,3.75,0Z" fill="#444"/><path d="M135.88,182.21h-1l-1.36-3.63a1.72,1.72,0,0,0-.72-1,2.8,2.8,0,0,0-1.33-.26h-3.05v4.87h-1v-10.9h4.21a4,4,0,0,1,2.63.77,2.71,2.71,0,0,1,.94,2.22,2.82,2.82,0,0,1-.56,1.77,2.94,2.94,0,0,1-1.6,1,1.48,1.48,0,0,1,.81.4,2.52,2.52,0,0,1,.57,1Zm-4.24-5.69c1.79,0,2.68-.75,2.68-2.24s-.89-2.16-2.68-2.16h-3.22v4.4Z" fill="#444"/><path d="M145.13,179.3h-5.88L138,182.21h-1l4.75-10.9h.86l4.73,10.9h-1Zm-.37-.82-2.57-6-2.59,6Z" fill="#444"/><path d="M159.4,171.31v10.9h-.88v-8.73l-3.83,8.73H154l-3.86-8.65,0,8.65h-.89v-10.9H150l4.32,9.77,4.26-9.77Z" fill="#444"/><path d="M162.3,171.31h4.19a3.87,3.87,0,0,1,2.58.8,2.73,2.73,0,0,1,.93,2.19,2.76,2.76,0,0,1-.94,2.21,3.86,3.86,0,0,1-2.57.8h-3.24v4.9h-.95Zm4.13,5.18a2.91,2.91,0,0,0,1.95-.57,2,2,0,0,0,.66-1.62,2,2,0,0,0-.66-1.61,2.91,2.91,0,0,0-1.95-.57h-3.18v4.37Z" fill="#444"/><path d="M186.39,171.31v10.9h-.89v-8.73l-3.83,8.73H181l-3.86-8.65v8.65h-.89v-10.9H177l4.32,9.77,4.26-9.77Z" fill="#444"/><path d="M195.65,174.54v7.67h-.93v-1.47a2.54,2.54,0,0,1-1,1.17,3.06,3.06,0,0,1-1.63.41,3.32,3.32,0,0,1-1.8-.48,3.12,3.12,0,0,1-1.2-1.38,4.87,4.87,0,0,1-.42-2.09,5,5,0,0,1,.43-2.11,3.46,3.46,0,0,1,1.2-1.41,3.25,3.25,0,0,1,1.79-.49,3.17,3.17,0,0,1,1.61.39,2.58,2.58,0,0,1,1,1.17v-1.38Zm-1.59,6.13a4.46,4.46,0,0,0,0-4.67,2.51,2.51,0,0,0-3.75,0,3.67,3.67,0,0,0-.68,2.35,3.51,3.51,0,0,0,.68,2.3,2.31,2.31,0,0,0,1.9.82A2.24,2.24,0,0,0,194.06,180.67Z" fill="#444"/><path d="M202.25,174.42l0,.84a3.62,3.62,0,0,0-.71-.06,2.09,2.09,0,0,0-1.74.74,2.84,2.84,0,0,0-.57,1.77v4.5h-.92v-5.54a16.81,16.81,0,0,0-.12-2.13H199l.12,1.42a2.34,2.34,0,0,1,.94-1.19,2.66,2.66,0,0,1,1.48-.41A3.33,3.33,0,0,1,202.25,174.42Z" fill="#444"/><path d="M208.84,182.21l-4.23-3.73v3.73h-.92V170.94h.92v7.17l3.86-3.57h1.21l-4,3.69,4.44,4Z" fill="#444"/><path d="M211.73,178.26v.05a3.5,3.5,0,0,0,.71,2.36,2.6,2.6,0,0,0,2.08.82,3.81,3.81,0,0,0,2.52-1l.37.74a3.62,3.62,0,0,1-1.29.76,4.61,4.61,0,0,1-1.6.28,3.61,3.61,0,0,1-2.76-1.06,4,4,0,0,1-1-2.91,4.69,4.69,0,0,1,.45-2.09,3.45,3.45,0,0,1,1.26-1.41,3.55,3.55,0,0,1,1.87-.49,3,3,0,0,1,2.37,1,4,4,0,0,1,.85,2.72v.2Zm.89-2.5a3,3,0,0,0-.83,1.78h4.87a2.84,2.84,0,0,0-.69-1.8,2.18,2.18,0,0,0-1.64-.62A2.34,2.34,0,0,0,212.62,175.76Z" fill="#444"/><path d="M220.92,175.29v4.56a1.83,1.83,0,0,0,.35,1.28,1.44,1.44,0,0,0,1,.35,2.58,2.58,0,0,0,.83-.14v.84a4.21,4.21,0,0,1-1,.12,2.14,2.14,0,0,1-1.58-.56A2.31,2.31,0,0,1,220,180v-4.75h-1.52v-.75H220v-2l.93-.35v2.39h2.27v.75Z" fill="#444"/><path d="M230.22,174.85a3.32,3.32,0,0,1,1.2,1.41,4.85,4.85,0,0,1,.43,2.11,4.8,4.8,0,0,1-.42,2.08,3.23,3.23,0,0,1-1.2,1.38,3.27,3.27,0,0,1-1.79.49,3.09,3.09,0,0,1-1.65-.42,2.62,2.62,0,0,1-1-1.22v4.84h-.92v-8.85a16.81,16.81,0,0,0-.12-2.13h.89l.12,1.5a2.62,2.62,0,0,1,1-1.25,3,3,0,0,1,1.66-.43A3.22,3.22,0,0,1,230.22,174.85Zm0,5.82a3.5,3.5,0,0,0,.67-2.3,3.67,3.67,0,0,0-.67-2.35,2.51,2.51,0,0,0-3.75,0,4.46,4.46,0,0,0,0,4.67,2.25,2.25,0,0,0,1.87.82A2.3,2.3,0,0,0,230.2,180.67Z" fill="#444"/><path d="M234,170.94h.92v11.27H234Z" fill="#444"/><path d="M244.06,174.54v7.67h-.94v-1.47a2.43,2.43,0,0,1-1,1.17,3,3,0,0,1-1.63.41,3.36,3.36,0,0,1-1.8-.48,3.17,3.17,0,0,1-1.19-1.38,5.4,5.4,0,0,1,0-4.2,3.32,3.32,0,0,1,1.2-1.41,3.52,3.52,0,0,1,3.4-.1,2.56,2.56,0,0,1,1,1.17v-1.38Zm-1.6,6.13a4.46,4.46,0,0,0,0-4.67,2.21,2.21,0,0,0-1.86-.83,2.27,2.27,0,0,0-1.89.85,3.67,3.67,0,0,0-.67,2.35,3.5,3.5,0,0,0,.67,2.3,2.31,2.31,0,0,0,1.9.82A2.21,2.21,0,0,0,242.46,180.67Z" fill="#444"/><path d="M247.88,181.83a3.25,3.25,0,0,1-1.25-1.39,4.51,4.51,0,0,1-.45-2.07,4.71,4.71,0,0,1,.45-2.11,3.34,3.34,0,0,1,1.27-1.41,3.65,3.65,0,0,1,1.91-.49,4.46,4.46,0,0,1,1.5.26,3.19,3.19,0,0,1,1.17.75l-.37.73a4.88,4.88,0,0,0-1.14-.71,2.92,2.92,0,0,0-1.13-.22,2.43,2.43,0,0,0-2,.85,3.51,3.51,0,0,0-.72,2.35,3.41,3.41,0,0,0,.72,2.3,2.45,2.45,0,0,0,2,.82,2.92,2.92,0,0,0,1.13-.22,4.81,4.81,0,0,0,1.14-.7l.37.72a3.4,3.4,0,0,1-1.22.75,4,4,0,0,1-1.48.28A3.59,3.59,0,0,1,247.88,181.83Z" fill="#444"/><path d="M254.75,178.26v.05a3.45,3.45,0,0,0,.71,2.36,2.57,2.57,0,0,0,2.07.82,3.85,3.85,0,0,0,2.53-1l.37.74a3.71,3.71,0,0,1-1.29.76,4.66,4.66,0,0,1-1.61.28,3.6,3.6,0,0,1-2.75-1.06,4,4,0,0,1-1-2.91,4.69,4.69,0,0,1,.45-2.09,3.45,3.45,0,0,1,1.26-1.41,3.5,3.5,0,0,1,1.87-.49,2.92,2.92,0,0,1,2.36,1,4,4,0,0,1,.85,2.72v.2Zm.88-2.5a3,3,0,0,0-.82,1.78h4.87a2.84,2.84,0,0,0-.69-1.8,2.19,2.19,0,0,0-1.64-.62A2.35,2.35,0,0,0,255.63,175.76Z" fill="#444"/><path d="M266.77,171.31h3.5a4.92,4.92,0,0,1,5.43,5.44,5.51,5.51,0,0,1-1.42,4,5.41,5.41,0,0,1-4,1.42h-3.5Zm3.46,10.08a4.39,4.39,0,0,0,3.34-1.18,4.84,4.84,0,0,0,1.11-3.46c0-3.08-1.48-4.61-4.45-4.61h-2.51v9.25Z" fill="#444"/><path d="M278.51,178.26v.05a3.5,3.5,0,0,0,.71,2.36,2.6,2.6,0,0,0,2.08.82,3.85,3.85,0,0,0,2.53-1l.36.74a3.57,3.57,0,0,1-1.28.76,4.66,4.66,0,0,1-1.61.28,3.64,3.64,0,0,1-2.76-1.06,4,4,0,0,1-1-2.91,4.69,4.69,0,0,1,.45-2.09,3.54,3.54,0,0,1,1.27-1.41,3.5,3.5,0,0,1,1.87-.49,2.92,2.92,0,0,1,2.36,1,4,4,0,0,1,.85,2.72v.2Zm.89-2.5a3,3,0,0,0-.83,1.78h4.87a2.84,2.84,0,0,0-.69-1.8,2.15,2.15,0,0,0-1.63-.62A2.35,2.35,0,0,0,279.4,175.76Z" fill="#444"/><path d="M286,181.29l.33-.72a3.94,3.94,0,0,0,1.23.72,4.27,4.27,0,0,0,1.44.22,2.6,2.6,0,0,0,1.44-.33,1.18,1.18,0,0,0,.17-1.78,2.48,2.48,0,0,0-1.08-.48l-1.3-.29a2.86,2.86,0,0,1-1.45-.77,1.77,1.77,0,0,1-.52-1.28A1.94,1.94,0,0,1,287,175a3.26,3.26,0,0,1,2.06-.6,4.17,4.17,0,0,1,1.51.26,2.88,2.88,0,0,1,1.15.75l-.35.72a3.4,3.4,0,0,0-2.31-.92,2.39,2.39,0,0,0-1.38.35,1.14,1.14,0,0,0-.49,1,1.17,1.17,0,0,0,.31.84,1.92,1.92,0,0,0,1,.48l1.31.32c1.38.31,2.07,1,2.07,2a1.84,1.84,0,0,1-.8,1.55,3.53,3.53,0,0,1-2.14.59A4.09,4.09,0,0,1,286,181.29Z" fill="#444"/><path d="M295.16,171.37v1.2h-1.24v-1.2Zm-1.1,3.17H295v7.67h-.91Z" fill="#444"/><path d="M304.19,174.54v7.7a3.5,3.5,0,0,1-.82,2.53,3.27,3.27,0,0,1-2.44.86,5.39,5.39,0,0,1-3-.83l.19-.81a6.31,6.31,0,0,0,1.38.63,5.15,5.15,0,0,0,1.44.18,2.25,2.25,0,0,0,1.73-.63,2.55,2.55,0,0,0,.59-1.83v-2a2.6,2.6,0,0,1-1,1.2,3.11,3.11,0,0,1-1.65.42,3.33,3.33,0,0,1-1.79-.48,3.26,3.26,0,0,1-1.22-1.35,4.31,4.31,0,0,1-.44-2,4.4,4.4,0,0,1,.44-2,3.24,3.24,0,0,1,1.22-1.34,3.41,3.41,0,0,1,1.79-.47,3.24,3.24,0,0,1,1.64.39,2.58,2.58,0,0,1,1,1.17v-1.38Zm-1.61,5.8a3.24,3.24,0,0,0,.68-2.17,3.33,3.33,0,0,0-.68-2.2,2.35,2.35,0,0,0-1.88-.8,2.38,2.38,0,0,0-1.9.8,3.28,3.28,0,0,0-.69,2.2,3.19,3.19,0,0,0,.69,2.18,2.38,2.38,0,0,0,1.9.79A2.32,2.32,0,0,0,302.58,180.34Z" fill="#444"/><path d="M313.15,177.33v4.88h-.93v-4.82a2.55,2.55,0,0,0-.47-1.69,1.86,1.86,0,0,0-1.46-.53,2.51,2.51,0,0,0-1.86.7,2.57,2.57,0,0,0-.7,1.9v4.44h-.92v-5.54a16.81,16.81,0,0,0-.12-2.13h.89l.12,1.41a2.51,2.51,0,0,1,1.06-1.19,3.19,3.19,0,0,1,1.62-.4C312.23,174.36,313.15,175.35,313.15,177.33Z" fill="#444"/><path d="M322.25,174.54v7.67h-.94v-1.47a2.43,2.43,0,0,1-1,1.17,3,3,0,0,1-1.63.41,3.36,3.36,0,0,1-1.8-.48,3.17,3.17,0,0,1-1.19-1.38,5.4,5.4,0,0,1,0-4.2,3.32,3.32,0,0,1,1.2-1.41,3.24,3.24,0,0,1,1.78-.49,3.19,3.19,0,0,1,1.62.39,2.56,2.56,0,0,1,1,1.17v-1.38Zm-1.6,6.13a4.46,4.46,0,0,0,0-4.67,2.21,2.21,0,0,0-1.86-.83,2.27,2.27,0,0,0-1.89.85,3.67,3.67,0,0,0-.67,2.35,3.5,3.5,0,0,0,.67,2.3,2.31,2.31,0,0,0,1.9.82A2.21,2.21,0,0,0,320.65,180.67Z" fill="#444"/><path d="M326.17,175.29v4.56a1.83,1.83,0,0,0,.35,1.28,1.42,1.42,0,0,0,1,.35,2.58,2.58,0,0,0,.83-.14v.84a4.21,4.21,0,0,1-1,.12,2.14,2.14,0,0,1-1.58-.56,2.28,2.28,0,0,1-.58-1.7v-4.75h-1.51v-.75h1.51v-2l.94-.35v2.39h2.26v.75Z" fill="#444"/><path d="M331.21,171.37v1.2H330v-1.2Zm-1.11,3.17H331v7.67h-.92Z" fill="#444"/><path d="M334.86,181.83a3.23,3.23,0,0,1-1.24-1.39,4.84,4.84,0,0,1-.44-2.1,4.77,4.77,0,0,1,.44-2.1,3.17,3.17,0,0,1,1.24-1.39,3.44,3.44,0,0,1,1.86-.49,3.39,3.39,0,0,1,1.83.49,3.23,3.23,0,0,1,1.24,1.39,4.77,4.77,0,0,1,.43,2.1,4.84,4.84,0,0,1-.43,2.1,3.29,3.29,0,0,1-1.24,1.39,3.39,3.39,0,0,1-1.83.49A3.44,3.44,0,0,1,334.86,181.83Zm3.73-1.16a3.56,3.56,0,0,0,.67-2.33,3.64,3.64,0,0,0-.68-2.34,2.26,2.26,0,0,0-1.86-.83,2.31,2.31,0,0,0-1.89.83,4.45,4.45,0,0,0,0,4.68,2.59,2.59,0,0,0,3.77,0Z" fill="#444"/><path d="M348.69,177.33v4.88h-.93v-4.82a2.55,2.55,0,0,0-.47-1.69,1.86,1.86,0,0,0-1.46-.53,2.49,2.49,0,0,0-1.85.7,2.58,2.58,0,0,0-.71,1.9v4.44h-.92v-5.54a16.81,16.81,0,0,0-.12-2.13h.89l.12,1.41a2.57,2.57,0,0,1,1.06-1.19,3.19,3.19,0,0,1,1.62-.4C347.77,174.36,348.69,175.35,348.69,177.33Z" fill="#444"/><path d="M101.24,196.84h4.2v.81h-4.2Z" fill="#444"/><path d="M112.05,190.45h1v10.9h-1Z" fill="#444"/><path d="M122.1,196.47v4.88h-.93v-4.82a2.52,2.52,0,0,0-.47-1.68,1.83,1.83,0,0,0-1.46-.54,2.43,2.43,0,0,0-2.56,2.6v4.44h-.92v-5.54a17,17,0,0,0-.12-2.13h.89l.12,1.41a2.54,2.54,0,0,1,1-1.19,3.2,3.2,0,0,1,1.63-.4C121.17,193.5,122.1,194.49,122.1,196.47Z" fill="#444"/><path d="M128.81,190.45H133a3.87,3.87,0,0,1,2.58.8,3.06,3.06,0,0,1,0,4.4,3.82,3.82,0,0,1-2.57.8h-3.24v4.9h-.95Zm4.13,5.18a2.91,2.91,0,0,0,1.95-.57,2,2,0,0,0,.65-1.62,2,2,0,0,0-.65-1.61,2.91,2.91,0,0,0-1.95-.57h-3.18v4.37Z" fill="#444"/><path d="M142.44,193.56l-.05.84a3.51,3.51,0,0,0-.7-.06,2.07,2.07,0,0,0-1.74.74,2.79,2.79,0,0,0-.58,1.77v4.5h-.91v-5.54a16.91,16.91,0,0,0-.13-2.13h.89l.12,1.43a2.41,2.41,0,0,1,.94-1.2,2.77,2.77,0,0,1,1.48-.41A3.44,3.44,0,0,1,142.44,193.56Z" fill="#444"/><path d="M144.91,201a3.23,3.23,0,0,1-1.24-1.39,5.23,5.23,0,0,1,0-4.2,3.29,3.29,0,0,1,1.24-1.39,3.49,3.49,0,0,1,1.86-.49,3.4,3.4,0,0,1,1.84.49,3.27,3.27,0,0,1,1.23,1.39,5.23,5.23,0,0,1,0,4.2,3.21,3.21,0,0,1-1.23,1.39,3.4,3.4,0,0,1-1.84.49A3.49,3.49,0,0,1,144.91,201Zm3.74-1.15a3.66,3.66,0,0,0,.66-2.34,3.59,3.59,0,0,0-.67-2.33,2.51,2.51,0,0,0-3.75,0,4.4,4.4,0,0,0,0,4.67,2.3,2.3,0,0,0,1.89.82A2.33,2.33,0,0,0,148.65,199.82Z" fill="#444"/><path d="M153.62,201a3.31,3.31,0,0,1-1.26-1.38,4.58,4.58,0,0,1-.44-2.08,4.64,4.64,0,0,1,.44-2.1,3.29,3.29,0,0,1,1.27-1.41,3.66,3.66,0,0,1,1.92-.5,4.18,4.18,0,0,1,1.49.27,3.17,3.17,0,0,1,1.17.74l-.37.73a4.69,4.69,0,0,0-1.14-.71,2.9,2.9,0,0,0-1.12-.22,2.42,2.42,0,0,0-2,.85,3.53,3.53,0,0,0-.72,2.35,3.39,3.39,0,0,0,.71,2.3,2.46,2.46,0,0,0,2,.83,2.91,2.91,0,0,0,1.12-.23,4.56,4.56,0,0,0,1.14-.69l.37.72a3.7,3.7,0,0,1-1.22.75,4.16,4.16,0,0,1-1.47.27A3.56,3.56,0,0,1,153.62,201Z" fill="#444"/><path d="M160.48,197.4v0a3.5,3.5,0,0,0,.71,2.37,2.63,2.63,0,0,0,2.07.82,3.89,3.89,0,0,0,2.53-.95l.37.73a3.71,3.71,0,0,1-1.29.76,4.62,4.62,0,0,1-1.61.28,3.63,3.63,0,0,1-2.75-1.05,4,4,0,0,1-1-2.91,4.63,4.63,0,0,1,.45-2.09,3.33,3.33,0,0,1,1.26-1.41,3.53,3.53,0,0,1,1.87-.5,3,3,0,0,1,2.37,1,4.06,4.06,0,0,1,.85,2.73v.19Zm.89-2.5a3,3,0,0,0-.83,1.78h4.87a2.84,2.84,0,0,0-.69-1.8,2.18,2.18,0,0,0-1.64-.62A2.36,2.36,0,0,0,161.37,194.9Z" fill="#444"/><path d="M167.92,200.44l.34-.72a4.38,4.38,0,0,0,1.23.72,4.44,4.44,0,0,0,1.43.21,2.64,2.64,0,0,0,1.45-.33,1.09,1.09,0,0,0,.5-1,1.06,1.06,0,0,0-.33-.82,2.74,2.74,0,0,0-1.08-.48l-1.3-.29a2.84,2.84,0,0,1-1.45-.76,1.82,1.82,0,0,1-.53-1.29,2,2,0,0,1,.77-1.62,3.3,3.3,0,0,1,2.06-.6,4.35,4.35,0,0,1,1.51.26,2.91,2.91,0,0,1,1.16.75l-.35.72a3.49,3.49,0,0,0-2.32-.92,2.39,2.39,0,0,0-1.38.35,1.15,1.15,0,0,0-.48,1,1.17,1.17,0,0,0,.31.85,2,2,0,0,0,1,.47l1.32.32q2.07.47,2.07,2a1.84,1.84,0,0,1-.8,1.55,3.48,3.48,0,0,1-2.14.59A4.14,4.14,0,0,1,167.92,200.44Z" fill="#444"/><path d="M175.56,200.44l.34-.72a4.38,4.38,0,0,0,1.23.72,4.44,4.44,0,0,0,1.43.21,2.61,2.61,0,0,0,1.45-.33,1.09,1.09,0,0,0,.5-1,1.06,1.06,0,0,0-.33-.82,2.74,2.74,0,0,0-1.08-.48l-1.3-.29a2.84,2.84,0,0,1-1.45-.76,1.82,1.82,0,0,1-.53-1.29,2,2,0,0,1,.77-1.62,3.3,3.3,0,0,1,2.06-.6,4.31,4.31,0,0,1,1.51.26,2.91,2.91,0,0,1,1.16.75l-.35.72a3.49,3.49,0,0,0-2.32-.92,2.33,2.33,0,0,0-1.37.35,1.14,1.14,0,0,0-.49,1,1.17,1.17,0,0,0,.31.85,2,2,0,0,0,1,.47l1.32.32q2.07.47,2.07,2a1.84,1.84,0,0,1-.8,1.55,3.48,3.48,0,0,1-2.14.59A4.16,4.16,0,0,1,175.56,200.44Z" fill="#444"/><path d="M74.05,228.35a2.75,2.75,0,0,1-1-1,2.6,2.6,0,0,1-.38-1.39,2.72,2.72,0,0,1,.36-1.34,2.87,2.87,0,0,1,1-1,2.72,2.72,0,0,1,1.43-.39,2.79,2.79,0,0,1,1.38.36,2.69,2.69,0,0,1,1,1,2.58,2.58,0,0,1,.39,1.39,2.65,2.65,0,0,1-.38,1.38,2.82,2.82,0,0,1-3.8,1Z" fill="#0a90b7" stroke="#0a90b7" stroke-miterlimit="10" stroke-width="0.25"/><path d="M109.89,230.07h-1l-1.36-3.63a1.7,1.7,0,0,0-.72-1,2.78,2.78,0,0,0-1.33-.25h-3v4.87h-1v-10.9h4.21a4,4,0,0,1,2.64.77,2.7,2.7,0,0,1,.93,2.21,2.77,2.77,0,0,1-.56,1.78,3,3,0,0,1-1.6,1,1.42,1.42,0,0,1,.81.4,2.33,2.33,0,0,1,.57.95Zm-4.24-5.7c1.79,0,2.68-.74,2.68-2.23s-.89-2.16-2.68-2.16h-3.21v4.39Z" fill="#444"/><path d="M112.47,226.12v0a3.5,3.5,0,0,0,.71,2.37,2.58,2.58,0,0,0,2.07.82,3.89,3.89,0,0,0,2.53-.95l.37.73a3.71,3.71,0,0,1-1.29.76,4.63,4.63,0,0,1-1.61.29,3.64,3.64,0,0,1-2.75-1.06,4,4,0,0,1-1-2.91,4.66,4.66,0,0,1,.45-2.09,3.33,3.33,0,0,1,1.26-1.41,3.53,3.53,0,0,1,1.87-.5,3,3,0,0,1,2.37,1,4.07,4.07,0,0,1,.85,2.73v.2Zm.89-2.51a3,3,0,0,0-.83,1.79h4.87a2.8,2.8,0,0,0-.69-1.8,2.16,2.16,0,0,0-1.64-.62A2.36,2.36,0,0,0,113.36,223.61Z" fill="#444"/><path d="M126.8,222.4l-3.29,7.67h-1l-3.24-7.67h1l2.78,6.73,2.78-6.73Z" fill="#444"/><path d="M129.51,219.23v1.19h-1.24v-1.19Zm-1.1,3.17h.92v7.67h-.92Z" fill="#444"/><path d="M132.47,226.12v0a3.5,3.5,0,0,0,.71,2.37,2.58,2.58,0,0,0,2.07.82,3.89,3.89,0,0,0,2.53-.95l.37.73a3.71,3.71,0,0,1-1.29.76,4.63,4.63,0,0,1-1.61.29,3.64,3.64,0,0,1-2.75-1.06,4,4,0,0,1-1-2.91,4.66,4.66,0,0,1,.45-2.09,3.33,3.33,0,0,1,1.26-1.41,3.53,3.53,0,0,1,1.87-.5,3,3,0,0,1,2.37,1,4.07,4.07,0,0,1,.85,2.73v.2Zm.89-2.51a3,3,0,0,0-.83,1.79h4.87a2.8,2.8,0,0,0-.69-1.8,2.16,2.16,0,0,0-1.64-.62A2.36,2.36,0,0,0,133.36,223.61Z" fill="#444"/><path d="M151.72,222.4l-2.79,7.67h-1l-2.33-6.48-2.35,6.48h-1l-2.77-7.67h1L142.8,229l2.39-6.55h.94l2.31,6.55,2.33-6.55Z" fill="#444"/><path d="M158.32,229.47a15.16,15.16,0,0,1,0-6.92,15.57,15.57,0,0,1,1.24-3.38h.83a17.41,17.41,0,0,0-1.16,3.52,16.11,16.11,0,0,0-.35,3.31,16.36,16.36,0,0,0,.35,3.32,17.77,17.77,0,0,0,1.16,3.54h-.82A15.37,15.37,0,0,1,158.32,229.47Z" fill="#444"/><path d="M169.33,225.23a2.09,2.09,0,0,1-2,1.47,2.52,2.52,0,0,1-1-.19,11.29,11.29,0,0,1-1.14-.55,8.86,8.86,0,0,0-.81-.41,1.72,1.72,0,0,0-.64-.14,1.2,1.2,0,0,0-.84.28,2,2,0,0,0-.51.78l-.66-.35a2.06,2.06,0,0,1,2-1.46,2.47,2.47,0,0,1,1,.19c.31.12.69.3,1.15.53a8.11,8.11,0,0,0,.82.42,1.65,1.65,0,0,0,.63.13,1.21,1.21,0,0,0,.82-.27,2.24,2.24,0,0,0,.53-.75Z" fill="#444"/><path d="M177.7,225.42a2.78,2.78,0,0,1,.51,1.71,2.83,2.83,0,0,1-.93,2.23,3.67,3.67,0,0,1-2.52.82,5.62,5.62,0,0,1-2-.37,4.83,4.83,0,0,1-1.62-1l.4-.75a5.58,5.58,0,0,0,1.54,1,4.25,4.25,0,0,0,1.67.33,2.67,2.67,0,0,0,1.85-.58,2.08,2.08,0,0,0,.65-1.64c0-1.45-.9-2.18-2.69-2.18H173.4v-.84h.94a3,3,0,0,0,2-.59,2.11,2.11,0,0,0,.7-1.69,1.85,1.85,0,0,0-.57-1.45,2.3,2.3,0,0,0-1.59-.51,4.77,4.77,0,0,0-3.14,1.32l-.4-.75a4.64,4.64,0,0,1,1.6-1,5.44,5.44,0,0,1,2-.37,3.29,3.29,0,0,1,2.27.75,2.52,2.52,0,0,1,.84,2,3,3,0,0,1-.47,1.67,2.52,2.52,0,0,1-1.28,1A2.68,2.68,0,0,1,177.7,225.42Z" fill="#444"/><path d="M180.65,225.55h4.19v.81h-4.19Z" fill="#444"/><path d="M194.67,227.59H193v2.48h-1v-2.48h-5.16v-.72l5.33-7.7H193v7.61h1.68Zm-2.63-.81v-5.93l-4.11,5.93Z" fill="#444"/><path d="M212,222.4l-2.79,7.67h-1l-2.33-6.48-2.34,6.48h-1l-2.78-7.67h1L203.1,229l2.39-6.55h.93l2.31,6.55,2.33-6.55Z" fill="#444"/><path d="M214.29,226.12v0a3.55,3.55,0,0,0,.71,2.37,2.6,2.6,0,0,0,2.08.82,3.86,3.86,0,0,0,2.52-.95l.37.73a3.62,3.62,0,0,1-1.29.76,4.62,4.62,0,0,1-1.6.29,3.65,3.65,0,0,1-2.76-1.06,4.07,4.07,0,0,1-1-2.91,4.66,4.66,0,0,1,.45-2.09,3.33,3.33,0,0,1,1.26-1.41,3.56,3.56,0,0,1,1.87-.5,3,3,0,0,1,2.37,1,4,4,0,0,1,.85,2.73v.2Zm.89-2.51a3,3,0,0,0-.83,1.79h4.87a2.8,2.8,0,0,0-.69-1.8,2.14,2.14,0,0,0-1.64-.62A2.37,2.37,0,0,0,215.18,223.61Z" fill="#444"/><path d="M222.68,226.12v0a3.55,3.55,0,0,0,.71,2.37,2.6,2.6,0,0,0,2.08.82,3.91,3.91,0,0,0,2.53-.95l.36.73a3.57,3.57,0,0,1-1.28.76,4.67,4.67,0,0,1-1.61.29,3.68,3.68,0,0,1-2.76-1.06,4.07,4.07,0,0,1-1-2.91,4.66,4.66,0,0,1,.45-2.09,3.42,3.42,0,0,1,1.27-1.41,3.51,3.51,0,0,1,1.87-.5,3,3,0,0,1,2.36,1,4,4,0,0,1,.85,2.73v.2Zm.89-2.51a3.06,3.06,0,0,0-.83,1.79h4.87a2.8,2.8,0,0,0-.69-1.8,2.12,2.12,0,0,0-1.63-.62A2.38,2.38,0,0,0,223.57,223.61Z" fill="#444"/><path d="M235.73,230.07l-4.23-3.74v3.74h-.92V218.8h.92V226l3.86-3.56h1.21l-4,3.69,4.44,4Z" fill="#444"/><path d="M237.67,229.15l.34-.72a3.94,3.94,0,0,0,1.23.72,4.5,4.5,0,0,0,1.44.21,2.7,2.7,0,0,0,1.44-.32,1.07,1.07,0,0,0,.5-1,1,1,0,0,0-.33-.82,2.48,2.48,0,0,0-1.08-.48l-1.3-.29a2.93,2.93,0,0,1-1.45-.77,1.81,1.81,0,0,1-.52-1.29,1.92,1.92,0,0,1,.77-1.61,3.2,3.2,0,0,1,2.06-.61,4.39,4.39,0,0,1,1.51.26,3.11,3.11,0,0,1,1.15.75l-.35.72a3.45,3.45,0,0,0-2.31-.92,2.31,2.31,0,0,0-1.38.36,1.12,1.12,0,0,0-.49,1,1.16,1.16,0,0,0,.31.84,2,2,0,0,0,1,.47l1.31.33c1.38.3,2.07,1,2.07,2a1.87,1.87,0,0,1-.8,1.56,3.53,3.53,0,0,1-2.14.59A4.16,4.16,0,0,1,237.67,229.15Z" fill="#444"/><path d="M245,232.86a18.23,18.23,0,0,0,1.15-3.55,16.39,16.39,0,0,0,.34-3.31,16.1,16.1,0,0,0-.34-3.31,18.06,18.06,0,0,0-1.16-3.52h.83a16.12,16.12,0,0,1,1.24,3.38,15.54,15.54,0,0,1,0,6.92,15.94,15.94,0,0,1-1.26,3.39Z" fill="#444"/><path d="M74.05,257.06a2.67,2.67,0,0,1-1-1,2.56,2.56,0,0,1-.38-1.38,2.67,2.67,0,0,1,.36-1.34,2.82,2.82,0,0,1,1-1,2.71,2.71,0,0,1,1.43-.38,2.79,2.79,0,0,1,1.38.36,2.74,2.74,0,0,1,1,1,2.62,2.62,0,0,1,.39,1.4,2.65,2.65,0,0,1-.38,1.38,2.77,2.77,0,0,1-1,1,2.71,2.71,0,0,1-1.39.37A2.77,2.77,0,0,1,74.05,257.06Z" fill="#0a90b7" stroke="#0a90b7" stroke-miterlimit="10" stroke-width="0.25"/><path d="M109.89,258.78h-1l-1.36-3.63a1.7,1.7,0,0,0-.72-1,2.91,2.91,0,0,0-1.33-.25h-3v4.87h-1v-10.9h4.21a4.07,4.07,0,0,1,2.64.77,2.72,2.72,0,0,1,.93,2.21,2.77,2.77,0,0,1-.56,1.78,2.9,2.9,0,0,1-1.6,1,1.42,1.42,0,0,1,.81.4,2.33,2.33,0,0,1,.57.95Zm-4.24-5.7c1.79,0,2.68-.74,2.68-2.23s-.89-2.16-2.68-2.16h-3.21v4.39Z" fill="#444"/><path d="M112.47,254.83v0a3.45,3.45,0,0,0,.71,2.36,2.58,2.58,0,0,0,2.07.82,3.84,3.84,0,0,0,2.53-.95l.37.74a3.86,3.86,0,0,1-1.29.76,4.87,4.87,0,0,1-1.61.28,3.6,3.6,0,0,1-2.75-1.06,4,4,0,0,1-1-2.91,4.69,4.69,0,0,1,.45-2.09,3.33,3.33,0,0,1,1.26-1.41,3.53,3.53,0,0,1,1.87-.5,3,3,0,0,1,2.37,1,4,4,0,0,1,.85,2.72v.2Zm.89-2.5a3,3,0,0,0-.83,1.78h4.87a2.8,2.8,0,0,0-.69-1.8,2.19,2.19,0,0,0-1.64-.62A2.32,2.32,0,0,0,113.36,252.33Z" fill="#444"/><path d="M131.18,253.9v4.88h-.93V254a2.7,2.7,0,0,0-.42-1.69,1.53,1.53,0,0,0-1.31-.53,2.06,2.06,0,0,0-1.66.7,2.82,2.82,0,0,0-.61,1.92v4.42h-.93V254a2.64,2.64,0,0,0-.43-1.69,1.56,1.56,0,0,0-1.32-.53,2.1,2.1,0,0,0-1.66.7,2.82,2.82,0,0,0-.62,1.92v4.42h-.92v-5.54a16.81,16.81,0,0,0-.12-2.13h.89l.12,1.38a2.47,2.47,0,0,1,.95-1.17,2.8,2.8,0,0,1,1.48-.4,2.25,2.25,0,0,1,2.38,1.51,2.44,2.44,0,0,1,1-1.11,3.1,3.1,0,0,1,1.57-.4C130.33,250.92,131.18,251.92,131.18,253.9Z" fill="#444"/><path d="M134.24,254.83v0a3.45,3.45,0,0,0,.72,2.36,2.57,2.57,0,0,0,2.07.82,3.85,3.85,0,0,0,2.53-.95l.36.74a3.72,3.72,0,0,1-1.28.76,4.91,4.91,0,0,1-1.61.28,3.64,3.64,0,0,1-2.76-1.06,4,4,0,0,1-1-2.91,4.69,4.69,0,0,1,.45-2.09,3.42,3.42,0,0,1,1.27-1.41,3.51,3.51,0,0,1,1.87-.5,2.93,2.93,0,0,1,2.36,1,4,4,0,0,1,.85,2.72v.2Zm.89-2.5a3,3,0,0,0-.83,1.78h4.87a2.85,2.85,0,0,0-.68-1.8,2.19,2.19,0,0,0-1.64-.62A2.35,2.35,0,0,0,135.13,252.33Z" fill="#444"/><path d="M148.65,247.51v11.27h-.93v-1.47a2.49,2.49,0,0,1-1,1.17,3.13,3.13,0,0,1-1.63.41,3.22,3.22,0,0,1-1.78-.5,3.29,3.29,0,0,1-1.21-1.41,5,5,0,0,1-.42-2.1,4.7,4.7,0,0,1,.42-2.09,3.1,3.1,0,0,1,1.19-1.38,3.37,3.37,0,0,1,1.8-.49,3.24,3.24,0,0,1,1.62.4,2.62,2.62,0,0,1,1,1.17v-5Zm-1.59,9.72a3.62,3.62,0,0,0,.66-2.32,3.7,3.7,0,0,0-.66-2.34,2.24,2.24,0,0,0-1.85-.83,2.31,2.31,0,0,0-1.9.82,3.6,3.6,0,0,0-.68,2.32,3.64,3.64,0,0,0,.68,2.34,2.28,2.28,0,0,0,1.88.84A2.23,2.23,0,0,0,147.06,257.23Z" fill="#444"/><path d="M152.38,247.94v1.19h-1.25v-1.19Zm-1.11,3.17h.92v7.67h-.92Z" fill="#444"/><path d="M161.35,251.11v7.67h-.94v-1.47a2.47,2.47,0,0,1-1,1.17,3.17,3.17,0,0,1-1.64.41,3.36,3.36,0,0,1-1.8-.48,3.28,3.28,0,0,1-1.19-1.38,4.9,4.9,0,0,1-.42-2.09,4.85,4.85,0,0,1,.43-2.11,3.2,3.2,0,0,1,1.2-1.41,3.25,3.25,0,0,1,1.78-.5,3.19,3.19,0,0,1,1.62.4,2.56,2.56,0,0,1,1,1.17v-1.38Zm-1.6,6.12a3.62,3.62,0,0,0,.66-2.32,3.71,3.71,0,0,0-.66-2.35,2.23,2.23,0,0,0-1.86-.82,2.27,2.27,0,0,0-1.89.85,3.67,3.67,0,0,0-.67,2.35,3.5,3.5,0,0,0,.67,2.3,2.31,2.31,0,0,0,1.9.82A2.19,2.19,0,0,0,159.75,257.23Z" fill="#444"/><path d="M165.27,251.86v4.56a1.79,1.79,0,0,0,.35,1.27,1.38,1.38,0,0,0,1,.36,2.58,2.58,0,0,0,.83-.14v.84a4.21,4.21,0,0,1-1,.12,2.18,2.18,0,0,1-1.58-.56,2.32,2.32,0,0,1-.58-1.7v-4.75h-1.51v-.75h1.51v-2l.94-.35v2.39h2.26v.75Z" fill="#444"/><path d="M170.31,247.94v1.19h-1.25v-1.19Zm-1.11,3.17h.92v7.67h-.92Z" fill="#444"/><path d="M174,258.4a3.2,3.2,0,0,1-1.24-1.4,5.21,5.21,0,0,1,0-4.19,3.17,3.17,0,0,1,1.24-1.39,3.67,3.67,0,0,1,3.7,0,3.21,3.21,0,0,1,1.23,1.39,5.32,5.32,0,0,1,0,4.19,3.24,3.24,0,0,1-1.23,1.4,3.74,3.74,0,0,1-3.7,0Zm3.73-1.16a3.56,3.56,0,0,0,.67-2.33,3.7,3.7,0,0,0-.67-2.34,2.54,2.54,0,0,0-3.76,0,4.45,4.45,0,0,0,0,4.68,2.59,2.59,0,0,0,3.77,0Z" fill="#444"/><path d="M187.79,253.9v4.88h-.93V254a2.55,2.55,0,0,0-.47-1.69,1.86,1.86,0,0,0-1.46-.53,2.49,2.49,0,0,0-1.85.7,2.57,2.57,0,0,0-.71,1.9v4.44h-.92v-5.54a16.81,16.81,0,0,0-.12-2.13h.89l.12,1.41a2.57,2.57,0,0,1,1.06-1.19,3.2,3.2,0,0,1,1.62-.41C186.87,250.92,187.79,251.92,187.79,253.9Z" fill="#444"/><path d="M195.11,258.18a15.54,15.54,0,0,1,0-6.92,16.12,16.12,0,0,1,1.24-3.38h.83A17.54,17.54,0,0,0,196,251.4a16.19,16.19,0,0,0-.35,3.31A16.36,16.36,0,0,0,196,258a17.7,17.7,0,0,0,1.15,3.54h-.81A15.55,15.55,0,0,1,195.11,258.18Z" fill="#444"/><path d="M206.12,253.94a2.08,2.08,0,0,1-2,1.47,2.59,2.59,0,0,1-1-.19c-.31-.13-.69-.31-1.13-.54s-.6-.32-.82-.42a1.65,1.65,0,0,0-.63-.13,1.25,1.25,0,0,0-.84.27,2,2,0,0,0-.51.78l-.66-.35a2,2,0,0,1,2-1.45,2.56,2.56,0,0,1,1,.18,11.86,11.86,0,0,1,1.15.54,8.84,8.84,0,0,0,.82.41,1.68,1.68,0,0,0,.64.14,1.21,1.21,0,0,0,.82-.28,2.18,2.18,0,0,0,.53-.75Z" fill="#444"/><path d="M214.5,254.13a2.8,2.8,0,0,1,.51,1.71,2.83,2.83,0,0,1-.93,2.23,3.66,3.66,0,0,1-2.52.82,5.37,5.37,0,0,1-2-.37,4.81,4.81,0,0,1-1.62-1l.39-.76a5.73,5.73,0,0,0,1.54,1,4.34,4.34,0,0,0,1.68.33,2.73,2.73,0,0,0,1.85-.57,2.1,2.1,0,0,0,.65-1.65c0-1.45-.9-2.17-2.7-2.17H210.2v-.85h.93a2.93,2.93,0,0,0,2-.59,2.06,2.06,0,0,0,.7-1.69,1.86,1.86,0,0,0-.56-1.44,2.27,2.27,0,0,0-1.6-.52,4.79,4.79,0,0,0-3.14,1.32l-.4-.75a4.74,4.74,0,0,1,1.6-1,5.46,5.46,0,0,1,2-.37,3.26,3.26,0,0,1,2.26.75,2.5,2.5,0,0,1,.85,2,3,3,0,0,1-.47,1.66,2.64,2.64,0,0,1-1.28,1A2.69,2.69,0,0,1,214.5,254.13Z" fill="#444"/><path d="M233,251.11l-2.79,7.67h-1l-2.33-6.48-2.34,6.48h-1l-2.78-7.67h1l2.27,6.55,2.39-6.55h.93l2.31,6.55,2.33-6.55Z" fill="#444"/><path d="M235.25,254.83v0a3.5,3.5,0,0,0,.71,2.36,2.6,2.6,0,0,0,2.08.82,3.85,3.85,0,0,0,2.53-.95l.36.74a3.72,3.72,0,0,1-1.28.76,4.91,4.91,0,0,1-1.61.28,3.64,3.64,0,0,1-2.76-1.06,4,4,0,0,1-1-2.91,4.69,4.69,0,0,1,.45-2.09,3.42,3.42,0,0,1,1.27-1.41,3.51,3.51,0,0,1,1.87-.5,2.93,2.93,0,0,1,2.36,1,4,4,0,0,1,.85,2.72v.2Zm.89-2.5a3,3,0,0,0-.83,1.78h4.87a2.8,2.8,0,0,0-.69-1.8,2.15,2.15,0,0,0-1.63-.62A2.35,2.35,0,0,0,236.14,252.33Z" fill="#444"/><path d="M243.64,254.83v0a3.45,3.45,0,0,0,.72,2.36,2.57,2.57,0,0,0,2.07.82,3.85,3.85,0,0,0,2.53-.95l.37.74a3.86,3.86,0,0,1-1.29.76,4.91,4.91,0,0,1-1.61.28,3.64,3.64,0,0,1-2.76-1.06,4,4,0,0,1-1-2.91,4.56,4.56,0,0,1,.46-2.09,3.33,3.33,0,0,1,1.26-1.41,3.51,3.51,0,0,1,1.87-.5,2.93,2.93,0,0,1,2.36,1,4,4,0,0,1,.85,2.72v.2Zm.89-2.5a2.94,2.94,0,0,0-.82,1.78h4.87a2.91,2.91,0,0,0-.69-1.8,2.19,2.19,0,0,0-1.64-.62A2.35,2.35,0,0,0,244.53,252.33Z" fill="#444"/><path d="M256.69,258.78,252.46,255v3.74h-.91V247.51h.91v7.17l3.86-3.57h1.21l-4,3.69,4.44,4Z" fill="#444"/><path d="M258.64,257.86l.33-.72a3.88,3.88,0,0,0,1.24.72,4.17,4.17,0,0,0,1.43.22,2.6,2.6,0,0,0,1.44-.33,1.07,1.07,0,0,0,.5-1,1,1,0,0,0-.33-.82,2.48,2.48,0,0,0-1.08-.48l-1.3-.29a2.93,2.93,0,0,1-1.45-.77,1.79,1.79,0,0,1-.52-1.28,1.93,1.93,0,0,1,.77-1.62,3.26,3.26,0,0,1,2.06-.61,4.17,4.17,0,0,1,1.51.27,2.88,2.88,0,0,1,1.15.75l-.35.72a3.4,3.4,0,0,0-2.31-.92,2.31,2.31,0,0,0-1.38.35,1.12,1.12,0,0,0-.49,1,1.17,1.17,0,0,0,.31.84,2,2,0,0,0,1,.48l1.31.32c1.38.3,2.07,1,2.07,2a1.84,1.84,0,0,1-.79,1.56,3.58,3.58,0,0,1-2.15.59A4.09,4.09,0,0,1,258.64,257.86Z" fill="#444"/><path d="M266,261.57a18.86,18.86,0,0,0,1.14-3.55,16.28,16.28,0,0,0,0-6.62,18.28,18.28,0,0,0-1.16-3.52h.83a16.12,16.12,0,0,1,1.24,3.38,15.16,15.16,0,0,1,0,6.92,15.55,15.55,0,0,1-1.26,3.39Z" fill="#444"/><path d="M74.05,285.77a2.72,2.72,0,0,1-1-1,2.62,2.62,0,0,1-.38-1.39,2.67,2.67,0,0,1,.36-1.34,3,3,0,0,1,1-1,2.85,2.85,0,0,1,2.81,0,2.69,2.69,0,0,1,1,1,2.58,2.58,0,0,1,.39,1.39,2.65,2.65,0,0,1-.38,1.38,2.83,2.83,0,0,1-2.41,1.36A2.77,2.77,0,0,1,74.05,285.77Z" fill="#0a90b7" stroke="#0a90b7" stroke-miterlimit="10" stroke-width="0.25"/><path d="M101.5,276.59h6.57v.81h-5.62v4.14h5.32v.84h-5.32v5.12h-1Z" fill="#444"/><path d="M111.09,276.65v1.2h-1.24v-1.2Zm-1.1,3.17h.91v7.68H110Z" fill="#444"/><path d="M119.89,282.61v4.89H119v-4.83a2.52,2.52,0,0,0-.47-1.68,1.83,1.83,0,0,0-1.46-.54,2.49,2.49,0,0,0-1.85.71,2.54,2.54,0,0,0-.71,1.89v4.45h-.92V282a17,17,0,0,0-.12-2.13h.89l.12,1.41A2.62,2.62,0,0,1,115.5,280a3.19,3.19,0,0,1,1.62-.4C119,279.64,119.89,280.63,119.89,282.61Z" fill="#444"/><path d="M129,279.82v7.68h-.93V286a2.54,2.54,0,0,1-1,1.17,3.15,3.15,0,0,1-1.63.4,3.32,3.32,0,0,1-1.8-.48,3.12,3.12,0,0,1-1.2-1.38,4.87,4.87,0,0,1-.42-2.09,4.8,4.8,0,0,1,.43-2.1,3.34,3.34,0,0,1,1.2-1.41,3.26,3.26,0,0,1,1.79-.5,3.08,3.08,0,0,1,1.61.4,2.51,2.51,0,0,1,1,1.16v-1.38ZM127.4,286a4.46,4.46,0,0,0,0-4.67,2.51,2.51,0,0,0-3.75,0,3.69,3.69,0,0,0-.68,2.35,3.55,3.55,0,0,0,.68,2.31,2.32,2.32,0,0,0,1.89.82A2.25,2.25,0,0,0,127.4,286Z" fill="#444"/><path d="M131.61,276.22h.92V287.5h-.92Z" fill="#444"/><path d="M147.69,287.5h-1l-1.37-3.63a1.7,1.7,0,0,0-.72-1,2.77,2.77,0,0,0-1.33-.26h-3v4.88h-.95V276.59h4.21a4,4,0,0,1,2.63.78,2.71,2.71,0,0,1,.94,2.21,2.8,2.8,0,0,1-.56,1.77,3,3,0,0,1-1.6,1,1.54,1.54,0,0,1,.81.39,2.51,2.51,0,0,1,.56.95Zm-4.24-5.7c1.78,0,2.68-.75,2.68-2.24s-.9-2.16-2.68-2.16h-3.22v4.4Z" fill="#444"/><path d="M150.26,283.54v0A3.55,3.55,0,0,0,151,286a2.64,2.64,0,0,0,2.08.82,3.91,3.91,0,0,0,2.53-.95l.36.73a3.57,3.57,0,0,1-1.28.76,4.66,4.66,0,0,1-1.61.28,3.65,3.65,0,0,1-2.76-1.05,4.07,4.07,0,0,1-1-2.91,4.63,4.63,0,0,1,.45-2.09,3.35,3.35,0,0,1,1.27-1.41,3.5,3.5,0,0,1,1.86-.5,3,3,0,0,1,2.37,1,4,4,0,0,1,.85,2.72v.2Zm.89-2.5a3,3,0,0,0-.83,1.78h4.87a2.79,2.79,0,0,0-.69-1.79,2.14,2.14,0,0,0-1.64-.62A2.37,2.37,0,0,0,151.15,281Z" fill="#444"/><path d="M164.59,279.82l-3.29,7.68h-1l-3.25-7.68h1l2.77,6.74,2.79-6.74Z" fill="#444"/><path d="M167.31,276.65v1.2h-1.25v-1.2Zm-1.11,3.17h.92v7.68h-.92Z" fill="#444"/><path d="M170.26,283.54v0A3.55,3.55,0,0,0,171,286a2.64,2.64,0,0,0,2.08.82,3.91,3.91,0,0,0,2.53-.95l.36.73a3.57,3.57,0,0,1-1.28.76,4.66,4.66,0,0,1-1.61.28,3.65,3.65,0,0,1-2.76-1.05,4.07,4.07,0,0,1-1-2.91,4.63,4.63,0,0,1,.45-2.09,3.35,3.35,0,0,1,1.27-1.41,3.5,3.5,0,0,1,1.86-.5,3,3,0,0,1,2.37,1,4,4,0,0,1,.85,2.72v.2Zm.89-2.5a3,3,0,0,0-.83,1.78h4.87a2.79,2.79,0,0,0-.69-1.79,2.14,2.14,0,0,0-1.64-.62A2.37,2.37,0,0,0,171.15,281Z" fill="#444"/><path d="M189.51,279.82l-2.79,7.68h-1L183.43,281l-2.34,6.48h-1l-2.77-7.68h1l2.27,6.56,2.39-6.56h.93l2.31,6.56,2.33-6.56Z" fill="#444"/><path d="M196.11,286.9a15.16,15.16,0,0,1,0-6.92,16,16,0,0,1,1.24-3.39h.83a18.5,18.5,0,0,0-1.16,3.52,16.24,16.24,0,0,0-.34,3.31,16.51,16.51,0,0,0,.34,3.33,18.14,18.14,0,0,0,1.16,3.53h-.81A15.16,15.16,0,0,1,196.11,286.9Z" fill="#444"/><path d="M207.12,282.66a2.09,2.09,0,0,1-2,1.47,2.56,2.56,0,0,1-1-.2,9.17,9.17,0,0,1-1.13-.54,8.84,8.84,0,0,0-.82-.41,1.68,1.68,0,0,0-.64-.14,1.19,1.19,0,0,0-.83.28,1.89,1.89,0,0,0-.51.78l-.66-.36a2,2,0,0,1,2-1.45,2.6,2.6,0,0,1,1,.18c.31.13.69.3,1.15.54a8.84,8.84,0,0,0,.82.41,1.68,1.68,0,0,0,.64.14,1.16,1.16,0,0,0,.81-.28,2.06,2.06,0,0,0,.53-.75Z" fill="#444"/><path d="M216.63,285H215v2.49H214V285h-5.16v-.72l5.33-7.7H215v7.61h1.68ZM214,284.2v-5.92l-4.11,5.92Z" fill="#444"/><path d="M234,279.82l-2.79,7.68h-1L227.89,281l-2.35,6.48h-1l-2.77-7.68h1l2.26,6.56,2.39-6.56h.94l2.31,6.56,2.33-6.56Z" fill="#444"/><path d="M236.25,283.54v0A3.55,3.55,0,0,0,237,286a2.64,2.64,0,0,0,2.08.82,3.88,3.88,0,0,0,2.52-.95l.37.73a3.71,3.71,0,0,1-1.29.76,4.61,4.61,0,0,1-1.6.28,3.64,3.64,0,0,1-2.76-1.05,4.07,4.07,0,0,1-1-2.91,4.63,4.63,0,0,1,.45-2.09,3.33,3.33,0,0,1,1.26-1.41,3.53,3.53,0,0,1,1.87-.5,3,3,0,0,1,2.37,1,4,4,0,0,1,.85,2.72v.2Zm.89-2.5a3,3,0,0,0-.83,1.78h4.87a2.79,2.79,0,0,0-.69-1.79,2.14,2.14,0,0,0-1.64-.62A2.37,2.37,0,0,0,237.14,281Z" fill="#444"/><path d="M244.64,283.54v0a3.55,3.55,0,0,0,.71,2.37,2.64,2.64,0,0,0,2.08.82,3.86,3.86,0,0,0,2.52-.95l.37.73a3.66,3.66,0,0,1-1.28.76,4.71,4.71,0,0,1-1.61.28,3.64,3.64,0,0,1-2.76-1.05,4.07,4.07,0,0,1-1-2.91,4.63,4.63,0,0,1,.45-2.09,3.29,3.29,0,0,1,1.27-1.41,3.5,3.5,0,0,1,1.86-.5,3,3,0,0,1,2.37,1,4,4,0,0,1,.85,2.72v.2Zm.89-2.5a3,3,0,0,0-.83,1.78h4.87a2.79,2.79,0,0,0-.69-1.79,2.14,2.14,0,0,0-1.64-.62A2.37,2.37,0,0,0,245.53,281Z" fill="#444"/><path d="M257.69,287.5l-4.23-3.74v3.74h-.92V276.22h.92v7.17l3.86-3.57h1.21l-4,3.69,4.44,4Z" fill="#444"/><path d="M259.63,286.58l.34-.72a4.38,4.38,0,0,0,1.23.72,4.48,4.48,0,0,0,1.43.21,2.61,2.61,0,0,0,1.45-.33,1.09,1.09,0,0,0,.5-1,1.06,1.06,0,0,0-.33-.82,2.74,2.74,0,0,0-1.08-.48l-1.3-.29a2.88,2.88,0,0,1-1.45-.76,1.82,1.82,0,0,1-.53-1.29,2,2,0,0,1,.78-1.62,3.26,3.26,0,0,1,2.06-.6,4.3,4.3,0,0,1,1.5.26,2.91,2.91,0,0,1,1.16.75l-.35.72a3.48,3.48,0,0,0-2.31-.92,2.34,2.34,0,0,0-1.38.35,1.25,1.25,0,0,0-.18,1.82,1.92,1.92,0,0,0,1,.48l1.32.32q2.07.46,2.07,2a1.84,1.84,0,0,1-.8,1.55,3.46,3.46,0,0,1-2.14.59A4.16,4.16,0,0,1,259.63,286.58Z" fill="#444"/><path d="M267,290.28a18.55,18.55,0,0,0,1.14-3.54,16.51,16.51,0,0,0,.35-3.32,16.26,16.26,0,0,0-.35-3.31,18.43,18.43,0,0,0-1.15-3.52h.82A15.51,15.51,0,0,1,269,280a15.18,15.18,0,0,1,.39,3.44,15.34,15.34,0,0,1-.39,3.48,15.67,15.67,0,0,1-1.26,3.38Z" fill="#444"/><path d="M74.05,314.49a2.75,2.75,0,0,1-1-1,2.6,2.6,0,0,1-.38-1.39,2.7,2.7,0,0,1,.36-1.34,2.87,2.87,0,0,1,1-1,2.72,2.72,0,0,1,1.43-.39,2.79,2.79,0,0,1,1.38.36,2.69,2.69,0,0,1,1,1,2.58,2.58,0,0,1,.39,1.39,2.65,2.65,0,0,1-.38,1.38,2.77,2.77,0,0,1-2.41,1.36A2.76,2.76,0,0,1,74.05,314.49Z" fill="#0a90b7" stroke="#0a90b7" stroke-miterlimit="10" stroke-width="0.25"/><path d="M100,318.09a6.72,6.72,0,0,0,1.08.12,1.28,1.28,0,0,0,1.14-.46,2.81,2.81,0,0,0,.33-1.59V305.3h.95v10.89a3.53,3.53,0,0,1-.53,2.19,2.06,2.06,0,0,1-1.73.68,7,7,0,0,1-1.24-.13Z" fill="#444"/><path d="M113.49,313.3h-5.88l-1.25,2.91h-1l4.74-10.91H111l4.73,10.91h-1Zm-.37-.83-2.57-6-2.59,6Z" fill="#444"/><path d="M125,311.54a2.74,2.74,0,0,1,.52,1.71,2.67,2.67,0,0,1-.93,2.19,4.06,4.06,0,0,1-2.65.77H117.6V305.3h4.21a3.92,3.92,0,0,1,2.57.75,2.59,2.59,0,0,1,.91,2.12,2.51,2.51,0,0,1-.46,1.51,2.7,2.7,0,0,1-1.26.94A2.56,2.56,0,0,1,125,311.54Zm-6.49-1.29h3.14a3.13,3.13,0,0,0,2-.54,1.85,1.85,0,0,0,.67-1.56c0-1.36-.88-2-2.66-2h-3.14Zm5.4,4.63a1.94,1.94,0,0,0,.65-1.6c0-1.46-.89-2.19-2.68-2.19h-3.37v4.31h3.37A3.27,3.27,0,0,0,123.93,314.88Z" fill="#444"/><path d="M132,305.3h4.19a3.88,3.88,0,0,1,2.58.8,3.06,3.06,0,0,1,0,4.4,3.82,3.82,0,0,1-2.57.81H133v4.9h-1Zm4.13,5.18a2.91,2.91,0,0,0,2-.57,2.33,2.33,0,0,0,0-3.23,3,3,0,0,0-2-.56H133v4.36Z" fill="#444"/><path d="M141.23,311.69h4.19v.81h-4.19Z" fill="#444"/><path d="M154.93,313.3h-5.88l-1.26,2.91h-1l4.74-10.91h.86l4.73,10.91h-1Zm-.37-.83-2.57-6-2.59,6Z" fill="#444"/><path d="M160.48,306.13h-3.91v-.83h8.76v.83h-3.91v10.08h-.94Z" fill="#444"/><path d="M168.17,315.66a4.41,4.41,0,0,1-1.68-1.93,6.85,6.85,0,0,1-.59-3,6.93,6.93,0,0,1,.58-3,4.35,4.35,0,0,1,1.68-1.93,5.29,5.29,0,0,1,5.19,0,4.34,4.34,0,0,1,1.69,1.92,6.92,6.92,0,0,1,.58,3,7,7,0,0,1-.59,3,4.38,4.38,0,0,1-1.68,1.94,5.34,5.34,0,0,1-5.18,0Zm5.44-1.41a6.54,6.54,0,0,0,0-7,3.93,3.93,0,0,0-5.72,0,5.31,5.31,0,0,0-1,3.48,5.39,5.39,0,0,0,1,3.5,3.9,3.9,0,0,0,5.71,0Z" fill="#444"/><path d="M182.08,305.3H183v10.91h-.95Z" fill="#444"/><path d="M185.33,315.29l.34-.72a3.84,3.84,0,0,0,1.23.72,4.44,4.44,0,0,0,1.43.21,2.64,2.64,0,0,0,1.45-.33,1.17,1.17,0,0,0,.17-1.77,2.48,2.48,0,0,0-1.08-.48l-1.3-.3a2.77,2.77,0,0,1-1.45-.76,1.82,1.82,0,0,1-.53-1.29,2,2,0,0,1,.77-1.61,3.24,3.24,0,0,1,2.06-.61,4.35,4.35,0,0,1,1.51.26,3.15,3.15,0,0,1,1.16.75l-.35.72a3.49,3.49,0,0,0-2.32-.92,2.31,2.31,0,0,0-1.38.36,1.15,1.15,0,0,0-.49,1,1.17,1.17,0,0,0,.32.84,2,2,0,0,0,1,.47l1.32.32c1.38.31,2.06,1,2.06,2a1.86,1.86,0,0,1-.79,1.56,3.55,3.55,0,0,1-2.14.59A4.15,4.15,0,0,1,185.33,315.29Z" fill="#444"/><path d="M193,315.29l.34-.72a3.94,3.94,0,0,0,1.23.72,4.44,4.44,0,0,0,1.43.21,2.61,2.61,0,0,0,1.45-.33,1.17,1.17,0,0,0,.17-1.77,2.48,2.48,0,0,0-1.08-.48l-1.3-.3a2.77,2.77,0,0,1-1.45-.76,1.82,1.82,0,0,1-.53-1.29A2,2,0,0,1,194,309a3.24,3.24,0,0,1,2.06-.61,4.31,4.31,0,0,1,1.51.26,3.15,3.15,0,0,1,1.16.75l-.35.72a3.49,3.49,0,0,0-2.32-.92,2.26,2.26,0,0,0-1.37.36,1.12,1.12,0,0,0-.49,1,1.16,1.16,0,0,0,.31.84,2,2,0,0,0,1,.47l1.32.32q2.07.47,2.07,2a1.87,1.87,0,0,1-.8,1.56,3.55,3.55,0,0,1-2.14.59A4.16,4.16,0,0,1,193,315.29Z" fill="#444"/><path d="M207.24,308.54v7.67h-.9v-1.4a2.57,2.57,0,0,1-1,1.12,3.05,3.05,0,0,1-1.55.39,2.61,2.61,0,0,1-2-.76,3.17,3.17,0,0,1-.68-2.22v-4.8h.91v4.74a2.56,2.56,0,0,0,.46,1.67,1.78,1.78,0,0,0,1.43.54,2.38,2.38,0,0,0,1.8-.71,2.66,2.66,0,0,0,.68-1.9v-4.34Z" fill="#444"/><path d="M210.35,312.26v0a3.55,3.55,0,0,0,.71,2.37,2.64,2.64,0,0,0,2.08.82,3.86,3.86,0,0,0,2.52-.95l.37.73a3.66,3.66,0,0,1-1.28.76,4.72,4.72,0,0,1-1.61.29,3.65,3.65,0,0,1-2.76-1.06,4.07,4.07,0,0,1-1-2.91,4.66,4.66,0,0,1,.45-2.09,3.33,3.33,0,0,1,1.26-1.41,3.56,3.56,0,0,1,1.87-.5,3,3,0,0,1,2.37,1,4,4,0,0,1,.85,2.73v.2Zm.89-2.51a3,3,0,0,0-.83,1.79h4.87a2.8,2.8,0,0,0-.69-1.8,2.14,2.14,0,0,0-1.64-.62A2.37,2.37,0,0,0,211.24,309.75Z" fill="#444"/><path d="M224.76,304.94v11.27h-.93v-1.47a2.54,2.54,0,0,1-1,1.17,3.16,3.16,0,0,1-1.63.41,3.26,3.26,0,0,1-1.79-.5,3.34,3.34,0,0,1-1.2-1.41,5,5,0,0,1-.43-2.11,4.9,4.9,0,0,1,.42-2.09,3.23,3.23,0,0,1,1.2-1.38,3.32,3.32,0,0,1,1.8-.48,3.08,3.08,0,0,1,1.61.4,2.56,2.56,0,0,1,1,1.16v-5Zm-1.59,9.72a4.44,4.44,0,0,0,0-4.66,2.22,2.22,0,0,0-1.85-.84,2.32,2.32,0,0,0-1.9.83,3.55,3.55,0,0,0-.68,2.31,3.69,3.69,0,0,0,.68,2.35,2.52,2.52,0,0,0,3.75,0Z" fill="#444"/><path d="M101.5,334h6.57v.81h-5.62V339h5.32v.85h-5.32v5.11h-1Z" fill="#444"/><path d="M110.32,341v0a3.45,3.45,0,0,0,.72,2.36,2.57,2.57,0,0,0,2.07.82,3.85,3.85,0,0,0,2.53-.95l.36.74a3.72,3.72,0,0,1-1.28.76,4.91,4.91,0,0,1-1.61.28,3.64,3.64,0,0,1-2.76-1.06,4,4,0,0,1-1-2.91,4.69,4.69,0,0,1,.45-2.09,3.54,3.54,0,0,1,1.27-1.41,3.5,3.5,0,0,1,1.87-.49,2.92,2.92,0,0,1,2.36,1,4,4,0,0,1,.85,2.72v.2Zm.89-2.5a3,3,0,0,0-.83,1.78h4.87a2.82,2.82,0,0,0-.69-1.8,2.15,2.15,0,0,0-1.63-.62A2.35,2.35,0,0,0,111.21,338.47Z" fill="#444"/><path d="M124.73,333.65v11.27h-.93v-1.47a2.49,2.49,0,0,1-1,1.17,3.13,3.13,0,0,1-1.63.41,3.22,3.22,0,0,1-1.78-.5,3.29,3.29,0,0,1-1.21-1.41,5,5,0,0,1-.42-2.1,4.84,4.84,0,0,1,.42-2.09,3.1,3.1,0,0,1,1.19-1.38,3.36,3.36,0,0,1,1.8-.48,3.24,3.24,0,0,1,1.62.39,2.62,2.62,0,0,1,1,1.17v-5Zm-1.59,9.73a4.46,4.46,0,0,0,0-4.67,2.24,2.24,0,0,0-1.85-.83,2.31,2.31,0,0,0-1.9.82,3.6,3.6,0,0,0-.68,2.32,3.64,3.64,0,0,0,.68,2.34,2.28,2.28,0,0,0,1.88.84A2.25,2.25,0,0,0,123.14,343.38Z" fill="#444"/><path d="M135.88,344.92h-1l-1.36-3.63a1.78,1.78,0,0,0-.72-1,2.94,2.94,0,0,0-1.33-.25h-3.05v4.87h-1V334h4.21a4,4,0,0,1,2.63.77,2.69,2.69,0,0,1,.94,2.21,2.82,2.82,0,0,1-.56,1.78,2.94,2.94,0,0,1-1.6,1,1.48,1.48,0,0,1,.81.4,2.44,2.44,0,0,1,.57.95Zm-4.24-5.69c1.79,0,2.68-.75,2.68-2.24s-.89-2.16-2.68-2.16h-3.22v4.4Z" fill="#444"/><path d="M145.13,342h-5.88L138,344.92h-1l4.74-10.9h.86l4.73,10.9h-1Zm-.37-.82-2.57-6-2.59,6Z" fill="#444"/><path d="M159.4,334v10.9h-.88v-8.73l-3.83,8.73H154l-3.86-8.65,0,8.65h-.89V334H150l4.32,9.77,4.26-9.77Z" fill="#444"/><path d="M162.3,334h4.19a3.86,3.86,0,0,1,2.58.79,3.07,3.07,0,0,1,0,4.41,3.86,3.86,0,0,1-2.57.8h-3.24v4.9h-.95Zm4.13,5.17a2.91,2.91,0,0,0,1.95-.56A2,2,0,0,0,169,337a2,2,0,0,0-.66-1.6,2.91,2.91,0,0,0-1.95-.57h-3.18v4.36Z" fill="#444"/><path d="M186.39,334v10.9h-.89v-8.73l-3.83,8.73H181l-3.86-8.65v8.65h-.89V334H177l4.32,9.77,4.26-9.77Z" fill="#444"/><path d="M195.65,337.25v7.67h-.93v-1.47a2.54,2.54,0,0,1-1,1.17,3.13,3.13,0,0,1-1.63.41,3.34,3.34,0,0,1-1.8-.48,3.1,3.1,0,0,1-1.19-1.38,4.76,4.76,0,0,1-.43-2.09,5,5,0,0,1,.43-2.11,3.41,3.41,0,0,1,1.21-1.41,3.22,3.22,0,0,1,1.78-.49,3.17,3.17,0,0,1,1.61.39,2.58,2.58,0,0,1,1,1.17v-1.38Zm-1.59,6.13a3.67,3.67,0,0,0,.66-2.33,3.71,3.71,0,0,0-.66-2.35,2.52,2.52,0,0,0-3.75,0,3.67,3.67,0,0,0-.68,2.35,3.51,3.51,0,0,0,.68,2.3,2.31,2.31,0,0,0,1.9.82A2.24,2.24,0,0,0,194.06,343.38Z" fill="#444"/><path d="M202.25,337.13l0,.84a3.62,3.62,0,0,0-.71-.06,2.09,2.09,0,0,0-1.74.74,2.84,2.84,0,0,0-.57,1.77v4.5h-.92v-5.54a16.81,16.81,0,0,0-.12-2.13H199l.12,1.42a2.3,2.3,0,0,1,.94-1.19,2.66,2.66,0,0,1,1.48-.41A3.33,3.33,0,0,1,202.25,337.13Z" fill="#444"/><path d="M208.84,344.92l-4.23-3.73v3.73h-.92V333.65h.92v7.17l3.86-3.57h1.21l-4,3.69,4.44,4Z" fill="#444"/><path d="M211.73,341v0a3.5,3.5,0,0,0,.71,2.36,2.6,2.6,0,0,0,2.08.82,3.81,3.81,0,0,0,2.52-.95l.37.74a3.72,3.72,0,0,1-1.28.76,4.91,4.91,0,0,1-1.61.28,3.62,3.62,0,0,1-2.76-1.06,4,4,0,0,1-1-2.91,4.69,4.69,0,0,1,.45-2.09,3.4,3.4,0,0,1,1.27-1.41,3.49,3.49,0,0,1,1.86-.49,3,3,0,0,1,2.37,1,4,4,0,0,1,.85,2.72v.2Zm.89-2.5a3,3,0,0,0-.83,1.78h4.87a2.82,2.82,0,0,0-.69-1.8,2.18,2.18,0,0,0-1.64-.62A2.34,2.34,0,0,0,212.62,338.47Z" fill="#444"/><path d="M220.92,338v4.56a1.79,1.79,0,0,0,.35,1.27,1.4,1.4,0,0,0,1,.36,2.58,2.58,0,0,0,.83-.14v.84a4.21,4.21,0,0,1-1,.12,2.14,2.14,0,0,1-1.58-.56,2.31,2.31,0,0,1-.57-1.7V338h-1.52v-.75H220v-2l.93-.35v2.39h2.27V338Z" fill="#444"/><path d="M230.22,337.56a3.32,3.32,0,0,1,1.2,1.41,5.38,5.38,0,0,1,0,4.19,3.23,3.23,0,0,1-1.2,1.38,3.27,3.27,0,0,1-1.79.49,3.09,3.09,0,0,1-1.65-.42,2.62,2.62,0,0,1-1-1.22v4.84h-.91v-8.85a16.67,16.67,0,0,0-.13-2.13h.89l.12,1.5a2.62,2.62,0,0,1,1-1.25,3,3,0,0,1,1.66-.43A3.22,3.22,0,0,1,230.22,337.56Zm0,5.82a3.5,3.5,0,0,0,.67-2.3,3.67,3.67,0,0,0-.67-2.35,2.52,2.52,0,0,0-3.75,0,3.71,3.71,0,0,0-.66,2.35,3.67,3.67,0,0,0,.66,2.33,2.25,2.25,0,0,0,1.87.82A2.3,2.3,0,0,0,230.2,343.38Z" fill="#444"/><path d="M234,333.65h.92v11.27H234Z" fill="#444"/><path d="M244.06,337.25v7.67h-.94v-1.47a2.47,2.47,0,0,1-1,1.17,3.17,3.17,0,0,1-1.64.41,3.36,3.36,0,0,1-1.8-.48,3.17,3.17,0,0,1-1.19-1.38,4.9,4.9,0,0,1-.42-2.09,4.85,4.85,0,0,1,.43-2.11,3.32,3.32,0,0,1,1.2-1.41,3.24,3.24,0,0,1,1.78-.49,3.19,3.19,0,0,1,1.62.39,2.56,2.56,0,0,1,1,1.17v-1.38Zm-1.6,6.13a3.67,3.67,0,0,0,.66-2.33,3.71,3.71,0,0,0-.66-2.35,2.23,2.23,0,0,0-1.86-.82,2.27,2.27,0,0,0-1.89.85,3.67,3.67,0,0,0-.67,2.35,3.5,3.5,0,0,0,.67,2.3,2.31,2.31,0,0,0,1.9.82A2.21,2.21,0,0,0,242.46,343.38Z" fill="#444"/><path d="M247.88,344.54a3.31,3.31,0,0,1-1.25-1.39,4.54,4.54,0,0,1-.44-2.07,4.71,4.71,0,0,1,.44-2.11,3.4,3.4,0,0,1,1.27-1.41,3.65,3.65,0,0,1,1.91-.49,4.46,4.46,0,0,1,1.5.26,3.19,3.19,0,0,1,1.17.75l-.37.73a4.88,4.88,0,0,0-1.14-.71,2.9,2.9,0,0,0-1.12-.22,2.45,2.45,0,0,0-2,.85,3.56,3.56,0,0,0-.71,2.35,3.4,3.4,0,0,0,.71,2.3,2.45,2.45,0,0,0,2,.82A2.9,2.9,0,0,0,251,344a4.81,4.81,0,0,0,1.14-.7l.37.72a3.4,3.4,0,0,1-1.22.75,4,4,0,0,1-1.48.28A3.61,3.61,0,0,1,247.88,344.54Z" fill="#444"/><path d="M254.75,341v0a3.45,3.45,0,0,0,.71,2.36,2.57,2.57,0,0,0,2.07.82,3.85,3.85,0,0,0,2.53-.95l.37.74a3.86,3.86,0,0,1-1.29.76,4.91,4.91,0,0,1-1.61.28,3.6,3.6,0,0,1-2.75-1.06,4,4,0,0,1-1-2.91,4.69,4.69,0,0,1,.45-2.09,3.45,3.45,0,0,1,1.26-1.41,3.5,3.5,0,0,1,1.87-.49,2.92,2.92,0,0,1,2.36,1,4,4,0,0,1,.85,2.72v.2Zm.88-2.5a3,3,0,0,0-.82,1.78h4.87a2.82,2.82,0,0,0-.69-1.8,2.19,2.19,0,0,0-1.64-.62A2.35,2.35,0,0,0,255.63,338.47Z" fill="#444"/><path d="M266.77,334h3.5a4.92,4.92,0,0,1,5.43,5.44,5.51,5.51,0,0,1-1.42,4,5.41,5.41,0,0,1-4,1.42h-3.5Zm3.46,10.07a4.42,4.42,0,0,0,3.34-1.17,4.84,4.84,0,0,0,1.11-3.46c0-3.08-1.48-4.61-4.45-4.61h-2.51v9.24Z" fill="#444"/><path d="M278.51,341v0a3.45,3.45,0,0,0,.72,2.36,2.57,2.57,0,0,0,2.07.82,3.85,3.85,0,0,0,2.53-.95l.36.74a3.72,3.72,0,0,1-1.28.76,4.91,4.91,0,0,1-1.61.28,3.64,3.64,0,0,1-2.76-1.06,4,4,0,0,1-1-2.91A4.69,4.69,0,0,1,278,339a3.54,3.54,0,0,1,1.27-1.41,3.5,3.5,0,0,1,1.87-.49,2.92,2.92,0,0,1,2.36,1,4,4,0,0,1,.85,2.72v.2Zm.89-2.5a3,3,0,0,0-.83,1.78h4.87a2.82,2.82,0,0,0-.69-1.8,2.15,2.15,0,0,0-1.63-.62A2.35,2.35,0,0,0,279.4,338.47Z" fill="#444"/><path d="M286,344l.33-.72a3.94,3.94,0,0,0,1.23.72,4.27,4.27,0,0,0,1.44.22,2.6,2.6,0,0,0,1.44-.33,1.07,1.07,0,0,0,.5-1,1,1,0,0,0-.33-.82,2.48,2.48,0,0,0-1.08-.48l-1.3-.29a2.86,2.86,0,0,1-1.45-.77,1.77,1.77,0,0,1-.52-1.28,1.93,1.93,0,0,1,.77-1.62,3.26,3.26,0,0,1,2.06-.6,4.17,4.17,0,0,1,1.51.26,2.88,2.88,0,0,1,1.15.75l-.35.72a3.4,3.4,0,0,0-2.31-.92,2.39,2.39,0,0,0-1.38.35,1.12,1.12,0,0,0-.49,1,1.17,1.17,0,0,0,.31.84,2,2,0,0,0,1,.48l1.31.32c1.38.3,2.07,1,2.07,2a1.85,1.85,0,0,1-.8,1.56,3.53,3.53,0,0,1-2.14.59A4.09,4.09,0,0,1,286,344Z" fill="#444"/><path d="M295.16,334.08v1.19h-1.24v-1.19Zm-1.1,3.17H295v7.67h-.91Z" fill="#444"/><path d="M304.19,337.25V345a3.5,3.5,0,0,1-.82,2.53,3.25,3.25,0,0,1-2.44.86,5.33,5.33,0,0,1-3-.83l.18-.81a6.82,6.82,0,0,0,1.38.63,5.25,5.25,0,0,0,1.44.18,2.25,2.25,0,0,0,1.73-.63,2.56,2.56,0,0,0,.59-1.84v-2a2.6,2.6,0,0,1-1,1.2,3.11,3.11,0,0,1-1.65.42,3.35,3.35,0,0,1-1.79-.48,3.26,3.26,0,0,1-1.22-1.35,4.34,4.34,0,0,1-.44-2,4.4,4.4,0,0,1,.44-2,3.24,3.24,0,0,1,1.22-1.34,3.35,3.35,0,0,1,1.79-.47,3.3,3.3,0,0,1,1.65.39,2.62,2.62,0,0,1,1,1.17v-1.38Zm-1.61,5.8a3.24,3.24,0,0,0,.68-2.17,3.33,3.33,0,0,0-.68-2.2,2.35,2.35,0,0,0-1.88-.8,2.4,2.4,0,0,0-1.9.8,3.28,3.28,0,0,0-.69,2.2,3.19,3.19,0,0,0,.69,2.18,2.39,2.39,0,0,0,1.9.79A2.35,2.35,0,0,0,302.58,343.05Z" fill="#444"/><path d="M313.15,340v4.88h-.93V340.1a2.55,2.55,0,0,0-.47-1.69,1.86,1.86,0,0,0-1.46-.53,2.51,2.51,0,0,0-1.86.7,2.56,2.56,0,0,0-.7,1.9v4.44h-.92v-5.54a16.81,16.81,0,0,0-.12-2.13h.89l.12,1.41a2.51,2.51,0,0,1,1.06-1.19,3.19,3.19,0,0,1,1.62-.4C312.23,337.07,313.15,338.06,313.15,340Z" fill="#444"/><path d="M322.25,337.25v7.67h-.94v-1.47a2.47,2.47,0,0,1-1,1.17,3.16,3.16,0,0,1-1.63.41,3.32,3.32,0,0,1-1.8-.48,3.12,3.12,0,0,1-1.2-1.38,4.9,4.9,0,0,1-.42-2.09,4.85,4.85,0,0,1,.43-2.11,3.39,3.39,0,0,1,1.2-1.41,3.25,3.25,0,0,1,1.79-.49,3.17,3.17,0,0,1,1.61.39,2.56,2.56,0,0,1,1,1.17v-1.38Zm-1.59,6.13a3.73,3.73,0,0,0,.65-2.33,3.77,3.77,0,0,0-.65-2.35,2.53,2.53,0,0,0-3.76,0,3.67,3.67,0,0,0-.67,2.35,3.5,3.5,0,0,0,.67,2.3,2.32,2.32,0,0,0,1.9.82A2.24,2.24,0,0,0,320.66,343.38Z" fill="#444"/><path d="M326.17,338v4.56a1.79,1.79,0,0,0,.35,1.27,1.38,1.38,0,0,0,1,.36,2.58,2.58,0,0,0,.83-.14v.84a4.21,4.21,0,0,1-1,.12,2.14,2.14,0,0,1-1.58-.56,2.28,2.28,0,0,1-.58-1.7V338h-1.51v-.75h1.51v-2l.94-.35v2.39h2.26V338Z" fill="#444"/><path d="M331.21,334.08v1.19H330v-1.19Zm-1.11,3.17H331v7.67h-.92Z" fill="#444"/><path d="M334.86,344.54a3.23,3.23,0,0,1-1.24-1.39,4.84,4.84,0,0,1-.44-2.1,4.77,4.77,0,0,1,.44-2.1,3.17,3.17,0,0,1,1.24-1.39,3.74,3.74,0,0,1,3.7,0,3.21,3.21,0,0,1,1.23,1.39,4.77,4.77,0,0,1,.43,2.1,4.84,4.84,0,0,1-.43,2.1,3.27,3.27,0,0,1-1.23,1.39,3.74,3.74,0,0,1-3.7,0Zm3.73-1.16a3.56,3.56,0,0,0,.67-2.33,3.64,3.64,0,0,0-.67-2.34,2.54,2.54,0,0,0-3.76,0,4.45,4.45,0,0,0,0,4.68,2.59,2.59,0,0,0,3.77,0Z" fill="#444"/><path d="M348.69,340v4.88h-.93V340.1a2.55,2.55,0,0,0-.47-1.69,1.86,1.86,0,0,0-1.46-.53,2.49,2.49,0,0,0-1.85.7,2.57,2.57,0,0,0-.71,1.9v4.44h-.92v-5.54a16.81,16.81,0,0,0-.12-2.13h.89l.12,1.41a2.57,2.57,0,0,1,1.06-1.19,3.19,3.19,0,0,1,1.62-.4C347.77,337.07,348.69,338.06,348.69,340Z" fill="#444"/><path d="M101.24,359.55h4.2v.81h-4.2Z" fill="#444"/><path d="M119.16,361.15h-5.88L112,364.06h-1l4.75-10.9h.86l4.73,10.9h-1Zm-.37-.82-2.57-6-2.59,6Z" fill="#444"/><path d="M129.3,356.39v7.67h-.91v-1.39a2.57,2.57,0,0,1-1,1.12,3.11,3.11,0,0,1-1.54.38,2.64,2.64,0,0,1-2-.75,3.17,3.17,0,0,1-.69-2.22v-4.81H124v4.75a2.52,2.52,0,0,0,.46,1.67,1.75,1.75,0,0,0,1.42.53,2.35,2.35,0,0,0,1.81-.71,2.62,2.62,0,0,0,.67-1.89v-4.35Z" fill="#444"/><path d="M133.22,357.14v4.57a1.77,1.77,0,0,0,.35,1.27,1.42,1.42,0,0,0,1,.35,2.58,2.58,0,0,0,.83-.14V364a4.22,4.22,0,0,1-1,.13,2.14,2.14,0,0,1-1.58-.57,2.28,2.28,0,0,1-.58-1.7v-4.75h-1.51v-.75h1.51v-2l.94-.35v2.39h2.26v.75Z" fill="#444"/><path d="M143.49,359.18v4.88h-.93v-4.82a2.55,2.55,0,0,0-.47-1.69,1.86,1.86,0,0,0-1.46-.53,2.47,2.47,0,0,0-1.85.7,2.58,2.58,0,0,0-.71,1.9v4.44h-.92V352.79h.92v4.93a2.58,2.58,0,0,1,1.06-1.13,3.17,3.17,0,0,1,1.59-.38C142.57,356.21,143.49,357.2,143.49,359.18Z" fill="#444"/><path d="M147.27,363.68a3.23,3.23,0,0,1-1.24-1.39,5.23,5.23,0,0,1,0-4.2,3.17,3.17,0,0,1,1.24-1.39,3.44,3.44,0,0,1,1.86-.49,3.39,3.39,0,0,1,1.83.49,3.17,3.17,0,0,1,1.24,1.39,5.34,5.34,0,0,1,0,4.2,3.23,3.23,0,0,1-1.24,1.39,3.39,3.39,0,0,1-1.83.49A3.44,3.44,0,0,1,147.27,363.68Zm3.73-1.16a3.56,3.56,0,0,0,.67-2.33,3.7,3.7,0,0,0-.67-2.34,2.54,2.54,0,0,0-3.76,0,4.45,4.45,0,0,0,0,4.68,2.59,2.59,0,0,0,3.77,0Z" fill="#444"/><path d="M158.75,356.27l-.05.84a3.62,3.62,0,0,0-.71-.06,2.06,2.06,0,0,0-1.73.74,2.79,2.79,0,0,0-.58,1.77v4.5h-.92v-5.54a16.81,16.81,0,0,0-.12-2.13h.89l.12,1.43a2.37,2.37,0,0,1,.94-1.2,2.77,2.77,0,0,1,1.48-.41A3.44,3.44,0,0,1,158.75,356.27Z" fill="#444"/><path d="M161.29,353.22v1.2h-1.24v-1.2Zm-1.11,3.17h.92v7.67h-.92Z" fill="#444"/><path d="M169.66,363.3v.76h-6.4v-.64l5.1-6.28h-4.91v-.75h6.05v.71l-5,6.2Z" fill="#444"/><path d="M172.05,360.11v.05a3.5,3.5,0,0,0,.71,2.36,2.6,2.6,0,0,0,2.08.82,3.85,3.85,0,0,0,2.53-.95l.36.74a3.57,3.57,0,0,1-1.28.76,4.66,4.66,0,0,1-1.61.28,3.64,3.64,0,0,1-2.76-1.06,4,4,0,0,1-1-2.91,4.69,4.69,0,0,1,.45-2.09,3.39,3.39,0,0,1,3.14-1.9,2.92,2.92,0,0,1,2.36,1,4,4,0,0,1,.85,2.72v.2Zm.89-2.5a3,3,0,0,0-.83,1.78H177a2.84,2.84,0,0,0-.69-1.8,2.15,2.15,0,0,0-1.63-.62A2.39,2.39,0,0,0,172.94,357.61Z" fill="#444"/><path d="M186.46,352.79v11.27h-.93v-1.47a2.54,2.54,0,0,1-1,1.17,3.06,3.06,0,0,1-1.63.41,3.28,3.28,0,0,1-1.79-.5,3.34,3.34,0,0,1-1.2-1.41,5.38,5.38,0,0,1,0-4.19,3.19,3.19,0,0,1,1.2-1.38,3.32,3.32,0,0,1,1.8-.48,3.08,3.08,0,0,1,1.61.4,2.51,2.51,0,0,1,1,1.16v-5Zm-1.59,9.73a3.65,3.65,0,0,0,.66-2.33,3.7,3.7,0,0,0-.66-2.34A2.24,2.24,0,0,0,183,357a2.29,2.29,0,0,0-1.9.83,3.55,3.55,0,0,0-.68,2.31,3.64,3.64,0,0,0,.68,2.34,2.53,2.53,0,0,0,3.75,0Z" fill="#444"/><path d="M64.36,120.58a3.81,3.81,0,0,1-1.5-1.28l1-1.18a3,3,0,0,0,2.51,1.43,1.88,1.88,0,0,0,1.54-.62,2.74,2.74,0,0,0,.53-1.82v-6.77H64.08v-1.5h6.06V117a4.22,4.22,0,0,1-1,3,3.72,3.72,0,0,1-2.82,1A4.56,4.56,0,0,1,64.36,120.58Z" fill="#0a90b7"/><path d="M81.26,117.88H74.85l-1.33,3H71.75l5.46-12.06h1.7l5.48,12.06H82.58Zm-.61-1.37-2.6-5.91-2.6,5.91Z" fill="#0a90b7"/><path d="M96.12,115.7a3,3,0,0,1,.61,1.94,2.79,2.79,0,0,1-1.18,2.41,5.84,5.84,0,0,1-3.44.85H86.35V108.84h5.41a5.28,5.28,0,0,1,3.2.83A2.68,2.68,0,0,1,96.09,112a3,3,0,0,1-.44,1.63,2.85,2.85,0,0,1-1.18,1A3.11,3.11,0,0,1,96.12,115.7Zm-8-5.47v3.86h3.53a3.58,3.58,0,0,0,2-.49,1.63,1.63,0,0,0,.72-1.44,1.61,1.61,0,0,0-.72-1.43,3.57,3.57,0,0,0-2-.5ZM94.25,119A1.69,1.69,0,0,0,95,117.5c0-1.34-1-2-2.95-2h-4v4h4A4.12,4.12,0,0,0,94.25,119Z" fill="#0a90b7"/><path d="M112.06,117.88h-6.41l-1.33,3h-1.77L108,108.84h1.71l5.47,12.06h-1.8Zm-.6-1.37-2.61-5.91-2.6,5.91Z" fill="#0a90b7"/><path d="M125.26,111.77v9.13h-1.57v-1.38a3.21,3.21,0,0,1-1.32,1.09,4.07,4.07,0,0,1-1.78.39,3.59,3.59,0,0,1-3.93-4v-5.25h1.65v5.06a2.85,2.85,0,0,0,.64,2,2.4,2.4,0,0,0,1.83.68,2.7,2.7,0,0,0,2.06-.79,3.1,3.1,0,0,0,.76-2.24v-4.72Z" fill="#0a90b7"/><path d="M133.71,120.36a2.45,2.45,0,0,1-.89.48,3.75,3.75,0,0,1-1.1.16,2.94,2.94,0,0,1-2.14-.74,2.81,2.81,0,0,1-.76-2.12v-5h-1.55v-1.36h1.55v-2h1.66v2h2.61v1.36h-2.61v4.94a1.58,1.58,0,0,0,.37,1.14,1.39,1.39,0,0,0,1.06.4,2,2,0,0,0,1.29-.43Z" fill="#0a90b7"/><path d="M143.53,112.69a4,4,0,0,1,1,3v5.26H142.9v-5.07a2.84,2.84,0,0,0-.64-2,2.43,2.43,0,0,0-1.83-.67,2.84,2.84,0,0,0-2.12.79,3.08,3.08,0,0,0-.77,2.25v4.7h-1.66V108.12h1.66v4.94a3.32,3.32,0,0,1,1.35-1,4.69,4.69,0,0,1,1.87-.36A3.8,3.8,0,0,1,143.53,112.69Z" fill="#0a90b7"/><path d="M149.31,120.4a4.38,4.38,0,0,1-1.7-1.66,5,5,0,0,1,0-4.81,4.22,4.22,0,0,1,1.7-1.65,5.26,5.26,0,0,1,4.88,0,4.26,4.26,0,0,1,1.69,1.65,5,5,0,0,1,0,4.81,4.42,4.42,0,0,1-1.69,1.66,5.26,5.26,0,0,1-4.88,0Zm4-1.25a2.85,2.85,0,0,0,1.09-1.14,3.73,3.73,0,0,0,0-3.36,2.89,2.89,0,0,0-1.09-1.13,3.19,3.19,0,0,0-1.58-.39,3.15,3.15,0,0,0-1.57.39,2.94,2.94,0,0,0-1.11,1.13,3.73,3.73,0,0,0,0,3.36,2.9,2.9,0,0,0,1.11,1.14,3.06,3.06,0,0,0,1.57.4A3.09,3.09,0,0,0,153.33,119.15Z" fill="#0a90b7"/><path d="M161.81,112.09a4.74,4.74,0,0,1,2.05-.41v1.6h-.38a2.77,2.77,0,0,0-2.11.8,3.16,3.16,0,0,0-.76,2.28v4.55H159v-9.13h1.59v1.53A2.81,2.81,0,0,1,161.81,112.09Z" fill="#0a90b7"/><path d="M166.09,109.7a1.06,1.06,0,0,1,0-1.52,1.07,1.07,0,0,1,.8-.32,1.14,1.14,0,0,1,.81.3,1,1,0,0,1,.31.75,1.06,1.06,0,0,1-.31.78,1.12,1.12,0,0,1-.81.32A1.1,1.1,0,0,1,166.09,109.7Zm0,2.07h1.65v9.13h-1.65Z" fill="#0a90b7"/><path d="M177.82,119.54v1.36h-7.65v-1.07l5.39-6.7h-5.29v-1.36h7.41v1.08l-5.39,6.69Z" fill="#0a90b7"/><path d="M186.42,112.61a3.61,3.61,0,0,1,1,2.78v5.51h-1.57v-1.21a2.61,2.61,0,0,1-1.18,1,4.54,4.54,0,0,1-1.81.33,3.82,3.82,0,0,1-2.46-.74,2.54,2.54,0,0,1,0-3.88,4.29,4.29,0,0,1,2.79-.74h2.62v-.32a2.12,2.12,0,0,0-.62-1.64,2.64,2.64,0,0,0-1.83-.57,4.73,4.73,0,0,0-1.58.27,4,4,0,0,0-1.31.71l-.69-1.24a4.92,4.92,0,0,1,1.69-.87,7,7,0,0,1,2.08-.3A4.13,4.13,0,0,1,186.42,112.61Zm-1.64,6.69a2.44,2.44,0,0,0,1-1.19v-1.28h-2.55c-1.4,0-2.11.47-2.11,1.42a1.27,1.27,0,0,0,.54,1.08,2.39,2.39,0,0,0,1.48.4A3,3,0,0,0,184.78,119.3Z" fill="#0a90b7"/><path d="M195.8,120.36a2.45,2.45,0,0,1-.89.48,3.77,3.77,0,0,1-1.11.16,2.93,2.93,0,0,1-2.13-.74,2.81,2.81,0,0,1-.76-2.12v-5h-1.55v-1.36h1.55v-2h1.65v2h2.62v1.36h-2.62v4.94a1.63,1.63,0,0,0,.37,1.14,1.42,1.42,0,0,0,1.06.4,2.05,2.05,0,0,0,1.3-.43Z" fill="#0a90b7"/><path d="M198,109.7a1.06,1.06,0,0,1,0-1.52,1.06,1.06,0,0,1,.8-.32,1.12,1.12,0,0,1,.8.3,1,1,0,0,1,.32.75,1.06,1.06,0,0,1-.32.78,1.17,1.17,0,0,1-1.6,0Zm0,2.07h1.66v9.13H198Z" fill="#0a90b7"/><path d="M204.42,120.4a4.38,4.38,0,0,1-1.7-1.66,5,5,0,0,1,0-4.81,4.22,4.22,0,0,1,1.7-1.65,5.26,5.26,0,0,1,4.88,0,4.26,4.26,0,0,1,1.69,1.65,5,5,0,0,1,0,4.81,4.42,4.42,0,0,1-1.69,1.66,5.26,5.26,0,0,1-4.88,0Zm4-1.25a2.85,2.85,0,0,0,1.09-1.14,3.73,3.73,0,0,0,0-3.36,2.89,2.89,0,0,0-1.09-1.13,3.19,3.19,0,0,0-1.58-.39,3.15,3.15,0,0,0-1.57.39,2.94,2.94,0,0,0-1.11,1.13,3.73,3.73,0,0,0,0,3.36,2.9,2.9,0,0,0,1.11,1.14,3.06,3.06,0,0,0,1.57.4A3.09,3.09,0,0,0,208.44,119.15Z" fill="#0a90b7"/><path d="M221.71,112.69a4,4,0,0,1,1,3v5.26h-1.65v-5.07a2.84,2.84,0,0,0-.64-2,2.43,2.43,0,0,0-1.83-.67,2.84,2.84,0,0,0-2.12.79,3.08,3.08,0,0,0-.77,2.25v4.7h-1.66v-9.13h1.59v1.38a3.1,3.1,0,0,1,1.35-1.09,4.8,4.8,0,0,1,1.94-.38A3.8,3.8,0,0,1,221.71,112.69Z" fill="#0a90b7"/><path d="M239.41,110a4.22,4.22,0,0,1,0,6.17,5.64,5.64,0,0,1-3.69,1.12h-3v3.65H231V108.84h4.7A5.59,5.59,0,0,1,239.41,110Zm-1.24,5.09a2.77,2.77,0,0,0,0-4,3.88,3.88,0,0,0-2.5-.7h-2.93v5.41h2.93A3.94,3.94,0,0,0,238.17,115.05Z" fill="#0a90b7"/><path d="M245.92,112.09a4.71,4.71,0,0,1,2.05-.41v1.6h-.38a2.75,2.75,0,0,0-2.11.8,3.16,3.16,0,0,0-.77,2.28v4.55h-1.65v-9.13h1.58v1.53A2.89,2.89,0,0,1,245.92,112.09Z" fill="#0a90b7"/><path d="M251.55,120.4a4.44,4.44,0,0,1-1.7-1.66,5,5,0,0,1,0-4.81,4.28,4.28,0,0,1,1.7-1.65,5,5,0,0,1,2.45-.6,4.93,4.93,0,0,1,2.44.6,4.23,4.23,0,0,1,1.68,1.65,5,5,0,0,1,0,4.81,4.39,4.39,0,0,1-1.68,1.66,4.93,4.93,0,0,1-2.44.6A5,5,0,0,1,251.55,120.4Zm4-1.25a2.87,2.87,0,0,0,1.1-1.14,3.81,3.81,0,0,0,0-3.36,2.91,2.91,0,0,0-1.1-1.13,3.15,3.15,0,0,0-1.57-.39,3.19,3.19,0,0,0-1.58.39,3,3,0,0,0-1.1,1.13,3.65,3.65,0,0,0,0,3.36,2.94,2.94,0,0,0,1.1,1.14,3.09,3.09,0,0,0,1.58.4A3.06,3.06,0,0,0,255.57,119.15Z" fill="#0a90b7"/><path d="M262.69,120.4a4.4,4.4,0,0,1-1.71-1.66,5,5,0,0,1,0-4.81,4.24,4.24,0,0,1,1.71-1.65,5.1,5.1,0,0,1,2.49-.6,4.8,4.8,0,0,1,2.21.5,3.58,3.58,0,0,1,1.51,1.45l-1.26.81a2.68,2.68,0,0,0-1.06-1,3.06,3.06,0,0,0-1.42-.33,3.31,3.31,0,0,0-1.61.39,2.9,2.9,0,0,0-1.12,1.13,3.77,3.77,0,0,0,0,3.38,2.83,2.83,0,0,0,1.12,1.13,3.31,3.31,0,0,0,1.61.39,3.06,3.06,0,0,0,1.42-.32,2.83,2.83,0,0,0,1.06-1l1.26.79a3.64,3.64,0,0,1-1.51,1.45,4.68,4.68,0,0,1-2.21.51A5.1,5.1,0,0,1,262.69,120.4Z" fill="#0a90b7"/><path d="M279.29,116.88h-7.41a2.86,2.86,0,0,0,1.06,1.94,3.44,3.44,0,0,0,2.25.73,3.38,3.38,0,0,0,2.64-1.1l.91,1.07a4.07,4.07,0,0,1-1.54,1.1,5.25,5.25,0,0,1-2.06.38,5.47,5.47,0,0,1-2.57-.59,4.26,4.26,0,0,1-1.73-1.66,4.78,4.78,0,0,1-.61-2.42,4.89,4.89,0,0,1,.59-2.39,4.22,4.22,0,0,1,1.64-1.66,4.62,4.62,0,0,1,2.35-.6,4.52,4.52,0,0,1,2.33.6,4.15,4.15,0,0,1,1.61,1.66,5.11,5.11,0,0,1,.57,2.44C279.32,116.51,279.31,116.68,279.29,116.88Zm-6.47-3.08a2.91,2.91,0,0,0-.94,1.9h5.86a3,3,0,0,0-.94-1.89,2.83,2.83,0,0,0-2-.73A2.86,2.86,0,0,0,272.82,113.8Z" fill="#0a90b7"/><path d="M282.25,120.7a4.7,4.7,0,0,1-1.62-.77l.69-1.31a4.77,4.77,0,0,0,1.47.69,5.73,5.73,0,0,0,1.74.26c1.44,0,2.17-.41,2.17-1.24a.79.79,0,0,0-.3-.65,1.92,1.92,0,0,0-.73-.36c-.29-.07-.71-.15-1.25-.25a11.91,11.91,0,0,1-1.8-.39,2.74,2.74,0,0,1-1.19-.76,2.09,2.09,0,0,1-.5-1.5,2.33,2.33,0,0,1,1-2,4.62,4.62,0,0,1,2.77-.75,7.65,7.65,0,0,1,1.83.23,4.74,4.74,0,0,1,1.5.6l-.71,1.31a4.74,4.74,0,0,0-2.63-.73,3.08,3.08,0,0,0-1.61.35,1,1,0,0,0-.55.91.89.89,0,0,0,.31.71,2,2,0,0,0,.77.38c.3.08.73.17,1.28.27a13.56,13.56,0,0,1,1.79.41,2.67,2.67,0,0,1,1.16.73,2,2,0,0,1,.48,1.45,2.28,2.28,0,0,1-1.06,2,5,5,0,0,1-2.88.73A7.72,7.72,0,0,1,282.25,120.7Z" fill="#0a90b7"/><path d="M291.06,120.7a4.7,4.7,0,0,1-1.62-.77l.68-1.31a4.88,4.88,0,0,0,1.47.69,5.73,5.73,0,0,0,1.74.26c1.45,0,2.17-.41,2.17-1.24a.81.81,0,0,0-.29-.65,2,2,0,0,0-.73-.36l-1.25-.25a11.38,11.38,0,0,1-1.8-.39,2.71,2.71,0,0,1-1.2-.76,2.14,2.14,0,0,1-.5-1.5,2.33,2.33,0,0,1,1-2,4.65,4.65,0,0,1,2.78-.75,7.63,7.63,0,0,1,1.82.23,4.74,4.74,0,0,1,1.5.6l-.7,1.31a4.8,4.8,0,0,0-2.64-.73,3,3,0,0,0-1.6.35,1,1,0,0,0-.55.91.86.86,0,0,0,.31.71,1.94,1.94,0,0,0,.76.38c.31.08.73.17,1.29.27a13.74,13.74,0,0,1,1.78.41,2.67,2.67,0,0,1,1.16.73,2,2,0,0,1,.48,1.45,2.28,2.28,0,0,1-1.06,2,5,5,0,0,1-2.88.73A7.6,7.6,0,0,1,291.06,120.7Z" fill="#0a90b7"/><line x1="75.11" y1="196.93" x2="75.11" y2="325.79" fill="none" stroke="#0a90b7" stroke-miterlimit="10" stroke-width="0.75"/><line x1="75.11" y1="147.59" x2="75.11" y2="158.24" fill="none" stroke="#0a90b7" stroke-miterlimit="10" stroke-width="0.75"/><path d="M86.53,177.58A11.42,11.42,0,0,1,75.11,189h0a11.42,11.42,0,0,1-11.42-11.42h0a11.43,11.43,0,0,1,11.42-11.42h0a11.42,11.42,0,0,1,11.42,11.42Z" fill="#c71f25"/><path d="M80.28,171.69c-3.27,1.59-5,4.83-6.56,7.84l-2.21-2.21a33.4,33.4,0,0,1-3.44,2.15l9.24,9.24A11.82,11.82,0,0,0,86.5,177.9Z" opacity="0.1" style="isolation:isolate"/><path d="M71.5,177.32a14.86,14.86,0,0,1,1.72,3.18c1.69-3.26,3.44-7.05,7.06-8.81a9.39,9.39,0,0,0-.07,4.85c-3.06,1.53-5,4.34-6.9,7.25a12.24,12.24,0,0,0-5.24-4.32,32.25,32.25,0,0,0,3.43-2.15Z" fill="#fff"/><path d="M86.53,339.66a11.42,11.42,0,0,1-11.42,11.42h0a11.43,11.43,0,0,1-11.42-11.42h0a11.42,11.42,0,0,1,11.42-11.42h0a11.42,11.42,0,0,1,11.42,11.42Z" fill="#c71f25"/><path d="M80.28,333.76c-3.27,1.6-5,4.84-6.56,7.85l-2.21-2.21a31.64,31.64,0,0,1-3.44,2.14l9.24,9.24A11.8,11.8,0,0,0,86.5,340Z" opacity="0.1" style="isolation:isolate"/><path d="M71.5,339.4a14.62,14.62,0,0,1,1.72,3.18c1.69-3.26,3.44-7.05,7.06-8.82a9.39,9.39,0,0,0-.07,4.85c-3.06,1.54-5,4.35-6.9,7.26a12.28,12.28,0,0,0-5.24-4.33,30.6,30.6,0,0,0,3.43-2.14Z" fill="#fff"/></g></svg>