<?xml version="1.0" encoding="utf-8"?>
<!-- Generator: Adobe Illustrator 24.2.3, SVG Export Plug-In . SVG Version: 6.00 Build 0)  -->
<svg version="1.1" xmlns="http://www.w3.org/2000/svg" xmlns:xlink="http://www.w3.org/1999/xlink" x="0px" y="0px"
	 viewBox="0 0 320 1499.1" style="enable-background:new 0 0 320 1499.1;" xml:space="preserve">
<style type="text/css">
	.st0{fill:#FFFFFF;}
	.st1{fill:#0A90B7;}
	.st2{fill:#1294C2;}
	.st3{fill:#F2F2F2;}
	.st4{fill:none;}
	.st5{fill:#444444;}
	.st6{font-family:'Muli-LightItalic';}
	.st7{font-size:14px;}
	.st8{fill:none;stroke:#757575;stroke-width:0.25;stroke-miterlimit:10;}
	.st9{fill:none;stroke:#0A90B7;stroke-width:0.75;stroke-miterlimit:10;}
	.st10{fill:#757575;}
	.st11{fill:none;stroke:#FFFFFF;stroke-width:2;stroke-linecap:round;}
	.st12{fill:#A6D7E5;}
	.st13{fill:#D8D8D8;}
	.st14{fill:#A00A0F;}
	.st15{fill:#C71F25;}
	.st16{opacity:0.1;enable-background:new    ;}
	.st17{font-family:'Muli-Light';}
	.st18{font-size:16px;}
	.st19{letter-spacing:25;}
	.st20{font-family:'Montserrat-Medium';}
	.st21{font-size:18px;}
	.st22{fill:#0A90B7;stroke:#0A90B7;stroke-width:0.25;stroke-miterlimit:10;}
	.st23{font-family:'Muli-Black';}
	.st24{letter-spacing:17;}
	.st25{font-family:'Montserrat-SemiBold';}
	.st26{font-size:17.5px;}
</style>
<g id="Shapes">
	<rect y="531.5" class="st0" width="319.9" height="743"/>
</g>
<g id="background">
</g>
<g id="text">
	<g>
		<rect x="25.2" y="1150.7" class="st4" width="279.3" height="87.8"/>
		<text transform="matrix(1 0 0 1 25.1901 1162.6967)"><tspan x="0" y="0" class="st5 st6 st7">* The full security assessment may be </tspan><tspan x="9.7" y="18" class="st5 st6 st7">prepared in advance of the authorization </tspan><tspan x="9.7" y="36" class="st5 st6 st7">phase, or completed during the </tspan><tspan x="9.7" y="54" class="st5 st6 st7">authorization phase. This is dependent </tspan><tspan x="9.7" y="72" class="st5 st6 st7">on the agency&apos;s review approach.</tspan></text>
	</g>
</g>
<g id="Graphics">
	<line class="st8" x1="23.2" y1="299.2" x2="296.6" y2="299.2"/>
	<line class="st8" x1="23.2" y1="758.9" x2="296.6" y2="758.9"/>
	<g>
		<path id="Path_1554_8_" class="st10" d="M169.7,758.9c0,6.7-5.4,12.1-12.1,12.1s-12.1-5.4-12.1-12.1c0-6.7,5.4-12.1,12.1-12.1
			S169.7,752.3,169.7,758.9z"/>
		<g id="Group_1434_8_" transform="translate(4.574 4.222)">
			<g id="arrow_8_" transform="translate(4.574 0)">
				<path id="arrow-2_8_" class="st0" d="M148.6,762c-0.3,0-0.7-0.1-0.9-0.4l-5.3-5.1c-0.5-0.5-0.5-1.2-0.1-1.7c0,0,0.1-0.1,0.1-0.1
					c0.5-0.5,1.3-0.5,1.8,0c0,0,0,0,0,0l4.4,4.2l4.4-4.2c0.5-0.5,1.3-0.5,1.8,0c0,0,0,0,0,0c0.5,0.5,0.5,1.2,0.1,1.7
					c0,0,0,0.1-0.1,0.1l-5.3,5.1C149.3,761.9,148.9,762,148.6,762z"/>
			</g>
			<path id="Path_1968_8_" class="st11" d="M153,759.2v-10.8"/>
		</g>
	</g>
	<g>
		<g>
			<rect x="37.9" y="687.1" class="st4" width="267.8" height="36.1"/>
			<text transform="matrix(1 0 0 1 37.9186 698.8935)"><tspan x="0" y="0" class="st5 st17 st18 st19">	</tspan><tspan x="30" y="0" class="st5 st17 st18">Security Authorization Package </tspan><tspan x="30" y="20" class="st5 st17 st18">(SSP, SAP, SAR, POA&amp;M)*</tspan></text>
		</g>
		<g>
			<text transform="matrix(1 0 0 1 25.1896 665.3508)" class="st1 st20 st21">Full Security Assessment</text>
		</g>
		<g>
			<g>
				<circle class="st1" cx="42.1" cy="695.7" r="12.1"/>
			</g>
			<g>
				<path class="st0" d="M44.6,692.4c-0.3,0-0.6-0.3-0.6-0.6v-4h-6.2c-0.9,0-1.6,0.7-1.6,1.6V702c0,0.9,0.7,1.6,1.6,1.6H47
					c0.9,0,1.6-0.7,1.6-1.6v-9.6H44.6z"/>
			</g>
			<path class="st12" d="M44.6,692.4h4l-4.6-4.6v4C44,692.1,44.3,692.4,44.6,692.4z"/>
			<polygon class="st3" points="48.6,695.7 48.6,692.4 44.6,692.4 			"/>
		</g>
	</g>
	<g>
		<g>
			<rect x="37.9" y="846.6" class="st4" width="277.2" height="268.1"/>
			<text transform="matrix(1 0 0 1 37.9176 860.3439)"><tspan x="0" y="0" class="st22 st23 st18">•</tspan><tspan x="8.5" y="0" class="st5 st17 st18 st24">	</tspan><tspan x="30" y="0" class="st5 st17 st18">Agency Review of Security </tspan><tspan x="30" y="20" class="st5 st17 st18">Authorization Package</tspan><tspan x="0" y="50" class="st22 st23 st18">•</tspan><tspan x="8.5" y="50" class="st5 st17 st18 st24">	</tspan><tspan x="30" y="50" class="st5 st17 st18">SAR Debrief</tspan><tspan x="0" y="80" class="st22 st23 st18">•</tspan><tspan x="8.5" y="80" class="st5 st17 st18 st24">	</tspan><tspan x="30" y="80" class="st5 st17 st18">Remediation</tspan><tspan x="0" y="110" class="st22 st23 st18">•</tspan><tspan x="8.5" y="110" class="st5 st17 st18 st24">	</tspan><tspan x="30" y="110" class="st5 st17 st18">Agency Final Review</tspan><tspan x="0" y="140" class="st22 st23 st18">•</tspan><tspan x="8.5" y="140" class="st5 st17 st18 st24">	</tspan><tspan x="30" y="140" class="st5 st17 st18">Agency Issues ATO</tspan><tspan x="0" y="170" class="st22 st23 st18">•</tspan><tspan x="8.5" y="170" class="st5 st17 st18 st24">	</tspan><tspan x="30" y="170" class="st5 st17 st18">FedRAMP PMO Review</tspan><tspan x="0" y="200" class="st22 st23 st18">•</tspan><tspan x="8.5" y="200" class="st5 st17 st18 st24">	</tspan><tspan x="30" y="200" class="st5 st17 st18">Remediation (if needed)</tspan><tspan x="0" y="230" class="st5 st17 st18 st19">	</tspan><tspan x="30" y="230" class="st5 st17 st18">FedRAMP Marketplace </tspan><tspan x="30" y="250" class="st5 st17 st18">Designation - Authorized</tspan></text>
		</g>
		<g>
			<rect x="25.2" y="795.3" class="st4" width="213.8" height="41.6"/>
			<text transform="matrix(0.98 0 0 1 25.1894 810.5612)"><tspan x="0" y="0" class="st1 st20 st21">Agency Authorization </tspan><tspan x="0" y="21.6" class="st1 st20 st21">Process</tspan></text>
		</g>
		<line class="st9" x1="42.1" y1="854.7" x2="42.1" y2="1067.8"/>
		<g>
			<path class="st13" d="M53.4,1094.1c0.5-0.9-0.4-2.3-0.1-3.3c0.3-0.9,1.7-1.8,1.7-2.8c0-1-1.5-1.8-1.7-2.8c-0.3-1,0.6-2.4,0.1-3.3
				c-0.5-0.9-2.2-0.8-2.9-1.5s-0.7-2.4-1.5-2.9c-0.9-0.5-2.3,0.4-3.3,0.1c-0.9-0.3-1.8-1.7-2.8-1.7c-1,0-1.8,1.5-2.8,1.7
				c-1,0.3-2.4-0.6-3.3-0.1c-0.9,0.5-0.8,2.2-1.5,2.9c-0.7,0.7-2.4,0.7-2.9,1.5c-0.5,0.9,0.4,2.3,0.1,3.3c-0.3,0.9-1.7,1.8-1.7,2.8
				s1.5,1.8,1.7,2.8c0.3,1-0.6,2.4-0.1,3.3c0.5,0.9,2.2,0.8,2.9,1.5c0.5,0.5,0.6,1.3,0.9,2l-3.9,8.1l5.2-1.3l2.7,4.6l2.7-7.2
				l2.7,7.2l2.7-4.6l5.2,1.3l-3.9-8.1c0.3-0.7,0.4-1.6,0.9-2C51.3,1094.9,52.9,1094.9,53.4,1094.1z"/>
			<g>
				<g>
					<polygon class="st14" points="38.5,1107.4 35.8,1102.8 30.6,1104 37.6,1089.5 44.2,1092.2 					"/>
					<polygon class="st14" points="43.9,1107.4 46.6,1102.8 51.8,1104 44.8,1089.5 38.2,1092.2 					"/>
				</g>
				<path class="st15" d="M53.3,1086.3c0,1-1.5,1.8-1.7,2.8c-0.3,1,0.6,2.4,0.1,3.3c-0.5,0.9-2.2,0.8-2.9,1.5
					c-0.7,0.7-0.7,2.4-1.5,2.9c-0.9,0.5-2.3-0.4-3.3-0.1c-0.9,0.3-1.8,1.7-2.8,1.7c-1,0-1.8-1.5-2.8-1.7c-1-0.3-2.4,0.6-3.3,0.1
					c-0.9-0.5-0.8-2.2-1.5-2.9c-0.7-0.7-2.4-0.7-2.9-1.5c-0.5-0.9,0.4-2.3,0.1-3.3c-0.3-0.9-1.7-1.8-1.7-2.8s1.5-1.8,1.7-2.8
					c0.3-1-0.6-2.4-0.1-3.3c0.5-0.9,2.2-0.8,2.9-1.5c0.7-0.7,0.7-2.4,1.5-2.9c0.9-0.5,2.3,0.4,3.3,0.1c0.9-0.3,1.8-1.7,2.8-1.7
					c1,0,1.8,1.5,2.8,1.7c1,0.3,2.4-0.6,3.3-0.1c0.9,0.5,0.8,2.2,1.5,2.9c0.7,0.7,2.4,0.7,2.9,1.5c0.5,0.9-0.4,2.3-0.1,3.3
					C51.8,1084.5,53.3,1085.3,53.3,1086.3z"/>
				<g>
					<path class="st3" d="M48.1,1086.3c0,3.8-3.1,6.9-6.9,6.9c-3.8,0-6.9-3.1-6.9-6.9c0-3.8,3.1-6.9,6.9-6.9
						C45,1079.4,48.1,1082.5,48.1,1086.3"/>
					<path class="st0" d="M46.9,1086.3c0,3.1-2.5,5.7-5.7,5.7s-5.7-2.5-5.7-5.7c0-3.1,2.5-5.7,5.7-5.7S46.9,1083.2,46.9,1086.3"/>
				</g>
			</g>
		</g>
	</g>
	<g>
		<path id="Path_7616_9_" class="st1" d="M297.1,614.1H57.4v-46.5h239.7l10.2,23.3L297.1,614.1z"/>
		<rect x="0.5" y="567.5" class="st3" width="56.9" height="46.5"/>
		<text transform="matrix(1 0 0 1 73.4872 597.23)" class="st0 st25 st21">Authorization</text>
		<g>
			<path class="st3" d="M40.6,602.5c-1,0-2.2-0.3-3.6-0.9l-0.3-0.1l-0.2-0.1c-0.6-0.3-1.1-0.4-1.5-0.6c-0.3-0.1-0.6-0.2-0.9-0.2
				c-0.2,0-0.4,0.1-0.6,0.2c-0.1,0.1-0.3,0.3-0.4,0.5c-0.2,0.4-0.5,0.6-0.8,0.6h-2.5c-0.4,0-0.8-0.4-0.9-0.9c0-0.2,0-0.4-0.1-0.6
				c0-0.2,0-0.4,0-0.7c0-1.4,0.3-2.8,0.8-3.9c0.5-1.2,1.3-2.3,2.4-3.3c0.4-0.3,0.8-0.7,1.3-1.1c-0.1,0-0.3,0-0.4,0
				c-1.2,0-2.2-0.4-2.9-1.3c-0.8-0.9-1.2-2-1.2-3.5c0-2.2,0.9-4.1,2.6-5.6c1.6-1.4,3.7-2.1,6.1-2.1c2.6,0,4.7,0.7,6.3,2
				c1.7,1.4,2.6,3.4,2.6,5.8c0,1.8-0.6,3.4-1.7,4.7c-0.3,0.4-0.7,0.7-1.1,1H46c0.5,0,0.9,0.5,0.9,1c0,0.2,0,0.3,0,0.5
				c0,0.2,0,0.4,0,0.8c0,2.5-0.5,4.4-1.6,5.7C44.3,601.9,42.7,602.5,40.6,602.5L40.6,602.5z M38.7,594.8c0.4,0.1,0.7,0.1,1.2,0.2
				c1.3,0.3,1.7,0.3,1.8,0.3c0.2,0,0.5,0,0.6-0.2c0.1-0.1,0.2-0.4,0.2-1.5c0-0.1,0-0.2,0-0.3c-0.7,0.4-1.4,0.7-2.2,0.9
				c-0.2,0.1-0.6,0.2-1.1,0.3C39.1,594.7,38.9,594.7,38.7,594.8L38.7,594.8z M35,584.5c0.3,0.1,0.5,0.3,0.8,0.6
				c0.6,0.6,0.9,1.5,0.9,2.5c0,0.8-0.2,1.5-0.6,2.1c0.4-0.2,0.6-0.4,0.8-0.5c1-0.7,1.5-1.2,1.7-1.5c0.2-0.4,0.3-0.8,0.3-1.3
				c0-0.6-0.2-1-0.6-1.4c-0.5-0.4-1.2-0.7-2.1-0.7C35.8,584.3,35.3,584.3,35,584.5L35,584.5z M19.9,602.5c-2.6,0-4.8-1.1-6.5-3.2
				c-1.7-2.1-2.5-5-2.5-8.5c0-3.5,0.8-6.4,2.5-8.5c1.7-2.2,3.8-3.2,6.5-3.2c2.6,0,4.8,1.1,6.5,3.2c1.7,2.2,2.5,5,2.5,8.5
				c0,3.5-0.8,6.4-2.5,8.5C24.7,601.4,22.5,602.5,19.9,602.5L19.9,602.5z M19.9,584.2c-0.7,0-1.2,0.4-1.5,1.2
				c-0.3,0.7-0.6,2.2-0.6,5.4c0,3.2,0.3,4.7,0.6,5.4c0.3,0.8,0.8,1.2,1.5,1.2c0.7,0,1.2-0.4,1.5-1.2c0.3-0.7,0.6-2.2,0.6-5.4
				c0-3.2-0.3-4.7-0.6-5.4C21.1,584.5,20.6,584.2,19.9,584.2L19.9,584.2z"/>
			<path class="st1" d="M29.8,600.8c0-0.1,0-0.3,0-0.4c0-0.1,0-0.4,0-0.7c0-1.2,0.2-2.4,0.7-3.4c0.5-1,1.2-2,2.2-3
				c0.7-0.7,1.8-1.4,3.3-2.4c0.7-0.4,1.2-0.7,1.5-0.9c0.9-0.6,1.6-1.2,1.9-1.8c0.3-0.6,0.5-1.2,0.5-2c0-0.9-0.3-1.7-1-2.3
				c-0.7-0.6-1.5-0.9-2.6-0.9c-0.9,0-1.6,0.2-2.2,0.6c-0.6,0.4-1,0.9-1.3,1.7c0.2,0,0.3-0.1,0.5-0.1c0.2,0,0.3,0,0.4,0
				c0.6,0,1.1,0.2,1.5,0.6c0.4,0.4,0.6,1,0.6,1.6c0,0.8-0.3,1.4-0.8,1.9c-0.5,0.5-1.2,0.8-2,0.8c-1,0-1.7-0.3-2.3-1
				c-0.6-0.7-0.9-1.5-0.9-2.7c0-1.8,0.7-3.4,2.2-4.6c1.5-1.2,3.4-1.9,5.6-1.9c2.4,0,4.4,0.6,5.8,1.8c1.4,1.2,2.2,2.8,2.2,4.8
				c0,1.5-0.5,2.8-1.4,3.9c-0.9,1.1-2.3,1.9-4.1,2.5c-0.3,0.1-0.6,0.2-1.1,0.3c-3,1-4.9,2.1-5.7,3.3c0.6-0.4,1.2-0.6,1.8-0.8
				c0.6-0.2,1.3-0.3,1.9-0.3c0.7,0,1.6,0.1,2.6,0.4c1,0.2,1.7,0.4,2,0.4c0.6,0,1.1-0.2,1.3-0.6c0.3-0.4,0.4-1.1,0.4-2.2H46
				c0,0.2,0,0.3,0,0.5c0,0.2,0,0.4,0,0.7c0,2.2-0.4,3.8-1.3,4.9c-0.9,1.1-2.2,1.6-4.1,1.6c-0.9,0-2-0.3-3.3-0.9
				c-0.2-0.1-0.4-0.2-0.5-0.2c-0.7-0.3-1.2-0.5-1.6-0.6c-0.4-0.1-0.8-0.2-1.1-0.2c-0.4,0-0.8,0.1-1.1,0.3c-0.3,0.2-0.5,0.5-0.7,1
				H29.8z M11.8,590.8c0-3.2,0.8-5.8,2.2-7.7c1.5-1.9,3.5-2.9,5.9-2.9c2.4,0,4.4,1,5.9,2.9c1.5,1.9,2.2,4.5,2.2,7.7
				c0,3.2-0.8,5.8-2.2,7.7c-1.5,1.9-3.5,2.9-5.9,2.9c-2.4,0-4.4-1-5.9-2.9C12.5,596.5,11.8,594,11.8,590.8z M17,590.8
				c0,2.7,0.2,4.7,0.7,5.9c0.5,1.2,1.2,1.8,2.2,1.8c1,0,1.8-0.6,2.2-1.8c0.5-1.2,0.7-3.2,0.7-5.9c0-2.7-0.2-4.7-0.7-5.9
				c-0.5-1.2-1.2-1.8-2.2-1.8c-1,0-1.8,0.6-2.2,1.8C17.2,586.1,17,588,17,590.8z"/>
			<path class="st12" d="M18,597.8l-0.3,0.4c-0.2-0.3-0.4-0.7-0.6-1.1c-0.5-1.3-0.8-3.4-0.8-6.3c0-2.9,0.3-4.9,0.8-6.3
				c0.6-1.5,1.5-2.3,2.8-2.3c0.9,0,1.6,0.4,2.1,1.1l-0.3,0.4c-0.5-0.6-1.1-0.9-1.8-0.9c-1.1,0-1.9,0.7-2.4,2c-0.5,1.3-0.7,3.2-0.7,6
				c0,2.8,0.2,4.8,0.7,6C17.6,597.2,17.8,597.5,18,597.8z M25.7,583.3l-0.3,0.4c1.3,1.8,2,4.1,2,7c0,2.9-0.7,5.3-2.1,7.1
				c-1.4,1.8-3.2,2.7-5.5,2.7c-2.2,0-4.1-0.9-5.4-2.7v0l-0.3,0.4c0,0,0,0,0,0c1.4,1.9,3.4,2.8,5.7,2.8c2.4,0,4.3-1,5.7-2.8
				c1.4-1.9,2.2-4.4,2.2-7.5C27.8,587.7,27.1,585.2,25.7,583.3z M45.8,594.2c0-0.1,0-0.1,0-0.2l-0.4,0.6c0,0.1,0,0.2,0,0.4
				c0,2-0.4,3.4-1.1,4.3c-0.8,0.9-2,1.3-3.6,1.3c-0.8,0-1.9-0.3-3.1-0.8l-0.5-0.2c-0.7-0.3-1.3-0.5-1.7-0.6
				c-0.5-0.1-0.9-0.2-1.2-0.2c-0.5,0-1,0.1-1.4,0.4c-0.3,0.2-0.5,0.5-0.8,0.9h-1.5l-0.4,0.6h2.2c0.2-0.4,0.4-0.7,0.7-0.9
				c0.3-0.2,0.7-0.4,1.2-0.4c0.3,0,0.7,0.1,1.1,0.2c0.4,0.1,1,0.3,1.7,0.6l0.5,0.2c1.3,0.6,2.4,0.9,3.2,0.9c1.8,0,3.1-0.5,3.9-1.5
				c0.8-1,1.3-2.6,1.3-4.7C45.8,594.6,45.8,594.3,45.8,594.2z M30.8,589.1c0.5,0.6,1.3,0.9,2.2,0.9c0.7,0,1.3-0.3,1.8-0.7
				c0.5-0.5,0.7-1,0.7-1.7c0-0.6-0.2-1-0.5-1.4l-0.3,0.4c0,0,0,0,0,0c0.2,0.3,0.4,0.6,0.4,1c0,0.5-0.2,0.9-0.5,1.3
				c-0.4,0.4-0.9,0.6-1.6,0.6c-0.8,0-1.4-0.3-1.9-0.8L30.8,589.1C30.8,589.1,30.8,589.1,30.8,589.1z M44.1,583.8
				C44.1,583.8,44.1,583.8,44.1,583.8c0.6,0.9,0.9,1.9,0.9,3c0,1.3-0.4,2.4-1.2,3.3c-0.8,1-2.1,1.7-3.8,2.3
				c-0.3,0.1-0.6,0.2-1.1,0.3c-3.2,1-5.1,2.2-6.1,3.6c-0.2,0.3-0.2,0.7,0,1.1l0.4-0.3c-0.1-0.1-0.1-0.2,0-0.3
				c0.9-1.3,2.8-2.4,5.8-3.4c0.5-0.1,0.8-0.2,1.1-0.3c1.8-0.6,3.1-1.4,4-2.4c0.9-1,1.3-2.3,1.3-3.7c0-1.3-0.3-2.5-1-3.4L44.1,583.8z
				 M39.2,583.3c-0.8-0.7-1.8-1-3-1c-1,0-1.9,0.2-2.5,0.7c-0.7,0.5-1.3,1.2-1.6,2.1c-0.1,0.3-0.1,0.6,0.1,0.9l0.4-0.3
				c0-0.1-0.1-0.2,0-0.3c0.3-0.8,0.8-1.4,1.4-1.8c0.6-0.4,1.4-0.6,2.3-0.6c1.1,0,2,0.3,2.7,0.9L39.2,583.3
				C39.2,583.4,39.2,583.3,39.2,583.3z"/>
		</g>
	</g>
	<g>
		<path id="Path_1554_2_" class="st10" d="M172,299.2c0,6.7-5.4,12.1-12.1,12.1c-6.7,0-12.1-5.4-12.1-12.1c0-6.7,5.4-12.1,12.1-12.1
			C166.6,287.1,172,292.6,172,299.2z"/>
		<g id="Group_1434_2_" transform="translate(4.574 4.222)">
			<g id="arrow_2_" transform="translate(4.574 0)">
				<path id="arrow-2_2_" class="st0" d="M150.9,302.3c-0.3,0-0.7-0.1-0.9-0.4l-5.3-5.1c-0.5-0.5-0.5-1.2-0.1-1.7
					c0,0,0.1-0.1,0.1-0.1c0.5-0.5,1.3-0.5,1.8,0c0,0,0,0,0,0l4.4,4.2l4.4-4.2c0.5-0.5,1.3-0.5,1.8,0c0,0,0,0,0,0
					c0.5,0.5,0.5,1.2,0.1,1.7c0,0,0,0.1-0.1,0.1l-5.3,5.1C151.6,302.2,151.2,302.3,150.9,302.3z"/>
			</g>
			<path id="Path_1968_2_" class="st11" d="M155.3,299.5v-10.8"/>
		</g>
	</g>
	<g>
		<g>
			<rect x="37.9" y="135.2" class="st4" width="266" height="128.1"/>
			<text transform="matrix(1 0 0 1 37.9186 148.8717)"><tspan x="0" y="0" class="st5 st17 st18 st19">	</tspan><tspan x="30" y="0" class="st5 st17 st18">RAR Development</tspan><tspan x="0" y="30" class="st22 st23 st18">•</tspan><tspan x="8.5" y="30" class="st5 st17 st18 st24">	</tspan><tspan x="30" y="30" class="st5 st17 st18">FedRAMP PMO Review of RAR</tspan><tspan x="0" y="60" class="st22 st23 st18">•</tspan><tspan x="8.5" y="60" class="st5 st17 st18 st24">	</tspan><tspan x="30" y="60" class="st5 st17 st18">Remediation (if needed)</tspan><tspan x="0" y="90" class="st5 st17 st18 st19">	</tspan><tspan x="30" y="90" class="st5 st17 st18">FedRAMP Marketplace </tspan><tspan x="30" y="110" class="st5 st17 st18">Designation – Ready</tspan></text>
		</g>
		<g>
			<text transform="matrix(1 0 0 1 25.1896 94.8467)" class="st1 st20 st21">Readiness Assessment</text>
		</g>
		<text transform="matrix(1 0 0 1 25.1903 115.1838)" class="st5 st6 st7">(Optional, but highly recommended)</text>
		<line class="st9" x1="42.1" y1="143.3" x2="42.1" y2="239"/>
		<g>
			<g>
				<circle class="st1" cx="42.1" cy="143.3" r="12.1"/>
			</g>
			<g>
				<path class="st0" d="M44.6,140.1c-0.3,0-0.6-0.3-0.6-0.6v-4h-6.2c-0.9,0-1.6,0.7-1.6,1.6v12.6c0,0.9,0.7,1.6,1.6,1.6H47
					c0.9,0,1.6-0.7,1.6-1.6v-9.6H44.6z"/>
			</g>
			<path class="st12" d="M44.6,140.1h4l-4.6-4.6v4C44,139.8,44.3,140,44.6,140.1z"/>
			<polygon class="st3" points="48.6,143.3 48.6,140.1 44.6,140.1 			"/>
		</g>
		<g>
			<g id="g56755_5_" transform="matrix(14,0,0,14,49637.042,519374.88)">
				<path id="path56757_5_" class="st15" d="M-3541.6-37081.2c0,0.5-0.4,0.9-0.9,0.9l0,0c-0.5,0-0.9-0.4-0.9-0.9l0,0
					c0-0.5,0.4-0.9,0.9-0.9l0,0C-3542-37082-3541.6-37081.6-3541.6-37081.2L-3541.6-37081.2z"/>
			</g>
			<path id="path53460_5_" class="st16" d="M47.8,232.9c-3.4,1.6-5.1,5-6.7,8l-2.3-2.3c-1.2,0.9-2.4,1.5-3.5,2.2l9.5,9.5
				c5.3-1.2,9.1-5.7,9.4-11.1L47.8,232.9z"/>
			<path id="path38606_5_" class="st0" d="M38.8,238.7c0.7,0.9,1.2,2,1.8,3.3c1.7-3.3,3.5-7.2,7.2-9c-0.4,1.5-0.6,3.4-0.1,5
				c-3.1,1.6-5.1,4.5-7.1,7.4c-1.9-2.6-3.5-3.5-5.4-4.4C36.4,240.2,37.6,239.5,38.8,238.7L38.8,238.7z"/>
		</g>
	</g>
	<g>
		<g>
			<rect x="37.9" y="367.4" class="st4" width="259.3" height="128.1"/>
			<text transform="matrix(1 0 0 1 37.9184 381.1335)"><tspan x="0" y="0" class="st22 st23 st18">•</tspan><tspan x="8.5" y="0" class="st5 st17 st18 st24">	</tspan><tspan x="30" y="0" class="st5 st17 st18">Partnership Establishment</tspan><tspan x="0" y="30" class="st22 st23 st18">•</tspan><tspan x="8.5" y="30" class="st5 st17 st18 st24">	</tspan><tspan x="30" y="30" class="st5 st17 st18">Authorization Planning</tspan><tspan x="0" y="60" class="st22 st23 st18">•</tspan><tspan x="8.5" y="60" class="st5 st17 st18 st24">	</tspan><tspan x="30" y="60" class="st5 st17 st18">Kick-off Meeting</tspan><tspan x="0" y="90" class="st5 st17 st18 st19">	</tspan><tspan x="30" y="90" class="st5 st17 st18">FedRAMP Marketplace </tspan><tspan x="30" y="110" class="st5 st17 st18">Designation – In Process</tspan></text>
		</g>
		<g>
			<text transform="matrix(1 0 0 1 25.1901 350.5398)" class="st1 st20 st21">Pre-Authorization</text>
		</g>
		<line class="st9" x1="42.1" y1="374.8" x2="42.1" y2="448.6"/>
		<g>
			<path class="st13" d="M54.9,470.1c0-1.5,0-1.6,0-3.1l-2.8-1c-0.4-0.9-0.6-1.4-0.9-2.3l1.3-2.7c-1.1-1.1-1.1-1.1-2.2-2.2l-2.7,1.2
				c-0.9-0.4-1.4-0.6-2.2-1l-1-2.8c-1.5,0-1.6,0-3.1,0l-1,2.8c-0.9,0.4-1.4,0.6-2.3,0.9l-2.7-1.3c-1.1,1.1-1.1,1.1-2.2,2.2l1.2,2.7
				c-0.4,0.9-0.6,1.4-1,2.2l-2.8,1c0,1.5,0,1.6,0,3.1l2.8,1c0.4,0.9,0.6,1.4,0.9,2.3l-1.3,2.7c1.1,1.1,1.1,1.1,2.2,2.2l2.7-1.2
				c0.9,0.4,1.4,0.6,2.2,1l1,2.8c1.5,0,1.6,0,3.1,0l1-2.8c0.9-0.4,1.4-0.6,2.3-0.9l2.7,1.3c1.1-1.1,1.1-1.1,2.2-2.2l-1.2-2.7
				c0.4-0.9,0.6-1.4,1-2.2L54.9,470.1z M42.8,473.1c-2.6,0-4.7-2.1-4.7-4.7c0-2.6,2.1-4.7,4.7-4.7c2.6,0,4.7,2.1,4.7,4.7
				C47.5,471,45.4,473.1,42.8,473.1z"/>
			<path class="st15" d="M53.4,469c0-1.5,0-1.6,0-3.1l-2.8-1c-0.4-0.9-0.6-1.4-0.9-2.3l1.3-2.7c-1.1-1.1-1.1-1.1-2.2-2.2l-2.7,1.2
				c-0.9-0.4-1.4-0.6-2.2-1l-1-2.8c-1.5,0-1.6,0-3.1,0l-1,2.8c-0.9,0.4-1.4,0.6-2.3,0.9l-2.7-1.3c-1.1,1.1-1.1,1.1-2.2,2.2l1.2,2.7
				c-0.4,0.9-0.6,1.4-1,2.2l-2.8,1c0,1.5,0,1.6,0,3.1l2.8,1c0.4,0.9,0.6,1.4,0.9,2.3l-1.3,2.7c1.1,1.1,1.1,1.1,2.2,2.2l2.7-1.2
				c0.9,0.4,1.4,0.6,2.2,1l1,2.8c1.5,0,1.6,0,3.1,0l1-2.8c0.9-0.4,1.4-0.6,2.3-0.9l2.7,1.3c1.1-1.1,1.1-1.1,2.2-2.2l-1.2-2.7
				c0.4-0.9,0.6-1.4,1-2.2L53.4,469z M41.4,472.1c-2.6,0-4.7-2.1-4.7-4.7c0-2.6,2.1-4.7,4.7-4.7c2.6,0,4.7,2.1,4.7,4.7
				C46.1,470,44,472.1,41.4,472.1z"/>
		</g>
	</g>
	<g>
		<path id="Path_7616_1_" class="st1" d="M296.2,46.5H58.3V0h237.9l10.2,23.3L296.2,46.5z"/>
		<rect x="1.4" y="0" class="st3" width="56.9" height="46.5"/>
		<text transform="matrix(1 0 0 1 73.0497 29.728)" class="st0 st25 st21">Preparation</text>
		<g>
			<path class="st0" d="M22.4,35c-2.6,0-4.8-1.1-6.5-3.2c-1.7-2.1-2.5-5-2.5-8.5c0-3.5,0.8-6.4,2.5-8.5c1.7-2.2,3.8-3.2,6.5-3.2
				c2.6,0,4.8,1.1,6.5,3.2c1.7,2.2,2.5,5,2.5,8.5c0,3.5-0.8,6.4-2.5,8.5C27.2,33.9,25,35,22.4,35L22.4,35z M22.4,16.7
				c-0.7,0-1.2,0.4-1.5,1.2c-0.3,0.7-0.6,2.2-0.6,5.4c0,3.2,0.3,4.7,0.6,5.4c0.3,0.8,0.8,1.2,1.5,1.2c0.7,0,1.2-0.4,1.5-1.2
				c0.3-0.7,0.6-2.2,0.6-5.4c0-3.2-0.3-4.7-0.6-5.4C23.6,17,23.1,16.7,22.4,16.7L22.4,16.7z M44.9,35c0.5,0,0.9-0.5,0.9-1.2v-2.9
				c0-0.7-0.4-1.2-0.9-1.2h-1.2c-1.2,0-1.3-0.6-1.3-1.3V12.7c0-0.7-0.4-1.2-0.9-1.2h-3.9c-0.4,0-0.7,0.3-0.8,0.7
				c-0.2,0.7-0.6,1.2-1.2,1.6c-0.7,0.4-1.7,0.6-2.9,0.7c-0.5,0-0.9,0.5-0.9,1.2v2.8c0,0.3,0.1,0.6,0.3,0.8c0.2,0.2,0.4,0.4,0.6,0.4
				h2.7v8.6v0.7c0,0.4,0,0.8-1.3,0.8h-1.4c-0.5,0-0.9,0.5-0.9,1.2v2.9c0,0.7,0.4,1.2,0.9,1.2H44.9L44.9,35z"/>
			<path class="st1" d="M32.6,33.8v-2.9H34c0.9,0,1.5-0.1,1.8-0.3c0.3-0.2,0.4-0.8,0.4-1.7v-0.7v-9.8h-3.6v-2.9
				c1.4,0,2.5-0.3,3.3-0.8c0.8-0.5,1.4-1.2,1.7-2.2h3.9v15.8c0,1.1,0.1,1.8,0.4,2.1c0.2,0.3,0.9,0.4,1.8,0.4h1.2v2.9H32.6z
				 M14.3,23.3c0-3.2,0.8-5.8,2.2-7.7c1.5-1.9,3.5-2.9,5.9-2.9c2.4,0,4.4,1,5.9,2.9c1.5,1.9,2.2,4.5,2.2,7.7c0,3.2-0.8,5.8-2.2,7.7
				c-1.5,1.9-3.5,2.9-5.9,2.9c-2.4,0-4.4-1-5.9-2.9C15,29,14.3,26.5,14.3,23.3z M19.5,23.3c0,2.7,0.2,4.7,0.7,5.9
				c0.5,1.2,1.2,1.8,2.2,1.8c1,0,1.8-0.6,2.2-1.8c0.5-1.2,0.7-3.2,0.7-5.9c0-2.7-0.2-4.7-0.7-5.9c-0.5-1.2-1.2-1.8-2.2-1.8
				c-1,0-1.8,0.6-2.2,1.8C19.7,18.6,19.5,20.5,19.5,23.3z"/>
			<path class="st12" d="M41.7,30.8l-0.3,0.5c-0.4-0.5-0.6-1.3-0.6-2.7V13.6l0.5-0.6v15.5C41.2,29.7,41.4,30.4,41.7,30.8z
				 M36.2,17.6h-2.9l-0.5,0.6h3.3c0.1,0,0.1,0,0.2,0.1l0.3-0.4C36.5,17.7,36.3,17.6,36.2,17.6z M44.2,31.8v1.1H33.3l-0.5,0.6h11.8
				v-2.3L44.2,31.8z M20,29.3c-0.5-1.3-0.7-3.2-0.7-6c0-2.8,0.2-4.8,0.7-6c0.5-1.3,1.3-2,2.4-2c0.8,0,1.4,0.3,1.8,0.9l0.3-0.4
				c-0.6-0.7-1.3-1.1-2.1-1.1c-1.3,0-2.2,0.8-2.8,2.3c-0.5,1.3-0.8,3.4-0.8,6.3c0,2.9,0.2,4.9,0.8,6.3c0.2,0.4,0.4,0.8,0.6,1.1
				l0.3-0.4C20.3,30,20.1,29.7,20,29.3z M28.2,15.8l-0.3,0.4c1.3,1.8,2,4.1,2,7c0,2.9-0.7,5.3-2.1,7.1c-1.4,1.8-3.2,2.7-5.5,2.7
				c-2.2,0-4.1-0.9-5.4-2.7v0l-0.3,0.4c0,0,0,0,0,0c1.4,1.9,3.4,2.8,5.7,2.8c2.4,0,4.3-1,5.7-2.8c1.4-1.9,2.2-4.4,2.2-7.5
				C30.3,20.2,29.6,17.7,28.2,15.8z"/>
		</g>
	</g>
	<g>
		<g>
			<rect x="25.2" y="1393.8" class="st4" width="225.3" height="20"/>
			<text transform="matrix(1 0 0 1 25.1903 1409.1123)" class="st1 st20 st21">Post Authorization</text>
		</g>
		<g>
			<rect x="40" y="1429.4" class="st4" width="239.9" height="68.1"/>
			<text transform="matrix(1 0 0 1 39.964 1443.0836)"><tspan x="0" y="0" class="st5 st17 st18 st19">	</tspan><tspan x="30" y="0" class="st5 st17 st18">Ongoing Continuous </tspan><tspan x="30" y="20" class="st5 st17 st18">Monitoring Deliverables</tspan><tspan x="0" y="50" class="st5 st17 st18 st19">	</tspan><tspan x="30" y="50" class="st5 st17 st18">Annual Assessment</tspan></text>
		</g>
		<line class="st9" x1="42.1" y1="1436.1" x2="42.1" y2="1482.7"/>
		<g>
			<g>
				<circle class="st1" cx="42.1" cy="1438.5" r="12.1"/>
			</g>
			<g>
				<path class="st0" d="M44.6,1435.2c-0.3,0-0.6-0.3-0.6-0.6v-4h-6.2c-0.9,0-1.6,0.7-1.6,1.6v12.6c0,0.9,0.7,1.6,1.6,1.6H47
					c0.9,0,1.6-0.7,1.6-1.6v-9.6H44.6z"/>
			</g>
			<path class="st12" d="M44.6,1435.2h4l-4.6-4.6v4C44,1434.9,44.3,1435.1,44.6,1435.2z"/>
			<polygon class="st3" points="48.6,1438.5 48.6,1435.2 44.6,1435.2 			"/>
		</g>
		<g>
			<g>
				<circle class="st1" cx="42.1" cy="1486" r="12.1"/>
			</g>
			<g>
				<path class="st0" d="M44.6,1482.7c-0.3,0-0.6-0.3-0.6-0.6v-4h-6.2c-0.9,0-1.6,0.7-1.6,1.6v12.6c0,0.9,0.7,1.6,1.6,1.6H47
					c0.9,0,1.6-0.7,1.6-1.6v-9.6H44.6z"/>
			</g>
			<path class="st12" d="M44.6,1482.7h4l-4.6-4.6v4C44,1482.4,44.3,1482.7,44.6,1482.7z"/>
			<polygon class="st3" points="48.6,1486 48.6,1482.7 44.6,1482.7 			"/>
		</g>
	</g>
	<g>
		<rect x="0.5" y="1310.5" class="st3" width="56.9" height="46.5"/>
		<g>
			<polygon class="st1" points="61,1313.9 61,1353.8 248.3,1353.8 248.3,1352.1 248.3,1348.3 260.3,1355.5 248.3,1362.8 
				248.3,1357.1 57.7,1357.1 57.7,1310.5 78.8,1310.5 297.1,1310.5 307.3,1333.9 297.1,1357.1 268.1,1357.1 268.1,1353.8 
				294.6,1353.8 295.1,1352.8 302.6,1334.5 303,1333.9 302.6,1333.2 295.1,1314.9 294.5,1313.9 			"/>
		</g>
		<text transform="matrix(1 0 0 1 74.4821 1340.1688)" class="st1 st25 st26">Continuous Monitoring</text>
		<g>
			<path class="st0" d="M19.2,1346.2c-2.9,0-5.2-1.1-7-3.4c-1.8-2.3-2.7-5.3-2.7-9c0-3.7,0.9-6.7,2.7-9c1.8-2.3,4.2-3.4,7-3.4
				c2.9,0,5.3,1.1,7,3.4c1.8,2.3,2.7,5.3,2.7,9c0,3.7-0.9,6.7-2.7,9C24.4,1345,22,1346.2,19.2,1346.2L19.2,1346.2z M19.2,1326.8
				c-0.8,0-1.3,0.4-1.6,1.3c-0.3,0.8-0.7,2.4-0.7,5.7c0,3.3,0.4,4.9,0.7,5.7c0.3,0.9,0.8,1.3,1.6,1.3c0.8,0,1.3-0.4,1.6-1.3
				c0.3-0.8,0.7-2.4,0.7-5.7c0-3.3-0.3-5-0.6-5.7C20.5,1327.2,20,1326.8,19.2,1326.8L19.2,1326.8z M37.8,1346.2
				c-2.7,0-4.9-0.6-6.5-1.7c-1.8-1.3-2.7-3.1-2.7-5.3c0-1.5,0.4-2.7,1.2-3.6c0.8-0.9,1.9-1.4,3.1-1.4c1.1,0,2,0.4,2.7,1.1
				c0.8,0.8,1.2,1.8,1.2,3c0,1-0.3,1.8-0.8,2.5c0.2,0,0.5,0,0.8,0c1.2,0,2-0.3,2.6-0.8c0.5-0.5,0.7-1.1,0.7-2c0-0.9-0.3-1.3-0.6-1.5
				c-0.4-0.3-1.2-0.6-2.8-0.6c-0.5,0-1-0.5-1-1.2v-2.7c-0.7,0.5-1.5,0.8-2.5,0.8c-1.2,0-2.1-0.4-2.9-1.2c-0.7-0.8-1.1-1.9-1.1-3.3
				c0-2.2,0.9-4,2.6-5.2c1.6-1.2,3.7-1.8,6.3-1.8c2.9,0,5.1,0.5,6.7,1.6c1.8,1.2,2.7,3,2.7,5.3c0,1.5-0.5,2.9-1.4,3.9
				c-0.2,0.3-0.5,0.5-0.7,0.7c0.5,0.3,1,0.7,1.4,1.2c1,1.1,1.6,2.5,1.6,4.2c0,2.6-1,4.7-3,6.1C43.7,1345.6,41.2,1346.2,37.8,1346.2
				L37.8,1346.2z M36.4,1326.6c0.5,0.6,0.7,1.4,0.7,2.2c0,0.6-0.1,1.2-0.3,1.7c1.4-0.1,2.1-0.4,2.4-0.7c0.4-0.3,0.5-0.7,0.5-1.2
				c0-0.6-0.2-1-0.6-1.4c-0.5-0.4-1.3-0.7-2.3-0.7C36.7,1326.6,36.5,1326.6,36.4,1326.6L36.4,1326.6z"/>
			<path class="st1" d="M10.3,1333.8c0-3.4,0.8-6.1,2.4-8.2c1.6-2.1,3.8-3.1,6.4-3.1c2.6,0,4.8,1,6.4,3.1c1.6,2.1,2.4,4.8,2.4,8.2
				c0,3.4-0.8,6.1-2.4,8.1c-1.6,2.1-3.8,3.1-6.4,3.1c-2.6,0-4.8-1-6.4-3.1C11.1,1339.9,10.3,1337.2,10.3,1333.8z M16,1333.8
				c0,2.9,0.3,5,0.8,6.2c0.5,1.3,1.3,1.9,2.4,1.9c1.1,0,1.9-0.6,2.4-1.9c0.5-1.3,0.8-3.4,0.8-6.2c0-2.9-0.3-5-0.7-6.3
				c-0.5-1.3-1.3-1.9-2.4-1.9c-1.1,0-1.9,0.6-2.4,1.9C16.2,1328.8,16,1330.9,16,1333.8z M36.7,1334.7v-2.9c1.3-0.1,2.3-0.4,3-0.9
				c0.7-0.5,1-1.3,1-2.2c0-1-0.4-1.8-1.1-2.4c-0.7-0.6-1.7-0.9-2.9-0.9c-0.7,0-1.3,0.1-1.8,0.3c-0.5,0.2-1,0.5-1.4,0.9h0.3
				c0.7,0,1.2,0.2,1.7,0.6c0.4,0.4,0.6,1,0.6,1.7c0,0.8-0.3,1.5-0.8,2c-0.5,0.5-1.2,0.7-2.1,0.7c-0.9,0-1.7-0.3-2.2-0.9
				c-0.5-0.6-0.8-1.4-0.8-2.4c0-1.8,0.7-3.2,2.1-4.2c1.4-1.1,3.4-1.6,5.8-1.6c2.7,0,4.8,0.5,6.3,1.5c1.5,1,2.2,2.4,2.2,4.2
				c0,1.2-0.4,2.2-1.1,3c-0.7,0.8-1.8,1.3-3.1,1.6c1.7,0.5,2.9,1.1,3.8,2c0.8,0.9,1.2,2,1.2,3.4c0,2.2-0.8,3.9-2.5,5
				c-1.6,1.2-4.1,1.7-7.2,1.7c-2.5,0-4.5-0.5-6-1.6c-1.5-1-2.2-2.5-2.2-4.2c0-1.1,0.3-2,0.9-2.7c0.6-0.7,1.4-1,2.4-1
				c0.8,0,1.5,0.3,2.1,0.8c0.6,0.6,0.8,1.2,0.8,2.1c0,0.8-0.2,1.4-0.7,1.9c-0.5,0.5-1.1,0.7-1.9,0.7c0.5,0.4,1,0.7,1.6,0.9
				c0.6,0.2,1.3,0.3,2,0.3c1.4,0,2.5-0.3,3.2-1c0.7-0.7,1.1-1.7,1.1-2.9c0-1.2-0.4-2-1.1-2.5C39.4,1335,38.3,1334.7,36.7,1334.7z"/>
			<path class="st12" d="M35.1,1328l0.3-0.4c0.3,0.3,0.4,0.7,0.4,1.3c0,0.7-0.2,1.3-0.7,1.8c-0.5,0.5-1.1,0.7-1.9,0.7
				c-0.9,0-1.6-0.3-2.1-0.8l0.4-0.4c0.4,0.4,1,0.6,1.7,0.6c0.7,0,1.2-0.2,1.6-0.6c0.3-0.3,0.5-0.7,0.5-1.3
				C35.4,1328.5,35.3,1328.2,35.1,1328z M45.9,1328.2c0,1-0.3,1.7-0.9,2.4c-0.6,0.7-1.5,1.2-2.7,1.4c-0.3,0.1-0.6,0.4-0.6,0.8
				c0,0.3,0.1,0.5,0.2,0.7l0.3-0.4c-0.1-0.1-0.1-0.1-0.1-0.2c0-0.1,0.1-0.3,0.2-0.3c1.3-0.2,2.3-0.7,2.9-1.5c0.7-0.8,1-1.7,1-2.8
				c0-1.2-0.4-2.2-1.1-3.1l-0.3,0.4C45.6,1326.3,45.9,1327.2,45.9,1328.2z M40.5,1334.7c-0.7-0.5-1.7-0.8-3-0.9l0,0l-0.5,0.6l0,0
				c1.4,0,2.5,0.3,3.3,0.8c0.2,0.1,0.3,0.3,0.5,0.4l0.3-0.4C40.9,1335.1,40.7,1334.9,40.5,1334.7z M35.2,1338.3
				c0,0.5-0.1,0.9-0.4,1.2c-0.3,0.3-0.8,0.5-1.5,0.5c-0.3,0-0.6,0.3-0.7,0.6c-0.1,0.3,0,0.6,0.2,0.9l0.3-0.4c0-0.1-0.1-0.2,0-0.3
				c0-0.1,0.1-0.2,0.2-0.2c0.8,0,1.4-0.2,1.8-0.6c0.4-0.4,0.6-0.9,0.6-1.6c0-0.7-0.2-1.2-0.6-1.7l-0.4,0.4
				C35,1337.4,35.2,1337.8,35.2,1338.3z M46.3,1335.4l-0.3,0.4c0.5,0.7,0.8,1.5,0.8,2.5c0,1.9-0.7,3.3-2.1,4.3
				c-1.5,1.1-3.8,1.6-6.9,1.6c-2.4,0-4.3-0.5-5.6-1.4c-0.4-0.3-0.7-0.6-1-0.9l-0.3,0.4c0.3,0.4,0.6,0.7,1.1,1c1.4,1,3.4,1.5,5.8,1.5
				c3.1,0,5.5-0.6,7.1-1.7c1.6-1.1,2.4-2.7,2.4-4.8C47.2,1337.1,46.9,1336.2,46.3,1335.4z M40.1,1325.5c-0.8-0.7-1.9-1-3.3-1
				c-0.7,0-1.4,0.1-2,0.3c-0.6,0.2-1.2,0.6-1.7,1.1c-0.2,0.2-0.3,0.6-0.2,1c0,0.1,0.1,0.2,0.2,0.3l0.3-0.4c0,0,0-0.1-0.1-0.1
				c0-0.1,0-0.2,0.1-0.3c0.5-0.4,1-0.8,1.5-1c0.5-0.2,1.2-0.3,1.9-0.3c1.3,0,2.3,0.3,3,0.9c0.2,0.1,0.3,0.3,0.4,0.4l0.3-0.4
				C40.4,1325.9,40.3,1325.7,40.1,1325.5z M17.1,1341.2l-0.3,0.4c-0.3-0.3-0.5-0.7-0.7-1.2c-0.6-1.4-0.8-3.6-0.8-6.7
				c0-3.1,0.3-5.2,0.8-6.7c0.6-1.6,1.7-2.4,3.1-2.4c0.9,0,1.7,0.4,2.3,1.2l-0.3,0.4c-0.5-0.6-1.2-1-2-1c-1.2,0-2.1,0.7-2.6,2.1
				c-0.5,1.3-0.8,3.4-0.8,6.4c0,3,0.3,5,0.8,6.4C16.7,1340.6,16.9,1340.9,17.1,1341.2z M25.5,1325.9l-0.3,0.4
				c1.4,1.9,2.1,4.3,2.1,7.4c0,3.1-0.8,5.6-2.2,7.5c-1.5,1.9-3.5,2.8-5.9,2.8c-2.4,0-4.4-0.9-5.9-2.8v0l-0.3,0.4c0,0,0,0,0,0
				c1.6,2,3.7,3,6.2,3c2.6,0,4.7-1,6.3-3c1.6-2,2.4-4.6,2.4-7.9C27.8,1330.5,27,1327.9,25.5,1325.9z"/>
		</g>
	</g>
</g>
</svg>
