<?xml version="1.0" encoding="utf-8"?>
<!-- Generator: Adobe Illustrator 24.2.3, SVG Export Plug-In . SVG Version: 6.00 Build 0)  -->
<svg version="1.1" xmlns="http://www.w3.org/2000/svg" xmlns:xlink="http://www.w3.org/1999/xlink" x="0px" y="0px"
	 viewBox="0 0 450 291.7" style="enable-background:new 0 0 450 291.7;" xml:space="preserve">
<style type="text/css">
	.st0{opacity:0.46;fill:#FFFFFF;enable-background:new    ;}
	.st1{fill:#F1F1F1;}
	.st2{fill:#3E8EB2;}
	.st3{fill:none;}
	.st4{enable-background:new    ;}
	.st5{fill:#4292BD;}
	.st6{fill:#FFFFFF;}
	.st7{fill:#AFD5E2;}
	.st8{opacity:0.46;fill:#4998B8;enable-background:new    ;}
	.st9{opacity:0.6;fill:#3E8EB2;enable-background:new    ;}
	.st10{fill:#444444;}
	.st11{fill:#757575;}
	.st12{opacity:0.55;}
	.st13{fill:#B6322E;}
	.st14{opacity:0.1;enable-background:new    ;}
	.st15{opacity:0.55;fill:#F1F1F1;enable-background:new    ;}
	.st16{opacity:0.55;fill:#3E8EB2;enable-background:new    ;}
</style>
<g id="Layer_6">
</g>
<g id="Shapes">
</g>
<g id="background">
</g>
<g id="text">
</g>
<g id="Graphics">
</g>
<g id="Layer_5">
	<rect x="53.3" class="st0" width="350.6" height="290.9"/>
	<path id="Path_7616_7_" class="st2" d="M384.7,48.5H110.2V11h274.4l8.2,18.8L384.7,48.5z"/>
	<rect x="64.2" y="11" class="st1" width="46" height="37.6"/>
	<g class="st4">
		<path class="st6" d="M132.8,28.4c0,2.2-1.7,3.6-4.3,3.6h-2.3V35h-1.9V24.8h4.2C131.1,24.8,132.8,26.2,132.8,28.4z M130.9,28.4
			c0-1.3-0.9-2-2.5-2h-2.2v4h2.2C130,30.4,130.9,29.7,130.9,28.4z"/>
		<path class="st6" d="M138.9,27.1v1.7c-0.2,0-0.3,0-0.4,0c-1.4,0-2.3,0.8-2.3,2.4V35h-1.8v-7.8h1.7v1.1
			C136.7,27.5,137.6,27.1,138.9,27.1z"/>
		<path class="st6" d="M147.7,31.7h-6.1c0.2,1.1,1.2,1.9,2.5,1.9c0.9,0,1.6-0.3,2.1-0.8l1,1.1c-0.7,0.8-1.8,1.3-3.1,1.3
			c-2.6,0-4.3-1.7-4.3-4c0-2.3,1.7-4,4-4c2.3,0,3.9,1.6,3.9,4C147.7,31.3,147.7,31.5,147.7,31.7z M141.6,30.5h4.4
			c-0.1-1.1-1-1.9-2.2-1.9C142.6,28.6,141.7,29.3,141.6,30.5z"/>
		<path class="st6" d="M157.7,31.1c0,2.4-1.7,4-3.9,4c-1,0-1.9-0.3-2.5-1v3.8h-1.8V27.2h1.7v1c0.6-0.7,1.5-1.1,2.6-1.1
			C156,27.1,157.7,28.7,157.7,31.1z M155.8,31.1c0-1.5-1-2.4-2.3-2.4c-1.3,0-2.3,0.9-2.3,2.4c0,1.5,1,2.4,2.3,2.4
			C154.9,33.5,155.8,32.6,155.8,31.1z"/>
		<path class="st6" d="M165.8,30.4V35h-1.7V34c-0.4,0.7-1.3,1-2.4,1c-1.8,0-2.9-1-2.9-2.3c0-1.3,0.9-2.3,3.2-2.3h2v-0.1
			c0-1.1-0.6-1.7-1.9-1.7c-0.9,0-1.8,0.3-2.4,0.8l-0.7-1.3c0.8-0.6,2-1,3.3-1C164.5,27.1,165.8,28.2,165.8,30.4z M164,32.5v-0.9
			h-1.9c-1.2,0-1.6,0.5-1.6,1c0,0.7,0.6,1.1,1.5,1.1C162.9,33.8,163.7,33.3,164,32.5z"/>
		<path class="st6" d="M172.6,27.1v1.7c-0.2,0-0.3,0-0.4,0c-1.4,0-2.3,0.8-2.3,2.4V35h-1.8v-7.8h1.7v1.1
			C170.4,27.5,171.3,27.1,172.6,27.1z"/>
		<path class="st6" d="M180.6,30.4V35h-1.7V34c-0.4,0.7-1.3,1-2.4,1c-1.8,0-2.9-1-2.9-2.3c0-1.3,0.9-2.3,3.2-2.3h2v-0.1
			c0-1.1-0.6-1.7-1.9-1.7c-0.9,0-1.8,0.3-2.4,0.8l-0.7-1.3c0.8-0.6,2-1,3.3-1C179.3,27.1,180.6,28.2,180.6,30.4z M178.8,32.5v-0.9
			h-1.9c-1.2,0-1.6,0.5-1.6,1c0,0.7,0.6,1.1,1.5,1.1C177.7,33.8,178.5,33.3,178.8,32.5z"/>
		<path class="st6" d="M187.6,34.6c-0.4,0.3-1.1,0.5-1.7,0.5c-1.7,0-2.7-0.9-2.7-2.6v-3.7h-1.3v-1.5h1.3v-1.8h1.8v1.8h2.1v1.5H185
			v3.7c0,0.8,0.4,1.2,1.1,1.2c0.4,0,0.7-0.1,1-0.3L187.6,34.6z"/>
		<path class="st6" d="M188.9,24.8c0-0.6,0.5-1.1,1.2-1.1s1.2,0.5,1.2,1c0,0.6-0.5,1.1-1.2,1.1C189.4,25.9,188.9,25.4,188.9,24.8z
			 M189.1,27.2h1.8V35h-1.8V27.2z"/>
		<path class="st6" d="M192.7,31.1c0-2.3,1.7-4,4.1-4c2.4,0,4.1,1.6,4.1,4s-1.7,4-4.1,4C194.4,35.1,192.7,33.4,192.7,31.1z
			 M199.1,31.1c0-1.5-1-2.4-2.3-2.4c-1.3,0-2.3,0.9-2.3,2.4c0,1.5,1,2.4,2.3,2.4C198.1,33.5,199.1,32.6,199.1,31.1z"/>
		<path class="st6" d="M210.4,30.5V35h-1.8v-4.2c0-1.4-0.7-2.1-1.8-2.1c-1.3,0-2.2,0.8-2.2,2.3V35h-1.8v-7.8h1.7v1
			c0.6-0.7,1.5-1.1,2.7-1.1C209,27.1,210.4,28.2,210.4,30.5z"/>
	</g>
	<g>
		<path id="Path_1554_5_" class="st11" d="M235.8,266.7c0,5.2-4.2,9.5-9.5,9.5c-5.2,0-9.5-4.2-9.5-9.5s4.2-9.5,9.5-9.5
			C231.6,257.2,235.8,261.5,235.8,266.7z"/>
		<g id="Group_1434_5_" transform="translate(4.574 4.222)">
			<g id="arrow_5_" transform="translate(4.574 0)">
				<path id="arrow-2_5_" class="st6" d="M217.3,268.2c-0.2,0-0.5-0.1-0.7-0.3l-4.2-4c-0.4-0.3-0.4-1-0.1-1.3c0,0,0-0.1,0.1-0.1
					c0.4-0.4,1.1-0.4,1.4,0l0,0l3.4,3.3l3.4-3.3c0.4-0.4,1.1-0.4,1.4,0l0,0c0.4,0.3,0.4,1,0.1,1.3c0,0,0,0-0.1,0.1l-4.2,4
					C217.8,268.1,217.6,268.2,217.3,268.2z"/>
			</g>
			<path class="st6" d="M221.8,267c-0.6,0-1-0.4-1-1v-8.4c0-0.6,0.4-1,1-1s1,0.4,1,1v8.4C222.8,266.5,222.4,267,221.8,267z"/>
		</g>
	</g>
	<g>
		<path class="st6" d="M81.2,39.2c-2.2,0-3.9-0.9-5.2-2.6c-1.3-1.7-2-4.1-2-6.9c0-2.8,0.7-5.2,2-6.9c1.3-1.7,3.1-2.6,5.2-2.6
			s3.9,0.9,5.2,2.6c1.3,1.7,2,4.1,2,6.9c0,2.8-0.7,5.2-2,6.9C85.1,38.3,83.3,39.2,81.2,39.2L81.2,39.2z M81.2,24.4
			c-0.6,0-0.9,0.3-1.2,1c-0.2,0.6-0.5,1.8-0.5,4.3c0,2.6,0.2,3.7,0.5,4.3c0.2,0.7,0.6,1,1.2,1c0.6,0,0.9-0.3,1.2-1
			c0.2-0.6,0.5-1.8,0.5-4.3c0-2.6-0.2-3.8-0.5-4.4C82.2,24.7,81.8,24.4,81.2,24.4L81.2,24.4z M99.4,39.2c0.4,0,0.7-0.4,0.7-0.9V36
			c0-0.5-0.3-1-0.7-1h-1c-1,0-1-0.5-1-1V21.2c0-0.5-0.3-1-0.7-1h-3.2c-0.3,0-0.6,0.2-0.7,0.6c-0.2,0.6-0.5,1-1,1.2
			c-0.6,0.3-1.3,0.5-2.3,0.5c-0.4,0-0.7,0.4-0.7,0.9v2.3c0,0.2,0.1,0.5,0.2,0.7c0.2,0.2,0.3,0.2,0.5,0.2h2.2v6.9v0.5
			c0,0.3,0,0.7-1.1,0.7h-1.1c-0.4,0-0.7,0.4-0.7,1v2.5c0,0.5,0.3,0.9,0.7,0.9L99.4,39.2L99.4,39.2z"/>
		<path class="st2" d="M89.4,38.2v-2.3h1.1c0.7,0,1.2-0.1,1.4-0.2c0.2-0.2,0.3-0.7,0.3-1.4v-0.5v-7.9h-2.9v-2.3c1.1,0,2-0.2,2.7-0.6
			c0.7-0.4,1.2-1,1.4-1.7h3.2v12.7c0,0.9,0.1,1.5,0.2,1.7c0.2,0.2,0.7,0.3,1.5,0.3h1v2.3H89.4z M74.7,29.8c0-2.6,0.6-4.7,1.8-6.2
			c1.2-1.6,2.8-2.3,4.7-2.3c2,0,3.6,0.7,4.7,2.3c1.2,1.6,1.8,3.7,1.8,6.2S87.2,34.4,86,36s-2.8,2.3-4.7,2.3c-2,0-3.6-0.7-4.7-2.3
			C75.3,34.4,74.7,32.3,74.7,29.8z M78.8,29.8c0,2.2,0.2,3.8,0.6,4.7c0.3,1,1,1.5,1.8,1.5c0.8,0,1.4-0.5,1.8-1.5
			c0.4-1,0.6-2.6,0.6-4.7c0-2.2-0.2-3.8-0.6-4.7c-0.3-1-1-1.5-1.8-1.5c-0.8,0-1.4,0.5-1.8,1.5C79,25.9,78.8,27.5,78.8,29.8z"/>
		<path class="st7" d="M96.8,35.8l-0.2,0.3c-0.3-0.3-0.5-1.1-0.5-2.2v-12l0.3-0.5V34C96.4,35,96.5,35.6,96.8,35.8z M92.3,25.2H90
			l-0.3,0.5h2.7c0.1,0,0.1,0,0.2,0.1l0.2-0.3C92.6,25.3,92.5,25.2,92.3,25.2z M98.8,36.7v0.9H90l-0.3,0.5h9.6v-1.8L98.8,36.7z
			 M79.2,34.6c-0.4-1-0.6-2.6-0.6-4.9c0-2.2,0.2-3.8,0.6-4.9s1.1-1.6,2-1.6c0.6,0,1.1,0.2,1.5,0.7l0.2-0.3c-0.4-0.6-1-0.9-1.7-0.9
			c-1,0-1.8,0.7-2.2,1.8c-0.4,1.1-0.6,2.7-0.6,5.1s0.2,4,0.6,5.1c0.2,0.3,0.3,0.7,0.5,0.9l0.2-0.3C79.5,35.2,79.3,34.9,79.2,34.6z
			 M85.9,23.8l-0.2,0.3c1.1,1.4,1.6,3.3,1.6,5.7c0,2.4-0.6,4.3-1.7,5.7c-1.1,1.4-2.6,2.2-4.4,2.2s-3.3-0.7-4.4-2.2l0,0l-0.2,0.3l0,0
			c1.2,1.5,2.7,2.2,4.7,2.2s3.5-0.7,4.7-2.3c1.2-1.5,1.7-3.6,1.7-6.1C87.6,27.3,87.1,25.3,85.9,23.8z"/>
	</g>
	<g class="st12">
		<rect x="73.3" y="63.5" class="st1" width="310.4" height="184.1"/>
		<g>
			<rect x="100.3" y="128.7" class="st3" width="275.5" height="100.2"/>
			<g class="st4">
				<path class="st10" d="M131.8,139.5H131l-1.1-3c-0.1-0.4-0.3-0.7-0.6-0.8s-0.6-0.2-1.1-0.2h-2.5v4H125v-8.9h3.4
					c0.9,0,1.6,0.2,2.2,0.6c0.5,0.4,0.8,1,0.8,1.8c0,0.6-0.2,1.1-0.5,1.5c-0.3,0.4-0.7,0.7-1.3,0.8c0.3,0,0.5,0.1,0.7,0.3
					c0.2,0.2,0.3,0.4,0.5,0.8L131.8,139.5z M128.4,134.8c1.5,0,2.2-0.6,2.2-1.8c0-1.2-0.7-1.8-2.2-1.8h-2.6v3.6H128.4z"/>
				<path class="st10" d="M139.3,137.1h-4.8l-1,2.4h-0.8l3.9-8.9h0.7l3.9,8.9h-0.8L139.3,137.1z M139,136.4l-2.1-4.9l-2.1,4.9H139z"
					/>
				<path class="st10" d="M149.5,139.5h-0.8l-1.1-3c-0.1-0.4-0.3-0.7-0.6-0.8s-0.6-0.2-1.1-0.2h-2.5v4h-0.8v-8.9h3.4
					c0.9,0,1.6,0.2,2.2,0.6c0.5,0.4,0.8,1,0.8,1.8c0,0.6-0.2,1.1-0.5,1.5c-0.3,0.4-0.7,0.7-1.3,0.8c0.3,0,0.5,0.1,0.7,0.3
					c0.2,0.2,0.3,0.4,0.5,0.8L149.5,139.5z M146,134.8c1.5,0,2.2-0.6,2.2-1.8c0-1.2-0.7-1.8-2.2-1.8h-2.6v3.6H146z"/>
				<path class="st10" d="M154.4,130.6h2.9c1.4,0,2.5,0.4,3.3,1.2c0.8,0.8,1.2,1.9,1.2,3.3s-0.4,2.5-1.2,3.3s-1.9,1.2-3.3,1.2h-2.9
					V130.6z M157.3,138.8c1.2,0,2.1-0.3,2.7-1c0.6-0.6,0.9-1.6,0.9-2.8c0-2.5-1.2-3.8-3.6-3.8h-2.1v7.6H157.3z"/>
				<path class="st10" d="M164,136.3L164,136.3c0,0.9,0.2,1.5,0.6,2c0.4,0.4,1,0.7,1.7,0.7c0.8,0,1.4-0.3,2.1-0.8l0.3,0.6
					c-0.3,0.3-0.6,0.5-1.1,0.6c-0.4,0.2-0.9,0.2-1.3,0.2c-1,0-1.7-0.3-2.3-0.9c-0.6-0.6-0.8-1.4-0.8-2.4c0-0.6,0.1-1.2,0.4-1.7
					c0.2-0.5,0.6-0.9,1-1.2c0.4-0.3,1-0.4,1.5-0.4c0.8,0,1.5,0.3,1.9,0.8c0.5,0.5,0.7,1.3,0.7,2.2v0.2H164z M164.7,134.2
					c-0.4,0.3-0.6,0.8-0.7,1.5h4c0-0.6-0.2-1.1-0.6-1.5c-0.3-0.3-0.8-0.5-1.3-0.5C165.5,133.7,165.1,133.9,164.7,134.2z"/>
				<path class="st10" d="M175.6,133.2l-2.7,6.3h-0.8l-2.7-6.3h0.8l2.3,5.5l2.3-5.5H175.6z"/>
				<path class="st10" d="M177.2,136.3L177.2,136.3c0,0.9,0.2,1.5,0.6,2c0.4,0.4,1,0.7,1.7,0.7c0.8,0,1.4-0.3,2.1-0.8l0.3,0.6
					c-0.3,0.3-0.6,0.5-1.1,0.6c-0.4,0.2-0.9,0.2-1.3,0.2c-1,0-1.7-0.3-2.3-0.9c-0.6-0.6-0.8-1.4-0.8-2.4c0-0.6,0.1-1.2,0.4-1.7
					c0.2-0.5,0.6-0.9,1-1.2c0.4-0.3,1-0.4,1.5-0.4c0.8,0,1.5,0.3,1.9,0.8c0.5,0.5,0.7,1.3,0.7,2.2v0.2H177.2z M178,134.2
					c-0.4,0.3-0.6,0.8-0.7,1.5h4c0-0.6-0.2-1.1-0.6-1.5c-0.3-0.3-0.8-0.5-1.3-0.5C178.8,133.7,178.3,133.9,178,134.2z"/>
				<path class="st10" d="M183.6,130.3h0.8v9.2h-0.8V130.3z"/>
				<path class="st10" d="M187.5,139.2c-0.4-0.3-0.8-0.6-1-1.1c-0.2-0.5-0.4-1.1-0.4-1.7s0.1-1.2,0.4-1.7c0.2-0.5,0.6-0.9,1-1.1
					s0.9-0.4,1.5-0.4c0.6,0,1.1,0.1,1.5,0.4s0.8,0.6,1,1.1c0.2,0.5,0.4,1.1,0.4,1.7s-0.1,1.2-0.4,1.7c-0.2,0.5-0.6,0.9-1,1.1
					c-0.4,0.3-0.9,0.4-1.5,0.4C188.4,139.6,187.9,139.4,187.5,139.2z M190.5,138.2c0.4-0.4,0.5-1.1,0.5-1.9c0-0.8-0.2-1.5-0.6-1.9
					c-0.4-0.5-0.9-0.7-1.5-0.7c-0.7,0-1.2,0.2-1.5,0.7s-0.6,1.1-0.6,1.9c0,0.8,0.2,1.5,0.5,1.9c0.4,0.4,0.9,0.7,1.5,0.7
					S190.2,138.7,190.5,138.2z"/>
				<path class="st10" d="M197.9,133.5c0.4,0.3,0.7,0.7,1,1.2c0.2,0.5,0.4,1.1,0.4,1.7c0,0.7-0.1,1.2-0.3,1.7s-0.6,0.9-1,1.1
					c-0.4,0.3-0.9,0.4-1.5,0.4c-0.5,0-1-0.1-1.3-0.3c-0.4-0.2-0.6-0.6-0.8-1v4h-0.8V135c0-0.7,0-1.2-0.1-1.7h0.7l0.1,1.2
					c0.2-0.4,0.5-0.8,0.8-1c0.4-0.2,0.8-0.4,1.4-0.4C197,133.1,197.5,133.2,197.9,133.5z M197.9,138.2c0.4-0.4,0.6-1.1,0.6-1.9
					c0-0.8-0.2-1.5-0.6-1.9c-0.4-0.5-0.9-0.7-1.5-0.7c-0.7,0-1.2,0.2-1.5,0.7c-0.4,0.5-0.5,1.1-0.5,1.9c0,0.8,0.2,1.5,0.5,1.9
					c0.4,0.5,0.9,0.7,1.5,0.7S197.5,138.7,197.9,138.2z"/>
				<path class="st10" d="M209.8,135.5v4H209v-3.9c0-0.6-0.1-1.1-0.3-1.4s-0.6-0.4-1.1-0.4c-0.6,0-1,0.2-1.4,0.6s-0.5,0.9-0.5,1.6
					v3.6H205v-3.9c0-0.6-0.1-1.1-0.3-1.4c-0.2-0.3-0.6-0.4-1.1-0.4c-0.6,0-1,0.2-1.4,0.6c-0.3,0.4-0.5,0.9-0.5,1.6v3.6h-0.8V135
					c0-0.7,0-1.2-0.1-1.7h0.7l0.1,1.1c0.2-0.4,0.4-0.7,0.8-1c0.3-0.2,0.7-0.3,1.2-0.3c1,0,1.7,0.4,1.9,1.2c0.2-0.4,0.4-0.7,0.8-0.9
					s0.8-0.3,1.3-0.3C209.1,133.1,209.8,133.9,209.8,135.5z"/>
				<path class="st10" d="M212.2,136.3L212.2,136.3c0,0.9,0.2,1.5,0.6,2c0.4,0.4,1,0.7,1.7,0.7c0.8,0,1.4-0.3,2.1-0.8l0.3,0.6
					c-0.3,0.3-0.6,0.5-1.1,0.6c-0.4,0.2-0.9,0.2-1.3,0.2c-1,0-1.7-0.3-2.3-0.9c-0.6-0.6-0.8-1.4-0.8-2.4c0-0.6,0.1-1.2,0.4-1.7
					c0.2-0.5,0.6-0.9,1-1.2c0.4-0.3,1-0.4,1.5-0.4c0.8,0,1.5,0.3,1.9,0.8c0.5,0.5,0.7,1.3,0.7,2.2v0.2H212.2z M213,134.2
					c-0.4,0.3-0.6,0.8-0.7,1.5h4c0-0.6-0.2-1.1-0.6-1.5c-0.3-0.3-0.8-0.5-1.3-0.5C213.8,133.7,213.3,133.9,213,134.2z"/>
				<path class="st10" d="M223.8,135.5v4H223v-3.9c0-0.6-0.1-1.1-0.4-1.4c-0.3-0.3-0.7-0.4-1.2-0.4c-0.6,0-1.1,0.2-1.5,0.6
					c-0.4,0.4-0.6,0.9-0.6,1.6v3.6h-0.8V135c0-0.7,0-1.2-0.1-1.7h0.7l0.1,1.2c0.2-0.4,0.5-0.7,0.9-1c0.4-0.2,0.8-0.3,1.3-0.3
					C223.1,133.1,223.8,133.9,223.8,135.5z"/>
				<path class="st10" d="M226.9,133.8v3.7c0,0.5,0.1,0.8,0.3,1c0.2,0.2,0.5,0.3,0.9,0.3c0.2,0,0.5,0,0.7-0.1v0.7
					c-0.3,0.1-0.5,0.1-0.8,0.1c-0.6,0-1-0.2-1.3-0.5c-0.3-0.3-0.5-0.8-0.5-1.4v-3.9h-1.2v-0.6h1.2v-1.7l0.8-0.3v2h1.9v0.6H226.9z"/>
			</g>
			<g class="st4">
				<path class="st2" d="M102.5,161.6c-0.4-0.2-0.6-0.5-0.8-0.8c-0.2-0.3-0.3-0.7-0.3-1.1c0-0.4,0.1-0.7,0.3-1.1
					c0.2-0.3,0.5-0.6,0.8-0.8c0.4-0.2,0.7-0.3,1.2-0.3c0.4,0,0.8,0.1,1.1,0.3c0.4,0.2,0.6,0.5,0.8,0.8c0.2,0.3,0.3,0.7,0.3,1.1
					c0,0.4-0.1,0.8-0.3,1.1c-0.2,0.3-0.5,0.6-0.8,0.8c-0.4,0.2-0.7,0.3-1.1,0.3C103.2,161.9,102.8,161.8,102.5,161.6z"/>
			</g>
			<g class="st4">
				<path class="st2" d="M103.6,162c-0.4,0-0.8-0.1-1.2-0.3c-0.4-0.2-0.7-0.5-0.9-0.9c-0.2-0.4-0.3-0.8-0.3-1.2
					c0-0.4,0.1-0.8,0.3-1.2c0.2-0.4,0.5-0.7,0.9-0.9c0.7-0.4,1.7-0.4,2.4,0c0.4,0.2,0.7,0.5,0.9,0.9c0.2,0.4,0.3,0.8,0.3,1.2
					c0,0.4-0.1,0.8-0.3,1.2c-0.2,0.4-0.5,0.6-0.9,0.9C104.4,161.9,104,162,103.6,162z M103.6,157.5c-0.4,0-0.8,0.1-1.1,0.3
					c-0.3,0.2-0.6,0.5-0.8,0.8c-0.2,0.3-0.3,0.7-0.3,1c0,0.4,0.1,0.7,0.3,1.1c0.2,0.3,0.5,0.6,0.8,0.8c0.7,0.4,1.5,0.4,2.2,0
					c0.3-0.2,0.6-0.4,0.8-0.8c0.2-0.3,0.3-0.7,0.3-1.1c0-0.4-0.1-0.8-0.3-1.1c-0.2-0.3-0.5-0.6-0.8-0.8
					C104.3,157.6,104,157.5,103.6,157.5z"/>
			</g>
			<g class="st4">
				<path class="st10" d="M125,154.1h5.4v0.7h-4.6v3.4h4.3v0.7h-4.3v4.2H125V154.1z"/>
				<path class="st10" d="M132.1,159.8L132.1,159.8c0,0.9,0.2,1.5,0.6,2c0.4,0.4,1,0.7,1.7,0.7c0.8,0,1.4-0.3,2.1-0.8l0.3,0.6
					c-0.3,0.3-0.6,0.5-1.1,0.6c-0.4,0.2-0.9,0.2-1.3,0.2c-1,0-1.7-0.3-2.3-0.9c-0.6-0.6-0.8-1.4-0.8-2.4c0-0.6,0.1-1.2,0.4-1.7
					c0.2-0.5,0.6-0.9,1-1.2c0.4-0.3,1-0.4,1.5-0.4c0.8,0,1.5,0.3,1.9,0.8c0.5,0.5,0.7,1.3,0.7,2.2v0.2H132.1z M132.8,157.7
					c-0.4,0.3-0.6,0.8-0.7,1.5h4c0-0.6-0.2-1.1-0.6-1.5c-0.3-0.3-0.8-0.5-1.3-0.5C133.7,157.2,133.2,157.4,132.8,157.7z"/>
				<path class="st10" d="M143.8,153.8v9.2h-0.8v-1.2c-0.2,0.4-0.5,0.7-0.8,1s-0.8,0.3-1.3,0.3c-0.6,0-1-0.1-1.5-0.4
					c-0.4-0.3-0.8-0.7-1-1.2c-0.2-0.5-0.4-1.1-0.4-1.7s0.1-1.2,0.3-1.7c0.2-0.5,0.6-0.9,1-1.1c0.4-0.3,0.9-0.4,1.5-0.4
					c0.5,0,0.9,0.1,1.3,0.3s0.7,0.5,0.8,1v-4.1H143.8z M142.5,161.7c0.4-0.5,0.5-1.1,0.5-1.9c0-0.8-0.2-1.5-0.5-1.9
					c-0.4-0.5-0.9-0.7-1.5-0.7c-0.7,0-1.2,0.2-1.6,0.7s-0.6,1.1-0.6,1.9c0,0.8,0.2,1.5,0.6,1.9c0.4,0.5,0.9,0.7,1.5,0.7
					C141.7,162.4,142.2,162.2,142.5,161.7z"/>
				<path class="st10" d="M152.9,163h-0.8l-1.1-3c-0.1-0.4-0.3-0.7-0.6-0.8s-0.6-0.2-1.1-0.2h-2.5v4H146v-8.9h3.4
					c0.9,0,1.6,0.2,2.2,0.6c0.5,0.4,0.8,1,0.8,1.8c0,0.6-0.2,1.1-0.5,1.5c-0.3,0.4-0.7,0.7-1.3,0.8c0.3,0,0.5,0.1,0.7,0.3
					c0.2,0.2,0.3,0.4,0.5,0.8L152.9,163z M149.4,158.4c1.5,0,2.2-0.6,2.2-1.8c0-1.2-0.7-1.8-2.2-1.8h-2.6v3.6H149.4z"/>
				<path class="st10" d="M160.4,160.6h-4.8l-1,2.4h-0.8l3.9-8.9h0.7l3.9,8.9h-0.8L160.4,160.6z M160.1,160L158,155l-2.1,4.9H160.1z
					"/>
				<path class="st10" d="M172,154.1v8.9h-0.7v-7.1l-3.1,7.1h-0.6l-3.2-7.1l0,7.1h-0.7v-8.9h0.6l3.5,8l3.5-8H172z"/>
				<path class="st10" d="M174.3,154.1h3.4c0.9,0,1.6,0.2,2.1,0.7c0.5,0.4,0.8,1,0.8,1.8c0,0.8-0.3,1.4-0.8,1.8
					c-0.5,0.4-1.2,0.7-2.1,0.7h-2.7v4h-0.8V154.1z M177.7,158.3c0.7,0,1.2-0.2,1.6-0.5c0.4-0.3,0.5-0.8,0.5-1.3c0-0.6-0.2-1-0.5-1.3
					c-0.4-0.3-0.9-0.5-1.6-0.5h-2.6v3.6H177.7z"/>
				<path class="st10" d="M185.6,154.1h3.4c0.9,0,1.6,0.2,2.1,0.7c0.5,0.4,0.8,1,0.8,1.8c0,0.8-0.3,1.4-0.8,1.8
					c-0.5,0.4-1.2,0.7-2.1,0.7h-2.7v4h-0.8V154.1z M189,158.3c0.7,0,1.2-0.2,1.6-0.5c0.4-0.3,0.5-0.8,0.5-1.3c0-0.6-0.2-1-0.5-1.3
					c-0.4-0.3-0.9-0.5-1.6-0.5h-2.6v3.6H189z"/>
				<path class="st10" d="M202,154.1v8.9h-0.7v-7.1l-3.1,7.1h-0.6l-3.2-7.1l0,7.1h-0.7v-8.9h0.6l3.5,8l3.5-8H202z"/>
				<path class="st10" d="M205.8,162.6c-0.6-0.4-1.1-0.9-1.4-1.6c-0.3-0.7-0.5-1.5-0.5-2.4c0-0.9,0.2-1.7,0.5-2.4
					c0.3-0.7,0.8-1.2,1.4-1.6c0.6-0.4,1.3-0.6,2.1-0.6s1.5,0.2,2.1,0.6c0.6,0.4,1.1,0.9,1.4,1.6c0.3,0.7,0.5,1.5,0.5,2.4
					c0,0.9-0.2,1.7-0.5,2.4c-0.3,0.7-0.8,1.2-1.4,1.6c-0.6,0.4-1.3,0.6-2.1,0.6C207.1,163.1,206.4,162.9,205.8,162.6z M210.2,161.4
					c0.6-0.7,0.8-1.6,0.8-2.9c0-1.2-0.3-2.2-0.8-2.9s-1.3-1-2.3-1c-1,0-1.8,0.3-2.3,1c-0.6,0.7-0.8,1.6-0.8,2.8s0.3,2.2,0.8,2.9
					c0.6,0.7,1.3,1,2.3,1C208.9,162.4,209.7,162.1,210.2,161.4z"/>
				<path class="st10" d="M223.9,163h-0.8l-1.1-3c-0.1-0.4-0.3-0.7-0.6-0.8s-0.6-0.2-1.1-0.2h-2.5v4H217v-8.9h3.4
					c0.9,0,1.6,0.2,2.2,0.6c0.5,0.4,0.8,1,0.8,1.8c0,0.6-0.2,1.1-0.5,1.5c-0.3,0.4-0.7,0.7-1.3,0.8c0.3,0,0.5,0.1,0.7,0.3
					c0.2,0.2,0.3,0.4,0.5,0.8L223.9,163z M220.4,158.4c1.5,0,2.2-0.6,2.2-1.8c0-1.2-0.7-1.8-2.2-1.8h-2.6v3.6H220.4z"/>
				<path class="st10" d="M226,159.8L226,159.8c0,0.9,0.2,1.5,0.6,2c0.4,0.4,1,0.7,1.7,0.7c0.8,0,1.4-0.3,2.1-0.8l0.3,0.6
					c-0.3,0.3-0.6,0.5-1.1,0.6c-0.4,0.2-0.9,0.2-1.3,0.2c-1,0-1.7-0.3-2.3-0.9c-0.6-0.6-0.8-1.4-0.8-2.4c0-0.6,0.1-1.2,0.4-1.7
					c0.2-0.5,0.6-0.9,1-1.2c0.4-0.3,1-0.4,1.5-0.4c0.8,0,1.5,0.3,1.9,0.8c0.5,0.5,0.7,1.3,0.7,2.2v0.2H226z M226.7,157.7
					c-0.4,0.3-0.6,0.8-0.7,1.5h4c0-0.6-0.2-1.1-0.6-1.5c-0.3-0.3-0.8-0.5-1.3-0.5C227.5,157.2,227,157.4,226.7,157.7z"/>
				<path class="st10" d="M237.6,156.7l-2.7,6.3h-0.8l-2.7-6.3h0.8l2.3,5.5l2.3-5.5H237.6z"/>
				<path class="st10" d="M239.8,154.1v1h-1v-1H239.8z M238.9,156.7h0.8v6.3h-0.8V156.7z"/>
				<path class="st10" d="M242.1,159.8L242.1,159.8c0,0.9,0.2,1.5,0.6,2c0.4,0.4,1,0.7,1.7,0.7c0.8,0,1.4-0.3,2.1-0.8l0.3,0.6
					c-0.3,0.3-0.6,0.5-1.1,0.6c-0.4,0.2-0.9,0.2-1.3,0.2c-1,0-1.7-0.3-2.3-0.9c-0.6-0.6-0.8-1.4-0.8-2.4c0-0.6,0.1-1.2,0.4-1.7
					c0.2-0.5,0.6-0.9,1-1.2c0.4-0.3,1-0.4,1.5-0.4c0.8,0,1.5,0.3,1.9,0.8c0.5,0.5,0.7,1.3,0.7,2.2v0.2H242.1z M242.9,157.7
					c-0.4,0.3-0.6,0.8-0.7,1.5h4c0-0.6-0.2-1.1-0.6-1.5c-0.3-0.3-0.8-0.5-1.3-0.5C243.7,157.2,243.2,157.4,242.9,157.7z"/>
				<path class="st10" d="M257.8,156.7l-2.3,6.3h-0.8l-1.9-5.3l-1.9,5.3h-0.8l-2.3-6.3h0.8l1.9,5.4l2-5.4h0.8l1.9,5.4l1.9-5.4H257.8
					z"/>
				<path class="st10" d="M263.4,162.7c-0.4-0.3-0.8-0.6-1-1.1c-0.2-0.5-0.4-1.1-0.4-1.7s0.1-1.2,0.4-1.7c0.2-0.5,0.6-0.9,1-1.1
					s0.9-0.4,1.5-0.4c0.6,0,1.1,0.1,1.5,0.4s0.8,0.6,1,1.1c0.2,0.5,0.4,1.1,0.4,1.7s-0.1,1.2-0.4,1.7c-0.2,0.5-0.6,0.9-1,1.1
					c-0.4,0.3-0.9,0.4-1.5,0.4C264.4,163.1,263.9,163,263.4,162.7z M266.5,161.8c0.4-0.4,0.5-1.1,0.5-1.9c0-0.8-0.2-1.5-0.6-1.9
					c-0.4-0.5-0.9-0.7-1.5-0.7c-0.7,0-1.2,0.2-1.5,0.7s-0.6,1.1-0.6,1.9c0,0.8,0.2,1.5,0.5,1.9c0.4,0.4,0.9,0.7,1.5,0.7
					S266.1,162.2,266.5,161.8z"/>
				<path class="st10" d="M270.9,154.7c-0.2,0.2-0.3,0.5-0.3,1v1h1.6v0.6h-1.6v5.7h-0.8v-5.7h-1.2v-0.6h1.2v-1.1
					c0-0.6,0.2-1.1,0.5-1.4c0.3-0.3,0.7-0.5,1.3-0.5c0.3,0,0.5,0,0.8,0.1v0.7c-0.2-0.1-0.4-0.1-0.6-0.1
					C271.3,154.4,271,154.5,270.9,154.7z"/>
				<path class="st10" d="M283.7,163h-0.8l-1.1-3c-0.1-0.4-0.3-0.7-0.6-0.8s-0.6-0.2-1.1-0.2h-2.5v4h-0.8v-8.9h3.4
					c0.9,0,1.6,0.2,2.2,0.6c0.5,0.4,0.8,1,0.8,1.8c0,0.6-0.2,1.1-0.5,1.5c-0.3,0.4-0.7,0.7-1.3,0.8c0.3,0,0.5,0.1,0.7,0.3
					c0.2,0.2,0.3,0.4,0.5,0.8L283.7,163z M280.3,158.4c1.5,0,2.2-0.6,2.2-1.8c0-1.2-0.7-1.8-2.2-1.8h-2.6v3.6H280.3z"/>
				<path class="st10" d="M291.2,160.6h-4.8l-1,2.4h-0.8l3.9-8.9h0.7l3.9,8.9h-0.8L291.2,160.6z M290.9,160l-2.1-4.9l-2.1,4.9H290.9
					z"/>
				<path class="st10" d="M301.4,163h-0.8l-1.1-3c-0.1-0.4-0.3-0.7-0.6-0.8s-0.6-0.2-1.1-0.2h-2.5v4h-0.8v-8.9h3.4
					c0.9,0,1.6,0.2,2.2,0.6c0.5,0.4,0.8,1,0.8,1.8c0,0.6-0.2,1.1-0.5,1.5c-0.3,0.4-0.7,0.7-1.3,0.8c0.3,0,0.5,0.1,0.7,0.3
					c0.2,0.2,0.3,0.4,0.5,0.8L301.4,163z M297.9,158.4c1.5,0,2.2-0.6,2.2-1.8c0-1.2-0.7-1.8-2.2-1.8h-2.6v3.6H297.9z"/>
			</g>
			<g class="st4">
				<path class="st2" d="M102.5,185c-0.4-0.2-0.6-0.5-0.8-0.8c-0.2-0.3-0.3-0.7-0.3-1.1c0-0.4,0.1-0.7,0.3-1.1
					c0.2-0.3,0.5-0.6,0.8-0.8c0.4-0.2,0.7-0.3,1.2-0.3c0.4,0,0.8,0.1,1.1,0.3c0.4,0.2,0.6,0.5,0.8,0.8c0.2,0.3,0.3,0.7,0.3,1.1
					c0,0.4-0.1,0.8-0.3,1.1c-0.2,0.3-0.5,0.6-0.8,0.8c-0.4,0.2-0.7,0.3-1.1,0.3C103.2,185.3,102.8,185.2,102.5,185z"/>
			</g>
			<g class="st4">
				<path class="st2" d="M103.6,185.5c-0.4,0-0.8-0.1-1.2-0.3c-0.4-0.2-0.7-0.5-0.9-0.9c-0.2-0.4-0.3-0.8-0.3-1.2
					c0-0.4,0.1-0.8,0.3-1.2c0.2-0.4,0.5-0.7,0.9-0.9c0.7-0.4,1.7-0.4,2.4,0c0.4,0.2,0.7,0.5,0.9,0.9c0.2,0.4,0.3,0.8,0.3,1.2
					c0,0.4-0.1,0.8-0.3,1.2c-0.2,0.4-0.5,0.6-0.9,0.9C104.4,185.4,104,185.5,103.6,185.5z M103.6,181c-0.4,0-0.8,0.1-1.1,0.3
					c-0.3,0.2-0.6,0.5-0.8,0.8c-0.2,0.3-0.3,0.7-0.3,1c0,0.4,0.1,0.7,0.3,1.1c0.2,0.3,0.5,0.6,0.8,0.8c0.7,0.4,1.5,0.4,2.2,0
					c0.3-0.2,0.6-0.4,0.8-0.8c0.2-0.3,0.3-0.7,0.3-1.1c0-0.4-0.1-0.8-0.3-1.1c-0.2-0.3-0.5-0.6-0.8-0.8
					C104.3,181.1,104,181,103.6,181z"/>
			</g>
			<g class="st4">
				<path class="st10" d="M131.8,186.5H131l-1.1-3c-0.1-0.4-0.3-0.7-0.6-0.8s-0.6-0.2-1.1-0.2h-2.5v4H125v-8.9h3.4
					c0.9,0,1.6,0.2,2.2,0.6c0.5,0.4,0.8,1,0.8,1.8c0,0.6-0.2,1.1-0.5,1.5c-0.3,0.4-0.7,0.7-1.3,0.8c0.3,0,0.5,0.1,0.7,0.3
					c0.2,0.2,0.3,0.4,0.5,0.8L131.8,186.5z M128.4,181.8c1.5,0,2.2-0.6,2.2-1.8c0-1.2-0.7-1.8-2.2-1.8h-2.6v3.6H128.4z"/>
				<path class="st10" d="M133.9,183.2L133.9,183.2c0,0.9,0.2,1.5,0.6,2c0.4,0.4,1,0.7,1.7,0.7c0.8,0,1.4-0.3,2.1-0.8l0.3,0.6
					c-0.3,0.3-0.6,0.5-1.1,0.6c-0.4,0.2-0.9,0.2-1.3,0.2c-1,0-1.7-0.3-2.3-0.9c-0.6-0.6-0.8-1.4-0.8-2.4c0-0.6,0.1-1.2,0.4-1.7
					c0.2-0.5,0.6-0.9,1-1.2c0.4-0.3,1-0.4,1.5-0.4c0.8,0,1.5,0.3,1.9,0.8c0.5,0.5,0.7,1.3,0.7,2.2v0.2H133.9z M134.6,181.2
					c-0.4,0.3-0.6,0.8-0.7,1.5h4c0-0.6-0.2-1.1-0.6-1.5c-0.3-0.3-0.8-0.5-1.3-0.5C135.4,180.7,135,180.8,134.6,181.2z"/>
				<path class="st10" d="M149.1,182.5v4h-0.8v-3.9c0-0.6-0.1-1.1-0.3-1.4s-0.6-0.4-1.1-0.4c-0.6,0-1,0.2-1.4,0.6s-0.5,0.9-0.5,1.6
					v3.6h-0.8v-3.9c0-0.6-0.1-1.1-0.3-1.4c-0.2-0.3-0.6-0.4-1.1-0.4c-0.6,0-1,0.2-1.4,0.6c-0.3,0.4-0.5,0.9-0.5,1.6v3.6h-0.8v-4.5
					c0-0.7,0-1.2-0.1-1.7h0.7l0.1,1.1c0.2-0.4,0.4-0.7,0.8-1c0.3-0.2,0.7-0.3,1.2-0.3c1,0,1.7,0.4,1.9,1.2c0.2-0.4,0.4-0.7,0.8-0.9
					s0.8-0.3,1.3-0.3C148.4,180,149.1,180.8,149.1,182.5z"/>
				<path class="st10" d="M151.6,183.2L151.6,183.2c0,0.9,0.2,1.5,0.6,2c0.4,0.4,1,0.7,1.7,0.7c0.8,0,1.4-0.3,2.1-0.8l0.3,0.6
					c-0.3,0.3-0.6,0.5-1.1,0.6c-0.4,0.2-0.9,0.2-1.3,0.2c-1,0-1.7-0.3-2.3-0.9c-0.6-0.6-0.8-1.4-0.8-2.4c0-0.6,0.1-1.2,0.4-1.7
					c0.2-0.5,0.6-0.9,1-1.2c0.4-0.3,1-0.4,1.5-0.4c0.8,0,1.5,0.3,1.9,0.8c0.5,0.5,0.7,1.3,0.7,2.2v0.2H151.6z M152.3,181.2
					c-0.4,0.3-0.6,0.8-0.7,1.5h4c0-0.6-0.2-1.1-0.6-1.5c-0.3-0.3-0.8-0.5-1.3-0.5C153.1,180.7,152.6,180.8,152.3,181.2z"/>
				<path class="st10" d="M163.3,177.2v9.2h-0.8v-1.2c-0.2,0.4-0.5,0.7-0.8,1s-0.8,0.3-1.3,0.3c-0.6,0-1-0.1-1.5-0.4
					c-0.4-0.3-0.8-0.7-1-1.2c-0.2-0.5-0.4-1.1-0.4-1.7s0.1-1.2,0.3-1.7c0.2-0.5,0.6-0.9,1-1.1c0.4-0.3,0.9-0.4,1.5-0.4
					c0.5,0,0.9,0.1,1.3,0.3s0.7,0.5,0.8,1v-4.1H163.3z M162,185.2c0.4-0.5,0.5-1.1,0.5-1.9c0-0.8-0.2-1.5-0.5-1.9
					c-0.4-0.5-0.9-0.7-1.5-0.7c-0.7,0-1.2,0.2-1.6,0.7s-0.6,1.1-0.6,1.9c0,0.8,0.2,1.5,0.6,1.9c0.4,0.5,0.9,0.7,1.5,0.7
					C161.1,185.9,161.6,185.6,162,185.2z"/>
				<path class="st10" d="M166.3,177.6v1h-1v-1H166.3z M165.4,180.2h0.8v6.3h-0.8V180.2z"/>
				<path class="st10" d="M173.5,180.2v6.3h-0.8v-1.2c-0.2,0.4-0.5,0.7-0.8,1s-0.8,0.3-1.3,0.3c-0.6,0-1.1-0.1-1.5-0.4
					c-0.4-0.3-0.7-0.6-1-1.1c-0.2-0.5-0.3-1.1-0.3-1.7c0-0.7,0.1-1.2,0.4-1.7c0.2-0.5,0.6-0.9,1-1.2c0.4-0.3,0.9-0.4,1.5-0.4
					c0.5,0,0.9,0.1,1.3,0.3s0.7,0.5,0.8,1v-1.1H173.5z M172.2,185.2c0.4-0.5,0.5-1.1,0.5-1.9c0-0.8-0.2-1.5-0.5-1.9
					c-0.4-0.5-0.9-0.7-1.5-0.7c-0.7,0-1.2,0.2-1.5,0.7c-0.4,0.5-0.6,1.1-0.6,1.9c0,0.8,0.2,1.4,0.6,1.9s0.9,0.7,1.6,0.7
					C171.4,185.9,171.9,185.6,172.2,185.2z"/>
				<path class="st10" d="M176.7,180.8v3.7c0,0.5,0.1,0.8,0.3,1c0.2,0.2,0.5,0.3,0.9,0.3c0.2,0,0.5,0,0.7-0.1v0.7
					c-0.3,0.1-0.5,0.1-0.8,0.1c-0.6,0-1-0.2-1.3-0.5c-0.3-0.3-0.5-0.8-0.5-1.4v-3.9h-1.2v-0.6h1.2v-1.7l0.8-0.3v2h1.9v0.6H176.7z"/>
				<path class="st10" d="M180.7,177.6v1h-1v-1H180.7z M179.8,180.2h0.8v6.3h-0.8V180.2z"/>
				<path class="st10" d="M183.7,186.1c-0.4-0.3-0.8-0.6-1-1.1c-0.2-0.5-0.4-1.1-0.4-1.7s0.1-1.2,0.4-1.7c0.2-0.5,0.6-0.9,1-1.1
					s0.9-0.4,1.5-0.4c0.6,0,1.1,0.1,1.5,0.4s0.8,0.6,1,1.1c0.2,0.5,0.4,1.1,0.4,1.7s-0.1,1.2-0.4,1.7c-0.2,0.5-0.6,0.9-1,1.1
					c-0.4,0.3-0.9,0.4-1.5,0.4C184.6,186.5,184.1,186.4,183.7,186.1z M186.7,185.2c0.4-0.4,0.5-1.1,0.5-1.9c0-0.8-0.2-1.5-0.6-1.9
					c-0.4-0.5-0.9-0.7-1.5-0.7c-0.7,0-1.2,0.2-1.5,0.7s-0.6,1.1-0.6,1.9c0,0.8,0.2,1.5,0.5,1.9c0.4,0.4,0.9,0.7,1.5,0.7
					S186.4,185.6,186.7,185.2z"/>
				<path class="st10" d="M194.9,182.5v4h-0.8v-3.9c0-0.6-0.1-1.1-0.4-1.4c-0.3-0.3-0.7-0.4-1.2-0.4c-0.6,0-1.1,0.2-1.5,0.6
					c-0.4,0.4-0.6,0.9-0.6,1.6v3.6h-0.8v-4.5c0-0.7,0-1.2-0.1-1.7h0.7l0.1,1.2c0.2-0.4,0.5-0.7,0.9-1c0.4-0.2,0.8-0.3,1.3-0.3
					C194.2,180,194.9,180.8,194.9,182.5z"/>
				<path class="st10" d="M200.8,186c-0.2-0.9-0.3-1.9-0.3-2.8c0-1,0.1-1.9,0.3-2.8c0.2-0.9,0.6-1.8,1-2.8h0.7c-0.4,1-0.8,2-0.9,2.9
					s-0.3,1.8-0.3,2.7s0.1,1.8,0.3,2.7s0.5,1.9,0.9,2.9h-0.7C201.3,187.8,201,186.9,200.8,186z"/>
				<path class="st10" d="M204.8,177.6v1h-1v-1H204.8z M203.9,180.2h0.8v6.3h-0.8V180.2z"/>
				<path class="st10" d="M208.1,178.2c-0.2,0.2-0.3,0.5-0.3,1v1h1.6v0.6h-1.6v5.7h-0.8v-5.7h-1.2v-0.6h1.2V179
					c0-0.6,0.2-1.1,0.5-1.4c0.3-0.3,0.7-0.5,1.3-0.5c0.3,0,0.5,0,0.8,0.1v0.7c-0.2-0.1-0.4-0.1-0.6-0.1
					C208.6,177.9,208.3,178,208.1,178.2z"/>
				<path class="st10" d="M219.2,182.5v4h-0.8v-3.9c0-0.6-0.1-1.1-0.4-1.4c-0.3-0.3-0.7-0.4-1.2-0.4c-0.6,0-1.1,0.2-1.5,0.6
					c-0.4,0.4-0.6,0.9-0.6,1.6v3.6H214v-4.5c0-0.7,0-1.2-0.1-1.7h0.7l0.1,1.2c0.2-0.4,0.5-0.7,0.9-1c0.4-0.2,0.8-0.3,1.3-0.3
					C218.5,180,219.2,180.8,219.2,182.5z"/>
				<path class="st10" d="M221.7,183.2L221.7,183.2c0,0.9,0.2,1.5,0.6,2c0.4,0.4,1,0.7,1.7,0.7c0.8,0,1.4-0.3,2.1-0.8l0.3,0.6
					c-0.3,0.3-0.6,0.5-1.1,0.6c-0.4,0.2-0.9,0.2-1.3,0.2c-1,0-1.7-0.3-2.3-0.9c-0.6-0.6-0.8-1.4-0.8-2.4c0-0.6,0.1-1.2,0.4-1.7
					c0.2-0.5,0.6-0.9,1-1.2c0.4-0.3,1-0.4,1.5-0.4c0.8,0,1.5,0.3,1.9,0.8c0.5,0.5,0.7,1.3,0.7,2.2v0.2H221.7z M222.4,181.2
					c-0.4,0.3-0.6,0.8-0.7,1.5h4c0-0.6-0.2-1.1-0.6-1.5c-0.3-0.3-0.8-0.5-1.3-0.5C223.2,180.7,222.8,180.8,222.4,181.2z"/>
				<path class="st10" d="M228.5,183.2L228.5,183.2c0,0.9,0.2,1.5,0.6,2c0.4,0.4,1,0.7,1.7,0.7c0.8,0,1.4-0.3,2.1-0.8l0.3,0.6
					c-0.3,0.3-0.6,0.5-1.1,0.6c-0.4,0.2-0.9,0.2-1.3,0.2c-1,0-1.7-0.3-2.3-0.9c-0.6-0.6-0.8-1.4-0.8-2.4c0-0.6,0.1-1.2,0.4-1.7
					c0.2-0.5,0.6-0.9,1-1.2c0.4-0.3,1-0.4,1.5-0.4c0.8,0,1.5,0.3,1.9,0.8c0.5,0.5,0.7,1.3,0.7,2.2v0.2H228.5z M229.2,181.2
					c-0.4,0.3-0.6,0.8-0.7,1.5h4c0-0.6-0.2-1.1-0.6-1.5c-0.3-0.3-0.8-0.5-1.3-0.5C230,180.7,229.6,180.8,229.2,181.2z"/>
				<path class="st10" d="M240.2,177.2v9.2h-0.8v-1.2c-0.2,0.4-0.5,0.7-0.8,1s-0.8,0.3-1.3,0.3c-0.6,0-1-0.1-1.5-0.4
					c-0.4-0.3-0.8-0.7-1-1.2c-0.2-0.5-0.4-1.1-0.4-1.7s0.1-1.2,0.3-1.7c0.2-0.5,0.6-0.9,1-1.1c0.4-0.3,0.9-0.4,1.5-0.4
					c0.5,0,0.9,0.1,1.3,0.3s0.7,0.5,0.8,1v-4.1H240.2z M238.9,185.2c0.4-0.5,0.5-1.1,0.5-1.9c0-0.8-0.2-1.5-0.5-1.9
					c-0.4-0.5-0.9-0.7-1.5-0.7c-0.7,0-1.2,0.2-1.6,0.7s-0.6,1.1-0.6,1.9c0,0.8,0.2,1.5,0.6,1.9c0.4,0.5,0.9,0.7,1.5,0.7
					C238,185.9,238.5,185.6,238.9,185.2z"/>
				<path class="st10" d="M242.7,183.2L242.7,183.2c0,0.9,0.2,1.5,0.6,2c0.4,0.4,1,0.7,1.7,0.7c0.8,0,1.4-0.3,2.1-0.8l0.3,0.6
					c-0.3,0.3-0.6,0.5-1.1,0.6c-0.4,0.2-0.9,0.2-1.3,0.2c-1,0-1.7-0.3-2.3-0.9c-0.6-0.6-0.8-1.4-0.8-2.4c0-0.6,0.1-1.2,0.4-1.7
					c0.2-0.5,0.6-0.9,1-1.2c0.4-0.3,1-0.4,1.5-0.4c0.8,0,1.5,0.3,1.9,0.8c0.5,0.5,0.7,1.3,0.7,2.2v0.2H242.7z M243.4,181.2
					c-0.4,0.3-0.6,0.8-0.7,1.5h4c0-0.6-0.2-1.1-0.6-1.5c-0.3-0.3-0.8-0.5-1.3-0.5C244.2,180.7,243.8,180.8,243.4,181.2z"/>
				<path class="st10" d="M254.4,177.2v9.2h-0.8v-1.2c-0.2,0.4-0.5,0.7-0.8,1s-0.8,0.3-1.3,0.3c-0.6,0-1-0.1-1.5-0.4
					c-0.4-0.3-0.8-0.7-1-1.2c-0.2-0.5-0.4-1.1-0.4-1.7s0.1-1.2,0.3-1.7c0.2-0.5,0.6-0.9,1-1.1c0.4-0.3,0.9-0.4,1.5-0.4
					c0.5,0,0.9,0.1,1.3,0.3s0.7,0.5,0.8,1v-4.1H254.4z M253.1,185.2c0.4-0.5,0.5-1.1,0.5-1.9c0-0.8-0.2-1.5-0.5-1.9
					c-0.4-0.5-0.9-0.7-1.5-0.7c-0.7,0-1.2,0.2-1.6,0.7s-0.6,1.1-0.6,1.9c0,0.8,0.2,1.5,0.6,1.9c0.4,0.5,0.9,0.7,1.5,0.7
					C252.2,185.9,252.8,185.6,253.1,185.2z"/>
				<path class="st10" d="M255.9,188.7c0.4-1,0.7-2,0.9-2.9c0.2-0.9,0.3-1.8,0.3-2.7c0-0.9-0.1-1.8-0.3-2.7
					c-0.2-0.9-0.5-1.9-0.9-2.9h0.7c0.5,0.9,0.8,1.8,1,2.8c0.2,0.9,0.3,1.9,0.3,2.8c0,1-0.1,1.9-0.3,2.8c-0.2,0.9-0.6,1.8-1,2.8
					H255.9z"/>
			</g>
			<g class="st4">
				<path class="st10" d="M125,201.1h5.4v0.7h-4.6v3.4h4.3v0.7h-4.3v4.2H125V201.1z"/>
				<path class="st10" d="M132.1,206.7L132.1,206.7c0,0.9,0.2,1.5,0.6,2c0.4,0.4,1,0.7,1.7,0.7c0.8,0,1.4-0.3,2.1-0.8l0.3,0.6
					c-0.3,0.3-0.6,0.5-1.1,0.6c-0.4,0.2-0.9,0.2-1.3,0.2c-1,0-1.7-0.3-2.3-0.9c-0.6-0.6-0.8-1.4-0.8-2.4c0-0.6,0.1-1.2,0.4-1.7
					c0.2-0.5,0.6-0.9,1-1.2c0.4-0.3,1-0.4,1.5-0.4c0.8,0,1.5,0.3,1.9,0.8c0.5,0.5,0.7,1.3,0.7,2.2v0.2H132.1z M132.8,204.7
					c-0.4,0.3-0.6,0.8-0.7,1.5h4c0-0.6-0.2-1.1-0.6-1.5s-0.8-0.5-1.3-0.5C133.7,204.2,133.2,204.3,132.8,204.7z"/>
				<path class="st10" d="M143.8,200.8v9.2h-0.8v-1.2c-0.2,0.4-0.5,0.7-0.8,1s-0.8,0.3-1.3,0.3c-0.6,0-1-0.1-1.5-0.4
					c-0.4-0.3-0.8-0.7-1-1.2c-0.2-0.5-0.4-1.1-0.4-1.7s0.1-1.2,0.3-1.7c0.2-0.5,0.6-0.9,1-1.1c0.4-0.3,0.9-0.4,1.5-0.4
					c0.5,0,0.9,0.1,1.3,0.3s0.7,0.5,0.8,1v-4.1H143.8z M142.5,208.7c0.4-0.5,0.5-1.1,0.5-1.9s-0.2-1.5-0.5-1.9
					c-0.4-0.5-0.9-0.7-1.5-0.7c-0.7,0-1.2,0.2-1.6,0.7s-0.6,1.1-0.6,1.9c0,0.8,0.2,1.5,0.6,1.9c0.4,0.5,0.9,0.7,1.5,0.7
					C141.7,209.4,142.2,209.2,142.5,208.7z"/>
				<path class="st10" d="M152.9,210h-0.8l-1.1-3c-0.1-0.4-0.3-0.7-0.6-0.8c-0.3-0.1-0.6-0.2-1.1-0.2h-2.5v4H146v-8.9h3.4
					c0.9,0,1.6,0.2,2.2,0.6c0.5,0.4,0.8,1,0.8,1.8c0,0.6-0.2,1.1-0.5,1.5c-0.3,0.4-0.7,0.7-1.3,0.8c0.3,0,0.5,0.2,0.7,0.3
					c0.2,0.2,0.3,0.4,0.5,0.8L152.9,210z M149.4,205.3c1.5,0,2.2-0.6,2.2-1.8c0-1.2-0.7-1.8-2.2-1.8h-2.6v3.6H149.4z"/>
				<path class="st10" d="M160.4,207.6h-4.8l-1,2.4h-0.8l3.9-8.9h0.7l3.9,8.9h-0.8L160.4,207.6z M160.1,206.9L158,202l-2.1,4.9
					H160.1z"/>
				<path class="st10" d="M172,201.1v8.9h-0.7v-7.1l-3.1,7.1h-0.6l-3.2-7.1l0,7.1h-0.7v-8.9h0.6l3.5,8l3.5-8H172z"/>
				<path class="st10" d="M174.3,201.1h3.4c0.9,0,1.6,0.2,2.1,0.7c0.5,0.4,0.8,1,0.8,1.8c0,0.8-0.3,1.4-0.8,1.8
					c-0.5,0.4-1.2,0.7-2.1,0.7h-2.7v4h-0.8V201.1z M177.7,205.3c0.7,0,1.2-0.2,1.6-0.5c0.4-0.3,0.5-0.8,0.5-1.3c0-0.6-0.2-1-0.5-1.3
					c-0.4-0.3-0.9-0.5-1.6-0.5h-2.6v3.6H177.7z"/>
				<path class="st10" d="M193.9,201.1v8.9h-0.7v-7.1L190,210h-0.6l-3.2-7.1l0,7.1h-0.7v-8.9h0.6l3.5,8l3.5-8H193.9z"/>
				<path class="st10" d="M201.4,203.7v6.3h-0.8v-1.2c-0.2,0.4-0.5,0.7-0.8,1s-0.8,0.3-1.3,0.3c-0.6,0-1.1-0.1-1.5-0.4
					c-0.4-0.3-0.7-0.6-1-1.1c-0.2-0.5-0.3-1.1-0.3-1.7s0.1-1.2,0.4-1.7c0.2-0.5,0.6-0.9,1-1.2c0.4-0.3,0.9-0.4,1.5-0.4
					c0.5,0,0.9,0.1,1.3,0.3s0.7,0.5,0.8,1v-1.1H201.4z M200.1,208.7c0.4-0.5,0.5-1.1,0.5-1.9c0-0.8-0.2-1.5-0.5-1.9
					c-0.4-0.5-0.9-0.7-1.5-0.7c-0.7,0-1.2,0.2-1.5,0.7c-0.4,0.5-0.6,1.1-0.6,1.9c0,0.8,0.2,1.4,0.6,1.9c0.4,0.4,0.9,0.7,1.6,0.7
					C199.2,209.4,199.8,209.2,200.1,208.7z"/>
				<path class="st10" d="M206.8,203.6l0,0.7c-0.2,0-0.4-0.1-0.6-0.1c-0.6,0-1.1,0.2-1.4,0.6c-0.3,0.4-0.5,0.9-0.5,1.4v3.7h-0.8
					v-4.5c0-0.7,0-1.2-0.1-1.7h0.7l0.1,1.2c0.2-0.4,0.4-0.8,0.8-1c0.4-0.2,0.8-0.3,1.2-0.3C206.4,203.5,206.6,203.6,206.8,203.6z"/>
				<path class="st10" d="M212.1,210l-3.5-3.1v3.1h-0.8v-9.2h0.8v5.9l3.2-2.9h1l-3.3,3l3.6,3.3H212.1z"/>
				<path class="st10" d="M214.4,206.7L214.4,206.7c0,0.9,0.2,1.5,0.6,2c0.4,0.4,1,0.7,1.7,0.7c0.8,0,1.4-0.3,2.1-0.8l0.3,0.6
					c-0.3,0.3-0.6,0.5-1.1,0.6c-0.4,0.2-0.9,0.2-1.3,0.2c-1,0-1.7-0.3-2.3-0.9c-0.6-0.6-0.8-1.4-0.8-2.4c0-0.6,0.1-1.2,0.4-1.7
					c0.2-0.5,0.6-0.9,1-1.2c0.4-0.3,1-0.4,1.5-0.4c0.8,0,1.5,0.3,1.9,0.8c0.5,0.5,0.7,1.3,0.7,2.2v0.2H214.4z M215.1,204.7
					c-0.4,0.3-0.6,0.8-0.7,1.5h4c0-0.6-0.2-1.1-0.6-1.5s-0.8-0.5-1.3-0.5C215.9,204.2,215.5,204.3,215.1,204.7z"/>
				<path class="st10" d="M221.8,204.3v3.7c0,0.5,0.1,0.8,0.3,1c0.2,0.2,0.5,0.3,0.9,0.3c0.2,0,0.5,0,0.7-0.1v0.7
					c-0.3,0.1-0.5,0.1-0.8,0.1c-0.6,0-1-0.2-1.3-0.5c-0.3-0.3-0.5-0.8-0.5-1.4v-3.9h-1.2v-0.6h1.2V202l0.8-0.3v2h1.9v0.6H221.8z"/>
				<path class="st10" d="M229.4,204c0.4,0.3,0.7,0.7,1,1.2c0.2,0.5,0.4,1.1,0.4,1.7s-0.1,1.2-0.3,1.7s-0.6,0.9-1,1.1
					c-0.4,0.3-0.9,0.4-1.5,0.4c-0.5,0-1-0.1-1.3-0.3s-0.6-0.6-0.8-1v4H225v-7.2c0-0.7,0-1.2-0.1-1.7h0.7l0.1,1.2
					c0.2-0.4,0.5-0.8,0.8-1c0.4-0.2,0.8-0.4,1.4-0.4C228.5,203.5,229,203.7,229.4,204z M229.4,208.7c0.4-0.4,0.6-1.1,0.6-1.9
					c0-0.8-0.2-1.5-0.6-1.9c-0.4-0.5-0.9-0.7-1.5-0.7c-0.7,0-1.2,0.2-1.5,0.7c-0.4,0.5-0.5,1.1-0.5,1.9c0,0.8,0.2,1.5,0.5,1.9
					c0.4,0.5,0.9,0.7,1.5,0.7S229,209.2,229.4,208.7z"/>
				<path class="st10" d="M232.4,200.8h0.8v9.2h-0.8V200.8z"/>
				<path class="st10" d="M240.6,203.7v6.3h-0.8v-1.2c-0.2,0.4-0.5,0.7-0.8,1s-0.8,0.3-1.3,0.3c-0.6,0-1.1-0.1-1.5-0.4
					c-0.4-0.3-0.7-0.6-1-1.1c-0.2-0.5-0.3-1.1-0.3-1.7s0.1-1.2,0.4-1.7c0.2-0.5,0.6-0.9,1-1.2c0.4-0.3,0.9-0.4,1.5-0.4
					c0.5,0,0.9,0.1,1.3,0.3s0.7,0.5,0.8,1v-1.1H240.6z M239.3,208.7c0.4-0.5,0.5-1.1,0.5-1.9c0-0.8-0.2-1.5-0.5-1.9
					c-0.4-0.5-0.9-0.7-1.5-0.7c-0.7,0-1.2,0.2-1.5,0.7c-0.4,0.5-0.6,1.1-0.6,1.9c0,0.8,0.2,1.4,0.6,1.9c0.4,0.4,0.9,0.7,1.6,0.7
					C238.4,209.4,238.9,209.2,239.3,208.7z"/>
				<path class="st10" d="M243.6,209.7c-0.4-0.3-0.8-0.6-1-1.1c-0.2-0.5-0.4-1.1-0.4-1.7c0-0.7,0.1-1.2,0.4-1.7
					c0.2-0.5,0.6-0.9,1-1.2c0.5-0.3,1-0.4,1.6-0.4c0.4,0,0.8,0.1,1.2,0.2s0.7,0.3,1,0.6l-0.3,0.6c-0.3-0.3-0.6-0.5-0.9-0.6
					c-0.3-0.1-0.6-0.2-0.9-0.2c-0.7,0-1.2,0.2-1.6,0.7c-0.4,0.5-0.6,1.1-0.6,1.9c0,0.8,0.2,1.4,0.6,1.9c0.4,0.5,0.9,0.7,1.6,0.7
					c0.3,0,0.6-0.1,0.9-0.2c0.3-0.1,0.6-0.3,0.9-0.6l0.3,0.6c-0.3,0.3-0.6,0.5-1,0.6s-0.8,0.2-1.2,0.2
					C244.6,210.1,244.1,209.9,243.6,209.7z"/>
				<path class="st10" d="M249.2,206.7L249.2,206.7c0,0.9,0.2,1.5,0.6,2c0.4,0.4,1,0.7,1.7,0.7c0.8,0,1.4-0.3,2.1-0.8l0.3,0.6
					c-0.3,0.3-0.6,0.5-1.1,0.6c-0.4,0.2-0.9,0.2-1.3,0.2c-1,0-1.7-0.3-2.3-0.9c-0.6-0.6-0.8-1.4-0.8-2.4c0-0.6,0.1-1.2,0.4-1.7
					c0.2-0.5,0.6-0.9,1-1.2c0.4-0.3,1-0.4,1.5-0.4c0.8,0,1.5,0.3,1.9,0.8c0.5,0.5,0.7,1.3,0.7,2.2v0.2H249.2z M249.9,204.7
					c-0.4,0.3-0.6,0.8-0.7,1.5h4c0-0.6-0.2-1.1-0.6-1.5s-0.8-0.5-1.3-0.5C250.7,204.2,250.3,204.3,249.9,204.7z"/>
				<path class="st10" d="M258.9,201.1h2.9c1.4,0,2.5,0.4,3.3,1.2c0.8,0.8,1.2,1.9,1.2,3.3c0,1.4-0.4,2.5-1.2,3.3s-1.9,1.2-3.3,1.2
					h-2.9V201.1z M261.7,209.3c1.2,0,2.1-0.3,2.7-1c0.6-0.6,0.9-1.6,0.9-2.8c0-2.5-1.2-3.8-3.6-3.8h-2.1v7.6H261.7z"/>
				<path class="st10" d="M268.4,206.7L268.4,206.7c0,0.9,0.2,1.5,0.6,2c0.4,0.4,1,0.7,1.7,0.7c0.8,0,1.4-0.3,2.1-0.8l0.3,0.6
					c-0.3,0.3-0.6,0.5-1.1,0.6c-0.4,0.2-0.9,0.2-1.3,0.2c-1,0-1.7-0.3-2.3-0.9c-0.6-0.6-0.8-1.4-0.8-2.4c0-0.6,0.1-1.2,0.4-1.7
					c0.2-0.5,0.6-0.9,1-1.2c0.4-0.3,1-0.4,1.5-0.4c0.8,0,1.5,0.3,1.9,0.8c0.5,0.5,0.7,1.3,0.7,2.2v0.2H268.4z M269.2,204.7
					c-0.4,0.3-0.6,0.8-0.7,1.5h4c0-0.6-0.2-1.1-0.6-1.5s-0.8-0.5-1.3-0.5C270,204.2,269.5,204.3,269.2,204.7z"/>
				<path class="st10" d="M274.5,209.2l0.3-0.6c0.3,0.3,0.7,0.5,1,0.6c0.3,0.1,0.7,0.2,1.2,0.2c0.5,0,0.9-0.1,1.2-0.3
					c0.3-0.2,0.4-0.4,0.4-0.8c0-0.3-0.1-0.5-0.3-0.7c-0.2-0.2-0.5-0.3-0.9-0.4l-1.1-0.2c-0.5-0.1-0.9-0.3-1.2-0.6s-0.4-0.7-0.4-1.1
					c0-0.6,0.2-1,0.6-1.3c0.4-0.3,1-0.5,1.7-0.5c0.4,0,0.9,0.1,1.2,0.2s0.7,0.3,0.9,0.6l-0.3,0.6c-0.6-0.5-1.2-0.8-1.9-0.8
					c-0.5,0-0.9,0.1-1.1,0.3c-0.3,0.2-0.4,0.5-0.4,0.8c0,0.3,0.1,0.5,0.3,0.7c0.2,0.2,0.4,0.3,0.8,0.4l1.1,0.3
					c1.1,0.2,1.7,0.8,1.7,1.7c0,0.5-0.2,1-0.7,1.3c-0.4,0.3-1,0.5-1.8,0.5C275.9,210.1,275.1,209.8,274.5,209.2z"/>
				<path class="st10" d="M281.9,201.1v1h-1v-1H281.9z M281,203.7h0.8v6.3H281V203.7z"/>
				<path class="st10" d="M289.3,203.7v6.3c0,0.9-0.2,1.6-0.7,2.1s-1.1,0.7-2,0.7c-0.9,0-1.7-0.2-2.4-0.7l0.2-0.7
					c0.4,0.2,0.8,0.4,1.1,0.5c0.3,0.1,0.7,0.2,1.2,0.2c0.6,0,1.1-0.2,1.4-0.5c0.3-0.3,0.5-0.8,0.5-1.5v-1.6c-0.2,0.4-0.5,0.8-0.9,1
					c-0.4,0.2-0.8,0.3-1.4,0.3c-0.6,0-1-0.1-1.5-0.4c-0.4-0.3-0.8-0.6-1-1.1c-0.2-0.5-0.4-1-0.4-1.6c0-0.6,0.1-1.2,0.4-1.6
					c0.2-0.5,0.6-0.8,1-1.1c0.4-0.3,0.9-0.4,1.5-0.4c0.5,0,1,0.1,1.3,0.3s0.7,0.5,0.8,1v-1.1H289.3z M287.9,208.4
					c0.4-0.4,0.6-1,0.6-1.8c0-0.8-0.2-1.4-0.6-1.8c-0.4-0.4-0.9-0.7-1.5-0.7c-0.7,0-1.2,0.2-1.6,0.7c-0.4,0.4-0.6,1-0.6,1.8
					c0,0.8,0.2,1.4,0.6,1.8c0.4,0.4,0.9,0.6,1.6,0.6C287.1,209.1,287.6,208.9,287.9,208.4z"/>
				<path class="st10" d="M296.5,206v4h-0.8V206c0-0.6-0.1-1.1-0.4-1.4c-0.3-0.3-0.7-0.4-1.2-0.4c-0.6,0-1.1,0.2-1.5,0.6
					c-0.4,0.4-0.6,0.9-0.6,1.6v3.6h-0.8v-4.5c0-0.7,0-1.2-0.1-1.7h0.7l0.1,1.2c0.2-0.4,0.5-0.7,0.9-1c0.4-0.2,0.8-0.3,1.3-0.3
					C295.8,203.5,296.5,204.4,296.5,206z"/>
				<path class="st10" d="M303.9,203.7v6.3h-0.8v-1.2c-0.2,0.4-0.5,0.7-0.8,1s-0.8,0.3-1.3,0.3c-0.6,0-1.1-0.1-1.5-0.4
					c-0.4-0.3-0.7-0.6-1-1.1c-0.2-0.5-0.3-1.1-0.3-1.7s0.1-1.2,0.4-1.7c0.2-0.5,0.6-0.9,1-1.2c0.4-0.3,0.9-0.4,1.5-0.4
					c0.5,0,0.9,0.1,1.3,0.3s0.7,0.5,0.8,1v-1.1H303.9z M302.6,208.7c0.4-0.5,0.5-1.1,0.5-1.9c0-0.8-0.2-1.5-0.5-1.9
					c-0.4-0.5-0.9-0.7-1.5-0.7c-0.7,0-1.2,0.2-1.5,0.7c-0.4,0.5-0.6,1.1-0.6,1.9c0,0.8,0.2,1.4,0.6,1.9c0.4,0.4,0.9,0.7,1.6,0.7
					C301.7,209.4,302.2,209.2,302.6,208.7z"/>
				<path class="st10" d="M307.1,204.3v3.7c0,0.5,0.1,0.8,0.3,1c0.2,0.2,0.5,0.3,0.9,0.3c0.2,0,0.5,0,0.7-0.1v0.7
					c-0.3,0.1-0.5,0.1-0.8,0.1c-0.6,0-1-0.2-1.3-0.5c-0.3-0.3-0.5-0.8-0.5-1.4v-3.9H305v-0.6h1.2V202l0.8-0.3v2h1.9v0.6H307.1z"/>
				<path class="st10" d="M311.1,201.1v1h-1v-1H311.1z M310.2,203.7h0.8v6.3h-0.8V203.7z"/>
				<path class="st10" d="M314,209.7c-0.4-0.3-0.8-0.6-1-1.1c-0.2-0.5-0.4-1.1-0.4-1.7s0.1-1.2,0.4-1.7c0.2-0.5,0.6-0.9,1-1.1
					s0.9-0.4,1.5-0.4c0.6,0,1.1,0.1,1.5,0.4s0.8,0.6,1,1.1c0.2,0.5,0.4,1.1,0.4,1.7s-0.1,1.2-0.4,1.7c-0.2,0.5-0.6,0.9-1,1.1
					c-0.4,0.3-0.9,0.4-1.5,0.4C315,210.1,314.5,209.9,314,209.7z M317.1,208.7c0.4-0.4,0.5-1.1,0.5-1.9c0-0.8-0.2-1.5-0.6-1.9
					c-0.4-0.5-0.9-0.7-1.5-0.7c-0.7,0-1.2,0.2-1.5,0.7c-0.4,0.5-0.6,1.1-0.6,1.9c0,0.8,0.2,1.5,0.5,1.9c0.4,0.4,0.9,0.7,1.5,0.7
					S316.7,209.2,317.1,208.7z"/>
				<path class="st10" d="M325.3,206v4h-0.8V206c0-0.6-0.1-1.1-0.4-1.4c-0.3-0.3-0.7-0.4-1.2-0.4c-0.6,0-1.1,0.2-1.5,0.6
					c-0.4,0.4-0.6,0.9-0.6,1.6v3.6h-0.8v-4.5c0-0.7,0-1.2-0.1-1.7h0.7l0.1,1.2c0.2-0.4,0.5-0.7,0.9-1c0.4-0.2,0.8-0.3,1.3-0.3
					C324.5,203.5,325.3,204.4,325.3,206z"/>
				<path class="st10" d="M329.5,206.3h6.3v0.6h-6.3V206.3z"/>
			</g>
			<g class="st4">
				<path class="st10" d="M131.8,225.6H131l-1.1-3c-0.1-0.4-0.3-0.7-0.6-0.8c-0.3-0.1-0.6-0.2-1.1-0.2h-2.5v4H125v-8.9h3.4
					c0.9,0,1.6,0.2,2.2,0.6c0.5,0.4,0.8,1,0.8,1.8c0,0.6-0.2,1.1-0.5,1.5c-0.3,0.4-0.7,0.7-1.3,0.8c0.3,0,0.5,0.2,0.7,0.3
					c0.2,0.2,0.3,0.4,0.5,0.8L131.8,225.6z M128.4,220.9c1.5,0,2.2-0.6,2.2-1.8c0-1.2-0.7-1.8-2.2-1.8h-2.6v3.6H128.4z"/>
				<path class="st10" d="M133.9,222.4L133.9,222.4c0,0.9,0.2,1.5,0.6,2c0.4,0.4,1,0.7,1.7,0.7c0.8,0,1.4-0.3,2.1-0.8l0.3,0.6
					c-0.3,0.3-0.6,0.5-1.1,0.6c-0.4,0.2-0.9,0.2-1.3,0.2c-1,0-1.7-0.3-2.3-0.9c-0.6-0.6-0.8-1.4-0.8-2.4c0-0.6,0.1-1.2,0.4-1.7
					c0.2-0.5,0.6-0.9,1-1.2c0.4-0.3,1-0.4,1.5-0.4c0.8,0,1.5,0.3,1.9,0.8c0.5,0.5,0.7,1.3,0.7,2.2v0.2H133.9z M134.6,220.3
					c-0.4,0.3-0.6,0.8-0.7,1.5h4c0-0.6-0.2-1.1-0.6-1.5c-0.3-0.3-0.8-0.5-1.3-0.5C135.4,219.8,135,220,134.6,220.3z"/>
				<path class="st10" d="M145.6,219.3v6.3h-0.8v-1.2c-0.2,0.4-0.5,0.7-0.8,1s-0.8,0.3-1.3,0.3c-0.6,0-1.1-0.1-1.5-0.4
					c-0.4-0.3-0.7-0.6-1-1.1c-0.2-0.5-0.3-1.1-0.3-1.7s0.1-1.2,0.4-1.7c0.2-0.5,0.6-0.9,1-1.2c0.4-0.3,0.9-0.4,1.5-0.4
					c0.5,0,0.9,0.1,1.3,0.3s0.7,0.5,0.8,1v-1.1H145.6z M144.3,224.3c0.4-0.5,0.5-1.1,0.5-1.9c0-0.8-0.2-1.5-0.5-1.9
					c-0.4-0.5-0.9-0.7-1.5-0.7c-0.7,0-1.2,0.2-1.5,0.7c-0.4,0.5-0.6,1.1-0.6,1.9c0,0.8,0.2,1.4,0.6,1.9c0.4,0.4,0.9,0.7,1.6,0.7
					C143.4,225,143.9,224.8,144.3,224.3z"/>
				<path class="st10" d="M153,216.4v9.2h-0.8v-1.2c-0.2,0.4-0.5,0.7-0.8,1s-0.8,0.3-1.3,0.3c-0.6,0-1-0.1-1.5-0.4
					c-0.4-0.3-0.8-0.7-1-1.2c-0.2-0.5-0.4-1.1-0.4-1.7s0.1-1.2,0.3-1.7c0.2-0.5,0.6-0.9,1-1.1c0.4-0.3,0.9-0.4,1.5-0.4
					c0.5,0,0.9,0.1,1.3,0.3s0.7,0.5,0.8,1v-4.1H153z M151.7,224.3c0.4-0.5,0.5-1.1,0.5-1.9s-0.2-1.5-0.5-1.9
					c-0.4-0.5-0.9-0.7-1.5-0.7c-0.7,0-1.2,0.2-1.6,0.7s-0.6,1.1-0.6,1.9c0,0.8,0.2,1.5,0.6,1.9c0.4,0.5,0.9,0.7,1.5,0.7
					C150.8,225,151.3,224.8,151.7,224.3z"/>
				<path class="st10" d="M160.4,219.3l-3,6.9c-0.3,0.7-0.7,1.2-1.1,1.5c-0.4,0.3-1,0.5-1.6,0.7l-0.2-0.6c0.6-0.1,1.1-0.3,1.4-0.6
					c0.3-0.2,0.6-0.6,0.8-1.1l0.3-0.6l-2.7-6.3h0.8l2.3,5.5l2.3-5.5H160.4z"/>
			</g>
		</g>
		<g>
			<rect x="92.5" y="81.3" class="st3" width="170.5" height="39"/>
			<g class="st4">
				<path class="st2" d="M100.5,93.3l-2.1-3c-0.2,0-0.4,0-0.6,0h-2.4v3h-1.4v-9.9h3.8c2.6,0,4.1,1.3,4.1,3.4c0,1.5-0.8,2.6-2.2,3.1
					l2.3,3.3H100.5z M100.5,86.9c0-1.4-0.9-2.2-2.7-2.2h-2.4v4.4h2.4C99.5,89.1,100.5,88.3,100.5,86.9z"/>
				<path class="st2" d="M110.7,90h-6.1c0.2,1.3,1.2,2.2,2.7,2.2c0.9,0,1.6-0.3,2.2-0.9l0.7,0.9c-0.7,0.8-1.7,1.2-2.9,1.2
					c-2.4,0-4-1.6-4-3.8c0-2.2,1.6-3.8,3.8-3.8c2.2,0,3.7,1.6,3.7,3.8C110.7,89.7,110.7,89.9,110.7,90z M104.6,89h4.8
					c-0.1-1.3-1.1-2.1-2.4-2.1C105.7,86.9,104.8,87.8,104.6,89z"/>
				<path class="st2" d="M118.3,88.8v4.5H117v-1c-0.5,0.7-1.3,1.1-2.5,1.1c-1.7,0-2.8-0.9-2.8-2.2c0-1.2,0.8-2.2,3-2.2h2.1v-0.3
					c0-1.1-0.7-1.8-2-1.8c-0.9,0-1.8,0.3-2.4,0.8l-0.6-1c0.8-0.6,1.9-1,3.1-1C117.1,85.8,118.3,86.7,118.3,88.8z M116.9,91v-1h-2.1
					c-1.3,0-1.7,0.5-1.7,1.2c0,0.7,0.6,1.2,1.6,1.2C115.8,92.3,116.6,91.9,116.9,91z"/>
				<path class="st2" d="M127.9,82.8v10.5h-1.3v-1.2c-0.6,0.8-1.6,1.3-2.7,1.3c-2.2,0-3.8-1.5-3.8-3.8s1.6-3.8,3.8-3.8
					c1.1,0,2,0.4,2.6,1.2v-4.1H127.9z M126.5,89.6c0-1.6-1.1-2.6-2.5-2.6c-1.4,0-2.5,1-2.5,2.6s1.1,2.6,2.5,2.6
					C125.5,92.2,126.5,91.2,126.5,89.6z"/>
				<path class="st2" d="M130.2,83.5c0-0.5,0.4-0.9,0.9-0.9c0.5,0,0.9,0.4,0.9,0.9c0,0.5-0.4,0.9-0.9,0.9
					C130.6,84.4,130.2,84,130.2,83.5z M130.5,85.8h1.4v7.5h-1.4V85.8z"/>
				<path class="st2" d="M141.5,89v4.3h-1.4v-4.1c0-1.5-0.7-2.2-2-2.2c-1.4,0-2.4,0.9-2.4,2.5v3.8h-1.4v-7.5h1.3V87
					c0.5-0.8,1.5-1.2,2.7-1.2C140.2,85.8,141.5,86.8,141.5,89z"/>
				<path class="st2" d="M150.7,90h-6.1c0.2,1.3,1.2,2.2,2.7,2.2c0.9,0,1.6-0.3,2.2-0.9l0.7,0.9c-0.7,0.8-1.7,1.2-2.9,1.2
					c-2.4,0-4-1.6-4-3.8c0-2.2,1.6-3.8,3.8-3.8c2.2,0,3.7,1.6,3.7,3.8C150.8,89.7,150.8,89.9,150.7,90z M144.7,89h4.8
					c-0.1-1.3-1.1-2.1-2.4-2.1C145.8,86.9,144.8,87.8,144.7,89z"/>
				<path class="st2" d="M151.7,92.5l0.6-1.1c0.6,0.5,1.6,0.8,2.6,0.8c1.3,0,1.8-0.4,1.8-1c0-1.7-4.7-0.2-4.7-3.2
					c0-1.3,1.2-2.2,3.1-2.2c1,0,2.1,0.3,2.7,0.7l-0.6,1.1c-0.7-0.4-1.4-0.6-2.2-0.6c-1.2,0-1.8,0.4-1.8,1c0,1.8,4.7,0.3,4.7,3.2
					c0,1.4-1.2,2.2-3.2,2.2C153.5,93.4,152.3,93,151.7,92.5z"/>
				<path class="st2" d="M158.8,92.5l0.6-1.1c0.6,0.5,1.6,0.8,2.6,0.8c1.3,0,1.8-0.4,1.8-1c0-1.7-4.7-0.2-4.7-3.2
					c0-1.3,1.2-2.2,3.1-2.2c1,0,2.1,0.3,2.7,0.7l-0.6,1.1c-0.7-0.4-1.4-0.6-2.2-0.6c-1.2,0-1.8,0.4-1.8,1c0,1.8,4.7,0.3,4.7,3.2
					c0,1.4-1.2,2.2-3.2,2.2C160.6,93.4,159.4,93,158.8,92.5z"/>
				<path class="st2" d="M177,90.8h-5.2l-1.1,2.5h-1.5l4.5-9.9h1.4l4.5,9.9h-1.5L177,90.8z M176.6,89.7l-2.1-4.8l-2.1,4.8H176.6z"/>
				<path class="st2" d="M179.9,92.5l0.6-1.1c0.6,0.5,1.6,0.8,2.6,0.8c1.3,0,1.8-0.4,1.8-1c0-1.7-4.7-0.2-4.7-3.2
					c0-1.3,1.2-2.2,3.1-2.2c1,0,2.1,0.3,2.7,0.7l-0.6,1.1c-0.7-0.4-1.4-0.6-2.2-0.6c-1.2,0-1.8,0.4-1.8,1c0,1.8,4.7,0.3,4.7,3.2
					c0,1.4-1.2,2.2-3.2,2.2C181.7,93.4,180.5,93,179.9,92.5z"/>
				<path class="st2" d="M186.9,92.5l0.6-1.1c0.6,0.5,1.6,0.8,2.6,0.8c1.3,0,1.8-0.4,1.8-1c0-1.7-4.7-0.2-4.7-3.2
					c0-1.3,1.2-2.2,3.1-2.2c1,0,2.1,0.3,2.7,0.7l-0.6,1.1c-0.7-0.4-1.4-0.6-2.2-0.6c-1.2,0-1.8,0.4-1.8,1c0,1.8,4.7,0.3,4.7,3.2
					c0,1.4-1.2,2.2-3.2,2.2C188.8,93.4,187.5,93,186.9,92.5z"/>
				<path class="st2" d="M201.6,90h-6.1c0.2,1.3,1.2,2.2,2.7,2.2c0.9,0,1.6-0.3,2.2-0.9l0.7,0.9c-0.7,0.8-1.7,1.2-2.9,1.2
					c-2.4,0-4-1.6-4-3.8c0-2.2,1.6-3.8,3.8-3.8c2.2,0,3.7,1.6,3.7,3.8C201.7,89.7,201.7,89.9,201.6,90z M195.6,89h4.8
					c-0.1-1.3-1.1-2.1-2.4-2.1C196.7,86.9,195.7,87.8,195.6,89z"/>
				<path class="st2" d="M202.6,92.5l0.6-1.1c0.6,0.5,1.6,0.8,2.6,0.8c1.3,0,1.8-0.4,1.8-1c0-1.7-4.7-0.2-4.7-3.2
					c0-1.3,1.2-2.2,3.1-2.2c1,0,2.1,0.3,2.7,0.7l-0.6,1.1c-0.7-0.4-1.4-0.6-2.2-0.6c-1.2,0-1.8,0.4-1.8,1c0,1.8,4.7,0.3,4.7,3.2
					c0,1.4-1.2,2.2-3.2,2.2C204.5,93.4,203.2,93,202.6,92.5z"/>
				<path class="st2" d="M209.7,92.5l0.6-1.1c0.6,0.5,1.6,0.8,2.6,0.8c1.3,0,1.8-0.4,1.8-1c0-1.7-4.7-0.2-4.7-3.2
					c0-1.3,1.2-2.2,3.1-2.2c1,0,2.1,0.3,2.7,0.7l-0.6,1.1c-0.7-0.4-1.4-0.6-2.2-0.6c-1.2,0-1.8,0.4-1.8,1c0,1.8,4.7,0.3,4.7,3.2
					c0,1.4-1.2,2.2-3.2,2.2C211.5,93.4,210.3,93,209.7,92.5z"/>
				<path class="st2" d="M230.1,89v4.3h-1.4v-4.1c0-1.5-0.7-2.2-1.9-2.2c-1.4,0-2.2,0.9-2.2,2.5v3.8h-1.4v-4.1
					c0-1.5-0.7-2.2-1.9-2.2c-1.4,0-2.2,0.9-2.2,2.5v3.8h-1.4v-7.5h1.3v1.1c0.5-0.8,1.5-1.2,2.6-1.2c1.1,0,2.1,0.5,2.6,1.4
					c0.6-0.8,1.6-1.4,2.9-1.4C228.8,85.8,230.1,86.8,230.1,89z"/>
				<path class="st2" d="M239.3,90h-6.1c0.2,1.3,1.2,2.2,2.7,2.2c0.9,0,1.6-0.3,2.2-0.9l0.7,0.9c-0.7,0.8-1.7,1.2-2.9,1.2
					c-2.4,0-4-1.6-4-3.8c0-2.2,1.6-3.8,3.8-3.8c2.2,0,3.7,1.6,3.7,3.8C239.4,89.7,239.3,89.9,239.3,90z M233.3,89h4.8
					c-0.1-1.3-1.1-2.1-2.4-2.1C234.4,86.9,233.4,87.8,233.3,89z"/>
				<path class="st2" d="M248.3,89v4.3H247v-4.1c0-1.5-0.7-2.2-2-2.2c-1.4,0-2.4,0.9-2.4,2.5v3.8h-1.4v-7.5h1.3V87
					c0.5-0.8,1.5-1.2,2.7-1.2C247,85.8,248.3,86.8,248.3,89z"/>
				<path class="st2" d="M255,92.9c-0.4,0.4-1,0.5-1.6,0.5c-1.5,0-2.4-0.8-2.4-2.3v-4.1h-1.3v-1.1h1.3v-1.6h1.4v1.6h2.1v1.1h-2.1v4
					c0,0.8,0.4,1.3,1.2,1.3c0.4,0,0.8-0.1,1.1-0.4L255,92.9z"/>
			</g>
		</g>
		<g class="st4">
			<path class="st10" d="M92.7,109.7c0-0.3,0-0.6,0-0.9c0.1-1.7,0.6-3.3,1.5-4.9h0.6c-0.5,0.9-0.8,1.7-1,2.5s-0.4,1.6-0.4,2.4
				c0,0.3,0,0.6,0,0.9c0,1.3,0.2,2.6,0.7,4h-0.6C92.9,112.4,92.7,111.1,92.7,109.7z"/>
			<path class="st10" d="M97.1,111.4c-0.5-0.3-0.9-0.7-1.2-1.3c-0.3-0.5-0.4-1.2-0.4-2c0-0.9,0.1-1.6,0.4-2.3
				c0.3-0.7,0.7-1.2,1.2-1.5c0.5-0.4,1.2-0.5,1.9-0.5c0.7,0,1.3,0.1,1.8,0.4c0.5,0.3,0.9,0.7,1.2,1.3c0.3,0.5,0.4,1.2,0.4,2
				c0,0.9-0.1,1.6-0.4,2.3c-0.3,0.7-0.7,1.2-1.2,1.5c-0.5,0.4-1.2,0.5-1.9,0.5C98.2,111.8,97.6,111.7,97.1,111.4z M100.4,110.8
				c0.4-0.3,0.8-0.7,1-1.3c0.2-0.6,0.3-1.2,0.3-2c0-1-0.2-1.7-0.7-2.3c-0.5-0.5-1.1-0.8-2-0.8c-0.6,0-1.1,0.1-1.5,0.4
				c-0.4,0.3-0.8,0.7-1,1.3c-0.2,0.6-0.3,1.2-0.3,2c0,1,0.2,1.7,0.7,2.2c0.5,0.5,1.1,0.8,2,0.8C99.5,111.2,100,111.1,100.4,110.8z"
				/>
			<path class="st10" d="M107.9,106.4c0.4,0.2,0.6,0.5,0.8,0.9s0.3,0.9,0.3,1.4c0,0.6-0.1,1.1-0.3,1.6c-0.2,0.5-0.5,0.8-0.9,1.1
				c-0.4,0.3-0.8,0.4-1.3,0.4c-0.5,0-0.8-0.1-1.2-0.3c-0.3-0.2-0.6-0.5-0.7-0.8l-0.3,3.4h-0.7l0.5-6.3c0-0.3,0-0.6,0-1
				c0-0.2,0-0.4,0-0.5h0.6l0,0.9c0.2-0.3,0.4-0.6,0.8-0.8c0.3-0.2,0.7-0.3,1.1-0.3C107.1,106.1,107.5,106.2,107.9,106.4z
				 M107.8,110.6c0.3-0.4,0.5-1.1,0.5-1.8c0-0.7-0.2-1.2-0.5-1.5c-0.3-0.4-0.7-0.5-1.3-0.5c-0.6,0-1.1,0.2-1.4,0.7
				c-0.3,0.4-0.5,1.1-0.5,1.8c0,0.7,0.2,1.2,0.5,1.5c0.3,0.3,0.8,0.5,1.3,0.5S107.5,111,107.8,110.6z"/>
			<path class="st10" d="M111.3,110.1c0,0.1,0,0.1,0,0.2c0,0.4,0.1,0.6,0.2,0.7c0.2,0.1,0.4,0.2,0.7,0.2c0.2,0,0.4,0,0.6-0.1l0,0.6
				c-0.2,0.1-0.5,0.1-0.7,0.1c-0.4,0-0.8-0.1-1-0.4c-0.3-0.2-0.4-0.6-0.4-1.1c0-0.1,0-0.2,0-0.2l0.3-3.4h-1.1l0-0.5h1.1l0.1-1.5
				l0.7-0.3l-0.1,1.7h1.6l0,0.5h-1.6L111.3,110.1z"/>
			<path class="st10" d="M114.4,106.2h0.7l-0.4,5.5h-0.7L114.4,106.2z M115.3,104l-0.1,0.9h-0.9l0.1-0.9H115.3z"/>
			<path class="st10" d="M117.5,111.5c-0.4-0.2-0.7-0.5-0.9-0.9s-0.3-0.9-0.3-1.4c0-0.6,0.1-1.1,0.3-1.6c0.2-0.5,0.5-0.8,0.9-1.1
				c0.4-0.3,0.8-0.4,1.4-0.4c0.5,0,0.9,0.1,1.3,0.3c0.4,0.2,0.7,0.5,0.9,0.9c0.2,0.4,0.3,0.9,0.3,1.4c0,0.6-0.1,1.1-0.3,1.6
				c-0.2,0.5-0.5,0.8-0.9,1.1c-0.4,0.3-0.8,0.4-1.4,0.4C118.3,111.8,117.8,111.7,117.5,111.5z M120.2,110.6c0.3-0.4,0.5-1.1,0.5-1.8
				c0-0.6-0.2-1.1-0.5-1.5c-0.3-0.4-0.7-0.5-1.3-0.5c-0.6,0-1.1,0.2-1.4,0.7s-0.5,1.1-0.5,1.8c0,0.7,0.2,1.2,0.5,1.5
				c0.3,0.3,0.8,0.5,1.3,0.5C119.4,111.2,119.8,111,120.2,110.6z"/>
			<path class="st10" d="M126.9,106.6c0.3,0.3,0.5,0.8,0.5,1.4c0,0.1,0,0.2,0,0.3l-0.3,3.5h-0.7l0.3-3.4c0-0.1,0-0.1,0-0.3
				c0-0.5-0.1-0.8-0.3-1s-0.6-0.3-1-0.3c-0.6,0-1,0.2-1.3,0.5c-0.3,0.3-0.5,0.8-0.6,1.4l-0.3,3.2h-0.7l0.3-4c0-0.3,0-0.6,0-1
				c0-0.2,0-0.4,0-0.5h0.6l0,1c0.2-0.4,0.4-0.6,0.8-0.8c0.3-0.2,0.7-0.3,1.2-0.3C126.1,106.1,126.6,106.3,126.9,106.6z"/>
			<path class="st10" d="M134,106.2l-0.4,5.5h-0.6l0.1-1c-0.2,0.3-0.4,0.6-0.8,0.8s-0.7,0.3-1.1,0.3c-0.5,0-0.9-0.1-1.2-0.3
				c-0.4-0.2-0.6-0.5-0.8-0.9s-0.3-0.9-0.3-1.4c0-0.6,0.1-1.1,0.3-1.6s0.5-0.8,0.9-1.1c0.4-0.3,0.8-0.4,1.3-0.4
				c0.5,0,0.8,0.1,1.2,0.3s0.6,0.5,0.7,0.8l0.1-1H134z M132.7,110.6c0.3-0.4,0.5-1.1,0.5-1.8c0-0.7-0.2-1.2-0.5-1.5
				c-0.3-0.4-0.7-0.5-1.3-0.5c-0.6,0-1.1,0.2-1.4,0.7c-0.3,0.4-0.5,1.1-0.5,1.8c0,0.7,0.2,1.2,0.5,1.5c0.3,0.4,0.7,0.5,1.3,0.5
				C131.9,111.2,132.3,111,132.7,110.6z"/>
			<path class="st10" d="M136,103.7h0.7l-0.6,8.1h-0.7L136,103.7z"/>
			<path class="st10" d="M138.8,110.8l-0.1,0.7c0,0.3-0.1,0.5-0.2,0.8c-0.1,0.2-0.3,0.4-0.5,0.6l-0.3-0.3c0.3-0.3,0.4-0.6,0.5-0.9
				h-0.4l0.1-1H138.8z"/>
			<path class="st10" d="M147.2,106.4c0.4,0.2,0.6,0.5,0.8,0.9s0.3,0.9,0.3,1.4c0,0.6-0.1,1.1-0.3,1.6c-0.2,0.5-0.5,0.8-0.9,1.1
				c-0.4,0.3-0.8,0.4-1.3,0.4c-0.4,0-0.8-0.1-1.2-0.3s-0.6-0.5-0.7-0.8l-0.1,1.1h-0.7l0.6-8.1h0.7l-0.3,3.4c0.2-0.3,0.4-0.6,0.8-0.7
				s0.7-0.3,1.1-0.3C146.5,106.1,146.9,106.2,147.2,106.4z M147.2,110.6c0.3-0.4,0.5-1.1,0.5-1.8c0-0.7-0.2-1.2-0.5-1.5
				c-0.3-0.4-0.7-0.5-1.3-0.5c-0.6,0-1.1,0.2-1.4,0.7c-0.3,0.4-0.5,1.1-0.5,1.8c0,0.7,0.2,1.2,0.5,1.5c0.3,0.3,0.8,0.5,1.3,0.5
				S146.8,111,147.2,110.6z"/>
			<path class="st10" d="M154.5,106.2l-0.4,5.5h-0.6l0.1-1c-0.2,0.3-0.4,0.6-0.8,0.8c-0.3,0.2-0.7,0.3-1.1,0.3
				c-0.6,0-1.1-0.2-1.4-0.5s-0.5-0.8-0.5-1.4c0-0.1,0-0.2,0-0.3l0.3-3.4h0.7l-0.3,3.4c0,0.1,0,0.1,0,0.3c0,0.9,0.4,1.4,1.3,1.4
				c0.5,0,1-0.2,1.3-0.5c0.3-0.3,0.5-0.8,0.6-1.4l0.3-3.1H154.5z"/>
			<path class="st10" d="M156.9,110.1c0,0.1,0,0.1,0,0.2c0,0.4,0.1,0.6,0.2,0.7c0.2,0.1,0.4,0.2,0.7,0.2c0.2,0,0.4,0,0.6-0.1l0,0.6
				c-0.2,0.1-0.5,0.1-0.7,0.1c-0.4,0-0.8-0.1-1-0.4c-0.3-0.2-0.4-0.6-0.4-1.1c0-0.1,0-0.2,0-0.2l0.3-3.4h-1.1l0-0.5h1.1l0.1-1.5
				l0.7-0.3l-0.1,1.7h1.6l0,0.5h-1.6L156.9,110.1z"/>
			<path class="st10" d="M166.7,106.6c0.3,0.3,0.5,0.8,0.5,1.4c0,0.1,0,0.2,0,0.3l-0.3,3.5h-0.7l0.3-3.4c0-0.1,0-0.1,0-0.3
				c0-0.5-0.1-0.8-0.3-1s-0.6-0.3-1-0.3c-0.6,0-1,0.2-1.3,0.5c-0.3,0.3-0.5,0.8-0.6,1.4l-0.3,3.2h-0.7l0.6-8.1h0.7l-0.3,3.5
				c0.2-0.3,0.4-0.6,0.8-0.8c0.3-0.2,0.7-0.3,1.1-0.3C165.9,106.1,166.3,106.3,166.7,106.6z"/>
			<path class="st10" d="M169.1,106.2h0.7l-0.4,5.5h-0.7L169.1,106.2z M170.1,104l-0.1,0.9h-0.9l0.1-0.9H170.1z"/>
			<path class="st10" d="M176.3,106.2l-0.4,5.5c-0.1,1.6-1,2.4-2.5,2.4c-0.8,0-1.5-0.2-2.1-0.6l0.2-0.6c0.3,0.2,0.7,0.4,1,0.5
				c0.3,0.1,0.6,0.1,1,0.1c1.1,0,1.7-0.6,1.8-1.8l0.1-1.2c-0.2,0.3-0.4,0.6-0.8,0.8c-0.3,0.2-0.7,0.3-1.1,0.3
				c-0.7,0-1.3-0.2-1.7-0.7s-0.6-1.1-0.6-1.9c0-0.6,0.1-1.1,0.3-1.5c0.2-0.4,0.5-0.8,0.9-1c0.4-0.2,0.8-0.4,1.4-0.4
				c0.5,0,0.9,0.1,1.2,0.3c0.3,0.2,0.6,0.5,0.7,0.8l0.1-1H176.3z M174.9,110.4c0.3-0.4,0.5-1,0.5-1.7c0-0.6-0.2-1.1-0.5-1.4
				s-0.8-0.5-1.3-0.5c-0.6,0-1.1,0.2-1.4,0.6c-0.3,0.4-0.5,1-0.5,1.7c0,0.6,0.2,1.1,0.5,1.4c0.3,0.3,0.8,0.5,1.3,0.5
				C174.1,111,174.6,110.8,174.9,110.4z"/>
			<path class="st10" d="M182,106.6c0.3,0.3,0.5,0.8,0.5,1.4c0,0.1,0,0.2,0,0.3l-0.3,3.5h-0.7l0.3-3.4c0-0.1,0-0.1,0-0.3
				c0-0.5-0.1-0.8-0.3-1s-0.6-0.3-1-0.3c-0.6,0-1,0.2-1.3,0.5c-0.3,0.3-0.5,0.8-0.6,1.4l-0.3,3.2h-0.7l0.6-8.1h0.7l-0.3,3.5
				c0.2-0.3,0.4-0.6,0.8-0.8c0.3-0.2,0.7-0.3,1.1-0.3C181.2,106.1,181.7,106.3,182,106.6z"/>
			<path class="st10" d="M184.7,103.7h0.7l-0.6,8.1H184L184.7,103.7z"/>
			<path class="st10" d="M191.6,106.2l-3.1,6.1c-0.3,0.6-0.7,1-1.1,1.3c-0.4,0.3-0.9,0.5-1.5,0.6l-0.1-0.5c0.5-0.1,0.9-0.3,1.2-0.5
				c0.3-0.2,0.5-0.5,0.8-0.9l0.3-0.5l-1.9-5.5h0.7l1.6,4.8l2.4-4.8H191.6z"/>
			<path class="st10" d="M198.3,106.2l-0.1,0.6c-0.1,0-0.3,0-0.5,0c-0.6,0-1,0.2-1.3,0.5c-0.3,0.4-0.5,0.8-0.5,1.3l-0.3,3.2h-0.7
				l0.3-4c0-0.5,0-0.8,0-1.1c0-0.2,0-0.3,0-0.4h0.6l0,0.9c0.2-0.3,0.4-0.6,0.8-0.8c0.3-0.2,0.7-0.3,1.1-0.3
				C198.1,106.1,198.2,106.1,198.3,106.2z"/>
			<path class="st10" d="M199.4,108.9c0,0.1,0,0.2,0,0.3c0,0.6,0.2,1.1,0.5,1.5s0.8,0.5,1.4,0.5c0.3,0,0.7-0.1,1-0.2
				c0.3-0.1,0.6-0.3,0.9-0.5l0.2,0.5c-0.2,0.2-0.5,0.4-0.9,0.5c-0.4,0.1-0.8,0.2-1.2,0.2c-0.8,0-1.4-0.2-1.9-0.7
				c-0.5-0.5-0.7-1.1-0.7-1.9c0-0.6,0.1-1.1,0.3-1.6c0.2-0.5,0.5-0.8,0.9-1.1c0.4-0.3,0.9-0.4,1.4-0.4c0.7,0,1.2,0.2,1.6,0.6
				s0.6,1,0.6,1.7c0,0.2,0,0.3,0,0.5H199.4z M200.1,107.1c-0.3,0.3-0.6,0.7-0.7,1.3h3.5c0-0.6-0.1-1-0.4-1.3s-0.7-0.5-1.2-0.5
				C200.9,106.7,200.4,106.8,200.1,107.1z"/>
			<path class="st10" d="M205.8,111.5c-0.4-0.2-0.7-0.5-0.9-0.9s-0.3-0.9-0.3-1.4c0-0.6,0.1-1.2,0.3-1.6s0.5-0.8,0.9-1.1
				c0.4-0.3,0.9-0.4,1.4-0.4c0.4,0,0.8,0.1,1.1,0.2c0.3,0.1,0.6,0.3,0.9,0.5l-0.3,0.5c-0.3-0.2-0.6-0.4-0.8-0.5
				c-0.3-0.1-0.5-0.2-0.9-0.2c-0.6,0-1.1,0.2-1.5,0.7c-0.4,0.4-0.5,1.1-0.5,1.8c0,0.6,0.2,1.1,0.5,1.5c0.3,0.4,0.8,0.5,1.3,0.5
				c0.3,0,0.6-0.1,0.8-0.2c0.2-0.1,0.5-0.3,0.8-0.5l0.2,0.5c-0.2,0.2-0.5,0.4-0.8,0.5c-0.3,0.1-0.7,0.2-1,0.2
				C206.6,111.8,206.1,111.7,205.8,111.5z"/>
			<path class="st10" d="M211.1,111.5c-0.4-0.2-0.7-0.5-0.9-0.9s-0.3-0.9-0.3-1.4c0-0.6,0.1-1.1,0.3-1.6c0.2-0.5,0.5-0.8,0.9-1.1
				c0.4-0.3,0.8-0.4,1.4-0.4c0.5,0,0.9,0.1,1.3,0.3c0.4,0.2,0.7,0.5,0.9,0.9c0.2,0.4,0.3,0.9,0.3,1.4c0,0.6-0.1,1.1-0.3,1.6
				c-0.2,0.5-0.5,0.8-0.9,1.1c-0.4,0.3-0.8,0.4-1.4,0.4C211.9,111.8,211.5,111.7,211.1,111.5z M213.8,110.6c0.3-0.4,0.5-1.1,0.5-1.8
				c0-0.6-0.2-1.1-0.5-1.5c-0.3-0.4-0.7-0.5-1.3-0.5c-0.6,0-1.1,0.2-1.4,0.7s-0.5,1.1-0.5,1.8c0,0.7,0.2,1.2,0.5,1.5
				c0.3,0.3,0.8,0.5,1.3,0.5C213.1,111.2,213.5,111,213.8,110.6z"/>
			<path class="st10" d="M223.8,106.6c0.3,0.3,0.4,0.8,0.4,1.3c0,0.2,0,0.3,0,0.4l-0.3,3.5h-0.6l0.3-3.4c0-0.1,0-0.2,0-0.3
				c0-0.4-0.1-0.8-0.3-1c-0.2-0.2-0.5-0.3-0.9-0.3c-0.5,0-0.9,0.2-1.2,0.5c-0.3,0.3-0.5,0.8-0.5,1.4l-0.3,3.2h-0.7l0.3-3.4
				c0-0.1,0-0.2,0-0.3c0-0.4-0.1-0.8-0.3-1c-0.2-0.2-0.5-0.3-0.9-0.3c-0.5,0-0.9,0.2-1.2,0.5c-0.3,0.3-0.5,0.8-0.5,1.4l-0.3,3.2
				h-0.7l0.3-4c0-0.5,0-0.8,0-1.1c0-0.2,0-0.3,0-0.4h0.6l0,0.9c0.2-0.4,0.4-0.6,0.7-0.8c0.3-0.2,0.7-0.3,1.1-0.3
				c0.9,0,1.4,0.3,1.6,1c0.2-0.3,0.4-0.6,0.8-0.8c0.3-0.2,0.7-0.3,1.1-0.3C223.1,106.1,223.6,106.3,223.8,106.6z"/>
			<path class="st10" d="M233.4,106.6c0.3,0.3,0.4,0.8,0.4,1.3c0,0.2,0,0.3,0,0.4l-0.3,3.5h-0.6l0.3-3.4c0-0.1,0-0.2,0-0.3
				c0-0.4-0.1-0.8-0.3-1c-0.2-0.2-0.5-0.3-0.9-0.3c-0.5,0-0.9,0.2-1.2,0.5c-0.3,0.3-0.5,0.8-0.5,1.4l-0.3,3.2h-0.7l0.3-3.4
				c0-0.1,0-0.2,0-0.3c0-0.4-0.1-0.8-0.3-1c-0.2-0.2-0.5-0.3-0.9-0.3c-0.5,0-0.9,0.2-1.2,0.5c-0.3,0.3-0.5,0.8-0.5,1.4l-0.3,3.2
				h-0.7l0.3-4c0-0.5,0-0.8,0-1.1c0-0.2,0-0.3,0-0.4h0.6l0,0.9c0.2-0.4,0.4-0.6,0.7-0.8c0.3-0.2,0.7-0.3,1.1-0.3
				c0.9,0,1.4,0.3,1.6,1c0.2-0.3,0.4-0.6,0.8-0.8c0.3-0.2,0.7-0.3,1.1-0.3C232.7,106.1,233.1,106.3,233.4,106.6z"/>
			<path class="st10" d="M235.9,108.9c0,0.1,0,0.2,0,0.3c0,0.6,0.2,1.1,0.5,1.5s0.8,0.5,1.4,0.5c0.3,0,0.7-0.1,1-0.2
				c0.3-0.1,0.6-0.3,0.9-0.5l0.2,0.5c-0.2,0.2-0.5,0.4-0.9,0.5c-0.4,0.1-0.8,0.2-1.2,0.2c-0.8,0-1.4-0.2-1.9-0.7
				c-0.5-0.5-0.7-1.1-0.7-1.9c0-0.6,0.1-1.1,0.3-1.6c0.2-0.5,0.5-0.8,0.9-1.1c0.4-0.3,0.9-0.4,1.4-0.4c0.7,0,1.2,0.2,1.6,0.6
				s0.6,1,0.6,1.7c0,0.2,0,0.3,0,0.5H235.9z M236.6,107.1c-0.3,0.3-0.6,0.7-0.7,1.3h3.5c0-0.6-0.1-1-0.4-1.3s-0.7-0.5-1.2-0.5
				C237.4,106.7,237,106.8,236.6,107.1z"/>
			<path class="st10" d="M245.6,106.6c0.3,0.3,0.5,0.8,0.5,1.4c0,0.1,0,0.2,0,0.3l-0.3,3.5h-0.7l0.3-3.4c0-0.1,0-0.1,0-0.3
				c0-0.5-0.1-0.8-0.3-1s-0.6-0.3-1-0.3c-0.6,0-1,0.2-1.3,0.5c-0.3,0.3-0.5,0.8-0.6,1.4l-0.3,3.2h-0.7l0.3-4c0-0.3,0-0.6,0-1
				c0-0.2,0-0.4,0-0.5h0.6l0,1c0.2-0.4,0.4-0.6,0.8-0.8c0.3-0.2,0.7-0.3,1.2-0.3C244.8,106.1,245.3,106.3,245.6,106.6z"/>
			<path class="st10" d="M252.9,103.7l-0.6,8.1h-0.6l0.1-0.9c-0.2,0.3-0.4,0.6-0.8,0.8c-0.3,0.2-0.7,0.3-1.1,0.3
				c-0.5,0-0.9-0.1-1.2-0.3s-0.6-0.5-0.8-0.9c-0.2-0.4-0.3-0.9-0.3-1.4c0-0.6,0.1-1.1,0.3-1.6c0.2-0.5,0.5-0.8,0.9-1.1
				c0.4-0.3,0.8-0.4,1.3-0.4c0.5,0,0.8,0.1,1.2,0.3s0.6,0.5,0.7,0.8l0.3-3.6H252.9z M251.3,110.6c0.3-0.4,0.5-1.1,0.5-1.8
				c0-0.7-0.2-1.2-0.5-1.5c-0.3-0.4-0.7-0.5-1.3-0.5c-0.6,0-1.1,0.2-1.4,0.7c-0.3,0.4-0.5,1-0.5,1.8c0,0.7,0.2,1.2,0.5,1.5
				s0.7,0.5,1.3,0.5C250.5,111.2,251,111,251.3,110.6z"/>
			<path class="st10" d="M254.7,108.9c0,0.1,0,0.2,0,0.3c0,0.6,0.2,1.1,0.5,1.5s0.8,0.5,1.4,0.5c0.3,0,0.7-0.1,1-0.2
				c0.3-0.1,0.6-0.3,0.9-0.5l0.2,0.5c-0.2,0.2-0.5,0.4-0.9,0.5c-0.4,0.1-0.8,0.2-1.2,0.2c-0.8,0-1.4-0.2-1.9-0.7
				c-0.5-0.5-0.7-1.1-0.7-1.9c0-0.6,0.1-1.1,0.3-1.6c0.2-0.5,0.5-0.8,0.9-1.1c0.4-0.3,0.9-0.4,1.4-0.4c0.7,0,1.2,0.2,1.6,0.6
				s0.6,1,0.6,1.7c0,0.2,0,0.3,0,0.5H254.7z M255.4,107.1c-0.3,0.3-0.6,0.7-0.7,1.3h3.5c0-0.6-0.1-1-0.4-1.3s-0.7-0.5-1.2-0.5
				C256.2,106.7,255.7,106.8,255.4,107.1z"/>
			<path class="st10" d="M265.3,103.7l-0.6,8.1H264l0.1-0.9c-0.2,0.3-0.4,0.6-0.8,0.8c-0.3,0.2-0.7,0.3-1.1,0.3
				c-0.5,0-0.9-0.1-1.2-0.3s-0.6-0.5-0.8-0.9c-0.2-0.4-0.3-0.9-0.3-1.4c0-0.6,0.1-1.1,0.3-1.6c0.2-0.5,0.5-0.8,0.9-1.1
				c0.4-0.3,0.8-0.4,1.3-0.4c0.5,0,0.8,0.1,1.2,0.3s0.6,0.5,0.7,0.8l0.3-3.6H265.3z M263.8,110.6c0.3-0.4,0.5-1.1,0.5-1.8
				c0-0.7-0.2-1.2-0.5-1.5c-0.3-0.4-0.7-0.5-1.3-0.5c-0.6,0-1.1,0.2-1.4,0.7c-0.3,0.4-0.5,1-0.5,1.8c0,0.7,0.2,1.2,0.5,1.5
				s0.7,0.5,1.3,0.5C263,111.2,263.4,111,263.8,110.6z"/>
			<path class="st10" d="M265.8,113.7c0.5-0.9,0.8-1.7,1-2.5c0.2-0.8,0.4-1.6,0.4-2.4c0-0.3,0-0.6,0-0.9c0-1.3-0.2-2.6-0.7-4h0.6
				c0.5,1.3,0.8,2.6,0.8,4c0,0.3,0,0.6,0,0.9c-0.1,0.8-0.2,1.7-0.5,2.5s-0.6,1.6-1.1,2.4H265.8z"/>
		</g>
		<rect x="103.3" y="135.1" class="st2" width="0.8" height="57.7"/>
		<g>
			<g>
				<circle class="st2" cx="103.7" cy="135.1" r="9.5"/>
			</g>
			<g>
				<path class="st6" d="M105.6,132.6c-0.2,0-0.5-0.2-0.5-0.5V129h-4.8c-0.7,0-1.2,0.6-1.2,1.2v9.9c0,0.7,0.6,1.2,1.2,1.2h7.2
					c0.7,0,1.2-0.6,1.2-1.2v-7.6L105.6,132.6L105.6,132.6z"/>
			</g>
			<path class="st7" d="M105.6,132.6h3.2l-3.6-3.6v3.2C105.2,132.4,105.3,132.6,105.6,132.6z"/>
			<polygon class="st1" points="108.7,135.1 108.7,132.6 105.6,132.6 			"/>
		</g>
		<g>
			<g id="g56755_1_" transform="matrix(14,0,0,14,49637.042,519374.88)">
				<path id="path56757_1_" class="st13" d="M-3537.4-37083.2c0,0.4-0.3,0.7-0.7,0.7l0,0c-0.3,0-0.7-0.3-0.7-0.7l0,0
					c0-0.3,0.3-0.7,0.7-0.7l0,0C-3537.7-37084-3537.4-37083.7-3537.4-37083.2L-3537.4-37083.2z"/>
			</g>
			<path id="path53460_1_" class="st14" d="M108.1,204.5c-2.7,1.2-4,3.9-5.2,6.3l-1.7-1.7c-0.9,0.7-1.8,1.2-2.7,1.7l7.4,7.4
				c4.2-0.9,7.1-4.5,7.4-8.6L108.1,204.5z"/>
			<path id="path38606_1_" class="st6" d="M101,209.1c0.5,0.7,1,1.6,1.4,2.6c1.3-2.6,2.7-5.7,5.7-7.1c-0.2,1.2-0.5,2.7-0.1,3.9
				c-2.5,1.2-4.1,3.5-5.6,5.8c-1.5-2.1-2.7-2.7-4.2-3.5C99.2,210.3,100.2,209.8,101,209.1L101,209.1z"/>
		</g>
	</g>
	<rect x="53.3" y="0" class="st8" width="350.6" height="290.9"/>
	<g>
		<polygon class="st2" points="53.3,286.9 41.6,271.6 53.3,271.6 		"/>
		<polygon class="st2" points="403.9,286.9 415.5,271.6 403.9,271.6 		"/>
		<rect x="53.3" y="263.3" class="st9" width="350.6" height="14.5"/>
	</g>
	<rect x="41.7" y="78.5" class="st6" width="373.9" height="193.2"/>
	<g>
		<rect x="74.1" y="131.6" class="st3" width="311.8" height="120.8"/>
		<g class="st4">
			<path class="st2" d="M76.7,142.7c-0.4-0.2-0.8-0.6-1-1s-0.4-0.9-0.4-1.4c0-0.5,0.1-0.9,0.4-1.3c0.2-0.4,0.6-0.8,1-1
				s0.9-0.4,1.4-0.4c0.5,0,0.9,0.1,1.4,0.4s0.8,0.6,1,1c0.3,0.4,0.4,0.9,0.4,1.4c0,0.5-0.1,0.9-0.4,1.4c-0.2,0.4-0.6,0.7-1,1
				c-0.4,0.2-0.9,0.4-1.4,0.4C77.6,143.1,77.1,143,76.7,142.7z"/>
		</g>
		<g class="st4">
			<path class="st2" d="M78.1,143.2c-0.5,0-1-0.1-1.4-0.4c-0.4-0.2-0.8-0.6-1.1-1c-0.3-0.4-0.4-0.9-0.4-1.4c0-0.5,0.1-0.9,0.4-1.4
				c0.3-0.4,0.6-0.8,1-1c0.4-0.3,0.9-0.4,1.5-0.4c0.5,0,1,0.1,1.4,0.4c0.4,0.2,0.8,0.6,1.1,1c0.3,0.4,0.4,0.9,0.4,1.4
				c0,0.5-0.1,1-0.4,1.4c-0.3,0.4-0.6,0.8-1,1C79.1,143.1,78.6,143.2,78.1,143.2z M78.1,137.8c-0.5,0-0.9,0.1-1.3,0.4
				c-0.4,0.2-0.7,0.6-1,1c-0.2,0.4-0.3,0.8-0.3,1.3c0,0.5,0.1,0.9,0.4,1.3c0.2,0.4,0.6,0.7,1,0.9c0.8,0.4,1.8,0.5,2.6,0
				c0.4-0.2,0.7-0.5,1-0.9c0.2-0.4,0.4-0.8,0.4-1.3c0-0.5-0.1-0.9-0.4-1.3c-0.2-0.4-0.6-0.7-1-0.9C79,137.9,78.5,137.8,78.1,137.8z"
				/>
		</g>
		<g class="st4">
			<path class="st10" d="M103.7,133.7h4.1c1.1,0,1.9,0.3,2.5,0.8c0.6,0.5,0.9,1.2,0.9,2.2c0,0.9-0.3,1.7-0.9,2.2
				c-0.6,0.5-1.5,0.8-2.5,0.8h-3.2v4.8h-0.9V133.7z M107.8,138.8c0.8,0,1.5-0.2,1.9-0.6c0.4-0.4,0.6-0.9,0.6-1.6
				c0-0.7-0.2-1.2-0.6-1.6c-0.4-0.4-1.1-0.6-1.9-0.6h-3.1v4.3H107.8z"/>
			<path class="st10" d="M119.5,136.9v7.6h-0.9V143c-0.2,0.5-0.6,0.9-1,1.2c-0.4,0.3-1,0.4-1.6,0.4c-0.7,0-1.3-0.2-1.8-0.5
				s-0.9-0.8-1.2-1.4c-0.3-0.6-0.4-1.3-0.4-2.1s0.1-1.5,0.4-2.1s0.7-1.1,1.2-1.4c0.5-0.3,1.1-0.5,1.8-0.5c0.6,0,1.1,0.1,1.6,0.4
				s0.8,0.6,1,1.1v-1.4H119.5z M117.9,142.9c0.4-0.5,0.6-1.3,0.6-2.3c0-1-0.2-1.8-0.6-2.3s-1-0.8-1.8-0.8s-1.4,0.3-1.9,0.8
				c-0.4,0.6-0.7,1.3-0.7,2.3c0,1,0.2,1.7,0.7,2.3c0.4,0.5,1.1,0.8,1.9,0.8C116.9,143.7,117.5,143.5,117.9,142.9z"/>
			<path class="st10" d="M125.9,136.8l0,0.8c-0.2,0-0.4-0.1-0.7-0.1c-0.8,0-1.3,0.2-1.7,0.7c-0.4,0.5-0.6,1.1-0.6,1.7v4.4H122V139
				c0-0.8,0-1.5-0.1-2.1h0.9l0.1,1.4c0.2-0.5,0.5-0.9,0.9-1.2c0.4-0.3,0.9-0.4,1.5-0.4C125.5,136.7,125.7,136.7,125.9,136.8z"/>
			<path class="st10" d="M129.1,137.6v4.5c0,0.6,0.1,1,0.3,1.3s0.6,0.3,1,0.3c0.3,0,0.6,0,0.8-0.1v0.8c-0.3,0.1-0.6,0.1-1,0.1
				c-0.7,0-1.2-0.2-1.6-0.6c-0.4-0.4-0.6-0.9-0.6-1.7v-4.7h-1.5v-0.7h1.5v-2l0.9-0.3v2.4h2.2v0.7H129.1z"/>
			<path class="st10" d="M139.1,139.6v4.8h-0.9v-4.8c0-0.8-0.2-1.3-0.5-1.7c-0.3-0.4-0.8-0.5-1.4-0.5c-0.8,0-1.4,0.2-1.8,0.7
				c-0.5,0.5-0.7,1.1-0.7,1.9v4.4h-0.9V139c0-0.8,0-1.5-0.1-2.1h0.9l0.1,1.4c0.2-0.5,0.6-0.9,1-1.2c0.5-0.3,1-0.4,1.6-0.4
				C138.2,136.7,139.1,137.7,139.1,139.6z"/>
			<path class="st10" d="M142.1,140.6L142.1,140.6c0,1.1,0.2,1.8,0.7,2.4c0.5,0.5,1.1,0.8,2,0.8c0.9,0,1.7-0.3,2.5-0.9l0.4,0.7
				c-0.3,0.3-0.8,0.6-1.3,0.7c-0.5,0.2-1,0.3-1.6,0.3c-1.1,0-2.1-0.3-2.7-1c-0.7-0.7-1-1.6-1-2.9c0-0.8,0.1-1.5,0.4-2.1
				c0.3-0.6,0.7-1.1,1.2-1.4s1.1-0.5,1.8-0.5c1,0,1.8,0.3,2.3,1c0.6,0.6,0.8,1.5,0.8,2.7v0.2H142.1z M143,138.1
				c-0.4,0.4-0.7,1-0.8,1.8h4.8c-0.1-0.8-0.3-1.4-0.7-1.8c-0.4-0.4-0.9-0.6-1.6-0.6C144,137.5,143.4,137.7,143,138.1z"/>
			<path class="st10" d="M153.7,136.8l0,0.8c-0.2,0-0.4-0.1-0.7-0.1c-0.8,0-1.3,0.2-1.7,0.7c-0.4,0.5-0.6,1.1-0.6,1.7v4.4h-0.9V139
				c0-0.8,0-1.5-0.1-2.1h0.9l0.1,1.4c0.2-0.5,0.5-0.9,0.9-1.2c0.4-0.3,0.9-0.4,1.5-0.4C153.3,136.7,153.5,136.7,153.7,136.8z"/>
			<path class="st10" d="M154.5,143.5l0.3-0.7c0.4,0.3,0.8,0.6,1.2,0.7c0.4,0.1,0.9,0.2,1.4,0.2c0.6,0,1.1-0.1,1.4-0.3
				c0.3-0.2,0.5-0.5,0.5-0.9c0-0.3-0.1-0.6-0.3-0.8c-0.2-0.2-0.6-0.4-1.1-0.5l-1.3-0.3c-0.6-0.1-1.1-0.4-1.4-0.8s-0.5-0.8-0.5-1.3
				c0-0.7,0.3-1.2,0.8-1.6c0.5-0.4,1.2-0.6,2-0.6c0.5,0,1,0.1,1.5,0.3c0.5,0.2,0.8,0.4,1.1,0.7l-0.3,0.7c-0.7-0.6-1.5-0.9-2.3-0.9
				c-0.6,0-1,0.1-1.4,0.3c-0.3,0.2-0.5,0.6-0.5,1c0,0.3,0.1,0.6,0.3,0.8c0.2,0.2,0.5,0.4,1,0.5l1.3,0.3c1.4,0.3,2,1,2,2
				c0,0.6-0.3,1.1-0.8,1.5s-1.2,0.6-2.1,0.6C156.2,144.5,155.2,144.2,154.5,143.5z"/>
			<path class="st10" d="M168.7,139.6v4.8h-0.9v-4.8c0-0.8-0.2-1.3-0.5-1.7c-0.3-0.4-0.8-0.5-1.4-0.5c-0.8,0-1.4,0.2-1.8,0.7
				c-0.5,0.5-0.7,1.1-0.7,1.9v4.4h-0.9v-11.1h0.9v4.9c0.2-0.5,0.6-0.9,1-1.1s1-0.4,1.6-0.4C167.8,136.7,168.7,137.7,168.7,139.6z"/>
			<path class="st10" d="M172.2,133.8v1.2H171v-1.2H172.2z M171.2,136.9h0.9v7.6h-0.9V136.9z"/>
			<path class="st10" d="M179.9,137.2c0.5,0.3,0.9,0.8,1.2,1.4c0.3,0.6,0.4,1.3,0.4,2.1s-0.1,1.5-0.4,2.1c-0.3,0.6-0.7,1-1.2,1.4
				c-0.5,0.3-1.1,0.5-1.8,0.5c-0.6,0-1.2-0.1-1.6-0.4c-0.4-0.3-0.8-0.7-1-1.2v4.8h-0.9V139c0-0.8,0-1.5-0.1-2.1h0.9l0.1,1.5
				c0.2-0.5,0.6-0.9,1-1.2c0.5-0.3,1-0.4,1.6-0.4C178.8,136.7,179.4,136.9,179.9,137.2z M179.9,142.9c0.4-0.5,0.7-1.3,0.7-2.3
				c0-1-0.2-1.8-0.7-2.3c-0.4-0.6-1.1-0.8-1.8-0.8c-0.8,0-1.4,0.3-1.9,0.8c-0.4,0.5-0.6,1.3-0.6,2.3c0,1,0.2,1.8,0.6,2.3
				c0.4,0.5,1,0.8,1.8,0.8C178.8,143.7,179.4,143.5,179.9,142.9z"/>
			<path class="st10" d="M187.5,133.7h6.6v0.8h-5.7v4.1h5.4v0.8h-5.4v4.2h5.7v0.8h-6.6V133.7z"/>
			<path class="st10" d="M195.7,143.5l0.3-0.7c0.4,0.3,0.8,0.6,1.2,0.7c0.4,0.1,0.9,0.2,1.4,0.2c0.6,0,1.1-0.1,1.4-0.3
				c0.3-0.2,0.5-0.5,0.5-0.9c0-0.3-0.1-0.6-0.3-0.8c-0.2-0.2-0.6-0.4-1.1-0.5l-1.3-0.3c-0.6-0.1-1.1-0.4-1.4-0.8s-0.5-0.8-0.5-1.3
				c0-0.7,0.3-1.2,0.8-1.6c0.5-0.4,1.2-0.6,2-0.6c0.5,0,1,0.1,1.5,0.3c0.5,0.2,0.8,0.4,1.1,0.7l-0.3,0.7c-0.7-0.6-1.5-0.9-2.3-0.9
				c-0.6,0-1,0.1-1.4,0.3c-0.3,0.2-0.5,0.6-0.5,1c0,0.3,0.1,0.6,0.3,0.8c0.2,0.2,0.5,0.4,1,0.5l1.3,0.3c1.4,0.3,2,1,2,2
				c0,0.6-0.3,1.1-0.8,1.5s-1.2,0.6-2.1,0.6C197.4,144.5,196.5,144.2,195.7,143.5z"/>
			<path class="st10" d="M204.9,137.6v4.5c0,0.6,0.1,1,0.3,1.3s0.6,0.3,1,0.3c0.3,0,0.6,0,0.8-0.1v0.8c-0.3,0.1-0.6,0.1-1,0.1
				c-0.7,0-1.2-0.2-1.6-0.6c-0.4-0.4-0.6-0.9-0.6-1.7v-4.7h-1.5v-0.7h1.5v-2l0.9-0.3v2.4h2.2v0.7H204.9z"/>
			<path class="st10" d="M215.1,136.9v7.6h-0.9V143c-0.2,0.5-0.6,0.9-1,1.2c-0.4,0.3-1,0.4-1.6,0.4c-0.7,0-1.3-0.2-1.8-0.5
				s-0.9-0.8-1.2-1.4c-0.3-0.6-0.4-1.3-0.4-2.1s0.1-1.5,0.4-2.1s0.7-1.1,1.2-1.4c0.5-0.3,1.1-0.5,1.8-0.5c0.6,0,1.1,0.1,1.6,0.4
				s0.8,0.6,1,1.1v-1.4H215.1z M213.5,142.9c0.4-0.5,0.6-1.3,0.6-2.3c0-1-0.2-1.8-0.6-2.3s-1-0.8-1.8-0.8s-1.4,0.3-1.9,0.8
				c-0.4,0.6-0.7,1.3-0.7,2.3c0,1,0.2,1.7,0.7,2.3c0.4,0.5,1.1,0.8,1.9,0.8C212.5,143.7,213.1,143.5,213.5,142.9z"/>
			<path class="st10" d="M222.9,137.2c0.5,0.3,0.9,0.8,1.2,1.4c0.3,0.6,0.4,1.3,0.4,2.1s-0.1,1.5-0.4,2.1c-0.3,0.6-0.7,1.1-1.2,1.4
				c-0.5,0.3-1.1,0.5-1.8,0.5c-0.6,0-1.2-0.1-1.6-0.4c-0.4-0.3-0.8-0.7-1-1.2v1.5h-0.9v-11.1h0.9v5c0.2-0.5,0.6-0.9,1-1.2
				s1-0.4,1.6-0.4C221.8,136.7,222.4,136.9,222.9,137.2z M222.8,142.9c0.4-0.6,0.7-1.3,0.7-2.3c0-1-0.2-1.7-0.7-2.3
				c-0.4-0.5-1.1-0.8-1.9-0.8c-0.8,0-1.4,0.3-1.8,0.8c-0.4,0.5-0.6,1.3-0.6,2.3c0,1,0.2,1.8,0.6,2.3c0.4,0.5,1.1,0.8,1.9,0.8
				C221.8,143.7,222.4,143.5,222.8,142.9z"/>
			<path class="st10" d="M226.5,133.3h0.9v11.1h-0.9V133.3z"/>
			<path class="st10" d="M231,133.8v1.2h-1.2v-1.2H231z M229.9,136.9h0.9v7.6h-0.9V136.9z"/>
			<path class="st10" d="M232.9,143.5l0.3-0.7c0.4,0.3,0.8,0.6,1.2,0.7c0.4,0.1,0.9,0.2,1.4,0.2c0.6,0,1.1-0.1,1.4-0.3
				c0.3-0.2,0.5-0.5,0.5-0.9c0-0.3-0.1-0.6-0.3-0.8c-0.2-0.2-0.6-0.4-1.1-0.5l-1.3-0.3c-0.6-0.1-1.1-0.4-1.4-0.8s-0.5-0.8-0.5-1.3
				c0-0.7,0.3-1.2,0.8-1.6c0.5-0.4,1.2-0.6,2-0.6c0.5,0,1,0.1,1.5,0.3c0.5,0.2,0.8,0.4,1.1,0.7l-0.3,0.7c-0.7-0.6-1.5-0.9-2.3-0.9
				c-0.6,0-1,0.1-1.4,0.3c-0.3,0.2-0.5,0.6-0.5,1c0,0.3,0.1,0.6,0.3,0.8c0.2,0.2,0.5,0.4,1,0.5l1.3,0.3c1.4,0.3,2,1,2,2
				c0,0.6-0.3,1.1-0.8,1.5s-1.2,0.6-2.1,0.6C234.6,144.5,233.6,144.2,232.9,143.5z"/>
			<path class="st10" d="M247.1,139.6v4.8h-0.9v-4.8c0-0.8-0.2-1.3-0.5-1.7c-0.3-0.4-0.8-0.5-1.4-0.5c-0.8,0-1.4,0.2-1.8,0.7
				c-0.5,0.5-0.7,1.1-0.7,1.9v4.4h-0.9v-11.1h0.9v4.9c0.2-0.5,0.6-0.9,1-1.1s1-0.4,1.6-0.4C246.2,136.7,247.1,137.7,247.1,139.6z"/>
			<path class="st10" d="M260.2,139.6v4.8h-0.9v-4.8c0-0.8-0.1-1.3-0.4-1.7c-0.3-0.3-0.7-0.5-1.3-0.5c-0.7,0-1.2,0.2-1.6,0.7
				c-0.4,0.5-0.6,1.1-0.6,1.9v4.4h-0.9v-4.8c0-0.8-0.1-1.3-0.4-1.7c-0.3-0.3-0.7-0.5-1.3-0.5c-0.7,0-1.2,0.2-1.6,0.7
				c-0.4,0.5-0.6,1.1-0.6,1.9v4.4h-0.9V139c0-0.8,0-1.5-0.1-2.1h0.9l0.1,1.4c0.2-0.5,0.5-0.9,0.9-1.1s0.9-0.4,1.5-0.4
				c1.2,0,2,0.5,2.3,1.5c0.2-0.5,0.5-0.8,1-1.1s1-0.4,1.5-0.4C259.4,136.7,260.2,137.7,260.2,139.6z"/>
			<path class="st10" d="M263.1,140.6L263.1,140.6c0,1.1,0.2,1.8,0.7,2.4c0.5,0.5,1.1,0.8,2,0.8c0.9,0,1.7-0.3,2.5-0.9l0.4,0.7
				c-0.3,0.3-0.8,0.6-1.3,0.7c-0.5,0.2-1,0.3-1.6,0.3c-1.1,0-2.1-0.3-2.7-1c-0.7-0.7-1-1.6-1-2.9c0-0.8,0.1-1.5,0.4-2.1
				c0.3-0.6,0.7-1.1,1.2-1.4s1.1-0.5,1.8-0.5c1,0,1.8,0.3,2.3,1c0.6,0.6,0.8,1.5,0.8,2.7v0.2H263.1z M264,138.1
				c-0.4,0.4-0.7,1-0.8,1.8h4.8c-0.1-0.8-0.3-1.4-0.7-1.8c-0.4-0.4-0.9-0.6-1.6-0.6C265,137.5,264.4,137.7,264,138.1z"/>
			<path class="st10" d="M277.1,139.6v4.8h-0.9v-4.8c0-0.8-0.2-1.3-0.5-1.7c-0.3-0.4-0.8-0.5-1.4-0.5c-0.8,0-1.4,0.2-1.8,0.7
				c-0.5,0.5-0.7,1.1-0.7,1.9v4.4h-0.9V139c0-0.8,0-1.5-0.1-2.1h0.9l0.1,1.4c0.2-0.5,0.6-0.9,1-1.2c0.5-0.3,1-0.4,1.6-0.4
				C276.2,136.7,277.1,137.7,277.1,139.6z"/>
			<path class="st10" d="M280.9,137.6v4.5c0,0.6,0.1,1,0.3,1.3s0.6,0.3,1,0.3c0.3,0,0.6,0,0.8-0.1v0.8c-0.3,0.1-0.6,0.1-1,0.1
				c-0.7,0-1.2-0.2-1.6-0.6c-0.4-0.4-0.6-0.9-0.6-1.7v-4.7h-1.5v-0.7h1.5v-2l0.9-0.3v2.4h2.2v0.7H280.9z"/>
		</g>
		<g class="st4">
			<path class="st2" d="M76.7,171c-0.4-0.2-0.8-0.6-1-1s-0.4-0.9-0.4-1.4c0-0.5,0.1-0.9,0.4-1.3c0.2-0.4,0.6-0.8,1-1
				s0.9-0.4,1.4-0.4c0.5,0,0.9,0.1,1.4,0.4s0.8,0.6,1,1c0.3,0.4,0.4,0.9,0.4,1.4c0,0.5-0.1,0.9-0.4,1.4c-0.2,0.4-0.6,0.7-1,1
				c-0.4,0.2-0.9,0.4-1.4,0.4C77.6,171.4,77.1,171.2,76.7,171z"/>
		</g>
		<g class="st4">
			<path class="st2" d="M78.1,171.5c-0.5,0-1-0.1-1.4-0.4c-0.4-0.2-0.8-0.6-1.1-1c-0.3-0.4-0.4-0.9-0.4-1.4c0-0.5,0.1-0.9,0.4-1.4
				c0.3-0.4,0.6-0.8,1-1c0.4-0.3,0.9-0.4,1.5-0.4c0.5,0,1,0.1,1.4,0.4c0.4,0.2,0.8,0.6,1.1,1c0.3,0.4,0.4,0.9,0.4,1.4
				c0,0.5-0.1,1-0.4,1.4c-0.3,0.4-0.6,0.8-1,1C79.1,171.4,78.6,171.5,78.1,171.5z M78.1,166.1c-0.5,0-0.9,0.1-1.3,0.4
				c-0.4,0.2-0.7,0.6-1,1c-0.2,0.4-0.3,0.8-0.3,1.3c0,0.5,0.1,0.9,0.4,1.3c0.2,0.4,0.6,0.7,1,0.9c0.8,0.4,1.8,0.5,2.6,0
				c0.4-0.2,0.7-0.5,1-0.9c0.2-0.4,0.4-0.8,0.4-1.3c0-0.5-0.1-0.9-0.4-1.3c-0.2-0.4-0.6-0.7-1-0.9C79,166.2,78.5,166.1,78.1,166.1z"
				/>
		</g>
		<g class="st4">
			<path class="st10" d="M110.7,169.8h-5.8l-1.2,2.9h-1l4.7-10.7h0.8l4.7,10.7h-1L110.7,169.8z M110.4,169l-2.5-5.9l-2.5,5.9H110.4z
				"/>
			<path class="st10" d="M120.6,165.1v7.6h-0.9v-1.4c-0.2,0.5-0.6,0.9-1,1.1c-0.4,0.3-1,0.4-1.5,0.4c-0.9,0-1.6-0.2-2-0.7
				c-0.5-0.5-0.7-1.2-0.7-2.2v-4.7h0.9v4.7c0,0.7,0.2,1.3,0.5,1.6s0.8,0.5,1.4,0.5c0.7,0,1.3-0.2,1.8-0.7c0.4-0.5,0.7-1.1,0.7-1.9
				v-4.3H120.6z"/>
			<path class="st10" d="M124.4,165.9v4.5c0,0.6,0.1,1,0.3,1.3s0.6,0.3,1,0.3c0.3,0,0.6,0,0.8-0.1v0.8c-0.3,0.1-0.6,0.1-1,0.1
				c-0.7,0-1.2-0.2-1.6-0.6c-0.4-0.4-0.6-0.9-0.6-1.7v-4.7H122v-0.7h1.5v-2l0.9-0.3v2.4h2.2v0.7H124.4z"/>
			<path class="st10" d="M134.5,167.9v4.8h-0.9v-4.8c0-0.8-0.2-1.3-0.5-1.7c-0.3-0.4-0.8-0.5-1.4-0.5c-0.8,0-1.4,0.2-1.8,0.7
				c-0.5,0.5-0.7,1.1-0.7,1.9v4.4h-0.9v-11.1h0.9v4.9c0.2-0.5,0.6-0.9,1-1.1s1-0.4,1.6-0.4C133.6,165,134.5,165.9,134.5,167.9z"/>
			<path class="st10" d="M138.1,172.3c-0.5-0.3-0.9-0.8-1.2-1.4c-0.3-0.6-0.4-1.3-0.4-2.1s0.1-1.5,0.4-2.1c0.3-0.6,0.7-1.1,1.2-1.4
				c0.5-0.3,1.1-0.5,1.8-0.5c0.7,0,1.3,0.2,1.8,0.5c0.5,0.3,0.9,0.8,1.2,1.4c0.3,0.6,0.4,1.3,0.4,2.1s-0.1,1.5-0.4,2.1
				c-0.3,0.6-0.7,1.1-1.2,1.4c-0.5,0.3-1.1,0.5-1.8,0.5C139.2,172.8,138.6,172.6,138.1,172.3z M141.8,171.2c0.4-0.5,0.7-1.3,0.7-2.3
				c0-1-0.2-1.8-0.7-2.3c-0.4-0.5-1.1-0.8-1.8-0.8c-0.8,0-1.4,0.3-1.9,0.8c-0.4,0.5-0.7,1.3-0.7,2.3c0,1,0.2,1.8,0.6,2.3
				s1.1,0.8,1.9,0.8S141.4,171.7,141.8,171.2z"/>
			<path class="st10" d="M149.3,165l0,0.8c-0.2,0-0.4-0.1-0.7-0.1c-0.8,0-1.3,0.2-1.7,0.7c-0.4,0.5-0.6,1.1-0.6,1.7v4.4h-0.9v-5.5
				c0-0.8,0-1.5-0.1-2.1h0.9l0.1,1.4c0.2-0.5,0.5-0.9,0.9-1.2c0.4-0.3,0.9-0.4,1.5-0.4C148.9,165,149.1,165,149.3,165z"/>
			<path class="st10" d="M151.8,162v1.2h-1.2V162H151.8z M150.7,165.1h0.9v7.6h-0.9V165.1z"/>
			<path class="st10" d="M159.9,171.9v0.8h-6.3v-0.6l5-6.2h-4.8v-0.7h6v0.7l-5,6.1H159.9z"/>
			<path class="st10" d="M168.2,165.1v7.6h-0.9v-1.4c-0.2,0.5-0.6,0.9-1,1.2c-0.4,0.3-1,0.4-1.6,0.4c-0.7,0-1.3-0.2-1.8-0.5
				s-0.9-0.8-1.2-1.4c-0.3-0.6-0.4-1.3-0.4-2.1s0.1-1.5,0.4-2.1s0.7-1.1,1.2-1.4c0.5-0.3,1.1-0.5,1.8-0.5c0.6,0,1.1,0.1,1.6,0.4
				s0.8,0.6,1,1.1v-1.4H168.2z M166.6,171.2c0.4-0.5,0.6-1.3,0.6-2.3c0-1-0.2-1.8-0.6-2.3s-1-0.8-1.8-0.8s-1.4,0.3-1.9,0.8
				c-0.4,0.6-0.7,1.3-0.7,2.3c0,1,0.2,1.7,0.7,2.3c0.4,0.5,1.1,0.8,1.9,0.8C165.5,172,166.2,171.7,166.6,171.2z"/>
			<path class="st10" d="M171.9,165.9v4.5c0,0.6,0.1,1,0.3,1.3s0.6,0.3,1,0.3c0.3,0,0.6,0,0.8-0.1v0.8c-0.3,0.1-0.6,0.1-1,0.1
				c-0.7,0-1.2-0.2-1.6-0.6c-0.4-0.4-0.6-0.9-0.6-1.7v-4.7h-1.5v-0.7h1.5v-2l0.9-0.3v2.4h2.2v0.7H171.9z"/>
			<path class="st10" d="M176.8,162v1.2h-1.2V162H176.8z M175.7,165.1h0.9v7.6h-0.9V165.1z"/>
			<path class="st10" d="M180.4,172.3c-0.5-0.3-0.9-0.8-1.2-1.4c-0.3-0.6-0.4-1.3-0.4-2.1s0.1-1.5,0.4-2.1c0.3-0.6,0.7-1.1,1.2-1.4
				c0.5-0.3,1.1-0.5,1.8-0.5c0.7,0,1.3,0.2,1.8,0.5c0.5,0.3,0.9,0.8,1.2,1.4c0.3,0.6,0.4,1.3,0.4,2.1s-0.1,1.5-0.4,2.1
				c-0.3,0.6-0.7,1.1-1.2,1.4c-0.5,0.3-1.1,0.5-1.8,0.5C181.5,172.8,180.9,172.6,180.4,172.3z M184,171.2c0.4-0.5,0.7-1.3,0.7-2.3
				c0-1-0.2-1.8-0.7-2.3c-0.4-0.5-1.1-0.8-1.8-0.8c-0.8,0-1.4,0.3-1.9,0.8c-0.4,0.5-0.7,1.3-0.7,2.3c0,1,0.2,1.8,0.6,2.3
				s1.1,0.8,1.9,0.8S183.6,171.7,184,171.2z"/>
			<path class="st10" d="M193.9,167.9v4.8H193v-4.8c0-0.8-0.2-1.3-0.5-1.7c-0.3-0.4-0.8-0.5-1.4-0.5c-0.8,0-1.4,0.2-1.8,0.7
				c-0.5,0.5-0.7,1.1-0.7,1.9v4.4h-0.9v-5.5c0-0.8,0-1.5-0.1-2.1h0.9l0.1,1.4c0.2-0.5,0.6-0.9,1-1.2c0.5-0.3,1-0.4,1.6-0.4
				C193,165,193.9,165.9,193.9,167.9z"/>
			<path class="st10" d="M200.4,162h4.1c1.1,0,1.9,0.3,2.5,0.8c0.6,0.5,0.9,1.2,0.9,2.2c0,0.9-0.3,1.7-0.9,2.2
				c-0.6,0.5-1.5,0.8-2.5,0.8h-3.2v4.8h-0.9V162z M204.4,167.1c0.8,0,1.5-0.2,1.9-0.6c0.4-0.4,0.6-0.9,0.6-1.6
				c0-0.7-0.2-1.2-0.6-1.6c-0.4-0.4-1.1-0.6-1.9-0.6h-3.1v4.3H204.4z"/>
			<path class="st10" d="M210,161.6h0.9v11.1H210V161.6z"/>
			<path class="st10" d="M219.8,165.1v7.6h-0.9v-1.4c-0.2,0.5-0.6,0.9-1,1.2c-0.4,0.3-1,0.4-1.6,0.4c-0.7,0-1.3-0.2-1.8-0.5
				s-0.9-0.8-1.2-1.4c-0.3-0.6-0.4-1.3-0.4-2.1s0.1-1.5,0.4-2.1s0.7-1.1,1.2-1.4c0.5-0.3,1.1-0.5,1.8-0.5c0.6,0,1.1,0.1,1.6,0.4
				s0.8,0.6,1,1.1v-1.4H219.8z M218.2,171.2c0.4-0.5,0.6-1.3,0.6-2.3c0-1-0.2-1.8-0.6-2.3s-1-0.8-1.8-0.8s-1.4,0.3-1.9,0.8
				c-0.4,0.6-0.7,1.3-0.7,2.3c0,1,0.2,1.7,0.7,2.3c0.4,0.5,1.1,0.8,1.9,0.8C217.2,172,217.8,171.7,218.2,171.2z"/>
			<path class="st10" d="M228.6,167.9v4.8h-0.9v-4.8c0-0.8-0.2-1.3-0.5-1.7c-0.3-0.4-0.8-0.5-1.4-0.5c-0.8,0-1.4,0.2-1.8,0.7
				c-0.5,0.5-0.7,1.1-0.7,1.9v4.4h-0.9v-5.5c0-0.8,0-1.5-0.1-2.1h0.9l0.1,1.4c0.2-0.5,0.6-0.9,1-1.2c0.5-0.3,1-0.4,1.6-0.4
				C227.6,165,228.6,165.9,228.6,167.9z"/>
			<path class="st10" d="M237.3,167.9v4.8h-0.9v-4.8c0-0.8-0.2-1.3-0.5-1.7c-0.3-0.4-0.8-0.5-1.4-0.5c-0.8,0-1.4,0.2-1.8,0.7
				c-0.5,0.5-0.7,1.1-0.7,1.9v4.4H231v-5.5c0-0.8,0-1.5-0.1-2.1h0.9l0.1,1.4c0.2-0.5,0.6-0.9,1-1.2c0.5-0.3,1-0.4,1.6-0.4
				C236.4,165,237.3,165.9,237.3,167.9z"/>
			<path class="st10" d="M240.8,162v1.2h-1.2V162H240.8z M239.8,165.1h0.9v7.6h-0.9V165.1z"/>
			<path class="st10" d="M249.4,167.9v4.8h-0.9v-4.8c0-0.8-0.2-1.3-0.5-1.7c-0.3-0.4-0.8-0.5-1.4-0.5c-0.8,0-1.4,0.2-1.8,0.7
				c-0.5,0.5-0.7,1.1-0.7,1.9v4.4h-0.9v-5.5c0-0.8,0-1.5-0.1-2.1h0.9l0.1,1.4c0.2-0.5,0.6-0.9,1-1.2c0.5-0.3,1-0.4,1.6-0.4
				C248.5,165,249.4,165.9,249.4,167.9z"/>
			<path class="st10" d="M258.4,165.1v7.6c0,1.1-0.3,1.9-0.8,2.5c-0.5,0.6-1.3,0.8-2.4,0.8c-1.1,0-2.1-0.3-2.9-0.8l0.2-0.8
				c0.5,0.3,0.9,0.5,1.4,0.6c0.4,0.1,0.9,0.2,1.4,0.2c0.8,0,1.3-0.2,1.7-0.6c0.4-0.4,0.6-1,0.6-1.8v-1.9c-0.2,0.5-0.6,0.9-1,1.2
				s-1,0.4-1.6,0.4c-0.7,0-1.3-0.2-1.8-0.5c-0.5-0.3-0.9-0.8-1.2-1.3s-0.4-1.2-0.4-2c0-0.7,0.1-1.4,0.4-2c0.3-0.6,0.7-1,1.2-1.3
				c0.5-0.3,1.1-0.5,1.8-0.5c0.6,0,1.2,0.1,1.6,0.4c0.4,0.3,0.8,0.6,1,1.1v-1.4H258.4z M256.8,170.9c0.4-0.5,0.7-1.2,0.7-2.1
				c0-0.9-0.2-1.6-0.7-2.2c-0.4-0.5-1.1-0.8-1.8-0.8c-0.8,0-1.4,0.3-1.9,0.8c-0.5,0.5-0.7,1.2-0.7,2.2c0,0.9,0.2,1.6,0.7,2.1
				c0.5,0.5,1.1,0.8,1.9,0.8C255.7,171.6,256.3,171.4,256.8,170.9z"/>
		</g>
		<g class="st4">
			<path class="st2" d="M76.7,199.3c-0.4-0.2-0.8-0.6-1-1s-0.4-0.9-0.4-1.4c0-0.5,0.1-0.9,0.4-1.3c0.2-0.4,0.6-0.8,1-1
				s0.9-0.4,1.4-0.4c0.5,0,0.9,0.1,1.4,0.4s0.8,0.6,1,1c0.3,0.4,0.4,0.9,0.4,1.4c0,0.5-0.1,0.9-0.4,1.4c-0.2,0.4-0.6,0.7-1,1
				c-0.4,0.2-0.9,0.4-1.4,0.4C77.6,199.7,77.1,199.6,76.7,199.3z"/>
		</g>
		<g class="st4">
			<path class="st2" d="M78.1,199.8c-0.5,0-1-0.1-1.4-0.4c-0.4-0.2-0.8-0.6-1.1-1c-0.3-0.4-0.4-0.9-0.4-1.4c0-0.5,0.1-0.9,0.4-1.4
				c0.3-0.4,0.6-0.8,1-1c0.4-0.3,0.9-0.4,1.5-0.4c0.5,0,1,0.1,1.4,0.4c0.4,0.2,0.8,0.6,1.1,1c0.3,0.4,0.4,0.9,0.4,1.4
				c0,0.5-0.1,1-0.4,1.4c-0.3,0.4-0.6,0.8-1,1C79.1,199.7,78.6,199.8,78.1,199.8z M78.1,194.4c-0.5,0-0.9,0.1-1.3,0.4
				c-0.4,0.2-0.7,0.6-1,1c-0.2,0.4-0.3,0.8-0.3,1.3c0,0.5,0.1,0.9,0.4,1.3c0.2,0.4,0.6,0.7,1,0.9c0.8,0.4,1.8,0.5,2.6,0
				c0.4-0.2,0.7-0.5,1-0.9c0.2-0.4,0.4-0.8,0.4-1.3c0-0.5-0.1-0.9-0.4-1.3c-0.2-0.4-0.6-0.7-1-0.9C79,194.5,78.5,194.4,78.1,194.4z"
				/>
		</g>
		<g class="st4">
			<path class="st10" d="M110.4,201l-5.8-5.1v5.1h-0.9v-10.7h0.9v5l5.5-5h1.2l-5.8,5.3l6.1,5.5H110.4z"/>
			<path class="st10" d="M114,190.4v1.2h-1.2v-1.2H114z M112.9,193.5h0.9v7.6h-0.9V193.5z"/>
			<path class="st10" d="M117.5,200.7c-0.5-0.3-0.9-0.8-1.2-1.4c-0.3-0.6-0.4-1.3-0.4-2c0-0.8,0.1-1.5,0.4-2.1
				c0.3-0.6,0.7-1.1,1.3-1.4c0.5-0.3,1.2-0.5,1.9-0.5c0.5,0,1,0.1,1.5,0.3c0.5,0.2,0.9,0.4,1.2,0.7l-0.4,0.7
				c-0.4-0.3-0.8-0.6-1.1-0.7c-0.4-0.1-0.7-0.2-1.1-0.2c-0.8,0-1.5,0.3-1.9,0.8c-0.5,0.6-0.7,1.3-0.7,2.3c0,1,0.2,1.7,0.7,2.3
				c0.5,0.5,1.1,0.8,1.9,0.8c0.4,0,0.8-0.1,1.1-0.2c0.4-0.1,0.7-0.4,1.1-0.7l0.4,0.7c-0.3,0.3-0.7,0.6-1.2,0.7
				c-0.5,0.2-1,0.3-1.5,0.3C118.7,201.1,118.1,201,117.5,200.7z"/>
			<path class="st10" d="M128.8,201l-4.2-3.7v3.7h-0.9v-11.1h0.9v7.1l3.8-3.5h1.2l-4,3.6l4.4,3.9H128.8z"/>
			<path class="st10" d="M130.8,196.6h4.1v0.8h-4.1V196.6z"/>
			<path class="st10" d="M138.8,200.7c-0.5-0.3-0.9-0.8-1.2-1.4c-0.3-0.6-0.4-1.3-0.4-2.1s0.1-1.5,0.4-2.1c0.3-0.6,0.7-1.1,1.2-1.4
				c0.5-0.3,1.1-0.5,1.8-0.5c0.7,0,1.3,0.2,1.8,0.5c0.5,0.3,0.9,0.8,1.2,1.4c0.3,0.6,0.4,1.3,0.4,2.1s-0.1,1.5-0.4,2.1
				c-0.3,0.6-0.7,1.1-1.2,1.4c-0.5,0.3-1.1,0.5-1.8,0.5C139.9,201.1,139.3,201,138.8,200.7z M142.4,199.5c0.4-0.5,0.7-1.3,0.7-2.3
				c0-1-0.2-1.8-0.7-2.3c-0.4-0.5-1.1-0.8-1.8-0.8c-0.8,0-1.4,0.3-1.9,0.8c-0.4,0.5-0.7,1.3-0.7,2.3c0,1,0.2,1.8,0.6,2.3
				s1.1,0.8,1.9,0.8S142,200.1,142.4,199.5z"/>
			<path class="st10" d="M147.7,191.1c-0.2,0.2-0.3,0.6-0.3,1.2v1.2h1.9v0.7h-1.9v6.8h-0.9v-6.8h-1.5v-0.7h1.5v-1.4
				c0-0.8,0.2-1.3,0.6-1.7c0.4-0.4,0.9-0.6,1.5-0.6c0.3,0,0.6,0,0.9,0.1v0.8c-0.3-0.1-0.5-0.1-0.8-0.1
				C148.2,190.7,147.9,190.8,147.7,191.1z"/>
			<path class="st10" d="M152.6,191.1c-0.2,0.2-0.3,0.6-0.3,1.2v1.2h1.9v0.7h-1.9v6.8h-0.9v-6.8h-1.5v-0.7h1.5v-1.4
				c0-0.8,0.2-1.3,0.6-1.7c0.4-0.4,0.9-0.6,1.5-0.6c0.3,0,0.6,0,0.9,0.1v0.8c-0.3-0.1-0.5-0.1-0.8-0.1
				C153.2,190.7,152.9,190.8,152.6,191.1z"/>
			<path class="st10" d="M169.9,190.3V201H169v-8.6l-3.8,8.6h-0.7l-3.8-8.5l0,8.5h-0.9v-10.7h0.8l4.3,9.6l4.2-9.6H169.9z"/>
			<path class="st10" d="M173,197.1L173,197.1c0,1.1,0.2,1.8,0.7,2.4c0.5,0.5,1.1,0.8,2,0.8c0.9,0,1.7-0.3,2.5-0.9l0.4,0.7
				c-0.3,0.3-0.8,0.6-1.3,0.7c-0.5,0.2-1,0.3-1.6,0.3c-1.1,0-2.1-0.3-2.7-1c-0.7-0.7-1-1.6-1-2.9c0-0.8,0.1-1.5,0.4-2.1
				c0.3-0.6,0.7-1.1,1.2-1.4s1.1-0.5,1.8-0.5c1,0,1.8,0.3,2.3,1c0.6,0.6,0.8,1.5,0.8,2.7v0.2H173z M173.9,194.7
				c-0.4,0.4-0.7,1-0.8,1.8h4.8c-0.1-0.8-0.3-1.4-0.7-1.8c-0.4-0.4-0.9-0.6-1.6-0.6C174.9,194.1,174.3,194.3,173.9,194.7z"/>
			<path class="st10" d="M181.2,197.1L181.2,197.1c0,1.1,0.2,1.8,0.7,2.4c0.5,0.5,1.1,0.8,2,0.8c0.9,0,1.7-0.3,2.5-0.9l0.4,0.7
				c-0.3,0.3-0.8,0.6-1.3,0.7c-0.5,0.2-1,0.3-1.6,0.3c-1.1,0-2.1-0.3-2.7-1c-0.7-0.7-1-1.6-1-2.9c0-0.8,0.1-1.5,0.4-2.1
				c0.3-0.6,0.7-1.1,1.2-1.4s1.1-0.5,1.8-0.5c1,0,1.8,0.3,2.3,1c0.6,0.6,0.8,1.5,0.8,2.7v0.2H181.2z M182.1,194.7
				c-0.4,0.4-0.7,1-0.8,1.8h4.8c-0.1-0.8-0.3-1.4-0.7-1.8c-0.4-0.4-0.9-0.6-1.6-0.6C183.1,194.1,182.5,194.3,182.1,194.7z"/>
			<path class="st10" d="M190.2,194.2v4.5c0,0.6,0.1,1,0.3,1.3s0.6,0.3,1,0.3c0.3,0,0.6,0,0.8-0.1v0.8c-0.3,0.1-0.6,0.1-1,0.1
				c-0.7,0-1.2-0.2-1.6-0.6c-0.4-0.4-0.6-0.9-0.6-1.7v-4.7h-1.5v-0.7h1.5v-2l0.9-0.3v2.4h2.2v0.7H190.2z"/>
			<path class="st10" d="M195.1,190.4v1.2h-1.2v-1.2H195.1z M194,193.5h0.9v7.6H194V193.5z"/>
			<path class="st10" d="M203.7,196.2v4.8h-0.9v-4.8c0-0.8-0.2-1.3-0.5-1.7c-0.3-0.4-0.8-0.5-1.4-0.5c-0.8,0-1.4,0.2-1.8,0.7
				c-0.5,0.5-0.7,1.1-0.7,1.9v4.4h-0.9v-5.5c0-0.8,0-1.5-0.1-2.1h0.9l0.1,1.4c0.2-0.5,0.6-0.9,1-1.2c0.5-0.3,1-0.4,1.6-0.4
				C202.8,193.3,203.7,194.3,203.7,196.2z"/>
			<path class="st10" d="M212.6,193.5v7.6c0,1.1-0.3,1.9-0.8,2.5c-0.5,0.6-1.3,0.8-2.4,0.8c-1.1,0-2.1-0.3-2.9-0.8l0.2-0.8
				c0.5,0.3,0.9,0.5,1.4,0.6c0.4,0.1,0.9,0.2,1.4,0.2c0.8,0,1.3-0.2,1.7-0.6c0.4-0.4,0.6-1,0.6-1.8v-1.9c-0.2,0.5-0.6,0.9-1,1.2
				s-1,0.4-1.6,0.4c-0.7,0-1.3-0.2-1.8-0.5c-0.5-0.3-0.9-0.8-1.2-1.3s-0.4-1.2-0.4-2c0-0.7,0.1-1.4,0.4-2c0.3-0.6,0.7-1,1.2-1.3
				c0.5-0.3,1.1-0.5,1.8-0.5c0.6,0,1.2,0.1,1.6,0.4c0.4,0.3,0.8,0.6,1,1.1v-1.4H212.6z M211,199.2c0.4-0.5,0.7-1.2,0.7-2.1
				c0-0.9-0.2-1.6-0.7-2.2c-0.4-0.5-1.1-0.8-1.8-0.8c-0.8,0-1.4,0.3-1.9,0.8c-0.5,0.5-0.7,1.2-0.7,2.2c0,0.9,0.2,1.6,0.7,2.1
				c0.5,0.5,1.1,0.8,1.9,0.8C210,200,210.6,199.7,211,199.2z"/>
		</g>
		<g class="st4">
			<path class="st10" d="M103.7,218.6h6.5v0.8h-5.5v4.1h5.2v0.8h-5.2v5h-0.9V218.6z"/>
			<path class="st10" d="M112.3,225.4L112.3,225.4c0,1.1,0.2,1.8,0.7,2.4s1.1,0.8,2,0.8c0.9,0,1.7-0.3,2.5-0.9l0.4,0.7
				c-0.3,0.3-0.8,0.6-1.3,0.7c-0.5,0.2-1,0.3-1.6,0.3c-1.1,0-2.1-0.3-2.7-1c-0.7-0.7-1-1.6-1-2.9c0-0.8,0.1-1.5,0.4-2.1
				c0.3-0.6,0.7-1.1,1.2-1.4s1.1-0.5,1.8-0.5c1,0,1.8,0.3,2.3,1c0.6,0.6,0.8,1.5,0.8,2.7v0.2H112.3z M113.2,222.9
				c-0.4,0.4-0.7,1-0.8,1.8h4.8c-0.1-0.8-0.3-1.4-0.7-1.8c-0.4-0.4-0.9-0.6-1.6-0.6C114.2,222.3,113.6,222.5,113.2,222.9z"/>
			<path class="st10" d="M126.5,218.2v11.1h-0.9v-1.4c-0.2,0.5-0.6,0.9-1,1.2c-0.4,0.3-1,0.4-1.6,0.4c-0.7,0-1.2-0.2-1.8-0.5
				c-0.5-0.3-0.9-0.8-1.2-1.4c-0.3-0.6-0.4-1.3-0.4-2.1s0.1-1.5,0.4-2.1c0.3-0.6,0.7-1,1.2-1.4c0.5-0.3,1.1-0.5,1.8-0.5
				c0.6,0,1.1,0.1,1.6,0.4c0.4,0.3,0.8,0.6,1,1.1v-4.9H126.5z M124.9,227.8c0.4-0.5,0.6-1.3,0.6-2.3c0-1-0.2-1.8-0.6-2.3
				c-0.4-0.5-1-0.8-1.8-0.8c-0.8,0-1.4,0.3-1.9,0.8c-0.4,0.5-0.7,1.3-0.7,2.3c0,1,0.2,1.8,0.7,2.3c0.4,0.6,1.1,0.8,1.9,0.8
				S124.5,228.3,124.9,227.8z"/>
			<path class="st10" d="M137.4,229.3h-1l-1.3-3.6c-0.2-0.5-0.4-0.8-0.7-1s-0.7-0.2-1.3-0.2h-3v4.8h-0.9v-10.7h4.1
				c1.1,0,2,0.3,2.6,0.8c0.6,0.5,0.9,1.2,0.9,2.2c0,0.7-0.2,1.3-0.6,1.8c-0.4,0.5-0.9,0.8-1.6,1c0.3,0.1,0.6,0.2,0.8,0.4
				c0.2,0.2,0.4,0.5,0.6,0.9L137.4,229.3z M133.2,223.7c1.8,0,2.6-0.7,2.6-2.2c0-1.4-0.9-2.1-2.6-2.1H130v4.3H133.2z"/>
			<path class="st10" d="M146.4,226.4h-5.8l-1.2,2.9h-1l4.7-10.7h0.8l4.7,10.7h-1L146.4,226.4z M146,225.6l-2.5-5.9l-2.5,5.9H146z"
				/>
			<path class="st10" d="M160.4,218.6v10.7h-0.9v-8.6l-3.8,8.6H155l-3.8-8.5l0,8.5h-0.9v-10.7h0.8l4.3,9.6l4.2-9.6H160.4z"/>
			<path class="st10" d="M163.2,218.6h4.1c1.1,0,1.9,0.3,2.5,0.8c0.6,0.5,0.9,1.2,0.9,2.2c0,0.9-0.3,1.7-0.9,2.2
				c-0.6,0.5-1.5,0.8-2.5,0.8h-3.2v4.8h-0.9V218.6z M167.2,223.7c0.8,0,1.5-0.2,1.9-0.6c0.4-0.4,0.6-0.9,0.6-1.6
				c0-0.7-0.2-1.2-0.6-1.6c-0.4-0.4-1.1-0.6-1.9-0.6h-3.1v4.3H167.2z"/>
			<path class="st10" d="M186.7,218.6v10.7h-0.9v-8.6l-3.8,8.6h-0.7l-3.8-8.5l0,8.5h-0.9v-10.7h0.8l4.3,9.6l4.2-9.6H186.7z"/>
			<path class="st10" d="M195.8,221.7v7.6h-0.9v-1.4c-0.2,0.5-0.6,0.9-1,1.2c-0.4,0.3-1,0.4-1.6,0.4c-0.7,0-1.3-0.2-1.8-0.5
				c-0.5-0.3-0.9-0.8-1.2-1.4c-0.3-0.6-0.4-1.3-0.4-2.1c0-0.8,0.1-1.5,0.4-2.1c0.3-0.6,0.7-1.1,1.2-1.4c0.5-0.3,1.1-0.5,1.8-0.5
				c0.6,0,1.1,0.1,1.6,0.4c0.4,0.3,0.8,0.6,1,1.1v-1.4H195.8z M194.2,227.8c0.4-0.5,0.6-1.3,0.6-2.3c0-1-0.2-1.8-0.6-2.3
				s-1-0.8-1.8-0.8s-1.4,0.3-1.9,0.8c-0.4,0.6-0.7,1.3-0.7,2.3c0,1,0.2,1.7,0.7,2.3c0.4,0.5,1.1,0.8,1.9,0.8
				C193.2,228.6,193.8,228.3,194.2,227.8z"/>
			<path class="st10" d="M202.2,221.6l0,0.8c-0.2,0-0.4-0.1-0.7-0.1c-0.8,0-1.3,0.2-1.7,0.7c-0.4,0.5-0.6,1.1-0.6,1.7v4.4h-0.9v-5.5
				c0-0.8,0-1.5-0.1-2.1h0.9l0.1,1.4c0.2-0.5,0.5-0.9,0.9-1.2c0.4-0.3,0.9-0.4,1.5-0.4C201.8,221.6,202,221.6,202.2,221.6z"/>
			<path class="st10" d="M208.6,229.3l-4.2-3.7v3.7h-0.9v-11.1h0.9v7.1l3.8-3.5h1.2l-4,3.6l4.4,3.9H208.6z"/>
			<path class="st10" d="M211.4,225.4L211.4,225.4c0,1.1,0.2,1.8,0.7,2.4s1.1,0.8,2,0.8c0.9,0,1.7-0.3,2.5-0.9l0.4,0.7
				c-0.3,0.3-0.8,0.6-1.3,0.7c-0.5,0.2-1,0.3-1.6,0.3c-1.1,0-2.1-0.3-2.7-1c-0.7-0.7-1-1.6-1-2.9c0-0.8,0.1-1.5,0.4-2.1
				c0.3-0.6,0.7-1.1,1.2-1.4s1.1-0.5,1.8-0.5c1,0,1.8,0.3,2.3,1c0.6,0.6,0.8,1.5,0.8,2.7v0.2H211.4z M212.3,222.9
				c-0.4,0.4-0.7,1-0.8,1.8h4.8c-0.1-0.8-0.3-1.4-0.7-1.8c-0.4-0.4-0.9-0.6-1.6-0.6C213.3,222.3,212.7,222.5,212.3,222.9z"/>
			<path class="st10" d="M220.4,222.5v4.5c0,0.6,0.1,1,0.3,1.3s0.6,0.3,1,0.3c0.3,0,0.6,0,0.8-0.1v0.8c-0.3,0.1-0.6,0.1-1,0.1
				c-0.7,0-1.2-0.2-1.6-0.6c-0.4-0.4-0.6-0.9-0.6-1.7v-4.7H218v-0.7h1.5v-2l0.9-0.3v2.4h2.2v0.7H220.4z"/>
			<path class="st10" d="M229.5,222c0.5,0.3,0.9,0.8,1.2,1.4c0.3,0.6,0.4,1.3,0.4,2.1c0,0.8-0.1,1.5-0.4,2.1c-0.3,0.6-0.7,1-1.2,1.4
				c-0.5,0.3-1.1,0.5-1.8,0.5c-0.6,0-1.2-0.1-1.6-0.4c-0.4-0.3-0.8-0.7-1-1.2v4.8h-0.9v-8.7c0-0.8,0-1.5-0.1-2.1h0.9l0.1,1.5
				c0.2-0.5,0.6-0.9,1-1.2c0.5-0.3,1-0.4,1.6-0.4C228.4,221.6,229,221.7,229.5,222z M229.5,227.8c0.4-0.5,0.7-1.3,0.7-2.3
				c0-1-0.2-1.8-0.7-2.3c-0.4-0.6-1.1-0.8-1.8-0.8c-0.8,0-1.4,0.3-1.9,0.8c-0.4,0.5-0.6,1.3-0.6,2.3c0,1,0.2,1.8,0.6,2.3
				c0.4,0.5,1,0.8,1.8,0.8C228.4,228.6,229,228.3,229.5,227.8z"/>
			<path class="st10" d="M233.1,218.2h0.9v11.1h-0.9V218.2z"/>
			<path class="st10" d="M243,221.7v7.6H242v-1.4c-0.2,0.5-0.6,0.9-1,1.2c-0.4,0.3-1,0.4-1.6,0.4c-0.7,0-1.3-0.2-1.8-0.5
				c-0.5-0.3-0.9-0.8-1.2-1.4c-0.3-0.6-0.4-1.3-0.4-2.1c0-0.8,0.1-1.5,0.4-2.1c0.3-0.6,0.7-1.1,1.2-1.4c0.5-0.3,1.1-0.5,1.8-0.5
				c0.6,0,1.1,0.1,1.6,0.4c0.4,0.3,0.8,0.6,1,1.1v-1.4H243z M241.4,227.8c0.4-0.5,0.6-1.3,0.6-2.3c0-1-0.2-1.8-0.6-2.3
				s-1-0.8-1.8-0.8s-1.4,0.3-1.9,0.8c-0.4,0.6-0.7,1.3-0.7,2.3c0,1,0.2,1.7,0.7,2.3c0.4,0.5,1.1,0.8,1.9,0.8
				C240.4,228.6,241,228.3,241.4,227.8z"/>
			<path class="st10" d="M246.7,228.9c-0.5-0.3-0.9-0.8-1.2-1.4c-0.3-0.6-0.4-1.3-0.4-2c0-0.8,0.1-1.5,0.4-2.1
				c0.3-0.6,0.7-1.1,1.3-1.4c0.5-0.3,1.2-0.5,1.9-0.5c0.5,0,1,0.1,1.5,0.3s0.9,0.4,1.2,0.7l-0.4,0.7c-0.4-0.3-0.8-0.6-1.1-0.7
				c-0.4-0.1-0.7-0.2-1.1-0.2c-0.8,0-1.5,0.3-1.9,0.8c-0.5,0.6-0.7,1.3-0.7,2.3c0,1,0.2,1.7,0.7,2.3c0.5,0.5,1.1,0.8,1.9,0.8
				c0.4,0,0.8-0.1,1.1-0.2c0.4-0.1,0.7-0.4,1.1-0.7l0.4,0.7c-0.3,0.3-0.7,0.6-1.2,0.7c-0.5,0.2-1,0.3-1.5,0.3
				C247.8,229.4,247.2,229.2,246.7,228.9z"/>
			<path class="st10" d="M253.3,225.4L253.3,225.4c0,1.1,0.2,1.8,0.7,2.4s1.1,0.8,2,0.8c0.9,0,1.7-0.3,2.5-0.9l0.4,0.7
				c-0.3,0.3-0.8,0.6-1.3,0.7c-0.5,0.2-1,0.3-1.6,0.3c-1.1,0-2.1-0.3-2.7-1c-0.7-0.7-1-1.6-1-2.9c0-0.8,0.1-1.5,0.4-2.1
				c0.3-0.6,0.7-1.1,1.2-1.4s1.1-0.5,1.8-0.5c1,0,1.8,0.3,2.3,1c0.6,0.6,0.8,1.5,0.8,2.7v0.2H253.3z M254.2,222.9
				c-0.4,0.4-0.7,1-0.8,1.8h4.8c-0.1-0.8-0.3-1.4-0.7-1.8c-0.4-0.4-0.9-0.6-1.6-0.6C255.2,222.3,254.7,222.5,254.2,222.9z"/>
			<path class="st10" d="M265,218.6h3.5c1.7,0,3,0.5,4,1.4c0.9,0.9,1.4,2.2,1.4,4s-0.5,3-1.4,4c-0.9,0.9-2.2,1.4-3.9,1.4H265V218.6z
				 M268.4,228.5c1.5,0,2.6-0.4,3.3-1.2s1.1-1.9,1.1-3.4c0-3-1.5-4.5-4.4-4.5H266v9.1H268.4z"/>
			<path class="st10" d="M276.5,225.4L276.5,225.4c0,1.1,0.2,1.8,0.7,2.4s1.1,0.8,2,0.8c0.9,0,1.7-0.3,2.5-0.9l0.4,0.7
				c-0.3,0.3-0.8,0.6-1.3,0.7c-0.5,0.2-1,0.3-1.6,0.3c-1.1,0-2.1-0.3-2.7-1c-0.7-0.7-1-1.6-1-2.9c0-0.8,0.1-1.5,0.4-2.1
				c0.3-0.6,0.7-1.1,1.2-1.4s1.1-0.5,1.8-0.5c1,0,1.8,0.3,2.3,1c0.6,0.6,0.8,1.5,0.8,2.7v0.2H276.5z M277.4,222.9
				c-0.4,0.4-0.7,1-0.8,1.8h4.8c-0.1-0.8-0.3-1.4-0.7-1.8c-0.4-0.4-0.9-0.6-1.6-0.6C278.4,222.3,277.8,222.5,277.4,222.9z"/>
			<path class="st10" d="M283.8,228.4l0.3-0.7c0.4,0.3,0.8,0.6,1.2,0.7c0.4,0.1,0.9,0.2,1.4,0.2c0.6,0,1.1-0.1,1.4-0.3
				c0.3-0.2,0.5-0.5,0.5-0.9c0-0.3-0.1-0.6-0.3-0.8c-0.2-0.2-0.6-0.4-1.1-0.5l-1.3-0.3c-0.6-0.1-1.1-0.4-1.4-0.8s-0.5-0.8-0.5-1.3
				c0-0.7,0.3-1.2,0.8-1.6c0.5-0.4,1.2-0.6,2-0.6c0.5,0,1,0.1,1.5,0.3c0.5,0.2,0.8,0.4,1.1,0.7l-0.3,0.7c-0.7-0.6-1.5-0.9-2.3-0.9
				c-0.6,0-1,0.1-1.4,0.3c-0.3,0.2-0.5,0.6-0.5,1c0,0.3,0.1,0.6,0.3,0.8c0.2,0.2,0.5,0.4,1,0.5l1.3,0.3c1.4,0.3,2,1,2,2
				c0,0.6-0.3,1.1-0.8,1.5c-0.5,0.4-1.2,0.6-2.1,0.6C285.5,229.4,284.5,229.1,283.8,228.4z"/>
			<path class="st10" d="M292.8,218.6v1.2h-1.2v-1.2H292.8z M291.7,221.7h0.9v7.6h-0.9V221.7z"/>
			<path class="st10" d="M301.6,221.7v7.6c0,1.1-0.3,1.9-0.8,2.5c-0.5,0.6-1.3,0.8-2.4,0.8c-1.1,0-2.1-0.3-2.9-0.8l0.2-0.8
				c0.5,0.3,0.9,0.5,1.4,0.6c0.4,0.1,0.9,0.2,1.4,0.2c0.8,0,1.3-0.2,1.7-0.6c0.4-0.4,0.6-1,0.6-1.8v-1.9c-0.2,0.5-0.6,0.9-1,1.2
				c-0.5,0.3-1,0.4-1.6,0.4c-0.7,0-1.3-0.2-1.8-0.5c-0.5-0.3-0.9-0.8-1.2-1.3s-0.4-1.2-0.4-2c0-0.7,0.1-1.4,0.4-2s0.7-1,1.2-1.3
				c0.5-0.3,1.1-0.5,1.8-0.5c0.6,0,1.2,0.1,1.6,0.4c0.4,0.3,0.8,0.6,1,1.1v-1.4H301.6z M300,227.5c0.4-0.5,0.7-1.2,0.7-2.1
				c0-0.9-0.2-1.6-0.7-2.2c-0.4-0.5-1.1-0.8-1.8-0.8c-0.8,0-1.4,0.3-1.9,0.8s-0.7,1.2-0.7,2.2s0.2,1.6,0.7,2.2
				c0.5,0.5,1.1,0.8,1.9,0.8C299,228.2,299.6,228,300,227.5z"/>
			<path class="st10" d="M310.4,224.5v4.8h-0.9v-4.8c0-0.8-0.2-1.3-0.5-1.7c-0.3-0.4-0.8-0.5-1.4-0.5c-0.8,0-1.4,0.2-1.8,0.7
				c-0.5,0.5-0.7,1.1-0.7,1.9v4.4h-0.9v-5.5c0-0.8,0-1.5-0.1-2.1h0.9l0.1,1.4c0.2-0.5,0.6-0.9,1-1.2c0.5-0.3,1-0.4,1.6-0.4
				C309.5,221.6,310.4,222.5,310.4,224.5z"/>
			<path class="st10" d="M319.3,221.7v7.6h-0.9v-1.4c-0.2,0.5-0.6,0.9-1,1.2c-0.4,0.3-1,0.4-1.6,0.4c-0.7,0-1.3-0.2-1.8-0.5
				c-0.5-0.3-0.9-0.8-1.2-1.4c-0.3-0.6-0.4-1.3-0.4-2.1c0-0.8,0.1-1.5,0.4-2.1c0.3-0.6,0.7-1.1,1.2-1.4c0.5-0.3,1.1-0.5,1.8-0.5
				c0.6,0,1.1,0.1,1.6,0.4c0.4,0.3,0.8,0.6,1,1.1v-1.4H319.3z M317.7,227.8c0.4-0.5,0.6-1.3,0.6-2.3c0-1-0.2-1.8-0.6-2.3
				s-1-0.8-1.8-0.8s-1.4,0.3-1.9,0.8c-0.4,0.6-0.7,1.3-0.7,2.3c0,1,0.2,1.7,0.7,2.3c0.4,0.5,1.1,0.8,1.9,0.8
				C316.6,228.6,317.2,228.3,317.7,227.8z"/>
			<path class="st10" d="M323,222.5v4.5c0,0.6,0.1,1,0.3,1.3s0.6,0.3,1,0.3c0.3,0,0.6,0,0.8-0.1v0.8c-0.3,0.1-0.6,0.1-1,0.1
				c-0.7,0-1.2-0.2-1.6-0.6c-0.4-0.4-0.6-0.9-0.6-1.7v-4.7h-1.5v-0.7h1.5v-2l0.9-0.3v2.4h2.2v0.7H323z"/>
			<path class="st10" d="M327.9,218.6v1.2h-1.2v-1.2H327.9z M326.8,221.7h0.9v7.6h-0.9V221.7z"/>
			<path class="st10" d="M331.5,228.9c-0.5-0.3-0.9-0.8-1.2-1.4s-0.4-1.3-0.4-2.1s0.1-1.5,0.4-2.1c0.3-0.6,0.7-1.1,1.2-1.4
				c0.5-0.3,1.1-0.5,1.8-0.5c0.7,0,1.3,0.2,1.8,0.5c0.5,0.3,0.9,0.8,1.2,1.4c0.3,0.6,0.4,1.3,0.4,2.1s-0.1,1.5-0.4,2.1
				s-0.7,1.1-1.2,1.4s-1.1,0.5-1.8,0.5C332.6,229.4,332,229.2,331.5,228.9z M335.1,227.8c0.4-0.5,0.7-1.3,0.7-2.3
				c0-1-0.2-1.8-0.7-2.3c-0.4-0.5-1.1-0.8-1.8-0.8c-0.8,0-1.4,0.3-1.9,0.8c-0.4,0.5-0.7,1.3-0.7,2.3c0,1,0.2,1.8,0.6,2.3
				s1.1,0.8,1.9,0.8S334.7,228.3,335.1,227.8z"/>
			<path class="st10" d="M345,224.5v4.8h-0.9v-4.8c0-0.8-0.2-1.3-0.5-1.7c-0.3-0.4-0.8-0.5-1.4-0.5c-0.8,0-1.4,0.2-1.8,0.7
				c-0.5,0.5-0.7,1.1-0.7,1.9v4.4h-0.9v-5.5c0-0.8,0-1.5-0.1-2.1h0.9l0.1,1.4c0.2-0.5,0.6-0.9,1-1.2c0.5-0.3,1-0.4,1.6-0.4
				C344.1,221.6,345,222.5,345,224.5z"/>
		</g>
		<g class="st4">
			<path class="st10" d="M106.2,243.8h7.6v0.7h-7.6V243.8z"/>
			<path class="st10" d="M119,237.4h0.9v10.7H119V237.4z"/>
			<path class="st10" d="M128.9,243.4v4.8h-0.9v-4.8c0-0.8-0.2-1.3-0.5-1.7c-0.3-0.4-0.8-0.5-1.4-0.5c-0.8,0-1.4,0.2-1.8,0.7
				c-0.5,0.5-0.7,1.1-0.7,1.9v4.4h-0.9v-5.5c0-0.8,0-1.5-0.1-2.1h0.9l0.1,1.4c0.2-0.5,0.6-0.9,1-1.2c0.5-0.3,1-0.4,1.6-0.4
				C127.9,240.4,128.9,241.4,128.9,243.4z"/>
			<path class="st10" d="M135.3,237.4h4.1c1.1,0,1.9,0.3,2.5,0.8c0.6,0.5,0.9,1.2,0.9,2.2c0,0.9-0.3,1.7-0.9,2.2
				c-0.6,0.5-1.5,0.8-2.5,0.8h-3.2v4.8h-0.9V237.4z M139.4,242.5c0.8,0,1.5-0.2,1.9-0.6c0.4-0.4,0.6-0.9,0.6-1.6
				c0-0.7-0.2-1.2-0.6-1.6c-0.4-0.4-1.1-0.6-1.9-0.6h-3.1v4.3H139.4z"/>
			<path class="st10" d="M148.7,240.5l0,0.8c-0.2,0-0.4-0.1-0.7-0.1c-0.8,0-1.3,0.2-1.7,0.7c-0.4,0.5-0.6,1.1-0.6,1.7v4.4h-0.9v-5.5
				c0-0.8,0-1.5-0.1-2.1h0.9l0.1,1.4c0.2-0.5,0.5-0.9,0.9-1.2c0.4-0.3,0.9-0.4,1.5-0.4C148.2,240.4,148.5,240.4,148.7,240.5z"/>
			<path class="st10" d="M151,247.8c-0.5-0.3-0.9-0.8-1.2-1.4s-0.4-1.3-0.4-2.1s0.1-1.5,0.4-2.1c0.3-0.6,0.7-1.1,1.2-1.4
				c0.5-0.3,1.1-0.5,1.8-0.5c0.7,0,1.3,0.2,1.8,0.5c0.5,0.3,0.9,0.8,1.2,1.4c0.3,0.6,0.4,1.3,0.4,2.1s-0.1,1.5-0.4,2.1
				s-0.7,1.1-1.2,1.4s-1.1,0.5-1.8,0.5C152.2,248.3,151.6,248.1,151,247.8z M154.7,246.6c0.4-0.5,0.7-1.3,0.7-2.3
				c0-1-0.2-1.8-0.7-2.3c-0.4-0.5-1.1-0.8-1.8-0.8c-0.8,0-1.4,0.3-1.9,0.8c-0.4,0.5-0.7,1.3-0.7,2.3c0,1,0.2,1.8,0.6,2.3
				s1.1,0.8,1.9,0.8S154.3,247.2,154.7,246.6z"/>
			<path class="st10" d="M159.5,247.8c-0.5-0.3-0.9-0.8-1.2-1.4c-0.3-0.6-0.4-1.3-0.4-2c0-0.8,0.1-1.5,0.4-2.1
				c0.3-0.6,0.7-1.1,1.3-1.4c0.5-0.3,1.2-0.5,1.9-0.5c0.5,0,1,0.1,1.5,0.3s0.9,0.4,1.2,0.7l-0.4,0.7c-0.4-0.3-0.8-0.6-1.1-0.7
				c-0.4-0.1-0.7-0.2-1.1-0.2c-0.8,0-1.5,0.3-1.9,0.8c-0.5,0.6-0.7,1.3-0.7,2.3c0,1,0.2,1.7,0.7,2.3c0.5,0.5,1.1,0.8,1.9,0.8
				c0.4,0,0.8-0.1,1.1-0.2c0.4-0.1,0.7-0.4,1.1-0.7l0.4,0.7c-0.3,0.3-0.7,0.6-1.2,0.7c-0.5,0.2-1,0.3-1.5,0.3
				C160.7,248.3,160.1,248.1,159.5,247.8z"/>
			<path class="st10" d="M166.2,244.3L166.2,244.3c0,1.1,0.2,1.8,0.7,2.4s1.1,0.8,2,0.8c0.9,0,1.7-0.3,2.5-0.9l0.4,0.7
				c-0.3,0.3-0.8,0.6-1.3,0.7c-0.5,0.2-1,0.3-1.6,0.3c-1.1,0-2.1-0.3-2.7-1c-0.7-0.7-1-1.6-1-2.9c0-0.8,0.1-1.5,0.4-2.1
				c0.3-0.6,0.7-1.1,1.2-1.4s1.1-0.5,1.8-0.5c1,0,1.8,0.3,2.3,1c0.6,0.6,0.8,1.5,0.8,2.7v0.2H166.2z M167.1,241.8
				c-0.4,0.4-0.7,1-0.8,1.8h4.8c-0.1-0.8-0.3-1.4-0.7-1.8c-0.4-0.4-0.9-0.6-1.6-0.6C168.1,241.2,167.5,241.4,167.1,241.8z"/>
			<path class="st10" d="M173.5,247.3l0.3-0.7c0.4,0.3,0.8,0.6,1.2,0.7c0.4,0.1,0.9,0.2,1.4,0.2c0.6,0,1.1-0.1,1.4-0.3
				c0.3-0.2,0.5-0.5,0.5-0.9c0-0.3-0.1-0.6-0.3-0.8c-0.2-0.2-0.6-0.4-1.1-0.5l-1.3-0.3c-0.6-0.1-1.1-0.4-1.4-0.8s-0.5-0.8-0.5-1.3
				c0-0.7,0.3-1.2,0.8-1.6c0.5-0.4,1.2-0.6,2-0.6c0.5,0,1,0.1,1.5,0.3c0.5,0.2,0.8,0.4,1.1,0.7l-0.3,0.7c-0.7-0.6-1.5-0.9-2.3-0.9
				c-0.6,0-1,0.1-1.4,0.3c-0.3,0.2-0.5,0.6-0.5,1c0,0.3,0.1,0.6,0.3,0.8c0.2,0.2,0.5,0.4,1,0.5l1.3,0.3c1.4,0.3,2,1,2,2
				c0,0.6-0.3,1.1-0.8,1.5c-0.5,0.4-1.2,0.6-2.1,0.6C175.2,248.3,174.2,247.9,173.5,247.3z"/>
			<path class="st10" d="M180.9,247.3l0.3-0.7c0.4,0.3,0.8,0.6,1.2,0.7c0.4,0.1,0.9,0.2,1.4,0.2c0.6,0,1.1-0.1,1.4-0.3
				c0.3-0.2,0.5-0.5,0.5-0.9c0-0.3-0.1-0.6-0.3-0.8c-0.2-0.2-0.6-0.4-1.1-0.5l-1.3-0.3c-0.6-0.1-1.1-0.4-1.4-0.8s-0.5-0.8-0.5-1.3
				c0-0.7,0.3-1.2,0.8-1.6c0.5-0.4,1.2-0.6,2-0.6c0.5,0,1,0.1,1.5,0.3c0.5,0.2,0.8,0.4,1.1,0.7l-0.3,0.7c-0.7-0.6-1.5-0.9-2.3-0.9
				c-0.6,0-1,0.1-1.4,0.3c-0.3,0.2-0.5,0.6-0.5,1c0,0.3,0.1,0.6,0.3,0.8c0.2,0.2,0.5,0.4,1,0.5l1.3,0.3c1.4,0.3,2,1,2,2
				c0,0.6-0.3,1.1-0.8,1.5c-0.5,0.4-1.2,0.6-2.1,0.6C182.6,248.3,181.6,247.9,180.9,247.3z"/>
		</g>
	</g>
	<g>
		<rect x="64.6" y="100.6" class="st3" width="160.7" height="19.4"/>
		<g class="st4">
			<path class="st2" d="M76,107.3c0,2.6-1.9,4.1-5,4.1h-2.9v3.6h-1.7v-11.9H71C74.1,103.1,76,104.7,76,107.3z M74.3,107.3
				c0-1.7-1.1-2.7-3.3-2.7h-2.9v5.3H71C73.1,109.9,74.3,109,74.3,107.3z"/>
			<path class="st2" d="M82.9,105.9v1.6c-0.1,0-0.3,0-0.4,0c-1.7,0-2.8,1.1-2.8,3v4.5h-1.6v-9h1.6v1.5
				C80.2,106.5,81.3,105.9,82.9,105.9z"/>
			<path class="st2" d="M92.9,111.1h-7.3c0.2,1.6,1.5,2.6,3.3,2.6c1.1,0,1.9-0.4,2.6-1.1l0.9,1.1c-0.8,1-2.1,1.5-3.5,1.5
				c-2.9,0-4.8-1.9-4.8-4.6c0-2.7,1.9-4.6,4.5-4.6s4.4,1.9,4.4,4.6C93,110.7,92.9,110.9,92.9,111.1z M85.6,109.9h5.8
				c-0.2-1.5-1.3-2.6-2.9-2.6C86.9,107.3,85.8,108.4,85.6,109.9z"/>
			<path class="st2" d="M94.8,109.7h4.6v1.4h-4.6V109.7z"/>
			<path class="st2" d="M109.4,112.1h-6.3l-1.3,3H100l5.4-11.9h1.7l5.4,11.9h-1.8L109.4,112.1z M108.8,110.7l-2.6-5.8l-2.6,5.8
				H108.8z"/>
			<path class="st2" d="M122.2,106v9h-1.5v-1.4c-0.7,0.9-1.8,1.5-3.1,1.5c-2.3,0-3.9-1.3-3.9-3.9V106h1.6v5c0,1.8,0.9,2.6,2.4,2.6
				c1.7,0,2.8-1.1,2.8-3V106H122.2z"/>
			<path class="st2" d="M130.4,114.5c-0.5,0.4-1.2,0.6-2,0.6c-1.8,0-2.9-1-2.9-2.8v-4.9H124V106h1.5v-2h1.6v2h2.6v1.3h-2.6v4.9
				c0,1,0.5,1.5,1.4,1.5c0.5,0,0.9-0.2,1.3-0.4L130.4,114.5z"/>
			<path class="st2" d="M140.9,109.8v5.2h-1.6v-5c0-1.8-0.9-2.6-2.4-2.6c-1.7,0-2.9,1-2.9,3v4.6h-1.6v-12.6h1.6v4.9
				c0.7-0.9,1.8-1.4,3.2-1.4C139.3,105.9,140.9,107.2,140.9,109.8z"/>
			<path class="st2" d="M143.1,110.5c0-2.7,2-4.6,4.7-4.6c2.7,0,4.7,1.9,4.7,4.6c0,2.7-2,4.6-4.7,4.6
				C145.1,115.1,143.1,113.2,143.1,110.5z M150.8,110.5c0-1.9-1.3-3.2-3-3.2c-1.7,0-3,1.2-3,3.2c0,1.9,1.3,3.2,3,3.2
				C149.5,113.7,150.8,112.4,150.8,110.5z"/>
			<path class="st2" d="M159.6,105.9v1.6c-0.1,0-0.3,0-0.4,0c-1.7,0-2.8,1.1-2.8,3v4.5h-1.6v-9h1.6v1.5
				C156.9,106.5,158,105.9,159.6,105.9z"/>
			<path class="st2" d="M161.3,103.2c0-0.6,0.5-1.1,1.1-1.1s1.1,0.5,1.1,1c0,0.6-0.5,1.1-1.1,1.1
				C161.8,104.3,161.3,103.8,161.3,103.2z M161.6,106h1.6v9h-1.6V106z"/>
			<path class="st2" d="M173,113.7v1.3h-7.5V114l5.3-6.6h-5.2V106h7.3v1.1l-5.3,6.6H173z"/>
			<path class="st2" d="M182.3,109.6v5.4h-1.5v-1.2c-0.5,0.8-1.5,1.3-3,1.3c-2,0-3.3-1.1-3.3-2.6c0-1.4,0.9-2.6,3.6-2.6h2.6v-0.3
				c0-1.4-0.8-2.2-2.4-2.2c-1.1,0-2.2,0.4-2.9,1l-0.7-1.2c0.9-0.7,2.3-1.2,3.7-1.2C180.9,105.9,182.3,107.1,182.3,109.6z
				 M180.7,112.3V111h-2.5c-1.6,0-2.1,0.6-2.1,1.4c0,0.9,0.7,1.5,2,1.5C179.3,113.9,180.3,113.3,180.7,112.3z"/>
			<path class="st2" d="M190.4,114.5c-0.5,0.4-1.2,0.6-2,0.6c-1.8,0-2.9-1-2.9-2.8v-4.9H184V106h1.5v-2h1.6v2h2.6v1.3h-2.6v4.9
				c0,1,0.5,1.5,1.4,1.5c0.5,0,0.9-0.2,1.3-0.4L190.4,114.5z"/>
			<path class="st2" d="M192.1,103.2c0-0.6,0.5-1.1,1.1-1.1c0.6,0,1.1,0.5,1.1,1c0,0.6-0.5,1.1-1.1,1.1
				C192.5,104.3,192.1,103.8,192.1,103.2z M192.3,106h1.6v9h-1.6V106z"/>
			<path class="st2" d="M196.2,110.5c0-2.7,2-4.6,4.7-4.6c2.7,0,4.7,1.9,4.7,4.6c0,2.7-2,4.6-4.7,4.6
				C198.2,115.1,196.2,113.2,196.2,110.5z M203.9,110.5c0-1.9-1.3-3.2-3-3.2c-1.7,0-3,1.2-3,3.2c0,1.9,1.3,3.2,3,3.2
				C202.7,113.7,203.9,112.4,203.9,110.5z"/>
			<path class="st2" d="M216.4,109.8v5.2h-1.6v-5c0-1.8-0.9-2.6-2.4-2.6c-1.7,0-2.9,1-2.9,3v4.6h-1.6v-9h1.6v1.4
				c0.7-0.9,1.8-1.4,3.2-1.4C214.8,105.9,216.4,107.2,216.4,109.8z"/>
		</g>
	</g>
	<rect x="77.7" y="138.4" class="st2" width="0.8" height="67.7"/>
	<g>
		<g id="g56755_3_" transform="matrix(14,0,0,14,49637.042,519374.88)">
			<path id="path56757_3_" class="st13" d="M-3539.1-37082.3c0,0.4-0.3,0.8-0.8,0.8l0,0c-0.4,0-0.8-0.3-0.8-0.8l0,0
				c0-0.4,0.3-0.8,0.8-0.8l0,0C-3539.5-37083-3539.1-37082.7-3539.1-37082.3L-3539.1-37082.3z"/>
		</g>
		<path id="path53460_3_" class="st14" d="M83.5,218c-3.2,1.6-4.8,4.7-6.3,7.6l-2.2-2.2c-1.1,0.8-2.2,1.5-3.3,2.1l9,9
			c5-1.1,8.6-5.4,8.9-10.5L83.5,218z"/>
		<path id="path38606_3_" class="st6" d="M75,223.5c0.7,0.8,1.2,1.9,1.7,3.1c1.7-3.2,3.3-6.8,6.8-8.6c-0.3,1.5-0.6,3.2-0.1,4.7
			c-3,1.5-4.8,4.2-6.7,7c-1.8-2.5-3.3-3.3-5.1-4.2C72.7,225,73.9,224.3,75,223.5L75,223.5z"/>
	</g>
</g>
</svg>
