<?xml version="1.0" encoding="utf-8"?>
<!-- Generator: Adobe Illustrator 25.2.3, SVG Export Plug-In . SVG Version: 6.00 Build 0)  -->
<svg version="1.1" id="Layer_1" xmlns="http://www.w3.org/2000/svg" xmlns:xlink="http://www.w3.org/1999/xlink" x="0px" y="0px"
	 viewBox="0 0 90 90" style="enable-background:new 0 0 90 90;" xml:space="preserve">
<style type="text/css">
	.st0{fill:#1A4480;}
	.st1{fill:#E5E5E5;}
	.st2{fill:#FFFFFF;}
	.st3{fill:#3AAA35;}
	.st4{fill:#006633;}
	.st5{opacity:0.5;fill:#DBDBDB;enable-background:new    ;}
</style>
<g id="Group_8242" transform="translate(-95.753 -7552.753)">
	<g id="Group_8241" transform="translate(95.438 7552.438)">
		<circle id="Ellipse_1293" class="st0" cx="45.3" cy="45.3" r="45"/>
		<g>
			<g id="Group_1666" transform="translate(1.966)">
				<g id="Group_1665">
					<g id="Group_1664">
						<g id="Group_1655" transform="translate(16.249)">
							<g id="Group_1654">
								<g id="Group_1653">
									<g id="Group_1652">
										<g id="Group_1651">
											<g id="Group_1650">
												<g id="Group_1649">
													<path id="Path_1555" class="st1" d="M36.2,20.9v8.9h8.9L36.2,20.9z"/>
												</g>
											</g>
										</g>
									</g>
								</g>
							</g>
						</g>
						<g id="Group_1663">
							<g id="Group_1662">
								<g id="Group_1661">
									<g id="Group_1660">
										<g id="Group_1659">
											<g id="Group_1658">
												<g id="Group_1657">
													<g id="Group_1656">
														<path id="Path_1556" class="st2" d="M52.4,29.8v-8.9H25.8v46h35.6V29.8H52.4z"/>
													</g>
												</g>
											</g>
										</g>
									</g>
								</g>
							</g>
						</g>
					</g>
				</g>
			</g>
			<path id="Path_1557" class="st3" d="M65.1,36H25.7c-0.6,0-1.2,0.5-1.2,1.2v13h40.6c0.6,0,1.2-0.5,1.2-1.2V37.2
				C66.3,36.5,65.7,36,65.1,36L65.1,36z"/>
			<path id="Path_1558" class="st4" d="M24.5,50.1l3.2,3.2v-3.2H24.5z"/>
			<g id="Group_1667" transform="translate(15.098 19.066)">
				<path id="Path_1559" class="st5" d="M48.2,34.3c-4.5-2.6-10.3-1-12.8,3.5c-1.8,3.1-1.6,7,0.4,10h12.4V34.3z"/>
			</g>
			<ellipse id="Ellipse_196" class="st2" cx="58.7" cy="61.5" rx="7.5" ry="7.5"/>
			<path id="Path_1560" class="st3" d="M62.4,61.5h-1.7v-3.7c0-0.1-0.1-0.2-0.2-0.2l0,0h-3.7c-0.1,0-0.2,0.1-0.2,0.2v3.7h-1.7
				c-0.1,0-0.2,0.1-0.2,0.2c0,0.1,0,0.1,0.1,0.1l3.8,4.6c0.1,0.1,0.2,0.1,0.3,0c0,0,0,0,0,0l3.8-4.6c0.1-0.1,0.1-0.2,0-0.3
				C62.6,61.6,62.5,61.5,62.4,61.5z"/>
			<g id="Group_1668" transform="translate(5.6 10.708)">
				<path id="Path_1561" class="st2" d="M30.6,32.3l-2.4-4.5h2.4l0.7,1.7c0.2,0.4,0.4,0.9,0.7,1.5h0.1c0.2-0.6,0.4-1.1,0.6-1.5
					l0.7-1.7h2.3l-2.4,4.6l2.5,4.6h-2.4l-0.9-1.8c-0.2-0.5-0.4-0.9-0.7-1.5h-0.1c-0.2,0.6-0.4,1-0.6,1.5l-0.8,1.8h-2.3L30.6,32.3z"
					/>
				<path id="Path_1562" class="st2" d="M37.4,27.9h2.2v7.4h3.6v1.8h-5.8L37.4,27.9z"/>
				<path id="Path_1563" class="st2" d="M44.2,35.9l1.2-1.4c0.6,0.6,1.5,0.9,2.3,0.9c0.8,0,1.2-0.3,1.2-0.8c0-0.5-0.5-0.7-1.3-1
					L46.4,33c-1.1-0.3-1.8-1.4-1.9-2.5c0.1-1.7,1.6-2.9,3.2-2.8c0,0,0.1,0,0.1,0c1.1,0,2.2,0.4,3,1.1l-1.1,1.4
					c-0.5-0.4-1.2-0.6-1.8-0.7c-0.7,0-1.1,0.3-1.1,0.7c0,0.5,0.6,0.7,1.4,1l1.1,0.5c1.1,0.3,1.9,1.3,1.8,2.5c-0.1,1.7-1.6,3-3.3,2.9
					c-0.1,0-0.1,0-0.2,0C46.3,37.3,45.1,36.8,44.2,35.9z"/>
			</g>
		</g>
	</g>
</g>
</svg>
