<?xml version="1.0" encoding="utf-8"?>
<!-- Generator: Adobe Illustrator 24.2.3, SVG Export Plug-In . SVG Version: 6.00 Build 0)  -->
<svg version="1.1" xmlns="http://www.w3.org/2000/svg" xmlns:xlink="http://www.w3.org/1999/xlink" x="0px" y="0px"
	 viewBox="0 0 450 292.9" style="enable-background:new 0 0 450 292.9;" xml:space="preserve">
<style type="text/css">
	.st0{opacity:0.46;fill:#FFFFFF;enable-background:new    ;}
	.st1{fill:#F1F1F1;}
	.st2{fill:#3E8EB2;}
	.st3{fill:none;}
	.st4{enable-background:new    ;}
	.st5{fill:#4292BD;}
	.st6{fill:#FFFFFF;}
	.st7{fill:#AFD5E2;}
	.st8{opacity:0.46;fill:#4998B8;enable-background:new    ;}
	.st9{opacity:0.6;fill:#3E8EB2;enable-background:new    ;}
	.st10{fill:#444444;}
	.st11{fill:#757575;}
	.st12{opacity:0.55;}
	.st13{fill:#B6322E;}
	.st14{opacity:0.1;enable-background:new    ;}
	.st15{opacity:0.55;fill:#F1F1F1;enable-background:new    ;}
	.st16{opacity:0.55;fill:#3E8EB2;enable-background:new    ;}
</style>
<g id="Layer_6">
</g>
<g id="Shapes">
</g>
<g id="background">
</g>
<g id="text">
</g>
<g id="Graphics">
</g>
<g id="Layer_5">
	<rect x="52.8" class="st0" width="351.6" height="291.7"/>
	<rect x="63.3" y="10.9" class="st1" width="45.2" height="37"/>
	<g>
		<polygon class="st2" points="111.4,13.6 111.4,45.2 346,45.2 346,43.9 346,40.9 355.6,46.7 346,52.4 346,47.9 108.8,47.9 
			108.8,10.9 127.2,10.9 384.8,10.9 392.8,29.4 384.8,47.9 361.7,47.9 361.7,45.2 382.8,45.2 383.2,44.5 389.2,30 389.4,29.4 
			389.2,28.9 383.2,14.3 382.8,13.6 		"/>
	</g>
	<g class="st4">
		<path class="st2" d="M124.7,29.5c0-3,2.3-5.1,5.4-5.1c1.6,0,3,0.6,4,1.7l-1.2,1.1c-0.7-0.8-1.6-1.2-2.7-1.2
			c-2.1,0-3.6,1.5-3.6,3.5c0,2.1,1.5,3.5,3.6,3.5c1,0,1.9-0.4,2.7-1.2l1.2,1.1c-0.9,1.1-2.3,1.7-4,1.7
			C126.9,34.6,124.7,32.4,124.7,29.5z"/>
		<path class="st2" d="M134.7,30.6c0-2.3,1.7-3.9,4.1-3.9c2.4,0,4.1,1.6,4.1,3.9s-1.7,3.9-4.1,3.9C136.4,34.6,134.7,32.9,134.7,30.6
			z M141,30.6c0-1.5-1-2.4-2.3-2.4c-1.3,0-2.3,0.9-2.3,2.4s1,2.4,2.3,2.4C140,33,141,32.1,141,30.6z"/>
		<path class="st2" d="M152,30.1v4.4h-1.8v-4.1c0-1.4-0.7-2-1.8-2c-1.3,0-2.1,0.8-2.1,2.3v3.9h-1.8v-7.6h1.7v1
			c0.6-0.7,1.5-1.1,2.6-1.1C150.7,26.7,152,27.8,152,30.1z"/>
		<path class="st2" d="M158.9,34c-0.4,0.3-1.1,0.5-1.7,0.5c-1.7,0-2.6-0.9-2.6-2.6v-3.7h-1.3v-1.4h1.3v-1.7h1.8v1.7h2v1.4h-2v3.6
			c0,0.7,0.4,1.1,1.1,1.1c0.4,0,0.7-0.1,1-0.3L158.9,34z"/>
		<path class="st2" d="M160.1,24.5c0-0.6,0.5-1.1,1.1-1.1c0.7,0,1.1,0.4,1.1,1c0,0.6-0.5,1.1-1.1,1.1
			C160.6,25.6,160.1,25.1,160.1,24.5z M160.4,26.8h1.8v7.6h-1.8V26.8z"/>
		<path class="st2" d="M172,30.1v4.4h-1.8v-4.1c0-1.4-0.7-2-1.8-2c-1.3,0-2.1,0.8-2.1,2.3v3.9h-1.8v-7.6h1.7v1
			c0.6-0.7,1.5-1.1,2.6-1.1C170.7,26.7,172,27.8,172,30.1z"/>
		<path class="st2" d="M181.7,26.8v7.6H180v-1c-0.6,0.7-1.5,1.1-2.5,1.1c-2,0-3.3-1.1-3.3-3.4v-4.4h1.8v4.1c0,1.4,0.7,2,1.8,2
			c1.2,0,2.1-0.8,2.1-2.3v-3.9H181.7z"/>
		<path class="st2" d="M183.4,30.6c0-2.3,1.7-3.9,4.1-3.9c2.4,0,4.1,1.6,4.1,3.9s-1.7,3.9-4.1,3.9C185.1,34.6,183.4,32.9,183.4,30.6
			z M189.8,30.6c0-1.5-1-2.4-2.3-2.4c-1.3,0-2.3,0.9-2.3,2.4s1,2.4,2.3,2.4C188.8,33,189.8,32.1,189.8,30.6z"/>
		<path class="st2" d="M200.7,26.8v7.6H199v-1c-0.6,0.7-1.5,1.1-2.5,1.1c-2,0-3.3-1.1-3.3-3.4v-4.4h1.8v4.1c0,1.4,0.7,2,1.8,2
			c1.2,0,2.1-0.8,2.1-2.3v-3.9H200.7z"/>
		<path class="st2" d="M202.1,33.7l0.7-1.4c0.7,0.4,1.7,0.8,2.7,0.8c1.1,0,1.6-0.3,1.6-0.8c0-1.5-4.7-0.1-4.7-3.1
			c0-1.4,1.3-2.4,3.4-2.4c1,0,2.2,0.2,2.9,0.7l-0.7,1.4c-0.7-0.4-1.5-0.6-2.2-0.6c-1.1,0-1.6,0.4-1.6,0.9c0,1.5,4.7,0.2,4.7,3.2
			c0,1.4-1.3,2.4-3.5,2.4C204.1,34.6,202.8,34.2,202.1,33.7z"/>
		<path class="st2" d="M223.7,34.5l0-6.6l-3.3,5.5h-0.8l-3.3-5.4v6.5h-1.8v-10h1.5l4,6.6l3.9-6.6h1.5l0,10H223.7z"/>
		<path class="st2" d="M227.3,30.6c0-2.3,1.7-3.9,4.1-3.9c2.4,0,4.1,1.6,4.1,3.9s-1.7,3.9-4.1,3.9C229.1,34.6,227.3,32.9,227.3,30.6
			z M233.7,30.6c0-1.5-1-2.4-2.3-2.4c-1.3,0-2.3,0.9-2.3,2.4s1,2.4,2.3,2.4C232.7,33,233.7,32.1,233.7,30.6z"/>
		<path class="st2" d="M244.7,30.1v4.4h-1.8v-4.1c0-1.4-0.7-2-1.8-2c-1.3,0-2.1,0.8-2.1,2.3v3.9h-1.8v-7.6h1.7v1
			c0.6-0.7,1.5-1.1,2.6-1.1C243.3,26.7,244.7,27.8,244.7,30.1z"/>
		<path class="st2" d="M246.7,24.5c0-0.6,0.5-1.1,1.1-1.1c0.7,0,1.1,0.4,1.1,1c0,0.6-0.5,1.1-1.1,1.1
			C247.2,25.6,246.7,25.1,246.7,24.5z M247,26.8h1.8v7.6H247V26.8z"/>
		<path class="st2" d="M255.7,34c-0.4,0.3-1.1,0.5-1.7,0.5c-1.7,0-2.6-0.9-2.6-2.6v-3.7h-1.3v-1.4h1.3v-1.7h1.8v1.7h2v1.4h-2v3.6
			c0,0.7,0.4,1.1,1.1,1.1c0.4,0,0.7-0.1,1-0.3L255.7,34z"/>
		<path class="st2" d="M256.3,30.6c0-2.3,1.7-3.9,4.1-3.9c2.4,0,4.1,1.6,4.1,3.9s-1.7,3.9-4.1,3.9C258,34.6,256.3,32.9,256.3,30.6z
			 M262.6,30.6c0-1.5-1-2.4-2.3-2.4c-1.3,0-2.3,0.9-2.3,2.4s1,2.4,2.3,2.4C261.6,33,262.6,32.1,262.6,30.6z"/>
		<path class="st2" d="M270.6,26.7v1.7c-0.2,0-0.3,0-0.4,0c-1.4,0-2.2,0.8-2.2,2.4v3.7h-1.8v-7.6h1.7v1.1
			C268.4,27.1,269.3,26.7,270.6,26.7z"/>
		<path class="st2" d="M271.8,24.5c0-0.6,0.5-1.1,1.1-1.1c0.7,0,1.1,0.4,1.1,1c0,0.6-0.5,1.1-1.1,1.1
			C272.3,25.6,271.8,25.1,271.8,24.5z M272.1,26.8h1.8v7.6h-1.8V26.8z"/>
		<path class="st2" d="M283.7,30.1v4.4h-1.8v-4.1c0-1.4-0.7-2-1.8-2c-1.3,0-2.1,0.8-2.1,2.3v3.9h-1.8v-7.6h1.7v1
			c0.6-0.7,1.5-1.1,2.6-1.1C282.4,26.7,283.7,27.8,283.7,30.1z"/>
		<path class="st2" d="M293.6,26.8v6.5c0,2.8-1.4,4-4.1,4c-1.4,0-2.8-0.4-3.7-1.1l0.8-1.3c0.7,0.6,1.8,0.9,2.8,0.9
			c1.7,0,2.4-0.8,2.4-2.3v-0.4c-0.6,0.7-1.5,1-2.6,1c-2.2,0-3.9-1.5-3.9-3.7c0-2.2,1.7-3.7,3.9-3.7c1.1,0,2,0.3,2.6,1.1v-1H293.6z
			 M291.9,30.4c0-1.3-1-2.2-2.3-2.2c-1.4,0-2.3,0.9-2.3,2.2c0,1.3,1,2.2,2.3,2.2C290.9,32.6,291.9,31.7,291.9,30.4z"/>
	</g>
	<g>
		<path class="st6" d="M78.2,39.2c-2.3,0-4.2-0.9-5.6-2.7c-1.4-1.8-2.2-4.2-2.2-7.2c0-2.9,0.8-5.3,2.2-7.2c1.4-1.8,3.3-2.8,5.6-2.8
			c2.3,0,4.2,0.9,5.6,2.8c1.4,1.8,2.2,4.2,2.2,7.2s-0.8,5.3-2.2,7.2C82.3,38.3,80.4,39.2,78.2,39.2L78.2,39.2z M78.2,23.8
			c-0.6,0-1,0.3-1.2,1c-0.2,0.6-0.5,1.9-0.5,4.5c0,2.7,0.2,3.9,0.5,4.5c0.2,0.7,0.7,1,1.2,1s1-0.3,1.3-1c0.2-0.6,0.5-1.8,0.5-4.5
			s-0.2-3.9-0.5-4.5C79.2,24.2,78.8,23.8,78.2,23.8L78.2,23.8z M92.9,39.2c-2.2,0-3.8-0.5-5.2-1.4c-1.4-1-2.2-2.4-2.2-4.2
			c0-1.2,0.3-2.2,1-2.8c0.7-0.8,1.5-1.1,2.5-1.1c0.8,0,1.6,0.3,2.2,0.9c0.6,0.6,0.9,1.4,0.9,2.4c0,0.8-0.2,1.4-0.7,1.9
			c0.2,0,0.4,0,0.6,0c0.9,0,1.6-0.2,2.1-0.7c0.4-0.3,0.6-0.8,0.6-1.6c0-0.8-0.2-1-0.5-1.2c-0.3-0.2-0.9-0.5-2.3-0.5
			c-0.4,0-0.8-0.4-0.8-0.9V28c-0.5,0.4-1.2,0.7-1.9,0.7c-0.9,0-1.7-0.3-2.3-0.9c-0.6-0.7-0.9-1.5-0.9-2.6c0-1.8,0.8-3.2,2.1-4.2
			c1.2-0.9,2.9-1.4,5-1.4c2.3,0,4.1,0.4,5.3,1.3c1.4,0.9,2.2,2.4,2.2,4.2c0,1.2-0.4,2.2-1.2,3.1c-0.2,0.2-0.4,0.4-0.6,0.6
			c0.4,0.2,0.8,0.6,1.2,0.9c0.8,0.9,1.2,2,1.2,3.3c0,2.1-0.8,3.8-2.3,4.8C97.7,38.8,95.7,39.2,92.9,39.2L92.9,39.2z M91.8,23.7
			c0.3,0.5,0.6,1.1,0.6,1.8c0,0.5-0.1,1-0.2,1.3c1.1-0.1,1.7-0.3,1.9-0.5c0.3-0.2,0.4-0.5,0.4-1s-0.2-0.8-0.5-1.1
			c-0.4-0.3-1.1-0.5-1.8-0.5C92.1,23.7,91.9,23.7,91.8,23.7L91.8,23.7z"/>
		<path class="st2" d="M71.2,29.4c0-2.7,0.7-4.8,1.9-6.5c1.2-1.7,3-2.4,5.1-2.4s3.8,0.8,5.1,2.4c1.2,1.7,1.9,3.8,1.9,6.5
			c0,2.7-0.7,4.8-1.9,6.5c-1.3,1.7-3,2.4-5.1,2.4s-3.8-0.8-5.1-2.4C71.8,34.2,71.2,32.1,71.2,29.4z M75.7,29.4
			c0,2.2,0.2,3.9,0.6,4.9c0.4,1,1,1.5,1.9,1.5c0.9,0,1.5-0.5,1.9-1.5c0.4-1,0.6-2.7,0.6-4.9c0-2.3-0.2-3.9-0.6-5
			c-0.4-1-1-1.5-1.9-1.5c-0.9,0-1.5,0.5-1.9,1.5C75.8,25.4,75.7,27.1,75.7,29.4z M92.2,30.1v-2.3c1.1-0.1,1.8-0.2,2.4-0.7
			c0.5-0.4,0.8-1,0.8-1.8c0-0.8-0.2-1.4-0.8-1.9c-0.6-0.5-1.3-0.7-2.3-0.7c-0.5,0-1,0.1-1.4,0.2c-0.4,0.2-0.8,0.4-1.2,0.8h0.2
			c0.6,0,1,0.2,1.3,0.5c0.3,0.3,0.5,0.8,0.5,1.3c0,0.7-0.2,1.2-0.6,1.6c-0.4,0.4-0.9,0.6-1.7,0.6s-1.3-0.2-1.7-0.7
			C87.3,26.6,87,26,87,25.2c0-1.4,0.6-2.5,1.7-3.3c1.2-0.8,2.7-1.2,4.6-1.2c2.2,0,3.8,0.4,5,1.2s1.7,1.9,1.7,3.3
			c0,1-0.3,1.8-0.9,2.4c-0.6,0.7-1.4,1.1-2.4,1.2c1.3,0.3,2.3,0.9,3,1.6c0.7,0.8,1,1.6,1,2.7c0,1.8-0.7,3.1-2,4
			c-1.3,0.9-3.3,1.3-5.8,1.3c-2,0-3.6-0.4-4.8-1.2c-1.2-0.8-1.7-2-1.7-3.3c0-0.9,0.2-1.7,0.8-2.2c0.5-0.6,1.2-0.8,1.9-0.8
			c0.7,0,1.2,0.2,1.7,0.7c0.4,0.4,0.7,1,0.7,1.7c0,0.6-0.2,1.1-0.6,1.5c-0.4,0.3-0.9,0.6-1.6,0.6c0.3,0.3,0.8,0.6,1.2,0.7
			c0.5,0.2,1,0.2,1.6,0.2c1.1,0,1.9-0.2,2.6-0.8c0.6-0.5,0.9-1.3,0.9-2.3c0-0.9-0.2-1.6-0.8-2C94.3,30.3,93.3,30.1,92.2,30.1z"/>
		<path class="st7" d="M90.8,24.8l0.2-0.3c0.2,0.2,0.3,0.6,0.3,1c0,0.6-0.2,1.1-0.5,1.4c-0.3,0.3-0.8,0.6-1.5,0.6s-1.2-0.2-1.7-0.7
			l0.2-0.3c0.3,0.3,0.8,0.5,1.3,0.5c0.5,0,1-0.2,1.2-0.4c0.2-0.2,0.4-0.6,0.4-1C91.1,25.2,91,25,90.8,24.8z M99.4,25
			c0,0.8-0.2,1.3-0.7,1.9c-0.5,0.6-1.2,0.9-2.2,1.1c-0.2,0.1-0.5,0.3-0.5,0.7c0,0.2,0.1,0.4,0.2,0.5l0.2-0.3
			c-0.1-0.1-0.1-0.1-0.1-0.2c0-0.1,0.1-0.2,0.2-0.2c1-0.2,1.7-0.6,2.3-1.2s0.8-1.3,0.8-2.2c0-1-0.2-1.8-0.8-2.4l-0.2,0.3
			C99.2,23.4,99.4,24.2,99.4,25z M95.1,30.2c-0.6-0.4-1.3-0.7-2.4-0.8l0,0l-0.4,0.5l0,0c1.2,0,2,0.2,2.6,0.7
			c0.2,0.1,0.2,0.2,0.3,0.3l0.2-0.3C95.4,30.4,95.3,30.2,95.1,30.2z M90.9,33c0,0.4-0.1,0.7-0.3,0.9c-0.2,0.2-0.7,0.4-1.2,0.4
			c-0.2,0-0.5,0.2-0.6,0.5c-0.1,0.2,0,0.5,0.2,0.7l0.2-0.3c0-0.1-0.1-0.2,0-0.2c0-0.1,0.1-0.2,0.2-0.2c0.6,0,1.1-0.2,1.4-0.5
			c0.3-0.3,0.5-0.8,0.5-1.2c0-0.5-0.2-0.9-0.5-1.3L90.6,32C90.8,32.2,90.9,32.6,90.9,33z M99.8,30.7L99.5,31
			c0.4,0.5,0.7,1.2,0.7,1.9c0,1.5-0.5,2.6-1.7,3.4c-1.2,0.8-3.1,1.2-5.4,1.2c-1.9,0-3.4-0.4-4.4-1.2c-0.3-0.2-0.6-0.5-0.8-0.8
			L87.7,36c0.2,0.2,0.5,0.6,0.8,0.8c1.1,0.8,2.7,1.2,4.7,1.2c2.5,0,4.3-0.4,5.7-1.3c1.2-0.9,1.8-2.1,1.8-3.8
			C100.5,32,100.3,31.2,99.8,30.7z M94.8,22.8c-0.7-0.6-1.6-0.8-2.6-0.8c-0.6,0-1.1,0.1-1.6,0.2c-0.5,0.2-0.9,0.5-1.3,0.8
			c-0.2,0.2-0.2,0.5-0.2,0.8c0,0.1,0.1,0.2,0.2,0.2l0.2-0.3c0,0,0-0.1-0.1-0.1c0-0.1,0-0.2,0.1-0.2c0.3-0.3,0.8-0.6,1.2-0.8
			c0.4-0.2,0.9-0.2,1.5-0.2c1,0,1.8,0.2,2.4,0.8c0.2,0.1,0.2,0.2,0.3,0.3l0.2-0.3C95.1,23.1,94.9,22.9,94.8,22.8z M76.5,35.2
			l-0.2,0.3c-0.2-0.2-0.4-0.6-0.5-0.9c-0.4-1.2-0.7-2.8-0.7-5.2c0-2.4,0.2-4.2,0.7-5.2c0.5-1.2,1.3-1.9,2.4-1.9
			c0.8,0,1.4,0.3,1.8,0.9l-0.2,0.3c-0.4-0.5-0.9-0.8-1.6-0.8c-0.9,0-1.7,0.6-2.1,1.7c-0.4,1.1-0.7,2.8-0.7,5.1s0.2,4,0.6,5.1
			C76.2,34.8,76.3,35.1,76.5,35.2z M83.2,23.2l-0.2,0.3c1.2,1.5,1.7,3.4,1.7,5.9s-0.6,4.5-1.7,5.9c-1.2,1.5-2.7,2.2-4.8,2.2
			c-1.9,0-3.5-0.8-4.7-2.2l0,0l-0.2,0.3l0,0c1.2,1.6,2.9,2.3,4.9,2.3c2.1,0,3.8-0.8,5-2.4c1.2-1.6,1.9-3.7,1.9-6.3
			C85,26.8,84.4,24.8,83.2,23.2z"/>
	</g>
	<rect x="52.8" class="st8" width="351.6" height="291.7"/>
	<g>
		<polygon class="st2" points="52.8,260.3 41.1,245 52.8,245 		"/>
		<polygon class="st2" points="404.3,260.3 416.1,245 404.3,245 		"/>
		<rect x="52.8" y="236.7" class="st9" width="351.6" height="14.5"/>
	</g>
	<g>
		<rect x="41.1" y="78.3" class="st1" width="375" height="166.9"/>
		<g>
			<rect x="65.3" y="109.3" class="st3" width="239.9" height="19.2"/>
			<g class="st4">
				<path class="st2" d="M76.9,116.1c0,2.6-1.9,4.2-5,4.2h-3v3.7h-1.7v-12.1h4.7C75,111.9,76.9,113.4,76.9,116.1z M75.1,116.1
					c0-1.7-1.2-2.7-3.4-2.7h-2.9v5.4h2.9C74,118.8,75.1,117.8,75.1,116.1z"/>
				<path class="st2" d="M78.3,119.4c0-2.7,2-4.7,4.8-4.7c2.7,0,4.7,1.9,4.7,4.7s-2,4.7-4.7,4.7C80.3,124,78.3,122.1,78.3,119.4z
					 M86.1,119.4c0-2-1.3-3.2-3.1-3.2c-1.8,0-3.1,1.3-3.1,3.2s1.3,3.2,3.1,3.2C84.8,122.6,86.1,121.3,86.1,119.4z"/>
				<path class="st2" d="M88.9,123l0.7-1.3c0.8,0.6,2,0.9,3.2,0.9c1.5,0,2.2-0.5,2.2-1.2c0-2.1-5.8-0.3-5.8-3.9
					c0-1.6,1.5-2.7,3.8-2.7c1.2,0,2.5,0.3,3.3,0.8l-0.7,1.3c-0.8-0.5-1.7-0.7-2.6-0.7c-1.4,0-2.2,0.5-2.2,1.3c0,2.2,5.8,0.4,5.8,4
					c0,1.7-1.5,2.7-4,2.7C91.2,124,89.7,123.6,88.9,123z"/>
				<path class="st2" d="M103.9,123.4c-0.5,0.4-1.3,0.6-2,0.6c-1.8,0-2.9-1-2.9-2.9v-5h-1.6v-1.4H99v-2h1.7v2h2.6v1.4h-2.6v5
					c0,1,0.5,1.5,1.4,1.5c0.5,0,0.9-0.2,1.3-0.4L103.9,123.4z"/>
				<path class="st2" d="M118.4,120.9H112l-1.3,3h-1.8l5.5-12.1h1.7l5.5,12.1h-1.8L118.4,120.9z M117.8,119.5l-2.6-5.9l-2.6,5.9
					H117.8z"/>
				<path class="st2" d="M131.5,114.8v9.1h-1.6v-1.4c-0.7,0.9-1.8,1.5-3.1,1.5c-2.4,0-3.9-1.3-3.9-4v-5.3h1.7v5.1
					c0,1.8,0.9,2.7,2.5,2.7c1.7,0,2.8-1.1,2.8-3v-4.7H131.5z"/>
				<path class="st2" d="M139.8,123.4c-0.5,0.4-1.3,0.6-2,0.6c-1.8,0-2.9-1-2.9-2.9v-5h-1.6v-1.4h1.6v-2h1.7v2h2.6v1.4h-2.6v5
					c0,1,0.5,1.5,1.4,1.5c0.5,0,0.9-0.2,1.3-0.4L139.8,123.4z"/>
				<path class="st2" d="M150.5,118.7v5.3h-1.7v-5.1c0-1.8-0.9-2.7-2.5-2.7c-1.8,0-2.9,1.1-2.9,3v4.7h-1.7v-12.8h1.7v5
					c0.7-0.9,1.8-1.4,3.2-1.4C148.9,114.7,150.5,116,150.5,118.7z"/>
				<path class="st2" d="M152.7,119.4c0-2.7,2-4.7,4.8-4.7c2.7,0,4.7,1.9,4.7,4.7s-2,4.7-4.7,4.7C154.8,124,152.7,122.1,152.7,119.4
					z M160.6,119.4c0-2-1.3-3.2-3.1-3.2c-1.8,0-3.1,1.3-3.1,3.2s1.3,3.2,3.1,3.2C159.3,122.6,160.6,121.3,160.6,119.4z"/>
				<path class="st2" d="M169.5,114.7v1.6c-0.1,0-0.3,0-0.4,0c-1.8,0-2.9,1.1-2.9,3.1v4.6h-1.7v-9.1h1.6v1.5
					C166.7,115.3,167.8,114.7,169.5,114.7z"/>
				<path class="st2" d="M171.2,112c0-0.6,0.5-1.1,1.1-1.1c0.6,0,1.1,0.5,1.1,1.1c0,0.6-0.5,1.1-1.1,1.1
					C171.7,113,171.2,112.6,171.2,112z M171.5,114.8h1.7v9.1h-1.7V114.8z"/>
				<path class="st2" d="M183.1,122.6v1.4h-7.7v-1.1l5.4-6.7h-5.3v-1.4h7.4v1.1l-5.4,6.7H183.1z"/>
				<path class="st2" d="M192.5,118.4v5.5H191v-1.2c-0.6,0.8-1.6,1.3-3,1.3c-2.1,0-3.4-1.1-3.4-2.7c0-1.5,0.9-2.7,3.7-2.7h2.6v-0.3
					c0-1.4-0.8-2.2-2.5-2.2c-1.1,0-2.2,0.4-2.9,1l-0.7-1.2c0.9-0.8,2.3-1.2,3.8-1.2C191.1,114.7,192.5,115.9,192.5,118.4z
					 M190.9,121.1v-1.3h-2.6c-1.6,0-2.1,0.6-2.1,1.4c0,0.9,0.8,1.5,2,1.5C189.5,122.8,190.5,122.2,190.9,121.1z"/>
				<path class="st2" d="M200.8,123.4c-0.5,0.4-1.3,0.6-2,0.6c-1.8,0-2.9-1-2.9-2.9v-5h-1.6v-1.4h1.6v-2h1.7v2h2.6v1.4h-2.6v5
					c0,1,0.5,1.5,1.4,1.5c0.5,0,0.9-0.2,1.3-0.4L200.8,123.4z"/>
				<path class="st2" d="M202.5,112c0-0.6,0.5-1.1,1.1-1.1c0.6,0,1.1,0.5,1.1,1.1c0,0.6-0.5,1.1-1.1,1.1
					C202.9,113,202.5,112.6,202.5,112z M202.8,114.8h1.7v9.1h-1.7V114.8z"/>
				<path class="st2" d="M206.7,119.4c0-2.7,2-4.7,4.8-4.7c2.7,0,4.7,1.9,4.7,4.7s-2,4.7-4.7,4.7C208.7,124,206.7,122.1,206.7,119.4
					z M214.6,119.4c0-2-1.3-3.2-3.1-3.2c-1.8,0-3.1,1.3-3.1,3.2s1.3,3.2,3.1,3.2C213.2,122.6,214.6,121.3,214.6,119.4z"/>
				<path class="st2" d="M227.2,118.7v5.3h-1.7v-5.1c0-1.8-0.9-2.7-2.5-2.7c-1.8,0-2.9,1.1-2.9,3v4.7h-1.7v-9.1h1.6v1.4
					c0.7-0.9,1.8-1.5,3.3-1.5C225.6,114.7,227.2,116,227.2,118.7z"/>
			</g>
		</g>
		<g>
			<rect x="73.2" y="144.5" class="st3" width="309.2" height="65.2"/>
			<g class="st4">
				<path class="st10" d="M105.2,157.1c-0.7-0.4-1.3-1.1-1.7-1.9c-0.4-0.8-0.6-1.8-0.6-3s0.2-2.1,0.6-3c0.4-0.8,0.9-1.5,1.7-1.9
					c0.7-0.4,1.6-0.7,2.6-0.7s1.9,0.2,2.6,0.7c0.7,0.5,1.3,1.1,1.7,1.9c0.4,0.8,0.6,1.8,0.6,3c0,1.1-0.2,2.1-0.6,3
					c-0.4,0.8-1,1.5-1.7,1.9c-0.7,0.5-1.6,0.7-2.6,0.7C106.8,157.8,106,157.5,105.2,157.1z M110.7,155.7c0.7-0.8,1-2,1-3.5
					c0-1.5-0.3-2.7-1-3.5s-1.6-1.2-2.9-1.2c-1.2,0-2.2,0.4-2.9,1.2c-0.7,0.8-1,2-1,3.5c0,1.5,0.3,2.7,1,3.5c0.7,0.8,1.6,1.2,2.9,1.2
					C109,156.9,110,156.5,110.7,155.7z"/>
				<path class="st10" d="M121.3,152.7v4.9h-0.9v-4.8c0-0.8-0.2-1.3-0.5-1.7c-0.3-0.4-0.8-0.5-1.5-0.5c-0.8,0-1.4,0.2-1.9,0.7
					c-0.5,0.5-0.7,1.1-0.7,1.9v4.4H115v-5.6c0-0.8,0-1.5-0.1-2.1h0.9l0.1,1.4c0.2-0.5,0.6-0.9,1.1-1.2s1-0.4,1.6-0.4
					C120.4,149.8,121.3,150.8,121.3,152.7z"/>
				<path class="st10" d="M130.4,150v7.7c0,1.1-0.3,2-0.8,2.5c-0.6,0.6-1.4,0.9-2.4,0.9c-1.1,0-2.1-0.3-3-0.8l0.2-0.8
					c0.5,0.3,1,0.5,1.4,0.6c0.4,0.1,0.9,0.2,1.4,0.2c0.8,0,1.3-0.2,1.7-0.6c0.4-0.4,0.6-1,0.6-1.8v-2c-0.2,0.5-0.6,0.9-1,1.2
					s-1,0.4-1.7,0.4c-0.7,0-1.3-0.2-1.8-0.5c-0.5-0.3-0.9-0.8-1.2-1.3c-0.3-0.6-0.4-1.2-0.4-2c0-0.8,0.1-1.4,0.4-2
					c0.3-0.6,0.7-1,1.2-1.3s1.1-0.5,1.8-0.5c0.6,0,1.2,0.1,1.6,0.4c0.5,0.3,0.8,0.7,1,1.2V150H130.4z M128.8,155.8
					c0.5-0.5,0.7-1.3,0.7-2.2c0-0.9-0.2-1.7-0.7-2.2c-0.5-0.5-1.1-0.8-1.9-0.8c-0.8,0-1.4,0.3-1.9,0.8c-0.5,0.5-0.7,1.3-0.7,2.2
					c0,0.9,0.2,1.7,0.7,2.2c0.5,0.5,1.1,0.8,1.9,0.8C127.7,156.6,128.3,156.3,128.8,155.8z"/>
				<path class="st10" d="M134.1,157.3c-0.5-0.3-1-0.8-1.2-1.4c-0.3-0.6-0.4-1.3-0.4-2.1s0.1-1.5,0.4-2.1c0.3-0.6,0.7-1.1,1.2-1.4
					c0.5-0.3,1.2-0.5,1.9-0.5c0.7,0,1.3,0.2,1.8,0.5c0.5,0.3,0.9,0.8,1.2,1.4c0.3,0.6,0.4,1.3,0.4,2.1s-0.1,1.5-0.4,2.1
					c-0.3,0.6-0.7,1.1-1.2,1.4c-0.5,0.3-1.1,0.5-1.8,0.5C135.3,157.7,134.7,157.6,134.1,157.3z M137.9,156.1
					c0.4-0.5,0.7-1.3,0.7-2.3c0-1-0.2-1.8-0.7-2.3c-0.5-0.6-1.1-0.8-1.9-0.8c-0.8,0-1.4,0.3-1.9,0.8c-0.5,0.6-0.7,1.3-0.7,2.3
					c0,1,0.2,1.8,0.7,2.3c0.4,0.5,1.1,0.8,1.9,0.8S137.4,156.6,137.9,156.1z"/>
				<path class="st10" d="M142.7,146.8v1.2h-1.2v-1.2H142.7z M141.6,150h0.9v7.7h-0.9V150z"/>
				<path class="st10" d="M151.4,152.7v4.9h-0.9v-4.8c0-0.8-0.2-1.3-0.5-1.7c-0.3-0.4-0.8-0.5-1.5-0.5c-0.8,0-1.4,0.2-1.9,0.7
					c-0.5,0.5-0.7,1.1-0.7,1.9v4.4h-0.9v-5.6c0-0.8,0-1.5-0.1-2.1h0.9l0.1,1.4c0.2-0.5,0.6-0.9,1.1-1.2s1-0.4,1.6-0.4
					C150.5,149.8,151.4,150.8,151.4,152.7z"/>
				<path class="st10" d="M160.5,150v7.7c0,1.1-0.3,2-0.8,2.5c-0.6,0.6-1.4,0.9-2.4,0.9c-1.1,0-2.1-0.3-3-0.8l0.2-0.8
					c0.5,0.3,1,0.5,1.4,0.6c0.4,0.1,0.9,0.2,1.4,0.2c0.8,0,1.3-0.2,1.7-0.6c0.4-0.4,0.6-1,0.6-1.8v-2c-0.2,0.5-0.6,0.9-1,1.2
					s-1,0.4-1.7,0.4c-0.7,0-1.3-0.2-1.8-0.5c-0.5-0.3-0.9-0.8-1.2-1.3c-0.3-0.6-0.4-1.2-0.4-2c0-0.8,0.1-1.4,0.4-2
					c0.3-0.6,0.7-1,1.2-1.3s1.1-0.5,1.8-0.5c0.6,0,1.2,0.1,1.6,0.4c0.5,0.3,0.8,0.7,1,1.2V150H160.5z M158.9,155.8
					c0.5-0.5,0.7-1.3,0.7-2.2c0-0.9-0.2-1.7-0.7-2.2c-0.5-0.5-1.1-0.8-1.9-0.8c-0.8,0-1.4,0.3-1.9,0.8c-0.5,0.5-0.7,1.3-0.7,2.2
					c0,0.9,0.2,1.7,0.7,2.2c0.5,0.5,1.1,0.8,1.9,0.8C157.8,156.6,158.4,156.3,158.9,155.8z"/>
				<path class="st10" d="M169,157.1c-0.7-0.4-1.3-1.1-1.7-1.9c-0.4-0.8-0.6-1.8-0.6-3c0-1.1,0.2-2.1,0.6-3c0.4-0.8,1-1.5,1.7-1.9
					c0.7-0.4,1.6-0.7,2.6-0.7c0.8,0,1.4,0.1,2.1,0.4c0.6,0.2,1.2,0.6,1.6,1.1l-0.4,0.8c-0.5-0.5-1-0.8-1.6-1s-1.1-0.3-1.7-0.3
					c-1.3,0-2.2,0.4-2.9,1.2c-0.7,0.8-1,2-1,3.5c0,1.5,0.3,2.7,1,3.5c0.7,0.8,1.7,1.2,2.9,1.2c0.6,0,1.2-0.1,1.7-0.3s1-0.5,1.6-1
					l0.4,0.8c-0.5,0.5-1,0.8-1.6,1.1s-1.3,0.4-2.1,0.4C170.6,157.8,169.8,157.5,169,157.1z"/>
				<path class="st10" d="M178.5,157.3c-0.5-0.3-1-0.8-1.2-1.4c-0.3-0.6-0.4-1.3-0.4-2.1s0.1-1.5,0.4-2.1c0.3-0.6,0.7-1.1,1.2-1.4
					c0.5-0.3,1.2-0.5,1.9-0.5c0.7,0,1.3,0.2,1.8,0.5c0.5,0.3,0.9,0.8,1.2,1.4c0.3,0.6,0.4,1.3,0.4,2.1s-0.1,1.5-0.4,2.1
					c-0.3,0.6-0.7,1.1-1.2,1.4c-0.5,0.3-1.1,0.5-1.8,0.5C179.6,157.7,179,157.6,178.5,157.3z M182.2,156.1c0.4-0.5,0.7-1.3,0.7-2.3
					c0-1-0.2-1.8-0.7-2.3c-0.5-0.6-1.1-0.8-1.9-0.8c-0.8,0-1.4,0.3-1.9,0.8c-0.5,0.6-0.7,1.3-0.7,2.3c0,1,0.2,1.8,0.7,2.3
					c0.4,0.5,1.1,0.8,1.9,0.8S181.8,156.6,182.2,156.1z"/>
				<path class="st10" d="M192.3,152.7v4.9h-0.9v-4.8c0-0.8-0.2-1.3-0.5-1.7c-0.3-0.4-0.8-0.5-1.5-0.5c-0.8,0-1.4,0.2-1.9,0.7
					c-0.5,0.5-0.7,1.1-0.7,1.9v4.4h-0.9v-5.6c0-0.8,0-1.5-0.1-2.1h0.9l0.1,1.4c0.2-0.5,0.6-0.9,1.1-1.2s1-0.4,1.6-0.4
					C191.3,149.8,192.3,150.8,192.3,152.7z"/>
				<path class="st10" d="M196.1,150.7v4.6c0,0.6,0.1,1,0.4,1.3c0.2,0.2,0.6,0.4,1,0.4c0.3,0,0.6,0,0.8-0.1v0.8
					c-0.3,0.1-0.7,0.1-1,0.1c-0.7,0-1.2-0.2-1.6-0.6c-0.4-0.4-0.6-0.9-0.6-1.7v-4.8h-1.5V150h1.5v-2l0.9-0.4v2.4h2.3v0.8H196.1z"/>
				<path class="st10" d="M201.1,146.8v1.2h-1.2v-1.2H201.1z M200,150h0.9v7.7H200V150z"/>
				<path class="st10" d="M209.8,152.7v4.9h-0.9v-4.8c0-0.8-0.2-1.3-0.5-1.7c-0.3-0.4-0.8-0.5-1.5-0.5c-0.8,0-1.4,0.2-1.9,0.7
					c-0.5,0.5-0.7,1.1-0.7,1.9v4.4h-0.9v-5.6c0-0.8,0-1.5-0.1-2.1h0.9l0.1,1.4c0.2-0.5,0.6-0.9,1.1-1.2s1-0.4,1.6-0.4
					C208.9,149.8,209.8,150.8,209.8,152.7z"/>
				<path class="st10" d="M218.5,150v7.7h-0.9v-1.4c-0.2,0.5-0.6,0.9-1,1.1c-0.5,0.3-1,0.4-1.5,0.4c-0.9,0-1.6-0.3-2-0.8
					s-0.7-1.2-0.7-2.2V150h0.9v4.8c0,0.8,0.2,1.3,0.5,1.7c0.3,0.4,0.8,0.5,1.4,0.5c0.8,0,1.4-0.2,1.8-0.7c0.4-0.5,0.7-1.1,0.7-1.9
					V150H218.5z"/>
				<path class="st10" d="M222.2,157.3c-0.5-0.3-1-0.8-1.2-1.4c-0.3-0.6-0.4-1.3-0.4-2.1s0.1-1.5,0.4-2.1c0.3-0.6,0.7-1.1,1.2-1.4
					c0.5-0.3,1.2-0.5,1.9-0.5c0.7,0,1.3,0.2,1.8,0.5c0.5,0.3,0.9,0.8,1.2,1.4c0.3,0.6,0.4,1.3,0.4,2.1s-0.1,1.5-0.4,2.1
					c-0.3,0.6-0.7,1.1-1.2,1.4c-0.5,0.3-1.1,0.5-1.8,0.5C223.4,157.7,222.8,157.6,222.2,157.3z M226,156.1c0.4-0.5,0.7-1.3,0.7-2.3
					c0-1-0.2-1.8-0.7-2.3c-0.5-0.6-1.1-0.8-1.9-0.8c-0.8,0-1.4,0.3-1.9,0.8c-0.5,0.6-0.7,1.3-0.7,2.3c0,1,0.2,1.8,0.7,2.3
					c0.4,0.5,1.1,0.8,1.9,0.8S225.5,156.6,226,156.1z"/>
				<path class="st10" d="M235.8,150v7.7h-0.9v-1.4c-0.2,0.5-0.6,0.9-1,1.1c-0.5,0.3-1,0.4-1.5,0.4c-0.9,0-1.6-0.3-2-0.8
					s-0.7-1.2-0.7-2.2V150h0.9v4.8c0,0.8,0.2,1.3,0.5,1.7c0.3,0.4,0.8,0.5,1.4,0.5c0.8,0,1.4-0.2,1.8-0.7c0.4-0.5,0.7-1.1,0.7-1.9
					V150H235.8z"/>
				<path class="st10" d="M237.9,156.7l0.3-0.7c0.4,0.3,0.8,0.6,1.2,0.7c0.4,0.1,0.9,0.2,1.4,0.2c0.6,0,1.1-0.1,1.4-0.3
					c0.3-0.2,0.5-0.5,0.5-1c0-0.3-0.1-0.6-0.3-0.8c-0.2-0.2-0.6-0.4-1.1-0.5l-1.3-0.3c-0.6-0.1-1.1-0.4-1.4-0.8
					c-0.4-0.4-0.5-0.8-0.5-1.3c0-0.7,0.3-1.2,0.8-1.6c0.5-0.4,1.2-0.6,2.1-0.6c0.5,0,1,0.1,1.5,0.3c0.5,0.2,0.9,0.4,1.2,0.8
					l-0.4,0.7c-0.7-0.6-1.5-0.9-2.3-0.9c-0.6,0-1.1,0.1-1.4,0.4c-0.3,0.2-0.5,0.6-0.5,1c0,0.3,0.1,0.6,0.3,0.8
					c0.2,0.2,0.5,0.4,1,0.5l1.3,0.3c1.4,0.3,2.1,1,2.1,2c0,0.6-0.3,1.2-0.8,1.6c-0.5,0.4-1.2,0.6-2.1,0.6
					C239.6,157.7,238.7,157.4,237.9,156.7z"/>
				<path class="st10" d="M260.2,146.7v10.9h-0.9v-8.7l-3.8,8.7h-0.7l-3.9-8.7l0,8.7H250v-10.9h0.8l4.3,9.8l4.3-9.8H260.2z"/>
				<path class="st10" d="M264.1,157.3c-0.5-0.3-1-0.8-1.2-1.4c-0.3-0.6-0.4-1.3-0.4-2.1s0.1-1.5,0.4-2.1c0.3-0.6,0.7-1.1,1.2-1.4
					c0.5-0.3,1.2-0.5,1.9-0.5c0.7,0,1.3,0.2,1.8,0.5c0.5,0.3,0.9,0.8,1.2,1.4c0.3,0.6,0.4,1.3,0.4,2.1s-0.1,1.5-0.4,2.1
					c-0.3,0.6-0.7,1.1-1.2,1.4c-0.5,0.3-1.1,0.5-1.8,0.5C265.2,157.7,264.6,157.6,264.1,157.3z M267.8,156.1
					c0.4-0.5,0.7-1.3,0.7-2.3c0-1-0.2-1.8-0.7-2.3c-0.5-0.6-1.1-0.8-1.9-0.8c-0.8,0-1.4,0.3-1.9,0.8c-0.5,0.6-0.7,1.3-0.7,2.3
					c0,1,0.2,1.8,0.7,2.3c0.4,0.5,1.1,0.8,1.9,0.8S267.4,156.6,267.8,156.1z"/>
				<path class="st10" d="M277.9,152.7v4.9h-0.9v-4.8c0-0.8-0.2-1.3-0.5-1.7c-0.3-0.4-0.8-0.5-1.5-0.5c-0.8,0-1.4,0.2-1.9,0.7
					c-0.5,0.5-0.7,1.1-0.7,1.9v4.4h-0.9v-5.6c0-0.8,0-1.5-0.1-2.1h0.9l0.1,1.4c0.2-0.5,0.6-0.9,1.1-1.2s1-0.4,1.6-0.4
					C276.9,149.8,277.9,150.8,277.9,152.7z"/>
				<path class="st10" d="M281.5,146.8v1.2h-1.2v-1.2H281.5z M280.4,150h0.9v7.7h-0.9V150z"/>
				<path class="st10" d="M285.2,150.7v4.6c0,0.6,0.1,1,0.4,1.3c0.2,0.2,0.6,0.4,1,0.4c0.3,0,0.6,0,0.8-0.1v0.8
					c-0.3,0.1-0.7,0.1-1,0.1c-0.7,0-1.2-0.2-1.6-0.6c-0.4-0.4-0.6-0.9-0.6-1.7v-4.8h-1.5V150h1.5v-2l0.9-0.4v2.4h2.3v0.8H285.2z"/>
				<path class="st10" d="M290.2,157.3c-0.5-0.3-1-0.8-1.2-1.4c-0.3-0.6-0.4-1.3-0.4-2.1s0.1-1.5,0.4-2.1c0.3-0.6,0.7-1.1,1.2-1.4
					c0.5-0.3,1.2-0.5,1.9-0.5c0.7,0,1.3,0.2,1.8,0.5c0.5,0.3,0.9,0.8,1.2,1.4c0.3,0.6,0.4,1.3,0.4,2.1s-0.1,1.5-0.4,2.1
					c-0.3,0.6-0.7,1.1-1.2,1.4c-0.5,0.3-1.1,0.5-1.8,0.5C291.4,157.7,290.8,157.6,290.2,157.3z M294,156.1c0.4-0.5,0.7-1.3,0.7-2.3
					c0-1-0.2-1.8-0.7-2.3c-0.5-0.6-1.1-0.8-1.9-0.8c-0.8,0-1.4,0.3-1.9,0.8c-0.5,0.6-0.7,1.3-0.7,2.3c0,1,0.2,1.8,0.7,2.3
					c0.4,0.5,1.1,0.8,1.9,0.8S293.5,156.6,294,156.1z"/>
				<path class="st10" d="M301.6,149.8l0,0.8c-0.2,0-0.4-0.1-0.7-0.1c-0.8,0-1.4,0.2-1.7,0.7c-0.4,0.5-0.6,1.1-0.6,1.8v4.5h-0.9
					v-5.6c0-0.8,0-1.5-0.1-2.1h0.9l0.1,1.4c0.2-0.5,0.5-0.9,0.9-1.2c0.4-0.3,0.9-0.4,1.5-0.4C301.2,149.8,301.4,149.8,301.6,149.8z"
					/>
				<path class="st10" d="M304.1,146.8v1.2h-1.2v-1.2H304.1z M303,150h0.9v7.7H303V150z"/>
				<path class="st10" d="M312.9,152.7v4.9h-0.9v-4.8c0-0.8-0.2-1.3-0.5-1.7c-0.3-0.4-0.8-0.5-1.5-0.5c-0.8,0-1.4,0.2-1.9,0.7
					c-0.5,0.5-0.7,1.1-0.7,1.9v4.4h-0.9v-5.6c0-0.8,0-1.5-0.1-2.1h0.9l0.1,1.4c0.2-0.5,0.6-0.9,1.1-1.2s1-0.4,1.6-0.4
					C311.9,149.8,312.9,150.8,312.9,152.7z"/>
				<path class="st10" d="M321.9,150v7.7c0,1.1-0.3,2-0.8,2.5c-0.6,0.6-1.4,0.9-2.4,0.9c-1.1,0-2.1-0.3-3-0.8l0.2-0.8
					c0.5,0.3,1,0.5,1.4,0.6c0.4,0.1,0.9,0.2,1.4,0.2c0.8,0,1.3-0.2,1.7-0.6c0.4-0.4,0.6-1,0.6-1.8v-2c-0.2,0.5-0.6,0.9-1,1.2
					s-1,0.4-1.7,0.4c-0.7,0-1.3-0.2-1.8-0.5c-0.5-0.3-0.9-0.8-1.2-1.3c-0.3-0.6-0.4-1.2-0.4-2c0-0.8,0.1-1.4,0.4-2
					c0.3-0.6,0.7-1,1.2-1.3s1.1-0.5,1.8-0.5c0.6,0,1.2,0.1,1.6,0.4c0.5,0.3,0.8,0.7,1,1.2V150H321.9z M320.3,155.8
					c0.5-0.5,0.7-1.3,0.7-2.2c0-0.9-0.2-1.7-0.7-2.2c-0.5-0.5-1.1-0.8-1.9-0.8c-0.8,0-1.4,0.3-1.9,0.8c-0.5,0.5-0.7,1.3-0.7,2.2
					c0,0.9,0.2,1.7,0.7,2.2c0.5,0.5,1.1,0.8,1.9,0.8C319.2,156.6,319.9,156.3,320.3,155.8z"/>
			</g>
			<g class="st4">
				<path class="st10" d="M103.4,165.9h3.5c1.7,0,3.1,0.5,4,1.4c0.9,0.9,1.4,2.3,1.4,4c0,1.7-0.5,3.1-1.4,4c-0.9,1-2.3,1.4-4,1.4
					h-3.5V165.9z M106.8,176c1.5,0,2.6-0.4,3.3-1.2s1.1-1.9,1.1-3.5c0-3.1-1.5-4.6-4.5-4.6h-2.5v9.3H106.8z"/>
				<path class="st10" d="M115,172.9L115,172.9c0,1.1,0.2,1.9,0.7,2.4c0.5,0.5,1.2,0.8,2.1,0.8c0.9,0,1.8-0.3,2.5-1l0.4,0.7
					c-0.3,0.3-0.8,0.6-1.3,0.8s-1.1,0.3-1.6,0.3c-1.2,0-2.1-0.4-2.8-1.1c-0.7-0.7-1-1.7-1-2.9c0-0.8,0.2-1.5,0.5-2.1
					s0.7-1.1,1.3-1.4c0.5-0.3,1.2-0.5,1.9-0.5c1,0,1.8,0.3,2.4,1c0.6,0.7,0.9,1.6,0.9,2.7v0.2H115z M115.9,170.3
					c-0.4,0.4-0.7,1-0.8,1.8h4.9c-0.1-0.8-0.3-1.4-0.7-1.8c-0.4-0.4-0.9-0.6-1.6-0.6C117,169.7,116.4,169.9,115.9,170.3z"/>
				<path class="st10" d="M122.9,165.5h0.9v11.3h-0.9V165.5z"/>
				<path class="st10" d="M127.5,165.9v1.2h-1.2v-1.2H127.5z M126.4,169.1h0.9v7.7h-0.9V169.1z"/>
				<path class="st10" d="M136.4,169.1l-3.3,7.7h-1l-3.3-7.7h1l2.8,6.7l2.8-6.7H136.4z"/>
				<path class="st10" d="M138.3,172.9L138.3,172.9c0,1.1,0.2,1.9,0.7,2.4c0.5,0.5,1.2,0.8,2.1,0.8c0.9,0,1.8-0.3,2.5-1l0.4,0.7
					c-0.3,0.3-0.8,0.6-1.3,0.8s-1.1,0.3-1.6,0.3c-1.2,0-2.1-0.4-2.8-1.1c-0.7-0.7-1-1.7-1-2.9c0-0.8,0.2-1.5,0.5-2.1
					s0.7-1.1,1.3-1.4c0.5-0.3,1.2-0.5,1.9-0.5c1,0,1.8,0.3,2.4,1c0.6,0.7,0.9,1.6,0.9,2.7v0.2H138.3z M139.2,170.3
					c-0.4,0.4-0.7,1-0.8,1.8h4.9c-0.1-0.8-0.3-1.4-0.7-1.8c-0.4-0.4-0.9-0.6-1.6-0.6C140.2,169.7,139.7,169.9,139.2,170.3z"/>
				<path class="st10" d="M150.2,169l0,0.8c-0.2,0-0.4-0.1-0.7-0.1c-0.8,0-1.4,0.2-1.7,0.7c-0.4,0.5-0.6,1.1-0.6,1.8v4.5h-0.9v-5.6
					c0-0.8,0-1.5-0.1-2.1h0.9l0.1,1.4c0.2-0.5,0.5-0.9,0.9-1.2c0.4-0.3,0.9-0.4,1.5-0.4C149.8,168.9,150,169,150.2,169z"/>
				<path class="st10" d="M157.9,169.1v7.7H157v-1.5c-0.2,0.5-0.6,0.9-1,1.2c-0.5,0.3-1,0.4-1.6,0.4c-0.7,0-1.3-0.2-1.8-0.5
					c-0.5-0.3-0.9-0.8-1.2-1.4s-0.4-1.3-0.4-2.1s0.1-1.5,0.4-2.1c0.3-0.6,0.7-1.1,1.2-1.4c0.5-0.3,1.1-0.5,1.8-0.5
					c0.6,0,1.2,0.1,1.6,0.4c0.5,0.3,0.8,0.7,1,1.2v-1.4H157.9z M156.3,175.3c0.4-0.6,0.7-1.3,0.7-2.3c0-1-0.2-1.8-0.7-2.3
					s-1.1-0.8-1.9-0.8s-1.4,0.3-1.9,0.9c-0.5,0.6-0.7,1.4-0.7,2.4c0,1,0.2,1.8,0.7,2.3c0.5,0.5,1.1,0.8,1.9,0.8
					C155.2,176.1,155.9,175.8,156.3,175.3z"/>
				<path class="st10" d="M165.8,169.4c0.5,0.3,0.9,0.8,1.2,1.4c0.3,0.6,0.4,1.3,0.4,2.1c0,0.8-0.1,1.5-0.4,2.1
					c-0.3,0.6-0.7,1.1-1.2,1.4c-0.5,0.3-1.1,0.5-1.8,0.5c-0.6,0-1.2-0.1-1.6-0.4c-0.5-0.3-0.8-0.7-1-1.2v1.5h-0.9v-11.3h0.9v5
					c0.2-0.5,0.6-0.9,1-1.2c0.5-0.3,1-0.4,1.6-0.4C164.7,168.9,165.3,169.1,165.8,169.4z M165.8,175.2c0.4-0.6,0.7-1.3,0.7-2.3
					c0-1-0.2-1.8-0.7-2.3c-0.5-0.6-1.1-0.8-1.9-0.8s-1.4,0.3-1.9,0.8s-0.7,1.3-0.7,2.3s0.2,1.8,0.7,2.3c0.4,0.5,1.1,0.8,1.9,0.8
					C164.7,176.1,165.3,175.8,165.8,175.2z"/>
				<path class="st10" d="M169.5,165.5h0.9v11.3h-0.9V165.5z"/>
				<path class="st10" d="M173.5,172.9L173.5,172.9c0,1.1,0.2,1.9,0.7,2.4c0.5,0.5,1.2,0.8,2.1,0.8c0.9,0,1.8-0.3,2.5-1l0.4,0.7
					c-0.3,0.3-0.8,0.6-1.3,0.8s-1.1,0.3-1.6,0.3c-1.2,0-2.1-0.4-2.8-1.1c-0.7-0.7-1-1.7-1-2.9c0-0.8,0.2-1.5,0.5-2.1
					s0.7-1.1,1.3-1.4c0.5-0.3,1.2-0.5,1.9-0.5c1,0,1.8,0.3,2.4,1c0.6,0.7,0.9,1.6,0.9,2.7v0.2H173.5z M174.4,170.3
					c-0.4,0.4-0.7,1-0.8,1.8h4.9c-0.1-0.8-0.3-1.4-0.7-1.8c-0.4-0.4-0.9-0.6-1.6-0.6C175.4,169.7,174.8,169.9,174.4,170.3z"/>
				<path class="st10" d="M180.9,175.9l0.3-0.7c0.4,0.3,0.8,0.6,1.2,0.7c0.4,0.1,0.9,0.2,1.4,0.2c0.6,0,1.1-0.1,1.4-0.3
					c0.3-0.2,0.5-0.5,0.5-1c0-0.3-0.1-0.6-0.3-0.8c-0.2-0.2-0.6-0.4-1.1-0.5l-1.3-0.3c-0.6-0.1-1.1-0.4-1.4-0.8
					c-0.4-0.4-0.5-0.8-0.5-1.3c0-0.7,0.3-1.2,0.8-1.6c0.5-0.4,1.2-0.6,2.1-0.6c0.5,0,1,0.1,1.5,0.3c0.5,0.2,0.9,0.4,1.2,0.8
					l-0.4,0.7c-0.7-0.6-1.5-0.9-2.3-0.9c-0.6,0-1.1,0.1-1.4,0.4c-0.3,0.2-0.5,0.6-0.5,1c0,0.3,0.1,0.6,0.3,0.8
					c0.2,0.2,0.5,0.4,1,0.5l1.3,0.3c1.4,0.3,2.1,1,2.1,2c0,0.6-0.3,1.2-0.8,1.6c-0.5,0.4-1.2,0.6-2.1,0.6
					C182.6,176.9,181.6,176.6,180.9,175.9z"/>
			</g>
			<g class="st4">
				<path class="st10" d="M110.5,202.6h-5.9l-1.3,2.9h-1l4.8-10.9h0.9l4.7,10.9h-1L110.5,202.6z M110.1,201.8l-2.6-6l-2.6,6H110.1z"
					/>
				<path class="st10" d="M120.7,200.7v4.9h-0.9v-4.8c0-0.8-0.2-1.3-0.5-1.7c-0.3-0.4-0.8-0.5-1.5-0.5c-0.8,0-1.4,0.2-1.9,0.7
					c-0.5,0.5-0.7,1.1-0.7,1.9v4.4h-0.9V200c0-0.8,0-1.5-0.1-2.1h0.9l0.1,1.4c0.2-0.5,0.6-0.9,1.1-1.2s1-0.4,1.6-0.4
					C119.8,197.7,120.7,198.7,120.7,200.7z"/>
				<path class="st10" d="M129.6,200.7v4.9h-0.9v-4.8c0-0.8-0.2-1.3-0.5-1.7c-0.3-0.4-0.8-0.5-1.5-0.5c-0.8,0-1.4,0.2-1.9,0.7
					c-0.5,0.5-0.7,1.1-0.7,1.9v4.4h-0.9V200c0-0.8,0-1.5-0.1-2.1h0.9l0.1,1.4c0.2-0.5,0.6-0.9,1.1-1.2s1-0.4,1.6-0.4
					C128.7,197.7,129.6,198.7,129.6,200.7z"/>
				<path class="st10" d="M138.3,197.9v7.7h-0.9v-1.4c-0.2,0.5-0.6,0.9-1,1.1c-0.5,0.3-1,0.4-1.5,0.4c-0.9,0-1.6-0.2-2-0.8
					c-0.5-0.5-0.7-1.2-0.7-2.2v-4.8h0.9v4.8c0,0.8,0.2,1.3,0.5,1.7c0.3,0.4,0.8,0.5,1.4,0.5c0.8,0,1.4-0.2,1.8-0.7
					c0.4-0.5,0.7-1.1,0.7-1.9v-4.4H138.3z"/>
				<path class="st10" d="M147.3,197.9v7.7h-0.9v-1.5c-0.2,0.5-0.6,0.9-1,1.2c-0.5,0.3-1,0.4-1.6,0.4c-0.7,0-1.3-0.2-1.8-0.5
					c-0.5-0.3-0.9-0.8-1.2-1.4s-0.4-1.3-0.4-2.1s0.1-1.5,0.4-2.1c0.3-0.6,0.7-1.1,1.2-1.4c0.5-0.3,1.1-0.5,1.8-0.5
					c0.6,0,1.2,0.1,1.6,0.4c0.5,0.3,0.8,0.7,1,1.2v-1.4H147.3z M145.8,204c0.4-0.6,0.7-1.3,0.7-2.3c0-1-0.2-1.8-0.7-2.3
					s-1.1-0.8-1.9-0.8s-1.4,0.3-1.9,0.9c-0.5,0.6-0.7,1.4-0.7,2.4c0,1,0.2,1.8,0.7,2.3c0.5,0.5,1.1,0.8,1.9,0.8
					C144.7,204.8,145.3,204.6,145.8,204z"/>
				<path class="st10" d="M149.9,194.3h0.9v11.3h-0.9V194.3z"/>
				<path class="st10" d="M164.6,202.6h-5.9l-1.3,2.9h-1l4.8-10.9h0.9l4.7,10.9h-1L164.6,202.6z M164.2,201.8l-2.6-6l-2.6,6H164.2z"
					/>
				<path class="st10" d="M167.9,204.6l0.3-0.7c0.4,0.3,0.8,0.6,1.2,0.7c0.4,0.1,0.9,0.2,1.4,0.2c0.6,0,1.1-0.1,1.4-0.3
					c0.3-0.2,0.5-0.5,0.5-1c0-0.3-0.1-0.6-0.3-0.8c-0.2-0.2-0.6-0.4-1.1-0.5l-1.3-0.3c-0.6-0.1-1.1-0.4-1.4-0.8
					c-0.4-0.4-0.5-0.8-0.5-1.3c0-0.7,0.3-1.2,0.8-1.6c0.5-0.4,1.2-0.6,2.1-0.6c0.5,0,1,0.1,1.5,0.3c0.5,0.2,0.9,0.4,1.2,0.8
					l-0.4,0.7c-0.7-0.6-1.5-0.9-2.3-0.9c-0.6,0-1.1,0.1-1.4,0.4c-0.3,0.2-0.5,0.6-0.5,1c0,0.3,0.1,0.6,0.3,0.8
					c0.2,0.2,0.5,0.4,1,0.5l1.3,0.3c1.4,0.3,2.1,1,2.1,2c0,0.6-0.3,1.2-0.8,1.6c-0.5,0.4-1.2,0.6-2.1,0.6
					C169.6,205.7,168.6,205.3,167.9,204.6z"/>
				<path class="st10" d="M175.5,204.6l0.3-0.7c0.4,0.3,0.8,0.6,1.2,0.7c0.4,0.1,0.9,0.2,1.4,0.2c0.6,0,1.1-0.1,1.4-0.3
					c0.3-0.2,0.5-0.5,0.5-1c0-0.3-0.1-0.6-0.3-0.8c-0.2-0.2-0.6-0.4-1.1-0.5l-1.3-0.3c-0.6-0.1-1.1-0.4-1.4-0.8
					c-0.4-0.4-0.5-0.8-0.5-1.3c0-0.7,0.3-1.2,0.8-1.6c0.5-0.4,1.2-0.6,2.1-0.6c0.5,0,1,0.1,1.5,0.3c0.5,0.2,0.9,0.4,1.2,0.8
					l-0.4,0.7c-0.7-0.6-1.5-0.9-2.3-0.9c-0.6,0-1.1,0.1-1.4,0.4c-0.3,0.2-0.5,0.6-0.5,1c0,0.3,0.1,0.6,0.3,0.8
					c0.2,0.2,0.5,0.4,1,0.5l1.3,0.3c1.4,0.3,2.1,1,2.1,2c0,0.6-0.3,1.2-0.8,1.6c-0.5,0.4-1.2,0.6-2.1,0.6
					C177.2,205.7,176.2,205.3,175.5,204.6z"/>
				<path class="st10" d="M184,201.6L184,201.6c0,1.1,0.2,1.9,0.7,2.4c0.5,0.5,1.2,0.8,2.1,0.8c0.9,0,1.8-0.3,2.5-1l0.4,0.7
					c-0.3,0.3-0.8,0.6-1.3,0.8c-0.5,0.2-1.1,0.3-1.6,0.3c-1.2,0-2.1-0.4-2.8-1.1c-0.7-0.7-1-1.7-1-2.9c0-0.8,0.2-1.5,0.5-2.1
					s0.7-1.1,1.3-1.4c0.5-0.3,1.2-0.5,1.9-0.5c1,0,1.8,0.3,2.4,1c0.6,0.7,0.9,1.6,0.9,2.7v0.2H184z M184.9,199.1
					c-0.4,0.4-0.7,1-0.8,1.8h4.9c-0.1-0.8-0.3-1.4-0.7-1.8c-0.4-0.4-0.9-0.6-1.6-0.6C185.9,198.5,185.3,198.7,184.9,199.1z"/>
				<path class="st10" d="M191.4,204.6l0.3-0.7c0.4,0.3,0.8,0.6,1.2,0.7c0.4,0.1,0.9,0.2,1.4,0.2c0.6,0,1.1-0.1,1.4-0.3
					c0.3-0.2,0.5-0.5,0.5-1c0-0.3-0.1-0.6-0.3-0.8c-0.2-0.2-0.6-0.4-1.1-0.5l-1.3-0.3c-0.6-0.1-1.1-0.4-1.4-0.8
					c-0.4-0.4-0.5-0.8-0.5-1.3c0-0.7,0.3-1.2,0.8-1.6c0.5-0.4,1.2-0.6,2.1-0.6c0.5,0,1,0.1,1.5,0.3c0.5,0.2,0.9,0.4,1.2,0.8
					l-0.4,0.7c-0.7-0.6-1.5-0.9-2.3-0.9c-0.6,0-1.1,0.1-1.4,0.4c-0.3,0.2-0.5,0.6-0.5,1c0,0.3,0.1,0.6,0.3,0.8
					c0.2,0.2,0.5,0.4,1,0.5l1.3,0.3c1.4,0.3,2.1,1,2.1,2c0,0.6-0.3,1.2-0.8,1.6c-0.5,0.4-1.2,0.6-2.1,0.6
					C193.1,205.7,192.1,205.3,191.4,204.6z"/>
				<path class="st10" d="M199,204.6l0.3-0.7c0.4,0.3,0.8,0.6,1.2,0.7c0.4,0.1,0.9,0.2,1.4,0.2c0.6,0,1.1-0.1,1.4-0.3
					c0.3-0.2,0.5-0.5,0.5-1c0-0.3-0.1-0.6-0.3-0.8c-0.2-0.2-0.6-0.4-1.1-0.5l-1.3-0.3c-0.6-0.1-1.1-0.4-1.4-0.8
					c-0.4-0.4-0.5-0.8-0.5-1.3c0-0.7,0.3-1.2,0.8-1.6c0.5-0.4,1.2-0.6,2.1-0.6c0.5,0,1,0.1,1.5,0.3c0.5,0.2,0.9,0.4,1.2,0.8
					l-0.4,0.7c-0.7-0.6-1.5-0.9-2.3-0.9c-0.6,0-1.1,0.1-1.4,0.4c-0.3,0.2-0.5,0.6-0.5,1c0,0.3,0.1,0.6,0.3,0.8
					c0.2,0.2,0.5,0.4,1,0.5l1.3,0.3c1.4,0.3,2.1,1,2.1,2c0,0.6-0.3,1.2-0.8,1.6c-0.5,0.4-1.2,0.6-2.1,0.6
					C200.7,205.7,199.7,205.3,199,204.6z"/>
				<path class="st10" d="M217.8,200.7v4.9h-0.9v-4.8c0-0.8-0.1-1.3-0.4-1.7c-0.3-0.4-0.7-0.5-1.3-0.5c-0.7,0-1.3,0.2-1.7,0.7
					c-0.4,0.5-0.6,1.1-0.6,1.9v4.4H212v-4.8c0-0.8-0.1-1.3-0.4-1.7c-0.3-0.4-0.7-0.5-1.3-0.5c-0.7,0-1.2,0.2-1.7,0.7
					s-0.6,1.1-0.6,1.9v4.4H207V200c0-0.8,0-1.5-0.1-2.1h0.9l0.1,1.4c0.2-0.5,0.5-0.9,1-1.2c0.4-0.3,0.9-0.4,1.5-0.4
					c1.2,0,2,0.5,2.4,1.5c0.2-0.5,0.5-0.8,1-1.1c0.5-0.3,1-0.4,1.6-0.4C217,197.7,217.8,198.7,217.8,200.7z"/>
				<path class="st10" d="M220.8,201.6L220.8,201.6c0,1.1,0.2,1.9,0.7,2.4c0.5,0.5,1.2,0.8,2.1,0.8c0.9,0,1.8-0.3,2.5-1l0.4,0.7
					c-0.3,0.3-0.8,0.6-1.3,0.8c-0.5,0.2-1.1,0.3-1.6,0.3c-1.2,0-2.1-0.4-2.8-1.1c-0.7-0.7-1-1.7-1-2.9c0-0.8,0.2-1.5,0.5-2.1
					s0.7-1.1,1.3-1.4c0.5-0.3,1.2-0.5,1.9-0.5c1,0,1.8,0.3,2.4,1c0.6,0.7,0.9,1.6,0.9,2.7v0.2H220.8z M221.7,199.1
					c-0.4,0.4-0.7,1-0.8,1.8h4.9c-0.1-0.8-0.3-1.4-0.7-1.8c-0.4-0.4-0.9-0.6-1.6-0.6C222.7,198.5,222.2,198.7,221.7,199.1z"/>
				<path class="st10" d="M235,200.7v4.9h-0.9v-4.8c0-0.8-0.2-1.3-0.5-1.7c-0.3-0.4-0.8-0.5-1.5-0.5c-0.8,0-1.4,0.2-1.9,0.7
					c-0.5,0.5-0.7,1.1-0.7,1.9v4.4h-0.9V200c0-0.8,0-1.5-0.1-2.1h0.9l0.1,1.4c0.2-0.5,0.6-0.9,1.1-1.2s1-0.4,1.6-0.4
					C234.1,197.7,235,198.7,235,200.7z"/>
				<path class="st10" d="M238.8,198.6v4.6c0,0.6,0.1,1,0.4,1.3c0.2,0.2,0.6,0.4,1,0.4c0.3,0,0.6,0,0.8-0.1v0.8
					c-0.3,0.1-0.7,0.1-1,0.1c-0.7,0-1.2-0.2-1.6-0.6c-0.4-0.4-0.6-0.9-0.6-1.7v-4.8h-1.5v-0.8h1.5v-2l0.9-0.4v2.4h2.3v0.8H238.8z"/>
			</g>
		</g>
		<rect x="77" y="149.4" class="st2" width="0.8" height="44"/>
		<g>
			<g>
				<circle class="st2" cx="76.9" cy="151.7" r="11.6"/>
			</g>
			<g>
				<path class="st6" d="M79.3,148.5c-0.3,0-0.6-0.2-0.6-0.6v-3.8h-6c-0.8,0-1.5,0.7-1.5,1.5v12.1c0,0.8,0.7,1.5,1.5,1.5h8.8
					c0.8,0,1.5-0.7,1.5-1.5v-9.2L79.3,148.5L79.3,148.5z"/>
			</g>
			<path class="st7" d="M79.3,148.5h3.8l-4.4-4.4v3.8C78.8,148.2,79,148.5,79.3,148.5z"/>
			<polygon class="st1" points="83.2,151.7 83.2,148.6 79.3,148.6 			"/>
		</g>
		<g>
			<g>
				<circle class="st2" cx="76.9" cy="200.4" r="11.6"/>
			</g>
			<g>
				<path class="st6" d="M79.3,197.2c-0.3,0-0.6-0.2-0.6-0.6v-3.8h-6c-0.8,0-1.5,0.7-1.5,1.5v12.1c0,0.8,0.7,1.5,1.5,1.5h8.8
					c0.8,0,1.5-0.7,1.5-1.5v-9.2L79.3,197.2L79.3,197.2z"/>
			</g>
			<path class="st7" d="M79.3,197.2h3.8l-4.4-4.4v3.8C78.8,197,79,197.2,79.3,197.2z"/>
			<polygon class="st1" points="83.2,200.4 83.2,197.2 79.3,197.2 			"/>
		</g>
	</g>
</g>
</svg>
