<svg xmlns="http://www.w3.org/2000/svg" width="90" height="90" viewBox="0 0 90 90">
  <g id="Group_8242" data-name="Group 8242" transform="translate(-95.753 -7552.753)">
    <g id="Group_8241" data-name="Group 8241" transform="translate(95.438 7552.438)">
      <circle id="Ellipse_1293" data-name="Ellipse 1293" cx="45" cy="45" r="45" transform="translate(0.315 0.315)" fill="#1a4480"/>
      <g id="Group_7422" data-name="Group 7422" transform="translate(24.243 20.77)">
        <g id="Group_1697" data-name="Group 1697" transform="translate(29.705 0)">
          <g id="Group_1696" data-name="Group 1696">
            <g id="Group_1695" data-name="Group 1695">
              <g id="Group_1694" data-name="Group 1694">
                <g id="Group_1693" data-name="Group 1693">
                  <g id="Group_1692" data-name="Group 1692">
                    <g id="Group_1691" data-name="Group 1691">
                      <path id="Path_1573" data-name="Path 1573" d="M28.337,0V8.887h8.886Z" transform="translate(-28.337)" fill="#e5e5e5"/>
                    </g>
                  </g>
                </g>
              </g>
            </g>
          </g>
        </g>
        <g id="Group_1705" data-name="Group 1705" transform="translate(3.206 0)">
          <g id="Group_1704" data-name="Group 1704">
            <g id="Group_1703" data-name="Group 1703">
              <g id="Group_1702" data-name="Group 1702">
                <g id="Group_1701" data-name="Group 1701">
                  <g id="Group_1700" data-name="Group 1700">
                    <g id="Group_1699" data-name="Group 1699">
                      <g id="Group_1698" data-name="Group 1698">
                        <path id="Path_1574" data-name="Path 1574" d="M29.558,8.887V0H3.059V45.76H38.444V8.887H29.558Z" transform="translate(-3.059)" fill="#fff"/>
                      </g>
                    </g>
                  </g>
                </g>
              </g>
            </g>
          </g>
        </g>
        <path id="Path_1575" data-name="Path 1575" d="M40.351,14.345H1.166A1.166,1.166,0,0,0,0,15.512V28.43H40.351a1.167,1.167,0,0,0,1.167-1.167V15.512A1.166,1.166,0,0,0,40.351,14.345Z" transform="translate(0 0.693)" fill="#d02128"/>
        <path id="Path_1576" data-name="Path 1576" d="M0,27.781l3.206,3.206V27.781Z" transform="translate(0 1.342)" fill="#970b22"/>
        <path id="Path_1577" data-name="Path 1577" d="M37.457,30.88a9.35,9.35,0,0,0-12.31,13.447h12.31Z" transform="translate(1.135 1.432)" fill="#dbdbdb" opacity="0.5"/>
        <ellipse id="Ellipse_198" data-name="Ellipse 198" cx="7.499" cy="7.499" rx="7.499" ry="7.499" transform="translate(26.476 32.946)" fill="#fff"/>
        <path id="Path_1578" data-name="Path 1578" d="M36.341,38.765H34.619V35.092a.173.173,0,0,0-.173-.173H30.74a.173.173,0,0,0-.173.173v3.673H28.845a.229.229,0,0,0-.176.374l3.748,4.553a.229.229,0,0,0,.353,0l3.748-4.553A.229.229,0,0,0,36.341,38.765Z" transform="translate(1.382 1.686)" fill="#d02128"/>
        <path id="Path_1579" data-name="Path 1579" d="M8.668,16.818h3.211c2,0,3.645.715,3.645,2.958,0,2.187-1.668,3.141-3.589,3.141h-1.08v3.029H8.668Zm3.141,4.375c1.08,0,1.584-.505,1.584-1.416s-.574-1.234-1.641-1.234h-.9v2.65Z" transform="translate(0.418 0.813)" fill="#fff"/>
        <path id="Path_1580" data-name="Path 1580" d="M17.027,16.818h2.622c2.791,0,4.626,1.36,4.626,4.529s-1.836,4.6-4.5,4.6H17.027Zm2.5,7.375c1.472,0,2.523-.687,2.523-2.846s-1.051-2.776-2.523-2.776h-.308v5.622Z" transform="translate(0.822 0.813)" fill="#fff"/>
        <path id="Path_1581" data-name="Path 1581" d="M25.881,16.818h5.833v1.823H28.068v1.991h3.113v1.823H28.068v3.491H25.881Z" transform="translate(1.25 0.813)" fill="#fff"/>
      </g>
    </g>
  </g>
</svg>
