<?xml version="1.0" encoding="utf-8"?>
<!-- Generator: Adobe Illustrator 24.2.3, SVG Export Plug-In . SVG Version: 6.00 Build 0)  -->
<svg version="1.1" xmlns="http://www.w3.org/2000/svg" xmlns:xlink="http://www.w3.org/1999/xlink" x="0px" y="0px"
	 viewBox="0 0 450 350" style="enable-background:new 0 0 450 350;" xml:space="preserve">
<style type="text/css">
	.st0{opacity:0.46;fill:#FFFFFF;}
	.st1{fill:#F2F2F2;}
	.st2{fill:#0A90B7;}
	.st3{fill:#1294C2;}
	.st4{fill:#FFFFFF;}
	.st5{fill:#A6D7E5;}
	.st6{opacity:0.46;fill:#209ABD;}
	.st7{opacity:0.6;fill:#0A90B7;}
	.st8{fill:none;stroke:#0A90B7;stroke-width:0.75;stroke-miterlimit:10;}
	.st9{fill:#757575;}
	.st10{fill:none;stroke:#FFFFFF;stroke-width:2;stroke-linecap:round;}
	.st11{fill:#C71F25;}
	.st12{opacity:0.1;enable-background:new    ;}
	.st13{opacity:0.55;}
	.st14{fill:#D8D8D8;}
	.st15{font-family:'Montserrat-SemiBold';}
	.st16{font-size:17.4845px;}
	.st17{opacity:0.55;fill:#F2F2F2;}
	.st18{fill:none;}
	.st19{fill:#0A90B7;stroke:#0A90B7;stroke-width:0.25;stroke-miterlimit:10;}
	.st20{font-family:'Muli-Black';}
	.st21{font-size:15.0403px;}
	.st22{fill:#444444;}
	.st23{font-family:'Muli-Light';}
	.st24{letter-spacing:16;}
	.st25{letter-spacing:24;}
	.st26{opacity:0.55;fill:none;stroke:#0A90B7;stroke-width:0.75;stroke-miterlimit:10;}
	.st27{fill:#A00A0F;}
	.st28{font-size:18.1619px;}
	.st29{letter-spacing:29;}
	.st30{font-family:'Montserrat-Medium';}
	.st31{font-size:20.4321px;}
</style>
<g id="Layer_6">
</g>
<g id="Shapes">
</g>
<g id="background">
</g>
<g id="text">
</g>
<g id="Graphics">
</g>
<g id="Layer_5">
	<rect x="14.1" y="0" class="st0" width="421.9" height="349.8"/>
	<path id="Path_7616_4_" class="st2" d="M414,61.5h-330V16.3h330l9.9,22.6L414,61.5z"/>
	<rect x="28.8" y="16.3" class="st1" width="55.2" height="45.2"/>
	<text transform="matrix(1 0 0 1 101.6582 45.0488)" class="st4 st15 st16">Authorization</text>
	<g>
		<rect x="35" y="74.9" class="st17" width="372.7" height="251.8"/>
		<g class="st13">
			<rect x="68.3" y="127.7" class="st18" width="313.5" height="176.8"/>
			<text transform="matrix(1 0 0 1 68.3208 140.5437)"><tspan x="0" y="0" class="st19 st20 st21">•</tspan><tspan x="8" y="0" class="st22 st23 st21 st24">	</tspan><tspan x="28.2" y="0" class="st22 st23 st21">Remediation</tspan><tspan x="0" y="28.2" class="st19 st20 st21">•</tspan><tspan x="8" y="28.2" class="st22 st23 st21 st24">	</tspan><tspan x="28.2" y="28.2" class="st22 st23 st21">Agency Final Review</tspan><tspan x="0" y="56.4" class="st19 st20 st21">•</tspan><tspan x="8" y="56.4" class="st22 st23 st21 st24">	</tspan><tspan x="28.2" y="56.4" class="st22 st23 st21">Agency Issues ATO</tspan><tspan x="0" y="84.6" class="st19 st20 st21">•</tspan><tspan x="8" y="84.6" class="st22 st23 st21 st24">	</tspan><tspan x="28.2" y="84.6" class="st22 st23 st21">FedRAMP PMO Review</tspan><tspan x="0" y="112.8" class="st19 st20 st21">•</tspan><tspan x="8" y="112.8" class="st22 st23 st21 st24">	</tspan><tspan x="28.2" y="112.8" class="st22 st23 st21">Remediation (if needed)</tspan><tspan x="0" y="141" class="st22 st23 st21 st25">	</tspan><tspan x="28.2" y="141" class="st22 st23 st21">FedRAMP Marketplace Designation - </tspan><tspan x="28.2" y="159.8" class="st22 st23 st21">Authorized</tspan></text>
		</g>
		<line class="st26" x1="72" y1="138.3" x2="72" y2="261.5"/>
		<g class="st13">
			<path class="st14" d="M82.7,286.2c0.5-0.8-0.4-2.2-0.1-3.1c0.2-0.9,1.6-1.7,1.6-2.6c0-1-1.4-1.7-1.6-2.6
				c-0.2-0.9,0.6-2.3,0.1-3.1c-0.5-0.8-2.1-0.8-2.7-1.4c-0.7-0.7-0.6-2.2-1.4-2.7c-0.8-0.5-2.2,0.4-3.1,0.1
				c-0.9-0.2-1.7-1.6-2.6-1.6c-1,0-1.7,1.4-2.6,1.6c-0.9,0.2-2.3-0.6-3.1-0.1c-0.8,0.5-0.8,2.1-1.4,2.7c-0.7,0.7-2.2,0.6-2.7,1.4
				c-0.5,0.8,0.4,2.2,0.1,3.1c-0.2,0.9-1.6,1.7-1.6,2.6c0,1,1.4,1.7,1.6,2.6c0.2,0.9-0.6,2.3-0.1,3.1c0.5,0.8,2.1,0.8,2.7,1.4
				c0.4,0.4,0.6,1.3,0.8,1.9l-3.7,7.6l4.9-1.2l2.5,4.3l2.5-6.8l2.5,6.8l2.5-4.3l4.9,1.2l-3.7-7.6c0.3-0.7,0.4-1.5,0.8-1.9
				C80.6,287,82.2,287,82.7,286.2z"/>
			<g>
				<g>
					<polygon class="st27" points="68.6,298.8 66.1,294.4 61.2,295.6 67.8,281.9 73.9,284.5 					"/>
					<polygon class="st27" points="73.7,298.8 76.2,294.4 81.1,295.6 74.5,281.9 68.4,284.5 					"/>
				</g>
				<path class="st11" d="M82.5,279c0,1-1.4,1.7-1.6,2.6c-0.2,0.9,0.6,2.3,0.1,3.1c-0.5,0.8-2.1,0.8-2.7,1.4
					c-0.7,0.7-0.6,2.2-1.4,2.7c-0.8,0.5-2.2-0.4-3.1-0.1c-0.9,0.2-1.7,1.6-2.6,1.6c-1,0-1.7-1.4-2.6-1.6c-0.9-0.2-2.3,0.6-3.1,0.1
					c-0.8-0.5-0.8-2.1-1.4-2.7c-0.7-0.7-2.2-0.6-2.7-1.4c-0.5-0.8,0.4-2.2,0.1-3.1c-0.2-0.9-1.6-1.7-1.6-2.6c0-1,1.4-1.7,1.6-2.6
					c0.2-0.9-0.6-2.3-0.1-3.1c0.5-0.8,2.1-0.8,2.7-1.4c0.7-0.7,0.6-2.2,1.4-2.7c0.8-0.5,2.2,0.4,3.1,0.1c0.9-0.2,1.7-1.6,2.6-1.6
					c1,0,1.7,1.4,2.6,1.6c0.9,0.2,2.3-0.6,3.1-0.1c0.8,0.5,0.8,2.1,1.4,2.7c0.7,0.7,2.2,0.6,2.7,1.4c0.5,0.8-0.4,2.2-0.1,3.1
					C81.1,277.2,82.5,278,82.5,279z"/>
				<g>
					<path class="st1" d="M77.6,279c0,3.6-2.9,6.5-6.5,6.5s-6.5-2.9-6.5-6.5s2.9-6.5,6.5-6.5S77.6,275.4,77.6,279"/>
					<path class="st4" d="M76.5,279c0,2.9-2.4,5.3-5.3,5.3c-2.9,0-5.3-2.4-5.3-5.3s2.4-5.3,5.3-5.3C74.1,273.6,76.5,276,76.5,279"/>
				</g>
			</g>
		</g>
	</g>
	<g>
		<path class="st4" d="M67.8,50.3c-1,0-2.1-0.3-3.5-0.9L64,49.2l-0.2-0.1c-0.6-0.2-1.1-0.4-1.5-0.5c-0.3-0.1-0.6-0.2-0.8-0.2
			c-0.2,0-0.4,0.1-0.6,0.2c-0.1,0.1-0.3,0.3-0.3,0.5c-0.1,0.4-0.4,0.6-0.8,0.6h-2.5c-0.4,0-0.8-0.4-0.9-0.9c0-0.2,0-0.4-0.1-0.6
			c0-0.1,0-0.4,0-0.7c0-1.4,0.3-2.7,0.8-3.8c0.5-1.1,1.3-2.2,2.3-3.2c0.3-0.3,0.8-0.7,1.3-1c-0.1,0-0.3,0-0.4,0
			c-1.2,0-2.1-0.4-2.9-1.2c-0.7-0.8-1.1-2-1.1-3.4c0-2.2,0.9-4,2.6-5.4c1.6-1.3,3.6-2,6-2c2.5,0,4.6,0.7,6.1,2
			c1.7,1.4,2.5,3.3,2.5,5.6c0,1.8-0.5,3.3-1.6,4.6c-0.3,0.4-0.7,0.7-1.1,1h2.3c0.5,0,0.8,0.4,0.9,1c0,0.2,0,0.3,0,0.5
			c0,0.2,0,0.4,0,0.7c0,2.4-0.5,4.3-1.6,5.5C71.4,49.7,69.8,50.3,67.8,50.3L67.8,50.3z M66,42.8c0.4,0.1,0.7,0.1,1.1,0.2
			c1.3,0.3,1.6,0.3,1.7,0.3c0.2,0,0.5,0,0.6-0.2c0.1-0.1,0.2-0.4,0.2-1.4c0-0.1,0-0.2,0-0.3c-0.6,0.4-1.4,0.7-2.2,0.9
			c-0.2,0.1-0.6,0.2-1.1,0.3C66.3,42.7,66.1,42.7,66,42.8L66,42.8z M62.3,32.8c0.3,0.1,0.5,0.3,0.7,0.6c0.6,0.6,0.9,1.4,0.9,2.4
			c0,0.7-0.2,1.4-0.5,2c0.3-0.2,0.6-0.4,0.8-0.5c1-0.7,1.4-1.2,1.6-1.5c0.2-0.3,0.3-0.8,0.3-1.2c0-0.6-0.2-1-0.6-1.3
			c-0.5-0.4-1.2-0.6-2-0.6C63.1,32.6,62.7,32.6,62.3,32.8L62.3,32.8z M47.6,50.3c-2.6,0-4.7-1.1-6.3-3.1c-1.6-2.1-2.4-4.9-2.4-8.3
			c0-3.4,0.8-6.2,2.4-8.3c1.6-2.1,3.7-3.1,6.3-3.1c2.6,0,4.7,1.1,6.3,3.1c1.6,2.1,2.4,4.9,2.4,8.3c0,3.4-0.8,6.2-2.4,8.3
			C52.3,49.2,50.2,50.3,47.6,50.3L47.6,50.3z M47.7,32.5c-0.7,0-1.1,0.4-1.4,1.2c-0.3,0.7-0.6,2.2-0.6,5.2c0,3.1,0.3,4.5,0.6,5.2
			c0.3,0.8,0.7,1.2,1.4,1.2c0.7,0,1.1-0.4,1.5-1.2c0.3-0.7,0.6-2.2,0.6-5.2c0-3.1-0.3-4.5-0.6-5.3C48.8,32.8,48.4,32.5,47.7,32.5
			L47.7,32.5z"/>
		<path class="st2" d="M57.3,48.6c0-0.1,0-0.3,0-0.4c0-0.1,0-0.4,0-0.7c0-1.2,0.2-2.3,0.7-3.3c0.4-1,1.2-2,2.1-2.9
			c0.7-0.6,1.7-1.4,3.2-2.3c0.6-0.4,1.1-0.7,1.4-0.9c0.9-0.6,1.5-1.2,1.9-1.7c0.3-0.5,0.5-1.2,0.5-1.9c0-0.9-0.3-1.7-0.9-2.2
			c-0.6-0.6-1.5-0.8-2.5-0.8c-0.9,0-1.6,0.2-2.2,0.6c-0.6,0.4-1,0.9-1.3,1.6c0.2,0,0.3-0.1,0.5-0.1c0.2,0,0.3,0,0.4,0
			c0.6,0,1.1,0.2,1.5,0.6c0.4,0.4,0.6,0.9,0.6,1.6c0,0.7-0.3,1.4-0.8,1.9c-0.5,0.5-1.2,0.8-1.9,0.8c-0.9,0-1.7-0.3-2.3-1
			c-0.6-0.6-0.8-1.5-0.8-2.6c0-1.8,0.7-3.3,2.2-4.5c1.4-1.2,3.3-1.8,5.5-1.8c2.4,0,4.2,0.6,5.6,1.8c1.4,1.2,2.1,2.7,2.1,4.7
			c0,1.5-0.5,2.7-1.4,3.8c-0.9,1-2.2,1.9-4,2.4c-0.2,0.1-0.6,0.2-1,0.3c-2.9,0.9-4.7,2-5.5,3.2c0.6-0.4,1.2-0.6,1.8-0.8
			c0.6-0.2,1.2-0.3,1.9-0.3c0.7,0,1.6,0.1,2.5,0.4c1,0.2,1.6,0.3,1.9,0.3c0.6,0,1-0.2,1.3-0.6c0.3-0.4,0.4-1.1,0.4-2.1h2.6
			c0,0.2,0,0.3,0,0.5c0,0.2,0,0.4,0,0.7c0,2.1-0.4,3.7-1.3,4.7c-0.9,1-2.2,1.5-4,1.5c-0.9,0-1.9-0.3-3.2-0.9
			c-0.2-0.1-0.4-0.2-0.5-0.2c-0.7-0.3-1.2-0.5-1.6-0.6c-0.4-0.1-0.7-0.2-1-0.2c-0.4,0-0.7,0.1-1,0.3c-0.3,0.2-0.5,0.5-0.7,0.9H57.3z
			 M39.8,38.9c0-3.1,0.7-5.6,2.2-7.5c1.5-1.9,3.4-2.8,5.7-2.8c2.4,0,4.3,0.9,5.7,2.8c1.4,1.9,2.2,4.4,2.2,7.5c0,3.1-0.7,5.6-2.2,7.5
			c-1.5,1.9-3.4,2.8-5.7,2.8c-2.4,0-4.3-0.9-5.7-2.8C40.5,44.5,39.8,42,39.8,38.9z M44.8,38.9c0,2.6,0.2,4.6,0.7,5.7
			c0.4,1.2,1.2,1.8,2.2,1.8c1,0,1.7-0.6,2.2-1.8c0.5-1.2,0.7-3.1,0.7-5.7c0-2.7-0.2-4.6-0.7-5.7c-0.4-1.2-1.2-1.8-2.2-1.8
			c-1,0-1.7,0.6-2.2,1.8C45,34.3,44.8,36.2,44.8,38.9z"/>
		<path class="st5" d="M45.8,45.7l-0.3,0.4c-0.2-0.3-0.4-0.7-0.6-1.1c-0.5-1.3-0.7-3.3-0.7-6.1c0-2.8,0.2-4.8,0.7-6.1
			c0.6-1.4,1.5-2.2,2.7-2.2c0.8,0,1.5,0.4,2.1,1.1L49.5,32c-0.5-0.6-1.1-0.9-1.8-0.9c-1.1,0-1.9,0.6-2.4,1.9
			c-0.5,1.2-0.7,3.1-0.7,5.9c0,2.7,0.2,4.6,0.7,5.9C45.4,45.1,45.6,45.4,45.8,45.7z M53.3,31.7L53,32.1c1.3,1.7,1.9,4,1.9,6.8
			c0,2.9-0.7,5.2-2,6.9c-1.3,1.7-3.1,2.6-5.3,2.6c-2.2,0-4-0.9-5.3-2.6v0l-0.3,0.4c0,0,0,0,0,0c1.4,1.8,3.3,2.7,5.6,2.7
			c2.3,0,4.2-0.9,5.6-2.8c1.4-1.8,2.1-4.3,2.1-7.3C55.3,35.9,54.7,33.5,53.3,31.7z M72.9,42.2c0-0.1,0-0.1,0-0.2l-0.4,0.5
			c0,0.1,0,0.2,0,0.4c0,1.9-0.4,3.3-1.1,4.2c-0.7,0.9-1.9,1.3-3.5,1.3c-0.8,0-1.8-0.3-3-0.8l-0.5-0.2c-0.7-0.3-1.2-0.5-1.7-0.6
			c-0.5-0.1-0.8-0.2-1.2-0.2c-0.5,0-1,0.1-1.4,0.4c-0.3,0.2-0.5,0.5-0.7,0.8h-1.5l-0.4,0.5h2.1c0.2-0.4,0.4-0.7,0.7-0.9
			c0.3-0.2,0.7-0.3,1.1-0.3c0.3,0,0.7,0.1,1.1,0.2c0.4,0.1,1,0.3,1.6,0.6l0.5,0.2c1.3,0.6,2.3,0.8,3.2,0.8c1.7,0,3-0.5,3.8-1.5
			c0.8-1,1.2-2.5,1.2-4.6C72.9,42.6,72.9,42.3,72.9,42.2z M58.2,37.2c0.5,0.6,1.2,0.9,2.1,0.9c0.7,0,1.3-0.2,1.8-0.7
			c0.5-0.5,0.7-1,0.7-1.7c0-0.6-0.2-1-0.5-1.4L62,34.8c0,0,0,0,0,0c0.2,0.2,0.3,0.6,0.3,1c0,0.5-0.2,0.9-0.5,1.2
			c-0.4,0.4-0.9,0.6-1.5,0.6c-0.8,0-1.4-0.2-1.8-0.7L58.2,37.2C58.2,37.2,58.2,37.2,58.2,37.2z M71.1,32.1
			C71.2,32.1,71.2,32.1,71.1,32.1c0.6,0.9,0.8,1.8,0.8,2.9c0,1.2-0.4,2.3-1.1,3.2c-0.8,0.9-2.1,1.7-3.7,2.2c-0.3,0.1-0.6,0.2-1,0.3
			c-3.1,1-5,2.1-5.9,3.5c-0.2,0.3-0.2,0.7,0,1l0.3-0.3c-0.1-0.1-0.1-0.2,0-0.3c0.8-1.3,2.7-2.4,5.7-3.3c0.4-0.1,0.8-0.2,1-0.3
			c1.7-0.6,3-1.4,3.9-2.4c0.9-1,1.3-2.2,1.3-3.6c0-1.3-0.3-2.4-1-3.3L71.1,32.1z M66.4,31.7c-0.7-0.7-1.7-1-2.9-1
			c-1,0-1.8,0.2-2.5,0.7c-0.7,0.5-1.2,1.1-1.5,2c-0.1,0.3-0.1,0.6,0.1,0.9l0.3-0.3c0-0.1-0.1-0.2,0-0.3c0.3-0.8,0.7-1.4,1.4-1.8
			c0.6-0.4,1.4-0.6,2.3-0.6c1.1,0,2,0.3,2.6,0.9L66.4,31.7C66.5,31.7,66.4,31.7,66.4,31.7z"/>
	</g>
	<rect x="14.1" y="0" class="st6" width="421.9" height="349.8"/>
	<g>
		<polygon class="st2" points="14.1,243.5 0,225.1 14.1,225.1 		"/>
		<polygon class="st2" points="435.9,243.5 450,225.1 435.9,225.1 		"/>
		<rect x="14.1" y="215.1" class="st7" width="421.9" height="17.4"/>
	</g>
	<g>
		<rect x="0" y="87.1" class="st1" width="450" height="137.6"/>
		<g>
			<rect x="40.2" y="157.4" class="st18" width="360.5" height="41"/>
			<text transform="matrix(1 0 0 1 40.1836 170.7519)"><tspan x="0" y="0" class="st22 st23 st28 st29">	</tspan><tspan x="34.1" y="0" class="st22 st23 st28">Security Authorization Package (SSP, </tspan><tspan x="34.1" y="22.7" class="st22 st23 st28">SAP, SAR, POA&amp;M)*</tspan></text>
		</g>
		<g>
			<rect x="30.3" y="114.9" class="st18" width="270.4" height="23.4"/>
			<text transform="matrix(1 0 0 1 30.2637 132.124)" class="st2 st30 st31">Full Security Assessment</text>
		</g>
		<g>
			<g>
				<circle class="st2" cx="44.6" cy="167" r="13.7"/>
			</g>
			<g>
				<path class="st4" d="M47.5,163.2c-0.4,0-0.7-0.3-0.7-0.7V158h-7c-1,0-1.8,0.8-1.8,1.8v14.3c0,1,0.8,1.8,1.8,1.8h10.5
					c1,0,1.8-0.8,1.8-1.8v-10.9H47.5z"/>
			</g>
			<path class="st5" d="M47.4,163.2H52l-5.2-5.2v4.6C46.8,162.9,47.1,163.2,47.4,163.2z"/>
			<polygon class="st1" points="52,167 52,163.3 47.5,163.3 			"/>
		</g>
	</g>
</g>
</svg>
