<?xml version="1.0" encoding="utf-8"?>
<!-- Generator: Adobe Illustrator 24.2.3, SVG Export Plug-In . SVG Version: 6.00 Build 0)  -->
<svg version="1.1" xmlns="http://www.w3.org/2000/svg" xmlns:xlink="http://www.w3.org/1999/xlink" x="0px" y="0px"
	 viewBox="0 0 450 350" style="enable-background:new 0 0 450 350;" xml:space="preserve">
<style type="text/css">
	.st0{opacity:0.46;fill:#FFFFFF;}
	.st1{fill:#0A90B7;}
	.st2{fill:#F2F2F2;}
	.st3{fill:#FFFFFF;}
	.st4{font-family:'Montserrat-SemiBold';}
	.st5{font-size:17.5003px;}
	.st6{fill:#A6D7E5;}
	.st7{opacity:0.55;}
	.st8{fill:#757575;}
	.st9{fill:none;stroke:#FFFFFF;stroke-width:2;stroke-linecap:round;}
	.st10{fill:none;}
	.st11{fill:#444444;}
	.st12{font-family:'Muli-Light';}
	.st13{font-size:14.1128px;}
	.st14{letter-spacing:22;}
	.st15{font-family:'Montserrat-Medium';}
	.st16{font-size:15.8769px;}
	.st17{font-family:'Montserrat-LightItalic';}
	.st18{font-size:12.3487px;}
	.st19{fill:none;stroke:#0A90B7;stroke-width:0.75;stroke-miterlimit:10;}
	.st20{opacity:0.46;fill:#209ABD;}
	.st21{opacity:0.6;fill:#0A90B7;}
	.st22{font-size:19.311px;}
	.st23{font-size:17.1654px;}
	.st24{letter-spacing:27;}
	.st25{fill:#0A90B7;stroke:#0A90B7;stroke-width:0.25;stroke-miterlimit:10;}
	.st26{font-family:'Muli-Black';}
	.st27{letter-spacing:18;}
	.st28{fill:#C71F25;}
	.st29{opacity:0.1;enable-background:new    ;}
	.st30{opacity:0.55;fill:#F2F2F2;}
	.st31{fill:#D8D8D8;}
	.st32{fill:#A00A0F;}
	.st33{fill:#1294C2;}
</style>
<g id="Layer_6">
	<rect x="14.1" class="st0" width="421.9" height="349.8"/>
</g>
<g id="Shapes">
	<path id="Path_7616_3_" class="st1" d="M412.8,58.4H82.5V13.2h330.3l9.9,22.6L412.8,58.4z"/>
	<rect x="27.2" y="13.2" class="st2" width="55.3" height="45.3"/>
</g>
<g id="background">
</g>
<g id="text">
	<text transform="matrix(1 0 0 1 97.8508 42.0873)" class="st3 st4 st5">Preparation</text>
</g>
<g id="Graphics">
	<g>
		<path class="st3" d="M47.6,47.2c-2.6,0-4.7-1.1-6.3-3.1c-1.6-2.1-2.4-4.9-2.4-8.3c0-3.4,0.8-6.2,2.4-8.3c1.6-2.1,3.7-3.1,6.3-3.1
			c2.6,0,4.7,1.1,6.3,3.1c1.6,2.1,2.4,4.9,2.4,8.3c0,3.4-0.8,6.2-2.4,8.3C52.3,46.1,50.2,47.2,47.6,47.2L47.6,47.2z M47.7,29.4
			c-0.7,0-1.1,0.4-1.4,1.2c-0.3,0.7-0.6,2.2-0.6,5.2c0,3.1,0.3,4.5,0.6,5.2c0.3,0.8,0.7,1.2,1.4,1.2c0.7,0,1.1-0.4,1.5-1.2
			c0.3-0.7,0.6-2.2,0.6-5.2c0-3.1-0.3-4.6-0.6-5.3C48.8,29.7,48.4,29.4,47.7,29.4L47.7,29.4z M69.5,47.2c0.5,0,0.9-0.5,0.9-1.1v-2.8
			c0-0.6-0.4-1.2-0.9-1.2h-1.2c-1.2,0-1.2-0.6-1.2-1.2V25.5c0-0.6-0.4-1.2-0.9-1.2h-3.8c-0.4,0-0.7,0.3-0.8,0.7
			c-0.2,0.7-0.6,1.2-1.2,1.5c-0.7,0.4-1.6,0.6-2.8,0.6c-0.5,0-0.9,0.5-0.9,1.1v2.8c0,0.3,0.1,0.6,0.2,0.8c0.2,0.2,0.4,0.3,0.6,0.3
			h2.6v8.3v0.6c0,0.4,0,0.8-1.3,0.8h-1.3c-0.5,0-0.9,0.5-0.9,1.2v2.8c0,0.6,0.4,1.1,0.9,1.1H69.5L69.5,47.2z"/>
		<path class="st1" d="M57.6,46.1v-2.8h1.3c0.9,0,1.4-0.1,1.7-0.3c0.3-0.2,0.4-0.8,0.4-1.7v-0.6v-9.5h-3.5v-2.8
			c1.3,0,2.4-0.3,3.2-0.7c0.8-0.5,1.4-1.2,1.7-2.1h3.8v15.3c0,1.1,0.1,1.8,0.3,2c0.2,0.3,0.8,0.4,1.8,0.4h1.2v2.8H57.6z M39.8,35.8
			c0-3.1,0.7-5.6,2.2-7.5c1.5-1.9,3.4-2.8,5.7-2.8c2.4,0,4.3,0.9,5.7,2.8c1.4,1.9,2.2,4.4,2.2,7.5c0,3.1-0.7,5.6-2.2,7.5
			c-1.5,1.9-3.4,2.8-5.7,2.8c-2.4,0-4.3-0.9-5.7-2.8C40.5,41.4,39.8,38.9,39.8,35.8z M44.8,35.8c0,2.7,0.2,4.6,0.7,5.7
			c0.4,1.2,1.2,1.8,2.2,1.8c1,0,1.7-0.6,2.2-1.8c0.5-1.2,0.7-3.1,0.7-5.7c0-2.7-0.2-4.6-0.7-5.7c-0.4-1.2-1.2-1.8-2.2-1.8
			c-1,0-1.7,0.6-2.2,1.8C45,31.2,44.8,33.1,44.8,35.8z"/>
		<path class="st6" d="M66.4,43.1l-0.3,0.4c-0.4-0.4-0.6-1.3-0.6-2.7V26.4l0.4-0.6v15.1C66,42.1,66.1,42.8,66.4,43.1z M61,30.3h-2.8
			l-0.4,0.6H61c0.1,0,0.1,0,0.2,0.1l0.3-0.4C61.4,30.4,61.2,30.3,61,30.3z M68.8,44.1v1.1H58.2l-0.4,0.6h11.5v-2.2L68.8,44.1z
			 M45.3,41.7c-0.5-1.2-0.7-3.1-0.7-5.9c0-2.7,0.2-4.6,0.7-5.9c0.5-1.3,1.3-1.9,2.4-1.9c0.7,0,1.3,0.3,1.8,0.9l0.3-0.4
			c-0.5-0.7-1.2-1.1-2.1-1.1c-1.2,0-2.2,0.8-2.7,2.2c-0.5,1.3-0.7,3.3-0.7,6.1c0,2.8,0.2,4.8,0.7,6.1c0.2,0.4,0.4,0.8,0.6,1.1
			l0.3-0.4C45.6,42.3,45.4,42,45.3,41.7z M53.3,28.6L53,29c1.3,1.7,1.9,4,1.9,6.8c0,2.9-0.7,5.2-2,6.9c-1.3,1.7-3.1,2.6-5.3,2.6
			c-2.2,0-4-0.9-5.3-2.6v0l-0.3,0.4c0,0,0,0,0,0c1.4,1.8,3.3,2.7,5.6,2.7c2.3,0,4.2-0.9,5.6-2.8c1.4-1.8,2.1-4.3,2.1-7.3
			C55.3,32.8,54.7,30.4,53.3,28.6z"/>
	</g>
</g>
<g id="Layer_5">
	<g class="st7">
		<path id="Path_1554_3_" class="st8" d="M235.8,208.8c0,5.9-4.8,10.7-10.7,10.7s-10.7-4.8-10.7-10.7s4.8-10.7,10.7-10.7
			S235.8,202.9,235.8,208.8z"/>
		<g id="Group_1434_3_" transform="translate(4.574 4.222)">
			<g id="arrow_3_" transform="translate(4.574 0)">
				<path id="arrow-2_3_" class="st3" d="M216.1,211c-0.3,0-0.6-0.1-0.8-0.3l-4.7-4.5c-0.4-0.4-0.5-1.1-0.1-1.5c0,0,0,0,0.1-0.1
					c0.4-0.5,1.2-0.5,1.6,0c0,0,0,0,0,0l3.8,3.7l3.8-3.7c0.4-0.5,1.2-0.5,1.6,0c0,0,0,0,0,0c0.4,0.4,0.5,1.1,0.1,1.5
					c0,0,0,0-0.1,0.1l-4.7,4.5C216.7,210.9,216.4,211,216.1,211z"/>
			</g>
			<path id="Path_1968_3_" class="st9" d="M220.5,208.6v-9.5"/>
		</g>
	</g>
	<g class="st7">
		<rect x="40.1" y="227.5" class="st2" width="370" height="106.9"/>
		<g>
			<rect x="71.3" y="284.9" class="st10" width="318.4" height="31.9"/>
			<text transform="matrix(1 0 0 1 71.3352 295.2929)"><tspan x="0" y="0" class="st11 st12 st13 st14">	</tspan><tspan x="26.5" y="0" class="st11 st12 st13">Security Authorization Package (SSP, SAP, </tspan><tspan x="26.5" y="17.6" class="st11 st12 st13">SAR, POA&amp;M)</tspan></text>
		</g>
		<g>
			<rect x="63.6" y="249.1" class="st10" width="210.1" height="18.2"/>
			<text transform="matrix(1 0 0 1 63.6291 262.5956)" class="st1 st15 st16">Full Security Assessment</text>
		</g>
		<g>
			<g>
				<circle class="st1" cx="74.8" cy="289.6" r="10.7"/>
			</g>
			<g>
				<path class="st3" d="M77,286.7c-0.3,0-0.6-0.3-0.6-0.6v-3.5H71c-0.8,0-1.4,0.6-1.4,1.4v11.1c0,0.8,0.6,1.4,1.4,1.4h8.1
					c0.8,0,1.4-0.6,1.4-1.4v-8.5H77z"/>
			</g>
			<path class="st6" d="M77,286.7h3.5l-4.1-4.1v3.5C76.5,286.4,76.7,286.7,77,286.7z"/>
			<polygon class="st2" points="80.5,289.6 80.5,286.7 77,286.7 			"/>
		</g>
	</g>
	<g class="st7">
		<g>
			<rect x="61.6" y="113.3" class="st10" width="269.7" height="17.7"/>
			<text transform="matrix(1 0 0 1 61.571 126.7582)"><tspan x="0" y="0" class="st1 st15 st16">Readiness Assessment</tspan><tspan x="186.9" y="0" class="st11 st17 st18"> (required)</tspan></text>
		</g>
		<line class="st19" x1="74.2" y1="142.4" x2="74.2" y2="205.7"/>
	</g>
	<g>
		<polygon class="st1" points="14.1,233.6 0,215.2 14.1,215.2 		"/>
		<polygon class="st1" points="435.9,233.6 450,215.2 435.9,215.2 		"/>
		<rect x="14.1" y="205.2" class="st21" width="421.9" height="17.4"/>
	</g>
	<rect x="14.1" class="st20" width="421.9" height="349.8"/>
	<g>
		<rect x="0" y="76.6" class="st2" width="450" height="139.3"/>
		<g>
			<rect x="26.1" y="101" class="st10" width="233.7" height="53.5"/>
			<text transform="matrix(1 0 0 1 26.1037 117.4032)" class="st1 st15 st22">FedRAMP Connect</text>
		</g>
		<g>
			<rect x="36.8" y="145.2" class="st10" width="328.1" height="51.8"/>
			<text transform="matrix(1 0 0 1 36.8093 159.8852)"><tspan x="0" y="0" class="st11 st12 st23 st24">	</tspan><tspan x="32.2" y="0" class="st11 st12 st23">FedRAMP Connect Business Case</tspan><tspan x="0" y="32.2" class="st25 st26 st23">•</tspan><tspan x="9.2" y="32.2" class="st11 st12 st23 st27">	</tspan><tspan x="32.2" y="32.2" class="st11 st12 st23">Prioritized to work with JAB</tspan></text>
		</g>
		<line class="st19" x1="41.5" y1="147.9" x2="41.5" y2="184.8"/>
		<g>
			<g>
				<circle class="st1" cx="41.5" cy="152.1" r="13"/>
			</g>
			<g>
				<path class="st3" d="M44.2,148.6c-0.4,0-0.7-0.3-0.7-0.7v-4.3h-6.6c-0.9,0-1.7,0.8-1.7,1.7v13.6c0,0.9,0.8,1.7,1.7,1.7h9.9
					c0.9,0,1.7-0.8,1.7-1.7v-10.3H44.2z"/>
			</g>
			<path class="st6" d="M44.1,148.6h4.3l-4.9-4.9v4.3C43.5,148.3,43.8,148.6,44.1,148.6z"/>
			<polygon class="st2" points="48.5,152.1 48.5,148.6 44.2,148.6 			"/>
		</g>
	</g>
</g>
</svg>
