<svg xmlns="http://www.w3.org/2000/svg" width="78" height="80" viewBox="0 0 78 80">
  <g id="Group_8562" data-name="Group 8562" transform="translate(-275 -6363)">
    <g id="Group_8219" data-name="Group 8219" transform="translate(30.005 454.005)">
      <ellipse id="Ellipse_1293" data-name="Ellipse 1293" cx="39" cy="40" rx="39" ry="40" transform="translate(244.995 5908.995)" fill="#1a4480"/>
    </g>
    <g id="Group_8561" data-name="Group 8561" transform="translate(6.697 4217.439)">
      <g id="Group_5026" data-name="Group 5026" transform="translate(292 2164)">
        <g id="Group_1708" data-name="Group 1708" transform="translate(0)">
          <g id="Group_1707" data-name="Group 1707">
            <g id="Group_1706" data-name="Group 1706">
              <g id="Group_1697" data-name="Group 1697" transform="translate(23.371)">
                <g id="Group_1696" data-name="Group 1696">
                  <g id="Group_1695" data-name="Group 1695">
                    <g id="Group_1694" data-name="Group 1694">
                      <g id="Group_1693" data-name="Group 1693">
                        <g id="Group_1692" data-name="Group 1692">
                          <g id="Group_1691" data-name="Group 1691">
                            <path id="Path_1573" data-name="Path 1573" d="M28.337,0V7.838h7.837Z" transform="translate(-28.337)" fill="#e5e5e5"/>
                          </g>
                        </g>
                      </g>
                    </g>
                  </g>
                </g>
              </g>
              <g id="Group_1705" data-name="Group 1705">
                <g id="Group_1704" data-name="Group 1704">
                  <g id="Group_1703" data-name="Group 1703">
                    <g id="Group_1702" data-name="Group 1702">
                      <g id="Group_1701" data-name="Group 1701">
                        <g id="Group_1700" data-name="Group 1700">
                          <g id="Group_1699" data-name="Group 1699">
                            <g id="Group_1698" data-name="Group 1698">
                              <path id="Path_1574" data-name="Path 1574" d="M26.43,7.838V0H3.059V40.358H34.267V7.838H26.43Z" transform="translate(-3.059)" fill="#fff"/>
                            </g>
                          </g>
                        </g>
                      </g>
                    </g>
                  </g>
                </g>
              </g>
            </g>
          </g>
        </g>
      </g>
      <path id="Path_13365" data-name="Path 13365" d="M533.363,522.228c-.073,0-.146-.009-.219-.009s-.149.005-.223.009a10.918,10.918,0,0,0-.005,21.832c.076,0,.152.01.228.01s.149-.005.223-.009a10.889,10.889,0,0,0,2.778-.417l-.185-.646-.1-.338-.216-.752A3.837,3.837,0,0,1,533.656,543v-3.959q.6.007,1.179.029l-.3-1.035q-.438-.014-.883-.019V533.83h4.863c-.021.55-.066,1.087-.133,1.609l.966.514a18.527,18.527,0,0,0,.193-2.123h3.475a9.815,9.815,0,0,1-.939,3.575l.9.482a10.916,10.916,0,0,0-9.622-15.659Zm7.164,4.33c-.656.14-1.359.26-2.1.359a11.7,11.7,0,0,0-.665-1.389,8.619,8.619,0,0,0-1.221-1.682A9.943,9.943,0,0,1,540.527,526.558Zm-11.971,1.475c1.29.142,2.666.223,4.076.239v4.533H527.76A16.093,16.093,0,0,1,528.556,528.033Zm4.076-4.742v3.957c-1.276-.015-2.521-.084-3.7-.2C529.831,524.982,531.155,523.561,532.632,523.291Zm1.024,0c1.509.263,2.838,1.675,3.726,3.752-1.183.121-2.439.192-3.726.207Zm-3.908.558a8.632,8.632,0,0,0-1.222,1.682,11.847,11.847,0,0,0-.665,1.389c-.74-.1-1.444-.219-2.1-.359A9.937,9.937,0,0,1,529.748,523.847Zm-4.694,3.6c.755.179,1.578.331,2.453.454a17.283,17.283,0,0,0-.771,4.9h-3.484A9.836,9.836,0,0,1,525.055,527.448Zm1.691,6.382a17.134,17.134,0,0,0,.762,4.557c-.874.123-1.7.275-2.453.453a9.826,9.826,0,0,1-1.785-5.01Zm-.983,5.9c.655-.14,1.359-.26,2.1-.36a11.828,11.828,0,0,0,.665,1.389,8.615,8.615,0,0,0,1.222,1.681A9.941,9.941,0,0,1,525.762,539.731Zm6.87,3.267c-1.477-.269-2.8-1.691-3.7-3.753,1.175-.12,2.421-.189,3.7-.2Zm0-4.981c-1.408.016-2.785.1-4.076.24a15.963,15.963,0,0,1-.786-4.426h4.861Zm1.024-5.211v-4.533c1.419-.017,2.8-.1,4.1-.242a16.347,16.347,0,0,1,.772,4.775Zm5.9,0a17.3,17.3,0,0,0-.77-4.9c.874-.122,1.7-.275,2.452-.454a9.836,9.836,0,0,1,1.8,5.358Zm3.222,6.319-2.513.732a.147.147,0,0,0-.084.246l.005.007,2.262,2.787a.24.24,0,0,1-.035.337l-.964.782a.241.241,0,0,1-.084.045.269.269,0,0,1-.066.009.239.239,0,0,1-.186-.088l-2.245-2.766-.01-.012a.169.169,0,0,0-.128-.069.118.118,0,0,0-.036,0,.172.172,0,0,0-.1.089l-1.239,2.3a.15.15,0,0,1-.078.079l-.016,0c-.035,0-.067-.033-.086-.1l-2.485-8.685c-.023-.078-.006-.128.037-.139a.067.067,0,0,1,.023,0,.183.183,0,0,1,.085.026l7.962,4.238C542.908,539.007,542.9,539.088,542.774,539.125Z" transform="translate(-225.967 1652.383)" fill="#0080a7"/>
    </g>
  </g>
</svg>
