<?xml version="1.0" encoding="utf-8"?>
<!-- Generator: Adobe Illustrator 24.2.3, SVG Export Plug-In . SVG Version: 6.00 Build 0)  -->
<svg version="1.1" xmlns="http://www.w3.org/2000/svg" xmlns:xlink="http://www.w3.org/1999/xlink" x="0px" y="0px"
	 viewBox="0 0 450 290.9" style="enable-background:new 0 0 450 290.9;" xml:space="preserve">
<style type="text/css">
	.st0{opacity:0.46;fill:#FFFFFF;}
	.st1{fill:#0A90B7;}
	.st2{fill:#F2F2F2;}
	.st3{enable-background:new    ;}
	.st4{fill:#FFFFFF;}
	.st5{fill:#A6D7E5;}
	.st6{opacity:0.55;}
	.st7{fill:#757575;}
	.st8{fill:#444444;}
	.st9{opacity:0.46;fill:#209ABD;}
	.st10{opacity:0.6;fill:#0A90B7;}
	.st11{opacity:0.55;fill:#F2F2F2;}
	.st12{fill:#1294C2;}
	.st13{fill:#C71F25;}
	.st14{opacity:0.1;enable-background:new    ;}
</style>
<g id="Layer_6">
</g>
<g id="Shapes">
</g>
<g id="background">
</g>
<g id="text">
</g>
<g id="Graphics">
</g>
<g id="Layer_5">
	<rect x="49.2" class="st0" width="351.6" height="291.7"/>
	<path id="Path_7616_1_" class="st1" d="M381.5,48.7H106.3V11h275.2l8.3,18.9L381.5,48.7z"/>
	<rect x="60.2" y="11" class="st2" width="46.1" height="37.7"/>
	<g class="st3">
		<path class="st4" d="M129.3,28.5c0,2.2-1.7,3.6-4.3,3.6h-2.3v2.9h-1.9V24.9h4.2C127.6,24.9,129.3,26.2,129.3,28.5z M127.3,28.5
			c0-1.3-0.9-2-2.5-2h-2.2v4.1h2.2C126.5,30.5,127.3,29.8,127.3,28.5z"/>
		<path class="st4" d="M135.5,27.2v1.7c-0.2,0-0.3,0-0.4,0c-1.4,0-2.3,0.8-2.3,2.4v3.8H131v-7.8h1.7v1.1
			C133.2,27.6,134.2,27.2,135.5,27.2z"/>
		<path class="st4" d="M144.3,31.8h-6.1c0.2,1.1,1.2,1.9,2.5,1.9c0.9,0,1.6-0.3,2.1-0.8l1,1.1c-0.7,0.8-1.8,1.3-3.1,1.3
			c-2.6,0-4.3-1.7-4.3-4c0-2.3,1.7-4,4-4c2.3,0,3.9,1.6,3.9,4C144.3,31.4,144.3,31.6,144.3,31.8z M138.2,30.5h4.4
			c-0.1-1.1-1-1.9-2.2-1.9C139.2,28.7,138.4,29.4,138.2,30.5z"/>
		<path class="st4" d="M154.4,31.2c0,2.4-1.7,4-4,4c-1,0-1.9-0.3-2.5-1.1v3.8h-1.8V27.3h1.7v1c0.6-0.7,1.5-1.1,2.6-1.1
			C152.8,27.2,154.4,28.8,154.4,31.2z M152.6,31.2c0-1.5-1-2.4-2.3-2.4c-1.3,0-2.3,0.9-2.3,2.4c0,1.5,1,2.4,2.3,2.4
			C151.6,33.6,152.6,32.7,152.6,31.2z"/>
		<path class="st4" d="M162.7,30.5v4.6h-1.7v-0.9c-0.4,0.7-1.3,1.1-2.5,1.1c-1.8,0-2.9-1-2.9-2.3c0-1.3,0.9-2.3,3.2-2.3h2v-0.1
			c0-1.1-0.6-1.7-1.9-1.7c-0.9,0-1.8,0.3-2.4,0.8l-0.7-1.3c0.8-0.6,2-1,3.3-1C161.4,27.2,162.7,28.3,162.7,30.5z M160.8,32.6v-0.9
			H159c-1.2,0-1.6,0.5-1.6,1c0,0.7,0.6,1.1,1.5,1.1C159.8,33.8,160.5,33.4,160.8,32.6z"/>
		<path class="st4" d="M169.6,27.2v1.7c-0.2,0-0.3,0-0.4,0c-1.4,0-2.3,0.8-2.3,2.4v3.8h-1.8v-7.8h1.7v1.1
			C167.3,27.6,168.3,27.2,169.6,27.2z"/>
		<path class="st4" d="M177.7,30.5v4.6h-1.7v-0.9c-0.4,0.7-1.3,1.1-2.5,1.1c-1.8,0-2.9-1-2.9-2.3c0-1.3,0.9-2.3,3.2-2.3h2v-0.1
			c0-1.1-0.6-1.7-1.9-1.7c-0.9,0-1.8,0.3-2.4,0.8l-0.7-1.3c0.8-0.6,2-1,3.3-1C176.4,27.2,177.7,28.3,177.7,30.5z M175.8,32.6v-0.9
			H174c-1.2,0-1.6,0.5-1.6,1c0,0.7,0.6,1.1,1.5,1.1C174.8,33.8,175.5,33.4,175.8,32.6z"/>
		<path class="st4" d="M184.8,34.6c-0.4,0.4-1.1,0.5-1.8,0.5c-1.7,0-2.7-0.9-2.7-2.6v-3.7H179v-1.5h1.3v-1.8h1.8v1.8h2.1v1.5h-2.1
			v3.7c0,0.8,0.4,1.2,1.1,1.2c0.4,0,0.7-0.1,1-0.3L184.8,34.6z"/>
		<path class="st4" d="M186.1,24.9c0-0.6,0.5-1.1,1.2-1.1s1.2,0.5,1.2,1.1c0,0.6-0.5,1.1-1.2,1.1C186.6,26,186.1,25.5,186.1,24.9z
			 M186.3,27.3h1.8v7.8h-1.8V27.3z"/>
		<path class="st4" d="M190,31.2c0-2.3,1.8-4,4.1-4c2.4,0,4.2,1.6,4.2,4s-1.7,4-4.2,4C191.7,35.2,190,33.5,190,31.2z M196.4,31.2
			c0-1.5-1-2.4-2.3-2.4c-1.3,0-2.3,0.9-2.3,2.4c0,1.5,1,2.4,2.3,2.4C195.4,33.6,196.4,32.7,196.4,31.2z"/>
		<path class="st4" d="M207.8,30.6v4.5h-1.8v-4.2c0-1.4-0.7-2.1-1.9-2.1c-1.3,0-2.2,0.8-2.2,2.3v3.9h-1.8v-7.8h1.7v1
			c0.6-0.7,1.5-1.1,2.7-1.1C206.4,27.2,207.8,28.3,207.8,30.6z"/>
	</g>
	<g>
		<path class="st4" d="M77.2,39.3c-2.1,0-3.9-0.9-5.2-2.6c-1.3-1.7-2-4.1-2-6.9c0-2.8,0.7-5.2,2-6.9c1.3-1.7,3.1-2.6,5.2-2.6
			c2.1,0,3.9,0.9,5.2,2.6c1.3,1.7,2,4.1,2,6.9c0,2.8-0.7,5.2-2,6.9C81.1,38.5,79.3,39.3,77.2,39.3L77.2,39.3z M77.2,24.5
			c-0.6,0-0.9,0.3-1.2,1c-0.2,0.6-0.5,1.8-0.5,4.4c0,2.6,0.3,3.8,0.5,4.4c0.3,0.7,0.6,1,1.2,1c0.6,0,1-0.3,1.2-1
			c0.2-0.6,0.5-1.8,0.5-4.4c0-2.6-0.3-3.8-0.5-4.4C78.2,24.8,77.8,24.5,77.2,24.5L77.2,24.5z M95.4,39.3c0.4,0,0.7-0.4,0.7-1V36
			c0-0.5-0.3-1-0.7-1h-1c-1,0-1-0.5-1-1V21.3c0-0.5-0.3-1-0.7-1h-3.1c-0.3,0-0.6,0.2-0.7,0.6c-0.2,0.6-0.5,1-1,1.3
			c-0.6,0.3-1.4,0.5-2.4,0.5c-0.4,0-0.7,0.4-0.7,1v2.3c0,0.3,0.1,0.5,0.2,0.7c0.1,0.2,0.3,0.3,0.5,0.3h2.2v7v0.5c0,0.3,0,0.7-1,0.7
			h-1.1c-0.4,0-0.7,0.4-0.7,1v2.3c0,0.5,0.3,1,0.7,1H95.4L95.4,39.3z"/>
		<path class="st1" d="M85.5,38.4V36h1.1c0.7,0,1.2-0.1,1.4-0.3c0.2-0.2,0.3-0.6,0.3-1.4v-0.5V26h-2.9v-2.3c1.1,0,2-0.2,2.7-0.6
			c0.7-0.4,1.1-1,1.4-1.8h3.1v12.8c0,0.9,0.1,1.5,0.3,1.7c0.2,0.2,0.7,0.3,1.5,0.3h1v2.3H85.5z M70.6,29.8c0-2.6,0.6-4.7,1.8-6.2
			c1.2-1.6,2.8-2.4,4.8-2.4c2,0,3.6,0.8,4.8,2.4c1.2,1.6,1.8,3.7,1.8,6.3c0,2.6-0.6,4.7-1.8,6.2c-1.2,1.6-2.8,2.4-4.8,2.4
			c-2,0-3.6-0.8-4.8-2.4C71.2,34.5,70.6,32.4,70.6,29.8z M74.8,29.8c0,2.2,0.2,3.8,0.6,4.8c0.4,1,1,1.5,1.8,1.5
			c0.8,0,1.4-0.5,1.8-1.5c0.4-1,0.6-2.6,0.6-4.8c0-2.2-0.2-3.8-0.6-4.8c-0.4-1-1-1.5-1.8-1.5c-0.8,0-1.4,0.5-1.8,1.5
			C75,26,74.8,27.6,74.8,29.8z"/>
		<path class="st5" d="M92.8,35.9l-0.2,0.4c-0.3-0.4-0.5-1.1-0.5-2.2V22l0.4-0.5v12.6C92.5,35.1,92.6,35.6,92.8,35.9z M88.3,25.2H86
			l-0.4,0.5h2.7c0,0,0.1,0,0.1,0.1l0.3-0.3C88.6,25.3,88.5,25.2,88.3,25.2z M94.9,36.8v0.9H86l-0.4,0.5h9.6v-1.9L94.9,36.8z
			 M75.2,34.7c-0.4-1-0.6-2.6-0.6-4.9c0-2.3,0.2-3.9,0.6-4.9c0.4-1.1,1.1-1.6,2-1.6c0.6,0,1.1,0.3,1.5,0.7l0.2-0.3
			c-0.4-0.6-1-0.9-1.7-0.9c-1,0-1.8,0.6-2.3,1.8c-0.4,1.1-0.6,2.8-0.6,5.1c0,2.3,0.2,4,0.6,5.1c0.1,0.4,0.3,0.7,0.5,0.9l0.2-0.3
			C75.5,35.3,75.4,35,75.2,34.7z M81.9,23.8l-0.2,0.3c1.1,1.4,1.6,3.3,1.6,5.7c0,2.4-0.6,4.3-1.7,5.7c-1.1,1.4-2.6,2.2-4.4,2.2
			c-1.8,0-3.3-0.7-4.4-2.2v0l-0.2,0.3c0,0,0,0,0,0c1.2,1.5,2.7,2.3,4.6,2.3c1.9,0,3.5-0.8,4.7-2.3c1.2-1.5,1.8-3.6,1.8-6.1
			C83.6,27.4,83.1,25.3,81.9,23.8z"/>
	</g>
	<g class="st6">
		<path id="Path_1554_4_" class="st7" d="M234,167.5c0,4.9-4,8.9-8.9,8.9c-4.9,0-8.9-4-8.9-8.9c0-4.9,4-8.9,8.9-8.9
			C230,158.6,234,162.6,234,167.5z"/>
		<g id="Group_1434_4_" transform="translate(4.574 4.222)">
			<g id="arrow_4_" transform="translate(4.574 0)">
				<path id="arrow-2_4_" class="st4" d="M216,168.6c-0.3,0-0.5-0.1-0.7-0.3l-3.9-3.8c-0.4-0.3-0.4-0.9-0.1-1.3c0,0,0,0,0.1-0.1
					c0.4-0.4,1-0.4,1.4,0c0,0,0,0,0,0l3.2,3.1l3.2-3.1c0.4-0.4,1-0.4,1.4,0c0,0,0,0,0,0c0.4,0.3,0.4,0.9,0.1,1.3c0,0,0,0-0.1,0.1
					l-3.9,3.8C216.5,168.5,216.3,168.7,216,168.6z"/>
			</g>
			<path class="st4" d="M220.5,167.6c-0.6,0-1-0.4-1-1v-7.9c0-0.6,0.4-1,1-1s1,0.4,1,1v7.9C221.5,167.1,221.1,167.6,220.5,167.6z"/>
		</g>
	</g>
	<g class="st6">
		<rect x="70.9" y="63.8" class="st2" width="308.3" height="87.9"/>
		<g>
			<g>
				<path class="st1" d="M91.5,83.7v3.2h4.6V88h-4.6v3.7h-1.3v-9.3h6.5v1.2H91.5z"/>
				<path class="st1" d="M104.6,88.7h-5.7c0.2,1.2,1.2,2.1,2.5,2.1c0.8,0,1.5-0.3,2-0.8l0.7,0.8c-0.6,0.7-1.6,1.1-2.8,1.1
					c-2.3,0-3.8-1.5-3.8-3.6c0-2.1,1.5-3.6,3.5-3.6s3.5,1.5,3.5,3.6C104.7,88.4,104.6,88.6,104.6,88.7z M98.9,87.8h4.5
					c-0.1-1.2-1-2-2.2-2C100,85.8,99.1,86.6,98.9,87.8z"/>
				<path class="st1" d="M113.2,82v9.8h-1.2v-1.1c-0.6,0.8-1.5,1.2-2.5,1.2c-2.1,0-3.5-1.4-3.5-3.6s1.5-3.6,3.5-3.6
					c1,0,1.9,0.4,2.4,1.1V82H113.2z M111.9,88.3c0-1.5-1-2.5-2.4-2.5c-1.3,0-2.4,1-2.4,2.5c0,1.5,1,2.5,2.4,2.5
					C110.9,90.8,111.9,89.8,111.9,88.3z"/>
				<path class="st1" d="M122.1,91.8l-2-2.8c-0.2,0-0.4,0-0.6,0h-2.3v2.8h-1.3v-9.3h3.6c2.4,0,3.9,1.2,3.9,3.2c0,1.4-0.7,2.5-2,2.9
					l2.2,3.1H122.1z M122,85.8c0-1.3-0.9-2.1-2.6-2.1h-2.2v4.2h2.2C121.2,87.8,122,87.1,122,85.8z"/>
				<path class="st1" d="M131.5,89.5h-4.9l-1,2.3h-1.4l4.2-9.3h1.3l4.2,9.3h-1.4L131.5,89.5z M131.1,88.4l-2-4.5l-2,4.5H131.1z"/>
				<path class="st1" d="M144,91.8l0-6.7l-3.3,5.6h-0.6l-3.3-5.6v6.7h-1.3v-9.3h1.1l3.9,6.5l3.8-6.5h1.1l0,9.3H144z"/>
				<path class="st1" d="M155.7,85.8c0,2-1.5,3.2-3.9,3.2h-2.3v2.8h-1.3v-9.3h3.6C154.2,82.5,155.7,83.7,155.7,85.8z M154.4,85.8
					c0-1.3-0.9-2.1-2.6-2.1h-2.2v4.2h2.2C153.5,87.8,154.4,87.1,154.4,85.8z"/>
				<path class="st1" d="M160.9,87.2c0-2.7,2.1-4.7,4.9-4.7c1.4,0,2.7,0.5,3.5,1.4l-0.9,0.8c-0.7-0.8-1.6-1.1-2.6-1.1
					c-2.1,0-3.6,1.5-3.6,3.6c0,2.1,1.5,3.6,3.6,3.6c1,0,1.9-0.4,2.6-1.1l0.9,0.8c-0.8,1-2.1,1.5-3.5,1.5
					C162.9,91.9,160.9,89.9,160.9,87.2z"/>
				<path class="st1" d="M170.2,88.3c0-2.1,1.5-3.6,3.7-3.6s3.6,1.5,3.6,3.6s-1.5,3.6-3.6,3.6S170.2,90.4,170.2,88.3z M176.2,88.3
					c0-1.5-1-2.5-2.4-2.5c-1.3,0-2.4,1-2.4,2.5c0,1.5,1,2.5,2.4,2.5C175.2,90.8,176.2,89.8,176.2,88.3z"/>
				<path class="st1" d="M186,87.8v4h-1.3v-3.9c0-1.4-0.7-2.1-1.9-2.1c-1.3,0-2.2,0.8-2.2,2.3v3.6h-1.3v-7h1.2v1.1
					c0.5-0.7,1.4-1.1,2.5-1.1C184.8,84.7,186,85.7,186,87.8z"/>
				<path class="st1" d="M195.2,87.8v4h-1.3v-3.9c0-1.4-0.7-2.1-1.9-2.1c-1.3,0-2.2,0.8-2.2,2.3v3.6h-1.3v-7h1.2v1.1
					c0.5-0.7,1.4-1.1,2.5-1.1C194,84.7,195.2,85.7,195.2,87.8z"/>
				<path class="st1" d="M204,88.7h-5.7c0.2,1.2,1.2,2.1,2.5,2.1c0.8,0,1.5-0.3,2-0.8l0.7,0.8c-0.6,0.7-1.6,1.1-2.8,1.1
					c-2.3,0-3.8-1.5-3.8-3.6c0-2.1,1.5-3.6,3.5-3.6s3.5,1.5,3.5,3.6C204,88.4,204,88.6,204,88.7z M198.3,87.8h4.5
					c-0.1-1.2-1-2-2.2-2C199.3,85.8,198.4,86.6,198.3,87.8z"/>
				<path class="st1" d="M205.3,88.3c0-2.1,1.5-3.6,3.7-3.6c1.3,0,2.3,0.5,2.9,1.5l-1,0.6c-0.5-0.7-1.1-1-1.9-1
					c-1.4,0-2.4,1-2.4,2.5c0,1.5,1,2.5,2.4,2.5c0.8,0,1.5-0.3,1.9-1l1,0.6c-0.6,1-1.6,1.5-2.9,1.5C206.8,91.9,205.3,90.4,205.3,88.3
					z"/>
				<path class="st1" d="M217.6,91.4c-0.4,0.3-1,0.5-1.5,0.5c-1.4,0-2.2-0.8-2.2-2.2v-3.8h-1.2v-1h1.2v-1.5h1.3v1.5h2v1h-2v3.8
					c0,0.8,0.4,1.2,1.1,1.2c0.4,0,0.7-0.1,1-0.3L217.6,91.4z"/>
			</g>
		</g>
		<g>
			<g>
				<path class="st8" d="M119.3,105.5h5v0.6H120v3.2h4.1v0.6H120v3.9h-0.7V105.5z"/>
				<path class="st8" d="M126.1,110.9L126.1,110.9c0,0.8,0.2,1.4,0.5,1.9c0.4,0.4,0.9,0.6,1.6,0.6c0.7,0,1.4-0.2,1.9-0.7l0.3,0.6
					c-0.3,0.2-0.6,0.4-1,0.6c-0.4,0.1-0.8,0.2-1.2,0.2c-0.9,0-1.6-0.3-2.1-0.8s-0.8-1.3-0.8-2.2c0-0.6,0.1-1.1,0.3-1.6
					c0.2-0.5,0.6-0.8,1-1.1s0.9-0.4,1.4-0.4c0.8,0,1.4,0.3,1.8,0.8c0.4,0.5,0.7,1.2,0.7,2.1v0.2H126.1z M126.7,108.9
					c-0.3,0.3-0.5,0.8-0.6,1.4h3.7c0-0.6-0.2-1.1-0.5-1.4c-0.3-0.3-0.7-0.5-1.3-0.5C127.5,108.4,127.1,108.6,126.7,108.9z"/>
				<path class="st8" d="M137.1,105.2v8.7h-0.7v-1.1c-0.2,0.4-0.4,0.7-0.8,0.9c-0.3,0.2-0.8,0.3-1.3,0.3c-0.5,0-1-0.1-1.4-0.4
					c-0.4-0.3-0.7-0.6-0.9-1.1c-0.2-0.5-0.3-1-0.3-1.6c0-0.6,0.1-1.1,0.3-1.6c0.2-0.5,0.5-0.8,0.9-1.1c0.4-0.2,0.9-0.4,1.4-0.4
					c0.5,0,0.9,0.1,1.2,0.3c0.3,0.2,0.6,0.5,0.8,0.9v-3.8H137.1z M135.9,112.7c0.3-0.4,0.5-1,0.5-1.8c0-0.8-0.2-1.4-0.5-1.8
					c-0.3-0.4-0.8-0.6-1.4-0.6c-0.6,0-1.1,0.2-1.5,0.6c-0.3,0.4-0.5,1-0.5,1.8c0,0.8,0.2,1.4,0.5,1.8c0.3,0.4,0.8,0.6,1.4,0.6
					S135.6,113.1,135.9,112.7z"/>
				<path class="st8" d="M145.7,113.9h-0.8l-1-2.8c-0.1-0.4-0.3-0.6-0.6-0.8c-0.2-0.1-0.6-0.2-1-0.2H140v3.7h-0.7v-8.4h3.2
					c0.9,0,1.5,0.2,2,0.6c0.5,0.4,0.7,1,0.7,1.7c0,0.5-0.1,1-0.4,1.4s-0.7,0.6-1.2,0.8c0.2,0,0.5,0.1,0.6,0.3
					c0.2,0.2,0.3,0.4,0.4,0.7L145.7,113.9z M142.4,109.5c1.4,0,2.1-0.6,2.1-1.7c0-1.1-0.7-1.7-2.1-1.7H140v3.4H142.4z"/>
				<path class="st8" d="M152.8,111.7h-4.5l-1,2.2h-0.8l3.6-8.4h0.7l3.6,8.4h-0.8L152.8,111.7z M152.5,111l-2-4.6l-2,4.6H152.5z"/>
				<path class="st8" d="M163.7,105.5v8.4h-0.7v-6.7l-2.9,6.7h-0.5l-3-6.6l0,6.6h-0.7v-8.4h0.6l3.3,7.5l3.3-7.5H163.7z"/>
				<path class="st8" d="M166,105.5h3.2c0.8,0,1.5,0.2,2,0.6c0.5,0.4,0.7,1,0.7,1.7c0,0.7-0.2,1.3-0.7,1.7c-0.5,0.4-1.1,0.6-2,0.6
					h-2.5v3.8H166V105.5z M169.1,109.5c0.7,0,1.2-0.1,1.5-0.4c0.3-0.3,0.5-0.7,0.5-1.2c0-0.5-0.2-0.9-0.5-1.2
					c-0.3-0.3-0.8-0.4-1.5-0.4h-2.4v3.4H169.1z"/>
				<path class="st8" d="M178.1,113.5c-0.6-0.3-1-0.8-1.3-1.5s-0.5-1.4-0.5-2.3c0-0.9,0.2-1.6,0.5-2.3s0.7-1.1,1.3-1.5
					c0.6-0.3,1.2-0.5,2-0.5c0.6,0,1.1,0.1,1.6,0.3c0.5,0.2,0.9,0.5,1.3,0.8l-0.3,0.6c-0.4-0.4-0.8-0.6-1.2-0.8s-0.8-0.2-1.3-0.2
					c-1,0-1.7,0.3-2.2,0.9s-0.8,1.5-0.8,2.7c0,1.2,0.3,2.1,0.8,2.7s1.3,1,2.3,1c0.5,0,0.9-0.1,1.3-0.2c0.4-0.2,0.8-0.4,1.2-0.8
					l0.3,0.6c-0.4,0.4-0.8,0.6-1.3,0.8c-0.5,0.2-1,0.3-1.6,0.3C179.4,114,178.7,113.8,178.1,113.5z"/>
				<path class="st8" d="M185.4,113.6c-0.4-0.3-0.7-0.6-1-1.1c-0.2-0.5-0.3-1-0.3-1.6c0-0.6,0.1-1.1,0.3-1.6c0.2-0.5,0.5-0.8,1-1.1
					s0.9-0.4,1.4-0.4c0.5,0,1,0.1,1.4,0.4c0.4,0.3,0.7,0.6,0.9,1.1c0.2,0.5,0.3,1,0.3,1.6c0,0.6-0.1,1.1-0.3,1.6
					c-0.2,0.5-0.5,0.8-0.9,1.1c-0.4,0.3-0.9,0.4-1.4,0.4C186.3,114,185.9,113.8,185.4,113.6z M188.3,112.7c0.3-0.4,0.5-1,0.5-1.8
					c0-0.8-0.2-1.4-0.5-1.8c-0.3-0.4-0.8-0.6-1.4-0.6c-0.6,0-1.1,0.2-1.4,0.6c-0.3,0.4-0.5,1-0.5,1.8c0,0.8,0.2,1.4,0.5,1.8
					c0.3,0.4,0.8,0.6,1.4,0.6S188,113.1,188.3,112.7z"/>
				<path class="st8" d="M196.1,110.1v3.8h-0.7v-3.7c0-0.6-0.1-1-0.4-1.3c-0.2-0.3-0.6-0.4-1.1-0.4c-0.6,0-1.1,0.2-1.4,0.5
					c-0.4,0.4-0.5,0.8-0.5,1.5v3.4h-0.7v-4.3c0-0.6,0-1.2-0.1-1.6h0.7l0.1,1.1c0.2-0.4,0.5-0.7,0.8-0.9c0.4-0.2,0.8-0.3,1.2-0.3
					C195.4,107.9,196.1,108.6,196.1,110.1z"/>
				<path class="st8" d="M202.9,110.1v3.8h-0.7v-3.7c0-0.6-0.1-1-0.4-1.3c-0.2-0.3-0.6-0.4-1.1-0.4c-0.6,0-1.1,0.2-1.4,0.5
					c-0.4,0.4-0.5,0.8-0.5,1.5v3.4h-0.7v-4.3c0-0.6,0-1.2-0.1-1.6h0.7l0.1,1.1c0.2-0.4,0.5-0.7,0.8-0.9c0.4-0.2,0.8-0.3,1.2-0.3
					C202.2,107.9,202.9,108.6,202.9,110.1z"/>
				<path class="st8" d="M205.3,110.9L205.3,110.9c0,0.8,0.2,1.4,0.5,1.9c0.4,0.4,0.9,0.6,1.6,0.6c0.7,0,1.4-0.2,1.9-0.7l0.3,0.6
					c-0.3,0.2-0.6,0.4-1,0.6c-0.4,0.1-0.8,0.2-1.2,0.2c-0.9,0-1.6-0.3-2.1-0.8s-0.8-1.3-0.8-2.2c0-0.6,0.1-1.1,0.3-1.6
					c0.2-0.5,0.6-0.8,1-1.1s0.9-0.4,1.4-0.4c0.8,0,1.4,0.3,1.8,0.8c0.4,0.5,0.7,1.2,0.7,2.1v0.2H205.3z M206,108.9
					c-0.3,0.3-0.5,0.8-0.6,1.4h3.7c0-0.6-0.2-1.1-0.5-1.4c-0.3-0.3-0.7-0.5-1.3-0.5C206.8,108.4,206.3,108.6,206,108.9z"/>
				<path class="st8" d="M212.3,113.6c-0.4-0.3-0.7-0.6-1-1.1c-0.2-0.5-0.3-1-0.3-1.6c0-0.6,0.1-1.2,0.3-1.6c0.2-0.5,0.6-0.8,1-1.1
					s0.9-0.4,1.5-0.4c0.4,0,0.8,0.1,1.1,0.2c0.4,0.1,0.7,0.3,0.9,0.6l-0.3,0.6c-0.3-0.3-0.6-0.4-0.9-0.5s-0.6-0.2-0.9-0.2
					c-0.6,0-1.1,0.2-1.5,0.7c-0.4,0.4-0.6,1-0.6,1.8c0,0.8,0.2,1.3,0.5,1.8s0.9,0.6,1.5,0.6c0.3,0,0.6-0.1,0.9-0.2s0.6-0.3,0.9-0.5
					l0.3,0.6c-0.3,0.2-0.6,0.4-0.9,0.6c-0.4,0.1-0.8,0.2-1.1,0.2C213.2,114,212.7,113.8,212.3,113.6z"/>
				<path class="st8" d="M218.2,108.6v3.5c0,0.5,0.1,0.8,0.3,1c0.2,0.2,0.4,0.3,0.8,0.3c0.2,0,0.4,0,0.6-0.1v0.6
					c-0.3,0.1-0.5,0.1-0.8,0.1c-0.5,0-0.9-0.1-1.2-0.4c-0.3-0.3-0.4-0.7-0.4-1.3v-3.6h-1.2V108h1.2v-1.6l0.7-0.3v1.8h1.7v0.6H218.2z
					"/>
				<path class="st8" d="M230.1,110.3c0.3,0.3,0.4,0.8,0.4,1.3c0,0.7-0.2,1.3-0.7,1.7s-1.2,0.6-2,0.6h-3.4v-8.4h3.2
					c0.9,0,1.5,0.2,2,0.6c0.5,0.4,0.7,0.9,0.7,1.6c0,0.5-0.1,0.8-0.3,1.2c-0.2,0.3-0.6,0.6-1,0.7C229.4,109.7,229.8,110,230.1,110.3
					z M225.1,109.3h2.4c0.7,0,1.2-0.1,1.5-0.4c0.3-0.3,0.5-0.7,0.5-1.2c0-1-0.7-1.6-2-1.6h-2.4V109.3z M229.2,112.9
					c0.3-0.3,0.5-0.7,0.5-1.2c0-1.1-0.7-1.7-2.1-1.7h-2.6v3.3h2.6C228.4,113.3,228.9,113.1,229.2,112.9z"/>
				<path class="st8" d="M237,108v5.9h-0.7v-1.1c-0.2,0.4-0.5,0.7-0.8,0.9c-0.3,0.2-0.7,0.3-1.2,0.3c-0.7,0-1.2-0.2-1.6-0.6
					c-0.4-0.4-0.5-1-0.5-1.7V108h0.7v3.6c0,0.6,0.1,1,0.4,1.3c0.2,0.3,0.6,0.4,1.1,0.4c0.6,0,1-0.2,1.4-0.5c0.3-0.4,0.5-0.8,0.5-1.5
					V108H237z"/>
				<path class="st8" d="M238.7,113.2l0.3-0.6c0.3,0.3,0.6,0.4,0.9,0.6c0.3,0.1,0.7,0.2,1.1,0.2c0.5,0,0.9-0.1,1.1-0.3
					c0.3-0.2,0.4-0.4,0.4-0.7c0-0.3-0.1-0.5-0.3-0.6c-0.2-0.2-0.4-0.3-0.8-0.4l-1-0.2c-0.5-0.1-0.8-0.3-1.1-0.6s-0.4-0.6-0.4-1
					c0-0.5,0.2-0.9,0.6-1.2c0.4-0.3,0.9-0.5,1.6-0.5c0.4,0,0.8,0.1,1.2,0.2c0.4,0.1,0.7,0.3,0.9,0.6l-0.3,0.6
					c-0.5-0.5-1.1-0.7-1.8-0.7c-0.5,0-0.8,0.1-1.1,0.3c-0.3,0.2-0.4,0.4-0.4,0.8c0,0.3,0.1,0.5,0.2,0.6c0.2,0.2,0.4,0.3,0.7,0.4
					l1,0.2c1.1,0.2,1.6,0.8,1.6,1.6c0,0.5-0.2,0.9-0.6,1.2c-0.4,0.3-1,0.5-1.6,0.5C240,114,239.2,113.7,238.7,113.2z"/>
				<path class="st8" d="M245.7,105.6v0.9h-1v-0.9H245.7z M244.9,108h0.7v5.9h-0.7V108z"/>
				<path class="st8" d="M252.5,110.1v3.8h-0.7v-3.7c0-0.6-0.1-1-0.4-1.3c-0.2-0.3-0.6-0.4-1.1-0.4c-0.6,0-1.1,0.2-1.4,0.5
					c-0.4,0.4-0.5,0.8-0.5,1.5v3.4h-0.7v-4.3c0-0.6,0-1.2-0.1-1.6h0.7l0.1,1.1c0.2-0.4,0.5-0.7,0.8-0.9c0.4-0.2,0.8-0.3,1.2-0.3
					C251.8,107.9,252.5,108.6,252.5,110.1z"/>
				<path class="st8" d="M254.9,110.9L254.9,110.9c0,0.8,0.2,1.4,0.5,1.9c0.4,0.4,0.9,0.6,1.6,0.6c0.7,0,1.4-0.2,1.9-0.7l0.3,0.6
					c-0.3,0.2-0.6,0.4-1,0.6c-0.4,0.1-0.8,0.2-1.2,0.2c-0.9,0-1.6-0.3-2.1-0.8s-0.8-1.3-0.8-2.2c0-0.6,0.1-1.1,0.3-1.6
					c0.2-0.5,0.6-0.8,1-1.1s0.9-0.4,1.4-0.4c0.8,0,1.4,0.3,1.8,0.8c0.4,0.5,0.7,1.2,0.7,2.1v0.2H254.9z M255.5,108.9
					c-0.3,0.3-0.5,0.8-0.6,1.4h3.7c0-0.6-0.2-1.1-0.5-1.4c-0.3-0.3-0.7-0.5-1.3-0.5C256.3,108.4,255.9,108.6,255.5,108.9z"/>
				<path class="st8" d="M260.6,113.2l0.3-0.6c0.3,0.3,0.6,0.4,0.9,0.6c0.3,0.1,0.7,0.2,1.1,0.2c0.5,0,0.9-0.1,1.1-0.3
					c0.3-0.2,0.4-0.4,0.4-0.7c0-0.3-0.1-0.5-0.3-0.6c-0.2-0.2-0.4-0.3-0.8-0.4l-1-0.2c-0.5-0.1-0.8-0.3-1.1-0.6s-0.4-0.6-0.4-1
					c0-0.5,0.2-0.9,0.6-1.2c0.4-0.3,0.9-0.5,1.6-0.5c0.4,0,0.8,0.1,1.2,0.2c0.4,0.1,0.7,0.3,0.9,0.6l-0.3,0.6
					c-0.5-0.5-1.1-0.7-1.8-0.7c-0.5,0-0.8,0.1-1.1,0.3c-0.3,0.2-0.4,0.4-0.4,0.8c0,0.3,0.1,0.5,0.2,0.6c0.2,0.2,0.4,0.3,0.7,0.4
					l1,0.2c1.1,0.2,1.6,0.8,1.6,1.6c0,0.5-0.2,0.9-0.6,1.2c-0.4,0.3-1,0.5-1.6,0.5C261.9,114,261.1,113.7,260.6,113.2z"/>
				<path class="st8" d="M266.4,113.2l0.3-0.6c0.3,0.3,0.6,0.4,0.9,0.6c0.3,0.1,0.7,0.2,1.1,0.2c0.5,0,0.9-0.1,1.1-0.3
					c0.3-0.2,0.4-0.4,0.4-0.7c0-0.3-0.1-0.5-0.3-0.6c-0.2-0.2-0.4-0.3-0.8-0.4l-1-0.2c-0.5-0.1-0.8-0.3-1.1-0.6s-0.4-0.6-0.4-1
					c0-0.5,0.2-0.9,0.6-1.2c0.4-0.3,0.9-0.5,1.6-0.5c0.4,0,0.8,0.1,1.2,0.2c0.4,0.1,0.7,0.3,0.9,0.6l-0.3,0.6
					c-0.5-0.5-1.1-0.7-1.8-0.7c-0.5,0-0.8,0.1-1.1,0.3c-0.3,0.2-0.4,0.4-0.4,0.8c0,0.3,0.1,0.5,0.2,0.6c0.2,0.2,0.4,0.3,0.7,0.4
					l1,0.2c1.1,0.2,1.6,0.8,1.6,1.6c0,0.5-0.2,0.9-0.6,1.2c-0.4,0.3-1,0.5-1.6,0.5C267.8,114,267,113.7,266.4,113.2z"/>
				<path class="st8" d="M277.3,113.5c-0.6-0.3-1-0.8-1.3-1.5s-0.5-1.4-0.5-2.3c0-0.9,0.2-1.6,0.5-2.3s0.7-1.1,1.3-1.5
					c0.6-0.3,1.2-0.5,2-0.5c0.6,0,1.1,0.1,1.6,0.3c0.5,0.2,0.9,0.5,1.3,0.8l-0.3,0.6c-0.4-0.4-0.8-0.6-1.2-0.8s-0.8-0.2-1.3-0.2
					c-1,0-1.7,0.3-2.2,0.9s-0.8,1.5-0.8,2.7c0,1.2,0.3,2.1,0.8,2.7s1.3,1,2.3,1c0.5,0,0.9-0.1,1.3-0.2c0.4-0.2,0.8-0.4,1.2-0.8
					l0.3,0.6c-0.4,0.4-0.8,0.6-1.3,0.8c-0.5,0.2-1,0.3-1.6,0.3C278.5,114,277.9,113.8,277.3,113.5z"/>
				<path class="st8" d="M288.7,108v5.9H288v-1.1c-0.2,0.4-0.4,0.7-0.8,0.9c-0.3,0.2-0.8,0.3-1.3,0.3c-0.5,0-1-0.1-1.4-0.4
					s-0.7-0.6-0.9-1.1c-0.2-0.5-0.3-1-0.3-1.6c0-0.6,0.1-1.2,0.3-1.6c0.2-0.5,0.5-0.8,0.9-1.1c0.4-0.3,0.9-0.4,1.4-0.4
					c0.5,0,0.9,0.1,1.2,0.3c0.3,0.2,0.6,0.5,0.8,0.9V108H288.7z M287.5,112.7c0.3-0.4,0.5-1,0.5-1.8c0-0.8-0.2-1.4-0.5-1.8
					c-0.3-0.4-0.8-0.6-1.4-0.6s-1.1,0.2-1.4,0.7c-0.3,0.4-0.5,1-0.5,1.8c0,0.8,0.2,1.4,0.5,1.8c0.3,0.4,0.8,0.6,1.5,0.6
					C286.7,113.3,287.2,113.1,287.5,112.7z"/>
				<path class="st8" d="M290.4,113.2l0.3-0.6c0.3,0.3,0.6,0.4,0.9,0.6c0.3,0.1,0.7,0.2,1.1,0.2c0.5,0,0.9-0.1,1.1-0.3
					c0.3-0.2,0.4-0.4,0.4-0.7c0-0.3-0.1-0.5-0.3-0.6c-0.2-0.2-0.4-0.3-0.8-0.4l-1-0.2c-0.5-0.1-0.8-0.3-1.1-0.6s-0.4-0.6-0.4-1
					c0-0.5,0.2-0.9,0.6-1.2c0.4-0.3,0.9-0.5,1.6-0.5c0.4,0,0.8,0.1,1.2,0.2c0.4,0.1,0.7,0.3,0.9,0.6l-0.3,0.6
					c-0.5-0.5-1.1-0.7-1.8-0.7c-0.5,0-0.8,0.1-1.1,0.3c-0.3,0.2-0.4,0.4-0.4,0.8c0,0.3,0.1,0.5,0.2,0.6c0.2,0.2,0.4,0.3,0.7,0.4
					l1,0.2c1.1,0.2,1.6,0.8,1.6,1.6c0,0.5-0.2,0.9-0.6,1.2c-0.4,0.3-1,0.5-1.6,0.5C291.7,114,290.9,113.7,290.4,113.2z"/>
				<path class="st8" d="M297,110.9L297,110.9c0,0.8,0.2,1.4,0.5,1.9c0.4,0.4,0.9,0.6,1.6,0.6c0.7,0,1.4-0.2,1.9-0.7l0.3,0.6
					c-0.3,0.2-0.6,0.4-1,0.6c-0.4,0.1-0.8,0.2-1.2,0.2c-0.9,0-1.6-0.3-2.1-0.8s-0.8-1.3-0.8-2.2c0-0.6,0.1-1.1,0.3-1.6
					c0.2-0.5,0.6-0.8,1-1.1s0.9-0.4,1.4-0.4c0.8,0,1.4,0.3,1.8,0.8c0.4,0.5,0.7,1.2,0.7,2.1v0.2H297z M297.6,108.9
					c-0.3,0.3-0.5,0.8-0.6,1.4h3.7c0-0.6-0.2-1.1-0.5-1.4c-0.3-0.3-0.7-0.5-1.3-0.5C298.4,108.4,298,108.6,297.6,108.9z"/>
				<g>
					<path class="st1" d="M98.2,134.6c-0.3-0.2-0.6-0.4-0.8-0.8s-0.3-0.7-0.3-1.1c0-0.4,0.1-0.7,0.3-1c0.2-0.3,0.4-0.6,0.8-0.8
						c0.3-0.2,0.7-0.3,1.1-0.3c0.4,0,0.7,0.1,1.1,0.3c0.3,0.2,0.6,0.4,0.8,0.8c0.2,0.3,0.3,0.7,0.3,1.1c0,0.4-0.1,0.7-0.3,1.1
						c-0.2,0.3-0.5,0.6-0.8,0.8c-0.3,0.2-0.7,0.3-1.1,0.3C98.9,134.9,98.5,134.8,98.2,134.6z"/>
					<path class="st1" d="M99.3,135c-0.4,0-0.8-0.1-1.1-0.3c-0.3-0.2-0.6-0.5-0.8-0.8c-0.2-0.3-0.3-0.7-0.3-1.1
						c0-0.4,0.1-0.7,0.3-1.1c0.2-0.3,0.5-0.6,0.8-0.8c0.7-0.4,1.6-0.4,2.3,0c0.3,0.2,0.6,0.5,0.8,0.8c0.2,0.3,0.3,0.7,0.3,1.1
						c0,0.4-0.1,0.8-0.3,1.1c-0.2,0.3-0.5,0.6-0.8,0.8C100,134.9,99.7,135,99.3,135z M99.3,130.8c-0.4,0-0.7,0.1-1,0.3
						c-0.3,0.2-0.6,0.4-0.7,0.7s-0.3,0.6-0.3,1c0,0.4,0.1,0.7,0.3,1c0.2,0.3,0.4,0.5,0.7,0.7l0,0c0.6,0.3,1.4,0.3,2,0
						c0.3-0.2,0.6-0.4,0.7-0.7c0.2-0.3,0.3-0.6,0.3-1c0-0.4-0.1-0.7-0.3-1c-0.2-0.3-0.4-0.5-0.7-0.7
						C99.9,130.9,99.6,130.8,99.3,130.8z"/>
				</g>
				<path class="st8" d="M119.3,127.6h3.2c0.8,0,1.5,0.2,2,0.6c0.5,0.4,0.7,1,0.7,1.7c0,0.7-0.2,1.3-0.7,1.7c-0.5,0.4-1.1,0.6-2,0.6
					H120v3.8h-0.7V127.6z M122.5,131.5c0.7,0,1.2-0.1,1.5-0.4c0.3-0.3,0.5-0.7,0.5-1.2c0-0.5-0.2-0.9-0.5-1.2
					c-0.3-0.3-0.8-0.4-1.5-0.4H120v3.4H122.5z"/>
				<path class="st8" d="M129.7,130l0,0.6c-0.1,0-0.3,0-0.5,0c-0.6,0-1,0.2-1.3,0.6c-0.3,0.4-0.4,0.8-0.4,1.4v3.5h-0.7v-4.3
					c0-0.6,0-1.2-0.1-1.6h0.7l0.1,1.1c0.1-0.4,0.4-0.7,0.7-0.9c0.3-0.2,0.7-0.3,1.1-0.3C129.4,129.9,129.6,129.9,129.7,130z"/>
				<path class="st8" d="M131.7,127.6v0.9h-1v-0.9H131.7z M130.9,130h0.7v5.9h-0.7V130z"/>
				<path class="st8" d="M134.5,135.6c-0.4-0.3-0.7-0.6-1-1.1c-0.2-0.5-0.3-1-0.3-1.6c0-0.6,0.1-1.1,0.3-1.6c0.2-0.5,0.5-0.8,1-1.1
					s0.9-0.4,1.4-0.4c0.5,0,1,0.1,1.4,0.4c0.4,0.3,0.7,0.6,0.9,1.1c0.2,0.5,0.3,1,0.3,1.6c0,0.6-0.1,1.1-0.3,1.6
					c-0.2,0.5-0.5,0.8-0.9,1.1c-0.4,0.3-0.9,0.4-1.4,0.4C135.4,136,134.9,135.9,134.5,135.6z M137.4,134.8c0.3-0.4,0.5-1,0.5-1.8
					c0-0.8-0.2-1.4-0.5-1.8c-0.3-0.4-0.8-0.6-1.4-0.6c-0.6,0-1.1,0.2-1.4,0.6c-0.3,0.4-0.5,1-0.5,1.8c0,0.8,0.2,1.4,0.5,1.8
					c0.3,0.4,0.8,0.6,1.4,0.6S137,135.2,137.4,134.8z"/>
				<path class="st8" d="M143.3,130l0,0.6c-0.1,0-0.3,0-0.5,0c-0.6,0-1,0.2-1.3,0.6c-0.3,0.4-0.4,0.8-0.4,1.4v3.5h-0.7v-4.3
					c0-0.6,0-1.2-0.1-1.6h0.7l0.1,1.1c0.1-0.4,0.4-0.7,0.7-0.9c0.3-0.2,0.7-0.3,1.1-0.3C143,129.9,143.2,129.9,143.3,130z"/>
				<path class="st8" d="M145.3,127.6v0.9h-1v-0.9H145.3z M144.4,130h0.7v5.9h-0.7V130z"/>
				<path class="st8" d="M148.2,130.6v3.5c0,0.5,0.1,0.8,0.3,1c0.2,0.2,0.4,0.3,0.8,0.3c0.2,0,0.4,0,0.6-0.1v0.6
					c-0.3,0.1-0.5,0.1-0.8,0.1c-0.5,0-0.9-0.1-1.2-0.4c-0.3-0.3-0.4-0.7-0.4-1.3v-3.6h-1.2V130h1.2v-1.6l0.7-0.3v1.8h1.7v0.6H148.2z
					"/>
				<path class="st8" d="M152,127.6v0.9h-1v-0.9H152z M151.2,130h0.7v5.9h-0.7V130z"/>
				<path class="st8" d="M158.5,135.4v0.6h-4.9v-0.5l3.9-4.8h-3.8V130h4.6v0.5l-3.9,4.8H158.5z"/>
				<path class="st8" d="M160.3,132.9L160.3,132.9c0,0.8,0.2,1.4,0.5,1.9c0.4,0.4,0.9,0.6,1.6,0.6c0.7,0,1.4-0.2,1.9-0.7l0.3,0.6
					c-0.3,0.2-0.6,0.4-1,0.6c-0.4,0.1-0.8,0.2-1.2,0.2c-0.9,0-1.6-0.3-2.1-0.8s-0.8-1.3-0.8-2.2c0-0.6,0.1-1.1,0.3-1.6
					c0.2-0.5,0.6-0.8,1-1.1s0.9-0.4,1.4-0.4c0.8,0,1.4,0.3,1.8,0.8c0.4,0.5,0.7,1.2,0.7,2.1v0.2H160.3z M161,131
					c-0.3,0.3-0.5,0.8-0.6,1.4h3.7c0-0.6-0.2-1.1-0.5-1.4c-0.3-0.3-0.7-0.5-1.3-0.5C161.8,130.5,161.3,130.7,161,131z"/>
				<path class="st8" d="M171.4,127.3v8.7h-0.7v-1.1c-0.2,0.4-0.4,0.7-0.8,0.9c-0.3,0.2-0.8,0.3-1.3,0.3c-0.5,0-1-0.1-1.4-0.4
					c-0.4-0.3-0.7-0.6-0.9-1.1c-0.2-0.5-0.3-1-0.3-1.6c0-0.6,0.1-1.1,0.3-1.6c0.2-0.5,0.5-0.8,0.9-1.1c0.4-0.2,0.9-0.4,1.4-0.4
					c0.5,0,0.9,0.1,1.2,0.3c0.3,0.2,0.6,0.5,0.8,0.9v-3.8H171.4z M170.1,134.8c0.3-0.4,0.5-1,0.5-1.8c0-0.8-0.2-1.4-0.5-1.8
					c-0.3-0.4-0.8-0.6-1.4-0.6c-0.6,0-1.1,0.2-1.5,0.6c-0.3,0.4-0.5,1-0.5,1.8c0,0.8,0.2,1.4,0.5,1.8c0.3,0.4,0.8,0.6,1.4,0.6
					S169.8,135.2,170.1,134.8z"/>
				<path class="st8" d="M177.4,130.6v3.5c0,0.5,0.1,0.8,0.3,1c0.2,0.2,0.4,0.3,0.8,0.3c0.2,0,0.4,0,0.6-0.1v0.6
					c-0.3,0.1-0.5,0.1-0.8,0.1c-0.5,0-0.9-0.1-1.2-0.4c-0.3-0.3-0.4-0.7-0.4-1.3v-3.6h-1.2V130h1.2v-1.6l0.7-0.3v1.8h1.7v0.6H177.4z
					"/>
				<path class="st8" d="M181.4,135.6c-0.4-0.3-0.7-0.6-1-1.1c-0.2-0.5-0.3-1-0.3-1.6c0-0.6,0.1-1.1,0.3-1.6c0.2-0.5,0.5-0.8,1-1.1
					s0.9-0.4,1.4-0.4c0.5,0,1,0.1,1.4,0.4c0.4,0.3,0.7,0.6,0.9,1.1c0.2,0.5,0.3,1,0.3,1.6c0,0.6-0.1,1.1-0.3,1.6
					c-0.2,0.5-0.5,0.8-0.9,1.1c-0.4,0.3-0.9,0.4-1.4,0.4C182.3,136,181.8,135.9,181.4,135.6z M184.2,134.8c0.3-0.4,0.5-1,0.5-1.8
					c0-0.8-0.2-1.4-0.5-1.8c-0.3-0.4-0.8-0.6-1.4-0.6c-0.6,0-1.1,0.2-1.4,0.6c-0.3,0.4-0.5,1-0.5,1.8c0,0.8,0.2,1.4,0.5,1.8
					c0.3,0.4,0.8,0.6,1.4,0.6S183.9,135.2,184.2,134.8z"/>
				<path class="st8" d="M199,130l-2.1,5.9h-0.7l-1.8-5l-1.8,5h-0.8l-2.1-5.9h0.8l1.7,5l1.8-5h0.7l1.8,5l1.8-5H199z"/>
				<path class="st8" d="M201.2,135.6c-0.4-0.3-0.7-0.6-1-1.1c-0.2-0.5-0.3-1-0.3-1.6c0-0.6,0.1-1.1,0.3-1.6c0.2-0.5,0.5-0.8,1-1.1
					s0.9-0.4,1.4-0.4c0.5,0,1,0.1,1.4,0.4c0.4,0.3,0.7,0.6,0.9,1.1c0.2,0.5,0.3,1,0.3,1.6c0,0.6-0.1,1.1-0.3,1.6
					c-0.2,0.5-0.5,0.8-0.9,1.1c-0.4,0.3-0.9,0.4-1.4,0.4C202.1,136,201.7,135.9,201.2,135.6z M204.1,134.8c0.3-0.4,0.5-1,0.5-1.8
					c0-0.8-0.2-1.4-0.5-1.8c-0.3-0.4-0.8-0.6-1.4-0.6c-0.6,0-1.1,0.2-1.4,0.6c-0.3,0.4-0.5,1-0.5,1.8c0,0.8,0.2,1.4,0.5,1.8
					c0.3,0.4,0.8,0.6,1.4,0.6S203.8,135.2,204.1,134.8z"/>
				<path class="st8" d="M210.1,130l0,0.6c-0.1,0-0.3,0-0.5,0c-0.6,0-1,0.2-1.3,0.6c-0.3,0.4-0.4,0.8-0.4,1.4v3.5H207v-4.3
					c0-0.6,0-1.2-0.1-1.6h0.7l0.1,1.1c0.1-0.4,0.4-0.7,0.7-0.9c0.3-0.2,0.7-0.3,1.1-0.3C209.7,129.9,209.9,129.9,210.1,130z"/>
				<path class="st8" d="M215.1,135.9l-3.2-2.9v2.9h-0.7v-8.7h0.7v5.5l3-2.7h0.9l-3.1,2.8l3.4,3.1H215.1z"/>
				<path class="st8" d="M228.9,130l-2.1,5.9H226l-1.8-5l-1.8,5h-0.8l-2.1-5.9h0.8l1.7,5l1.8-5h0.7l1.8,5l1.8-5H228.9z"/>
				<path class="st8" d="M231.2,127.6v0.9h-1v-0.9H231.2z M230.3,130h0.7v5.9h-0.7V130z"/>
				<path class="st8" d="M234.1,130.6v3.5c0,0.5,0.1,0.8,0.3,1c0.2,0.2,0.4,0.3,0.8,0.3c0.2,0,0.4,0,0.6-0.1v0.6
					c-0.3,0.1-0.5,0.1-0.8,0.1c-0.5,0-0.9-0.1-1.2-0.4c-0.3-0.3-0.4-0.7-0.4-1.3v-3.6h-1.2V130h1.2v-1.6l0.7-0.3v1.8h1.7v0.6H234.1z
					"/>
				<path class="st8" d="M242,132.2v3.8h-0.7v-3.7c0-0.6-0.1-1-0.4-1.3c-0.2-0.3-0.6-0.4-1.1-0.4c-0.6,0-1.1,0.2-1.4,0.5
					c-0.4,0.4-0.5,0.8-0.5,1.5v3.4h-0.7v-8.7h0.7v3.8c0.2-0.4,0.5-0.7,0.8-0.9c0.4-0.2,0.8-0.3,1.2-0.3
					C241.3,129.9,242,130.7,242,132.2z"/>
				<path class="st8" d="M246,137.4c0.4,0.1,0.6,0.1,0.8,0.1c0.4,0,0.7-0.1,0.9-0.4c0.2-0.2,0.3-0.6,0.3-1.2v-8.3h0.7v8.4
					c0,0.8-0.1,1.3-0.4,1.7s-0.7,0.5-1.3,0.5c-0.3,0-0.6,0-1-0.1V137.4z"/>
				<path class="st8" d="M256.3,133.7h-4.5l-1,2.2h-0.8l3.6-8.4h0.7l3.6,8.4h-0.8L256.3,133.7z M256.1,133.1l-2-4.6l-2,4.6H256.1z"
					/>
				<path class="st8" d="M265.2,132.4c0.3,0.3,0.4,0.8,0.4,1.3c0,0.7-0.2,1.3-0.7,1.7s-1.2,0.6-2,0.6h-3.4v-8.4h3.2
					c0.9,0,1.5,0.2,2,0.6c0.5,0.4,0.7,0.9,0.7,1.6c0,0.5-0.1,0.8-0.3,1.2c-0.2,0.3-0.6,0.6-1,0.7C264.6,131.8,264.9,132,265.2,132.4
					z M260.2,131.4h2.4c0.7,0,1.2-0.1,1.5-0.4c0.3-0.3,0.5-0.7,0.5-1.2c0-1-0.7-1.6-2-1.6h-2.4V131.4z M264.3,134.9
					c0.3-0.3,0.5-0.7,0.5-1.2c0-1.1-0.7-1.7-2.1-1.7h-2.6v3.3h2.6C263.5,135.3,264,135.2,264.3,134.9z"/>
			</g>
		</g>
		<rect x="99" y="105.2" class="st1" width="0.8" height="25.3"/>
		<g>
			<g>
				<circle class="st1" cx="99.3" cy="108.1" r="8.9"/>
			</g>
			<g>
				<path class="st4" d="M101.2,105.6c-0.3,0-0.5-0.2-0.5-0.5v-2.9h-4.5c-0.6,0-1.2,0.5-1.2,1.2v9.3c0,0.6,0.5,1.2,1.2,1.2h6.8
					c0.6,0,1.2-0.5,1.2-1.2v-7.1H101.2z"/>
			</g>
			<path class="st5" d="M101.2,105.6h3l-3.4-3.4v3C100.8,105.4,100.9,105.6,101.2,105.6z"/>
			<polygon class="st2" points="104.1,108.1 104.1,105.7 101.2,105.7 			"/>
		</g>
	</g>
	<rect x="49.2" class="st9" width="351.6" height="291.7"/>
	<g>
		<polygon class="st1" points="49.2,281.9 37.5,266.6 49.2,266.6 		"/>
		<polygon class="st1" points="400.8,281.9 412.5,266.6 400.8,266.6 		"/>
		<rect x="49.2" y="258.3" class="st10" width="351.6" height="14.5"/>
	</g>
	<rect x="37.5" y="92.8" class="st4" width="375" height="174.2"/>
	<g>
		<g>
			<g>
				<path class="st1" d="M70.7,157.3c-0.4-0.2-0.7-0.5-1-0.9c-0.2-0.4-0.4-0.8-0.4-1.3c0-0.4,0.1-0.9,0.3-1.3c0.2-0.4,0.5-0.7,0.9-1
					c0.4-0.2,0.8-0.4,1.3-0.4c0.5,0,0.9,0.1,1.3,0.3c0.4,0.2,0.7,0.5,1,0.9c0.2,0.4,0.4,0.8,0.4,1.3c0,0.5-0.1,0.9-0.4,1.3
					c-0.2,0.4-0.6,0.7-1,0.9c-0.4,0.2-0.8,0.3-1.3,0.3S71.1,157.5,70.7,157.3z"/>
				<path class="st1" d="M72,157.7c-0.5,0-0.9-0.1-1.4-0.4c-0.4-0.2-0.8-0.6-1-1c-0.2-0.4-0.4-0.9-0.4-1.4c0-0.5,0.1-0.9,0.4-1.3
					c0.2-0.4,0.6-0.7,1-1c0.4-0.2,0.9-0.4,1.4-0.4c0.5,0,0.9,0.1,1.3,0.4c0.4,0.2,0.8,0.6,1,1c0.2,0.4,0.4,0.9,0.4,1.4
					c0,0.5-0.1,0.9-0.4,1.4c-0.2,0.4-0.6,0.7-1,1C73,157.6,72.5,157.7,72,157.7z M72,152.6c-0.5,0-0.9,0.1-1.3,0.3
					c-0.4,0.2-0.7,0.5-0.9,0.9c-0.2,0.4-0.3,0.8-0.3,1.2c0,0.4,0.1,0.9,0.3,1.2c0.2,0.4,0.5,0.7,0.9,0.9v0c0.8,0.4,1.7,0.4,2.5,0
					c0.4-0.2,0.7-0.5,0.9-0.9c0.2-0.4,0.3-0.8,0.3-1.2c0-0.5-0.1-0.9-0.3-1.2c-0.2-0.4-0.5-0.7-0.9-0.9
					C72.9,152.7,72.5,152.6,72,152.6z"/>
			</g>
			<path class="st8" d="M104.2,158.9h-0.9l-1.3-3.4c-0.2-0.5-0.4-0.8-0.7-0.9c-0.3-0.2-0.7-0.2-1.2-0.2h-2.8v4.5h-0.9v-10.2h3.9
				c1.1,0,1.9,0.2,2.5,0.7s0.9,1.2,0.9,2.1c0,0.7-0.2,1.2-0.5,1.7c-0.3,0.4-0.8,0.8-1.5,0.9c0.3,0,0.5,0.2,0.8,0.4s0.4,0.5,0.5,0.9
				L104.2,158.9z M100.2,153.5c1.7,0,2.5-0.7,2.5-2.1c0-1.3-0.8-2-2.5-2h-3v4.1H100.2z"/>
			<path class="st8" d="M112.8,156.1h-5.5l-1.2,2.7h-0.9l4.4-10.2h0.8l4.4,10.2H114L112.8,156.1z M112.5,155.4l-2.4-5.6l-2.4,5.6
				H112.5z"/>
			<path class="st8" d="M124.5,158.9h-0.9l-1.3-3.4c-0.2-0.5-0.4-0.8-0.7-0.9c-0.3-0.2-0.7-0.2-1.2-0.2h-2.8v4.5h-0.9v-10.2h3.9
				c1.1,0,1.9,0.2,2.5,0.7s0.9,1.2,0.9,2.1c0,0.7-0.2,1.2-0.5,1.7c-0.3,0.4-0.8,0.8-1.5,0.9c0.3,0,0.5,0.2,0.8,0.4s0.4,0.5,0.5,0.9
				L124.5,158.9z M120.6,153.5c1.7,0,2.5-0.7,2.5-2.1c0-1.3-0.8-2-2.5-2h-3v4.1H120.6z"/>
			<path class="st8" d="M130.3,148.7h3.3c1.6,0,2.9,0.4,3.7,1.3s1.3,2.1,1.3,3.8c0,1.6-0.4,2.9-1.3,3.8c-0.9,0.9-2.1,1.3-3.7,1.3
				h-3.3V148.7z M133.5,158.1c1.4,0,2.4-0.4,3.1-1.1s1-1.8,1-3.2c0-2.9-1.4-4.3-4.2-4.3h-2.3v8.6H133.5z"/>
			<path class="st8" d="M141.3,155.2L141.3,155.2c0,1,0.2,1.7,0.7,2.3s1.1,0.8,1.9,0.8c0.9,0,1.6-0.3,2.4-0.9l0.3,0.7
				c-0.3,0.3-0.7,0.5-1.2,0.7s-1,0.3-1.5,0.3c-1.1,0-1.9-0.3-2.6-1c-0.6-0.7-0.9-1.6-0.9-2.7c0-0.7,0.1-1.4,0.4-2s0.7-1,1.2-1.3
				c0.5-0.3,1.1-0.5,1.7-0.5c0.9,0,1.7,0.3,2.2,0.9c0.5,0.6,0.8,1.5,0.8,2.5v0.2H141.3z M142.1,152.8c-0.4,0.4-0.7,1-0.8,1.7h4.5
				c-0.1-0.7-0.3-1.3-0.6-1.7c-0.4-0.4-0.9-0.6-1.5-0.6C143.1,152.2,142.5,152.4,142.1,152.8z"/>
			<path class="st8" d="M154.7,151.7l-3.1,7.2h-0.9l-3-7.2h0.9l2.6,6.3l2.6-6.3H154.7z"/>
			<path class="st8" d="M156.6,155.2L156.6,155.2c0,1,0.2,1.7,0.7,2.3s1.1,0.8,1.9,0.8c0.9,0,1.6-0.3,2.4-0.9l0.3,0.7
				c-0.3,0.3-0.7,0.5-1.2,0.7s-1,0.3-1.5,0.3c-1.1,0-1.9-0.3-2.6-1c-0.6-0.7-0.9-1.6-0.9-2.7c0-0.7,0.1-1.4,0.4-2s0.7-1,1.2-1.3
				c0.5-0.3,1.1-0.5,1.7-0.5c0.9,0,1.7,0.3,2.2,0.9c0.5,0.6,0.8,1.5,0.8,2.5v0.2H156.6z M157.4,152.8c-0.4,0.4-0.7,1-0.8,1.7h4.5
				c-0.1-0.7-0.3-1.3-0.6-1.7c-0.4-0.4-0.9-0.6-1.5-0.6C158.3,152.2,157.8,152.4,157.4,152.8z"/>
			<path class="st8" d="M163.9,148.3h0.9v10.5h-0.9V148.3z"/>
			<path class="st8" d="M168.4,158.5c-0.5-0.3-0.9-0.7-1.2-1.3s-0.4-1.2-0.4-2c0-0.7,0.1-1.4,0.4-2s0.7-1,1.2-1.3s1.1-0.5,1.7-0.5
				c0.6,0,1.2,0.2,1.7,0.5c0.5,0.3,0.9,0.7,1.2,1.3s0.4,1.2,0.4,2c0,0.7-0.1,1.4-0.4,2s-0.7,1-1.2,1.3c-0.5,0.3-1.1,0.5-1.7,0.5
				C169.5,159,168.9,158.8,168.4,158.5z M171.9,157.4c0.4-0.5,0.6-1.2,0.6-2.2c0-0.9-0.2-1.7-0.6-2.2c-0.4-0.5-1-0.8-1.7-0.8
				c-0.8,0-1.3,0.3-1.8,0.8c-0.4,0.5-0.6,1.2-0.6,2.2c0,1,0.2,1.7,0.6,2.2c0.4,0.5,1,0.8,1.8,0.8
				C170.9,158.2,171.5,157.9,171.9,157.4z"/>
			<path class="st8" d="M180.4,152c0.5,0.3,0.9,0.7,1.1,1.3s0.4,1.2,0.4,2c0,0.7-0.1,1.4-0.4,1.9c-0.3,0.6-0.6,1-1.1,1.3
				s-1,0.5-1.7,0.5c-0.6,0-1.1-0.1-1.5-0.4c-0.4-0.3-0.7-0.6-1-1.1v4.5h-0.9v-8.3c0-0.7,0-1.4-0.1-2h0.8l0.1,1.4
				c0.2-0.5,0.5-0.9,1-1.2c0.4-0.3,1-0.4,1.6-0.4C179.4,151.5,179.9,151.7,180.4,152z M180.4,157.4c0.4-0.5,0.6-1.2,0.6-2.2
				c0-0.9-0.2-1.7-0.6-2.2c-0.4-0.5-1-0.8-1.7-0.8c-0.8,0-1.3,0.3-1.8,0.8s-0.6,1.2-0.6,2.2c0,0.9,0.2,1.7,0.6,2.2
				c0.4,0.5,1,0.8,1.7,0.8S180,157.9,180.4,157.4z"/>
			<path class="st8" d="M194,154.3v4.6h-0.9v-4.5c0-0.7-0.1-1.3-0.4-1.6s-0.7-0.5-1.2-0.5c-0.7,0-1.2,0.2-1.6,0.7
				c-0.4,0.4-0.6,1-0.6,1.8v4.1h-0.9v-4.5c0-0.7-0.1-1.3-0.4-1.6s-0.7-0.5-1.2-0.5c-0.6,0-1.2,0.2-1.6,0.7s-0.6,1-0.6,1.8v4.1h-0.9
				v-5.2c0-0.7,0-1.4-0.1-2h0.8l0.1,1.3c0.2-0.5,0.5-0.8,0.9-1.1c0.4-0.2,0.9-0.4,1.4-0.4c1.2,0,1.9,0.5,2.2,1.4
				c0.2-0.4,0.5-0.8,0.9-1s0.9-0.4,1.5-0.4C193.2,151.5,194,152.5,194,154.3z"/>
			<path class="st8" d="M196.9,155.2L196.9,155.2c0,1,0.2,1.7,0.7,2.3s1.1,0.8,1.9,0.8c0.9,0,1.6-0.3,2.4-0.9l0.3,0.7
				c-0.3,0.3-0.7,0.5-1.2,0.7s-1,0.3-1.5,0.3c-1.1,0-1.9-0.3-2.6-1c-0.6-0.7-0.9-1.6-0.9-2.7c0-0.7,0.1-1.4,0.4-2s0.7-1,1.2-1.3
				c0.5-0.3,1.1-0.5,1.7-0.5c0.9,0,1.7,0.3,2.2,0.9c0.5,0.6,0.8,1.5,0.8,2.5v0.2H196.9z M197.7,152.8c-0.4,0.4-0.7,1-0.8,1.7h4.5
				c-0.1-0.7-0.3-1.3-0.6-1.7c-0.4-0.4-0.9-0.6-1.5-0.6C198.6,152.2,198.1,152.4,197.7,152.8z"/>
			<path class="st8" d="M210.2,154.3v4.6h-0.9v-4.5c0-0.7-0.1-1.2-0.4-1.6c-0.3-0.3-0.7-0.5-1.4-0.5c-0.7,0-1.3,0.2-1.7,0.7
				c-0.4,0.4-0.7,1-0.7,1.8v4.1h-0.9v-5.2c0-0.7,0-1.4-0.1-2h0.8l0.1,1.3c0.2-0.5,0.5-0.9,1-1.1c0.4-0.3,0.9-0.4,1.5-0.4
				C209.3,151.5,210.2,152.5,210.2,154.3z"/>
			<path class="st8" d="M213.8,152.4v4.3c0,0.6,0.1,1,0.3,1.2c0.2,0.2,0.5,0.3,1,0.3c0.3,0,0.5,0,0.8-0.1v0.8
				c-0.3,0.1-0.6,0.1-0.9,0.1c-0.6,0-1.1-0.2-1.5-0.5c-0.4-0.4-0.5-0.9-0.5-1.6v-4.4h-1.4v-0.7h1.4v-1.9l0.9-0.3v2.2h2.1v0.7H213.8z
				"/>
			<g>
				<path class="st1" d="M70.7,184.1c-0.4-0.2-0.7-0.5-1-0.9c-0.2-0.4-0.4-0.8-0.4-1.3c0-0.4,0.1-0.9,0.3-1.3c0.2-0.4,0.5-0.7,0.9-1
					c0.4-0.2,0.8-0.4,1.3-0.4c0.5,0,0.9,0.1,1.3,0.3c0.4,0.2,0.7,0.5,1,0.9c0.2,0.4,0.4,0.8,0.4,1.3c0,0.5-0.1,0.9-0.4,1.3
					c-0.2,0.4-0.6,0.7-1,0.9c-0.4,0.2-0.8,0.3-1.3,0.3S71.1,184.3,70.7,184.1z"/>
				<path class="st1" d="M72,184.5c-0.5,0-0.9-0.1-1.4-0.4c-0.4-0.2-0.8-0.6-1-1c-0.2-0.4-0.4-0.9-0.4-1.4c0-0.5,0.1-0.9,0.4-1.3
					c0.2-0.4,0.6-0.7,1-1c0.4-0.2,0.9-0.4,1.4-0.4c0.5,0,0.9,0.1,1.3,0.4c0.4,0.2,0.8,0.6,1,1c0.2,0.4,0.4,0.9,0.4,1.4
					c0,0.5-0.1,0.9-0.4,1.4c-0.2,0.4-0.6,0.7-1,1C73,184.4,72.5,184.5,72,184.5z M72,179.4c-0.5,0-0.9,0.1-1.3,0.3
					c-0.4,0.2-0.7,0.5-0.9,0.9c-0.2,0.4-0.3,0.8-0.3,1.2c0,0.4,0.1,0.9,0.3,1.2c0.2,0.4,0.5,0.7,0.9,0.9v0c0.8,0.4,1.7,0.4,2.5,0
					c0.4-0.2,0.7-0.5,0.9-0.9c0.2-0.4,0.3-0.8,0.3-1.2c0-0.5-0.1-0.9-0.3-1.2c-0.2-0.4-0.5-0.7-0.9-0.9
					C72.9,179.5,72.5,179.4,72,179.4z"/>
			</g>
			<path class="st8" d="M96.4,175.5h6.1v0.8h-5.2v3.9h5v0.8h-5v4.8h-0.9V175.5z"/>
			<path class="st8" d="M104.6,182L104.6,182c0,1,0.2,1.7,0.7,2.3s1.1,0.8,1.9,0.8c0.9,0,1.6-0.3,2.4-0.9l0.3,0.7
				c-0.3,0.3-0.7,0.5-1.2,0.7s-1,0.3-1.5,0.3c-1.1,0-1.9-0.3-2.6-1c-0.6-0.7-0.9-1.6-0.9-2.7c0-0.7,0.1-1.4,0.4-2s0.7-1,1.2-1.3
				c0.5-0.3,1.1-0.5,1.7-0.5c0.9,0,1.7,0.3,2.2,0.9c0.5,0.6,0.8,1.5,0.8,2.5v0.2H104.6z M105.4,179.7c-0.4,0.4-0.7,1-0.8,1.7h4.5
				c-0.1-0.7-0.3-1.3-0.6-1.7c-0.4-0.4-0.9-0.6-1.5-0.6C106.4,179.1,105.8,179.3,105.4,179.7z"/>
			<path class="st8" d="M118.1,175.2v10.5h-0.9v-1.4c-0.2,0.5-0.5,0.8-1,1.1c-0.4,0.3-0.9,0.4-1.5,0.4c-0.6,0-1.2-0.2-1.7-0.5
				c-0.5-0.3-0.9-0.7-1.1-1.3s-0.4-1.2-0.4-2c0-0.7,0.1-1.4,0.4-2c0.3-0.6,0.6-1,1.1-1.3c0.5-0.3,1-0.5,1.7-0.5
				c0.6,0,1.1,0.1,1.5,0.4c0.4,0.2,0.7,0.6,1,1.1v-4.6H118.1z M116.6,184.2c0.4-0.5,0.6-1.2,0.6-2.2c0-0.9-0.2-1.7-0.6-2.2
				c-0.4-0.5-1-0.8-1.7-0.8c-0.8,0-1.4,0.3-1.8,0.8c-0.4,0.5-0.6,1.2-0.6,2.2c0,0.9,0.2,1.7,0.6,2.2c0.4,0.5,1,0.8,1.8,0.8
				S116.2,184.8,116.6,184.2z"/>
			<path class="st8" d="M128.5,185.7h-0.9l-1.3-3.4c-0.2-0.5-0.4-0.8-0.7-0.9c-0.3-0.2-0.7-0.2-1.2-0.2h-2.8v4.5h-0.9v-10.2h3.9
				c1.1,0,1.9,0.2,2.5,0.7s0.9,1.2,0.9,2.1c0,0.7-0.2,1.2-0.5,1.7c-0.3,0.4-0.8,0.8-1.5,0.9c0.3,0,0.5,0.2,0.8,0.4s0.4,0.5,0.5,0.9
				L128.5,185.7z M124.5,180.4c1.7,0,2.5-0.7,2.5-2.1c0-1.3-0.8-2-2.5-2h-3v4.1H124.5z"/>
			<path class="st8" d="M137.1,183h-5.5l-1.2,2.7h-0.9l4.4-10.2h0.8l4.4,10.2h-0.9L137.1,183z M136.8,182.2l-2.4-5.6l-2.4,5.6H136.8
				z"/>
			<path class="st8" d="M150.5,175.5v10.2h-0.8v-8.2l-3.6,8.2h-0.7l-3.6-8.1l0,8.1H141v-10.2h0.7l4,9.1l4-9.1H150.5z"/>
			<path class="st8" d="M153.2,175.5h3.9c1,0,1.8,0.2,2.4,0.7c0.6,0.5,0.9,1.2,0.9,2c0,0.9-0.3,1.6-0.9,2.1
				c-0.6,0.5-1.4,0.8-2.4,0.8h-3v4.6h-0.9V175.5z M157,180.3c0.8,0,1.4-0.2,1.8-0.5c0.4-0.4,0.6-0.9,0.6-1.5c0-0.6-0.2-1.1-0.6-1.5
				c-0.4-0.4-1-0.5-1.8-0.5h-3v4.1H157z"/>
			<path class="st8" d="M166.2,175.5h3.9c1,0,1.8,0.2,2.4,0.7c0.6,0.5,0.9,1.2,0.9,2c0,0.9-0.3,1.6-0.9,2.1
				c-0.6,0.5-1.4,0.8-2.4,0.8h-3v4.6h-0.9V175.5z M170,180.3c0.8,0,1.4-0.2,1.8-0.5c0.4-0.4,0.6-0.9,0.6-1.5c0-0.6-0.2-1.1-0.6-1.5
				c-0.4-0.4-1-0.5-1.8-0.5h-3v4.1H170z"/>
			<path class="st8" d="M184.9,175.5v10.2h-0.8v-8.2l-3.6,8.2h-0.7l-3.6-8.1l0,8.1h-0.8v-10.2h0.7l4,9.1l4-9.1H184.9z"/>
			<path class="st8" d="M189.4,185.2c-0.7-0.4-1.2-1-1.6-1.8c-0.4-0.8-0.6-1.7-0.6-2.8s0.2-2,0.5-2.8c0.4-0.8,0.9-1.4,1.6-1.8
				c0.7-0.4,1.5-0.6,2.4-0.6s1.7,0.2,2.4,0.6c0.7,0.4,1.2,1,1.6,1.8s0.5,1.7,0.5,2.8c0,1.1-0.2,2-0.6,2.8c-0.4,0.8-0.9,1.4-1.6,1.8
				c-0.7,0.4-1.5,0.6-2.4,0.6C190.9,185.8,190.1,185.6,189.4,185.2z M194.5,183.9c0.6-0.8,1-1.9,1-3.3c0-1.4-0.3-2.5-0.9-3.3
				c-0.6-0.8-1.5-1.1-2.7-1.1c-1.1,0-2,0.4-2.7,1.2s-1,1.9-1,3.3c0,1.4,0.3,2.5,1,3.3s1.5,1.2,2.7,1.2
				C192.9,185,193.8,184.6,194.5,183.9z"/>
			<path class="st8" d="M210.2,185.7h-0.9l-1.3-3.4c-0.2-0.5-0.4-0.8-0.7-0.9c-0.3-0.2-0.7-0.2-1.2-0.2h-2.8v4.5h-0.9v-10.2h3.9
				c1.1,0,1.9,0.2,2.5,0.7s0.9,1.2,0.9,2.1c0,0.7-0.2,1.2-0.5,1.7c-0.3,0.4-0.8,0.8-1.5,0.9c0.3,0,0.5,0.2,0.8,0.4s0.4,0.5,0.5,0.9
				L210.2,185.7z M206.3,180.4c1.7,0,2.5-0.7,2.5-2.1c0-1.3-0.8-2-2.5-2h-3v4.1H206.3z"/>
			<path class="st8" d="M212.6,182L212.6,182c0,1,0.2,1.7,0.7,2.3s1.1,0.8,1.9,0.8c0.9,0,1.6-0.3,2.4-0.9l0.3,0.7
				c-0.3,0.3-0.7,0.5-1.2,0.7s-1,0.3-1.5,0.3c-1.1,0-1.9-0.3-2.6-1c-0.6-0.7-0.9-1.6-0.9-2.7c0-0.7,0.1-1.4,0.4-2s0.7-1,1.2-1.3
				c0.5-0.3,1.1-0.5,1.7-0.5c0.9,0,1.7,0.3,2.2,0.9c0.5,0.6,0.8,1.5,0.8,2.5v0.2H212.6z M213.4,179.7c-0.4,0.4-0.7,1-0.8,1.7h4.5
				c-0.1-0.7-0.3-1.3-0.6-1.7c-0.4-0.4-0.9-0.6-1.5-0.6C214.4,179.1,213.9,179.3,213.4,179.7z"/>
			<path class="st8" d="M226,178.5l-3.1,7.2H222l-3-7.2h0.9l2.6,6.3l2.6-6.3H226z"/>
			<path class="st8" d="M228.5,175.6v1.1h-1.2v-1.1H228.5z M227.5,178.5h0.9v7.2h-0.9V178.5z"/>
			<path class="st8" d="M231.3,182L231.3,182c0,1,0.2,1.7,0.7,2.3s1.1,0.8,1.9,0.8c0.9,0,1.6-0.3,2.4-0.9l0.3,0.7
				c-0.3,0.3-0.7,0.5-1.2,0.7s-1,0.3-1.5,0.3c-1.1,0-1.9-0.3-2.6-1c-0.6-0.7-0.9-1.6-0.9-2.7c0-0.7,0.1-1.4,0.4-2s0.7-1,1.2-1.3
				c0.5-0.3,1.1-0.5,1.7-0.5c0.9,0,1.7,0.3,2.2,0.9c0.5,0.6,0.8,1.5,0.8,2.5v0.2H231.3z M232.1,179.7c-0.4,0.4-0.7,1-0.8,1.7h4.5
				c-0.1-0.7-0.3-1.3-0.6-1.7c-0.4-0.4-0.9-0.6-1.5-0.6C233.1,179.1,232.5,179.3,232.1,179.7z"/>
			<path class="st8" d="M249.3,178.5l-2.6,7.2h-0.9l-2.2-6.1l-2.2,6.1h-0.9l-2.6-7.2h0.9l2.1,6.1l2.2-6.1h0.9l2.2,6.1l2.2-6.1H249.3
				z"/>
			<path class="st8" d="M255.9,185.3c-0.5-0.3-0.9-0.7-1.2-1.3s-0.4-1.2-0.4-2c0-0.7,0.1-1.4,0.4-2s0.7-1,1.2-1.3s1.1-0.5,1.7-0.5
				c0.6,0,1.2,0.2,1.7,0.5c0.5,0.3,0.9,0.7,1.2,1.3s0.4,1.2,0.4,2c0,0.7-0.1,1.4-0.4,2s-0.7,1-1.2,1.3c-0.5,0.3-1.1,0.5-1.7,0.5
				C256.9,185.8,256.4,185.6,255.9,185.3z M259.3,184.2c0.4-0.5,0.6-1.2,0.6-2.2c0-0.9-0.2-1.7-0.6-2.2c-0.4-0.5-1-0.8-1.7-0.8
				c-0.8,0-1.3,0.3-1.8,0.8c-0.4,0.5-0.6,1.2-0.6,2.2c0,1,0.2,1.7,0.6,2.2c0.4,0.5,1,0.8,1.8,0.8C258.3,185,258.9,184.8,259.3,184.2
				z"/>
			<path class="st8" d="M264.4,176.2c-0.2,0.2-0.3,0.6-0.3,1.2v1.1h1.8v0.7h-1.8v6.5h-0.9v-6.5h-1.4v-0.7h1.4v-1.3
				c0-0.7,0.2-1.2,0.5-1.6c0.4-0.4,0.8-0.5,1.5-0.5c0.3,0,0.6,0,0.9,0.1v0.8c-0.3-0.1-0.5-0.1-0.7-0.1
				C264.9,175.9,264.6,176,264.4,176.2z"/>
			<path class="st8" d="M279.2,185.7h-0.9l-1.3-3.4c-0.2-0.5-0.4-0.8-0.7-0.9c-0.3-0.2-0.7-0.2-1.2-0.2h-2.8v4.5h-0.9v-10.2h3.9
				c1.1,0,1.9,0.2,2.5,0.7s0.9,1.2,0.9,2.1c0,0.7-0.2,1.2-0.5,1.7c-0.3,0.4-0.8,0.8-1.5,0.9c0.3,0,0.5,0.2,0.8,0.4s0.4,0.5,0.5,0.9
				L279.2,185.7z M275.3,180.4c1.7,0,2.5-0.7,2.5-2.1c0-1.3-0.8-2-2.5-2h-3v4.1H275.3z"/>
			<path class="st8" d="M287.9,183h-5.5l-1.2,2.7h-0.9l4.4-10.2h0.8l4.4,10.2H289L287.9,183z M287.5,182.2l-2.4-5.6l-2.4,5.6H287.5z
				"/>
			<path class="st8" d="M299.6,185.7h-0.9l-1.3-3.4c-0.2-0.5-0.4-0.8-0.7-0.9c-0.3-0.2-0.7-0.2-1.2-0.2h-2.8v4.5h-0.9v-10.2h3.9
				c1.1,0,1.9,0.2,2.5,0.7s0.9,1.2,0.9,2.1c0,0.7-0.2,1.2-0.5,1.7c-0.3,0.4-0.8,0.8-1.5,0.9c0.3,0,0.5,0.2,0.8,0.4s0.4,0.5,0.5,0.9
				L299.6,185.7z M295.6,180.4c1.7,0,2.5-0.7,2.5-2.1c0-1.3-0.8-2-2.5-2h-3v4.1H295.6z"/>
			<g>
				<path class="st1" d="M70.7,210.9c-0.4-0.2-0.7-0.5-1-0.9c-0.2-0.4-0.4-0.8-0.4-1.3c0-0.4,0.1-0.9,0.3-1.3c0.2-0.4,0.5-0.7,0.9-1
					s0.8-0.4,1.3-0.4c0.5,0,0.9,0.1,1.3,0.3c0.4,0.2,0.7,0.5,1,0.9c0.2,0.4,0.4,0.8,0.4,1.3c0,0.5-0.1,0.9-0.4,1.3
					c-0.2,0.4-0.6,0.7-1,0.9c-0.4,0.2-0.8,0.3-1.3,0.3S71.1,211.1,70.7,210.9z"/>
				<path class="st1" d="M72,211.4c-0.5,0-0.9-0.1-1.4-0.4l0,0c-0.4-0.2-0.8-0.6-1-1c-0.2-0.4-0.4-0.9-0.4-1.4
					c0-0.5,0.1-0.9,0.4-1.3c0.2-0.4,0.6-0.7,1-1c0.4-0.2,0.9-0.4,1.4-0.4c0.5,0,0.9,0.1,1.3,0.4c0.4,0.2,0.8,0.6,1,1
					c0.2,0.4,0.4,0.9,0.4,1.4c0,0.5-0.1,0.9-0.4,1.4c-0.2,0.4-0.6,0.7-1,1C73,211.2,72.5,211.4,72,211.4z M72,206.2
					c-0.5,0-0.9,0.1-1.3,0.3s-0.7,0.5-0.9,0.9c-0.2,0.4-0.3,0.8-0.3,1.2c0,0.4,0.1,0.9,0.3,1.2c0.2,0.4,0.5,0.7,0.9,0.9l0,0
					c0.8,0.4,1.7,0.4,2.5,0c0.4-0.2,0.7-0.5,0.9-0.9c0.2-0.4,0.3-0.8,0.3-1.2c0-0.5-0.1-0.9-0.3-1.2c-0.2-0.4-0.5-0.7-0.9-0.9
					C72.9,206.3,72.5,206.2,72,206.2z"/>
			</g>
			<path class="st8" d="M104.2,212.5h-0.9l-1.3-3.4c-0.2-0.5-0.4-0.8-0.7-0.9s-0.7-0.2-1.2-0.2h-2.8v4.5h-0.9v-10.2h3.9
				c1.1,0,1.9,0.2,2.5,0.7s0.9,1.2,0.9,2.1c0,0.7-0.2,1.2-0.5,1.7s-0.8,0.8-1.5,0.9c0.3,0,0.5,0.2,0.8,0.4s0.4,0.5,0.5,0.9
				L104.2,212.5z M100.2,207.2c1.7,0,2.5-0.7,2.5-2.1c0-1.3-0.8-2-2.5-2h-3v4.1H100.2z"/>
			<path class="st8" d="M106.6,208.8L106.6,208.8c0,1,0.2,1.7,0.7,2.3s1.1,0.8,1.9,0.8c0.9,0,1.6-0.3,2.4-0.9l0.3,0.7
				c-0.3,0.3-0.7,0.5-1.2,0.7c-0.5,0.2-1,0.3-1.5,0.3c-1.1,0-1.9-0.3-2.6-1s-0.9-1.6-0.9-2.7c0-0.7,0.1-1.4,0.4-2s0.7-1,1.2-1.3
				c0.5-0.3,1.1-0.5,1.7-0.5c0.9,0,1.7,0.3,2.2,0.9s0.8,1.5,0.8,2.5v0.2H106.6z M107.4,206.5c-0.4,0.4-0.7,1-0.8,1.7h4.5
				c-0.1-0.7-0.3-1.3-0.6-1.7c-0.4-0.4-0.9-0.6-1.5-0.6C108.4,205.9,107.9,206.1,107.4,206.5z"/>
			<path class="st8" d="M124.1,207.9v4.6h-0.9V208c0-0.7-0.1-1.3-0.4-1.6s-0.7-0.5-1.2-0.5c-0.7,0-1.2,0.2-1.6,0.7
				c-0.4,0.4-0.6,1-0.6,1.8v4.1h-0.9V208c0-0.7-0.1-1.3-0.4-1.6s-0.7-0.5-1.2-0.5c-0.6,0-1.2,0.2-1.6,0.7s-0.6,1-0.6,1.8v4.1H114
				v-5.2c0-0.7,0-1.4-0.1-2h0.8l0.1,1.3c0.2-0.5,0.5-0.8,0.9-1.1c0.4-0.2,0.9-0.4,1.4-0.4c1.2,0,1.9,0.5,2.2,1.4
				c0.2-0.4,0.5-0.8,0.9-1c0.4-0.2,0.9-0.4,1.5-0.4C123.3,205.2,124.1,206.1,124.1,207.9z"/>
			<path class="st8" d="M127,208.8L127,208.8c0,1,0.2,1.7,0.7,2.3s1.1,0.8,1.9,0.8c0.9,0,1.6-0.3,2.4-0.9l0.3,0.7
				c-0.3,0.3-0.7,0.5-1.2,0.7c-0.5,0.2-1,0.3-1.5,0.3c-1.1,0-1.9-0.3-2.6-1s-0.9-1.6-0.9-2.7c0-0.7,0.1-1.4,0.4-2s0.7-1,1.2-1.3
				c0.5-0.3,1.1-0.5,1.7-0.5c0.9,0,1.7,0.3,2.2,0.9s0.8,1.5,0.8,2.5v0.2H127z M127.8,206.5c-0.4,0.4-0.7,1-0.8,1.7h4.5
				c-0.1-0.7-0.3-1.3-0.6-1.7c-0.4-0.4-0.9-0.6-1.5-0.6C128.7,205.9,128.2,206.1,127.8,206.5z"/>
			<path class="st8" d="M140.4,202v10.5h-0.9v-1.4c-0.2,0.5-0.5,0.8-1,1.1c-0.4,0.3-0.9,0.4-1.5,0.4c-0.6,0-1.2-0.2-1.7-0.5
				c-0.5-0.3-0.9-0.7-1.1-1.3s-0.4-1.2-0.4-2s0.1-1.4,0.4-2c0.3-0.6,0.6-1,1.1-1.3c0.5-0.3,1-0.5,1.7-0.5c0.6,0,1.1,0.1,1.5,0.4
				c0.4,0.2,0.7,0.6,1,1.1V202H140.4z M138.9,211.1c0.4-0.5,0.6-1.2,0.6-2.2s-0.2-1.7-0.6-2.2c-0.4-0.5-1-0.8-1.7-0.8
				c-0.8,0-1.4,0.3-1.8,0.8c-0.4,0.5-0.6,1.2-0.6,2.2c0,0.9,0.2,1.7,0.6,2.2c0.4,0.5,1,0.8,1.8,0.8S138.5,211.6,138.9,211.1z"/>
			<path class="st8" d="M143.9,202.4v1.1h-1.2v-1.1H143.9z M142.9,205.3h0.9v7.2h-0.9V205.3z"/>
			<path class="st8" d="M152.3,205.3v7.2h-0.9v-1.4c-0.2,0.5-0.5,0.8-1,1.1c-0.4,0.3-0.9,0.4-1.5,0.4c-0.6,0-1.2-0.2-1.7-0.5
				c-0.5-0.3-0.9-0.7-1.1-1.3c-0.3-0.6-0.4-1.2-0.4-2c0-0.7,0.1-1.4,0.4-2s0.6-1,1.1-1.3c0.5-0.3,1-0.5,1.7-0.5
				c0.6,0,1.1,0.1,1.5,0.4c0.4,0.2,0.7,0.6,1,1.1v-1.3H152.3z M150.8,211.1c0.4-0.5,0.6-1.2,0.6-2.2c0-0.9-0.2-1.7-0.6-2.2
				s-1-0.8-1.7-0.8s-1.3,0.3-1.8,0.8c-0.4,0.5-0.6,1.3-0.6,2.2c0,0.9,0.2,1.6,0.6,2.2c0.4,0.5,1,0.8,1.8,0.8
				C149.8,211.8,150.4,211.6,150.8,211.1z"/>
			<path class="st8" d="M155.9,206v4.3c0,0.6,0.1,1,0.3,1.2s0.5,0.3,1,0.3c0.3,0,0.5,0,0.8-0.1v0.8c-0.3,0.1-0.6,0.1-0.9,0.1
				c-0.6,0-1.1-0.2-1.5-0.5c-0.4-0.4-0.5-0.9-0.5-1.6V206h-1.4v-0.7h1.4v-1.9l0.9-0.3v2.2h2.1v0.7H155.9z"/>
			<path class="st8" d="M160.6,202.4v1.1h-1.2v-1.1H160.6z M159.6,205.3h0.9v7.2h-0.9V205.3z"/>
			<path class="st8" d="M164,212.2c-0.5-0.3-0.9-0.7-1.2-1.3s-0.4-1.2-0.4-2s0.1-1.4,0.4-2c0.3-0.6,0.7-1,1.2-1.3
				c0.5-0.3,1.1-0.5,1.7-0.5c0.6,0,1.2,0.2,1.7,0.5c0.5,0.3,0.9,0.7,1.2,1.3c0.3,0.6,0.4,1.2,0.4,2s-0.1,1.4-0.4,2s-0.7,1-1.2,1.3
				c-0.5,0.3-1.1,0.5-1.7,0.5C165.1,212.6,164.5,212.5,164,212.2z M167.5,211.1c0.4-0.5,0.6-1.2,0.6-2.2c0-0.9-0.2-1.7-0.6-2.2
				c-0.4-0.5-1-0.8-1.7-0.8c-0.8,0-1.3,0.3-1.8,0.8c-0.4,0.5-0.6,1.2-0.6,2.2c0,1,0.2,1.7,0.6,2.2c0.4,0.5,1,0.8,1.8,0.8
				C166.5,211.8,167.1,211.6,167.5,211.1z"/>
			<path class="st8" d="M177,207.9v4.6h-0.9V208c0-0.7-0.1-1.2-0.4-1.6s-0.7-0.5-1.4-0.5c-0.7,0-1.3,0.2-1.7,0.7
				c-0.4,0.4-0.7,1-0.7,1.8v4.1h-0.9v-5.2c0-0.7,0-1.4-0.1-2h0.8l0.1,1.3c0.2-0.5,0.5-0.9,1-1.1c0.4-0.3,0.9-0.4,1.5-0.4
				C176.1,205.2,177,206.1,177,207.9z"/>
			<path class="st8" d="M183.8,212c-0.2-1-0.4-2.1-0.4-3.2c0-1.1,0.1-2.2,0.4-3.2s0.6-2.1,1.2-3.2h0.8c-0.5,1.2-0.9,2.3-1.1,3.3
				c-0.2,1-0.3,2.1-0.3,3.1c0,1,0.1,2.1,0.3,3.1c0.2,1,0.6,2.1,1.1,3.3H185C184.4,214.1,184.1,213,183.8,212z"/>
			<path class="st8" d="M188.5,202.4v1.1h-1.2v-1.1H188.5z M187.5,205.3h0.9v7.2h-0.9V205.3z"/>
			<path class="st8" d="M192.3,203c-0.2,0.2-0.3,0.6-0.3,1.2v1.1h1.8v0.7H192v6.5h-0.9V206h-1.4v-0.7h1.4v-1.3
				c0-0.7,0.2-1.2,0.5-1.6c0.4-0.4,0.8-0.5,1.5-0.5c0.3,0,0.6,0,0.9,0.1v0.8c-0.3-0.1-0.5-0.1-0.7-0.1
				C192.9,202.7,192.6,202.8,192.3,203z"/>
			<path class="st8" d="M205.2,207.9v4.6h-0.9V208c0-0.7-0.1-1.2-0.4-1.6s-0.7-0.5-1.4-0.5c-0.7,0-1.3,0.2-1.7,0.7
				c-0.4,0.4-0.7,1-0.7,1.8v4.1h-0.9v-5.2c0-0.7,0-1.4-0.1-2h0.8l0.1,1.3c0.2-0.5,0.5-0.9,1-1.1c0.4-0.3,0.9-0.4,1.5-0.4
				C204.3,205.2,205.2,206.1,205.2,207.9z"/>
			<path class="st8" d="M208,208.8L208,208.8c0,1,0.2,1.7,0.7,2.3s1.1,0.8,1.9,0.8c0.9,0,1.6-0.3,2.4-0.9l0.3,0.7
				c-0.3,0.3-0.7,0.5-1.2,0.7c-0.5,0.2-1,0.3-1.5,0.3c-1.1,0-1.9-0.3-2.6-1s-0.9-1.6-0.9-2.7c0-0.7,0.1-1.4,0.4-2s0.7-1,1.2-1.3
				c0.5-0.3,1.1-0.5,1.7-0.5c0.9,0,1.7,0.3,2.2,0.9s0.8,1.5,0.8,2.5v0.2H208z M208.9,206.5c-0.4,0.4-0.7,1-0.8,1.7h4.5
				c-0.1-0.7-0.3-1.3-0.6-1.7c-0.4-0.4-0.9-0.6-1.5-0.6C209.8,205.9,209.3,206.1,208.9,206.5z"/>
			<path class="st8" d="M215.9,208.8L215.9,208.8c0,1,0.2,1.7,0.7,2.3s1.1,0.8,1.9,0.8c0.9,0,1.6-0.3,2.4-0.9l0.3,0.7
				c-0.3,0.3-0.7,0.5-1.2,0.7c-0.5,0.2-1,0.3-1.5,0.3c-1.1,0-1.9-0.3-2.6-1s-0.9-1.6-0.9-2.7c0-0.7,0.1-1.4,0.4-2s0.7-1,1.2-1.3
				c0.5-0.3,1.1-0.5,1.7-0.5c0.9,0,1.7,0.3,2.2,0.9s0.8,1.5,0.8,2.5v0.2H215.9z M216.7,206.5c-0.4,0.4-0.7,1-0.8,1.7h4.5
				c-0.1-0.7-0.3-1.3-0.6-1.7c-0.4-0.4-0.9-0.6-1.5-0.6C217.6,205.9,217.1,206.1,216.7,206.5z"/>
			<path class="st8" d="M229.3,202v10.5h-0.9v-1.4c-0.2,0.5-0.5,0.8-1,1.1c-0.4,0.3-0.9,0.4-1.5,0.4c-0.6,0-1.2-0.2-1.7-0.5
				c-0.5-0.3-0.9-0.7-1.1-1.3s-0.4-1.2-0.4-2s0.1-1.4,0.4-2c0.3-0.6,0.6-1,1.1-1.3c0.5-0.3,1-0.5,1.7-0.5c0.6,0,1.1,0.1,1.5,0.4
				c0.4,0.2,0.7,0.6,1,1.1V202H229.3z M227.8,211.1c0.4-0.5,0.6-1.2,0.6-2.2s-0.2-1.7-0.6-2.2c-0.4-0.5-1-0.8-1.7-0.8
				c-0.8,0-1.4,0.3-1.8,0.8c-0.4,0.5-0.6,1.2-0.6,2.2c0,0.9,0.2,1.7,0.6,2.2c0.4,0.5,1,0.8,1.8,0.8S227.4,211.6,227.8,211.1z"/>
			<path class="st8" d="M232.2,208.8L232.2,208.8c0,1,0.2,1.7,0.7,2.3s1.1,0.8,1.9,0.8c0.9,0,1.6-0.3,2.4-0.9l0.3,0.7
				c-0.3,0.3-0.7,0.5-1.2,0.7c-0.5,0.2-1,0.3-1.5,0.3c-1.1,0-1.9-0.3-2.6-1s-0.9-1.6-0.9-2.7c0-0.7,0.1-1.4,0.4-2s0.7-1,1.2-1.3
				c0.5-0.3,1.1-0.5,1.7-0.5c0.9,0,1.7,0.3,2.2,0.9s0.8,1.5,0.8,2.5v0.2H232.2z M233.1,206.5c-0.4,0.4-0.7,1-0.8,1.7h4.5
				c-0.1-0.7-0.3-1.3-0.6-1.7c-0.4-0.4-0.9-0.6-1.5-0.6C234,205.9,233.5,206.1,233.1,206.5z"/>
			<path class="st8" d="M245.7,202v10.5h-0.9v-1.4c-0.2,0.5-0.5,0.8-1,1.1c-0.4,0.3-0.9,0.4-1.5,0.4c-0.6,0-1.2-0.2-1.7-0.5
				c-0.5-0.3-0.9-0.7-1.1-1.3s-0.4-1.2-0.4-2s0.1-1.4,0.4-2c0.3-0.6,0.6-1,1.1-1.3c0.5-0.3,1-0.5,1.7-0.5c0.6,0,1.1,0.1,1.5,0.4
				c0.4,0.2,0.7,0.6,1,1.1V202H245.7z M244.2,211.1c0.4-0.5,0.6-1.2,0.6-2.2s-0.2-1.7-0.6-2.2c-0.4-0.5-1-0.8-1.7-0.8
				c-0.8,0-1.4,0.3-1.8,0.8c-0.4,0.5-0.6,1.2-0.6,2.2c0,0.9,0.2,1.7,0.6,2.2c0.4,0.5,1,0.8,1.8,0.8S243.8,211.6,244.2,211.1z"/>
			<path class="st8" d="M247.4,215.1c0.5-1.2,0.9-2.3,1.1-3.3c0.2-1,0.3-2.1,0.3-3.1c0-1-0.1-2.1-0.3-3.1c-0.2-1-0.6-2.1-1.1-3.3
				h0.8c0.5,1.1,0.9,2.1,1.2,3.2c0.2,1,0.4,2.1,0.4,3.2c0,1.1-0.1,2.2-0.4,3.2c-0.2,1-0.6,2.1-1.2,3.2H247.4z"/>
			<path class="st8" d="M96.4,229.1h6.1v0.8h-5.2v3.9h5v0.8h-5v4.8h-0.9V229.1z"/>
			<path class="st8" d="M104.6,235.6L104.6,235.6c0,1,0.2,1.7,0.7,2.3s1.1,0.8,1.9,0.8c0.9,0,1.6-0.3,2.4-0.9l0.3,0.7
				c-0.3,0.3-0.7,0.5-1.2,0.7c-0.5,0.2-1,0.3-1.5,0.3c-1.1,0-1.9-0.3-2.6-1s-0.9-1.6-0.9-2.7c0-0.7,0.1-1.4,0.4-2s0.7-1,1.2-1.3
				s1.1-0.5,1.7-0.5c0.9,0,1.7,0.3,2.2,0.9s0.8,1.5,0.8,2.5v0.2H104.6z M105.4,233.3c-0.4,0.4-0.7,1-0.8,1.7h4.5
				c-0.1-0.7-0.3-1.3-0.6-1.7c-0.4-0.4-0.9-0.6-1.5-0.6C106.4,232.7,105.8,232.9,105.4,233.3z"/>
			<path class="st8" d="M118.1,228.8v10.5h-0.9V238c-0.2,0.5-0.5,0.8-1,1.1c-0.4,0.3-0.9,0.4-1.5,0.4c-0.6,0-1.2-0.2-1.7-0.5
				c-0.5-0.3-0.9-0.7-1.1-1.3s-0.4-1.2-0.4-2s0.1-1.4,0.4-2c0.3-0.6,0.6-1,1.1-1.3c0.5-0.3,1-0.5,1.7-0.5c0.6,0,1.1,0.1,1.5,0.4
				c0.4,0.2,0.7,0.6,1,1.1v-4.6H118.1z M116.6,237.9c0.4-0.5,0.6-1.2,0.6-2.2s-0.2-1.7-0.6-2.2c-0.4-0.5-1-0.8-1.7-0.8
				c-0.8,0-1.4,0.3-1.8,0.8c-0.4,0.5-0.6,1.2-0.6,2.2c0,0.9,0.2,1.7,0.6,2.2c0.4,0.5,1,0.8,1.8,0.8S116.2,238.4,116.6,237.9z"/>
			<path class="st8" d="M128.5,239.3h-0.9l-1.3-3.4c-0.2-0.5-0.4-0.8-0.7-0.9s-0.7-0.2-1.2-0.2h-2.8v4.5h-0.9v-10.2h3.9
				c1.1,0,1.9,0.2,2.5,0.7c0.6,0.5,0.9,1.2,0.9,2.1c0,0.7-0.2,1.2-0.5,1.7s-0.8,0.8-1.5,0.9c0.3,0,0.5,0.2,0.8,0.4s0.4,0.5,0.5,0.9
				L128.5,239.3z M124.5,234c1.7,0,2.5-0.7,2.5-2.1c0-1.3-0.8-2-2.5-2h-3v4.1H124.5z"/>
			<path class="st8" d="M137.1,236.6h-5.5l-1.2,2.7h-0.9l4.4-10.2h0.8l4.4,10.2h-0.9L137.1,236.6z M136.8,235.8l-2.4-5.6l-2.4,5.6
				H136.8z"/>
			<path class="st8" d="M150.5,229.1v10.2h-0.8v-8.2l-3.6,8.2h-0.7l-3.6-8.1l0,8.1H141v-10.2h0.7l4,9.1l4-9.1H150.5z"/>
			<path class="st8" d="M153.2,229.1h3.9c1,0,1.8,0.2,2.4,0.7c0.6,0.5,0.9,1.2,0.9,2c0,0.9-0.3,1.6-0.9,2.1
				c-0.6,0.5-1.4,0.8-2.4,0.8h-3v4.6h-0.9V229.1z M157,234c0.8,0,1.4-0.2,1.8-0.5s0.6-0.9,0.6-1.5c0-0.6-0.2-1.1-0.6-1.5
				s-1-0.5-1.8-0.5h-3v4.1H157z"/>
			<path class="st8" d="M175.7,229.1v10.2h-0.8v-8.2l-3.6,8.2h-0.7l-3.6-8.1l0,8.1h-0.8v-10.2h0.7l4,9.1l4-9.1H175.7z"/>
			<path class="st8" d="M184.3,232.2v7.2h-0.9V238c-0.2,0.5-0.5,0.8-1,1.1c-0.4,0.3-0.9,0.4-1.5,0.4c-0.6,0-1.2-0.2-1.7-0.5
				c-0.5-0.3-0.9-0.7-1.1-1.3c-0.3-0.6-0.4-1.2-0.4-2c0-0.7,0.1-1.4,0.4-2s0.6-1,1.1-1.3s1-0.5,1.7-0.5c0.6,0,1.1,0.1,1.5,0.4
				c0.4,0.2,0.7,0.6,1,1.1v-1.3H184.3z M182.8,237.9c0.4-0.5,0.6-1.2,0.6-2.2c0-0.9-0.2-1.7-0.6-2.2s-1-0.8-1.7-0.8
				s-1.3,0.3-1.8,0.8c-0.4,0.5-0.6,1.3-0.6,2.2c0,0.9,0.2,1.6,0.6,2.2c0.4,0.5,1,0.8,1.8,0.8C181.8,238.7,182.4,238.4,182.8,237.9z"
				/>
			<path class="st8" d="M190.5,232l0,0.8c-0.2,0-0.4-0.1-0.7-0.1c-0.7,0-1.3,0.2-1.6,0.7c-0.4,0.5-0.5,1-0.5,1.7v4.2h-0.9v-5.2
				c0-0.7,0-1.4-0.1-2h0.8l0.1,1.3c0.2-0.5,0.5-0.9,0.9-1.1c0.4-0.3,0.9-0.4,1.4-0.4C190.1,232,190.3,232,190.5,232z"/>
			<path class="st8" d="M196.6,239.3l-3.9-3.5v3.5h-0.9v-10.5h0.9v6.7l3.6-3.3h1.1l-3.7,3.4l4.1,3.7H196.6z"/>
			<path class="st8" d="M199.3,235.6L199.3,235.6c0,1,0.2,1.7,0.7,2.3s1.1,0.8,1.9,0.8c0.9,0,1.6-0.3,2.4-0.9l0.3,0.7
				c-0.3,0.3-0.7,0.5-1.2,0.7c-0.5,0.2-1,0.3-1.5,0.3c-1.1,0-1.9-0.3-2.6-1s-0.9-1.6-0.9-2.7c0-0.7,0.1-1.4,0.4-2s0.7-1,1.2-1.3
				s1.1-0.5,1.7-0.5c0.9,0,1.7,0.3,2.2,0.9s0.8,1.5,0.8,2.5v0.2H199.3z M200.2,233.3c-0.4,0.4-0.7,1-0.8,1.7h4.5
				c-0.1-0.7-0.3-1.3-0.6-1.7c-0.4-0.4-0.9-0.6-1.5-0.6C201.1,232.7,200.6,232.9,200.2,233.3z"/>
			<path class="st8" d="M207.9,232.9v4.3c0,0.6,0.1,1,0.3,1.2s0.5,0.3,1,0.3c0.3,0,0.5,0,0.8-0.1v0.8c-0.3,0.1-0.6,0.1-0.9,0.1
				c-0.6,0-1.1-0.2-1.5-0.5c-0.4-0.4-0.5-0.9-0.5-1.6v-4.4h-1.4v-0.7h1.4v-1.9l0.9-0.3v2.2h2.1v0.7H207.9z"/>
			<path class="st8" d="M216.6,232.5c0.5,0.3,0.9,0.7,1.1,1.3s0.4,1.2,0.4,2c0,0.7-0.1,1.4-0.4,1.9c-0.3,0.6-0.6,1-1.1,1.3
				c-0.5,0.3-1,0.5-1.7,0.5c-0.6,0-1.1-0.1-1.5-0.4c-0.4-0.3-0.7-0.6-1-1.1v4.5h-0.9v-8.3c0-0.7,0-1.4-0.1-2h0.8l0.1,1.4
				c0.2-0.5,0.5-0.9,1-1.2s1-0.4,1.6-0.4C215.6,232,216.1,232.1,216.6,232.5z M216.6,237.9c0.4-0.5,0.6-1.2,0.6-2.2
				c0-0.9-0.2-1.7-0.6-2.2c-0.4-0.5-1-0.8-1.7-0.8c-0.8,0-1.3,0.3-1.8,0.8s-0.6,1.2-0.6,2.2c0,0.9,0.2,1.7,0.6,2.2
				c0.4,0.5,1,0.8,1.7,0.8S216.2,238.4,216.6,237.9z"/>
			<path class="st8" d="M220.1,228.8h0.9v10.5h-0.9V228.8z"/>
			<path class="st8" d="M229.5,232.2v7.2h-0.9V238c-0.2,0.5-0.5,0.8-1,1.1c-0.4,0.3-0.9,0.4-1.5,0.4c-0.6,0-1.2-0.2-1.7-0.5
				c-0.5-0.3-0.9-0.7-1.1-1.3c-0.3-0.6-0.4-1.2-0.4-2c0-0.7,0.1-1.4,0.4-2s0.6-1,1.1-1.3s1-0.5,1.7-0.5c0.6,0,1.1,0.1,1.5,0.4
				c0.4,0.2,0.7,0.6,1,1.1v-1.3H229.5z M228,237.9c0.4-0.5,0.6-1.2,0.6-2.2c0-0.9-0.2-1.7-0.6-2.2s-1-0.8-1.7-0.8s-1.3,0.3-1.8,0.8
				c-0.4,0.5-0.6,1.3-0.6,2.2c0,0.9,0.2,1.6,0.6,2.2c0.4,0.5,1,0.8,1.8,0.8C227.1,238.7,227.6,238.4,228,237.9z"/>
			<path class="st8" d="M233.1,239c-0.5-0.3-0.9-0.7-1.2-1.3c-0.3-0.6-0.4-1.2-0.4-1.9c0-0.7,0.1-1.4,0.4-2c0.3-0.6,0.7-1,1.2-1.3
				s1.1-0.5,1.8-0.5c0.5,0,1,0.1,1.4,0.2s0.8,0.4,1.1,0.7l-0.3,0.7c-0.4-0.3-0.7-0.5-1.1-0.7c-0.3-0.1-0.7-0.2-1.1-0.2
				c-0.8,0-1.4,0.3-1.8,0.8s-0.7,1.3-0.7,2.2c0,0.9,0.2,1.6,0.7,2.1c0.4,0.5,1.1,0.8,1.8,0.8c0.4,0,0.7-0.1,1.1-0.2
				c0.3-0.1,0.7-0.4,1.1-0.7l0.3,0.7c-0.3,0.3-0.7,0.5-1.1,0.7c-0.5,0.2-0.9,0.3-1.4,0.3C234.2,239.4,233.6,239.3,233.1,239z"/>
			<path class="st8" d="M239.5,235.6L239.5,235.6c0,1,0.2,1.7,0.7,2.3s1.1,0.8,1.9,0.8c0.9,0,1.6-0.3,2.4-0.9l0.3,0.7
				c-0.3,0.3-0.7,0.5-1.2,0.7c-0.5,0.2-1,0.3-1.5,0.3c-1.1,0-1.9-0.3-2.6-1s-0.9-1.6-0.9-2.7c0-0.7,0.1-1.4,0.4-2s0.7-1,1.2-1.3
				s1.1-0.5,1.7-0.5c0.9,0,1.7,0.3,2.2,0.9s0.8,1.5,0.8,2.5v0.2H239.5z M240.3,233.3c-0.4,0.4-0.7,1-0.8,1.7h4.5
				c-0.1-0.7-0.3-1.3-0.6-1.7c-0.4-0.4-0.9-0.6-1.5-0.6C241.3,232.7,240.8,232.9,240.3,233.3z"/>
			<path class="st8" d="M254.5,229.1h3.3c1.6,0,2.9,0.4,3.7,1.3c0.9,0.9,1.3,2.1,1.3,3.8s-0.4,2.9-1.3,3.8c-0.9,0.9-2.1,1.3-3.7,1.3
				h-3.3V229.1z M257.7,238.6c1.4,0,2.4-0.4,3.1-1.1c0.7-0.7,1-1.8,1-3.2c0-2.9-1.4-4.3-4.2-4.3h-2.3v8.6H257.7z"/>
			<path class="st8" d="M265.4,235.6L265.4,235.6c0,1,0.2,1.7,0.7,2.3s1.1,0.8,1.9,0.8c0.9,0,1.6-0.3,2.4-0.9l0.3,0.7
				c-0.3,0.3-0.7,0.5-1.2,0.7c-0.5,0.2-1,0.3-1.5,0.3c-1.1,0-1.9-0.3-2.6-1s-0.9-1.6-0.9-2.7c0-0.7,0.1-1.4,0.4-2s0.7-1,1.2-1.3
				s1.1-0.5,1.7-0.5c0.9,0,1.7,0.3,2.2,0.9s0.8,1.5,0.8,2.5v0.2H265.4z M266.3,233.3c-0.4,0.4-0.7,1-0.8,1.7h4.5
				c-0.1-0.7-0.3-1.3-0.6-1.7c-0.4-0.4-0.9-0.6-1.5-0.6C267.2,232.7,266.7,232.9,266.3,233.3z"/>
			<path class="st8" d="M272.4,238.5l0.3-0.7c0.4,0.3,0.8,0.5,1.2,0.7s0.8,0.2,1.3,0.2c0.6,0,1-0.1,1.4-0.3c0.3-0.2,0.5-0.5,0.5-0.9
				c0-0.3-0.1-0.6-0.3-0.8c-0.2-0.2-0.5-0.3-1-0.5l-1.2-0.3c-0.6-0.1-1-0.4-1.4-0.7c-0.3-0.3-0.5-0.7-0.5-1.2c0-0.6,0.2-1.1,0.7-1.5
				c0.5-0.4,1.1-0.6,1.9-0.6c0.5,0,1,0.1,1.4,0.2c0.4,0.2,0.8,0.4,1.1,0.7l-0.3,0.7c-0.7-0.6-1.4-0.9-2.2-0.9c-0.6,0-1,0.1-1.3,0.3
				c-0.3,0.2-0.5,0.5-0.5,0.9c0,0.3,0.1,0.6,0.3,0.8c0.2,0.2,0.5,0.3,0.9,0.4l1.2,0.3c1.3,0.3,1.9,0.9,1.9,1.9
				c0,0.6-0.2,1.1-0.7,1.5c-0.5,0.4-1.2,0.6-2,0.6C274,239.4,273.1,239.1,272.4,238.5z"/>
			<path class="st8" d="M281,229.2v1.1h-1.2v-1.1H281z M279.9,232.2h0.9v7.2h-0.9V232.2z"/>
			<path class="st8" d="M289.4,232.2v7.2c0,1-0.3,1.8-0.8,2.4c-0.5,0.5-1.3,0.8-2.3,0.8c-1.1,0-2-0.3-2.8-0.8l0.2-0.8
				c0.5,0.3,0.9,0.5,1.3,0.6c0.4,0.1,0.8,0.2,1.3,0.2c0.7,0,1.3-0.2,1.6-0.6c0.4-0.4,0.6-1,0.6-1.7v-1.8c-0.2,0.5-0.5,0.9-1,1.1
				c-0.4,0.3-0.9,0.4-1.5,0.4c-0.6,0-1.2-0.2-1.7-0.5c-0.5-0.3-0.9-0.7-1.1-1.3s-0.4-1.2-0.4-1.9c0-0.7,0.1-1.3,0.4-1.9
				c0.3-0.5,0.7-1,1.1-1.3s1-0.4,1.7-0.4c0.6,0,1.1,0.1,1.5,0.4c0.4,0.2,0.7,0.6,1,1.1v-1.3H289.4z M287.9,237.6
				c0.4-0.5,0.6-1.2,0.6-2c0-0.9-0.2-1.6-0.6-2.1c-0.4-0.5-1-0.8-1.8-0.8c-0.8,0-1.3,0.2-1.8,0.8s-0.6,1.2-0.6,2.1
				c0,0.9,0.2,1.5,0.6,2s1,0.7,1.8,0.7C286.9,238.3,287.5,238.1,287.9,237.6z"/>
			<path class="st8" d="M297.8,234.8v4.6h-0.9v-4.5c0-0.7-0.1-1.2-0.4-1.6s-0.7-0.5-1.4-0.5c-0.7,0-1.3,0.2-1.7,0.7
				c-0.4,0.4-0.7,1-0.7,1.8v4.1h-0.9v-5.2c0-0.7,0-1.4-0.1-2h0.8l0.1,1.3c0.2-0.5,0.5-0.9,1-1.1c0.4-0.3,0.9-0.4,1.5-0.4
				C296.9,232,297.8,232.9,297.8,234.8z"/>
			<path class="st8" d="M306.3,232.2v7.2h-0.9V238c-0.2,0.5-0.5,0.8-1,1.1c-0.4,0.3-0.9,0.4-1.5,0.4c-0.6,0-1.2-0.2-1.7-0.5
				c-0.5-0.3-0.9-0.7-1.1-1.3c-0.3-0.6-0.4-1.2-0.4-2c0-0.7,0.1-1.4,0.4-2s0.6-1,1.1-1.3s1-0.5,1.7-0.5c0.6,0,1.1,0.1,1.5,0.4
				c0.4,0.2,0.7,0.6,1,1.1v-1.3H306.3z M304.8,237.9c0.4-0.5,0.6-1.2,0.6-2.2c0-0.9-0.2-1.7-0.6-2.2s-1-0.8-1.7-0.8
				s-1.3,0.3-1.8,0.8c-0.4,0.5-0.6,1.3-0.6,2.2c0,0.9,0.2,1.6,0.6,2.2c0.4,0.5,1,0.8,1.8,0.8C303.8,238.7,304.4,238.4,304.8,237.9z"
				/>
			<path class="st8" d="M309.9,232.9v4.3c0,0.6,0.1,1,0.3,1.2s0.5,0.3,1,0.3c0.3,0,0.5,0,0.8-0.1v0.8c-0.3,0.1-0.6,0.1-0.9,0.1
				c-0.6,0-1.1-0.2-1.5-0.5c-0.4-0.4-0.5-0.9-0.5-1.6v-4.4h-1.4v-0.7h1.4v-1.9l0.9-0.3v2.2h2.1v0.7H309.9z"/>
			<path class="st8" d="M314.6,229.2v1.1h-1.2v-1.1H314.6z M313.6,232.2h0.9v7.2h-0.9V232.2z"/>
			<path class="st8" d="M318.1,239c-0.5-0.3-0.9-0.7-1.2-1.3s-0.4-1.2-0.4-2s0.1-1.4,0.4-2c0.3-0.6,0.7-1,1.2-1.3
				c0.5-0.3,1.1-0.5,1.7-0.5c0.6,0,1.2,0.2,1.7,0.5c0.5,0.3,0.9,0.7,1.2,1.3c0.3,0.6,0.4,1.2,0.4,2s-0.1,1.4-0.4,2s-0.7,1-1.2,1.3
				c-0.5,0.3-1.1,0.5-1.7,0.5C319.1,239.4,318.6,239.3,318.1,239z M321.6,237.9c0.4-0.5,0.6-1.2,0.6-2.2c0-0.9-0.2-1.7-0.6-2.2
				c-0.4-0.5-1-0.8-1.7-0.8c-0.8,0-1.3,0.3-1.8,0.8c-0.4,0.5-0.6,1.2-0.6,2.2c0,1,0.2,1.7,0.6,2.2c0.4,0.5,1,0.8,1.8,0.8
				C320.5,238.7,321.1,238.4,321.6,237.9z"/>
			<path class="st8" d="M331,234.8v4.6h-0.9v-4.5c0-0.7-0.1-1.2-0.4-1.6s-0.7-0.5-1.4-0.5c-0.7,0-1.3,0.2-1.7,0.7
				c-0.4,0.4-0.7,1-0.7,1.8v4.1h-0.9v-5.2c0-0.7,0-1.4-0.1-2h0.8l0.1,1.3c0.2-0.5,0.5-0.9,1-1.1c0.4-0.3,0.9-0.4,1.5-0.4
				C330.1,232,331,232.9,331,234.8z"/>
			<path class="st8" d="M337,235.1h3.9v0.8H337V235.1z"/>
			<path class="st8" d="M354.9,239.3H354l-1.3-3.4c-0.2-0.5-0.4-0.8-0.7-0.9s-0.7-0.2-1.2-0.2H348v4.5h-0.9v-10.2h3.9
				c1.1,0,1.9,0.2,2.5,0.7c0.6,0.5,0.9,1.2,0.9,2.1c0,0.7-0.2,1.2-0.5,1.7s-0.8,0.8-1.5,0.9c0.3,0,0.5,0.2,0.8,0.4s0.4,0.5,0.5,0.9
				L354.9,239.3z M351,234c1.7,0,2.5-0.7,2.5-2.1c0-1.3-0.8-2-2.5-2h-3v4.1H351z"/>
			<path class="st8" d="M357.3,235.6L357.3,235.6c0,1,0.2,1.7,0.7,2.3s1.1,0.8,1.9,0.8c0.9,0,1.6-0.3,2.4-0.9l0.3,0.7
				c-0.3,0.3-0.7,0.5-1.2,0.7c-0.5,0.2-1,0.3-1.5,0.3c-1.1,0-1.9-0.3-2.6-1s-0.9-1.6-0.9-2.7c0-0.7,0.1-1.4,0.4-2s0.7-1,1.2-1.3
				s1.1-0.5,1.7-0.5c0.9,0,1.7,0.3,2.2,0.9s0.8,1.5,0.8,2.5v0.2H357.3z M358.2,233.3c-0.4,0.4-0.7,1-0.8,1.7h4.5
				c-0.1-0.7-0.3-1.3-0.6-1.7c-0.4-0.4-0.9-0.6-1.5-0.6C359.1,232.7,358.6,232.9,358.2,233.3z"/>
			<path class="st8" d="M370.8,232.2v7.2h-0.9V238c-0.2,0.5-0.5,0.8-1,1.1c-0.4,0.3-0.9,0.4-1.5,0.4c-0.6,0-1.2-0.2-1.7-0.5
				c-0.5-0.3-0.9-0.7-1.1-1.3c-0.3-0.6-0.4-1.2-0.4-2c0-0.7,0.1-1.4,0.4-2s0.6-1,1.1-1.3s1-0.5,1.7-0.5c0.6,0,1.1,0.1,1.5,0.4
				c0.4,0.2,0.7,0.6,1,1.1v-1.3H370.8z M369.3,237.9c0.4-0.5,0.6-1.2,0.6-2.2c0-0.9-0.2-1.7-0.6-2.2s-1-0.8-1.7-0.8
				s-1.3,0.3-1.8,0.8c-0.4,0.5-0.6,1.3-0.6,2.2c0,0.9,0.2,1.6,0.6,2.2c0.4,0.5,1,0.8,1.8,0.8C368.3,238.7,368.9,238.4,369.3,237.9z"
				/>
			<path class="st8" d="M379.3,228.8v10.5h-0.9V238c-0.2,0.5-0.5,0.8-1,1.1c-0.4,0.3-0.9,0.4-1.5,0.4c-0.6,0-1.2-0.2-1.7-0.5
				c-0.5-0.3-0.9-0.7-1.1-1.3s-0.4-1.2-0.4-2s0.1-1.4,0.4-2c0.3-0.6,0.6-1,1.1-1.3c0.5-0.3,1-0.5,1.7-0.5c0.6,0,1.1,0.1,1.5,0.4
				c0.4,0.2,0.7,0.6,1,1.1v-4.6H379.3z M377.8,237.9c0.4-0.5,0.6-1.2,0.6-2.2s-0.2-1.7-0.6-2.2c-0.4-0.5-1-0.8-1.7-0.8
				c-0.8,0-1.4,0.3-1.8,0.8c-0.4,0.5-0.6,1.2-0.6,2.2c0,0.9,0.2,1.7,0.6,2.2c0.4,0.5,1,0.8,1.8,0.8S377.4,238.4,377.8,237.9z"/>
			<path class="st8" d="M387.9,232.2l-3.4,7.9c-0.3,0.8-0.8,1.4-1.3,1.7s-1.1,0.6-1.9,0.8l-0.2-0.7c0.7-0.2,1.2-0.4,1.6-0.6
				c0.3-0.3,0.6-0.7,0.9-1.2l0.3-0.7l-3.1-7.2h0.9l2.6,6.3l2.6-6.3H387.9z"/>
		</g>
	</g>
	<g>
		<g>
			<path class="st1" d="M68.5,126.4l-2.4-3.5c-0.2,0-0.5,0-0.7,0h-2.8v3.4h-1.6v-11.3h4.4c2.9,0,4.7,1.5,4.7,3.9
				c0,1.7-0.9,3-2.5,3.6l2.7,3.8H68.5z M68.4,119c0-1.6-1.1-2.5-3.1-2.5h-2.7v5.1h2.7C67.3,121.6,68.4,120.6,68.4,119z"/>
			<path class="st1" d="M80.3,122.6h-6.9c0.2,1.5,1.4,2.5,3.1,2.5c1,0,1.8-0.3,2.5-1l0.9,1c-0.8,0.9-1.9,1.4-3.4,1.4
				c-2.8,0-4.6-1.8-4.6-4.4c0-2.5,1.8-4.3,4.3-4.3c2.5,0,4.2,1.8,4.2,4.4C80.3,122.3,80.3,122.5,80.3,122.6z M73.3,121.5h5.5
				c-0.2-1.4-1.2-2.4-2.7-2.4C74.6,119,73.5,120,73.3,121.5z"/>
			<path class="st1" d="M89.1,121.2v5.2h-1.5v-1.1c-0.5,0.8-1.5,1.2-2.8,1.2c-1.9,0-3.2-1-3.2-2.5c0-1.4,0.9-2.5,3.4-2.5h2.4v-0.3
				c0-1.3-0.8-2.1-2.3-2.1c-1,0-2,0.4-2.7,0.9l-0.6-1.2c0.9-0.7,2.2-1.1,3.5-1.1C87.8,117.7,89.1,118.9,89.1,121.2z M87.6,123.7
				v-1.2h-2.4c-1.5,0-2,0.6-2,1.3c0,0.9,0.7,1.4,1.9,1.4C86.3,125.3,87.2,124.7,87.6,123.7z"/>
			<path class="st1" d="M100.2,114.4v11.9h-1.5V125c-0.7,1-1.8,1.4-3,1.4c-2.5,0-4.3-1.8-4.3-4.4s1.8-4.3,4.3-4.3
				c1.2,0,2.3,0.5,3,1.4v-4.7H100.2z M98.7,122.1c0-1.8-1.2-3-2.9-3c-1.6,0-2.9,1.2-2.9,3c0,1.8,1.2,3,2.9,3
				C97.5,125.1,98.7,123.9,98.7,122.1z"/>
			<path class="st1" d="M103,115.2c0-0.6,0.5-1,1-1c0.6,0,1,0.4,1,1c0,0.6-0.4,1-1,1C103.5,116.2,103,115.7,103,115.2z M103.3,117.8
				h1.5v8.5h-1.5V117.8z"/>
			<path class="st1" d="M116.1,121.4v4.9h-1.5v-4.7c0-1.7-0.8-2.5-2.3-2.5c-1.6,0-2.7,1-2.7,2.8v4.4H108v-8.5h1.5v1.3
				c0.6-0.9,1.7-1.4,3.1-1.4C114.6,117.7,116.1,118.9,116.1,121.4z"/>
			<path class="st1" d="M126.8,122.6h-6.9c0.2,1.5,1.4,2.5,3.1,2.5c1,0,1.8-0.3,2.5-1l0.9,1c-0.8,0.9-1.9,1.4-3.4,1.4
				c-2.8,0-4.6-1.8-4.6-4.4c0-2.5,1.8-4.3,4.3-4.3c2.5,0,4.2,1.8,4.2,4.4C126.8,122.3,126.8,122.5,126.8,122.6z M119.9,121.5h5.5
				c-0.2-1.4-1.2-2.4-2.7-2.4C121.1,119,120,120,119.9,121.5z"/>
			<path class="st1" d="M128.1,125.4l0.6-1.2c0.7,0.5,1.9,0.9,3,0.9c1.4,0,2-0.4,2-1.2c0-1.9-5.4-0.3-5.4-3.7c0-1.5,1.4-2.6,3.6-2.6
				c1.1,0,2.4,0.3,3.1,0.8l-0.7,1.2c-0.8-0.5-1.6-0.7-2.5-0.7c-1.4,0-2,0.5-2,1.2c0,2,5.4,0.4,5.4,3.7c0,1.5-1.4,2.5-3.7,2.5
				C130.2,126.4,128.8,126,128.1,125.4z"/>
			<path class="st1" d="M136.3,125.4l0.6-1.2c0.7,0.5,1.9,0.9,3,0.9c1.4,0,2-0.4,2-1.2c0-1.9-5.4-0.3-5.4-3.7c0-1.5,1.4-2.6,3.6-2.6
				c1.1,0,2.4,0.3,3.1,0.8l-0.7,1.2c-0.8-0.5-1.6-0.7-2.5-0.7c-1.4,0-2,0.5-2,1.2c0,2,5.4,0.4,5.4,3.7c0,1.5-1.4,2.5-3.7,2.5
				C138.4,126.4,137,126,136.3,125.4z"/>
			<path class="st1" d="M157.5,123.5h-6l-1.2,2.8h-1.7l5.1-11.3h1.6l5.1,11.3h-1.7L157.5,123.5z M156.9,122.2l-2.4-5.5l-2.4,5.5
				H156.9z"/>
			<path class="st1" d="M160.9,125.4l0.6-1.2c0.7,0.5,1.9,0.9,3,0.9c1.4,0,2-0.4,2-1.2c0-1.9-5.4-0.3-5.4-3.7c0-1.5,1.4-2.6,3.6-2.6
				c1.1,0,2.4,0.3,3.1,0.8l-0.7,1.2c-0.8-0.5-1.6-0.7-2.5-0.7c-1.4,0-2,0.5-2,1.2c0,2,5.4,0.4,5.4,3.7c0,1.5-1.4,2.5-3.7,2.5
				C163,126.4,161.6,126,160.9,125.4z"/>
			<path class="st1" d="M169.1,125.4l0.6-1.2c0.7,0.5,1.9,0.9,3,0.9c1.4,0,2-0.4,2-1.2c0-1.9-5.4-0.3-5.4-3.7c0-1.5,1.4-2.6,3.6-2.6
				c1.1,0,2.4,0.3,3.1,0.8l-0.7,1.2c-0.8-0.5-1.6-0.7-2.5-0.7c-1.4,0-2,0.5-2,1.2c0,2,5.4,0.4,5.4,3.7c0,1.5-1.4,2.5-3.7,2.5
				C171.2,126.4,169.8,126,169.1,125.4z"/>
			<path class="st1" d="M186.1,122.6h-6.9c0.2,1.5,1.4,2.5,3.1,2.5c1,0,1.8-0.3,2.5-1l0.9,1c-0.8,0.9-1.9,1.4-3.4,1.4
				c-2.8,0-4.6-1.8-4.6-4.4c0-2.5,1.8-4.3,4.3-4.3c2.5,0,4.2,1.8,4.2,4.4C186.1,122.3,186.1,122.5,186.1,122.6z M179.1,121.5h5.5
				c-0.2-1.4-1.2-2.4-2.7-2.4C180.4,119,179.3,120,179.1,121.5z"/>
			<path class="st1" d="M187.3,125.4l0.6-1.2c0.7,0.5,1.9,0.9,3,0.9c1.4,0,2-0.4,2-1.2c0-1.9-5.4-0.3-5.4-3.7c0-1.5,1.4-2.6,3.6-2.6
				c1.1,0,2.4,0.3,3.1,0.8l-0.7,1.2c-0.8-0.5-1.6-0.7-2.5-0.7c-1.4,0-2,0.5-2,1.2c0,2,5.4,0.4,5.4,3.7c0,1.5-1.4,2.5-3.7,2.5
				C189.4,126.4,188,126,187.3,125.4z"/>
			<path class="st1" d="M195.5,125.4l0.6-1.2c0.7,0.5,1.9,0.9,3,0.9c1.4,0,2-0.4,2-1.2c0-1.9-5.4-0.3-5.4-3.7c0-1.5,1.4-2.6,3.6-2.6
				c1.1,0,2.4,0.3,3.1,0.8l-0.7,1.2c-0.8-0.5-1.6-0.7-2.5-0.7c-1.4,0-2,0.5-2,1.2c0,2,5.4,0.4,5.4,3.7c0,1.5-1.4,2.5-3.7,2.5
				C197.6,126.4,196.2,126,195.5,125.4z"/>
			<path class="st1" d="M219,121.4v4.9h-1.5v-4.7c0-1.7-0.8-2.5-2.2-2.5c-1.5,0-2.6,1-2.6,2.8v4.4h-1.5v-4.7c0-1.7-0.8-2.5-2.2-2.5
				c-1.5,0-2.6,1-2.6,2.8v4.4h-1.5v-8.5h1.5v1.3c0.6-0.9,1.7-1.4,2.9-1.4c1.3,0,2.4,0.5,3,1.6c0.6-1,1.8-1.6,3.3-1.6
				C217.6,117.7,219,118.9,219,121.4z"/>
			<path class="st1" d="M229.7,122.6h-6.9c0.2,1.5,1.4,2.5,3.1,2.5c1,0,1.8-0.3,2.5-1l0.9,1c-0.8,0.9-1.9,1.4-3.4,1.4
				c-2.8,0-4.6-1.8-4.6-4.4c0-2.5,1.8-4.3,4.3-4.3c2.5,0,4.2,1.8,4.2,4.4C229.8,122.3,229.8,122.5,229.7,122.6z M222.8,121.5h5.5
				c-0.2-1.4-1.2-2.4-2.7-2.4C224.1,119,223,120,222.8,121.5z"/>
			<path class="st1" d="M240.2,121.4v4.9h-1.5v-4.7c0-1.7-0.8-2.5-2.3-2.5c-1.6,0-2.7,1-2.7,2.8v4.4h-1.5v-8.5h1.5v1.3
				c0.6-0.9,1.7-1.4,3.1-1.4C238.7,117.7,240.2,118.9,240.2,121.4z"/>
			<path class="st1" d="M248,125.9c-0.5,0.4-1.2,0.6-1.9,0.6c-1.7,0-2.7-0.9-2.7-2.7v-4.7H242v-1.3h1.4V116h1.5v1.9h2.4v1.3H245v4.6
				c0,0.9,0.5,1.4,1.3,1.4c0.5,0,0.9-0.1,1.2-0.4L248,125.9z"/>
			<path class="st8" d="M253.1,125.5c0-3.1,1.1-6.4,2.8-8.5h0.6c-1.7,2.1-2.9,5.5-2.9,8.5c0,1.1,0.2,2.1,0.5,3.2h-0.6
				C253.3,127.8,253.1,126.6,253.1,125.5z"/>
			<path class="st8" d="M261.1,119.8l-0.1,0.6c-0.1,0-0.1,0-0.2,0c-1.5,0-2.5,0.9-2.8,2.6l-0.7,3.4h-0.6l1.3-6.5h0.6l-0.3,1.4
				C258.9,120.3,259.8,119.8,261.1,119.8z"/>
			<path class="st8" d="M262.1,123.2c0,0.1,0,0.3,0,0.4c0,1.4,0.8,2.2,2.4,2.2c0.9,0,1.7-0.3,2.2-0.9l0.3,0.4c-0.6,0.6-1.5,1-2.6,1
				c-1.9,0-3-1-3-2.7c0-2.2,1.5-3.9,3.6-3.9c1.7,0,2.8,1,2.8,2.7c0,0.2,0,0.5-0.1,0.7H262.1z M262.2,122.7h5c0-0.1,0-0.2,0-0.3
				c0-1.4-0.9-2.1-2.2-2.1C263.6,120.3,262.5,121.3,262.2,122.7z"/>
			<path class="st8" d="M276.3,119.8l-1.8,9h-0.6l0.7-3.7c-0.6,0.8-1.6,1.3-2.7,1.3c-1.7,0-2.8-1-2.8-2.7c0-2.3,1.6-3.9,3.7-3.9
				c1.4,0,2.3,0.6,2.6,1.7l0.3-1.7H276.3z M275.1,122.5c0-1.4-0.9-2.2-2.3-2.2c-1.8,0-3.1,1.4-3.1,3.3c0,1.4,0.9,2.2,2.3,2.2
				C273.8,125.8,275.1,124.4,275.1,122.5z"/>
			<path class="st8" d="M284.8,119.8l-1.3,6.5h-0.6l0.3-1.2c-0.6,0.9-1.6,1.3-2.7,1.3c-1.5,0-2.3-0.8-2.3-2.1c0-0.2,0-0.5,0.1-0.7
				l0.8-3.8h0.6l-0.8,3.8c-0.1,0.2-0.1,0.4-0.1,0.6c0,1,0.6,1.6,1.8,1.6c1.5,0,2.5-0.8,2.8-2.5l0.7-3.6H284.8z"/>
			<path class="st8" d="M287.6,119.8h0.6l-1.3,6.5h-0.6L287.6,119.8z M287.8,117.8c0-0.3,0.2-0.6,0.6-0.6c0.3,0,0.5,0.2,0.5,0.5
				c0,0.3-0.2,0.6-0.6,0.6C288,118.2,287.8,118,287.8,117.8z"/>
			<path class="st8" d="M294.1,119.8l-0.1,0.6c-0.1,0-0.1,0-0.2,0c-1.5,0-2.5,0.9-2.8,2.6l-0.7,3.4h-0.6l1.3-6.5h0.6l-0.3,1.4
				C291.9,120.3,292.7,119.8,294.1,119.8z"/>
			<path class="st8" d="M295.1,123.2c0,0.1,0,0.3,0,0.4c0,1.4,0.8,2.2,2.4,2.2c0.9,0,1.7-0.3,2.2-0.9l0.3,0.4c-0.6,0.6-1.5,1-2.6,1
				c-1.9,0-3-1-3-2.7c0-2.2,1.5-3.9,3.6-3.9c1.7,0,2.8,1,2.8,2.7c0,0.2,0,0.5-0.1,0.7H295.1z M295.1,122.7h5c0-0.1,0-0.2,0-0.3
				c0-1.4-0.9-2.1-2.2-2.1C296.5,120.3,295.5,121.3,295.1,122.7z"/>
			<path class="st8" d="M309.8,117.1l-1.9,9.3h-0.6l0.2-1.3c-0.6,0.8-1.6,1.3-2.8,1.3c-1.7,0-2.8-1-2.8-2.7c0-2.3,1.6-3.9,3.7-3.9
				c1.4,0,2.3,0.6,2.6,1.7l0.9-4.4H309.8z M308,122.5c0-1.4-0.9-2.2-2.3-2.2c-1.8,0-3.1,1.4-3.1,3.3c0,1.4,0.9,2.2,2.3,2.2
				C306.7,125.8,308,124.4,308,122.5z"/>
			<path class="st8" d="M313.1,120.3c0-1.1-0.2-2.1-0.5-3.2h0.6c0.3,0.9,0.5,2.1,0.5,3.2c0,3.1-1.1,6.4-2.8,8.5h-0.6
				C311.9,126.6,313.1,123.3,313.1,120.3z"/>
		</g>
	</g>
	<rect x="71.7" y="152.6" class="st1" width="0.8" height="64.1"/>
	<g>
		<g>
			<circle class="st1" cx="70.9" cy="153.5" r="10.8"/>
		</g>
		<g>
			<path class="st4" d="M73.2,150.5c-0.3,0-0.6-0.3-0.6-0.6v-3.6h-5.5c-0.8,0-1.4,0.6-1.4,1.4v11.3c0,0.8,0.6,1.4,1.4,1.4h8.2
				c0.8,0,1.4-0.6,1.4-1.4v-8.6H73.2z"/>
		</g>
		<path class="st5" d="M73.2,150.5h3.6l-4.1-4.1v3.6C72.7,150.3,72.9,150.5,73.2,150.5z"/>
		<polygon class="st2" points="76.8,153.5 76.8,150.6 73.2,150.6 		"/>
	</g>
	<g>
		<g id="g56755_2_" transform="matrix(14,0,0,14,49637.042,519374.88)">
			<path id="path56757_2_" class="st13" d="M-3539.5-37081.6c0,0.4-0.4,0.8-0.8,0.8l0,0c-0.5,0-0.8-0.4-0.8-0.8l0,0
				c0-0.5,0.4-0.8,0.8-0.8l0,0C-3539.9-37082.4-3539.5-37082-3539.5-37081.6L-3539.5-37081.6z"/>
		</g>
		<path id="path53460_2_" class="st14" d="M77.2,226.7c-3.3,1.6-5,4.8-6.6,7.8l-2.2-2.2c-1.1,0.8-2.3,1.5-3.4,2.1l9.2,9.2
			c5.1-1.2,8.9-5.6,9.2-10.8L77.2,226.7z"/>
		<path id="path38606_2_" class="st4" d="M68.4,232.3c0.7,0.9,1.2,2,1.7,3.2c1.7-3.3,3.4-7.1,7.1-8.8c-0.3,1.5-0.6,3.3-0.1,4.9
			c-3.1,1.5-5,4.3-6.9,7.3c-1.9-2.6-3.4-3.4-5.2-4.3C66.1,233.8,67.3,233.1,68.4,232.3L68.4,232.3z"/>
	</g>
</g>
</svg>
