<?xml version="1.0" encoding="utf-8"?>
<!-- Generator: Adobe Illustrator 24.2.3, SVG Export Plug-In . SVG Version: 6.00 Build 0)  -->
<svg version="1.1" xmlns="http://www.w3.org/2000/svg" xmlns:xlink="http://www.w3.org/1999/xlink" x="0px" y="0px"
	 viewBox="0 0 450 350" style="enable-background:new 0 0 450 350;" xml:space="preserve">
<style type="text/css">
	.st0{opacity:0.46;fill:#FFFFFF;}
	.st1{fill:#0A90B7;}
	.st2{fill:#F2F2F2;}
	.st3{fill:#FFFFFF;}
	.st4{fill:#A6D7E5;}
	.st5{opacity:0.55;}
	.st6{fill:#757575;}
	.st7{fill:none;stroke:#FFFFFF;stroke-width:2;stroke-linecap:round;}
	.st8{fill:none;stroke:#0A90B7;stroke-width:0.75;stroke-miterlimit:10;}
	.st9{opacity:0.46;fill:#209ABD;}
	.st10{opacity:0.6;fill:#0A90B7;}
	.st11{fill:#C71F25;}
	.st12{opacity:0.1;enable-background:new    ;}
	.st13{opacity:0.55;fill:#F2F2F2;}
	.st14{fill:#D8D8D8;}
	.st15{fill:#A00A0F;}
	.st16{fill:#1294C2;}
	.st17{font-family:'Montserrat-SemiBold';}
	.st18{font-size:17.1564px;}
	.st19{fill:none;}
	.st20{font-family:'Montserrat-Medium';}
	.st21{font-size:20.7053px;}
	.st22{fill:#444444;}
	.st23{font-family:'Muli-Light';}
	.st24{font-size:18.4047px;}
	.st25{letter-spacing:29;}
</style>
<g id="Layer_6">
</g>
<g id="Shapes">
</g>
<g id="background">
</g>
<g id="text">
</g>
<g id="Graphics">
</g>
<g id="Layer_5">
	<rect x="14.1" class="st0" width="421.9" height="350"/>
	<rect x="26.7" y="13.1" class="st2" width="54.2" height="44.4"/>
	<g>
		<polygon class="st1" points="84.4,16.3 84.4,54.3 365.9,54.3 365.9,52.7 365.9,49.1 377.4,56 365.9,62.9 365.9,57.5 81.2,57.5 
			81.2,13.1 103.3,13.1 412.4,13.1 422.1,35.3 412.4,57.5 384.7,57.5 384.7,54.3 410,54.3 410.5,53.4 417.7,36 418,35.3 417.7,34.7 
			410.5,17.2 410,16.3 		"/>
	</g>
	<text transform="matrix(1 0 0 1 99.5232 41.4257)" class="st1 st17 st18">Continuous Monitoring</text>
	<g>
		<path class="st3" d="M44.5,47.1c-2.7,0-5-1.1-6.7-3.2c-1.7-2.2-2.6-5.1-2.6-8.6c0-3.5,0.9-6.4,2.6-8.6c1.7-2.2,4-3.3,6.7-3.3
			c2.7,0,5,1.1,6.7,3.3c1.7,2.2,2.6,5.1,2.6,8.6c0,3.5-0.9,6.4-2.6,8.6C49.5,46,47.2,47.1,44.5,47.1L44.5,47.1z M44.5,28.6
			c-0.7,0-1.2,0.4-1.5,1.2c-0.3,0.7-0.6,2.3-0.6,5.4c0,3.2,0.3,4.7,0.6,5.4c0.3,0.8,0.8,1.2,1.5,1.2c0.7,0,1.2-0.4,1.6-1.2
			c0.3-0.7,0.6-2.2,0.6-5.4c0-3.2-0.3-4.7-0.6-5.4C45.7,29,45.3,28.6,44.5,28.6L44.5,28.6z M62.2,47.1c-2.6,0-4.6-0.6-6.2-1.7
			c-1.7-1.2-2.6-2.9-2.6-5c0-1.4,0.4-2.6,1.2-3.4c0.8-0.9,1.8-1.3,3-1.3c1,0,1.9,0.4,2.6,1.1c0.7,0.7,1.1,1.7,1.1,2.9
			c0,0.9-0.3,1.7-0.8,2.3c0.2,0,0.5,0,0.7,0c1.1,0,1.9-0.3,2.5-0.8c0.5-0.4,0.7-1,0.7-1.9c0-0.9-0.3-1.2-0.6-1.4
			c-0.4-0.3-1.1-0.6-2.7-0.6c-0.5,0-0.9-0.5-0.9-1.1v-2.6c-0.6,0.5-1.4,0.8-2.3,0.8c-1.1,0-2-0.4-2.7-1.1c-0.7-0.8-1.1-1.8-1.1-3.1
			c0-2.1,0.9-3.8,2.5-5c1.5-1.1,3.5-1.7,6-1.7c2.8,0,4.9,0.5,6.4,1.6c1.7,1.1,2.6,2.9,2.6,5c0,1.5-0.5,2.7-1.4,3.7
			c-0.2,0.2-0.5,0.5-0.7,0.7c0.5,0.3,1,0.7,1.4,1.1c1,1.1,1.5,2.4,1.5,4c0,2.5-1,4.5-2.8,5.8C67.9,46.5,65.5,47.1,62.2,47.1
			L62.2,47.1z M60.9,28.4c0.4,0.6,0.7,1.3,0.7,2.1c0,0.6-0.1,1.2-0.3,1.6c1.3-0.1,2-0.4,2.3-0.6c0.4-0.3,0.5-0.6,0.5-1.2
			c0-0.6-0.2-1-0.6-1.3c-0.5-0.4-1.3-0.6-2.2-0.6C61.2,28.4,61,28.4,60.9,28.4L60.9,28.4z"/>
		<path class="st1" d="M36.1,35.3c0-3.2,0.8-5.8,2.3-7.8c1.5-2,3.6-2.9,6.1-2.9c2.5,0,4.6,1,6.1,2.9c1.5,2,2.3,4.5,2.3,7.8
			c0,3.2-0.8,5.8-2.3,7.8C49.1,45,47,46,44.5,46c-2.5,0-4.6-1-6.1-2.9C36.9,41.1,36.1,38.5,36.1,35.3z M41.5,35.3
			c0,2.7,0.2,4.7,0.7,5.9c0.5,1.2,1.2,1.8,2.3,1.8c1.1,0,1.8-0.6,2.3-1.8c0.5-1.2,0.7-3.2,0.7-5.9c0-2.8-0.2-4.7-0.7-6
			c-0.5-1.2-1.2-1.8-2.3-1.8c-1.1,0-1.8,0.6-2.3,1.8C41.7,30.5,41.5,32.5,41.5,35.3z M61.3,36.1v-2.8c1.3-0.1,2.2-0.3,2.9-0.8
			c0.6-0.5,0.9-1.2,0.9-2.1c0-1-0.3-1.7-1-2.3c-0.7-0.6-1.6-0.8-2.8-0.8c-0.6,0-1.2,0.1-1.7,0.3c-0.5,0.2-1,0.5-1.4,0.9h0.3
			c0.7,0,1.2,0.2,1.6,0.6c0.4,0.4,0.6,0.9,0.6,1.6c0,0.8-0.2,1.4-0.7,1.9c-0.5,0.5-1.1,0.7-2,0.7c-0.9,0-1.6-0.3-2.1-0.8
			c-0.5-0.6-0.8-1.3-0.8-2.3c0-1.7,0.7-3,2-4c1.4-1,3.2-1.5,5.5-1.5c2.6,0,4.6,0.5,6,1.4c1.4,0.9,2.1,2.3,2.1,4
			c0,1.2-0.4,2.1-1.1,2.9c-0.7,0.8-1.7,1.3-2.9,1.5c1.6,0.4,2.8,1.1,3.6,1.9c0.8,0.9,1.2,1.9,1.2,3.2c0,2.1-0.8,3.7-2.4,4.8
			c-1.6,1.1-3.9,1.6-6.9,1.6c-2.4,0-4.3-0.5-5.7-1.5c-1.4-1-2.1-2.4-2.1-4c0-1.1,0.3-2,0.9-2.6c0.6-0.7,1.4-1,2.3-1
			c0.8,0,1.5,0.3,2,0.8c0.5,0.5,0.8,1.2,0.8,2c0,0.7-0.2,1.3-0.7,1.8c-0.5,0.4-1.1,0.7-1.9,0.7c0.4,0.4,0.9,0.7,1.5,0.8
			c0.6,0.2,1.2,0.3,1.9,0.3c1.3,0,2.3-0.3,3.1-1c0.7-0.6,1.1-1.6,1.1-2.8c0-1.1-0.3-1.9-1-2.4C63.8,36.4,62.7,36.1,61.3,36.1z"/>
		<path class="st4" d="M59.7,29.7l0.3-0.4c0.3,0.3,0.4,0.7,0.4,1.2c0,0.7-0.2,1.3-0.6,1.7c-0.4,0.4-1,0.7-1.8,0.7
			c-0.8,0-1.5-0.3-2-0.8l0.3-0.4c0.4,0.4,0.9,0.6,1.6,0.6c0.6,0,1.2-0.2,1.5-0.5c0.3-0.3,0.5-0.7,0.5-1.2C60,30.2,59.9,30,59.7,29.7
			z M70,30c0,0.9-0.3,1.6-0.8,2.3c-0.6,0.7-1.5,1.1-2.6,1.3C66.3,33.6,66,34,66,34.4c0,0.3,0.1,0.5,0.2,0.6l0.3-0.4
			c-0.1-0.1-0.1-0.1-0.1-0.2c0-0.1,0.1-0.3,0.2-0.3c1.2-0.2,2.1-0.7,2.8-1.4c0.7-0.7,1-1.6,1-2.7c0-1.2-0.3-2.1-1-2.9l-0.3,0.4
			C69.7,28.1,70,29,70,30z M64.8,36.2c-0.7-0.5-1.6-0.8-2.9-0.9l0,0l-0.5,0.6l0,0c1.4,0,2.4,0.3,3.1,0.8c0.2,0.1,0.3,0.3,0.4,0.4
			l0.3-0.4C65.2,36.5,65,36.3,64.8,36.2z M59.8,39.6c0,0.5-0.1,0.8-0.4,1.1c-0.3,0.3-0.8,0.5-1.4,0.5c-0.3,0-0.6,0.2-0.7,0.6
			c-0.1,0.3,0,0.6,0.2,0.8l0.3-0.4c0-0.1-0.1-0.2,0-0.3c0-0.1,0.1-0.2,0.2-0.2c0.7,0,1.3-0.2,1.7-0.6c0.4-0.4,0.6-0.9,0.6-1.5
			c0-0.6-0.2-1.1-0.6-1.6l-0.3,0.4C59.6,38.7,59.8,39.1,59.8,39.6z M70.4,36.8L70,37.2c0.5,0.6,0.8,1.4,0.8,2.3c0,1.8-0.6,3.1-2,4.1
			c-1.5,1-3.7,1.5-6.5,1.5c-2.3,0-4.1-0.5-5.3-1.4c-0.4-0.3-0.7-0.6-0.9-0.9l-0.3,0.4c0.3,0.3,0.6,0.7,1,0.9c1.3,1,3.2,1.5,5.6,1.5
			c3,0,5.2-0.5,6.8-1.6c1.5-1.1,2.2-2.5,2.2-4.5C71.3,38.4,71,37.5,70.4,36.8z M64.4,27.4c-0.8-0.7-1.9-1-3.1-1
			c-0.7,0-1.3,0.1-1.9,0.3c-0.6,0.2-1.1,0.6-1.6,1c-0.2,0.2-0.3,0.6-0.2,0.9c0,0.1,0.1,0.2,0.2,0.3l0.3-0.4c0,0,0-0.1-0.1-0.1
			c0-0.1,0-0.2,0.1-0.3c0.4-0.4,0.9-0.7,1.4-0.9c0.5-0.2,1.1-0.3,1.8-0.3c1.2,0,2.2,0.3,2.9,0.9c0.2,0.1,0.3,0.3,0.4,0.4l0.3-0.4
			C64.8,27.7,64.6,27.5,64.4,27.4z M42.5,42.3l-0.3,0.4c-0.2-0.3-0.5-0.7-0.6-1.1c-0.5-1.4-0.8-3.4-0.8-6.3c0-2.9,0.3-5,0.8-6.3
			c0.6-1.5,1.6-2.3,2.9-2.3c0.9,0,1.7,0.4,2.2,1.1l-0.3,0.4c-0.5-0.6-1.1-0.9-1.9-0.9c-1.1,0-2,0.7-2.5,2c-0.5,1.3-0.8,3.3-0.8,6.1
			c0,2.8,0.2,4.8,0.7,6.1C42.1,41.7,42.3,42.1,42.5,42.3z M50.5,27.8l-0.3,0.4c1.4,1.8,2,4.1,2,7.1c0,3-0.7,5.4-2.1,7.1
			c-1.4,1.8-3.3,2.7-5.7,2.7c-2.3,0-4.2-0.9-5.6-2.7v0l-0.3,0.4c0,0,0,0,0,0c1.5,1.9,3.5,2.8,5.9,2.8c2.5,0,4.5-1,6-2.9
			c1.5-1.9,2.3-4.4,2.3-7.5C52.7,32.2,52,29.7,50.5,27.8z"/>
	</g>
	<rect x="14.1" class="st9" width="421.9" height="350"/>
	<g>
		<polygon class="st1" points="14.1,312.4 0,294 14.1,294 		"/>
		<polygon class="st1" points="435.9,312.4 450,294 435.9,294 		"/>
		<rect x="14.1" y="284" class="st10" width="421.9" height="17.4"/>
	</g>
	<g>
		<rect y="94" class="st2" width="450" height="200.3"/>
		<g>
			<rect x="29" y="131.2" class="st19" width="287.9" height="23"/>
			<text transform="matrix(1 0 0 1 29.0349 148.8032)" class="st1 st20 st21">Post Authorization</text>
		</g>
		<g>
			<rect x="38.5" y="173.4" class="st19" width="371.1" height="78.3"/>
			<text transform="matrix(1 0 0 1 38.531 189.1142)"><tspan x="0" y="0" class="st22 st23 st24 st25">	</tspan><tspan x="34.5" y="0" class="st22 st23 st24">Monthly Continuous Monitoring </tspan><tspan x="34.5" y="23" class="st22 st23 st24">Deliverables</tspan><tspan x="0" y="57.5" class="st22 st23 st24 st25">	</tspan><tspan x="34.5" y="57.5" class="st22 st23 st24">Annual Assessment</tspan></text>
		</g>
		<line class="st8" x1="43.5" y1="179.3" x2="43.5" y2="232.1"/>
		<g>
			<g>
				<circle class="st1" cx="43" cy="182" r="13.9"/>
			</g>
			<g>
				<path class="st3" d="M45.9,178.2c-0.4,0-0.7-0.3-0.7-0.7v-4.6H38c-1,0-1.8,0.8-1.8,1.8v14.5c0,1,0.8,1.8,1.8,1.8h10.6
					c1,0,1.8-0.8,1.8-1.8v-11.1H45.9z"/>
			</g>
			<path class="st4" d="M45.8,178.2h4.6l-5.3-5.3v4.6C45.2,177.9,45.5,178.2,45.8,178.2z"/>
			<polygon class="st2" points="50.5,182 50.5,178.3 45.9,178.3 			"/>
		</g>
		<g>
			<g>
				<circle class="st1" cx="43" cy="240.5" r="13.9"/>
			</g>
			<g>
				<path class="st3" d="M45.9,236.7c-0.4,0-0.7-0.3-0.7-0.7v-4.6H38c-1,0-1.8,0.8-1.8,1.8v14.5c0,1,0.8,1.8,1.8,1.8h10.6
					c1,0,1.8-0.8,1.8-1.8v-11.1H45.9z"/>
			</g>
			<path class="st4" d="M45.8,236.7h4.6l-5.3-5.3v4.6C45.2,236.4,45.5,236.7,45.8,236.7z"/>
			<polygon class="st2" points="50.5,240.5 50.5,236.7 45.9,236.7 			"/>
		</g>
	</g>
</g>
</svg>
