<svg xmlns="http://www.w3.org/2000/svg" width="115.863" height="102.872" viewBox="0 0 115.863 102.872">
  <g id="Group_8233" data-name="Group 8233" transform="translate(-142 -1858)">
    <path id="Path_21666" data-name="Path 21666" d="M0,0H112.319V80.426L57.19,97.911,0,80.426Z" transform="translate(145.544 1862.961)" fill="#162e51" opacity="0.762"/>
    <path id="Path_21667" data-name="Path 21667" d="M0,0H112.319V80.426L57.19,97.911,0,80.426Z" transform="translate(142 1858)" fill="#f2f2f2"/>
    <g id="Group_8142" data-name="Group 8142" transform="translate(160.427 1874.729)">
      <path id="Path_21677" data-name="Path 21677" d="M400.964,882.8a17.43,17.43,0,0,1-14.42-7.182c-3.682-4.779-5.539-11.17-5.539-18.982,0-7.8,1.868-14.186,5.577-18.987a18.053,18.053,0,0,1,28.87-.019c3.686,4.8,5.556,11.189,5.556,19.006,0,7.782-1.885,14.174-5.588,18.963a17.475,17.475,0,0,1-14.456,7.2Zm.061-40.86c-1.581,0-2.613.842-3.323,2.675-.615,1.624-1.354,4.994-1.354,12.021s.736,10.408,1.341,12c.7,1.84,1.712,2.651,3.276,2.651,1.6,0,2.626-.831,3.338-2.677.62-1.591,1.345-4.964,1.345-11.975,0-7.054-.715-10.438-1.321-12.051-.7-1.825-1.71-2.645-3.3-2.645Zm50.022,40.86c1.119,0,2.021-1.17,2.021-2.634v-6.424c0-1.46-.9-2.639-2.021-2.639h-2.688c-2.714,0-2.863-1.393-2.863-2.842v-35.19c0-1.464-.9-2.643-2.026-2.643h-8.618a2.076,2.076,0,0,0-1.863,1.617,6.078,6.078,0,0,1-2.777,3.491A13.087,13.087,0,0,1,423.7,837a2.427,2.427,0,0,0-2.01,2.634v6.333a3.128,3.128,0,0,0,.568,1.883,1.831,1.831,0,0,0,1.438.784h5.916v20.619c0,.84-.06,1.857-2.872,1.857H423.7c-1.123,0-2.017,1.179-2.017,2.639v6.424c0,1.464.894,2.634,2.017,2.634Z" transform="translate(-381.006 -830.432)" fill="#fff"/>
      <path id="Path_21678" data-name="Path 21678" d="M422.689,878.816v-6.424h3.045c1.993,0,3.317-.248,3.932-.708.646-.482.961-1.747.961-3.788v-23.26H422.7v-6.359a14.712,14.712,0,0,0,7.331-1.693,8.459,8.459,0,0,0,3.807-4.863h8.618v35.19c0,2.5.259,4.031.79,4.608s1.9.872,4.1.872h2.688v6.424Zm-40.812-23.53q0-10.682,5.014-17.181a16.492,16.492,0,0,1,26.235-.02q4.978,6.484,4.984,17.2c0,7.117-1.671,12.822-5.01,17.153a16.529,16.529,0,0,1-26.248.019Q381.874,866.01,381.877,855.286Zm11.58,0q0,9.118,1.537,13.146c1.021,2.682,2.68,4.027,4.96,4.027q3.449,0,5.016-4.038,1.551-4.045,1.559-13.135c0-6.1-.514-10.483-1.533-13.184q-1.513-4.029-4.981-4.031c-2.3,0-3.964,1.356-5,4.053S393.457,849.219,393.457,855.286Z" transform="translate(-379.996 -829.079)" fill="#0a90b7"/>
      <path id="Path_21679" data-name="Path 21679" d="M440.078,871.62l-.652,1c-.916-1.015-1.332-2.9-1.332-6.126v-33.22l1.028-1.321V866.5C439.121,869.259,439.417,870.888,440.078,871.62Zm-12.295-29.4h-6.415l-1.008,1.334h7.424a.523.523,0,0,1,.356.186l.717-.922A1.376,1.376,0,0,0,427.783,842.223Zm17.9,31.735v2.459H421.364l-1.017,1.317h26.341v-5.1ZM391.732,868.3c-1.077-2.8-1.6-7.2-1.6-13.433s.531-10.634,1.615-13.446c1.118-2.924,2.954-4.4,5.422-4.4a4.989,4.989,0,0,1,4.124,2.056l.665-.881a5.855,5.855,0,0,0-4.789-2.436c-2.816,0-4.99,1.76-6.264,5.087-1.147,3.008-1.714,7.579-1.714,14.02s.555,11.03,1.712,14.018a9.785,9.785,0,0,0,1.352,2.5l.661-.9A9.182,9.182,0,0,1,391.732,868.3Zm18.375-29.969-.663.9c2.917,3.926,4.4,9.168,4.4,15.633,0,6.558-1.542,11.865-4.582,15.806a15.366,15.366,0,0,1-24.275.022v-.011l-.661.877c.009.011.009.03.011.03a16.122,16.122,0,0,0,25.583-.03c3.232-4.163,4.867-9.792,4.867-16.693C414.791,848.064,413.217,842.5,410.107,838.336Z" transform="translate(-377.153 -828.665)" fill="#fff" opacity="0.502"/>
    </g>
  </g>
</svg>
