<?xml version="1.0" encoding="utf-8"?>
<!-- Generator: Adobe Illustrator 24.2.3, SVG Export Plug-In . SVG Version: 6.00 Build 0)  -->
<svg version="1.1" xmlns="http://www.w3.org/2000/svg" xmlns:xlink="http://www.w3.org/1999/xlink" x="0px" y="0px"
	 viewBox="0 0 450 350" style="enable-background:new 0 0 450 350;" xml:space="preserve">
<style type="text/css">
	.st0{opacity:0.46;fill:#FFFFFF;}
	.st1{fill:#0A90B7;}
	.st2{fill:#F2F2F2;}
	.st3{fill:#FFFFFF;}
	.st4{fill:#A6D7E5;}
	.st5{opacity:0.55;}
	.st6{fill:#757575;}
	.st7{fill:none;stroke:#FFFFFF;stroke-width:2;stroke-linecap:round;}
	.st8{fill:none;stroke:#0A90B7;stroke-width:0.75;stroke-miterlimit:10;}
	.st9{font-family:'Montserrat-SemiBold';}
	.st10{font-size:17.5003px;}
	.st11{fill:none;}
	.st12{font-family:'Montserrat-Medium';}
	.st13{font-size:15.8769px;}
	.st14{fill:#444444;}
	.st15{font-family:'Muli-Light';}
	.st16{font-size:14.1128px;}
	.st17{letter-spacing:22;}
	.st18{fill:#0A90B7;stroke:#0A90B7;stroke-width:0.25;stroke-miterlimit:10;}
	.st19{font-family:'Muli-Black';}
	.st20{letter-spacing:15;}
	.st21{opacity:0.46;fill:#209ABD;}
	.st22{opacity:0.6;fill:#0A90B7;}
	.st23{font-size:17.1654px;}
	.st24{letter-spacing:18;}
	.st25{letter-spacing:27;}
	.st26{font-size:19.311px;}
	.st27{font-family:'Montserrat-LightItalic';}
	.st28{font-size:15.0197px;}
	.st29{fill:#C71F25;}
	.st30{opacity:0.1;enable-background:new    ;}
	.st31{opacity:0.55;fill:#F2F2F2;}
	.st32{fill:#D8D8D8;}
	.st33{fill:#A00A0F;}
	.st34{fill:#1294C2;}
</style>
<g id="Layer_6">
</g>
<g id="Shapes">
</g>
<g id="background">
</g>
<g id="text">
</g>
<g id="Graphics">
</g>
<g id="Layer_5">
	<rect x="14.1" class="st0" width="421.9" height="350"/>
	<path id="Path_7616_1_" class="st1" d="M412.8,58.4H82.5V13.2h330.3l9.9,22.6L412.8,58.4z"/>
	<rect x="27.2" y="13.2" class="st2" width="55.3" height="45.3"/>
	<text transform="matrix(1 0 0 1 97.8501 42.0844)" class="st3 st9 st10">Preparation</text>
	<g>
		<path class="st3" d="M47.6,47.2c-2.6,0-4.7-1.1-6.3-3.1c-1.6-2.1-2.4-4.9-2.4-8.3c0-3.4,0.8-6.2,2.4-8.3c1.6-2.1,3.7-3.1,6.3-3.1
			c2.6,0,4.7,1.1,6.3,3.1c1.6,2.1,2.4,4.9,2.4,8.3c0,3.4-0.8,6.2-2.4,8.3C52.3,46.2,50.2,47.2,47.6,47.2L47.6,47.2z M47.7,29.4
			c-0.7,0-1.1,0.4-1.4,1.2c-0.3,0.7-0.6,2.2-0.6,5.2c0,3.1,0.3,4.5,0.6,5.2c0.3,0.8,0.7,1.2,1.4,1.2c0.7,0,1.1-0.4,1.5-1.2
			c0.3-0.7,0.6-2.2,0.6-5.2c0-3.1-0.3-4.6-0.6-5.3C48.8,29.7,48.4,29.4,47.7,29.4L47.7,29.4z M69.5,47.2c0.5,0,0.9-0.5,0.9-1.1v-2.8
			c0-0.6-0.4-1.2-0.9-1.2h-1.2c-1.2,0-1.2-0.6-1.2-1.2V25.5c0-0.6-0.4-1.2-0.9-1.2h-3.8c-0.4,0-0.7,0.3-0.8,0.7
			c-0.2,0.7-0.6,1.2-1.2,1.5c-0.7,0.4-1.6,0.6-2.8,0.6c-0.5,0-0.9,0.5-0.9,1.1v2.8c0,0.3,0.1,0.6,0.2,0.8c0.2,0.2,0.4,0.3,0.6,0.3
			h2.6v8.3v0.6c0,0.4,0,0.8-1.3,0.8h-1.3c-0.5,0-0.9,0.5-0.9,1.2v2.8c0,0.6,0.4,1.1,0.9,1.1H69.5L69.5,47.2z"/>
		<path class="st1" d="M57.6,46.1v-2.8h1.3c0.9,0,1.4-0.1,1.7-0.3c0.3-0.2,0.4-0.8,0.4-1.7v-0.6v-9.5h-3.5v-2.8
			c1.3,0,2.4-0.3,3.2-0.7c0.8-0.5,1.4-1.2,1.7-2.1h3.8v15.3c0,1.1,0.1,1.8,0.3,2c0.2,0.3,0.8,0.4,1.8,0.4h1.2v2.8H57.6z M39.8,35.8
			c0-3.1,0.7-5.6,2.2-7.5c1.5-1.9,3.4-2.8,5.7-2.8c2.4,0,4.3,0.9,5.7,2.8c1.4,1.9,2.2,4.4,2.2,7.5c0,3.1-0.7,5.6-2.2,7.5
			c-1.5,1.9-3.4,2.8-5.7,2.8c-2.4,0-4.3-0.9-5.7-2.8C40.5,41.4,39.8,38.9,39.8,35.8z M44.8,35.8c0,2.7,0.2,4.6,0.7,5.7
			c0.4,1.2,1.2,1.8,2.2,1.8c1,0,1.7-0.6,2.2-1.8c0.5-1.2,0.7-3.1,0.7-5.7c0-2.7-0.2-4.6-0.7-5.7c-0.4-1.2-1.2-1.8-2.2-1.8
			c-1,0-1.7,0.6-2.2,1.8C45,31.2,44.8,33.1,44.8,35.8z"/>
		<path class="st4" d="M66.4,43.1l-0.3,0.4c-0.4-0.4-0.6-1.3-0.6-2.7V26.4l0.4-0.6v15.1C66,42.1,66.1,42.8,66.4,43.1z M61,30.3h-2.8
			l-0.4,0.6H61c0.1,0,0.1,0,0.2,0.1l0.3-0.4C61.4,30.4,61.2,30.3,61,30.3z M68.8,44.1v1.1H58.2l-0.4,0.6h11.5v-2.2L68.8,44.1z
			 M45.3,41.7c-0.5-1.2-0.7-3.1-0.7-5.9c0-2.7,0.2-4.6,0.7-5.9c0.5-1.3,1.3-1.9,2.4-1.9c0.7,0,1.3,0.3,1.8,0.9l0.3-0.4
			c-0.5-0.7-1.2-1.1-2.1-1.1c-1.2,0-2.2,0.8-2.7,2.2c-0.5,1.3-0.7,3.3-0.7,6.1c0,2.8,0.2,4.8,0.7,6.1c0.2,0.4,0.4,0.8,0.6,1.1
			l0.3-0.4C45.6,42.3,45.4,42,45.3,41.7z M53.3,28.6L53,29c1.3,1.7,1.9,4,1.9,6.8c0,2.9-0.7,5.2-2,6.9c-1.3,1.7-3.1,2.6-5.3,2.6
			c-2.2,0-4-0.9-5.3-2.6v0l-0.3,0.4c0,0,0,0,0,0c1.4,1.8,3.3,2.7,5.6,2.7c2.3,0,4.2-0.9,5.6-2.8c1.4-1.8,2.1-4.3,2.1-7.3
			C55.3,32.8,54.7,30.4,53.3,28.6z"/>
	</g>
	<g class="st5">
		<path id="Path_1554_4_" class="st6" d="M235.8,201c0,5.9-4.8,10.7-10.7,10.7s-10.7-4.8-10.7-10.7s4.8-10.7,10.7-10.7
			S235.8,195.1,235.8,201z"/>
		<g id="Group_1434_4_" transform="translate(4.574 4.222)">
			<g id="arrow_4_" transform="translate(4.574 0)">
				<path id="arrow-2_4_" class="st3" d="M216.1,203.2c-0.3,0-0.6-0.1-0.8-0.3l-4.7-4.5c-0.4-0.4-0.5-1.1-0.1-1.5c0,0,0,0,0.1-0.1
					c0.4-0.5,1.2-0.5,1.6,0c0,0,0,0,0,0l3.8,3.7l3.8-3.7c0.4-0.5,1.2-0.5,1.6,0c0,0,0,0,0,0c0.4,0.4,0.5,1.1,0.1,1.5
					c0,0,0,0-0.1,0.1l-4.7,4.5C216.7,203.1,216.4,203.2,216.1,203.2z"/>
			</g>
			<path id="Path_1968_4_" class="st7" d="M220.5,200.8v-9.5"/>
		</g>
	</g>
	<g class="st5">
		<rect x="40.1" y="76.6" class="st2" width="370" height="105.5"/>
		<g>
			<rect x="61.6" y="96.6" class="st11" width="192.1" height="34.9"/>
			<text transform="matrix(1 0 0 1 61.5718 110.1425)" class="st1 st12 st13">FedRAMP Connect</text>
		</g>
		<g>
			<rect x="70.4" y="124.5" class="st11" width="269.7" height="42.6"/>
			<text transform="matrix(1 0 0 1 70.3735 136.585)"><tspan x="0" y="0" class="st14 st15 st16 st17">	</tspan><tspan x="26.5" y="0" class="st14 st15 st16">FedRAMP Connect Business Case</tspan><tspan x="0" y="26.5" class="st18 st19 st16">•</tspan><tspan x="7.5" y="26.5" class="st14 st15 st16 st20">	</tspan><tspan x="26.5" y="26.5" class="st14 st15 st16">Prioritized to work with JAB</tspan></text>
		</g>
		<line class="st8" x1="74.2" y1="126.2" x2="74.2" y2="156.6"/>
		<g>
			<g>
				<circle class="st1" cx="74.2" cy="129.7" r="10.7"/>
			</g>
			<g>
				<path class="st3" d="M76.4,126.8c-0.3,0-0.6-0.3-0.6-0.6v-3.5h-5.5c-0.8,0-1.4,0.6-1.4,1.4v11.1c0,0.8,0.6,1.4,1.4,1.4h8.1
					c0.8,0,1.4-0.6,1.4-1.4v-8.5H76.4z"/>
			</g>
			<path class="st4" d="M76.4,126.8H80l-4.1-4.1v3.5C75.9,126.5,76.1,126.7,76.4,126.8z"/>
			<polygon class="st2" points="80,129.7 80,126.8 76.4,126.8 			"/>
		</g>
	</g>
	<rect x="14.1" class="st21" width="421.9" height="350"/>
	<g>
		<polygon class="st1" points="14.1,338.3 0,319.9 14.1,319.9 		"/>
		<polygon class="st1" points="435.9,338.3 450,319.9 435.9,319.9 		"/>
		<rect x="14.1" y="309.9" class="st22" width="421.9" height="17.4"/>
	</g>
	<g>
		<rect x="0" y="115.1" class="st3" width="450" height="205.3"/>
		<g>
			<rect x="36.9" y="175.9" class="st11" width="388.4" height="115.9"/>
			<text transform="matrix(1 0 0 1 36.8789 190.6422)"><tspan x="0" y="0" class="st18 st19 st23">•</tspan><tspan x="9.2" y="0" class="st14 st15 st23 st24">	</tspan><tspan x="32.2" y="0" class="st14 st15 st23">RAR Development</tspan><tspan x="0" y="32.2" class="st18 st19 st23">•</tspan><tspan x="9.2" y="32.2" class="st14 st15 st23 st24">	</tspan><tspan x="32.2" y="32.2" class="st14 st15 st23">FedRAMP PMO Review of RAR</tspan><tspan x="0" y="64.4" class="st18 st19 st23">•</tspan><tspan x="9.2" y="64.4" class="st14 st15 st23 st24">	</tspan><tspan x="32.2" y="64.4" class="st14 st15 st23">Remediation (if needed)</tspan><tspan x="0" y="96.6" class="st14 st15 st23 st25">	</tspan><tspan x="32.2" y="96.6" class="st14 st15 st23">FedRAMP Marketplace  Designation - Ready</tspan></text>
		</g>
		<g>
			<rect x="26.1" y="145.9" class="st11" width="328.1" height="21.5"/>
			<text transform="matrix(1 0 0 1 26.1025 162.356)"><tspan x="0" y="0" class="st1 st12 st26">Readiness Assessment</tspan><tspan x="227.4" y="0" class="st14 st27 st28"> (required)</tspan></text>
		</g>
		<line class="st8" x1="41.5" y1="183.1" x2="41.5" y2="260.1"/>
		<g>
			<g id="g56755_2_" transform="matrix(14,0,0,14,49637.042,519374.88)">
				<path id="path56757_2_" class="st29" d="M-3541.6-37078.2c0,0.5-0.4,0.9-0.9,0.9l0,0c-0.5,0-0.9-0.4-0.9-0.9l0,0
					c0-0.5,0.4-0.9,0.9-0.9l0,0C-3542-37079.1-3541.6-37078.7-3541.6-37078.2L-3541.6-37078.2z"/>
			</g>
			<path id="path53460_2_" class="st30" d="M47.6,273.7c-3.6,1.8-5.5,5.3-7.2,8.6l-2.4-2.4c-1.2,0.9-2.5,1.7-3.8,2.4l10.2,10.2
				c5.6-1.3,9.8-6.1,10.1-11.9L47.6,273.7z"/>
			<path id="path38606_2_" class="st3" d="M37.9,279.9c0.7,0.9,1.3,2.2,1.9,3.5c1.9-3.6,3.8-7.8,7.8-9.7c-0.4,1.7-0.6,3.7-0.1,5.3
				c-3.4,1.7-5.5,4.8-7.6,8c-2.1-2.8-3.8-3.8-5.8-4.8C35.4,281.6,36.7,280.8,37.9,279.9L37.9,279.9z"/>
		</g>
	</g>
</g>
</svg>
