<svg xmlns="http://www.w3.org/2000/svg" width="69" height="69" viewBox="0 0 69 69">
  <g id="Group_8562" data-name="Group 8562" transform="translate(-275 -6363)">
    <g id="Group_8219" data-name="Group 8219" transform="translate(275 6363)">
      <circle id="Ellipse_1293" data-name="Ellipse 1293" cx="34.5" cy="34.5" r="34.5" transform="translate(0)" fill="#1a4480"/>
    </g>
    <g id="Group_8561" data-name="Group 8561" transform="translate(295.963 6378.904)">
      <g id="Group_5026" data-name="Group 5026" transform="translate(0)">
        <g id="Group_1708" data-name="Group 1708">
          <g id="Group_1707" data-name="Group 1707">
            <g id="Group_1706" data-name="Group 1706">
              <g id="Group_1697" data-name="Group 1697" transform="translate(20.674)">
                <g id="Group_1696" data-name="Group 1696">
                  <g id="Group_1695" data-name="Group 1695">
                    <g id="Group_1694" data-name="Group 1694">
                      <g id="Group_1693" data-name="Group 1693">
                        <g id="Group_1692" data-name="Group 1692">
                          <g id="Group_1691" data-name="Group 1691">
                            <path id="Path_1573" data-name="Path 1573" d="M28.337,0V6.76H35.27Z" transform="translate(-28.337)" fill="#e5e5e5"/>
                          </g>
                        </g>
                      </g>
                    </g>
                  </g>
                </g>
              </g>
              <g id="Group_1705" data-name="Group 1705">
                <g id="Group_1704" data-name="Group 1704">
                  <g id="Group_1703" data-name="Group 1703">
                    <g id="Group_1702" data-name="Group 1702">
                      <g id="Group_1701" data-name="Group 1701">
                        <g id="Group_1700" data-name="Group 1700">
                          <g id="Group_1699" data-name="Group 1699">
                            <g id="Group_1698" data-name="Group 1698">
                              <path id="Path_1574" data-name="Path 1574" d="M23.733,6.76V0H3.059V34.809H30.666V6.76H23.733Z" transform="translate(-3.059)" fill="#fff"/>
                            </g>
                          </g>
                        </g>
                      </g>
                    </g>
                  </g>
                </g>
              </g>
            </g>
          </g>
        </g>
      </g>
      <path id="Path_13365" data-name="Path 13365" d="M532.077,522.227c-.064,0-.129-.008-.194-.008s-.132,0-.2.008a9.415,9.415,0,1,0,0,18.83c.067,0,.134.008.2.008s.132,0,.2-.008a9.862,9.862,0,0,0,2.457-.359l-.163-.557-.086-.291-.191-.648a3.42,3.42,0,0,1-1.761.941v-3.414q.526.006,1.043.025l-.262-.892q-.388-.012-.781-.016v-3.611h4.3c-.019.474-.059.938-.118,1.387l.854.443a15.593,15.593,0,0,0,.171-1.831h3.074a8.3,8.3,0,0,1-.831,3.084l.8.416a9.165,9.165,0,0,0,.96-4.091A9.548,9.548,0,0,0,532.077,522.227Zm6.338,3.735c-.58.121-1.2.225-1.858.31a9.969,9.969,0,0,0-.589-1.2,7.443,7.443,0,0,0-1.081-1.451A8.807,8.807,0,0,1,538.415,525.962Zm-10.59,1.272c1.141.122,2.359.193,3.606.207v3.91h-4.31A13.567,13.567,0,0,1,527.825,527.234Zm3.606-4.09v3.413c-1.129-.013-2.23-.073-3.269-.176C528.953,524.6,530.124,523.376,531.431,523.144Zm.906,0c1.335.227,2.511,1.444,3.3,3.236-1.047.1-2.157.166-3.3.178Zm-3.457.481a7.452,7.452,0,0,0-1.081,1.451,10.107,10.107,0,0,0-.588,1.2c-.655-.085-1.277-.189-1.857-.31A8.8,8.8,0,0,1,528.88,523.623Zm-4.152,3.106c.668.155,1.4.286,2.17.392a14.567,14.567,0,0,0-.682,4.229h-3.082A8.346,8.346,0,0,1,524.727,526.729Zm1.5,5.5a14.439,14.439,0,0,0,.674,3.93c-.773.106-1.5.237-2.17.391a8.343,8.343,0,0,1-1.579-4.321Zm-.87,5.089c.58-.121,1.2-.225,1.857-.31a10.1,10.1,0,0,0,.588,1.2,7.443,7.443,0,0,0,1.081,1.45A8.805,8.805,0,0,1,525.353,537.323Zm6.077,2.818c-1.307-.232-2.477-1.458-3.269-3.237,1.039-.1,2.142-.163,3.269-.176Zm0-4.3c-1.245.014-2.463.085-3.605.207a13.457,13.457,0,0,1-.7-3.817h4.3Zm.906-4.494v-3.91c1.255-.014,2.48-.085,3.627-.208a13.778,13.778,0,0,1,.683,4.118Zm5.216,0a14.581,14.581,0,0,0-.681-4.229c.773-.106,1.5-.237,2.169-.392a8.345,8.345,0,0,1,1.6,4.621Zm2.85,5.45-2.223.631a.126.126,0,0,0-.074.212l0,.006,2,2.4a.2.2,0,0,1-.031.29l-.853.675a.214.214,0,0,1-.074.039.246.246,0,0,1-.059.008.214.214,0,0,1-.165-.076l-1.986-2.386-.008-.01a.15.15,0,0,0-.113-.06.106.106,0,0,0-.032,0,.151.151,0,0,0-.089.077l-1.1,1.984a.131.131,0,0,1-.069.068h-.014c-.031,0-.059-.029-.076-.087l-2.2-7.491c-.02-.067-.006-.11.033-.12a.061.061,0,0,1,.02,0,.165.165,0,0,1,.075.023l7.043,3.656C540.521,536.7,540.514,536.768,540.4,536.8Z" transform="translate(-518.457 -513.075)" fill="#0080a7"/>
    </g>
  </g>
</svg>
