<?xml version="1.0" encoding="utf-8"?>
<!-- Generator: Adobe Illustrator 24.2.3, SVG Export Plug-In . SVG Version: 6.00 Build 0)  -->
<svg version="1.1" xmlns="http://www.w3.org/2000/svg" xmlns:xlink="http://www.w3.org/1999/xlink" x="0px" y="0px"
	 viewBox="0 0 450 291.7" style="enable-background:new 0 0 450 291.7;" xml:space="preserve">
<style type="text/css">
	.st0{opacity:0.46;fill:#FFFFFF;enable-background:new    ;}
	.st1{fill:#F1F1F1;}
	.st2{fill:#3E8EB2;}
	.st3{fill:none;}
	.st4{enable-background:new    ;}
	.st5{fill:#4292BD;}
	.st6{fill:#FFFFFF;}
	.st7{fill:#AFD5E2;}
	.st8{opacity:0.46;fill:#4998B8;enable-background:new    ;}
	.st9{opacity:0.6;fill:#3E8EB2;enable-background:new    ;}
	.st10{fill:#444444;}
	.st11{fill:#757575;}
	.st12{opacity:0.55;}
	.st13{fill:#B6322E;}
	.st14{opacity:0.1;enable-background:new    ;}
	.st15{opacity:0.55;fill:#F1F1F1;enable-background:new    ;}
	.st16{opacity:0.55;fill:#3E8EB2;enable-background:new    ;}
</style>
<g id="Layer_6">
</g>
<g id="Shapes">
</g>
<g id="background">
</g>
<g id="text">
</g>
<g id="Graphics">
</g>
<g id="Layer_5">
	<rect x="52.8" class="st0" width="351.6" height="291.7"/>
	<path id="Path_7616_8_" class="st2" d="M385.1,48.7H109.8V11h275.3l8.2,18.8L385.1,48.7z"/>
	<rect x="63.8" y="11" class="st1" width="46.1" height="37.8"/>
	<g class="st4">
		<path class="st6" d="M132.6,28.5c0,2.2-1.7,3.6-4.3,3.6h-2.3v2.9H124V24.9h4.2C130.9,24.9,132.6,26.2,132.6,28.5z M130.6,28.5
			c0-1.3-0.9-2-2.5-2h-2.2v4.1h2.2C129.8,30.5,130.6,29.8,130.6,28.5z"/>
		<path class="st6" d="M138.7,27.2v1.7c-0.2,0-0.3,0-0.4,0c-1.4,0-2.3,0.8-2.3,2.4v3.8h-1.8v-7.8h1.7v1.1
			C136.5,27.6,137.4,27.2,138.7,27.2z"/>
		<path class="st6" d="M147.5,31.8h-6.1c0.2,1.1,1.2,1.9,2.5,1.9c0.9,0,1.6-0.3,2.1-0.8l1,1.1c-0.7,0.8-1.8,1.3-3.1,1.3
			c-2.6,0-4.3-1.7-4.3-4s1.7-4,4-4c2.3,0,3.9,1.6,3.9,4C147.5,31.4,147.5,31.6,147.5,31.8z M141.3,30.5h4.4c-0.1-1.1-1-1.9-2.2-1.9
			C142.4,28.7,141.5,29.4,141.3,30.5z"/>
		<path class="st6" d="M157.5,31.2c0,2.4-1.7,4-4,4c-1,0-1.9-0.3-2.5-1.1v3.8h-1.8V27.3h1.7v1c0.6-0.7,1.5-1.1,2.6-1.1
			C155.8,27.2,157.5,28.8,157.5,31.2z M155.7,31.2c0-1.5-1-2.4-2.3-2.4c-1.3,0-2.3,0.9-2.3,2.4c0,1.5,1,2.4,2.3,2.4
			C154.7,33.6,155.7,32.7,155.7,31.2z"/>
		<path class="st6" d="M165.7,30.5v4.6H164v-0.9c-0.4,0.7-1.3,1.1-2.5,1.1c-1.8,0-2.9-1-2.9-2.3c0-1.3,0.9-2.3,3.2-2.3h2v-0.1
			c0-1.1-0.6-1.7-1.9-1.7c-0.9,0-1.8,0.3-2.4,0.8l-0.7-1.3c0.8-0.6,2-1,3.3-1C164.4,27.2,165.7,28.3,165.7,30.5z M163.8,32.6v-0.9
			H162c-1.2,0-1.6,0.5-1.6,1c0,0.7,0.6,1.1,1.5,1.1C162.8,33.8,163.5,33.4,163.8,32.6z"/>
		<path class="st6" d="M172.5,27.2v1.7c-0.2,0-0.3,0-0.4,0c-1.4,0-2.3,0.8-2.3,2.4v3.8H168v-7.8h1.7v1.1
			C170.3,27.6,171.2,27.2,172.5,27.2z"/>
		<path class="st6" d="M180.5,30.5v4.6h-1.7v-0.9c-0.4,0.7-1.3,1.1-2.5,1.1c-1.8,0-2.9-1-2.9-2.3c0-1.3,0.9-2.3,3.2-2.3h2v-0.1
			c0-1.1-0.6-1.7-1.9-1.7c-0.9,0-1.8,0.3-2.4,0.8l-0.7-1.3c0.8-0.6,2-1,3.3-1C179.2,27.2,180.5,28.3,180.5,30.5z M178.7,32.6v-0.9
			h-1.9c-1.2,0-1.6,0.5-1.6,1c0,0.7,0.6,1.1,1.5,1.1C177.6,33.8,178.4,33.4,178.7,32.6z"/>
		<path class="st6" d="M187.5,34.6c-0.4,0.4-1.1,0.5-1.8,0.5c-1.7,0-2.7-0.9-2.7-2.6v-3.7h-1.3v-1.5h1.3v-1.8h1.8v1.8h2.1v1.5h-2.1
			v3.7c0,0.8,0.4,1.2,1.1,1.2c0.4,0,0.7-0.1,1-0.3L187.5,34.6z"/>
		<path class="st6" d="M188.8,24.9c0-0.6,0.5-1.1,1.2-1.1s1.2,0.5,1.2,1c0,0.6-0.5,1.1-1.2,1.1C189.3,26,188.8,25.5,188.8,24.9z
			 M189,27.3h1.8v7.8H189V27.3z"/>
		<path class="st6" d="M192.6,31.2c0-2.3,1.8-4,4.1-4c2.4,0,4.2,1.6,4.2,4s-1.7,4-4.2,4C194.4,35.2,192.6,33.5,192.6,31.2z
			 M199.1,31.2c0-1.5-1-2.4-2.3-2.4c-1.3,0-2.3,0.9-2.3,2.4c0,1.5,1,2.4,2.3,2.4C198.1,33.6,199.1,32.7,199.1,31.2z"/>
		<path class="st6" d="M210.3,30.6v4.5h-1.8v-4.2c0-1.4-0.7-2.1-1.9-2.1c-1.3,0-2.2,0.8-2.2,2.3v3.9h-1.8v-7.8h1.7v1
			c0.6-0.7,1.5-1.1,2.7-1.1C209,27.2,210.3,28.3,210.3,30.6z"/>
	</g>
	<g>
		<path id="Path_1554_6_" class="st11" d="M235.9,267.4c0,5.2-4.2,9.5-9.5,9.5c-5.3,0-9.5-4.2-9.5-9.5c0-5.2,4.2-9.5,9.5-9.5
			C231.7,257.9,235.9,262.2,235.9,267.4z"/>
		<g id="Group_1434_6_" transform="translate(4.574 4.222)">
			<g id="arrow_6_" transform="translate(4.574 0)">
				<path id="arrow-2_6_" class="st6" d="M217.3,269c-0.3,0-0.5-0.1-0.8-0.3l-4.2-4.1c-0.4-0.3-0.4-1-0.1-1.3c0,0,0-0.1,0.1-0.1
					c0.4-0.4,1.1-0.4,1.4,0l0,0l3.4,3.3l3.4-3.3c0.4-0.4,1.1-0.4,1.4,0l0,0c0.4,0.3,0.4,1,0.1,1.3c0,0,0,0-0.1,0.1l-4.2,4.1
					C217.9,268.9,217.7,269,217.3,269z"/>
			</g>
			<path class="st6" d="M221.8,267.7c-0.6,0-1-0.4-1-1v-8.4c0-0.6,0.4-1,1-1s1,0.4,1,1v8.4C222.8,267.3,222.4,267.7,221.8,267.7z"/>
		</g>
	</g>
	<g>
		<path class="st6" d="M80.8,39.3c-2.2,0-3.9-0.9-5.3-2.6c-1.3-1.7-2-4.1-2-6.9s0.7-5.2,2-6.9c1.3-1.8,3.1-2.6,5.3-2.6
			c2.2,0,3.9,0.9,5.3,2.6c1.3,1.8,2,4.1,2,6.9c0,2.8-0.7,5.2-2,6.9C84.7,38.5,82.9,39.3,80.8,39.3L80.8,39.3z M80.8,24.5
			c-0.6,0-0.9,0.3-1.2,1c-0.3,0.6-0.5,1.8-0.5,4.3c0,2.6,0.3,3.8,0.5,4.3c0.3,0.7,0.6,1,1.2,1c0.6,0,0.9-0.3,1.2-1
			c0.3-0.6,0.5-1.8,0.5-4.3c0-2.6-0.3-3.8-0.5-4.4C81.8,24.8,81.4,24.5,80.8,24.5L80.8,24.5z M99,39.3c0.4,0,0.8-0.4,0.8-0.9v-2.3
			c0-0.5-0.3-1-0.8-1h-1c-1,0-1-0.5-1-1V21.2c0-0.5-0.3-1-0.8-1h-3.2c-0.3,0-0.6,0.2-0.7,0.6c-0.2,0.6-0.5,1-1,1.2
			c-0.6,0.3-1.3,0.5-2.3,0.5c-0.4,0-0.8,0.4-0.8,0.9v2.3c0,0.2,0.1,0.5,0.2,0.7c0.2,0.2,0.3,0.2,0.5,0.2h2.2v6.9v0.5
			c0,0.3,0,0.7-1.1,0.7H89c-0.4,0-0.8,0.4-0.8,1v2.3c0,0.5,0.3,0.9,0.8,0.9h10V39.3z"/>
		<path class="st2" d="M89.1,38.4v-2.3h1.1c0.8,0,1.2-0.1,1.4-0.2c0.3-0.2,0.3-0.7,0.3-1.4v-0.5V26H89v-2.3c1.1,0,2-0.2,2.7-0.6
			c0.7-0.4,1.2-1,1.4-1.8h3.2v12.8c0,0.9,0.1,1.5,0.3,1.7c0.2,0.2,0.7,0.3,1.5,0.3h1v2.3L89.1,38.4z M74.3,29.8
			c0-2.6,0.6-4.7,1.8-6.2c1.2-1.6,2.8-2.3,4.7-2.3c2,0,3.6,0.8,4.7,2.3c1.2,1.6,1.8,3.7,1.8,6.2s-0.6,4.7-1.8,6.2
			c-1.2,1.6-2.8,2.3-4.7,2.3c-2,0-3.6-0.8-4.7-2.3C74.8,34.5,74.3,32.4,74.3,29.8z M78.4,29.8c0,2.2,0.2,3.8,0.6,4.8
			c0.3,1,1,1.5,1.8,1.5c0.8,0,1.4-0.5,1.8-1.5c0.4-1,0.6-2.6,0.6-4.8c0-2.2-0.2-3.8-0.6-4.8c-0.3-1-1-1.5-1.8-1.5
			c-0.8,0-1.4,0.5-1.8,1.5C78.6,26,78.4,27.6,78.4,29.8z"/>
		<path class="st7" d="M96.4,35.9l-0.3,0.3c-0.3-0.3-0.5-1.1-0.5-2.2V22l0.3-0.5v12.6C96.1,35.1,96.2,35.7,96.4,35.9z M91.9,25.2
			h-2.3l-0.3,0.5h2.7c0.1,0,0.1,0,0.2,0.1l0.3-0.3C92.3,25.3,92.1,25.2,91.9,25.2z M98.4,36.8v0.9h-8.8l-0.3,0.5h9.6v-1.8L98.4,36.8
			z M78.8,34.8c-0.4-1-0.6-2.6-0.6-4.9c0-2.2,0.2-3.8,0.6-4.9c0.4-1.1,1.1-1.6,2-1.6c0.6,0,1.1,0.2,1.5,0.7l0.3-0.3
			c-0.4-0.6-1-0.9-1.7-0.9c-1,0-1.8,0.7-2.2,1.8c-0.4,1.1-0.6,2.8-0.6,5.1s0.2,4,0.6,5.1c0.2,0.3,0.3,0.7,0.5,0.9l0.3-0.3
			C79.1,35.2,78.9,35,78.8,34.8z M85.5,23.8l-0.3,0.3c1.1,1.4,1.6,3.3,1.6,5.7c0,2.4-0.6,4.3-1.7,5.8c-1.1,1.4-2.6,2.2-4.4,2.2
			c-1.8,0-3.3-0.8-4.4-2.2l0,0l-0.3,0.3l0,0c1.2,1.5,2.8,2.2,4.7,2.2c1.9,0,3.5-0.8,4.7-2.3c1.2-1.5,1.7-3.6,1.7-6.1
			C87.2,27.3,86.7,25.3,85.5,23.8z"/>
	</g>
	<rect x="52.8" class="st8" width="351.6" height="291.7"/>
	<g>
		<polygon class="st2" points="52.8,287.6 41.1,272.2 52.8,272.2 		"/>
		<polygon class="st2" points="404.3,287.6 416.1,272.2 404.3,272.2 		"/>
		<rect x="52.8" y="263.9" class="st9" width="351.6" height="14.5"/>
	</g>
	<rect x="41.1" y="55.8" class="st1" width="375" height="216.5"/>
	<g>
		<rect x="73.6" y="129.9" class="st3" width="332.8" height="121.2"/>
		<g class="st4">
			<path class="st10" d="M111.7,142.9h-1l-1.3-3.6c-0.2-0.5-0.4-0.8-0.7-1s-0.7-0.2-1.3-0.2h-3v4.8h-0.9v-10.8h4.2
				c1.1,0,2,0.3,2.6,0.8c0.6,0.5,0.9,1.2,0.9,2.2c0,0.7-0.2,1.3-0.6,1.8c-0.4,0.5-0.9,0.8-1.6,1c0.3,0.1,0.6,0.2,0.8,0.4
				c0.2,0.2,0.4,0.5,0.6,0.9L111.7,142.9z M107.5,137.2c1.8,0,2.6-0.7,2.6-2.2c0-1.4-0.9-2.1-2.6-2.1h-3.2v4.3H107.5z"/>
			<path class="st10" d="M120.8,140H115l-1.2,2.9h-1l4.7-10.8h0.8l4.7,10.8h-1L120.8,140z M120.4,139.2l-2.5-5.9l-2.6,5.9H120.4z"/>
			<path class="st10" d="M133.1,142.9h-1l-1.3-3.6c-0.2-0.5-0.4-0.8-0.7-1s-0.7-0.2-1.3-0.2h-3v4.8h-0.9v-10.8h4.2
				c1.1,0,2,0.3,2.6,0.8c0.6,0.5,0.9,1.2,0.9,2.2c0,0.7-0.2,1.3-0.6,1.8c-0.4,0.5-0.9,0.8-1.6,1c0.3,0.1,0.6,0.2,0.8,0.4
				c0.2,0.2,0.4,0.5,0.6,0.9L133.1,142.9z M128.9,137.2c1.8,0,2.6-0.7,2.6-2.2c0-1.4-0.9-2.1-2.6-2.1h-3.2v4.3H128.9z"/>
			<path class="st10" d="M139,132.1h3.5c1.7,0,3,0.5,4,1.4c0.9,0.9,1.4,2.3,1.4,4c0,1.7-0.5,3.1-1.4,4c-0.9,0.9-2.3,1.4-4,1.4H139
				V132.1z M142.4,142c1.5,0,2.6-0.4,3.3-1.2c0.7-0.8,1.1-1.9,1.1-3.4c0-3-1.5-4.6-4.4-4.6H140v9.1H142.4z"/>
			<path class="st10" d="M150.6,139L150.6,139c0,1.1,0.2,1.8,0.7,2.4c0.5,0.5,1.2,0.8,2.1,0.8c0.9,0,1.7-0.3,2.5-0.9l0.4,0.7
				c-0.3,0.3-0.8,0.6-1.3,0.7c-0.5,0.2-1,0.3-1.6,0.3c-1.2,0-2.1-0.3-2.7-1c-0.7-0.7-1-1.7-1-2.9c0-0.8,0.1-1.5,0.4-2.1
				c0.3-0.6,0.7-1.1,1.2-1.4c0.5-0.3,1.2-0.5,1.8-0.5c1,0,1.8,0.3,2.3,1c0.6,0.6,0.8,1.5,0.8,2.7v0.2H150.6z M151.4,136.5
				c-0.4,0.4-0.7,1-0.8,1.8h4.8c-0.1-0.8-0.3-1.4-0.7-1.8c-0.4-0.4-0.9-0.6-1.6-0.6C152.4,135.9,151.9,136.1,151.4,136.5z"/>
			<path class="st10" d="M164.7,135.3l-3.3,7.6h-1l-3.2-7.6h1l2.7,6.7l2.8-6.7H164.7z"/>
			<path class="st10" d="M166.6,139L166.6,139c0,1.1,0.2,1.8,0.7,2.4c0.5,0.5,1.2,0.8,2.1,0.8c0.9,0,1.7-0.3,2.5-0.9l0.4,0.7
				c-0.3,0.3-0.8,0.6-1.3,0.7c-0.5,0.2-1,0.3-1.6,0.3c-1.2,0-2.1-0.3-2.7-1c-0.7-0.7-1-1.7-1-2.9c0-0.8,0.1-1.5,0.4-2.1
				c0.3-0.6,0.7-1.1,1.2-1.4c0.5-0.3,1.2-0.5,1.8-0.5c1,0,1.8,0.3,2.3,1c0.6,0.6,0.8,1.5,0.8,2.7v0.2H166.6z M167.5,136.5
				c-0.4,0.4-0.7,1-0.8,1.8h4.8c-0.1-0.8-0.3-1.4-0.7-1.8c-0.4-0.4-0.9-0.6-1.6-0.6C168.5,135.9,167.9,136.1,167.5,136.5z"/>
			<path class="st10" d="M174.3,131.7h0.9v11.1h-0.9V131.7z"/>
			<path class="st10" d="M178.9,142.5c-0.5-0.3-0.9-0.8-1.2-1.4c-0.3-0.6-0.4-1.3-0.4-2.1s0.1-1.5,0.4-2.1c0.3-0.6,0.7-1.1,1.2-1.4
				s1.1-0.5,1.8-0.5c0.7,0,1.3,0.2,1.8,0.5c0.5,0.3,0.9,0.8,1.2,1.4c0.3,0.6,0.4,1.3,0.4,2.1s-0.1,1.5-0.4,2.1
				c-0.3,0.6-0.7,1.1-1.2,1.4c-0.5,0.3-1.1,0.5-1.8,0.5C180.1,143,179.5,142.8,178.9,142.5z M182.6,141.3c0.4-0.5,0.7-1.3,0.7-2.3
				c0-1-0.2-1.8-0.7-2.3c-0.4-0.5-1.1-0.8-1.8-0.8c-0.8,0-1.4,0.3-1.9,0.8c-0.4,0.6-0.7,1.3-0.7,2.3c0,1,0.2,1.8,0.7,2.3
				c0.4,0.5,1.1,0.8,1.9,0.8S182.2,141.9,182.6,141.3z"/>
			<path class="st10" d="M191.6,135.6c0.5,0.3,0.9,0.8,1.2,1.4c0.3,0.6,0.4,1.3,0.4,2.1s-0.1,1.5-0.4,2.1c-0.3,0.6-0.7,1-1.2,1.4
				c-0.5,0.3-1.1,0.5-1.8,0.5c-0.6,0-1.2-0.1-1.6-0.4c-0.4-0.3-0.8-0.7-1-1.2v4.8h-0.9v-8.7c0-0.8,0-1.5-0.1-2.1h0.9l0.1,1.5
				c0.2-0.5,0.6-0.9,1-1.2c0.5-0.3,1-0.4,1.6-0.4C190.5,135.1,191.1,135.3,191.6,135.6z M191.5,141.3c0.4-0.5,0.7-1.3,0.7-2.3
				c0-1-0.2-1.8-0.7-2.3s-1.1-0.8-1.8-0.8c-0.8,0-1.4,0.3-1.9,0.8c-0.4,0.5-0.7,1.3-0.7,2.3c0,1,0.2,1.8,0.7,2.3
				c0.4,0.5,1,0.8,1.8,0.8C190.5,142.2,191.1,141.9,191.5,141.3z"/>
			<path class="st10" d="M205.9,138v4.8H205v-4.8c0-0.8-0.1-1.3-0.4-1.7s-0.7-0.5-1.3-0.5c-0.7,0-1.2,0.2-1.6,0.7
				c-0.4,0.5-0.6,1.1-0.6,1.9v4.4h-0.9v-4.8c0-0.8-0.1-1.3-0.4-1.7s-0.7-0.5-1.3-0.5c-0.7,0-1.2,0.2-1.6,0.7
				c-0.4,0.5-0.6,1.1-0.6,1.9v4.4h-0.9v-5.5c0-0.8,0-1.5-0.1-2.1h0.9l0.1,1.4c0.2-0.5,0.5-0.9,0.9-1.2c0.4-0.3,0.9-0.4,1.5-0.4
				c1.2,0,2,0.5,2.3,1.5c0.2-0.5,0.5-0.8,1-1.1c0.4-0.3,1-0.4,1.6-0.4C205.1,135.1,205.9,136.1,205.9,138z"/>
			<path class="st10" d="M208.8,139L208.8,139c0,1.1,0.2,1.8,0.7,2.4c0.5,0.5,1.2,0.8,2.1,0.8c0.9,0,1.7-0.3,2.5-0.9l0.4,0.7
				c-0.3,0.3-0.8,0.6-1.3,0.7c-0.5,0.2-1,0.3-1.6,0.3c-1.2,0-2.1-0.3-2.7-1c-0.7-0.7-1-1.7-1-2.9c0-0.8,0.1-1.5,0.4-2.1
				c0.3-0.6,0.7-1.1,1.2-1.4c0.5-0.3,1.2-0.5,1.8-0.5c1,0,1.8,0.3,2.3,1c0.6,0.6,0.8,1.5,0.8,2.7v0.2H208.8z M209.7,136.5
				c-0.4,0.4-0.7,1-0.8,1.8h4.8c-0.1-0.8-0.3-1.4-0.7-1.8c-0.4-0.4-0.9-0.6-1.6-0.6C210.7,135.9,210.2,136.1,209.7,136.5z"/>
			<path class="st10" d="M222.8,138v4.8h-0.9v-4.8c0-0.8-0.2-1.3-0.5-1.7c-0.3-0.4-0.8-0.5-1.4-0.5c-0.8,0-1.4,0.2-1.8,0.7
				c-0.5,0.5-0.7,1.1-0.7,1.9v4.4h-0.9v-5.5c0-0.8,0-1.5-0.1-2.1h0.9l0.1,1.4c0.2-0.5,0.6-0.9,1-1.2c0.5-0.3,1-0.4,1.6-0.4
				C221.9,135.1,222.8,136.1,222.8,138z"/>
			<path class="st10" d="M226.6,136v4.5c0,0.6,0.1,1,0.3,1.3c0.2,0.2,0.6,0.3,1,0.3c0.3,0,0.6,0,0.8-0.1v0.8c-0.3,0.1-0.7,0.1-1,0.1
				c-0.7,0-1.2-0.2-1.6-0.6c-0.4-0.4-0.6-0.9-0.6-1.7V136h-1.5v-0.7h1.5v-2l0.9-0.3v2.4h2.2v0.7H226.6z"/>
		</g>
		<g class="st4">
			<path class="st2" d="M76.2,169.6c-0.4-0.2-0.8-0.6-1-1c-0.3-0.4-0.4-0.9-0.4-1.4c0-0.5,0.1-0.9,0.4-1.3c0.2-0.4,0.6-0.8,1-1
				c0.4-0.3,0.9-0.4,1.4-0.4c0.5,0,0.9,0.1,1.4,0.4c0.4,0.2,0.8,0.6,1,1c0.3,0.4,0.4,0.9,0.4,1.4c0,0.5-0.1,0.9-0.4,1.4
				c-0.2,0.4-0.6,0.7-1,1s-0.9,0.4-1.4,0.4C77.1,169.9,76.7,169.8,76.2,169.6z"/>
		</g>
		<g class="st4">
			<path class="st2" d="M77.6,170.1c-0.5,0-1-0.1-1.4-0.4l0,0c-0.4-0.2-0.8-0.6-1.1-1c-0.3-0.4-0.4-0.9-0.4-1.4c0-0.5,0.1-1,0.4-1.4
				c0.3-0.4,0.6-0.8,1-1.1c0.4-0.3,0.9-0.4,1.5-0.4c0.5,0,1,0.1,1.4,0.4s0.8,0.6,1.1,1c0.3,0.4,0.4,0.9,0.4,1.4c0,0.5-0.1,1-0.4,1.4
				c-0.3,0.4-0.6,0.8-1.1,1C78.6,169.9,78.1,170.1,77.6,170.1z M77.6,164.6c-0.5,0-0.9,0.1-1.3,0.4c-0.4,0.2-0.7,0.6-1,1
				c-0.2,0.4-0.3,0.8-0.3,1.3c0,0.5,0.1,0.9,0.4,1.3c0.2,0.4,0.6,0.7,1,0.9l0,0c0.8,0.5,1.8,0.5,2.6,0c0.4-0.2,0.7-0.5,1-0.9
				c0.2-0.4,0.4-0.8,0.4-1.3c0-0.5-0.1-0.9-0.4-1.3c-0.2-0.4-0.6-0.7-1-0.9C78.5,164.8,78.1,164.6,77.6,164.6z"/>
		</g>
		<g class="st4">
			<path class="st10" d="M103.4,160.5h6.5v0.8h-5.6v4.1h5.3v0.8h-5.3v5.1h-0.9V160.5z"/>
			<path class="st10" d="M112.1,167.4L112.1,167.4c0,1.1,0.2,1.8,0.7,2.4c0.5,0.5,1.2,0.8,2.1,0.8c0.9,0,1.7-0.3,2.5-0.9l0.4,0.7
				c-0.3,0.3-0.8,0.6-1.3,0.7c-0.5,0.2-1,0.3-1.6,0.3c-1.2,0-2.1-0.3-2.7-1c-0.7-0.7-1-1.7-1-2.9c0-0.8,0.1-1.5,0.4-2.1
				c0.3-0.6,0.7-1.1,1.2-1.4c0.5-0.3,1.2-0.5,1.8-0.5c1,0,1.8,0.3,2.3,1c0.6,0.6,0.8,1.5,0.8,2.7v0.2H112.1z M112.9,164.9
				c-0.4,0.4-0.7,1-0.8,1.8h4.8c-0.1-0.8-0.3-1.4-0.7-1.8c-0.4-0.4-0.9-0.6-1.6-0.6C113.9,164.3,113.4,164.5,112.9,164.9z"/>
			<path class="st10" d="M126.2,160.1v11.1h-0.9v-1.5c-0.2,0.5-0.6,0.9-1,1.2c-0.4,0.3-1,0.4-1.6,0.4c-0.7,0-1.3-0.2-1.8-0.5
				c-0.5-0.3-0.9-0.8-1.2-1.4c-0.3-0.6-0.4-1.3-0.4-2.1s0.1-1.5,0.4-2.1s0.7-1,1.2-1.4c0.5-0.3,1.1-0.5,1.8-0.5
				c0.6,0,1.1,0.1,1.6,0.4c0.4,0.3,0.8,0.6,1,1.2v-4.9H126.2z M124.7,169.8c0.4-0.5,0.7-1.3,0.7-2.3s-0.2-1.8-0.7-2.3
				c-0.4-0.5-1-0.8-1.8-0.8c-0.8,0-1.4,0.3-1.9,0.8c-0.4,0.5-0.7,1.3-0.7,2.3c0,1,0.2,1.8,0.7,2.3c0.4,0.6,1.1,0.8,1.9,0.8
				C123.6,170.6,124.2,170.3,124.7,169.8z"/>
			<path class="st10" d="M137.2,171.3h-1l-1.3-3.6c-0.2-0.5-0.4-0.8-0.7-1s-0.7-0.2-1.3-0.2h-3v4.8h-0.9v-10.8h4.2
				c1.1,0,2,0.3,2.6,0.8c0.6,0.5,0.9,1.2,0.9,2.2c0,0.7-0.2,1.3-0.6,1.8c-0.4,0.5-0.9,0.8-1.6,1c0.3,0.1,0.6,0.2,0.8,0.4
				c0.2,0.2,0.4,0.5,0.6,0.9L137.2,171.3z M133,165.6c1.8,0,2.6-0.7,2.6-2.2c0-1.4-0.9-2.1-2.6-2.1h-3.2v4.3H133z"/>
			<path class="st10" d="M146.2,168.4h-5.8l-1.2,2.9h-1l4.7-10.8h0.8l4.7,10.8h-1L146.2,168.4z M145.9,167.6l-2.5-5.9l-2.6,5.9
				H145.9z"/>
			<path class="st10" d="M160.3,160.5v10.8h-0.9v-8.6l-3.8,8.6h-0.7l-3.8-8.6l0,8.6h-0.9v-10.8h0.8l4.3,9.7l4.2-9.7H160.3z"/>
			<path class="st10" d="M163,160.5h4.1c1.1,0,1.9,0.3,2.5,0.8c0.6,0.5,0.9,1.2,0.9,2.2c0,0.9-0.3,1.7-0.9,2.2
				c-0.6,0.5-1.5,0.8-2.5,0.8H164v4.8H163V160.5z M167.1,165.6c0.8,0,1.5-0.2,1.9-0.6c0.4-0.4,0.7-0.9,0.7-1.6
				c0-0.7-0.2-1.2-0.7-1.6c-0.4-0.4-1.1-0.6-1.9-0.6H164v4.3H167.1z"/>
			<path class="st10" d="M176.7,160.5h4.1c1.1,0,1.9,0.3,2.5,0.8c0.6,0.5,0.9,1.2,0.9,2.2c0,0.9-0.3,1.7-0.9,2.2
				c-0.6,0.5-1.5,0.8-2.5,0.8h-3.2v4.8h-0.9V160.5z M180.7,165.6c0.8,0,1.5-0.2,1.9-0.6c0.4-0.4,0.7-0.9,0.7-1.6
				c0-0.7-0.2-1.2-0.7-1.6c-0.4-0.4-1.1-0.6-1.9-0.6h-3.1v4.3H180.7z"/>
			<path class="st10" d="M196.5,160.5v10.8h-0.9v-8.6l-3.8,8.6h-0.7l-3.8-8.6l0,8.6h-0.9v-10.8h0.8l4.3,9.7l4.2-9.7H196.5z"/>
			<path class="st10" d="M201.1,170.7c-0.7-0.4-1.3-1.1-1.7-1.9c-0.4-0.8-0.6-1.8-0.6-2.9c0-1.1,0.2-2.1,0.6-2.9
				c0.4-0.8,0.9-1.5,1.7-1.9c0.7-0.4,1.6-0.7,2.6-0.7c1,0,1.8,0.2,2.6,0.7c0.7,0.4,1.3,1.1,1.7,1.9c0.4,0.8,0.6,1.8,0.6,2.9
				c0,1.1-0.2,2.1-0.6,2.9c-0.4,0.8-0.9,1.5-1.7,1.9c-0.7,0.4-1.6,0.7-2.6,0.7C202.6,171.4,201.8,171.2,201.1,170.7z M206.4,169.3
				c0.7-0.8,1-2,1-3.5c0-1.5-0.3-2.6-1-3.5c-0.7-0.8-1.6-1.2-2.8-1.2c-1.2,0-2.2,0.4-2.8,1.2c-0.7,0.8-1,2-1,3.4
				c0,1.5,0.3,2.6,1,3.5c0.7,0.8,1.6,1.2,2.8,1.2C204.8,170.6,205.8,170.2,206.4,169.3z"/>
			<path class="st10" d="M223,171.3h-1l-1.3-3.6c-0.2-0.5-0.4-0.8-0.7-1s-0.7-0.2-1.3-0.2h-3v4.8h-0.9v-10.8h4.2
				c1.1,0,2,0.3,2.6,0.8c0.6,0.5,0.9,1.2,0.9,2.2c0,0.7-0.2,1.3-0.6,1.8c-0.4,0.5-0.9,0.8-1.6,1c0.3,0.1,0.6,0.2,0.8,0.4
				c0.2,0.2,0.4,0.5,0.6,0.9L223,171.3z M218.8,165.6c1.8,0,2.6-0.7,2.6-2.2c0-1.4-0.9-2.1-2.6-2.1h-3.2v4.3H218.8z"/>
			<path class="st10" d="M225.4,167.4L225.4,167.4c0,1.1,0.2,1.8,0.7,2.4c0.5,0.5,1.2,0.8,2.1,0.8c0.9,0,1.7-0.3,2.5-0.9l0.4,0.7
				c-0.3,0.3-0.8,0.6-1.3,0.7c-0.5,0.2-1,0.3-1.6,0.3c-1.2,0-2.1-0.3-2.7-1c-0.7-0.7-1-1.7-1-2.9c0-0.8,0.1-1.5,0.4-2.1
				c0.3-0.6,0.7-1.1,1.2-1.4c0.5-0.3,1.2-0.5,1.8-0.5c1,0,1.8,0.3,2.3,1c0.6,0.6,0.8,1.5,0.8,2.7v0.2H225.4z M226.3,164.9
				c-0.4,0.4-0.7,1-0.8,1.8h4.8c-0.1-0.8-0.3-1.4-0.7-1.8c-0.4-0.4-0.9-0.6-1.6-0.6C227.3,164.3,226.7,164.5,226.3,164.9z"/>
			<path class="st10" d="M239.5,163.7l-3.3,7.6h-1l-3.2-7.6h1l2.7,6.7l2.8-6.7H239.5z"/>
			<path class="st10" d="M242.1,160.6v1.2h-1.2v-1.2H242.1z M241,163.7h0.9v7.6H241V163.7z"/>
			<path class="st10" d="M245,167.4L245,167.4c0,1.1,0.2,1.8,0.7,2.4c0.5,0.5,1.2,0.8,2.1,0.8c0.9,0,1.7-0.3,2.5-0.9l0.4,0.7
				c-0.3,0.3-0.8,0.6-1.3,0.7c-0.5,0.2-1,0.3-1.6,0.3c-1.2,0-2.1-0.3-2.7-1c-0.7-0.7-1-1.7-1-2.9c0-0.8,0.1-1.5,0.4-2.1
				c0.3-0.6,0.7-1.1,1.2-1.4c0.5-0.3,1.2-0.5,1.8-0.5c1,0,1.8,0.3,2.3,1c0.6,0.6,0.8,1.5,0.8,2.7v0.2H245z M245.9,164.9
				c-0.4,0.4-0.7,1-0.8,1.8h4.8c-0.1-0.8-0.3-1.4-0.7-1.8c-0.4-0.4-0.9-0.6-1.6-0.6C246.8,164.3,246.3,164.5,245.9,164.9z"/>
			<path class="st10" d="M263.9,163.7l-2.8,7.6h-1l-2.3-6.4l-2.3,6.4h-1l-2.7-7.6h1l2.2,6.5l2.4-6.5h0.9l2.3,6.5l2.3-6.5H263.9z"/>
			<path class="st10" d="M270.7,170.9c-0.5-0.3-0.9-0.8-1.2-1.4c-0.3-0.6-0.4-1.3-0.4-2.1s0.1-1.5,0.4-2.1c0.3-0.6,0.7-1.1,1.2-1.4
				s1.1-0.5,1.8-0.5c0.7,0,1.3,0.2,1.8,0.5c0.5,0.3,0.9,0.8,1.2,1.4c0.3,0.6,0.4,1.3,0.4,2.1s-0.1,1.5-0.4,2.1
				c-0.3,0.6-0.7,1.1-1.2,1.4c-0.5,0.3-1.1,0.5-1.8,0.5C271.9,171.4,271.3,171.2,270.7,170.9z M274.4,169.8c0.4-0.5,0.7-1.3,0.7-2.3
				c0-1-0.2-1.8-0.7-2.3c-0.4-0.5-1.1-0.8-1.8-0.8c-0.8,0-1.4,0.3-1.9,0.8c-0.4,0.6-0.7,1.3-0.7,2.3c0,1,0.2,1.8,0.7,2.3
				c0.4,0.5,1.1,0.8,1.9,0.8S274,170.3,274.4,169.8z"/>
			<path class="st10" d="M279.7,161.3c-0.2,0.2-0.3,0.6-0.3,1.2v1.2h2v0.7h-2v6.8h-0.9v-6.8h-1.5v-0.7h1.5v-1.4
				c0-0.8,0.2-1.3,0.6-1.7c0.4-0.4,0.9-0.6,1.5-0.6c0.3,0,0.6,0,0.9,0.1v0.8c-0.3-0.1-0.5-0.1-0.8-0.1
				C280.2,160.9,279.9,161,279.7,161.3z"/>
			<path class="st10" d="M295.3,171.3h-1l-1.3-3.6c-0.2-0.5-0.4-0.8-0.7-1s-0.7-0.2-1.3-0.2h-3v4.8H287v-10.8h4.2
				c1.1,0,2,0.3,2.6,0.8c0.6,0.5,0.9,1.2,0.9,2.2c0,0.7-0.2,1.3-0.6,1.8c-0.4,0.5-0.9,0.8-1.6,1c0.3,0.1,0.6,0.2,0.8,0.4
				c0.2,0.2,0.4,0.5,0.6,0.9L295.3,171.3z M291.1,165.6c1.8,0,2.6-0.7,2.6-2.2c0-1.4-0.9-2.1-2.6-2.1h-3.2v4.3H291.1z"/>
			<path class="st10" d="M304.3,168.4h-5.8l-1.2,2.9h-1l4.7-10.8h0.8l4.7,10.8h-1L304.3,168.4z M304,167.6l-2.5-5.9l-2.6,5.9H304z"
				/>
			<path class="st10" d="M316.6,171.3h-1l-1.3-3.6c-0.2-0.5-0.4-0.8-0.7-1s-0.7-0.2-1.3-0.2h-3v4.8h-0.9v-10.8h4.2
				c1.1,0,2,0.3,2.6,0.8c0.6,0.5,0.9,1.2,0.9,2.2c0,0.7-0.2,1.3-0.6,1.8c-0.4,0.5-0.9,0.8-1.6,1c0.3,0.1,0.6,0.2,0.8,0.4
				c0.2,0.2,0.4,0.5,0.6,0.9L316.6,171.3z M312.4,165.6c1.8,0,2.6-0.7,2.6-2.2c0-1.4-0.9-2.1-2.6-2.1h-3.2v4.3H312.4z"/>
		</g>
		<g class="st4">
			<path class="st2" d="M76.2,197.9c-0.4-0.2-0.8-0.6-1-1c-0.3-0.4-0.4-0.9-0.4-1.4c0-0.5,0.1-0.9,0.4-1.3c0.2-0.4,0.6-0.8,1-1
				c0.4-0.3,0.9-0.4,1.4-0.4c0.5,0,0.9,0.1,1.4,0.4c0.4,0.2,0.8,0.6,1,1c0.3,0.4,0.4,0.9,0.4,1.4c0,0.5-0.1,0.9-0.4,1.4
				c-0.2,0.4-0.6,0.7-1,1s-0.9,0.4-1.4,0.4C77.1,198.3,76.7,198.1,76.2,197.9z"/>
		</g>
		<g class="st4">
			<path class="st2" d="M77.6,198.4c-0.5,0-1-0.1-1.4-0.4l0,0c-0.4-0.2-0.8-0.6-1.1-1c-0.3-0.4-0.4-0.9-0.4-1.4c0-0.5,0.1-1,0.4-1.4
				c0.3-0.4,0.6-0.8,1-1.1c0.4-0.3,0.9-0.4,1.5-0.4c0.5,0,1,0.1,1.4,0.4s0.8,0.6,1.1,1c0.3,0.4,0.4,0.9,0.4,1.4c0,0.5-0.1,1-0.4,1.4
				c-0.3,0.4-0.6,0.8-1.1,1C78.6,198.3,78.1,198.4,77.6,198.4z M77.6,193c-0.5,0-0.9,0.1-1.3,0.4c-0.4,0.2-0.7,0.6-1,1
				c-0.2,0.4-0.3,0.8-0.3,1.3c0,0.5,0.1,0.9,0.4,1.3c0.2,0.4,0.6,0.7,1,0.9l0,0c0.8,0.5,1.8,0.5,2.6,0c0.4-0.2,0.7-0.5,1-0.9
				c0.2-0.4,0.4-0.8,0.4-1.3c0-0.5-0.1-0.9-0.4-1.3c-0.2-0.4-0.6-0.7-1-0.9C78.5,193.1,78.1,193,77.6,193z"/>
		</g>
		<g class="st4">
			<path class="st10" d="M111.7,199.6h-1l-1.3-3.6c-0.2-0.5-0.4-0.8-0.7-1s-0.7-0.2-1.3-0.2h-3v4.8h-0.9v-10.8h4.2
				c1.1,0,2,0.3,2.6,0.8c0.6,0.5,0.9,1.2,0.9,2.2c0,0.7-0.2,1.3-0.6,1.8c-0.4,0.5-0.9,0.8-1.6,1c0.3,0.1,0.6,0.2,0.8,0.4
				c0.2,0.2,0.4,0.5,0.6,0.9L111.7,199.6z M107.5,194c1.8,0,2.6-0.7,2.6-2.2c0-1.4-0.9-2.1-2.6-2.1h-3.2v4.3H107.5z"/>
			<path class="st10" d="M114.2,195.7L114.2,195.7c0,1.1,0.2,1.8,0.7,2.4c0.5,0.5,1.2,0.8,2.1,0.8c0.9,0,1.7-0.3,2.5-0.9l0.4,0.7
				c-0.3,0.3-0.8,0.6-1.3,0.7c-0.5,0.2-1,0.3-1.6,0.3c-1.2,0-2.1-0.3-2.7-1c-0.7-0.7-1-1.7-1-2.9c0-0.8,0.1-1.5,0.4-2.1
				c0.3-0.6,0.7-1.1,1.2-1.4c0.5-0.3,1.2-0.5,1.8-0.5c1,0,1.8,0.3,2.3,1c0.6,0.6,0.8,1.5,0.8,2.7v0.2H114.2z M115.1,193.2
				c-0.4,0.4-0.7,1-0.8,1.8h4.8c-0.1-0.8-0.3-1.4-0.7-1.8c-0.4-0.4-0.9-0.6-1.6-0.6C116.1,192.6,115.5,192.8,115.1,193.2z"/>
			<path class="st10" d="M132.6,194.8v4.8h-0.9v-4.8c0-0.8-0.1-1.3-0.4-1.7s-0.7-0.5-1.3-0.5c-0.7,0-1.2,0.2-1.6,0.7
				c-0.4,0.5-0.6,1.1-0.6,1.9v4.4h-0.9v-4.8c0-0.8-0.1-1.3-0.4-1.7s-0.7-0.5-1.3-0.5c-0.7,0-1.2,0.2-1.6,0.7
				c-0.4,0.5-0.6,1.1-0.6,1.9v4.4h-0.9v-5.5c0-0.8,0-1.5-0.1-2.1h0.9l0.1,1.4c0.2-0.5,0.5-0.9,0.9-1.2c0.4-0.3,0.9-0.4,1.5-0.4
				c1.2,0,2,0.5,2.3,1.5c0.2-0.5,0.5-0.8,1-1.1c0.4-0.3,1-0.4,1.6-0.4C131.8,191.8,132.6,192.8,132.6,194.8z"/>
			<path class="st10" d="M135.5,195.7L135.5,195.7c0,1.1,0.2,1.8,0.7,2.4c0.5,0.5,1.2,0.8,2.1,0.8c0.9,0,1.7-0.3,2.5-0.9l0.4,0.7
				c-0.3,0.3-0.8,0.6-1.3,0.7c-0.5,0.2-1,0.3-1.6,0.3c-1.2,0-2.1-0.3-2.7-1c-0.7-0.7-1-1.7-1-2.9c0-0.8,0.1-1.5,0.4-2.1
				c0.3-0.6,0.7-1.1,1.2-1.4c0.5-0.3,1.2-0.5,1.8-0.5c1,0,1.8,0.3,2.3,1c0.6,0.6,0.8,1.5,0.8,2.7v0.2H135.5z M136.4,193.2
				c-0.4,0.4-0.7,1-0.8,1.8h4.8c-0.1-0.8-0.3-1.4-0.7-1.8c-0.4-0.4-0.9-0.6-1.6-0.6C137.4,192.6,136.9,192.8,136.4,193.2z"/>
			<path class="st10" d="M149.7,188.5v11.1h-0.9v-1.5c-0.2,0.5-0.6,0.9-1,1.2c-0.4,0.3-1,0.4-1.6,0.4c-0.7,0-1.3-0.2-1.8-0.5
				c-0.5-0.3-0.9-0.8-1.2-1.4c-0.3-0.6-0.4-1.3-0.4-2.1s0.1-1.5,0.4-2.1s0.7-1,1.2-1.4c0.5-0.3,1.1-0.5,1.8-0.5
				c0.6,0,1.1,0.1,1.6,0.4c0.4,0.3,0.8,0.6,1,1.2v-4.9H149.7z M148.1,198.1c0.4-0.5,0.7-1.3,0.7-2.3s-0.2-1.8-0.7-2.3
				c-0.4-0.5-1-0.8-1.8-0.8c-0.8,0-1.4,0.3-1.9,0.8c-0.4,0.5-0.7,1.3-0.7,2.3c0,1,0.2,1.8,0.7,2.3c0.4,0.6,1.1,0.8,1.9,0.8
				C147.1,198.9,147.7,198.6,148.1,198.1z"/>
			<path class="st10" d="M153.3,188.9v1.2h-1.2v-1.2H153.3z M152.2,192h0.9v7.6h-0.9V192z"/>
			<path class="st10" d="M162.1,192v7.6h-0.9v-1.5c-0.2,0.5-0.6,0.9-1,1.2c-0.4,0.3-1,0.4-1.6,0.4c-0.7,0-1.3-0.2-1.8-0.5
				c-0.5-0.3-0.9-0.8-1.2-1.4s-0.4-1.3-0.4-2.1s0.1-1.5,0.4-2.1c0.3-0.6,0.7-1.1,1.2-1.4c0.5-0.3,1.1-0.5,1.8-0.5
				c0.6,0,1.1,0.1,1.6,0.4c0.4,0.3,0.8,0.6,1,1.2V192H162.1z M160.5,198.1c0.4-0.5,0.7-1.3,0.7-2.3c0-1-0.2-1.8-0.7-2.3
				c-0.4-0.5-1-0.8-1.8-0.8c-0.8,0-1.4,0.3-1.9,0.8s-0.7,1.3-0.7,2.3c0,1,0.2,1.7,0.7,2.3c0.4,0.5,1.1,0.8,1.9,0.8
				C159.5,198.9,160.1,198.6,160.5,198.1z"/>
			<path class="st10" d="M165.9,192.8v4.5c0,0.6,0.1,1,0.3,1.3c0.2,0.2,0.6,0.3,1,0.3c0.3,0,0.6,0,0.8-0.1v0.8
				c-0.3,0.1-0.7,0.1-1,0.1c-0.7,0-1.2-0.2-1.6-0.6c-0.4-0.4-0.6-0.9-0.6-1.7v-4.7h-1.5V192h1.5v-2l0.9-0.3v2.4h2.2v0.7H165.9z"/>
			<path class="st10" d="M170.8,188.9v1.2h-1.2v-1.2H170.8z M169.7,192h0.9v7.6h-0.9V192z"/>
			<path class="st10" d="M174.3,199.2c-0.5-0.3-0.9-0.8-1.2-1.4c-0.3-0.6-0.4-1.3-0.4-2.1s0.1-1.5,0.4-2.1c0.3-0.6,0.7-1.1,1.2-1.4
				s1.1-0.5,1.8-0.5c0.7,0,1.3,0.2,1.8,0.5c0.5,0.3,0.9,0.8,1.2,1.4c0.3,0.6,0.4,1.3,0.4,2.1s-0.1,1.5-0.4,2.1
				c-0.3,0.6-0.7,1.1-1.2,1.4c-0.5,0.3-1.1,0.5-1.8,0.5C175.5,199.7,174.9,199.6,174.3,199.2z M178,198.1c0.4-0.5,0.7-1.3,0.7-2.3
				c0-1-0.2-1.8-0.7-2.3c-0.4-0.5-1.1-0.8-1.8-0.8c-0.8,0-1.4,0.3-1.9,0.8c-0.4,0.6-0.7,1.3-0.7,2.3c0,1,0.2,1.8,0.7,2.3
				c0.4,0.5,1.1,0.8,1.9,0.8S177.6,198.6,178,198.1z"/>
			<path class="st10" d="M187.9,194.8v4.8H187v-4.8c0-0.8-0.2-1.3-0.5-1.7c-0.3-0.4-0.8-0.5-1.4-0.5c-0.8,0-1.4,0.2-1.8,0.7
				c-0.5,0.5-0.7,1.1-0.7,1.9v4.4h-0.9v-5.5c0-0.8,0-1.5-0.1-2.1h0.9l0.1,1.4c0.2-0.5,0.6-0.9,1-1.2c0.5-0.3,1-0.4,1.6-0.4
				C187,191.8,187.9,192.8,187.9,194.8z"/>
			<path class="st10" d="M195,199c-0.3-1.1-0.4-2.3-0.4-3.4c0-1.2,0.1-2.3,0.4-3.4c0.3-1.1,0.7-2.2,1.2-3.3h0.8
				c-0.5,1.2-0.9,2.4-1.1,3.5s-0.3,2.2-0.3,3.3s0.1,2.2,0.3,3.3s0.6,2.3,1.1,3.5h-0.8C195.7,201.2,195.3,200.1,195,199z"/>
			<path class="st10" d="M199.9,188.9v1.2h-1.2v-1.2H199.9z M198.8,192h0.9v7.6h-0.9V192z"/>
			<path class="st10" d="M203.9,189.6c-0.2,0.2-0.3,0.6-0.3,1.2v1.2h2v0.7h-2v6.8h-0.9v-6.8h-1.5V192h1.5v-1.4
				c0-0.8,0.2-1.3,0.6-1.7c0.4-0.4,0.9-0.6,1.5-0.6c0.3,0,0.6,0,0.9,0.1v0.8c-0.3-0.1-0.5-0.1-0.8-0.1
				C204.5,189.2,204.1,189.4,203.9,189.6z"/>
			<path class="st10" d="M217.3,194.8v4.8h-0.9v-4.8c0-0.8-0.2-1.3-0.5-1.7c-0.3-0.4-0.8-0.5-1.4-0.5c-0.8,0-1.4,0.2-1.8,0.7
				c-0.5,0.5-0.7,1.1-0.7,1.9v4.4H211v-5.5c0-0.8,0-1.5-0.1-2.1h0.9l0.1,1.4c0.2-0.5,0.6-0.9,1-1.2c0.5-0.3,1-0.4,1.6-0.4
				C216.4,191.8,217.3,192.8,217.3,194.8z"/>
			<path class="st10" d="M220.3,195.7L220.3,195.7c0,1.1,0.2,1.8,0.7,2.4c0.5,0.5,1.2,0.8,2.1,0.8c0.9,0,1.7-0.3,2.5-0.9l0.4,0.7
				c-0.3,0.3-0.8,0.6-1.3,0.7c-0.5,0.2-1,0.3-1.6,0.3c-1.2,0-2.1-0.3-2.7-1c-0.7-0.7-1-1.7-1-2.9c0-0.8,0.1-1.5,0.4-2.1
				c0.3-0.6,0.7-1.1,1.2-1.4c0.5-0.3,1.2-0.5,1.8-0.5c1,0,1.8,0.3,2.3,1c0.6,0.6,0.8,1.5,0.8,2.7v0.2H220.3z M221.1,193.2
				c-0.4,0.4-0.7,1-0.8,1.8h4.8c-0.1-0.8-0.3-1.4-0.7-1.8c-0.4-0.4-0.9-0.6-1.6-0.6C222.1,192.6,221.6,192.8,221.1,193.2z"/>
			<path class="st10" d="M228.5,195.7L228.5,195.7c0,1.1,0.2,1.8,0.7,2.4c0.5,0.5,1.2,0.8,2.1,0.8c0.9,0,1.7-0.3,2.5-0.9l0.4,0.7
				c-0.3,0.3-0.8,0.6-1.3,0.7c-0.5,0.2-1,0.3-1.6,0.3c-1.2,0-2.1-0.3-2.7-1c-0.7-0.7-1-1.7-1-2.9c0-0.8,0.1-1.5,0.4-2.1
				c0.3-0.6,0.7-1.1,1.2-1.4c0.5-0.3,1.2-0.5,1.8-0.5c1,0,1.8,0.3,2.3,1c0.6,0.6,0.8,1.5,0.8,2.7v0.2H228.5z M229.4,193.2
				c-0.4,0.4-0.7,1-0.8,1.8h4.8c-0.1-0.8-0.3-1.4-0.7-1.8c-0.4-0.4-0.9-0.6-1.6-0.6C230.4,192.6,229.8,192.8,229.4,193.2z"/>
			<path class="st10" d="M242.7,188.5v11.1h-0.9v-1.5c-0.2,0.5-0.6,0.9-1,1.2c-0.4,0.3-1,0.4-1.6,0.4c-0.7,0-1.3-0.2-1.8-0.5
				c-0.5-0.3-0.9-0.8-1.2-1.4c-0.3-0.6-0.4-1.3-0.4-2.1s0.1-1.5,0.4-2.1s0.7-1,1.2-1.4c0.5-0.3,1.1-0.5,1.8-0.5
				c0.6,0,1.1,0.1,1.6,0.4c0.4,0.3,0.8,0.6,1,1.2v-4.9H242.7z M241.1,198.1c0.4-0.5,0.7-1.3,0.7-2.3s-0.2-1.8-0.7-2.3
				c-0.4-0.5-1-0.8-1.8-0.8c-0.8,0-1.4,0.3-1.9,0.8c-0.4,0.5-0.7,1.3-0.7,2.3c0,1,0.2,1.8,0.7,2.3c0.4,0.6,1.1,0.8,1.9,0.8
				C240,198.9,240.6,198.6,241.1,198.1z"/>
			<path class="st10" d="M245.7,195.7L245.7,195.7c0,1.1,0.2,1.8,0.7,2.4c0.5,0.5,1.2,0.8,2.1,0.8c0.9,0,1.7-0.3,2.5-0.9l0.4,0.7
				c-0.3,0.3-0.8,0.6-1.3,0.7c-0.5,0.2-1,0.3-1.6,0.3c-1.2,0-2.1-0.3-2.7-1c-0.7-0.7-1-1.7-1-2.9c0-0.8,0.1-1.5,0.4-2.1
				c0.3-0.6,0.7-1.1,1.2-1.4c0.5-0.3,1.2-0.5,1.8-0.5c1,0,1.8,0.3,2.3,1c0.6,0.6,0.8,1.5,0.8,2.7v0.2H245.7z M246.5,193.2
				c-0.4,0.4-0.7,1-0.8,1.8h4.8c-0.1-0.8-0.3-1.4-0.7-1.8c-0.4-0.4-0.9-0.6-1.6-0.6C247.5,192.6,247,192.8,246.5,193.2z"/>
			<path class="st10" d="M259.8,188.5v11.1h-0.9v-1.5c-0.2,0.5-0.6,0.9-1,1.2c-0.4,0.3-1,0.4-1.6,0.4c-0.7,0-1.3-0.2-1.8-0.5
				c-0.5-0.3-0.9-0.8-1.2-1.4c-0.3-0.6-0.4-1.3-0.4-2.1s0.1-1.5,0.4-2.1s0.7-1,1.2-1.4c0.5-0.3,1.1-0.5,1.8-0.5
				c0.6,0,1.1,0.1,1.6,0.4c0.4,0.3,0.8,0.6,1,1.2v-4.9H259.8z M258.2,198.1c0.4-0.5,0.7-1.3,0.7-2.3s-0.2-1.8-0.7-2.3
				c-0.4-0.5-1-0.8-1.8-0.8c-0.8,0-1.4,0.3-1.9,0.8c-0.4,0.5-0.7,1.3-0.7,2.3c0,1,0.2,1.8,0.7,2.3c0.4,0.6,1.1,0.8,1.9,0.8
				C257.2,198.9,257.8,198.6,258.2,198.1z"/>
			<path class="st10" d="M261.6,202.4c0.5-1.2,0.9-2.4,1.1-3.5c0.2-1.1,0.3-2.2,0.3-3.3c0-1.1-0.1-2.2-0.3-3.3s-0.6-2.2-1.1-3.5h0.8
				c0.6,1.1,1,2.2,1.2,3.3s0.4,2.2,0.4,3.4c0,1.2-0.1,2.3-0.4,3.4s-0.7,2.2-1.2,3.3H261.6z"/>
		</g>
		<g class="st4">
			<path class="st10" d="M103.4,217.3h6.5v0.8h-5.6v4.1h5.3v0.8h-5.3v5.1h-0.9V217.3z"/>
			<path class="st10" d="M112.1,224.1L112.1,224.1c0,1.1,0.2,1.8,0.7,2.4c0.5,0.5,1.2,0.8,2.1,0.8c0.9,0,1.7-0.3,2.5-0.9l0.4,0.7
				c-0.3,0.3-0.8,0.6-1.3,0.7c-0.5,0.2-1,0.3-1.6,0.3c-1.2,0-2.1-0.3-2.7-1c-0.7-0.7-1-1.7-1-2.9c0-0.8,0.1-1.5,0.4-2.1
				c0.3-0.6,0.7-1.1,1.2-1.4c0.5-0.3,1.2-0.5,1.8-0.5c1,0,1.8,0.3,2.3,1c0.6,0.6,0.8,1.5,0.8,2.7v0.2H112.1z M112.9,221.7
				c-0.4,0.4-0.7,1-0.8,1.8h4.8c-0.1-0.8-0.3-1.4-0.7-1.8c-0.4-0.4-0.9-0.6-1.6-0.6C113.9,221,113.4,221.2,112.9,221.7z"/>
			<path class="st10" d="M126.2,216.9V228h-0.9v-1.5c-0.2,0.5-0.6,0.9-1,1.2c-0.4,0.3-1,0.4-1.6,0.4c-0.7,0-1.3-0.2-1.8-0.5
				c-0.5-0.3-0.9-0.8-1.2-1.4c-0.3-0.6-0.4-1.3-0.4-2.1s0.1-1.5,0.4-2.1c0.3-0.6,0.7-1,1.2-1.4c0.5-0.3,1.1-0.5,1.8-0.5
				c0.6,0,1.1,0.1,1.6,0.4c0.4,0.3,0.8,0.6,1,1.2v-4.9H126.2z M124.7,226.5c0.4-0.5,0.7-1.3,0.7-2.3c0-1-0.2-1.8-0.7-2.3
				c-0.4-0.5-1-0.8-1.8-0.8c-0.8,0-1.4,0.3-1.9,0.8s-0.7,1.3-0.7,2.3c0,1,0.2,1.8,0.7,2.3c0.4,0.6,1.1,0.8,1.9,0.8
				C123.6,227.3,124.2,227,124.7,226.5z"/>
			<path class="st10" d="M137.2,228h-1l-1.3-3.6c-0.2-0.5-0.4-0.8-0.7-1c-0.3-0.2-0.7-0.2-1.3-0.2h-3v4.8h-0.9v-10.8h4.2
				c1.1,0,2,0.3,2.6,0.8c0.6,0.5,0.9,1.2,0.9,2.2c0,0.7-0.2,1.3-0.6,1.8c-0.4,0.5-0.9,0.8-1.6,1c0.3,0.1,0.6,0.2,0.8,0.4
				c0.2,0.2,0.4,0.5,0.6,0.9L137.2,228z M133,222.4c1.8,0,2.6-0.7,2.6-2.2c0-1.4-0.9-2.1-2.6-2.1h-3.2v4.3H133z"/>
			<path class="st10" d="M146.2,225.2h-5.8l-1.2,2.9h-1l4.7-10.8h0.8l4.7,10.8h-1L146.2,225.2z M145.9,224.3l-2.5-5.9l-2.6,5.9
				H145.9z"/>
			<path class="st10" d="M160.3,217.3V228h-0.9v-8.6l-3.8,8.6h-0.7l-3.8-8.6l0,8.6h-0.9v-10.8h0.8l4.3,9.7l4.2-9.7H160.3z"/>
			<path class="st10" d="M163,217.3h4.1c1.1,0,1.9,0.3,2.5,0.8c0.6,0.5,0.9,1.2,0.9,2.2c0,0.9-0.3,1.7-0.9,2.2
				c-0.6,0.5-1.5,0.8-2.5,0.8H164v4.8H163V217.3z M167.1,222.4c0.8,0,1.5-0.2,1.9-0.6c0.4-0.4,0.7-0.9,0.7-1.6
				c0-0.7-0.2-1.2-0.7-1.6c-0.4-0.4-1.1-0.6-1.9-0.6H164v4.3H167.1z"/>
			<path class="st10" d="M186.7,217.3V228h-0.9v-8.6L182,228h-0.7l-3.8-8.6l0,8.6h-0.9v-10.8h0.8l4.3,9.7l4.2-9.7H186.7z"/>
			<path class="st10" d="M195.8,220.4v7.6h-0.9v-1.5c-0.2,0.5-0.6,0.9-1,1.2c-0.4,0.3-1,0.4-1.6,0.4c-0.7,0-1.3-0.2-1.8-0.5
				c-0.5-0.3-0.9-0.8-1.2-1.4c-0.3-0.6-0.4-1.3-0.4-2.1s0.1-1.5,0.4-2.1c0.3-0.6,0.7-1.1,1.2-1.4c0.5-0.3,1.1-0.5,1.8-0.5
				c0.6,0,1.1,0.1,1.6,0.4c0.4,0.3,0.8,0.6,1,1.2v-1.4H195.8z M194.2,226.5c0.4-0.5,0.7-1.3,0.7-2.3c0-1-0.2-1.8-0.7-2.3
				c-0.4-0.5-1-0.8-1.8-0.8c-0.8,0-1.4,0.3-1.9,0.8s-0.7,1.3-0.7,2.3c0,1,0.2,1.7,0.7,2.3c0.4,0.5,1.1,0.8,1.9,0.8
				C193.2,227.3,193.8,227,194.2,226.5z"/>
			<path class="st10" d="M202.2,220.3l0,0.8c-0.2,0-0.4-0.1-0.7-0.1c-0.8,0-1.3,0.2-1.7,0.7c-0.4,0.5-0.6,1.1-0.6,1.7v4.4h-0.9v-5.5
				c0-0.8,0-1.5-0.1-2.1h0.9l0.1,1.4c0.2-0.5,0.5-0.9,0.9-1.2c0.4-0.3,0.9-0.4,1.5-0.4C201.8,220.3,202,220.3,202.2,220.3z"/>
			<path class="st10" d="M208.7,228l-4.2-3.7v3.7h-0.9v-11.1h0.9v7.1l3.8-3.5h1.2l-4,3.6l4.4,3.9H208.7z"/>
			<path class="st10" d="M211.4,224.1L211.4,224.1c0,1.1,0.2,1.8,0.7,2.4c0.5,0.5,1.2,0.8,2.1,0.8c0.9,0,1.7-0.3,2.5-0.9l0.4,0.7
				c-0.3,0.3-0.8,0.6-1.3,0.7c-0.5,0.2-1,0.3-1.6,0.3c-1.2,0-2.1-0.3-2.7-1c-0.7-0.7-1-1.7-1-2.9c0-0.8,0.1-1.5,0.4-2.1
				c0.3-0.6,0.7-1.1,1.2-1.4c0.5-0.3,1.2-0.5,1.8-0.5c1,0,1.8,0.3,2.3,1c0.6,0.6,0.8,1.5,0.8,2.7v0.2H211.4z M212.3,221.7
				c-0.4,0.4-0.7,1-0.8,1.8h4.8c-0.1-0.8-0.3-1.4-0.7-1.8c-0.4-0.4-0.9-0.6-1.6-0.6C213.3,221,212.8,221.2,212.3,221.7z"/>
			<path class="st10" d="M220.5,221.2v4.5c0,0.6,0.1,1,0.3,1.3c0.2,0.2,0.6,0.3,1,0.3c0.3,0,0.6,0,0.8-0.1v0.8
				c-0.3,0.1-0.7,0.1-1,0.1c-0.7,0-1.2-0.2-1.6-0.6c-0.4-0.4-0.6-0.9-0.6-1.7v-4.7H218v-0.7h1.5v-2l0.9-0.3v2.4h2.2v0.7H220.5z"/>
			<path class="st10" d="M229.6,220.8c0.5,0.3,0.9,0.8,1.2,1.4c0.3,0.6,0.4,1.3,0.4,2.1s-0.1,1.5-0.4,2.1c-0.3,0.6-0.7,1-1.2,1.4
				c-0.5,0.3-1.1,0.5-1.8,0.5c-0.6,0-1.2-0.1-1.6-0.4c-0.4-0.3-0.8-0.7-1-1.2v4.8h-0.9v-8.7c0-0.8,0-1.5-0.1-2.1h0.9l0.1,1.5
				c0.2-0.5,0.6-0.9,1-1.2c0.5-0.3,1-0.4,1.6-0.4C228.5,220.3,229.1,220.4,229.6,220.8z M229.6,226.5c0.4-0.5,0.7-1.3,0.7-2.3
				c0-1-0.2-1.8-0.7-2.3s-1.1-0.8-1.8-0.8c-0.8,0-1.4,0.3-1.9,0.8c-0.4,0.5-0.7,1.3-0.7,2.3c0,1,0.2,1.8,0.7,2.3
				c0.4,0.5,1,0.8,1.8,0.8C228.5,227.3,229.1,227,229.6,226.5z"/>
			<path class="st10" d="M233.2,216.9h0.9V228h-0.9V216.9z"/>
			<path class="st10" d="M243.1,220.4v7.6h-0.9v-1.5c-0.2,0.5-0.6,0.9-1,1.2c-0.4,0.3-1,0.4-1.6,0.4c-0.7,0-1.3-0.2-1.8-0.5
				c-0.5-0.3-0.9-0.8-1.2-1.4c-0.3-0.6-0.4-1.3-0.4-2.1s0.1-1.5,0.4-2.1c0.3-0.6,0.7-1.1,1.2-1.4c0.5-0.3,1.1-0.5,1.8-0.5
				c0.6,0,1.1,0.1,1.6,0.4c0.4,0.3,0.8,0.6,1,1.2v-1.4H243.1z M241.5,226.5c0.4-0.5,0.7-1.3,0.7-2.3c0-1-0.2-1.8-0.7-2.3
				c-0.4-0.5-1-0.8-1.8-0.8c-0.8,0-1.4,0.3-1.9,0.8s-0.7,1.3-0.7,2.3c0,1,0.2,1.7,0.7,2.3c0.4,0.5,1.1,0.8,1.9,0.8
				C240.5,227.3,241.1,227,241.5,226.5z"/>
			<path class="st10" d="M246.8,227.7c-0.5-0.3-0.9-0.8-1.2-1.4c-0.3-0.6-0.4-1.3-0.4-2.1c0-0.8,0.1-1.5,0.4-2.1
				c0.3-0.6,0.7-1.1,1.3-1.4c0.5-0.3,1.2-0.5,1.9-0.5c0.5,0,1,0.1,1.5,0.3s0.9,0.4,1.2,0.7L251,222c-0.4-0.3-0.8-0.6-1.1-0.7
				c-0.4-0.1-0.7-0.2-1.1-0.2c-0.8,0-1.5,0.3-1.9,0.8s-0.7,1.3-0.7,2.3c0,1,0.2,1.7,0.7,2.3s1.1,0.8,1.9,0.8c0.4,0,0.8-0.1,1.1-0.2
				c0.4-0.1,0.7-0.4,1.1-0.7l0.4,0.7c-0.3,0.3-0.7,0.6-1.2,0.7c-0.5,0.2-1,0.3-1.5,0.3C248,228.1,247.3,228,246.8,227.7z"/>
			<path class="st10" d="M253.5,224.1L253.5,224.1c0,1.1,0.2,1.8,0.7,2.4c0.5,0.5,1.2,0.8,2.1,0.8c0.9,0,1.7-0.3,2.5-0.9l0.4,0.7
				c-0.3,0.3-0.8,0.6-1.3,0.7c-0.5,0.2-1,0.3-1.6,0.3c-1.2,0-2.1-0.3-2.7-1c-0.7-0.7-1-1.7-1-2.9c0-0.8,0.1-1.5,0.4-2.1
				c0.3-0.6,0.7-1.1,1.2-1.4c0.5-0.3,1.2-0.5,1.8-0.5c1,0,1.8,0.3,2.3,1c0.6,0.6,0.8,1.5,0.8,2.7v0.2H253.5z M254.4,221.7
				c-0.4,0.4-0.7,1-0.8,1.8h4.8c-0.1-0.8-0.3-1.4-0.7-1.8c-0.4-0.4-0.9-0.6-1.6-0.6C255.4,221,254.8,221.2,254.4,221.7z"/>
			<path class="st10" d="M265.2,217.3h3.5c1.7,0,3,0.5,4,1.4c0.9,0.9,1.4,2.3,1.4,4s-0.5,3.1-1.4,4s-2.3,1.4-4,1.4h-3.5V217.3z
				 M268.7,227.2c1.5,0,2.6-0.4,3.3-1.2c0.7-0.8,1.1-1.9,1.1-3.4c0-3-1.5-4.6-4.4-4.6h-2.5v9.1H268.7z"/>
			<path class="st10" d="M276.8,224.1L276.8,224.1c0,1.1,0.2,1.8,0.7,2.4c0.5,0.5,1.2,0.8,2.1,0.8c0.9,0,1.7-0.3,2.5-0.9l0.4,0.7
				c-0.3,0.3-0.8,0.6-1.3,0.7c-0.5,0.2-1,0.3-1.6,0.3c-1.2,0-2.1-0.3-2.7-1c-0.7-0.7-1-1.7-1-2.9c0-0.8,0.1-1.5,0.4-2.1
				c0.3-0.6,0.7-1.1,1.2-1.4c0.5-0.3,1.2-0.5,1.8-0.5c1,0,1.8,0.3,2.3,1c0.6,0.6,0.8,1.5,0.8,2.7v0.2H276.8z M277.6,221.7
				c-0.4,0.4-0.7,1-0.8,1.8h4.8c-0.1-0.8-0.3-1.4-0.7-1.8c-0.4-0.4-0.9-0.6-1.6-0.6C278.6,221,278.1,221.2,277.6,221.7z"/>
			<path class="st10" d="M284.1,227.1l0.3-0.7c0.4,0.3,0.8,0.6,1.2,0.7c0.4,0.1,0.9,0.2,1.4,0.2c0.6,0,1.1-0.1,1.4-0.3
				c0.3-0.2,0.5-0.5,0.5-0.9c0-0.3-0.1-0.6-0.3-0.8c-0.2-0.2-0.6-0.4-1.1-0.5l-1.3-0.3c-0.6-0.1-1.1-0.4-1.4-0.8
				c-0.3-0.4-0.5-0.8-0.5-1.3c0-0.7,0.3-1.2,0.8-1.6c0.5-0.4,1.2-0.6,2-0.6c0.5,0,1,0.1,1.5,0.3s0.8,0.4,1.1,0.7l-0.3,0.7
				c-0.7-0.6-1.5-0.9-2.3-0.9c-0.6,0-1,0.1-1.4,0.3c-0.3,0.2-0.5,0.6-0.5,1c0,0.3,0.1,0.6,0.3,0.8c0.2,0.2,0.5,0.4,1,0.5l1.3,0.3
				c1.4,0.3,2,1,2,2c0,0.6-0.3,1.1-0.8,1.5c-0.5,0.4-1.2,0.6-2.1,0.6C285.7,228.1,284.8,227.8,284.1,227.1z"/>
			<path class="st10" d="M293.1,217.3v1.2h-1.2v-1.2H293.1z M292,220.4h0.9v7.6H292V220.4z"/>
			<path class="st10" d="M301.9,220.4v7.6c0,1.1-0.3,1.9-0.8,2.5s-1.3,0.8-2.4,0.8c-1.1,0-2.1-0.3-3-0.8l0.2-0.8
				c0.5,0.3,0.9,0.5,1.4,0.6s0.9,0.2,1.4,0.2c0.8,0,1.3-0.2,1.7-0.6c0.4-0.4,0.6-1,0.6-1.8v-2c-0.2,0.5-0.6,0.9-1,1.2
				c-0.5,0.3-1,0.4-1.6,0.4c-0.7,0-1.3-0.2-1.8-0.5c-0.5-0.3-0.9-0.8-1.2-1.3c-0.3-0.6-0.4-1.2-0.4-2c0-0.7,0.1-1.4,0.4-2
				s0.7-1,1.2-1.3c0.5-0.3,1.1-0.5,1.8-0.5c0.6,0,1.2,0.1,1.6,0.4c0.4,0.3,0.8,0.6,1,1.2v-1.4H301.9z M300.3,226.2
				c0.4-0.5,0.7-1.2,0.7-2.1c0-0.9-0.2-1.6-0.7-2.2c-0.4-0.5-1.1-0.8-1.9-0.8c-0.8,0-1.4,0.3-1.9,0.8c-0.5,0.5-0.7,1.3-0.7,2.2
				c0,0.9,0.2,1.6,0.7,2.2c0.5,0.5,1.1,0.8,1.9,0.8C299.3,227,299.9,226.7,300.3,226.2z"/>
			<path class="st10" d="M310.7,223.2v4.8h-0.9v-4.8c0-0.8-0.2-1.3-0.5-1.7c-0.3-0.4-0.8-0.5-1.4-0.5c-0.8,0-1.4,0.2-1.8,0.7
				c-0.5,0.5-0.7,1.1-0.7,1.9v4.4h-0.9v-5.5c0-0.8,0-1.5-0.1-2.1h0.9l0.1,1.4c0.2-0.5,0.6-0.9,1-1.2c0.5-0.3,1-0.4,1.6-0.4
				C309.8,220.3,310.7,221.2,310.7,223.2z"/>
			<path class="st10" d="M319.6,220.4v7.6h-0.9v-1.5c-0.2,0.5-0.6,0.9-1,1.2c-0.4,0.3-1,0.4-1.6,0.4c-0.7,0-1.3-0.2-1.8-0.5
				c-0.5-0.3-0.9-0.8-1.2-1.4c-0.3-0.6-0.4-1.3-0.4-2.1s0.1-1.5,0.4-2.1c0.3-0.6,0.7-1.1,1.2-1.4c0.5-0.3,1.1-0.5,1.8-0.5
				c0.6,0,1.1,0.1,1.6,0.4c0.4,0.3,0.8,0.6,1,1.2v-1.4H319.6z M318,226.5c0.4-0.5,0.7-1.3,0.7-2.3c0-1-0.2-1.8-0.7-2.3
				c-0.4-0.5-1-0.8-1.8-0.8c-0.8,0-1.4,0.3-1.9,0.8s-0.7,1.3-0.7,2.3c0,1,0.2,1.7,0.7,2.3c0.4,0.5,1.1,0.8,1.9,0.8
				C317,227.3,317.6,227,318,226.5z"/>
			<path class="st10" d="M323.4,221.2v4.5c0,0.6,0.1,1,0.3,1.3c0.2,0.2,0.6,0.3,1,0.3c0.3,0,0.6,0,0.8-0.1v0.8
				c-0.3,0.1-0.7,0.1-1,0.1c-0.7,0-1.2-0.2-1.6-0.6c-0.4-0.4-0.6-0.9-0.6-1.7v-4.7H321v-0.7h1.5v-2l0.9-0.3v2.4h2.2v0.7H323.4z"/>
			<path class="st10" d="M328.3,217.3v1.2h-1.2v-1.2H328.3z M327.2,220.4h0.9v7.6h-0.9V220.4z"/>
			<path class="st10" d="M331.9,227.7c-0.5-0.3-0.9-0.8-1.2-1.4c-0.3-0.6-0.4-1.3-0.4-2.1s0.1-1.5,0.4-2.1c0.3-0.6,0.7-1.1,1.2-1.4
				c0.5-0.3,1.1-0.5,1.8-0.5c0.7,0,1.3,0.2,1.8,0.5c0.5,0.3,0.9,0.8,1.2,1.4c0.3,0.6,0.4,1.3,0.4,2.1s-0.1,1.5-0.4,2.1
				c-0.3,0.6-0.7,1.1-1.2,1.4c-0.5,0.3-1.1,0.5-1.8,0.5C333,228.1,332.4,228,331.9,227.7z M335.5,226.5c0.4-0.5,0.7-1.3,0.7-2.3
				c0-1-0.2-1.8-0.7-2.3c-0.4-0.5-1.1-0.8-1.8-0.8c-0.8,0-1.4,0.3-1.9,0.8c-0.4,0.6-0.7,1.3-0.7,2.3c0,1,0.2,1.8,0.7,2.3
				c0.4,0.5,1.1,0.8,1.9,0.8S335.1,227,335.5,226.5z"/>
			<path class="st10" d="M345.5,223.2v4.8h-0.9v-4.8c0-0.8-0.2-1.3-0.5-1.7c-0.3-0.4-0.8-0.5-1.4-0.5c-0.8,0-1.4,0.2-1.8,0.7
				c-0.5,0.5-0.7,1.1-0.7,1.9v4.4h-0.9v-5.5c0-0.8,0-1.5-0.1-2.1h0.9l0.1,1.4c0.2-0.5,0.6-0.9,1-1.2c0.5-0.3,1-0.4,1.6-0.4
				C344.5,220.3,345.5,221.2,345.5,223.2z"/>
			<path class="st10" d="M350.5,223.6h7.6v0.7h-7.6V223.6z"/>
		</g>
		<g class="st4">
			<path class="st10" d="M111.7,246.9h-1l-1.3-3.6c-0.2-0.5-0.4-0.8-0.7-1c-0.3-0.2-0.7-0.2-1.3-0.2h-3v4.8h-0.9v-10.8h4.2
				c1.1,0,2,0.3,2.6,0.8c0.6,0.5,0.9,1.2,0.9,2.2c0,0.7-0.2,1.3-0.6,1.8c-0.4,0.5-0.9,0.8-1.6,1c0.3,0.1,0.6,0.2,0.8,0.4
				c0.2,0.2,0.4,0.5,0.6,0.9L111.7,246.9z M107.5,241.3c1.8,0,2.6-0.7,2.6-2.2c0-1.4-0.9-2.1-2.6-2.1h-3.2v4.3H107.5z"/>
			<path class="st10" d="M114.2,243L114.2,243c0,1.1,0.2,1.8,0.7,2.4c0.5,0.5,1.2,0.8,2.1,0.8c0.9,0,1.7-0.3,2.5-0.9l0.4,0.7
				c-0.3,0.3-0.8,0.6-1.3,0.7c-0.5,0.2-1,0.3-1.6,0.3c-1.2,0-2.1-0.3-2.7-1c-0.7-0.7-1-1.7-1-2.9c0-0.8,0.1-1.5,0.4-2.1
				c0.3-0.6,0.7-1.1,1.2-1.4c0.5-0.3,1.2-0.5,1.8-0.5c1,0,1.8,0.3,2.3,1c0.6,0.6,0.8,1.5,0.8,2.7v0.2H114.2z M115.1,240.6
				c-0.4,0.4-0.7,1-0.8,1.8h4.8c-0.1-0.8-0.3-1.4-0.7-1.8c-0.4-0.4-0.9-0.6-1.6-0.6C116.1,239.9,115.5,240.1,115.1,240.6z"/>
			<path class="st10" d="M128.3,239.4v7.6h-0.9v-1.5c-0.2,0.5-0.6,0.9-1,1.2c-0.4,0.3-1,0.4-1.6,0.4c-0.7,0-1.3-0.2-1.8-0.5
				c-0.5-0.3-0.9-0.8-1.2-1.4c-0.3-0.6-0.4-1.3-0.4-2.1s0.1-1.5,0.4-2.1c0.3-0.6,0.7-1.1,1.2-1.4c0.5-0.3,1.1-0.5,1.8-0.5
				c0.6,0,1.1,0.1,1.6,0.4c0.4,0.3,0.8,0.6,1,1.2v-1.4H128.3z M126.8,245.4c0.4-0.5,0.7-1.3,0.7-2.3c0-1-0.2-1.8-0.7-2.3
				c-0.4-0.5-1-0.8-1.8-0.8c-0.8,0-1.4,0.3-1.9,0.8s-0.7,1.3-0.7,2.3c0,1,0.2,1.7,0.7,2.3c0.4,0.5,1.1,0.8,1.9,0.8
				C125.7,246.2,126.3,246,126.8,245.4z"/>
			<path class="st10" d="M137.3,235.8v11.1h-0.9v-1.5c-0.2,0.5-0.6,0.9-1,1.2c-0.4,0.3-1,0.4-1.6,0.4c-0.7,0-1.3-0.2-1.8-0.5
				c-0.5-0.3-0.9-0.8-1.2-1.4c-0.3-0.6-0.4-1.3-0.4-2.1s0.1-1.5,0.4-2.1c0.3-0.6,0.7-1,1.2-1.4c0.5-0.3,1.1-0.5,1.8-0.5
				c0.6,0,1.1,0.1,1.6,0.4c0.4,0.3,0.8,0.6,1,1.2v-4.9H137.3z M135.7,245.4c0.4-0.5,0.7-1.3,0.7-2.3c0-1-0.2-1.8-0.7-2.3
				c-0.4-0.5-1-0.8-1.8-0.8c-0.8,0-1.4,0.3-1.9,0.8s-0.7,1.3-0.7,2.3c0,1,0.2,1.8,0.7,2.3c0.4,0.6,1.1,0.8,1.9,0.8
				C134.7,246.2,135.3,246,135.7,245.4z"/>
			<path class="st10" d="M146.2,239.4l-3.6,8.4c-0.4,0.8-0.8,1.4-1.3,1.8c-0.5,0.4-1.2,0.7-2,0.8l-0.2-0.7c0.7-0.2,1.3-0.4,1.6-0.7
				c0.4-0.3,0.7-0.7,0.9-1.3l0.3-0.7l-3.2-7.6h1l2.7,6.7l2.8-6.7H146.2z"/>
		</g>
	</g>
	<g>
		<rect x="64.1" y="71.4" class="st3" width="206" height="47.2"/>
		<g class="st4">
			<path class="st2" d="M73.9,85.8l-2.6-3.7c-0.2,0-0.5,0-0.7,0h-2.9v3.6h-1.7V73.9h4.6c3.1,0,5,1.6,5,4.2c0,1.8-1,3.2-2.6,3.8
				l2.8,4H73.9z M73.8,78c0-1.7-1.1-2.7-3.3-2.7h-2.9v5.4h2.9C72.7,80.7,73.8,79.7,73.8,78z"/>
			<path class="st2" d="M86.2,81.8h-7.3c0.2,1.6,1.5,2.6,3.3,2.6c1.1,0,1.9-0.4,2.6-1.1l0.9,1.1c-0.8,1-2.1,1.5-3.6,1.5
				c-2.9,0-4.9-1.9-4.9-4.6c0-2.7,1.9-4.6,4.5-4.6c2.6,0,4.5,1.9,4.5,4.6C86.2,81.5,86.2,81.7,86.2,81.8z M78.8,80.6h5.8
				c-0.2-1.5-1.3-2.6-2.9-2.6C80.2,78,79,79.1,78.8,80.6z"/>
			<path class="st2" d="M95.4,80.3v5.4h-1.5v-1.2c-0.5,0.8-1.5,1.3-3,1.3c-2,0-3.3-1.1-3.3-2.7c0-1.4,0.9-2.6,3.6-2.6h2.6v-0.3
				c0-1.4-0.8-2.2-2.4-2.2c-1.1,0-2.2,0.4-2.9,1l-0.7-1.2c0.9-0.7,2.3-1.2,3.7-1.2C94,76.7,95.4,77.9,95.4,80.3z M93.7,83v-1.3h-2.5
				c-1.6,0-2.1,0.6-2.1,1.4c0,0.9,0.7,1.5,2,1.5C92.3,84.6,93.3,84.1,93.7,83z"/>
			<path class="st2" d="M106.9,73.1v12.6h-1.6v-1.4c-0.7,1-1.9,1.5-3.2,1.5c-2.6,0-4.6-1.9-4.6-4.6s1.9-4.6,4.6-4.6
				c1.3,0,2.4,0.5,3.2,1.4v-5H106.9z M105.3,81.3c0-1.9-1.3-3.2-3-3.2c-1.7,0-3,1.2-3,3.2s1.3,3.2,3,3.2
				C104,84.5,105.3,83.2,105.3,81.3z"/>
			<path class="st2" d="M109.8,74c0-0.6,0.5-1.1,1.1-1.1c0.6,0,1.1,0.5,1.1,1c0,0.6-0.5,1.1-1.1,1.1C110.2,75,109.8,74.6,109.8,74z
				 M110,76.8h1.6v9H110V76.8z"/>
			<path class="st2" d="M123.4,80.6v5.2h-1.6v-5c0-1.8-0.9-2.6-2.4-2.6c-1.7,0-2.9,1-2.9,3v4.6h-1.6v-9h1.6v1.4
				c0.7-0.9,1.8-1.4,3.3-1.4C121.8,76.7,123.4,77.9,123.4,80.6z"/>
			<path class="st2" d="M134.6,81.8h-7.3c0.2,1.6,1.5,2.6,3.3,2.6c1.1,0,1.9-0.4,2.6-1.1l0.9,1.1c-0.8,1-2.1,1.5-3.6,1.5
				c-2.9,0-4.9-1.9-4.9-4.6c0-2.7,1.9-4.6,4.5-4.6c2.6,0,4.5,1.9,4.5,4.6C134.6,81.5,134.6,81.7,134.6,81.8z M127.2,80.6h5.8
				c-0.2-1.5-1.3-2.6-2.9-2.6C128.6,78,127.4,79.1,127.2,80.6z"/>
			<path class="st2" d="M135.7,84.8l0.7-1.3c0.8,0.5,2,0.9,3.2,0.9c1.5,0,2.1-0.5,2.1-1.2c0-2-5.7-0.3-5.7-3.9
				c0-1.6,1.4-2.7,3.8-2.7c1.2,0,2.5,0.3,3.3,0.8l-0.7,1.3c-0.8-0.5-1.7-0.7-2.6-0.7c-1.4,0-2.1,0.5-2.1,1.2c0,2.1,5.7,0.4,5.7,3.9
				c0,1.6-1.5,2.7-3.9,2.7C138,85.9,136.5,85.4,135.7,84.8z"/>
			<path class="st2" d="M144.3,84.8l0.7-1.3c0.8,0.5,2,0.9,3.2,0.9c1.5,0,2.1-0.5,2.1-1.2c0-2-5.7-0.3-5.7-3.9
				c0-1.6,1.4-2.7,3.8-2.7c1.2,0,2.5,0.3,3.3,0.8l-0.7,1.3c-0.8-0.5-1.7-0.7-2.6-0.7c-1.4,0-2.1,0.5-2.1,1.2c0,2.1,5.7,0.4,5.7,3.9
				c0,1.6-1.5,2.7-3.9,2.7C146.5,85.9,145,85.4,144.3,84.8z"/>
			<path class="st2" d="M166.3,82.8H160l-1.3,3h-1.8l5.4-11.9h1.7l5.4,11.9h-1.8L166.3,82.8z M165.7,81.4l-2.6-5.8l-2.6,5.8H165.7z"
				/>
			<path class="st2" d="M169.7,84.8l0.7-1.3c0.8,0.5,2,0.9,3.2,0.9c1.5,0,2.1-0.5,2.1-1.2c0-2-5.7-0.3-5.7-3.9
				c0-1.6,1.4-2.7,3.8-2.7c1.2,0,2.5,0.3,3.3,0.8l-0.7,1.3c-0.8-0.5-1.7-0.7-2.6-0.7c-1.4,0-2.1,0.5-2.1,1.2c0,2.1,5.7,0.4,5.7,3.9
				c0,1.6-1.5,2.7-3.9,2.7C172,85.9,170.5,85.4,169.7,84.8z"/>
			<path class="st2" d="M178.3,84.8l0.7-1.3c0.8,0.5,2,0.9,3.2,0.9c1.5,0,2.1-0.5,2.1-1.2c0-2-5.7-0.3-5.7-3.9
				c0-1.6,1.4-2.7,3.8-2.7c1.2,0,2.5,0.3,3.3,0.8l-0.7,1.3c-0.8-0.5-1.7-0.7-2.6-0.7c-1.4,0-2.1,0.5-2.1,1.2c0,2.1,5.7,0.4,5.7,3.9
				c0,1.6-1.5,2.7-3.9,2.7C180.5,85.9,179,85.4,178.3,84.8z"/>
			<path class="st2" d="M196.1,81.8h-7.3c0.2,1.6,1.5,2.6,3.3,2.6c1.1,0,1.9-0.4,2.6-1.1l0.9,1.1c-0.8,1-2.1,1.5-3.6,1.5
				c-2.9,0-4.9-1.9-4.9-4.6c0-2.7,1.9-4.6,4.5-4.6c2.6,0,4.5,1.9,4.5,4.6C196.1,81.5,196.1,81.7,196.1,81.8z M188.7,80.6h5.8
				c-0.2-1.5-1.3-2.6-2.9-2.6C190.1,78,188.9,79.1,188.7,80.6z"/>
			<path class="st2" d="M197.2,84.8l0.7-1.3c0.8,0.5,2,0.9,3.2,0.9c1.5,0,2.1-0.5,2.1-1.2c0-2-5.7-0.3-5.7-3.9
				c0-1.6,1.4-2.7,3.8-2.7c1.2,0,2.5,0.3,3.3,0.8l-0.7,1.3c-0.8-0.5-1.7-0.7-2.6-0.7c-1.4,0-2.1,0.5-2.1,1.2c0,2.1,5.7,0.4,5.7,3.9
				c0,1.6-1.5,2.7-3.9,2.7C199.5,85.9,198,85.4,197.2,84.8z"/>
			<path class="st2" d="M205.8,84.8l0.7-1.3c0.8,0.5,2,0.9,3.2,0.9c1.5,0,2.1-0.5,2.1-1.2c0-2-5.7-0.3-5.7-3.9
				c0-1.6,1.4-2.7,3.8-2.7c1.2,0,2.5,0.3,3.3,0.8l-0.7,1.3c-0.8-0.5-1.7-0.7-2.6-0.7c-1.4,0-2.1,0.5-2.1,1.2c0,2.1,5.7,0.4,5.7,3.9
				c0,1.6-1.5,2.7-3.9,2.7C208,85.9,206.5,85.4,205.8,84.8z"/>
			<path class="st2" d="M230.4,80.6v5.2h-1.6v-5c0-1.8-0.9-2.6-2.3-2.6c-1.6,0-2.7,1-2.7,3v4.6h-1.6v-5c0-1.8-0.9-2.6-2.3-2.6
				c-1.6,0-2.7,1-2.7,3v4.6h-1.6v-9h1.6v1.3c0.6-0.9,1.8-1.4,3.1-1.4c1.4,0,2.5,0.5,3.1,1.7c0.7-1,1.9-1.7,3.5-1.7
				C228.9,76.7,230.4,77.9,230.4,80.6z"/>
			<path class="st2" d="M241.6,81.8h-7.3c0.2,1.6,1.5,2.6,3.3,2.6c1.1,0,1.9-0.4,2.6-1.1l0.9,1.1c-0.8,1-2.1,1.5-3.6,1.5
				c-2.9,0-4.9-1.9-4.9-4.6c0-2.7,1.9-4.6,4.5-4.6c2.6,0,4.5,1.9,4.5,4.6C241.6,81.5,241.6,81.7,241.6,81.8z M234.3,80.6h5.8
				c-0.2-1.5-1.3-2.6-2.9-2.6C235.6,78,234.4,79.1,234.3,80.6z"/>
			<path class="st2" d="M252.5,80.6v5.2h-1.6v-5c0-1.8-0.9-2.6-2.4-2.6c-1.7,0-2.9,1-2.9,3v4.6h-1.6v-9h1.6v1.4
				c0.7-0.9,1.8-1.4,3.3-1.4C250.9,76.7,252.5,77.9,252.5,80.6z"/>
			<path class="st2" d="M260.6,85.3c-0.5,0.4-1.2,0.6-2,0.6c-1.8,0-2.9-1-2.9-2.8v-5h-1.5v-1.3h1.5v-2h1.6v2h2.6v1.3h-2.6V83
				c0,1,0.5,1.5,1.4,1.5c0.5,0,0.9-0.2,1.3-0.4L260.6,85.3z"/>
		</g>
	</g>
	<g class="st4">
		<path class="st10" d="M64.4,105.6c0-0.4,0-0.7,0-1.1c0.2-2,0.8-4,1.9-5.9H67c-0.6,1.1-1,2.1-1.3,3c-0.3,1-0.4,1.9-0.5,2.9
			c0,0.4,0,0.7,0,1.1c0,1.6,0.3,3.2,0.9,4.8h-0.7C64.7,108.9,64.4,107.3,64.4,105.6z"/>
		<path class="st10" d="M69.7,107.6c-0.6-0.4-1.1-0.9-1.4-1.5s-0.5-1.4-0.5-2.4c0-1.1,0.2-2,0.5-2.8c0.4-0.8,0.9-1.4,1.5-1.8
			c0.7-0.4,1.4-0.6,2.3-0.6c0.8,0,1.6,0.2,2.2,0.5c0.6,0.4,1.1,0.9,1.4,1.5c0.3,0.7,0.5,1.4,0.5,2.4c0,1.1-0.2,2-0.5,2.8
			c-0.4,0.8-0.9,1.4-1.5,1.8c-0.7,0.4-1.4,0.6-2.3,0.6C71.1,108.2,70.3,108,69.7,107.6z M73.7,106.9c0.5-0.4,0.9-0.9,1.2-1.5
			c0.3-0.7,0.4-1.5,0.4-2.4c0-1.2-0.3-2.1-0.8-2.7c-0.6-0.6-1.4-0.9-2.4-0.9c-0.7,0-1.3,0.2-1.9,0.5c-0.5,0.4-0.9,0.9-1.2,1.6
			s-0.4,1.5-0.4,2.4c0,1.2,0.3,2.1,0.8,2.7c0.6,0.6,1.4,0.9,2.4,0.9C72.6,107.4,73.2,107.2,73.7,106.9z"/>
		<path class="st10" d="M82.8,101.7c0.4,0.3,0.8,0.6,1,1.1c0.2,0.5,0.4,1.1,0.4,1.7c0,0.7-0.1,1.4-0.4,1.9c-0.3,0.6-0.6,1-1.1,1.3
			c-0.5,0.3-1,0.5-1.6,0.5c-0.5,0-1-0.1-1.4-0.4c-0.4-0.2-0.7-0.6-0.9-1l-0.3,4.2h-0.8l0.6-7.7c0-0.4,0.1-0.8,0.1-1.2
			c0-0.3,0-0.5,0-0.6H79l0,1.1c0.2-0.4,0.5-0.7,0.9-1s0.9-0.3,1.4-0.3C81.8,101.3,82.3,101.4,82.8,101.7z M82.7,106.7
			c0.4-0.5,0.6-1.3,0.6-2.2c0-0.8-0.2-1.4-0.6-1.8c-0.4-0.4-0.9-0.7-1.6-0.7c-0.7,0-1.3,0.3-1.7,0.8c-0.4,0.5-0.6,1.3-0.6,2.2
			c0,0.8,0.2,1.4,0.6,1.8c0.4,0.4,0.9,0.6,1.6,0.6S82.3,107.2,82.7,106.7z"/>
		<path class="st10" d="M86.9,106c0,0.1,0,0.2,0,0.3c0,0.4,0.1,0.7,0.3,0.9c0.2,0.2,0.5,0.3,0.8,0.3c0.3,0,0.5,0,0.7-0.1l-0.1,0.7
			c-0.3,0.1-0.5,0.1-0.8,0.1c-0.5,0-1-0.1-1.3-0.4c-0.3-0.3-0.5-0.7-0.5-1.3c0-0.1,0-0.2,0-0.3l0.3-4.1h-1.3l0.1-0.6h1.3l0.1-1.8
			l0.8-0.3l-0.2,2.1h2l-0.1,0.6h-2L86.9,106z"/>
		<path class="st10" d="M90.6,101.4h0.8l-0.5,6.6h-0.8L90.6,101.4z M91.8,98.7l-0.1,1h-1.1l0.1-1H91.8z"/>
		<path class="st10" d="M94.3,107.8c-0.4-0.3-0.8-0.6-1-1.1c-0.2-0.5-0.4-1-0.4-1.7c0-0.7,0.1-1.4,0.4-1.9s0.6-1,1.1-1.3
			s1-0.5,1.6-0.5c0.6,0,1.1,0.1,1.6,0.4c0.4,0.3,0.8,0.6,1,1.1c0.2,0.5,0.4,1,0.4,1.7c0,0.7-0.1,1.4-0.4,1.9s-0.6,1-1.1,1.3
			c-0.5,0.3-1,0.5-1.6,0.5C95.3,108.2,94.8,108,94.3,107.8z M97.6,106.6c0.4-0.5,0.6-1.3,0.6-2.2c0-0.8-0.2-1.4-0.6-1.8
			c-0.4-0.4-0.9-0.7-1.6-0.7c-0.7,0-1.3,0.3-1.7,0.8s-0.6,1.3-0.6,2.2c0,0.8,0.2,1.4,0.6,1.8c0.4,0.4,0.9,0.6,1.6,0.6
			C96.7,107.5,97.2,107.2,97.6,106.6z"/>
		<path class="st10" d="M105.8,101.8c0.4,0.4,0.6,0.9,0.6,1.7c0,0.2,0,0.3,0,0.4l-0.3,4.2h-0.8l0.3-4.1c0-0.1,0-0.2,0-0.3
			c0-0.6-0.1-1-0.4-1.2c-0.3-0.3-0.7-0.4-1.2-0.4c-0.7,0-1.2,0.2-1.6,0.6c-0.4,0.4-0.6,0.9-0.7,1.7l-0.3,3.8h-0.8l0.4-4.8
			c0-0.4,0.1-0.8,0.1-1.2c0-0.3,0-0.5,0-0.6h0.8l0,1.2c0.2-0.4,0.5-0.7,0.9-1s0.9-0.3,1.4-0.3C104.8,101.3,105.4,101.5,105.8,101.8z
			"/>
		<path class="st10" d="M114.4,101.4l-0.5,6.6H113l0.1-1.2c-0.2,0.4-0.5,0.7-0.9,0.9s-0.9,0.3-1.3,0.3c-0.6,0-1.1-0.1-1.5-0.4
			c-0.4-0.3-0.8-0.6-1-1.1s-0.4-1.1-0.4-1.7c0-0.7,0.1-1.4,0.4-1.9c0.3-0.6,0.6-1,1.1-1.3s1-0.5,1.6-0.5c0.5,0,1,0.1,1.4,0.4
			s0.7,0.6,0.9,1l0.1-1.2H114.4z M112.7,106.6c0.4-0.5,0.6-1.3,0.6-2.2c0-0.8-0.2-1.4-0.6-1.8c-0.4-0.4-0.9-0.6-1.6-0.6
			c-0.7,0-1.3,0.3-1.7,0.8s-0.6,1.3-0.6,2.2c0,0.8,0.2,1.4,0.6,1.8c0.4,0.4,0.9,0.6,1.6,0.6C111.7,107.5,112.3,107.2,112.7,106.6z"
			/>
		<path class="st10" d="M116.8,98.3h0.8l-0.8,9.7H116L116.8,98.3z"/>
		<path class="st10" d="M120.1,106.9l-0.1,0.9c0,0.3-0.1,0.6-0.2,0.9c-0.1,0.3-0.3,0.5-0.6,0.8l-0.4-0.3c0.3-0.3,0.5-0.7,0.6-1.1
			h-0.5l0.1-1.2H120.1z"/>
		<path class="st10" d="M130.3,101.7c0.4,0.3,0.8,0.6,1,1.1c0.2,0.5,0.4,1.1,0.4,1.7c0,0.7-0.1,1.4-0.4,1.9c-0.3,0.6-0.6,1-1.1,1.3
			c-0.5,0.3-1,0.5-1.6,0.5c-0.5,0-1-0.1-1.4-0.4c-0.4-0.2-0.7-0.6-0.9-1l-0.1,1.3h-0.8l0.8-9.7h0.8l-0.3,4.2
			c0.2-0.4,0.5-0.7,0.9-0.9c0.4-0.2,0.8-0.3,1.3-0.3C129.4,101.3,129.9,101.4,130.3,101.7z M130.3,106.7c0.4-0.5,0.6-1.3,0.6-2.2
			c0-0.8-0.2-1.4-0.6-1.8c-0.4-0.4-0.9-0.7-1.6-0.7c-0.7,0-1.3,0.3-1.7,0.8c-0.4,0.5-0.6,1.3-0.6,2.2c0,0.8,0.2,1.4,0.6,1.8
			c0.4,0.4,0.9,0.6,1.6,0.6S129.8,107.2,130.3,106.7z"/>
		<path class="st10" d="M139.1,101.4l-0.5,6.6h-0.8l0.1-1.2c-0.2,0.4-0.5,0.7-0.9,0.9c-0.4,0.2-0.8,0.3-1.3,0.3
			c-0.7,0-1.3-0.2-1.7-0.6c-0.4-0.4-0.6-0.9-0.6-1.7c0-0.1,0-0.3,0-0.3l0.3-4.1h0.8l-0.3,4.1c0,0.1,0,0.2,0,0.3
			c0,1.1,0.5,1.6,1.6,1.6c0.7,0,1.2-0.2,1.6-0.6c0.4-0.4,0.6-1,0.7-1.7l0.3-3.8H139.1z"/>
		<path class="st10" d="M142,106c0,0.1,0,0.2,0,0.3c0,0.4,0.1,0.7,0.3,0.9c0.2,0.2,0.5,0.3,0.8,0.3c0.3,0,0.5,0,0.7-0.1l-0.1,0.7
			c-0.3,0.1-0.5,0.1-0.8,0.1c-0.5,0-1-0.1-1.3-0.4c-0.3-0.3-0.5-0.7-0.5-1.3c0-0.1,0-0.2,0-0.3l0.3-4.1h-1.3l0.1-0.6h1.3l0.1-1.8
			l0.8-0.3l-0.2,2.1h2l-0.1,0.6h-2L142,106z"/>
		<path class="st10" d="M153.8,101.8c0.4,0.4,0.6,0.9,0.6,1.7c0,0.2,0,0.3,0,0.4l-0.3,4.2h-0.8l0.3-4.1c0-0.1,0-0.2,0-0.3
			c0-0.6-0.1-1-0.4-1.2c-0.3-0.3-0.7-0.4-1.2-0.4c-0.7,0-1.2,0.2-1.6,0.6c-0.4,0.4-0.6,0.9-0.7,1.7l-0.3,3.8h-0.8l0.8-9.7h0.8
			l-0.3,4.2c0.2-0.4,0.5-0.7,0.9-0.9c0.4-0.2,0.8-0.3,1.4-0.3C152.8,101.3,153.4,101.5,153.8,101.8z"/>
		<path class="st10" d="M156.8,101.4h0.8l-0.5,6.6h-0.8L156.8,101.4z M157.9,98.7l-0.1,1h-1.1l0.1-1H157.9z"/>
		<path class="st10" d="M165.4,101.4l-0.5,6.7c-0.2,2-1.2,2.9-3,2.9c-1,0-1.8-0.2-2.6-0.7l0.2-0.7c0.4,0.3,0.8,0.5,1.2,0.6
			s0.8,0.2,1.2,0.2c1.3,0,2.1-0.7,2.2-2.2l0.1-1.5c-0.2,0.4-0.5,0.7-0.9,0.9c-0.4,0.2-0.9,0.3-1.3,0.3c-0.9,0-1.6-0.3-2.1-0.8
			c-0.5-0.6-0.8-1.3-0.8-2.2c0-0.7,0.1-1.3,0.4-1.8c0.3-0.5,0.6-0.9,1.1-1.2c0.5-0.3,1-0.4,1.6-0.4c0.6,0,1,0.1,1.4,0.4
			s0.7,0.6,0.9,1l0.1-1.2H165.4z M163.8,106.4c0.4-0.5,0.6-1.2,0.6-2.1c0-0.8-0.2-1.3-0.6-1.7c-0.4-0.4-0.9-0.6-1.6-0.6
			c-0.7,0-1.3,0.3-1.7,0.8c-0.4,0.5-0.6,1.2-0.6,2.1c0,0.8,0.2,1.3,0.6,1.7c0.4,0.4,0.9,0.6,1.6,0.6
			C162.8,107.1,163.4,106.9,163.8,106.4z"/>
		<path class="st10" d="M172.3,101.8c0.4,0.4,0.6,0.9,0.6,1.7c0,0.2,0,0.3,0,0.4l-0.3,4.2h-0.8l0.3-4.1c0-0.1,0-0.2,0-0.3
			c0-0.6-0.1-1-0.4-1.2c-0.3-0.3-0.7-0.4-1.2-0.4c-0.7,0-1.2,0.2-1.6,0.6c-0.4,0.4-0.6,0.9-0.7,1.7l-0.3,3.8h-0.8l0.8-9.7h0.8
			l-0.3,4.2c0.2-0.4,0.5-0.7,0.9-0.9c0.4-0.2,0.8-0.3,1.4-0.3C171.4,101.3,171.9,101.5,172.3,101.8z"/>
		<path class="st10" d="M175.6,98.3h0.8l-0.8,9.7h-0.8L175.6,98.3z"/>
		<path class="st10" d="M183.9,101.4l-3.7,7.3c-0.4,0.7-0.8,1.3-1.3,1.6c-0.5,0.3-1.1,0.6-1.8,0.7l-0.1-0.6c0.6-0.2,1.1-0.3,1.5-0.6
			s0.6-0.6,0.9-1.1l0.3-0.6l-2.3-6.7h0.8l2,5.8l2.9-5.8H183.9z"/>
		<path class="st10" d="M192.1,101.3L192,102c-0.2,0-0.4-0.1-0.6-0.1c-0.7,0-1.2,0.2-1.6,0.6c-0.4,0.4-0.6,0.9-0.6,1.5l-0.3,3.9
			h-0.8l0.4-4.8c0-0.6,0.1-1,0.1-1.3c0-0.2,0-0.4,0-0.5h0.8l0,1.1c0.2-0.4,0.5-0.7,0.9-0.9s0.8-0.3,1.3-0.3
			C191.7,101.3,191.9,101.3,192.1,101.3z"/>
		<path class="st10" d="M193.3,104.6c0,0.1,0,0.2,0,0.3c0,0.8,0.2,1.4,0.6,1.8c0.4,0.4,0.9,0.7,1.7,0.7c0.4,0,0.8-0.1,1.2-0.2
			c0.4-0.1,0.7-0.3,1.1-0.6l0.3,0.6c-0.3,0.3-0.6,0.5-1.1,0.6c-0.5,0.2-0.9,0.2-1.4,0.2c-0.9,0-1.7-0.3-2.2-0.9
			c-0.5-0.6-0.8-1.4-0.8-2.3c0-0.7,0.1-1.4,0.4-1.9c0.3-0.6,0.6-1,1.1-1.3c0.5-0.3,1.1-0.5,1.7-0.5c0.8,0,1.5,0.2,2,0.7
			c0.5,0.5,0.7,1.2,0.7,2.1c0,0.2,0,0.4,0,0.6H193.3z M194.2,102.5c-0.4,0.4-0.7,0.9-0.8,1.6h4.3c0-0.7-0.1-1.2-0.5-1.6
			c-0.3-0.4-0.8-0.5-1.4-0.5C195.1,101.9,194.6,102.1,194.2,102.5z"/>
		<path class="st10" d="M201,107.8c-0.4-0.3-0.8-0.6-1-1.1c-0.2-0.5-0.4-1-0.4-1.7c0-0.7,0.1-1.4,0.4-1.9c0.3-0.6,0.6-1,1.1-1.3
			s1.1-0.5,1.7-0.5c0.5,0,0.9,0.1,1.3,0.2c0.4,0.1,0.8,0.4,1,0.6l-0.4,0.6c-0.4-0.3-0.7-0.5-1-0.6c-0.3-0.1-0.7-0.2-1-0.2
			c-0.8,0-1.4,0.3-1.8,0.8c-0.4,0.5-0.6,1.3-0.6,2.2c0,0.8,0.2,1.4,0.6,1.8c0.4,0.4,0.9,0.7,1.6,0.7c0.4,0,0.7-0.1,1-0.2
			s0.6-0.3,1-0.6l0.3,0.6c-0.3,0.3-0.6,0.5-1,0.6c-0.4,0.2-0.8,0.2-1.3,0.2C202,108.2,201.5,108,201,107.8z"/>
		<path class="st10" d="M207.5,107.8c-0.4-0.3-0.8-0.6-1-1.1c-0.2-0.5-0.4-1-0.4-1.7c0-0.7,0.1-1.4,0.4-1.9s0.6-1,1.1-1.3
			s1-0.5,1.6-0.5c0.6,0,1.1,0.1,1.6,0.4c0.4,0.3,0.8,0.6,1,1.1c0.2,0.5,0.4,1,0.4,1.7c0,0.7-0.1,1.4-0.4,1.9s-0.6,1-1.1,1.3
			c-0.5,0.3-1,0.5-1.6,0.5C208.5,108.2,208,108,207.5,107.8z M210.8,106.6c0.4-0.5,0.6-1.3,0.6-2.2c0-0.8-0.2-1.4-0.6-1.8
			c-0.4-0.4-0.9-0.7-1.6-0.7c-0.7,0-1.3,0.3-1.7,0.8s-0.6,1.3-0.6,2.2c0,0.8,0.2,1.4,0.6,1.8c0.4,0.4,0.9,0.6,1.6,0.6
			C209.8,107.5,210.4,107.2,210.8,106.6z"/>
		<path class="st10" d="M222.9,101.8c0.4,0.4,0.5,0.9,0.5,1.6c0,0.2,0,0.3,0,0.4l-0.3,4.2h-0.8l0.3-4.1c0-0.1,0-0.2,0-0.4
			c0-0.5-0.1-0.9-0.3-1.2s-0.6-0.4-1.1-0.4c-0.6,0-1.1,0.2-1.5,0.6c-0.4,0.4-0.6,1-0.6,1.7l-0.3,3.8H218l0.3-4.1c0-0.1,0-0.2,0-0.4
			c0-0.5-0.1-0.9-0.4-1.2c-0.2-0.3-0.6-0.4-1.1-0.4c-0.6,0-1.1,0.2-1.5,0.6c-0.4,0.4-0.6,1-0.6,1.7l-0.3,3.8h-0.8l0.4-4.8
			c0-0.6,0.1-1,0.1-1.3c0-0.2,0-0.4,0-0.5h0.8l0,1.1c0.2-0.4,0.5-0.7,0.9-1c0.4-0.2,0.8-0.3,1.3-0.3c1.1,0,1.7,0.4,2,1.3
			c0.2-0.4,0.5-0.7,0.9-0.9c0.4-0.2,0.8-0.3,1.4-0.3C222,101.3,222.5,101.5,222.9,101.8z"/>
		<path class="st10" d="M234.4,101.8c0.4,0.4,0.5,0.9,0.5,1.6c0,0.2,0,0.3,0,0.4l-0.3,4.2h-0.8l0.3-4.1c0-0.1,0-0.2,0-0.4
			c0-0.5-0.1-0.9-0.3-1.2s-0.6-0.4-1.1-0.4c-0.6,0-1.1,0.2-1.5,0.6c-0.4,0.4-0.6,1-0.6,1.7l-0.3,3.8h-0.8l0.3-4.1c0-0.1,0-0.2,0-0.4
			c0-0.5-0.1-0.9-0.4-1.2c-0.2-0.3-0.6-0.4-1.1-0.4c-0.6,0-1.1,0.2-1.5,0.6c-0.4,0.4-0.6,1-0.6,1.7l-0.3,3.8h-0.8l0.4-4.8
			c0-0.6,0.1-1,0.1-1.3c0-0.2,0-0.4,0-0.5h0.8l0,1.1c0.2-0.4,0.5-0.7,0.9-1c0.4-0.2,0.8-0.3,1.3-0.3c1.1,0,1.7,0.4,2,1.3
			c0.2-0.4,0.5-0.7,0.9-0.9c0.4-0.2,0.8-0.3,1.4-0.3C233.5,101.3,234,101.5,234.4,101.8z"/>
		<path class="st10" d="M237.4,104.6c0,0.1,0,0.2,0,0.3c0,0.8,0.2,1.4,0.6,1.8c0.4,0.4,0.9,0.7,1.7,0.7c0.4,0,0.8-0.1,1.2-0.2
			c0.4-0.1,0.7-0.3,1.1-0.6l0.3,0.6c-0.3,0.3-0.6,0.5-1.1,0.6c-0.5,0.2-0.9,0.2-1.4,0.2c-0.9,0-1.7-0.3-2.2-0.9
			c-0.5-0.6-0.8-1.4-0.8-2.3c0-0.7,0.1-1.4,0.4-1.9c0.3-0.6,0.6-1,1.1-1.3c0.5-0.3,1.1-0.5,1.7-0.5c0.8,0,1.5,0.2,2,0.7
			c0.5,0.5,0.7,1.2,0.7,2.1c0,0.2,0,0.4,0,0.6H237.4z M238.3,102.5c-0.4,0.4-0.7,0.9-0.8,1.6h4.3c0-0.7-0.1-1.2-0.5-1.6
			c-0.3-0.4-0.8-0.5-1.4-0.5C239.2,101.9,238.7,102.1,238.3,102.5z"/>
		<path class="st10" d="M249.2,101.8c0.4,0.4,0.6,0.9,0.6,1.7c0,0.2,0,0.3,0,0.4l-0.3,4.2h-0.8l0.3-4.1c0-0.1,0-0.2,0-0.3
			c0-0.6-0.1-1-0.4-1.2c-0.3-0.3-0.7-0.4-1.2-0.4c-0.7,0-1.2,0.2-1.6,0.6c-0.4,0.4-0.6,0.9-0.7,1.7l-0.3,3.8h-0.8l0.4-4.8
			c0-0.4,0.1-0.8,0.1-1.2c0-0.3,0-0.5,0-0.6h0.8l0,1.2c0.2-0.4,0.5-0.7,0.9-1s0.9-0.3,1.4-0.3C248.2,101.3,248.8,101.5,249.2,101.8z
			"/>
		<path class="st10" d="M258,98.3l-0.8,9.7h-0.8l0.1-1.1c-0.2,0.4-0.5,0.7-0.9,0.9c-0.4,0.2-0.9,0.3-1.3,0.3c-0.6,0-1-0.1-1.5-0.4
			c-0.4-0.3-0.8-0.6-1-1.1c-0.2-0.5-0.4-1-0.4-1.7c0-0.7,0.1-1.4,0.4-1.9c0.3-0.6,0.6-1,1.1-1.3c0.5-0.3,1-0.5,1.6-0.5
			c0.5,0,1,0.1,1.4,0.4s0.7,0.6,0.9,1l0.3-4.3H258z M256.1,106.6c0.4-0.5,0.6-1.3,0.6-2.2c0-0.8-0.2-1.4-0.6-1.8
			c-0.4-0.4-0.9-0.6-1.6-0.6c-0.7,0-1.3,0.3-1.7,0.8c-0.4,0.5-0.6,1.3-0.6,2.2c0,0.8,0.2,1.4,0.6,1.8c0.4,0.4,0.9,0.7,1.6,0.7
			C255.1,107.5,255.7,107.2,256.1,106.6z"/>
		<path class="st10" d="M260.1,104.6c0,0.1,0,0.2,0,0.3c0,0.8,0.2,1.4,0.6,1.8c0.4,0.4,0.9,0.7,1.7,0.7c0.4,0,0.8-0.1,1.2-0.2
			c0.4-0.1,0.7-0.3,1.1-0.6l0.3,0.6c-0.3,0.3-0.6,0.5-1.1,0.6c-0.5,0.2-0.9,0.2-1.4,0.2c-0.9,0-1.7-0.3-2.2-0.9
			c-0.5-0.6-0.8-1.4-0.8-2.3c0-0.7,0.1-1.4,0.4-1.9c0.3-0.6,0.6-1,1.1-1.3c0.5-0.3,1.1-0.5,1.7-0.5c0.8,0,1.5,0.2,2,0.7
			c0.5,0.5,0.7,1.2,0.7,2.1c0,0.2,0,0.4,0,0.6H260.1z M261,102.5c-0.4,0.4-0.7,0.9-0.8,1.6h4.3c0-0.7-0.1-1.2-0.5-1.6
			c-0.3-0.4-0.8-0.5-1.4-0.5C261.9,101.9,261.4,102.1,261,102.5z"/>
		<path class="st10" d="M273,98.3l-0.8,9.7h-0.8l0.1-1.1c-0.2,0.4-0.5,0.7-0.9,0.9c-0.4,0.2-0.9,0.3-1.3,0.3c-0.6,0-1-0.1-1.5-0.4
			c-0.4-0.3-0.8-0.6-1-1.1c-0.2-0.5-0.4-1-0.4-1.7c0-0.7,0.1-1.4,0.4-1.9c0.3-0.6,0.6-1,1.1-1.3c0.5-0.3,1-0.5,1.6-0.5
			c0.5,0,1,0.1,1.4,0.4s0.7,0.6,0.9,1l0.3-4.3H273z M271.1,106.6c0.4-0.5,0.6-1.3,0.6-2.2c0-0.8-0.2-1.4-0.6-1.8
			c-0.4-0.4-0.9-0.6-1.6-0.6c-0.7,0-1.3,0.3-1.7,0.8c-0.4,0.5-0.6,1.3-0.6,2.2c0,0.8,0.2,1.4,0.6,1.8c0.4,0.4,0.9,0.7,1.6,0.7
			C270.1,107.5,270.7,107.2,271.1,106.6z"/>
		<path class="st10" d="M273.6,110.5c0.6-1.1,1-2.1,1.3-3.1c0.3-1,0.5-1.9,0.5-2.9c0-0.4,0-0.7,0-1.1c0-1.6-0.3-3.2-0.9-4.8h0.7
			c0.7,1.6,1,3.2,1,4.8c0,0.3,0,0.7,0,1.1c-0.1,1-0.3,2-0.6,3s-0.8,2-1.3,2.9H273.6z"/>
	</g>
	<rect x="77.3" y="136.4" class="st2" width="0.8" height="69.7"/>
	<g>
		<g>
			<circle class="st2" cx="77.7" cy="136.4" r="11.4"/>
		</g>
		<g>
			<path class="st6" d="M80.1,133.3c-0.3,0-0.6-0.2-0.6-0.6V129h-5.8c-0.8,0-1.5,0.7-1.5,1.5v11.9c0,0.8,0.7,1.5,1.5,1.5h8.8
				c0.8,0,1.5-0.7,1.5-1.5v-9.1H80.1z"/>
		</g>
		<path class="st7" d="M80,133.3h3.8l-4.3-4.3v3.8C79.5,133.1,79.8,133.3,80,133.3z"/>
		<polygon class="st1" points="83.8,136.4 83.8,133.3 80,133.3 		"/>
	</g>
	<g>
		<g id="g56755_4_" transform="matrix(14,0,0,14,49637.042,519374.88)">
			<path id="path56757_4_" class="st13" d="M-3539.1-37082.3c0,0.4-0.3,0.8-0.8,0.8l0,0c-0.4,0-0.8-0.3-0.8-0.8l0,0
				c0-0.4,0.3-0.8,0.8-0.8l0,0C-3539.5-37083-3539.1-37082.7-3539.1-37082.3L-3539.1-37082.3z"/>
		</g>
		<path id="path53460_4_" class="st14" d="M82.7,218c-3.2,1.6-4.8,4.7-6.3,7.6l-2.2-2.2c-1.1,0.8-2.2,1.5-3.3,2.1l9,9
			c5-1.1,8.6-5.4,8.9-10.5L82.7,218z"/>
		<path id="path38606_4_" class="st6" d="M74.2,223.5c0.7,0.8,1.2,1.9,1.7,3.1c1.7-3.2,3.3-6.8,6.8-8.6c-0.3,1.5-0.6,3.2-0.1,4.7
			c-3,1.5-4.8,4.2-6.7,7c-1.8-2.5-3.3-3.3-5.1-4.2C72,225,73.1,224.3,74.2,223.5L74.2,223.5z"/>
	</g>
</g>
</svg>
