<?xml version="1.0" encoding="utf-8"?>
<!-- Generator: Adobe Illustrator 24.2.3, SVG Export Plug-In . SVG Version: 6.00 Build 0)  -->
<svg version="1.1" xmlns="http://www.w3.org/2000/svg" xmlns:xlink="http://www.w3.org/1999/xlink" x="0px" y="0px"
	 viewBox="0 0 450 290.9" style="enable-background:new 0 0 450 290.9;" xml:space="preserve">
<style type="text/css">
	.st0{opacity:0.46;fill:#FFFFFF;}
	.st1{fill:#0A90B7;}
	.st2{fill:#F2F2F2;}
	.st3{fill:#FFFFFF;}
	.st4{font-family:'Montserrat-SemiBold';}
	.st5{font-size:14.5836px;}
	.st6{fill:#A6D7E5;}
	.st7{opacity:0.55;}
	.st8{fill:#757575;}
	.st9{fill:none;stroke:#FFFFFF;stroke-width:2;stroke-linecap:round;}
	.st10{fill:none;}
	.st11{fill:#444444;}
	.st12{font-family:'Muli-Light';}
	.st13{font-size:11.7607px;}
	.st14{letter-spacing:19;}
	.st15{font-family:'Montserrat-Medium';}
	.st16{font-size:13.2307px;}
	.st17{font-family:'Montserrat-LightItalic';}
	.st18{font-size:10.2906px;}
	.st19{fill:none;stroke:#0A90B7;stroke-width:0.75;stroke-miterlimit:10;}
	.st20{opacity:0.46;fill:#209ABD;}
	.st21{opacity:0.6;fill:#0A90B7;}
	.st22{font-size:16.0925px;}
	.st23{font-size:14.3045px;}
	.st24{letter-spacing:23;}
	.st25{fill:#0A90B7;stroke:#0A90B7;stroke-width:0.25;stroke-miterlimit:10;}
	.st26{font-family:'Muli-Black';}
	.st27{letter-spacing:15;}
	.st28{opacity:0.55;fill:#F2F2F2;}
	.st29{fill:#1294C2;}
	.st30{fill:#C71F25;}
	.st31{opacity:0.1;enable-background:new    ;}
</style>
<g id="Layer_6">
	<rect x="49.2" class="st0" width="351.6" height="291.5"/>
</g>
<g id="Shapes">
	<path id="Path_7616_3_" class="st1" d="M381.5,48.7H106.3V11h275.2l8.3,18.9L381.5,48.7z"/>
	<rect x="60.2" y="11" class="st2" width="46.1" height="37.7"/>
</g>
<g id="background">
</g>
<g id="text">
	<text transform="matrix(1 0 0 1 119.042 35.0728)" class="st3 st4 st5">Preparation</text>
</g>
<g id="Graphics">
	<g>
		<path class="st3" d="M77.2,39.3c-2.1,0-3.9-0.9-5.2-2.6c-1.3-1.7-2-4.1-2-6.9c0-2.8,0.7-5.2,2-6.9c1.3-1.7,3.1-2.6,5.2-2.6
			c2.1,0,3.9,0.9,5.2,2.6c1.3,1.7,2,4.1,2,6.9c0,2.8-0.7,5.2-2,6.9C81.1,38.5,79.3,39.3,77.2,39.3L77.2,39.3z M77.2,24.5
			c-0.6,0-0.9,0.3-1.2,1c-0.2,0.6-0.5,1.8-0.5,4.4c0,2.6,0.3,3.8,0.5,4.4c0.3,0.7,0.6,1,1.2,1c0.6,0,1-0.3,1.2-1
			c0.2-0.6,0.5-1.8,0.5-4.4c0-2.6-0.3-3.8-0.5-4.4C78.2,24.8,77.8,24.5,77.2,24.5L77.2,24.5z M95.4,39.3c0.4,0,0.7-0.4,0.7-1V36
			c0-0.5-0.3-1-0.7-1h-1c-1,0-1-0.5-1-1V21.3c0-0.5-0.3-1-0.7-1h-3.1c-0.3,0-0.6,0.2-0.7,0.6c-0.2,0.6-0.5,1-1,1.3
			c-0.6,0.3-1.4,0.5-2.4,0.5c-0.4,0-0.7,0.4-0.7,1v2.3c0,0.3,0.1,0.5,0.2,0.7c0.1,0.2,0.3,0.3,0.5,0.3h2.2v7v0.5c0,0.3,0,0.7-1,0.7
			h-1.1c-0.4,0-0.7,0.4-0.7,1v2.3c0,0.5,0.3,1,0.7,1H95.4L95.4,39.3z"/>
		<path class="st1" d="M85.5,38.4V36h1.1c0.7,0,1.2-0.1,1.4-0.3c0.2-0.2,0.3-0.6,0.3-1.4v-0.5V26h-2.9v-2.3c1.1,0,2-0.2,2.7-0.6
			c0.7-0.4,1.1-1,1.4-1.8h3.1v12.8c0,0.9,0.1,1.5,0.3,1.7c0.2,0.2,0.7,0.3,1.5,0.3h1v2.3H85.5z M70.6,29.8c0-2.6,0.6-4.7,1.8-6.2
			c1.2-1.6,2.8-2.4,4.8-2.4c2,0,3.6,0.8,4.8,2.4c1.2,1.6,1.8,3.7,1.8,6.3c0,2.6-0.6,4.7-1.8,6.2c-1.2,1.6-2.8,2.4-4.8,2.4
			c-2,0-3.6-0.8-4.8-2.4C71.2,34.5,70.6,32.4,70.6,29.8z M74.8,29.8c0,2.2,0.2,3.8,0.6,4.8c0.4,1,1,1.5,1.8,1.5
			c0.8,0,1.4-0.5,1.8-1.5c0.4-1,0.6-2.6,0.6-4.8c0-2.2-0.2-3.8-0.6-4.8c-0.4-1-1-1.5-1.8-1.5c-0.8,0-1.4,0.5-1.8,1.5
			C75,26,74.8,27.6,74.8,29.8z"/>
		<path class="st6" d="M92.8,35.9l-0.2,0.4c-0.3-0.4-0.5-1.1-0.5-2.2V22l0.4-0.5v12.6C92.5,35.1,92.6,35.6,92.8,35.9z M88.3,25.2H86
			l-0.4,0.5h2.7c0,0,0.1,0,0.1,0.1l0.3-0.3C88.6,25.3,88.5,25.2,88.3,25.2z M94.9,36.8v0.9H86l-0.4,0.5h9.6v-1.9L94.9,36.8z
			 M75.2,34.7c-0.4-1-0.6-2.6-0.6-4.9c0-2.3,0.2-3.9,0.6-4.9c0.4-1.1,1.1-1.6,2-1.6c0.6,0,1.1,0.3,1.5,0.7l0.2-0.3
			c-0.4-0.6-1-0.9-1.7-0.9c-1,0-1.8,0.6-2.3,1.8c-0.4,1.1-0.6,2.8-0.6,5.1c0,2.3,0.2,4,0.6,5.1c0.1,0.4,0.3,0.7,0.5,0.9l0.2-0.3
			C75.5,35.3,75.4,35,75.2,34.7z M81.9,23.8l-0.2,0.3c1.1,1.4,1.6,3.3,1.6,5.7c0,2.4-0.6,4.3-1.7,5.7c-1.1,1.4-2.6,2.2-4.4,2.2
			c-1.8,0-3.3-0.7-4.4-2.2v0l-0.2,0.3c0,0,0,0,0,0c1.2,1.5,2.7,2.3,4.6,2.3c1.9,0,3.5-0.8,4.7-2.3c1.2-1.5,1.8-3.6,1.8-6.1
			C83.6,27.4,83.1,25.3,81.9,23.8z"/>
	</g>
</g>
<g id="Layer_5">
	<g class="st7">
		<path id="Path_1554_3_" class="st8" d="M234,174c0,4.9-4,8.9-8.9,8.9c-4.9,0-8.9-4-8.9-8.9s4-8.9,8.9-8.9
			C230,165.1,234,169.1,234,174z"/>
		<g id="Group_1434_3_" transform="translate(4.574 4.222)">
			<g id="arrow_3_" transform="translate(4.574 0)">
				<path id="arrow-2_3_" class="st3" d="M216,175.2c-0.3,0-0.5-0.1-0.7-0.3l-3.9-3.8c-0.4-0.3-0.4-0.9-0.1-1.3c0,0,0,0,0.1-0.1
					c0.4-0.4,1-0.4,1.4,0c0,0,0,0,0,0l3.2,3.1l3.2-3.1c0.4-0.4,1-0.4,1.4,0c0,0,0,0,0,0c0.4,0.3,0.4,0.9,0.1,1.3c0,0,0,0-0.1,0.1
					l-3.9,3.8C216.5,175.1,216.3,175.2,216,175.2z"/>
			</g>
			<path id="Path_1968_3_" class="st9" d="M220.5,173.1v-7.9"/>
		</g>
	</g>
	<g class="st7">
		<rect x="70.9" y="189.6" class="st2" width="308.3" height="89.1"/>
		<g>
			<rect x="96.9" y="237.4" class="st10" width="265.4" height="26.6"/>
			<text transform="matrix(1 0 0 1 96.9463 246.0547)"><tspan x="0" y="0" class="st11 st12 st13 st14">	</tspan><tspan x="22.1" y="0" class="st11 st12 st13">Security Authorization Package (SSP, SAP, </tspan><tspan x="22.1" y="14.7" class="st11 st12 st13">SAR, POA&amp;M)</tspan></text>
		</g>
		<g>
			<rect x="90.5" y="207.6" class="st10" width="175.1" height="15.1"/>
			<text transform="matrix(1 0 0 1 90.5244 218.8301)" class="st1 st15 st16">Full Security Assessment</text>
		</g>
		<g>
			<g>
				<circle class="st1" cx="99.8" cy="241.3" r="8.9"/>
			</g>
			<g>
				<path class="st3" d="M101.7,238.9c-0.3,0-0.5-0.2-0.5-0.5v-2.9h-4.5c-0.6,0-1.2,0.5-1.2,1.2v9.3c0,0.6,0.5,1.2,1.2,1.2h6.8
					c0.6,0,1.2-0.5,1.2-1.2v-7.1H101.7z"/>
			</g>
			<path class="st6" d="M101.6,238.9h3l-3.4-3.4v3C101.2,238.7,101.4,238.9,101.6,238.9z"/>
			<polygon class="st2" points="104.6,241.3 104.6,238.9 101.7,238.9 			"/>
		</g>
	</g>
	<g class="st7">
		<g>
			<rect x="88.8" y="94.5" class="st10" width="224.8" height="14.7"/>
			<text transform="matrix(1 0 0 1 88.8091 105.7354)"><tspan x="0" y="0" class="st1 st15 st16">Readiness Assessment</tspan><tspan x="155.8" y="0" class="st11 st17 st18"> (required)</tspan></text>
		</g>
		<line class="st19" x1="99.3" y1="118.7" x2="99.3" y2="171.4"/>
	</g>
	<g>
		<polygon class="st1" points="49.2,194.7 37.5,179.3 49.2,179.3 		"/>
		<polygon class="st1" points="400.8,194.7 412.5,179.3 400.8,179.3 		"/>
		<rect x="49.2" y="171" class="st21" width="351.6" height="14.5"/>
	</g>
	<rect x="49.2" class="st20" width="351.6" height="291.5"/>
	<g>
		<rect x="37.5" y="63.8" class="st2" width="375" height="116.1"/>
		<g>
			<rect x="59.3" y="84.2" class="st10" width="194.7" height="44.5"/>
			<text transform="matrix(1 0 0 1 59.2529 97.8364)" class="st1 st15 st22">FedRAMP Connect</text>
		</g>
		<g>
			<rect x="68.2" y="121" class="st10" width="273.4" height="43.1"/>
			<text transform="matrix(1 0 0 1 68.1743 133.2412)"><tspan x="0" y="0" class="st11 st12 st23 st24">	</tspan><tspan x="26.8" y="0" class="st11 st12 st23">FedRAMP Connect Business Case</tspan><tspan x="0" y="26.8" class="st25 st26 st23">•</tspan><tspan x="7.6" y="26.8" class="st11 st12 st23 st27">	</tspan><tspan x="26.8" y="26.8" class="st11 st12 st23">Prioritized to work with JAB</tspan></text>
		</g>
		<line class="st19" x1="72.1" y1="123.3" x2="72.1" y2="154"/>
		<g>
			<g>
				<circle class="st1" cx="72.1" cy="126.7" r="10.8"/>
			</g>
			<g>
				<path class="st3" d="M74.3,123.8c-0.3,0-0.6-0.3-0.6-0.6v-3.6h-5.5c-0.8,0-1.4,0.6-1.4,1.4v11.3c0,0.8,0.6,1.4,1.4,1.4h8.2
					c0.8,0,1.4-0.6,1.4-1.4v-8.6H74.3z"/>
			</g>
			<path class="st6" d="M74.3,123.8h3.6l-4.1-4.1v3.6C73.8,123.6,74,123.8,74.3,123.8z"/>
			<polygon class="st2" points="77.9,126.7 77.9,123.8 74.3,123.8 			"/>
		</g>
	</g>
</g>
</svg>
