<?xml version="1.0" encoding="utf-8"?>
<!-- Generator: Adobe Illustrator 24.2.3, SVG Export Plug-In . SVG Version: 6.00 Build 0)  -->
<svg version="1.1" xmlns="http://www.w3.org/2000/svg" xmlns:xlink="http://www.w3.org/1999/xlink" x="0px" y="0px"
	 viewBox="0 0 450 350" style="enable-background:new 0 0 450 350;" xml:space="preserve">
<style type="text/css">
	.st0{opacity:0.46;fill:#FFFFFF;}
	.st1{fill:#F2F2F2;}
	.st2{fill:#0A90B7;}
	.st3{fill:#1294C2;}
	.st4{fill:#FFFFFF;}
	.st5{fill:#A6D7E5;}
	.st6{opacity:0.46;fill:#209ABD;}
	.st7{opacity:0.6;fill:#0A90B7;}
	.st8{fill:none;stroke:#0A90B7;stroke-width:0.75;stroke-miterlimit:10;}
	.st9{fill:#757575;}
	.st10{fill:none;stroke:#FFFFFF;stroke-width:2;stroke-linecap:round;}
	.st11{fill:#C71F25;}
	.st12{opacity:0.1;enable-background:new    ;}
	.st13{font-family:'Montserrat-SemiBold';}
	.st14{font-size:17.498px;}
	.st15{opacity:0.55;}
	.st16{fill:none;}
	.st17{fill:#444444;}
	.st18{font-family:'Muli-Light';}
	.st19{font-size:15.0725px;}
	.st20{letter-spacing:24;}
	.st21{fill:#0A90B7;stroke:#0A90B7;stroke-width:0.25;stroke-miterlimit:10;}
	.st22{font-family:'Muli-Black';}
	.st23{letter-spacing:16;}
	.st24{font-family:'Montserrat-Medium';}
	.st25{font-size:16.9566px;}
	.st26{font-family:'Muli-LightItalic';}
	.st27{font-size:13.1885px;}
	.st28{font-size:18.1548px;}
	.st29{letter-spacing:19;}
	.st30{letter-spacing:29;}
	.st31{font-size:20.4241px;}
	.st32{fill:#D8D8D8;}
	.st33{opacity:0.55;fill:#F2F2F2;}
	.st34{opacity:0.55;fill:none;stroke:#0A90B7;stroke-width:0.75;stroke-miterlimit:10;}
	.st35{fill:#A00A0F;}
</style>
<g id="Layer_6">
</g>
<g id="Shapes">
</g>
<g id="background">
</g>
<g id="text">
</g>
<g id="Graphics">
</g>
<g id="Layer_5">
	<rect x="14.1" class="st0" width="421.8" height="350"/>
	<path id="Path_7616_3_" class="st2" d="M412.8,58.4H82.5V13.2h330.2l9.9,22.6L412.8,58.4z"/>
	<rect x="27.2" y="13.2" class="st1" width="55.3" height="45.3"/>
	<text transform="matrix(1 0 0 1 97.8371 42.0786)" class="st4 st13 st14">Preparation</text>
	<g>
		<path id="Path_1554_4_" class="st9" d="M233.7,320.9c0,6.3-5.1,11.4-11.4,11.4s-11.4-5.1-11.4-11.4c0-6.3,5.1-11.4,11.4-11.4
			S233.7,314.6,233.7,320.9z"/>
		<g id="Group_1434_4_" transform="translate(4.574 4.222)">
			<g id="arrow_4_" transform="translate(4.574 0)">
				<path id="arrow-2_4_" class="st4" d="M213.3,323.5c-0.3,0-0.6-0.1-0.9-0.4l-5-4.8c-0.5-0.4-0.5-1.2-0.1-1.6c0,0,0-0.1,0.1-0.1
					c0.5-0.5,1.3-0.5,1.7,0c0,0,0,0,0,0l4.1,4l4.1-4c0.5-0.5,1.3-0.5,1.7,0c0,0,0,0,0,0c0.5,0.4,0.5,1.2,0.1,1.6c0,0,0,0-0.1,0.1
					l-5,4.8C213.9,323.4,213.6,323.5,213.3,323.5z"/>
			</g>
			<path id="Path_1968_4_" class="st10" d="M217.8,320.9v-10.1"/>
		</g>
	</g>
	<g>
		<path class="st4" d="M47.6,47.2c-2.6,0-4.7-1.1-6.3-3.1c-1.6-2.1-2.4-4.9-2.4-8.3c0-3.4,0.8-6.2,2.4-8.3c1.6-2.1,3.7-3.1,6.3-3.1
			c2.6,0,4.7,1.1,6.3,3.1c1.6,2.1,2.4,4.9,2.4,8.3c0,3.4-0.8,6.2-2.4,8.3C52.3,46.1,50.2,47.2,47.6,47.2L47.6,47.2z M47.7,29.4
			c-0.7,0-1.1,0.4-1.4,1.2c-0.3,0.7-0.6,2.2-0.6,5.2c0,3.1,0.3,4.5,0.6,5.2c0.3,0.8,0.7,1.2,1.4,1.2c0.7,0,1.1-0.4,1.5-1.2
			c0.3-0.7,0.6-2.2,0.6-5.2c0-3.1-0.3-4.6-0.6-5.3C48.8,29.7,48.4,29.4,47.7,29.4L47.7,29.4z M69.5,47.2c0.5,0,0.9-0.5,0.9-1.1v-2.8
			c0-0.6-0.4-1.2-0.9-1.2h-1.2c-1.2,0-1.2-0.6-1.2-1.2V25.5c0-0.6-0.4-1.2-0.9-1.2h-3.8c-0.4,0-0.7,0.3-0.8,0.7
			c-0.2,0.7-0.6,1.2-1.2,1.5c-0.7,0.4-1.6,0.6-2.8,0.6c-0.5,0-0.9,0.5-0.9,1.1v2.8c0,0.3,0.1,0.6,0.2,0.8c0.2,0.2,0.4,0.3,0.6,0.3
			h2.6v8.3v0.6c0,0.4,0,0.8-1.3,0.8h-1.3c-0.5,0-0.9,0.5-0.9,1.2V46c0,0.6,0.4,1.1,0.9,1.1H69.5L69.5,47.2z"/>
		<path class="st2" d="M57.5,46v-2.8h1.3c0.9,0,1.4-0.1,1.7-0.3c0.3-0.2,0.4-0.8,0.4-1.7v-0.6v-9.5h-3.5v-2.8c1.3,0,2.4-0.3,3.2-0.7
			c0.8-0.5,1.4-1.2,1.7-2.1h3.8v15.3c0,1.1,0.1,1.8,0.3,2c0.2,0.3,0.8,0.4,1.8,0.4h1.2V46H57.5z M39.8,35.8c0-3.1,0.7-5.6,2.2-7.5
			c1.5-1.9,3.4-2.8,5.7-2.8c2.4,0,4.3,0.9,5.7,2.8c1.4,1.9,2.2,4.4,2.2,7.5c0,3.1-0.7,5.6-2.2,7.5c-1.5,1.9-3.4,2.8-5.7,2.8
			c-2.4,0-4.3-0.9-5.7-2.8C40.5,41.4,39.8,38.9,39.8,35.8z M44.8,35.8c0,2.7,0.2,4.6,0.7,5.7c0.4,1.2,1.2,1.8,2.2,1.8
			c1,0,1.7-0.6,2.2-1.8c0.5-1.2,0.7-3.1,0.7-5.7c0-2.7-0.2-4.6-0.7-5.7c-0.4-1.2-1.2-1.8-2.2-1.8c-1,0-1.7,0.6-2.2,1.8
			C45,31.2,44.8,33.1,44.8,35.8z"/>
		<path class="st5" d="M66.4,43.1l-0.3,0.4c-0.4-0.4-0.6-1.3-0.6-2.7V26.4l0.4-0.6v15.1C66,42.1,66.1,42.8,66.4,43.1z M61,30.3h-2.8
			l-0.4,0.6H61c0.1,0,0.1,0,0.2,0.1l0.3-0.4C61.4,30.4,61.2,30.3,61,30.3z M68.8,44.1v1.1H58.2l-0.4,0.6h11.5v-2.2L68.8,44.1z
			 M45.3,41.6c-0.5-1.2-0.7-3.1-0.7-5.9c0-2.7,0.2-4.6,0.7-5.9c0.5-1.3,1.3-1.9,2.4-1.9c0.7,0,1.3,0.3,1.8,0.9l0.3-0.4
			c-0.5-0.7-1.2-1.1-2.1-1.1c-1.2,0-2.2,0.8-2.7,2.2c-0.5,1.3-0.7,3.3-0.7,6.1c0,2.8,0.2,4.8,0.7,6.1c0.2,0.4,0.4,0.8,0.6,1.1
			l0.3-0.4C45.6,42.3,45.4,42,45.3,41.6z M53.3,28.6L53,29c1.3,1.7,1.9,4,1.9,6.8c0,2.9-0.7,5.2-2,6.9c-1.3,1.7-3.1,2.6-5.3,2.6
			c-2.2,0-4-0.9-5.3-2.6v0l-0.3,0.4c0,0,0,0,0,0c1.4,1.8,3.3,2.7,5.6,2.7c2.3,0,4.2-0.9,5.6-2.8c1.4-1.8,2.1-4.3,2.1-7.3
			C55.3,32.8,54.7,30.4,53.3,28.6z"/>
	</g>
	<g class="st15">
		<rect x="38.2" y="76.4" class="st1" width="373.5" height="221.5"/>
		<g>
			<rect x="70.6" y="154.9" class="st16" width="331.5" height="120.6"/>
			<text transform="matrix(1 0 0 1 70.6261 167.8389)"><tspan x="0" y="0" class="st17 st18 st19 st20">	</tspan><tspan x="28.3" y="0" class="st17 st18 st19">RAR Development</tspan><tspan x="0" y="28.3" class="st21 st22 st19">•</tspan><tspan x="8" y="28.3" class="st17 st18 st19 st23">	</tspan><tspan x="28.3" y="28.3" class="st17 st18 st19">FedRAMP PMO Review of RAR</tspan><tspan x="0" y="56.5" class="st21 st22 st19">•</tspan><tspan x="8" y="56.5" class="st17 st18 st19 st23">	</tspan><tspan x="28.3" y="56.5" class="st17 st18 st19">Remediation (if needed)</tspan><tspan x="0" y="84.8" class="st17 st18 st19 st20">	</tspan><tspan x="28.3" y="84.8" class="st17 st18 st19">FedRAMP Marketplace Designation – </tspan><tspan x="28.3" y="103.6" class="st17 st18 st19">Ready</tspan></text>
		</g>
		<g>
			<rect x="61.2" y="97.8" class="st16" width="205.2" height="46.9"/>
			<text transform="matrix(1 0 0 1 61.1661 112.2549)" class="st2 st24 st25">Readiness Assessment</text>
		</g>
		<text transform="matrix(1 0 0 1 60.0529 134.4473)" class="st17 st26 st27">(Optional, but highly recommended)</text>
		<line class="st8" x1="74.7" y1="162.6" x2="74.7" y2="232"/>
		<g>
			<g>
				<circle class="st2" cx="74.7" cy="162.6" r="11.4"/>
			</g>
			<g>
				<path class="st4" d="M77,159.5c-0.3,0-0.6-0.3-0.6-0.6v-3.7h-5.8c-0.8,0-1.5,0.7-1.5,1.5v11.9c0,0.8,0.7,1.5,1.5,1.5h8.7
					c0.8,0,1.5-0.7,1.5-1.5v-9.1H77z"/>
			</g>
			<path class="st5" d="M77,159.5h3.8l-4.3-4.3v3.8C76.5,159.3,76.7,159.5,77,159.5z"/>
			<polygon class="st1" points="80.8,162.6 80.8,159.5 77,159.5 			"/>
		</g>
		<g>
			<g id="g56755_1_" transform="matrix(14,0,0,14,49637.042,519374.88)">
				<path id="path56757_1_" class="st11" d="M-3539.4-37080.2c0,0.5-0.4,0.8-0.8,0.8l0,0c-0.4,0-0.8-0.4-0.8-0.8l0,0
					c0-0.4,0.4-0.8,0.8-0.8l0,0C-3539.7-37081.1-3539.4-37080.7-3539.4-37080.2L-3539.4-37080.2z"/>
			</g>
			<path id="path53460_1_" class="st12" d="M80,246.1c-3.2,1.5-4.8,4.7-6.3,7.6l-2.1-2.1c-1.1,0.8-2.2,1.5-3.3,2.1l8.9,8.9
				c5-1.1,8.6-5.4,8.9-10.4L80,246.1z"/>
			<path id="path38606_1_" class="st4" d="M71.5,251.6c0.6,0.8,1.2,1.9,1.7,3.1c1.6-3.1,3.3-6.8,6.8-8.5c-0.3,1.5-0.6,3.2-0.1,4.7
				c-3,1.5-4.9,4.2-6.7,7c-1.8-2.5-3.3-3.3-5.1-4.2C69.3,253,70.5,252.4,71.5,251.6L71.5,251.6z"/>
		</g>
	</g>
	<rect x="14.1" y="0" class="st6" width="421.8" height="350"/>
	<g>
		<polygon class="st2" points="14.1,345.2 0,326.8 14.1,326.8 		"/>
		<polygon class="st2" points="435.9,345.2 449.9,326.8 435.9,326.8 		"/>
		<rect x="14.1" y="316.8" class="st7" width="421.8" height="17.4"/>
	</g>
	<g>
		<rect x="0.1" y="94.5" class="st4" width="449.9" height="232.5"/>
		<g>
			<rect x="39.1" y="158.3" class="st16" width="375.2" height="145.3"/>
			<text transform="matrix(1 0 0 1 39.0744 173.7955)"><tspan x="0" y="0" class="st21 st22 st28">•</tspan><tspan x="9.7" y="0" class="st17 st18 st28 st29">	</tspan><tspan x="34" y="0" class="st17 st18 st28">Partnership Establishment</tspan><tspan x="0" y="34" class="st21 st22 st28">•</tspan><tspan x="9.7" y="34" class="st17 st18 st28 st29">	</tspan><tspan x="34" y="34" class="st17 st18 st28">Authorization Planning</tspan><tspan x="0" y="68.1" class="st21 st22 st28">•</tspan><tspan x="9.7" y="68.1" class="st17 st18 st28 st29">	</tspan><tspan x="34" y="68.1" class="st17 st18 st28">Kick-off Meeting</tspan><tspan x="0" y="102.1" class="st17 st18 st28 st30">	</tspan><tspan x="34" y="102.1" class="st17 st18 st28">FedRAMP Marketplace Designation – In </tspan><tspan x="34" y="124.8" class="st17 st18 st28">Process</tspan></text>
		</g>
		<g>
			<rect x="27.7" y="121" class="st16" width="193.3" height="23.4"/>
			<text transform="matrix(1 0 0 1 27.6735 138.3961)" class="st2 st24 st31">Pre-Authorization</text>
		</g>
		<line class="st8" x1="43.9" y1="166.5" x2="43.9" y2="247.9"/>
		<g>
			<path class="st32" d="M58.4,274.6c0-1.8,0-1.8,0-3.5l-3.1-1.1c-0.4-1-0.6-1.5-1-2.6l1.5-3c-1.2-1.3-1.2-1.3-2.5-2.5l-3,1.4
				c-1-0.4-1.5-0.6-2.6-1.1l-1.1-3.2c-1.8,0-1.8,0-3.5,0l-1.1,3.1c-1,0.4-1.5,0.6-2.6,1l-3-1.5c-1.3,1.2-1.3,1.2-2.5,2.5l1.4,3
				c-0.4,1-0.6,1.5-1.1,2.6l-3.2,1.1c0,1.8,0,1.8,0,3.5l3.1,1.1c0.4,1,0.6,1.5,1,2.6l-1.5,3c1.2,1.3,1.2,1.3,2.5,2.5l3-1.4
				c1,0.4,1.5,0.6,2.6,1.1l1.1,3.2c1.8,0,1.8,0,3.5,0l1.1-3.1c1-0.4,1.5-0.6,2.6-1l3,1.5c1.3-1.2,1.3-1.2,2.5-2.5l-1.4-3
				c0.4-1,0.6-1.5,1.1-2.6L58.4,274.6z M44.7,278c-3,0-5.3-2.4-5.3-5.3c0-3,2.4-5.3,5.3-5.3c3,0,5.3,2.4,5.3,5.3
				C50.1,275.6,47.7,278,44.7,278z"/>
			<path class="st11" d="M56.8,273.4c0-1.8,0-1.8,0-3.5l-3.1-1.1c-0.4-1-0.6-1.5-1-2.6l1.5-3c-1.2-1.3-1.2-1.3-2.5-2.5l-3,1.4
				c-1-0.4-1.5-0.6-2.6-1.1l-1.1-3.2c-1.8,0-1.8,0-3.5,0l-1.1,3.1c-1,0.4-1.5,0.6-2.6,1l-3-1.5c-1.3,1.2-1.3,1.2-2.5,2.5l1.4,3
				c-0.4,1-0.6,1.5-1.1,2.6l-3.2,1.1c0,1.8,0,1.8,0,3.5l3.1,1.1c0.4,1,0.6,1.5,1,2.6l-1.5,3c1.2,1.3,1.2,1.3,2.5,2.5l3-1.4
				c1,0.4,1.5,0.6,2.6,1.1l1.1,3.2c1.8,0,1.8,0,3.5,0l1.1-3.1c1-0.4,1.5-0.6,2.6-1l3,1.5c1.3-1.2,1.3-1.2,2.5-2.5l-1.4-3
				c0.4-1,0.6-1.5,1.1-2.6L56.8,273.4z M43.1,276.9c-3,0-5.3-2.4-5.3-5.3c0-3,2.4-5.3,5.3-5.3c3,0,5.3,2.4,5.3,5.3
				C48.5,274.5,46.1,276.9,43.1,276.9z"/>
		</g>
	</g>
</g>
</svg>
