<?xml version="1.0" encoding="utf-8"?>
<!-- Generator: Adobe Illustrator 24.2.3, SVG Export Plug-In . SVG Version: 6.00 Build 0)  -->
<svg version="1.1" xmlns="http://www.w3.org/2000/svg" xmlns:xlink="http://www.w3.org/1999/xlink" x="0px" y="0px"
	 viewBox="0 0 450 290.9" style="enable-background:new 0 0 450 290.9;" xml:space="preserve">
<style type="text/css">
	.st0{opacity:0.46;fill:#FFFFFF;}
	.st1{fill:#0A90B7;}
	.st2{fill:#F2F2F2;}
	.st3{enable-background:new    ;}
	.st4{fill:#FFFFFF;}
	.st5{fill:#A6D7E5;}
	.st6{opacity:0.55;}
	.st7{fill:#757575;}
	.st8{fill:#444444;}
	.st9{opacity:0.46;fill:#209ABD;}
	.st10{opacity:0.6;fill:#0A90B7;}
	.st11{opacity:0.55;fill:#F2F2F2;}
	.st12{fill:#1294C2;}
	.st13{fill:#C71F25;}
	.st14{opacity:0.1;enable-background:new    ;}
</style>
<g id="Layer_6">
	<rect x="49.2" class="st0" width="351.6" height="291.5"/>
</g>
<g id="Shapes">
	<path id="Path_7616_3_" class="st1" d="M381.5,48.7H106.3V11h275.2l8.3,18.9L381.5,48.7z"/>
	<rect x="60.2" y="11" class="st2" width="46.1" height="37.7"/>
</g>
<g id="background">
</g>
<g id="text">
	<g class="st3">
		<path class="st4" d="M129.3,28.5c0,2.2-1.7,3.6-4.3,3.6h-2.3v2.9h-1.9V24.9h4.2C127.6,24.9,129.3,26.2,129.3,28.5z M127.3,28.5
			c0-1.3-0.9-2-2.5-2h-2.2v4.1h2.2C126.5,30.5,127.3,29.8,127.3,28.5z"/>
		<path class="st4" d="M135.5,27.2v1.7c-0.2,0-0.3,0-0.4,0c-1.4,0-2.3,0.8-2.3,2.4v3.8H131v-7.8h1.7v1.1
			C133.2,27.6,134.2,27.2,135.5,27.2z"/>
		<path class="st4" d="M144.3,31.8h-6.1c0.2,1.1,1.2,1.9,2.5,1.9c0.9,0,1.6-0.3,2.1-0.8l1,1.1c-0.7,0.8-1.8,1.3-3.1,1.3
			c-2.6,0-4.3-1.7-4.3-4s1.7-4,4-4c2.3,0,3.9,1.6,3.9,4C144.3,31.4,144.3,31.6,144.3,31.8z M138.2,30.6h4.4c-0.1-1.1-1-1.9-2.2-1.9
			C139.2,28.7,138.4,29.4,138.2,30.6z"/>
		<path class="st4" d="M154.4,31.2c0,2.4-1.7,4-4,4c-1,0-1.9-0.3-2.5-1.1v3.8h-1.8V27.3h1.7v1c0.6-0.7,1.5-1.1,2.6-1.1
			C152.8,27.2,154.4,28.8,154.4,31.2z M152.6,31.2c0-1.5-1-2.4-2.3-2.4c-1.3,0-2.3,0.9-2.3,2.4c0,1.5,1,2.4,2.3,2.4
			C151.6,33.6,152.6,32.7,152.6,31.2z"/>
		<path class="st4" d="M162.7,30.5v4.6h-1.7v-0.9c-0.4,0.7-1.3,1.1-2.5,1.1c-1.8,0-2.9-1-2.9-2.3c0-1.3,0.9-2.3,3.2-2.3h2v-0.1
			c0-1.1-0.6-1.7-1.9-1.7c-0.9,0-1.8,0.3-2.4,0.8l-0.7-1.3c0.8-0.6,2-1,3.3-1C161.4,27.2,162.7,28.3,162.7,30.5z M160.8,32.6v-0.9
			H159c-1.2,0-1.6,0.5-1.6,1c0,0.7,0.6,1.1,1.5,1.1C159.8,33.8,160.5,33.4,160.8,32.6z"/>
		<path class="st4" d="M169.6,27.2v1.7c-0.2,0-0.3,0-0.4,0c-1.4,0-2.3,0.8-2.3,2.4v3.8h-1.8v-7.8h1.7v1.1
			C167.3,27.6,168.3,27.2,169.6,27.2z"/>
		<path class="st4" d="M177.7,30.5v4.6h-1.7v-0.9c-0.4,0.7-1.3,1.1-2.5,1.1c-1.8,0-2.9-1-2.9-2.3c0-1.3,0.9-2.3,3.2-2.3h2v-0.1
			c0-1.1-0.6-1.7-1.9-1.7c-0.9,0-1.8,0.3-2.4,0.8l-0.7-1.3c0.8-0.6,2-1,3.3-1C176.4,27.2,177.7,28.3,177.7,30.5z M175.8,32.6v-0.9
			H174c-1.2,0-1.6,0.5-1.6,1c0,0.7,0.6,1.1,1.5,1.1C174.8,33.8,175.5,33.4,175.8,32.6z"/>
		<path class="st4" d="M184.8,34.6c-0.4,0.4-1.1,0.5-1.8,0.5c-1.7,0-2.7-0.9-2.7-2.6v-3.7H179v-1.5h1.3v-1.8h1.8v1.8h2.1v1.5h-2.1
			v3.7c0,0.8,0.4,1.2,1.1,1.2c0.4,0,0.7-0.1,1-0.3L184.8,34.6z"/>
		<path class="st4" d="M186.1,24.9c0-0.6,0.5-1.1,1.2-1.1s1.2,0.5,1.2,1c0,0.6-0.5,1.1-1.2,1.1C186.6,26,186.1,25.5,186.1,24.9z
			 M186.3,27.3h1.8v7.8h-1.8V27.3z"/>
		<path class="st4" d="M190,31.2c0-2.3,1.8-4,4.1-4c2.4,0,4.2,1.6,4.2,4s-1.7,4-4.2,4C191.7,35.2,190,33.5,190,31.2z M196.4,31.2
			c0-1.5-1-2.4-2.3-2.4c-1.3,0-2.3,0.9-2.3,2.4c0,1.5,1,2.4,2.3,2.4C195.4,33.6,196.4,32.7,196.4,31.2z"/>
		<path class="st4" d="M207.8,30.6v4.5h-1.8v-4.2c0-1.4-0.7-2.1-1.9-2.1c-1.3,0-2.2,0.8-2.2,2.3v3.9h-1.8v-7.8h1.7v1
			c0.6-0.7,1.5-1.1,2.7-1.1C206.4,27.2,207.8,28.3,207.8,30.6z"/>
	</g>
</g>
<g id="Graphics">
	<g>
		<path class="st4" d="M77.2,39.3c-2.1,0-3.9-0.9-5.2-2.6c-1.3-1.7-2-4.1-2-6.9c0-2.8,0.7-5.2,2-6.9c1.3-1.7,3.1-2.6,5.2-2.6
			c2.1,0,3.9,0.9,5.2,2.6c1.3,1.7,2,4.1,2,6.9c0,2.8-0.7,5.2-2,6.9C81.1,38.5,79.3,39.3,77.2,39.3L77.2,39.3z M77.2,24.5
			c-0.6,0-0.9,0.3-1.2,1c-0.2,0.6-0.5,1.8-0.5,4.4c0,2.6,0.3,3.8,0.5,4.4c0.3,0.7,0.6,1,1.2,1c0.6,0,1-0.3,1.2-1
			c0.2-0.6,0.5-1.8,0.5-4.4c0-2.6-0.3-3.8-0.5-4.4C78.2,24.8,77.8,24.5,77.2,24.5L77.2,24.5z M95.4,39.3c0.4,0,0.7-0.4,0.7-1V36
			c0-0.5-0.3-1-0.7-1h-1c-1,0-1-0.5-1-1V21.3c0-0.5-0.3-1-0.7-1h-3.1c-0.3,0-0.6,0.2-0.7,0.6c-0.2,0.6-0.5,1-1,1.3
			c-0.6,0.3-1.4,0.5-2.4,0.5c-0.4,0-0.7,0.4-0.7,1v2.3c0,0.3,0.1,0.5,0.2,0.7c0.1,0.2,0.3,0.3,0.5,0.3h2.2v7v0.5c0,0.3,0,0.7-1,0.7
			h-1.1c-0.4,0-0.7,0.4-0.7,1v2.3c0,0.5,0.3,1,0.7,1H95.4L95.4,39.3z"/>
		<path class="st1" d="M85.5,38.4V36h1.1c0.7,0,1.2-0.1,1.4-0.3c0.2-0.2,0.3-0.6,0.3-1.4v-0.5V26h-2.9v-2.3c1.1,0,2-0.2,2.7-0.6
			c0.7-0.4,1.1-1,1.4-1.8h3.1v12.8c0,0.9,0.1,1.5,0.3,1.7c0.2,0.2,0.7,0.3,1.5,0.3h1v2.3H85.5z M70.6,29.8c0-2.6,0.6-4.7,1.8-6.2
			c1.2-1.6,2.8-2.4,4.8-2.4c2,0,3.6,0.8,4.8,2.4c1.2,1.6,1.8,3.7,1.8,6.3c0,2.6-0.6,4.7-1.8,6.2c-1.2,1.6-2.8,2.4-4.8,2.4
			c-2,0-3.6-0.8-4.8-2.4C71.2,34.5,70.6,32.4,70.6,29.8z M74.8,29.8c0,2.2,0.2,3.8,0.6,4.8c0.4,1,1,1.5,1.8,1.5
			c0.8,0,1.4-0.5,1.8-1.5c0.4-1,0.6-2.6,0.6-4.8c0-2.2-0.2-3.8-0.6-4.8c-0.4-1-1-1.5-1.8-1.5c-0.8,0-1.4,0.5-1.8,1.5
			C75,26,74.8,27.6,74.8,29.8z"/>
		<path class="st5" d="M92.8,35.9l-0.2,0.4c-0.3-0.4-0.5-1.1-0.5-2.2V22l0.4-0.5v12.6C92.5,35.1,92.6,35.6,92.8,35.9z M88.3,25.2H86
			l-0.4,0.5h2.7c0,0,0.1,0,0.1,0.1l0.3-0.3C88.6,25.3,88.5,25.2,88.3,25.2z M94.9,36.8v0.9H86l-0.4,0.5h9.6v-1.9L94.9,36.8z
			 M75.2,34.7c-0.4-1-0.6-2.6-0.6-4.9c0-2.3,0.2-3.9,0.6-4.9c0.4-1.1,1.1-1.6,2-1.6c0.6,0,1.1,0.3,1.5,0.7l0.2-0.3
			c-0.4-0.6-1-0.9-1.7-0.9c-1,0-1.8,0.6-2.3,1.8c-0.4,1.1-0.6,2.8-0.6,5.1c0,2.3,0.2,4,0.6,5.1c0.1,0.4,0.3,0.7,0.5,0.9l0.2-0.3
			C75.5,35.3,75.4,35,75.2,34.7z M81.9,23.8l-0.2,0.3c1.1,1.4,1.6,3.3,1.6,5.7c0,2.4-0.6,4.3-1.7,5.7c-1.1,1.4-2.6,2.2-4.4,2.2
			c-1.8,0-3.3-0.7-4.4-2.2v0l-0.2,0.3c0,0,0,0,0,0c1.2,1.5,2.7,2.3,4.6,2.3c1.9,0,3.5-0.8,4.7-2.3c1.2-1.5,1.8-3.6,1.8-6.1
			C83.6,27.4,83.1,25.3,81.9,23.8z"/>
	</g>
</g>
<g id="Layer_5">
	<g class="st6">
		<path id="Path_1554_3_" class="st7" d="M234,174c0,4.9-4,8.9-8.9,8.9c-4.9,0-8.9-4-8.9-8.9s4-8.9,8.9-8.9
			C230,165.1,234,169.1,234,174z"/>
		<g id="Group_1434_3_" transform="translate(4.574 4.222)">
			<g id="arrow_3_" transform="translate(4.574 0)">
				<path id="arrow-2_3_" class="st4" d="M216,175.2c-0.3,0-0.5-0.1-0.7-0.3l-3.9-3.8c-0.4-0.3-0.4-0.9-0.1-1.3c0,0,0,0,0.1-0.1
					c0.4-0.4,1-0.4,1.4,0c0,0,0,0,0,0l3.2,3.1l3.2-3.1c0.4-0.4,1-0.4,1.4,0c0,0,0,0,0,0c0.4,0.3,0.4,0.9,0.1,1.3c0,0,0,0-0.1,0.1
					l-3.9,3.8C216.5,175.1,216.3,175.2,216,175.2z"/>
			</g>
			<path class="st4" d="M220.5,174.1c-0.6,0-1-0.4-1-1v-7.9c0-0.6,0.4-1,1-1s1,0.4,1,1v7.9C221.5,173.7,221.1,174.1,220.5,174.1z"/>
		</g>
	</g>
	<g class="st6">
		<rect x="70.9" y="189.6" class="st2" width="308.3" height="89.1"/>
		<g>
			<g>
				<path class="st8" d="M120.9,245.9c-0.5-0.2-1-0.5-1.3-0.8l0.3-0.6c0.4,0.4,0.8,0.6,1.3,0.8c0.4,0.2,0.9,0.2,1.5,0.2
					c0.7,0,1.3-0.1,1.6-0.4c0.4-0.3,0.6-0.7,0.6-1.2c0-0.3-0.1-0.6-0.3-0.7c-0.2-0.2-0.4-0.3-0.7-0.5c-0.3-0.1-0.7-0.2-1.2-0.3
					c-0.6-0.1-1.2-0.3-1.6-0.4c-0.4-0.2-0.7-0.4-1-0.7s-0.4-0.7-0.4-1.2c0-0.5,0.1-0.9,0.4-1.2c0.2-0.4,0.6-0.6,1-0.8
					c0.5-0.2,1-0.3,1.6-0.3c0.6,0,1.1,0.1,1.6,0.3c0.5,0.2,0.9,0.5,1.3,0.8l-0.3,0.6c-0.4-0.4-0.8-0.6-1.2-0.8
					c-0.4-0.2-0.9-0.2-1.3-0.2c-0.7,0-1.3,0.2-1.7,0.5s-0.6,0.7-0.6,1.3c0,0.5,0.2,0.8,0.5,1c0.3,0.2,0.9,0.4,1.5,0.6l0.3,0.1
					c0.6,0.1,1.1,0.3,1.5,0.4c0.4,0.1,0.7,0.4,0.9,0.6s0.4,0.7,0.4,1.1c0,0.5-0.1,0.9-0.4,1.2c-0.2,0.3-0.6,0.6-1,0.8
					c-0.5,0.2-1,0.3-1.6,0.3C122,246.1,121.4,246.1,120.9,245.9z"/>
				<path class="st8" d="M127.6,243L127.6,243c0,0.8,0.2,1.4,0.5,1.9c0.4,0.4,0.9,0.6,1.6,0.6c0.7,0,1.4-0.2,1.9-0.7l0.3,0.6
					c-0.3,0.2-0.6,0.4-1,0.6c-0.4,0.1-0.8,0.2-1.2,0.2c-0.9,0-1.6-0.3-2.1-0.8s-0.8-1.3-0.8-2.2c0-0.6,0.1-1.1,0.3-1.6
					c0.2-0.5,0.6-0.8,1-1.1c0.4-0.3,0.9-0.4,1.4-0.4c0.8,0,1.4,0.3,1.8,0.8s0.7,1.2,0.7,2.1v0.2H127.6z M128.3,241.1
					c-0.3,0.3-0.5,0.8-0.6,1.4h3.7c0-0.6-0.2-1.1-0.5-1.4c-0.3-0.3-0.7-0.5-1.3-0.5C129.1,240.6,128.6,240.8,128.3,241.1z"/>
				<path class="st8" d="M134.6,245.8c-0.4-0.3-0.7-0.6-1-1.1c-0.2-0.5-0.3-1-0.3-1.6c0-0.6,0.1-1.2,0.3-1.6c0.2-0.5,0.6-0.8,1-1.1
					c0.4-0.3,0.9-0.4,1.5-0.4c0.4,0,0.8,0.1,1.1,0.2c0.4,0.1,0.7,0.3,0.9,0.6l-0.3,0.6c-0.3-0.3-0.6-0.4-0.9-0.5s-0.6-0.2-0.9-0.2
					c-0.6,0-1.1,0.2-1.5,0.7c-0.4,0.4-0.6,1-0.6,1.8c0,0.8,0.2,1.3,0.5,1.8c0.4,0.4,0.9,0.6,1.5,0.6c0.3,0,0.6-0.1,0.9-0.2
					c0.3-0.1,0.6-0.3,0.9-0.5l0.3,0.6c-0.3,0.2-0.6,0.4-0.9,0.6c-0.4,0.1-0.8,0.2-1.1,0.2C135.5,246.1,135,246,134.6,245.8z"/>
				<path class="st8" d="M144.2,240.2v5.9h-0.7V245c-0.2,0.4-0.5,0.7-0.8,0.9c-0.3,0.2-0.7,0.3-1.2,0.3c-0.7,0-1.2-0.2-1.6-0.6
					c-0.4-0.4-0.5-1-0.5-1.7v-3.7h0.7v3.6c0,0.6,0.1,1,0.4,1.3c0.2,0.3,0.6,0.4,1.1,0.4c0.6,0,1-0.2,1.4-0.5
					c0.3-0.4,0.5-0.8,0.5-1.5v-3.3H144.2z"/>
				<path class="st8" d="M149.3,240.1l0,0.6c-0.1,0-0.3,0-0.5,0c-0.6,0-1,0.2-1.3,0.6c-0.3,0.4-0.4,0.8-0.4,1.4v3.5h-0.7v-4.3
					c0-0.6,0-1.2-0.1-1.6h0.7l0.1,1.1c0.1-0.4,0.4-0.7,0.7-0.9c0.3-0.2,0.7-0.3,1.1-0.3C149,240,149.2,240,149.3,240.1z"/>
				<path class="st8" d="M151.3,237.7v0.9h-1v-0.9H151.3z M150.4,240.2h0.7v5.9h-0.7V240.2z"/>
				<path class="st8" d="M154.2,240.7v3.5c0,0.5,0.1,0.8,0.3,1c0.2,0.2,0.4,0.3,0.8,0.3c0.2,0,0.4,0,0.6-0.1v0.6
					c-0.3,0.1-0.5,0.1-0.8,0.1c-0.5,0-0.9-0.1-1.2-0.4c-0.3-0.3-0.4-0.7-0.4-1.3v-3.6h-1.2v-0.6h1.2v-1.6l0.7-0.3v1.8h1.7v0.6H154.2
					z"/>
				<path class="st8" d="M162.2,240.2l-2.8,6.5c-0.3,0.6-0.6,1.1-1,1.4s-0.9,0.5-1.5,0.6l-0.1-0.6c0.6-0.1,1-0.3,1.3-0.5
					c0.3-0.2,0.5-0.5,0.7-1l0.2-0.6l-2.5-5.9h0.8l2.1,5.2l2.1-5.2H162.2z"/>
				<path class="st8" d="M172.1,243.8h-4.5l-1,2.2h-0.8l3.6-8.4h0.7l3.6,8.4H173L172.1,243.8z M171.8,243.2l-2-4.6l-2,4.6H171.8z"/>
				<path class="st8" d="M179.9,240.2v5.9h-0.7V245c-0.2,0.4-0.5,0.7-0.8,0.9c-0.3,0.2-0.7,0.3-1.2,0.3c-0.7,0-1.2-0.2-1.6-0.6
					c-0.4-0.4-0.5-1-0.5-1.7v-3.7h0.7v3.6c0,0.6,0.1,1,0.4,1.3c0.2,0.3,0.6,0.4,1.1,0.4c0.6,0,1-0.2,1.4-0.5
					c0.3-0.4,0.5-0.8,0.5-1.5v-3.3H179.9z"/>
				<path class="st8" d="M182.9,240.7v3.5c0,0.5,0.1,0.8,0.3,1c0.2,0.2,0.4,0.3,0.8,0.3c0.2,0,0.4,0,0.6-0.1v0.6
					c-0.3,0.1-0.5,0.1-0.8,0.1c-0.5,0-0.9-0.1-1.2-0.4c-0.3-0.3-0.4-0.7-0.4-1.3v-3.6H181v-0.6h1.2v-1.6l0.7-0.3v1.8h1.7v0.6H182.9z
					"/>
				<path class="st8" d="M190.8,242.3v3.8h-0.7v-3.7c0-0.6-0.1-1-0.4-1.3c-0.2-0.3-0.6-0.4-1.1-0.4c-0.6,0-1.1,0.2-1.4,0.5
					c-0.4,0.4-0.5,0.8-0.5,1.5v3.4h-0.7v-8.7h0.7v3.8c0.2-0.4,0.5-0.7,0.8-0.9c0.4-0.2,0.8-0.3,1.2-0.3
					C190.1,240,190.8,240.8,190.8,242.3z"/>
				<path class="st8" d="M193.7,245.8c-0.4-0.3-0.7-0.6-1-1.1c-0.2-0.5-0.3-1-0.3-1.6s0.1-1.1,0.3-1.6c0.2-0.5,0.5-0.8,1-1.1
					s0.9-0.4,1.4-0.4c0.5,0,1,0.1,1.4,0.4c0.4,0.3,0.7,0.6,0.9,1.1c0.2,0.5,0.3,1,0.3,1.6s-0.1,1.1-0.3,1.6
					c-0.2,0.5-0.5,0.8-0.9,1.1c-0.4,0.3-0.9,0.4-1.4,0.4C194.6,246.1,194.1,246,193.7,245.8z M196.6,244.9c0.3-0.4,0.5-1,0.5-1.8
					c0-0.8-0.2-1.4-0.5-1.8c-0.3-0.4-0.8-0.6-1.4-0.6c-0.6,0-1.1,0.2-1.4,0.6c-0.3,0.4-0.5,1-0.5,1.8c0,0.8,0.2,1.4,0.5,1.8
					c0.3,0.4,0.8,0.6,1.4,0.6S196.2,245.3,196.6,244.9z"/>
				<path class="st8" d="M202.5,240.1l0,0.6c-0.1,0-0.3,0-0.5,0c-0.6,0-1,0.2-1.3,0.6c-0.3,0.4-0.4,0.8-0.4,1.4v3.5h-0.7v-4.3
					c0-0.6,0-1.2-0.1-1.6h0.7l0.1,1.1c0.1-0.4,0.4-0.7,0.7-0.9c0.3-0.2,0.7-0.3,1.1-0.3C202.2,240,202.3,240,202.5,240.1z"/>
				<path class="st8" d="M204.4,237.7v0.9h-1v-0.9H204.4z M203.6,240.2h0.7v5.9h-0.7V240.2z"/>
				<path class="st8" d="M210.9,245.5v0.6H206v-0.5l3.9-4.8h-3.8v-0.6h4.6v0.5l-3.9,4.8H210.9z"/>
				<path class="st8" d="M217.3,240.2v5.9h-0.7v-1.1c-0.2,0.4-0.4,0.7-0.8,0.9c-0.3,0.2-0.8,0.3-1.3,0.3c-0.5,0-1-0.1-1.4-0.4
					s-0.7-0.6-0.9-1.1c-0.2-0.5-0.3-1-0.3-1.6s0.1-1.2,0.3-1.6c0.2-0.5,0.5-0.8,0.9-1.1c0.4-0.3,0.9-0.4,1.4-0.4
					c0.5,0,0.9,0.1,1.2,0.3c0.3,0.2,0.6,0.5,0.8,0.9v-1.1H217.3z M216.1,244.9c0.3-0.4,0.5-1,0.5-1.8c0-0.8-0.2-1.4-0.5-1.8
					c-0.3-0.4-0.8-0.6-1.4-0.6s-1.1,0.2-1.4,0.7c-0.3,0.4-0.5,1-0.5,1.8c0,0.8,0.2,1.4,0.5,1.8c0.3,0.4,0.8,0.6,1.5,0.6
					C215.3,245.5,215.8,245.3,216.1,244.9z"/>
				<path class="st8" d="M220.3,240.7v3.5c0,0.5,0.1,0.8,0.3,1c0.2,0.2,0.4,0.3,0.8,0.3c0.2,0,0.4,0,0.6-0.1v0.6
					c-0.3,0.1-0.5,0.1-0.8,0.1c-0.5,0-0.9-0.1-1.2-0.4c-0.3-0.3-0.4-0.7-0.4-1.3v-3.6h-1.2v-0.6h1.2v-1.6l0.7-0.3v1.8h1.7v0.6H220.3
					z"/>
				<path class="st8" d="M224.2,237.7v0.9h-1v-0.9H224.2z M223.4,240.2h0.7v5.9h-0.7V240.2z"/>
				<path class="st8" d="M227,245.8c-0.4-0.3-0.7-0.6-1-1.1c-0.2-0.5-0.3-1-0.3-1.6s0.1-1.1,0.3-1.6c0.2-0.5,0.5-0.8,1-1.1
					s0.9-0.4,1.4-0.4c0.5,0,1,0.1,1.4,0.4c0.4,0.3,0.7,0.6,0.9,1.1c0.2,0.5,0.3,1,0.3,1.6s-0.1,1.1-0.3,1.6
					c-0.2,0.5-0.5,0.8-0.9,1.1c-0.4,0.3-0.9,0.4-1.4,0.4C227.9,246.1,227.4,246,227,245.8z M229.9,244.9c0.3-0.4,0.5-1,0.5-1.8
					c0-0.8-0.2-1.4-0.5-1.8c-0.3-0.4-0.8-0.6-1.4-0.6c-0.6,0-1.1,0.2-1.4,0.6c-0.3,0.4-0.5,1-0.5,1.8c0,0.8,0.2,1.4,0.5,1.8
					c0.3,0.4,0.8,0.6,1.4,0.6S229.6,245.3,229.9,244.9z"/>
				<path class="st8" d="M237.6,242.3v3.8h-0.7v-3.7c0-0.6-0.1-1-0.4-1.3c-0.2-0.3-0.6-0.4-1.1-0.4c-0.6,0-1.1,0.2-1.4,0.5
					c-0.4,0.4-0.5,0.8-0.5,1.5v3.4h-0.7v-4.3c0-0.6,0-1.2-0.1-1.6h0.7l0.1,1.1c0.2-0.4,0.5-0.7,0.8-0.9c0.4-0.2,0.8-0.3,1.2-0.3
					C236.9,240,237.6,240.8,237.6,242.3z"/>
				<path class="st8" d="M242.8,237.7h3.2c0.8,0,1.5,0.2,2,0.6c0.5,0.4,0.7,1,0.7,1.7c0,0.7-0.2,1.3-0.7,1.7c-0.5,0.4-1.1,0.6-2,0.6
					h-2.5v3.8h-0.7V237.7z M246,241.7c0.7,0,1.2-0.1,1.5-0.4c0.3-0.3,0.5-0.7,0.5-1.2c0-0.5-0.2-0.9-0.5-1.2
					c-0.3-0.3-0.8-0.4-1.5-0.4h-2.4v3.4H246z"/>
				<path class="st8" d="M255.1,240.2v5.9h-0.7v-1.1c-0.2,0.4-0.4,0.7-0.8,0.9c-0.3,0.2-0.8,0.3-1.3,0.3c-0.5,0-1-0.1-1.4-0.4
					s-0.7-0.6-0.9-1.1c-0.2-0.5-0.3-1-0.3-1.6s0.1-1.2,0.3-1.6c0.2-0.5,0.5-0.8,0.9-1.1c0.4-0.3,0.9-0.4,1.4-0.4
					c0.5,0,0.9,0.1,1.2,0.3c0.3,0.2,0.6,0.5,0.8,0.9v-1.1H255.1z M253.9,244.9c0.3-0.4,0.5-1,0.5-1.8c0-0.8-0.2-1.4-0.5-1.8
					c-0.3-0.4-0.8-0.6-1.4-0.6s-1.1,0.2-1.4,0.7c-0.3,0.4-0.5,1-0.5,1.8c0,0.8,0.2,1.4,0.5,1.8c0.3,0.4,0.8,0.6,1.5,0.6
					C253.1,245.5,253.6,245.3,253.9,244.9z"/>
				<path class="st8" d="M258.1,245.8c-0.4-0.3-0.7-0.6-1-1.1c-0.2-0.5-0.3-1-0.3-1.6c0-0.6,0.1-1.2,0.3-1.6c0.2-0.5,0.6-0.8,1-1.1
					c0.4-0.3,0.9-0.4,1.5-0.4c0.4,0,0.8,0.1,1.1,0.2c0.4,0.1,0.7,0.3,0.9,0.6l-0.3,0.6c-0.3-0.3-0.6-0.4-0.9-0.5s-0.6-0.2-0.9-0.2
					c-0.6,0-1.1,0.2-1.5,0.7c-0.4,0.4-0.6,1-0.6,1.8c0,0.8,0.2,1.3,0.5,1.8c0.4,0.4,0.9,0.6,1.5,0.6c0.3,0,0.6-0.1,0.9-0.2
					c0.3-0.1,0.6-0.3,0.9-0.5l0.3,0.6c-0.3,0.2-0.6,0.4-0.9,0.6c-0.4,0.1-0.8,0.2-1.1,0.2C259,246.1,258.5,246,258.1,245.8z"/>
				<path class="st8" d="M266.9,246.1l-3.2-2.9v2.9H263v-8.7h0.7v5.5l3-2.7h0.9l-3.1,2.8l3.4,3.1H266.9z"/>
				<path class="st8" d="M273.8,240.2v5.9h-0.7v-1.1c-0.2,0.4-0.4,0.7-0.8,0.9c-0.3,0.2-0.8,0.3-1.3,0.3c-0.5,0-1-0.1-1.4-0.4
					s-0.7-0.6-0.9-1.1c-0.2-0.5-0.3-1-0.3-1.6s0.1-1.2,0.3-1.6c0.2-0.5,0.5-0.8,0.9-1.1c0.4-0.3,0.9-0.4,1.4-0.4
					c0.5,0,0.9,0.1,1.2,0.3c0.3,0.2,0.6,0.5,0.8,0.9v-1.1H273.8z M272.6,244.9c0.3-0.4,0.5-1,0.5-1.8c0-0.8-0.2-1.4-0.5-1.8
					c-0.3-0.4-0.8-0.6-1.4-0.6s-1.1,0.2-1.4,0.7c-0.3,0.4-0.5,1-0.5,1.8c0,0.8,0.2,1.4,0.5,1.8c0.3,0.4,0.8,0.6,1.5,0.6
					C271.7,245.5,272.2,245.3,272.6,244.9z"/>
				<path class="st8" d="M280.8,240.2v5.9c0,0.9-0.2,1.5-0.6,1.9s-1,0.7-1.9,0.7c-0.9,0-1.6-0.2-2.3-0.6l0.1-0.6
					c0.4,0.2,0.7,0.4,1.1,0.5c0.3,0.1,0.7,0.1,1.1,0.1c0.6,0,1-0.2,1.3-0.5c0.3-0.3,0.5-0.8,0.5-1.4v-1.5c-0.2,0.4-0.4,0.7-0.8,0.9
					s-0.8,0.3-1.3,0.3c-0.5,0-1-0.1-1.4-0.4s-0.7-0.6-0.9-1c-0.2-0.4-0.3-1-0.3-1.5c0-0.6,0.1-1.1,0.3-1.5c0.2-0.4,0.5-0.8,0.9-1
					c0.4-0.2,0.9-0.4,1.4-0.4c0.5,0,0.9,0.1,1.3,0.3c0.3,0.2,0.6,0.5,0.8,0.9v-1.1H280.8z M279.6,244.6c0.3-0.4,0.5-1,0.5-1.7
					c0-0.7-0.2-1.3-0.5-1.7c-0.3-0.4-0.8-0.6-1.4-0.6c-0.6,0-1.1,0.2-1.5,0.6c-0.4,0.4-0.5,1-0.5,1.7c0,0.7,0.2,1.3,0.5,1.7
					c0.4,0.4,0.8,0.6,1.5,0.6C278.8,245.2,279.2,245,279.6,244.6z"/>
				<path class="st8" d="M283.2,243L283.2,243c0,0.8,0.2,1.4,0.5,1.9c0.4,0.4,0.9,0.6,1.6,0.6c0.7,0,1.4-0.2,1.9-0.7l0.3,0.6
					c-0.3,0.2-0.6,0.4-1,0.6c-0.4,0.1-0.8,0.2-1.2,0.2c-0.9,0-1.6-0.3-2.1-0.8s-0.8-1.3-0.8-2.2c0-0.6,0.1-1.1,0.3-1.6
					c0.2-0.5,0.6-0.8,1-1.1c0.4-0.3,0.9-0.4,1.4-0.4c0.8,0,1.4,0.3,1.8,0.8s0.7,1.2,0.7,2.1v0.2H283.2z M283.9,241.1
					c-0.3,0.3-0.5,0.8-0.6,1.4h3.7c0-0.6-0.2-1.1-0.5-1.4c-0.3-0.3-0.7-0.5-1.3-0.5C284.7,240.6,284.2,240.8,283.9,241.1z"/>
				<path class="st8" d="M292.9,245.6c-0.2-0.9-0.3-1.8-0.3-2.7c0-0.9,0.1-1.8,0.3-2.6c0.2-0.9,0.5-1.7,1-2.6h0.6
					c-0.4,1-0.7,1.9-0.9,2.7c-0.2,0.8-0.3,1.7-0.3,2.5c0,0.8,0.1,1.7,0.3,2.6c0.2,0.9,0.5,1.8,0.9,2.7h-0.6
					C293.4,247.3,293.1,246.5,292.9,245.6z"/>
				<path class="st8" d="M296.9,245.9c-0.5-0.2-1-0.5-1.3-0.8l0.3-0.6c0.4,0.4,0.8,0.6,1.3,0.8c0.4,0.2,0.9,0.2,1.5,0.2
					c0.7,0,1.3-0.1,1.6-0.4c0.4-0.3,0.6-0.7,0.6-1.2c0-0.3-0.1-0.6-0.3-0.7c-0.2-0.2-0.4-0.3-0.7-0.5c-0.3-0.1-0.7-0.2-1.2-0.3
					c-0.6-0.1-1.2-0.3-1.6-0.4c-0.4-0.2-0.7-0.4-1-0.7s-0.4-0.7-0.4-1.2c0-0.5,0.1-0.9,0.4-1.2c0.2-0.4,0.6-0.6,1-0.8
					c0.5-0.2,1-0.3,1.6-0.3c0.6,0,1.1,0.1,1.6,0.3c0.5,0.2,0.9,0.5,1.3,0.8l-0.3,0.6c-0.4-0.4-0.8-0.6-1.2-0.8
					c-0.4-0.2-0.9-0.2-1.3-0.2c-0.7,0-1.3,0.2-1.7,0.5s-0.6,0.7-0.6,1.3c0,0.5,0.2,0.8,0.5,1c0.3,0.2,0.9,0.4,1.5,0.6l0.3,0.1
					c0.6,0.1,1.1,0.3,1.5,0.4c0.4,0.1,0.7,0.4,0.9,0.6s0.4,0.7,0.4,1.1c0,0.5-0.1,0.9-0.4,1.2c-0.2,0.3-0.6,0.6-1,0.8
					c-0.5,0.2-1,0.3-1.6,0.3C298,246.1,297.4,246.1,296.9,245.9z"/>
				<path class="st8" d="M304.2,245.9c-0.5-0.2-1-0.5-1.3-0.8l0.3-0.6c0.4,0.4,0.8,0.6,1.3,0.8c0.4,0.2,0.9,0.2,1.5,0.2
					c0.7,0,1.3-0.1,1.6-0.4c0.4-0.3,0.6-0.7,0.6-1.2c0-0.3-0.1-0.6-0.3-0.7c-0.2-0.2-0.4-0.3-0.7-0.5c-0.3-0.1-0.7-0.2-1.2-0.3
					c-0.6-0.1-1.2-0.3-1.6-0.4c-0.4-0.2-0.7-0.4-1-0.7s-0.4-0.7-0.4-1.2c0-0.5,0.1-0.9,0.4-1.2c0.2-0.4,0.6-0.6,1-0.8
					c0.5-0.2,1-0.3,1.6-0.3c0.6,0,1.1,0.1,1.6,0.3c0.5,0.2,0.9,0.5,1.3,0.8l-0.3,0.6c-0.4-0.4-0.8-0.6-1.2-0.8
					c-0.4-0.2-0.9-0.2-1.3-0.2c-0.7,0-1.3,0.2-1.7,0.5s-0.6,0.7-0.6,1.3c0,0.5,0.2,0.8,0.5,1c0.3,0.2,0.9,0.4,1.5,0.6l0.3,0.1
					c0.6,0.1,1.1,0.3,1.5,0.4c0.4,0.1,0.7,0.4,0.9,0.6s0.4,0.7,0.4,1.1c0,0.5-0.1,0.9-0.4,1.2c-0.2,0.3-0.6,0.6-1,0.8
					c-0.5,0.2-1,0.3-1.6,0.3C305.2,246.1,304.7,246.1,304.2,245.9z"/>
				<path class="st8" d="M310.6,237.7h3.2c0.8,0,1.5,0.2,2,0.6c0.5,0.4,0.7,1,0.7,1.7c0,0.7-0.2,1.3-0.7,1.7c-0.5,0.4-1.1,0.6-2,0.6
					h-2.5v3.8h-0.7V237.7z M313.7,241.7c0.7,0,1.2-0.1,1.5-0.4c0.3-0.3,0.5-0.7,0.5-1.2c0-0.5-0.2-0.9-0.5-1.2
					c-0.3-0.3-0.8-0.4-1.5-0.4h-2.4v3.4H313.7z"/>
				<path class="st8" d="M318.3,245v0.8c0,0.3,0,0.6-0.1,0.8c-0.1,0.3-0.3,0.5-0.5,0.7l-0.4-0.3c0.3-0.3,0.4-0.6,0.4-1h-0.5v-1
					H318.3z"/>
				<path class="st8" d="M324.2,245.9c-0.5-0.2-1-0.5-1.3-0.8l0.3-0.6c0.4,0.4,0.8,0.6,1.3,0.8c0.4,0.2,0.9,0.2,1.5,0.2
					c0.7,0,1.3-0.1,1.6-0.4c0.4-0.3,0.6-0.7,0.6-1.2c0-0.3-0.1-0.6-0.3-0.7c-0.2-0.2-0.4-0.3-0.7-0.5c-0.3-0.1-0.7-0.2-1.2-0.3
					c-0.6-0.1-1.2-0.3-1.6-0.4c-0.4-0.2-0.7-0.4-1-0.7s-0.4-0.7-0.4-1.2c0-0.5,0.1-0.9,0.4-1.2c0.2-0.4,0.6-0.6,1-0.8
					c0.5-0.2,1-0.3,1.6-0.3c0.6,0,1.1,0.1,1.6,0.3c0.5,0.2,0.9,0.5,1.3,0.8l-0.3,0.6c-0.4-0.4-0.8-0.6-1.2-0.8
					c-0.4-0.2-0.9-0.2-1.3-0.2c-0.7,0-1.3,0.2-1.7,0.5s-0.6,0.7-0.6,1.3c0,0.5,0.2,0.8,0.5,1c0.3,0.2,0.9,0.4,1.5,0.6l0.3,0.1
					c0.6,0.1,1.1,0.3,1.5,0.4c0.4,0.1,0.7,0.4,0.9,0.6s0.4,0.7,0.4,1.1c0,0.5-0.1,0.9-0.4,1.2c-0.2,0.3-0.6,0.6-1,0.8
					c-0.5,0.2-1,0.3-1.6,0.3C325.3,246.1,324.7,246.1,324.2,245.9z"/>
				<path class="st8" d="M336,243.8h-4.5l-1,2.2h-0.8l3.6-8.4h0.7l3.6,8.4H337L336,243.8z M335.8,243.2l-2-4.6l-2,4.6H335.8z"/>
				<path class="st8" d="M339.2,237.7h3.2c0.8,0,1.5,0.2,2,0.6c0.5,0.4,0.7,1,0.7,1.7c0,0.7-0.2,1.3-0.7,1.7c-0.5,0.4-1.1,0.6-2,0.6
					h-2.5v3.8h-0.7V237.7z M342.4,241.7c0.7,0,1.2-0.1,1.5-0.4c0.3-0.3,0.5-0.7,0.5-1.2c0-0.5-0.2-0.9-0.5-1.2
					c-0.3-0.3-0.8-0.4-1.5-0.4h-2.4v3.4H342.4z"/>
				<path class="st8" d="M347,245v0.8c0,0.3,0,0.6-0.1,0.8c-0.1,0.3-0.3,0.5-0.5,0.7L346,247c0.3-0.3,0.4-0.6,0.4-1H346v-1H347z"/>
				<path class="st8" d="M120.9,260.6c-0.5-0.2-1-0.5-1.3-0.8l0.3-0.6c0.4,0.4,0.8,0.6,1.3,0.8c0.4,0.2,0.9,0.2,1.5,0.2
					c0.7,0,1.3-0.1,1.6-0.4c0.4-0.3,0.6-0.7,0.6-1.2c0-0.3-0.1-0.6-0.3-0.7c-0.2-0.2-0.4-0.3-0.7-0.5c-0.3-0.1-0.7-0.2-1.2-0.3
					c-0.6-0.1-1.2-0.3-1.6-0.4c-0.4-0.2-0.7-0.4-1-0.7s-0.4-0.7-0.4-1.2c0-0.5,0.1-0.9,0.4-1.2c0.2-0.4,0.6-0.6,1-0.8
					c0.5-0.2,1-0.3,1.6-0.3c0.6,0,1.1,0.1,1.6,0.3c0.5,0.2,0.9,0.5,1.3,0.8l-0.3,0.6c-0.4-0.4-0.8-0.6-1.2-0.8
					c-0.4-0.2-0.9-0.2-1.3-0.2c-0.7,0-1.3,0.2-1.7,0.5s-0.6,0.7-0.6,1.3c0,0.5,0.2,0.8,0.5,1c0.3,0.2,0.9,0.4,1.5,0.6l0.3,0.1
					c0.6,0.1,1.1,0.3,1.5,0.4c0.4,0.1,0.7,0.4,0.9,0.6s0.4,0.7,0.4,1.1c0,0.5-0.1,0.9-0.4,1.2c-0.2,0.3-0.6,0.6-1,0.8
					c-0.5,0.2-1,0.3-1.6,0.3C122,260.8,121.4,260.8,120.9,260.6z"/>
				<path class="st8" d="M132.8,258.5h-4.5l-1,2.2h-0.8l3.6-8.4h0.7l3.6,8.4h-0.8L132.8,258.5z M132.5,257.9l-2-4.6l-2,4.6H132.5z"
					/>
				<path class="st8" d="M142.4,260.8h-0.8l-1-2.8c-0.1-0.4-0.3-0.6-0.6-0.8c-0.2-0.1-0.6-0.2-1-0.2h-2.3v3.7h-0.7v-8.4h3.2
					c0.9,0,1.5,0.2,2,0.6c0.5,0.4,0.7,1,0.7,1.7c0,0.5-0.1,1-0.4,1.4s-0.7,0.6-1.2,0.8c0.2,0,0.5,0.1,0.6,0.3
					c0.2,0.2,0.3,0.4,0.4,0.7L142.4,260.8z M139.1,256.4c1.4,0,2.1-0.6,2.1-1.7c0-1.1-0.7-1.7-2.1-1.7h-2.5v3.4H139.1z"/>
				<path class="st8" d="M144.9,259.7v0.8c0,0.3,0,0.6-0.1,0.8c-0.1,0.3-0.3,0.5-0.5,0.7l-0.4-0.3c0.3-0.3,0.4-0.6,0.4-1h-0.5v-1
					H144.9z"/>
				<path class="st8" d="M149.9,252.4h3.2c0.8,0,1.5,0.2,2,0.6c0.5,0.4,0.7,1,0.7,1.7c0,0.7-0.2,1.3-0.7,1.7c-0.5,0.4-1.1,0.6-2,0.6
					h-2.5v3.8h-0.7V252.4z M153.1,256.4c0.7,0,1.2-0.1,1.5-0.4c0.3-0.3,0.5-0.7,0.5-1.2c0-0.5-0.2-0.9-0.5-1.2
					c-0.3-0.3-0.8-0.4-1.5-0.4h-2.4v3.4H153.1z"/>
				<path class="st8" d="M158.9,260.3c-0.6-0.3-1-0.8-1.3-1.5s-0.5-1.4-0.5-2.3s0.1-1.6,0.4-2.3c0.3-0.6,0.7-1.1,1.3-1.5
					s1.2-0.5,2-0.5c0.8,0,1.4,0.2,2,0.5c0.6,0.3,1,0.8,1.3,1.5c0.3,0.6,0.4,1.4,0.4,2.3s-0.2,1.6-0.5,2.3c-0.3,0.6-0.7,1.1-1.3,1.5
					c-0.6,0.3-1.2,0.5-2,0.5C160.1,260.8,159.4,260.7,158.9,260.3z M163.1,259.3c0.5-0.6,0.8-1.5,0.8-2.7s-0.3-2.1-0.8-2.7
					s-1.3-0.9-2.2-0.9c-0.9,0-1.7,0.3-2.2,0.9c-0.5,0.6-0.8,1.5-0.8,2.7c0,1.2,0.3,2,0.8,2.7c0.5,0.6,1.3,1,2.2,1
					S162.5,259.9,163.1,259.3z"/>
				<path class="st8" d="M171.8,258.5h-4.5l-1,2.2h-0.8l3.6-8.4h0.7l3.6,8.4h-0.8L171.8,258.5z M171.5,257.9l-2-4.6l-2,4.6H171.5z"
					/>
				<path class="st8" d="M181.7,260.4l-0.4,0.5c-0.6-0.3-1.2-0.7-1.6-1.2c-0.3,0.4-0.7,0.7-1.1,0.9c-0.4,0.2-0.9,0.3-1.4,0.3
					s-1-0.1-1.4-0.3c-0.4-0.2-0.7-0.4-0.9-0.8c-0.2-0.3-0.3-0.7-0.3-1.1c0-0.5,0.2-1,0.5-1.4c0.3-0.4,0.8-0.8,1.5-1.3
					c-0.4-0.5-0.6-0.8-0.8-1.1s-0.2-0.6-0.2-0.9c0-0.5,0.2-1,0.5-1.3s0.8-0.5,1.4-0.5c0.5,0,1,0.1,1.3,0.4c0.3,0.3,0.5,0.7,0.5,1.2
					c0,0.4-0.1,0.8-0.4,1.1s-0.7,0.7-1.4,1.1l2.1,2.5c0.4-0.7,0.6-1.6,0.6-2.7h0.7c0,1.3-0.3,2.4-0.9,3.2
					C180.5,259.6,181,260,181.7,260.4z M179.3,259.2l-2.3-2.7c-0.6,0.4-1.1,0.8-1.3,1.1c-0.3,0.3-0.4,0.7-0.4,1.1
					c0,0.5,0.2,0.8,0.5,1.1c0.3,0.3,0.8,0.4,1.4,0.4C178,260.2,178.7,259.9,179.3,259.2z M176.4,254.8c0.1,0.2,0.3,0.5,0.7,0.9
					c0.6-0.4,1-0.7,1.2-0.9c0.2-0.2,0.3-0.5,0.3-0.8c0-0.3-0.1-0.6-0.3-0.8c-0.2-0.2-0.5-0.3-0.8-0.3c-0.4,0-0.7,0.1-0.9,0.3
					c-0.2,0.2-0.3,0.5-0.3,0.8C176.3,254.3,176.3,254.5,176.4,254.8z"/>
				<path class="st8" d="M190.6,252.4v8.4h-0.7v-6.7l-2.9,6.7h-0.5l-3-6.6l0,6.6h-0.7v-8.4h0.6l3.3,7.5l3.3-7.5H190.6z"/>
				<path class="st8" d="M192.1,262.9c0.4-1,0.7-1.9,0.9-2.7c0.2-0.9,0.3-1.7,0.3-2.5c0-0.8-0.1-1.7-0.3-2.5
					c-0.2-0.8-0.5-1.7-0.9-2.7h0.6c0.4,0.9,0.7,1.7,1,2.6c0.2,0.9,0.3,1.7,0.3,2.6c0,0.9-0.1,1.8-0.3,2.7c-0.2,0.9-0.5,1.7-1,2.6
					H192.1z"/>
			</g>
		</g>
		<g>
			<g>
				<path class="st1" d="M93.2,210.7v3.2h4.6v1.1h-4.6v3.7h-1.3v-9.3h6.5v1.2H93.2z"/>
				<path class="st1" d="M106.6,211.8v7h-1.2v-1.1c-0.5,0.7-1.4,1.1-2.4,1.1c-1.8,0-3-1-3-3.1v-4h1.3v3.9c0,1.4,0.7,2.1,1.9,2.1
					c1.3,0,2.2-0.8,2.2-2.3v-3.6H106.6z"/>
				<path class="st1" d="M109.1,209h1.3v9.8h-1.3V209z"/>
				<path class="st1" d="M113,209h1.3v9.8H113V209z"/>
				<path class="st1" d="M119.8,217.8l0.5-1c0.7,0.6,1.9,1.1,3.1,1.1c1.6,0,2.3-0.6,2.3-1.4c0-2.3-5.6-0.8-5.6-4.3
					c0-1.4,1.1-2.6,3.5-2.6c1.1,0,2.2,0.3,3,0.8l-0.4,1.1c-0.8-0.5-1.7-0.8-2.5-0.8c-1.6,0-2.2,0.7-2.2,1.5c0,2.3,5.6,0.8,5.6,4.2
					c0,1.4-1.1,2.6-3.6,2.6C121.9,218.9,120.5,218.5,119.8,217.8z"/>
				<path class="st1" d="M135.1,215.7h-5.7c0.2,1.2,1.2,2,2.5,2c0.8,0,1.5-0.3,2-0.8l0.7,0.8c-0.6,0.7-1.6,1.1-2.8,1.1
					c-2.3,0-3.8-1.5-3.8-3.6c0-2.1,1.5-3.6,3.5-3.6s3.5,1.5,3.5,3.6C135.2,215.5,135.1,215.6,135.1,215.7z M129.4,214.8h4.5
					c-0.1-1.2-1-2-2.2-2C130.5,212.8,129.6,213.6,129.4,214.8z"/>
				<path class="st1" d="M136.4,215.3c0-2.1,1.5-3.6,3.7-3.6c1.3,0,2.3,0.5,2.9,1.5l-1,0.6c-0.5-0.7-1.1-1-1.9-1
					c-1.4,0-2.4,1-2.4,2.5c0,1.5,1,2.5,2.4,2.5c0.8,0,1.5-0.3,1.9-1l1,0.6c-0.6,1-1.6,1.5-2.9,1.5
					C137.9,218.9,136.4,217.4,136.4,215.3z"/>
				<path class="st1" d="M151.3,211.8v7h-1.2v-1.1c-0.5,0.7-1.4,1.1-2.4,1.1c-1.8,0-3-1-3-3.1v-4h1.3v3.9c0,1.4,0.7,2.1,1.9,2.1
					c1.3,0,2.2-0.8,2.2-2.3v-3.6H151.3z"/>
				<path class="st1" d="M157.6,211.8v1.2c-0.1,0-0.2,0-0.3,0c-1.4,0-2.2,0.8-2.2,2.4v3.5h-1.3v-7h1.2v1.2
					C155.5,212.2,156.4,211.8,157.6,211.8z"/>
				<path class="st1" d="M159.1,209.6c0-0.5,0.4-0.8,0.9-0.8s0.9,0.4,0.9,0.8c0,0.5-0.4,0.8-0.9,0.8
					C159.4,210.5,159.1,210.1,159.1,209.6z M159.3,211.8h1.3v7h-1.3V211.8z"/>
				<path class="st1" d="M167,218.4c-0.4,0.3-1,0.5-1.5,0.5c-1.4,0-2.2-0.8-2.2-2.2v-3.8h-1.2v-1h1.2v-1.5h1.3v1.5h2v1h-2v3.8
					c0,0.8,0.4,1.2,1.1,1.2c0.4,0,0.7-0.1,1-0.3L167,218.4z"/>
				<path class="st1" d="M174.8,211.8l-3.4,7.7c-0.6,1.5-1.4,1.9-2.5,1.9c-0.7,0-1.4-0.2-1.8-0.6l0.5-1c0.3,0.3,0.8,0.5,1.3,0.5
					c0.6,0,1-0.3,1.3-1.1l0.2-0.5l-3.1-7h1.3l2.4,5.6l2.4-5.6H174.8z"/>
				<path class="st1" d="M185.9,216.5H181l-1,2.3h-1.4l4.2-9.3h1.3l4.2,9.3h-1.4L185.9,216.5z M185.4,215.5l-2-4.5l-2,4.5H185.4z"/>
				<path class="st1" d="M188.7,218.1l0.5-1c0.6,0.4,1.5,0.7,2.5,0.7c1.2,0,1.7-0.4,1.7-1c0-1.6-4.4-0.2-4.4-3
					c0-1.3,1.1-2.1,2.9-2.1c0.9,0,1.9,0.2,2.6,0.6l-0.5,1c-0.6-0.4-1.3-0.6-2-0.6c-1.1,0-1.7,0.4-1.7,1c0,1.7,4.4,0.3,4.4,3
					c0,1.3-1.2,2.1-3,2.1C190.4,218.9,189.3,218.6,188.7,218.1z"/>
				<path class="st1" d="M195.4,218.1l0.5-1c0.6,0.4,1.5,0.7,2.5,0.7c1.2,0,1.7-0.4,1.7-1c0-1.6-4.4-0.2-4.4-3
					c0-1.3,1.1-2.1,2.9-2.1c0.9,0,1.9,0.2,2.6,0.6l-0.5,1c-0.6-0.4-1.3-0.6-2-0.6c-1.1,0-1.7,0.4-1.7,1c0,1.7,4.4,0.3,4.4,3
					c0,1.3-1.2,2.1-3,2.1C197.2,218.9,196,218.6,195.4,218.1z"/>
				<path class="st1" d="M209.4,215.7h-5.7c0.2,1.2,1.2,2,2.5,2c0.8,0,1.5-0.3,2-0.8l0.7,0.8c-0.6,0.7-1.6,1.1-2.8,1.1
					c-2.3,0-3.8-1.5-3.8-3.6c0-2.1,1.5-3.6,3.5-3.6s3.5,1.5,3.5,3.6C209.4,215.5,209.4,215.6,209.4,215.7z M203.7,214.8h4.5
					c-0.1-1.2-1-2-2.2-2C204.7,212.8,203.8,213.6,203.7,214.8z"/>
				<path class="st1" d="M210.4,218.1l0.5-1c0.6,0.4,1.5,0.7,2.5,0.7c1.2,0,1.7-0.4,1.7-1c0-1.6-4.4-0.2-4.4-3
					c0-1.3,1.1-2.1,2.9-2.1c0.9,0,1.9,0.2,2.6,0.6l-0.5,1c-0.6-0.4-1.3-0.6-2-0.6c-1.1,0-1.7,0.4-1.7,1c0,1.7,4.4,0.3,4.4,3
					c0,1.3-1.2,2.1-3,2.1C212.2,218.9,211,218.6,210.4,218.1z"/>
				<path class="st1" d="M217.2,218.1l0.5-1c0.6,0.4,1.5,0.7,2.5,0.7c1.2,0,1.7-0.4,1.7-1c0-1.6-4.4-0.2-4.4-3
					c0-1.3,1.1-2.1,2.9-2.1c0.9,0,1.9,0.2,2.6,0.6l-0.5,1c-0.6-0.4-1.3-0.6-2-0.6c-1.1,0-1.7,0.4-1.7,1c0,1.7,4.4,0.3,4.4,3
					c0,1.3-1.2,2.1-3,2.1C218.9,218.9,217.8,218.6,217.2,218.1z"/>
				<path class="st1" d="M236.5,214.8v4h-1.3v-3.9c0-1.4-0.7-2.1-1.8-2.1c-1.3,0-2.1,0.8-2.1,2.3v3.6H230v-3.9
					c0-1.4-0.7-2.1-1.8-2.1c-1.3,0-2.1,0.8-2.1,2.3v3.6h-1.3v-7h1.2v1c0.5-0.7,1.4-1.1,2.4-1.1c1.1,0,2,0.4,2.4,1.3
					c0.5-0.8,1.5-1.3,2.7-1.3C235.3,211.8,236.5,212.7,236.5,214.8z"/>
				<path class="st1" d="M245.3,215.7h-5.7c0.2,1.2,1.2,2,2.5,2c0.8,0,1.5-0.3,2-0.8l0.7,0.8c-0.6,0.7-1.6,1.1-2.8,1.1
					c-2.3,0-3.8-1.5-3.8-3.6c0-2.1,1.5-3.6,3.5-3.6s3.5,1.5,3.5,3.6C245.3,215.5,245.3,215.6,245.3,215.7z M239.6,214.8h4.5
					c-0.1-1.2-1-2-2.2-2C240.6,212.8,239.7,213.6,239.6,214.8z"/>
				<path class="st1" d="M253.9,214.8v4h-1.3v-3.9c0-1.4-0.7-2.1-1.9-2.1c-1.3,0-2.2,0.8-2.2,2.3v3.6h-1.3v-7h1.2v1.1
					c0.5-0.7,1.4-1.1,2.5-1.1C252.7,211.8,253.9,212.7,253.9,214.8z"/>
				<path class="st1" d="M260.3,218.4c-0.4,0.3-1,0.5-1.5,0.5c-1.4,0-2.2-0.8-2.2-2.2v-3.8h-1.2v-1h1.2v-1.5h1.3v1.5h2v1h-2v3.8
					c0,0.8,0.4,1.2,1.1,1.2c0.4,0,0.7-0.1,1-0.3L260.3,218.4z"/>
			</g>
		</g>
		<g>
			<g>
				<circle class="st1" cx="99.8" cy="241.3" r="8.9"/>
			</g>
			<g>
				<path class="st4" d="M101.7,238.9c-0.3,0-0.5-0.2-0.5-0.5v-2.9h-4.5c-0.6,0-1.2,0.5-1.2,1.2v9.3c0,0.6,0.5,1.2,1.2,1.2h6.8
					c0.6,0,1.2-0.5,1.2-1.2v-7.1H101.7z"/>
			</g>
			<path class="st5" d="M101.6,238.9h3l-3.4-3.4v3C101.2,238.7,101.4,238.9,101.6,238.9z"/>
			<polygon class="st2" points="104.6,241.3 104.6,238.9 101.7,238.9 			"/>
		</g>
	</g>
	<g class="st6">
		<g>
			<g>
				<path class="st1" d="M96.4,105.7l-2-2.8c-0.2,0-0.4,0-0.6,0h-2.3v2.8h-1.3v-9.3h3.6c2.4,0,3.9,1.2,3.9,3.2c0,1.4-0.7,2.5-2,2.9
					l2.2,3.1H96.4z M96.3,99.7c0-1.3-0.9-2.1-2.6-2.1h-2.2v4.2h2.2C95.5,101.8,96.3,101,96.3,99.7z"/>
				<path class="st1" d="M106.1,102.7h-5.7c0.2,1.2,1.2,2.1,2.5,2.1c0.8,0,1.5-0.3,2-0.8l0.7,0.8c-0.6,0.7-1.6,1.1-2.8,1.1
					c-2.3,0-3.8-1.5-3.8-3.6c0-2.1,1.5-3.6,3.5-3.6s3.5,1.5,3.5,3.6C106.1,102.4,106.1,102.5,106.1,102.7z M100.4,101.7h4.5
					c-0.1-1.2-1-2-2.2-2C101.4,99.7,100.5,100.5,100.4,101.7z"/>
				<path class="st1" d="M113.4,101.5v4.2h-1.2v-0.9c-0.4,0.6-1.2,1-2.3,1c-1.6,0-2.6-0.8-2.6-2.1c0-1.1,0.7-2.1,2.8-2.1h2v-0.3
					c0-1.1-0.6-1.7-1.9-1.7c-0.8,0-1.7,0.3-2.2,0.8l-0.5-1c0.7-0.6,1.8-0.9,2.9-0.9C112.3,98.7,113.4,99.6,113.4,101.5z
					 M112.1,103.6v-1h-2c-1.3,0-1.6,0.5-1.6,1.1c0,0.7,0.6,1.1,1.5,1.1C111,104.8,111.8,104.4,112.1,103.6z"/>
				<path class="st1" d="M122.5,95.9v9.8h-1.2v-1.1c-0.6,0.8-1.5,1.2-2.5,1.2c-2.1,0-3.5-1.4-3.5-3.6s1.5-3.6,3.5-3.6
					c1,0,1.9,0.4,2.4,1.1v-3.9H122.5z M121.2,102.2c0-1.5-1-2.5-2.4-2.5c-1.3,0-2.4,1-2.4,2.5c0,1.5,1,2.5,2.4,2.5
					C120.2,104.7,121.2,103.7,121.2,102.2z"/>
				<path class="st1" d="M124.8,96.6c0-0.5,0.4-0.8,0.9-0.8c0.5,0,0.9,0.4,0.9,0.8c0,0.5-0.4,0.8-0.9,0.8
					C125.2,97.4,124.8,97,124.8,96.6z M125,98.7h1.3v7H125V98.7z"/>
				<path class="st1" d="M135.5,101.7v4h-1.3v-3.9c0-1.4-0.7-2.1-1.9-2.1c-1.3,0-2.2,0.8-2.2,2.3v3.6h-1.3v-7h1.2v1.1
					c0.5-0.7,1.4-1.1,2.5-1.1C134.3,98.7,135.5,99.6,135.5,101.7z"/>
				<path class="st1" d="M144.4,102.7h-5.7c0.2,1.2,1.2,2.1,2.5,2.1c0.8,0,1.5-0.3,2-0.8l0.7,0.8c-0.6,0.7-1.6,1.1-2.8,1.1
					c-2.3,0-3.8-1.5-3.8-3.6c0-2.1,1.5-3.6,3.5-3.6s3.5,1.5,3.5,3.6C144.4,102.4,144.4,102.5,144.4,102.7z M138.7,101.7h4.5
					c-0.1-1.2-1-2-2.2-2C139.7,99.7,138.8,100.5,138.7,101.7z"/>
				<path class="st1" d="M145.4,105l0.5-1c0.6,0.4,1.5,0.7,2.5,0.7c1.2,0,1.7-0.4,1.7-1c0-1.6-4.4-0.2-4.4-3c0-1.3,1.1-2.1,2.9-2.1
					c0.9,0,1.9,0.2,2.6,0.6l-0.5,1c-0.6-0.4-1.3-0.6-2-0.6c-1.1,0-1.7,0.4-1.7,1c0,1.7,4.4,0.3,4.4,3c0,1.3-1.2,2.1-3,2.1
					C147.1,105.8,146,105.5,145.4,105z"/>
				<path class="st1" d="M152.1,105l0.5-1c0.6,0.4,1.5,0.7,2.5,0.7c1.2,0,1.7-0.4,1.7-1c0-1.6-4.4-0.2-4.4-3c0-1.3,1.1-2.1,2.9-2.1
					c0.9,0,1.9,0.2,2.6,0.6l-0.5,1c-0.6-0.4-1.3-0.6-2-0.6c-1.1,0-1.7,0.4-1.7,1c0,1.7,4.4,0.3,4.4,3c0,1.3-1.2,2.1-3,2.1
					C153.9,105.8,152.7,105.5,152.1,105z"/>
				<path class="st1" d="M169.6,103.4h-4.9l-1,2.3h-1.4l4.2-9.3h1.3l4.2,9.3h-1.4L169.6,103.4z M169.1,102.4l-2-4.5l-2,4.5H169.1z"
					/>
				<path class="st1" d="M172.3,105l0.5-1c0.6,0.4,1.5,0.7,2.5,0.7c1.2,0,1.7-0.4,1.7-1c0-1.6-4.4-0.2-4.4-3c0-1.3,1.1-2.1,2.9-2.1
					c0.9,0,1.9,0.2,2.6,0.6l-0.5,1c-0.6-0.4-1.3-0.6-2-0.6c-1.1,0-1.7,0.4-1.7,1c0,1.7,4.4,0.3,4.4,3c0,1.3-1.2,2.1-3,2.1
					C174.1,105.8,172.9,105.5,172.3,105z"/>
				<path class="st1" d="M179.1,105l0.5-1c0.6,0.4,1.5,0.7,2.5,0.7c1.2,0,1.7-0.4,1.7-1c0-1.6-4.4-0.2-4.4-3c0-1.3,1.1-2.1,2.9-2.1
					c0.9,0,1.9,0.2,2.6,0.6l-0.5,1c-0.6-0.4-1.3-0.6-2-0.6c-1.1,0-1.7,0.4-1.7,1c0,1.7,4.4,0.3,4.4,3c0,1.3-1.2,2.1-3,2.1
					C180.8,105.8,179.7,105.5,179.1,105z"/>
				<path class="st1" d="M193.1,102.7h-5.7c0.2,1.2,1.2,2.1,2.5,2.1c0.8,0,1.5-0.3,2-0.8l0.7,0.8c-0.6,0.7-1.6,1.1-2.8,1.1
					c-2.3,0-3.8-1.5-3.8-3.6c0-2.1,1.5-3.6,3.5-3.6s3.5,1.5,3.5,3.6C193.1,102.4,193.1,102.5,193.1,102.7z M187.4,101.7h4.5
					c-0.1-1.2-1-2-2.2-2C188.4,99.7,187.5,100.5,187.4,101.7z"/>
				<path class="st1" d="M194.1,105l0.5-1c0.6,0.4,1.5,0.7,2.5,0.7c1.2,0,1.7-0.4,1.7-1c0-1.6-4.4-0.2-4.4-3c0-1.3,1.1-2.1,2.9-2.1
					c0.9,0,1.9,0.2,2.6,0.6l-0.5,1c-0.6-0.4-1.3-0.6-2-0.6c-1.1,0-1.7,0.4-1.7,1c0,1.7,4.4,0.3,4.4,3c0,1.3-1.2,2.1-3,2.1
					C195.8,105.8,194.7,105.5,194.1,105z"/>
				<path class="st1" d="M200.9,105l0.5-1c0.6,0.4,1.5,0.7,2.5,0.7c1.2,0,1.7-0.4,1.7-1c0-1.6-4.4-0.2-4.4-3c0-1.3,1.1-2.1,2.9-2.1
					c0.9,0,1.9,0.2,2.6,0.6l-0.5,1c-0.6-0.4-1.3-0.6-2-0.6c-1.1,0-1.7,0.4-1.7,1c0,1.7,4.4,0.3,4.4,3c0,1.3-1.2,2.1-3,2.1
					C202.6,105.8,201.4,105.5,200.9,105z"/>
				<path class="st1" d="M220.1,101.7v4h-1.3v-3.9c0-1.4-0.7-2.1-1.8-2.1c-1.3,0-2.1,0.8-2.1,2.3v3.6h-1.3v-3.9
					c0-1.4-0.7-2.1-1.8-2.1c-1.3,0-2.1,0.8-2.1,2.3v3.6h-1.3v-7h1.2v1c0.5-0.7,1.4-1.1,2.4-1.1c1.1,0,2,0.4,2.4,1.3
					c0.5-0.8,1.5-1.3,2.7-1.3C219,98.7,220.1,99.6,220.1,101.7z"/>
				<path class="st1" d="M229,102.7h-5.7c0.2,1.2,1.2,2.1,2.5,2.1c0.8,0,1.5-0.3,2-0.8l0.7,0.8c-0.6,0.7-1.6,1.1-2.8,1.1
					c-2.3,0-3.8-1.5-3.8-3.6c0-2.1,1.5-3.6,3.5-3.6s3.5,1.5,3.5,3.6C229,102.4,229,102.5,229,102.7z M223.3,101.7h4.5
					c-0.1-1.2-1-2-2.2-2C224.3,99.7,223.4,100.5,223.3,101.7z"/>
				<path class="st1" d="M237.5,101.7v4h-1.3v-3.9c0-1.4-0.7-2.1-1.9-2.1c-1.3,0-2.2,0.8-2.2,2.3v3.6h-1.3v-7h1.2v1.1
					c0.5-0.7,1.4-1.1,2.5-1.1C236.3,98.7,237.5,99.6,237.5,101.7z"/>
				<path class="st1" d="M244,105.3c-0.4,0.3-1,0.5-1.5,0.5c-1.4,0-2.2-0.8-2.2-2.2v-3.8H239v-1h1.2v-1.5h1.3v1.5h2v1h-2v3.8
					c0,0.8,0.4,1.2,1.1,1.2c0.4,0,0.7-0.1,1-0.3L244,105.3z"/>
				<path class="st8" d="M248.2,105.1c0-2.5,0.9-5.3,2.3-7h0.5c-1.4,1.8-2.3,4.5-2.3,7c0,0.9,0.1,1.7,0.4,2.6h-0.5
					C248.3,107,248.2,106,248.2,105.1z"/>
				<path class="st8" d="M254.8,100.3l-0.1,0.5c-0.1,0-0.1,0-0.2,0c-1.2,0-2,0.7-2.3,2.2l-0.6,2.8h-0.5l1.1-5.4h0.5l-0.2,1.1
					C253,100.7,253.7,100.3,254.8,100.3z"/>
				<path class="st8" d="M255.6,103.2c0,0.1,0,0.2,0,0.3c0,1.2,0.7,1.8,2,1.8c0.8,0,1.4-0.3,1.8-0.7l0.2,0.4
					c-0.5,0.5-1.3,0.8-2.1,0.8c-1.5,0-2.4-0.8-2.4-2.3c0-1.8,1.2-3.2,2.9-3.2c1.4,0,2.3,0.8,2.3,2.2c0,0.2,0,0.4-0.1,0.6H255.6z
					 M255.7,102.8h4.1c0-0.1,0-0.2,0-0.3c0-1.1-0.7-1.7-1.8-1.7C256.8,100.8,255.9,101.6,255.7,102.8z"/>
				<path class="st8" d="M267.3,100.4l-1.5,7.4h-0.5l0.6-3c-0.5,0.7-1.3,1.1-2.2,1.1c-1.4,0-2.3-0.9-2.3-2.2c0-1.9,1.3-3.2,3-3.2
					c1.1,0,1.9,0.5,2.1,1.4l0.3-1.4H267.3z M266.3,102.6c0-1.1-0.7-1.8-1.9-1.8c-1.5,0-2.5,1.2-2.5,2.7c0,1.1,0.7,1.8,1.9,1.8
					C265.2,105.3,266.3,104.2,266.3,102.6z"/>
				<path class="st8" d="M274.2,100.4l-1.1,5.4h-0.5l0.2-1c-0.5,0.7-1.3,1.1-2.2,1.1c-1.2,0-1.9-0.7-1.9-1.7c0-0.2,0-0.4,0.1-0.6
					l0.6-3.1h0.5l-0.6,3.1c0,0.2-0.1,0.4-0.1,0.5c0,0.8,0.5,1.3,1.5,1.3c1.2,0,2.1-0.7,2.3-2l0.6-2.9H274.2z"/>
				<path class="st8" d="M276.5,100.4h0.5l-1.1,5.4h-0.5L276.5,100.4z M276.7,98.7c0-0.2,0.2-0.5,0.5-0.5c0.2,0,0.4,0.2,0.4,0.4
					c0,0.3-0.2,0.5-0.5,0.5C276.9,99.1,276.7,98.9,276.7,98.7z"/>
				<path class="st8" d="M281.9,100.3l-0.1,0.5c-0.1,0-0.1,0-0.2,0c-1.2,0-2,0.7-2.3,2.2l-0.6,2.8h-0.5l1.1-5.4h0.5l-0.2,1.1
					C280.1,100.7,280.8,100.3,281.9,100.3z"/>
				<path class="st8" d="M282.7,103.2c0,0.1,0,0.2,0,0.3c0,1.2,0.7,1.8,2,1.8c0.8,0,1.4-0.3,1.8-0.7l0.2,0.4
					c-0.5,0.5-1.3,0.8-2.1,0.8c-1.5,0-2.4-0.8-2.4-2.3c0-1.8,1.2-3.2,2.9-3.2c1.4,0,2.3,0.8,2.3,2.2c0,0.2,0,0.4-0.1,0.6H282.7z
					 M282.8,102.8h4.1c0-0.1,0-0.2,0-0.3c0-1.1-0.7-1.7-1.8-1.7C283.9,100.8,283,101.6,282.8,102.8z"/>
				<path class="st8" d="M294.8,98.1l-1.5,7.6h-0.5l0.2-1c-0.5,0.7-1.3,1.1-2.3,1.1c-1.4,0-2.3-0.9-2.3-2.2c0-1.9,1.3-3.2,3-3.2
					c1.1,0,1.9,0.5,2.1,1.4l0.7-3.6H294.8z M293.4,102.6c0-1.1-0.7-1.8-1.9-1.8c-1.5,0-2.5,1.2-2.5,2.7c0,1.1,0.7,1.8,1.9,1.8
					C292.3,105.3,293.4,104.2,293.4,102.6z"/>
				<path class="st8" d="M297.5,100.7c0-0.9-0.1-1.7-0.4-2.6h0.5c0.3,0.8,0.4,1.8,0.4,2.7c0,2.5-0.9,5.3-2.3,7h-0.5
					C296.6,106,297.5,103.2,297.5,100.7z"/>
			</g>
		</g>
		<rect x="99" y="118.7" class="st1" width="0.8" height="52.7"/>
	</g>
	<g>
		<polygon class="st1" points="49.2,194.7 37.5,179.3 49.2,179.3 		"/>
		<polygon class="st1" points="400.8,194.7 412.5,179.3 400.8,179.3 		"/>
		<rect x="49.2" y="171" class="st10" width="351.6" height="14.5"/>
	</g>
	<rect x="49.2" class="st9" width="351.6" height="291.5"/>
	<g>
		<rect x="37.5" y="63.8" class="st2" width="375" height="116.1"/>
		<g>
			<g>
				<path class="st1" d="M62.6,88v3.9h5.7v1.4h-5.7v4.6h-1.6V86.6h8V88H62.6z"/>
				<path class="st1" d="M78.5,94.1h-6.9c0.2,1.5,1.4,2.5,3.1,2.5c1,0,1.8-0.3,2.5-1l0.9,1c-0.8,0.9-1.9,1.4-3.4,1.4
					c-2.8,0-4.6-1.8-4.6-4.4c0-2.5,1.8-4.3,4.3-4.3c2.5,0,4.2,1.8,4.2,4.4C78.5,93.7,78.5,93.9,78.5,94.1z M71.6,93h5.5
					c-0.2-1.4-1.2-2.4-2.7-2.4C72.8,90.5,71.7,91.5,71.6,93z"/>
				<path class="st1" d="M88.9,85.9v11.9h-1.5v-1.4c-0.7,1-1.8,1.4-3,1.4c-2.5,0-4.3-1.8-4.3-4.4s1.8-4.3,4.3-4.3
					c1.2,0,2.3,0.5,3,1.4v-4.7H88.9z M87.4,93.6c0-1.8-1.2-3-2.9-3c-1.6,0-2.9,1.2-2.9,3c0,1.8,1.2,3,2.9,3
					C86.1,96.6,87.4,95.4,87.4,93.6z"/>
				<path class="st1" d="M99.7,97.8l-2.4-3.5c-0.2,0-0.5,0-0.7,0h-2.8v3.4h-1.6V86.6h4.4c2.9,0,4.7,1.5,4.7,3.9c0,1.7-0.9,3-2.5,3.6
					l2.7,3.8H99.7z M99.7,90.5c0-1.6-1.1-2.5-3.1-2.5h-2.7V93h2.7C98.6,93,99.7,92.1,99.7,90.5z"/>
				<path class="st1" d="M111.2,95h-6l-1.2,2.8h-1.7l5.1-11.3h1.6l5.1,11.3h-1.7L111.2,95z M110.7,93.7l-2.4-5.5l-2.4,5.5H110.7z"/>
				<path class="st1" d="M126.4,97.8l0-8.2l-4.1,6.8h-0.7l-4.1-6.8v8.2H116V86.6h1.3l4.7,7.9l4.6-7.9h1.3l0,11.3H126.4z"/>
				<path class="st1" d="M140.6,90.5c0,2.4-1.8,3.9-4.7,3.9h-2.8v3.4h-1.6V86.6h4.4C138.8,86.6,140.6,88,140.6,90.5z M139,90.5
					c0-1.6-1.1-2.5-3.1-2.5h-2.7V93h2.7C137.9,93,139,92.1,139,90.5z"/>
				<path class="st1" d="M146.9,92.2c0-3.3,2.5-5.8,6-5.8c1.7,0,3.3,0.6,4.3,1.8l-1,1c-0.9-0.9-1.9-1.3-3.2-1.3
					c-2.5,0-4.4,1.8-4.4,4.3s1.9,4.3,4.4,4.3c1.2,0,2.3-0.4,3.2-1.4l1,1c-1,1.2-2.5,1.8-4.3,1.8C149.4,98,146.9,95.5,146.9,92.2z"/>
				<path class="st1" d="M158.2,93.6c0-2.5,1.9-4.3,4.4-4.3s4.4,1.8,4.4,4.3s-1.9,4.4-4.4,4.4S158.2,96.1,158.2,93.6z M165.5,93.6
					c0-1.8-1.2-3-2.9-3s-2.9,1.2-2.9,3c0,1.8,1.2,3,2.9,3S165.5,95.4,165.5,93.6z"/>
				<path class="st1" d="M177.5,92.9v4.9h-1.5v-4.7c0-1.7-0.8-2.5-2.3-2.5c-1.6,0-2.7,1-2.7,2.8v4.4h-1.5v-8.5h1.5v1.3
					c0.6-0.9,1.7-1.4,3.1-1.4C176,89.2,177.5,90.4,177.5,92.9z"/>
				<path class="st1" d="M188.6,92.9v4.9h-1.5v-4.7c0-1.7-0.8-2.5-2.3-2.5c-1.6,0-2.7,1-2.7,2.8v4.4h-1.5v-8.5h1.5v1.3
					c0.6-0.9,1.7-1.4,3.1-1.4C187.1,89.2,188.6,90.4,188.6,92.9z"/>
				<path class="st1" d="M199.4,94.1h-6.9c0.2,1.5,1.4,2.5,3.1,2.5c1,0,1.8-0.3,2.5-1l0.9,1c-0.8,0.9-1.9,1.4-3.4,1.4
					c-2.8,0-4.6-1.8-4.6-4.4c0-2.5,1.8-4.3,4.3-4.3c2.5,0,4.2,1.8,4.2,4.4C199.4,93.7,199.4,93.9,199.4,94.1z M192.4,93h5.5
					c-0.2-1.4-1.2-2.4-2.7-2.4C193.7,90.5,192.6,91.5,192.4,93z"/>
				<path class="st1" d="M200.9,93.6c0-2.5,1.9-4.3,4.5-4.3c1.5,0,2.8,0.6,3.5,1.8l-1.2,0.8c-0.5-0.8-1.4-1.2-2.3-1.2
					c-1.7,0-2.9,1.2-2.9,3c0,1.9,1.3,3,2.9,3c0.9,0,1.8-0.4,2.3-1.2l1.2,0.7c-0.7,1.2-1.9,1.8-3.5,1.8
					C202.8,97.9,200.9,96.1,200.9,93.6z"/>
				<path class="st1" d="M215.9,97.3c-0.5,0.4-1.2,0.6-1.9,0.6c-1.7,0-2.7-0.9-2.7-2.7v-4.7h-1.4v-1.3h1.4v-1.9h1.5v1.9h2.4v1.3
					h-2.4v4.6c0,0.9,0.5,1.4,1.3,1.4c0.5,0,0.9-0.1,1.2-0.4L215.9,97.3z"/>
			</g>
		</g>
		<g>
			<g>
				<path class="st8" d="M96.3,123.1h6.1v0.8h-5.2v3.9h5v0.8h-5v4.8h-0.9V123.1z"/>
				<path class="st8" d="M104.6,129.6L104.6,129.6c0,1,0.2,1.7,0.7,2.3s1.1,0.8,1.9,0.8c0.9,0,1.6-0.3,2.4-0.9l0.3,0.7
					c-0.3,0.3-0.7,0.5-1.2,0.7s-1,0.3-1.5,0.3c-1.1,0-1.9-0.3-2.6-1c-0.6-0.7-0.9-1.6-0.9-2.7c0-0.7,0.1-1.4,0.4-2s0.7-1,1.2-1.3
					c0.5-0.3,1.1-0.5,1.7-0.5c0.9,0,1.7,0.3,2.2,0.9c0.5,0.6,0.8,1.5,0.8,2.5v0.2H104.6z M105.4,127.2c-0.4,0.4-0.7,1-0.8,1.7h4.5
					c-0.1-0.7-0.3-1.3-0.6-1.7s-0.9-0.6-1.5-0.6C106.3,126.6,105.8,126.8,105.4,127.2z"/>
				<path class="st8" d="M118,122.7v10.5h-0.9v-1.4c-0.2,0.5-0.5,0.8-1,1.1c-0.4,0.3-0.9,0.4-1.5,0.4c-0.6,0-1.2-0.2-1.7-0.5
					c-0.5-0.3-0.9-0.7-1.1-1.3s-0.4-1.2-0.4-2c0-0.7,0.1-1.4,0.4-2c0.3-0.6,0.6-1,1.1-1.3c0.5-0.3,1-0.5,1.7-0.5
					c0.6,0,1.1,0.1,1.5,0.4c0.4,0.2,0.7,0.6,1,1.1v-4.6H118z M116.5,131.8c0.4-0.5,0.6-1.2,0.6-2.2c0-0.9-0.2-1.7-0.6-2.2
					c-0.4-0.5-1-0.8-1.7-0.8c-0.8,0-1.4,0.3-1.8,0.8c-0.4,0.5-0.6,1.2-0.6,2.2c0,0.9,0.2,1.7,0.6,2.2c0.4,0.5,1,0.8,1.8,0.8
					S116.1,132.3,116.5,131.8z"/>
				<path class="st8" d="M128.4,133.2h-0.9l-1.3-3.4c-0.2-0.5-0.4-0.8-0.7-0.9c-0.3-0.2-0.7-0.2-1.2-0.2h-2.8v4.5h-0.9v-10.2h3.9
					c1.1,0,1.9,0.2,2.5,0.7s0.9,1.2,0.9,2.1c0,0.7-0.2,1.2-0.5,1.7c-0.3,0.4-0.8,0.8-1.5,0.9c0.3,0,0.5,0.2,0.8,0.4
					c0.2,0.2,0.4,0.5,0.5,0.9L128.4,133.2z M124.5,127.9c1.7,0,2.5-0.7,2.5-2.1c0-1.3-0.8-2-2.5-2h-3v4.1H124.5z"/>
				<path class="st8" d="M137.1,130.5h-5.5l-1.2,2.7h-0.9l4.4-10.2h0.8l4.4,10.2h-0.9L137.1,130.5z M136.7,129.8l-2.4-5.6l-2.4,5.6
					H136.7z"/>
				<path class="st8" d="M150.4,123.1v10.2h-0.8v-8.2l-3.6,8.2h-0.7l-3.6-8.1l0,8.1h-0.8v-10.2h0.7l4,9.1l4-9.1H150.4z"/>
				<path class="st8" d="M153.1,123.1h3.9c1,0,1.8,0.2,2.4,0.7c0.6,0.5,0.9,1.2,0.9,2c0,0.9-0.3,1.6-0.9,2.1
					c-0.6,0.5-1.4,0.8-2.4,0.8h-3v4.6h-0.9V123.1z M157,127.9c0.8,0,1.4-0.2,1.8-0.5c0.4-0.4,0.6-0.9,0.6-1.5c0-0.6-0.2-1.1-0.6-1.5
					c-0.4-0.4-1-0.5-1.8-0.5h-3v4.1H157z"/>
				<path class="st8" d="M167.9,132.7c-0.7-0.4-1.2-1-1.6-1.8c-0.4-0.8-0.6-1.7-0.6-2.8c0-1.1,0.2-2,0.6-2.8
					c0.4-0.8,0.9-1.4,1.6-1.8c0.7-0.4,1.5-0.6,2.5-0.6c0.7,0,1.4,0.1,1.9,0.3s1.1,0.6,1.5,1l-0.4,0.7c-0.5-0.4-1-0.8-1.5-1
					c-0.5-0.2-1-0.3-1.6-0.3c-1.2,0-2.1,0.4-2.7,1.2s-1,1.9-1,3.3c0,1.4,0.3,2.5,1,3.3c0.6,0.8,1.6,1.2,2.7,1.2
					c0.6,0,1.1-0.1,1.6-0.3c0.5-0.2,1-0.5,1.5-1l0.4,0.7c-0.4,0.4-0.9,0.8-1.5,1s-1.2,0.3-1.9,0.3
					C169.4,133.4,168.6,133.1,167.9,132.7z"/>
				<path class="st8" d="M176.8,132.9c-0.5-0.3-0.9-0.7-1.2-1.3s-0.4-1.2-0.4-2c0-0.7,0.1-1.4,0.4-2s0.7-1,1.2-1.3s1.1-0.5,1.7-0.5
					c0.6,0,1.2,0.2,1.7,0.5c0.5,0.3,0.9,0.7,1.2,1.3s0.4,1.2,0.4,2c0,0.7-0.1,1.4-0.4,2s-0.7,1-1.2,1.3c-0.5,0.3-1.1,0.5-1.7,0.5
					C177.9,133.3,177.3,133.2,176.8,132.9z M180.3,131.8c0.4-0.5,0.6-1.2,0.6-2.2c0-0.9-0.2-1.7-0.6-2.2c-0.4-0.5-1-0.8-1.7-0.8
					c-0.8,0-1.3,0.3-1.8,0.8c-0.4,0.5-0.6,1.2-0.6,2.2c0,1,0.2,1.7,0.6,2.2c0.4,0.5,1,0.8,1.8,0.8
					C179.3,132.6,179.9,132.3,180.3,131.8z"/>
				<path class="st8" d="M189.7,128.7v4.6h-0.9v-4.5c0-0.7-0.1-1.2-0.4-1.6c-0.3-0.3-0.7-0.5-1.4-0.5c-0.7,0-1.3,0.2-1.7,0.7
					c-0.4,0.4-0.7,1-0.7,1.8v4.1h-0.9v-5.2c0-0.7,0-1.4-0.1-2h0.8l0.1,1.3c0.2-0.5,0.5-0.9,1-1.1c0.4-0.3,0.9-0.4,1.5-0.4
					C188.9,125.9,189.7,126.8,189.7,128.7z"/>
				<path class="st8" d="M198.1,128.7v4.6h-0.9v-4.5c0-0.7-0.1-1.2-0.4-1.6c-0.3-0.3-0.7-0.5-1.4-0.5c-0.7,0-1.3,0.2-1.7,0.7
					c-0.4,0.4-0.7,1-0.7,1.8v4.1h-0.9v-5.2c0-0.7,0-1.4-0.1-2h0.8l0.1,1.3c0.2-0.5,0.5-0.9,1-1.1c0.4-0.3,0.9-0.4,1.5-0.4
					C197.2,125.9,198.1,126.8,198.1,128.7z"/>
				<path class="st8" d="M200.9,129.6L200.9,129.6c0,1,0.2,1.7,0.7,2.3s1.1,0.8,1.9,0.8c0.9,0,1.6-0.3,2.4-0.9l0.3,0.7
					c-0.3,0.3-0.7,0.5-1.2,0.7s-1,0.3-1.5,0.3c-1.1,0-1.9-0.3-2.6-1c-0.6-0.7-0.9-1.6-0.9-2.7c0-0.7,0.1-1.4,0.4-2s0.7-1,1.2-1.3
					c0.5-0.3,1.1-0.5,1.7-0.5c0.9,0,1.7,0.3,2.2,0.9c0.5,0.6,0.8,1.5,0.8,2.5v0.2H200.9z M201.8,127.2c-0.4,0.4-0.7,1-0.8,1.7h4.5
					c-0.1-0.7-0.3-1.3-0.6-1.7s-0.9-0.6-1.5-0.6C202.7,126.6,202.2,126.8,201.8,127.2z"/>
				<path class="st8" d="M209.4,132.9c-0.5-0.3-0.9-0.7-1.2-1.3c-0.3-0.6-0.4-1.2-0.4-1.9c0-0.7,0.1-1.4,0.4-2
					c0.3-0.6,0.7-1,1.2-1.3c0.5-0.3,1.1-0.5,1.8-0.5c0.5,0,1,0.1,1.4,0.3c0.4,0.2,0.8,0.4,1.1,0.7l-0.3,0.7
					c-0.4-0.3-0.7-0.5-1.1-0.7c-0.3-0.1-0.7-0.2-1.1-0.2c-0.8,0-1.4,0.3-1.8,0.8s-0.7,1.3-0.7,2.2c0,0.9,0.2,1.6,0.7,2.1
					c0.4,0.5,1.1,0.8,1.8,0.8c0.4,0,0.7-0.1,1.1-0.2c0.3-0.1,0.7-0.4,1.1-0.7l0.3,0.7c-0.3,0.3-0.7,0.5-1.1,0.7
					c-0.5,0.2-0.9,0.3-1.4,0.3C210.5,133.3,209.9,133.2,209.4,132.9z"/>
				<path class="st8" d="M216.6,126.8v4.3c0,0.6,0.1,1,0.3,1.2c0.2,0.2,0.5,0.3,1,0.3c0.3,0,0.5,0,0.8-0.1v0.8
					c-0.3,0.1-0.6,0.1-0.9,0.1c-0.6,0-1.1-0.2-1.5-0.5c-0.4-0.4-0.5-0.9-0.5-1.6v-4.4h-1.4v-0.7h1.4v-1.9l0.9-0.3v2.2h2.1v0.7H216.6
					z"/>
				<path class="st8" d="M231.1,128.9c0.3,0.4,0.5,1,0.5,1.6c0,0.9-0.3,1.6-0.9,2c-0.6,0.5-1.4,0.7-2.5,0.7h-4.1v-10.2h3.9
					c1,0,1.8,0.2,2.4,0.7c0.6,0.5,0.8,1.1,0.8,2c0,0.6-0.1,1-0.4,1.4c-0.3,0.4-0.7,0.7-1.2,0.9C230.3,128.2,230.7,128.5,231.1,128.9
					z M225,127.7h2.9c0.8,0,1.4-0.2,1.9-0.5s0.6-0.8,0.6-1.5c0-1.3-0.8-1.9-2.5-1.9H225V127.7z M230,132c0.4-0.3,0.6-0.8,0.6-1.5
					c0-1.4-0.8-2-2.5-2H225v4h3.1C229,132.5,229.6,132.3,230,132z"/>
				<path class="st8" d="M239.5,126.1v7.2h-0.8v-1.3c-0.2,0.5-0.6,0.8-1,1c-0.4,0.2-0.9,0.4-1.4,0.4c-0.8,0-1.5-0.2-1.9-0.7
					s-0.6-1.2-0.6-2.1v-4.5h0.9v4.4c0,0.7,0.1,1.2,0.4,1.6s0.7,0.5,1.3,0.5c0.7,0,1.3-0.2,1.7-0.7c0.4-0.4,0.6-1,0.6-1.8v-4.1H239.5
					z"/>
				<path class="st8" d="M241.5,132.4l0.3-0.7c0.4,0.3,0.8,0.5,1.2,0.7c0.4,0.1,0.8,0.2,1.3,0.2c0.6,0,1-0.1,1.4-0.3
					c0.3-0.2,0.5-0.5,0.5-0.9c0-0.3-0.1-0.6-0.3-0.8s-0.5-0.3-1-0.5l-1.2-0.3c-0.6-0.1-1-0.4-1.4-0.7c-0.3-0.3-0.5-0.7-0.5-1.2
					c0-0.6,0.2-1.1,0.7-1.5c0.5-0.4,1.1-0.6,1.9-0.6c0.5,0,1,0.1,1.4,0.2c0.4,0.2,0.8,0.4,1.1,0.7l-0.3,0.7
					c-0.7-0.6-1.4-0.9-2.2-0.9c-0.6,0-1,0.1-1.3,0.3c-0.3,0.2-0.5,0.5-0.5,0.9c0,0.3,0.1,0.6,0.3,0.8c0.2,0.2,0.5,0.3,0.9,0.4
					l1.2,0.3c1.3,0.3,1.9,0.9,1.9,1.9c0,0.6-0.2,1.1-0.7,1.5c-0.5,0.4-1.2,0.6-2,0.6C243.1,133.3,242.2,133,241.5,132.4z"/>
				<path class="st8" d="M250.1,123.1v1.1H249v-1.1H250.1z M249.1,126.1h0.9v7.2h-0.9V126.1z"/>
				<path class="st8" d="M258.3,128.7v4.6h-0.9v-4.5c0-0.7-0.1-1.2-0.4-1.6c-0.3-0.3-0.7-0.5-1.4-0.5c-0.7,0-1.3,0.2-1.7,0.7
					c-0.4,0.4-0.7,1-0.7,1.8v4.1h-0.9v-5.2c0-0.7,0-1.4-0.1-2h0.8l0.1,1.3c0.2-0.5,0.5-0.9,1-1.1c0.4-0.3,0.9-0.4,1.5-0.4
					C257.5,125.9,258.3,126.8,258.3,128.7z"/>
				<path class="st8" d="M261.2,129.6L261.2,129.6c0,1,0.2,1.7,0.7,2.3s1.1,0.8,1.9,0.8c0.9,0,1.6-0.3,2.4-0.9l0.3,0.7
					c-0.3,0.3-0.7,0.5-1.2,0.7s-1,0.3-1.5,0.3c-1.1,0-1.9-0.3-2.6-1c-0.6-0.7-0.9-1.6-0.9-2.7c0-0.7,0.1-1.4,0.4-2s0.7-1,1.2-1.3
					c0.5-0.3,1.1-0.5,1.7-0.5c0.9,0,1.7,0.3,2.2,0.9c0.5,0.6,0.8,1.5,0.8,2.5v0.2H261.2z M262.1,127.2c-0.4,0.4-0.7,1-0.8,1.7h4.5
					c-0.1-0.7-0.3-1.3-0.6-1.7s-0.9-0.6-1.5-0.6C263,126.6,262.5,126.8,262.1,127.2z"/>
				<path class="st8" d="M268.2,132.4l0.3-0.7c0.4,0.3,0.8,0.5,1.2,0.7c0.4,0.1,0.8,0.2,1.3,0.2c0.6,0,1-0.1,1.4-0.3
					c0.3-0.2,0.5-0.5,0.5-0.9c0-0.3-0.1-0.6-0.3-0.8s-0.5-0.3-1-0.5l-1.2-0.3c-0.6-0.1-1-0.4-1.4-0.7c-0.3-0.3-0.5-0.7-0.5-1.2
					c0-0.6,0.2-1.1,0.7-1.5c0.5-0.4,1.1-0.6,1.9-0.6c0.5,0,1,0.1,1.4,0.2c0.4,0.2,0.8,0.4,1.1,0.7l-0.3,0.7
					c-0.7-0.6-1.4-0.9-2.2-0.9c-0.6,0-1,0.1-1.3,0.3c-0.3,0.2-0.5,0.5-0.5,0.9c0,0.3,0.1,0.6,0.3,0.8c0.2,0.2,0.5,0.3,0.9,0.4
					l1.2,0.3c1.3,0.3,1.9,0.9,1.9,1.9c0,0.6-0.2,1.1-0.7,1.5c-0.5,0.4-1.2,0.6-2,0.6C269.8,133.3,268.9,133,268.2,132.4z"/>
				<path class="st8" d="M275.3,132.4l0.3-0.7c0.4,0.3,0.8,0.5,1.2,0.7c0.4,0.1,0.8,0.2,1.3,0.2c0.6,0,1-0.1,1.4-0.3
					c0.3-0.2,0.5-0.5,0.5-0.9c0-0.3-0.1-0.6-0.3-0.8s-0.5-0.3-1-0.5l-1.2-0.3c-0.6-0.1-1-0.4-1.4-0.7c-0.3-0.3-0.5-0.7-0.5-1.2
					c0-0.6,0.2-1.1,0.7-1.5c0.5-0.4,1.1-0.6,1.9-0.6c0.5,0,1,0.1,1.4,0.2c0.4,0.2,0.8,0.4,1.1,0.7l-0.3,0.7
					c-0.7-0.6-1.4-0.9-2.2-0.9c-0.6,0-1,0.1-1.3,0.3c-0.3,0.2-0.5,0.5-0.5,0.9c0,0.3,0.1,0.6,0.3,0.8c0.2,0.2,0.5,0.3,0.9,0.4
					l1.2,0.3c1.3,0.3,1.9,0.9,1.9,1.9c0,0.6-0.2,1.1-0.7,1.5c-0.5,0.4-1.2,0.6-2,0.6C276.9,133.3,276,133,275.3,132.4z"/>
				<path class="st8" d="M288.5,132.7c-0.7-0.4-1.2-1-1.6-1.8c-0.4-0.8-0.6-1.7-0.6-2.8c0-1.1,0.2-2,0.6-2.8
					c0.4-0.8,0.9-1.4,1.6-1.8c0.7-0.4,1.5-0.6,2.5-0.6c0.7,0,1.4,0.1,1.9,0.3s1.1,0.6,1.5,1l-0.4,0.7c-0.5-0.4-1-0.8-1.5-1
					c-0.5-0.2-1-0.3-1.6-0.3c-1.2,0-2.1,0.4-2.7,1.2s-1,1.9-1,3.3c0,1.4,0.3,2.5,1,3.3c0.6,0.8,1.6,1.2,2.7,1.2
					c0.6,0,1.1-0.1,1.6-0.3c0.5-0.2,1-0.5,1.5-1l0.4,0.7c-0.4,0.4-0.9,0.8-1.5,1s-1.2,0.3-1.9,0.3
					C290,133.4,289.2,133.1,288.5,132.7z"/>
				<path class="st8" d="M302.4,126.1v7.2h-0.9v-1.4c-0.2,0.5-0.5,0.8-1,1.1c-0.4,0.3-0.9,0.4-1.5,0.4c-0.6,0-1.2-0.2-1.7-0.5
					c-0.5-0.3-0.9-0.7-1.1-1.3c-0.3-0.6-0.4-1.2-0.4-2c0-0.7,0.1-1.4,0.4-2s0.6-1,1.1-1.3c0.5-0.3,1-0.5,1.7-0.5
					c0.6,0,1.1,0.1,1.5,0.4c0.4,0.2,0.7,0.6,1,1.1v-1.3H302.4z M300.9,131.8c0.4-0.5,0.6-1.2,0.6-2.2c0-0.9-0.2-1.7-0.6-2.2
					s-1-0.8-1.7-0.8s-1.3,0.3-1.8,0.8c-0.4,0.5-0.6,1.3-0.6,2.2c0,0.9,0.2,1.6,0.6,2.2c0.4,0.5,1,0.8,1.8,0.8
					C299.9,132.6,300.5,132.3,300.9,131.8z"/>
				<path class="st8" d="M304.4,132.4l0.3-0.7c0.4,0.3,0.8,0.5,1.2,0.7c0.4,0.1,0.8,0.2,1.3,0.2c0.6,0,1-0.1,1.4-0.3
					c0.3-0.2,0.5-0.5,0.5-0.9c0-0.3-0.1-0.6-0.3-0.8s-0.5-0.3-1-0.5l-1.2-0.3c-0.6-0.1-1-0.4-1.4-0.7c-0.3-0.3-0.5-0.7-0.5-1.2
					c0-0.6,0.2-1.1,0.7-1.5c0.5-0.4,1.1-0.6,1.9-0.6c0.5,0,1,0.1,1.4,0.2c0.4,0.2,0.8,0.4,1.1,0.7l-0.3,0.7
					c-0.7-0.6-1.4-0.9-2.2-0.9c-0.6,0-1,0.1-1.3,0.3c-0.3,0.2-0.5,0.5-0.5,0.9c0,0.3,0.1,0.6,0.3,0.8c0.2,0.2,0.5,0.3,0.9,0.4
					l1.2,0.3c1.3,0.3,1.9,0.9,1.9,1.9c0,0.6-0.2,1.1-0.7,1.5c-0.5,0.4-1.2,0.6-2,0.6C306,133.3,305.1,133,304.4,132.4z"/>
				<path class="st8" d="M312.4,129.6L312.4,129.6c0,1,0.2,1.7,0.7,2.3s1.1,0.8,1.9,0.8c0.9,0,1.6-0.3,2.4-0.9l0.3,0.7
					c-0.3,0.3-0.7,0.5-1.2,0.7s-1,0.3-1.5,0.3c-1.1,0-1.9-0.3-2.6-1c-0.6-0.7-0.9-1.6-0.9-2.7c0-0.7,0.1-1.4,0.4-2s0.7-1,1.2-1.3
					c0.5-0.3,1.1-0.5,1.7-0.5c0.9,0,1.7,0.3,2.2,0.9c0.5,0.6,0.8,1.5,0.8,2.5v0.2H312.4z M313.3,127.2c-0.4,0.4-0.7,1-0.8,1.7h4.5
					c-0.1-0.7-0.3-1.3-0.6-1.7s-0.9-0.6-1.5-0.6C314.2,126.6,313.7,126.8,313.3,127.2z"/>
				<g>
					<path class="st1" d="M70.7,158.5c-0.4-0.2-0.7-0.5-1-0.9c-0.2-0.4-0.4-0.8-0.4-1.3c0-0.4,0.1-0.9,0.3-1.3
						c0.2-0.4,0.5-0.7,0.9-1c0.4-0.2,0.8-0.4,1.3-0.4c0.5,0,0.9,0.1,1.3,0.3c0.4,0.2,0.7,0.5,1,0.9c0.2,0.4,0.4,0.8,0.4,1.3
						c0,0.5-0.1,0.9-0.4,1.3c-0.2,0.4-0.6,0.7-1,0.9c-0.4,0.2-0.8,0.3-1.3,0.3S71.1,158.7,70.7,158.5z"/>
					<path class="st1" d="M72,158.9c-0.5,0-0.9-0.1-1.4-0.4c-0.4-0.2-0.8-0.6-1-1c-0.2-0.4-0.4-0.9-0.4-1.4c0-0.5,0.1-0.9,0.4-1.3
						c0.2-0.4,0.6-0.7,1-1c0.4-0.2,0.9-0.4,1.4-0.4c0.5,0,0.9,0.1,1.3,0.4c0.4,0.2,0.8,0.6,1,1c0.2,0.4,0.4,0.9,0.4,1.4
						c0,0.5-0.1,0.9-0.4,1.4c-0.2,0.4-0.6,0.7-1,1C72.9,158.8,72.5,158.9,72,158.9z M72,153.8c-0.5,0-0.9,0.1-1.3,0.3
						c-0.4,0.2-0.7,0.5-0.9,0.9c-0.2,0.4-0.3,0.8-0.3,1.2c0,0.4,0.1,0.9,0.3,1.2c0.2,0.4,0.5,0.7,0.9,0.9v0c0.8,0.4,1.7,0.4,2.5,0
						c0.4-0.2,0.7-0.5,0.9-0.9c0.2-0.4,0.3-0.8,0.3-1.2c0-0.5-0.1-0.9-0.3-1.2c-0.2-0.4-0.5-0.7-0.9-0.9
						C72.8,153.9,72.4,153.8,72,153.8z"/>
				</g>
				<path class="st8" d="M96.3,149.9h3.9c1,0,1.8,0.2,2.4,0.7c0.6,0.5,0.9,1.2,0.9,2c0,0.9-0.3,1.6-0.9,2.1
					c-0.6,0.5-1.4,0.8-2.4,0.8h-3v4.6h-0.9V149.9z M100.2,154.7c0.8,0,1.4-0.2,1.8-0.5c0.4-0.4,0.6-0.9,0.6-1.5
					c0-0.6-0.2-1.1-0.6-1.5c-0.4-0.4-1-0.5-1.8-0.5h-3v4.1H100.2z"/>
				<path class="st8" d="M109,152.8l0,0.8c-0.2,0-0.4-0.1-0.7-0.1c-0.7,0-1.3,0.2-1.6,0.7c-0.4,0.5-0.5,1-0.5,1.7v4.2h-0.9v-5.2
					c0-0.7,0-1.4-0.1-2h0.8l0.1,1.3c0.2-0.5,0.5-0.9,0.9-1.1c0.4-0.3,0.9-0.4,1.4-0.4C108.7,152.7,108.9,152.7,109,152.8z"/>
				<path class="st8" d="M111.4,149.9v1.1h-1.2v-1.1H111.4z M110.4,152.9h0.9v7.2h-0.9V152.9z"/>
				<path class="st8" d="M114.8,159.7c-0.5-0.3-0.9-0.7-1.2-1.3s-0.4-1.2-0.4-2c0-0.7,0.1-1.4,0.4-2s0.7-1,1.2-1.3s1.1-0.5,1.7-0.5
					c0.6,0,1.2,0.2,1.7,0.5c0.5,0.3,0.9,0.7,1.2,1.3s0.4,1.2,0.4,2c0,0.7-0.1,1.4-0.4,2s-0.7,1-1.2,1.3c-0.5,0.3-1.1,0.5-1.7,0.5
					C115.9,160.2,115.3,160,114.8,159.7z M118.3,158.6c0.4-0.5,0.6-1.2,0.6-2.2c0-0.9-0.2-1.7-0.6-2.2c-0.4-0.5-1-0.8-1.7-0.8
					c-0.8,0-1.3,0.3-1.8,0.8c-0.4,0.5-0.6,1.2-0.6,2.2c0,1,0.2,1.7,0.6,2.2c0.4,0.5,1,0.8,1.8,0.8
					C117.3,159.4,117.9,159.1,118.3,158.6z"/>
				<path class="st8" d="M125.5,152.8l0,0.8c-0.2,0-0.4-0.1-0.7-0.1c-0.7,0-1.3,0.2-1.6,0.7c-0.4,0.5-0.5,1-0.5,1.7v4.2h-0.9v-5.2
					c0-0.7,0-1.4-0.1-2h0.8l0.1,1.3c0.2-0.5,0.5-0.9,0.9-1.1c0.4-0.3,0.9-0.4,1.4-0.4C125.2,152.7,125.4,152.7,125.5,152.8z"/>
				<path class="st8" d="M127.9,149.9v1.1h-1.2v-1.1H127.9z M126.9,152.9h0.9v7.2h-0.9V152.9z"/>
				<path class="st8" d="M131.4,153.6v4.3c0,0.6,0.1,1,0.3,1.2c0.2,0.2,0.5,0.3,1,0.3c0.3,0,0.5,0,0.8-0.1v0.8
					c-0.3,0.1-0.6,0.1-0.9,0.1c-0.6,0-1.1-0.2-1.5-0.5c-0.4-0.4-0.5-0.9-0.5-1.6v-4.4h-1.4v-0.7h1.4V151l0.9-0.3v2.2h2.1v0.7H131.4z
					"/>
				<path class="st8" d="M136.1,149.9v1.1H135v-1.1H136.1z M135.1,152.9h0.9v7.2h-0.9V152.9z"/>
				<path class="st8" d="M144,159.3v0.7h-6v-0.6l4.8-5.9h-4.6v-0.7h5.6v0.7l-4.7,5.8H144z"/>
				<path class="st8" d="M146.2,156.4L146.2,156.4c0,1,0.2,1.7,0.7,2.3s1.1,0.8,1.9,0.8c0.9,0,1.6-0.3,2.4-0.9l0.3,0.7
					c-0.3,0.3-0.7,0.5-1.2,0.7s-1,0.3-1.5,0.3c-1.1,0-1.9-0.3-2.6-1c-0.6-0.7-0.9-1.6-0.9-2.7c0-0.7,0.1-1.4,0.4-2s0.7-1,1.2-1.3
					c0.5-0.3,1.1-0.5,1.7-0.5c0.9,0,1.7,0.3,2.2,0.9c0.5,0.6,0.8,1.5,0.8,2.5v0.2H146.2z M147,154c-0.4,0.4-0.7,1-0.8,1.7h4.5
					c-0.1-0.7-0.3-1.3-0.6-1.7s-0.9-0.6-1.5-0.6C148,153.4,147.4,153.6,147,154z"/>
				<path class="st8" d="M159.7,149.5v10.5h-0.9v-1.4c-0.2,0.5-0.5,0.8-1,1.1c-0.4,0.3-0.9,0.4-1.5,0.4c-0.6,0-1.2-0.2-1.7-0.5
					c-0.5-0.3-0.9-0.7-1.1-1.3s-0.4-1.2-0.4-2c0-0.7,0.1-1.4,0.4-2c0.3-0.6,0.6-1,1.1-1.3c0.5-0.3,1-0.5,1.7-0.5
					c0.6,0,1.1,0.1,1.5,0.4c0.4,0.2,0.7,0.6,1,1.1v-4.6H159.7z M158.2,158.6c0.4-0.5,0.6-1.2,0.6-2.2c0-0.9-0.2-1.7-0.6-2.2
					c-0.4-0.5-1-0.8-1.7-0.8c-0.8,0-1.4,0.3-1.8,0.8c-0.4,0.5-0.6,1.2-0.6,2.2c0,0.9,0.2,1.7,0.6,2.2c0.4,0.5,1,0.8,1.8,0.8
					S157.8,159.1,158.2,158.6z"/>
				<path class="st8" d="M167,153.6v4.3c0,0.6,0.1,1,0.3,1.2c0.2,0.2,0.5,0.3,1,0.3c0.3,0,0.5,0,0.8-0.1v0.8
					c-0.3,0.1-0.6,0.1-0.9,0.1c-0.6,0-1.1-0.2-1.5-0.5c-0.4-0.4-0.5-0.9-0.5-1.6v-4.4h-1.4v-0.7h1.4V151l0.9-0.3v2.2h2.1v0.7H167z"
					/>
				<path class="st8" d="M171.8,159.7c-0.5-0.3-0.9-0.7-1.2-1.3s-0.4-1.2-0.4-2c0-0.7,0.1-1.4,0.4-2s0.7-1,1.2-1.3s1.1-0.5,1.7-0.5
					c0.6,0,1.2,0.2,1.7,0.5c0.5,0.3,0.9,0.7,1.2,1.3s0.4,1.2,0.4,2c0,0.7-0.1,1.4-0.4,2s-0.7,1-1.2,1.3c-0.5,0.3-1.1,0.5-1.7,0.5
					C172.9,160.2,172.3,160,171.8,159.7z M175.3,158.6c0.4-0.5,0.6-1.2,0.6-2.2c0-0.9-0.2-1.7-0.6-2.2c-0.4-0.5-1-0.8-1.7-0.8
					c-0.8,0-1.3,0.3-1.8,0.8c-0.4,0.5-0.6,1.2-0.6,2.2c0,1,0.2,1.7,0.6,2.2c0.4,0.5,1,0.8,1.8,0.8
					C174.3,159.4,174.9,159.1,175.3,158.6z"/>
				<path class="st8" d="M193.2,152.9l-2.6,7.2h-0.9l-2.2-6.1l-2.2,6.1h-0.9l-2.6-7.2h0.9l2.1,6.1l2.2-6.1h0.9l2.2,6.1l2.2-6.1
					H193.2z"/>
				<path class="st8" d="M196,159.7c-0.5-0.3-0.9-0.7-1.2-1.3s-0.4-1.2-0.4-2c0-0.7,0.1-1.4,0.4-2s0.7-1,1.2-1.3s1.1-0.5,1.7-0.5
					c0.6,0,1.2,0.2,1.7,0.5c0.5,0.3,0.9,0.7,1.2,1.3s0.4,1.2,0.4,2c0,0.7-0.1,1.4-0.4,2s-0.7,1-1.2,1.3c-0.5,0.3-1.1,0.5-1.7,0.5
					C197.1,160.2,196.5,160,196,159.7z M199.5,158.6c0.4-0.5,0.6-1.2,0.6-2.2c0-0.9-0.2-1.7-0.6-2.2c-0.4-0.5-1-0.8-1.7-0.8
					c-0.8,0-1.3,0.3-1.8,0.8c-0.4,0.5-0.6,1.2-0.6,2.2c0,1,0.2,1.7,0.6,2.2c0.4,0.5,1,0.8,1.8,0.8
					C198.5,159.4,199.1,159.1,199.5,158.6z"/>
				<path class="st8" d="M206.7,152.8l0,0.8c-0.2,0-0.4-0.1-0.7-0.1c-0.7,0-1.3,0.2-1.6,0.7c-0.4,0.5-0.5,1-0.5,1.7v4.2H203v-5.2
					c0-0.7,0-1.4-0.1-2h0.8l0.1,1.3c0.2-0.5,0.5-0.9,0.9-1.1c0.4-0.3,0.9-0.4,1.4-0.4C206.3,152.7,206.5,152.7,206.7,152.8z"/>
				<path class="st8" d="M212.9,160.1l-3.9-3.5v3.5h-0.9v-10.5h0.9v6.7l3.6-3.3h1.1l-3.7,3.4l4.1,3.7H212.9z"/>
				<path class="st8" d="M229.7,152.9l-2.6,7.2h-0.9L224,154l-2.2,6.1h-0.9l-2.6-7.2h0.9l2.1,6.1l2.2-6.1h0.9l2.2,6.1l2.2-6.1H229.7
					z"/>
				<path class="st8" d="M232.4,149.9v1.1h-1.2v-1.1H232.4z M231.4,152.9h0.9v7.2h-0.9V152.9z"/>
				<path class="st8" d="M235.9,153.6v4.3c0,0.6,0.1,1,0.3,1.2c0.2,0.2,0.5,0.3,1,0.3c0.3,0,0.5,0,0.8-0.1v0.8
					c-0.3,0.1-0.6,0.1-0.9,0.1c-0.6,0-1.1-0.2-1.5-0.5c-0.4-0.4-0.5-0.9-0.5-1.6v-4.4h-1.4v-0.7h1.4V151l0.9-0.3v2.2h2.1v0.7H235.9z
					"/>
				<path class="st8" d="M245.5,155.5v4.6h-0.9v-4.5c0-0.7-0.1-1.2-0.4-1.6c-0.3-0.3-0.7-0.5-1.4-0.5c-0.7,0-1.3,0.2-1.7,0.7
					c-0.4,0.4-0.7,1-0.7,1.8v4.1h-0.9v-10.5h0.9v4.6c0.2-0.5,0.6-0.8,1-1.1s0.9-0.4,1.5-0.4C244.7,152.7,245.5,153.6,245.5,155.5z"
					/>
				<path class="st8" d="M250.4,161.8c0.4,0.1,0.8,0.1,1,0.1c0.5,0,0.9-0.1,1.1-0.4s0.3-0.8,0.3-1.5v-10.1h0.9V160
					c0,0.9-0.2,1.6-0.5,2c-0.3,0.4-0.9,0.6-1.6,0.6c-0.3,0-0.7,0-1.2-0.1V161.8z"/>
				<path class="st8" d="M263,157.3h-5.5l-1.2,2.7h-0.9l4.4-10.2h0.8l4.4,10.2h-0.9L263,157.3z M262.7,156.6l-2.4-5.6l-2.4,5.6
					H262.7z"/>
				<path class="st8" d="M273.8,155.7c0.3,0.4,0.5,1,0.5,1.6c0,0.9-0.3,1.6-0.9,2c-0.6,0.5-1.4,0.7-2.5,0.7h-4.1v-10.2h3.9
					c1,0,1.8,0.2,2.4,0.7c0.6,0.5,0.8,1.1,0.8,2c0,0.6-0.1,1-0.4,1.4c-0.3,0.4-0.7,0.7-1.2,0.9C273,155,273.5,155.3,273.8,155.7z
					 M267.7,154.5h2.9c0.8,0,1.4-0.2,1.9-0.5s0.6-0.8,0.6-1.5c0-1.3-0.8-1.9-2.5-1.9h-2.9V154.5z M272.8,158.8
					c0.4-0.3,0.6-0.8,0.6-1.5c0-1.4-0.8-2-2.5-2h-3.1v4h3.1C271.7,159.3,272.4,159.1,272.8,158.8z"/>
			</g>
		</g>
		<rect x="71.7" y="123.3" class="st1" width="0.8" height="30.8"/>
		<g>
			<g>
				<circle class="st1" cx="72.1" cy="126.7" r="10.8"/>
			</g>
			<g>
				<path class="st4" d="M74.3,123.8c-0.3,0-0.6-0.3-0.6-0.6v-3.6h-5.5c-0.8,0-1.4,0.6-1.4,1.4v11.3c0,0.8,0.6,1.4,1.4,1.4h8.2
					c0.8,0,1.4-0.6,1.4-1.4v-8.6H74.3z"/>
			</g>
			<path class="st5" d="M74.3,123.8h3.6l-4.1-4.1v3.6C73.8,123.6,74,123.8,74.3,123.8z"/>
			<polygon class="st2" points="77.9,126.7 77.9,123.8 74.3,123.8 			"/>
		</g>
	</g>
</g>
</svg>
