<?xml version="1.0" encoding="utf-8"?>
<!-- Generator: Adobe Illustrator 24.2.3, SVG Export Plug-In . SVG Version: 6.00 Build 0)  -->
<svg version="1.1" xmlns="http://www.w3.org/2000/svg" xmlns:xlink="http://www.w3.org/1999/xlink" x="0px" y="0px"
	 viewBox="0 0 450 292" style="enable-background:new 0 0 450 292;" xml:space="preserve">
<style type="text/css">
	.st0{opacity:0.46;fill:#FFFFFF;}
	.st1{fill:#0A90B7;}
	.st2{fill:#F2F2F2;}
	.st3{fill:#FFFFFF;}
	.st4{fill:#A6D7E5;}
	.st5{opacity:0.55;}
	.st6{fill:#757575;}
	.st7{fill:none;stroke:#FFFFFF;stroke-width:2;stroke-linecap:round;}
	.st8{fill:none;stroke:#0A90B7;stroke-width:0.75;stroke-miterlimit:10;}
	.st9{font-family:'Montserrat-SemiBold';}
	.st10{font-size:14.5836px;}
	.st11{fill:none;}
	.st12{font-family:'Montserrat-Medium';}
	.st13{font-size:13.2307px;}
	.st14{fill:#444444;}
	.st15{font-family:'Muli-Light';}
	.st16{font-size:11.7607px;}
	.st17{letter-spacing:19;}
	.st18{fill:#0A90B7;stroke:#0A90B7;stroke-width:0.25;stroke-miterlimit:10;}
	.st19{font-family:'Muli-Black';}
	.st20{letter-spacing:12;}
	.st21{opacity:0.46;fill:#209ABD;}
	.st22{opacity:0.6;fill:#0A90B7;}
	.st23{font-size:14.3045px;}
	.st24{letter-spacing:15;}
	.st25{letter-spacing:23;}
	.st26{font-size:16.0925px;}
	.st27{font-family:'Montserrat-LightItalic';}
	.st28{font-size:12.5164px;}
	.st29{opacity:0.55;fill:#F2F2F2;}
	.st30{fill:#1294C2;}
	.st31{fill:#C71F25;}
	.st32{opacity:0.1;enable-background:new    ;}
</style>
<g id="Layer_6">
</g>
<g id="Shapes">
</g>
<g id="background">
</g>
<g id="text">
</g>
<g id="Graphics">
</g>
<g id="Layer_5">
	<rect x="49.2" class="st0" width="351.6" height="291.7"/>
	<path id="Path_7616_1_" class="st1" d="M381.5,48.7H106.3V11h275.2l8.3,18.9L381.5,48.7z"/>
	<rect x="60.2" y="11" class="st2" width="46.1" height="37.7"/>
	<text transform="matrix(1 0 0 1 119.0415 35.0703)" class="st3 st9 st10">Preparation</text>
	<g>
		<path class="st3" d="M77.2,39.3c-2.1,0-3.9-0.9-5.2-2.6c-1.3-1.7-2-4.1-2-6.9c0-2.8,0.7-5.2,2-6.9c1.3-1.7,3.1-2.6,5.2-2.6
			c2.1,0,3.9,0.9,5.2,2.6c1.3,1.7,2,4.1,2,6.9c0,2.8-0.7,5.2-2,6.9C81.1,38.5,79.3,39.3,77.2,39.3L77.2,39.3z M77.2,24.5
			c-0.6,0-0.9,0.3-1.2,1c-0.2,0.6-0.5,1.8-0.5,4.4c0,2.6,0.3,3.8,0.5,4.4c0.3,0.7,0.6,1,1.2,1c0.6,0,1-0.3,1.2-1
			c0.2-0.6,0.5-1.8,0.5-4.4c0-2.6-0.3-3.8-0.5-4.4C78.2,24.8,77.8,24.5,77.2,24.5L77.2,24.5z M95.4,39.3c0.4,0,0.7-0.4,0.7-1V36
			c0-0.5-0.3-1-0.7-1h-1c-1,0-1-0.5-1-1V21.3c0-0.5-0.3-1-0.7-1h-3.1c-0.3,0-0.6,0.2-0.7,0.6c-0.2,0.6-0.5,1-1,1.3
			c-0.6,0.3-1.4,0.5-2.4,0.5c-0.4,0-0.7,0.4-0.7,1v2.3c0,0.3,0.1,0.5,0.2,0.7c0.1,0.2,0.3,0.3,0.5,0.3h2.2v7v0.5c0,0.3,0,0.7-1,0.7
			h-1.1c-0.4,0-0.7,0.4-0.7,1v2.3c0,0.5,0.3,1,0.7,1H95.4L95.4,39.3z"/>
		<path class="st1" d="M85.5,38.4V36h1.1c0.7,0,1.2-0.1,1.4-0.3c0.2-0.2,0.3-0.6,0.3-1.4v-0.5V26h-2.9v-2.3c1.1,0,2-0.2,2.7-0.6
			c0.7-0.4,1.1-1,1.4-1.8h3.1v12.8c0,0.9,0.1,1.5,0.3,1.7c0.2,0.2,0.7,0.3,1.5,0.3h1v2.3H85.5z M70.6,29.8c0-2.6,0.6-4.7,1.8-6.2
			c1.2-1.6,2.8-2.4,4.8-2.4c2,0,3.6,0.8,4.8,2.4c1.2,1.6,1.8,3.7,1.8,6.3c0,2.6-0.6,4.7-1.8,6.2c-1.2,1.6-2.8,2.4-4.8,2.4
			c-2,0-3.6-0.8-4.8-2.4C71.2,34.5,70.6,32.4,70.6,29.8z M74.8,29.8c0,2.2,0.2,3.8,0.6,4.8c0.4,1,1,1.5,1.8,1.5
			c0.8,0,1.4-0.5,1.8-1.5c0.4-1,0.6-2.6,0.6-4.8c0-2.2-0.2-3.8-0.6-4.8c-0.4-1-1-1.5-1.8-1.5c-0.8,0-1.4,0.5-1.8,1.5
			C75,26,74.8,27.6,74.8,29.8z"/>
		<path class="st4" d="M92.8,35.9l-0.2,0.4c-0.3-0.4-0.5-1.1-0.5-2.2V22l0.4-0.5v12.6C92.5,35.1,92.6,35.6,92.8,35.9z M88.3,25.2H86
			l-0.4,0.5h2.7c0,0,0.1,0,0.1,0.1l0.3-0.3C88.6,25.3,88.5,25.2,88.3,25.2z M94.9,36.8v0.9H86l-0.4,0.5h9.6v-1.9L94.9,36.8z
			 M75.2,34.7c-0.4-1-0.6-2.6-0.6-4.9c0-2.3,0.2-3.9,0.6-4.9c0.4-1.1,1.1-1.6,2-1.6c0.6,0,1.1,0.3,1.5,0.7l0.2-0.3
			c-0.4-0.6-1-0.9-1.7-0.9c-1,0-1.8,0.6-2.3,1.8c-0.4,1.1-0.6,2.8-0.6,5.1c0,2.3,0.2,4,0.6,5.1c0.1,0.4,0.3,0.7,0.5,0.9l0.2-0.3
			C75.5,35.3,75.4,35,75.2,34.7z M81.9,23.8l-0.2,0.3c1.1,1.4,1.6,3.3,1.6,5.7c0,2.4-0.6,4.3-1.7,5.7c-1.1,1.4-2.6,2.2-4.4,2.2
			c-1.8,0-3.3-0.7-4.4-2.2v0l-0.2,0.3c0,0,0,0,0,0c1.2,1.5,2.7,2.3,4.6,2.3c1.9,0,3.5-0.8,4.7-2.3c1.2-1.5,1.8-3.6,1.8-6.1
			C83.6,27.4,83.1,25.3,81.9,23.8z"/>
	</g>
	<g class="st5">
		<path id="Path_1554_4_" class="st6" d="M234,167.5c0,4.9-4,8.9-8.9,8.9c-4.9,0-8.9-4-8.9-8.9c0-4.9,4-8.9,8.9-8.9
			C230,158.6,234,162.6,234,167.5z"/>
		<g id="Group_1434_4_" transform="translate(4.574 4.222)">
			<g id="arrow_4_" transform="translate(4.574 0)">
				<path id="arrow-2_4_" class="st3" d="M216,168.6c-0.3,0-0.5-0.1-0.7-0.3l-3.9-3.8c-0.4-0.3-0.4-0.9-0.1-1.3c0,0,0,0,0.1-0.1
					c0.4-0.4,1-0.4,1.4,0c0,0,0,0,0,0l3.2,3.1l3.2-3.1c0.4-0.4,1-0.4,1.4,0c0,0,0,0,0,0c0.4,0.3,0.4,0.9,0.1,1.3c0,0,0,0-0.1,0.1
					l-3.9,3.8C216.5,168.5,216.3,168.7,216,168.6z"/>
			</g>
			<path id="Path_1968_4_" class="st7" d="M220.5,166.6v-7.9"/>
		</g>
	</g>
	<g class="st5">
		<rect x="70.9" y="63.8" class="st2" width="308.3" height="87.9"/>
		<g>
			<rect x="88.8" y="80.5" class="st11" width="160.1" height="29.1"/>
			<text transform="matrix(1 0 0 1 88.8096 91.7852)" class="st1 st12 st13">FedRAMP Connect</text>
		</g>
		<g>
			<rect x="96.1" y="103.8" class="st11" width="224.8" height="35.5"/>
			<text transform="matrix(1 0 0 1 96.145 113.8892)"><tspan x="0" y="0" class="st14 st15 st16 st17">	</tspan><tspan x="22.1" y="0" class="st14 st15 st16">FedRAMP Connect Business Case</tspan><tspan x="0" y="22.1" class="st18 st19 st16">•</tspan><tspan x="6.3" y="22.1" class="st14 st15 st16 st20">	</tspan><tspan x="22.1" y="22.1" class="st14 st15 st16">Prioritized to work with JAB</tspan></text>
		</g>
		<line class="st8" x1="99.3" y1="105.2" x2="99.3" y2="130.5"/>
		<g>
			<g>
				<circle class="st1" cx="99.3" cy="108.1" r="8.9"/>
			</g>
			<g>
				<path class="st3" d="M101.2,105.6c-0.3,0-0.5-0.2-0.5-0.5v-2.9h-4.5c-0.6,0-1.2,0.5-1.2,1.2v9.3c0,0.6,0.5,1.2,1.2,1.2h6.8
					c0.6,0,1.2-0.5,1.2-1.2v-7.1H101.2z"/>
			</g>
			<path class="st4" d="M101.2,105.6h3l-3.4-3.4v3C100.8,105.4,100.9,105.6,101.2,105.6z"/>
			<polygon class="st2" points="104.1,108.1 104.1,105.7 101.2,105.7 			"/>
		</g>
	</g>
	<rect x="49.2" class="st21" width="351.6" height="291.7"/>
	<g>
		<polygon class="st1" points="49.2,281.9 37.5,266.6 49.2,266.6 		"/>
		<polygon class="st1" points="400.8,281.9 412.5,266.6 400.8,266.6 		"/>
		<rect x="49.2" y="258.3" class="st22" width="351.6" height="14.5"/>
	</g>
	<rect x="37.5" y="95.9" class="st3" width="375" height="171.1"/>
	<g>
		<rect x="68.2" y="146.6" class="st11" width="323.7" height="96.6"/>
		<text transform="matrix(1 0 0 1 68.2324 158.8657)"><tspan x="0" y="0" class="st18 st19 st23">•</tspan><tspan x="7.6" y="0" class="st14 st15 st23 st24">	</tspan><tspan x="26.8" y="0" class="st14 st15 st23">RAR Development</tspan><tspan x="0" y="26.8" class="st18 st19 st23">•</tspan><tspan x="7.6" y="26.8" class="st14 st15 st23 st24">	</tspan><tspan x="26.8" y="26.8" class="st14 st15 st23">FedRAMP PMO Review of RAR</tspan><tspan x="0" y="53.6" class="st18 st19 st23">•</tspan><tspan x="7.6" y="53.6" class="st14 st15 st23 st24">	</tspan><tspan x="26.8" y="53.6" class="st14 st15 st23">Remediation (if needed)</tspan><tspan x="0" y="80.5" class="st14 st15 st23 st25">	</tspan><tspan x="26.8" y="80.5" class="st14 st15 st23">FedRAMP Marketplace  Designation - Ready</tspan></text>
	</g>
	<g>
		<rect x="59.3" y="121.7" class="st11" width="273.4" height="17.9"/>
		<text transform="matrix(1 0 0 1 59.252 135.3574)"><tspan x="0" y="0" class="st1 st12 st26">Readiness Assessment</tspan><tspan x="189.5" y="0" class="st14 st27 st28"> (required)</tspan></text>
	</g>
	<line class="st8" x1="72.1" y1="152.6" x2="72.1" y2="216.7"/>
	<g>
		<g id="g56755_2_" transform="matrix(14,0,0,14,49637.042,519374.88)">
			<path id="path56757_2_" class="st31" d="M-3539.5-37081.6c0,0.4-0.4,0.8-0.8,0.8l0,0c-0.5,0-0.8-0.4-0.8-0.8l0,0
				c0-0.5,0.4-0.8,0.8-0.8l0,0C-3539.9-37082.4-3539.5-37082-3539.5-37081.6L-3539.5-37081.6z"/>
		</g>
		<path id="path53460_2_" class="st32" d="M77.2,226.7c-3.3,1.6-5,4.8-6.6,7.8l-2.2-2.2c-1.1,0.8-2.3,1.5-3.4,2.1l9.2,9.2
			c5.1-1.2,8.9-5.6,9.2-10.8L77.2,226.7z"/>
		<path id="path38606_2_" class="st3" d="M68.4,232.3c0.7,0.9,1.2,2,1.7,3.2c1.7-3.3,3.4-7.1,7.1-8.8c-0.3,1.5-0.6,3.3-0.1,4.9
			c-3.1,1.5-5,4.3-6.9,7.3c-1.9-2.6-3.4-3.4-5.2-4.3C66.1,233.8,67.3,233.1,68.4,232.3L68.4,232.3z"/>
	</g>
</g>
</svg>
