<?xml version="1.0" encoding="utf-8"?>
<!-- Generator: Adobe Illustrator 24.2.3, SVG Export Plug-In . SVG Version: 6.00 Build 0)  -->
<svg version="1.1" xmlns="http://www.w3.org/2000/svg" xmlns:xlink="http://www.w3.org/1999/xlink" x="0px" y="0px"
	 viewBox="0 0 500 250" style="enable-background:new 0 0 500 250;" xml:space="preserve">
<style type="text/css">
	.st0{fill:#F7F7F7;}
	.st1{fill:none;stroke:#DFDFDF;}
	.st2{fill:#424344;}
	.st3{fill:#0077B4;}
	.st4{fill:#EAEAEA;stroke:#FFFFFF;}
	.st5{opacity:0.21;}
	.st6{opacity:0.15;}
	.st7{fill:#FFFFFF;}
	.st8{fill:#C71F25;}
	.st9{fill:#C94F30;}
	.st10{fill:#E5E5E5;}
	.st11{fill:#0A90B7;}
	.st12{fill:#444444;}
	.st13{opacity:0.1;}
	.st14{opacity:0.11;fill:#FFFFFF;}
	.st15{fill:#757575;}
	.st16{opacity:0.14;fill:#FFFFFF;}
	.st17{opacity:0.21;fill:#FFFFFF;}
	.st18{fill:#F0F0F0;}
	.st19{fill:none;stroke:#E5E5E5;stroke-width:0.25;stroke-miterlimit:10;}
	.st20{fill:#1A4480;}
	.st21{fill:#C4C4C4;}
	.st22{fill:#141414;}
	.st23{fill:#0F0F0F;}
	.st24{fill:#1E1E1E;}
	.st25{opacity:0.5;fill:#424242;}
	.st26{opacity:6.000000e-02;}
	.st27{fill:#1B2225;}
	.st28{fill:#F4F4F4;}
	.st29{opacity:0.13;}
</style>
<g id="Layer_10">
	
		<ellipse transform="matrix(0.9935 -0.1138 0.1138 0.9935 -13.0183 30.2878)" class="st0" cx="258.8" cy="129.2" rx="230.6" ry="118.4"/>
	<g>
		<line class="st1" x1="28" y1="30.3" x2="28" y2="191.3"/>
		<line class="st1" x1="471.1" y1="84.5" x2="471.1" y2="170.1"/>
		<line class="st1" x1="251.2" y1="93.3" x2="251.2" y2="103.6"/>
		<polyline class="st1" points="299.1,119.6 299.1,189.1 460.6,189.1 		"/>
		<line class="st1" x1="55.8" y1="75.2" x2="213.7" y2="75.2"/>
		<line class="st1" x1="42.9" y1="130" x2="103.5" y2="130"/>
		<line class="st1" x1="404.3" y1="133.2" x2="437.6" y2="133.2"/>
		<line class="st1" x1="104.2" y1="117.2" x2="140.3" y2="117.2"/>
	</g>
	<g>
		<polygon points="332.2,50.9 314.8,68.3 297.4,50.9 		"/>
	</g>
	<g>
		<polygon points="332.2,106.9 314.8,124.4 297.4,106.9 		"/>
		<polygon class="st2" points="297.4,106.9 314.8,89.5 332.2,106.9 		"/>
	</g>
	<rect x="223.7" y="100.7" class="st3" width="55.9" height="33"/>
	<g>
		
			<rect x="12.1" y="5.8" transform="matrix(0.7071 -0.7071 0.7071 0.7071 -7.1098 26.106)" class="st4" width="31.7" height="31.7"/>
		
			<rect x="108.7" y="59.4" transform="matrix(0.7071 -0.7071 0.7071 0.7071 -16.719 110.1258)" class="st4" width="31.7" height="31.7"/>
		
			<rect x="455.3" y="61" transform="matrix(0.7071 -0.7071 0.7071 0.7071 83.652 355.6614)" class="st4" width="31.7" height="31.7"/>
		
			<rect x="12.1" y="113.7" transform="matrix(0.7071 -0.7071 0.7071 0.7071 -83.4309 57.7192)" class="st4" width="31.7" height="31.7"/>
		<path class="st4" d="M51.3,189.3c0,12.9-10.5,23.4-23.4,23.4S4.6,202.2,4.6,189.3c0-12.9,10.5-23.4,23.4-23.4
			S51.3,176.4,51.3,189.3z"/>
		<path class="st4" d="M494.5,189.3c0,12.9-10.5,23.4-23.4,23.4s-23.4-10.5-23.4-23.4c0-12.9,10.5-23.4,23.4-23.4
			S494.5,176.4,494.5,189.3z"/>
		<rect y="58.8" class="st4" width="55.9" height="33"/>
		<rect x="271.2" y="172.9" class="st4" width="55.9" height="33"/>
		<rect x="443.2" y="117.4" class="st4" width="55.9" height="33"/>
	</g>
</g>
<g id="Layer_5" class="st5">
</g>
<g id="Layer_8">
</g>
<g id="Layer_16">
</g>
<g id="Layer_7">
	<g id="Layer_9">
	</g>
</g>
<g id="Layer_6">
</g>
<g id="Layer_15">
	<polygon class="st6" points="444,33.5 444,33.5 444,23.7 440.7,23.7 440.7,21.5 439.5,21.5 439.5,23.7 436.4,23.7 436.4,21.5 
		435.2,21.5 435.2,23.7 432,23.7 432,21.5 430.8,21.5 430.8,23.7 427.7,23.7 427.7,21.5 426.5,21.5 426.5,23.7 423.3,23.7 
		423.3,21.5 422.1,21.5 422.1,23.7 419,23.7 419,21.5 417.8,21.5 417.8,23.7 414.6,23.7 414.6,21.5 413.4,21.5 413.4,23.7 
		410.3,23.7 410.3,21.5 409.1,21.5 409.1,23.7 405.9,23.7 405.9,21.5 404.7,21.5 404.7,23.7 401.6,23.7 401.6,21.5 400.4,21.5 
		400.4,23.7 397.2,23.7 397.2,21.5 396,21.5 396,23.7 392.9,23.7 392.9,21.5 391.6,21.5 391.6,23.7 388.5,23.7 388.5,21.5 
		387.3,21.5 387.3,23.7 384.2,23.8 384.2,21.5 382.9,21.5 382.9,23.8 379.8,23.8 379.8,21.5 378.6,21.5 378.6,23.8 375.3,23.8 
		375.3,81.1 444.1,81.1 	"/>
	<g>
		<rect x="373" y="21.9" class="st7" width="68.8" height="57.4"/>
		<rect x="373" y="21.9" class="st8" width="68.8" height="9.7"/>
		<g>
			<path class="st9" d="M378.3,25.9c0,0.7-0.6,1.3-1.3,1.3c-0.7,0-1.3-0.6-1.3-1.3c0-0.7,0.6-1.3,1.3-1.3
				C377.7,24.5,378.3,25.1,378.3,25.9z"/>
			<path class="st9" d="M382.6,25.9c0,0.7-0.6,1.3-1.3,1.3c-0.7,0-1.3-0.6-1.3-1.3c0-0.7,0.6-1.3,1.3-1.3
				C382,24.5,382.6,25.1,382.6,25.9z"/>
			<path class="st9" d="M387,25.9c0,0.7-0.6,1.3-1.3,1.3c-0.7,0-1.3-0.6-1.3-1.3c0-0.7,0.6-1.3,1.3-1.3
				C386.4,24.5,387,25.1,387,25.9z"/>
			<path class="st9" d="M391.3,25.9c0,0.7-0.6,1.3-1.3,1.3c-0.7,0-1.3-0.6-1.3-1.3c0-0.7,0.6-1.3,1.3-1.3
				C390.7,24.5,391.3,25.1,391.3,25.9z"/>
			<path class="st9" d="M395.7,25.9c0,0.7-0.6,1.3-1.3,1.3c-0.7,0-1.3-0.6-1.3-1.3c0-0.7,0.6-1.3,1.3-1.3
				C395.1,24.5,395.7,25.1,395.7,25.9z"/>
			<path class="st9" d="M400,25.8c0,0.7-0.6,1.3-1.3,1.3c-0.7,0-1.3-0.6-1.3-1.3c0-0.7,0.6-1.3,1.3-1.3
				C399.4,24.5,400,25.1,400,25.8z"/>
			<path class="st9" d="M404.4,25.8c0,0.7-0.6,1.3-1.3,1.3c-0.7,0-1.3-0.6-1.3-1.3c0-0.7,0.6-1.3,1.3-1.3
				C403.8,24.5,404.4,25.1,404.4,25.8z"/>
			<path class="st9" d="M408.7,25.8c0,0.7-0.6,1.3-1.3,1.3c-0.7,0-1.3-0.6-1.3-1.3c0-0.7,0.6-1.3,1.3-1.3
				C408.1,24.5,408.7,25.1,408.7,25.8z"/>
			<path class="st9" d="M413.1,25.8c0,0.7-0.6,1.3-1.3,1.3c-0.7,0-1.3-0.6-1.3-1.3c0-0.7,0.6-1.3,1.3-1.3
				C412.5,24.5,413.1,25.1,413.1,25.8z"/>
			<path class="st9" d="M417.4,25.8c0,0.7-0.6,1.3-1.3,1.3c-0.7,0-1.3-0.6-1.3-1.3c0-0.7,0.6-1.3,1.3-1.3
				C416.8,24.5,417.4,25.1,417.4,25.8z"/>
			<path class="st9" d="M421.8,25.8c0,0.7-0.6,1.3-1.3,1.3c-0.7,0-1.3-0.6-1.3-1.3c0-0.7,0.6-1.3,1.3-1.3
				C421.2,24.5,421.8,25.1,421.8,25.8z"/>
			<path class="st9" d="M426.2,25.8c0,0.7-0.6,1.3-1.3,1.3c-0.7,0-1.3-0.6-1.3-1.3c0-0.7,0.6-1.3,1.3-1.3
				C425.6,24.5,426.2,25.1,426.2,25.8z"/>
			<path class="st9" d="M430.5,25.8c0,0.7-0.6,1.3-1.3,1.3c-0.7,0-1.3-0.6-1.3-1.3c0-0.7,0.6-1.3,1.3-1.3
				C429.9,24.5,430.5,25.1,430.5,25.8z"/>
			<path class="st9" d="M434.9,25.8c0,0.7-0.6,1.3-1.3,1.3c-0.7,0-1.3-0.6-1.3-1.3c0-0.7,0.6-1.3,1.3-1.3
				C434.3,24.5,434.9,25.1,434.9,25.8z"/>
			<path class="st9" d="M439.2,25.8c0,0.7-0.6,1.3-1.3,1.3c-0.7,0-1.3-0.6-1.3-1.3c0-0.7,0.6-1.3,1.3-1.3
				C438.6,24.5,439.2,25.1,439.2,25.8z"/>
		</g>
		<g>
			<rect x="376.3" y="19.6" class="st7" width="1.2" height="6.1"/>
			<rect x="380.7" y="19.6" class="st7" width="1.2" height="6.1"/>
			<rect x="385.1" y="19.6" class="st7" width="1.2" height="6.1"/>
			<rect x="389.4" y="19.6" class="st7" width="1.2" height="6.1"/>
			<rect x="393.8" y="19.6" class="st7" width="1.2" height="6.1"/>
			<rect x="398.1" y="19.6" class="st7" width="1.2" height="6.1"/>
			<rect x="402.5" y="19.6" class="st7" width="1.2" height="6.1"/>
			<rect x="406.8" y="19.6" class="st7" width="1.2" height="6.1"/>
			<rect x="411.2" y="19.6" class="st7" width="1.2" height="6.1"/>
			<rect x="415.5" y="19.6" class="st7" width="1.2" height="6.1"/>
			<rect x="419.9" y="19.6" class="st7" width="1.2" height="6.1"/>
			<rect x="424.2" y="19.6" class="st7" width="1.2" height="6.1"/>
			<rect x="428.6" y="19.6" class="st7" width="1.2" height="6.1"/>
			<rect x="432.9" y="19.6" class="st7" width="1.2" height="6.1"/>
			<rect x="437.3" y="19.6" class="st7" width="1.2" height="6.1"/>
		</g>
		<rect x="413" y="44.2" class="st7" width="11.5" height="7.6"/>
		<path class="st10" d="M413.4,37l10.8,0l0,6.9l-10.8,0L413.4,37z M424.2,51.5l-10.8,0l0-6.9l10.8,0L424.2,51.5z M424.2,59l-10.8,0
			l0-6.9l10.8,0L424.2,59z M424.2,66.5l-10.8,0l0-6.9l10.8,0L424.2,66.5L424.2,66.5z M390.6,66.5l0-6.9l10.8,0l0,6.9L390.6,66.5z
			 M390.6,52.1l10.8,0l0,6.9l-10.8,0L390.6,52.1z M390.6,44.6l10.8,0l0,6.9l-10.8,0L390.6,44.6z M412.8,44.6l0,6.9l-10.8,0l0-6.9
			L412.8,44.6z M412.8,59L402,59l0-6.9l10.8,0L412.8,59z M402,66.5l0-6.9l10.8,0l0,6.9L402,66.5z M402,37l10.8,0l0,6.9l-10.8,0
			L402,37z M390.6,37l10.8,0l0,6.9l-10.8,0L390.6,37z M379.2,44.6l10.8,0l0,6.9l-10.8,0L379.2,44.6z M379.2,52.2l10.8,0l0,6.9
			l-10.8,0L379.2,52.2z M379.2,59.7l10.8,0l0,6.9l-10.8,0L379.2,59.7z M390,74.2l-10.8,0l0-6.9l10.8,0L390,74.2z M401.4,74.2
			l-10.8,0l0-6.9l10.8,0L401.4,74.2z M412.8,74.1l-10.8,0l0-6.9l10.8,0L412.8,74.1L412.8,74.1z M413.4,74.1l0-6.9l10.8,0l12,0l0-0.7
			l0-6.9l0-0.7l0-6.9l0-0.7l0-6.9l0-0.7l0-7.5l-11.4,0l-0.6,0l-10.8,0l-0.6,0l-10.8,0l-0.6,0l-10.8,0l-0.6,0l0,0.6l0,6.9l-10.8,0
			l-0.6,0l0,0.7l0,6.9l0,0.7l0,6.9l0,0.7l0,6.9l0,0.7l0,7.5l11.4,0l0.6,0l10.8,0l0.6,0l10.8,0l0.6,0L413.4,74.1z M435.7,66.5
			l-10.8,0l0-6.9l10.8,0L435.7,66.5z M435.6,59l-10.8,0l0-6.9l10.8,0L435.6,59z M435.6,51.5l-10.8,0l0-6.9l10.8,0L435.6,51.5z
			 M424.8,43.9l0-6.9l10.8,0l0,6.9L424.8,43.9z"/>
		<g>
			<rect x="391.7" y="37.8" class="st10" width="1.8" height="1.4"/>
			<rect x="403" y="37.8" class="st10" width="1.8" height="1.4"/>
			<rect x="414.4" y="37.8" class="st10" width="1.8" height="1.4"/>
			<rect x="425.8" y="37.8" class="st10" width="1.8" height="1.4"/>
		</g>
		<g>
			<rect x="380.3" y="45.5" class="st10" width="1.8" height="1.4"/>
			<rect x="391.7" y="45.5" class="st10" width="1.8" height="1.4"/>
			<rect x="403" y="45.5" class="st10" width="1.8" height="1.4"/>
			<rect x="414.4" y="45.5" class="st10" width="1.8" height="1.4"/>
			<rect x="425.8" y="45.5" class="st10" width="1.8" height="1.4"/>
		</g>
		<g>
			<rect x="380.3" y="53.2" class="st10" width="1.8" height="1.4"/>
			<rect x="391.7" y="53.2" class="st10" width="1.8" height="1.4"/>
			<rect x="403" y="53.2" class="st10" width="1.8" height="1.4"/>
			<rect x="414.4" y="53.2" class="st10" width="1.8" height="1.4"/>
			<rect x="425.8" y="53.2" class="st10" width="1.8" height="1.4"/>
		</g>
		<g>
			<rect x="380.3" y="60.7" class="st10" width="1.8" height="1.4"/>
			<rect x="391.7" y="60.7" class="st10" width="1.8" height="1.4"/>
			<rect x="403" y="60.7" class="st10" width="1.8" height="1.4"/>
			<rect x="414.4" y="60.7" class="st10" width="1.8" height="1.4"/>
			<rect x="425.8" y="60.7" class="st10" width="1.8" height="1.4"/>
		</g>
		<g>
			<rect x="380.3" y="68.4" class="st10" width="1.8" height="1.4"/>
			<rect x="391.7" y="68.4" class="st10" width="1.8" height="1.4"/>
			<rect x="403" y="68.4" class="st10" width="1.8" height="1.4"/>
		</g>
		<g>
			<path class="st11" d="M398.9,38.1c-0.3-0.3-0.7-0.3-1-0.1l-1.8,1.6l-1.9-1.4c-0.3-0.2-0.8-0.2-1,0.2c-0.2,0.3-0.2,0.8,0.2,1
				l1.7,1.2l-1.6,1.4c-0.3,0.3-0.3,0.7-0.1,1c0.1,0.1,0.2,0.2,0.4,0.2c0.2,0,0.5,0,0.6-0.2l1.8-1.6l2.2,1.5c0.1,0.1,0.2,0.1,0.3,0.1
				c0.3,0.1,0.6,0,0.7-0.3c0.2-0.3,0.2-0.8-0.2-1l-1.9-1.4l1.6-1.4C399.2,38.8,399.2,38.4,398.9,38.1z"/>
		</g>
		<g>
			<path class="st11" d="M410.3,38.3c-0.3-0.3-0.7-0.3-1-0.1l-1.8,1.6l-1.9-1.4c-0.3-0.2-0.8-0.2-1,0.2c-0.2,0.3-0.2,0.8,0.2,1
				l1.7,1.2l-1.6,1.4c-0.3,0.3-0.3,0.7-0.1,1c0.1,0.1,0.2,0.2,0.4,0.2c0.2,0,0.5,0,0.6-0.2l1.8-1.6l2.2,1.5c0.1,0.1,0.2,0.1,0.3,0.1
				c0.3,0.1,0.6,0,0.7-0.3c0.2-0.3,0.2-0.8-0.2-1l-1.9-1.4l1.6-1.4C410.5,39,410.6,38.6,410.3,38.3z"/>
		</g>
		<g>
			<path class="st11" d="M421.9,38c-0.3-0.3-0.7-0.3-1-0.1l-1.8,1.6l-1.9-1.4c-0.3-0.2-0.8-0.2-1,0.2c-0.2,0.3-0.2,0.8,0.2,1
				l1.7,1.2l-1.6,1.4c-0.3,0.3-0.3,0.7-0.1,1c0.1,0.1,0.2,0.2,0.4,0.2c0.2,0,0.5,0,0.6-0.2l1.8-1.6l2.2,1.5c0.1,0.1,0.2,0.1,0.3,0.1
				c0.3,0.1,0.6,0,0.7-0.3c0.2-0.3,0.2-0.8-0.2-1l-1.9-1.4l1.6-1.4C422.2,38.7,422.2,38.3,421.9,38z"/>
		</g>
		<g>
			<path class="st11" d="M432.9,38.3c-0.3-0.3-0.7-0.3-1-0.1l-1.8,1.6l-1.9-1.4c-0.3-0.2-0.8-0.2-1,0.2c-0.2,0.3-0.2,0.8,0.2,1
				l1.7,1.2l-1.6,1.4c-0.3,0.3-0.3,0.7-0.1,1c0.1,0.1,0.2,0.2,0.4,0.2c0.2,0,0.5,0,0.6-0.2l1.8-1.6l2.2,1.5c0.1,0.1,0.2,0.1,0.3,0.1
				c0.3,0.1,0.6,0,0.7-0.3c0.2-0.3,0.2-0.8-0.2-1l-1.9-1.4l1.6-1.4C433.1,39.1,433.1,38.6,432.9,38.3z"/>
		</g>
		<g>
			<path class="st11" d="M388.1,45.6c-0.3-0.3-0.7-0.3-1-0.1l-1.8,1.6l-1.9-1.4c-0.3-0.2-0.8-0.2-1,0.2c-0.2,0.3-0.2,0.8,0.2,1
				l1.7,1.2l-1.6,1.4c-0.3,0.3-0.3,0.7-0.1,1c0.1,0.1,0.2,0.2,0.4,0.2c0.2,0,0.5,0,0.6-0.2l1.8-1.6l2.2,1.5c0.1,0.1,0.2,0.1,0.3,0.1
				c0.3,0.1,0.6,0,0.7-0.3c0.2-0.3,0.2-0.8-0.2-1l-1.9-1.4l1.6-1.4C388.3,46.4,388.4,45.9,388.1,45.6z"/>
		</g>
		<g>
			<path class="st11" d="M398.5,45.5c-0.3-0.3-0.7-0.3-1-0.1l-1.8,1.6l-1.9-1.4c-0.3-0.2-0.8-0.2-1,0.2c-0.2,0.3-0.2,0.8,0.2,1
				l1.7,1.2l-1.6,1.4c-0.3,0.3-0.3,0.7-0.1,1c0.1,0.1,0.2,0.2,0.4,0.2c0.2,0,0.5,0,0.6-0.2l1.8-1.6l2.2,1.5c0.1,0.1,0.2,0.1,0.3,0.1
				c0.3,0.1,0.6,0,0.7-0.3c0.2-0.3,0.2-0.8-0.2-1l-1.9-1.4l1.6-1.4C398.7,46.3,398.7,45.8,398.5,45.5z"/>
		</g>
	</g>
	<g>
		<polygon class="st6" points="452.7,106.7 360.7,106.7 360.7,211.3 360.7,211.3 360.7,230 430.8,230 452.7,230 452.7,230 
			452.7,230 		"/>
		<g>
			<g>
				<rect x="355.4" y="100.4" class="st6" width="94.6" height="127"/>
			</g>
			<rect x="355.4" y="100.4" class="st7" width="94.6" height="127"/>
			<polygon class="st12" points="450,100.4 450,122.1 395.3,100.4 			"/>
			<rect x="374" y="134.7" class="st13" width="64.2" height="1.6"/>
			<rect x="392.3" y="128.5" class="st13" width="27.6" height="1.6"/>
			<rect x="367.2" y="138.8" class="st13" width="71.1" height="1.6"/>
			<rect x="367.2" y="142.9" class="st13" width="71.1" height="1.6"/>
			<rect x="374" y="147" class="st13" width="64.2" height="1.6"/>
			<rect x="367.2" y="151.1" class="st13" width="71.1" height="1.6"/>
			<rect x="367.2" y="155.2" class="st13" width="71.1" height="1.6"/>
			<rect x="367.2" y="159.3" class="st13" width="71.1" height="1.6"/>
			<rect x="367.2" y="163.4" class="st13" width="71.1" height="1.6"/>
			<rect x="367.2" y="167.6" class="st13" width="71.1" height="1.6"/>
			<rect x="367.2" y="171.7" class="st13" width="71.1" height="1.6"/>
			<rect x="367.2" y="175.8" class="st13" width="71.1" height="1.6"/>
			<rect x="367.2" y="179.9" class="st13" width="71.1" height="1.6"/>
			<rect x="374" y="184" class="st13" width="64.2" height="1.6"/>
			<rect x="367.2" y="188.1" class="st13" width="71.1" height="1.6"/>
			<rect x="424.3" y="202" class="st13" width="13.9" height="1.6"/>
			<rect x="367.2" y="192.2" class="st13" width="71.1" height="1.6"/>
			<polygon class="st12" points="427.5,227.4 355.4,227.4 355.4,208.1 			"/>
			<polygon class="st14" points="409.8,100.4 406.8,100.5 450,137.3 450,109.9 			"/>
			<polygon class="st14" points="355.4,224.9 450,212.6 450,227.4 355.4,227.4 			"/>
			<g class="st13">
				<path d="M430.4,105.2h-20c-0.7,0-1.4-0.2-2.1-0.7c-0.5-0.3-1.6-0.7-3.4-0.7c-1.8,0-2.9,0.4-3.4,0.7c-0.6,0.4-1.4,0.7-2.1,0.7
					h-20c-0.8,0-1.5-0.6-1.5-1.4v-3.9c0-0.8,0.7-1.4,1.5-1.4h50.9c0.8,0,1.5,0.6,1.5,1.4v3.9C431.9,104.6,431.3,105.2,430.4,105.2z
					 M405,102.8c1.7,0,3.2,0.3,4,0.9c0.5,0.3,1,0.5,1.5,0.5h20c0.3,0,0.5-0.2,0.5-0.4v-3.9c0-0.2-0.2-0.4-0.5-0.4h-50.9
					c-0.3,0-0.5,0.2-0.5,0.4v3.9c0,0.2,0.2,0.4,0.5,0.4h20c0.5,0,1-0.2,1.5-0.5C401.8,103.2,403.3,102.8,405,102.8z"/>
			</g>
			<g>
				<path class="st11" d="M430,104.6h-20c-0.7,0-1.4-0.2-2.1-0.7c-0.5-0.3-1.6-0.7-3.4-0.7c-1.8,0-2.9,0.4-3.4,0.7
					c-0.6,0.4-1.4,0.7-2.1,0.7h-20c-0.8,0-1.5-0.6-1.5-1.4v-3.9c0-0.8,0.7-1.4,1.5-1.4H430c0.8,0,1.5,0.6,1.5,1.4v3.9
					C431.5,104,430.8,104.6,430,104.6z M404.5,102.2c1.7,0,3.2,0.3,4,0.9c0.5,0.3,1,0.5,1.5,0.5h20c0.3,0,0.5-0.2,0.5-0.4v-3.9
					c0-0.2-0.2-0.4-0.5-0.4h-50.9c-0.3,0-0.5,0.2-0.5,0.4v3.9c0,0.2,0.2,0.4,0.5,0.4h20c0.5,0,1-0.2,1.5-0.5
					C401.3,102.5,402.9,102.2,404.5,102.2z"/>
			</g>
		</g>
	</g>
	<path class="st6" d="M426.2,154.5c-0.8-1.2-1.7-1.9-2-1.7c-2,1-4,2-5.9,3.2l-23.6,15.9l-0.9,0.8l0.2,0.2l-22.2,16.2l-10.9,10.5
		l0.1,0.2c-0.9,0.7-1.6,1.4-1.4,1.6c0.2,0.2,1-0.1,2-0.8l0.1,0.2l13.5-6.9l22.8-15.3l0.1,0.2l1.1-0.6l15.8-11.6
		c0.4,0.4,0.9,0.9,0.7,1.3c-1.7,1-3.6,1.9-4.9,2.6c-1.4,0.7-2.6,1.3-3.1,1.7c-1.9,1.4-5.3,4.9-5.5,5.1c0,0-0.4,0.6-0.1,0.8
		c0.2,0.2,0.7-0.3,0.7-0.3c0,0,3.5-3.7,5.4-5c0.5-0.3,1.6-0.9,3-1.6c5.6-2.8,10.6-5.6,10.2-7.8c0-0.1,0-0.2-0.1-0.3
		c-0.2-0.3-0.5-0.4-0.9-0.4l1.7-1.2c1.7-1.4,3.4-2.9,5-4.4c0,0,0,0,0,0C427.5,156.7,427,155.6,426.2,154.5z"/>
	<g>
		<path class="st10" d="M426,155.6c-0.3,0.2-1.2-0.6-2-1.7c-0.8-1.2-1.2-2.2-1-2.4c0.3-0.2,1.2,0.6,2,1.7
			C425.9,154.3,426.3,155.4,426,155.6z"/>
		<path class="st15" d="M417.5,164.8c1.7-1.2,3.1-2.5,2.7-3.1c-1.4-2-6.8,3.2-6.8,3.2s1.8,1.4,1,1.8
			C413.7,167.1,415.9,166,417.5,164.8z"/>
		<path class="st8" d="M359.9,198.4c1-0.7,1.9-1.1,2.1-0.8c0.2,0.2-0.5,1-1.5,1.7c-1,0.7-1.9,1.1-2.1,0.8
			C358.3,199.9,359,199.1,359.9,198.4z"/>
		<polygon class="st10" points="370.6,187.8 374,192.6 360.5,199.5 359.7,198.3 		"/>
		<polygon class="st11" points="393.7,170.9 397.8,176.7 374,192.6 370.6,187.8 		"/>
		<g>
			<path class="st11" d="M417.2,154.6c1.3,1.8,2.6,3.6,3.9,5.4c-7.6,5.6-15.6,11.2-23.1,16.8c-1.5-2.1-3.1-4.2-4.6-6.3
				C401.3,165.2,409.5,159.9,417.2,154.6z"/>
		</g>
		<polygon class="st10" points="393.6,170.6 398,176.9 397,177.5 392.7,171.4 		"/>
		<path class="st8" d="M426,155.6c-1-1.4-2-2.8-2.9-4.2c-2,1-4,2-5.9,3.2c1.3,1.8,2.5,3.6,3.8,5.4
			C422.8,158.7,424.4,157.2,426,155.6z"/>
		
			<rect x="383.6" y="171" transform="matrix(-0.5752 -0.818 0.818 -0.5752 455.4418 603.4055)" class="st16" width="1.6" height="24.8"/>
		
			<rect x="407.5" y="154.2" transform="matrix(-0.5752 -0.818 0.818 -0.5752 506.9057 596.4732)" class="st16" width="1.6" height="24.8"/>
		<polygon class="st17" points="424.1,154.6 424.7,155.5 421.1,158.6 420.2,157.3 		"/>
		<polygon class="st18" points="360.2,199 373.6,192 372.6,190.7 		"/>
		<g>
			<path class="st12" d="M401.2,175.9c0.1-0.2,3.6-3.7,5.5-5.1c0.5-0.4,1.6-0.9,3.1-1.7c3.4-1.7,10.3-5.2,9.8-7l0.7-0.2
				c0.7,2.2-4.4,5-10.2,8c-1.3,0.7-2.5,1.3-3,1.6c-1.9,1.3-5.3,5-5.4,5c0,0-0.5,0.5-0.7,0.3C400.8,176.4,401.2,175.9,401.2,175.9z"
				/>
		</g>
	</g>
	<path class="st6" d="M364.3,1.5h-192c-3.3,0-5.3,3.7-3.5,6.4l21.5,40.7c0.8,1.2,2.1,1.9,3.5,1.9h-0.1c-1.9,0-3.4,2-3.4,4.4v92.8
		c0,2.4,1.5,4.4,3.4,4.4h61.6h26.3H343c1.9,0,3.4-2,3.4-4.4V54.9c0-2.4-1.5-4.4-3.4-4.4h-0.1c1.4,0,2.7-0.7,3.5-1.9l21.3-40.7
		C369.5,5.1,367.6,1.5,364.3,1.5z"/>
	<polygon class="st6" points="158.6,86.4 66.7,86.4 66.7,191.1 66.7,191.1 66.7,209.8 136.7,209.8 158.6,209.8 158.6,209.8 
		158.6,209.8 	"/>
	<g>
		<rect x="63.9" y="84" class="st7" width="91.9" height="123.4"/>
		<g>
			<rect x="71.1" y="167.4" class="st19" width="2.3" height="2.3"/>
			<rect x="71.1" y="165.1" class="st19" width="2.3" height="2.3"/>
			<rect x="71.1" y="162.7" class="st19" width="2.3" height="2.3"/>
			<rect x="71.1" y="160.4" class="st19" width="2.3" height="2.3"/>
			<rect x="71.1" y="158" class="st19" width="2.3" height="2.3"/>
			<rect x="71.1" y="155.7" class="st19" width="2.3" height="2.3"/>
			<rect x="71.1" y="153.3" class="st19" width="2.3" height="2.3"/>
			<rect x="71.1" y="151" class="st19" width="2.3" height="2.3"/>
			<rect x="71.1" y="148.6" class="st19" width="2.3" height="2.3"/>
			<rect x="73.5" y="167.4" class="st19" width="2.3" height="2.3"/>
			<rect x="73.5" y="165.1" class="st19" width="2.3" height="2.3"/>
			<rect x="73.5" y="162.7" class="st19" width="2.3" height="2.3"/>
			<rect x="73.5" y="160.4" class="st19" width="2.3" height="2.3"/>
			<rect x="73.5" y="158" class="st19" width="2.3" height="2.3"/>
			<rect x="73.5" y="155.7" class="st19" width="2.3" height="2.3"/>
			<rect x="73.5" y="153.3" class="st19" width="2.3" height="2.3"/>
			<rect x="73.5" y="151" class="st19" width="2.3" height="2.3"/>
			<rect x="73.5" y="148.6" class="st19" width="2.3" height="2.3"/>
			<rect x="75.8" y="167.4" class="st19" width="2.3" height="2.3"/>
			<rect x="75.8" y="165.1" class="st19" width="2.3" height="2.3"/>
			<rect x="75.8" y="162.7" class="st19" width="2.3" height="2.3"/>
			<rect x="75.8" y="160.4" class="st19" width="2.3" height="2.3"/>
			<rect x="75.8" y="158" class="st19" width="2.3" height="2.3"/>
			<rect x="75.8" y="155.7" class="st19" width="2.3" height="2.3"/>
			<rect x="75.8" y="153.3" class="st19" width="2.3" height="2.3"/>
			<rect x="75.8" y="151" class="st19" width="2.3" height="2.3"/>
			<rect x="75.8" y="148.6" class="st19" width="2.3" height="2.3"/>
			<rect x="78.2" y="167.4" class="st19" width="2.3" height="2.3"/>
			<rect x="78.2" y="165.1" class="st19" width="2.3" height="2.3"/>
			<rect x="78.2" y="162.7" class="st19" width="2.3" height="2.3"/>
			<rect x="78.2" y="160.4" class="st19" width="2.3" height="2.3"/>
			<rect x="78.2" y="158" class="st19" width="2.3" height="2.3"/>
			<rect x="78.2" y="155.7" class="st19" width="2.3" height="2.3"/>
			<rect x="78.2" y="153.3" class="st19" width="2.3" height="2.3"/>
			<rect x="78.2" y="151" class="st19" width="2.3" height="2.3"/>
			<rect x="78.2" y="148.6" class="st19" width="2.3" height="2.3"/>
			<rect x="80.5" y="167.4" class="st19" width="2.3" height="2.3"/>
			<rect x="80.5" y="165.1" class="st19" width="2.3" height="2.3"/>
			<rect x="80.5" y="162.7" class="st19" width="2.3" height="2.3"/>
			<rect x="80.5" y="160.4" class="st19" width="2.3" height="2.3"/>
			<rect x="80.5" y="158" class="st19" width="2.3" height="2.3"/>
			<rect x="80.5" y="155.7" class="st19" width="2.3" height="2.3"/>
			<rect x="80.5" y="153.3" class="st19" width="2.3" height="2.3"/>
			<rect x="80.5" y="151" class="st19" width="2.3" height="2.3"/>
			<rect x="80.5" y="148.6" class="st19" width="2.3" height="2.3"/>
			<rect x="82.8" y="167.4" class="st19" width="2.3" height="2.3"/>
			<rect x="82.8" y="165.1" class="st19" width="2.3" height="2.3"/>
			<rect x="82.8" y="162.7" class="st19" width="2.3" height="2.3"/>
			<rect x="82.8" y="160.4" class="st19" width="2.3" height="2.3"/>
			<rect x="82.8" y="158" class="st19" width="2.3" height="2.3"/>
			<rect x="82.8" y="155.7" class="st19" width="2.3" height="2.3"/>
			<rect x="82.8" y="153.3" class="st19" width="2.3" height="2.3"/>
			<rect x="82.8" y="151" class="st19" width="2.3" height="2.3"/>
			<rect x="82.8" y="148.6" class="st19" width="2.3" height="2.3"/>
			<rect x="85.2" y="167.4" class="st19" width="2.3" height="2.3"/>
			<rect x="85.2" y="165.1" class="st19" width="2.3" height="2.3"/>
			<rect x="85.2" y="162.7" class="st19" width="2.3" height="2.3"/>
			<rect x="85.2" y="160.4" class="st19" width="2.3" height="2.3"/>
			<rect x="85.2" y="158" class="st19" width="2.3" height="2.3"/>
			<rect x="85.2" y="155.7" class="st19" width="2.3" height="2.3"/>
			<rect x="85.2" y="153.3" class="st19" width="2.3" height="2.3"/>
			<rect x="85.2" y="151" class="st19" width="2.3" height="2.3"/>
			<rect x="85.2" y="148.6" class="st19" width="2.3" height="2.3"/>
			<rect x="87.5" y="167.4" class="st19" width="2.3" height="2.3"/>
			<rect x="87.5" y="165.1" class="st19" width="2.3" height="2.3"/>
			<rect x="87.5" y="162.7" class="st19" width="2.3" height="2.3"/>
			<rect x="87.5" y="160.4" class="st19" width="2.3" height="2.3"/>
			<rect x="87.5" y="158" class="st19" width="2.3" height="2.3"/>
			<rect x="87.5" y="155.7" class="st19" width="2.3" height="2.3"/>
			<rect x="87.5" y="153.3" class="st19" width="2.3" height="2.3"/>
			<rect x="87.5" y="151" class="st19" width="2.3" height="2.3"/>
			<rect x="87.5" y="148.6" class="st19" width="2.3" height="2.3"/>
			<rect x="89.9" y="167.4" class="st19" width="2.3" height="2.3"/>
			<rect x="89.9" y="165.1" class="st19" width="2.3" height="2.3"/>
			<rect x="89.9" y="162.7" class="st19" width="2.3" height="2.3"/>
			<rect x="89.9" y="160.4" class="st19" width="2.3" height="2.3"/>
			<rect x="89.9" y="158" class="st19" width="2.3" height="2.3"/>
			<rect x="89.9" y="155.7" class="st19" width="2.3" height="2.3"/>
			<rect x="89.9" y="153.3" class="st19" width="2.3" height="2.3"/>
			<rect x="89.9" y="151" class="st19" width="2.3" height="2.3"/>
			<rect x="89.9" y="148.6" class="st19" width="2.3" height="2.3"/>
			<rect x="92.2" y="167.4" class="st19" width="2.3" height="2.3"/>
			<rect x="92.2" y="165.1" class="st19" width="2.3" height="2.3"/>
			<rect x="92.2" y="162.7" class="st19" width="2.3" height="2.3"/>
			<rect x="92.2" y="160.4" class="st19" width="2.3" height="2.3"/>
			<rect x="92.2" y="158" class="st19" width="2.3" height="2.3"/>
			<rect x="92.2" y="155.7" class="st19" width="2.3" height="2.3"/>
			<rect x="92.2" y="153.3" class="st19" width="2.3" height="2.3"/>
			<rect x="92.2" y="151" class="st19" width="2.3" height="2.3"/>
			<rect x="92.2" y="148.6" class="st19" width="2.3" height="2.3"/>
			<rect x="94.6" y="167.4" class="st19" width="2.3" height="2.3"/>
			<rect x="94.6" y="165.1" class="st19" width="2.3" height="2.3"/>
			<rect x="94.6" y="162.7" class="st19" width="2.3" height="2.3"/>
			<rect x="94.6" y="160.4" class="st19" width="2.3" height="2.3"/>
			<rect x="94.6" y="158" class="st19" width="2.3" height="2.3"/>
			<rect x="94.6" y="155.7" class="st19" width="2.3" height="2.3"/>
			<rect x="94.6" y="153.3" class="st19" width="2.3" height="2.3"/>
			<rect x="94.6" y="151" class="st19" width="2.3" height="2.3"/>
			<rect x="94.6" y="148.6" class="st19" width="2.3" height="2.3"/>
			<rect x="96.9" y="167.4" class="st19" width="2.3" height="2.3"/>
			<rect x="96.9" y="165.1" class="st19" width="2.3" height="2.3"/>
			<rect x="96.9" y="162.7" class="st19" width="2.3" height="2.3"/>
			<rect x="96.9" y="160.4" class="st19" width="2.3" height="2.3"/>
			<rect x="96.9" y="158" class="st19" width="2.3" height="2.3"/>
			<rect x="96.9" y="155.7" class="st19" width="2.3" height="2.3"/>
			<rect x="96.9" y="153.3" class="st19" width="2.3" height="2.3"/>
			<rect x="96.9" y="151" class="st19" width="2.3" height="2.3"/>
			<rect x="96.9" y="148.6" class="st19" width="2.3" height="2.3"/>
			<rect x="99.3" y="167.4" class="st19" width="2.3" height="2.3"/>
			<rect x="99.3" y="165.1" class="st19" width="2.3" height="2.3"/>
			<rect x="99.3" y="162.7" class="st19" width="2.3" height="2.3"/>
			<rect x="99.3" y="160.4" class="st19" width="2.3" height="2.3"/>
			<rect x="99.3" y="158" class="st19" width="2.3" height="2.3"/>
			<rect x="99.3" y="155.7" class="st19" width="2.3" height="2.3"/>
			<rect x="99.3" y="153.3" class="st19" width="2.3" height="2.3"/>
			<rect x="99.3" y="151" class="st19" width="2.3" height="2.3"/>
			<rect x="99.3" y="148.6" class="st19" width="2.3" height="2.3"/>
			<rect x="101.6" y="167.4" class="st19" width="2.3" height="2.3"/>
			<rect x="101.6" y="165.1" class="st19" width="2.3" height="2.3"/>
			<rect x="101.6" y="162.7" class="st19" width="2.3" height="2.3"/>
			<rect x="101.6" y="160.4" class="st19" width="2.3" height="2.3"/>
			<rect x="101.6" y="158" class="st19" width="2.3" height="2.3"/>
			<rect x="101.6" y="155.7" class="st19" width="2.3" height="2.3"/>
			<rect x="101.6" y="153.3" class="st19" width="2.3" height="2.3"/>
			<rect x="101.6" y="151" class="st19" width="2.3" height="2.3"/>
			<rect x="101.6" y="148.6" class="st19" width="2.3" height="2.3"/>
			<rect x="104" y="167.4" class="st19" width="2.3" height="2.3"/>
			<rect x="104" y="165.1" class="st19" width="2.3" height="2.3"/>
			<rect x="104" y="162.7" class="st19" width="2.3" height="2.3"/>
			<rect x="104" y="160.4" class="st19" width="2.3" height="2.3"/>
			<rect x="104" y="158" class="st19" width="2.3" height="2.3"/>
			<rect x="104" y="155.7" class="st19" width="2.3" height="2.3"/>
			<rect x="104" y="153.3" class="st19" width="2.3" height="2.3"/>
			<rect x="104" y="151" class="st19" width="2.3" height="2.3"/>
			<rect x="104" y="148.6" class="st19" width="2.3" height="2.3"/>
			<rect x="106.3" y="167.4" class="st19" width="2.3" height="2.3"/>
			<rect x="106.3" y="165.1" class="st19" width="2.3" height="2.3"/>
			<rect x="106.3" y="162.7" class="st19" width="2.3" height="2.3"/>
			<rect x="106.3" y="160.4" class="st19" width="2.3" height="2.3"/>
			<rect x="106.3" y="158" class="st19" width="2.3" height="2.3"/>
			<rect x="106.3" y="155.7" class="st19" width="2.3" height="2.3"/>
			<rect x="106.3" y="153.3" class="st19" width="2.3" height="2.3"/>
			<rect x="106.3" y="151" class="st19" width="2.3" height="2.3"/>
			<rect x="106.3" y="148.6" class="st19" width="2.3" height="2.3"/>
			<rect x="108.6" y="167.4" class="st19" width="2.3" height="2.3"/>
			<rect x="108.6" y="165.1" class="st19" width="2.3" height="2.3"/>
			<rect x="108.6" y="162.7" class="st19" width="2.3" height="2.3"/>
			<rect x="108.6" y="160.4" class="st19" width="2.3" height="2.3"/>
			<rect x="108.6" y="158" class="st19" width="2.3" height="2.3"/>
			<rect x="108.6" y="155.7" class="st19" width="2.3" height="2.3"/>
			<rect x="108.6" y="153.3" class="st19" width="2.3" height="2.3"/>
			<rect x="108.6" y="151" class="st19" width="2.3" height="2.3"/>
			<rect x="108.6" y="148.6" class="st19" width="2.3" height="2.3"/>
			<rect x="111" y="167.4" class="st19" width="2.3" height="2.3"/>
			<rect x="111" y="165.1" class="st19" width="2.3" height="2.3"/>
			<rect x="111" y="162.7" class="st19" width="2.3" height="2.3"/>
			<rect x="111" y="160.4" class="st19" width="2.3" height="2.3"/>
			<rect x="111" y="158" class="st19" width="2.3" height="2.3"/>
			<rect x="111" y="155.7" class="st19" width="2.3" height="2.3"/>
			<rect x="111" y="153.3" class="st19" width="2.3" height="2.3"/>
			<rect x="111" y="151" class="st19" width="2.3" height="2.3"/>
			<rect x="111" y="148.6" class="st19" width="2.3" height="2.3"/>
			<rect x="113.3" y="167.4" class="st19" width="2.3" height="2.3"/>
			<rect x="113.3" y="165.1" class="st19" width="2.3" height="2.3"/>
			<rect x="113.3" y="162.7" class="st19" width="2.3" height="2.3"/>
			<rect x="113.3" y="160.4" class="st19" width="2.3" height="2.3"/>
			<rect x="113.3" y="158" class="st19" width="2.3" height="2.3"/>
			<rect x="113.3" y="155.7" class="st19" width="2.3" height="2.3"/>
			<rect x="113.3" y="153.3" class="st19" width="2.3" height="2.3"/>
			<rect x="113.3" y="151" class="st19" width="2.3" height="2.3"/>
			<rect x="113.3" y="148.6" class="st19" width="2.3" height="2.3"/>
			<rect x="115.7" y="167.4" class="st19" width="2.3" height="2.3"/>
			<rect x="115.7" y="165.1" class="st19" width="2.3" height="2.3"/>
			<rect x="115.7" y="162.7" class="st19" width="2.3" height="2.3"/>
			<rect x="115.7" y="160.4" class="st19" width="2.3" height="2.3"/>
			<rect x="115.7" y="158" class="st19" width="2.3" height="2.3"/>
			<rect x="115.7" y="155.7" class="st19" width="2.3" height="2.3"/>
			<rect x="115.7" y="153.3" class="st19" width="2.3" height="2.3"/>
			<rect x="115.7" y="151" class="st19" width="2.3" height="2.3"/>
			<rect x="115.7" y="148.6" class="st19" width="2.3" height="2.3"/>
			<rect x="118" y="167.4" class="st19" width="2.3" height="2.3"/>
			<rect x="118" y="165.1" class="st19" width="2.3" height="2.3"/>
			<rect x="118" y="162.7" class="st19" width="2.3" height="2.3"/>
			<rect x="118" y="160.4" class="st19" width="2.3" height="2.3"/>
			<rect x="118" y="158" class="st19" width="2.3" height="2.3"/>
			<rect x="118" y="155.7" class="st19" width="2.3" height="2.3"/>
			<rect x="118" y="153.3" class="st19" width="2.3" height="2.3"/>
			<rect x="118" y="151" class="st19" width="2.3" height="2.3"/>
			<rect x="118" y="148.6" class="st19" width="2.3" height="2.3"/>
			<rect x="120.4" y="167.4" class="st19" width="2.3" height="2.3"/>
			<rect x="120.4" y="165.1" class="st19" width="2.3" height="2.3"/>
			<rect x="120.4" y="162.7" class="st19" width="2.3" height="2.3"/>
			<rect x="120.4" y="160.4" class="st19" width="2.3" height="2.3"/>
			<rect x="120.4" y="158" class="st19" width="2.3" height="2.3"/>
			<rect x="120.4" y="155.7" class="st19" width="2.3" height="2.3"/>
			<rect x="120.4" y="153.3" class="st19" width="2.3" height="2.3"/>
			<rect x="120.4" y="151" class="st19" width="2.3" height="2.3"/>
			<rect x="120.4" y="148.6" class="st19" width="2.3" height="2.3"/>
			<rect x="122.7" y="167.4" class="st19" width="2.3" height="2.3"/>
			<rect x="122.7" y="165.1" class="st19" width="2.3" height="2.3"/>
			<rect x="122.7" y="162.7" class="st19" width="2.3" height="2.3"/>
			<rect x="122.7" y="160.4" class="st19" width="2.3" height="2.3"/>
			<rect x="122.7" y="158" class="st19" width="2.3" height="2.3"/>
			<rect x="122.7" y="155.7" class="st19" width="2.3" height="2.3"/>
			<rect x="122.7" y="153.3" class="st19" width="2.3" height="2.3"/>
			<rect x="122.7" y="151" class="st19" width="2.3" height="2.3"/>
			<rect x="122.7" y="148.6" class="st19" width="2.3" height="2.3"/>
			<rect x="125.1" y="167.4" class="st19" width="2.3" height="2.3"/>
			<rect x="125.1" y="165.1" class="st19" width="2.3" height="2.3"/>
			<rect x="125.1" y="162.7" class="st19" width="2.3" height="2.3"/>
			<rect x="125.1" y="160.4" class="st19" width="2.3" height="2.3"/>
			<rect x="125.1" y="158" class="st19" width="2.3" height="2.3"/>
			<rect x="125.1" y="155.7" class="st19" width="2.3" height="2.3"/>
			<rect x="125.1" y="153.3" class="st19" width="2.3" height="2.3"/>
			<rect x="125.1" y="151" class="st19" width="2.3" height="2.3"/>
			<rect x="125.1" y="148.6" class="st19" width="2.3" height="2.3"/>
			<rect x="127.4" y="167.4" class="st19" width="2.3" height="2.3"/>
			<rect x="127.4" y="165.1" class="st19" width="2.3" height="2.3"/>
			<rect x="127.4" y="162.7" class="st19" width="2.3" height="2.3"/>
			<rect x="127.4" y="160.4" class="st19" width="2.3" height="2.3"/>
			<rect x="127.4" y="158" class="st19" width="2.3" height="2.3"/>
			<rect x="127.4" y="155.7" class="st19" width="2.3" height="2.3"/>
			<rect x="127.4" y="153.3" class="st19" width="2.3" height="2.3"/>
			<rect x="127.4" y="151" class="st19" width="2.3" height="2.3"/>
			<rect x="127.4" y="148.6" class="st19" width="2.3" height="2.3"/>
			<rect x="129.8" y="167.4" class="st19" width="2.3" height="2.3"/>
			<rect x="129.8" y="165.1" class="st19" width="2.3" height="2.3"/>
			<rect x="129.8" y="162.7" class="st19" width="2.3" height="2.3"/>
			<rect x="129.8" y="160.4" class="st19" width="2.3" height="2.3"/>
			<rect x="129.8" y="158" class="st19" width="2.3" height="2.3"/>
			<rect x="129.8" y="155.7" class="st19" width="2.3" height="2.3"/>
			<rect x="129.8" y="153.3" class="st19" width="2.3" height="2.3"/>
			<rect x="129.8" y="151" class="st19" width="2.3" height="2.3"/>
			<rect x="129.8" y="148.6" class="st19" width="2.3" height="2.3"/>
			<rect x="132.1" y="167.4" class="st19" width="2.3" height="2.3"/>
			<rect x="132.1" y="165.1" class="st19" width="2.3" height="2.3"/>
			<rect x="132.1" y="162.7" class="st19" width="2.3" height="2.3"/>
			<rect x="132.1" y="160.4" class="st19" width="2.3" height="2.3"/>
			<rect x="132.1" y="158" class="st19" width="2.3" height="2.3"/>
			<rect x="132.1" y="155.7" class="st19" width="2.3" height="2.3"/>
			<rect x="132.1" y="153.3" class="st19" width="2.3" height="2.3"/>
			<rect x="132.1" y="151" class="st19" width="2.3" height="2.3"/>
			<rect x="132.1" y="148.6" class="st19" width="2.3" height="2.3"/>
			<rect x="134.4" y="167.4" class="st19" width="2.3" height="2.3"/>
			<rect x="134.4" y="165.1" class="st19" width="2.3" height="2.3"/>
			<rect x="134.4" y="162.7" class="st19" width="2.3" height="2.3"/>
			<rect x="134.4" y="160.4" class="st19" width="2.3" height="2.3"/>
			<rect x="134.4" y="158" class="st19" width="2.3" height="2.3"/>
			<rect x="134.4" y="155.7" class="st19" width="2.3" height="2.3"/>
			<rect x="134.4" y="153.3" class="st19" width="2.3" height="2.3"/>
			<rect x="134.4" y="151" class="st19" width="2.3" height="2.3"/>
			<rect x="134.4" y="148.6" class="st19" width="2.3" height="2.3"/>
			<rect x="136.8" y="167.4" class="st19" width="2.3" height="2.3"/>
			<rect x="136.8" y="165.1" class="st19" width="2.3" height="2.3"/>
			<rect x="136.8" y="162.7" class="st19" width="2.3" height="2.3"/>
			<rect x="136.8" y="160.4" class="st19" width="2.3" height="2.3"/>
			<rect x="136.8" y="158" class="st19" width="2.3" height="2.3"/>
			<rect x="136.8" y="155.7" class="st19" width="2.3" height="2.3"/>
			<rect x="136.8" y="153.3" class="st19" width="2.3" height="2.3"/>
			<rect x="136.8" y="151" class="st19" width="2.3" height="2.3"/>
			<rect x="136.8" y="148.6" class="st19" width="2.3" height="2.3"/>
			<rect x="139.1" y="167.4" class="st19" width="2.3" height="2.3"/>
			<rect x="139.1" y="165.1" class="st19" width="2.3" height="2.3"/>
			<rect x="139.1" y="162.7" class="st19" width="2.3" height="2.3"/>
			<rect x="139.1" y="160.4" class="st19" width="2.3" height="2.3"/>
			<rect x="139.1" y="158" class="st19" width="2.3" height="2.3"/>
			<rect x="139.1" y="155.7" class="st19" width="2.3" height="2.3"/>
			<rect x="139.1" y="153.3" class="st19" width="2.3" height="2.3"/>
			<rect x="139.1" y="151" class="st19" width="2.3" height="2.3"/>
			<rect x="139.1" y="148.6" class="st19" width="2.3" height="2.3"/>
			<rect x="141.5" y="167.4" class="st19" width="2.3" height="2.3"/>
			<rect x="141.5" y="165.1" class="st19" width="2.3" height="2.3"/>
			<rect x="141.5" y="162.7" class="st19" width="2.3" height="2.3"/>
			<rect x="141.5" y="160.4" class="st19" width="2.3" height="2.3"/>
			<rect x="141.5" y="158" class="st19" width="2.3" height="2.3"/>
			<rect x="141.5" y="155.7" class="st19" width="2.3" height="2.3"/>
			<rect x="141.5" y="153.3" class="st19" width="2.3" height="2.3"/>
			<rect x="141.5" y="151" class="st19" width="2.3" height="2.3"/>
			<rect x="141.5" y="148.6" class="st19" width="2.3" height="2.3"/>
			<rect x="143.8" y="167.4" class="st19" width="2.3" height="2.3"/>
			<rect x="143.8" y="165.1" class="st19" width="2.3" height="2.3"/>
			<rect x="143.8" y="162.7" class="st19" width="2.3" height="2.3"/>
			<rect x="143.8" y="160.4" class="st19" width="2.3" height="2.3"/>
			<rect x="143.8" y="158" class="st19" width="2.3" height="2.3"/>
			<rect x="143.8" y="155.7" class="st19" width="2.3" height="2.3"/>
			<rect x="143.8" y="153.3" class="st19" width="2.3" height="2.3"/>
			<rect x="143.8" y="151" class="st19" width="2.3" height="2.3"/>
			<rect x="143.8" y="148.6" class="st19" width="2.3" height="2.3"/>
			<rect x="146.2" y="167.4" class="st19" width="2.3" height="2.3"/>
			<rect x="146.2" y="165.1" class="st19" width="2.3" height="2.3"/>
			<rect x="146.2" y="162.7" class="st19" width="2.3" height="2.3"/>
			<rect x="146.2" y="160.4" class="st19" width="2.3" height="2.3"/>
			<rect x="146.2" y="158" class="st19" width="2.3" height="2.3"/>
			<rect x="146.2" y="155.7" class="st19" width="2.3" height="2.3"/>
			<rect x="146.2" y="153.3" class="st19" width="2.3" height="2.3"/>
			<rect x="146.2" y="151" class="st19" width="2.3" height="2.3"/>
			<rect x="146.2" y="148.6" class="st19" width="2.3" height="2.3"/>
		</g>
		<polygon class="st12" points="155.8,84 155.8,105 102.6,84 		"/>
		<polygon class="st12" points="133.9,207.3 63.9,207.3 63.9,188.6 		"/>
		<polygon class="st14" points="116.7,84 113.8,84 155.8,119.8 155.8,93.1 		"/>
		<polygon class="st14" points="63.9,204.8 155.8,192.9 155.8,207.3 63.9,207.3 		"/>
		<rect x="76.1" y="174" class="st13" width="3" height="1.5"/>
		<rect x="81.8" y="174" class="st13" width="7.9" height="1.5"/>
		<rect x="71.1" y="179.8" class="st13" width="5.1" height="1.5"/>
		<rect x="71.1" y="184.4" class="st13" width="3.5" height="1.5"/>
		<rect x="92.7" y="184.4" class="st13" width="3.5" height="1.5"/>
		<rect x="99.6" y="184.4" class="st13" width="6.7" height="1.5"/>
		<rect x="79.8" y="179.8" class="st13" width="8.7" height="1.5"/>
		<rect x="92.3" y="179.8" class="st13" width="2.2" height="1.5"/>
		<rect x="122.8" y="179.8" class="st13" width="2.2" height="1.5"/>
		<rect x="98.4" y="179.8" class="st13" width="11.9" height="1.5"/>
		<rect x="139.2" y="192.7" class="st13" width="9.3" height="1.5"/>
		<rect x="114.3" y="179.8" class="st13" width="4.9" height="1.5"/>
		<rect x="128.6" y="179.8" class="st13" width="7.9" height="1.5"/>
		<rect x="78.1" y="184.4" class="st13" width="11" height="1.5"/>
		<rect x="78.3" y="133.2" class="st13" width="14.7" height="3"/>
		<rect x="70.9" y="93.1" class="st13" width="14.7" height="3"/>
		<rect x="71.1" y="133.2" class="st13" width="3.5" height="3"/>
		<rect x="71.1" y="138.9" class="st13" width="10.1" height="1.5"/>
		<rect x="103.9" y="138.9" class="st13" width="7.1" height="1.5"/>
		<rect x="115.4" y="138.9" class="st13" width="2.7" height="1.5"/>
		<rect x="122.2" y="138.9" class="st13" width="14" height="1.5"/>
		<rect x="71.1" y="143.5" class="st13" width="3.5" height="1.5"/>
		<rect x="93.5" y="143.5" class="st13" width="3.5" height="1.5"/>
		<rect x="85" y="138.9" class="st13" width="3.5" height="1.5"/>
		<rect x="92.3" y="138.9" class="st13" width="7.3" height="1.5"/>
		<rect x="78.7" y="143.5" class="st13" width="11" height="1.5"/>
		<rect x="100.8" y="143.5" class="st13" width="6.7" height="1.5"/>
		<rect x="111.1" y="143.5" class="st13" width="3.7" height="1.5"/>
		<rect x="118.4" y="143.5" class="st13" width="9.1" height="1.5"/>
		<rect x="131.3" y="143.5" class="st13" width="17.1" height="1.5"/>
		<rect x="71.1" y="126.7" class="st8" width="5" height="2.6"/>
		<rect x="75.8" y="167.5" class="st8" width="2.3" height="2.2"/>
		<rect x="78.2" y="165.1" class="st20" width="2.3" height="4.6"/>
		<rect x="80.5" y="157.5" class="st11" width="2.3" height="12.3"/>
		<rect x="82.8" y="162.9" class="st21" width="2.3" height="6.9"/>
		<rect x="94.6" y="166.5" class="st8" width="2.3" height="3.2"/>
		<rect x="96.9" y="162.3" class="st20" width="2.3" height="7.4"/>
		<rect x="99.3" y="159.8" class="st11" width="2.3" height="9.9"/>
		<rect x="101.6" y="164.6" class="st21" width="2.3" height="5.1"/>
		<rect x="113.3" y="165.8" class="st8" width="2.3" height="4"/>
		<rect x="115.7" y="160.8" class="st20" width="2.3" height="8.9"/>
		<rect x="118" y="156" class="st11" width="2.3" height="13.8"/>
		<rect x="120.4" y="165.3" class="st21" width="2.3" height="4.5"/>
		<rect x="132.1" y="164.2" class="st22" width="2.3" height="5.6"/>
		<rect x="134.4" y="161.8" class="st20" width="2.3" height="8"/>
		<rect x="136.8" y="152.5" class="st11" width="2.3" height="17.3"/>
		<rect x="139.1" y="158.3" class="st21" width="2.3" height="11.5"/>
		<rect x="77.7" y="121.8" class="st8" width="5" height="7.6"/>
		<rect x="84.3" y="114.5" class="st11" width="5" height="14.8"/>
		<rect x="90.9" y="123.5" class="st8" width="5" height="5.8"/>
		<rect x="97.5" y="117.2" class="st11" width="5" height="12.1"/>
		<rect x="104" y="107.8" class="st11" width="5" height="21.6"/>
		<rect x="110.6" y="101.8" class="st11" width="5" height="27.6"/>
		<rect x="117.2" y="109.6" class="st11" width="5" height="19.7"/>
		<rect x="123.8" y="120.9" class="st22" width="5" height="8.4"/>
		<rect x="130.4" y="126.7" class="st22" width="5" height="2.6"/>
		<rect x="137" y="114.5" class="st11" width="5" height="14.8"/>
		<rect x="143.5" y="126.7" class="st22" width="5" height="2.6"/>
		<g>
			<rect x="71.1" y="169.5" class="st22" width="77.4" height="0.5"/>
		</g>
		<g>
			<rect x="71.1" y="129.1" class="st22" width="77.4" height="0.5"/>
		</g>
		<rect x="70.9" y="99.2" class="st13" width="2.7" height="1.5"/>
		<rect x="76.7" y="99.2" class="st13" width="7.1" height="1.5"/>
		<rect x="86.9" y="99.2" class="st13" width="4.6" height="1.5"/>
		<path class="st8" d="M73.5,174.4c0-0.6-0.5-1.2-1.2-1.2s-1.2,0.5-1.2,1.2s0.5,1.2,1.2,1.2S73.5,175,73.5,174.4z"/>
		<rect x="98.7" y="174" class="st13" width="6.4" height="1.5"/>
		<rect x="113.8" y="174" class="st13" width="13" height="1.5"/>
		<path class="st20" d="M96,174.4c0-0.6-0.5-1.2-1.2-1.2s-1.2,0.5-1.2,1.2s0.5,1.2,1.2,1.2S96,175,96,174.4z"/>
		<path class="st11" d="M111,174.4c0-0.6-0.5-1.2-1.2-1.2s-1.2,0.5-1.2,1.2s0.5,1.2,1.2,1.2S111,175,111,174.4z"/>
		<rect x="135.6" y="174" class="st13" width="1.8" height="1.5"/>
		<rect x="139.9" y="174" class="st13" width="8.1" height="1.5"/>
		<path class="st21" d="M132.8,174.4c0-0.6-0.5-1.2-1.2-1.2s-1.2,0.5-1.2,1.2s0.5,1.2,1.2,1.2S132.8,175,132.8,174.4z"/>
	</g>
	<g>
		<path class="st23" d="M340.4,48.2H191.2c-1.4,0-2.7-0.7-3.5-1.9L166.2,5.6c-1.8-2.8,0.2-6.4,3.5-6.4h192c3.3,0,5.3,3.7,3.5,6.4
			l-21.3,40.7C343.1,47.5,341.8,48.2,340.4,48.2z"/>
		<path class="st24" d="M338.5,43.4H192.9L175.6,5.6c-0.2-0.5,0.1-1,0.6-1h178.9c0.5,0,0.9,0.5,0.6,1L338.5,43.4z"/>
		<path class="st25" d="M225.1,4.6l37.5,38.8h75.9l17.3-38c0.2-0.4-0.1-0.9-0.6-0.9H225.1z"/>
		<path class="st12" d="M187.7,52.6v92.8c0,2.4,1.5,4.4,3.4,4.4h149.4c1.9,0,3.4-2,3.4-4.4V52.6c0-2.4-1.5-4.4-3.4-4.4H191.1
			C189.2,48.2,187.7,50.2,187.7,52.6z"/>
		<path class="st26" d="M197.4,113.7h137c1.3,0,2.4-1.1,2.4-2.4v-50c0-1.3-1.1-2.4-2.4-2.4h-137c-1.3,0-2.4,1.1-2.4,2.4v50
			C195,112.6,196.1,113.7,197.4,113.7z"/>
		<path class="st23" d="M324.4,48.2H207v4.6c0,0.3,0.2,0.5,0.5,0.5h116.4c0.3,0,0.5-0.2,0.5-0.5V48.2z"/>
		<g>
			<path class="st15" d="M199.4,65.4h6.7c0.4,0,0.8-0.3,0.8-0.8v-1.7c0-0.4-0.3-0.8-0.8-0.8h-6.7c-0.4,0-0.8,0.3-0.8,0.8v1.7
				C198.6,65,198.9,65.4,199.4,65.4z"/>
			<path class="st15" d="M209.2,65.4h6.7c0.4,0,0.8-0.3,0.8-0.8v-1.7c0-0.4-0.3-0.8-0.8-0.8h-6.7c-0.4,0-0.8,0.3-0.8,0.8v1.7
				C208.4,65,208.8,65.4,209.2,65.4z"/>
			<path class="st15" d="M219,65.4h6.7c0.4,0,0.8-0.3,0.8-0.8v-1.7c0-0.4-0.3-0.8-0.8-0.8H219c-0.4,0-0.8,0.3-0.8,0.8v1.7
				C218.2,65,218.6,65.4,219,65.4z"/>
			<path class="st15" d="M228.9,65.4h6.7c0.4,0,0.8-0.3,0.8-0.8v-1.7c0-0.4-0.3-0.8-0.8-0.8h-6.7c-0.4,0-0.8,0.3-0.8,0.8v1.7
				C228.1,65,228.4,65.4,228.9,65.4z"/>
			<path class="st15" d="M238.7,65.4h6.7c0.4,0,0.8-0.3,0.8-0.8v-1.7c0-0.4-0.3-0.8-0.8-0.8h-6.7c-0.4,0-0.8,0.3-0.8,0.8v1.7
				C237.9,65,238.3,65.4,238.7,65.4z"/>
			<path class="st15" d="M248.5,65.4h6.7c0.4,0,0.8-0.3,0.8-0.8v-1.7c0-0.4-0.3-0.8-0.8-0.8h-6.7c-0.4,0-0.8,0.3-0.8,0.8v1.7
				C247.7,65,248.1,65.4,248.5,65.4z"/>
			<path class="st15" d="M258.3,65.4h6.7c0.4,0,0.8-0.3,0.8-0.8v-1.7c0-0.4-0.3-0.8-0.8-0.8h-6.7c-0.4,0-0.8,0.3-0.8,0.8v1.7
				C257.6,65,257.9,65.4,258.3,65.4z"/>
			<path class="st15" d="M268.2,65.4h6.7c0.4,0,0.8-0.3,0.8-0.8v-1.7c0-0.4-0.3-0.8-0.8-0.8h-6.7c-0.4,0-0.8,0.3-0.8,0.8v1.7
				C267.4,65,267.7,65.4,268.2,65.4z"/>
			<path class="st15" d="M278,65.4h6.7c0.4,0,0.8-0.3,0.8-0.8v-1.7c0-0.4-0.3-0.8-0.8-0.8H278c-0.4,0-0.8,0.3-0.8,0.8v1.7
				C277.2,65,277.6,65.4,278,65.4z"/>
			<path class="st15" d="M287.8,65.4h6.7c0.4,0,0.8-0.3,0.8-0.8v-1.7c0-0.4-0.3-0.8-0.8-0.8h-6.7c-0.4,0-0.8,0.3-0.8,0.8v1.7
				C287,65,287.4,65.4,287.8,65.4z"/>
			<path class="st15" d="M297.6,65.4h6.7c0.4,0,0.8-0.3,0.8-0.8v-1.7c0-0.4-0.3-0.8-0.8-0.8h-6.7c-0.4,0-0.8,0.3-0.8,0.8v1.7
				C296.9,65,297.2,65.4,297.6,65.4z"/>
			<path class="st15" d="M307.5,65.4h6.7c0.4,0,0.8-0.3,0.8-0.8v-1.7c0-0.4-0.3-0.8-0.8-0.8h-6.7c-0.4,0-0.8,0.3-0.8,0.8v1.7
				C306.7,65,307,65.4,307.5,65.4z"/>
			<path class="st15" d="M317.3,65.4h6.7c0.4,0,0.8-0.3,0.8-0.8v-1.7c0-0.4-0.3-0.8-0.8-0.8h-6.7c-0.4,0-0.8,0.3-0.8,0.8v1.7
				C316.5,65,316.9,65.4,317.3,65.4z"/>
			<path class="st15" d="M333.8,62.1h-6.7c-0.4,0-0.8,0.3-0.8,0.8v1.7c0,0.4,0.3,0.8,0.8,0.8h6.7c0.4,0,0.8-0.3,0.8-0.8v-1.7
				C334.6,62.4,334.3,62.1,333.8,62.1z"/>
			<path class="st15" d="M199.8,74.6h5.2c0.6,0,1.2-0.5,1.2-1.2v-5.2c0-0.6-0.5-1.2-1.2-1.2h-5.2c-0.6,0-1.2,0.5-1.2,1.2v5.2
				C198.6,74.1,199.1,74.6,199.8,74.6z"/>
			<path class="st15" d="M208.4,74.6h5.2c0.6,0,1.2-0.5,1.2-1.2v-5.2c0-0.6-0.5-1.2-1.2-1.2h-5.2c-0.6,0-1.2,0.5-1.2,1.2v5.2
				C207.3,74.1,207.8,74.6,208.4,74.6z"/>
			<path class="st15" d="M216,68.2v5.2c0,0.6,0.5,1.2,1.2,1.2h5.2c0.6,0,1.2-0.5,1.2-1.2v-5.2c0-0.6-0.5-1.2-1.2-1.2h-5.2
				C216.5,67,216,67.5,216,68.2z"/>
			<path class="st15" d="M231.1,74.6c0.6,0,1.2-0.5,1.2-1.2v-5.2c0-0.6-0.5-1.2-1.2-1.2h-5.2c-0.6,0-1.2,0.5-1.2,1.2v5.2
				c0,0.6,0.5,1.2,1.2,1.2H231.1z"/>
			<path class="st15" d="M240.9,73.4v-5.2c0-0.6-0.5-1.2-1.2-1.2h-5.2c-0.6,0-1.2,0.5-1.2,1.2v5.2c0,0.6,0.5,1.2,1.2,1.2h5.2
				C240.4,74.6,240.9,74.1,240.9,73.4z"/>
			<path class="st15" d="M248.4,67h-5.2c-0.6,0-1.2,0.5-1.2,1.2v5.2c0,0.6,0.5,1.2,1.2,1.2h5.2c0.6,0,1.2-0.5,1.2-1.2v-5.2
				C249.6,67.5,249.1,67,248.4,67z"/>
			<path class="st15" d="M250.7,68.2v5.2c0,0.6,0.5,1.2,1.2,1.2h5.2c0.6,0,1.2-0.5,1.2-1.2v-5.2c0-0.6-0.5-1.2-1.2-1.2h-5.2
				C251.2,67,250.7,67.5,250.7,68.2z"/>
			<path class="st15" d="M260.5,67c-0.6,0-1.2,0.5-1.2,1.2v5.2c0,0.6,0.5,1.2,1.2,1.2h5.2c0.6,0,1.2-0.5,1.2-1.2v-5.2
				c0-0.6-0.5-1.2-1.2-1.2H260.5z"/>
			<path class="st15" d="M274.5,74.6c0.6,0,1.2-0.5,1.2-1.2v-5.2c0-0.6-0.5-1.2-1.2-1.2h-5.2c-0.6,0-1.2,0.5-1.2,1.2v5.2
				c0,0.6,0.5,1.2,1.2,1.2H274.5z"/>
			<path class="st15" d="M277.9,74.6h5.2c0.6,0,1.2-0.5,1.2-1.2v-5.2c0-0.6-0.5-1.2-1.2-1.2h-5.2c-0.6,0-1.2,0.5-1.2,1.2v5.2
				C276.7,74.1,277.3,74.6,277.9,74.6z"/>
			<path class="st15" d="M285.4,73.4c0,0.6,0.5,1.2,1.2,1.2h5.2c0.6,0,1.2-0.5,1.2-1.2v-5.2c0-0.6-0.5-1.2-1.2-1.2h-5.2
				c-0.6,0-1.2,0.5-1.2,1.2V73.4z"/>
			<path class="st15" d="M300.5,74.6c0.6,0,1.2-0.5,1.2-1.2v-5.2c0-0.6-0.5-1.2-1.2-1.2h-5.2c-0.6,0-1.2,0.5-1.2,1.2v5.2
				c0,0.6,0.5,1.2,1.2,1.2H300.5z"/>
			<path class="st15" d="M309.2,74.6c0.6,0,1.2-0.5,1.2-1.2v-5.2c0-0.6-0.5-1.2-1.2-1.2h-5.2c-0.6,0-1.2,0.5-1.2,1.2v5.2
				c0,0.6,0.5,1.2,1.2,1.2H309.2z"/>
			<path class="st15" d="M317.9,74.6c0.6,0,1.2-0.5,1.2-1.2v-5.2c0-0.6-0.5-1.2-1.2-1.2h-5.2c-0.6,0-1.2,0.5-1.2,1.2v5.2
				c0,0.6,0.5,1.2,1.2,1.2H317.9z"/>
			<path class="st15" d="M333.5,67h-12.1c-0.6,0-1.2,0.5-1.2,1.2v5.2c0,0.6,0.5,1.2,1.2,1.2h12.1c0.6,0,1.2-0.5,1.2-1.2v-5.2
				C334.6,67.5,334.1,67,333.5,67z"/>
			<path class="st15" d="M333.5,76.2h-5.2c-0.6,0-1.2,0.5-1.2,1.2v5.2c0,0.6,0.5,1.2,1.2,1.2h5.2c0.6,0,1.2-0.5,1.2-1.2v-5.2
				C334.6,76.8,334.1,76.2,333.5,76.2z"/>
			<path class="st15" d="M324.8,83.8c0.6,0,1.2-0.5,1.2-1.2v-5.2c0-0.6-0.5-1.2-1.2-1.2h-5.2c-0.6,0-1.2,0.5-1.2,1.2v5.2
				c0,0.6,0.5,1.2,1.2,1.2H324.8z"/>
			<path class="st15" d="M316.1,83.8c0.6,0,1.2-0.5,1.2-1.2v-5.2c0-0.6-0.5-1.2-1.2-1.2h-5.2c-0.6,0-1.2,0.5-1.2,1.2v5.2
				c0,0.6,0.5,1.2,1.2,1.2H316.1z"/>
			<path class="st15" d="M307.4,83.8c0.6,0,1.2-0.5,1.2-1.2v-5.2c0-0.6-0.5-1.2-1.2-1.2h-5.2c-0.6,0-1.2,0.5-1.2,1.2v5.2
				c0,0.6,0.5,1.2,1.2,1.2H307.4z"/>
			<path class="st15" d="M292.3,77.4v5.2c0,0.6,0.5,1.2,1.2,1.2h5.2c0.6,0,1.2-0.5,1.2-1.2v-5.2c0-0.6-0.5-1.2-1.2-1.2h-5.2
				C292.8,76.2,292.3,76.8,292.3,77.4z"/>
			<path class="st15" d="M290,83.8c0.6,0,1.2-0.5,1.2-1.2v-5.2c0-0.6-0.5-1.2-1.2-1.2h-5.2c-0.6,0-1.2,0.5-1.2,1.2v5.2
				c0,0.6,0.5,1.2,1.2,1.2H290z"/>
			<path class="st15" d="M274.9,77.4v5.2c0,0.6,0.5,1.2,1.2,1.2h5.2c0.6,0,1.2-0.5,1.2-1.2v-5.2c0-0.6-0.5-1.2-1.2-1.2h-5.2
				C275.5,76.2,274.9,76.8,274.9,77.4z"/>
			<path class="st15" d="M266.3,77.4v5.2c0,0.6,0.5,1.2,1.2,1.2h5.2c0.6,0,1.2-0.5,1.2-1.2v-5.2c0-0.6-0.5-1.2-1.2-1.2h-5.2
				C266.8,76.2,266.3,76.8,266.3,77.4z"/>
			<path class="st15" d="M264,83.8c0.6,0,1.2-0.5,1.2-1.2v-5.2c0-0.6-0.5-1.2-1.2-1.2h-5.2c-0.6,0-1.2,0.5-1.2,1.2v5.2
				c0,0.6,0.5,1.2,1.2,1.2H264z"/>
			<path class="st15" d="M248.9,77.4v5.2c0,0.6,0.5,1.2,1.2,1.2h5.2c0.6,0,1.2-0.5,1.2-1.2v-5.2c0-0.6-0.5-1.2-1.2-1.2h-5.2
				C249.4,76.2,248.9,76.8,248.9,77.4z"/>
			<path class="st15" d="M241.4,83.8h5.2c0.6,0,1.2-0.5,1.2-1.2v-5.2c0-0.6-0.5-1.2-1.2-1.2h-5.2c-0.6,0-1.2,0.5-1.2,1.2v5.2
				C240.2,83.3,240.7,83.8,241.4,83.8z"/>
			<path class="st15" d="M238,83.8c0.6,0,1.2-0.5,1.2-1.2v-5.2c0-0.6-0.5-1.2-1.2-1.2h-5.2c-0.6,0-1.2,0.5-1.2,1.2v5.2
				c0,0.6,0.5,1.2,1.2,1.2H238z"/>
			<path class="st15" d="M222.9,77.4v5.2c0,0.6,0.5,1.2,1.2,1.2h5.2c0.6,0,1.2-0.5,1.2-1.2v-5.2c0-0.6-0.5-1.2-1.2-1.2H224
				C223.4,76.2,222.9,76.8,222.9,77.4z"/>
			<path class="st15" d="M215.3,76.2c-0.6,0-1.2,0.5-1.2,1.2v5.2c0,0.6,0.5,1.2,1.2,1.2h5.2c0.6,0,1.2-0.5,1.2-1.2v-5.2
				c0-0.6-0.5-1.2-1.2-1.2H215.3z"/>
			<path class="st15" d="M199.8,83.8h12.1c0.6,0,1.2-0.5,1.2-1.2v-5.2c0-0.6-0.5-1.2-1.2-1.2h-12.1c-0.6,0-1.2,0.5-1.2,1.2v5.2
				C198.6,83.3,199.1,83.8,199.8,83.8z"/>
			<path class="st15" d="M224,86.7c0-0.6-0.5-1.2-1.2-1.2h-5.2c-0.6,0-1.2,0.5-1.2,1.2v5.2c0,0.6,0.5,1.2,1.2,1.2h5.2
				c0.6,0,1.2-0.5,1.2-1.2V86.7z"/>
			<path class="st15" d="M226.2,93.1h5.2c0.6,0,1.2-0.5,1.2-1.2v-5.2c0-0.6-0.5-1.2-1.2-1.2h-5.2c-0.6,0-1.2,0.5-1.2,1.2v5.2
				C225.1,92.6,225.6,93.1,226.2,93.1z"/>
			<path class="st15" d="M241.3,86.7c0-0.6-0.5-1.2-1.2-1.2h-5.2c-0.6,0-1.2,0.5-1.2,1.2v5.2c0,0.6,0.5,1.2,1.2,1.2h5.2
				c0.6,0,1.2-0.5,1.2-1.2V86.7z"/>
			<path class="st15" d="M250,91.9v-5.2c0-0.6-0.5-1.2-1.2-1.2h-5.2c-0.6,0-1.2,0.5-1.2,1.2v5.2c0,0.6,0.5,1.2,1.2,1.2h5.2
				C249.5,93.1,250,92.6,250,91.9z"/>
			<path class="st15" d="M258.7,91.9v-5.2c0-0.6-0.5-1.2-1.2-1.2h-5.2c-0.6,0-1.2,0.5-1.2,1.2v5.2c0,0.6,0.5,1.2,1.2,1.2h5.2
				C258.2,93.1,258.7,92.6,258.7,91.9z"/>
			<path class="st15" d="M267.4,91.9v-5.2c0-0.6-0.5-1.2-1.2-1.2H261c-0.6,0-1.2,0.5-1.2,1.2v5.2c0,0.6,0.5,1.2,1.2,1.2h5.2
				C266.8,93.1,267.4,92.6,267.4,91.9z"/>
			<path class="st15" d="M276.1,91.9v-5.2c0-0.6-0.5-1.2-1.2-1.2h-5.2c-0.6,0-1.2,0.5-1.2,1.2v5.2c0,0.6,0.5,1.2,1.2,1.2h5.2
				C275.5,93.1,276.1,92.6,276.1,91.9z"/>
			<path class="st15" d="M284.7,91.9v-5.2c0-0.6-0.5-1.2-1.2-1.2h-5.2c-0.6,0-1.2,0.5-1.2,1.2v5.2c0,0.6,0.5,1.2,1.2,1.2h5.2
				C284.2,93.1,284.7,92.6,284.7,91.9z"/>
			<path class="st15" d="M293.4,91.9v-5.2c0-0.6-0.5-1.2-1.2-1.2H287c-0.6,0-1.2,0.5-1.2,1.2v5.2c0,0.6,0.5,1.2,1.2,1.2h5.2
				C292.9,93.1,293.4,92.6,293.4,91.9z"/>
			<path class="st15" d="M302.1,91.9v-5.2c0-0.6-0.5-1.2-1.2-1.2h-5.2c-0.6,0-1.2,0.5-1.2,1.2v5.2c0,0.6,0.5,1.2,1.2,1.2h5.2
				C301.6,93.1,302.1,92.6,302.1,91.9z"/>
			<path class="st15" d="M304.4,93.1h5.2c0.6,0,1.2-0.5,1.2-1.2v-5.2c0-0.6-0.5-1.2-1.2-1.2h-5.2c-0.6,0-1.2,0.5-1.2,1.2v5.2
				C303.2,92.6,303.7,93.1,304.4,93.1z"/>
			<path class="st15" d="M313,93.1h5.2c0.6,0,1.2-0.5,1.2-1.2v-5.2c0-0.6-0.5-1.2-1.2-1.2H313c-0.6,0-1.2,0.5-1.2,1.2v5.2
				C311.9,92.6,312.4,93.1,313,93.1z"/>
			<path class="st15" d="M333.5,85.5h-12.1c-0.6,0-1.2,0.5-1.2,1.2v5.2c0,0.6,0.5,1.2,1.2,1.2h12.1c0.6,0,1.2-0.5,1.2-1.2v-5.2
				C334.6,86,334.1,85.5,333.5,85.5z"/>
			<path class="st15" d="M199.8,93.1h14.3c0.6,0,1.2-0.5,1.2-1.2v-5.2c0-0.6-0.5-1.2-1.2-1.2h-14.3c-0.6,0-1.2,0.5-1.2,1.2v5.2
				C198.6,92.6,199.1,93.1,199.8,93.1z"/>
			<path class="st15" d="M230.2,102.3c0.6,0,1.2-0.5,1.2-1.2v-5.2c0-0.6-0.5-1.2-1.2-1.2h-5.2c-0.6,0-1.2,0.5-1.2,1.2v5.2
				c0,0.6,0.5,1.2,1.2,1.2H230.2z"/>
			<path class="st15" d="M205,104h-5.2c-0.6,0-1.2,0.5-1.2,1.2v5.2c0,0.6,0.5,1.2,1.2,1.2h5.2c0.6,0,1.2-0.5,1.2-1.2v-5.2
				C206.2,104.5,205.7,104,205,104z"/>
			<path class="st15" d="M213.7,104h-5.2c-0.6,0-1.2,0.5-1.2,1.2v5.2c0,0.6,0.5,1.2,1.2,1.2h5.2c0.6,0,1.2-0.5,1.2-1.2v-5.2
				C214.9,104.5,214.3,104,213.7,104z"/>
			<path class="st15" d="M222.4,104h-5.2c-0.6,0-1.2,0.5-1.2,1.2v5.2c0,0.6,0.5,1.2,1.2,1.2h5.2c0.6,0,1.2-0.5,1.2-1.2v-5.2
				C223.5,104.5,223,104,222.4,104z"/>
			<path class="st15" d="M290.9,104h-48.7c-0.6,0-1.2,0.5-1.2,1.2v5.2c0,0.6,0.5,1.2,1.2,1.2h48.7c0.6,0,1.2-0.5,1.2-1.2v-5.2
				C292.1,104.5,291.6,104,290.9,104z"/>
			<path class="st15" d="M238.8,94.7h-5.2c-0.6,0-1.2,0.5-1.2,1.2v5.2c0,0.6,0.5,1.2,1.2,1.2h5.2c0.6,0,1.2-0.5,1.2-1.2v-5.2
				C240,95.3,239.5,94.7,238.8,94.7z"/>
			<path class="st15" d="M241.1,101.1c0,0.6,0.5,1.2,1.2,1.2h5.2c0.6,0,1.2-0.5,1.2-1.2v-5.2c0-0.6-0.5-1.2-1.2-1.2h-5.2
				c-0.6,0-1.2,0.5-1.2,1.2V101.1z"/>
			<path class="st15" d="M251,102.3h5.2c0.6,0,1.2-0.5,1.2-1.2v-5.2c0-0.6-0.5-1.2-1.2-1.2H251c-0.6,0-1.2,0.5-1.2,1.2v5.2
				C249.8,101.8,250.3,102.3,251,102.3z"/>
			<path class="st15" d="M259.6,102.3h5.2c0.6,0,1.2-0.5,1.2-1.2v-5.2c0-0.6-0.5-1.2-1.2-1.2h-5.2c-0.6,0-1.2,0.5-1.2,1.2v5.2
				C258.5,101.8,259,102.3,259.6,102.3z"/>
			<path class="st15" d="M268.3,102.3h5.2c0.6,0,1.2-0.5,1.2-1.2v-5.2c0-0.6-0.5-1.2-1.2-1.2h-5.2c-0.6,0-1.2,0.5-1.2,1.2v5.2
				C267.2,101.8,267.7,102.3,268.3,102.3z"/>
			<path class="st15" d="M277,102.3h5.2c0.6,0,1.2-0.5,1.2-1.2v-5.2c0-0.6-0.5-1.2-1.2-1.2H277c-0.6,0-1.2,0.5-1.2,1.2v5.2
				C275.8,101.8,276.4,102.3,277,102.3z"/>
			<path class="st15" d="M290.9,94.7h-5.2c-0.6,0-1.2,0.5-1.2,1.2v5.2c0,0.6,0.5,1.2,1.2,1.2h5.2c0.6,0,1.2-0.5,1.2-1.2v-5.2
				C292.1,95.3,291.6,94.7,290.9,94.7z"/>
			<path class="st15" d="M293.2,101.1c0,0.6,0.5,1.2,1.2,1.2h5.2c0.6,0,1.2-0.5,1.2-1.2v-5.2c0-0.6-0.5-1.2-1.2-1.2h-5.2
				c-0.6,0-1.2,0.5-1.2,1.2V101.1z"/>
			<path class="st15" d="M309.5,95.9c0-0.6-0.5-1.2-1.2-1.2h-5.2c-0.6,0-1.2,0.5-1.2,1.2v5.2c0,0.6,0.5,1.2,1.2,1.2h5.2
				c0.6,0,1.2-0.5,1.2-1.2V95.9z"/>
			<path class="st15" d="M333.5,94.7h-21.7c-0.6,0-1.2,0.5-1.2,1.2v5.2c0,0.6,0.5,1.2,1.2,1.2h21.7c0.6,0,1.2-0.5,1.2-1.2v-5.2
				C334.6,95.3,334.1,94.7,333.5,94.7z"/>
			<path class="st15" d="M199.8,102.3h21.7c0.6,0,1.2-0.5,1.2-1.2v-5.2c0-0.6-0.5-1.2-1.2-1.2h-21.7c-0.6,0-1.2,0.5-1.2,1.2v5.2
				C198.6,101.8,199.1,102.3,199.8,102.3z"/>
			<path class="st15" d="M315.9,107.8h-5.2c-0.6,0-1.2,0.5-1.2,1.2v1.4c0,0.6,0.5,1.2,1.2,1.2h5.2c0.6,0,1.2-0.5,1.2-1.2v-1.4
				C317.1,108.3,316.5,107.8,315.9,107.8z"/>
			<path class="st15" d="M333.3,107.8H328c-0.6,0-1.2,0.5-1.2,1.2v1.4c0,0.6,0.5,1.2,1.2,1.2h5.2c0.6,0,1.2-0.5,1.2-1.2v-1.4
				C334.4,108.3,333.9,107.8,333.3,107.8z"/>
			<path class="st15" d="M307.2,104h-13c-0.6,0-1.2,0.5-1.2,1.2v5.2c0,0.6,0.5,1.2,1.2,1.2h13c0.6,0,1.2-0.5,1.2-1.2v-5.2
				C308.4,104.5,307.9,104,307.2,104z"/>
			<path class="st15" d="M238.8,104h-13c-0.6,0-1.2,0.5-1.2,1.2v5.2c0,0.6,0.5,1.2,1.2,1.2h13c0.6,0,1.2-0.5,1.2-1.2v-5.2
				C240,104.5,239.5,104,238.8,104z"/>
			<path class="st15" d="M325.4,108.3h-7c-0.2,0-0.3,0.1-0.3,0.3v1.8c0,0.6,0.5,1.2,1.2,1.2h5.2c0.6,0,1.2-0.5,1.2-1.2v-1.8
				C325.7,108.5,325.6,108.3,325.4,108.3z"/>
			<path class="st15" d="M324.6,104h-5.2c-0.6,0-1.2,0.5-1.2,1.2v1.8c0,0.2,0.1,0.3,0.3,0.3h7c0.2,0,0.3-0.1,0.3-0.3v-1.8
				C325.7,104.5,325.2,104,324.6,104z"/>
		</g>
		<path class="st27" d="M205.4,64.7h-6.7c-0.4,0-0.8-0.3-0.8-0.8v-1.7c0-0.4,0.3-0.8,0.8-0.8h6.7c0.4,0,0.8,0.3,0.8,0.8v1.7
			C206.2,64.4,205.9,64.7,205.4,64.7z M216,63.9v-1.7c0-0.4-0.3-0.8-0.8-0.8h-6.7c-0.4,0-0.8,0.3-0.8,0.8v1.7c0,0.4,0.3,0.8,0.8,0.8
			h6.7C215.7,64.7,216,64.4,216,63.9z M225.9,63.9v-1.7c0-0.4-0.3-0.8-0.8-0.8h-6.7c-0.4,0-0.8,0.3-0.8,0.8v1.7
			c0,0.4,0.3,0.8,0.8,0.8h6.7C225.5,64.7,225.9,64.4,225.9,63.9z M235.7,63.9v-1.7c0-0.4-0.3-0.8-0.8-0.8h-6.7
			c-0.4,0-0.8,0.3-0.8,0.8v1.7c0,0.4,0.3,0.8,0.8,0.8h6.7C235.3,64.7,235.7,64.4,235.7,63.9z M245.5,63.9v-1.7
			c0-0.4-0.3-0.8-0.8-0.8H238c-0.4,0-0.8,0.3-0.8,0.8v1.7c0,0.4,0.3,0.8,0.8,0.8h6.7C245.2,64.7,245.5,64.4,245.5,63.9z M255.3,63.9
			v-1.7c0-0.4-0.3-0.8-0.8-0.8h-6.7c-0.4,0-0.8,0.3-0.8,0.8v1.7c0,0.4,0.3,0.8,0.8,0.8h6.7C255,64.7,255.3,64.4,255.3,63.9z
			 M265.2,63.9v-1.7c0-0.4-0.3-0.8-0.8-0.8h-6.7c-0.4,0-0.8,0.3-0.8,0.8v1.7c0,0.4,0.3,0.8,0.8,0.8h6.7
			C264.8,64.7,265.2,64.4,265.2,63.9z M275,63.9v-1.7c0-0.4-0.3-0.8-0.8-0.8h-6.7c-0.4,0-0.8,0.3-0.8,0.8v1.7c0,0.4,0.3,0.8,0.8,0.8
			h6.7C274.6,64.7,275,64.4,275,63.9z M284.8,63.9v-1.7c0-0.4-0.3-0.8-0.8-0.8h-6.7c-0.4,0-0.8,0.3-0.8,0.8v1.7
			c0,0.4,0.3,0.8,0.8,0.8h6.7C284.5,64.7,284.8,64.4,284.8,63.9z M294.7,63.9v-1.7c0-0.4-0.3-0.8-0.8-0.8h-6.7
			c-0.4,0-0.8,0.3-0.8,0.8v1.7c0,0.4,0.3,0.8,0.8,0.8h6.7C294.3,64.7,294.7,64.4,294.7,63.9z M304.5,63.9v-1.7
			c0-0.4-0.3-0.8-0.8-0.8H297c-0.4,0-0.8,0.3-0.8,0.8v1.7c0,0.4,0.3,0.8,0.8,0.8h6.7C304.1,64.7,304.5,64.4,304.5,63.9z M314.3,63.9
			v-1.7c0-0.4-0.3-0.8-0.8-0.8h-6.7c-0.4,0-0.8,0.3-0.8,0.8v1.7c0,0.4,0.3,0.8,0.8,0.8h6.7C314,64.7,314.3,64.4,314.3,63.9z
			 M324.1,63.9v-1.7c0-0.4-0.3-0.8-0.8-0.8h-6.7c-0.4,0-0.8,0.3-0.8,0.8v1.7c0,0.4,0.3,0.8,0.8,0.8h6.7
			C323.8,64.7,324.1,64.4,324.1,63.9z M334,63.9v-1.7c0-0.4-0.3-0.8-0.8-0.8h-6.7c-0.4,0-0.8,0.3-0.8,0.8v1.7c0,0.4,0.3,0.8,0.8,0.8
			h6.7C333.6,64.7,334,64.4,334,63.9z M205.5,72.8v-5.2c0-0.6-0.5-1.2-1.2-1.2h-5.2c-0.6,0-1.2,0.5-1.2,1.2v5.2
			c0,0.6,0.5,1.2,1.2,1.2h5.2C205,74,205.5,73.4,205.5,72.8z M214.2,72.8v-5.2c0-0.6-0.5-1.2-1.2-1.2h-5.2c-0.6,0-1.2,0.5-1.2,1.2
			v5.2c0,0.6,0.5,1.2,1.2,1.2h5.2C213.7,74,214.2,73.4,214.2,72.8z M222.9,72.8v-5.2c0-0.6-0.5-1.2-1.2-1.2h-5.2
			c-0.6,0-1.2,0.5-1.2,1.2v5.2c0,0.6,0.5,1.2,1.2,1.2h5.2C222.4,74,222.9,73.4,222.9,72.8z M231.6,72.8v-5.2c0-0.6-0.5-1.2-1.2-1.2
			h-5.2c-0.6,0-1.2,0.5-1.2,1.2v5.2c0,0.6,0.5,1.2,1.2,1.2h5.2C231,74,231.6,73.4,231.6,72.8z M240.2,72.8v-5.2
			c0-0.6-0.5-1.2-1.2-1.2h-5.2c-0.6,0-1.2,0.5-1.2,1.2v5.2c0,0.6,0.5,1.2,1.2,1.2h5.2C239.7,74,240.2,73.4,240.2,72.8z M248.9,72.8
			v-5.2c0-0.6-0.5-1.2-1.2-1.2h-5.2c-0.6,0-1.2,0.5-1.2,1.2v5.2c0,0.6,0.5,1.2,1.2,1.2h5.2C248.4,74,248.9,73.4,248.9,72.8z
			 M257.6,72.8v-5.2c0-0.6-0.5-1.2-1.2-1.2h-5.2c-0.6,0-1.2,0.5-1.2,1.2v5.2c0,0.6,0.5,1.2,1.2,1.2h5.2
			C257.1,74,257.6,73.4,257.6,72.8z M266.3,72.8v-5.2c0-0.6-0.5-1.2-1.2-1.2h-5.2c-0.6,0-1.2,0.5-1.2,1.2v5.2c0,0.6,0.5,1.2,1.2,1.2
			h5.2C265.8,74,266.3,73.4,266.3,72.8z M275,72.8v-5.2c0-0.6-0.5-1.2-1.2-1.2h-5.2c-0.6,0-1.2,0.5-1.2,1.2v5.2
			c0,0.6,0.5,1.2,1.2,1.2h5.2C274.4,74,275,73.4,275,72.8z M283.7,72.8v-5.2c0-0.6-0.5-1.2-1.2-1.2h-5.2c-0.6,0-1.2,0.5-1.2,1.2v5.2
			c0,0.6,0.5,1.2,1.2,1.2h5.2C283.1,74,283.7,73.4,283.7,72.8z M292.3,72.8v-5.2c0-0.6-0.5-1.2-1.2-1.2h-5.2c-0.6,0-1.2,0.5-1.2,1.2
			v5.2c0,0.6,0.5,1.2,1.2,1.2h5.2C291.8,74,292.3,73.4,292.3,72.8z M301,72.8v-5.2c0-0.6-0.5-1.2-1.2-1.2h-5.2
			c-0.6,0-1.2,0.5-1.2,1.2v5.2c0,0.6,0.5,1.2,1.2,1.2h5.2C300.5,74,301,73.4,301,72.8z M309.7,72.8v-5.2c0-0.6-0.5-1.2-1.2-1.2h-5.2
			c-0.6,0-1.2,0.5-1.2,1.2v5.2c0,0.6,0.5,1.2,1.2,1.2h5.2C309.2,74,309.7,73.4,309.7,72.8z M318.4,72.8v-5.2c0-0.6-0.5-1.2-1.2-1.2
			H312c-0.6,0-1.2,0.5-1.2,1.2v5.2c0,0.6,0.5,1.2,1.2,1.2h5.2C317.9,74,318.4,73.4,318.4,72.8z M334,72.8v-5.2
			c0-0.6-0.5-1.2-1.2-1.2h-12.1c-0.6,0-1.2,0.5-1.2,1.2v5.2c0,0.6,0.5,1.2,1.2,1.2h12.1C333.4,74,334,73.4,334,72.8z M327.5,83.2
			h5.2c0.6,0,1.2-0.5,1.2-1.2v-5.2c0-0.6-0.5-1.2-1.2-1.2h-5.2c-0.6,0-1.2,0.5-1.2,1.2V82C326.4,82.7,326.9,83.2,327.5,83.2z
			 M318.9,83.2h5.2c0.6,0,1.2-0.5,1.2-1.2v-5.2c0-0.6-0.5-1.2-1.2-1.2h-5.2c-0.6,0-1.2,0.5-1.2,1.2V82
			C317.7,82.7,318.2,83.2,318.9,83.2z M310.2,83.2h5.2c0.6,0,1.2-0.5,1.2-1.2v-5.2c0-0.6-0.5-1.2-1.2-1.2h-5.2
			c-0.6,0-1.2,0.5-1.2,1.2V82C309,82.7,309.5,83.2,310.2,83.2z M301.5,83.2h5.2c0.6,0,1.2-0.5,1.2-1.2v-5.2c0-0.6-0.5-1.2-1.2-1.2
			h-5.2c-0.6,0-1.2,0.5-1.2,1.2V82C300.3,82.7,300.9,83.2,301.5,83.2z M292.8,83.2h5.2c0.6,0,1.2-0.5,1.2-1.2v-5.2
			c0-0.6-0.5-1.2-1.2-1.2h-5.2c-0.6,0-1.2,0.5-1.2,1.2V82C291.6,82.7,292.2,83.2,292.8,83.2z M284.1,83.2h5.2c0.6,0,1.2-0.5,1.2-1.2
			v-5.2c0-0.6-0.5-1.2-1.2-1.2h-5.2c-0.6,0-1.2,0.5-1.2,1.2V82C283,82.7,283.5,83.2,284.1,83.2z M275.5,83.2h5.2
			c0.6,0,1.2-0.5,1.2-1.2v-5.2c0-0.6-0.5-1.2-1.2-1.2h-5.2c-0.6,0-1.2,0.5-1.2,1.2V82C274.3,82.7,274.8,83.2,275.5,83.2z
			 M266.8,83.2h5.2c0.6,0,1.2-0.5,1.2-1.2v-5.2c0-0.6-0.5-1.2-1.2-1.2h-5.2c-0.6,0-1.2,0.5-1.2,1.2V82
			C265.6,82.7,266.1,83.2,266.8,83.2z M258.1,83.2h5.2c0.6,0,1.2-0.5,1.2-1.2v-5.2c0-0.6-0.5-1.2-1.2-1.2h-5.2
			c-0.6,0-1.2,0.5-1.2,1.2V82C256.9,82.7,257.4,83.2,258.1,83.2z M249.4,83.2h5.2c0.6,0,1.2-0.5,1.2-1.2v-5.2c0-0.6-0.5-1.2-1.2-1.2
			h-5.2c-0.6,0-1.2,0.5-1.2,1.2V82C248.2,82.7,248.8,83.2,249.4,83.2z M240.7,83.2h5.2c0.6,0,1.2-0.5,1.2-1.2v-5.2
			c0-0.6-0.5-1.2-1.2-1.2h-5.2c-0.6,0-1.2,0.5-1.2,1.2V82C239.6,82.7,240.1,83.2,240.7,83.2z M232,83.2h5.2c0.6,0,1.2-0.5,1.2-1.2
			v-5.2c0-0.6-0.5-1.2-1.2-1.2H232c-0.6,0-1.2,0.5-1.2,1.2V82C230.9,82.7,231.4,83.2,232,83.2z M223.4,83.2h5.2
			c0.6,0,1.2-0.5,1.2-1.2v-5.2c0-0.6-0.5-1.2-1.2-1.2h-5.2c-0.6,0-1.2,0.5-1.2,1.2V82C222.2,82.7,222.7,83.2,223.4,83.2z
			 M214.7,83.2h5.2c0.6,0,1.2-0.5,1.2-1.2v-5.2c0-0.6-0.5-1.2-1.2-1.2h-5.2c-0.6,0-1.2,0.5-1.2,1.2V82
			C213.5,82.7,214,83.2,214.7,83.2z M199.1,83.2h12.1c0.6,0,1.2-0.5,1.2-1.2v-5.2c0-0.6-0.5-1.2-1.2-1.2h-12.1
			c-0.6,0-1.2,0.5-1.2,1.2V82C197.9,82.7,198.5,83.2,199.1,83.2z M223.3,91.3V86c0-0.6-0.5-1.2-1.2-1.2h-5.2c-0.6,0-1.2,0.5-1.2,1.2
			v5.2c0,0.6,0.5,1.2,1.2,1.2h5.2C222.8,92.4,223.3,91.9,223.3,91.3z M232,91.3V86c0-0.6-0.5-1.2-1.2-1.2h-5.2
			c-0.6,0-1.2,0.5-1.2,1.2v5.2c0,0.6,0.5,1.2,1.2,1.2h5.2C231.4,92.4,232,91.9,232,91.3z M240.7,91.3V86c0-0.6-0.5-1.2-1.2-1.2h-5.2
			c-0.6,0-1.2,0.5-1.2,1.2v5.2c0,0.6,0.5,1.2,1.2,1.2h5.2C240.1,92.4,240.7,91.9,240.7,91.3z M249.3,91.3V86c0-0.6-0.5-1.2-1.2-1.2
			h-5.2c-0.6,0-1.2,0.5-1.2,1.2v5.2c0,0.6,0.5,1.2,1.2,1.2h5.2C248.8,92.4,249.3,91.9,249.3,91.3z M258,91.3V86
			c0-0.6-0.5-1.2-1.2-1.2h-5.2c-0.6,0-1.2,0.5-1.2,1.2v5.2c0,0.6,0.5,1.2,1.2,1.2h5.2C257.5,92.4,258,91.9,258,91.3z M266.7,91.3V86
			c0-0.6-0.5-1.2-1.2-1.2h-5.2c-0.6,0-1.2,0.5-1.2,1.2v5.2c0,0.6,0.5,1.2,1.2,1.2h5.2C266.2,92.4,266.7,91.9,266.7,91.3z
			 M275.4,91.3V86c0-0.6-0.5-1.2-1.2-1.2H269c-0.6,0-1.2,0.5-1.2,1.2v5.2c0,0.6,0.5,1.2,1.2,1.2h5.2
			C274.9,92.4,275.4,91.9,275.4,91.3z M284.1,91.3V86c0-0.6-0.5-1.2-1.2-1.2h-5.2c-0.6,0-1.2,0.5-1.2,1.2v5.2c0,0.6,0.5,1.2,1.2,1.2
			h5.2C283.5,92.4,284.1,91.9,284.1,91.3z M292.7,91.3V86c0-0.6-0.5-1.2-1.2-1.2h-5.2c-0.6,0-1.2,0.5-1.2,1.2v5.2
			c0,0.6,0.5,1.2,1.2,1.2h5.2C292.2,92.4,292.7,91.9,292.7,91.3z M301.4,91.3V86c0-0.6-0.5-1.2-1.2-1.2H295c-0.6,0-1.2,0.5-1.2,1.2
			v5.2c0,0.6,0.5,1.2,1.2,1.2h5.2C300.9,92.4,301.4,91.9,301.4,91.3z M310.1,91.3V86c0-0.6-0.5-1.2-1.2-1.2h-5.2
			c-0.6,0-1.2,0.5-1.2,1.2v5.2c0,0.6,0.5,1.2,1.2,1.2h5.2C309.6,92.4,310.1,91.9,310.1,91.3z M318.8,91.3V86c0-0.6-0.5-1.2-1.2-1.2
			h-5.2c-0.6,0-1.2,0.5-1.2,1.2v5.2c0,0.6,0.5,1.2,1.2,1.2h5.2C318.3,92.4,318.8,91.9,318.8,91.3z M334,91.3V86
			c0-0.6-0.5-1.2-1.2-1.2h-12.1c-0.6,0-1.2,0.5-1.2,1.2v5.2c0,0.6,0.5,1.2,1.2,1.2h12.1C333.4,92.4,334,91.9,334,91.3z M214.6,91.3
			V86c0-0.6-0.5-1.2-1.2-1.2h-14.3c-0.6,0-1.2,0.5-1.2,1.2v5.2c0,0.6,0.5,1.2,1.2,1.2h14.3C214.1,92.4,214.6,91.9,214.6,91.3z
			 M230.7,100.5v-5.2c0-0.6-0.5-1.2-1.2-1.2h-5.2c-0.6,0-1.2,0.5-1.2,1.2v5.2c0,0.6,0.5,1.2,1.2,1.2h5.2
			C230.1,101.7,230.7,101.2,230.7,100.5z M205.5,109.8v-5.2c0-0.6-0.5-1.2-1.2-1.2h-5.2c-0.6,0-1.2,0.5-1.2,1.2v5.2
			c0,0.6,0.5,1.2,1.2,1.2h5.2C205,110.9,205.5,110.4,205.5,109.8z M214.2,109.8v-5.2c0-0.6-0.5-1.2-1.2-1.2h-5.2
			c-0.6,0-1.2,0.5-1.2,1.2v5.2c0,0.6,0.5,1.2,1.2,1.2h5.2C213.7,110.9,214.2,110.4,214.2,109.8z M222.9,109.8v-5.2
			c0-0.6-0.5-1.2-1.2-1.2h-5.2c-0.6,0-1.2,0.5-1.2,1.2v5.2c0,0.6,0.5,1.2,1.2,1.2h5.2C222.4,110.9,222.9,110.4,222.9,109.8z
			 M291.4,109.8v-5.2c0-0.6-0.5-1.2-1.2-1.2h-48.7c-0.6,0-1.2,0.5-1.2,1.2v5.2c0,0.6,0.5,1.2,1.2,1.2h48.7
			C290.9,110.9,291.4,110.4,291.4,109.8z M239.3,100.5v-5.2c0-0.6-0.5-1.2-1.2-1.2h-5.2c-0.6,0-1.2,0.5-1.2,1.2v5.2
			c0,0.6,0.5,1.2,1.2,1.2h5.2C238.8,101.7,239.3,101.2,239.3,100.5z M248,100.5v-5.2c0-0.6-0.5-1.2-1.2-1.2h-5.2
			c-0.6,0-1.2,0.5-1.2,1.2v5.2c0,0.6,0.5,1.2,1.2,1.2h5.2C247.5,101.7,248,101.2,248,100.5z M256.7,100.5v-5.2
			c0-0.6-0.5-1.2-1.2-1.2h-5.2c-0.6,0-1.2,0.5-1.2,1.2v5.2c0,0.6,0.5,1.2,1.2,1.2h5.2C256.2,101.7,256.7,101.2,256.7,100.5z
			 M265.4,100.5v-5.2c0-0.6-0.5-1.2-1.2-1.2H259c-0.6,0-1.2,0.5-1.2,1.2v5.2c0,0.6,0.5,1.2,1.2,1.2h5.2
			C264.9,101.7,265.4,101.2,265.4,100.5z M274.1,100.5v-5.2c0-0.6-0.5-1.2-1.2-1.2h-5.2c-0.6,0-1.2,0.5-1.2,1.2v5.2
			c0,0.6,0.5,1.2,1.2,1.2h5.2C273.6,101.7,274.1,101.2,274.1,100.5z M282.8,100.5v-5.2c0-0.6-0.5-1.2-1.2-1.2h-5.2
			c-0.6,0-1.2,0.5-1.2,1.2v5.2c0,0.6,0.5,1.2,1.2,1.2h5.2C282.2,101.7,282.8,101.2,282.8,100.5z M291.4,100.5v-5.2
			c0-0.6-0.5-1.2-1.2-1.2H285c-0.6,0-1.2,0.5-1.2,1.2v5.2c0,0.6,0.5,1.2,1.2,1.2h5.2C290.9,101.7,291.4,101.2,291.4,100.5z
			 M300.1,100.5v-5.2c0-0.6-0.5-1.2-1.2-1.2h-5.2c-0.6,0-1.2,0.5-1.2,1.2v5.2c0,0.6,0.5,1.2,1.2,1.2h5.2
			C299.6,101.7,300.1,101.2,300.1,100.5z M308.8,100.5v-5.2c0-0.6-0.5-1.2-1.2-1.2h-5.2c-0.6,0-1.2,0.5-1.2,1.2v5.2
			c0,0.6,0.5,1.2,1.2,1.2h5.2C308.3,101.7,308.8,101.2,308.8,100.5z M334,100.5v-5.2c0-0.6-0.5-1.2-1.2-1.2h-21.7
			c-0.6,0-1.2,0.5-1.2,1.2v5.2c0,0.6,0.5,1.2,1.2,1.2h21.7C333.4,101.7,334,101.2,334,100.5z M222,100.5v-5.2c0-0.6-0.5-1.2-1.2-1.2
			h-21.7c-0.6,0-1.2,0.5-1.2,1.2v5.2c0,0.6,0.5,1.2,1.2,1.2h21.7C221.5,101.7,222,101.2,222,100.5z M316.4,109.8v-1.4
			c0-0.6-0.5-1.2-1.2-1.2H310c-0.6,0-1.2,0.5-1.2,1.2v1.4c0,0.6,0.5,1.2,1.2,1.2h5.2C315.9,110.9,316.4,110.4,316.4,109.8z
			 M333.8,109.8v-1.4c0-0.6-0.5-1.2-1.2-1.2h-5.2c-0.6,0-1.2,0.5-1.2,1.2v1.4c0,0.6,0.5,1.2,1.2,1.2h5.2
			C333.2,110.9,333.8,110.4,333.8,109.8z M307.7,109.8v-5.2c0-0.6-0.5-1.2-1.2-1.2h-13c-0.6,0-1.2,0.5-1.2,1.2v5.2
			c0,0.6,0.5,1.2,1.2,1.2h13C307.2,110.9,307.7,110.4,307.7,109.8z M239.3,109.8v-5.2c0-0.6-0.5-1.2-1.2-1.2h-13
			c-0.6,0-1.2,0.5-1.2,1.2v5.2c0,0.6,0.5,1.2,1.2,1.2h13C238.8,110.9,239.3,110.4,239.3,109.8z M325.1,109.8V108
			c0-0.2-0.1-0.3-0.3-0.3h-7c-0.2,0-0.3,0.1-0.3,0.3v1.8c0,0.6,0.5,1.2,1.2,1.2h5.2C324.6,110.9,325.1,110.4,325.1,109.8z
			 M317.5,104.5v1.8c0,0.2,0.1,0.3,0.3,0.3h7c0.2,0,0.3-0.1,0.3-0.3v-1.8c0-0.6-0.5-1.2-1.2-1.2h-5.2
			C318,103.3,317.5,103.9,317.5,104.5z"/>
		<path class="st13" d="M288.3,119.8v22c0,0.9-0.8,1.6-1.7,1.6h-40.3c-0.6,0-1.2-0.3-1.5-0.8c0.3,0.2,0.6,0.2,0.9,0.2h40.3
			c1,0,1.7-0.7,1.7-1.6v-22c0-0.3-0.1-0.6-0.2-0.8C287.9,118.7,288.3,119.2,288.3,119.8z"/>
		<path class="st13" d="M277.3,148.2h-23c-0.9,0-1.6,0.7-1.6,1.6l0,0h26.3l0,0C278.9,148.9,278.2,148.2,277.3,148.2z"/>
		<path class="st27" d="M285.9,117.6h-40.3c-1,0-1.7,0.8-1.7,1.7v21.8c0,1,0.8,1.7,1.7,1.7h40.3c1,0,1.7-0.8,1.7-1.7v-21.8
			C287.6,118.4,286.9,117.6,285.9,117.6z"/>
	</g>
	<g>
		<g>
			<path class="st6" d="M230.5,188.5l2.4-78.2l-4.6-0.1l-0.1-2l-33.2,1l-56.2-1.7l-0.1,3.3l-4.6,0.1l0,0.4h-0.3
				c-0.4,0-0.7,0.3-0.7,0.7v62.4v62.4c0,0.4,0.3,0.7,0.7,0.7h92.6c0.4,0,0.7-0.3,0.7-0.7v-0.4l1.9,0.1l0.1-2l2.7-0.1L230.5,188.5z"
				/>
		</g>
		
			<rect x="133.4" y="107" transform="matrix(0.9996 -2.914015e-02 2.914015e-02 0.9996 -4.8824 5.3293)" class="st28" width="94.1" height="126.3"/>
		
			<rect x="133.4" y="107" transform="matrix(0.9996 -2.914015e-02 2.914015e-02 0.9996 -4.8824 5.3293)" class="st26" width="94.1" height="126.3"/>
		
			<rect x="118.2" y="122.4" transform="matrix(3.025521e-02 -0.9995 0.9995 3.025521e-02 6.4583 345.6484)" class="st28" width="126.3" height="94.1"/>
		<path class="st11" d="M216.7,153.4c0-4.5,6.1-9.4,6.1-12.8v-29c0-0.4-0.3-0.7-0.7-0.7h-92.6c-0.4,0-0.7,0.3-0.7,0.7V174v62.4
			c0,0.4,0.3,0.7,0.7,0.7h92.6c0.4,0,0.7-0.3,0.7-0.7v-29c0-3.4-6.1-8.3-6.1-12.8c0-4.5,0-14.3,0-20.6
			C216.7,167.8,216.7,158,216.7,153.4z"/>
		<rect x="146.2" y="135.1" class="st13" width="58.9" height="30.9"/>
		<rect x="145.2" y="134.2" class="st28" width="58.9" height="30.9"/>
		<path class="st29" d="M136,110.9v126.3h-6.4c-0.4,0-0.7-0.3-0.7-0.7V111.6c0-0.4,0.3-0.7,0.7-0.7H136z"/>
		<path class="st15" d="M174.9,149.6h-25v-3.1h25V149.6z M184,146.5h-4v3.1h4V146.5z M199.6,146.5h-11v3.1h11V146.5z M157.7,153.6
			h-7.8v1.6h7.8V153.6z M177.3,153.6h-14.1v1.6h14.1V153.6z M187,153.6h-4v1.6h4V153.6z M167.2,159.1h-17.2v1.6h17.2V159.1z"/>
		<path class="st26" d="M216.2,153.4v41.2c0,4.5,6.1,9.4,6.1,12.8v29c0,0.4-0.3,0.7-0.7,0.7h-86.2v-5.4h59.1
			c9.2,0,16.7-7.5,16.7-16.7v-104H222c0.2,0.1,0.3,0.4,0.3,0.6v29C222.3,143.9,216.2,148.9,216.2,153.4z"/>
	</g>
</g>
</svg>
