<?xml version="1.0" encoding="utf-8"?>
<!-- Generator: Adobe Illustrator 24.2.3, SVG Export Plug-In . SVG Version: 6.00 Build 0)  -->
<svg version="1.1" xmlns="http://www.w3.org/2000/svg" xmlns:xlink="http://www.w3.org/1999/xlink" x="0px" y="0px"
	 viewBox="0 0 450 290.9" style="enable-background:new 0 0 450 290.9;" xml:space="preserve">
<style type="text/css">
	.st0{opacity:0.46;fill:#FFFFFF;}
	.st1{fill:#0A90B7;}
	.st2{fill:#F2F2F2;}
	.st3{enable-background:new    ;}
	.st4{fill:#FFFFFF;}
	.st5{fill:#A6D7E5;}
	.st6{opacity:0.55;}
	.st7{fill:#757575;}
	.st8{fill:#444444;}
	.st9{opacity:0.46;fill:#209ABD;}
	.st10{opacity:0.6;fill:#0A90B7;}
	.st11{opacity:0.55;fill:#F2F2F2;}
	.st12{fill:#1294C2;}
	.st13{fill:#C71F25;}
	.st14{opacity:0.1;enable-background:new    ;}
</style>
<g id="Layer_6">
</g>
<g id="Shapes">
</g>
<g id="background">
</g>
<g id="text">
</g>
<g id="Graphics">
</g>
<g id="Layer_5">
	<rect x="49.2" class="st0" width="351.6" height="292"/>
	<path id="Path_7616_4_" class="st1" d="M381.5,48.7H106.3V11h275.2l8.3,18.9L381.5,48.7z"/>
	<rect x="60.2" y="11" class="st2" width="46.1" height="37.7"/>
	<g class="st3">
		<path class="st4" d="M129.3,28.5c0,2.2-1.7,3.6-4.3,3.6h-2.3v2.9h-1.9V24.9h4.2C127.6,24.9,129.3,26.2,129.3,28.5z M127.3,28.5
			c0-1.3-0.9-2-2.5-2h-2.2v4.1h2.2C126.5,30.5,127.3,29.8,127.3,28.5z"/>
		<path class="st4" d="M135.5,27.2v1.7c-0.2,0-0.3,0-0.4,0c-1.4,0-2.3,0.8-2.3,2.4v3.8H131v-7.8h1.7v1.1
			C133.2,27.6,134.2,27.2,135.5,27.2z"/>
		<path class="st4" d="M144.3,31.8h-6.1c0.2,1.1,1.2,1.9,2.5,1.9c0.9,0,1.6-0.3,2.1-0.8l1,1.1c-0.7,0.8-1.8,1.3-3.1,1.3
			c-2.6,0-4.3-1.7-4.3-4c0-2.3,1.7-4,4-4c2.3,0,3.9,1.6,3.9,4C144.3,31.4,144.3,31.6,144.3,31.8z M138.2,30.5h4.4
			c-0.1-1.1-1-1.9-2.2-1.9C139.2,28.7,138.4,29.4,138.2,30.5z"/>
		<path class="st4" d="M154.4,31.2c0,2.4-1.7,4-4,4c-1,0-1.9-0.3-2.5-1.1v3.8h-1.8V27.3h1.7v1c0.6-0.7,1.5-1.1,2.6-1.1
			C152.8,27.2,154.4,28.8,154.4,31.2z M152.6,31.2c0-1.5-1-2.4-2.3-2.4c-1.3,0-2.3,0.9-2.3,2.4c0,1.5,1,2.4,2.3,2.4
			C151.6,33.6,152.6,32.7,152.6,31.2z"/>
		<path class="st4" d="M162.7,30.5v4.6h-1.7v-0.9c-0.4,0.7-1.3,1.1-2.5,1.1c-1.8,0-2.9-1-2.9-2.3c0-1.3,0.9-2.3,3.2-2.3h2v-0.1
			c0-1.1-0.6-1.7-1.9-1.7c-0.9,0-1.8,0.3-2.4,0.8l-0.7-1.3c0.8-0.6,2-1,3.3-1C161.4,27.2,162.7,28.3,162.7,30.5z M160.8,32.6v-0.9
			H159c-1.2,0-1.6,0.5-1.6,1c0,0.7,0.6,1.1,1.5,1.1C159.8,33.8,160.5,33.4,160.8,32.6z"/>
		<path class="st4" d="M169.6,27.2v1.7c-0.2,0-0.3,0-0.4,0c-1.4,0-2.3,0.8-2.3,2.4v3.8h-1.8v-7.8h1.7v1.1
			C167.3,27.6,168.3,27.2,169.6,27.2z"/>
		<path class="st4" d="M177.7,30.5v4.6h-1.7v-0.9c-0.4,0.7-1.3,1.1-2.5,1.1c-1.8,0-2.9-1-2.9-2.3c0-1.3,0.9-2.3,3.2-2.3h2v-0.1
			c0-1.1-0.6-1.7-1.9-1.7c-0.9,0-1.8,0.3-2.4,0.8l-0.7-1.3c0.8-0.6,2-1,3.3-1C176.4,27.2,177.7,28.3,177.7,30.5z M175.8,32.6v-0.9
			H174c-1.2,0-1.6,0.5-1.6,1c0,0.7,0.6,1.1,1.5,1.1C174.8,33.8,175.5,33.4,175.8,32.6z"/>
		<path class="st4" d="M184.8,34.6c-0.4,0.4-1.1,0.5-1.8,0.5c-1.7,0-2.7-0.9-2.7-2.6v-3.7H179v-1.5h1.3v-1.8h1.8v1.8h2.1v1.5h-2.1
			v3.7c0,0.8,0.4,1.2,1.1,1.2c0.4,0,0.7-0.1,1-0.3L184.8,34.6z"/>
		<path class="st4" d="M186.1,24.9c0-0.6,0.5-1.1,1.2-1.1s1.2,0.5,1.2,1.1c0,0.6-0.5,1.1-1.2,1.1C186.6,26,186.1,25.5,186.1,24.9z
			 M186.3,27.3h1.8v7.8h-1.8V27.3z"/>
		<path class="st4" d="M190,31.2c0-2.3,1.8-4,4.1-4c2.4,0,4.2,1.6,4.2,4s-1.7,4-4.2,4C191.7,35.2,190,33.5,190,31.2z M196.4,31.2
			c0-1.5-1-2.4-2.3-2.4c-1.3,0-2.3,0.9-2.3,2.4c0,1.5,1,2.4,2.3,2.4C195.4,33.6,196.4,32.7,196.4,31.2z"/>
		<path class="st4" d="M207.8,30.6v4.5h-1.8v-4.2c0-1.4-0.7-2.1-1.9-2.1c-1.3,0-2.2,0.8-2.2,2.3v3.9h-1.8v-7.8h1.7v1
			c0.6-0.7,1.5-1.1,2.7-1.1C206.4,27.2,207.8,28.3,207.8,30.6z"/>
	</g>
	<g>
		<path class="st4" d="M77.2,39.3c-2.1,0-3.9-0.9-5.2-2.6c-1.3-1.7-2-4.1-2-6.9c0-2.8,0.7-5.2,2-6.9c1.3-1.7,3.1-2.6,5.2-2.6
			c2.1,0,3.9,0.9,5.2,2.6c1.3,1.7,2,4.1,2,6.9c0,2.8-0.7,5.2-2,6.9C81.1,38.5,79.3,39.3,77.2,39.3L77.2,39.3z M77.2,24.5
			c-0.6,0-0.9,0.3-1.2,1c-0.2,0.6-0.5,1.8-0.5,4.4c0,2.6,0.3,3.8,0.5,4.4c0.3,0.7,0.6,1,1.2,1c0.6,0,1-0.3,1.2-1
			c0.2-0.6,0.5-1.8,0.5-4.4c0-2.6-0.3-3.8-0.5-4.4C78.2,24.8,77.8,24.5,77.2,24.5L77.2,24.5z M95.4,39.3c0.4,0,0.7-0.4,0.7-1V36
			c0-0.5-0.3-1-0.7-1h-1c-1,0-1-0.5-1-1V21.3c0-0.5-0.3-1-0.7-1h-3.1c-0.3,0-0.6,0.2-0.7,0.6c-0.2,0.6-0.5,1-1,1.3
			c-0.6,0.3-1.4,0.5-2.4,0.5c-0.4,0-0.7,0.4-0.7,1v2.3c0,0.3,0.1,0.5,0.2,0.7c0.1,0.2,0.3,0.3,0.5,0.3h2.2v7v0.5c0,0.3,0,0.7-1,0.7
			h-1.1c-0.4,0-0.7,0.4-0.7,1v2.3c0,0.5,0.3,1,0.7,1H95.4L95.4,39.3z"/>
		<path class="st1" d="M85.5,38.4V36h1.1c0.7,0,1.2-0.1,1.4-0.3c0.2-0.2,0.3-0.6,0.3-1.4v-0.5V26h-2.9v-2.3c1.1,0,2-0.2,2.7-0.6
			c0.7-0.4,1.1-1,1.4-1.8h3.1v12.8c0,0.9,0.1,1.5,0.3,1.7c0.2,0.2,0.7,0.3,1.5,0.3h1v2.3H85.5z M70.6,29.8c0-2.6,0.6-4.7,1.8-6.2
			c1.2-1.6,2.8-2.4,4.8-2.4c2,0,3.6,0.8,4.8,2.4c1.2,1.6,1.8,3.7,1.8,6.3c0,2.6-0.6,4.7-1.8,6.2c-1.2,1.6-2.8,2.4-4.8,2.4
			c-2,0-3.6-0.8-4.8-2.4C71.2,34.5,70.6,32.4,70.6,29.8z M74.8,29.8c0,2.2,0.2,3.8,0.6,4.8c0.4,1,1,1.5,1.8,1.5
			c0.8,0,1.4-0.5,1.8-1.5c0.4-1,0.6-2.6,0.6-4.8c0-2.2-0.2-3.8-0.6-4.8c-0.4-1-1-1.5-1.8-1.5c-0.8,0-1.4,0.5-1.8,1.5
			C75,26,74.8,27.6,74.8,29.8z"/>
		<path class="st5" d="M92.8,35.9l-0.2,0.4c-0.3-0.4-0.5-1.1-0.5-2.2V22l0.4-0.5v12.6C92.5,35.1,92.6,35.6,92.8,35.9z M88.3,25.2H86
			l-0.4,0.5h2.7c0,0,0.1,0,0.1,0.1l0.3-0.3C88.6,25.3,88.5,25.2,88.3,25.2z M94.9,36.8v0.9H86l-0.4,0.5h9.6v-1.9L94.9,36.8z
			 M75.2,34.7c-0.4-1-0.6-2.6-0.6-4.9c0-2.3,0.2-3.9,0.6-4.9c0.4-1.1,1.1-1.6,2-1.6c0.6,0,1.1,0.3,1.5,0.7l0.2-0.3
			c-0.4-0.6-1-0.9-1.7-0.9c-1,0-1.8,0.6-2.3,1.8c-0.4,1.1-0.6,2.8-0.6,5.1c0,2.3,0.2,4,0.6,5.1c0.1,0.4,0.3,0.7,0.5,0.9l0.2-0.3
			C75.5,35.3,75.4,35,75.2,34.7z M81.9,23.8l-0.2,0.3c1.1,1.4,1.6,3.3,1.6,5.7c0,2.4-0.6,4.3-1.7,5.7c-1.1,1.4-2.6,2.2-4.4,2.2
			c-1.8,0-3.3-0.7-4.4-2.2v0l-0.2,0.3c0,0,0,0,0,0c1.2,1.5,2.7,2.3,4.6,2.3c1.9,0,3.5-0.8,4.7-2.3c1.2-1.5,1.8-3.6,1.8-6.1
			C83.6,27.4,83.1,25.3,81.9,23.8z"/>
	</g>
	<g class="st6">
		<rect x="70.9" y="63.8" class="st2" width="308.3" height="95.4"/>
		<g>
			<g>
				<path class="st1" d="M91.5,83.7v3.2h4.6V88h-4.6v3.7h-1.3v-9.3h6.5v1.2H91.5z"/>
				<path class="st1" d="M104.6,88.7h-5.7c0.2,1.2,1.2,2.1,2.5,2.1c0.8,0,1.5-0.3,2-0.8l0.7,0.8c-0.6,0.7-1.6,1.1-2.8,1.1
					c-2.3,0-3.8-1.5-3.8-3.6c0-2.1,1.5-3.6,3.5-3.6s3.5,1.5,3.5,3.6C104.7,88.4,104.6,88.6,104.6,88.7z M98.9,87.8h4.5
					c-0.1-1.2-1-2-2.2-2C100,85.8,99.1,86.6,98.9,87.8z"/>
				<path class="st1" d="M113.2,82v9.8h-1.2v-1.1c-0.6,0.8-1.5,1.2-2.5,1.2c-2.1,0-3.5-1.4-3.5-3.6s1.5-3.6,3.5-3.6
					c1,0,1.9,0.4,2.4,1.1V82H113.2z M111.9,88.3c0-1.5-1-2.5-2.4-2.5c-1.3,0-2.4,1-2.4,2.5c0,1.5,1,2.5,2.4,2.5
					C110.9,90.8,111.9,89.8,111.9,88.3z"/>
				<path class="st1" d="M122.1,91.8l-2-2.8c-0.2,0-0.4,0-0.6,0h-2.3v2.8h-1.3v-9.3h3.6c2.4,0,3.9,1.2,3.9,3.2c0,1.4-0.7,2.5-2,2.9
					l2.2,3.1H122.1z M122,85.8c0-1.3-0.9-2.1-2.6-2.1h-2.2v4.2h2.2C121.2,87.8,122,87.1,122,85.8z"/>
				<path class="st1" d="M131.5,89.5h-4.9l-1,2.3h-1.4l4.2-9.3h1.3l4.2,9.3h-1.4L131.5,89.5z M131.1,88.4l-2-4.5l-2,4.5H131.1z"/>
				<path class="st1" d="M144,91.8l0-6.7l-3.3,5.6h-0.6l-3.3-5.6v6.7h-1.3v-9.3h1.1l3.9,6.5l3.8-6.5h1.1l0,9.3H144z"/>
				<path class="st1" d="M155.7,85.8c0,2-1.5,3.2-3.9,3.2h-2.3v2.8h-1.3v-9.3h3.6C154.2,82.5,155.7,83.7,155.7,85.8z M154.4,85.8
					c0-1.3-0.9-2.1-2.6-2.1h-2.2v4.2h2.2C153.5,87.8,154.4,87.1,154.4,85.8z"/>
				<path class="st1" d="M160.9,87.2c0-2.7,2.1-4.7,4.9-4.7c1.4,0,2.7,0.5,3.5,1.4l-0.9,0.8c-0.7-0.8-1.6-1.1-2.6-1.1
					c-2.1,0-3.6,1.5-3.6,3.6c0,2.1,1.5,3.6,3.6,3.6c1,0,1.9-0.4,2.6-1.1l0.9,0.8c-0.8,1-2.1,1.5-3.5,1.5
					C162.9,91.9,160.9,89.9,160.9,87.2z"/>
				<path class="st1" d="M170.2,88.3c0-2.1,1.5-3.6,3.7-3.6s3.6,1.5,3.6,3.6s-1.5,3.6-3.6,3.6S170.2,90.4,170.2,88.3z M176.2,88.3
					c0-1.5-1-2.5-2.4-2.5c-1.3,0-2.4,1-2.4,2.5c0,1.5,1,2.5,2.4,2.5C175.2,90.8,176.2,89.8,176.2,88.3z"/>
				<path class="st1" d="M186,87.8v4h-1.3v-3.9c0-1.4-0.7-2.1-1.9-2.1c-1.3,0-2.2,0.8-2.2,2.3v3.6h-1.3v-7h1.2v1.1
					c0.5-0.7,1.4-1.1,2.5-1.1C184.8,84.7,186,85.7,186,87.8z"/>
				<path class="st1" d="M195.2,87.8v4h-1.3v-3.9c0-1.4-0.7-2.1-1.9-2.1c-1.3,0-2.2,0.8-2.2,2.3v3.6h-1.3v-7h1.2v1.1
					c0.5-0.7,1.4-1.1,2.5-1.1C194,84.7,195.2,85.7,195.2,87.8z"/>
				<path class="st1" d="M204,88.7h-5.7c0.2,1.2,1.2,2.1,2.5,2.1c0.8,0,1.5-0.3,2-0.8l0.7,0.8c-0.6,0.7-1.6,1.1-2.8,1.1
					c-2.3,0-3.8-1.5-3.8-3.6c0-2.1,1.5-3.6,3.5-3.6s3.5,1.5,3.5,3.6C204,88.4,204,88.6,204,88.7z M198.3,87.8h4.5
					c-0.1-1.2-1-2-2.2-2C199.3,85.8,198.4,86.6,198.3,87.8z"/>
				<path class="st1" d="M205.3,88.3c0-2.1,1.5-3.6,3.7-3.6c1.3,0,2.3,0.5,2.9,1.5l-1,0.6c-0.5-0.7-1.1-1-1.9-1
					c-1.4,0-2.4,1-2.4,2.5c0,1.5,1,2.5,2.4,2.5c0.8,0,1.5-0.3,1.9-1l1,0.6c-0.6,1-1.6,1.5-2.9,1.5C206.8,91.9,205.3,90.4,205.3,88.3
					z"/>
				<path class="st1" d="M217.6,91.4c-0.4,0.3-1,0.5-1.5,0.5c-1.4,0-2.2-0.8-2.2-2.2v-3.8h-1.2v-1h1.2v-1.5h1.3v1.5h2v1h-2v3.8
					c0,0.8,0.4,1.2,1.1,1.2c0.4,0,0.7-0.1,1-0.3L217.6,91.4z"/>
			</g>
		</g>
		<g>
			<g>
				<path class="st8" d="M119.3,112.7h5v0.6H120v3.2h4.1v0.6H120v3.9h-0.7V112.7z"/>
				<path class="st8" d="M126.1,118L126.1,118c0,0.8,0.2,1.4,0.5,1.9c0.4,0.4,0.9,0.6,1.6,0.6c0.7,0,1.4-0.2,1.9-0.7l0.3,0.6
					c-0.3,0.2-0.6,0.4-1,0.6c-0.4,0.1-0.8,0.2-1.2,0.2c-0.9,0-1.6-0.3-2.1-0.8s-0.8-1.3-0.8-2.2c0-0.6,0.1-1.1,0.3-1.6
					c0.2-0.5,0.6-0.8,1-1.1s0.9-0.4,1.4-0.4c0.8,0,1.4,0.3,1.8,0.8c0.4,0.5,0.7,1.2,0.7,2.1v0.2H126.1z M126.7,116.1
					c-0.3,0.3-0.5,0.8-0.6,1.4h3.7c0-0.6-0.2-1.1-0.5-1.4c-0.3-0.3-0.7-0.5-1.3-0.5C127.5,115.6,127.1,115.8,126.7,116.1z"/>
				<path class="st8" d="M137.1,112.4v8.7h-0.7v-1.1c-0.2,0.4-0.4,0.7-0.8,0.9c-0.3,0.2-0.8,0.3-1.3,0.3c-0.5,0-1-0.1-1.4-0.4
					c-0.4-0.3-0.7-0.6-0.9-1.1c-0.2-0.5-0.3-1-0.3-1.6c0-0.6,0.1-1.1,0.3-1.6c0.2-0.5,0.5-0.8,0.9-1.1c0.4-0.2,0.9-0.4,1.4-0.4
					c0.5,0,0.9,0.1,1.2,0.3c0.3,0.2,0.6,0.5,0.8,0.9v-3.8H137.1z M135.9,119.9c0.3-0.4,0.5-1,0.5-1.8c0-0.8-0.2-1.4-0.5-1.8
					c-0.3-0.4-0.8-0.6-1.4-0.6c-0.6,0-1.1,0.2-1.5,0.6c-0.3,0.4-0.5,1-0.5,1.8c0,0.8,0.2,1.4,0.5,1.8c0.3,0.4,0.8,0.6,1.4,0.6
					S135.6,120.3,135.9,119.9z"/>
				<path class="st8" d="M145.7,121.1h-0.8l-1-2.8c-0.1-0.4-0.3-0.6-0.6-0.8c-0.2-0.1-0.6-0.2-1-0.2H140v3.7h-0.7v-8.4h3.2
					c0.9,0,1.5,0.2,2,0.6c0.5,0.4,0.7,1,0.7,1.7c0,0.5-0.1,1-0.4,1.4s-0.7,0.6-1.2,0.8c0.2,0,0.5,0.1,0.6,0.3
					c0.2,0.2,0.3,0.4,0.4,0.7L145.7,121.1z M142.4,116.7c1.4,0,2.1-0.6,2.1-1.7c0-1.1-0.7-1.7-2.1-1.7H140v3.4H142.4z"/>
				<path class="st8" d="M152.8,118.8h-4.5l-1,2.2h-0.8l3.6-8.4h0.7l3.6,8.4h-0.8L152.8,118.8z M152.5,118.2l-2-4.6l-2,4.6H152.5z"
					/>
				<path class="st8" d="M163.7,112.7v8.4h-0.7v-6.7l-2.9,6.7h-0.5l-3-6.6l0,6.6h-0.7v-8.4h0.6l3.3,7.5l3.3-7.5H163.7z"/>
				<path class="st8" d="M166,112.7h3.2c0.8,0,1.5,0.2,2,0.6c0.5,0.4,0.7,1,0.7,1.7c0,0.7-0.2,1.3-0.7,1.7c-0.5,0.4-1.1,0.6-2,0.6
					h-2.5v3.8H166V112.7z M169.1,116.7c0.7,0,1.2-0.1,1.5-0.4c0.3-0.3,0.5-0.7,0.5-1.2c0-0.5-0.2-0.9-0.5-1.2
					c-0.3-0.3-0.8-0.4-1.5-0.4h-2.4v3.4H169.1z"/>
				<path class="st8" d="M178.1,120.7c-0.6-0.3-1-0.8-1.3-1.5s-0.5-1.4-0.5-2.3c0-0.9,0.2-1.6,0.5-2.3s0.7-1.1,1.3-1.5
					c0.6-0.3,1.2-0.5,2-0.5c0.6,0,1.1,0.1,1.6,0.3c0.5,0.2,0.9,0.5,1.3,0.8l-0.3,0.6c-0.4-0.4-0.8-0.6-1.2-0.8s-0.8-0.2-1.3-0.2
					c-1,0-1.7,0.3-2.2,0.9s-0.8,1.5-0.8,2.7c0,1.2,0.3,2.1,0.8,2.7s1.3,1,2.3,1c0.5,0,0.9-0.1,1.3-0.2c0.4-0.2,0.8-0.4,1.2-0.8
					l0.3,0.6c-0.4,0.4-0.8,0.6-1.3,0.8c-0.5,0.2-1,0.3-1.6,0.3C179.4,121.2,178.7,121,178.1,120.7z"/>
				<path class="st8" d="M185.4,120.8c-0.4-0.3-0.7-0.6-1-1.1c-0.2-0.5-0.3-1-0.3-1.6c0-0.6,0.1-1.1,0.3-1.6c0.2-0.5,0.5-0.8,1-1.1
					s0.9-0.4,1.4-0.4c0.5,0,1,0.1,1.4,0.4c0.4,0.3,0.7,0.6,0.9,1.1c0.2,0.5,0.3,1,0.3,1.6c0,0.6-0.1,1.1-0.3,1.6
					c-0.2,0.5-0.5,0.8-0.9,1.1c-0.4,0.3-0.9,0.4-1.4,0.4C186.3,121.2,185.9,121,185.4,120.8z M188.3,119.9c0.3-0.4,0.5-1,0.5-1.8
					c0-0.8-0.2-1.4-0.5-1.8c-0.3-0.4-0.8-0.6-1.4-0.6c-0.6,0-1.1,0.2-1.4,0.6c-0.3,0.4-0.5,1-0.5,1.8c0,0.8,0.2,1.4,0.5,1.8
					c0.3,0.4,0.8,0.6,1.4,0.6S188,120.3,188.3,119.9z"/>
				<path class="st8" d="M196.1,117.3v3.8h-0.7v-3.7c0-0.6-0.1-1-0.4-1.3c-0.2-0.3-0.6-0.4-1.1-0.4c-0.6,0-1.1,0.2-1.4,0.5
					c-0.4,0.4-0.5,0.8-0.5,1.5v3.4h-0.7v-4.3c0-0.6,0-1.2-0.1-1.6h0.7l0.1,1.1c0.2-0.4,0.5-0.7,0.8-0.9c0.4-0.2,0.8-0.3,1.2-0.3
					C195.4,115,196.1,115.8,196.1,117.3z"/>
				<path class="st8" d="M202.9,117.3v3.8h-0.7v-3.7c0-0.6-0.1-1-0.4-1.3c-0.2-0.3-0.6-0.4-1.1-0.4c-0.6,0-1.1,0.2-1.4,0.5
					c-0.4,0.4-0.5,0.8-0.5,1.5v3.4h-0.7v-4.3c0-0.6,0-1.2-0.1-1.6h0.7l0.1,1.1c0.2-0.4,0.5-0.7,0.8-0.9c0.4-0.2,0.8-0.3,1.2-0.3
					C202.2,115,202.9,115.8,202.9,117.3z"/>
				<path class="st8" d="M205.3,118L205.3,118c0,0.8,0.2,1.4,0.5,1.9c0.4,0.4,0.9,0.6,1.6,0.6c0.7,0,1.4-0.2,1.9-0.7l0.3,0.6
					c-0.3,0.2-0.6,0.4-1,0.6c-0.4,0.1-0.8,0.2-1.2,0.2c-0.9,0-1.6-0.3-2.1-0.8s-0.8-1.3-0.8-2.2c0-0.6,0.1-1.1,0.3-1.6
					c0.2-0.5,0.6-0.8,1-1.1s0.9-0.4,1.4-0.4c0.8,0,1.4,0.3,1.8,0.8c0.4,0.5,0.7,1.2,0.7,2.1v0.2H205.3z M206,116.1
					c-0.3,0.3-0.5,0.8-0.6,1.4h3.7c0-0.6-0.2-1.1-0.5-1.4c-0.3-0.3-0.7-0.5-1.3-0.5C206.8,115.6,206.3,115.8,206,116.1z"/>
				<path class="st8" d="M212.3,120.8c-0.4-0.3-0.7-0.6-1-1.1c-0.2-0.5-0.3-1-0.3-1.6c0-0.6,0.1-1.2,0.3-1.6c0.2-0.5,0.6-0.8,1-1.1
					s0.9-0.4,1.5-0.4c0.4,0,0.8,0.1,1.1,0.2c0.4,0.1,0.7,0.3,0.9,0.6l-0.3,0.6c-0.3-0.3-0.6-0.4-0.9-0.5s-0.6-0.2-0.9-0.2
					c-0.6,0-1.1,0.2-1.5,0.7c-0.4,0.4-0.6,1-0.6,1.8c0,0.8,0.2,1.3,0.5,1.8s0.9,0.6,1.5,0.6c0.3,0,0.6-0.1,0.9-0.2s0.6-0.3,0.9-0.5
					l0.3,0.6c-0.3,0.2-0.6,0.4-0.9,0.6c-0.4,0.1-0.8,0.2-1.1,0.2C213.2,121.2,212.7,121,212.3,120.8z"/>
				<path class="st8" d="M218.2,115.8v3.5c0,0.5,0.1,0.8,0.3,1c0.2,0.2,0.4,0.3,0.8,0.3c0.2,0,0.4,0,0.6-0.1v0.6
					c-0.3,0.1-0.5,0.1-0.8,0.1c-0.5,0-0.9-0.1-1.2-0.4c-0.3-0.3-0.4-0.7-0.4-1.3v-3.6h-1.2v-0.6h1.2v-1.6l0.7-0.3v1.8h1.7v0.6H218.2
					z"/>
				<path class="st8" d="M230.1,117.5c0.3,0.3,0.4,0.8,0.4,1.3c0,0.7-0.2,1.3-0.7,1.7c-0.5,0.4-1.2,0.6-2,0.6h-3.4v-8.4h3.2
					c0.9,0,1.5,0.2,2,0.6s0.7,0.9,0.7,1.6c0,0.5-0.1,0.8-0.3,1.2c-0.2,0.3-0.6,0.6-1,0.7C229.4,116.9,229.8,117.1,230.1,117.5z
					 M225.1,116.5h2.4c0.7,0,1.2-0.1,1.5-0.4c0.3-0.3,0.5-0.7,0.5-1.2c0-1-0.7-1.6-2-1.6h-2.4V116.5z M229.2,120.1
					c0.3-0.3,0.5-0.7,0.5-1.2c0-1.1-0.7-1.7-2.1-1.7h-2.6v3.3h2.6C228.4,120.5,228.9,120.3,229.2,120.1z"/>
				<path class="st8" d="M237,115.2v5.9h-0.7V120c-0.2,0.4-0.5,0.7-0.8,0.9c-0.3,0.2-0.7,0.3-1.2,0.3c-0.7,0-1.2-0.2-1.6-0.6
					c-0.4-0.4-0.5-1-0.5-1.7v-3.7h0.7v3.6c0,0.6,0.1,1,0.4,1.3s0.6,0.4,1.1,0.4c0.6,0,1-0.2,1.4-0.5c0.3-0.4,0.5-0.8,0.5-1.5v-3.3
					H237z"/>
				<path class="st8" d="M238.7,120.4l0.3-0.6c0.3,0.3,0.6,0.4,0.9,0.6s0.7,0.2,1.1,0.2c0.5,0,0.9-0.1,1.1-0.3
					c0.3-0.2,0.4-0.4,0.4-0.7c0-0.3-0.1-0.5-0.3-0.6s-0.4-0.3-0.8-0.4l-1-0.2c-0.5-0.1-0.8-0.3-1.1-0.6s-0.4-0.6-0.4-1
					c0-0.5,0.2-0.9,0.6-1.2c0.4-0.3,0.9-0.5,1.6-0.5c0.4,0,0.8,0.1,1.2,0.2c0.4,0.1,0.7,0.3,0.9,0.6l-0.3,0.6
					c-0.5-0.5-1.1-0.7-1.8-0.7c-0.5,0-0.8,0.1-1.1,0.3c-0.3,0.2-0.4,0.4-0.4,0.8c0,0.3,0.1,0.5,0.2,0.6c0.2,0.2,0.4,0.3,0.7,0.4
					l1,0.2c1.1,0.2,1.6,0.8,1.6,1.6c0,0.5-0.2,0.9-0.6,1.2c-0.4,0.3-1,0.5-1.6,0.5C240,121.2,239.2,120.9,238.7,120.4z"/>
				<path class="st8" d="M245.7,112.7v0.9h-1v-0.9H245.7z M244.9,115.2h0.7v5.9h-0.7V115.2z"/>
				<path class="st8" d="M252.5,117.3v3.8h-0.7v-3.7c0-0.6-0.1-1-0.4-1.3s-0.6-0.4-1.1-0.4c-0.6,0-1.1,0.2-1.4,0.5
					c-0.4,0.4-0.5,0.8-0.5,1.5v3.4h-0.7v-4.3c0-0.6,0-1.2-0.1-1.6h0.7l0.1,1.1c0.2-0.4,0.5-0.7,0.8-0.9c0.4-0.2,0.8-0.3,1.2-0.3
					C251.8,115,252.5,115.8,252.5,117.3z"/>
				<path class="st8" d="M254.9,118L254.9,118c0,0.8,0.2,1.4,0.5,1.9c0.4,0.4,0.9,0.6,1.6,0.6c0.7,0,1.4-0.2,1.9-0.7l0.3,0.6
					c-0.3,0.2-0.6,0.4-1,0.6c-0.4,0.1-0.8,0.2-1.2,0.2c-0.9,0-1.6-0.3-2.1-0.8s-0.8-1.3-0.8-2.2c0-0.6,0.1-1.1,0.3-1.6
					c0.2-0.5,0.6-0.8,1-1.1c0.4-0.3,0.9-0.4,1.4-0.4c0.8,0,1.4,0.3,1.8,0.8c0.4,0.5,0.7,1.2,0.7,2.1v0.2H254.9z M255.5,116.1
					c-0.3,0.3-0.5,0.8-0.6,1.4h3.7c0-0.6-0.2-1.1-0.5-1.4c-0.3-0.3-0.7-0.5-1.3-0.5C256.3,115.6,255.9,115.8,255.5,116.1z"/>
				<path class="st8" d="M260.6,120.4l0.3-0.6c0.3,0.3,0.6,0.4,0.9,0.6s0.7,0.2,1.1,0.2c0.5,0,0.9-0.1,1.1-0.3
					c0.3-0.2,0.4-0.4,0.4-0.7c0-0.3-0.1-0.5-0.3-0.6s-0.4-0.3-0.8-0.4l-1-0.2c-0.5-0.1-0.8-0.3-1.1-0.6s-0.4-0.6-0.4-1
					c0-0.5,0.2-0.9,0.6-1.2c0.4-0.3,0.9-0.5,1.6-0.5c0.4,0,0.8,0.1,1.2,0.2c0.4,0.1,0.7,0.3,0.9,0.6l-0.3,0.6
					c-0.5-0.5-1.1-0.7-1.8-0.7c-0.5,0-0.8,0.1-1.1,0.3c-0.3,0.2-0.4,0.4-0.4,0.8c0,0.3,0.1,0.5,0.2,0.6c0.2,0.2,0.4,0.3,0.7,0.4
					l1,0.2c1.1,0.2,1.6,0.8,1.6,1.6c0,0.5-0.2,0.9-0.6,1.2c-0.4,0.3-1,0.5-1.6,0.5C261.9,121.2,261.1,120.9,260.6,120.4z"/>
				<path class="st8" d="M266.4,120.4l0.3-0.6c0.3,0.3,0.6,0.4,0.9,0.6s0.7,0.2,1.1,0.2c0.5,0,0.9-0.1,1.1-0.3
					c0.3-0.2,0.4-0.4,0.4-0.7c0-0.3-0.1-0.5-0.3-0.6s-0.4-0.3-0.8-0.4l-1-0.2c-0.5-0.1-0.8-0.3-1.1-0.6s-0.4-0.6-0.4-1
					c0-0.5,0.2-0.9,0.6-1.2c0.4-0.3,0.9-0.5,1.6-0.5c0.4,0,0.8,0.1,1.2,0.2c0.4,0.1,0.7,0.3,0.9,0.6l-0.3,0.6
					c-0.5-0.5-1.1-0.7-1.8-0.7c-0.5,0-0.8,0.1-1.1,0.3c-0.3,0.2-0.4,0.4-0.4,0.8c0,0.3,0.1,0.5,0.2,0.6c0.2,0.2,0.4,0.3,0.7,0.4
					l1,0.2c1.1,0.2,1.6,0.8,1.6,1.6c0,0.5-0.2,0.9-0.6,1.2c-0.4,0.3-1,0.5-1.6,0.5C267.8,121.2,267,120.9,266.4,120.4z"/>
				<path class="st8" d="M277.3,120.7c-0.6-0.3-1-0.8-1.3-1.5c-0.3-0.6-0.5-1.4-0.5-2.3c0-0.9,0.2-1.6,0.5-2.3
					c0.3-0.6,0.7-1.1,1.3-1.5c0.6-0.3,1.2-0.5,2-0.5c0.6,0,1.1,0.1,1.6,0.3c0.5,0.2,0.9,0.5,1.3,0.8l-0.3,0.6
					c-0.4-0.4-0.8-0.6-1.2-0.8c-0.4-0.2-0.8-0.2-1.3-0.2c-1,0-1.7,0.3-2.2,0.9s-0.8,1.5-0.8,2.7c0,1.2,0.3,2.1,0.8,2.7
					c0.5,0.6,1.3,1,2.3,1c0.5,0,0.9-0.1,1.3-0.2c0.4-0.2,0.8-0.4,1.2-0.8l0.3,0.6c-0.4,0.4-0.8,0.6-1.3,0.8c-0.5,0.2-1,0.3-1.6,0.3
					C278.5,121.2,277.9,121,277.3,120.7z"/>
				<path class="st8" d="M288.7,115.2v5.9H288v-1.1c-0.2,0.4-0.4,0.7-0.8,0.9c-0.3,0.2-0.8,0.3-1.3,0.3c-0.5,0-1-0.1-1.4-0.4
					c-0.4-0.2-0.7-0.6-0.9-1.1c-0.2-0.5-0.3-1-0.3-1.6c0-0.6,0.1-1.2,0.3-1.6c0.2-0.5,0.5-0.8,0.9-1.1c0.4-0.3,0.9-0.4,1.4-0.4
					c0.5,0,0.9,0.1,1.2,0.3c0.3,0.2,0.6,0.5,0.8,0.9v-1.1H288.7z M287.5,119.9c0.3-0.4,0.5-1,0.5-1.8c0-0.8-0.2-1.4-0.5-1.8
					s-0.8-0.6-1.4-0.6s-1.1,0.2-1.4,0.7c-0.3,0.4-0.5,1-0.5,1.8c0,0.8,0.2,1.4,0.5,1.8c0.3,0.4,0.8,0.6,1.5,0.6
					C286.7,120.5,287.2,120.3,287.5,119.9z"/>
				<path class="st8" d="M290.4,120.4l0.3-0.6c0.3,0.3,0.6,0.4,0.9,0.6s0.7,0.2,1.1,0.2c0.5,0,0.9-0.1,1.1-0.3
					c0.3-0.2,0.4-0.4,0.4-0.7c0-0.3-0.1-0.5-0.3-0.6s-0.4-0.3-0.8-0.4l-1-0.2c-0.5-0.1-0.8-0.3-1.1-0.6s-0.4-0.6-0.4-1
					c0-0.5,0.2-0.9,0.6-1.2c0.4-0.3,0.9-0.5,1.6-0.5c0.4,0,0.8,0.1,1.2,0.2c0.4,0.1,0.7,0.3,0.9,0.6l-0.3,0.6
					c-0.5-0.5-1.1-0.7-1.8-0.7c-0.5,0-0.8,0.1-1.1,0.3c-0.3,0.2-0.4,0.4-0.4,0.8c0,0.3,0.1,0.5,0.2,0.6c0.2,0.2,0.4,0.3,0.7,0.4
					l1,0.2c1.1,0.2,1.6,0.8,1.6,1.6c0,0.5-0.2,0.9-0.6,1.2c-0.4,0.3-1,0.5-1.6,0.5C291.7,121.2,290.9,120.9,290.4,120.4z"/>
				<path class="st8" d="M297,118L297,118c0,0.8,0.2,1.4,0.5,1.9c0.4,0.4,0.9,0.6,1.6,0.6c0.7,0,1.4-0.2,1.9-0.7l0.3,0.6
					c-0.3,0.2-0.6,0.4-1,0.6c-0.4,0.1-0.8,0.2-1.2,0.2c-0.9,0-1.6-0.3-2.1-0.8s-0.8-1.3-0.8-2.2c0-0.6,0.1-1.1,0.3-1.6
					c0.2-0.5,0.6-0.8,1-1.1c0.4-0.3,0.9-0.4,1.4-0.4c0.8,0,1.4,0.3,1.8,0.8c0.4,0.5,0.7,1.2,0.7,2.1v0.2H297z M297.6,116.1
					c-0.3,0.3-0.5,0.8-0.6,1.4h3.7c0-0.6-0.2-1.1-0.5-1.4c-0.3-0.3-0.7-0.5-1.3-0.5C298.4,115.6,298,115.8,297.6,116.1z"/>
				<g>
					<path class="st1" d="M98.2,141.8c-0.3-0.2-0.6-0.4-0.8-0.8s-0.3-0.7-0.3-1.1c0-0.4,0.1-0.7,0.3-1c0.2-0.3,0.4-0.6,0.8-0.8
						c0.3-0.2,0.7-0.3,1.1-0.3c0.4,0,0.7,0.1,1.1,0.3c0.3,0.2,0.6,0.4,0.8,0.8c0.2,0.3,0.3,0.7,0.3,1.1c0,0.4-0.1,0.7-0.3,1.1
						c-0.2,0.3-0.5,0.6-0.8,0.8c-0.3,0.2-0.7,0.3-1.1,0.3C98.9,142.1,98.5,142,98.2,141.8z"/>
					<path class="st1" d="M99.3,142.2c-0.4,0-0.8-0.1-1.1-0.3c-0.3-0.2-0.6-0.5-0.8-0.8c-0.2-0.3-0.3-0.7-0.3-1.1
						c0-0.4,0.1-0.7,0.3-1.1c0.2-0.3,0.5-0.6,0.8-0.8c0.7-0.4,1.6-0.4,2.3,0c0.3,0.2,0.6,0.5,0.8,0.8c0.2,0.3,0.3,0.7,0.3,1.1
						c0,0.4-0.1,0.8-0.3,1.1c-0.2,0.3-0.5,0.6-0.8,0.8C100,142.1,99.7,142.2,99.3,142.2z M99.3,138c-0.4,0-0.7,0.1-1,0.3
						c-0.3,0.2-0.6,0.4-0.7,0.7s-0.3,0.6-0.3,1c0,0.4,0.1,0.7,0.3,1c0.2,0.3,0.4,0.5,0.7,0.7l0,0c0.6,0.3,1.4,0.3,2,0
						c0.3-0.2,0.6-0.4,0.7-0.7c0.2-0.3,0.3-0.6,0.3-1c0-0.4-0.1-0.7-0.3-1c-0.2-0.3-0.4-0.5-0.7-0.7C99.9,138.1,99.6,138,99.3,138z"
						/>
				</g>
				<path class="st8" d="M119.3,134.8h3.2c0.8,0,1.5,0.2,2,0.6c0.5,0.4,0.7,1,0.7,1.7c0,0.7-0.2,1.3-0.7,1.7c-0.5,0.4-1.1,0.6-2,0.6
					H120v3.8h-0.7V134.8z M122.5,138.7c0.7,0,1.2-0.1,1.5-0.4c0.3-0.3,0.5-0.7,0.5-1.2c0-0.5-0.2-0.9-0.5-1.2
					c-0.3-0.3-0.8-0.4-1.5-0.4H120v3.4H122.5z"/>
				<path class="st8" d="M129.7,137.1l0,0.6c-0.1,0-0.3,0-0.5,0c-0.6,0-1,0.2-1.3,0.6c-0.3,0.4-0.4,0.8-0.4,1.4v3.5h-0.7v-4.3
					c0-0.6,0-1.2-0.1-1.6h0.7l0.1,1.1c0.1-0.4,0.4-0.7,0.7-0.9c0.3-0.2,0.7-0.3,1.1-0.3C129.4,137.1,129.6,137.1,129.7,137.1z"/>
				<path class="st8" d="M131.7,134.8v0.9h-1v-0.9H131.7z M130.9,137.2h0.7v5.9h-0.7V137.2z"/>
				<path class="st8" d="M134.5,142.8c-0.4-0.3-0.7-0.6-1-1.1c-0.2-0.5-0.3-1-0.3-1.6c0-0.6,0.1-1.1,0.3-1.6c0.2-0.5,0.5-0.8,1-1.1
					s0.9-0.4,1.4-0.4c0.5,0,1,0.1,1.4,0.4c0.4,0.3,0.7,0.6,0.9,1.1c0.2,0.5,0.3,1,0.3,1.6c0,0.6-0.1,1.1-0.3,1.6
					c-0.2,0.5-0.5,0.8-0.9,1.1c-0.4,0.3-0.9,0.4-1.4,0.4C135.4,143.2,134.9,143.1,134.5,142.8z M137.4,141.9c0.3-0.4,0.5-1,0.5-1.8
					c0-0.8-0.2-1.4-0.5-1.8c-0.3-0.4-0.8-0.6-1.4-0.6c-0.6,0-1.1,0.2-1.4,0.6c-0.3,0.4-0.5,1-0.5,1.8c0,0.8,0.2,1.4,0.5,1.8
					c0.3,0.4,0.8,0.6,1.4,0.6S137,142.4,137.4,141.9z"/>
				<path class="st8" d="M143.3,137.1l0,0.6c-0.1,0-0.3,0-0.5,0c-0.6,0-1,0.2-1.3,0.6c-0.3,0.4-0.4,0.8-0.4,1.4v3.5h-0.7v-4.3
					c0-0.6,0-1.2-0.1-1.6h0.7l0.1,1.1c0.1-0.4,0.4-0.7,0.7-0.9c0.3-0.2,0.7-0.3,1.1-0.3C143,137.1,143.2,137.1,143.3,137.1z"/>
				<path class="st8" d="M145.3,134.8v0.9h-1v-0.9H145.3z M144.4,137.2h0.7v5.9h-0.7V137.2z"/>
				<path class="st8" d="M148.2,137.8v3.5c0,0.5,0.1,0.8,0.3,1c0.2,0.2,0.4,0.3,0.8,0.3c0.2,0,0.4,0,0.6-0.1v0.6
					c-0.3,0.1-0.5,0.1-0.8,0.1c-0.5,0-0.9-0.1-1.2-0.4c-0.3-0.3-0.4-0.7-0.4-1.3v-3.6h-1.2v-0.6h1.2v-1.6l0.7-0.3v1.8h1.7v0.6H148.2
					z"/>
				<path class="st8" d="M152,134.8v0.9h-1v-0.9H152z M151.2,137.2h0.7v5.9h-0.7V137.2z"/>
				<path class="st8" d="M158.5,142.5v0.6h-4.9v-0.5l3.9-4.8h-3.8v-0.6h4.6v0.5l-3.9,4.8H158.5z"/>
				<path class="st8" d="M160.3,140.1L160.3,140.1c0,0.8,0.2,1.4,0.5,1.9c0.4,0.4,0.9,0.6,1.6,0.6c0.7,0,1.4-0.2,1.9-0.7l0.3,0.6
					c-0.3,0.2-0.6,0.4-1,0.6c-0.4,0.1-0.8,0.2-1.2,0.2c-0.9,0-1.6-0.3-2.1-0.8s-0.8-1.3-0.8-2.2c0-0.6,0.1-1.1,0.3-1.6
					c0.2-0.5,0.6-0.8,1-1.1s0.9-0.4,1.4-0.4c0.8,0,1.4,0.3,1.8,0.8c0.4,0.5,0.7,1.2,0.7,2.1v0.2H160.3z M161,138.2
					c-0.3,0.3-0.5,0.8-0.6,1.4h3.7c0-0.6-0.2-1.1-0.5-1.4c-0.3-0.3-0.7-0.5-1.3-0.5C161.8,137.7,161.3,137.8,161,138.2z"/>
				<path class="st8" d="M171.4,134.5v8.7h-0.7V142c-0.2,0.4-0.4,0.7-0.8,0.9c-0.3,0.2-0.8,0.3-1.3,0.3c-0.5,0-1-0.1-1.4-0.4
					c-0.4-0.3-0.7-0.6-0.9-1.1c-0.2-0.5-0.3-1-0.3-1.6c0-0.6,0.1-1.1,0.3-1.6c0.2-0.5,0.5-0.8,0.9-1.1c0.4-0.2,0.9-0.4,1.4-0.4
					c0.5,0,0.9,0.1,1.2,0.3c0.3,0.2,0.6,0.5,0.8,0.9v-3.8H171.4z M170.1,141.9c0.3-0.4,0.5-1,0.5-1.8c0-0.8-0.2-1.4-0.5-1.8
					c-0.3-0.4-0.8-0.6-1.4-0.6c-0.6,0-1.1,0.2-1.5,0.6c-0.3,0.4-0.5,1-0.5,1.8c0,0.8,0.2,1.4,0.5,1.8c0.3,0.4,0.8,0.6,1.4,0.6
					S169.8,142.4,170.1,141.9z"/>
				<path class="st8" d="M177.4,137.8v3.5c0,0.5,0.1,0.8,0.3,1c0.2,0.2,0.4,0.3,0.8,0.3c0.2,0,0.4,0,0.6-0.1v0.6
					c-0.3,0.1-0.5,0.1-0.8,0.1c-0.5,0-0.9-0.1-1.2-0.4c-0.3-0.3-0.4-0.7-0.4-1.3v-3.6h-1.2v-0.6h1.2v-1.6l0.7-0.3v1.8h1.7v0.6H177.4
					z"/>
				<path class="st8" d="M181.4,142.8c-0.4-0.3-0.7-0.6-1-1.1c-0.2-0.5-0.3-1-0.3-1.6c0-0.6,0.1-1.1,0.3-1.6c0.2-0.5,0.5-0.8,1-1.1
					s0.9-0.4,1.4-0.4c0.5,0,1,0.1,1.4,0.4c0.4,0.3,0.7,0.6,0.9,1.1c0.2,0.5,0.3,1,0.3,1.6c0,0.6-0.1,1.1-0.3,1.6
					c-0.2,0.5-0.5,0.8-0.9,1.1c-0.4,0.3-0.9,0.4-1.4,0.4C182.3,143.2,181.8,143.1,181.4,142.8z M184.2,141.9c0.3-0.4,0.5-1,0.5-1.8
					c0-0.8-0.2-1.4-0.5-1.8c-0.3-0.4-0.8-0.6-1.4-0.6c-0.6,0-1.1,0.2-1.4,0.6c-0.3,0.4-0.5,1-0.5,1.8c0,0.8,0.2,1.4,0.5,1.8
					c0.3,0.4,0.8,0.6,1.4,0.6S183.9,142.4,184.2,141.9z"/>
				<path class="st8" d="M199,137.2l-2.1,5.9h-0.7l-1.8-5l-1.8,5h-0.8l-2.1-5.9h0.8l1.7,5l1.8-5h0.7l1.8,5l1.8-5H199z"/>
				<path class="st8" d="M201.2,142.8c-0.4-0.3-0.7-0.6-1-1.1c-0.2-0.5-0.3-1-0.3-1.6c0-0.6,0.1-1.1,0.3-1.6c0.2-0.5,0.5-0.8,1-1.1
					s0.9-0.4,1.4-0.4c0.5,0,1,0.1,1.4,0.4c0.4,0.3,0.7,0.6,0.9,1.1c0.2,0.5,0.3,1,0.3,1.6c0,0.6-0.1,1.1-0.3,1.6
					c-0.2,0.5-0.5,0.8-0.9,1.1c-0.4,0.3-0.9,0.4-1.4,0.4C202.1,143.2,201.7,143.1,201.2,142.8z M204.1,141.9c0.3-0.4,0.5-1,0.5-1.8
					c0-0.8-0.2-1.4-0.5-1.8c-0.3-0.4-0.8-0.6-1.4-0.6c-0.6,0-1.1,0.2-1.4,0.6c-0.3,0.4-0.5,1-0.5,1.8c0,0.8,0.2,1.4,0.5,1.8
					c0.3,0.4,0.8,0.6,1.4,0.6S203.8,142.4,204.1,141.9z"/>
				<path class="st8" d="M210.1,137.1l0,0.6c-0.1,0-0.3,0-0.5,0c-0.6,0-1,0.2-1.3,0.6c-0.3,0.4-0.4,0.8-0.4,1.4v3.5H207v-4.3
					c0-0.6,0-1.2-0.1-1.6h0.7l0.1,1.1c0.1-0.4,0.4-0.7,0.7-0.9c0.3-0.2,0.7-0.3,1.1-0.3C209.7,137.1,209.9,137.1,210.1,137.1z"/>
				<path class="st8" d="M215.1,143.1l-3.2-2.9v2.9h-0.7v-8.7h0.7v5.5l3-2.7h0.9l-3.1,2.8l3.4,3.1H215.1z"/>
				<path class="st8" d="M228.9,137.2l-2.1,5.9H226l-1.8-5l-1.8,5h-0.8l-2.1-5.9h0.8l1.7,5l1.8-5h0.7l1.8,5l1.8-5H228.9z"/>
				<path class="st8" d="M231.2,134.8v0.9h-1v-0.9H231.2z M230.3,137.2h0.7v5.9h-0.7V137.2z"/>
				<path class="st8" d="M234.1,137.8v3.5c0,0.5,0.1,0.8,0.3,1s0.4,0.3,0.8,0.3c0.2,0,0.4,0,0.6-0.1v0.6c-0.3,0.1-0.5,0.1-0.8,0.1
					c-0.5,0-0.9-0.1-1.2-0.4c-0.3-0.3-0.4-0.7-0.4-1.3v-3.6h-1.2v-0.6h1.2v-1.6l0.7-0.3v1.8h1.7v0.6H234.1z"/>
				<path class="st8" d="M242,139.4v3.8h-0.7v-3.7c0-0.6-0.1-1-0.4-1.3s-0.6-0.4-1.1-0.4c-0.6,0-1.1,0.2-1.4,0.5
					c-0.4,0.4-0.5,0.8-0.5,1.5v3.4h-0.7v-8.7h0.7v3.8c0.2-0.4,0.5-0.7,0.8-0.9c0.4-0.2,0.8-0.3,1.2-0.3
					C241.3,137.1,242,137.9,242,139.4z"/>
				<path class="st8" d="M246,144.6c0.4,0.1,0.6,0.1,0.8,0.1c0.4,0,0.7-0.1,0.9-0.4c0.2-0.2,0.3-0.6,0.3-1.2v-8.3h0.7v8.4
					c0,0.8-0.1,1.3-0.4,1.7s-0.7,0.5-1.3,0.5c-0.3,0-0.6,0-1-0.1V144.6z"/>
				<path class="st8" d="M256.3,140.9h-4.5l-1,2.2h-0.8l3.6-8.4h0.7l3.6,8.4h-0.8L256.3,140.9z M256.1,140.3l-2-4.6l-2,4.6H256.1z"
					/>
				<path class="st8" d="M265.2,139.5c0.3,0.3,0.4,0.8,0.4,1.3c0,0.7-0.2,1.3-0.7,1.7c-0.5,0.4-1.2,0.6-2,0.6h-3.4v-8.4h3.2
					c0.9,0,1.5,0.2,2,0.6s0.7,0.9,0.7,1.6c0,0.5-0.1,0.8-0.3,1.2c-0.2,0.3-0.6,0.6-1,0.7C264.5,139,264.9,139.2,265.2,139.5z
					 M260.2,138.5h2.4c0.7,0,1.2-0.1,1.5-0.4s0.5-0.7,0.5-1.2c0-1-0.7-1.6-2-1.6h-2.4V138.5z M264.3,142.1c0.3-0.3,0.5-0.7,0.5-1.2
					c0-1.1-0.7-1.7-2.1-1.7h-2.6v3.3h2.6C263.5,142.5,264,142.4,264.3,142.1z"/>
			</g>
		</g>
		<rect x="99" y="112.7" class="st1" width="0.8" height="25.3"/>
		<g>
			<g>
				<circle class="st1" cx="99.3" cy="115.6" r="8.9"/>
			</g>
			<g>
				<path class="st4" d="M101.2,113.1c-0.3,0-0.5-0.2-0.5-0.5v-2.9h-4.5c-0.6,0-1.2,0.5-1.2,1.2v9.3c0,0.6,0.5,1.2,1.2,1.2h6.8
					c0.6,0,1.2-0.5,1.2-1.2v-7.1H101.2z"/>
			</g>
			<path class="st5" d="M101.2,113.1h3l-3.4-3.4v3C100.8,112.9,100.9,113.1,101.2,113.1z"/>
			<polygon class="st2" points="104.1,115.6 104.1,113.2 101.2,113.2 			"/>
		</g>
	</g>
	<rect x="49.2" class="st9" width="351.6" height="291.5"/>
	<g>
		<polygon class="st1" points="49.2,282.9 37.5,267.6 49.2,267.6 		"/>
		<polygon class="st1" points="400.8,282.9 412.5,267.6 400.8,267.6 		"/>
		<rect x="49.2" y="259.2" class="st10" width="351.6" height="14.5"/>
	</g>
	<rect x="37.5" y="158.8" class="st2" width="375" height="108.4"/>
	<g>
		<g>
			<path class="st8" d="M98.3,226.8c-0.6-0.2-1.2-0.6-1.6-1l0.4-0.7c0.5,0.4,1,0.8,1.5,1c0.5,0.2,1.1,0.3,1.9,0.3
				c0.9,0,1.5-0.2,2-0.5c0.5-0.4,0.7-0.8,0.7-1.5c0-0.4-0.1-0.7-0.4-0.9c-0.2-0.2-0.5-0.4-0.9-0.6c-0.4-0.1-0.8-0.3-1.4-0.4
				c-0.8-0.2-1.4-0.4-1.9-0.5c-0.5-0.2-0.9-0.5-1.2-0.8c-0.3-0.4-0.5-0.9-0.5-1.5c0-0.6,0.1-1.1,0.4-1.5c0.3-0.4,0.7-0.8,1.3-1
				s1.2-0.4,1.9-0.4c0.7,0,1.3,0.1,1.9,0.3c0.6,0.2,1.1,0.6,1.5,1l-0.4,0.7c-0.5-0.4-1-0.7-1.5-0.9c-0.5-0.2-1-0.3-1.6-0.3
				c-0.9,0-1.5,0.2-2,0.6c-0.5,0.4-0.7,0.9-0.7,1.5c0,0.6,0.2,1,0.6,1.3c0.4,0.3,1,0.5,1.8,0.7l0.4,0.1c0.8,0.2,1.4,0.4,1.8,0.5
				s0.8,0.4,1.1,0.8c0.3,0.3,0.5,0.8,0.5,1.4c0,0.6-0.1,1-0.4,1.5c-0.3,0.4-0.7,0.8-1.3,1c-0.5,0.2-1.2,0.4-1.9,0.4
				C99.6,227.1,98.9,227,98.3,226.8z"/>
			<path class="st8" d="M106.5,223.3L106.5,223.3c0,1,0.2,1.7,0.7,2.3s1.1,0.8,1.9,0.8c0.9,0,1.6-0.3,2.4-0.9l0.3,0.7
				c-0.3,0.3-0.7,0.5-1.2,0.7c-0.5,0.2-1,0.3-1.5,0.3c-1.1,0-1.9-0.3-2.6-1s-0.9-1.6-0.9-2.7c0-0.7,0.1-1.4,0.4-2s0.7-1,1.2-1.3
				s1.1-0.5,1.7-0.5c0.9,0,1.7,0.3,2.2,0.9s0.8,1.5,0.8,2.5v0.2H106.5z M107.3,221c-0.4,0.4-0.7,1-0.8,1.7h4.5
				c-0.1-0.7-0.3-1.3-0.6-1.7c-0.4-0.4-0.9-0.6-1.5-0.6C108.2,220.4,107.7,220.6,107.3,221z"/>
			<path class="st8" d="M115,226.6c-0.5-0.3-0.9-0.7-1.2-1.3c-0.3-0.6-0.4-1.2-0.4-1.9c0-0.7,0.1-1.4,0.4-2c0.3-0.6,0.7-1,1.2-1.3
				s1.1-0.5,1.8-0.5c0.5,0,1,0.1,1.4,0.2s0.8,0.4,1.1,0.7l-0.3,0.7c-0.4-0.3-0.7-0.5-1.1-0.7c-0.3-0.1-0.7-0.2-1.1-0.2
				c-0.8,0-1.4,0.3-1.8,0.8s-0.7,1.3-0.7,2.2c0,0.9,0.2,1.6,0.7,2.1c0.4,0.5,1.1,0.8,1.8,0.8c0.4,0,0.7-0.1,1.1-0.2
				c0.3-0.1,0.7-0.4,1.1-0.7l0.3,0.7c-0.3,0.3-0.7,0.5-1.1,0.7c-0.5,0.2-0.9,0.3-1.4,0.3C116.1,227.1,115.5,227,115,226.6z"/>
			<path class="st8" d="M126.7,219.8v7.2h-0.8v-1.3c-0.2,0.5-0.6,0.8-1,1c-0.4,0.2-0.9,0.4-1.4,0.4c-0.8,0-1.5-0.2-1.9-0.7
				c-0.4-0.5-0.6-1.2-0.6-2.1v-4.5h0.9v4.4c0,0.7,0.1,1.2,0.4,1.6s0.7,0.5,1.3,0.5c0.7,0,1.3-0.2,1.7-0.7c0.4-0.4,0.6-1,0.6-1.8
				v-4.1H126.7z"/>
			<path class="st8" d="M132.8,219.7l0,0.8c-0.2,0-0.4-0.1-0.7-0.1c-0.7,0-1.3,0.2-1.6,0.7c-0.4,0.5-0.5,1-0.5,1.7v4.2h-0.9v-5.2
				c0-0.7,0-1.4-0.1-2h0.8l0.1,1.3c0.2-0.5,0.5-0.9,0.9-1.1c0.4-0.3,0.9-0.4,1.4-0.4C132.5,219.7,132.7,219.7,132.8,219.7z"/>
			<path class="st8" d="M135.2,216.9v1.1h-1.2v-1.1H135.2z M134.2,219.8h0.9v7.2h-0.9V219.8z"/>
			<path class="st8" d="M138.7,220.5v4.3c0,0.6,0.1,1,0.3,1.2s0.5,0.3,1,0.3c0.3,0,0.5,0,0.8-0.1v0.8c-0.3,0.1-0.6,0.1-0.9,0.1
				c-0.6,0-1.1-0.2-1.5-0.5c-0.4-0.4-0.5-0.9-0.5-1.6v-4.4h-1.4v-0.7h1.4v-1.9l0.9-0.3v2.2h2.1v0.7H138.7z"/>
			<path class="st8" d="M148.6,219.8l-3.4,7.9c-0.3,0.8-0.8,1.4-1.3,1.7s-1.1,0.6-1.9,0.8l-0.2-0.7c0.7-0.2,1.2-0.4,1.6-0.6
				c0.3-0.3,0.6-0.7,0.9-1.2l0.3-0.7l-3.1-7.2h0.9l2.6,6.3l2.6-6.3H148.6z"/>
			<path class="st8" d="M160.6,224.3h-5.5l-1.2,2.7H153l4.4-10.2h0.8l4.4,10.2h-0.9L160.6,224.3z M160.2,223.5l-2.4-5.6l-2.4,5.6
				H160.2z"/>
			<path class="st8" d="M170,219.8v7.2h-0.8v-1.3c-0.2,0.5-0.6,0.8-1,1c-0.4,0.2-0.9,0.4-1.4,0.4c-0.8,0-1.5-0.2-1.9-0.7
				c-0.4-0.5-0.6-1.2-0.6-2.1v-4.5h0.9v4.4c0,0.7,0.1,1.2,0.4,1.6s0.7,0.5,1.3,0.5c0.7,0,1.3-0.2,1.7-0.7c0.4-0.4,0.6-1,0.6-1.8
				v-4.1H170z"/>
			<path class="st8" d="M173.7,220.5v4.3c0,0.6,0.1,1,0.3,1.2s0.5,0.3,1,0.3c0.3,0,0.5,0,0.8-0.1v0.8c-0.3,0.1-0.6,0.1-0.9,0.1
				c-0.6,0-1.1-0.2-1.5-0.5c-0.4-0.4-0.5-0.9-0.5-1.6v-4.4h-1.4v-0.7h1.4v-1.9l0.9-0.3v2.2h2.1v0.7H173.7z"/>
			<path class="st8" d="M183.3,222.4v4.6h-0.9v-4.5c0-0.7-0.1-1.2-0.4-1.6s-0.7-0.5-1.4-0.5c-0.7,0-1.3,0.2-1.7,0.7
				c-0.4,0.4-0.7,1-0.7,1.8v4.1h-0.9v-10.5h0.9v4.6c0.2-0.5,0.6-0.8,1-1.1c0.4-0.2,0.9-0.4,1.5-0.4
				C182.4,219.7,183.3,220.6,183.3,222.4z"/>
			<path class="st8" d="M186.8,226.6c-0.5-0.3-0.9-0.7-1.2-1.3s-0.4-1.2-0.4-2s0.1-1.4,0.4-2c0.3-0.6,0.7-1,1.2-1.3
				c0.5-0.3,1.1-0.5,1.7-0.5c0.6,0,1.2,0.2,1.7,0.5c0.5,0.3,0.9,0.7,1.2,1.3c0.3,0.6,0.4,1.2,0.4,2s-0.1,1.4-0.4,2s-0.7,1-1.2,1.3
				c-0.5,0.3-1.1,0.5-1.7,0.5C187.9,227.1,187.3,227,186.8,226.6z M190.3,225.6c0.4-0.5,0.6-1.2,0.6-2.2c0-0.9-0.2-1.7-0.6-2.2
				c-0.4-0.5-1-0.8-1.7-0.8c-0.8,0-1.3,0.3-1.8,0.8c-0.4,0.5-0.6,1.2-0.6,2.2c0,1,0.2,1.7,0.6,2.2c0.4,0.5,1,0.8,1.8,0.8
				C189.3,226.3,189.9,226.1,190.3,225.6z"/>
			<path class="st8" d="M197.5,219.7l0,0.8c-0.2,0-0.4-0.1-0.7-0.1c-0.7,0-1.3,0.2-1.6,0.7c-0.4,0.5-0.5,1-0.5,1.7v4.2h-0.9v-5.2
				c0-0.7,0-1.4-0.1-2h0.8l0.1,1.3c0.2-0.5,0.5-0.9,0.9-1.1c0.4-0.3,0.9-0.4,1.4-0.4C197.1,219.7,197.3,219.7,197.5,219.7z"/>
			<path class="st8" d="M199.9,216.9v1.1h-1.2v-1.1H199.9z M198.9,219.8h0.9v7.2h-0.9V219.8z"/>
			<path class="st8" d="M207.7,226.3v0.7h-6v-0.6l4.8-5.9h-4.6v-0.7h5.6v0.7l-4.7,5.8H207.7z"/>
			<path class="st8" d="M215.6,219.8v7.2h-0.9v-1.4c-0.2,0.5-0.5,0.8-1,1.1c-0.4,0.3-0.9,0.4-1.5,0.4c-0.6,0-1.2-0.2-1.7-0.5
				c-0.5-0.3-0.9-0.7-1.1-1.3c-0.3-0.6-0.4-1.2-0.4-2c0-0.7,0.1-1.4,0.4-2s0.6-1,1.1-1.3s1-0.5,1.7-0.5c0.6,0,1.1,0.1,1.5,0.4
				c0.4,0.2,0.7,0.6,1,1.1v-1.3H215.6z M214.1,225.6c0.4-0.5,0.6-1.2,0.6-2.2c0-0.9-0.2-1.7-0.6-2.2s-1-0.8-1.7-0.8
				s-1.3,0.3-1.8,0.8c-0.4,0.5-0.6,1.3-0.6,2.2c0,0.9,0.2,1.6,0.6,2.2c0.4,0.5,1,0.8,1.8,0.8C213.1,226.3,213.7,226.1,214.1,225.6z"
				/>
			<path class="st8" d="M219.2,220.5v4.3c0,0.6,0.1,1,0.3,1.2s0.5,0.3,1,0.3c0.3,0,0.5,0,0.8-0.1v0.8c-0.3,0.1-0.6,0.1-0.9,0.1
				c-0.6,0-1.1-0.2-1.5-0.5c-0.4-0.4-0.5-0.9-0.5-1.6v-4.4H217v-0.7h1.4v-1.9l0.9-0.3v2.2h2.1v0.7H219.2z"/>
			<path class="st8" d="M223.9,216.9v1.1h-1.2v-1.1H223.9z M222.9,219.8h0.9v7.2h-0.9V219.8z"/>
			<path class="st8" d="M227.4,226.6c-0.5-0.3-0.9-0.7-1.2-1.3c-0.3-0.6-0.4-1.2-0.4-2s0.1-1.4,0.4-2c0.3-0.6,0.7-1,1.2-1.3
				c0.5-0.3,1.1-0.5,1.7-0.5c0.6,0,1.2,0.2,1.7,0.5c0.5,0.3,0.9,0.7,1.2,1.3c0.3,0.6,0.4,1.2,0.4,2s-0.1,1.4-0.4,2
				c-0.3,0.6-0.7,1-1.2,1.3c-0.5,0.3-1.1,0.5-1.7,0.5C228.4,227.1,227.9,227,227.4,226.6z M230.8,225.6c0.4-0.5,0.6-1.2,0.6-2.2
				c0-0.9-0.2-1.7-0.6-2.2c-0.4-0.5-1-0.8-1.7-0.8c-0.8,0-1.3,0.3-1.8,0.8c-0.4,0.5-0.6,1.2-0.6,2.2c0,1,0.2,1.7,0.6,2.2
				c0.4,0.5,1,0.8,1.8,0.8S230.4,226.1,230.8,225.6z"/>
			<path class="st8" d="M240.3,222.4v4.6h-0.9v-4.5c0-0.7-0.1-1.2-0.4-1.6c-0.3-0.3-0.7-0.5-1.4-0.5c-0.7,0-1.3,0.2-1.7,0.7
				s-0.7,1-0.7,1.8v4.1h-0.9v-5.2c0-0.7,0-1.4-0.1-2h0.8l0.1,1.3c0.2-0.5,0.5-0.9,1-1.1s0.9-0.4,1.5-0.4
				C239.4,219.7,240.3,220.6,240.3,222.4z"/>
			<path class="st8" d="M246.5,216.8h3.9c1,0,1.8,0.2,2.4,0.7c0.6,0.5,0.9,1.2,0.9,2c0,0.9-0.3,1.6-0.9,2.1
				c-0.6,0.5-1.4,0.8-2.4,0.8h-3v4.6h-0.9V216.8z M250.4,221.7c0.8,0,1.4-0.2,1.8-0.5c0.4-0.4,0.6-0.9,0.6-1.5
				c0-0.6-0.2-1.1-0.6-1.5c-0.4-0.4-1-0.5-1.8-0.5h-3v4.1H250.4z"/>
			<path class="st8" d="M261.6,219.8v7.2h-0.9v-1.4c-0.2,0.5-0.5,0.8-1,1.1c-0.4,0.3-0.9,0.4-1.5,0.4c-0.6,0-1.2-0.2-1.7-0.5
				c-0.5-0.3-0.9-0.7-1.1-1.3c-0.3-0.6-0.4-1.2-0.4-2c0-0.7,0.1-1.4,0.4-2s0.6-1,1.1-1.3s1-0.5,1.7-0.5c0.6,0,1.1,0.1,1.5,0.4
				c0.4,0.2,0.7,0.6,1,1.1v-1.3H261.6z M260.1,225.6c0.4-0.5,0.6-1.2,0.6-2.2c0-0.9-0.2-1.7-0.6-2.2c-0.4-0.5-1-0.8-1.7-0.8
				c-0.8,0-1.3,0.3-1.8,0.8s-0.6,1.3-0.6,2.2c0,0.9,0.2,1.6,0.6,2.2s1,0.8,1.8,0.8C259.1,226.3,259.7,226.1,260.1,225.6z"/>
			<path class="st8" d="M265.1,226.6c-0.5-0.3-0.9-0.7-1.2-1.3c-0.3-0.6-0.4-1.2-0.4-1.9c0-0.7,0.1-1.4,0.4-2c0.3-0.6,0.7-1,1.2-1.3
				c0.5-0.3,1.1-0.5,1.8-0.5c0.5,0,1,0.1,1.4,0.2s0.8,0.4,1.1,0.7l-0.3,0.7c-0.4-0.3-0.7-0.5-1.1-0.7c-0.3-0.1-0.7-0.2-1.1-0.2
				c-0.8,0-1.4,0.3-1.8,0.8s-0.7,1.3-0.7,2.2c0,0.9,0.2,1.6,0.7,2.1c0.4,0.5,1.1,0.8,1.8,0.8c0.4,0,0.7-0.1,1.1-0.2
				c0.3-0.1,0.7-0.4,1.1-0.7l0.3,0.7c-0.3,0.3-0.7,0.5-1.1,0.7c-0.5,0.2-0.9,0.3-1.4,0.3C266.2,227.1,265.6,227,265.1,226.6z"/>
			<path class="st8" d="M275.9,227l-3.9-3.5v3.5h-0.9v-10.5h0.9v6.7l3.6-3.3h1.1l-3.7,3.4l4.1,3.7H275.9z"/>
			<path class="st8" d="M284.2,219.8v7.2h-0.9v-1.4c-0.2,0.5-0.5,0.8-1,1.1c-0.4,0.3-0.9,0.4-1.5,0.4c-0.6,0-1.2-0.2-1.7-0.5
				c-0.5-0.3-0.9-0.7-1.1-1.3c-0.3-0.6-0.4-1.2-0.4-2c0-0.7,0.1-1.4,0.4-2s0.6-1,1.1-1.3s1-0.5,1.7-0.5c0.6,0,1.1,0.1,1.5,0.4
				c0.4,0.2,0.7,0.6,1,1.1v-1.3H284.2z M282.7,225.6c0.4-0.5,0.6-1.2,0.6-2.2c0-0.9-0.2-1.7-0.6-2.2c-0.4-0.5-1-0.8-1.7-0.8
				c-0.8,0-1.3,0.3-1.8,0.8s-0.6,1.3-0.6,2.2c0,0.9,0.2,1.6,0.6,2.2s1,0.8,1.8,0.8C281.8,226.3,282.3,226.1,282.7,225.6z"/>
			<path class="st8" d="M292.8,219.8v7.2c0,1-0.3,1.8-0.8,2.4c-0.5,0.5-1.3,0.8-2.3,0.8c-1.1,0-2-0.3-2.8-0.8l0.2-0.8
				c0.5,0.3,0.9,0.5,1.3,0.6c0.4,0.1,0.8,0.2,1.3,0.2c0.7,0,1.3-0.2,1.6-0.6c0.4-0.4,0.6-1,0.6-1.7v-1.8c-0.2,0.5-0.5,0.9-1,1.1
				c-0.4,0.3-0.9,0.4-1.5,0.4c-0.6,0-1.2-0.2-1.7-0.5c-0.5-0.3-0.9-0.7-1.1-1.3c-0.3-0.5-0.4-1.2-0.4-1.9c0-0.7,0.1-1.3,0.4-1.9
				c0.3-0.5,0.7-1,1.1-1.3s1-0.4,1.7-0.4c0.6,0,1.1,0.1,1.5,0.4c0.4,0.2,0.7,0.6,1,1.1v-1.3H292.8z M291.3,225.3
				c0.4-0.5,0.6-1.2,0.6-2c0-0.9-0.2-1.6-0.6-2.1c-0.4-0.5-1-0.8-1.8-0.8c-0.8,0-1.3,0.2-1.8,0.8c-0.4,0.5-0.6,1.2-0.6,2.1
				c0,0.9,0.2,1.5,0.6,2c0.4,0.5,1,0.7,1.8,0.7C290.3,226,290.9,225.8,291.3,225.3z"/>
			<path class="st8" d="M295.7,223.3L295.7,223.3c0,1,0.2,1.7,0.7,2.3s1.1,0.8,1.9,0.8c0.9,0,1.6-0.3,2.4-0.9l0.3,0.7
				c-0.3,0.3-0.7,0.5-1.2,0.7c-0.5,0.2-1,0.3-1.5,0.3c-1.1,0-1.9-0.3-2.6-1c-0.6-0.7-0.9-1.6-0.9-2.7c0-0.7,0.1-1.4,0.4-2
				s0.7-1,1.2-1.3c0.5-0.3,1.1-0.5,1.7-0.5c0.9,0,1.7,0.3,2.2,0.9s0.8,1.5,0.8,2.5v0.2H295.7z M296.5,221c-0.4,0.4-0.7,1-0.8,1.7
				h4.5c-0.1-0.7-0.3-1.3-0.6-1.7c-0.4-0.4-0.9-0.6-1.5-0.6C297.5,220.4,297,220.6,296.5,221z"/>
			<path class="st8" d="M307.5,226.4c-0.2-1-0.4-2.1-0.4-3.2c0-1.1,0.1-2.2,0.4-3.2s0.6-2.1,1.2-3.2h0.8c-0.5,1.2-0.9,2.3-1.1,3.3
				c-0.2,1-0.3,2.1-0.3,3.1c0,1,0.1,2.1,0.3,3.1c0.2,1,0.6,2.1,1.1,3.3h-0.8C308.2,228.5,307.8,227.5,307.5,226.4z"/>
			<path class="st8" d="M312.3,226.8c-0.6-0.2-1.2-0.6-1.6-1l0.4-0.7c0.5,0.4,1,0.8,1.5,1c0.5,0.2,1.1,0.3,1.9,0.3
				c0.9,0,1.5-0.2,2-0.5c0.5-0.4,0.7-0.8,0.7-1.5c0-0.4-0.1-0.7-0.4-0.9c-0.2-0.2-0.5-0.4-0.9-0.6c-0.4-0.1-0.8-0.3-1.4-0.4
				c-0.8-0.2-1.4-0.4-1.9-0.5c-0.5-0.2-0.9-0.5-1.2-0.8s-0.5-0.9-0.5-1.5c0-0.6,0.1-1.1,0.4-1.5s0.7-0.8,1.3-1
				c0.5-0.2,1.2-0.4,1.9-0.4c0.7,0,1.3,0.1,1.9,0.3c0.6,0.2,1.1,0.6,1.5,1l-0.4,0.7c-0.5-0.4-1-0.7-1.5-0.9c-0.5-0.2-1-0.3-1.6-0.3
				c-0.9,0-1.5,0.2-2,0.6c-0.5,0.4-0.7,0.9-0.7,1.5c0,0.6,0.2,1,0.6,1.3c0.4,0.3,1,0.5,1.8,0.7l0.4,0.1c0.8,0.2,1.4,0.4,1.8,0.5
				s0.8,0.4,1.1,0.8s0.5,0.8,0.5,1.4c0,0.6-0.1,1-0.4,1.5c-0.3,0.4-0.7,0.8-1.3,1c-0.5,0.2-1.2,0.4-1.9,0.4
				C313.7,227.1,313,227,312.3,226.8z"/>
			<path class="st8" d="M321.2,226.8c-0.6-0.2-1.2-0.6-1.6-1l0.4-0.7c0.5,0.4,1,0.8,1.5,1c0.5,0.2,1.1,0.3,1.9,0.3
				c0.9,0,1.5-0.2,2-0.5c0.5-0.4,0.7-0.8,0.7-1.5c0-0.4-0.1-0.7-0.4-0.9c-0.2-0.2-0.5-0.4-0.9-0.6c-0.4-0.1-0.8-0.3-1.4-0.4
				c-0.8-0.2-1.4-0.4-1.9-0.5c-0.5-0.2-0.9-0.5-1.2-0.8s-0.5-0.9-0.5-1.5c0-0.6,0.1-1.1,0.4-1.5s0.7-0.8,1.3-1
				c0.5-0.2,1.2-0.4,1.9-0.4c0.7,0,1.3,0.1,1.9,0.3c0.6,0.2,1.1,0.6,1.5,1l-0.4,0.7c-0.5-0.4-1-0.7-1.5-0.9c-0.5-0.2-1-0.3-1.6-0.3
				c-0.9,0-1.5,0.2-2,0.6c-0.5,0.4-0.7,0.9-0.7,1.5c0,0.6,0.2,1,0.6,1.3c0.4,0.3,1,0.5,1.8,0.7l0.4,0.1c0.8,0.2,1.4,0.4,1.8,0.5
				s0.8,0.4,1.1,0.8s0.5,0.8,0.5,1.4c0,0.6-0.1,1-0.4,1.5c-0.3,0.4-0.7,0.8-1.3,1c-0.5,0.2-1.2,0.4-1.9,0.4
				C322.5,227.1,321.8,227,321.2,226.8z"/>
			<path class="st8" d="M329,216.8h3.9c1,0,1.8,0.2,2.4,0.7c0.6,0.5,0.9,1.2,0.9,2c0,0.9-0.3,1.6-0.9,2.1c-0.6,0.5-1.4,0.8-2.4,0.8
				h-3v4.6H329V216.8z M332.8,221.7c0.8,0,1.4-0.2,1.8-0.5c0.4-0.4,0.6-0.9,0.6-1.5c0-0.6-0.2-1.1-0.6-1.5c-0.4-0.4-1-0.5-1.8-0.5
				h-3v4.1H332.8z"/>
			<path class="st8" d="M338.4,225.8v0.9c0,0.4-0.1,0.7-0.2,1c-0.1,0.3-0.3,0.6-0.6,0.9l-0.5-0.4c0.3-0.4,0.5-0.8,0.5-1.2h-0.6v-1.2
				H338.4z"/>
			<path class="st8" d="M345.5,226.8c-0.6-0.2-1.2-0.6-1.6-1l0.4-0.7c0.5,0.4,1,0.8,1.5,1c0.5,0.2,1.1,0.3,1.9,0.3
				c0.9,0,1.5-0.2,2-0.5c0.5-0.4,0.7-0.8,0.7-1.5c0-0.4-0.1-0.7-0.4-0.9c-0.2-0.2-0.5-0.4-0.9-0.6c-0.4-0.1-0.8-0.3-1.4-0.4
				c-0.8-0.2-1.4-0.4-1.9-0.5c-0.5-0.2-0.9-0.5-1.2-0.8s-0.5-0.9-0.5-1.5c0-0.6,0.1-1.1,0.4-1.5s0.7-0.8,1.3-1
				c0.5-0.2,1.2-0.4,1.9-0.4c0.7,0,1.3,0.1,1.9,0.3c0.6,0.2,1.1,0.6,1.5,1l-0.4,0.7c-0.5-0.4-1-0.7-1.5-0.9c-0.5-0.2-1-0.3-1.6-0.3
				c-0.9,0-1.5,0.2-2,0.6c-0.5,0.4-0.7,0.9-0.7,1.5c0,0.6,0.2,1,0.6,1.3c0.4,0.3,1,0.5,1.8,0.7l0.4,0.1c0.8,0.2,1.4,0.4,1.8,0.5
				s0.8,0.4,1.1,0.8s0.5,0.8,0.5,1.4c0,0.6-0.1,1-0.4,1.5c-0.3,0.4-0.7,0.8-1.3,1c-0.5,0.2-1.2,0.4-1.9,0.4
				C346.9,227.1,346.2,227,345.5,226.8z"/>
			<path class="st8" d="M360,224.3h-5.5l-1.2,2.7h-0.9l4.4-10.2h0.8L362,227h-0.9L360,224.3z M359.6,223.5l-2.4-5.6l-2.4,5.6H359.6z
				"/>
			<path class="st8" d="M363.8,216.8h3.9c1,0,1.8,0.2,2.4,0.7c0.6,0.5,0.9,1.2,0.9,2c0,0.9-0.3,1.6-0.9,2.1
				c-0.6,0.5-1.4,0.8-2.4,0.8h-3v4.6h-0.9V216.8z M367.7,221.7c0.8,0,1.4-0.2,1.8-0.5c0.4-0.4,0.6-0.9,0.6-1.5
				c0-0.6-0.2-1.1-0.6-1.5c-0.4-0.4-1-0.5-1.8-0.5h-3v4.1H367.7z"/>
			<path class="st8" d="M373.2,225.8v0.9c0,0.4-0.1,0.7-0.2,1c-0.1,0.3-0.3,0.6-0.6,0.9l-0.5-0.4c0.3-0.4,0.5-0.8,0.5-1.2H372v-1.2
				H373.2z"/>
			<path class="st8" d="M98.3,244.7c-0.6-0.2-1.2-0.6-1.6-1l0.4-0.7c0.5,0.4,1,0.8,1.5,1c0.5,0.2,1.1,0.3,1.9,0.3
				c0.9,0,1.5-0.2,2-0.5c0.5-0.4,0.7-0.8,0.7-1.5c0-0.4-0.1-0.7-0.4-0.9c-0.2-0.2-0.5-0.4-0.9-0.6c-0.4-0.1-0.8-0.3-1.4-0.4
				c-0.8-0.2-1.4-0.4-1.9-0.5c-0.5-0.2-0.9-0.5-1.2-0.8c-0.3-0.4-0.5-0.9-0.5-1.5c0-0.6,0.1-1.1,0.4-1.5c0.3-0.4,0.7-0.8,1.3-1
				s1.2-0.4,1.9-0.4c0.7,0,1.3,0.1,1.9,0.3c0.6,0.2,1.1,0.6,1.5,1l-0.4,0.7c-0.5-0.4-1-0.7-1.5-0.9c-0.5-0.2-1-0.3-1.6-0.3
				c-0.9,0-1.5,0.2-2,0.6c-0.5,0.4-0.7,0.9-0.7,1.5c0,0.6,0.2,1,0.6,1.3c0.4,0.3,1,0.5,1.8,0.7l0.4,0.1c0.8,0.2,1.4,0.4,1.8,0.5
				s0.8,0.4,1.1,0.8c0.3,0.3,0.5,0.8,0.5,1.4c0,0.6-0.1,1-0.4,1.5c-0.3,0.4-0.7,0.8-1.3,1c-0.5,0.2-1.2,0.4-1.9,0.4
				C99.6,245,98.9,244.9,98.3,244.7z"/>
			<path class="st8" d="M112.7,242.2h-5.5l-1.2,2.7h-0.9l4.4-10.2h0.8l4.4,10.2h-0.9L112.7,242.2z M112.4,241.4l-2.4-5.6l-2.4,5.6
				H112.4z"/>
			<path class="st8" d="M124.4,244.9h-0.9l-1.3-3.4c-0.2-0.5-0.4-0.8-0.7-0.9s-0.7-0.2-1.2-0.2h-2.8v4.5h-0.9v-10.2h3.9
				c1.1,0,1.9,0.2,2.5,0.7c0.6,0.5,0.9,1.2,0.9,2.1c0,0.7-0.2,1.2-0.5,1.7s-0.8,0.8-1.5,0.9c0.3,0,0.5,0.2,0.8,0.4s0.4,0.5,0.5,0.9
				L124.4,244.9z M120.5,239.6c1.7,0,2.5-0.7,2.5-2.1c0-1.3-0.8-2-2.5-2h-3v4.1H120.5z"/>
			<path class="st8" d="M127.5,243.6v0.9c0,0.4-0.1,0.7-0.2,1c-0.1,0.3-0.3,0.6-0.6,0.9l-0.5-0.4c0.3-0.4,0.5-0.8,0.5-1.2h-0.6v-1.2
				H127.5z"/>
			<path class="st8" d="M133.6,234.7h3.9c1,0,1.8,0.2,2.4,0.7c0.6,0.5,0.9,1.2,0.9,2c0,0.9-0.3,1.6-0.9,2.1
				c-0.6,0.5-1.4,0.8-2.4,0.8h-3v4.6h-0.9V234.7z M137.5,239.5c0.8,0,1.4-0.2,1.8-0.5s0.6-0.9,0.6-1.5c0-0.6-0.2-1.1-0.6-1.5
				s-1-0.5-1.8-0.5h-3v4.1H137.5z"/>
			<path class="st8" d="M144.5,244.4c-0.7-0.4-1.2-1-1.6-1.8s-0.6-1.7-0.6-2.8c0-1.1,0.2-2,0.5-2.8s0.9-1.4,1.6-1.8
				c0.7-0.4,1.5-0.6,2.4-0.6s1.7,0.2,2.4,0.6c0.7,0.4,1.2,1,1.6,1.8c0.4,0.8,0.5,1.7,0.5,2.8s-0.2,2-0.6,2.8
				c-0.4,0.8-0.9,1.4-1.6,1.8s-1.5,0.6-2.4,0.6C146,245,145.2,244.8,144.5,244.4z M149.6,243.1c0.6-0.8,1-1.9,1-3.3
				s-0.3-2.5-0.9-3.3s-1.5-1.1-2.7-1.1c-1.1,0-2,0.4-2.7,1.2c-0.6,0.8-1,1.9-1,3.3c0,1.4,0.3,2.5,1,3.3s1.5,1.2,2.7,1.2
				C148,244.2,148.9,243.8,149.6,243.1z"/>
			<path class="st8" d="M160.2,242.2h-5.5l-1.2,2.7h-0.9l4.4-10.2h0.8l4.4,10.2h-0.9L160.2,242.2z M159.8,241.4l-2.4-5.6l-2.4,5.6
				H159.8z"/>
			<path class="st8" d="M172.2,244.4l-0.5,0.6c-0.8-0.4-1.4-0.9-1.9-1.4c-0.4,0.5-0.9,0.8-1.4,1c-0.5,0.2-1.1,0.4-1.7,0.4
				c-0.6,0-1.2-0.1-1.7-0.3s-0.9-0.5-1.1-0.9c-0.3-0.4-0.4-0.9-0.4-1.4c0-0.6,0.2-1.2,0.6-1.7c0.4-0.5,1-1,1.9-1.5
				c-0.5-0.6-0.8-1-1-1.4s-0.3-0.7-0.3-1.1c0-0.6,0.2-1.2,0.7-1.6s1-0.6,1.7-0.6c0.7,0,1.2,0.2,1.6,0.5c0.4,0.4,0.6,0.8,0.6,1.4
				c0,0.5-0.2,0.9-0.5,1.3c-0.3,0.4-0.9,0.9-1.7,1.4l2.6,3c0.5-0.9,0.7-2,0.7-3.3h0.8c0,1.6-0.4,2.9-1,3.9
				C170.8,243.5,171.4,244,172.2,244.4z M169.3,243l-2.8-3.3c-0.8,0.5-1.3,0.9-1.6,1.3c-0.3,0.4-0.5,0.8-0.5,1.3
				c0,0.6,0.2,1,0.6,1.4c0.4,0.3,1,0.5,1.7,0.5C167.8,244.2,168.6,243.8,169.3,243z M165.8,237.6c0.1,0.3,0.4,0.6,0.8,1.1
				c0.7-0.4,1.2-0.8,1.4-1.1c0.3-0.3,0.4-0.6,0.4-1c0-0.4-0.1-0.7-0.4-0.9c-0.2-0.2-0.6-0.4-1-0.4c-0.4,0-0.8,0.1-1.1,0.4
				c-0.3,0.3-0.4,0.6-0.4,1C165.6,237,165.7,237.3,165.8,237.6z"/>
			<path class="st8" d="M183.1,234.7v10.2h-0.8v-8.2l-3.6,8.2H178l-3.6-8.1l0,8.1h-0.8v-10.2h0.7l4,9.1l4-9.1H183.1z"/>
			<path class="st8" d="M184.9,247.5c0.5-1.2,0.9-2.3,1.1-3.3c0.2-1,0.3-2.1,0.3-3.1c0-1-0.1-2.1-0.3-3.1c-0.2-1-0.6-2.1-1.1-3.3
				h0.8c0.5,1.1,0.9,2.1,1.2,3.2c0.2,1,0.4,2.1,0.4,3.2c0,1.1-0.1,2.2-0.4,3.2c-0.2,1-0.6,2.1-1.2,3.2H184.9z"/>
		</g>
	</g>
	<g>
		<g>
			<path class="st1" d="M64.6,184.5v3.9h5.7v1.4h-5.7v4.6H63v-11.3h8v1.4H64.6z"/>
			<path class="st1" d="M80.9,185.8v8.5h-1.5v-1.3c-0.6,0.9-1.7,1.4-2.9,1.4c-2.2,0-3.7-1.2-3.7-3.7v-4.9h1.5v4.7
				c0,1.7,0.8,2.5,2.3,2.5c1.6,0,2.6-1,2.6-2.8v-4.4H80.9z"/>
			<path class="st1" d="M84,182.4h1.5v11.9H84V182.4z"/>
			<path class="st1" d="M88.6,182.4h1.5v11.9h-1.5V182.4z"/>
			<path class="st1" d="M96.9,193.1l0.6-1.3c0.8,0.8,2.3,1.3,3.7,1.3c1.9,0,2.8-0.8,2.8-1.7c0-2.8-6.8-1-6.8-5.2
				c0-1.7,1.4-3.2,4.3-3.2c1.3,0,2.7,0.4,3.6,1l-0.5,1.3c-1-0.6-2.1-0.9-3.1-0.9c-1.9,0-2.7,0.8-2.7,1.8c0,2.8,6.8,1,6.8,5.2
				c0,1.7-1.4,3.2-4.4,3.2C99.5,194.5,97.9,193.9,96.9,193.1z"/>
			<path class="st1" d="M115.6,190.6h-6.9c0.2,1.5,1.4,2.5,3.1,2.5c1,0,1.8-0.3,2.5-1l0.9,1c-0.8,0.9-1.9,1.4-3.4,1.4
				c-2.8,0-4.6-1.8-4.6-4.4c0-2.5,1.8-4.3,4.3-4.3c2.5,0,4.2,1.8,4.2,4.4C115.6,190.3,115.6,190.5,115.6,190.6z M108.7,189.5h5.5
				c-0.2-1.4-1.2-2.4-2.7-2.4C109.9,187.1,108.8,188.1,108.7,189.5z"/>
			<path class="st1" d="M117.1,190.1c0-2.5,1.9-4.3,4.5-4.3c1.5,0,2.8,0.6,3.5,1.8l-1.2,0.8c-0.5-0.8-1.4-1.2-2.3-1.2
				c-1.7,0-2.9,1.2-2.9,3c0,1.9,1.3,3,2.9,3c0.9,0,1.8-0.4,2.3-1.2l1.2,0.7c-0.7,1.2-1.9,1.8-3.5,1.8
				C119,194.5,117.1,192.7,117.1,190.1z"/>
			<path class="st1" d="M135.2,185.8v8.5h-1.5v-1.3c-0.6,0.9-1.7,1.4-2.9,1.4c-2.2,0-3.7-1.2-3.7-3.7v-4.9h1.5v4.7
				c0,1.7,0.8,2.5,2.3,2.5c1.6,0,2.6-1,2.6-2.8v-4.4H135.2z"/>
			<path class="st1" d="M142.9,185.8v1.5c-0.1,0-0.2,0-0.4,0c-1.7,0-2.7,1-2.7,2.9v4.2h-1.5v-8.5h1.5v1.4
				C140.4,186.3,141.4,185.8,142.9,185.8z"/>
			<path class="st1" d="M144.7,183.2c0-0.6,0.5-1,1-1c0.6,0,1,0.4,1,1c0,0.6-0.4,1-1,1C145.1,184.2,144.7,183.8,144.7,183.2z
				 M145,185.8h1.5v8.5H145V185.8z"/>
			<path class="st1" d="M154.4,193.9c-0.5,0.4-1.2,0.6-1.9,0.6c-1.7,0-2.7-0.9-2.7-2.7v-4.7h-1.4v-1.3h1.4V184h1.5v1.9h2.4v1.3h-2.4
				v4.6c0,0.9,0.5,1.4,1.3,1.4c0.5,0,0.9-0.1,1.2-0.4L154.4,193.9z"/>
			<path class="st1" d="M163.8,185.8l-4.1,9.4c-0.8,1.8-1.7,2.4-3,2.4c-0.8,0-1.7-0.3-2.2-0.8l0.7-1.2c0.4,0.4,1,0.6,1.5,0.6
				c0.7,0,1.2-0.3,1.6-1.3l0.3-0.6l-3.8-8.5h1.6l3,6.8l2.9-6.8H163.8z"/>
			<path class="st1" d="M177.3,191.6h-6l-1.2,2.8h-1.7l5.1-11.3h1.6l5.1,11.3h-1.7L177.3,191.6z M176.8,190.3l-2.4-5.5l-2.4,5.5
				H176.8z"/>
			<path class="st1" d="M180.7,193.5l0.6-1.2c0.7,0.5,1.9,0.9,3,0.9c1.4,0,2-0.4,2-1.2c0-1.9-5.4-0.3-5.4-3.7c0-1.5,1.4-2.6,3.6-2.6
				c1.1,0,2.4,0.3,3.1,0.8l-0.7,1.2c-0.8-0.5-1.6-0.7-2.5-0.7c-1.4,0-2,0.5-2,1.2c0,2,5.4,0.4,5.4,3.7c0,1.5-1.4,2.5-3.7,2.5
				C182.8,194.5,181.4,194,180.7,193.5z"/>
			<path class="st1" d="M188.9,193.5l0.6-1.2c0.7,0.5,1.9,0.9,3,0.9c1.4,0,2-0.4,2-1.2c0-1.9-5.4-0.3-5.4-3.7c0-1.5,1.4-2.6,3.6-2.6
				c1.1,0,2.4,0.3,3.1,0.8l-0.7,1.2c-0.8-0.5-1.6-0.7-2.5-0.7c-1.4,0-2,0.5-2,1.2c0,2,5.4,0.4,5.4,3.7c0,1.5-1.4,2.5-3.7,2.5
				C191,194.5,189.6,194,188.9,193.5z"/>
			<path class="st1" d="M205.9,190.6H199c0.2,1.5,1.4,2.5,3.1,2.5c1,0,1.8-0.3,2.5-1l0.9,1c-0.8,0.9-1.9,1.4-3.4,1.4
				c-2.8,0-4.6-1.8-4.6-4.4c0-2.5,1.8-4.3,4.3-4.3c2.5,0,4.2,1.8,4.2,4.4C205.9,190.3,205.9,190.5,205.9,190.6z M199,189.5h5.5
				c-0.2-1.4-1.2-2.4-2.7-2.4C200.2,187.1,199.2,188.1,199,189.5z"/>
			<path class="st1" d="M207.2,193.5l0.6-1.2c0.7,0.5,1.9,0.9,3,0.9c1.4,0,2-0.4,2-1.2c0-1.9-5.4-0.3-5.4-3.7c0-1.5,1.4-2.6,3.6-2.6
				c1.1,0,2.4,0.3,3.1,0.8l-0.7,1.2c-0.8-0.5-1.6-0.7-2.5-0.7c-1.4,0-2,0.5-2,1.2c0,2,5.4,0.4,5.4,3.7c0,1.5-1.4,2.5-3.7,2.5
				C209.3,194.5,207.9,194,207.2,193.5z"/>
			<path class="st1" d="M215.4,193.5l0.6-1.2c0.7,0.5,1.9,0.9,3,0.9c1.4,0,2-0.4,2-1.2c0-1.9-5.4-0.3-5.4-3.7c0-1.5,1.4-2.6,3.6-2.6
				c1.1,0,2.4,0.3,3.1,0.8l-0.7,1.2c-0.8-0.5-1.6-0.7-2.5-0.7c-1.4,0-2,0.5-2,1.2c0,2,5.4,0.4,5.4,3.7c0,1.5-1.4,2.5-3.7,2.5
				C217.5,194.5,216.1,194,215.4,193.5z"/>
			<path class="st1" d="M238.9,189.5v4.9h-1.5v-4.7c0-1.7-0.8-2.5-2.2-2.5c-1.5,0-2.6,1-2.6,2.8v4.4H231v-4.7c0-1.7-0.8-2.5-2.2-2.5
				c-1.5,0-2.6,1-2.6,2.8v4.4h-1.5v-8.5h1.5v1.3c0.6-0.9,1.7-1.4,2.9-1.4c1.3,0,2.4,0.5,3,1.6c0.6-1,1.8-1.6,3.3-1.6
				C237.4,185.8,238.9,187,238.9,189.5z"/>
			<path class="st1" d="M249.6,190.6h-6.9c0.2,1.5,1.4,2.5,3.1,2.5c1,0,1.8-0.3,2.5-1l0.9,1c-0.8,0.9-1.9,1.4-3.4,1.4
				c-2.8,0-4.6-1.8-4.6-4.4c0-2.5,1.8-4.3,4.3-4.3s4.2,1.8,4.2,4.4C249.6,190.3,249.6,190.5,249.6,190.6z M242.7,189.5h5.5
				c-0.2-1.4-1.2-2.4-2.7-2.4C243.9,187.1,242.8,188.1,242.7,189.5z"/>
			<path class="st1" d="M260,189.5v4.9h-1.5v-4.7c0-1.7-0.8-2.5-2.3-2.5c-1.6,0-2.7,1-2.7,2.8v4.4h-1.5v-8.5h1.5v1.3
				c0.6-0.9,1.7-1.4,3.1-1.4C258.5,185.8,260,187,260,189.5z"/>
			<path class="st1" d="M267.8,193.9c-0.5,0.4-1.2,0.6-1.9,0.6c-1.7,0-2.7-0.9-2.7-2.7v-4.7h-1.4v-1.3h1.4V184h1.5v1.9h2.4v1.3h-2.4
				v4.6c0,0.9,0.5,1.4,1.3,1.4c0.5,0,0.9-0.1,1.2-0.4L267.8,193.9z"/>
		</g>
	</g>
	<g>
		<g>
			<circle class="st1" cx="72.6" cy="221.7" r="10.8"/>
		</g>
		<g>
			<path class="st4" d="M74.9,218.8c-0.3,0-0.6-0.3-0.6-0.6v-3.6h-5.5c-0.8,0-1.4,0.6-1.4,1.4v11.3c0,0.8,0.6,1.4,1.4,1.4H77
				c0.8,0,1.4-0.6,1.4-1.4v-8.6H74.9z"/>
		</g>
		<path class="st5" d="M74.9,218.8h3.6l-4.1-4.1v3.6C74.4,218.5,74.6,218.8,74.9,218.8z"/>
		<polygon class="st2" points="78.5,221.7 78.5,218.8 74.9,218.8 		"/>
	</g>
</g>
</svg>
