<?xml version="1.0" encoding="utf-8"?>
<!-- Generator: Adobe Illustrator 24.2.3, SVG Export Plug-In . SVG Version: 6.00 Build 0)  -->
<svg version="1.1" xmlns="http://www.w3.org/2000/svg" xmlns:xlink="http://www.w3.org/1999/xlink" x="0px" y="0px"
	 viewBox="0 0 520 360" style="enable-background:new 0 0 520 360;" xml:space="preserve">
<style type="text/css">
	.st0{fill:#F7F7F7;}
	.st1{fill:none;stroke:#DFDFDF;}
	.st2{fill:#424344;}
	.st3{fill:#0077B4;}
	.st4{fill:#EAEAEA;stroke:#FFFFFF;}
	.st5{opacity:0.21;}
	.st6{opacity:0.15;}
	.st7{fill:#FFFFFF;}
	.st8{fill:#C71F25;}
	.st9{fill:#C94F30;}
	.st10{fill:#E5E5E5;}
	.st11{fill:#0A90B7;}
	.st12{fill:#444444;}
	.st13{opacity:0.1;}
	.st14{opacity:0.11;fill:#FFFFFF;}
	.st15{fill:#757575;}
	.st16{opacity:0.14;fill:#FFFFFF;}
	.st17{opacity:0.21;fill:#FFFFFF;}
	.st18{fill:#F0F0F0;}
	.st19{fill:none;stroke:#E5E5E5;stroke-width:0.25;stroke-miterlimit:10;}
	.st20{fill:#1A4480;}
	.st21{fill:#C4C4C4;}
	.st22{fill:#141414;}
	.st23{fill:#0F0F0F;}
	.st24{fill:#1E1E1E;}
	.st25{opacity:0.5;fill:#424242;}
	.st26{opacity:6.000000e-02;}
	.st27{fill:#1B2225;}
	.st28{fill:#F4F4F4;}
	.st29{opacity:0.13;}
</style>
<g id="Layer_10">
	
		<ellipse transform="matrix(0.9935 -0.1138 0.1138 0.9935 -19.3563 31.8871)" class="st0" cx="269.7" cy="185.5" rx="240.3" ry="172.5"/>
	<g>
		<line class="st1" x1="25.1" y1="29.9" x2="25.1" y2="304.4"/>
		<line class="st1" x1="490.9" y1="134.7" x2="490.9" y2="322"/>
		<line class="st1" x1="263.9" y1="144.2" x2="263.9" y2="155.2"/>
		<polyline class="st1" points="312.2,143.2 312.2,321.8 488,321.8 		"/>
		<line class="st1" x1="54.9" y1="113.6" x2="223.8" y2="113.6"/>
		<line class="st1" x1="41.1" y1="213.5" x2="105.9" y2="213.5"/>
		<line class="st1" x1="427.7" y1="186.8" x2="463.3" y2="186.8"/>
		<line class="st1" x1="106.6" y1="169.7" x2="145.3" y2="169.7"/>
	</g>
	<g>
		<polygon points="356,112 335.5,132.5 315.1,112 		"/>
	</g>
	<g>
		<rect x="12.6" y="6.8" transform="matrix(0.7071 -0.7071 0.7071 0.7071 -7.9801 27.4374)" class="st4" width="33" height="33"/>
		
			<rect x="113.3" y="100.8" transform="matrix(0.7071 -0.7071 0.7071 0.7071 -44.9712 126.1539)" class="st4" width="33" height="33"/>
		
			<rect x="474.4" y="102.5" transform="matrix(0.7071 -0.7071 0.7071 0.7071 59.6065 381.9806)" class="st4" width="33" height="33"/>
		
			<rect x="12.6" y="199.3" transform="matrix(0.7071 -0.7071 0.7071 0.7071 -144.0372 83.7941)" class="st4" width="33" height="33"/>
		
			<rect x="295.5" y="199.3" transform="matrix(0.7071 -0.7071 0.7071 0.7071 -61.1971 283.7876)" class="st4" width="33" height="33"/>
		<path class="st4" d="M53.5,319.2c0,13.5-10.9,24.4-24.4,24.4S4.8,332.6,4.8,319.2c0-13.5,10.9-24.4,24.4-24.4
			S53.5,305.7,53.5,319.2z"/>
		<path class="st4" d="M515.3,319.2c0,13.5-10.9,24.4-24.4,24.4s-24.4-10.9-24.4-24.4c0-13.5,10.9-24.4,24.4-24.4
			S515.3,305.7,515.3,319.2z"/>
		<rect x="0" y="102.4" class="st4" width="58.2" height="34.3"/>
		<rect x="282.5" y="304.2" class="st4" width="58.2" height="34.3"/>
		<rect x="461.8" y="201.2" class="st4" width="58.2" height="34.3"/>
	</g>
</g>
<g id="Layer_5" class="st5">
</g>
<g id="Layer_8">
</g>
<g id="Layer_16">
</g>
<g id="Layer_7">
	<g id="Layer_9">
	</g>
</g>
<g id="Layer_6">
</g>
<g id="Layer_15">
	<g>
		<polygon class="st6" points="476.9,93.2 476.9,93.2 476.9,81.4 473,81.4 473,78.7 471.5,78.7 471.5,81.4 467.7,81.4 467.7,78.7 
			466.2,78.7 466.2,81.4 462.5,81.4 462.5,78.7 461,78.7 461,81.4 457.2,81.4 457.2,78.7 455.7,78.7 455.7,81.4 452,81.4 452,78.7 
			450.5,78.7 450.5,81.4 446.7,81.4 446.7,78.7 445.2,78.7 445.2,81.4 441.5,81.4 441.5,78.7 440,78.7 440,81.4 436.2,81.4 
			436.2,78.7 434.7,78.7 434.7,81.4 430.9,81.4 430.9,78.7 429.5,78.7 429.5,81.4 425.7,81.4 425.7,78.7 424.2,78.7 424.2,81.4 
			420.4,81.4 420.4,78.7 419,78.7 419,81.4 415.2,81.4 415.2,78.7 413.7,78.7 413.7,81.4 409.9,81.4 409.9,78.7 408.5,78.7 
			408.5,81.4 404.7,81.4 404.7,78.7 403.2,78.7 403.2,81.4 399.4,81.4 399.4,78.7 397.9,78.7 397.9,81.4 394,81.4 394,150.7 
			477,150.6 		"/>
		<g>
			<rect x="391.3" y="79.2" class="st7" width="83" height="69.2"/>
			<rect x="391.3" y="79.2" class="st8" width="83" height="11.8"/>
			<g>
				<path class="st9" d="M397.6,84c0,0.9-0.7,1.6-1.6,1.6c-0.9,0-1.6-0.7-1.6-1.6c0-0.9,0.7-1.6,1.6-1.6
					C396.9,82.4,397.6,83.1,397.6,84z"/>
				<path class="st9" d="M402.8,84c0,0.9-0.7,1.6-1.6,1.6c-0.9,0-1.6-0.7-1.6-1.6c0-0.9,0.7-1.6,1.6-1.6
					C402.1,82.4,402.8,83.1,402.8,84z"/>
				<path class="st9" d="M408.1,84c0,0.9-0.7,1.6-1.6,1.6c-0.9,0-1.6-0.7-1.6-1.6c0-0.9,0.7-1.6,1.6-1.6
					C407.4,82.4,408.1,83.1,408.1,84z"/>
				<path class="st9" d="M413.3,84c0,0.9-0.7,1.6-1.6,1.6c-0.9,0-1.6-0.7-1.6-1.6c0-0.9,0.7-1.6,1.6-1.6
					C412.6,82.4,413.3,83.1,413.3,84z"/>
				<path class="st9" d="M418.6,84c0,0.9-0.7,1.6-1.6,1.6c-0.9,0-1.6-0.7-1.6-1.6c0-0.9,0.7-1.6,1.6-1.6
					C417.9,82.3,418.6,83.1,418.6,84z"/>
				<path class="st9" d="M423.8,84c0,0.9-0.7,1.6-1.6,1.6c-0.9,0-1.6-0.7-1.6-1.6c0-0.9,0.7-1.6,1.6-1.6
					C423.1,82.3,423.8,83.1,423.8,84z"/>
				<path class="st9" d="M429.1,84c0,0.9-0.7,1.6-1.6,1.6c-0.9,0-1.6-0.7-1.6-1.6c0-0.9,0.7-1.6,1.6-1.6
					C428.4,82.3,429.1,83.1,429.1,84z"/>
				<path class="st9" d="M434.4,83.9c0,0.9-0.7,1.6-1.6,1.6c-0.9,0-1.6-0.7-1.6-1.6c0-0.9,0.7-1.6,1.6-1.6
					C433.6,82.3,434.4,83.1,434.4,83.9z"/>
				<path class="st9" d="M439.6,83.9c0,0.9-0.7,1.6-1.6,1.6c-0.9,0-1.6-0.7-1.6-1.6c0-0.9,0.7-1.6,1.6-1.6
					C438.9,82.3,439.6,83.1,439.6,83.9z"/>
				<path class="st9" d="M444.9,83.9c0,0.9-0.7,1.6-1.6,1.6c-0.9,0-1.6-0.7-1.6-1.6c0-0.9,0.7-1.6,1.6-1.6
					C444.1,82.3,444.9,83.1,444.9,83.9z"/>
				<path class="st9" d="M450.1,83.9c0,0.9-0.7,1.6-1.6,1.6c-0.9,0-1.6-0.7-1.6-1.6c0-0.9,0.7-1.6,1.6-1.6
					C449.4,82.3,450.1,83.1,450.1,83.9z"/>
				<path class="st9" d="M455.4,83.9c0,0.9-0.7,1.6-1.6,1.6c-0.9,0-1.6-0.7-1.6-1.6c0-0.9,0.7-1.6,1.6-1.6
					C454.6,82.3,455.4,83.1,455.4,83.9z"/>
				<path class="st9" d="M460.6,83.9c0,0.9-0.7,1.6-1.6,1.6c-0.9,0-1.6-0.7-1.6-1.6c0-0.9,0.7-1.6,1.6-1.6
					C459.9,82.3,460.6,83.1,460.6,83.9z"/>
				<path class="st9" d="M465.9,83.9c0,0.9-0.7,1.6-1.6,1.6c-0.9,0-1.6-0.7-1.6-1.6c0-0.9,0.7-1.6,1.6-1.6
					C465.1,82.3,465.9,83.1,465.9,83.9z"/>
				<path class="st9" d="M471.1,83.9c0,0.9-0.7,1.6-1.6,1.6c-0.9,0-1.6-0.7-1.6-1.6c0-0.9,0.7-1.6,1.6-1.6
					C470.4,82.3,471.1,83,471.1,83.9z"/>
			</g>
			<g>
				<rect x="395.2" y="76.5" class="st7" width="1.5" height="7.3"/>
				<rect x="400.5" y="76.5" class="st7" width="1.5" height="7.3"/>
				<rect x="405.8" y="76.5" class="st7" width="1.5" height="7.3"/>
				<rect x="411" y="76.5" class="st7" width="1.5" height="7.3"/>
				<rect x="416.3" y="76.5" class="st7" width="1.5" height="7.3"/>
				<rect x="421.5" y="76.5" class="st7" width="1.5" height="7.3"/>
				<rect x="426.8" y="76.5" class="st7" width="1.5" height="7.3"/>
				<rect x="432" y="76.5" class="st7" width="1.5" height="7.3"/>
				<rect x="437.3" y="76.5" class="st7" width="1.5" height="7.3"/>
				<rect x="442.5" y="76.5" class="st7" width="1.5" height="7.3"/>
				<rect x="447.8" y="76.5" class="st7" width="1.5" height="7.3"/>
				<rect x="453" y="76.5" class="st7" width="1.5" height="7.3"/>
				<rect x="458.3" y="76.5" class="st7" width="1.5" height="7.3"/>
				<rect x="463.5" y="76.4" class="st7" width="1.5" height="7.3"/>
				<rect x="468.8" y="76.4" class="st7" width="1.5" height="7.3"/>
			</g>
			<rect x="439.5" y="106" class="st7" width="13.9" height="9.2"/>
			<path class="st10" d="M440,97.4l13.1,0l0,8.4l-13.1,0L440,97.4z M453,114.9l-13.1,0l0-8.3l13.1,0L453,114.9z M453,123.9l-13.1,0
				l0-8.3l13.1,0L453,123.9z M453.1,133l-13.1,0l0-8.3l13.1,0L453.1,133L453.1,133z M412.5,133l0-8.3l13.1,0l0,8.3L412.5,133z
				 M412.5,115.7l13.1,0l0,8.3l-13.1,0L412.5,115.7z M412.5,106.6l13.1,0l0,8.3l-13.1,0L412.5,106.6z M439.3,106.6l0,8.3l-13.1,0
				l0-8.3L439.3,106.6z M439.3,123.9l-13.1,0l0-8.3l13.1,0L439.3,123.9z M426.2,133l0-8.3l13.1,0l0,8.3L426.2,133z M426.2,97.4
				l13.1,0l0,8.4l-13.1,0L426.2,97.4z M412.5,97.4l13.1,0l0,8.4l-13.1,0L412.5,97.4z M398.7,106.6l13.1,0l0,8.3l-13.1,0L398.7,106.6
				z M398.7,115.7l13.1,0l0,8.3l-13.1,0L398.7,115.7z M398.7,124.8l13.1,0l0,8.3l-13.1,0L398.7,124.8z M411.8,142.2l-13.1,0l0-8.4
				l13.1,0L411.8,142.2z M425.5,142.2l-13.1,0l0-8.4l13.1,0L425.5,142.2z M439.3,142.2l-13.1,0l0-8.4l13.1,0L439.3,142.2
				L439.3,142.2z M440,142.2l0-8.4l13.1,0l14.5,0l0-0.8l0-8.3l0-0.8l0-8.3l0-0.8l0-8.3l0-0.8l0-9.1l-13.8,0l-0.7,0l-13.1,0l-0.7,0
				l-13.1,0l-0.7,0l-13.1,0l-0.7,0l0,0.7l0,8.4l-13.1,0l-0.7,0l0,0.8l0,8.3l0,0.8l0,8.3l0,0.8l0,8.3l0,0.8l0,9.1l13.8,0l0.7,0
				l13.1,0l0.7,0l13.1,0l0.7,0L440,142.2z M466.8,133l-13.1,0l0-8.3l13.1,0L466.8,133z M466.8,123.9l-13.1,0l0-8.3l13.1,0
				L466.8,123.9z M466.8,114.8l-13.1,0l0-8.3l13.1,0L466.8,114.8z M453.7,105.8l0-8.4l13.1,0l0,8.4L453.7,105.8z"/>
			<g>
				<rect x="413.8" y="98.4" class="st10" width="2.2" height="1.7"/>
				<rect x="427.5" y="98.4" class="st10" width="2.2" height="1.7"/>
				<rect x="441.2" y="98.4" class="st10" width="2.2" height="1.7"/>
				<rect x="454.9" y="98.4" class="st10" width="2.2" height="1.7"/>
			</g>
			<g>
				<rect x="400" y="107.7" class="st10" width="2.2" height="1.7"/>
				<rect x="413.7" y="107.7" class="st10" width="2.2" height="1.7"/>
				<rect x="427.5" y="107.7" class="st10" width="2.2" height="1.7"/>
				<rect x="441.2" y="107.7" class="st10" width="2.2" height="1.7"/>
				<rect x="454.9" y="107.7" class="st10" width="2.2" height="1.7"/>
			</g>
			<g>
				<rect x="400" y="116.9" class="st10" width="2.2" height="1.7"/>
				<rect x="413.7" y="116.9" class="st10" width="2.2" height="1.7"/>
				<rect x="427.5" y="116.9" class="st10" width="2.2" height="1.7"/>
				<rect x="441.2" y="116.9" class="st10" width="2.2" height="1.7"/>
				<rect x="454.9" y="116.9" class="st10" width="2.2" height="1.7"/>
			</g>
			<g>
				<rect x="400" y="126" class="st10" width="2.2" height="1.7"/>
				<rect x="413.8" y="126" class="st10" width="2.2" height="1.7"/>
				<rect x="427.5" y="126" class="st10" width="2.2" height="1.7"/>
				<rect x="441.2" y="126" class="st10" width="2.2" height="1.7"/>
				<rect x="454.9" y="126" class="st10" width="2.2" height="1.7"/>
			</g>
			<g>
				<rect x="400" y="135.3" class="st10" width="2.2" height="1.7"/>
				<rect x="413.8" y="135.3" class="st10" width="2.2" height="1.7"/>
				<rect x="427.5" y="135.3" class="st10" width="2.2" height="1.7"/>
			</g>
			<g>
				<path class="st11" d="M422.5,98.7c-0.3-0.4-0.9-0.4-1.2-0.1l-2.2,2l-2.3-1.7c-0.4-0.3-0.9-0.2-1.2,0.2c-0.3,0.4-0.2,0.9,0.2,1.2
					l2,1.4l-1.9,1.7c-0.4,0.3-0.4,0.9-0.1,1.2c0.1,0.1,0.3,0.2,0.5,0.3c0.3,0.1,0.6,0,0.8-0.2l2.2-2l2.6,1.9
					c0.1,0.1,0.2,0.1,0.3,0.1c0.3,0.1,0.7,0,0.9-0.3c0.3-0.4,0.2-0.9-0.2-1.2l-2.3-1.6l1.9-1.7C422.8,99.6,422.9,99.1,422.5,98.7z"
					/>
			</g>
			<g>
				<path class="st11" d="M436.2,98.9c-0.3-0.4-0.9-0.4-1.2-0.1l-2.2,2l-2.3-1.7c-0.4-0.3-0.9-0.2-1.2,0.2c-0.3,0.4-0.2,0.9,0.2,1.2
					l2,1.4l-1.9,1.7c-0.4,0.3-0.4,0.9-0.1,1.2c0.1,0.1,0.3,0.2,0.5,0.3c0.3,0.1,0.6,0,0.8-0.2l2.2-2l2.6,1.9
					c0.1,0.1,0.2,0.1,0.3,0.1c0.3,0.1,0.7,0,0.9-0.3c0.3-0.4,0.2-0.9-0.2-1.2l-2.3-1.6l1.9-1.7C436.5,99.8,436.5,99.3,436.2,98.9z"
					/>
			</g>
			<g>
				<path class="st11" d="M450.3,98.6c-0.3-0.4-0.9-0.4-1.2-0.1l-2.2,2l-2.3-1.7c-0.4-0.3-0.9-0.2-1.2,0.2c-0.3,0.4-0.2,0.9,0.2,1.2
					l2,1.4l-1.9,1.7c-0.4,0.3-0.4,0.9-0.1,1.2c0.1,0.1,0.3,0.2,0.5,0.3c0.3,0.1,0.6,0,0.8-0.2l2.2-2l2.6,1.9
					c0.1,0.1,0.2,0.1,0.3,0.1c0.3,0.1,0.7,0,0.9-0.3c0.3-0.4,0.2-0.9-0.2-1.2l-2.3-1.6l1.9-1.7C450.5,99.5,450.6,99,450.3,98.6z"/>
			</g>
			<g>
				<path class="st11" d="M463.4,99c-0.3-0.4-0.9-0.4-1.2-0.1l-2.2,2l-2.3-1.7c-0.4-0.3-0.9-0.2-1.2,0.2c-0.3,0.4-0.2,0.9,0.2,1.2
					l2,1.4l-1.9,1.7c-0.4,0.3-0.4,0.9-0.1,1.2c0.1,0.1,0.3,0.2,0.5,0.3c0.3,0.1,0.6,0,0.8-0.2l2.2-2l2.6,1.9
					c0.1,0.1,0.2,0.1,0.3,0.1c0.3,0.1,0.7,0,0.9-0.3c0.3-0.4,0.2-0.9-0.2-1.2l-2.3-1.6l1.9-1.7C463.7,99.9,463.8,99.4,463.4,99z"/>
			</g>
			<g>
				<path class="st11" d="M409.4,107.8c-0.3-0.4-0.9-0.4-1.2-0.1l-2.2,2l-2.3-1.7c-0.4-0.3-0.9-0.2-1.2,0.2
					c-0.3,0.4-0.2,0.9,0.2,1.2l2,1.4l-1.9,1.7c-0.4,0.3-0.4,0.9-0.1,1.2c0.1,0.1,0.3,0.2,0.5,0.3c0.3,0.1,0.6,0,0.8-0.2l2.2-2
					l2.6,1.9c0.1,0.1,0.2,0.1,0.3,0.1c0.3,0.1,0.7,0,0.9-0.3c0.3-0.4,0.2-0.9-0.2-1.2l-2.3-1.6l1.9-1.7
					C409.7,108.7,409.8,108.2,409.4,107.8z"/>
			</g>
			<g>
				<path class="st11" d="M422,107.7c-0.3-0.4-0.9-0.4-1.2-0.1l-2.2,2l-2.3-1.7c-0.4-0.3-0.9-0.2-1.2,0.2c-0.3,0.4-0.2,0.9,0.2,1.2
					l2,1.4l-1.9,1.7c-0.4,0.3-0.4,0.9-0.1,1.2c0.1,0.1,0.3,0.2,0.5,0.3c0.3,0.1,0.6,0,0.8-0.2l2.2-2l2.6,1.9
					c0.1,0.1,0.2,0.1,0.3,0.1c0.3,0.1,0.7,0,0.9-0.3c0.3-0.4,0.2-0.9-0.2-1.2l-2.3-1.6l1.9-1.7C422.3,108.6,422.3,108.1,422,107.7z"
					/>
			</g>
		</g>
	</g>
	<g>
		<polygon class="st6" points="478,195.7 367.1,195.7 367.1,322 367.1,322 367.1,344.6 451.6,344.6 478,344.6 478,344.6 478,344.6 
					"/>
		<g>
			<g>
				<rect x="360.7" y="188.2" class="st6" width="114.1" height="153.2"/>
			</g>
			<rect x="360.7" y="188.2" class="st7" width="114.1" height="153.2"/>
			<polygon class="st12" points="474.8,188.2 474.8,214.4 408.8,188.2 			"/>
			<rect x="383.1" y="229.5" class="st13" width="77.5" height="1.9"/>
			<rect x="405.2" y="222" class="st13" width="33.3" height="1.9"/>
			<rect x="374.9" y="234.5" class="st13" width="85.8" height="1.9"/>
			<rect x="374.9" y="239.5" class="st13" width="85.8" height="1.9"/>
			<rect x="383.1" y="244.4" class="st13" width="77.5" height="1.9"/>
			<rect x="374.9" y="249.4" class="st13" width="85.8" height="1.9"/>
			<rect x="374.9" y="254.3" class="st13" width="85.8" height="1.9"/>
			<rect x="374.9" y="259.3" class="st13" width="85.8" height="1.9"/>
			<rect x="374.9" y="264.2" class="st13" width="85.8" height="1.9"/>
			<rect x="374.9" y="269.2" class="st13" width="85.8" height="1.9"/>
			<rect x="374.9" y="274.2" class="st13" width="85.8" height="1.9"/>
			<rect x="374.9" y="279.1" class="st13" width="85.8" height="1.9"/>
			<rect x="374.9" y="284.1" class="st13" width="85.8" height="1.9"/>
			<rect x="383.1" y="289" class="st13" width="77.5" height="1.9"/>
			<rect x="374.9" y="294" class="st13" width="85.8" height="1.9"/>
			<rect x="443.8" y="310.8" class="st13" width="16.8" height="1.9"/>
			<rect x="374.9" y="298.9" class="st13" width="85.8" height="1.9"/>
			<polygon class="st12" points="447.6,341.4 360.7,341.4 360.7,318.2 			"/>
			<polygon class="st14" points="426.3,188.2 422.7,188.4 474.8,232.7 474.8,199.6 			"/>
			<polygon class="st14" points="360.7,338.3 474.8,323.5 474.8,341.4 360.7,341.4 			"/>
			<g class="st13">
				<path d="M451.2,194H427c-0.8,0-1.7-0.3-2.5-0.8c-0.6-0.4-2-0.8-4.1-0.8c-2.1,0-3.5,0.4-4.1,0.8c-0.8,0.5-1.6,0.8-2.5,0.8h-24.2
					c-1,0-1.8-0.8-1.8-1.7v-4.7c0-0.9,0.8-1.7,1.8-1.7h61.5c1,0,1.8,0.8,1.8,1.7v4.7C453,193.3,452.2,194,451.2,194z M420.4,191.1
					c2,0,3.8,0.4,4.8,1c0.6,0.4,1.2,0.6,1.8,0.6h24.2c0.3,0,0.6-0.2,0.6-0.5v-4.7c0-0.3-0.3-0.5-0.6-0.5h-61.5
					c-0.3,0-0.6,0.2-0.6,0.5v4.7c0,0.3,0.3,0.5,0.6,0.5h24.2c0.6,0,1.2-0.2,1.8-0.6C416.6,191.5,418.4,191.1,420.4,191.1z"/>
			</g>
			<g>
				<path class="st11" d="M450.7,193.3h-24.2c-0.8,0-1.7-0.3-2.5-0.8c-0.6-0.4-2-0.8-4.1-0.8c-2.1,0-3.5,0.4-4.1,0.8
					c-0.8,0.5-1.6,0.8-2.5,0.8h-24.2c-1,0-1.8-0.8-1.8-1.7v-4.7c0-0.9,0.8-1.7,1.8-1.7h61.5c1,0,1.8,0.8,1.8,1.7v4.7
					C452.5,192.5,451.7,193.3,450.7,193.3z M419.9,190.4c2,0,3.8,0.4,4.8,1c0.6,0.4,1.2,0.6,1.8,0.6h24.2c0.3,0,0.6-0.2,0.6-0.5
					v-4.7c0-0.3-0.3-0.5-0.6-0.5h-61.5c-0.3,0-0.6,0.2-0.6,0.5v4.7c0,0.3,0.3,0.5,0.6,0.5h24.2c0.6,0,1.2-0.2,1.8-0.6
					C416.1,190.8,417.9,190.4,419.9,190.4z"/>
			</g>
		</g>
	</g>
	<path class="st6" d="M447.8,246.7c-1-1.4-2-2.3-2.4-2.1c-2.4,1.2-4.8,2.4-7.1,3.9l-28.5,19.2l-1.1,1l0.2,0.3l-26.8,19.6L369,301.2
		l0.1,0.2c-1.1,0.8-1.9,1.7-1.7,1.9c0.2,0.3,1.2-0.1,2.4-0.9l0.1,0.2l16.2-8.3l27.5-18.5l0.2,0.2l1.3-0.8l19.1-14
		c0.5,0.4,1.1,1.1,0.9,1.5c-2.1,1.2-4.3,2.3-5.9,3.1c-1.7,0.9-3.1,1.6-3.7,2c-2.3,1.6-6.4,6-6.6,6.1c0,0-0.5,0.7-0.1,1
		c0.2,0.2,0.8-0.3,0.8-0.3c0,0,4.2-4.4,6.5-6c0.6-0.4,2-1.1,3.6-1.9c6.8-3.4,12.8-6.7,12.3-9.4c0-0.1,0-0.3-0.1-0.4
		c-0.3-0.4-0.6-0.5-1.1-0.5l2-1.5c2.1-1.6,4.1-3.5,6-5.4c0,0,0,0,0,0C449.3,249.4,448.7,248.1,447.8,246.7z"/>
	<g>
		<path class="st10" d="M447.6,248c-0.3,0.2-1.4-0.7-2.4-2.1c-1-1.4-1.5-2.7-1.2-2.9c0.3-0.2,1.4,0.7,2.4,2.1
			C447.4,246.5,447.9,247.8,447.6,248z"/>
		<path class="st15" d="M437.3,259.2c2-1.4,3.7-3,3.2-3.8c-1.7-2.4-8.2,3.8-8.2,3.8s2.2,1.6,1.2,2.2
			C432.6,261.9,435.3,260.6,437.3,259.2z"/>
		<path class="st8" d="M367.8,299.7c1.2-0.8,2.3-1.3,2.5-1c0.2,0.3-0.6,1.2-1.8,2c-1.2,0.8-2.3,1.3-2.5,1
			C365.8,301.5,366.6,300.5,367.8,299.7z"/>
		<polygon class="st10" points="380.7,286.9 384.8,292.7 368.6,301 367.6,299.6 		"/>
		<polygon class="st11" points="408.6,266.6 413.5,273.5 384.8,292.7 380.7,286.9 		"/>
		<g>
			<path class="st11" d="M436.9,246.8c1.6,2.2,3.2,4.4,4.8,6.5c-9.2,6.8-18.8,13.5-27.9,20.3c-1.8-2.5-3.7-5.1-5.5-7.6
				C417.8,259.7,427.6,253.3,436.9,246.8z"/>
		</g>
		<polygon class="st10" points="408.4,266.1 413.8,273.7 412.5,274.5 407.3,267.1 		"/>
		<path class="st8" d="M447.6,248c-1.2-1.7-2.4-3.4-3.5-5c-2.4,1.2-4.8,2.4-7.1,3.9c1.5,2.2,3.1,4.4,4.6,6.5
			C443.6,251.7,445.6,249.9,447.6,248z"/>
		
			<rect x="396.4" y="266.7" transform="matrix(-0.5752 -0.818 0.818 -0.5752 395.481 768.6538)" class="st16" width="1.9" height="30"/>
		
			<rect x="425.2" y="246.3" transform="matrix(-0.5752 -0.818 0.818 -0.5752 457.5646 760.2894)" class="st16" width="1.9" height="30"/>
		<polygon class="st17" points="445.2,246.8 445.9,247.9 441.6,251.6 440.5,250.1 		"/>
		<polygon class="st18" points="368.1,300.4 384.2,292 383.1,290.4 		"/>
		<g>
			<path class="st12" d="M417.6,272.5c0.2-0.2,4.3-4.5,6.6-6.1c0.6-0.4,2-1.1,3.7-2c4.1-2.1,12.5-6.3,11.8-8.5l0.9-0.3
				c0.8,2.7-5.3,6.1-12.3,9.6c-1.6,0.8-3,1.5-3.6,1.9c-2.2,1.6-6.4,6-6.5,6c0,0-0.6,0.6-0.8,0.3
				C417.1,273.2,417.6,272.5,417.6,272.5z"/>
		</g>
	</g>
	<path class="st6" d="M393.6,2.7H168c-3.9,0-6.2,4.3-4.1,7.5l25.3,47.8c0.9,1.4,2.4,2.2,4.1,2.2h-0.1c-2.2,0-3.9,2.3-3.9,5.2v109.1
		c0,2.8,1.8,5.2,3.9,5.2h72.3h30.9h72.3c2.2,0,3.9-2.3,3.9-5.2V65.5c0-2.8-1.8-5.2-3.9-5.2h-0.1c1.7,0,3.2-0.8,4.1-2.2l25.1-47.8
		C399.8,7,397.5,2.7,393.6,2.7z"/>
	<g>
		<polygon class="st6" points="172.7,132.4 61.8,132.4 61.8,258.7 61.8,258.7 61.8,281.3 146.3,281.3 172.7,281.3 172.7,281.3 
			172.7,281.3 		"/>
		<g>
			<rect x="58.4" y="129.4" class="st7" width="110.9" height="148.8"/>
			<g>
				<rect x="67.2" y="230.1" class="st19" width="2.8" height="2.8"/>
				<rect x="67.2" y="227.3" class="st19" width="2.8" height="2.8"/>
				<rect x="67.2" y="224.4" class="st19" width="2.8" height="2.8"/>
				<rect x="67.2" y="221.6" class="st19" width="2.8" height="2.8"/>
				<rect x="67.2" y="218.8" class="st19" width="2.8" height="2.8"/>
				<rect x="67.2" y="215.9" class="st19" width="2.8" height="2.8"/>
				<rect x="67.2" y="213.1" class="st19" width="2.8" height="2.8"/>
				<rect x="67.2" y="210.3" class="st19" width="2.8" height="2.8"/>
				<rect x="67.2" y="207.5" class="st19" width="2.8" height="2.8"/>
				<rect x="70" y="230.1" class="st19" width="2.8" height="2.8"/>
				<rect x="70" y="227.3" class="st19" width="2.8" height="2.8"/>
				<rect x="70" y="224.4" class="st19" width="2.8" height="2.8"/>
				<rect x="70" y="221.6" class="st19" width="2.8" height="2.8"/>
				<rect x="70" y="218.8" class="st19" width="2.8" height="2.8"/>
				<rect x="70" y="215.9" class="st19" width="2.8" height="2.8"/>
				<rect x="70" y="213.1" class="st19" width="2.8" height="2.8"/>
				<rect x="70" y="210.3" class="st19" width="2.8" height="2.8"/>
				<rect x="70" y="207.5" class="st19" width="2.8" height="2.8"/>
				<rect x="72.8" y="230.1" class="st19" width="2.8" height="2.8"/>
				<rect x="72.8" y="227.3" class="st19" width="2.8" height="2.8"/>
				<rect x="72.8" y="224.4" class="st19" width="2.8" height="2.8"/>
				<rect x="72.8" y="221.6" class="st19" width="2.8" height="2.8"/>
				<rect x="72.8" y="218.8" class="st19" width="2.8" height="2.8"/>
				<rect x="72.8" y="215.9" class="st19" width="2.8" height="2.8"/>
				<rect x="72.8" y="213.1" class="st19" width="2.8" height="2.8"/>
				<rect x="72.8" y="210.3" class="st19" width="2.8" height="2.8"/>
				<rect x="72.8" y="207.5" class="st19" width="2.8" height="2.8"/>
				<rect x="75.7" y="230.1" class="st19" width="2.8" height="2.8"/>
				<rect x="75.7" y="227.3" class="st19" width="2.8" height="2.8"/>
				<rect x="75.7" y="224.4" class="st19" width="2.8" height="2.8"/>
				<rect x="75.7" y="221.6" class="st19" width="2.8" height="2.8"/>
				<rect x="75.7" y="218.8" class="st19" width="2.8" height="2.8"/>
				<rect x="75.7" y="215.9" class="st19" width="2.8" height="2.8"/>
				<rect x="75.7" y="213.1" class="st19" width="2.8" height="2.8"/>
				<rect x="75.7" y="210.3" class="st19" width="2.8" height="2.8"/>
				<rect x="75.7" y="207.5" class="st19" width="2.8" height="2.8"/>
				<rect x="78.5" y="230.1" class="st19" width="2.8" height="2.8"/>
				<rect x="78.5" y="227.3" class="st19" width="2.8" height="2.8"/>
				<rect x="78.5" y="224.4" class="st19" width="2.8" height="2.8"/>
				<rect x="78.5" y="221.6" class="st19" width="2.8" height="2.8"/>
				<rect x="78.5" y="218.8" class="st19" width="2.8" height="2.8"/>
				<rect x="78.5" y="215.9" class="st19" width="2.8" height="2.8"/>
				<rect x="78.5" y="213.1" class="st19" width="2.8" height="2.8"/>
				<rect x="78.5" y="210.3" class="st19" width="2.8" height="2.8"/>
				<rect x="78.5" y="207.5" class="st19" width="2.8" height="2.8"/>
				<rect x="81.3" y="230.1" class="st19" width="2.8" height="2.8"/>
				<rect x="81.3" y="227.3" class="st19" width="2.8" height="2.8"/>
				<rect x="81.3" y="224.4" class="st19" width="2.8" height="2.8"/>
				<rect x="81.3" y="221.6" class="st19" width="2.8" height="2.8"/>
				<rect x="81.3" y="218.8" class="st19" width="2.8" height="2.8"/>
				<rect x="81.3" y="215.9" class="st19" width="2.8" height="2.8"/>
				<rect x="81.3" y="213.1" class="st19" width="2.8" height="2.8"/>
				<rect x="81.3" y="210.3" class="st19" width="2.8" height="2.8"/>
				<rect x="81.3" y="207.5" class="st19" width="2.8" height="2.8"/>
				<rect x="84.2" y="230.1" class="st19" width="2.8" height="2.8"/>
				<rect x="84.2" y="227.3" class="st19" width="2.8" height="2.8"/>
				<rect x="84.2" y="224.4" class="st19" width="2.8" height="2.8"/>
				<rect x="84.2" y="221.6" class="st19" width="2.8" height="2.8"/>
				<rect x="84.2" y="218.8" class="st19" width="2.8" height="2.8"/>
				<rect x="84.2" y="215.9" class="st19" width="2.8" height="2.8"/>
				<rect x="84.2" y="213.1" class="st19" width="2.8" height="2.8"/>
				<rect x="84.2" y="210.3" class="st19" width="2.8" height="2.8"/>
				<rect x="84.2" y="207.5" class="st19" width="2.8" height="2.8"/>
				<rect x="87" y="230.1" class="st19" width="2.8" height="2.8"/>
				<rect x="87" y="227.3" class="st19" width="2.8" height="2.8"/>
				<rect x="87" y="224.4" class="st19" width="2.8" height="2.8"/>
				<rect x="87" y="221.6" class="st19" width="2.8" height="2.8"/>
				<rect x="87" y="218.8" class="st19" width="2.8" height="2.8"/>
				<rect x="87" y="215.9" class="st19" width="2.8" height="2.8"/>
				<rect x="87" y="213.1" class="st19" width="2.8" height="2.8"/>
				<rect x="87" y="210.3" class="st19" width="2.8" height="2.8"/>
				<rect x="87" y="207.5" class="st19" width="2.8" height="2.8"/>
				<rect x="89.8" y="230.1" class="st19" width="2.8" height="2.8"/>
				<rect x="89.8" y="227.3" class="st19" width="2.8" height="2.8"/>
				<rect x="89.8" y="224.4" class="st19" width="2.8" height="2.8"/>
				<rect x="89.8" y="221.6" class="st19" width="2.8" height="2.8"/>
				<rect x="89.8" y="218.8" class="st19" width="2.8" height="2.8"/>
				<rect x="89.8" y="215.9" class="st19" width="2.8" height="2.8"/>
				<rect x="89.8" y="213.1" class="st19" width="2.8" height="2.8"/>
				<rect x="89.8" y="210.3" class="st19" width="2.8" height="2.8"/>
				<rect x="89.8" y="207.5" class="st19" width="2.8" height="2.8"/>
				<rect x="92.7" y="230.1" class="st19" width="2.8" height="2.8"/>
				<rect x="92.7" y="227.3" class="st19" width="2.8" height="2.8"/>
				<rect x="92.7" y="224.4" class="st19" width="2.8" height="2.8"/>
				<rect x="92.7" y="221.6" class="st19" width="2.8" height="2.8"/>
				<rect x="92.7" y="218.8" class="st19" width="2.8" height="2.8"/>
				<rect x="92.7" y="215.9" class="st19" width="2.8" height="2.8"/>
				<rect x="92.7" y="213.1" class="st19" width="2.8" height="2.8"/>
				<rect x="92.7" y="210.3" class="st19" width="2.8" height="2.8"/>
				<rect x="92.7" y="207.5" class="st19" width="2.8" height="2.8"/>
				<rect x="95.5" y="230.1" class="st19" width="2.8" height="2.8"/>
				<rect x="95.5" y="227.3" class="st19" width="2.8" height="2.8"/>
				<rect x="95.5" y="224.4" class="st19" width="2.8" height="2.8"/>
				<rect x="95.5" y="221.6" class="st19" width="2.8" height="2.8"/>
				<rect x="95.5" y="218.8" class="st19" width="2.8" height="2.8"/>
				<rect x="95.5" y="215.9" class="st19" width="2.8" height="2.8"/>
				<rect x="95.5" y="213.1" class="st19" width="2.8" height="2.8"/>
				<rect x="95.5" y="210.3" class="st19" width="2.8" height="2.8"/>
				<rect x="95.5" y="207.5" class="st19" width="2.8" height="2.8"/>
				<rect x="98.3" y="230.1" class="st19" width="2.8" height="2.8"/>
				<rect x="98.3" y="227.3" class="st19" width="2.8" height="2.8"/>
				<rect x="98.3" y="224.4" class="st19" width="2.8" height="2.8"/>
				<rect x="98.3" y="221.6" class="st19" width="2.8" height="2.8"/>
				<rect x="98.3" y="218.8" class="st19" width="2.8" height="2.8"/>
				<rect x="98.3" y="215.9" class="st19" width="2.8" height="2.8"/>
				<rect x="98.3" y="213.1" class="st19" width="2.8" height="2.8"/>
				<rect x="98.3" y="210.3" class="st19" width="2.8" height="2.8"/>
				<rect x="98.3" y="207.5" class="st19" width="2.8" height="2.8"/>
				<rect x="101.1" y="230.1" class="st19" width="2.8" height="2.8"/>
				<rect x="101.1" y="227.3" class="st19" width="2.8" height="2.8"/>
				<rect x="101.1" y="224.4" class="st19" width="2.8" height="2.8"/>
				<rect x="101.1" y="221.6" class="st19" width="2.8" height="2.8"/>
				<rect x="101.1" y="218.8" class="st19" width="2.8" height="2.8"/>
				<rect x="101.1" y="215.9" class="st19" width="2.8" height="2.8"/>
				<rect x="101.1" y="213.1" class="st19" width="2.8" height="2.8"/>
				<rect x="101.1" y="210.3" class="st19" width="2.8" height="2.8"/>
				<rect x="101.1" y="207.5" class="st19" width="2.8" height="2.8"/>
				<rect x="104" y="230.1" class="st19" width="2.8" height="2.8"/>
				<rect x="104" y="227.3" class="st19" width="2.8" height="2.8"/>
				<rect x="104" y="224.4" class="st19" width="2.8" height="2.8"/>
				<rect x="104" y="221.6" class="st19" width="2.8" height="2.8"/>
				<rect x="104" y="218.8" class="st19" width="2.8" height="2.8"/>
				<rect x="104" y="215.9" class="st19" width="2.8" height="2.8"/>
				<rect x="104" y="213.1" class="st19" width="2.8" height="2.8"/>
				<rect x="104" y="210.3" class="st19" width="2.8" height="2.8"/>
				<rect x="104" y="207.5" class="st19" width="2.8" height="2.8"/>
				<rect x="106.8" y="230.1" class="st19" width="2.8" height="2.8"/>
				<rect x="106.8" y="227.3" class="st19" width="2.8" height="2.8"/>
				<rect x="106.8" y="224.4" class="st19" width="2.8" height="2.8"/>
				<rect x="106.8" y="221.6" class="st19" width="2.8" height="2.8"/>
				<rect x="106.8" y="218.8" class="st19" width="2.8" height="2.8"/>
				<rect x="106.8" y="215.9" class="st19" width="2.8" height="2.8"/>
				<rect x="106.8" y="213.1" class="st19" width="2.8" height="2.8"/>
				<rect x="106.8" y="210.3" class="st19" width="2.8" height="2.8"/>
				<rect x="106.8" y="207.5" class="st19" width="2.8" height="2.8"/>
				<rect x="109.6" y="230.1" class="st19" width="2.8" height="2.8"/>
				<rect x="109.6" y="227.3" class="st19" width="2.8" height="2.8"/>
				<rect x="109.6" y="224.4" class="st19" width="2.8" height="2.8"/>
				<rect x="109.6" y="221.6" class="st19" width="2.8" height="2.8"/>
				<rect x="109.6" y="218.8" class="st19" width="2.8" height="2.8"/>
				<rect x="109.6" y="215.9" class="st19" width="2.8" height="2.8"/>
				<rect x="109.6" y="213.1" class="st19" width="2.8" height="2.8"/>
				<rect x="109.6" y="210.3" class="st19" width="2.8" height="2.8"/>
				<rect x="109.6" y="207.5" class="st19" width="2.8" height="2.8"/>
				<rect x="112.5" y="230.1" class="st19" width="2.8" height="2.8"/>
				<rect x="112.5" y="227.3" class="st19" width="2.8" height="2.8"/>
				<rect x="112.5" y="224.4" class="st19" width="2.8" height="2.8"/>
				<rect x="112.5" y="221.6" class="st19" width="2.8" height="2.8"/>
				<rect x="112.5" y="218.8" class="st19" width="2.8" height="2.8"/>
				<rect x="112.5" y="215.9" class="st19" width="2.8" height="2.8"/>
				<rect x="112.5" y="213.1" class="st19" width="2.8" height="2.8"/>
				<rect x="112.5" y="210.3" class="st19" width="2.8" height="2.8"/>
				<rect x="112.5" y="207.5" class="st19" width="2.8" height="2.8"/>
				<rect x="115.3" y="230.1" class="st19" width="2.8" height="2.8"/>
				<rect x="115.3" y="227.3" class="st19" width="2.8" height="2.8"/>
				<rect x="115.3" y="224.4" class="st19" width="2.8" height="2.8"/>
				<rect x="115.3" y="221.6" class="st19" width="2.8" height="2.8"/>
				<rect x="115.3" y="218.8" class="st19" width="2.8" height="2.8"/>
				<rect x="115.3" y="215.9" class="st19" width="2.8" height="2.8"/>
				<rect x="115.3" y="213.1" class="st19" width="2.8" height="2.8"/>
				<rect x="115.3" y="210.3" class="st19" width="2.8" height="2.8"/>
				<rect x="115.3" y="207.5" class="st19" width="2.8" height="2.8"/>
				<rect x="118.1" y="230.1" class="st19" width="2.8" height="2.8"/>
				<rect x="118.1" y="227.3" class="st19" width="2.8" height="2.8"/>
				<rect x="118.1" y="224.4" class="st19" width="2.8" height="2.8"/>
				<rect x="118.1" y="221.6" class="st19" width="2.8" height="2.8"/>
				<rect x="118.1" y="218.8" class="st19" width="2.8" height="2.8"/>
				<rect x="118.1" y="215.9" class="st19" width="2.8" height="2.8"/>
				<rect x="118.1" y="213.1" class="st19" width="2.8" height="2.8"/>
				<rect x="118.1" y="210.3" class="st19" width="2.8" height="2.8"/>
				<rect x="118.1" y="207.5" class="st19" width="2.8" height="2.8"/>
				<rect x="121" y="230.1" class="st19" width="2.8" height="2.8"/>
				<rect x="121" y="227.3" class="st19" width="2.8" height="2.8"/>
				<rect x="121" y="224.4" class="st19" width="2.8" height="2.8"/>
				<rect x="121" y="221.6" class="st19" width="2.8" height="2.8"/>
				<rect x="121" y="218.8" class="st19" width="2.8" height="2.8"/>
				<rect x="121" y="215.9" class="st19" width="2.8" height="2.8"/>
				<rect x="121" y="213.1" class="st19" width="2.8" height="2.8"/>
				<rect x="121" y="210.3" class="st19" width="2.8" height="2.8"/>
				<rect x="121" y="207.5" class="st19" width="2.8" height="2.8"/>
				<rect x="123.8" y="230.1" class="st19" width="2.8" height="2.8"/>
				<rect x="123.8" y="227.3" class="st19" width="2.8" height="2.8"/>
				<rect x="123.8" y="224.4" class="st19" width="2.8" height="2.8"/>
				<rect x="123.8" y="221.6" class="st19" width="2.8" height="2.8"/>
				<rect x="123.8" y="218.8" class="st19" width="2.8" height="2.8"/>
				<rect x="123.8" y="215.9" class="st19" width="2.8" height="2.8"/>
				<rect x="123.8" y="213.1" class="st19" width="2.8" height="2.8"/>
				<rect x="123.8" y="210.3" class="st19" width="2.8" height="2.8"/>
				<rect x="123.8" y="207.5" class="st19" width="2.8" height="2.8"/>
				<rect x="126.6" y="230.1" class="st19" width="2.8" height="2.8"/>
				<rect x="126.6" y="227.3" class="st19" width="2.8" height="2.8"/>
				<rect x="126.6" y="224.4" class="st19" width="2.8" height="2.8"/>
				<rect x="126.6" y="221.6" class="st19" width="2.8" height="2.8"/>
				<rect x="126.6" y="218.8" class="st19" width="2.8" height="2.8"/>
				<rect x="126.6" y="215.9" class="st19" width="2.8" height="2.8"/>
				<rect x="126.6" y="213.1" class="st19" width="2.8" height="2.8"/>
				<rect x="126.6" y="210.3" class="st19" width="2.8" height="2.8"/>
				<rect x="126.6" y="207.5" class="st19" width="2.8" height="2.8"/>
				<rect x="129.4" y="230.1" class="st19" width="2.8" height="2.8"/>
				<rect x="129.4" y="227.3" class="st19" width="2.8" height="2.8"/>
				<rect x="129.4" y="224.4" class="st19" width="2.8" height="2.8"/>
				<rect x="129.4" y="221.6" class="st19" width="2.8" height="2.8"/>
				<rect x="129.4" y="218.8" class="st19" width="2.8" height="2.8"/>
				<rect x="129.4" y="215.9" class="st19" width="2.8" height="2.8"/>
				<rect x="129.4" y="213.1" class="st19" width="2.8" height="2.8"/>
				<rect x="129.4" y="210.3" class="st19" width="2.8" height="2.8"/>
				<rect x="129.4" y="207.5" class="st19" width="2.8" height="2.8"/>
				<rect x="132.3" y="230.1" class="st19" width="2.8" height="2.8"/>
				<rect x="132.3" y="227.3" class="st19" width="2.8" height="2.8"/>
				<rect x="132.3" y="224.4" class="st19" width="2.8" height="2.8"/>
				<rect x="132.3" y="221.6" class="st19" width="2.8" height="2.8"/>
				<rect x="132.3" y="218.8" class="st19" width="2.8" height="2.8"/>
				<rect x="132.3" y="215.9" class="st19" width="2.8" height="2.8"/>
				<rect x="132.3" y="213.1" class="st19" width="2.8" height="2.8"/>
				<rect x="132.3" y="210.3" class="st19" width="2.8" height="2.8"/>
				<rect x="132.3" y="207.5" class="st19" width="2.8" height="2.8"/>
				<rect x="135.1" y="230.1" class="st19" width="2.8" height="2.8"/>
				<rect x="135.1" y="227.3" class="st19" width="2.8" height="2.8"/>
				<rect x="135.1" y="224.4" class="st19" width="2.8" height="2.8"/>
				<rect x="135.1" y="221.6" class="st19" width="2.8" height="2.8"/>
				<rect x="135.1" y="218.8" class="st19" width="2.8" height="2.8"/>
				<rect x="135.1" y="215.9" class="st19" width="2.8" height="2.8"/>
				<rect x="135.1" y="213.1" class="st19" width="2.8" height="2.8"/>
				<rect x="135.1" y="210.3" class="st19" width="2.8" height="2.8"/>
				<rect x="135.1" y="207.5" class="st19" width="2.8" height="2.8"/>
				<rect x="137.9" y="230.1" class="st19" width="2.8" height="2.8"/>
				<rect x="137.9" y="227.3" class="st19" width="2.8" height="2.8"/>
				<rect x="137.9" y="224.4" class="st19" width="2.8" height="2.8"/>
				<rect x="137.9" y="221.6" class="st19" width="2.8" height="2.8"/>
				<rect x="137.9" y="218.8" class="st19" width="2.8" height="2.8"/>
				<rect x="137.9" y="215.9" class="st19" width="2.8" height="2.8"/>
				<rect x="137.9" y="213.1" class="st19" width="2.8" height="2.8"/>
				<rect x="137.9" y="210.3" class="st19" width="2.8" height="2.8"/>
				<rect x="137.9" y="207.5" class="st19" width="2.8" height="2.8"/>
				<rect x="140.8" y="230.1" class="st19" width="2.8" height="2.8"/>
				<rect x="140.8" y="227.3" class="st19" width="2.8" height="2.8"/>
				<rect x="140.8" y="224.4" class="st19" width="2.8" height="2.8"/>
				<rect x="140.8" y="221.6" class="st19" width="2.8" height="2.8"/>
				<rect x="140.8" y="218.8" class="st19" width="2.8" height="2.8"/>
				<rect x="140.8" y="215.9" class="st19" width="2.8" height="2.8"/>
				<rect x="140.8" y="213.1" class="st19" width="2.8" height="2.8"/>
				<rect x="140.8" y="210.3" class="st19" width="2.8" height="2.8"/>
				<rect x="140.8" y="207.5" class="st19" width="2.8" height="2.8"/>
				<rect x="143.6" y="230.1" class="st19" width="2.8" height="2.8"/>
				<rect x="143.6" y="227.3" class="st19" width="2.8" height="2.8"/>
				<rect x="143.6" y="224.4" class="st19" width="2.8" height="2.8"/>
				<rect x="143.6" y="221.6" class="st19" width="2.8" height="2.8"/>
				<rect x="143.6" y="218.8" class="st19" width="2.8" height="2.8"/>
				<rect x="143.6" y="215.9" class="st19" width="2.8" height="2.8"/>
				<rect x="143.6" y="213.1" class="st19" width="2.8" height="2.8"/>
				<rect x="143.6" y="210.3" class="st19" width="2.8" height="2.8"/>
				<rect x="143.6" y="207.5" class="st19" width="2.8" height="2.8"/>
				<rect x="146.4" y="230.1" class="st19" width="2.8" height="2.8"/>
				<rect x="146.4" y="227.3" class="st19" width="2.8" height="2.8"/>
				<rect x="146.4" y="224.4" class="st19" width="2.8" height="2.8"/>
				<rect x="146.4" y="221.6" class="st19" width="2.8" height="2.8"/>
				<rect x="146.4" y="218.8" class="st19" width="2.8" height="2.8"/>
				<rect x="146.4" y="215.9" class="st19" width="2.8" height="2.8"/>
				<rect x="146.4" y="213.1" class="st19" width="2.8" height="2.8"/>
				<rect x="146.4" y="210.3" class="st19" width="2.8" height="2.8"/>
				<rect x="146.4" y="207.5" class="st19" width="2.8" height="2.8"/>
				<rect x="149.2" y="230.1" class="st19" width="2.8" height="2.8"/>
				<rect x="149.2" y="227.3" class="st19" width="2.8" height="2.8"/>
				<rect x="149.2" y="224.4" class="st19" width="2.8" height="2.8"/>
				<rect x="149.2" y="221.6" class="st19" width="2.8" height="2.8"/>
				<rect x="149.2" y="218.8" class="st19" width="2.8" height="2.8"/>
				<rect x="149.2" y="215.9" class="st19" width="2.8" height="2.8"/>
				<rect x="149.2" y="213.1" class="st19" width="2.8" height="2.8"/>
				<rect x="149.2" y="210.3" class="st19" width="2.8" height="2.8"/>
				<rect x="149.2" y="207.5" class="st19" width="2.8" height="2.8"/>
				<rect x="152.1" y="230.1" class="st19" width="2.8" height="2.8"/>
				<rect x="152.1" y="227.3" class="st19" width="2.8" height="2.8"/>
				<rect x="152.1" y="224.4" class="st19" width="2.8" height="2.8"/>
				<rect x="152.1" y="221.6" class="st19" width="2.8" height="2.8"/>
				<rect x="152.1" y="218.8" class="st19" width="2.8" height="2.8"/>
				<rect x="152.1" y="215.9" class="st19" width="2.8" height="2.8"/>
				<rect x="152.1" y="213.1" class="st19" width="2.8" height="2.8"/>
				<rect x="152.1" y="210.3" class="st19" width="2.8" height="2.8"/>
				<rect x="152.1" y="207.5" class="st19" width="2.8" height="2.8"/>
				<rect x="154.9" y="230.1" class="st19" width="2.8" height="2.8"/>
				<rect x="154.9" y="227.3" class="st19" width="2.8" height="2.8"/>
				<rect x="154.9" y="224.4" class="st19" width="2.8" height="2.8"/>
				<rect x="154.9" y="221.6" class="st19" width="2.8" height="2.8"/>
				<rect x="154.9" y="218.8" class="st19" width="2.8" height="2.8"/>
				<rect x="154.9" y="215.9" class="st19" width="2.8" height="2.8"/>
				<rect x="154.9" y="213.1" class="st19" width="2.8" height="2.8"/>
				<rect x="154.9" y="210.3" class="st19" width="2.8" height="2.8"/>
				<rect x="154.9" y="207.5" class="st19" width="2.8" height="2.8"/>
				<rect x="157.7" y="230.1" class="st19" width="2.8" height="2.8"/>
				<rect x="157.7" y="227.3" class="st19" width="2.8" height="2.8"/>
				<rect x="157.7" y="224.4" class="st19" width="2.8" height="2.8"/>
				<rect x="157.7" y="221.6" class="st19" width="2.8" height="2.8"/>
				<rect x="157.7" y="218.8" class="st19" width="2.8" height="2.8"/>
				<rect x="157.7" y="215.9" class="st19" width="2.8" height="2.8"/>
				<rect x="157.7" y="213.1" class="st19" width="2.8" height="2.8"/>
				<rect x="157.7" y="210.3" class="st19" width="2.8" height="2.8"/>
				<rect x="157.7" y="207.5" class="st19" width="2.8" height="2.8"/>
			</g>
			<polygon class="st12" points="169.3,129.4 169.3,154.8 105.2,129.4 			"/>
			<polygon class="st12" points="142.9,278.3 58.4,278.3 58.4,255.7 			"/>
			<polygon class="st14" points="122.2,129.4 118.7,129.5 169.3,172.6 169.3,140.5 			"/>
			<polygon class="st14" points="58.4,275.3 169.3,260.8 169.3,278.3 58.4,278.3 			"/>
			<rect x="73.2" y="238" class="st13" width="3.6" height="1.8"/>
			<rect x="80.1" y="238" class="st13" width="9.5" height="1.8"/>
			<rect x="67.2" y="245.1" class="st13" width="6.1" height="1.8"/>
			<rect x="67.2" y="250.6" class="st13" width="4.2" height="1.8"/>
			<rect x="93.3" y="250.6" class="st13" width="4.2" height="1.8"/>
			<rect x="101.6" y="250.6" class="st13" width="8.1" height="1.8"/>
			<rect x="77.7" y="245.1" class="st13" width="10.5" height="1.8"/>
			<rect x="92.8" y="245.1" class="st13" width="2.7" height="1.8"/>
			<rect x="129.6" y="245.1" class="st13" width="2.7" height="1.8"/>
			<rect x="100.1" y="245.1" class="st13" width="14.4" height="1.8"/>
			<rect x="149.3" y="260.6" class="st13" width="11.2" height="1.8"/>
			<rect x="119.3" y="245.1" class="st13" width="5.9" height="1.8"/>
			<rect x="136.5" y="245.1" class="st13" width="9.6" height="1.8"/>
			<rect x="75.7" y="250.6" class="st13" width="13.3" height="1.8"/>
			<rect x="75.9" y="188.9" class="st13" width="17.7" height="3.6"/>
			<rect x="66.9" y="140.5" class="st13" width="17.7" height="3.6"/>
			<rect x="67.2" y="188.9" class="st13" width="4.2" height="3.6"/>
			<rect x="67.2" y="195.8" class="st13" width="12.2" height="1.8"/>
			<rect x="106.8" y="195.8" class="st13" width="8.5" height="1.8"/>
			<rect x="120.6" y="195.8" class="st13" width="3.2" height="1.8"/>
			<rect x="128.8" y="195.8" class="st13" width="16.9" height="1.8"/>
			<rect x="67.2" y="201.3" class="st13" width="4.2" height="1.8"/>
			<rect x="94.2" y="201.3" class="st13" width="4.2" height="1.8"/>
			<rect x="83.9" y="195.8" class="st13" width="4.2" height="1.8"/>
			<rect x="92.8" y="195.8" class="st13" width="8.8" height="1.8"/>
			<rect x="76.3" y="201.3" class="st13" width="13.3" height="1.8"/>
			<rect x="103" y="201.3" class="st13" width="8.1" height="1.8"/>
			<rect x="115.4" y="201.3" class="st13" width="4.5" height="1.8"/>
			<rect x="124.3" y="201.3" class="st13" width="11" height="1.8"/>
			<rect x="139.8" y="201.3" class="st13" width="20.6" height="1.8"/>
			<rect x="67.2" y="181" class="st8" width="6" height="3.1"/>
			<rect x="72.8" y="230.3" class="st8" width="2.8" height="2.7"/>
			<rect x="75.7" y="227.4" class="st20" width="2.8" height="5.6"/>
			<rect x="78.5" y="218.1" class="st11" width="2.8" height="14.8"/>
			<rect x="81.3" y="224.6" class="st21" width="2.8" height="8.3"/>
			<rect x="95.5" y="229.1" class="st8" width="2.8" height="3.9"/>
			<rect x="98.3" y="224" class="st20" width="2.8" height="9"/>
			<rect x="101.1" y="221" class="st11" width="2.8" height="12"/>
			<rect x="104" y="226.8" class="st21" width="2.8" height="6.2"/>
			<rect x="118.1" y="228.1" class="st8" width="2.8" height="4.8"/>
			<rect x="121" y="222.2" class="st20" width="2.8" height="10.8"/>
			<rect x="123.8" y="216.3" class="st11" width="2.8" height="16.6"/>
			<rect x="126.6" y="227.5" class="st21" width="2.8" height="5.4"/>
			<rect x="140.8" y="226.2" class="st22" width="2.8" height="6.7"/>
			<rect x="143.6" y="223.3" class="st20" width="2.8" height="9.6"/>
			<rect x="146.4" y="212.1" class="st11" width="2.8" height="20.8"/>
			<rect x="149.2" y="219.1" class="st21" width="2.8" height="13.8"/>
			<rect x="75.1" y="175.1" class="st8" width="6" height="9.1"/>
			<rect x="83.1" y="166.3" class="st11" width="6" height="17.9"/>
			<rect x="91" y="177.1" class="st8" width="6" height="7"/>
			<rect x="99" y="169.5" class="st11" width="6" height="14.7"/>
			<rect x="106.9" y="158.2" class="st11" width="6" height="26"/>
			<rect x="114.8" y="150.9" class="st11" width="6" height="33.3"/>
			<rect x="122.8" y="160.4" class="st11" width="6" height="23.8"/>
			<rect x="130.7" y="174" class="st22" width="6" height="10.2"/>
			<rect x="138.7" y="181" class="st22" width="6" height="3.1"/>
			<rect x="146.6" y="166.3" class="st11" width="6" height="17.9"/>
			<rect x="154.6" y="181" class="st22" width="6" height="3.1"/>
			<g>
				<rect x="67.2" y="232.6" class="st22" width="93.4" height="0.6"/>
			</g>
			<g>
				<rect x="67.2" y="183.9" class="st22" width="93.4" height="0.6"/>
			</g>
			<rect x="66.9" y="147.8" class="st13" width="3.2" height="1.8"/>
			<rect x="74" y="147.8" class="st13" width="8.6" height="1.8"/>
			<rect x="86.2" y="147.8" class="st13" width="5.6" height="1.8"/>
			<path class="st8" d="M70,238.5c0-0.8-0.6-1.4-1.4-1.4s-1.4,0.6-1.4,1.4s0.6,1.4,1.4,1.4S70,239.3,70,238.5z"/>
			<rect x="100.5" y="238" class="st13" width="7.8" height="1.8"/>
			<rect x="118.7" y="238" class="st13" width="15.7" height="1.8"/>
			<path class="st20" d="M97.3,238.5c0-0.8-0.6-1.4-1.4-1.4s-1.4,0.6-1.4,1.4s0.6,1.4,1.4,1.4S97.3,239.3,97.3,238.5z"/>
			<path class="st11" d="M115.3,238.5c0-0.8-0.6-1.4-1.4-1.4s-1.4,0.6-1.4,1.4s0.6,1.4,1.4,1.4S115.3,239.3,115.3,238.5z"/>
			<rect x="145" y="238" class="st13" width="2.2" height="1.8"/>
			<rect x="150.1" y="238" class="st13" width="9.8" height="1.8"/>
			<path class="st21" d="M141.6,238.5c0-0.8-0.6-1.4-1.4-1.4s-1.4,0.6-1.4,1.4s0.6,1.4,1.4,1.4S141.6,239.3,141.6,238.5z"/>
		</g>
	</g>
	<g>
		<path class="st23" d="M368.3,56.7H187.5c-1.7,0-3.3-0.9-4.2-2.3L157.2,5.1c-2.2-3.3,0.2-7.8,4.2-7.8h232.8c4,0,6.4,4.4,4.2,7.8
			l-25.9,49.3C371.6,55.8,370,56.7,368.3,56.7z"/>
		<path class="st24" d="M366.1,50.8H189.5L168.7,5c-0.3-0.6,0.2-1.2,0.8-1.2h216.8c0.6,0,1,0.6,0.8,1.2L366.1,50.8z"/>
		<path class="st25" d="M228.6,3.8l45.5,47.1h92l21-46c0.2-0.5-0.1-1-0.7-1H228.6z"/>
		<path class="st12" d="M183.3,62v112.5c0,2.9,1.8,5.3,4.1,5.3h181.1c2.2,0,4.1-2.4,4.1-5.3V62c0-2.9-1.8-5.3-4.1-5.3H187.4
			C185.1,56.7,183.3,59.1,183.3,62z"/>
		<path class="st26" d="M195.1,136.1h166c1.6,0,3-1.3,3-3V72.6c0-1.6-1.3-3-3-3h-166c-1.6,0-3,1.3-3,3v60.5
			C192.1,134.7,193.5,136.1,195.1,136.1z"/>
		<path class="st23" d="M349,56.7H206.6v5.6c0,0.4,0.3,0.7,0.7,0.7h141c0.4,0,0.7-0.3,0.7-0.7V56.7z"/>
		<g>
			<path class="st15" d="M197.4,77.4h8.1c0.5,0,0.9-0.4,0.9-0.9v-2.1c0-0.5-0.4-0.9-0.9-0.9h-8.1c-0.5,0-0.9,0.4-0.9,0.9v2.1
				C196.5,77,196.9,77.4,197.4,77.4z"/>
			<path class="st15" d="M209.3,77.4h8.1c0.5,0,0.9-0.4,0.9-0.9v-2.1c0-0.5-0.4-0.9-0.9-0.9h-8.1c-0.5,0-0.9,0.4-0.9,0.9v2.1
				C208.4,77,208.8,77.4,209.3,77.4z"/>
			<path class="st15" d="M221.3,77.4h8.1c0.5,0,0.9-0.4,0.9-0.9v-2.1c0-0.5-0.4-0.9-0.9-0.9h-8.1c-0.5,0-0.9,0.4-0.9,0.9v2.1
				C220.3,77,220.7,77.4,221.3,77.4z"/>
			<path class="st15" d="M233.2,77.4h8.1c0.5,0,0.9-0.4,0.9-0.9v-2.1c0-0.5-0.4-0.9-0.9-0.9h-8.1c-0.5,0-0.9,0.4-0.9,0.9v2.1
				C232.2,77,232.6,77.4,233.2,77.4z"/>
			<path class="st15" d="M245.1,77.4h8.1c0.5,0,0.9-0.4,0.9-0.9v-2.1c0-0.5-0.4-0.9-0.9-0.9h-8.1c-0.5,0-0.9,0.4-0.9,0.9v2.1
				C244.1,77,244.6,77.4,245.1,77.4z"/>
			<path class="st15" d="M257,77.4h8.1c0.5,0,0.9-0.4,0.9-0.9v-2.1c0-0.5-0.4-0.9-0.9-0.9H257c-0.5,0-0.9,0.4-0.9,0.9v2.1
				C256,77,256.5,77.4,257,77.4z"/>
			<path class="st15" d="M268.9,77.4h8.1c0.5,0,0.9-0.4,0.9-0.9v-2.1c0-0.5-0.4-0.9-0.9-0.9h-8.1c-0.5,0-0.9,0.4-0.9,0.9v2.1
				C268,77,268.4,77.4,268.9,77.4z"/>
			<path class="st15" d="M280.8,77.4h8.1c0.5,0,0.9-0.4,0.9-0.9v-2.1c0-0.5-0.4-0.9-0.9-0.9h-8.1c-0.5,0-0.9,0.4-0.9,0.9v2.1
				C279.9,77,280.3,77.4,280.8,77.4z"/>
			<path class="st15" d="M292.7,77.4h8.1c0.5,0,0.9-0.4,0.9-0.9v-2.1c0-0.5-0.4-0.9-0.9-0.9h-8.1c-0.5,0-0.9,0.4-0.9,0.9v2.1
				C291.8,77,292.2,77.4,292.7,77.4z"/>
			<path class="st15" d="M304.6,77.4h8.1c0.5,0,0.9-0.4,0.9-0.9v-2.1c0-0.5-0.4-0.9-0.9-0.9h-8.1c-0.5,0-0.9,0.4-0.9,0.9v2.1
				C303.7,77,304.1,77.4,304.6,77.4z"/>
			<path class="st15" d="M316.5,77.4h8.1c0.5,0,0.9-0.4,0.9-0.9v-2.1c0-0.5-0.4-0.9-0.9-0.9h-8.1c-0.5,0-0.9,0.4-0.9,0.9v2.1
				C315.6,77,316,77.4,316.5,77.4z"/>
			<path class="st15" d="M328.5,77.4h8.1c0.5,0,0.9-0.4,0.9-0.9v-2.1c0-0.5-0.4-0.9-0.9-0.9h-8.1c-0.5,0-0.9,0.4-0.9,0.9v2.1
				C327.5,77,327.9,77.4,328.5,77.4z"/>
			<path class="st15" d="M340.4,77.4h8.1c0.5,0,0.9-0.4,0.9-0.9v-2.1c0-0.5-0.4-0.9-0.9-0.9h-8.1c-0.5,0-0.9,0.4-0.9,0.9v2.1
				C339.4,77,339.8,77.4,340.4,77.4z"/>
			<path class="st15" d="M360.4,73.5h-8.1c-0.5,0-0.9,0.4-0.9,0.9v2.1c0,0.5,0.4,0.9,0.9,0.9h8.1c0.5,0,0.9-0.4,0.9-0.9v-2.1
				C361.4,73.9,360.9,73.5,360.4,73.5z"/>
			<path class="st15" d="M197.9,88.6h6.4c0.8,0,1.4-0.6,1.4-1.4v-6.4c0-0.8-0.6-1.4-1.4-1.4h-6.4c-0.8,0-1.4,0.6-1.4,1.4v6.4
				C196.5,88,197.1,88.6,197.9,88.6z"/>
			<path class="st15" d="M208.4,88.6h6.4c0.8,0,1.4-0.6,1.4-1.4v-6.4c0-0.8-0.6-1.4-1.4-1.4h-6.4c-0.8,0-1.4,0.6-1.4,1.4v6.4
				C207,88,207.7,88.6,208.4,88.6z"/>
			<path class="st15" d="M217.5,80.9v6.4c0,0.8,0.6,1.4,1.4,1.4h6.4c0.8,0,1.4-0.6,1.4-1.4v-6.4c0-0.8-0.6-1.4-1.4-1.4H219
				C218.2,79.5,217.5,80.1,217.5,80.9z"/>
			<path class="st15" d="M235.8,88.6c0.8,0,1.4-0.6,1.4-1.4v-6.4c0-0.8-0.6-1.4-1.4-1.4h-6.4c-0.8,0-1.4,0.6-1.4,1.4v6.4
				c0,0.8,0.6,1.4,1.4,1.4H235.8z"/>
			<path class="st15" d="M247.8,87.2v-6.4c0-0.8-0.6-1.4-1.4-1.4H240c-0.8,0-1.4,0.6-1.4,1.4v6.4c0,0.8,0.6,1.4,1.4,1.4h6.4
				C247.1,88.6,247.8,88,247.8,87.2z"/>
			<path class="st15" d="M256.9,79.5h-6.4c-0.8,0-1.4,0.6-1.4,1.4v6.4c0,0.8,0.6,1.4,1.4,1.4h6.4c0.8,0,1.4-0.6,1.4-1.4v-6.4
				C258.3,80.1,257.7,79.5,256.9,79.5z"/>
			<path class="st15" d="M259.6,80.9v6.4c0,0.8,0.6,1.4,1.4,1.4h6.4c0.8,0,1.4-0.6,1.4-1.4v-6.4c0-0.8-0.6-1.4-1.4-1.4H261
				C260.3,79.5,259.6,80.1,259.6,80.9z"/>
			<path class="st15" d="M271.6,79.5c-0.8,0-1.4,0.6-1.4,1.4v6.4c0,0.8,0.6,1.4,1.4,1.4h6.4c0.8,0,1.4-0.6,1.4-1.4v-6.4
				c0-0.8-0.6-1.4-1.4-1.4H271.6z"/>
			<path class="st15" d="M288.4,88.6c0.8,0,1.4-0.6,1.4-1.4v-6.4c0-0.8-0.6-1.4-1.4-1.4h-6.4c-0.8,0-1.4,0.6-1.4,1.4v6.4
				c0,0.8,0.6,1.4,1.4,1.4H288.4z"/>
			<path class="st15" d="M292.6,88.6h6.4c0.8,0,1.4-0.6,1.4-1.4v-6.4c0-0.8-0.6-1.4-1.4-1.4h-6.4c-0.8,0-1.4,0.6-1.4,1.4v6.4
				C291.2,88,291.8,88.6,292.6,88.6z"/>
			<path class="st15" d="M301.7,87.2c0,0.8,0.6,1.4,1.4,1.4h6.4c0.8,0,1.4-0.6,1.4-1.4v-6.4c0-0.8-0.6-1.4-1.4-1.4h-6.4
				c-0.8,0-1.4,0.6-1.4,1.4V87.2z"/>
			<path class="st15" d="M320,88.6c0.8,0,1.4-0.6,1.4-1.4v-6.4c0-0.8-0.6-1.4-1.4-1.4h-6.4c-0.8,0-1.4,0.6-1.4,1.4v6.4
				c0,0.8,0.6,1.4,1.4,1.4H320z"/>
			<path class="st15" d="M330.5,88.6c0.8,0,1.4-0.6,1.4-1.4v-6.4c0-0.8-0.6-1.4-1.4-1.4h-6.4c-0.8,0-1.4,0.6-1.4,1.4v6.4
				c0,0.8,0.6,1.4,1.4,1.4H330.5z"/>
			<path class="st15" d="M341.1,88.6c0.8,0,1.4-0.6,1.4-1.4v-6.4c0-0.8-0.6-1.4-1.4-1.4h-6.4c-0.8,0-1.4,0.6-1.4,1.4v6.4
				c0,0.8,0.6,1.4,1.4,1.4H341.1z"/>
			<path class="st15" d="M359.9,79.5h-14.7c-0.8,0-1.4,0.6-1.4,1.4v6.4c0,0.8,0.6,1.4,1.4,1.4h14.7c0.8,0,1.4-0.6,1.4-1.4v-6.4
				C361.4,80.1,360.7,79.5,359.9,79.5z"/>
			<path class="st15" d="M359.9,90.7h-6.4c-0.8,0-1.4,0.6-1.4,1.4v6.4c0,0.8,0.6,1.4,1.4,1.4h6.4c0.8,0,1.4-0.6,1.4-1.4v-6.4
				C361.4,91.3,360.7,90.7,359.9,90.7z"/>
			<path class="st15" d="M349.4,99.9c0.8,0,1.4-0.6,1.4-1.4v-6.4c0-0.8-0.6-1.4-1.4-1.4h-6.4c-0.8,0-1.4,0.6-1.4,1.4v6.4
				c0,0.8,0.6,1.4,1.4,1.4H349.4z"/>
			<path class="st15" d="M338.9,99.9c0.8,0,1.4-0.6,1.4-1.4v-6.4c0-0.8-0.6-1.4-1.4-1.4h-6.4c-0.8,0-1.4,0.6-1.4,1.4v6.4
				c0,0.8,0.6,1.4,1.4,1.4H338.9z"/>
			<path class="st15" d="M328.4,99.9c0.8,0,1.4-0.6,1.4-1.4v-6.4c0-0.8-0.6-1.4-1.4-1.4H322c-0.8,0-1.4,0.6-1.4,1.4v6.4
				c0,0.8,0.6,1.4,1.4,1.4H328.4z"/>
			<path class="st15" d="M310.1,92.1v6.4c0,0.8,0.6,1.4,1.4,1.4h6.4c0.8,0,1.4-0.6,1.4-1.4v-6.4c0-0.8-0.6-1.4-1.4-1.4h-6.4
				C310.7,90.7,310.1,91.3,310.1,92.1z"/>
			<path class="st15" d="M307.3,99.9c0.8,0,1.4-0.6,1.4-1.4v-6.4c0-0.8-0.6-1.4-1.4-1.4H301c-0.8,0-1.4,0.6-1.4,1.4v6.4
				c0,0.8,0.6,1.4,1.4,1.4H307.3z"/>
			<path class="st15" d="M289,92.1v6.4c0,0.8,0.6,1.4,1.4,1.4h6.4c0.8,0,1.4-0.6,1.4-1.4v-6.4c0-0.8-0.6-1.4-1.4-1.4h-6.4
				C289.7,90.7,289,91.3,289,92.1z"/>
			<path class="st15" d="M278.5,92.1v6.4c0,0.8,0.6,1.4,1.4,1.4h6.4c0.8,0,1.4-0.6,1.4-1.4v-6.4c0-0.8-0.6-1.4-1.4-1.4h-6.4
				C279.1,90.7,278.5,91.3,278.5,92.1z"/>
			<path class="st15" d="M275.8,99.9c0.8,0,1.4-0.6,1.4-1.4v-6.4c0-0.8-0.6-1.4-1.4-1.4h-6.4c-0.8,0-1.4,0.6-1.4,1.4v6.4
				c0,0.8,0.6,1.4,1.4,1.4H275.8z"/>
			<path class="st15" d="M257.5,92.1v6.4c0,0.8,0.6,1.4,1.4,1.4h6.4c0.8,0,1.4-0.6,1.4-1.4v-6.4c0-0.8-0.6-1.4-1.4-1.4h-6.4
				C258.1,90.7,257.5,91.3,257.5,92.1z"/>
			<path class="st15" d="M248.4,99.9h6.4c0.8,0,1.4-0.6,1.4-1.4v-6.4c0-0.8-0.6-1.4-1.4-1.4h-6.4c-0.8,0-1.4,0.6-1.4,1.4v6.4
				C246.9,99.2,247.6,99.9,248.4,99.9z"/>
			<path class="st15" d="M244.2,99.9c0.8,0,1.4-0.6,1.4-1.4v-6.4c0-0.8-0.6-1.4-1.4-1.4h-6.4c-0.8,0-1.4,0.6-1.4,1.4v6.4
				c0,0.8,0.6,1.4,1.4,1.4H244.2z"/>
			<path class="st15" d="M225.9,92.1v6.4c0,0.8,0.6,1.4,1.4,1.4h6.4c0.8,0,1.4-0.6,1.4-1.4v-6.4c0-0.8-0.6-1.4-1.4-1.4h-6.4
				C226.5,90.7,225.9,91.3,225.9,92.1z"/>
			<path class="st15" d="M216.8,90.7c-0.8,0-1.4,0.6-1.4,1.4v6.4c0,0.8,0.6,1.4,1.4,1.4h6.4c0.8,0,1.4-0.6,1.4-1.4v-6.4
				c0-0.8-0.6-1.4-1.4-1.4H216.8z"/>
			<path class="st15" d="M197.9,99.9h14.7c0.8,0,1.4-0.6,1.4-1.4v-6.4c0-0.8-0.6-1.4-1.4-1.4h-14.7c-0.8,0-1.4,0.6-1.4,1.4v6.4
				C196.5,99.2,197.1,99.9,197.9,99.9z"/>
			<path class="st15" d="M227.2,103.3c0-0.8-0.6-1.4-1.4-1.4h-6.4c-0.8,0-1.4,0.6-1.4,1.4v6.4c0,0.8,0.6,1.4,1.4,1.4h6.4
				c0.8,0,1.4-0.6,1.4-1.4V103.3z"/>
			<path class="st15" d="M230,111.1h6.4c0.8,0,1.4-0.6,1.4-1.4v-6.4c0-0.8-0.6-1.4-1.4-1.4H230c-0.8,0-1.4,0.6-1.4,1.4v6.4
				C228.6,110.4,229.2,111.1,230,111.1z"/>
			<path class="st15" d="M248.3,103.3c0-0.8-0.6-1.4-1.4-1.4h-6.4c-0.8,0-1.4,0.6-1.4,1.4v6.4c0,0.8,0.6,1.4,1.4,1.4h6.4
				c0.8,0,1.4-0.6,1.4-1.4V103.3z"/>
			<path class="st15" d="M258.8,109.6v-6.4c0-0.8-0.6-1.4-1.4-1.4H251c-0.8,0-1.4,0.6-1.4,1.4v6.4c0,0.8,0.6,1.4,1.4,1.4h6.4
				C258.2,111.1,258.8,110.4,258.8,109.6z"/>
			<path class="st15" d="M269.3,109.6v-6.4c0-0.8-0.6-1.4-1.4-1.4h-6.4c-0.8,0-1.4,0.6-1.4,1.4v6.4c0,0.8,0.6,1.4,1.4,1.4h6.4
				C268.7,111.1,269.3,110.4,269.3,109.6z"/>
			<path class="st15" d="M279.8,109.6v-6.4c0-0.8-0.6-1.4-1.4-1.4h-6.4c-0.8,0-1.4,0.6-1.4,1.4v6.4c0,0.8,0.6,1.4,1.4,1.4h6.4
				C279.2,111.1,279.8,110.4,279.8,109.6z"/>
			<path class="st15" d="M290.4,109.6v-6.4c0-0.8-0.6-1.4-1.4-1.4h-6.4c-0.8,0-1.4,0.6-1.4,1.4v6.4c0,0.8,0.6,1.4,1.4,1.4h6.4
				C289.7,111.1,290.4,110.4,290.4,109.6z"/>
			<path class="st15" d="M300.9,109.6v-6.4c0-0.8-0.6-1.4-1.4-1.4h-6.4c-0.8,0-1.4,0.6-1.4,1.4v6.4c0,0.8,0.6,1.4,1.4,1.4h6.4
				C300.3,111.1,300.9,110.4,300.9,109.6z"/>
			<path class="st15" d="M311.4,109.6v-6.4c0-0.8-0.6-1.4-1.4-1.4h-6.4c-0.8,0-1.4,0.6-1.4,1.4v6.4c0,0.8,0.6,1.4,1.4,1.4h6.4
				C310.8,111.1,311.4,110.4,311.4,109.6z"/>
			<path class="st15" d="M321.9,109.6v-6.4c0-0.8-0.6-1.4-1.4-1.4h-6.4c-0.8,0-1.4,0.6-1.4,1.4v6.4c0,0.8,0.6,1.4,1.4,1.4h6.4
				C321.3,111.1,321.9,110.4,321.9,109.6z"/>
			<path class="st15" d="M324.7,111.1h6.4c0.8,0,1.4-0.6,1.4-1.4v-6.4c0-0.8-0.6-1.4-1.4-1.4h-6.4c-0.8,0-1.4,0.6-1.4,1.4v6.4
				C323.3,110.4,323.9,111.1,324.7,111.1z"/>
			<path class="st15" d="M335.2,111.1h6.4c0.8,0,1.4-0.6,1.4-1.4v-6.4c0-0.8-0.6-1.4-1.4-1.4h-6.4c-0.8,0-1.4,0.6-1.4,1.4v6.4
				C333.8,110.4,334.4,111.1,335.2,111.1z"/>
			<path class="st15" d="M359.9,101.9h-14.7c-0.8,0-1.4,0.6-1.4,1.4v6.4c0,0.8,0.6,1.4,1.4,1.4h14.7c0.8,0,1.4-0.6,1.4-1.4v-6.4
				C361.4,102.5,360.7,101.9,359.9,101.9z"/>
			<path class="st15" d="M197.9,111.1h17.4c0.8,0,1.4-0.6,1.4-1.4v-6.4c0-0.8-0.6-1.4-1.4-1.4h-17.4c-0.8,0-1.4,0.6-1.4,1.4v6.4
				C196.5,110.4,197.1,111.1,197.9,111.1z"/>
			<path class="st15" d="M234.8,122.3c0.8,0,1.4-0.6,1.4-1.4v-6.4c0-0.8-0.6-1.4-1.4-1.4h-6.4c-0.8,0-1.4,0.6-1.4,1.4v6.4
				c0,0.8,0.6,1.4,1.4,1.4H234.8z"/>
			<path class="st15" d="M204.3,124.3h-6.4c-0.8,0-1.4,0.6-1.4,1.4v6.4c0,0.8,0.6,1.4,1.4,1.4h6.4c0.8,0,1.4-0.6,1.4-1.4v-6.4
				C205.7,124.9,205.1,124.3,204.3,124.3z"/>
			<path class="st15" d="M214.8,124.3h-6.4c-0.8,0-1.4,0.6-1.4,1.4v6.4c0,0.8,0.6,1.4,1.4,1.4h6.4c0.8,0,1.4-0.6,1.4-1.4v-6.4
				C216.2,124.9,215.6,124.3,214.8,124.3z"/>
			<path class="st15" d="M225.3,124.3H219c-0.8,0-1.4,0.6-1.4,1.4v6.4c0,0.8,0.6,1.4,1.4,1.4h6.4c0.8,0,1.4-0.6,1.4-1.4v-6.4
				C226.7,124.9,226.1,124.3,225.3,124.3z"/>
			<path class="st15" d="M308.4,124.3h-59c-0.8,0-1.4,0.6-1.4,1.4v6.4c0,0.8,0.6,1.4,1.4,1.4h59c0.8,0,1.4-0.6,1.4-1.4v-6.4
				C309.8,124.9,309.2,124.3,308.4,124.3z"/>
			<path class="st15" d="M245.3,113.1h-6.4c-0.8,0-1.4,0.6-1.4,1.4v6.4c0,0.8,0.6,1.4,1.4,1.4h6.4c0.8,0,1.4-0.6,1.4-1.4v-6.4
				C246.7,113.7,246.1,113.1,245.3,113.1z"/>
			<path class="st15" d="M248,120.8c0,0.8,0.6,1.4,1.4,1.4h6.4c0.8,0,1.4-0.6,1.4-1.4v-6.4c0-0.8-0.6-1.4-1.4-1.4h-6.4
				c-0.8,0-1.4,0.6-1.4,1.4V120.8z"/>
			<path class="st15" d="M260,122.3h6.4c0.8,0,1.4-0.6,1.4-1.4v-6.4c0-0.8-0.6-1.4-1.4-1.4H260c-0.8,0-1.4,0.6-1.4,1.4v6.4
				C258.5,121.6,259.2,122.3,260,122.3z"/>
			<path class="st15" d="M270.5,122.3h6.4c0.8,0,1.4-0.6,1.4-1.4v-6.4c0-0.8-0.6-1.4-1.4-1.4h-6.4c-0.8,0-1.4,0.6-1.4,1.4v6.4
				C269.1,121.6,269.7,122.3,270.5,122.3z"/>
			<path class="st15" d="M281,122.3h6.4c0.8,0,1.4-0.6,1.4-1.4v-6.4c0-0.8-0.6-1.4-1.4-1.4H281c-0.8,0-1.4,0.6-1.4,1.4v6.4
				C279.6,121.6,280.2,122.3,281,122.3z"/>
			<path class="st15" d="M291.5,122.3h6.4c0.8,0,1.4-0.6,1.4-1.4v-6.4c0-0.8-0.6-1.4-1.4-1.4h-6.4c-0.8,0-1.4,0.6-1.4,1.4v6.4
				C290.1,121.6,290.7,122.3,291.5,122.3z"/>
			<path class="st15" d="M308.4,113.1h-6.4c-0.8,0-1.4,0.6-1.4,1.4v6.4c0,0.8,0.6,1.4,1.4,1.4h6.4c0.8,0,1.4-0.6,1.4-1.4v-6.4
				C309.8,113.7,309.2,113.1,308.4,113.1z"/>
			<path class="st15" d="M311.2,120.8c0,0.8,0.6,1.4,1.4,1.4h6.4c0.8,0,1.4-0.6,1.4-1.4v-6.4c0-0.8-0.6-1.4-1.4-1.4h-6.4
				c-0.8,0-1.4,0.6-1.4,1.4V120.8z"/>
			<path class="st15" d="M330.9,114.5c0-0.8-0.6-1.4-1.4-1.4h-6.4c-0.8,0-1.4,0.6-1.4,1.4v6.4c0,0.8,0.6,1.4,1.4,1.4h6.4
				c0.8,0,1.4-0.6,1.4-1.4V114.5z"/>
			<path class="st15" d="M359.9,113.1h-26.3c-0.8,0-1.4,0.6-1.4,1.4v6.4c0,0.8,0.6,1.4,1.4,1.4h26.3c0.8,0,1.4-0.6,1.4-1.4v-6.4
				C361.4,113.7,360.7,113.1,359.9,113.1z"/>
			<path class="st15" d="M197.9,122.3h26.3c0.8,0,1.4-0.6,1.4-1.4v-6.4c0-0.8-0.6-1.4-1.4-1.4h-26.3c-0.8,0-1.4,0.6-1.4,1.4v6.4
				C196.5,121.6,197.1,122.3,197.9,122.3z"/>
			<path class="st15" d="M338.7,128.9h-6.4c-0.8,0-1.4,0.6-1.4,1.4v1.8c0,0.8,0.6,1.4,1.4,1.4h6.4c0.8,0,1.4-0.6,1.4-1.4v-1.8
				C340.1,129.5,339.4,128.9,338.7,128.9z"/>
			<path class="st15" d="M359.7,128.9h-6.4c-0.8,0-1.4,0.6-1.4,1.4v1.8c0,0.8,0.6,1.4,1.4,1.4h6.4c0.8,0,1.4-0.6,1.4-1.4v-1.8
				C361.1,129.5,360.5,128.9,359.7,128.9z"/>
			<path class="st15" d="M328.1,124.3h-15.8c-0.8,0-1.4,0.6-1.4,1.4v6.4c0,0.8,0.6,1.4,1.4,1.4h15.8c0.8,0,1.4-0.6,1.4-1.4v-6.4
				C329.6,124.9,328.9,124.3,328.1,124.3z"/>
			<path class="st15" d="M245.3,124.3h-15.8c-0.8,0-1.4,0.6-1.4,1.4v6.4c0,0.8,0.6,1.4,1.4,1.4h15.8c0.8,0,1.4-0.6,1.4-1.4v-6.4
				C246.7,124.9,246.1,124.3,245.3,124.3z"/>
			<path class="st15" d="M350.2,129.5h-8.4c-0.2,0-0.4,0.2-0.4,0.4v2.1c0,0.8,0.6,1.4,1.4,1.4h6.4c0.8,0,1.4-0.6,1.4-1.4v-2.1
				C350.6,129.7,350.4,129.5,350.2,129.5z"/>
			<path class="st15" d="M349.2,124.3h-6.4c-0.8,0-1.4,0.6-1.4,1.4v2.1c0,0.2,0.2,0.4,0.4,0.4h8.4c0.2,0,0.4-0.2,0.4-0.4v-2.1
				C350.6,124.9,350,124.3,349.2,124.3z"/>
		</g>
		<path class="st27" d="M204.8,76.7h-8.1c-0.5,0-0.9-0.4-0.9-0.9v-2.1c0-0.5,0.4-0.9,0.9-0.9h8.1c0.5,0,0.9,0.4,0.9,0.9v2.1
			C205.7,76.3,205.3,76.7,204.8,76.7z M217.6,75.7v-2.1c0-0.5-0.4-0.9-0.9-0.9h-8.1c-0.5,0-0.9,0.4-0.9,0.9v2.1
			c0,0.5,0.4,0.9,0.9,0.9h8.1C217.2,76.7,217.6,76.3,217.6,75.7z M229.5,75.7v-2.1c0-0.5-0.4-0.9-0.9-0.9h-8.1
			c-0.5,0-0.9,0.4-0.9,0.9v2.1c0,0.5,0.4,0.9,0.9,0.9h8.1C229.1,76.7,229.5,76.3,229.5,75.7z M241.4,75.7v-2.1
			c0-0.5-0.4-0.9-0.9-0.9h-8.1c-0.5,0-0.9,0.4-0.9,0.9v2.1c0,0.5,0.4,0.9,0.9,0.9h8.1C241,76.7,241.4,76.3,241.4,75.7z M253.4,75.7
			v-2.1c0-0.5-0.4-0.9-0.9-0.9h-8.1c-0.5,0-0.9,0.4-0.9,0.9v2.1c0,0.5,0.4,0.9,0.9,0.9h8.1C252.9,76.7,253.4,76.3,253.4,75.7z
			 M265.3,75.7v-2.1c0-0.5-0.4-0.9-0.9-0.9h-8.1c-0.5,0-0.9,0.4-0.9,0.9v2.1c0,0.5,0.4,0.9,0.9,0.9h8.1
			C264.8,76.7,265.3,76.3,265.3,75.7z M277.2,75.7v-2.1c0-0.5-0.4-0.9-0.9-0.9h-8.1c-0.5,0-0.9,0.4-0.9,0.9v2.1
			c0,0.5,0.4,0.9,0.9,0.9h8.1C276.8,76.7,277.2,76.3,277.2,75.7z M289.1,75.7v-2.1c0-0.5-0.4-0.9-0.9-0.9H280
			c-0.5,0-0.9,0.4-0.9,0.9v2.1c0,0.5,0.4,0.9,0.9,0.9h8.1C288.7,76.7,289.1,76.3,289.1,75.7z M301,75.7v-2.1c0-0.5-0.4-0.9-0.9-0.9
			h-8.1c-0.5,0-0.9,0.4-0.9,0.9v2.1c0,0.5,0.4,0.9,0.9,0.9h8.1C300.6,76.7,301,76.3,301,75.7z M312.9,75.7v-2.1
			c0-0.5-0.4-0.9-0.9-0.9h-8.1c-0.5,0-0.9,0.4-0.9,0.9v2.1c0,0.5,0.4,0.9,0.9,0.9h8.1C312.5,76.7,312.9,76.3,312.9,75.7z
			 M324.8,75.7v-2.1c0-0.5-0.4-0.9-0.9-0.9h-8.1c-0.5,0-0.9,0.4-0.9,0.9v2.1c0,0.5,0.4,0.9,0.9,0.9h8.1
			C324.4,76.7,324.8,76.3,324.8,75.7z M336.7,75.7v-2.1c0-0.5-0.4-0.9-0.9-0.9h-8.1c-0.5,0-0.9,0.4-0.9,0.9v2.1
			c0,0.5,0.4,0.9,0.9,0.9h8.1C336.3,76.7,336.7,76.3,336.7,75.7z M348.6,75.7v-2.1c0-0.5-0.4-0.9-0.9-0.9h-8.1
			c-0.5,0-0.9,0.4-0.9,0.9v2.1c0,0.5,0.4,0.9,0.9,0.9h8.1C348.2,76.7,348.6,76.3,348.6,75.7z M360.6,75.7v-2.1
			c0-0.5-0.4-0.9-0.9-0.9h-8.1c-0.5,0-0.9,0.4-0.9,0.9v2.1c0,0.5,0.4,0.9,0.9,0.9h8.1C360.1,76.7,360.6,76.3,360.6,75.7z
			 M204.9,86.5v-6.4c0-0.8-0.6-1.4-1.4-1.4h-6.4c-0.8,0-1.4,0.6-1.4,1.4v6.4c0,0.8,0.6,1.4,1.4,1.4h6.4
			C204.2,87.9,204.9,87.2,204.9,86.5z M215.4,86.5v-6.4c0-0.8-0.6-1.4-1.4-1.4h-6.4c-0.8,0-1.4,0.6-1.4,1.4v6.4
			c0,0.8,0.6,1.4,1.4,1.4h6.4C214.8,87.9,215.4,87.2,215.4,86.5z M225.9,86.5v-6.4c0-0.8-0.6-1.4-1.4-1.4h-6.4
			c-0.8,0-1.4,0.6-1.4,1.4v6.4c0,0.8,0.6,1.4,1.4,1.4h6.4C225.3,87.9,225.9,87.2,225.9,86.5z M236.4,86.5v-6.4
			c0-0.8-0.6-1.4-1.4-1.4h-6.4c-0.8,0-1.4,0.6-1.4,1.4v6.4c0,0.8,0.6,1.4,1.4,1.4h6.4C235.8,87.9,236.4,87.2,236.4,86.5z M247,86.5
			v-6.4c0-0.8-0.6-1.4-1.4-1.4h-6.4c-0.8,0-1.4,0.6-1.4,1.4v6.4c0,0.8,0.6,1.4,1.4,1.4h6.4C246.3,87.9,247,87.2,247,86.5z
			 M257.5,86.5v-6.4c0-0.8-0.6-1.4-1.4-1.4h-6.4c-0.8,0-1.4,0.6-1.4,1.4v6.4c0,0.8,0.6,1.4,1.4,1.4h6.4
			C256.9,87.9,257.5,87.2,257.5,86.5z M268,86.5v-6.4c0-0.8-0.6-1.4-1.4-1.4h-6.4c-0.8,0-1.4,0.6-1.4,1.4v6.4c0,0.8,0.6,1.4,1.4,1.4
			h6.4C267.4,87.9,268,87.2,268,86.5z M278.5,86.5v-6.4c0-0.8-0.6-1.4-1.4-1.4h-6.4c-0.8,0-1.4,0.6-1.4,1.4v6.4
			c0,0.8,0.6,1.4,1.4,1.4h6.4C277.9,87.9,278.5,87.2,278.5,86.5z M289.1,86.5v-6.4c0-0.8-0.6-1.4-1.4-1.4h-6.4
			c-0.8,0-1.4,0.6-1.4,1.4v6.4c0,0.8,0.6,1.4,1.4,1.4h6.4C288.4,87.9,289.1,87.2,289.1,86.5z M299.6,86.5v-6.4
			c0-0.8-0.6-1.4-1.4-1.4h-6.4c-0.8,0-1.4,0.6-1.4,1.4v6.4c0,0.8,0.6,1.4,1.4,1.4h6.4C298.9,87.9,299.6,87.2,299.6,86.5z
			 M310.1,86.5v-6.4c0-0.8-0.6-1.4-1.4-1.4h-6.4c-0.8,0-1.4,0.6-1.4,1.4v6.4c0,0.8,0.6,1.4,1.4,1.4h6.4
			C309.5,87.9,310.1,87.2,310.1,86.5z M320.6,86.5v-6.4c0-0.8-0.6-1.4-1.4-1.4h-6.4c-0.8,0-1.4,0.6-1.4,1.4v6.4
			c0,0.8,0.6,1.4,1.4,1.4h6.4C320,87.9,320.6,87.2,320.6,86.5z M331.2,86.5v-6.4c0-0.8-0.6-1.4-1.4-1.4h-6.4c-0.8,0-1.4,0.6-1.4,1.4
			v6.4c0,0.8,0.6,1.4,1.4,1.4h6.4C330.5,87.9,331.2,87.2,331.2,86.5z M341.7,86.5v-6.4c0-0.8-0.6-1.4-1.4-1.4h-6.4
			c-0.8,0-1.4,0.6-1.4,1.4v6.4c0,0.8,0.6,1.4,1.4,1.4h6.4C341,87.9,341.7,87.2,341.7,86.5z M360.6,86.5v-6.4c0-0.8-0.6-1.4-1.4-1.4
			h-14.7c-0.8,0-1.4,0.6-1.4,1.4v6.4c0,0.8,0.6,1.4,1.4,1.4h14.7C359.9,87.9,360.6,87.2,360.6,86.5z M352.8,99.1h6.4
			c0.8,0,1.4-0.6,1.4-1.4v-6.4c0-0.8-0.6-1.4-1.4-1.4h-6.4c-0.8,0-1.4,0.6-1.4,1.4v6.4C351.4,98.4,352,99.1,352.8,99.1z M342.3,99.1
			h6.4c0.8,0,1.4-0.6,1.4-1.4v-6.4c0-0.8-0.6-1.4-1.4-1.4h-6.4c-0.8,0-1.4,0.6-1.4,1.4v6.4C340.8,98.4,341.5,99.1,342.3,99.1z
			 M331.7,99.1h6.4c0.8,0,1.4-0.6,1.4-1.4v-6.4c0-0.8-0.6-1.4-1.4-1.4h-6.4c-0.8,0-1.4,0.6-1.4,1.4v6.4
			C330.3,98.4,331,99.1,331.7,99.1z M321.2,99.1h6.4c0.8,0,1.4-0.6,1.4-1.4v-6.4c0-0.8-0.6-1.4-1.4-1.4h-6.4c-0.8,0-1.4,0.6-1.4,1.4
			v6.4C319.8,98.4,320.4,99.1,321.2,99.1z M310.7,99.1h6.4c0.8,0,1.4-0.6,1.4-1.4v-6.4c0-0.8-0.6-1.4-1.4-1.4h-6.4
			c-0.8,0-1.4,0.6-1.4,1.4v6.4C309.3,98.4,309.9,99.1,310.7,99.1z M300.2,99.1h6.4c0.8,0,1.4-0.6,1.4-1.4v-6.4
			c0-0.8-0.6-1.4-1.4-1.4h-6.4c-0.8,0-1.4,0.6-1.4,1.4v6.4C298.7,98.4,299.4,99.1,300.2,99.1z M289.6,99.1h6.4
			c0.8,0,1.4-0.6,1.4-1.4v-6.4c0-0.8-0.6-1.4-1.4-1.4h-6.4c-0.8,0-1.4,0.6-1.4,1.4v6.4C288.2,98.4,288.9,99.1,289.6,99.1z
			 M279.1,99.1h6.4c0.8,0,1.4-0.6,1.4-1.4v-6.4c0-0.8-0.6-1.4-1.4-1.4h-6.4c-0.8,0-1.4,0.6-1.4,1.4v6.4
			C277.7,98.4,278.3,99.1,279.1,99.1z M268.6,99.1h6.4c0.8,0,1.4-0.6,1.4-1.4v-6.4c0-0.8-0.6-1.4-1.4-1.4h-6.4
			c-0.8,0-1.4,0.6-1.4,1.4v6.4C267.2,98.4,267.8,99.1,268.6,99.1z M258.1,99.1h6.4c0.8,0,1.4-0.6,1.4-1.4v-6.4
			c0-0.8-0.6-1.4-1.4-1.4h-6.4c-0.8,0-1.4,0.6-1.4,1.4v6.4C256.7,98.4,257.3,99.1,258.1,99.1z M247.6,99.1h6.4
			c0.8,0,1.4-0.6,1.4-1.4v-6.4c0-0.8-0.6-1.4-1.4-1.4h-6.4c-0.8,0-1.4,0.6-1.4,1.4v6.4C246.1,98.4,246.8,99.1,247.6,99.1z M237,99.1
			h6.4c0.8,0,1.4-0.6,1.4-1.4v-6.4c0-0.8-0.6-1.4-1.4-1.4H237c-0.8,0-1.4,0.6-1.4,1.4v6.4C235.6,98.4,236.2,99.1,237,99.1z
			 M226.5,99.1h6.4c0.8,0,1.4-0.6,1.4-1.4v-6.4c0-0.8-0.6-1.4-1.4-1.4h-6.4c-0.8,0-1.4,0.6-1.4,1.4v6.4
			C225.1,98.4,225.7,99.1,226.5,99.1z M216,99.1h6.4c0.8,0,1.4-0.6,1.4-1.4v-6.4c0-0.8-0.6-1.4-1.4-1.4H216c-0.8,0-1.4,0.6-1.4,1.4
			v6.4C214.6,98.4,215.2,99.1,216,99.1z M197.1,99.1h14.7c0.8,0,1.4-0.6,1.4-1.4v-6.4c0-0.8-0.6-1.4-1.4-1.4h-14.7
			c-0.8,0-1.4,0.6-1.4,1.4v6.4C195.7,98.4,196.3,99.1,197.1,99.1z M226.4,108.9v-6.4c0-0.8-0.6-1.4-1.4-1.4h-6.4
			c-0.8,0-1.4,0.6-1.4,1.4v6.4c0,0.8,0.6,1.4,1.4,1.4h6.4C225.8,110.3,226.4,109.7,226.4,108.9z M236.9,108.9v-6.4
			c0-0.8-0.6-1.4-1.4-1.4h-6.4c-0.8,0-1.4,0.6-1.4,1.4v6.4c0,0.8,0.6,1.4,1.4,1.4h6.4C236.3,110.3,236.9,109.7,236.9,108.9z
			 M247.5,108.9v-6.4c0-0.8-0.6-1.4-1.4-1.4h-6.4c-0.8,0-1.4,0.6-1.4,1.4v6.4c0,0.8,0.6,1.4,1.4,1.4h6.4
			C246.8,110.3,247.5,109.7,247.5,108.9z M258,108.9v-6.4c0-0.8-0.6-1.4-1.4-1.4h-6.4c-0.8,0-1.4,0.6-1.4,1.4v6.4
			c0,0.8,0.6,1.4,1.4,1.4h6.4C257.4,110.3,258,109.7,258,108.9z M268.5,108.9v-6.4c0-0.8-0.6-1.4-1.4-1.4h-6.4
			c-0.8,0-1.4,0.6-1.4,1.4v6.4c0,0.8,0.6,1.4,1.4,1.4h6.4C267.9,110.3,268.5,109.7,268.5,108.9z M279,108.9v-6.4
			c0-0.8-0.6-1.4-1.4-1.4h-6.4c-0.8,0-1.4,0.6-1.4,1.4v6.4c0,0.8,0.6,1.4,1.4,1.4h6.4C278.4,110.3,279,109.7,279,108.9z
			 M289.6,108.9v-6.4c0-0.8-0.6-1.4-1.4-1.4h-6.4c-0.8,0-1.4,0.6-1.4,1.4v6.4c0,0.8,0.6,1.4,1.4,1.4h6.4
			C288.9,110.3,289.6,109.7,289.6,108.9z M300.1,108.9v-6.4c0-0.8-0.6-1.4-1.4-1.4h-6.4c-0.8,0-1.4,0.6-1.4,1.4v6.4
			c0,0.8,0.6,1.4,1.4,1.4h6.4C299.4,110.3,300.1,109.7,300.1,108.9z M310.6,108.9v-6.4c0-0.8-0.6-1.4-1.4-1.4h-6.4
			c-0.8,0-1.4,0.6-1.4,1.4v6.4c0,0.8,0.6,1.4,1.4,1.4h6.4C310,110.3,310.6,109.7,310.6,108.9z M321.1,108.9v-6.4
			c0-0.8-0.6-1.4-1.4-1.4h-6.4c-0.8,0-1.4,0.6-1.4,1.4v6.4c0,0.8,0.6,1.4,1.4,1.4h6.4C320.5,110.3,321.1,109.7,321.1,108.9z
			 M331.7,108.9v-6.4c0-0.8-0.6-1.4-1.4-1.4h-6.4c-0.8,0-1.4,0.6-1.4,1.4v6.4c0,0.8,0.6,1.4,1.4,1.4h6.4
			C331,110.3,331.7,109.7,331.7,108.9z M342.2,108.9v-6.4c0-0.8-0.6-1.4-1.4-1.4h-6.4c-0.8,0-1.4,0.6-1.4,1.4v6.4
			c0,0.8,0.6,1.4,1.4,1.4h6.4C341.5,110.3,342.2,109.7,342.2,108.9z M360.6,108.9v-6.4c0-0.8-0.6-1.4-1.4-1.4h-14.7
			c-0.8,0-1.4,0.6-1.4,1.4v6.4c0,0.8,0.6,1.4,1.4,1.4h14.7C359.9,110.3,360.6,109.7,360.6,108.9z M215.9,108.9v-6.4
			c0-0.8-0.6-1.4-1.4-1.4h-17.4c-0.8,0-1.4,0.6-1.4,1.4v6.4c0,0.8,0.6,1.4,1.4,1.4h17.4C215.3,110.3,215.9,109.7,215.9,108.9z
			 M235.4,120.1v-6.4c0-0.8-0.6-1.4-1.4-1.4h-6.4c-0.8,0-1.4,0.6-1.4,1.4v6.4c0,0.8,0.6,1.4,1.4,1.4h6.4
			C234.7,121.5,235.4,120.9,235.4,120.1z M204.9,131.3v-6.4c0-0.8-0.6-1.4-1.4-1.4h-6.4c-0.8,0-1.4,0.6-1.4,1.4v6.4
			c0,0.8,0.6,1.4,1.4,1.4h6.4C204.2,132.7,204.9,132.1,204.9,131.3z M215.4,131.3v-6.4c0-0.8-0.6-1.4-1.4-1.4h-6.4
			c-0.8,0-1.4,0.6-1.4,1.4v6.4c0,0.8,0.6,1.4,1.4,1.4h6.4C214.8,132.7,215.4,132.1,215.4,131.3z M225.9,131.3v-6.4
			c0-0.8-0.6-1.4-1.4-1.4h-6.4c-0.8,0-1.4,0.6-1.4,1.4v6.4c0,0.8,0.6,1.4,1.4,1.4h6.4C225.3,132.7,225.9,132.1,225.9,131.3z
			 M309,131.3v-6.4c0-0.8-0.6-1.4-1.4-1.4h-59c-0.8,0-1.4,0.6-1.4,1.4v6.4c0,0.8,0.6,1.4,1.4,1.4h59
			C308.4,132.7,309,132.1,309,131.3z M245.9,120.1v-6.4c0-0.8-0.6-1.4-1.4-1.4h-6.4c-0.8,0-1.4,0.6-1.4,1.4v6.4
			c0,0.8,0.6,1.4,1.4,1.4h6.4C245.3,121.5,245.9,120.9,245.9,120.1z M256.4,120.1v-6.4c0-0.8-0.6-1.4-1.4-1.4h-6.4
			c-0.8,0-1.4,0.6-1.4,1.4v6.4c0,0.8,0.6,1.4,1.4,1.4h6.4C255.8,121.5,256.4,120.9,256.4,120.1z M266.9,120.1v-6.4
			c0-0.8-0.6-1.4-1.4-1.4h-6.4c-0.8,0-1.4,0.6-1.4,1.4v6.4c0,0.8,0.6,1.4,1.4,1.4h6.4C266.3,121.5,266.9,120.9,266.9,120.1z
			 M277.5,120.1v-6.4c0-0.8-0.6-1.4-1.4-1.4h-6.4c-0.8,0-1.4,0.6-1.4,1.4v6.4c0,0.8,0.6,1.4,1.4,1.4h6.4
			C276.8,121.5,277.5,120.9,277.5,120.1z M288,120.1v-6.4c0-0.8-0.6-1.4-1.4-1.4h-6.4c-0.8,0-1.4,0.6-1.4,1.4v6.4
			c0,0.8,0.6,1.4,1.4,1.4h6.4C287.3,121.5,288,120.9,288,120.1z M298.5,120.1v-6.4c0-0.8-0.6-1.4-1.4-1.4h-6.4
			c-0.8,0-1.4,0.6-1.4,1.4v6.4c0,0.8,0.6,1.4,1.4,1.4h6.4C297.9,121.5,298.5,120.9,298.5,120.1z M309,120.1v-6.4
			c0-0.8-0.6-1.4-1.4-1.4h-6.4c-0.8,0-1.4,0.6-1.4,1.4v6.4c0,0.8,0.6,1.4,1.4,1.4h6.4C308.4,121.5,309,120.9,309,120.1z
			 M319.5,120.1v-6.4c0-0.8-0.6-1.4-1.4-1.4h-6.4c-0.8,0-1.4,0.6-1.4,1.4v6.4c0,0.8,0.6,1.4,1.4,1.4h6.4
			C318.9,121.5,319.5,120.9,319.5,120.1z M330.1,120.1v-6.4c0-0.8-0.6-1.4-1.4-1.4h-6.4c-0.8,0-1.4,0.6-1.4,1.4v6.4
			c0,0.8,0.6,1.4,1.4,1.4h6.4C329.4,121.5,330.1,120.9,330.1,120.1z M360.6,120.1v-6.4c0-0.8-0.6-1.4-1.4-1.4h-26.3
			c-0.8,0-1.4,0.6-1.4,1.4v6.4c0,0.8,0.6,1.4,1.4,1.4h26.3C359.9,121.5,360.6,120.9,360.6,120.1z M224.8,120.1v-6.4
			c0-0.8-0.6-1.4-1.4-1.4h-26.3c-0.8,0-1.4,0.6-1.4,1.4v6.4c0,0.8,0.6,1.4,1.4,1.4h26.3C224.2,121.5,224.8,120.9,224.8,120.1z
			 M339.3,131.3v-1.8c0-0.8-0.6-1.4-1.4-1.4h-6.4c-0.8,0-1.4,0.6-1.4,1.4v1.8c0,0.8,0.6,1.4,1.4,1.4h6.4
			C338.6,132.7,339.3,132.1,339.3,131.3z M360.3,131.3v-1.8c0-0.8-0.6-1.4-1.4-1.4h-6.4c-0.8,0-1.4,0.6-1.4,1.4v1.8
			c0,0.8,0.6,1.4,1.4,1.4h6.4C359.7,132.7,360.3,132.1,360.3,131.3z M328.7,131.3v-6.4c0-0.8-0.6-1.4-1.4-1.4h-15.8
			c-0.8,0-1.4,0.6-1.4,1.4v6.4c0,0.8,0.6,1.4,1.4,1.4h15.8C328.1,132.7,328.7,132.1,328.7,131.3z M245.9,131.3v-6.4
			c0-0.8-0.6-1.4-1.4-1.4h-15.8c-0.8,0-1.4,0.6-1.4,1.4v6.4c0,0.8,0.6,1.4,1.4,1.4h15.8C245.3,132.7,245.9,132.1,245.9,131.3z
			 M349.8,131.3v-2.1c0-0.2-0.2-0.4-0.4-0.4H341c-0.2,0-0.4,0.2-0.4,0.4v2.1c0,0.8,0.6,1.4,1.4,1.4h6.4
			C349.2,132.7,349.8,132.1,349.8,131.3z M340.6,124.9v2.1c0,0.2,0.2,0.4,0.4,0.4h8.4c0.2,0,0.4-0.2,0.4-0.4v-2.1
			c0-0.8-0.6-1.4-1.4-1.4H342C341.2,123.5,340.6,124.1,340.6,124.9z"/>
		<path class="st13" d="M305.2,143.5v26.7c0,1.1-0.9,2-2.1,2h-48.8c-0.8,0-1.5-0.4-1.8-1c0.3,0.2,0.7,0.3,1.1,0.3h48.8
			c1.2,0,2.1-0.9,2.1-2v-26.7c0-0.4-0.1-0.7-0.3-1C304.8,142.2,305.2,142.8,305.2,143.5z"/>
		<path class="st13" d="M291.9,177.9H264c-1.1,0-2,0.9-2,2l0,0h31.9l0,0C293.9,178.7,293,177.9,291.9,177.9z"/>
		<path class="st27" d="M302.3,140.8h-48.8c-1.2,0-2.1,0.9-2.1,2.1v26.5c0,1.2,0.9,2.1,2.1,2.1h48.8c1.2,0,2.1-0.9,2.1-2.1v-26.5
			C304.4,141.7,303.5,140.8,302.3,140.8z"/>
	</g>
	<g>
		<g>
			<path class="st6" d="M263.8,260.8l2.9-94.3l-5.6-0.2l-0.1-2.4l-40,1.2l-67.8-2.1l-0.1,4l-5.6,0.2l0,0.5h-0.4
				c-0.5,0-0.9,0.4-0.9,0.9v75.3v75.3c0,0.5,0.4,0.9,0.9,0.9h111.7c0.5,0,0.9-0.4,0.9-0.9v-0.5l2.3,0.1l0.1-2.4l3.3-0.1L263.8,260.8
				z"/>
		</g>
		
			<rect x="146.7" y="162.5" transform="matrix(0.9996 -2.914015e-02 2.914015e-02 0.9996 -6.8691 6.0288)" class="st28" width="113.5" height="152.3"/>
		
			<rect x="146.7" y="162.5" transform="matrix(0.9996 -2.914015e-02 2.914015e-02 0.9996 -6.8691 6.0288)" class="st26" width="113.5" height="152.3"/>
		
			<rect x="128.4" y="181.1" transform="matrix(3.025521e-02 -0.9995 0.9995 3.025521e-02 -39.382 435.1443)" class="st28" width="152.3" height="113.5"/>
		<path class="st11" d="M247.2,218.5c0-5.5,7.3-11.4,7.3-15.5v-35c0-0.5-0.4-0.9-0.9-0.9H141.9c-0.5,0-0.9,0.4-0.9,0.9v75.3v75.3
			c0,0.5,0.4,0.9,0.9,0.9h111.7c0.5,0,0.9-0.4,0.9-0.9v-35c0-4.1-7.3-10-7.3-15.5c0-5.5,0-17.3,0-24.8
			C247.2,235.8,247.2,223.9,247.2,218.5z"/>
		<rect x="162.1" y="196.4" class="st13" width="71" height="37.2"/>
		<rect x="160.9" y="195.3" class="st28" width="71" height="37.2"/>
		<path class="st29" d="M149.8,167.2v152.3h-7.8c-0.5,0-0.9-0.4-0.9-0.9V168c0-0.5,0.4-0.9,0.9-0.9H149.8z"/>
		<path class="st15" d="M196.8,213.9h-30.1v-3.8h30.1V213.9z M207.8,210.1H203v3.8h4.8V210.1z M226.5,210.1h-13.3v3.8h13.3V210.1z
			 M176,218.7h-9.4v1.9h9.4V218.7z M199.7,218.7h-17v1.9h17V218.7z M211.4,218.7h-4.9v1.9h4.9V218.7z M187.4,225.4h-20.8v1.9h20.8
			V225.4z"/>
		<path class="st26" d="M246.6,218.4v49.7c0,5.5,7.3,11.4,7.3,15.5v35c0,0.5-0.4,0.9-0.9,0.9h-104v-6.6h71.3
			c11.1,0,20.1-9,20.1-20.1V167.2h13.1c0.2,0.2,0.4,0.4,0.4,0.7v35C254,207,246.6,213,246.6,218.4z"/>
	</g>
</g>
</svg>
