<?xml version="1.0" encoding="utf-8"?>
<!-- Generator: Adobe Illustrator 24.2.3, SVG Export Plug-In . SVG Version: 6.00 Build 0)  -->
<svg version="1.1" xmlns="http://www.w3.org/2000/svg" xmlns:xlink="http://www.w3.org/1999/xlink" x="0px" y="0px"
	 viewBox="0 0 450 420.4" style="enable-background:new 0 0 450 420.4;" xml:space="preserve">
<style type="text/css">
	.st0{opacity:0.46;fill:#FFFFFF;}
	.st1{fill:#0A90B7;}
	.st2{fill:#F2F2F2;}
	.st3{fill:#FFFFFF;}
	.st4{fill:#A6D7E5;}
	.st5{opacity:0.55;}
	.st6{fill:#757575;}
	.st7{fill:none;stroke:#FFFFFF;stroke-width:2;stroke-linecap:round;}
	.st8{fill:none;stroke:#0A90B7;stroke-width:0.75;stroke-miterlimit:10;}
	.st9{opacity:0.46;fill:#209ABD;}
	.st10{opacity:0.6;fill:#0A90B7;}
	.st11{opacity:0.55;fill:#F2F2F2;}
	.st12{fill:none;}
	.st13{fill:#444444;}
	.st14{font-family:'Muli-Light';}
	.st15{font-size:12.5337px;}
	.st16{letter-spacing:20;}
	.st17{font-family:'Montserrat-Medium';}
	.st18{font-size:14.1004px;}
	.st19{font-family:'Montserrat-SemiBold';}
	.st20{font-size:14.5706px;}
	.st21{fill:#0A90B7;stroke:#0A90B7;stroke-width:0.25;stroke-miterlimit:10;}
	.st22{font-family:'Muli-Black';}
	.st23{font-size:15.3138px;}
	.st24{letter-spacing:16;}
	.st25{letter-spacing:24;}
	.st26{font-size:17.228px;}
	.st27{fill:#1294C2;}
	.st28{fill:#C71F25;}
	.st29{opacity:0.1;enable-background:new    ;}
</style>
<g id="Layer_6">
</g>
<g id="Shapes">
</g>
<g id="background">
</g>
<g id="text">
</g>
<g id="Graphics">
</g>
<g id="Layer_5">
	<rect x="49.5" class="st0" width="351.6" height="420.4"/>
	<path id="Path_7616_2_" class="st1" d="M383.9,51.3H109V13.6h275l8.3,18.8L383.9,51.3z"/>
	<rect x="62.9" y="13.6" class="st2" width="46" height="37.7"/>
	<rect x="68.1" y="66.5" class="st11" width="310.5" height="95"/>
	<g class="st5">
		<rect x="95.8" y="114.6" class="st12" width="248.8" height="28.3"/>
		<text transform="matrix(1 0 0 1 95.8398 123.8467)"><tspan x="0" y="0" class="st13 st14 st15 st16">	</tspan><tspan x="23.5" y="0" class="st13 st14 st15">Security Authorization Package (SSP, </tspan><tspan x="23.5" y="15.7" class="st13 st14 st15">SAP, SAR, POA&amp;M)*</tspan></text>
	</g>
	<g class="st5">
		<rect x="89" y="85.7" class="st12" width="186.6" height="16.1"/>
		<text transform="matrix(1 0 0 1 88.9941 97.6445)" class="st1 st17 st18">Full Security Assessment</text>
	</g>
	<text transform="matrix(1 0 0 1 123.6201 37.6362)" class="st3 st19 st20">Authorization</text>
	<g class="st5">
		<path id="Path_1554_1_" class="st6" d="M227.5,180.9c0,5.2-4.2,9.5-9.5,9.5c-5.2,0-9.5-4.2-9.5-9.5c0-5.2,4.2-9.5,9.5-9.5
			C223.2,171.4,227.5,175.7,227.5,180.9z"/>
		<g id="Group_1434_1_" transform="translate(4.574 4.222)">
			<g id="arrow_1_" transform="translate(4.574 0)">
				<path id="arrow-2_1_" class="st3" d="M208.9,182.4c-0.3,0-0.5-0.1-0.7-0.3l-4.1-4c-0.4-0.4-0.4-1-0.1-1.4c0,0,0,0,0.1-0.1
					c0.4-0.4,1-0.4,1.4,0c0,0,0,0,0,0l3.4,3.3l3.4-3.3c0.4-0.4,1-0.4,1.4,0c0,0,0,0,0,0c0.4,0.4,0.4,1,0.1,1.4c0,0,0,0-0.1,0.1
					l-4.1,4C209.5,182.3,209.2,182.4,208.9,182.4z"/>
			</g>
			<path id="Path_1968_1_" class="st7" d="M213.4,180.2v-8.4"/>
		</g>
	</g>
	<g class="st5">
		<g>
			<circle class="st1" cx="98.9" cy="121.6" r="9.5"/>
		</g>
		<g>
			<path class="st3" d="M100.9,119c-0.3,0-0.5-0.2-0.5-0.5v-3.1h-4.8c-0.7,0-1.2,0.6-1.2,1.2v9.9c0,0.7,0.6,1.2,1.2,1.2h7.2
				c0.7,0,1.2-0.6,1.2-1.2V119H100.9z"/>
		</g>
		<path class="st4" d="M100.8,119h3.2l-3.6-3.6v3.2C100.4,118.8,100.6,119,100.8,119z"/>
		<polygon class="st2" points="104,121.6 104,119.1 100.9,119.1 		"/>
	</g>
	<g>
		<path class="st3" d="M95.4,41.9c-0.8,0-1.8-0.3-2.9-0.8L92.3,41l-0.2-0.1c-0.5-0.2-0.9-0.4-1.2-0.4c-0.3-0.1-0.5-0.1-0.7-0.1
			c-0.2,0-0.4,0-0.5,0.1c-0.1,0.1-0.2,0.2-0.3,0.4c-0.1,0.3-0.4,0.5-0.7,0.5h-2.1c-0.4,0-0.7-0.3-0.7-0.7c0-0.1,0-0.3,0-0.5
			c0-0.1,0-0.3,0-0.6c0-1.2,0.2-2.2,0.7-3.2c0.4-0.9,1.1-1.8,1.9-2.7c0.3-0.3,0.6-0.6,1-0.9c-0.1,0-0.2,0-0.3,0c-1,0-1.8-0.3-2.4-1
			c-0.6-0.7-0.9-1.7-0.9-2.8c0-1.8,0.7-3.3,2.1-4.5c1.3-1.1,3-1.7,5-1.7c2.1,0,3.8,0.6,5.1,1.6c1.4,1.1,2.1,2.7,2.1,4.7
			c0,1.5-0.5,2.8-1.4,3.8c-0.3,0.3-0.6,0.6-0.9,0.8h1.9c0.4,0,0.7,0.4,0.7,0.8c0,0.1,0,0.3,0,0.4c0,0.1,0,0.3,0,0.6
			c0,2-0.4,3.6-1.3,4.6C98.4,41.4,97.1,41.9,95.4,41.9L95.4,41.9z M93.9,35.7c0.3,0,0.6,0.1,0.9,0.2c1,0.2,1.4,0.3,1.4,0.3
			c0.1,0,0.4,0,0.5-0.2c0-0.1,0.2-0.3,0.2-1.2c0-0.1,0-0.2,0-0.3c-0.5,0.3-1.1,0.6-1.8,0.8c-0.2,0.1-0.5,0.2-0.9,0.3
			C94.1,35.6,94,35.6,93.9,35.7L93.9,35.7z M90.8,27.3c0.2,0.1,0.4,0.3,0.6,0.5c0.5,0.5,0.7,1.2,0.7,2c0,0.6-0.2,1.2-0.5,1.7
			c0.3-0.2,0.5-0.3,0.7-0.4c0.8-0.6,1.2-1,1.3-1.2c0.2-0.3,0.3-0.6,0.3-1c0-0.5-0.1-0.8-0.5-1.1c-0.4-0.4-1-0.5-1.7-0.5
			C91.5,27.2,91.1,27.2,90.8,27.3L90.8,27.3z M78.6,41.9c-2.1,0-3.9-0.9-5.2-2.6c-1.3-1.7-2-4.1-2-6.9c0-2.8,0.7-5.2,2-6.9
			c1.3-1.7,3.1-2.6,5.2-2.6c2.1,0,3.9,0.9,5.2,2.6c1.3,1.7,2,4.1,2,6.9c0,2.8-0.7,5.1-2,6.9C82.5,41,80.7,41.9,78.6,41.9L78.6,41.9z
			 M78.6,27.1c-0.6,0-0.9,0.3-1.2,1c-0.2,0.6-0.5,1.8-0.5,4.4c0,2.6,0.3,3.8,0.5,4.4c0.3,0.7,0.6,1,1.2,1c0.6,0,1-0.3,1.2-1
			c0.2-0.6,0.5-1.8,0.5-4.3c0-2.6-0.3-3.8-0.5-4.4C79.6,27.4,79.2,27.1,78.6,27.1L78.6,27.1z"/>
		<path class="st1" d="M86.7,40.5c0-0.1,0-0.2,0-0.3c0-0.1,0-0.3,0-0.5c0-1,0.2-1.9,0.6-2.8c0.4-0.8,1-1.6,1.8-2.4
			c0.6-0.5,1.4-1.2,2.6-1.9c0.5-0.3,0.9-0.6,1.2-0.7c0.8-0.5,1.3-1,1.6-1.4c0.3-0.5,0.4-1,0.4-1.6c0-0.8-0.3-1.4-0.8-1.8
			c-0.5-0.5-1.2-0.7-2.1-0.7c-0.7,0-1.3,0.2-1.8,0.5c-0.5,0.3-0.8,0.8-1,1.4c0.1,0,0.3-0.1,0.4-0.1c0.1,0,0.2,0,0.3,0
			c0.5,0,0.9,0.2,1.2,0.5c0.3,0.3,0.5,0.8,0.5,1.3c0,0.6-0.2,1.1-0.6,1.6c-0.4,0.4-1,0.6-1.6,0.6c-0.8,0-1.4-0.3-1.9-0.8
			c-0.5-0.5-0.7-1.2-0.7-2.2c0-1.5,0.6-2.7,1.8-3.7c1.2-1,2.7-1.5,4.6-1.5c2,0,3.5,0.5,4.7,1.5c1.2,1,1.8,2.3,1.8,3.9
			c0,1.2-0.4,2.3-1.1,3.1c-0.8,0.9-1.9,1.5-3.3,2c-0.2,0.1-0.5,0.2-0.9,0.3c-2.4,0.8-4,1.7-4.6,2.7c0.5-0.3,1-0.5,1.5-0.7
			c0.5-0.1,1-0.2,1.6-0.2c0.6,0,1.3,0.1,2.1,0.3c0.8,0.2,1.3,0.3,1.6,0.3c0.5,0,0.9-0.2,1.1-0.5c0.2-0.3,0.3-0.9,0.3-1.7h2.1
			c0,0.1,0,0.3,0,0.4c0,0.1,0,0.3,0,0.6c0,1.8-0.4,3.1-1.1,4C98,40.6,96.9,41,95.4,41c-0.7,0-1.6-0.2-2.7-0.7
			c-0.2-0.1-0.3-0.1-0.4-0.2c-0.5-0.2-1-0.4-1.3-0.5c-0.3-0.1-0.6-0.1-0.9-0.1c-0.3,0-0.6,0.1-0.9,0.3c-0.2,0.2-0.4,0.4-0.6,0.8
			H86.7z M72,32.4c0-2.6,0.6-4.7,1.8-6.2c1.2-1.6,2.8-2.4,4.8-2.4c2,0,3.6,0.8,4.8,2.4c1.2,1.6,1.8,3.7,1.8,6.2
			c0,2.6-0.6,4.7-1.8,6.2c-1.2,1.6-2.8,2.4-4.8,2.4c-2,0-3.6-0.8-4.8-2.3C72.6,37.1,72,35,72,32.4z M76.2,32.4
			c0,2.2,0.2,3.8,0.6,4.8c0.4,1,1,1.5,1.8,1.5c0.8,0,1.4-0.5,1.8-1.5c0.4-1,0.6-2.6,0.6-4.8c0-2.2-0.2-3.8-0.6-4.8
			c-0.4-1-1-1.5-1.8-1.5c-0.8,0-1.4,0.5-1.8,1.5C76.4,28.6,76.2,30.2,76.2,32.4z"/>
		<path class="st4" d="M77.1,38.1l-0.2,0.3c-0.2-0.3-0.4-0.6-0.5-0.9c-0.4-1.1-0.6-2.8-0.6-5.1c0-2.3,0.2-4,0.6-5.1
			c0.5-1.2,1.3-1.8,2.3-1.8c0.7,0,1.3,0.3,1.7,0.9l-0.2,0.3c-0.4-0.5-0.9-0.7-1.5-0.7c-0.9,0-1.6,0.5-2,1.6c-0.4,1-0.6,2.6-0.6,4.9
			c0,2.3,0.2,3.9,0.6,4.9C76.8,37.6,76.9,37.8,77.1,38.1z M83.3,26.4l-0.2,0.3c1.1,1.4,1.6,3.3,1.6,5.7c0,2.4-0.6,4.3-1.7,5.7
			c-1.1,1.4-2.6,2.2-4.4,2.2c-1.8,0-3.3-0.7-4.4-2.2v0L74,38.5c0,0,0,0,0,0c1.2,1.5,2.7,2.3,4.6,2.3c1.9,0,3.5-0.8,4.7-2.3
			c1.2-1.5,1.8-3.6,1.8-6.1C85,29.9,84.5,27.9,83.3,26.4z M99.6,35.2c0-0.1,0-0.1,0-0.2l-0.4,0.5c0,0.1,0,0.2,0,0.3
			c0,1.6-0.3,2.8-0.9,3.5c-0.6,0.7-1.6,1.1-2.9,1.1c-0.7,0-1.5-0.2-2.5-0.7l-0.4-0.2c-0.6-0.2-1-0.4-1.4-0.5c-0.4-0.1-0.7-0.2-1-0.2
			c-0.4,0-0.8,0.1-1.1,0.4c-0.2,0.2-0.4,0.4-0.6,0.7h-1.2l-0.4,0.5h1.8c0.2-0.3,0.4-0.6,0.6-0.8c0.3-0.2,0.6-0.3,1-0.3
			c0.3,0,0.6,0.1,0.9,0.2c0.4,0.1,0.8,0.3,1.3,0.5l0.4,0.2c1,0.5,1.9,0.7,2.6,0.7c1.4,0,2.5-0.4,3.2-1.2c0.7-0.8,1-2.1,1-3.8
			C99.6,35.5,99.6,35.3,99.6,35.2z M87.4,31c0.4,0.5,1,0.7,1.8,0.7c0.6,0,1.1-0.2,1.5-0.6c0.4-0.4,0.6-0.8,0.6-1.4
			c0-0.5-0.1-0.8-0.4-1.1L90.6,29c0,0,0,0,0,0c0.2,0.2,0.3,0.5,0.3,0.8c0,0.4-0.1,0.7-0.4,1c-0.3,0.3-0.7,0.5-1.3,0.5
			c-0.6,0-1.1-0.2-1.5-0.6L87.4,31C87.4,31,87.4,31,87.4,31z M98.2,26.7C98.2,26.8,98.2,26.8,98.2,26.7c0.5,0.7,0.7,1.5,0.7,2.4
			c0,1-0.3,1.9-1,2.7c-0.7,0.8-1.7,1.4-3.1,1.9c-0.2,0.1-0.5,0.2-0.9,0.3c-2.6,0.8-4.2,1.8-4.9,2.9c-0.2,0.2-0.2,0.6,0,0.9l0.3-0.3
			c-0.1-0.1-0.1-0.2,0-0.3c0.7-1.1,2.2-2,4.7-2.8c0.4-0.1,0.7-0.2,0.9-0.3c1.4-0.5,2.5-1.1,3.3-2c0.7-0.8,1.1-1.8,1.1-3
			c0-1.1-0.3-2-0.8-2.8L98.2,26.7z M94.3,26.4c-0.6-0.5-1.4-0.8-2.4-0.8c-0.8,0-1.5,0.2-2.1,0.5c-0.6,0.4-1,1-1.3,1.7
			c-0.1,0.2-0.1,0.5,0.1,0.7l0.3-0.3c0-0.1-0.1-0.2,0-0.2c0.2-0.6,0.6-1.1,1.1-1.5c0.5-0.3,1.1-0.5,1.9-0.5c0.9,0,1.6,0.2,2.2,0.7
			L94.3,26.4C94.3,26.4,94.3,26.4,94.3,26.4z"/>
	</g>
	<rect x="49.5" class="st9" width="351.6" height="420.4"/>
	<g>
		<polygon class="st1" points="49.2,409 37.5,393.7 49.2,393.7 		"/>
		<polygon class="st1" points="400.8,409 412.5,393.7 400.8,393.7 		"/>
		<rect x="49.2" y="385.3" class="st10" width="351.6" height="14.5"/>
	</g>
	<g>
		<rect x="37.6" y="80.9" class="st2" width="374.9" height="312.5"/>
	</g>
	<g>
		<rect x="71.4" y="142.2" class="st12" width="304" height="226"/>
		<text transform="matrix(1 0 0 1 71.3809 153.4995)"><tspan x="0" y="0" class="st21 st22 st23">•</tspan><tspan x="8.2" y="0" class="st13 st14 st23 st24">	</tspan><tspan x="28.7" y="0" class="st13 st14 st23">Kick-Off (~1 week)</tspan><tspan x="0" y="28.7" class="st21 st22 st23"> </tspan><tspan x="4.5" y="28.7" class="st13 st14 st23 st16">	</tspan><tspan x="28.7" y="28.7" class="st13 st14 st23">FedRAMP Marketplace Designation </tspan><tspan x="28.7" y="47.9" class="st13 st14 st23">- In Process</tspan><tspan x="0" y="76.6" class="st21 st22 st23">•</tspan><tspan x="8.2" y="76.6" class="st13 st14 st23 st24">	</tspan><tspan x="28.7" y="76.6" class="st13 st14 st23">Review (~3-4 weeks)</tspan><tspan x="0" y="105.3" class="st21 st22 st23">•</tspan><tspan x="8.2" y="105.3" class="st13 st14 st23 st24">	</tspan><tspan x="28.7" y="105.3" class="st13 st14 st23">Remediation (~3 weeks)</tspan><tspan x="0" y="134" class="st21 st22 st23">•</tspan><tspan x="8.2" y="134" class="st13 st14 st23 st24">	</tspan><tspan x="28.7" y="134" class="st13 st14 st23">Final Review (~4 weeks)</tspan><tspan x="0" y="162.7" class="st21 st22 st23">•</tspan><tspan x="8.2" y="162.7" class="st13 st14 st23 st24">	</tspan><tspan x="28.7" y="162.7" class="st13 st14 st23">JAB P-ATO Issued</tspan><tspan x="0" y="191.4" class="st21 st22 st23 st25">	</tspan><tspan x="28.7" y="191.4" class="st13 st14 st23">FedRAMP Marketplace Designation  </tspan><tspan x="28.7" y="210.6" class="st13 st14 st23">- Authorized</tspan></text>
	</g>
	<g>
		<text transform="matrix(1 0 0 1 63.0117 120.8984)" class="st1 st17 st26">JAB Authorization Process</text>
	</g>
	<line class="st8" x1="75.1" y1="196.9" x2="75.1" y2="325.8"/>
	<line class="st8" x1="75.1" y1="147.6" x2="75.1" y2="158.2"/>
	<g>
		<g id="g56755_1_" transform="matrix(14,0,0,14,49637.042,519374.88)">
			<path id="path56757_1_" class="st28" d="M-3539.3-37085.5c0,0.4-0.4,0.8-0.8,0.8l0,0c-0.5,0-0.8-0.4-0.8-0.8l0,0
				c0-0.5,0.4-0.8,0.8-0.8l0,0C-3539.7-37086.3-3539.3-37086-3539.3-37085.5L-3539.3-37085.5z"/>
		</g>
		<path id="path53460_1_" class="st29" d="M80.3,171.7c-3.3,1.6-5,4.8-6.6,7.8l-2.2-2.2c-1.1,0.8-2.3,1.5-3.4,2.1l9.2,9.2
			c5.1-1.2,8.9-5.6,9.2-10.8L80.3,171.7z"/>
		<path id="path38606_1_" class="st3" d="M71.5,177.3c0.7,0.9,1.2,2,1.7,3.2c1.7-3.3,3.4-7.1,7.1-8.8c-0.3,1.5-0.6,3.3-0.1,4.9
			c-3.1,1.5-5,4.3-6.9,7.3c-1.9-2.6-3.4-3.4-5.2-4.3C69.2,178.8,70.4,178.2,71.5,177.3L71.5,177.3z"/>
	</g>
	<g>
		<g id="g56755_3_" transform="matrix(14,0,0,14,49637.042,519374.88)">
			<path id="path56757_3_" class="st28" d="M-3539.3-37073.9c0,0.5-0.4,0.8-0.8,0.8l0,0c-0.5,0-0.8-0.4-0.8-0.8l0,0
				c0-0.4,0.4-0.8,0.8-0.8l0,0C-3539.7-37074.8-3539.3-37074.4-3539.3-37073.9L-3539.3-37073.9z"/>
		</g>
		<path id="path53460_3_" class="st29" d="M80.3,333.8c-3.3,1.6-5,4.8-6.6,7.8l-2.2-2.2c-1.1,0.8-2.3,1.5-3.4,2.1l9.2,9.2
			c5.1-1.2,8.9-5.6,9.2-10.8L80.3,333.8z"/>
		<path id="path38606_3_" class="st3" d="M71.5,339.4c0.7,0.9,1.2,2,1.7,3.2c1.7-3.3,3.4-7.1,7.1-8.8c-0.3,1.5-0.6,3.3-0.1,4.9
			c-3.1,1.5-5,4.3-6.9,7.3c-1.9-2.6-3.4-3.4-5.2-4.3C69.2,340.9,70.4,340.2,71.5,339.4L71.5,339.4z"/>
	</g>
</g>
</svg>
