<?xml version="1.0" encoding="utf-8"?>
<!-- Generator: Adobe Illustrator 24.2.3, SVG Export Plug-In . SVG Version: 6.00 Build 0)  -->
<svg version="1.1" xmlns="http://www.w3.org/2000/svg" xmlns:xlink="http://www.w3.org/1999/xlink" x="0px" y="0px"
	 viewBox="0 0 320 1413.8" style="enable-background:new 0 0 320 1413.8;" xml:space="preserve">
<style type="text/css">
	.st0{display:none;}
	.st1{display:inline;fill:#F2F2F2;}
	.st2{fill:#FFFFFF;}
	.st3{fill:#0A90B7;}
	.st4{fill:#1294C2;}
	.st5{fill:none;stroke:#0D3751;stroke-width:0.1394;stroke-linecap:round;stroke-linejoin:round;stroke-miterlimit:10;}
	.st6{fill:none;}
	.st7{fill:#444444;}
	.st8{font-family:'Muli-LightItalic';}
	.st9{font-size:14px;}
	.st10{fill:none;stroke:#0A90B7;stroke-miterlimit:10;}
	.st11{fill:#F2F2F2;}
	.st12{fill:#B8322E;}
	.st13{fill:#A00A0F;}
	.st14{opacity:0.52;fill:#A00A0F;}
	.st15{opacity:0.45;fill:#B8322E;}
	.st16{fill:none;stroke:#757575;stroke-width:0.25;stroke-miterlimit:10;}
	.st17{fill:none;stroke:#0A90B7;stroke-width:0.75;stroke-miterlimit:10;}
	.st18{fill:#A6D7E5;}
	.st19{font-family:'Montserrat-SemiBold';}
	.st20{font-size:18px;}
	.st21{font-family:'Montserrat-Medium';}
	.st22{font-family:'Muli-Light';}
	.st23{font-size:16px;}
	.st24{letter-spacing:25;}
	.st25{font-size:17.5px;}
	.st26{fill:#757575;}
	.st27{fill:none;stroke:#FFFFFF;stroke-width:2;stroke-linecap:round;}
	.st28{fill:#D8D8D8;}
	.st29{fill:#C71F25;}
	.st30{opacity:0.1;enable-background:new    ;}
	.st31{fill:#0A90B7;stroke:#0A90B7;stroke-width:0.25;stroke-miterlimit:10;}
	.st32{font-family:'Muli-Black';}
	.st33{letter-spacing:17;}
	.st34{font-family:'Montserrat-LightItalic';}
	.st35{letter-spacing:21;}
</style>
<g id="Layer_5" class="st0">
	<rect x="-4048.4" y="-381.8" class="st1" width="5698.4" height="2596.5"/>
</g>
<g id="Shapes">
	<rect y="624.5" class="st2" width="319.9" height="564.4"/>
	<g>
		<rect x="25.6" y="1067.9" class="st6" width="270.3" height="86.1"/>
		<text transform="matrix(1 0 0 1 25.6041 1078.1907)"><tspan x="0" y="0" class="st7 st8 st9">Note: During the authorization process a </tspan><tspan x="0" y="18" class="st7 st8 st9">CSP must be prioritized by the JAB before </tspan><tspan x="0" y="36" class="st7 st8 st9">entering the JAB P-ATO process. The CSP </tspan><tspan x="0" y="54" class="st7 st8 st9">can obtain FedRAMP Ready status either </tspan><tspan x="0" y="72" class="st7 st8 st9">before or after the JAB’s prioritization.</tspan></text>
	</g>
</g>
<g id="background">
</g>
<g id="text">
</g>
<g id="Graphics">
	<line class="st16" x1="26.2" y1="207.8" x2="299.6" y2="207.8"/>
	<line class="st16" x1="26.2" y1="469.6" x2="299.6" y2="469.6"/>
	<g>
		<path id="Path_7616_4_" class="st3" d="M297.1,707.1H57.4v-46.5h239.7l10.2,23.3L297.1,707.1z"/>
		<rect x="0.5" y="660.5" class="st11" width="56.9" height="46.5"/>
		<text transform="matrix(1 0 0 1 73.4872 690.2429)" class="st2 st19 st20">Authorization</text>
		<g>
			<path class="st11" d="M40.6,695.5c-1,0-2.2-0.3-3.6-0.9l-0.3-0.1l-0.2-0.1c-0.6-0.3-1.1-0.4-1.5-0.6c-0.3-0.1-0.6-0.2-0.9-0.2
				c-0.2,0-0.4,0.1-0.6,0.2c-0.1,0.1-0.3,0.3-0.4,0.5c-0.2,0.4-0.5,0.6-0.8,0.6h-2.5c-0.4,0-0.8-0.4-0.9-0.9c0-0.2,0-0.4-0.1-0.6
				c0-0.2,0-0.4,0-0.7c0-1.4,0.3-2.8,0.8-3.9c0.5-1.2,1.3-2.3,2.4-3.3c0.4-0.3,0.8-0.7,1.3-1.1c-0.1,0-0.3,0-0.4,0
				c-1.2,0-2.2-0.4-2.9-1.3c-0.8-0.9-1.2-2-1.2-3.5c0-2.2,0.9-4.1,2.6-5.6c1.6-1.4,3.7-2.1,6.1-2.1c2.6,0,4.7,0.7,6.3,2
				c1.7,1.4,2.6,3.4,2.6,5.8c0,1.8-0.6,3.4-1.7,4.7c-0.3,0.4-0.7,0.7-1.1,1H46c0.5,0,0.9,0.5,0.9,1c0,0.2,0,0.3,0,0.5
				c0,0.2,0,0.4,0,0.8c0,2.5-0.5,4.4-1.6,5.7C44.3,694.9,42.7,695.5,40.6,695.5L40.6,695.5z M38.7,687.8c0.4,0.1,0.7,0.1,1.2,0.2
				c1.3,0.3,1.7,0.3,1.8,0.3c0.2,0,0.5,0,0.6-0.2c0.1-0.1,0.2-0.4,0.2-1.5c0-0.1,0-0.2,0-0.3c-0.7,0.4-1.4,0.7-2.2,0.9
				c-0.2,0.1-0.6,0.2-1.1,0.3C39.1,687.7,38.9,687.7,38.7,687.8L38.7,687.8z M35,677.5c0.3,0.1,0.5,0.3,0.8,0.6
				c0.6,0.6,0.9,1.5,0.9,2.5c0,0.8-0.2,1.5-0.6,2.1c0.4-0.2,0.6-0.4,0.8-0.5c1-0.7,1.5-1.2,1.7-1.5c0.2-0.4,0.3-0.8,0.3-1.3
				c0-0.6-0.2-1-0.6-1.4c-0.5-0.4-1.2-0.7-2.1-0.7C35.8,677.3,35.3,677.4,35,677.5L35,677.5z M19.9,695.5c-2.6,0-4.8-1.1-6.5-3.2
				c-1.7-2.1-2.5-5-2.5-8.5c0-3.5,0.8-6.4,2.5-8.5c1.7-2.2,3.8-3.2,6.5-3.2c2.6,0,4.8,1.1,6.5,3.2c1.7,2.2,2.5,5,2.5,8.5
				c0,3.5-0.8,6.4-2.5,8.5C24.7,694.4,22.5,695.5,19.9,695.5L19.9,695.5z M19.9,677.2c-0.7,0-1.2,0.4-1.5,1.2
				c-0.3,0.7-0.6,2.2-0.6,5.4c0,3.2,0.3,4.7,0.6,5.4c0.3,0.8,0.8,1.2,1.5,1.2c0.7,0,1.2-0.4,1.5-1.2c0.3-0.7,0.6-2.2,0.6-5.4
				c0-3.2-0.3-4.7-0.6-5.4C21.1,677.5,20.6,677.2,19.9,677.2L19.9,677.2z"/>
			<path class="st3" d="M29.8,693.8c0-0.1,0-0.3,0-0.4c0-0.1,0-0.4,0-0.7c0-1.2,0.2-2.4,0.7-3.4c0.5-1,1.2-2,2.2-3
				c0.7-0.7,1.8-1.4,3.3-2.4c0.7-0.4,1.2-0.7,1.5-0.9c0.9-0.6,1.6-1.2,1.9-1.8c0.3-0.6,0.5-1.2,0.5-2c0-0.9-0.3-1.7-1-2.3
				c-0.7-0.6-1.5-0.9-2.6-0.9c-0.9,0-1.6,0.2-2.2,0.6c-0.6,0.4-1,0.9-1.3,1.7c0.2,0,0.3-0.1,0.5-0.1c0.2,0,0.3,0,0.4,0
				c0.6,0,1.1,0.2,1.5,0.6c0.4,0.4,0.6,1,0.6,1.6c0,0.8-0.3,1.4-0.8,1.9c-0.5,0.5-1.2,0.8-2,0.8c-1,0-1.7-0.3-2.3-1
				c-0.6-0.7-0.9-1.5-0.9-2.7c0-1.8,0.7-3.4,2.2-4.6c1.5-1.2,3.4-1.9,5.6-1.9c2.4,0,4.4,0.6,5.8,1.8c1.4,1.2,2.2,2.8,2.2,4.8
				c0,1.5-0.5,2.8-1.4,3.9c-0.9,1.1-2.3,1.9-4.1,2.5c-0.3,0.1-0.6,0.2-1.1,0.3c-3,1-4.9,2.1-5.7,3.3c0.6-0.4,1.2-0.6,1.8-0.8
				c0.6-0.2,1.3-0.3,1.9-0.3c0.7,0,1.6,0.1,2.6,0.4c1,0.2,1.7,0.4,2,0.4c0.6,0,1.1-0.2,1.3-0.6c0.3-0.4,0.4-1.1,0.4-2.2H46
				c0,0.2,0,0.3,0,0.5c0,0.2,0,0.4,0,0.7c0,2.2-0.4,3.8-1.3,4.9c-0.9,1.1-2.2,1.6-4.1,1.6c-0.9,0-2-0.3-3.3-0.9
				c-0.2-0.1-0.4-0.2-0.5-0.2c-0.7-0.3-1.2-0.5-1.6-0.6c-0.4-0.1-0.8-0.2-1.1-0.2c-0.4,0-0.8,0.1-1.1,0.3c-0.3,0.2-0.5,0.5-0.7,1
				H29.8z M11.8,683.8c0-3.2,0.8-5.8,2.2-7.7c1.5-1.9,3.5-2.9,5.9-2.9c2.4,0,4.4,1,5.9,2.9c1.5,1.9,2.2,4.5,2.2,7.7
				c0,3.2-0.8,5.8-2.2,7.7c-1.5,1.9-3.5,2.9-5.9,2.9c-2.4,0-4.4-1-5.9-2.9C12.5,689.5,11.8,687,11.8,683.8z M17,683.8
				c0,2.7,0.2,4.7,0.7,5.9c0.5,1.2,1.2,1.8,2.2,1.8c1,0,1.8-0.6,2.2-1.8c0.5-1.2,0.7-3.2,0.7-5.9c0-2.7-0.2-4.7-0.7-5.9
				c-0.5-1.2-1.2-1.8-2.2-1.8c-1,0-1.8,0.6-2.2,1.8C17.2,679.1,17,681,17,683.8z"/>
			<path class="st18" d="M18,690.8l-0.3,0.4c-0.2-0.3-0.4-0.7-0.6-1.1c-0.5-1.3-0.8-3.4-0.8-6.3c0-2.9,0.3-4.9,0.8-6.3
				c0.6-1.5,1.5-2.3,2.8-2.3c0.9,0,1.6,0.4,2.1,1.1l-0.3,0.4c-0.5-0.6-1.1-0.9-1.8-0.9c-1.1,0-1.9,0.7-2.4,2c-0.5,1.3-0.7,3.2-0.7,6
				c0,2.8,0.2,4.8,0.7,6C17.6,690.2,17.8,690.5,18,690.8z M25.7,676.4l-0.3,0.4c1.3,1.8,2,4.1,2,7c0,2.9-0.7,5.3-2.1,7.1
				c-1.4,1.8-3.2,2.7-5.5,2.7c-2.2,0-4.1-0.9-5.4-2.7v0l-0.3,0.4c0,0,0,0,0,0c1.4,1.9,3.4,2.8,5.7,2.8c2.4,0,4.3-1,5.7-2.8
				c1.4-1.9,2.2-4.4,2.2-7.5C27.8,680.7,27.1,678.2,25.7,676.4z M45.8,687.2c0-0.1,0-0.1,0-0.2l-0.4,0.6c0,0.1,0,0.2,0,0.4
				c0,2-0.4,3.4-1.1,4.3c-0.8,0.9-2,1.3-3.6,1.3c-0.8,0-1.9-0.3-3.1-0.8l-0.5-0.2c-0.7-0.3-1.3-0.5-1.7-0.6
				c-0.5-0.1-0.9-0.2-1.2-0.2c-0.5,0-1,0.1-1.4,0.4c-0.3,0.2-0.5,0.5-0.8,0.9h-1.5l-0.4,0.6h2.2c0.2-0.4,0.4-0.7,0.7-0.9
				c0.3-0.2,0.7-0.4,1.2-0.4c0.3,0,0.7,0.1,1.1,0.2c0.4,0.1,1,0.3,1.7,0.6l0.5,0.2c1.3,0.6,2.4,0.9,3.2,0.9c1.8,0,3.1-0.5,3.9-1.5
				c0.8-1,1.3-2.6,1.3-4.7C45.8,687.6,45.8,687.3,45.8,687.2z M30.8,682.1c0.5,0.6,1.3,0.9,2.2,0.9c0.7,0,1.3-0.3,1.8-0.7
				c0.5-0.5,0.7-1,0.7-1.7c0-0.6-0.2-1-0.5-1.4l-0.3,0.4c0,0,0,0,0,0c0.2,0.3,0.4,0.6,0.4,1c0,0.5-0.2,0.9-0.5,1.3
				c-0.4,0.4-0.9,0.6-1.6,0.6c-0.8,0-1.4-0.3-1.9-0.8L30.8,682.1C30.8,682.1,30.8,682.1,30.8,682.1z M44.1,676.8
				C44.1,676.8,44.1,676.8,44.1,676.8c0.6,0.9,0.9,1.9,0.9,3c0,1.3-0.4,2.4-1.2,3.3c-0.8,1-2.1,1.7-3.8,2.3
				c-0.3,0.1-0.6,0.2-1.1,0.3c-3.2,1-5.1,2.2-6.1,3.6c-0.2,0.3-0.2,0.7,0,1.1l0.4-0.3c-0.1-0.1-0.1-0.2,0-0.3
				c0.9-1.3,2.8-2.4,5.8-3.4c0.5-0.1,0.8-0.2,1.1-0.3c1.8-0.6,3.1-1.4,4-2.4c0.9-1,1.3-2.3,1.3-3.7c0-1.3-0.3-2.5-1-3.4L44.1,676.8z
				 M39.2,676.3c-0.8-0.7-1.8-1-3-1c-1,0-1.9,0.2-2.5,0.7c-0.7,0.5-1.3,1.2-1.6,2.1c-0.1,0.3-0.1,0.6,0.1,0.9l0.4-0.3
				c0-0.1-0.1-0.2,0-0.3c0.3-0.8,0.8-1.4,1.4-1.8c0.6-0.4,1.4-0.6,2.3-0.6c1.1,0,2,0.3,2.7,0.9L39.2,676.3
				C39.2,676.4,39.2,676.4,39.2,676.3z"/>
		</g>
	</g>
	<g>
		<path id="Path_7616_1_" class="st3" d="M296.2,46.5H58.3V0h237.9l10.2,23.3L296.2,46.5z"/>
		<rect x="1.4" class="st2" width="56.9" height="46.5"/>
		<text transform="matrix(1 0 0 1 73.0497 29.728)" class="st2 st19 st20">Preparation</text>
		<g>
			<path class="st2" d="M22.4,35c-2.6,0-4.8-1.1-6.5-3.2c-1.7-2.1-2.5-5-2.5-8.5c0-3.5,0.8-6.4,2.5-8.5c1.7-2.2,3.8-3.2,6.5-3.2
				c2.6,0,4.8,1.1,6.5,3.2c1.7,2.2,2.5,5,2.5,8.5c0,3.5-0.8,6.4-2.5,8.5C27.2,33.9,25,35,22.4,35L22.4,35z M22.4,16.7
				c-0.7,0-1.2,0.4-1.5,1.2c-0.3,0.7-0.6,2.2-0.6,5.4c0,3.2,0.3,4.7,0.6,5.4c0.3,0.8,0.8,1.2,1.5,1.2c0.7,0,1.2-0.4,1.5-1.2
				c0.3-0.7,0.6-2.2,0.6-5.4c0-3.2-0.3-4.7-0.6-5.4C23.6,17,23.1,16.7,22.4,16.7L22.4,16.7z M44.9,35c0.5,0,0.9-0.5,0.9-1.2v-2.9
				c0-0.7-0.4-1.2-0.9-1.2h-1.2c-1.2,0-1.3-0.6-1.3-1.3V12.7c0-0.7-0.4-1.2-0.9-1.2h-3.9c-0.4,0-0.7,0.3-0.8,0.7
				c-0.2,0.7-0.6,1.2-1.2,1.6c-0.7,0.4-1.7,0.6-2.9,0.7c-0.5,0-0.9,0.5-0.9,1.2v2.8c0,0.3,0.1,0.6,0.3,0.8c0.2,0.2,0.4,0.4,0.6,0.4
				h2.7v8.6v0.7c0,0.4,0,0.8-1.3,0.8h-1.4c-0.5,0-0.9,0.5-0.9,1.2v2.9c0,0.7,0.4,1.2,0.9,1.2H44.9L44.9,35z"/>
			<path class="st3" d="M32.6,33.8v-2.9H34c0.9,0,1.5-0.1,1.8-0.3c0.3-0.2,0.4-0.8,0.4-1.7v-0.7v-9.8h-3.6v-2.9
				c1.4,0,2.5-0.3,3.3-0.8c0.8-0.5,1.4-1.2,1.7-2.2h3.9v15.8c0,1.1,0.1,1.8,0.4,2.1c0.2,0.3,0.9,0.4,1.8,0.4h1.2v2.9H32.6z
				 M14.3,23.3c0-3.2,0.8-5.8,2.2-7.7c1.5-1.9,3.5-2.9,5.9-2.9c2.4,0,4.4,1,5.9,2.9c1.5,1.9,2.2,4.5,2.2,7.7c0,3.2-0.8,5.8-2.2,7.7
				c-1.5,1.9-3.5,2.9-5.9,2.9c-2.4,0-4.4-1-5.9-2.9C15,29,14.3,26.5,14.3,23.3z M19.5,23.3c0,2.7,0.2,4.7,0.7,5.9
				c0.5,1.2,1.2,1.8,2.2,1.8c1,0,1.8-0.6,2.2-1.8c0.5-1.2,0.7-3.2,0.7-5.9c0-2.7-0.2-4.7-0.7-5.9c-0.5-1.2-1.2-1.8-2.2-1.8
				c-1,0-1.8,0.6-2.2,1.8C19.7,18.6,19.5,20.5,19.5,23.3z"/>
			<path class="st18" d="M41.7,30.8l-0.3,0.5c-0.4-0.5-0.6-1.3-0.6-2.7V13.6l0.5-0.6v15.5C41.2,29.7,41.4,30.4,41.7,30.8z
				 M36.2,17.6h-2.9l-0.5,0.6h3.3c0.1,0,0.1,0,0.2,0.1l0.3-0.4C36.5,17.7,36.3,17.6,36.2,17.6z M44.2,31.8v1.1H33.3l-0.5,0.6h11.8
				v-2.3L44.2,31.8z M20,29.3c-0.5-1.3-0.7-3.2-0.7-6c0-2.8,0.2-4.8,0.7-6c0.5-1.3,1.3-2,2.4-2c0.8,0,1.4,0.3,1.8,0.9l0.3-0.4
				c-0.6-0.7-1.3-1.1-2.1-1.1c-1.3,0-2.2,0.8-2.8,2.3c-0.5,1.3-0.8,3.4-0.8,6.3c0,2.9,0.2,4.9,0.8,6.3c0.2,0.4,0.4,0.8,0.6,1.1
				l0.3-0.4C20.3,30,20.1,29.7,20,29.3z M28.2,15.8l-0.3,0.4c1.3,1.8,2,4.1,2,7c0,2.9-0.7,5.3-2.1,7.1c-1.4,1.8-3.2,2.7-5.5,2.7
				c-2.2,0-4.1-0.9-5.4-2.7v0l-0.3,0.4c0,0,0,0,0,0c1.4,1.9,3.4,2.8,5.7,2.8c2.4,0,4.3-1,5.7-2.8c1.4-1.9,2.2-4.4,2.2-7.5
				C30.3,20.2,29.6,17.7,28.2,15.8z"/>
		</g>
	</g>
	<g>
		<rect x="24.3" y="1309.4" class="st6" width="225.3" height="20"/>
		<text transform="matrix(1 0 0 1 24.3002 1324.6812)" class="st3 st21 st20">Post Authorization</text>
	</g>
	<g>
		<rect x="32.3" y="1345.7" class="st6" width="239.9" height="68.1"/>
		<text transform="matrix(1 0 0 1 32.2797 1359.4471)"><tspan x="0" y="0" class="st7 st22 st23 st24">	</tspan><tspan x="30" y="0" class="st7 st22 st23">Ongoing Continuous </tspan><tspan x="30" y="20" class="st7 st22 st23">Monitoring Deliverables</tspan><tspan x="0" y="50" class="st7 st22 st23 st24">	</tspan><tspan x="30" y="50" class="st7 st22 st23">Annual Assessment</tspan></text>
	</g>
	<line class="st17" x1="36.9" y1="1350.5" x2="36.9" y2="1397.1"/>
	<g>
		<g>
			<circle class="st3" cx="36.9" cy="1352.8" r="12.1"/>
		</g>
		<g>
			<path class="st2" d="M39.4,1349.6c-0.3,0-0.6-0.3-0.6-0.6v-4h-6.2c-0.9,0-1.6,0.7-1.6,1.6v12.6c0,0.9,0.7,1.6,1.6,1.6h9.2
				c0.9,0,1.6-0.7,1.6-1.6v-9.6H39.4z"/>
		</g>
		<path class="st18" d="M39.4,1349.6h4l-4.6-4.6v4C38.8,1349.3,39.1,1349.5,39.4,1349.6z"/>
		<polygon class="st11" points="43.4,1352.8 43.4,1349.6 39.4,1349.6 		"/>
	</g>
	<g>
		<g>
			<circle class="st3" cx="36.9" cy="1400.4" r="12.1"/>
		</g>
		<g>
			<path class="st2" d="M39.4,1397.1c-0.3,0-0.6-0.3-0.6-0.6v-4h-6.2c-0.9,0-1.6,0.7-1.6,1.6v12.6c0,0.9,0.7,1.6,1.6,1.6h9.2
				c0.9,0,1.6-0.7,1.6-1.6v-9.6H39.4z"/>
		</g>
		<path class="st18" d="M39.4,1397.1h4l-4.6-4.6v4C38.8,1396.8,39.1,1397.1,39.4,1397.1z"/>
		<polygon class="st11" points="43.4,1400.4 43.4,1397.1 39.4,1397.1 		"/>
	</g>
	<g>
		<rect x="0.5" y="1224.9" class="st2" width="56.9" height="46.5"/>
		<g>
			<polygon class="st3" points="61,1228.2 61,1268.2 248.3,1268.2 248.3,1266.5 248.3,1262.6 260.3,1269.9 248.3,1277.2 
				248.3,1271.5 57.7,1271.5 57.7,1224.9 78.8,1224.9 297.1,1224.9 307.3,1248.2 297.1,1271.5 268.1,1271.5 268.1,1268.2 
				294.6,1268.2 295.1,1267.2 302.6,1248.9 303,1248.2 302.6,1247.6 295.1,1229.2 294.5,1228.2 			"/>
		</g>
		<text transform="matrix(1 0 0 1 74.4821 1254.5502)" class="st3 st19 st25">Continuous Monitoring</text>
		<g>
			<path class="st2" d="M19.2,1260.6c-2.9,0-5.2-1.1-7-3.4c-1.8-2.3-2.7-5.3-2.7-9c0-3.7,0.9-6.7,2.7-9c1.8-2.3,4.2-3.4,7-3.4
				c2.9,0,5.3,1.1,7,3.4c1.8,2.3,2.7,5.3,2.7,9c0,3.7-0.9,6.7-2.7,9C24.4,1259.4,22,1260.6,19.2,1260.6L19.2,1260.6z M19.2,1241.2
				c-0.8,0-1.3,0.4-1.6,1.3c-0.3,0.8-0.7,2.4-0.7,5.7c0,3.3,0.4,4.9,0.7,5.7c0.3,0.9,0.8,1.3,1.6,1.3c0.8,0,1.3-0.4,1.6-1.3
				c0.3-0.8,0.7-2.4,0.7-5.7c0-3.3-0.3-5-0.6-5.7C20.5,1241.6,20,1241.2,19.2,1241.2L19.2,1241.2z M37.8,1260.6
				c-2.7,0-4.9-0.6-6.5-1.7c-1.8-1.3-2.7-3.1-2.7-5.3c0-1.5,0.4-2.7,1.2-3.6c0.8-0.9,1.9-1.4,3.1-1.4c1.1,0,2,0.4,2.7,1.1
				c0.8,0.8,1.2,1.8,1.2,3c0,1-0.3,1.8-0.8,2.5c0.2,0,0.5,0,0.8,0c1.2,0,2-0.3,2.6-0.8c0.5-0.5,0.7-1.1,0.7-2c0-0.9-0.3-1.3-0.6-1.5
				c-0.4-0.3-1.2-0.6-2.8-0.6c-0.5,0-1-0.5-1-1.2v-2.7c-0.7,0.5-1.5,0.8-2.5,0.8c-1.2,0-2.1-0.4-2.9-1.2c-0.7-0.8-1.1-1.9-1.1-3.3
				c0-2.2,0.9-4,2.6-5.2c1.6-1.2,3.7-1.8,6.3-1.8c2.9,0,5.1,0.5,6.7,1.6c1.8,1.2,2.7,3,2.7,5.3c0,1.5-0.5,2.9-1.4,3.9
				c-0.2,0.3-0.5,0.5-0.7,0.7c0.5,0.3,1,0.7,1.4,1.2c1,1.1,1.6,2.5,1.6,4.2c0,2.6-1,4.7-3,6.1C43.7,1260,41.2,1260.6,37.8,1260.6
				L37.8,1260.6z M36.4,1241c0.5,0.6,0.7,1.4,0.7,2.2c0,0.6-0.1,1.2-0.3,1.7c1.4-0.1,2.1-0.4,2.4-0.7c0.4-0.3,0.5-0.7,0.5-1.2
				c0-0.6-0.2-1-0.6-1.4c-0.5-0.4-1.3-0.7-2.3-0.7C36.7,1241,36.5,1241,36.4,1241L36.4,1241z"/>
			<path class="st3" d="M10.3,1248.2c0-3.4,0.8-6.1,2.4-8.2c1.6-2.1,3.8-3.1,6.4-3.1c2.6,0,4.8,1,6.4,3.1c1.6,2.1,2.4,4.8,2.4,8.2
				c0,3.4-0.8,6.1-2.4,8.1c-1.6,2.1-3.8,3.1-6.4,3.1c-2.6,0-4.8-1-6.4-3.1C11.1,1254.3,10.3,1251.5,10.3,1248.2z M16,1248.2
				c0,2.9,0.3,5,0.8,6.2c0.5,1.3,1.3,1.9,2.4,1.9c1.1,0,1.9-0.6,2.4-1.9c0.5-1.3,0.8-3.4,0.8-6.2c0-2.9-0.3-5-0.7-6.3
				c-0.5-1.3-1.3-1.9-2.4-1.9c-1.1,0-1.9,0.6-2.4,1.9C16.2,1243.2,16,1245.3,16,1248.2z M36.7,1249.1v-2.9c1.3-0.1,2.3-0.4,3-0.9
				c0.7-0.5,1-1.3,1-2.2c0-1-0.4-1.8-1.1-2.4c-0.7-0.6-1.7-0.9-2.9-0.9c-0.7,0-1.3,0.1-1.8,0.3c-0.5,0.2-1,0.5-1.4,0.9h0.3
				c0.7,0,1.2,0.2,1.7,0.6c0.4,0.4,0.6,1,0.6,1.7c0,0.8-0.3,1.5-0.8,2c-0.5,0.5-1.2,0.7-2.1,0.7c-0.9,0-1.7-0.3-2.2-0.9
				c-0.5-0.6-0.8-1.4-0.8-2.4c0-1.8,0.7-3.2,2.1-4.2c1.4-1.1,3.4-1.6,5.8-1.6c2.7,0,4.8,0.5,6.3,1.5c1.5,1,2.2,2.4,2.2,4.2
				c0,1.2-0.4,2.2-1.1,3c-0.7,0.8-1.8,1.3-3.1,1.6c1.7,0.5,2.9,1.1,3.8,2c0.8,0.9,1.2,2,1.2,3.4c0,2.2-0.8,3.9-2.5,5
				c-1.6,1.2-4.1,1.7-7.2,1.7c-2.5,0-4.5-0.5-6-1.6c-1.5-1-2.2-2.5-2.2-4.2c0-1.1,0.3-2,0.9-2.7c0.6-0.7,1.4-1,2.4-1
				c0.8,0,1.5,0.3,2.1,0.8c0.6,0.6,0.8,1.2,0.8,2.1c0,0.8-0.2,1.4-0.7,1.9c-0.5,0.5-1.1,0.7-1.9,0.7c0.5,0.4,1,0.7,1.6,0.9
				c0.6,0.2,1.3,0.3,2,0.3c1.4,0,2.5-0.3,3.2-1c0.7-0.7,1.1-1.7,1.1-2.9c0-1.2-0.4-2-1.1-2.5C39.4,1249.3,38.3,1249.1,36.7,1249.1z"
				/>
			<path class="st18" d="M35.1,1242.4l0.3-0.4c0.3,0.3,0.4,0.7,0.4,1.3c0,0.7-0.2,1.3-0.7,1.8c-0.5,0.5-1.1,0.7-1.9,0.7
				c-0.9,0-1.6-0.3-2.1-0.8l0.4-0.4c0.4,0.4,1,0.6,1.7,0.6c0.7,0,1.2-0.2,1.6-0.6c0.3-0.3,0.5-0.7,0.5-1.3
				C35.4,1242.9,35.3,1242.6,35.1,1242.4z M45.9,1242.6c0,1-0.3,1.7-0.9,2.4c-0.6,0.7-1.5,1.2-2.7,1.4c-0.3,0.1-0.6,0.4-0.6,0.8
				c0,0.3,0.1,0.5,0.2,0.7l0.3-0.4c-0.1-0.1-0.1-0.1-0.1-0.2c0-0.1,0.1-0.3,0.2-0.3c1.3-0.2,2.3-0.7,2.9-1.5c0.7-0.8,1-1.7,1-2.8
				c0-1.2-0.4-2.2-1.1-3.1L45,1240C45.6,1240.7,45.9,1241.6,45.9,1242.6z M40.5,1249.1c-0.7-0.5-1.7-0.8-3-0.9l0,0l-0.5,0.6l0,0
				c1.4,0,2.5,0.3,3.3,0.8c0.2,0.1,0.3,0.3,0.5,0.4l0.3-0.4C40.9,1249.5,40.7,1249.3,40.5,1249.1z M35.2,1252.7
				c0,0.5-0.1,0.9-0.4,1.2c-0.3,0.3-0.8,0.5-1.5,0.5c-0.3,0-0.6,0.3-0.7,0.6c-0.1,0.3,0,0.6,0.2,0.9l0.3-0.4c0-0.1-0.1-0.2,0-0.3
				c0-0.1,0.1-0.2,0.2-0.2c0.8,0,1.4-0.2,1.8-0.6c0.4-0.4,0.6-0.9,0.6-1.6c0-0.7-0.2-1.2-0.6-1.7l-0.4,0.4
				C35,1251.8,35.2,1252.2,35.2,1252.7z M46.3,1249.8l-0.3,0.4c0.5,0.7,0.8,1.5,0.8,2.5c0,1.9-0.7,3.3-2.1,4.3
				c-1.5,1.1-3.8,1.6-6.9,1.6c-2.4,0-4.3-0.5-5.6-1.4c-0.4-0.3-0.7-0.6-1-0.9l-0.3,0.4c0.3,0.4,0.6,0.7,1.1,1c1.4,1,3.4,1.5,5.8,1.5
				c3.1,0,5.5-0.6,7.1-1.7c1.6-1.1,2.4-2.7,2.4-4.8C47.2,1251.5,46.9,1250.5,46.3,1249.8z M40.1,1239.9c-0.8-0.7-1.9-1-3.3-1
				c-0.7,0-1.4,0.1-2,0.3c-0.6,0.2-1.2,0.6-1.7,1.1c-0.2,0.2-0.3,0.6-0.2,1c0,0.1,0.1,0.2,0.2,0.3l0.3-0.4c0,0,0-0.1-0.1-0.1
				c0-0.1,0-0.2,0.1-0.3c0.5-0.4,1-0.8,1.5-1c0.5-0.2,1.2-0.3,1.9-0.3c1.3,0,2.3,0.3,3,0.9c0.2,0.1,0.3,0.3,0.4,0.4l0.3-0.4
				C40.4,1240.2,40.3,1240.1,40.1,1239.9z M17.1,1255.6l-0.3,0.4c-0.3-0.3-0.5-0.7-0.7-1.2c-0.6-1.4-0.8-3.6-0.8-6.7
				c0-3.1,0.3-5.2,0.8-6.7c0.6-1.6,1.7-2.4,3.1-2.4c0.9,0,1.7,0.4,2.3,1.2l-0.3,0.4c-0.5-0.6-1.2-1-2-1c-1.2,0-2.1,0.7-2.6,2.1
				c-0.5,1.3-0.8,3.4-0.8,6.4c0,3,0.3,5,0.8,6.4C16.7,1254.9,16.9,1255.3,17.1,1255.6z M25.5,1240.3l-0.3,0.4
				c1.4,1.9,2.1,4.3,2.1,7.4c0,3.1-0.8,5.6-2.2,7.5c-1.5,1.9-3.5,2.8-5.9,2.8c-2.4,0-4.4-0.9-5.9-2.8v0l-0.3,0.4c0,0,0,0,0,0
				c1.6,2,3.7,3,6.2,3c2.6,0,4.7-1,6.3-3c1.6-2,2.4-4.6,2.4-7.9C27.8,1244.9,27,1242.3,25.5,1240.3z"/>
		</g>
	</g>
	<g>
		<rect x="32.3" y="301.5" class="st6" width="288.8" height="128.1"/>
		<text transform="matrix(1 0 0 1 32.2797 315.1974)"><tspan x="0" y="0" class="st31 st32 st23">•</tspan><tspan x="8.5" y="0" class="st7 st22 st23 st33">	</tspan><tspan x="30" y="0" class="st7 st22 st23">RAR Development</tspan><tspan x="0" y="30" class="st31 st32 st23">•</tspan><tspan x="8.5" y="30" class="st7 st22 st23 st33">	</tspan><tspan x="30" y="30" class="st7 st22 st23">FedRAMP PMO Review of RAR</tspan><tspan x="0" y="60" class="st31 st32 st23">•</tspan><tspan x="8.5" y="60" class="st7 st22 st23 st33">	</tspan><tspan x="30" y="60" class="st7 st22 st23">Remediation (if needed)</tspan><tspan x="0" y="90" class="st7 st22 st23 st24">	</tspan><tspan x="30" y="90" class="st7 st22 st23">FedRAMP Marketplace  </tspan><tspan x="30" y="110" class="st7 st22 st23">Designation - Ready</tspan></text>
	</g>
	<g>
		<rect x="24.3" y="252.9" class="st6" width="262.3" height="35.8"/>
		<text transform="matrix(1 0 0 1 24.3014 268.1533)"><tspan x="0" y="0" class="st3 st21 st20">Readiness Assessment</tspan><tspan x="211.9" y="0" class="st7 st34 st9"> </tspan><tspan x="0" y="16.8" class="st7 st34 st9">(required)</tspan></text>
	</g>
	<g>
		<rect x="24.3" y="79.3" class="st6" width="217.8" height="49.8"/>
		<text transform="matrix(1 0 0 1 24.3004 94.563)" class="st3 st21 st20">FedRAMP Connect</text>
	</g>
	<g>
		<rect x="32.3" y="553" class="st6" width="287.8" height="36.1"/>
		<text transform="matrix(1 0 0 1 32.2787 564.7739)"><tspan x="0" y="0" class="st7 st22 st23 st24">	</tspan><tspan x="30" y="0" class="st7 st22 st23">Security Authorization Package </tspan><tspan x="30" y="20" class="st7 st22 st23">(SSP, SAP, SAR, POA&amp;M)</tspan></text>
	</g>
	<g>
		<rect x="24.3" y="515.6" class="st6" width="238.2" height="20.6"/>
		<text transform="matrix(1 0 0 1 24.3004 530.8808)" class="st3 st21 st20">Full Security Assessment</text>
	</g>
	<g>
		<rect x="32.3" y="118.5" class="st6" width="245.6" height="68.2"/>
		<text transform="matrix(1 0 0 1 32.2797 132.1935)"><tspan x="0" y="0" class="st7 st22 st23 st24">	</tspan><tspan x="30" y="0" class="st7 st22 st23">FedRAMP Connect Business </tspan><tspan x="30" y="20" class="st7 st22 st23">Case</tspan><tspan x="0" y="50" class="st31 st32 st23">•</tspan><tspan x="8.5" y="50" class="st7 st22 st23 st33">	</tspan><tspan x="30" y="50" class="st7 st22 st23">Prioritized to work with JAB</tspan></text>
	</g>
	<g>
		<path id="Path_1554_7_" class="st26" d="M175,207.8c0,6.7-5.4,12.1-12.1,12.1c-6.7,0-12.1-5.4-12.1-12.1c0-6.7,5.4-12.1,12.1-12.1
			C169.6,195.7,175,201.1,175,207.8z"/>
		<g id="Group_1434_7_" transform="translate(4.574 4.222)">
			<g id="arrow_7_" transform="translate(4.574 0)">
				<path id="arrow-2_7_" class="st2" d="M153.9,210.9c-0.3,0-0.7-0.1-0.9-0.4l-5.3-5.1c-0.5-0.5-0.5-1.2-0.1-1.7
					c0,0,0.1-0.1,0.1-0.1c0.5-0.5,1.3-0.5,1.8,0c0,0,0,0,0,0l4.4,4.2l4.4-4.2c0.5-0.5,1.3-0.5,1.8,0c0,0,0,0,0,0
					c0.5,0.5,0.5,1.2,0.1,1.7c0,0,0,0.1-0.1,0.1l-5.3,5.1C154.5,210.7,154.2,210.9,153.9,210.9z"/>
			</g>
			<path id="Path_1968_7_" class="st27" d="M158.3,208.1v-10.8"/>
		</g>
	</g>
	<g>
		<path id="Path_1554_1_" class="st26" d="M175,469.9c0,6.7-5.4,12.1-12.1,12.1c-6.7,0-12.1-5.4-12.1-12.1c0-6.7,5.4-12.1,12.1-12.1
			C169.6,457.8,175,463.3,175,469.9z"/>
		<g id="Group_1434_1_" transform="translate(4.574 4.222)">
			<g id="arrow_1_" transform="translate(4.574 0)">
				<path id="arrow-2_1_" class="st2" d="M153.9,473c-0.3,0-0.7-0.1-0.9-0.4l-5.3-5.1c-0.5-0.5-0.5-1.2-0.1-1.7c0,0,0.1-0.1,0.1-0.1
					c0.5-0.5,1.3-0.5,1.8,0c0,0,0,0,0,0l4.4,4.2l4.4-4.2c0.5-0.5,1.3-0.5,1.8,0c0,0,0,0,0,0c0.5,0.5,0.5,1.2,0.1,1.7
					c0,0,0,0.1-0.1,0.1l-5.3,5.1C154.5,472.9,154.2,473,153.9,473z"/>
			</g>
			<path id="Path_1968_1_" class="st27" d="M158.3,470.2v-10.8"/>
		</g>
	</g>
	<line class="st17" x1="36.9" y1="123" x2="36.9" y2="176.2"/>
	<g>
		<g>
			<circle class="st3" cx="36.9" cy="561.5" r="12.1"/>
		</g>
		<g>
			<path class="st2" d="M39.4,558.2c-0.3,0-0.6-0.3-0.6-0.6v-4h-6.2c-0.9,0-1.6,0.7-1.6,1.6v12.6c0,0.9,0.7,1.6,1.6,1.6h9.2
				c0.9,0,1.6-0.7,1.6-1.6v-9.6H39.4z"/>
		</g>
		<path class="st18" d="M39.4,558.2h4l-4.6-4.6v4C38.8,557.9,39.1,558.2,39.4,558.2z"/>
		<polygon class="st11" points="43.4,561.5 43.4,558.2 39.4,558.2 		"/>
	</g>
	<g>
		<g>
			<circle class="st3" cx="36.9" cy="126.9" r="12.1"/>
		</g>
		<g>
			<path class="st2" d="M39.4,123.6c-0.3,0-0.6-0.3-0.6-0.6v-4h-6.2c-0.9,0-1.6,0.7-1.6,1.6v12.6c0,0.9,0.7,1.6,1.6,1.6h9.2
				c0.9,0,1.6-0.7,1.6-1.6v-9.6H39.4z"/>
		</g>
		<path class="st18" d="M39.4,123.6h4l-4.6-4.6v4C38.8,123.4,39.1,123.6,39.4,123.6z"/>
		<polygon class="st11" points="43.4,126.9 43.4,123.6 39.4,123.6 		"/>
	</g>
	<line class="st17" x1="36.9" y1="308.9" x2="36.9" y2="380.6"/>
	<g>
		<g id="g56755_2_" transform="matrix(14,0,0,14,49637.042,519374.88)">
			<path id="path56757_2_" class="st29" d="M-3542-37069.7c0,0.5-0.4,0.9-0.9,0.9l0,0c-0.5,0-0.9-0.4-0.9-0.9l0,0
				c0-0.5,0.4-0.9,0.9-0.9l0,0C-3542.4-37070.6-3542-37070.2-3542-37069.7L-3542-37069.7z"/>
		</g>
		<path id="path53460_2_" class="st30" d="M42.6,393.3c-3.4,1.6-5.1,5-6.7,8l-2.3-2.3c-1.2,0.9-2.4,1.5-3.5,2.2l9.5,9.5
			c5.3-1.2,9.1-5.7,9.4-11.1L42.6,393.3z"/>
		<path id="path38606_2_" class="st2" d="M33.6,399.1c0.7,0.9,1.2,2,1.8,3.3c1.7-3.3,3.5-7.2,7.2-9c-0.4,1.5-0.6,3.4-0.1,5
			c-3.1,1.6-5.1,4.5-7.1,7.4c-1.9-2.6-3.5-3.5-5.4-4.4C31.2,400.7,32.4,400,33.6,399.1L33.6,399.1z"/>
	</g>
	<g>
		<rect x="32.3" y="783" class="st6" width="265.9" height="236.1"/>
		<text transform="matrix(1 0 0 1 32.2816 794.7712)"><tspan x="0" y="0" class="st31 st32 st23">•</tspan><tspan x="8.5" y="0" class="st7 st22 st23 st33">	</tspan><tspan x="30" y="0" class="st7 st22 st23">Kick-Off (~1 week)</tspan><tspan x="0" y="30" class="st31 st32 st23"> </tspan><tspan x="4.7" y="30" class="st7 st22 st23 st35">	</tspan><tspan x="30" y="30" class="st7 st22 st23">FedRAMP Marketplace </tspan><tspan x="30" y="50" class="st7 st22 st23">Designation - In Process</tspan><tspan x="0" y="80" class="st31 st32 st23">•</tspan><tspan x="8.5" y="80" class="st7 st22 st23 st33">	</tspan><tspan x="30" y="80" class="st7 st22 st23">Review (~3-4 weeks)</tspan><tspan x="0" y="110" class="st31 st32 st23">•</tspan><tspan x="8.5" y="110" class="st7 st22 st23 st33">	</tspan><tspan x="30" y="110" class="st7 st22 st23">Remediation (~3 weeks)</tspan><tspan x="0" y="140" class="st31 st32 st23">•</tspan><tspan x="8.5" y="140" class="st7 st22 st23 st33">	</tspan><tspan x="30" y="140" class="st7 st22 st23">Final Review (~4 weeks)</tspan><tspan x="0" y="170" class="st31 st32 st23">•</tspan><tspan x="8.5" y="170" class="st7 st22 st23 st33">	</tspan><tspan x="30" y="170" class="st7 st22 st23">JAB P-ATO Issued</tspan><tspan x="0" y="200" class="st31 st32 st23 st24">	</tspan><tspan x="30" y="200" class="st7 st22 st23">FedRAMP Marketplace </tspan><tspan x="30" y="220" class="st7 st22 st23">Designation - Authorized</tspan></text>
	</g>
	<g>
		<rect x="24.3" y="745.6" class="st6" width="278.5" height="20"/>
		<text transform="matrix(1 0 0 1 24.3002 760.8524)" class="st3 st21 st20">JAB Authorization Process</text>
	</g>
	<line class="st17" x1="36.9" y1="840.3" x2="36.9" y2="974.9"/>
	<line class="st17" x1="36.9" y1="788.8" x2="36.9" y2="799.9"/>
	<g>
		<path class="st28" d="M48.3,1002c0.5-0.9-0.4-2.3-0.1-3.3c0.3-0.9,1.7-1.8,1.7-2.8c0-1-1.5-1.8-1.7-2.8c-0.3-1,0.6-2.4,0.1-3.3
			c-0.5-0.9-2.2-0.8-2.9-1.5c-0.7-0.7-0.7-2.4-1.5-2.9c-0.9-0.5-2.3,0.4-3.3,0.1c-0.9-0.3-1.8-1.7-2.8-1.7c-1,0-1.8,1.5-2.8,1.7
			c-1,0.3-2.4-0.6-3.3-0.1c-0.9,0.5-0.8,2.2-1.5,2.9c-0.7,0.7-2.4,0.7-2.9,1.5c-0.5,0.9,0.4,2.3,0.1,3.3c-0.3,0.9-1.7,1.8-1.7,2.8
			c0,1,1.5,1.8,1.7,2.8c0.3,1-0.6,2.4-0.1,3.3c0.5,0.9,2.2,0.8,2.9,1.5c0.5,0.5,0.6,1.3,0.9,2l-3.9,8.1l5.2-1.3l2.7,4.6l2.7-7.2
			l2.7,7.2l2.7-4.6l5.2,1.3l-3.9-8.1c0.3-0.7,0.4-1.6,0.9-2C46.1,1002.8,47.8,1002.9,48.3,1002z"/>
		<g>
			<g>
				<polygon class="st13" points="33.3,1015.3 30.6,1010.7 25.4,1012 32.4,997.4 39,1000.2 				"/>
				<polygon class="st13" points="38.7,1015.3 41.4,1010.7 46.6,1012 39.6,997.4 33,1000.2 				"/>
			</g>
			<path class="st29" d="M48.1,994.3c0,1-1.5,1.8-1.7,2.8c-0.3,1,0.6,2.4,0.1,3.3c-0.5,0.9-2.2,0.8-2.9,1.5
				c-0.7,0.7-0.7,2.4-1.5,2.9c-0.9,0.5-2.3-0.4-3.3-0.1c-0.9,0.3-1.8,1.7-2.8,1.7c-1,0-1.8-1.5-2.8-1.7c-1-0.3-2.4,0.6-3.3,0.1
				c-0.9-0.5-0.8-2.2-1.5-2.9c-0.7-0.7-2.4-0.7-2.9-1.5c-0.5-0.9,0.4-2.3,0.1-3.3c-0.3-0.9-1.7-1.8-1.7-2.8c0-1,1.5-1.8,1.7-2.8
				c0.3-1-0.6-2.4-0.1-3.3c0.5-0.9,2.2-0.8,2.9-1.5c0.7-0.7,0.7-2.4,1.5-2.9c0.9-0.5,2.3,0.4,3.3,0.1c0.9-0.3,1.8-1.7,2.8-1.7
				c1,0,1.8,1.5,2.8,1.7c1,0.3,2.4-0.6,3.3-0.1c0.9,0.5,0.8,2.2,1.5,2.9c0.7,0.7,2.4,0.7,2.9,1.5c0.5,0.9-0.4,2.3-0.1,3.3
				C46.6,992.4,48.1,993.2,48.1,994.3z"/>
			<g>
				<path class="st11" d="M42.9,994.3c0,3.8-3.1,6.9-6.9,6.9c-3.8,0-6.9-3.1-6.9-6.9s3.1-6.9,6.9-6.9
					C39.8,987.4,42.9,990.5,42.9,994.3"/>
				<path class="st2" d="M41.7,994.3c0,3.1-2.5,5.7-5.7,5.7c-3.1,0-5.7-2.5-5.7-5.7s2.5-5.7,5.7-5.7
					C39.1,988.6,41.7,991.1,41.7,994.3"/>
			</g>
		</g>
	</g>
	<g>
		<path class="st28" d="M49.7,823.5c0-1.5,0-1.6,0-3.1l-2.8-1c-0.4-0.9-0.6-1.4-0.9-2.3l1.3-2.7c-1.1-1.1-1.1-1.1-2.2-2.2l-2.7,1.2
			c-0.9-0.4-1.4-0.6-2.2-1l-1-2.8c-1.5,0-1.6,0-3.1,0l-1,2.8c-0.9,0.4-1.4,0.6-2.3,0.9l-2.7-1.3c-1.1,1.1-1.1,1.1-2.2,2.2l1.2,2.7
			c-0.4,0.9-0.6,1.4-1,2.2l-2.8,1c0,1.5,0,1.6,0,3.1l2.8,1c0.4,0.9,0.6,1.4,0.9,2.3l-1.3,2.7c1.1,1.1,1.1,1.1,2.2,2.2l2.7-1.2
			c0.9,0.4,1.4,0.6,2.2,1l1,2.8c1.5,0,1.6,0,3.1,0l1-2.8c0.9-0.4,1.4-0.6,2.3-0.9l2.7,1.3c1.1-1.1,1.1-1.1,2.2-2.2l-1.2-2.7
			c0.4-0.9,0.6-1.4,1-2.2L49.7,823.5z M37.6,826.6c-2.6,0-4.7-2.1-4.7-4.7c0-2.6,2.1-4.7,4.7-4.7c2.6,0,4.7,2.1,4.7,4.7
			C42.3,824.5,40.2,826.6,37.6,826.6z"/>
		<path class="st29" d="M48.3,822.5c0-1.5,0-1.6,0-3.1l-2.8-1c-0.4-0.9-0.6-1.4-0.9-2.3l1.3-2.7c-1.1-1.1-1.1-1.1-2.2-2.2l-2.7,1.2
			c-0.9-0.4-1.4-0.6-2.2-1l-1-2.8c-1.5,0-1.6,0-3.1,0l-1,2.8c-0.9,0.4-1.4,0.6-2.3,0.9l-2.7-1.3c-1.1,1.1-1.1,1.1-2.2,2.2l1.2,2.7
			c-0.4,0.9-0.6,1.4-1,2.2l-2.8,1c0,1.5,0,1.6,0,3.1l2.8,1c0.4,0.9,0.6,1.4,0.9,2.3l-1.3,2.7c1.1,1.1,1.1,1.1,2.2,2.2l2.7-1.2
			c0.9,0.4,1.4,0.6,2.2,1l1,2.8c1.5,0,1.6,0,3.1,0l1-2.8c0.9-0.4,1.4-0.6,2.3-0.9l2.7,1.3c1.1-1.1,1.1-1.1,2.2-2.2l-1.2-2.7
			c0.4-0.9,0.6-1.4,1-2.2L48.3,822.5z M36.2,825.6c-2.6,0-4.7-2.1-4.7-4.7c0-2.6,2.1-4.7,4.7-4.7c2.6,0,4.7,2.1,4.7,4.7
			C40.9,823.4,38.8,825.6,36.2,825.6z"/>
	</g>
</g>
</svg>
