<svg xmlns="http://www.w3.org/2000/svg" width="115.863" height="102.246" viewBox="0 0 115.863 102.246">
  <g id="Group_8235" data-name="Group 8235" transform="translate(-142 -3357)">
    <path id="Path_21665" data-name="Path 21665" d="M0,0H111.636V79.937L56.842,97.316,0,79.937Z" transform="translate(146.227 3361.931)" fill="#162e51" opacity="0.762"/>
    <path id="Path_21664" data-name="Path 21664" d="M0,0H111.636V79.937L56.842,97.316,0,79.937Z" transform="translate(142 3357)" fill="#f2f2f2"/>
    <g id="Group_8141" data-name="Group 8141" transform="translate(157.498 3372.923)">
      <path id="Path_21674" data-name="Path 21674" d="M519.829,882.772a20.65,20.65,0,0,1-8.09-2.115l-.615-.283-.444-.216a36.141,36.141,0,0,0-3.438-1.234,6.387,6.387,0,0,0-1.906-.352,2.357,2.357,0,0,0-1.368.375,2.538,2.538,0,0,0-.8,1.111,2,2,0,0,1-1.8,1.377h-5.663a2.182,2.182,0,0,1-1.988-2.035,12.808,12.808,0,0,1-.121-1.306c-.013-.343-.017-.891-.017-1.6a21.316,21.316,0,0,1,1.817-8.8,23.788,23.788,0,0,1,5.36-7.356,30.073,30.073,0,0,1,2.881-2.376,7.932,7.932,0,0,1-.924.045,8.308,8.308,0,0,1-6.541-2.844,11.334,11.334,0,0,1-2.594-7.762,15.454,15.454,0,0,1,5.865-12.387,20.7,20.7,0,0,1,13.7-4.586c5.779,0,10.5,1.526,14.064,4.5a15.986,15.986,0,0,1,5.716,12.858,15.54,15.54,0,0,1-3.761,10.507,17.478,17.478,0,0,1-2.492,2.335h5.184a2.269,2.269,0,0,1,2.018,2.318q.036.557.043,1.18c.017.363.022.945.022,1.714,0,5.6-1.2,9.892-3.567,12.706-2.348,2.795-5.9,4.221-10.54,4.221Zm-4.266-17.18q1.211.2,2.583.529a23.083,23.083,0,0,0,3.975.749c.4,0,1.1-.05,1.347-.427.119-.2.462-.954.462-3.306a3.056,3.056,0,0,1,.106-.779,28.426,28.426,0,0,1-4.951,2.115c-.546.177-1.364.438-2.419.749-.378.116-.747.246-1.1.371Zm-8.332-23a6.253,6.253,0,0,1,1.688,1.3,7.914,7.914,0,0,1,2.011,5.531,8.9,8.9,0,0,1-1.247,4.64c.794-.488,1.4-.876,1.834-1.191a12.933,12.933,0,0,0,3.688-3.332,5.232,5.232,0,0,0,.732-2.844,3.716,3.716,0,0,0-1.323-3.03,6.812,6.812,0,0,0-4.655-1.461,8.522,8.522,0,0,0-2.728.391Zm-33.68,40.182a17.417,17.417,0,0,1-14.411-7.177c-3.679-4.776-5.535-11.163-5.535-18.971,0-7.792,1.867-14.178,5.572-18.975a18.045,18.045,0,0,1,28.855-.019c3.684,4.8,5.55,11.183,5.55,18.995,0,7.777-1.882,14.165-5.585,18.952a17.464,17.464,0,0,1-14.446,7.2Zm.061-40.836c-1.582,0-2.611.842-3.321,2.674-.615,1.623-1.355,4.991-1.355,12.014s.738,10.4,1.34,11.994c.7,1.839,1.713,2.65,3.276,2.65,1.6,0,2.624-.831,3.336-2.676.619-1.591,1.344-4.961,1.344-11.968,0-7.05-.714-10.432-1.323-12.044-.7-1.823-1.709-2.644-3.3-2.644Z" transform="translate(-453.604 -830.432)" fill="#fff"/>
      <path id="Path_21675" data-name="Path 21675" d="M494.7,877.573a8.234,8.234,0,0,1-.084-.93c-.009-.332-.022-.835-.022-1.5a18.076,18.076,0,0,1,1.567-7.572,21.553,21.553,0,0,1,4.821-6.6,45.45,45.45,0,0,1,7.285-5.242c1.48-.874,2.57-1.567,3.241-2.044a15,15,0,0,0,4.279-3.956,8.174,8.174,0,0,0,1.161-4.4,6.432,6.432,0,0,0-2.177-5.084,8.549,8.549,0,0,0-5.82-1.91,8.784,8.784,0,0,0-4.95,1.3,7.4,7.4,0,0,0-2.881,3.757c.391-.084.777-.175,1.133-.25a3.709,3.709,0,0,1,.93-.11,4.421,4.421,0,0,1,3.408,1.407,5.045,5.045,0,0,1,1.308,3.621,5.846,5.846,0,0,1-1.785,4.318,5.989,5.989,0,0,1-4.4,1.772,6.553,6.553,0,0,1-5.173-2.18,8.62,8.62,0,0,1-1.942-5.924,12.944,12.944,0,0,1,4.97-10.322,19.041,19.041,0,0,1,12.572-4.13q8.093,0,12.924,4.055a13.371,13.371,0,0,1,4.84,10.784,12.783,12.783,0,0,1-3.114,8.662,19.994,19.994,0,0,1-9.215,5.583c-.572.186-1.364.436-2.389.757q-9.964,3.189-12.721,7.378a16.923,16.923,0,0,1,4.117-1.81,16.271,16.271,0,0,1,4.338-.587,25.826,25.826,0,0,1,5.833.809,26.289,26.289,0,0,0,4.363.8,3.182,3.182,0,0,0,2.95-1.433,9.6,9.6,0,0,0,.887-4.812h5.9c.017.352.041.693.05,1.066s.013.924.013,1.642q0,7.387-2.952,10.894-2.936,3.525-9.135,3.518a19.216,19.216,0,0,1-7.411-1.966c-.481-.227-.824-.371-1.049-.477a37.962,37.962,0,0,0-3.662-1.336,8.217,8.217,0,0,0-2.372-.412,4,4,0,0,0-2.367.7,4.869,4.869,0,0,0-1.6,2.156Zm-40.225-22.3q0-10.676,5.013-17.171a16.482,16.482,0,0,1,26.22-.019q4.975,6.48,4.981,17.191c0,7.113-1.673,12.814-5.009,17.143a16.517,16.517,0,0,1-26.231.019Q454.473,865.99,454.474,855.272Zm11.576,0q0,9.112,1.534,13.138t4.959,4.025q3.448,0,5.011-4.036t1.56-13.127c0-6.094-.514-10.477-1.532-13.177q-1.512-4.027-4.979-4.029c-2.3,0-3.962,1.355-5,4.051S466.05,849.208,466.05,855.272Z" transform="translate(-452.596 -829.08)" fill="#0a90b7"/>
      <path id="Path_21676" data-name="Path 21676" d="M465.508,868.427l-.66.9a9.841,9.841,0,0,1-1.351-2.5c-1.155-2.987-1.709-7.572-1.709-14.01s.565-11.006,1.713-14.012c1.271-3.326,3.446-5.084,6.26-5.084a5.851,5.851,0,0,1,4.786,2.434l-.665.88a4.987,4.987,0,0,0-4.122-2.054c-2.469,0-4.3,1.476-5.419,4.4-1.083,2.81-1.614,7.208-1.614,13.438s.52,10.628,1.595,13.425A9.251,9.251,0,0,0,465.508,868.427ZM482.69,836.29l-.665.9c2.918,3.923,4.4,9.163,4.4,15.624,0,6.554-1.539,11.858-4.577,15.8a15.357,15.357,0,0,1-24.26.021v-.011l-.66.876c.006.011.006.03.011.03a16.11,16.11,0,0,0,25.566-.03c3.231-4.161,4.864-9.787,4.864-16.684C487.369,846.012,485.8,840.451,482.69,836.29Zm44.863,24.129c0-.144-.017-.3-.026-.457l-.98,1.256c0,.246.013.509.013.82,0,4.366-.846,7.581-2.486,9.541-1.67,1.985-4.4,2.991-8.095,2.991a17.972,17.972,0,0,1-6.9-1.86l-1.042-.466a38.506,38.506,0,0,0-3.826-1.407,9.654,9.654,0,0,0-2.719-.468,5.231,5.231,0,0,0-3.133.975,5.923,5.923,0,0,0-1.675,1.9h-3.41l-.98,1.245h4.927a5.249,5.249,0,0,1,1.647-2.074,4.487,4.487,0,0,1,2.624-.79,8.738,8.738,0,0,1,2.492.443,35.006,35.006,0,0,1,3.707,1.353l1.049.466a18.828,18.828,0,0,0,7.24,1.929c3.975,0,6.929-1.12,8.787-3.33s2.8-5.729,2.8-10.447C527.568,861.33,527.555,860.782,527.553,860.419Zm-33.531-11.366a6.183,6.183,0,0,0,4.845,2.026,5.646,5.646,0,0,0,4.094-1.638,5.171,5.171,0,0,0,1.6-3.83,4.445,4.445,0,0,0-1.116-3.136l-.721.9c.008,0,.028.019.041.041a3.026,3.026,0,0,1,.79,2.2,3.775,3.775,0,0,1-1.224,2.836,4.634,4.634,0,0,1-3.462,1.385,5.2,5.2,0,0,1-4.128-1.687l-.723.889Zm29.608-11.792c.017.03.037.05.056.08a11.807,11.807,0,0,1,1.858,6.642,10.749,10.749,0,0,1-2.635,7.311,18.805,18.805,0,0,1-8.561,5.115c-.574.192-1.36.438-2.372.738-7.05,2.262-11.466,4.9-13.535,8.041a2.234,2.234,0,0,0-.006,2.346l.788-.779a.745.745,0,0,1,0-.779c1.927-2.935,6.176-5.417,13-7.6,1.012-.313,1.8-.555,2.376-.749a19.684,19.684,0,0,0,9-5.427,12.233,12.233,0,0,0,2.95-8.216,13.011,13.011,0,0,0-2.2-7.6Zm-10.822-.995a9.851,9.851,0,0,0-6.7-2.266,10.181,10.181,0,0,0-5.654,1.506,9.281,9.281,0,0,0-3.55,4.638,2.283,2.283,0,0,0,.177,1.97l.794-.779a.759.759,0,0,1-.054-.654,8.007,8.007,0,0,1,3.11-4.064,9.334,9.334,0,0,1,5.177-1.353,9.019,9.019,0,0,1,6.042,1.975l.725-.9A.522.522,0,0,1,512.808,836.266Z" transform="translate(-449.755 -826.625)" fill="#fff" opacity="0.502"/>
    </g>
  </g>
</svg>
