<?xml version="1.0" encoding="utf-8"?>
<!-- Generator: Adobe Illustrator 24.2.3, SVG Export Plug-In . SVG Version: 6.00 Build 0)  -->
<svg version="1.1" xmlns="http://www.w3.org/2000/svg" xmlns:xlink="http://www.w3.org/1999/xlink" x="0px" y="0px"
	 viewBox="0 0 1200 588" style="enable-background:new 0 0 1200 588;" xml:space="preserve">
<style type="text/css">
	.st0{fill:#FFFFFF;}
	.st1{fill:#0A90B7;}
	.st2{fill:#1294C2;}
	.st3{fill:#F2F2F2;}
	.st4{fill:none;}
	.st5{fill:#0A90B7;stroke:#0A90B7;stroke-width:0.25;stroke-miterlimit:10;}
	.st6{font-family:'Muli-Black';}
	.st7{font-size:16px;}
	.st8{fill:#444444;}
	.st9{font-family:'Muli-Light';}
	.st10{letter-spacing:17;}
	.st11{letter-spacing:25;}
	.st12{font-family:'Montserrat-Medium';}
	.st13{font-size:18px;}
	.st14{font-family:'Muli-LightItalic';}
	.st15{font-size:14px;}
	.st16{font-family:'Montserrat-SemiBold';}
	.st17{fill:none;stroke:#757575;stroke-width:0.25;stroke-miterlimit:10;}
	.st18{fill:none;stroke:#0A90B7;stroke-width:0.75;stroke-miterlimit:10;}
	.st19{fill:#757575;}
	.st20{fill:none;stroke:#FFFFFF;stroke-width:2;stroke-linecap:round;}
	.st21{fill:#A6D7E5;}
	.st22{fill:#D8D8D8;}
	.st23{fill:#A00A0F;}
	.st24{fill:#C71F25;}
	.st25{opacity:0.1;enable-background:new    ;}
</style>
<g id="Shapes">
	<path id="Path_7616_6_" class="st1" d="M839.4,46.5H499.7V0h339.7l10.2,23.3L839.4,46.5z"/>
	<path id="Path_7616_5_" class="st1" d="M396.6,46.5H56.9V0h339.7l10.2,23.3L396.6,46.5z"/>
	<rect x="442.9" class="st0" width="56.9" height="46.5"/>
	<rect x="886.5" class="st0" width="56.9" height="46.5"/>
	<rect class="st0" width="56.9" height="46.5"/>
	<g>
		<polygon class="st1" points="947.1,3.3 947.1,43.3 1141,43.3 1141,41.6 1141,37.8 1153,45 1141,52.3 1141,46.6 943.7,46.6 
			943.7,0 966.8,0 1189.8,0 1200,23.3 1189.8,46.6 1160.8,46.6 1160.8,43.3 1187.3,43.3 1187.8,42.3 1195.3,24 1195.7,23.3 
			1195.3,22.7 1187.8,4.3 1187.2,3.3 		"/>
	</g>
</g>
<g id="background">
	<rect y="351.4" class="st0" width="396.4" height="204.8"/>
	<rect x="442.9" y="238.1" class="st0" width="396.4" height="349.8"/>
	<rect y="70" class="st0" width="396.4" height="235.1"/>
	<rect x="886.7" y="70" class="st0" width="304.6" height="157.6"/>
	<rect x="442.9" y="70" class="st0" width="396.4" height="121.2"/>
</g>
<g id="text">
	<g>
		<rect x="478.3" y="297.6" class="st4" width="333.5" height="268.1"/>
		<text transform="matrix(1 0 0 1 478.2563 311.2754)"><tspan x="0" y="0" class="st5 st6 st7">•</tspan><tspan x="8.5" y="0" class="st8 st9 st7 st10">	</tspan><tspan x="30" y="0" class="st8 st9 st7">Agency Review of Security Authorization </tspan><tspan x="30" y="20" class="st8 st9 st7">Package</tspan><tspan x="0" y="50" class="st5 st6 st7">•</tspan><tspan x="8.5" y="50" class="st8 st9 st7 st10">	</tspan><tspan x="30" y="50" class="st8 st9 st7">SAR Debrief</tspan><tspan x="0" y="80" class="st5 st6 st7">•</tspan><tspan x="8.5" y="80" class="st8 st9 st7 st10">	</tspan><tspan x="30" y="80" class="st8 st9 st7">Remediation</tspan><tspan x="0" y="110" class="st5 st6 st7">•</tspan><tspan x="8.5" y="110" class="st8 st9 st7 st10">	</tspan><tspan x="30" y="110" class="st8 st9 st7">Agency Final Review</tspan><tspan x="0" y="140" class="st5 st6 st7">•</tspan><tspan x="8.5" y="140" class="st8 st9 st7 st10">	</tspan><tspan x="30" y="140" class="st8 st9 st7">Agency Issues ATO</tspan><tspan x="0" y="170" class="st5 st6 st7">•</tspan><tspan x="8.5" y="170" class="st8 st9 st7 st10">	</tspan><tspan x="30" y="170" class="st8 st9 st7">FedRAMP PMO Review</tspan><tspan x="0" y="200" class="st5 st6 st7">•</tspan><tspan x="8.5" y="200" class="st8 st9 st7 st10">	</tspan><tspan x="30" y="200" class="st8 st9 st7">Remediation (if needed)</tspan><tspan x="0" y="230" class="st8 st9 st7 st11">	</tspan><tspan x="30" y="230" class="st8 st9 st7">FedRAMP Marketplace Designation - </tspan><tspan x="30" y="250" class="st8 st9 st7">Authorized</tspan></text>
	</g>
	<g>
		<rect x="34.4" y="407.4" class="st4" width="330.5" height="128.1"/>
		<text transform="matrix(1 0 0 1 34.375 421.1172)"><tspan x="0" y="0" class="st5 st6 st7">•</tspan><tspan x="8.5" y="0" class="st8 st9 st7 st10">	</tspan><tspan x="30" y="0" class="st8 st9 st7">Partnership Establishment</tspan><tspan x="0" y="30" class="st5 st6 st7">•</tspan><tspan x="8.5" y="30" class="st8 st9 st7 st10">	</tspan><tspan x="30" y="30" class="st8 st9 st7">Authorization Planning</tspan><tspan x="0" y="60" class="st5 st6 st7">•</tspan><tspan x="8.5" y="60" class="st8 st9 st7 st10">	</tspan><tspan x="30" y="60" class="st8 st9 st7">Kick-off Meeting</tspan><tspan x="0" y="90" class="st8 st9 st7 st11">	</tspan><tspan x="30" y="90" class="st8 st9 st7">FedRAMP Marketplace Designation – In </tspan><tspan x="30" y="110" class="st8 st9 st7">Process</tspan></text>
	</g>
	<g>
		<rect x="478.3" y="131.9" class="st4" width="317.6" height="36.1"/>
		<text transform="matrix(1 0 0 1 478.2563 143.7202)"><tspan x="0" y="0" class="st8 st9 st7 st11">	</tspan><tspan x="30" y="0" class="st8 st9 st7">Security Authorization Package (SSP, </tspan><tspan x="30" y="20" class="st8 st9 st7">SAP, SAR, POA&amp;M)*</tspan></text>
	</g>
	<g>
		<rect x="34.4" y="153.4" class="st4" width="351.8" height="128.1"/>
		<text transform="matrix(1 0 0 1 34.375 167.0596)"><tspan x="0" y="0" class="st8 st9 st7 st11">	</tspan><tspan x="30" y="0" class="st8 st9 st7">RAR Development</tspan><tspan x="0" y="30" class="st5 st6 st7">•</tspan><tspan x="8.5" y="30" class="st8 st9 st7 st10">	</tspan><tspan x="30" y="30" class="st8 st9 st7">FedRAMP PMO Review of RAR</tspan><tspan x="0" y="60" class="st5 st6 st7">•</tspan><tspan x="8.5" y="60" class="st8 st9 st7 st10">	</tspan><tspan x="30" y="60" class="st8 st9 st7">Remediation (if needed)</tspan><tspan x="0" y="90" class="st8 st9 st7 st11">	</tspan><tspan x="30" y="90" class="st8 st9 st7">FedRAMP Marketplace Designation – </tspan><tspan x="30" y="110" class="st8 st9 st7">Ready</tspan></text>
	</g>
	<g>
		<rect x="911.9" y="94.2" class="st4" width="250.3" height="20"/>
		<text transform="matrix(1 0 0 1 911.9385 109.4731)" class="st1 st12 st13">Post Authorization</text>
	</g>
	<g>
		<rect x="920.2" y="132" class="st4" width="256.9" height="68.1"/>
		<text transform="matrix(1 0 0 1 920.1938 145.6865)"><tspan x="0" y="0" class="st8 st9 st7 st11">	</tspan><tspan x="30" y="0" class="st8 st9 st7">Ongoing Continuous </tspan><tspan x="30" y="20" class="st8 st9 st7">Monitoring Deliverables</tspan><tspan x="0" y="50" class="st8 st9 st7 st11">	</tspan><tspan x="30" y="50" class="st8 st9 st7">Annual Assessment</tspan></text>
	</g>
	<g>
		<rect x="24.3" y="374.8" class="st4" width="170.3" height="20.6"/>
		<text transform="matrix(1 0 0 1 24.3301 390.0859)" class="st1 st12 st13">Pre-Authorization</text>
	</g>
	<g>
		<rect x="24.3" y="92.8" class="st4" width="217.8" height="49.8"/>
		<text transform="matrix(1 0 0 1 24.331 108.0752)" class="st1 st12 st13">Readiness Assessment</text>
	</g>
	<g>
		<rect x="469.5" y="94.5" class="st4" width="238.2" height="20.6"/>
		<text transform="matrix(1 0 0 1 469.519 109.8271)" class="st1 st12 st13">Full Security Assessment</text>
	</g>
	<g>
		<rect x="469.5" y="261.8" class="st4" width="287.2" height="20.6"/>
		<text transform="matrix(1 0 0 1 469.5195 277.0678)" class="st1 st12 st13">Agency Authorization Process</text>
	</g>
	<g>
		<rect x="908.4" y="460.7" class="st4" width="245" height="103.2"/>
		<text transform="matrix(1 0 0 1 908.4019 472.6956)"><tspan x="0" y="0" class="st8 st14 st15">* The full security assessment may  </tspan><tspan x="9.7" y="18" class="st8 st14 st15">be prepared in advance of the </tspan><tspan x="9.7" y="36" class="st8 st14 st15">authorization phase, or completed </tspan><tspan x="9.7" y="54" class="st8 st14 st15">during the authorization phase. This </tspan><tspan x="9.7" y="72" class="st8 st14 st15">is dependent on the agency&apos;s review </tspan><tspan x="9.7" y="90" class="st8 st14 st15">approach.</tspan></text>
	</g>
	<text transform="matrix(1 0 0 1 72.6186 29.728)" class="st0 st16 st13">Preparation</text>
	<text transform="matrix(1 0 0 1 517.8303 29.728)" class="st0 st16 st13">Authorization</text>
	<text transform="matrix(1 0 0 1 962.9424 29.728)" class="st1 st16 st13">Continuous Monitoring</text>
	<text transform="matrix(1 0 0 1 23.1514 131.6343)" class="st8 st14 st15">(Optional, but highly recommended)</text>
</g>
<g id="Graphics">
	<line class="st18" x1="924.5" y1="138.1" x2="924.5" y2="184"/>
	<g>
		<path id="Path_1554_4_" class="st19" d="M207.5,329.7c0,6.7-5.4,12.1-12.1,12.1s-12.1-5.4-12.1-12.1c0-6.7,5.4-12.1,12.1-12.1
			S207.5,323.1,207.5,329.7z"/>
		<g id="Group_1434_4_" transform="translate(4.574 4.222)">
			<g id="arrow_4_" transform="translate(4.574 0)">
				<path id="arrow-2_4_" class="st0" d="M186.3,332.8c-0.3,0-0.7-0.1-0.9-0.4l-5.3-5.1c-0.5-0.5-0.5-1.2-0.1-1.7
					c0,0,0.1-0.1,0.1-0.1c0.5-0.5,1.3-0.5,1.8,0c0,0,0,0,0,0l4.4,4.2l4.4-4.2c0.5-0.5,1.3-0.5,1.8,0c0,0,0,0,0,0
					c0.5,0.5,0.5,1.2,0.1,1.7c0,0,0,0.1-0.1,0.1l-5.3,5.1C187,332.7,186.7,332.8,186.3,332.8z"/>
			</g>
			<path id="Path_1968_4_" class="st20" d="M190.8,330v-10.8"/>
		</g>
	</g>
	<g>
		<path id="Path_1554_1_" class="st19" d="M646.3,216.1c0,6.7-5.4,12.1-12.1,12.1c-6.7,0-12.1-5.4-12.1-12.1s5.4-12.1,12.1-12.1
			C640.9,204,646.3,209.4,646.3,216.1z"/>
		<g id="Group_1434_1_" transform="translate(4.574 4.222)">
			<g id="arrow_1_" transform="translate(4.574 0)">
				<path id="arrow-2_1_" class="st0" d="M625.2,219.2c-0.3,0-0.7-0.1-0.9-0.4l-5.3-5.1c-0.5-0.5-0.5-1.2-0.1-1.7
					c0,0,0.1-0.1,0.1-0.1c0.5-0.5,1.3-0.5,1.8,0c0,0,0,0,0,0l4.4,4.2l4.4-4.2c0.5-0.5,1.3-0.5,1.8,0c0,0,0,0,0,0
					c0.5,0.5,0.5,1.2,0.1,1.7c0,0,0,0.1-0.1,0.1l-5.3,5.1C625.9,219,625.5,219.2,625.2,219.2z"/>
			</g>
			<path id="Path_1968_1_" class="st20" d="M629.6,216.4v-10.8"/>
		</g>
	</g>
	<line class="st18" x1="38.7" y1="161.5" x2="38.7" y2="235.2"/>
	<g>
		<g>
			<circle class="st1" cx="924" cy="140.4" r="12.1"/>
		</g>
		<g>
			<path class="st0" d="M926.6,137.1c-0.3,0-0.6-0.3-0.6-0.6v-4h-6.2c-0.9,0-1.6,0.7-1.6,1.6v12.6c0,0.9,0.7,1.6,1.6,1.6h9.2
				c0.9,0,1.6-0.7,1.6-1.6v-9.6H926.6z"/>
		</g>
		<path class="st21" d="M926.5,137.1h4l-4.6-4.6v4C926,136.9,926.2,137.1,926.5,137.1z"/>
		<polygon class="st3" points="930.6,140.4 930.6,137.2 926.6,137.2 		"/>
	</g>
	<g>
		<g>
			<circle class="st1" cx="482.2" cy="140.4" r="12.1"/>
		</g>
		<g>
			<path class="st0" d="M484.7,137.1c-0.3,0-0.6-0.3-0.6-0.6v-4h-6.2c-0.9,0-1.6,0.7-1.6,1.6v12.6c0,0.9,0.7,1.6,1.6,1.6h9.2
				c0.9,0,1.6-0.7,1.6-1.6v-9.6H484.7z"/>
		</g>
		<path class="st21" d="M484.6,137.1h4l-4.6-4.6v4C484.1,136.9,484.3,137.1,484.6,137.1z"/>
		<polygon class="st3" points="488.7,140.4 488.7,137.2 484.7,137.2 		"/>
	</g>
	<g>
		<g>
			<circle class="st1" cx="38.7" cy="161.5" r="12.1"/>
		</g>
		<g>
			<path class="st0" d="M41.2,158.3c-0.3,0-0.6-0.3-0.6-0.6v-4h-6.2c-0.9,0-1.6,0.7-1.6,1.6v12.6c0,0.9,0.7,1.6,1.6,1.6h9.2
				c0.9,0,1.6-0.7,1.6-1.6v-9.6H41.2z"/>
		</g>
		<path class="st21" d="M41.1,158.3h4l-4.6-4.6v4C40.6,158,40.8,158.2,41.1,158.3z"/>
		<polygon class="st3" points="45.2,161.5 45.2,158.3 41.2,158.3 		"/>
	</g>
	<g>
		<g>
			<circle class="st1" cx="924" cy="191.2" r="12.1"/>
		</g>
		<g>
			<path class="st0" d="M926.6,188c-0.3,0-0.6-0.3-0.6-0.6v-4h-6.2c-0.9,0-1.6,0.7-1.6,1.6v12.6c0,0.9,0.7,1.6,1.6,1.6h9.2
				c0.9,0,1.6-0.7,1.6-1.6V188H926.6z"/>
		</g>
		<path class="st21" d="M926.5,188h4l-4.6-4.6v4C926,187.7,926.2,187.9,926.5,188z"/>
		<polygon class="st3" points="930.6,191.2 930.6,188 926.6,188 		"/>
	</g>
	<line class="st18" x1="38.7" y1="414.8" x2="38.7" y2="486.5"/>
	<line class="st18" x1="482.2" y1="305.6" x2="482.2" y2="518.7"/>
	<g>
		<path class="st22" d="M493.5,545c0.5-0.9-0.4-2.3-0.1-3.3c0.3-0.9,1.7-1.8,1.7-2.8c0-1-1.5-1.8-1.7-2.8c-0.3-1,0.6-2.4,0.1-3.3
			c-0.5-0.9-2.2-0.8-2.9-1.5c-0.7-0.7-0.7-2.4-1.5-2.9c-0.9-0.5-2.3,0.4-3.3,0.1c-0.9-0.3-1.8-1.7-2.8-1.7c-1,0-1.8,1.5-2.8,1.7
			c-1,0.3-2.4-0.6-3.3-0.1c-0.9,0.5-0.8,2.2-1.5,2.9c-0.7,0.7-2.4,0.7-2.9,1.5c-0.5,0.9,0.4,2.3,0.1,3.3c-0.3,0.9-1.7,1.8-1.7,2.8
			c0,1,1.5,1.8,1.7,2.8c0.3,1-0.6,2.4-0.1,3.3c0.5,0.9,2.2,0.8,2.9,1.5c0.5,0.5,0.6,1.3,0.9,2l-3.9,8.1l5.2-1.3l2.7,4.6l2.7-7.2
			l2.7,7.2l2.7-4.6l5.2,1.3l-3.9-8.1c0.3-0.7,0.4-1.6,0.9-2C491.3,545.8,493,545.9,493.5,545z"/>
		<g>
			<g>
				<polygon class="st23" points="478.6,558.3 475.9,553.7 470.7,555 477.7,540.4 484.2,543.2 				"/>
				<polygon class="st23" points="483.9,558.3 486.6,553.7 491.8,555 484.8,540.4 478.3,543.2 				"/>
			</g>
			<path class="st24" d="M493.4,537.3c0,1-1.5,1.8-1.7,2.8c-0.3,1,0.6,2.4,0.1,3.3c-0.5,0.9-2.2,0.8-2.9,1.5
				c-0.7,0.7-0.7,2.4-1.5,2.9c-0.9,0.5-2.3-0.4-3.3-0.1c-0.9,0.3-1.8,1.7-2.8,1.7c-1,0-1.8-1.5-2.8-1.7c-1-0.3-2.4,0.6-3.3,0.1
				c-0.9-0.5-0.8-2.2-1.5-2.9c-0.7-0.7-2.4-0.7-2.9-1.5c-0.5-0.9,0.4-2.3,0.1-3.3c-0.3-0.9-1.7-1.8-1.7-2.8c0-1,1.5-1.8,1.7-2.8
				c0.3-1-0.6-2.4-0.1-3.3c0.5-0.9,2.2-0.8,2.9-1.5c0.7-0.7,0.7-2.4,1.5-2.9c0.9-0.5,2.3,0.4,3.3,0.1c0.9-0.3,1.8-1.7,2.8-1.7
				c1,0,1.8,1.5,2.8,1.7c1,0.3,2.4-0.6,3.3-0.1c0.9,0.5,0.8,2.2,1.5,2.9c0.7,0.7,2.4,0.7,2.9,1.5c0.5,0.9-0.4,2.3-0.1,3.3
				C491.9,535.4,493.4,536.2,493.4,537.3z"/>
			<g>
				<path class="st3" d="M488.2,537.3c0,3.8-3.1,6.9-6.9,6.9c-3.8,0-6.9-3.1-6.9-6.9s3.1-6.9,6.9-6.9
					C485.1,530.4,488.2,533.5,488.2,537.3"/>
				<path class="st0" d="M486.9,537.3c0,3.1-2.5,5.7-5.7,5.7s-5.7-2.5-5.7-5.7s2.5-5.7,5.7-5.7S486.9,534.1,486.9,537.3"/>
			</g>
		</g>
	</g>
	<g>
		<g id="g56755_1_" transform="matrix(14,0,0,14,49637.042,519374.88)">
			<path id="path56757_1_" class="st24" d="M-3541.9-37079.9c0,0.5-0.4,0.9-0.9,0.9l0,0c-0.5,0-0.9-0.4-0.9-0.9l0,0
				c0-0.5,0.4-0.9,0.9-0.9l0,0C-3542.3-37080.8-3541.9-37080.4-3541.9-37079.9L-3541.9-37079.9z"/>
		</g>
		<path id="path53460_1_" class="st25" d="M44.4,250.2c-3.4,1.6-5.1,5-6.7,8l-2.3-2.3c-1.2,0.9-2.4,1.5-3.5,2.2l9.5,9.5
			c5.3-1.2,9.1-5.7,9.4-11.1L44.4,250.2z"/>
		<path id="path38606_1_" class="st0" d="M35.4,256c0.7,0.9,1.2,2,1.8,3.3c1.7-3.3,3.5-7.2,7.2-9c-0.4,1.5-0.6,3.4-0.1,5
			c-3.1,1.6-5.1,4.5-7.1,7.4c-1.9-2.6-3.5-3.5-5.4-4.4C33,257.5,34.2,256.8,35.4,256L35.4,256z"/>
	</g>
	<g>
		<path class="st22" d="M51.4,510c0-1.5,0-1.6,0-3.1l-2.8-1c-0.4-0.9-0.6-1.4-0.9-2.3l1.3-2.7c-1.1-1.1-1.1-1.1-2.2-2.2l-2.7,1.2
			c-0.9-0.4-1.4-0.6-2.2-1l-1-2.8c-1.5,0-1.6,0-3.1,0l-1,2.8c-0.9,0.4-1.4,0.6-2.3,0.9l-2.7-1.3c-1.1,1.1-1.1,1.1-2.2,2.2l1.2,2.7
			c-0.4,0.9-0.6,1.4-1,2.2l-2.8,1c0,1.5,0,1.6,0,3.1l2.8,1c0.4,0.9,0.6,1.4,0.9,2.3l-1.3,2.7c1.1,1.1,1.1,1.1,2.2,2.2l2.7-1.2
			c0.9,0.4,1.4,0.6,2.2,1l1,2.8c1.5,0,1.6,0,3.1,0l1-2.8c0.9-0.4,1.4-0.6,2.3-0.9l2.7,1.3c1.1-1.1,1.1-1.1,2.2-2.2l-1.2-2.7
			c0.4-0.9,0.6-1.4,1-2.2L51.4,510z M39.4,513.1c-2.6,0-4.7-2.1-4.7-4.7c0-2.6,2.1-4.7,4.7-4.7c2.6,0,4.7,2.1,4.7,4.7
			C44.1,511,42,513.1,39.4,513.1z"/>
		<path class="st24" d="M50,509c0-1.5,0-1.6,0-3.1l-2.8-1c-0.4-0.9-0.6-1.4-0.9-2.3l1.3-2.7c-1.1-1.1-1.1-1.1-2.2-2.2l-2.7,1.2
			c-0.9-0.4-1.4-0.6-2.2-1l-1-2.8c-1.5,0-1.6,0-3.1,0l-1,2.8c-0.9,0.4-1.4,0.6-2.3,0.9l-2.7-1.3c-1.1,1.1-1.1,1.1-2.2,2.2l1.2,2.7
			c-0.4,0.9-0.6,1.4-1,2.2l-2.8,1c0,1.5,0,1.6,0,3.1l2.8,1c0.4,0.9,0.6,1.4,0.9,2.3l-1.3,2.7c1.1,1.1,1.1,1.1,2.2,2.2l2.7-1.2
			c0.9,0.4,1.4,0.6,2.2,1l1,2.8c1.5,0,1.6,0,3.1,0l1-2.8c0.9-0.4,1.4-0.6,2.3-0.9l2.7,1.3c1.1-1.1,1.1-1.1,2.2-2.2l-1.2-2.7
			c0.4-0.9,0.6-1.4,1-2.2L50,509z M37.9,512.1c-2.6,0-4.7-2.1-4.7-4.7c0-2.6,2.1-4.7,4.7-4.7c2.6,0,4.7,2.1,4.7,4.7
			C42.7,510,40.5,512.1,37.9,512.1z"/>
	</g>
	<g>
		<path class="st0" d="M483,35c-1,0-2.2-0.3-3.6-0.9l-0.3-0.1l-0.2-0.1c-0.6-0.3-1.1-0.4-1.5-0.6c-0.3-0.1-0.6-0.2-0.9-0.2
			c-0.2,0-0.4,0.1-0.6,0.2c-0.1,0.1-0.3,0.3-0.4,0.5c-0.2,0.4-0.5,0.6-0.8,0.6h-2.5c-0.4,0-0.8-0.4-0.9-0.9c0-0.2,0-0.4-0.1-0.6
			c0-0.2,0-0.4,0-0.7c0-1.4,0.3-2.8,0.8-3.9c0.5-1.2,1.3-2.3,2.4-3.3c0.4-0.3,0.8-0.7,1.3-1.1c-0.1,0-0.3,0-0.4,0
			c-1.2,0-2.2-0.4-2.9-1.3c-0.8-0.9-1.2-2-1.2-3.5c0-2.2,0.9-4.1,2.6-5.6c1.6-1.4,3.7-2.1,6.1-2.1c2.6,0,4.7,0.7,6.3,2
			c1.7,1.4,2.6,3.4,2.6,5.8c0,1.8-0.6,3.4-1.7,4.7c-0.3,0.4-0.7,0.7-1.1,1h2.3c0.5,0,0.9,0.5,0.9,1c0,0.2,0,0.3,0,0.5
			c0,0.2,0,0.4,0,0.8c0,2.5-0.5,4.4-1.6,5.7C486.7,34.4,485.1,35,483,35L483,35z M481.1,27.3c0.4,0.1,0.7,0.1,1.2,0.2
			c1.3,0.3,1.7,0.3,1.8,0.3c0.2,0,0.5,0,0.6-0.2c0.1-0.1,0.2-0.4,0.2-1.5c0-0.1,0-0.2,0-0.3c-0.7,0.4-1.4,0.7-2.2,0.9
			c-0.2,0.1-0.6,0.2-1.1,0.3C481.4,27.2,481.2,27.2,481.1,27.3L481.1,27.3z M477.3,17c0.3,0.1,0.5,0.3,0.8,0.6
			c0.6,0.6,0.9,1.5,0.9,2.5c0,0.8-0.2,1.5-0.6,2.1c0.4-0.2,0.6-0.4,0.8-0.5c1-0.7,1.5-1.2,1.7-1.5c0.2-0.4,0.3-0.8,0.3-1.3
			c0-0.6-0.2-1-0.6-1.4c-0.5-0.4-1.2-0.7-2.1-0.7C478.1,16.8,477.7,16.8,477.3,17L477.3,17z M462.2,35c-2.6,0-4.8-1.1-6.5-3.2
			c-1.7-2.1-2.5-5-2.5-8.5c0-3.5,0.8-6.4,2.5-8.5c1.7-2.2,3.8-3.2,6.5-3.2c2.6,0,4.8,1.1,6.5,3.2c1.7,2.2,2.5,5,2.5,8.5
			c0,3.5-0.8,6.4-2.5,8.5C467,33.9,464.9,35,462.2,35L462.2,35z M462.2,16.7c-0.7,0-1.2,0.4-1.5,1.2c-0.3,0.7-0.6,2.2-0.6,5.4
			c0,3.2,0.3,4.7,0.6,5.4c0.3,0.8,0.8,1.2,1.5,1.2c0.7,0,1.2-0.4,1.5-1.2c0.3-0.7,0.6-2.2,0.6-5.4c0-3.2-0.3-4.7-0.6-5.4
			C463.4,17,463,16.7,462.2,16.7L462.2,16.7z"/>
		<path class="st1" d="M472.2,33.3c0-0.1,0-0.3,0-0.4c0-0.1,0-0.4,0-0.7c0-1.2,0.2-2.4,0.7-3.4c0.5-1,1.2-2,2.2-3
			c0.7-0.7,1.8-1.4,3.3-2.4c0.7-0.4,1.2-0.7,1.5-0.9c0.9-0.6,1.6-1.2,1.9-1.8c0.3-0.6,0.5-1.2,0.5-2c0-0.9-0.3-1.7-1-2.3
			c-0.7-0.6-1.5-0.9-2.6-0.9c-0.9,0-1.6,0.2-2.2,0.6c-0.6,0.4-1,0.9-1.3,1.7c0.2,0,0.3-0.1,0.5-0.1c0.2,0,0.3,0,0.4,0
			c0.6,0,1.1,0.2,1.5,0.6c0.4,0.4,0.6,1,0.6,1.6c0,0.8-0.3,1.4-0.8,1.9c-0.5,0.5-1.2,0.8-2,0.8c-1,0-1.7-0.3-2.3-1
			c-0.6-0.7-0.9-1.5-0.9-2.7c0-1.8,0.7-3.4,2.2-4.6c1.5-1.2,3.4-1.9,5.6-1.9c2.4,0,4.4,0.6,5.8,1.8c1.4,1.2,2.2,2.8,2.2,4.8
			c0,1.5-0.5,2.8-1.4,3.9c-0.9,1.1-2.3,1.9-4.1,2.5c-0.3,0.1-0.6,0.2-1.1,0.3c-3,1-4.9,2.1-5.7,3.3c0.6-0.4,1.2-0.6,1.8-0.8
			c0.6-0.2,1.3-0.3,1.9-0.3c0.7,0,1.6,0.1,2.6,0.4c1,0.2,1.7,0.4,2,0.4c0.6,0,1.1-0.2,1.3-0.6c0.3-0.4,0.4-1.1,0.4-2.2h2.6
			c0,0.2,0,0.3,0,0.5c0,0.2,0,0.4,0,0.7c0,2.2-0.4,3.8-1.3,4.9c-0.9,1.1-2.2,1.6-4.1,1.6c-0.9,0-2-0.3-3.3-0.9
			c-0.2-0.1-0.4-0.2-0.5-0.2c-0.7-0.3-1.2-0.5-1.6-0.6c-0.4-0.1-0.8-0.2-1.1-0.2c-0.4,0-0.8,0.1-1.1,0.3c-0.3,0.2-0.5,0.5-0.7,1
			H472.2z M454.1,23.3c0-3.2,0.8-5.8,2.2-7.7c1.5-1.9,3.5-2.9,5.9-2.9c2.4,0,4.4,1,5.9,2.9c1.5,1.9,2.2,4.5,2.2,7.7
			c0,3.2-0.8,5.8-2.2,7.7c-1.5,1.9-3.5,2.9-5.9,2.9c-2.4,0-4.4-1-5.9-2.9C454.9,29,454.1,26.5,454.1,23.3z M459.3,23.3
			c0,2.7,0.2,4.7,0.7,5.9c0.5,1.2,1.2,1.8,2.2,1.8c1,0,1.8-0.6,2.2-1.8c0.5-1.2,0.7-3.2,0.7-5.9c0-2.7-0.2-4.7-0.7-5.9
			c-0.5-1.2-1.2-1.8-2.2-1.8c-1,0-1.8,0.6-2.2,1.8C459.5,18.6,459.3,20.5,459.3,23.3z"/>
		<path class="st21" d="M460.3,30.3l-0.3,0.4c-0.2-0.3-0.4-0.7-0.6-1.1c-0.5-1.3-0.8-3.4-0.8-6.3c0-2.9,0.3-4.9,0.8-6.3
			c0.6-1.5,1.5-2.3,2.8-2.3c0.9,0,1.6,0.4,2.1,1.1l-0.3,0.4c-0.5-0.6-1.1-0.9-1.8-0.9c-1.1,0-1.9,0.7-2.4,2c-0.5,1.3-0.7,3.2-0.7,6
			c0,2.8,0.2,4.8,0.7,6C460,29.7,460.1,30,460.3,30.3z M468,15.8l-0.3,0.4c1.3,1.8,2,4.1,2,7c0,2.9-0.7,5.3-2.1,7.1
			c-1.4,1.8-3.2,2.7-5.5,2.7c-2.2,0-4.1-0.9-5.4-2.7v0l-0.3,0.4c0,0,0,0,0,0c1.4,1.9,3.4,2.8,5.7,2.8c2.4,0,4.3-1,5.7-2.8
			c1.4-1.9,2.2-4.4,2.2-7.5C470.1,20.2,469.4,17.7,468,15.8z M488.2,26.7c0-0.1,0-0.1,0-0.2l-0.4,0.6c0,0.1,0,0.2,0,0.4
			c0,2-0.4,3.4-1.1,4.3c-0.8,0.9-2,1.3-3.6,1.3c-0.8,0-1.9-0.3-3.1-0.8l-0.5-0.2c-0.7-0.3-1.3-0.5-1.7-0.6c-0.5-0.1-0.9-0.2-1.2-0.2
			c-0.5,0-1,0.1-1.4,0.4c-0.3,0.2-0.5,0.5-0.8,0.9h-1.5l-0.4,0.6h2.2c0.2-0.4,0.4-0.7,0.7-0.9c0.3-0.2,0.7-0.4,1.2-0.4
			c0.3,0,0.7,0.1,1.1,0.2c0.4,0.1,1,0.3,1.7,0.6l0.5,0.2c1.3,0.6,2.4,0.9,3.2,0.9c1.8,0,3.1-0.5,3.9-1.5c0.8-1,1.3-2.6,1.3-4.7
			C488.2,27.1,488.2,26.8,488.2,26.7z M473.1,21.6c0.5,0.6,1.3,0.9,2.2,0.9c0.7,0,1.3-0.3,1.8-0.7c0.5-0.5,0.7-1,0.7-1.7
			c0-0.6-0.2-1-0.5-1.4L477,19c0,0,0,0,0,0c0.2,0.3,0.4,0.6,0.4,1c0,0.5-0.2,0.9-0.5,1.3c-0.4,0.4-0.9,0.6-1.6,0.6
			c-0.8,0-1.4-0.3-1.9-0.8L473.1,21.6C473.1,21.6,473.1,21.6,473.1,21.6z M486.4,16.3C486.4,16.3,486.4,16.3,486.4,16.3
			c0.6,0.9,0.9,1.9,0.9,3c0,1.3-0.4,2.4-1.2,3.3c-0.8,1-2.1,1.7-3.8,2.3c-0.3,0.1-0.6,0.2-1.1,0.3c-3.2,1-5.1,2.2-6.1,3.6
			c-0.2,0.3-0.2,0.7,0,1.1l0.4-0.3c-0.1-0.1-0.1-0.2,0-0.3c0.9-1.3,2.8-2.4,5.8-3.4c0.5-0.1,0.8-0.2,1.1-0.3c1.8-0.6,3.1-1.4,4-2.4
			c0.9-1,1.3-2.3,1.3-3.7c0-1.3-0.3-2.5-1-3.4L486.4,16.3z M481.6,15.8c-0.8-0.7-1.8-1-3-1c-1,0-1.9,0.2-2.5,0.7
			c-0.7,0.5-1.3,1.2-1.6,2.1c-0.1,0.3-0.1,0.6,0.1,0.9l0.4-0.3c0-0.1-0.1-0.2,0-0.3c0.3-0.8,0.8-1.4,1.4-1.8
			c0.6-0.4,1.4-0.6,2.3-0.6c1.1,0,2,0.3,2.7,0.9L481.6,15.8C481.6,15.8,481.6,15.8,481.6,15.8z"/>
	</g>
	<g>
		<path class="st0" d="M21,35c-2.6,0-4.8-1.1-6.5-3.2c-1.7-2.1-2.5-5-2.5-8.5c0-3.5,0.8-6.4,2.5-8.5c1.7-2.2,3.8-3.2,6.5-3.2
			c2.6,0,4.8,1.1,6.5,3.2c1.7,2.2,2.5,5,2.5,8.5c0,3.5-0.8,6.4-2.5,8.5C25.8,33.9,23.6,35,21,35L21,35z M21,16.7
			c-0.7,0-1.2,0.4-1.5,1.2c-0.3,0.7-0.6,2.2-0.6,5.4c0,3.2,0.3,4.7,0.6,5.4c0.3,0.8,0.8,1.2,1.5,1.2c0.7,0,1.2-0.4,1.5-1.2
			c0.3-0.7,0.6-2.2,0.6-5.4c0-3.2-0.3-4.7-0.6-5.4C22.2,17,21.7,16.7,21,16.7L21,16.7z M43.4,35c0.5,0,0.9-0.5,0.9-1.2v-2.9
			c0-0.7-0.4-1.2-0.9-1.2h-1.2c-1.2,0-1.3-0.6-1.3-1.3V12.7c0-0.7-0.4-1.2-0.9-1.2h-3.9c-0.4,0-0.7,0.3-0.8,0.7
			c-0.2,0.7-0.6,1.2-1.2,1.6c-0.7,0.4-1.7,0.6-2.9,0.7c-0.5,0-0.9,0.5-0.9,1.2v2.8c0,0.3,0.1,0.6,0.3,0.8c0.2,0.2,0.4,0.4,0.6,0.4
			h2.7v8.6v0.7c0,0.4,0,0.8-1.3,0.8h-1.4c-0.5,0-0.9,0.5-0.9,1.2v2.9c0,0.7,0.4,1.2,0.9,1.2H43.4L43.4,35z"/>
		<path class="st1" d="M31.2,33.8v-2.9h1.4c0.9,0,1.5-0.1,1.8-0.3c0.3-0.2,0.4-0.8,0.4-1.7v-0.7v-9.8h-3.6v-2.9
			c1.4,0,2.5-0.3,3.3-0.8c0.8-0.5,1.4-1.2,1.7-2.2H40v15.8c0,1.1,0.1,1.8,0.4,2.1c0.2,0.3,0.9,0.4,1.8,0.4h1.2v2.9H31.2z M12.9,23.3
			c0-3.2,0.8-5.8,2.2-7.7c1.5-1.9,3.5-2.9,5.9-2.9c2.4,0,4.4,1,5.9,2.9c1.5,1.9,2.2,4.5,2.2,7.7c0,3.2-0.8,5.8-2.2,7.7
			c-1.5,1.9-3.5,2.9-5.9,2.9c-2.4,0-4.4-1-5.9-2.9C13.6,29,12.9,26.5,12.9,23.3z M18.1,23.3c0,2.7,0.2,4.7,0.7,5.9
			C19.2,30.4,20,31,21,31c1,0,1.8-0.6,2.2-1.8c0.5-1.2,0.7-3.2,0.7-5.9c0-2.7-0.2-4.7-0.7-5.9c-0.5-1.2-1.2-1.8-2.2-1.8
			c-1,0-1.8,0.6-2.2,1.8C18.3,18.6,18.1,20.5,18.1,23.3z"/>
		<path class="st21" d="M40.2,30.8L40,31.2c-0.4-0.5-0.6-1.3-0.6-2.7V13.6l0.5-0.6v15.5C39.8,29.7,40,30.4,40.2,30.8z M34.7,17.6
			h-2.9l-0.5,0.6h3.3c0.1,0,0.1,0,0.2,0.1l0.3-0.4C35.1,17.7,34.9,17.6,34.7,17.6z M42.8,31.8v1.1H31.9l-0.5,0.6h11.8v-2.3
			L42.8,31.8z M18.6,29.3c-0.5-1.3-0.7-3.2-0.7-6c0-2.8,0.2-4.8,0.7-6c0.5-1.3,1.3-2,2.4-2c0.8,0,1.4,0.3,1.8,0.9l0.3-0.4
			c-0.6-0.7-1.3-1.1-2.1-1.1c-1.3,0-2.2,0.8-2.8,2.3c-0.5,1.3-0.8,3.4-0.8,6.3c0,2.9,0.2,4.9,0.8,6.3c0.2,0.4,0.4,0.8,0.6,1.1
			l0.3-0.4C18.9,30,18.7,29.7,18.6,29.3z M26.8,15.8l-0.3,0.4c1.3,1.8,2,4.1,2,7c0,2.9-0.7,5.3-2.1,7.1C25.1,32.1,23.2,33,21,33
			c-2.2,0-4.1-0.9-5.4-2.7v0l-0.3,0.4c0,0,0,0,0,0c1.4,1.9,3.4,2.8,5.7,2.8c2.4,0,4.3-1,5.7-2.8c1.4-1.9,2.2-4.4,2.2-7.5
			C28.9,20.2,28.2,17.7,26.8,15.8z"/>
	</g>
	<g>
		<path class="st0" d="M905.2,35.7c-2.9,0-5.2-1.1-7-3.4c-1.8-2.3-2.7-5.3-2.7-9c0-3.7,0.9-6.7,2.7-9c1.8-2.3,4.2-3.4,7-3.4
			c2.9,0,5.3,1.1,7,3.4c1.8,2.3,2.7,5.3,2.7,9c0,3.7-0.9,6.7-2.7,9C910.4,34.5,908.1,35.7,905.2,35.7L905.2,35.7z M905.2,16.3
			c-0.8,0-1.3,0.4-1.6,1.3c-0.3,0.8-0.7,2.4-0.7,5.7c0,3.3,0.4,4.9,0.7,5.7c0.3,0.9,0.8,1.3,1.6,1.3c0.8,0,1.3-0.4,1.6-1.3
			c0.3-0.8,0.7-2.4,0.7-5.7c0-3.3-0.3-5-0.6-5.7C906.5,16.7,906,16.3,905.2,16.3L905.2,16.3z M923.8,35.7c-2.7,0-4.9-0.6-6.5-1.7
			c-1.8-1.3-2.7-3.1-2.7-5.3c0-1.5,0.4-2.7,1.2-3.6c0.8-0.9,1.9-1.4,3.1-1.4c1.1,0,2,0.4,2.7,1.1c0.8,0.8,1.2,1.8,1.2,3
			c0,1-0.3,1.8-0.8,2.5c0.2,0,0.5,0,0.8,0c1.2,0,2-0.3,2.6-0.8c0.5-0.5,0.7-1.1,0.7-2c0-0.9-0.3-1.3-0.6-1.5
			c-0.4-0.3-1.2-0.6-2.8-0.6c-0.5,0-1-0.5-1-1.2v-2.7c-0.7,0.5-1.5,0.8-2.5,0.8c-1.2,0-2.1-0.4-2.9-1.2c-0.7-0.8-1.1-1.9-1.1-3.3
			c0-2.2,0.9-4,2.6-5.2c1.6-1.2,3.7-1.8,6.3-1.8c2.9,0,5.1,0.5,6.7,1.6c1.8,1.2,2.7,3,2.7,5.3c0,1.5-0.5,2.9-1.4,3.9
			c-0.2,0.3-0.5,0.5-0.7,0.7c0.5,0.3,1,0.7,1.4,1.2c1,1.1,1.6,2.5,1.6,4.2c0,2.6-1,4.7-3,6.1C929.7,35.1,927.2,35.7,923.8,35.7
			L923.8,35.7z M922.4,16.1c0.5,0.6,0.7,1.4,0.7,2.2c0,0.6-0.1,1.2-0.3,1.7c1.4-0.1,2.1-0.4,2.4-0.7c0.4-0.3,0.5-0.7,0.5-1.2
			c0-0.6-0.2-1-0.6-1.4c-0.5-0.4-1.3-0.7-2.3-0.7C922.7,16.1,922.6,16.1,922.4,16.1L922.4,16.1z"/>
		<path class="st1" d="M896.4,23.3c0-3.4,0.8-6.1,2.4-8.2c1.6-2.1,3.8-3.1,6.4-3.1c2.6,0,4.8,1,6.4,3.1c1.6,2.1,2.4,4.8,2.4,8.2
			c0,3.4-0.8,6.1-2.4,8.1c-1.6,2.1-3.8,3.1-6.4,3.1c-2.6,0-4.8-1-6.4-3.1C897.2,29.4,896.4,26.6,896.4,23.3z M902,23.3
			c0,2.9,0.3,5,0.8,6.2c0.5,1.3,1.3,1.9,2.4,1.9c1.1,0,1.9-0.6,2.4-1.9c0.5-1.3,0.8-3.4,0.8-6.2c0-2.9-0.3-5-0.7-6.3
			c-0.5-1.3-1.3-1.9-2.4-1.9c-1.1,0-1.9,0.6-2.4,1.9C902.3,18.3,902,20.4,902,23.3z M922.8,24.2v-2.9c1.3-0.1,2.3-0.4,3-0.9
			c0.7-0.5,1-1.3,1-2.2c0-1-0.3-1.8-1.1-2.4c-0.7-0.6-1.7-0.9-2.9-0.9c-0.7,0-1.3,0.1-1.8,0.3c-0.5,0.2-1,0.5-1.4,0.9h0.3
			c0.7,0,1.2,0.2,1.7,0.6c0.4,0.4,0.6,1,0.6,1.7c0,0.8-0.3,1.5-0.8,2c-0.5,0.5-1.2,0.7-2.1,0.7c-0.9,0-1.7-0.3-2.2-0.9
			c-0.5-0.6-0.8-1.4-0.8-2.4c0-1.8,0.7-3.2,2.1-4.2c1.4-1.1,3.4-1.6,5.8-1.6c2.7,0,4.8,0.5,6.3,1.5c1.5,1,2.2,2.4,2.2,4.2
			c0,1.2-0.4,2.2-1.1,3c-0.7,0.8-1.8,1.3-3.1,1.6c1.7,0.5,2.9,1.1,3.8,2c0.8,0.9,1.2,2,1.2,3.4c0,2.2-0.8,3.9-2.5,5
			c-1.6,1.2-4.1,1.7-7.2,1.7c-2.5,0-4.5-0.5-6-1.6c-1.5-1-2.2-2.5-2.2-4.2c0-1.1,0.3-2,0.9-2.7c0.6-0.7,1.4-1,2.4-1
			c0.8,0,1.5,0.3,2.1,0.8c0.6,0.6,0.8,1.2,0.8,2.1c0,0.8-0.2,1.4-0.7,1.9c-0.5,0.5-1.1,0.7-1.9,0.7c0.5,0.4,1,0.7,1.6,0.9
			c0.6,0.2,1.3,0.3,2,0.3c1.4,0,2.5-0.3,3.2-1c0.7-0.7,1.1-1.7,1.1-2.9c0-1.2-0.4-2-1.1-2.5C925.4,24.4,924.3,24.2,922.8,24.2z"/>
		<path class="st21" d="M921.2,17.5l0.3-0.4c0.3,0.3,0.4,0.7,0.4,1.3c0,0.7-0.2,1.3-0.7,1.8c-0.5,0.5-1.1,0.7-1.9,0.7
			c-0.9,0-1.6-0.3-2.1-0.8l0.4-0.4c0.4,0.4,1,0.6,1.7,0.6c0.7,0,1.2-0.2,1.6-0.6c0.3-0.3,0.5-0.7,0.5-1.3
			C921.4,18,921.3,17.7,921.2,17.5z M932,17.7c0,1-0.3,1.7-0.9,2.4c-0.6,0.7-1.5,1.2-2.7,1.4c-0.3,0.1-0.6,0.4-0.6,0.8
			c0,0.3,0.1,0.5,0.2,0.7l0.3-0.4c-0.1-0.1-0.1-0.1-0.1-0.2c0-0.1,0.1-0.3,0.2-0.3c1.3-0.2,2.3-0.7,2.9-1.5c0.7-0.8,1-1.7,1-2.8
			c0-1.2-0.4-2.2-1.1-3.1l-0.3,0.4C931.7,15.8,932,16.7,932,17.7z M926.5,24.2c-0.7-0.5-1.7-0.8-3-0.9l0,0l-0.5,0.6l0,0
			c1.4,0,2.5,0.3,3.3,0.8c0.2,0.1,0.3,0.3,0.5,0.4l0.3-0.4C926.9,24.6,926.7,24.4,926.5,24.2z M921.2,27.8c0,0.5-0.1,0.9-0.4,1.2
			c-0.3,0.3-0.8,0.5-1.5,0.5c-0.3,0-0.6,0.3-0.7,0.6c-0.1,0.3,0,0.6,0.2,0.9l0.3-0.4c0-0.1-0.1-0.2,0-0.3c0-0.1,0.1-0.2,0.2-0.2
			c0.8,0,1.4-0.2,1.8-0.6c0.4-0.4,0.6-0.9,0.6-1.6c0-0.7-0.2-1.2-0.6-1.7l-0.4,0.4C921.1,26.9,921.2,27.3,921.2,27.8z M932.3,24.9
			l-0.3,0.4c0.5,0.7,0.8,1.5,0.8,2.5c0,1.9-0.7,3.3-2.1,4.3c-1.5,1.1-3.8,1.6-6.9,1.6c-2.4,0-4.3-0.5-5.6-1.4
			c-0.4-0.3-0.7-0.6-1-0.9l-0.3,0.4c0.3,0.4,0.6,0.7,1.1,1c1.4,1,3.4,1.5,5.8,1.5c3.1,0,5.5-0.6,7.1-1.7c1.6-1.1,2.4-2.7,2.4-4.8
			C933.3,26.6,933,25.6,932.3,24.9z M926.1,15c-0.8-0.7-1.9-1-3.3-1c-0.7,0-1.4,0.1-2,0.3c-0.6,0.2-1.2,0.6-1.7,1.1
			c-0.2,0.2-0.3,0.6-0.2,1c0,0.1,0.1,0.2,0.2,0.3l0.3-0.4c0,0,0-0.1-0.1-0.1c0-0.1,0-0.2,0.1-0.3c0.5-0.4,1-0.8,1.5-1
			c0.5-0.2,1.2-0.3,1.9-0.3c1.3,0,2.3,0.3,3,0.9c0.2,0.1,0.3,0.3,0.4,0.4l0.3-0.4C926.5,15.3,926.3,15.2,926.1,15z M903.1,30.7
			l-0.3,0.4c-0.3-0.3-0.5-0.7-0.7-1.2c-0.6-1.4-0.8-3.6-0.8-6.7c0-3.1,0.3-5.2,0.8-6.7c0.6-1.6,1.7-2.4,3.1-2.4
			c0.9,0,1.7,0.4,2.3,1.2l-0.3,0.4c-0.5-0.6-1.2-1-2-1c-1.2,0-2.1,0.7-2.6,2.1c-0.5,1.3-0.8,3.4-0.8,6.4c0,3,0.3,5,0.8,6.4
			C902.7,30,902.9,30.4,903.1,30.7z M911.5,15.4l-0.3,0.4c1.4,1.9,2.1,4.3,2.1,7.4c0,3.1-0.8,5.6-2.2,7.5c-1.5,1.9-3.5,2.8-5.9,2.8
			c-2.4,0-4.4-0.9-5.9-2.8v0l-0.3,0.4c0,0,0,0,0,0c1.6,2,3.7,3,6.2,3c2.6,0,4.7-1,6.3-3c1.6-2,2.4-4.6,2.4-7.9
			C913.8,20,913.1,17.4,911.5,15.4z"/>
	</g>
</g>
</svg>
