<svg xmlns="http://www.w3.org/2000/svg" xmlns:xlink="http://www.w3.org/1999/xlink" width="129.59" height="129.59" viewBox="0 0 129.59 129.59"><defs><filter id="b" x="27.83" y="-8588" width="102.89" height="32766" filterUnits="userSpaceOnUse" color-interpolation-filters="sRGB"><feFlood flood-color="#fff" result="bg"/><feBlend in="SourceGraphic" in2="bg"/></filter><mask id="a" x="27.83" y="-8588" width="102.89" height="32766" maskUnits="userSpaceOnUse"><g filter="url(#b)"/></mask><linearGradient id="c" x1="50.73" y1="52.55" x2="97.46" y2="102.94" gradientUnits="userSpaceOnUse"><stop offset="0" stop-color="#fff"/><stop offset="0.01" stop-color="#fff"/><stop offset="0.08" stop-color="#fff"/><stop offset="0.16" stop-color="#f3f3f3"/><stop offset="0.31" stop-color="#d3d3d3"/><stop offset="0.5" stop-color="#a0a0a0"/><stop offset="0.73" stop-color="#595959"/><stop offset="1"/></linearGradient><filter id="e" x="27.83" y="54.21" width="102.89" height="58.22" filterUnits="userSpaceOnUse" color-interpolation-filters="sRGB"><feFlood flood-color="#fff" result="bg"/><feBlend in="SourceGraphic" in2="bg"/></filter><mask id="d" x="27.83" y="54.21" width="102.89" height="58.22" maskUnits="userSpaceOnUse"><g mask="url(#a)" filter="url(#e)"><path d="M28.38,86.93,28,87.2a.4.4,0,0,0,0,.67l42.82,24.38a1.22,1.22,0,0,0,1.24,0l58.49-32.95a.27.27,0,0,0,0-.49l-49-24.61L44.45,75.14Z" fill="url(#c)" style="mix-blend-mode:multiply"/></g></mask><linearGradient id="f" x1="36.78" y1="50.41" x2="38.14" y2="48.66" gradientTransform="translate(-1.65 -1.44) rotate(-0.37)" gradientUnits="userSpaceOnUse"><stop offset="0" stop-color="#695e79"/><stop offset="0.19" stop-color="#8b647a"/><stop offset="0.41" stop-color="#aa6a7b"/><stop offset="0.62" stop-color="#c16e7c"/><stop offset="0.82" stop-color="#ce707d"/><stop offset="1" stop-color="#d3717d"/></linearGradient></defs><g style="isolation:isolate"><circle cx="64.79" cy="64.79" r="64.79" fill="#d9f1fd"/><circle cx="65.92" cy="59.37" r="42.23" fill="#d9f1fd"/><g mask="url(#d)"><path d="M28.38,86.93,28,87.2a.4.4,0,0,0,0,.67l19.91,13.41a1.24,1.24,0,0,0,1.25,0l58.49-32.95a.28.28,0,0,0,0-.49L81.59,54.21,44.45,75.14Z" fill="#d9f1fd" style="mix-blend-mode:multiply"/></g><g style="isolation:isolate"><polygon points="42.8 47.53 43.7 47.01 43.7 49.08 42.81 49.61 42.8 47.53" fill="#fafbfc"/><path d="M41.26,42.49l.9-.53a1.51,1.51,0,0,0-.62,1.37A4.71,4.71,0,0,0,43.7,47l-.9.52a4.68,4.68,0,0,1-2.15-3.67A1.49,1.49,0,0,1,41.26,42.49Z" fill="#1a4580"/><polygon points="42.78 40.55 43.67 40.02 43.68 42.1 42.78 42.63 42.78 40.55" fill="#fafbfc"/><path d="M40,40.3l.9-.53a2.76,2.76,0,0,1,2.8.26l-.89.52A2.8,2.8,0,0,0,40,40.3Z" fill="#1a4580"/><path d="M42.78,40.55v2.08c-1.18-.68-2.14-.12-2.13,1.23a4.68,4.68,0,0,0,2.15,3.67v2.08a8.67,8.67,0,0,1-4-6.78C38.83,40.33,40.6,39.31,42.78,40.55Z" fill="#162e51"/></g><g style="isolation:isolate"><polygon points="55.99 40.06 56.88 39.53 56.89 41.6 56 42.13 55.99 40.06" fill="#fafbfc"/><path d="M54.45,35l.9-.52a1.5,1.5,0,0,0-.62,1.37,4.69,4.69,0,0,0,2.16,3.67l-.9.53a4.69,4.69,0,0,1-2.15-3.68A1.5,1.5,0,0,1,54.45,35Z" fill="#1a4580"/><polygon points="55.97 33.08 56.86 32.55 56.87 34.63 55.98 35.15 55.97 33.08" fill="#fafbfc"/><path d="M53.16,32.82l.9-.52a2.76,2.76,0,0,1,2.8.25l-.89.53A2.78,2.78,0,0,0,53.16,32.82Z" fill="#1a4580"/><path d="M56,33.08v2.07c-1.18-.67-2.13-.12-2.13,1.23A4.69,4.69,0,0,0,56,40.06v2.07a8.67,8.67,0,0,1-4-6.78C52,32.86,53.79,31.84,56,33.08Z" fill="#162e51"/></g><g style="isolation:isolate"><polygon points="69.58 31.85 70.48 31.32 70.48 33.4 69.59 33.92 69.58 31.85" fill="#fafbfc"/><path d="M68.05,26.8l.89-.52a1.5,1.5,0,0,0-.62,1.37,4.72,4.72,0,0,0,2.16,3.67l-.9.53a4.71,4.71,0,0,1-2.15-3.67A1.49,1.49,0,0,1,68.05,26.8Z" fill="#1a4580"/><polygon points="69.56 24.87 70.45 24.34 70.46 26.42 69.57 26.94 69.56 24.87" fill="#fafbfc"/><path d="M66.76,24.61l.89-.52a2.78,2.78,0,0,1,2.8.25l-.89.53A2.76,2.76,0,0,0,66.76,24.61Z" fill="#1a4580"/><path d="M69.56,24.87v2.07c-1.19-.67-2.14-.12-2.14,1.24a4.71,4.71,0,0,0,2.15,3.67v2.07a8.67,8.67,0,0,1-4-6.77C65.61,24.65,67.38,23.63,69.56,24.87Z" fill="#162e51"/></g><g style="isolation:isolate"><polygon points="83.13 24.94 84.02 24.41 84.03 26.49 83.14 27.01 83.13 24.94" fill="#fafbfc"/><path d="M81.59,19.9l.9-.53a1.48,1.48,0,0,0-.62,1.37A4.71,4.71,0,0,0,84,24.41l-.89.53A4.68,4.68,0,0,1,81,21.27,1.49,1.49,0,0,1,81.59,19.9Z" fill="#1a4580"/><polygon points="83.11 17.96 84 17.43 84.01 19.51 83.11 20.03 83.11 17.96" fill="#fafbfc"/><path d="M80.3,17.7l.89-.52a2.8,2.8,0,0,1,2.81.25l-.89.53A2.78,2.78,0,0,0,80.3,17.7Z" fill="#1a4580"/><path d="M83.11,18V20c-1.18-.67-2.14-.12-2.13,1.24a4.68,4.68,0,0,0,2.15,3.67V27a8.67,8.67,0,0,1-4-6.77C79.16,17.74,80.92,16.72,83.11,18Z" fill="#162e51"/></g><g style="isolation:isolate"><polygon points="34.65 58.39 33.54 57.51 89.01 26.3 90.12 27.18 34.65 58.39" fill="#fafbfc"/><polygon points="34.65 58.39 33.54 57.51 33.82 55.56 34.93 56.45 34.65 58.39" fill="#d3717d"/><path d="M30.56,86.74l4.37-30.29-1.11-.89-4.37,30.3a.45.45,0,0,0,.12.43l1.11.88A.42.42,0,0,1,30.56,86.74Z" fill="#757576"/><path d="M34.93,56.45l-.28,1.94L90.12,27.18,86,55.53a2.75,2.75,0,0,1-1.31,1.62L31.58,87.05c-.64.36-1.1.23-1-.31Z" fill="#e8e8e8"/><polygon points="34.65 58.39 33.54 57.51 34.82 48.62 35.93 49.5 34.65 58.39" fill="#a01e22"/><path d="M90.09,17.2c-.18-.14-.63-.42-.78-.38L36.17,46.72l1.11.88L90.41,17.7c.35-.2.65-.21.82-.07Z" fill="#d3717d"/><path d="M90.41,17.7,37.28,47.6a3,3,0,0,0-1.35,1.9l-1,7-.28,1.94L90.12,27.18l1.28-8.89C91.5,17.6,91.06,17.34,90.41,17.7ZM45.78,46.49A6.1,6.1,0,0,1,43,50.34c-1.34.75-2.28.26-2.08-1.11a6.1,6.1,0,0,1,2.8-3.85C45.05,44.62,46,45.12,45.78,46.49Zm13-7.3A6.12,6.12,0,0,1,56,43c-1.35.76-2.28.26-2.09-1.11a6.1,6.1,0,0,1,2.8-3.85C58,37.32,59,37.82,58.75,39.19Zm13.36-7.52a6.1,6.1,0,0,1-2.8,3.85c-1.35.76-2.28.27-2.08-1.1A6.09,6.09,0,0,1,70,30.57C71.37,29.81,72.3,30.3,72.11,31.67Zm13.53-7.61a6.14,6.14,0,0,1-2.79,3.85c-1.35.75-2.28.26-2.09-1.11A6.1,6.1,0,0,1,83.56,23C84.91,22.19,85.84,22.69,85.64,24.06Z" fill="#a01e22"/><path d="M36.17,46.72a3,3,0,0,0-1.35,1.9l1.11.88a3,3,0,0,1,1.35-1.9Z" fill="url(#f)"/></g><g style="isolation:isolate"><path d="M87,24.4a2.4,2.4,0,0,0-1.68-1.92l-1.07-.24a2.41,2.41,0,0,1,1.69,1.92,4.17,4.17,0,0,1-1.72,4.41,2,2,0,0,1-1.48.25l1.07.24a2,2,0,0,0,1.48-.24A4.16,4.16,0,0,0,87,24.4Z" fill="#a01e22"/><path d="M73.42,32a2.4,2.4,0,0,0-1.68-1.92l-1.07-.25a2.4,2.4,0,0,1,1.68,1.92,4.18,4.18,0,0,1-1.71,4.42,2,2,0,0,1-1.48.24l1.07.25a2.06,2.06,0,0,0,1.48-.25A4.16,4.16,0,0,0,73.42,32Z" fill="#a01e22"/><path d="M60.06,39.53a2.4,2.4,0,0,0-1.68-1.92l-1.07-.24A2.39,2.39,0,0,1,59,39.29a4.18,4.18,0,0,1-1.71,4.41A2.08,2.08,0,0,1,55.8,44l1.07.24A2.07,2.07,0,0,0,58.36,44,4.17,4.17,0,0,0,60.06,39.53Z" fill="#a01e22"/><path d="M47.09,46.83a2.4,2.4,0,0,0-1.68-1.92l-1.07-.24A2.42,2.42,0,0,1,46,46.59,4.17,4.17,0,0,1,44.31,51a2,2,0,0,1-1.48.25l1.07.24a2,2,0,0,0,1.48-.24A4.18,4.18,0,0,0,47.09,46.83Z" fill="#a01e22"/><polygon points="38.65 60.13 37.59 59.89 93.06 28.68 94.12 28.92 38.65 60.13" fill="#fafbfc"/><polygon points="38.65 60.13 37.59 59.89 37.02 57.5 38.08 57.75 38.65 60.13" fill="#d3717d"/><path d="M47,94.93l-8.9-37.18L37,57.5l8.9,37.18a.86.86,0,0,0,.64.68l1.07.25A.89.89,0,0,1,47,94.93Z" fill="#757576"/><path d="M38.08,57.75l.57,2.38L94.12,28.92l8.33,34.79a1.8,1.8,0,0,1-.88,1.85L48.44,95.46A.93.93,0,0,1,47,94.93Z" fill="#fff"/><path d="M89.6,16.78a1,1,0,0,0-.69.12L35.78,46.79l1.06.25L90,17.14a1,1,0,0,1,.69-.11Z" fill="#a01e22"/><polygon points="38.65 60.13 37.59 59.89 34.97 48.97 36.04 49.22 38.65 60.13" fill="#a01e22"/><path d="M91.51,18c-.2-.85-.89-1.23-1.53-.87L36.84,47a2.06,2.06,0,0,0-.8,2.18l2,8.53.57,2.38L94.12,28.92ZM45.38,51.25c-1.34.75-2.76,0-3.16-1.67a4.17,4.17,0,0,1,1.7-4.42c1.35-.75,2.77,0,3.17,1.67A4.18,4.18,0,0,1,45.38,51.25Zm13-7.3c-1.35.75-2.77,0-3.17-1.67a4.18,4.18,0,0,1,1.71-4.42c1.34-.75,2.76,0,3.16,1.67A4.17,4.17,0,0,1,58.36,44Zm13.35-7.52c-1.35.76-2.77,0-3.17-1.67a4.18,4.18,0,0,1,1.71-4.41c1.35-.76,2.77,0,3.17,1.67A4.16,4.16,0,0,1,71.71,36.43Zm13.53-7.61c-1.34.75-2.76,0-3.16-1.67a4.16,4.16,0,0,1,1.71-4.42c1.34-.76,2.76,0,3.16,1.67A4.16,4.16,0,0,1,85.24,28.82Z" fill="#c72128"/><path d="M36,49.22,35,49a2.05,2.05,0,0,1,.81-2.18l1.06.25A2.06,2.06,0,0,0,36,49.22Z" fill="#a01e22"/></g><g style="isolation:isolate"><path d="M94.32,50.08a.79.79,0,0,1,1.19.62l1,4.19a1.57,1.57,0,0,1-.64,1.65L92.5,58.43a.79.79,0,0,1-1.18-.62l-1-4.19A1.56,1.56,0,0,1,91,52Z" fill="#0591b7"/><path d="M92.33,41.78a.79.79,0,0,1,1.19.62l1,4.18a1.56,1.56,0,0,1-.64,1.65l-3.36,1.9a.8.8,0,0,1-1.19-.63l-1-4.18A1.56,1.56,0,0,1,89,43.67Z" fill="#c72128"/></g><path d="M90.34,33.47a.8.8,0,0,1,1.19.63l1,4.18a1.54,1.54,0,0,1-.64,1.65l-3.36,1.89a.8.8,0,0,1-1.19-.62l-1-4.18A1.58,1.58,0,0,1,87,35.36Z" fill="#0591b7"/><path d="M87.12,54.13a.79.79,0,0,1,1.19.62l1,4.19a1.55,1.55,0,0,1-.64,1.65l-3.36,1.89a.8.8,0,0,1-1.19-.62l-1-4.19A1.57,1.57,0,0,1,83.76,56Z" fill="#0591b7"/><path d="M85.14,45.83c.5-.29,1,0,1.18.62l1,4.18a1.54,1.54,0,0,1-.64,1.65l-3.36,1.9c-.51.28-1,0-1.19-.63l-1-4.18a1.56,1.56,0,0,1,.64-1.65Z" fill="#0591b7"/><path d="M83.15,37.52a.8.8,0,0,1,1.18.63l1,4.18A1.53,1.53,0,0,1,84.69,44l-3.36,1.89c-.5.29-1,0-1.18-.62l-1-4.18a1.57,1.57,0,0,1,.65-1.66Z" fill="#0591b7"/><path d="M77.94,49.88c.5-.29,1,0,1.18.62l1,4.18a1.56,1.56,0,0,1-.64,1.65l-3.37,1.9a.8.8,0,0,1-1.18-.63l-1-4.18a1.54,1.54,0,0,1,.64-1.65Z" fill="#0591b7"/><path d="M76,41.57a.8.8,0,0,1,1.19.63l1,4.18A1.56,1.56,0,0,1,77.5,48l-3.37,1.89c-.5.29-1,0-1.18-.62l-1-4.18a1.57,1.57,0,0,1,.64-1.66Z" fill="#0591b7"/><path d="M81.91,66.48a.8.8,0,0,1,1.19.63l1,4.18a1.56,1.56,0,0,1-.64,1.65L80.1,74.83a.79.79,0,0,1-1.19-.62l-1-4.18a1.58,1.58,0,0,1,.64-1.66Z" fill="#0591b7"/><path d="M79.93,58.18a.79.79,0,0,1,1.18.62l1,4.19a1.54,1.54,0,0,1-.64,1.65l-3.36,1.89a.79.79,0,0,1-1.18-.62l-1-4.19a1.57,1.57,0,0,1,.64-1.65Z" fill="#0591b7"/><path d="M74.72,70.53a.8.8,0,0,1,1.18.63l1,4.18A1.54,1.54,0,0,1,76.26,77L72.9,78.88a.8.8,0,0,1-1.19-.62l-1-4.18a1.56,1.56,0,0,1,.64-1.65Z" fill="#0591b7"/><path d="M72.73,62.23a.79.79,0,0,1,1.18.62l1,4.19a1.54,1.54,0,0,1-.64,1.65l-3.36,1.89A.79.79,0,0,1,69.73,70l-1-4.19a1.57,1.57,0,0,1,.64-1.65Z" fill="#0591b7"/><path d="M70.74,53.93c.5-.29,1,0,1.18.62l1,4.18a1.58,1.58,0,0,1-.64,1.66l-3.37,1.89a.8.8,0,0,1-1.18-.63l-1-4.18a1.54,1.54,0,0,1,.64-1.65Z" fill="#0591b7"/><path d="M68.75,45.62a.8.8,0,0,1,1.19.63l1,4.18a1.56,1.56,0,0,1-.64,1.65L66.94,54a.79.79,0,0,1-1.19-.62l-1-4.18a1.56,1.56,0,0,1,.64-1.65Z" fill="#0591b7"/><path d="M61.56,49.67a.8.8,0,0,1,1.18.63l1,4.18a1.56,1.56,0,0,1-.64,1.65L59.74,58a.79.79,0,0,1-1.19-.62l-1-4.18a1.56,1.56,0,0,1,.64-1.65Z" fill="#0591b7"/><path d="M67.52,74.58a.8.8,0,0,1,1.18.63l1,4.18A1.56,1.56,0,0,1,69.07,81L65.7,82.93c-.5.29-1,0-1.18-.62l-1-4.18a1.53,1.53,0,0,1,.64-1.65Z" fill="#0591b7"/><path d="M65.53,66.28a.8.8,0,0,1,1.19.62l1,4.19a1.56,1.56,0,0,1-.64,1.65l-3.37,1.89c-.5.29-1,0-1.18-.62l-1-4.19a1.55,1.55,0,0,1,.64-1.65Z" fill="#0591b7"/><path d="M63.54,58a.79.79,0,0,1,1.19.62l1,4.18a1.58,1.58,0,0,1-.64,1.66l-3.36,1.89a.8.8,0,0,1-1.19-.63l-1-4.18a1.56,1.56,0,0,1,.64-1.65Z" fill="#0591b7"/><path d="M56.34,62a.79.79,0,0,1,1.19.62l1,4.19a1.56,1.56,0,0,1-.64,1.65l-3.36,1.89a.8.8,0,0,1-1.19-.63l-1-4.18A1.56,1.56,0,0,1,53,63.92Z" fill="#0591b7"/><path d="M58.33,70.33a.8.8,0,0,1,1.19.63l1,4.18a1.56,1.56,0,0,1-.64,1.65l-3.36,1.89a.79.79,0,0,1-1.19-.62l-1-4.19A1.57,1.57,0,0,1,55,72.22Z" fill="#0591b7"/><path d="M60.32,78.63a.8.8,0,0,1,1.18.63l1,4.18a1.56,1.56,0,0,1-.64,1.65L58.5,87a.8.8,0,0,1-1.18-.63l-1-4.18A1.54,1.54,0,0,1,57,80.53Z" fill="#0591b7"/><path d="M49.15,66.08c.5-.29,1,0,1.18.62l1,4.19a1.56,1.56,0,0,1-.64,1.65l-3.36,1.89a.8.8,0,0,1-1.18-.63l-1-4.18A1.56,1.56,0,0,1,45.78,68Z" fill="#c72128"/><path d="M53.12,82.68a.8.8,0,0,1,1.19.63l1,4.18a1.56,1.56,0,0,1-.64,1.65L51.31,91a.8.8,0,0,1-1.19-.63l-1-4.18a1.54,1.54,0,0,1,.64-1.65Z" fill="#c72128"/><path d="M51.13,74.38a.8.8,0,0,1,1.19.63l1,4.18a1.54,1.54,0,0,1-.64,1.65l-3.36,1.89a.79.79,0,0,1-1.19-.62l-1-4.19a1.57,1.57,0,0,1,.64-1.65Z" fill="#c72128"/><g style="isolation:isolate"><path d="M45.21,47.14l-.89.53a1.5,1.5,0,0,1-1.52-.14l.89-.52A1.49,1.49,0,0,0,45.21,47.14Z" fill="#1a4580"/><path d="M46.51,49.34l-.9.52a2.75,2.75,0,0,0,1.14-2.53,8.67,8.67,0,0,0-4-6.78l.89-.52a8.67,8.67,0,0,1,4,6.77A2.79,2.79,0,0,1,46.51,49.34Z" fill="#1a4580"/><path d="M42.78,40.55a8.67,8.67,0,0,1,4,6.78c0,2.5-1.76,3.52-3.94,2.28V47.53c1.18.68,2.14.12,2.14-1.23a4.72,4.72,0,0,0-2.16-3.67Z" fill="#162e51"/></g><g style="isolation:isolate"><path d="M58.4,39.67l-.89.53A1.52,1.52,0,0,1,56,40.06l.89-.53A1.5,1.5,0,0,0,58.4,39.67Z" fill="#1a4580"/><path d="M59.7,41.86l-.9.53a2.78,2.78,0,0,0,1.14-2.54,8.67,8.67,0,0,0-4-6.77l.89-.53a8.67,8.67,0,0,1,4,6.78A2.78,2.78,0,0,1,59.7,41.86Z" fill="#1a4580"/><path d="M56,33.08a8.67,8.67,0,0,1,4,6.77c0,2.5-1.76,3.52-3.94,2.28V40.06c1.18.67,2.14.12,2.14-1.24A4.69,4.69,0,0,0,56,35.15Z" fill="#162e51"/></g><g style="isolation:isolate"><path d="M72,31.46l-.9.53a1.5,1.5,0,0,1-1.52-.14l.9-.53A1.5,1.5,0,0,0,72,31.46Z" fill="#1a4580"/><path d="M73.29,33.65l-.9.53a2.76,2.76,0,0,0,1.14-2.53,8.67,8.67,0,0,0-4-6.78l.89-.53a8.67,8.67,0,0,1,4,6.78A2.74,2.74,0,0,1,73.29,33.65Z" fill="#1a4580"/><path d="M69.56,24.87a8.67,8.67,0,0,1,4,6.78c0,2.49-1.76,3.51-3.94,2.27V31.85c1.18.67,2.14.12,2.14-1.24a4.71,4.71,0,0,0-2.15-3.67Z" fill="#162e51"/></g><g style="isolation:isolate"><path d="M85.54,24.55l-.89.53a1.5,1.5,0,0,1-1.52-.14l.89-.53A1.5,1.5,0,0,0,85.54,24.55Z" fill="#1a4580"/><path d="M86.83,26.74l-.89.53a2.73,2.73,0,0,0,1.13-2.53,8.64,8.64,0,0,0-4-6.78l.9-.53a8.67,8.67,0,0,1,4,6.78A2.75,2.75,0,0,1,86.83,26.74Z" fill="#1a4580"/><path d="M83.1,18a8.64,8.64,0,0,1,4,6.78c0,2.49-1.75,3.51-3.93,2.27V24.94c1.18.67,2.14.12,2.13-1.23A4.69,4.69,0,0,0,83.11,20Z" fill="#162e51"/></g></g></svg>