<svg xmlns="http://www.w3.org/2000/svg" width="516.05" height="391.08" viewBox="0 0 516.05 391.08"><g style="isolation:isolate"><circle cx="258.02" cy="195.54" r="195.54" fill="#f2f3f3"/><polygon points="258.28 327.13 0 327.13 0 343.67 258.28 343.67 516.05 343.67 516.05 327.13 258.28 327.13" fill="#f1f9fd"/><path d="M291.78,327.13h-67c-.94,0-1.7,1.34-1.7,3v2.29c0,1.65.76,3,1.7,3h67c.93,0,1.69-1.34,1.69-3v-2.29C293.47,328.47,292.71,327.13,291.78,327.13Z" fill="#d4effb"/><path d="M457.67,46.43H58.5a9.13,9.13,0,0,0-9.14,9.12V327.13H466.79V55.55A9.12,9.12,0,0,0,457.67,46.43Z" fill="#162e51"/><rect x="65.28" y="62.35" width="385.58" height="248.85" fill="#e3f4fa"/><circle cx="258.02" cy="54.49" r="1.24" fill="#f4f2f0"/><polygon points="65.28 311.2 365.84 311.2 65.28 114.25 65.28 311.2" fill="#d5eff7"/><path d="M515.17,344.76l.88-1.09H0l.88,1.09a14.38,14.38,0,0,0,6.54,4.62H508.65A14.38,14.38,0,0,0,515.17,344.76Z" fill="#d4effb"/><path d="M7.42,349.38a14.38,14.38,0,0,0,4.76.81H503.89a14.42,14.42,0,0,0,4.76-.81Z" fill="#d4effb"/><g style="mix-blend-mode:multiply"><path d="M113.25,227h0v0Z" fill="#cce9fa"/></g><rect x="96.96" y="114.69" width="132" height="172.18" rx="2.71" fill="#fff"/><polygon points="161.76 114.27 228.4 114.05 228.84 250.83 228.95 286.65 162.31 286.86 161.76 114.27" fill="#010101" opacity="0.03"/><rect x="136.75" y="133" width="40.89" height="3.69" transform="matrix(1, 0, 0, 1, -0.43, 0.5)" fill="#d9f1fd"/><rect x="136.78" y="142.28" width="81.79" height="3.69" transform="translate(-0.46 0.57) rotate(-0.18)" fill="#e2f4fd"/><rect x="136.81" y="151.38" width="81.79" height="3.69" transform="translate(-0.49 0.57) rotate(-0.18)" fill="#e2f4fd"/><rect x="136.84" y="160.47" width="81.79" height="3.69" transform="translate(-0.52 0.57) rotate(-0.18)" fill="#e2f4fd"/><rect x="136.86" y="169.57" width="40.89" height="3.69" transform="translate(-0.55 0.51) rotate(-0.18)" fill="#d9f1fd"/><rect x="136.89" y="178.85" width="81.79" height="3.69" transform="translate(-0.58 0.57) rotate(-0.18)" fill="#e2f4fd"/><rect x="136.92" y="187.94" width="81.79" height="3.69" transform="translate(-0.61 0.57) rotate(-0.18)" fill="#e2f4fd"/><rect x="136.95" y="197.04" width="81.79" height="3.69" transform="translate(-0.64 0.57) rotate(-0.18)" fill="#e2f4fd"/><rect x="136.98" y="206.99" width="40.89" height="3.69" transform="translate(-0.67 0.51) rotate(-0.18)" fill="#d9f1fd"/><rect x="137.01" y="216.27" width="81.79" height="3.69" transform="translate(-0.7 0.57) rotate(-0.18)" fill="#e2f4fd"/><rect x="137.04" y="225.36" width="81.79" height="3.69" transform="translate(-0.73 0.57) rotate(-0.18)" fill="#e2f4fd"/><rect x="137.07" y="234.46" width="81.79" height="3.69" transform="translate(-0.76 0.57) rotate(-0.18)" fill="#e2f4fd"/><rect x="137.1" y="244.41" width="40.89" height="3.69" transform="translate(-0.79 0.51) rotate(-0.18)" fill="#d9f1fd"/><rect x="137.13" y="253.69" width="81.79" height="3.69" transform="translate(-0.82 0.57) rotate(-0.18)" fill="#e2f4fd"/><rect x="137.16" y="262.79" width="81.79" height="3.69" transform="translate(-0.85 0.57) rotate(-0.18)" fill="#e2f4fd"/><rect x="137.19" y="271.88" width="81.79" height="3.69" transform="translate(-0.88 0.57) rotate(-0.18)" fill="#e2f4fd"/><path d="M117.76,140.65h0a7.38,7.38,0,0,1,.82,0,8.3,8.3,0,0,1,.86,16.55c-.26,0-.53,0-.81,0a8.3,8.3,0,0,1-.87-16.55m-.2-2a10.34,10.34,0,0,0,1.08,20.62,8.43,8.43,0,0,0,1-.06,10.33,10.33,0,0,0-1.08-20.61c-.34,0-.68,0-1,.05Z" fill="#c82127"/><path d="M120.71,151.8a1.69,1.69,0,0,1,0,.25.53.53,0,0,1,0,.16.22.22,0,0,1-.07.09.11.11,0,0,1-.08,0h-3.76a.13.13,0,0,1-.08,0,.18.18,0,0,1-.06-.08.58.58,0,0,1,0-.17,1.57,1.57,0,0,1,0-.25,1.69,1.69,0,0,1,0-.25.39.39,0,0,1,0-.17.35.35,0,0,1,.06-.09.16.16,0,0,1,.09,0H118l0-4.44-1.09.61a.53.53,0,0,1-.2.07.12.12,0,0,1-.12,0,.26.26,0,0,1-.06-.15,2.41,2.41,0,0,1,0-.31,1.22,1.22,0,0,1,0-.21.52.52,0,0,1,0-.14l.06-.1.1-.07,1.46-1,.07,0,.1,0h.75a.44.44,0,0,1,.19,0,.19.19,0,0,1,.09,0,.24.24,0,0,1,0,.08l0,5.63h1.11a.11.11,0,0,1,.08,0,.22.22,0,0,1,.07.09.38.38,0,0,1,0,.16A1.84,1.84,0,0,1,120.71,151.8Z" fill="#c82127"/><rect x="191.67" y="92.33" width="132" height="172.18" rx="2.71" fill="#0790b7"/><polygon points="256.47 91.83 323.11 91.61 323.55 228.39 323.66 264.21 257.02 264.42 256.47 91.83" fill="#010101" opacity="0.03"/><g opacity="0.31"><rect x="231.46" y="110.56" width="40.89" height="3.69" transform="translate(-0.36 0.81) rotate(-0.18)" fill="#1a4580"/></g><g opacity="0.31"><rect x="231.49" y="119.84" width="81.79" height="3.69" transform="translate(-0.39 0.87) rotate(-0.18)" fill="#1a4580"/></g><g opacity="0.31"><rect x="231.52" y="128.93" width="81.79" height="3.69" transform="translate(-0.42 0.87) rotate(-0.18)" fill="#1a4580"/></g><g opacity="0.31"><rect x="231.55" y="138.03" width="81.79" height="3.69" transform="translate(-0.45 0.87) rotate(-0.18)" fill="#1a4580"/></g><g opacity="0.31"><rect x="231.57" y="147.13" width="40.89" height="3.69" transform="translate(-0.48 0.81) rotate(-0.18)" fill="#1a4580"/></g><g opacity="0.31"><rect x="231.6" y="156.41" width="81.79" height="3.69" transform="translate(-0.51 0.87) rotate(-0.18)" fill="#1a4580"/></g><g opacity="0.31"><rect x="231.63" y="165.5" width="81.79" height="3.69" transform="translate(-0.54 0.88) rotate(-0.18)" fill="#1a4580"/></g><g opacity="0.31"><rect x="231.66" y="174.6" width="81.79" height="3.69" transform="translate(-0.56 0.88) rotate(-0.18)" fill="#1a4580"/></g><g opacity="0.31"><rect x="231.69" y="184.55" width="40.89" height="3.69" transform="translate(-0.6 0.81) rotate(-0.18)" fill="#1a4580"/></g><g opacity="0.31"><rect x="231.72" y="193.83" width="81.79" height="3.69" transform="translate(-0.63 0.88) rotate(-0.18)" fill="#1a4580"/></g><g opacity="0.31"><rect x="231.75" y="202.92" width="81.79" height="3.69" transform="translate(-0.66 0.88) rotate(-0.18)" fill="#1a4580"/></g><g opacity="0.31"><rect x="231.78" y="212.02" width="81.79" height="3.69" transform="translate(-0.68 0.88) rotate(-0.18)" fill="#1a4580"/></g><g opacity="0.31"><rect x="231.81" y="221.97" width="40.89" height="3.69" transform="translate(-0.72 0.81) rotate(-0.18)" fill="#1a4580"/></g><g opacity="0.31"><rect x="231.84" y="231.25" width="81.79" height="3.69" transform="translate(-0.75 0.88) rotate(-0.18)" fill="#1a4580"/></g><g opacity="0.31"><rect x="231.87" y="240.34" width="81.79" height="3.69" transform="translate(-0.78 0.88) rotate(-0.18)" fill="#1a4580"/></g><g opacity="0.31"><rect x="231.9" y="249.44" width="81.79" height="3.69" transform="translate(-0.8 0.88) rotate(-0.18)" fill="#1a4580"/></g><path d="M212.47,118.21h0a7.38,7.38,0,0,1,.82,0,8.29,8.29,0,0,1,.87,16.54,7.37,7.37,0,0,1-.82,0,8.3,8.3,0,0,1-.87-16.55m-.2-2a10.34,10.34,0,0,0,1.08,20.62c.34,0,.68,0,1-.06a10.33,10.33,0,0,0-1.08-20.61c-.34,0-.68,0-1,.05Z" fill="#d9f1fd"/><path d="M215.73,129.36a2,2,0,0,1,0,.26.39.39,0,0,1,0,.17.19.19,0,0,1-.06.1.17.17,0,0,1-.1,0H211.6a.68.68,0,0,1-.21,0,.22.22,0,0,1-.13-.08.38.38,0,0,1-.08-.18,1.24,1.24,0,0,1,0-.3,2.53,2.53,0,0,1,0-.29.64.64,0,0,1,.06-.22.72.72,0,0,1,.11-.19,1.42,1.42,0,0,1,.17-.21l1.17-1.26a7.08,7.08,0,0,0,.57-.68,3.8,3.8,0,0,0,.33-.55,2.19,2.19,0,0,0,.17-.46,1.94,1.94,0,0,0,0-.4.88.88,0,0,0-.06-.33.61.61,0,0,0-.16-.27.64.64,0,0,0-.27-.18.94.94,0,0,0-.39-.07,1.87,1.87,0,0,0-.55.08l-.42.18-.3.18a.32.32,0,0,1-.19.08.11.11,0,0,1-.08,0,.29.29,0,0,1-.06-.1s0-.12,0-.2a2.63,2.63,0,0,1,0-.3v-.21l0-.14a.3.3,0,0,1,0-.1l.09-.11a1,1,0,0,1,.24-.16,2.31,2.31,0,0,1,.44-.19,3.05,3.05,0,0,1,.56-.16,3.5,3.5,0,0,1,.65-.07,3.16,3.16,0,0,1,.93.13,1.76,1.76,0,0,1,.66.38,1.48,1.48,0,0,1,.4.56,2.08,2.08,0,0,1,.13.71,3.49,3.49,0,0,1-.06.65,2.52,2.52,0,0,1-.26.7,5.36,5.36,0,0,1-.57.82,13.22,13.22,0,0,1-1,1l-.79.82h2.69a.19.19,0,0,1,.1,0,.29.29,0,0,1,.07.1.58.58,0,0,1,.05.17A1.84,1.84,0,0,1,215.73,129.36Z" fill="#d9f1fd"/><rect x="284.44" y="117.2" width="132" height="172.18" rx="2.71" fill="#c82127"/><polygon points="349.42 116.5 416.06 116.28 416.5 253.06 416.61 288.88 349.97 289.09 349.42 116.5" fill="#010101" opacity="0.03"/><g opacity="0.14" style="mix-blend-mode:multiply"><rect x="324.4" y="135.23" width="40.89" height="3.69" transform="matrix(1, 0, 0, 1, -0.44, 1.11)" fill="#1a4580"/></g><g opacity="0.14" style="mix-blend-mode:multiply"><rect x="324.43" y="144.51" width="81.79" height="3.69" transform="translate(-0.47 1.17) rotate(-0.18)" fill="#1a4580"/></g><g opacity="0.14" style="mix-blend-mode:multiply"><rect x="324.46" y="153.61" width="81.79" height="3.69" transform="translate(-0.5 1.17) rotate(-0.18)" fill="#1a4580"/></g><g opacity="0.14" style="mix-blend-mode:multiply"><rect x="324.49" y="162.7" width="81.79" height="3.69" transform="translate(-0.53 1.17) rotate(-0.18)" fill="#1a4580"/></g><g opacity="0.14" style="mix-blend-mode:multiply"><rect x="324.52" y="171.8" width="40.89" height="3.69" transform="translate(-0.56 1.11) rotate(-0.18)" fill="#1a4580"/></g><g opacity="0.14" style="mix-blend-mode:multiply"><rect x="324.55" y="181.08" width="81.79" height="3.69" transform="translate(-0.58 1.17) rotate(-0.18)" fill="#1a4580"/></g><g opacity="0.14" style="mix-blend-mode:multiply"><rect x="324.58" y="190.17" width="81.79" height="3.69" transform="translate(-0.61 1.17) rotate(-0.18)" fill="#1a4580"/></g><g opacity="0.14" style="mix-blend-mode:multiply"><rect x="324.61" y="199.27" width="81.79" height="3.69" transform="translate(-0.64 1.17) rotate(-0.18)" fill="#1a4580"/></g><g opacity="0.14" style="mix-blend-mode:multiply"><rect x="324.64" y="209.22" width="40.89" height="3.69" transform="translate(-0.68 1.11) rotate(-0.18)" fill="#1a4580"/></g><g opacity="0.14" style="mix-blend-mode:multiply"><rect x="324.67" y="218.5" width="81.79" height="3.69" transform="translate(-0.7 1.17) rotate(-0.18)" fill="#1a4580"/></g><g opacity="0.14" style="mix-blend-mode:multiply"><rect x="324.7" y="227.6" width="81.79" height="3.69" transform="translate(-0.73 1.17) rotate(-0.18)" fill="#1a4580"/></g><g opacity="0.14" style="mix-blend-mode:multiply"><rect x="324.73" y="236.69" width="81.79" height="3.69" transform="translate(-0.76 1.17) rotate(-0.18)" fill="#1a4580"/></g><g opacity="0.14" style="mix-blend-mode:multiply"><rect x="324.76" y="246.64" width="40.89" height="3.69" transform="translate(-0.8 1.11) rotate(-0.18)" fill="#1a4580"/></g><g opacity="0.14" style="mix-blend-mode:multiply"><rect x="324.79" y="255.92" width="81.79" height="3.69" transform="translate(-0.83 1.17) rotate(-0.18)" fill="#1a4580"/></g><g opacity="0.14" style="mix-blend-mode:multiply"><rect x="324.82" y="265.02" width="81.79" height="3.69" transform="translate(-0.85 1.17) rotate(-0.18)" fill="#1a4580"/></g><g opacity="0.14" style="mix-blend-mode:multiply"><rect x="324.85" y="274.11" width="81.79" height="3.69" transform="translate(-0.88 1.17) rotate(-0.18)" fill="#1a4580"/></g><path d="M305.42,142.88h0c.27,0,.54,0,.82,0a8.3,8.3,0,0,1,.86,16.55c-.27,0-.54,0-.81,0a8.3,8.3,0,0,1-.87-16.55m-.2-2a10.34,10.34,0,0,0,1.07,20.62c.35,0,.68,0,1-.05a10.34,10.34,0,0,0-1.08-20.62c-.34,0-.68,0-1,0Z" fill="#fff"/><path d="M308.78,152.54a2.06,2.06,0,0,1-.19.91,1.92,1.92,0,0,1-.54.66,2.48,2.48,0,0,1-.83.41,3.62,3.62,0,0,1-1.06.14,3.55,3.55,0,0,1-.66,0,5.38,5.38,0,0,1-.54-.13,1.5,1.5,0,0,1-.38-.15.92.92,0,0,1-.2-.12.18.18,0,0,1-.07-.09s0-.08-.05-.13a.72.72,0,0,1,0-.17,2.09,2.09,0,0,1,0-.26.94.94,0,0,1,0-.35c0-.07.07-.1.12-.1a.44.44,0,0,1,.19.07,2.75,2.75,0,0,0,.33.15l.46.15a2.35,2.35,0,0,0,.62.07,1.61,1.61,0,0,0,.51-.07,1.29,1.29,0,0,0,.37-.19.81.81,0,0,0,.23-.3,1,1,0,0,0,.08-.4.82.82,0,0,0-.1-.42.86.86,0,0,0-.27-.33,1.3,1.3,0,0,0-.46-.2,2.12,2.12,0,0,0-.65-.07h-.59l-.12,0s-.05,0-.07-.08a.34.34,0,0,1-.05-.16,1.93,1.93,0,0,1,0-.26,1.78,1.78,0,0,1,0-.25.39.39,0,0,1,0-.15.19.19,0,0,1,.07-.08l.11,0h.6a2.21,2.21,0,0,0,.54-.07,1.17,1.17,0,0,0,.4-.21,1,1,0,0,0,.24-.32,1.07,1.07,0,0,0,.08-.41.88.88,0,0,0-.06-.33.77.77,0,0,0-.17-.27.74.74,0,0,0-.29-.17,1.09,1.09,0,0,0-.42-.07,1.72,1.72,0,0,0-.52.08l-.43.18-.33.19a.48.48,0,0,1-.2.08.1.1,0,0,1-.07,0,.1.1,0,0,1,0-.07.28.28,0,0,1,0-.15,1.72,1.72,0,0,1,0-.26c0-.09,0-.16,0-.22a.59.59,0,0,1,0-.14.3.3,0,0,1,0-.1.28.28,0,0,1,.07-.09,1,1,0,0,1,.22-.15,2.24,2.24,0,0,1,.41-.2,3.56,3.56,0,0,1,.57-.16,3.14,3.14,0,0,1,.7-.07,3.31,3.31,0,0,1,.88.11,1.84,1.84,0,0,1,.64.33,1.41,1.41,0,0,1,.4.54,1.81,1.81,0,0,1,.14.72,2.14,2.14,0,0,1-.08.58,1.53,1.53,0,0,1-.23.48,1.45,1.45,0,0,1-.38.36,1.69,1.69,0,0,1-.53.22v0a1.83,1.83,0,0,1,.64.17,2,2,0,0,1,.49.35,1.5,1.5,0,0,1,.3.48A1.56,1.56,0,0,1,308.78,152.54Z" fill="#fff"/><path d="M106.73,169.16h1.17v5.31h3.3v1h-4.47Z" fill="#c82127"/><path d="M111.57,173.06a2.57,2.57,0,1,1,2.56,2.47A2.42,2.42,0,0,1,111.57,173.06Zm4,0a1.43,1.43,0,1,0-1.43,1.5A1.39,1.39,0,0,0,115.56,173.06Z" fill="#c82127"/><path d="M125.14,170.66l-1.78,4.8h-1.08L121,172.15l-1.26,3.31H118.7l-1.76-4.8H118l1.27,3.54,1.32-3.54h1l1.29,3.56,1.31-3.56Z" fill="#c82127"/><path d="M209.62,152.66v-4.17l-2.07,3.45H207l-2.07-3.4v4.12h-1.11v-6.3h1l2.5,4.18,2.46-4.18h1v6.3Z" fill="#d9f1fd"/><path d="M211.92,150.26a2.56,2.56,0,1,1,2.55,2.47A2.42,2.42,0,0,1,211.92,150.26Zm4,0a1.43,1.43,0,1,0-1.44,1.5A1.4,1.4,0,0,0,215.91,150.26Z" fill="#d9f1fd"/><path d="M222.83,146v6.68h-1.08V152a2,2,0,0,1-1.6.69,2.47,2.47,0,0,1,0-4.93,2,2,0,0,1,1.55.65V146Zm-1.11,4.28a1.43,1.43,0,1,0-1.43,1.5A1.4,1.4,0,0,0,221.72,150.26Z" fill="#d9f1fd"/><path d="M228.8,150.62H225a1.46,1.46,0,0,0,1.56,1.15,1.71,1.71,0,0,0,1.3-.52l.61.69a2.69,2.69,0,0,1-4.59-1.68,2.39,2.39,0,0,1,2.48-2.46,2.34,2.34,0,0,1,2.43,2.49C228.82,150.38,228.81,150.51,228.8,150.62Zm-3.78-.75h2.73a1.31,1.31,0,0,0-1.36-1.17A1.33,1.33,0,0,0,225,149.87Z" fill="#d9f1fd"/><path d="M232.68,147.8v1.07l-.26,0a1.31,1.31,0,0,0-1.39,1.48v2.33H229.9v-4.8H231v.7A1.91,1.91,0,0,1,232.68,147.8Z" fill="#d9f1fd"/><path d="M237.63,149.85v2.81h-1.06v-.58a1.71,1.71,0,0,1-1.51.65c-1.1,0-1.79-.61-1.79-1.44s.54-1.43,2-1.43h1.25v-.08c0-.65-.4-1-1.2-1a2.37,2.37,0,0,0-1.46.48l-.44-.82a3.35,3.35,0,0,1,2-.6C236.83,147.8,237.63,148.46,237.63,149.85Zm-1.12,1.31v-.56h-1.16c-.77,0-1,.29-1,.64s.35.67.92.67A1.23,1.23,0,0,0,236.51,151.16Z" fill="#d9f1fd"/><path d="M242,152.4a1.74,1.74,0,0,1-1.08.33,1.48,1.48,0,0,1-1.66-1.62v-2.32h-.79v-.9h.79V146.8h1.13v1.09h1.29v.9h-1.29v2.29c0,.47.23.72.67.72a1,1,0,0,0,.63-.2Z" fill="#d9f1fd"/><path d="M247.23,150.62h-3.77a1.45,1.45,0,0,0,1.55,1.15,1.73,1.73,0,0,0,1.31-.52l.6.69a2.42,2.42,0,0,1-1.93.79,2.44,2.44,0,0,1-2.66-2.47,2.39,2.39,0,0,1,2.48-2.46,2.35,2.35,0,0,1,2.44,2.49C247.25,150.38,247.24,150.51,247.23,150.62Zm-3.78-.75h2.72a1.38,1.38,0,0,0-2.72,0Z" fill="#d9f1fd"/><path d="M302.37,171.72V178H301.2v-2.7h-3.26V178h-1.17v-6.3h1.17v2.6h3.26v-2.6Z" fill="#d9f1fd"/><path d="M303.8,171.74a.68.68,0,0,1,.72-.67.67.67,0,0,1,.72.65.72.72,0,0,1-1.44,0Zm.16,1.47h1.12V178H304Z" fill="#d9f1fd"/><path d="M311.33,173.21v4.08a2.27,2.27,0,0,1-2.59,2.54,3.85,3.85,0,0,1-2.35-.69l.51-.84a2.9,2.9,0,0,0,1.77.57c1.06,0,1.53-.48,1.53-1.46v-.25a2.11,2.11,0,0,1-1.61.64,2.32,2.32,0,1,1,0-4.64,2.08,2.08,0,0,1,1.67.69v-.64Zm-1.11,2.26a1.46,1.46,0,1,0-1.46,1.38A1.35,1.35,0,0,0,310.22,175.47Z" fill="#d9f1fd"/><path d="M317.54,175.26V178h-1.13v-2.61c0-.86-.42-1.27-1.14-1.27a1.27,1.27,0,0,0-1.34,1.45V178H312.8v-6.68h1.13v2.43a2.12,2.12,0,0,1,1.6-.61A1.88,1.88,0,0,1,317.54,175.26Z" fill="#d9f1fd"/></g></svg>