<svg xmlns="http://www.w3.org/2000/svg" width="29.401" height="29.401" viewBox="0 0 29.401 29.401">
  <g id="Group_3468" data-name="Group 3468" transform="translate(190.884 -217.291)">
    <path id="Path_6913" data-name="Path 6913" d="M-184.912,230.154h-4.594a1.378,1.378,0,0,0-1.378,1.378v13.782a1.378,1.378,0,0,0,1.378,1.378h4.594a1.378,1.378,0,0,0,1.378-1.378V231.532A1.378,1.378,0,0,0-184.912,230.154Zm-2.3,14.241a1.378,1.378,0,0,1-1.378-1.378,1.378,1.378,0,0,1,1.378-1.378,1.378,1.378,0,0,1,1.378,1.378A1.378,1.378,0,0,1-187.209,244.4Z" fill="#c71f25"/>
    <path id="Path_6914" data-name="Path 6914" d="M-168.833,221.969c0,2.435-1.492,3.8-1.911,5.429h5.841a3.431,3.431,0,0,1,3.42,3.336,4.157,4.157,0,0,1-1.117,2.825l-.006.007a4.8,4.8,0,0,1-.534,4.563,4.542,4.542,0,0,1-.941,4.293,3.048,3.048,0,0,1-.353,2.563c-1.172,1.684-4.077,1.707-6.533,1.707h-.164A16.468,16.468,0,0,1-178,244.87a9.067,9.067,0,0,0-3.024-.929.688.688,0,0,1-.676-.689V230.977a.685.685,0,0,1,.2-.489c2.275-2.248,3.253-4.628,5.117-6.5a6.954,6.954,0,0,0,1.459-3.382c.255-1.062.789-3.319,1.948-3.319C-171.59,217.291-168.833,217.751-168.833,221.969Z" fill="#c71f25" opacity="0.8"/>
  </g>
</svg>
