<svg xmlns="http://www.w3.org/2000/svg" width="19.205" height="23.342" viewBox="0 0 19.205 23.342">
  <g id="Group_3549" data-name="Group 3549" transform="translate(-3.029)">
    <path id="Path_6990" data-name="Path 6990" d="M7.231,5.2V4.668A2.48,2.48,0,0,0,8.258,2.614a2.614,2.614,0,1,0-4.2,2.054V21.755a1.574,1.574,0,0,0,1.587,1.587,1.531,1.531,0,0,0,1.541-1.587V18.207a.424.424,0,0,1,.047-.02V5.2Z" fill="#c71f25" opacity="0.803"/>
    <path id="Path_6991" data-name="Path 6991" d="M126.05,105.472c-.395,0-2.051,1.065-3.55,1.065-1.129,0-2.377-1.065-4.892-1.065a11.743,11.743,0,0,0-4.418,1.1v10.2a1.647,1.647,0,0,0,.2-.062,11.288,11.288,0,0,1,4.458-1.144c2.13,0,2.959,1.1,4.734,1.1a9.086,9.086,0,0,0,3.55-.907c.276-.118.513-.237.513-.513h0v-9.271A.569.569,0,0,0,126.05,105.472Z" transform="translate(-104.407 -100.663)" fill="#c71f25"/>
  </g>
</svg>
