<svg xmlns="http://www.w3.org/2000/svg" width="22.203" height="22.203" viewBox="0 0 22.203 22.203">
  <g id="Group_3468" data-name="Group 3468" transform="translate(190.884 -217.291)">
    <path id="Path_6913" data-name="Path 6913" d="M-186.374,230.154h-3.469a1.041,1.041,0,0,0-1.041,1.041V241.6a1.041,1.041,0,0,0,1.041,1.041h3.469a1.041,1.041,0,0,0,1.041-1.041V231.195A1.041,1.041,0,0,0-186.374,230.154Zm-1.735,10.755a1.041,1.041,0,0,1-1.041-1.041,1.041,1.041,0,0,1,1.041-1.041,1.041,1.041,0,0,1,1.041,1.041A1.041,1.041,0,0,1-188.109,240.909Z" transform="translate(0 -3.149)" fill="#c71f25"/>
    <path id="Path_6914" data-name="Path 6914" d="M-171.982,220.824c0,1.839-1.127,2.871-1.443,4.1h4.411a2.591,2.591,0,0,1,2.583,2.519,3.139,3.139,0,0,1-.844,2.133l0,.005a3.623,3.623,0,0,1-.4,3.446,3.43,3.43,0,0,1-.711,3.242,2.3,2.3,0,0,1-.267,1.936c-.885,1.272-3.079,1.289-4.934,1.289h-.124a12.436,12.436,0,0,1-5.184-1.376,6.847,6.847,0,0,0-2.284-.7.52.52,0,0,1-.51-.52v-9.27a.518.518,0,0,1,.154-.369c1.718-1.7,2.457-3.495,3.864-4.906a5.251,5.251,0,0,0,1.1-2.554c.193-.8.6-2.506,1.471-2.506C-174.064,217.291-171.982,217.638-171.982,220.824Z" transform="translate(-2.249)" fill="#c71f25" opacity="0.8"/>
  </g>
</svg>
