<svg xmlns="http://www.w3.org/2000/svg" width="25.104" height="25.104" viewBox="0 0 25.104 25.104">
  <path id="check-circle-regular" d="M20.552,8A12.552,12.552,0,1,0,33.1,20.552,12.552,12.552,0,0,0,20.552,8Zm0,2.429A10.122,10.122,0,1,1,10.429,20.552,10.117,10.117,0,0,1,20.552,10.429m7.1,6.593-1.141-1.15a.607.607,0,0,0-.859,0l-7.154,7.1-3.026-3.051a.607.607,0,0,0-.859,0l-1.15,1.141a.607.607,0,0,0,0,.859l4.595,4.632a.607.607,0,0,0,.859,0l8.735-8.665A.607.607,0,0,0,27.648,17.022Z" transform="translate(-8 -8)" fill="#c71f25"/>
</svg>
