<?xml version="1.0" encoding="utf-8"?>
<!-- Generator: Adobe Illustrator 22.0.0, SVG Export Plug-In . SVG Version: 6.00 Build 0)  -->
<svg version="1.1" id="Layer_1" xmlns="http://www.w3.org/2000/svg" xmlns:xlink="http://www.w3.org/1999/xlink" x="0px" y="0px"
	 viewBox="0 0 512 512" style="enable-background:new 0 0 512 512;" xml:space="preserve">
<style type="text/css">
	.st0{fill:#FFFFFF;}
</style>
<path class="st0" d="M373.2,256l126.7-126.7c8-8,12.1-17.8,12.1-29.3c0-11.5-4-21.3-12.1-29.3l-58.6-58.6C433.3,4,423.5,0,412,0
	c-11.5,0-21.3,4-29.3,12.1L256,138.8L129.3,12.1C121.3,4,111.5,0,100,0C88.5,0,78.7,4,70.7,12.1L12.1,70.7C4,78.7,0,88.5,0,100
	s4,21.3,12.1,29.3L138.8,256L12.1,382.7C4,390.8,0,400.5,0,412c0,11.5,4,21.3,12.1,29.3l58.6,58.6c8,8,17.8,12.1,29.3,12.1
	c11.5,0,21.3-4,29.3-12.1L256,373.2l126.7,126.7c8,8,17.8,12.1,29.3,12.1c11.5,0,21.3-4,29.3-12.1l58.6-58.6
	c8.1-8,12.1-17.8,12.1-29.3c0-11.5-4-21.3-12.1-29.3L373.2,256L373.2,256z"/>
</svg>
