<svg xmlns="http://www.w3.org/2000/svg" width="129.59" height="129.59" viewBox="0 0 129.59 129.59"><g style="isolation:isolate"><circle cx="64.79" cy="64.79" r="64.79" fill="#d9f1fd"/><g opacity="0.2" style="mix-blend-mode:multiply"><path d="M30,72.84a1.24,1.24,0,0,1-.71-.21,1.31,1.31,0,0,1-.36-1.81c1.23-1.82,2.85-4.1,4.63-6.23H37a68.09,68.09,0,0,0-5.92,7.69A1.34,1.34,0,0,1,30,72.84Zm11.91-.79a24.93,24.93,0,0,1,8.46-7.46H45.56a26.21,26.21,0,0,0-5.84,6,92.46,92.46,0,0,0-5.47,9.31,57.37,57.37,0,0,1-3.51,6,1.31,1.31,0,0,0-.22,1,1.24,1.24,0,0,0,.53.84,1.29,1.29,0,0,0,1.82-.3,60.32,60.32,0,0,0,3.68-6.33A86.94,86.94,0,0,1,41.87,72.05ZM101.49,90.3l-.83.49a37.58,37.58,0,0,1-4.36,2.33l-.12.06a15.37,15.37,0,0,1-6.76,1.56,14.27,14.27,0,0,1-10-4.07l-.91-.85c-2.87-2.7-6.11-5.76-9.22-6.54a6.63,6.63,0,0,0-1.57-.2c-3,0-5.24,2.18-6.39,4.22A6.92,6.92,0,0,0,61,92.81c1.73,5.85,9.07,12.76,14.88,15.8,2.21,1.16,4.8,2.45,7.71,3.83a1.25,1.25,0,0,0,.54.12,1.31,1.31,0,0,0,1.25-1.73,1.34,1.34,0,0,0-.67-.75c-2.88-1.37-5.44-2.64-7.62-3.78C71,103.09,64.86,96.71,63.49,92.07a4.46,4.46,0,0,1,.13-3.49c.27-.48,1.75-2.88,4.16-2.88a3.8,3.8,0,0,1,.89.11c2.46.62,5.59,3.57,8.1,5.94l.89.84a17.1,17.1,0,0,0,11.83,4.74,17.36,17.36,0,0,0,7.87-1.82l.08,0A41.12,41.12,0,0,0,102,93l.82-.48a1.32,1.32,0,0,0,.47-1.79A1.37,1.37,0,0,0,101.49,90.3Zm-6.86,12.46c-.71.07-1.44.1-2.15.1-11.3,0-19-8.07-19.08-8.15-2.21-2.39-2.58-2.78-2.59-2.78a1.37,1.37,0,0,0-1.84,0,1.31,1.31,0,0,0,0,1.84s.41.42,2.55,2.75c.34.36,8.47,9,21,9,.81,0,1.62,0,2.43-.11a1.31,1.31,0,0,0-.23-2.6Zm7.82-38.17H99.09A20.08,20.08,0,0,1,103.26,72a1.32,1.32,0,0,0,1.26.93,1.57,1.57,0,0,0,.37-.05,1.31,1.31,0,0,0,.77-.63,1.29,1.29,0,0,0,.1-1A22.27,22.27,0,0,0,102.45,64.59ZM73.3,112.89C57.75,103,51.91,92.06,56.87,82c1.27-2.68,4.36-4.7,7.87-5.17a18.85,18.85,0,0,1,2.5-.18,12.58,12.58,0,0,1,9.26,3.87l.08.09c4.35,5.34,9.1,8.29,13.35,8.29a8.72,8.72,0,0,0,2.17-.27c3.32-.87,5.64-3.8,6.37-8,.68-4-.58-8-3.66-11.64a25.65,25.65,0,0,0-4.93-4.39H84.75a26,26,0,0,1,8.07,6.08c2.6,3.07,3.63,6.27,3.08,9.5s-2.14,5.36-4.46,6a5.57,5.57,0,0,1-1.44.18c-2,0-6.25-1-11.47-7.41l-.08-.09c-3.74-3.83-8.28-5.3-14.06-4.54-4.42.59-8.21,3.13-9.87,6.62-3.25,6.59-5.32,19.8,17.38,34.2a1.29,1.29,0,0,0,.69.2,1.31,1.31,0,0,0,1.11-.6,1.3,1.3,0,0,0,.18-1A1.31,1.31,0,0,0,73.3,112.89ZM42,98.32v-.08a1.27,1.27,0,0,0-.27-.93,1.37,1.37,0,0,0-.89-.47A1.32,1.32,0,0,0,39.38,98c0,.16-.36,3.84,3.35,10.61a1.32,1.32,0,0,0,1.16.67,1.18,1.18,0,0,0,.61-.16,1.27,1.27,0,0,0,.63-.77,1.34,1.34,0,0,0-.11-1C41.93,101.74,42,98.65,42,98.32ZM48.42,92l0-.06a1.25,1.25,0,0,0-.16-1,1.3,1.3,0,0,0-.81-.58,1.34,1.34,0,0,0-1.58,1c-.09.37-2,9.2,11.61,23.14a1.32,1.32,0,0,0,.93.38,1.3,1.3,0,0,0,.91-.36,1.34,1.34,0,0,0,.4-.92,1.3,1.3,0,0,0-.38-.93C47.05,100.1,48.36,92.32,48.42,92Zm10-21.6a21.47,21.47,0,0,1,19.84.82,33.48,33.48,0,0,1,8.84,7.1,1.29,1.29,0,0,0,1,.48,1.31,1.31,0,0,0,1.3-1.18,1.28,1.28,0,0,0-.29-1,35.45,35.45,0,0,0-9.61-7.74,25.38,25.38,0,0,0-12.09-3.16A23.7,23.7,0,0,0,57.35,68C47.35,72.71,43.68,80.15,41,85.59c-1.44,2.9-2.67,5.41-4.47,7a16.51,16.51,0,0,1-2.71,1.53,1.32,1.32,0,0,0-.66.75,1.33,1.33,0,0,0,.06,1,1.32,1.32,0,0,0,1.18.73,1.18,1.18,0,0,0,.56-.13,14.87,14.87,0,0,0,3.27-1.9c2.2-1.88,3.61-4.75,5.11-7.78C46.12,81.09,49.28,74.69,58.46,70.4Z" fill="#9ecfef"/></g><path d="M28.52,71.4a1.24,1.24,0,0,1-.71-.21,1.31,1.31,0,0,1-.36-1.81c1.23-1.82,2.85-4.1,4.63-6.23h3.46a68.09,68.09,0,0,0-5.92,7.69A1.34,1.34,0,0,1,28.52,71.4Zm11.91-.79a24.93,24.93,0,0,1,8.46-7.46H44.12a26.21,26.21,0,0,0-5.84,6,92.46,92.46,0,0,0-5.47,9.31,57.37,57.37,0,0,1-3.51,6,1.31,1.31,0,0,0-.22,1,1.24,1.24,0,0,0,.53.84,1.29,1.29,0,0,0,1.82-.3,60.32,60.32,0,0,0,3.68-6.33A86.94,86.94,0,0,1,40.43,70.61Zm59.62,18.25-.83.49a37.58,37.58,0,0,1-4.36,2.33l-.12.06A15.37,15.37,0,0,1,88,93.3a14.27,14.27,0,0,1-10-4.07l-.91-.85c-2.87-2.7-6.11-5.76-9.22-6.54a6.63,6.63,0,0,0-1.57-.2c-3,0-5.24,2.18-6.39,4.22a6.92,6.92,0,0,0-.36,5.51c1.73,5.85,9.07,12.76,14.88,15.8,2.21,1.16,4.8,2.45,7.71,3.83a1.25,1.25,0,0,0,.54.12,1.31,1.31,0,0,0,1.25-1.73,1.34,1.34,0,0,0-.67-.75c-2.88-1.37-5.44-2.64-7.62-3.78-6.12-3.21-12.22-9.59-13.59-14.23a4.46,4.46,0,0,1,.13-3.49c.27-.48,1.75-2.88,4.16-2.88a3.8,3.8,0,0,1,.89.11c2.46.62,5.59,3.57,8.1,5.94l.89.84a17.1,17.1,0,0,0,11.83,4.74,17.36,17.36,0,0,0,7.87-1.82L96,94a41.12,41.12,0,0,0,4.55-2.43l.82-.48a1.32,1.32,0,0,0,.47-1.79A1.37,1.37,0,0,0,100.05,88.86Zm-6.86,12.46c-.71.07-1.44.1-2.15.1-11.3,0-19-8.07-19.08-8.15-2.21-2.39-2.58-2.78-2.59-2.78a1.37,1.37,0,0,0-1.84,0,1.31,1.31,0,0,0,0,1.84s.41.42,2.55,2.75c.34.36,8.47,9,20.95,9,.81,0,1.62,0,2.43-.11a1.31,1.31,0,0,0-.23-2.6ZM101,63.15H97.65a20.08,20.08,0,0,1,4.17,7.38,1.32,1.32,0,0,0,1.26.93,1.57,1.57,0,0,0,.37,0,1.31,1.31,0,0,0,.77-.63,1.29,1.29,0,0,0,.1-1A22.27,22.27,0,0,0,101,63.15Zm-29.15,48.3c-15.55-9.87-21.39-20.83-16.43-30.86,1.27-2.68,4.36-4.7,7.87-5.17a18.85,18.85,0,0,1,2.5-.18,12.58,12.58,0,0,1,9.26,3.87l.08.09c4.35,5.34,9.1,8.29,13.35,8.29a8.72,8.72,0,0,0,2.17-.27c3.32-.87,5.64-3.8,6.37-8,.68-4-.58-8-3.66-11.64a25.65,25.65,0,0,0-4.93-4.39H83.31a26,26,0,0,1,8.07,6.08C94,72.3,95,75.5,94.46,78.73s-2.14,5.36-4.46,6a5.57,5.57,0,0,1-1.44.18c-2,0-6.25-1-11.47-7.41L77,77.37c-3.74-3.83-8.28-5.3-14.06-4.54-4.42.59-8.21,3.13-9.87,6.62-3.25,6.59-5.32,19.8,17.38,34.2a1.29,1.29,0,0,0,.69.2,1.31,1.31,0,0,0,1.11-.6,1.3,1.3,0,0,0,.18-1A1.31,1.31,0,0,0,71.86,111.45ZM40.54,96.88V96.8a1.27,1.27,0,0,0-.27-.93,1.37,1.37,0,0,0-.89-.47,1.32,1.32,0,0,0-1.44,1.19c0,.16-.36,3.84,3.35,10.61a1.32,1.32,0,0,0,1.16.67,1.18,1.18,0,0,0,.61-.16,1.27,1.27,0,0,0,.63-.77,1.34,1.34,0,0,0-.11-1C40.49,100.3,40.52,97.21,40.54,96.88ZM47,90.56l0-.06a1.25,1.25,0,0,0-.16-1A1.3,1.3,0,0,0,46,89a1.34,1.34,0,0,0-1.58,1c-.09.37-2,9.2,11.61,23.14a1.32,1.32,0,0,0,.93.38,1.3,1.3,0,0,0,.91-.36,1.34,1.34,0,0,0,.4-.92,1.3,1.3,0,0,0-.38-.93C45.61,98.66,46.92,90.88,47,90.56ZM57,69a21.47,21.47,0,0,1,19.84.82,33.48,33.48,0,0,1,8.84,7.1,1.29,1.29,0,0,0,1,.48A1.31,1.31,0,0,0,88,76.18a1.28,1.28,0,0,0-.29-1,35.45,35.45,0,0,0-9.61-7.74A25.38,25.38,0,0,0,66,64.32a23.7,23.7,0,0,0-10.1,2.27c-10,4.68-13.67,12.12-16.35,17.56-1.44,2.9-2.67,5.41-4.47,6.95a16.51,16.51,0,0,1-2.71,1.53,1.32,1.32,0,0,0-.66.75,1.33,1.33,0,0,0,.06,1,1.32,1.32,0,0,0,1.18.73,1.18,1.18,0,0,0,.56-.13,14.87,14.87,0,0,0,3.27-1.9C39,91.2,40.4,88.33,41.9,85.3,44.68,79.65,47.84,73.25,57,69Z" fill="#162e51"/><path d="M65.72,56.33h-.19c-.66,0-1.32,0-2,.06h4.37C67.18,56.35,66.45,56.33,65.72,56.33Z" fill="#fff"/><g style="mix-blend-mode:multiply"><g opacity="0.2" style="mix-blend-mode:multiply"><path d="M32.3,45.68a1.31,1.31,0,0,1,.37-1.81A64.39,64.39,0,0,1,67.8,33.4a65.73,65.73,0,0,1,33.43,9.39,1.31,1.31,0,0,1,.44,1.79,1.35,1.35,0,0,1-1.79.45A63,63,0,0,0,67.8,36a61.75,61.75,0,0,0-33.69,10,1.32,1.32,0,0,1-1.81-.37Zm-.6,12.15c8.45-8.5,22.2-13.76,36.1-13.76,13.3,0,26.43,4.79,35.13,12.81a1.29,1.29,0,0,0,.88.34h0a1.31,1.31,0,0,0,1-.41,1.35,1.35,0,0,0,.34-.94,1.24,1.24,0,0,0-.42-.9c-9.17-8.46-23-13.51-36.9-13.51-15.09,0-29.48,5.63-38.5,15.08A1.28,1.28,0,0,0,29,57.83Zm9.07,0h4.87a45.59,45.59,0,0,1,22.16-5.7,47.25,47.25,0,0,1,22.82,5.7h5c-7.14-5.15-17.07-8.31-27.79-8.31A47.46,47.46,0,0,0,40.77,57.83ZM52.06,22.67a1.09,1.09,0,0,0,.4-.07A53.32,53.32,0,0,1,67.8,20.45a50,50,0,0,1,13.7,1.86,1.34,1.34,0,0,0,.35.05h0a1.32,1.32,0,0,0,1.26-.95,1.23,1.23,0,0,0-.12-1,1.28,1.28,0,0,0-.78-.62A52.45,52.45,0,0,0,67.8,17.85a55,55,0,0,0-16.16,2.28,1.31,1.31,0,0,0-.83,1.64A1.33,1.33,0,0,0,52.06,22.67ZM39.72,34.12a1.16,1.16,0,0,0,.49-.1A71.21,71.21,0,0,1,67.8,28c8,0,16.46,1.75,25.8,5.35a1.33,1.33,0,0,0,.45.08,1.31,1.31,0,0,0,1.23-.83,1.29,1.29,0,0,0,0-1,1.32,1.32,0,0,0-.72-.69c-9.64-3.71-18.39-5.52-26.74-5.52a73.7,73.7,0,0,0-28.6,6.28,1.3,1.3,0,0,0-.7,1.7A1.33,1.33,0,0,0,39.72,34.12Z" fill="#9ecfef"/></g><path d="M30.86,44.24a1.31,1.31,0,0,1,.37-1.81A64.39,64.39,0,0,1,66.36,32a65.73,65.73,0,0,1,33.43,9.39,1.31,1.31,0,0,1,.44,1.79,1.35,1.35,0,0,1-1.79.45,63,63,0,0,0-32.08-9,61.75,61.75,0,0,0-33.69,10,1.32,1.32,0,0,1-1.81-.37Zm-.6,12.15c8.45-8.5,22.2-13.76,36.1-13.76,13.3,0,26.43,4.79,35.13,12.81a1.29,1.29,0,0,0,.88.34h0a1.31,1.31,0,0,0,1-.41,1.35,1.35,0,0,0,.34-.94,1.24,1.24,0,0,0-.42-.9C94.09,45.07,80.3,40,66.36,40c-15.09,0-29.48,5.63-38.5,15.08a1.28,1.28,0,0,0-.28,1.29Zm9.07,0H44.2a45.59,45.59,0,0,1,22.16-5.7,47.25,47.25,0,0,1,22.82,5.7h5C87,51.24,77.08,48.08,66.36,48.08A47.46,47.46,0,0,0,39.33,56.39ZM50.62,21.23a1.09,1.09,0,0,0,.4-.07A53.32,53.32,0,0,1,66.36,19a50,50,0,0,1,13.7,1.86,1.34,1.34,0,0,0,.35.05h0a1.32,1.32,0,0,0,1.26-1,1.23,1.23,0,0,0-.12-1,1.28,1.28,0,0,0-.78-.62,52.45,52.45,0,0,0-14.41-1.95A55,55,0,0,0,50.2,18.69a1.31,1.31,0,0,0-.83,1.64A1.33,1.33,0,0,0,50.62,21.23ZM38.28,32.68a1.16,1.16,0,0,0,.49-.1,71.21,71.21,0,0,1,27.59-6.07c8,0,16.46,1.75,25.8,5.35a1.33,1.33,0,0,0,.45.08,1.31,1.31,0,0,0,1.23-.83,1.29,1.29,0,0,0,0-1,1.32,1.32,0,0,0-.72-.69c-9.64-3.71-18.39-5.52-26.74-5.52a73.7,73.7,0,0,0-28.6,6.28,1.3,1.3,0,0,0-.7,1.7A1.33,1.33,0,0,0,38.28,32.68Z" fill="#d9f1fd"/></g><rect x="12.8" y="59.77" width="105.87" height="6.76" rx="2.57" fill="#d9f1fd" style="mix-blend-mode:multiply"/></g></svg>