<svg xmlns="http://www.w3.org/2000/svg" width="21.886" height="24" viewBox="0 0 21.886 24">
  <g id="Group_1810" data-name="Group 1810" transform="translate(0 -0.003)">
    <path id="Path_169" data-name="Path 169" d="M21.34,11.313h-8.06a.545.545,0,0,1-.385-.931l1.619-1.619C9.084,2.008,0,8.587,0,8.587,6.979-6.777,18.169,3.171,18.169,3.171a5.8,5.8,0,0,1,1,.939l1.788-1.788a.545.545,0,0,1,.931.385v8.06A.547.547,0,0,1,21.34,11.313Z" transform="translate(0 0)" fill="#cc1d1d"/>
    <path id="Path_170" data-name="Path 170" d="M.546,339.4h8.06a.545.545,0,0,1,.385.931l-1.619,1.619c5.434,6.751,14.515.176,14.515.176-6.979,15.36-18.169,5.412-18.169,5.412a5.8,5.8,0,0,1-1-.939L.931,348.387A.545.545,0,0,1,0,348v-8.056A.544.544,0,0,1,.546,339.4Z" transform="translate(0 -326.703)" fill="#cc1d1d"/>
  </g>
</svg>
