<?xml version="1.0" encoding="utf-8"?>
<!-- Generator: Adobe Illustrator 24.2.3, SVG Export Plug-In . SVG Version: 6.00 Build 0)  -->
<svg version="1.1" xmlns="http://www.w3.org/2000/svg" xmlns:xlink="http://www.w3.org/1999/xlink" x="0px" y="0px"
	 viewBox="0 0 320 207.3" style="enable-background:new 0 0 320 207.3;" xml:space="preserve">
<style type="text/css">
	.st0{opacity:0.46;fill:#FFFFFF;}
	.st1{fill:#0A90B7;}
	.st2{fill:#F2F2F2;}
	.st3{enable-background:new    ;}
	.st4{fill:#FFFFFF;}
	.st5{fill:#757575;}
	.st6{opacity:0.55;}
	.st7{fill:#444444;}
	.st8{fill:#D8D8D8;}
	.st9{fill:#C71F25;}
	.st10{fill:#A6D7E5;}
	.st11{opacity:0.46;fill:#209ABD;}
	.st12{opacity:0.1;enable-background:new    ;}
	.st13{opacity:0.6;fill:#0A90B7;}
	.st14{fill:#1294C2;}
	.st15{opacity:0.55;fill:#F2F2F2;}
	.st16{fill:#A00A0F;}
	.st17{opacity:0.55;fill:#0A90B7;}
</style>
<g id="Layer_6">
</g>
<g id="Shapes">
</g>
<g id="background">
</g>
<g id="text">
</g>
<g id="Graphics">
</g>
<g id="Layer_5">
	<rect x="10" class="st0" width="300" height="207.3"/>
	<rect x="19" y="9.3" class="st2" width="38.5" height="31.6"/>
	<g>
		<polygon class="st1" points="60,11.6 60,38.6 260.2,38.6 260.2,37.5 260.2,34.9 268.3,39.8 260.2,44.8 260.2,40.9 57.7,40.9 
			57.7,9.3 73.4,9.3 293.3,9.3 300.2,25.1 293.3,40.9 273.6,40.9 273.6,38.6 291.5,38.6 291.9,38 297,25.6 297.2,25.1 297,24.7 
			291.9,12.3 291.5,11.6 		"/>
	</g>
	<g class="st3">
		<path class="st1" d="M71.5,25.2c0-2.6,2-4.4,4.6-4.4c1.4,0,2.6,0.5,3.4,1.4l-1,1c-0.6-0.7-1.4-1-2.3-1c-1.8,0-3.1,1.2-3.1,3
			s1.3,3,3.1,3c0.9,0,1.7-0.3,2.3-1l1,1c-0.8,0.9-2,1.4-3.4,1.4C73.5,29.6,71.5,27.7,71.5,25.2z"/>
		<path class="st1" d="M80.1,26.2c0-2,1.5-3.3,3.5-3.3c2,0,3.5,1.4,3.5,3.3s-1.5,3.3-3.5,3.3C81.6,29.5,80.1,28.2,80.1,26.2z
			 M85.5,26.2c0-1.2-0.8-2-1.9-2c-1.1,0-1.9,0.8-1.9,2s0.8,2,1.9,2C84.7,28.2,85.5,27.4,85.5,26.2z"/>
		<path class="st1" d="M94.9,25.7v3.7h-1.5v-3.5c0-1.2-0.6-1.7-1.6-1.7c-1.1,0-1.8,0.7-1.8,2v3.3h-1.5v-6.5H90v0.8
			c0.5-0.6,1.3-0.9,2.2-0.9C93.8,22.9,94.9,23.8,94.9,25.7z"/>
		<path class="st1" d="M100.8,29.1c-0.4,0.3-0.9,0.4-1.5,0.4c-1.4,0-2.2-0.8-2.2-2.2v-3.1H96V23h1.1v-1.5h1.5V23h1.7v1.2h-1.7v3.1
			c0,0.6,0.3,1,0.9,1c0.3,0,0.6-0.1,0.9-0.3L100.8,29.1z"/>
		<path class="st1" d="M101.8,21c0-0.5,0.4-0.9,1-0.9c0.6,0,1,0.4,1,0.9c0,0.5-0.4,1-1,1C102.2,21.9,101.8,21.5,101.8,21z M102,22.9
			h1.5v6.5H102V22.9z"/>
		<path class="st1" d="M112,25.7v3.7h-1.5v-3.5c0-1.2-0.6-1.7-1.5-1.7c-1.1,0-1.8,0.7-1.8,2v3.3h-1.5v-6.5h1.5v0.8
			c0.5-0.6,1.3-0.9,2.2-0.9C110.8,22.9,112,23.8,112,25.7z"/>
		<path class="st1" d="M120.2,22.9v6.5h-1.5v-0.8c-0.5,0.6-1.3,0.9-2.1,0.9c-1.7,0-2.8-0.9-2.8-2.9v-3.7h1.5v3.5
			c0,1.2,0.6,1.7,1.5,1.7c1.1,0,1.8-0.7,1.8-2v-3.3H120.2z"/>
		<path class="st1" d="M121.7,26.2c0-2,1.5-3.3,3.5-3.3c2,0,3.5,1.4,3.5,3.3s-1.5,3.3-3.5,3.3C123.1,29.5,121.7,28.2,121.7,26.2z
			 M127.1,26.2c0-1.2-0.8-2-1.9-2c-1.1,0-1.9,0.8-1.9,2s0.8,2,1.9,2C126.3,28.2,127.1,27.4,127.1,26.2z"/>
		<path class="st1" d="M136.4,22.9v6.5h-1.5v-0.8c-0.5,0.6-1.3,0.9-2.1,0.9c-1.7,0-2.8-0.9-2.8-2.9v-3.7h1.5v3.5
			c0,1.2,0.6,1.7,1.5,1.7c1.1,0,1.8-0.7,1.8-2v-3.3H136.4z"/>
		<path class="st1" d="M137.7,28.8l0.6-1.2c0.6,0.4,1.5,0.6,2.3,0.6c1,0,1.4-0.3,1.4-0.7c0-1.2-4-0.1-4-2.7c0-1.2,1.1-2,2.9-2
			c0.9,0,1.9,0.2,2.4,0.6l-0.6,1.2c-0.6-0.4-1.2-0.5-1.9-0.5c-0.9,0-1.4,0.3-1.4,0.7c0,1.3,4,0.1,4,2.7c0,1.2-1.1,2-3,2
			C139.3,29.5,138.2,29.2,137.7,28.8z"/>
		<path class="st1" d="M156,29.5l0-5.7l-2.8,4.7h-0.7l-2.8-4.6v5.6h-1.5v-8.5h1.3l3.4,5.7l3.3-5.7h1.3l0,8.5H156z"/>
		<path class="st1" d="M159.2,26.2c0-2,1.5-3.3,3.5-3.3c2,0,3.5,1.4,3.5,3.3s-1.5,3.3-3.5,3.3C160.6,29.5,159.2,28.2,159.2,26.2z
			 M164.6,26.2c0-1.2-0.8-2-1.9-2c-1.1,0-1.9,0.8-1.9,2s0.8,2,1.9,2C163.7,28.2,164.6,27.4,164.6,26.2z"/>
		<path class="st1" d="M174,25.7v3.7h-1.5v-3.5c0-1.2-0.6-1.7-1.6-1.7c-1.1,0-1.8,0.7-1.8,2v3.3h-1.5v-6.5h1.5v0.8
			c0.5-0.6,1.3-0.9,2.2-0.9C172.8,22.9,174,23.8,174,25.7z"/>
		<path class="st1" d="M175.7,21c0-0.5,0.4-0.9,1-0.9c0.6,0,1,0.4,1,0.9c0,0.5-0.4,1-1,1C176.1,21.9,175.7,21.5,175.7,21z
			 M175.9,22.9h1.5v6.5h-1.5V22.9z"/>
		<path class="st1" d="M183.4,29.1c-0.4,0.3-0.9,0.4-1.5,0.4c-1.4,0-2.2-0.8-2.2-2.2v-3.1h-1.1V23h1.1v-1.5h1.5V23h1.7v1.2h-1.7v3.1
			c0,0.6,0.3,1,0.9,1c0.3,0,0.6-0.1,0.9-0.3L183.4,29.1z"/>
		<path class="st1" d="M183.9,26.2c0-2,1.5-3.3,3.5-3.3c2,0,3.5,1.4,3.5,3.3s-1.5,3.3-3.5,3.3C185.3,29.5,183.9,28.2,183.9,26.2z
			 M189.3,26.2c0-1.2-0.8-2-1.9-2c-1.1,0-1.9,0.8-1.9,2s0.8,2,1.9,2C188.4,28.2,189.3,27.4,189.3,26.2z"/>
		<path class="st1" d="M196,22.9v1.5c-0.1,0-0.2,0-0.4,0c-1.2,0-1.9,0.7-1.9,2v3.2h-1.5v-6.5h1.5v1C194.2,23.2,195,22.9,196,22.9z"
			/>
		<path class="st1" d="M197.1,21c0-0.5,0.4-0.9,1-0.9c0.6,0,1,0.4,1,0.9c0,0.5-0.4,1-1,1C197.5,21.9,197.1,21.5,197.1,21z
			 M197.3,22.9h1.5v6.5h-1.5V22.9z"/>
		<path class="st1" d="M207.3,25.7v3.7h-1.5v-3.5c0-1.2-0.6-1.7-1.5-1.7c-1.1,0-1.8,0.7-1.8,2v3.3h-1.5v-6.5h1.5v0.8
			c0.5-0.6,1.3-0.9,2.2-0.9C206.1,22.9,207.3,23.8,207.3,25.7z"/>
		<path class="st1" d="M215.7,22.9v5.5c0,2.4-1.2,3.4-3.5,3.4c-1.2,0-2.4-0.3-3.2-0.9l0.7-1.1c0.6,0.5,1.5,0.8,2.4,0.8
			c1.4,0,2.1-0.7,2.1-2v-0.3c-0.5,0.6-1.3,0.9-2.2,0.9c-1.9,0-3.3-1.3-3.3-3.2s1.4-3.1,3.3-3.1c0.9,0,1.7,0.3,2.3,0.9v-0.9H215.7z
			 M214.2,26c0-1.1-0.8-1.8-2-1.8c-1.2,0-2,0.7-2,1.8c0,1.1,0.8,1.9,2,1.9C213.4,27.9,214.2,27.1,214.2,26z"/>
	</g>
	<g>
		<path class="st4" d="M31.6,33.5c-2,0-3.6-0.8-4.8-2.3c-1.2-1.5-1.8-3.6-1.8-6.1c0-2.5,0.6-4.6,1.8-6.1c1.2-1.5,2.8-2.3,4.8-2.3
			c2,0,3.6,0.8,4.8,2.3c1.2,1.5,1.8,3.6,1.8,6.1c0,2.5-0.6,4.6-1.8,6.1C35.2,32.7,33.6,33.5,31.6,33.5L31.6,33.5z M31.7,20.3
			c-0.5,0-0.9,0.3-1.1,0.9c-0.2,0.5-0.4,1.6-0.4,3.9c0,2.3,0.2,3.3,0.4,3.9c0.2,0.6,0.6,0.9,1.1,0.9c0.5,0,0.9-0.3,1.1-0.9
			c0.2-0.5,0.4-1.6,0.4-3.9c0-2.3-0.2-3.4-0.4-3.9C32.5,20.6,32.2,20.3,31.7,20.3L31.7,20.3z M44.3,33.5c-1.8,0-3.3-0.4-4.4-1.2
			c-1.2-0.9-1.8-2.1-1.8-3.6c0-1,0.3-1.8,0.8-2.5c0.6-0.6,1.3-0.9,2.1-0.9c0.7,0,1.3,0.3,1.8,0.8c0.5,0.5,0.8,1.2,0.8,2
			c0,0.7-0.2,1.2-0.5,1.7c0.2,0,0.3,0,0.5,0c0.8,0,1.4-0.2,1.8-0.5c0.3-0.3,0.5-0.7,0.5-1.4c0-0.6-0.2-0.9-0.4-1
			c-0.3-0.2-0.8-0.4-1.9-0.4c-0.4,0-0.7-0.4-0.7-0.8v-1.9c-0.4,0.4-1,0.6-1.7,0.6c-0.8,0-1.5-0.3-1.9-0.8c-0.5-0.5-0.8-1.3-0.8-2.2
			c0-1.5,0.6-2.7,1.8-3.6c1.1-0.8,2.5-1.2,4.3-1.2c2,0,3.5,0.4,4.6,1.1c1.2,0.8,1.8,2,1.8,3.6c0,1-0.3,1.9-1,2.7
			c-0.2,0.2-0.3,0.3-0.5,0.5c0.4,0.2,0.7,0.5,1,0.8c0.7,0.8,1.1,1.7,1.1,2.9c0,1.8-0.7,3.2-2,4.1C48.3,33.1,46.6,33.5,44.3,33.5
			L44.3,33.5z M43.3,20.2c0.3,0.4,0.5,0.9,0.5,1.5c0,0.4-0.1,0.8-0.2,1.2c0.9-0.1,1.4-0.3,1.6-0.5c0.3-0.2,0.4-0.4,0.4-0.8
			c0-0.4-0.1-0.7-0.4-0.9c-0.4-0.3-0.9-0.5-1.6-0.5C43.5,20.2,43.4,20.2,43.3,20.2L43.3,20.2z"/>
		<path class="st1" d="M25.7,25.1c0-2.3,0.6-4.1,1.7-5.5c1.1-1.4,2.6-2.1,4.3-2.1c1.8,0,3.2,0.7,4.3,2.1c1.1,1.4,1.6,3.2,1.6,5.5
			c0,2.3-0.6,4.1-1.7,5.5c-1.1,1.4-2.6,2.1-4.3,2.1c-1.8,0-3.2-0.7-4.3-2.1C26.2,29.2,25.7,27.4,25.7,25.1z M29.5,25.1
			c0,2,0.2,3.4,0.5,4.2c0.3,0.9,0.9,1.3,1.6,1.3c0.8,0,1.3-0.4,1.7-1.3c0.3-0.9,0.5-2.3,0.5-4.2c0-2-0.2-3.4-0.5-4.2
			c-0.3-0.9-0.9-1.3-1.6-1.3c-0.8,0-1.3,0.4-1.7,1.3C29.7,21.7,29.5,23.1,29.5,25.1z M43.6,25.7v-2c0.9,0,1.6-0.2,2-0.6
			c0.4-0.4,0.7-0.9,0.7-1.5c0-0.7-0.2-1.2-0.7-1.6c-0.5-0.4-1.1-0.6-2-0.6c-0.4,0-0.9,0.1-1.2,0.2c-0.4,0.1-0.7,0.3-1,0.6h0.2
			c0.5,0,0.8,0.1,1.1,0.4c0.3,0.3,0.4,0.7,0.4,1.1c0,0.6-0.2,1-0.5,1.3c-0.4,0.3-0.8,0.5-1.4,0.5c-0.6,0-1.1-0.2-1.5-0.6
			c-0.4-0.4-0.5-0.9-0.5-1.6c0-1.2,0.5-2.2,1.4-2.9c1-0.7,2.3-1.1,3.9-1.1c1.8,0,3.3,0.3,4.2,1c1,0.7,1.5,1.6,1.5,2.9
			c0,0.8-0.3,1.5-0.8,2.1c-0.5,0.6-1.2,0.9-2.1,1.1c1.1,0.3,2,0.8,2.6,1.4c0.6,0.6,0.8,1.4,0.8,2.3c0,1.5-0.6,2.6-1.7,3.4
			c-1.1,0.8-2.8,1.2-4.9,1.2c-1.7,0-3.1-0.4-4-1.1c-1-0.7-1.5-1.7-1.5-2.9c0-0.8,0.2-1.4,0.6-1.9c0.4-0.5,1-0.7,1.7-0.7
			c0.6,0,1,0.2,1.4,0.6c0.4,0.4,0.6,0.8,0.6,1.4c0,0.5-0.2,0.9-0.5,1.3c-0.3,0.3-0.8,0.5-1.3,0.5c0.3,0.3,0.7,0.5,1.1,0.6
			c0.4,0.1,0.9,0.2,1.4,0.2c0.9,0,1.7-0.2,2.2-0.7c0.5-0.5,0.8-1.1,0.8-2c0-0.8-0.2-1.3-0.7-1.7C45.4,25.9,44.6,25.7,43.6,25.7z"/>
		<path class="st10" d="M42.5,21.2l0.2-0.3c0.2,0.2,0.3,0.5,0.3,0.9c0,0.5-0.1,0.9-0.5,1.2c-0.3,0.3-0.7,0.5-1.3,0.5
			c-0.6,0-1.1-0.2-1.4-0.5l0.2-0.3c0.3,0.3,0.7,0.4,1.2,0.4c0.5,0,0.8-0.1,1.1-0.4c0.2-0.2,0.3-0.5,0.3-0.9
			C42.6,21.5,42.6,21.3,42.5,21.2z M49.8,21.3c0,0.7-0.2,1.2-0.6,1.6c-0.4,0.5-1,0.8-1.8,0.9c-0.2,0-0.4,0.3-0.4,0.6
			c0,0.2,0.1,0.3,0.2,0.5l0.2-0.3c0,0-0.1-0.1-0.1-0.2c0-0.1,0.1-0.2,0.1-0.2c0.9-0.2,1.5-0.5,2-1c0.5-0.5,0.7-1.1,0.7-1.9
			c0-0.8-0.2-1.5-0.7-2.1l-0.2,0.3C49.6,20,49.8,20.6,49.8,21.3z M46.1,25.7c-0.5-0.4-1.2-0.6-2-0.6l0,0l-0.3,0.4l0,0
			c1,0,1.7,0.2,2.2,0.6c0.1,0.1,0.2,0.2,0.3,0.3l0.2-0.3C46.4,26,46.2,25.8,46.1,25.7z M42.5,28.1c0,0.3-0.1,0.6-0.3,0.8
			c-0.2,0.2-0.6,0.3-1,0.3c-0.2,0-0.4,0.2-0.5,0.4c-0.1,0.2,0,0.4,0.1,0.6l0.2-0.3c0-0.1,0-0.1,0-0.2c0-0.1,0.1-0.1,0.2-0.1
			c0.5,0,0.9-0.1,1.2-0.4c0.3-0.3,0.4-0.6,0.4-1.1c0-0.4-0.1-0.8-0.4-1.1l-0.2,0.3C42.4,27.5,42.5,27.8,42.5,28.1z M50,26.2
			l-0.2,0.3c0.4,0.5,0.5,1,0.5,1.7c0,1.3-0.5,2.2-1.4,2.9c-1,0.7-2.6,1.1-4.6,1.1c-1.6,0-2.9-0.3-3.8-1c-0.3-0.2-0.5-0.4-0.7-0.6
			l-0.2,0.3c0.2,0.2,0.4,0.5,0.7,0.7c1,0.7,2.3,1,4,1c2.1,0,3.7-0.4,4.8-1.1c1.1-0.7,1.6-1.8,1.6-3.2C50.7,27.3,50.5,26.7,50,26.2z
			 M45.8,19.5c-0.6-0.5-1.3-0.7-2.2-0.7c-0.5,0-1,0.1-1.4,0.2c-0.4,0.2-0.8,0.4-1.1,0.7c-0.2,0.2-0.2,0.4-0.2,0.7
			c0,0.1,0.1,0.2,0.1,0.2l0.2-0.3c0,0,0,0,0-0.1c0-0.1,0-0.2,0.1-0.2c0.3-0.3,0.7-0.5,1-0.6c0.4-0.1,0.8-0.2,1.3-0.2
			c0.9,0,1.5,0.2,2.1,0.6c0.1,0.1,0.2,0.2,0.3,0.3l0.2-0.3C46.1,19.7,45.9,19.6,45.8,19.5z M30.3,30.1L30,30.4
			c-0.2-0.2-0.3-0.5-0.4-0.8c-0.4-1-0.6-2.4-0.6-4.5c0-2.1,0.2-3.5,0.6-4.5c0.4-1.1,1.1-1.6,2.1-1.6c0.6,0,1.2,0.3,1.6,0.8L33,20
			c-0.3-0.4-0.8-0.7-1.4-0.7c-0.8,0-1.4,0.5-1.8,1.4c-0.4,0.9-0.5,2.3-0.5,4.3c0,2,0.2,3.4,0.5,4.3C30,29.7,30.1,29.9,30.3,30.1z
			 M35.9,19.8L35.7,20c1,1.3,1.5,2.9,1.5,5c0,2.1-0.5,3.8-1.5,5.1c-1,1.3-2.4,1.9-4,1.9c-1.7,0-3-0.6-4-1.9v0l-0.2,0.3c0,0,0,0,0,0
			c1.1,1.3,2.5,2,4.2,2c1.7,0,3.2-0.7,4.2-2c1.1-1.3,1.6-3.1,1.6-5.4C37.5,22.9,37,21.1,35.9,19.8z"/>
	</g>
	<rect x="10" class="st11" width="300" height="207.3"/>
	<g>
		<polygon class="st1" points="10,195.5 0,182.4 10,182.4 		"/>
		<polygon class="st1" points="310,195.5 320,182.4 310,182.4 		"/>
		<rect x="10" y="175.3" class="st13" width="300" height="12.4"/>
	</g>
	<g>
		<rect y="53.8" class="st2" width="320" height="128.9"/>
		<g>
			<g>
				<path class="st1" d="M30.5,80.5c0,2.2-1.6,3.6-4.3,3.6h-2.5v3.1h-1.5V76.9h4C28.9,76.9,30.5,78.2,30.5,80.5z M29,80.5
					c0-1.5-1-2.3-2.9-2.3h-2.5v4.6h2.5C28.1,82.8,29,82,29,80.5z"/>
				<path class="st1" d="M31.9,83.3c0-2.3,1.7-4,4.1-4c2.3,0,4,1.6,4,4c0,2.3-1.7,4-4,4C33.6,87.3,31.9,85.6,31.9,83.3z M38.6,83.3
					c0-1.7-1.1-2.7-2.6-2.7s-2.6,1.1-2.6,2.7c0,1.7,1.1,2.8,2.6,2.8S38.6,85,38.6,83.3z"/>
				<path class="st1" d="M41.1,86.4l0.6-1.1c0.7,0.5,1.7,0.8,2.7,0.8c1.3,0,1.9-0.4,1.9-1.1c0-1.8-4.9-0.2-4.9-3.3
					c0-1.4,1.3-2.3,3.3-2.3c1,0,2.2,0.3,2.8,0.7l-0.6,1.1c-0.7-0.5-1.5-0.6-2.3-0.6c-1.2,0-1.8,0.5-1.8,1.1c0,1.8,4.9,0.3,4.9,3.4
					c0,1.4-1.3,2.3-3.4,2.3C43,87.3,41.7,86.9,41.1,86.4z"/>
				<path class="st1" d="M54,86.7c-0.4,0.4-1.1,0.5-1.7,0.5c-1.6,0-2.5-0.9-2.5-2.4v-4.3h-1.3v-1.2h1.3v-1.7h1.4v1.7h2.2v1.2h-2.2
					v4.2c0,0.8,0.4,1.3,1.2,1.3c0.4,0,0.8-0.1,1.1-0.4L54,86.7z"/>
				<path class="st1" d="M66.7,84.6h-5.5l-1.1,2.6h-1.5l4.7-10.3h1.5l4.7,10.3h-1.5L66.7,84.6z M66.2,83.4L64,78.4l-2.2,5.1H66.2z"
					/>
				<path class="st1" d="M78,79.4v7.8h-1.3V86c-0.6,0.8-1.5,1.3-2.7,1.3c-2,0-3.4-1.1-3.4-3.4v-4.5h1.4v4.3c0,1.5,0.8,2.3,2.1,2.3
					c1.5,0,2.4-0.9,2.4-2.6v-4H78z"/>
				<path class="st1" d="M85.2,86.7c-0.4,0.4-1.1,0.5-1.7,0.5c-1.6,0-2.5-0.9-2.5-2.4v-4.3h-1.3v-1.2h1.3v-1.7h1.4v1.7h2.2v1.2h-2.2
					v4.2c0,0.8,0.4,1.3,1.2,1.3c0.4,0,0.8-0.1,1.1-0.4L85.2,86.7z"/>
				<path class="st1" d="M94.5,82.7v4.5h-1.4v-4.3c0-1.5-0.8-2.3-2.1-2.3c-1.5,0-2.5,0.9-2.5,2.6v4h-1.4V76.3h1.4v4.2
					c0.6-0.8,1.6-1.2,2.8-1.2C93.2,79.3,94.5,80.4,94.5,82.7z"/>
				<path class="st1" d="M96.6,83.3c0-2.3,1.7-4,4.1-4c2.3,0,4,1.6,4,4c0,2.3-1.7,4-4,4C98.3,87.3,96.6,85.6,96.6,83.3z M103.3,83.3
					c0-1.7-1.1-2.7-2.6-2.7S98,81.6,98,83.3c0,1.7,1.1,2.8,2.6,2.8S103.3,85,103.3,83.3z"/>
				<path class="st1" d="M111,79.3v1.4c-0.1,0-0.2,0-0.3,0c-1.5,0-2.5,0.9-2.5,2.6v3.9h-1.4v-7.8h1.4v1.3
					C108.7,79.8,109.6,79.3,111,79.3z"/>
				<path class="st1" d="M112.6,77c0-0.5,0.4-0.9,1-0.9s1,0.4,1,0.9c0,0.5-0.4,0.9-1,0.9C113.1,77.9,112.6,77.5,112.6,77z
					 M112.9,79.4h1.4v7.8h-1.4V79.4z"/>
				<path class="st1" d="M122.9,86v1.2h-6.5v-0.9l4.6-5.7h-4.5v-1.2h6.3v0.9l-4.6,5.7H122.9z"/>
				<path class="st1" d="M131.1,82.5v4.7h-1.3v-1c-0.5,0.7-1.3,1.1-2.6,1.1c-1.8,0-2.9-0.9-2.9-2.3c0-1.3,0.8-2.3,3.1-2.3h2.2v-0.3
					c0-1.2-0.7-1.9-2.1-1.9c-0.9,0-1.9,0.3-2.5,0.8l-0.6-1.1c0.8-0.6,2-1,3.2-1C129.9,79.3,131.1,80.3,131.1,82.5z M129.7,84.8v-1.1
					h-2.2c-1.4,0-1.8,0.5-1.8,1.2c0,0.8,0.6,1.3,1.7,1.3C128.5,86.2,129.4,85.7,129.7,84.8z"/>
				<path class="st1" d="M138.3,86.7c-0.4,0.4-1.1,0.5-1.7,0.5c-1.6,0-2.5-0.9-2.5-2.4v-4.3h-1.3v-1.2h1.3v-1.7h1.4v1.7h2.2v1.2
					h-2.2v4.2c0,0.8,0.4,1.3,1.2,1.3c0.4,0,0.8-0.1,1.1-0.4L138.3,86.7z"/>
				<path class="st1" d="M139.9,77c0-0.5,0.4-0.9,1-0.9s1,0.4,1,0.9c0,0.5-0.4,0.9-1,0.9C140.3,77.9,139.9,77.5,139.9,77z
					 M140.2,79.4h1.4v7.8h-1.4V79.4z"/>
				<path class="st1" d="M143.7,83.3c0-2.3,1.7-4,4.1-4c2.3,0,4,1.6,4,4c0,2.3-1.7,4-4,4C145.4,87.3,143.7,85.6,143.7,83.3z
					 M150.4,83.3c0-1.7-1.1-2.7-2.6-2.7s-2.6,1.1-2.6,2.7c0,1.7,1.1,2.8,2.6,2.8S150.4,85,150.4,83.3z"/>
				<path class="st1" d="M161.3,82.7v4.5h-1.4v-4.3c0-1.5-0.8-2.3-2.1-2.3c-1.5,0-2.5,0.9-2.5,2.6v4h-1.4v-7.8h1.4v1.2
					c0.6-0.8,1.6-1.3,2.8-1.3C160,79.3,161.3,80.4,161.3,82.7z"/>
			</g>
		</g>
		<g>
			<g>
				<path class="st7" d="M61.8,106.8v9.3h-0.8v-7.5l-3.3,7.5h-0.6l-3.3-7.4l0,7.4h-0.8v-9.3h0.7l3.7,8.4l3.6-8.4H61.8z"/>
				<path class="st7" d="M65.2,115.8c-0.5-0.3-0.8-0.7-1.1-1.2c-0.2-0.5-0.4-1.1-0.4-1.8c0-0.7,0.1-1.3,0.4-1.8
					c0.2-0.5,0.6-0.9,1.1-1.2c0.5-0.3,1-0.4,1.6-0.4c0.6,0,1.1,0.1,1.6,0.4c0.5,0.3,0.8,0.7,1.1,1.2c0.2,0.5,0.4,1.1,0.4,1.8
					c0,0.7-0.1,1.3-0.4,1.8c-0.2,0.5-0.6,0.9-1.1,1.2c-0.5,0.3-1,0.4-1.6,0.4C66.2,116.2,65.7,116.1,65.2,115.8z M68.4,114.8
					c0.4-0.5,0.6-1.1,0.6-2c0-0.9-0.2-1.5-0.6-2s-0.9-0.7-1.6-0.7c-0.7,0-1.2,0.2-1.6,0.7s-0.6,1.1-0.6,2c0,0.9,0.2,1.5,0.6,2
					c0.4,0.5,0.9,0.7,1.6,0.7S68,115.3,68.4,114.8z"/>
				<path class="st7" d="M77,111.9v4.2h-0.8V112c0-0.7-0.1-1.1-0.4-1.4c-0.3-0.3-0.7-0.5-1.2-0.5c-0.7,0-1.2,0.2-1.6,0.6
					c-0.4,0.4-0.6,0.9-0.6,1.6v3.8h-0.8v-4.7c0-0.7,0-1.3-0.1-1.8h0.8l0.1,1.2c0.2-0.4,0.5-0.8,0.9-1c0.4-0.2,0.9-0.3,1.4-0.3
					C76.2,109.4,77,110.2,77,111.9z"/>
				<path class="st7" d="M80.4,110.2v3.9c0,0.5,0.1,0.9,0.3,1.1c0.2,0.2,0.5,0.3,0.9,0.3c0.2,0,0.5,0,0.7-0.1v0.7
					c-0.3,0.1-0.6,0.1-0.9,0.1c-0.6,0-1-0.2-1.4-0.5s-0.5-0.8-0.5-1.5v-4.1h-1.3v-0.6h1.3v-1.7l0.8-0.3v2h1.9v0.6H80.4z"/>
				<path class="st7" d="M89.1,111.9v4.2h-0.8V112c0-0.7-0.1-1.1-0.4-1.4c-0.3-0.3-0.7-0.5-1.2-0.5c-0.7,0-1.2,0.2-1.6,0.6
					c-0.4,0.4-0.6,0.9-0.6,1.6v3.8h-0.8v-9.6h0.8v4.2c0.2-0.4,0.5-0.8,0.9-1s0.8-0.3,1.4-0.3C88.3,109.4,89.1,110.2,89.1,111.9z"/>
				<path class="st7" d="M91.3,106.5h0.8v9.6h-0.8V106.5z"/>
				<path class="st7" d="M100,109.5l-3.1,7.2c-0.3,0.7-0.7,1.2-1.1,1.6c-0.5,0.3-1,0.6-1.7,0.7l-0.2-0.6c0.6-0.1,1.1-0.3,1.4-0.6
					c0.3-0.2,0.6-0.6,0.8-1.1l0.3-0.6l-2.8-6.6h0.9l2.4,5.8l2.4-5.8H100z"/>
				<path class="st7" d="M106.5,115.6c-0.6-0.4-1.1-0.9-1.5-1.6c-0.3-0.7-0.5-1.6-0.5-2.6c0-1,0.2-1.8,0.5-2.5
					c0.3-0.7,0.8-1.3,1.5-1.6c0.6-0.4,1.4-0.6,2.3-0.6c0.6,0,1.2,0.1,1.8,0.3c0.5,0.2,1,0.5,1.4,0.9l-0.3,0.6
					c-0.4-0.4-0.9-0.7-1.3-0.9c-0.4-0.2-0.9-0.3-1.5-0.3c-1.1,0-1.9,0.4-2.5,1.1c-0.6,0.7-0.9,1.7-0.9,3c0,1.3,0.3,2.3,0.9,3
					c0.6,0.7,1.4,1.1,2.5,1.1c0.5,0,1-0.1,1.5-0.3c0.4-0.2,0.9-0.5,1.3-0.9l0.3,0.6c-0.4,0.4-0.9,0.7-1.4,0.9
					c-0.5,0.2-1.1,0.3-1.8,0.3C107.9,116.2,107.1,116,106.5,115.6z"/>
				<path class="st7" d="M114.6,115.8c-0.5-0.3-0.8-0.7-1.1-1.2c-0.2-0.5-0.4-1.1-0.4-1.8c0-0.7,0.1-1.3,0.4-1.8
					c0.2-0.5,0.6-0.9,1.1-1.2c0.5-0.3,1-0.4,1.6-0.4c0.6,0,1.1,0.1,1.6,0.4c0.5,0.3,0.8,0.7,1.1,1.2c0.2,0.5,0.4,1.1,0.4,1.8
					c0,0.7-0.1,1.3-0.4,1.8c-0.2,0.5-0.6,0.9-1.1,1.2c-0.5,0.3-1,0.4-1.6,0.4C115.6,116.2,115.1,116.1,114.6,115.8z M117.8,114.8
					c0.4-0.5,0.6-1.1,0.6-2c0-0.9-0.2-1.5-0.6-2s-0.9-0.7-1.6-0.7c-0.7,0-1.2,0.2-1.6,0.7s-0.6,1.1-0.6,2c0,0.9,0.2,1.5,0.6,2
					c0.4,0.5,0.9,0.7,1.6,0.7S117.5,115.3,117.8,114.8z"/>
				<path class="st7" d="M126.5,111.9v4.2h-0.8V112c0-0.7-0.1-1.1-0.4-1.4c-0.3-0.3-0.7-0.5-1.2-0.5c-0.7,0-1.2,0.2-1.6,0.6
					c-0.4,0.4-0.6,0.9-0.6,1.6v3.8H121v-4.7c0-0.7,0-1.3-0.1-1.8h0.8l0.1,1.2c0.2-0.4,0.5-0.8,0.9-1c0.4-0.2,0.9-0.3,1.4-0.3
					C125.7,109.4,126.5,110.2,126.5,111.9z"/>
				<path class="st7" d="M129.8,110.2v3.9c0,0.5,0.1,0.9,0.3,1.1c0.2,0.2,0.5,0.3,0.9,0.3c0.2,0,0.5,0,0.7-0.1v0.7
					c-0.3,0.1-0.6,0.1-0.9,0.1c-0.6,0-1-0.2-1.4-0.5s-0.5-0.8-0.5-1.5v-4.1h-1.3v-0.6h1.3v-1.7l0.8-0.3v2h1.9v0.6H129.8z"/>
				<path class="st7" d="M134.1,106.8v1H133v-1H134.1z M133.1,109.5h0.8v6.6h-0.8V109.5z"/>
				<path class="st7" d="M141.6,111.9v4.2h-0.8V112c0-0.7-0.1-1.1-0.4-1.4c-0.3-0.3-0.7-0.5-1.2-0.5c-0.7,0-1.2,0.2-1.6,0.6
					c-0.4,0.4-0.6,0.9-0.6,1.6v3.8h-0.8v-4.7c0-0.7,0-1.3-0.1-1.8h0.8l0.1,1.2c0.2-0.4,0.5-0.8,0.9-1c0.4-0.2,0.9-0.3,1.4-0.3
					C140.8,109.4,141.6,110.2,141.6,111.9z"/>
				<path class="st7" d="M149.1,109.5v6.6h-0.8v-1.2c-0.2,0.4-0.5,0.7-0.9,1c-0.4,0.2-0.8,0.3-1.3,0.3c-0.8,0-1.3-0.2-1.7-0.6
					c-0.4-0.4-0.6-1.1-0.6-1.9v-4.1h0.8v4.1c0,0.6,0.1,1.1,0.4,1.4c0.3,0.3,0.7,0.5,1.2,0.5c0.6,0,1.2-0.2,1.5-0.6s0.6-0.9,0.6-1.6
					v-3.7H149.1z"/>
				<path class="st7" d="M152.4,115.8c-0.5-0.3-0.8-0.7-1.1-1.2c-0.2-0.5-0.4-1.1-0.4-1.8c0-0.7,0.1-1.3,0.4-1.8
					c0.2-0.5,0.6-0.9,1.1-1.2c0.5-0.3,1-0.4,1.6-0.4c0.6,0,1.1,0.1,1.6,0.4c0.5,0.3,0.8,0.7,1.1,1.2c0.2,0.5,0.4,1.1,0.4,1.8
					c0,0.7-0.1,1.3-0.4,1.8c-0.2,0.5-0.6,0.9-1.1,1.2c-0.5,0.3-1,0.4-1.6,0.4C153.3,116.2,152.8,116.1,152.4,115.8z M155.5,114.8
					c0.4-0.5,0.6-1.1,0.6-2c0-0.9-0.2-1.5-0.6-2s-0.9-0.7-1.6-0.7c-0.7,0-1.2,0.2-1.6,0.7s-0.6,1.1-0.6,2c0,0.9,0.2,1.5,0.6,2
					c0.4,0.5,0.9,0.7,1.6,0.7S155.2,115.3,155.5,114.8z"/>
				<path class="st7" d="M164,109.5v6.6h-0.8v-1.2c-0.2,0.4-0.5,0.7-0.9,1c-0.4,0.2-0.8,0.3-1.3,0.3c-0.8,0-1.3-0.2-1.7-0.6
					c-0.4-0.4-0.6-1.1-0.6-1.9v-4.1h0.8v4.1c0,0.6,0.1,1.1,0.4,1.4c0.3,0.3,0.7,0.5,1.2,0.5c0.6,0,1.2-0.2,1.5-0.6s0.6-0.9,0.6-1.6
					v-3.7H164z"/>
				<path class="st7" d="M165.9,115.3l0.3-0.6c0.3,0.3,0.7,0.5,1.1,0.6s0.8,0.2,1.2,0.2c0.5,0,1-0.1,1.2-0.3
					c0.3-0.2,0.4-0.5,0.4-0.8c0-0.3-0.1-0.5-0.3-0.7c-0.2-0.2-0.5-0.3-0.9-0.4l-1.1-0.2c-0.5-0.1-0.9-0.3-1.2-0.7
					c-0.3-0.3-0.5-0.7-0.5-1.1c0-0.6,0.2-1,0.7-1.4c0.4-0.3,1-0.5,1.8-0.5c0.5,0,0.9,0.1,1.3,0.2c0.4,0.1,0.7,0.4,1,0.6l-0.3,0.6
					c-0.6-0.5-1.3-0.8-2-0.8c-0.5,0-0.9,0.1-1.2,0.3s-0.4,0.5-0.4,0.8c0,0.3,0.1,0.5,0.3,0.7c0.2,0.2,0.5,0.3,0.8,0.4l1.1,0.3
					c1.2,0.3,1.8,0.8,1.8,1.7c0,0.5-0.2,1-0.7,1.3s-1.1,0.5-1.8,0.5C167.3,116.2,166.5,115.9,165.9,115.3z"/>
				<path class="st7" d="M185,106.8v9.3h-0.8v-7.5l-3.3,7.5h-0.6l-3.3-7.4l0,7.4h-0.8v-9.3h0.7l3.7,8.4l3.6-8.4H185z"/>
				<path class="st7" d="M188.4,115.8c-0.5-0.3-0.8-0.7-1.1-1.2c-0.2-0.5-0.4-1.1-0.4-1.8c0-0.7,0.1-1.3,0.4-1.8
					c0.2-0.5,0.6-0.9,1.1-1.2c0.5-0.3,1-0.4,1.6-0.4c0.6,0,1.1,0.1,1.6,0.4c0.5,0.3,0.8,0.7,1.1,1.2c0.2,0.5,0.4,1.1,0.4,1.8
					c0,0.7-0.1,1.3-0.4,1.8c-0.2,0.5-0.6,0.9-1.1,1.2c-0.5,0.3-1,0.4-1.6,0.4C189.4,116.2,188.8,116.1,188.4,115.8z M191.6,114.8
					c0.4-0.5,0.6-1.1,0.6-2c0-0.9-0.2-1.5-0.6-2s-0.9-0.7-1.6-0.7c-0.7,0-1.2,0.2-1.6,0.7s-0.6,1.1-0.6,2c0,0.9,0.2,1.5,0.6,2
					c0.4,0.5,0.9,0.7,1.6,0.7S191.2,115.3,191.6,114.8z"/>
				<path class="st7" d="M200.2,111.9v4.2h-0.8V112c0-0.7-0.1-1.1-0.4-1.4c-0.3-0.3-0.7-0.5-1.2-0.5c-0.7,0-1.2,0.2-1.6,0.6
					c-0.4,0.4-0.6,0.9-0.6,1.6v3.8h-0.8v-4.7c0-0.7,0-1.3-0.1-1.8h0.8l0.1,1.2c0.2-0.4,0.5-0.8,0.9-1c0.4-0.2,0.9-0.3,1.4-0.3
					C199.4,109.4,200.2,110.2,200.2,111.9z"/>
				<path class="st7" d="M203.4,106.8v1h-1.1v-1H203.4z M202.4,109.5h0.8v6.6h-0.8V109.5z"/>
				<path class="st7" d="M206.6,110.2v3.9c0,0.5,0.1,0.9,0.3,1.1c0.2,0.2,0.5,0.3,0.9,0.3c0.2,0,0.5,0,0.7-0.1v0.7
					c-0.3,0.1-0.6,0.1-0.9,0.1c-0.6,0-1-0.2-1.4-0.5s-0.5-0.8-0.5-1.5v-4.1h-1.3v-0.6h1.3v-1.7l0.8-0.3v2h1.9v0.6H206.6z"/>
				<path class="st7" d="M211,115.8c-0.5-0.3-0.8-0.7-1.1-1.2c-0.2-0.5-0.4-1.1-0.4-1.8c0-0.7,0.1-1.3,0.4-1.8
					c0.2-0.5,0.6-0.9,1.1-1.2c0.5-0.3,1-0.4,1.6-0.4c0.6,0,1.1,0.1,1.6,0.4c0.5,0.3,0.8,0.7,1.1,1.2c0.2,0.5,0.4,1.1,0.4,1.8
					c0,0.7-0.1,1.3-0.4,1.8c-0.2,0.5-0.6,0.9-1.1,1.2c-0.5,0.3-1,0.4-1.6,0.4C211.9,116.2,211.4,116.1,211,115.8z M214.2,114.8
					c0.4-0.5,0.6-1.1,0.6-2c0-0.9-0.2-1.5-0.6-2s-0.9-0.7-1.6-0.7c-0.7,0-1.2,0.2-1.6,0.7s-0.6,1.1-0.6,2c0,0.9,0.2,1.5,0.6,2
					c0.4,0.5,0.9,0.7,1.6,0.7S213.8,115.3,214.2,114.8z"/>
				<path class="st7" d="M220.8,109.4l0,0.7c-0.2,0-0.4-0.1-0.6-0.1c-0.7,0-1.2,0.2-1.5,0.6s-0.5,0.9-0.5,1.5v3.8h-0.8v-4.7
					c0-0.7,0-1.3-0.1-1.8h0.8l0.1,1.2c0.2-0.4,0.4-0.8,0.8-1c0.4-0.2,0.8-0.4,1.3-0.4C220.4,109.4,220.6,109.4,220.8,109.4z"/>
				<path class="st7" d="M222.9,106.8v1h-1.1v-1H222.9z M222,109.5h0.8v6.6H222V109.5z"/>
				<path class="st7" d="M230.5,111.9v4.2h-0.8V112c0-0.7-0.1-1.1-0.4-1.4c-0.3-0.3-0.7-0.5-1.2-0.5c-0.7,0-1.2,0.2-1.6,0.6
					c-0.4,0.4-0.6,0.9-0.6,1.6v3.8H225v-4.7c0-0.7,0-1.3-0.1-1.8h0.8l0.1,1.2c0.2-0.4,0.5-0.8,0.9-1c0.4-0.2,0.9-0.3,1.4-0.3
					C229.7,109.4,230.5,110.2,230.5,111.9z"/>
				<path class="st7" d="M238.3,109.5v6.6c0,1-0.2,1.7-0.7,2.2c-0.5,0.5-1.2,0.7-2.1,0.7c-1,0-1.8-0.2-2.6-0.7l0.2-0.7
					c0.4,0.3,0.8,0.4,1.2,0.5c0.4,0.1,0.8,0.2,1.2,0.2c0.7,0,1.1-0.2,1.5-0.5c0.3-0.4,0.5-0.9,0.5-1.6v-1.7c-0.2,0.4-0.5,0.8-0.9,1
					c-0.4,0.2-0.9,0.4-1.4,0.4c-0.6,0-1.1-0.1-1.5-0.4s-0.8-0.7-1-1.2c-0.2-0.5-0.4-1.1-0.4-1.7c0-0.6,0.1-1.2,0.4-1.7
					c0.2-0.5,0.6-0.9,1-1.1s1-0.4,1.5-0.4c0.5,0,1,0.1,1.4,0.3c0.4,0.2,0.7,0.6,0.9,1v-1.2H238.3z M236.9,114.5
					c0.4-0.5,0.6-1.1,0.6-1.9c0-0.8-0.2-1.4-0.6-1.9c-0.4-0.5-0.9-0.7-1.6-0.7c-0.7,0-1.2,0.2-1.6,0.7c-0.4,0.5-0.6,1.1-0.6,1.9
					s0.2,1.4,0.6,1.9c0.4,0.4,0.9,0.7,1.6,0.7C236,115.2,236.5,115,236.9,114.5z"/>
				<path class="st7" d="M53.1,123.1h3c1.5,0,2.6,0.4,3.4,1.2s1.2,1.9,1.2,3.4c0,1.5-0.4,2.6-1.2,3.5c-0.8,0.8-1.9,1.2-3.4,1.2h-3
					V123.1z M56.1,131.8c1.3,0,2.2-0.3,2.9-1c0.6-0.7,1-1.7,1-3c0-2.6-1.3-3.9-3.8-3.9H54v7.9H56.1z"/>
				<path class="st7" d="M63.2,129.1L63.2,129.1c0,0.9,0.2,1.6,0.6,2.1c0.4,0.5,1,0.7,1.8,0.7c0.8,0,1.5-0.3,2.2-0.8l0.3,0.6
					c-0.3,0.3-0.7,0.5-1.1,0.6c-0.4,0.2-0.9,0.2-1.4,0.2c-1,0-1.8-0.3-2.4-0.9s-0.9-1.4-0.9-2.5c0-0.7,0.1-1.3,0.4-1.8
					c0.3-0.5,0.6-0.9,1.1-1.2c0.5-0.3,1-0.4,1.6-0.4c0.9,0,1.5,0.3,2,0.8c0.5,0.6,0.7,1.3,0.7,2.3v0.2H63.2z M63.9,126.9
					c-0.4,0.4-0.6,0.9-0.7,1.5h4.2c-0.1-0.7-0.2-1.2-0.6-1.5c-0.3-0.4-0.8-0.5-1.4-0.5C64.8,126.4,64.3,126.6,63.9,126.9z"/>
				<path class="st7" d="M69.9,122.8h0.8v9.6h-0.8V122.8z"/>
				<path class="st7" d="M73.9,123.2v1h-1.1v-1H73.9z M73,125.9h0.8v6.6H73V125.9z"/>
				<path class="st7" d="M81.6,125.9l-2.8,6.6H78l-2.8-6.6H76l2.4,5.8l2.4-5.8H81.6z"/>
				<path class="st7" d="M83.3,129.1L83.3,129.1c0,0.9,0.2,1.6,0.6,2.1c0.4,0.5,1,0.7,1.8,0.7c0.8,0,1.5-0.3,2.2-0.8l0.3,0.6
					c-0.3,0.3-0.7,0.5-1.1,0.6c-0.4,0.2-0.9,0.2-1.4,0.2c-1,0-1.8-0.3-2.4-0.9s-0.9-1.4-0.9-2.5c0-0.7,0.1-1.3,0.4-1.8
					c0.3-0.5,0.6-0.9,1.1-1.2c0.5-0.3,1-0.4,1.6-0.4c0.9,0,1.5,0.3,2,0.8c0.5,0.6,0.7,1.3,0.7,2.3v0.2H83.3z M84.1,126.9
					c-0.4,0.4-0.6,0.9-0.7,1.5h4.2c-0.1-0.7-0.2-1.2-0.6-1.5c-0.3-0.4-0.8-0.5-1.4-0.5C84.9,126.4,84.5,126.6,84.1,126.9z"/>
				<path class="st7" d="M93.5,125.8l0,0.7c-0.2,0-0.4-0.1-0.6-0.1c-0.7,0-1.2,0.2-1.5,0.6s-0.5,0.9-0.5,1.5v3.8h-0.8v-4.7
					c0-0.7,0-1.3-0.1-1.8h0.8l0.1,1.2c0.2-0.4,0.4-0.8,0.8-1c0.4-0.2,0.8-0.4,1.3-0.4C93.1,125.7,93.3,125.8,93.5,125.8z"/>
				<path class="st7" d="M100.1,125.9v6.6h-0.8v-1.3c-0.2,0.4-0.5,0.8-0.9,1c-0.4,0.2-0.9,0.3-1.4,0.3c-0.6,0-1.1-0.1-1.5-0.4
					s-0.8-0.7-1-1.2s-0.4-1.1-0.4-1.8s0.1-1.3,0.4-1.8s0.6-0.9,1-1.2s0.9-0.4,1.5-0.4c0.5,0,1,0.1,1.4,0.3c0.4,0.2,0.7,0.6,0.9,1
					v-1.2H100.1z M98.8,131.1c0.4-0.5,0.6-1.1,0.6-2c0-0.9-0.2-1.5-0.6-2s-0.9-0.7-1.6-0.7s-1.2,0.2-1.6,0.7s-0.6,1.2-0.6,2
					c0,0.8,0.2,1.5,0.6,2s0.9,0.7,1.6,0.7C97.9,131.8,98.4,131.6,98.8,131.1z"/>
				<path class="st7" d="M107,126.2c0.4,0.3,0.8,0.7,1,1.2c0.2,0.5,0.4,1.1,0.4,1.8s-0.1,1.3-0.4,1.8s-0.6,0.9-1,1.2
					c-0.4,0.3-0.9,0.4-1.5,0.4c-0.5,0-1-0.1-1.4-0.4c-0.4-0.2-0.7-0.6-0.9-1v1.3h-0.8v-9.6h0.8v4.3c0.2-0.5,0.5-0.8,0.9-1
					c0.4-0.2,0.9-0.4,1.4-0.4C106,125.7,106.5,125.9,107,126.2z M106.9,131.1c0.4-0.5,0.6-1.1,0.6-2c0-0.8-0.2-1.5-0.6-2
					c-0.4-0.5-0.9-0.7-1.6-0.7s-1.2,0.2-1.6,0.7s-0.6,1.1-0.6,2s0.2,1.5,0.6,2s0.9,0.7,1.6,0.7C106,131.8,106.6,131.6,106.9,131.1z"
					/>
				<path class="st7" d="M110.2,122.8h0.8v9.6h-0.8V122.8z"/>
				<path class="st7" d="M113.6,129.1L113.6,129.1c0,0.9,0.2,1.6,0.6,2.1c0.4,0.5,1,0.7,1.8,0.7c0.8,0,1.5-0.3,2.2-0.8l0.3,0.6
					c-0.3,0.3-0.7,0.5-1.1,0.6c-0.4,0.2-0.9,0.2-1.4,0.2c-1,0-1.8-0.3-2.4-0.9s-0.9-1.4-0.9-2.5c0-0.7,0.1-1.3,0.4-1.8
					c0.3-0.5,0.6-0.9,1.1-1.2c0.5-0.3,1-0.4,1.6-0.4c0.9,0,1.5,0.3,2,0.8c0.5,0.6,0.7,1.3,0.7,2.3v0.2H113.6z M114.4,126.9
					c-0.4,0.4-0.6,0.9-0.7,1.5h4.2c-0.1-0.7-0.2-1.2-0.6-1.5c-0.3-0.4-0.8-0.5-1.4-0.5C115.3,126.4,114.8,126.6,114.4,126.9z"/>
				<path class="st7" d="M120,131.7l0.3-0.6c0.3,0.3,0.7,0.5,1.1,0.6s0.8,0.2,1.2,0.2c0.5,0,1-0.1,1.2-0.3c0.3-0.2,0.4-0.5,0.4-0.8
					c0-0.3-0.1-0.5-0.3-0.7c-0.2-0.2-0.5-0.3-0.9-0.4l-1.1-0.2c-0.5-0.1-0.9-0.3-1.2-0.7c-0.3-0.3-0.5-0.7-0.5-1.1
					c0-0.6,0.2-1,0.7-1.4c0.4-0.3,1-0.5,1.8-0.5c0.5,0,0.9,0.1,1.3,0.2c0.4,0.1,0.7,0.4,1,0.6l-0.3,0.6c-0.6-0.5-1.3-0.8-2-0.8
					c-0.5,0-0.9,0.1-1.2,0.3s-0.4,0.5-0.4,0.8c0,0.3,0.1,0.5,0.3,0.7c0.2,0.2,0.5,0.3,0.8,0.4l1.1,0.3c1.2,0.3,1.8,0.8,1.8,1.7
					c0,0.5-0.2,1-0.7,1.3s-1.1,0.5-1.8,0.5C121.5,132.6,120.6,132.3,120,131.7z"/>
				<path class="st7" d="M59.2,154.5h-5l-1.1,2.5h-0.8l4.1-9.3h0.7l4,9.3h-0.8L59.2,154.5z M58.9,153.8l-2.2-5.1l-2.2,5.1H58.9z"/>
				<path class="st7" d="M68,152.8v4.2h-0.8v-4.1c0-0.7-0.1-1.1-0.4-1.4c-0.3-0.3-0.7-0.5-1.2-0.5c-0.7,0-1.2,0.2-1.6,0.6
					c-0.4,0.4-0.6,0.9-0.6,1.6v3.8h-0.8v-4.7c0-0.7,0-1.3-0.1-1.8h0.8l0.1,1.2c0.2-0.4,0.5-0.8,0.9-1c0.4-0.2,0.9-0.3,1.4-0.3
					C67.2,150.3,68,151.1,68,152.8z"/>
				<path class="st7" d="M75.7,152.8v4.2h-0.8v-4.1c0-0.7-0.1-1.1-0.4-1.4c-0.3-0.3-0.7-0.5-1.2-0.5c-0.7,0-1.2,0.2-1.6,0.6
					c-0.4,0.4-0.6,0.9-0.6,1.6v3.8h-0.8v-4.7c0-0.7,0-1.3-0.1-1.8h0.8l0.1,1.2c0.2-0.4,0.5-0.8,0.9-1c0.4-0.2,0.9-0.3,1.4-0.3
					C74.9,150.3,75.7,151.1,75.7,152.8z"/>
				<path class="st7" d="M83.1,150.4v6.6h-0.8v-1.2c-0.2,0.4-0.5,0.7-0.9,1c-0.4,0.2-0.8,0.3-1.3,0.3c-0.8,0-1.3-0.2-1.7-0.6
					c-0.4-0.4-0.6-1.1-0.6-1.9v-4.1h0.8v4.1c0,0.6,0.1,1.1,0.4,1.4c0.3,0.3,0.7,0.5,1.2,0.5c0.6,0,1.2-0.2,1.5-0.6s0.6-0.9,0.6-1.6
					v-3.7H83.1z"/>
				<path class="st7" d="M90.9,150.4v6.6h-0.8v-1.3c-0.2,0.4-0.5,0.8-0.9,1c-0.4,0.2-0.9,0.3-1.4,0.3c-0.6,0-1.1-0.1-1.5-0.4
					s-0.8-0.7-1-1.2s-0.4-1.1-0.4-1.8s0.1-1.3,0.4-1.8s0.6-0.9,1-1.2s0.9-0.4,1.5-0.4c0.5,0,1,0.1,1.4,0.3c0.4,0.2,0.7,0.6,0.9,1
					v-1.2H90.9z M89.6,155.7c0.4-0.5,0.6-1.1,0.6-2c0-0.9-0.2-1.5-0.6-2S88.7,151,88,151s-1.2,0.2-1.6,0.7s-0.6,1.2-0.6,2
					c0,0.8,0.2,1.5,0.6,2s0.9,0.7,1.6,0.7C88.7,156.4,89.2,156.2,89.6,155.7z"/>
				<path class="st7" d="M93.2,147.4H94v9.6h-0.8V147.4z"/>
				<path class="st7" d="M105.8,154.5h-5l-1.1,2.5h-0.8l4.1-9.3h0.7l4,9.3h-0.8L105.8,154.5z M105.5,153.8l-2.2-5.1l-2.2,5.1H105.5z
					"/>
				<path class="st7" d="M108.8,156.2l0.3-0.6c0.3,0.3,0.7,0.5,1.1,0.6s0.8,0.2,1.2,0.2c0.5,0,1-0.1,1.2-0.3
					c0.3-0.2,0.4-0.5,0.4-0.8c0-0.3-0.1-0.5-0.3-0.7c-0.2-0.2-0.5-0.3-0.9-0.4l-1.1-0.2c-0.5-0.1-0.9-0.3-1.2-0.7
					c-0.3-0.3-0.5-0.7-0.5-1.1c0-0.6,0.2-1,0.7-1.4c0.4-0.3,1-0.5,1.8-0.5c0.5,0,0.9,0.1,1.3,0.2c0.4,0.1,0.7,0.4,1,0.6l-0.3,0.6
					c-0.6-0.5-1.3-0.8-2-0.8c-0.5,0-0.9,0.1-1.2,0.3s-0.4,0.5-0.4,0.8c0,0.3,0.1,0.5,0.3,0.7c0.2,0.2,0.5,0.3,0.8,0.4l1.1,0.3
					c1.2,0.3,1.8,0.8,1.8,1.7c0,0.5-0.2,1-0.7,1.3s-1.1,0.5-1.8,0.5C110.2,157.1,109.4,156.8,108.8,156.2z"/>
				<path class="st7" d="M115.3,156.2l0.3-0.6c0.3,0.3,0.7,0.5,1.1,0.6s0.8,0.2,1.2,0.2c0.5,0,1-0.1,1.2-0.3
					c0.3-0.2,0.4-0.5,0.4-0.8c0-0.3-0.1-0.5-0.3-0.7c-0.2-0.2-0.5-0.3-0.9-0.4l-1.1-0.2c-0.5-0.1-0.9-0.3-1.2-0.7
					c-0.3-0.3-0.5-0.7-0.5-1.1c0-0.6,0.2-1,0.7-1.4c0.4-0.3,1-0.5,1.8-0.5c0.5,0,0.9,0.1,1.3,0.2c0.4,0.1,0.7,0.4,1,0.6l-0.3,0.6
					c-0.6-0.5-1.3-0.8-2-0.8c-0.5,0-0.9,0.1-1.2,0.3s-0.4,0.5-0.4,0.8c0,0.3,0.1,0.5,0.3,0.7c0.2,0.2,0.5,0.3,0.8,0.4l1.1,0.3
					c1.2,0.3,1.8,0.8,1.8,1.7c0,0.5-0.2,1-0.7,1.3s-1.1,0.5-1.8,0.5C116.7,157.1,115.9,156.8,115.3,156.2z"/>
				<path class="st7" d="M122.6,153.6L122.6,153.6c0,0.9,0.2,1.6,0.6,2.1c0.4,0.5,1,0.7,1.8,0.7c0.8,0,1.5-0.3,2.2-0.8l0.3,0.6
					c-0.3,0.3-0.7,0.5-1.1,0.6c-0.4,0.2-0.9,0.2-1.4,0.2c-1,0-1.8-0.3-2.4-0.9s-0.9-1.4-0.9-2.5c0-0.7,0.1-1.3,0.4-1.8
					c0.3-0.5,0.6-0.9,1.1-1.2c0.5-0.3,1-0.4,1.6-0.4c0.9,0,1.5,0.3,2,0.8c0.5,0.6,0.7,1.3,0.7,2.3v0.2H122.6z M123.4,151.5
					c-0.4,0.4-0.6,0.9-0.7,1.5h4.2c-0.1-0.7-0.2-1.2-0.6-1.5c-0.3-0.4-0.8-0.5-1.4-0.5C124.2,150.9,123.8,151.1,123.4,151.5z"/>
				<path class="st7" d="M129,156.2l0.3-0.6c0.3,0.3,0.7,0.5,1.1,0.6s0.8,0.2,1.2,0.2c0.5,0,1-0.1,1.2-0.3c0.3-0.2,0.4-0.5,0.4-0.8
					c0-0.3-0.1-0.5-0.3-0.7c-0.2-0.2-0.5-0.3-0.9-0.4l-1.1-0.2c-0.5-0.1-0.9-0.3-1.2-0.7c-0.3-0.3-0.5-0.7-0.5-1.1
					c0-0.6,0.2-1,0.7-1.4c0.4-0.3,1-0.5,1.8-0.5c0.5,0,0.9,0.1,1.3,0.2c0.4,0.1,0.7,0.4,1,0.6l-0.3,0.6c-0.6-0.5-1.3-0.8-2-0.8
					c-0.5,0-0.9,0.1-1.2,0.3s-0.4,0.5-0.4,0.8c0,0.3,0.1,0.5,0.3,0.7c0.2,0.2,0.5,0.3,0.8,0.4l1.1,0.3c1.2,0.3,1.8,0.8,1.8,1.7
					c0,0.5-0.2,1-0.7,1.3s-1.1,0.5-1.8,0.5C130.4,157.1,129.6,156.8,129,156.2z"/>
				<path class="st7" d="M135.5,156.2l0.3-0.6c0.3,0.3,0.7,0.5,1.1,0.6s0.8,0.2,1.2,0.2c0.5,0,1-0.1,1.2-0.3
					c0.3-0.2,0.4-0.5,0.4-0.8c0-0.3-0.1-0.5-0.3-0.7c-0.2-0.2-0.5-0.3-0.9-0.4l-1.1-0.2c-0.5-0.1-0.9-0.3-1.2-0.7
					c-0.3-0.3-0.5-0.7-0.5-1.1c0-0.6,0.2-1,0.7-1.4c0.4-0.3,1-0.5,1.8-0.5c0.5,0,0.9,0.1,1.3,0.2c0.4,0.1,0.7,0.4,1,0.6l-0.3,0.6
					c-0.6-0.5-1.3-0.8-2-0.8c-0.5,0-0.9,0.1-1.2,0.3s-0.4,0.5-0.4,0.8c0,0.3,0.1,0.5,0.3,0.7c0.2,0.2,0.5,0.3,0.8,0.4l1.1,0.3
					c1.2,0.3,1.8,0.8,1.8,1.7c0,0.5-0.2,1-0.7,1.3s-1.1,0.5-1.8,0.5C137,157.1,136.1,156.8,135.5,156.2z"/>
				<path class="st7" d="M151.7,152.8v4.2h-0.8v-4.1c0-0.7-0.1-1.1-0.4-1.4c-0.2-0.3-0.6-0.5-1.1-0.5c-0.6,0-1.1,0.2-1.4,0.6
					c-0.3,0.4-0.5,0.9-0.5,1.6v3.8h-0.8v-4.1c0-0.7-0.1-1.1-0.4-1.4c-0.2-0.3-0.6-0.5-1.1-0.5c-0.6,0-1.1,0.2-1.4,0.6
					c-0.4,0.4-0.5,0.9-0.5,1.6v3.8h-0.8v-4.7c0-0.7,0-1.3-0.1-1.8h0.8l0.1,1.2c0.2-0.4,0.5-0.8,0.8-1c0.4-0.2,0.8-0.3,1.3-0.3
					c1.1,0,1.7,0.4,2,1.3c0.2-0.4,0.5-0.7,0.9-0.9c0.4-0.2,0.8-0.3,1.3-0.3C151,150.3,151.7,151.1,151.7,152.8z"/>
				<path class="st7" d="M154.3,153.6L154.3,153.6c0,0.9,0.2,1.6,0.6,2.1c0.4,0.5,1,0.7,1.8,0.7c0.8,0,1.5-0.3,2.2-0.8l0.3,0.6
					c-0.3,0.3-0.7,0.5-1.1,0.6c-0.4,0.2-0.9,0.2-1.4,0.2c-1,0-1.8-0.3-2.4-0.9s-0.9-1.4-0.9-2.5c0-0.7,0.1-1.3,0.4-1.8
					c0.3-0.5,0.6-0.9,1.1-1.2c0.5-0.3,1-0.4,1.6-0.4c0.9,0,1.5,0.3,2,0.8c0.5,0.6,0.7,1.3,0.7,2.3v0.2H154.3z M155.1,151.5
					c-0.4,0.4-0.6,0.9-0.7,1.5h4.2c-0.1-0.7-0.2-1.2-0.6-1.5c-0.3-0.4-0.8-0.5-1.4-0.5C155.9,150.9,155.4,151.1,155.1,151.5z"/>
				<path class="st7" d="M166.5,152.8v4.2h-0.8v-4.1c0-0.7-0.1-1.1-0.4-1.4c-0.3-0.3-0.7-0.5-1.2-0.5c-0.7,0-1.2,0.2-1.6,0.6
					c-0.4,0.4-0.6,0.9-0.6,1.6v3.8H161v-4.7c0-0.7,0-1.3-0.1-1.8h0.8l0.1,1.2c0.2-0.4,0.5-0.8,0.9-1c0.4-0.2,0.9-0.3,1.4-0.3
					C165.7,150.3,166.5,151.1,166.5,152.8z"/>
				<path class="st7" d="M169.8,151.1v3.9c0,0.5,0.1,0.9,0.3,1.1c0.2,0.2,0.5,0.3,0.9,0.3c0.2,0,0.5,0,0.7-0.1v0.7
					c-0.3,0.1-0.6,0.1-0.9,0.1c-0.6,0-1-0.2-1.4-0.5s-0.5-0.8-0.5-1.5v-4.1h-1.3v-0.6h1.3v-1.7l0.8-0.3v2h1.9v0.6H169.8z"/>
			</g>
		</g>
		<rect x="30.5" y="109.4" class="st1" width="0.8" height="37.5"/>
		<g>
			<g>
				<circle class="st1" cx="30.6" cy="111.3" r="9.9"/>
			</g>
			<g>
				<path class="st4" d="M32.6,108.7c-0.3,0-0.5-0.2-0.5-0.5v-3.3H27c-0.7,0-1.3,0.6-1.3,1.3v10.3c0,0.7,0.6,1.3,1.3,1.3h7.5
					c0.7,0,1.3-0.6,1.3-1.3v-7.9H32.6z"/>
			</g>
			<path class="st10" d="M32.6,108.7h3.3l-3.8-3.8v3.3C32.1,108.4,32.3,108.6,32.6,108.7z"/>
			<polygon class="st2" points="35.9,111.3 35.9,108.7 32.6,108.7 			"/>
		</g>
		<g>
			<g>
				<circle class="st1" cx="30.6" cy="152.9" r="9.9"/>
			</g>
			<g>
				<path class="st4" d="M32.6,150.2c-0.3,0-0.5-0.2-0.5-0.5v-3.3H27c-0.7,0-1.3,0.6-1.3,1.3v10.3c0,0.7,0.6,1.3,1.3,1.3h7.5
					c0.7,0,1.3-0.6,1.3-1.3v-7.9H32.6z"/>
			</g>
			<path class="st10" d="M32.6,150.2h3.3l-3.8-3.8v3.3C32.1,150,32.3,150.2,32.6,150.2z"/>
			<polygon class="st2" points="35.9,152.9 35.9,150.3 32.6,150.3 			"/>
		</g>
	</g>
</g>
</svg>
