<svg xmlns="http://www.w3.org/2000/svg" viewBox="0 0 500 500"><defs><style>.cls-1{fill:#e3e3e3;}</style></defs><g id="Layer_15" data-name="Layer 15"><rect class="cls-1" width="500" height="500"/><path d="M109.07,224.8l-3.47,17.5h-3.8l2-10.4-6.67,8.55h-1.8l-3.6-8.65-2.1,10.5h-3.8l3.5-17.5h3.3l4.37,10.9,8.55-10.9Z"/><path d="M109.75,236.48a7.74,7.74,0,0,1,8.13-7.83c4.12,0,6.77,2.38,6.77,6,0,4.47-3.37,7.82-8.12,7.82C112.43,242.5,109.75,240.1,109.75,236.48Zm11-1.63a2.77,2.77,0,0,0-3-3c-2.3,0-4,1.8-4,4.42a2.79,2.79,0,0,0,3.08,3C119.05,239.28,120.7,237.48,120.7,234.85Z"/><path d="M141.9,234.68a7.48,7.48,0,0,1-7.45,7.82,4.82,4.82,0,0,1-4.5-2.2l-.4,2h-3.7l3.7-18.55h3.9L132.2,230a6,6,0,0,1,3.88-1.35A5.68,5.68,0,0,1,141.9,234.68Zm-4,.17a2.78,2.78,0,0,0-3.07-3c-2.28,0-3.93,1.8-3.93,4.42a2.77,2.77,0,0,0,3.05,3C136.3,239.28,138,237.48,138,234.85Z"/><path d="M145.78,228.85h3.87L147,242.3H143.1Zm.32-3.9a2.37,2.37,0,0,1,2.58-2.32,2.07,2.07,0,0,1,2.3,2,2.38,2.38,0,0,1-2.6,2.4A2.09,2.09,0,0,1,146.1,225Z"/><path d="M154.3,223.75h3.9l-3.7,18.55h-3.9Z"/><path d="M172.5,236.63H162.2c.13,1.82,1.25,2.75,3.48,2.75a5.5,5.5,0,0,0,3.59-1.25l1.63,2.57a8.89,8.89,0,0,1-5.62,1.8c-4.2,0-6.88-2.38-6.88-6a7.59,7.59,0,0,1,7.93-7.83c3.92,0,6.39,2.33,6.39,5.93A11,11,0,0,1,172.5,236.63Zm-10-2.28h6.67a2.68,2.68,0,0,0-3-2.77A3.69,3.69,0,0,0,162.48,234.35Z"/><path d="M180.05,241.1l1.5-2.82a9,9,0,0,0,4.68,1.27c1.82,0,2.62-.5,2.62-1.3,0-1.9-7.12-.32-7.12-4.87,0-3,2.82-4.73,6.74-4.73a10.62,10.62,0,0,1,5,1.13l-1.4,2.85a7.58,7.58,0,0,0-4-1c-1.8,0-2.6.6-2.6,1.33,0,2,7.09.4,7.09,4.87,0,3.08-2.9,4.7-6.77,4.7A10.93,10.93,0,0,1,180.05,241.1Z"/><path d="M209.57,233.25a7.72,7.72,0,0,1-.17,1.6l-1.5,7.45H204l1.45-7.2a4.45,4.45,0,0,0,.1-.92c0-1.38-.75-2.15-2.3-2.15-2,0-3.35,1.1-3.83,3.45l-1.34,6.82h-3.9l3.7-18.55h3.89l-1.25,6.33a6.39,6.39,0,0,1,4.15-1.43C207.6,228.65,209.57,230.25,209.57,233.25Z"/><path d="M211.85,236.48a7.74,7.74,0,0,1,8.12-7.83c4.13,0,6.78,2.38,6.78,6,0,4.47-3.38,7.82-8.13,7.82C214.53,242.5,211.85,240.1,211.85,236.48Zm11-1.63a2.77,2.77,0,0,0-3.05-3c-2.3,0-3.95,1.8-3.95,4.42a2.78,2.78,0,0,0,3.07,3C221.15,239.28,222.8,237.48,222.8,234.85Z"/><path d="M244.17,228.85,241.5,242.3h-3.7l.27-1.45a6.3,6.3,0,0,1-4.37,1.65c-2.87,0-4.82-1.6-4.82-4.57a7.41,7.41,0,0,1,.17-1.63l1.47-7.45h3.9l-1.42,7.2a4.35,4.35,0,0,0-.1,1c0,1.35.72,2.1,2.25,2.1,1.92,0,3.27-1.1,3.75-3.45l1.37-6.83Z"/><path d="M248.82,223.75h3.9L249,242.3h-3.89Z"/><path d="M270,223.75l-3.7,18.55h-3.7l.28-1.35a6,6,0,0,1-4.13,1.55,5.66,5.66,0,0,1-5.79-6,7.47,7.47,0,0,1,7.42-7.83,4.9,4.9,0,0,1,4.35,2l1.37-6.88Zm-6.1,11.1a2.78,2.78,0,0,0-3.07-3c-2.3,0-4,1.8-4,4.42a2.78,2.78,0,0,0,3.07,3C262.27,239.28,263.92,237.48,263.92,234.85Z"/><path d="M293.07,234.68a7.48,7.48,0,0,1-7.45,7.82,4.82,4.82,0,0,1-4.5-2.2l-.4,2H277l3.7-18.55h3.9L283.37,230a6,6,0,0,1,3.88-1.35A5.68,5.68,0,0,1,293.07,234.68Zm-3.95.17a2.78,2.78,0,0,0-3.07-3c-2.28,0-3.93,1.8-3.93,4.42a2.77,2.77,0,0,0,3.05,3C287.47,239.28,289.12,237.48,289.12,234.85Z"/><path d="M308.65,236.63h-10.3c.12,1.82,1.25,2.75,3.47,2.75a5.5,5.5,0,0,0,3.6-1.25l1.63,2.57a8.92,8.92,0,0,1-5.63,1.8c-4.2,0-6.87-2.38-6.87-6a7.59,7.59,0,0,1,7.92-7.83c3.93,0,6.4,2.33,6.4,5.93A11,11,0,0,1,308.65,236.63Zm-10-2.28h6.68a2.68,2.68,0,0,0-3-2.77A3.7,3.7,0,0,0,298.62,234.35Z"/><path d="M316.2,241.1l1.5-2.82a8.94,8.94,0,0,0,4.67,1.27c1.83,0,2.63-.5,2.63-1.3,0-1.9-7.13-.32-7.13-4.87,0-3,2.83-4.73,6.75-4.73a10.62,10.62,0,0,1,5,1.13l-1.4,2.85a7.59,7.59,0,0,0-4-1c-1.8,0-2.6.6-2.6,1.33,0,2,7.1.4,7.1,4.87,0,3.08-2.9,4.7-6.77,4.7A10.88,10.88,0,0,1,316.2,241.1Z"/><path d="M346.64,228.85,343,247.15h-3.9l1.17-6a6,6,0,0,1-3.87,1.3,5.66,5.66,0,0,1-5.8-6,7.47,7.47,0,0,1,7.42-7.83c2.05,0,3.68.7,4.5,2.25l.4-2.05Zm-9,10.43c2.3,0,3.95-1.8,3.95-4.43a2.79,2.79,0,0,0-3.08-3c-2.3,0-4,1.8-4,4.42A2.79,2.79,0,0,0,337.6,239.28Z"/><path d="M363.79,228.85l-2.67,13.45h-3.7l.28-1.45a6.31,6.31,0,0,1-4.38,1.65c-2.87,0-4.82-1.6-4.82-4.57a8.07,8.07,0,0,1,.17-1.63l1.48-7.45h3.9l-1.43,7.2a5,5,0,0,0-.1,1c0,1.35.73,2.1,2.25,2.1,1.93,0,3.28-1.1,3.75-3.45l1.38-6.83Z"/><path d="M381.07,228.85l-2.68,13.45H374.7L375,241a6,6,0,0,1-4.13,1.52,5.67,5.67,0,0,1-5.8-6,7.48,7.48,0,0,1,7.43-7.83,4.8,4.8,0,0,1,4.37,2l.35-1.83Zm-5.1,6a2.78,2.78,0,0,0-3.07-3c-2.3,0-3.95,1.8-3.95,4.42a2.78,2.78,0,0,0,3.07,3C374.32,239.28,376,237.48,376,234.85Z"/><path d="M393.07,228.65l-.7,3.6c-.35,0-.57-.05-.9-.05-2.3,0-3.77,1.08-4.27,3.6l-1.3,6.5H382l2.67-13.45h3.7l-.32,1.6A6.38,6.38,0,0,1,393.07,228.65Z"/><path d="M406.92,236.63h-10.3c.13,1.82,1.25,2.75,3.48,2.75a5.54,5.54,0,0,0,3.6-1.25l1.62,2.57a8.89,8.89,0,0,1-5.62,1.8c-4.2,0-6.88-2.38-6.88-6a7.59,7.59,0,0,1,7.93-7.83c3.92,0,6.39,2.33,6.39,5.93A11,11,0,0,1,406.92,236.63Zm-10-2.28h6.67a2.68,2.68,0,0,0-3-2.77A3.69,3.69,0,0,0,396.9,234.35Z"/><path d="M94.33,266.48a7.74,7.74,0,0,1,8.12-7.83c4.13,0,6.77,2.38,6.77,6,0,4.47-3.37,7.82-8.12,7.82C97,272.5,94.33,270.1,94.33,266.48Zm11-1.63a2.77,2.77,0,0,0-3-3c-2.3,0-4,1.8-4,4.42a2.78,2.78,0,0,0,3.07,3C103.63,269.28,105.28,267.48,105.28,264.85Z"/><path d="M121.5,258.65l-.7,3.6c-.35,0-.57-.05-.9-.05-2.3,0-3.77,1.08-4.27,3.6l-1.3,6.5h-3.9l2.67-13.45h3.7l-.32,1.6A6.38,6.38,0,0,1,121.5,258.65Z"/><path d="M127.43,271.1l1.5-2.82a8.94,8.94,0,0,0,4.67,1.27c1.83,0,2.63-.5,2.63-1.3,0-1.9-7.13-.32-7.13-4.87,0-3,2.83-4.73,6.75-4.73a10.55,10.55,0,0,1,5,1.13l-1.4,2.85a7.56,7.56,0,0,0-4-1c-1.8,0-2.6.6-2.6,1.33,0,2,7.1.4,7.1,4.87,0,3.08-2.9,4.7-6.77,4.7A10.88,10.88,0,0,1,127.43,271.1Z"/><path d="M141.8,266.48a7.74,7.74,0,0,1,8.13-7.83c4.12,0,6.77,2.38,6.77,6,0,4.47-3.37,7.82-8.12,7.82C144.48,272.5,141.8,270.1,141.8,266.48Zm10.95-1.63a2.77,2.77,0,0,0-3.05-3c-2.3,0-3.95,1.8-3.95,4.42a2.79,2.79,0,0,0,3.08,3C151.1,269.28,152.75,267.48,152.75,264.85Z"/><path d="M182.25,263.2a7.56,7.56,0,0,1-.18,1.65l-1.47,7.45h-3.9l1.42-7.17a4.78,4.78,0,0,0,.1-1A1.87,1.87,0,0,0,176.1,262c-1.8,0-3,1.05-3.53,3.37l-1.37,6.9h-3.9l1.42-7.17a4.76,4.76,0,0,0,.11-1,1.89,1.89,0,0,0-2.13-2.1c-1.82,0-3,1.05-3.55,3.42l-1.35,6.85h-3.9l2.68-13.45h3.7l-.3,1.4a6.16,6.16,0,0,1,4.22-1.6,4.38,4.38,0,0,1,4.12,2.2,6.74,6.74,0,0,1,5.13-2.2C180.32,258.65,182.25,260.23,182.25,263.2Z"/><path d="M198.65,266.63h-10.3c.13,1.82,1.25,2.75,3.48,2.75a5.5,5.5,0,0,0,3.59-1.25l1.63,2.57a8.89,8.89,0,0,1-5.62,1.8c-4.2,0-6.88-2.38-6.88-6a7.59,7.59,0,0,1,7.93-7.83c3.92,0,6.39,2.33,6.39,5.93A11,11,0,0,1,198.65,266.63Zm-10-2.28h6.67a2.68,2.68,0,0,0-3-2.77A3.69,3.69,0,0,0,188.63,264.35Z"/><path d="M205.28,267.55a2.16,2.16,0,0,0-.05.55c0,.83.45,1.3,1.42,1.3a3.11,3.11,0,0,0,1.57-.47l.58,2.77a6.37,6.37,0,0,1-3.35.8c-2.5,0-4.2-1.4-4.2-3.75a6.07,6.07,0,0,1,.13-1.17l1.07-5.43h-2.07l.6-3h2.07l.65-3.27h3.9l-.65,3.27h3.35l-.6,3h-3.35Z"/><path d="M226.25,263.25a7.13,7.13,0,0,1-.18,1.6l-1.5,7.45h-3.9l1.45-7.2a3.86,3.86,0,0,0,.1-.92c0-1.38-.75-2.15-2.3-2.15-2,0-3.34,1.1-3.82,3.45l-1.35,6.82h-3.9l3.7-18.55h3.9l-1.25,6.33a6.37,6.37,0,0,1,4.15-1.43C224.27,258.65,226.25,260.25,226.25,263.25Z"/><path d="M230.8,258.85h3.88L232,272.3h-3.87Zm.33-3.9a2.36,2.36,0,0,1,2.57-2.32,2.07,2.07,0,0,1,2.3,2,2.38,2.38,0,0,1-2.6,2.4A2.08,2.08,0,0,1,231.13,255Z"/><path d="M251,263.23a7.9,7.9,0,0,1-.17,1.62l-1.5,7.45h-3.9l1.45-7.2a4.45,4.45,0,0,0,.1-.92c0-1.38-.75-2.15-2.3-2.15-2,0-3.35,1.1-3.82,3.45l-1.35,6.82h-3.9l2.67-13.45H242l-.3,1.45a6.41,6.41,0,0,1,4.42-1.65C249.07,258.65,251,260.25,251,263.23Z"/><path d="M269.6,258.85l-2.23,11.2c-1,5.17-3.95,7.3-8.6,7.3a10.75,10.75,0,0,1-6.39-1.78l1.85-2.82A7.67,7.67,0,0,0,259,274.2c2.7,0,3.92-1.2,4.4-3.47l.1-.58a5.89,5.89,0,0,1-4.1,1.5c-3.32,0-6-2.12-6-5.65a7.29,7.29,0,0,1,7.5-7.35c2,0,3.72.7,4.55,2.4l.42-2.2Zm-5.3,5.68c0-1.63-1.1-2.65-3-2.65a3.78,3.78,0,0,0-3.94,3.92c0,1.63,1.14,2.65,3.07,2.65A3.76,3.76,0,0,0,264.3,264.53Z"/><path d="M277.88,266.48c0-4.48,3.4-7.83,8.19-7.83,2.88,0,5,1.23,6.05,3.4l-3.3,1.65a3.06,3.06,0,0,0-3-1.82c-2.3,0-4,1.8-4,4.4a2.82,2.82,0,0,0,3.12,3,3.71,3.71,0,0,0,3.3-1.8l2.87,1.8a7.42,7.42,0,0,1-6.4,3.22C280.55,272.5,277.88,270.1,277.88,266.48Z"/><path d="M296,253.75h3.9l-3.7,18.55h-3.9Z"/><path d="M300.08,266.48a7.74,7.74,0,0,1,8.12-7.83c4.12,0,6.77,2.38,6.77,6,0,4.47-3.37,7.82-8.12,7.82C302.75,272.5,300.08,270.1,300.08,266.48ZM311,264.85a2.77,2.77,0,0,0-3-3c-2.3,0-4,1.8-4,4.42a2.79,2.79,0,0,0,3.08,3C309.37,269.28,311,267.48,311,264.85Z"/><path d="M315.33,271.1l1.5-2.82a8.92,8.92,0,0,0,4.67,1.27c1.82,0,2.62-.5,2.62-1.3,0-1.9-7.12-.32-7.12-4.87,0-3,2.82-4.73,6.75-4.73a10.58,10.58,0,0,1,5,1.13l-1.4,2.85a7.56,7.56,0,0,0-4-1c-1.8,0-2.6.6-2.6,1.33,0,2,7.1.4,7.1,4.87,0,3.08-2.9,4.7-6.78,4.7A10.86,10.86,0,0,1,315.33,271.1Z"/><path d="M343.82,266.63h-10.3c.13,1.82,1.25,2.75,3.48,2.75a5.54,5.54,0,0,0,3.6-1.25l1.62,2.57a8.89,8.89,0,0,1-5.62,1.8c-4.2,0-6.87-2.38-6.87-6a7.59,7.59,0,0,1,7.92-7.83c3.92,0,6.4,2.33,6.4,5.93A10.21,10.21,0,0,1,343.82,266.63Zm-10-2.28h6.67a2.68,2.68,0,0,0-3-2.77A3.69,3.69,0,0,0,333.8,264.35Z"/><path d="M357.52,267.55a2.16,2.16,0,0,0,0,.55c0,.83.45,1.3,1.43,1.3a3.11,3.11,0,0,0,1.57-.47l.58,2.77a6.42,6.42,0,0,1-3.35.8c-2.5,0-4.2-1.4-4.2-3.75a6.07,6.07,0,0,1,.13-1.17l1.07-5.43h-2.07l.59-3h2.08l.65-3.27h3.9l-.65,3.27h3.35l-.6,3H358.6Z"/><path d="M362.92,266.48a7.74,7.74,0,0,1,8.13-7.83c4.12,0,6.77,2.38,6.77,6,0,4.47-3.37,7.82-8.12,7.82C365.6,272.5,362.92,270.1,362.92,266.48Zm10.95-1.63a2.77,2.77,0,0,0-3.05-3c-2.3,0-3.95,1.8-3.95,4.42a2.79,2.79,0,0,0,3.08,3C372.22,269.28,373.87,267.48,373.87,264.85Z"/><path d="M388.77,258.85h3.88L390,272.3H386.1Zm.33-3.9a2.36,2.36,0,0,1,2.57-2.32,2.07,2.07,0,0,1,2.3,2,2.38,2.38,0,0,1-2.6,2.4A2.08,2.08,0,0,1,389.1,255Z"/><path d="M392.75,271.1l1.5-2.82a8.94,8.94,0,0,0,4.67,1.27c1.83,0,2.63-.5,2.63-1.3,0-1.9-7.13-.32-7.13-4.87,0-3,2.83-4.73,6.75-4.73a10.62,10.62,0,0,1,5,1.13l-1.4,2.85a7.59,7.59,0,0,0-4-1c-1.8,0-2.6.6-2.6,1.33,0,2,7.1.4,7.1,4.87,0,3.08-2.9,4.7-6.77,4.7A10.88,10.88,0,0,1,392.75,271.1Z"/></g></svg>