<?xml version="1.0" encoding="UTF-8"?>
<svg xmlns="http://www.w3.org/2000/svg" xmlns:xlink="http://www.w3.org/1999/xlink" viewBox="0 0 798.26 459.73">
  <defs>
    <style>
      .cls-1 {
        fill: url(#linear-gradient);
        opacity: .4;
      }

      .cls-1, .cls-2, .cls-3, .cls-4, .cls-5, .cls-6, .cls-7, .cls-8 {
        stroke-width: 0px;
      }

      .cls-1, .cls-2, .cls-6 {
        fill-rule: evenodd;
      }

      .cls-2, .cls-4 {
        fill: #cee9f1;
      }

      .cls-9 {
        fill: none;
        opacity: .25;
        stroke: #fff;
        stroke-miterlimit: 10;
        stroke-width: 2px;
      }

      .cls-9, .cls-10 {
        mix-blend-mode: soft-light;
      }

      .cls-3 {
        fill: #031737;
      }

      .cls-5 {
        fill: url(#linear-gradient-2);
      }

      .cls-6 {
        fill: #fff;
      }

      .cls-11 {
        isolation: isolate;
      }

      .cls-12 {
        mix-blend-mode: multiply;
        opacity: .35;
      }

      .cls-7 {
        fill: #84c7db;
      }

      .cls-8 {
        fill: #0a90b7;
      }
    </style>
    <linearGradient id="linear-gradient" x1="0" y1="246.76" x2="798.26" y2="246.76" gradientUnits="userSpaceOnUse">
      <stop offset="0" stop-color="#000"/>
      <stop offset="0" stop-color="#01151b"/>
      <stop offset="0" stop-color="#033240"/>
      <stop offset="0" stop-color="#054b60"/>
      <stop offset="0" stop-color="#06617b"/>
      <stop offset="0" stop-color="#077291"/>
      <stop offset="0" stop-color="#087fa2"/>
      <stop offset="0" stop-color="#0989ae"/>
      <stop offset="0" stop-color="#098eb5"/>
      <stop offset="0" stop-color="#0a90b7"/>
      <stop offset=".1" stop-color="#1595ba"/>
      <stop offset=".29" stop-color="#34a3c5"/>
      <stop offset=".53" stop-color="#66bbd6"/>
      <stop offset=".82" stop-color="#aadbed"/>
      <stop offset="1" stop-color="#d9f1fd"/>
    </linearGradient>
    <linearGradient id="linear-gradient-2" x1="426.22" y1="141.36" x2="426.22" y2="402.28" gradientUnits="userSpaceOnUse">
      <stop offset="0" stop-color="#000"/>
      <stop offset="0" stop-color="#02050a"/>
      <stop offset="0" stop-color="#071426"/>
      <stop offset="0" stop-color="#102c53"/>
      <stop offset="0" stop-color="#1a4480"/>
      <stop offset=".22" stop-color="#184f89"/>
      <stop offset=".6" stop-color="#156ea2"/>
      <stop offset="1" stop-color="#1294c2"/>
    </linearGradient>
  </defs>
  <g class="cls-11">
    <g id="Layer_2" data-name="Layer 2">
      <g id="Text">
        <path class="cls-1" d="M662.94,181.36c-30.86-85.62-120.66-147.57-226.66-147.57-116.17,0-208.98,59.17-229.96,157.61C175.36,174.1,0,163.78,0,324.33c0,74.78,60.62,135.4,135.4,135.4h523.64c76.89,0,139.22-62.33,139.22-139.21s-60.23-137.09-135.32-139.16Z"/>
        <polyline class="cls-9" points="576.49 168.71 617.2 168.71 634.16 151.75 662.99 151.75"/>
        <circle class="cls-9" cx="677.99" cy="151.75" r="13.99"/>
        <polyline class="cls-9" points="584.84 297.8 625.55 297.8 642.51 314.76 671.35 314.76"/>
        <circle class="cls-9" cx="686.34" cy="315.2" r="13.99"/>
        <polyline class="cls-9" points="594 211.67 640.24 211.67 659.5 194.7 692.25 194.7"/>
        <polyline class="cls-9" points="595.3 252.29 641.54 252.29 660.8 235.33 693.55 235.33"/>
        <polyline class="cls-9" points="528.6 0 528.6 39.87 511.64 56.48 511.64 84.72"/>
        <circle class="cls-9" cx="706.25" cy="194.7" r="13.99"/>
        <g>
          <path class="cls-2" d="M403.27,140.72c-.64,0-1.16-.52-1.16-1.16s.52-1.16,1.16-1.16l2.34.03c.64.01,1.14.55,1.13,1.19-.01.64-.55,1.14-1.18,1.13l-2.29-.03h0ZM392.91,139c.63-.08,1.21.37,1.29,1.01.08.63-.37,1.21-1.01,1.29-.76.09-1.51.18-2.27.29-.63.09-1.22-.34-1.31-.98-.09-.63.35-1.22.98-1.31.77-.11,1.55-.21,2.32-.3h0ZM379.12,141.71c.61-.17,1.25.19,1.43.8.18.61-.18,1.25-.8,1.43l-2.19.65c-.61.19-1.26-.15-1.45-.76-.19-.61.15-1.26.76-1.45.75-.23,1.5-.45,2.25-.66h0ZM365.92,146.56c.58-.27,1.27-.02,1.54.56.27.58.02,1.27-.56,1.54-.69.32-1.38.65-2.06.99-.57.28-1.27.05-1.55-.52-.28-.57-.05-1.27.53-1.56l2.11-1.01h0ZM353.65,153.43c.53-.36,1.25-.22,1.61.31.35.53.22,1.25-.31,1.61l-1.88,1.3c-.52.37-1.24.25-1.61-.27-.37-.52-.25-1.24.27-1.61l1.93-1.33h0ZM342.61,162.14c.47-.44,1.2-.41,1.64.06.43.47.41,1.2-.06,1.64l-1.66,1.57c-.46.45-1.19.44-1.64-.02-.45-.46-.44-1.19.02-1.64l1.7-1.61h0ZM333.06,172.46c.39-.5,1.12-.59,1.63-.19.5.4.59,1.12.19,1.63-.47.59-.93,1.2-1.38,1.8-.38.52-1.11.63-1.62.25s-.62-1.11-.24-1.62c.48-.61.95-1.25,1.43-1.86h0ZM325.24,184.15c.31-.56,1.02-.76,1.58-.45.56.31.76,1.02.45,1.58-.38.66-.73,1.34-1.09,2-.3.57-1,.79-1.56.49-.57-.3-.79-1-.49-1.56.37-.69.73-1.38,1.12-2.07h0ZM319.36,196.92c.22-.6.89-.91,1.48-.69.6.22.91.89.69,1.49l-.76,2.15c-.2.61-.86.94-1.47.74-.61-.2-.93-.86-.73-1.47.28-.71.52-1.49.78-2.21h0ZM315.56,210.47c.12-.63.73-1.04,1.36-.92.63.12,1.04.73.92,1.35l-.41,2.25c-.1.63-.7,1.06-1.33.95-.63-.1-1.06-.7-.95-1.33l.42-2.31h0ZM313.95,224.44c.02-.64.56-1.14,1.19-1.12.64.02,1.14.56,1.12,1.19l-.06,2.28c0,.64-.53,1.16-1.16,1.15-.64,0-1.16-.53-1.15-1.17,0-.78.03-1.56.06-2.35h0ZM314.52,238.48c-.08-.63.38-1.21,1.01-1.29.63-.08,1.21.38,1.29,1.01.09.75.19,1.51.3,2.26.09.63-.35,1.22-.98,1.31-.63.09-1.22-.34-1.31-.98-.11-.77-.22-1.55-.31-2.32h0ZM317.28,252.28c-.18-.62.17-1.26.79-1.44.61-.18,1.26.18,1.43.79.21.73.42,1.46.66,2.19.19.61-.14,1.26-.75,1.45-.61.19-1.26-.14-1.45-.75-.24-.74-.46-1.5-.67-2.25h0ZM322.18,265.45c-.27-.58-.02-1.27.56-1.54.58-.27,1.27-.02,1.54.56.32.69.65,1.37.99,2.05.29.57.06,1.27-.51,1.55-.57.29-1.27.06-1.56-.51-.35-.68-.69-1.42-1.02-2.12h0ZM329.1,277.69c-.35-.53-.21-1.25.31-1.61.53-.36,1.25-.22,1.61.31.42.63.85,1.26,1.3,1.87.37.52.25,1.24-.26,1.62-.52.37-1.24.25-1.62-.26-.46-.64-.9-1.28-1.34-1.93h0ZM337.85,288.71c-.44-.47-.42-1.2.05-1.64.47-.44,1.2-.41,1.64.05l1.58,1.65c.45.46.44,1.19,0,1.64-.46.45-1.19.45-1.64,0-.55-.56-1.09-1.12-1.62-1.69h0ZM348.21,298.21c-.51-.39-.6-1.12-.21-1.62.39-.51,1.12-.6,1.63-.2.6.47,1.2.93,1.82,1.38.52.38.62,1.11.24,1.62-.38.51-1.11.62-1.62.24l-1.86-1.42h0ZM359.93,305.99c-.56-.31-.76-1.01-.46-1.57.31-.56,1.01-.77,1.57-.46l2.02,1.09c.57.29.78.99.49,1.56-.3.57-1,.79-1.56.49l-2.06-1.11h0ZM372.72,311.82c-.6-.22-.91-.88-.7-1.48.22-.6.88-.91,1.48-.7l2.16.75c.61.2.93.86.73,1.46-.2.61-.86.94-1.46.73l-2.21-.77h0ZM386.27,315.57c-.63-.12-1.04-.73-.92-1.35.12-.63.73-1.04,1.35-.92.74.14,1.51.25,2.25.4.63.1,1.06.69.96,1.33-.1.63-.69,1.06-1.33.96l-2.31-.41h0ZM400.25,317.13c-.64-.02-1.14-.56-1.12-1.19.02-.64.56-1.14,1.19-1.12l2.29.05c.64,0,1.15.52,1.15,1.17,0,.64-.52,1.15-1.17,1.15l-2.34-.05h0ZM414.3,316.5c-.63.08-1.22-.37-1.29-1-.08-.63.37-1.21,1-1.29.76-.09,1.51-.19,2.26-.31.63-.1,1.22.34,1.32.97.1.63-.34,1.22-.97,1.32-.77.12-1.55.22-2.32.32h0ZM428.07,313.69c-.61.18-1.26-.18-1.44-.79-.18-.62.18-1.26.79-1.44.73-.21,1.46-.43,2.19-.66.61-.19,1.26.15,1.45.75.19.61-.14,1.26-.75,1.45-.74.23-1.49.47-2.24.68h0ZM441.24,308.74c-.58.27-1.27.03-1.54-.55-.27-.58-.03-1.27.55-1.54.69-.32,1.38-.66,2.05-1,.57-.29,1.27-.06,1.56.51.29.57.06,1.27-.51,1.56-.7.35-1.4.69-2.11,1.02h0ZM453.46,301.77c-.53.36-1.25.23-1.61-.3-.36-.53-.22-1.25.3-1.61l1.87-1.31c.52-.37,1.24-.25,1.62.26.37.52.26,1.24-.26,1.62l-1.92,1.34h0ZM464.43,292.98c-.47.44-1.2.42-1.64-.05-.44-.47-.42-1.2.05-1.64.55-.52,1.09-1.07,1.65-1.58.45-.45,1.18-.45,1.64,0,.45.45.45,1.18,0,1.64l-1.69,1.63h0ZM473.9,282.59c-.39.51-1.12.6-1.62.2-.51-.39-.6-1.12-.21-1.62l1.38-1.82c.38-.52,1.1-.63,1.62-.25.52.38.63,1.1.25,1.62-.46.63-.94,1.25-1.42,1.87h0ZM481.63,270.84c-.3.56-1.01.77-1.57.46-.56-.3-.77-1.01-.47-1.57l1.08-2.02c.29-.57.99-.79,1.56-.5.57.29.79.99.5,1.56l-1.1,2.07h0ZM487.42,258.03c-.22.6-.88.91-1.48.7-.6-.22-.91-.88-.7-1.48l.74-2.15c.2-.61.85-.94,1.46-.74.61.2.94.85.74,1.46l-.77,2.22h0ZM491.11,244.45c-.12.63-.72,1.04-1.35.93-.63-.11-1.04-.72-.93-1.35l.4-2.25c.1-.63.69-1.06,1.33-.96.63.1,1.06.69.96,1.33l-.41,2.31h0ZM492.62,230.47c-.01.64-.55,1.14-1.19,1.13-.64-.02-1.14-.55-1.13-1.19l.04-2.29c0-.64.52-1.16,1.16-1.16s1.16.52,1.16,1.16l-.04,2.35h0ZM491.94,216.43c.08.63-.37,1.21-1,1.29-.63.08-1.22-.37-1.29-1-.07-.72-.19-1.55-.32-2.26-.1-.63.33-1.22.96-1.33.63-.1,1.23.33,1.33.96.12.76.25,1.57.33,2.33h0ZM489.07,202.66c.18.61-.17,1.26-.78,1.44-.61.18-1.26-.17-1.44-.78l-.67-2.19c-.2-.61.14-1.26.74-1.46.61-.2,1.26.14,1.46.74l.69,2.24h0ZM484.07,189.51c.28.58.03,1.27-.54,1.55-.57.28-1.27.03-1.54-.54l-1-2.05c-.29-.57-.07-1.27.5-1.56.57-.29,1.27-.07,1.56.5.35.69.7,1.4,1.03,2.1h0ZM477.06,177.32c.36.52.23,1.25-.29,1.61-.52.36-1.25.23-1.61-.29l-1.32-1.87c-.38-.52-.26-1.24.25-1.62.52-.38,1.24-.26,1.62.25l1.35,1.91h0ZM468.23,166.39c.44.46.42,1.2-.04,1.64-.46.44-1.2.42-1.64-.04l-1.6-1.64c-.45-.45-.45-1.18,0-1.64.45-.45,1.19-.45,1.64,0l1.63,1.68h0ZM457.8,156.96c.51.39.6,1.12.21,1.62-.39.51-1.12.6-1.62.22l-1.83-1.38c-.52-.38-.63-1.1-.25-1.62.38-.52,1.1-.63,1.62-.25l1.87,1.4h0ZM446.02,149.27c.56.3.77,1.01.46,1.57-.3.56-1.01.77-1.57.46l-2.01-1.06c-.58-.29-.81-.99-.52-1.56.29-.57.98-.8,1.55-.51.68.38,1.39.73,2.08,1.1h0ZM433.18,143.53c.6.21.92.88.71,1.48-.21.6-.88.92-1.48.71l-2.17-.73c-.61-.2-.94-.85-.74-1.46.2-.61.85-.94,1.46-.74.74.24,1.48.5,2.22.76h0ZM419.59,139.89c.63.11,1.05.71.94,1.34-.11.63-.71,1.05-1.34.94l-2.26-.39c-.63-.1-1.06-.69-.97-1.32.1-.63.69-1.06,1.32-.97.77.12,1.54.26,2.31.39Z"/>
          <path class="cls-4" d="M311.15,128.9h230.14c6,0,10.88,4.87,10.88,10.88v230.14c0,6-4.87,10.88-10.88,10.88h-230.14c-6,0-10.88-4.87-10.88-10.88v-230.14c0-6,4.87-10.88,10.88-10.88Z"/>
          <rect class="cls-8" x="324.46" y="153.09" width="203.51" height="203.51"/>
          <rect class="cls-5" x="338.14" y="166.77" width="176.14" height="176.15"/>
          <path class="cls-2" d="M340.16,80.04c-3.88,0-7.02,3.14-7.02,7.02v41.83h14.04v-41.83c0-3.88-3.14-7.02-7.02-7.02Z"/>
          <path class="cls-2" d="M383.19,80.04c-3.88,0-7.02,3.14-7.02,7.02v41.83h14.04v-41.83c0-3.88-3.14-7.02-7.02-7.02Z"/>
          <path class="cls-2" d="M426.22,80.04c-3.88,0-7.02,3.14-7.02,7.02v41.83h14.04v-41.83c0-3.88-3.14-7.02-7.02-7.02Z"/>
          <path class="cls-2" d="M469.24,80.04c-3.88,0-7.02,3.14-7.02,7.02v41.83h14.04v-41.83c0-3.88-3.14-7.02-7.02-7.02Z"/>
          <path class="cls-2" d="M512.27,80.04c-3.88,0-7.02,3.14-7.02,7.02v41.83h14.04v-41.83c0-3.88-3.14-7.02-7.02-7.02Z"/>
          <path class="cls-2" d="M512.27,429.65c3.88,0,7.02-3.15,7.02-7.02v-41.83h-14.04v41.83c0,3.88,3.14,7.02,7.02,7.02Z"/>
          <path class="cls-2" d="M469.24,429.65c3.88,0,7.02-3.15,7.02-7.02v-41.83h-14.04v41.83c0,3.88,3.14,7.02,7.02,7.02Z"/>
          <path class="cls-2" d="M426.22,429.65c3.88,0,7.02-3.15,7.02-7.02v-41.83h-14.04v41.83c0,3.88,3.14,7.02,7.02,7.02Z"/>
          <path class="cls-2" d="M383.19,429.65c3.88,0,7.02-3.15,7.02-7.02v-41.83h-14.04v41.83c0,3.88,3.14,7.02,7.02,7.02Z"/>
          <path class="cls-2" d="M340.16,429.65c3.88,0,7.02-3.15,7.02-7.02v-41.83h-14.04v41.83c0,3.88,3.14,7.02,7.02,7.02Z"/>
          <path class="cls-2" d="M601.02,168.79c0-3.88-3.15-7.02-7.02-7.02h-41.83v14.04h41.83c3.88,0,7.02-3.14,7.02-7.02Z"/>
          <path class="cls-2" d="M601.02,211.82c0-3.88-3.15-7.02-7.02-7.02h-41.83v14.04h41.83c3.88,0,7.02-3.14,7.02-7.02Z"/>
          <path class="cls-2" d="M601.02,254.85c0-3.88-3.15-7.02-7.02-7.02h-41.83v14.04h41.83c3.88,0,7.02-3.14,7.02-7.02Z"/>
          <path class="cls-2" d="M601.02,297.88c0-3.88-3.15-7.02-7.02-7.02h-41.83v14.04h41.83c3.88,0,7.02-3.14,7.02-7.02Z"/>
          <path class="cls-2" d="M601.02,340.9c0-3.88-3.15-7.02-7.02-7.02h-41.83v14.04h41.83c3.88,0,7.02-3.14,7.02-7.02Z"/>
          <path class="cls-2" d="M251.42,340.9c0,3.88,3.14,7.02,7.02,7.02h41.83v-14.04h-41.83c-3.88,0-7.02,3.14-7.02,7.02Z"/>
          <path class="cls-2" d="M251.42,297.88c0,3.88,3.14,7.02,7.02,7.02h41.83v-14.04h-41.83c-3.88,0-7.02,3.14-7.02,7.02Z"/>
          <path class="cls-2" d="M251.42,254.85c0,3.88,3.14,7.02,7.02,7.02h41.83v-14.04h-41.83c-3.88,0-7.02,3.14-7.02,7.02Z"/>
          <path class="cls-2" d="M251.42,211.82c0,3.88,3.14,7.02,7.02,7.02h41.83v-14.04h-41.83c-3.88,0-7.02,3.14-7.02,7.02Z"/>
          <path class="cls-2" d="M251.42,168.79c0,3.88,3.14,7.02,7.02,7.02h41.83v-14.04h-41.83c-3.88,0-7.02,3.14-7.02,7.02Z"/>
          <rect class="cls-7" x="462.22" y="118.78" width="14.04" height="10.12"/>
          <rect class="cls-7" x="419.2" y="118.78" width="14.04" height="10.12"/>
          <rect class="cls-7" x="333.14" y="118.78" width="14.04" height="10.12"/>
          <rect class="cls-7" x="376.17" y="118.78" width="14.04" height="10.12"/>
          <rect class="cls-7" x="552.16" y="161.77" width="10.12" height="14.04"/>
          <rect class="cls-7" x="552.16" y="333.88" width="10.12" height="14.04"/>
          <rect class="cls-7" x="552.16" y="204.8" width="10.12" height="14.04"/>
          <rect class="cls-7" x="552.16" y="247.82" width="10.12" height="14.04"/>
          <rect class="cls-7" x="552.16" y="290.85" width="10.12" height="14.04"/>
          <rect class="cls-7" x="333.14" y="380.79" width="14.04" height="10.12"/>
          <rect class="cls-7" x="290.15" y="247.82" width="10.12" height="14.04"/>
          <rect class="cls-7" x="290.15" y="204.8" width="10.12" height="14.04"/>
          <rect class="cls-7" x="290.15" y="161.77" width="10.12" height="14.04"/>
          <rect class="cls-7" x="290.15" y="290.85" width="10.12" height="14.04"/>
          <rect class="cls-7" x="290.15" y="333.88" width="10.12" height="14.04"/>
          <rect class="cls-7" x="505.25" y="118.78" width="14.04" height="10.12"/>
          <rect class="cls-7" x="419.2" y="380.79" width="14.04" height="10.12"/>
          <rect class="cls-7" x="462.22" y="380.79" width="14.04" height="10.12"/>
          <rect class="cls-7" x="376.17" y="380.79" width="14.04" height="10.12"/>
          <rect class="cls-7" x="505.25" y="380.79" width="14.04" height="10.12"/>
        </g>
        <g class="cls-10">
          <path class="cls-6" d="M564.75,145.63c-.57,0-1.04-.46-1.04-1.04s.46-1.04,1.04-1.04l2.09.03c.57.01,1.02.49,1.01,1.06-.01.57-.49,1.02-1.06,1.01l-2.04-.02h0ZM555.49,144.09c.57-.07,1.08.33,1.15.9.07.57-.33,1.08-.9,1.15-.68.08-1.35.16-2.03.26-.57.08-1.09-.31-1.17-.87-.08-.56.31-1.09.87-1.17.69-.1,1.38-.19,2.08-.27h0ZM543.16,146.51c.55-.15,1.12.17,1.27.72.16.55-.16,1.12-.71,1.27l-1.96.58c-.54.17-1.13-.13-1.29-.68-.17-.54.13-1.13.68-1.29.67-.21,1.34-.4,2.01-.59h0ZM531.36,150.85c.52-.24,1.13-.02,1.38.5.24.52.02,1.13-.5,1.38-.62.29-1.24.58-1.85.88-.51.25-1.13.05-1.39-.47-.25-.51-.04-1.13.47-1.39l1.89-.9h0ZM520.4,156.99c.47-.32,1.12-.19,1.44.28.32.47.19,1.12-.28,1.44l-1.68,1.16c-.47.33-1.11.22-1.44-.24-.33-.47-.22-1.11.24-1.44l1.73-1.19h0ZM510.53,164.78c.42-.39,1.07-.37,1.46.05.39.42.37,1.08-.05,1.46l-1.48,1.41c-.41.4-1.06.39-1.46-.02-.4-.41-.39-1.06.01-1.46l1.52-1.44h0ZM502,174c.35-.45,1.01-.52,1.45-.17.45.35.52,1.01.17,1.45-.42.53-.83,1.07-1.24,1.61-.34.46-.99.56-1.45.22s-.56-.99-.22-1.45c.43-.55.84-1.12,1.28-1.66h0ZM495.01,184.45c.28-.5.91-.68,1.41-.4.5.28.68.91.4,1.41-.34.59-.65,1.19-.97,1.79-.26.51-.89.7-1.4.44-.51-.26-.71-.89-.44-1.4.33-.62.66-1.24,1-1.85h0ZM489.75,195.87c.2-.54.79-.81,1.33-.62.54.2.81.79.62,1.33l-.68,1.92c-.18.55-.77.84-1.31.66-.54-.18-.83-.77-.65-1.31.25-.64.46-1.33.7-1.98h0ZM486.35,207.97c.11-.56.65-.93,1.21-.82.56.11.93.65.82,1.21l-.37,2.01c-.09.56-.63.95-1.19.85-.56-.09-.95-.63-.85-1.19l.38-2.06h0ZM484.91,220.46c.02-.57.5-1.02,1.07-1,.57.02,1.02.5,1,1.07l-.05,2.04c0,.57-.47,1.03-1.04,1.03-.57,0-1.03-.47-1.03-1.04,0-.7.03-1.4.05-2.1h0ZM485.42,233.01c-.07-.57.34-1.08.9-1.15.57-.07,1.08.34,1.15.9.08.67.17,1.35.27,2.02.08.56-.31,1.09-.87,1.17-.56.08-1.09-.31-1.17-.87-.1-.69-.2-1.38-.28-2.08h0ZM487.89,245.34c-.16-.55.15-1.12.7-1.28.55-.16,1.12.16,1.28.71.19.66.38,1.31.59,1.96.17.54-.13,1.13-.67,1.3-.54.17-1.13-.13-1.3-.67-.21-.66-.41-1.34-.6-2.01h0ZM492.27,257.12c-.24-.52-.02-1.13.5-1.38.52-.24,1.13-.02,1.38.5.28.62.58,1.23.88,1.84.26.51.05,1.13-.46,1.39-.51.26-1.13.05-1.39-.46-.32-.61-.62-1.27-.91-1.89h0ZM498.45,268.06c-.32-.47-.19-1.12.28-1.44.47-.32,1.12-.19,1.44.28.38.56.76,1.12,1.16,1.67.33.46.23,1.11-.23,1.45-.46.33-1.11.23-1.45-.24-.41-.57-.81-1.15-1.2-1.73h0ZM506.28,277.91c-.39-.42-.37-1.07.04-1.46.42-.39,1.07-.37,1.46.04l1.42,1.48c.4.41.4,1.06,0,1.46-.41.4-1.06.4-1.46,0-.49-.5-.97-1-1.45-1.51h0ZM515.54,286.4c-.45-.35-.53-1-.19-1.45.35-.45,1-.53,1.45-.18.53.42,1.07.83,1.63,1.24.46.34.56.99.22,1.45-.34.46-.99.56-1.45.22l-1.66-1.27h0ZM526.01,293.35c-.5-.28-.68-.9-.41-1.4.28-.5.91-.69,1.41-.41l1.8.97c.51.26.7.89.44,1.4-.26.51-.89.7-1.4.44l-1.84-.99h0ZM537.45,298.57c-.54-.19-.82-.79-.62-1.33.19-.54.79-.81,1.33-.62l1.93.67c.54.18.83.77.66,1.31-.18.54-.77.84-1.31.66l-1.98-.69h0ZM549.56,301.91c-.56-.11-.93-.65-.82-1.21.11-.56.65-.93,1.21-.82.67.13,1.35.23,2.01.36.56.09.95.62.86,1.19-.09.56-.62.95-1.18.86l-2.07-.37h0ZM562.05,303.31c-.57-.02-1.02-.5-1-1.07.02-.57.5-1.02,1.07-1l2.04.04c.57,0,1.03.47,1.03,1.04,0,.57-.47,1.03-1.04,1.03l-2.09-.04h0ZM574.61,302.75c-.57.07-1.09-.33-1.16-.9-.07-.56.33-1.08.9-1.16.68-.08,1.35-.17,2.02-.28.56-.09,1.09.3,1.18.87.09.56-.3,1.09-.86,1.18-.69.11-1.38.2-2.08.28h0ZM586.92,300.24c-.55.16-1.12-.16-1.28-.7-.16-.55.16-1.12.71-1.28.66-.19,1.31-.39,1.96-.59.54-.17,1.13.13,1.3.67.17.54-.13,1.13-.67,1.3-.67.21-1.33.42-2,.61h0ZM598.69,295.81c-.52.24-1.13.03-1.38-.49-.24-.52-.02-1.13.49-1.38.62-.29,1.23-.59,1.84-.9.51-.26,1.13-.05,1.39.46.26.51.05,1.13-.46,1.39-.62.31-1.25.62-1.89.92h0ZM609.61,289.59c-.47.32-1.12.2-1.44-.27-.32-.47-.2-1.11.27-1.44l1.67-1.17c.46-.33,1.11-.23,1.45.23.33.46.23,1.11-.23,1.45l-1.72,1.2h0ZM619.42,281.73c-.42.39-1.07.37-1.46-.04-.39-.42-.37-1.07.04-1.46.49-.46.98-.96,1.47-1.41.4-.4,1.06-.4,1.46,0,.4.4.4,1.06,0,1.46l-1.51,1.46h0ZM627.88,272.44c-.35.45-1,.53-1.45.18-.45-.35-.53-1-.19-1.45l1.23-1.63c.34-.46.99-.56,1.45-.23.46.34.56.98.23,1.45-.41.57-.84,1.12-1.27,1.68h0ZM634.79,261.94c-.27.5-.9.69-1.4.41-.5-.27-.69-.9-.42-1.4l.96-1.8c.26-.51.88-.71,1.39-.45.51.26.71.88.45,1.39l-.99,1.85h0ZM639.97,250.48c-.19.54-.79.82-1.33.62-.54-.19-.82-.79-.62-1.33l.66-1.92c.18-.54.76-.84,1.31-.67.54.18.84.76.66,1.31l-.68,1.98h0ZM643.26,238.35c-.1.56-.64.93-1.2.83-.56-.1-.93-.64-.83-1.2l.35-2.01c.09-.56.62-.95,1.19-.86.56.09.95.62.86,1.18l-.36,2.06h0ZM644.61,225.85c-.01.57-.49,1.02-1.06,1.01-.57-.01-1.02-.49-1.01-1.06l.03-2.04c0-.57.46-1.03,1.04-1.03s1.04.46,1.04,1.03l-.04,2.1h0ZM644.01,213.31c.07.56-.33,1.08-.9,1.16-.57.07-1.09-.33-1.16-.9-.06-.64-.17-1.38-.28-2.02-.09-.56.3-1.09.86-1.18.56-.09,1.1.3,1.19.86.1.68.22,1.4.29,2.08h0ZM641.45,200.99c.16.55-.15,1.13-.7,1.29-.55.16-1.13-.15-1.29-.7l-.6-1.95c-.18-.54.12-1.13.67-1.31.54-.18,1.13.12,1.3.67l.61,2h0ZM636.98,189.24c.25.52.03,1.13-.49,1.38-.51.25-1.13.03-1.38-.49l-.9-1.83c-.26-.51-.06-1.13.45-1.39.51-.26,1.13-.06,1.39.45.32.62.62,1.25.92,1.88h0ZM630.71,178.35c.33.47.21,1.12-.26,1.44-.47.33-1.11.21-1.44-.26l-1.18-1.67c-.34-.46-.24-1.11.22-1.45.46-.34,1.11-.24,1.45.23l1.21,1.71h0ZM622.82,168.57c.39.41.38,1.07-.04,1.46-.41.4-1.07.38-1.46-.03l-1.43-1.47c-.4-.4-.4-1.06,0-1.46.4-.4,1.06-.4,1.47,0l1.46,1.5h0ZM613.49,160.14c.45.35.54,1,.19,1.45-.35.45-1,.54-1.45.19l-1.63-1.23c-.46-.34-.56-.98-.23-1.45.34-.46.98-.56,1.45-.22l1.68,1.25h0ZM602.97,153.28c.5.27.69.9.41,1.4-.27.5-.9.69-1.4.41l-1.79-.95c-.52-.26-.72-.88-.46-1.4.26-.51.88-.71,1.39-.46.61.34,1.24.65,1.86.99h0ZM591.49,148.14c.54.19.82.78.63,1.32-.19.54-.78.82-1.32.63l-1.94-.66c-.54-.18-.84-.76-.66-1.31.18-.54.76-.84,1.31-.67.66.22,1.33.44,1.98.68h0ZM579.34,144.89c.56.1.94.64.84,1.2-.1.56-.64.94-1.2.84l-2.02-.35c-.56-.09-.95-.62-.87-1.18.09-.56.62-.95,1.18-.87.69.11,1.38.23,2.06.35Z"/>
        </g>
        <ellipse class="cls-3" cx="567.15" cy="193.01" rx=".98" ry="1.28"/>
        <ellipse class="cls-3" cx="558.95" cy="193.1" rx=".98" ry="1.28" transform="translate(-20.09 73) rotate(-7.34)"/>
        <g class="cls-12">
          <path class="cls-8" d="M430.96,276.59h-46.66l-9.66,21.95h-12.92l39.76-87.8h12.42l39.89,87.8h-13.17l-9.66-21.95ZM426.57,266.56l-18.94-43.02-18.94,43.02h37.88Z"/>
          <path class="cls-8" d="M466.83,210.74h12.54v87.8h-12.54v-87.8Z"/>
        </g>
      </g>
    </g>
  </g>
</svg>