<?xml version="1.0" encoding="utf-8"?>
<!-- Generator: Adobe Illustrator 25.0.1, SVG Export Plug-In . SVG Version: 6.00 Build 0)  -->
<svg version="1.1" id="Layer_1" xmlns="http://www.w3.org/2000/svg" xmlns:xlink="http://www.w3.org/1999/xlink" x="0px" y="0px"
	 viewBox="0 0 520 300" style="enable-background:new 0 0 520 300;" xml:space="preserve">
<style type="text/css">
	.st0{fill:#E3E3E3;}
	.st1{enable-background:new    ;}
</style>
<g id="Layer_16">
	<rect class="st0" width="520" height="300"/>
	<g class="st1">
		<path d="M118.8,137c2,1.1,3.5,2.6,4.7,4.5c1.1,1.9,1.7,4.1,1.7,6.4s-0.6,4.5-1.7,6.4c-1.1,1.9-2.7,3.4-4.7,4.5
			c-2,1.1-4.2,1.6-6.7,1.6h-10.2v-25.2h10.3C114.6,135.4,116.8,135.9,118.8,137z M117,156.2c1.4-0.8,2.6-1.9,3.4-3.4
			c0.8-1.4,1.2-3,1.2-4.8c0-1.8-0.4-3.4-1.3-4.9c-0.8-1.4-2-2.6-3.4-3.4s-3.1-1.2-4.8-1.2h-6.7v18.9h6.9
			C114,157.4,115.5,157,117,156.2z"/>
		<path d="M144.1,144c1.5,1.7,2.3,4.2,2.3,7.3c0,0.5,0,0.8,0,1.1h-15c0.3,1.7,1,3.1,2.1,4.1c1.2,1,2.6,1.5,4.3,1.5
			c1.1,0,2.2-0.2,3.1-0.6c1-0.4,1.8-1,2.5-1.7l1.8,1.9c-0.9,1-2.1,1.8-3.4,2.3c-1.3,0.6-2.8,0.8-4.4,0.8c-1.9,0-3.5-0.4-5-1.2
			c-1.5-0.8-2.6-1.9-3.4-3.4c-0.8-1.5-1.2-3.1-1.2-5s0.4-3.5,1.2-5c0.8-1.5,1.9-2.6,3.4-3.4s3.1-1.2,4.9-1.2
			C140.3,141.4,142.5,142.3,144.1,144z M143.3,149.8c-0.1-1.7-0.7-3.1-1.7-4.1c-1.1-1-2.4-1.5-4.2-1.5c-1.7,0-3.1,0.5-4.2,1.5
			s-1.8,2.4-2,4.1H143.3z"/>
		<path d="M158.7,144.6c-0.9-0.3-1.9-0.4-2.7-0.4c-1,0-1.8,0.2-2.4,0.6c-0.6,0.4-0.9,0.9-0.9,1.7c0,0.8,0.3,1.4,1,1.7
			c0.7,0.4,1.7,0.8,3.1,1.2c1.3,0.4,2.4,0.8,3.2,1.2c0.8,0.4,1.6,0.9,2.1,1.7c0.6,0.7,0.9,1.7,0.9,3c0,1.8-0.7,3.2-2,4.1
			c-1.4,0.9-3,1.4-5.1,1.4c-1.4,0-2.8-0.2-4.1-0.7c-1.3-0.5-2.5-1.1-3.4-1.9l1.3-2.4c0.8,0.7,1.8,1.3,2.9,1.7
			c1.2,0.4,2.3,0.6,3.4,0.6s2-0.2,2.7-0.6c0.7-0.4,1-1,1-1.9c0-0.9-0.4-1.5-1.1-1.9c-0.7-0.4-1.8-0.9-3.2-1.3
			c-1.3-0.4-2.3-0.7-3.1-1.1c-0.8-0.4-1.5-0.9-2.1-1.6c-0.6-0.7-0.8-1.7-0.8-2.8c0-1.8,0.6-3.1,1.9-4c1.3-0.9,2.9-1.3,4.9-1.3
			c1.2,0,2.3,0.2,3.4,0.5c1.1,0.3,2.1,0.8,2.9,1.3l-1.2,2.6C160.5,145.3,159.6,144.9,158.7,144.6z"/>
		<path d="M180.8,160.6l-6.1-9.3l-3.7,3.9v5.4h-3.3v-26.7h3.3v17l9.2-9.4h3.9l-7.1,7.4l7.8,11.7H180.8z"/>
	</g>
	<g class="st1">
		<path d="M202.5,159.3c-1.5,0.9-3,1.4-4.5,1.4c-1.5,0-2.7-0.4-3.7-1.3c-0.9-0.9-1.4-2.3-1.4-4.1v-10.5h-2.7v-2.6h2.7v-5.1h3.4v5.1
			h5.8v2.6h-5.8v9.9c0,1.1,0.2,1.8,0.6,2.3c0.4,0.5,1,0.7,1.7,0.7c0.9,0,1.9-0.3,3-0.9L202.5,159.3z"/>
	</g>
	<g class="st1">
		<path d="M219.2,142.7c1.5,0.8,2.6,2,3.5,3.4c0.8,1.5,1.2,3.1,1.2,5s-0.4,3.5-1.2,5s-2,2.6-3.5,3.4c-1.5,0.8-3.2,1.2-5.1,1.2
			c-1.9,0-3.6-0.4-5.1-1.2c-1.5-0.8-2.6-1.9-3.5-3.4s-1.2-3.1-1.2-5c0-1.9,0.4-3.5,1.2-5c0.8-1.5,2-2.6,3.5-3.4
			c1.5-0.8,3.2-1.2,5.1-1.2C216,141.4,217.7,141.8,219.2,142.7z M210.8,145.2c-1,0.6-1.7,1.4-2.3,2.4c-0.5,1-0.8,2.2-0.8,3.5
			c0,1.3,0.3,2.5,0.8,3.5s1.3,1.8,2.3,2.4c1,0.6,2.1,0.8,3.3,0.8c1.2,0,2.3-0.3,3.3-0.8c1-0.6,1.7-1.4,2.3-2.4s0.8-2.2,0.8-3.5
			c0-1.3-0.3-2.5-0.8-3.5c-0.5-1-1.3-1.8-2.3-2.4c-1-0.6-2.1-0.9-3.3-0.9C212.9,144.3,211.8,144.6,210.8,145.2z"/>
		<path d="M243.9,142.7c1.4,0.8,2.5,2,3.2,3.4c0.8,1.5,1.2,3.1,1.2,5c0,1.9-0.4,3.5-1.1,5c-0.8,1.5-1.8,2.6-3.2,3.4
			c-1.4,0.8-3,1.2-4.7,1.2c-1.6,0-3-0.3-4.2-1c-1.2-0.7-2.2-1.6-2.9-2.9v10.8h-3.3v-26h3.3v3.8c0.7-1.2,1.6-2.2,2.9-2.9
			c1.2-0.7,2.6-1,4.2-1C240.9,141.4,242.5,141.8,243.9,142.7z M241.8,156.9c1-0.6,1.7-1.4,2.3-2.4c0.5-1,0.8-2.2,0.8-3.5
			c0-1.3-0.3-2.4-0.8-3.5c-0.6-1-1.3-1.8-2.3-2.4c-1-0.6-2.1-0.9-3.3-0.9s-2.3,0.3-3.3,0.9c-1,0.6-1.7,1.4-2.3,2.4
			c-0.6,1-0.8,2.2-0.8,3.5c0,1.3,0.3,2.5,0.8,3.5c0.6,1,1.3,1.8,2.3,2.4s2.1,0.9,3.3,0.9S240.8,157.5,241.8,156.9z"/>
		<path d="M254.8,146.6c0.4,0.4,0.6,0.9,0.6,1.5c0,0.6-0.2,1.1-0.6,1.5c-0.4,0.4-0.8,0.6-1.4,0.6c-0.6,0-1-0.2-1.4-0.6
			c-0.4-0.4-0.6-0.9-0.6-1.5c0-0.6,0.2-1.1,0.6-1.5s0.9-0.6,1.4-0.6C254,146.1,254.4,146.3,254.8,146.6z M254.8,157.3
			c0.4,0.4,0.6,0.9,0.6,1.5s-0.2,1.1-0.6,1.5c-0.4,0.4-0.8,0.6-1.4,0.6c-0.6,0-1-0.2-1.4-0.6c-0.4-0.4-0.6-0.9-0.6-1.5
			s0.2-1.1,0.6-1.5c0.4-0.4,0.9-0.6,1.4-0.6C254,156.8,254.4,157,254.8,157.3z"/>
	</g>
	<g class="st1">
		<path d="M283.2,145.7c1.4,0.6,2.5,1.5,3.2,2.7c0.8,1.2,1.1,2.4,1.1,3.9c0,1.7-0.4,3.2-1.2,4.4c-0.8,1.3-1.9,2.3-3.3,3
			c-1.4,0.7-3.1,1-5,1c-1.5,0-3.1-0.3-4.7-0.8c-1.6-0.5-3.1-1.2-4.4-2.1l1.4-2.8c1.1,0.8,2.3,1.4,3.6,1.9c1.3,0.4,2.6,0.6,3.8,0.6
			c1.9,0,3.4-0.5,4.5-1.4c1.1-0.9,1.7-2.1,1.7-3.7c0-1.5-0.6-2.6-1.7-3.4c-1.1-0.8-2.7-1.2-4.7-1.2c-0.7,0-1.8,0-3.2,0.1
			c-1.4,0.1-2.6,0.2-3.4,0.4v-13h15.7v3.1h-12.4v6.4c1.1-0.1,2.5-0.1,4.2-0.1C280.2,144.8,281.8,145.1,283.2,145.7z"/>
	</g>
	<g class="st1">
		<path d="M306.7,157.4v3.1h-18.2v-2.7l9.8-10.1c1.1-1.1,1.9-2.1,2.5-3.1s0.9-2,0.9-2.7c0-1.1-0.4-2-1.3-2.7c-0.9-0.6-2.1-1-3.6-1
			c-1.2,0-2.4,0.3-3.7,0.8s-2.4,1.3-3.5,2.2l-1.5-2.6c1.4-1.1,2.8-2,4.4-2.6c1.5-0.6,3.1-0.9,4.7-0.9c2.4,0,4.4,0.6,5.9,1.7
			c1.5,1.1,2.2,2.6,2.2,4.5c0,2.2-1.6,5-4.7,8.2l-7.6,7.8H306.7z"/>
	</g>
	<g class="st1">
		<path d="M328.3,138.5c1.8,2.2,2.7,5.3,2.7,9.5c0,4.1-0.9,7.3-2.7,9.5c-1.8,2.2-4.4,3.3-7.8,3.3c-3.4,0-6-1.1-7.8-3.3
			c-1.8-2.2-2.7-5.4-2.7-9.5c0-4.1,0.9-7.3,2.7-9.5c1.8-2.2,4.4-3.3,7.8-3.3C323.9,135.2,326.5,136.3,328.3,138.5z M313.5,148
			c0,3.3,0.6,5.8,1.8,7.5c1.2,1.7,2.9,2.5,5.2,2.5c2.3,0,4-0.8,5.2-2.5c1.2-1.7,1.8-4.2,1.8-7.5c0-6.7-2.3-10-7-10
			S313.5,141.3,313.5,148z"/>
	</g>
	<g class="st1">
		<path d="M331.5,135.4h4l6.6,9.4l6.7-9.4h4.1l-8.5,12.1l9.3,13.1h-4.1l-7.3-10.2l-7.2,10.2h-4.1l9.2-13L331.5,135.4z"/>
		<path d="M371.5,148.1c1.5,1.2,2.2,2.8,2.2,4.8c0,1.6-0.4,2.9-1.2,4.1s-1.9,2.1-3.4,2.8c-1.5,0.7-3.2,1-5.2,1
			c-1.6,0-3.2-0.2-4.8-0.7c-1.6-0.5-3-1.1-4.1-1.9l1.5-2.8c1,0.8,2.1,1.4,3.4,1.8s2.5,0.6,3.8,0.6c2.1,0,3.7-0.4,4.9-1.3
			c1.2-0.9,1.8-2.1,1.8-3.6s-0.6-2.6-1.8-3.4c-1.2-0.8-2.8-1.2-5-1.2h-3.5v-2.2l7.7-7.6h-11.6l0-3.1h16.2v2.2L364,146l1.5,0.1
			C368,146.2,370,146.9,371.5,148.1z"/>
		<path d="M396.4,138.5c1.8,2.2,2.7,5.3,2.7,9.5c0,4.1-0.9,7.3-2.7,9.5c-1.8,2.2-4.4,3.3-7.8,3.3c-3.4,0-6-1.1-7.8-3.3
			c-1.8-2.2-2.7-5.4-2.7-9.5c0-4.1,0.9-7.3,2.7-9.5c1.8-2.2,4.4-3.3,7.8-3.3C392,135.2,394.6,136.3,396.4,138.5z M381.6,148
			c0,3.3,0.6,5.8,1.8,7.5c1.2,1.7,2.9,2.5,5.2,2.5c2.3,0,4-0.8,5.2-2.5c1.2-1.7,1.8-4.2,1.8-7.5c0-6.7-2.3-10-7-10
			C383.9,138,381.6,141.3,381.6,148z"/>
		<path d="M422,138.5c1.8,2.2,2.7,5.3,2.7,9.5c0,4.1-0.9,7.3-2.7,9.5c-1.8,2.2-4.4,3.3-7.8,3.3c-3.4,0-6-1.1-7.8-3.3
			c-1.8-2.2-2.7-5.4-2.7-9.5c0-4.1,0.9-7.3,2.7-9.5c1.8-2.2,4.4-3.3,7.8-3.3C417.6,135.2,420.2,136.3,422,138.5z M407.2,148
			c0,3.3,0.6,5.8,1.8,7.5c1.2,1.7,2.9,2.5,5.2,2.5s4-0.8,5.2-2.5c1.2-1.7,1.8-4.2,1.8-7.5c0-6.7-2.3-10-7-10S407.2,141.3,407.2,148z
			"/>
	</g>
</g>
</svg>
