<?xml version="1.0" encoding="utf-8"?>
<!-- Generator: Adobe Illustrator 24.2.3, SVG Export Plug-In . SVG Version: 6.00 Build 0)  -->
<svg version="1.1" id="Layer_1" xmlns="http://www.w3.org/2000/svg" xmlns:xlink="http://www.w3.org/1999/xlink" x="0px" y="0px"
	 viewBox="0 0 1280 290" style="enable-background:new 0 0 1280 290;" xml:space="preserve">
<style type="text/css">
	.st0{display:none;}
	.st1{display:inline;fill:#F2F2F2;}
	.st2{fill:#FFFFFF;}
	.st3{fill:#0A90B7;}
	.st4{enable-background:new    ;}
	.st5{fill:none;}
	.st6{fill:#454545;}
	.st7{fill:#333333;}
	.st8{fill:#C71F25;}
	.st9{fill:none;stroke:#1A4480;stroke-width:1.1571;}
	.st10{fill:none;stroke:#C71F25;stroke-width:1.1571;}
	.st11{fill:#1A4480;}
</style>
<g id="Layer_2_1_" class="st0">
	<rect x="-67" y="-177.5" class="st1" width="2787" height="1656"/>
</g>
<g id="Layer_4">
	<path id="Path_11101_2_" class="st2" d="M1261.9,177.2h-254.4l14.8-32.9l-14.8-33h254.4l16,33L1261.9,177.2z"/>
	<path id="Path_11098_2_" class="st3" d="M975.7,177.2h-172l13.4-32.9l-13.4-33h172l14.5,33L975.7,177.2z"/>
	<path id="Path_11099_2_" class="st3" d="M771.4,177.2h-172l13.4-32.9l-13.4-33h172l14.5,33L771.4,177.2z"/>
	<path id="Path_11100_1_" class="st3" d="M201.4,177.2H0.2v-66h201.2l14.5,33L201.4,177.2z"/>
	<path id="Path_11287_2_" class="st3" d="M568.2,177.2H232.9l13.9-32.9l-13.9-33h335.3l13.9,33L568.2,177.2z"/>
	<path id="Path_11343_2_" class="st3" d="M1265.1,177.1h-35.9v-4.7h32.8l0.6-1.4l11.4-26l0.4-0.9l-0.4-1l-11.4-26l-0.6-1.4h-198.1
		v6.7l-12.1-9l12.1-9v6.5h201.2l14.5,33.1L1265.1,177.1z"/>
</g>
<g id="Layer_3">
	<rect id="Rectangle_2941_20_" x="828.5" y="202.8" class="st2" width="136.8" height="87"/>
	<path id="Path_11091_20_" class="st2" d="M896.9,184.4l23.6,24.8h-47.2L896.9,184.4z"/>
	<rect id="Rectangle_2941_19_" x="624.2" y="202.8" class="st2" width="136.8" height="87"/>
	<path id="Path_11091_19_" class="st2" d="M692.6,184.4l23.6,24.8H669L692.6,184.4z"/>
	<rect id="Rectangle_2941_18_" x="409" y="202.8" class="st2" width="136.8" height="87"/>
	<path id="Path_11091_18_" class="st2" d="M477.8,184.4l23.6,24.8h-47.2L477.8,184.4z"/>
	<rect id="Rectangle_2941_17_" x="253.1" y="202.8" class="st2" width="136.8" height="87"/>
	<path id="Path_11091_17_" class="st2" d="M321.5,184.4l23.6,24.8h-47.2L321.5,184.4z"/>
	<rect id="Rectangle_2941_16_" x="828.5" y="-0.2" class="st2" width="136.8" height="87"/>
	<path id="Path_11091_16_" class="st2" d="M896.9,104.3l23.6-24.8h-47.2L896.9,104.3z"/>
	<rect id="Rectangle_2941_15_" x="624.2" y="-0.2" class="st2" width="136.8" height="87"/>
	<path id="Path_11091_15_" class="st2" d="M692.6,104.3l23.6-24.8H669L692.6,104.3z"/>
	<rect id="Rectangle_2941_14_" x="409" y="-0.2" class="st2" width="136.8" height="87"/>
	<path id="Path_11091_14_" class="st2" d="M477.8,104.3l23.6-24.8h-47.2L477.8,104.3z"/>
	<rect id="Rectangle_2941_13_" x="253.1" y="-0.2" class="st2" width="136.8" height="87"/>
	<path id="Path_11091_13_" class="st2" d="M321.5,104.3l23.6-24.8h-47.2L321.5,104.3z"/>
	<g class="st4">
		<path class="st2" d="M365.8,141.8c0.7,0.7,1.1,1.6,1.1,2.8c0,1.2-0.4,2.2-1.1,2.9c-0.7,0.7-1.8,1-3.2,1l-1.6,0v2.8h-3.1v-10.5h4.8
			C364,140.9,365.1,141.2,365.8,141.8z M363.6,145.8c0.3-0.2,0.4-0.6,0.4-1.1c0-0.5-0.1-0.8-0.4-1.1c-0.3-0.2-0.6-0.4-1.1-0.4H361
			v2.9h1.5C363,146.1,363.3,146,363.6,145.8z"/>
		<path class="st2" d="M372.3,143.5c0.4-0.2,0.9-0.4,1.5-0.4v2.7c-0.1,0-0.3,0-0.5,0c-0.6,0-1.1,0.2-1.5,0.5
			c-0.4,0.3-0.5,0.7-0.5,1.2v3.9h-3v-8.2h3v1.3C371.5,144,371.8,143.7,372.3,143.5z"/>
		<path class="st2" d="M381.6,144.3c0.8,0.8,1.1,1.9,1.1,3.3c0,0.2,0,0.4,0,0.5h-5.5c0.1,0.4,0.3,0.7,0.6,0.9c0.3,0.2,0.6,0.3,1,0.3
			c0.6,0,1.2-0.3,1.8-0.8l1.6,1.5c-0.4,0.5-1,0.8-1.6,1.1c-0.6,0.2-1.3,0.4-2.1,0.4c-0.9,0-1.7-0.2-2.3-0.5
			c-0.7-0.3-1.2-0.8-1.5-1.5s-0.5-1.4-0.5-2.2c0-0.8,0.2-1.6,0.5-2.2c0.4-0.6,0.9-1.1,1.5-1.5c0.6-0.3,1.4-0.5,2.2-0.5
			C379.8,143.1,380.9,143.5,381.6,144.3z M379.4,145.5c-0.2-0.3-0.5-0.4-0.9-0.4c-0.4,0-0.6,0.1-0.9,0.4s-0.4,0.6-0.5,1h2.6
			C379.8,146.1,379.6,145.8,379.4,145.5z"/>
		<path class="st2" d="M391.3,143.6c0.6,0.4,1,0.8,1.3,1.5s0.5,1.4,0.5,2.2c0,0.8-0.2,1.6-0.5,2.2c-0.3,0.6-0.7,1.1-1.3,1.4
			c-0.6,0.3-1.2,0.5-1.9,0.5c-0.5,0-0.9-0.1-1.3-0.3s-0.7-0.4-1-0.8v3.9h-3v-11.1h3v0.9c0.3-0.3,0.6-0.6,1-0.8
			c0.4-0.2,0.8-0.3,1.3-0.3C390,143.1,390.7,143.3,391.3,143.6z M389.6,148.6c0.3-0.3,0.4-0.8,0.4-1.3s-0.1-1-0.4-1.3
			c-0.3-0.3-0.6-0.5-1.1-0.5c-0.4,0-0.8,0.2-1.1,0.5c-0.3,0.3-0.4,0.8-0.4,1.3s0.1,1,0.4,1.3c0.3,0.3,0.6,0.5,1.1,0.5
			C389,149.1,389.3,148.9,389.6,148.6z"/>
		<path class="st2" d="M400.8,143.9c0.6,0.5,1,1.3,1,2.2v5.3h-3v-0.9c-0.2,0.3-0.6,0.6-1,0.8c-0.4,0.2-0.9,0.3-1.4,0.3
			c-0.9,0-1.5-0.2-2-0.7c-0.5-0.5-0.7-1.1-0.7-1.9c0-0.8,0.3-1.4,0.8-1.8c0.5-0.4,1.3-0.6,2.3-0.7h2v0c0-0.3-0.1-0.6-0.4-0.8
			c-0.2-0.2-0.6-0.3-1-0.3c-0.3,0-0.7,0-1.1,0.1c-0.4,0.1-0.9,0.2-1.3,0.4l-0.8-2c1.4-0.6,2.7-0.8,3.9-0.8
			C399.3,143.1,400.2,143.3,400.8,143.9z M398.3,149.3c0.2-0.1,0.4-0.4,0.5-0.6v-0.7h-1.4c-0.6,0-0.9,0.3-0.9,0.8
			c0,0.3,0.1,0.5,0.2,0.6c0.2,0.1,0.4,0.2,0.7,0.2C397.7,149.5,398,149.4,398.3,149.3z"/>
		<path class="st2" d="M407.5,143.5c0.4-0.2,0.9-0.4,1.5-0.4v2.7c-0.1,0-0.3,0-0.5,0c-0.6,0-1.1,0.2-1.5,0.5
			c-0.4,0.3-0.5,0.7-0.5,1.2v3.9h-3v-8.2h3v1.3C406.7,144,407.1,143.7,407.5,143.5z"/>
		<path class="st2" d="M416.4,143.9c0.6,0.5,1,1.3,1,2.2v5.3h-3v-0.9c-0.2,0.3-0.6,0.6-1,0.8c-0.4,0.2-0.9,0.3-1.4,0.3
			c-0.9,0-1.5-0.2-2-0.7c-0.5-0.5-0.7-1.1-0.7-1.9c0-0.8,0.3-1.4,0.8-1.8c0.5-0.4,1.3-0.6,2.3-0.7h2v0c0-0.3-0.1-0.6-0.4-0.8
			c-0.2-0.2-0.6-0.3-1-0.3c-0.3,0-0.7,0-1.1,0.1c-0.4,0.1-0.9,0.2-1.3,0.4l-0.8-2c1.4-0.6,2.7-0.8,3.9-0.8
			C414.8,143.1,415.7,143.3,416.4,143.9z M413.8,149.3c0.2-0.1,0.4-0.4,0.5-0.6v-0.7H413c-0.6,0-0.9,0.3-0.9,0.8
			c0,0.3,0.1,0.5,0.2,0.6c0.2,0.1,0.4,0.2,0.7,0.2C413.3,149.5,413.6,149.4,413.8,149.3z"/>
		<path class="st2" d="M424.5,151c-0.3,0.2-0.6,0.3-1.1,0.4c-0.4,0.1-0.8,0.1-1.3,0.1c-0.9,0-1.6-0.2-2.1-0.7
			c-0.5-0.5-0.8-1.1-0.8-2v-3.3h-1.1v-1.9h1.1v-2.3h3v2.3h2v1.9h-2v2.8c0,0.3,0.1,0.5,0.2,0.6c0.1,0.1,0.3,0.2,0.5,0.2
			c0.2,0,0.5-0.1,0.9-0.2L424.5,151z"/>
		<path class="st2" d="M428.3,139.8c0.3,0.3,0.4,0.7,0.4,1.1s-0.1,0.8-0.4,1.1s-0.7,0.4-1.1,0.4s-0.8-0.1-1.1-0.4
			c-0.3-0.3-0.4-0.7-0.4-1.1s0.1-0.8,0.4-1.1c0.3-0.3,0.7-0.4,1.1-0.4S428,139.5,428.3,139.8z M425.7,143.2h3v8.2h-3V143.2z"/>
		<path class="st2" d="M436.8,143.6c0.7,0.3,1.2,0.8,1.6,1.5s0.6,1.4,0.6,2.2c0,0.8-0.2,1.6-0.6,2.2c-0.4,0.6-0.9,1.1-1.6,1.5
			c-0.7,0.3-1.5,0.5-2.4,0.5c-0.9,0-1.7-0.2-2.4-0.5c-0.7-0.3-1.2-0.8-1.6-1.5c-0.4-0.6-0.6-1.4-0.6-2.2c0-0.8,0.2-1.6,0.6-2.2
			s0.9-1.1,1.6-1.5c0.7-0.3,1.5-0.5,2.4-0.5C435.4,143.1,436.2,143.3,436.8,143.6z M433.4,146c-0.3,0.3-0.4,0.8-0.4,1.3
			c0,0.5,0.1,1,0.4,1.3c0.3,0.3,0.6,0.5,1.1,0.5c0.4,0,0.8-0.2,1.1-0.5c0.3-0.3,0.4-0.8,0.4-1.3c0-0.5-0.1-1-0.4-1.3
			s-0.6-0.5-1.1-0.5C434,145.5,433.7,145.7,433.4,146z"/>
		<path class="st2" d="M447.4,143.5c0.4,0.3,0.8,0.6,1,1.1c0.2,0.5,0.4,1,0.4,1.6v5.2h-3v-4.3c0-0.4-0.1-0.7-0.3-1
			c-0.2-0.2-0.5-0.4-0.8-0.4c-0.4,0-0.7,0.2-1,0.5c-0.2,0.3-0.4,0.7-0.4,1.1v4h-3v-8.2h3v1.3c0.3-0.4,0.7-0.8,1.1-1
			c0.4-0.2,0.9-0.4,1.5-0.4C446.4,143.1,446.9,143.2,447.4,143.5z"/>
	</g>
	<g class="st4">
		<path class="st2" d="M671.8,151.4l-1.4-2.8h-1.7v2.8h-3.1v-10.5h4.9c1.4,0,2.5,0.3,3.3,1c0.8,0.7,1.2,1.6,1.2,2.8
			c0,0.8-0.2,1.4-0.5,2c-0.3,0.6-0.7,1-1.3,1.3l2.1,3.4H671.8z M668.8,146.1h1.8c0.5,0,0.8-0.1,1.1-0.4c0.3-0.2,0.4-0.6,0.4-1.1
			c0-0.5-0.1-0.8-0.4-1.1s-0.6-0.4-1.1-0.4h-1.8V146.1z"/>
		<path class="st2" d="M683.4,144.3c0.8,0.8,1.1,1.9,1.1,3.3c0,0.2,0,0.4,0,0.5H679c0.1,0.4,0.3,0.7,0.6,0.9s0.6,0.3,1,0.3
			c0.6,0,1.2-0.3,1.8-0.8l1.6,1.5c-0.4,0.5-1,0.8-1.6,1.1c-0.6,0.2-1.3,0.4-2.1,0.4c-0.9,0-1.7-0.2-2.3-0.5
			c-0.7-0.3-1.2-0.8-1.5-1.5c-0.4-0.6-0.5-1.4-0.5-2.2c0-0.8,0.2-1.6,0.5-2.2c0.4-0.6,0.9-1.1,1.5-1.5c0.7-0.3,1.4-0.5,2.2-0.5
			C681.6,143.1,682.6,143.5,683.4,144.3z M681.2,145.5c-0.2-0.3-0.5-0.4-0.9-0.4c-0.3,0-0.6,0.1-0.9,0.4c-0.2,0.2-0.4,0.6-0.5,1h2.6
			C681.5,146.1,681.4,145.8,681.2,145.5z"/>
		<path class="st2" d="M684.4,143.2h3.1l1.5,5.4l1.5-5.4h3l-3,8.2h-3.1L684.4,143.2z"/>
		<path class="st2" d="M697,139.8c0.3,0.3,0.4,0.7,0.4,1.1s-0.1,0.8-0.4,1.1s-0.7,0.4-1.1,0.4s-0.8-0.1-1.1-0.4
			c-0.3-0.3-0.4-0.7-0.4-1.1s0.1-0.8,0.4-1.1c0.3-0.3,0.7-0.4,1.1-0.4S696.7,139.5,697,139.8z M694.4,143.2h3v8.2h-3V143.2z"/>
		<path class="st2" d="M706.1,144.3c0.8,0.8,1.1,1.9,1.1,3.3c0,0.2,0,0.4,0,0.5h-5.5c0.1,0.4,0.3,0.7,0.6,0.9c0.3,0.2,0.6,0.3,1,0.3
			c0.6,0,1.2-0.3,1.8-0.8l1.6,1.5c-0.4,0.5-1,0.8-1.6,1.1s-1.3,0.4-2.1,0.4c-0.9,0-1.7-0.2-2.3-0.5c-0.7-0.3-1.2-0.8-1.5-1.5
			c-0.4-0.6-0.5-1.4-0.5-2.2c0-0.8,0.2-1.6,0.5-2.2c0.4-0.6,0.9-1.1,1.5-1.5c0.6-0.3,1.4-0.5,2.2-0.5
			C704.3,143.1,705.3,143.5,706.1,144.3z M703.9,145.5c-0.2-0.3-0.5-0.4-0.9-0.4c-0.4,0-0.6,0.1-0.9,0.4c-0.2,0.2-0.4,0.6-0.5,1h2.6
			C704.2,146.1,704.1,145.8,703.9,145.5z"/>
		<path class="st2" d="M707.1,143.2h3.1l1.5,5.2l1.4-5.2h2.9l1.5,5.2l1.4-5.2h2.9l-3,8.2h-3l-1.4-4.7l-1.4,4.7h-3L707.1,143.2z"/>
	</g>
	<g class="st4">
		<path class="st2" d="M850.9,151.4l-0.6-1.7H846l-0.6,1.7h-3.2l4.5-10.5h3.2l4.3,10.5H850.9z M846.9,147.4h2.6l-1.3-3.4
			L846.9,147.4z"/>
		<path class="st2" d="M862.9,143.2v8.2h-3v-1.2c-0.3,0.4-0.6,0.8-1.1,1c-0.4,0.2-0.9,0.3-1.4,0.3c-0.6,0-1.1-0.1-1.5-0.4
			c-0.4-0.3-0.8-0.6-1-1.1s-0.4-1-0.4-1.7v-5.2h3v4.3c0,0.4,0.1,0.7,0.3,1c0.2,0.2,0.5,0.4,0.8,0.4c0.4,0,0.7-0.2,0.9-0.5
			s0.3-0.7,0.3-1.1v-4H862.9z"/>
		<path class="st2" d="M870.3,151c-0.3,0.2-0.6,0.3-1.1,0.4c-0.4,0.1-0.8,0.1-1.3,0.1c-0.9,0-1.6-0.2-2.1-0.7
			c-0.5-0.5-0.8-1.1-0.8-2v-3.3H864v-1.9h1.1v-2.3h3v2.3h2v1.9h-2v2.8c0,0.3,0.1,0.5,0.2,0.6c0.1,0.1,0.3,0.2,0.5,0.2
			c0.2,0,0.5-0.1,0.9-0.2L870.3,151z"/>
		<path class="st2" d="M879.2,143.9c0.5,0.6,0.8,1.3,0.8,2.3v5.2h-3v-4.3c0-0.4-0.1-0.7-0.3-1c-0.2-0.2-0.5-0.4-0.9-0.4
			c-0.4,0-0.7,0.2-1,0.5c-0.2,0.3-0.4,0.7-0.4,1.1v4h-3v-11.1h3v4.2c0.3-0.4,0.7-0.8,1.1-1c0.4-0.2,0.9-0.4,1.5-0.4
			C878,143.1,878.7,143.4,879.2,143.9z"/>
		<path class="st2" d="M888,143.6c0.7,0.3,1.2,0.8,1.6,1.5s0.6,1.4,0.6,2.2c0,0.8-0.2,1.6-0.6,2.2c-0.4,0.6-0.9,1.1-1.6,1.5
			c-0.7,0.3-1.5,0.5-2.4,0.5s-1.7-0.2-2.4-0.5c-0.7-0.3-1.2-0.8-1.6-1.5c-0.4-0.6-0.6-1.4-0.6-2.2c0-0.8,0.2-1.6,0.6-2.2
			s0.9-1.1,1.6-1.5c0.7-0.3,1.5-0.5,2.4-0.5S887.3,143.3,888,143.6z M884.5,146c-0.3,0.3-0.4,0.8-0.4,1.3c0,0.5,0.1,1,0.4,1.3
			c0.3,0.3,0.6,0.5,1.1,0.5c0.4,0,0.8-0.2,1.1-0.5c0.3-0.3,0.4-0.8,0.4-1.3c0-0.5-0.1-1-0.4-1.3c-0.3-0.3-0.6-0.5-1.1-0.5
			C885.1,145.5,884.8,145.7,884.5,146z"/>
		<path class="st2" d="M895.4,143.5c0.4-0.2,0.9-0.4,1.5-0.4v2.7c-0.1,0-0.3,0-0.5,0c-0.6,0-1.1,0.2-1.5,0.5
			c-0.4,0.3-0.5,0.7-0.5,1.2v3.9h-3v-8.2h3v1.3C894.6,144,895,143.7,895.4,143.5z"/>
		<path class="st2" d="M900.6,139.8c0.3,0.3,0.4,0.7,0.4,1.1s-0.1,0.8-0.4,1.1s-0.7,0.4-1.1,0.4s-0.8-0.1-1.1-0.4
			c-0.3-0.3-0.4-0.7-0.4-1.1s0.1-0.8,0.4-1.1c0.3-0.3,0.7-0.4,1.1-0.4S900.3,139.5,900.6,139.8z M898,143.2h3v8.2h-3V143.2z"/>
		<path class="st2" d="M902.5,143.2h7.3v1.8l-3.7,4.1h3.8v2.3h-7.6v-1.8l3.7-4.1h-3.5V143.2z"/>
		<path class="st2" d="M917.8,143.9c0.6,0.5,1,1.3,1,2.2v5.3h-3v-0.9c-0.2,0.3-0.6,0.6-1,0.8c-0.4,0.2-0.9,0.3-1.4,0.3
			c-0.9,0-1.5-0.2-2-0.7s-0.7-1.1-0.7-1.9c0-0.8,0.3-1.4,0.8-1.8c0.5-0.4,1.3-0.6,2.3-0.7h2v0c0-0.3-0.1-0.6-0.4-0.8
			c-0.2-0.2-0.6-0.3-1-0.3c-0.3,0-0.7,0-1.1,0.1c-0.4,0.1-0.9,0.2-1.3,0.4l-0.8-2c1.4-0.6,2.7-0.8,3.9-0.8
			C916.2,143.1,917.1,143.3,917.8,143.9z M915.2,149.3c0.2-0.1,0.4-0.4,0.5-0.6v-0.7h-1.4c-0.6,0-0.9,0.3-0.9,0.8
			c0,0.3,0.1,0.5,0.2,0.6c0.2,0.1,0.4,0.2,0.7,0.2C914.7,149.5,915,149.4,915.2,149.3z"/>
		<path class="st2" d="M925.9,151c-0.3,0.2-0.6,0.3-1.1,0.4c-0.4,0.1-0.8,0.1-1.3,0.1c-0.9,0-1.6-0.2-2.1-0.7
			c-0.5-0.5-0.8-1.1-0.8-2v-3.3h-1.1v-1.9h1.1v-2.3h3v2.3h2v1.9h-2v2.8c0,0.3,0.1,0.5,0.2,0.6s0.3,0.2,0.5,0.2
			c0.2,0,0.5-0.1,0.9-0.2L925.9,151z"/>
		<path class="st2" d="M929.7,139.8c0.3,0.3,0.4,0.7,0.4,1.1s-0.1,0.8-0.4,1.1s-0.7,0.4-1.1,0.4s-0.8-0.1-1.1-0.4
			c-0.3-0.3-0.4-0.7-0.4-1.1s0.1-0.8,0.4-1.1c0.3-0.3,0.7-0.4,1.1-0.4S929.4,139.5,929.7,139.8z M927.1,143.2h3v8.2h-3V143.2z"/>
		<path class="st2" d="M938.2,143.6c0.7,0.3,1.2,0.8,1.6,1.5s0.6,1.4,0.6,2.2c0,0.8-0.2,1.6-0.6,2.2c-0.4,0.6-0.9,1.1-1.6,1.5
			c-0.7,0.3-1.5,0.5-2.4,0.5s-1.7-0.2-2.4-0.5c-0.7-0.3-1.2-0.8-1.6-1.5c-0.4-0.6-0.6-1.4-0.6-2.2c0-0.8,0.2-1.6,0.6-2.2
			s0.9-1.1,1.6-1.5c0.7-0.3,1.5-0.5,2.4-0.5S937.5,143.3,938.2,143.6z M934.8,146c-0.3,0.3-0.4,0.8-0.4,1.3c0,0.5,0.1,1,0.4,1.3
			c0.3,0.3,0.6,0.5,1.1,0.5c0.4,0,0.8-0.2,1.1-0.5c0.3-0.3,0.4-0.8,0.4-1.3c0-0.5-0.1-1-0.4-1.3s-0.6-0.5-1.1-0.5
			C935.4,145.5,935,145.7,934.8,146z"/>
		<path class="st2" d="M948.7,143.5c0.4,0.3,0.8,0.6,1,1.1c0.2,0.5,0.4,1,0.4,1.6v5.2h-3v-4.3c0-0.4-0.1-0.7-0.3-1
			c-0.2-0.2-0.5-0.4-0.8-0.4c-0.4,0-0.7,0.2-1,0.5c-0.2,0.3-0.4,0.7-0.4,1.1v4h-3v-8.2h3v1.3c0.3-0.4,0.7-0.8,1.1-1
			c0.4-0.2,0.9-0.4,1.5-0.4C947.8,143.1,948.3,143.2,948.7,143.5z"/>
	</g>
	<rect x="15" y="128.2" class="st5" width="178" height="34.8"/>
	<g class="st4">
		<path class="st2" d="M85.5,133c-0.7-0.2-1.2-0.3-1.6-0.3c-0.3,0-0.5,0.1-0.6,0.2c-0.2,0.1-0.2,0.3-0.2,0.5c0,0.3,0.1,0.5,0.4,0.7
			c0.3,0.2,0.8,0.3,1.4,0.5c0.7,0.2,1.4,0.4,1.8,0.6s0.9,0.5,1.3,1s0.5,1,0.5,1.7c0,0.7-0.2,1.3-0.6,1.9c-0.4,0.5-0.9,0.9-1.6,1.1
			c-0.7,0.2-1.4,0.4-2.2,0.4c-0.9,0-1.8-0.2-2.7-0.5c-0.9-0.3-1.7-0.7-2.3-1.3l1.2-2.4c0.5,0.5,1.2,0.8,1.9,1.2
			c0.8,0.3,1.4,0.5,2,0.5c0.3,0,0.6-0.1,0.8-0.2s0.3-0.3,0.3-0.6c0-0.3-0.2-0.5-0.5-0.7s-0.8-0.3-1.4-0.5c-0.7-0.2-1.3-0.4-1.8-0.6
			s-0.9-0.5-1.2-1s-0.5-1-0.5-1.7c0-0.7,0.2-1.3,0.5-1.8s0.9-0.9,1.5-1.2c0.7-0.3,1.4-0.4,2.3-0.4c0.8,0,1.6,0.1,2.4,0.3
			c0.8,0.2,1.5,0.5,2,0.9l-1.2,2.4C86.8,133.5,86.2,133.2,85.5,133z"/>
		<path class="st2" d="M96.5,133.9c0.8,0.8,1.1,1.9,1.1,3.3c0,0.2,0,0.4,0,0.5h-5.5c0.1,0.4,0.3,0.7,0.6,0.9c0.3,0.2,0.6,0.3,1,0.3
			c0.6,0,1.2-0.3,1.8-0.8l1.6,1.5c-0.4,0.5-1,0.8-1.6,1.1c-0.6,0.2-1.3,0.4-2.1,0.4c-0.9,0-1.7-0.2-2.3-0.5
			c-0.7-0.3-1.2-0.8-1.5-1.5s-0.5-1.4-0.5-2.2c0-0.8,0.2-1.6,0.5-2.2c0.4-0.6,0.9-1.1,1.5-1.5c0.6-0.3,1.4-0.5,2.2-0.5
			C94.7,132.7,95.7,133.1,96.5,133.9z M94.3,135.1c-0.2-0.3-0.5-0.4-0.9-0.4c-0.4,0-0.6,0.1-0.9,0.4s-0.4,0.6-0.5,1h2.6
			C94.6,135.7,94.5,135.4,94.3,135.1z"/>
		<path class="st2" d="M98.9,129.8h3V141h-3V129.8z"/>
		<path class="st2" d="M110.6,133.9c0.8,0.8,1.1,1.9,1.1,3.3c0,0.2,0,0.4,0,0.5h-5.5c0.1,0.4,0.3,0.7,0.6,0.9c0.3,0.2,0.6,0.3,1,0.3
			c0.6,0,1.2-0.3,1.8-0.8l1.6,1.5c-0.4,0.5-1,0.8-1.6,1.1c-0.6,0.2-1.3,0.4-2.1,0.4c-0.9,0-1.7-0.2-2.3-0.5
			c-0.7-0.3-1.2-0.8-1.5-1.5s-0.5-1.4-0.5-2.2c0-0.8,0.2-1.6,0.5-2.2c0.4-0.6,0.9-1.1,1.5-1.5c0.6-0.3,1.4-0.5,2.2-0.5
			C108.8,132.7,109.9,133.1,110.6,133.9z M108.4,135.1c-0.2-0.3-0.5-0.4-0.9-0.4c-0.4,0-0.6,0.1-0.9,0.4s-0.4,0.6-0.5,1h2.6
			C108.8,135.7,108.6,135.4,108.4,135.1z"/>
		<path class="st2" d="M117.5,135.4c-0.2-0.1-0.5-0.2-0.8-0.2c-0.4,0-0.7,0.2-1,0.5c-0.3,0.3-0.4,0.7-0.4,1.3c0,0.5,0.1,1,0.4,1.3
			s0.6,0.5,1,0.5c0.6,0,1-0.3,1.3-0.9l2.4,1.2c-0.3,0.7-0.8,1.2-1.5,1.6s-1.4,0.6-2.3,0.6c-0.9,0-1.6-0.2-2.2-0.5
			c-0.6-0.3-1.1-0.8-1.5-1.5s-0.5-1.4-0.5-2.2c0-0.8,0.2-1.6,0.5-2.2c0.4-0.6,0.9-1.1,1.5-1.5c0.6-0.3,1.4-0.5,2.2-0.5
			c0.8,0,1.6,0.2,2.3,0.6s1.2,0.9,1.5,1.6L118,136C117.9,135.7,117.7,135.5,117.5,135.4z"/>
		<path class="st2" d="M127,140.6c-0.3,0.2-0.6,0.3-1.1,0.4c-0.4,0.1-0.8,0.1-1.3,0.1c-0.9,0-1.6-0.2-2.1-0.7
			c-0.5-0.5-0.8-1.1-0.8-2v-3.3h-1.1v-1.9h1.1v-2.3h3v2.3h2v1.9h-2v2.8c0,0.3,0.1,0.5,0.2,0.6c0.1,0.1,0.3,0.2,0.5,0.2
			c0.2,0,0.5-0.1,0.9-0.2L127,140.6z"/>
	</g>
	<g class="st4">
		<path class="st2" d="M35.2,159l-0.6-1.7h-4.2l-0.6,1.7h-3.2l4.5-10.5h3.2l4.3,10.5H35.2z M31.2,155h2.6l-1.3-3.4L31.2,155z"/>
		<path class="st2" d="M47.2,150.8v8.2h-3v-1.2c-0.3,0.4-0.6,0.8-1.1,1c-0.4,0.2-0.9,0.3-1.4,0.3c-0.6,0-1.1-0.1-1.5-0.4
			s-0.8-0.6-1-1.1c-0.2-0.5-0.4-1-0.4-1.7v-5.2h3v4.3c0,0.4,0.1,0.7,0.3,1c0.2,0.2,0.5,0.4,0.8,0.4c0.4,0,0.7-0.2,0.9-0.5
			c0.2-0.3,0.3-0.7,0.3-1.1v-4H47.2z"/>
		<path class="st2" d="M54.6,158.6c-0.3,0.2-0.6,0.3-1.1,0.4s-0.8,0.1-1.3,0.1c-0.9,0-1.6-0.2-2.1-0.7c-0.5-0.5-0.8-1.1-0.8-2v-3.3
			h-1.1v-1.9h1.1v-2.3h3v2.3h2v1.9h-2v2.8c0,0.3,0.1,0.5,0.2,0.6c0.1,0.1,0.3,0.2,0.5,0.2c0.2,0,0.5-0.1,0.9-0.2L54.6,158.6z"/>
		<path class="st2" d="M63.6,151.5c0.5,0.6,0.8,1.3,0.8,2.3v5.2h-3v-4.3c0-0.4-0.1-0.7-0.3-1c-0.2-0.2-0.5-0.4-0.9-0.4
			c-0.4,0-0.7,0.2-1,0.4c-0.2,0.3-0.4,0.7-0.4,1.1v4h-3v-11.1h3v4.2c0.3-0.4,0.7-0.8,1.1-1s0.9-0.4,1.5-0.4
			C62.3,150.7,63,151,63.6,151.5z"/>
		<path class="st2" d="M72.3,151.2c0.7,0.3,1.2,0.8,1.6,1.5c0.4,0.6,0.6,1.4,0.6,2.2c0,0.8-0.2,1.6-0.6,2.2s-0.9,1.1-1.6,1.5
			c-0.7,0.3-1.5,0.5-2.4,0.5c-0.9,0-1.7-0.2-2.4-0.5c-0.7-0.3-1.2-0.8-1.6-1.5s-0.6-1.4-0.6-2.2c0-0.8,0.2-1.6,0.6-2.2
			c0.4-0.6,0.9-1.1,1.6-1.5s1.5-0.5,2.4-0.5C70.8,150.7,71.6,150.9,72.3,151.2z M68.8,153.6c-0.3,0.3-0.4,0.8-0.4,1.3
			c0,0.6,0.1,1,0.4,1.3s0.6,0.5,1.1,0.5c0.4,0,0.8-0.2,1.1-0.5s0.4-0.8,0.4-1.3c0-0.5-0.1-1-0.4-1.3c-0.3-0.3-0.6-0.5-1.1-0.5
			C69.5,153.1,69.1,153.3,68.8,153.6z"/>
		<path class="st2" d="M79.8,151c0.4-0.2,0.9-0.4,1.5-0.4v2.7c-0.1,0-0.3,0-0.5,0c-0.6,0-1.1,0.2-1.5,0.4c-0.4,0.3-0.5,0.7-0.5,1.2
			v3.9h-3v-8.2h3v1.3C79,151.6,79.3,151.3,79.8,151z"/>
		<path class="st2" d="M84.9,147.3c0.3,0.3,0.4,0.7,0.4,1.1c0,0.5-0.1,0.8-0.4,1.1c-0.3,0.3-0.7,0.4-1.1,0.4s-0.8-0.1-1.1-0.4
			c-0.3-0.3-0.4-0.7-0.4-1.1c0-0.5,0.1-0.8,0.4-1.1c0.3-0.3,0.7-0.4,1.1-0.4S84.6,147.1,84.9,147.3z M82.3,150.8h3v8.2h-3V150.8z"/>
		<path class="st2" d="M86.8,150.8h7.3v1.8l-3.7,4.1h3.8v2.3h-7.6v-1.8l3.7-4.1h-3.5V150.8z"/>
		<path class="st2" d="M102.1,151.5c0.6,0.5,1,1.3,1,2.2v5.3h-3v-0.9c-0.2,0.3-0.6,0.6-1,0.8c-0.4,0.2-0.9,0.3-1.4,0.3
			c-0.9,0-1.5-0.2-2-0.7c-0.5-0.5-0.7-1.1-0.7-1.9c0-0.8,0.3-1.4,0.8-1.8c0.5-0.4,1.3-0.6,2.3-0.7h2v0c0-0.3-0.1-0.6-0.4-0.8
			c-0.2-0.2-0.6-0.3-1-0.3c-0.3,0-0.7,0.1-1.1,0.2c-0.4,0.1-0.9,0.2-1.3,0.4l-0.8-2c1.4-0.6,2.7-0.8,3.9-0.8
			C100.6,150.7,101.5,150.9,102.1,151.5z M99.6,156.9c0.2-0.2,0.4-0.4,0.5-0.6v-0.7h-1.4c-0.6,0-0.9,0.3-0.9,0.8
			c0,0.3,0.1,0.5,0.2,0.6c0.2,0.1,0.4,0.2,0.7,0.2C99,157.1,99.3,157,99.6,156.9z"/>
		<path class="st2" d="M110.2,158.6c-0.3,0.2-0.6,0.3-1.1,0.4s-0.8,0.1-1.3,0.1c-0.9,0-1.6-0.2-2.1-0.7c-0.5-0.5-0.8-1.1-0.8-2v-3.3
			h-1.1v-1.9h1.1v-2.3h3v2.3h2v1.9h-2v2.8c0,0.3,0.1,0.5,0.2,0.6c0.1,0.1,0.3,0.2,0.5,0.2c0.2,0,0.5-0.1,0.9-0.2L110.2,158.6z"/>
		<path class="st2" d="M114,147.3c0.3,0.3,0.4,0.7,0.4,1.1c0,0.5-0.1,0.8-0.4,1.1c-0.3,0.3-0.7,0.4-1.1,0.4s-0.8-0.1-1.1-0.4
			c-0.3-0.3-0.4-0.7-0.4-1.1c0-0.5,0.1-0.8,0.4-1.1c0.3-0.3,0.7-0.4,1.1-0.4S113.7,147.1,114,147.3z M111.4,150.8h3v8.2h-3V150.8z"
			/>
		<path class="st2" d="M122.6,151.2c0.7,0.3,1.2,0.8,1.6,1.5c0.4,0.6,0.6,1.4,0.6,2.2c0,0.8-0.2,1.6-0.6,2.2s-0.9,1.1-1.6,1.5
			c-0.7,0.3-1.5,0.5-2.4,0.5c-0.9,0-1.7-0.2-2.4-0.5c-0.7-0.3-1.2-0.8-1.6-1.5s-0.6-1.4-0.6-2.2c0-0.8,0.2-1.6,0.6-2.2
			c0.4-0.6,0.9-1.1,1.6-1.5s1.5-0.5,2.4-0.5C121.1,150.7,121.9,150.9,122.6,151.2z M119.1,153.6c-0.3,0.3-0.4,0.8-0.4,1.3
			c0,0.6,0.1,1,0.4,1.3s0.6,0.5,1.1,0.5c0.4,0,0.8-0.2,1.1-0.5s0.4-0.8,0.4-1.3c0-0.5-0.1-1-0.4-1.3c-0.3-0.3-0.6-0.5-1.1-0.5
			C119.7,153.1,119.4,153.3,119.1,153.6z"/>
		<path class="st2" d="M133.1,151.1c0.4,0.3,0.8,0.6,1,1.1s0.4,1,0.4,1.6v5.2h-3v-4.3c0-0.4-0.1-0.7-0.3-1c-0.2-0.2-0.5-0.4-0.8-0.4
			c-0.4,0-0.7,0.2-1,0.4c-0.2,0.3-0.4,0.7-0.4,1.1v4h-3v-8.2h3v1.3c0.3-0.4,0.7-0.8,1.1-1c0.4-0.2,0.9-0.4,1.5-0.4
			C132.1,150.7,132.6,150.8,133.1,151.1z"/>
		<path class="st2" d="M147.1,149.4c0.7,0.7,1.1,1.6,1.1,2.8c0,1.2-0.4,2.2-1.1,2.9c-0.7,0.7-1.8,1-3.2,1l-1.6,0v2.8h-3.1v-10.5h4.8
			C145.3,148.4,146.4,148.8,147.1,149.4z M144.9,153.3c0.3-0.2,0.4-0.6,0.4-1.1c0-0.5-0.1-0.8-0.4-1.1c-0.3-0.2-0.6-0.4-1.1-0.4
			h-1.5v2.9h1.5C144.3,153.7,144.7,153.6,144.9,153.3z"/>
		<path class="st2" d="M156,151.5c0.6,0.5,1,1.3,1,2.2v5.3h-3v-0.9c-0.2,0.3-0.6,0.6-1,0.8c-0.4,0.2-0.9,0.3-1.4,0.3
			c-0.9,0-1.5-0.2-2-0.7c-0.5-0.5-0.7-1.1-0.7-1.9c0-0.8,0.3-1.4,0.8-1.8c0.5-0.4,1.3-0.6,2.3-0.7h2v0c0-0.3-0.1-0.6-0.4-0.8
			c-0.2-0.2-0.6-0.3-1-0.3c-0.3,0-0.7,0.1-1.1,0.2c-0.4,0.1-0.9,0.2-1.3,0.4l-0.8-2c1.4-0.6,2.7-0.8,3.9-0.8
			C154.5,150.7,155.4,150.9,156,151.5z M153.5,156.9c0.2-0.2,0.4-0.4,0.5-0.6v-0.7h-1.4c-0.6,0-0.9,0.3-0.9,0.8
			c0,0.3,0.1,0.5,0.2,0.6c0.2,0.1,0.4,0.2,0.7,0.2C152.9,157.1,153.2,157,153.5,156.9z"/>
		<path class="st2" d="M164.2,158.6c-0.3,0.2-0.6,0.3-1.1,0.4s-0.8,0.1-1.3,0.1c-0.9,0-1.6-0.2-2.1-0.7c-0.5-0.5-0.8-1.1-0.8-2v-3.3
			h-1.1v-1.9h1.1v-2.3h3v2.3h2v1.9h-2v2.8c0,0.3,0.1,0.5,0.2,0.6c0.1,0.1,0.3,0.2,0.5,0.2c0.2,0,0.5-0.1,0.9-0.2L164.2,158.6z"/>
		<path class="st2" d="M173.2,151.5c0.5,0.6,0.8,1.3,0.8,2.3v5.2h-3v-4.3c0-0.4-0.1-0.7-0.3-1c-0.2-0.2-0.5-0.4-0.9-0.4
			c-0.4,0-0.7,0.2-1,0.4c-0.2,0.3-0.4,0.7-0.4,1.1v4h-3v-11.1h3v4.2c0.3-0.4,0.7-0.8,1.1-1s0.9-0.4,1.5-0.4
			C171.9,150.7,172.6,151,173.2,151.5z"/>
	</g>
</g>
<g id="Layer_1_1_">
	<path id="Path_11341_2_" class="st3" d="M1018.1,172.3h-3.5l1.3-3.3l9-22.3l1.1-2.7l-1.1-2.7l-9.1-22.4l-1.3-3.3h29.2V111h-36.3
		l13,32.2l0.4,0.9l-0.4,0.9l-13,32.1H1209v6.7l12.1-9l-12.1-9v6.5L1018.1,172.3L1018.1,172.3z"/>
	<path id="Path_11342_2_" class="st3" d="M1209,170v-4.1l12.1,9l-12.1,9v-6.7h-201.5l13-32.1l0.4-0.9l-0.4-0.9l-13-32.2h36.3v4.7
		h-29.2l1.3,3.3l9.1,22.4l1.1,2.7l-1.1,2.7l-9,22.3l-1.3,3.3H1209V170z"/>
	<g class="st4">
		<path class="st6" d="M1058.3,143.6c-0.5-0.3-0.9-0.4-1.3-0.4c-0.5,0-0.9,0.1-1.3,0.4s-0.7,0.6-0.9,1c-0.2,0.4-0.3,0.9-0.3,1.4
			c0,0.5,0.1,1,0.3,1.4c0.2,0.4,0.5,0.8,0.9,1s0.8,0.4,1.3,0.4c0.4,0,0.8-0.1,1.3-0.3c0.5-0.2,0.9-0.5,1.2-0.9l1.8,1.9
			c-0.6,0.6-1.3,1.1-2.1,1.5c-0.8,0.4-1.6,0.6-2.4,0.6c-1,0-2-0.2-2.8-0.7c-0.8-0.5-1.5-1.1-2-2c-0.5-0.8-0.7-1.8-0.7-2.8
			c0-1,0.2-1.9,0.7-2.8s1.2-1.5,2-1.9s1.8-0.7,2.9-0.7c0.8,0,1.6,0.2,2.4,0.5c0.8,0.3,1.4,0.8,2,1.4l-1.8,2.1
			C1059.1,144.2,1058.7,143.9,1058.3,143.6z"/>
		<path class="st6" d="M1068.4,143.6c0.7,0.3,1.2,0.8,1.6,1.5s0.6,1.4,0.6,2.2c0,0.8-0.2,1.6-0.6,2.2c-0.4,0.6-0.9,1.1-1.6,1.5
			c-0.7,0.3-1.5,0.5-2.4,0.5c-0.9,0-1.7-0.2-2.4-0.5c-0.7-0.3-1.2-0.8-1.6-1.5c-0.4-0.6-0.6-1.4-0.6-2.2c0-0.8,0.2-1.6,0.6-2.2
			s0.9-1.1,1.6-1.5c0.7-0.3,1.5-0.5,2.4-0.5C1066.9,143.1,1067.7,143.3,1068.4,143.6z M1064.9,146c-0.3,0.3-0.4,0.8-0.4,1.3
			c0,0.5,0.1,1,0.4,1.3c0.3,0.3,0.6,0.5,1.1,0.5c0.4,0,0.8-0.2,1.1-0.5c0.3-0.3,0.4-0.8,0.4-1.3c0-0.5-0.1-1-0.4-1.3
			s-0.6-0.5-1.1-0.5C1065.5,145.5,1065.2,145.7,1064.9,146z"/>
		<path class="st6" d="M1078.9,143.5c0.4,0.3,0.8,0.6,1,1.1c0.2,0.5,0.4,1,0.4,1.6v5.2h-3v-4.3c0-0.4-0.1-0.7-0.3-1
			c-0.2-0.2-0.5-0.4-0.8-0.4c-0.4,0-0.7,0.2-1,0.5s-0.4,0.7-0.4,1.1v4h-3v-8.2h3v1.3c0.3-0.4,0.7-0.8,1.1-1c0.4-0.2,0.9-0.4,1.5-0.4
			C1077.9,143.1,1078.4,143.2,1078.9,143.5z"/>
		<path class="st6" d="M1087.5,151c-0.3,0.2-0.6,0.3-1.1,0.4c-0.4,0.1-0.8,0.1-1.3,0.1c-0.9,0-1.6-0.2-2.1-0.7
			c-0.5-0.5-0.8-1.1-0.8-2v-3.3h-1.1v-1.9h1.1v-2.3h3v2.3h2v1.9h-2v2.8c0,0.3,0.1,0.5,0.2,0.6c0.1,0.1,0.3,0.2,0.5,0.2
			c0.2,0,0.5-0.1,0.9-0.2L1087.5,151z"/>
		<path class="st6" d="M1091.2,139.8c0.3,0.3,0.4,0.7,0.4,1.1s-0.1,0.8-0.4,1.1s-0.7,0.4-1.1,0.4s-0.8-0.1-1.1-0.4
			c-0.3-0.3-0.4-0.7-0.4-1.1s0.1-0.8,0.4-1.1c0.3-0.3,0.7-0.4,1.1-0.4S1090.9,139.5,1091.2,139.8z M1088.6,143.2h3v8.2h-3V143.2z"/>
		<path class="st6" d="M1100.6,143.5c0.4,0.3,0.8,0.6,1,1.1c0.2,0.5,0.4,1,0.4,1.6v5.2h-3v-4.3c0-0.4-0.1-0.7-0.3-1
			c-0.2-0.2-0.5-0.4-0.8-0.4c-0.4,0-0.7,0.2-1,0.5c-0.2,0.3-0.4,0.7-0.4,1.1v4h-3v-8.2h3v1.3c0.3-0.4,0.7-0.8,1.1-1
			c0.4-0.2,0.9-0.4,1.5-0.4C1099.7,143.1,1100.2,143.2,1100.6,143.5z"/>
		<path class="st6" d="M1111.8,143.2v8.2h-3v-1.2c-0.3,0.4-0.6,0.8-1.1,1c-0.4,0.2-0.9,0.3-1.4,0.3c-0.6,0-1.1-0.1-1.5-0.4
			c-0.4-0.3-0.8-0.6-1-1.1s-0.4-1-0.4-1.7v-5.2h3v4.3c0,0.4,0.1,0.7,0.3,1c0.2,0.2,0.5,0.4,0.8,0.4c0.4,0,0.7-0.2,0.9-0.5
			s0.3-0.7,0.3-1.1v-4H1111.8z"/>
		<path class="st6" d="M1120,143.6c0.7,0.3,1.2,0.8,1.6,1.5s0.6,1.4,0.6,2.2c0,0.8-0.2,1.6-0.6,2.2c-0.4,0.6-0.9,1.1-1.6,1.5
			c-0.7,0.3-1.5,0.5-2.4,0.5c-0.9,0-1.7-0.2-2.4-0.5c-0.7-0.3-1.2-0.8-1.6-1.5c-0.4-0.6-0.6-1.4-0.6-2.2c0-0.8,0.2-1.6,0.6-2.2
			s0.9-1.1,1.6-1.5c0.7-0.3,1.5-0.5,2.4-0.5C1118.5,143.1,1119.3,143.3,1120,143.6z M1116.5,146c-0.3,0.3-0.4,0.8-0.4,1.3
			c0,0.5,0.1,1,0.4,1.3c0.3,0.3,0.6,0.5,1.1,0.5c0.4,0,0.8-0.2,1.1-0.5c0.3-0.3,0.4-0.8,0.4-1.3c0-0.5-0.1-1-0.4-1.3
			c-0.3-0.3-0.6-0.5-1.1-0.5C1117.1,145.5,1116.8,145.7,1116.5,146z"/>
		<path class="st6" d="M1131.5,143.2v8.2h-3v-1.2c-0.3,0.4-0.6,0.8-1.1,1c-0.4,0.2-0.9,0.3-1.4,0.3c-0.6,0-1.1-0.1-1.5-0.4
			c-0.4-0.3-0.8-0.6-1-1.1c-0.2-0.5-0.4-1-0.4-1.7v-5.2h3v4.3c0,0.4,0.1,0.7,0.3,1c0.2,0.2,0.5,0.4,0.8,0.4c0.4,0,0.7-0.2,0.9-0.5
			c0.2-0.3,0.3-0.7,0.3-1.1v-4H1131.5z"/>
		<path class="st6" d="M1136.4,145.1c-0.2,0-0.3,0-0.5,0.1c-0.1,0.1-0.2,0.2-0.2,0.3c0,0.2,0.1,0.3,0.3,0.4c0.2,0.1,0.5,0.2,1,0.3
			c0.6,0.2,1.1,0.3,1.5,0.5c0.4,0.2,0.7,0.4,1,0.8s0.4,0.8,0.4,1.3c0,0.8-0.3,1.5-1,2c-0.7,0.5-1.5,0.7-2.6,0.7
			c-0.7,0-1.4-0.1-2.1-0.3c-0.7-0.2-1.2-0.5-1.8-0.9l0.9-1.9c0.5,0.3,1,0.6,1.5,0.8c0.5,0.2,1,0.3,1.4,0.3c0.2,0,0.4,0,0.5-0.1
			c0.1-0.1,0.2-0.2,0.2-0.3c0-0.2-0.1-0.3-0.3-0.4c-0.2-0.1-0.5-0.2-1-0.3c-0.6-0.2-1.1-0.3-1.5-0.5c-0.4-0.2-0.7-0.4-1-0.8
			c-0.3-0.3-0.4-0.8-0.4-1.3c0-0.8,0.3-1.5,1-2c0.6-0.5,1.5-0.7,2.5-0.7c1.2,0,2.4,0.3,3.6,1l-1,1.9
			C1138,145.4,1137.1,145.1,1136.4,145.1z"/>
		<path class="st6" d="M1144.5,140.9h3.3l2.8,5.8l2.8-5.8h3.3v10.5h-2.7v-6.2l-2.4,5.2h-2l-2.4-5.2v6.2h-2.7V140.9z"/>
		<path class="st6" d="M1164.9,143.6c0.7,0.3,1.2,0.8,1.6,1.5s0.6,1.4,0.6,2.2c0,0.8-0.2,1.6-0.6,2.2c-0.4,0.6-0.9,1.1-1.6,1.5
			c-0.7,0.3-1.5,0.5-2.4,0.5c-0.9,0-1.7-0.2-2.4-0.5c-0.7-0.3-1.2-0.8-1.6-1.5c-0.4-0.6-0.6-1.4-0.6-2.2c0-0.8,0.2-1.6,0.6-2.2
			s0.9-1.1,1.6-1.5c0.7-0.3,1.5-0.5,2.4-0.5C1163.4,143.1,1164.2,143.3,1164.9,143.6z M1161.4,146c-0.3,0.3-0.4,0.8-0.4,1.3
			c0,0.5,0.1,1,0.4,1.3c0.3,0.3,0.6,0.5,1.1,0.5c0.4,0,0.8-0.2,1.1-0.5c0.3-0.3,0.4-0.8,0.4-1.3c0-0.5-0.1-1-0.4-1.3
			s-0.6-0.5-1.1-0.5C1162.1,145.5,1161.7,145.7,1161.4,146z"/>
		<path class="st6" d="M1175.4,143.5c0.4,0.3,0.8,0.6,1,1.1c0.2,0.5,0.4,1,0.4,1.6v5.2h-3v-4.3c0-0.4-0.1-0.7-0.3-1
			c-0.2-0.2-0.5-0.4-0.8-0.4c-0.4,0-0.7,0.2-1,0.5s-0.4,0.7-0.4,1.1v4h-3v-8.2h3v1.3c0.3-0.4,0.7-0.8,1.1-1c0.4-0.2,0.9-0.4,1.5-0.4
			C1174.4,143.1,1175,143.2,1175.4,143.5z"/>
		<path class="st6" d="M1181,139.8c0.3,0.3,0.4,0.7,0.4,1.1s-0.1,0.8-0.4,1.1c-0.3,0.3-0.7,0.4-1.1,0.4c-0.5,0-0.8-0.1-1.1-0.4
			c-0.3-0.3-0.4-0.7-0.4-1.1s0.1-0.8,0.4-1.1c0.3-0.3,0.7-0.4,1.1-0.4C1180.4,139.3,1180.7,139.5,1181,139.8z M1178.4,143.2h3v8.2
			h-3V143.2z"/>
		<path class="st6" d="M1188.9,151c-0.3,0.2-0.6,0.3-1.1,0.4c-0.4,0.1-0.8,0.1-1.3,0.1c-0.9,0-1.6-0.2-2.1-0.7
			c-0.5-0.5-0.8-1.1-0.8-2v-3.3h-1.1v-1.9h1.1v-2.3h3v2.3h2v1.9h-2v2.8c0,0.3,0.1,0.5,0.2,0.6c0.1,0.1,0.3,0.2,0.5,0.2
			c0.2,0,0.5-0.1,0.9-0.2L1188.9,151z"/>
		<path class="st6" d="M1196.3,143.6c0.7,0.3,1.2,0.8,1.6,1.5s0.6,1.4,0.6,2.2c0,0.8-0.2,1.6-0.6,2.2c-0.4,0.6-0.9,1.1-1.6,1.5
			c-0.7,0.3-1.5,0.5-2.4,0.5c-0.9,0-1.7-0.2-2.4-0.5c-0.7-0.3-1.2-0.8-1.6-1.5c-0.4-0.6-0.6-1.4-0.6-2.2c0-0.8,0.2-1.6,0.6-2.2
			s0.9-1.1,1.6-1.5c0.7-0.3,1.5-0.5,2.4-0.5C1194.8,143.1,1195.6,143.3,1196.3,143.6z M1192.8,146c-0.3,0.3-0.4,0.8-0.4,1.3
			c0,0.5,0.1,1,0.4,1.3c0.3,0.3,0.6,0.5,1.1,0.5c0.4,0,0.8-0.2,1.1-0.5c0.3-0.3,0.4-0.8,0.4-1.3c0-0.5-0.1-1-0.4-1.3
			s-0.6-0.5-1.1-0.5C1193.5,145.5,1193.1,145.7,1192.8,146z"/>
		<path class="st6" d="M1203.8,143.5c0.4-0.2,0.9-0.4,1.5-0.4v2.7c-0.1,0-0.3,0-0.5,0c-0.6,0-1.1,0.2-1.5,0.5s-0.5,0.7-0.5,1.2v3.9
			h-3v-8.2h3v1.3C1203,144,1203.3,143.7,1203.8,143.5z"/>
		<path class="st6" d="M1208.9,139.8c0.3,0.3,0.4,0.7,0.4,1.1s-0.1,0.8-0.4,1.1c-0.3,0.3-0.7,0.4-1.1,0.4c-0.5,0-0.8-0.1-1.1-0.4
			c-0.3-0.3-0.4-0.7-0.4-1.1s0.1-0.8,0.4-1.1c0.3-0.3,0.7-0.4,1.1-0.4C1208.3,139.3,1208.6,139.5,1208.9,139.8z M1206.3,143.2h3v8.2
			h-3V143.2z"/>
		<path class="st6" d="M1218.3,143.5c0.4,0.3,0.8,0.6,1,1.1c0.2,0.5,0.4,1,0.4,1.6v5.2h-3v-4.3c0-0.4-0.1-0.7-0.3-1
			c-0.2-0.2-0.5-0.4-0.8-0.4c-0.4,0-0.7,0.2-1,0.5s-0.4,0.7-0.4,1.1v4h-3v-8.2h3v1.3c0.3-0.4,0.7-0.8,1.1-1c0.4-0.2,0.9-0.4,1.5-0.4
			C1217.4,143.1,1217.9,143.2,1218.3,143.5z"/>
		<path class="st6" d="M1229.3,143.2v7.5c0,0.8-0.2,1.4-0.6,2c-0.4,0.6-0.9,1-1.6,1.3c-0.7,0.3-1.5,0.5-2.3,0.5
			c-0.7,0-1.4-0.1-2.1-0.3s-1.2-0.5-1.7-0.8l1-2c0.4,0.2,0.8,0.4,1.2,0.6c0.4,0.1,0.9,0.2,1.3,0.2c0.5,0,1-0.1,1.3-0.4
			c0.3-0.2,0.5-0.6,0.5-1v-0.8c-0.5,0.7-1.3,1-2.2,1c-0.7,0-1.2-0.2-1.8-0.5s-0.9-0.8-1.2-1.4c-0.3-0.6-0.4-1.3-0.4-2.1
			c0-0.8,0.1-1.4,0.4-2s0.7-1,1.2-1.4c0.5-0.3,1.1-0.5,1.7-0.5c1,0,1.7,0.3,2.2,1v-0.9H1229.3z M1225.9,148.3
			c0.3-0.3,0.4-0.7,0.4-1.2c0-0.5-0.1-0.9-0.4-1.2c-0.3-0.3-0.6-0.5-1-0.5c-0.4,0-0.7,0.2-1,0.5c-0.3,0.3-0.4,0.7-0.4,1.2
			c0,0.5,0.1,0.9,0.4,1.2c0.3,0.3,0.6,0.5,1,0.5C1225.3,148.7,1225.7,148.6,1225.9,148.3z"/>
	</g>
	<rect x="828.5" y="215.2" class="st5" width="136.7" height="62.3"/>
	<g class="st4">
		<path class="st7" d="M881,232.2c0.5,0.1,1,0.1,1.3,0.1c0.6,0,1-0.2,1.3-0.5c0.2-0.3,0.4-0.9,0.4-1.7v-12.4h1.4v12.4
			c0,1.2-0.2,2.1-0.7,2.6s-1.2,0.8-2.2,0.8c-0.4,0-0.9,0-1.5-0.1V232.2z"/>
		<path class="st7" d="M898.1,230.3l-1.4-3.2h-6.6l-1.4,3.2h-1.5l5.5-12.6h1.3l5.5,12.6H898.1z M890.7,225.9h5.5l-2.8-6.5
			L890.7,225.9z"/>
		<path class="st7" d="M910.3,224.9c0.4,0.5,0.6,1.2,0.6,2c0,1.1-0.4,1.9-1.1,2.5c-0.7,0.6-1.8,0.9-3.1,0.9h-5.2v-12.6h5
			c1.3,0,2.3,0.3,3,0.9c0.7,0.6,1.1,1.4,1.1,2.4c0,0.7-0.2,1.2-0.5,1.7c-0.3,0.5-0.8,0.9-1.5,1.1C909.3,224,909.9,224.4,910.3,224.9
			z M902.9,223.3h3.4c0.9,0,1.7-0.2,2.1-0.6c0.5-0.4,0.7-0.9,0.7-1.7c0-1.4-1-2.2-2.9-2.2h-3.4V223.3z M908.7,228.6
			c0.5-0.4,0.7-0.9,0.7-1.7c0-1.5-1-2.3-2.9-2.3h-3.7v4.6h3.7C907.5,229.1,908.3,228.9,908.7,228.6z"/>
	</g>
	<g class="st4">
		<path class="st7" d="M850.5,251.5l-1.4-3.2h-6.6l-1.4,3.2h-1.5l5.5-12.6h1.3l5.5,12.6H850.5z M843.1,247.1h5.5l-2.8-6.5
			L843.1,247.1z"/>
		<path class="st7" d="M861.1,242.6v8.9h-1.4V250c-0.3,0.5-0.7,1-1.2,1.2c-0.5,0.3-1.1,0.4-1.7,0.4c-1,0-1.8-0.3-2.4-0.9
			c-0.5-0.6-0.8-1.5-0.8-2.6v-5.5h1.4v5.5c0,0.8,0.2,1.4,0.5,1.8c0.3,0.4,0.8,0.6,1.5,0.6c0.8,0,1.4-0.3,1.9-0.8
			c0.5-0.5,0.7-1.2,0.7-2v-5H861.1z"/>
		<path class="st7" d="M865.8,243.8v4.9c0,0.7,0.1,1.1,0.4,1.4s0.7,0.4,1.1,0.4c0.3,0,0.6-0.1,1-0.2v1.2c-0.4,0.1-0.8,0.2-1.2,0.2
			c-0.8,0-1.5-0.2-2-0.7s-0.7-1.2-0.7-2.1v-5h-1.7v-1.1h1.7v-2.3l1.4-0.5v2.8h2.5v1.1H865.8z"/>
		<path class="st7" d="M877.7,245.9v5.6h-1.4V246c0-0.8-0.2-1.4-0.5-1.8c-0.3-0.4-0.8-0.6-1.6-0.6c-0.8,0-1.5,0.3-2,0.8
			c-0.5,0.5-0.7,1.2-0.7,2v5.1H870v-13h1.4v5.6c0.3-0.5,0.7-1,1.2-1.2c0.5-0.3,1.1-0.4,1.8-0.4C876.6,242.4,877.7,243.6,877.7,245.9
			z"/>
		<path class="st7" d="M881.8,251.1c-0.6-0.4-1.1-0.9-1.5-1.6s-0.5-1.5-0.5-2.4s0.2-1.7,0.5-2.4s0.8-1.2,1.5-1.6
			c0.6-0.4,1.4-0.6,2.2-0.6s1.6,0.2,2.2,0.6c0.6,0.4,1.1,0.9,1.5,1.6s0.5,1.5,0.5,2.4s-0.2,1.7-0.5,2.4s-0.8,1.2-1.5,1.6
			c-0.6,0.4-1.4,0.6-2.2,0.6S882.5,251.4,881.8,251.1z M886.1,249.6c0.5-0.6,0.7-1.4,0.7-2.6c0-1.1-0.2-1.9-0.7-2.5
			c-0.5-0.6-1.2-0.9-2-0.9c-0.9,0-1.5,0.3-2,0.9c-0.5,0.6-0.7,1.4-0.7,2.5c0,1.1,0.2,2,0.7,2.6c0.5,0.6,1.2,0.9,2,0.9
			S885.6,250.2,886.1,249.6z"/>
		<path class="st7" d="M895.4,242.5l0,1.3c-0.3-0.1-0.6-0.1-0.9-0.1c-0.9,0-1.5,0.3-1.9,0.8c-0.4,0.5-0.6,1.2-0.6,2v5.1h-1.4v-6.4
			c0-0.9,0-1.7-0.1-2.5h1.4l0.1,1.6c0.2-0.6,0.6-1.1,1.1-1.4c0.5-0.3,1.1-0.5,1.7-0.5C894.9,242.4,895.2,242.5,895.4,242.5z"/>
		<path class="st7" d="M896.7,238.9h1.7v1.6h-1.7V238.9z M896.8,251.5v-8.9h1.4v8.9H896.8z"/>
		<path class="st7" d="M902.3,250.4h5.7v1.1h-7.5v-1l5.6-6.8h-5.4v-1.1h7.1v1L902.3,250.4z"/>
		<path class="st7" d="M917.8,242.6v8.9h-1.4v-1.6c-0.3,0.6-0.7,1-1.2,1.3c-0.5,0.3-1.1,0.5-1.8,0.5c-0.8,0-1.5-0.2-2.1-0.6
			s-1.1-0.9-1.4-1.6s-0.5-1.5-0.5-2.4s0.2-1.7,0.5-2.4c0.3-0.7,0.8-1.2,1.4-1.6s1.3-0.6,2.1-0.6c0.7,0,1.3,0.2,1.8,0.5
			c0.5,0.3,0.9,0.7,1.2,1.3v-1.5H917.8z M915.7,249.6c0.5-0.6,0.7-1.4,0.7-2.5s-0.2-1.9-0.7-2.5s-1.1-0.9-2-0.9s-1.6,0.3-2,0.9
			s-0.7,1.5-0.7,2.5s0.2,1.9,0.7,2.5c0.5,0.6,1.2,0.9,2,0.9C914.6,250.5,915.2,250.2,915.7,249.6z"/>
		<path class="st7" d="M922.5,243.8v4.9c0,0.7,0.1,1.1,0.4,1.4c0.3,0.3,0.7,0.4,1.1,0.4c0.3,0,0.6-0.1,1-0.2v1.2
			c-0.4,0.1-0.8,0.2-1.2,0.2c-0.8,0-1.5-0.2-2-0.7s-0.7-1.2-0.7-2.1v-5h-1.7v-1.1h1.7v-2.3l1.4-0.5v2.8h2.5v1.1H922.5z"/>
		<path class="st7" d="M926.6,238.9h1.7v1.6h-1.7V238.9z M926.8,251.5v-8.9h1.4v8.9H926.8z"/>
		<path class="st7" d="M932.4,251.1c-0.6-0.4-1.1-0.9-1.5-1.6s-0.5-1.5-0.5-2.4s0.2-1.7,0.5-2.4s0.8-1.2,1.5-1.6
			c0.6-0.4,1.4-0.6,2.2-0.6c0.8,0,1.6,0.2,2.2,0.6c0.6,0.4,1.1,0.9,1.5,1.6s0.5,1.5,0.5,2.4s-0.2,1.7-0.5,2.4s-0.8,1.2-1.5,1.6
			c-0.6,0.4-1.4,0.6-2.2,0.6C933.8,251.6,933.1,251.4,932.4,251.1z M936.7,249.6c0.5-0.6,0.7-1.4,0.7-2.6c0-1.1-0.2-1.9-0.7-2.5
			c-0.5-0.6-1.2-0.9-2-0.9c-0.9,0-1.5,0.3-2,0.9c-0.5,0.6-0.7,1.4-0.7,2.5c0,1.1,0.2,2,0.7,2.6c0.5,0.6,1.2,0.9,2,0.9
			S936.2,250.2,936.7,249.6z"/>
		<path class="st7" d="M948.7,245.9v5.6h-1.4V246c0-0.8-0.2-1.4-0.5-1.8c-0.3-0.4-0.8-0.6-1.6-0.6c-0.8,0-1.5,0.3-2,0.8
			c-0.5,0.5-0.7,1.2-0.7,2v5.1h-1.4v-6.4c0-0.9,0-1.7-0.1-2.5h1.4l0.1,1.6c0.3-0.6,0.7-1,1.2-1.3c0.5-0.3,1.2-0.5,1.9-0.5
			C947.6,242.4,948.7,243.6,948.7,245.9z"/>
	</g>
	<g class="st4">
		<path class="st7" d="M865.5,260.1h5c1.3,0,2.3,0.3,3,0.9c0.7,0.6,1.1,1.5,1.1,2.6c0,1.1-0.4,2-1.1,2.6c-0.7,0.6-1.7,0.9-3,0.9
			h-3.6v5.5h-1.4V260.1z M870.4,266c0.9,0,1.6-0.2,2.1-0.6c0.5-0.4,0.7-1,0.7-1.7c0-0.8-0.2-1.3-0.7-1.7s-1.2-0.6-2.1-0.6h-3.4v4.6
			H870.4z"/>
		<path class="st7" d="M881.6,263.7l0,1.3c-0.3-0.1-0.6-0.1-0.9-0.1c-0.9,0-1.5,0.3-1.9,0.8c-0.4,0.5-0.6,1.2-0.6,2v5.1h-1.4v-6.4
			c0-0.9,0-1.7-0.1-2.5h1.4l0.1,1.6c0.2-0.6,0.6-1.1,1.1-1.4c0.5-0.3,1.1-0.5,1.7-0.5C881,263.6,881.3,263.7,881.6,263.7z"/>
		<path class="st7" d="M884.3,272.3c-0.6-0.4-1.1-0.9-1.5-1.6c-0.3-0.7-0.5-1.5-0.5-2.4s0.2-1.7,0.5-2.4c0.3-0.7,0.8-1.2,1.5-1.6
			c0.6-0.4,1.4-0.6,2.2-0.6s1.6,0.2,2.2,0.6s1.1,0.9,1.5,1.6c0.3,0.7,0.5,1.5,0.5,2.4s-0.2,1.7-0.5,2.4c-0.3,0.7-0.8,1.2-1.5,1.6
			s-1.4,0.6-2.2,0.6S884.9,272.6,884.3,272.3z M888.5,270.8c0.5-0.6,0.7-1.4,0.7-2.6c0-1.1-0.2-1.9-0.7-2.5c-0.5-0.6-1.2-0.9-2-0.9
			c-0.9,0-1.5,0.3-2,0.9c-0.5,0.6-0.7,1.4-0.7,2.5c0,1.1,0.2,2,0.7,2.6c0.5,0.6,1.2,0.9,2,0.9S888.1,271.4,888.5,270.8z"/>
		<path class="st7" d="M894.4,272.3c-0.6-0.4-1.1-0.9-1.5-1.6c-0.3-0.7-0.5-1.5-0.5-2.4s0.2-1.7,0.5-2.4c0.4-0.7,0.9-1.2,1.5-1.6
			s1.4-0.6,2.3-0.6c0.6,0,1.2,0.1,1.7,0.3c0.6,0.2,1,0.5,1.4,0.9l-0.5,1.1c-0.4-0.4-0.9-0.6-1.3-0.8s-0.8-0.2-1.3-0.2
			c-0.9,0-1.6,0.3-2.1,0.9c-0.5,0.6-0.8,1.5-0.8,2.5c0,1.1,0.3,1.9,0.8,2.5c0.5,0.6,1.2,0.9,2.1,0.9c0.4,0,0.9-0.1,1.3-0.2
			c0.4-0.2,0.8-0.4,1.3-0.8l0.5,1.1c-0.4,0.4-0.9,0.6-1.4,0.8c-0.6,0.2-1.2,0.3-1.8,0.3C895.8,272.8,895,272.6,894.4,272.3z"/>
		<path class="st7" d="M909.1,268.2h-6.5c0,1.1,0.3,2,0.8,2.6c0.5,0.6,1.3,0.9,2.2,0.9c1,0,2-0.3,2.9-1l0.5,1
			c-0.4,0.4-0.9,0.7-1.5,0.9c-0.6,0.2-1.2,0.3-1.9,0.3c-1.4,0-2.5-0.4-3.3-1.2c-0.8-0.8-1.2-1.9-1.2-3.4c0-0.9,0.2-1.7,0.5-2.4
			c0.4-0.7,0.8-1.2,1.5-1.6c0.6-0.4,1.4-0.6,2.2-0.6c1.2,0,2.1,0.4,2.8,1.2c0.7,0.8,1,1.8,1,3.2V268.2z M903.5,265.4
			c-0.5,0.4-0.8,1.1-0.9,1.9h5.2c-0.1-0.8-0.3-1.5-0.7-1.9c-0.4-0.4-1-0.7-1.7-0.7C904.6,264.7,904,265,903.5,265.4z"/>
		<path class="st7" d="M910.7,271.7l0.5-1.1c0.5,0.4,1,0.6,1.5,0.8c0.5,0.2,1,0.2,1.7,0.2c0.7,0,1.2-0.1,1.5-0.3
			c0.3-0.2,0.5-0.6,0.5-1c0-0.4-0.1-0.6-0.4-0.8s-0.6-0.4-1.2-0.5l-1.5-0.4c-0.7-0.2-1.3-0.5-1.7-0.9c-0.4-0.4-0.6-0.9-0.6-1.5
			c0-0.8,0.3-1.4,0.9-1.9s1.4-0.7,2.5-0.7c0.6,0,1.2,0.1,1.8,0.3c0.6,0.2,1,0.5,1.4,0.9l-0.5,1c-0.8-0.7-1.7-1-2.7-1
			c-0.6,0-1.1,0.1-1.5,0.4c-0.3,0.2-0.5,0.6-0.5,1c0,0.4,0.1,0.7,0.3,0.9c0.2,0.2,0.6,0.4,1,0.5l1.5,0.4c0.8,0.2,1.4,0.5,1.8,0.9
			c0.4,0.4,0.6,0.9,0.6,1.5c0,0.8-0.3,1.4-0.9,1.8c-0.6,0.5-1.5,0.7-2.5,0.7C912.8,272.8,911.6,272.5,910.7,271.7z"/>
		<path class="st7" d="M919.5,271.7l0.5-1.1c0.5,0.4,1,0.6,1.5,0.8c0.5,0.2,1,0.2,1.7,0.2c0.7,0,1.2-0.1,1.5-0.3
			c0.3-0.2,0.5-0.6,0.5-1c0-0.4-0.1-0.6-0.4-0.8c-0.2-0.2-0.6-0.4-1.2-0.5l-1.5-0.4c-0.7-0.2-1.3-0.5-1.7-0.9s-0.6-0.9-0.6-1.5
			c0-0.8,0.3-1.4,0.9-1.9s1.4-0.7,2.5-0.7c0.6,0,1.2,0.1,1.8,0.3c0.6,0.2,1,0.5,1.4,0.9l-0.5,1c-0.8-0.7-1.7-1-2.7-1
			c-0.6,0-1.1,0.1-1.5,0.4c-0.3,0.2-0.5,0.6-0.5,1c0,0.4,0.1,0.7,0.3,0.9s0.6,0.4,1.1,0.5l1.5,0.4c0.8,0.2,1.4,0.5,1.8,0.9
			c0.4,0.4,0.6,0.9,0.6,1.5c0,0.8-0.3,1.4-0.9,1.8c-0.6,0.5-1.5,0.7-2.5,0.7C921.5,272.8,920.4,272.5,919.5,271.7z"/>
	</g>
	<rect x="828.5" y="12.1" class="st5" width="136.7" height="62.3"/>
	<g class="st4">
		<path class="st7" d="M876.3,27.3l-1.4-3.2h-6.6l-1.4,3.2h-1.5l5.5-12.6h1.3l5.5,12.6H876.3z M868.9,22.8h5.5l-2.8-6.5L868.9,22.8z
			"/>
		<path class="st7" d="M887.4,18.4v8.8c0,1.3-0.3,2.3-1,3s-1.7,1-3,1c-1.4,0-2.5-0.3-3.5-0.9l0.2-1.2c0.6,0.3,1.1,0.5,1.6,0.7
			c0.5,0.1,1.1,0.2,1.7,0.2c0.9,0,1.5-0.2,1.9-0.7s0.7-1.1,0.7-2v-2.1c-0.3,0.6-0.7,1-1.2,1.3s-1.1,0.5-1.9,0.5
			c-0.8,0-1.5-0.2-2.1-0.5c-0.6-0.4-1.1-0.9-1.4-1.6c-0.3-0.7-0.5-1.4-0.5-2.3s0.2-1.6,0.5-2.3c0.3-0.7,0.8-1.2,1.4-1.6
			c0.6-0.4,1.3-0.5,2.1-0.5c0.7,0,1.3,0.2,1.8,0.5c0.5,0.3,0.9,0.7,1.2,1.3v-1.5H887.4z M885.2,24.9c0.5-0.6,0.7-1.4,0.7-2.4
			c0-1-0.2-1.8-0.7-2.4c-0.5-0.6-1.2-0.9-2-0.9c-0.9,0-1.6,0.3-2.1,0.9c-0.5,0.6-0.8,1.4-0.8,2.4c0,1,0.2,1.8,0.8,2.4
			c0.5,0.6,1.2,0.9,2.1,0.9C884.1,25.8,884.8,25.5,885.2,24.9z"/>
		<path class="st7" d="M897.6,22.8h-6.5c0,1.1,0.3,2,0.8,2.6c0.5,0.6,1.3,0.9,2.2,0.9c1,0,2-0.3,2.9-1l0.5,1
			c-0.4,0.4-0.9,0.7-1.5,0.9c-0.6,0.2-1.2,0.3-1.9,0.3c-1.4,0-2.5-0.4-3.3-1.2c-0.8-0.8-1.2-1.9-1.2-3.4c0-0.9,0.2-1.7,0.5-2.4
			c0.4-0.7,0.8-1.2,1.5-1.6c0.6-0.4,1.4-0.6,2.2-0.6c1.2,0,2.1,0.4,2.8,1.2c0.7,0.8,1,1.8,1,3.2V22.8z M892,19.9
			c-0.5,0.4-0.8,1.1-0.9,1.9h5.2c-0.1-0.8-0.3-1.5-0.7-1.9c-0.4-0.4-1-0.7-1.7-0.7C893.1,19.3,892.5,19.5,892,19.9z"/>
		<path class="st7" d="M907.4,21.7v5.6H906v-5.5c0-0.8-0.2-1.4-0.5-1.8c-0.3-0.4-0.8-0.6-1.6-0.6c-0.8,0-1.5,0.3-2,0.8
			c-0.5,0.5-0.7,1.2-0.7,2v5.1h-1.4v-6.4c0-0.9,0-1.7-0.1-2.5h1.4l0.1,1.6c0.3-0.6,0.7-1,1.2-1.3c0.5-0.3,1.2-0.5,1.9-0.5
			C906.3,18.2,907.4,19.3,907.4,21.7z"/>
		<path class="st7" d="M911.6,26.8c-0.6-0.4-1.1-0.9-1.5-1.6c-0.3-0.7-0.5-1.5-0.5-2.4s0.2-1.7,0.5-2.4c0.4-0.7,0.9-1.2,1.5-1.6
			s1.4-0.6,2.3-0.6c0.6,0,1.2,0.1,1.7,0.3c0.6,0.2,1,0.5,1.4,0.9l-0.5,1.1c-0.4-0.4-0.9-0.6-1.3-0.8s-0.8-0.2-1.3-0.2
			c-0.9,0-1.6,0.3-2.1,0.9c-0.5,0.6-0.8,1.5-0.8,2.5c0,1.1,0.3,1.9,0.8,2.5c0.5,0.6,1.2,0.9,2.1,0.9c0.4,0,0.9-0.1,1.3-0.2
			c0.4-0.2,0.8-0.4,1.3-0.8l0.5,1.1c-0.4,0.4-0.9,0.6-1.4,0.8c-0.6,0.2-1.2,0.3-1.8,0.3C913,27.4,912.2,27.2,911.6,26.8z"/>
		<path class="st7" d="M926.6,18.4l-4.1,9.7c-0.4,1-1,1.8-1.6,2.2c-0.7,0.5-1.5,0.8-2.4,1l-0.3-1.1c0.8-0.2,1.5-0.4,1.9-0.8
			c0.4-0.3,0.8-0.8,1.1-1.4l0.4-0.8l-3.8-8.8h1.5l3,7.3l3-7.3H926.6z"/>
	</g>
	<g class="st4">
		<path class="st7" d="M850.5,48.5l-1.4-3.2h-6.6l-1.4,3.2h-1.5l5.5-12.6h1.3l5.5,12.6H850.5z M843.1,44h5.5l-2.8-6.5L843.1,44z"/>
		<path class="st7" d="M861.1,39.6v8.9h-1.4v-1.5c-0.3,0.5-0.7,1-1.2,1.2c-0.5,0.3-1.1,0.4-1.7,0.4c-1,0-1.8-0.3-2.4-0.9
			c-0.5-0.6-0.8-1.5-0.8-2.6v-5.5h1.4V45c0,0.8,0.2,1.4,0.5,1.8c0.3,0.4,0.8,0.6,1.5,0.6c0.8,0,1.4-0.3,1.9-0.8
			c0.5-0.5,0.7-1.2,0.7-2v-5H861.1z"/>
		<path class="st7" d="M865.8,40.7v4.9c0,0.7,0.1,1.1,0.4,1.4c0.3,0.3,0.7,0.4,1.1,0.4c0.3,0,0.6-0.1,1-0.2v1.2
			c-0.4,0.1-0.8,0.2-1.2,0.2c-0.8,0-1.5-0.2-2-0.7s-0.7-1.2-0.7-2.1v-5h-1.7v-1.1h1.7v-2.3l1.4-0.5v2.8h2.5v1.1H865.8z"/>
		<path class="st7" d="M877.7,42.9v5.6h-1.4v-5.5c0-0.8-0.2-1.4-0.5-1.8c-0.3-0.4-0.8-0.6-1.6-0.6c-0.8,0-1.5,0.3-2,0.8
			c-0.5,0.5-0.7,1.2-0.7,2v5.1h-1.4v-13h1.4V41c0.3-0.5,0.7-1,1.2-1.2c0.5-0.3,1.1-0.4,1.8-0.4C876.6,39.4,877.7,40.5,877.7,42.9z"
			/>
		<path class="st7" d="M881.9,48c-0.6-0.4-1.1-0.9-1.5-1.6c-0.3-0.7-0.5-1.5-0.5-2.4s0.2-1.7,0.5-2.4c0.3-0.7,0.8-1.2,1.5-1.6
			c0.6-0.4,1.4-0.6,2.2-0.6s1.6,0.2,2.2,0.6s1.1,0.9,1.5,1.6c0.3,0.7,0.5,1.5,0.5,2.4s-0.2,1.7-0.5,2.4c-0.3,0.7-0.8,1.2-1.5,1.6
			s-1.4,0.6-2.2,0.6S882.5,48.4,881.9,48z M886.1,46.5c0.5-0.6,0.7-1.4,0.7-2.6c0-1.1-0.2-1.9-0.7-2.5c-0.5-0.6-1.2-0.9-2-0.9
			c-0.9,0-1.5,0.3-2,0.9c-0.5,0.6-0.7,1.4-0.7,2.5c0,1.1,0.2,2,0.7,2.6c0.5,0.6,1.2,0.9,2,0.9S885.6,47.1,886.1,46.5z"/>
		<path class="st7" d="M895.4,39.5l0,1.3c-0.3-0.1-0.6-0.1-0.9-0.1c-0.9,0-1.5,0.3-1.9,0.8c-0.4,0.5-0.6,1.2-0.6,2v5.1h-1.4v-6.4
			c0-0.9,0-1.7-0.1-2.5h1.4l0.1,1.6c0.2-0.6,0.6-1.1,1.1-1.4c0.5-0.3,1.1-0.5,1.7-0.5C894.9,39.4,895.2,39.4,895.4,39.5z"/>
		<path class="st7" d="M896.7,35.8h1.7v1.6h-1.7V35.8z M896.9,48.5v-8.9h1.4v8.9H896.9z"/>
		<path class="st7" d="M902.4,47.3h5.7v1.1h-7.5v-1l5.6-6.8h-5.4v-1.1h7.1v1L902.4,47.3z"/>
		<path class="st7" d="M917.9,39.6v8.9h-1.4v-1.6c-0.3,0.6-0.7,1-1.2,1.3c-0.5,0.3-1.1,0.5-1.8,0.5c-0.8,0-1.5-0.2-2.1-0.6
			c-0.6-0.4-1.1-0.9-1.4-1.6c-0.3-0.7-0.5-1.5-0.5-2.4s0.2-1.7,0.5-2.4c0.3-0.7,0.8-1.2,1.4-1.6c0.6-0.4,1.3-0.6,2.1-0.6
			c0.7,0,1.3,0.2,1.8,0.5c0.5,0.3,0.9,0.7,1.2,1.3v-1.5H917.9z M915.7,46.5c0.5-0.6,0.7-1.4,0.7-2.5s-0.2-1.9-0.7-2.5
			s-1.1-0.9-2-0.9s-1.6,0.3-2,0.9s-0.7,1.5-0.7,2.5s0.2,1.9,0.7,2.5c0.5,0.6,1.2,0.9,2,0.9C914.6,47.4,915.3,47.1,915.7,46.5z"/>
		<path class="st7" d="M922.5,40.7v4.9c0,0.7,0.1,1.1,0.4,1.4s0.7,0.4,1.1,0.4c0.3,0,0.6-0.1,1-0.2v1.2c-0.4,0.1-0.8,0.2-1.2,0.2
			c-0.8,0-1.5-0.2-2-0.7s-0.7-1.2-0.7-2.1v-5h-1.7v-1.1h1.7v-2.3l1.4-0.5v2.8h2.5v1.1H922.5z"/>
		<path class="st7" d="M926.7,35.8h1.7v1.6h-1.7V35.8z M926.8,48.5v-8.9h1.4v8.9H926.8z"/>
		<path class="st7" d="M932.5,48c-0.6-0.4-1.1-0.9-1.5-1.6c-0.3-0.7-0.5-1.5-0.5-2.4s0.2-1.7,0.5-2.4c0.3-0.7,0.8-1.2,1.5-1.6
			c0.6-0.4,1.4-0.6,2.2-0.6s1.6,0.2,2.2,0.6s1.1,0.9,1.5,1.6c0.3,0.7,0.5,1.5,0.5,2.4s-0.2,1.7-0.5,2.4c-0.3,0.7-0.8,1.2-1.5,1.6
			s-1.4,0.6-2.2,0.6S933.1,48.4,932.5,48z M936.7,46.5c0.5-0.6,0.7-1.4,0.7-2.6c0-1.1-0.2-1.9-0.7-2.5c-0.5-0.6-1.2-0.9-2-0.9
			c-0.9,0-1.5,0.3-2,0.9c-0.5,0.6-0.7,1.4-0.7,2.5c0,1.1,0.2,2,0.7,2.6c0.5,0.6,1.2,0.9,2,0.9S936.2,47.1,936.7,46.5z"/>
		<path class="st7" d="M948.7,42.9v5.6h-1.4v-5.5c0-0.8-0.2-1.4-0.5-1.8c-0.3-0.4-0.8-0.6-1.6-0.6c-0.8,0-1.5,0.3-2,0.8
			c-0.5,0.5-0.7,1.2-0.7,2v5.1h-1.4v-6.4c0-0.9,0-1.7-0.1-2.5h1.4l0.1,1.6c0.3-0.6,0.7-1,1.2-1.3c0.5-0.3,1.2-0.5,1.9-0.5
			C947.7,39.4,948.7,40.5,948.7,42.9z"/>
	</g>
	<g class="st4">
		<path class="st7" d="M865.4,57.1h5c1.3,0,2.3,0.3,3,0.9s1.1,1.5,1.1,2.6c0,1.1-0.4,2-1.1,2.6s-1.7,0.9-3,0.9h-3.6v5.5h-1.4V57.1z
			 M870.3,62.9c0.9,0,1.6-0.2,2.1-0.6c0.5-0.4,0.7-1,0.7-1.7c0-0.8-0.2-1.3-0.7-1.7s-1.2-0.6-2.1-0.6h-3.4v4.6H870.3z"/>
		<path class="st7" d="M881.5,60.7l0,1.3c-0.3-0.1-0.6-0.1-0.9-0.1c-0.9,0-1.5,0.3-1.9,0.8c-0.4,0.5-0.6,1.2-0.6,2v5.1h-1.4v-6.4
			c0-0.9,0-1.7-0.1-2.5h1.4l0.1,1.6c0.2-0.6,0.6-1.1,1.1-1.4c0.5-0.3,1.1-0.5,1.7-0.5C881,60.6,881.2,60.6,881.5,60.7z"/>
		<path class="st7" d="M884.2,69.2c-0.6-0.4-1.1-0.9-1.5-1.6c-0.3-0.7-0.5-1.5-0.5-2.4s0.2-1.7,0.5-2.4c0.3-0.7,0.8-1.2,1.5-1.6
			s1.4-0.6,2.2-0.6c0.8,0,1.6,0.2,2.2,0.6c0.6,0.4,1.1,0.9,1.5,1.6c0.3,0.7,0.5,1.5,0.5,2.4s-0.2,1.7-0.5,2.4
			c-0.3,0.7-0.8,1.2-1.5,1.6c-0.6,0.4-1.4,0.6-2.2,0.6C885.6,69.8,884.9,69.6,884.2,69.2z M888.5,67.7c0.5-0.6,0.7-1.4,0.7-2.6
			c0-1.1-0.2-1.9-0.7-2.5c-0.5-0.6-1.2-0.9-2-0.9c-0.9,0-1.5,0.3-2,0.9c-0.5,0.6-0.7,1.4-0.7,2.5c0,1.1,0.2,2,0.7,2.6
			c0.5,0.6,1.2,0.9,2,0.9S888,68.3,888.5,67.7z"/>
		<path class="st7" d="M894.3,69.2c-0.6-0.4-1.1-0.9-1.5-1.6c-0.3-0.7-0.5-1.5-0.5-2.4s0.2-1.7,0.5-2.4c0.4-0.7,0.9-1.2,1.5-1.6
			s1.4-0.6,2.3-0.6c0.6,0,1.2,0.1,1.7,0.3s1,0.5,1.4,0.9l-0.5,1.1c-0.4-0.4-0.9-0.6-1.3-0.8s-0.8-0.2-1.3-0.2
			c-0.9,0-1.6,0.3-2.1,0.9s-0.8,1.5-0.8,2.5c0,1.1,0.3,1.9,0.8,2.5c0.5,0.6,1.2,0.9,2.1,0.9c0.4,0,0.9-0.1,1.3-0.2
			c0.4-0.2,0.9-0.4,1.3-0.8l0.5,1.1c-0.4,0.4-0.9,0.6-1.4,0.8c-0.6,0.2-1.2,0.3-1.8,0.3C895.7,69.8,895,69.6,894.3,69.2z"/>
		<path class="st7" d="M909,65.2h-6.5c0,1.1,0.3,2,0.8,2.6c0.5,0.6,1.3,0.9,2.2,0.9c1,0,2-0.3,2.9-1l0.5,1c-0.4,0.4-0.9,0.7-1.5,0.9
			s-1.2,0.3-1.9,0.3c-1.4,0-2.5-0.4-3.3-1.2c-0.8-0.8-1.2-1.9-1.2-3.4c0-0.9,0.2-1.7,0.5-2.4c0.4-0.7,0.8-1.2,1.5-1.6
			s1.4-0.6,2.2-0.6c1.2,0,2.1,0.4,2.8,1.2c0.7,0.8,1,1.8,1,3.2V65.2z M903.5,62.3c-0.5,0.4-0.8,1.1-0.9,1.9h5.2
			c-0.1-0.8-0.3-1.5-0.7-1.9c-0.4-0.4-1-0.7-1.7-0.7C904.5,61.7,903.9,61.9,903.5,62.3z"/>
		<path class="st7" d="M910.7,68.6l0.5-1.1c0.5,0.4,1,0.6,1.5,0.8c0.5,0.2,1,0.2,1.7,0.2c0.7,0,1.2-0.1,1.5-0.3
			c0.3-0.2,0.5-0.6,0.5-1c0-0.4-0.1-0.6-0.4-0.8c-0.2-0.2-0.6-0.4-1.2-0.5l-1.5-0.4c-0.7-0.2-1.3-0.5-1.7-0.9s-0.6-0.9-0.6-1.5
			c0-0.8,0.3-1.4,0.9-1.9s1.4-0.7,2.5-0.7c0.6,0,1.2,0.1,1.8,0.3c0.6,0.2,1,0.5,1.4,0.9l-0.5,1c-0.8-0.7-1.7-1-2.7-1
			c-0.6,0-1.1,0.1-1.5,0.4c-0.3,0.2-0.5,0.6-0.5,1c0,0.4,0.1,0.7,0.3,0.9s0.6,0.4,1.1,0.5l1.5,0.4c0.8,0.2,1.4,0.5,1.8,0.9
			c0.4,0.4,0.6,0.9,0.6,1.5c0,0.8-0.3,1.4-0.9,1.8c-0.6,0.5-1.5,0.7-2.5,0.7C912.7,69.8,911.5,69.4,910.7,68.6z"/>
		<path class="st7" d="M919.4,68.6l0.5-1.1c0.5,0.4,1,0.6,1.5,0.8c0.5,0.2,1,0.2,1.7,0.2c0.7,0,1.2-0.1,1.5-0.3
			c0.3-0.2,0.5-0.6,0.5-1c0-0.4-0.1-0.6-0.4-0.8s-0.6-0.4-1.2-0.5l-1.5-0.4c-0.7-0.2-1.3-0.5-1.7-0.9c-0.4-0.4-0.6-0.9-0.6-1.5
			c0-0.8,0.3-1.4,0.9-1.9s1.4-0.7,2.5-0.7c0.6,0,1.2,0.1,1.8,0.3c0.6,0.2,1,0.5,1.4,0.9l-0.5,1c-0.8-0.7-1.7-1-2.7-1
			c-0.6,0-1.1,0.1-1.5,0.4c-0.3,0.2-0.5,0.6-0.5,1c0,0.4,0.1,0.7,0.3,0.9c0.2,0.2,0.6,0.4,1,0.5l1.5,0.4c0.8,0.2,1.4,0.5,1.8,0.9
			c0.4,0.4,0.6,0.9,0.6,1.5c0,0.8-0.3,1.4-0.9,1.8c-0.6,0.5-1.5,0.7-2.5,0.7C921.5,69.8,920.3,69.4,919.4,68.6z"/>
	</g>
	<rect x="624.2" y="225.8" class="st5" width="136.7" height="41.1"/>
	<g class="st4">
		<path class="st7" d="M642.6,240.9v-12.6h7.8v1.2H644v4.4h6v1.2h-6v5.8H642.6z"/>
		<path class="st7" d="M659.6,232v8.9h-1.4v-1.5c-0.3,0.5-0.7,1-1.2,1.2c-0.5,0.3-1.1,0.4-1.7,0.4c-1,0-1.8-0.3-2.4-0.9
			c-0.5-0.6-0.8-1.5-0.8-2.6V232h1.4v5.5c0,0.8,0.2,1.4,0.5,1.8c0.3,0.4,0.8,0.6,1.5,0.6c0.8,0,1.4-0.3,1.9-0.8
			c0.5-0.5,0.7-1.2,0.7-2v-5H659.6z"/>
		<path class="st7" d="M662.4,240.9v-13h1.4v13H662.4z"/>
		<path class="st7" d="M666.6,240.9v-13h1.4v13H666.6z"/>
		<path class="st7" d="M674.9,239.5l0.5-1.1c0.6,0.5,1.3,0.9,1.9,1.1s1.4,0.3,2.3,0.3c1,0,1.8-0.2,2.3-0.6c0.5-0.4,0.8-1,0.8-1.7
			c0-0.4-0.1-0.8-0.4-1c-0.3-0.3-0.6-0.5-1-0.6c-0.4-0.2-1-0.3-1.7-0.5c-1-0.2-1.8-0.4-2.4-0.7c-0.6-0.2-1.1-0.6-1.5-1.1
			c-0.4-0.5-0.6-1.1-0.6-1.8c0-0.7,0.2-1.4,0.6-1.9c0.4-0.5,0.9-1,1.6-1.3c0.7-0.3,1.5-0.5,2.4-0.5c0.9,0,1.7,0.1,2.4,0.4
			c0.8,0.3,1.4,0.7,1.9,1.2l-0.6,1.1c-0.6-0.5-1.2-0.9-1.8-1.1c-0.6-0.2-1.3-0.4-2-0.4c-1,0-1.7,0.2-2.3,0.6c-0.6,0.4-0.8,1-0.8,1.7
			c0,0.6,0.2,1.1,0.7,1.4c0.5,0.3,1.2,0.6,2.2,0.8c1.1,0.3,1.9,0.5,2.6,0.7s1.1,0.5,1.5,1s0.6,1,0.6,1.8c0,0.7-0.2,1.3-0.6,1.9
			c-0.4,0.5-0.9,1-1.6,1.2s-1.5,0.4-2.5,0.4C677.6,241,676,240.5,674.9,239.5z"/>
		<path class="st7" d="M693.8,236.4h-6.5c0,1.1,0.3,2,0.8,2.6c0.5,0.6,1.3,0.9,2.2,0.9c1,0,2-0.3,2.9-1l0.5,1
			c-0.4,0.4-0.9,0.7-1.5,0.9c-0.6,0.2-1.2,0.3-1.9,0.3c-1.4,0-2.5-0.4-3.3-1.2c-0.8-0.8-1.2-1.9-1.2-3.4c0-0.9,0.2-1.7,0.5-2.4
			c0.4-0.7,0.8-1.2,1.5-1.6c0.6-0.4,1.4-0.6,2.2-0.6c1.2,0,2.1,0.4,2.8,1.2c0.7,0.8,1,1.8,1,3.2V236.4z M688.2,233.6
			c-0.5,0.4-0.8,1.1-0.9,1.9h5.2c-0.1-0.8-0.3-1.5-0.7-1.9c-0.4-0.4-1-0.7-1.7-0.7C689.3,232.9,688.7,233.1,688.2,233.6z"/>
		<path class="st7" d="M697.5,240.5c-0.6-0.4-1.1-0.9-1.5-1.6c-0.3-0.7-0.5-1.5-0.5-2.4s0.2-1.7,0.5-2.4c0.4-0.7,0.9-1.2,1.5-1.6
			s1.4-0.6,2.3-0.6c0.6,0,1.2,0.1,1.7,0.3c0.6,0.2,1,0.5,1.4,0.9l-0.5,1.1c-0.4-0.4-0.9-0.6-1.3-0.8s-0.8-0.2-1.3-0.2
			c-0.9,0-1.6,0.3-2.1,0.9c-0.5,0.6-0.8,1.5-0.8,2.5c0,1.1,0.3,1.9,0.8,2.5c0.5,0.6,1.2,0.9,2.1,0.9c0.4,0,0.9-0.1,1.3-0.2
			c0.4-0.2,0.8-0.4,1.3-0.8l0.5,1.1c-0.4,0.4-0.9,0.6-1.4,0.8c-0.6,0.2-1.2,0.3-1.8,0.3C698.9,241,698.1,240.8,697.5,240.5z"/>
		<path class="st7" d="M712.2,232v8.9h-1.4v-1.5c-0.3,0.5-0.7,1-1.2,1.2c-0.5,0.3-1.1,0.4-1.7,0.4c-1,0-1.8-0.3-2.4-0.9
			c-0.5-0.6-0.8-1.5-0.8-2.6V232h1.4v5.5c0,0.8,0.2,1.4,0.5,1.8c0.3,0.4,0.8,0.6,1.5,0.6c0.8,0,1.4-0.3,1.9-0.8
			c0.5-0.5,0.7-1.2,0.7-2v-5H712.2z"/>
		<path class="st7" d="M719.9,231.9l0,1.3c-0.3-0.1-0.6-0.1-0.9-0.1c-0.9,0-1.5,0.3-1.9,0.8c-0.4,0.5-0.6,1.2-0.6,2v5.1h-1.4v-6.4
			c0-0.9,0-1.7-0.1-2.5h1.4l0.1,1.6c0.2-0.6,0.6-1.1,1.1-1.4c0.5-0.3,1.1-0.5,1.7-0.5C719.3,231.8,719.6,231.8,719.9,231.9z"/>
		<path class="st7" d="M721.2,228.3h1.7v1.6h-1.7V228.3z M721.3,240.9V232h1.4v8.9H721.3z"/>
		<path class="st7" d="M727.4,233.2v4.9c0,0.7,0.1,1.1,0.4,1.4c0.3,0.3,0.7,0.4,1.1,0.4c0.3,0,0.6-0.1,1-0.2v1.2
			c-0.4,0.1-0.8,0.2-1.2,0.2c-0.8,0-1.5-0.2-2-0.7s-0.7-1.2-0.7-2.1v-5h-1.7V232h1.7v-2.3l1.4-0.5v2.8h2.5v1.1H727.4z"/>
		<path class="st7" d="M739.6,232l-4.1,9.7c-0.4,1-1,1.8-1.6,2.2c-0.7,0.5-1.5,0.8-2.4,1l-0.3-1.1c0.8-0.2,1.5-0.4,1.9-0.8
			c0.4-0.3,0.8-0.8,1.1-1.4l0.4-0.8l-3.8-8.8h1.5l3,7.3l3-7.3H739.6z"/>
	</g>
	<g class="st4">
		<path class="st7" d="M652.5,262.1l-1.4-3.2h-6.6l-1.4,3.2h-1.5l5.5-12.6h1.3l5.5,12.6H652.5z M645.1,257.7h5.5l-2.8-6.5
			L645.1,257.7z"/>
		<path class="st7" d="M655,261.1l0.5-1.1c0.5,0.4,1,0.6,1.5,0.8c0.5,0.2,1,0.2,1.7,0.2c0.7,0,1.2-0.1,1.5-0.3
			c0.3-0.2,0.5-0.6,0.5-1c0-0.4-0.1-0.6-0.4-0.8c-0.2-0.2-0.6-0.4-1.2-0.5l-1.5-0.4c-0.7-0.2-1.3-0.5-1.7-0.9s-0.6-0.9-0.6-1.5
			c0-0.8,0.3-1.4,0.9-1.9s1.4-0.7,2.5-0.7c0.6,0,1.2,0.1,1.8,0.3c0.6,0.2,1,0.5,1.4,0.9l-0.5,1c-0.8-0.7-1.7-1-2.7-1
			c-0.6,0-1.1,0.1-1.5,0.4c-0.3,0.2-0.5,0.6-0.5,1c0,0.4,0.1,0.7,0.3,0.9s0.6,0.4,1.1,0.5l1.5,0.4c0.8,0.2,1.4,0.5,1.8,0.9
			c0.4,0.4,0.6,0.9,0.6,1.5c0,0.8-0.3,1.4-0.9,1.8c-0.6,0.5-1.5,0.7-2.5,0.7C657.1,262.2,655.9,261.8,655,261.1z"/>
		<path class="st7" d="M663.8,261.1l0.5-1.1c0.5,0.4,1,0.6,1.5,0.8c0.5,0.2,1,0.2,1.7,0.2c0.7,0,1.2-0.1,1.5-0.3
			c0.3-0.2,0.5-0.6,0.5-1c0-0.4-0.1-0.6-0.4-0.8s-0.6-0.4-1.2-0.5l-1.5-0.4c-0.7-0.2-1.3-0.5-1.7-0.9c-0.4-0.4-0.6-0.9-0.6-1.5
			c0-0.8,0.3-1.4,0.9-1.9s1.4-0.7,2.5-0.7c0.6,0,1.2,0.1,1.8,0.3c0.6,0.2,1,0.5,1.4,0.9l-0.5,1c-0.8-0.7-1.7-1-2.7-1
			c-0.6,0-1.1,0.1-1.5,0.4c-0.3,0.2-0.5,0.6-0.5,1c0,0.4,0.1,0.7,0.3,0.9c0.2,0.2,0.6,0.4,1,0.5l1.5,0.4c0.8,0.2,1.4,0.5,1.8,0.9
			c0.4,0.4,0.6,0.9,0.6,1.5c0,0.8-0.3,1.4-0.9,1.8c-0.6,0.5-1.5,0.7-2.5,0.7C665.8,262.2,664.7,261.8,663.8,261.1z"/>
		<path class="st7" d="M680.5,257.6H674c0,1.1,0.3,2,0.8,2.6c0.5,0.6,1.3,0.9,2.2,0.9c1,0,2-0.3,2.9-1l0.5,1
			c-0.4,0.4-0.9,0.7-1.5,0.9c-0.6,0.2-1.2,0.3-1.9,0.3c-1.4,0-2.5-0.4-3.3-1.2c-0.8-0.8-1.2-1.9-1.2-3.4c0-0.9,0.2-1.7,0.5-2.4
			c0.4-0.7,0.8-1.2,1.5-1.6c0.6-0.4,1.4-0.6,2.2-0.6c1.2,0,2.1,0.4,2.8,1.2c0.7,0.8,1,1.8,1,3.2V257.6z M675,254.8
			c-0.5,0.4-0.8,1.1-0.9,1.9h5.2c-0.1-0.8-0.3-1.5-0.7-1.9c-0.4-0.4-1-0.7-1.7-0.7C676,254.1,675.4,254.3,675,254.8z"/>
		<path class="st7" d="M682.1,261.1l0.5-1.1c0.5,0.4,1,0.6,1.5,0.8c0.5,0.2,1,0.2,1.7,0.2c0.7,0,1.2-0.1,1.5-0.3
			c0.3-0.2,0.5-0.6,0.5-1c0-0.4-0.1-0.6-0.4-0.8s-0.6-0.4-1.2-0.5l-1.5-0.4c-0.7-0.2-1.3-0.5-1.7-0.9c-0.4-0.4-0.6-0.9-0.6-1.5
			c0-0.8,0.3-1.4,0.9-1.9s1.4-0.7,2.5-0.7c0.6,0,1.2,0.1,1.8,0.3c0.6,0.2,1,0.5,1.4,0.9l-0.5,1c-0.8-0.7-1.7-1-2.7-1
			c-0.6,0-1.1,0.1-1.5,0.4c-0.3,0.2-0.5,0.6-0.5,1c0,0.4,0.1,0.7,0.3,0.9c0.2,0.2,0.6,0.4,1,0.5l1.5,0.4c0.8,0.2,1.4,0.5,1.8,0.9
			c0.4,0.4,0.6,0.9,0.6,1.5c0,0.8-0.3,1.4-0.9,1.8c-0.6,0.5-1.5,0.7-2.5,0.7C684.2,262.2,683,261.8,682.1,261.1z"/>
		<path class="st7" d="M690.9,261.1l0.5-1.1c0.5,0.4,1,0.6,1.5,0.8c0.5,0.2,1,0.2,1.7,0.2c0.7,0,1.2-0.1,1.5-0.3
			c0.3-0.2,0.5-0.6,0.5-1c0-0.4-0.1-0.6-0.4-0.8c-0.2-0.2-0.6-0.4-1.2-0.5l-1.5-0.4c-0.7-0.2-1.3-0.5-1.7-0.9s-0.6-0.9-0.6-1.5
			c0-0.8,0.3-1.4,0.9-1.9s1.4-0.7,2.5-0.7c0.6,0,1.2,0.1,1.8,0.3c0.6,0.2,1,0.5,1.4,0.9l-0.5,1c-0.8-0.7-1.7-1-2.7-1
			c-0.6,0-1.1,0.1-1.5,0.4c-0.3,0.2-0.5,0.6-0.5,1c0,0.4,0.1,0.7,0.3,0.9s0.6,0.4,1.1,0.5l1.5,0.4c0.8,0.2,1.4,0.5,1.8,0.9
			c0.4,0.4,0.6,0.9,0.6,1.5c0,0.8-0.3,1.4-0.9,1.8c-0.6,0.5-1.5,0.7-2.5,0.7C693,262.2,691.8,261.8,690.9,261.1z"/>
		<path class="st7" d="M713,256.5v5.6h-1.4v-5.5c0-0.8-0.1-1.4-0.4-1.8c-0.3-0.4-0.8-0.6-1.4-0.6c-0.8,0-1.3,0.3-1.8,0.8
			c-0.4,0.5-0.6,1.2-0.6,2.1v5.1h-1.4v-5.5c0-0.8-0.1-1.4-0.4-1.8c-0.3-0.4-0.8-0.6-1.4-0.6c-0.8,0-1.3,0.3-1.8,0.8
			c-0.4,0.5-0.6,1.2-0.6,2.1v5.1h-1.4v-6.4c0-0.9,0-1.7-0.1-2.5h1.4l0.1,1.6c0.2-0.6,0.6-1,1.1-1.3c0.5-0.3,1.1-0.5,1.7-0.5
			c0.7,0,1.3,0.1,1.7,0.4c0.4,0.3,0.8,0.7,1,1.3c0.3-0.5,0.7-1,1.2-1.3c0.5-0.3,1.1-0.5,1.8-0.5C712,253,713,254.2,713,256.5z"/>
		<path class="st7" d="M723.2,257.6h-6.5c0,1.1,0.3,2,0.8,2.6c0.5,0.6,1.3,0.9,2.2,0.9c1,0,2-0.3,2.9-1l0.5,1
			c-0.4,0.4-0.9,0.7-1.5,0.9s-1.2,0.3-1.9,0.3c-1.4,0-2.5-0.4-3.3-1.2c-0.8-0.8-1.2-1.9-1.2-3.4c0-0.9,0.2-1.7,0.5-2.4
			c0.4-0.7,0.8-1.2,1.5-1.6s1.4-0.6,2.2-0.6c1.2,0,2.1,0.4,2.8,1.2c0.7,0.8,1,1.8,1,3.2V257.6z M717.6,254.8
			c-0.5,0.4-0.8,1.1-0.9,1.9h5.2c-0.1-0.8-0.3-1.5-0.7-1.9c-0.4-0.4-1-0.7-1.7-0.7C718.7,254.1,718.1,254.3,717.6,254.8z"/>
		<path class="st7" d="M733,256.5v5.6h-1.4v-5.5c0-0.8-0.2-1.4-0.5-1.8c-0.3-0.4-0.8-0.6-1.6-0.6c-0.8,0-1.5,0.3-2,0.8
			c-0.5,0.5-0.7,1.2-0.7,2v5.1h-1.4v-6.4c0-0.9,0-1.7-0.1-2.5h1.4l0.1,1.6c0.3-0.6,0.7-1,1.2-1.3c0.5-0.3,1.2-0.5,1.9-0.5
			C731.9,253,733,254.2,733,256.5z"/>
		<path class="st7" d="M737.6,254.4v4.9c0,0.7,0.1,1.1,0.4,1.4c0.3,0.3,0.7,0.4,1.1,0.4c0.3,0,0.6-0.1,1-0.2v1.2
			c-0.4,0.1-0.8,0.2-1.2,0.2c-0.8,0-1.5-0.2-2-0.7s-0.7-1.2-0.7-2.1v-5h-1.7v-1.1h1.7v-2.3l1.4-0.5v2.8h2.5v1.1H737.6z"/>
	</g>
	<rect x="624.2" y="22.7" class="st5" width="136.7" height="41.1"/>
	<g class="st4">
		<path class="st7" d="M642.6,37.8V25.3h7.8v1.2H644v4.4h6v1.2h-6v5.8H642.6z"/>
		<path class="st7" d="M659.6,29v8.9h-1.4v-1.5c-0.3,0.5-0.7,1-1.2,1.2c-0.5,0.3-1.1,0.4-1.7,0.4c-1,0-1.8-0.3-2.4-0.9
			c-0.5-0.6-0.8-1.5-0.8-2.6V29h1.4v5.5c0,0.8,0.2,1.4,0.5,1.8c0.3,0.4,0.8,0.6,1.5,0.6c0.8,0,1.4-0.3,1.9-0.8
			c0.5-0.5,0.7-1.2,0.7-2v-5H659.6z"/>
		<path class="st7" d="M662.4,37.8v-13h1.4v13H662.4z"/>
		<path class="st7" d="M666.6,37.8v-13h1.4v13H666.6z"/>
		<path class="st7" d="M674.9,36.4l0.5-1.1c0.6,0.5,1.3,0.9,1.9,1.1s1.4,0.3,2.3,0.3c1,0,1.8-0.2,2.3-0.6c0.5-0.4,0.8-1,0.8-1.7
			c0-0.4-0.1-0.8-0.4-1c-0.3-0.3-0.6-0.5-1-0.6c-0.4-0.2-1-0.3-1.7-0.5c-1-0.2-1.8-0.4-2.4-0.7c-0.6-0.2-1.1-0.6-1.5-1.1
			c-0.4-0.5-0.6-1.1-0.6-1.8c0-0.7,0.2-1.4,0.6-1.9c0.4-0.5,0.9-1,1.6-1.3c0.7-0.3,1.5-0.5,2.4-0.5c0.9,0,1.7,0.1,2.4,0.4
			c0.8,0.3,1.4,0.7,1.9,1.2l-0.6,1.1c-0.6-0.5-1.2-0.9-1.8-1.1c-0.6-0.2-1.3-0.4-2-0.4c-1,0-1.7,0.2-2.3,0.6c-0.6,0.4-0.8,1-0.8,1.7
			c0,0.6,0.2,1.1,0.7,1.4c0.5,0.3,1.2,0.6,2.2,0.8c1.1,0.3,1.9,0.5,2.6,0.7s1.1,0.5,1.5,1s0.6,1,0.6,1.8c0,0.7-0.2,1.3-0.6,1.9
			c-0.4,0.5-0.9,1-1.6,1.2s-1.5,0.4-2.5,0.4C677.6,38,676,37.5,674.9,36.4z"/>
		<path class="st7" d="M693.8,33.4h-6.5c0,1.1,0.3,2,0.8,2.6c0.5,0.6,1.3,0.9,2.2,0.9c1,0,2-0.3,2.9-1l0.5,1
			c-0.4,0.4-0.9,0.7-1.5,0.9c-0.6,0.2-1.2,0.3-1.9,0.3c-1.4,0-2.5-0.4-3.3-1.2c-0.8-0.8-1.2-1.9-1.2-3.4c0-0.9,0.2-1.7,0.5-2.4
			c0.4-0.7,0.8-1.2,1.5-1.6c0.6-0.4,1.4-0.6,2.2-0.6c1.2,0,2.1,0.4,2.8,1.2c0.7,0.8,1,1.8,1,3.2V33.4z M688.2,30.5
			c-0.5,0.4-0.8,1.1-0.9,1.9h5.2c-0.1-0.8-0.3-1.5-0.7-1.9c-0.4-0.4-1-0.7-1.7-0.7C689.3,29.9,688.7,30.1,688.2,30.5z"/>
		<path class="st7" d="M697.5,37.4c-0.6-0.4-1.1-0.9-1.5-1.6c-0.3-0.7-0.5-1.5-0.5-2.4s0.2-1.7,0.5-2.4c0.4-0.7,0.9-1.2,1.5-1.6
			s1.4-0.6,2.3-0.6c0.6,0,1.2,0.1,1.7,0.3c0.6,0.2,1,0.5,1.4,0.9l-0.5,1.1c-0.4-0.4-0.9-0.6-1.3-0.8s-0.8-0.2-1.3-0.2
			c-0.9,0-1.6,0.3-2.1,0.9c-0.5,0.6-0.8,1.5-0.8,2.5c0,1.1,0.3,1.9,0.8,2.5c0.5,0.6,1.2,0.9,2.1,0.9c0.4,0,0.9-0.1,1.3-0.2
			c0.4-0.2,0.8-0.4,1.3-0.8l0.5,1.1c-0.4,0.4-0.9,0.6-1.4,0.8c-0.6,0.2-1.2,0.3-1.8,0.3C698.9,38,698.1,37.8,697.5,37.4z"/>
		<path class="st7" d="M712.2,29v8.9h-1.4v-1.5c-0.3,0.5-0.7,1-1.2,1.2c-0.5,0.3-1.1,0.4-1.7,0.4c-1,0-1.8-0.3-2.4-0.9
			c-0.5-0.6-0.8-1.5-0.8-2.6V29h1.4v5.5c0,0.8,0.2,1.4,0.5,1.8c0.3,0.4,0.8,0.6,1.5,0.6c0.8,0,1.4-0.3,1.9-0.8
			c0.5-0.5,0.7-1.2,0.7-2v-5H712.2z"/>
		<path class="st7" d="M719.9,28.9l0,1.3c-0.3-0.1-0.6-0.1-0.9-0.1c-0.9,0-1.5,0.3-1.9,0.8c-0.4,0.5-0.6,1.2-0.6,2v5.1h-1.4v-6.4
			c0-0.9,0-1.7-0.1-2.5h1.4l0.1,1.6c0.2-0.6,0.6-1.1,1.1-1.4c0.5-0.3,1.1-0.5,1.7-0.5C719.3,28.8,719.6,28.8,719.9,28.9z"/>
		<path class="st7" d="M721.2,25.2h1.7v1.6h-1.7V25.2z M721.3,37.8V29h1.4v8.9H721.3z"/>
		<path class="st7" d="M727.4,30.1V35c0,0.7,0.1,1.1,0.4,1.4c0.3,0.3,0.7,0.4,1.1,0.4c0.3,0,0.6-0.1,1-0.2v1.2
			c-0.4,0.1-0.8,0.2-1.2,0.2c-0.8,0-1.5-0.2-2-0.7s-0.7-1.2-0.7-2.1v-5h-1.7V29h1.7v-2.3l1.4-0.5V29h2.5v1.1H727.4z"/>
		<path class="st7" d="M739.6,29l-4.1,9.7c-0.4,1-1,1.8-1.6,2.2c-0.7,0.5-1.5,0.8-2.4,1l-0.3-1.1c0.8-0.2,1.5-0.4,1.9-0.8
			c0.4-0.3,0.8-0.8,1.1-1.4l0.4-0.8l-3.8-8.8h1.5l3,7.3l3-7.3H739.6z"/>
	</g>
	<g class="st4">
		<path class="st7" d="M652.5,59l-1.4-3.2h-6.6l-1.4,3.2h-1.5l5.5-12.6h1.3L654,59H652.5z M645.1,54.6h5.5l-2.8-6.5L645.1,54.6z"/>
		<path class="st7" d="M655,58l0.5-1.1c0.5,0.4,1,0.6,1.5,0.8c0.5,0.2,1,0.2,1.7,0.2c0.7,0,1.2-0.1,1.5-0.3c0.3-0.2,0.5-0.6,0.5-1
			c0-0.4-0.1-0.6-0.4-0.8c-0.2-0.2-0.6-0.4-1.2-0.5l-1.5-0.4c-0.7-0.2-1.3-0.5-1.7-0.9s-0.6-0.9-0.6-1.5c0-0.8,0.3-1.4,0.9-1.9
			s1.4-0.7,2.5-0.7c0.6,0,1.2,0.1,1.8,0.3c0.6,0.2,1,0.5,1.4,0.9l-0.5,1c-0.8-0.7-1.7-1-2.7-1c-0.6,0-1.1,0.1-1.5,0.4
			c-0.3,0.2-0.5,0.6-0.5,1c0,0.4,0.1,0.7,0.3,0.9s0.6,0.4,1.1,0.5l1.5,0.4c0.8,0.2,1.4,0.5,1.8,0.9c0.4,0.4,0.6,0.9,0.6,1.5
			c0,0.8-0.3,1.4-0.9,1.8c-0.6,0.5-1.5,0.7-2.5,0.7C657.1,59.2,655.9,58.8,655,58z"/>
		<path class="st7" d="M663.8,58l0.5-1.1c0.5,0.4,1,0.6,1.5,0.8c0.5,0.2,1,0.2,1.7,0.2c0.7,0,1.2-0.1,1.5-0.3c0.3-0.2,0.5-0.6,0.5-1
			c0-0.4-0.1-0.6-0.4-0.8s-0.6-0.4-1.2-0.5l-1.5-0.4c-0.7-0.2-1.3-0.5-1.7-0.9c-0.4-0.4-0.6-0.9-0.6-1.5c0-0.8,0.3-1.4,0.9-1.9
			s1.4-0.7,2.5-0.7c0.6,0,1.2,0.1,1.8,0.3c0.6,0.2,1,0.5,1.4,0.9l-0.5,1c-0.8-0.7-1.7-1-2.7-1c-0.6,0-1.1,0.1-1.5,0.4
			c-0.3,0.2-0.5,0.6-0.5,1c0,0.4,0.1,0.7,0.3,0.9c0.2,0.2,0.6,0.4,1,0.5l1.5,0.4c0.8,0.2,1.4,0.5,1.8,0.9c0.4,0.4,0.6,0.9,0.6,1.5
			c0,0.8-0.3,1.4-0.9,1.8c-0.6,0.5-1.5,0.7-2.5,0.7C665.8,59.2,664.7,58.8,663.8,58z"/>
		<path class="st7" d="M680.5,54.6H674c0,1.1,0.3,2,0.8,2.6c0.5,0.6,1.3,0.9,2.2,0.9c1,0,2-0.3,2.9-1l0.5,1
			c-0.4,0.4-0.9,0.7-1.5,0.9c-0.6,0.2-1.2,0.3-1.9,0.3c-1.4,0-2.5-0.4-3.3-1.2c-0.8-0.8-1.2-1.9-1.2-3.4c0-0.9,0.2-1.7,0.5-2.4
			c0.4-0.7,0.8-1.2,1.5-1.6c0.6-0.4,1.4-0.6,2.2-0.6c1.2,0,2.1,0.4,2.8,1.2c0.7,0.8,1,1.8,1,3.2V54.6z M675,51.7
			c-0.5,0.4-0.8,1.1-0.9,1.9h5.2c-0.1-0.8-0.3-1.5-0.7-1.9c-0.4-0.4-1-0.7-1.7-0.7C676,51.1,675.4,51.3,675,51.7z"/>
		<path class="st7" d="M682.1,58l0.5-1.1c0.5,0.4,1,0.6,1.5,0.8c0.5,0.2,1,0.2,1.7,0.2c0.7,0,1.2-0.1,1.5-0.3c0.3-0.2,0.5-0.6,0.5-1
			c0-0.4-0.1-0.6-0.4-0.8s-0.6-0.4-1.2-0.5l-1.5-0.4c-0.7-0.2-1.3-0.5-1.7-0.9c-0.4-0.4-0.6-0.9-0.6-1.5c0-0.8,0.3-1.4,0.9-1.9
			s1.4-0.7,2.5-0.7c0.6,0,1.2,0.1,1.8,0.3c0.6,0.2,1,0.5,1.4,0.9l-0.5,1c-0.8-0.7-1.7-1-2.7-1c-0.6,0-1.1,0.1-1.5,0.4
			c-0.3,0.2-0.5,0.6-0.5,1c0,0.4,0.1,0.7,0.3,0.9c0.2,0.2,0.6,0.4,1,0.5l1.5,0.4c0.8,0.2,1.4,0.5,1.8,0.9c0.4,0.4,0.6,0.9,0.6,1.5
			c0,0.8-0.3,1.4-0.9,1.8c-0.6,0.5-1.5,0.7-2.5,0.7C684.2,59.2,683,58.8,682.1,58z"/>
		<path class="st7" d="M690.9,58l0.5-1.1c0.5,0.4,1,0.6,1.5,0.8c0.5,0.2,1,0.2,1.7,0.2c0.7,0,1.2-0.1,1.5-0.3c0.3-0.2,0.5-0.6,0.5-1
			c0-0.4-0.1-0.6-0.4-0.8c-0.2-0.2-0.6-0.4-1.2-0.5l-1.5-0.4c-0.7-0.2-1.3-0.5-1.7-0.9s-0.6-0.9-0.6-1.5c0-0.8,0.3-1.4,0.9-1.9
			s1.4-0.7,2.5-0.7c0.6,0,1.2,0.1,1.8,0.3c0.6,0.2,1,0.5,1.4,0.9l-0.5,1c-0.8-0.7-1.7-1-2.7-1c-0.6,0-1.1,0.1-1.5,0.4
			c-0.3,0.2-0.5,0.6-0.5,1c0,0.4,0.1,0.7,0.3,0.9s0.6,0.4,1.1,0.5l1.5,0.4c0.8,0.2,1.4,0.5,1.8,0.9c0.4,0.4,0.6,0.9,0.6,1.5
			c0,0.8-0.3,1.4-0.9,1.8c-0.6,0.5-1.5,0.7-2.5,0.7C693,59.2,691.8,58.8,690.9,58z"/>
		<path class="st7" d="M713,53.5V59h-1.4v-5.5c0-0.8-0.1-1.4-0.4-1.8c-0.3-0.4-0.8-0.6-1.4-0.6c-0.8,0-1.3,0.3-1.8,0.8
			c-0.4,0.5-0.6,1.2-0.6,2.1V59h-1.4v-5.5c0-0.8-0.1-1.4-0.4-1.8c-0.3-0.4-0.8-0.6-1.4-0.6c-0.8,0-1.3,0.3-1.8,0.8
			c-0.4,0.5-0.6,1.2-0.6,2.1V59h-1.4v-6.4c0-0.9,0-1.7-0.1-2.5h1.4l0.1,1.6c0.2-0.6,0.6-1,1.1-1.3c0.5-0.3,1.1-0.5,1.7-0.5
			c0.7,0,1.3,0.1,1.7,0.4c0.4,0.3,0.8,0.7,1,1.3c0.3-0.5,0.7-1,1.2-1.3c0.5-0.3,1.1-0.5,1.8-0.5C712,50,713,51.1,713,53.5z"/>
		<path class="st7" d="M723.2,54.6h-6.5c0,1.1,0.3,2,0.8,2.6c0.5,0.6,1.3,0.9,2.2,0.9c1,0,2-0.3,2.9-1l0.5,1
			c-0.4,0.4-0.9,0.7-1.5,0.9s-1.2,0.3-1.9,0.3c-1.4,0-2.5-0.4-3.3-1.2c-0.8-0.8-1.2-1.9-1.2-3.4c0-0.9,0.2-1.7,0.5-2.4
			c0.4-0.7,0.8-1.2,1.5-1.6s1.4-0.6,2.2-0.6c1.2,0,2.1,0.4,2.8,1.2c0.7,0.8,1,1.8,1,3.2V54.6z M717.6,51.7c-0.5,0.4-0.8,1.1-0.9,1.9
			h5.2c-0.1-0.8-0.3-1.5-0.7-1.9c-0.4-0.4-1-0.7-1.7-0.7C718.7,51.1,718.1,51.3,717.6,51.7z"/>
		<path class="st7" d="M733,53.5V59h-1.4v-5.5c0-0.8-0.2-1.4-0.5-1.8c-0.3-0.4-0.8-0.6-1.6-0.6c-0.8,0-1.5,0.3-2,0.8
			c-0.5,0.5-0.7,1.2-0.7,2V59h-1.4v-6.4c0-0.9,0-1.7-0.1-2.5h1.4l0.1,1.6c0.3-0.6,0.7-1,1.2-1.3c0.5-0.3,1.2-0.5,1.9-0.5
			C731.9,50,733,51.1,733,53.5z"/>
		<path class="st7" d="M737.6,51.3v4.9c0,0.7,0.1,1.1,0.4,1.4c0.3,0.3,0.7,0.4,1.1,0.4c0.3,0,0.6-0.1,1-0.2V59
			c-0.4,0.1-0.8,0.2-1.2,0.2c-0.8,0-1.5-0.2-2-0.7s-0.7-1.2-0.7-2.1v-5h-1.7v-1.1h1.7v-2.3l1.4-0.5v2.8h2.5v1.1H737.6z"/>
	</g>
	<g class="st4">
		<path class="st8" d="M44.2,253.1c0.5,0.1,0.9,0.1,1.1,0.1c0.5,0,0.8-0.1,0.9-0.3s0.2-0.5,0.2-1.1v-10.2h2.9v10.1
			c0,1.3-0.3,2.2-0.8,2.9c-0.5,0.6-1.4,0.9-2.7,0.9c-0.5,0-1.1,0-1.7-0.1V253.1z"/>
		<path class="st8" d="M59.7,252.7l-1-2.3h-4.9l-1,2.3H50l5.1-11h2.3l5.2,11H59.7z M54.8,248.2h3l-1.5-3.5L54.8,248.2z"/>
		<path class="st8" d="M72.1,248c0.4,0.5,0.5,1,0.5,1.7c0,0.6-0.2,1.1-0.5,1.6s-0.8,0.8-1.4,1s-1.3,0.4-2.1,0.4h-5.5v-11h5.3
			c1.2,0,2.1,0.3,2.7,0.8s1,1.2,1,2.1c0,0.6-0.1,1.1-0.4,1.5c-0.3,0.4-0.7,0.7-1.3,0.9C71.3,247.2,71.8,247.5,72.1,248z M66,246h2
			c0.5,0,0.9-0.1,1.2-0.2c0.2-0.2,0.4-0.4,0.4-0.8c0-0.4-0.1-0.6-0.4-0.8c-0.3-0.2-0.6-0.3-1.2-0.3h-2V246z M69.6,250.2
			c0.2-0.2,0.4-0.5,0.4-0.9c0-0.4-0.1-0.7-0.4-0.9c-0.2-0.2-0.6-0.3-1.2-0.3H66v2.3h2.3C68.9,250.5,69.3,250.4,69.6,250.2z"/>
		<path class="st8" d="M78.5,241.7h5.2c1.3,0,2.2,0.3,2.9,0.9c0.7,0.6,1,1.4,1,2.4c0,1-0.4,1.8-1.1,2.4c-0.7,0.6-1.7,0.9-2.9,0.9
			h-2.3v4.3h-2.9V241.7z M83.4,246.2c1.1,0,1.6-0.4,1.6-1.2c0-0.4-0.1-0.7-0.4-0.9c-0.3-0.2-0.7-0.3-1.2-0.3h-1.9v2.3H83.4z"/>
		<path class="st8" d="M98.7,252.7h-3.1l-1.4-3.7c-0.2-0.4-0.6-0.6-1.2-0.6H92v4.3h-2.9v-11h5.1c1.3,0,2.3,0.3,3,0.9
			c0.7,0.6,1,1.4,1,2.4c0,0.7-0.2,1.4-0.6,1.9c-0.4,0.5-1,0.9-1.7,1.2c0.3,0.1,0.6,0.2,0.8,0.4s0.4,0.5,0.6,0.9L98.7,252.7z
			 M95.1,246c0.3-0.2,0.4-0.5,0.4-0.9c0-0.4-0.1-0.7-0.4-0.9s-0.7-0.3-1.4-0.3H92v2.4h1.8C94.4,246.2,94.8,246.1,95.1,246z"/>
		<path class="st8" d="M102.4,252.1c-0.8-0.5-1.5-1.1-1.9-2c-0.4-0.9-0.7-1.9-0.7-3c0-1.1,0.2-2.1,0.7-3c0.5-0.8,1.1-1.5,1.9-2
			c0.8-0.5,1.8-0.7,2.9-0.7s2.1,0.2,2.9,0.7c0.8,0.5,1.5,1.1,1.9,2c0.4,0.8,0.7,1.8,0.7,3c0,1.1-0.2,2.1-0.7,3
			c-0.4,0.9-1.1,1.5-1.9,2c-0.8,0.5-1.8,0.7-2.9,0.7S103.2,252.6,102.4,252.1z M107.3,249.7c0.5-0.6,0.7-1.4,0.7-2.6
			c0-1.1-0.2-2-0.7-2.5c-0.5-0.6-1.1-0.9-1.9-0.9c-0.8,0-1.5,0.3-1.9,0.9c-0.5,0.6-0.7,1.4-0.7,2.5c0,1.1,0.2,2,0.7,2.6
			c0.5,0.6,1.1,0.9,1.9,0.9C106.1,250.6,106.8,250.3,107.3,249.7z"/>
		<path class="st8" d="M114.9,252.1c-0.8-0.5-1.5-1.1-2-2c-0.5-0.9-0.7-1.8-0.7-3c0-1.1,0.2-2.1,0.7-2.9c0.5-0.8,1.1-1.5,2-2
			c0.8-0.5,1.8-0.7,3-0.7c0.7,0,1.4,0.1,2.1,0.3c0.7,0.2,1.2,0.5,1.6,0.9l-0.9,2.1c-0.9-0.6-1.8-1-2.8-1c-0.9,0-1.6,0.3-2,0.8
			c-0.5,0.6-0.7,1.4-0.7,2.5c0,1.1,0.2,2,0.7,2.5c0.5,0.6,1.2,0.8,2,0.8c1,0,1.9-0.3,2.8-1l0.9,2.1c-0.4,0.4-1,0.7-1.6,0.9
			c-0.7,0.2-1.4,0.3-2.1,0.3C116.7,252.8,115.7,252.6,114.9,252.1z"/>
		<path class="st8" d="M123.1,252.7v-11h7.8v2.2h-5v2.1h4.7v2.2h-4.7v2.3h5v2.2H123.1z"/>
		<path class="st8" d="M133.8,252.5c-0.8-0.2-1.5-0.5-2-0.9l0.9-2.1c0.5,0.3,1.1,0.6,1.7,0.8c0.6,0.2,1.2,0.3,1.8,0.3
			c0.6,0,1.1-0.1,1.4-0.3s0.5-0.4,0.5-0.7c0-0.3-0.1-0.5-0.4-0.7c-0.3-0.2-0.9-0.4-1.7-0.5c-1-0.2-1.8-0.5-2.4-0.8
			c-0.6-0.3-1-0.7-1.2-1.1c-0.2-0.4-0.3-0.9-0.3-1.5c0-0.7,0.2-1.3,0.6-1.8c0.4-0.5,0.9-1,1.6-1.3s1.5-0.5,2.4-0.5
			c0.8,0,1.6,0.1,2.3,0.3c0.7,0.2,1.3,0.5,1.8,0.9l-0.9,2.1c-0.5-0.3-1-0.6-1.5-0.8c-0.5-0.2-1.1-0.3-1.6-0.3
			c-0.5,0-0.9,0.1-1.3,0.3c-0.3,0.2-0.5,0.5-0.5,0.8c0,0.2,0.1,0.3,0.2,0.5c0.1,0.1,0.3,0.2,0.6,0.4s0.8,0.2,1.4,0.4
			c1,0.2,1.8,0.5,2.4,0.8c0.6,0.3,1,0.7,1.2,1.1c0.2,0.4,0.4,0.9,0.4,1.5c0,1.1-0.4,1.9-1.3,2.5c-0.8,0.6-2,0.9-3.5,0.9
			C135.4,252.8,134.6,252.7,133.8,252.5z"/>
		<path class="st8" d="M144.2,252.5c-0.8-0.2-1.5-0.5-2-0.9l0.9-2.1c0.5,0.3,1.1,0.6,1.7,0.8c0.6,0.2,1.2,0.3,1.8,0.3
			c0.6,0,1.1-0.1,1.4-0.3s0.5-0.4,0.5-0.7c0-0.3-0.1-0.5-0.4-0.7c-0.3-0.2-0.9-0.4-1.7-0.5c-1-0.2-1.8-0.5-2.4-0.8
			c-0.6-0.3-1-0.7-1.2-1.1c-0.2-0.4-0.3-0.9-0.3-1.5c0-0.7,0.2-1.3,0.6-1.8c0.4-0.5,0.9-1,1.6-1.3s1.5-0.5,2.4-0.5
			c0.8,0,1.6,0.1,2.3,0.3c0.7,0.2,1.3,0.5,1.8,0.9l-0.9,2.1c-0.5-0.3-1-0.6-1.5-0.8c-0.5-0.2-1.1-0.3-1.6-0.3
			c-0.5,0-0.9,0.1-1.3,0.3c-0.3,0.2-0.5,0.5-0.5,0.8c0,0.2,0.1,0.3,0.2,0.5c0.1,0.1,0.3,0.2,0.6,0.4s0.8,0.2,1.4,0.4
			c1,0.2,1.8,0.5,2.4,0.8c0.6,0.3,1,0.7,1.2,1.1c0.2,0.4,0.4,0.9,0.4,1.5c0,1.1-0.4,1.9-1.3,2.5c-0.8,0.6-2,0.9-3.5,0.9
			C145.8,252.8,145,252.7,144.2,252.5z"/>
	</g>
	<path class="st9" d="M22.8,24.7l154.7-0.5c10.5,0,19.1,8.5,19.1,19v0.4c0,10.5-8.5,19.1-19,19.1L22.9,63.3
		c-10.5,0-19.1-8.5-19.1-19v-0.4C3.7,33.3,12.2,24.7,22.8,24.7z"/>
	<path class="st10" d="M22.8,227.2l154.7-0.5c10.5,0,19.1,8.5,19.1,19v0.4c0,10.5-8.5,19.1-19,19.1l-154.7,0.5
		c-10.5,0-19.1-8.5-19.1-19v-0.4C3.7,235.8,12.2,227.2,22.8,227.2z"/>
	<g class="st4">
		<path class="st11" d="M35.1,50.2l-1-2.3h-4.9l-1,2.3h-2.9l5.1-11h2.3l5.2,11H35.1z M30.2,45.7h3l-1.5-3.5L30.2,45.7z"/>
		<path class="st11" d="M48.1,44v5.5c-0.6,0.3-1.2,0.5-2,0.6c-0.7,0.1-1.5,0.2-2.2,0.2c-1.2,0-2.2-0.2-3.1-0.7c-0.9-0.5-1.6-1.1-2-2
			s-0.7-1.9-0.7-3c0-1.1,0.2-2.1,0.7-3c0.5-0.8,1.1-1.5,2-2c0.9-0.5,1.9-0.7,3-0.7c0.8,0,1.5,0.1,2.2,0.3s1.3,0.5,1.7,0.8l-0.9,2.1
			c-0.5-0.3-1-0.6-1.5-0.7c-0.5-0.1-1-0.2-1.5-0.2c-1,0-1.7,0.3-2.2,0.8c-0.5,0.6-0.7,1.4-0.7,2.5c0,1.2,0.2,2,0.7,2.6
			s1.3,0.8,2.3,0.8c0.5,0,1-0.1,1.5-0.2v-2h-1.9v-2H48.1z"/>
		<path class="st11" d="M49.9,50.2v-11h7.8v2.2h-5v2.1h4.7v2.2h-4.7V48h5v2.2H49.9z"/>
		<path class="st11" d="M66.3,39.2h2.7v11h-2.1l-5-6.2v6.2h-2.7v-11h2.1l5,6.2V39.2z"/>
		<path class="st11" d="M73.4,49.6c-0.8-0.5-1.5-1.1-2-2c-0.5-0.9-0.7-1.8-0.7-3c0-1.1,0.2-2.1,0.7-2.9c0.5-0.8,1.1-1.5,2-2
			c0.8-0.5,1.8-0.7,3-0.7c0.7,0,1.4,0.1,2.1,0.3c0.7,0.2,1.2,0.5,1.6,0.9l-0.9,2.1c-0.9-0.6-1.8-1-2.8-1c-0.9,0-1.6,0.3-2,0.8
			c-0.5,0.6-0.7,1.4-0.7,2.5c0,1.1,0.2,2,0.7,2.5c0.5,0.6,1.2,0.8,2,0.8c1,0,1.9-0.3,2.8-1l0.9,2.1c-0.4,0.4-1,0.7-1.6,0.9
			c-0.7,0.2-1.4,0.3-2.1,0.3C75.3,50.3,74.3,50.1,73.4,49.6z"/>
		<path class="st11" d="M91.7,39.2L87.1,46v4.2h-2.9V46l-4.6-6.8h3.3l2.8,4.4l2.8-4.4H91.7z"/>
		<path class="st11" d="M96.1,39.2h5.2c1.3,0,2.2,0.3,2.9,0.9c0.7,0.6,1,1.4,1,2.4c0,1-0.4,1.8-1.1,2.4c-0.7,0.6-1.7,0.9-2.9,0.9
			h-2.3v4.3h-2.9V39.2z M101,43.7c1.1,0,1.6-0.4,1.6-1.2c0-0.4-0.1-0.7-0.4-0.9c-0.3-0.2-0.7-0.3-1.2-0.3h-1.9v2.3H101z"/>
		<path class="st11" d="M116.3,50.2h-3.1l-1.4-3.7c-0.2-0.4-0.6-0.6-1.2-0.6h-1.1v4.3h-2.9v-11h5.1c1.3,0,2.3,0.3,3,0.9
			c0.7,0.6,1,1.4,1,2.4c0,0.7-0.2,1.4-0.6,1.9c-0.4,0.5-1,0.9-1.7,1.2c0.3,0.1,0.6,0.2,0.8,0.4s0.4,0.5,0.6,0.9L116.3,50.2z
			 M112.7,43.5c0.3-0.2,0.4-0.5,0.4-0.9c0-0.4-0.1-0.7-0.4-0.9s-0.7-0.3-1.4-0.3h-1.8v2.4h1.8C112,43.7,112.4,43.6,112.7,43.5z"/>
		<path class="st11" d="M120,49.6c-0.8-0.5-1.5-1.1-1.9-2c-0.4-0.9-0.7-1.9-0.7-3c0-1.1,0.2-2.1,0.7-3c0.5-0.8,1.1-1.5,1.9-2
			c0.8-0.5,1.8-0.7,2.9-0.7s2.1,0.2,2.9,0.7c0.8,0.5,1.5,1.1,1.9,2c0.4,0.8,0.7,1.8,0.7,3c0,1.1-0.2,2.1-0.7,3
			c-0.4,0.9-1.1,1.5-1.9,2c-0.8,0.5-1.8,0.7-2.9,0.7S120.8,50.1,120,49.6z M124.9,47.2c0.5-0.6,0.7-1.4,0.7-2.6c0-1.1-0.2-2-0.7-2.5
			c-0.5-0.6-1.1-0.9-1.9-0.9c-0.8,0-1.5,0.3-1.9,0.9c-0.5,0.6-0.7,1.4-0.7,2.5c0,1.1,0.2,2,0.7,2.6c0.5,0.6,1.1,0.9,1.9,0.9
			C123.7,48.1,124.4,47.8,124.9,47.2z"/>
		<path class="st11" d="M132.5,49.6c-0.8-0.5-1.5-1.1-2-2c-0.5-0.9-0.7-1.8-0.7-3c0-1.1,0.2-2.1,0.7-2.9c0.5-0.8,1.1-1.5,2-2
			c0.8-0.5,1.8-0.7,3-0.7c0.7,0,1.4,0.1,2.1,0.3c0.7,0.2,1.2,0.5,1.6,0.9l-0.9,2.1c-0.9-0.6-1.8-1-2.8-1c-0.9,0-1.6,0.3-2,0.8
			c-0.5,0.6-0.7,1.4-0.7,2.5c0,1.1,0.2,2,0.7,2.5c0.5,0.6,1.2,0.8,2,0.8c1,0,1.9-0.3,2.8-1l0.9,2.1c-0.4,0.4-1,0.7-1.6,0.9
			c-0.7,0.2-1.4,0.3-2.1,0.3C134.3,50.3,133.3,50.1,132.5,49.6z"/>
		<path class="st11" d="M140.7,50.2v-11h7.8v2.2h-5v2.1h4.7v2.2h-4.7V48h5v2.2H140.7z"/>
		<path class="st11" d="M151.4,50c-0.8-0.2-1.5-0.5-2-0.9l0.9-2.1c0.5,0.3,1.1,0.6,1.7,0.8c0.6,0.2,1.2,0.3,1.8,0.3
			c0.6,0,1.1-0.1,1.4-0.3s0.5-0.4,0.5-0.7c0-0.3-0.1-0.5-0.4-0.7c-0.3-0.2-0.9-0.4-1.7-0.5c-1-0.2-1.8-0.5-2.4-0.8
			c-0.6-0.3-1-0.7-1.2-1.1c-0.2-0.4-0.3-0.9-0.3-1.5c0-0.7,0.2-1.3,0.6-1.8c0.4-0.5,0.9-1,1.6-1.3s1.5-0.5,2.4-0.5
			c0.8,0,1.6,0.1,2.3,0.3c0.7,0.2,1.3,0.5,1.8,0.9l-0.9,2.1c-0.5-0.3-1-0.6-1.5-0.8c-0.5-0.2-1.1-0.3-1.6-0.3
			c-0.5,0-0.9,0.1-1.3,0.3c-0.3,0.2-0.5,0.5-0.5,0.8c0,0.2,0.1,0.3,0.2,0.5c0.1,0.1,0.3,0.2,0.6,0.4s0.8,0.2,1.4,0.4
			c1,0.2,1.8,0.5,2.4,0.8c0.6,0.3,1,0.7,1.2,1.1c0.2,0.4,0.4,0.9,0.4,1.5c0,1.1-0.4,1.9-1.3,2.5c-0.8,0.6-2,0.9-3.5,0.9
			C153,50.3,152.2,50.2,151.4,50z"/>
		<path class="st11" d="M161.8,50c-0.8-0.2-1.5-0.5-2-0.9l0.9-2.1c0.5,0.3,1.1,0.6,1.7,0.8c0.6,0.2,1.2,0.3,1.8,0.3
			c0.6,0,1.1-0.1,1.4-0.3s0.5-0.4,0.5-0.7c0-0.3-0.1-0.5-0.4-0.7c-0.3-0.2-0.9-0.4-1.7-0.5c-1-0.2-1.8-0.5-2.4-0.8
			c-0.6-0.3-1-0.7-1.2-1.1c-0.2-0.4-0.3-0.9-0.3-1.5c0-0.7,0.2-1.3,0.6-1.8c0.4-0.5,0.9-1,1.6-1.3s1.5-0.5,2.4-0.5
			c0.8,0,1.6,0.1,2.3,0.3c0.7,0.2,1.3,0.5,1.8,0.9l-0.9,2.1c-0.5-0.3-1-0.6-1.5-0.8c-0.5-0.2-1.1-0.3-1.6-0.3
			c-0.5,0-0.9,0.1-1.3,0.3c-0.3,0.2-0.5,0.5-0.5,0.8c0,0.2,0.1,0.3,0.2,0.5c0.1,0.1,0.3,0.2,0.6,0.4s0.8,0.2,1.4,0.4
			c1,0.2,1.8,0.5,2.4,0.8c0.6,0.3,1,0.7,1.2,1.1c0.2,0.4,0.4,0.9,0.4,1.5c0,1.1-0.4,1.9-1.3,2.5c-0.8,0.6-2,0.9-3.5,0.9
			C163.4,50.3,162.6,50.2,161.8,50z"/>
	</g>
	<rect x="416.2" y="23.2" class="st5" width="125.6" height="40.1"/>
	<g class="st4">
		<path class="st7" d="M447.5,38H446l-1.5-4.1c-0.2-0.5-0.4-0.8-0.8-1s-0.8-0.3-1.4-0.3h-3.1V38h-1.4V25.7h4.9c1.3,0,2.3,0.3,3,0.9
			c0.7,0.6,1.1,1.4,1.1,2.5c0,0.8-0.2,1.5-0.6,2c-0.4,0.5-1,0.9-1.8,1.2c0.4,0.1,0.7,0.2,0.9,0.5c0.3,0.2,0.5,0.6,0.6,1.1L447.5,38z
			 M442.6,31.5c1.9,0,2.8-0.8,2.8-2.3c0-0.8-0.2-1.3-0.7-1.7s-1.2-0.6-2.1-0.6h-3.4v4.6H442.6z"/>
		<path class="st7" d="M456.9,33.6h-6.4c0,1.1,0.3,1.9,0.8,2.5c0.5,0.6,1.2,0.8,2.2,0.8c1,0,1.9-0.3,2.8-1l0.5,1
			c-0.4,0.4-0.9,0.6-1.5,0.8c-0.6,0.2-1.2,0.3-1.8,0.3c-1.4,0-2.4-0.4-3.2-1.2c-0.8-0.8-1.2-1.9-1.2-3.3c0-0.9,0.2-1.7,0.5-2.3
			s0.8-1.2,1.4-1.6c0.6-0.4,1.3-0.6,2.1-0.6c1.1,0,2,0.4,2.7,1.1c0.7,0.8,1,1.8,1,3.1V33.6z M451.4,30.9c-0.5,0.4-0.7,1-0.9,1.8h5
			c-0.1-0.8-0.3-1.4-0.7-1.9c-0.4-0.4-1-0.6-1.7-0.6C452.5,30.2,451.9,30.4,451.4,30.9z"/>
		<path class="st7" d="M466.6,29.3V38h-1.4v-1.6c-0.3,0.5-0.6,1-1.1,1.2c-0.5,0.3-1.1,0.4-1.8,0.4c-0.8,0-1.4-0.2-2-0.6
			c-0.6-0.4-1-0.9-1.3-1.6c-0.3-0.7-0.5-1.5-0.5-2.3c0-0.9,0.2-1.7,0.5-2.4c0.3-0.7,0.8-1.2,1.4-1.6s1.2-0.6,2-0.6
			c0.7,0,1.3,0.1,1.8,0.4c0.5,0.3,0.9,0.7,1.2,1.3v-1.5H466.6z M464.5,36.1c0.5-0.6,0.7-1.4,0.7-2.5s-0.2-1.9-0.7-2.5
			c-0.5-0.6-1.1-0.9-2-0.9c-0.8,0-1.5,0.3-2,0.9c-0.5,0.6-0.7,1.4-0.7,2.5s0.2,1.9,0.7,2.4c0.5,0.6,1.1,0.9,2,0.9
			C463.4,36.9,464.1,36.7,464.5,36.1z"/>
		<path class="st7" d="M476.9,25.3V38h-1.4v-1.6c-0.3,0.5-0.6,1-1.1,1.2c-0.5,0.3-1.1,0.4-1.8,0.4c-0.8,0-1.4-0.2-2-0.6
			c-0.6-0.4-1-0.9-1.4-1.6c-0.3-0.7-0.5-1.5-0.5-2.4s0.2-1.7,0.5-2.3c0.3-0.7,0.8-1.2,1.4-1.6c0.6-0.4,1.3-0.6,2-0.6
			c0.7,0,1.3,0.1,1.8,0.4c0.5,0.3,0.9,0.7,1.1,1.2v-5.5H476.9z M474.9,36.1c0.5-0.6,0.7-1.4,0.7-2.5c0-1.1-0.2-1.9-0.7-2.5
			c-0.5-0.6-1.1-0.9-2-0.9c-0.8,0-1.5,0.3-2,0.9c-0.5,0.6-0.7,1.4-0.7,2.4c0,1.1,0.2,1.9,0.7,2.5c0.5,0.6,1.1,0.9,2,0.9
			C473.8,36.9,474.4,36.7,474.9,36.1z"/>
		<path class="st7" d="M479.5,25.7h1.7v1.6h-1.7V25.7z M479.6,38v-8.7h1.4V38H479.6z"/>
		<path class="st7" d="M491.2,32.5V38h-1.4v-5.4c0-0.8-0.2-1.4-0.5-1.8s-0.8-0.6-1.5-0.6c-0.8,0-1.4,0.2-1.9,0.7
			c-0.5,0.5-0.7,1.2-0.7,2v5h-1.4v-6.2c0-0.9,0-1.7-0.1-2.4h1.3l0.1,1.5c0.3-0.6,0.7-1,1.2-1.3c0.5-0.3,1.1-0.5,1.8-0.5
			C490.1,29.1,491.2,30.3,491.2,32.5z"/>
		<path class="st7" d="M501.1,33.6h-6.4c0,1.1,0.3,1.9,0.8,2.5c0.5,0.6,1.2,0.8,2.2,0.8c1,0,1.9-0.3,2.8-1l0.5,1
			c-0.4,0.4-0.9,0.6-1.5,0.8c-0.6,0.2-1.2,0.3-1.8,0.3c-1.4,0-2.4-0.4-3.2-1.2c-0.8-0.8-1.2-1.9-1.2-3.3c0-0.9,0.2-1.7,0.5-2.3
			s0.8-1.2,1.4-1.6c0.6-0.4,1.3-0.6,2.1-0.6c1.1,0,2,0.4,2.7,1.1c0.7,0.8,1,1.8,1,3.1V33.6z M495.6,30.9c-0.5,0.4-0.7,1-0.9,1.8h5
			c-0.1-0.8-0.3-1.4-0.7-1.9c-0.4-0.4-1-0.6-1.7-0.6C496.7,30.2,496.1,30.4,495.6,30.9z"/>
		<path class="st7" d="M502.6,37l0.5-1c0.5,0.4,0.9,0.6,1.4,0.8c0.5,0.2,1,0.2,1.6,0.2c0.7,0,1.2-0.1,1.5-0.3s0.5-0.5,0.5-1
			c0-0.3-0.1-0.6-0.3-0.8c-0.2-0.2-0.6-0.4-1.1-0.5l-1.5-0.3c-0.7-0.2-1.3-0.4-1.7-0.9s-0.6-0.9-0.6-1.5c0-0.8,0.3-1.4,0.9-1.9
			s1.4-0.7,2.4-0.7c0.6,0,1.2,0.1,1.7,0.3c0.5,0.2,1,0.5,1.4,0.8l-0.5,1c-0.8-0.7-1.7-1-2.6-1c-0.6,0-1.1,0.1-1.4,0.4
			c-0.3,0.2-0.5,0.6-0.5,1c0,0.4,0.1,0.6,0.3,0.8c0.2,0.2,0.6,0.4,1,0.5l1.5,0.4c0.8,0.2,1.4,0.5,1.8,0.9c0.4,0.4,0.6,0.9,0.6,1.5
			c0,0.7-0.3,1.3-0.9,1.8c-0.6,0.4-1.4,0.7-2.5,0.7C504.6,38.1,503.5,37.7,502.6,37z"/>
		<path class="st7" d="M511.2,37l0.5-1c0.5,0.4,0.9,0.6,1.4,0.8c0.5,0.2,1,0.2,1.6,0.2c0.7,0,1.2-0.1,1.5-0.3s0.5-0.5,0.5-1
			c0-0.3-0.1-0.6-0.3-0.8c-0.2-0.2-0.6-0.4-1.1-0.5l-1.5-0.3c-0.7-0.2-1.3-0.4-1.7-0.9s-0.6-0.9-0.6-1.5c0-0.8,0.3-1.4,0.9-1.9
			s1.4-0.7,2.4-0.7c0.6,0,1.2,0.1,1.7,0.3c0.5,0.2,1,0.5,1.4,0.8l-0.5,1c-0.8-0.7-1.7-1-2.6-1c-0.6,0-1.1,0.1-1.4,0.4
			c-0.3,0.2-0.5,0.6-0.5,1c0,0.4,0.1,0.6,0.3,0.8c0.2,0.2,0.6,0.4,1,0.5l1.5,0.4c0.8,0.2,1.4,0.5,1.8,0.9c0.4,0.4,0.6,0.9,0.6,1.5
			c0,0.7-0.3,1.3-0.9,1.8c-0.6,0.4-1.4,0.7-2.5,0.7C513.2,38.1,512,37.7,511.2,37z"/>
	</g>
	<g class="st4">
		<path class="st7" d="M439.9,58.7l-1.3-3.2h-6.4l-1.4,3.2h-1.5l5.4-12.3h1.2l5.4,12.3H439.9z M432.7,54.4h5.4l-2.7-6.3L432.7,54.4z
			"/>
		<path class="st7" d="M442.4,57.7l0.5-1c0.5,0.4,0.9,0.6,1.4,0.8c0.5,0.2,1,0.2,1.6,0.2c0.7,0,1.2-0.1,1.5-0.3s0.5-0.5,0.5-1
			c0-0.3-0.1-0.6-0.3-0.8c-0.2-0.2-0.6-0.4-1.1-0.5l-1.5-0.3c-0.7-0.2-1.3-0.4-1.7-0.9s-0.6-0.9-0.6-1.5c0-0.8,0.3-1.4,0.9-1.9
			s1.4-0.7,2.4-0.7c0.6,0,1.2,0.1,1.7,0.3c0.5,0.2,1,0.5,1.4,0.8l-0.5,1c-0.8-0.7-1.7-1-2.6-1c-0.6,0-1.1,0.1-1.4,0.4
			c-0.3,0.2-0.5,0.6-0.5,1c0,0.4,0.1,0.6,0.3,0.8c0.2,0.2,0.6,0.4,1,0.5l1.5,0.4c0.8,0.2,1.4,0.5,1.8,0.9c0.4,0.4,0.6,0.9,0.6,1.5
			c0,0.7-0.3,1.3-0.9,1.8c-0.6,0.4-1.4,0.7-2.5,0.7C444.4,58.8,443.2,58.4,442.4,57.7z"/>
		<path class="st7" d="M450.9,57.7l0.5-1c0.5,0.4,0.9,0.6,1.4,0.8c0.5,0.2,1,0.2,1.6,0.2c0.7,0,1.2-0.1,1.5-0.3s0.5-0.5,0.5-1
			c0-0.3-0.1-0.6-0.3-0.8c-0.2-0.2-0.6-0.4-1.1-0.5l-1.5-0.3c-0.7-0.2-1.3-0.4-1.7-0.9s-0.6-0.9-0.6-1.5c0-0.8,0.3-1.4,0.9-1.9
			s1.4-0.7,2.4-0.7c0.6,0,1.2,0.1,1.7,0.3c0.5,0.2,1,0.5,1.4,0.8l-0.5,1c-0.8-0.7-1.7-1-2.6-1c-0.6,0-1.1,0.1-1.4,0.4
			c-0.3,0.2-0.5,0.6-0.5,1c0,0.4,0.1,0.6,0.3,0.8c0.2,0.2,0.6,0.4,1,0.5l1.5,0.4c0.8,0.2,1.4,0.5,1.8,0.9c0.4,0.4,0.6,0.9,0.6,1.5
			c0,0.7-0.3,1.3-0.9,1.8c-0.6,0.4-1.4,0.7-2.5,0.7C452.9,58.8,451.8,58.4,450.9,57.7z"/>
		<path class="st7" d="M467.2,54.3h-6.4c0,1.1,0.3,1.9,0.8,2.5c0.5,0.6,1.2,0.8,2.2,0.8c1,0,1.9-0.3,2.8-1l0.5,1
			c-0.4,0.4-0.9,0.6-1.5,0.8c-0.6,0.2-1.2,0.3-1.8,0.3c-1.4,0-2.4-0.4-3.2-1.2c-0.8-0.8-1.2-1.9-1.2-3.3c0-0.9,0.2-1.7,0.5-2.3
			s0.8-1.2,1.4-1.6c0.6-0.4,1.3-0.6,2.1-0.6c1.1,0,2,0.4,2.7,1.1c0.7,0.8,1,1.8,1,3.1V54.3z M461.8,51.6c-0.5,0.4-0.7,1-0.9,1.8h5
			c-0.1-0.8-0.3-1.4-0.7-1.9c-0.4-0.4-1-0.6-1.7-0.6C462.9,50.9,462.3,51.1,461.8,51.6z"/>
		<path class="st7" d="M468.8,57.7l0.5-1c0.5,0.4,0.9,0.6,1.4,0.8c0.5,0.2,1,0.2,1.6,0.2c0.7,0,1.2-0.1,1.5-0.3s0.5-0.5,0.5-1
			c0-0.3-0.1-0.6-0.3-0.8c-0.2-0.2-0.6-0.4-1.1-0.5l-1.5-0.3c-0.7-0.2-1.3-0.4-1.7-0.9s-0.6-0.9-0.6-1.5c0-0.8,0.3-1.4,0.9-1.9
			s1.4-0.7,2.4-0.7c0.6,0,1.2,0.1,1.7,0.3c0.5,0.2,1,0.5,1.4,0.8l-0.5,1c-0.8-0.7-1.7-1-2.6-1c-0.6,0-1.1,0.1-1.4,0.4
			c-0.3,0.2-0.5,0.6-0.5,1c0,0.4,0.1,0.6,0.3,0.8c0.2,0.2,0.6,0.4,1,0.5l1.5,0.4c0.8,0.2,1.4,0.5,1.8,0.9c0.4,0.4,0.6,0.9,0.6,1.5
			c0,0.7-0.3,1.3-0.9,1.8c-0.6,0.4-1.4,0.7-2.5,0.7C470.8,58.8,469.7,58.4,468.8,57.7z"/>
		<path class="st7" d="M477.4,57.7l0.5-1c0.5,0.4,0.9,0.6,1.4,0.8c0.5,0.2,1,0.2,1.6,0.2c0.7,0,1.2-0.1,1.5-0.3s0.5-0.5,0.5-1
			c0-0.3-0.1-0.6-0.3-0.8c-0.2-0.2-0.6-0.4-1.1-0.5l-1.5-0.3c-0.7-0.2-1.3-0.4-1.7-0.9s-0.6-0.9-0.6-1.5c0-0.8,0.3-1.4,0.9-1.9
			s1.4-0.7,2.4-0.7c0.6,0,1.2,0.1,1.7,0.3c0.5,0.2,1,0.5,1.4,0.8l-0.5,1c-0.8-0.7-1.7-1-2.6-1c-0.6,0-1.1,0.1-1.4,0.4
			c-0.3,0.2-0.5,0.6-0.5,1c0,0.4,0.1,0.6,0.3,0.8c0.2,0.2,0.6,0.4,1,0.5l1.5,0.4c0.8,0.2,1.4,0.5,1.8,0.9c0.4,0.4,0.6,0.9,0.6,1.5
			c0,0.7-0.3,1.3-0.9,1.8c-0.6,0.4-1.4,0.7-2.5,0.7C479.4,58.8,478.2,58.4,477.4,57.7z"/>
		<path class="st7" d="M498.9,53.2v5.4h-1.4v-5.4c0-0.8-0.1-1.4-0.4-1.8c-0.3-0.4-0.7-0.6-1.4-0.6c-0.7,0-1.3,0.2-1.7,0.7
			c-0.4,0.5-0.6,1.2-0.6,2v4.9H492v-5.4c0-0.8-0.1-1.4-0.4-1.8c-0.3-0.4-0.7-0.6-1.4-0.6c-0.7,0-1.3,0.2-1.7,0.7
			c-0.4,0.5-0.6,1.2-0.6,2v4.9h-1.4v-6.2c0-0.9,0-1.7-0.1-2.4h1.3l0.1,1.5c0.2-0.6,0.6-1,1.1-1.3c0.5-0.3,1-0.4,1.7-0.4
			c0.7,0,1.3,0.1,1.7,0.4c0.4,0.3,0.8,0.7,1,1.3c0.3-0.5,0.7-0.9,1.2-1.2c0.5-0.3,1.1-0.5,1.7-0.5C498,49.8,498.9,51,498.9,53.2z"/>
		<path class="st7" d="M508.8,54.3h-6.4c0,1.1,0.3,1.9,0.8,2.5c0.5,0.6,1.2,0.8,2.2,0.8c1,0,1.9-0.3,2.8-1l0.5,1
			c-0.4,0.4-0.9,0.6-1.5,0.8c-0.6,0.2-1.2,0.3-1.8,0.3c-1.4,0-2.4-0.4-3.2-1.2c-0.8-0.8-1.2-1.9-1.2-3.3c0-0.9,0.2-1.7,0.5-2.3
			s0.8-1.2,1.4-1.6c0.6-0.4,1.3-0.6,2.1-0.6c1.1,0,2,0.4,2.7,1.1c0.7,0.8,1,1.8,1,3.1V54.3z M503.4,51.6c-0.5,0.4-0.7,1-0.9,1.8h5
			c-0.1-0.8-0.3-1.4-0.7-1.9c-0.4-0.4-1-0.6-1.7-0.6C504.4,50.9,503.8,51.1,503.4,51.6z"/>
		<path class="st7" d="M518.4,53.2v5.4H517v-5.4c0-0.8-0.2-1.4-0.5-1.8S515.7,51,515,51c-0.8,0-1.4,0.2-1.9,0.7
			c-0.5,0.5-0.7,1.2-0.7,2v5h-1.4v-6.2c0-0.9,0-1.7-0.1-2.4h1.3l0.1,1.5c0.3-0.6,0.7-1,1.2-1.3c0.5-0.3,1.1-0.5,1.8-0.5
			C517.3,49.8,518.4,51,518.4,53.2z"/>
		<path class="st7" d="M522.9,51.1v4.7c0,0.6,0.1,1.1,0.4,1.4c0.3,0.3,0.6,0.4,1.1,0.4c0.3,0,0.6-0.1,0.9-0.2v1.2
			c-0.4,0.1-0.8,0.2-1.2,0.2c-0.8,0-1.5-0.2-1.9-0.7s-0.7-1.2-0.7-2.1v-4.9h-1.7V50h1.7v-2.2l1.4-0.5V50h2.5v1.1H522.9z"/>
	</g>
	<rect x="407.7" y="226.3" class="st5" width="137.7" height="40.1"/>
	<g class="st4">
		<path class="st7" d="M445,241h-1.5L442,237c-0.2-0.5-0.4-0.8-0.8-1s-0.8-0.3-1.4-0.3h-3.1v5.4h-1.4v-12.3h4.9c1.3,0,2.3,0.3,3,0.9
			c0.7,0.6,1.1,1.4,1.1,2.5c0,0.8-0.2,1.5-0.6,2s-1,0.9-1.8,1.2c0.4,0.1,0.7,0.2,0.9,0.5c0.3,0.2,0.5,0.6,0.6,1.1L445,241z
			 M440.1,234.5c1.9,0,2.8-0.8,2.8-2.3c0-0.8-0.2-1.3-0.7-1.7s-1.2-0.6-2.1-0.6h-3.4v4.6H440.1z"/>
		<path class="st7" d="M454.4,236.7H448c0,1.1,0.3,1.9,0.8,2.5c0.5,0.6,1.2,0.8,2.2,0.8c1,0,1.9-0.3,2.8-1l0.5,1
			c-0.4,0.4-0.9,0.6-1.5,0.8c-0.6,0.2-1.2,0.3-1.8,0.3c-1.4,0-2.4-0.4-3.2-1.2c-0.8-0.8-1.2-1.9-1.2-3.3c0-0.9,0.2-1.7,0.5-2.3
			c0.3-0.7,0.8-1.2,1.4-1.6c0.6-0.4,1.3-0.6,2.1-0.6c1.1,0,2,0.4,2.7,1.1c0.7,0.8,1,1.8,1,3.1V236.7z M449,233.9
			c-0.5,0.4-0.7,1-0.9,1.8h5c-0.1-0.8-0.3-1.4-0.7-1.9s-1-0.6-1.7-0.6C450,233.3,449.4,233.5,449,233.9z"/>
		<path class="st7" d="M464.1,232.4v8.7h-1.4v-1.6c-0.3,0.5-0.6,1-1.1,1.2c-0.5,0.3-1.1,0.4-1.8,0.4c-0.8,0-1.4-0.2-2-0.6
			c-0.6-0.4-1-0.9-1.3-1.6c-0.3-0.7-0.5-1.5-0.5-2.3c0-0.9,0.2-1.7,0.5-2.4c0.3-0.7,0.8-1.2,1.4-1.6s1.2-0.6,2-0.6
			c0.7,0,1.3,0.2,1.8,0.4c0.5,0.3,0.9,0.7,1.2,1.3v-1.5H464.1z M462.1,239.1c0.5-0.6,0.7-1.4,0.7-2.5c0-1.1-0.2-1.9-0.7-2.5
			c-0.5-0.6-1.1-0.9-2-0.9c-0.8,0-1.5,0.3-2,0.9c-0.5,0.6-0.7,1.4-0.7,2.5c0,1.1,0.2,1.9,0.7,2.4c0.5,0.6,1.1,0.9,2,0.9
			C460.9,240,461.6,239.7,462.1,239.1z"/>
		<path class="st7" d="M474.5,228.4V241h-1.4v-1.6c-0.3,0.5-0.6,1-1.1,1.2c-0.5,0.3-1.1,0.4-1.8,0.4c-0.8,0-1.4-0.2-2-0.6
			c-0.6-0.4-1-0.9-1.4-1.6c-0.3-0.7-0.5-1.5-0.5-2.4c0-0.9,0.2-1.7,0.5-2.3c0.3-0.7,0.8-1.2,1.4-1.6c0.6-0.4,1.3-0.6,2-0.6
			c0.7,0,1.3,0.1,1.8,0.4c0.5,0.3,0.9,0.7,1.1,1.2v-5.5H474.5z M472.4,239.1c0.5-0.6,0.7-1.4,0.7-2.5c0-1.1-0.2-1.9-0.7-2.5
			s-1.1-0.9-2-0.9c-0.8,0-1.5,0.3-2,0.9c-0.5,0.6-0.7,1.4-0.7,2.4c0,1.1,0.2,1.9,0.7,2.5c0.5,0.6,1.1,0.9,2,0.9
			C471.3,240,471.9,239.7,472.4,239.1z"/>
		<path class="st7" d="M477,228.7h1.7v1.6H477V228.7z M477.2,241v-8.7h1.4v8.7H477.2z"/>
		<path class="st7" d="M488.7,235.6v5.4h-1.4v-5.4c0-0.8-0.2-1.4-0.5-1.8s-0.8-0.6-1.5-0.6c-0.8,0-1.4,0.2-1.9,0.7
			c-0.5,0.5-0.7,1.2-0.7,2v5h-1.4v-6.2c0-0.9,0-1.7-0.1-2.4h1.3l0.1,1.5c0.3-0.6,0.7-1,1.2-1.3c0.5-0.3,1.1-0.5,1.8-0.5
			C487.7,232.2,488.7,233.3,488.7,235.6z"/>
		<path class="st7" d="M498.6,236.7h-6.4c0,1.1,0.3,1.9,0.8,2.5c0.5,0.6,1.2,0.8,2.2,0.8c1,0,1.9-0.3,2.8-1l0.5,1
			c-0.4,0.4-0.9,0.6-1.5,0.8c-0.6,0.2-1.2,0.3-1.8,0.3c-1.4,0-2.4-0.4-3.2-1.2c-0.8-0.8-1.2-1.9-1.2-3.3c0-0.9,0.2-1.7,0.5-2.3
			c0.3-0.7,0.8-1.2,1.4-1.6c0.6-0.4,1.3-0.6,2.1-0.6c1.1,0,2,0.4,2.7,1.1c0.7,0.8,1,1.8,1,3.1V236.7z M493.1,233.9
			c-0.5,0.4-0.7,1-0.9,1.8h5c-0.1-0.8-0.3-1.4-0.7-1.9s-1-0.6-1.7-0.6C494.2,233.3,493.6,233.5,493.1,233.9z"/>
		<path class="st7" d="M500.2,240l0.5-1c0.5,0.4,0.9,0.6,1.4,0.8s1,0.2,1.6,0.2c0.7,0,1.2-0.1,1.5-0.3c0.3-0.2,0.5-0.5,0.5-1
			c0-0.3-0.1-0.6-0.3-0.8c-0.2-0.2-0.6-0.4-1.1-0.5l-1.5-0.3c-0.7-0.2-1.3-0.4-1.7-0.9c-0.4-0.4-0.6-0.9-0.6-1.5
			c0-0.8,0.3-1.4,0.9-1.9s1.4-0.7,2.4-0.7c0.6,0,1.2,0.1,1.7,0.3c0.5,0.2,1,0.5,1.4,0.8l-0.5,1c-0.8-0.7-1.7-1-2.6-1
			c-0.6,0-1.1,0.1-1.4,0.4c-0.3,0.2-0.5,0.6-0.5,1c0,0.4,0.1,0.6,0.3,0.8c0.2,0.2,0.6,0.4,1,0.5l1.5,0.4c0.8,0.2,1.4,0.5,1.8,0.9
			c0.4,0.4,0.6,0.9,0.6,1.5c0,0.7-0.3,1.3-0.9,1.8c-0.6,0.4-1.4,0.7-2.5,0.7C502.2,241.2,501,240.8,500.2,240z"/>
		<path class="st7" d="M508.7,240l0.5-1c0.5,0.4,0.9,0.6,1.4,0.8s1,0.2,1.6,0.2c0.7,0,1.2-0.1,1.5-0.3c0.3-0.2,0.5-0.5,0.5-1
			c0-0.3-0.1-0.6-0.3-0.8c-0.2-0.2-0.6-0.4-1.1-0.5l-1.5-0.3c-0.7-0.2-1.3-0.4-1.7-0.9c-0.4-0.4-0.6-0.9-0.6-1.5
			c0-0.8,0.3-1.4,0.9-1.9s1.4-0.7,2.4-0.7c0.6,0,1.2,0.1,1.7,0.3c0.5,0.2,1,0.5,1.4,0.8l-0.5,1c-0.8-0.7-1.7-1-2.6-1
			c-0.6,0-1.1,0.1-1.4,0.4c-0.3,0.2-0.5,0.6-0.5,1c0,0.4,0.1,0.6,0.3,0.8c0.2,0.2,0.6,0.4,1,0.5l1.5,0.4c0.8,0.2,1.4,0.5,1.8,0.9
			c0.4,0.4,0.6,0.9,0.6,1.5c0,0.7-0.3,1.3-0.9,1.8c-0.6,0.4-1.4,0.7-2.5,0.7C510.7,241.2,509.5,240.8,508.7,240z"/>
	</g>
	<g class="st4">
		<path class="st7" d="M437.4,261.7l-1.3-3.2h-6.4l-1.4,3.2h-1.5l5.4-12.3h1.2l5.4,12.3H437.4z M430.2,257.4h5.4l-2.7-6.3
			L430.2,257.4z"/>
		<path class="st7" d="M439.9,260.7l0.5-1c0.5,0.4,0.9,0.6,1.4,0.8c0.5,0.2,1,0.2,1.6,0.2c0.7,0,1.2-0.1,1.5-0.3s0.5-0.5,0.5-1
			c0-0.3-0.1-0.6-0.3-0.8c-0.2-0.2-0.6-0.4-1.1-0.5l-1.5-0.3c-0.7-0.2-1.3-0.4-1.7-0.9s-0.6-0.9-0.6-1.5c0-0.8,0.3-1.4,0.9-1.9
			s1.4-0.7,2.4-0.7c0.6,0,1.2,0.1,1.7,0.3c0.5,0.2,1,0.5,1.4,0.8l-0.5,1c-0.8-0.7-1.7-1-2.6-1c-0.6,0-1.1,0.1-1.4,0.4
			c-0.3,0.2-0.5,0.6-0.5,1c0,0.4,0.1,0.6,0.3,0.8c0.2,0.2,0.6,0.4,1,0.5l1.5,0.4c0.8,0.2,1.4,0.5,1.8,0.9c0.4,0.4,0.6,0.9,0.6,1.5
			c0,0.7-0.3,1.3-0.9,1.8c-0.6,0.4-1.4,0.7-2.5,0.7C441.9,261.9,440.8,261.5,439.9,260.7z"/>
		<path class="st7" d="M448.4,260.7l0.5-1c0.5,0.4,0.9,0.6,1.4,0.8c0.5,0.2,1,0.2,1.6,0.2c0.7,0,1.2-0.1,1.5-0.3s0.5-0.5,0.5-1
			c0-0.3-0.1-0.6-0.3-0.8c-0.2-0.2-0.6-0.4-1.1-0.5l-1.5-0.3c-0.7-0.2-1.3-0.4-1.7-0.9s-0.6-0.9-0.6-1.5c0-0.8,0.3-1.4,0.9-1.9
			s1.4-0.7,2.4-0.7c0.6,0,1.2,0.1,1.7,0.3c0.5,0.2,1,0.5,1.4,0.8l-0.5,1c-0.8-0.7-1.7-1-2.6-1c-0.6,0-1.1,0.1-1.4,0.4
			c-0.3,0.2-0.5,0.6-0.5,1c0,0.4,0.1,0.6,0.3,0.8c0.2,0.2,0.6,0.4,1,0.5l1.5,0.4c0.8,0.2,1.4,0.5,1.8,0.9c0.4,0.4,0.6,0.9,0.6,1.5
			c0,0.7-0.3,1.3-0.9,1.8c-0.6,0.4-1.4,0.7-2.5,0.7C450.4,261.9,449.3,261.5,448.4,260.7z"/>
		<path class="st7" d="M464.8,257.4h-6.4c0,1.1,0.3,1.9,0.8,2.5c0.5,0.6,1.2,0.8,2.2,0.8c1,0,1.9-0.3,2.8-1l0.5,1
			c-0.4,0.4-0.9,0.6-1.5,0.8c-0.6,0.2-1.2,0.3-1.8,0.3c-1.4,0-2.4-0.4-3.2-1.2c-0.8-0.8-1.2-1.9-1.2-3.3c0-0.9,0.2-1.7,0.5-2.3
			s0.8-1.2,1.4-1.6c0.6-0.4,1.3-0.6,2.1-0.6c1.1,0,2,0.4,2.7,1.1c0.7,0.8,1,1.8,1,3.1V257.4z M459.3,254.6c-0.5,0.4-0.7,1-0.9,1.8h5
			c-0.1-0.8-0.3-1.4-0.7-1.9c-0.4-0.4-1-0.6-1.7-0.6C460.4,254,459.8,254.2,459.3,254.6z"/>
		<path class="st7" d="M466.3,260.7l0.5-1c0.5,0.4,0.9,0.6,1.4,0.8c0.5,0.2,1,0.2,1.6,0.2c0.7,0,1.2-0.1,1.5-0.3s0.5-0.5,0.5-1
			c0-0.3-0.1-0.6-0.3-0.8c-0.2-0.2-0.6-0.4-1.1-0.5l-1.5-0.3c-0.7-0.2-1.3-0.4-1.7-0.9s-0.6-0.9-0.6-1.5c0-0.8,0.3-1.4,0.9-1.9
			s1.4-0.7,2.4-0.7c0.6,0,1.2,0.1,1.7,0.3c0.5,0.2,1,0.5,1.4,0.8l-0.5,1c-0.8-0.7-1.7-1-2.6-1c-0.6,0-1.1,0.1-1.4,0.4
			c-0.3,0.2-0.5,0.6-0.5,1c0,0.4,0.1,0.6,0.3,0.8c0.2,0.2,0.6,0.4,1,0.5l1.5,0.4c0.8,0.2,1.4,0.5,1.8,0.9c0.4,0.4,0.6,0.9,0.6,1.5
			c0,0.7-0.3,1.3-0.9,1.8c-0.6,0.4-1.4,0.7-2.5,0.7C468.3,261.9,467.2,261.5,466.3,260.7z"/>
		<path class="st7" d="M474.9,260.7l0.5-1c0.5,0.4,0.9,0.6,1.4,0.8c0.5,0.2,1,0.2,1.6,0.2c0.7,0,1.2-0.1,1.5-0.3s0.5-0.5,0.5-1
			c0-0.3-0.1-0.6-0.3-0.8c-0.2-0.2-0.6-0.4-1.1-0.5l-1.5-0.3c-0.7-0.2-1.3-0.4-1.7-0.9s-0.6-0.9-0.6-1.5c0-0.8,0.3-1.4,0.9-1.9
			s1.4-0.7,2.4-0.7c0.6,0,1.2,0.1,1.7,0.3c0.5,0.2,1,0.5,1.4,0.8l-0.5,1c-0.8-0.7-1.7-1-2.6-1c-0.6,0-1.1,0.1-1.4,0.4
			c-0.3,0.2-0.5,0.6-0.5,1c0,0.4,0.1,0.6,0.3,0.8c0.2,0.2,0.6,0.4,1,0.5l1.5,0.4c0.8,0.2,1.4,0.5,1.8,0.9c0.4,0.4,0.6,0.9,0.6,1.5
			c0,0.7-0.3,1.3-0.9,1.8c-0.6,0.4-1.4,0.7-2.5,0.7C476.9,261.9,475.7,261.5,474.9,260.7z"/>
		<path class="st7" d="M496.4,256.3v5.4H495v-5.4c0-0.8-0.1-1.4-0.4-1.8c-0.3-0.4-0.7-0.6-1.4-0.6c-0.7,0-1.3,0.2-1.7,0.7
			c-0.4,0.5-0.6,1.2-0.6,2v4.9h-1.4v-5.4c0-0.8-0.1-1.4-0.4-1.8c-0.3-0.4-0.7-0.6-1.4-0.6c-0.7,0-1.3,0.2-1.7,0.7
			c-0.4,0.5-0.6,1.2-0.6,2v4.9H484v-6.2c0-0.9,0-1.7-0.1-2.4h1.3l0.1,1.5c0.2-0.6,0.6-1,1.1-1.3c0.5-0.3,1-0.4,1.7-0.4
			c0.7,0,1.3,0.1,1.7,0.4c0.4,0.3,0.8,0.7,1,1.3c0.3-0.5,0.7-0.9,1.2-1.2c0.5-0.3,1.1-0.5,1.7-0.5
			C495.5,252.9,496.4,254,496.4,256.3z"/>
		<path class="st7" d="M506.3,257.4H500c0,1.1,0.3,1.9,0.8,2.5c0.5,0.6,1.2,0.8,2.2,0.8c1,0,1.9-0.3,2.8-1l0.5,1
			c-0.4,0.4-0.9,0.6-1.5,0.8c-0.6,0.2-1.2,0.3-1.8,0.3c-1.4,0-2.4-0.4-3.2-1.2c-0.8-0.8-1.2-1.9-1.2-3.3c0-0.9,0.2-1.7,0.5-2.3
			s0.8-1.2,1.4-1.6c0.6-0.4,1.3-0.6,2.1-0.6c1.1,0,2,0.4,2.7,1.1c0.7,0.8,1,1.8,1,3.1V257.4z M500.9,254.6c-0.5,0.4-0.7,1-0.9,1.8h5
			c-0.1-0.8-0.3-1.4-0.7-1.9c-0.4-0.4-1-0.6-1.7-0.6C501.9,254,501.4,254.2,500.9,254.6z"/>
		<path class="st7" d="M515.9,256.3v5.4h-1.4v-5.4c0-0.8-0.2-1.4-0.5-1.8s-0.8-0.6-1.5-0.6c-0.8,0-1.4,0.2-1.9,0.7
			c-0.5,0.5-0.7,1.2-0.7,2v5h-1.4v-6.2c0-0.9,0-1.7-0.1-2.4h1.3l0.1,1.5c0.3-0.6,0.7-1,1.2-1.3c0.5-0.3,1.1-0.5,1.8-0.5
			C514.9,252.9,515.9,254,515.9,256.3z"/>
		<path class="st7" d="M520.4,254.2v4.7c0,0.6,0.1,1.1,0.4,1.4c0.3,0.3,0.6,0.4,1.1,0.4c0.3,0,0.6-0.1,0.9-0.2v1.2
			c-0.4,0.1-0.8,0.2-1.2,0.2c-0.8,0-1.5-0.2-1.9-0.7s-0.7-1.2-0.7-2.1v-4.9h-1.7v-1.1h1.7v-2.2l1.4-0.5v2.7h2.5v1.1H520.4z"/>
	</g>
	<rect x="258.7" y="23.3" class="st5" width="125.6" height="40.1"/>
	<g class="st4">
		<path class="st7" d="M275,25.7h4.9c1.3,0,2.2,0.3,3,0.9c0.7,0.6,1.1,1.4,1.1,2.5s-0.4,1.9-1.1,2.5c-0.7,0.6-1.7,0.9-2.9,0.9h-3.5
			V38H275V25.7z M279.8,31.4c0.9,0,1.6-0.2,2-0.6c0.5-0.4,0.7-1,0.7-1.7s-0.2-1.3-0.7-1.7s-1.1-0.6-2-0.6h-3.4v4.5H279.8z"/>
		<path class="st7" d="M293.4,29.3V38H292v-1.6c-0.3,0.5-0.6,1-1.1,1.2c-0.5,0.3-1.1,0.4-1.8,0.4c-0.8,0-1.4-0.2-2-0.6
			c-0.6-0.4-1-0.9-1.3-1.6c-0.3-0.7-0.5-1.5-0.5-2.3c0-0.9,0.2-1.7,0.5-2.4c0.3-0.7,0.8-1.2,1.4-1.6s1.2-0.6,2-0.6
			c0.7,0,1.3,0.1,1.8,0.4c0.5,0.3,0.9,0.7,1.2,1.3v-1.5H293.4z M291.3,36.1c0.5-0.6,0.7-1.4,0.7-2.5s-0.2-1.9-0.7-2.5
			c-0.5-0.6-1.1-0.9-2-0.9c-0.8,0-1.5,0.3-2,0.9c-0.5,0.6-0.7,1.4-0.7,2.5s0.2,1.9,0.7,2.4c0.5,0.6,1.1,0.9,2,0.9
			C290.2,37,290.9,36.7,291.3,36.1z"/>
		<path class="st7" d="M300.9,29.2l0,1.3c-0.3-0.1-0.6-0.1-0.9-0.1c-0.8,0-1.5,0.3-1.9,0.8s-0.6,1.2-0.6,1.9V38h-1.4v-6.2
			c0-0.9,0-1.7-0.1-2.4h1.3l0.1,1.6c0.2-0.6,0.6-1,1-1.3c0.5-0.3,1-0.5,1.7-0.5C300.4,29.1,300.7,29.2,300.9,29.2z"/>
		<path class="st7" d="M304.9,30.4v4.7c0,0.6,0.1,1.1,0.4,1.4c0.3,0.3,0.6,0.4,1.1,0.4c0.3,0,0.6-0.1,0.9-0.2v1.2
			c-0.4,0.1-0.8,0.2-1.2,0.2c-0.8,0-1.5-0.2-1.9-0.7s-0.7-1.2-0.7-2.1v-4.9h-1.7v-1.1h1.7v-2.2l1.4-0.5v2.7h2.5v1.1H304.9z"/>
		<path class="st7" d="M316.5,32.6V38h-1.4v-5.4c0-0.8-0.2-1.4-0.5-1.8s-0.8-0.6-1.5-0.6c-0.8,0-1.4,0.2-1.9,0.7
			c-0.5,0.5-0.7,1.2-0.7,2v5H309v-6.2c0-0.9,0-1.7-0.1-2.4h1.3l0.1,1.5c0.3-0.6,0.7-1,1.2-1.3c0.5-0.3,1.1-0.5,1.8-0.5
			C315.4,29.1,316.5,30.3,316.5,32.6z"/>
		<path class="st7" d="M326.3,33.6H320c0,1.1,0.3,1.9,0.8,2.5c0.5,0.6,1.2,0.8,2.2,0.8c1,0,1.9-0.3,2.8-1l0.5,1
			c-0.4,0.4-0.9,0.6-1.5,0.8c-0.6,0.2-1.2,0.3-1.8,0.3c-1.4,0-2.4-0.4-3.2-1.2c-0.8-0.8-1.2-1.9-1.2-3.3c0-0.9,0.2-1.7,0.5-2.3
			s0.8-1.2,1.4-1.6c0.6-0.4,1.3-0.6,2.1-0.6c1.1,0,2,0.4,2.7,1.1c0.7,0.8,1,1.8,1,3.1V33.6z M320.9,30.9c-0.5,0.4-0.7,1-0.9,1.8h5
			c-0.1-0.8-0.3-1.4-0.7-1.9c-0.4-0.4-1-0.6-1.7-0.6C322,30.2,321.4,30.4,320.9,30.9z"/>
		<path class="st7" d="M333.3,29.2l0,1.3c-0.3-0.1-0.6-0.1-0.9-0.1c-0.8,0-1.5,0.3-1.9,0.8s-0.6,1.2-0.6,1.9V38h-1.4v-6.2
			c0-0.9,0-1.7-0.1-2.4h1.3l0.1,1.6c0.2-0.6,0.6-1,1-1.3c0.5-0.3,1-0.5,1.7-0.5C332.8,29.1,333,29.2,333.3,29.2z"/>
		<path class="st7" d="M334.1,37l0.5-1c0.5,0.4,0.9,0.6,1.4,0.8c0.5,0.2,1,0.2,1.6,0.2c0.7,0,1.2-0.1,1.5-0.3s0.5-0.5,0.5-1
			c0-0.3-0.1-0.6-0.3-0.8c-0.2-0.2-0.6-0.4-1.1-0.5l-1.5-0.3c-0.7-0.2-1.3-0.4-1.7-0.9s-0.6-0.9-0.6-1.5c0-0.8,0.3-1.4,0.9-1.9
			s1.4-0.7,2.4-0.7c0.6,0,1.2,0.1,1.7,0.3c0.5,0.2,1,0.5,1.4,0.8l-0.5,1c-0.8-0.7-1.7-1-2.6-1c-0.6,0-1.1,0.1-1.4,0.4
			c-0.3,0.2-0.5,0.6-0.5,1c0,0.4,0.1,0.6,0.3,0.8c0.2,0.2,0.6,0.4,1,0.5l1.5,0.4c0.8,0.2,1.4,0.5,1.8,0.9c0.4,0.4,0.6,0.9,0.6,1.5
			c0,0.7-0.3,1.3-0.9,1.8c-0.6,0.4-1.4,0.7-2.5,0.7C336.1,38.1,334.9,37.7,334.1,37z"/>
		<path class="st7" d="M350.6,32.6V38h-1.4v-5.4c0-0.8-0.2-1.4-0.5-1.8s-0.8-0.6-1.5-0.6c-0.8,0-1.4,0.2-1.9,0.7
			c-0.5,0.5-0.7,1.2-0.7,2v5h-1.4V25.3h1.4v5.4c0.3-0.5,0.7-0.9,1.2-1.2c0.5-0.3,1.1-0.4,1.7-0.4C349.5,29.1,350.6,30.3,350.6,32.6z
			"/>
		<path class="st7" d="M353.1,25.7h1.7v1.6h-1.7V25.7z M353.2,38v-8.7h1.4V38H353.2z"/>
		<path class="st7" d="M363.7,29.7c0.6,0.4,1,0.9,1.4,1.6c0.3,0.7,0.5,1.5,0.5,2.4c0,0.9-0.2,1.7-0.5,2.3c-0.3,0.7-0.8,1.2-1.4,1.6
			c-0.6,0.4-1.3,0.6-2,0.6c-0.7,0-1.3-0.1-1.8-0.4c-0.5-0.3-0.9-0.7-1.2-1.3v5.3h-1.4v-10c0-0.9,0-1.7-0.1-2.4h1.3l0.1,1.7
			c0.2-0.6,0.6-1.1,1.1-1.4c0.5-0.3,1.1-0.5,1.9-0.5C362.4,29.1,363.1,29.3,363.7,29.7z M363.4,36.1c0.5-0.6,0.7-1.4,0.7-2.4
			s-0.2-1.9-0.7-2.5c-0.5-0.6-1.1-0.9-2-0.9c-0.9,0-1.5,0.3-2,0.9c-0.5,0.6-0.7,1.4-0.7,2.5s0.2,1.9,0.7,2.5c0.5,0.6,1.1,0.9,2,0.9
			C362.2,37,362.9,36.7,363.4,36.1z"/>
	</g>
	<g class="st4">
		<path class="st7" d="M264.5,58.7V46.4h7.7v1.2h-6.4v4.3h6v1.2h-6v4.5h6.4v1.2H264.5z"/>
		<path class="st7" d="M273.9,57.7l0.5-1c0.5,0.4,0.9,0.6,1.4,0.8c0.5,0.2,1,0.2,1.6,0.2c0.7,0,1.2-0.1,1.5-0.3s0.5-0.5,0.5-1
			c0-0.3-0.1-0.6-0.3-0.8c-0.2-0.2-0.6-0.4-1.1-0.5l-1.5-0.3c-0.7-0.2-1.3-0.4-1.7-0.9s-0.6-0.9-0.6-1.5c0-0.8,0.3-1.4,0.9-1.9
			s1.4-0.7,2.4-0.7c0.6,0,1.2,0.1,1.7,0.3c0.5,0.2,1,0.5,1.4,0.8l-0.5,1c-0.8-0.7-1.7-1-2.6-1c-0.6,0-1.1,0.1-1.4,0.4
			c-0.3,0.2-0.5,0.6-0.5,1c0,0.4,0.1,0.6,0.3,0.8c0.2,0.2,0.6,0.4,1,0.5l1.5,0.4c0.8,0.2,1.4,0.5,1.8,0.9c0.4,0.4,0.6,0.9,0.6,1.5
			c0,0.7-0.3,1.3-0.9,1.8c-0.6,0.4-1.4,0.7-2.5,0.7C275.9,58.8,274.8,58.4,273.9,57.7z"/>
		<path class="st7" d="M284.8,51.1v4.7c0,0.6,0.1,1.1,0.4,1.4c0.3,0.3,0.6,0.4,1.1,0.4c0.3,0,0.6-0.1,0.9-0.2v1.2
			c-0.4,0.1-0.8,0.2-1.2,0.2c-0.8,0-1.5-0.2-1.9-0.7s-0.7-1.2-0.7-2.1v-4.9h-1.7V50h1.7v-2.2l1.4-0.5V50h2.5v1.1H284.8z"/>
		<path class="st7" d="M296.6,50v8.7h-1.4v-1.6c-0.3,0.5-0.6,1-1.1,1.2c-0.5,0.3-1.1,0.4-1.8,0.4c-0.8,0-1.4-0.2-2-0.6
			c-0.6-0.4-1-0.9-1.3-1.6c-0.3-0.7-0.5-1.5-0.5-2.3c0-0.9,0.2-1.7,0.5-2.4c0.3-0.7,0.8-1.2,1.4-1.6s1.2-0.6,2-0.6
			c0.7,0,1.3,0.1,1.8,0.4c0.5,0.3,0.9,0.7,1.2,1.3V50H296.6z M294.5,56.8c0.5-0.6,0.7-1.4,0.7-2.5s-0.2-1.9-0.7-2.5
			c-0.5-0.6-1.1-0.9-2-0.9c-0.8,0-1.5,0.3-2,0.9c-0.5,0.6-0.7,1.4-0.7,2.5s0.2,1.9,0.7,2.4c0.5,0.6,1.1,0.9,2,0.9
			C293.4,57.7,294,57.4,294.5,56.8z"/>
		<path class="st7" d="M305.6,50.4c0.6,0.4,1,0.9,1.4,1.6c0.3,0.7,0.5,1.5,0.5,2.3s-0.2,1.7-0.5,2.4c-0.3,0.7-0.8,1.2-1.4,1.6
			c-0.6,0.4-1.3,0.6-2,0.6c-0.7,0-1.3-0.1-1.8-0.4c-0.5-0.3-0.9-0.7-1.2-1.3v1.6h-1.4V46h1.4v5.5c0.3-0.6,0.6-1,1.1-1.3
			c0.5-0.3,1.1-0.4,1.8-0.4C304.4,49.8,305,50,305.6,50.4z M305.3,56.8c0.5-0.6,0.7-1.4,0.7-2.5c0-1-0.2-1.9-0.7-2.4
			c-0.5-0.6-1.1-0.9-2-0.9c-0.9,0-1.5,0.3-2,0.9c-0.5,0.6-0.7,1.4-0.7,2.5s0.2,1.9,0.7,2.5c0.5,0.6,1.1,0.9,2,0.9
			C304.2,57.7,304.8,57.4,305.3,56.8z"/>
		<path class="st7" d="M309.6,58.7V46h1.4v12.7H309.6z"/>
		<path class="st7" d="M313.6,46.4h1.7V48h-1.7V46.4z M313.7,58.7V50h1.4v8.7H313.7z"/>
		<path class="st7" d="M317.3,57.7l0.5-1c0.5,0.4,0.9,0.6,1.4,0.8c0.5,0.2,1,0.2,1.6,0.2c0.7,0,1.2-0.1,1.5-0.3s0.5-0.5,0.5-1
			c0-0.3-0.1-0.6-0.3-0.8c-0.2-0.2-0.6-0.4-1.1-0.5l-1.5-0.3c-0.7-0.2-1.3-0.4-1.7-0.9s-0.6-0.9-0.6-1.5c0-0.8,0.3-1.4,0.9-1.9
			s1.4-0.7,2.4-0.7c0.6,0,1.2,0.1,1.7,0.3c0.5,0.2,1,0.5,1.4,0.8l-0.5,1c-0.8-0.7-1.7-1-2.6-1c-0.6,0-1.1,0.1-1.4,0.4
			c-0.3,0.2-0.5,0.6-0.5,1c0,0.4,0.1,0.6,0.3,0.8c0.2,0.2,0.6,0.4,1,0.5l1.5,0.4c0.8,0.2,1.4,0.5,1.8,0.9c0.4,0.4,0.6,0.9,0.6,1.5
			c0,0.7-0.3,1.3-0.9,1.8c-0.6,0.4-1.4,0.7-2.5,0.7C319.3,58.8,318.1,58.4,317.3,57.7z"/>
		<path class="st7" d="M333.8,53.3v5.4h-1.4v-5.4c0-0.8-0.2-1.4-0.5-1.8s-0.8-0.6-1.5-0.6c-0.8,0-1.4,0.2-1.9,0.7
			c-0.5,0.5-0.7,1.2-0.7,2v5h-1.4V46h1.4v5.4c0.3-0.5,0.7-0.9,1.2-1.2c0.5-0.3,1.1-0.4,1.7-0.4C332.7,49.8,333.8,51,333.8,53.3z"/>
		<path class="st7" d="M348.9,53.3v5.4h-1.4v-5.4c0-0.8-0.1-1.4-0.4-1.8c-0.3-0.4-0.7-0.6-1.4-0.6c-0.7,0-1.3,0.2-1.7,0.7
			c-0.4,0.5-0.6,1.2-0.6,2v4.9H342v-5.4c0-0.8-0.1-1.4-0.4-1.8c-0.3-0.4-0.7-0.6-1.4-0.6c-0.7,0-1.3,0.2-1.7,0.7
			c-0.4,0.5-0.6,1.2-0.6,2v4.9h-1.4v-6.2c0-0.9,0-1.7-0.1-2.4h1.3l0.1,1.5c0.2-0.6,0.6-1,1.1-1.3c0.5-0.3,1-0.4,1.7-0.4
			c0.7,0,1.3,0.1,1.7,0.4c0.4,0.3,0.8,0.7,1,1.3c0.3-0.5,0.7-0.9,1.2-1.2c0.5-0.3,1.1-0.5,1.7-0.5C347.9,49.8,348.9,51,348.9,53.3z"
			/>
		<path class="st7" d="M358.8,54.3h-6.4c0,1.1,0.3,1.9,0.8,2.5c0.5,0.6,1.2,0.8,2.2,0.8c1,0,1.9-0.3,2.8-1l0.5,1
			c-0.4,0.4-0.9,0.6-1.5,0.8c-0.6,0.2-1.2,0.3-1.8,0.3c-1.4,0-2.4-0.4-3.2-1.2c-0.8-0.8-1.2-1.9-1.2-3.3c0-0.9,0.2-1.7,0.5-2.3
			s0.8-1.2,1.4-1.6c0.6-0.4,1.3-0.6,2.1-0.6c1.1,0,2,0.4,2.7,1.1c0.7,0.8,1,1.8,1,3.1V54.3z M353.4,51.6c-0.5,0.4-0.7,1-0.9,1.8h5
			c-0.1-0.8-0.3-1.4-0.7-1.9c-0.4-0.4-1-0.6-1.7-0.6C354.4,50.9,353.8,51.1,353.4,51.6z"/>
		<path class="st7" d="M368.3,53.3v5.4h-1.4v-5.4c0-0.8-0.2-1.4-0.5-1.8s-0.8-0.6-1.5-0.6c-0.8,0-1.4,0.2-1.9,0.7
			c-0.5,0.5-0.7,1.2-0.7,2v5h-1.4v-6.2c0-0.9,0-1.7-0.1-2.4h1.3l0.1,1.5c0.3-0.6,0.7-1,1.2-1.3c0.5-0.3,1.1-0.5,1.8-0.5
			C367.3,49.8,368.3,51,368.3,53.3z"/>
		<path class="st7" d="M372.8,51.1v4.7c0,0.6,0.1,1.1,0.4,1.4c0.3,0.3,0.6,0.4,1.1,0.4c0.3,0,0.6-0.1,0.9-0.2v1.2
			c-0.4,0.1-0.8,0.2-1.2,0.2c-0.8,0-1.5-0.2-1.9-0.7s-0.7-1.2-0.7-2.1v-4.9h-1.7V50h1.7v-2.2l1.4-0.5V50h2.5v1.1H372.8z"/>
	</g>
	<rect x="253.1" y="226.3" class="st5" width="136.7" height="40.1"/>
	<g class="st4">
		<path class="st7" d="M282.1,241.1v-12.3h7.6v1.2h-6.2v4.3h5.8v1.2h-5.8v5.6H282.1z"/>
		<path class="st7" d="M298.7,236.7h-6.4c0,1.1,0.3,1.9,0.8,2.5c0.5,0.6,1.2,0.8,2.2,0.8c1,0,1.9-0.3,2.8-1l0.5,1
			c-0.4,0.4-0.9,0.6-1.5,0.8c-0.6,0.2-1.2,0.3-1.8,0.3c-1.4,0-2.4-0.4-3.2-1.2c-0.8-0.8-1.2-1.9-1.2-3.3c0-0.9,0.2-1.7,0.5-2.3
			s0.8-1.2,1.4-1.6c0.6-0.4,1.3-0.6,2.1-0.6c1.1,0,2,0.4,2.7,1.1c0.7,0.8,1,1.8,1,3.1V236.7z M293.2,233.9c-0.5,0.4-0.7,1-0.9,1.8h5
			c-0.1-0.8-0.3-1.4-0.7-1.9c-0.4-0.4-1-0.6-1.7-0.6C294.3,233.3,293.7,233.5,293.2,233.9z"/>
		<path class="st7" d="M308.4,228.4v12.7H307v-1.6c-0.3,0.5-0.6,1-1.1,1.2c-0.5,0.3-1.1,0.4-1.8,0.4c-0.8,0-1.4-0.2-2-0.6
			c-0.6-0.4-1-0.9-1.4-1.6c-0.3-0.7-0.5-1.5-0.5-2.4s0.2-1.7,0.5-2.3c0.3-0.7,0.8-1.2,1.4-1.6c0.6-0.4,1.3-0.6,2-0.6
			c0.7,0,1.3,0.1,1.8,0.4c0.5,0.3,0.9,0.7,1.1,1.2v-5.5H308.4z M306.3,239.2c0.5-0.6,0.7-1.4,0.7-2.5c0-1.1-0.2-1.9-0.7-2.5
			c-0.5-0.6-1.1-0.9-2-0.9c-0.8,0-1.5,0.3-2,0.9c-0.5,0.6-0.7,1.4-0.7,2.4c0,1.1,0.2,1.9,0.7,2.5c0.5,0.6,1.1,0.9,2,0.9
			C305.2,240,305.9,239.7,306.3,239.2z"/>
		<path class="st7" d="M320.9,241.1h-1.5l-1.5-4.1c-0.2-0.5-0.4-0.8-0.8-1s-0.8-0.3-1.4-0.3h-3.1v5.4h-1.4v-12.3h4.9
			c1.3,0,2.3,0.3,3,0.9c0.7,0.6,1.1,1.4,1.1,2.5c0,0.8-0.2,1.5-0.6,2c-0.4,0.5-1,0.9-1.8,1.2c0.4,0.1,0.7,0.2,0.9,0.5
			c0.3,0.2,0.5,0.6,0.6,1.1L320.9,241.1z M316,234.5c1.9,0,2.8-0.8,2.8-2.3c0-0.8-0.2-1.3-0.7-1.7S317,230,316,230h-3.4v4.6H316z"/>
		<path class="st7" d="M332.5,241.1l-1.3-3.2h-6.4l-1.4,3.2h-1.5l5.4-12.3h1.2l5.4,12.3H332.5z M325.2,236.7h5.4l-2.7-6.3
			L325.2,236.7z"/>
		<path class="st7" d="M346.2,228.8h1.2v12.3H346V232l-4,9.1h-1l-4-9l0,9h-1.3v-12.3h1.2l4.6,10.6L346.2,228.8z"/>
		<path class="st7" d="M350.4,228.8h4.9c1.3,0,2.2,0.3,3,0.9c0.7,0.6,1.1,1.4,1.1,2.5s-0.4,1.9-1.1,2.5c-0.7,0.6-1.7,0.9-2.9,0.9
			h-3.5v5.4h-1.4V228.8z M355.1,234.5c0.9,0,1.6-0.2,2-0.6c0.5-0.4,0.7-1,0.7-1.7s-0.2-1.3-0.7-1.7s-1.1-0.6-2-0.6h-3.4v4.5H355.1z"
			/>
	</g>
	<g class="st4">
		<path class="st7" d="M291.3,261.1c-0.9-0.5-1.5-1.2-2-2.2c-0.5-0.9-0.7-2.1-0.7-3.3s0.2-2.4,0.7-3.3s1.1-1.7,2-2.2
			c0.9-0.5,1.9-0.8,3-0.8c0.8,0,1.6,0.1,2.3,0.4c0.7,0.3,1.3,0.6,1.8,1.2l-0.5,1.1c-0.6-0.5-1.2-0.9-1.7-1.1
			c-0.6-0.2-1.2-0.3-1.9-0.3c-1.3,0-2.4,0.4-3.1,1.3s-1.1,2.1-1.1,3.7c0,1.6,0.4,2.9,1.1,3.7s1.8,1.3,3.1,1.3c0.7,0,1.3-0.1,1.9-0.3
			c0.6-0.2,1.1-0.6,1.7-1.1l0.5,1.1c-0.5,0.5-1.1,0.9-1.8,1.2c-0.7,0.3-1.5,0.4-2.3,0.4C293.1,261.9,292.1,261.6,291.3,261.1z"/>
		<path class="st7" d="M301.9,261.3c-0.6-0.4-1.1-0.9-1.4-1.6c-0.3-0.7-0.5-1.5-0.5-2.4c0-0.9,0.2-1.7,0.5-2.4
			c0.3-0.7,0.8-1.2,1.4-1.6c0.6-0.4,1.3-0.6,2.2-0.6s1.5,0.2,2.2,0.6c0.6,0.4,1.1,0.9,1.4,1.6c0.3,0.7,0.5,1.5,0.5,2.4
			c0,0.9-0.2,1.7-0.5,2.4c-0.3,0.7-0.8,1.2-1.4,1.6c-0.6,0.4-1.3,0.6-2.2,0.6S302.5,261.7,301.9,261.3z M306.1,259.9
			c0.5-0.6,0.7-1.4,0.7-2.5c0-1.1-0.2-1.9-0.7-2.5c-0.5-0.6-1.1-0.9-2-0.9c-0.8,0-1.5,0.3-2,0.9c-0.5,0.6-0.7,1.4-0.7,2.5
			c0,1.1,0.2,1.9,0.7,2.5c0.5,0.6,1.1,0.9,2,0.9C304.9,260.7,305.6,260.4,306.1,259.9z"/>
		<path class="st7" d="M317.8,256.3v5.4h-1.4v-5.4c0-0.8-0.2-1.4-0.5-1.8s-0.8-0.6-1.5-0.6c-0.8,0-1.4,0.2-1.9,0.7
			c-0.5,0.5-0.7,1.2-0.7,2v5h-1.4v-6.2c0-0.9,0-1.7-0.1-2.4h1.3l0.1,1.5c0.3-0.6,0.7-1,1.2-1.3c0.5-0.3,1.1-0.5,1.8-0.5
			C316.7,252.9,317.8,254,317.8,256.3z"/>
		<path class="st7" d="M327.8,256.3v5.4h-1.4v-5.4c0-0.8-0.2-1.4-0.5-1.8s-0.8-0.6-1.5-0.6c-0.8,0-1.4,0.2-1.9,0.7
			c-0.5,0.5-0.7,1.2-0.7,2v5h-1.4v-6.2c0-0.9,0-1.7-0.1-2.4h1.3l0.1,1.5c0.3-0.6,0.7-1,1.2-1.3c0.5-0.3,1.1-0.5,1.8-0.5
			C326.8,252.9,327.8,254,327.8,256.3z"/>
		<path class="st7" d="M337.7,257.4h-6.4c0,1.1,0.3,1.9,0.8,2.5c0.5,0.6,1.2,0.8,2.2,0.8c1,0,1.9-0.3,2.8-1l0.5,1
			c-0.4,0.4-0.9,0.6-1.5,0.8c-0.6,0.2-1.2,0.3-1.8,0.3c-1.4,0-2.4-0.4-3.2-1.2c-0.8-0.8-1.2-1.9-1.2-3.3c0-0.9,0.2-1.7,0.5-2.3
			s0.8-1.2,1.4-1.6c0.6-0.4,1.3-0.6,2.1-0.6c1.1,0,2,0.4,2.7,1.1c0.7,0.8,1,1.8,1,3.1V257.4z M332.3,254.6c-0.5,0.4-0.7,1-0.9,1.8h5
			c-0.1-0.8-0.3-1.4-0.7-1.9c-0.4-0.4-1-0.6-1.7-0.6C333.3,254,332.8,254.2,332.3,254.6z"/>
		<path class="st7" d="M341.3,261.3c-0.6-0.4-1.1-0.9-1.4-1.6c-0.3-0.7-0.5-1.5-0.5-2.3c0-0.9,0.2-1.7,0.5-2.4s0.8-1.2,1.5-1.6
			c0.6-0.4,1.4-0.6,2.2-0.6c0.6,0,1.2,0.1,1.7,0.3c0.5,0.2,1,0.5,1.4,0.8l-0.5,1c-0.4-0.3-0.9-0.6-1.3-0.8s-0.8-0.2-1.2-0.2
			c-0.9,0-1.6,0.3-2.1,0.9s-0.8,1.4-0.8,2.5c0,1,0.2,1.9,0.7,2.4c0.5,0.6,1.2,0.9,2.1,0.9c0.4,0,0.8-0.1,1.2-0.2
			c0.4-0.2,0.8-0.4,1.3-0.8l0.5,1c-0.4,0.3-0.8,0.6-1.4,0.8c-0.6,0.2-1.1,0.3-1.7,0.3C342.6,261.9,341.9,261.7,341.3,261.3z"/>
		<path class="st7" d="M350.2,254.2v4.7c0,0.6,0.1,1.1,0.4,1.4c0.3,0.3,0.6,0.4,1.1,0.4c0.3,0,0.6-0.1,0.9-0.2v1.2
			c-0.4,0.1-0.8,0.2-1.2,0.2c-0.8,0-1.5-0.2-1.9-0.7s-0.7-1.2-0.7-2.1v-4.9h-1.7v-1.1h1.7v-2.2l1.4-0.5v2.7h2.5v1.1H350.2z"/>
	</g>
</g>
</svg>
