<?xml version="1.0" encoding="utf-8"?>
<!-- Generator: Adobe Illustrator 24.0.3, SVG Export Plug-In . SVG Version: 6.00 Build 0)  -->
<svg version="1.1" xmlns="http://www.w3.org/2000/svg" xmlns:xlink="http://www.w3.org/1999/xlink" x="0px" y="0px"
	 viewBox="0 0 1280 306" style="enable-background:new 0 0 1280 306;" xml:space="preserve">
<style type="text/css">
	.st0{fill:#E6E6E6;}
	.st1{fill:#FFFFFF;}
	.st2{fill:#1294C2;}
	.st3{fill:#0A90B7;}
	.st4{font-family:'Montserrat-Bold';}
	.st5{font-size:16.3448px;}
	.st6{fill:#454545;}
	.st7{fill:none;}
	.st8{enable-background:new    ;}
	.st9{fill:#333333;}
	.st10{font-family:'Muli-Regular';}
	.st11{font-size:17.4344px;}
	.st12{fill:none;stroke:#CC1D1D;stroke-width:1.0897;}
	.st13{fill:#CC1D1D;}
	.st14{font-family:'Muli-Black';}
	.st15{font-size:15.2551px;}
	.st16{fill:none;stroke:#1A4480;stroke-width:1.0897;}
	.st17{fill:#1A4480;}
	.st18{fill:none;stroke:#C71F25;}
	.st19{fill:none;stroke:#1A4480;}
	.st20{font-size:17px;}
</style>
<g id="Layer_2">
	<rect x="-67" y="-178" class="st0" width="2787" height="1355"/>
</g>
<g id="Layer_4">
	<path id="Path_11101_2_" class="st1" d="M1255.5,184.4h-251.2l14.6-32.5l-14.6-32.6h251.2l15.8,32.6L1255.5,184.4z"/>
	<path id="Path_11098_2_" class="st2" d="M972.6,184.4H802.8l13.2-32.5l-13.2-32.6h169.9l14.3,32.6L972.6,184.4z"/>
	<path id="Path_11099_2_" class="st2" d="M771,184.4H601.2l13.2-32.5l-13.2-32.6H771l14.3,32.6L771,184.4z"/>
	<path id="Path_11100_1_" class="st2" d="M208.2,184.4H9.5v-65.1h198.7l14.3,32.6L208.2,184.4z"/>
	<path id="Path_11287_2_" class="st2" d="M570.5,184.4H239.4l13.7-32.5l-13.7-32.6h331.1l13.7,32.6L570.5,184.4z"/>
	<path id="Path_11343_2_" class="st2" d="M1258.7,184.3h-35.5v-4.7h32.4l0.6-1.4l11.2-25.6l0.4-0.9l-0.4-0.9l-11.2-25.6l-0.6-1.4
		H1060v6.6l-11.9-8.9l11.9-8.9v6.5h198.7l14.3,32.7L1258.7,184.3z"/>
</g>
<g id="Layer_3">
	<rect id="Rectangle_2941_7_" x="827.3" y="208.5" class="st1" width="135.1" height="85.9"/>
	<path id="Path_11091_7_" class="st1" d="M895.3,191.5l23.3,24.4H872L895.3,191.5z"/>
	<rect id="Rectangle_2941_1_" x="625.3" y="208.5" class="st1" width="135.1" height="85.9"/>
	<path id="Path_11091_1_" class="st1" d="M693.3,191.5l23.3,24.4H670L693.3,191.5z"/>
	<rect id="Rectangle_2941_2_" x="413.3" y="208.5" class="st1" width="135.1" height="85.9"/>
	<path id="Path_11091_2_" class="st1" d="M481.3,191.5l23.3,24.4H458L481.3,191.5z"/>
	<rect id="Rectangle_2941_3_" x="259.3" y="208.5" class="st1" width="135.1" height="85.9"/>
	<path id="Path_11091_3_" class="st1" d="M327.3,191.5l23.3,24.4H304L327.3,191.5z"/>
	<rect id="Rectangle_2941_8_" x="827.3" y="9.5" class="st1" width="135.1" height="85.9"/>
	<path id="Path_11091_8_" class="st1" d="M895.3,112.4l23.3-24.4H872L895.3,112.4z"/>
	<rect id="Rectangle_2941_6_" x="625.3" y="9.5" class="st1" width="135.1" height="85.9"/>
	<path id="Path_11091_6_" class="st1" d="M693.3,112.4l23.3-24.4H670L693.3,112.4z"/>
	<rect id="Rectangle_2941_5_" x="413.3" y="9.5" class="st1" width="135.1" height="85.9"/>
	<path id="Path_11091_5_" class="st1" d="M481.3,112.4l23.3-24.4H458L481.3,112.4z"/>
	<rect id="Rectangle_2941_4_" x="259.3" y="9.5" class="st1" width="135.1" height="85.9"/>
	<path id="Path_11091_4_" class="st1" d="M327.3,112.4l23.3-24.4H304L327.3,112.4z"/>
	<text transform="matrix(1 0 0 1 83.1284 149.3481)" class="st1 st4 st5">Select </text>
	<text transform="matrix(1 0 0 1 25.3823 168.9614)" class="st1 st4 st5">Authorization Path</text>
	<text transform="matrix(1 0 0 1 356.3169 159.1543)" class="st1 st4 st5">Preparation</text>
	<text transform="matrix(1 0 0 1 664.54 159.1543)" class="st1 st4 st5">Review</text>
	<text transform="matrix(1 0 0 1 836.7705 159.1543)" class="st1 st4 st5">Authorization</text>
</g>
<g id="Layer_1">
	<path id="Path_11341_2_" class="st2" d="M1014.8,179.6h-3.5l1.3-3.2l8.9-22l1.1-2.6l-1.1-2.6l-8.9-22.1l-1.3-3.2h28.9V119h-35.8
		l12.8,31.8l0.4,0.9l-0.4,0.9l-12.8,31.7h199v6.6l11.9-8.9l-11.9-8.9v6.4L1014.8,179.6L1014.8,179.6z"/>
	<path id="Path_11342_2_" class="st2" d="M1203.4,177.3v-4.1l11.9,8.9l-11.9,8.9v-6.6h-199l12.8-31.7l0.4-0.9l-0.4-0.9l-12.8-31.8
		h35.8v4.7h-28.9l1.3,3.2l8.9,22.1l1.1,2.6l-1.1,2.6l-8.9,22l-1.3,3.2h192.1L1203.4,177.3z"/>
	<text transform="matrix(1 0 0 1 1042.3877 159.1543)" class="st6 st4 st5">Continuous Monitoring</text>
	<rect x="827" y="224.3" class="st7" width="135" height="61.5"/>
	<text transform="matrix(1 0 0 1 878.9482 239.2334)" class="st8"><tspan x="0" y="0" class="st9 st10 st11">JAB </tspan><tspan x="-41.3" y="20.9" class="st9 st10 st11">Authorization </tspan><tspan x="-17" y="41.8" class="st9 st10 st11">Process </tspan></text>
	<rect x="827" y="21.2" class="st7" width="135" height="61.5"/>
	<text transform="matrix(1 0 0 1 863.1797 36.0739)" class="st8"><tspan x="0" y="0" class="st9 st10 st11">Agency </tspan><tspan x="-25.5" y="20.9" class="st9 st10 st11">Authorization </tspan><tspan x="-1.2" y="41.8" class="st9 st10 st11">Process </tspan></text>
	<rect x="625" y="234.8" class="st7" width="135" height="40.6"/>
	<text transform="matrix(1 0 0 1 641.6182 249.6941)" class="st8"><tspan x="0" y="0" class="st9 st10 st11">Full Security </tspan><tspan x="0.3" y="20.9" class="st9 st10 st11">Assessment</tspan></text>
	<rect x="625" y="31.6" class="st7" width="135" height="40.6"/>
	<text transform="matrix(1 0 0 1 641.6182 46.5344)" class="st8"><tspan x="0" y="0" class="st9 st10 st11">Full Security </tspan><tspan x="0.3" y="20.9" class="st9 st10 st11">Assessment</tspan></text>
	<g id="Base_2_">
		<path class="st7" d="M27.5,242.2h161.3c10.2,0,18.5,8.3,18.5,18.5v4.4c0,10.2-8.3,18.5-18.5,18.5H27.5c-10.2,0-18.5-8.3-18.5-18.5
			v-4.4C9,250.5,17.3,242.2,27.5,242.2z"/>
		<path class="st12" d="M27.5,242.8h161.3c9.9,0,18,8,18,18v4.4c0,9.9-8,18-18,18H27.5c-9.9,0-18-8-18-18v-4.4
			C9.5,250.8,17.6,242.8,27.5,242.8z"/>
	</g>
	<text transform="matrix(1 0 0 1 53.6743 268.3965)" class="st13 st14 st15">JAB PROCESS</text>
	<g id="Base-2_2_">
		<path class="st7" d="M27.5,19.8h161.3c10.2,0,18.5,8.3,18.5,18.5v4.4c0,10.2-8.3,18.5-18.5,18.5H27.5C17.3,61.2,9,53,9,42.7v-4.4
			C9,28.1,17.3,19.8,27.5,19.8z"/>
		<path class="st16" d="M27.5,20.4h161.3c9.9,0,18,8,18,18v4.4c0,9.9-8,18-18,18H27.5c-9.9,0-18-8-18-18v-4.4
			C9.5,28.4,17.6,20.4,27.5,20.4z"/>
	</g>
	<text transform="matrix(1 0 0 1 35.208 45.9922)" class="st17 st14 st15">AGENCY PROCESS</text>
	<rect x="420.4" y="32.1" class="st7" width="124" height="39.6"/>
	<text transform="matrix(1 0 0 1 440.3227 46.6685)" class="st8"><tspan x="0" y="0" class="st9 st10 st20">Readiness </tspan><tspan x="-7.2" y="20.4" class="st9 st10 st20">Assessment </tspan></text>
	<rect x="412" y="235.3" class="st7" width="136" height="39.6"/>
	<text transform="matrix(1 0 0 1 437.8745 249.8282)" class="st8"><tspan x="0" y="0" class="st9 st10 st20">Readiness </tspan><tspan x="-7.2" y="20.4" class="st9 st10 st20">Assessment </tspan></text>
	<rect x="264.4" y="32.1" class="st7" width="124" height="39.6"/>
	<text transform="matrix(1 0 0 1 279.0786 46.6826)" class="st8"><tspan x="0" y="0" class="st9 st10 st20">Partnership </tspan><tspan x="-10.3" y="20.4" class="st9 st10 st20">Establishment</tspan></text>
	<rect x="259" y="235.3" class="st7" width="135" height="39.6"/>
	<text transform="matrix(1 0 0 1 286.0911 249.8424)" class="st8"><tspan x="0" y="0" class="st9 st10 st20">FedRAMP </tspan><tspan x="7" y="20.4" class="st9 st10 st20">Connect</tspan></text>
</g>
</svg>
