<?xml version="1.0" encoding="utf-8"?>
<!-- Generator: Adobe Illustrator 24.2.3, SVG Export Plug-In . SVG Version: 6.00 Build 0)  -->
<svg version="1.1" id="Layer_1" xmlns="http://www.w3.org/2000/svg" xmlns:xlink="http://www.w3.org/1999/xlink" x="0px" y="0px"
	 viewBox="0 0 302 1381" style="enable-background:new 0 0 302 1381;" xml:space="preserve">
<style type="text/css">
	.st0{fill:#FFFFFF;}
	.st1{fill:#0A90B7;}
	.st2{fill:#1A4480;}
	.st3{fill:#C71F25;}
	.st4{enable-background:new    ;}
	.st5{fill:none;}
	.st6{fill:#454545;}
	.st7{fill:#D0D0D0;}
</style>
<g id="Layer_4">
	<path id="Path_11101_3_" class="st0" d="M284.2,1375.3H0.4l16.5-29.8l-16.5-29.9h283.7l17.8,29.9L284.2,1375.3z"/>
	<path id="Path_11100_2_" class="st1" d="M288.5,170.1H0v-59.7h288.5l13.1,29.9L288.5,170.1z"/>
	<path id="Path_11287_3_" class="st1" d="M288.7,494.6H0.3l12.6-29.8L0.3,434.9h288.3l12.6,29.9L288.7,494.6z"/>
	<path id="Path_11287-2_1_" class="st1" d="M288.7,830.3H0.3l12.6-29.8L0.3,770.6h288.3l12.6,29.9L288.7,830.3z"/>
	<path id="Path_11287-3" class="st1" d="M288.7,1138.8H0.3l12.6-29.8l-12.6-29.9h288.3l12.6,29.9L288.7,1138.8z"/>
	<path id="Path_11341_3_" class="st1" d="M11.4,1370.9H7.7l1.4-2.9l9.4-20.2l1.1-2.4l-1.1-2.4l-9.4-20.3l-1.4-2.9H38v-4.3H0.4
		l13.5,29.1l0.4,0.8l-0.4,0.8l-13.5,29l226.7-0.3v6.1l12.5-8.1l-12.5-8.1v5.9L11.4,1370.9L11.4,1370.9z"/>
	<path id="Path_11342_3_" class="st1" d="M226.9,1368.6v-3.7l12.5,8.1l-12.5,8.1v-6.1l-226.5,0.2l13.5-29l0.4-0.8l-0.4-0.8
		l-13.5-29.1H38v4.3H7.7l1.4,2.9l9.4,20.3l1.1,2.4l-1.1,2.4L9.1,1368l-1.4,2.9l219.2-0.2V1368.6z"/>
	<path id="Path_11343_3_" class="st1" d="M287.2,1375.2h-36.7v-4.3H284l0.6-1.3l11.6-23.4l0.4-0.9l-0.4-0.9l-11.6-23.5l-0.6-1.3
		l-221.6-0.1v6l-12.4-8.1l12.4-8.1v5.9l224.7,0.1l14.8,29.9L287.2,1375.2z"/>
</g>
<g id="Layer_3">
	<g>
		<polygon class="st0" points="140,341.2 8.2,341.2 8.2,405.9 55.8,405.9 74.1,425.1 92.4,405.9 140,405.9 		"/>
		<path class="st2" d="M74.1,425.6l-18.5-19.4H7.8v-65.4h132.5v65.4H92.6L74.1,425.6z M8.6,405.5H56l18.1,19l18.1-19h47.4v-63.9H8.6
			V405.5z"/>
	</g>
	<g>
		<polygon class="st0" points="92.4,520.9 74.2,501.7 55.8,520.9 8.2,520.9 8.2,587.6 140,587.6 140,520.9 		"/>
		<path class="st3" d="M140.4,588H7.8v-67.5h47.8l18.6-19.4l18.4,19.4h47.8V588z M8.6,587.2h131v-66H92.2l-18-19l-18.2,19H8.6V587.2
			z"/>
	</g>
	<g>
		<polygon class="st0" points="295.6,341.6 163.8,341.6 163.8,406.3 211.8,406.3 230.1,425.5 248.4,406.3 295.6,406.3 		"/>
		<path class="st2" d="M230.1,426l-18.5-19.4h-48.2v-65.4H296v65.4h-47.4L230.1,426z M164.2,405.9H212l0.1,0.1l18,18.9l18.1-19h47
			V342h-131L164.2,405.9L164.2,405.9z"/>
	</g>
	<g>
		<polygon class="st0" points="248.4,521.3 230.1,502.1 211.8,521.3 163.8,521.3 163.8,588 295.6,588 295.6,521.3 		"/>
		<path class="st3" d="M296,588.4H163.4v-67.5h48.2l18.5-19.4l18.5,19.4H296V588.4z M164.2,587.6h131v-66h-47l-0.1-0.1l-18-18.9
			l-18.1,19h-47.8V587.6z"/>
	</g>
	<g class="st4">
		<path class="st0" d="M46.6,146l1-2.2c0.9,0.6,2.2,1,3.5,1c1.2,0,1.7-0.3,1.7-0.9c0-1.7-6-0.4-6-4.3c0-1.9,1.5-3.4,4.6-3.4
			c1.4,0,2.8,0.3,3.8,0.9l-0.9,2.2c-1-0.5-2-0.8-2.9-0.8c-1.2,0-1.7,0.4-1.7,0.9c0,1.6,5.9,0.4,5.9,4.3c0,1.8-1.5,3.4-4.6,3.4
			C49.3,147.2,47.6,146.7,46.6,146z"/>
		<path class="st0" d="M65.2,143.6h-5.9c0.2,0.8,0.9,1.3,2,1.3c0.8,0,1.3-0.2,1.9-0.7l1.5,1.6c-0.8,0.9-1.9,1.3-3.5,1.3
			c-2.9,0-4.8-1.8-4.8-4.2s1.9-4.2,4.5-4.2c2.4,0,4.3,1.5,4.3,4.2C65.2,143.1,65.2,143.4,65.2,143.6z M59.2,142.1h3.3
			c-0.1-0.9-0.8-1.4-1.7-1.4C60,140.7,59.4,141.3,59.2,142.1z"/>
		<path class="st0" d="M66.5,135.8h2.8V147h-2.8V135.8z"/>
		<path class="st0" d="M79.5,143.6h-5.9c0.2,0.8,0.9,1.3,2,1.3c0.8,0,1.3-0.2,1.9-0.7l1.5,1.6c-0.8,0.9-1.9,1.3-3.5,1.3
			c-2.9,0-4.8-1.8-4.8-4.2s1.9-4.2,4.5-4.2c2.4,0,4.3,1.5,4.3,4.2C79.5,143.1,79.5,143.4,79.5,143.6z M73.5,142.1h3.3
			c-0.1-0.9-0.8-1.4-1.7-1.4C74.3,140.7,73.7,141.3,73.5,142.1z"/>
		<path class="st0" d="M80.3,142.9c0-2.4,1.9-4.2,4.7-4.2c1.8,0,3.3,0.8,3.8,2.2l-2.2,1.1c-0.4-0.8-1-1.1-1.6-1.1
			c-1,0-1.8,0.7-1.8,1.9c0,1.3,0.8,1.9,1.8,1.9c0.7,0,1.2-0.3,1.6-1.1l2.2,1.1c-0.6,1.4-2,2.2-3.8,2.2
			C82.3,147.1,80.3,145.4,80.3,142.9z"/>
		<path class="st0" d="M95.6,146.6c-0.5,0.3-1.2,0.5-2,0.5c-2.1,0-3.3-1-3.3-3.1v-2.7h-1.2v-2.1h1.2V137h2.8v2.1H95v2.1h-1.9v2.7
			c0,0.6,0.3,0.9,0.9,0.9c0.3,0,0.6-0.1,0.9-0.3L95.6,146.6z"/>
		<path class="st0" d="M108.2,144.9h-4.4l-0.8,2h-3l4.6-10.5h2.9l4.6,10.5H109L108.2,144.9z M107.4,142.7l-1.3-3.4l-1.3,3.4H107.4z"
			/>
		<path class="st0" d="M121.2,138.8v8.1h-2.7V146c-0.6,0.7-1.5,1-2.4,1c-2,0-3.4-1.1-3.4-3.7v-4.5h2.8v4.1c0,1.3,0.5,1.8,1.3,1.8
			s1.5-0.6,1.5-1.9v-3.9h2.9V138.8z"/>
		<path class="st0" d="M128.7,146.6c-0.5,0.3-1.2,0.5-2,0.5c-2.1,0-3.3-1-3.3-3.1v-2.7h-1.2v-2.1h1.2V137h2.8v2.1h1.9v2.1h-1.9v2.7
			c0,0.6,0.3,0.9,0.9,0.9c0.3,0,0.6-0.1,0.9-0.3L128.7,146.6z"/>
		<path class="st0" d="M138.4,142.3v4.6h-2.8v-4.2c0-1.2-0.5-1.7-1.3-1.7c-0.9,0-1.6,0.6-1.6,1.9v3.9h-2.8v-11.1h2.8v3.7
			c0.6-0.6,1.5-0.9,2.4-0.9C136.9,138.7,138.4,139.8,138.4,142.3z"/>
		<path class="st0" d="M139.8,142.9c0-2.4,1.9-4.2,4.6-4.2c2.7,0,4.6,1.7,4.6,4.2s-1.9,4.2-4.6,4.2
			C141.7,147.1,139.8,145.3,139.8,142.9z M146.1,142.9c0-1.2-0.7-1.9-1.7-1.9s-1.7,0.7-1.7,1.9s0.7,1.9,1.7,1.9
			C145.3,144.8,146.1,144.1,146.1,142.9z"/>
		<path class="st0" d="M155.7,138.7v2.6c-0.3,0-0.4,0-0.6,0c-1.2,0-1.9,0.6-1.9,2v3.7h-2.8v-8.1h2.7v1
			C153.6,139.1,154.5,138.7,155.7,138.7z"/>
		<path class="st0" d="M156.6,136.4c0-0.9,0.7-1.5,1.7-1.5s1.7,0.6,1.7,1.5s-0.7,1.6-1.7,1.6S156.6,137.3,156.6,136.4z M156.9,138.8
			h2.8v8.1h-2.8V138.8z"/>
		<path class="st0" d="M168.6,144.8v2.1h-7.5v-1.7l3.8-4.3h-3.7v-2.1h7.2v1.7l-3.8,4.3H168.6z"/>
		<path class="st0" d="M177.5,142.4v4.5h-2.7v-1c-0.4,0.8-1.2,1.2-2.4,1.2c-1.9,0-3-1.1-3-2.5c0-1.5,1.1-2.4,3.6-2.4h1.6
			c0-0.8-0.6-1.3-1.7-1.3c-0.8,0-1.6,0.3-2.2,0.7l-1-1.9c0.9-0.6,2.3-0.9,3.6-0.9C176,138.7,177.5,139.9,177.5,142.4z M174.7,144.4
			v-0.7h-1.2c-0.9,0-1.2,0.3-1.2,0.8s0.4,0.8,1.1,0.8C173.9,145.3,174.4,145,174.7,144.4z"/>
		<path class="st0" d="M184.9,146.6c-0.5,0.3-1.2,0.5-2,0.5c-2.1,0-3.3-1-3.3-3.1v-2.7h-1.2v-2.1h1.2V137h2.8v2.1h1.9v2.1h-1.9v2.7
			c0,0.6,0.3,0.9,0.9,0.9c0.3,0,0.6-0.1,0.9-0.3L184.9,146.6z"/>
		<path class="st0" d="M185.7,136.4c0-0.9,0.7-1.5,1.7-1.5s1.7,0.6,1.7,1.5s-0.7,1.6-1.7,1.6S185.7,137.3,185.7,136.4z M186,138.8
			h2.8v8.1H186V138.8z"/>
		<path class="st0" d="M190.2,142.9c0-2.4,1.9-4.2,4.6-4.2c2.7,0,4.6,1.7,4.6,4.2s-1.9,4.2-4.6,4.2
			C192.1,147.1,190.2,145.3,190.2,142.9z M196.5,142.9c0-1.2-0.7-1.9-1.7-1.9s-1.7,0.7-1.7,1.9s0.7,1.9,1.7,1.9
			C195.7,144.8,196.5,144.1,196.5,142.9z"/>
		<path class="st0" d="M209.3,142.3v4.6h-2.8v-4.2c0-1.2-0.5-1.7-1.3-1.7c-0.9,0-1.6,0.6-1.6,1.9v3.9h-2.8v-8.1h2.7v0.9
			c0.6-0.7,1.6-1,2.6-1C207.8,138.7,209.3,139.8,209.3,142.3z"/>
		<path class="st0" d="M225,140.4c0,2.4-1.8,3.9-4.7,3.9h-1.8v2.7h-3v-10.5h4.8C223.2,136.5,225,138,225,140.4z M222,140.4
			c0-1-0.6-1.5-1.8-1.5h-1.6v3.1h1.6C221.4,141.9,222,141.3,222,140.4z"/>
		<path class="st0" d="M233.9,142.4v4.5h-2.7v-1c-0.4,0.8-1.2,1.2-2.4,1.2c-1.9,0-3-1.1-3-2.5c0-1.5,1.1-2.4,3.6-2.4h1.6
			c0-0.8-0.6-1.3-1.7-1.3c-0.8,0-1.6,0.3-2.2,0.7l-1-1.9c0.9-0.6,2.3-0.9,3.6-0.9C232.4,138.7,233.9,139.9,233.9,142.4z M231,144.4
			v-0.7h-1.2c-0.9,0-1.2,0.3-1.2,0.8s0.4,0.8,1.1,0.8C230.2,145.3,230.8,145,231,144.4z"/>
		<path class="st0" d="M241.3,146.6c-0.5,0.3-1.2,0.5-2,0.5c-2.1,0-3.3-1-3.3-3.1v-2.7h-1.2v-2.1h1.2V137h2.8v2.1h1.9v2.1h-1.9v2.7
			c0,0.6,0.3,0.9,0.9,0.9c0.3,0,0.6-0.1,0.9-0.3L241.3,146.6z"/>
		<path class="st0" d="M251,142.3v4.6h-2.8v-4.2c0-1.2-0.5-1.7-1.3-1.7c-0.9,0-1.6,0.6-1.6,1.9v3.9h-2.8v-11.1h2.8v3.7
			c0.6-0.6,1.5-0.9,2.4-0.9C249.5,138.7,251,139.8,251,142.3z"/>
	</g>
	<g class="st4">
		<path class="st0" d="M113.3,464.9c0,2.4-1.8,3.9-4.7,3.9h-1.8v2.7h-3V461h4.8C111.5,461,113.3,462.5,113.3,464.9z M110.3,464.9
			c0-1-0.6-1.5-1.8-1.5h-1.6v3.1h1.6C109.7,466.4,110.3,465.8,110.3,464.9z"/>
		<path class="st0" d="M120.1,463.2v2.6c-0.3,0-0.4,0-0.6,0c-1.2,0-1.9,0.6-1.9,2v3.7h-2.8v-8.1h2.7v1
			C118,463.6,118.9,463.2,120.1,463.2z"/>
		<path class="st0" d="M129.5,468.1h-5.9c0.2,0.8,0.9,1.3,2,1.3c0.8,0,1.3-0.2,1.9-0.7l1.5,1.6c-0.8,0.9-1.9,1.3-3.5,1.3
			c-2.9,0-4.8-1.8-4.8-4.2c0-2.4,1.9-4.2,4.5-4.2c2.4,0,4.3,1.5,4.3,4.2C129.5,467.7,129.5,467.9,129.5,468.1z M123.5,466.7h3.3
			c-0.1-0.9-0.8-1.4-1.7-1.4C124.3,465.3,123.7,465.8,123.5,466.7z"/>
		<path class="st0" d="M139.9,467.4c0,2.6-1.8,4.2-4,4.2c-0.9,0-1.7-0.3-2.3-0.9v3.6h-2.8v-11h2.7v0.8c0.5-0.6,1.3-0.9,2.4-0.9
			C138.1,463.2,139.9,464.9,139.9,467.4z M137,467.4c0-1.2-0.7-1.9-1.7-1.9s-1.7,0.7-1.7,1.9s0.7,1.9,1.7,1.9S137,468.7,137,467.4z"
			/>
		<path class="st0" d="M148.7,467v4.5H146v-1c-0.4,0.8-1.2,1.2-2.4,1.2c-1.9,0-3-1.1-3-2.5c0-1.5,1.1-2.4,3.6-2.4h1.6
			c0-0.8-0.6-1.3-1.7-1.3c-0.8,0-1.6,0.3-2.2,0.7l-1-1.9c0.9-0.6,2.3-0.9,3.6-0.9C147.2,463.2,148.7,464.4,148.7,467z M145.8,468.9
			v-0.7h-1.2c-0.9,0-1.2,0.3-1.2,0.8s0.4,0.8,1.1,0.8C145,469.8,145.6,469.5,145.8,468.9z"/>
		<path class="st0" d="M155.9,463.2v2.6c-0.3,0-0.4,0-0.6,0c-1.2,0-1.9,0.6-1.9,2v3.7h-2.8v-8.1h2.7v1
			C153.8,463.6,154.7,463.2,155.9,463.2z"/>
		<path class="st0" d="M164.6,467v4.5H162v-1c-0.4,0.8-1.2,1.2-2.4,1.2c-1.9,0-3-1.1-3-2.5c0-1.5,1.1-2.4,3.6-2.4h1.6
			c0-0.8-0.6-1.3-1.7-1.3c-0.8,0-1.6,0.3-2.2,0.7l-1-1.9c0.9-0.6,2.3-0.9,3.6-0.9C163.1,463.2,164.6,464.4,164.6,467z M161.8,468.9
			v-0.7h-1.2c-0.9,0-1.2,0.3-1.2,0.8s0.4,0.8,1.1,0.8C161,469.8,161.5,469.5,161.8,468.9z"/>
		<path class="st0" d="M172,471.2c-0.5,0.3-1.2,0.5-2,0.5c-2.1,0-3.3-1-3.3-3.1v-2.7h-1.2v-2.1h1.2v-2.1h2.8v2.1h1.9v2.1h-1.9v2.7
			c0,0.6,0.3,0.9,0.9,0.9c0.3,0,0.6-0.1,0.9-0.3L172,471.2z"/>
		<path class="st0" d="M172.8,461c0-0.9,0.7-1.5,1.7-1.5s1.7,0.6,1.7,1.5s-0.7,1.6-1.7,1.6S172.8,461.8,172.8,461z M173.1,463.4h2.8
			v8.1h-2.8V463.4z"/>
		<path class="st0" d="M177.3,467.4c0-2.4,1.9-4.2,4.6-4.2c2.7,0,4.6,1.7,4.6,4.2s-1.9,4.2-4.6,4.2S177.3,469.9,177.3,467.4z
			 M183.6,467.4c0-1.2-0.7-1.9-1.7-1.9s-1.7,0.7-1.7,1.9c0,1.2,0.7,1.9,1.7,1.9C182.8,469.4,183.6,468.7,183.6,467.4z"/>
		<path class="st0" d="M196.4,466.8v4.6h-2.8v-4.2c0-1.2-0.5-1.7-1.3-1.7c-0.9,0-1.6,0.6-1.6,1.9v3.9h-2.8v-8.1h2.7v0.9
			c0.6-0.7,1.6-1,2.6-1C195,463.2,196.4,464.3,196.4,466.8z"/>
	</g>
	<g>
		<polygon class="st0" points="286.8,696.9 14.7,696.9 14.7,742.5 132.5,742.5 150.8,761.7 169.1,742.5 286.8,742.5 		"/>
		<path class="st2" d="M150.8,762.2l-18.5-19.4h-118v-46.3h272.8v46.3H169.3L150.8,762.2z M15.1,742.1h117.6l18.1,19l18.1-19h117.5
			v-44.8H15.1V742.1z"/>
	</g>
	<g>
		<polygon class="st0" points="287.1,1005.5 14.5,1005.5 14.5,1051 132.5,1051 150.8,1070.2 169.1,1051 287.1,1051 		"/>
		<path class="st2" d="M150.8,1070.7l-18.5-19.4H14.1v-46.2h273.3v46.2H169.3L150.8,1070.7z M14.9,1050.6h117.8l18.1,19l18.1-19
			h117.8v-44.8H14.9V1050.6z"/>
	</g>
	<g>
		<polygon class="st0" points="169.2,857.7 150.8,838.3 132.3,857.7 14.7,857.7 14.7,903.3 286.8,903.3 286.8,857.7 		"/>
		<path class="st3" d="M287.2,903.7H14.3v-46.3h117.8l18.7-19.6l18.6,19.6h117.8V903.7z M15.1,902.9h271.3v-44.8H169l-18.2-19.2
			l-18.3,19.2H15.1V902.9z"/>
	</g>
	<g>
		<polygon class="st0" points="169.2,1166.2 150.8,1146.8 132.3,1166.2 14.5,1166.2 14.5,1211.8 287.1,1211.8 287.1,1166.2 		"/>
		<path class="st3" d="M287.5,1212.2H14.1v-46.3h118l18.7-19.6l18.6,19.6h118.1V1212.2z M14.9,1211.4h271.8v-44.8H169l-18.2-19.2
			l-18.3,19.2H14.9V1211.4z"/>
	</g>
	<g class="st4">
		<path class="st0" d="M126.9,804.3h-1.6v2.8h-3v-10.5h4.8c2.9,0,4.7,1.5,4.7,3.9c0,1.5-0.7,2.7-2.1,3.3l2.3,3.3h-3.2L126.9,804.3z
			 M126.9,799h-1.6v3.1h1.6c1.2,0,1.8-0.6,1.8-1.5C128.7,799.5,128.1,799,126.9,799z"/>
		<path class="st0" d="M141.5,803.8h-5.9c0.2,0.8,0.9,1.3,2,1.3c0.8,0,1.3-0.2,1.9-0.7l1.5,1.6c-0.8,0.9-1.9,1.3-3.5,1.3
			c-2.9,0-4.8-1.8-4.8-4.2s1.9-4.2,4.5-4.2c2.4,0,4.3,1.5,4.3,4.2C141.5,803.3,141.5,803.6,141.5,803.8z M135.5,802.3h3.3
			c-0.1-0.9-0.8-1.4-1.7-1.4C136.3,800.9,135.7,801.4,135.5,802.3z"/>
		<path class="st0" d="M151.2,799l-3.4,8.1h-2.9l-3.3-8.1h2.9l1.9,5l2.1-5H151.2z"/>
		<path class="st0" d="M151.7,796.6c0-0.9,0.7-1.5,1.7-1.5s1.7,0.6,1.7,1.5s-0.7,1.6-1.7,1.6S151.7,797.5,151.7,796.6z M152,799h2.8
			v8.1H152V799z"/>
		<path class="st0" d="M164.9,803.8H159c0.2,0.8,0.9,1.3,2,1.3c0.8,0,1.3-0.2,1.9-0.7l1.5,1.6c-0.8,0.9-1.9,1.3-3.5,1.3
			c-2.9,0-4.8-1.8-4.8-4.2s1.9-4.2,4.5-4.2c2.4,0,4.3,1.5,4.3,4.2C165,803.3,164.9,803.6,164.9,803.8z M159,802.3h3.3
			c-0.1-0.9-0.8-1.4-1.7-1.4S159.1,801.4,159,802.3z"/>
		<path class="st0" d="M179.6,799l-2.9,8.1h-2.8l-1.5-4.4l-1.6,4.4H168l-2.9-8.1h2.7l1.7,4.9l1.7-4.9h2.4l1.7,5l1.7-5H179.6z"/>
	</g>
	<g class="st4">
		<path class="st0" d="M103.1,1115.5h-4.4l-0.8,2h-3l4.6-10.5h2.9l4.6,10.5h-3.1L103.1,1115.5z M102.2,1113.3l-1.3-3.4l-1.3,3.4
			H102.2z"/>
		<path class="st0" d="M116.1,1109.4v8.1h-2.7v-0.9c-0.6,0.7-1.5,1-2.4,1c-2,0-3.4-1.1-3.4-3.7v-4.5h2.8v4.1c0,1.3,0.5,1.8,1.3,1.8
			s1.5-0.6,1.5-1.9v-3.9L116.1,1109.4L116.1,1109.4z"/>
		<path class="st0" d="M123.5,1117.2c-0.5,0.3-1.2,0.5-2,0.5c-2.1,0-3.3-1-3.3-3.1v-2.7H117v-2.1h1.2v-2.1h2.8v2.1h1.9v2.1H121v2.7
			c0,0.6,0.3,0.9,0.9,0.9c0.3,0,0.6-0.1,0.9-0.3L123.5,1117.2z"/>
		<path class="st0" d="M133.2,1112.9v4.6h-2.8v-4.2c0-1.2-0.5-1.7-1.3-1.7c-0.9,0-1.6,0.6-1.6,1.9v3.9h-2.8v-11.1h2.8v3.7
			c0.6-0.6,1.5-0.9,2.4-0.9C131.8,1109.3,133.2,1110.4,133.2,1112.9z"/>
		<path class="st0" d="M134.6,1113.5c0-2.4,1.9-4.2,4.6-4.2c2.7,0,4.6,1.7,4.6,4.2s-1.9,4.2-4.6,4.2
			C136.6,1117.7,134.6,1115.9,134.6,1113.5z M140.9,1113.5c0-1.2-0.7-1.9-1.7-1.9s-1.7,0.7-1.7,1.9c0,1.2,0.7,1.9,1.7,1.9
			S140.9,1114.7,140.9,1113.5z"/>
		<path class="st0" d="M150.6,1109.3v2.6c-0.3,0-0.4,0-0.6,0c-1.2,0-1.9,0.6-1.9,2v3.7h-2.8v-8.1h2.7v1
			C148.4,1109.7,149.4,1109.3,150.6,1109.3z"/>
		<path class="st0" d="M151.4,1107c0-0.9,0.7-1.5,1.7-1.5s1.7,0.6,1.7,1.5s-0.7,1.6-1.7,1.6S151.4,1107.9,151.4,1107z M151.7,1109.4
			h2.8v8.1h-2.8V1109.4z"/>
		<path class="st0" d="M163.5,1115.4v2.1H156v-1.7l3.8-4.3h-3.7v-2.1h7.2v1.7l-3.8,4.3H163.5z"/>
		<path class="st0" d="M172.4,1113v4.5h-2.7v-1c-0.4,0.8-1.2,1.2-2.4,1.2c-1.9,0-3-1.1-3-2.5c0-1.5,1.1-2.4,3.6-2.4h1.6
			c0-0.8-0.6-1.3-1.7-1.3c-0.8,0-1.6,0.3-2.2,0.7l-1-1.9c0.9-0.6,2.3-0.9,3.6-0.9C170.8,1109.3,172.4,1110.4,172.4,1113z
			 M169.5,1114.9v-0.7h-1.2c-0.9,0-1.2,0.3-1.2,0.8s0.4,0.8,1.1,0.8C168.7,1115.9,169.3,1115.6,169.5,1114.9z"/>
		<path class="st0" d="M179.7,1117.2c-0.5,0.3-1.2,0.5-2,0.5c-2.1,0-3.3-1-3.3-3.1v-2.7h-1.2v-2.1h1.2v-2.1h2.8v2.1h1.9v2.1h-1.9
			v2.7c0,0.6,0.3,0.9,0.9,0.9c0.3,0,0.6-0.1,0.9-0.3L179.7,1117.2z"/>
		<path class="st0" d="M180.5,1107c0-0.9,0.7-1.5,1.7-1.5s1.7,0.6,1.7,1.5s-0.7,1.6-1.7,1.6S180.5,1107.9,180.5,1107z M180.8,1109.4
			h2.8v8.1h-2.8V1109.4z"/>
		<path class="st0" d="M185,1113.5c0-2.4,1.9-4.2,4.6-4.2c2.7,0,4.6,1.7,4.6,4.2s-1.9,4.2-4.6,4.2C187,1117.7,185,1115.9,185,1113.5
			z M191.3,1113.5c0-1.2-0.7-1.9-1.7-1.9s-1.7,0.7-1.7,1.9c0,1.2,0.7,1.9,1.7,1.9S191.3,1114.7,191.3,1113.5z"/>
		<path class="st0" d="M204.1,1112.9v4.6h-2.8v-4.2c0-1.2-0.5-1.7-1.3-1.7c-0.9,0-1.6,0.6-1.6,1.9v3.9h-2.8v-8.1h2.7v0.9
			c0.6-0.7,1.6-1,2.6-1C202.7,1109.3,204.1,1110.4,204.1,1112.9z"/>
	</g>
</g>
<g id="Layer_1_1_">
	<rect x="167.8" y="352.8" class="st5" width="123.8" height="39.5"/>
	<g class="st4">
		<path class="st2" d="M198.7,367.3h-1.5l-1.5-4c-0.2-0.5-0.4-0.8-0.8-1s-0.8-0.3-1.4-0.3h-3v5.3h-1.4v-12.1h4.8
			c1.3,0,2.3,0.3,3,0.9s1,1.4,1,2.5c0,0.8-0.2,1.5-0.6,2c-0.4,0.5-1,0.9-1.8,1.1c0.4,0.1,0.7,0.2,0.9,0.5c0.2,0.2,0.5,0.6,0.6,1
			L198.7,367.3z M193.8,360.9c1.9,0,2.8-0.8,2.8-2.3c0-0.7-0.2-1.3-0.7-1.7c-0.5-0.4-1.2-0.6-2.1-0.6h-3.3v4.5h3.3V360.9z"/>
		<path class="st2" d="M207.9,363h-6.3c0,1.1,0.3,1.9,0.8,2.5s1.2,0.8,2.1,0.8c1,0,1.9-0.3,2.8-1l0.5,1c-0.4,0.4-0.9,0.6-1.4,0.8
			c-0.6,0.2-1.2,0.3-1.8,0.3c-1.3,0-2.4-0.4-3.1-1.2c-0.8-0.8-1.1-1.9-1.1-3.2c0-0.9,0.2-1.6,0.5-2.3c0.3-0.7,0.8-1.2,1.4-1.6
			c0.6-0.4,1.3-0.6,2.1-0.6c1.1,0,2,0.4,2.7,1.1s1,1.8,1,3.1v0.3H207.9z M202.5,360.3c-0.4,0.4-0.7,1-0.9,1.8h5
			c-0.1-0.8-0.3-1.4-0.7-1.8s-1-0.6-1.7-0.6S203,359.8,202.5,360.3z"/>
		<path class="st2" d="M217.5,358.7v8.5h-1.4v-1.5c-0.2,0.5-0.6,0.9-1.1,1.2c-0.5,0.3-1.1,0.4-1.8,0.4c-0.8,0-1.4-0.2-2-0.5
			c-0.6-0.4-1-0.9-1.3-1.5c-0.3-0.7-0.5-1.4-0.5-2.3s0.2-1.7,0.5-2.3c0.3-0.7,0.8-1.2,1.3-1.6c0.6-0.4,1.2-0.6,2-0.6
			c0.7,0,1.2,0.1,1.7,0.4s0.9,0.7,1.1,1.2v-1.5L217.5,358.7L217.5,358.7z M215.5,365.4c0.5-0.6,0.7-1.4,0.7-2.4s-0.2-1.9-0.7-2.4
			c-0.5-0.6-1.1-0.8-1.9-0.8c-0.8,0-1.5,0.3-2,0.9s-0.7,1.4-0.7,2.4s0.2,1.8,0.7,2.4s1.1,0.8,2,0.8C214.4,366.3,215,366,215.5,365.4
			z"/>
		<path class="st2" d="M227.7,354.8v12.5h-1.4v-1.5c-0.2,0.5-0.6,0.9-1.1,1.2c-0.5,0.3-1.1,0.4-1.8,0.4s-1.4-0.2-2-0.6
			s-1-0.9-1.3-1.6s-0.5-1.5-0.5-2.3s0.2-1.7,0.5-2.3c0.3-0.7,0.8-1.2,1.3-1.5c0.6-0.4,1.2-0.5,2-0.5c0.7,0,1.3,0.1,1.7,0.4
			c0.5,0.3,0.9,0.7,1.1,1.2v-5.4L227.7,354.8L227.7,354.8z M225.7,365.4c0.5-0.6,0.7-1.4,0.7-2.4s-0.2-1.8-0.7-2.4s-1.1-0.9-1.9-0.9
			c-0.8,0-1.5,0.3-2,0.8c-0.5,0.6-0.7,1.4-0.7,2.4c0,1.1,0.2,1.9,0.7,2.5s1.1,0.9,2,0.9C224.6,366.3,225.2,366,225.7,365.4z"/>
		<path class="st2" d="M231.9,355.1v1.6h-1.7v-1.6H231.9z M230.4,358.7h1.4v8.5h-1.4V358.7z"/>
		<path class="st2" d="M241.7,361.9v5.4h-1.4V362c0-0.8-0.2-1.4-0.5-1.7c-0.3-0.4-0.8-0.6-1.5-0.6c-0.8,0-1.4,0.2-1.9,0.7
			s-0.7,1.1-0.7,2v4.9h-1.4v-6.1c0-0.9,0-1.7-0.1-2.4h1.3l0.1,1.5c0.3-0.6,0.7-1,1.2-1.3s1.1-0.5,1.8-0.5
			C240.7,358.5,241.7,359.7,241.7,361.9z"/>
		<path class="st2" d="M251.5,363h-6.3c0,1.1,0.3,1.9,0.8,2.5s1.2,0.8,2.1,0.8c1,0,1.9-0.3,2.8-1l0.5,1c-0.4,0.4-0.9,0.6-1.4,0.8
			c-0.6,0.2-1.2,0.3-1.8,0.3c-1.3,0-2.4-0.4-3.1-1.2c-0.8-0.8-1.1-1.9-1.1-3.2c0-0.9,0.2-1.6,0.5-2.3c0.3-0.7,0.8-1.2,1.4-1.6
			c0.6-0.4,1.3-0.6,2.1-0.6c1.1,0,2,0.4,2.7,1.1s1,1.8,1,3.1v0.3H251.5z M246.1,360.3c-0.4,0.4-0.7,1-0.9,1.8h5
			c-0.1-0.8-0.3-1.4-0.7-1.8s-1-0.6-1.7-0.6S246.6,359.8,246.1,360.3z"/>
		<path class="st2" d="M253,366.3l0.5-1c0.5,0.4,0.9,0.6,1.4,0.8c0.5,0.2,1,0.2,1.6,0.2s1.1-0.1,1.5-0.3s0.5-0.5,0.5-1
			c0-0.3-0.1-0.6-0.3-0.8c-0.2-0.2-0.6-0.4-1.1-0.5l-1.4-0.3c-0.7-0.2-1.3-0.4-1.7-0.8s-0.6-0.9-0.6-1.5c0-0.7,0.3-1.4,0.9-1.8
			c0.6-0.5,1.4-0.7,2.4-0.7c0.6,0,1.2,0.1,1.7,0.3c0.5,0.2,1,0.5,1.3,0.8l-0.5,1c-0.8-0.7-1.7-1-2.6-1c-0.6,0-1.1,0.1-1.4,0.3
			c-0.3,0.2-0.5,0.6-0.5,1s0.1,0.6,0.3,0.8c0.2,0.2,0.5,0.4,1,0.5l1.4,0.4c0.8,0.2,1.4,0.5,1.8,0.8s0.6,0.9,0.6,1.5
			c0,0.7-0.3,1.3-0.9,1.8c-0.6,0.4-1.4,0.7-2.4,0.7C255,367.4,253.9,367,253,366.3z"/>
		<path class="st2" d="M261.5,366.3l0.5-1c0.5,0.4,0.9,0.6,1.4,0.8c0.5,0.2,1,0.2,1.6,0.2s1.1-0.1,1.5-0.3s0.5-0.5,0.5-1
			c0-0.3-0.1-0.6-0.3-0.8c-0.2-0.2-0.6-0.4-1.1-0.5l-1.4-0.3c-0.7-0.2-1.3-0.4-1.7-0.8c-0.4-0.4-0.6-0.9-0.6-1.5
			c0-0.7,0.3-1.4,0.9-1.8c0.6-0.5,1.4-0.7,2.4-0.7c0.6,0,1.2,0.1,1.7,0.3c0.5,0.2,1,0.5,1.3,0.8l-0.5,1c-0.8-0.7-1.7-1-2.6-1
			c-0.6,0-1.1,0.1-1.4,0.3c-0.3,0.2-0.5,0.6-0.5,1s0.1,0.6,0.3,0.8c0.2,0.2,0.5,0.4,1,0.5l1.4,0.4c0.8,0.2,1.4,0.5,1.8,0.8
			s0.6,0.9,0.6,1.5c0,0.7-0.3,1.3-0.9,1.8s-1.4,0.7-2.4,0.7C263.4,367.4,262.3,367,261.5,366.3z"/>
	</g>
	<g class="st4">
		<path class="st2" d="M189.9,384.6h-6.3l-1.3,3.1h-1.4l5.3-12.1h1.2l5.3,12.1h-1.4L189.9,384.6z M189.4,383.4l-2.7-6.2l-2.7,6.2
			H189.4z"/>
		<path class="st2" d="M193.6,386.7l0.5-1c0.5,0.4,0.9,0.6,1.4,0.8c0.5,0.2,1,0.2,1.6,0.2s1.1-0.1,1.5-0.3s0.5-0.5,0.5-1
			c0-0.3-0.1-0.6-0.3-0.8c-0.2-0.2-0.6-0.4-1.1-0.5l-1.4-0.3c-0.7-0.2-1.3-0.4-1.7-0.8s-0.6-0.9-0.6-1.5c0-0.7,0.3-1.4,0.9-1.8
			c0.6-0.5,1.4-0.7,2.4-0.7c0.6,0,1.2,0.1,1.7,0.3s1,0.5,1.3,0.8l-0.5,1c-0.8-0.7-1.7-1-2.6-1c-0.6,0-1.1,0.1-1.4,0.3
			c-0.3,0.2-0.5,0.6-0.5,1s0.1,0.6,0.3,0.8c0.2,0.2,0.5,0.4,1,0.5l1.4,0.4c0.8,0.2,1.4,0.5,1.8,0.8s0.6,0.9,0.6,1.5
			c0,0.7-0.3,1.3-0.9,1.8c-0.6,0.4-1.4,0.7-2.4,0.7C195.6,387.8,194.5,387.4,193.6,386.7z"/>
		<path class="st2" d="M202,386.7l0.5-1c0.5,0.4,0.9,0.6,1.4,0.8c0.5,0.2,1,0.2,1.6,0.2s1.1-0.1,1.5-0.3s0.5-0.5,0.5-1
			c0-0.3-0.1-0.6-0.3-0.8c-0.2-0.2-0.6-0.4-1.1-0.5l-1.4-0.3c-0.7-0.2-1.3-0.4-1.7-0.8s-0.6-0.9-0.6-1.5c0-0.7,0.3-1.4,0.9-1.8
			c0.6-0.5,1.4-0.7,2.4-0.7c0.6,0,1.2,0.1,1.7,0.3c0.5,0.2,1,0.5,1.3,0.8l-0.5,1c-0.8-0.7-1.7-1-2.6-1c-0.6,0-1.1,0.1-1.4,0.3
			c-0.3,0.2-0.5,0.6-0.5,1s0.1,0.6,0.3,0.8c0.2,0.2,0.5,0.4,1,0.5l1.4,0.4c0.8,0.2,1.4,0.5,1.8,0.8s0.6,0.9,0.6,1.5
			c0,0.7-0.3,1.3-0.9,1.8s-1.4,0.7-2.4,0.7C204,387.8,202.9,387.4,202,386.7z"/>
		<path class="st2" d="M218.1,383.4h-6.3c0,1.1,0.3,1.9,0.8,2.5s1.2,0.8,2.1,0.8c1,0,1.9-0.3,2.8-1l0.5,1c-0.4,0.4-0.9,0.6-1.4,0.8
			c-0.6,0.2-1.2,0.3-1.8,0.3c-1.3,0-2.4-0.4-3.1-1.2c-0.8-0.8-1.1-1.9-1.1-3.2c0-0.9,0.2-1.6,0.5-2.3c0.3-0.7,0.8-1.2,1.4-1.6
			c0.6-0.4,1.3-0.6,2.1-0.6c1.1,0,2,0.4,2.7,1.1c0.6,0.7,1,1.8,1,3.1v0.3H218.1z M212.8,380.7c-0.4,0.4-0.7,1-0.9,1.8h5
			c-0.1-0.8-0.3-1.4-0.7-1.8s-1-0.6-1.7-0.6S213.2,380.2,212.8,380.7z"/>
		<path class="st2" d="M219.7,386.7l0.5-1c0.5,0.4,0.9,0.6,1.4,0.8c0.5,0.2,1,0.2,1.6,0.2s1.1-0.1,1.5-0.3s0.5-0.5,0.5-1
			c0-0.3-0.1-0.6-0.3-0.8c-0.2-0.2-0.6-0.4-1.1-0.5l-1.4-0.3c-0.7-0.2-1.3-0.4-1.7-0.8s-0.6-0.9-0.6-1.5c0-0.7,0.3-1.4,0.9-1.8
			c0.6-0.5,1.4-0.7,2.4-0.7c0.6,0,1.2,0.1,1.7,0.3s1,0.5,1.3,0.8l-0.5,1c-0.8-0.7-1.7-1-2.6-1c-0.6,0-1.1,0.1-1.4,0.3
			c-0.3,0.2-0.5,0.6-0.5,1s0.1,0.6,0.3,0.8c0.2,0.2,0.5,0.4,1,0.5l1.4,0.4c0.8,0.2,1.4,0.5,1.8,0.8s0.6,0.9,0.6,1.5
			c0,0.7-0.3,1.3-0.9,1.8c-0.6,0.4-1.4,0.7-2.4,0.7C221.7,387.8,220.5,387.4,219.7,386.7z"/>
		<path class="st2" d="M228.1,386.7l0.5-1c0.5,0.4,0.9,0.6,1.4,0.8c0.5,0.2,1,0.2,1.6,0.2s1.1-0.1,1.5-0.3s0.5-0.5,0.5-1
			c0-0.3-0.1-0.6-0.3-0.8c-0.2-0.2-0.6-0.4-1.1-0.5l-1.4-0.3c-0.7-0.2-1.3-0.4-1.7-0.8s-0.6-0.9-0.6-1.5c0-0.7,0.3-1.4,0.9-1.8
			c0.6-0.5,1.4-0.7,2.4-0.7c0.6,0,1.2,0.1,1.7,0.3c0.5,0.2,1,0.5,1.3,0.8l-0.5,1c-0.8-0.7-1.7-1-2.6-1c-0.6,0-1.1,0.1-1.4,0.3
			c-0.3,0.2-0.5,0.6-0.5,1s0.1,0.6,0.3,0.8c0.2,0.2,0.5,0.4,1,0.5l1.4,0.4c0.8,0.2,1.4,0.5,1.8,0.8s0.6,0.9,0.6,1.5
			c0,0.7-0.3,1.3-0.9,1.8s-1.4,0.7-2.4,0.7C230.1,387.8,229,387.4,228.1,386.7z"/>
		<path class="st2" d="M249.4,382.3v5.4H248v-5.3c0-0.8-0.1-1.4-0.4-1.7c-0.3-0.4-0.7-0.5-1.3-0.5c-0.7,0-1.3,0.2-1.7,0.7
			s-0.6,1.1-0.6,2v4.9h-1.4v-5.3c0-0.8-0.1-1.4-0.4-1.7c-0.3-0.4-0.7-0.6-1.4-0.6s-1.3,0.2-1.7,0.7s-0.6,1.1-0.6,2v4.9h-1.4v-6.1
			c0-0.9,0-1.7-0.1-2.4h1.3l0.1,1.5c0.2-0.5,0.6-1,1.1-1.3s1-0.4,1.6-0.4c0.7,0,1.2,0.1,1.7,0.4c0.4,0.3,0.7,0.7,1,1.3
			c0.3-0.5,0.6-0.9,1.1-1.2s1.1-0.5,1.7-0.5C248.4,378.9,249.4,380.1,249.4,382.3z"/>
		<path class="st2" d="M259.1,383.4h-6.3c0,1.1,0.3,1.9,0.8,2.5s1.2,0.8,2.1,0.8c1,0,1.9-0.3,2.8-1l0.5,1c-0.4,0.4-0.9,0.6-1.4,0.8
			c-0.6,0.2-1.2,0.3-1.8,0.3c-1.3,0-2.4-0.4-3.1-1.2c-0.8-0.8-1.1-1.9-1.1-3.2c0-0.9,0.2-1.6,0.5-2.3c0.3-0.7,0.8-1.2,1.4-1.6
			c0.6-0.4,1.3-0.6,2.1-0.6c1.1,0,2,0.4,2.7,1.1c0.6,0.7,1,1.8,1,3.1v0.3H259.1z M253.8,380.7c-0.4,0.4-0.7,1-0.9,1.8h5
			c-0.1-0.8-0.3-1.4-0.7-1.8c-0.4-0.4-1-0.6-1.7-0.6S254.2,380.2,253.8,380.7z"/>
		<path class="st2" d="M268.5,382.3v5.4h-1.4v-5.3c0-0.8-0.2-1.4-0.5-1.7c-0.3-0.4-0.8-0.6-1.5-0.6c-0.8,0-1.4,0.2-1.9,0.7
			s-0.7,1.1-0.7,2v4.9h-1.4v-6.1c0-0.9,0-1.7-0.1-2.4h1.3l0.1,1.5c0.3-0.6,0.7-1,1.2-1.3s1.1-0.5,1.8-0.5
			C267.5,378.9,268.5,380.1,268.5,382.3z"/>
		<path class="st2" d="M273,380.2v4.7c0,0.6,0.1,1.1,0.4,1.3s0.6,0.4,1.1,0.4c0.3,0,0.6-0.1,0.9-0.2v1.2c-0.4,0.1-0.7,0.2-1.2,0.2
			c-0.8,0-1.5-0.2-1.9-0.7c-0.5-0.5-0.7-1.1-0.7-2v-4.9h-1.7v-1.1h1.7V377l1.4-0.5v2.7h2.4v1.1H273V380.2z"/>
	</g>
	<rect x="167.8" y="536.6" class="st5" width="123.8" height="39.5"/>
	<g class="st4">
		<path class="st3" d="M198.7,551.1h-1.5l-1.5-4c-0.2-0.5-0.4-0.8-0.8-1s-0.8-0.3-1.4-0.3h-3v5.3h-1.4V539h4.8c1.3,0,2.3,0.3,3,0.9
			c0.7,0.6,1,1.4,1,2.5c0,0.8-0.2,1.5-0.6,2c-0.4,0.5-1,0.9-1.8,1.1c0.4,0.1,0.7,0.2,0.9,0.5c0.2,0.2,0.5,0.6,0.6,1L198.7,551.1z
			 M193.8,544.7c1.9,0,2.8-0.8,2.8-2.3c0-0.7-0.2-1.3-0.7-1.7s-1.2-0.6-2.1-0.6h-3.3v4.5L193.8,544.7L193.8,544.7z"/>
		<path class="st3" d="M207.9,546.8h-6.3c0,1.1,0.3,1.9,0.8,2.5s1.2,0.8,2.1,0.8c1,0,1.9-0.3,2.8-1l0.5,1c-0.4,0.4-0.9,0.6-1.4,0.8
			c-0.6,0.2-1.2,0.3-1.8,0.3c-1.3,0-2.4-0.4-3.1-1.2c-0.8-0.8-1.1-1.9-1.1-3.2c0-0.9,0.2-1.6,0.5-2.3s0.8-1.2,1.4-1.6
			c0.6-0.4,1.3-0.6,2.1-0.6c1.1,0,2,0.4,2.7,1.1s1,1.8,1,3.1v0.3H207.9z M202.5,544.1c-0.4,0.4-0.7,1-0.9,1.8h5
			c-0.1-0.8-0.3-1.4-0.7-1.8c-0.4-0.4-1-0.6-1.7-0.6S203,543.6,202.5,544.1z"/>
		<path class="st3" d="M217.5,542.6v8.5h-1.4v-1.5c-0.2,0.5-0.6,0.9-1.1,1.2s-1.1,0.4-1.8,0.4c-0.8,0-1.4-0.2-2-0.5
			c-0.6-0.4-1-0.9-1.3-1.5c-0.3-0.7-0.5-1.4-0.5-2.3c0-0.9,0.2-1.7,0.5-2.3c0.3-0.7,0.8-1.2,1.3-1.6c0.6-0.4,1.2-0.6,2-0.6
			c0.7,0,1.2,0.1,1.7,0.4s0.9,0.7,1.1,1.2v-1.5L217.5,542.6L217.5,542.6z M215.5,549.2c0.5-0.6,0.7-1.4,0.7-2.4s-0.2-1.9-0.7-2.4
			c-0.5-0.6-1.1-0.8-1.9-0.8c-0.8,0-1.5,0.3-2,0.9c-0.5,0.6-0.7,1.4-0.7,2.4s0.2,1.8,0.7,2.4c0.5,0.6,1.1,0.8,2,0.8
			C214.4,550.1,215,549.8,215.5,549.2z"/>
		<path class="st3" d="M227.7,538.6v12.5h-1.4v-1.5c-0.2,0.5-0.6,0.9-1.1,1.2s-1.1,0.4-1.8,0.4s-1.4-0.2-2-0.6
			c-0.6-0.4-1-0.9-1.3-1.6c-0.3-0.7-0.5-1.5-0.5-2.3s0.2-1.7,0.5-2.3c0.3-0.7,0.8-1.2,1.3-1.5c0.6-0.4,1.2-0.5,2-0.5
			c0.7,0,1.3,0.1,1.7,0.4c0.5,0.3,0.9,0.7,1.1,1.2v-5.4L227.7,538.6L227.7,538.6z M225.7,549.2c0.5-0.6,0.7-1.4,0.7-2.4
			s-0.2-1.8-0.7-2.4c-0.5-0.6-1.1-0.9-1.9-0.9c-0.8,0-1.5,0.3-2,0.8c-0.5,0.6-0.7,1.4-0.7,2.4c0,1.1,0.2,1.9,0.7,2.5s1.1,0.9,2,0.9
			C224.6,550.1,225.2,549.8,225.7,549.2z"/>
		<path class="st3" d="M231.9,538.9v1.6h-1.7v-1.6H231.9z M230.4,542.6h1.4v8.5h-1.4V542.6z"/>
		<path class="st3" d="M241.7,545.7v5.4h-1.4v-5.3c0-0.8-0.2-1.4-0.5-1.7c-0.3-0.4-0.8-0.6-1.5-0.6c-0.8,0-1.4,0.2-1.9,0.7
			s-0.7,1.1-0.7,2v4.9h-1.4V545c0-0.9,0-1.7-0.1-2.4h1.3l0.1,1.5c0.3-0.6,0.7-1,1.2-1.3s1.1-0.5,1.8-0.5
			C240.7,542.4,241.7,543.5,241.7,545.7z"/>
		<path class="st3" d="M251.5,546.8h-6.3c0,1.1,0.3,1.9,0.8,2.5s1.2,0.8,2.1,0.8c1,0,1.9-0.3,2.8-1l0.5,1c-0.4,0.4-0.9,0.6-1.4,0.8
			c-0.6,0.2-1.2,0.3-1.8,0.3c-1.3,0-2.4-0.4-3.1-1.2c-0.8-0.8-1.1-1.9-1.1-3.2c0-0.9,0.2-1.6,0.5-2.3s0.8-1.2,1.4-1.6
			c0.6-0.4,1.3-0.6,2.1-0.6c1.1,0,2,0.4,2.7,1.1s1,1.8,1,3.1v0.3H251.5z M246.1,544.1c-0.4,0.4-0.7,1-0.9,1.8h5
			c-0.1-0.8-0.3-1.4-0.7-1.8c-0.4-0.4-1-0.6-1.7-0.6S246.6,543.6,246.1,544.1z"/>
		<path class="st3" d="M253,550.1l0.5-1c0.5,0.4,0.9,0.6,1.4,0.8s1,0.2,1.6,0.2s1.1-0.1,1.5-0.3s0.5-0.5,0.5-1
			c0-0.3-0.1-0.6-0.3-0.8c-0.2-0.2-0.6-0.4-1.1-0.5l-1.4-0.3c-0.7-0.2-1.3-0.4-1.7-0.8c-0.4-0.4-0.6-0.9-0.6-1.5
			c0-0.7,0.3-1.4,0.9-1.8c0.6-0.5,1.4-0.7,2.4-0.7c0.6,0,1.2,0.1,1.7,0.3s1,0.5,1.3,0.8l-0.5,1c-0.8-0.7-1.7-1-2.6-1
			c-0.6,0-1.1,0.1-1.4,0.3c-0.3,0.2-0.5,0.6-0.5,1s0.1,0.6,0.3,0.8s0.5,0.4,1,0.5l1.4,0.4c0.8,0.2,1.4,0.5,1.8,0.8s0.6,0.9,0.6,1.5
			c0,0.7-0.3,1.3-0.9,1.8c-0.6,0.4-1.4,0.7-2.4,0.7C255,551.2,253.9,550.8,253,550.1z"/>
		<path class="st3" d="M261.5,550.1l0.5-1c0.5,0.4,0.9,0.6,1.4,0.8s1,0.2,1.6,0.2s1.1-0.1,1.5-0.3s0.5-0.5,0.5-1
			c0-0.3-0.1-0.6-0.3-0.8c-0.2-0.2-0.6-0.4-1.1-0.5l-1.4-0.3c-0.7-0.2-1.3-0.4-1.7-0.8c-0.4-0.4-0.6-0.9-0.6-1.5
			c0-0.7,0.3-1.4,0.9-1.8c0.6-0.5,1.4-0.7,2.4-0.7c0.6,0,1.2,0.1,1.7,0.3s1,0.5,1.3,0.8l-0.5,1c-0.8-0.7-1.7-1-2.6-1
			c-0.6,0-1.1,0.1-1.4,0.3s-0.5,0.6-0.5,1s0.1,0.6,0.3,0.8c0.2,0.2,0.5,0.4,1,0.5l1.4,0.4c0.8,0.2,1.4,0.5,1.8,0.8s0.6,0.9,0.6,1.5
			c0,0.7-0.3,1.3-0.9,1.8s-1.4,0.7-2.4,0.7C263.4,551.2,262.3,550.8,261.5,550.1z"/>
	</g>
	<g class="st4">
		<path class="st3" d="M189.9,568.4h-6.3l-1.3,3.1h-1.4l5.3-12.1h1.2l5.3,12.1h-1.4L189.9,568.4z M189.4,567.2l-2.7-6.2l-2.7,6.2
			H189.4z"/>
		<path class="st3" d="M193.6,570.5l0.5-1c0.5,0.4,0.9,0.6,1.4,0.8s1,0.2,1.6,0.2s1.1-0.1,1.5-0.3s0.5-0.5,0.5-1
			c0-0.3-0.1-0.6-0.3-0.8s-0.6-0.4-1.1-0.5l-1.4-0.3c-0.7-0.2-1.3-0.4-1.7-0.8s-0.6-0.9-0.6-1.5c0-0.7,0.3-1.4,0.9-1.8
			c0.6-0.5,1.4-0.7,2.4-0.7c0.6,0,1.2,0.1,1.7,0.3s1,0.5,1.3,0.8l-0.5,1c-0.8-0.7-1.7-1-2.6-1c-0.6,0-1.1,0.1-1.4,0.3
			c-0.3,0.2-0.5,0.6-0.5,1s0.1,0.6,0.3,0.8s0.5,0.4,1,0.5l1.4,0.4c0.8,0.2,1.4,0.5,1.8,0.8s0.6,0.9,0.6,1.5c0,0.7-0.3,1.3-0.9,1.8
			c-0.6,0.4-1.4,0.7-2.4,0.7C195.6,571.6,194.5,571.2,193.6,570.5z"/>
		<path class="st3" d="M202,570.5l0.5-1c0.5,0.4,0.9,0.6,1.4,0.8s1,0.2,1.6,0.2s1.1-0.1,1.5-0.3s0.5-0.5,0.5-1
			c0-0.3-0.1-0.6-0.3-0.8s-0.6-0.4-1.1-0.5l-1.4-0.3c-0.7-0.2-1.3-0.4-1.7-0.8c-0.4-0.4-0.6-0.9-0.6-1.5c0-0.7,0.3-1.4,0.9-1.8
			c0.6-0.5,1.4-0.7,2.4-0.7c0.6,0,1.2,0.1,1.7,0.3s1,0.5,1.3,0.8l-0.5,1c-0.8-0.7-1.7-1-2.6-1c-0.6,0-1.1,0.1-1.4,0.3
			c-0.3,0.2-0.5,0.6-0.5,1s0.1,0.6,0.3,0.8s0.5,0.4,1,0.5l1.4,0.4c0.8,0.2,1.4,0.5,1.8,0.8s0.6,0.9,0.6,1.5c0,0.7-0.3,1.3-0.9,1.8
			s-1.4,0.7-2.4,0.7C204,571.6,202.9,571.2,202,570.5z"/>
		<path class="st3" d="M218.1,567.2h-6.3c0,1.1,0.3,1.9,0.8,2.5s1.2,0.8,2.1,0.8c1,0,1.9-0.3,2.8-1l0.5,1c-0.4,0.4-0.9,0.6-1.4,0.8
			c-0.6,0.2-1.2,0.3-1.8,0.3c-1.3,0-2.4-0.4-3.1-1.2c-0.8-0.8-1.1-1.9-1.1-3.2c0-0.9,0.2-1.6,0.5-2.3s0.8-1.2,1.4-1.6
			c0.6-0.4,1.3-0.6,2.1-0.6c1.1,0,2,0.4,2.7,1.1c0.6,0.7,1,1.8,1,3.1v0.3H218.1z M212.8,564.5c-0.4,0.4-0.7,1-0.9,1.8h5
			c-0.1-0.8-0.3-1.4-0.7-1.8c-0.4-0.4-1-0.6-1.7-0.6S213.2,564,212.8,564.5z"/>
		<path class="st3" d="M219.7,570.5l0.5-1c0.5,0.4,0.9,0.6,1.4,0.8s1,0.2,1.6,0.2s1.1-0.1,1.5-0.3s0.5-0.5,0.5-1
			c0-0.3-0.1-0.6-0.3-0.8s-0.6-0.4-1.1-0.5l-1.4-0.3c-0.7-0.2-1.3-0.4-1.7-0.8s-0.6-0.9-0.6-1.5c0-0.7,0.3-1.4,0.9-1.8
			c0.6-0.5,1.4-0.7,2.4-0.7c0.6,0,1.2,0.1,1.7,0.3s1,0.5,1.3,0.8l-0.5,1c-0.8-0.7-1.7-1-2.6-1c-0.6,0-1.1,0.1-1.4,0.3
			c-0.3,0.2-0.5,0.6-0.5,1s0.1,0.6,0.3,0.8s0.5,0.4,1,0.5l1.4,0.4c0.8,0.2,1.4,0.5,1.8,0.8s0.6,0.9,0.6,1.5c0,0.7-0.3,1.3-0.9,1.8
			c-0.6,0.4-1.4,0.7-2.4,0.7C221.7,571.6,220.5,571.2,219.7,570.5z"/>
		<path class="st3" d="M228.1,570.5l0.5-1c0.5,0.4,0.9,0.6,1.4,0.8s1,0.2,1.6,0.2s1.1-0.1,1.5-0.3s0.5-0.5,0.5-1
			c0-0.3-0.1-0.6-0.3-0.8s-0.6-0.4-1.1-0.5l-1.4-0.3c-0.7-0.2-1.3-0.4-1.7-0.8c-0.4-0.4-0.6-0.9-0.6-1.5c0-0.7,0.3-1.4,0.9-1.8
			c0.6-0.5,1.4-0.7,2.4-0.7c0.6,0,1.2,0.1,1.7,0.3s1,0.5,1.3,0.8l-0.5,1c-0.8-0.7-1.7-1-2.6-1c-0.6,0-1.1,0.1-1.4,0.3
			c-0.3,0.2-0.5,0.6-0.5,1s0.1,0.6,0.3,0.8s0.5,0.4,1,0.5l1.4,0.4c0.8,0.2,1.4,0.5,1.8,0.8s0.6,0.9,0.6,1.5c0,0.7-0.3,1.3-0.9,1.8
			s-1.4,0.7-2.4,0.7C230.1,571.6,229,571.2,228.1,570.5z"/>
		<path class="st3" d="M249.4,566.1v5.4H248v-5.3c0-0.8-0.1-1.4-0.4-1.7c-0.3-0.4-0.7-0.5-1.3-0.5c-0.7,0-1.3,0.2-1.7,0.7
			s-0.6,1.1-0.6,2v4.9h-1.4v-5.3c0-0.8-0.1-1.4-0.4-1.7c-0.3-0.4-0.7-0.6-1.4-0.6s-1.3,0.2-1.7,0.7s-0.6,1.1-0.6,2v4.9h-1.4v-6.1
			c0-0.9,0-1.7-0.1-2.4h1.3l0.1,1.5c0.2-0.5,0.6-1,1.1-1.3s1-0.4,1.6-0.4c0.7,0,1.2,0.1,1.7,0.4c0.4,0.3,0.7,0.7,1,1.3
			c0.3-0.5,0.6-0.9,1.1-1.2s1.1-0.5,1.7-0.5C248.4,562.8,249.4,563.9,249.4,566.1z"/>
		<path class="st3" d="M259.1,567.2h-6.3c0,1.1,0.3,1.9,0.8,2.5s1.2,0.8,2.1,0.8c1,0,1.9-0.3,2.8-1l0.5,1c-0.4,0.4-0.9,0.6-1.4,0.8
			c-0.6,0.2-1.2,0.3-1.8,0.3c-1.3,0-2.4-0.4-3.1-1.2c-0.8-0.8-1.1-1.9-1.1-3.2c0-0.9,0.2-1.6,0.5-2.3s0.8-1.2,1.4-1.6
			c0.6-0.4,1.3-0.6,2.1-0.6c1.1,0,2,0.4,2.7,1.1c0.6,0.7,1,1.8,1,3.1v0.3H259.1z M253.8,564.5c-0.4,0.4-0.7,1-0.9,1.8h5
			c-0.1-0.8-0.3-1.4-0.7-1.8c-0.4-0.4-1-0.6-1.7-0.6S254.2,564,253.8,564.5z"/>
		<path class="st3" d="M268.5,566.1v5.4h-1.4v-5.3c0-0.8-0.2-1.4-0.5-1.7c-0.3-0.4-0.8-0.6-1.5-0.6c-0.8,0-1.4,0.2-1.9,0.7
			s-0.7,1.1-0.7,2v4.9h-1.4v-6.1c0-0.9,0-1.7-0.1-2.4h1.3l0.1,1.5c0.3-0.6,0.7-1,1.2-1.3s1.1-0.5,1.8-0.5
			C267.5,562.8,268.5,563.9,268.5,566.1z"/>
		<path class="st3" d="M273,564v4.7c0,0.6,0.1,1.1,0.4,1.3s0.6,0.4,1.1,0.4c0.3,0,0.6-0.1,0.9-0.2v1.2c-0.4,0.1-0.7,0.2-1.2,0.2
			c-0.8,0-1.5-0.2-1.9-0.7c-0.5-0.5-0.7-1.1-0.7-2V564h-1.7v-1h1.7v-2.2l1.4-0.5v2.7h2.4v1.1L273,564L273,564z"/>
	</g>
	<rect x="12.2" y="352.8" class="st5" width="123.8" height="39.5"/>
	<g class="st4">
		<path class="st2" d="M28.3,355.2h4.8c1.2,0,2.2,0.3,2.9,0.9s1,1.4,1,2.5s-0.4,1.9-1.1,2.5c-0.7,0.6-1.7,0.9-2.9,0.9h-3.4v5.3h-1.4
			L28.3,355.2L28.3,355.2z M33,360.9c0.9,0,1.6-0.2,2-0.6s0.7-0.9,0.7-1.7s-0.2-1.3-0.7-1.7s-1.1-0.6-2-0.6h-3.3v4.5H33V360.9z"/>
		<path class="st2" d="M46.4,358.8v8.5H45v-1.5c-0.2,0.5-0.6,0.9-1.1,1.2c-0.5,0.3-1.1,0.4-1.8,0.4c-0.8,0-1.4-0.2-2-0.5
			c-0.6-0.4-1-0.9-1.3-1.5c-0.3-0.7-0.5-1.4-0.5-2.3s0.2-1.7,0.5-2.3c0.3-0.7,0.8-1.2,1.3-1.6c0.6-0.4,1.2-0.6,2-0.6
			c0.7,0,1.3,0.1,1.7,0.4s0.9,0.7,1.1,1.2v-1.5L46.4,358.8L46.4,358.8z M44.4,365.4c0.5-0.6,0.7-1.4,0.7-2.4s-0.2-1.9-0.7-2.4
			c-0.5-0.6-1.1-0.8-1.9-0.8c-0.8,0-1.5,0.3-2,0.9s-0.7,1.4-0.7,2.4s0.2,1.8,0.7,2.4s1.1,0.8,2,0.8C43.3,366.3,43.9,366,44.4,365.4z
			"/>
		<path class="st2" d="M53.8,358.7v1.3c-0.3-0.1-0.6-0.1-0.9-0.1c-0.8,0-1.4,0.3-1.8,0.8c-0.4,0.5-0.6,1.1-0.6,1.9v4.9h-1.4v-6.1
			c0-0.9,0-1.7-0.1-2.4h1.3l0.1,1.6c0.2-0.6,0.6-1,1-1.3c0.5-0.3,1-0.5,1.6-0.5C53.3,358.6,53.6,358.6,53.8,358.7z"/>
		<path class="st2" d="M57.7,359.9v4.7c0,0.6,0.1,1.1,0.4,1.3c0.3,0.3,0.6,0.4,1.1,0.4c0.3,0,0.6-0.1,0.9-0.2v1.2
			c-0.4,0.1-0.7,0.2-1.2,0.2c-0.8,0-1.5-0.2-1.9-0.7c-0.5-0.5-0.7-1.1-0.7-2v-4.9h-1.7v-1.1h1.7v-2.2l1.4-0.5v2.7h2.4v1.1H57.7z"/>
		<path class="st2" d="M69.2,362v5.4h-1.4V362c0-0.8-0.2-1.4-0.5-1.7c-0.3-0.4-0.8-0.6-1.5-0.6c-0.8,0-1.4,0.2-1.9,0.7
			s-0.7,1.1-0.7,2v4.9h-1.4v-6.1c0-0.9,0-1.7-0.1-2.4H63l0.1,1.5c0.3-0.6,0.7-1,1.2-1.3c0.5-0.3,1.1-0.5,1.8-0.5
			C68.1,358.6,69.2,359.7,69.2,362z"/>
		<path class="st2" d="M78.9,363h-6.3c0,1.1,0.3,1.9,0.8,2.5s1.2,0.8,2.1,0.8c1,0,1.9-0.3,2.8-1l0.5,1c-0.4,0.4-0.9,0.6-1.4,0.8
			c-0.6,0.2-1.2,0.3-1.8,0.3c-1.3,0-2.4-0.4-3.1-1.2c-0.8-0.8-1.1-1.9-1.1-3.2c0-0.9,0.2-1.6,0.5-2.3c0.3-0.7,0.8-1.2,1.4-1.6
			s1.3-0.6,2.1-0.6c1.1,0,2,0.4,2.7,1.1s1,1.8,1,3.1v0.3H78.9z M73.5,360.3c-0.4,0.4-0.7,1-0.9,1.8h5c-0.1-0.8-0.3-1.4-0.7-1.8
			c-0.4-0.4-1-0.6-1.7-0.6S74,359.9,73.5,360.3z"/>
		<path class="st2" d="M85.7,358.7v1.3c-0.3-0.1-0.6-0.1-0.9-0.1c-0.8,0-1.4,0.3-1.8,0.8s-0.6,1.1-0.6,1.9v4.9H81v-6.1
			c0-0.9,0-1.7-0.1-2.4h1.3l0.1,1.6c0.2-0.6,0.6-1,1-1.3c0.5-0.3,1-0.5,1.6-0.5C85.2,358.6,85.5,358.6,85.7,358.7z"/>
		<path class="st2" d="M86.5,366.3l0.5-1c0.5,0.4,0.9,0.6,1.4,0.8c0.5,0.2,1,0.2,1.6,0.2s1.1-0.1,1.5-0.3s0.5-0.5,0.5-1
			c0-0.3-0.1-0.6-0.3-0.8c-0.2-0.2-0.6-0.4-1.1-0.5l-1.4-0.3c-0.7-0.2-1.3-0.4-1.7-0.8c-0.4-0.4-0.6-0.9-0.6-1.5
			c0-0.7,0.3-1.4,0.9-1.8c0.6-0.5,1.4-0.7,2.4-0.7c0.6,0,1.2,0.1,1.7,0.3c0.5,0.2,1,0.5,1.3,0.8l-0.5,1c-0.8-0.7-1.7-1-2.6-1
			c-0.6,0-1.1,0.1-1.4,0.3c-0.3,0.2-0.5,0.6-0.5,1s0.1,0.6,0.3,0.8c0.2,0.2,0.5,0.4,1,0.5l1.4,0.4c0.8,0.2,1.4,0.5,1.8,0.8
			s0.6,0.9,0.6,1.5c0,0.7-0.3,1.3-0.9,1.8c-0.6,0.4-1.4,0.7-2.4,0.7C88.5,367.4,87.4,367.1,86.5,366.3z"/>
		<path class="st2" d="M102.8,362v5.4h-1.4V362c0-0.8-0.2-1.4-0.5-1.7c-0.3-0.4-0.8-0.6-1.5-0.6c-0.8,0-1.4,0.2-1.9,0.7
			s-0.7,1.1-0.7,2v4.9h-1.4v-12.5h1.4v5.3c0.3-0.5,0.7-0.9,1.2-1.2c0.5-0.3,1.1-0.4,1.7-0.4C101.8,358.6,102.8,359.7,102.8,362z"/>
		<path class="st2" d="M106.9,355.2v1.6h-1.7v-1.6H106.9z M105.4,358.8h1.4v8.5h-1.4V358.8z"/>
		<path class="st2" d="M115.7,359.1c0.6,0.4,1,0.9,1.3,1.6s0.5,1.5,0.5,2.3c0,0.9-0.2,1.7-0.5,2.3c-0.3,0.7-0.8,1.2-1.3,1.5
			c-0.6,0.4-1.2,0.5-2,0.5c-0.7,0-1.3-0.1-1.7-0.4c-0.5-0.3-0.9-0.7-1.1-1.3v5.2h-1.4V361c0-0.9,0-1.7-0.1-2.4h1.3l0.1,1.6
			c0.2-0.6,0.6-1,1.1-1.4c0.5-0.3,1.1-0.5,1.8-0.5C114.4,358.6,115.1,358.8,115.7,359.1z M115.4,365.5c0.5-0.6,0.7-1.4,0.7-2.4
			s-0.2-1.9-0.7-2.4c-0.5-0.6-1.1-0.9-1.9-0.9s-1.5,0.3-2,0.8c-0.5,0.6-0.7,1.4-0.7,2.4s0.2,1.9,0.7,2.4c0.5,0.6,1.1,0.9,2,0.9
			C114.3,366.3,114.9,366,115.4,365.5z"/>
	</g>
	<g class="st4">
		<path class="st2" d="M18,375.6h7.6v1.2h-6.3v4.2h5.9v1.2h-5.9v4.4h6.3v1.2H18V375.6z"/>
		<path class="st2" d="M27.3,386.7l0.5-1c0.5,0.4,0.9,0.6,1.4,0.8c0.5,0.2,1,0.2,1.6,0.2s1.1-0.1,1.5-0.3c0.4-0.2,0.5-0.5,0.5-1
			c0-0.3-0.1-0.6-0.3-0.8c-0.2-0.2-0.6-0.4-1.1-0.5l-1.4-0.3c-0.7-0.2-1.3-0.4-1.7-0.8c-0.4-0.4-0.6-0.9-0.6-1.5
			c0-0.7,0.3-1.4,0.9-1.8c0.6-0.5,1.4-0.7,2.4-0.7c0.6,0,1.2,0.1,1.7,0.3c0.5,0.2,1,0.5,1.3,0.8l-0.5,1c-0.8-0.7-1.7-1-2.6-1
			c-0.6,0-1.1,0.1-1.4,0.3c-0.3,0.2-0.5,0.6-0.5,1s0.1,0.6,0.3,0.8c0.2,0.2,0.5,0.4,1,0.5l1.4,0.4c0.8,0.2,1.4,0.5,1.8,0.8
			s0.6,0.9,0.6,1.5c0,0.7-0.3,1.3-0.9,1.8c-0.6,0.4-1.4,0.7-2.4,0.7C29.2,387.8,28.1,387.5,27.3,386.7z"/>
		<path class="st2" d="M38,380.3v4.7c0,0.6,0.1,1.1,0.4,1.3c0.3,0.3,0.6,0.4,1.1,0.4c0.3,0,0.6-0.1,0.9-0.2v1.2
			c-0.4,0.1-0.7,0.2-1.2,0.2c-0.8,0-1.5-0.2-1.9-0.7c-0.5-0.5-0.7-1.1-0.7-2v-4.9h-1.7v-1.1h1.7V377l1.4-0.5v2.7h2.4v1.1L38,380.3
			L38,380.3z"/>
		<path class="st2" d="M49.6,379.2v8.5h-1.4v-1.5c-0.2,0.5-0.6,0.9-1.1,1.2c-0.5,0.3-1.1,0.4-1.8,0.4c-0.8,0-1.4-0.2-2-0.5
			c-0.6-0.4-1-0.9-1.3-1.5c-0.3-0.7-0.5-1.4-0.5-2.3s0.2-1.7,0.5-2.3c0.3-0.7,0.8-1.2,1.3-1.6c0.6-0.4,1.2-0.6,2-0.6
			c0.7,0,1.3,0.1,1.7,0.4s0.9,0.7,1.1,1.2v-1.5L49.6,379.2L49.6,379.2z M47.6,385.8c0.5-0.6,0.7-1.4,0.7-2.4s-0.2-1.9-0.7-2.4
			c-0.5-0.6-1.1-0.8-1.9-0.8c-0.8,0-1.5,0.3-2,0.9s-0.7,1.4-0.7,2.4s0.2,1.8,0.7,2.4s1.1,0.8,2,0.8
			C46.5,386.7,47.1,386.4,47.6,385.8z"/>
		<path class="st2" d="M58.5,379.5c0.6,0.4,1,0.9,1.3,1.5c0.3,0.7,0.5,1.4,0.5,2.3s-0.2,1.7-0.5,2.3c-0.3,0.7-0.8,1.2-1.3,1.6
			s-1.2,0.6-2,0.6c-0.7,0-1.3-0.1-1.7-0.4c-0.5-0.3-0.9-0.7-1.1-1.3v1.6h-1.4v-12.5h1.4v5.5c0.2-0.6,0.6-1,1.1-1.3s1.1-0.4,1.8-0.4
			C57.3,379,57.9,379.2,58.5,379.5z M58.2,385.8c0.5-0.6,0.7-1.4,0.7-2.5c0-1-0.2-1.8-0.7-2.4s-1.1-0.8-1.9-0.8
			c-0.8,0-1.5,0.3-2,0.8c-0.5,0.6-0.7,1.4-0.7,2.4s0.2,1.9,0.7,2.4c0.5,0.6,1.1,0.9,2,0.9C57.1,386.7,57.7,386.4,58.2,385.8z"/>
		<path class="st2" d="M62.4,375.2h1.4v12.5h-1.4V375.2z"/>
		<path class="st2" d="M68,375.6v1.6h-1.7v-1.6H68z M66.5,379.2h1.4v8.5h-1.4V379.2z"/>
		<path class="st2" d="M70,386.7l0.5-1c0.5,0.4,0.9,0.6,1.4,0.8c0.5,0.2,1,0.2,1.6,0.2s1.1-0.1,1.5-0.3s0.5-0.5,0.5-1
			c0-0.3-0.1-0.6-0.3-0.8c-0.2-0.2-0.6-0.4-1.1-0.5l-1.4-0.3c-0.7-0.2-1.3-0.4-1.7-0.8c-0.4-0.4-0.6-0.9-0.6-1.5
			c0-0.7,0.3-1.4,0.9-1.8c0.6-0.5,1.4-0.7,2.4-0.7c0.6,0,1.2,0.1,1.7,0.3c0.5,0.2,1,0.5,1.3,0.8l-0.5,1c-0.8-0.7-1.7-1-2.6-1
			c-0.6,0-1.1,0.1-1.4,0.3c-0.3,0.2-0.5,0.6-0.5,1s0.1,0.6,0.3,0.8c0.2,0.2,0.5,0.4,1,0.5l1.4,0.4c0.8,0.2,1.4,0.5,1.8,0.8
			s0.6,0.9,0.6,1.5c0,0.7-0.3,1.3-0.9,1.8c-0.6,0.4-1.4,0.7-2.4,0.7C72,387.8,70.8,387.5,70,386.7z"/>
		<path class="st2" d="M86.3,382.4v5.4h-1.4v-5.3c0-0.8-0.2-1.4-0.5-1.7c-0.3-0.4-0.8-0.6-1.5-0.6c-0.8,0-1.4,0.2-1.9,0.7
			s-0.7,1.1-0.7,2v4.9h-1.4v-12.5h1.4v5.3c0.3-0.5,0.7-0.9,1.2-1.2c0.5-0.3,1.1-0.4,1.7-0.4C85.2,379,86.3,380.1,86.3,382.4z"/>
		<path class="st2" d="M101.2,382.4v5.4h-1.4v-5.3c0-0.8-0.1-1.4-0.4-1.7c-0.3-0.4-0.7-0.5-1.3-0.5c-0.7,0-1.3,0.2-1.7,0.7
			c-0.4,0.5-0.6,1.1-0.6,2v4.9h-1.4v-5.3c0-0.8-0.1-1.4-0.4-1.7c-0.3-0.4-0.7-0.6-1.4-0.6c-0.7,0-1.3,0.2-1.7,0.7
			c-0.4,0.5-0.6,1.1-0.6,2v4.9h-1.4v-6.1c0-0.9,0-1.7-0.1-2.4H90l0.1,1.5c0.2-0.5,0.6-1,1.1-1.3s1-0.4,1.6-0.4
			c0.7,0,1.2,0.1,1.7,0.4s0.7,0.7,1,1.3c0.3-0.5,0.6-0.9,1.1-1.2c0.5-0.3,1.1-0.5,1.7-0.5C100.2,379,101.2,380.1,101.2,382.4z"/>
		<path class="st2" d="M110.9,383.4h-6.3c0,1.1,0.3,1.9,0.8,2.5s1.2,0.8,2.1,0.8c1,0,1.9-0.3,2.8-1l0.5,1c-0.4,0.4-0.9,0.6-1.4,0.8
			c-0.6,0.2-1.2,0.3-1.8,0.3c-1.3,0-2.4-0.4-3.1-1.2c-0.8-0.8-1.1-1.9-1.1-3.2c0-0.9,0.2-1.6,0.5-2.3c0.3-0.7,0.8-1.2,1.4-1.6
			s1.3-0.6,2.1-0.6c1.1,0,2,0.4,2.7,1.1s1,1.8,1,3.1v0.3H110.9z M105.6,380.7c-0.4,0.4-0.7,1-0.9,1.8h5c-0.1-0.8-0.3-1.4-0.7-1.8
			c-0.4-0.4-1-0.6-1.7-0.6S106,380.3,105.6,380.7z"/>
		<path class="st2" d="M120.4,382.4v5.4H119v-5.3c0-0.8-0.2-1.4-0.5-1.7c-0.3-0.4-0.8-0.6-1.5-0.6c-0.8,0-1.4,0.2-1.9,0.7
			s-0.7,1.1-0.7,2v4.9H113v-6.1c0-0.9,0-1.7-0.1-2.4h1.3l0.1,1.5c0.3-0.6,0.7-1,1.2-1.3s1.1-0.5,1.8-0.5
			C119.3,379,120.4,380.1,120.4,382.4z"/>
		<path class="st2" d="M124.8,380.3v4.7c0,0.6,0.1,1.1,0.4,1.3c0.3,0.3,0.6,0.4,1.1,0.4c0.3,0,0.6-0.1,0.9-0.2v1.2
			c-0.4,0.1-0.7,0.2-1.2,0.2c-0.8,0-1.5-0.2-1.9-0.7c-0.5-0.5-0.7-1.1-0.7-2v-4.9h-1.7v-1.1h1.7V377l1.4-0.5v2.7h2.4v1.1
			L124.8,380.3L124.8,380.3z"/>
	</g>
	
		<rect x="54.4" y="494.4" transform="matrix(3.592854e-03 -1 1 3.592854e-03 -482.4121 628.3635)" class="st5" width="39.5" height="123.8"/>
	<g class="st4">
		<path class="st3" d="M35.2,538.8h7.5v1.2h-6.1v4.2h5.8v1.2h-5.8v5.6h-1.4V538.8z"/>
		<path class="st3" d="M51.6,546.6h-6.3c0,1.1,0.3,1.9,0.7,2.5c0.5,0.6,1.2,0.8,2.1,0.8c1,0,1.9-0.3,2.8-1l0.5,1
			c-0.4,0.3-0.9,0.6-1.4,0.8c-0.6,0.2-1.2,0.3-1.8,0.3c-1.3,0-2.4-0.4-3.1-1.2c-0.8-0.8-1.1-1.9-1.1-3.2c0-0.9,0.2-1.6,0.5-2.3
			s0.8-1.2,1.4-1.6c0.6-0.4,1.3-0.6,2.1-0.6c1.1,0,2,0.4,2.7,1.1c0.6,0.7,1,1.8,1,3.1L51.6,546.6z M46.2,543.9
			c-0.4,0.4-0.7,1-0.9,1.8h5c-0.1-0.8-0.3-1.4-0.7-1.8s-1-0.6-1.7-0.6C47.2,543.2,46.7,543.4,46.2,543.9z"/>
		<path class="st3" d="M61.2,538.5V551h-1.4v-1.5c-0.3,0.5-0.6,0.9-1.1,1.2s-1.1,0.4-1.8,0.4s-1.4-0.2-2-0.6c-0.6-0.4-1-0.9-1.3-1.6
			c-0.3-0.7-0.5-1.5-0.5-2.3c0-0.9,0.2-1.7,0.5-2.3c0.3-0.7,0.8-1.2,1.3-1.5c0.6-0.4,1.2-0.5,2-0.5c0.7,0,1.2,0.1,1.7,0.4
			c0.5,0.3,0.9,0.7,1.1,1.2v-5.4L61.2,538.5z M59.1,549.1c0.5-0.6,0.7-1.4,0.7-2.4s-0.2-1.8-0.7-2.4c-0.5-0.6-1.1-0.9-1.9-0.9
			c-0.8,0-1.5,0.3-2,0.8c-0.5,0.6-0.7,1.4-0.7,2.4c0,1.1,0.2,1.9,0.7,2.5s1.1,0.9,2,0.9C58,549.9,58.7,549.6,59.1,549.1z"/>
		<path class="st3" d="M73.5,551H72l-1.5-4c-0.2-0.5-0.4-0.8-0.8-1c-0.3-0.2-0.8-0.3-1.4-0.3h-3v5.3h-1.4v-12.1h4.8
			c1.3,0,2.3,0.3,3,0.9c0.7,0.6,1,1.4,1,2.5c0,0.8-0.2,1.5-0.6,2s-1,0.9-1.8,1.1c0.4,0.1,0.7,0.2,0.9,0.5c0.2,0.2,0.5,0.6,0.6,1
			L73.5,551z M68.7,544.5c1.9,0,2.8-0.7,2.8-2.3c0-0.7-0.2-1.3-0.7-1.7s-1.2-0.6-2.1-0.6h-3.3v4.5L68.7,544.5z"/>
		<path class="st3" d="M83.6,547.9h-6.3l-1.4,3.1h-1.4l5.4-12.1h1.2l5.3,12.1H85L83.6,547.9z M83.1,546.8l-2.6-6.2l-2.7,6.2H83.1z"
			/>
		<path class="st3" d="M99.6,539v12.1h-1.3v-9l-4,9h-1l-3.9-8.9v8.9h-1.3V539h1.2l4.5,10.4l4.6-10.4H99.6z"/>
		<path class="st3" d="M102.6,539h4.8c1.2,0,2.2,0.3,2.9,0.9c0.7,0.6,1,1.4,1,2.5s-0.4,1.9-1.1,2.5s-1.7,0.9-2.9,0.9h-3.4v5.3h-1.4
			L102.6,539z M107.2,544.6c0.9,0,1.6-0.2,2-0.6s0.7-0.9,0.7-1.7c0-0.7-0.2-1.3-0.7-1.7s-1.1-0.6-2-0.6h-3.3v4.5L107.2,544.6z"/>
	</g>
	<g class="st4">
		<path class="st3" d="M44.3,570.7c-0.8-0.5-1.5-1.2-1.9-2.2c-0.4-0.9-0.7-2-0.7-3.3s0.2-2.4,0.7-3.3s1.1-1.6,2-2.1
			c0.8-0.5,1.8-0.7,3-0.7c0.8,0,1.6,0.1,2.3,0.4c0.7,0.3,1.3,0.6,1.8,1.2l-0.5,1.1c-0.6-0.5-1.1-0.9-1.7-1.1
			c-0.6-0.2-1.2-0.3-1.9-0.3c-1.3,0-2.4,0.4-3.1,1.3c-0.7,0.9-1.1,2.1-1.1,3.7c0,1.6,0.4,2.8,1.1,3.7c0.7,0.9,1.7,1.3,3.1,1.3
			c0.7,0,1.3-0.1,1.9-0.3c0.6-0.2,1.1-0.6,1.7-1.1l0.5,1.1c-0.5,0.5-1.1,0.9-1.8,1.1c-0.7,0.3-1.5,0.4-2.3,0.4
			C46.1,571.4,45.1,571.2,44.3,570.7z"/>
		<path class="st3" d="M54.8,570.9c-0.6-0.4-1.1-0.9-1.4-1.5s-0.5-1.5-0.5-2.3s0.2-1.7,0.5-2.3s0.8-1.2,1.4-1.5
			c0.6-0.4,1.3-0.5,2.1-0.5s1.5,0.2,2.1,0.6c0.6,0.4,1.1,0.9,1.4,1.5s0.5,1.5,0.5,2.3s-0.2,1.7-0.5,2.3s-0.8,1.2-1.4,1.5
			c-0.6,0.4-1.3,0.5-2.1,0.5C56.1,571.4,55.4,571.3,54.8,570.9z M58.9,569.5c0.5-0.6,0.7-1.4,0.7-2.5c0-1-0.2-1.8-0.7-2.4
			c-0.5-0.6-1.1-0.9-1.9-0.9c-0.8,0-1.5,0.3-2,0.9c-0.5,0.6-0.7,1.4-0.7,2.4c0,1.1,0.2,1.9,0.7,2.5s1.1,0.8,2,0.8
			S58.4,570,58.9,569.5z"/>
		<path class="st3" d="M70.4,566v5.4H69v-5.3c0-0.8-0.2-1.4-0.5-1.7c-0.3-0.4-0.8-0.6-1.5-0.6c-0.8,0-1.4,0.2-1.9,0.7
			s-0.7,1.1-0.7,2v4.9H63v-6.1c0-0.9,0-1.7-0.1-2.4h1.3l0.1,1.5c0.3-0.6,0.7-1,1.2-1.3s1.1-0.4,1.8-0.4
			C69.4,562.6,70.4,563.8,70.4,566z"/>
		<path class="st3" d="M80.4,566.1v5.4H79v-5.3c0-0.8-0.2-1.4-0.5-1.7c-0.3-0.4-0.8-0.6-1.5-0.6c-0.8,0-1.4,0.2-1.9,0.7
			s-0.7,1.1-0.7,2v4.9H73v-6.1c0-0.9,0-1.7-0.1-2.4h1.3l0.1,1.5c0.3-0.6,0.7-1,1.2-1.3s1.1-0.4,1.8-0.4
			C79.4,562.7,80.4,563.8,80.4,566.1z"/>
		<path class="st3" d="M90.1,567.1h-6.3c0,1.1,0.3,1.9,0.7,2.5c0.5,0.6,1.2,0.8,2.1,0.8c1,0,1.9-0.3,2.8-1l0.5,1
			c-0.4,0.3-0.9,0.6-1.4,0.8c-0.6,0.2-1.2,0.3-1.8,0.3c-1.3,0-2.4-0.4-3.1-1.2c-0.8-0.8-1.1-1.9-1.1-3.2c0-0.9,0.2-1.6,0.5-2.3
			s0.8-1.2,1.4-1.6c0.6-0.4,1.3-0.6,2.1-0.6c1.1,0,2,0.4,2.7,1.1c0.6,0.7,1,1.8,1,3.1L90.1,567.1z M84.8,564.4
			c-0.4,0.4-0.7,1-0.9,1.8h5c-0.1-0.8-0.3-1.4-0.7-1.8s-1-0.6-1.7-0.6C85.8,563.8,85.2,564,84.8,564.4z"/>
		<path class="st3" d="M93.6,571c-0.6-0.4-1.1-0.9-1.4-1.5s-0.5-1.4-0.5-2.3c0-0.9,0.2-1.7,0.5-2.3c0.3-0.7,0.8-1.2,1.5-1.6
			c0.6-0.4,1.4-0.6,2.2-0.6c0.6,0,1.1,0.1,1.7,0.3c0.5,0.2,1,0.5,1.3,0.8l-0.5,1c-0.4-0.3-0.8-0.6-1.2-0.8c-0.4-0.2-0.8-0.2-1.2-0.2
			c-0.9,0-1.6,0.3-2.1,0.9c-0.5,0.6-0.8,1.4-0.8,2.4s0.2,1.8,0.7,2.4c0.5,0.6,1.2,0.9,2.1,0.9c0.4,0,0.8-0.1,1.2-0.2
			c0.4-0.2,0.8-0.4,1.2-0.7l0.5,1c-0.4,0.3-0.8,0.6-1.4,0.8c-0.5,0.2-1.1,0.3-1.7,0.3C94.9,571.6,94.2,571.4,93.6,571z"/>
		<path class="st3" d="M102.5,564v4.7c0,0.6,0.1,1.1,0.4,1.3c0.3,0.3,0.6,0.4,1.1,0.4c0.3,0,0.6,0,0.9-0.2v1.2
			c-0.4,0.1-0.7,0.2-1.2,0.2c-0.8,0-1.5-0.2-1.9-0.7c-0.5-0.5-0.7-1.1-0.7-2V564h-1.7v-1.1h1.7v-2.2l1.4-0.5v2.7h2.4v1.1H102.5z"/>
	</g>
	<g>
		<g class="st4">
			<path class="st2" d="M50.8,714.4h7.5v1.2h-6.1v4.2H58v1.2h-5.8v5.6h-1.4V714.4z"/>
			<path class="st2" d="M67.1,718v8.5h-1.3V725c-0.3,0.5-0.7,0.9-1.1,1.2c-0.5,0.3-1,0.4-1.6,0.4c-1,0-1.8-0.3-2.3-0.8
				c-0.5-0.6-0.8-1.4-0.8-2.5V718h1.4v5.3c0,0.8,0.2,1.3,0.5,1.7s0.8,0.5,1.4,0.5c0.8,0,1.4-0.2,1.8-0.7c0.5-0.5,0.7-1.1,0.7-1.9
				V718H67.1z"/>
			<path class="st2" d="M69.8,714h1.4v12.5h-1.4V714z"/>
			<path class="st2" d="M73.8,714h1.4v12.5h-1.4V714z"/>
			<path class="st2" d="M81.8,725.1l0.5-1.1c0.6,0.5,1.2,0.9,1.8,1.1c0.6,0.2,1.3,0.3,2.2,0.3c1,0,1.7-0.2,2.2-0.6
				c0.5-0.4,0.8-0.9,0.8-1.6c0-0.4-0.1-0.7-0.4-1s-0.6-0.5-1-0.6s-1-0.3-1.7-0.5c-0.9-0.2-1.7-0.4-2.3-0.7c-0.6-0.2-1.1-0.6-1.5-1
				s-0.6-1-0.6-1.8c0-0.7,0.2-1.3,0.5-1.8s0.9-0.9,1.5-1.2c0.7-0.3,1.4-0.4,2.3-0.4c0.8,0,1.6,0.1,2.3,0.4c0.7,0.3,1.3,0.6,1.8,1.1
				l-0.5,1.1c-0.6-0.5-1.1-0.8-1.7-1.1c-0.6-0.2-1.2-0.3-1.9-0.3c-0.9,0-1.7,0.2-2.2,0.6c-0.5,0.4-0.8,1-0.8,1.7
				c0,0.6,0.2,1.1,0.7,1.4c0.5,0.3,1.2,0.6,2.1,0.8c1,0.2,1.9,0.5,2.5,0.7s1.1,0.5,1.5,1c0.4,0.4,0.6,1,0.6,1.7s-0.2,1.3-0.5,1.8
				c-0.4,0.5-0.9,0.9-1.6,1.2s-1.5,0.4-2.4,0.4C84.4,726.6,82.9,726.1,81.8,725.1z"/>
			<path class="st2" d="M100,722.2h-6.3c0,1.1,0.3,1.9,0.8,2.5s1.2,0.8,2.1,0.8c1,0,1.9-0.3,2.8-1l0.5,1c-0.4,0.4-0.9,0.6-1.4,0.8
				c-0.6,0.2-1.2,0.3-1.8,0.3c-1.3,0-2.4-0.4-3.1-1.2c-0.8-0.8-1.1-1.9-1.1-3.2c0-0.9,0.2-1.6,0.5-2.3s0.8-1.2,1.4-1.6
				c0.6-0.4,1.3-0.6,2.1-0.6c1.1,0,2,0.4,2.7,1.1s1,1.8,1,3.1v0.3H100z M94.7,719.5c-0.4,0.4-0.7,1-0.9,1.8h5
				c-0.1-0.8-0.3-1.4-0.7-1.8c-0.4-0.4-1-0.6-1.7-0.6S95.1,719,94.7,719.5z"/>
			<path class="st2" d="M103.5,726.1c-0.6-0.4-1.1-0.9-1.4-1.5s-0.5-1.4-0.5-2.3c0-0.9,0.2-1.7,0.5-2.3c0.3-0.7,0.8-1.2,1.5-1.6
				c0.6-0.4,1.4-0.6,2.2-0.6c0.6,0,1.1,0.1,1.7,0.3c0.5,0.2,1,0.5,1.3,0.8l-0.5,1c-0.4-0.3-0.8-0.6-1.2-0.7
				c-0.4-0.2-0.8-0.2-1.2-0.2c-0.9,0-1.6,0.3-2.1,0.9c-0.5,0.6-0.7,1.4-0.7,2.4s0.2,1.8,0.7,2.4c0.5,0.6,1.2,0.9,2.1,0.9
				c0.4,0,0.8-0.1,1.2-0.2c0.4-0.2,0.8-0.4,1.2-0.7l0.5,1c-0.4,0.3-0.8,0.6-1.4,0.8c-0.5,0.2-1.1,0.3-1.7,0.3
				C104.9,726.6,104.1,726.4,103.5,726.1z"/>
			<path class="st2" d="M117.7,718v8.5h-1.3V725c-0.3,0.5-0.7,0.9-1.1,1.2c-0.5,0.3-1,0.4-1.6,0.4c-1,0-1.8-0.3-2.3-0.8
				c-0.5-0.6-0.8-1.4-0.8-2.5V718h1.4v5.3c0,0.8,0.2,1.3,0.5,1.7s0.8,0.5,1.4,0.5c0.8,0,1.4-0.2,1.8-0.7c0.5-0.5,0.7-1.1,0.7-1.9
				V718H117.7z"/>
			<path class="st2" d="M125.1,717.9v1.3c-0.3-0.1-0.6-0.1-0.9-0.1c-0.8,0-1.4,0.3-1.8,0.8s-0.6,1.1-0.6,1.9v4.9h-1.4v-6.1
				c0-0.9,0-1.7-0.1-2.4h1.3l0.1,1.6c0.2-0.6,0.6-1,1-1.3c0.5-0.3,1-0.5,1.6-0.5C124.6,717.8,124.8,717.8,125.1,717.9z"/>
			<path class="st2" d="M128,714.3v1.6h-1.7v-1.6H128z M126.5,718h1.4v8.5h-1.4V718z"/>
			<path class="st2" d="M132.3,719.1v4.7c0,0.6,0.1,1.1,0.4,1.3c0.3,0.3,0.6,0.4,1.1,0.4c0.3,0,0.6-0.1,0.9-0.2v1.2
				c-0.4,0.1-0.7,0.2-1.2,0.2c-0.8,0-1.5-0.2-1.9-0.7c-0.5-0.5-0.7-1.1-0.7-2v-4.9h-1.7V718h1.7v-2.2l1.4-0.5v2.7h2.4v1.1H132.3z"/>
			<path class="st2" d="M144,718l-4,9.3c-0.4,1-0.9,1.7-1.6,2.1c-0.6,0.5-1.4,0.8-2.3,0.9l-0.3-1.1c0.8-0.2,1.4-0.4,1.8-0.7
				c0.4-0.3,0.8-0.8,1-1.4l0.3-0.8l-3.6-8.5h1.4l2.9,7l2.9-7h1.5V718z"/>
			<path class="st2" d="M158.1,723.4h-6.3l-1.3,3.1H149l5.3-12.1h1.2l5.3,12.1h-1.4L158.1,723.4z M157.6,722.2l-2.7-6.2l-2.7,6.2
				H157.6z"/>
			<path class="st2" d="M161.8,725.5l0.5-1c0.5,0.4,0.9,0.6,1.4,0.8s1,0.2,1.6,0.2s1.1-0.1,1.5-0.3s0.5-0.5,0.5-1
				c0-0.3-0.1-0.6-0.3-0.8s-0.6-0.4-1.1-0.5l-1.4-0.3c-0.7-0.2-1.3-0.4-1.7-0.8s-0.6-0.9-0.6-1.5c0-0.7,0.3-1.4,0.9-1.8
				c0.6-0.5,1.4-0.7,2.4-0.7c0.6,0,1.2,0.1,1.7,0.3s1,0.5,1.3,0.8l-0.5,1c-0.8-0.7-1.7-1-2.6-1c-0.6,0-1.1,0.1-1.4,0.3
				c-0.3,0.2-0.5,0.6-0.5,1s0.1,0.6,0.3,0.8s0.5,0.4,1,0.5l1.4,0.4c0.8,0.2,1.4,0.5,1.8,0.8s0.6,0.9,0.6,1.5c0,0.7-0.3,1.3-0.9,1.8
				c-0.6,0.4-1.4,0.7-2.4,0.7C163.8,726.6,162.7,726.3,161.8,725.5z"/>
			<path class="st2" d="M170.2,725.5l0.5-1c0.5,0.4,0.9,0.6,1.4,0.8s1,0.2,1.6,0.2s1.1-0.1,1.5-0.3s0.5-0.5,0.5-1
				c0-0.3-0.1-0.6-0.3-0.8s-0.6-0.4-1.1-0.5l-1.4-0.3c-0.7-0.2-1.3-0.4-1.7-0.8c-0.4-0.4-0.6-0.9-0.6-1.5c0-0.7,0.3-1.4,0.9-1.8
				c0.6-0.5,1.4-0.7,2.4-0.7c0.6,0,1.2,0.1,1.7,0.3s1,0.5,1.3,0.8l-0.5,1c-0.8-0.7-1.7-1-2.6-1c-0.6,0-1.1,0.1-1.4,0.3
				c-0.3,0.2-0.5,0.6-0.5,1s0.1,0.6,0.3,0.8s0.5,0.4,1,0.5l1.4,0.4c0.8,0.2,1.4,0.5,1.8,0.8s0.6,0.9,0.6,1.5c0,0.7-0.3,1.3-0.9,1.8
				c-0.6,0.4-1.4,0.7-2.4,0.7C172.2,726.6,171.1,726.3,170.2,725.5z"/>
			<path class="st2" d="M186.3,722.2H180c0,1.1,0.3,1.9,0.8,2.5s1.2,0.8,2.1,0.8c1,0,1.9-0.3,2.8-1l0.5,1c-0.4,0.4-0.9,0.6-1.4,0.8
				c-0.6,0.2-1.2,0.3-1.8,0.3c-1.3,0-2.4-0.4-3.1-1.2c-0.8-0.8-1.1-1.9-1.1-3.2c0-0.9,0.2-1.6,0.5-2.3s0.8-1.2,1.4-1.6
				c0.6-0.4,1.3-0.6,2.1-0.6c1.1,0,2,0.4,2.7,1.1c0.6,0.7,1,1.8,1,3.1v0.3H186.3z M181,719.5c-0.4,0.4-0.7,1-0.9,1.8h5
				c-0.1-0.8-0.3-1.4-0.7-1.8c-0.4-0.4-1-0.6-1.7-0.6S181.4,719,181,719.5z"/>
			<path class="st2" d="M187.9,725.5l0.5-1c0.5,0.4,0.9,0.6,1.4,0.8s1,0.2,1.6,0.2s1.1-0.1,1.5-0.3s0.5-0.5,0.5-1
				c0-0.3-0.1-0.6-0.3-0.8s-0.6-0.4-1.1-0.5l-1.4-0.3c-0.7-0.2-1.3-0.4-1.7-0.8c-0.4-0.4-0.6-0.9-0.6-1.5c0-0.7,0.3-1.4,0.9-1.8
				c0.6-0.5,1.4-0.7,2.4-0.7c0.6,0,1.2,0.1,1.7,0.3s1,0.5,1.3,0.8l-0.5,1c-0.8-0.7-1.7-1-2.6-1c-0.6,0-1.1,0.1-1.4,0.3
				c-0.3,0.2-0.5,0.6-0.5,1s0.1,0.6,0.3,0.8s0.5,0.4,1,0.5l1.4,0.4c0.8,0.2,1.4,0.5,1.8,0.8s0.6,0.9,0.6,1.5c0,0.7-0.3,1.3-0.9,1.8
				s-1.4,0.7-2.4,0.7C189.9,726.6,188.7,726.3,187.9,725.5z"/>
			<path class="st2" d="M196.3,725.5l0.5-1c0.5,0.4,0.9,0.6,1.4,0.8s1,0.2,1.6,0.2s1.1-0.1,1.5-0.3s0.5-0.5,0.5-1
				c0-0.3-0.1-0.6-0.3-0.8s-0.6-0.4-1.1-0.5l-1.4-0.3c-0.7-0.2-1.3-0.4-1.7-0.8s-0.6-0.9-0.6-1.5c0-0.7,0.3-1.4,0.9-1.8
				c0.6-0.5,1.4-0.7,2.4-0.7c0.6,0,1.2,0.1,1.7,0.3s1,0.5,1.3,0.8l-0.5,1c-0.8-0.7-1.7-1-2.6-1c-0.6,0-1.1,0.1-1.4,0.3
				c-0.3,0.2-0.5,0.6-0.5,1s0.1,0.6,0.3,0.8s0.5,0.4,1,0.5l1.4,0.4c0.8,0.2,1.4,0.5,1.8,0.8s0.6,0.9,0.6,1.5c0,0.7-0.3,1.3-0.9,1.8
				s-1.4,0.7-2.4,0.7C198.3,726.6,197.1,726.3,196.3,725.5z"/>
			<path class="st2" d="M217.6,721.1v5.4h-1.4v-5.3c0-0.8-0.1-1.4-0.4-1.7c-0.3-0.4-0.7-0.5-1.3-0.5c-0.7,0-1.3,0.2-1.7,0.7
				s-0.6,1.1-0.6,2v4.9h-1.4v-5.3c0-0.8-0.1-1.4-0.4-1.7c-0.3-0.4-0.7-0.6-1.4-0.6s-1.3,0.2-1.7,0.7s-0.6,1.1-0.6,2v4.9h-1.4v-6.1
				c0-0.9,0-1.7-0.1-2.4h1.3l0.1,1.5c0.2-0.5,0.6-1,1.1-1.3s1-0.4,1.6-0.4c0.7,0,1.2,0.1,1.7,0.4s0.7,0.7,1,1.3
				c0.3-0.5,0.6-0.9,1.1-1.2s1.1-0.5,1.7-0.5C216.6,717.8,217.6,718.9,217.6,721.1z"/>
			<path class="st2" d="M227.3,722.2H221c0,1.1,0.3,1.9,0.8,2.5s1.2,0.8,2.1,0.8c1,0,1.9-0.3,2.8-1l0.5,1c-0.4,0.4-0.9,0.6-1.4,0.8
				c-0.6,0.2-1.2,0.3-1.8,0.3c-1.3,0-2.4-0.4-3.1-1.2c-0.8-0.8-1.1-1.9-1.1-3.2c0-0.9,0.2-1.6,0.5-2.3s0.8-1.2,1.4-1.6
				c0.6-0.4,1.3-0.6,2.1-0.6c1.1,0,2,0.4,2.7,1.1c0.6,0.7,1,1.8,1,3.1v0.3H227.3z M222,719.5c-0.4,0.4-0.7,1-0.9,1.8h5
				c-0.1-0.8-0.3-1.4-0.7-1.8c-0.4-0.4-1-0.6-1.7-0.6S222.4,719,222,719.5z"/>
			<path class="st2" d="M236.7,721.1v5.4h-1.4v-5.3c0-0.8-0.2-1.4-0.5-1.7c-0.3-0.4-0.8-0.6-1.5-0.6c-0.8,0-1.4,0.2-1.9,0.7
				s-0.7,1.1-0.7,2v4.9h-1.4v-6.1c0-0.9,0-1.7-0.1-2.4h1.3l0.1,1.5c0.3-0.6,0.7-1,1.2-1.3s1.1-0.5,1.8-0.5
				C235.7,717.8,236.7,718.9,236.7,721.1z"/>
			<path class="st2" d="M241.2,719.1v4.7c0,0.6,0.1,1.1,0.4,1.3c0.3,0.3,0.6,0.4,1.1,0.4c0.3,0,0.6-0.1,0.9-0.2v1.2
				c-0.4,0.1-0.7,0.2-1.2,0.2c-0.8,0-1.5-0.2-1.9-0.7c-0.5-0.5-0.7-1.1-0.7-2v-4.9h-1.7V718h1.7v-2.2l1.4-0.5v2.7h2.4v1.1H241.2z"/>
		</g>
	</g>
	<g>
		<g class="st4">
			<path class="st2" d="M37.4,1030.9H31l-1.3,3.1h-1.4l5.3-12.1h1.2l5.3,12.1h-1.4L37.4,1030.9z M36.9,1029.8l-2.7-6.2l-2.7,6.2
				H36.9z"/>
			<path class="st2" d="M49.3,1025.5v8.5c0,1.3-0.3,2.2-1,2.9c-0.7,0.7-1.6,1-2.9,1c-1.3,0-2.4-0.3-3.4-0.9l0.2-1.1
				c0.5,0.3,1.1,0.5,1.5,0.7s1,0.2,1.6,0.2c0.8,0,1.4-0.2,1.9-0.7c0.4-0.4,0.6-1.1,0.6-1.9v-2c-0.3,0.5-0.6,1-1.1,1.3
				s-1.1,0.4-1.8,0.4s-1.4-0.2-2-0.5c-0.6-0.4-1-0.8-1.3-1.5c-0.3-0.6-0.5-1.4-0.5-2.2c0-0.8,0.2-1.6,0.5-2.2s0.8-1.1,1.3-1.5
				c0.6-0.4,1.2-0.5,2-0.5c0.7,0,1.3,0.1,1.8,0.4s0.9,0.7,1.1,1.2v-1.5h1.5V1025.5z M47.3,1031.8c0.5-0.5,0.7-1.3,0.7-2.3
				s-0.2-1.7-0.7-2.3c-0.5-0.5-1.1-0.8-1.9-0.8c-0.8,0-1.5,0.3-2,0.8s-0.7,1.3-0.7,2.3s0.2,1.7,0.7,2.3s1.1,0.8,2,0.8
				C46.1,1032.6,46.8,1032.4,47.3,1031.8z"/>
			<path class="st2" d="M59.1,1029.7h-6.3c0,1.1,0.3,1.9,0.8,2.5s1.2,0.8,2.1,0.8c1,0,1.9-0.3,2.8-1l0.5,1c-0.4,0.4-0.9,0.6-1.4,0.8
				c-0.6,0.2-1.2,0.3-1.8,0.3c-1.3,0-2.4-0.4-3.1-1.2c-0.8-0.8-1.1-1.9-1.1-3.2c0-0.9,0.2-1.6,0.5-2.3c0.3-0.7,0.8-1.2,1.4-1.6
				c0.6-0.4,1.3-0.6,2.1-0.6c1.1,0,2,0.4,2.7,1.1s1,1.8,1,3.1v0.3H59.1z M53.8,1027c-0.4,0.4-0.7,1-0.9,1.8h5
				c-0.1-0.8-0.3-1.4-0.7-1.8s-1-0.6-1.7-0.6S54.2,1026.6,53.8,1027z"/>
			<path class="st2" d="M68.6,1028.7v5.4h-1.4v-5.3c0-0.8-0.2-1.4-0.5-1.7c-0.3-0.4-0.8-0.6-1.5-0.6c-0.8,0-1.4,0.2-1.9,0.7
				s-0.7,1.1-0.7,2v4.9h-1.4v-6.1c0-0.9,0-1.7-0.1-2.4h1.3l0.1,1.5c0.3-0.6,0.7-1,1.2-1.3c0.5-0.3,1.1-0.5,1.8-0.5
				C67.5,1025.3,68.6,1026.4,68.6,1028.7z"/>
			<path class="st2" d="M72.6,1033.6c-0.6-0.4-1.1-0.9-1.4-1.5s-0.5-1.4-0.5-2.3s0.2-1.7,0.5-2.3c0.3-0.7,0.8-1.2,1.5-1.6
				c0.6-0.4,1.4-0.6,2.2-0.6c0.6,0,1.1,0.1,1.7,0.3c0.5,0.2,1,0.5,1.3,0.8l-0.5,1c-0.4-0.3-0.8-0.6-1.2-0.7
				c-0.4-0.2-0.8-0.2-1.2-0.2c-0.9,0-1.6,0.3-2.1,0.9s-0.7,1.4-0.7,2.4s0.2,1.8,0.7,2.4s1.2,0.9,2.1,0.9c0.4,0,0.8-0.1,1.2-0.2
				c0.4-0.2,0.8-0.4,1.2-0.7l0.5,1c-0.4,0.3-0.8,0.6-1.4,0.8c-0.5,0.2-1.1,0.3-1.7,0.3C73.9,1034.2,73.2,1034,72.6,1033.6z"/>
			<path class="st2" d="M87.1,1025.5l-4,9.3c-0.4,1-0.9,1.7-1.6,2.1c-0.6,0.5-1.4,0.8-2.3,0.9l-0.3-1.1c0.8-0.2,1.4-0.4,1.8-0.7
				c0.4-0.3,0.8-0.8,1-1.4l0.3-0.8l-3.6-8.5h1.4l2.9,7l2.9-7h1.5V1025.5z"/>
			<path class="st2" d="M101.1,1030.9h-6.3l-1.3,3.1H92l5.3-12.1h1.2l5.3,12.1h-1.4L101.1,1030.9z M100.6,1029.8l-2.7-6.2l-2.7,6.2
				H100.6z"/>
			<path class="st2" d="M112.6,1025.5v8.5h-1.3v-1.5c-0.3,0.5-0.7,0.9-1.1,1.2c-0.5,0.3-1,0.4-1.6,0.4c-1,0-1.8-0.3-2.3-0.8
				c-0.5-0.6-0.8-1.4-0.8-2.5v-5.3h1.4v5.3c0,0.8,0.2,1.3,0.5,1.7c0.3,0.4,0.8,0.5,1.4,0.5c0.8,0,1.4-0.2,1.8-0.7
				c0.5-0.5,0.7-1.1,0.7-1.9v-4.8L112.6,1025.5L112.6,1025.5z"/>
			<path class="st2" d="M117.1,1026.6v4.7c0,0.6,0.1,1.1,0.4,1.3c0.3,0.3,0.6,0.4,1.1,0.4c0.3,0,0.6-0.1,0.9-0.2v1.2
				c-0.4,0.1-0.7,0.2-1.2,0.2c-0.8,0-1.5-0.2-1.9-0.7c-0.5-0.5-0.7-1.1-0.7-2v-4.9H114v-1.1h1.7v-2.2l1.4-0.5v2.7h2.4v1.1H117.1z"/>
			<path class="st2" d="M128.5,1028.7v5.4h-1.4v-5.3c0-0.8-0.2-1.4-0.5-1.7c-0.3-0.4-0.8-0.6-1.5-0.6c-0.8,0-1.4,0.2-1.9,0.7
				s-0.7,1.1-0.7,2v4.9h-1.4v-12.5h1.4v5.3c0.3-0.5,0.7-0.9,1.2-1.2c0.5-0.3,1.1-0.4,1.7-0.4
				C127.5,1025.3,128.5,1026.4,128.5,1028.7z"/>
			<path class="st2" d="M132.5,1033.6c-0.6-0.4-1.1-0.9-1.4-1.5s-0.5-1.4-0.5-2.3s0.2-1.7,0.5-2.3s0.8-1.2,1.4-1.5
				c0.6-0.4,1.3-0.5,2.1-0.5s1.5,0.2,2.1,0.5c0.6,0.4,1.1,0.9,1.4,1.5s0.5,1.4,0.5,2.3s-0.2,1.7-0.5,2.3s-0.8,1.2-1.4,1.5
				c-0.6,0.4-1.3,0.5-2.1,0.5C133.8,1034.2,133.1,1034,132.5,1033.6z M136.6,1032.2c0.5-0.6,0.7-1.4,0.7-2.5c0-1-0.2-1.8-0.7-2.4
				s-1.1-0.9-1.9-0.9c-0.8,0-1.5,0.3-2,0.9s-0.7,1.4-0.7,2.4c0,1.1,0.2,1.9,0.7,2.5s1.1,0.8,2,0.8S136.2,1032.7,136.6,1032.2z"/>
			<path class="st2" d="M145.6,1025.4v1.3c-0.3-0.1-0.6-0.1-0.9-0.1c-0.8,0-1.4,0.3-1.8,0.8c-0.4,0.5-0.6,1.1-0.6,1.9v4.9h-1.4v-6.1
				c0-0.9,0-1.7-0.1-2.4h1.3l0.1,1.6c0.2-0.6,0.6-1,1-1.3c0.5-0.3,1-0.5,1.6-0.5C145.1,1025.3,145.3,1025.3,145.6,1025.4z"/>
			<path class="st2" d="M148.5,1021.9v1.6h-1.7v-1.6H148.5z M147,1025.5h1.4v8.5H147V1025.5z"/>
			<path class="st2" d="M157.8,1033v1.1h-7.2v-1l5.4-6.5h-5.2v-1.1h6.8v1l-5.3,6.5H157.8z"/>
			<path class="st2" d="M167.1,1025.5v8.5h-1.4v-1.5c-0.2,0.5-0.6,0.9-1.1,1.2c-0.5,0.3-1.1,0.4-1.8,0.4c-0.8,0-1.4-0.2-2-0.5
				c-0.6-0.4-1-0.9-1.3-1.5c-0.3-0.7-0.5-1.4-0.5-2.3s0.2-1.7,0.5-2.3c0.3-0.7,0.8-1.2,1.3-1.6c0.6-0.4,1.2-0.6,2-0.6
				c0.7,0,1.2,0.1,1.7,0.4s0.9,0.7,1.1,1.2v-1.5h1.5V1025.5z M165.1,1032.2c0.5-0.6,0.7-1.4,0.7-2.4s-0.2-1.9-0.7-2.4
				c-0.5-0.6-1.1-0.8-1.9-0.8c-0.8,0-1.5,0.3-2,0.9s-0.7,1.4-0.7,2.4s0.2,1.8,0.7,2.4s1.1,0.8,2,0.8
				C164,1033,164.7,1032.7,165.1,1032.2z"/>
			<path class="st2" d="M171.6,1026.6v4.7c0,0.6,0.1,1.1,0.4,1.3s0.6,0.4,1.1,0.4c0.3,0,0.6-0.1,0.9-0.2v1.2
				c-0.4,0.1-0.7,0.2-1.2,0.2c-0.8,0-1.5-0.2-1.9-0.7c-0.5-0.5-0.7-1.1-0.7-2v-4.9h-1.7v-1.1h1.7v-2.2l1.4-0.5v2.7h2.4v1.1H171.6z"
				/>
			<path class="st2" d="M177.3,1021.9v1.6h-1.7v-1.6H177.3z M175.7,1025.5h1.4v8.5h-1.4V1025.5z"/>
			<path class="st2" d="M181.2,1033.6c-0.6-0.4-1.1-0.9-1.4-1.5s-0.5-1.4-0.5-2.3s0.2-1.7,0.5-2.3s0.8-1.2,1.4-1.5
				c0.6-0.4,1.3-0.5,2.1-0.5s1.5,0.2,2.1,0.5c0.6,0.4,1.1,0.9,1.4,1.5s0.5,1.4,0.5,2.3s-0.2,1.7-0.5,2.3s-0.8,1.2-1.4,1.5
				c-0.6,0.4-1.3,0.5-2.1,0.5S181.8,1034,181.2,1033.6z M185.3,1032.2c0.5-0.6,0.7-1.4,0.7-2.5c0-1-0.2-1.8-0.7-2.4
				s-1.1-0.9-1.9-0.9c-0.8,0-1.5,0.3-2,0.9s-0.7,1.4-0.7,2.4c0,1.1,0.2,1.9,0.7,2.5s1.1,0.8,2,0.8S184.8,1032.7,185.3,1032.2z"/>
			<path class="st2" d="M196.8,1028.7v5.4h-1.4v-5.3c0-0.8-0.2-1.4-0.5-1.7c-0.3-0.4-0.8-0.6-1.5-0.6c-0.8,0-1.4,0.2-1.9,0.7
				s-0.7,1.1-0.7,2v4.9h-1.4v-6.1c0-0.9,0-1.7-0.1-2.4h1.3l0.1,1.5c0.3-0.6,0.7-1,1.2-1.3s1.1-0.5,1.8-0.5
				C195.8,1025.3,196.8,1026.4,196.8,1028.7z"/>
			<path class="st2" d="M204,1022h4.8c1.2,0,2.2,0.3,2.9,0.9s1,1.4,1,2.5s-0.4,1.9-1.1,2.5c-0.7,0.6-1.7,0.9-2.9,0.9h-3.4v5.3H204
				V1022z M208.7,1027.6c0.9,0,1.6-0.2,2-0.6c0.5-0.4,0.7-0.9,0.7-1.7s-0.2-1.3-0.7-1.7c-0.5-0.4-1.1-0.6-2-0.6h-3.3v4.5
				L208.7,1027.6L208.7,1027.6z"/>
			<path class="st2" d="M219.5,1025.4v1.3c-0.3-0.1-0.6-0.1-0.9-0.1c-0.8,0-1.4,0.3-1.8,0.8c-0.4,0.5-0.6,1.1-0.6,1.9v4.9h-1.4v-6.1
				c0-0.9,0-1.7-0.1-2.4h1.3l0.1,1.6c0.2-0.6,0.6-1,1-1.3c0.5-0.3,1-0.5,1.6-0.5C219,1025.3,219.3,1025.3,219.5,1025.4z"/>
			<path class="st2" d="M222.1,1033.6c-0.6-0.4-1.1-0.9-1.4-1.5s-0.5-1.4-0.5-2.3s0.2-1.7,0.5-2.3s0.8-1.2,1.4-1.5
				c0.6-0.4,1.3-0.5,2.1-0.5s1.5,0.2,2.1,0.5c0.6,0.4,1.1,0.9,1.4,1.5s0.5,1.4,0.5,2.3s-0.2,1.7-0.5,2.3s-0.8,1.2-1.4,1.5
				c-0.6,0.4-1.3,0.5-2.1,0.5S222.7,1034,222.1,1033.6z M226.2,1032.2c0.5-0.6,0.7-1.4,0.7-2.5c0-1-0.2-1.8-0.7-2.4
				s-1.1-0.9-1.9-0.9c-0.8,0-1.5,0.3-2,0.9s-0.7,1.4-0.7,2.4c0,1.1,0.2,1.9,0.7,2.5s1.1,0.8,2,0.8S225.7,1032.7,226.2,1032.2z"/>
			<path class="st2" d="M231.8,1033.6c-0.6-0.4-1.1-0.9-1.4-1.5s-0.5-1.4-0.5-2.3s0.2-1.7,0.5-2.3c0.3-0.7,0.8-1.2,1.5-1.6
				c0.6-0.4,1.4-0.6,2.2-0.6c0.6,0,1.1,0.1,1.7,0.3c0.5,0.2,1,0.5,1.3,0.8l-0.5,1c-0.4-0.3-0.8-0.6-1.2-0.7
				c-0.4-0.2-0.8-0.2-1.2-0.2c-0.9,0-1.6,0.3-2.1,0.9s-0.7,1.4-0.7,2.4s0.2,1.8,0.7,2.4s1.2,0.9,2.1,0.9c0.4,0,0.8-0.1,1.2-0.2
				s0.8-0.4,1.2-0.7l0.5,1c-0.4,0.3-0.8,0.6-1.4,0.8c-0.5,0.2-1.1,0.3-1.7,0.3C233.2,1034.2,232.5,1034,231.8,1033.6z"/>
			<path class="st2" d="M246,1029.7h-6.3c0,1.1,0.3,1.9,0.8,2.5s1.2,0.8,2.1,0.8c1,0,1.9-0.3,2.8-1l0.5,1c-0.4,0.4-0.9,0.6-1.4,0.8
				c-0.6,0.2-1.2,0.3-1.8,0.3c-1.3,0-2.4-0.4-3.1-1.2c-0.8-0.8-1.1-1.9-1.1-3.2c0-0.9,0.2-1.6,0.5-2.3c0.3-0.7,0.8-1.2,1.4-1.6
				c0.6-0.4,1.3-0.6,2.1-0.6c1.1,0,2,0.4,2.7,1.1c0.6,0.7,1,1.8,1,3.1v0.3H246z M240.6,1027c-0.4,0.4-0.7,1-0.9,1.8h5
				c-0.1-0.8-0.3-1.4-0.7-1.8s-1-0.6-1.7-0.6S241.1,1026.6,240.6,1027z"/>
			<path class="st2" d="M247.5,1033.1l0.5-1c0.5,0.4,0.9,0.6,1.4,0.8c0.5,0.2,1,0.2,1.6,0.2s1.1-0.1,1.5-0.3s0.5-0.5,0.5-1
				c0-0.3-0.1-0.6-0.3-0.8c-0.2-0.2-0.6-0.4-1.1-0.5l-1.4-0.3c-0.7-0.2-1.3-0.4-1.7-0.8s-0.6-0.9-0.6-1.5c0-0.7,0.3-1.4,0.9-1.8
				c0.6-0.5,1.4-0.7,2.4-0.7c0.6,0,1.2,0.1,1.7,0.3c0.5,0.2,1,0.5,1.3,0.8l-0.5,1c-0.8-0.7-1.7-1-2.6-1c-0.6,0-1.1,0.1-1.4,0.3
				c-0.3,0.2-0.5,0.6-0.5,1s0.1,0.6,0.3,0.8c0.2,0.2,0.5,0.4,1,0.5l1.4,0.4c0.8,0.2,1.4,0.5,1.8,0.8s0.6,0.9,0.6,1.5
				c0,0.7-0.3,1.3-0.9,1.8s-1.4,0.7-2.4,0.7C249.5,1034.2,248.4,1033.8,247.5,1033.1z"/>
			<path class="st2" d="M256,1033.1l0.5-1c0.5,0.4,0.9,0.6,1.4,0.8c0.5,0.2,1,0.2,1.6,0.2s1.1-0.1,1.5-0.3s0.5-0.5,0.5-1
				c0-0.3-0.1-0.6-0.3-0.8c-0.2-0.2-0.6-0.4-1.1-0.5l-1.4-0.3c-0.7-0.2-1.3-0.4-1.7-0.8s-0.6-0.9-0.6-1.5c0-0.7,0.3-1.4,0.9-1.8
				c0.6-0.5,1.4-0.7,2.4-0.7c0.6,0,1.2,0.1,1.7,0.3s1,0.5,1.3,0.8l-0.5,1c-0.8-0.7-1.7-1-2.6-1c-0.6,0-1.1,0.1-1.4,0.3
				c-0.3,0.2-0.5,0.6-0.5,1s0.1,0.6,0.3,0.8c0.2,0.2,0.5,0.4,1,0.5l1.4,0.4c0.8,0.2,1.4,0.5,1.8,0.8s0.6,0.9,0.6,1.5
				c0,0.7-0.3,1.3-0.9,1.8c-0.6,0.4-1.4,0.7-2.4,0.7C257.9,1034.2,256.8,1033.8,256,1033.1z"/>
		</g>
	</g>
	<g>
		<g class="st4">
			<path class="st3" d="M50.8,874.2h7.5v1.2h-6.1v4.2H58v1.2h-5.8v5.6h-1.4V874.2z"/>
			<path class="st3" d="M67.1,877.7v8.5h-1.3v-1.5c-0.3,0.5-0.7,0.9-1.1,1.2c-0.5,0.3-1,0.4-1.6,0.4c-1,0-1.8-0.3-2.3-0.8
				c-0.5-0.6-0.8-1.4-0.8-2.5v-5.3h1.4v5.3c0,0.8,0.2,1.3,0.5,1.7s0.8,0.5,1.4,0.5c0.8,0,1.4-0.2,1.8-0.7c0.5-0.5,0.7-1.1,0.7-1.9
				v-4.8h1.3V877.7z"/>
			<path class="st3" d="M69.8,873.8h1.4v12.5h-1.4V873.8z"/>
			<path class="st3" d="M73.8,873.8h1.4v12.5h-1.4V873.8z"/>
			<path class="st3" d="M81.8,884.9l0.5-1.1c0.6,0.5,1.2,0.9,1.8,1.1c0.6,0.2,1.3,0.3,2.2,0.3c1,0,1.7-0.2,2.2-0.6
				c0.5-0.4,0.8-0.9,0.8-1.6c0-0.4-0.1-0.7-0.4-1s-0.6-0.5-1-0.6s-1-0.3-1.7-0.5c-0.9-0.2-1.7-0.4-2.3-0.7c-0.6-0.2-1.1-0.6-1.5-1
				s-0.6-1-0.6-1.8c0-0.7,0.2-1.3,0.5-1.8s0.9-0.9,1.5-1.2c0.7-0.3,1.4-0.4,2.3-0.4c0.8,0,1.6,0.1,2.3,0.4c0.7,0.3,1.3,0.6,1.8,1.1
				l-0.5,1.1c-0.6-0.5-1.1-0.8-1.7-1.1c-0.6-0.2-1.2-0.3-1.9-0.3c-0.9,0-1.7,0.2-2.2,0.6c-0.5,0.4-0.8,1-0.8,1.7
				c0,0.6,0.2,1.1,0.7,1.4c0.5,0.3,1.2,0.6,2.1,0.8c1,0.2,1.9,0.5,2.5,0.7s1.1,0.5,1.5,1c0.4,0.4,0.6,1,0.6,1.7s-0.2,1.3-0.5,1.8
				c-0.4,0.5-0.9,0.9-1.6,1.2s-1.5,0.4-2.4,0.4C84.4,886.4,82.9,885.9,81.8,884.9z"/>
			<path class="st3" d="M100,882h-6.3c0,1.1,0.3,1.9,0.8,2.5s1.2,0.8,2.1,0.8c1,0,1.9-0.3,2.8-1l0.5,1c-0.4,0.4-0.9,0.6-1.4,0.8
				c-0.6,0.2-1.2,0.3-1.8,0.3c-1.3,0-2.4-0.4-3.1-1.2c-0.8-0.8-1.1-1.9-1.1-3.2c0-0.9,0.2-1.6,0.5-2.3s0.8-1.2,1.4-1.6
				c0.6-0.4,1.3-0.6,2.1-0.6c1.1,0,2,0.4,2.7,1.1s1,1.8,1,3.1v0.3H100z M94.7,879.2c-0.4,0.4-0.7,1-0.9,1.8h5
				c-0.1-0.8-0.3-1.4-0.7-1.8c-0.4-0.4-1-0.6-1.7-0.6S95.1,878.8,94.7,879.2z"/>
			<path class="st3" d="M103.5,885.8c-0.6-0.4-1.1-0.9-1.4-1.5s-0.5-1.4-0.5-2.3c0-0.9,0.2-1.7,0.5-2.3c0.3-0.7,0.8-1.2,1.5-1.6
				c0.6-0.4,1.4-0.6,2.2-0.6c0.6,0,1.1,0.1,1.7,0.3c0.5,0.2,1,0.5,1.3,0.8l-0.5,1c-0.4-0.3-0.8-0.6-1.2-0.7
				c-0.4-0.2-0.8-0.2-1.2-0.2c-0.9,0-1.6,0.3-2.1,0.9c-0.5,0.6-0.7,1.4-0.7,2.4s0.2,1.8,0.7,2.4c0.5,0.6,1.2,0.9,2.1,0.9
				c0.4,0,0.8-0.1,1.2-0.2c0.4-0.2,0.8-0.4,1.2-0.7l0.5,1c-0.4,0.3-0.8,0.6-1.4,0.8c-0.5,0.2-1.1,0.3-1.7,0.3
				C104.9,886.4,104.1,886.2,103.5,885.8z"/>
			<path class="st3" d="M117.7,877.7v8.5h-1.3v-1.5c-0.3,0.5-0.7,0.9-1.1,1.2c-0.5,0.3-1,0.4-1.6,0.4c-1,0-1.8-0.3-2.3-0.8
				c-0.5-0.6-0.8-1.4-0.8-2.5v-5.3h1.4v5.3c0,0.8,0.2,1.3,0.5,1.7s0.8,0.5,1.4,0.5c0.8,0,1.4-0.2,1.8-0.7c0.5-0.5,0.7-1.1,0.7-1.9
				v-4.8h1.3V877.7z"/>
			<path class="st3" d="M125.1,877.6v1.3c-0.3-0.1-0.6-0.1-0.9-0.1c-0.8,0-1.4,0.3-1.8,0.8s-0.6,1.1-0.6,1.9v4.9h-1.4v-6.1
				c0-0.9,0-1.7-0.1-2.4h1.3l0.1,1.6c0.2-0.6,0.6-1,1-1.3c0.5-0.3,1-0.5,1.6-0.5C124.6,877.5,124.8,877.6,125.1,877.6z"/>
			<path class="st3" d="M128,874.1v1.6h-1.7v-1.6H128z M126.5,877.7h1.4v8.5h-1.4V877.7z"/>
			<path class="st3" d="M132.3,878.8v4.7c0,0.6,0.1,1.1,0.4,1.3c0.3,0.3,0.6,0.4,1.1,0.4c0.3,0,0.6-0.1,0.9-0.2v1.2
				c-0.4,0.1-0.7,0.2-1.2,0.2c-0.8,0-1.5-0.2-1.9-0.7c-0.5-0.5-0.7-1.1-0.7-2v-4.9h-1.7v-1.1h1.7v-2.2l1.4-0.5v2.7h2.4v1.1H132.3z"
				/>
			<path class="st3" d="M144,877.7l-4,9.3c-0.4,1-0.9,1.7-1.6,2.1c-0.6,0.5-1.4,0.8-2.3,0.9l-0.3-1.1c0.8-0.2,1.4-0.4,1.8-0.7
				c0.4-0.3,0.8-0.8,1-1.4l0.3-0.8l-3.6-8.5h1.4l2.9,7l2.9-7h1.5V877.7z"/>
			<path class="st3" d="M158.1,883.2h-6.3l-1.3,3.1H149l5.3-12.1h1.2l5.3,12.1h-1.4L158.1,883.2z M157.6,882l-2.7-6.2l-2.7,6.2
				H157.6z"/>
			<path class="st3" d="M161.8,885.3l0.5-1c0.5,0.4,0.9,0.6,1.4,0.8s1,0.2,1.6,0.2s1.1-0.1,1.5-0.3s0.5-0.5,0.5-1
				c0-0.3-0.1-0.6-0.3-0.8s-0.6-0.4-1.1-0.5l-1.4-0.3c-0.7-0.2-1.3-0.4-1.7-0.8s-0.6-0.9-0.6-1.5c0-0.7,0.3-1.4,0.9-1.8
				c0.6-0.5,1.4-0.7,2.4-0.7c0.6,0,1.2,0.1,1.7,0.3s1,0.5,1.3,0.8l-0.5,1c-0.8-0.7-1.7-1-2.6-1c-0.6,0-1.1,0.1-1.4,0.3
				c-0.3,0.2-0.5,0.6-0.5,1s0.1,0.6,0.3,0.8s0.5,0.4,1,0.5l1.4,0.4c0.8,0.2,1.4,0.5,1.8,0.8s0.6,0.9,0.6,1.5c0,0.7-0.3,1.3-0.9,1.8
				c-0.6,0.4-1.4,0.7-2.4,0.7C163.8,886.4,162.7,886,161.8,885.3z"/>
			<path class="st3" d="M170.2,885.3l0.5-1c0.5,0.4,0.9,0.6,1.4,0.8s1,0.2,1.6,0.2s1.1-0.1,1.5-0.3s0.5-0.5,0.5-1
				c0-0.3-0.1-0.6-0.3-0.8s-0.6-0.4-1.1-0.5l-1.4-0.3c-0.7-0.2-1.3-0.4-1.7-0.8c-0.4-0.4-0.6-0.9-0.6-1.5c0-0.7,0.3-1.4,0.9-1.8
				c0.6-0.5,1.4-0.7,2.4-0.7c0.6,0,1.2,0.1,1.7,0.3s1,0.5,1.3,0.8l-0.5,1c-0.8-0.7-1.7-1-2.6-1c-0.6,0-1.1,0.1-1.4,0.3
				c-0.3,0.2-0.5,0.6-0.5,1s0.1,0.6,0.3,0.8s0.5,0.4,1,0.5l1.4,0.4c0.8,0.2,1.4,0.5,1.8,0.8s0.6,0.9,0.6,1.5c0,0.7-0.3,1.3-0.9,1.8
				c-0.6,0.4-1.4,0.7-2.4,0.7C172.2,886.4,171.1,886,170.2,885.3z"/>
			<path class="st3" d="M186.3,882H180c0,1.1,0.3,1.9,0.8,2.5s1.2,0.8,2.1,0.8c1,0,1.9-0.3,2.8-1l0.5,1c-0.4,0.4-0.9,0.6-1.4,0.8
				c-0.6,0.2-1.2,0.3-1.8,0.3c-1.3,0-2.4-0.4-3.1-1.2c-0.8-0.8-1.1-1.9-1.1-3.2c0-0.9,0.2-1.6,0.5-2.3s0.8-1.2,1.4-1.6
				c0.6-0.4,1.3-0.6,2.1-0.6c1.1,0,2,0.4,2.7,1.1c0.6,0.7,1,1.8,1,3.1v0.3H186.3z M181,879.2c-0.4,0.4-0.7,1-0.9,1.8h5
				c-0.1-0.8-0.3-1.4-0.7-1.8c-0.4-0.4-1-0.6-1.7-0.6S181.4,878.8,181,879.2z"/>
			<path class="st3" d="M187.9,885.3l0.5-1c0.5,0.4,0.9,0.6,1.4,0.8s1,0.2,1.6,0.2s1.1-0.1,1.5-0.3s0.5-0.5,0.5-1
				c0-0.3-0.1-0.6-0.3-0.8s-0.6-0.4-1.1-0.5l-1.4-0.3c-0.7-0.2-1.3-0.4-1.7-0.8c-0.4-0.4-0.6-0.9-0.6-1.5c0-0.7,0.3-1.4,0.9-1.8
				c0.6-0.5,1.4-0.7,2.4-0.7c0.6,0,1.2,0.1,1.7,0.3s1,0.5,1.3,0.8l-0.5,1c-0.8-0.7-1.7-1-2.6-1c-0.6,0-1.1,0.1-1.4,0.3
				c-0.3,0.2-0.5,0.6-0.5,1s0.1,0.6,0.3,0.8s0.5,0.4,1,0.5l1.4,0.4c0.8,0.2,1.4,0.5,1.8,0.8s0.6,0.9,0.6,1.5c0,0.7-0.3,1.3-0.9,1.8
				s-1.4,0.7-2.4,0.7C189.9,886.4,188.7,886,187.9,885.3z"/>
			<path class="st3" d="M196.3,885.3l0.5-1c0.5,0.4,0.9,0.6,1.4,0.8s1,0.2,1.6,0.2s1.1-0.1,1.5-0.3s0.5-0.5,0.5-1
				c0-0.3-0.1-0.6-0.3-0.8s-0.6-0.4-1.1-0.5l-1.4-0.3c-0.7-0.2-1.3-0.4-1.7-0.8s-0.6-0.9-0.6-1.5c0-0.7,0.3-1.4,0.9-1.8
				c0.6-0.5,1.4-0.7,2.4-0.7c0.6,0,1.2,0.1,1.7,0.3s1,0.5,1.3,0.8l-0.5,1c-0.8-0.7-1.7-1-2.6-1c-0.6,0-1.1,0.1-1.4,0.3
				c-0.3,0.2-0.5,0.6-0.5,1s0.1,0.6,0.3,0.8s0.5,0.4,1,0.5l1.4,0.4c0.8,0.2,1.4,0.5,1.8,0.8s0.6,0.9,0.6,1.5c0,0.7-0.3,1.3-0.9,1.8
				s-1.4,0.7-2.4,0.7C198.3,886.4,197.1,886,196.3,885.3z"/>
			<path class="st3" d="M217.6,880.9v5.4h-1.4V881c0-0.8-0.1-1.4-0.4-1.7c-0.3-0.4-0.7-0.5-1.3-0.5c-0.7,0-1.3,0.2-1.7,0.7
				s-0.6,1.1-0.6,2v4.9h-1.4V881c0-0.8-0.1-1.4-0.4-1.7c-0.3-0.4-0.7-0.6-1.4-0.6s-1.3,0.2-1.7,0.7s-0.6,1.1-0.6,2v4.9h-1.4v-6.1
				c0-0.9,0-1.7-0.1-2.4h1.3l0.1,1.5c0.2-0.5,0.6-1,1.1-1.3s1-0.4,1.6-0.4c0.7,0,1.2,0.1,1.7,0.4s0.7,0.7,1,1.3
				c0.3-0.5,0.6-0.9,1.1-1.2s1.1-0.5,1.7-0.5C216.6,877.5,217.6,878.7,217.6,880.9z"/>
			<path class="st3" d="M227.3,882H221c0,1.1,0.3,1.9,0.8,2.5s1.2,0.8,2.1,0.8c1,0,1.9-0.3,2.8-1l0.5,1c-0.4,0.4-0.9,0.6-1.4,0.8
				c-0.6,0.2-1.2,0.3-1.8,0.3c-1.3,0-2.4-0.4-3.1-1.2c-0.8-0.8-1.1-1.9-1.1-3.2c0-0.9,0.2-1.6,0.5-2.3s0.8-1.2,1.4-1.6
				c0.6-0.4,1.3-0.6,2.1-0.6c1.1,0,2,0.4,2.7,1.1c0.6,0.7,1,1.8,1,3.1v0.3H227.3z M222,879.2c-0.4,0.4-0.7,1-0.9,1.8h5
				c-0.1-0.8-0.3-1.4-0.7-1.8c-0.4-0.4-1-0.6-1.7-0.6S222.4,878.8,222,879.2z"/>
			<path class="st3" d="M236.7,880.9v5.4h-1.4V881c0-0.8-0.2-1.4-0.5-1.7c-0.3-0.4-0.8-0.6-1.5-0.6c-0.8,0-1.4,0.2-1.9,0.7
				s-0.7,1.1-0.7,2v4.9h-1.4v-6.1c0-0.9,0-1.7-0.1-2.4h1.3l0.1,1.5c0.3-0.6,0.7-1,1.2-1.3s1.1-0.5,1.8-0.5
				C235.7,877.5,236.7,878.7,236.7,880.9z"/>
			<path class="st3" d="M241.2,878.8v4.7c0,0.6,0.1,1.1,0.4,1.3c0.3,0.3,0.6,0.4,1.1,0.4c0.3,0,0.6-0.1,0.9-0.2v1.2
				c-0.4,0.1-0.7,0.2-1.2,0.2c-0.8,0-1.5-0.2-1.9-0.7c-0.5-0.5-0.7-1.1-0.7-2v-4.9h-1.7v-1.1h1.7v-2.2l1.4-0.5v2.7h2.4v1.1H241.2z"
				/>
		</g>
	</g>
	<g>
		<g class="st4">
			<path class="st3" d="M43.3,1196.6c0.5,0.1,0.9,0.1,1.2,0.1c0.6,0,1-0.2,1.2-0.5s0.3-0.9,0.3-1.7v-11.9h1.4v11.9
				c0,1.2-0.2,2-0.6,2.5c-0.4,0.5-1.1,0.8-2.1,0.8c-0.4,0-0.9,0-1.4-0.1C43.3,1197.7,43.3,1196.6,43.3,1196.6z"/>
			<path class="st3" d="M58.4,1191.7h-6.3l-1.3,3.1h-1.4l5.3-12.1h1.2l5.3,12.1h-1.4L58.4,1191.7z M57.9,1190.5l-2.7-6.2l-2.7,6.2
				H57.9z"/>
			<path class="st3" d="M71.4,1189.6c0.4,0.5,0.6,1.1,0.6,1.9c0,1.1-0.4,1.9-1.1,2.4c-0.7,0.6-1.7,0.9-3,0.9h-5v-12.1h4.9
				c1.2,0,2.2,0.3,2.9,0.8c0.7,0.5,1,1.3,1,2.3c0,0.6-0.2,1.2-0.5,1.7s-0.8,0.8-1.4,1C70.5,1188.8,71,1189.1,71.4,1189.6z
				 M64.3,1188.1h3.3c0.9,0,1.6-0.2,2.1-0.5c0.5-0.4,0.7-0.9,0.7-1.6c0-1.4-0.9-2.1-2.8-2.1h-3.3
				C64.3,1183.9,64.3,1188.1,64.3,1188.1z M70,1193.1c0.4-0.4,0.7-0.9,0.7-1.6c0-1.5-0.9-2.2-2.8-2.2h-3.5v4.4h3.5
				C68.8,1193.7,69.5,1193.5,70,1193.1z"/>
			<path class="st3" d="M86.9,1191.7h-6.3l-1.3,3.1h-1.4l5.3-12.1h1.2l5.3,12.1h-1.4L86.9,1191.7z M86.4,1190.5l-2.7-6.2l-2.7,6.2
				H86.4z"/>
			<path class="st3" d="M98.4,1186.3v8.5H97v-1.5c-0.3,0.5-0.7,0.9-1.1,1.2c-0.5,0.3-1,0.4-1.6,0.4c-1,0-1.8-0.3-2.3-0.8
				c-0.5-0.6-0.8-1.4-0.8-2.5v-5.3h1.4v5.3c0,0.8,0.2,1.3,0.5,1.7c0.3,0.4,0.8,0.5,1.4,0.5c0.8,0,1.4-0.2,1.8-0.7
				c0.5-0.5,0.7-1.1,0.7-1.9v-4.8L98.4,1186.3L98.4,1186.3z"/>
			<path class="st3" d="M102.9,1187.4v4.7c0,0.6,0.1,1.1,0.4,1.3c0.3,0.3,0.6,0.4,1.1,0.4c0.3,0,0.6-0.1,0.9-0.2v1.2
				c-0.4,0.1-0.7,0.2-1.2,0.2c-0.8,0-1.5-0.2-1.9-0.7c-0.5-0.5-0.7-1.1-0.7-2v-4.9h-1.7v-1.1h1.7v-2.2l1.4-0.5v2.7h2.4v1.1H102.9z"
				/>
			<path class="st3" d="M114.3,1189.4v5.4h-1.4v-5.3c0-0.8-0.2-1.4-0.5-1.7c-0.3-0.4-0.8-0.6-1.5-0.6c-0.8,0-1.4,0.2-1.9,0.7
				s-0.7,1.1-0.7,2v4.9H107v-12.5h1.4v5.3c0.3-0.5,0.7-0.9,1.2-1.2c0.5-0.3,1.1-0.4,1.7-0.4C113.3,1186.1,114.3,1187.2,114.3,1189.4
				z"/>
			<path class="st3" d="M118.3,1194.4c-0.6-0.4-1.1-0.9-1.4-1.5s-0.5-1.4-0.5-2.3s0.2-1.7,0.5-2.3s0.8-1.2,1.4-1.5
				c0.6-0.4,1.3-0.5,2.1-0.5c0.8,0,1.5,0.2,2.1,0.5c0.6,0.4,1.1,0.9,1.4,1.5s0.5,1.4,0.5,2.3s-0.2,1.7-0.5,2.3s-0.8,1.2-1.4,1.5
				c-0.6,0.4-1.3,0.5-2.1,0.5C119.6,1194.9,118.9,1194.7,118.3,1194.4z M122.4,1193c0.5-0.6,0.7-1.4,0.7-2.5c0-1-0.2-1.8-0.7-2.4
				s-1.1-0.9-1.9-0.9s-1.5,0.3-2,0.9s-0.7,1.4-0.7,2.4c0,1.1,0.2,1.9,0.7,2.5s1.1,0.8,2,0.8S121.9,1193.5,122.4,1193z"/>
			<path class="st3" d="M131.4,1186.2v1.3c-0.3-0.1-0.6-0.1-0.9-0.1c-0.8,0-1.4,0.3-1.8,0.8c-0.4,0.5-0.6,1.1-0.6,1.9v4.9h-1.4v-6.1
				c0-0.9,0-1.7-0.1-2.4h1.3l0.1,1.6c0.2-0.6,0.6-1,1-1.3c0.5-0.3,1-0.5,1.6-0.5C130.9,1186.1,131.1,1186.1,131.4,1186.2z"/>
			<path class="st3" d="M134.3,1182.7v1.6h-1.7v-1.6H134.3z M132.8,1186.3h1.4v8.5h-1.4V1186.3z"/>
			<path class="st3" d="M143.5,1193.7v1.1h-7.2v-1l5.4-6.5h-5.2v-1.1h6.8v1l-5.3,6.5H143.5z"/>
			<path class="st3" d="M152.9,1186.3v8.5h-1.4v-1.5c-0.2,0.5-0.6,0.9-1.1,1.2c-0.5,0.3-1.1,0.4-1.8,0.4c-0.8,0-1.4-0.2-2-0.5
				c-0.6-0.4-1-0.9-1.3-1.5c-0.3-0.7-0.5-1.4-0.5-2.3s0.2-1.7,0.5-2.3c0.3-0.7,0.8-1.2,1.3-1.6c0.6-0.4,1.2-0.6,2-0.6
				c0.7,0,1.3,0.1,1.7,0.4s0.9,0.7,1.1,1.2v-1.5h1.5V1186.3z M150.9,1192.9c0.5-0.6,0.7-1.4,0.7-2.4s-0.2-1.9-0.7-2.4
				c-0.5-0.6-1.1-0.8-1.9-0.8c-0.8,0-1.5,0.3-2,0.9s-0.7,1.4-0.7,2.4s0.2,1.8,0.7,2.4s1.1,0.8,2,0.8
				C149.8,1193.8,150.4,1193.5,150.9,1192.9z"/>
			<path class="st3" d="M157.4,1187.4v4.7c0,0.6,0.1,1.1,0.4,1.3c0.3,0.3,0.6,0.4,1.1,0.4c0.3,0,0.6-0.1,0.9-0.2v1.2
				c-0.4,0.1-0.7,0.2-1.2,0.2c-0.8,0-1.5-0.2-1.9-0.7c-0.5-0.5-0.7-1.1-0.7-2v-4.9h-1.7v-1.1h1.7v-2.2l1.4-0.5v2.7h2.4v1.1H157.4z"
				/>
			<path class="st3" d="M163.1,1182.7v1.6h-1.7v-1.6H163.1z M161.5,1186.3h1.4v8.5h-1.4V1186.3z"/>
			<path class="st3" d="M167,1194.4c-0.6-0.4-1.1-0.9-1.4-1.5s-0.5-1.4-0.5-2.3s0.2-1.7,0.5-2.3s0.8-1.2,1.4-1.5
				c0.6-0.4,1.3-0.5,2.1-0.5s1.5,0.2,2.1,0.5c0.6,0.4,1.1,0.9,1.4,1.5s0.5,1.4,0.5,2.3s-0.2,1.7-0.5,2.3s-0.8,1.2-1.4,1.5
				c-0.6,0.4-1.3,0.5-2.1,0.5S167.6,1194.7,167,1194.4z M171,1193c0.5-0.6,0.7-1.4,0.7-2.5c0-1-0.2-1.8-0.7-2.4s-1.1-0.9-1.9-0.9
				c-0.8,0-1.5,0.3-2,0.9s-0.7,1.4-0.7,2.4c0,1.1,0.2,1.9,0.7,2.5s1.1,0.8,2,0.8S170.6,1193.5,171,1193z"/>
			<path class="st3" d="M182.6,1189.4v5.4h-1.4v-5.3c0-0.8-0.2-1.4-0.5-1.7c-0.3-0.4-0.8-0.6-1.5-0.6c-0.8,0-1.4,0.2-1.9,0.7
				s-0.7,1.1-0.7,2v4.9h-1.4v-6.1c0-0.9,0-1.7-0.1-2.4h1.3l0.1,1.5c0.3-0.6,0.7-1,1.2-1.3s1.1-0.5,1.8-0.5
				C181.6,1186.1,182.6,1187.2,182.6,1189.4z"/>
			<path class="st3" d="M189.8,1182.7h4.8c1.2,0,2.2,0.3,2.9,0.9s1,1.4,1,2.5s-0.4,1.9-1.1,2.5c-0.7,0.6-1.7,0.9-2.9,0.9h-3.4v5.3
				h-1.4L189.8,1182.7L189.8,1182.7z M194.5,1188.3c0.9,0,1.6-0.2,2-0.6c0.5-0.4,0.7-0.9,0.7-1.7s-0.2-1.3-0.7-1.7
				c-0.5-0.4-1.1-0.6-2-0.6h-3.3v4.5L194.5,1188.3L194.5,1188.3z"/>
			<path class="st3" d="M205.3,1186.2v1.3c-0.3-0.1-0.6-0.1-0.9-0.1c-0.8,0-1.4,0.3-1.8,0.8c-0.4,0.5-0.6,1.1-0.6,1.9v4.9h-1.4v-6.1
				c0-0.9,0-1.7-0.1-2.4h1.3l0.1,1.6c0.2-0.6,0.6-1,1-1.3c0.5-0.3,1-0.5,1.6-0.5C204.8,1186.1,205,1186.1,205.3,1186.2z"/>
			<path class="st3" d="M207.9,1194.4c-0.6-0.4-1.1-0.9-1.4-1.5s-0.5-1.4-0.5-2.3s0.2-1.7,0.5-2.3s0.8-1.2,1.4-1.5
				c0.6-0.4,1.3-0.5,2.1-0.5s1.5,0.2,2.1,0.5c0.6,0.4,1.1,0.9,1.4,1.5s0.5,1.4,0.5,2.3s-0.2,1.7-0.5,2.3s-0.8,1.2-1.4,1.5
				c-0.6,0.4-1.3,0.5-2.1,0.5S208.5,1194.7,207.9,1194.4z M212,1193c0.5-0.6,0.7-1.4,0.7-2.5c0-1-0.2-1.8-0.7-2.4s-1.1-0.9-1.9-0.9
				c-0.8,0-1.5,0.3-2,0.9s-0.7,1.4-0.7,2.4c0,1.1,0.2,1.9,0.7,2.5s1.1,0.8,2,0.8S211.5,1193.5,212,1193z"/>
			<path class="st3" d="M217.6,1194.4c-0.6-0.4-1.1-0.9-1.4-1.5s-0.5-1.4-0.5-2.3s0.2-1.7,0.5-2.3c0.3-0.7,0.8-1.2,1.5-1.6
				c0.6-0.4,1.4-0.6,2.2-0.6c0.6,0,1.1,0.1,1.7,0.3c0.5,0.2,1,0.5,1.3,0.8l-0.5,1c-0.4-0.3-0.8-0.6-1.2-0.7
				c-0.4-0.2-0.8-0.2-1.2-0.2c-0.9,0-1.6,0.3-2.1,0.9s-0.7,1.4-0.7,2.4s0.2,1.8,0.7,2.4s1.2,0.9,2.1,0.9c0.4,0,0.8-0.1,1.2-0.2
				s0.8-0.4,1.2-0.7l0.5,1c-0.4,0.3-0.8,0.6-1.4,0.8c-0.5,0.2-1.1,0.3-1.7,0.3C219,1194.9,218.2,1194.7,217.6,1194.4z"/>
			<path class="st3" d="M231.8,1190.5h-6.3c0,1.1,0.3,1.9,0.8,2.5s1.2,0.8,2.1,0.8c1,0,1.9-0.3,2.8-1l0.5,1
				c-0.4,0.4-0.9,0.6-1.4,0.8c-0.6,0.2-1.2,0.3-1.8,0.3c-1.3,0-2.4-0.4-3.1-1.2c-0.8-0.8-1.1-1.9-1.1-3.2c0-0.9,0.2-1.6,0.5-2.3
				c0.3-0.7,0.8-1.2,1.4-1.6c0.6-0.4,1.3-0.6,2.1-0.6c1.1,0,2,0.4,2.7,1.1c0.6,0.7,1,1.8,1,3.1v0.3H231.8z M226.4,1187.8
				c-0.4,0.4-0.7,1-0.9,1.8h5c-0.1-0.8-0.3-1.4-0.7-1.8s-1-0.6-1.7-0.6S226.8,1187.4,226.4,1187.8z"/>
			<path class="st3" d="M233.3,1193.8l0.5-1c0.5,0.4,0.9,0.6,1.4,0.8c0.5,0.2,1,0.2,1.6,0.2s1.1-0.1,1.5-0.3s0.5-0.5,0.5-1
				c0-0.3-0.1-0.6-0.3-0.8c-0.2-0.2-0.6-0.4-1.1-0.5l-1.4-0.3c-0.7-0.2-1.3-0.4-1.7-0.8s-0.6-0.9-0.6-1.5c0-0.7,0.3-1.4,0.9-1.8
				c0.6-0.5,1.4-0.7,2.4-0.7c0.6,0,1.2,0.1,1.7,0.3s1,0.5,1.3,0.8l-0.5,1c-0.8-0.7-1.7-1-2.6-1c-0.6,0-1.1,0.1-1.4,0.3
				c-0.3,0.2-0.5,0.6-0.5,1s0.1,0.6,0.3,0.8c0.2,0.2,0.5,0.4,1,0.5l1.4,0.4c0.8,0.2,1.4,0.5,1.8,0.8s0.6,0.9,0.6,1.5
				c0,0.7-0.3,1.3-0.9,1.8c-0.6,0.4-1.4,0.7-2.4,0.7C235.3,1194.9,234.1,1194.6,233.3,1193.8z"/>
			<path class="st3" d="M241.7,1193.8l0.5-1c0.5,0.4,0.9,0.6,1.4,0.8c0.5,0.2,1,0.2,1.6,0.2s1.1-0.1,1.5-0.3s0.5-0.5,0.5-1
				c0-0.3-0.1-0.6-0.3-0.8c-0.2-0.2-0.6-0.4-1.1-0.5l-1.4-0.3c-0.7-0.2-1.3-0.4-1.7-0.8s-0.6-0.9-0.6-1.5c0-0.7,0.3-1.4,0.9-1.8
				c0.6-0.5,1.4-0.7,2.4-0.7c0.6,0,1.2,0.1,1.7,0.3c0.5,0.2,1,0.5,1.3,0.8l-0.5,1c-0.8-0.7-1.7-1-2.6-1c-0.6,0-1.1,0.1-1.4,0.3
				c-0.3,0.2-0.5,0.6-0.5,1s0.1,0.6,0.3,0.8c0.2,0.2,0.5,0.4,1,0.5l1.4,0.4c0.8,0.2,1.4,0.5,1.8,0.8s0.6,0.9,0.6,1.5
				c0,0.7-0.3,1.3-0.9,1.8s-1.4,0.7-2.4,0.7C243.7,1194.9,242.6,1194.6,241.7,1193.8z"/>
		</g>
	</g>
	<g class="st4">
		<path class="st6" d="M57.8,1346.9c0-3.2,2.4-5.4,5.7-5.4c1.8,0,3.3,0.7,4.3,1.9l-1.6,1.4c-0.7-0.8-1.6-1.2-2.6-1.2
			c-2,0-3.4,1.4-3.4,3.4s1.4,3.4,3.4,3.4c1,0,1.9-0.4,2.6-1.2l1.6,1.4c-1,1.2-2.5,1.9-4.3,1.9C60.2,1352.4,57.8,1350.1,57.8,1346.9z
			"/>
		<path class="st6" d="M68.4,1348.2c0-2.4,1.9-4.2,4.4-4.2c2.6,0,4.4,1.7,4.4,4.2c0,2.4-1.9,4.2-4.4,4.2
			C70.2,1352.3,68.4,1350.6,68.4,1348.2z M74.9,1348.2c0-1.4-0.9-2.2-2.1-2.2s-2.1,0.8-2.1,2.2s0.9,2.2,2.1,2.2
			C74,1350.4,74.9,1349.6,74.9,1348.2z"/>
		<path class="st6" d="M87,1347.6v4.6h-2.3v-4.3c0-1.3-0.6-1.9-1.6-1.9c-1.1,0-1.9,0.7-1.9,2.2v4h-2.3v-8.1H81v0.9
			c0.6-0.7,1.6-1.1,2.7-1.1C85.6,1344,87,1345.1,87,1347.6z"/>
		<path class="st6" d="M94.3,1351.8c-0.5,0.3-1.2,0.5-1.9,0.5c-1.9,0-3-1-3-2.9v-3.3h-1.2v-1.8h1.2v-2h2.3v2h2v1.8h-2v3.3
			c0,0.7,0.4,1.1,1,1.1c0.3,0,0.7-0.1,0.9-0.3L94.3,1351.8z"/>
		<path class="st6" d="M95.4,1341.7c0-0.7,0.6-1.3,1.5-1.3s1.5,0.5,1.5,1.3s-0.6,1.3-1.5,1.3S95.4,1342.4,95.4,1341.7z M95.6,1344.1
			H98v8.1h-2.3L95.6,1344.1L95.6,1344.1z"/>
		<path class="st6" d="M108.4,1347.6v4.6h-2.3v-4.3c0-1.3-0.6-1.9-1.6-1.9c-1.1,0-1.9,0.7-1.9,2.2v4h-2.3v-8.1h2.2v0.9
			c0.6-0.7,1.6-1.1,2.7-1.1C107,1344,108.4,1345.1,108.4,1347.6z"/>
		<path class="st6" d="M118.6,1344.1v8.1h-2.2v-1c-0.6,0.7-1.5,1.1-2.5,1.1c-2,0-3.4-1.1-3.4-3.6v-4.6h2.3v4.2
			c0,1.3,0.6,1.9,1.6,1.9c1.1,0,1.9-0.7,1.9-2.2v-4L118.6,1344.1L118.6,1344.1z"/>
		<path class="st6" d="M120.2,1348.2c0-2.4,1.9-4.2,4.4-4.2c2.6,0,4.4,1.7,4.4,4.2c0,2.4-1.9,4.2-4.4,4.2
			C122.1,1352.3,120.2,1350.6,120.2,1348.2z M126.7,1348.2c0-1.4-0.9-2.2-2.1-2.2s-2.1,0.8-2.1,2.2s0.9,2.2,2.1,2.2
			C125.8,1350.4,126.7,1349.6,126.7,1348.2z"/>
		<path class="st6" d="M138.7,1344.1v8.1h-2.2v-1c-0.6,0.7-1.5,1.1-2.5,1.1c-2,0-3.4-1.1-3.4-3.6v-4.6h2.3v4.2
			c0,1.3,0.6,1.9,1.6,1.9c1.1,0,1.9-0.7,1.9-2.2v-4L138.7,1344.1L138.7,1344.1z"/>
		<path class="st6" d="M140.1,1351.4l0.8-1.7c0.7,0.5,1.8,0.8,2.8,0.8c1.1,0,1.5-0.3,1.5-0.7c0-1.3-4.9,0-4.9-3.2
			c0-1.5,1.4-2.6,3.7-2.6c1.1,0,2.3,0.3,3.1,0.7l-0.8,1.7c-0.8-0.5-1.6-0.6-2.3-0.6c-1,0-1.5,0.3-1.5,0.7c0,1.4,4.9,0,4.9,3.2
			c0,1.5-1.4,2.6-3.8,2.6C142.2,1352.3,140.9,1351.9,140.1,1351.4z"/>
		<path class="st6" d="M162.8,1352.2v-6.3l-3.1,5.2h-1.1l-3.1-5v6.2h-2.3v-10.5h2l3.9,6.5l3.9-6.5h2v10.5L162.8,1352.2L162.8,1352.2
			z"/>
		<path class="st6" d="M166.8,1348.2c0-2.4,1.9-4.2,4.4-4.2s4.4,1.7,4.4,4.2c0,2.4-1.9,4.2-4.4,4.2S166.8,1350.6,166.8,1348.2z
			 M173.3,1348.2c0-1.4-0.9-2.2-2.1-2.2s-2.1,0.8-2.1,2.2s0.9,2.2,2.1,2.2S173.3,1349.6,173.3,1348.2z"/>
		<path class="st6" d="M185.4,1347.6v4.6h-2.3v-4.3c0-1.3-0.6-1.9-1.6-1.9c-1.1,0-1.9,0.7-1.9,2.2v4h-2.3v-8.1h2.2v0.9
			c0.6-0.7,1.6-1.1,2.7-1.1C184,1344,185.4,1345.1,185.4,1347.6z"/>
		<path class="st6" d="M187.3,1341.7c0-0.7,0.6-1.3,1.5-1.3s1.5,0.5,1.5,1.3s-0.6,1.3-1.5,1.3S187.3,1342.4,187.3,1341.7z
			 M187.6,1344.1h2.3v8.1h-2.3V1344.1z"/>
		<path class="st6" d="M197.3,1351.8c-0.5,0.3-1.2,0.5-1.9,0.5c-1.9,0-3-1-3-2.9v-3.3h-1.2v-1.8h1.2v-2h2.3v2h2v1.8h-2v3.3
			c0,0.7,0.4,1.1,1,1.1c0.3,0,0.7-0.1,0.9-0.3L197.3,1351.8z"/>
		<path class="st6" d="M197.7,1348.2c0-2.4,1.9-4.2,4.4-4.2s4.4,1.7,4.4,4.2c0,2.4-1.9,4.2-4.4,4.2S197.7,1350.6,197.7,1348.2z
			 M204.2,1348.2c0-1.4-0.9-2.2-2.1-2.2s-2.1,0.8-2.1,2.2s0.9,2.2,2.1,2.2S204.2,1349.6,204.2,1348.2z"/>
		<path class="st6" d="M213.1,1344v2.2c-0.2,0-0.3,0-0.5,0c-1.3,0-2.1,0.7-2.1,2.2v3.8h-2.3v-8.1h2.2v1.1
			C210.9,1344.4,211.9,1344,213.1,1344z"/>
		<path class="st6" d="M214.2,1341.7c0-0.7,0.6-1.3,1.5-1.3s1.5,0.5,1.5,1.3s-0.6,1.3-1.5,1.3S214.2,1342.4,214.2,1341.7z
			 M214.5,1344.1h2.3v8.1h-2.3V1344.1z"/>
		<path class="st6" d="M227.3,1347.6v4.6H225v-4.3c0-1.3-0.6-1.9-1.6-1.9c-1.1,0-1.9,0.7-1.9,2.2v4H219v-8.1h2.2v0.9
			c0.6-0.7,1.6-1.1,2.7-1.1C225.8,1344,227.3,1345.1,227.3,1347.6z"/>
		<path class="st6" d="M237.8,1344.1v6.7c0,3-1.6,4.4-4.5,4.4c-1.5,0-3-0.4-4-1.1l0.9-1.7c0.7,0.6,1.8,0.9,2.8,0.9
			c1.6,0,2.4-0.7,2.4-2.2v-0.3c-0.6,0.7-1.5,1-2.5,1c-2.2,0-4-1.5-4-3.9s1.8-3.9,4-3.9c1.1,0,2.1,0.4,2.7,1.2v-1L237.8,1344.1
			L237.8,1344.1z M235.5,1347.9c0-1.2-0.9-2-2.1-2c-1.2,0-2.1,0.8-2.1,2s0.9,2,2.1,2S235.5,1349.1,235.5,1347.9z"/>
	</g>
	<rect x="0.1" y="9" class="st7" width="91.4" height="1"/>
	<rect x="210.2" y="9" class="st7" width="91.4" height="1"/>
	<g class="st4">
		<path class="st3" d="M118.5,8.1c0,3.1-2.3,5.1-6,5.1h-2.8V17h-3.2V3h6C116.1,3,118.5,4.9,118.5,8.1z M115.2,8.1c0-1.5-1-2.4-3-2.4
			h-2.6v4.9h2.6C114.2,10.5,115.2,9.6,115.2,8.1z"/>
		<path class="st3" d="M133.5,3v14h-3.2v-5.7H124V17h-3.2V3h3.2v5.5h6.3V3H133.5z"/>
		<path class="st3" d="M146,14h-6.5l-1.2,3H135l6.2-14h3.2l6.2,14h-3.4L146,14z M145,11.5l-2.2-5.4l-2.2,5.4H145z"/>
		<path class="st3" d="M150.9,15.6l1.1-2.4c1.2,0.9,2.9,1.5,4.6,1.5c1.9,0,2.7-0.6,2.7-1.5c0-2.6-8.1-0.8-8.1-6
			c0-2.4,1.9-4.4,5.9-4.4c1.7,0,3.5,0.4,4.8,1.2l-1,2.5c-1.3-0.7-2.6-1.1-3.9-1.1c-1.9,0-2.6,0.7-2.6,1.6c0,2.6,8.1,0.8,8.1,5.9
			c0,2.3-1.9,4.3-5.9,4.3C154.4,17.2,152.2,16.6,150.9,15.6z"/>
		<path class="st3" d="M175.5,14.4V17h-10.8V3h10.5v2.6h-7.3v3h6.5v2.5h-6.5v3.2L175.5,14.4L175.5,14.4z"/>
		<path class="st3" d="M188.2,3v14H185V5.6h-2.8V3H188.2z"/>
	</g>
	<rect x="0.1" y="300.6" class="st7" width="91.4" height="1"/>
	<rect x="210.2" y="300.6" class="st7" width="91.4" height="1"/>
	<g class="st4">
		<path class="st3" d="M118.5,299.7c0,3.1-2.3,5.1-6,5.1h-2.8v3.9h-3.2v-14h6C116.1,294.6,118.5,296.5,118.5,299.7z M115.2,299.7
			c0-1.5-1-2.4-3-2.4h-2.6v4.9h2.6C114.2,302.1,115.2,301.2,115.2,299.7z"/>
		<path class="st3" d="M133.5,294.6v14h-3.2v-5.7H124v5.7h-3.2v-14h3.2v5.5h6.3v-5.5H133.5z"/>
		<path class="st3" d="M146,305.6h-6.5l-1.2,3H135l6.2-14h3.2l6.2,14h-3.4L146,305.6z M145,303.1l-2.2-5.4l-2.2,5.4H145z"/>
		<path class="st3" d="M150.9,307.2l1.1-2.4c1.2,0.9,2.9,1.5,4.6,1.5c1.9,0,2.7-0.6,2.7-1.5c0-2.6-8.1-0.8-8.1-6
			c0-2.4,1.9-4.4,5.9-4.4c1.7,0,3.5,0.4,4.8,1.2l-1,2.5c-1.3-0.7-2.6-1.1-3.9-1.1c-1.9,0-2.6,0.7-2.6,1.6c0,2.6,8.1,0.8,8.1,5.9
			c0,2.3-1.9,4.3-5.9,4.3C154.4,308.8,152.2,308.1,150.9,307.2z"/>
		<path class="st3" d="M175.5,306v2.6h-10.8v-14h10.5v2.6h-7.3v3h6.5v2.5h-6.5v3.2L175.5,306L175.5,306z"/>
		<path class="st3" d="M193.2,305.9v2.6h-10.5v-2.1l5.4-5.1c1.2-1.2,1.5-1.9,1.5-2.6c0-1.1-0.8-1.7-2.2-1.7c-1.2,0-2.2,0.5-2.9,1.4
			l-2.3-1.5c1.1-1.6,3-2.6,5.5-2.6c3.1,0,5.2,1.6,5.2,4.1c0,1.4-0.4,2.6-2.3,4.4l-3.2,3h5.8V305.9z"/>
	</g>
	<rect x="0.1" y="655.1" class="st7" width="91.4" height="1"/>
	<rect x="210.2" y="655.1" class="st7" width="91.4" height="1"/>
	<g class="st4">
		<path class="st3" d="M118.5,654.1c0,3.1-2.3,5.1-6,5.1h-2.8v3.9h-3.2v-14h6C116.1,649.1,118.5,651,118.5,654.1z M115.2,654.1
			c0-1.5-1-2.4-3-2.4h-2.6v4.9h2.6C114.2,656.5,115.2,655.6,115.2,654.1z"/>
		<path class="st3" d="M133.5,649.1v14h-3.2v-5.7H124v5.7h-3.2v-14h3.2v5.5h6.3v-5.5H133.5z"/>
		<path class="st3" d="M146,660h-6.5l-1.2,3H135l6.2-14h3.2l6.2,14h-3.4L146,660z M145,657.6l-2.2-5.4l-2.2,5.4H145z"/>
		<path class="st3" d="M150.9,661.7l1.1-2.4c1.2,0.9,2.9,1.5,4.6,1.5c1.9,0,2.7-0.6,2.7-1.5c0-2.6-8.1-0.8-8.1-6
			c0-2.4,1.9-4.4,5.9-4.4c1.7,0,3.5,0.4,4.8,1.2l-1,2.5c-1.3-0.7-2.6-1.1-3.9-1.1c-1.9,0-2.6,0.7-2.6,1.6c0,2.6,8.1,0.8,8.1,5.9
			c0,2.3-1.9,4.3-5.9,4.3C154.4,663.3,152.2,662.6,150.9,661.7z"/>
		<path class="st3" d="M175.5,660.4v2.6h-10.8v-14h10.5v2.6h-7.3v3h6.5v2.5h-6.5v3.2h7.6V660.4z"/>
		<path class="st3" d="M193.1,658.8c0,2.4-1.8,4.5-5.8,4.5c-1.9,0-4-0.5-5.3-1.5l1.3-2.5c1.1,0.8,2.5,1.3,4,1.3
			c1.6,0,2.6-0.7,2.6-1.8s-0.8-1.7-2.6-1.7h-1.5V655l2.9-3.3h-5.9v-2.6h9.7v2.1l-3.1,3.6C191.8,655.1,193.1,656.7,193.1,658.8z"/>
	</g>
	<rect x="0.1" y="967.6" class="st7" width="91.4" height="1"/>
	<rect x="210.2" y="967.6" class="st7" width="91.4" height="1"/>
	<g class="st4">
		<path class="st3" d="M118.5,966.7c0,3.1-2.3,5.1-6,5.1h-2.8v3.9h-3.2v-14h6C116.1,961.6,118.5,963.5,118.5,966.7z M115.2,966.7
			c0-1.5-1-2.4-3-2.4h-2.6v4.9h2.6C114.2,969.1,115.2,968.2,115.2,966.7z"/>
		<path class="st3" d="M133.5,961.6v14h-3.2v-5.7H124v5.7h-3.2v-14h3.2v5.5h6.3v-5.5H133.5z"/>
		<path class="st3" d="M146,972.6h-6.5l-1.2,3H135l6.2-14h3.2l6.2,14h-3.4L146,972.6z M145,970.1l-2.2-5.4l-2.2,5.4H145z"/>
		<path class="st3" d="M150.9,974.2l1.1-2.4c1.2,0.9,2.9,1.5,4.6,1.5c1.9,0,2.7-0.6,2.7-1.5c0-2.6-8.1-0.8-8.1-6
			c0-2.4,1.9-4.4,5.9-4.4c1.7,0,3.5,0.4,4.8,1.2l-1,2.5c-1.3-0.7-2.6-1.1-3.9-1.1c-1.9,0-2.6,0.7-2.6,1.6c0,2.6,8.1,0.8,8.1,5.9
			c0,2.3-1.9,4.3-5.9,4.3C154.4,975.8,152.2,975.2,150.9,974.2z"/>
		<path class="st3" d="M175.5,973v2.6h-10.8v-14h10.5v2.6h-7.3v3h6.5v2.5h-6.5v3.2h7.6V973z"/>
		<path class="st3" d="M195.5,972.6h-2.3v2.9h-3.1v-2.9h-7.5v-2.2l6.6-8.9h3.4l-6.1,8.4h3.7v-2.6h3v2.6h2.3L195.5,972.6L195.5,972.6
			z"/>
	</g>
	<rect x="0.1" y="1279.1" class="st7" width="91.4" height="1"/>
	<rect x="210.2" y="1277.1" class="st7" width="91.4" height="1"/>
	<g class="st4">
		<path class="st3" d="M118.5,1278.2c0,3.1-2.3,5.1-6,5.1h-2.8v3.9h-3.2v-14h6C116.1,1273.1,118.5,1275.1,118.5,1278.2z
			 M115.2,1278.2c0-1.5-1-2.4-3-2.4h-2.6v4.9h2.6C114.2,1280.6,115.2,1279.7,115.2,1278.2z"/>
		<path class="st3" d="M133.5,1273.1v14h-3.2v-5.7H124v5.7h-3.2v-14h3.2v5.5h6.3v-5.5H133.5z"/>
		<path class="st3" d="M146,1284.1h-6.5l-1.2,3H135l6.2-14h3.2l6.2,14h-3.4L146,1284.1z M145,1281.7l-2.2-5.4l-2.2,5.4H145z"/>
		<path class="st3" d="M150.9,1285.7l1.1-2.4c1.2,0.9,2.9,1.5,4.6,1.5c1.9,0,2.7-0.6,2.7-1.5c0-2.6-8.1-0.8-8.1-6
			c0-2.4,1.9-4.4,5.9-4.4c1.7,0,3.5,0.4,4.8,1.2l-1,2.5c-1.3-0.7-2.6-1.1-3.9-1.1c-1.9,0-2.6,0.7-2.6,1.6c0,2.6,8.1,0.8,8.1,5.9
			c0,2.3-1.9,4.3-5.9,4.3C154.4,1287.4,152.2,1286.7,150.9,1285.7z"/>
		<path class="st3" d="M175.5,1284.5v2.6h-10.8v-14h10.5v2.6h-7.3v3h6.5v2.5h-6.5v3.2h7.6V1284.5z"/>
		<path class="st3" d="M193.3,1282.7c0,2.5-1.8,4.6-5.8,4.6c-1.9,0-4-0.5-5.3-1.5l1.3-2.5c1.1,0.8,2.5,1.3,4,1.3
			c1.6,0,2.6-0.7,2.6-1.8c0-1.1-0.7-1.8-3.2-1.8h-3.6l0.7-7.9h8.5v2.6h-5.8l-0.2,2.7h1.1C191.7,1278.4,193.3,1280.2,193.3,1282.7z"
			/>
	</g>
</g>
</svg>
