<svg xmlns="http://www.w3.org/2000/svg" width="1160" height="281.863" viewBox="0 0 1160 281.863">
  <g id="Group_4485" data-name="Group 4485" transform="translate(-140 -245)">
    <rect id="Rectangle_2940" data-name="Rectangle 2940" width="124" height="87.151" transform="translate(891 245.367)" fill="#fff"/>
    <path id="Path_11090" data-name="Path 11090" d="M952.375,1368.636,973.75,1346.2H931Z" transform="translate(1 -1022.41)" fill="#fff"/>
    <rect id="Rectangle_2941" data-name="Rectangle 2941" width="124" height="86.198" transform="translate(891 440.664)" fill="#fff"/>
    <path id="Path_11091" data-name="Path 11091" d="M952.375,1449.367,973.75,1471.8H931Z" transform="translate(1 -1022.41)" fill="#fff"/>
    <rect id="Rectangle_2942" data-name="Rectangle 2942" width="124" height="81.641" transform="translate(704 245.367)" fill="#fff"/>
    <path id="Path_11092" data-name="Path 11092" d="M765.375,1368.636,786.75,1346.2H744Z" transform="translate(1 -1022.41)" fill="#fff"/>
    <rect id="Rectangle_2943" data-name="Rectangle 2943" width="124" height="80.688" transform="translate(704 446.176)" fill="#fff"/>
    <path id="Path_11093" data-name="Path 11093" d="M765.375,1449.367,786.75,1471.8H744Z" transform="translate(1 -1022.41)" fill="#fff"/>
    <rect id="Rectangle_2944" data-name="Rectangle 2944" width="124" height="81.641" transform="translate(374 245)" fill="#fff"/>
    <path id="Path_11094" data-name="Path 11094" d="M435.375,1368.269l21.375-22.437H414Z" transform="translate(1 -1022.41)" fill="#fff"/>
    <rect id="Rectangle_2945" data-name="Rectangle 2945" width="124" height="80.688" transform="translate(374 445.809)" fill="#fff"/>
    <path id="Path_11095" data-name="Path 11095" d="M435.375,1449l21.375,22.437H414Z" transform="translate(1 -1022.41)" fill="#fff"/>
    <rect id="Rectangle_2946" data-name="Rectangle 2946" width="124" height="81.641" transform="translate(518 245.367)" fill="#fff"/>
    <path id="Path_11096" data-name="Path 11096" d="M579.375,1368.636,600.75,1346.2H558Z" transform="translate(1 -1022.41)" fill="#fff"/>
    <rect id="Rectangle_2947" data-name="Rectangle 2947" width="124" height="80.688" transform="translate(518 446.176)" fill="#fff"/>
    <path id="Path_11097" data-name="Path 11097" d="M579.375,1449.367,600.75,1471.8H558Z" transform="translate(1 -1022.41)" fill="#fff"/>
    <g id="Group_4484" data-name="Group 4484" transform="translate(-239.937 -120.055)">
      <path id="Path_11098" data-name="Path 11098" d="M1264.278,534.961H1108.387l12.1-29.854-12.1-29.928h155.891l13.1,29.927Z" fill="#0a90b7"/>
      <path id="Path_11099" data-name="Path 11099" d="M1079.278,534.961H923.387l12.1-29.854-12.1-29.928h155.891l13.1,29.927Z" fill="#0a90b7"/>
      <path id="Path_11100" data-name="Path 11100" d="M562.728,534.961H380.387V475.179H562.728l13.1,29.927Z" fill="#0a90b7"/>
      <path id="Path_11101" data-name="Path 11101" d="M1523.9,534.961H1293.387l13.383-29.854-13.383-29.928H1523.9l14.489,29.927Z" fill="#fff"/>
      <path id="Path_11287" data-name="Path 11287" d="M895.239,534.961H591.387l12.577-29.854-12.577-29.928H895.239l12.577,29.927Z" fill="#0a90b7"/>
      <path id="Path_11341" data-name="Path 11341" d="M1302.947,530.555h-3.185l1.2-2.953,8.2-20.23.978-2.415-.976-2.416-8.211-20.314-1.193-2.952h26.489v-4.3h-32.862l11.789,29.167.325.8-.326.805-11.788,29.091h182.637v6.1l10.955-8.137-10.955-8.138v5.884H1302.947Z" fill="#0a90b7"/>
      <path id="Path_11342" data-name="Path 11342" d="M1476.028,528.409v-3.738l10.955,8.138-10.955,8.138v-6.1H1293.387l11.785-29.087.326-.8-.325-.806-11.786-29.175h32.854v4.293h-26.489l1.192,2.949,8.211,20.317.977,2.416-.979,2.416-8.2,20.23-1.2,2.952H1476.02Z" fill="#0a90b7"/>
      <path id="Path_11343" data-name="Path 11343" d="M1526.825,534.847h-32.538v-4.292h29.735l.563-1.286,10.291-23.458.378-.86-.378-.863-10.3-23.529-.562-1.286H1344.5v6.056l-10.955-8.138,10.955-8.137v5.927h182.325l13.115,29.97Z" fill="#0a90b7"/>
      <text id="Select_Authorization_Path" data-name="Select 
Authorization Path" transform="translate(385.977 487.8)" fill="#fff" font-size="15" font-family="Montserrat-ExtraBold, Montserrat" font-weight="800" letter-spacing="0.01em"><tspan x="62.994" y="15">Select </tspan><tspan x="12.211" y="33">Authorization Path</tspan></text>
      <text id="Preparation" transform="translate(670.977 496.8)" fill="#fff" font-size="15" font-family="Montserrat-ExtraBold, Montserrat" font-weight="800" letter-spacing="0.01em"><tspan x="29.531" y="15">Preparation</tspan></text>
      <text id="Review" transform="translate(934.977 496.8)" fill="#fff" font-size="15" font-family="Montserrat-ExtraBold, Montserrat" font-weight="800" letter-spacing="0.01em"><tspan x="47.726" y="15">Review</tspan></text>
      <text id="Authorization" transform="translate(1119.977 496.8)" fill="#fff" font-size="15" font-family="Montserrat-ExtraBold, Montserrat" font-weight="800" letter-spacing="0.01em"><tspan x="21.334" y="15">Authorization</tspan></text>
      <text id="Continuous_Monitoring" data-name="Continuous Monitoring" transform="translate(1317 496.8)" fill="#454545" font-size="15" font-family="Montserrat-ExtraBold, Montserrat" font-weight="800" letter-spacing="0.01em"><tspan x="11.89" y="15">Continuous Monitoring</tspan></text>
    </g>
    <text id="JAB_Authorization_Process" data-name="JAB 
Authorization 
Process" transform="translate(954 469)" fill="#333" font-size="16" font-family="ProximaNova-Regular, Proxima Nova" letter-spacing="0.02em"><tspan x="-16.44" y="0">JAB </tspan><tspan x="-50.656" y="20">Authorization </tspan><tspan x="-28.784" y="40">Process</tspan></text>
    <text id="Agency_Authorization_Process" data-name="Agency 
Authorization 
Process" transform="translate(954 276)" fill="#333" font-size="16" font-family="ProximaNova-Regular, Proxima Nova" letter-spacing="0.02em"><tspan x="-29.704" y="0">Agency </tspan><tspan x="-50.656" y="20">Authorization </tspan><tspan x="-28.784" y="40">Process</tspan></text>
    <text id="Full_Security_Assessment" data-name="Full Security 
Assessment" transform="translate(768 479)" fill="#333" font-size="16" font-family="ProximaNova-Regular, Proxima Nova" letter-spacing="0.02em"><tspan x="-46.92" y="0">Full Security </tspan><tspan x="-43.824" y="20">Assessment</tspan></text>
    <text id="Full_Security_Assessment-2" data-name="Full Security 
Assessment" transform="translate(768 283)" fill="#333" font-size="16" font-family="ProximaNova-Regular, Proxima Nova" letter-spacing="0.02em"><tspan x="-46.92" y="0">Full Security </tspan><tspan x="-43.824" y="20">Assessment</tspan></text>
    <text id="Readiness_Assessment" data-name="Readiness 
Assessment" transform="translate(583 479)" fill="#333" font-size="16" font-family="ProximaNova-Regular, Proxima Nova" letter-spacing="0.02em"><tspan x="-39.632" y="0">Readiness </tspan><tspan x="-43.824" y="20">Assessment</tspan></text>
    <text id="Readiness_Assessment-2" data-name="Readiness 
Assessment" transform="translate(583 283)" fill="#333" font-size="16" font-family="ProximaNova-Regular, Proxima Nova" letter-spacing="0.02em"><tspan x="-39.632" y="0">Readiness </tspan><tspan x="-43.824" y="20">Assessment</tspan></text>
    <text id="Partnership_Establishment" data-name="Partnership Establishment" transform="translate(380 268)" fill="#333" font-size="16" font-family="ProximaNova-Regular, Proxima Nova" letter-spacing="0.02em"><tspan x="15.076" y="13">Partnership </tspan><tspan x="5.66" y="33">Establishment</tspan></text>
    <text id="FedRAMP_Connect" data-name="FedRAMP Connect" transform="translate(393 464)" fill="#333" font-size="16" font-family="ProximaNova-Regular, Proxima Nova" letter-spacing="0.02em"><tspan x="6.724" y="13">FedRAMP </tspan><tspan x="11.9" y="33">Connect</tspan></text>
    <g id="Component_62_74" data-name="Component 62 – 74" transform="translate(140 468)">
      <g id="Base" fill="none" stroke="#c71f25" stroke-width="1">
        <rect width="182" height="38" rx="17" stroke="none"/>
        <rect x="0.5" y="0.5" width="181" height="37" rx="16.5" fill="none"/>
      </g>
      <text id="JAB_PROCESS" data-name="JAB PROCESS" transform="translate(92 24)" fill="#c71f25" font-size="14" font-family="Muli-Black, Muli" font-weight="800" letter-spacing="0.03em"><tspan x="-51.002" y="0">JAB PROCESS</tspan></text>
    </g>
    <g id="Component_62_75" data-name="Component 62 – 75" transform="translate(140 263.895)">
      <g id="Base-2" data-name="Base" fill="none" stroke="#1a4480" stroke-width="1">
        <rect width="182" height="38" rx="17" stroke="none"/>
        <rect x="0.5" y="0.5" width="181" height="37" rx="16.5" fill="none"/>
      </g>
      <text id="Agency_PROCESS" data-name="Agency PROCESS" transform="translate(92 24)" fill="#1a4480" font-size="14" font-family="Muli-Black, Muli" font-weight="800" letter-spacing="0.03em"><tspan x="-67.949" y="0">AGENCY PROCESS</tspan></text>
    </g>
  </g>
</svg>
