<?xml version="1.0" encoding="utf-8"?>
<!-- Generator: Adobe Illustrator 24.2.3, SVG Export Plug-In . SVG Version: 6.00 Build 0)  -->
<svg version="1.1" id="Layer_1" xmlns="http://www.w3.org/2000/svg" xmlns:xlink="http://www.w3.org/1999/xlink" x="0px" y="0px"
	 viewBox="0 0 1280 290" style="enable-background:new 0 0 1280 290;" xml:space="preserve">
<style type="text/css">
	.st0{display:none;}
	.st1{display:inline;fill:#F2F2F2;}
	.st2{fill:#FFFFFF;}
	.st3{fill:#1294C2;}
	.st4{enable-background:new    ;}
	.st5{fill:#454545;}
	.st6{fill:none;}
	.st7{fill:#333333;}
	.st8{fill:#CC1D1D;}
	.st9{fill:none;stroke:#1A4480;stroke-width:1.1571;}
	.st10{fill:none;stroke:#CC1D1D;stroke-width:1.1571;}
	.st11{fill:#1A4480;}
</style>
<g id="Layer_2_1_" class="st0">
	<rect x="-67" y="-177.5" class="st1" width="2787" height="1656"/>
</g>
<g id="Layer_4">
	<path id="Path_11101_2_" class="st2" d="M1261.9,177.2h-254.4l14.8-32.9l-14.8-33h254.4l16,33L1261.9,177.2z"/>
	<path id="Path_11098_2_" class="st3" d="M975.7,177.2h-172l13.4-32.9l-13.4-33h172l14.5,33L975.7,177.2z"/>
	<path id="Path_11099_2_" class="st3" d="M771.4,177.2h-172l13.4-32.9l-13.4-33h172l14.5,33L771.4,177.2z"/>
	<path id="Path_11100_1_" class="st3" d="M201.4,177.2H0.2v-66h201.2l14.5,33L201.4,177.2z"/>
	<path id="Path_11287_2_" class="st3" d="M568.2,177.2H232.9l13.9-32.9l-13.9-33h335.3l13.9,33L568.2,177.2z"/>
	<path id="Path_11343_2_" class="st3" d="M1265.1,177.1h-35.9v-4.7h32.8l0.6-1.4l11.4-26l0.4-0.9l-0.4-1l-11.4-26l-0.6-1.4h-198.1
		v6.7l-12.1-9l12.1-9v6.5h201.2l14.5,33.1L1265.1,177.1z"/>
</g>
<g id="Layer_3">
	<rect id="Rectangle_2941_20_" x="828.5" y="202.8" class="st2" width="136.8" height="87"/>
	<path id="Path_11091_20_" class="st2" d="M896.9,184.4l23.6,24.8h-47.2L896.9,184.4z"/>
	<rect id="Rectangle_2941_19_" x="624.2" y="202.8" class="st2" width="136.8" height="87"/>
	<path id="Path_11091_19_" class="st2" d="M692.6,184.4l23.6,24.8H669L692.6,184.4z"/>
	<rect id="Rectangle_2941_18_" x="409" y="202.8" class="st2" width="136.8" height="87"/>
	<path id="Path_11091_18_" class="st2" d="M477.8,184.4l23.6,24.8h-47.2L477.8,184.4z"/>
	<rect id="Rectangle_2941_17_" x="253.1" y="202.8" class="st2" width="136.8" height="87"/>
	<path id="Path_11091_17_" class="st2" d="M321.5,184.4l23.6,24.8h-47.2L321.5,184.4z"/>
	<rect id="Rectangle_2941_16_" x="828.5" y="-0.2" class="st2" width="136.8" height="87"/>
	<path id="Path_11091_16_" class="st2" d="M896.9,104.3l23.6-24.8h-47.2L896.9,104.3z"/>
	<rect id="Rectangle_2941_15_" x="624.2" y="-0.2" class="st2" width="136.8" height="87"/>
	<path id="Path_11091_15_" class="st2" d="M692.6,104.3l23.6-24.8H669L692.6,104.3z"/>
	<rect id="Rectangle_2941_14_" x="409" y="-0.2" class="st2" width="136.8" height="87"/>
	<path id="Path_11091_14_" class="st2" d="M477.8,104.3l23.6-24.8h-47.2L477.8,104.3z"/>
	<rect id="Rectangle_2941_13_" x="253.1" y="-0.2" class="st2" width="136.8" height="87"/>
	<path id="Path_11091_13_" class="st2" d="M321.5,104.3l23.6-24.8h-47.2L321.5,104.3z"/>
	<g class="st4">
		<path class="st2" d="M75.5,140.6l0.9-2c1,0.7,2.4,1.2,3.8,1.2c1.6,0,2.2-0.5,2.2-1.2c0-2.2-6.7-0.7-6.7-5c0-2,1.6-3.6,4.9-3.6
			c1.5,0,2.9,0.3,4,1l-0.8,2c-1.1-0.6-2.2-0.9-3.2-0.9c-1.6,0-2.2,0.6-2.2,1.3c0,2.1,6.7,0.7,6.7,4.9c0,1.9-1.6,3.6-4.9,3.6
			C78.3,141.9,76.5,141.4,75.5,140.6z"/>
		<path class="st2" d="M95.4,138h-6.7c0.2,1.1,1.2,1.8,2.5,1.8c0.9,0,1.6-0.3,2.2-0.9l1.4,1.5c-0.8,0.9-2.1,1.4-3.7,1.4
			c-3.1,0-5.1-1.9-5.1-4.6c0-2.7,2-4.6,4.8-4.6c2.6,0,4.6,1.8,4.6,4.6C95.5,137.5,95.4,137.8,95.4,138z M88.6,136.5H93
			c-0.2-1.1-1-1.9-2.2-1.9C89.7,134.6,88.8,135.3,88.6,136.5z"/>
		<path class="st2" d="M97.2,129.4h2.6v12.3h-2.6V129.4z"/>
		<path class="st2" d="M110.8,138h-6.7c0.2,1.1,1.2,1.8,2.5,1.8c0.9,0,1.6-0.3,2.2-0.9l1.4,1.5c-0.8,0.9-2.1,1.4-3.7,1.4
			c-3.1,0-5.1-1.9-5.1-4.6c0-2.7,2-4.6,4.8-4.6c2.6,0,4.6,1.8,4.6,4.6C110.9,137.5,110.9,137.8,110.8,138z M104.1,136.5h4.4
			c-0.2-1.1-1-1.9-2.2-1.9C105.1,134.6,104.3,135.3,104.1,136.5z"/>
		<path class="st2" d="M111.9,137.3c0-2.7,2.1-4.6,5-4.6c1.9,0,3.3,0.8,4,2.3l-2,1.1c-0.5-0.8-1.2-1.2-2-1.2c-1.3,0-2.3,0.9-2.3,2.5
			c0,1.6,1,2.5,2.3,2.5c0.8,0,1.5-0.4,2-1.2l2,1.1c-0.6,1.4-2.1,2.3-4,2.3C114,141.8,111.9,139.9,111.9,137.3z"/>
		<path class="st2" d="M128.3,141.3c-0.5,0.4-1.3,0.6-2.1,0.6c-2.1,0-3.3-1.1-3.3-3.2V135h-1.4v-2h1.4v-2.2h2.6v2.2h2.2v2h-2.2v3.6
			c0,0.8,0.4,1.2,1.1,1.2c0.4,0,0.8-0.1,1-0.3L128.3,141.3z"/>
	</g>
	<g class="st4">
		<path class="st2" d="M25.5,159.1h-5.4l-1,2.5h-2.7l5.2-11.6h2.6l5.2,11.6h-2.8L25.5,159.1z M24.7,157l-1.8-4.4L21,157H24.7z"/>
		<path class="st2" d="M39.2,152.7v8.9h-2.5v-1.1c-0.7,0.8-1.7,1.2-2.8,1.2c-2.2,0-3.8-1.3-3.8-4v-5h2.6v4.7c0,1.5,0.7,2.2,1.8,2.2
			c1.2,0,2.1-0.8,2.1-2.4v-4.4H39.2z"/>
		<path class="st2" d="M47.3,161.1c-0.5,0.4-1.3,0.6-2.1,0.6c-2.1,0-3.3-1.1-3.3-3.2v-3.7h-1.4v-2h1.4v-2.2h2.6v2.2h2.2v2h-2.2v3.6
			c0,0.8,0.4,1.2,1.1,1.2c0.4,0,0.8-0.1,1-0.3L47.3,161.1z"/>
		<path class="st2" d="M57.9,156.5v5.1h-2.6v-4.7c0-1.4-0.7-2.1-1.8-2.1c-1.2,0-2.1,0.8-2.1,2.4v4.4h-2.6v-12.3h2.6v4.3
			c0.7-0.7,1.7-1.1,2.8-1.1C56.3,152.5,57.9,153.8,57.9,156.5z"/>
		<path class="st2" d="M59.7,157.1c0-2.7,2.1-4.6,4.9-4.6s4.9,1.9,4.9,4.6c0,2.7-2.1,4.6-4.9,4.6S59.7,159.8,59.7,157.1z
			 M66.8,157.1c0-1.5-1-2.5-2.3-2.5c-1.3,0-2.3,0.9-2.3,2.5c0,1.5,1,2.5,2.3,2.5C65.9,159.6,66.8,158.7,66.8,157.1z"/>
		<path class="st2" d="M76.7,152.5v2.4c-0.2,0-0.4,0-0.6,0c-1.4,0-2.4,0.8-2.4,2.5v4.2h-2.6v-8.9h2.5v1.2
			C74.3,153,75.3,152.5,76.7,152.5z"/>
		<path class="st2" d="M77.9,150c0-0.8,0.6-1.4,1.6-1.4c1,0,1.6,0.6,1.6,1.4c0,0.9-0.6,1.5-1.6,1.5C78.6,151.4,77.9,150.8,77.9,150z
			 M78.2,152.7h2.6v8.9h-2.6V152.7z"/>
		<path class="st2" d="M90.5,159.6v2h-7.9V160l4.5-5.4h-4.4v-2h7.7v1.6l-4.5,5.4H90.5z"/>
		<path class="st2" d="M100.1,156.5v5.1h-2.4v-1.1c-0.5,0.8-1.4,1.2-2.7,1.2c-2.1,0-3.3-1.2-3.3-2.7c0-1.6,1.1-2.7,3.8-2.7h2.1
			c0-1.1-0.7-1.8-2.1-1.8c-0.9,0-1.9,0.3-2.6,0.8l-0.9-1.8c1-0.7,2.4-1.1,3.8-1.1C98.5,152.5,100.1,153.8,100.1,156.5z M97.5,158.8
			v-0.9h-1.8c-1.2,0-1.6,0.4-1.6,1c0,0.6,0.5,1.1,1.5,1.1C96.5,160,97.2,159.6,97.5,158.8z"/>
		<path class="st2" d="M108.2,161.1c-0.5,0.4-1.3,0.6-2.1,0.6c-2.1,0-3.3-1.1-3.3-3.2v-3.7h-1.4v-2h1.4v-2.2h2.6v2.2h2.2v2h-2.2v3.6
			c0,0.8,0.4,1.2,1.1,1.2c0.4,0,0.8-0.1,1-0.3L108.2,161.1z"/>
		<path class="st2" d="M109.3,150c0-0.8,0.6-1.4,1.6-1.4c1,0,1.6,0.6,1.6,1.4c0,0.9-0.6,1.5-1.6,1.5
			C109.9,151.4,109.3,150.8,109.3,150z M109.6,152.7h2.6v8.9h-2.6V152.7z"/>
		<path class="st2" d="M113.9,157.1c0-2.7,2.1-4.6,4.9-4.6s4.9,1.9,4.9,4.6c0,2.7-2.1,4.6-4.9,4.6S113.9,159.8,113.9,157.1z
			 M121.1,157.1c0-1.5-1-2.5-2.3-2.5c-1.3,0-2.3,0.9-2.3,2.5c0,1.5,1,2.5,2.3,2.5C120.1,159.6,121.1,158.7,121.1,157.1z"/>
		<path class="st2" d="M134.5,156.5v5.1H132v-4.7c0-1.4-0.7-2.1-1.8-2.1c-1.2,0-2.1,0.8-2.1,2.4v4.4h-2.6v-8.9h2.5v1
			c0.7-0.8,1.7-1.2,2.9-1.2C133,152.5,134.5,153.8,134.5,156.5z"/>
		<path class="st2" d="M151.8,154.2c0,2.6-1.9,4.2-5,4.2h-2.3v3.2h-2.7V150h5C149.9,150,151.8,151.6,151.8,154.2z M149.1,154.2
			c0-1.3-0.8-2-2.5-2h-2.2v4h2.2C148.2,156.2,149.1,155.4,149.1,154.2z"/>
		<path class="st2" d="M161.3,156.5v5.1h-2.4v-1.1c-0.5,0.8-1.4,1.2-2.7,1.2c-2.1,0-3.3-1.2-3.3-2.7c0-1.6,1.1-2.7,3.8-2.7h2.1
			c0-1.1-0.7-1.8-2.1-1.8c-0.9,0-1.9,0.3-2.6,0.8l-0.9-1.8c1-0.7,2.4-1.1,3.8-1.1C159.7,152.5,161.3,153.8,161.3,156.5z
			 M158.7,158.8v-0.9H157c-1.2,0-1.6,0.4-1.6,1c0,0.6,0.5,1.1,1.5,1.1C157.7,160,158.4,159.6,158.7,158.8z"/>
		<path class="st2" d="M169.4,161.1c-0.5,0.4-1.3,0.6-2.1,0.6c-2.1,0-3.3-1.1-3.3-3.2v-3.7h-1.4v-2h1.4v-2.2h2.6v2.2h2.2v2h-2.2v3.6
			c0,0.8,0.4,1.2,1.1,1.2c0.4,0,0.8-0.1,1-0.3L169.4,161.1z"/>
		<path class="st2" d="M179.9,156.5v5.1h-2.6v-4.7c0-1.4-0.7-2.1-1.8-2.1c-1.2,0-2.1,0.8-2.1,2.4v4.4h-2.6v-12.3h2.6v4.3
			c0.7-0.7,1.7-1.1,2.8-1.1C178.4,152.5,179.9,153.8,179.9,156.5z"/>
	</g>
	<g class="st4">
		<path class="st2" d="M362.7,144.3c0,2.6-1.9,4.2-5,4.2h-2.3v3.2h-2.7V140h5C360.8,140,362.7,141.7,362.7,144.3z M360,144.3
			c0-1.3-0.8-2-2.5-2h-2.2v4h2.2C359.2,146.3,360,145.5,360,144.3z"/>
		<path class="st2" d="M369.9,142.6v2.4c-0.2,0-0.4,0-0.6,0c-1.4,0-2.4,0.8-2.4,2.5v4.2h-2.6v-8.9h2.5v1.2
			C367.5,143,368.6,142.6,369.9,142.6z"/>
		<path class="st2" d="M380.1,147.9h-6.7c0.2,1.1,1.2,1.8,2.5,1.8c0.9,0,1.6-0.3,2.2-0.9l1.4,1.5c-0.8,0.9-2.1,1.4-3.7,1.4
			c-3.1,0-5.1-1.9-5.1-4.6c0-2.7,2-4.6,4.8-4.6c2.6,0,4.6,1.8,4.6,4.6C380.1,147.4,380.1,147.7,380.1,147.9z M373.3,146.4h4.4
			c-0.2-1.1-1-1.9-2.2-1.9C374.3,144.6,373.5,145.3,373.3,146.4z"/>
		<path class="st2" d="M391.5,147.2c0,2.8-1.9,4.6-4.4,4.6c-1.1,0-2-0.3-2.7-1.1v4.2h-2.6v-12.1h2.5v1c0.6-0.8,1.6-1.2,2.8-1.2
			C389.6,142.6,391.5,144.4,391.5,147.2z M388.9,147.2c0-1.5-1-2.5-2.3-2.5s-2.3,0.9-2.3,2.5c0,1.5,1,2.5,2.3,2.5
			S388.9,148.7,388.9,147.2z"/>
		<path class="st2" d="M401,146.6v5.1h-2.4v-1.1c-0.5,0.8-1.4,1.2-2.7,1.2c-2.1,0-3.3-1.2-3.3-2.7c0-1.6,1.1-2.7,3.8-2.7h2.1
			c0-1.1-0.7-1.8-2.1-1.8c-0.9,0-1.9,0.3-2.6,0.8l-0.9-1.8c1-0.7,2.4-1.1,3.8-1.1C399.4,142.6,401,143.9,401,146.6z M398.4,148.8
			v-0.9h-1.8c-1.2,0-1.6,0.4-1.6,1c0,0.6,0.5,1.1,1.5,1.1C397.4,150,398.1,149.6,398.4,148.8z"/>
		<path class="st2" d="M408.9,142.6v2.4c-0.2,0-0.4,0-0.6,0c-1.4,0-2.4,0.8-2.4,2.5v4.2h-2.6v-8.9h2.5v1.2
			C406.4,143,407.5,142.6,408.9,142.6z"/>
		<path class="st2" d="M418.2,146.6v5.1h-2.4v-1.1c-0.5,0.8-1.4,1.2-2.7,1.2c-2.1,0-3.3-1.2-3.3-2.7c0-1.6,1.1-2.7,3.8-2.7h2.1
			c0-1.1-0.7-1.8-2.1-1.8c-0.9,0-1.9,0.3-2.6,0.8l-0.9-1.8c1-0.7,2.4-1.1,3.8-1.1C416.7,142.6,418.2,143.9,418.2,146.6z
			 M415.6,148.8v-0.9h-1.8c-1.2,0-1.6,0.4-1.6,1c0,0.6,0.5,1.1,1.5,1.1C414.6,150,415.3,149.6,415.6,148.8z"/>
		<path class="st2" d="M426.3,151.2c-0.5,0.4-1.3,0.6-2.1,0.6c-2.1,0-3.3-1.1-3.3-3.2v-3.7h-1.4v-2h1.4v-2.2h2.6v2.2h2.2v2h-2.2v3.6
			c0,0.8,0.4,1.2,1.1,1.2c0.4,0,0.8-0.1,1-0.3L426.3,151.2z"/>
		<path class="st2" d="M427.4,140c0-0.8,0.6-1.4,1.6-1.4s1.6,0.6,1.6,1.4c0,0.9-0.6,1.5-1.6,1.5S427.4,140.9,427.4,140z
			 M427.8,142.7h2.6v8.9h-2.6V142.7z"/>
		<path class="st2" d="M432.1,147.2c0-2.7,2.1-4.6,4.9-4.6s4.9,1.9,4.9,4.6c0,2.7-2.1,4.6-4.9,4.6S432.1,149.9,432.1,147.2z
			 M439.2,147.2c0-1.5-1-2.5-2.3-2.5c-1.3,0-2.3,0.9-2.3,2.5c0,1.5,1,2.5,2.3,2.5C438.3,149.7,439.2,148.7,439.2,147.2z"/>
		<path class="st2" d="M452.7,146.5v5.1h-2.6v-4.7c0-1.4-0.7-2.1-1.8-2.1c-1.2,0-2.1,0.8-2.1,2.4v4.4h-2.6v-8.9h2.5v1
			c0.7-0.8,1.7-1.2,2.9-1.2C451.1,142.6,452.7,143.8,452.7,146.5z"/>
	</g>
	<g class="st4">
		<path class="st2" d="M669.3,151.6l-2.2-3.2h-0.1h-2.3v3.2h-2.7V140h5c3.1,0,5,1.6,5,4.2c0,1.7-0.9,3-2.4,3.7l2.6,3.7H669.3z
			 M666.8,142.2h-2.2v4h2.2c1.6,0,2.5-0.8,2.5-2C669.2,143,668.4,142.2,666.8,142.2z"/>
		<path class="st2" d="M682.6,147.9h-6.7c0.2,1.1,1.2,1.8,2.5,1.8c0.9,0,1.6-0.3,2.2-0.9l1.4,1.5c-0.8,0.9-2.1,1.4-3.7,1.4
			c-3.1,0-5.1-1.9-5.1-4.6c0-2.7,2-4.6,4.8-4.6c2.6,0,4.6,1.8,4.6,4.6C682.6,147.4,682.6,147.7,682.6,147.9z M675.8,146.4h4.4
			c-0.2-1.1-1-1.9-2.2-1.9C676.8,144.6,676,145.3,675.8,146.4z"/>
		<path class="st2" d="M693,142.7l-3.8,8.9h-2.7l-3.7-8.9h2.7l2.5,6.1l2.5-6.1H693z"/>
		<path class="st2" d="M693.7,140c0-0.8,0.6-1.4,1.6-1.4c1,0,1.6,0.6,1.6,1.4c0,0.9-0.6,1.5-1.6,1.5
			C694.4,141.5,693.7,140.9,693.7,140z M694.1,142.7h2.6v8.9h-2.6V142.7z"/>
		<path class="st2" d="M707.7,147.9H701c0.2,1.1,1.2,1.8,2.5,1.8c0.9,0,1.6-0.3,2.2-0.9l1.4,1.5c-0.8,0.9-2.1,1.4-3.7,1.4
			c-3.1,0-5.1-1.9-5.1-4.6c0-2.7,2-4.6,4.8-4.6c2.6,0,4.6,1.8,4.6,4.6C707.8,147.4,707.7,147.7,707.7,147.9z M700.9,146.4h4.4
			c-0.2-1.1-1-1.9-2.2-1.9C702,144.6,701.1,145.3,700.9,146.4z"/>
		<path class="st2" d="M723.6,142.7l-3.2,8.9h-2.5l-2-5.5l-2.1,5.5h-2.5l-3.2-8.9h2.4l2.1,6l2.2-6h2.2l2.1,6l2.2-6H723.6z"/>
	</g>
	<g class="st4">
		<path class="st2" d="M845.3,149.2h-5.4l-1,2.5h-2.7l5.2-11.6h2.6l5.2,11.6h-2.8L845.3,149.2z M844.5,147.1l-1.8-4.4l-1.8,4.4
			H844.5z"/>
		<path class="st2" d="M859,142.7v8.9h-2.5v-1.1c-0.7,0.8-1.7,1.2-2.8,1.2c-2.2,0-3.8-1.3-3.8-4v-5h2.6v4.7c0,1.5,0.7,2.2,1.8,2.2
			c1.2,0,2.1-0.8,2.1-2.4v-4.4H859z"/>
		<path class="st2" d="M867.1,151.2c-0.5,0.4-1.3,0.6-2.1,0.6c-2.1,0-3.3-1.1-3.3-3.2v-3.7h-1.4v-2h1.4v-2.2h2.6v2.2h2.2v2h-2.2v3.6
			c0,0.8,0.4,1.2,1.1,1.2c0.4,0,0.8-0.1,1-0.3L867.1,151.2z"/>
		<path class="st2" d="M877.7,146.5v5.1h-2.6v-4.7c0-1.4-0.7-2.1-1.8-2.1c-1.2,0-2.1,0.8-2.1,2.4v4.4h-2.6v-12.3h2.6v4.3
			c0.7-0.7,1.7-1.1,2.8-1.1C876.1,142.6,877.7,143.8,877.7,146.5z"/>
		<path class="st2" d="M879.4,147.2c0-2.7,2.1-4.6,4.9-4.6c2.8,0,4.9,1.9,4.9,4.6c0,2.7-2.1,4.6-4.9,4.6
			C881.5,151.8,879.4,149.9,879.4,147.2z M886.6,147.2c0-1.5-1-2.5-2.3-2.5c-1.3,0-2.3,0.9-2.3,2.5c0,1.5,1,2.5,2.3,2.5
			C885.6,149.7,886.6,148.7,886.6,147.2z"/>
		<path class="st2" d="M896.5,142.6v2.4c-0.2,0-0.4,0-0.6,0c-1.4,0-2.4,0.8-2.4,2.5v4.2h-2.6v-8.9h2.5v1.2
			C894,143,895.1,142.6,896.5,142.6z"/>
		<path class="st2" d="M897.7,140c0-0.8,0.6-1.4,1.6-1.4c1,0,1.6,0.6,1.6,1.4c0,0.9-0.6,1.5-1.6,1.5
			C898.3,141.5,897.7,140.9,897.7,140z M898,142.7h2.6v8.9H898V142.7z"/>
		<path class="st2" d="M910.3,149.7v2h-7.9v-1.6l4.5-5.4h-4.4v-2h7.7v1.6l-4.5,5.4H910.3z"/>
		<path class="st2" d="M919.9,146.6v5.1h-2.4v-1.1c-0.5,0.8-1.4,1.2-2.7,1.2c-2.1,0-3.3-1.2-3.3-2.7c0-1.6,1.1-2.7,3.8-2.7h2.1
			c0-1.1-0.7-1.8-2.1-1.8c-0.9,0-1.9,0.3-2.6,0.8l-0.9-1.8c1-0.7,2.4-1.1,3.8-1.1C918.3,142.6,919.9,143.9,919.9,146.6z
			 M917.3,148.8v-0.9h-1.8c-1.2,0-1.6,0.4-1.6,1c0,0.6,0.5,1.1,1.5,1.1C916.2,150,917,149.6,917.3,148.8z"/>
		<path class="st2" d="M927.9,151.2c-0.5,0.4-1.3,0.6-2.1,0.6c-2.1,0-3.3-1.1-3.3-3.2v-3.7h-1.4v-2h1.4v-2.2h2.6v2.2h2.2v2h-2.2v3.6
			c0,0.8,0.4,1.2,1.1,1.2c0.4,0,0.8-0.1,1-0.3L927.9,151.2z"/>
		<path class="st2" d="M929.1,140c0-0.8,0.6-1.4,1.6-1.4s1.6,0.6,1.6,1.4c0,0.9-0.6,1.5-1.6,1.5S929.1,140.9,929.1,140z
			 M929.4,142.7h2.6v8.9h-2.6V142.7z"/>
		<path class="st2" d="M933.7,147.2c0-2.7,2.1-4.6,4.9-4.6s4.9,1.9,4.9,4.6c0,2.7-2.1,4.6-4.9,4.6S933.7,149.9,933.7,147.2z
			 M940.9,147.2c0-1.5-1-2.5-2.3-2.5s-2.3,0.9-2.3,2.5c0,1.5,1,2.5,2.3,2.5S940.9,148.7,940.9,147.2z"/>
		<path class="st2" d="M954.3,146.5v5.1h-2.6v-4.7c0-1.4-0.7-2.1-1.8-2.1c-1.2,0-2.1,0.8-2.1,2.4v4.4h-2.6v-8.9h2.5v1
			c0.7-0.8,1.7-1.2,2.9-1.2C952.7,142.6,954.3,143.8,954.3,146.5z"/>
	</g>
</g>
<g id="Layer_1_1_">
	<path id="Path_11341_2_" class="st3" d="M1018.1,172.3h-3.5l1.3-3.3l9-22.3l1.1-2.7l-1.1-2.7l-9.1-22.4l-1.3-3.3h29.2V111h-36.3
		l13,32.2l0.4,0.9l-0.4,0.9l-13,32.1H1209v6.7l12.1-9l-12.1-9v6.5L1018.1,172.3L1018.1,172.3z"/>
	<path id="Path_11342_2_" class="st3" d="M1209,170v-4.1l12.1,9l-12.1,9v-6.7h-201.5l13-32.1l0.4-0.9l-0.4-0.9l-13-32.2h36.3v4.7
		h-29.2l1.3,3.3l9.1,22.4l1.1,2.7l-1.1,2.7l-9,22.3l-1.3,3.3H1209V170z"/>
	<g class="st4">
		<path class="st5" d="M1046.7,145.8c0-3.5,2.7-6,6.3-6c2,0,3.7,0.7,4.8,2.1l-1.7,1.6c-0.8-0.9-1.8-1.4-2.9-1.4
			c-2.2,0-3.7,1.5-3.7,3.7c0,2.2,1.5,3.7,3.7,3.7c1.2,0,2.1-0.5,2.9-1.4l1.7,1.6c-1.1,1.3-2.8,2.1-4.8,2.1
			C1049.4,151.8,1046.7,149.3,1046.7,145.8z"/>
		<path class="st5" d="M1058.4,147.2c0-2.7,2.1-4.6,4.9-4.6s4.9,1.9,4.9,4.6c0,2.7-2.1,4.6-4.9,4.6S1058.4,149.9,1058.4,147.2z
			 M1065.5,147.2c0-1.5-1-2.5-2.3-2.5c-1.3,0-2.3,0.9-2.3,2.5c0,1.5,1,2.5,2.3,2.5C1064.6,149.7,1065.5,148.7,1065.5,147.2z"/>
		<path class="st5" d="M1079,146.5v5.1h-2.6v-4.7c0-1.4-0.7-2.1-1.8-2.1c-1.2,0-2.1,0.8-2.1,2.4v4.4h-2.6v-8.9h2.5v1
			c0.7-0.8,1.7-1.2,2.9-1.2C1077.4,142.6,1079,143.8,1079,146.5z"/>
		<path class="st5" d="M1087.1,151.2c-0.5,0.4-1.3,0.6-2.1,0.6c-2.1,0-3.3-1.1-3.3-3.2v-3.7h-1.4v-2h1.4v-2.2h2.6v2.2h2.2v2h-2.2
			v3.6c0,0.8,0.4,1.2,1.1,1.2c0.4,0,0.8-0.1,1-0.3L1087.1,151.2z"/>
		<path class="st5" d="M1088.2,140c0-0.8,0.6-1.4,1.6-1.4s1.6,0.6,1.6,1.4c0,0.9-0.6,1.5-1.6,1.5S1088.2,140.9,1088.2,140z
			 M1088.5,142.7h2.6v8.9h-2.6V142.7z"/>
		<path class="st5" d="M1102.6,146.5v5.1h-2.6v-4.7c0-1.4-0.7-2.1-1.8-2.1c-1.2,0-2.1,0.8-2.1,2.4v4.4h-2.6v-8.9h2.5v1
			c0.7-0.8,1.7-1.2,2.9-1.2C1101,142.6,1102.6,143.8,1102.6,146.5z"/>
		<path class="st5" d="M1113.9,142.7v8.9h-2.4v-1.1c-0.7,0.8-1.7,1.2-2.8,1.2c-2.2,0-3.8-1.3-3.8-4v-5h2.6v4.7
			c0,1.5,0.7,2.2,1.8,2.2c1.2,0,2.1-0.8,2.1-2.4v-4.4H1113.9z"/>
		<path class="st5" d="M1115.6,147.2c0-2.7,2.1-4.6,4.9-4.6c2.8,0,4.9,1.9,4.9,4.6c0,2.7-2.1,4.6-4.9,4.6
			C1117.7,151.8,1115.6,149.9,1115.6,147.2z M1122.8,147.2c0-1.5-1-2.5-2.3-2.5s-2.3,0.9-2.3,2.5c0,1.5,1,2.5,2.3,2.5
			S1122.8,148.7,1122.8,147.2z"/>
		<path class="st5" d="M1136.1,142.7v8.9h-2.5v-1.1c-0.7,0.8-1.7,1.2-2.8,1.2c-2.2,0-3.8-1.3-3.8-4v-5h2.6v4.7
			c0,1.5,0.7,2.2,1.8,2.2c1.2,0,2.1-0.8,2.1-2.4v-4.4H1136.1z"/>
		<path class="st5" d="M1137.7,150.8l0.9-1.9c0.8,0.5,2,0.9,3.1,0.9c1.2,0,1.6-0.3,1.6-0.8c0-1.5-5.4,0-5.4-3.5
			c0-1.7,1.5-2.9,4.1-2.9c1.2,0,2.6,0.3,3.4,0.8l-0.9,1.8c-0.9-0.5-1.8-0.7-2.6-0.7c-1.2,0-1.7,0.4-1.7,0.8c0,1.5,5.4,0,5.4,3.6
			c0,1.7-1.5,2.8-4.2,2.8C1140,151.8,1138.5,151.4,1137.7,150.8z"/>
		<path class="st5" d="M1162.7,151.6l0-7l-3.4,5.7h-1.2l-3.4-5.6v6.8h-2.5V140h2.2l4.3,7.2l4.3-7.2h2.2l0,11.6H1162.7z"/>
		<path class="st5" d="M1167.1,147.2c0-2.7,2.1-4.6,4.9-4.6s4.9,1.9,4.9,4.6c0,2.7-2.1,4.6-4.9,4.6S1167.1,149.9,1167.1,147.2z
			 M1174.3,147.2c0-1.5-1-2.5-2.3-2.5c-1.3,0-2.3,0.9-2.3,2.5c0,1.5,1,2.5,2.3,2.5C1173.3,149.7,1174.3,148.7,1174.3,147.2z"/>
		<path class="st5" d="M1187.7,146.5v5.1h-2.6v-4.7c0-1.4-0.7-2.1-1.8-2.1c-1.2,0-2.1,0.8-2.1,2.4v4.4h-2.6v-8.9h2.5v1
			c0.7-0.8,1.7-1.2,2.9-1.2C1186.2,142.6,1187.7,143.8,1187.7,146.5z"/>
		<path class="st5" d="M1189.8,140c0-0.8,0.6-1.4,1.6-1.4s1.6,0.6,1.6,1.4c0,0.9-0.6,1.5-1.6,1.5S1189.8,140.9,1189.8,140z
			 M1190.1,142.7h2.6v8.9h-2.6V142.7z"/>
		<path class="st5" d="M1200.8,151.2c-0.5,0.4-1.3,0.6-2.1,0.6c-2.1,0-3.3-1.1-3.3-3.2v-3.7h-1.4v-2h1.4v-2.2h2.6v2.2h2.2v2h-2.2
			v3.6c0,0.8,0.4,1.2,1.1,1.2c0.4,0,0.8-0.1,1-0.3L1200.8,151.2z"/>
		<path class="st5" d="M1201.3,147.2c0-2.7,2.1-4.6,4.9-4.6c2.8,0,4.9,1.9,4.9,4.6c0,2.7-2.1,4.6-4.9,4.6
			C1203.4,151.8,1201.3,149.9,1201.3,147.2z M1208.5,147.2c0-1.5-1-2.5-2.3-2.5c-1.3,0-2.3,0.9-2.3,2.5c0,1.5,1,2.5,2.3,2.5
			C1207.5,149.7,1208.5,148.7,1208.5,147.2z"/>
		<path class="st5" d="M1218.3,142.6v2.4c-0.2,0-0.4,0-0.6,0c-1.4,0-2.4,0.8-2.4,2.5v4.2h-2.6v-8.9h2.5v1.2
			C1215.9,143,1217,142.6,1218.3,142.6z"/>
		<path class="st5" d="M1219.6,140c0-0.8,0.6-1.4,1.6-1.4c1,0,1.6,0.6,1.6,1.4c0,0.9-0.6,1.5-1.6,1.5
			C1220.2,141.5,1219.6,140.9,1219.6,140z M1219.9,142.7h2.6v8.9h-2.6V142.7z"/>
		<path class="st5" d="M1234,146.5v5.1h-2.6v-4.7c0-1.4-0.7-2.1-1.8-2.1c-1.2,0-2.1,0.8-2.1,2.4v4.4h-2.6v-8.9h2.5v1
			c0.7-0.8,1.7-1.2,2.9-1.2C1232.4,142.6,1234,143.8,1234,146.5z"/>
		<path class="st5" d="M1245.6,142.7v7.4c0,3.3-1.8,4.8-5,4.8c-1.7,0-3.3-0.4-4.4-1.2l1-1.9c0.8,0.6,2,1,3.1,1
			c1.8,0,2.6-0.8,2.6-2.4v-0.4c-0.7,0.7-1.7,1.1-2.8,1.1c-2.5,0-4.5-1.7-4.5-4.3c0-2.6,2-4.3,4.5-4.3c1.2,0,2.3,0.4,2.9,1.3v-1.1
			H1245.6z M1243,146.9c0-1.3-1-2.2-2.3-2.2s-2.4,0.9-2.4,2.2c0,1.3,1,2.2,2.4,2.2S1243,148.2,1243,146.9z"/>
	</g>
	<rect x="828.5" y="215.2" class="st6" width="136.7" height="62.3"/>
	<g class="st4">
		<path class="st7" d="M881,232.2c0.5,0.1,1,0.1,1.3,0.1c0.6,0,1-0.2,1.3-0.5c0.2-0.3,0.4-0.9,0.4-1.7v-12.4h1.4v12.4
			c0,1.2-0.2,2.1-0.7,2.6s-1.2,0.8-2.2,0.8c-0.4,0-0.9,0-1.5-0.1V232.2z"/>
		<path class="st7" d="M896.7,227.1h-6.6l-1.4,3.2h-1.5l5.5-12.6h1.3l5.5,12.6h-1.5L896.7,227.1z M896.2,225.9l-2.8-6.5l-2.8,6.5
			H896.2z"/>
		<path class="st7" d="M910.3,224.9c0.4,0.5,0.6,1.2,0.6,2c0,1.1-0.4,1.9-1.1,2.5c-0.7,0.6-1.8,0.9-3.1,0.9h-5.2v-12.6h5
			c1.3,0,2.3,0.3,3,0.9c0.7,0.6,1.1,1.4,1.1,2.4c0,0.7-0.2,1.2-0.5,1.7c-0.3,0.5-0.8,0.9-1.5,1.1C909.3,224,909.9,224.4,910.3,224.9
			z M902.9,223.3h3.4c0.9,0,1.7-0.2,2.1-0.6c0.5-0.4,0.7-0.9,0.7-1.7c0-1.4-1-2.2-2.9-2.2h-3.4V223.3z M908.7,228.6
			c0.5-0.4,0.7-0.9,0.7-1.7c0-1.5-1-2.3-2.9-2.3h-3.7v4.6h3.7C907.5,229.1,908.3,228.9,908.7,228.6z"/>
	</g>
	<g class="st4">
		<path class="st7" d="M849.1,248.3h-6.6l-1.4,3.2h-1.5l5.5-12.6h1.3l5.5,12.6h-1.5L849.1,248.3z M848.6,247.1l-2.8-6.5l-2.8,6.5
			H848.6z"/>
		<path class="st7" d="M861.1,242.6v8.9h-1.4V250c-0.3,0.5-0.7,1-1.2,1.2c-0.5,0.3-1.1,0.4-1.7,0.4c-1,0-1.8-0.3-2.4-0.9
			c-0.5-0.6-0.8-1.5-0.8-2.6v-5.5h1.4v5.5c0,0.8,0.2,1.4,0.5,1.8c0.3,0.4,0.8,0.6,1.5,0.6c0.8,0,1.4-0.3,1.9-0.8
			c0.5-0.5,0.7-1.2,0.7-2v-5H861.1z"/>
		<path class="st7" d="M865.8,243.8v4.9c0,0.7,0.1,1.1,0.4,1.4s0.7,0.4,1.1,0.4c0.3,0,0.6-0.1,1-0.2v1.2c-0.4,0.1-0.8,0.2-1.2,0.2
			c-0.8,0-1.5-0.2-2-0.7s-0.7-1.2-0.7-2.1v-5h-1.7v-1.1h1.7v-2.3l1.4-0.5v2.8h2.5v1.1H865.8z"/>
		<path class="st7" d="M877.7,245.9v5.6h-1.4V246c0-0.8-0.2-1.4-0.5-1.8c-0.3-0.4-0.8-0.6-1.6-0.6c-0.8,0-1.5,0.3-2,0.8
			c-0.5,0.5-0.7,1.2-0.7,2v5.1H870v-13h1.4v5.6c0.3-0.5,0.7-1,1.2-1.2c0.5-0.3,1.1-0.4,1.8-0.4C876.6,242.4,877.7,243.6,877.7,245.9
			z"/>
		<path class="st7" d="M881.8,251.1c-0.6-0.4-1.1-0.9-1.5-1.6s-0.5-1.5-0.5-2.4s0.2-1.7,0.5-2.4s0.8-1.2,1.5-1.6
			c0.6-0.4,1.4-0.6,2.2-0.6s1.6,0.2,2.2,0.6c0.6,0.4,1.1,0.9,1.5,1.6s0.5,1.5,0.5,2.4s-0.2,1.7-0.5,2.4s-0.8,1.2-1.5,1.6
			c-0.6,0.4-1.4,0.6-2.2,0.6S882.5,251.4,881.8,251.1z M886.1,249.6c0.5-0.6,0.7-1.4,0.7-2.6c0-1.1-0.2-1.9-0.7-2.5
			c-0.5-0.6-1.2-0.9-2-0.9c-0.9,0-1.5,0.3-2,0.9c-0.5,0.6-0.7,1.4-0.7,2.5c0,1.1,0.2,2,0.7,2.6c0.5,0.6,1.2,0.9,2,0.9
			S885.6,250.2,886.1,249.6z"/>
		<path class="st7" d="M895.4,242.5l0,1.3c-0.3-0.1-0.6-0.1-0.9-0.1c-0.9,0-1.5,0.3-1.9,0.8c-0.4,0.5-0.6,1.2-0.6,2v5.1h-1.4v-6.4
			c0-0.9,0-1.7-0.1-2.5h1.4l0.1,1.6c0.2-0.6,0.6-1.1,1.1-1.4c0.5-0.3,1.1-0.5,1.7-0.5C894.9,242.4,895.2,242.5,895.4,242.5z"/>
		<path class="st7" d="M898.5,238.9v1.6h-1.7v-1.6H898.5z M896.8,242.6h1.4v8.9h-1.4V242.6z"/>
		<path class="st7" d="M908.1,250.4v1.1h-7.5v-1l5.6-6.8h-5.4v-1.1h7.1v1l-5.5,6.7H908.1z"/>
		<path class="st7" d="M917.8,242.6v8.9h-1.4v-1.6c-0.3,0.6-0.7,1-1.2,1.3c-0.5,0.3-1.1,0.5-1.8,0.5c-0.8,0-1.5-0.2-2.1-0.6
			s-1.1-0.9-1.4-1.6s-0.5-1.5-0.5-2.4s0.2-1.7,0.5-2.4c0.3-0.7,0.8-1.2,1.4-1.6s1.3-0.6,2.1-0.6c0.7,0,1.3,0.2,1.8,0.5
			c0.5,0.3,0.9,0.7,1.2,1.3v-1.5H917.8z M915.7,249.6c0.5-0.6,0.7-1.4,0.7-2.5s-0.2-1.9-0.7-2.5s-1.1-0.9-2-0.9s-1.6,0.3-2,0.9
			s-0.7,1.5-0.7,2.5s0.2,1.9,0.7,2.5c0.5,0.6,1.2,0.9,2,0.9C914.6,250.5,915.2,250.2,915.7,249.6z"/>
		<path class="st7" d="M922.5,243.8v4.9c0,0.7,0.1,1.1,0.4,1.4c0.3,0.3,0.7,0.4,1.1,0.4c0.3,0,0.6-0.1,1-0.2v1.2
			c-0.4,0.1-0.8,0.2-1.2,0.2c-0.8,0-1.5-0.2-2-0.7s-0.7-1.2-0.7-2.1v-5h-1.7v-1.1h1.7v-2.3l1.4-0.5v2.8h2.5v1.1H922.5z"/>
		<path class="st7" d="M928.4,238.9v1.6h-1.7v-1.6H928.4z M926.8,242.6h1.4v8.9h-1.4V242.6z"/>
		<path class="st7" d="M932.4,251.1c-0.6-0.4-1.1-0.9-1.5-1.6s-0.5-1.5-0.5-2.4s0.2-1.7,0.5-2.4s0.8-1.2,1.5-1.6
			c0.6-0.4,1.4-0.6,2.2-0.6c0.8,0,1.6,0.2,2.2,0.6c0.6,0.4,1.1,0.9,1.5,1.6s0.5,1.5,0.5,2.4s-0.2,1.7-0.5,2.4s-0.8,1.2-1.5,1.6
			c-0.6,0.4-1.4,0.6-2.2,0.6C933.8,251.6,933.1,251.4,932.4,251.1z M936.7,249.6c0.5-0.6,0.7-1.4,0.7-2.6c0-1.1-0.2-1.9-0.7-2.5
			c-0.5-0.6-1.2-0.9-2-0.9c-0.9,0-1.5,0.3-2,0.9c-0.5,0.6-0.7,1.4-0.7,2.5c0,1.1,0.2,2,0.7,2.6c0.5,0.6,1.2,0.9,2,0.9
			S936.2,250.2,936.7,249.6z"/>
		<path class="st7" d="M948.7,245.9v5.6h-1.4V246c0-0.8-0.2-1.4-0.5-1.8c-0.3-0.4-0.8-0.6-1.6-0.6c-0.8,0-1.5,0.3-2,0.8
			c-0.5,0.5-0.7,1.2-0.7,2v5.1h-1.4v-6.4c0-0.9,0-1.7-0.1-2.5h1.4l0.1,1.6c0.3-0.6,0.7-1,1.2-1.3c0.5-0.3,1.2-0.5,1.9-0.5
			C947.6,242.4,948.7,243.6,948.7,245.9z"/>
	</g>
	<g class="st4">
		<path class="st7" d="M865.5,260.1h5c1.3,0,2.3,0.3,3,0.9c0.7,0.6,1.1,1.5,1.1,2.6c0,1.1-0.4,2-1.1,2.6c-0.7,0.6-1.7,0.9-3,0.9
			h-3.6v5.5h-1.4V260.1z M870.4,266c0.9,0,1.6-0.2,2.1-0.6c0.5-0.4,0.7-1,0.7-1.7c0-0.8-0.2-1.3-0.7-1.7s-1.2-0.6-2.1-0.6h-3.4v4.6
			H870.4z"/>
		<path class="st7" d="M881.6,263.7l0,1.3c-0.3-0.1-0.6-0.1-0.9-0.1c-0.9,0-1.5,0.3-1.9,0.8c-0.4,0.5-0.6,1.2-0.6,2v5.1h-1.4v-6.4
			c0-0.9,0-1.7-0.1-2.5h1.4l0.1,1.6c0.2-0.6,0.6-1.1,1.1-1.4c0.5-0.3,1.1-0.5,1.7-0.5C881,263.6,881.3,263.7,881.6,263.7z"/>
		<path class="st7" d="M884.3,272.3c-0.6-0.4-1.1-0.9-1.5-1.6c-0.3-0.7-0.5-1.5-0.5-2.4s0.2-1.7,0.5-2.4c0.3-0.7,0.8-1.2,1.5-1.6
			c0.6-0.4,1.4-0.6,2.2-0.6s1.6,0.2,2.2,0.6s1.1,0.9,1.5,1.6c0.3,0.7,0.5,1.5,0.5,2.4s-0.2,1.7-0.5,2.4c-0.3,0.7-0.8,1.2-1.5,1.6
			s-1.4,0.6-2.2,0.6S884.9,272.6,884.3,272.3z M888.5,270.8c0.5-0.6,0.7-1.4,0.7-2.6c0-1.1-0.2-1.9-0.7-2.5c-0.5-0.6-1.2-0.9-2-0.9
			c-0.9,0-1.5,0.3-2,0.9c-0.5,0.6-0.7,1.4-0.7,2.5c0,1.1,0.2,2,0.7,2.6c0.5,0.6,1.2,0.9,2,0.9S888.1,271.4,888.5,270.8z"/>
		<path class="st7" d="M894.4,272.3c-0.6-0.4-1.1-0.9-1.5-1.6c-0.3-0.7-0.5-1.5-0.5-2.4s0.2-1.7,0.5-2.4c0.4-0.7,0.9-1.2,1.5-1.6
			s1.4-0.6,2.3-0.6c0.6,0,1.2,0.1,1.7,0.3c0.6,0.2,1,0.5,1.4,0.9l-0.5,1.1c-0.4-0.4-0.9-0.6-1.3-0.8s-0.8-0.2-1.3-0.2
			c-0.9,0-1.6,0.3-2.1,0.9c-0.5,0.6-0.8,1.5-0.8,2.5c0,1.1,0.3,1.9,0.8,2.5c0.5,0.6,1.2,0.9,2.1,0.9c0.4,0,0.9-0.1,1.3-0.2
			c0.4-0.2,0.8-0.4,1.3-0.8l0.5,1.1c-0.4,0.4-0.9,0.6-1.4,0.8c-0.6,0.2-1.2,0.3-1.8,0.3C895.8,272.8,895,272.6,894.4,272.3z"/>
		<path class="st7" d="M909.1,268.2h-6.5c0,1.1,0.3,2,0.8,2.6c0.5,0.6,1.3,0.9,2.2,0.9c1,0,2-0.3,2.9-1l0.5,1
			c-0.4,0.4-0.9,0.7-1.5,0.9c-0.6,0.2-1.2,0.3-1.9,0.3c-1.4,0-2.5-0.4-3.3-1.2c-0.8-0.8-1.2-1.9-1.2-3.4c0-0.9,0.2-1.7,0.5-2.4
			c0.4-0.7,0.8-1.2,1.5-1.6c0.6-0.4,1.4-0.6,2.2-0.6c1.2,0,2.1,0.4,2.8,1.2c0.7,0.8,1,1.8,1,3.2V268.2z M903.5,265.4
			c-0.5,0.4-0.8,1.1-0.9,1.9h5.2c-0.1-0.8-0.3-1.5-0.7-1.9c-0.4-0.4-1-0.7-1.7-0.7C904.6,264.7,904,265,903.5,265.4z"/>
		<path class="st7" d="M910.7,271.7l0.5-1.1c0.5,0.4,1,0.6,1.5,0.8c0.5,0.2,1,0.2,1.7,0.2c0.7,0,1.2-0.1,1.5-0.3
			c0.3-0.2,0.5-0.6,0.5-1c0-0.4-0.1-0.6-0.4-0.8s-0.6-0.4-1.2-0.5l-1.5-0.4c-0.7-0.2-1.3-0.5-1.7-0.9c-0.4-0.4-0.6-0.9-0.6-1.5
			c0-0.8,0.3-1.4,0.9-1.9s1.4-0.7,2.5-0.7c0.6,0,1.2,0.1,1.8,0.3c0.6,0.2,1,0.5,1.4,0.9l-0.5,1c-0.8-0.7-1.7-1-2.7-1
			c-0.6,0-1.1,0.1-1.5,0.4c-0.3,0.2-0.5,0.6-0.5,1c0,0.4,0.1,0.7,0.3,0.9c0.2,0.2,0.6,0.4,1,0.5l1.5,0.4c0.8,0.2,1.4,0.5,1.8,0.9
			c0.4,0.4,0.6,0.9,0.6,1.5c0,0.8-0.3,1.4-0.9,1.8c-0.6,0.5-1.5,0.7-2.5,0.7C912.8,272.8,911.6,272.5,910.7,271.7z"/>
		<path class="st7" d="M919.5,271.7l0.5-1.1c0.5,0.4,1,0.6,1.5,0.8c0.5,0.2,1,0.2,1.7,0.2c0.7,0,1.2-0.1,1.5-0.3
			c0.3-0.2,0.5-0.6,0.5-1c0-0.4-0.1-0.6-0.4-0.8c-0.2-0.2-0.6-0.4-1.2-0.5l-1.5-0.4c-0.7-0.2-1.3-0.5-1.7-0.9s-0.6-0.9-0.6-1.5
			c0-0.8,0.3-1.4,0.9-1.9s1.4-0.7,2.5-0.7c0.6,0,1.2,0.1,1.8,0.3c0.6,0.2,1,0.5,1.4,0.9l-0.5,1c-0.8-0.7-1.7-1-2.7-1
			c-0.6,0-1.1,0.1-1.5,0.4c-0.3,0.2-0.5,0.6-0.5,1c0,0.4,0.1,0.7,0.3,0.9s0.6,0.4,1.1,0.5l1.5,0.4c0.8,0.2,1.4,0.5,1.8,0.9
			c0.4,0.4,0.6,0.9,0.6,1.5c0,0.8-0.3,1.4-0.9,1.8c-0.6,0.5-1.5,0.7-2.5,0.7C921.5,272.8,920.4,272.5,919.5,271.7z"/>
	</g>
	<rect x="828.5" y="12.1" class="st6" width="136.7" height="62.3"/>
	<g class="st4">
		<path class="st7" d="M874.9,24h-6.6l-1.4,3.2h-1.5l5.5-12.6h1.3l5.5,12.6h-1.5L874.9,24z M874.4,22.8l-2.8-6.5l-2.8,6.5H874.4z"/>
		<path class="st7" d="M887.4,18.4v8.8c0,1.3-0.3,2.3-1,3s-1.7,1-3,1c-1.4,0-2.5-0.3-3.5-0.9l0.2-1.2c0.6,0.3,1.1,0.5,1.6,0.7
			c0.5,0.1,1.1,0.2,1.7,0.2c0.9,0,1.5-0.2,1.9-0.7s0.7-1.1,0.7-2v-2.1c-0.3,0.6-0.7,1-1.2,1.3s-1.1,0.5-1.9,0.5
			c-0.8,0-1.5-0.2-2.1-0.5c-0.6-0.4-1.1-0.9-1.4-1.6c-0.3-0.7-0.5-1.4-0.5-2.3s0.2-1.6,0.5-2.3c0.3-0.7,0.8-1.2,1.4-1.6
			c0.6-0.4,1.3-0.5,2.1-0.5c0.7,0,1.3,0.2,1.8,0.5c0.5,0.3,0.9,0.7,1.2,1.3v-1.5H887.4z M885.2,24.9c0.5-0.6,0.7-1.4,0.7-2.4
			c0-1-0.2-1.8-0.7-2.4c-0.5-0.6-1.2-0.9-2-0.9c-0.9,0-1.6,0.3-2.1,0.9c-0.5,0.6-0.8,1.4-0.8,2.4c0,1,0.2,1.8,0.8,2.4
			c0.5,0.6,1.2,0.9,2.1,0.9C884.1,25.8,884.8,25.5,885.2,24.9z"/>
		<path class="st7" d="M897.6,22.8h-6.5c0,1.1,0.3,2,0.8,2.6c0.5,0.6,1.3,0.9,2.2,0.9c1,0,2-0.3,2.9-1l0.5,1
			c-0.4,0.4-0.9,0.7-1.5,0.9c-0.6,0.2-1.2,0.3-1.9,0.3c-1.4,0-2.5-0.4-3.3-1.2c-0.8-0.8-1.2-1.9-1.2-3.4c0-0.9,0.2-1.7,0.5-2.4
			c0.4-0.7,0.8-1.2,1.5-1.6c0.6-0.4,1.4-0.6,2.2-0.6c1.2,0,2.1,0.4,2.8,1.2c0.7,0.8,1,1.8,1,3.2V22.8z M892,19.9
			c-0.5,0.4-0.8,1.1-0.9,1.9h5.2c-0.1-0.8-0.3-1.5-0.7-1.9c-0.4-0.4-1-0.7-1.7-0.7C893.1,19.3,892.5,19.5,892,19.9z"/>
		<path class="st7" d="M907.4,21.7v5.6H906v-5.5c0-0.8-0.2-1.4-0.5-1.8c-0.3-0.4-0.8-0.6-1.6-0.6c-0.8,0-1.5,0.3-2,0.8
			c-0.5,0.5-0.7,1.2-0.7,2v5.1h-1.4v-6.4c0-0.9,0-1.7-0.1-2.5h1.4l0.1,1.6c0.3-0.6,0.7-1,1.2-1.3c0.5-0.3,1.2-0.5,1.9-0.5
			C906.3,18.2,907.4,19.3,907.4,21.7z"/>
		<path class="st7" d="M911.6,26.8c-0.6-0.4-1.1-0.9-1.5-1.6c-0.3-0.7-0.5-1.5-0.5-2.4s0.2-1.7,0.5-2.4c0.4-0.7,0.9-1.2,1.5-1.6
			s1.4-0.6,2.3-0.6c0.6,0,1.2,0.1,1.7,0.3c0.6,0.2,1,0.5,1.4,0.9l-0.5,1.1c-0.4-0.4-0.9-0.6-1.3-0.8s-0.8-0.2-1.3-0.2
			c-0.9,0-1.6,0.3-2.1,0.9c-0.5,0.6-0.8,1.5-0.8,2.5c0,1.1,0.3,1.9,0.8,2.5c0.5,0.6,1.2,0.9,2.1,0.9c0.4,0,0.9-0.1,1.3-0.2
			c0.4-0.2,0.8-0.4,1.3-0.8l0.5,1.1c-0.4,0.4-0.9,0.6-1.4,0.8c-0.6,0.2-1.2,0.3-1.8,0.3C913,27.4,912.2,27.2,911.6,26.8z"/>
		<path class="st7" d="M926.6,18.4l-4.1,9.7c-0.4,1-1,1.8-1.6,2.2c-0.7,0.5-1.5,0.8-2.4,1l-0.3-1.1c0.8-0.2,1.5-0.4,1.9-0.8
			c0.4-0.3,0.8-0.8,1.1-1.4l0.4-0.8l-3.8-8.8h1.5l3,7.3l3-7.3H926.6z"/>
	</g>
	<g class="st4">
		<path class="st7" d="M849.1,45.2h-6.6l-1.4,3.2h-1.5l5.5-12.6h1.3l5.5,12.6h-1.5L849.1,45.2z M848.6,44l-2.8-6.5l-2.8,6.5H848.6z"
			/>
		<path class="st7" d="M861.1,39.6v8.9h-1.4v-1.5c-0.3,0.5-0.7,1-1.2,1.2c-0.5,0.3-1.1,0.4-1.7,0.4c-1,0-1.8-0.3-2.4-0.9
			c-0.5-0.6-0.8-1.5-0.8-2.6v-5.5h1.4V45c0,0.8,0.2,1.4,0.5,1.8c0.3,0.4,0.8,0.6,1.5,0.6c0.8,0,1.4-0.3,1.9-0.8
			c0.5-0.5,0.7-1.2,0.7-2v-5H861.1z"/>
		<path class="st7" d="M865.8,40.7v4.9c0,0.7,0.1,1.1,0.4,1.4c0.3,0.3,0.7,0.4,1.1,0.4c0.3,0,0.6-0.1,1-0.2v1.2
			c-0.4,0.1-0.8,0.2-1.2,0.2c-0.8,0-1.5-0.2-2-0.7s-0.7-1.2-0.7-2.1v-5h-1.7v-1.1h1.7v-2.3l1.4-0.5v2.8h2.5v1.1H865.8z"/>
		<path class="st7" d="M877.7,42.9v5.6h-1.4v-5.5c0-0.8-0.2-1.4-0.5-1.8c-0.3-0.4-0.8-0.6-1.6-0.6c-0.8,0-1.5,0.3-2,0.8
			c-0.5,0.5-0.7,1.2-0.7,2v5.1h-1.4v-13h1.4V41c0.3-0.5,0.7-1,1.2-1.2c0.5-0.3,1.1-0.4,1.8-0.4C876.6,39.4,877.7,40.5,877.7,42.9z"
			/>
		<path class="st7" d="M881.9,48c-0.6-0.4-1.1-0.9-1.5-1.6c-0.3-0.7-0.5-1.5-0.5-2.4s0.2-1.7,0.5-2.4c0.3-0.7,0.8-1.2,1.5-1.6
			c0.6-0.4,1.4-0.6,2.2-0.6s1.6,0.2,2.2,0.6s1.1,0.9,1.5,1.6c0.3,0.7,0.5,1.5,0.5,2.4s-0.2,1.7-0.5,2.4c-0.3,0.7-0.8,1.2-1.5,1.6
			s-1.4,0.6-2.2,0.6S882.5,48.4,881.9,48z M886.1,46.5c0.5-0.6,0.7-1.4,0.7-2.6c0-1.1-0.2-1.9-0.7-2.5c-0.5-0.6-1.2-0.9-2-0.9
			c-0.9,0-1.5,0.3-2,0.9c-0.5,0.6-0.7,1.4-0.7,2.5c0,1.1,0.2,2,0.7,2.6c0.5,0.6,1.2,0.9,2,0.9S885.6,47.1,886.1,46.5z"/>
		<path class="st7" d="M895.4,39.5l0,1.3c-0.3-0.1-0.6-0.1-0.9-0.1c-0.9,0-1.5,0.3-1.9,0.8c-0.4,0.5-0.6,1.2-0.6,2v5.1h-1.4v-6.4
			c0-0.9,0-1.7-0.1-2.5h1.4l0.1,1.6c0.2-0.6,0.6-1.1,1.1-1.4c0.5-0.3,1.1-0.5,1.7-0.5C894.9,39.4,895.2,39.4,895.4,39.5z"/>
		<path class="st7" d="M898.5,35.8v1.6h-1.7v-1.6H898.5z M896.9,39.6h1.4v8.9h-1.4V39.6z"/>
		<path class="st7" d="M908.1,47.3v1.1h-7.5v-1l5.6-6.8h-5.4v-1.1h7.1v1l-5.5,6.7H908.1z"/>
		<path class="st7" d="M917.9,39.6v8.9h-1.4v-1.6c-0.3,0.6-0.7,1-1.2,1.3c-0.5,0.3-1.1,0.5-1.8,0.5c-0.8,0-1.5-0.2-2.1-0.6
			c-0.6-0.4-1.1-0.9-1.4-1.6c-0.3-0.7-0.5-1.5-0.5-2.4s0.2-1.7,0.5-2.4c0.3-0.7,0.8-1.2,1.4-1.6c0.6-0.4,1.3-0.6,2.1-0.6
			c0.7,0,1.3,0.2,1.8,0.5c0.5,0.3,0.9,0.7,1.2,1.3v-1.5H917.9z M915.7,46.5c0.5-0.6,0.7-1.4,0.7-2.5s-0.2-1.9-0.7-2.5
			s-1.1-0.9-2-0.9s-1.6,0.3-2,0.9s-0.7,1.5-0.7,2.5s0.2,1.9,0.7,2.5c0.5,0.6,1.2,0.9,2,0.9C914.6,47.4,915.3,47.1,915.7,46.5z"/>
		<path class="st7" d="M922.5,40.7v4.9c0,0.7,0.1,1.1,0.4,1.4s0.7,0.4,1.1,0.4c0.3,0,0.6-0.1,1-0.2v1.2c-0.4,0.1-0.8,0.2-1.2,0.2
			c-0.8,0-1.5-0.2-2-0.7s-0.7-1.2-0.7-2.1v-5h-1.7v-1.1h1.7v-2.3l1.4-0.5v2.8h2.5v1.1H922.5z"/>
		<path class="st7" d="M928.4,35.8v1.6h-1.7v-1.6H928.4z M926.8,39.6h1.4v8.9h-1.4V39.6z"/>
		<path class="st7" d="M932.5,48c-0.6-0.4-1.1-0.9-1.5-1.6c-0.3-0.7-0.5-1.5-0.5-2.4s0.2-1.7,0.5-2.4c0.3-0.7,0.8-1.2,1.5-1.6
			c0.6-0.4,1.4-0.6,2.2-0.6s1.6,0.2,2.2,0.6s1.1,0.9,1.5,1.6c0.3,0.7,0.5,1.5,0.5,2.4s-0.2,1.7-0.5,2.4c-0.3,0.7-0.8,1.2-1.5,1.6
			s-1.4,0.6-2.2,0.6S933.1,48.4,932.5,48z M936.7,46.5c0.5-0.6,0.7-1.4,0.7-2.6c0-1.1-0.2-1.9-0.7-2.5c-0.5-0.6-1.2-0.9-2-0.9
			c-0.9,0-1.5,0.3-2,0.9c-0.5,0.6-0.7,1.4-0.7,2.5c0,1.1,0.2,2,0.7,2.6c0.5,0.6,1.2,0.9,2,0.9S936.2,47.1,936.7,46.5z"/>
		<path class="st7" d="M948.7,42.9v5.6h-1.4v-5.5c0-0.8-0.2-1.4-0.5-1.8c-0.3-0.4-0.8-0.6-1.6-0.6c-0.8,0-1.5,0.3-2,0.8
			c-0.5,0.5-0.7,1.2-0.7,2v5.1h-1.4v-6.4c0-0.9,0-1.7-0.1-2.5h1.4l0.1,1.6c0.3-0.6,0.7-1,1.2-1.3c0.5-0.3,1.2-0.5,1.9-0.5
			C947.7,39.4,948.7,40.5,948.7,42.9z"/>
	</g>
	<g class="st4">
		<path class="st7" d="M865.4,57.1h5c1.3,0,2.3,0.3,3,0.9s1.1,1.5,1.1,2.6c0,1.1-0.4,2-1.1,2.6s-1.7,0.9-3,0.9h-3.6v5.5h-1.4V57.1z
			 M870.3,62.9c0.9,0,1.6-0.2,2.1-0.6c0.5-0.4,0.7-1,0.7-1.7c0-0.8-0.2-1.3-0.7-1.7s-1.2-0.6-2.1-0.6h-3.4v4.6H870.3z"/>
		<path class="st7" d="M881.5,60.7l0,1.3c-0.3-0.1-0.6-0.1-0.9-0.1c-0.9,0-1.5,0.3-1.9,0.8c-0.4,0.5-0.6,1.2-0.6,2v5.1h-1.4v-6.4
			c0-0.9,0-1.7-0.1-2.5h1.4l0.1,1.6c0.2-0.6,0.6-1.1,1.1-1.4c0.5-0.3,1.1-0.5,1.7-0.5C881,60.6,881.2,60.6,881.5,60.7z"/>
		<path class="st7" d="M884.2,69.2c-0.6-0.4-1.1-0.9-1.5-1.6c-0.3-0.7-0.5-1.5-0.5-2.4s0.2-1.7,0.5-2.4c0.3-0.7,0.8-1.2,1.5-1.6
			s1.4-0.6,2.2-0.6c0.8,0,1.6,0.2,2.2,0.6c0.6,0.4,1.1,0.9,1.5,1.6c0.3,0.7,0.5,1.5,0.5,2.4s-0.2,1.7-0.5,2.4
			c-0.3,0.7-0.8,1.2-1.5,1.6c-0.6,0.4-1.4,0.6-2.2,0.6C885.6,69.8,884.9,69.6,884.2,69.2z M888.5,67.7c0.5-0.6,0.7-1.4,0.7-2.6
			c0-1.1-0.2-1.9-0.7-2.5c-0.5-0.6-1.2-0.9-2-0.9c-0.9,0-1.5,0.3-2,0.9c-0.5,0.6-0.7,1.4-0.7,2.5c0,1.1,0.2,2,0.7,2.6
			c0.5,0.6,1.2,0.9,2,0.9S888,68.3,888.5,67.7z"/>
		<path class="st7" d="M894.3,69.2c-0.6-0.4-1.1-0.9-1.5-1.6c-0.3-0.7-0.5-1.5-0.5-2.4s0.2-1.7,0.5-2.4c0.4-0.7,0.9-1.2,1.5-1.6
			s1.4-0.6,2.3-0.6c0.6,0,1.2,0.1,1.7,0.3s1,0.5,1.4,0.9l-0.5,1.1c-0.4-0.4-0.9-0.6-1.3-0.8s-0.8-0.2-1.3-0.2
			c-0.9,0-1.6,0.3-2.1,0.9s-0.8,1.5-0.8,2.5c0,1.1,0.3,1.9,0.8,2.5c0.5,0.6,1.2,0.9,2.1,0.9c0.4,0,0.9-0.1,1.3-0.2
			c0.4-0.2,0.9-0.4,1.3-0.8l0.5,1.1c-0.4,0.4-0.9,0.6-1.4,0.8c-0.6,0.2-1.2,0.3-1.8,0.3C895.7,69.8,895,69.6,894.3,69.2z"/>
		<path class="st7" d="M909,65.2h-6.5c0,1.1,0.3,2,0.8,2.6c0.5,0.6,1.3,0.9,2.2,0.9c1,0,2-0.3,2.9-1l0.5,1c-0.4,0.4-0.9,0.7-1.5,0.9
			s-1.2,0.3-1.9,0.3c-1.4,0-2.5-0.4-3.3-1.2c-0.8-0.8-1.2-1.9-1.2-3.4c0-0.9,0.2-1.7,0.5-2.4c0.4-0.7,0.8-1.2,1.5-1.6
			s1.4-0.6,2.2-0.6c1.2,0,2.1,0.4,2.8,1.2c0.7,0.8,1,1.8,1,3.2V65.2z M903.5,62.3c-0.5,0.4-0.8,1.1-0.9,1.9h5.2
			c-0.1-0.8-0.3-1.5-0.7-1.9c-0.4-0.4-1-0.7-1.7-0.7C904.5,61.7,903.9,61.9,903.5,62.3z"/>
		<path class="st7" d="M910.7,68.6l0.5-1.1c0.5,0.4,1,0.6,1.5,0.8c0.5,0.2,1,0.2,1.7,0.2c0.7,0,1.2-0.1,1.5-0.3
			c0.3-0.2,0.5-0.6,0.5-1c0-0.4-0.1-0.6-0.4-0.8c-0.2-0.2-0.6-0.4-1.2-0.5l-1.5-0.4c-0.7-0.2-1.3-0.5-1.7-0.9s-0.6-0.9-0.6-1.5
			c0-0.8,0.3-1.4,0.9-1.9s1.4-0.7,2.5-0.7c0.6,0,1.2,0.1,1.8,0.3c0.6,0.2,1,0.5,1.4,0.9l-0.5,1c-0.8-0.7-1.7-1-2.7-1
			c-0.6,0-1.1,0.1-1.5,0.4c-0.3,0.2-0.5,0.6-0.5,1c0,0.4,0.1,0.7,0.3,0.9s0.6,0.4,1.1,0.5l1.5,0.4c0.8,0.2,1.4,0.5,1.8,0.9
			c0.4,0.4,0.6,0.9,0.6,1.5c0,0.8-0.3,1.4-0.9,1.8c-0.6,0.5-1.5,0.7-2.5,0.7C912.7,69.8,911.5,69.4,910.7,68.6z"/>
		<path class="st7" d="M919.4,68.6l0.5-1.1c0.5,0.4,1,0.6,1.5,0.8c0.5,0.2,1,0.2,1.7,0.2c0.7,0,1.2-0.1,1.5-0.3
			c0.3-0.2,0.5-0.6,0.5-1c0-0.4-0.1-0.6-0.4-0.8s-0.6-0.4-1.2-0.5l-1.5-0.4c-0.7-0.2-1.3-0.5-1.7-0.9c-0.4-0.4-0.6-0.9-0.6-1.5
			c0-0.8,0.3-1.4,0.9-1.9s1.4-0.7,2.5-0.7c0.6,0,1.2,0.1,1.8,0.3c0.6,0.2,1,0.5,1.4,0.9l-0.5,1c-0.8-0.7-1.7-1-2.7-1
			c-0.6,0-1.1,0.1-1.5,0.4c-0.3,0.2-0.5,0.6-0.5,1c0,0.4,0.1,0.7,0.3,0.9c0.2,0.2,0.6,0.4,1,0.5l1.5,0.4c0.8,0.2,1.4,0.5,1.8,0.9
			c0.4,0.4,0.6,0.9,0.6,1.5c0,0.8-0.3,1.4-0.9,1.8c-0.6,0.5-1.5,0.7-2.5,0.7C921.5,69.8,920.3,69.4,919.4,68.6z"/>
	</g>
	<rect x="624.2" y="225.8" class="st6" width="136.7" height="41.1"/>
	<g class="st4">
		<path class="st7" d="M642.6,228.3h7.8v1.2H644v4.4h6v1.2h-6v5.8h-1.4V228.3z"/>
		<path class="st7" d="M659.6,232v8.9h-1.4v-1.5c-0.3,0.5-0.7,1-1.2,1.2c-0.5,0.3-1.1,0.4-1.7,0.4c-1,0-1.8-0.3-2.4-0.9
			c-0.5-0.6-0.8-1.5-0.8-2.6V232h1.4v5.5c0,0.8,0.2,1.4,0.5,1.8c0.3,0.4,0.8,0.6,1.5,0.6c0.8,0,1.4-0.3,1.9-0.8
			c0.5-0.5,0.7-1.2,0.7-2v-5H659.6z"/>
		<path class="st7" d="M662.4,227.9h1.4v13h-1.4V227.9z"/>
		<path class="st7" d="M666.6,227.9h1.4v13h-1.4V227.9z"/>
		<path class="st7" d="M674.9,239.5l0.5-1.1c0.6,0.5,1.3,0.9,1.9,1.1s1.4,0.3,2.3,0.3c1,0,1.8-0.2,2.3-0.6c0.5-0.4,0.8-1,0.8-1.7
			c0-0.4-0.1-0.8-0.4-1c-0.3-0.3-0.6-0.5-1-0.6c-0.4-0.2-1-0.3-1.7-0.5c-1-0.2-1.8-0.4-2.4-0.7c-0.6-0.2-1.1-0.6-1.5-1.1
			c-0.4-0.5-0.6-1.1-0.6-1.8c0-0.7,0.2-1.4,0.6-1.9c0.4-0.5,0.9-1,1.6-1.3c0.7-0.3,1.5-0.5,2.4-0.5c0.9,0,1.7,0.1,2.4,0.4
			c0.8,0.3,1.4,0.7,1.9,1.2l-0.6,1.1c-0.6-0.5-1.2-0.9-1.8-1.1c-0.6-0.2-1.3-0.4-2-0.4c-1,0-1.7,0.2-2.3,0.6c-0.6,0.4-0.8,1-0.8,1.7
			c0,0.6,0.2,1.1,0.7,1.4c0.5,0.3,1.2,0.6,2.2,0.8c1.1,0.3,1.9,0.5,2.6,0.7s1.1,0.5,1.5,1s0.6,1,0.6,1.8c0,0.7-0.2,1.3-0.6,1.9
			c-0.4,0.5-0.9,1-1.6,1.2s-1.5,0.4-2.5,0.4C677.6,241,676,240.5,674.9,239.5z"/>
		<path class="st7" d="M693.8,236.4h-6.5c0,1.1,0.3,2,0.8,2.6c0.5,0.6,1.3,0.9,2.2,0.9c1,0,2-0.3,2.9-1l0.5,1
			c-0.4,0.4-0.9,0.7-1.5,0.9c-0.6,0.2-1.2,0.3-1.9,0.3c-1.4,0-2.5-0.4-3.3-1.2c-0.8-0.8-1.2-1.9-1.2-3.4c0-0.9,0.2-1.7,0.5-2.4
			c0.4-0.7,0.8-1.2,1.5-1.6c0.6-0.4,1.4-0.6,2.2-0.6c1.2,0,2.1,0.4,2.8,1.2c0.7,0.8,1,1.8,1,3.2V236.4z M688.2,233.6
			c-0.5,0.4-0.8,1.1-0.9,1.9h5.2c-0.1-0.8-0.3-1.5-0.7-1.9c-0.4-0.4-1-0.7-1.7-0.7C689.3,232.9,688.7,233.1,688.2,233.6z"/>
		<path class="st7" d="M697.5,240.5c-0.6-0.4-1.1-0.9-1.5-1.6c-0.3-0.7-0.5-1.5-0.5-2.4s0.2-1.7,0.5-2.4c0.4-0.7,0.9-1.2,1.5-1.6
			s1.4-0.6,2.3-0.6c0.6,0,1.2,0.1,1.7,0.3c0.6,0.2,1,0.5,1.4,0.9l-0.5,1.1c-0.4-0.4-0.9-0.6-1.3-0.8s-0.8-0.2-1.3-0.2
			c-0.9,0-1.6,0.3-2.1,0.9c-0.5,0.6-0.8,1.5-0.8,2.5c0,1.1,0.3,1.9,0.8,2.5c0.5,0.6,1.2,0.9,2.1,0.9c0.4,0,0.9-0.1,1.3-0.2
			c0.4-0.2,0.8-0.4,1.3-0.8l0.5,1.1c-0.4,0.4-0.9,0.6-1.4,0.8c-0.6,0.2-1.2,0.3-1.8,0.3C698.9,241,698.1,240.8,697.5,240.5z"/>
		<path class="st7" d="M712.2,232v8.9h-1.4v-1.5c-0.3,0.5-0.7,1-1.2,1.2c-0.5,0.3-1.1,0.4-1.7,0.4c-1,0-1.8-0.3-2.4-0.9
			c-0.5-0.6-0.8-1.5-0.8-2.6V232h1.4v5.5c0,0.8,0.2,1.4,0.5,1.8c0.3,0.4,0.8,0.6,1.5,0.6c0.8,0,1.4-0.3,1.9-0.8
			c0.5-0.5,0.7-1.2,0.7-2v-5H712.2z"/>
		<path class="st7" d="M719.9,231.9l0,1.3c-0.3-0.1-0.6-0.1-0.9-0.1c-0.9,0-1.5,0.3-1.9,0.8c-0.4,0.5-0.6,1.2-0.6,2v5.1h-1.4v-6.4
			c0-0.9,0-1.7-0.1-2.5h1.4l0.1,1.6c0.2-0.6,0.6-1.1,1.1-1.4c0.5-0.3,1.1-0.5,1.7-0.5C719.3,231.8,719.6,231.8,719.9,231.9z"/>
		<path class="st7" d="M722.9,228.3v1.6h-1.7v-1.6H722.9z M721.3,232h1.4v8.9h-1.4V232z"/>
		<path class="st7" d="M727.4,233.2v4.9c0,0.7,0.1,1.1,0.4,1.4c0.3,0.3,0.7,0.4,1.1,0.4c0.3,0,0.6-0.1,1-0.2v1.2
			c-0.4,0.1-0.8,0.2-1.2,0.2c-0.8,0-1.5-0.2-2-0.7s-0.7-1.2-0.7-2.1v-5h-1.7V232h1.7v-2.3l1.4-0.5v2.8h2.5v1.1H727.4z"/>
		<path class="st7" d="M739.6,232l-4.1,9.7c-0.4,1-1,1.8-1.6,2.2c-0.7,0.5-1.5,0.8-2.4,1l-0.3-1.1c0.8-0.2,1.5-0.4,1.9-0.8
			c0.4-0.3,0.8-0.8,1.1-1.4l0.4-0.8l-3.8-8.8h1.5l3,7.3l3-7.3H739.6z"/>
	</g>
	<g class="st4">
		<path class="st7" d="M651.1,258.9h-6.6l-1.4,3.2h-1.5l5.5-12.6h1.3l5.5,12.6h-1.5L651.1,258.9z M650.6,257.7l-2.8-6.5l-2.8,6.5
			H650.6z"/>
		<path class="st7" d="M655,261.1l0.5-1.1c0.5,0.4,1,0.6,1.5,0.8c0.5,0.2,1,0.2,1.7,0.2c0.7,0,1.2-0.1,1.5-0.3
			c0.3-0.2,0.5-0.6,0.5-1c0-0.4-0.1-0.6-0.4-0.8c-0.2-0.2-0.6-0.4-1.2-0.5l-1.5-0.4c-0.7-0.2-1.3-0.5-1.7-0.9s-0.6-0.9-0.6-1.5
			c0-0.8,0.3-1.4,0.9-1.9s1.4-0.7,2.5-0.7c0.6,0,1.2,0.1,1.8,0.3c0.6,0.2,1,0.5,1.4,0.9l-0.5,1c-0.8-0.7-1.7-1-2.7-1
			c-0.6,0-1.1,0.1-1.5,0.4c-0.3,0.2-0.5,0.6-0.5,1c0,0.4,0.1,0.7,0.3,0.9s0.6,0.4,1.1,0.5l1.5,0.4c0.8,0.2,1.4,0.5,1.8,0.9
			c0.4,0.4,0.6,0.9,0.6,1.5c0,0.8-0.3,1.4-0.9,1.8c-0.6,0.5-1.5,0.7-2.5,0.7C657.1,262.2,655.9,261.8,655,261.1z"/>
		<path class="st7" d="M663.8,261.1l0.5-1.1c0.5,0.4,1,0.6,1.5,0.8c0.5,0.2,1,0.2,1.7,0.2c0.7,0,1.2-0.1,1.5-0.3
			c0.3-0.2,0.5-0.6,0.5-1c0-0.4-0.1-0.6-0.4-0.8s-0.6-0.4-1.2-0.5l-1.5-0.4c-0.7-0.2-1.3-0.5-1.7-0.9c-0.4-0.4-0.6-0.9-0.6-1.5
			c0-0.8,0.3-1.4,0.9-1.9s1.4-0.7,2.5-0.7c0.6,0,1.2,0.1,1.8,0.3c0.6,0.2,1,0.5,1.4,0.9l-0.5,1c-0.8-0.7-1.7-1-2.7-1
			c-0.6,0-1.1,0.1-1.5,0.4c-0.3,0.2-0.5,0.6-0.5,1c0,0.4,0.1,0.7,0.3,0.9c0.2,0.2,0.6,0.4,1,0.5l1.5,0.4c0.8,0.2,1.4,0.5,1.8,0.9
			c0.4,0.4,0.6,0.9,0.6,1.5c0,0.8-0.3,1.4-0.9,1.8c-0.6,0.5-1.5,0.7-2.5,0.7C665.8,262.2,664.7,261.8,663.8,261.1z"/>
		<path class="st7" d="M680.5,257.6H674c0,1.1,0.3,2,0.8,2.6c0.5,0.6,1.3,0.9,2.2,0.9c1,0,2-0.3,2.9-1l0.5,1
			c-0.4,0.4-0.9,0.7-1.5,0.9c-0.6,0.2-1.2,0.3-1.9,0.3c-1.4,0-2.5-0.4-3.3-1.2c-0.8-0.8-1.2-1.9-1.2-3.4c0-0.9,0.2-1.7,0.5-2.4
			c0.4-0.7,0.8-1.2,1.5-1.6c0.6-0.4,1.4-0.6,2.2-0.6c1.2,0,2.1,0.4,2.8,1.2c0.7,0.8,1,1.8,1,3.2V257.6z M675,254.8
			c-0.5,0.4-0.8,1.1-0.9,1.9h5.2c-0.1-0.8-0.3-1.5-0.7-1.9c-0.4-0.4-1-0.7-1.7-0.7C676,254.1,675.4,254.3,675,254.8z"/>
		<path class="st7" d="M682.1,261.1l0.5-1.1c0.5,0.4,1,0.6,1.5,0.8c0.5,0.2,1,0.2,1.7,0.2c0.7,0,1.2-0.1,1.5-0.3
			c0.3-0.2,0.5-0.6,0.5-1c0-0.4-0.1-0.6-0.4-0.8s-0.6-0.4-1.2-0.5l-1.5-0.4c-0.7-0.2-1.3-0.5-1.7-0.9c-0.4-0.4-0.6-0.9-0.6-1.5
			c0-0.8,0.3-1.4,0.9-1.9s1.4-0.7,2.5-0.7c0.6,0,1.2,0.1,1.8,0.3c0.6,0.2,1,0.5,1.4,0.9l-0.5,1c-0.8-0.7-1.7-1-2.7-1
			c-0.6,0-1.1,0.1-1.5,0.4c-0.3,0.2-0.5,0.6-0.5,1c0,0.4,0.1,0.7,0.3,0.9c0.2,0.2,0.6,0.4,1,0.5l1.5,0.4c0.8,0.2,1.4,0.5,1.8,0.9
			c0.4,0.4,0.6,0.9,0.6,1.5c0,0.8-0.3,1.4-0.9,1.8c-0.6,0.5-1.5,0.7-2.5,0.7C684.2,262.2,683,261.8,682.1,261.1z"/>
		<path class="st7" d="M690.9,261.1l0.5-1.1c0.5,0.4,1,0.6,1.5,0.8c0.5,0.2,1,0.2,1.7,0.2c0.7,0,1.2-0.1,1.5-0.3
			c0.3-0.2,0.5-0.6,0.5-1c0-0.4-0.1-0.6-0.4-0.8c-0.2-0.2-0.6-0.4-1.2-0.5l-1.5-0.4c-0.7-0.2-1.3-0.5-1.7-0.9s-0.6-0.9-0.6-1.5
			c0-0.8,0.3-1.4,0.9-1.9s1.4-0.7,2.5-0.7c0.6,0,1.2,0.1,1.8,0.3c0.6,0.2,1,0.5,1.4,0.9l-0.5,1c-0.8-0.7-1.7-1-2.7-1
			c-0.6,0-1.1,0.1-1.5,0.4c-0.3,0.2-0.5,0.6-0.5,1c0,0.4,0.1,0.7,0.3,0.9s0.6,0.4,1.1,0.5l1.5,0.4c0.8,0.2,1.4,0.5,1.8,0.9
			c0.4,0.4,0.6,0.9,0.6,1.5c0,0.8-0.3,1.4-0.9,1.8c-0.6,0.5-1.5,0.7-2.5,0.7C693,262.2,691.8,261.8,690.9,261.1z"/>
		<path class="st7" d="M713,256.5v5.6h-1.4v-5.5c0-0.8-0.1-1.4-0.4-1.8c-0.3-0.4-0.8-0.6-1.4-0.6c-0.8,0-1.3,0.3-1.8,0.8
			c-0.4,0.5-0.6,1.2-0.6,2.1v5.1h-1.4v-5.5c0-0.8-0.1-1.4-0.4-1.8c-0.3-0.4-0.8-0.6-1.4-0.6c-0.8,0-1.3,0.3-1.8,0.8
			c-0.4,0.5-0.6,1.2-0.6,2.1v5.1h-1.4v-6.4c0-0.9,0-1.7-0.1-2.5h1.4l0.1,1.6c0.2-0.6,0.6-1,1.1-1.3c0.5-0.3,1.1-0.5,1.7-0.5
			c0.7,0,1.3,0.1,1.7,0.4c0.4,0.3,0.8,0.7,1,1.3c0.3-0.5,0.7-1,1.2-1.3c0.5-0.3,1.1-0.5,1.8-0.5C712,253,713,254.2,713,256.5z"/>
		<path class="st7" d="M723.2,257.6h-6.5c0,1.1,0.3,2,0.8,2.6c0.5,0.6,1.3,0.9,2.2,0.9c1,0,2-0.3,2.9-1l0.5,1
			c-0.4,0.4-0.9,0.7-1.5,0.9s-1.2,0.3-1.9,0.3c-1.4,0-2.5-0.4-3.3-1.2c-0.8-0.8-1.2-1.9-1.2-3.4c0-0.9,0.2-1.7,0.5-2.4
			c0.4-0.7,0.8-1.2,1.5-1.6s1.4-0.6,2.2-0.6c1.2,0,2.1,0.4,2.8,1.2c0.7,0.8,1,1.8,1,3.2V257.6z M717.6,254.8
			c-0.5,0.4-0.8,1.1-0.9,1.9h5.2c-0.1-0.8-0.3-1.5-0.7-1.9c-0.4-0.4-1-0.7-1.7-0.7C718.7,254.1,718.1,254.3,717.6,254.8z"/>
		<path class="st7" d="M733,256.5v5.6h-1.4v-5.5c0-0.8-0.2-1.4-0.5-1.8c-0.3-0.4-0.8-0.6-1.6-0.6c-0.8,0-1.5,0.3-2,0.8
			c-0.5,0.5-0.7,1.2-0.7,2v5.1h-1.4v-6.4c0-0.9,0-1.7-0.1-2.5h1.4l0.1,1.6c0.3-0.6,0.7-1,1.2-1.3c0.5-0.3,1.2-0.5,1.9-0.5
			C731.9,253,733,254.2,733,256.5z"/>
		<path class="st7" d="M737.6,254.4v4.9c0,0.7,0.1,1.1,0.4,1.4c0.3,0.3,0.7,0.4,1.1,0.4c0.3,0,0.6-0.1,1-0.2v1.2
			c-0.4,0.1-0.8,0.2-1.2,0.2c-0.8,0-1.5-0.2-2-0.7s-0.7-1.2-0.7-2.1v-5h-1.7v-1.1h1.7v-2.3l1.4-0.5v2.8h2.5v1.1H737.6z"/>
	</g>
	<rect x="624.2" y="22.7" class="st6" width="136.7" height="41.1"/>
	<g class="st4">
		<path class="st7" d="M642.6,25.3h7.8v1.2H644v4.4h6v1.2h-6v5.8h-1.4V25.3z"/>
		<path class="st7" d="M659.6,29v8.9h-1.4v-1.5c-0.3,0.5-0.7,1-1.2,1.2c-0.5,0.3-1.1,0.4-1.7,0.4c-1,0-1.8-0.3-2.4-0.9
			c-0.5-0.6-0.8-1.5-0.8-2.6V29h1.4v5.5c0,0.8,0.2,1.4,0.5,1.8c0.3,0.4,0.8,0.6,1.5,0.6c0.8,0,1.4-0.3,1.9-0.8
			c0.5-0.5,0.7-1.2,0.7-2v-5H659.6z"/>
		<path class="st7" d="M662.4,24.9h1.4v13h-1.4V24.9z"/>
		<path class="st7" d="M666.6,24.9h1.4v13h-1.4V24.9z"/>
		<path class="st7" d="M674.9,36.4l0.5-1.1c0.6,0.5,1.3,0.9,1.9,1.1s1.4,0.3,2.3,0.3c1,0,1.8-0.2,2.3-0.6c0.5-0.4,0.8-1,0.8-1.7
			c0-0.4-0.1-0.8-0.4-1c-0.3-0.3-0.6-0.5-1-0.6c-0.4-0.2-1-0.3-1.7-0.5c-1-0.2-1.8-0.4-2.4-0.7c-0.6-0.2-1.1-0.6-1.5-1.1
			c-0.4-0.5-0.6-1.1-0.6-1.8c0-0.7,0.2-1.4,0.6-1.9c0.4-0.5,0.9-1,1.6-1.3c0.7-0.3,1.5-0.5,2.4-0.5c0.9,0,1.7,0.1,2.4,0.4
			c0.8,0.3,1.4,0.7,1.9,1.2l-0.6,1.1c-0.6-0.5-1.2-0.9-1.8-1.1c-0.6-0.2-1.3-0.4-2-0.4c-1,0-1.7,0.2-2.3,0.6c-0.6,0.4-0.8,1-0.8,1.7
			c0,0.6,0.2,1.1,0.7,1.4c0.5,0.3,1.2,0.6,2.2,0.8c1.1,0.3,1.9,0.5,2.6,0.7s1.1,0.5,1.5,1s0.6,1,0.6,1.8c0,0.7-0.2,1.3-0.6,1.9
			c-0.4,0.5-0.9,1-1.6,1.2s-1.5,0.4-2.5,0.4C677.6,38,676,37.5,674.9,36.4z"/>
		<path class="st7" d="M693.8,33.4h-6.5c0,1.1,0.3,2,0.8,2.6c0.5,0.6,1.3,0.9,2.2,0.9c1,0,2-0.3,2.9-1l0.5,1
			c-0.4,0.4-0.9,0.7-1.5,0.9c-0.6,0.2-1.2,0.3-1.9,0.3c-1.4,0-2.5-0.4-3.3-1.2c-0.8-0.8-1.2-1.9-1.2-3.4c0-0.9,0.2-1.7,0.5-2.4
			c0.4-0.7,0.8-1.2,1.5-1.6c0.6-0.4,1.4-0.6,2.2-0.6c1.2,0,2.1,0.4,2.8,1.2c0.7,0.8,1,1.8,1,3.2V33.4z M688.2,30.5
			c-0.5,0.4-0.8,1.1-0.9,1.9h5.2c-0.1-0.8-0.3-1.5-0.7-1.9c-0.4-0.4-1-0.7-1.7-0.7C689.3,29.9,688.7,30.1,688.2,30.5z"/>
		<path class="st7" d="M697.5,37.4c-0.6-0.4-1.1-0.9-1.5-1.6c-0.3-0.7-0.5-1.5-0.5-2.4s0.2-1.7,0.5-2.4c0.4-0.7,0.9-1.2,1.5-1.6
			s1.4-0.6,2.3-0.6c0.6,0,1.2,0.1,1.7,0.3c0.6,0.2,1,0.5,1.4,0.9l-0.5,1.1c-0.4-0.4-0.9-0.6-1.3-0.8s-0.8-0.2-1.3-0.2
			c-0.9,0-1.6,0.3-2.1,0.9c-0.5,0.6-0.8,1.5-0.8,2.5c0,1.1,0.3,1.9,0.8,2.5c0.5,0.6,1.2,0.9,2.1,0.9c0.4,0,0.9-0.1,1.3-0.2
			c0.4-0.2,0.8-0.4,1.3-0.8l0.5,1.1c-0.4,0.4-0.9,0.6-1.4,0.8c-0.6,0.2-1.2,0.3-1.8,0.3C698.9,38,698.1,37.8,697.5,37.4z"/>
		<path class="st7" d="M712.2,29v8.9h-1.4v-1.5c-0.3,0.5-0.7,1-1.2,1.2c-0.5,0.3-1.1,0.4-1.7,0.4c-1,0-1.8-0.3-2.4-0.9
			c-0.5-0.6-0.8-1.5-0.8-2.6V29h1.4v5.5c0,0.8,0.2,1.4,0.5,1.8c0.3,0.4,0.8,0.6,1.5,0.6c0.8,0,1.4-0.3,1.9-0.8
			c0.5-0.5,0.7-1.2,0.7-2v-5H712.2z"/>
		<path class="st7" d="M719.9,28.9l0,1.3c-0.3-0.1-0.6-0.1-0.9-0.1c-0.9,0-1.5,0.3-1.9,0.8c-0.4,0.5-0.6,1.2-0.6,2v5.1h-1.4v-6.4
			c0-0.9,0-1.7-0.1-2.5h1.4l0.1,1.6c0.2-0.6,0.6-1.1,1.1-1.4c0.5-0.3,1.1-0.5,1.7-0.5C719.3,28.8,719.6,28.8,719.9,28.9z"/>
		<path class="st7" d="M722.9,25.2v1.6h-1.7v-1.6H722.9z M721.3,29h1.4v8.9h-1.4V29z"/>
		<path class="st7" d="M727.4,30.1V35c0,0.7,0.1,1.1,0.4,1.4c0.3,0.3,0.7,0.4,1.1,0.4c0.3,0,0.6-0.1,1-0.2v1.2
			c-0.4,0.1-0.8,0.2-1.2,0.2c-0.8,0-1.5-0.2-2-0.7s-0.7-1.2-0.7-2.1v-5h-1.7V29h1.7v-2.3l1.4-0.5V29h2.5v1.1H727.4z"/>
		<path class="st7" d="M739.6,29l-4.1,9.7c-0.4,1-1,1.8-1.6,2.2c-0.7,0.5-1.5,0.8-2.4,1l-0.3-1.1c0.8-0.2,1.5-0.4,1.9-0.8
			c0.4-0.3,0.8-0.8,1.1-1.4l0.4-0.8l-3.8-8.8h1.5l3,7.3l3-7.3H739.6z"/>
	</g>
	<g class="st4">
		<path class="st7" d="M651.1,55.8h-6.6l-1.4,3.2h-1.5l5.5-12.6h1.3L654,59h-1.5L651.1,55.8z M650.6,54.6l-2.8-6.5l-2.8,6.5H650.6z"
			/>
		<path class="st7" d="M655,58l0.5-1.1c0.5,0.4,1,0.6,1.5,0.8c0.5,0.2,1,0.2,1.7,0.2c0.7,0,1.2-0.1,1.5-0.3c0.3-0.2,0.5-0.6,0.5-1
			c0-0.4-0.1-0.6-0.4-0.8c-0.2-0.2-0.6-0.4-1.2-0.5l-1.5-0.4c-0.7-0.2-1.3-0.5-1.7-0.9s-0.6-0.9-0.6-1.5c0-0.8,0.3-1.4,0.9-1.9
			s1.4-0.7,2.5-0.7c0.6,0,1.2,0.1,1.8,0.3c0.6,0.2,1,0.5,1.4,0.9l-0.5,1c-0.8-0.7-1.7-1-2.7-1c-0.6,0-1.1,0.1-1.5,0.4
			c-0.3,0.2-0.5,0.6-0.5,1c0,0.4,0.1,0.7,0.3,0.9s0.6,0.4,1.1,0.5l1.5,0.4c0.8,0.2,1.4,0.5,1.8,0.9c0.4,0.4,0.6,0.9,0.6,1.5
			c0,0.8-0.3,1.4-0.9,1.8c-0.6,0.5-1.5,0.7-2.5,0.7C657.1,59.2,655.9,58.8,655,58z"/>
		<path class="st7" d="M663.8,58l0.5-1.1c0.5,0.4,1,0.6,1.5,0.8c0.5,0.2,1,0.2,1.7,0.2c0.7,0,1.2-0.1,1.5-0.3c0.3-0.2,0.5-0.6,0.5-1
			c0-0.4-0.1-0.6-0.4-0.8s-0.6-0.4-1.2-0.5l-1.5-0.4c-0.7-0.2-1.3-0.5-1.7-0.9c-0.4-0.4-0.6-0.9-0.6-1.5c0-0.8,0.3-1.4,0.9-1.9
			s1.4-0.7,2.5-0.7c0.6,0,1.2,0.1,1.8,0.3c0.6,0.2,1,0.5,1.4,0.9l-0.5,1c-0.8-0.7-1.7-1-2.7-1c-0.6,0-1.1,0.1-1.5,0.4
			c-0.3,0.2-0.5,0.6-0.5,1c0,0.4,0.1,0.7,0.3,0.9c0.2,0.2,0.6,0.4,1,0.5l1.5,0.4c0.8,0.2,1.4,0.5,1.8,0.9c0.4,0.4,0.6,0.9,0.6,1.5
			c0,0.8-0.3,1.4-0.9,1.8c-0.6,0.5-1.5,0.7-2.5,0.7C665.8,59.2,664.7,58.8,663.8,58z"/>
		<path class="st7" d="M680.5,54.6H674c0,1.1,0.3,2,0.8,2.6c0.5,0.6,1.3,0.9,2.2,0.9c1,0,2-0.3,2.9-1l0.5,1
			c-0.4,0.4-0.9,0.7-1.5,0.9c-0.6,0.2-1.2,0.3-1.9,0.3c-1.4,0-2.5-0.4-3.3-1.2c-0.8-0.8-1.2-1.9-1.2-3.4c0-0.9,0.2-1.7,0.5-2.4
			c0.4-0.7,0.8-1.2,1.5-1.6c0.6-0.4,1.4-0.6,2.2-0.6c1.2,0,2.1,0.4,2.8,1.2c0.7,0.8,1,1.8,1,3.2V54.6z M675,51.7
			c-0.5,0.4-0.8,1.1-0.9,1.9h5.2c-0.1-0.8-0.3-1.5-0.7-1.9c-0.4-0.4-1-0.7-1.7-0.7C676,51.1,675.4,51.3,675,51.7z"/>
		<path class="st7" d="M682.1,58l0.5-1.1c0.5,0.4,1,0.6,1.5,0.8c0.5,0.2,1,0.2,1.7,0.2c0.7,0,1.2-0.1,1.5-0.3c0.3-0.2,0.5-0.6,0.5-1
			c0-0.4-0.1-0.6-0.4-0.8s-0.6-0.4-1.2-0.5l-1.5-0.4c-0.7-0.2-1.3-0.5-1.7-0.9c-0.4-0.4-0.6-0.9-0.6-1.5c0-0.8,0.3-1.4,0.9-1.9
			s1.4-0.7,2.5-0.7c0.6,0,1.2,0.1,1.8,0.3c0.6,0.2,1,0.5,1.4,0.9l-0.5,1c-0.8-0.7-1.7-1-2.7-1c-0.6,0-1.1,0.1-1.5,0.4
			c-0.3,0.2-0.5,0.6-0.5,1c0,0.4,0.1,0.7,0.3,0.9c0.2,0.2,0.6,0.4,1,0.5l1.5,0.4c0.8,0.2,1.4,0.5,1.8,0.9c0.4,0.4,0.6,0.9,0.6,1.5
			c0,0.8-0.3,1.4-0.9,1.8c-0.6,0.5-1.5,0.7-2.5,0.7C684.2,59.2,683,58.8,682.1,58z"/>
		<path class="st7" d="M690.9,58l0.5-1.1c0.5,0.4,1,0.6,1.5,0.8c0.5,0.2,1,0.2,1.7,0.2c0.7,0,1.2-0.1,1.5-0.3c0.3-0.2,0.5-0.6,0.5-1
			c0-0.4-0.1-0.6-0.4-0.8c-0.2-0.2-0.6-0.4-1.2-0.5l-1.5-0.4c-0.7-0.2-1.3-0.5-1.7-0.9s-0.6-0.9-0.6-1.5c0-0.8,0.3-1.4,0.9-1.9
			s1.4-0.7,2.5-0.7c0.6,0,1.2,0.1,1.8,0.3c0.6,0.2,1,0.5,1.4,0.9l-0.5,1c-0.8-0.7-1.7-1-2.7-1c-0.6,0-1.1,0.1-1.5,0.4
			c-0.3,0.2-0.5,0.6-0.5,1c0,0.4,0.1,0.7,0.3,0.9s0.6,0.4,1.1,0.5l1.5,0.4c0.8,0.2,1.4,0.5,1.8,0.9c0.4,0.4,0.6,0.9,0.6,1.5
			c0,0.8-0.3,1.4-0.9,1.8c-0.6,0.5-1.5,0.7-2.5,0.7C693,59.2,691.8,58.8,690.9,58z"/>
		<path class="st7" d="M713,53.5V59h-1.4v-5.5c0-0.8-0.1-1.4-0.4-1.8c-0.3-0.4-0.8-0.6-1.4-0.6c-0.8,0-1.3,0.3-1.8,0.8
			c-0.4,0.5-0.6,1.2-0.6,2.1V59h-1.4v-5.5c0-0.8-0.1-1.4-0.4-1.8c-0.3-0.4-0.8-0.6-1.4-0.6c-0.8,0-1.3,0.3-1.8,0.8
			c-0.4,0.5-0.6,1.2-0.6,2.1V59h-1.4v-6.4c0-0.9,0-1.7-0.1-2.5h1.4l0.1,1.6c0.2-0.6,0.6-1,1.1-1.3c0.5-0.3,1.1-0.5,1.7-0.5
			c0.7,0,1.3,0.1,1.7,0.4c0.4,0.3,0.8,0.7,1,1.3c0.3-0.5,0.7-1,1.2-1.3c0.5-0.3,1.1-0.5,1.8-0.5C712,50,713,51.1,713,53.5z"/>
		<path class="st7" d="M723.2,54.6h-6.5c0,1.1,0.3,2,0.8,2.6c0.5,0.6,1.3,0.9,2.2,0.9c1,0,2-0.3,2.9-1l0.5,1
			c-0.4,0.4-0.9,0.7-1.5,0.9s-1.2,0.3-1.9,0.3c-1.4,0-2.5-0.4-3.3-1.2c-0.8-0.8-1.2-1.9-1.2-3.4c0-0.9,0.2-1.7,0.5-2.4
			c0.4-0.7,0.8-1.2,1.5-1.6s1.4-0.6,2.2-0.6c1.2,0,2.1,0.4,2.8,1.2c0.7,0.8,1,1.8,1,3.2V54.6z M717.6,51.7c-0.5,0.4-0.8,1.1-0.9,1.9
			h5.2c-0.1-0.8-0.3-1.5-0.7-1.9c-0.4-0.4-1-0.7-1.7-0.7C718.7,51.1,718.1,51.3,717.6,51.7z"/>
		<path class="st7" d="M733,53.5V59h-1.4v-5.5c0-0.8-0.2-1.4-0.5-1.8c-0.3-0.4-0.8-0.6-1.6-0.6c-0.8,0-1.5,0.3-2,0.8
			c-0.5,0.5-0.7,1.2-0.7,2V59h-1.4v-6.4c0-0.9,0-1.7-0.1-2.5h1.4l0.1,1.6c0.3-0.6,0.7-1,1.2-1.3c0.5-0.3,1.2-0.5,1.9-0.5
			C731.9,50,733,51.1,733,53.5z"/>
		<path class="st7" d="M737.6,51.3v4.9c0,0.7,0.1,1.1,0.4,1.4c0.3,0.3,0.7,0.4,1.1,0.4c0.3,0,0.6-0.1,1-0.2V59
			c-0.4,0.1-0.8,0.2-1.2,0.2c-0.8,0-1.5-0.2-2-0.7s-0.7-1.2-0.7-2.1v-5h-1.7v-1.1h1.7v-2.3l1.4-0.5v2.8h2.5v1.1H737.6z"/>
	</g>
	<g class="st4">
		<path class="st8" d="M44.2,253.1c0.5,0.1,0.9,0.1,1.1,0.1c0.5,0,0.8-0.1,0.9-0.3s0.2-0.5,0.2-1.1v-10.2h2.9v10.1
			c0,1.3-0.3,2.2-0.8,2.9c-0.5,0.6-1.4,0.9-2.7,0.9c-0.5,0-1.1,0-1.7-0.1V253.1z"/>
		<path class="st8" d="M58.8,250.4h-4.9l-1,2.3H50l5.1-11h2.3l5.2,11h-2.9L58.8,250.4z M57.8,248.2l-1.5-3.5l-1.5,3.5H57.8z"/>
		<path class="st8" d="M72.1,248c0.4,0.5,0.5,1,0.5,1.7c0,0.6-0.2,1.1-0.5,1.6s-0.8,0.8-1.4,1s-1.3,0.4-2.1,0.4h-5.5v-11h5.3
			c1.2,0,2.1,0.3,2.7,0.8s1,1.2,1,2.1c0,0.6-0.1,1.1-0.4,1.5c-0.3,0.4-0.7,0.7-1.3,0.9C71.3,247.2,71.8,247.5,72.1,248z M66,246h2
			c0.5,0,0.9-0.1,1.2-0.2c0.2-0.2,0.4-0.4,0.4-0.8c0-0.4-0.1-0.6-0.4-0.8c-0.3-0.2-0.6-0.3-1.2-0.3h-2V246z M69.6,250.2
			c0.2-0.2,0.4-0.5,0.4-0.9c0-0.4-0.1-0.7-0.4-0.9c-0.2-0.2-0.6-0.3-1.2-0.3H66v2.3h2.3C68.9,250.5,69.3,250.4,69.6,250.2z"/>
		<path class="st8" d="M78.5,241.7h5.2c1.3,0,2.2,0.3,2.9,0.9c0.7,0.6,1,1.4,1,2.4c0,1-0.4,1.8-1.1,2.4c-0.7,0.6-1.7,0.9-2.9,0.9
			h-2.3v4.3h-2.9V241.7z M83.4,246.2c1.1,0,1.6-0.4,1.6-1.2c0-0.4-0.1-0.7-0.4-0.9c-0.3-0.2-0.7-0.3-1.2-0.3h-1.9v2.3H83.4z"/>
		<path class="st8" d="M98.7,252.7h-3.1l-1.4-3.7c-0.2-0.4-0.6-0.6-1.2-0.6H92v4.3h-2.9v-11h5.1c1.3,0,2.3,0.3,3,0.9
			c0.7,0.6,1,1.4,1,2.4c0,0.7-0.2,1.4-0.6,1.9c-0.4,0.5-1,0.9-1.7,1.2c0.3,0.1,0.6,0.2,0.8,0.4s0.4,0.5,0.6,0.9L98.7,252.7z
			 M95.1,246c0.3-0.2,0.4-0.5,0.4-0.9c0-0.4-0.1-0.7-0.4-0.9s-0.7-0.3-1.4-0.3H92v2.4h1.8C94.4,246.2,94.8,246.1,95.1,246z"/>
		<path class="st8" d="M102.4,252.1c-0.8-0.5-1.5-1.1-1.9-2c-0.4-0.9-0.7-1.9-0.7-3c0-1.1,0.2-2.1,0.7-3c0.5-0.8,1.1-1.5,1.9-2
			c0.8-0.5,1.8-0.7,2.9-0.7s2.1,0.2,2.9,0.7c0.8,0.5,1.5,1.1,1.9,2c0.4,0.8,0.7,1.8,0.7,3c0,1.1-0.2,2.1-0.7,3
			c-0.4,0.9-1.1,1.5-1.9,2c-0.8,0.5-1.8,0.7-2.9,0.7S103.2,252.6,102.4,252.1z M107.3,249.7c0.5-0.6,0.7-1.4,0.7-2.6
			c0-1.1-0.2-2-0.7-2.5c-0.5-0.6-1.1-0.9-1.9-0.9c-0.8,0-1.5,0.3-1.9,0.9c-0.5,0.6-0.7,1.4-0.7,2.5c0,1.1,0.2,2,0.7,2.6
			c0.5,0.6,1.1,0.9,1.9,0.9C106.1,250.6,106.8,250.3,107.3,249.7z"/>
		<path class="st8" d="M114.9,252.1c-0.8-0.5-1.5-1.1-2-2c-0.5-0.9-0.7-1.8-0.7-3c0-1.1,0.2-2.1,0.7-2.9c0.5-0.8,1.1-1.5,2-2
			c0.8-0.5,1.8-0.7,3-0.7c0.7,0,1.4,0.1,2.1,0.3c0.7,0.2,1.2,0.5,1.6,0.9l-0.9,2.1c-0.9-0.6-1.8-1-2.8-1c-0.9,0-1.6,0.3-2,0.8
			c-0.5,0.6-0.7,1.4-0.7,2.5c0,1.1,0.2,2,0.7,2.5c0.5,0.6,1.2,0.8,2,0.8c1,0,1.9-0.3,2.8-1l0.9,2.1c-0.4,0.4-1,0.7-1.6,0.9
			c-0.7,0.2-1.4,0.3-2.1,0.3C116.7,252.8,115.7,252.6,114.9,252.1z"/>
		<path class="st8" d="M123.1,241.7h7.8v2.2h-5v2.1h4.7v2.2h-4.7v2.3h5v2.2h-7.8V241.7z"/>
		<path class="st8" d="M133.8,252.5c-0.8-0.2-1.5-0.5-2-0.9l0.9-2.1c0.5,0.3,1.1,0.6,1.7,0.8c0.6,0.2,1.2,0.3,1.8,0.3
			c0.6,0,1.1-0.1,1.4-0.3s0.5-0.4,0.5-0.7c0-0.3-0.1-0.5-0.4-0.7c-0.3-0.2-0.9-0.4-1.7-0.5c-1-0.2-1.8-0.5-2.4-0.8
			c-0.6-0.3-1-0.7-1.2-1.1c-0.2-0.4-0.3-0.9-0.3-1.5c0-0.7,0.2-1.3,0.6-1.8c0.4-0.5,0.9-1,1.6-1.3s1.5-0.5,2.4-0.5
			c0.8,0,1.6,0.1,2.3,0.3c0.7,0.2,1.3,0.5,1.8,0.9l-0.9,2.1c-0.5-0.3-1-0.6-1.5-0.8c-0.5-0.2-1.1-0.3-1.6-0.3
			c-0.5,0-0.9,0.1-1.3,0.3c-0.3,0.2-0.5,0.5-0.5,0.8c0,0.2,0.1,0.3,0.2,0.5c0.1,0.1,0.3,0.2,0.6,0.4s0.8,0.2,1.4,0.4
			c1,0.2,1.8,0.5,2.4,0.8c0.6,0.3,1,0.7,1.2,1.1c0.2,0.4,0.4,0.9,0.4,1.5c0,1.1-0.4,1.9-1.3,2.5c-0.8,0.6-2,0.9-3.5,0.9
			C135.4,252.8,134.6,252.7,133.8,252.5z"/>
		<path class="st8" d="M144.2,252.5c-0.8-0.2-1.5-0.5-2-0.9l0.9-2.1c0.5,0.3,1.1,0.6,1.7,0.8c0.6,0.2,1.2,0.3,1.8,0.3
			c0.6,0,1.1-0.1,1.4-0.3s0.5-0.4,0.5-0.7c0-0.3-0.1-0.5-0.4-0.7c-0.3-0.2-0.9-0.4-1.7-0.5c-1-0.2-1.8-0.5-2.4-0.8
			c-0.6-0.3-1-0.7-1.2-1.1c-0.2-0.4-0.3-0.9-0.3-1.5c0-0.7,0.2-1.3,0.6-1.8c0.4-0.5,0.9-1,1.6-1.3s1.5-0.5,2.4-0.5
			c0.8,0,1.6,0.1,2.3,0.3c0.7,0.2,1.3,0.5,1.8,0.9l-0.9,2.1c-0.5-0.3-1-0.6-1.5-0.8c-0.5-0.2-1.1-0.3-1.6-0.3
			c-0.5,0-0.9,0.1-1.3,0.3c-0.3,0.2-0.5,0.5-0.5,0.8c0,0.2,0.1,0.3,0.2,0.5c0.1,0.1,0.3,0.2,0.6,0.4s0.8,0.2,1.4,0.4
			c1,0.2,1.8,0.5,2.4,0.8c0.6,0.3,1,0.7,1.2,1.1c0.2,0.4,0.4,0.9,0.4,1.5c0,1.1-0.4,1.9-1.3,2.5c-0.8,0.6-2,0.9-3.5,0.9
			C145.8,252.8,145,252.7,144.2,252.5z"/>
	</g>
	<path class="st9" d="M22.8,24.7l154.7-0.5c10.5,0,19.1,8.5,19.1,19v0.4c0,10.5-8.5,19.1-19,19.1L22.9,63.3
		c-10.5,0-19.1-8.5-19.1-19v-0.4C3.7,33.3,12.2,24.7,22.8,24.7z"/>
	<path class="st10" d="M22.8,227.2l154.7-0.5c10.5,0,19.1,8.5,19.1,19v0.4c0,10.5-8.5,19.1-19,19.1l-154.7,0.5
		c-10.5,0-19.1-8.5-19.1-19v-0.4C3.7,235.8,12.2,227.2,22.8,227.2z"/>
	<g class="st4">
		<path class="st11" d="M34.1,47.9h-4.9l-1,2.3h-2.9l5.1-11h2.3l5.2,11h-2.9L34.1,47.9z M33.2,45.7l-1.5-3.5l-1.5,3.5H33.2z"/>
		<path class="st11" d="M48.1,44v5.5c-0.6,0.3-1.2,0.5-2,0.6c-0.7,0.1-1.5,0.2-2.2,0.2c-1.2,0-2.2-0.2-3.1-0.7c-0.9-0.5-1.6-1.1-2-2
			s-0.7-1.9-0.7-3c0-1.1,0.2-2.1,0.7-3c0.5-0.8,1.1-1.5,2-2c0.9-0.5,1.9-0.7,3-0.7c0.8,0,1.5,0.1,2.2,0.3s1.3,0.5,1.7,0.8l-0.9,2.1
			c-0.5-0.3-1-0.6-1.5-0.7c-0.5-0.1-1-0.2-1.5-0.2c-1,0-1.7,0.3-2.2,0.8c-0.5,0.6-0.7,1.4-0.7,2.5c0,1.2,0.2,2,0.7,2.6
			s1.3,0.8,2.3,0.8c0.5,0,1-0.1,1.5-0.2v-2h-1.9v-2H48.1z"/>
		<path class="st11" d="M49.9,39.2h7.8v2.2h-5v2.1h4.7v2.2h-4.7V48h5v2.2h-7.8V39.2z"/>
		<path class="st11" d="M69.1,39.2v11h-2.1l-5-6.2v6.2h-2.7v-11h2.1l5,6.2v-6.2H69.1z"/>
		<path class="st11" d="M73.4,49.6c-0.8-0.5-1.5-1.1-2-2c-0.5-0.9-0.7-1.8-0.7-3c0-1.1,0.2-2.1,0.7-2.9c0.5-0.8,1.1-1.5,2-2
			c0.8-0.5,1.8-0.7,3-0.7c0.7,0,1.4,0.1,2.1,0.3c0.7,0.2,1.2,0.5,1.6,0.9l-0.9,2.1c-0.9-0.6-1.8-1-2.8-1c-0.9,0-1.6,0.3-2,0.8
			c-0.5,0.6-0.7,1.4-0.7,2.5c0,1.1,0.2,2,0.7,2.5c0.5,0.6,1.2,0.8,2,0.8c1,0,1.9-0.3,2.8-1l0.9,2.1c-0.4,0.4-1,0.7-1.6,0.9
			c-0.7,0.2-1.4,0.3-2.1,0.3C75.3,50.3,74.3,50.1,73.4,49.6z"/>
		<path class="st11" d="M87.1,46v4.2h-2.9V46l-4.6-6.8h3.3l2.8,4.4l2.8-4.4h3.3L87.1,46z"/>
		<path class="st11" d="M96.1,39.2h5.2c1.3,0,2.2,0.3,2.9,0.9c0.7,0.6,1,1.4,1,2.4c0,1-0.4,1.8-1.1,2.4c-0.7,0.6-1.7,0.9-2.9,0.9
			h-2.3v4.3h-2.9V39.2z M101,43.7c1.1,0,1.6-0.4,1.6-1.2c0-0.4-0.1-0.7-0.4-0.9c-0.3-0.2-0.7-0.3-1.2-0.3h-1.9v2.3H101z"/>
		<path class="st11" d="M116.3,50.2h-3.1l-1.4-3.7c-0.2-0.4-0.6-0.6-1.2-0.6h-1.1v4.3h-2.9v-11h5.1c1.3,0,2.3,0.3,3,0.9
			c0.7,0.6,1,1.4,1,2.4c0,0.7-0.2,1.4-0.6,1.9c-0.4,0.5-1,0.9-1.7,1.2c0.3,0.1,0.6,0.2,0.8,0.4s0.4,0.5,0.6,0.9L116.3,50.2z
			 M112.7,43.5c0.3-0.2,0.4-0.5,0.4-0.9c0-0.4-0.1-0.7-0.4-0.9s-0.7-0.3-1.4-0.3h-1.8v2.4h1.8C112,43.7,112.4,43.6,112.7,43.5z"/>
		<path class="st11" d="M120,49.6c-0.8-0.5-1.5-1.1-1.9-2c-0.4-0.9-0.7-1.9-0.7-3c0-1.1,0.2-2.1,0.7-3c0.5-0.8,1.1-1.5,1.9-2
			c0.8-0.5,1.8-0.7,2.9-0.7s2.1,0.2,2.9,0.7c0.8,0.5,1.5,1.1,1.9,2c0.4,0.8,0.7,1.8,0.7,3c0,1.1-0.2,2.1-0.7,3
			c-0.4,0.9-1.1,1.5-1.9,2c-0.8,0.5-1.8,0.7-2.9,0.7S120.8,50.1,120,49.6z M124.9,47.2c0.5-0.6,0.7-1.4,0.7-2.6c0-1.1-0.2-2-0.7-2.5
			c-0.5-0.6-1.1-0.9-1.9-0.9c-0.8,0-1.5,0.3-1.9,0.9c-0.5,0.6-0.7,1.4-0.7,2.5c0,1.1,0.2,2,0.7,2.6c0.5,0.6,1.1,0.9,1.9,0.9
			C123.7,48.1,124.4,47.8,124.9,47.2z"/>
		<path class="st11" d="M132.5,49.6c-0.8-0.5-1.5-1.1-2-2c-0.5-0.9-0.7-1.8-0.7-3c0-1.1,0.2-2.1,0.7-2.9c0.5-0.8,1.1-1.5,2-2
			c0.8-0.5,1.8-0.7,3-0.7c0.7,0,1.4,0.1,2.1,0.3c0.7,0.2,1.2,0.5,1.6,0.9l-0.9,2.1c-0.9-0.6-1.8-1-2.8-1c-0.9,0-1.6,0.3-2,0.8
			c-0.5,0.6-0.7,1.4-0.7,2.5c0,1.1,0.2,2,0.7,2.5c0.5,0.6,1.2,0.8,2,0.8c1,0,1.9-0.3,2.8-1l0.9,2.1c-0.4,0.4-1,0.7-1.6,0.9
			c-0.7,0.2-1.4,0.3-2.1,0.3C134.3,50.3,133.3,50.1,132.5,49.6z"/>
		<path class="st11" d="M140.7,39.2h7.8v2.2h-5v2.1h4.7v2.2h-4.7V48h5v2.2h-7.8V39.2z"/>
		<path class="st11" d="M151.4,50c-0.8-0.2-1.5-0.5-2-0.9l0.9-2.1c0.5,0.3,1.1,0.6,1.7,0.8c0.6,0.2,1.2,0.3,1.8,0.3
			c0.6,0,1.1-0.1,1.4-0.3s0.5-0.4,0.5-0.7c0-0.3-0.1-0.5-0.4-0.7c-0.3-0.2-0.9-0.4-1.7-0.5c-1-0.2-1.8-0.5-2.4-0.8
			c-0.6-0.3-1-0.7-1.2-1.1c-0.2-0.4-0.3-0.9-0.3-1.5c0-0.7,0.2-1.3,0.6-1.8c0.4-0.5,0.9-1,1.6-1.3s1.5-0.5,2.4-0.5
			c0.8,0,1.6,0.1,2.3,0.3c0.7,0.2,1.3,0.5,1.8,0.9l-0.9,2.1c-0.5-0.3-1-0.6-1.5-0.8c-0.5-0.2-1.1-0.3-1.6-0.3
			c-0.5,0-0.9,0.1-1.3,0.3c-0.3,0.2-0.5,0.5-0.5,0.8c0,0.2,0.1,0.3,0.2,0.5c0.1,0.1,0.3,0.2,0.6,0.4s0.8,0.2,1.4,0.4
			c1,0.2,1.8,0.5,2.4,0.8c0.6,0.3,1,0.7,1.2,1.1c0.2,0.4,0.4,0.9,0.4,1.5c0,1.1-0.4,1.9-1.3,2.5c-0.8,0.6-2,0.9-3.5,0.9
			C153,50.3,152.2,50.2,151.4,50z"/>
		<path class="st11" d="M161.8,50c-0.8-0.2-1.5-0.5-2-0.9l0.9-2.1c0.5,0.3,1.1,0.6,1.7,0.8c0.6,0.2,1.2,0.3,1.8,0.3
			c0.6,0,1.1-0.1,1.4-0.3s0.5-0.4,0.5-0.7c0-0.3-0.1-0.5-0.4-0.7c-0.3-0.2-0.9-0.4-1.7-0.5c-1-0.2-1.8-0.5-2.4-0.8
			c-0.6-0.3-1-0.7-1.2-1.1c-0.2-0.4-0.3-0.9-0.3-1.5c0-0.7,0.2-1.3,0.6-1.8c0.4-0.5,0.9-1,1.6-1.3s1.5-0.5,2.4-0.5
			c0.8,0,1.6,0.1,2.3,0.3c0.7,0.2,1.3,0.5,1.8,0.9l-0.9,2.1c-0.5-0.3-1-0.6-1.5-0.8c-0.5-0.2-1.1-0.3-1.6-0.3
			c-0.5,0-0.9,0.1-1.3,0.3c-0.3,0.2-0.5,0.5-0.5,0.8c0,0.2,0.1,0.3,0.2,0.5c0.1,0.1,0.3,0.2,0.6,0.4s0.8,0.2,1.4,0.4
			c1,0.2,1.8,0.5,2.4,0.8c0.6,0.3,1,0.7,1.2,1.1c0.2,0.4,0.4,0.9,0.4,1.5c0,1.1-0.4,1.9-1.3,2.5c-0.8,0.6-2,0.9-3.5,0.9
			C163.4,50.3,162.6,50.2,161.8,50z"/>
	</g>
	<rect x="416.2" y="23.2" class="st6" width="125.6" height="40.1"/>
	<g class="st4">
		<path class="st7" d="M447.5,38H446l-1.5-4.1c-0.2-0.5-0.4-0.8-0.8-1s-0.8-0.3-1.4-0.3h-3.1V38h-1.4V25.7h4.9c1.3,0,2.3,0.3,3,0.9
			c0.7,0.6,1.1,1.4,1.1,2.5c0,0.8-0.2,1.5-0.6,2c-0.4,0.5-1,0.9-1.8,1.2c0.4,0.1,0.7,0.2,0.9,0.5c0.3,0.2,0.5,0.6,0.6,1.1L447.5,38z
			 M442.6,31.5c1.9,0,2.8-0.8,2.8-2.3c0-0.8-0.2-1.3-0.7-1.7s-1.2-0.6-2.1-0.6h-3.4v4.6H442.6z"/>
		<path class="st7" d="M456.9,33.6h-6.4c0,1.1,0.3,1.9,0.8,2.5c0.5,0.6,1.2,0.8,2.2,0.8c1,0,1.9-0.3,2.8-1l0.5,1
			c-0.4,0.4-0.9,0.6-1.5,0.8c-0.6,0.2-1.2,0.3-1.8,0.3c-1.4,0-2.4-0.4-3.2-1.2c-0.8-0.8-1.2-1.9-1.2-3.3c0-0.9,0.2-1.7,0.5-2.3
			s0.8-1.2,1.4-1.6c0.6-0.4,1.3-0.6,2.1-0.6c1.1,0,2,0.4,2.7,1.1c0.7,0.8,1,1.8,1,3.1V33.6z M451.4,30.9c-0.5,0.4-0.7,1-0.9,1.8h5
			c-0.1-0.8-0.3-1.4-0.7-1.9c-0.4-0.4-1-0.6-1.7-0.6C452.5,30.2,451.9,30.4,451.4,30.9z"/>
		<path class="st7" d="M466.6,29.3V38h-1.4v-1.6c-0.3,0.5-0.6,1-1.1,1.2c-0.5,0.3-1.1,0.4-1.8,0.4c-0.8,0-1.4-0.2-2-0.6
			c-0.6-0.4-1-0.9-1.3-1.6c-0.3-0.7-0.5-1.5-0.5-2.3c0-0.9,0.2-1.7,0.5-2.4c0.3-0.7,0.8-1.2,1.4-1.6s1.2-0.6,2-0.6
			c0.7,0,1.3,0.1,1.8,0.4c0.5,0.3,0.9,0.7,1.2,1.3v-1.5H466.6z M464.5,36.1c0.5-0.6,0.7-1.4,0.7-2.5s-0.2-1.9-0.7-2.5
			c-0.5-0.6-1.1-0.9-2-0.9c-0.8,0-1.5,0.3-2,0.9c-0.5,0.6-0.7,1.4-0.7,2.5s0.2,1.9,0.7,2.4c0.5,0.6,1.1,0.9,2,0.9
			C463.4,36.9,464.1,36.7,464.5,36.1z"/>
		<path class="st7" d="M476.9,25.3V38h-1.4v-1.6c-0.3,0.5-0.6,1-1.1,1.2c-0.5,0.3-1.1,0.4-1.8,0.4c-0.8,0-1.4-0.2-2-0.6
			c-0.6-0.4-1-0.9-1.4-1.6c-0.3-0.7-0.5-1.5-0.5-2.4s0.2-1.7,0.5-2.3c0.3-0.7,0.8-1.2,1.4-1.6c0.6-0.4,1.3-0.6,2-0.6
			c0.7,0,1.3,0.1,1.8,0.4c0.5,0.3,0.9,0.7,1.1,1.2v-5.5H476.9z M474.9,36.1c0.5-0.6,0.7-1.4,0.7-2.5c0-1.1-0.2-1.9-0.7-2.5
			c-0.5-0.6-1.1-0.9-2-0.9c-0.8,0-1.5,0.3-2,0.9c-0.5,0.6-0.7,1.4-0.7,2.4c0,1.1,0.2,1.9,0.7,2.5c0.5,0.6,1.1,0.9,2,0.9
			C473.8,36.9,474.4,36.7,474.9,36.1z"/>
		<path class="st7" d="M481.2,25.7v1.6h-1.7v-1.6H481.2z M479.6,29.3h1.4V38h-1.4V29.3z"/>
		<path class="st7" d="M491.2,32.5V38h-1.4v-5.4c0-0.8-0.2-1.4-0.5-1.8s-0.8-0.6-1.5-0.6c-0.8,0-1.4,0.2-1.9,0.7
			c-0.5,0.5-0.7,1.2-0.7,2v5h-1.4v-6.2c0-0.9,0-1.7-0.1-2.4h1.3l0.1,1.5c0.3-0.6,0.7-1,1.2-1.3c0.5-0.3,1.1-0.5,1.8-0.5
			C490.1,29.1,491.2,30.3,491.2,32.5z"/>
		<path class="st7" d="M501.1,33.6h-6.4c0,1.1,0.3,1.9,0.8,2.5c0.5,0.6,1.2,0.8,2.2,0.8c1,0,1.9-0.3,2.8-1l0.5,1
			c-0.4,0.4-0.9,0.6-1.5,0.8c-0.6,0.2-1.2,0.3-1.8,0.3c-1.4,0-2.4-0.4-3.2-1.2c-0.8-0.8-1.2-1.9-1.2-3.3c0-0.9,0.2-1.7,0.5-2.3
			s0.8-1.2,1.4-1.6c0.6-0.4,1.3-0.6,2.1-0.6c1.1,0,2,0.4,2.7,1.1c0.7,0.8,1,1.8,1,3.1V33.6z M495.6,30.9c-0.5,0.4-0.7,1-0.9,1.8h5
			c-0.1-0.8-0.3-1.4-0.7-1.9c-0.4-0.4-1-0.6-1.7-0.6C496.7,30.2,496.1,30.4,495.6,30.9z"/>
		<path class="st7" d="M502.6,37l0.5-1c0.5,0.4,0.9,0.6,1.4,0.8c0.5,0.2,1,0.2,1.6,0.2c0.7,0,1.2-0.1,1.5-0.3s0.5-0.5,0.5-1
			c0-0.3-0.1-0.6-0.3-0.8c-0.2-0.2-0.6-0.4-1.1-0.5l-1.5-0.3c-0.7-0.2-1.3-0.4-1.7-0.9s-0.6-0.9-0.6-1.5c0-0.8,0.3-1.4,0.9-1.9
			s1.4-0.7,2.4-0.7c0.6,0,1.2,0.1,1.7,0.3c0.5,0.2,1,0.5,1.4,0.8l-0.5,1c-0.8-0.7-1.7-1-2.6-1c-0.6,0-1.1,0.1-1.4,0.4
			c-0.3,0.2-0.5,0.6-0.5,1c0,0.4,0.1,0.6,0.3,0.8c0.2,0.2,0.6,0.4,1,0.5l1.5,0.4c0.8,0.2,1.4,0.5,1.8,0.9c0.4,0.4,0.6,0.9,0.6,1.5
			c0,0.7-0.3,1.3-0.9,1.8c-0.6,0.4-1.4,0.7-2.5,0.7C504.6,38.1,503.5,37.7,502.6,37z"/>
		<path class="st7" d="M511.2,37l0.5-1c0.5,0.4,0.9,0.6,1.4,0.8c0.5,0.2,1,0.2,1.6,0.2c0.7,0,1.2-0.1,1.5-0.3s0.5-0.5,0.5-1
			c0-0.3-0.1-0.6-0.3-0.8c-0.2-0.2-0.6-0.4-1.1-0.5l-1.5-0.3c-0.7-0.2-1.3-0.4-1.7-0.9s-0.6-0.9-0.6-1.5c0-0.8,0.3-1.4,0.9-1.9
			s1.4-0.7,2.4-0.7c0.6,0,1.2,0.1,1.7,0.3c0.5,0.2,1,0.5,1.4,0.8l-0.5,1c-0.8-0.7-1.7-1-2.6-1c-0.6,0-1.1,0.1-1.4,0.4
			c-0.3,0.2-0.5,0.6-0.5,1c0,0.4,0.1,0.6,0.3,0.8c0.2,0.2,0.6,0.4,1,0.5l1.5,0.4c0.8,0.2,1.4,0.5,1.8,0.9c0.4,0.4,0.6,0.9,0.6,1.5
			c0,0.7-0.3,1.3-0.9,1.8c-0.6,0.4-1.4,0.7-2.5,0.7C513.2,38.1,512,37.7,511.2,37z"/>
	</g>
	<g class="st4">
		<path class="st7" d="M438.6,55.5h-6.4l-1.4,3.2h-1.5l5.4-12.3h1.2l5.4,12.3h-1.4L438.6,55.5z M438.1,54.4l-2.7-6.3l-2.7,6.3H438.1
			z"/>
		<path class="st7" d="M442.4,57.7l0.5-1c0.5,0.4,0.9,0.6,1.4,0.8c0.5,0.2,1,0.2,1.6,0.2c0.7,0,1.2-0.1,1.5-0.3s0.5-0.5,0.5-1
			c0-0.3-0.1-0.6-0.3-0.8c-0.2-0.2-0.6-0.4-1.1-0.5l-1.5-0.3c-0.7-0.2-1.3-0.4-1.7-0.9s-0.6-0.9-0.6-1.5c0-0.8,0.3-1.4,0.9-1.9
			s1.4-0.7,2.4-0.7c0.6,0,1.2,0.1,1.7,0.3c0.5,0.2,1,0.5,1.4,0.8l-0.5,1c-0.8-0.7-1.7-1-2.6-1c-0.6,0-1.1,0.1-1.4,0.4
			c-0.3,0.2-0.5,0.6-0.5,1c0,0.4,0.1,0.6,0.3,0.8c0.2,0.2,0.6,0.4,1,0.5l1.5,0.4c0.8,0.2,1.4,0.5,1.8,0.9c0.4,0.4,0.6,0.9,0.6,1.5
			c0,0.7-0.3,1.3-0.9,1.8c-0.6,0.4-1.4,0.7-2.5,0.7C444.4,58.8,443.2,58.4,442.4,57.7z"/>
		<path class="st7" d="M450.9,57.7l0.5-1c0.5,0.4,0.9,0.6,1.4,0.8c0.5,0.2,1,0.2,1.6,0.2c0.7,0,1.2-0.1,1.5-0.3s0.5-0.5,0.5-1
			c0-0.3-0.1-0.6-0.3-0.8c-0.2-0.2-0.6-0.4-1.1-0.5l-1.5-0.3c-0.7-0.2-1.3-0.4-1.7-0.9s-0.6-0.9-0.6-1.5c0-0.8,0.3-1.4,0.9-1.9
			s1.4-0.7,2.4-0.7c0.6,0,1.2,0.1,1.7,0.3c0.5,0.2,1,0.5,1.4,0.8l-0.5,1c-0.8-0.7-1.7-1-2.6-1c-0.6,0-1.1,0.1-1.4,0.4
			c-0.3,0.2-0.5,0.6-0.5,1c0,0.4,0.1,0.6,0.3,0.8c0.2,0.2,0.6,0.4,1,0.5l1.5,0.4c0.8,0.2,1.4,0.5,1.8,0.9c0.4,0.4,0.6,0.9,0.6,1.5
			c0,0.7-0.3,1.3-0.9,1.8c-0.6,0.4-1.4,0.7-2.5,0.7C452.9,58.8,451.8,58.4,450.9,57.7z"/>
		<path class="st7" d="M467.2,54.3h-6.4c0,1.1,0.3,1.9,0.8,2.5c0.5,0.6,1.2,0.8,2.2,0.8c1,0,1.9-0.3,2.8-1l0.5,1
			c-0.4,0.4-0.9,0.6-1.5,0.8c-0.6,0.2-1.2,0.3-1.8,0.3c-1.4,0-2.4-0.4-3.2-1.2c-0.8-0.8-1.2-1.9-1.2-3.3c0-0.9,0.2-1.7,0.5-2.3
			s0.8-1.2,1.4-1.6c0.6-0.4,1.3-0.6,2.1-0.6c1.1,0,2,0.4,2.7,1.1c0.7,0.8,1,1.8,1,3.1V54.3z M461.8,51.6c-0.5,0.4-0.7,1-0.9,1.8h5
			c-0.1-0.8-0.3-1.4-0.7-1.9c-0.4-0.4-1-0.6-1.7-0.6C462.9,50.9,462.3,51.1,461.8,51.6z"/>
		<path class="st7" d="M468.8,57.7l0.5-1c0.5,0.4,0.9,0.6,1.4,0.8c0.5,0.2,1,0.2,1.6,0.2c0.7,0,1.2-0.1,1.5-0.3s0.5-0.5,0.5-1
			c0-0.3-0.1-0.6-0.3-0.8c-0.2-0.2-0.6-0.4-1.1-0.5l-1.5-0.3c-0.7-0.2-1.3-0.4-1.7-0.9s-0.6-0.9-0.6-1.5c0-0.8,0.3-1.4,0.9-1.9
			s1.4-0.7,2.4-0.7c0.6,0,1.2,0.1,1.7,0.3c0.5,0.2,1,0.5,1.4,0.8l-0.5,1c-0.8-0.7-1.7-1-2.6-1c-0.6,0-1.1,0.1-1.4,0.4
			c-0.3,0.2-0.5,0.6-0.5,1c0,0.4,0.1,0.6,0.3,0.8c0.2,0.2,0.6,0.4,1,0.5l1.5,0.4c0.8,0.2,1.4,0.5,1.8,0.9c0.4,0.4,0.6,0.9,0.6,1.5
			c0,0.7-0.3,1.3-0.9,1.8c-0.6,0.4-1.4,0.7-2.5,0.7C470.8,58.8,469.7,58.4,468.8,57.7z"/>
		<path class="st7" d="M477.4,57.7l0.5-1c0.5,0.4,0.9,0.6,1.4,0.8c0.5,0.2,1,0.2,1.6,0.2c0.7,0,1.2-0.1,1.5-0.3s0.5-0.5,0.5-1
			c0-0.3-0.1-0.6-0.3-0.8c-0.2-0.2-0.6-0.4-1.1-0.5l-1.5-0.3c-0.7-0.2-1.3-0.4-1.7-0.9s-0.6-0.9-0.6-1.5c0-0.8,0.3-1.4,0.9-1.9
			s1.4-0.7,2.4-0.7c0.6,0,1.2,0.1,1.7,0.3c0.5,0.2,1,0.5,1.4,0.8l-0.5,1c-0.8-0.7-1.7-1-2.6-1c-0.6,0-1.1,0.1-1.4,0.4
			c-0.3,0.2-0.5,0.6-0.5,1c0,0.4,0.1,0.6,0.3,0.8c0.2,0.2,0.6,0.4,1,0.5l1.5,0.4c0.8,0.2,1.4,0.5,1.8,0.9c0.4,0.4,0.6,0.9,0.6,1.5
			c0,0.7-0.3,1.3-0.9,1.8c-0.6,0.4-1.4,0.7-2.5,0.7C479.4,58.8,478.2,58.4,477.4,57.7z"/>
		<path class="st7" d="M498.9,53.2v5.4h-1.4v-5.4c0-0.8-0.1-1.4-0.4-1.8c-0.3-0.4-0.7-0.6-1.4-0.6c-0.7,0-1.3,0.2-1.7,0.7
			c-0.4,0.5-0.6,1.2-0.6,2v4.9H492v-5.4c0-0.8-0.1-1.4-0.4-1.8c-0.3-0.4-0.7-0.6-1.4-0.6c-0.7,0-1.3,0.2-1.7,0.7
			c-0.4,0.5-0.6,1.2-0.6,2v4.9h-1.4v-6.2c0-0.9,0-1.7-0.1-2.4h1.3l0.1,1.5c0.2-0.6,0.6-1,1.1-1.3c0.5-0.3,1-0.4,1.7-0.4
			c0.7,0,1.3,0.1,1.7,0.4c0.4,0.3,0.8,0.7,1,1.3c0.3-0.5,0.7-0.9,1.2-1.2c0.5-0.3,1.1-0.5,1.7-0.5C498,49.8,498.9,51,498.9,53.2z"/>
		<path class="st7" d="M508.8,54.3h-6.4c0,1.1,0.3,1.9,0.8,2.5c0.5,0.6,1.2,0.8,2.2,0.8c1,0,1.9-0.3,2.8-1l0.5,1
			c-0.4,0.4-0.9,0.6-1.5,0.8c-0.6,0.2-1.2,0.3-1.8,0.3c-1.4,0-2.4-0.4-3.2-1.2c-0.8-0.8-1.2-1.9-1.2-3.3c0-0.9,0.2-1.7,0.5-2.3
			s0.8-1.2,1.4-1.6c0.6-0.4,1.3-0.6,2.1-0.6c1.1,0,2,0.4,2.7,1.1c0.7,0.8,1,1.8,1,3.1V54.3z M503.4,51.6c-0.5,0.4-0.7,1-0.9,1.8h5
			c-0.1-0.8-0.3-1.4-0.7-1.9c-0.4-0.4-1-0.6-1.7-0.6C504.4,50.9,503.8,51.1,503.4,51.6z"/>
		<path class="st7" d="M518.4,53.2v5.4H517v-5.4c0-0.8-0.2-1.4-0.5-1.8S515.7,51,515,51c-0.8,0-1.4,0.2-1.9,0.7
			c-0.5,0.5-0.7,1.2-0.7,2v5h-1.4v-6.2c0-0.9,0-1.7-0.1-2.4h1.3l0.1,1.5c0.3-0.6,0.7-1,1.2-1.3c0.5-0.3,1.1-0.5,1.8-0.5
			C517.3,49.8,518.4,51,518.4,53.2z"/>
		<path class="st7" d="M522.9,51.1v4.7c0,0.6,0.1,1.1,0.4,1.4c0.3,0.3,0.6,0.4,1.1,0.4c0.3,0,0.6-0.1,0.9-0.2v1.2
			c-0.4,0.1-0.8,0.2-1.2,0.2c-0.8,0-1.5-0.2-1.9-0.7s-0.7-1.2-0.7-2.1v-4.9h-1.7V50h1.7v-2.2l1.4-0.5V50h2.5v1.1H522.9z"/>
	</g>
	<rect x="407.7" y="226.3" class="st6" width="137.7" height="40.1"/>
	<g class="st4">
		<path class="st7" d="M445,241h-1.5L442,237c-0.2-0.5-0.4-0.8-0.8-1s-0.8-0.3-1.4-0.3h-3.1v5.4h-1.4v-12.3h4.9c1.3,0,2.3,0.3,3,0.9
			c0.7,0.6,1.1,1.4,1.1,2.5c0,0.8-0.2,1.5-0.6,2s-1,0.9-1.8,1.2c0.4,0.1,0.7,0.2,0.9,0.5c0.3,0.2,0.5,0.6,0.6,1.1L445,241z
			 M440.1,234.5c1.9,0,2.8-0.8,2.8-2.3c0-0.8-0.2-1.3-0.7-1.7s-1.2-0.6-2.1-0.6h-3.4v4.6H440.1z"/>
		<path class="st7" d="M454.4,236.7H448c0,1.1,0.3,1.9,0.8,2.5c0.5,0.6,1.2,0.8,2.2,0.8c1,0,1.9-0.3,2.8-1l0.5,1
			c-0.4,0.4-0.9,0.6-1.5,0.8c-0.6,0.2-1.2,0.3-1.8,0.3c-1.4,0-2.4-0.4-3.2-1.2c-0.8-0.8-1.2-1.9-1.2-3.3c0-0.9,0.2-1.7,0.5-2.3
			c0.3-0.7,0.8-1.2,1.4-1.6c0.6-0.4,1.3-0.6,2.1-0.6c1.1,0,2,0.4,2.7,1.1c0.7,0.8,1,1.8,1,3.1V236.7z M449,233.9
			c-0.5,0.4-0.7,1-0.9,1.8h5c-0.1-0.8-0.3-1.4-0.7-1.9s-1-0.6-1.7-0.6C450,233.3,449.4,233.5,449,233.9z"/>
		<path class="st7" d="M464.1,232.4v8.7h-1.4v-1.6c-0.3,0.5-0.6,1-1.1,1.2c-0.5,0.3-1.1,0.4-1.8,0.4c-0.8,0-1.4-0.2-2-0.6
			c-0.6-0.4-1-0.9-1.3-1.6c-0.3-0.7-0.5-1.5-0.5-2.3c0-0.9,0.2-1.7,0.5-2.4c0.3-0.7,0.8-1.2,1.4-1.6s1.2-0.6,2-0.6
			c0.7,0,1.3,0.2,1.8,0.4c0.5,0.3,0.9,0.7,1.2,1.3v-1.5H464.1z M462.1,239.1c0.5-0.6,0.7-1.4,0.7-2.5c0-1.1-0.2-1.9-0.7-2.5
			c-0.5-0.6-1.1-0.9-2-0.9c-0.8,0-1.5,0.3-2,0.9c-0.5,0.6-0.7,1.4-0.7,2.5c0,1.1,0.2,1.9,0.7,2.4c0.5,0.6,1.1,0.9,2,0.9
			C460.9,240,461.6,239.7,462.1,239.1z"/>
		<path class="st7" d="M474.5,228.4V241h-1.4v-1.6c-0.3,0.5-0.6,1-1.1,1.2c-0.5,0.3-1.1,0.4-1.8,0.4c-0.8,0-1.4-0.2-2-0.6
			c-0.6-0.4-1-0.9-1.4-1.6c-0.3-0.7-0.5-1.5-0.5-2.4c0-0.9,0.2-1.7,0.5-2.3c0.3-0.7,0.8-1.2,1.4-1.6c0.6-0.4,1.3-0.6,2-0.6
			c0.7,0,1.3,0.1,1.8,0.4c0.5,0.3,0.9,0.7,1.1,1.2v-5.5H474.5z M472.4,239.1c0.5-0.6,0.7-1.4,0.7-2.5c0-1.1-0.2-1.9-0.7-2.5
			s-1.1-0.9-2-0.9c-0.8,0-1.5,0.3-2,0.9c-0.5,0.6-0.7,1.4-0.7,2.4c0,1.1,0.2,1.9,0.7,2.5c0.5,0.6,1.1,0.9,2,0.9
			C471.3,240,471.9,239.7,472.4,239.1z"/>
		<path class="st7" d="M478.7,228.7v1.6H477v-1.6H478.7z M477.2,232.4h1.4v8.7h-1.4V232.4z"/>
		<path class="st7" d="M488.7,235.6v5.4h-1.4v-5.4c0-0.8-0.2-1.4-0.5-1.8s-0.8-0.6-1.5-0.6c-0.8,0-1.4,0.2-1.9,0.7
			c-0.5,0.5-0.7,1.2-0.7,2v5h-1.4v-6.2c0-0.9,0-1.7-0.1-2.4h1.3l0.1,1.5c0.3-0.6,0.7-1,1.2-1.3c0.5-0.3,1.1-0.5,1.8-0.5
			C487.7,232.2,488.7,233.3,488.7,235.6z"/>
		<path class="st7" d="M498.6,236.7h-6.4c0,1.1,0.3,1.9,0.8,2.5c0.5,0.6,1.2,0.8,2.2,0.8c1,0,1.9-0.3,2.8-1l0.5,1
			c-0.4,0.4-0.9,0.6-1.5,0.8c-0.6,0.2-1.2,0.3-1.8,0.3c-1.4,0-2.4-0.4-3.2-1.2c-0.8-0.8-1.2-1.9-1.2-3.3c0-0.9,0.2-1.7,0.5-2.3
			c0.3-0.7,0.8-1.2,1.4-1.6c0.6-0.4,1.3-0.6,2.1-0.6c1.1,0,2,0.4,2.7,1.1c0.7,0.8,1,1.8,1,3.1V236.7z M493.1,233.9
			c-0.5,0.4-0.7,1-0.9,1.8h5c-0.1-0.8-0.3-1.4-0.7-1.9s-1-0.6-1.7-0.6C494.2,233.3,493.6,233.5,493.1,233.9z"/>
		<path class="st7" d="M500.2,240l0.5-1c0.5,0.4,0.9,0.6,1.4,0.8s1,0.2,1.6,0.2c0.7,0,1.2-0.1,1.5-0.3c0.3-0.2,0.5-0.5,0.5-1
			c0-0.3-0.1-0.6-0.3-0.8c-0.2-0.2-0.6-0.4-1.1-0.5l-1.5-0.3c-0.7-0.2-1.3-0.4-1.7-0.9c-0.4-0.4-0.6-0.9-0.6-1.5
			c0-0.8,0.3-1.4,0.9-1.9s1.4-0.7,2.4-0.7c0.6,0,1.2,0.1,1.7,0.3c0.5,0.2,1,0.5,1.4,0.8l-0.5,1c-0.8-0.7-1.7-1-2.6-1
			c-0.6,0-1.1,0.1-1.4,0.4c-0.3,0.2-0.5,0.6-0.5,1c0,0.4,0.1,0.6,0.3,0.8c0.2,0.2,0.6,0.4,1,0.5l1.5,0.4c0.8,0.2,1.4,0.5,1.8,0.9
			c0.4,0.4,0.6,0.9,0.6,1.5c0,0.7-0.3,1.3-0.9,1.8c-0.6,0.4-1.4,0.7-2.5,0.7C502.2,241.2,501,240.8,500.2,240z"/>
		<path class="st7" d="M508.7,240l0.5-1c0.5,0.4,0.9,0.6,1.4,0.8s1,0.2,1.6,0.2c0.7,0,1.2-0.1,1.5-0.3c0.3-0.2,0.5-0.5,0.5-1
			c0-0.3-0.1-0.6-0.3-0.8c-0.2-0.2-0.6-0.4-1.1-0.5l-1.5-0.3c-0.7-0.2-1.3-0.4-1.7-0.9c-0.4-0.4-0.6-0.9-0.6-1.5
			c0-0.8,0.3-1.4,0.9-1.9s1.4-0.7,2.4-0.7c0.6,0,1.2,0.1,1.7,0.3c0.5,0.2,1,0.5,1.4,0.8l-0.5,1c-0.8-0.7-1.7-1-2.6-1
			c-0.6,0-1.1,0.1-1.4,0.4c-0.3,0.2-0.5,0.6-0.5,1c0,0.4,0.1,0.6,0.3,0.8c0.2,0.2,0.6,0.4,1,0.5l1.5,0.4c0.8,0.2,1.4,0.5,1.8,0.9
			c0.4,0.4,0.6,0.9,0.6,1.5c0,0.7-0.3,1.3-0.9,1.8c-0.6,0.4-1.4,0.7-2.5,0.7C510.7,241.2,509.5,240.8,508.7,240z"/>
	</g>
	<g class="st4">
		<path class="st7" d="M436.1,258.6h-6.4l-1.4,3.2h-1.5l5.4-12.3h1.2l5.4,12.3h-1.4L436.1,258.6z M435.6,257.4l-2.7-6.3l-2.7,6.3
			H435.6z"/>
		<path class="st7" d="M439.9,260.7l0.5-1c0.5,0.4,0.9,0.6,1.4,0.8c0.5,0.2,1,0.2,1.6,0.2c0.7,0,1.2-0.1,1.5-0.3s0.5-0.5,0.5-1
			c0-0.3-0.1-0.6-0.3-0.8c-0.2-0.2-0.6-0.4-1.1-0.5l-1.5-0.3c-0.7-0.2-1.3-0.4-1.7-0.9s-0.6-0.9-0.6-1.5c0-0.8,0.3-1.4,0.9-1.9
			s1.4-0.7,2.4-0.7c0.6,0,1.2,0.1,1.7,0.3c0.5,0.2,1,0.5,1.4,0.8l-0.5,1c-0.8-0.7-1.7-1-2.6-1c-0.6,0-1.1,0.1-1.4,0.4
			c-0.3,0.2-0.5,0.6-0.5,1c0,0.4,0.1,0.6,0.3,0.8c0.2,0.2,0.6,0.4,1,0.5l1.5,0.4c0.8,0.2,1.4,0.5,1.8,0.9c0.4,0.4,0.6,0.9,0.6,1.5
			c0,0.7-0.3,1.3-0.9,1.8c-0.6,0.4-1.4,0.7-2.5,0.7C441.9,261.9,440.8,261.5,439.9,260.7z"/>
		<path class="st7" d="M448.4,260.7l0.5-1c0.5,0.4,0.9,0.6,1.4,0.8c0.5,0.2,1,0.2,1.6,0.2c0.7,0,1.2-0.1,1.5-0.3s0.5-0.5,0.5-1
			c0-0.3-0.1-0.6-0.3-0.8c-0.2-0.2-0.6-0.4-1.1-0.5l-1.5-0.3c-0.7-0.2-1.3-0.4-1.7-0.9s-0.6-0.9-0.6-1.5c0-0.8,0.3-1.4,0.9-1.9
			s1.4-0.7,2.4-0.7c0.6,0,1.2,0.1,1.7,0.3c0.5,0.2,1,0.5,1.4,0.8l-0.5,1c-0.8-0.7-1.7-1-2.6-1c-0.6,0-1.1,0.1-1.4,0.4
			c-0.3,0.2-0.5,0.6-0.5,1c0,0.4,0.1,0.6,0.3,0.8c0.2,0.2,0.6,0.4,1,0.5l1.5,0.4c0.8,0.2,1.4,0.5,1.8,0.9c0.4,0.4,0.6,0.9,0.6,1.5
			c0,0.7-0.3,1.3-0.9,1.8c-0.6,0.4-1.4,0.7-2.5,0.7C450.4,261.9,449.3,261.5,448.4,260.7z"/>
		<path class="st7" d="M464.8,257.4h-6.4c0,1.1,0.3,1.9,0.8,2.5c0.5,0.6,1.2,0.8,2.2,0.8c1,0,1.9-0.3,2.8-1l0.5,1
			c-0.4,0.4-0.9,0.6-1.5,0.8c-0.6,0.2-1.2,0.3-1.8,0.3c-1.4,0-2.4-0.4-3.2-1.2c-0.8-0.8-1.2-1.9-1.2-3.3c0-0.9,0.2-1.7,0.5-2.3
			s0.8-1.2,1.4-1.6c0.6-0.4,1.3-0.6,2.1-0.6c1.1,0,2,0.4,2.7,1.1c0.7,0.8,1,1.8,1,3.1V257.4z M459.3,254.6c-0.5,0.4-0.7,1-0.9,1.8h5
			c-0.1-0.8-0.3-1.4-0.7-1.9c-0.4-0.4-1-0.6-1.7-0.6C460.4,254,459.8,254.2,459.3,254.6z"/>
		<path class="st7" d="M466.3,260.7l0.5-1c0.5,0.4,0.9,0.6,1.4,0.8c0.5,0.2,1,0.2,1.6,0.2c0.7,0,1.2-0.1,1.5-0.3s0.5-0.5,0.5-1
			c0-0.3-0.1-0.6-0.3-0.8c-0.2-0.2-0.6-0.4-1.1-0.5l-1.5-0.3c-0.7-0.2-1.3-0.4-1.7-0.9s-0.6-0.9-0.6-1.5c0-0.8,0.3-1.4,0.9-1.9
			s1.4-0.7,2.4-0.7c0.6,0,1.2,0.1,1.7,0.3c0.5,0.2,1,0.5,1.4,0.8l-0.5,1c-0.8-0.7-1.7-1-2.6-1c-0.6,0-1.1,0.1-1.4,0.4
			c-0.3,0.2-0.5,0.6-0.5,1c0,0.4,0.1,0.6,0.3,0.8c0.2,0.2,0.6,0.4,1,0.5l1.5,0.4c0.8,0.2,1.4,0.5,1.8,0.9c0.4,0.4,0.6,0.9,0.6,1.5
			c0,0.7-0.3,1.3-0.9,1.8c-0.6,0.4-1.4,0.7-2.5,0.7C468.3,261.9,467.2,261.5,466.3,260.7z"/>
		<path class="st7" d="M474.9,260.7l0.5-1c0.5,0.4,0.9,0.6,1.4,0.8c0.5,0.2,1,0.2,1.6,0.2c0.7,0,1.2-0.1,1.5-0.3s0.5-0.5,0.5-1
			c0-0.3-0.1-0.6-0.3-0.8c-0.2-0.2-0.6-0.4-1.1-0.5l-1.5-0.3c-0.7-0.2-1.3-0.4-1.7-0.9s-0.6-0.9-0.6-1.5c0-0.8,0.3-1.4,0.9-1.9
			s1.4-0.7,2.4-0.7c0.6,0,1.2,0.1,1.7,0.3c0.5,0.2,1,0.5,1.4,0.8l-0.5,1c-0.8-0.7-1.7-1-2.6-1c-0.6,0-1.1,0.1-1.4,0.4
			c-0.3,0.2-0.5,0.6-0.5,1c0,0.4,0.1,0.6,0.3,0.8c0.2,0.2,0.6,0.4,1,0.5l1.5,0.4c0.8,0.2,1.4,0.5,1.8,0.9c0.4,0.4,0.6,0.9,0.6,1.5
			c0,0.7-0.3,1.3-0.9,1.8c-0.6,0.4-1.4,0.7-2.5,0.7C476.9,261.9,475.7,261.5,474.9,260.7z"/>
		<path class="st7" d="M496.4,256.3v5.4H495v-5.4c0-0.8-0.1-1.4-0.4-1.8c-0.3-0.4-0.7-0.6-1.4-0.6c-0.7,0-1.3,0.2-1.7,0.7
			c-0.4,0.5-0.6,1.2-0.6,2v4.9h-1.4v-5.4c0-0.8-0.1-1.4-0.4-1.8c-0.3-0.4-0.7-0.6-1.4-0.6c-0.7,0-1.3,0.2-1.7,0.7
			c-0.4,0.5-0.6,1.2-0.6,2v4.9H484v-6.2c0-0.9,0-1.7-0.1-2.4h1.3l0.1,1.5c0.2-0.6,0.6-1,1.1-1.3c0.5-0.3,1-0.4,1.7-0.4
			c0.7,0,1.3,0.1,1.7,0.4c0.4,0.3,0.8,0.7,1,1.3c0.3-0.5,0.7-0.9,1.2-1.2c0.5-0.3,1.1-0.5,1.7-0.5
			C495.5,252.9,496.4,254,496.4,256.3z"/>
		<path class="st7" d="M506.3,257.4H500c0,1.1,0.3,1.9,0.8,2.5c0.5,0.6,1.2,0.8,2.2,0.8c1,0,1.9-0.3,2.8-1l0.5,1
			c-0.4,0.4-0.9,0.6-1.5,0.8c-0.6,0.2-1.2,0.3-1.8,0.3c-1.4,0-2.4-0.4-3.2-1.2c-0.8-0.8-1.2-1.9-1.2-3.3c0-0.9,0.2-1.7,0.5-2.3
			s0.8-1.2,1.4-1.6c0.6-0.4,1.3-0.6,2.1-0.6c1.1,0,2,0.4,2.7,1.1c0.7,0.8,1,1.8,1,3.1V257.4z M500.9,254.6c-0.5,0.4-0.7,1-0.9,1.8h5
			c-0.1-0.8-0.3-1.4-0.7-1.9c-0.4-0.4-1-0.6-1.7-0.6C501.9,254,501.4,254.2,500.9,254.6z"/>
		<path class="st7" d="M515.9,256.3v5.4h-1.4v-5.4c0-0.8-0.2-1.4-0.5-1.8s-0.8-0.6-1.5-0.6c-0.8,0-1.4,0.2-1.9,0.7
			c-0.5,0.5-0.7,1.2-0.7,2v5h-1.4v-6.2c0-0.9,0-1.7-0.1-2.4h1.3l0.1,1.5c0.3-0.6,0.7-1,1.2-1.3c0.5-0.3,1.1-0.5,1.8-0.5
			C514.9,252.9,515.9,254,515.9,256.3z"/>
		<path class="st7" d="M520.4,254.2v4.7c0,0.6,0.1,1.1,0.4,1.4c0.3,0.3,0.6,0.4,1.1,0.4c0.3,0,0.6-0.1,0.9-0.2v1.2
			c-0.4,0.1-0.8,0.2-1.2,0.2c-0.8,0-1.5-0.2-1.9-0.7s-0.7-1.2-0.7-2.1v-4.9h-1.7v-1.1h1.7v-2.2l1.4-0.5v2.7h2.5v1.1H520.4z"/>
	</g>
	<rect x="258.7" y="23.3" class="st6" width="125.6" height="40.1"/>
	<g class="st4">
		<path class="st7" d="M275,25.7h4.9c1.3,0,2.2,0.3,3,0.9c0.7,0.6,1.1,1.4,1.1,2.5s-0.4,1.9-1.1,2.5c-0.7,0.6-1.7,0.9-2.9,0.9h-3.5
			V38H275V25.7z M279.8,31.4c0.9,0,1.6-0.2,2-0.6c0.5-0.4,0.7-1,0.7-1.7s-0.2-1.3-0.7-1.7s-1.1-0.6-2-0.6h-3.4v4.5H279.8z"/>
		<path class="st7" d="M293.4,29.3V38H292v-1.6c-0.3,0.5-0.6,1-1.1,1.2c-0.5,0.3-1.1,0.4-1.8,0.4c-0.8,0-1.4-0.2-2-0.6
			c-0.6-0.4-1-0.9-1.3-1.6c-0.3-0.7-0.5-1.5-0.5-2.3c0-0.9,0.2-1.7,0.5-2.4c0.3-0.7,0.8-1.2,1.4-1.6s1.2-0.6,2-0.6
			c0.7,0,1.3,0.1,1.8,0.4c0.5,0.3,0.9,0.7,1.2,1.3v-1.5H293.4z M291.3,36.1c0.5-0.6,0.7-1.4,0.7-2.5s-0.2-1.9-0.7-2.5
			c-0.5-0.6-1.1-0.9-2-0.9c-0.8,0-1.5,0.3-2,0.9c-0.5,0.6-0.7,1.4-0.7,2.5s0.2,1.9,0.7,2.4c0.5,0.6,1.1,0.9,2,0.9
			C290.2,37,290.9,36.7,291.3,36.1z"/>
		<path class="st7" d="M300.9,29.2l0,1.3c-0.3-0.1-0.6-0.1-0.9-0.1c-0.8,0-1.5,0.3-1.9,0.8s-0.6,1.2-0.6,1.9V38h-1.4v-6.2
			c0-0.9,0-1.7-0.1-2.4h1.3l0.1,1.6c0.2-0.6,0.6-1,1-1.3c0.5-0.3,1-0.5,1.7-0.5C300.4,29.1,300.7,29.2,300.9,29.2z"/>
		<path class="st7" d="M304.9,30.4v4.7c0,0.6,0.1,1.1,0.4,1.4c0.3,0.3,0.6,0.4,1.1,0.4c0.3,0,0.6-0.1,0.9-0.2v1.2
			c-0.4,0.1-0.8,0.2-1.2,0.2c-0.8,0-1.5-0.2-1.9-0.7s-0.7-1.2-0.7-2.1v-4.9h-1.7v-1.1h1.7v-2.2l1.4-0.5v2.7h2.5v1.1H304.9z"/>
		<path class="st7" d="M316.5,32.6V38h-1.4v-5.4c0-0.8-0.2-1.4-0.5-1.8s-0.8-0.6-1.5-0.6c-0.8,0-1.4,0.2-1.9,0.7
			c-0.5,0.5-0.7,1.2-0.7,2v5H309v-6.2c0-0.9,0-1.7-0.1-2.4h1.3l0.1,1.5c0.3-0.6,0.7-1,1.2-1.3c0.5-0.3,1.1-0.5,1.8-0.5
			C315.4,29.1,316.5,30.3,316.5,32.6z"/>
		<path class="st7" d="M326.3,33.6H320c0,1.1,0.3,1.9,0.8,2.5c0.5,0.6,1.2,0.8,2.2,0.8c1,0,1.9-0.3,2.8-1l0.5,1
			c-0.4,0.4-0.9,0.6-1.5,0.8c-0.6,0.2-1.2,0.3-1.8,0.3c-1.4,0-2.4-0.4-3.2-1.2c-0.8-0.8-1.2-1.9-1.2-3.3c0-0.9,0.2-1.7,0.5-2.3
			s0.8-1.2,1.4-1.6c0.6-0.4,1.3-0.6,2.1-0.6c1.1,0,2,0.4,2.7,1.1c0.7,0.8,1,1.8,1,3.1V33.6z M320.9,30.9c-0.5,0.4-0.7,1-0.9,1.8h5
			c-0.1-0.8-0.3-1.4-0.7-1.9c-0.4-0.4-1-0.6-1.7-0.6C322,30.2,321.4,30.4,320.9,30.9z"/>
		<path class="st7" d="M333.3,29.2l0,1.3c-0.3-0.1-0.6-0.1-0.9-0.1c-0.8,0-1.5,0.3-1.9,0.8s-0.6,1.2-0.6,1.9V38h-1.4v-6.2
			c0-0.9,0-1.7-0.1-2.4h1.3l0.1,1.6c0.2-0.6,0.6-1,1-1.3c0.5-0.3,1-0.5,1.7-0.5C332.8,29.1,333,29.2,333.3,29.2z"/>
		<path class="st7" d="M334.1,37l0.5-1c0.5,0.4,0.9,0.6,1.4,0.8c0.5,0.2,1,0.2,1.6,0.2c0.7,0,1.2-0.1,1.5-0.3s0.5-0.5,0.5-1
			c0-0.3-0.1-0.6-0.3-0.8c-0.2-0.2-0.6-0.4-1.1-0.5l-1.5-0.3c-0.7-0.2-1.3-0.4-1.7-0.9s-0.6-0.9-0.6-1.5c0-0.8,0.3-1.4,0.9-1.9
			s1.4-0.7,2.4-0.7c0.6,0,1.2,0.1,1.7,0.3c0.5,0.2,1,0.5,1.4,0.8l-0.5,1c-0.8-0.7-1.7-1-2.6-1c-0.6,0-1.1,0.1-1.4,0.4
			c-0.3,0.2-0.5,0.6-0.5,1c0,0.4,0.1,0.6,0.3,0.8c0.2,0.2,0.6,0.4,1,0.5l1.5,0.4c0.8,0.2,1.4,0.5,1.8,0.9c0.4,0.4,0.6,0.9,0.6,1.5
			c0,0.7-0.3,1.3-0.9,1.8c-0.6,0.4-1.4,0.7-2.5,0.7C336.1,38.1,334.9,37.7,334.1,37z"/>
		<path class="st7" d="M350.6,32.6V38h-1.4v-5.4c0-0.8-0.2-1.4-0.5-1.8s-0.8-0.6-1.5-0.6c-0.8,0-1.4,0.2-1.9,0.7
			c-0.5,0.5-0.7,1.2-0.7,2v5h-1.4V25.3h1.4v5.4c0.3-0.5,0.7-0.9,1.2-1.2c0.5-0.3,1.1-0.4,1.7-0.4C349.5,29.1,350.6,30.3,350.6,32.6z
			"/>
		<path class="st7" d="M354.8,25.7v1.6h-1.7v-1.6H354.8z M353.2,29.3h1.4V38h-1.4V29.3z"/>
		<path class="st7" d="M363.7,29.7c0.6,0.4,1,0.9,1.4,1.6c0.3,0.7,0.5,1.5,0.5,2.4c0,0.9-0.2,1.7-0.5,2.3c-0.3,0.7-0.8,1.2-1.4,1.6
			c-0.6,0.4-1.3,0.6-2,0.6c-0.7,0-1.3-0.1-1.8-0.4c-0.5-0.3-0.9-0.7-1.2-1.3v5.3h-1.4v-10c0-0.9,0-1.7-0.1-2.4h1.3l0.1,1.7
			c0.2-0.6,0.6-1.1,1.1-1.4c0.5-0.3,1.1-0.5,1.9-0.5C362.4,29.1,363.1,29.3,363.7,29.7z M363.4,36.1c0.5-0.6,0.7-1.4,0.7-2.4
			s-0.2-1.9-0.7-2.5c-0.5-0.6-1.1-0.9-2-0.9c-0.9,0-1.5,0.3-2,0.9c-0.5,0.6-0.7,1.4-0.7,2.5s0.2,1.9,0.7,2.5c0.5,0.6,1.1,0.9,2,0.9
			C362.2,37,362.9,36.7,363.4,36.1z"/>
	</g>
	<g class="st4">
		<path class="st7" d="M264.5,46.4h7.7v1.2h-6.4v4.3h6v1.2h-6v4.5h6.4v1.2h-7.7V46.4z"/>
		<path class="st7" d="M273.9,57.7l0.5-1c0.5,0.4,0.9,0.6,1.4,0.8c0.5,0.2,1,0.2,1.6,0.2c0.7,0,1.2-0.1,1.5-0.3s0.5-0.5,0.5-1
			c0-0.3-0.1-0.6-0.3-0.8c-0.2-0.2-0.6-0.4-1.1-0.5l-1.5-0.3c-0.7-0.2-1.3-0.4-1.7-0.9s-0.6-0.9-0.6-1.5c0-0.8,0.3-1.4,0.9-1.9
			s1.4-0.7,2.4-0.7c0.6,0,1.2,0.1,1.7,0.3c0.5,0.2,1,0.5,1.4,0.8l-0.5,1c-0.8-0.7-1.7-1-2.6-1c-0.6,0-1.1,0.1-1.4,0.4
			c-0.3,0.2-0.5,0.6-0.5,1c0,0.4,0.1,0.6,0.3,0.8c0.2,0.2,0.6,0.4,1,0.5l1.5,0.4c0.8,0.2,1.4,0.5,1.8,0.9c0.4,0.4,0.6,0.9,0.6,1.5
			c0,0.7-0.3,1.3-0.9,1.8c-0.6,0.4-1.4,0.7-2.5,0.7C275.9,58.8,274.8,58.4,273.9,57.7z"/>
		<path class="st7" d="M284.8,51.1v4.7c0,0.6,0.1,1.1,0.4,1.4c0.3,0.3,0.6,0.4,1.1,0.4c0.3,0,0.6-0.1,0.9-0.2v1.2
			c-0.4,0.1-0.8,0.2-1.2,0.2c-0.8,0-1.5-0.2-1.9-0.7s-0.7-1.2-0.7-2.1v-4.9h-1.7V50h1.7v-2.2l1.4-0.5V50h2.5v1.1H284.8z"/>
		<path class="st7" d="M296.6,50v8.7h-1.4v-1.6c-0.3,0.5-0.6,1-1.1,1.2c-0.5,0.3-1.1,0.4-1.8,0.4c-0.8,0-1.4-0.2-2-0.6
			c-0.6-0.4-1-0.9-1.3-1.6c-0.3-0.7-0.5-1.5-0.5-2.3c0-0.9,0.2-1.7,0.5-2.4c0.3-0.7,0.8-1.2,1.4-1.6s1.2-0.6,2-0.6
			c0.7,0,1.3,0.1,1.8,0.4c0.5,0.3,0.9,0.7,1.2,1.3V50H296.6z M294.5,56.8c0.5-0.6,0.7-1.4,0.7-2.5s-0.2-1.9-0.7-2.5
			c-0.5-0.6-1.1-0.9-2-0.9c-0.8,0-1.5,0.3-2,0.9c-0.5,0.6-0.7,1.4-0.7,2.5s0.2,1.9,0.7,2.4c0.5,0.6,1.1,0.9,2,0.9
			C293.4,57.7,294,57.4,294.5,56.8z"/>
		<path class="st7" d="M305.6,50.4c0.6,0.4,1,0.9,1.4,1.6c0.3,0.7,0.5,1.5,0.5,2.3s-0.2,1.7-0.5,2.4c-0.3,0.7-0.8,1.2-1.4,1.6
			c-0.6,0.4-1.3,0.6-2,0.6c-0.7,0-1.3-0.1-1.8-0.4c-0.5-0.3-0.9-0.7-1.2-1.3v1.6h-1.4V46h1.4v5.5c0.3-0.6,0.6-1,1.1-1.3
			c0.5-0.3,1.1-0.4,1.8-0.4C304.4,49.8,305,50,305.6,50.4z M305.3,56.8c0.5-0.6,0.7-1.4,0.7-2.5c0-1-0.2-1.9-0.7-2.4
			c-0.5-0.6-1.1-0.9-2-0.9c-0.9,0-1.5,0.3-2,0.9c-0.5,0.6-0.7,1.4-0.7,2.5s0.2,1.9,0.7,2.5c0.5,0.6,1.1,0.9,2,0.9
			C304.2,57.7,304.8,57.4,305.3,56.8z"/>
		<path class="st7" d="M309.6,46h1.4v12.7h-1.4V46z"/>
		<path class="st7" d="M315.3,46.4V48h-1.7v-1.6H315.3z M313.7,50h1.4v8.7h-1.4V50z"/>
		<path class="st7" d="M317.3,57.7l0.5-1c0.5,0.4,0.9,0.6,1.4,0.8c0.5,0.2,1,0.2,1.6,0.2c0.7,0,1.2-0.1,1.5-0.3s0.5-0.5,0.5-1
			c0-0.3-0.1-0.6-0.3-0.8c-0.2-0.2-0.6-0.4-1.1-0.5l-1.5-0.3c-0.7-0.2-1.3-0.4-1.7-0.9s-0.6-0.9-0.6-1.5c0-0.8,0.3-1.4,0.9-1.9
			s1.4-0.7,2.4-0.7c0.6,0,1.2,0.1,1.7,0.3c0.5,0.2,1,0.5,1.4,0.8l-0.5,1c-0.8-0.7-1.7-1-2.6-1c-0.6,0-1.1,0.1-1.4,0.4
			c-0.3,0.2-0.5,0.6-0.5,1c0,0.4,0.1,0.6,0.3,0.8c0.2,0.2,0.6,0.4,1,0.5l1.5,0.4c0.8,0.2,1.4,0.5,1.8,0.9c0.4,0.4,0.6,0.9,0.6,1.5
			c0,0.7-0.3,1.3-0.9,1.8c-0.6,0.4-1.4,0.7-2.5,0.7C319.3,58.8,318.1,58.4,317.3,57.7z"/>
		<path class="st7" d="M333.8,53.3v5.4h-1.4v-5.4c0-0.8-0.2-1.4-0.5-1.8s-0.8-0.6-1.5-0.6c-0.8,0-1.4,0.2-1.9,0.7
			c-0.5,0.5-0.7,1.2-0.7,2v5h-1.4V46h1.4v5.4c0.3-0.5,0.7-0.9,1.2-1.2c0.5-0.3,1.1-0.4,1.7-0.4C332.7,49.8,333.8,51,333.8,53.3z"/>
		<path class="st7" d="M348.9,53.3v5.4h-1.4v-5.4c0-0.8-0.1-1.4-0.4-1.8c-0.3-0.4-0.7-0.6-1.4-0.6c-0.7,0-1.3,0.2-1.7,0.7
			c-0.4,0.5-0.6,1.2-0.6,2v4.9H342v-5.4c0-0.8-0.1-1.4-0.4-1.8c-0.3-0.4-0.7-0.6-1.4-0.6c-0.7,0-1.3,0.2-1.7,0.7
			c-0.4,0.5-0.6,1.2-0.6,2v4.9h-1.4v-6.2c0-0.9,0-1.7-0.1-2.4h1.3l0.1,1.5c0.2-0.6,0.6-1,1.1-1.3c0.5-0.3,1-0.4,1.7-0.4
			c0.7,0,1.3,0.1,1.7,0.4c0.4,0.3,0.8,0.7,1,1.3c0.3-0.5,0.7-0.9,1.2-1.2c0.5-0.3,1.1-0.5,1.7-0.5C347.9,49.8,348.9,51,348.9,53.3z"
			/>
		<path class="st7" d="M358.8,54.3h-6.4c0,1.1,0.3,1.9,0.8,2.5c0.5,0.6,1.2,0.8,2.2,0.8c1,0,1.9-0.3,2.8-1l0.5,1
			c-0.4,0.4-0.9,0.6-1.5,0.8c-0.6,0.2-1.2,0.3-1.8,0.3c-1.4,0-2.4-0.4-3.2-1.2c-0.8-0.8-1.2-1.9-1.2-3.3c0-0.9,0.2-1.7,0.5-2.3
			s0.8-1.2,1.4-1.6c0.6-0.4,1.3-0.6,2.1-0.6c1.1,0,2,0.4,2.7,1.1c0.7,0.8,1,1.8,1,3.1V54.3z M353.4,51.6c-0.5,0.4-0.7,1-0.9,1.8h5
			c-0.1-0.8-0.3-1.4-0.7-1.9c-0.4-0.4-1-0.6-1.7-0.6C354.4,50.9,353.8,51.1,353.4,51.6z"/>
		<path class="st7" d="M368.3,53.3v5.4h-1.4v-5.4c0-0.8-0.2-1.4-0.5-1.8s-0.8-0.6-1.5-0.6c-0.8,0-1.4,0.2-1.9,0.7
			c-0.5,0.5-0.7,1.2-0.7,2v5h-1.4v-6.2c0-0.9,0-1.7-0.1-2.4h1.3l0.1,1.5c0.3-0.6,0.7-1,1.2-1.3c0.5-0.3,1.1-0.5,1.8-0.5
			C367.3,49.8,368.3,51,368.3,53.3z"/>
		<path class="st7" d="M372.8,51.1v4.7c0,0.6,0.1,1.1,0.4,1.4c0.3,0.3,0.6,0.4,1.1,0.4c0.3,0,0.6-0.1,0.9-0.2v1.2
			c-0.4,0.1-0.8,0.2-1.2,0.2c-0.8,0-1.5-0.2-1.9-0.7s-0.7-1.2-0.7-2.1v-4.9h-1.7V50h1.7v-2.2l1.4-0.5V50h2.5v1.1H372.8z"/>
	</g>
	<rect x="253.1" y="226.3" class="st6" width="136.7" height="40.1"/>
	<g class="st4">
		<path class="st7" d="M282.1,228.8h7.6v1.2h-6.2v4.3h5.8v1.2h-5.8v5.6h-1.4V228.8z"/>
		<path class="st7" d="M298.7,236.7h-6.4c0,1.1,0.3,1.9,0.8,2.5c0.5,0.6,1.2,0.8,2.2,0.8c1,0,1.9-0.3,2.8-1l0.5,1
			c-0.4,0.4-0.9,0.6-1.5,0.8c-0.6,0.2-1.2,0.3-1.8,0.3c-1.4,0-2.4-0.4-3.2-1.2c-0.8-0.8-1.2-1.9-1.2-3.3c0-0.9,0.2-1.7,0.5-2.3
			s0.8-1.2,1.4-1.6c0.6-0.4,1.3-0.6,2.1-0.6c1.1,0,2,0.4,2.7,1.1c0.7,0.8,1,1.8,1,3.1V236.7z M293.2,233.9c-0.5,0.4-0.7,1-0.9,1.8h5
			c-0.1-0.8-0.3-1.4-0.7-1.9c-0.4-0.4-1-0.6-1.7-0.6C294.3,233.3,293.7,233.5,293.2,233.9z"/>
		<path class="st7" d="M308.4,228.4v12.7H307v-1.6c-0.3,0.5-0.6,1-1.1,1.2c-0.5,0.3-1.1,0.4-1.8,0.4c-0.8,0-1.4-0.2-2-0.6
			c-0.6-0.4-1-0.9-1.4-1.6c-0.3-0.7-0.5-1.5-0.5-2.4s0.2-1.7,0.5-2.3c0.3-0.7,0.8-1.2,1.4-1.6c0.6-0.4,1.3-0.6,2-0.6
			c0.7,0,1.3,0.1,1.8,0.4c0.5,0.3,0.9,0.7,1.1,1.2v-5.5H308.4z M306.3,239.2c0.5-0.6,0.7-1.4,0.7-2.5c0-1.1-0.2-1.9-0.7-2.5
			c-0.5-0.6-1.1-0.9-2-0.9c-0.8,0-1.5,0.3-2,0.9c-0.5,0.6-0.7,1.4-0.7,2.4c0,1.1,0.2,1.9,0.7,2.5c0.5,0.6,1.1,0.9,2,0.9
			C305.2,240,305.9,239.7,306.3,239.2z"/>
		<path class="st7" d="M320.9,241.1h-1.5l-1.5-4.1c-0.2-0.5-0.4-0.8-0.8-1s-0.8-0.3-1.4-0.3h-3.1v5.4h-1.4v-12.3h4.9
			c1.3,0,2.3,0.3,3,0.9c0.7,0.6,1.1,1.4,1.1,2.5c0,0.8-0.2,1.5-0.6,2c-0.4,0.5-1,0.9-1.8,1.2c0.4,0.1,0.7,0.2,0.9,0.5
			c0.3,0.2,0.5,0.6,0.6,1.1L320.9,241.1z M316,234.5c1.9,0,2.8-0.8,2.8-2.3c0-0.8-0.2-1.3-0.7-1.7S317,230,316,230h-3.4v4.6H316z"/>
		<path class="st7" d="M331.1,237.9h-6.4l-1.4,3.2h-1.5l5.4-12.3h1.2l5.4,12.3h-1.4L331.1,237.9z M330.6,236.7l-2.7-6.3l-2.7,6.3
			H330.6z"/>
		<path class="st7" d="M347.3,228.8v12.3H346V232l-4,9.1h-1l-4-9l0,9h-1.3v-12.3h1.2l4.6,10.6l4.6-10.6H347.3z"/>
		<path class="st7" d="M350.4,228.8h4.9c1.3,0,2.2,0.3,3,0.9c0.7,0.6,1.1,1.4,1.1,2.5s-0.4,1.9-1.1,2.5c-0.7,0.6-1.7,0.9-2.9,0.9
			h-3.5v5.4h-1.4V228.8z M355.1,234.5c0.9,0,1.6-0.2,2-0.6c0.5-0.4,0.7-1,0.7-1.7s-0.2-1.3-0.7-1.7s-1.1-0.6-2-0.6h-3.4v4.5H355.1z"
			/>
	</g>
	<g class="st4">
		<path class="st7" d="M291.3,261.1c-0.9-0.5-1.5-1.2-2-2.2c-0.5-0.9-0.7-2.1-0.7-3.3s0.2-2.4,0.7-3.3s1.1-1.7,2-2.2
			c0.9-0.5,1.9-0.8,3-0.8c0.8,0,1.6,0.1,2.3,0.4c0.7,0.3,1.3,0.6,1.8,1.2l-0.5,1.1c-0.6-0.5-1.2-0.9-1.7-1.1
			c-0.6-0.2-1.2-0.3-1.9-0.3c-1.3,0-2.4,0.4-3.1,1.3s-1.1,2.1-1.1,3.7c0,1.6,0.4,2.9,1.1,3.7s1.8,1.3,3.1,1.3c0.7,0,1.3-0.1,1.9-0.3
			c0.6-0.2,1.1-0.6,1.7-1.1l0.5,1.1c-0.5,0.5-1.1,0.9-1.8,1.2c-0.7,0.3-1.5,0.4-2.3,0.4C293.1,261.9,292.1,261.6,291.3,261.1z"/>
		<path class="st7" d="M301.9,261.3c-0.6-0.4-1.1-0.9-1.4-1.6c-0.3-0.7-0.5-1.5-0.5-2.4c0-0.9,0.2-1.7,0.5-2.4
			c0.3-0.7,0.8-1.2,1.4-1.6c0.6-0.4,1.3-0.6,2.2-0.6s1.5,0.2,2.2,0.6c0.6,0.4,1.1,0.9,1.4,1.6c0.3,0.7,0.5,1.5,0.5,2.4
			c0,0.9-0.2,1.7-0.5,2.4c-0.3,0.7-0.8,1.2-1.4,1.6c-0.6,0.4-1.3,0.6-2.2,0.6S302.5,261.7,301.9,261.3z M306.1,259.9
			c0.5-0.6,0.7-1.4,0.7-2.5c0-1.1-0.2-1.9-0.7-2.5c-0.5-0.6-1.1-0.9-2-0.9c-0.8,0-1.5,0.3-2,0.9c-0.5,0.6-0.7,1.4-0.7,2.5
			c0,1.1,0.2,1.9,0.7,2.5c0.5,0.6,1.1,0.9,2,0.9C304.9,260.7,305.6,260.4,306.1,259.9z"/>
		<path class="st7" d="M317.8,256.3v5.4h-1.4v-5.4c0-0.8-0.2-1.4-0.5-1.8s-0.8-0.6-1.5-0.6c-0.8,0-1.4,0.2-1.9,0.7
			c-0.5,0.5-0.7,1.2-0.7,2v5h-1.4v-6.2c0-0.9,0-1.7-0.1-2.4h1.3l0.1,1.5c0.3-0.6,0.7-1,1.2-1.3c0.5-0.3,1.1-0.5,1.8-0.5
			C316.7,252.9,317.8,254,317.8,256.3z"/>
		<path class="st7" d="M327.8,256.3v5.4h-1.4v-5.4c0-0.8-0.2-1.4-0.5-1.8s-0.8-0.6-1.5-0.6c-0.8,0-1.4,0.2-1.9,0.7
			c-0.5,0.5-0.7,1.2-0.7,2v5h-1.4v-6.2c0-0.9,0-1.7-0.1-2.4h1.3l0.1,1.5c0.3-0.6,0.7-1,1.2-1.3c0.5-0.3,1.1-0.5,1.8-0.5
			C326.8,252.9,327.8,254,327.8,256.3z"/>
		<path class="st7" d="M337.7,257.4h-6.4c0,1.1,0.3,1.9,0.8,2.5c0.5,0.6,1.2,0.8,2.2,0.8c1,0,1.9-0.3,2.8-1l0.5,1
			c-0.4,0.4-0.9,0.6-1.5,0.8c-0.6,0.2-1.2,0.3-1.8,0.3c-1.4,0-2.4-0.4-3.2-1.2c-0.8-0.8-1.2-1.9-1.2-3.3c0-0.9,0.2-1.7,0.5-2.3
			s0.8-1.2,1.4-1.6c0.6-0.4,1.3-0.6,2.1-0.6c1.1,0,2,0.4,2.7,1.1c0.7,0.8,1,1.8,1,3.1V257.4z M332.3,254.6c-0.5,0.4-0.7,1-0.9,1.8h5
			c-0.1-0.8-0.3-1.4-0.7-1.9c-0.4-0.4-1-0.6-1.7-0.6C333.3,254,332.8,254.2,332.3,254.6z"/>
		<path class="st7" d="M341.3,261.3c-0.6-0.4-1.1-0.9-1.4-1.6c-0.3-0.7-0.5-1.5-0.5-2.3c0-0.9,0.2-1.7,0.5-2.4s0.8-1.2,1.5-1.6
			c0.6-0.4,1.4-0.6,2.2-0.6c0.6,0,1.2,0.1,1.7,0.3c0.5,0.2,1,0.5,1.4,0.8l-0.5,1c-0.4-0.3-0.9-0.6-1.3-0.8s-0.8-0.2-1.2-0.2
			c-0.9,0-1.6,0.3-2.1,0.9s-0.8,1.4-0.8,2.5c0,1,0.2,1.9,0.7,2.4c0.5,0.6,1.2,0.9,2.1,0.9c0.4,0,0.8-0.1,1.2-0.2
			c0.4-0.2,0.8-0.4,1.3-0.8l0.5,1c-0.4,0.3-0.8,0.6-1.4,0.8c-0.6,0.2-1.1,0.3-1.7,0.3C342.6,261.9,341.9,261.7,341.3,261.3z"/>
		<path class="st7" d="M350.2,254.2v4.7c0,0.6,0.1,1.1,0.4,1.4c0.3,0.3,0.6,0.4,1.1,0.4c0.3,0,0.6-0.1,0.9-0.2v1.2
			c-0.4,0.1-0.8,0.2-1.2,0.2c-0.8,0-1.5-0.2-1.9-0.7s-0.7-1.2-0.7-2.1v-4.9h-1.7v-1.1h1.7v-2.2l1.4-0.5v2.7h2.5v1.1H350.2z"/>
	</g>
</g>
</svg>
