<?xml version="1.0" encoding="utf-8"?>
<!-- Generator: Adobe Illustrator 24.2.3, SVG Export Plug-In . SVG Version: 6.00 Build 0)  -->
<svg version="1.1" id="Layer_1" xmlns="http://www.w3.org/2000/svg" xmlns:xlink="http://www.w3.org/1999/xlink" x="0px" y="0px"
	 viewBox="0 0 302 1183" style="enable-background:new 0 0 302 1183;" xml:space="preserve">
<style type="text/css">
	.st0{fill:#FFFFFF;}
	.st1{fill:#0A90B7;}
	.st2{fill:#C71F25;}
	.st3{fill:#1A4480;}
	.st4{enable-background:new    ;}
	.st5{fill:none;}
	.st6{fill:#D0D0D0;}
</style>
<g id="Layer_4">
	<path id="Path_11101_3_" class="st0" d="M284.2,1174.3H0.4l16.5-29.8l-16.5-29.9h283.7l17.8,29.9L284.2,1174.3z"/>
	<path id="Path_11100_2_" class="st1" d="M288.5,170.1H0v-59.7h288.5l13.1,29.9L288.5,170.1z"/>
	<path id="Path_11287_3_" class="st1" d="M288.9,496.6H0.6l12.6-29.8L0.6,436.9h288.3l12.6,29.9L288.9,496.6z"/>
	<path id="Path_11287_5_" class="st1" d="M288.9,888.6H0.6l12.6-29.8L0.6,828.9h288.3l12.6,29.9L288.9,888.6z"/>
	<path id="Path_11341_3_" class="st1" d="M11.4,1169.9H7.7l1.4-2.9l9.4-20.2l1.1-2.4l-1.1-2.4l-9.4-20.3l-1.4-2.9H38v-4.3H0.4
		l13.5,29.1l0.4,0.8l-0.4,0.8l-13.5,29l226.7-0.3v6.1l12.5-8.1l-12.5-8.1v5.9L11.4,1169.9L11.4,1169.9z"/>
	<path id="Path_11342_3_" class="st1" d="M226.9,1167.6v-3.7l12.5,8.1l-12.5,8.1v-6.1l-226.5,0.2l13.5-29l0.4-0.8l-0.4-0.8
		l-13.5-29.1H38v4.3H7.7l1.4,2.9l9.4,20.3l1.1,2.4l-1.1,2.4L9.1,1167l-1.4,2.9l219.2-0.2V1167.6z"/>
	<path id="Path_11343_3_" class="st1" d="M287.2,1174.2h-36.7v-4.3H284l0.6-1.3l11.6-23.4l0.4-0.9l-0.4-0.9l-11.6-23.5l-0.6-1.3
		l-221.6-0.1v6l-12.4-8.1l12.4-8.1v5.9l224.7,0.1l14.8,29.9L287.2,1174.2z"/>
</g>
<g id="Layer_3">
	<g>
		<polygon class="st0" points="249,529.9 231.8,511.9 214.7,529.9 163,529.9 163,598.9 299.8,598.9 299.8,529.9 		"/>
		<path class="st2" d="M300.2,599.3H162.6v-69.8h51.9l17.3-18.2l17.4,18.2h51V599.3z M163.4,598.5h136v-68.3h-50.6l-0.1-0.1
			l-16.9-17.7l-16.9,17.8h-51.5V598.5z"/>
	</g>
	<g>
		<polygon class="st0" points="88,529.9 70.9,511.9 53.8,529.9 2.1,529.9 2.1,598.9 138.9,598.9 138.9,529.9 		"/>
		<path class="st2" d="M139.3,599.3H1.7v-69.8h51.9l17.3-18.2l17.3,18.2h51.1L139.3,599.3L139.3,599.3z M2.5,598.5h136v-68.3H87.8
			l-16.9-17.8L54,530.3H2.5V598.5z"/>
	</g>
	<g>
		<polygon class="st0" points="299.8,345 163,345 163,414 214.9,414 231.8,431.8 248.8,414 299.8,414 		"/>
		<path class="st3" d="M231.8,432.3l-17.1-18h-52.1v-69.8h137.5v69.8H249L231.8,432.3z M163.4,413.6h51.7l0.1,0.1l16.6,17.5
			l16.8-17.6h50.8v-68.2h-136V413.6z"/>
	</g>
	<g>
		<polygon class="st0" points="138.9,345 2.1,345 2.1,414 53.9,414 70.9,431.8 87.8,414 138.9,414 		"/>
		<path class="st3" d="M70.9,432.3l-17.2-18h-52v-69.8h137.5v69.8H88L70.9,432.3z M2.5,413.6h51.6l0.1,0.1l16.7,17.5l16.7-17.6h50.9
			v-68.2H2.5V413.6z"/>
	</g>
	<g>
		<polygon class="st0" points="249,920.9 231.8,902.9 214.7,920.9 163,920.9 163,1007.9 299.8,1007.9 299.8,920.9 		"/>
		<path class="st2" d="M300.2,1008.3H162.6v-87.8h51.9l17.3-18.2l17.4,18.2h51V1008.3z M163.4,1007.5h136v-86.2h-50.6l-17-17.8
			l-16.9,17.8h-51.5V1007.5z"/>
	</g>
	<g>
		<polygon class="st0" points="88,920.9 70.9,902.9 53.8,920.9 2.1,920.9 2.1,1007.9 138.9,1007.9 138.9,920.9 		"/>
		<path class="st2" d="M139.3,1008.3H1.7v-87.8h51.9l17.3-18.2l17.3,18.2h51.1L139.3,1008.3L139.3,1008.3z M2.5,1007.5h136v-86.2
			H87.8l-0.1-0.1l-16.8-17.7L54,921.3H2.5V1007.5z"/>
	</g>
	<g>
		<polygon class="st0" points="299.8,718 163,718 163,805 214.9,805 231.8,822.8 248.8,805 299.8,805 		"/>
		<path class="st3" d="M231.8,823.3l-0.3-0.3l-16.8-17.7h-52.1v-87.8h137.5v87.8H249L231.8,823.3z M163.4,804.6h51.7l0.1,0.1
			l16.6,17.5l16.8-17.6h50.8v-86.2h-136V804.6z"/>
	</g>
	<g>
		<polygon class="st0" points="138.9,718 2.1,718 2.1,805 53.9,805 70.9,822.8 87.8,805 138.9,805 		"/>
		<path class="st3" d="M70.9,823.3l-17.2-18h-52v-87.8h137.5v87.8H88L70.9,823.3z M2.5,804.6h51.6l0.1,0.1l16.7,17.5l16.7-17.6h50.9
			v-86.2H2.5V804.6z"/>
	</g>
	<g>
		<g class="st4">
			<path class="st0" d="M34.9,145.8l0.9-2.1c1,0.7,2.5,1.2,3.9,1.2c1.6,0,2.3-0.5,2.3-1.3c0-2.2-6.9-0.7-6.9-5.1c0-2,1.6-3.7,5-3.7
				c1.5,0,3,0.4,4.1,1.1l-0.8,2.1c-1.1-0.6-2.2-0.9-3.3-0.9c-1.6,0-2.3,0.6-2.3,1.4c0,2.2,6.9,0.7,6.9,5c0,2-1.6,3.7-5,3.7
				C37.9,147.2,36,146.6,34.9,145.8z"/>
			<path class="st0" d="M55.4,143.1h-6.9c0.3,1.1,1.2,1.8,2.6,1.8c1,0,1.7-0.3,2.3-0.9l1.4,1.5c-0.9,1-2.1,1.5-3.8,1.5
				c-3.2,0-5.2-2-5.2-4.7s2.1-4.7,4.9-4.7c2.7,0,4.8,1.8,4.8,4.7C55.5,142.6,55.5,142.9,55.4,143.1z M48.5,141.6H53
				c-0.2-1.2-1.1-1.9-2.2-1.9C49.5,139.7,48.7,140.4,48.5,141.6z"/>
			<path class="st0" d="M57.3,134.3H60V147h-2.7V134.3z"/>
			<path class="st0" d="M71.3,143.1h-6.9c0.3,1.1,1.2,1.8,2.6,1.8c1,0,1.7-0.3,2.3-0.9l1.4,1.5c-0.9,1-2.1,1.5-3.8,1.5
				c-3.2,0-5.2-2-5.2-4.7s2.1-4.7,4.9-4.7c2.7,0,4.8,1.8,4.8,4.7C71.3,142.6,71.3,142.9,71.3,143.1z M64.3,141.6h4.5
				c-0.2-1.2-1.1-1.9-2.2-1.9C65.4,139.7,64.5,140.4,64.3,141.6z"/>
			<path class="st0" d="M72.4,142.4c0-2.8,2.1-4.7,5.1-4.7c1.9,0,3.4,0.8,4.1,2.3l-2.1,1.1c-0.5-0.9-1.2-1.3-2.1-1.3
				c-1.3,0-2.4,0.9-2.4,2.5s1.1,2.5,2.4,2.5c0.8,0,1.6-0.4,2.1-1.3l2.1,1.1c-0.7,1.5-2.2,2.3-4.1,2.3
				C74.5,147.1,72.4,145.1,72.4,142.4z"/>
			<path class="st0" d="M89.2,146.5c-0.5,0.4-1.3,0.6-2.2,0.6c-2.2,0-3.4-1.1-3.4-3.3V140h-1.4v-2h1.4v-2.2h2.7v2.2h2.3v2h-2.3v3.7
				c0,0.8,0.4,1.2,1.1,1.2c0.4,0,0.8-0.1,1.1-0.3L89.2,146.5z"/>
			<path class="st0" d="M103.5,144.4H98l-1.1,2.5h-2.8l5.3-11.9h2.7l5.3,11.9h-2.9L103.5,144.4z M102.6,142.3l-1.9-4.6l-1.9,4.6
				H102.6z"/>
			<path class="st0" d="M117.6,137.8v9.1H115v-1.1c-0.7,0.8-1.7,1.2-2.8,1.2c-2.3,0-3.9-1.3-3.9-4.1v-5.2h2.7v4.8
				c0,1.5,0.7,2.2,1.9,2.2c1.2,0,2.1-0.8,2.1-2.5v-4.5h2.6C117.6,137.7,117.6,137.8,117.6,137.8z"/>
			<path class="st0" d="M125.9,146.5c-0.5,0.4-1.3,0.6-2.2,0.6c-2.2,0-3.4-1.1-3.4-3.3V140h-1.4v-2h1.4v-2.2h2.7v2.2h2.3v2H123v3.7
				c0,0.8,0.4,1.2,1.1,1.2c0.4,0,0.8-0.1,1.1-0.3L125.9,146.5z"/>
			<path class="st0" d="M136.8,141.7v5.2h-2.7v-4.8c0-1.5-0.7-2.2-1.9-2.2c-1.3,0-2.2,0.8-2.2,2.5v4.5h-2.7v-12.6h2.7v4.4
				c0.7-0.7,1.7-1.1,2.9-1.1C135.1,137.7,136.8,138.9,136.8,141.7z"/>
			<path class="st0" d="M138.6,142.4c0-2.8,2.1-4.7,5-4.7s5,2,5,4.7s-2.1,4.7-5,4.7C140.7,147.1,138.6,145.1,138.6,142.4z
				 M145.9,142.4c0-1.6-1-2.5-2.3-2.5s-2.3,1-2.3,2.5c0,1.6,1,2.5,2.3,2.5S145.9,144,145.9,142.4z"/>
			<path class="st0" d="M156.1,137.7v2.4c-0.2,0-0.4,0-0.6,0c-1.5,0-2.4,0.8-2.4,2.5v4.3h-2.7v-9.1h2.5v1.2
				C153.6,138.1,154.7,137.7,156.1,137.7z"/>
			<path class="st0" d="M157.3,135.1c0-0.8,0.7-1.5,1.6-1.5c1,0,1.6,0.6,1.6,1.4c0,0.9-0.7,1.5-1.6,1.5S157.3,135.9,157.3,135.1z
				 M157.7,137.8h2.7v9.1h-2.7V137.8z"/>
			<path class="st0" d="M170.3,144.9v2h-8.2v-1.6l4.7-5.5h-4.5v-2h7.9v1.6l-4.7,5.5H170.3z"/>
			<path class="st0" d="M180.1,141.7v5.2h-2.5v-1.1c-0.5,0.8-1.4,1.3-2.8,1.3c-2.1,0-3.4-1.2-3.4-2.8s1.1-2.7,3.9-2.7h2.1
				c0-1.1-0.7-1.8-2.1-1.8c-1,0-2,0.3-2.6,0.8l-1-1.9c1-0.7,2.5-1.1,3.9-1.1C178.5,137.7,180.1,139,180.1,141.7z M177.4,144.1v-0.9
				h-1.8c-1.2,0-1.6,0.5-1.6,1.1c0,0.7,0.6,1.1,1.5,1.1C176.4,145.3,177.1,144.9,177.4,144.1z"/>
			<path class="st0" d="M188.4,146.5c-0.5,0.4-1.3,0.6-2.2,0.6c-2.2,0-3.4-1.1-3.4-3.3V140h-1.4v-2h1.4v-2.2h2.7v2.2h2.3v2h-2.3v3.7
				c0,0.8,0.4,1.2,1.1,1.2c0.4,0,0.8-0.1,1.1-0.3L188.4,146.5z"/>
			<path class="st0" d="M189.6,135.1c0-0.8,0.7-1.5,1.6-1.5c1,0,1.6,0.6,1.6,1.4c0,0.9-0.7,1.5-1.6,1.5
				C190.2,136.5,189.6,135.9,189.6,135.1z M189.9,137.8h2.7v9.1h-2.7V137.8z"/>
			<path class="st0" d="M194.3,142.4c0-2.8,2.1-4.7,5-4.7s5,2,5,4.7s-2.1,4.7-5,4.7C196.4,147.1,194.3,145.1,194.3,142.4z
				 M201.7,142.4c0-1.6-1-2.5-2.3-2.5s-2.3,1-2.3,2.5c0,1.6,1,2.5,2.3,2.5S201.7,144,201.7,142.4z"/>
			<path class="st0" d="M215.5,141.7v5.2h-2.7v-4.8c0-1.5-0.7-2.2-1.9-2.2c-1.3,0-2.2,0.8-2.2,2.5v4.5H206v-9.1h2.5v1.1
				c0.7-0.8,1.8-1.2,3-1.2C213.9,137.7,215.5,138.9,215.5,141.7z"/>
			<path class="st0" d="M233.2,139.4c0,2.7-2,4.3-5.2,4.3h-2.4v3.3h-2.8v-11.9h5.2C231.2,135.1,233.2,136.7,233.2,139.4z
				 M230.4,139.4c0-1.3-0.8-2.1-2.5-2.1h-2.2v4.1h2.2C229.6,141.4,230.4,140.7,230.4,139.4z"/>
			<path class="st0" d="M243,141.7v5.2h-2.5v-1.1c-0.5,0.8-1.4,1.3-2.8,1.3c-2.1,0-3.4-1.2-3.4-2.8s1.1-2.7,3.9-2.7h2.1
				c0-1.1-0.7-1.8-2.1-1.8c-1,0-2,0.3-2.6,0.8l-1-1.9c1-0.7,2.5-1.1,3.9-1.1C241.4,137.7,243,139,243,141.7z M240.3,144.1v-0.9h-1.8
				c-1.2,0-1.6,0.5-1.6,1.1c0,0.7,0.6,1.1,1.5,1.1C239.3,145.3,240,144.9,240.3,144.1z"/>
			<path class="st0" d="M251.3,146.5c-0.5,0.4-1.3,0.6-2.2,0.6c-2.2,0-3.4-1.1-3.4-3.3V140h-1.4v-2h1.4v-2.2h2.7v2.2h2.3v2h-2.3v3.7
				c0,0.8,0.4,1.2,1.1,1.2c0.4,0,0.8-0.1,1.1-0.3L251.3,146.5z"/>
			<path class="st0" d="M262.1,141.7v5.2h-2.7v-4.8c0-1.5-0.7-2.2-1.9-2.2c-1.3,0-2.2,0.8-2.2,2.5v4.5h-2.7v-12.6h2.7v4.4
				c0.7-0.7,1.7-1.1,2.9-1.1C260.5,137.7,262.1,138.9,262.1,141.7z"/>
		</g>
	</g>
	<g>
		<g class="st4">
			<path class="st0" d="M109.1,465.9c0,2.7-2,4.3-5.2,4.3h-2.4v3.3h-2.8v-11.9h5.2C107.1,461.6,109.1,463.2,109.1,465.9z
				 M106.3,465.9c0-1.3-0.8-2.1-2.5-2.1h-2.2v4.1h2.2C105.5,468,106.3,467.2,106.3,465.9z"/>
			<path class="st0" d="M116.6,464.2v2.4c-0.2,0-0.4,0-0.6,0c-1.5,0-2.4,0.8-2.4,2.5v4.3h-2.7v-9.1h2.5v1.2
				C114.1,464.7,115.2,464.2,116.6,464.2z"/>
			<path class="st0" d="M127,469.7h-6.9c0.3,1.1,1.2,1.8,2.6,1.8c1,0,1.7-0.3,2.3-0.9l1.4,1.5c-0.9,1-2.1,1.5-3.8,1.5
				c-3.2,0-5.2-2-5.2-4.7s2.1-4.7,4.9-4.7c2.7,0,4.8,1.8,4.8,4.7C127,469.2,127,469.4,127,469.7z M120,468.1h4.5
				c-0.2-1.2-1.1-1.9-2.2-1.9C121.1,466.2,120.2,466.9,120,468.1z"/>
			<path class="st0" d="M138.8,468.9c0,2.9-2,4.7-4.6,4.7c-1.1,0-2.1-0.4-2.8-1.1v4.3h-2.7v-12.4h2.5v1.1c0.7-0.8,1.6-1.2,2.9-1.2
				C136.8,464.2,138.8,466,138.8,468.9z M136.1,468.9c0-1.6-1-2.5-2.3-2.5s-2.3,1-2.3,2.5c0,1.6,1,2.5,2.3,2.5
				S136.1,470.5,136.1,468.9z"/>
			<path class="st0" d="M148.5,468.3v5.2H146v-1.1c-0.5,0.8-1.4,1.3-2.8,1.3c-2.1,0-3.4-1.2-3.4-2.8c0-1.6,1.1-2.7,3.9-2.7h2.1
				c0-1.1-0.7-1.8-2.1-1.8c-1,0-2,0.3-2.6,0.8l-1-1.9c1-0.7,2.5-1.1,3.9-1.1C146.9,464.2,148.5,465.5,148.5,468.3z M145.8,470.6
				v-0.9H144c-1.2,0-1.6,0.5-1.6,1.1c0,0.7,0.6,1.1,1.5,1.1C144.7,471.8,145.5,471.4,145.8,470.6z"/>
			<path class="st0" d="M156.5,464.2v2.4c-0.2,0-0.4,0-0.6,0c-1.5,0-2.4,0.8-2.4,2.5v4.3h-2.7v-9.1h2.5v1.2
				C154,464.7,155.1,464.2,156.5,464.2z"/>
			<path class="st0" d="M166.2,468.3v5.2h-2.5v-1.1c-0.5,0.8-1.4,1.3-2.8,1.3c-2.1,0-3.4-1.2-3.4-2.8c0-1.6,1.1-2.7,3.9-2.7h2.1
				c0-1.1-0.7-1.8-2.1-1.8c-1,0-2,0.3-2.6,0.8l-1-1.9c1-0.7,2.5-1.1,3.9-1.1C164.5,464.2,166.2,465.5,166.2,468.3z M163.5,470.6
				v-0.9h-1.8c-1.2,0-1.6,0.5-1.6,1.1c0,0.7,0.6,1.1,1.5,1.1C162.4,471.8,163.2,471.4,163.5,470.6z"/>
			<path class="st0" d="M174.5,473c-0.5,0.4-1.3,0.6-2.2,0.6c-2.2,0-3.4-1.1-3.4-3.3v-3.8h-1.4v-2h1.4v-2.2h2.7v2.2h2.3v2h-2.3v3.7
				c0,0.8,0.4,1.2,1.1,1.2c0.4,0,0.8-0.1,1.1-0.3L174.5,473z"/>
			<path class="st0" d="M175.6,461.6c0-0.8,0.7-1.5,1.6-1.5c1,0,1.6,0.6,1.6,1.4c0,0.9-0.7,1.5-1.6,1.5
				C176.3,463.1,175.6,462.4,175.6,461.6z M176,464.3h2.7v9.1H176V464.3z"/>
			<path class="st0" d="M180.4,468.9c0-2.8,2.1-4.7,5-4.7s5,2,5,4.7s-2.1,4.7-5,4.7S180.4,471.7,180.4,468.9z M187.8,468.9
				c0-1.6-1-2.5-2.3-2.5s-2.3,1-2.3,2.5c0,1.6,1,2.5,2.3,2.5S187.8,470.5,187.8,468.9z"/>
			<path class="st0" d="M201.6,468.3v5.2h-2.7v-4.8c0-1.5-0.7-2.2-1.9-2.2c-1.3,0-2.2,0.8-2.2,2.5v4.5h-2.7v-9.1h2.5v1.1
				c0.7-0.8,1.8-1.2,3-1.2C199.9,464.2,201.6,465.5,201.6,468.3z"/>
		</g>
	</g>
	<g>
		<g class="st4">
			<path class="st0" d="M98,863h-5.5l-1.1,2.5h-2.8l5.3-11.9h2.7l5.3,11.9H99L98,863z M97.2,860.9l-1.9-4.6l-1.9,4.6H97.2z"/>
			<path class="st0" d="M112.1,856.4v9.1h-2.5v-1.1c-0.7,0.8-1.7,1.2-2.8,1.2c-2.3,0-3.9-1.3-3.9-4.1v-5.2h2.7v4.8
				c0,1.5,0.7,2.2,1.9,2.2c1.2,0,2.1-0.8,2.1-2.5v-4.5L112.1,856.4L112.1,856.4z"/>
			<path class="st0" d="M120.4,865.1c-0.5,0.4-1.3,0.6-2.2,0.6c-2.2,0-3.4-1.1-3.4-3.3v-3.8h-1.4v-2h1.4v-2.2h2.7v2.2h2.3v2h-2.3
				v3.7c0,0.8,0.4,1.2,1.1,1.2c0.4,0,0.8-0.1,1.1-0.3L120.4,865.1z"/>
			<path class="st0" d="M131.3,860.3v5.2h-2.7v-4.8c0-1.5-0.7-2.2-1.9-2.2c-1.3,0-2.2,0.8-2.2,2.5v4.5h-2.7v-12.6h2.7v4.4
				c0.7-0.7,1.7-1.1,2.9-1.1C129.6,856.3,131.3,857.5,131.3,860.3z"/>
			<path class="st0" d="M133.1,861c0-2.8,2.1-4.7,5-4.7s5,2,5,4.7s-2.1,4.7-5,4.7C135.2,865.7,133.1,863.7,133.1,861z M140.5,861
				c0-1.6-1-2.5-2.3-2.5s-2.3,1-2.3,2.5c0,1.6,1,2.5,2.3,2.5C139.4,863.5,140.5,862.5,140.5,861z"/>
			<path class="st0" d="M150.6,856.3v2.4c-0.2,0-0.4,0-0.6,0c-1.5,0-2.4,0.8-2.4,2.5v4.3h-2.7v-9.1h2.5v1.2
				C148.1,856.7,149.2,856.3,150.6,856.3z"/>
			<path class="st0" d="M151.8,853.6c0-0.8,0.7-1.5,1.6-1.5c1,0,1.6,0.6,1.6,1.4c0,0.9-0.7,1.5-1.6,1.5
				C152.5,855.1,151.8,854.5,151.8,853.6z M152.2,856.4h2.7v9.1h-2.7V856.4z"/>
			<path class="st0" d="M164.8,863.5v2h-8.2v-1.6l4.7-5.5h-4.5v-2h7.9v1.6l-4.7,5.5H164.8z"/>
			<path class="st0" d="M174.6,860.3v5.2h-2.5v-1.1c-0.5,0.8-1.4,1.3-2.8,1.3c-2.1,0-3.4-1.2-3.4-2.8s1.1-2.7,3.9-2.7h2.1
				c0-1.1-0.7-1.8-2.1-1.8c-1,0-2,0.3-2.6,0.8l-1-1.9c1-0.7,2.5-1.1,3.9-1.1C173,856.3,174.6,857.5,174.6,860.3z M172,862.6v-0.9
				h-1.8c-1.2,0-1.6,0.5-1.6,1.1c0,0.7,0.6,1.1,1.5,1.1C170.9,863.9,171.6,863.5,172,862.6z"/>
			<path class="st0" d="M182.9,865.1c-0.5,0.4-1.3,0.6-2.2,0.6c-2.2,0-3.4-1.1-3.4-3.3v-3.8h-1.4v-2h1.4v-2.2h2.7v2.2h2.3v2H180v3.7
				c0,0.8,0.4,1.2,1.1,1.2c0.4,0,0.8-0.1,1.1-0.3L182.9,865.1z"/>
			<path class="st0" d="M184.1,853.6c0-0.8,0.7-1.5,1.6-1.5c1,0,1.6,0.6,1.6,1.4c0,0.9-0.7,1.5-1.6,1.5
				C184.7,855.1,184.1,854.5,184.1,853.6z M184.4,856.4h2.7v9.1h-2.7V856.4z"/>
			<path class="st0" d="M188.8,861c0-2.8,2.1-4.7,5-4.7s5,2,5,4.7s-2.1,4.7-5,4.7S188.8,863.7,188.8,861z M196.2,861
				c0-1.6-1-2.5-2.3-2.5s-2.3,1-2.3,2.5c0,1.6,1,2.5,2.3,2.5S196.2,862.5,196.2,861z"/>
			<path class="st0" d="M210,860.3v5.2h-2.7v-4.8c0-1.5-0.7-2.2-1.9-2.2c-1.3,0-2.2,0.8-2.2,2.5v4.5h-2.7v-9.1h2.5v1.1
				c0.7-0.8,1.8-1.2,3-1.2C208.4,856.3,210,857.5,210,860.3z"/>
		</g>
	</g>
</g>
<g id="Layer_1_1_">
	<rect x="164.2" y="934.3" class="st5" width="135" height="63.5"/>
	<g class="st4">
		<path class="st2" d="M215.5,951.6c0.5,0.1,1,0.1,1.3,0.1c0.6,0,1-0.2,1.3-0.5c0.2-0.3,0.4-0.9,0.4-1.8v-12.6h1.5v12.6
			c0,1.2-0.2,2.1-0.7,2.7c-0.5,0.6-1.2,0.8-2.2,0.8c-0.4,0-0.9,0-1.5-0.1v-1.2H215.5z"/>
		<path class="st2" d="M231.5,946.4h-6.7l-1.4,3.3h-1.5l5.6-12.8h1.3l5.6,12.8h-1.5L231.5,946.4z M231,945.2l-2.8-6.6l-2.8,6.6H231z
			"/>
		<path class="st2" d="M245.3,944.2c0.4,0.5,0.6,1.2,0.6,2c0,1.1-0.4,2-1.1,2.6c-0.7,0.6-1.8,0.9-3.2,0.9h-5.3v-12.8h5.1
			c1.3,0,2.3,0.3,3.1,0.9c0.7,0.6,1.1,1.4,1.1,2.5c0,0.7-0.2,1.3-0.5,1.8c-0.4,0.5-0.8,0.9-1.5,1.1
			C244.4,943.3,244.9,943.7,245.3,944.2z M237.8,942.6h3.5c1,0,1.7-0.2,2.2-0.6c0.5-0.4,0.7-0.9,0.7-1.7c0-1.5-1-2.2-2.9-2.2h-3.5
			V942.6z M243.8,947.9c0.5-0.4,0.7-1,0.7-1.7c0-1.6-1-2.4-2.9-2.4h-3.7v4.7h3.7C242.6,948.5,243.3,948.3,243.8,947.9z"/>
	</g>
	<g class="st4">
		<path class="st2" d="M183,968h-6.7l-1.4,3.3h-1.5l5.6-12.8h1.3l5.6,12.8h-1.5L183,968z M182.5,966.8l-2.8-6.6l-2.8,6.6H182.5z"/>
		<path class="st2" d="M195.2,962.3v9.1h-1.4v-1.6c-0.3,0.6-0.7,1-1.2,1.3s-1.1,0.4-1.7,0.4c-1.1,0-1.9-0.3-2.4-0.9
			c-0.6-0.6-0.8-1.5-0.8-2.7v-5.6h1.5v5.6c0,0.8,0.2,1.4,0.5,1.8s0.8,0.6,1.5,0.6c0.8,0,1.5-0.3,1.9-0.8c0.5-0.5,0.7-1.2,0.7-2.1
			v-5.1H195.2z"/>
		<path class="st2" d="M200,963.4v5c0,0.7,0.1,1.1,0.4,1.4c0.3,0.3,0.7,0.4,1.2,0.4c0.3,0,0.7-0.1,1-0.2v1.2
			c-0.4,0.1-0.8,0.2-1.3,0.2c-0.9,0-1.5-0.2-2-0.7s-0.7-1.2-0.7-2.2v-5.1h-1.8v-1.2h1.8v-2.3l1.5-0.5v2.8h2.6v1.2L200,963.4
			L200,963.4z"/>
		<path class="st2" d="M212.1,965.6v5.7h-1.5v-5.6c0-0.8-0.2-1.5-0.5-1.8s-0.9-0.6-1.6-0.6c-0.8,0-1.5,0.3-2,0.8s-0.8,1.2-0.8,2.1
			v5.2h-1.5v-13.2h1.5v5.7c0.3-0.6,0.7-1,1.2-1.3s1.1-0.4,1.8-0.4C211,962,212.1,963.2,212.1,965.6z"/>
		<path class="st2" d="M216.4,970.9c-0.6-0.4-1.1-0.9-1.5-1.6c-0.4-0.7-0.5-1.5-0.5-2.5c0-0.9,0.2-1.8,0.5-2.5
			c0.4-0.7,0.9-1.3,1.5-1.6c0.6-0.4,1.4-0.6,2.2-0.6c0.9,0,1.6,0.2,2.2,0.6c0.6,0.4,1.1,0.9,1.5,1.6c0.4,0.7,0.5,1.5,0.5,2.5
			c0,0.9-0.2,1.8-0.5,2.5c-0.4,0.7-0.9,1.3-1.5,1.6c-0.6,0.4-1.4,0.6-2.2,0.6C217.8,971.4,217,971.3,216.4,970.9z M220.7,969.3
			c0.5-0.6,0.7-1.5,0.7-2.6s-0.2-2-0.7-2.6s-1.2-0.9-2.1-0.9c-0.9,0-1.6,0.3-2.1,0.9c-0.5,0.6-0.7,1.5-0.7,2.6s0.2,2,0.7,2.6
			s1.2,0.9,2.1,0.9S220.2,969.9,220.7,969.3z"/>
		<path class="st2" d="M230.2,962.2v1.3c-0.3-0.1-0.6-0.1-1-0.1c-0.9,0-1.5,0.3-2,0.8c-0.4,0.5-0.6,1.2-0.6,2v5.2h-1.5v-6.5
			c0-0.9,0-1.8-0.1-2.5h1.4l0.1,1.7c0.2-0.6,0.6-1.1,1.1-1.4s1.1-0.5,1.7-0.5C229.7,962,229.9,962.1,230.2,962.2z"/>
		<path class="st2" d="M233.3,958.4v1.7h-1.8v-1.7H233.3z M231.7,962.3h1.5v9.1h-1.5V962.3z"/>
		<path class="st2" d="M243.1,970.2v1.2h-7.7v-1l5.7-6.9h-5.5v-1.2h7.3v1.1l-5.7,6.8L243.1,970.2L243.1,970.2z"/>
		<path class="st2" d="M253.1,962.3v9.1h-1.4v-1.6c-0.3,0.6-0.7,1-1.2,1.3s-1.2,0.5-1.9,0.5c-0.8,0-1.5-0.2-2.1-0.6
			c-0.6-0.4-1.1-0.9-1.4-1.6s-0.5-1.5-0.5-2.5c0-0.9,0.2-1.8,0.5-2.5s0.8-1.3,1.4-1.7c0.6-0.4,1.3-0.6,2.1-0.6
			c0.7,0,1.3,0.2,1.9,0.5c0.5,0.3,0.9,0.8,1.2,1.3v-1.6L253.1,962.3L253.1,962.3z M250.9,969.3c0.5-0.6,0.7-1.5,0.7-2.6
			s-0.2-2-0.7-2.6s-1.2-0.9-2.1-0.9s-1.6,0.3-2.1,0.9s-0.7,1.5-0.7,2.6s0.2,2,0.7,2.6s1.2,0.9,2.1,0.9S250.4,969.9,250.9,969.3z"/>
		<path class="st2" d="M257.8,963.4v5c0,0.7,0.1,1.1,0.4,1.4c0.3,0.3,0.7,0.4,1.2,0.4c0.3,0,0.7-0.1,1-0.2v1.2
			c-0.4,0.1-0.8,0.2-1.3,0.2c-0.9,0-1.5-0.2-2-0.7s-0.7-1.2-0.7-2.2v-5.1h-1.8v-1.2h1.8v-2.3l1.5-0.5v2.8h2.6v1.2L257.8,963.4
			L257.8,963.4z"/>
		<path class="st2" d="M263.8,958.4v1.7H262v-1.7H263.8z M262.2,962.3h1.5v9.1h-1.5V962.3z"/>
		<path class="st2" d="M268,970.9c-0.6-0.4-1.1-0.9-1.5-1.6c-0.4-0.7-0.5-1.5-0.5-2.5c0-0.9,0.2-1.8,0.5-2.5
			c0.4-0.7,0.9-1.3,1.5-1.6c0.6-0.4,1.4-0.6,2.2-0.6c0.9,0,1.6,0.2,2.2,0.6c0.6,0.4,1.1,0.9,1.5,1.6c0.4,0.7,0.5,1.5,0.5,2.5
			c0,0.9-0.2,1.8-0.5,2.5c-0.4,0.7-0.9,1.3-1.5,1.6c-0.6,0.4-1.4,0.6-2.2,0.6C269.4,971.4,268.6,971.3,268,970.9z M272.3,969.3
			c0.5-0.6,0.7-1.5,0.7-2.6s-0.2-2-0.7-2.6s-1.2-0.9-2.1-0.9s-1.6,0.3-2.1,0.9c-0.5,0.6-0.7,1.5-0.7,2.6s0.2,2,0.7,2.6
			s1.2,0.9,2.1,0.9C271.1,970.2,271.8,969.9,272.3,969.3z"/>
		<path class="st2" d="M284.5,965.6v5.7H283v-5.6c0-0.8-0.2-1.5-0.5-1.8s-0.9-0.6-1.6-0.6c-0.8,0-1.5,0.3-2,0.8s-0.8,1.2-0.8,2.1
			v5.2h-1.5v-6.5c0-0.9,0-1.8-0.1-2.5h1.4l0.1,1.6c0.3-0.6,0.7-1,1.2-1.4c0.6-0.3,1.2-0.5,1.9-0.5
			C283.5,962,284.5,963.2,284.5,965.6z"/>
	</g>
	<g class="st4">
		<path class="st2" d="M199.6,980.1h5.1c1.3,0,2.3,0.3,3.1,1c0.7,0.6,1.1,1.5,1.1,2.6s-0.4,2-1.1,2.6c-0.7,0.6-1.8,1-3.1,1h-3.6v5.6
			h-1.5V980.1z M204.6,986.1c0.9,0,1.7-0.2,2.1-0.6c0.5-0.4,0.7-1,0.7-1.8s-0.2-1.4-0.7-1.8c-0.5-0.4-1.2-0.6-2.1-0.6h-3.5v4.7
			L204.6,986.1L204.6,986.1z"/>
		<path class="st2" d="M216,983.8v1.3c-0.3-0.1-0.6-0.1-1-0.1c-0.9,0-1.5,0.3-2,0.8c-0.4,0.5-0.6,1.2-0.6,2v5.2H211v-6.5
			c0-0.9,0-1.8-0.1-2.5h1.4l0.1,1.7c0.2-0.6,0.6-1.1,1.1-1.4c0.5-0.3,1.1-0.5,1.7-0.5C215.5,983.6,215.8,983.7,216,983.8z"/>
		<path class="st2" d="M218.8,992.5c-0.6-0.4-1.1-0.9-1.5-1.6c-0.4-0.7-0.5-1.5-0.5-2.5c0-0.9,0.2-1.8,0.5-2.5
			c0.4-0.7,0.9-1.3,1.5-1.6c0.6-0.4,1.4-0.6,2.2-0.6c0.9,0,1.6,0.2,2.2,0.6c0.6,0.4,1.1,0.9,1.5,1.6c0.4,0.7,0.5,1.5,0.5,2.5
			c0,0.9-0.2,1.8-0.5,2.5c-0.4,0.7-0.9,1.3-1.5,1.6c-0.6,0.4-1.4,0.6-2.2,0.6C220.2,993,219.5,992.9,218.8,992.5z M223.1,990.9
			c0.5-0.6,0.7-1.5,0.7-2.6s-0.2-2-0.7-2.6s-1.2-0.9-2.1-0.9c-0.9,0-1.6,0.3-2.1,0.9c-0.5,0.6-0.7,1.5-0.7,2.6s0.2,2,0.7,2.6
			s1.2,0.9,2.1,0.9C222,991.8,222.6,991.5,223.1,990.9z"/>
		<path class="st2" d="M229.1,992.5c-0.7-0.4-1.2-0.9-1.5-1.6c-0.4-0.7-0.5-1.5-0.5-2.5c0-0.9,0.2-1.8,0.5-2.5s0.9-1.3,1.5-1.7
			c0.7-0.4,1.4-0.6,2.3-0.6c0.6,0,1.2,0.1,1.8,0.3s1,0.5,1.4,0.9l-0.5,1.1c-0.5-0.4-0.9-0.6-1.3-0.8s-0.9-0.3-1.3-0.3
			c-0.9,0-1.7,0.3-2.2,0.9s-0.8,1.5-0.8,2.6s0.3,1.9,0.8,2.5s1.3,0.9,2.2,0.9c0.4,0,0.9-0.1,1.3-0.3s0.9-0.4,1.3-0.8l0.5,1.1
			c-0.4,0.4-0.9,0.6-1.4,0.9c-0.6,0.2-1.2,0.3-1.8,0.3C230.5,993,229.8,992.9,229.1,992.5z"/>
		<path class="st2" d="M244.1,988.3h-6.6c0,1.2,0.3,2,0.8,2.6s1.3,0.9,2.3,0.9c1.1,0,2-0.4,2.9-1.1l0.5,1.1
			c-0.4,0.4-0.9,0.7-1.5,0.9s-1.3,0.3-1.9,0.3c-1.4,0-2.5-0.4-3.3-1.3c-0.8-0.8-1.2-2-1.2-3.4c0-0.9,0.2-1.7,0.5-2.5
			c0.4-0.7,0.9-1.3,1.5-1.7s1.4-0.6,2.2-0.6c1.2,0,2.1,0.4,2.8,1.2s1,1.9,1,3.2V988.3z M238.4,985.5c-0.5,0.5-0.8,1.1-0.9,1.9h5.3
			c-0.1-0.9-0.3-1.5-0.7-1.9s-1-0.7-1.8-0.7S238.9,985,238.4,985.5z"/>
		<path class="st2" d="M245.8,991.9l0.5-1.1c0.5,0.4,1,0.7,1.5,0.8c0.5,0.2,1.1,0.3,1.7,0.3c0.7,0,1.2-0.1,1.6-0.4
			c0.4-0.2,0.5-0.6,0.5-1s-0.1-0.6-0.4-0.9c-0.2-0.2-0.6-0.4-1.2-0.5l-1.5-0.4c-0.8-0.2-1.3-0.5-1.8-0.9s-0.6-0.9-0.6-1.5
			c0-0.8,0.3-1.4,1-1.9c0.6-0.5,1.5-0.7,2.5-0.7c0.6,0,1.2,0.1,1.8,0.3s1,0.5,1.4,0.9l-0.5,1.1c-0.9-0.7-1.8-1.1-2.7-1.1
			c-0.6,0-1.1,0.1-1.5,0.4c-0.4,0.2-0.5,0.6-0.5,1s0.1,0.7,0.3,0.9s0.6,0.4,1.1,0.5l1.5,0.4c0.8,0.2,1.5,0.5,1.9,0.9
			s0.6,0.9,0.6,1.6c0,0.8-0.3,1.4-1,1.9s-1.5,0.7-2.6,0.7C247.8,993,246.6,992.7,245.8,991.9z"/>
		<path class="st2" d="M254.7,991.9l0.5-1.1c0.5,0.4,1,0.7,1.5,0.8c0.5,0.2,1.1,0.3,1.7,0.3c0.7,0,1.2-0.1,1.6-0.4
			c0.4-0.2,0.5-0.6,0.5-1s-0.1-0.6-0.4-0.9c-0.2-0.2-0.6-0.4-1.2-0.5l-1.5-0.4c-0.8-0.2-1.3-0.5-1.8-0.9s-0.6-0.9-0.6-1.5
			c0-0.8,0.3-1.4,1-1.9c0.6-0.5,1.5-0.7,2.5-0.7c0.6,0,1.2,0.1,1.8,0.3c0.6,0.2,1,0.5,1.4,0.9l-0.5,1.1c-0.9-0.7-1.8-1.1-2.7-1.1
			c-0.6,0-1.1,0.1-1.5,0.4c-0.4,0.2-0.5,0.6-0.5,1s0.1,0.7,0.3,0.9c0.2,0.2,0.6,0.4,1.1,0.5l1.5,0.4c0.8,0.2,1.5,0.5,1.9,0.9
			s0.6,0.9,0.6,1.6c0,0.8-0.3,1.4-1,1.9s-1.5,0.7-2.6,0.7C256.8,993,255.6,992.7,254.7,991.9z"/>
	</g>
	<rect x="164.2" y="729.2" class="st5" width="135" height="63.5"/>
	<g class="st4">
		<path class="st3" d="M209.3,741.3h-6.7l-1.4,3.3h-1.5l5.6-12.8h1.3l5.6,12.8h-1.5L209.3,741.3z M208.8,740l-2.8-6.6l-2.8,6.6
			H208.8z"/>
		<path class="st3" d="M222,735.5v9c0,1.3-0.3,2.4-1,3.1c-0.7,0.7-1.7,1-3.1,1c-1.4,0-2.6-0.3-3.6-0.9l0.3-1.2
			c0.6,0.3,1.1,0.6,1.6,0.7c0.5,0.1,1.1,0.2,1.7,0.2c0.9,0,1.5-0.2,2-0.7c0.4-0.5,0.7-1.1,0.7-2.1v-2.1c-0.3,0.6-0.7,1-1.2,1.3
			s-1.2,0.5-1.9,0.5c-0.8,0-1.5-0.2-2.1-0.6s-1.1-0.9-1.4-1.6c-0.3-0.7-0.5-1.5-0.5-2.4s0.2-1.7,0.5-2.4s0.8-1.2,1.4-1.6
			s1.3-0.6,2.1-0.6c0.7,0,1.3,0.2,1.9,0.5c0.5,0.3,0.9,0.8,1.2,1.3v-1.6h1.4L222,735.5L222,735.5z M219.8,742.2
			c0.5-0.6,0.7-1.4,0.7-2.4s-0.2-1.8-0.7-2.4s-1.2-0.9-2.1-0.9c-0.9,0-1.6,0.3-2.1,0.9s-0.8,1.4-0.8,2.4s0.3,1.8,0.8,2.4
			s1.2,0.9,2.1,0.9C218.6,743.1,219.3,742.8,219.8,742.2z"/>
		<path class="st3" d="M232.4,740h-6.6c0,1.2,0.3,2,0.8,2.6s1.3,0.9,2.3,0.9c1.1,0,2-0.4,2.9-1.1l0.5,1.1c-0.4,0.4-0.9,0.7-1.5,0.9
			s-1.3,0.3-1.9,0.3c-1.4,0-2.5-0.4-3.3-1.3s-1.2-2-1.2-3.4c0-0.9,0.2-1.7,0.5-2.5s0.9-1.3,1.5-1.7s1.4-0.6,2.2-0.6
			c1.2,0,2.1,0.4,2.8,1.2s1,1.9,1,3.2V740z M226.7,737.1c-0.5,0.5-0.8,1.1-0.9,1.9h5.3c-0.1-0.9-0.3-1.5-0.7-1.9s-1-0.7-1.8-0.7
			S227.2,736.7,226.7,737.1z"/>
		<path class="st3" d="M242.4,738.9v5.7h-1.5V739c0-0.8-0.2-1.5-0.5-1.8s-0.9-0.6-1.6-0.6c-0.8,0-1.5,0.3-2,0.8s-0.8,1.2-0.8,2.1
			v5.2h-1.5V738c0-0.9,0-1.8-0.1-2.5h1.4l0.1,1.6c0.3-0.6,0.7-1,1.2-1.4c0.6-0.3,1.2-0.5,1.9-0.5
			C241.3,735.3,242.4,736.5,242.4,738.9z"/>
		<path class="st3" d="M246.7,744.1c-0.7-0.4-1.2-0.9-1.5-1.6c-0.4-0.7-0.5-1.5-0.5-2.5c0-0.9,0.2-1.8,0.5-2.5
			c0.4-0.7,0.9-1.3,1.5-1.7c0.7-0.4,1.4-0.6,2.3-0.6c0.6,0,1.2,0.1,1.8,0.3s1,0.5,1.4,0.9l-0.5,1.1c-0.5-0.4-0.9-0.6-1.3-0.8
			s-0.9-0.3-1.3-0.3c-0.9,0-1.7,0.3-2.2,0.9c-0.5,0.6-0.8,1.5-0.8,2.6s0.3,1.9,0.8,2.5s1.3,0.9,2.2,0.9c0.4,0,0.9-0.1,1.3-0.3
			s0.9-0.4,1.3-0.8l0.5,1.1c-0.4,0.4-0.9,0.6-1.4,0.9c-0.6,0.2-1.2,0.3-1.8,0.3C248.1,744.7,247.3,744.5,246.7,744.1z"/>
		<path class="st3" d="M262,735.5l-4.2,9.9c-0.4,1-1,1.8-1.7,2.3c-0.7,0.5-1.5,0.8-2.5,1l-0.3-1.1c0.9-0.2,1.5-0.4,1.9-0.8
			c0.4-0.3,0.8-0.8,1.1-1.5l0.4-0.8l-3.8-9h1.5l3.1,7.5l3.1-7.5L262,735.5L262,735.5z"/>
	</g>
	<g class="st4">
		<path class="st3" d="M182.9,762.9h-6.7l-1.4,3.3h-1.5l5.6-12.8h1.3l5.6,12.8h-1.5L182.9,762.9z M182.4,761.6l-2.8-6.6l-2.8,6.6
			H182.4z"/>
		<path class="st3" d="M195.1,757.1v9.1h-1.4v-1.6c-0.3,0.6-0.7,1-1.2,1.3s-1.1,0.4-1.7,0.4c-1.1,0-1.9-0.3-2.4-0.9
			c-0.6-0.6-0.8-1.5-0.8-2.7v-5.6h1.5v5.6c0,0.8,0.2,1.4,0.5,1.8s0.8,0.6,1.5,0.6c0.8,0,1.5-0.3,1.9-0.8c0.5-0.5,0.7-1.2,0.7-2.1
			v-5.1H195.1z"/>
		<path class="st3" d="M199.9,758.3v5c0,0.7,0.1,1.1,0.4,1.4c0.3,0.3,0.7,0.4,1.2,0.4c0.3,0,0.7-0.1,1-0.2v1.2
			c-0.4,0.1-0.8,0.2-1.3,0.2c-0.9,0-1.5-0.2-2-0.7s-0.7-1.2-0.7-2.2v-5.1h-1.8v-1.2h1.8v-2.3l1.5-0.5v2.8h2.6v1.2L199.9,758.3
			L199.9,758.3z"/>
		<path class="st3" d="M212,760.5v5.7h-1.5v-5.6c0-0.8-0.2-1.5-0.5-1.8s-0.9-0.6-1.6-0.6c-0.8,0-1.5,0.3-2,0.8s-0.8,1.2-0.8,2.1v5.2
			h-1.5v-13.2h1.5v5.7c0.3-0.6,0.7-1,1.2-1.3s1.1-0.4,1.8-0.4C210.9,756.9,212,758.1,212,760.5z"/>
		<path class="st3" d="M216.3,765.7c-0.6-0.4-1.1-0.9-1.5-1.6c-0.4-0.7-0.5-1.5-0.5-2.5c0-0.9,0.2-1.8,0.5-2.5
			c0.4-0.7,0.9-1.3,1.5-1.6c0.6-0.4,1.4-0.6,2.2-0.6c0.9,0,1.6,0.2,2.2,0.6c0.6,0.4,1.1,0.9,1.5,1.6c0.4,0.7,0.5,1.5,0.5,2.5
			c0,0.9-0.2,1.8-0.5,2.5c-0.4,0.7-0.9,1.3-1.5,1.6c-0.6,0.4-1.4,0.6-2.2,0.6S216.9,766.1,216.3,765.7z M220.6,764.2
			c0.5-0.6,0.7-1.5,0.7-2.6s-0.2-2-0.7-2.6s-1.2-0.9-2.1-0.9c-0.9,0-1.6,0.3-2.1,0.9c-0.5,0.6-0.7,1.5-0.7,2.6s0.2,2,0.7,2.6
			s1.2,0.9,2.1,0.9C219.4,765.1,220.1,764.8,220.6,764.2z"/>
		<path class="st3" d="M230.1,757v1.3c-0.3-0.1-0.6-0.1-1-0.1c-0.9,0-1.5,0.3-2,0.8c-0.4,0.5-0.6,1.2-0.6,2v5.2H225v-6.5
			c0-0.9,0-1.8-0.1-2.5h1.4l0.1,1.7c0.2-0.6,0.6-1.1,1.1-1.4c0.5-0.3,1.1-0.5,1.7-0.5C229.6,756.9,229.9,756.9,230.1,757z"/>
		<path class="st3" d="M233.2,753.3v1.7h-1.8v-1.7H233.2z M231.6,757.1h1.5v9.1h-1.5V757.1z"/>
		<path class="st3" d="M243,765v1.2h-7.6v-1l5.7-6.9h-5.5v-1.2h7.3v1.1l-5.7,6.8L243,765L243,765z"/>
		<path class="st3" d="M253,757.1v9.1h-1.4v-1.6c-0.3,0.6-0.7,1-1.2,1.3s-1.2,0.5-1.9,0.5c-0.8,0-1.5-0.2-2.1-0.6
			c-0.6-0.4-1.1-0.9-1.4-1.6s-0.5-1.5-0.5-2.5c0-0.9,0.2-1.8,0.5-2.5s0.8-1.3,1.4-1.7c0.6-0.4,1.3-0.6,2.1-0.6
			c0.7,0,1.3,0.2,1.9,0.5c0.5,0.3,0.9,0.8,1.2,1.3v-1.6L253,757.1L253,757.1z M250.8,764.2c0.5-0.6,0.7-1.5,0.7-2.6s-0.2-2-0.7-2.6
			s-1.2-0.9-2.1-0.9c-0.9,0-1.6,0.3-2.1,0.9s-0.7,1.5-0.7,2.6s0.2,2,0.7,2.6s1.2,0.9,2.1,0.9C249.7,765.1,250.3,764.8,250.8,764.2z"
			/>
		<path class="st3" d="M257.7,758.3v5c0,0.7,0.1,1.1,0.4,1.4c0.3,0.3,0.7,0.4,1.2,0.4c0.3,0,0.7-0.1,1-0.2v1.2
			c-0.4,0.1-0.8,0.2-1.3,0.2c-0.9,0-1.5-0.2-2-0.7s-0.7-1.2-0.7-2.2v-5.1h-1.8v-1.2h1.8v-2.3l1.5-0.5v2.8h2.6v1.2L257.7,758.3
			L257.7,758.3z"/>
		<path class="st3" d="M263.7,753.3v1.7H262v-1.7H263.7z M262.1,757.1h1.5v9.1h-1.5V757.1z"/>
		<path class="st3" d="M267.9,765.7c-0.6-0.4-1.1-0.9-1.5-1.6c-0.4-0.7-0.5-1.5-0.5-2.5c0-0.9,0.2-1.8,0.5-2.5
			c0.4-0.7,0.9-1.3,1.5-1.6c0.6-0.4,1.4-0.6,2.2-0.6c0.9,0,1.6,0.2,2.2,0.6c0.6,0.4,1.1,0.9,1.5,1.6c0.4,0.7,0.5,1.5,0.5,2.5
			c0,0.9-0.2,1.8-0.5,2.5c-0.4,0.7-0.9,1.3-1.5,1.6c-0.6,0.4-1.4,0.6-2.2,0.6S268.5,766.1,267.9,765.7z M272.2,764.2
			c0.5-0.6,0.7-1.5,0.7-2.6s-0.2-2-0.7-2.6s-1.2-0.9-2.1-0.9s-1.6,0.3-2.1,0.9c-0.5,0.6-0.7,1.5-0.7,2.6s0.2,2,0.7,2.6
			s1.2,0.9,2.1,0.9C271,765.1,271.7,764.8,272.2,764.2z"/>
		<path class="st3" d="M284.5,760.5v5.7H283v-5.6c0-0.8-0.2-1.5-0.5-1.8s-0.9-0.6-1.6-0.6c-0.8,0-1.5,0.3-2,0.8s-0.8,1.2-0.8,2.1
			v5.2h-1.5v-6.5c0-0.9,0-1.8-0.1-2.5h1.4l0.1,1.6c0.3-0.6,0.7-1,1.2-1.4c0.6-0.3,1.2-0.5,1.9-0.5
			C283.4,756.9,284.5,758.1,284.5,760.5z"/>
	</g>
	<g class="st4">
		<path class="st3" d="M199.6,774.9h5.1c1.3,0,2.3,0.3,3.1,1c0.7,0.6,1.1,1.5,1.1,2.6s-0.4,2-1.1,2.6c-0.7,0.6-1.8,1-3.1,1h-3.6v5.6
			h-1.5V774.9z M204.6,780.9c0.9,0,1.7-0.2,2.1-0.6c0.5-0.4,0.7-1,0.7-1.8s-0.2-1.4-0.7-1.8c-0.5-0.4-1.2-0.6-2.1-0.6h-3.5v4.7
			L204.6,780.9L204.6,780.9z"/>
		<path class="st3" d="M216,778.6v1.3c-0.3-0.1-0.6-0.1-1-0.1c-0.9,0-1.5,0.3-2,0.8c-0.4,0.5-0.6,1.2-0.6,2v5.2H211v-6.5
			c0-0.9,0-1.8-0.1-2.5h1.4l0.1,1.7c0.2-0.6,0.6-1.1,1.1-1.4c0.5-0.3,1.1-0.5,1.7-0.5C215.5,778.5,215.8,778.5,216,778.6z"/>
		<path class="st3" d="M218.8,787.3c-0.6-0.4-1.1-0.9-1.5-1.6c-0.4-0.7-0.5-1.5-0.5-2.5c0-0.9,0.2-1.8,0.5-2.5
			c0.4-0.7,0.9-1.3,1.5-1.6c0.6-0.4,1.4-0.6,2.2-0.6c0.9,0,1.6,0.2,2.2,0.6c0.6,0.4,1.1,0.9,1.5,1.6c0.4,0.7,0.5,1.5,0.5,2.5
			c0,0.9-0.2,1.8-0.5,2.5c-0.4,0.7-0.9,1.3-1.5,1.6c-0.6,0.4-1.4,0.6-2.2,0.6C220.2,787.9,219.5,787.7,218.8,787.3z M223.1,785.8
			c0.5-0.6,0.7-1.5,0.7-2.6s-0.2-2-0.7-2.6s-1.2-0.9-2.1-0.9c-0.9,0-1.6,0.3-2.1,0.9c-0.5,0.6-0.7,1.5-0.7,2.6s0.2,2,0.7,2.6
			s1.2,0.9,2.1,0.9C222,786.7,222.7,786.4,223.1,785.8z"/>
		<path class="st3" d="M229.1,787.3c-0.7-0.4-1.2-0.9-1.5-1.6c-0.4-0.7-0.5-1.5-0.5-2.5c0-0.9,0.2-1.8,0.5-2.5s0.9-1.3,1.5-1.7
			c0.7-0.4,1.4-0.6,2.3-0.6c0.6,0,1.2,0.1,1.8,0.3s1,0.5,1.4,0.9l-0.5,1.1c-0.5-0.4-0.9-0.6-1.3-0.8s-0.9-0.3-1.3-0.3
			c-0.9,0-1.7,0.3-2.2,0.9s-0.8,1.5-0.8,2.6s0.3,1.9,0.8,2.5s1.3,0.9,2.2,0.9c0.4,0,0.9-0.1,1.3-0.3s0.9-0.4,1.3-0.8l0.5,1.1
			c-0.4,0.4-0.9,0.6-1.4,0.9c-0.6,0.2-1.2,0.3-1.8,0.3C230.5,787.9,229.8,787.7,229.1,787.3z"/>
		<path class="st3" d="M244.1,783.2h-6.6c0,1.2,0.3,2,0.8,2.6s1.3,0.9,2.3,0.9c1.1,0,2-0.4,2.9-1.1l0.5,1.1
			c-0.4,0.4-0.9,0.7-1.5,0.9s-1.3,0.3-1.9,0.3c-1.4,0-2.5-0.4-3.3-1.3c-0.8-0.8-1.2-2-1.2-3.4c0-0.9,0.2-1.7,0.5-2.5
			c0.4-0.7,0.9-1.3,1.5-1.7s1.4-0.6,2.2-0.6c1.2,0,2.1,0.4,2.8,1.2s1,1.9,1,3.2V783.2z M238.4,780.3c-0.5,0.5-0.8,1.1-0.9,1.9h5.3
			c-0.1-0.9-0.3-1.5-0.7-1.9s-1-0.7-1.8-0.7S238.9,779.9,238.4,780.3z"/>
		<path class="st3" d="M245.8,786.7l0.5-1.1c0.5,0.4,1,0.7,1.5,0.8c0.5,0.2,1.1,0.3,1.7,0.3c0.7,0,1.2-0.1,1.6-0.4
			c0.4-0.2,0.5-0.6,0.5-1s-0.1-0.6-0.4-0.9c-0.2-0.2-0.6-0.4-1.2-0.5l-1.5-0.4c-0.8-0.2-1.3-0.5-1.8-0.9s-0.6-0.9-0.6-1.5
			c0-0.8,0.3-1.4,1-1.9c0.6-0.5,1.5-0.7,2.5-0.7c0.6,0,1.2,0.1,1.8,0.3s1,0.5,1.4,0.9l-0.5,1.1c-0.9-0.7-1.8-1.1-2.7-1.1
			c-0.6,0-1.1,0.1-1.5,0.4c-0.4,0.2-0.5,0.6-0.5,1s0.1,0.7,0.3,0.9s0.6,0.4,1.1,0.5l1.5,0.4c0.8,0.2,1.5,0.5,1.9,0.9
			s0.6,0.9,0.6,1.6c0,0.8-0.3,1.4-1,1.9s-1.5,0.7-2.6,0.7C247.9,787.9,246.7,787.5,245.8,786.7z"/>
		<path class="st3" d="M254.7,786.7l0.5-1.1c0.5,0.4,1,0.7,1.5,0.8c0.5,0.2,1.1,0.3,1.7,0.3c0.7,0,1.2-0.1,1.6-0.4
			c0.4-0.2,0.5-0.6,0.5-1s-0.1-0.6-0.4-0.9c-0.2-0.2-0.6-0.4-1.2-0.5l-1.5-0.4c-0.8-0.2-1.3-0.5-1.8-0.9s-0.6-0.9-0.6-1.5
			c0-0.8,0.3-1.4,1-1.9c0.6-0.5,1.5-0.7,2.5-0.7c0.6,0,1.2,0.1,1.8,0.3c0.6,0.2,1,0.5,1.4,0.9l-0.5,1.1c-0.9-0.7-1.8-1.1-2.7-1.1
			c-0.6,0-1.1,0.1-1.5,0.4c-0.4,0.2-0.5,0.6-0.5,1s0.1,0.7,0.3,0.9c0.2,0.2,0.6,0.4,1.1,0.5l1.5,0.4c0.8,0.2,1.5,0.5,1.9,0.9
			s0.6,0.9,0.6,1.6c0,0.8-0.3,1.4-1,1.9s-1.5,0.7-2.6,0.7C256.8,787.9,255.6,787.5,254.7,786.7z"/>
	</g>
	<rect x="3.9" y="946.8" class="st5" width="135" height="41.9"/>
	<g class="st4">
		<path class="st2" d="M20.4,949.4h7.9v1.2h-6.5v4.4H28v1.2h-6.1v5.9h-1.5V949.4z"/>
		<path class="st2" d="M37.8,953.1v9.1h-1.4v-1.6c-0.3,0.6-0.7,1-1.2,1.3s-1.1,0.4-1.7,0.4c-1.1,0-1.9-0.3-2.4-0.9
			c-0.6-0.6-0.8-1.5-0.8-2.7v-5.6h1.5v5.6c0,0.8,0.2,1.4,0.5,1.8c0.3,0.4,0.8,0.6,1.5,0.6c0.8,0,1.5-0.3,1.9-0.8
			c0.5-0.5,0.7-1.2,0.7-2.1v-5.1H37.8z"/>
		<path class="st2" d="M40.6,948.9H42v13.2h-1.5L40.6,948.9L40.6,948.9z"/>
		<path class="st2" d="M44.9,948.9h1.5v13.2h-1.5V948.9z"/>
		<path class="st2" d="M53.3,960.7l0.6-1.1c0.6,0.5,1.3,0.9,1.9,1.2c0.7,0.2,1.4,0.3,2.3,0.3c1,0,1.8-0.2,2.4-0.6
			c0.6-0.4,0.8-1,0.8-1.7c0-0.4-0.1-0.8-0.4-1.1c-0.3-0.3-0.6-0.5-1.1-0.6c-0.4-0.2-1-0.3-1.8-0.5c-1-0.2-1.8-0.5-2.4-0.7
			c-0.6-0.3-1.2-0.6-1.5-1.1c-0.4-0.5-0.6-1.1-0.6-1.9c0-0.7,0.2-1.4,0.6-1.9c0.4-0.6,0.9-1,1.6-1.3c0.7-0.3,1.5-0.5,2.5-0.5
			c0.9,0,1.7,0.1,2.5,0.4c0.8,0.3,1.4,0.7,1.9,1.2L62,952c-0.6-0.5-1.2-0.9-1.8-1.1c-0.6-0.2-1.3-0.4-2-0.4c-1,0-1.8,0.2-2.3,0.6
			s-0.8,1-0.8,1.8c0,0.6,0.2,1.1,0.7,1.5c0.5,0.3,1.2,0.6,2.3,0.8c1.1,0.3,2,0.5,2.6,0.7s1.2,0.6,1.6,1c0.4,0.4,0.6,1,0.6,1.8
			c0,0.7-0.2,1.4-0.6,1.9c-0.4,0.5-0.9,1-1.6,1.3c-0.7,0.3-1.6,0.4-2.5,0.4C56.1,962.3,54.5,961.8,53.3,960.7z"/>
		<path class="st2" d="M72.6,957.6H66c0,1.2,0.3,2,0.8,2.6s1.3,0.9,2.3,0.9c1.1,0,2-0.4,2.9-1.1l0.5,1.1c-0.4,0.4-0.9,0.7-1.5,0.9
			s-1.3,0.3-1.9,0.3c-1.4,0-2.5-0.4-3.3-1.3c-0.8-0.8-1.2-2-1.2-3.4c0-0.9,0.2-1.7,0.5-2.5c0.4-0.7,0.9-1.3,1.5-1.7s1.4-0.6,2.2-0.6
			c1.2,0,2.1,0.4,2.8,1.2s1,1.9,1,3.2C72.6,957.2,72.6,957.6,72.6,957.6z M67,954.7c-0.5,0.5-0.8,1.1-0.9,1.9h5.3
			c-0.1-0.9-0.3-1.5-0.7-1.9c-0.4-0.4-1-0.7-1.8-0.7S67.4,954.3,67,954.7z"/>
		<path class="st2" d="M76.4,961.7c-0.7-0.4-1.2-0.9-1.5-1.6s-0.5-1.5-0.5-2.5c0-0.9,0.2-1.8,0.5-2.5c0.4-0.7,0.9-1.3,1.5-1.7
			c0.7-0.4,1.4-0.6,2.3-0.6c0.6,0,1.2,0.1,1.8,0.3s1,0.5,1.4,0.9l-0.5,1.1c-0.5-0.4-0.9-0.6-1.3-0.8s-0.9-0.3-1.3-0.3
			c-0.9,0-1.7,0.3-2.2,0.9c-0.5,0.6-0.8,1.5-0.8,2.6s0.3,1.9,0.8,2.5s1.3,0.9,2.2,0.9c0.4,0,0.9-0.1,1.3-0.3s0.9-0.4,1.3-0.8
			l0.5,1.1c-0.4,0.4-0.9,0.6-1.4,0.9c-0.6,0.2-1.2,0.3-1.8,0.3C77.8,962.3,77,962.1,76.4,961.7z"/>
		<path class="st2" d="M91.3,953.1v9.1h-1.4v-1.6c-0.3,0.6-0.7,1-1.2,1.3s-1.1,0.4-1.7,0.4c-1.1,0-1.9-0.3-2.4-0.9
			c-0.6-0.6-0.8-1.5-0.8-2.7v-5.6h1.5v5.6c0,0.8,0.2,1.4,0.5,1.8s0.8,0.6,1.5,0.6c0.8,0,1.5-0.3,1.9-0.8c0.5-0.5,0.7-1.2,0.7-2.1
			v-5.1H91.3z"/>
		<path class="st2" d="M99.2,953v1.3c-0.3-0.1-0.6-0.1-1-0.1c-0.9,0-1.5,0.3-2,0.8c-0.4,0.5-0.6,1.2-0.6,2v5.2h-1.5v-6.5
			c0-0.9,0-1.8-0.1-2.5h1.4l0.1,1.7c0.2-0.6,0.6-1.1,1.1-1.4c0.5-0.3,1.1-0.5,1.7-0.5C98.7,952.9,98.9,952.9,99.2,953z"/>
		<path class="st2" d="M102.3,949.3v1.7h-1.8v-1.7H102.3z M100.7,953.1h1.5v9.1h-1.5V953.1z"/>
		<path class="st2" d="M106.9,954.3v5c0,0.7,0.1,1.1,0.4,1.4c0.3,0.3,0.7,0.4,1.2,0.4c0.3,0,0.7-0.1,1-0.2v1.2
			c-0.4,0.1-0.8,0.2-1.3,0.2c-0.9,0-1.5-0.2-2-0.7s-0.7-1.2-0.7-2.2v-5.1h-1.8v-1.2h1.8v-2.3l1.5-0.5v2.8h2.6v1.2L106.9,954.3
			L106.9,954.3z"/>
		<path class="st2" d="M119.3,953.1l-4.2,9.9c-0.4,1-1,1.8-1.7,2.3s-1.5,0.8-2.5,1l-0.3-1.1c0.9-0.2,1.5-0.4,1.9-0.8
			c0.4-0.3,0.8-0.8,1.1-1.5l0.4-0.8l-3.8-9h1.5l3.1,7.5l3.1-7.5L119.3,953.1L119.3,953.1z"/>
	</g>
	<g class="st4">
		<path class="st2" d="M29.1,980.5h-6.7l-1.4,3.3h-1.5l5.6-12.8h1.3l5.6,12.8h-1.5L29.1,980.5z M28.6,979.3l-2.8-6.6l-2.8,6.6H28.6z
			"/>
		<path class="st2" d="M33.1,982.7l0.5-1.1c0.5,0.4,1,0.7,1.5,0.8c0.5,0.2,1.1,0.3,1.7,0.3c0.7,0,1.2-0.1,1.6-0.4
			c0.4-0.2,0.5-0.6,0.5-1s-0.1-0.6-0.4-0.9c-0.2-0.2-0.6-0.4-1.2-0.5l-1.5-0.4c-0.8-0.2-1.3-0.5-1.8-0.9s-0.6-0.9-0.6-1.5
			c0-0.8,0.3-1.4,1-1.9c0.6-0.5,1.5-0.7,2.5-0.7c0.6,0,1.2,0.1,1.8,0.3s1,0.5,1.4,0.9l-0.5,1.1c-0.9-0.7-1.8-1.1-2.7-1.1
			c-0.6,0-1.1,0.1-1.5,0.4s-0.5,0.6-0.5,1s0.1,0.7,0.3,0.9s0.6,0.4,1.1,0.5l1.5,0.4c0.8,0.2,1.5,0.5,1.9,0.9s0.6,0.9,0.6,1.6
			c0,0.8-0.3,1.4-1,1.9c-0.6,0.5-1.5,0.7-2.6,0.7C35.2,983.9,34,983.5,33.1,982.7z"/>
		<path class="st2" d="M42,982.7l0.5-1.1c0.5,0.4,1,0.7,1.5,0.8c0.5,0.2,1.1,0.3,1.7,0.3c0.7,0,1.2-0.1,1.6-0.4
			c0.4-0.2,0.5-0.6,0.5-1s-0.1-0.6-0.4-0.9c-0.2-0.2-0.6-0.4-1.2-0.5l-1.5-0.4c-0.8-0.2-1.3-0.5-1.8-0.9s-0.6-0.9-0.6-1.5
			c0-0.8,0.3-1.4,1-1.9c0.6-0.5,1.5-0.7,2.5-0.7c0.6,0,1.2,0.1,1.8,0.3s1,0.5,1.4,0.9l-0.5,1.1c-0.9-0.7-1.8-1.1-2.7-1.1
			c-0.6,0-1.1,0.1-1.5,0.4s-0.5,0.6-0.5,1s0.1,0.7,0.3,0.9s0.6,0.4,1.1,0.5l1.5,0.4c0.8,0.2,1.5,0.5,1.9,0.9s0.6,0.9,0.6,1.6
			c0,0.8-0.3,1.4-1,1.9c-0.6,0.5-1.5,0.7-2.6,0.7C44.1,983.9,42.9,983.5,42,982.7z"/>
		<path class="st2" d="M59.1,979.2h-6.6c0,1.2,0.3,2,0.8,2.6s1.3,0.9,2.3,0.9c1.1,0,2-0.4,2.9-1.1l0.5,1.1c-0.4,0.4-0.9,0.7-1.5,0.9
			s-1.3,0.3-1.9,0.3c-1.4,0-2.5-0.4-3.3-1.3c-0.8-0.8-1.2-2-1.2-3.4c0-0.9,0.2-1.7,0.5-2.5c0.4-0.7,0.9-1.3,1.5-1.7s1.4-0.6,2.2-0.6
			c1.2,0,2.1,0.4,2.8,1.2s1,1.9,1,3.2V979.2z M53.4,976.3c-0.5,0.5-0.8,1.1-0.9,1.9h5.3c-0.1-0.9-0.3-1.5-0.7-1.9s-1-0.7-1.8-0.7
			S53.9,975.9,53.4,976.3z"/>
		<path class="st2" d="M60.7,982.7l0.5-1.1c0.5,0.4,1,0.7,1.5,0.8c0.5,0.2,1.1,0.3,1.7,0.3c0.7,0,1.2-0.1,1.6-0.4
			c0.4-0.2,0.5-0.6,0.5-1s-0.1-0.6-0.4-0.9c-0.2-0.2-0.6-0.4-1.2-0.5l-1.5-0.4c-0.8-0.2-1.3-0.5-1.8-0.9s-0.6-0.9-0.6-1.5
			c0-0.8,0.3-1.4,1-1.9c0.6-0.5,1.5-0.7,2.5-0.7c0.6,0,1.2,0.1,1.8,0.3s1,0.5,1.4,0.9l-0.5,1.1c-0.9-0.7-1.8-1.1-2.7-1.1
			c-0.6,0-1.1,0.1-1.5,0.4s-0.5,0.6-0.5,1s0.1,0.7,0.3,0.9s0.6,0.4,1.1,0.5l1.5,0.4c0.8,0.2,1.5,0.5,1.9,0.9s0.6,0.9,0.6,1.6
			c0,0.8-0.3,1.4-1,1.9c-0.6,0.5-1.5,0.7-2.6,0.7C62.8,983.9,61.6,983.5,60.7,982.7z"/>
		<path class="st2" d="M69.7,982.7l0.5-1.1c0.5,0.4,1,0.7,1.5,0.8c0.5,0.2,1.1,0.3,1.7,0.3c0.7,0,1.2-0.1,1.6-0.4
			c0.4-0.2,0.5-0.6,0.5-1s-0.1-0.6-0.4-0.9c-0.2-0.2-0.6-0.4-1.2-0.5l-1.5-0.4c-0.8-0.2-1.3-0.5-1.8-0.9s-0.6-0.9-0.6-1.5
			c0-0.8,0.3-1.4,1-1.9c0.6-0.5,1.5-0.7,2.5-0.7c0.6,0,1.2,0.1,1.8,0.3s1,0.5,1.4,0.9l-0.5,1.1c-0.9-0.7-1.8-1.1-2.7-1.1
			c-0.6,0-1.1,0.1-1.5,0.4s-0.5,0.6-0.5,1s0.1,0.7,0.3,0.9s0.6,0.4,1.1,0.5l1.5,0.4c0.8,0.2,1.5,0.5,1.9,0.9s0.6,0.9,0.6,1.6
			c0,0.8-0.3,1.4-1,1.9c-0.6,0.5-1.5,0.7-2.6,0.7C71.8,983.9,70.5,983.5,69.7,982.7z"/>
		<path class="st2" d="M92.2,978.1v5.7h-1.5v-5.6c0-0.9-0.1-1.5-0.4-1.9s-0.8-0.6-1.4-0.6c-0.8,0-1.4,0.3-1.8,0.8s-0.6,1.2-0.6,2.1
			v5.2H85v-5.6c0-0.8-0.1-1.5-0.4-1.8c-0.3-0.4-0.8-0.6-1.4-0.6c-0.8,0-1.4,0.3-1.8,0.8s-0.7,1.2-0.7,2.1v5.2h-1.5v-6.5
			c0-0.9,0-1.8-0.1-2.5h1.4l0.1,1.6c0.3-0.6,0.6-1,1.1-1.3s1.1-0.5,1.7-0.5c0.7,0,1.3,0.1,1.8,0.4s0.8,0.7,1,1.3
			c0.3-0.5,0.7-1,1.2-1.3s1.1-0.5,1.8-0.5C91.2,974.5,92.2,975.7,92.2,978.1z"/>
		<path class="st2" d="M102.5,979.2h-6.6c0,1.2,0.3,2,0.8,2.6s1.3,0.9,2.3,0.9c1.1,0,2-0.4,2.9-1.1l0.5,1.1
			c-0.4,0.4-0.9,0.7-1.5,0.9s-1.3,0.3-1.9,0.3c-1.4,0-2.5-0.4-3.3-1.3c-0.8-0.8-1.2-2-1.2-3.4c0-0.9,0.2-1.7,0.5-2.5
			c0.4-0.7,0.9-1.3,1.5-1.7s1.4-0.6,2.2-0.6c1.2,0,2.1,0.4,2.8,1.2s1,1.9,1,3.2C102.5,978.8,102.5,979.2,102.5,979.2z M96.9,976.3
			c-0.5,0.5-0.8,1.1-0.9,1.9h5.3c-0.1-0.9-0.3-1.5-0.7-1.9c-0.4-0.4-1-0.7-1.8-0.7S97.3,975.9,96.9,976.3z"/>
		<path class="st2" d="M112.5,978.1v5.7H111v-5.6c0-0.8-0.2-1.5-0.5-1.8s-0.9-0.6-1.6-0.6c-0.8,0-1.5,0.3-2,0.8s-0.8,1.2-0.8,2.1
			v5.2h-1.5v-6.5c0-0.9,0-1.8-0.1-2.5h1.4l0.1,1.6c0.3-0.6,0.7-1,1.2-1.4c0.6-0.3,1.2-0.5,1.9-0.5
			C111.4,974.5,112.5,975.7,112.5,978.1z"/>
		<path class="st2" d="M117.2,975.9v5c0,0.7,0.1,1.1,0.4,1.4c0.3,0.3,0.7,0.4,1.2,0.4c0.3,0,0.7-0.1,1-0.2v1.2
			c-0.4,0.1-0.8,0.2-1.3,0.2c-0.9,0-1.5-0.2-2-0.7s-0.7-1.2-0.7-2.2v-5.1H114v-1.2h1.8v-2.3l1.5-0.5v2.8h2.6v1.2L117.2,975.9
			L117.2,975.9z"/>
	</g>
	<rect x="3.9" y="741.6" class="st5" width="135" height="41.9"/>
	<g class="st4">
		<path class="st3" d="M20.4,744.2h7.9v1.2h-6.5v4.4H28v1.2h-6.1v5.9h-1.5V744.2z"/>
		<path class="st3" d="M37.8,748v9.1h-1.4v-1.6c-0.3,0.6-0.7,1-1.2,1.3s-1.1,0.4-1.7,0.4c-1.1,0-1.9-0.3-2.4-0.9
			c-0.6-0.6-0.8-1.5-0.8-2.7V748h1.5v5.6c0,0.8,0.2,1.4,0.5,1.8c0.3,0.4,0.8,0.6,1.5,0.6c0.8,0,1.5-0.3,1.9-0.8
			c0.5-0.5,0.7-1.2,0.7-2.1V748H37.8z"/>
		<path class="st3" d="M40.6,743.8H42V757h-1.5L40.6,743.8L40.6,743.8z"/>
		<path class="st3" d="M44.9,743.8h1.5V757h-1.5V743.8z"/>
		<path class="st3" d="M53.3,755.5l0.6-1.1c0.6,0.5,1.3,0.9,1.9,1.2c0.7,0.2,1.4,0.3,2.3,0.3c1,0,1.8-0.2,2.4-0.6
			c0.6-0.4,0.8-1,0.8-1.7c0-0.4-0.1-0.8-0.4-1.1c-0.3-0.3-0.6-0.5-1.1-0.6c-0.4-0.2-1-0.3-1.8-0.5c-1-0.2-1.8-0.5-2.4-0.7
			c-0.6-0.3-1.2-0.6-1.5-1.1c-0.4-0.5-0.6-1.1-0.6-1.9c0-0.7,0.2-1.4,0.6-1.9c0.4-0.6,0.9-1,1.6-1.3c0.7-0.3,1.5-0.5,2.5-0.5
			c0.9,0,1.7,0.1,2.5,0.4c0.8,0.3,1.4,0.7,1.9,1.2l-0.6,1.1c-0.6-0.5-1.2-0.9-1.8-1.1c-0.6-0.2-1.3-0.4-2-0.4c-1,0-1.8,0.2-2.3,0.6
			s-0.8,1-0.8,1.8c0,0.6,0.2,1.1,0.7,1.5c0.5,0.3,1.2,0.6,2.3,0.8c1.1,0.3,2,0.5,2.6,0.7s1.2,0.6,1.6,1c0.4,0.4,0.6,1,0.6,1.8
			c0,0.7-0.2,1.4-0.6,1.9c-0.4,0.5-0.9,1-1.6,1.3c-0.7,0.3-1.6,0.4-2.5,0.4C56.1,757.2,54.5,756.6,53.3,755.5z"/>
		<path class="st3" d="M72.6,752.4H66c0,1.2,0.3,2,0.8,2.6s1.3,0.9,2.3,0.9c1.1,0,2-0.4,2.9-1.1l0.5,1.1c-0.4,0.4-0.9,0.7-1.5,0.9
			s-1.3,0.3-1.9,0.3c-1.4,0-2.5-0.4-3.3-1.3c-0.8-0.8-1.2-2-1.2-3.4c0-0.9,0.2-1.7,0.5-2.5c0.4-0.7,0.9-1.3,1.5-1.7s1.4-0.6,2.2-0.6
			c1.2,0,2.1,0.4,2.8,1.2s1,1.9,1,3.2C72.6,752,72.6,752.4,72.6,752.4z M67,749.6c-0.5,0.5-0.8,1.1-0.9,1.9h5.3
			c-0.1-0.9-0.3-1.5-0.7-1.9c-0.4-0.4-1-0.7-1.8-0.7S67.4,749.1,67,749.6z"/>
		<path class="st3" d="M76.4,756.6c-0.7-0.4-1.2-0.9-1.5-1.6s-0.5-1.5-0.5-2.5c0-0.9,0.2-1.8,0.5-2.5c0.4-0.7,0.9-1.3,1.5-1.7
			c0.7-0.4,1.4-0.6,2.3-0.6c0.6,0,1.2,0.1,1.8,0.3s1,0.5,1.4,0.9l-0.5,1.1c-0.5-0.4-0.9-0.6-1.3-0.8s-0.9-0.3-1.3-0.3
			c-0.9,0-1.7,0.3-2.2,0.9c-0.5,0.6-0.8,1.5-0.8,2.6s0.3,1.9,0.8,2.5s1.3,0.9,2.2,0.9c0.4,0,0.9-0.1,1.3-0.3s0.9-0.4,1.3-0.8
			l0.5,1.1c-0.4,0.4-0.9,0.6-1.4,0.9c-0.6,0.2-1.2,0.3-1.8,0.3C77.8,757.1,77,757,76.4,756.6z"/>
		<path class="st3" d="M91.3,748v9.1h-1.4v-1.6c-0.3,0.6-0.7,1-1.2,1.3s-1.1,0.4-1.7,0.4c-1.1,0-1.9-0.3-2.4-0.9
			c-0.6-0.6-0.8-1.5-0.8-2.7V748h1.5v5.6c0,0.8,0.2,1.4,0.5,1.8s0.8,0.6,1.5,0.6c0.8,0,1.5-0.3,1.9-0.8c0.5-0.5,0.7-1.2,0.7-2.1V748
			H91.3z"/>
		<path class="st3" d="M99.2,747.9v1.3c-0.3-0.1-0.6-0.1-1-0.1c-0.9,0-1.5,0.3-2,0.8c-0.4,0.5-0.6,1.2-0.6,2v5.2h-1.5v-6.5
			c0-0.9,0-1.8-0.1-2.5h1.4l0.1,1.7c0.2-0.6,0.6-1.1,1.1-1.4c0.5-0.3,1.1-0.5,1.7-0.5C98.7,747.8,98.9,747.8,99.2,747.9z"/>
		<path class="st3" d="M102.3,744.1v1.7h-1.8v-1.7H102.3z M100.7,748h1.5v9.1h-1.5V748z"/>
		<path class="st3" d="M106.9,749.1v5c0,0.7,0.1,1.1,0.4,1.4c0.3,0.3,0.7,0.4,1.2,0.4c0.3,0,0.7-0.1,1-0.2v1.2
			c-0.4,0.1-0.8,0.2-1.3,0.2c-0.9,0-1.5-0.2-2-0.7s-0.7-1.2-0.7-2.2v-5.1h-1.8V748h1.8v-2.3l1.5-0.5v2.8h2.6v1.2h-2.7V749.1z"/>
		<path class="st3" d="M119.3,748l-4.2,9.9c-0.4,1-1,1.8-1.7,2.3s-1.5,0.8-2.5,1l-0.3-1.1c0.9-0.2,1.5-0.4,1.9-0.8
			c0.4-0.3,0.8-0.8,1.1-1.5l0.4-0.8l-3.8-9h1.5l3.1,7.5l3.1-7.5L119.3,748L119.3,748z"/>
	</g>
	<g class="st4">
		<path class="st3" d="M29.1,775.3h-6.7l-1.4,3.3h-1.5l5.6-12.8h1.3l5.6,12.8h-1.5L29.1,775.3z M28.6,774.1l-2.8-6.6l-2.8,6.6H28.6z
			"/>
		<path class="st3" d="M33.1,777.6l0.5-1.1c0.5,0.4,1,0.7,1.5,0.8c0.5,0.2,1.1,0.3,1.7,0.3c0.7,0,1.2-0.1,1.6-0.4
			c0.4-0.2,0.5-0.6,0.5-1s-0.1-0.6-0.4-0.9c-0.2-0.2-0.6-0.4-1.2-0.5l-1.5-0.4c-0.8-0.2-1.3-0.5-1.8-0.9s-0.6-0.9-0.6-1.5
			c0-0.8,0.3-1.4,1-1.9c0.6-0.5,1.5-0.7,2.5-0.7c0.6,0,1.2,0.1,1.8,0.3s1,0.5,1.4,0.9l-0.5,1.1c-0.9-0.7-1.8-1.1-2.7-1.1
			c-0.6,0-1.1,0.1-1.5,0.4s-0.5,0.6-0.5,1s0.1,0.7,0.3,0.9s0.6,0.4,1.1,0.5l1.5,0.4c0.8,0.2,1.5,0.5,1.9,0.9s0.6,0.9,0.6,1.6
			c0,0.8-0.3,1.4-1,1.9c-0.6,0.5-1.5,0.7-2.6,0.7C35.2,778.7,34,778.4,33.1,777.6z"/>
		<path class="st3" d="M42,777.6l0.5-1.1c0.5,0.4,1,0.7,1.5,0.8c0.5,0.2,1.1,0.3,1.7,0.3c0.7,0,1.2-0.1,1.6-0.4
			c0.4-0.2,0.5-0.6,0.5-1s-0.1-0.6-0.4-0.9c-0.2-0.2-0.6-0.4-1.2-0.5l-1.5-0.4c-0.8-0.2-1.3-0.5-1.8-0.9s-0.6-0.9-0.6-1.5
			c0-0.8,0.3-1.4,1-1.9c0.6-0.5,1.5-0.7,2.5-0.7c0.6,0,1.2,0.1,1.8,0.3s1,0.5,1.4,0.9l-0.5,1.1c-0.9-0.7-1.8-1.1-2.7-1.1
			c-0.6,0-1.1,0.1-1.5,0.4s-0.5,0.6-0.5,1s0.1,0.7,0.3,0.9s0.6,0.4,1.1,0.5l1.5,0.4c0.8,0.2,1.5,0.5,1.9,0.9s0.6,0.9,0.6,1.6
			c0,0.8-0.3,1.4-1,1.9c-0.6,0.5-1.5,0.7-2.6,0.7C44.1,778.7,42.9,778.4,42,777.6z"/>
		<path class="st3" d="M59.1,774h-6.6c0,1.2,0.3,2,0.8,2.6s1.3,0.9,2.3,0.9c1.1,0,2-0.4,2.9-1.1l0.5,1.1c-0.4,0.4-0.9,0.7-1.5,0.9
			s-1.3,0.3-1.9,0.3c-1.4,0-2.5-0.4-3.3-1.3c-0.8-0.8-1.2-2-1.2-3.4c0-0.9,0.2-1.7,0.5-2.5c0.4-0.7,0.9-1.3,1.5-1.7s1.4-0.6,2.2-0.6
			c1.2,0,2.1,0.4,2.8,1.2s1,1.9,1,3.2V774z M53.4,771.2c-0.5,0.5-0.8,1.1-0.9,1.9h5.3c-0.1-0.9-0.3-1.5-0.7-1.9s-1-0.7-1.8-0.7
			S53.9,770.7,53.4,771.2z"/>
		<path class="st3" d="M60.7,777.6l0.5-1.1c0.5,0.4,1,0.7,1.5,0.8c0.5,0.2,1.1,0.3,1.7,0.3c0.7,0,1.2-0.1,1.6-0.4
			c0.4-0.2,0.5-0.6,0.5-1s-0.1-0.6-0.4-0.9c-0.2-0.2-0.6-0.4-1.2-0.5l-1.5-0.4c-0.8-0.2-1.3-0.5-1.8-0.9S61,772.6,61,772
			c0-0.8,0.3-1.4,1-1.9c0.6-0.5,1.5-0.7,2.5-0.7c0.6,0,1.2,0.1,1.8,0.3s1,0.5,1.4,0.9l-0.5,1.1c-0.9-0.7-1.8-1.1-2.7-1.1
			c-0.6,0-1.1,0.1-1.5,0.4s-0.5,0.6-0.5,1s0.1,0.7,0.3,0.9s0.6,0.4,1.1,0.5l1.5,0.4c0.8,0.2,1.5,0.5,1.9,0.9s0.6,0.9,0.6,1.6
			c0,0.8-0.3,1.4-1,1.9c-0.6,0.5-1.5,0.7-2.6,0.7C62.8,778.7,61.6,778.4,60.7,777.6z"/>
		<path class="st3" d="M69.7,777.6l0.5-1.1c0.5,0.4,1,0.7,1.5,0.8c0.5,0.2,1.1,0.3,1.7,0.3c0.7,0,1.2-0.1,1.6-0.4
			c0.4-0.2,0.5-0.6,0.5-1s-0.1-0.6-0.4-0.9c-0.2-0.2-0.6-0.4-1.2-0.5l-1.5-0.4c-0.8-0.2-1.3-0.5-1.8-0.9S70,772.6,70,772
			c0-0.8,0.3-1.4,1-1.9c0.6-0.5,1.5-0.7,2.5-0.7c0.6,0,1.2,0.1,1.8,0.3s1,0.5,1.4,0.9l-0.5,1.1c-0.9-0.7-1.8-1.1-2.7-1.1
			c-0.6,0-1.1,0.1-1.5,0.4s-0.5,0.6-0.5,1s0.1,0.7,0.3,0.9s0.6,0.4,1.1,0.5l1.5,0.4c0.8,0.2,1.5,0.5,1.9,0.9s0.6,0.9,0.6,1.6
			c0,0.8-0.3,1.4-1,1.9c-0.6,0.5-1.5,0.7-2.6,0.7C71.8,778.7,70.5,778.4,69.7,777.6z"/>
		<path class="st3" d="M92.2,772.9v5.7h-1.5V773c0-0.9-0.1-1.5-0.4-1.9s-0.8-0.6-1.4-0.6c-0.8,0-1.4,0.3-1.8,0.8s-0.6,1.2-0.6,2.1
			v5.2H85V773c0-0.8-0.1-1.5-0.4-1.8c-0.3-0.4-0.8-0.6-1.4-0.6c-0.8,0-1.4,0.3-1.8,0.8s-0.7,1.2-0.7,2.1v5.2h-1.5v-6.5
			c0-0.9,0-1.8-0.1-2.5h1.4l0.1,1.6c0.3-0.6,0.6-1,1.1-1.3s1.1-0.5,1.7-0.5c0.7,0,1.3,0.1,1.8,0.4s0.8,0.7,1,1.3
			c0.3-0.5,0.7-1,1.2-1.3s1.1-0.5,1.8-0.5C91.2,769.4,92.2,770.5,92.2,772.9z"/>
		<path class="st3" d="M102.5,774h-6.6c0,1.2,0.3,2,0.8,2.6s1.3,0.9,2.3,0.9c1.1,0,2-0.4,2.9-1.1l0.5,1.1c-0.4,0.4-0.9,0.7-1.5,0.9
			s-1.3,0.3-1.9,0.3c-1.4,0-2.5-0.4-3.3-1.3c-0.8-0.8-1.2-2-1.2-3.4c0-0.9,0.2-1.7,0.5-2.5c0.4-0.7,0.9-1.3,1.5-1.7s1.4-0.6,2.2-0.6
			c1.2,0,2.1,0.4,2.8,1.2s1,1.9,1,3.2C102.5,773.6,102.5,774,102.5,774z M96.9,771.2c-0.5,0.5-0.8,1.1-0.9,1.9h5.3
			c-0.1-0.9-0.3-1.5-0.7-1.9c-0.4-0.4-1-0.7-1.8-0.7S97.3,770.7,96.9,771.2z"/>
		<path class="st3" d="M112.5,772.9v5.7H111V773c0-0.8-0.2-1.5-0.5-1.8s-0.9-0.6-1.6-0.6c-0.8,0-1.5,0.3-2,0.8s-0.8,1.2-0.8,2.1v5.2
			h-1.5v-6.5c0-0.9,0-1.8-0.1-2.5h1.4l0.1,1.6c0.3-0.6,0.7-1,1.2-1.4c0.6-0.3,1.2-0.5,1.9-0.5C111.4,769.4,112.5,770.5,112.5,772.9z
			"/>
		<path class="st3" d="M117.2,770.7v5c0,0.7,0.1,1.1,0.4,1.4c0.3,0.3,0.7,0.4,1.2,0.4c0.3,0,0.7-0.1,1-0.2v1.2
			c-0.4,0.1-0.8,0.2-1.3,0.2c-0.9,0-1.5-0.2-2-0.7s-0.7-1.2-0.7-2.2v-5.1H114v-1.2h1.8v-2.3l1.5-0.5v2.8h2.6v1.2L117.2,770.7
			L117.2,770.7z"/>
	</g>
	<g>
		<g class="st4">
			<path class="st1" d="M57.9,1145.2c0-3.6,2.8-6.2,6.5-6.2c2.1,0,3.8,0.7,4.9,2.1l-1.8,1.6c-0.8-0.9-1.8-1.4-3-1.4
				c-2.2,0-3.8,1.6-3.8,3.8c0,2.2,1.6,3.8,3.8,3.8c1.2,0,2.2-0.5,3-1.4l1.8,1.6c-1.1,1.4-2.8,2.1-4.9,2.1
				C60.6,1151.4,57.9,1148.8,57.9,1145.2z"/>
			<path class="st1" d="M69.9,1146.6c0-2.8,2.1-4.7,5-4.7s5,2,5,4.7s-2.1,4.7-5,4.7C72,1151.3,69.9,1149.4,69.9,1146.6z
				 M77.2,1146.6c0-1.6-1-2.5-2.3-2.5s-2.3,1-2.3,2.5c0,1.6,1,2.5,2.3,2.5S77.2,1148.2,77.2,1146.6z"/>
			<path class="st1" d="M91,1146v5.2h-2.7v-4.8c0-1.5-0.7-2.2-1.9-2.2c-1.3,0-2.2,0.8-2.2,2.5v4.5h-2.7v-9.1H84v1.1
				c0.7-0.8,1.8-1.2,3-1.2C89.4,1141.9,91,1143.2,91,1146z"/>
			<path class="st1" d="M99.3,1150.7c-0.5,0.4-1.3,0.6-2.2,0.6c-2.2,0-3.4-1.1-3.4-3.3v-3.8h-1.4v-2h1.4v-2.2h2.7v2.2h2.3v2h-2.3
				v3.7c0,0.8,0.4,1.2,1.1,1.2c0.4,0,0.8-0.1,1.1-0.3L99.3,1150.7z"/>
			<path class="st1" d="M100.5,1139.3c0-0.8,0.7-1.5,1.6-1.5s1.6,0.6,1.6,1.4c0,0.9-0.7,1.5-1.6,1.5S100.5,1140.1,100.5,1139.3z
				 M100.8,1142h2.7v9.1h-2.7V1142z"/>
			<path class="st1" d="M115.3,1146v5.2h-2.7v-4.8c0-1.5-0.7-2.2-1.9-2.2c-1.3,0-2.2,0.8-2.2,2.5v4.5H106v-9.1h2.5v1.1
				c0.7-0.8,1.8-1.2,3-1.2C113.7,1141.9,115.3,1143.2,115.3,1146z"/>
			<path class="st1" d="M126.9,1142v9.1h-2.5v-1.1c-0.7,0.8-1.7,1.2-2.8,1.2c-2.3,0-3.9-1.3-3.9-4.1v-5.2h2.7v4.8
				c0,1.5,0.7,2.2,1.9,2.2c1.2,0,2.1-0.8,2.1-2.5v-4.5L126.9,1142L126.9,1142z"/>
			<path class="st1" d="M128.7,1146.6c0-2.8,2.1-4.7,5-4.7s5,2,5,4.7s-2.1,4.7-5,4.7C130.8,1151.3,128.7,1149.4,128.7,1146.6z
				 M136.1,1146.6c0-1.6-1-2.5-2.3-2.5s-2.3,1-2.3,2.5c0,1.6,1,2.5,2.3,2.5S136.1,1148.2,136.1,1146.6z"/>
			<path class="st1" d="M149.7,1142v9.1h-2.5v-1.1c-0.7,0.8-1.7,1.2-2.8,1.2c-2.3,0-3.9-1.3-3.9-4.1v-5.2h2.7v4.8
				c0,1.5,0.7,2.2,1.9,2.2s2.1-0.8,2.1-2.5v-4.5L149.7,1142L149.7,1142z"/>
			<path class="st1" d="M151.3,1150.3l0.9-1.9c0.8,0.5,2.1,0.9,3.2,0.9c1.2,0,1.7-0.3,1.7-0.8c0-1.5-5.5,0-5.5-3.6
				c0-1.7,1.6-3,4.2-3c1.3,0,2.7,0.3,3.5,0.8l-0.9,1.9c-0.9-0.5-1.8-0.7-2.6-0.7c-1.2,0-1.7,0.4-1.7,0.8c0,1.6,5.5,0.1,5.5,3.7
				c0,1.7-1.6,2.9-4.3,2.9C153.7,1151.3,152.2,1150.9,151.3,1150.3z"/>
			<path class="st1" d="M177,1151.2v-7.1l-3.5,5.9h-1.2l-3.5-5.7v7h-2.6v-11.9h2.3l4.5,7.4l4.4-7.4h2.3v11.9H177V1151.2z"/>
			<path class="st1" d="M181.6,1146.6c0-2.8,2.1-4.7,5-4.7s5,2,5,4.7s-2.1,4.7-5,4.7C183.7,1151.3,181.6,1149.4,181.6,1146.6z
				 M188.9,1146.6c0-1.6-1-2.5-2.3-2.5s-2.3,1-2.3,2.5c0,1.6,1,2.5,2.3,2.5S188.9,1148.2,188.9,1146.6z"/>
			<path class="st1" d="M202.7,1146v5.2H200v-4.8c0-1.5-0.7-2.2-1.9-2.2c-1.3,0-2.2,0.8-2.2,2.5v4.5h-2.7v-9.1h2.5v1.1
				c0.7-0.8,1.8-1.2,3-1.2C201.1,1141.9,202.7,1143.2,202.7,1146z"/>
			<path class="st1" d="M204.8,1139.3c0-0.8,0.7-1.5,1.6-1.5c1,0,1.6,0.6,1.6,1.4c0,0.9-0.7,1.5-1.6,1.5
				C205.5,1140.8,204.8,1140.1,204.8,1139.3z M205.1,1142h2.7v9.1h-2.7V1142z"/>
			<path class="st1" d="M216.2,1150.7c-0.5,0.4-1.3,0.6-2.2,0.6c-2.2,0-3.4-1.1-3.4-3.3v-3.8h-1.4v-2h1.4v-2.2h2.7v2.2h2.3v2h-2.3
				v3.7c0,0.8,0.4,1.2,1.1,1.2c0.4,0,0.8-0.1,1.1-0.3L216.2,1150.7z"/>
			<path class="st1" d="M216.7,1146.6c0-2.8,2.1-4.7,5-4.7s5,2,5,4.7s-2.1,4.7-5,4.7S216.7,1149.4,216.7,1146.6z M224.1,1146.6
				c0-1.6-1-2.5-2.3-2.5s-2.3,1-2.3,2.5c0,1.6,1,2.5,2.3,2.5S224.1,1148.2,224.1,1146.6z"/>
			<path class="st1" d="M234.2,1141.9v2.4c-0.2,0-0.4,0-0.6,0c-1.5,0-2.4,0.8-2.4,2.5v4.3h-2.7v-9.1h2.5v1.2
				C231.7,1142.4,232.8,1141.9,234.2,1141.9z"/>
			<path class="st1" d="M235.4,1139.3c0-0.8,0.7-1.5,1.6-1.5c1,0,1.6,0.6,1.6,1.4c0,0.9-0.7,1.5-1.6,1.5
				C236.1,1140.8,235.4,1140.1,235.4,1139.3z M235.8,1142h2.7v9.1h-2.7V1142z"/>
			<path class="st1" d="M250.2,1146v5.2h-2.7v-4.8c0-1.5-0.7-2.2-1.9-2.2c-1.3,0-2.2,0.8-2.2,2.5v4.5h-2.7v-9.1h2.5v1.1
				c0.7-0.8,1.8-1.2,3-1.2C248.6,1141.9,250.2,1143.2,250.2,1146z"/>
			<path class="st1" d="M262.2,1142v7.6c0,3.4-1.8,5-5.1,5c-1.7,0-3.4-0.4-4.5-1.3l1.1-1.9c0.8,0.6,2.1,1,3.2,1
				c1.9,0,2.7-0.8,2.7-2.5v-0.4c-0.7,0.8-1.7,1.1-2.9,1.1c-2.5,0-4.6-1.8-4.6-4.4s2-4.4,4.6-4.4c1.3,0,2.3,0.4,3,1.3v-1.2h2.5
				L262.2,1142L262.2,1142z M259.5,1146.3c0-1.3-1-2.2-2.4-2.2s-2.4,0.9-2.4,2.2s1,2.2,2.4,2.2
				C258.5,1148.6,259.5,1147.7,259.5,1146.3z"/>
		</g>
	</g>
	<rect x="170.2" y="359.5" class="st5" width="125.6" height="41.9"/>
	<g class="st4">
		<path class="st3" d="M200,374.9h-1.6l-1.6-4.3c-0.2-0.5-0.5-0.9-0.8-1.1s-0.8-0.3-1.4-0.3h-3.2v5.6H190V362h5.1
			c1.4,0,2.4,0.3,3.2,0.9c0.7,0.6,1.1,1.5,1.1,2.6c0,0.8-0.2,1.5-0.7,2.1c-0.4,0.6-1.1,1-1.9,1.2c0.4,0.1,0.7,0.2,1,0.5
			s0.5,0.6,0.7,1.1L200,374.9z M194.9,368c2,0,3-0.8,3-2.4c0-0.8-0.2-1.4-0.7-1.8s-1.2-0.6-2.2-0.6h-3.5v4.8H194.9z"/>
		<path class="st3" d="M209.9,370.3h-6.6c0,1.2,0.3,2,0.8,2.6s1.3,0.9,2.3,0.9c1.1,0,2-0.4,2.9-1.1l0.5,1.1
			c-0.4,0.4-0.9,0.7-1.5,0.9s-1.3,0.3-1.9,0.3c-1.4,0-2.5-0.4-3.3-1.3s-1.2-2-1.2-3.4c0-0.9,0.2-1.7,0.5-2.5s0.9-1.3,1.5-1.7
			c0.6-0.4,1.4-0.6,2.2-0.6c1.2,0,2.1,0.4,2.8,1.2c0.7,0.8,1,1.9,1,3.2V370.3z M204.2,367.4c-0.5,0.5-0.8,1.1-0.9,1.9h5.3
			c-0.1-0.9-0.3-1.5-0.7-1.9s-1-0.7-1.8-0.7S204.6,367,204.2,367.4z"/>
		<path class="st3" d="M220,365.8v9.1h-1.4v-1.6c-0.3,0.6-0.7,1-1.2,1.3s-1.2,0.5-1.9,0.5c-0.8,0-1.5-0.2-2.1-0.6s-1.1-0.9-1.4-1.6
			s-0.5-1.5-0.5-2.5c0-0.9,0.2-1.8,0.5-2.5s0.8-1.3,1.4-1.7c0.6-0.4,1.3-0.6,2.1-0.6c0.7,0,1.3,0.2,1.9,0.5c0.5,0.3,0.9,0.8,1.2,1.3
			v-1.6L220,365.8L220,365.8z M217.9,372.9c0.5-0.6,0.7-1.5,0.7-2.6s-0.2-2-0.7-2.6s-1.2-0.9-2.1-0.9s-1.6,0.3-2.1,0.9
			s-0.7,1.5-0.7,2.6s0.2,2,0.7,2.6s1.2,0.9,2.1,0.9S217.4,373.5,217.9,372.9z"/>
		<path class="st3" d="M230.8,361.6v13.2h-1.4v-1.6c-0.3,0.6-0.7,1-1.2,1.3s-1.2,0.5-1.9,0.5c-0.8,0-1.5-0.2-2.1-0.6s-1.1-1-1.4-1.7
			s-0.5-1.5-0.5-2.5c0-0.9,0.2-1.8,0.5-2.5s0.8-1.2,1.4-1.6c0.6-0.4,1.3-0.6,2.1-0.6c0.7,0,1.3,0.2,1.9,0.5c0.5,0.3,0.9,0.7,1.2,1.3
			v-5.7L230.8,361.6L230.8,361.6z M228.7,372.9c0.5-0.6,0.7-1.5,0.7-2.6s-0.2-2-0.7-2.6s-1.2-0.9-2.1-0.9s-1.6,0.3-2.1,0.9
			s-0.7,1.4-0.7,2.5s0.2,2,0.7,2.6s1.2,0.9,2.1,0.9S228.2,373.5,228.7,372.9z"/>
		<path class="st3" d="M235.3,362v1.7h-1.8V362H235.3z M233.7,365.8h1.5v9.1h-1.5V365.8z"/>
		<path class="st3" d="M245.7,369.2v5.7h-1.5v-5.6c0-0.8-0.2-1.5-0.5-1.8s-0.9-0.6-1.6-0.6c-0.8,0-1.5,0.3-2,0.8s-0.8,1.2-0.8,2.1
			v5.2H238v-6.5c0-0.9,0-1.8-0.1-2.5h1.4l0.1,1.6c0.3-0.6,0.7-1,1.2-1.4c0.6-0.3,1.2-0.5,1.9-0.5
			C244.6,365.6,245.7,366.8,245.7,369.2z"/>
		<path class="st3" d="M256.1,370.3h-6.6c0,1.2,0.3,2,0.8,2.6s1.3,0.9,2.3,0.9c1.1,0,2-0.4,2.9-1.1l0.5,1.1
			c-0.4,0.4-0.9,0.7-1.5,0.9s-1.3,0.3-1.9,0.3c-1.4,0-2.5-0.4-3.3-1.3c-0.8-0.8-1.2-2-1.2-3.4c0-0.9,0.2-1.7,0.5-2.5
			c0.4-0.7,0.9-1.3,1.5-1.7c0.6-0.4,1.4-0.6,2.2-0.6c1.2,0,2.1,0.4,2.8,1.2c0.7,0.8,1,1.9,1,3.2V370.3z M250.4,367.4
			c-0.5,0.5-0.8,1.1-0.9,1.9h5.3c-0.1-0.9-0.3-1.5-0.7-1.9s-1-0.7-1.8-0.7S250.9,367,250.4,367.4z"/>
		<path class="st3" d="M257.7,373.8l0.5-1.1c0.5,0.4,1,0.7,1.5,0.8s1.1,0.3,1.7,0.3c0.7,0,1.2-0.1,1.6-0.4c0.4-0.2,0.5-0.6,0.5-1
			s-0.1-0.6-0.4-0.9c-0.2-0.2-0.6-0.4-1.2-0.5l-1.5-0.4c-0.8-0.2-1.3-0.5-1.8-0.9s-0.6-0.9-0.6-1.5c0-0.8,0.3-1.4,1-1.9
			c0.6-0.5,1.5-0.7,2.5-0.7c0.6,0,1.2,0.1,1.8,0.3c0.6,0.2,1,0.5,1.4,0.9l-0.5,1.1c-0.9-0.7-1.8-1.1-2.7-1.1c-0.6,0-1.1,0.1-1.5,0.4
			c-0.4,0.2-0.5,0.6-0.5,1s0.1,0.7,0.3,0.9c0.2,0.2,0.6,0.4,1.1,0.5l1.5,0.4c0.8,0.2,1.5,0.5,1.9,0.9s0.6,0.9,0.6,1.6
			c0,0.8-0.3,1.4-1,1.9c-0.6,0.5-1.5,0.7-2.6,0.7C259.8,375,258.6,374.6,257.7,373.8z"/>
		<path class="st3" d="M266.6,373.8l0.5-1.1c0.5,0.4,1,0.7,1.5,0.8s1.1,0.3,1.7,0.3c0.7,0,1.2-0.1,1.6-0.4c0.4-0.2,0.5-0.6,0.5-1
			s-0.1-0.6-0.4-0.9c-0.2-0.2-0.6-0.4-1.2-0.5l-1.5-0.4c-0.8-0.2-1.3-0.5-1.8-0.9s-0.6-0.9-0.6-1.5c0-0.8,0.3-1.4,1-1.9
			c0.6-0.5,1.5-0.7,2.5-0.7c0.6,0,1.2,0.1,1.8,0.3c0.6,0.2,1,0.5,1.4,0.9l-0.5,1.1c-0.9-0.7-1.8-1.1-2.7-1.1c-0.6,0-1.1,0.1-1.5,0.4
			c-0.4,0.2-0.5,0.6-0.5,1s0.1,0.7,0.3,0.9c0.2,0.2,0.6,0.4,1.1,0.5l1.5,0.4c0.8,0.2,1.5,0.5,1.9,0.9s0.6,0.9,0.6,1.6
			c0,0.8-0.3,1.4-1,1.9c-0.6,0.5-1.5,0.7-2.6,0.7C268.7,375,267.5,374.6,266.6,373.8z"/>
	</g>
	<g class="st4">
		<path class="st3" d="M190.8,393.2h-6.7l-1.4,3.3h-1.5l5.6-12.8h1.3l5.6,12.8h-1.5L190.8,393.2z M190.2,391.9l-2.8-6.6l-2.8,6.6
			H190.2z"/>
		<path class="st3" d="M194.7,395.4l0.5-1.1c0.5,0.4,1,0.7,1.5,0.8c0.5,0.2,1.1,0.3,1.7,0.3c0.7,0,1.2-0.1,1.6-0.4
			c0.4-0.2,0.5-0.6,0.5-1s-0.1-0.6-0.4-0.9c-0.2-0.2-0.6-0.4-1.2-0.5l-1.5-0.4c-0.8-0.2-1.3-0.5-1.8-0.9s-0.6-0.9-0.6-1.5
			c0-0.8,0.3-1.4,1-1.9c0.6-0.5,1.5-0.7,2.5-0.7c0.6,0,1.2,0.1,1.8,0.3c0.6,0.2,1,0.5,1.4,0.9l-0.5,1.1c-0.9-0.7-1.8-1.1-2.7-1.1
			c-0.6,0-1.1,0.1-1.5,0.4c-0.4,0.2-0.5,0.6-0.5,1s0.1,0.7,0.3,0.9c0.2,0.2,0.6,0.4,1.1,0.5l1.5,0.4c0.8,0.2,1.5,0.5,1.9,0.9
			s0.6,0.9,0.6,1.6c0,0.8-0.3,1.4-1,1.9s-1.5,0.7-2.6,0.7C196.8,396.6,195.6,396.2,194.7,395.4z"/>
		<path class="st3" d="M203.7,395.4l0.5-1.1c0.5,0.4,1,0.7,1.5,0.8c0.5,0.2,1.1,0.3,1.7,0.3c0.7,0,1.2-0.1,1.6-0.4
			c0.4-0.2,0.5-0.6,0.5-1s-0.1-0.6-0.4-0.9c-0.2-0.2-0.6-0.4-1.2-0.5l-1.5-0.4c-0.8-0.2-1.3-0.5-1.8-0.9s-0.6-0.9-0.6-1.5
			c0-0.8,0.3-1.4,1-1.9c0.6-0.5,1.5-0.7,2.5-0.7c0.6,0,1.2,0.1,1.8,0.3c0.6,0.2,1,0.5,1.4,0.9l-0.5,1.1c-0.9-0.7-1.8-1.1-2.7-1.1
			c-0.6,0-1.1,0.1-1.5,0.4c-0.4,0.2-0.5,0.6-0.5,1s0.1,0.7,0.3,0.9c0.2,0.2,0.6,0.4,1.1,0.5l1.5,0.4c0.8,0.2,1.5,0.5,1.9,0.9
			s0.6,0.9,0.6,1.6c0,0.8-0.3,1.4-1,1.9s-1.5,0.7-2.6,0.7C205.8,396.6,204.6,396.2,203.7,395.4z"/>
		<path class="st3" d="M220.7,391.9h-6.6c0,1.2,0.3,2,0.8,2.6s1.3,0.9,2.3,0.9c1.1,0,2-0.4,2.9-1.1l0.5,1.1
			c-0.4,0.4-0.9,0.7-1.5,0.9s-1.3,0.3-1.9,0.3c-1.4,0-2.5-0.4-3.3-1.3c-0.8-0.8-1.2-2-1.2-3.4c0-0.9,0.2-1.7,0.5-2.5
			c0.4-0.7,0.9-1.3,1.5-1.7c0.6-0.4,1.4-0.6,2.2-0.6c1.2,0,2.1,0.4,2.8,1.2c0.7,0.8,1,1.9,1,3.2V391.9z M215.1,389
			c-0.5,0.5-0.8,1.1-0.9,1.9h5.3c-0.1-0.9-0.3-1.5-0.7-1.9s-1-0.7-1.8-0.7S215.5,388.6,215.1,389z"/>
		<path class="st3" d="M222.4,395.4l0.5-1.1c0.5,0.4,1,0.7,1.5,0.8c0.5,0.2,1.1,0.3,1.7,0.3c0.7,0,1.2-0.1,1.6-0.4
			c0.4-0.2,0.5-0.6,0.5-1s-0.1-0.6-0.4-0.9c-0.2-0.2-0.6-0.4-1.2-0.5l-1.5-0.4c-0.8-0.2-1.3-0.5-1.8-0.9s-0.6-0.9-0.6-1.5
			c0-0.8,0.3-1.4,1-1.9c0.6-0.5,1.5-0.7,2.5-0.7c0.6,0,1.2,0.1,1.8,0.3c0.6,0.2,1,0.5,1.4,0.9l-0.5,1.1c-0.9-0.7-1.8-1.1-2.7-1.1
			c-0.6,0-1.1,0.1-1.5,0.4c-0.4,0.2-0.5,0.6-0.5,1s0.1,0.7,0.3,0.9c0.2,0.2,0.6,0.4,1.1,0.5l1.5,0.4c0.8,0.2,1.5,0.5,1.9,0.9
			s0.6,0.9,0.6,1.6c0,0.8-0.3,1.4-1,1.9s-1.5,0.7-2.6,0.7C224.5,396.6,223.3,396.2,222.4,395.4z"/>
		<path class="st3" d="M231.3,395.4l0.5-1.1c0.5,0.4,1,0.7,1.5,0.8c0.5,0.2,1.1,0.3,1.7,0.3c0.7,0,1.2-0.1,1.6-0.4
			c0.4-0.2,0.5-0.6,0.5-1s-0.1-0.6-0.4-0.9c-0.2-0.2-0.6-0.4-1.2-0.5l-1.5-0.4c-0.8-0.2-1.3-0.5-1.8-0.9s-0.6-0.9-0.6-1.5
			c0-0.8,0.3-1.4,1-1.9c0.6-0.5,1.5-0.7,2.5-0.7c0.6,0,1.2,0.1,1.8,0.3c0.6,0.2,1,0.5,1.4,0.9l-0.5,1.1c-0.9-0.7-1.8-1.1-2.7-1.1
			c-0.6,0-1.1,0.1-1.5,0.4c-0.4,0.2-0.5,0.6-0.5,1s0.1,0.7,0.3,0.9c0.2,0.2,0.6,0.4,1.1,0.5l1.5,0.4c0.8,0.2,1.5,0.5,1.9,0.9
			s0.6,0.9,0.6,1.6c0,0.8-0.3,1.4-1,1.9s-1.5,0.7-2.6,0.7C233.4,396.6,232.2,396.2,231.3,395.4z"/>
		<path class="st3" d="M253.9,390.8v5.7h-1.5v-5.6c0-0.9-0.1-1.5-0.4-1.9s-0.8-0.6-1.4-0.6c-0.8,0-1.4,0.3-1.8,0.8
			c-0.4,0.5-0.6,1.2-0.6,2.1v5.2h-1.5v-5.6c0-0.8-0.2-1.5-0.5-1.8s-0.8-0.6-1.4-0.6c-0.8,0-1.4,0.3-1.8,0.8
			c-0.4,0.5-0.7,1.2-0.7,2.1v5.2h-1.5v-6.5c0-0.9,0-1.8-0.1-2.5h1.4l0.1,1.6c0.3-0.6,0.6-1,1.1-1.3s1.1-0.5,1.7-0.5
			c0.7,0,1.3,0.1,1.8,0.4s0.8,0.7,1,1.3c0.3-0.5,0.7-1,1.2-1.3s1.1-0.5,1.8-0.5C252.9,387.2,253.9,388.4,253.9,390.8z"/>
		<path class="st3" d="M264.2,391.9h-6.6c0,1.2,0.3,2,0.8,2.6s1.3,0.9,2.3,0.9c1.1,0,2-0.4,2.9-1.1l0.5,1.1
			c-0.4,0.4-0.9,0.7-1.5,0.9s-1.3,0.3-1.9,0.3c-1.4,0-2.5-0.4-3.3-1.3s-1.2-2-1.2-3.4c0-0.9,0.2-1.7,0.5-2.5s0.9-1.3,1.5-1.7
			c0.6-0.4,1.4-0.6,2.2-0.6c1.2,0,2.1,0.4,2.8,1.2c0.7,0.8,1,1.9,1,3.2L264.2,391.9L264.2,391.9z M258.5,389
			c-0.5,0.5-0.8,1.1-0.9,1.9h5.3c-0.1-0.9-0.3-1.5-0.7-1.9c-0.4-0.4-1-0.7-1.8-0.7S259,388.6,258.5,389z"/>
		<path class="st3" d="M274.2,390.8v5.7h-1.5v-5.6c0-0.8-0.2-1.5-0.5-1.8s-0.9-0.6-1.6-0.6c-0.8,0-1.5,0.3-2,0.8s-0.8,1.2-0.8,2.1
			v5.2h-1.5v-6.5c0-0.9,0-1.8-0.1-2.5h1.4l0.1,1.6c0.3-0.6,0.7-1,1.2-1.4c0.6-0.3,1.2-0.5,1.9-0.5
			C273.1,387.2,274.2,388.4,274.2,390.8z"/>
		<path class="st3" d="M278.9,388.6v5c0,0.7,0.1,1.1,0.4,1.4s0.7,0.4,1.2,0.4c0.3,0,0.7-0.1,1-0.2v1.2c-0.4,0.1-0.8,0.2-1.3,0.2
			c-0.9,0-1.5-0.2-2-0.7s-0.7-1.2-0.7-2.2v-5.1h-1.8v-1.2h1.8v-2.3l1.5-0.5v2.8h2.6v1.2L278.9,388.6L278.9,388.6z"/>
	</g>
	<rect x="161.7" y="544.3" class="st5" width="137.7" height="41.9"/>
	<g class="st4">
		<path class="st2" d="M197.6,559.8H196l-1.6-4.3c-0.2-0.5-0.5-0.9-0.8-1.1c-0.3-0.2-0.8-0.3-1.4-0.3H189v5.6h-1.5v-12.8h5.1
			c1.4,0,2.4,0.3,3.2,0.9c0.7,0.6,1.1,1.5,1.1,2.6c0,0.8-0.2,1.5-0.7,2.1c-0.4,0.6-1.1,1-1.9,1.2c0.4,0.1,0.7,0.2,1,0.5
			s0.5,0.6,0.7,1.1L197.6,559.8z M192.5,552.9c2,0,3-0.8,3-2.4c0-0.8-0.2-1.4-0.7-1.8c-0.5-0.4-1.2-0.6-2.2-0.6H189v4.8H192.5z"/>
		<path class="st2" d="M207.4,555.2h-6.6c0,1.2,0.3,2,0.8,2.6s1.3,0.9,2.3,0.9c1.1,0,2-0.4,2.9-1.1l0.5,1.1
			c-0.4,0.4-0.9,0.7-1.5,0.9s-1.3,0.3-1.9,0.3c-1.4,0-2.5-0.4-3.3-1.3c-0.8-0.8-1.2-2-1.2-3.4c0-0.9,0.2-1.7,0.5-2.5
			c0.4-0.7,0.9-1.3,1.5-1.7s1.4-0.6,2.2-0.6c1.2,0,2.1,0.4,2.8,1.2s1,1.9,1,3.2V555.2z M201.7,552.3c-0.5,0.5-0.8,1.1-0.9,1.9h5.3
			c-0.1-0.9-0.3-1.5-0.7-1.9s-1-0.7-1.8-0.7S202.2,551.8,201.7,552.3z"/>
		<path class="st2" d="M217.6,550.7v9.1h-1.4v-1.6c-0.3,0.6-0.7,1-1.2,1.3s-1.2,0.5-1.9,0.5c-0.8,0-1.5-0.2-2.1-0.6
			c-0.6-0.4-1.1-0.9-1.4-1.6s-0.5-1.5-0.5-2.5c0-0.9,0.2-1.8,0.5-2.5s0.8-1.3,1.4-1.7c0.6-0.4,1.3-0.6,2.1-0.6
			c0.7,0,1.3,0.2,1.9,0.5c0.5,0.3,0.9,0.8,1.2,1.3v-1.6L217.6,550.7L217.6,550.7z M215.4,557.8c0.5-0.6,0.7-1.5,0.7-2.6
			s-0.2-2-0.7-2.6s-1.2-0.9-2.1-0.9c-0.9,0-1.6,0.3-2.1,0.9s-0.7,1.5-0.7,2.6s0.2,2,0.7,2.6s1.2,0.9,2.1,0.9
			S214.9,558.4,215.4,557.8z"/>
		<path class="st2" d="M228.4,546.5v13.2H227v-1.6c-0.3,0.6-0.7,1-1.2,1.3s-1.2,0.5-1.9,0.5c-0.8,0-1.5-0.2-2.1-0.6
			c-0.6-0.4-1.1-1-1.4-1.7c-0.3-0.7-0.5-1.5-0.5-2.5c0-0.9,0.2-1.8,0.5-2.5s0.8-1.2,1.4-1.6c0.6-0.4,1.3-0.6,2.1-0.6
			c0.7,0,1.3,0.2,1.9,0.5c0.5,0.3,0.9,0.7,1.2,1.3v-5.7L228.4,546.5L228.4,546.5z M226.2,557.8c0.5-0.6,0.7-1.5,0.7-2.6
			s-0.2-2-0.7-2.6s-1.2-0.9-2.1-0.9c-0.9,0-1.6,0.3-2.1,0.9c-0.5,0.6-0.7,1.4-0.7,2.5s0.2,2,0.7,2.6s1.2,0.9,2.1,0.9
			C225,558.7,225.7,558.4,226.2,557.8z"/>
		<path class="st2" d="M232.8,546.9v1.7H231v-1.7H232.8z M231.2,550.7h1.5v9.1h-1.5V550.7z"/>
		<path class="st2" d="M243.2,554.1v5.7h-1.5v-5.6c0-0.8-0.2-1.5-0.5-1.8s-0.9-0.6-1.6-0.6c-0.8,0-1.5,0.3-2,0.8s-0.8,1.2-0.8,2.1
			v5.2h-1.5v-6.5c0-0.9,0-1.8-0.1-2.5h1.4l0.1,1.6c0.3-0.6,0.7-1,1.2-1.4c0.6-0.3,1.2-0.5,1.9-0.5
			C242.2,550.5,243.2,551.7,243.2,554.1z"/>
		<path class="st2" d="M253.6,555.2H247c0,1.2,0.3,2,0.8,2.6s1.3,0.9,2.3,0.9c1.1,0,2-0.4,2.9-1.1l0.5,1.1c-0.4,0.4-0.9,0.7-1.5,0.9
			s-1.3,0.3-1.9,0.3c-1.4,0-2.5-0.4-3.3-1.3s-1.2-2-1.2-3.4c0-0.9,0.2-1.7,0.5-2.5s0.9-1.3,1.5-1.7s1.4-0.6,2.2-0.6
			c1.2,0,2.1,0.4,2.8,1.2s1,1.9,1,3.2V555.2z M247.9,552.3c-0.5,0.5-0.8,1.1-0.9,1.9h5.3c-0.1-0.9-0.3-1.5-0.7-1.9s-1-0.7-1.8-0.7
			S248.4,551.8,247.9,552.3z"/>
		<path class="st2" d="M255.2,558.7l0.5-1.1c0.5,0.4,1,0.7,1.5,0.8c0.5,0.2,1.1,0.3,1.7,0.3c0.7,0,1.2-0.1,1.6-0.4
			c0.4-0.2,0.5-0.6,0.5-1s-0.1-0.6-0.4-0.9c-0.2-0.2-0.6-0.4-1.2-0.5l-1.5-0.4c-0.8-0.2-1.3-0.5-1.8-0.9s-0.6-0.9-0.6-1.5
			c0-0.8,0.3-1.4,1-1.9c0.6-0.5,1.5-0.7,2.5-0.7c0.6,0,1.2,0.1,1.8,0.3c0.6,0.2,1,0.5,1.4,0.9l-0.5,1.1c-0.9-0.7-1.8-1.1-2.7-1.1
			c-0.6,0-1.1,0.1-1.5,0.4c-0.4,0.2-0.5,0.6-0.5,1s0.1,0.7,0.3,0.9c0.2,0.2,0.6,0.4,1.1,0.5l1.5,0.4c0.8,0.2,1.5,0.5,1.9,0.9
			s0.6,0.9,0.6,1.6c0,0.8-0.3,1.4-1,1.9s-1.5,0.7-2.6,0.7C257.3,559.9,256.1,559.5,255.2,558.7z"/>
		<path class="st2" d="M264.2,558.7l0.5-1.1c0.5,0.4,1,0.7,1.5,0.8c0.5,0.2,1.1,0.3,1.7,0.3c0.7,0,1.2-0.1,1.6-0.4
			c0.4-0.2,0.5-0.6,0.5-1s-0.1-0.6-0.4-0.9c-0.2-0.2-0.6-0.4-1.2-0.5l-1.5-0.4c-0.8-0.2-1.3-0.5-1.8-0.9s-0.6-0.9-0.6-1.5
			c0-0.8,0.3-1.4,1-1.9c0.6-0.5,1.5-0.7,2.5-0.7c0.6,0,1.2,0.1,1.8,0.3c0.6,0.2,1,0.5,1.4,0.9l-0.5,1.1c-0.9-0.7-1.8-1.1-2.7-1.1
			c-0.6,0-1.1,0.1-1.5,0.4c-0.4,0.2-0.5,0.6-0.5,1s0.1,0.7,0.3,0.9c0.2,0.2,0.6,0.4,1.1,0.5l1.5,0.4c0.8,0.2,1.5,0.5,1.9,0.9
			s0.6,0.9,0.6,1.6c0,0.8-0.3,1.4-1,1.9s-1.5,0.7-2.6,0.7C266.3,559.9,265.1,559.5,264.2,558.7z"/>
	</g>
	<g class="st4">
		<path class="st2" d="M188.3,578.1h-6.7l-1.4,3.3h-1.5l5.6-12.8h1.3l5.6,12.8h-1.5L188.3,578.1z M187.8,576.8l-2.8-6.6l-2.8,6.6
			H187.8z"/>
		<path class="st2" d="M192.3,580.3l0.5-1.1c0.5,0.4,1,0.7,1.5,0.8s1.1,0.3,1.7,0.3c0.7,0,1.2-0.1,1.6-0.4c0.4-0.2,0.5-0.6,0.5-1
			s-0.1-0.6-0.4-0.9c-0.2-0.2-0.6-0.4-1.2-0.5l-1.5-0.4c-0.8-0.2-1.3-0.5-1.8-0.9s-0.6-0.9-0.6-1.5c0-0.8,0.3-1.4,1-1.9
			c0.6-0.5,1.5-0.7,2.5-0.7c0.6,0,1.2,0.1,1.8,0.3s1,0.5,1.4,0.9l-0.5,1.1c-0.9-0.7-1.8-1.1-2.7-1.1c-0.6,0-1.1,0.1-1.5,0.4
			c-0.4,0.2-0.5,0.6-0.5,1s0.1,0.7,0.3,0.9s0.6,0.4,1.1,0.5l1.5,0.4c0.8,0.2,1.5,0.5,1.9,0.9s0.6,0.9,0.6,1.6c0,0.8-0.3,1.4-1,1.9
			c-0.6,0.5-1.5,0.7-2.6,0.7C194.4,581.5,193.2,581.1,192.3,580.3z"/>
		<path class="st2" d="M201.2,580.3l0.5-1.1c0.5,0.4,1,0.7,1.5,0.8s1.1,0.3,1.7,0.3c0.7,0,1.2-0.1,1.6-0.4c0.4-0.2,0.5-0.6,0.5-1
			s-0.1-0.6-0.4-0.9c-0.2-0.2-0.6-0.4-1.2-0.5l-1.5-0.4c-0.8-0.2-1.3-0.5-1.8-0.9s-0.6-0.9-0.6-1.5c0-0.8,0.3-1.4,1-1.9
			c0.6-0.5,1.5-0.7,2.5-0.7c0.6,0,1.2,0.1,1.8,0.3s1,0.5,1.4,0.9l-0.5,1.1c-0.9-0.7-1.8-1.1-2.7-1.1c-0.6,0-1.1,0.1-1.5,0.4
			c-0.4,0.2-0.5,0.6-0.5,1s0.1,0.7,0.3,0.9s0.6,0.4,1.1,0.5l1.5,0.4c0.8,0.2,1.5,0.5,1.9,0.9s0.6,0.9,0.6,1.6c0,0.8-0.3,1.4-1,1.9
			c-0.6,0.5-1.5,0.7-2.6,0.7C203.3,581.5,202.1,581.1,201.2,580.3z"/>
		<path class="st2" d="M218.3,576.8h-6.6c0,1.2,0.3,2,0.8,2.6s1.3,0.9,2.3,0.9c1.1,0,2-0.4,2.9-1.1l0.5,1.1
			c-0.4,0.4-0.9,0.7-1.5,0.9s-1.3,0.3-1.9,0.3c-1.4,0-2.5-0.4-3.3-1.3s-1.2-2-1.2-3.4c0-0.9,0.2-1.7,0.5-2.5s0.9-1.3,1.5-1.7
			s1.4-0.6,2.2-0.6c1.2,0,2.1,0.4,2.8,1.2s1,1.9,1,3.2V576.8z M212.6,573.9c-0.5,0.5-0.8,1.1-0.9,1.9h5.3c-0.1-0.9-0.3-1.5-0.7-1.9
			s-1-0.7-1.8-0.7S213.1,573.4,212.6,573.9z"/>
		<path class="st2" d="M219.9,580.3l0.5-1.1c0.5,0.4,1,0.7,1.5,0.8s1.1,0.3,1.7,0.3c0.7,0,1.2-0.1,1.6-0.4c0.4-0.2,0.5-0.6,0.5-1
			s-0.1-0.6-0.4-0.9c-0.2-0.2-0.6-0.4-1.2-0.5l-1.5-0.4c-0.8-0.2-1.3-0.5-1.8-0.9s-0.6-0.9-0.6-1.5c0-0.8,0.3-1.4,1-1.9
			c0.6-0.5,1.5-0.7,2.5-0.7c0.6,0,1.2,0.1,1.8,0.3s1,0.5,1.4,0.9l-0.5,1.1c-0.9-0.7-1.8-1.1-2.7-1.1c-0.6,0-1.1,0.1-1.5,0.4
			c-0.4,0.2-0.5,0.6-0.5,1s0.1,0.7,0.3,0.9s0.6,0.4,1.1,0.5l1.5,0.4c0.8,0.2,1.5,0.5,1.9,0.9s0.6,0.9,0.6,1.6c0,0.8-0.3,1.4-1,1.9
			c-0.6,0.5-1.5,0.7-2.6,0.7C222,581.5,220.8,581.1,219.9,580.3z"/>
		<path class="st2" d="M228.8,580.3l0.5-1.1c0.5,0.4,1,0.7,1.5,0.8s1.1,0.3,1.7,0.3c0.7,0,1.2-0.1,1.6-0.4c0.4-0.2,0.5-0.6,0.5-1
			s-0.1-0.6-0.4-0.9c-0.2-0.2-0.6-0.4-1.2-0.5l-1.5-0.4c-0.8-0.2-1.3-0.5-1.8-0.9s-0.6-0.9-0.6-1.5c0-0.8,0.3-1.4,1-1.9
			c0.6-0.5,1.5-0.7,2.5-0.7c0.6,0,1.2,0.1,1.8,0.3s1,0.5,1.4,0.9l-0.5,1.1c-0.9-0.7-1.8-1.1-2.7-1.1c-0.6,0-1.1,0.1-1.5,0.4
			c-0.4,0.2-0.5,0.6-0.5,1s0.1,0.7,0.3,0.9s0.6,0.4,1.1,0.5l1.5,0.4c0.8,0.2,1.5,0.5,1.9,0.9s0.6,0.9,0.6,1.6c0,0.8-0.3,1.4-1,1.9
			c-0.6,0.5-1.5,0.7-2.6,0.7C230.9,581.5,229.7,581.1,228.8,580.3z"/>
		<path class="st2" d="M251.4,575.7v5.7h-1.5v-5.6c0-0.9-0.1-1.5-0.4-1.9c-0.3-0.4-0.8-0.6-1.4-0.6c-0.8,0-1.4,0.3-1.8,0.8
			c-0.4,0.5-0.6,1.2-0.6,2.1v5.2h-1.5v-5.6c0-0.8-0.1-1.5-0.4-1.8c-0.3-0.4-0.8-0.6-1.4-0.6c-0.8,0-1.4,0.3-1.8,0.8
			c-0.4,0.5-0.7,1.2-0.7,2.1v5.2h-1.5V575c0-0.9,0-1.8-0.1-2.5h1.4l0.1,1.6c0.3-0.6,0.6-1,1.1-1.3s1.1-0.5,1.7-0.5
			c0.7,0,1.3,0.1,1.8,0.4s0.8,0.7,1,1.3c0.3-0.5,0.7-1,1.2-1.3s1.1-0.5,1.8-0.5C250.4,572.1,251.4,573.3,251.4,575.7z"/>
		<path class="st2" d="M261.7,576.8h-6.6c0,1.2,0.3,2,0.8,2.6c0.5,0.6,1.3,0.9,2.3,0.9c1.1,0,2-0.4,2.9-1.1l0.5,1.1
			c-0.4,0.4-0.9,0.7-1.5,0.9s-1.3,0.3-1.9,0.3c-1.4,0-2.5-0.4-3.3-1.3c-0.8-0.8-1.2-2-1.2-3.4c0-0.9,0.2-1.7,0.5-2.5
			c0.4-0.7,0.9-1.3,1.5-1.7s1.4-0.6,2.2-0.6c1.2,0,2.1,0.4,2.8,1.2c0.7,0.8,1,1.9,1,3.2V576.8z M256.1,573.9
			c-0.5,0.5-0.8,1.1-0.9,1.9h5.3c-0.1-0.9-0.3-1.5-0.7-1.9c-0.4-0.4-1-0.7-1.8-0.7S256.5,573.4,256.1,573.9z"/>
		<path class="st2" d="M271.7,575.7v5.7h-1.5v-5.6c0-0.8-0.2-1.5-0.5-1.8s-0.9-0.6-1.6-0.6c-0.8,0-1.5,0.3-2,0.8s-0.8,1.2-0.8,2.1
			v5.2h-1.5V575c0-0.9,0-1.8-0.1-2.5h1.4l0.1,1.6c0.3-0.6,0.7-1,1.2-1.4c0.6-0.3,1.2-0.5,1.9-0.5
			C270.6,572.1,271.7,573.3,271.7,575.7z"/>
		<path class="st2" d="M276.4,573.4v5c0,0.7,0.1,1.1,0.4,1.4c0.3,0.3,0.7,0.4,1.2,0.4c0.3,0,0.7-0.1,1-0.2v1.2
			c-0.4,0.1-0.8,0.2-1.3,0.2c-0.9,0-1.5-0.2-2-0.7s-0.7-1.2-0.7-2.2v-5.1h-1.8v-1.2h1.8V570l1.5-0.5v2.8h2.6v1.2L276.4,573.4
			L276.4,573.4z"/>
	</g>
	<rect x="7.2" y="359.5" class="st5" width="125.6" height="40.1"/>
	<g class="st4">
		<path class="st3" d="M21.5,362.1h5.1c1.3,0,2.3,0.3,3.1,1c0.7,0.6,1.1,1.5,1.1,2.6s-0.4,2-1.1,2.6s-1.8,1-3.1,1H23v5.6h-1.5V362.1
			z M26.4,368c0.9,0,1.7-0.2,2.1-0.6s0.7-1,0.7-1.8s-0.2-1.4-0.7-1.8s-1.2-0.6-2.1-0.6h-3.5v4.7L26.4,368L26.4,368z"/>
		<path class="st3" d="M40.7,365.8v9.1h-1.4v-1.6c-0.3,0.6-0.7,1-1.2,1.3s-1.2,0.5-1.9,0.5c-0.8,0-1.5-0.2-2.1-0.6s-1.1-0.9-1.4-1.6
			s-0.5-1.5-0.5-2.5c0-0.9,0.2-1.8,0.5-2.5s0.8-1.3,1.4-1.7c0.6-0.4,1.3-0.6,2.1-0.6c0.7,0,1.3,0.2,1.9,0.5c0.5,0.3,0.9,0.8,1.2,1.3
			v-1.6L40.7,365.8L40.7,365.8z M38.5,372.9c0.5-0.6,0.7-1.5,0.7-2.6s-0.2-2-0.7-2.6s-1.2-0.9-2.1-0.9c-0.9,0-1.6,0.3-2.1,0.9
			s-0.7,1.5-0.7,2.6s0.2,2,0.7,2.6s1.2,0.9,2.1,0.9C37.4,373.8,38,373.5,38.5,372.9z"/>
		<path class="st3" d="M48.5,365.7v1.3c-0.3-0.1-0.6-0.1-1-0.1c-0.9,0-1.5,0.3-2,0.8c-0.4,0.5-0.6,1.2-0.6,2v5.2h-1.5v-6.5
			c0-0.9,0-1.8-0.1-2.5h1.4l0.1,1.7c0.2-0.6,0.6-1.1,1.1-1.4s1.1-0.5,1.7-0.5C48,365.6,48.3,365.6,48.5,365.7z"/>
		<path class="st3" d="M52.7,367v5c0,0.7,0.1,1.1,0.4,1.4c0.3,0.3,0.7,0.4,1.2,0.4c0.3,0,0.7-0.1,1-0.2v1.2
			c-0.4,0.1-0.8,0.2-1.3,0.2c-0.9,0-1.5-0.2-2-0.7s-0.7-1.2-0.7-2.2V367h-1.8v-1.2h1.8v-2.3l1.5-0.5v2.8h2.6v1.2H52.7z"/>
		<path class="st3" d="M64.8,369.2v5.7h-1.5v-5.6c0-0.8-0.2-1.5-0.5-1.8s-0.9-0.6-1.6-0.6c-0.8,0-1.5,0.3-2,0.8s-0.8,1.2-0.8,2.1
			v5.2H57v-6.5c0-0.9,0-1.8-0.1-2.5h1.4l0.1,1.6c0.3-0.6,0.7-1,1.2-1.4c0.6-0.3,1.2-0.5,1.9-0.5C63.7,365.6,64.8,366.8,64.8,369.2z"
			/>
		<path class="st3" d="M75.1,370.3h-6.6c0,1.2,0.3,2,0.8,2.6s1.3,0.9,2.3,0.9c1.1,0,2-0.4,2.9-1.1l0.5,1.1c-0.4,0.4-0.9,0.7-1.5,0.9
			s-1.3,0.3-1.9,0.3c-1.4,0-2.5-0.4-3.3-1.3c-0.8-0.8-1.2-2-1.2-3.4c0-0.9,0.2-1.7,0.5-2.5c0.4-0.7,0.9-1.3,1.5-1.7
			c0.6-0.4,1.4-0.6,2.2-0.6c1.2,0,2.1,0.4,2.8,1.2s1,1.9,1,3.2C75.1,369.9,75.1,370.3,75.1,370.3z M69.5,367.4
			c-0.5,0.5-0.8,1.1-0.9,1.9h5.3c-0.1-0.9-0.3-1.5-0.7-1.9c-0.4-0.4-1-0.7-1.8-0.7S69.9,367,69.5,367.4z"/>
		<path class="st3" d="M82.4,365.7v1.3c-0.3-0.1-0.6-0.1-1-0.1c-0.9,0-1.5,0.3-2,0.8c-0.4,0.5-0.6,1.2-0.6,2v5.2h-1.5v-6.5
			c0-0.9,0-1.8-0.1-2.5h1.4l0.1,1.7c0.2-0.6,0.6-1.1,1.1-1.4s1.1-0.5,1.7-0.5C81.9,365.6,82.1,365.6,82.4,365.7z"/>
		<path class="st3" d="M83.2,373.8l0.5-1.1c0.5,0.4,1,0.7,1.5,0.8c0.5,0.2,1.1,0.3,1.7,0.3c0.7,0,1.2-0.1,1.6-0.4
			c0.4-0.2,0.5-0.6,0.5-1s-0.1-0.6-0.4-0.9c-0.2-0.2-0.6-0.4-1.2-0.5l-1.5-0.4c-0.8-0.2-1.3-0.5-1.8-0.9s-0.6-0.9-0.6-1.5
			c0-0.8,0.3-1.4,1-1.9c0.6-0.5,1.5-0.7,2.5-0.7c0.6,0,1.2,0.1,1.8,0.3s1,0.5,1.4,0.9l-0.5,1.1c-0.9-0.7-1.8-1.1-2.7-1.1
			c-0.6,0-1.1,0.1-1.5,0.4s-0.5,0.6-0.5,1s0.1,0.7,0.3,0.9s0.6,0.4,1.1,0.5l1.5,0.4c0.8,0.2,1.5,0.5,1.9,0.9s0.6,0.9,0.6,1.6
			c0,0.8-0.3,1.4-1,1.9c-0.6,0.5-1.5,0.7-2.6,0.7C85.3,375,84.1,374.6,83.2,373.8z"/>
		<path class="st3" d="M100.5,369.2v5.7H99v-5.6c0-0.8-0.2-1.5-0.5-1.8s-0.9-0.6-1.6-0.6c-0.8,0-1.5,0.3-2,0.8s-0.8,1.2-0.8,2.1v5.2
			h-1.5v-13.2h1.5v5.7c0.3-0.6,0.7-1,1.2-1.3s1.1-0.4,1.8-0.4C99.4,365.6,100.5,366.8,100.5,369.2z"/>
		<path class="st3" d="M104.9,362v1.7h-1.8V362H104.9z M103.2,365.8h1.5v9.1h-1.5V365.8z"/>
		<path class="st3" d="M114.1,366.2c0.6,0.4,1.1,1,1.4,1.7s0.5,1.5,0.5,2.5c0,0.9-0.2,1.8-0.5,2.5s-0.8,1.2-1.4,1.6
			s-1.3,0.6-2.1,0.6c-0.7,0-1.3-0.2-1.9-0.5c-0.5-0.3-0.9-0.8-1.2-1.3v5.6h-1.5v-10.4c0-0.9,0-1.8-0.1-2.5h1.4l0.1,1.7
			c0.3-0.6,0.7-1.1,1.2-1.4s1.2-0.5,1.9-0.5C112.8,365.6,113.5,365.8,114.1,366.2z M113.8,372.9c0.5-0.6,0.7-1.5,0.7-2.6
			s-0.2-2-0.7-2.6s-1.2-0.9-2.1-0.9s-1.6,0.3-2.1,0.9s-0.7,1.5-0.7,2.6s0.2,2,0.7,2.6s1.2,0.9,2.1,0.9
			C112.6,373.8,113.3,373.5,113.8,372.9z"/>
	</g>
	<g class="st4">
		<path class="st3" d="M10.6,383.7h8.1v1.2H12v4.5h6.3v1.2H12v4.7h6.6v1.2h-8.1v-12.8L10.6,383.7L10.6,383.7z"/>
		<path class="st3" d="M20.4,395.4l0.5-1.1c0.5,0.4,1,0.7,1.5,0.8c0.5,0.2,1.1,0.3,1.7,0.3c0.7,0,1.2-0.1,1.6-0.4
			c0.4-0.2,0.5-0.6,0.5-1s-0.1-0.6-0.4-0.9c-0.2-0.2-0.6-0.4-1.2-0.5l-1.5-0.4c-0.8-0.2-1.3-0.5-1.8-0.9s-0.6-0.9-0.6-1.5
			c0-0.8,0.3-1.4,1-1.9c0.6-0.5,1.5-0.7,2.5-0.7c0.6,0,1.2,0.1,1.8,0.3s1,0.5,1.4,0.9l-0.5,1.1c-0.9-0.7-1.8-1.1-2.7-1.1
			c-0.6,0-1.1,0.1-1.5,0.4s-0.5,0.6-0.5,1s0.1,0.7,0.3,0.9s0.6,0.4,1.1,0.5l1.5,0.4c0.8,0.2,1.5,0.5,1.9,0.9s0.6,0.9,0.6,1.6
			c0,0.8-0.3,1.4-1,1.9c-0.6,0.5-1.5,0.7-2.6,0.7C22.5,396.6,21.3,396.2,20.4,395.4z"/>
		<path class="st3" d="M31.7,388.6v5c0,0.7,0.1,1.1,0.4,1.4c0.3,0.3,0.7,0.4,1.2,0.4c0.3,0,0.7-0.1,1-0.2v1.2
			c-0.4,0.1-0.8,0.2-1.3,0.2c-0.9,0-1.5-0.2-2-0.7s-0.7-1.2-0.7-2.2v-5.1h-1.8v-1.2h1.8v-2.3l1.5-0.5v2.8h2.6v1.2L31.7,388.6
			L31.7,388.6z"/>
		<path class="st3" d="M44.1,387.4v9.1h-1.4v-1.6c-0.3,0.6-0.7,1-1.2,1.3s-1.2,0.5-1.9,0.5c-0.8,0-1.5-0.2-2.1-0.6s-1.1-0.9-1.4-1.6
			s-0.5-1.5-0.5-2.5c0-0.9,0.2-1.8,0.5-2.5s0.8-1.3,1.4-1.7c0.6-0.4,1.3-0.6,2.1-0.6c0.7,0,1.3,0.2,1.9,0.5c0.5,0.3,0.9,0.8,1.2,1.3
			v-1.6L44.1,387.4L44.1,387.4z M41.9,394.5c0.5-0.6,0.7-1.5,0.7-2.6s-0.2-2-0.7-2.6s-1.2-0.9-2.1-0.9c-0.9,0-1.6,0.3-2.1,0.9
			s-0.7,1.5-0.7,2.6s0.2,2,0.7,2.6s1.2,0.9,2.1,0.9S41.4,395.1,41.9,394.5z"/>
		<path class="st3" d="M53.5,387.8c0.6,0.4,1.1,0.9,1.4,1.6c0.3,0.7,0.5,1.5,0.5,2.5c0,0.9-0.2,1.8-0.5,2.5s-0.8,1.3-1.4,1.7
			c-0.6,0.4-1.3,0.6-2.1,0.6c-0.7,0-1.3-0.2-1.9-0.5c-0.5-0.3-0.9-0.8-1.2-1.3v1.7h-1.5v-13.2h1.5v5.8c0.3-0.6,0.7-1,1.2-1.3
			s1.2-0.5,1.9-0.5C52.2,387.2,52.9,387.4,53.5,387.8z M53.2,394.5c0.5-0.6,0.7-1.5,0.7-2.6s-0.2-1.9-0.7-2.5s-1.2-0.9-2.1-0.9
			c-0.9,0-1.6,0.3-2.1,0.9s-0.7,1.5-0.7,2.6s0.2,2,0.7,2.6s1.2,0.9,2.1,0.9C52,395.4,52.7,395.1,53.2,394.5z"/>
		<path class="st3" d="M57.7,383.2h1.5v13.2h-1.5V383.2z"/>
		<path class="st3" d="M63.6,383.6v1.7h-1.8v-1.7H63.6z M62,387.4h1.5v9.1H62V387.4z"/>
		<path class="st3" d="M65.7,395.4l0.5-1.1c0.5,0.4,1,0.7,1.5,0.8c0.5,0.2,1.1,0.3,1.7,0.3c0.7,0,1.2-0.1,1.6-0.4
			c0.4-0.2,0.5-0.6,0.5-1s-0.1-0.6-0.4-0.9c-0.2-0.2-0.6-0.4-1.2-0.5l-1.5-0.4c-0.8-0.2-1.3-0.5-1.8-0.9s-0.6-0.9-0.6-1.5
			c0-0.8,0.3-1.4,1-1.9c0.6-0.5,1.5-0.7,2.5-0.7c0.6,0,1.2,0.1,1.8,0.3s1,0.5,1.4,0.9l-0.5,1.1c-0.9-0.7-1.8-1.1-2.7-1.1
			c-0.6,0-1.1,0.1-1.5,0.4s-0.5,0.6-0.5,1s0.1,0.7,0.3,0.9s0.6,0.4,1.1,0.5l1.5,0.4c0.8,0.2,1.5,0.5,1.9,0.9s0.6,0.9,0.6,1.6
			c0,0.8-0.3,1.4-1,1.9c-0.6,0.5-1.5,0.7-2.6,0.7C67.8,396.6,66.6,396.2,65.7,395.4z"/>
		<path class="st3" d="M83,390.8v5.7h-1.5v-5.6c0-0.8-0.2-1.5-0.5-1.8s-0.9-0.6-1.6-0.6c-0.8,0-1.5,0.3-2,0.8s-0.8,1.2-0.8,2.1v5.2
			h-1.5v-13.2h1.5v5.7c0.3-0.6,0.7-1,1.2-1.3s1.1-0.4,1.8-0.4C81.9,387.2,83,388.4,83,390.8z"/>
		<path class="st3" d="M98.8,390.8v5.7h-1.5v-5.6c0-0.9-0.1-1.5-0.4-1.9s-0.8-0.6-1.4-0.6c-0.8,0-1.4,0.3-1.8,0.8s-0.6,1.2-0.6,2.1
			v5.2h-1.5v-5.6c0-0.8-0.1-1.5-0.4-1.8c-0.3-0.4-0.8-0.6-1.4-0.6c-0.8,0-1.4,0.3-1.8,0.8s-0.7,1.2-0.7,2.1v5.2h-1.5V390
			c0-0.9,0-1.8-0.1-2.5H87l0.1,1.6c0.3-0.6,0.6-1,1.1-1.3s1.1-0.5,1.7-0.5c0.7,0,1.3,0.1,1.8,0.4s0.8,0.7,1,1.3
			c0.3-0.5,0.7-1,1.2-1.3s1.1-0.5,1.8-0.5C97.8,387.2,98.8,388.4,98.8,390.8z"/>
		<path class="st3" d="M109.1,391.9h-6.6c0,1.2,0.3,2,0.8,2.6s1.3,0.9,2.3,0.9c1.1,0,2-0.4,2.9-1.1l0.5,1.1
			c-0.4,0.4-0.9,0.7-1.5,0.9s-1.3,0.3-1.9,0.3c-1.4,0-2.5-0.4-3.3-1.3c-0.8-0.8-1.2-2-1.2-3.4c0-0.9,0.2-1.7,0.5-2.5
			c0.4-0.7,0.9-1.3,1.5-1.7c0.6-0.4,1.4-0.6,2.2-0.6c1.2,0,2.1,0.4,2.8,1.2s1,1.9,1,3.2C109.1,391.5,109.1,391.9,109.1,391.9z
			 M103.4,389c-0.5,0.5-0.8,1.1-0.9,1.9h5.3c-0.1-0.9-0.3-1.5-0.7-1.9c-0.4-0.4-1-0.7-1.8-0.7S103.9,388.6,103.4,389z"/>
		<path class="st3" d="M119.1,390.8v5.7h-1.5v-5.6c0-0.8-0.2-1.5-0.5-1.8s-0.9-0.6-1.6-0.6c-0.8,0-1.5,0.3-2,0.8s-0.8,1.2-0.8,2.1
			v5.2h-1.5V390c0-0.9,0-1.8-0.1-2.5h1.4l0.1,1.6c0.3-0.6,0.7-1,1.2-1.4c0.6-0.3,1.2-0.5,1.9-0.5C118,387.2,119.1,388.4,119.1,390.8
			z"/>
		<path class="st3" d="M123.8,388.6v5c0,0.7,0.1,1.1,0.4,1.4s0.7,0.4,1.2,0.4c0.3,0,0.7-0.1,1-0.2v1.2c-0.4,0.1-0.8,0.2-1.3,0.2
			c-0.9,0-1.5-0.2-2-0.7s-0.7-1.2-0.7-2.2v-5.1h-1.8v-1.2h1.8v-2.3l1.5-0.5v2.8h2.6v1.2L123.8,388.6L123.8,388.6z"/>
	</g>
	<rect x="1.7" y="544.4" class="st5" width="136.7" height="40.1"/>
	<g class="st4">
		<path class="st2" d="M28.9,546.9h7.9v1.2h-6.5v4.4h6.1v1.2h-6.1v5.9h-1.5v-12.7L28.9,546.9L28.9,546.9z"/>
		<path class="st2" d="M46.2,555.2h-6.6c0,1.2,0.3,2,0.8,2.6s1.3,0.9,2.3,0.9c1.1,0,2-0.4,2.9-1.1l0.5,1.1c-0.4,0.4-0.9,0.7-1.5,0.9
			s-1.3,0.3-1.9,0.3c-1.4,0-2.5-0.4-3.3-1.3c-0.8-0.8-1.2-2-1.2-3.4c0-0.9,0.2-1.7,0.5-2.5c0.4-0.7,0.9-1.3,1.5-1.7s1.4-0.6,2.2-0.6
			c1.2,0,2.1,0.4,2.8,1.2s1,1.9,1,3.2V555.2z M40.5,552.3c-0.5,0.5-0.8,1.1-0.9,1.9h5.3c-0.1-0.9-0.3-1.5-0.7-1.9s-1-0.7-1.8-0.7
			S41,551.9,40.5,552.3z"/>
		<path class="st2" d="M56.4,546.5v13.2H55v-1.6c-0.3,0.6-0.7,1-1.2,1.3s-1.2,0.5-1.9,0.5c-0.8,0-1.5-0.2-2.1-0.6
			c-0.6-0.4-1.1-1-1.4-1.7c-0.3-0.7-0.5-1.5-0.5-2.5c0-0.9,0.2-1.8,0.5-2.5s0.8-1.2,1.4-1.6c0.6-0.4,1.3-0.6,2.1-0.6
			c0.7,0,1.3,0.2,1.9,0.5c0.5,0.3,0.9,0.7,1.2,1.3v-5.7L56.4,546.5L56.4,546.5z M54.3,557.8c0.5-0.6,0.7-1.5,0.7-2.6s-0.2-2-0.7-2.6
			s-1.2-0.9-2.1-0.9c-0.9,0-1.6,0.3-2.1,0.9c-0.5,0.6-0.7,1.4-0.7,2.5s0.2,2,0.7,2.6s1.2,0.9,2.1,0.9
			C53.1,558.7,53.8,558.4,54.3,557.8z"/>
		<path class="st2" d="M69.5,559.8h-1.6l-1.6-4.3c-0.2-0.5-0.5-0.9-0.8-1.1c-0.3-0.2-0.8-0.3-1.4-0.3h-3.2v5.6h-1.5v-12.8h5.1
			c1.4,0,2.4,0.3,3.2,0.9c0.7,0.6,1.1,1.5,1.1,2.6c0,0.8-0.2,1.5-0.7,2.1c-0.4,0.6-1.1,1-1.9,1.2c0.4,0.1,0.7,0.2,1,0.5
			s0.5,0.6,0.7,1.1L69.5,559.8z M64.4,552.9c2,0,3-0.8,3-2.4c0-0.8-0.2-1.4-0.7-1.8c-0.5-0.4-1.2-0.6-2.2-0.6H61v4.8H64.4z"/>
		<path class="st2" d="M80.2,556.5h-6.7l-1.4,3.3h-1.5l5.6-12.8h1.3l5.6,12.8h-1.5L80.2,556.5z M79.7,555.2l-2.8-6.6l-2.8,6.6H79.7z
			"/>
		<path class="st2" d="M97.1,546.9v12.8h-1.4v-9.5l-4.2,9.5h-1l-4.2-9.5v9.5H85v-12.8h1.2l4.9,11.1l4.8-11.1H97.1z"/>
		<path class="st2" d="M100.3,546.9h5.1c1.3,0,2.3,0.3,3.1,1c0.7,0.6,1.1,1.5,1.1,2.6s-0.4,2-1.1,2.6s-1.8,1-3.1,1h-3.6v5.6h-1.5
			V546.9z M105.3,552.9c0.9,0,1.7-0.2,2.1-0.6s0.7-1,0.7-1.8s-0.2-1.4-0.7-1.8c-0.5-0.4-1.2-0.6-2.1-0.6h-3.5v4.7L105.3,552.9
			L105.3,552.9z"/>
	</g>
	<g class="st4">
		<path class="st2" d="M38.6,580.7c-0.9-0.5-1.6-1.3-2.1-2.3s-0.7-2.2-0.7-3.5s0.2-2.5,0.7-3.5s1.2-1.7,2.1-2.3s1.9-0.8,3.2-0.8
			c0.9,0,1.7,0.1,2.4,0.4c0.7,0.3,1.4,0.7,1.9,1.2l-0.6,1.1c-0.6-0.5-1.2-0.9-1.8-1.1c-0.6-0.2-1.3-0.3-2-0.3
			c-1.4,0-2.5,0.5-3.3,1.4s-1.2,2.2-1.2,3.9s0.4,3,1.2,3.9s1.9,1.4,3.3,1.4c0.7,0,1.4-0.1,2-0.3s1.2-0.6,1.8-1.1l0.6,1.1
			c-0.5,0.5-1.2,0.9-1.9,1.2s-1.6,0.4-2.4,0.4C40.5,581.5,39.5,581.2,38.6,580.7z"/>
		<path class="st2" d="M49.7,580.9c-0.6-0.4-1.1-0.9-1.5-1.6s-0.5-1.5-0.5-2.5c0-0.9,0.2-1.8,0.5-2.5s0.9-1.3,1.5-1.6
			c0.6-0.4,1.4-0.6,2.2-0.6s1.6,0.2,2.2,0.6c0.6,0.4,1.1,0.9,1.5,1.6s0.5,1.5,0.5,2.5c0,0.9-0.2,1.8-0.5,2.5s-0.9,1.3-1.5,1.6
			c-0.6,0.4-1.4,0.6-2.2,0.6S50.4,581.3,49.7,580.9z M54,579.4c0.5-0.6,0.7-1.5,0.7-2.6s-0.2-2-0.7-2.6s-1.2-0.9-2.1-0.9
			c-0.9,0-1.6,0.3-2.1,0.9c-0.5,0.6-0.7,1.5-0.7,2.6s0.2,2,0.7,2.6s1.2,0.9,2.1,0.9S53.6,580,54,579.4z"/>
		<path class="st2" d="M66.3,575.7v5.7h-1.5v-5.6c0-0.8-0.2-1.5-0.5-1.8s-0.9-0.6-1.6-0.6c-0.8,0-1.5,0.3-2,0.8s-0.8,1.2-0.8,2.1
			v5.2h-1.5V575c0-0.9,0-1.8-0.1-2.5h1.4l0.1,1.6c0.3-0.6,0.7-1,1.2-1.4c0.6-0.3,1.2-0.5,1.9-0.5C65.2,572.1,66.3,573.3,66.3,575.7z
			"/>
		<path class="st2" d="M76.8,575.7v5.7h-1.5v-5.6c0-0.8-0.2-1.5-0.5-1.8s-0.9-0.6-1.6-0.6c-0.8,0-1.5,0.3-2,0.8s-0.8,1.2-0.8,2.1
			v5.2h-1.5V575c0-0.9,0-1.8-0.1-2.5h1.4l0.1,1.6c0.3-0.6,0.7-1,1.2-1.4c0.6-0.3,1.2-0.5,1.9-0.5C75.7,572.1,76.8,573.3,76.8,575.7z
			"/>
		<path class="st2" d="M87.2,576.8h-6.6c0,1.2,0.3,2,0.8,2.6s1.3,0.9,2.3,0.9c1.1,0,2-0.4,2.9-1.1l0.5,1.1c-0.4,0.4-0.9,0.7-1.5,0.9
			s-1.3,0.3-1.9,0.3c-1.4,0-2.5-0.4-3.3-1.3c-0.8-0.8-1.2-2-1.2-3.4c0-0.9,0.2-1.7,0.5-2.5c0.4-0.7,0.9-1.3,1.5-1.7s1.4-0.6,2.2-0.6
			c1.2,0,2.1,0.4,2.8,1.2s1,1.9,1,3.2C87.2,576.4,87.2,576.8,87.2,576.8z M81.5,573.9c-0.5,0.5-0.8,1.1-0.9,1.9h5.3
			c-0.1-0.9-0.3-1.5-0.7-1.9c-0.4-0.4-1-0.7-1.8-0.7S82,573.5,81.5,573.9z"/>
		<path class="st2" d="M90.9,580.9c-0.7-0.4-1.2-0.9-1.5-1.6s-0.5-1.5-0.5-2.5c0-0.9,0.2-1.8,0.5-2.5c0.4-0.7,0.9-1.3,1.5-1.7
			c0.7-0.4,1.4-0.6,2.3-0.6c0.6,0,1.2,0.1,1.8,0.3s1,0.5,1.4,0.9l-0.5,1.1c-0.5-0.4-0.9-0.6-1.3-0.8s-0.9-0.3-1.3-0.3
			c-0.9,0-1.7,0.3-2.2,0.9c-0.5,0.6-0.8,1.5-0.8,2.6s0.3,1.9,0.8,2.5s1.3,0.9,2.2,0.9c0.4,0,0.9-0.1,1.3-0.3s0.9-0.4,1.3-0.8
			l0.5,1.1c-0.4,0.4-0.9,0.6-1.4,0.9c-0.6,0.2-1.2,0.3-1.8,0.3C92.3,581.5,91.5,581.3,90.9,580.9z"/>
		<path class="st2" d="M100.2,573.5v5c0,0.7,0.1,1.1,0.4,1.4c0.3,0.3,0.7,0.4,1.2,0.4c0.3,0,0.7-0.1,1-0.2v1.2
			c-0.4,0.1-0.8,0.2-1.3,0.2c-0.9,0-1.5-0.2-2-0.7s-0.7-1.2-0.7-2.2v-5.1H97v-1.2h1.8V570l1.5-0.5v2.8h2.6v1.2H100.2z"/>
	</g>
	<rect x="0.1" y="9" class="st6" width="91.4" height="1"/>
	<rect x="210.2" y="9" class="st6" width="91.4" height="1"/>
	<g class="st4">
		<path class="st2" d="M119.5,8.1c0,3.1-2.3,5.1-6,5.1h-2.8V17h-3.2V3h6C117.1,3,119.5,4.9,119.5,8.1z M116.2,8.1c0-1.5-1-2.4-3-2.4
			h-2.6v4.9h2.6C115.2,10.5,116.2,9.6,116.2,8.1z"/>
		<path class="st2" d="M134.5,3v14h-3.2v-5.7H125V17h-3.2V3h3.2v5.5h6.3V3H134.5z"/>
		<path class="st2" d="M147,14h-6.5l-1.2,3H136l6.2-14h3.2l6.2,14h-3.4L147,14z M146,11.5l-2.2-5.4l-2.2,5.4H146z"/>
		<path class="st2" d="M151.9,15.6l1.1-2.4c1.2,0.9,2.9,1.5,4.6,1.5c1.9,0,2.7-0.6,2.7-1.5c0-2.6-8.1-0.8-8.1-6
			c0-2.4,1.9-4.4,5.9-4.4c1.7,0,3.5,0.4,4.8,1.2l-1,2.5c-1.3-0.7-2.6-1.1-3.9-1.1c-1.9,0-2.6,0.7-2.6,1.6c0,2.6,8.1,0.8,8.1,5.9
			c0,2.3-1.9,4.3-5.9,4.3C155.4,17.2,153.2,16.6,151.9,15.6z"/>
		<path class="st2" d="M176.5,14.4V17h-10.8V3h10.5v2.6h-7.3v3h6.5v2.5h-6.5v3.2L176.5,14.4L176.5,14.4z"/>
		<path class="st2" d="M189.2,3v14H186V5.6h-2.8V3H189.2z"/>
	</g>
	<rect x="0.1" y="302.6" class="st6" width="91.4" height="1"/>
	<rect x="210.2" y="302.6" class="st6" width="91.4" height="1"/>
	<g class="st4">
		<path class="st2" d="M117.5,303.7c0,3.1-2.3,5.1-6,5.1h-2.8v3.9h-3.2v-14h6C115.2,298.6,117.5,300.5,117.5,303.7z M114.2,303.7
			c0-1.5-1-2.4-3-2.4h-2.6v4.9h2.6C113.3,306.1,114.2,305.2,114.2,303.7z"/>
		<path class="st2" d="M132.5,298.6v14h-3.2v-5.7H123v5.7h-3.2v-14h3.2v5.5h6.3v-5.5H132.5z"/>
		<path class="st2" d="M145,309.6h-6.5l-1.2,3H134l6.2-14h3.2l6.2,14h-3.4L145,309.6z M144,307.1l-2.2-5.4l-2.2,5.4H144z"/>
		<path class="st2" d="M150,311.2l1.1-2.4c1.2,0.9,2.9,1.5,4.6,1.5c1.9,0,2.7-0.6,2.7-1.5c0-2.6-8.1-0.8-8.1-6
			c0-2.4,1.9-4.4,5.9-4.4c1.7,0,3.5,0.4,4.8,1.2l-1,2.5c-1.3-0.7-2.6-1.1-3.9-1.1c-1.9,0-2.6,0.7-2.6,1.6c0,2.6,8.1,0.8,8.1,5.9
			c0,2.3-1.9,4.3-5.9,4.3C153.4,312.8,151.2,312.1,150,311.2z"/>
		<path class="st2" d="M174.5,310v2.6h-10.8v-14h10.5v2.6h-7.3v3h6.5v2.5h-6.5v3.2L174.5,310L174.5,310z"/>
		<path class="st2" d="M192.2,309.9v2.6h-10.5v-2.1l5.4-5.1c1.2-1.2,1.5-1.9,1.5-2.6c0-1.1-0.8-1.7-2.2-1.7c-1.2,0-2.2,0.5-2.9,1.4
			l-2.3-1.5c1.1-1.6,3-2.6,5.5-2.6c3.1,0,5.2,1.6,5.2,4.1c0,1.4-0.4,2.6-2.3,4.4l-3.2,3h5.8V309.9z"/>
	</g>
	<g class="st4">
		<path class="st2" d="M117.5,676.7c0,3.1-2.3,5.1-6,5.1h-2.8v3.9h-3.2v-14h6C115.2,671.6,117.5,673.5,117.5,676.7z M114.2,676.7
			c0-1.5-1-2.4-3-2.4h-2.6v4.9h2.6C113.2,679.1,114.2,678.2,114.2,676.7z"/>
		<path class="st2" d="M132.5,671.6v14h-3.2v-5.7H123v5.7h-3.2v-14h3.2v5.5h6.3v-5.5H132.5z"/>
		<path class="st2" d="M145,682.6h-6.5l-1.2,3H134l6.2-14h3.2l6.2,14h-3.4L145,682.6z M144,680.1l-2.2-5.4l-2.2,5.4H144z"/>
		<path class="st2" d="M150,684.2l1.1-2.4c1.2,0.9,2.9,1.5,4.6,1.5c1.9,0,2.7-0.6,2.7-1.5c0-2.6-8.1-0.8-8.1-6
			c0-2.4,1.9-4.4,5.9-4.4c1.7,0,3.5,0.4,4.8,1.2l-1,2.5c-1.3-0.7-2.6-1.1-3.9-1.1c-1.9,0-2.6,0.7-2.6,1.6c0,2.6,8.1,0.8,8.1,5.9
			c0,2.3-1.9,4.3-5.9,4.3C153.4,685.8,151.2,685.1,150,684.2z"/>
		<path class="st2" d="M174.5,683v2.6h-10.8v-14h10.5v2.6h-7.3v3h6.5v2.5h-6.5v3.2h7.6V683z"/>
		<path class="st2" d="M192.1,681.3c0,2.4-1.8,4.5-5.8,4.5c-1.9,0-4-0.5-5.3-1.5l1.3-2.5c1.1,0.8,2.5,1.3,4,1.3
			c1.6,0,2.6-0.7,2.6-1.8s-0.8-1.7-2.6-1.7h-1.5v-2.1l2.9-3.3h-5.9v-2.6h9.7v2.1l-3.1,3.6C190.8,677.7,192.1,679.2,192.1,681.3z"/>
	</g>
	<rect x="0.1" y="678.1" class="st6" width="91.4" height="1"/>
	<rect x="210.2" y="678.1" class="st6" width="91.4" height="1"/>
	<rect x="0.1" y="1078.1" class="st6" width="91.4" height="1"/>
	<rect x="210.2" y="1076.1" class="st6" width="91.4" height="1"/>
	<g class="st4">
		<path class="st2" d="M117.5,1077.2c0,3.1-2.3,5.1-6,5.1h-2.8v3.9h-3.2v-14h6C115.1,1072.1,117.5,1074.1,117.5,1077.2z
			 M114.2,1077.2c0-1.5-1-2.4-3-2.4h-2.6v4.9h2.6C113.2,1079.6,114.2,1078.7,114.2,1077.2z"/>
		<path class="st2" d="M132.5,1072.1v14h-3.2v-5.7H123v5.7h-3.2v-14h3.2v5.5h6.3v-5.5H132.5z"/>
		<path class="st2" d="M145,1083.1h-6.5l-1.2,3H134l6.2-14h3.2l6.2,14h-3.4L145,1083.1z M143.9,1080.7l-2.2-5.4l-2.2,5.4H143.9z"/>
		<path class="st2" d="M149.9,1084.7l1.1-2.4c1.2,0.9,2.9,1.5,4.6,1.5c1.9,0,2.7-0.6,2.7-1.5c0-2.6-8.1-0.8-8.1-6
			c0-2.4,1.9-4.4,5.9-4.4c1.7,0,3.5,0.4,4.8,1.2l-1,2.5c-1.3-0.7-2.6-1.1-3.9-1.1c-1.9,0-2.6,0.7-2.6,1.6c0,2.6,8.1,0.8,8.1,5.9
			c0,2.3-1.9,4.3-5.9,4.3C153.4,1086.4,151.2,1085.7,149.9,1084.7z"/>
		<path class="st2" d="M174.5,1083.5v2.6h-10.8v-14h10.5v2.6h-7.3v3h6.5v2.5h-6.5v3.2h7.6V1083.5z"/>
		<path class="st2" d="M194.5,1083.2h-2.3v2.9h-3.1v-2.9h-7.5v-2.2l6.6-8.9h3.4l-6.1,8.4h3.7v-2.6h3v2.6h2.3L194.5,1083.2
			L194.5,1083.2z"/>
	</g>
</g>
</svg>
