<?xml version="1.0" encoding="utf-8"?>
<!-- Generator: Adobe Illustrator 24.2.3, SVG Export Plug-In . SVG Version: 6.00 Build 0)  -->
<svg version="1.1" id="Layer_1" xmlns="http://www.w3.org/2000/svg" xmlns:xlink="http://www.w3.org/1999/xlink" x="0px" y="0px"
	 viewBox="0 0 302 1381" style="enable-background:new 0 0 302 1381;" xml:space="preserve">
<style type="text/css">
	.st0{display:none;}
	.st1{display:inline;fill:#F2F2F2;}
	.st2{fill:#FFFFFF;}
	.st3{fill:#0A90B7;}
	.st4{fill:#FFFFFF;stroke:#1A4480;stroke-width:0.5;}
	.st5{fill:#FFFFFF;stroke:#C71F25;stroke-width:0.5;}
	.st6{enable-background:new    ;}
	.st7{fill:#CC1D1D;}
	.st8{fill:none;stroke:#1A4480;stroke-width:1.1554;}
	.st9{fill:none;stroke:#CC1D1D;stroke-width:1.1554;}
	.st10{fill:#1A4480;}
	.st11{fill:none;}
	.st12{fill:#333333;}
	.st13{fill:#454545;}
	.st14{fill:none;stroke:#D0D0D0;stroke-width:0.9961;}
	.st15{fill:#C71F25;}
</style>
<g id="Layer_2_1_" class="st0">
	<rect x="-2423" y="-184" class="st1" width="2787" height="1656"/>
</g>
<g id="Layer_4">
	<path id="Path_11101_3_" class="st2" d="M284.2,1375.3H0.4l16.5-29.8l-16.5-29.9h283.7l17.8,29.9L284.2,1375.3z"/>
	<path id="Path_11100_2_" class="st3" d="M288.5,168.1H0v-59.7h288.5l13.1,29.9L288.5,168.1z"/>
	<path id="Path_11287_3_" class="st3" d="M288.7,486.6H0.3l12.6-29.8L0.3,426.9h288.3l12.6,29.9L288.7,486.6z"/>
	<path id="Path_11287-2_1_" class="st3" d="M288.7,823.3H0.3l12.6-29.8L0.3,763.6h288.3l12.6,29.9L288.7,823.3z"/>
	<path id="Path_11287-3" class="st3" d="M288.7,1136.8H0.3l12.6-29.8l-12.6-29.9h288.3l12.6,29.9L288.7,1136.8z"/>
	<path id="Path_11341_3_" class="st3" d="M11.4,1370.9H7.7l1.4-2.9l9.4-20.2l1.1-2.4l-1.1-2.4l-9.4-20.3l-1.4-2.9H38v-4.3H0.4
		l13.5,29.1l0.4,0.8l-0.4,0.8l-13.5,29l226.7-0.3v6.1l12.5-8.1l-12.5-8.1v5.9L11.4,1370.9L11.4,1370.9z"/>
	<path id="Path_11342_3_" class="st3" d="M226.9,1368.6v-3.7l12.5,8.1l-12.5,8.1v-6.1l-226.5,0.2l13.5-29l0.4-0.8l-0.4-0.8
		l-13.5-29.1H38v4.3H7.7l1.4,2.9l9.4,20.3l1.1,2.4l-1.1,2.4L9.1,1368l-1.4,2.9l219.2-0.2V1368.6z"/>
	<path id="Path_11343_3_" class="st3" d="M287.2,1375.2h-36.7v-4.3H284l0.6-1.3l11.6-23.4l0.4-0.9l-0.4-0.9l-11.6-23.5l-0.6-1.3
		l-221.6-0.1v6l-12.4-8.1l12.4-8.1v5.9l224.7,0.1l14.8,29.9L287.2,1375.2z"/>
</g>
<g id="Layer_3">
	<polygon class="st4" points="140,333.2 8.2,333.2 8.2,397.9 55.8,397.9 74.1,417.1 92.4,397.9 140,397.9 	"/>
	<polygon class="st5" points="92.4,512.9 74.2,493.7 55.8,512.9 8.2,512.9 8.2,579.6 140,579.6 140,512.9 	"/>
	<polygon class="st4" points="295.6,333.6 163.8,333.6 163.8,398.3 211.8,398.3 230.1,417.5 248.4,398.3 295.6,398.3 	"/>
	<polygon class="st5" points="248.4,513.3 230.1,494.1 211.8,513.3 163.8,513.3 163.8,580 295.6,580 295.6,513.3 	"/>
	<g class="st6">
		<path class="st2" d="M46.6,144l1-2.2c0.9,0.6,2.2,1,3.5,1c1.2,0,1.7-0.3,1.7-0.9c0-1.7-6-0.4-6-4.3c0-1.9,1.5-3.4,4.6-3.4
			c1.4,0,2.8,0.3,3.8,0.9l-0.9,2.2c-1-0.5-2-0.8-2.9-0.8c-1.2,0-1.7,0.4-1.7,0.9c0,1.6,5.9,0.4,5.9,4.3c0,1.8-1.5,3.4-4.6,3.4
			C49.3,145.2,47.6,144.7,46.6,144z"/>
		<path class="st2" d="M65.2,141.6h-5.9c0.2,0.8,0.9,1.3,2,1.3c0.8,0,1.3-0.2,1.9-0.7l1.5,1.6c-0.8,0.9-1.9,1.3-3.5,1.3
			c-2.9,0-4.8-1.8-4.8-4.2c0-2.4,1.9-4.2,4.5-4.2c2.4,0,4.3,1.5,4.3,4.2C65.2,141.1,65.2,141.4,65.2,141.6z M59.2,140.1h3.3
			c-0.1-0.9-0.8-1.4-1.7-1.4C60,138.7,59.4,139.3,59.2,140.1z"/>
		<path class="st2" d="M66.5,133.8h2.8V145h-2.8V133.8z"/>
		<path class="st2" d="M79.5,141.6h-5.9c0.2,0.8,0.9,1.3,2,1.3c0.8,0,1.3-0.2,1.9-0.7l1.5,1.6c-0.8,0.9-1.9,1.3-3.5,1.3
			c-2.9,0-4.8-1.8-4.8-4.2c0-2.4,1.9-4.2,4.5-4.2c2.4,0,4.3,1.5,4.3,4.2C79.5,141.1,79.5,141.4,79.5,141.6z M73.5,140.1h3.3
			c-0.1-0.9-0.8-1.4-1.7-1.4C74.3,138.7,73.7,139.3,73.5,140.1z"/>
		<path class="st2" d="M80.3,140.9c0-2.4,1.9-4.2,4.7-4.2c1.8,0,3.3,0.8,3.8,2.2l-2.2,1.1c-0.4-0.8-1-1.1-1.6-1.1
			c-1,0-1.8,0.7-1.8,1.9c0,1.3,0.8,1.9,1.8,1.9c0.7,0,1.2-0.3,1.6-1.1l2.2,1.1c-0.6,1.4-2,2.2-3.8,2.2
			C82.3,145.1,80.3,143.4,80.3,140.9z"/>
		<path class="st2" d="M95.6,144.6c-0.5,0.3-1.2,0.5-2,0.5c-2.1,0-3.3-1-3.3-3.1v-2.7h-1.2v-2.1h1.2V135h2.8v2.1H95v2.1h-1.9v2.7
			c0,0.6,0.3,0.9,0.9,0.9c0.3,0,0.6-0.1,0.9-0.3L95.6,144.6z"/>
		<path class="st2" d="M108.2,142.9h-4.4l-0.8,2h-3l4.6-10.5h2.9l4.6,10.5h-3.1L108.2,142.9z M107.4,140.7l-1.3-3.4l-1.3,3.4H107.4z
			"/>
		<path class="st2" d="M121.2,136.8v8.1h-2.7v-0.9c-0.6,0.7-1.5,1-2.4,1c-2,0-3.4-1.1-3.4-3.7v-4.5h2.8v4.1c0,1.3,0.5,1.8,1.3,1.8
			c0.8,0,1.5-0.6,1.5-1.9v-3.9H121.2z"/>
		<path class="st2" d="M128.7,144.6c-0.5,0.3-1.2,0.5-2,0.5c-2.1,0-3.3-1-3.3-3.1v-2.7h-1.2v-2.1h1.2V135h2.8v2.1h1.9v2.1h-1.9v2.7
			c0,0.6,0.3,0.9,0.9,0.9c0.3,0,0.6-0.1,0.9-0.3L128.7,144.6z"/>
		<path class="st2" d="M138.4,140.3v4.6h-2.8v-4.2c0-1.2-0.5-1.7-1.3-1.7c-0.9,0-1.6,0.6-1.6,1.9v3.9h-2.8v-11.1h2.8v3.7
			c0.6-0.6,1.5-0.9,2.4-0.9C136.9,136.7,138.4,137.8,138.4,140.3z"/>
		<path class="st2" d="M139.8,140.9c0-2.4,1.9-4.2,4.6-4.2c2.7,0,4.6,1.7,4.6,4.2c0,2.5-1.9,4.2-4.6,4.2
			C141.7,145.1,139.8,143.3,139.8,140.9z M146.1,140.9c0-1.2-0.7-1.9-1.7-1.9c-1,0-1.7,0.7-1.7,1.9c0,1.2,0.7,1.9,1.7,1.9
			C145.3,142.8,146.1,142.1,146.1,140.9z"/>
		<path class="st2" d="M155.7,136.7v2.6c-0.3,0-0.4,0-0.6,0c-1.2,0-1.9,0.6-1.9,2v3.7h-2.8v-8.1h2.7v1
			C153.6,137.1,154.5,136.7,155.7,136.7z"/>
		<path class="st2" d="M156.6,134.4c0-0.9,0.7-1.5,1.7-1.5s1.7,0.6,1.7,1.5c0,0.9-0.7,1.6-1.7,1.6S156.6,135.3,156.6,134.4z
			 M156.9,136.8h2.8v8.1h-2.8V136.8z"/>
		<path class="st2" d="M168.6,142.8v2.1h-7.5v-1.7l3.8-4.3h-3.7v-2.1h7.2v1.7l-3.8,4.3H168.6z"/>
		<path class="st2" d="M177.5,140.4v4.5h-2.7v-1c-0.4,0.8-1.2,1.2-2.4,1.2c-1.9,0-3-1.1-3-2.5c0-1.5,1.1-2.4,3.6-2.4h1.6
			c0-0.8-0.6-1.3-1.7-1.3c-0.8,0-1.6,0.3-2.2,0.7l-1-1.9c0.9-0.6,2.3-0.9,3.6-0.9C176,136.7,177.5,137.9,177.5,140.4z M174.7,142.4
			v-0.7h-1.2c-0.9,0-1.2,0.3-1.2,0.8c0,0.5,0.4,0.8,1.1,0.8C173.9,143.3,174.4,143,174.7,142.4z"/>
		<path class="st2" d="M184.9,144.6c-0.5,0.3-1.2,0.5-2,0.5c-2.1,0-3.3-1-3.3-3.1v-2.7h-1.2v-2.1h1.2V135h2.8v2.1h1.9v2.1h-1.9v2.7
			c0,0.6,0.3,0.9,0.9,0.9c0.3,0,0.6-0.1,0.9-0.3L184.9,144.6z"/>
		<path class="st2" d="M185.7,134.4c0-0.9,0.7-1.5,1.7-1.5s1.7,0.6,1.7,1.5c0,0.9-0.7,1.6-1.7,1.6S185.7,135.3,185.7,134.4z
			 M186,136.8h2.8v8.1H186V136.8z"/>
		<path class="st2" d="M190.2,140.9c0-2.4,1.9-4.2,4.6-4.2c2.7,0,4.6,1.7,4.6,4.2c0,2.5-1.9,4.2-4.6,4.2
			C192.1,145.1,190.2,143.3,190.2,140.9z M196.5,140.9c0-1.2-0.7-1.9-1.7-1.9c-1,0-1.7,0.7-1.7,1.9c0,1.2,0.7,1.9,1.7,1.9
			C195.7,142.8,196.5,142.1,196.5,140.9z"/>
		<path class="st2" d="M209.3,140.3v4.6h-2.8v-4.2c0-1.2-0.5-1.7-1.3-1.7c-0.9,0-1.6,0.6-1.6,1.9v3.9h-2.8v-8.1h2.7v0.9
			c0.6-0.7,1.6-1,2.6-1C207.8,136.7,209.3,137.8,209.3,140.3z"/>
		<path class="st2" d="M225,138.4c0,2.4-1.8,3.9-4.7,3.9h-1.8v2.7h-3v-10.5h4.8C223.2,134.5,225,136,225,138.4z M222,138.4
			c0-1-0.6-1.5-1.8-1.5h-1.6v3.1h1.6C221.4,139.9,222,139.3,222,138.4z"/>
		<path class="st2" d="M233.9,140.4v4.5h-2.7v-1c-0.4,0.8-1.2,1.2-2.4,1.2c-1.9,0-3-1.1-3-2.5c0-1.5,1.1-2.4,3.6-2.4h1.6
			c0-0.8-0.6-1.3-1.7-1.3c-0.8,0-1.6,0.3-2.2,0.7l-1-1.9c0.9-0.6,2.3-0.9,3.6-0.9C232.4,136.7,233.9,137.9,233.9,140.4z M231,142.4
			v-0.7h-1.2c-0.9,0-1.2,0.3-1.2,0.8c0,0.5,0.4,0.8,1.1,0.8C230.2,143.3,230.8,143,231,142.4z"/>
		<path class="st2" d="M241.3,144.6c-0.5,0.3-1.2,0.5-2,0.5c-2.1,0-3.3-1-3.3-3.1v-2.7h-1.2v-2.1h1.2V135h2.8v2.1h1.9v2.1h-1.9v2.7
			c0,0.6,0.3,0.9,0.9,0.9c0.3,0,0.6-0.1,0.9-0.3L241.3,144.6z"/>
		<path class="st2" d="M251,140.3v4.6h-2.8v-4.2c0-1.2-0.5-1.7-1.3-1.7c-0.9,0-1.6,0.6-1.6,1.9v3.9h-2.8v-11.1h2.8v3.7
			c0.6-0.6,1.5-0.9,2.4-0.9C249.5,136.7,251,137.8,251,140.3z"/>
	</g>
	<g class="st6">
		<path class="st2" d="M113.3,456.9c0,2.4-1.8,3.9-4.7,3.9h-1.8v2.7h-3V453h4.8C111.5,453,113.3,454.5,113.3,456.9z M110.3,456.9
			c0-1-0.6-1.5-1.8-1.5h-1.6v3.1h1.6C109.7,458.4,110.3,457.8,110.3,456.9z"/>
		<path class="st2" d="M120.1,455.2v2.6c-0.3,0-0.4,0-0.6,0c-1.2,0-1.9,0.6-1.9,2v3.7h-2.8v-8.1h2.7v1
			C118,455.6,118.9,455.2,120.1,455.2z"/>
		<path class="st2" d="M129.5,460.1h-5.9c0.2,0.8,0.9,1.3,2,1.3c0.8,0,1.3-0.2,1.9-0.7l1.5,1.6c-0.8,0.9-1.9,1.3-3.5,1.3
			c-2.9,0-4.8-1.8-4.8-4.2c0-2.4,1.9-4.2,4.5-4.2c2.4,0,4.3,1.5,4.3,4.2C129.5,459.7,129.5,459.9,129.5,460.1z M123.5,458.7h3.3
			c-0.1-0.9-0.8-1.4-1.7-1.4C124.3,457.3,123.7,457.8,123.5,458.7z"/>
		<path class="st2" d="M139.9,459.4c0,2.6-1.8,4.2-4,4.2c-0.9,0-1.7-0.3-2.3-0.9v3.6h-2.8v-11h2.7v0.8c0.5-0.6,1.3-0.9,2.4-0.9
			C138.1,455.2,139.9,456.9,139.9,459.4z M137,459.4c0-1.2-0.7-1.9-1.7-1.9s-1.7,0.7-1.7,1.9s0.7,1.9,1.7,1.9S137,460.7,137,459.4z"
			/>
		<path class="st2" d="M148.7,459v4.5H146v-1c-0.4,0.8-1.2,1.2-2.4,1.2c-1.9,0-3-1.1-3-2.5c0-1.5,1.1-2.4,3.6-2.4h1.6
			c0-0.8-0.6-1.3-1.7-1.3c-0.8,0-1.6,0.3-2.2,0.7l-1-1.9c0.9-0.6,2.3-0.9,3.6-0.9C147.2,455.2,148.7,456.4,148.7,459z M145.8,460.9
			v-0.7h-1.2c-0.9,0-1.2,0.3-1.2,0.8c0,0.5,0.4,0.8,1.1,0.8C145,461.8,145.6,461.5,145.8,460.9z"/>
		<path class="st2" d="M155.9,455.2v2.6c-0.3,0-0.4,0-0.6,0c-1.2,0-1.9,0.6-1.9,2v3.7h-2.8v-8.1h2.7v1
			C153.8,455.6,154.7,455.2,155.9,455.2z"/>
		<path class="st2" d="M164.6,459v4.5H162v-1c-0.4,0.8-1.2,1.2-2.4,1.2c-1.9,0-3-1.1-3-2.5c0-1.5,1.1-2.4,3.6-2.4h1.6
			c0-0.8-0.6-1.3-1.7-1.3c-0.8,0-1.6,0.3-2.2,0.7l-1-1.9c0.9-0.6,2.3-0.9,3.6-0.9C163.1,455.2,164.6,456.4,164.6,459z M161.8,460.9
			v-0.7h-1.2c-0.9,0-1.2,0.3-1.2,0.8c0,0.5,0.4,0.8,1.1,0.8C161,461.8,161.5,461.5,161.8,460.9z"/>
		<path class="st2" d="M172,463.2c-0.5,0.3-1.2,0.5-2,0.5c-2.1,0-3.3-1-3.3-3.1v-2.7h-1.2v-2.1h1.2v-2.1h2.8v2.1h1.9v2.1h-1.9v2.7
			c0,0.6,0.3,0.9,0.9,0.9c0.3,0,0.6-0.1,0.9-0.3L172,463.2z"/>
		<path class="st2" d="M172.8,453c0-0.9,0.7-1.5,1.7-1.5s1.7,0.6,1.7,1.5c0,0.9-0.7,1.6-1.7,1.6S172.8,453.8,172.8,453z
			 M173.1,455.4h2.8v8.1h-2.8V455.4z"/>
		<path class="st2" d="M177.3,459.4c0-2.4,1.9-4.2,4.6-4.2c2.7,0,4.6,1.7,4.6,4.2c0,2.5-1.9,4.2-4.6,4.2
			C179.2,463.6,177.3,461.9,177.3,459.4z M183.6,459.4c0-1.2-0.7-1.9-1.7-1.9c-1,0-1.7,0.7-1.7,1.9c0,1.2,0.7,1.9,1.7,1.9
			C182.8,461.4,183.6,460.7,183.6,459.4z"/>
		<path class="st2" d="M196.4,458.8v4.6h-2.8v-4.2c0-1.2-0.5-1.7-1.3-1.7c-0.9,0-1.6,0.6-1.6,1.9v3.9h-2.8v-8.1h2.7v0.9
			c0.6-0.7,1.6-1,2.6-1C195,455.2,196.4,456.3,196.4,458.8z"/>
	</g>
	<polygon class="st4" points="286.8,689.9 14.7,689.9 14.7,735.5 132.5,735.5 150.8,754.7 169.1,735.5 286.8,735.5 	"/>
	<polygon class="st4" points="287.1,1003.5 14.5,1003.5 14.5,1049 132.5,1049 150.8,1068.2 169.1,1049 287.1,1049 	"/>
	<polygon class="st5" points="169.2,850.7 150.8,831.3 132.3,850.7 14.7,850.7 14.7,896.3 286.8,896.3 286.8,850.7 	"/>
	<polygon class="st5" points="169.2,1164.2 150.8,1144.8 132.3,1164.2 14.5,1164.2 14.5,1209.8 287.1,1209.8 287.1,1164.2 	"/>
	<g class="st6">
		<path class="st2" d="M126.9,797.3h-1.6v2.8h-3v-10.5h4.8c2.9,0,4.7,1.5,4.7,3.9c0,1.5-0.7,2.7-2.1,3.3l2.3,3.3h-3.2L126.9,797.3z
			 M126.9,792h-1.6v3.1h1.6c1.2,0,1.8-0.6,1.8-1.5C128.7,792.5,128.1,792,126.9,792z"/>
		<path class="st2" d="M141.5,796.8h-5.9c0.2,0.8,0.9,1.3,2,1.3c0.8,0,1.3-0.2,1.9-0.7l1.5,1.6c-0.8,0.9-1.9,1.3-3.5,1.3
			c-2.9,0-4.8-1.8-4.8-4.2c0-2.4,1.9-4.2,4.5-4.2c2.4,0,4.3,1.5,4.3,4.2C141.5,796.3,141.5,796.6,141.5,796.8z M135.5,795.3h3.3
			c-0.1-0.9-0.8-1.4-1.7-1.4C136.3,793.9,135.7,794.4,135.5,795.3z"/>
		<path class="st2" d="M151.2,792l-3.4,8.1h-2.9l-3.3-8.1h2.9l1.9,5l2.1-5H151.2z"/>
		<path class="st2" d="M151.7,789.6c0-0.9,0.7-1.5,1.7-1.5s1.7,0.6,1.7,1.5c0,0.9-0.7,1.6-1.7,1.6S151.7,790.5,151.7,789.6z
			 M152,792h2.8v8.1H152V792z"/>
		<path class="st2" d="M164.9,796.8H159c0.2,0.8,0.9,1.3,2,1.3c0.8,0,1.3-0.2,1.9-0.7l1.5,1.6c-0.8,0.9-1.9,1.3-3.5,1.3
			c-2.9,0-4.8-1.8-4.8-4.2c0-2.4,1.9-4.2,4.5-4.2c2.4,0,4.3,1.5,4.3,4.2C165,796.3,164.9,796.6,164.9,796.8z M159,795.3h3.3
			c-0.1-0.9-0.8-1.4-1.7-1.4S159.1,794.4,159,795.3z"/>
		<path class="st2" d="M179.6,792l-2.9,8.1h-2.8l-1.5-4.4l-1.6,4.4h-2.8l-2.9-8.1h2.7l1.7,4.9l1.7-4.9h2.4l1.7,5l1.7-5H179.6z"/>
	</g>
	<g class="st6">
		<path class="st2" d="M103.1,1113.5h-4.4l-0.8,2h-3l4.6-10.5h2.9l4.6,10.5h-3.1L103.1,1113.5z M102.2,1111.3l-1.3-3.4l-1.3,3.4
			H102.2z"/>
		<path class="st2" d="M116.1,1107.4v8.1h-2.7v-0.9c-0.6,0.7-1.5,1-2.4,1c-2,0-3.4-1.1-3.4-3.7v-4.5h2.8v4.1c0,1.3,0.5,1.8,1.3,1.8
			c0.8,0,1.5-0.6,1.5-1.9v-3.9H116.1z"/>
		<path class="st2" d="M123.5,1115.2c-0.5,0.3-1.2,0.5-2,0.5c-2.1,0-3.3-1-3.3-3.1v-2.7H117v-2.1h1.2v-2.1h2.8v2.1h1.9v2.1h-1.9v2.7
			c0,0.6,0.3,0.9,0.9,0.9c0.3,0,0.6-0.1,0.9-0.3L123.5,1115.2z"/>
		<path class="st2" d="M133.2,1110.9v4.6h-2.8v-4.2c0-1.2-0.5-1.7-1.3-1.7c-0.9,0-1.6,0.6-1.6,1.9v3.9h-2.8v-11.1h2.8v3.7
			c0.6-0.6,1.5-0.9,2.4-0.9C131.8,1107.3,133.2,1108.4,133.2,1110.9z"/>
		<path class="st2" d="M134.6,1111.5c0-2.4,1.9-4.2,4.6-4.2c2.7,0,4.6,1.7,4.6,4.2c0,2.5-1.9,4.2-4.6,4.2
			C136.6,1115.7,134.6,1113.9,134.6,1111.5z M140.9,1111.5c0-1.2-0.7-1.9-1.7-1.9c-1,0-1.7,0.7-1.7,1.9c0,1.2,0.7,1.9,1.7,1.9
			C140.2,1113.4,140.9,1112.7,140.9,1111.5z"/>
		<path class="st2" d="M150.6,1107.3v2.6c-0.3,0-0.4,0-0.6,0c-1.2,0-1.9,0.6-1.9,2v3.7h-2.8v-8.1h2.7v1
			C148.4,1107.7,149.4,1107.3,150.6,1107.3z"/>
		<path class="st2" d="M151.4,1105c0-0.9,0.7-1.5,1.7-1.5s1.7,0.6,1.7,1.5c0,0.9-0.7,1.6-1.7,1.6S151.4,1105.9,151.4,1105z
			 M151.7,1107.4h2.8v8.1h-2.8V1107.4z"/>
		<path class="st2" d="M163.5,1113.4v2.1H156v-1.7l3.8-4.3h-3.7v-2.1h7.2v1.7l-3.8,4.3H163.5z"/>
		<path class="st2" d="M172.4,1111v4.5h-2.7v-1c-0.4,0.8-1.2,1.2-2.4,1.2c-1.9,0-3-1.1-3-2.5c0-1.5,1.1-2.4,3.6-2.4h1.6
			c0-0.8-0.6-1.3-1.7-1.3c-0.8,0-1.6,0.3-2.2,0.7l-1-1.9c0.9-0.6,2.3-0.9,3.6-0.9C170.8,1107.3,172.4,1108.4,172.4,1111z
			 M169.5,1112.9v-0.7h-1.2c-0.9,0-1.2,0.3-1.2,0.8c0,0.5,0.4,0.8,1.1,0.8C168.7,1113.9,169.3,1113.6,169.5,1112.9z"/>
		<path class="st2" d="M179.7,1115.2c-0.5,0.3-1.2,0.5-2,0.5c-2.1,0-3.3-1-3.3-3.1v-2.7h-1.2v-2.1h1.2v-2.1h2.8v2.1h1.9v2.1h-1.9
			v2.7c0,0.6,0.3,0.9,0.9,0.9c0.3,0,0.6-0.1,0.9-0.3L179.7,1115.2z"/>
		<path class="st2" d="M180.5,1105c0-0.9,0.7-1.5,1.7-1.5s1.7,0.6,1.7,1.5c0,0.9-0.7,1.6-1.7,1.6S180.5,1105.9,180.5,1105z
			 M180.8,1107.4h2.8v8.1h-2.8V1107.4z"/>
		<path class="st2" d="M185,1111.5c0-2.4,1.9-4.2,4.6-4.2c2.7,0,4.6,1.7,4.6,4.2c0,2.5-1.9,4.2-4.6,4.2
			C187,1115.7,185,1113.9,185,1111.5z M191.3,1111.5c0-1.2-0.7-1.9-1.7-1.9c-1,0-1.7,0.7-1.7,1.9c0,1.2,0.7,1.9,1.7,1.9
			C190.6,1113.4,191.3,1112.7,191.3,1111.5z"/>
		<path class="st2" d="M204.1,1110.9v4.6h-2.8v-4.2c0-1.2-0.5-1.7-1.3-1.7c-0.9,0-1.6,0.6-1.6,1.9v3.9h-2.8v-8.1h2.7v0.9
			c0.6-0.7,1.6-1,2.6-1C202.7,1107.3,204.1,1108.4,204.1,1110.9z"/>
	</g>
</g>
<g id="Layer_1_1_">
	<g class="st6">
		<path class="st7" d="M94.6,211.2c0.5,0.1,0.9,0.1,1.1,0.1c0.5,0,0.8-0.1,0.9-0.3c0.2-0.2,0.2-0.5,0.2-1.1v-10.2h2.9v10.1
			c0,1.3-0.3,2.2-0.8,2.9c-0.5,0.6-1.4,0.9-2.7,0.9c-0.5,0-1.1,0-1.7-0.1V211.2z"/>
		<path class="st7" d="M109.1,208.5h-4.9l-1,2.3h-2.9l5.1-11h2.3l5.2,11h-2.9L109.1,208.5z M108.2,206.3l-1.5-3.5l-1.5,3.5H108.2z"
			/>
		<path class="st7" d="M122.5,206c0.3,0.5,0.5,1,0.5,1.7c0,0.6-0.2,1.1-0.5,1.6s-0.8,0.8-1.4,1c-0.6,0.2-1.3,0.4-2.1,0.4h-5.5v-11
			h5.3c1.2,0,2.1,0.3,2.7,0.8c0.7,0.5,1,1.2,1,2.1c0,0.6-0.1,1.1-0.4,1.5c-0.3,0.4-0.7,0.7-1.3,0.9
			C121.6,205.2,122.1,205.5,122.5,206z M116.4,204h2c0.5,0,0.9-0.1,1.2-0.2c0.2-0.2,0.4-0.4,0.4-0.8c0-0.4-0.1-0.6-0.4-0.8
			c-0.3-0.2-0.6-0.3-1.2-0.3h-2V204z M119.9,208.3c0.2-0.2,0.4-0.5,0.4-0.9c0-0.4-0.1-0.7-0.4-0.9c-0.2-0.2-0.6-0.3-1.2-0.3h-2.3
			v2.3h2.3C119.3,208.5,119.7,208.4,119.9,208.3z"/>
		<path class="st7" d="M128.9,199.7h5.2c1.3,0,2.2,0.3,2.9,0.9s1,1.4,1,2.4c0,1-0.3,1.8-1,2.4c-0.7,0.6-1.7,0.9-2.9,0.9h-2.3v4.3
			h-2.9V199.7z M133.7,204.3c1.1,0,1.6-0.4,1.6-1.2c0-0.4-0.1-0.7-0.4-0.9c-0.3-0.2-0.7-0.3-1.2-0.3h-1.9v2.3H133.7z"/>
		<path class="st7" d="M149,210.7H146l-1.4-3.7c-0.2-0.4-0.6-0.6-1.2-0.6h-1v4.3h-2.9v-11h5.1c1.3,0,2.3,0.3,3,0.9s1,1.4,1,2.4
			c0,0.7-0.2,1.4-0.6,1.9c-0.4,0.5-1,0.9-1.7,1.1c0.3,0.1,0.6,0.2,0.8,0.4c0.2,0.2,0.4,0.5,0.6,0.9L149,210.7z M145.5,204
			c0.3-0.2,0.4-0.5,0.4-0.9c0-0.4-0.1-0.7-0.4-0.9c-0.3-0.2-0.7-0.3-1.3-0.3h-1.8v2.4h1.8C144.7,204.3,145.2,204.2,145.5,204z"/>
		<path class="st7" d="M152.7,210.2c-0.8-0.5-1.5-1.1-1.9-2s-0.7-1.9-0.7-3s0.2-2.1,0.7-3c0.5-0.8,1.1-1.5,1.9-2
			c0.8-0.5,1.8-0.7,2.9-0.7c1.1,0,2.1,0.2,2.9,0.7c0.8,0.5,1.5,1.1,1.9,2c0.4,0.8,0.7,1.8,0.7,3s-0.2,2.1-0.7,3s-1.1,1.5-1.9,2
			c-0.8,0.5-1.8,0.7-2.9,0.7C154.5,210.9,153.5,210.6,152.7,210.2z M157.6,207.8c0.5-0.6,0.7-1.4,0.7-2.6c0-1.1-0.2-2-0.7-2.5
			c-0.5-0.6-1.1-0.9-1.9-0.9c-0.8,0-1.5,0.3-1.9,0.9c-0.5,0.6-0.7,1.4-0.7,2.5c0,1.1,0.2,2,0.7,2.6s1.1,0.9,1.9,0.9
			C156.5,208.7,157.1,208.4,157.6,207.8z"/>
		<path class="st7" d="M165.2,210.2c-0.8-0.5-1.5-1.1-2-2s-0.7-1.8-0.7-3c0-1.1,0.2-2.1,0.7-2.9s1.1-1.5,2-2c0.8-0.5,1.8-0.7,3-0.7
			c0.7,0,1.4,0.1,2.1,0.3s1.2,0.5,1.6,0.9l-0.9,2.1c-0.9-0.6-1.8-1-2.8-1c-0.9,0-1.6,0.3-2,0.8c-0.5,0.6-0.7,1.4-0.7,2.5
			c0,1.1,0.2,1.9,0.7,2.5c0.5,0.6,1.2,0.8,2,0.8c1,0,1.9-0.3,2.8-1l0.9,2.1c-0.4,0.4-1,0.7-1.6,0.9c-0.7,0.2-1.4,0.3-2.1,0.3
			C167,210.9,166,210.6,165.2,210.2z"/>
		<path class="st7" d="M173.4,199.7h7.8v2.2h-5v2.1h4.7v2.2h-4.7v2.3h5v2.2h-7.8V199.7z"/>
		<path class="st7" d="M184.1,210.5c-0.8-0.2-1.5-0.5-2-0.9l0.9-2.1c0.5,0.3,1.1,0.6,1.7,0.8s1.2,0.3,1.8,0.3c0.6,0,1.1-0.1,1.4-0.3
			c0.3-0.2,0.5-0.4,0.5-0.7c0-0.3-0.1-0.5-0.4-0.7c-0.3-0.2-0.9-0.4-1.7-0.5c-1-0.2-1.8-0.5-2.4-0.8c-0.6-0.3-1-0.7-1.2-1.1
			c-0.2-0.4-0.3-0.9-0.3-1.5c0-0.7,0.2-1.3,0.6-1.8c0.4-0.5,0.9-1,1.6-1.3c0.7-0.3,1.5-0.5,2.4-0.5c0.8,0,1.6,0.1,2.3,0.3
			s1.3,0.5,1.8,0.9l-0.9,2.1c-0.5-0.3-1-0.6-1.5-0.8c-0.5-0.2-1.1-0.3-1.6-0.3c-0.5,0-0.9,0.1-1.3,0.3s-0.5,0.5-0.5,0.8
			c0,0.2,0.1,0.3,0.2,0.5c0.1,0.1,0.3,0.2,0.6,0.4c0.3,0.1,0.8,0.2,1.4,0.4c1,0.2,1.8,0.5,2.4,0.8c0.6,0.3,1,0.7,1.2,1.1
			c0.2,0.4,0.4,0.9,0.4,1.5c0,1.1-0.4,1.9-1.2,2.5c-0.8,0.6-2,0.9-3.5,0.9C185.7,210.9,184.9,210.8,184.1,210.5z"/>
		<path class="st7" d="M194.5,210.5c-0.8-0.2-1.5-0.5-2-0.9l0.9-2.1c0.5,0.3,1.1,0.6,1.7,0.8s1.2,0.3,1.8,0.3c0.6,0,1.1-0.1,1.4-0.3
			c0.3-0.2,0.5-0.4,0.5-0.7c0-0.3-0.1-0.5-0.4-0.7c-0.3-0.2-0.9-0.4-1.7-0.5c-1-0.2-1.8-0.5-2.4-0.8c-0.6-0.3-1-0.7-1.2-1.1
			s-0.3-0.9-0.3-1.5c0-0.7,0.2-1.3,0.6-1.8c0.4-0.5,0.9-1,1.6-1.3c0.7-0.3,1.5-0.5,2.4-0.5c0.8,0,1.6,0.1,2.3,0.3
			c0.7,0.2,1.3,0.5,1.8,0.9l-0.9,2.1c-0.5-0.3-1-0.6-1.5-0.8c-0.5-0.2-1.1-0.3-1.6-0.3c-0.5,0-0.9,0.1-1.3,0.3
			c-0.3,0.2-0.5,0.5-0.5,0.8c0,0.2,0.1,0.3,0.2,0.5c0.1,0.1,0.3,0.2,0.6,0.4c0.3,0.1,0.8,0.2,1.4,0.4c1,0.2,1.8,0.5,2.4,0.8
			c0.6,0.3,1,0.7,1.2,1.1s0.4,0.9,0.4,1.5c0,1.1-0.4,1.9-1.2,2.5c-0.8,0.6-2,0.9-3.5,0.9C196.1,210.9,195.3,210.8,194.5,210.5z"/>
	</g>
	<path class="st8" d="M59.2,53l182.5-0.5c10.5,0,19.1,8.5,19.1,19v0.4c0,10.5-8.5,19.1-19,19.1L59.4,91.5c-10.5,0-19.1-8.5-19.1-19
		v-0.4C40.2,61.6,48.7,53,59.2,53z"/>
	<path class="st9" d="M59.2,185.3l182.5-0.5c10.5,0,19.1,8.5,19.1,19v0.4c0,10.5-8.5,19.1-19,19.1l-182.5,0.5
		c-10.5,0-19.1-8.5-19.1-19v-0.4C40.2,193.9,48.7,185.3,59.2,185.3z"/>
	<g class="st6">
		<path class="st10" d="M84.5,76.2h-4.9l-1,2.3h-2.9l5.1-11h2.3l5.2,11h-2.9L84.5,76.2z M83.6,74l-1.5-3.5L80.6,74H83.6z"/>
		<path class="st10" d="M98.5,72.2v5.5c-0.6,0.3-1.2,0.5-2,0.6s-1.5,0.2-2.2,0.2c-1.2,0-2.2-0.2-3.1-0.7c-0.9-0.5-1.6-1.1-2-2
			c-0.5-0.8-0.7-1.9-0.7-3c0-1.1,0.2-2.1,0.7-3c0.5-0.8,1.1-1.5,2-2c0.9-0.5,1.9-0.7,3-0.7c0.8,0,1.5,0.1,2.2,0.3
			c0.7,0.2,1.3,0.5,1.7,0.8l-0.9,2.1c-0.5-0.3-1-0.6-1.5-0.7c-0.5-0.1-1-0.2-1.5-0.2c-1,0-1.7,0.3-2.2,0.8c-0.5,0.6-0.7,1.4-0.7,2.5
			c0,1.2,0.2,2,0.7,2.6c0.5,0.6,1.3,0.8,2.3,0.8c0.5,0,1-0.1,1.5-0.2v-2h-1.9v-2H98.5z"/>
		<path class="st10" d="M100.3,67.4h7.8v2.2h-5v2.1h4.7V74h-4.7v2.3h5v2.2h-7.8V67.4z"/>
		<path class="st10" d="M119.4,67.4v11h-2.1l-5-6.2v6.2h-2.7v-11h2.1l5,6.2v-6.2H119.4z"/>
		<path class="st10" d="M123.8,77.9c-0.8-0.5-1.5-1.1-2-2s-0.7-1.8-0.7-3c0-1.1,0.2-2.1,0.7-2.9s1.1-1.5,2-2c0.8-0.5,1.8-0.7,3-0.7
			c0.7,0,1.4,0.1,2.1,0.3s1.2,0.5,1.6,0.9l-0.9,2.1c-0.9-0.6-1.8-1-2.8-1c-0.9,0-1.6,0.3-2,0.8c-0.5,0.6-0.7,1.4-0.7,2.5
			c0,1.1,0.2,1.9,0.7,2.5c0.5,0.6,1.2,0.8,2,0.8c1,0,1.9-0.3,2.8-1l0.9,2.1c-0.4,0.4-1,0.7-1.6,0.9c-0.7,0.2-1.4,0.3-2.1,0.3
			C125.6,78.6,124.6,78.3,123.8,77.9z"/>
		<path class="st10" d="M137.4,74.2v4.2h-2.9v-4.2l-4.6-6.8h3.3l2.8,4.4l2.8-4.4h3.3L137.4,74.2z"/>
		<path class="st10" d="M146.5,67.4h5.2c1.3,0,2.2,0.3,2.9,0.9c0.7,0.6,1,1.4,1,2.4c0,1-0.3,1.8-1,2.4c-0.7,0.6-1.7,0.9-2.9,0.9
			h-2.3v4.3h-2.9V67.4z M151.3,72c1.1,0,1.6-0.4,1.6-1.2c0-0.4-0.1-0.7-0.4-0.9c-0.3-0.2-0.7-0.3-1.2-0.3h-1.9V72H151.3z"/>
		<path class="st10" d="M166.6,78.4h-3.1l-1.4-3.7c-0.2-0.4-0.6-0.6-1.2-0.6h-1v4.3H157v-11h5.1c1.3,0,2.3,0.3,3,0.9s1,1.4,1,2.4
			c0,0.7-0.2,1.4-0.6,1.9c-0.4,0.5-1,0.9-1.7,1.1c0.3,0.1,0.6,0.2,0.8,0.4c0.2,0.2,0.4,0.5,0.6,0.9L166.6,78.4z M163,71.7
			c0.3-0.2,0.4-0.5,0.4-0.9c0-0.4-0.1-0.7-0.4-0.9c-0.3-0.2-0.7-0.3-1.3-0.3h-1.8V72h1.8C162.3,72,162.8,71.9,163,71.7z"/>
		<path class="st10" d="M170.3,77.9c-0.8-0.5-1.5-1.1-1.9-2s-0.7-1.9-0.7-3s0.2-2.1,0.7-3c0.5-0.8,1.1-1.5,1.9-2
			c0.8-0.5,1.8-0.7,2.9-0.7c1.1,0,2.1,0.2,2.9,0.7c0.8,0.5,1.5,1.1,1.9,2c0.4,0.8,0.7,1.8,0.7,3s-0.2,2.1-0.7,3s-1.1,1.5-1.9,2
			c-0.8,0.5-1.8,0.7-2.9,0.7C172.1,78.6,171.1,78.3,170.3,77.9z M175.2,75.5c0.5-0.6,0.7-1.4,0.7-2.6c0-1.1-0.2-2-0.7-2.5
			c-0.5-0.6-1.1-0.9-1.9-0.9c-0.8,0-1.5,0.3-1.9,0.9c-0.5,0.6-0.7,1.4-0.7,2.5c0,1.1,0.2,2,0.7,2.6s1.1,0.9,1.9,0.9
			C174,76.4,174.7,76.1,175.2,75.5z"/>
		<path class="st10" d="M182.8,77.9c-0.8-0.5-1.5-1.1-2-2s-0.7-1.8-0.7-3c0-1.1,0.2-2.1,0.7-2.9s1.1-1.5,2-2c0.8-0.5,1.8-0.7,3-0.7
			c0.7,0,1.4,0.1,2.1,0.3s1.2,0.5,1.6,0.9l-0.9,2.1c-0.9-0.6-1.8-1-2.8-1c-0.9,0-1.6,0.3-2,0.8c-0.5,0.6-0.7,1.4-0.7,2.5
			c0,1.1,0.2,1.9,0.7,2.5c0.5,0.6,1.2,0.8,2,0.8c1,0,1.9-0.3,2.8-1l0.9,2.1c-0.4,0.4-1,0.7-1.6,0.9c-0.7,0.2-1.4,0.3-2.1,0.3
			C184.6,78.6,183.6,78.3,182.8,77.9z"/>
		<path class="st10" d="M191,67.4h7.8v2.2h-5v2.1h4.7V74h-4.7v2.3h5v2.2H191V67.4z"/>
		<path class="st10" d="M201.7,78.2c-0.8-0.2-1.5-0.5-2-0.9l0.9-2.1c0.5,0.3,1.1,0.6,1.7,0.8s1.2,0.3,1.8,0.3c0.6,0,1.1-0.1,1.4-0.3
			c0.3-0.2,0.5-0.4,0.5-0.7c0-0.3-0.1-0.5-0.4-0.7c-0.3-0.2-0.9-0.4-1.7-0.5c-1-0.2-1.8-0.5-2.4-0.8c-0.6-0.3-1-0.7-1.2-1.1
			c-0.2-0.4-0.3-0.9-0.3-1.5c0-0.7,0.2-1.3,0.6-1.8c0.4-0.5,0.9-1,1.6-1.3c0.7-0.3,1.5-0.5,2.4-0.5c0.8,0,1.6,0.1,2.3,0.3
			c0.7,0.2,1.3,0.5,1.8,0.9l-0.9,2.1c-0.5-0.3-1-0.6-1.5-0.8c-0.5-0.2-1.1-0.3-1.6-0.3c-0.5,0-0.9,0.1-1.3,0.3
			c-0.3,0.2-0.5,0.5-0.5,0.8c0,0.2,0.1,0.3,0.2,0.5c0.1,0.1,0.3,0.2,0.6,0.4c0.3,0.1,0.8,0.2,1.4,0.4c1,0.2,1.8,0.5,2.4,0.8
			c0.6,0.3,1,0.7,1.2,1.1c0.2,0.4,0.4,0.9,0.4,1.5c0,1.1-0.4,1.9-1.2,2.5c-0.8,0.6-2,0.9-3.5,0.9C203.3,78.6,202.5,78.5,201.7,78.2z
			"/>
		<path class="st10" d="M212,78.2c-0.8-0.2-1.5-0.5-2-0.9l0.9-2.1c0.5,0.3,1.1,0.6,1.7,0.8s1.2,0.3,1.8,0.3c0.6,0,1.1-0.1,1.4-0.3
			c0.3-0.2,0.5-0.4,0.5-0.7c0-0.3-0.1-0.5-0.4-0.7c-0.3-0.2-0.9-0.4-1.7-0.5c-1-0.2-1.8-0.5-2.4-0.8c-0.6-0.3-1-0.7-1.2-1.1
			s-0.3-0.9-0.3-1.5c0-0.7,0.2-1.3,0.6-1.8c0.4-0.5,0.9-1,1.6-1.3c0.7-0.3,1.5-0.5,2.4-0.5c0.8,0,1.6,0.1,2.3,0.3
			c0.7,0.2,1.3,0.5,1.8,0.9l-0.9,2.1c-0.5-0.3-1-0.6-1.5-0.8c-0.5-0.2-1.1-0.3-1.6-0.3c-0.5,0-0.9,0.1-1.3,0.3
			c-0.3,0.2-0.5,0.5-0.5,0.8c0,0.2,0.1,0.3,0.2,0.5c0.1,0.1,0.3,0.2,0.6,0.4c0.3,0.1,0.8,0.2,1.4,0.4c1,0.2,1.8,0.5,2.4,0.8
			c0.6,0.3,1,0.7,1.2,1.1s0.4,0.9,0.4,1.5c0,1.1-0.4,1.9-1.2,2.5c-0.8,0.6-2,0.9-3.5,0.9C213.7,78.6,212.8,78.5,212,78.2z"/>
	</g>
	<rect x="167.8" y="344.8" class="st11" width="123.8" height="39.5"/>
	<g class="st6">
		<path class="st12" d="M198.7,359.3h-1.5l-1.5-4c-0.2-0.5-0.4-0.8-0.8-1s-0.8-0.3-1.4-0.3h-3v5.3h-1.4v-12.1h4.8
			c1.3,0,2.3,0.3,3,0.9c0.7,0.6,1,1.4,1,2.5c0,0.8-0.2,1.5-0.6,2c-0.4,0.5-1,0.9-1.8,1.1c0.4,0.1,0.7,0.2,0.9,0.5
			c0.2,0.2,0.5,0.6,0.6,1L198.7,359.3z M193.8,352.9c1.9,0,2.8-0.8,2.8-2.3c0-0.7-0.2-1.3-0.7-1.7c-0.5-0.4-1.2-0.6-2.1-0.6h-3.3
			v4.5H193.8z"/>
		<path class="st12" d="M207.9,355h-6.3c0,1.1,0.3,1.9,0.8,2.5c0.5,0.6,1.2,0.8,2.1,0.8c1,0,1.9-0.3,2.8-1l0.5,1
			c-0.4,0.4-0.9,0.6-1.4,0.8c-0.6,0.2-1.2,0.3-1.8,0.3c-1.3,0-2.4-0.4-3.1-1.2c-0.8-0.8-1.1-1.9-1.1-3.2c0-0.9,0.2-1.6,0.5-2.3
			c0.3-0.7,0.8-1.2,1.4-1.6c0.6-0.4,1.3-0.6,2.1-0.6c1.1,0,2,0.4,2.7,1.1s1,1.8,1,3.1V355z M202.5,352.3c-0.4,0.4-0.7,1-0.9,1.8h5
			c-0.1-0.8-0.3-1.4-0.7-1.8c-0.4-0.4-1-0.6-1.7-0.6S203,351.8,202.5,352.3z"/>
		<path class="st12" d="M217.5,350.7v8.5h-1.4v-1.5c-0.2,0.5-0.6,0.9-1.1,1.2c-0.5,0.3-1.1,0.4-1.8,0.4c-0.8,0-1.4-0.2-2-0.5
			c-0.6-0.4-1-0.9-1.3-1.5c-0.3-0.7-0.5-1.4-0.5-2.3c0-0.9,0.2-1.7,0.5-2.3c0.3-0.7,0.8-1.2,1.3-1.6c0.6-0.4,1.2-0.6,2-0.6
			c0.7,0,1.2,0.1,1.7,0.4s0.9,0.7,1.1,1.2v-1.5H217.5z M215.5,357.4c0.5-0.6,0.7-1.4,0.7-2.4s-0.2-1.9-0.7-2.4
			c-0.5-0.6-1.1-0.8-1.9-0.8c-0.8,0-1.5,0.3-2,0.9c-0.5,0.6-0.7,1.4-0.7,2.4s0.2,1.8,0.7,2.4c0.5,0.6,1.1,0.8,2,0.8
			C214.4,358.3,215,358,215.5,357.4z"/>
		<path class="st12" d="M227.7,346.8v12.5h-1.4v-1.5c-0.2,0.5-0.6,0.9-1.1,1.2c-0.5,0.3-1.1,0.4-1.8,0.4c-0.7,0-1.4-0.2-2-0.6
			c-0.6-0.4-1-0.9-1.3-1.6c-0.3-0.7-0.5-1.5-0.5-2.3s0.2-1.7,0.5-2.3c0.3-0.7,0.8-1.2,1.3-1.5c0.6-0.4,1.2-0.5,2-0.5
			c0.7,0,1.3,0.1,1.7,0.4c0.5,0.3,0.9,0.7,1.1,1.2v-5.4H227.7z M225.7,357.4c0.5-0.6,0.7-1.4,0.7-2.4c0-1-0.2-1.8-0.7-2.4
			c-0.5-0.6-1.1-0.9-1.9-0.9c-0.8,0-1.5,0.3-2,0.8c-0.5,0.6-0.7,1.4-0.7,2.4c0,1.1,0.2,1.9,0.7,2.5s1.1,0.9,2,0.9
			C224.6,358.3,225.2,358,225.7,357.4z"/>
		<path class="st12" d="M231.9,347.1v1.6h-1.7v-1.6H231.9z M230.4,350.7h1.4v8.5h-1.4V350.7z"/>
		<path class="st12" d="M241.7,353.9v5.4h-1.4V354c0-0.8-0.2-1.4-0.5-1.7c-0.3-0.4-0.8-0.6-1.5-0.6c-0.8,0-1.4,0.2-1.9,0.7
			c-0.5,0.5-0.7,1.1-0.7,2v4.9h-1.4v-6.1c0-0.9,0-1.7-0.1-2.4h1.3l0.1,1.5c0.3-0.6,0.7-1,1.2-1.3s1.1-0.5,1.8-0.5
			C240.7,350.5,241.7,351.7,241.7,353.9z"/>
		<path class="st12" d="M251.5,355h-6.3c0,1.1,0.3,1.9,0.8,2.5c0.5,0.6,1.2,0.8,2.1,0.8c1,0,1.9-0.3,2.8-1l0.5,1
			c-0.4,0.4-0.9,0.6-1.4,0.8c-0.6,0.2-1.2,0.3-1.8,0.3c-1.3,0-2.4-0.4-3.1-1.2c-0.8-0.8-1.1-1.9-1.1-3.2c0-0.9,0.2-1.6,0.5-2.3
			c0.3-0.7,0.8-1.2,1.4-1.6c0.6-0.4,1.3-0.6,2.1-0.6c1.1,0,2,0.4,2.7,1.1s1,1.8,1,3.1V355z M246.1,352.3c-0.4,0.4-0.7,1-0.9,1.8h5
			c-0.1-0.8-0.3-1.4-0.7-1.8c-0.4-0.4-1-0.6-1.7-0.6S246.6,351.8,246.1,352.3z"/>
		<path class="st12" d="M253,358.3l0.5-1c0.5,0.4,0.9,0.6,1.4,0.8c0.5,0.2,1,0.2,1.6,0.2c0.6,0,1.1-0.1,1.5-0.3s0.5-0.5,0.5-1
			c0-0.3-0.1-0.6-0.3-0.8c-0.2-0.2-0.6-0.4-1.1-0.5l-1.4-0.3c-0.7-0.2-1.3-0.4-1.7-0.8c-0.4-0.4-0.6-0.9-0.6-1.5
			c0-0.7,0.3-1.4,0.9-1.8c0.6-0.5,1.4-0.7,2.4-0.7c0.6,0,1.2,0.1,1.7,0.3c0.5,0.2,1,0.5,1.3,0.8l-0.5,1c-0.8-0.7-1.7-1-2.6-1
			c-0.6,0-1.1,0.1-1.4,0.3c-0.3,0.2-0.5,0.6-0.5,1c0,0.4,0.1,0.6,0.3,0.8c0.2,0.2,0.5,0.4,1,0.5l1.4,0.4c0.8,0.2,1.4,0.5,1.8,0.8
			s0.6,0.9,0.6,1.5c0,0.7-0.3,1.3-0.9,1.8c-0.6,0.4-1.4,0.7-2.4,0.7C255,359.4,253.9,359,253,358.3z"/>
		<path class="st12" d="M261.5,358.3l0.5-1c0.5,0.4,0.9,0.6,1.4,0.8c0.5,0.2,1,0.2,1.6,0.2c0.6,0,1.1-0.1,1.5-0.3s0.5-0.5,0.5-1
			c0-0.3-0.1-0.6-0.3-0.8c-0.2-0.2-0.6-0.4-1.1-0.5l-1.4-0.3c-0.7-0.2-1.3-0.4-1.7-0.8c-0.4-0.4-0.6-0.9-0.6-1.5
			c0-0.7,0.3-1.4,0.9-1.8c0.6-0.5,1.4-0.7,2.4-0.7c0.6,0,1.2,0.1,1.7,0.3c0.5,0.2,1,0.5,1.3,0.8l-0.5,1c-0.8-0.7-1.7-1-2.6-1
			c-0.6,0-1.1,0.1-1.4,0.3c-0.3,0.2-0.5,0.6-0.5,1c0,0.4,0.1,0.6,0.3,0.8c0.2,0.2,0.5,0.4,1,0.5l1.4,0.4c0.8,0.2,1.4,0.5,1.8,0.8
			s0.6,0.9,0.6,1.5c0,0.7-0.3,1.3-0.9,1.8s-1.4,0.7-2.4,0.7C263.4,359.4,262.3,359,261.5,358.3z"/>
	</g>
	<g class="st6">
		<path class="st12" d="M189.9,376.6h-6.3l-1.3,3.1h-1.4l5.3-12.1h1.2l5.3,12.1h-1.4L189.9,376.6z M189.4,375.4l-2.7-6.2l-2.7,6.2
			H189.4z"/>
		<path class="st12" d="M193.6,378.7l0.5-1c0.5,0.4,0.9,0.6,1.4,0.8c0.5,0.2,1,0.2,1.6,0.2c0.6,0,1.1-0.1,1.5-0.3s0.5-0.5,0.5-1
			c0-0.3-0.1-0.6-0.3-0.8c-0.2-0.2-0.6-0.4-1.1-0.5l-1.4-0.3c-0.7-0.2-1.3-0.4-1.7-0.8s-0.6-0.9-0.6-1.5c0-0.7,0.3-1.4,0.9-1.8
			c0.6-0.5,1.4-0.7,2.4-0.7c0.6,0,1.2,0.1,1.7,0.3s1,0.5,1.3,0.8l-0.5,1c-0.8-0.7-1.7-1-2.6-1c-0.6,0-1.1,0.1-1.4,0.3
			c-0.3,0.2-0.5,0.6-0.5,1c0,0.4,0.1,0.6,0.3,0.8c0.2,0.2,0.5,0.4,1,0.5l1.4,0.4c0.8,0.2,1.4,0.5,1.8,0.8s0.6,0.9,0.6,1.5
			c0,0.7-0.3,1.3-0.9,1.8c-0.6,0.4-1.4,0.7-2.4,0.7C195.6,379.8,194.5,379.4,193.6,378.7z"/>
		<path class="st12" d="M202,378.7l0.5-1c0.5,0.4,0.9,0.6,1.4,0.8c0.5,0.2,1,0.2,1.6,0.2c0.6,0,1.1-0.1,1.5-0.3s0.5-0.5,0.5-1
			c0-0.3-0.1-0.6-0.3-0.8c-0.2-0.2-0.6-0.4-1.1-0.5l-1.4-0.3c-0.7-0.2-1.3-0.4-1.7-0.8c-0.4-0.4-0.6-0.9-0.6-1.5
			c0-0.7,0.3-1.4,0.9-1.8c0.6-0.5,1.4-0.7,2.4-0.7c0.6,0,1.2,0.1,1.7,0.3c0.5,0.2,1,0.5,1.3,0.8l-0.5,1c-0.8-0.7-1.7-1-2.6-1
			c-0.6,0-1.1,0.1-1.4,0.3c-0.3,0.2-0.5,0.6-0.5,1c0,0.4,0.1,0.6,0.3,0.8c0.2,0.2,0.5,0.4,1,0.5l1.4,0.4c0.8,0.2,1.4,0.5,1.8,0.8
			s0.6,0.9,0.6,1.5c0,0.7-0.3,1.3-0.9,1.8s-1.4,0.7-2.4,0.7C204,379.8,202.9,379.4,202,378.7z"/>
		<path class="st12" d="M218.1,375.4h-6.3c0,1.1,0.3,1.9,0.8,2.5c0.5,0.6,1.2,0.8,2.1,0.8c1,0,1.9-0.3,2.8-1l0.5,1
			c-0.4,0.4-0.9,0.6-1.4,0.8c-0.6,0.2-1.2,0.3-1.8,0.3c-1.3,0-2.4-0.4-3.1-1.2c-0.8-0.8-1.1-1.9-1.1-3.2c0-0.9,0.2-1.6,0.5-2.3
			c0.3-0.7,0.8-1.2,1.4-1.6c0.6-0.4,1.3-0.6,2.1-0.6c1.1,0,2,0.4,2.7,1.1c0.6,0.7,1,1.8,1,3.1V375.4z M212.8,372.7
			c-0.4,0.4-0.7,1-0.9,1.8h5c-0.1-0.8-0.3-1.4-0.7-1.8c-0.4-0.4-1-0.6-1.7-0.6S213.2,372.2,212.8,372.7z"/>
		<path class="st12" d="M219.7,378.7l0.5-1c0.5,0.4,0.9,0.6,1.4,0.8c0.5,0.2,1,0.2,1.6,0.2c0.6,0,1.1-0.1,1.5-0.3s0.5-0.5,0.5-1
			c0-0.3-0.1-0.6-0.3-0.8c-0.2-0.2-0.6-0.4-1.1-0.5l-1.4-0.3c-0.7-0.2-1.3-0.4-1.7-0.8s-0.6-0.9-0.6-1.5c0-0.7,0.3-1.4,0.9-1.8
			c0.6-0.5,1.4-0.7,2.4-0.7c0.6,0,1.2,0.1,1.7,0.3s1,0.5,1.3,0.8l-0.5,1c-0.8-0.7-1.7-1-2.6-1c-0.6,0-1.1,0.1-1.4,0.3
			c-0.3,0.2-0.5,0.6-0.5,1c0,0.4,0.1,0.6,0.3,0.8c0.2,0.2,0.5,0.4,1,0.5l1.4,0.4c0.8,0.2,1.4,0.5,1.8,0.8s0.6,0.9,0.6,1.5
			c0,0.7-0.3,1.3-0.9,1.8c-0.6,0.4-1.4,0.7-2.4,0.7C221.7,379.8,220.5,379.4,219.7,378.7z"/>
		<path class="st12" d="M228.1,378.7l0.5-1c0.5,0.4,0.9,0.6,1.4,0.8c0.5,0.2,1,0.2,1.6,0.2c0.6,0,1.1-0.1,1.5-0.3s0.5-0.5,0.5-1
			c0-0.3-0.1-0.6-0.3-0.8c-0.2-0.2-0.6-0.4-1.1-0.5l-1.4-0.3c-0.7-0.2-1.3-0.4-1.7-0.8c-0.4-0.4-0.6-0.9-0.6-1.5
			c0-0.7,0.3-1.4,0.9-1.8c0.6-0.5,1.4-0.7,2.4-0.7c0.6,0,1.2,0.1,1.7,0.3c0.5,0.2,1,0.5,1.3,0.8l-0.5,1c-0.8-0.7-1.7-1-2.6-1
			c-0.6,0-1.1,0.1-1.4,0.3c-0.3,0.2-0.5,0.6-0.5,1c0,0.4,0.1,0.6,0.3,0.8c0.2,0.2,0.5,0.4,1,0.5l1.4,0.4c0.8,0.2,1.4,0.5,1.8,0.8
			s0.6,0.9,0.6,1.5c0,0.7-0.3,1.3-0.9,1.8s-1.4,0.7-2.4,0.7C230.1,379.8,229,379.4,228.1,378.7z"/>
		<path class="st12" d="M249.4,374.3v5.4H248v-5.3c0-0.8-0.1-1.4-0.4-1.7c-0.3-0.4-0.7-0.5-1.3-0.5c-0.7,0-1.3,0.2-1.7,0.7
			c-0.4,0.5-0.6,1.1-0.6,2v4.9h-1.4v-5.3c0-0.8-0.1-1.4-0.4-1.7c-0.3-0.4-0.7-0.6-1.4-0.6c-0.7,0-1.3,0.2-1.7,0.7
			c-0.4,0.5-0.6,1.1-0.6,2v4.9h-1.4v-6.1c0-0.9,0-1.7-0.1-2.4h1.3l0.1,1.5c0.2-0.5,0.6-1,1.1-1.3s1-0.4,1.6-0.4
			c0.7,0,1.2,0.1,1.7,0.4c0.4,0.3,0.7,0.7,1,1.3c0.3-0.5,0.6-0.9,1.1-1.2s1.1-0.5,1.7-0.5C248.4,370.9,249.4,372.1,249.4,374.3z"/>
		<path class="st12" d="M259.1,375.4h-6.3c0,1.1,0.3,1.9,0.8,2.5c0.5,0.6,1.2,0.8,2.1,0.8c1,0,1.9-0.3,2.8-1l0.5,1
			c-0.4,0.4-0.9,0.6-1.4,0.8c-0.6,0.2-1.2,0.3-1.8,0.3c-1.3,0-2.4-0.4-3.1-1.2c-0.8-0.8-1.1-1.9-1.1-3.2c0-0.9,0.2-1.6,0.5-2.3
			c0.3-0.7,0.8-1.2,1.4-1.6c0.6-0.4,1.3-0.6,2.1-0.6c1.1,0,2,0.4,2.7,1.1c0.6,0.7,1,1.8,1,3.1V375.4z M253.8,372.7
			c-0.4,0.4-0.7,1-0.9,1.8h5c-0.1-0.8-0.3-1.4-0.7-1.8c-0.4-0.4-1-0.6-1.7-0.6S254.2,372.2,253.8,372.7z"/>
		<path class="st12" d="M268.5,374.3v5.4h-1.4v-5.3c0-0.8-0.2-1.4-0.5-1.7c-0.3-0.4-0.8-0.6-1.5-0.6c-0.8,0-1.4,0.2-1.9,0.7
			c-0.5,0.5-0.7,1.1-0.7,2v4.9h-1.4v-6.1c0-0.9,0-1.7-0.1-2.4h1.3l0.1,1.5c0.3-0.6,0.7-1,1.2-1.3s1.1-0.5,1.8-0.5
			C267.5,370.9,268.5,372.1,268.5,374.3z"/>
		<path class="st12" d="M273,372.2v4.7c0,0.6,0.1,1.1,0.4,1.3s0.6,0.4,1.1,0.4c0.3,0,0.6-0.1,0.9-0.2v1.2c-0.4,0.1-0.7,0.2-1.2,0.2
			c-0.8,0-1.5-0.2-1.9-0.7c-0.5-0.5-0.7-1.1-0.7-2v-4.9h-1.7v-1.1h1.7V369l1.4-0.5v2.7h2.4v1.1H273z"/>
	</g>
	<rect x="167.8" y="528.6" class="st11" width="123.8" height="39.5"/>
	<g class="st6">
		<path class="st12" d="M198.7,543.1h-1.5l-1.5-4c-0.2-0.5-0.4-0.8-0.8-1s-0.8-0.3-1.4-0.3h-3v5.3h-1.4V531h4.8c1.3,0,2.3,0.3,3,0.9
			c0.7,0.6,1,1.4,1,2.5c0,0.8-0.2,1.5-0.6,2c-0.4,0.5-1,0.9-1.8,1.1c0.4,0.1,0.7,0.2,0.9,0.5c0.2,0.2,0.5,0.6,0.6,1L198.7,543.1z
			 M193.8,536.7c1.9,0,2.8-0.8,2.8-2.3c0-0.7-0.2-1.3-0.7-1.7c-0.5-0.4-1.2-0.6-2.1-0.6h-3.3v4.5H193.8z"/>
		<path class="st12" d="M207.9,538.8h-6.3c0,1.1,0.3,1.9,0.8,2.5c0.5,0.6,1.2,0.8,2.1,0.8c1,0,1.9-0.3,2.8-1l0.5,1
			c-0.4,0.4-0.9,0.6-1.4,0.8c-0.6,0.2-1.2,0.3-1.8,0.3c-1.3,0-2.4-0.4-3.1-1.2c-0.8-0.8-1.1-1.9-1.1-3.2c0-0.9,0.2-1.6,0.5-2.3
			c0.3-0.7,0.8-1.2,1.4-1.6c0.6-0.4,1.3-0.6,2.1-0.6c1.1,0,2,0.4,2.7,1.1s1,1.8,1,3.1V538.8z M202.5,536.1c-0.4,0.4-0.7,1-0.9,1.8h5
			c-0.1-0.8-0.3-1.4-0.7-1.8c-0.4-0.4-1-0.6-1.7-0.6S203,535.6,202.5,536.1z"/>
		<path class="st12" d="M217.5,534.6v8.5h-1.4v-1.5c-0.2,0.5-0.6,0.9-1.1,1.2c-0.5,0.3-1.1,0.4-1.8,0.4c-0.8,0-1.4-0.2-2-0.5
			c-0.6-0.4-1-0.9-1.3-1.5c-0.3-0.7-0.5-1.4-0.5-2.3c0-0.9,0.2-1.7,0.5-2.3c0.3-0.7,0.8-1.2,1.3-1.6c0.6-0.4,1.2-0.6,2-0.6
			c0.7,0,1.2,0.1,1.7,0.4s0.9,0.7,1.1,1.2v-1.5H217.5z M215.5,541.2c0.5-0.6,0.7-1.4,0.7-2.4s-0.2-1.9-0.7-2.4
			c-0.5-0.6-1.1-0.8-1.9-0.8c-0.8,0-1.5,0.3-2,0.9c-0.5,0.6-0.7,1.4-0.7,2.4s0.2,1.8,0.7,2.4c0.5,0.6,1.1,0.8,2,0.8
			C214.4,542.1,215,541.8,215.5,541.2z"/>
		<path class="st12" d="M227.7,530.6v12.5h-1.4v-1.5c-0.2,0.5-0.6,0.9-1.1,1.2c-0.5,0.3-1.1,0.4-1.8,0.4c-0.7,0-1.4-0.2-2-0.6
			c-0.6-0.4-1-0.9-1.3-1.6c-0.3-0.7-0.5-1.5-0.5-2.3s0.2-1.7,0.5-2.3c0.3-0.7,0.8-1.2,1.3-1.5c0.6-0.4,1.2-0.5,2-0.5
			c0.7,0,1.3,0.1,1.7,0.4c0.5,0.3,0.9,0.7,1.1,1.2v-5.4H227.7z M225.7,541.2c0.5-0.6,0.7-1.4,0.7-2.4c0-1-0.2-1.8-0.7-2.4
			c-0.5-0.6-1.1-0.9-1.9-0.9c-0.8,0-1.5,0.3-2,0.8c-0.5,0.6-0.7,1.4-0.7,2.4c0,1.1,0.2,1.9,0.7,2.5s1.1,0.9,2,0.9
			C224.6,542.1,225.2,541.8,225.7,541.2z"/>
		<path class="st12" d="M231.9,530.9v1.6h-1.7v-1.6H231.9z M230.4,534.6h1.4v8.5h-1.4V534.6z"/>
		<path class="st12" d="M241.7,537.7v5.4h-1.4v-5.3c0-0.8-0.2-1.4-0.5-1.7c-0.3-0.4-0.8-0.6-1.5-0.6c-0.8,0-1.4,0.2-1.9,0.7
			c-0.5,0.5-0.7,1.1-0.7,2v4.9h-1.4V537c0-0.9,0-1.7-0.1-2.4h1.3l0.1,1.5c0.3-0.6,0.7-1,1.2-1.3s1.1-0.5,1.8-0.5
			C240.7,534.4,241.7,535.5,241.7,537.7z"/>
		<path class="st12" d="M251.5,538.8h-6.3c0,1.1,0.3,1.9,0.8,2.5c0.5,0.6,1.2,0.8,2.1,0.8c1,0,1.9-0.3,2.8-1l0.5,1
			c-0.4,0.4-0.9,0.6-1.4,0.8c-0.6,0.2-1.2,0.3-1.8,0.3c-1.3,0-2.4-0.4-3.1-1.2c-0.8-0.8-1.1-1.9-1.1-3.2c0-0.9,0.2-1.6,0.5-2.3
			c0.3-0.7,0.8-1.2,1.4-1.6c0.6-0.4,1.3-0.6,2.1-0.6c1.1,0,2,0.4,2.7,1.1s1,1.8,1,3.1V538.8z M246.1,536.1c-0.4,0.4-0.7,1-0.9,1.8h5
			c-0.1-0.8-0.3-1.4-0.7-1.8c-0.4-0.4-1-0.6-1.7-0.6S246.6,535.6,246.1,536.1z"/>
		<path class="st12" d="M253,542.1l0.5-1c0.5,0.4,0.9,0.6,1.4,0.8c0.5,0.2,1,0.2,1.6,0.2c0.6,0,1.1-0.1,1.5-0.3s0.5-0.5,0.5-1
			c0-0.3-0.1-0.6-0.3-0.8c-0.2-0.2-0.6-0.4-1.1-0.5l-1.4-0.3c-0.7-0.2-1.3-0.4-1.7-0.8c-0.4-0.4-0.6-0.9-0.6-1.5
			c0-0.7,0.3-1.4,0.9-1.8c0.6-0.5,1.4-0.7,2.4-0.7c0.6,0,1.2,0.1,1.7,0.3c0.5,0.2,1,0.5,1.3,0.8l-0.5,1c-0.8-0.7-1.7-1-2.6-1
			c-0.6,0-1.1,0.1-1.4,0.3c-0.3,0.2-0.5,0.6-0.5,1c0,0.4,0.1,0.6,0.3,0.8c0.2,0.2,0.5,0.4,1,0.5l1.4,0.4c0.8,0.2,1.4,0.5,1.8,0.8
			s0.6,0.9,0.6,1.5c0,0.7-0.3,1.3-0.9,1.8c-0.6,0.4-1.4,0.7-2.4,0.7C255,543.2,253.9,542.8,253,542.1z"/>
		<path class="st12" d="M261.5,542.1l0.5-1c0.5,0.4,0.9,0.6,1.4,0.8c0.5,0.2,1,0.2,1.6,0.2c0.6,0,1.1-0.1,1.5-0.3s0.5-0.5,0.5-1
			c0-0.3-0.1-0.6-0.3-0.8c-0.2-0.2-0.6-0.4-1.1-0.5l-1.4-0.3c-0.7-0.2-1.3-0.4-1.7-0.8c-0.4-0.4-0.6-0.9-0.6-1.5
			c0-0.7,0.3-1.4,0.9-1.8c0.6-0.5,1.4-0.7,2.4-0.7c0.6,0,1.2,0.1,1.7,0.3c0.5,0.2,1,0.5,1.3,0.8l-0.5,1c-0.8-0.7-1.7-1-2.6-1
			c-0.6,0-1.1,0.1-1.4,0.3c-0.3,0.2-0.5,0.6-0.5,1c0,0.4,0.1,0.6,0.3,0.8c0.2,0.2,0.5,0.4,1,0.5l1.4,0.4c0.8,0.2,1.4,0.5,1.8,0.8
			s0.6,0.9,0.6,1.5c0,0.7-0.3,1.3-0.9,1.8s-1.4,0.7-2.4,0.7C263.4,543.2,262.3,542.8,261.5,542.1z"/>
	</g>
	<g class="st6">
		<path class="st12" d="M189.9,560.4h-6.3l-1.3,3.1h-1.4l5.3-12.1h1.2l5.3,12.1h-1.4L189.9,560.4z M189.4,559.2l-2.7-6.2l-2.7,6.2
			H189.4z"/>
		<path class="st12" d="M193.6,562.5l0.5-1c0.5,0.4,0.9,0.6,1.4,0.8c0.5,0.2,1,0.2,1.6,0.2c0.6,0,1.1-0.1,1.5-0.3s0.5-0.5,0.5-1
			c0-0.3-0.1-0.6-0.3-0.8c-0.2-0.2-0.6-0.4-1.1-0.5l-1.4-0.3c-0.7-0.2-1.3-0.4-1.7-0.8s-0.6-0.9-0.6-1.5c0-0.7,0.3-1.4,0.9-1.8
			c0.6-0.5,1.4-0.7,2.4-0.7c0.6,0,1.2,0.1,1.7,0.3s1,0.5,1.3,0.8l-0.5,1c-0.8-0.7-1.7-1-2.6-1c-0.6,0-1.1,0.1-1.4,0.3
			c-0.3,0.2-0.5,0.6-0.5,1c0,0.4,0.1,0.6,0.3,0.8c0.2,0.2,0.5,0.4,1,0.5l1.4,0.4c0.8,0.2,1.4,0.5,1.8,0.8s0.6,0.9,0.6,1.5
			c0,0.7-0.3,1.3-0.9,1.8c-0.6,0.4-1.4,0.7-2.4,0.7C195.6,563.6,194.5,563.2,193.6,562.5z"/>
		<path class="st12" d="M202,562.5l0.5-1c0.5,0.4,0.9,0.6,1.4,0.8c0.5,0.2,1,0.2,1.6,0.2c0.6,0,1.1-0.1,1.5-0.3s0.5-0.5,0.5-1
			c0-0.3-0.1-0.6-0.3-0.8c-0.2-0.2-0.6-0.4-1.1-0.5l-1.4-0.3c-0.7-0.2-1.3-0.4-1.7-0.8c-0.4-0.4-0.6-0.9-0.6-1.5
			c0-0.7,0.3-1.4,0.9-1.8c0.6-0.5,1.4-0.7,2.4-0.7c0.6,0,1.2,0.1,1.7,0.3c0.5,0.2,1,0.5,1.3,0.8l-0.5,1c-0.8-0.7-1.7-1-2.6-1
			c-0.6,0-1.1,0.1-1.4,0.3c-0.3,0.2-0.5,0.6-0.5,1c0,0.4,0.1,0.6,0.3,0.8c0.2,0.2,0.5,0.4,1,0.5l1.4,0.4c0.8,0.2,1.4,0.5,1.8,0.8
			s0.6,0.9,0.6,1.5c0,0.7-0.3,1.3-0.9,1.8s-1.4,0.7-2.4,0.7C204,563.6,202.9,563.2,202,562.5z"/>
		<path class="st12" d="M218.1,559.2h-6.3c0,1.1,0.3,1.9,0.8,2.5c0.5,0.6,1.2,0.8,2.1,0.8c1,0,1.9-0.3,2.8-1l0.5,1
			c-0.4,0.4-0.9,0.6-1.4,0.8c-0.6,0.2-1.2,0.3-1.8,0.3c-1.3,0-2.4-0.4-3.1-1.2c-0.8-0.8-1.1-1.9-1.1-3.2c0-0.9,0.2-1.6,0.5-2.3
			c0.3-0.7,0.8-1.2,1.4-1.6c0.6-0.4,1.3-0.6,2.1-0.6c1.1,0,2,0.4,2.7,1.1c0.6,0.7,1,1.8,1,3.1V559.2z M212.8,556.5
			c-0.4,0.4-0.7,1-0.9,1.8h5c-0.1-0.8-0.3-1.4-0.7-1.8c-0.4-0.4-1-0.6-1.7-0.6S213.2,556,212.8,556.5z"/>
		<path class="st12" d="M219.7,562.5l0.5-1c0.5,0.4,0.9,0.6,1.4,0.8c0.5,0.2,1,0.2,1.6,0.2c0.6,0,1.1-0.1,1.5-0.3s0.5-0.5,0.5-1
			c0-0.3-0.1-0.6-0.3-0.8c-0.2-0.2-0.6-0.4-1.1-0.5l-1.4-0.3c-0.7-0.2-1.3-0.4-1.7-0.8s-0.6-0.9-0.6-1.5c0-0.7,0.3-1.4,0.9-1.8
			c0.6-0.5,1.4-0.7,2.4-0.7c0.6,0,1.2,0.1,1.7,0.3s1,0.5,1.3,0.8l-0.5,1c-0.8-0.7-1.7-1-2.6-1c-0.6,0-1.1,0.1-1.4,0.3
			c-0.3,0.2-0.5,0.6-0.5,1c0,0.4,0.1,0.6,0.3,0.8c0.2,0.2,0.5,0.4,1,0.5l1.4,0.4c0.8,0.2,1.4,0.5,1.8,0.8s0.6,0.9,0.6,1.5
			c0,0.7-0.3,1.3-0.9,1.8c-0.6,0.4-1.4,0.7-2.4,0.7C221.7,563.6,220.5,563.2,219.7,562.5z"/>
		<path class="st12" d="M228.1,562.5l0.5-1c0.5,0.4,0.9,0.6,1.4,0.8c0.5,0.2,1,0.2,1.6,0.2c0.6,0,1.1-0.1,1.5-0.3s0.5-0.5,0.5-1
			c0-0.3-0.1-0.6-0.3-0.8c-0.2-0.2-0.6-0.4-1.1-0.5l-1.4-0.3c-0.7-0.2-1.3-0.4-1.7-0.8c-0.4-0.4-0.6-0.9-0.6-1.5
			c0-0.7,0.3-1.4,0.9-1.8c0.6-0.5,1.4-0.7,2.4-0.7c0.6,0,1.2,0.1,1.7,0.3c0.5,0.2,1,0.5,1.3,0.8l-0.5,1c-0.8-0.7-1.7-1-2.6-1
			c-0.6,0-1.1,0.1-1.4,0.3c-0.3,0.2-0.5,0.6-0.5,1c0,0.4,0.1,0.6,0.3,0.8c0.2,0.2,0.5,0.4,1,0.5l1.4,0.4c0.8,0.2,1.4,0.5,1.8,0.8
			s0.6,0.9,0.6,1.5c0,0.7-0.3,1.3-0.9,1.8s-1.4,0.7-2.4,0.7C230.1,563.6,229,563.2,228.1,562.5z"/>
		<path class="st12" d="M249.4,558.1v5.4H248v-5.3c0-0.8-0.1-1.4-0.4-1.7c-0.3-0.4-0.7-0.5-1.3-0.5c-0.7,0-1.3,0.2-1.7,0.7
			c-0.4,0.5-0.6,1.1-0.6,2v4.9h-1.4v-5.3c0-0.8-0.1-1.4-0.4-1.7c-0.3-0.4-0.7-0.6-1.4-0.6c-0.7,0-1.3,0.2-1.7,0.7
			c-0.4,0.5-0.6,1.1-0.6,2v4.9h-1.4v-6.1c0-0.9,0-1.7-0.1-2.4h1.3l0.1,1.5c0.2-0.5,0.6-1,1.1-1.3s1-0.4,1.6-0.4
			c0.7,0,1.2,0.1,1.7,0.4c0.4,0.3,0.7,0.7,1,1.3c0.3-0.5,0.6-0.9,1.1-1.2s1.1-0.5,1.7-0.5C248.4,554.8,249.4,555.9,249.4,558.1z"/>
		<path class="st12" d="M259.1,559.2h-6.3c0,1.1,0.3,1.9,0.8,2.5c0.5,0.6,1.2,0.8,2.1,0.8c1,0,1.9-0.3,2.8-1l0.5,1
			c-0.4,0.4-0.9,0.6-1.4,0.8c-0.6,0.2-1.2,0.3-1.8,0.3c-1.3,0-2.4-0.4-3.1-1.2c-0.8-0.8-1.1-1.9-1.1-3.2c0-0.9,0.2-1.6,0.5-2.3
			c0.3-0.7,0.8-1.2,1.4-1.6c0.6-0.4,1.3-0.6,2.1-0.6c1.1,0,2,0.4,2.7,1.1c0.6,0.7,1,1.8,1,3.1V559.2z M253.8,556.5
			c-0.4,0.4-0.7,1-0.9,1.8h5c-0.1-0.8-0.3-1.4-0.7-1.8c-0.4-0.4-1-0.6-1.7-0.6S254.2,556,253.8,556.5z"/>
		<path class="st12" d="M268.5,558.1v5.4h-1.4v-5.3c0-0.8-0.2-1.4-0.5-1.7c-0.3-0.4-0.8-0.6-1.5-0.6c-0.8,0-1.4,0.2-1.9,0.7
			c-0.5,0.5-0.7,1.1-0.7,2v4.9h-1.4v-6.1c0-0.9,0-1.7-0.1-2.4h1.3l0.1,1.5c0.3-0.6,0.7-1,1.2-1.3s1.1-0.5,1.8-0.5
			C267.5,554.8,268.5,555.9,268.5,558.1z"/>
		<path class="st12" d="M273,556v4.7c0,0.6,0.1,1.1,0.4,1.3s0.6,0.4,1.1,0.4c0.3,0,0.6-0.1,0.9-0.2v1.2c-0.4,0.1-0.7,0.2-1.2,0.2
			c-0.8,0-1.5-0.2-1.9-0.7c-0.5-0.5-0.7-1.1-0.7-2V556h-1.7V555h1.7v-2.2l1.4-0.5v2.7h2.4v1.1H273z"/>
	</g>
	<rect x="12.2" y="344.8" class="st11" width="123.8" height="39.5"/>
	<g class="st6">
		<path class="st12" d="M28.3,347.2h4.8c1.2,0,2.2,0.3,2.9,0.9c0.7,0.6,1,1.4,1,2.5c0,1.1-0.4,1.9-1.1,2.5c-0.7,0.6-1.7,0.9-2.9,0.9
			h-3.4v5.3h-1.4V347.2z M33,352.9c0.9,0,1.6-0.2,2-0.6s0.7-0.9,0.7-1.7s-0.2-1.3-0.7-1.7s-1.1-0.6-2-0.6h-3.3v4.5H33z"/>
		<path class="st12" d="M46.4,350.8v8.5h-1.4v-1.5c-0.2,0.5-0.6,0.9-1.1,1.2c-0.5,0.3-1.1,0.4-1.8,0.4c-0.8,0-1.4-0.2-2-0.5
			c-0.6-0.4-1-0.9-1.3-1.5c-0.3-0.7-0.5-1.4-0.5-2.3c0-0.9,0.2-1.7,0.5-2.3c0.3-0.7,0.8-1.2,1.3-1.6c0.6-0.4,1.2-0.6,2-0.6
			c0.7,0,1.3,0.1,1.7,0.4s0.9,0.7,1.1,1.2v-1.5H46.4z M44.4,357.4c0.5-0.6,0.7-1.4,0.7-2.4s-0.2-1.9-0.7-2.4
			c-0.5-0.6-1.1-0.8-1.9-0.8c-0.8,0-1.5,0.3-2,0.9c-0.5,0.6-0.7,1.4-0.7,2.4s0.2,1.8,0.7,2.4c0.5,0.6,1.1,0.8,2,0.8
			C43.3,358.3,43.9,358,44.4,357.4z"/>
		<path class="st12" d="M53.8,350.7l0,1.3c-0.3-0.1-0.6-0.1-0.9-0.1c-0.8,0-1.4,0.3-1.8,0.8c-0.4,0.5-0.6,1.1-0.6,1.9v4.9h-1.4v-6.1
			c0-0.9,0-1.7-0.1-2.4h1.3l0.1,1.6c0.2-0.6,0.6-1,1-1.3c0.5-0.3,1-0.5,1.6-0.5C53.3,350.6,53.6,350.6,53.8,350.7z"/>
		<path class="st12" d="M57.7,351.9v4.7c0,0.6,0.1,1.1,0.4,1.3c0.3,0.3,0.6,0.4,1.1,0.4c0.3,0,0.6-0.1,0.9-0.2v1.2
			c-0.4,0.1-0.7,0.2-1.2,0.2c-0.8,0-1.5-0.2-1.9-0.7c-0.5-0.5-0.7-1.1-0.7-2v-4.9h-1.7v-1.1h1.7v-2.2l1.4-0.5v2.7h2.4v1.1H57.7z"/>
		<path class="st12" d="M69.2,354v5.4h-1.4V354c0-0.8-0.2-1.4-0.5-1.7c-0.3-0.4-0.8-0.6-1.5-0.6c-0.8,0-1.4,0.2-1.9,0.7
			c-0.5,0.5-0.7,1.1-0.7,2v4.9h-1.4v-6.1c0-0.9,0-1.7-0.1-2.4H63l0.1,1.5c0.3-0.6,0.7-1,1.2-1.3s1.1-0.5,1.8-0.5
			C68.1,350.6,69.2,351.7,69.2,354z"/>
		<path class="st12" d="M78.9,355h-6.3c0,1.1,0.3,1.9,0.8,2.5c0.5,0.6,1.2,0.8,2.1,0.8c1,0,1.9-0.3,2.8-1l0.5,1
			c-0.4,0.4-0.9,0.6-1.4,0.8c-0.6,0.2-1.2,0.3-1.8,0.3c-1.3,0-2.4-0.4-3.1-1.2c-0.8-0.8-1.1-1.9-1.1-3.2c0-0.9,0.2-1.6,0.5-2.3
			c0.3-0.7,0.8-1.2,1.4-1.6c0.6-0.4,1.3-0.6,2.1-0.6c1.1,0,2,0.4,2.7,1.1s1,1.8,1,3.1V355z M73.5,352.3c-0.4,0.4-0.7,1-0.9,1.8h5
			c-0.1-0.8-0.3-1.4-0.7-1.8c-0.4-0.4-1-0.6-1.7-0.6S74,351.9,73.5,352.3z"/>
		<path class="st12" d="M85.7,350.7l0,1.3c-0.3-0.1-0.6-0.1-0.9-0.1c-0.8,0-1.4,0.3-1.8,0.8c-0.4,0.5-0.6,1.1-0.6,1.9v4.9H81v-6.1
			c0-0.9,0-1.7-0.1-2.4h1.3l0.1,1.6c0.2-0.6,0.6-1,1-1.3c0.5-0.3,1-0.5,1.6-0.5C85.2,350.6,85.5,350.6,85.7,350.7z"/>
		<path class="st12" d="M86.5,358.3l0.5-1c0.5,0.4,0.9,0.6,1.4,0.8c0.5,0.2,1,0.2,1.6,0.2c0.6,0,1.1-0.1,1.5-0.3s0.5-0.5,0.5-1
			c0-0.3-0.1-0.6-0.3-0.8c-0.2-0.2-0.6-0.4-1.1-0.5l-1.4-0.3c-0.7-0.2-1.3-0.4-1.7-0.8c-0.4-0.4-0.6-0.9-0.6-1.5
			c0-0.7,0.3-1.4,0.9-1.8c0.6-0.5,1.4-0.7,2.4-0.7c0.6,0,1.2,0.1,1.7,0.3c0.5,0.2,1,0.5,1.3,0.8l-0.5,1c-0.8-0.7-1.7-1-2.6-1
			c-0.6,0-1.1,0.1-1.4,0.3c-0.3,0.2-0.5,0.6-0.5,1c0,0.4,0.1,0.6,0.3,0.8c0.2,0.2,0.5,0.4,1,0.5l1.4,0.4c0.8,0.2,1.4,0.5,1.8,0.8
			s0.6,0.9,0.6,1.5c0,0.7-0.3,1.3-0.9,1.8c-0.6,0.4-1.4,0.7-2.4,0.7C88.5,359.4,87.4,359.1,86.5,358.3z"/>
		<path class="st12" d="M102.8,354v5.4h-1.4V354c0-0.8-0.2-1.4-0.5-1.7c-0.3-0.4-0.8-0.6-1.5-0.6c-0.8,0-1.4,0.2-1.9,0.7
			c-0.5,0.5-0.7,1.1-0.7,2v4.9h-1.4v-12.5h1.4v5.3c0.3-0.5,0.7-0.9,1.2-1.2c0.5-0.3,1.1-0.4,1.7-0.4
			C101.8,350.6,102.8,351.7,102.8,354z"/>
		<path class="st12" d="M106.9,347.2v1.6h-1.7v-1.6H106.9z M105.4,350.8h1.4v8.5h-1.4V350.8z"/>
		<path class="st12" d="M115.7,351.1c0.6,0.4,1,0.9,1.3,1.6c0.3,0.7,0.5,1.5,0.5,2.3c0,0.9-0.2,1.7-0.5,2.3
			c-0.3,0.7-0.8,1.2-1.3,1.5c-0.6,0.4-1.2,0.5-2,0.5c-0.7,0-1.3-0.1-1.7-0.4c-0.5-0.3-0.9-0.7-1.1-1.3v5.2h-1.4v-9.8
			c0-0.9,0-1.7-0.1-2.4h1.3l0.1,1.6c0.2-0.6,0.6-1,1.1-1.4c0.5-0.3,1.1-0.5,1.8-0.5C114.4,350.6,115.1,350.8,115.7,351.1z
			 M115.4,357.5c0.5-0.6,0.7-1.4,0.7-2.4s-0.2-1.9-0.7-2.4c-0.5-0.6-1.1-0.9-1.9-0.9c-0.8,0-1.5,0.3-2,0.8c-0.5,0.6-0.7,1.4-0.7,2.4
			s0.2,1.9,0.7,2.4c0.5,0.6,1.1,0.9,2,0.9C114.3,358.3,114.9,358,115.4,357.5z"/>
	</g>
	<g class="st6">
		<path class="st12" d="M18,367.6h7.6v1.2h-6.3v4.2h5.9v1.2h-5.9v4.4h6.3v1.2H18V367.6z"/>
		<path class="st12" d="M27.3,378.7l0.5-1c0.5,0.4,0.9,0.6,1.4,0.8c0.5,0.2,1,0.2,1.6,0.2c0.6,0,1.1-0.1,1.5-0.3s0.5-0.5,0.5-1
			c0-0.3-0.1-0.6-0.3-0.8c-0.2-0.2-0.6-0.4-1.1-0.5l-1.4-0.3c-0.7-0.2-1.3-0.4-1.7-0.8c-0.4-0.4-0.6-0.9-0.6-1.5
			c0-0.7,0.3-1.4,0.9-1.8c0.6-0.5,1.4-0.7,2.4-0.7c0.6,0,1.2,0.1,1.7,0.3c0.5,0.2,1,0.5,1.3,0.8l-0.5,1c-0.8-0.7-1.7-1-2.6-1
			c-0.6,0-1.1,0.1-1.4,0.3c-0.3,0.2-0.5,0.6-0.5,1c0,0.4,0.1,0.6,0.3,0.8c0.2,0.2,0.5,0.4,1,0.5l1.4,0.4c0.8,0.2,1.4,0.5,1.8,0.8
			s0.6,0.9,0.6,1.5c0,0.7-0.3,1.3-0.9,1.8c-0.6,0.4-1.4,0.7-2.4,0.7C29.2,379.8,28.1,379.5,27.3,378.7z"/>
		<path class="st12" d="M38,372.3v4.7c0,0.6,0.1,1.1,0.4,1.3c0.3,0.3,0.6,0.4,1.1,0.4c0.3,0,0.6-0.1,0.9-0.2v1.2
			c-0.4,0.1-0.7,0.2-1.2,0.2c-0.8,0-1.5-0.2-1.9-0.7c-0.5-0.5-0.7-1.1-0.7-2v-4.9h-1.7v-1.1h1.7V369l1.4-0.5v2.7h2.4v1.1H38z"/>
		<path class="st12" d="M49.6,371.2v8.5h-1.4v-1.5c-0.2,0.5-0.6,0.9-1.1,1.2c-0.5,0.3-1.1,0.4-1.8,0.4c-0.8,0-1.4-0.2-2-0.5
			c-0.6-0.4-1-0.9-1.3-1.5c-0.3-0.7-0.5-1.4-0.5-2.3c0-0.9,0.2-1.7,0.5-2.3c0.3-0.7,0.8-1.2,1.3-1.6c0.6-0.4,1.2-0.6,2-0.6
			c0.7,0,1.3,0.1,1.7,0.4s0.9,0.7,1.1,1.2v-1.5H49.6z M47.6,377.8c0.5-0.6,0.7-1.4,0.7-2.4s-0.2-1.9-0.7-2.4
			c-0.5-0.6-1.1-0.8-1.9-0.8c-0.8,0-1.5,0.3-2,0.9c-0.5,0.6-0.7,1.4-0.7,2.4s0.2,1.8,0.7,2.4c0.5,0.6,1.1,0.8,2,0.8
			C46.5,378.7,47.1,378.4,47.6,377.8z"/>
		<path class="st12" d="M58.5,371.5c0.6,0.4,1,0.9,1.3,1.5c0.3,0.7,0.5,1.4,0.5,2.3s-0.2,1.7-0.5,2.3c-0.3,0.7-0.8,1.2-1.3,1.6
			s-1.2,0.6-2,0.6c-0.7,0-1.3-0.1-1.7-0.4c-0.5-0.3-0.9-0.7-1.1-1.3v1.6h-1.4v-12.5h1.4v5.5c0.2-0.6,0.6-1,1.1-1.3
			c0.5-0.3,1.1-0.4,1.8-0.4C57.3,371,57.9,371.2,58.5,371.5z M58.2,377.8c0.5-0.6,0.7-1.4,0.7-2.5c0-1-0.2-1.8-0.7-2.4
			c-0.5-0.6-1.1-0.8-1.9-0.8c-0.8,0-1.5,0.3-2,0.8c-0.5,0.6-0.7,1.4-0.7,2.4s0.2,1.9,0.7,2.4c0.5,0.6,1.1,0.9,2,0.9
			C57.1,378.7,57.7,378.4,58.2,377.8z"/>
		<path class="st12" d="M62.4,367.2h1.4v12.5h-1.4V367.2z"/>
		<path class="st12" d="M68,367.6v1.6h-1.7v-1.6H68z M66.5,371.2h1.4v8.5h-1.4V371.2z"/>
		<path class="st12" d="M70,378.7l0.5-1c0.5,0.4,0.9,0.6,1.4,0.8c0.5,0.2,1,0.2,1.6,0.2c0.6,0,1.1-0.1,1.5-0.3s0.5-0.5,0.5-1
			c0-0.3-0.1-0.6-0.3-0.8c-0.2-0.2-0.6-0.4-1.1-0.5l-1.4-0.3c-0.7-0.2-1.3-0.4-1.7-0.8c-0.4-0.4-0.6-0.9-0.6-1.5
			c0-0.7,0.3-1.4,0.9-1.8c0.6-0.5,1.4-0.7,2.4-0.7c0.6,0,1.2,0.1,1.7,0.3c0.5,0.2,1,0.5,1.3,0.8l-0.5,1c-0.8-0.7-1.7-1-2.6-1
			c-0.6,0-1.1,0.1-1.4,0.3c-0.3,0.2-0.5,0.6-0.5,1c0,0.4,0.1,0.6,0.3,0.8c0.2,0.2,0.5,0.4,1,0.5l1.4,0.4c0.8,0.2,1.4,0.5,1.8,0.8
			s0.6,0.9,0.6,1.5c0,0.7-0.3,1.3-0.9,1.8c-0.6,0.4-1.4,0.7-2.4,0.7C72,379.8,70.8,379.5,70,378.7z"/>
		<path class="st12" d="M86.3,374.4v5.4h-1.4v-5.3c0-0.8-0.2-1.4-0.5-1.7c-0.3-0.4-0.8-0.6-1.5-0.6c-0.8,0-1.4,0.2-1.9,0.7
			c-0.5,0.5-0.7,1.1-0.7,2v4.9h-1.4v-12.5h1.4v5.3c0.3-0.5,0.7-0.9,1.2-1.2c0.5-0.3,1.1-0.4,1.7-0.4C85.2,371,86.3,372.1,86.3,374.4
			z"/>
		<path class="st12" d="M101.2,374.4v5.4h-1.4v-5.3c0-0.8-0.1-1.4-0.4-1.7c-0.3-0.4-0.7-0.5-1.3-0.5c-0.7,0-1.3,0.2-1.7,0.7
			c-0.4,0.5-0.6,1.1-0.6,2v4.9h-1.4v-5.3c0-0.8-0.1-1.4-0.4-1.7c-0.3-0.4-0.7-0.6-1.4-0.6c-0.7,0-1.3,0.2-1.7,0.7
			c-0.4,0.5-0.6,1.1-0.6,2v4.9h-1.4v-6.1c0-0.9,0-1.7-0.1-2.4H90l0.1,1.5c0.2-0.5,0.6-1,1.1-1.3s1-0.4,1.6-0.4
			c0.7,0,1.2,0.1,1.7,0.4s0.7,0.7,1,1.3c0.3-0.5,0.6-0.9,1.1-1.2c0.5-0.3,1.1-0.5,1.7-0.5C100.2,371,101.2,372.1,101.2,374.4z"/>
		<path class="st12" d="M110.9,375.4h-6.3c0,1.1,0.3,1.9,0.8,2.5c0.5,0.6,1.2,0.8,2.1,0.8c1,0,1.9-0.3,2.8-1l0.5,1
			c-0.4,0.4-0.9,0.6-1.4,0.8c-0.6,0.2-1.2,0.3-1.8,0.3c-1.3,0-2.4-0.4-3.1-1.2c-0.8-0.8-1.1-1.9-1.1-3.2c0-0.9,0.2-1.6,0.5-2.3
			c0.3-0.7,0.8-1.2,1.4-1.6c0.6-0.4,1.3-0.6,2.1-0.6c1.1,0,2,0.4,2.7,1.1s1,1.8,1,3.1V375.4z M105.6,372.7c-0.4,0.4-0.7,1-0.9,1.8h5
			c-0.1-0.8-0.3-1.4-0.7-1.8c-0.4-0.4-1-0.6-1.7-0.6S106,372.3,105.6,372.7z"/>
		<path class="st12" d="M120.4,374.4v5.4H119v-5.3c0-0.8-0.2-1.4-0.5-1.7c-0.3-0.4-0.8-0.6-1.5-0.6c-0.8,0-1.4,0.2-1.9,0.7
			c-0.5,0.5-0.7,1.1-0.7,2v4.9H113v-6.1c0-0.9,0-1.7-0.1-2.4h1.3l0.1,1.5c0.3-0.6,0.7-1,1.2-1.3s1.1-0.5,1.8-0.5
			C119.3,371,120.4,372.1,120.4,374.4z"/>
		<path class="st12" d="M124.8,372.3v4.7c0,0.6,0.1,1.1,0.4,1.3c0.3,0.3,0.6,0.4,1.1,0.4c0.3,0,0.6-0.1,0.9-0.2v1.2
			c-0.4,0.1-0.7,0.2-1.2,0.2c-0.8,0-1.5-0.2-1.9-0.7c-0.5-0.5-0.7-1.1-0.7-2v-4.9h-1.7v-1.1h1.7V369l1.4-0.5v2.7h2.4v1.1H124.8z"/>
	</g>
	
		<rect x="54.3" y="486.4" transform="matrix(3.592877e-03 -1 1 3.592877e-03 -474.4597 620.336)" class="st11" width="39.5" height="123.8"/>
	<g class="st6">
		<path class="st12" d="M35.2,530.8l7.5,0l0,1.2l-6.1,0l0,4.2l5.8,0l0,1.2l-5.8,0l0,5.6l-1.4,0L35.2,530.8z"/>
		<path class="st12" d="M51.6,538.7l-6.3,0c0,1.1,0.3,1.9,0.7,2.5c0.5,0.6,1.2,0.8,2.1,0.8c1,0,1.9-0.3,2.8-1l0.5,1
			c-0.4,0.3-0.9,0.6-1.4,0.8c-0.6,0.2-1.2,0.3-1.8,0.3c-1.3,0-2.4-0.4-3.1-1.2c-0.8-0.8-1.1-1.9-1.1-3.2c0-0.9,0.2-1.6,0.5-2.3
			c0.3-0.7,0.8-1.2,1.4-1.6s1.3-0.6,2.1-0.6c1.1,0,2,0.4,2.7,1.1c0.6,0.7,1,1.8,1,3.1L51.6,538.7z M46.2,535.9
			c-0.4,0.4-0.7,1-0.9,1.8l5,0c-0.1-0.8-0.3-1.4-0.7-1.8c-0.4-0.4-1-0.6-1.7-0.6S46.7,535.5,46.2,535.9z"/>
		<path class="st12" d="M61.2,530.5l0,12.5l-1.4,0l0-1.5c-0.3,0.5-0.6,0.9-1.1,1.2c-0.5,0.3-1.1,0.4-1.8,0.4c-0.7,0-1.4-0.2-2-0.6
			c-0.6-0.4-1-0.9-1.3-1.6c-0.3-0.7-0.5-1.5-0.5-2.3c0-0.9,0.2-1.7,0.5-2.3c0.3-0.7,0.8-1.2,1.3-1.5c0.6-0.4,1.2-0.5,2-0.5
			c0.7,0,1.2,0.1,1.7,0.4c0.5,0.3,0.9,0.7,1.1,1.2l0-5.4L61.2,530.5z M59.1,541.1c0.5-0.6,0.7-1.4,0.7-2.4c0-1-0.2-1.8-0.7-2.4
			c-0.5-0.6-1.1-0.9-1.9-0.9c-0.8,0-1.5,0.3-2,0.8c-0.5,0.6-0.7,1.4-0.7,2.4c0,1.1,0.2,1.9,0.7,2.5s1.1,0.9,2,0.9
			C58,542,58.7,541.7,59.1,541.1z"/>
		<path class="st12" d="M73.5,543.1l-1.5,0l-1.5-4c-0.2-0.5-0.4-0.8-0.8-1c-0.3-0.2-0.8-0.3-1.4-0.3l-3,0l0,5.3l-1.4,0l0-12.1l4.8,0
			c1.3,0,2.3,0.3,3,0.9c0.7,0.6,1,1.4,1,2.5c0,0.8-0.2,1.5-0.6,2c-0.4,0.5-1,0.9-1.8,1.1c0.4,0.1,0.7,0.2,0.9,0.5
			c0.2,0.2,0.5,0.6,0.6,1L73.5,543.1z M68.7,536.6c1.9,0,2.8-0.7,2.8-2.3c0-0.7-0.2-1.3-0.7-1.7c-0.5-0.4-1.2-0.6-2.1-0.6l-3.3,0
			l0,4.5L68.7,536.6z"/>
		<path class="st12" d="M83.6,540l-6.3,0l-1.4,3.1l-1.4,0l5.4-12.1l1.2,0l5.3,12.1l-1.4,0L83.6,540z M83.1,538.8l-2.6-6.2l-2.7,6.2
			L83.1,538.8z"/>
		<path class="st12" d="M99.6,531.1l0,12.1l-1.3,0l0-9l-4,9l-1,0l-3.9-8.9l0,8.9l-1.3,0l0-12.1l1.2,0l4.5,10.4l4.6-10.4L99.6,531.1z
			"/>
		<path class="st12" d="M102.6,531.1l4.8,0c1.2,0,2.2,0.3,2.9,0.9c0.7,0.6,1,1.4,1,2.5c0,1.1-0.4,1.9-1.1,2.5
			c-0.7,0.6-1.7,0.9-2.9,0.9l-3.4,0l0,5.3l-1.4,0L102.6,531.1z M107.3,536.7c0.9,0,1.6-0.2,2-0.6c0.5-0.4,0.7-0.9,0.7-1.7
			c0-0.7-0.2-1.3-0.7-1.7c-0.5-0.4-1.1-0.6-2-0.6l-3.3,0l0,4.5L107.3,536.7z"/>
	</g>
	<g class="st6">
		<path class="st12" d="M44.3,562.7c-0.8-0.5-1.5-1.2-1.9-2.2c-0.4-0.9-0.7-2-0.7-3.3c0-1.3,0.2-2.4,0.7-3.3c0.5-0.9,1.1-1.6,2-2.1
			c0.8-0.5,1.8-0.7,3-0.7c0.8,0,1.6,0.1,2.3,0.4c0.7,0.3,1.3,0.6,1.8,1.2l-0.5,1.1c-0.6-0.5-1.1-0.9-1.7-1.1
			c-0.6-0.2-1.2-0.3-1.9-0.3c-1.3,0-2.4,0.4-3.1,1.3s-1.1,2.1-1.1,3.7c0,1.6,0.4,2.8,1.1,3.7c0.7,0.9,1.7,1.3,3.1,1.3
			c0.7,0,1.3-0.1,1.9-0.3s1.1-0.6,1.7-1.1l0.5,1.1c-0.5,0.5-1.1,0.9-1.8,1.1c-0.7,0.3-1.5,0.4-2.3,0.4
			C46.1,563.5,45.1,563.2,44.3,562.7z"/>
		<path class="st12" d="M54.8,563c-0.6-0.4-1.1-0.9-1.4-1.5c-0.3-0.7-0.5-1.5-0.5-2.3s0.2-1.7,0.5-2.3c0.3-0.7,0.8-1.2,1.4-1.5
			c0.6-0.4,1.3-0.5,2.1-0.5c0.8,0,1.5,0.2,2.1,0.5c0.6,0.4,1.1,0.9,1.4,1.6c0.3,0.7,0.5,1.5,0.5,2.3s-0.2,1.7-0.5,2.3
			c-0.3,0.7-0.8,1.2-1.4,1.5c-0.6,0.4-1.3,0.5-2.1,0.5C56.1,563.5,55.4,563.3,54.8,563z M58.9,561.5c0.5-0.6,0.7-1.4,0.7-2.5
			c0-1-0.2-1.8-0.7-2.4c-0.5-0.6-1.1-0.9-1.9-0.9c-0.8,0-1.5,0.3-2,0.8c-0.5,0.6-0.7,1.4-0.7,2.4c0,1.1,0.2,1.9,0.7,2.5
			c0.5,0.6,1.1,0.8,2,0.8C57.8,562.4,58.4,562.1,58.9,561.5z"/>
		<path class="st12" d="M70.5,558.1l0,5.4l-1.4,0l0-5.3c0-0.8-0.2-1.4-0.5-1.7c-0.3-0.4-0.8-0.6-1.5-0.6c-0.8,0-1.4,0.2-1.9,0.7
			c-0.5,0.5-0.7,1.1-0.7,2l0,4.9l-1.4,0l0-6.1c0-0.9,0-1.7-0.1-2.4l1.3,0l0.1,1.5c0.3-0.6,0.7-1,1.2-1.3c0.5-0.3,1.1-0.4,1.8-0.4
			C69.4,554.7,70.5,555.8,70.5,558.1z"/>
		<path class="st12" d="M80.4,558.1l0,5.4l-1.4,0l0-5.3c0-0.8-0.2-1.4-0.5-1.7c-0.3-0.4-0.8-0.6-1.5-0.6c-0.8,0-1.4,0.2-1.9,0.7
			c-0.5,0.5-0.7,1.1-0.7,2l0,4.9l-1.4,0l0-6.1c0-0.9,0-1.7-0.1-2.4l1.3,0l0.1,1.5c0.3-0.6,0.7-1,1.2-1.3s1.1-0.4,1.8-0.4
			C79.4,554.7,80.4,555.9,80.4,558.1z"/>
		<path class="st12" d="M90.1,559.2l-6.3,0c0,1.1,0.3,1.9,0.7,2.5c0.5,0.6,1.2,0.8,2.1,0.8c1,0,1.9-0.3,2.8-1l0.5,1
			c-0.4,0.3-0.9,0.6-1.4,0.8c-0.6,0.2-1.2,0.3-1.8,0.3c-1.3,0-2.4-0.4-3.1-1.2c-0.8-0.8-1.1-1.9-1.1-3.2c0-0.9,0.2-1.6,0.5-2.3
			c0.3-0.7,0.8-1.2,1.4-1.6c0.6-0.4,1.3-0.6,2.1-0.6c1.1,0,2,0.4,2.7,1.1c0.6,0.7,1,1.8,1,3.1L90.1,559.2z M84.8,556.5
			c-0.4,0.4-0.7,1-0.9,1.8l5,0c-0.1-0.8-0.3-1.4-0.7-1.8s-1-0.6-1.7-0.6C85.8,555.8,85.2,556,84.8,556.5z"/>
		<path class="st12" d="M93.6,563.1c-0.6-0.4-1.1-0.9-1.4-1.5c-0.3-0.7-0.5-1.4-0.5-2.3c0-0.9,0.2-1.7,0.5-2.3
			c0.3-0.7,0.8-1.2,1.5-1.6c0.6-0.4,1.4-0.6,2.2-0.6c0.6,0,1.1,0.1,1.7,0.3c0.5,0.2,1,0.5,1.3,0.8l-0.5,1c-0.4-0.3-0.8-0.6-1.2-0.8
			s-0.8-0.2-1.2-0.2c-0.9,0-1.6,0.3-2.1,0.9c-0.5,0.6-0.8,1.4-0.8,2.4c0,1,0.2,1.8,0.7,2.4c0.5,0.6,1.2,0.9,2.1,0.9
			c0.4,0,0.8-0.1,1.2-0.2c0.4-0.2,0.8-0.4,1.2-0.7l0.5,1c-0.4,0.3-0.8,0.6-1.4,0.8c-0.5,0.2-1.1,0.3-1.7,0.3
			C94.9,563.6,94.2,563.5,93.6,563.1z"/>
		<path class="st12" d="M102.5,556.1l0,4.7c0,0.6,0.1,1.1,0.4,1.3c0.3,0.3,0.6,0.4,1.1,0.4c0.3,0,0.6,0,0.9-0.2l0,1.2
			c-0.4,0.1-0.7,0.2-1.2,0.2c-0.8,0-1.5-0.2-1.9-0.7c-0.5-0.5-0.7-1.1-0.7-2l0-4.9l-1.7,0l0-1.1l1.7,0l0-2.2l1.4-0.5l0,2.7l2.4,0
			l0,1.1L102.5,556.1z"/>
	</g>
	<g>
		<g class="st6">
			<path class="st12" d="M50.8,707.4h7.5v1.2h-6.1v4.2h5.8v1.2h-5.8v5.6h-1.4V707.4z"/>
			<path class="st12" d="M67.1,711v8.5h-1.3V718c-0.3,0.5-0.7,0.9-1.1,1.2c-0.5,0.3-1,0.4-1.6,0.4c-1,0-1.8-0.3-2.3-0.8
				c-0.5-0.6-0.8-1.4-0.8-2.5V711h1.4v5.3c0,0.8,0.2,1.3,0.5,1.7c0.3,0.4,0.8,0.5,1.4,0.5c0.8,0,1.4-0.2,1.8-0.7
				c0.5-0.5,0.7-1.1,0.7-1.9V711H67.1z"/>
			<path class="st12" d="M69.8,707h1.4v12.5h-1.4V707z"/>
			<path class="st12" d="M73.8,707h1.4v12.5h-1.4V707z"/>
			<path class="st12" d="M81.8,718.1l0.5-1.1c0.6,0.5,1.2,0.9,1.8,1.1c0.6,0.2,1.3,0.3,2.2,0.3c1,0,1.7-0.2,2.2-0.6
				c0.5-0.4,0.8-0.9,0.8-1.6c0-0.4-0.1-0.7-0.4-1c-0.3-0.3-0.6-0.5-1-0.6c-0.4-0.1-1-0.3-1.7-0.5c-0.9-0.2-1.7-0.4-2.3-0.7
				c-0.6-0.2-1.1-0.6-1.5-1c-0.4-0.4-0.6-1-0.6-1.8c0-0.7,0.2-1.3,0.5-1.8s0.9-0.9,1.5-1.2c0.7-0.3,1.4-0.4,2.3-0.4
				c0.8,0,1.6,0.1,2.3,0.4c0.7,0.3,1.3,0.6,1.8,1.1l-0.5,1.1c-0.6-0.5-1.1-0.8-1.7-1.1c-0.6-0.2-1.2-0.3-1.9-0.3
				c-0.9,0-1.7,0.2-2.2,0.6c-0.5,0.4-0.8,1-0.8,1.7c0,0.6,0.2,1.1,0.7,1.4c0.5,0.3,1.2,0.6,2.1,0.8c1,0.2,1.9,0.5,2.5,0.7
				c0.6,0.2,1.1,0.5,1.5,1c0.4,0.4,0.6,1,0.6,1.7c0,0.7-0.2,1.3-0.5,1.8c-0.4,0.5-0.9,0.9-1.6,1.2c-0.7,0.3-1.5,0.4-2.4,0.4
				C84.4,719.6,82.9,719.1,81.8,718.1z"/>
			<path class="st12" d="M100,715.2h-6.3c0,1.1,0.3,1.9,0.8,2.5c0.5,0.6,1.2,0.8,2.1,0.8c1,0,1.9-0.3,2.8-1l0.5,1
				c-0.4,0.4-0.9,0.6-1.4,0.8c-0.6,0.2-1.2,0.3-1.8,0.3c-1.3,0-2.4-0.4-3.1-1.2c-0.8-0.8-1.1-1.9-1.1-3.2c0-0.9,0.2-1.6,0.5-2.3
				c0.3-0.7,0.8-1.2,1.4-1.6c0.6-0.4,1.3-0.6,2.1-0.6c1.1,0,2,0.4,2.7,1.1s1,1.8,1,3.1V715.2z M94.7,712.5c-0.4,0.4-0.7,1-0.9,1.8h5
				c-0.1-0.8-0.3-1.4-0.7-1.8c-0.4-0.4-1-0.6-1.7-0.6S95.1,712,94.7,712.5z"/>
			<path class="st12" d="M103.5,719.1c-0.6-0.4-1.1-0.9-1.4-1.5s-0.5-1.4-0.5-2.3c0-0.9,0.2-1.7,0.5-2.3c0.3-0.7,0.8-1.2,1.5-1.6
				c0.6-0.4,1.4-0.6,2.2-0.6c0.6,0,1.1,0.1,1.7,0.3c0.5,0.2,1,0.5,1.3,0.8l-0.5,1c-0.4-0.3-0.8-0.6-1.2-0.7
				c-0.4-0.2-0.8-0.2-1.2-0.2c-0.9,0-1.6,0.3-2.1,0.9c-0.5,0.6-0.7,1.4-0.7,2.4c0,1,0.2,1.8,0.7,2.4c0.5,0.6,1.2,0.9,2.1,0.9
				c0.4,0,0.8-0.1,1.2-0.2c0.4-0.2,0.8-0.4,1.2-0.7l0.5,1c-0.4,0.3-0.8,0.6-1.4,0.8c-0.5,0.2-1.1,0.3-1.7,0.3
				C104.9,719.6,104.1,719.4,103.5,719.1z"/>
			<path class="st12" d="M117.7,711v8.5h-1.3V718c-0.3,0.5-0.7,0.9-1.1,1.2c-0.5,0.3-1,0.4-1.6,0.4c-1,0-1.8-0.3-2.3-0.8
				c-0.5-0.6-0.8-1.4-0.8-2.5V711h1.4v5.3c0,0.8,0.2,1.3,0.5,1.7c0.3,0.4,0.8,0.5,1.4,0.5c0.8,0,1.4-0.2,1.8-0.7
				c0.5-0.5,0.7-1.1,0.7-1.9V711H117.7z"/>
			<path class="st12" d="M125.1,710.9l0,1.3c-0.3-0.1-0.6-0.1-0.9-0.1c-0.8,0-1.4,0.3-1.8,0.8c-0.4,0.5-0.6,1.1-0.6,1.9v4.9h-1.4
				v-6.1c0-0.9,0-1.7-0.1-2.4h1.3l0.1,1.6c0.2-0.6,0.6-1,1-1.3c0.5-0.3,1-0.5,1.6-0.5C124.6,710.8,124.8,710.8,125.1,710.9z"/>
			<path class="st12" d="M128,707.3v1.6h-1.7v-1.6H128z M126.5,711h1.4v8.5h-1.4V711z"/>
			<path class="st12" d="M132.3,712.1v4.7c0,0.6,0.1,1.1,0.4,1.3c0.3,0.3,0.6,0.4,1.1,0.4c0.3,0,0.6-0.1,0.9-0.2v1.2
				c-0.4,0.1-0.7,0.2-1.2,0.2c-0.8,0-1.5-0.2-1.9-0.7c-0.5-0.5-0.7-1.1-0.7-2v-4.9h-1.7V711h1.7v-2.2l1.4-0.5v2.7h2.4v1.1H132.3z"/>
			<path class="st12" d="M144,711l-4,9.3c-0.4,1-0.9,1.7-1.6,2.1c-0.6,0.5-1.4,0.8-2.3,0.9l-0.3-1.1c0.8-0.2,1.4-0.4,1.8-0.7
				c0.4-0.3,0.8-0.8,1-1.4l0.3-0.8l-3.6-8.5h1.4l2.9,7l2.9-7H144z"/>
			<path class="st12" d="M158.1,716.4h-6.3l-1.3,3.1H149l5.3-12.1h1.2l5.3,12.1h-1.4L158.1,716.4z M157.6,715.2l-2.7-6.2l-2.7,6.2
				H157.6z"/>
			<path class="st12" d="M161.8,718.5l0.5-1c0.5,0.4,0.9,0.6,1.4,0.8c0.5,0.2,1,0.2,1.6,0.2c0.6,0,1.1-0.1,1.5-0.3s0.5-0.5,0.5-1
				c0-0.3-0.1-0.6-0.3-0.8c-0.2-0.2-0.6-0.4-1.1-0.5l-1.4-0.3c-0.7-0.2-1.3-0.4-1.7-0.8s-0.6-0.9-0.6-1.5c0-0.7,0.3-1.4,0.9-1.8
				c0.6-0.5,1.4-0.7,2.4-0.7c0.6,0,1.2,0.1,1.7,0.3s1,0.5,1.3,0.8l-0.5,1c-0.8-0.7-1.7-1-2.6-1c-0.6,0-1.1,0.1-1.4,0.3
				c-0.3,0.2-0.5,0.6-0.5,1c0,0.4,0.1,0.6,0.3,0.8c0.2,0.2,0.5,0.4,1,0.5l1.4,0.4c0.8,0.2,1.4,0.5,1.8,0.8s0.6,0.9,0.6,1.5
				c0,0.7-0.3,1.3-0.9,1.8c-0.6,0.4-1.4,0.7-2.4,0.7C163.8,719.6,162.7,719.3,161.8,718.5z"/>
			<path class="st12" d="M170.2,718.5l0.5-1c0.5,0.4,0.9,0.6,1.4,0.8c0.5,0.2,1,0.2,1.6,0.2c0.6,0,1.1-0.1,1.5-0.3s0.5-0.5,0.5-1
				c0-0.3-0.1-0.6-0.3-0.8c-0.2-0.2-0.6-0.4-1.1-0.5l-1.4-0.3c-0.7-0.2-1.3-0.4-1.7-0.8c-0.4-0.4-0.6-0.9-0.6-1.5
				c0-0.7,0.3-1.4,0.9-1.8c0.6-0.5,1.4-0.7,2.4-0.7c0.6,0,1.2,0.1,1.7,0.3c0.5,0.2,1,0.5,1.3,0.8l-0.5,1c-0.8-0.7-1.7-1-2.6-1
				c-0.6,0-1.1,0.1-1.4,0.3c-0.3,0.2-0.5,0.6-0.5,1c0,0.4,0.1,0.6,0.3,0.8c0.2,0.2,0.5,0.4,1,0.5l1.4,0.4c0.8,0.2,1.4,0.5,1.8,0.8
				s0.6,0.9,0.6,1.5c0,0.7-0.3,1.3-0.9,1.8c-0.6,0.4-1.4,0.7-2.4,0.7C172.2,719.6,171.1,719.3,170.2,718.5z"/>
			<path class="st12" d="M186.3,715.2h-6.3c0,1.1,0.3,1.9,0.8,2.5c0.5,0.6,1.2,0.8,2.1,0.8c1,0,1.9-0.3,2.8-1l0.5,1
				c-0.4,0.4-0.9,0.6-1.4,0.8c-0.6,0.2-1.2,0.3-1.8,0.3c-1.3,0-2.4-0.4-3.1-1.2c-0.8-0.8-1.1-1.9-1.1-3.2c0-0.9,0.2-1.6,0.5-2.3
				c0.3-0.7,0.8-1.2,1.4-1.6c0.6-0.4,1.3-0.6,2.1-0.6c1.1,0,2,0.4,2.7,1.1c0.6,0.7,1,1.8,1,3.1V715.2z M181,712.5
				c-0.4,0.4-0.7,1-0.9,1.8h5c-0.1-0.8-0.3-1.4-0.7-1.8c-0.4-0.4-1-0.6-1.7-0.6S181.4,712,181,712.5z"/>
			<path class="st12" d="M187.9,718.5l0.5-1c0.5,0.4,0.9,0.6,1.4,0.8c0.5,0.2,1,0.2,1.6,0.2c0.6,0,1.1-0.1,1.5-0.3s0.5-0.5,0.5-1
				c0-0.3-0.1-0.6-0.3-0.8c-0.2-0.2-0.6-0.4-1.1-0.5l-1.4-0.3c-0.7-0.2-1.3-0.4-1.7-0.8c-0.4-0.4-0.6-0.9-0.6-1.5
				c0-0.7,0.3-1.4,0.9-1.8c0.6-0.5,1.4-0.7,2.4-0.7c0.6,0,1.2,0.1,1.7,0.3c0.5,0.2,1,0.5,1.3,0.8l-0.5,1c-0.8-0.7-1.7-1-2.6-1
				c-0.6,0-1.1,0.1-1.4,0.3c-0.3,0.2-0.5,0.6-0.5,1c0,0.4,0.1,0.6,0.3,0.8c0.2,0.2,0.5,0.4,1,0.5l1.4,0.4c0.8,0.2,1.4,0.5,1.8,0.8
				s0.6,0.9,0.6,1.5c0,0.7-0.3,1.3-0.9,1.8s-1.4,0.7-2.4,0.7C189.9,719.6,188.7,719.3,187.9,718.5z"/>
			<path class="st12" d="M196.3,718.5l0.5-1c0.5,0.4,0.9,0.6,1.4,0.8c0.5,0.2,1,0.2,1.6,0.2c0.6,0,1.1-0.1,1.5-0.3s0.5-0.5,0.5-1
				c0-0.3-0.1-0.6-0.3-0.8c-0.2-0.2-0.6-0.4-1.1-0.5l-1.4-0.3c-0.7-0.2-1.3-0.4-1.7-0.8s-0.6-0.9-0.6-1.5c0-0.7,0.3-1.4,0.9-1.8
				c0.6-0.5,1.4-0.7,2.4-0.7c0.6,0,1.2,0.1,1.7,0.3c0.5,0.2,1,0.5,1.3,0.8l-0.5,1c-0.8-0.7-1.7-1-2.6-1c-0.6,0-1.1,0.1-1.4,0.3
				c-0.3,0.2-0.5,0.6-0.5,1c0,0.4,0.1,0.6,0.3,0.8c0.2,0.2,0.5,0.4,1,0.5l1.4,0.4c0.8,0.2,1.4,0.5,1.8,0.8s0.6,0.9,0.6,1.5
				c0,0.7-0.3,1.3-0.9,1.8s-1.4,0.7-2.4,0.7C198.3,719.6,197.1,719.3,196.3,718.5z"/>
			<path class="st12" d="M217.6,714.1v5.4h-1.4v-5.3c0-0.8-0.1-1.4-0.4-1.7c-0.3-0.4-0.7-0.5-1.3-0.5c-0.7,0-1.3,0.2-1.7,0.7
				c-0.4,0.5-0.6,1.1-0.6,2v4.9h-1.4v-5.3c0-0.8-0.1-1.4-0.4-1.7c-0.3-0.4-0.7-0.6-1.4-0.6c-0.7,0-1.3,0.2-1.7,0.7
				c-0.4,0.5-0.6,1.1-0.6,2v4.9h-1.4v-6.1c0-0.9,0-1.7-0.1-2.4h1.3l0.1,1.5c0.2-0.5,0.6-1,1.1-1.3s1-0.4,1.6-0.4
				c0.7,0,1.2,0.1,1.7,0.4s0.7,0.7,1,1.3c0.3-0.5,0.6-0.9,1.1-1.2s1.1-0.5,1.7-0.5C216.6,710.8,217.6,711.9,217.6,714.1z"/>
			<path class="st12" d="M227.3,715.2h-6.3c0,1.1,0.3,1.9,0.8,2.5c0.5,0.6,1.2,0.8,2.1,0.8c1,0,1.9-0.3,2.8-1l0.5,1
				c-0.4,0.4-0.9,0.6-1.4,0.8c-0.6,0.2-1.2,0.3-1.8,0.3c-1.3,0-2.4-0.4-3.1-1.2c-0.8-0.8-1.1-1.9-1.1-3.2c0-0.9,0.2-1.6,0.5-2.3
				c0.3-0.7,0.8-1.2,1.4-1.6c0.6-0.4,1.3-0.6,2.1-0.6c1.1,0,2,0.4,2.7,1.1c0.6,0.7,1,1.8,1,3.1V715.2z M222,712.5
				c-0.4,0.4-0.7,1-0.9,1.8h5c-0.1-0.8-0.3-1.4-0.7-1.8c-0.4-0.4-1-0.6-1.7-0.6S222.4,712,222,712.5z"/>
			<path class="st12" d="M236.7,714.1v5.4h-1.4v-5.3c0-0.8-0.2-1.4-0.5-1.7c-0.3-0.4-0.8-0.6-1.5-0.6c-0.8,0-1.4,0.2-1.9,0.7
				c-0.5,0.5-0.7,1.1-0.7,2v4.9h-1.4v-6.1c0-0.9,0-1.7-0.1-2.4h1.3l0.1,1.5c0.3-0.6,0.7-1,1.2-1.3s1.1-0.5,1.8-0.5
				C235.7,710.8,236.7,711.9,236.7,714.1z"/>
			<path class="st12" d="M241.2,712.1v4.7c0,0.6,0.1,1.1,0.4,1.3c0.3,0.3,0.6,0.4,1.1,0.4c0.3,0,0.6-0.1,0.9-0.2v1.2
				c-0.4,0.1-0.7,0.2-1.2,0.2c-0.8,0-1.5-0.2-1.9-0.7c-0.5-0.5-0.7-1.1-0.7-2v-4.9h-1.7V711h1.7v-2.2l1.4-0.5v2.7h2.4v1.1H241.2z"/>
		</g>
	</g>
	<g>
		<g class="st6">
			<path class="st12" d="M37.4,1028.9H31l-1.3,3.1h-1.4l5.3-12.1h1.2l5.3,12.1h-1.4L37.4,1028.9z M36.9,1027.8l-2.7-6.2l-2.7,6.2
				H36.9z"/>
			<path class="st12" d="M49.3,1023.5v8.5c0,1.3-0.3,2.2-1,2.9c-0.7,0.7-1.6,1-2.9,1c-1.3,0-2.4-0.3-3.4-0.9l0.2-1.1
				c0.5,0.3,1.1,0.5,1.5,0.7s1,0.2,1.6,0.2c0.8,0,1.4-0.2,1.9-0.7c0.4-0.4,0.6-1.1,0.6-1.9v-2c-0.3,0.5-0.6,1-1.1,1.3
				c-0.5,0.3-1.1,0.4-1.8,0.4c-0.7,0-1.4-0.2-2-0.5c-0.6-0.4-1-0.8-1.3-1.5c-0.3-0.6-0.5-1.4-0.5-2.2c0-0.8,0.2-1.6,0.5-2.2
				c0.3-0.6,0.8-1.1,1.3-1.5c0.6-0.4,1.2-0.5,2-0.5c0.7,0,1.3,0.1,1.8,0.4c0.5,0.3,0.9,0.7,1.1,1.2v-1.5H49.3z M47.3,1029.8
				c0.5-0.5,0.7-1.3,0.7-2.3s-0.2-1.7-0.7-2.3c-0.5-0.5-1.1-0.8-1.9-0.8c-0.8,0-1.5,0.3-2,0.8s-0.7,1.3-0.7,2.3s0.2,1.7,0.7,2.3
				s1.1,0.8,2,0.8C46.1,1030.6,46.8,1030.4,47.3,1029.8z"/>
			<path class="st12" d="M59.1,1027.7h-6.3c0,1.1,0.3,1.9,0.8,2.5c0.5,0.6,1.2,0.8,2.1,0.8c1,0,1.9-0.3,2.8-1l0.5,1
				c-0.4,0.4-0.9,0.6-1.4,0.8c-0.6,0.2-1.2,0.3-1.8,0.3c-1.3,0-2.4-0.4-3.1-1.2c-0.8-0.8-1.1-1.9-1.1-3.2c0-0.9,0.2-1.6,0.5-2.3
				c0.3-0.7,0.8-1.2,1.4-1.6c0.6-0.4,1.3-0.6,2.1-0.6c1.1,0,2,0.4,2.7,1.1s1,1.8,1,3.1V1027.7z M53.8,1025c-0.4,0.4-0.7,1-0.9,1.8h5
				c-0.1-0.8-0.3-1.4-0.7-1.8c-0.4-0.4-1-0.6-1.7-0.6S54.2,1024.6,53.8,1025z"/>
			<path class="st12" d="M68.6,1026.7v5.4h-1.4v-5.3c0-0.8-0.2-1.4-0.5-1.7c-0.3-0.4-0.8-0.6-1.5-0.6c-0.8,0-1.4,0.2-1.9,0.7
				c-0.5,0.5-0.7,1.1-0.7,2v4.9h-1.4v-6.1c0-0.9,0-1.7-0.1-2.4h1.3l0.1,1.5c0.3-0.6,0.7-1,1.2-1.3s1.1-0.5,1.8-0.5
				C67.5,1023.3,68.6,1024.4,68.6,1026.7z"/>
			<path class="st12" d="M72.6,1031.6c-0.6-0.4-1.1-0.9-1.4-1.5s-0.5-1.4-0.5-2.3c0-0.9,0.2-1.7,0.5-2.3c0.3-0.7,0.8-1.2,1.5-1.6
				c0.6-0.4,1.4-0.6,2.2-0.6c0.6,0,1.1,0.1,1.7,0.3c0.5,0.2,1,0.5,1.3,0.8l-0.5,1c-0.4-0.3-0.8-0.6-1.2-0.7
				c-0.4-0.2-0.8-0.2-1.2-0.2c-0.9,0-1.6,0.3-2.1,0.9c-0.5,0.6-0.7,1.4-0.7,2.4c0,1,0.2,1.8,0.7,2.4c0.5,0.6,1.2,0.9,2.1,0.9
				c0.4,0,0.8-0.1,1.2-0.2c0.4-0.2,0.8-0.4,1.2-0.7l0.5,1c-0.4,0.3-0.8,0.6-1.4,0.8c-0.5,0.2-1.1,0.3-1.7,0.3
				C73.9,1032.2,73.2,1032,72.6,1031.6z"/>
			<path class="st12" d="M87.1,1023.5l-4,9.3c-0.4,1-0.9,1.7-1.6,2.1c-0.6,0.5-1.4,0.8-2.3,0.9l-0.3-1.1c0.8-0.2,1.4-0.4,1.8-0.7
				c0.4-0.3,0.8-0.8,1-1.4l0.3-0.8l-3.6-8.5h1.4l2.9,7l2.9-7H87.1z"/>
			<path class="st12" d="M101.1,1028.9h-6.3l-1.3,3.1H92l5.3-12.1h1.2l5.3,12.1h-1.4L101.1,1028.9z M100.6,1027.8l-2.7-6.2l-2.7,6.2
				H100.6z"/>
			<path class="st12" d="M112.6,1023.5v8.5h-1.3v-1.5c-0.3,0.5-0.7,0.9-1.1,1.2c-0.5,0.3-1,0.4-1.6,0.4c-1,0-1.8-0.3-2.3-0.8
				c-0.5-0.6-0.8-1.4-0.8-2.5v-5.3h1.4v5.3c0,0.8,0.2,1.3,0.5,1.7c0.3,0.4,0.8,0.5,1.4,0.5c0.8,0,1.4-0.2,1.8-0.7
				c0.5-0.5,0.7-1.1,0.7-1.9v-4.8H112.6z"/>
			<path class="st12" d="M117.1,1024.6v4.7c0,0.6,0.1,1.1,0.4,1.3c0.3,0.3,0.6,0.4,1.1,0.4c0.3,0,0.6-0.1,0.9-0.2v1.2
				c-0.4,0.1-0.7,0.2-1.2,0.2c-0.8,0-1.5-0.2-1.9-0.7c-0.5-0.5-0.7-1.1-0.7-2v-4.9H114v-1.1h1.7v-2.2l1.4-0.5v2.7h2.4v1.1H117.1z"/>
			<path class="st12" d="M128.5,1026.7v5.4h-1.4v-5.3c0-0.8-0.2-1.4-0.5-1.7c-0.3-0.4-0.8-0.6-1.5-0.6c-0.8,0-1.4,0.2-1.9,0.7
				c-0.5,0.5-0.7,1.1-0.7,2v4.9h-1.4v-12.5h1.4v5.3c0.3-0.5,0.7-0.9,1.2-1.2c0.5-0.3,1.1-0.4,1.7-0.4
				C127.5,1023.3,128.5,1024.4,128.5,1026.7z"/>
			<path class="st12" d="M132.5,1031.6c-0.6-0.4-1.1-0.9-1.4-1.5s-0.5-1.4-0.5-2.3s0.2-1.7,0.5-2.3s0.8-1.2,1.4-1.5
				c0.6-0.4,1.3-0.5,2.1-0.5c0.8,0,1.5,0.2,2.1,0.5c0.6,0.4,1.1,0.9,1.4,1.5s0.5,1.4,0.5,2.3s-0.2,1.7-0.5,2.3s-0.8,1.2-1.4,1.5
				c-0.6,0.4-1.3,0.5-2.1,0.5C133.8,1032.2,133.1,1032,132.5,1031.6z M136.6,1030.2c0.5-0.6,0.7-1.4,0.7-2.5c0-1-0.2-1.8-0.7-2.4
				c-0.5-0.6-1.1-0.9-1.9-0.9c-0.8,0-1.5,0.3-2,0.9c-0.5,0.6-0.7,1.4-0.7,2.4c0,1.1,0.2,1.9,0.7,2.5c0.5,0.6,1.1,0.8,2,0.8
				S136.2,1030.7,136.6,1030.2z"/>
			<path class="st12" d="M145.6,1023.4l0,1.3c-0.3-0.1-0.6-0.1-0.9-0.1c-0.8,0-1.4,0.3-1.8,0.8c-0.4,0.5-0.6,1.1-0.6,1.9v4.9h-1.4
				v-6.1c0-0.9,0-1.7-0.1-2.4h1.3l0.1,1.6c0.2-0.6,0.6-1,1-1.3c0.5-0.3,1-0.5,1.6-0.5C145.1,1023.3,145.3,1023.3,145.6,1023.4z"/>
			<path class="st12" d="M148.5,1019.9v1.6h-1.7v-1.6H148.5z M147,1023.5h1.4v8.5H147V1023.5z"/>
			<path class="st12" d="M157.8,1031v1.1h-7.2v-1l5.4-6.5h-5.2v-1.1h6.8v1l-5.3,6.5H157.8z"/>
			<path class="st12" d="M167.1,1023.5v8.5h-1.4v-1.5c-0.2,0.5-0.6,0.9-1.1,1.2c-0.5,0.3-1.1,0.4-1.8,0.4c-0.8,0-1.4-0.2-2-0.5
				c-0.6-0.4-1-0.9-1.3-1.5c-0.3-0.7-0.5-1.4-0.5-2.3c0-0.9,0.2-1.7,0.5-2.3c0.3-0.7,0.8-1.2,1.3-1.6c0.6-0.4,1.2-0.6,2-0.6
				c0.7,0,1.2,0.1,1.7,0.4s0.9,0.7,1.1,1.2v-1.5H167.1z M165.1,1030.2c0.5-0.6,0.7-1.4,0.7-2.4s-0.2-1.9-0.7-2.4
				c-0.5-0.6-1.1-0.8-1.9-0.8c-0.8,0-1.5,0.3-2,0.9c-0.5,0.6-0.7,1.4-0.7,2.4s0.2,1.8,0.7,2.4c0.5,0.6,1.1,0.8,2,0.8
				C164,1031,164.7,1030.7,165.1,1030.2z"/>
			<path class="st12" d="M171.6,1024.6v4.7c0,0.6,0.1,1.1,0.4,1.3s0.6,0.4,1.1,0.4c0.3,0,0.6-0.1,0.9-0.2v1.2
				c-0.4,0.1-0.7,0.2-1.2,0.2c-0.8,0-1.5-0.2-1.9-0.7c-0.5-0.5-0.7-1.1-0.7-2v-4.9h-1.7v-1.1h1.7v-2.2l1.4-0.5v2.7h2.4v1.1H171.6z"
				/>
			<path class="st12" d="M177.3,1019.9v1.6h-1.7v-1.6H177.3z M175.7,1023.5h1.4v8.5h-1.4V1023.5z"/>
			<path class="st12" d="M181.2,1031.6c-0.6-0.4-1.1-0.9-1.4-1.5s-0.5-1.4-0.5-2.3s0.2-1.7,0.5-2.3s0.8-1.2,1.4-1.5
				c0.6-0.4,1.3-0.5,2.1-0.5s1.5,0.2,2.1,0.5c0.6,0.4,1.1,0.9,1.4,1.5s0.5,1.4,0.5,2.3s-0.2,1.7-0.5,2.3s-0.8,1.2-1.4,1.5
				c-0.6,0.4-1.3,0.5-2.1,0.5S181.8,1032,181.2,1031.6z M185.3,1030.2c0.5-0.6,0.7-1.4,0.7-2.5c0-1-0.2-1.8-0.7-2.4
				c-0.5-0.6-1.1-0.9-1.9-0.9c-0.8,0-1.5,0.3-2,0.9s-0.7,1.4-0.7,2.4c0,1.1,0.2,1.9,0.7,2.5c0.5,0.6,1.1,0.8,2,0.8
				S184.8,1030.7,185.3,1030.2z"/>
			<path class="st12" d="M196.8,1026.7v5.4h-1.4v-5.3c0-0.8-0.2-1.4-0.5-1.7c-0.3-0.4-0.8-0.6-1.5-0.6c-0.8,0-1.4,0.2-1.9,0.7
				c-0.5,0.5-0.7,1.1-0.7,2v4.9h-1.4v-6.1c0-0.9,0-1.7-0.1-2.4h1.3l0.1,1.5c0.3-0.6,0.7-1,1.2-1.3s1.1-0.5,1.8-0.5
				C195.8,1023.3,196.8,1024.4,196.8,1026.7z"/>
			<path class="st12" d="M204,1020h4.8c1.2,0,2.2,0.3,2.9,0.9s1,1.4,1,2.5c0,1.1-0.4,1.9-1.1,2.5c-0.7,0.6-1.7,0.9-2.9,0.9h-3.4v5.3
				H204V1020z M208.7,1025.6c0.9,0,1.6-0.2,2-0.6c0.5-0.4,0.7-0.9,0.7-1.7s-0.2-1.3-0.7-1.7c-0.5-0.4-1.1-0.6-2-0.6h-3.3v4.5H208.7z
				"/>
			<path class="st12" d="M219.5,1023.4l0,1.3c-0.3-0.1-0.6-0.1-0.9-0.1c-0.8,0-1.4,0.3-1.8,0.8c-0.4,0.5-0.6,1.1-0.6,1.9v4.9h-1.4
				v-6.1c0-0.9,0-1.7-0.1-2.4h1.3l0.1,1.6c0.2-0.6,0.6-1,1-1.3c0.5-0.3,1-0.5,1.6-0.5C219,1023.3,219.3,1023.3,219.5,1023.4z"/>
			<path class="st12" d="M222.1,1031.6c-0.6-0.4-1.1-0.9-1.4-1.5s-0.5-1.4-0.5-2.3s0.2-1.7,0.5-2.3s0.8-1.2,1.4-1.5
				c0.6-0.4,1.3-0.5,2.1-0.5s1.5,0.2,2.1,0.5c0.6,0.4,1.1,0.9,1.4,1.5s0.5,1.4,0.5,2.3s-0.2,1.7-0.5,2.3s-0.8,1.2-1.4,1.5
				c-0.6,0.4-1.3,0.5-2.1,0.5S222.7,1032,222.1,1031.6z M226.2,1030.2c0.5-0.6,0.7-1.4,0.7-2.5c0-1-0.2-1.8-0.7-2.4
				c-0.5-0.6-1.1-0.9-1.9-0.9c-0.8,0-1.5,0.3-2,0.9s-0.7,1.4-0.7,2.4c0,1.1,0.2,1.9,0.7,2.5c0.5,0.6,1.1,0.8,2,0.8
				S225.7,1030.7,226.2,1030.2z"/>
			<path class="st12" d="M231.8,1031.6c-0.6-0.4-1.1-0.9-1.4-1.5s-0.5-1.4-0.5-2.3c0-0.9,0.2-1.7,0.5-2.3c0.3-0.7,0.8-1.2,1.5-1.6
				c0.6-0.4,1.4-0.6,2.2-0.6c0.6,0,1.1,0.1,1.7,0.3c0.5,0.2,1,0.5,1.3,0.8l-0.5,1c-0.4-0.3-0.8-0.6-1.2-0.7
				c-0.4-0.2-0.8-0.2-1.2-0.2c-0.9,0-1.6,0.3-2.1,0.9c-0.5,0.6-0.7,1.4-0.7,2.4c0,1,0.2,1.8,0.7,2.4c0.5,0.6,1.2,0.9,2.1,0.9
				c0.4,0,0.8-0.1,1.2-0.2s0.8-0.4,1.2-0.7l0.5,1c-0.4,0.3-0.8,0.6-1.4,0.8c-0.5,0.2-1.1,0.3-1.7,0.3
				C233.2,1032.2,232.5,1032,231.8,1031.6z"/>
			<path class="st12" d="M246,1027.7h-6.3c0,1.1,0.3,1.9,0.8,2.5c0.5,0.6,1.2,0.8,2.1,0.8c1,0,1.9-0.3,2.8-1l0.5,1
				c-0.4,0.4-0.9,0.6-1.4,0.8c-0.6,0.2-1.2,0.3-1.8,0.3c-1.3,0-2.4-0.4-3.1-1.2c-0.8-0.8-1.1-1.9-1.1-3.2c0-0.9,0.2-1.6,0.5-2.3
				c0.3-0.7,0.8-1.2,1.4-1.6c0.6-0.4,1.3-0.6,2.1-0.6c1.1,0,2,0.4,2.7,1.1c0.6,0.7,1,1.8,1,3.1V1027.7z M240.6,1025
				c-0.4,0.4-0.7,1-0.9,1.8h5c-0.1-0.8-0.3-1.4-0.7-1.8c-0.4-0.4-1-0.6-1.7-0.6S241.1,1024.6,240.6,1025z"/>
			<path class="st12" d="M247.5,1031.1l0.5-1c0.5,0.4,0.9,0.6,1.4,0.8c0.5,0.2,1,0.2,1.6,0.2c0.6,0,1.1-0.1,1.5-0.3s0.5-0.5,0.5-1
				c0-0.3-0.1-0.6-0.3-0.8c-0.2-0.2-0.6-0.4-1.1-0.5l-1.4-0.3c-0.7-0.2-1.3-0.4-1.7-0.8c-0.4-0.4-0.6-0.9-0.6-1.5
				c0-0.7,0.3-1.4,0.9-1.8c0.6-0.5,1.4-0.7,2.4-0.7c0.6,0,1.2,0.1,1.7,0.3c0.5,0.2,1,0.5,1.3,0.8l-0.5,1c-0.8-0.7-1.7-1-2.6-1
				c-0.6,0-1.1,0.1-1.4,0.3c-0.3,0.2-0.5,0.6-0.5,1c0,0.4,0.1,0.6,0.3,0.8c0.2,0.2,0.5,0.4,1,0.5l1.4,0.4c0.8,0.2,1.4,0.5,1.8,0.8
				s0.6,0.9,0.6,1.5c0,0.7-0.3,1.3-0.9,1.8s-1.4,0.7-2.4,0.7C249.5,1032.2,248.4,1031.8,247.5,1031.1z"/>
			<path class="st12" d="M256,1031.1l0.5-1c0.5,0.4,0.9,0.6,1.4,0.8c0.5,0.2,1,0.2,1.6,0.2c0.6,0,1.1-0.1,1.5-0.3s0.5-0.5,0.5-1
				c0-0.3-0.1-0.6-0.3-0.8c-0.2-0.2-0.6-0.4-1.1-0.5l-1.4-0.3c-0.7-0.2-1.3-0.4-1.7-0.8s-0.6-0.9-0.6-1.5c0-0.7,0.3-1.4,0.9-1.8
				c0.6-0.5,1.4-0.7,2.4-0.7c0.6,0,1.2,0.1,1.7,0.3s1,0.5,1.3,0.8l-0.5,1c-0.8-0.7-1.7-1-2.6-1c-0.6,0-1.1,0.1-1.4,0.3
				c-0.3,0.2-0.5,0.6-0.5,1c0,0.4,0.1,0.6,0.3,0.8c0.2,0.2,0.5,0.4,1,0.5l1.4,0.4c0.8,0.2,1.4,0.5,1.8,0.8s0.6,0.9,0.6,1.5
				c0,0.7-0.3,1.3-0.9,1.8c-0.6,0.4-1.4,0.7-2.4,0.7C257.9,1032.2,256.8,1031.8,256,1031.1z"/>
		</g>
	</g>
	<g>
		<g class="st6">
			<path class="st12" d="M50.8,867.2h7.5v1.2h-6.1v4.2h5.8v1.2h-5.8v5.6h-1.4V867.2z"/>
			<path class="st12" d="M67.1,870.7v8.5h-1.3v-1.5c-0.3,0.5-0.7,0.9-1.1,1.2c-0.5,0.3-1,0.4-1.6,0.4c-1,0-1.8-0.3-2.3-0.8
				c-0.5-0.6-0.8-1.4-0.8-2.5v-5.3h1.4v5.3c0,0.8,0.2,1.3,0.5,1.7c0.3,0.4,0.8,0.5,1.4,0.5c0.8,0,1.4-0.2,1.8-0.7
				c0.5-0.5,0.7-1.1,0.7-1.9v-4.8H67.1z"/>
			<path class="st12" d="M69.8,866.8h1.4v12.5h-1.4V866.8z"/>
			<path class="st12" d="M73.8,866.8h1.4v12.5h-1.4V866.8z"/>
			<path class="st12" d="M81.8,877.9l0.5-1.1c0.6,0.5,1.2,0.9,1.8,1.1c0.6,0.2,1.3,0.3,2.2,0.3c1,0,1.7-0.2,2.2-0.6
				c0.5-0.4,0.8-0.9,0.8-1.6c0-0.4-0.1-0.7-0.4-1c-0.3-0.3-0.6-0.5-1-0.6c-0.4-0.1-1-0.3-1.7-0.5c-0.9-0.2-1.7-0.4-2.3-0.7
				c-0.6-0.2-1.1-0.6-1.5-1c-0.4-0.4-0.6-1-0.6-1.8c0-0.7,0.2-1.3,0.5-1.8s0.9-0.9,1.5-1.2c0.7-0.3,1.4-0.4,2.3-0.4
				c0.8,0,1.6,0.1,2.3,0.4c0.7,0.3,1.3,0.6,1.8,1.1l-0.5,1.1c-0.6-0.5-1.1-0.8-1.7-1.1c-0.6-0.2-1.2-0.3-1.9-0.3
				c-0.9,0-1.7,0.2-2.2,0.6c-0.5,0.4-0.8,1-0.8,1.7c0,0.6,0.2,1.1,0.7,1.4c0.5,0.3,1.2,0.6,2.1,0.8c1,0.2,1.9,0.5,2.5,0.7
				c0.6,0.2,1.1,0.5,1.5,1c0.4,0.4,0.6,1,0.6,1.7c0,0.7-0.2,1.3-0.5,1.8c-0.4,0.5-0.9,0.9-1.6,1.2c-0.7,0.3-1.5,0.4-2.4,0.4
				C84.4,879.4,82.9,878.9,81.8,877.9z"/>
			<path class="st12" d="M100,875h-6.3c0,1.1,0.3,1.9,0.8,2.5c0.5,0.6,1.2,0.8,2.1,0.8c1,0,1.9-0.3,2.8-1l0.5,1
				c-0.4,0.4-0.9,0.6-1.4,0.8c-0.6,0.2-1.2,0.3-1.8,0.3c-1.3,0-2.4-0.4-3.1-1.2c-0.8-0.8-1.1-1.9-1.1-3.2c0-0.9,0.2-1.6,0.5-2.3
				c0.3-0.7,0.8-1.2,1.4-1.6c0.6-0.4,1.3-0.6,2.1-0.6c1.1,0,2,0.4,2.7,1.1s1,1.8,1,3.1V875z M94.7,872.2c-0.4,0.4-0.7,1-0.9,1.8h5
				c-0.1-0.8-0.3-1.4-0.7-1.8c-0.4-0.4-1-0.6-1.7-0.6S95.1,871.8,94.7,872.2z"/>
			<path class="st12" d="M103.5,878.8c-0.6-0.4-1.1-0.9-1.4-1.5s-0.5-1.4-0.5-2.3c0-0.9,0.2-1.7,0.5-2.3c0.3-0.7,0.8-1.2,1.5-1.6
				c0.6-0.4,1.4-0.6,2.2-0.6c0.6,0,1.1,0.1,1.7,0.3c0.5,0.2,1,0.5,1.3,0.8l-0.5,1c-0.4-0.3-0.8-0.6-1.2-0.7
				c-0.4-0.2-0.8-0.2-1.2-0.2c-0.9,0-1.6,0.3-2.1,0.9c-0.5,0.6-0.7,1.4-0.7,2.4c0,1,0.2,1.8,0.7,2.4c0.5,0.6,1.2,0.9,2.1,0.9
				c0.4,0,0.8-0.1,1.2-0.2c0.4-0.2,0.8-0.4,1.2-0.7l0.5,1c-0.4,0.3-0.8,0.6-1.4,0.8c-0.5,0.2-1.1,0.3-1.7,0.3
				C104.9,879.4,104.1,879.2,103.5,878.8z"/>
			<path class="st12" d="M117.7,870.7v8.5h-1.3v-1.5c-0.3,0.5-0.7,0.9-1.1,1.2c-0.5,0.3-1,0.4-1.6,0.4c-1,0-1.8-0.3-2.3-0.8
				c-0.5-0.6-0.8-1.4-0.8-2.5v-5.3h1.4v5.3c0,0.8,0.2,1.3,0.5,1.7c0.3,0.4,0.8,0.5,1.4,0.5c0.8,0,1.4-0.2,1.8-0.7
				c0.5-0.5,0.7-1.1,0.7-1.9v-4.8H117.7z"/>
			<path class="st12" d="M125.1,870.6l0,1.3c-0.3-0.1-0.6-0.1-0.9-0.1c-0.8,0-1.4,0.3-1.8,0.8c-0.4,0.5-0.6,1.1-0.6,1.9v4.9h-1.4
				v-6.1c0-0.9,0-1.7-0.1-2.4h1.3l0.1,1.6c0.2-0.6,0.6-1,1-1.3c0.5-0.3,1-0.5,1.6-0.5C124.6,870.5,124.8,870.6,125.1,870.6z"/>
			<path class="st12" d="M128,867.1v1.6h-1.7v-1.6H128z M126.5,870.7h1.4v8.5h-1.4V870.7z"/>
			<path class="st12" d="M132.3,871.8v4.7c0,0.6,0.1,1.1,0.4,1.3c0.3,0.3,0.6,0.4,1.1,0.4c0.3,0,0.6-0.1,0.9-0.2v1.2
				c-0.4,0.1-0.7,0.2-1.2,0.2c-0.8,0-1.5-0.2-1.9-0.7c-0.5-0.5-0.7-1.1-0.7-2v-4.9h-1.7v-1.1h1.7v-2.2l1.4-0.5v2.7h2.4v1.1H132.3z"
				/>
			<path class="st12" d="M144,870.7l-4,9.3c-0.4,1-0.9,1.7-1.6,2.1c-0.6,0.5-1.4,0.8-2.3,0.9l-0.3-1.1c0.8-0.2,1.4-0.4,1.8-0.7
				c0.4-0.3,0.8-0.8,1-1.4l0.3-0.8l-3.6-8.5h1.4l2.9,7l2.9-7H144z"/>
			<path class="st12" d="M158.1,876.2h-6.3l-1.3,3.1H149l5.3-12.1h1.2l5.3,12.1h-1.4L158.1,876.2z M157.6,875l-2.7-6.2l-2.7,6.2
				H157.6z"/>
			<path class="st12" d="M161.8,878.3l0.5-1c0.5,0.4,0.9,0.6,1.4,0.8c0.5,0.2,1,0.2,1.6,0.2c0.6,0,1.1-0.1,1.5-0.3s0.5-0.5,0.5-1
				c0-0.3-0.1-0.6-0.3-0.8c-0.2-0.2-0.6-0.4-1.1-0.5l-1.4-0.3c-0.7-0.2-1.3-0.4-1.7-0.8s-0.6-0.9-0.6-1.5c0-0.7,0.3-1.4,0.9-1.8
				c0.6-0.5,1.4-0.7,2.4-0.7c0.6,0,1.2,0.1,1.7,0.3s1,0.5,1.3,0.8l-0.5,1c-0.8-0.7-1.7-1-2.6-1c-0.6,0-1.1,0.1-1.4,0.3
				c-0.3,0.2-0.5,0.6-0.5,1c0,0.4,0.1,0.6,0.3,0.8c0.2,0.2,0.5,0.4,1,0.5l1.4,0.4c0.8,0.2,1.4,0.5,1.8,0.8s0.6,0.9,0.6,1.5
				c0,0.7-0.3,1.3-0.9,1.8c-0.6,0.4-1.4,0.7-2.4,0.7C163.8,879.4,162.7,879,161.8,878.3z"/>
			<path class="st12" d="M170.2,878.3l0.5-1c0.5,0.4,0.9,0.6,1.4,0.8c0.5,0.2,1,0.2,1.6,0.2c0.6,0,1.1-0.1,1.5-0.3s0.5-0.5,0.5-1
				c0-0.3-0.1-0.6-0.3-0.8c-0.2-0.2-0.6-0.4-1.1-0.5l-1.4-0.3c-0.7-0.2-1.3-0.4-1.7-0.8c-0.4-0.4-0.6-0.9-0.6-1.5
				c0-0.7,0.3-1.4,0.9-1.8c0.6-0.5,1.4-0.7,2.4-0.7c0.6,0,1.2,0.1,1.7,0.3c0.5,0.2,1,0.5,1.3,0.8l-0.5,1c-0.8-0.7-1.7-1-2.6-1
				c-0.6,0-1.1,0.1-1.4,0.3c-0.3,0.2-0.5,0.6-0.5,1c0,0.4,0.1,0.6,0.3,0.8c0.2,0.2,0.5,0.4,1,0.5l1.4,0.4c0.8,0.2,1.4,0.5,1.8,0.8
				s0.6,0.9,0.6,1.5c0,0.7-0.3,1.3-0.9,1.8c-0.6,0.4-1.4,0.7-2.4,0.7C172.2,879.4,171.1,879,170.2,878.3z"/>
			<path class="st12" d="M186.3,875h-6.3c0,1.1,0.3,1.9,0.8,2.5c0.5,0.6,1.2,0.8,2.1,0.8c1,0,1.9-0.3,2.8-1l0.5,1
				c-0.4,0.4-0.9,0.6-1.4,0.8c-0.6,0.2-1.2,0.3-1.8,0.3c-1.3,0-2.4-0.4-3.1-1.2c-0.8-0.8-1.1-1.9-1.1-3.2c0-0.9,0.2-1.6,0.5-2.3
				c0.3-0.7,0.8-1.2,1.4-1.6c0.6-0.4,1.3-0.6,2.1-0.6c1.1,0,2,0.4,2.7,1.1c0.6,0.7,1,1.8,1,3.1V875z M181,872.2
				c-0.4,0.4-0.7,1-0.9,1.8h5c-0.1-0.8-0.3-1.4-0.7-1.8c-0.4-0.4-1-0.6-1.7-0.6S181.4,871.8,181,872.2z"/>
			<path class="st12" d="M187.9,878.3l0.5-1c0.5,0.4,0.9,0.6,1.4,0.8c0.5,0.2,1,0.2,1.6,0.2c0.6,0,1.1-0.1,1.5-0.3s0.5-0.5,0.5-1
				c0-0.3-0.1-0.6-0.3-0.8c-0.2-0.2-0.6-0.4-1.1-0.5l-1.4-0.3c-0.7-0.2-1.3-0.4-1.7-0.8c-0.4-0.4-0.6-0.9-0.6-1.5
				c0-0.7,0.3-1.4,0.9-1.8c0.6-0.5,1.4-0.7,2.4-0.7c0.6,0,1.2,0.1,1.7,0.3c0.5,0.2,1,0.5,1.3,0.8l-0.5,1c-0.8-0.7-1.7-1-2.6-1
				c-0.6,0-1.1,0.1-1.4,0.3c-0.3,0.2-0.5,0.6-0.5,1c0,0.4,0.1,0.6,0.3,0.8c0.2,0.2,0.5,0.4,1,0.5l1.4,0.4c0.8,0.2,1.4,0.5,1.8,0.8
				s0.6,0.9,0.6,1.5c0,0.7-0.3,1.3-0.9,1.8s-1.4,0.7-2.4,0.7C189.9,879.4,188.7,879,187.9,878.3z"/>
			<path class="st12" d="M196.3,878.3l0.5-1c0.5,0.4,0.9,0.6,1.4,0.8c0.5,0.2,1,0.2,1.6,0.2c0.6,0,1.1-0.1,1.5-0.3s0.5-0.5,0.5-1
				c0-0.3-0.1-0.6-0.3-0.8c-0.2-0.2-0.6-0.4-1.1-0.5l-1.4-0.3c-0.7-0.2-1.3-0.4-1.7-0.8s-0.6-0.9-0.6-1.5c0-0.7,0.3-1.4,0.9-1.8
				c0.6-0.5,1.4-0.7,2.4-0.7c0.6,0,1.2,0.1,1.7,0.3c0.5,0.2,1,0.5,1.3,0.8l-0.5,1c-0.8-0.7-1.7-1-2.6-1c-0.6,0-1.1,0.1-1.4,0.3
				c-0.3,0.2-0.5,0.6-0.5,1c0,0.4,0.1,0.6,0.3,0.8c0.2,0.2,0.5,0.4,1,0.5l1.4,0.4c0.8,0.2,1.4,0.5,1.8,0.8s0.6,0.9,0.6,1.5
				c0,0.7-0.3,1.3-0.9,1.8s-1.4,0.7-2.4,0.7C198.3,879.4,197.1,879,196.3,878.3z"/>
			<path class="st12" d="M217.6,873.9v5.4h-1.4V874c0-0.8-0.1-1.4-0.4-1.7c-0.3-0.4-0.7-0.5-1.3-0.5c-0.7,0-1.3,0.2-1.7,0.7
				c-0.4,0.5-0.6,1.1-0.6,2v4.9h-1.4V874c0-0.8-0.1-1.4-0.4-1.7c-0.3-0.4-0.7-0.6-1.4-0.6c-0.7,0-1.3,0.2-1.7,0.7
				c-0.4,0.5-0.6,1.1-0.6,2v4.9h-1.4v-6.1c0-0.9,0-1.7-0.1-2.4h1.3l0.1,1.5c0.2-0.5,0.6-1,1.1-1.3s1-0.4,1.6-0.4
				c0.7,0,1.2,0.1,1.7,0.4s0.7,0.7,1,1.3c0.3-0.5,0.6-0.9,1.1-1.2s1.1-0.5,1.7-0.5C216.6,870.5,217.6,871.7,217.6,873.9z"/>
			<path class="st12" d="M227.3,875h-6.3c0,1.1,0.3,1.9,0.8,2.5c0.5,0.6,1.2,0.8,2.1,0.8c1,0,1.9-0.3,2.8-1l0.5,1
				c-0.4,0.4-0.9,0.6-1.4,0.8c-0.6,0.2-1.2,0.3-1.8,0.3c-1.3,0-2.4-0.4-3.1-1.2c-0.8-0.8-1.1-1.9-1.1-3.2c0-0.9,0.2-1.6,0.5-2.3
				c0.3-0.7,0.8-1.2,1.4-1.6c0.6-0.4,1.3-0.6,2.1-0.6c1.1,0,2,0.4,2.7,1.1c0.6,0.7,1,1.8,1,3.1V875z M222,872.2
				c-0.4,0.4-0.7,1-0.9,1.8h5c-0.1-0.8-0.3-1.4-0.7-1.8c-0.4-0.4-1-0.6-1.7-0.6S222.4,871.8,222,872.2z"/>
			<path class="st12" d="M236.7,873.9v5.4h-1.4V874c0-0.8-0.2-1.4-0.5-1.7c-0.3-0.4-0.8-0.6-1.5-0.6c-0.8,0-1.4,0.2-1.9,0.7
				c-0.5,0.5-0.7,1.1-0.7,2v4.9h-1.4v-6.1c0-0.9,0-1.7-0.1-2.4h1.3l0.1,1.5c0.3-0.6,0.7-1,1.2-1.3s1.1-0.5,1.8-0.5
				C235.7,870.5,236.7,871.7,236.7,873.9z"/>
			<path class="st12" d="M241.2,871.8v4.7c0,0.6,0.1,1.1,0.4,1.3c0.3,0.3,0.6,0.4,1.1,0.4c0.3,0,0.6-0.1,0.9-0.2v1.2
				c-0.4,0.1-0.7,0.2-1.2,0.2c-0.8,0-1.5-0.2-1.9-0.7c-0.5-0.5-0.7-1.1-0.7-2v-4.9h-1.7v-1.1h1.7v-2.2l1.4-0.5v2.7h2.4v1.1H241.2z"
				/>
		</g>
	</g>
	<g>
		<g class="st6">
			<path class="st12" d="M43.3,1194.6c0.5,0.1,0.9,0.1,1.2,0.1c0.6,0,1-0.2,1.2-0.5c0.2-0.3,0.3-0.9,0.3-1.7v-11.9h1.4v11.9
				c0,1.2-0.2,2-0.6,2.5c-0.4,0.5-1.1,0.8-2.1,0.8c-0.4,0-0.9,0-1.4-0.1V1194.6z"/>
			<path class="st12" d="M58.4,1189.7h-6.3l-1.3,3.1h-1.4l5.3-12.1h1.2l5.3,12.1h-1.4L58.4,1189.7z M57.9,1188.5l-2.7-6.2l-2.7,6.2
				H57.9z"/>
			<path class="st12" d="M71.4,1187.6c0.4,0.5,0.6,1.1,0.6,1.9c0,1.1-0.4,1.9-1.1,2.4c-0.7,0.6-1.7,0.9-3,0.9h-5v-12.1h4.9
				c1.2,0,2.2,0.3,2.9,0.8c0.7,0.5,1,1.3,1,2.3c0,0.6-0.2,1.2-0.5,1.7c-0.3,0.5-0.8,0.8-1.4,1C70.5,1186.8,71,1187.1,71.4,1187.6z
				 M64.3,1186.1h3.3c0.9,0,1.6-0.2,2.1-0.5c0.5-0.4,0.7-0.9,0.7-1.6c0-1.4-0.9-2.1-2.8-2.1h-3.3V1186.1z M70,1191.1
				c0.4-0.4,0.7-0.9,0.7-1.6c0-1.5-0.9-2.2-2.8-2.2h-3.5v4.4h3.5C68.8,1191.7,69.5,1191.5,70,1191.1z"/>
			<path class="st12" d="M86.9,1189.7h-6.3l-1.3,3.1h-1.4l5.3-12.1h1.2l5.3,12.1h-1.4L86.9,1189.7z M86.4,1188.5l-2.7-6.2l-2.7,6.2
				H86.4z"/>
			<path class="st12" d="M98.4,1184.3v8.5H97v-1.5c-0.3,0.5-0.7,0.9-1.1,1.2c-0.5,0.3-1,0.4-1.6,0.4c-1,0-1.8-0.3-2.3-0.8
				c-0.5-0.6-0.8-1.4-0.8-2.5v-5.3h1.4v5.3c0,0.8,0.2,1.3,0.5,1.7c0.3,0.4,0.8,0.5,1.4,0.5c0.8,0,1.4-0.2,1.8-0.7
				c0.5-0.5,0.7-1.1,0.7-1.9v-4.8H98.4z"/>
			<path class="st12" d="M102.9,1185.4v4.7c0,0.6,0.1,1.1,0.4,1.3c0.3,0.3,0.6,0.4,1.1,0.4c0.3,0,0.6-0.1,0.9-0.2v1.2
				c-0.4,0.1-0.7,0.2-1.2,0.2c-0.8,0-1.5-0.2-1.9-0.7c-0.5-0.5-0.7-1.1-0.7-2v-4.9h-1.7v-1.1h1.7v-2.2l1.4-0.5v2.7h2.4v1.1H102.9z"
				/>
			<path class="st12" d="M114.3,1187.4v5.4h-1.4v-5.3c0-0.8-0.2-1.4-0.5-1.7c-0.3-0.4-0.8-0.6-1.5-0.6c-0.8,0-1.4,0.2-1.9,0.7
				c-0.5,0.5-0.7,1.1-0.7,2v4.9H107v-12.5h1.4v5.3c0.3-0.5,0.7-0.9,1.2-1.2c0.5-0.3,1.1-0.4,1.7-0.4
				C113.3,1184.1,114.3,1185.2,114.3,1187.4z"/>
			<path class="st12" d="M118.3,1192.4c-0.6-0.4-1.1-0.9-1.4-1.5s-0.5-1.4-0.5-2.3s0.2-1.7,0.5-2.3s0.8-1.2,1.4-1.5
				c0.6-0.4,1.3-0.5,2.1-0.5c0.8,0,1.5,0.2,2.1,0.5c0.6,0.4,1.1,0.9,1.4,1.5s0.5,1.4,0.5,2.3s-0.2,1.7-0.5,2.3s-0.8,1.2-1.4,1.5
				c-0.6,0.4-1.3,0.5-2.1,0.5C119.6,1192.9,118.9,1192.7,118.3,1192.4z M122.4,1191c0.5-0.6,0.7-1.4,0.7-2.5c0-1-0.2-1.8-0.7-2.4
				c-0.5-0.6-1.1-0.9-1.9-0.9c-0.8,0-1.5,0.3-2,0.9c-0.5,0.6-0.7,1.4-0.7,2.4c0,1.1,0.2,1.9,0.7,2.5c0.5,0.6,1.1,0.8,2,0.8
				S121.9,1191.5,122.4,1191z"/>
			<path class="st12" d="M131.4,1184.2l0,1.3c-0.3-0.1-0.6-0.1-0.9-0.1c-0.8,0-1.4,0.3-1.8,0.8c-0.4,0.5-0.6,1.1-0.6,1.9v4.9h-1.4
				v-6.1c0-0.9,0-1.7-0.1-2.4h1.3l0.1,1.6c0.2-0.6,0.6-1,1-1.3c0.5-0.3,1-0.5,1.6-0.5C130.9,1184.1,131.1,1184.1,131.4,1184.2z"/>
			<path class="st12" d="M134.3,1180.7v1.6h-1.7v-1.6H134.3z M132.8,1184.3h1.4v8.5h-1.4V1184.3z"/>
			<path class="st12" d="M143.5,1191.7v1.1h-7.2v-1l5.4-6.5h-5.2v-1.1h6.8v1l-5.3,6.5H143.5z"/>
			<path class="st12" d="M152.9,1184.3v8.5h-1.4v-1.5c-0.2,0.5-0.6,0.9-1.1,1.2c-0.5,0.3-1.1,0.4-1.8,0.4c-0.8,0-1.4-0.2-2-0.5
				c-0.6-0.4-1-0.9-1.3-1.5c-0.3-0.7-0.5-1.4-0.5-2.3c0-0.9,0.2-1.7,0.5-2.3c0.3-0.7,0.8-1.2,1.3-1.6c0.6-0.4,1.2-0.6,2-0.6
				c0.7,0,1.3,0.1,1.7,0.4s0.9,0.7,1.1,1.2v-1.5H152.9z M150.9,1190.9c0.5-0.6,0.7-1.4,0.7-2.4s-0.2-1.9-0.7-2.4
				c-0.5-0.6-1.1-0.8-1.9-0.8c-0.8,0-1.5,0.3-2,0.9c-0.5,0.6-0.7,1.4-0.7,2.4s0.2,1.8,0.7,2.4c0.5,0.6,1.1,0.8,2,0.8
				C149.8,1191.8,150.4,1191.5,150.9,1190.9z"/>
			<path class="st12" d="M157.4,1185.4v4.7c0,0.6,0.1,1.1,0.4,1.3c0.3,0.3,0.6,0.4,1.1,0.4c0.3,0,0.6-0.1,0.9-0.2v1.2
				c-0.4,0.1-0.7,0.2-1.2,0.2c-0.8,0-1.5-0.2-1.9-0.7c-0.5-0.5-0.7-1.1-0.7-2v-4.9h-1.7v-1.1h1.7v-2.2l1.4-0.5v2.7h2.4v1.1H157.4z"
				/>
			<path class="st12" d="M163.1,1180.7v1.6h-1.7v-1.6H163.1z M161.5,1184.3h1.4v8.5h-1.4V1184.3z"/>
			<path class="st12" d="M167,1192.4c-0.6-0.4-1.1-0.9-1.4-1.5s-0.5-1.4-0.5-2.3s0.2-1.7,0.5-2.3s0.8-1.2,1.4-1.5
				c0.6-0.4,1.3-0.5,2.1-0.5c0.8,0,1.5,0.2,2.1,0.5c0.6,0.4,1.1,0.9,1.4,1.5s0.5,1.4,0.5,2.3s-0.2,1.7-0.5,2.3s-0.8,1.2-1.4,1.5
				c-0.6,0.4-1.3,0.5-2.1,0.5C168.3,1192.9,167.6,1192.7,167,1192.4z M171,1191c0.5-0.6,0.7-1.4,0.7-2.5c0-1-0.2-1.8-0.7-2.4
				s-1.1-0.9-1.9-0.9c-0.8,0-1.5,0.3-2,0.9c-0.5,0.6-0.7,1.4-0.7,2.4c0,1.1,0.2,1.9,0.7,2.5c0.5,0.6,1.1,0.8,2,0.8
				S170.6,1191.5,171,1191z"/>
			<path class="st12" d="M182.6,1187.4v5.4h-1.4v-5.3c0-0.8-0.2-1.4-0.5-1.7c-0.3-0.4-0.8-0.6-1.5-0.6c-0.8,0-1.4,0.2-1.9,0.7
				c-0.5,0.5-0.7,1.1-0.7,2v4.9h-1.4v-6.1c0-0.9,0-1.7-0.1-2.4h1.3l0.1,1.5c0.3-0.6,0.7-1,1.2-1.3s1.1-0.5,1.8-0.5
				C181.6,1184.1,182.6,1185.2,182.6,1187.4z"/>
			<path class="st12" d="M189.8,1180.7h4.8c1.2,0,2.2,0.3,2.9,0.9s1,1.4,1,2.5c0,1.1-0.4,1.9-1.1,2.5c-0.7,0.6-1.7,0.9-2.9,0.9h-3.4
				v5.3h-1.4V1180.7z M194.5,1186.3c0.9,0,1.6-0.2,2-0.6c0.5-0.4,0.7-0.9,0.7-1.7s-0.2-1.3-0.7-1.7c-0.5-0.4-1.1-0.6-2-0.6h-3.3v4.5
				H194.5z"/>
			<path class="st12" d="M205.3,1184.2l0,1.3c-0.3-0.1-0.6-0.1-0.9-0.1c-0.8,0-1.4,0.3-1.8,0.8c-0.4,0.5-0.6,1.1-0.6,1.9v4.9h-1.4
				v-6.1c0-0.9,0-1.7-0.1-2.4h1.3l0.1,1.6c0.2-0.6,0.6-1,1-1.3c0.5-0.3,1-0.5,1.6-0.5C204.8,1184.1,205,1184.1,205.3,1184.2z"/>
			<path class="st12" d="M207.9,1192.4c-0.6-0.4-1.1-0.9-1.4-1.5s-0.5-1.4-0.5-2.3s0.2-1.7,0.5-2.3s0.8-1.2,1.4-1.5
				c0.6-0.4,1.3-0.5,2.1-0.5s1.5,0.2,2.1,0.5c0.6,0.4,1.1,0.9,1.4,1.5s0.5,1.4,0.5,2.3s-0.2,1.7-0.5,2.3s-0.8,1.2-1.4,1.5
				c-0.6,0.4-1.3,0.5-2.1,0.5S208.5,1192.7,207.9,1192.4z M212,1191c0.5-0.6,0.7-1.4,0.7-2.5c0-1-0.2-1.8-0.7-2.4
				c-0.5-0.6-1.1-0.9-1.9-0.9c-0.8,0-1.5,0.3-2,0.9s-0.7,1.4-0.7,2.4c0,1.1,0.2,1.9,0.7,2.5c0.5,0.6,1.1,0.8,2,0.8
				S211.5,1191.5,212,1191z"/>
			<path class="st12" d="M217.6,1192.4c-0.6-0.4-1.1-0.9-1.4-1.5s-0.5-1.4-0.5-2.3c0-0.9,0.2-1.7,0.5-2.3c0.3-0.7,0.8-1.2,1.5-1.6
				c0.6-0.4,1.4-0.6,2.2-0.6c0.6,0,1.1,0.1,1.7,0.3c0.5,0.2,1,0.5,1.3,0.8l-0.5,1c-0.4-0.3-0.8-0.6-1.2-0.7
				c-0.4-0.2-0.8-0.2-1.2-0.2c-0.9,0-1.6,0.3-2.1,0.9c-0.5,0.6-0.7,1.4-0.7,2.4c0,1,0.2,1.8,0.7,2.4c0.5,0.6,1.2,0.9,2.1,0.9
				c0.4,0,0.8-0.1,1.2-0.2s0.8-0.4,1.2-0.7l0.5,1c-0.4,0.3-0.8,0.6-1.4,0.8c-0.5,0.2-1.1,0.3-1.7,0.3
				C219,1192.9,218.2,1192.7,217.6,1192.4z"/>
			<path class="st12" d="M231.8,1188.5h-6.3c0,1.1,0.3,1.9,0.8,2.5c0.5,0.6,1.2,0.8,2.1,0.8c1,0,1.9-0.3,2.8-1l0.5,1
				c-0.4,0.4-0.9,0.6-1.4,0.8c-0.6,0.2-1.2,0.3-1.8,0.3c-1.3,0-2.4-0.4-3.1-1.2c-0.8-0.8-1.1-1.9-1.1-3.2c0-0.9,0.2-1.6,0.5-2.3
				c0.3-0.7,0.8-1.2,1.4-1.6c0.6-0.4,1.3-0.6,2.1-0.6c1.1,0,2,0.4,2.7,1.1c0.6,0.7,1,1.8,1,3.1V1188.5z M226.4,1185.8
				c-0.4,0.4-0.7,1-0.9,1.8h5c-0.1-0.8-0.3-1.4-0.7-1.8c-0.4-0.4-1-0.6-1.7-0.6S226.8,1185.4,226.4,1185.8z"/>
			<path class="st12" d="M233.3,1191.8l0.5-1c0.5,0.4,0.9,0.6,1.4,0.8c0.5,0.2,1,0.2,1.6,0.2c0.6,0,1.1-0.1,1.5-0.3s0.5-0.5,0.5-1
				c0-0.3-0.1-0.6-0.3-0.8c-0.2-0.2-0.6-0.4-1.1-0.5l-1.4-0.3c-0.7-0.2-1.3-0.4-1.7-0.8s-0.6-0.9-0.6-1.5c0-0.7,0.3-1.4,0.9-1.8
				c0.6-0.5,1.4-0.7,2.4-0.7c0.6,0,1.2,0.1,1.7,0.3s1,0.5,1.3,0.8l-0.5,1c-0.8-0.7-1.7-1-2.6-1c-0.6,0-1.1,0.1-1.4,0.3
				c-0.3,0.2-0.5,0.6-0.5,1c0,0.4,0.1,0.6,0.3,0.8c0.2,0.2,0.5,0.4,1,0.5l1.4,0.4c0.8,0.2,1.4,0.5,1.8,0.8s0.6,0.9,0.6,1.5
				c0,0.7-0.3,1.3-0.9,1.8c-0.6,0.4-1.4,0.7-2.4,0.7C235.3,1192.9,234.1,1192.6,233.3,1191.8z"/>
			<path class="st12" d="M241.7,1191.8l0.5-1c0.5,0.4,0.9,0.6,1.4,0.8c0.5,0.2,1,0.2,1.6,0.2c0.6,0,1.1-0.1,1.5-0.3s0.5-0.5,0.5-1
				c0-0.3-0.1-0.6-0.3-0.8c-0.2-0.2-0.6-0.4-1.1-0.5l-1.4-0.3c-0.7-0.2-1.3-0.4-1.7-0.8c-0.4-0.4-0.6-0.9-0.6-1.5
				c0-0.7,0.3-1.4,0.9-1.8c0.6-0.5,1.4-0.7,2.4-0.7c0.6,0,1.2,0.1,1.7,0.3c0.5,0.2,1,0.5,1.3,0.8l-0.5,1c-0.8-0.7-1.7-1-2.6-1
				c-0.6,0-1.1,0.1-1.4,0.3c-0.3,0.2-0.5,0.6-0.5,1c0,0.4,0.1,0.6,0.3,0.8c0.2,0.2,0.5,0.4,1,0.5l1.4,0.4c0.8,0.2,1.4,0.5,1.8,0.8
				s0.6,0.9,0.6,1.5c0,0.7-0.3,1.3-0.9,1.8s-1.4,0.7-2.4,0.7C243.7,1192.9,242.6,1192.6,241.7,1191.8z"/>
		</g>
	</g>
	<g class="st6">
		<path class="st13" d="M57.8,1346.9c0-3.2,2.4-5.4,5.7-5.4c1.8,0,3.3,0.7,4.3,1.9l-1.6,1.4c-0.7-0.8-1.6-1.2-2.6-1.2
			c-2,0-3.4,1.4-3.4,3.4c0,2,1.4,3.4,3.4,3.4c1,0,1.9-0.4,2.6-1.2l1.6,1.4c-1,1.2-2.5,1.9-4.3,1.9
			C60.2,1352.4,57.8,1350.1,57.8,1346.9z"/>
		<path class="st13" d="M68.4,1348.2c0-2.4,1.9-4.2,4.4-4.2c2.6,0,4.4,1.7,4.4,4.2c0,2.4-1.9,4.2-4.4,4.2
			C70.2,1352.3,68.4,1350.6,68.4,1348.2z M74.9,1348.2c0-1.4-0.9-2.2-2.1-2.2c-1.2,0-2.1,0.8-2.1,2.2s0.9,2.2,2.1,2.2
			C74,1350.4,74.9,1349.6,74.9,1348.2z"/>
		<path class="st13" d="M87,1347.6v4.6h-2.3v-4.3c0-1.3-0.6-1.9-1.6-1.9c-1.1,0-1.9,0.7-1.9,2.2v4h-2.3v-8.1H81v0.9
			c0.6-0.7,1.6-1.1,2.7-1.1C85.6,1344,87,1345.1,87,1347.6z"/>
		<path class="st13" d="M94.3,1351.8c-0.5,0.3-1.2,0.5-1.9,0.5c-1.9,0-3-1-3-2.9v-3.3h-1.2v-1.8h1.2v-2h2.3v2h2v1.8h-2v3.3
			c0,0.7,0.4,1.1,1,1.1c0.3,0,0.7-0.1,0.9-0.3L94.3,1351.8z"/>
		<path class="st13" d="M95.4,1341.7c0-0.7,0.6-1.3,1.5-1.3s1.5,0.5,1.5,1.3c0,0.8-0.6,1.3-1.5,1.3S95.4,1342.4,95.4,1341.7z
			 M95.6,1344.1H98v8.1h-2.3V1344.1z"/>
		<path class="st13" d="M108.4,1347.6v4.6h-2.3v-4.3c0-1.3-0.6-1.9-1.6-1.9c-1.1,0-1.9,0.7-1.9,2.2v4h-2.3v-8.1h2.2v0.9
			c0.6-0.7,1.6-1.1,2.7-1.1C107,1344,108.4,1345.1,108.4,1347.6z"/>
		<path class="st13" d="M118.6,1344.1v8.1h-2.2v-1c-0.6,0.7-1.5,1.1-2.5,1.1c-2,0-3.4-1.1-3.4-3.6v-4.6h2.3v4.2
			c0,1.3,0.6,1.9,1.6,1.9c1.1,0,1.9-0.7,1.9-2.2v-4H118.6z"/>
		<path class="st13" d="M120.2,1348.2c0-2.4,1.9-4.2,4.4-4.2c2.6,0,4.4,1.7,4.4,4.2c0,2.4-1.9,4.2-4.4,4.2
			C122.1,1352.3,120.2,1350.6,120.2,1348.2z M126.7,1348.2c0-1.4-0.9-2.2-2.1-2.2c-1.2,0-2.1,0.8-2.1,2.2s0.9,2.2,2.1,2.2
			C125.8,1350.4,126.7,1349.6,126.7,1348.2z"/>
		<path class="st13" d="M138.7,1344.1v8.1h-2.2v-1c-0.6,0.7-1.5,1.1-2.5,1.1c-2,0-3.4-1.1-3.4-3.6v-4.6h2.3v4.2
			c0,1.3,0.6,1.9,1.6,1.9c1.1,0,1.9-0.7,1.9-2.2v-4H138.7z"/>
		<path class="st13" d="M140.1,1351.4l0.8-1.7c0.7,0.5,1.8,0.8,2.8,0.8c1.1,0,1.5-0.3,1.5-0.7c0-1.3-4.9,0-4.9-3.2
			c0-1.5,1.4-2.6,3.7-2.6c1.1,0,2.3,0.3,3.1,0.7l-0.8,1.7c-0.8-0.5-1.6-0.6-2.3-0.6c-1,0-1.5,0.3-1.5,0.7c0,1.4,4.9,0,4.9,3.2
			c0,1.5-1.4,2.6-3.8,2.6C142.2,1352.3,140.9,1351.9,140.1,1351.4z"/>
		<path class="st13" d="M162.8,1352.2l0-6.3l-3.1,5.2h-1.1l-3.1-5v6.2h-2.3v-10.5h2l3.9,6.5l3.9-6.5h2l0,10.5H162.8z"/>
		<path class="st13" d="M166.8,1348.2c0-2.4,1.9-4.2,4.4-4.2s4.4,1.7,4.4,4.2c0,2.4-1.9,4.2-4.4,4.2S166.8,1350.6,166.8,1348.2z
			 M173.3,1348.2c0-1.4-0.9-2.2-2.1-2.2s-2.1,0.8-2.1,2.2s0.9,2.2,2.1,2.2S173.3,1349.6,173.3,1348.2z"/>
		<path class="st13" d="M185.4,1347.6v4.6h-2.3v-4.3c0-1.3-0.6-1.9-1.6-1.9c-1.1,0-1.9,0.7-1.9,2.2v4h-2.3v-8.1h2.2v0.9
			c0.6-0.7,1.6-1.1,2.7-1.1C184,1344,185.4,1345.1,185.4,1347.6z"/>
		<path class="st13" d="M187.3,1341.7c0-0.7,0.6-1.3,1.5-1.3s1.5,0.5,1.5,1.3c0,0.8-0.6,1.3-1.5,1.3S187.3,1342.4,187.3,1341.7z
			 M187.6,1344.1h2.3v8.1h-2.3V1344.1z"/>
		<path class="st13" d="M197.3,1351.8c-0.5,0.3-1.2,0.5-1.9,0.5c-1.9,0-3-1-3-2.9v-3.3h-1.2v-1.8h1.2v-2h2.3v2h2v1.8h-2v3.3
			c0,0.7,0.4,1.1,1,1.1c0.3,0,0.7-0.1,0.9-0.3L197.3,1351.8z"/>
		<path class="st13" d="M197.7,1348.2c0-2.4,1.9-4.2,4.4-4.2s4.4,1.7,4.4,4.2c0,2.4-1.9,4.2-4.4,4.2S197.7,1350.6,197.7,1348.2z
			 M204.2,1348.2c0-1.4-0.9-2.2-2.1-2.2s-2.1,0.8-2.1,2.2s0.9,2.2,2.1,2.2S204.2,1349.6,204.2,1348.2z"/>
		<path class="st13" d="M213.1,1344v2.2c-0.2,0-0.3,0-0.5,0c-1.3,0-2.1,0.7-2.1,2.2v3.8h-2.3v-8.1h2.2v1.1
			C210.9,1344.4,211.9,1344,213.1,1344z"/>
		<path class="st13" d="M214.2,1341.7c0-0.7,0.6-1.3,1.5-1.3s1.5,0.5,1.5,1.3c0,0.8-0.6,1.3-1.5,1.3S214.2,1342.4,214.2,1341.7z
			 M214.5,1344.1h2.3v8.1h-2.3V1344.1z"/>
		<path class="st13" d="M227.3,1347.6v4.6h-2.3v-4.3c0-1.3-0.6-1.9-1.6-1.9c-1.1,0-1.9,0.7-1.9,2.2v4H219v-8.1h2.2v0.9
			c0.6-0.7,1.6-1.1,2.7-1.1C225.8,1344,227.3,1345.1,227.3,1347.6z"/>
		<path class="st13" d="M237.8,1344.1v6.7c0,3-1.6,4.4-4.5,4.4c-1.5,0-3-0.4-4-1.1l0.9-1.7c0.7,0.6,1.8,0.9,2.8,0.9
			c1.6,0,2.4-0.7,2.4-2.2v-0.3c-0.6,0.7-1.5,1-2.5,1c-2.2,0-4-1.5-4-3.9s1.8-3.9,4-3.9c1.1,0,2.1,0.4,2.7,1.2v-1H237.8z
			 M235.5,1347.9c0-1.2-0.9-2-2.1-2c-1.2,0-2.1,0.8-2.1,2s0.9,2,2.1,2C234.6,1349.9,235.5,1349.1,235.5,1347.9z"/>
	</g>
	<line id="Line_280" class="st14" x1="91.5" y1="9.5" x2="0.1" y2="9.5"/>
	<line id="Line_279" class="st14" x1="301.6" y1="9.5" x2="210.2" y2="9.5"/>
	<g class="st6">
		<path class="st15" d="M118.5,8.1c0,3.1-2.3,5.1-6,5.1h-2.8V17h-3.2V3h6C116.1,3,118.5,4.9,118.5,8.1z M115.2,8.1
			c0-1.5-1-2.4-3-2.4h-2.6v4.9h2.6C114.2,10.5,115.2,9.6,115.2,8.1z"/>
		<path class="st15" d="M133.5,3v14h-3.2v-5.7H124V17h-3.2V3h3.2v5.5h6.3V3H133.5z"/>
		<path class="st15" d="M146,14h-6.5l-1.2,3H135l6.2-14h3.2l6.2,14h-3.4L146,14z M145,11.5l-2.2-5.4l-2.2,5.4H145z"/>
		<path class="st15" d="M150.9,15.6l1.1-2.4c1.2,0.9,2.9,1.5,4.6,1.5c1.9,0,2.7-0.6,2.7-1.5c0-2.6-8.1-0.8-8.1-6
			c0-2.4,1.9-4.4,5.9-4.4c1.7,0,3.5,0.4,4.8,1.2l-1,2.5c-1.3-0.7-2.6-1.1-3.9-1.1c-1.9,0-2.6,0.7-2.6,1.6c0,2.6,8.1,0.8,8.1,5.9
			c0,2.3-1.9,4.3-5.9,4.3C154.4,17.2,152.2,16.6,150.9,15.6z"/>
		<path class="st15" d="M175.5,14.4V17h-10.8V3h10.5v2.6h-7.3v3h6.5v2.5h-6.5v3.2H175.5z"/>
		<path class="st15" d="M188.2,3v14h-3.2V5.6h-2.8V3H188.2z"/>
	</g>
	<line id="Line_280_1_" class="st14" x1="91.5" y1="293.1" x2="0.1" y2="293.1"/>
	<line id="Line_279_1_" class="st14" x1="301.6" y1="293.1" x2="210.2" y2="293.1"/>
	<g class="st6">
		<path class="st15" d="M118.5,291.7c0,3.1-2.3,5.1-6,5.1h-2.8v3.9h-3.2v-14h6C116.1,286.6,118.5,288.5,118.5,291.7z M115.2,291.7
			c0-1.5-1-2.4-3-2.4h-2.6v4.9h2.6C114.2,294.1,115.2,293.2,115.2,291.7z"/>
		<path class="st15" d="M133.5,286.6v14h-3.2v-5.7H124v5.7h-3.2v-14h3.2v5.5h6.3v-5.5H133.5z"/>
		<path class="st15" d="M146,297.6h-6.5l-1.2,3H135l6.2-14h3.2l6.2,14h-3.4L146,297.6z M145,295.1l-2.2-5.4l-2.2,5.4H145z"/>
		<path class="st15" d="M150.9,299.2l1.1-2.4c1.2,0.9,2.9,1.5,4.6,1.5c1.9,0,2.7-0.6,2.7-1.5c0-2.6-8.1-0.8-8.1-6
			c0-2.4,1.9-4.4,5.9-4.4c1.7,0,3.5,0.4,4.8,1.2l-1,2.5c-1.3-0.7-2.6-1.1-3.9-1.1c-1.9,0-2.6,0.7-2.6,1.6c0,2.6,8.1,0.8,8.1,5.9
			c0,2.3-1.9,4.3-5.9,4.3C154.4,300.8,152.2,300.1,150.9,299.2z"/>
		<path class="st15" d="M175.5,298v2.6h-10.8v-14h10.5v2.6h-7.3v3h6.5v2.5h-6.5v3.2H175.5z"/>
		<path class="st15" d="M193.2,297.9v2.6h-10.5v-2.1l5.4-5.1c1.2-1.2,1.5-1.9,1.5-2.6c0-1.1-0.8-1.7-2.2-1.7c-1.2,0-2.2,0.5-2.9,1.4
			l-2.3-1.5c1.1-1.6,3-2.6,5.5-2.6c3.1,0,5.2,1.6,5.2,4.1c0,1.4-0.4,2.6-2.3,4.4l-3.2,3H193.2z"/>
	</g>
	<line id="Line_280_2_" class="st14" x1="91.5" y1="648.6" x2="0.1" y2="648.6"/>
	<line id="Line_279_2_" class="st14" x1="301.6" y1="648.6" x2="210.2" y2="648.6"/>
	<g class="st6">
		<path class="st15" d="M118.5,647.1c0,3.1-2.3,5.1-6,5.1h-2.8v3.9h-3.2v-14h6C116.1,642.1,118.5,644,118.5,647.1z M115.2,647.1
			c0-1.5-1-2.4-3-2.4h-2.6v4.9h2.6C114.2,649.5,115.2,648.6,115.2,647.1z"/>
		<path class="st15" d="M133.5,642.1v14h-3.2v-5.7H124v5.7h-3.2v-14h3.2v5.5h6.3v-5.5H133.5z"/>
		<path class="st15" d="M146,653h-6.5l-1.2,3H135l6.2-14h3.2l6.2,14h-3.4L146,653z M145,650.6l-2.2-5.4l-2.2,5.4H145z"/>
		<path class="st15" d="M150.9,654.7l1.1-2.4c1.2,0.9,2.9,1.5,4.6,1.5c1.9,0,2.7-0.6,2.7-1.5c0-2.6-8.1-0.8-8.1-6
			c0-2.4,1.9-4.4,5.9-4.4c1.7,0,3.5,0.4,4.8,1.2l-1,2.5c-1.3-0.7-2.6-1.1-3.9-1.1c-1.9,0-2.6,0.7-2.6,1.6c0,2.6,8.1,0.8,8.1,5.9
			c0,2.3-1.9,4.3-5.9,4.3C154.4,656.3,152.2,655.6,150.9,654.7z"/>
		<path class="st15" d="M175.5,653.4v2.6h-10.8v-14h10.5v2.6h-7.3v3h6.5v2.5h-6.5v3.2H175.5z"/>
		<path class="st15" d="M193.1,651.8c0,2.4-1.8,4.5-5.8,4.5c-1.9,0-4-0.5-5.3-1.5l1.3-2.5c1.1,0.8,2.5,1.3,4,1.3
			c1.6,0,2.6-0.7,2.6-1.8c0-1.1-0.8-1.7-2.6-1.7h-1.5v-2.1l2.9-3.3h-5.9v-2.6h9.7v2.1l-3.1,3.6C191.8,648.1,193.1,649.7,193.1,651.8
			z"/>
	</g>
	<line id="Line_280_3_" class="st14" x1="91.5" y1="966.1" x2="0.1" y2="966.1"/>
	<line id="Line_279_3_" class="st14" x1="301.6" y1="966.1" x2="210.2" y2="966.1"/>
	<g class="st6">
		<path class="st15" d="M118.5,964.7c0,3.1-2.3,5.1-6,5.1h-2.8v3.9h-3.2v-14h6C116.1,959.6,118.5,961.5,118.5,964.7z M115.2,964.7
			c0-1.5-1-2.4-3-2.4h-2.6v4.9h2.6C114.2,967.1,115.2,966.2,115.2,964.7z"/>
		<path class="st15" d="M133.5,959.6v14h-3.2v-5.7H124v5.7h-3.2v-14h3.2v5.5h6.3v-5.5H133.5z"/>
		<path class="st15" d="M146,970.6h-6.5l-1.2,3H135l6.2-14h3.2l6.2,14h-3.4L146,970.6z M145,968.1l-2.2-5.4l-2.2,5.4H145z"/>
		<path class="st15" d="M150.9,972.2l1.1-2.4c1.2,0.9,2.9,1.5,4.6,1.5c1.9,0,2.7-0.6,2.7-1.5c0-2.6-8.1-0.8-8.1-6
			c0-2.4,1.9-4.4,5.9-4.4c1.7,0,3.5,0.4,4.8,1.2l-1,2.5c-1.3-0.7-2.6-1.1-3.9-1.1c-1.9,0-2.6,0.7-2.6,1.6c0,2.6,8.1,0.8,8.1,5.9
			c0,2.3-1.9,4.3-5.9,4.3C154.4,973.8,152.2,973.2,150.9,972.2z"/>
		<path class="st15" d="M175.5,971v2.6h-10.8v-14h10.5v2.6h-7.3v3h6.5v2.5h-6.5v3.2H175.5z"/>
		<path class="st15" d="M195.5,970.6h-2.3v2.9h-3.1v-2.9h-7.5v-2.2l6.6-8.9h3.4l-6.1,8.4h3.7v-2.6h3v2.6h2.3V970.6z"/>
	</g>
	<line id="Line_280_5_" class="st14" x1="91.5" y1="1279.6" x2="0.1" y2="1279.6"/>
	<line id="Line_279_5_" class="st14" x1="301.6" y1="1277.6" x2="210.2" y2="1277.6"/>
	<g class="st6">
		<path class="st15" d="M118.5,1278.2c0,3.1-2.3,5.1-6,5.1h-2.8v3.9h-3.2v-14h6C116.1,1273.1,118.5,1275.1,118.5,1278.2z
			 M115.2,1278.2c0-1.5-1-2.4-3-2.4h-2.6v4.9h2.6C114.2,1280.6,115.2,1279.7,115.2,1278.2z"/>
		<path class="st15" d="M133.5,1273.1v14h-3.2v-5.7H124v5.7h-3.2v-14h3.2v5.5h6.3v-5.5H133.5z"/>
		<path class="st15" d="M146,1284.1h-6.5l-1.2,3H135l6.2-14h3.2l6.2,14h-3.4L146,1284.1z M145,1281.7l-2.2-5.4l-2.2,5.4H145z"/>
		<path class="st15" d="M150.9,1285.7l1.1-2.4c1.2,0.9,2.9,1.5,4.6,1.5c1.9,0,2.7-0.6,2.7-1.5c0-2.6-8.1-0.8-8.1-6
			c0-2.4,1.9-4.4,5.9-4.4c1.7,0,3.5,0.4,4.8,1.2l-1,2.5c-1.3-0.7-2.6-1.1-3.9-1.1c-1.9,0-2.6,0.7-2.6,1.6c0,2.6,8.1,0.8,8.1,5.9
			c0,2.3-1.9,4.3-5.9,4.3C154.4,1287.4,152.2,1286.7,150.9,1285.7z"/>
		<path class="st15" d="M175.5,1284.5v2.6h-10.8v-14h10.5v2.6h-7.3v3h6.5v2.5h-6.5v3.2H175.5z"/>
		<path class="st15" d="M193.3,1282.7c0,2.5-1.8,4.6-5.8,4.6c-1.9,0-4-0.5-5.3-1.5l1.3-2.5c1.1,0.8,2.5,1.3,4,1.3
			c1.6,0,2.6-0.7,2.6-1.8c0-1.1-0.7-1.8-3.2-1.8h-3.6l0.7-7.9h8.5v2.6h-5.8l-0.2,2.7h1.1C191.7,1278.4,193.3,1280.2,193.3,1282.7z"
			/>
	</g>
</g>
</svg>
