<?xml version="1.0" encoding="utf-8"?>
<!-- Generator: Adobe Illustrator 24.0.3, SVG Export Plug-In . SVG Version: 6.00 Build 0)  -->
<svg version="1.1" xmlns="http://www.w3.org/2000/svg" xmlns:xlink="http://www.w3.org/1999/xlink" x="0px" y="0px"
	 viewBox="0 0 662 623" style="enable-background:new 0 0 662 623;" xml:space="preserve">
<style type="text/css">
	.st0{fill:#FFFFFF;}
	.st1{fill:#1294C2;}
	.st2{fill:#0A90B7;}
	.st3{font-family:'Montserrat-ExtraBold';}
	.st4{font-size:15px;}
	.st5{fill:none;stroke:#D0D0D0;stroke-width:0.9899;}
	.st6{fill:none;}
	.st7{enable-background:new    ;}
	.st8{fill:#333333;}
	.st9{font-family:'Muli-Regular';}
	.st10{font-size:17.4344px;}
	.st11{fill:none;stroke:#CC1D1D;stroke-width:1.0897;}
	.st12{fill:none;stroke:#1A4480;stroke-width:1.0897;}
	.st13{font-size:17px;}
	.st14{fill:none;stroke:#C71F25;}
	.st15{fill:#C71F25;}
	.st16{font-family:'Muli-Black';}
	.st17{font-size:14px;}
	.st18{fill:none;stroke:#1A4480;}
	.st19{fill:#1A4480;}
	.st20{fill:#454545;}
</style>
<g id="Layer_2">
</g>
<g id="Layer_4">
	<path id="Path_11101_1_" class="st0" d="M646,502.9H415.5l13.4-29.9l-13.4-29.9H646l14.5,29.9L646,502.9z"/>
	<path id="Path_11099_1_" class="st2" d="M156.3,502.9H0.5L12.6,473L0.5,443.1h155.9l13.1,29.9L156.3,502.9z"/>
	<path id="Path_11287_1_" class="st2" d="M649.3,162.9H345.5L358,133l-12.6-29.9h303.9l12.6,29.9L649.3,162.9z"/>
	<path id="Path_11287-2" class="st2" d="M305.3,162.9H1.5v-59.8h303.9l12.6,29.9L305.3,162.9z"/>
	<path id="Path_11098_1_" class="st2" d="M369.3,502.9H213.5l12.1-29.9l-12.1-29.9h155.9l13.1,29.9L369.3,502.9z"/>
	<path id="Path_11341_1_" class="st2" d="M425,498.5h-3.2l1.2-3l8.2-20.2l1-2.4l-1-2.4l-8.2-20.3l-1.2-3h26.5v-4.3h-32.9l11.8,29.2
		l0.3,0.8l-0.3,0.8l-11.8,29.1h182.6v6.1l11-8.1l-11-8.1v5.9L425,498.5L425,498.5z"/>
	<path id="Path_11342_1_" class="st2" d="M598.1,496.3v-3.7l11,8.1l-11,8.1v-6.1H415.5l11.8-29.1l0.3-0.8l-0.3-0.8l-11.8-29.2h32.9
		v4.3h-26.5l1.2,2.9l8.2,20.3l1,2.4l-1,2.4l-8.2,20.2l-1.2,3h176.3L598.1,496.3z"/>
	<path id="Path_11343_1_" class="st2" d="M648.9,502.8h-32.5v-4.3h29.7l0.6-1.3l10.3-23.5l0.4-0.9l-0.4-0.9l-10.3-23.5l-0.6-1.3
		H466.6v6.1l-11-8.1l11-8.1v5.9h182.3l13.1,30L648.9,502.8z"/>
</g>
<g id="Layer_3">
	<rect id="Rectangle_2941_12_" x="229.3" y="529.5" class="st0" width="135.1" height="85.9"/>
	<path id="Path_11091_12_" class="st0" d="M296.9,512.5l23.3,24.4h-46.6L296.9,512.5z"/>
	<rect id="Rectangle_2941_11_" x="229.3" y="330.5" class="st0" width="135.1" height="85.9"/>
	<path id="Path_11091_11_" class="st0" d="M296.9,433.4l23.3-24.4h-46.6L296.9,433.4z"/>
	<rect id="Rectangle_2941_10_" x="17.3" y="529.5" class="st0" width="135.1" height="85.9"/>
	<path id="Path_11091_10_" class="st0" d="M85.3,514.5l23.3,24.4H62L85.3,514.5z"/>
	<rect id="Rectangle_2941_9_" x="17.3" y="332.5" class="st0" width="135.1" height="85.9"/>
	<path id="Path_11091_9_" class="st0" d="M85.3,435.4l23.3-24.4H62L85.3,435.4z"/>
	<rect id="Rectangle_2981" x="358" y="7.8" class="st0" width="132" height="66.8"/>
	<path id="Path_11415" class="st0" d="M424.4,93.8l21.4-22.4H403L424.4,93.8z"/>
	<rect id="Rectangle_2982" x="358" y="189.8" class="st0" width="132" height="68.8"/>
	<path id="Path_11416" class="st0" d="M424.4,170.6l21.4,22.4H403L424.4,170.6z"/>
	<rect id="Rectangle_2979" x="514" y="8.2" class="st0" width="132" height="66.8"/>
	<path id="Path_11413" class="st0" d="M580.4,94.2l21.4-22.4H559L580.4,94.2z"/>
	<rect id="Rectangle_2980" x="514" y="190.2" class="st0" width="132" height="68.8"/>
	<path id="Path_11414" class="st0" d="M580.4,170.9l21.4,22.4H559L580.4,170.9z"/>
	<text transform="matrix(1 0 0 1 52.8363 139.9871)" class="st0 st3 st4">Select Authorization Path</text>
	<text transform="matrix(1 0 0 1 453.5004 139.9871)" class="st0 st3 st4">Preparation</text>
	<text transform="matrix(1 0 0 1 58.9873 479.733)" class="st0 st3 st4">Review</text>
	<text transform="matrix(1 0 0 1 245.5723 479.733)" class="st0 st3 st4">Authorization</text>
	<line id="Line_282" class="st5" x1="662" y1="291.4" x2="5" y2="291.4"/>
</g>
<g id="Layer_1">
	<rect x="229.4" y="545.3" class="st6" width="135" height="61.5"/>
	<text transform="matrix(1 0 0 1 281.3427 560.2334)" class="st7"><tspan x="0" y="0" class="st8 st9 st10">JAB </tspan><tspan x="-41.3" y="20.9" class="st8 st9 st10">Authorization </tspan><tspan x="-17" y="41.8" class="st8 st9 st10">Process </tspan></text>
	<rect x="229.4" y="342.2" class="st6" width="135" height="61.5"/>
	<text transform="matrix(1 0 0 1 265.5742 357.0739)" class="st7"><tspan x="0" y="0" class="st8 st9 st10">Agency </tspan><tspan x="-25.5" y="20.9" class="st8 st9 st10">Authorization </tspan><tspan x="-1.2" y="41.8" class="st8 st9 st10">Process </tspan></text>
	<rect x="17" y="555.8" class="st6" width="135" height="40.6"/>
	<text transform="matrix(1 0 0 1 33.6182 570.6941)" class="st7"><tspan x="0" y="0" class="st8 st9 st10">Full Security </tspan><tspan x="0.3" y="20.9" class="st8 st9 st10">Assessment</tspan></text>
	<rect x="17" y="354.6" class="st6" width="135" height="40.6"/>
	<text transform="matrix(1 0 0 1 33.6182 369.5344)" class="st7"><tspan x="0" y="0" class="st8 st9 st10">Full Security </tspan><tspan x="0.3" y="20.9" class="st8 st9 st10">Assessment</tspan></text>
	<rect x="518" y="21.4" class="st6" width="124" height="39.6"/>
	<text transform="matrix(1 0 0 1 537.8744 35.98)" class="st7"><tspan x="0" y="0" class="st8 st9 st13">Readiness </tspan><tspan x="-7.2" y="20.4" class="st8 st9 st13">Assessment </tspan></text>
	<rect x="518" y="205.4" class="st6" width="124" height="39.6"/>
	<text transform="matrix(1 0 0 1 537.8744 219.98)" class="st7"><tspan x="0" y="0" class="st8 st9 st13">Readiness </tspan><tspan x="-7.2" y="20.4" class="st8 st9 st13">Assessment </tspan></text>
	<rect x="362" y="21.4" class="st6" width="124" height="39.6"/>
	<text transform="matrix(1 0 0 1 376.6302 35.9941)" class="st7"><tspan x="0" y="0" class="st8 st9 st13">Partnership </tspan><tspan x="-10.3" y="20.4" class="st8 st9 st13">Establishment</tspan></text>
	<rect x="362" y="205.4" class="st6" width="124" height="39.6"/>
	<text transform="matrix(1 0 0 1 383.5916 219.9942)" class="st7"><tspan x="0" y="0" class="st8 st9 st13">FedRAMP </tspan><tspan x="7" y="20.4" class="st8 st9 st13">Connect</tspan></text>
	<g id="Component_62_69" transform="translate(77 182.158)">
		<g id="Base_1_">
			<path class="st6" d="M7,7.8h148c9.4,0,17,7.6,17,17v4c0,9.4-7.6,17-17,17H7c-9.4,0-17-7.6-17-17v-4C-10,15.4-2.4,7.8,7,7.8z"/>
			<path class="st14" d="M7,8.3h148c9.1,0,16.5,7.4,16.5,16.5v4c0,9.1-7.4,16.5-16.5,16.5H7c-9.1,0-16.5-7.4-16.5-16.5v-4
				C-9.5,15.7-2.1,8.3,7,8.3z"/>
		</g>
		<text transform="matrix(1 0 0 1 31.0063 31.8291)" class="st15 st16 st17">JAB PROCESS</text>
	</g>
	<g id="Component_62_70" transform="translate(77 26.053)">
		<g id="Base-2_1_">
			<path class="st6" d="M7,7.8h148c9.4,0,17,7.6,17,17v4c0,9.4-7.6,17-17,17H7c-9.4,0-17-7.6-17-17v-4C-10,15.4-2.4,7.8,7,7.8z"/>
			<path class="st18" d="M7,8.3h148c9.1,0,16.5,7.4,16.5,16.5v4c0,9.1-7.4,16.5-16.5,16.5H7c-9.1,0-16.5-7.4-16.5-16.5v-4
				C-9.5,15.7-2.1,8.3,7,8.3z"/>
		</g>
		<text transform="matrix(1 0 0 1 14.0593 31.829)" class="st19 st16 st17">AGENCY PROCESS</text>
	</g>
	<text transform="matrix(1 0 0 1 448.2013 479.733)" class="st20 st3 st4">Continuous Monitoring</text>
</g>
</svg>
