<?xml version="1.0" encoding="utf-8"?>
<!-- Generator: Adobe Illustrator 24.2.3, SVG Export Plug-In . SVG Version: 6.00 Build 0)  -->
<svg version="1.1" id="Layer_1" xmlns="http://www.w3.org/2000/svg" xmlns:xlink="http://www.w3.org/1999/xlink" x="0px" y="0px"
	 viewBox="0 0 662 613" style="enable-background:new 0 0 662 613;" xml:space="preserve">
<style type="text/css">
	.st0{fill:#FFFFFF;}
	.st1{fill:#0A90B7;}
	.st2{fill:#C71F25;}
	.st3{fill:#1A4480;}
	.st4{enable-background:new    ;}
	.st5{fill:none;}
	.st6{fill:#454545;}
	.st7{fill:#D0D0D0;}
	.st8{fill:#CC1D1D;}
</style>
<g id="Layer_4">
	<path id="Path_11101_1_" class="st0" d="M646,500.9H415.5l13.4-29.9l-13.4-29.9H646l14.5,29.9L646,500.9z"/>
	<path id="Path_11099_1_" class="st1" d="M171.8,500.9H-0.1L12,471l-12.1-29.9h171.9l13.1,29.9L171.8,500.9z"/>
	<path id="Path_11099_3_" class="st1" d="M379.1,500.9H207.2l12.1-29.9l-12.1-29.9h171.9l13.1,29.9L379.1,500.9z"/>
	<path id="Path_11287_1_" class="st1" d="M649.2,160.9H343.8l12.6-29.9l-12.6-29.9h305.4l12.6,29.9L649.2,160.9z"/>
	<path id="Path_11287-2" class="st1" d="M305.4,160.9H0v-59.8h305.4L318,131L305.4,160.9z"/>
	<path id="Path_11341_1_" class="st1" d="M425,496.5h-3.2l1.2-3l8.2-20.2l1-2.4l-1-2.4l-8.2-20.3l-1.2-3h26.5v-4.3h-32.9l11.8,29.2
		l0.3,0.8l-0.3,0.8l-11.8,29.1H598v6.1l11-8.1l-11-8.1v5.9L425,496.5L425,496.5z"/>
	<path id="Path_11342_1_" class="st1" d="M598.1,494.3v-3.7l11,8.1l-11,8.1v-6.1H415.5l11.8-29.1l0.3-0.8l-0.3-0.8l-11.8-29.2h32.9
		v4.3h-26.5l1.2,2.9l8.2,20.3l1,2.4l-1,2.4l-8.2,20.2l-1.2,3h176.3L598.1,494.3z"/>
	<path id="Path_11343_1_" class="st1" d="M648.9,500.8h-32.5v-4.3h29.7l0.6-1.3l10.3-23.5l0.4-0.9l-0.4-0.9l-10.3-23.5l-0.6-1.3
		H466.6v6.1l-11-8.1l11-8.1v5.9h182.3l13.1,30L648.9,500.8z"/>
</g>
<g id="Layer_3">
	<g>
		<polygon class="st0" points="315.8,527.5 299.7,510.5 283.5,527.5 232.1,527.5 232.1,613.4 367.2,613.4 367.2,527.5 		"/>
		<path class="st2" d="M367.6,613.8H231.7v-86.7h51.6l16.4-17.2l16.3,17.2h51.6V613.8z M232.5,613h134.4v-85.2h-51.2L299.7,511
			l-16,16.8h-51.2V613z"/>
	</g>
	<g>
		<polygon class="st0" points="367.2,328.5 232.1,328.5 232.1,414.4 283.5,414.4 299.7,431.4 315.8,414.4 367.2,414.4 		"/>
		<path class="st3" d="M299.7,431.9l-16.4-17.2h-51.6v-86.7h135.9v86.7H316L299.7,431.9z M232.5,414h51.2l16,16.8l15.9-16.8h51.2
			v-85.2H232.5V414z"/>
	</g>
	<g>
		<polygon class="st0" points="106.6,527.5 92.4,512.5 78.1,527.5 24.8,527.5 24.8,613.4 159.9,613.4 159.9,527.5 		"/>
		<path class="st2" d="M160.3,613.8H24.4v-86.7h53.5L92.4,512l14.4,15.2h53.5V613.8z M25.2,613h134.4v-85.2h-53.1l-14-14.8
			l-14.1,14.8H25.2V613z"/>
	</g>
	<g>
		<polygon class="st0" points="159.9,330.5 24.8,330.5 24.8,416.4 76.2,416.4 92.4,433.4 108.5,416.4 159.9,416.4 		"/>
		<path class="st3" d="M92.4,433.9L76,416.8H24.4v-86.7h135.9v86.7h-51.6L92.4,433.9z M25.2,416h51.2l16,16.8l15.9-16.8h51.2v-85.2
			H25.2V416z"/>
	</g>
	<g>
		<polygon class="st0" points="593,187.9 575.8,169.9 558.7,187.9 507,187.9 507,256.9 643.8,256.9 643.8,187.9 		"/>
		<path class="st2" d="M644.2,257.3H506.6v-69.8h51.9l17.3-18.2l17.4,18.2h51V257.3z M507.4,256.5h136v-68.2h-50.6l-0.1-0.1
			l-16.9-17.7l-16.9,17.8h-51.5V256.5z"/>
	</g>
	<g>
		<polygon class="st0" points="437,187.9 419.9,169.9 402.8,187.9 351.1,187.9 351.1,256.9 487.9,256.9 487.9,187.9 		"/>
		<path class="st2" d="M488.3,257.3H350.7v-69.8h51.9l17.3-18.2l17.3,18.2h51.1V257.3z M351.5,256.5h136.1v-68.2h-50.7l-0.1-0.1
			l-16.8-17.7L403,188.3h-51.5V256.5z"/>
	</g>
	<g>
		<polygon class="st0" points="643.8,3 507,3 507,72 558.9,72 575.8,89.8 592.8,72 643.8,72 		"/>
		<path class="st3" d="M575.8,90.3l-17.1-18h-52.1V2.6h137.5v69.8H593L575.8,90.3z M507.4,71.6h51.7l0.1,0.1l16.6,17.5l16.8-17.6
			h50.8V3.4h-136V71.6z"/>
	</g>
	<g>
		<polygon class="st0" points="487.9,3 351.1,3 351.1,72 402.9,72 419.9,89.8 436.8,72 487.9,72 		"/>
		<path class="st3" d="M419.9,90.3l-17.2-18h-52V2.6h137.6v69.8H437L419.9,90.3z M351.5,71.6h51.6l16.8,17.6l16.7-17.6h50.9V3.4
			H351.5V71.6z"/>
	</g>
	<g class="st4">
		<path class="st0" d="M48.4,137l1-2.2c0.9,0.6,2.2,1,3.5,1c1.2,0,1.7-0.3,1.7-0.9c0-1.7-6-0.5-6-4.3c0-1.9,1.5-3.4,4.6-3.4
			c1.4,0,2.8,0.3,3.8,0.9l-0.9,2.2c-1-0.5-2-0.8-2.9-0.8c-1.2,0-1.7,0.4-1.7,0.9c0,1.6,6,0.4,6,4.3c0,1.8-1.5,3.4-4.6,3.4
			C51.1,138.2,49.4,137.7,48.4,137z"/>
		<path class="st0" d="M67,134.6h-5.9c0.2,0.8,0.9,1.3,2,1.3c0.8,0,1.3-0.2,1.9-0.7l1.5,1.6c-0.8,0.9-1.9,1.3-3.5,1.3
			c-2.9,0-4.8-1.8-4.8-4.2s1.9-4.2,4.5-4.2c2.4,0,4.3,1.5,4.3,4.2C67,134.1,67,134.4,67,134.6z M61,133.1h3.3
			c-0.1-0.9-0.8-1.4-1.7-1.4C61.8,131.7,61.2,132.3,61,133.1z"/>
		<path class="st0" d="M68.3,126.9h2.8V138h-2.8V126.9z"/>
		<path class="st0" d="M81.3,134.6h-5.9c0.2,0.8,0.9,1.3,2,1.3c0.8,0,1.3-0.2,1.9-0.7l1.5,1.6c-0.8,0.9-1.9,1.3-3.5,1.3
			c-2.9,0-4.8-1.8-4.8-4.2s1.9-4.2,4.5-4.2c2.4,0,4.3,1.5,4.3,4.2C81.3,134.1,81.3,134.4,81.3,134.6z M75.3,133.1h3.3
			c-0.1-0.9-0.8-1.4-1.7-1.4C76.1,131.7,75.5,132.3,75.3,133.1z"/>
		<path class="st0" d="M82.1,133.9c0-2.4,1.9-4.2,4.7-4.2c1.8,0,3.3,0.8,3.8,2.2l-2.2,1.1c-0.4-0.8-1-1.1-1.6-1.1
			c-1,0-1.8,0.7-1.8,1.9c0,1.3,0.8,2,1.8,2c0.7,0,1.2-0.3,1.6-1.1l2.2,1.1c-0.6,1.4-2,2.2-3.8,2.2C84.1,138.1,82.1,136.4,82.1,133.9
			z"/>
		<path class="st0" d="M97.4,137.7c-0.5,0.3-1.2,0.5-2,0.5c-2.1,0-3.3-1-3.3-3.1v-2.7H91v-2.1h1.2V128H95v2.1h1.9v2.1H95v2.7
			c0,0.6,0.3,0.9,0.9,0.9c0.3,0,0.6-0.1,0.9-0.3L97.4,137.7z"/>
		<path class="st0" d="M110.1,135.9h-4.4l-0.8,2h-3l4.6-10.5h2.9L114,138h-3.1L110.1,135.9z M109.2,133.8l-1.4-3.4l-1.4,3.4H109.2z"
			/>
		<path class="st0" d="M123.1,129.9v8.1h-2.7v-0.9c-0.6,0.7-1.5,1-2.4,1c-2,0-3.5-1.1-3.5-3.7v-4.5h2.9v4.1c0,1.3,0.5,1.8,1.4,1.8
			c0.8,0,1.5-0.6,1.5-1.9V130h2.8V129.9z"/>
		<path class="st0" d="M130.5,137.7c-0.5,0.3-1.2,0.5-2,0.5c-2.1,0-3.3-1-3.3-3.1v-2.7H124v-2.1h1.2V128h2.8v2.1h1.9v2.1H128v2.7
			c0,0.6,0.3,0.9,0.9,0.9c0.3,0,0.6-0.1,0.9-0.3L130.5,137.7z"/>
		<path class="st0" d="M140.3,133.3v4.6h-2.9v-4.2c0-1.2-0.5-1.7-1.3-1.7c-0.9,0-1.6,0.6-1.6,1.9v3.9h-2.8v-11.1h2.8v3.8
			c0.6-0.6,1.5-0.9,2.4-0.9C138.8,129.7,140.3,130.8,140.3,133.3z"/>
		<path class="st0" d="M141.7,133.9c0-2.4,1.9-4.2,4.6-4.2c2.7,0,4.6,1.7,4.6,4.2s-1.9,4.2-4.6,4.2
			C143.6,138.1,141.7,136.4,141.7,133.9z M148,133.9c0-1.2-0.7-1.9-1.7-1.9s-1.7,0.7-1.7,1.9s0.8,2,1.7,2S148,135.2,148,133.9z"/>
		<path class="st0" d="M157.6,129.7v2.6c-0.3,0-0.4,0-0.6,0c-1.2,0-2,0.6-2,2v3.7h-2.8v-8.1h2.7v1
			C155.5,130.1,156.4,129.7,157.6,129.7z"/>
		<path class="st0" d="M158.5,127.4c0-0.9,0.7-1.5,1.7-1.5s1.7,0.6,1.7,1.5s-0.7,1.6-1.7,1.6S158.5,128.3,158.5,127.4z M158.8,129.9
			h2.8v8.1h-2.8V129.9z"/>
		<path class="st0" d="M170.6,135.9v2.1h-7.5v-1.7l3.8-4.3h-3.7v-2.1h7.2v1.7l-3.8,4.3H170.6z"/>
		<path class="st0" d="M179.5,133.5v4.5h-2.7v-1c-0.4,0.8-1.2,1.2-2.4,1.2c-2,0-3-1.1-3-2.5c0-1.5,1.1-2.4,3.6-2.4h1.6
			c0-0.8-0.6-1.3-1.7-1.3c-0.8,0-1.6,0.3-2.2,0.7l-1-1.9c0.9-0.6,2.3-0.9,3.6-0.9C177.9,129.7,179.5,130.9,179.5,133.5z
			 M176.6,135.4v-0.7h-1.2c-0.9,0-1.2,0.3-1.2,0.8s0.4,0.8,1.1,0.8C175.8,136.3,176.4,136,176.6,135.4z"/>
		<path class="st0" d="M186.9,137.7c-0.5,0.3-1.2,0.5-2,0.5c-2.1,0-3.3-1-3.3-3.1v-2.7h-1.2v-2.1h1.2V128h2.8v2.1h1.9v2.1h-1.9v2.7
			c0,0.6,0.3,0.9,0.9,0.9c0.3,0,0.6-0.1,0.9-0.3L186.9,137.7z"/>
		<path class="st0" d="M187.6,127.4c0-0.9,0.7-1.5,1.7-1.5s1.7,0.6,1.7,1.5s-0.7,1.6-1.7,1.6S187.6,128.3,187.6,127.4z M188,129.9
			h2.8v8.1H188V129.9z"/>
		<path class="st0" d="M192.1,133.9c0-2.4,1.9-4.2,4.6-4.2c2.7,0,4.6,1.7,4.6,4.2s-1.9,4.2-4.6,4.2
			C194.1,138.1,192.1,136.4,192.1,133.9z M198.4,133.9c0-1.2-0.7-1.9-1.7-1.9s-1.7,0.7-1.7,1.9s0.8,2,1.7,2
			C197.7,135.9,198.4,135.2,198.4,133.9z"/>
		<path class="st0" d="M211.3,133.3v4.6h-2.9v-4.2c0-1.2-0.5-1.7-1.3-1.7c-0.9,0-1.6,0.6-1.6,1.9v3.9h-2.8v-8.1h2.7v0.9
			c0.6-0.7,1.6-1,2.6-1C209.8,129.7,211.3,130.8,211.3,133.3z"/>
		<path class="st0" d="M227,131.4c0,2.4-1.8,3.9-4.7,3.9h-1.8v2.7h-3v-10.5h4.8C225.2,127.5,227,129,227,131.4z M224,131.4
			c0-1-0.6-1.5-1.8-1.5h-1.6v3.1h1.6C223.4,132.9,224,132.3,224,131.4z"/>
		<path class="st0" d="M235.9,133.5v4.5h-2.7v-1c-0.4,0.8-1.2,1.2-2.4,1.2c-2,0-3-1.1-3-2.5c0-1.5,1.1-2.4,3.6-2.4h1.6
			c0-0.8-0.6-1.3-1.7-1.3c-0.8,0-1.6,0.3-2.2,0.7l-1-1.9c0.9-0.6,2.3-0.9,3.6-0.9C234.4,129.7,235.9,130.9,235.9,133.5z M233,135.4
			v-0.7h-1.2c-0.9,0-1.2,0.3-1.2,0.8s0.4,0.8,1.1,0.8C232.3,136.3,232.8,136,233,135.4z"/>
		<path class="st0" d="M243.3,137.7c-0.5,0.3-1.2,0.5-2,0.5c-2.1,0-3.3-1-3.3-3.1v-2.7h-1.2v-2.1h1.2V128h2.8v2.1h1.9v2.1h-1.9v2.7
			c0,0.6,0.3,0.9,0.9,0.9c0.3,0,0.6-0.1,0.9-0.3L243.3,137.7z"/>
		<path class="st0" d="M253.1,133.3v4.6h-2.9v-4.2c0-1.2-0.5-1.7-1.3-1.7c-0.9,0-1.6,0.6-1.6,1.9v3.9h-2.8v-11.1h2.8v3.8
			c0.6-0.6,1.5-0.9,2.4-0.9C251.6,129.7,253.1,130.8,253.1,133.3z"/>
	</g>
	<g class="st4">
		<path class="st0" d="M464,131.4c0,2.4-1.8,3.9-4.7,3.9h-1.8v2.7h-3v-10.5h4.8C462.2,127.5,464,129,464,131.4z M461,131.4
			c0-1-0.6-1.5-1.8-1.5h-1.6v3.1h1.6C460.4,132.9,461,132.3,461,131.4z"/>
		<path class="st0" d="M470.8,129.7v2.6c-0.3,0-0.4,0-0.6,0c-1.2,0-2,0.6-2,2v3.7h-2.8v-8.1h2.7v1
			C468.7,130.1,469.6,129.7,470.8,129.7z"/>
		<path class="st0" d="M480.2,134.6h-5.9c0.2,0.8,0.9,1.3,2,1.3c0.8,0,1.3-0.2,1.9-0.7l1.5,1.6c-0.8,0.9-1.9,1.3-3.5,1.3
			c-2.9,0-4.8-1.8-4.8-4.2s1.9-4.2,4.5-4.2c2.4,0,4.3,1.5,4.3,4.2C480.2,134.1,480.2,134.4,480.2,134.6z M474.2,133.1h3.3
			c-0.2-0.9-0.8-1.4-1.7-1.4S474.4,132.3,474.2,133.1z"/>
		<path class="st0" d="M490.7,133.9c0,2.6-1.8,4.2-4,4.2c-0.9,0-1.7-0.3-2.3-0.9v3.6h-2.8v-11h2.7v0.8c0.5-0.6,1.3-0.9,2.4-0.9
			C488.9,129.7,490.7,131.3,490.7,133.9z M487.8,133.9c0-1.2-0.8-1.9-1.7-1.9s-1.7,0.7-1.7,1.9s0.8,1.9,1.7,1.9
			S487.8,135.2,487.8,133.9z"/>
		<path class="st0" d="M499.4,133.5v4.5h-2.7v-1c-0.4,0.8-1.2,1.2-2.4,1.2c-2,0-3-1.1-3-2.5c0-1.5,1.1-2.4,3.6-2.4h1.6
			c0-0.8-0.6-1.3-1.7-1.3c-0.8,0-1.7,0.3-2.2,0.7l-1-1.9c0.9-0.6,2.3-0.9,3.6-0.9C497.9,129.7,499.4,130.9,499.4,133.5z
			 M496.6,135.4v-0.7h-1.2c-0.9,0-1.2,0.3-1.2,0.8s0.4,0.8,1.1,0.8C495.8,136.3,496.4,136,496.6,135.4z"/>
		<path class="st0" d="M506.7,129.7v2.6c-0.3,0-0.4,0-0.6,0c-1.2,0-2,0.6-2,2v3.7h-2.8v-8.1h2.7v1
			C504.5,130.1,505.5,129.7,506.7,129.7z"/>
		<path class="st0" d="M515.4,133.5v4.5h-2.7v-1c-0.4,0.8-1.2,1.2-2.4,1.2c-2,0-3-1.1-3-2.5c0-1.5,1.1-2.4,3.6-2.4h1.6
			c0-0.8-0.6-1.3-1.7-1.3c-0.8,0-1.6,0.3-2.2,0.7l-1-1.9c0.9-0.6,2.3-0.9,3.6-0.9C513.9,129.7,515.4,130.9,515.4,133.5z
			 M512.6,135.4v-0.7h-1.2c-0.9,0-1.2,0.3-1.2,0.8s0.4,0.8,1.1,0.8C511.8,136.3,512.3,136,512.6,135.4z"/>
		<path class="st0" d="M522.8,137.7c-0.5,0.3-1.2,0.5-2,0.5c-2.1,0-3.3-1-3.3-3.1v-2.7h-1.2v-2.1h1.2V128h2.8v2.1h1.9v2.1h-1.9v2.7
			c0,0.6,0.3,0.9,0.9,0.9c0.3,0,0.6-0.1,0.9-0.3L522.8,137.7z"/>
		<path class="st0" d="M523.6,127.4c0-0.9,0.7-1.5,1.7-1.5s1.7,0.6,1.7,1.5s-0.7,1.6-1.7,1.6S523.6,128.3,523.6,127.4z M523.9,129.9
			h2.8v8.1h-2.8V129.9z"/>
		<path class="st0" d="M528.1,133.9c0-2.4,1.9-4.2,4.6-4.2c2.7,0,4.6,1.7,4.6,4.2s-1.9,4.2-4.6,4.2
			C530,138.1,528.1,136.4,528.1,133.9z M534.4,133.9c0-1.2-0.7-1.9-1.7-1.9s-1.7,0.7-1.7,1.9s0.8,2,1.7,2
			C533.7,135.9,534.4,135.2,534.4,133.9z"/>
		<path class="st0" d="M547.2,133.3v4.6h-2.8v-4.2c0-1.2-0.5-1.7-1.3-1.7c-0.9,0-1.6,0.6-1.6,1.9v3.9h-2.8v-8.1h2.7v0.9
			c0.6-0.7,1.6-1,2.6-1C545.8,129.7,547.2,130.8,547.2,133.3z"/>
	</g>
	<g class="st4">
		<path class="st0" d="M68.4,474.9h-1.6v2.8h-3v-10.5h4.8c2.9,0,4.7,1.5,4.7,3.9c0,1.5-0.8,2.7-2.1,3.3l2.3,3.3h-3.2L68.4,474.9z
			 M68.4,469.6h-1.6v3.1h1.6c1.2,0,1.8-0.6,1.8-1.5C70.3,470.1,69.7,469.6,68.4,469.6z"/>
		<path class="st0" d="M83,474.4h-5.9c0.2,0.8,0.9,1.3,2,1.3c0.8,0,1.3-0.2,1.9-0.7l1.5,1.6c-0.8,0.9-1.9,1.3-3.5,1.3
			c-2.9,0-4.8-1.8-4.8-4.2c0-2.4,1.9-4.2,4.5-4.2c2.4,0,4.3,1.5,4.3,4.2C83.1,473.9,83.1,474.2,83,474.4z M77.1,472.9h3.3
			c-0.1-0.9-0.8-1.4-1.7-1.4C77.9,471.5,77.3,472,77.1,472.9z"/>
		<path class="st0" d="M92.8,469.6l-3.4,8.1h-2.9l-3.3-8.1h2.9l2,5l2.1-5H92.8z"/>
		<path class="st0" d="M93.2,467.2c0-0.9,0.7-1.5,1.7-1.5s1.7,0.6,1.7,1.5s-0.7,1.6-1.7,1.6S93.2,468,93.2,467.2z M93.6,469.6h2.8
			v8.1h-2.8V469.6z"/>
		<path class="st0" d="M106.5,474.4h-5.9c0.2,0.8,0.9,1.3,2,1.3c0.8,0,1.3-0.2,1.9-0.7l1.5,1.6c-0.8,0.9-1.9,1.3-3.5,1.3
			c-2.9,0-4.8-1.8-4.8-4.2c0-2.4,1.9-4.2,4.5-4.2c2.4,0,4.3,1.5,4.3,4.2C106.6,473.9,106.5,474.2,106.5,474.4z M100.6,472.9h3.3
			c-0.1-0.9-0.8-1.4-1.7-1.4C101.3,471.5,100.7,472,100.6,472.9z"/>
		<path class="st0" d="M121.2,469.6l-2.9,8.1h-2.8l-1.5-4.4l-1.6,4.4h-2.8l-2.9-8.1h2.7l1.7,4.9l1.7-4.9h2.4l1.7,5l1.7-5H121.2z"/>
	</g>
	<g class="st4">
		<path class="st0" d="M251.9,475.7h-4.4l-0.8,2h-3l4.6-10.5h2.9l4.6,10.5h-3.1L251.9,475.7z M251,473.5l-1.4-3.4l-1.4,3.4H251z"/>
		<path class="st0" d="M264.9,469.6v8.1h-2.7v-0.9c-0.6,0.7-1.5,1-2.4,1c-2,0-3.5-1.1-3.5-3.7v-4.5h2.9v4.1c0,1.3,0.5,1.8,1.4,1.8
			c0.8,0,1.5-0.6,1.5-1.9v-3.9h2.8V469.6z"/>
		<path class="st0" d="M272.4,477.4c-0.5,0.3-1.2,0.5-2,0.5c-2.1,0-3.3-1-3.3-3.1V472h-1.2v-2.1h1.2v-2.1h2.8v2.1h1.9v2.1h-1.9v2.7
			c0,0.6,0.3,0.9,0.9,0.9c0.3,0,0.6-0.1,0.9-0.3L272.4,477.4z"/>
		<path class="st0" d="M282.1,473.1v4.6h-2.9v-4.2c0-1.2-0.5-1.7-1.3-1.7c-0.9,0-1.6,0.6-1.6,1.9v3.9h-2.8v-11.1h2.8v3.8
			c0.6-0.6,1.5-0.9,2.4-0.9C280.7,469.5,282.1,470.6,282.1,473.1z"/>
		<path class="st0" d="M283.5,473.7c0-2.4,1.9-4.2,4.6-4.2s4.6,1.7,4.6,4.2s-1.9,4.2-4.6,4.2C285.5,477.9,283.5,476.1,283.5,473.7z
			 M289.8,473.7c0-1.2-0.7-1.9-1.7-1.9s-1.7,0.7-1.7,1.9c0,1.2,0.8,2,1.7,2C289.1,475.6,289.8,474.9,289.8,473.7z"/>
		<path class="st0" d="M299.5,469.5v2.6c-0.3,0-0.4,0-0.6,0c-1.2,0-2,0.6-2,2v3.7H294v-8.1h2.7v1
			C297.3,469.8,298.3,469.5,299.5,469.5z"/>
		<path class="st0" d="M300.3,467.2c0-0.9,0.7-1.5,1.7-1.5s1.7,0.6,1.7,1.5s-0.7,1.6-1.7,1.6S300.3,468,300.3,467.2z M300.6,469.6
			h2.8v8.1h-2.8V469.6z"/>
		<path class="st0" d="M312.4,475.6v2.1h-7.5V476l3.8-4.3H305v-2.1h7.2v1.7l-3.8,4.3H312.4z"/>
		<path class="st0" d="M321.3,473.2v4.5h-2.7v-1c-0.4,0.8-1.2,1.2-2.4,1.2c-2,0-3-1.1-3-2.5c0-1.5,1.1-2.4,3.6-2.4h1.6
			c0-0.8-0.6-1.3-1.7-1.3c-0.8,0-1.6,0.3-2.2,0.7l-1-1.9c0.9-0.6,2.3-0.9,3.6-0.9C319.8,469.5,321.3,470.6,321.3,473.2z
			 M318.4,475.1v-0.7h-1.2c-0.9,0-1.2,0.3-1.2,0.8s0.4,0.8,1.1,0.8C317.7,476.1,318.2,475.8,318.4,475.1z"/>
		<path class="st0" d="M328.7,477.4c-0.5,0.3-1.2,0.5-2,0.5c-2.1,0-3.3-1-3.3-3.1V472h-1.2v-2.1h1.2v-2.1h2.8v2.1h1.9v2.1h-1.9v2.7
			c0,0.6,0.3,0.9,0.9,0.9c0.3,0,0.6-0.1,0.9-0.3L328.7,477.4z"/>
		<path class="st0" d="M329.5,467.2c0-0.9,0.7-1.5,1.7-1.5s1.7,0.6,1.7,1.5s-0.7,1.6-1.7,1.6S329.5,468,329.5,467.2z M329.8,469.6
			h2.8v8.1h-2.8V469.6z"/>
		<path class="st0" d="M334,473.7c0-2.4,1.9-4.2,4.6-4.2s4.6,1.7,4.6,4.2s-1.9,4.2-4.6,4.2C335.9,477.9,334,476.1,334,473.7z
			 M340.3,473.7c0-1.2-0.7-1.9-1.7-1.9s-1.7,0.7-1.7,1.9c0,1.2,0.8,2,1.7,2C339.5,475.6,340.3,474.9,340.3,473.7z"/>
		<path class="st0" d="M353.1,473.1v4.6h-2.8v-4.2c0-1.2-0.5-1.7-1.3-1.7c-0.9,0-1.6,0.6-1.6,1.9v3.9h-2.8v-8.1h2.7v0.9
			c0.6-0.7,1.6-1,2.6-1C351.7,469.5,353.1,470.6,353.1,473.1z"/>
	</g>
</g>
<g id="Layer_1_1_">
	<rect x="232.2" y="543.3" class="st5" width="135" height="61.5"/>
	<g class="st4">
		<path class="st2" d="M284,560.1c0.5,0.1,0.9,0.1,1.3,0.1c0.6,0,1-0.2,1.2-0.5s0.4-0.9,0.4-1.7v-12.2h1.4V558
			c0,1.2-0.2,2.1-0.7,2.6c-0.4,0.5-1.2,0.8-2.2,0.8c-0.4,0-0.9,0-1.5-0.1v-1.2H284z"/>
		<path class="st2" d="M299.5,555H293l-1.4,3.2h-1.5l5.5-12.4h1.3l5.5,12.4h-1.5L299.5,555z M299,553.9l-2.7-6.4l-2.7,6.4H299z"/>
		<path class="st2" d="M312.9,552.9c0.4,0.5,0.6,1.2,0.6,1.9c0,1.1-0.4,1.9-1.1,2.5s-1.7,0.9-3.1,0.9h-5.2v-12.4h5
			c1.3,0,2.3,0.3,3,0.8s1.1,1.4,1.1,2.4c0,0.7-0.2,1.2-0.5,1.7s-0.8,0.8-1.4,1.1C312,552.1,312.5,552.4,312.9,552.9z M305.6,551.3
			h3.3c0.9,0,1.6-0.2,2.1-0.6s0.7-0.9,0.7-1.6c0-1.4-0.9-2.1-2.8-2.1h-3.3L305.6,551.3L305.6,551.3z M311.4,556.5
			c0.5-0.4,0.7-0.9,0.7-1.7c0-1.5-0.9-2.3-2.8-2.3h-3.6v4.5h3.6C310.2,557,310.9,556.9,311.4,556.5z"/>
	</g>
	<g class="st4">
		<path class="st2" d="M252.5,575.9H246l-1.4,3.2h-1.5l5.5-12.4h1.3l5.5,12.4h-1.5L252.5,575.9z M252,574.8l-2.7-6.4l-2.7,6.4H252z"
			/>
		<path class="st2" d="M264.3,570.4v8.8H263v-1.5c-0.3,0.5-0.7,0.9-1.2,1.2s-1.1,0.4-1.7,0.4c-1,0-1.8-0.3-2.4-0.9
			c-0.5-0.6-0.8-1.4-0.8-2.6v-5.4h1.4v5.4c0,0.8,0.2,1.4,0.5,1.7c0.3,0.4,0.8,0.6,1.5,0.6c0.8,0,1.4-0.3,1.9-0.8s0.7-1.2,0.7-2v-5
			L264.3,570.4L264.3,570.4z"/>
		<path class="st2" d="M268.9,571.5v4.8c0,0.7,0.1,1.1,0.4,1.4c0.3,0.3,0.6,0.4,1.1,0.4c0.3,0,0.6-0.1,0.9-0.2v1.2
			c-0.4,0.1-0.8,0.2-1.2,0.2c-0.8,0-1.5-0.2-2-0.7s-0.7-1.2-0.7-2.1v-5h-1.7v-1.1h1.7v-2.2l1.4-0.5v2.8h2.5v1.1h-2.4V571.5z"/>
		<path class="st2" d="M280.7,573.6v5.5h-1.4v-5.4c0-0.8-0.2-1.4-0.5-1.8c-0.3-0.4-0.8-0.6-1.5-0.6c-0.8,0-1.5,0.2-2,0.7
			s-0.7,1.2-0.7,2v5h-1.4v-12.8h1.4v5.5c0.3-0.5,0.7-0.9,1.2-1.2s1.1-0.4,1.8-0.4C279.6,570.2,280.7,571.3,280.7,573.6z"/>
		<path class="st2" d="M284.8,578.7c-0.6-0.4-1.1-0.9-1.5-1.6s-0.5-1.5-0.5-2.4s0.2-1.7,0.5-2.4s0.8-1.2,1.5-1.6
			c0.6-0.4,1.4-0.6,2.2-0.6c0.8,0,1.6,0.2,2.2,0.6s1.1,0.9,1.5,1.6s0.5,1.5,0.5,2.4s-0.2,1.7-0.5,2.4s-0.8,1.2-1.5,1.6
			s-1.4,0.6-2.2,0.6C286.2,579.3,285.4,579.1,284.8,578.7z M289,577.2c0.5-0.6,0.7-1.4,0.7-2.5s-0.2-1.9-0.7-2.5s-1.1-0.9-2-0.9
			s-1.5,0.3-2,0.9c-0.5,0.6-0.7,1.4-0.7,2.5s0.2,1.9,0.7,2.5s1.1,0.9,2,0.9S288.5,577.8,289,577.2z"/>
		<path class="st2" d="M298.2,570.3v1.3c-0.3-0.1-0.6-0.1-0.9-0.1c-0.8,0-1.5,0.3-1.9,0.8s-0.6,1.2-0.6,1.9v5h-1.4v-6.3
			c0-0.9,0-1.7-0.1-2.5h1.3l0.1,1.6c0.2-0.6,0.6-1,1.1-1.4c0.5-0.3,1-0.5,1.7-0.5C297.7,570.2,298,570.2,298.2,570.3z"/>
		<path class="st2" d="M301.2,566.7v1.6h-1.7v-1.6H301.2z M299.6,570.4h1.4v8.8h-1.4V570.4z"/>
		<path class="st2" d="M310.7,578v1.1h-7.4v-1l5.5-6.7h-5.3v-1.1h7v1L305,578H310.7z"/>
		<path class="st2" d="M320.3,570.4v8.8H319v-1.6c-0.3,0.5-0.6,1-1.2,1.3c-0.5,0.3-1.1,0.4-1.8,0.4c-0.8,0-1.5-0.2-2-0.6
			s-1-0.9-1.4-1.6c-0.3-0.7-0.5-1.5-0.5-2.4s0.2-1.7,0.5-2.4s0.8-1.2,1.4-1.6c0.6-0.4,1.3-0.6,2-0.6s1.3,0.2,1.8,0.5
			s0.9,0.7,1.2,1.3v-1.5L320.3,570.4L320.3,570.4z M318.3,577.2c0.5-0.6,0.7-1.4,0.7-2.5s-0.2-1.9-0.7-2.5s-1.1-0.9-2-0.9
			s-1.5,0.3-2,0.9c-0.5,0.6-0.7,1.4-0.7,2.5s0.2,1.9,0.7,2.5s1.2,0.9,2,0.9C317.1,578.1,317.8,577.8,318.3,577.2z"/>
		<path class="st2" d="M325,571.5v4.8c0,0.7,0.1,1.1,0.4,1.4c0.3,0.3,0.6,0.4,1.1,0.4c0.3,0,0.6-0.1,0.9-0.2v1.2
			c-0.4,0.1-0.8,0.2-1.2,0.2c-0.8,0-1.5-0.2-2-0.7s-0.7-1.2-0.7-2.1v-5h-1.7v-1.1h1.7v-2.2l1.4-0.5v2.8h2.5v1.1H325V571.5z"/>
		<path class="st2" d="M330.8,566.7v1.6H329v-1.6H330.8z M329.2,570.4h1.4v8.8h-1.4V570.4z"/>
		<path class="st2" d="M334.8,578.7c-0.6-0.4-1.1-0.9-1.5-1.6s-0.5-1.5-0.5-2.4s0.2-1.7,0.5-2.4s0.8-1.2,1.5-1.6
			c0.6-0.4,1.4-0.6,2.2-0.6s1.6,0.2,2.2,0.6c0.6,0.4,1.1,0.9,1.5,1.6s0.5,1.5,0.5,2.4s-0.2,1.7-0.5,2.4s-0.8,1.2-1.5,1.6
			c-0.6,0.4-1.4,0.6-2.2,0.6S335.4,579.1,334.8,578.7z M339,577.2c0.5-0.6,0.7-1.4,0.7-2.5s-0.2-1.9-0.7-2.5s-1.1-0.9-2-0.9
			s-1.5,0.3-2,0.9s-0.7,1.4-0.7,2.5s0.2,1.9,0.7,2.5s1.1,0.9,2,0.9C337.8,578.1,338.5,577.8,339,577.2z"/>
		<path class="st2" d="M350.8,573.6v5.5h-1.4v-5.4c0-0.8-0.2-1.4-0.5-1.8s-0.8-0.6-1.5-0.6c-0.8,0-1.5,0.2-2,0.7s-0.7,1.2-0.7,2v5
			h-1.4v-6.3c0-0.9,0-1.7-0.1-2.5h1.3l0.1,1.6c0.3-0.6,0.7-1,1.2-1.3s1.1-0.5,1.8-0.5C349.8,570.2,350.8,571.3,350.8,573.6z"/>
	</g>
	<g class="st4">
		<path class="st2" d="M268.7,587.6h5c1.3,0,2.3,0.3,3,0.9s1.1,1.5,1.1,2.5c0,1.1-0.4,1.9-1.1,2.6s-1.7,0.9-3,0.9h-3.5v5.5h-1.4
			v-12.4H268.7z M273.5,593.4c0.9,0,1.6-0.2,2.1-0.6c0.5-0.4,0.7-1,0.7-1.7s-0.2-1.3-0.7-1.7s-1.2-0.6-2.1-0.6h-3.4v4.6H273.5z"/>
		<path class="st2" d="M284.6,591.2v1.3c-0.3-0.1-0.6-0.1-0.9-0.1c-0.8,0-1.5,0.3-1.9,0.8s-0.6,1.2-0.6,1.9v5h-1.4v-6.3
			c0-0.9,0-1.7-0.1-2.5h1.3l0.1,1.6c0.2-0.6,0.6-1,1.1-1.4c0.5-0.3,1-0.5,1.7-0.5C284,591.1,284.3,591.1,284.6,591.2z"/>
		<path class="st2" d="M287.3,599.6c-0.6-0.4-1.1-0.9-1.5-1.6s-0.5-1.5-0.5-2.4s0.2-1.7,0.5-2.4s0.8-1.2,1.5-1.6
			c0.6-0.4,1.4-0.6,2.2-0.6c0.8,0,1.6,0.2,2.2,0.6s1.1,0.9,1.5,1.6s0.5,1.5,0.5,2.4s-0.2,1.7-0.5,2.4s-0.8,1.2-1.5,1.6
			s-1.4,0.6-2.2,0.6C288.6,600.2,287.9,600,287.3,599.6z M291.4,598.1c0.5-0.6,0.7-1.4,0.7-2.5s-0.2-1.9-0.7-2.5s-1.1-0.9-2-0.9
			s-1.5,0.3-2,0.9c-0.5,0.6-0.7,1.4-0.7,2.5s0.2,1.9,0.7,2.5s1.1,0.9,2,0.9S291,598.7,291.4,598.1z"/>
		<path class="st2" d="M297.2,599.6c-0.6-0.4-1.1-0.9-1.5-1.6s-0.5-1.5-0.5-2.4s0.2-1.7,0.5-2.4s0.8-1.2,1.5-1.6s1.4-0.6,2.3-0.6
			c0.6,0,1.2,0.1,1.7,0.3c0.6,0.2,1,0.5,1.4,0.8l-0.5,1c-0.4-0.3-0.9-0.6-1.3-0.8s-0.8-0.2-1.3-0.2c-0.9,0-1.6,0.3-2.1,0.9
			c-0.5,0.6-0.8,1.4-0.8,2.5s0.3,1.9,0.8,2.5s1.2,0.9,2.1,0.9c0.4,0,0.9-0.1,1.3-0.2s0.8-0.4,1.3-0.8l0.5,1
			c-0.4,0.3-0.8,0.6-1.4,0.8s-1.1,0.3-1.8,0.3C298.6,600.2,297.9,600,297.2,599.6z"/>
		<path class="st2" d="M311.8,595.6h-6.4c0,1.1,0.3,2,0.8,2.5c0.5,0.6,1.2,0.9,2.2,0.9s2-0.3,2.8-1l0.5,1c-0.4,0.4-0.9,0.6-1.5,0.9
			c-0.6,0.2-1.2,0.3-1.8,0.3c-1.4,0-2.4-0.4-3.2-1.2c-0.8-0.8-1.2-1.9-1.2-3.3c0-0.9,0.2-1.7,0.5-2.4s0.8-1.2,1.5-1.6
			c0.6-0.4,1.3-0.6,2.1-0.6c1.2,0,2.1,0.4,2.7,1.1c0.7,0.8,1,1.8,1,3.1V595.6z M306.2,592.8c-0.5,0.4-0.8,1.1-0.9,1.9h5.1
			c-0.1-0.8-0.3-1.5-0.7-1.9c-0.4-0.4-1-0.6-1.7-0.6S306.7,592.4,306.2,592.8z"/>
		<path class="st2" d="M313.4,599l0.5-1c0.5,0.4,1,0.6,1.4,0.8c0.5,0.2,1,0.2,1.6,0.2c0.7,0,1.2-0.1,1.5-0.3s0.5-0.6,0.5-1
			c0-0.3-0.1-0.6-0.3-0.8c-0.2-0.2-0.6-0.4-1.2-0.5L316,596c-0.7-0.2-1.3-0.5-1.7-0.9c-0.4-0.4-0.6-0.9-0.6-1.5
			c0-0.8,0.3-1.4,0.9-1.9s1.4-0.7,2.4-0.7c0.6,0,1.2,0.1,1.7,0.3s1,0.5,1.4,0.9l-0.5,1c-0.8-0.7-1.7-1-2.7-1c-0.6,0-1.1,0.1-1.5,0.4
			s-0.5,0.6-0.5,1s0.1,0.6,0.3,0.9c0.2,0.2,0.6,0.4,1,0.5l1.5,0.4c0.8,0.2,1.4,0.5,1.8,0.9s0.6,0.9,0.6,1.5c0,0.8-0.3,1.4-0.9,1.8
			c-0.6,0.5-1.5,0.7-2.5,0.7C315.4,600.2,314.2,599.8,313.4,599z"/>
		<path class="st2" d="M322,599l0.5-1c0.5,0.4,1,0.6,1.4,0.8c0.5,0.2,1,0.2,1.6,0.2c0.7,0,1.2-0.1,1.5-0.3s0.5-0.6,0.5-1
			c0-0.3-0.1-0.6-0.3-0.8c-0.2-0.2-0.6-0.4-1.2-0.5l-1.5-0.3c-0.7-0.2-1.3-0.5-1.7-0.9c-0.4-0.4-0.6-0.9-0.6-1.5
			c0-0.8,0.3-1.4,0.9-1.9s1.4-0.7,2.4-0.7c0.6,0,1.2,0.1,1.7,0.3s1,0.5,1.4,0.9l-0.5,1c-0.8-0.7-1.7-1-2.7-1c-0.6,0-1.1,0.1-1.5,0.4
			s-0.5,0.6-0.5,1s0.1,0.6,0.3,0.9c0.2,0.2,0.6,0.4,1,0.5l1.5,0.4c0.8,0.2,1.4,0.5,1.8,0.9s0.6,0.9,0.6,1.5c0,0.8-0.3,1.4-0.9,1.8
			c-0.6,0.5-1.5,0.7-2.5,0.7C324,600.2,322.9,599.8,322,599z"/>
	</g>
	<rect x="232.2" y="340.2" class="st5" width="135" height="61.5"/>
	<g class="st4">
		<path class="st3" d="M278,351.9h-6.5l-1.4,3.2h-1.5l5.5-12.4h1.3l5.5,12.4h-1.5L278,351.9z M277.5,350.7l-2.7-6.4l-2.7,6.4H277.5z
			"/>
		<path class="st3" d="M290.3,346.3v8.7c0,1.3-0.3,2.3-1,3s-1.7,1-3,1s-2.5-0.3-3.5-0.9l0.2-1.2c0.6,0.3,1.1,0.5,1.6,0.7
			c0.5,0.1,1,0.2,1.6,0.2c0.8,0,1.5-0.2,1.9-0.7c0.4-0.4,0.6-1.1,0.6-2V353c-0.3,0.6-0.7,1-1.2,1.3s-1.1,0.5-1.8,0.5
			c-0.8,0-1.5-0.2-2-0.5s-1.1-0.9-1.4-1.5c-0.3-0.7-0.5-1.4-0.5-2.3s0.2-1.6,0.5-2.3c0.3-0.7,0.8-1.2,1.4-1.5s1.3-0.5,2-0.5
			s1.3,0.2,1.8,0.5s0.9,0.7,1.2,1.3v-1.5h1.6V346.3z M288.2,352.8c0.5-0.6,0.7-1.3,0.7-2.3s-0.2-1.8-0.7-2.3c-0.5-0.6-1.1-0.8-2-0.8
			s-1.5,0.3-2,0.8c-0.5,0.6-0.7,1.3-0.7,2.3s0.2,1.8,0.7,2.3c0.5,0.6,1.2,0.8,2,0.8C287.1,353.6,287.7,353.3,288.2,352.8z"/>
		<path class="st3" d="M300.4,350.6H294c0,1.1,0.3,2,0.8,2.5c0.5,0.6,1.2,0.9,2.2,0.9s2-0.3,2.8-1l0.5,1c-0.4,0.4-0.9,0.6-1.5,0.9
			c-0.6,0.2-1.2,0.3-1.8,0.3c-1.4,0-2.4-0.4-3.2-1.2c-0.8-0.8-1.2-1.9-1.2-3.3c0-0.9,0.2-1.7,0.5-2.4c0.3-0.7,0.8-1.2,1.5-1.6
			c0.6-0.4,1.3-0.6,2.1-0.6c1.2,0,2.1,0.4,2.7,1.1c0.7,0.8,1,1.8,1,3.1V350.6z M294.9,347.9c-0.5,0.4-0.8,1.1-0.9,1.9h5.1
			c-0.1-0.8-0.3-1.5-0.7-1.9c-0.4-0.4-1-0.6-1.7-0.6C295.9,347.2,295.4,347.4,294.9,347.9z"/>
		<path class="st3" d="M310.1,349.6v5.5h-1.4v-5.4c0-0.8-0.2-1.4-0.5-1.8s-0.8-0.6-1.5-0.6c-0.8,0-1.5,0.2-2,0.7s-0.7,1.2-0.7,2v5
			h-1.4v-6.3c0-0.9,0-1.7-0.1-2.5h1.3l0.1,1.6c0.3-0.6,0.7-1,1.2-1.3s1.1-0.5,1.8-0.5C309,346.1,310.1,347.3,310.1,349.6z"/>
		<path class="st3" d="M314.2,354.6c-0.6-0.4-1.1-0.9-1.5-1.6s-0.5-1.5-0.5-2.4s0.2-1.7,0.5-2.4c0.3-0.7,0.8-1.2,1.5-1.6
			s1.4-0.6,2.3-0.6c0.6,0,1.2,0.1,1.7,0.3c0.6,0.2,1,0.5,1.4,0.8l-0.5,1c-0.4-0.3-0.9-0.6-1.3-0.8s-0.8-0.2-1.3-0.2
			c-0.9,0-1.6,0.3-2.1,0.9s-0.8,1.4-0.8,2.5s0.3,1.9,0.8,2.5s1.2,0.9,2.1,0.9c0.4,0,0.9-0.1,1.3-0.2s0.8-0.4,1.3-0.8l0.5,1
			c-0.4,0.3-0.8,0.6-1.4,0.8c-0.6,0.2-1.1,0.3-1.8,0.3C315.6,355.2,314.8,355,314.2,354.6z"/>
		<path class="st3" d="M329.1,346.3l-4.1,9.6c-0.4,1-1,1.7-1.6,2.2s-1.5,0.8-2.4,1l-0.3-1.1c0.8-0.2,1.4-0.4,1.9-0.7
			s0.8-0.8,1.1-1.4l0.3-0.8l-3.7-8.7h1.5l3,7.2l3-7.2h1.3V346.3z"/>
	</g>
	<g class="st4">
		<path class="st3" d="M252.5,372.8H246l-1.4,3.2h-1.5l5.5-12.4h1.3l5.5,12.4h-1.5L252.5,372.8z M252,371.6l-2.7-6.4l-2.7,6.4H252z"
			/>
		<path class="st3" d="M264.4,367.2v8.8H263v-1.5c-0.3,0.5-0.7,0.9-1.2,1.2c-0.5,0.3-1.1,0.4-1.7,0.4c-1,0-1.8-0.3-2.4-0.9
			c-0.5-0.6-0.8-1.4-0.8-2.6v-5.4h1.4v5.4c0,0.8,0.2,1.4,0.5,1.7c0.3,0.4,0.8,0.6,1.5,0.6c0.8,0,1.4-0.3,1.9-0.8s0.7-1.2,0.7-2v-5
			L264.4,367.2L264.4,367.2z"/>
		<path class="st3" d="M269,368.3v4.8c0,0.7,0.1,1.1,0.4,1.4s0.6,0.4,1.1,0.4c0.3,0,0.6-0.1,0.9-0.2v1.2c-0.4,0.1-0.8,0.2-1.2,0.2
			c-0.8,0-1.5-0.2-2-0.7s-0.7-1.2-0.7-2.1v-5h-1.7v-1.1h1.7V365l1.4-0.5v2.8h2.5v1.1H269V368.3z"/>
		<path class="st3" d="M280.7,370.5v5.5h-1.4v-5.4c0-0.8-0.2-1.4-0.5-1.8s-0.8-0.6-1.5-0.6c-0.8,0-1.5,0.2-2,0.7s-0.7,1.2-0.7,2v5
			h-1.4v-12.8h1.4v5.5c0.3-0.5,0.7-0.9,1.2-1.2c0.5-0.3,1.1-0.4,1.8-0.4C279.7,367,280.7,368.2,280.7,370.5z"/>
		<path class="st3" d="M284.8,375.5c-0.6-0.4-1.1-0.9-1.5-1.6s-0.5-1.5-0.5-2.4s0.2-1.7,0.5-2.4s0.8-1.2,1.5-1.6
			c0.6-0.4,1.4-0.6,2.2-0.6c0.8,0,1.6,0.2,2.2,0.6s1.1,0.9,1.5,1.6s0.5,1.5,0.5,2.4s-0.2,1.7-0.5,2.4s-0.8,1.2-1.5,1.6
			s-1.4,0.6-2.2,0.6C286.2,376.1,285.5,375.9,284.8,375.5z M289,374.1c0.5-0.6,0.7-1.4,0.7-2.5s-0.2-1.9-0.7-2.5s-1.1-0.9-2-0.9
			s-1.5,0.3-2,0.9s-0.7,1.4-0.7,2.5s0.2,1.9,0.7,2.5s1.1,0.9,2,0.9S288.6,374.6,289,374.1z"/>
		<path class="st3" d="M298.2,367.1v1.3c-0.3-0.1-0.6-0.1-0.9-0.1c-0.8,0-1.5,0.3-1.9,0.8s-0.6,1.2-0.6,1.9v5h-1.4v-6.3
			c0-0.9,0-1.7-0.1-2.5h1.3l0.1,1.6c0.2-0.6,0.6-1,1.1-1.4c0.5-0.3,1-0.5,1.7-0.5C297.7,367,298,367,298.2,367.1z"/>
		<path class="st3" d="M301.3,363.5v1.6h-1.7v-1.6H301.3z M299.7,367.2h1.4v8.8h-1.4V367.2z"/>
		<path class="st3" d="M310.7,374.9v1.1h-7.4v-1l5.5-6.7h-5.3v-1.1h7v1l-5.5,6.6h5.7V374.9z"/>
		<path class="st3" d="M320.4,367.2v8.8H319v-1.6c-0.3,0.5-0.6,1-1.2,1.3c-0.5,0.3-1.1,0.4-1.8,0.4c-0.8,0-1.5-0.2-2-0.6
			s-1-0.9-1.4-1.6c-0.3-0.7-0.5-1.5-0.5-2.4s0.2-1.7,0.5-2.4c0.3-0.7,0.8-1.2,1.4-1.6s1.3-0.6,2-0.6s1.3,0.2,1.8,0.5
			s0.9,0.7,1.2,1.3v-1.5L320.4,367.2L320.4,367.2z M318.3,374c0.5-0.6,0.7-1.4,0.7-2.5s-0.2-1.9-0.7-2.5s-1.1-0.9-2-0.9
			s-1.5,0.3-2,0.9s-0.7,1.4-0.7,2.5s0.2,1.9,0.7,2.5s1.2,0.9,2,0.9C317.2,374.9,317.8,374.6,318.3,374z"/>
		<path class="st3" d="M325,368.3v4.8c0,0.7,0.1,1.1,0.4,1.4s0.6,0.4,1.1,0.4c0.3,0,0.6-0.1,0.9-0.2v1.2c-0.4,0.1-0.8,0.2-1.2,0.2
			c-0.8,0-1.5-0.2-2-0.7s-0.7-1.2-0.7-2.1v-5h-1.7v-1.1h1.7V365l1.4-0.5v2.8h2.5v1.1H325V368.3z"/>
		<path class="st3" d="M330.8,363.5v1.6h-1.7v-1.6H330.8z M329.2,367.2h1.4v8.8h-1.4V367.2z"/>
		<path class="st3" d="M334.8,375.5c-0.6-0.4-1.1-0.9-1.5-1.6s-0.5-1.5-0.5-2.4s0.2-1.7,0.5-2.4s0.8-1.2,1.5-1.6s1.4-0.6,2.2-0.6
			c0.8,0,1.6,0.2,2.2,0.6s1.1,0.9,1.5,1.6s0.5,1.5,0.5,2.4s-0.2,1.7-0.5,2.4s-0.8,1.2-1.5,1.6c-0.6,0.4-1.4,0.6-2.2,0.6
			C336.2,376.1,335.4,375.9,334.8,375.5z M339,374.1c0.5-0.6,0.7-1.4,0.7-2.5s-0.2-1.9-0.7-2.5s-1.1-0.9-2-0.9s-1.5,0.3-2,0.9
			s-0.7,1.4-0.7,2.5s0.2,1.9,0.7,2.5s1.1,0.9,2,0.9C337.9,374.9,338.5,374.6,339,374.1z"/>
		<path class="st3" d="M350.9,370.5v5.5h-1.4v-5.4c0-0.8-0.2-1.4-0.5-1.8s-0.8-0.6-1.5-0.6c-0.8,0-1.5,0.2-2,0.7s-0.7,1.2-0.7,2v5
			h-1.4v-6.3c0-0.9,0-1.7-0.1-2.5h1.3l0.1,1.6c0.3-0.6,0.7-1,1.2-1.3s1.1-0.5,1.8-0.5C349.8,367,350.9,368.2,350.9,370.5z"/>
	</g>
	<g class="st4">
		<path class="st3" d="M268.7,384.5h5c1.3,0,2.3,0.3,3,0.9s1.1,1.5,1.1,2.5c0,1.1-0.4,1.9-1.1,2.6s-1.7,0.9-3,0.9h-3.5v5.5h-1.4
			v-12.4H268.7z M273.5,390.2c0.9,0,1.6-0.2,2.1-0.6s0.7-1,0.7-1.7s-0.2-1.3-0.7-1.7c-0.5-0.4-1.2-0.6-2.1-0.6h-3.4v4.6L273.5,390.2
			L273.5,390.2z"/>
		<path class="st3" d="M284.6,388v1.3c-0.3-0.1-0.6-0.1-0.9-0.1c-0.8,0-1.5,0.3-1.9,0.8s-0.6,1.2-0.6,1.9v5h-1.4v-6.3
			c0-0.9,0-1.7-0.1-2.5h1.3l0.1,1.6c0.2-0.6,0.6-1,1.1-1.4c0.5-0.3,1-0.5,1.7-0.5C284.1,387.9,284.3,387.9,284.6,388z"/>
		<path class="st3" d="M287.3,396.4c-0.6-0.4-1.1-0.9-1.5-1.6s-0.5-1.5-0.5-2.4s0.2-1.7,0.5-2.4s0.8-1.2,1.5-1.6
			c0.6-0.4,1.4-0.6,2.2-0.6c0.8,0,1.6,0.2,2.2,0.6s1.1,0.9,1.5,1.6s0.5,1.5,0.5,2.4s-0.2,1.7-0.5,2.4s-0.8,1.2-1.5,1.6
			s-1.4,0.6-2.2,0.6C288.6,397,287.9,396.8,287.3,396.4z M291.5,395c0.5-0.6,0.7-1.4,0.7-2.5s-0.2-1.9-0.7-2.5s-1.1-0.9-2-0.9
			s-1.5,0.3-2,0.9s-0.7,1.4-0.7,2.5s0.2,1.9,0.7,2.5s1.1,0.9,2,0.9S291,395.5,291.5,395z"/>
		<path class="st3" d="M297.3,396.4c-0.6-0.4-1.1-0.9-1.5-1.6s-0.5-1.5-0.5-2.4s0.2-1.7,0.5-2.4c0.3-0.7,0.8-1.2,1.5-1.6
			s1.4-0.6,2.3-0.6c0.6,0,1.2,0.1,1.7,0.3c0.6,0.2,1,0.5,1.4,0.8l-0.5,1c-0.4-0.3-0.9-0.6-1.3-0.8s-0.8-0.2-1.3-0.2
			c-0.9,0-1.6,0.3-2.1,0.9s-0.8,1.4-0.8,2.5s0.3,1.9,0.8,2.5s1.2,0.9,2.1,0.9c0.4,0,0.9-0.1,1.3-0.2s0.8-0.4,1.3-0.8l0.5,1
			c-0.4,0.3-0.8,0.6-1.4,0.8c-0.6,0.2-1.1,0.3-1.8,0.3C298.6,397,297.9,396.8,297.3,396.4z"/>
		<path class="st3" d="M311.8,392.4h-6.4c0,1.1,0.3,2,0.8,2.5c0.5,0.6,1.2,0.9,2.2,0.9s2-0.3,2.8-1l0.5,1c-0.4,0.4-0.9,0.6-1.5,0.9
			c-0.6,0.2-1.2,0.3-1.8,0.3c-1.4,0-2.4-0.4-3.2-1.2c-0.8-0.8-1.2-1.9-1.2-3.3c0-0.9,0.2-1.7,0.5-2.4c0.3-0.7,0.8-1.2,1.5-1.6
			c0.6-0.4,1.3-0.6,2.1-0.6c1.2,0,2.1,0.4,2.7,1.1c0.7,0.8,1,1.8,1,3.1V392.4z M306.3,389.7c-0.5,0.4-0.8,1.1-0.9,1.9h5.1
			c-0.1-0.8-0.3-1.5-0.7-1.9c-0.4-0.4-1-0.6-1.7-0.6C307.3,389,306.7,389.2,306.3,389.7z"/>
		<path class="st3" d="M313.4,395.9l0.5-1c0.5,0.4,1,0.6,1.4,0.8c0.5,0.2,1,0.2,1.6,0.2c0.7,0,1.2-0.1,1.5-0.3
			c0.3-0.2,0.5-0.6,0.5-1c0-0.3-0.1-0.6-0.3-0.8c-0.2-0.2-0.6-0.4-1.2-0.5l-1.5-0.3c-0.7-0.2-1.3-0.5-1.7-0.9
			c-0.4-0.4-0.6-0.9-0.6-1.5c0-0.8,0.3-1.4,0.9-1.9s1.4-0.7,2.4-0.7c0.6,0,1.2,0.1,1.7,0.3c0.5,0.2,1,0.5,1.4,0.9l-0.5,1
			c-0.8-0.7-1.7-1-2.7-1c-0.6,0-1.1,0.1-1.5,0.4s-0.5,0.6-0.5,1s0.1,0.6,0.3,0.9c0.2,0.2,0.6,0.4,1,0.5l1.5,0.4
			c0.8,0.2,1.4,0.5,1.8,0.9s0.6,0.9,0.6,1.5c0,0.8-0.3,1.4-0.9,1.8c-0.6,0.5-1.5,0.7-2.5,0.7C315.4,397,314.2,396.6,313.4,395.9z"/>
		<path class="st3" d="M322,395.9l0.5-1c0.5,0.4,1,0.6,1.4,0.8c0.5,0.2,1,0.2,1.6,0.2c0.7,0,1.2-0.1,1.5-0.3c0.3-0.2,0.5-0.6,0.5-1
			c0-0.3-0.1-0.6-0.3-0.8c-0.2-0.2-0.6-0.4-1.2-0.5l-1.5-0.3c-0.7-0.2-1.3-0.5-1.7-0.9c-0.4-0.4-0.6-0.9-0.6-1.5
			c0-0.8,0.3-1.4,0.9-1.9s1.4-0.7,2.4-0.7c0.6,0,1.2,0.1,1.7,0.3c0.5,0.2,1,0.5,1.4,0.9l-0.5,1c-0.8-0.7-1.7-1-2.7-1
			c-0.6,0-1.1,0.1-1.5,0.4s-0.5,0.6-0.5,1s0.1,0.6,0.3,0.9c0.2,0.2,0.6,0.4,1,0.5l1.5,0.4c0.8,0.2,1.4,0.5,1.8,0.9s0.6,0.9,0.6,1.5
			c0,0.8-0.3,1.4-0.9,1.8c-0.6,0.5-1.5,0.7-2.5,0.7C324.1,397,322.9,396.6,322,395.9z"/>
	</g>
	<rect x="24.9" y="553.8" class="st5" width="135" height="40.6"/>
	<g class="st4">
		<path class="st2" d="M43,556.3h7.7v1.2h-6.3v4.3h5.9v1.2h-5.9v5.7H43V556.3z"/>
		<path class="st2" d="M59.8,559.9v8.8h-1.4v-1.5c-0.3,0.5-0.7,0.9-1.2,1.2s-1.1,0.4-1.7,0.4c-1,0-1.8-0.3-2.4-0.9
			c-0.5-0.6-0.8-1.4-0.8-2.6v-5.4h1.4v5.4c0,0.8,0.2,1.4,0.5,1.7c0.3,0.4,0.8,0.6,1.5,0.6c0.8,0,1.4-0.3,1.9-0.8s0.7-1.2,0.7-2v-5
			L59.8,559.9L59.8,559.9z"/>
		<path class="st2" d="M62.5,555.9H64v12.8h-1.4L62.5,555.9L62.5,555.9z"/>
		<path class="st2" d="M66.7,555.9h1.4v12.8h-1.4V555.9z"/>
		<path class="st2" d="M74.9,567.3l0.5-1.1c0.6,0.5,1.2,0.9,1.9,1.1s1.4,0.3,2.2,0.3c1,0,1.8-0.2,2.3-0.6s0.8-0.9,0.8-1.6
			c0-0.4-0.1-0.8-0.4-1c-0.3-0.3-0.6-0.5-1-0.6c-0.4-0.2-1-0.3-1.7-0.5c-1-0.2-1.7-0.4-2.4-0.7c-0.6-0.2-1.1-0.6-1.5-1.1
			s-0.6-1.1-0.6-1.8s0.2-1.3,0.6-1.9c0.4-0.5,0.9-1,1.6-1.3s1.5-0.5,2.4-0.5s1.7,0.1,2.4,0.4s1.4,0.7,1.9,1.2l-0.6,1.1
			c-0.6-0.5-1.2-0.9-1.8-1.1c-0.6-0.2-1.3-0.3-2-0.3c-1,0-1.7,0.2-2.3,0.6c-0.5,0.4-0.8,1-0.8,1.7c0,0.6,0.2,1.1,0.7,1.4
			c0.5,0.3,1.2,0.6,2.2,0.8c1.1,0.3,1.9,0.5,2.5,0.7s1.1,0.5,1.5,1s0.6,1,0.6,1.7s-0.2,1.3-0.6,1.8s-0.9,0.9-1.6,1.2
			s-1.5,0.4-2.4,0.4C77.6,568.8,76,568.3,74.9,567.3z"/>
		<path class="st2" d="M93.6,564.3h-6.4c0,1.1,0.3,2,0.8,2.5c0.5,0.6,1.2,0.9,2.2,0.9s2-0.3,2.8-1l0.5,1c-0.4,0.4-0.9,0.6-1.5,0.9
			c-0.6,0.2-1.2,0.3-1.8,0.3c-1.4,0-2.4-0.4-3.2-1.2c-0.8-0.8-1.2-1.9-1.2-3.3c0-0.9,0.2-1.7,0.5-2.4s0.8-1.2,1.5-1.6
			c0.6-0.4,1.3-0.6,2.1-0.6c1.2,0,2.1,0.4,2.7,1.1c0.7,0.8,1,1.8,1,3.1V564.3z M88.1,561.5c-0.5,0.4-0.8,1.1-0.9,1.9h5.1
			c-0.1-0.8-0.3-1.5-0.7-1.9c-0.4-0.4-1-0.6-1.7-0.6C89.1,560.8,88.6,561,88.1,561.5z"/>
		<path class="st2" d="M97.2,568.3c-0.6-0.4-1.1-0.9-1.5-1.6s-0.5-1.5-0.5-2.4s0.2-1.7,0.5-2.4s0.8-1.2,1.5-1.6s1.4-0.6,2.3-0.6
			c0.6,0,1.2,0.1,1.7,0.3c0.6,0.2,1,0.5,1.4,0.8l-0.5,1c-0.4-0.3-0.9-0.6-1.3-0.8s-0.8-0.2-1.3-0.2c-0.9,0-1.6,0.3-2.1,0.9
			c-0.5,0.6-0.8,1.4-0.8,2.5s0.3,1.9,0.8,2.5s1.2,0.9,2.1,0.9c0.4,0,0.9-0.1,1.3-0.2s0.8-0.4,1.3-0.8l0.5,1
			c-0.4,0.3-0.8,0.6-1.4,0.8s-1.1,0.3-1.8,0.3C98.6,568.8,97.8,568.6,97.2,568.3z"/>
		<path class="st2" d="M111.7,559.9v8.8h-1.4v-1.5c-0.3,0.5-0.7,0.9-1.2,1.2s-1.1,0.4-1.7,0.4c-1,0-1.8-0.3-2.4-0.9
			c-0.5-0.6-0.8-1.4-0.8-2.6v-5.4h1.4v5.4c0,0.8,0.2,1.4,0.5,1.7c0.3,0.4,0.8,0.6,1.5,0.6c0.8,0,1.4-0.3,1.9-0.8s0.7-1.2,0.7-2v-5
			L111.7,559.9L111.7,559.9z"/>
		<path class="st2" d="M119.3,559.8v1.3c-0.3-0.1-0.6-0.1-0.9-0.1c-0.8,0-1.5,0.3-1.9,0.8s-0.6,1.2-0.6,1.9v5h-1.4v-6.3
			c0-0.9,0-1.7-0.1-2.5h1.3l0.1,1.6c0.2-0.6,0.6-1,1.1-1.4c0.5-0.3,1-0.5,1.7-0.5C118.8,559.7,119.1,559.8,119.3,559.8z"/>
		<path class="st2" d="M122.3,556.2v1.6h-1.7v-1.6H122.3z M120.7,559.9h1.4v8.8h-1.4V559.9z"/>
		<path class="st2" d="M126.8,561v4.8c0,0.7,0.1,1.1,0.4,1.4c0.3,0.3,0.6,0.4,1.1,0.4c0.3,0,0.6-0.1,0.9-0.2v1.2
			c-0.4,0.1-0.8,0.2-1.2,0.2c-0.8,0-1.5-0.2-2-0.7s-0.7-1.2-0.7-2.1v-5h-1.7v-1.1h1.7v-2.2l1.4-0.5v2.8h2.5v1.1h-2.4V561z"/>
		<path class="st2" d="M138.8,559.9l-4.1,9.6c-0.4,1-1,1.7-1.6,2.2s-1.5,0.8-2.4,1l-0.3-1.1c0.8-0.2,1.4-0.4,1.9-0.7
			s0.8-0.8,1.1-1.4l0.3-0.8L130,560h1.5l3,7.2l3-7.2L138.8,559.9L138.8,559.9z"/>
	</g>
	<g class="st4">
		<path class="st2" d="M51.4,586.4H45l-1.4,3.2h-1.5l5.5-12.4h1.3l5.5,12.4h-1.5L51.4,586.4z M50.9,585.2l-2.7-6.4l-2.7,6.4H50.9z"
			/>
		<path class="st2" d="M55.3,588.6l0.5-1c0.5,0.4,1,0.6,1.4,0.8c0.5,0.2,1,0.2,1.6,0.2c0.7,0,1.2-0.1,1.5-0.3s0.5-0.6,0.5-1
			c0-0.3-0.1-0.6-0.3-0.8s-0.6-0.4-1.2-0.5l-1.5-0.3c-0.7-0.2-1.3-0.5-1.7-0.9s-0.6-0.9-0.6-1.5c0-0.8,0.3-1.4,0.9-1.9
			c0.6-0.5,1.4-0.7,2.4-0.7c0.6,0,1.2,0.1,1.7,0.3s1,0.5,1.4,0.9l-0.5,1c-0.8-0.7-1.7-1-2.7-1c-0.6,0-1.1,0.1-1.5,0.4
			s-0.5,0.6-0.5,1s0.1,0.6,0.3,0.9c0.2,0.2,0.6,0.4,1,0.5l1.5,0.4c0.8,0.2,1.4,0.5,1.8,0.9s0.6,0.9,0.6,1.5c0,0.8-0.3,1.4-0.9,1.8
			c-0.6,0.5-1.5,0.7-2.5,0.7C57.3,589.7,56.2,589.3,55.3,588.6z"/>
		<path class="st2" d="M63.9,588.6l0.5-1c0.5,0.4,1,0.6,1.4,0.8c0.5,0.2,1,0.2,1.6,0.2c0.7,0,1.2-0.1,1.5-0.3s0.5-0.6,0.5-1
			c0-0.3-0.1-0.6-0.3-0.8c-0.2-0.2-0.6-0.4-1.2-0.5l-1.5-0.3c-0.7-0.2-1.3-0.5-1.7-0.9c-0.4-0.4-0.6-0.9-0.6-1.5
			c0-0.8,0.3-1.4,0.9-1.9s1.4-0.7,2.4-0.7c0.6,0,1.2,0.1,1.7,0.3s1,0.5,1.4,0.9l-0.5,1c-0.8-0.7-1.7-1-2.7-1c-0.6,0-1.1,0.1-1.5,0.4
			s-0.5,0.6-0.5,1s0.1,0.6,0.3,0.9c0.2,0.2,0.6,0.4,1,0.5l1.5,0.4c0.8,0.2,1.4,0.5,1.8,0.9s0.6,0.9,0.6,1.5c0,0.8-0.3,1.4-0.9,1.8
			c-0.6,0.5-1.5,0.7-2.5,0.7C66,589.7,64.8,589.3,63.9,588.6z"/>
		<path class="st2" d="M80.5,585.2H74c0,1.1,0.3,2,0.8,2.5c0.5,0.6,1.2,0.9,2.2,0.9s2-0.3,2.8-1l0.5,1c-0.4,0.4-0.9,0.6-1.5,0.9
			c-0.6,0.2-1.2,0.3-1.8,0.3c-1.4,0-2.4-0.4-3.2-1.2c-0.8-0.8-1.2-1.9-1.2-3.3c0-0.9,0.2-1.7,0.5-2.4s0.8-1.2,1.5-1.6
			c0.6-0.4,1.3-0.6,2.1-0.6c1.2,0,2.1,0.4,2.7,1.1c0.7,0.8,1,1.8,1,3.1L80.5,585.2L80.5,585.2z M75,582.4c-0.5,0.4-0.8,1.1-0.9,1.9
			h5.1c-0.1-0.8-0.3-1.5-0.7-1.9c-0.4-0.4-1-0.6-1.7-0.6C76,581.7,75.4,581.9,75,582.4z"/>
		<path class="st2" d="M82.1,588.6l0.5-1c0.5,0.4,1,0.6,1.4,0.8c0.5,0.2,1,0.2,1.6,0.2c0.7,0,1.2-0.1,1.5-0.3s0.5-0.6,0.5-1
			c0-0.3-0.1-0.6-0.3-0.8c-0.2-0.2-0.6-0.4-1.2-0.5l-1.5-0.3c-0.7-0.2-1.3-0.5-1.7-0.9c-0.4-0.4-0.6-0.9-0.6-1.5
			c0-0.8,0.3-1.4,0.9-1.9s1.4-0.7,2.4-0.7c0.6,0,1.2,0.1,1.7,0.3s1,0.5,1.4,0.9l-0.5,1c-0.8-0.7-1.7-1-2.7-1c-0.6,0-1.1,0.1-1.5,0.4
			s-0.5,0.6-0.5,1s0.1,0.6,0.3,0.9c0.2,0.2,0.6,0.4,1,0.5l1.5,0.4c0.8,0.2,1.4,0.5,1.8,0.9s0.6,0.9,0.6,1.5c0,0.8-0.3,1.4-0.9,1.8
			c-0.6,0.5-1.5,0.7-2.5,0.7C84.1,589.7,82.9,589.3,82.1,588.6z"/>
		<path class="st2" d="M90.7,588.6l0.5-1c0.5,0.4,1,0.6,1.4,0.8c0.5,0.2,1,0.2,1.6,0.2c0.7,0,1.2-0.1,1.5-0.3s0.5-0.6,0.5-1
			c0-0.3-0.1-0.6-0.3-0.8c-0.2-0.2-0.6-0.4-1.2-0.5l-1.5-0.3c-0.7-0.2-1.3-0.5-1.7-0.9c-0.4-0.4-0.6-0.9-0.6-1.5
			c0-0.8,0.3-1.4,0.9-1.9s1.4-0.7,2.4-0.7c0.6,0,1.2,0.1,1.7,0.3s1,0.5,1.4,0.9l-0.5,1c-0.8-0.7-1.7-1-2.7-1c-0.6,0-1.1,0.1-1.5,0.4
			s-0.5,0.6-0.5,1s0.1,0.6,0.3,0.9c0.2,0.2,0.6,0.4,1,0.5l1.5,0.4c0.8,0.2,1.4,0.5,1.8,0.9s0.6,0.9,0.6,1.5c0,0.8-0.3,1.4-0.9,1.8
			c-0.6,0.5-1.5,0.7-2.5,0.7C92.7,589.7,91.6,589.3,90.7,588.6z"/>
		<path class="st2" d="M112.5,584.1v5.5h-1.4v-5.4c0-0.8-0.1-1.4-0.4-1.8c-0.3-0.4-0.7-0.6-1.4-0.6c-0.7,0-1.3,0.2-1.7,0.7
			c-0.4,0.5-0.6,1.2-0.6,2v5h-1.4v-5.4c0-0.8-0.1-1.4-0.4-1.8s-0.8-0.6-1.4-0.6c-0.7,0-1.3,0.2-1.8,0.7c-0.4,0.5-0.6,1.2-0.6,2v5
			H100v-6.3c0-0.9,0-1.7-0.1-2.5h1.3l0.1,1.5c0.2-0.6,0.6-1,1.1-1.3s1-0.5,1.7-0.5s1.3,0.1,1.7,0.4c0.4,0.3,0.8,0.7,1,1.3
			c0.3-0.5,0.7-0.9,1.2-1.2s1.1-0.5,1.8-0.5C111.6,580.6,112.5,581.8,112.5,584.1z"/>
		<path class="st2" d="M122.6,585.2h-6.4c0,1.1,0.3,2,0.8,2.5c0.5,0.6,1.2,0.9,2.2,0.9s2-0.3,2.8-1l0.5,1c-0.4,0.4-0.9,0.6-1.5,0.9
			c-0.6,0.2-1.2,0.3-1.8,0.3c-1.4,0-2.4-0.4-3.2-1.2c-0.8-0.8-1.2-1.9-1.2-3.3c0-0.9,0.2-1.7,0.5-2.4s0.8-1.2,1.5-1.6
			c0.6-0.4,1.3-0.6,2.1-0.6c1.2,0,2.1,0.4,2.7,1.1c0.7,0.8,1,1.8,1,3.1V585.2z M117.1,582.4c-0.5,0.4-0.8,1.1-0.9,1.9h5.1
			c-0.1-0.8-0.3-1.5-0.7-1.9c-0.4-0.4-1-0.6-1.7-0.6C118.1,581.7,117.5,581.9,117.1,582.4z"/>
		<path class="st2" d="M132.2,584.1v5.5h-1.4v-5.4c0-0.8-0.2-1.4-0.5-1.8c-0.3-0.4-0.8-0.6-1.5-0.6c-0.8,0-1.5,0.2-2,0.7
			s-0.7,1.2-0.7,2v5h-1.4v-6.3c0-0.9,0-1.7-0.1-2.5h1.3l0.1,1.6c0.3-0.6,0.7-1,1.2-1.3s1.1-0.5,1.8-0.5
			C131.2,580.6,132.2,581.8,132.2,584.1z"/>
		<path class="st2" d="M136.8,581.9v4.8c0,0.7,0.1,1.1,0.4,1.4c0.3,0.3,0.6,0.4,1.1,0.4c0.3,0,0.6-0.1,0.9-0.2v1.2
			c-0.4,0.1-0.8,0.2-1.2,0.2c-0.8,0-1.5-0.2-2-0.7s-0.7-1.2-0.7-2.1v-5h-1.7v-1.1h1.7v-2.2l1.4-0.5v2.8h2.5v1.1h-2.4V581.9z"/>
	</g>
	<rect x="24.9" y="352.6" class="st5" width="135" height="40.6"/>
	<g class="st4">
		<path class="st3" d="M43,355.1h7.7v1.2h-6.3v4.3h5.9v1.2h-5.9v5.7H43V355.1z"/>
		<path class="st3" d="M59.8,358.8v8.8h-1.4V366c-0.3,0.5-0.7,0.9-1.2,1.2c-0.5,0.3-1.1,0.4-1.7,0.4c-1,0-1.8-0.3-2.4-0.9
			c-0.5-0.6-0.8-1.4-0.8-2.6v-5.4h1.4v5.4c0,0.8,0.2,1.4,0.5,1.7c0.3,0.4,0.8,0.6,1.5,0.6c0.8,0,1.4-0.3,1.9-0.8s0.7-1.2,0.7-2v-5
			h1.5V358.8z"/>
		<path class="st3" d="M62.5,354.7H64v12.8h-1.4L62.5,354.7L62.5,354.7z"/>
		<path class="st3" d="M66.7,354.7h1.4v12.8h-1.4V354.7z"/>
		<path class="st3" d="M74.9,366.1l0.5-1.1c0.6,0.5,1.2,0.9,1.9,1.1s1.4,0.3,2.2,0.3c1,0,1.8-0.2,2.3-0.6s0.8-0.9,0.8-1.6
			c0-0.4-0.1-0.8-0.4-1c-0.3-0.3-0.6-0.5-1-0.6c-0.4-0.2-1-0.3-1.7-0.5c-1-0.2-1.7-0.4-2.4-0.7c-0.6-0.2-1.1-0.6-1.5-1.1
			s-0.6-1.1-0.6-1.8c0-0.7,0.2-1.3,0.6-1.9c0.4-0.5,0.9-1,1.6-1.3s1.5-0.5,2.4-0.5s1.7,0.1,2.4,0.4s1.4,0.7,1.9,1.2l-0.6,1.1
			c-0.6-0.5-1.2-0.9-1.8-1.1c-0.6-0.2-1.3-0.3-2-0.3c-1,0-1.7,0.2-2.3,0.6c-0.5,0.4-0.8,1-0.8,1.7c0,0.6,0.2,1.1,0.7,1.4
			s1.2,0.6,2.2,0.8c1.1,0.3,1.9,0.5,2.5,0.7s1.1,0.5,1.5,1s0.6,1,0.6,1.7s-0.2,1.3-0.6,1.8s-0.9,0.9-1.6,1.2
			c-0.7,0.3-1.5,0.4-2.4,0.4C77.6,367.7,76,367.2,74.9,366.1z"/>
		<path class="st3" d="M93.6,363.1h-6.4c0,1.1,0.3,2,0.8,2.5c0.5,0.6,1.2,0.9,2.2,0.9s2-0.3,2.8-1l0.5,1c-0.4,0.4-0.9,0.6-1.5,0.9
			c-0.6,0.2-1.2,0.3-1.8,0.3c-1.4,0-2.4-0.4-3.2-1.2c-0.8-0.8-1.2-1.9-1.2-3.3c0-0.9,0.2-1.7,0.5-2.4c0.3-0.7,0.8-1.2,1.5-1.6
			c0.6-0.4,1.3-0.6,2.1-0.6c1.2,0,2.1,0.4,2.7,1.1c0.7,0.8,1,1.8,1,3.1V363.1z M88.1,360.3c-0.5,0.4-0.8,1.1-0.9,1.9h5.1
			c-0.1-0.8-0.3-1.5-0.7-1.9c-0.4-0.4-1-0.6-1.7-0.6C89.1,359.7,88.6,359.9,88.1,360.3z"/>
		<path class="st3" d="M97.2,367.1c-0.6-0.4-1.1-0.9-1.5-1.6s-0.5-1.5-0.5-2.4s0.2-1.7,0.5-2.4c0.3-0.7,0.8-1.2,1.5-1.6
			s1.4-0.6,2.3-0.6c0.6,0,1.2,0.1,1.7,0.3c0.6,0.2,1,0.5,1.4,0.8l-0.5,1c-0.4-0.3-0.9-0.6-1.3-0.8s-0.8-0.2-1.3-0.2
			c-0.9,0-1.6,0.3-2.1,0.9s-0.8,1.4-0.8,2.5s0.3,1.9,0.8,2.5s1.2,0.9,2.1,0.9c0.4,0,0.9-0.1,1.3-0.2s0.8-0.4,1.3-0.8l0.5,1
			c-0.4,0.3-0.8,0.6-1.4,0.8c-0.6,0.2-1.1,0.3-1.8,0.3C98.6,367.7,97.8,367.5,97.2,367.1z"/>
		<path class="st3" d="M111.7,358.8v8.8h-1.4V366c-0.3,0.5-0.7,0.9-1.2,1.2c-0.5,0.3-1.1,0.4-1.7,0.4c-1,0-1.8-0.3-2.4-0.9
			c-0.5-0.6-0.8-1.4-0.8-2.6v-5.4h1.4v5.4c0,0.8,0.2,1.4,0.5,1.7c0.3,0.4,0.8,0.6,1.5,0.6c0.8,0,1.4-0.3,1.9-0.8s0.7-1.2,0.7-2v-5
			h1.5V358.8z"/>
		<path class="st3" d="M119.3,358.7v1.3c-0.3-0.1-0.6-0.1-0.9-0.1c-0.8,0-1.5,0.3-1.9,0.8s-0.6,1.2-0.6,1.9v5h-1.4v-6.3
			c0-0.9,0-1.7-0.1-2.5h1.3l0.1,1.6c0.2-0.6,0.6-1,1.1-1.4c0.5-0.3,1-0.5,1.7-0.5C118.8,358.6,119.1,358.6,119.3,358.7z"/>
		<path class="st3" d="M122.3,355.1v1.6h-1.7v-1.6H122.3z M120.7,358.8h1.4v8.8h-1.4V358.8z"/>
		<path class="st3" d="M126.8,359.9v4.8c0,0.7,0.1,1.1,0.4,1.4s0.6,0.4,1.1,0.4c0.3,0,0.6-0.1,0.9-0.2v1.2c-0.4,0.1-0.8,0.2-1.2,0.2
			c-0.8,0-1.5-0.2-2-0.7s-0.7-1.2-0.7-2.1v-5h-1.7v-1.1h1.7v-2.2l1.4-0.5v2.8h2.5v1.1L126.8,359.9L126.8,359.9z"/>
		<path class="st3" d="M138.8,358.8l-4.1,9.6c-0.4,1-1,1.7-1.6,2.2s-1.5,0.8-2.4,1l-0.3-1.1c0.8-0.2,1.4-0.4,1.9-0.7
			s0.8-0.8,1.1-1.4l0.3-0.8l-3.7-8.7h1.5l3,7.2l3-7.2h1.3V358.8z"/>
	</g>
	<g class="st4">
		<path class="st3" d="M51.4,385.2H45l-1.4,3.2h-1.5l5.5-12.4h1.3l5.5,12.4h-1.5L51.4,385.2z M50.9,384.1l-2.7-6.4l-2.7,6.4H50.9z"
			/>
		<path class="st3" d="M55.3,387.4l0.5-1c0.5,0.4,1,0.6,1.4,0.8c0.5,0.2,1,0.2,1.6,0.2c0.7,0,1.2-0.1,1.5-0.3c0.3-0.2,0.5-0.6,0.5-1
			c0-0.3-0.1-0.6-0.3-0.8c-0.2-0.2-0.6-0.4-1.2-0.5l-1.5-0.3c-0.7-0.2-1.3-0.5-1.7-0.9s-0.6-0.9-0.6-1.5c0-0.8,0.3-1.4,0.9-1.9
			c0.6-0.5,1.4-0.7,2.4-0.7c0.6,0,1.2,0.1,1.7,0.3c0.5,0.2,1,0.5,1.4,0.9l-0.5,1c-0.8-0.7-1.7-1-2.7-1c-0.6,0-1.1,0.1-1.5,0.4
			s-0.5,0.6-0.5,1s0.1,0.6,0.3,0.9c0.2,0.2,0.6,0.4,1,0.5l1.5,0.4c0.8,0.2,1.4,0.5,1.8,0.9s0.6,0.9,0.6,1.5c0,0.8-0.3,1.4-0.9,1.8
			c-0.6,0.5-1.5,0.7-2.5,0.7C57.3,388.6,56.2,388.2,55.3,387.4z"/>
		<path class="st3" d="M63.9,387.4l0.5-1c0.5,0.4,1,0.6,1.4,0.8c0.5,0.2,1,0.2,1.6,0.2c0.7,0,1.2-0.1,1.5-0.3c0.3-0.2,0.5-0.6,0.5-1
			c0-0.3-0.1-0.6-0.3-0.8c-0.2-0.2-0.6-0.4-1.2-0.5l-1.5-0.3c-0.7-0.2-1.3-0.5-1.7-0.9c-0.4-0.4-0.6-0.9-0.6-1.5
			c0-0.8,0.3-1.4,0.9-1.9s1.4-0.7,2.4-0.7c0.6,0,1.2,0.1,1.7,0.3c0.5,0.2,1,0.5,1.4,0.9l-0.5,1c-0.8-0.7-1.7-1-2.7-1
			c-0.6,0-1.1,0.1-1.5,0.4s-0.5,0.6-0.5,1s0.1,0.6,0.3,0.9c0.2,0.2,0.6,0.4,1,0.5l1.5,0.4c0.8,0.2,1.4,0.5,1.8,0.9s0.6,0.9,0.6,1.5
			c0,0.8-0.3,1.4-0.9,1.8c-0.6,0.5-1.5,0.7-2.5,0.7C66,388.6,64.8,388.2,63.9,387.4z"/>
		<path class="st3" d="M80.5,384H74c0,1.1,0.3,2,0.8,2.5c0.5,0.6,1.2,0.9,2.2,0.9s2-0.3,2.8-1l0.5,1c-0.4,0.4-0.9,0.6-1.5,0.9
			c-0.6,0.2-1.2,0.3-1.8,0.3c-1.4,0-2.4-0.4-3.2-1.2c-0.8-0.8-1.2-1.9-1.2-3.3c0-0.9,0.2-1.7,0.5-2.4c0.3-0.7,0.8-1.2,1.5-1.6
			c0.6-0.4,1.3-0.6,2.1-0.6c1.2,0,2.1,0.4,2.7,1.1c0.7,0.8,1,1.8,1,3.1L80.5,384L80.5,384z M75,381.2c-0.5,0.4-0.8,1.1-0.9,1.9h5.1
			c-0.1-0.8-0.3-1.5-0.7-1.9c-0.4-0.4-1-0.6-1.7-0.6C76,380.6,75.4,380.8,75,381.2z"/>
		<path class="st3" d="M82.1,387.4l0.5-1c0.5,0.4,1,0.6,1.4,0.8c0.5,0.2,1,0.2,1.6,0.2c0.7,0,1.2-0.1,1.5-0.3c0.3-0.2,0.5-0.6,0.5-1
			c0-0.3-0.1-0.6-0.3-0.8c-0.2-0.2-0.6-0.4-1.2-0.5l-1.5-0.3c-0.7-0.2-1.3-0.5-1.7-0.9c-0.4-0.4-0.6-0.9-0.6-1.5
			c0-0.8,0.3-1.4,0.9-1.9s1.4-0.7,2.4-0.7c0.6,0,1.2,0.1,1.7,0.3c0.5,0.2,1,0.5,1.4,0.9l-0.5,1c-0.8-0.7-1.7-1-2.7-1
			c-0.6,0-1.1,0.1-1.5,0.4s-0.5,0.6-0.5,1s0.1,0.6,0.3,0.9c0.2,0.2,0.6,0.4,1,0.5l1.5,0.4c0.8,0.2,1.4,0.5,1.8,0.9s0.6,0.9,0.6,1.5
			c0,0.8-0.3,1.4-0.9,1.8c-0.6,0.5-1.5,0.7-2.5,0.7C84.1,388.6,82.9,388.2,82.1,387.4z"/>
		<path class="st3" d="M90.7,387.4l0.5-1c0.5,0.4,1,0.6,1.4,0.8c0.5,0.2,1,0.2,1.6,0.2c0.7,0,1.2-0.1,1.5-0.3c0.3-0.2,0.5-0.6,0.5-1
			c0-0.3-0.1-0.6-0.3-0.8c-0.2-0.2-0.6-0.4-1.2-0.5l-1.5-0.3c-0.7-0.2-1.3-0.5-1.7-0.9c-0.4-0.4-0.6-0.9-0.6-1.5
			c0-0.8,0.3-1.4,0.9-1.9s1.4-0.7,2.4-0.7c0.6,0,1.2,0.1,1.7,0.3c0.5,0.2,1,0.5,1.4,0.9l-0.5,1c-0.8-0.7-1.7-1-2.7-1
			c-0.6,0-1.1,0.1-1.5,0.4s-0.5,0.6-0.5,1s0.1,0.6,0.3,0.9c0.2,0.2,0.6,0.4,1,0.5l1.5,0.4c0.8,0.2,1.4,0.5,1.8,0.9s0.6,0.9,0.6,1.5
			c0,0.8-0.3,1.4-0.9,1.8c-0.6,0.5-1.5,0.7-2.5,0.7C92.7,388.6,91.6,388.2,90.7,387.4z"/>
		<path class="st3" d="M112.5,382.9v5.5h-1.4V383c0-0.8-0.1-1.4-0.4-1.8s-0.7-0.6-1.4-0.6c-0.7,0-1.3,0.2-1.7,0.7
			c-0.4,0.5-0.6,1.2-0.6,2v5h-1.4V383c0-0.8-0.1-1.4-0.4-1.8s-0.8-0.6-1.4-0.6c-0.7,0-1.3,0.2-1.8,0.7c-0.4,0.5-0.6,1.2-0.6,2v5H100
			V382c0-0.9,0-1.7-0.1-2.5h1.3l0.1,1.5c0.2-0.6,0.6-1,1.1-1.3s1-0.5,1.7-0.5s1.3,0.1,1.7,0.4c0.4,0.3,0.8,0.7,1,1.3
			c0.3-0.5,0.7-0.9,1.2-1.2s1.1-0.5,1.8-0.5C111.6,379.5,112.5,380.6,112.5,382.9z"/>
		<path class="st3" d="M122.6,384h-6.4c0,1.1,0.3,2,0.8,2.5c0.5,0.6,1.2,0.9,2.2,0.9s2-0.3,2.8-1l0.5,1c-0.4,0.4-0.9,0.6-1.5,0.9
			c-0.6,0.2-1.2,0.3-1.8,0.3c-1.4,0-2.4-0.4-3.2-1.2c-0.8-0.8-1.2-1.9-1.2-3.3c0-0.9,0.2-1.7,0.5-2.4c0.3-0.7,0.8-1.2,1.5-1.6
			c0.6-0.4,1.3-0.6,2.1-0.6c1.2,0,2.1,0.4,2.7,1.1c0.7,0.8,1,1.8,1,3.1V384z M117.1,381.2c-0.5,0.4-0.8,1.1-0.9,1.9h5.1
			c-0.1-0.8-0.3-1.5-0.7-1.9c-0.4-0.4-1-0.6-1.7-0.6C118.1,380.6,117.5,380.8,117.1,381.2z"/>
		<path class="st3" d="M132.2,382.9v5.5h-1.4V383c0-0.8-0.2-1.4-0.5-1.8s-0.8-0.6-1.5-0.6c-0.8,0-1.5,0.2-2,0.7s-0.7,1.2-0.7,2v5
			h-1.4V382c0-0.9,0-1.7-0.1-2.5h1.3l0.1,1.6c0.3-0.6,0.7-1,1.2-1.3s1.1-0.5,1.8-0.5C131.2,379.5,132.2,380.6,132.2,382.9z"/>
		<path class="st3" d="M136.8,380.8v4.8c0,0.7,0.1,1.1,0.4,1.4c0.3,0.3,0.6,0.4,1.1,0.4c0.3,0,0.6-0.1,0.9-0.2v1.2
			c-0.4,0.1-0.8,0.2-1.2,0.2c-0.8,0-1.5-0.2-2-0.7s-0.7-1.2-0.7-2.1v-5h-1.7v-1.1h1.7v-2.2l1.4-0.5v2.8h2.5v1.1L136.8,380.8
			L136.8,380.8z"/>
	</g>
	<g class="st4">
		<path class="st6" d="M448.8,472.5c0-3.2,2.4-5.4,5.7-5.4c1.8,0,3.3,0.7,4.3,1.9l-1.6,1.4c-0.7-0.8-1.6-1.2-2.6-1.2
			c-2,0-3.4,1.4-3.4,3.4s1.4,3.4,3.4,3.4c1,0,1.9-0.4,2.6-1.2l1.6,1.4c-1,1.2-2.5,1.9-4.3,1.9C451.2,477.9,448.8,475.6,448.8,472.5z
			"/>
		<path class="st6" d="M459.4,473.7c0-2.4,1.9-4.2,4.4-4.2c2.6,0,4.4,1.7,4.4,4.2c0,2.4-1.9,4.2-4.4,4.2
			C461.3,477.9,459.4,476.1,459.4,473.7z M465.9,473.7c0-1.4-0.9-2.2-2.1-2.2s-2.1,0.8-2.1,2.2c0,1.4,0.9,2.2,2.1,2.2
			S465.9,475.1,465.9,473.7z"/>
		<path class="st6" d="M478.1,473.1v4.6h-2.3v-4.3c0-1.3-0.6-1.9-1.6-1.9c-1.1,0-1.9,0.7-1.9,2.2v4H470v-8.1h2.2v0.9
			c0.6-0.7,1.6-1.1,2.7-1.1C476.6,469.5,478.1,470.7,478.1,473.1z"/>
		<path class="st6" d="M485.4,477.3c-0.5,0.3-1.2,0.5-1.9,0.5c-1.9,0-3-1-3-2.9v-3.3h-1.2v-1.8h1.2v-2h2.3v2h2v1.8h-2v3.3
			c0,0.7,0.4,1.1,1,1.1c0.3,0,0.7-0.1,0.9-0.3L485.4,477.3z"/>
		<path class="st6" d="M486.4,467.2c0-0.7,0.6-1.3,1.5-1.3s1.5,0.5,1.5,1.3s-0.6,1.4-1.5,1.4S486.4,468,486.4,467.2z M486.7,469.7
			h2.3v8.1h-2.3V469.7z"/>
		<path class="st6" d="M499.5,473.1v4.6h-2.3v-4.3c0-1.3-0.6-1.9-1.6-1.9c-1.1,0-1.9,0.7-1.9,2.2v4h-2.3v-8.1h2.2v0.9
			c0.6-0.7,1.6-1.1,2.7-1.1C498,469.5,499.5,470.7,499.5,473.1z"/>
		<path class="st6" d="M509.7,469.7v8.1h-2.2v-1c-0.6,0.7-1.5,1.1-2.5,1.1c-2,0-3.5-1.1-3.5-3.6v-4.6h2.3v4.2c0,1.3,0.6,1.9,1.6,1.9
			c1.1,0,1.9-0.7,1.9-2.2v-4h2.4V469.7z"/>
		<path class="st6" d="M511.3,473.7c0-2.4,1.9-4.2,4.4-4.2c2.6,0,4.4,1.7,4.4,4.2c0,2.4-1.9,4.2-4.4,4.2
			C513.2,477.9,511.3,476.1,511.3,473.7z M517.8,473.7c0-1.4-0.9-2.2-2.1-2.2s-2.1,0.8-2.1,2.2c0,1.4,0.9,2.2,2.1,2.2
			S517.8,475.1,517.8,473.7z"/>
		<path class="st6" d="M529.8,469.7v8.1h-2.2v-1c-0.6,0.7-1.5,1.1-2.5,1.1c-2,0-3.5-1.1-3.5-3.6v-4.6h2.3v4.2c0,1.3,0.6,1.9,1.6,1.9
			c1.1,0,1.9-0.7,1.9-2.2v-4h2.4V469.7z"/>
		<path class="st6" d="M531.2,477l0.8-1.7c0.7,0.5,1.8,0.8,2.8,0.8c1.1,0,1.5-0.3,1.5-0.7c0-1.3-4.9,0-4.9-3.2
			c0-1.5,1.4-2.6,3.7-2.6c1.1,0,2.3,0.3,3.1,0.7l-0.8,1.7c-0.8-0.5-1.6-0.6-2.3-0.6c-1.1,0-1.5,0.3-1.5,0.8c0,1.4,4.9,0,4.9,3.2
			c0,1.5-1.4,2.6-3.8,2.6C533.4,477.9,532,477.5,531.2,477z"/>
		<path class="st6" d="M554,477.7v-6.3l-3.1,5.2h-1.1l-3.1-5.1v6.2h-2.3v-10.5h2l3.9,6.5l3.9-6.5h2v10.5L554,477.7L554,477.7z"/>
		<path class="st6" d="M558,473.7c0-2.4,1.9-4.2,4.4-4.2c2.6,0,4.4,1.7,4.4,4.2c0,2.4-1.9,4.2-4.4,4.2
			C559.8,477.9,558,476.1,558,473.7z M564.5,473.7c0-1.4-0.9-2.2-2.1-2.2s-2.1,0.8-2.1,2.2c0,1.4,0.9,2.2,2.1,2.2
			S564.5,475.1,564.5,473.7z"/>
		<path class="st6" d="M576.6,473.1v4.6h-2.3v-4.3c0-1.3-0.6-1.9-1.6-1.9c-1.1,0-1.9,0.7-1.9,2.2v4h-2.3v-8.1h2.2v0.9
			c0.6-0.7,1.6-1.1,2.7-1.1C575.2,469.5,576.6,470.7,576.6,473.1z"/>
		<path class="st6" d="M578.5,467.2c0-0.7,0.6-1.3,1.5-1.3s1.5,0.5,1.5,1.3s-0.6,1.4-1.5,1.4S578.5,468,578.5,467.2z M578.7,469.7
			h2.3v8.1h-2.3V469.7z"/>
		<path class="st6" d="M588.5,477.3c-0.5,0.3-1.2,0.5-1.9,0.5c-1.9,0-3-1-3-2.9v-3.3h-1.2v-1.8h1.2v-2h2.3v2h2v1.8h-2v3.3
			c0,0.7,0.4,1.1,1,1.1c0.3,0,0.7-0.1,0.9-0.3L588.5,477.3z"/>
		<path class="st6" d="M588.9,473.7c0-2.4,1.9-4.2,4.4-4.2c2.6,0,4.4,1.7,4.4,4.2c0,2.4-1.9,4.2-4.4,4.2
			C590.8,477.9,588.9,476.1,588.9,473.7z M595.4,473.7c0-1.4-0.9-2.2-2.1-2.2s-2.1,0.8-2.1,2.2c0,1.4,0.9,2.2,2.1,2.2
			S595.4,475.1,595.4,473.7z"/>
		<path class="st6" d="M604.4,469.5v2.2c-0.2,0-0.3,0-0.5,0c-1.3,0-2.1,0.7-2.1,2.2v3.8h-2.3v-8.1h2.2v1.1
			C602.2,469.9,603.1,469.5,604.4,469.5z"/>
		<path class="st6" d="M605.5,467.2c0-0.7,0.6-1.3,1.5-1.3s1.5,0.5,1.5,1.3s-0.6,1.4-1.5,1.4S605.5,468,605.5,467.2z M605.8,469.7
			h2.3v8.1h-2.3V469.7z"/>
		<path class="st6" d="M618.5,473.1v4.6h-2.3v-4.3c0-1.3-0.6-1.9-1.6-1.9c-1.1,0-1.9,0.7-1.9,2.2v4h-2.3v-8.1h2.2v0.9
			c0.6-0.7,1.6-1.1,2.7-1.1C617.1,469.5,618.5,470.7,618.5,473.1z"/>
		<path class="st6" d="M629.1,469.7v6.7c0,3-1.6,4.4-4.5,4.4c-1.5,0-3-0.4-4-1.1l0.9-1.7c0.7,0.6,1.8,0.9,2.8,0.9
			c1.7,0,2.4-0.8,2.4-2.2v-0.3c-0.6,0.7-1.5,1-2.5,1c-2.2,0-4-1.5-4-3.9s1.8-3.9,4-3.9c1.1,0,2.1,0.4,2.7,1.2v-1h2.2V469.7z
			 M626.7,473.4c0-1.2-0.9-2-2.1-2c-1.2,0-2.1,0.8-2.1,2s0.9,2,2.1,2C625.9,475.4,626.7,474.6,626.7,473.4z"/>
	</g>
	<rect x="514.2" y="17.5" class="st5" width="125.6" height="40.1"/>
	<g class="st4">
		<path class="st3" d="M545.5,32.2H544l-1.5-4.1c-0.2-0.5-0.4-0.8-0.8-1c-0.3-0.2-0.8-0.3-1.4-0.3h-3.1v5.4h-1.4V19.9h4.9
			c1.3,0,2.3,0.3,3,0.9s1.1,1.4,1.1,2.5c0,0.8-0.2,1.5-0.6,2c-0.4,0.5-1,0.9-1.8,1.2c0.4,0.1,0.7,0.2,0.9,0.5
			c0.3,0.2,0.5,0.6,0.6,1.1L545.5,32.2z M540.6,25.7c1.9,0,2.8-0.8,2.8-2.3c0-0.8-0.2-1.3-0.7-1.7s-1.2-0.6-2.1-0.6h-3.4v4.6H540.6z
			"/>
		<path class="st3" d="M554.9,27.8h-6.4c0,1.1,0.3,1.9,0.8,2.5s1.2,0.8,2.2,0.8s1.9-0.3,2.8-1l0.5,1c-0.4,0.4-0.9,0.6-1.5,0.8
			c-0.6,0.2-1.2,0.3-1.8,0.3c-1.4,0-2.4-0.4-3.2-1.2c-0.8-0.8-1.2-1.9-1.2-3.3c0-0.9,0.2-1.7,0.5-2.3s0.8-1.2,1.4-1.6
			s1.3-0.6,2.1-0.6c1.1,0,2,0.4,2.7,1.1c0.7,0.8,1,1.8,1,3.1v0.4H554.9z M549.4,25.1c-0.5,0.4-0.7,1-0.9,1.8h5
			c-0.1-0.8-0.3-1.4-0.7-1.9c-0.4-0.4-1-0.6-1.7-0.6C550.5,24.4,549.9,24.6,549.4,25.1z"/>
		<path class="st3" d="M564.6,23.5v8.7h-1.4v-1.6c-0.3,0.5-0.6,1-1.1,1.2c-0.5,0.3-1.1,0.4-1.8,0.4c-0.8,0-1.4-0.2-2-0.6
			s-1-0.9-1.3-1.6s-0.5-1.5-0.5-2.3c0-0.9,0.2-1.7,0.5-2.4s0.8-1.2,1.4-1.6s1.2-0.6,2-0.6c0.7,0,1.3,0.1,1.8,0.4s0.9,0.7,1.2,1.3
			v-1.5h1.2V23.5z M562.5,30.3c0.5-0.6,0.7-1.4,0.7-2.5s-0.2-1.9-0.7-2.5s-1.1-0.9-2-0.9s-1.5,0.3-2,0.9s-0.7,1.4-0.7,2.5
			s0.2,1.9,0.7,2.4c0.5,0.6,1.1,0.9,2,0.9C561.4,31.2,562.1,30.9,562.5,30.3z"/>
		<path class="st3" d="M574.9,19.5v12.7h-1.4v-1.6c-0.3,0.5-0.6,1-1.1,1.2c-0.5,0.3-1.1,0.4-1.8,0.4c-0.8,0-1.4-0.2-2-0.6
			s-1-0.9-1.4-1.6c-0.3-0.7-0.5-1.5-0.5-2.4s0.2-1.7,0.5-2.3c0.3-0.7,0.8-1.2,1.4-1.6c0.6-0.4,1.3-0.6,2-0.6s1.3,0.1,1.8,0.4
			s0.9,0.7,1.1,1.2v-5.5h1.4V19.5z M572.9,30.3c0.5-0.6,0.7-1.4,0.7-2.5s-0.2-1.9-0.7-2.5s-1.1-0.9-2-0.9c-0.8,0-1.5,0.3-2,0.9
			s-0.7,1.4-0.7,2.4c0,1.1,0.2,1.9,0.7,2.5s1.1,0.9,2,0.9C571.8,31.2,572.4,30.9,572.9,30.3z"/>
		<path class="st3" d="M579.2,19.9v1.6h-1.7v-1.6H579.2z M577.6,23.5h1.4v8.7h-1.4V23.5z"/>
		<path class="st3" d="M589.2,26.7v5.4h-1.4v-5.4c0-0.8-0.2-1.4-0.5-1.8s-0.8-0.6-1.5-0.6c-0.8,0-1.4,0.2-1.9,0.7s-0.7,1.2-0.7,2v5
			h-1.4v-6c0-0.9,0-1.7-0.1-2.4h1.3l0.1,1.5c0.3-0.6,0.7-1,1.2-1.3s1.1-0.5,1.8-0.5C588.1,23.3,589.2,24.5,589.2,26.7z"/>
		<path class="st3" d="M599.1,27.8h-6.4c0,1.1,0.3,1.9,0.8,2.5s1.2,0.8,2.2,0.8s1.9-0.3,2.8-1l0.5,1c-0.4,0.4-0.9,0.6-1.5,0.8
			c-0.6,0.2-1.2,0.3-1.8,0.3c-1.4,0-2.4-0.4-3.2-1.2c-0.8-0.8-1.2-1.9-1.2-3.3c0-0.9,0.2-1.7,0.5-2.3s0.8-1.2,1.4-1.6
			c0.6-0.4,1.3-0.6,2.1-0.6c1.1,0,2,0.4,2.7,1.1s1,1.8,1,3.1v0.4H599.1z M593.6,25.1c-0.5,0.4-0.7,1-0.9,1.8h5
			c-0.1-0.8-0.3-1.4-0.7-1.9c-0.4-0.4-1-0.6-1.7-0.6S594.1,24.6,593.6,25.1z"/>
		<path class="st3" d="M600.6,31.2l0.5-1c0.5,0.4,0.9,0.6,1.4,0.8c0.5,0.2,1,0.2,1.6,0.2c0.7,0,1.2-0.1,1.5-0.3s0.5-0.5,0.5-1
			c0-0.3-0.1-0.6-0.3-0.8c-0.2-0.2-0.6-0.4-1.1-0.5l-1.5-0.3c-0.7-0.2-1.3-0.4-1.7-0.9s-0.6-0.9-0.6-1.5c0-0.8,0.3-1.4,0.9-1.9
			s1.4-0.7,2.4-0.7c0.6,0,1.2,0.1,1.7,0.3c0.5,0.2,1,0.5,1.4,0.8l-0.5,1c-0.8-0.7-1.7-1-2.6-1c-0.6,0-1.1,0.1-1.4,0.4
			c-0.3,0.2-0.5,0.6-0.5,1s0.1,0.6,0.3,0.8c0.2,0.2,0.6,0.4,1,0.5l1.5,0.4c0.8,0.2,1.4,0.5,1.8,0.9c0.4,0.4,0.6,0.9,0.6,1.5
			c0,0.7-0.3,1.3-0.9,1.8c-0.6,0.4-1.4,0.7-2.5,0.7C602.6,32.3,601.5,31.9,600.6,31.2z"/>
		<path class="st3" d="M609.2,31.2l0.5-1c0.5,0.4,0.9,0.6,1.4,0.8c0.5,0.2,1,0.2,1.6,0.2c0.7,0,1.2-0.1,1.5-0.3
			c0.3-0.2,0.5-0.5,0.5-1c0-0.3-0.1-0.6-0.3-0.8c-0.2-0.2-0.6-0.4-1.1-0.5l-1.5-0.3c-0.7-0.2-1.3-0.4-1.7-0.9
			c-0.4-0.4-0.6-0.9-0.6-1.5c0-0.8,0.3-1.4,0.9-1.9c0.6-0.5,1.4-0.7,2.4-0.7c0.6,0,1.2,0.1,1.7,0.3s1,0.5,1.4,0.8l-0.5,1
			c-0.8-0.7-1.7-1-2.6-1c-0.6,0-1.1,0.1-1.4,0.4c-0.3,0.2-0.5,0.6-0.5,1s0.1,0.6,0.3,0.8c0.2,0.2,0.6,0.4,1,0.5l1.5,0.4
			c0.8,0.2,1.4,0.5,1.8,0.9s0.6,0.9,0.6,1.5c0,0.7-0.3,1.3-0.9,1.8c-0.6,0.4-1.4,0.7-2.5,0.7C611.2,32.3,610,31.9,609.2,31.2z"/>
	</g>
	<g class="st4">
		<path class="st3" d="M536.6,49.7h-6.4l-1.4,3.2h-1.5l5.4-12.3h1.2l5.4,12.3h-1.4L536.6,49.7z M536.1,48.6l-2.7-6.3l-2.7,6.3H536.1
			z"/>
		<path class="st3" d="M540.4,51.9l0.5-1c0.5,0.4,0.9,0.6,1.4,0.8s1,0.2,1.6,0.2c0.7,0,1.2-0.1,1.5-0.3s0.5-0.5,0.5-1
			c0-0.3-0.1-0.6-0.3-0.8s-0.6-0.4-1.1-0.5L543,49c-0.7-0.2-1.3-0.4-1.7-0.9c-0.4-0.4-0.6-0.9-0.6-1.5c0-0.8,0.3-1.4,0.9-1.9
			S543,44,544,44c0.6,0,1.2,0.1,1.7,0.3s1,0.5,1.4,0.8l-0.5,1c-0.8-0.7-1.7-1-2.6-1c-0.6,0-1.1,0.1-1.4,0.4c-0.3,0.2-0.5,0.6-0.5,1
			s0.1,0.6,0.3,0.8s0.6,0.4,1,0.5l1.5,0.4c0.8,0.2,1.4,0.5,1.8,0.9c0.4,0.4,0.6,0.9,0.6,1.5c0,0.7-0.3,1.3-0.9,1.8s-1.4,0.7-2.5,0.7
			C542.4,53,541.2,52.6,540.4,51.9z"/>
		<path class="st3" d="M548.9,51.9l0.5-1c0.5,0.4,0.9,0.6,1.4,0.8s1,0.2,1.6,0.2c0.7,0,1.2-0.1,1.5-0.3s0.5-0.5,0.5-1
			c0-0.3-0.1-0.6-0.3-0.8s-0.6-0.4-1.1-0.5l-1.5-0.3c-0.7-0.2-1.3-0.4-1.7-0.9c-0.4-0.4-0.6-0.9-0.6-1.5c0-0.8,0.3-1.4,0.9-1.9
			s1.4-0.7,2.4-0.7c0.6,0,1.2,0.1,1.7,0.3s1,0.5,1.4,0.8l-0.5,1c-0.8-0.7-1.7-1-2.6-1c-0.6,0-1.1,0.1-1.4,0.4
			c-0.3,0.2-0.5,0.6-0.5,1s0.1,0.6,0.3,0.8s0.6,0.4,1,0.5l1.5,0.4c0.8,0.2,1.4,0.5,1.8,0.9c0.4,0.4,0.6,0.9,0.6,1.5
			c0,0.7-0.3,1.3-0.9,1.8c-0.6,0.4-1.4,0.7-2.5,0.7C550.9,53,549.8,52.6,548.9,51.9z"/>
		<path class="st3" d="M565.2,48.5h-6.4c0,1.1,0.3,1.9,0.8,2.5s1.2,0.8,2.2,0.8s1.9-0.3,2.8-1l0.5,1c-0.4,0.4-0.9,0.6-1.5,0.8
			s-1.2,0.3-1.8,0.3c-1.4,0-2.4-0.4-3.2-1.2s-1.2-1.9-1.2-3.3c0-0.9,0.2-1.7,0.5-2.3c0.3-0.7,0.8-1.2,1.4-1.6s1.3-0.6,2.1-0.6
			c1.1,0,2,0.4,2.7,1.1s1,1.8,1,3.1v0.4H565.2z M559.8,45.8c-0.5,0.4-0.7,1-0.9,1.8h5c-0.1-0.8-0.3-1.4-0.7-1.9
			c-0.4-0.4-1-0.6-1.7-0.6S560.3,45.3,559.8,45.8z"/>
		<path class="st3" d="M566.8,51.9l0.5-1c0.5,0.4,0.9,0.6,1.4,0.8s1,0.2,1.6,0.2c0.7,0,1.2-0.1,1.5-0.3s0.5-0.5,0.5-1
			c0-0.3-0.1-0.6-0.3-0.8s-0.6-0.4-1.1-0.5l-1.5-0.3c-0.7-0.2-1.3-0.4-1.7-0.9c-0.4-0.4-0.6-0.9-0.6-1.5c0-0.8,0.3-1.4,0.9-1.9
			s1.4-0.7,2.4-0.7c0.6,0,1.2,0.1,1.7,0.3s1,0.5,1.4,0.8l-0.5,1c-0.8-0.7-1.7-1-2.6-1c-0.6,0-1.1,0.1-1.4,0.4
			c-0.3,0.2-0.5,0.6-0.5,1s0.1,0.6,0.3,0.8s0.6,0.4,1,0.5l1.5,0.4c0.8,0.2,1.4,0.5,1.8,0.9c0.4,0.4,0.6,0.9,0.6,1.5
			c0,0.7-0.3,1.3-0.9,1.8c-0.6,0.4-1.4,0.7-2.5,0.7C568.8,53,567.7,52.6,566.8,51.9z"/>
		<path class="st3" d="M575.4,51.9l0.5-1c0.5,0.4,0.9,0.6,1.4,0.8s1,0.2,1.6,0.2c0.7,0,1.2-0.1,1.5-0.3s0.5-0.5,0.5-1
			c0-0.3-0.1-0.6-0.3-0.8s-0.6-0.4-1.1-0.5L578,49c-0.7-0.2-1.3-0.4-1.7-0.9c-0.4-0.4-0.6-0.9-0.6-1.5c0-0.8,0.3-1.4,0.9-1.9
			S578,44,579,44c0.6,0,1.2,0.1,1.7,0.3s1,0.5,1.4,0.8l-0.5,1c-0.8-0.7-1.7-1-2.6-1c-0.6,0-1.1,0.1-1.4,0.4c-0.3,0.2-0.5,0.6-0.5,1
			s0.1,0.6,0.3,0.8s0.6,0.4,1,0.5l1.5,0.4c0.8,0.2,1.4,0.5,1.8,0.9c0.4,0.4,0.6,0.9,0.6,1.5c0,0.7-0.3,1.3-0.9,1.8s-1.4,0.7-2.5,0.7
			C577.4,53,576.2,52.6,575.4,51.9z"/>
		<path class="st3" d="M596.9,47.4v5.4h-1.4v-5.4c0-0.8-0.1-1.4-0.4-1.8c-0.3-0.4-0.7-0.6-1.4-0.6s-1.3,0.2-1.7,0.7s-0.6,1.2-0.6,2
			v4.9H590v-5.4c0-0.8-0.1-1.4-0.4-1.8s-0.7-0.6-1.4-0.6s-1.3,0.2-1.7,0.7s-0.6,1.2-0.6,2v4.9h-1.4v-6.2c0-0.9,0-1.7-0.1-2.4h1.3
			l0.1,1.5c0.2-0.6,0.6-1,1.1-1.3s1-0.4,1.7-0.4s1.3,0.1,1.7,0.4c0.4,0.3,0.8,0.7,1,1.3c0.3-0.5,0.7-0.9,1.2-1.2s1.1-0.5,1.7-0.5
			C596,44,596.9,45.2,596.9,47.4z"/>
		<path class="st3" d="M606.8,48.5h-6.4c0,1.1,0.3,1.9,0.8,2.5s1.2,0.8,2.2,0.8s1.9-0.3,2.8-1l0.5,1c-0.4,0.4-0.9,0.6-1.5,0.8
			s-1.2,0.3-1.8,0.3c-1.4,0-2.4-0.4-3.2-1.2s-1.2-1.9-1.2-3.3c0-0.9,0.2-1.7,0.5-2.3c0.3-0.7,0.8-1.2,1.4-1.6s1.3-0.6,2.1-0.6
			c1.1,0,2,0.4,2.7,1.1s1,1.8,1,3.1v0.4H606.8z M601.4,45.8c-0.5,0.4-0.7,1-0.9,1.8h5c-0.1-0.8-0.3-1.4-0.7-1.9
			c-0.4-0.4-1-0.6-1.7-0.6S601.8,45.3,601.4,45.8z"/>
		<path class="st3" d="M616.4,47.4v5.4H615v-5.4c0-0.8-0.2-1.4-0.5-1.8S613.7,45,613,45c-0.8,0-1.4,0.2-1.9,0.7s-0.7,1.2-0.7,2v5
			H609v-6.2c0-0.9,0-1.7-0.1-2.4h1.3l0.1,1.5c0.3-0.6,0.7-1,1.2-1.3s1.1-0.5,1.8-0.5C615.3,44,616.4,45.2,616.4,47.4z"/>
		<path class="st3" d="M620.9,45.3V50c0,0.6,0.1,1.1,0.4,1.4c0.3,0.3,0.6,0.4,1.1,0.4c0.3,0,0.6-0.1,0.9-0.2v1.2
			c-0.4,0.1-0.8,0.2-1.2,0.2c-0.8,0-1.5-0.2-1.9-0.7s-0.7-1.2-0.7-2.1v-4.9h-1.7v-1.1h1.7V42l1.4-0.5v2.7h2.5v1.1H620.9z"/>
	</g>
	<rect x="505.7" y="202.3" class="st5" width="137.7" height="40.1"/>
	<g class="st4">
		<path class="st2" d="M543,217.1h-1.5L540,213c-0.2-0.5-0.4-0.8-0.8-1s-0.8-0.3-1.4-0.3h-3.1v5.4h-1.4v-12.3h4.9
			c1.3,0,2.3,0.3,3,0.9c0.7,0.6,1.1,1.4,1.1,2.5c0,0.8-0.2,1.5-0.6,2c-0.4,0.5-1,0.9-1.8,1.2c0.4,0.1,0.7,0.2,0.9,0.5
			c0.3,0.2,0.5,0.6,0.6,1.1L543,217.1z M538.1,210.6c1.9,0,2.8-0.8,2.8-2.3c0-0.8-0.2-1.3-0.7-1.7s-1.2-0.6-2.1-0.6h-3.4v4.6H538.1z
			"/>
		<path class="st2" d="M552.4,212.7H546c0,1.1,0.3,1.9,0.8,2.5s1.2,0.8,2.2,0.8s1.9-0.3,2.8-1l0.5,1c-0.4,0.4-0.9,0.6-1.5,0.8
			s-1.2,0.3-1.8,0.3c-1.4,0-2.4-0.4-3.2-1.2s-1.2-1.9-1.2-3.3c0-0.9,0.2-1.7,0.5-2.3c0.3-0.7,0.8-1.2,1.4-1.6
			c0.6-0.4,1.3-0.6,2.1-0.6c1.1,0,2,0.4,2.7,1.1s1,1.8,1,3.1v0.4H552.4z M547,210c-0.5,0.4-0.7,1-0.9,1.8h5
			c-0.1-0.8-0.3-1.4-0.7-1.9c-0.4-0.4-1-0.6-1.7-0.6S547.4,209.5,547,210z"/>
		<path class="st2" d="M562.1,208.4v8.7h-1.4v-1.6c-0.3,0.5-0.6,1-1.1,1.2c-0.5,0.3-1.1,0.4-1.8,0.4c-0.8,0-1.4-0.2-2-0.6
			c-0.6-0.4-1-0.9-1.3-1.6c-0.3-0.7-0.5-1.5-0.5-2.3c0-0.9,0.2-1.7,0.5-2.4s0.8-1.2,1.4-1.6c0.6-0.4,1.2-0.6,2-0.6
			c0.7,0,1.3,0.1,1.8,0.4c0.5,0.3,0.9,0.7,1.2,1.3v-1.5h1.2V208.4z M560.1,215.2c0.5-0.6,0.7-1.4,0.7-2.5s-0.2-1.9-0.7-2.5
			s-1.1-0.9-2-0.9c-0.8,0-1.5,0.3-2,0.9c-0.5,0.6-0.7,1.4-0.7,2.5s0.2,1.9,0.7,2.4s1.1,0.9,2,0.9C558.9,216,559.6,215.8,560.1,215.2
			z"/>
		<path class="st2" d="M572.5,204.4v12.7h-1.4v-1.6c-0.3,0.5-0.6,1-1.1,1.2s-1.1,0.4-1.8,0.4c-0.8,0-1.4-0.2-2-0.6
			c-0.6-0.4-1-0.9-1.4-1.6s-0.5-1.5-0.5-2.4s0.2-1.7,0.5-2.3c0.3-0.7,0.8-1.2,1.4-1.6c0.6-0.4,1.3-0.6,2-0.6s1.3,0.1,1.8,0.4
			c0.5,0.3,0.9,0.7,1.1,1.2v-5.5h1.4V204.4z M570.4,215.2c0.5-0.6,0.7-1.4,0.7-2.5s-0.2-1.9-0.7-2.5s-1.1-0.9-2-0.9s-1.5,0.3-2,0.9
			c-0.5,0.6-0.7,1.4-0.7,2.4c0,1.1,0.2,1.9,0.7,2.5s1.1,0.9,2,0.9S569.9,215.8,570.4,215.2z"/>
		<path class="st2" d="M576.7,204.8v1.6H575v-1.6H576.7z M575.2,208.4h1.4v8.7h-1.4V208.4z"/>
		<path class="st2" d="M586.7,211.6v5.4h-1.4v-5.4c0-0.8-0.2-1.4-0.5-1.8s-0.8-0.6-1.5-0.6c-0.8,0-1.4,0.2-1.9,0.7s-0.7,1.2-0.7,2v5
			h-1.4v-6.2c0-0.9,0-1.7-0.1-2.4h1.3l0.1,1.5c0.3-0.6,0.7-1,1.2-1.3s1.1-0.5,1.8-0.5C585.7,208.2,586.7,209.4,586.7,211.6z"/>
		<path class="st2" d="M596.6,212.7h-6.4c0,1.1,0.3,1.9,0.8,2.5s1.2,0.8,2.2,0.8s1.9-0.3,2.8-1l0.5,1c-0.4,0.4-0.9,0.6-1.5,0.8
			s-1.2,0.3-1.8,0.3c-1.4,0-2.4-0.4-3.2-1.2s-1.2-1.9-1.2-3.3c0-0.9,0.2-1.7,0.5-2.3c0.3-0.7,0.8-1.2,1.4-1.6
			c0.6-0.4,1.3-0.6,2.1-0.6c1.1,0,2,0.4,2.7,1.1c0.7,0.8,1,1.8,1,3.1v0.4H596.6z M591.1,210c-0.5,0.4-0.7,1-0.9,1.8h5
			c-0.1-0.8-0.3-1.4-0.7-1.9c-0.4-0.4-1-0.6-1.7-0.6C592.2,209.3,591.6,209.5,591.1,210z"/>
		<path class="st2" d="M598.2,216.1l0.5-1c0.5,0.4,0.9,0.6,1.4,0.8s1,0.2,1.6,0.2c0.7,0,1.2-0.1,1.5-0.3s0.5-0.5,0.5-1
			c0-0.3-0.1-0.6-0.3-0.8s-0.6-0.4-1.1-0.5l-1.5-0.3c-0.7-0.2-1.3-0.4-1.7-0.9c-0.4-0.4-0.6-0.9-0.6-1.5c0-0.8,0.3-1.4,0.9-1.9
			c0.6-0.5,1.4-0.7,2.4-0.7c0.6,0,1.2,0.1,1.7,0.3s1,0.5,1.4,0.8l-0.5,1c-0.8-0.7-1.7-1-2.6-1c-0.6,0-1.1,0.1-1.4,0.4
			c-0.3,0.2-0.5,0.6-0.5,1s0.1,0.6,0.3,0.8s0.6,0.4,1,0.5l1.5,0.4c0.8,0.2,1.4,0.5,1.8,0.9s0.6,0.9,0.6,1.5c0,0.7-0.3,1.3-0.9,1.8
			c-0.6,0.4-1.4,0.7-2.5,0.7C600.2,217.2,599,216.8,598.2,216.1z"/>
		<path class="st2" d="M606.7,216.1l0.5-1c0.5,0.4,0.9,0.6,1.4,0.8s1,0.2,1.6,0.2c0.7,0,1.2-0.1,1.5-0.3s0.5-0.5,0.5-1
			c0-0.3-0.1-0.6-0.3-0.8s-0.6-0.4-1.1-0.5l-1.5-0.3c-0.7-0.2-1.3-0.4-1.7-0.9s-0.6-0.9-0.6-1.5c0-0.8,0.3-1.4,0.9-1.9
			s1.4-0.7,2.4-0.7c0.6,0,1.2,0.1,1.7,0.3s1,0.5,1.4,0.8l-0.5,1c-0.8-0.7-1.7-1-2.6-1c-0.6,0-1.1,0.1-1.4,0.4
			c-0.3,0.2-0.5,0.6-0.5,1s0.1,0.6,0.3,0.8s0.6,0.4,1,0.5l1.5,0.4c0.8,0.2,1.4,0.5,1.8,0.9c0.4,0.4,0.6,0.9,0.6,1.5
			c0,0.7-0.3,1.3-0.9,1.8s-1.4,0.7-2.5,0.7C608.7,217.2,607.5,216.8,606.7,216.1z"/>
	</g>
	<g class="st4">
		<path class="st2" d="M534.1,234.6h-6.4l-1.4,3.2h-1.5l5.4-12.3h1.2l5.4,12.3h-1.4L534.1,234.6z M533.6,233.5l-2.7-6.3l-2.7,6.3
			H533.6z"/>
		<path class="st2" d="M537.9,236.8l0.5-1c0.5,0.4,0.9,0.6,1.4,0.8s1,0.2,1.6,0.2c0.7,0,1.2-0.1,1.5-0.3s0.5-0.5,0.5-1
			c0-0.3-0.1-0.6-0.3-0.8s-0.6-0.4-1.1-0.5l-1.5-0.3c-0.7-0.2-1.3-0.4-1.7-0.9c-0.4-0.4-0.6-0.9-0.6-1.5c0-0.8,0.3-1.4,0.9-1.9
			s1.4-0.7,2.4-0.7c0.6,0,1.2,0.1,1.7,0.3s1,0.5,1.4,0.8l-0.5,1c-0.8-0.7-1.7-1-2.6-1c-0.6,0-1.1,0.1-1.4,0.4
			c-0.3,0.2-0.5,0.6-0.5,1s0.1,0.6,0.3,0.8s0.6,0.4,1,0.5l1.5,0.4c0.8,0.2,1.4,0.5,1.8,0.9c0.4,0.4,0.6,0.9,0.6,1.5
			c0,0.7-0.3,1.3-0.9,1.8c-0.6,0.4-1.4,0.7-2.5,0.7C539.9,237.9,538.8,237.5,537.9,236.8z"/>
		<path class="st2" d="M546.4,236.8l0.5-1c0.5,0.4,0.9,0.6,1.4,0.8s1,0.2,1.6,0.2c0.7,0,1.2-0.1,1.5-0.3s0.5-0.5,0.5-1
			c0-0.3-0.1-0.6-0.3-0.8s-0.6-0.4-1.1-0.5l-1.5-0.3c-0.7-0.2-1.3-0.4-1.7-0.9c-0.4-0.4-0.6-0.9-0.6-1.5c0-0.8,0.3-1.4,0.9-1.9
			s1.4-0.7,2.4-0.7c0.6,0,1.2,0.1,1.7,0.3s1,0.5,1.4,0.8l-0.5,1c-0.8-0.7-1.7-1-2.6-1c-0.6,0-1.1,0.1-1.4,0.4
			c-0.3,0.2-0.5,0.6-0.5,1s0.1,0.6,0.3,0.8s0.6,0.4,1,0.5l1.5,0.4c0.8,0.2,1.4,0.5,1.8,0.9c0.4,0.4,0.6,0.9,0.6,1.5
			c0,0.7-0.3,1.3-0.9,1.8s-1.4,0.7-2.5,0.7C548.4,237.9,547.3,237.5,546.4,236.8z"/>
		<path class="st2" d="M562.8,233.4h-6.4c0,1.1,0.3,1.9,0.8,2.5s1.2,0.8,2.2,0.8s1.9-0.3,2.8-1l0.5,1c-0.4,0.4-0.9,0.6-1.5,0.8
			s-1.2,0.3-1.8,0.3c-1.4,0-2.4-0.4-3.2-1.2s-1.2-1.9-1.2-3.3c0-0.9,0.2-1.7,0.5-2.3c0.3-0.7,0.8-1.2,1.4-1.6
			c0.6-0.4,1.3-0.6,2.1-0.6c1.1,0,2,0.4,2.7,1.1c0.7,0.8,1,1.8,1,3.1v0.4H562.8z M557.3,230.7c-0.5,0.4-0.7,1-0.9,1.8h5
			c-0.1-0.8-0.3-1.4-0.7-1.9c-0.4-0.4-1-0.6-1.7-0.6C558.4,230,557.8,230.2,557.3,230.7z"/>
		<path class="st2" d="M564.3,236.8l0.5-1c0.5,0.4,0.9,0.6,1.4,0.8s1,0.2,1.6,0.2c0.7,0,1.2-0.1,1.5-0.3s0.5-0.5,0.5-1
			c0-0.3-0.1-0.6-0.3-0.8s-0.6-0.4-1.1-0.5l-1.5-0.3c-0.7-0.2-1.3-0.4-1.7-0.9c-0.4-0.4-0.6-0.9-0.6-1.5c0-0.8,0.3-1.4,0.9-1.9
			s1.4-0.7,2.4-0.7c0.6,0,1.2,0.1,1.7,0.3s1,0.5,1.4,0.8l-0.5,1c-0.8-0.7-1.7-1-2.6-1c-0.6,0-1.1,0.1-1.4,0.4
			c-0.3,0.2-0.5,0.6-0.5,1s0.1,0.6,0.3,0.8s0.6,0.4,1,0.5l1.5,0.4c0.8,0.2,1.4,0.5,1.8,0.9c0.4,0.4,0.6,0.9,0.6,1.5
			c0,0.7-0.3,1.3-0.9,1.8s-1.4,0.7-2.5,0.7C566.3,237.9,565.2,237.5,564.3,236.8z"/>
		<path class="st2" d="M572.9,236.8l0.5-1c0.5,0.4,0.9,0.6,1.4,0.8s1,0.2,1.6,0.2c0.7,0,1.2-0.1,1.5-0.3s0.5-0.5,0.5-1
			c0-0.3-0.1-0.6-0.3-0.8s-0.6-0.4-1.1-0.5l-1.5-0.3c-0.7-0.2-1.3-0.4-1.7-0.9c-0.4-0.4-0.6-0.9-0.6-1.5c0-0.8,0.3-1.4,0.9-1.9
			s1.4-0.7,2.4-0.7c0.6,0,1.2,0.1,1.7,0.3s1,0.5,1.4,0.8l-0.5,1c-0.8-0.7-1.7-1-2.6-1c-0.6,0-1.1,0.1-1.4,0.4
			c-0.3,0.2-0.5,0.6-0.5,1s0.1,0.6,0.3,0.8s0.6,0.4,1,0.5l1.5,0.4c0.8,0.2,1.4,0.5,1.8,0.9c0.4,0.4,0.6,0.9,0.6,1.5
			c0,0.7-0.3,1.3-0.9,1.8c-0.6,0.4-1.4,0.7-2.5,0.7C574.9,237.9,573.7,237.5,572.9,236.8z"/>
		<path class="st2" d="M594.4,232.3v5.4H593v-5.4c0-0.8-0.1-1.4-0.4-1.8s-0.7-0.6-1.4-0.6s-1.3,0.2-1.7,0.7s-0.6,1.2-0.6,2v4.9h-1.4
			v-5.4c0-0.8-0.1-1.4-0.4-1.8c-0.3-0.4-0.7-0.6-1.4-0.6s-1.3,0.2-1.7,0.7s-0.6,1.2-0.6,2v4.9H582v-6.2c0-0.9,0-1.7-0.1-2.4h1.3
			l0.1,1.5c0.2-0.6,0.6-1,1.1-1.3s1-0.4,1.7-0.4s1.2,0.1,1.7,0.4c0.4,0.3,0.8,0.7,1,1.3c0.3-0.5,0.7-0.9,1.2-1.2s1.1-0.5,1.7-0.5
			C593.5,228.9,594.4,230.1,594.4,232.3z"/>
		<path class="st2" d="M604.3,233.4H598c0,1.1,0.3,1.9,0.8,2.5s1.2,0.8,2.2,0.8s1.9-0.3,2.8-1l0.5,1c-0.4,0.4-0.9,0.6-1.5,0.8
			s-1.2,0.3-1.8,0.3c-1.4,0-2.4-0.4-3.2-1.2s-1.2-1.9-1.2-3.3c0-0.9,0.2-1.7,0.5-2.3c0.3-0.7,0.8-1.2,1.4-1.6
			c0.6-0.4,1.3-0.6,2.1-0.6c1.1,0,2,0.4,2.7,1.1c0.7,0.8,1,1.8,1,3.1V233.4z M598.9,230.7c-0.5,0.4-0.7,1-0.9,1.8h5
			c-0.1-0.8-0.3-1.4-0.7-1.9c-0.4-0.4-1-0.6-1.7-0.6C599.9,230,599.4,230.2,598.9,230.7z"/>
		<path class="st2" d="M613.9,232.3v5.4h-1.4v-5.4c0-0.8-0.2-1.4-0.5-1.8s-0.8-0.6-1.5-0.6c-0.8,0-1.4,0.2-1.9,0.7s-0.7,1.2-0.7,2v5
			h-1.4v-6.2c0-0.9,0-1.7-0.1-2.4h1.3l0.1,1.5c0.3-0.6,0.7-1,1.2-1.3s1.1-0.5,1.8-0.5C612.9,228.9,613.9,230.1,613.9,232.3z"/>
		<path class="st2" d="M618.4,230.2v4.7c0,0.6,0.1,1.1,0.4,1.4c0.3,0.3,0.6,0.4,1.1,0.4c0.3,0,0.6-0.1,0.9-0.2v1.2
			c-0.4,0.1-0.8,0.2-1.2,0.2c-0.8,0-1.5-0.2-1.9-0.7s-0.7-1.2-0.7-2.1v-4.9h-1.7v-1.1h1.7v-2.2l1.4-0.5v2.7h2.5v1.1L618.4,230.2
			L618.4,230.2z"/>
	</g>
	<rect x="356.2" y="17.5" class="st5" width="125.6" height="40.1"/>
	<g class="st4">
		<path class="st3" d="M372.6,19.9h4.9c1.3,0,2.2,0.3,3,0.9s1.1,1.4,1.1,2.5s-0.4,1.9-1.1,2.5s-1.7,0.9-2.9,0.9H374v5.4h-1.4V19.9z
			 M377.3,25.6c0.9,0,1.6-0.2,2-0.6c0.5-0.4,0.7-1,0.7-1.7s-0.2-1.3-0.7-1.7s-1.1-0.6-2-0.6H374v4.5h3.3V25.6z"/>
		<path class="st3" d="M391,23.5v8.7h-1.4v-1.6c-0.3,0.5-0.6,1-1.1,1.2c-0.5,0.3-1.1,0.4-1.8,0.4c-0.8,0-1.4-0.2-2-0.6
			s-1-0.9-1.3-1.6s-0.5-1.5-0.5-2.3c0-0.9,0.2-1.7,0.5-2.4c0.3-0.7,0.8-1.2,1.4-1.6s1.2-0.6,2-0.6c0.7,0,1.3,0.1,1.8,0.4
			s0.9,0.7,1.2,1.3v-1.5h1.2V23.5z M388.9,30.3c0.5-0.6,0.7-1.4,0.7-2.5s-0.2-1.9-0.7-2.5s-1.1-0.9-2-0.9s-1.5,0.3-2,0.9
			s-0.7,1.4-0.7,2.5s0.2,1.9,0.7,2.4s1.1,0.9,2,0.9C387.8,31.2,388.4,30.9,388.9,30.3z"/>
		<path class="st3" d="M398.5,23.4v1.3c-0.3-0.1-0.6-0.1-0.9-0.1c-0.8,0-1.5,0.3-1.9,0.8s-0.6,1.2-0.6,1.9v4.9h-1.4V26
			c0-0.9,0-1.7-0.1-2.4h1.3l0.1,1.6c0.2-0.6,0.6-1,1-1.3c0.5-0.3,1-0.5,1.7-0.5C398,23.3,398.2,23.4,398.5,23.4z"/>
		<path class="st3" d="M402.4,24.6v4.7c0,0.6,0.1,1.1,0.4,1.4s0.6,0.4,1.1,0.4c0.3,0,0.6-0.1,0.9-0.2v1.2c-0.4,0.1-0.8,0.2-1.2,0.2
			c-0.8,0-1.5-0.2-1.9-0.7s-0.7-1.2-0.7-2.1v-4.9h-1.7v-1.1h1.7v-2.2l1.4-0.5v2.7h2.5v1.1C404.9,24.6,402.4,24.6,402.4,24.6z"/>
		<path class="st3" d="M414,26.8v5.4h-1.4v-5.4c0-0.8-0.2-1.4-0.5-1.8s-0.8-0.6-1.5-0.6c-0.8,0-1.4,0.2-1.9,0.7s-0.7,1.2-0.7,2v5
			h-1.4V26c0-0.9,0-1.7-0.1-2.4h1.3l0.1,1.5c0.3-0.6,0.7-1,1.2-1.3s1.1-0.5,1.8-0.5C413,23.3,414,24.5,414,26.8z"/>
		<path class="st3" d="M423.9,27.8h-6.4c0,1.1,0.3,1.9,0.8,2.5s1.2,0.8,2.2,0.8s1.9-0.3,2.8-1l0.5,1c-0.4,0.4-0.9,0.6-1.5,0.8
			c-0.6,0.2-1.2,0.3-1.8,0.3c-1.4,0-2.4-0.4-3.2-1.2c-0.8-0.8-1.2-1.9-1.2-3.3c0-0.9,0.2-1.7,0.5-2.3c0.3-0.7,0.8-1.2,1.4-1.6
			s1.3-0.6,2.1-0.6c1.1,0,2,0.4,2.7,1.1s1,1.8,1,3.1v0.4H423.9z M418.5,25.1c-0.5,0.4-0.7,1-0.9,1.8h5c-0.1-0.8-0.3-1.4-0.7-1.9
			c-0.4-0.4-1-0.6-1.7-0.6S418.9,24.6,418.5,25.1z"/>
		<path class="st3" d="M430.8,23.4v1.3c-0.3-0.1-0.6-0.1-0.9-0.1c-0.8,0-1.5,0.3-1.9,0.8s-0.6,1.2-0.6,1.9v4.9H426V26
			c0-0.9,0-1.7-0.1-2.4h1.3l0.1,1.6c0.2-0.6,0.6-1,1-1.3c0.5-0.3,1-0.5,1.7-0.5C430.3,23.3,430.6,23.4,430.8,23.4z"/>
		<path class="st3" d="M431.6,31.2l0.5-1c0.5,0.4,0.9,0.6,1.4,0.8c0.5,0.2,1,0.2,1.6,0.2c0.7,0,1.2-0.1,1.5-0.3
			c0.3-0.2,0.5-0.5,0.5-1c0-0.3-0.1-0.6-0.3-0.8c-0.2-0.2-0.6-0.4-1.1-0.5l-1.5-0.3c-0.7-0.2-1.3-0.4-1.7-0.9
			c-0.4-0.4-0.6-0.9-0.6-1.5c0-0.8,0.3-1.4,0.9-1.9s1.4-0.7,2.4-0.7c0.6,0,1.2,0.1,1.7,0.3s1,0.5,1.4,0.8l-0.5,1
			c-0.8-0.7-1.7-1-2.6-1c-0.6,0-1.1,0.1-1.4,0.4c-0.3,0.2-0.5,0.6-0.5,1s0.1,0.6,0.3,0.8c0.2,0.2,0.6,0.4,1,0.5l1.5,0.4
			c0.8,0.2,1.4,0.5,1.8,0.9s0.6,0.9,0.6,1.5c0,0.7-0.3,1.3-0.9,1.8c-0.6,0.5-1.4,0.7-2.5,0.7C433.6,32.3,432.5,32,431.6,31.2z"/>
		<path class="st3" d="M448.1,26.8v5.4h-1.4v-5.4c0-0.8-0.2-1.4-0.5-1.8s-0.8-0.6-1.5-0.6c-0.8,0-1.4,0.2-1.9,0.7s-0.7,1.2-0.7,2v5
			h-1.4V19.5h1.4V25c0.3-0.5,0.7-0.9,1.2-1.2c0.5-0.3,1.1-0.4,1.7-0.4C447.1,23.3,448.1,24.5,448.1,26.8z"/>
		<path class="st3" d="M452.3,19.9v1.6h-1.7v-1.6H452.3z M450.8,23.5h1.4v8.7h-1.4V23.5z"/>
		<path class="st3" d="M461.2,23.9c0.6,0.4,1,0.9,1.4,1.6c0.3,0.7,0.5,1.5,0.5,2.4s-0.2,1.7-0.5,2.3c-0.3,0.7-0.8,1.2-1.4,1.6
			c-0.6,0.4-1.3,0.6-2,0.6s-1.3-0.1-1.8-0.4c-0.5-0.3-0.9-0.7-1.2-1.3V36h-1.4V26c0-0.9,0-1.7-0.1-2.4h1.3l0.1,1.7
			c0.2-0.6,0.6-1.1,1.1-1.4s1.1-0.5,1.9-0.5C460,23.3,460.6,23.5,461.2,23.9z M460.9,30.3c0.5-0.6,0.7-1.4,0.7-2.4s-0.2-1.9-0.7-2.5
			s-1.1-0.9-2-0.9s-1.5,0.3-2,0.9s-0.7,1.4-0.7,2.5s0.2,1.9,0.7,2.5s1.1,0.9,2,0.9C459.8,31.2,460.4,30.9,460.9,30.3z"/>
	</g>
	<g class="st4">
		<path class="st3" d="M362.1,40.6h7.7v1.2h-6.4v4.3h6v1.2h-6v4.5h6.4V53h-7.7V40.6z"/>
		<path class="st3" d="M371.5,51.9l0.5-1c0.5,0.4,0.9,0.6,1.4,0.8s1,0.2,1.6,0.2c0.7,0,1.2-0.1,1.5-0.3s0.5-0.5,0.5-1
			c0-0.3-0.1-0.6-0.3-0.8c-0.2-0.2-0.6-0.4-1.1-0.5l-1.5-0.3c-0.7-0.2-1.3-0.4-1.7-0.9c-0.4-0.4-0.6-0.9-0.6-1.5
			c0-0.8,0.3-1.4,0.9-1.9s1.4-0.7,2.4-0.7c0.6,0,1.2,0.1,1.7,0.3s1,0.5,1.4,0.8l-0.5,1c-0.8-0.7-1.7-1-2.6-1c-0.6,0-1.1,0.1-1.4,0.4
			c-0.3,0.2-0.5,0.6-0.5,1s0.1,0.6,0.3,0.8c0.2,0.2,0.6,0.4,1,0.5l1.5,0.4c0.8,0.2,1.4,0.5,1.8,0.9s0.6,0.9,0.6,1.5
			c0,0.7-0.3,1.3-0.9,1.8c-0.6,0.4-1.4,0.7-2.5,0.7C373.5,53,372.3,52.7,371.5,51.9z"/>
		<path class="st3" d="M382.3,45.3V50c0,0.6,0.1,1.1,0.4,1.4c0.3,0.3,0.6,0.4,1.1,0.4c0.3,0,0.6-0.1,0.9-0.2v1.2
			c-0.4,0.1-0.8,0.2-1.2,0.2c-0.8,0-1.5-0.2-1.9-0.7s-0.7-1.2-0.7-2.1v-4.9h-1.7v-1.1h1.7V42l1.4-0.5v2.7h2.5v1.1H382.3z"/>
		<path class="st3" d="M394.1,44.2v8.7h-1.4v-1.6c-0.3,0.5-0.6,1-1.1,1.2s-1.1,0.4-1.8,0.4c-0.8,0-1.4-0.2-2-0.6
			c-0.6-0.4-1-0.9-1.3-1.6c-0.3-0.7-0.5-1.5-0.5-2.3c0-0.9,0.2-1.7,0.5-2.4s0.8-1.2,1.4-1.6c0.6-0.4,1.2-0.6,2-0.6
			c0.7,0,1.3,0.1,1.8,0.4c0.5,0.3,0.9,0.7,1.2,1.3V44h1.2V44.2z M392.1,51c0.5-0.6,0.7-1.4,0.7-2.5s-0.2-1.9-0.7-2.5s-1.1-0.9-2-0.9
			c-0.8,0-1.5,0.3-2,0.9c-0.5,0.6-0.7,1.4-0.7,2.5s0.2,1.9,0.7,2.4c0.5,0.6,1.1,0.9,2,0.9C390.9,51.9,391.6,51.6,392.1,51z"/>
		<path class="st3" d="M403.2,44.6c0.6,0.4,1,0.9,1.4,1.6c0.3,0.7,0.5,1.5,0.5,2.3s-0.2,1.7-0.5,2.4s-0.8,1.2-1.4,1.6
			c-0.6,0.4-1.3,0.6-2,0.6s-1.3-0.1-1.8-0.4c-0.5-0.3-0.9-0.7-1.2-1.3V53h-1.4V40.2h1.4v5.5c0.3-0.6,0.6-1,1.1-1.3s1.1-0.4,1.8-0.4
			C401.9,44,402.6,44.2,403.2,44.6z M402.9,51c0.5-0.6,0.7-1.4,0.7-2.5c0-1-0.2-1.9-0.7-2.4c-0.5-0.6-1.1-0.9-2-0.9s-1.5,0.3-2,0.9
			c-0.5,0.6-0.7,1.4-0.7,2.5s0.2,1.9,0.7,2.5s1.1,0.9,2,0.9C401.7,51.9,402.4,51.6,402.9,51z"/>
		<path class="st3" d="M407.2,40.2h1.4v12.7h-1.4V40.2z"/>
		<path class="st3" d="M412.8,40.6v1.6h-1.7v-1.6H412.8z M411.3,44.2h1.4v8.7h-1.4V44.2z"/>
		<path class="st3" d="M414.8,51.9l0.5-1c0.5,0.4,0.9,0.6,1.4,0.8s1,0.2,1.6,0.2c0.7,0,1.2-0.1,1.5-0.3s0.5-0.5,0.5-1
			c0-0.3-0.1-0.6-0.3-0.8c-0.2-0.2-0.6-0.4-1.1-0.5l-1.5-0.3c-0.7-0.2-1.3-0.4-1.7-0.9c-0.4-0.4-0.6-0.9-0.6-1.5
			c0-0.8,0.3-1.4,0.9-1.9s1.4-0.7,2.4-0.7c0.6,0,1.2,0.1,1.7,0.3s1,0.5,1.4,0.8l-0.5,1c-0.8-0.7-1.7-1-2.6-1c-0.6,0-1.1,0.1-1.4,0.4
			c-0.3,0.2-0.5,0.6-0.5,1s0.1,0.6,0.3,0.8c0.2,0.2,0.6,0.4,1,0.5l1.5,0.4c0.8,0.2,1.4,0.5,1.8,0.9s0.6,0.9,0.6,1.5
			c0,0.7-0.3,1.3-0.9,1.8s-1.4,0.7-2.5,0.7C416.8,53,415.7,52.7,414.8,51.9z"/>
		<path class="st3" d="M431.3,47.5v5.4h-1.4v-5.4c0-0.8-0.2-1.4-0.5-1.8s-0.8-0.6-1.5-0.6c-0.8,0-1.4,0.2-1.9,0.7s-0.7,1.2-0.7,2v5
			h-1.4V40.2h1.4v5.4c0.3-0.5,0.7-0.9,1.2-1.2s1.1-0.4,1.7-0.4C430.3,44,431.3,45.2,431.3,47.5z"/>
		<path class="st3" d="M446.4,47.5v5.4H445v-5.4c0-0.8-0.1-1.4-0.4-1.8c-0.3-0.4-0.7-0.6-1.4-0.6c-0.7,0-1.3,0.2-1.7,0.7
			c-0.4,0.5-0.6,1.2-0.6,2v4.9h-1.4v-5.4c0-0.8-0.1-1.4-0.4-1.8s-0.7-0.6-1.4-0.6c-0.7,0-1.3,0.2-1.7,0.7c-0.4,0.5-0.6,1.2-0.6,2
			v4.9H434v-6.2c0-0.9,0-1.7-0.1-2.4h1.3l0.1,1.5c0.2-0.6,0.6-1,1.1-1.3s1-0.4,1.7-0.4s1.3,0.1,1.7,0.4c0.4,0.3,0.8,0.7,1,1.3
			c0.3-0.5,0.7-0.9,1.2-1.2s1.1-0.5,1.7-0.5C445.5,44,446.4,45.2,446.4,47.5z"/>
		<path class="st3" d="M456.3,48.5H450c0,1.1,0.3,1.9,0.8,2.5s1.2,0.8,2.2,0.8s1.9-0.3,2.8-1l0.5,1c-0.4,0.4-0.9,0.6-1.5,0.8
			s-1.2,0.3-1.8,0.3c-1.4,0-2.4-0.4-3.2-1.2c-0.8-0.8-1.2-1.9-1.2-3.3c0-0.9,0.2-1.7,0.5-2.3c0.3-0.7,0.8-1.2,1.4-1.6
			c0.6-0.4,1.3-0.6,2.1-0.6c1.1,0,2,0.4,2.7,1.1c0.7,0.8,1,1.8,1,3.1V48.5z M450.9,45.8c-0.5,0.4-0.7,1-0.9,1.8h5
			c-0.1-0.8-0.3-1.4-0.7-1.9c-0.4-0.4-1-0.6-1.7-0.6C452,45.1,451.4,45.3,450.9,45.8z"/>
		<path class="st3" d="M465.9,47.5v5.4h-1.4v-5.4c0-0.8-0.2-1.4-0.5-1.8s-0.8-0.6-1.5-0.6c-0.8,0-1.4,0.2-1.9,0.7s-0.7,1.2-0.7,2v5
			h-1.4v-6.2c0-0.9,0-1.7-0.1-2.4h1.3l0.1,1.5c0.3-0.6,0.7-1,1.2-1.3s1.1-0.5,1.8-0.5C464.9,44,465.9,45.2,465.9,47.5z"/>
		<path class="st3" d="M470.4,45.3V50c0,0.6,0.1,1.1,0.4,1.4c0.3,0.3,0.6,0.4,1.1,0.4c0.3,0,0.6-0.1,0.9-0.2v1.2
			c-0.4,0.1-0.8,0.2-1.2,0.2c-0.8,0-1.5-0.2-1.9-0.7s-0.7-1.2-0.7-2.1v-4.9h-1.7v-1.1h1.7V42l1.4-0.5v2.7h2.5v1.1H470.4z"/>
	</g>
	<rect x="350.7" y="202.4" class="st5" width="136.7" height="40.1"/>
	<g class="st4">
		<path class="st2" d="M379.7,204.8h7.6v1.2h-6.2v4.3h5.8v1.2h-5.8v5.6h-1.4V204.8z"/>
		<path class="st2" d="M396.3,212.7h-6.4c0,1.1,0.3,1.9,0.8,2.5s1.2,0.8,2.2,0.8s1.9-0.3,2.8-1l0.5,1c-0.4,0.4-0.9,0.6-1.5,0.8
			s-1.2,0.3-1.8,0.3c-1.4,0-2.4-0.4-3.2-1.2c-0.8-0.8-1.2-1.9-1.2-3.3c0-0.9,0.2-1.7,0.5-2.3c0.3-0.7,0.8-1.2,1.4-1.6
			c0.6-0.4,1.3-0.6,2.1-0.6c1.1,0,2,0.4,2.7,1.1s1,1.8,1,3.1v0.4H396.3z M390.8,210c-0.5,0.4-0.7,1-0.9,1.8h5
			c-0.1-0.8-0.3-1.4-0.7-1.9c-0.4-0.4-1-0.6-1.7-0.6S391.3,209.5,390.8,210z"/>
		<path class="st2" d="M406,204.4v12.7h-1.4v-1.6c-0.3,0.5-0.6,1-1.1,1.2c-0.5,0.3-1.1,0.4-1.8,0.4c-0.8,0-1.4-0.2-2-0.6
			c-0.6-0.4-1-0.9-1.4-1.6c-0.3-0.7-0.5-1.5-0.5-2.4s0.2-1.7,0.5-2.3c0.3-0.7,0.8-1.2,1.4-1.6s1.3-0.6,2-0.6s1.3,0.1,1.8,0.4
			s0.9,0.7,1.1,1.2v-5.5h1.4V204.4z M403.9,215.2c0.5-0.6,0.7-1.4,0.7-2.5s-0.2-1.9-0.7-2.5s-1.1-0.9-2-0.9c-0.8,0-1.5,0.3-2,0.9
			c-0.5,0.6-0.7,1.4-0.7,2.4c0,1.1,0.2,1.9,0.7,2.5s1.1,0.9,2,0.9C402.8,216.1,403.5,215.8,403.9,215.2z"/>
		<path class="st2" d="M418.5,217.1H417l-1.5-4.1c-0.2-0.5-0.4-0.8-0.8-1s-0.8-0.3-1.4-0.3h-3.1v5.4h-1.4v-12.3h4.9
			c1.3,0,2.3,0.3,3,0.9c0.7,0.6,1.1,1.4,1.1,2.5c0,0.8-0.2,1.5-0.6,2s-1,0.9-1.8,1.2c0.4,0.1,0.7,0.2,0.9,0.5
			c0.3,0.2,0.5,0.6,0.6,1.1L418.5,217.1z M413.6,210.6c1.9,0,2.8-0.8,2.8-2.3c0-0.8-0.2-1.3-0.7-1.7s-1.2-0.6-2.1-0.6h-3.4v4.6
			H413.6z"/>
		<path class="st2" d="M428.7,213.9h-6.4l-1.4,3.2h-1.5l5.4-12.3h1.2l5.4,12.3H430L428.7,213.9z M428.2,212.8l-2.7-6.3l-2.7,6.3
			H428.2z"/>
		<path class="st2" d="M444.9,204.8v12.3h-1.3V208l-4,9.1h-1l-4-9v9h-1.3v-12.3h1.2l4.6,10.6l4.6-10.6H444.9z"/>
		<path class="st2" d="M448,204.8h4.9c1.3,0,2.2,0.3,3,0.9c0.7,0.6,1.1,1.4,1.1,2.5s-0.4,1.9-1.1,2.5s-1.7,0.9-2.9,0.9h-3.5v5.4H448
			V204.8z M452.7,210.5c0.9,0,1.6-0.2,2-0.6c0.5-0.4,0.7-1,0.7-1.7s-0.2-1.3-0.7-1.7s-1.1-0.6-2-0.6h-3.4v4.5h3.4V210.5z"/>
	</g>
	<g class="st4">
		<path class="st2" d="M388.9,237.2c-0.9-0.5-1.5-1.2-2-2.2c-0.5-0.9-0.7-2.1-0.7-3.3s0.2-2.4,0.7-3.3s1.1-1.7,2-2.2s1.9-0.8,3-0.8
			c0.8,0,1.6,0.1,2.3,0.4c0.7,0.3,1.3,0.6,1.8,1.2l-0.5,1.1c-0.6-0.5-1.2-0.9-1.7-1.1c-0.6-0.2-1.2-0.3-1.9-0.3
			c-1.3,0-2.4,0.4-3.1,1.3s-1.1,2.1-1.1,3.7c0,1.6,0.4,2.9,1.1,3.7s1.8,1.3,3.1,1.3c0.7,0,1.3-0.1,1.9-0.3s1.1-0.6,1.7-1.1l0.5,1.1
			c-0.5,0.5-1.1,0.9-1.8,1.2c-0.7,0.3-1.5,0.4-2.3,0.4C390.7,237.9,389.7,237.7,388.9,237.2z"/>
		<path class="st2" d="M399.5,237.4c-0.6-0.4-1.1-0.9-1.4-1.6c-0.3-0.7-0.5-1.5-0.5-2.4s0.2-1.7,0.5-2.4s0.8-1.2,1.4-1.6
			c0.6-0.4,1.3-0.6,2.2-0.6s1.5,0.2,2.2,0.6s1.1,0.9,1.4,1.6c0.3,0.7,0.5,1.5,0.5,2.4s-0.2,1.7-0.5,2.4s-0.8,1.2-1.4,1.6
			c-0.6,0.4-1.3,0.6-2.2,0.6S400.2,237.7,399.5,237.4z M403.7,235.9c0.5-0.6,0.7-1.4,0.7-2.5s-0.2-1.9-0.7-2.5s-1.1-0.9-2-0.9
			c-0.8,0-1.5,0.3-2,0.9c-0.5,0.6-0.7,1.4-0.7,2.5s0.2,1.9,0.7,2.5s1.1,0.9,2,0.9S403.2,236.5,403.7,235.9z"/>
		<path class="st2" d="M415.4,232.4v5.4H414v-5.4c0-0.8-0.2-1.4-0.5-1.8c-0.3-0.4-0.8-0.6-1.5-0.6c-0.8,0-1.4,0.2-1.9,0.7
			s-0.7,1.2-0.7,2v5H408v-6.2c0-0.9,0-1.7-0.1-2.4h1.3l0.1,1.5c0.3-0.6,0.7-1,1.2-1.3s1.1-0.5,1.8-0.5
			C414.3,228.9,415.4,230.1,415.4,232.4z"/>
		<path class="st2" d="M425.5,232.4v5.4h-1.4v-5.4c0-0.8-0.2-1.4-0.5-1.8s-0.8-0.6-1.5-0.6c-0.8,0-1.4,0.2-1.9,0.7s-0.7,1.2-0.7,2v5
			H418v-6.2c0-0.9,0-1.7-0.1-2.4h1.3l0.1,1.5c0.3-0.6,0.7-1,1.2-1.3s1.1-0.5,1.8-0.5C424.4,228.9,425.5,230.1,425.5,232.4z"/>
		<path class="st2" d="M435.3,233.4H429c0,1.1,0.3,1.9,0.8,2.5s1.2,0.8,2.2,0.8s1.9-0.3,2.8-1l0.5,1c-0.4,0.4-0.9,0.6-1.5,0.8
			s-1.2,0.3-1.8,0.3c-1.4,0-2.4-0.4-3.2-1.2c-0.8-0.8-1.2-1.9-1.2-3.3c0-0.9,0.2-1.7,0.5-2.3c0.3-0.7,0.8-1.2,1.4-1.6
			c0.6-0.4,1.3-0.6,2.1-0.6c1.1,0,2,0.4,2.7,1.1c0.7,0.8,1,1.8,1,3.1V233.4z M429.9,230.7c-0.5,0.4-0.7,1-0.9,1.8h5
			c-0.1-0.8-0.3-1.4-0.7-1.9c-0.4-0.4-1-0.6-1.7-0.6C431,230,430.4,230.2,429.9,230.7z"/>
		<path class="st2" d="M438.9,237.4c-0.6-0.4-1.1-0.9-1.4-1.6c-0.3-0.7-0.5-1.5-0.5-2.3c0-0.9,0.2-1.7,0.5-2.4s0.8-1.2,1.5-1.6
			c0.6-0.4,1.4-0.6,2.2-0.6c0.6,0,1.2,0.1,1.7,0.3s1,0.5,1.4,0.8l-0.5,1c-0.4-0.3-0.9-0.6-1.3-0.8s-0.8-0.2-1.2-0.2
			c-0.9,0-1.6,0.3-2.1,0.9c-0.5,0.6-0.8,1.4-0.8,2.5c0,1,0.2,1.9,0.7,2.4c0.5,0.6,1.2,0.9,2.1,0.9c0.4,0,0.8-0.1,1.2-0.2
			c0.4-0.2,0.8-0.4,1.3-0.8l0.5,1c-0.4,0.3-0.8,0.6-1.4,0.8s-1.1,0.3-1.7,0.3C440.3,237.9,439.5,237.7,438.9,237.4z"/>
		<path class="st2" d="M447.9,230.2v4.7c0,0.6,0.1,1.1,0.4,1.4c0.3,0.3,0.6,0.4,1.1,0.4c0.3,0,0.6-0.1,0.9-0.2v1.2
			c-0.4,0.1-0.8,0.2-1.2,0.2c-0.8,0-1.5-0.2-1.9-0.7s-0.7-1.2-0.7-2.1v-4.9h-1.7v-1.1h1.7v-2.2l1.4-0.5v2.7h2.5v1.1L447.9,230.2
			L447.9,230.2z"/>
	</g>
	<rect y="292" class="st7" width="662" height="1"/>
	<g>
		<path class="st0" d="M75.2,17.8l156.3-0.5c11.7,0,21.3,9.5,21.3,21.2V39c0,11.7-9.5,21.3-21.2,21.3L75.4,60.8
			c-11.7,0-21.3-9.5-21.3-21.2v-0.5C54,27.3,63.5,17.8,75.2,17.8z"/>
		<path class="st3" d="M75.4,61.2c-12,0-21.7-9.7-21.7-21.6v-0.5c0-5.8,2.2-11.2,6.2-15.3c4.1-4.1,9.5-6.4,15.3-6.4l156.3-0.5
			c12,0,21.7,9.7,21.7,21.6V39c0,12-9.7,21.7-21.6,21.7L75.4,61.2z M75.2,18.2c-5.6,0-10.8,2.2-14.7,6.1c-3.9,4-6,9.2-6,14.8v0.5
			c0,11.5,9.4,20.8,20.9,20.8l156.2-0.5c11.5,0,20.8-9.4,20.8-20.9v-0.5c0-11.5-9.4-20.8-20.9-20.8L75.2,18.2z"/>
	</g>
	<g>
		<path class="st0" d="M75.2,201l156.3-0.5c11.7,0,21.3,9.5,21.3,21.2v0.5c0,11.7-9.5,21.3-21.2,21.3L75.4,244
			c-11.7,0-21.3-9.5-21.3-21.2v-0.5C54,210.6,63.5,201.1,75.2,201z"/>
		<path class="st2" d="M75.4,244.4c-12,0-21.7-9.7-21.7-21.6v-0.5c0-5.7,2.2-11.2,6.2-15.3c4.1-4.1,9.5-6.4,15.2-6.4h0l156.3-0.5
			c12,0,21.7,9.7,21.7,21.6v0.5c0,12-9.7,21.7-21.6,21.7L75.4,244.4z M75.2,201.4c-5.6,0-10.8,2.2-14.7,6.2c-3.9,4-6.1,9.2-6,14.7
			v0.5c0,11.5,9.4,20.8,20.9,20.8l156.2-0.5c11.5,0,20.8-9.4,20.8-20.9v-0.5c0-11.5-9.4-20.8-20.9-20.8L75.2,201.4z"/>
	</g>
	<g class="st4">
		<path class="st8" d="M99.1,226.6l1.5-1.8c0.6,0.8,1.3,1.3,2.1,1.3c1.1,0,1.6-0.6,1.6-1.9v-5.5h-4.1v-2.1h6.7v7.5
			c0,2.9-1.4,4.3-4.2,4.3C101.3,228.3,99.9,227.7,99.1,226.6z"/>
		<path class="st8" d="M117,225.6h-5.4l-1,2.5h-2.7l5.1-11.5h2.6l5.2,11.5H118L117,225.6z M116.2,223.6l-1.8-4.4l-1.8,4.4H116.2z"/>
		<path class="st8" d="M132.6,224.9c0,2-1.6,3.2-4.6,3.2h-6v-11.5h5.6c2.9,0,4.4,1.2,4.4,3c0,1.2-0.6,2-1.5,2.5
			C131.8,222.5,132.6,223.5,132.6,224.9z M124.7,218.5v2.7h2.7c1.3,0,2-0.5,2-1.4s-0.7-1.4-2-1.4L124.7,218.5L124.7,218.5z
			 M130,224.6c0-1-0.7-1.4-2.1-1.4h-3.1v2.9h3.1C129.2,226,130,225.6,130,224.6z"/>
		<path class="st8" d="M149.4,220.7c0,2.6-1.9,4.2-5,4.2H142v3.2h-2.7v-11.5h5C147.4,216.5,149.4,218.1,149.4,220.7z M146.7,220.7
			c0-1.3-0.8-2-2.5-2H142v4h2.2C145.8,222.7,146.7,222,146.7,220.7z"/>
		<path class="st8" d="M156.6,219.1v2.4c-0.2,0-0.4,0-0.6,0c-1.4,0-2.4,0.8-2.4,2.5v4.2H151v-8.9h2.5v1.2
			C154.2,219.5,155.2,219.1,156.6,219.1z"/>
		<path class="st8" d="M157.4,223.6c0-2.7,2.1-4.6,4.9-4.6c2.8,0,4.9,1.9,4.9,4.6c0,2.7-2,4.6-4.9,4.6
			C159.4,228.2,157.4,226.3,157.4,223.6z M164.5,223.6c0-1.5-1-2.5-2.3-2.5s-2.3,0.9-2.3,2.5c0,1.5,1,2.5,2.3,2.5
			S164.5,225.2,164.5,223.6z"/>
		<path class="st8" d="M168.2,223.6c0-2.7,2.1-4.6,4.9-4.6c1.9,0,3.3,0.8,4,2.3l-2,1.1c-0.5-0.8-1.2-1.2-2-1.2
			c-1.3,0-2.3,0.9-2.3,2.5s1,2.5,2.3,2.5c0.8,0,1.5-0.4,2-1.2l2,1.1c-0.6,1.4-2.1,2.2-4,2.2C170.2,228.2,168.2,226.3,168.2,223.6z"
			/>
		<path class="st8" d="M187.1,224.3h-6.7c0.2,1.1,1.2,1.8,2.5,1.8c0.9,0,1.6-0.3,2.2-0.9l1.4,1.5c-0.8,0.9-2.1,1.4-3.7,1.4
			c-3.1,0-5.1-1.9-5.1-4.6c0-2.7,2-4.6,4.7-4.6c2.6,0,4.6,1.7,4.6,4.6C187.2,223.9,187.1,224.1,187.1,224.3z M180.4,222.8h4.4
			c-0.2-1.1-1-1.8-2.2-1.8S180.6,221.7,180.4,222.8z"/>
		<path class="st8" d="M188,227.2l0.9-1.8c0.8,0.5,2,0.9,3.1,0.9c1.2,0,1.6-0.3,1.6-0.8c0-1.5-5.4,0-5.4-3.5c0-1.7,1.5-2.9,4.1-2.9
			c1.2,0,2.6,0.3,3.4,0.8l-0.9,1.8c-0.9-0.5-1.7-0.7-2.6-0.7c-1.2,0-1.6,0.4-1.6,0.8c0,1.5,5.4,0,5.4,3.5c0,1.6-1.5,2.8-4.2,2.8
			C190.4,228.2,188.9,227.8,188,227.2z"/>
		<path class="st8" d="M196.8,227.2l0.9-1.8c0.8,0.5,2,0.9,3.1,0.9c1.2,0,1.6-0.3,1.6-0.8c0-1.5-5.4,0-5.4-3.5
			c0-1.7,1.5-2.9,4.1-2.9c1.2,0,2.6,0.3,3.4,0.8l-0.9,1.8c-0.9-0.5-1.7-0.7-2.6-0.7c-1.2,0-1.6,0.4-1.6,0.8c0,1.5,5.4,0,5.4,3.5
			c0,1.6-1.5,2.8-4.2,2.8C199.1,228.2,197.6,227.8,196.8,227.2z"/>
	</g>
	<g class="st4">
		<path class="st3" d="M92.3,42.3H87l-1,2.5h-2.7l5.1-11.5H91l5.2,11.5h-2.8L92.3,42.3z M91.5,40.3l-1.8-4.4l-1.8,4.4H91.5z"/>
		<path class="st3" d="M106.2,35.9v7.4c0,3.3-1.8,4.8-5,4.8c-1.7,0-3.3-0.4-4.4-1.2l1-1.8c0.8,0.6,2,1,3.1,1c1.8,0,2.6-0.8,2.6-2.4
			v-0.4c-0.7,0.7-1.6,1.1-2.8,1.1c-2.5,0-4.4-1.7-4.4-4.3s2-4.3,4.4-4.3c1.2,0,2.3,0.4,2.9,1.3V36L106.2,35.9L106.2,35.9z
			 M103.7,40.1c0-1.3-1-2.2-2.3-2.2S99,38.8,99,40.1s1,2.2,2.3,2.2S103.7,41.4,103.7,40.1z"/>
		<path class="st3" d="M117.3,41.1h-6.7c0.2,1.1,1.2,1.8,2.5,1.8c0.9,0,1.6-0.3,2.2-0.9l1.4,1.5c-0.8,0.9-2.1,1.4-3.7,1.4
			c-3.1,0-5.1-1.9-5.1-4.6c0-2.7,2-4.6,4.7-4.6c2.6,0,4.6,1.7,4.6,4.6C117.3,40.6,117.3,40.9,117.3,41.1z M110.5,39.6h4.4
			c-0.2-1.1-1-1.8-2.2-1.8C111.6,37.8,110.7,38.5,110.5,39.6z"/>
		<path class="st3" d="M128.1,39.7v5.1h-2.6v-4.7c0-1.4-0.7-2.1-1.8-2.1c-1.2,0-2.1,0.8-2.1,2.4v4.4H119v-8.9h2.5v1
			c0.7-0.8,1.7-1.2,2.9-1.2C126.5,35.8,128.1,37,128.1,39.7z"/>
		<path class="st3" d="M129.9,40.4c0-2.7,2.1-4.6,4.9-4.6c1.9,0,3.3,0.8,4,2.3l-2,1.1c-0.5-0.8-1.2-1.2-2-1.2
			c-1.3,0-2.3,0.9-2.3,2.5s1,2.5,2.3,2.5c0.8,0,1.5-0.4,2-1.2l2,1.1c-0.6,1.4-2.1,2.2-4,2.2C132,44.9,129.9,43,129.9,40.4z"/>
		<path class="st3" d="M149,35.9l-4,9.4c-0.9,2.1-2.1,2.8-3.7,2.8c-0.9,0-1.9-0.3-2.5-0.8l0.9-1.8c0.4,0.3,0.9,0.6,1.5,0.6
			c0.7,0,1.1-0.3,1.5-1.1v-0.1l-3.8-8.9h2.7l2.5,6l2.5-6h2.4V35.9z"/>
		<path class="st3" d="M164.9,37.5c0,2.6-1.9,4.2-5,4.2h-2.3v3.2h-2.7V33.3h5C163,33.3,164.9,34.9,164.9,37.5z M162.2,37.5
			c0-1.3-0.8-2-2.5-2h-2.2v4h2.2C161.4,39.4,162.2,38.7,162.2,37.5z"/>
		<path class="st3" d="M172.1,35.8v2.4c-0.2,0-0.4,0-0.6,0c-1.4,0-2.4,0.8-2.4,2.5v4.2h-2.6V36h2.5v1.2
			C169.7,36.2,170.8,35.8,172.1,35.8z"/>
		<path class="st3" d="M172.9,40.4c0-2.7,2.1-4.6,4.9-4.6c2.8,0,4.9,1.9,4.9,4.6c0,2.7-2,4.6-4.9,4.6C175,44.9,172.9,43,172.9,40.4z
			 M180.1,40.4c0-1.5-1-2.5-2.3-2.5s-2.3,0.9-2.3,2.5c0,1.5,1,2.5,2.3,2.5S180.1,41.9,180.1,40.4z"/>
		<path class="st3" d="M183.7,40.4c0-2.7,2.1-4.6,4.9-4.6c1.9,0,3.3,0.8,4,2.3l-2,1.1c-0.5-0.8-1.2-1.2-2-1.2
			c-1.3,0-2.3,0.9-2.3,2.5s1,2.5,2.3,2.5c0.8,0,1.5-0.4,2-1.2l2,1.1c-0.6,1.4-2.1,2.2-4,2.2C185.8,44.9,183.7,43,183.7,40.4z"/>
		<path class="st3" d="M202.7,41.1H196c0.2,1.1,1.2,1.8,2.5,1.8c0.9,0,1.6-0.3,2.2-0.9l1.4,1.5c-0.8,0.9-2.1,1.4-3.7,1.4
			c-3.1,0-5.1-1.9-5.1-4.6c0-2.7,2-4.6,4.7-4.6c2.6,0,4.6,1.7,4.6,4.6C202.7,40.6,202.7,40.9,202.7,41.1z M195.9,39.6h4.4
			c-0.2-1.1-1-1.8-2.2-1.8S196.1,38.5,195.9,39.6z"/>
		<path class="st3" d="M203.6,44l0.9-1.8c0.8,0.5,2,0.9,3.1,0.9c1.2,0,1.6-0.3,1.6-0.8c0-1.5-5.4,0-5.4-3.5c0-1.7,1.5-2.9,4.1-2.9
			c1.2,0,2.6,0.3,3.4,0.8l-0.9,1.8c-0.9-0.5-1.7-0.7-2.6-0.7c-1.2,0-1.6,0.4-1.6,0.8c0,1.5,5.4,0,5.4,3.5c0,1.6-1.5,2.8-4.2,2.8
			C205.9,44.9,204.4,44.5,203.6,44z"/>
		<path class="st3" d="M212.3,44l0.9-1.8c0.8,0.5,2,0.9,3.1,0.9c1.2,0,1.6-0.3,1.6-0.8c0-1.5-5.4,0-5.4-3.5c0-1.7,1.5-2.9,4.1-2.9
			c1.2,0,2.6,0.3,3.4,0.8l-0.9,1.8c-0.9-0.5-1.7-0.7-2.6-0.7c-1.2,0-1.6,0.4-1.6,0.8c0,1.5,5.4,0,5.4,3.5c0,1.6-1.5,2.8-4.2,2.8
			C214.7,44.9,213.2,44.5,212.3,44z"/>
	</g>
</g>
</svg>
