<svg xmlns="http://www.w3.org/2000/svg" width="670.5" height="607.021" viewBox="0 0 670.5 607.021">
  <g id="Group_4486" data-name="Group 4486" transform="translate(-83 -342.842)">
    <rect id="Rectangle_2978" data-name="Rectangle 2978" width="124" height="81.641" transform="translate(104 668.367)" fill="#fff"/>
    <path id="Path_11411" data-name="Path 11411" d="M765.375,1368.636,786.75,1346.2H744Z" transform="translate(-599 -599.41)" fill="#fff"/>
    <rect id="Rectangle_2976" data-name="Rectangle 2976" width="124" height="80.688" transform="translate(104 869.176)" fill="#fff"/>
    <path id="Path_11412" data-name="Path 11412" d="M765.375,1449.367,786.75,1471.8H744Z" transform="translate(-599 -599.41)" fill="#fff"/>
    <rect id="Rectangle_2981" data-name="Rectangle 2981" width="124" height="66.799" transform="translate(459 342.842)" fill="#fff"/>
    <path id="Path_11415" data-name="Path 11415" d="M435.375,1368.269l21.375-22.437H414Z" transform="translate(86 -939.41)" fill="#fff"/>
    <rect id="Rectangle_2982" data-name="Rectangle 2982" width="124" height="68.793" transform="translate(459 528.809)" fill="#fff"/>
    <path id="Path_11416" data-name="Path 11416" d="M435.375,1449l21.375,22.437H414Z" transform="translate(86 -939.41)" fill="#fff"/>
    <rect id="Rectangle_2979" data-name="Rectangle 2979" width="124" height="66.799" transform="translate(603 343.209)" fill="#fff"/>
    <path id="Path_11413" data-name="Path 11413" d="M579.375,1368.636,600.75,1346.2H558Z" transform="translate(86 -939.41)" fill="#fff"/>
    <rect id="Rectangle_2980" data-name="Rectangle 2980" width="124" height="68.793" transform="translate(603 529.176)" fill="#fff"/>
    <path id="Path_11414" data-name="Path 11414" d="M579.375,1449.367,600.75,1471.8H558Z" transform="translate(86 -939.41)" fill="#fff"/>
    <path id="Path_11099" data-name="Path 11099" d="M1079.278,534.961H923.387l12.1-29.854-12.1-29.928h155.891l13.1,29.927Z" transform="translate(-839.937 302.945)" fill="#0a90b7"/>
    <path id="Path_11287" data-name="Path 11287" d="M895.239,534.961H591.387l12.577-29.854-12.577-29.928H895.239l12.577,29.927Z" transform="translate(-154.937 -37.055)" fill="#0a90b7"/>
    <path id="Path_11287-2" data-name="Path 11287" d="M895.239,534.961H591.387V475.179H895.239l12.577,29.927Z" transform="translate(-496.937 -37.055)" fill="#0a90b7"/>
    <text id="Select_Authorization_Path" data-name="Select Authorization Path" transform="translate(250.552 475)" fill="#fff" font-size="15" font-family="Montserrat-ExtraBold, Montserrat" font-weight="800" letter-spacing="0.01em"><tspan x="-101.55" y="0">Select Authorization Path</tspan></text>
    <text id="Preparation" transform="translate(592.552 475)" fill="#fff" font-size="15" font-family="Montserrat-ExtraBold, Montserrat" font-weight="800" letter-spacing="0.01em"><tspan x="-46.98" y="0">Preparation</tspan></text>
    <text id="Review" transform="translate(95.04 799.746)" fill="#fff" font-size="15" font-family="Montserrat-ExtraBold, Montserrat" font-weight="800" letter-spacing="0.01em"><tspan x="47.726" y="15">Review</tspan></text>
    <text id="Full_Security_Assessment" data-name="Full Security 
Assessment" transform="translate(168 902)" fill="#333" font-size="16" font-family="ProximaNova-Regular, Proxima Nova" letter-spacing="0.02em"><tspan x="-46.92" y="0">Full Security </tspan><tspan x="-43.824" y="20">Assessment</tspan></text>
    <text id="Full_Security_Assessment-2" data-name="Full Security 
Assessment" transform="translate(168 706)" fill="#333" font-size="16" font-family="ProximaNova-Regular, Proxima Nova" letter-spacing="0.02em"><tspan x="-46.92" y="0">Full Security </tspan><tspan x="-43.824" y="20">Assessment</tspan></text>
    <text id="Readiness_Assessment" data-name="Readiness 
Assessment" transform="translate(668 559)" fill="#333" font-size="16" font-family="ProximaNova-Regular, Proxima Nova" letter-spacing="0.02em"><tspan x="-39.632" y="0">Readiness </tspan><tspan x="-43.824" y="20">Assessment</tspan></text>
    <text id="Readiness_Assessment-2" data-name="Readiness 
Assessment" transform="translate(668 371)" fill="#333" font-size="16" font-family="ProximaNova-Regular, Proxima Nova" letter-spacing="0.02em"><tspan x="-39.632" y="0">Readiness </tspan><tspan x="-43.824" y="20">Assessment</tspan></text>
    <text id="Partnership_Establishment" data-name="Partnership Establishment" transform="translate(465 356)" fill="#333" font-size="16" font-family="ProximaNova-Regular, Proxima Nova" letter-spacing="0.02em"><tspan x="15.076" y="13">Partnership </tspan><tspan x="5.66" y="33">Establishment</tspan></text>
    <text id="FedRAMP_Connect" data-name="FedRAMP Connect" transform="translate(478 544)" fill="#333" font-size="16" font-family="ProximaNova-Regular, Proxima Nova" letter-spacing="0.02em"><tspan x="6.724" y="13">FedRAMP </tspan><tspan x="11.9" y="33">Connect</tspan></text>
    <g id="Component_62_69" data-name="Component 62 – 69" transform="translate(160 525)">
      <g id="Base" fill="none" stroke="#c71f25" stroke-width="1">
        <rect width="182" height="38" rx="17" stroke="none"/>
        <rect x="0.5" y="0.5" width="181" height="37" rx="16.5" fill="none"/>
      </g>
      <text id="JAB_PROCESS" data-name="JAB PROCESS" transform="translate(92 24)" fill="#c71f25" font-size="14" font-family="Muli-Black, Muli" font-weight="800" letter-spacing="0.03em"><tspan x="-51.002" y="0">JAB PROCESS</tspan></text>
    </g>
    <g id="Component_62_70" data-name="Component 62 – 70" transform="translate(160 368.895)">
      <g id="Base-2" data-name="Base" fill="none" stroke="#1a4480" stroke-width="1">
        <rect width="182" height="38" rx="17" stroke="none"/>
        <rect x="0.5" y="0.5" width="181" height="37" rx="16.5" fill="none"/>
      </g>
      <text id="Agency_PROCESS" data-name="Agency PROCESS" transform="translate(92 24)" fill="#1a4480" font-size="14" font-family="Muli-Black, Muli" font-weight="800" letter-spacing="0.03em"><tspan x="-67.949" y="0">AGENCY PROCESS</tspan></text>
    </g>
    <rect id="Rectangle_2977" data-name="Rectangle 2977" width="124" height="87.151" transform="translate(319 668.367)" fill="#fff"/>
    <path id="Path_11410" data-name="Path 11410" d="M952.375,1368.636,973.75,1346.2H931Z" transform="translate(-571 -599.41)" fill="#fff"/>
    <rect id="Rectangle_2975" data-name="Rectangle 2975" width="124" height="86.198" transform="translate(319 863.664)" fill="#fff"/>
    <path id="Path_11409" data-name="Path 11409" d="M952.375,1449.367,973.75,1471.8H931Z" transform="translate(-571 -599.41)" fill="#fff"/>
    <text id="JAB_Authorization_Process" data-name="JAB 
Authorization 
Process" transform="translate(382 892)" fill="#333" font-size="16" font-family="ProximaNova-Regular, Proxima Nova" letter-spacing="0.02em"><tspan x="-16.44" y="0">JAB </tspan><tspan x="-50.656" y="20">Authorization </tspan><tspan x="-28.784" y="40">Process</tspan></text>
    <text id="Agency_Authorization_Process" data-name="Agency 
Authorization 
Process" transform="translate(382 699)" fill="#333" font-size="16" font-family="ProximaNova-Regular, Proxima Nova" letter-spacing="0.02em"><tspan x="-29.704" y="0">Agency </tspan><tspan x="-50.656" y="20">Authorization </tspan><tspan x="-28.784" y="40">Process</tspan></text>
    <path id="Path_11098" data-name="Path 11098" d="M1264.278,534.961H1108.387l12.1-29.854-12.1-29.928h155.891l13.1,29.927Z" transform="translate(-811.937 302.945)" fill="#0a90b7"/>
    <path id="Path_11101" data-name="Path 11101" d="M1523.9,534.961H1293.387l13.383-29.854-13.383-29.928H1523.9l14.489,29.927Z" transform="translate(-786.937 302.945)" fill="#fff"/>
    <path id="Path_11341" data-name="Path 11341" d="M1302.947,530.555h-3.185l1.2-2.953,8.2-20.23.978-2.415-.976-2.416-8.211-20.314-1.193-2.952h26.489v-4.3h-32.862l11.789,29.167.325.8-.326.805-11.788,29.091h182.637v6.1l10.955-8.137-10.955-8.138v5.884H1302.947Z" transform="translate(-786.937 302.945)" fill="#0a90b7"/>
    <path id="Path_11342" data-name="Path 11342" d="M1476.028,528.409v-3.738l10.955,8.138-10.955,8.138v-6.1H1293.387l11.785-29.087.326-.8-.325-.806-11.786-29.175h32.854v4.293h-26.489l1.192,2.949,8.211,20.317.977,2.416-.979,2.416-8.2,20.23-1.2,2.952H1476.02Z" transform="translate(-786.937 302.945)" fill="#0a90b7"/>
    <path id="Path_11343" data-name="Path 11343" d="M1526.825,534.847h-32.538v-4.292h29.735l.563-1.286,10.291-23.458.378-.86-.378-.863-10.3-23.529-.562-1.286H1344.5v6.056l-10.955-8.138,10.955-8.137v5.927h182.325l13.115,29.97Z" transform="translate(-786.937 302.945)" fill="#0a90b7"/>
    <text id="Authorization" transform="translate(308.04 799.746)" fill="#fff" font-size="15" font-family="Montserrat-ExtraBold, Montserrat" font-weight="800" letter-spacing="0.01em"><tspan x="21.334" y="15">Authorization</tspan></text>
    <text id="Continuous_Monitoring" data-name="Continuous Monitoring" transform="translate(530.063 799.746)" fill="#454545" font-size="15" font-family="Montserrat-ExtraBold, Montserrat" font-weight="800" letter-spacing="0.01em"><tspan x="11.89" y="15">Continuous Monitoring</tspan></text>
    <line id="Line_282" data-name="Line 282" x1="670.5" transform="translate(83 637.5)" fill="none" stroke="#d0d0d0" stroke-width="1"/>
  </g>
</svg>
