<?xml version="1.0" encoding="utf-8"?>
<!-- Generator: Adobe Illustrator 24.2.3, SVG Export Plug-In . SVG Version: 6.00 Build 0)  -->
<svg version="1.1" id="Layer_1" xmlns="http://www.w3.org/2000/svg" xmlns:xlink="http://www.w3.org/1999/xlink" x="0px" y="0px"
	 viewBox="0 0 1280 290" style="enable-background:new 0 0 1280 290;" xml:space="preserve">
<style type="text/css">
	.st0{fill:#FFFFFF;}
	.st1{fill:#1294C2;}
	.st2{fill:#C71F25;}
	.st3{fill:#1A4480;}
	.st4{enable-background:new    ;}
	.st5{fill:#0A90B7;}
	.st6{fill:none;}
</style>
<g id="Layer_4">
</g>
<g id="Layer_3">
</g>
<g id="Layer_1_1_">
	<path id="Path_11101_2_" class="st0" d="M1261.9,177.2h-257.4l14.8-32.9l-14.8-33h257.4l16,33L1261.9,177.2z"/>
	<path id="Path_11098_2_" class="st1" d="M972.7,177.2h-346l13.4-32.9l-13.4-33h346l14.5,33L972.7,177.2z"/>
	<path id="Path_11100_1_" class="st1" d="M216.4,177.2H0.2v-66h216.2l14.5,33L216.4,177.2z"/>
	<path id="Path_11287_2_" class="st1" d="M596.2,177.2H247.9l13.9-32.9l-13.9-33h348.3l13.9,33L596.2,177.2z"/>
	<path id="Path_11343_2_" class="st1" d="M1265.1,177.1h-35.9v-4.7h32.8l0.6-1.4l11.4-26l0.4-0.9l-0.4-1l-11.4-26l-0.6-1.4h-201.1
		v6.7l-12.1-9l12.1-9v6.5h204.2l14.5,33.1L1265.1,177.1z"/>
	<g>
		<polygon class="st0" points="908.4,202.8 890.9,184.4 873.3,202.8 822.5,202.8 822.5,287.9 959.3,287.9 959.3,202.8 		"/>
		<path class="st2" d="M959.7,288.3H822.1v-85.9h51l17.8-18.6l17.7,18.6h51.1L959.7,288.3L959.7,288.3z M822.9,287.5h136v-84.4
			h-50.7l-17.3-18.2l-17.4,18.2h-50.6V287.5z"/>
	</g>
	<g>
		<polygon class="st0" points="739.1,202.8 721.6,184.4 704,202.8 653.2,202.8 653.2,287.9 790,287.9 790,202.8 		"/>
		<path class="st2" d="M790.4,288.3H652.8v-85.9h51l17.8-18.6l17.7,18.6h51.1L790.4,288.3L790.4,288.3z M653.6,287.5h136v-84.4
			h-50.7l-17.3-18.2l-17.4,18.2h-50.6V287.5z"/>
	</g>
	<g>
		<polygon class="st0" points="530.4,202.8 512.8,184.4 495.3,202.8 444,202.8 444,287.9 580.8,287.9 580.8,202.8 		"/>
		<path class="st2" d="M581.2,288.3H443.6v-85.9h51.5l17.7-18.6l17.8,18.6h50.6L581.2,288.3L581.2,288.3z M444.4,287.5h136v-84.4
			h-50.2l-17.4-18.2l-17.3,18.2h-51.1V287.5z"/>
	</g>
	<g>
		<polygon class="st0" points="360,202.8 342.5,184.4 324.9,202.8 274.1,202.8 274.1,287.9 410.9,287.9 410.9,202.8 		"/>
		<path class="st2" d="M411.3,288.3H273.7v-85.9h51l17.8-18.6l17.7,18.6h51.1L411.3,288.3L411.3,288.3z M274.5,287.5h136v-84.4
			h-50.7l-17.3-18.2l-17.4,18.2h-50.6V287.5z"/>
	</g>
	<g>
		<polygon class="st0" points="959.3,2.8 822.5,2.8 822.5,86.8 874.2,86.8 890.9,104.3 907.5,86.8 959.3,86.8 		"/>
		<path class="st3" d="M890.9,104.8L874,87.2h-51.9V2.4h137.5v84.8h-52L890.9,104.8z M822.9,86.4h51.5l16.5,17.3l16.4-17.3h51.6V3.2
			h-136V86.4z"/>
	</g>
	<g>
		<polygon class="st0" points="790,2.8 653.2,2.8 653.2,86.8 704.9,86.8 721.6,104.3 738.2,86.8 790,86.8 		"/>
		<path class="st3" d="M721.6,104.8l-16.9-17.7h-51.9V2.4h137.5v84.8h-52L721.6,104.8z M653.6,86.4h51.5l16.5,17.3L738,86.4h51.6
			V3.2h-136V86.4z"/>
	</g>
	<g>
		<polygon class="st0" points="580.8,2.8 444,2.8 444,86.8 496.2,86.8 512.8,104.3 529.5,86.8 580.8,86.8 		"/>
		<path class="st3" d="M512.8,104.8L496,87.2h-52.4V2.4h137.5v84.8h-51.5L512.8,104.8z M444.4,86.4h52l16.4,17.3l16.5-17.3h51.1V3.2
			h-136L444.4,86.4L444.4,86.4z"/>
	</g>
	<g>
		<polygon class="st0" points="410.9,2.8 274.1,2.8 274.1,86.8 325.8,86.8 342.5,104.3 359.1,86.8 410.9,86.8 		"/>
		<path class="st3" d="M342.5,104.8l-16.9-17.7h-51.9V2.4h137.5v84.8h-52L342.5,104.8z M274.5,86.4H326l16.5,17.3l16.4-17.3h51.6
			V3.2h-136V86.4z"/>
	</g>
	<g class="st4">
		<path class="st0" d="M81.6,139.5l0.9-2.1c1,0.7,2.5,1.2,3.9,1.2c1.6,0,2.3-0.5,2.3-1.3c0-2.2-6.9-0.7-6.9-5.1c0-2,1.6-3.7,5-3.7
			c1.5,0,3,0.4,4.1,1.1l-0.8,2.1c-1.1-0.6-2.2-0.9-3.3-0.9c-1.6,0-2.3,0.6-2.3,1.4c0,2.2,6.9,0.7,6.9,5c0,2-1.6,3.7-5,3.7
			C84.5,140.9,82.6,140.3,81.6,139.5z"/>
		<path class="st0" d="M102.1,136.9h-6.9c0.3,1.1,1.2,1.8,2.6,1.8c1,0,1.7-0.3,2.3-0.9l1.4,1.5c-0.9,1-2.1,1.5-3.8,1.5
			c-3.2,0-5.2-2-5.2-4.7s2.1-4.7,4.9-4.7c2.7,0,4.8,1.8,4.8,4.7C102.1,136.4,102.1,136.7,102.1,136.9z M95.1,135.3h4.5
			c-0.2-1.2-1.1-1.9-2.2-1.9C96.2,133.4,95.3,134.2,95.1,135.3z"/>
		<path class="st0" d="M103.9,128.1h2.7v12.6h-2.7V128.1z"/>
		<path class="st0" d="M117.9,136.9H111c0.3,1.1,1.2,1.8,2.6,1.8c1,0,1.7-0.3,2.3-0.9l1.4,1.5c-0.9,1-2.1,1.5-3.8,1.5
			c-3.2,0-5.2-2-5.2-4.7s2.1-4.7,4.9-4.7c2.7,0,4.8,1.8,4.8,4.7C118,136.4,117.9,136.7,117.9,136.9z M111,135.3h4.5
			c-0.2-1.2-1.1-1.9-2.2-1.9C112,133.4,111.2,134.2,111,135.3z"/>
		<path class="st0" d="M119.1,136.1c0-2.8,2.1-4.7,5.1-4.7c1.9,0,3.4,0.8,4.1,2.3l-2.1,1.1c-0.5-0.9-1.2-1.3-2.1-1.3
			c-1.3,0-2.4,0.9-2.4,2.5s1.1,2.5,2.4,2.5c0.8,0,1.6-0.4,2.1-1.3l2.1,1.1c-0.7,1.5-2.2,2.3-4.1,2.3
			C121.2,140.8,119.1,138.9,119.1,136.1z"/>
		<path class="st0" d="M135.8,140.3c-0.5,0.4-1.3,0.6-2.2,0.6c-2.2,0-3.4-1.1-3.4-3.3v-3.8h-1.4v-2h1.4v-2.2h2.7v2.2h2.3v2h-2.3v3.7
			c0,0.8,0.4,1.2,1.1,1.2c0.4,0,0.8-0.1,1.1-0.3L135.8,140.3z"/>
	</g>
	<g class="st4">
		<path class="st0" d="M31.9,158h-5.5l-1.1,2.5h-2.8l5.3-11.9h2.7l5.3,11.9h-2.9L31.9,158z M31,155.9l-1.9-4.6l-1.9,4.6H31z"/>
		<path class="st0" d="M45.9,151.4v9.1h-2.5v-1.1c-0.7,0.8-1.7,1.2-2.8,1.2c-2.3,0-3.9-1.3-3.9-4.1v-5.2h2.7v4.8
			c0,1.5,0.7,2.2,1.9,2.2s2.1-0.8,2.1-2.5v-4.5h2.5V151.4z"/>
		<path class="st0" d="M54.3,160.1c-0.5,0.4-1.3,0.6-2.2,0.6c-2.2,0-3.4-1.1-3.4-3.3v-3.8h-1.4v-2h1.4v-2.2h2.7v2.2h2.3v2h-2.3v3.7
			c0,0.8,0.4,1.2,1.1,1.2c0.4,0,0.8-0.1,1.1-0.3L54.3,160.1z"/>
		<path class="st0" d="M65.1,155.3v5.2h-2.7v-4.8c0-1.5-0.7-2.2-1.9-2.2c-1.3,0-2.2,0.8-2.2,2.5v4.5h-2.7V148h2.7v4.4
			c0.7-0.7,1.7-1.1,2.9-1.1C63.5,151.3,65.1,152.5,65.1,155.3z"/>
		<path class="st0" d="M66.9,156c0-2.8,2.1-4.7,5-4.7s5,2,5,4.7s-2.1,4.7-5,4.7C69.1,160.7,66.9,158.7,66.9,156z M74.3,156
			c0-1.6-1-2.5-2.3-2.5s-2.3,1-2.3,2.5c0,1.6,1,2.5,2.3,2.5S74.3,157.6,74.3,156z"/>
		<path class="st0" d="M84.4,151.3v2.4c-0.2,0-0.4,0-0.6,0c-1.5,0-2.4,0.8-2.4,2.5v4.3h-2.7v-9.1h2.5v1.2
			C81.9,151.7,83,151.3,84.4,151.3z"/>
		<path class="st0" d="M85.7,148.7c0-0.8,0.7-1.5,1.6-1.5s1.6,0.6,1.6,1.4c0,0.9-0.7,1.5-1.6,1.5S85.7,149.5,85.7,148.7z M86,151.4
			h2.7v9.1H86V151.4z"/>
		<path class="st0" d="M98.7,158.5v2h-8.2V159l4.7-5.5h-4.5v-2h7.9v1.6l-4.7,5.5h4.8C98.7,158.6,98.7,158.5,98.7,158.5z"/>
		<path class="st0" d="M108.5,155.3v5.2H106v-1.1c-0.5,0.8-1.4,1.3-2.8,1.3c-2.1,0-3.4-1.2-3.4-2.8s1.1-2.7,3.9-2.7h2.1
			c0-1.1-0.7-1.8-2.1-1.8c-1,0-2,0.3-2.6,0.8l-1-1.9c1-0.7,2.5-1.1,3.9-1.1C106.8,151.3,108.5,152.6,108.5,155.3z M105.8,157.7v-0.9
			H104c-1.2,0-1.6,0.5-1.6,1.1c0,0.7,0.6,1.1,1.5,1.1C104.7,158.9,105.5,158.5,105.8,157.7z"/>
		<path class="st0" d="M116.8,160.1c-0.5,0.4-1.3,0.6-2.2,0.6c-2.2,0-3.4-1.1-3.4-3.3v-3.8h-1.4v-2h1.4v-2.2h2.7v2.2h2.3v2h-2.3v3.7
			c0,0.8,0.4,1.2,1.1,1.2c0.4,0,0.8-0.1,1.1-0.3L116.8,160.1z"/>
		<path class="st0" d="M117.9,148.7c0-0.8,0.7-1.5,1.6-1.5s1.6,0.6,1.6,1.4c0,0.9-0.7,1.5-1.6,1.5S117.9,149.5,117.9,148.7z
			 M118.2,151.4h2.7v9.1h-2.7V151.4z"/>
		<path class="st0" d="M122.7,156c0-2.8,2.1-4.7,5-4.7c2.9,0,5,2,5,4.7s-2.1,4.7-5,4.7S122.7,158.7,122.7,156z M130,156
			c0-1.6-1-2.5-2.3-2.5s-2.3,1-2.3,2.5c0,1.6,1,2.5,2.3,2.5S130,157.6,130,156z"/>
		<path class="st0" d="M143.8,155.3v5.2h-2.7v-4.8c0-1.5-0.7-2.2-1.9-2.2c-1.3,0-2.2,0.8-2.2,2.5v4.5h-2.7v-9.1h2.5v1.1
			c0.7-0.8,1.8-1.2,3-1.2C142.2,151.3,143.8,152.5,143.8,155.3z"/>
		<path class="st0" d="M161.6,153c0,2.7-2,4.3-5.2,4.3H154v3.3h-2.8v-11.9h5.2C159.6,148.7,161.6,150.3,161.6,153z M158.8,153
			c0-1.3-0.8-2.1-2.5-2.1H154v4.1h2.2C157.9,155,158.8,154.3,158.8,153z"/>
		<path class="st0" d="M171.3,155.3v5.2h-2.5v-1.1c-0.5,0.8-1.4,1.3-2.8,1.3c-2.1,0-3.4-1.2-3.4-2.8s1.1-2.7,3.9-2.7h2.1
			c0-1.1-0.7-1.8-2.1-1.8c-1,0-2,0.3-2.6,0.8l-1-1.9c1-0.7,2.5-1.1,3.9-1.1C169.7,151.3,171.3,152.6,171.3,155.3z M168.7,157.7v-0.9
			h-1.8c-1.2,0-1.6,0.5-1.6,1.1c0,0.7,0.6,1.1,1.5,1.1C167.6,158.9,168.4,158.5,168.7,157.7z"/>
		<path class="st0" d="M179.6,160.1c-0.5,0.4-1.3,0.6-2.2,0.6c-2.2,0-3.4-1.1-3.4-3.3v-3.8h-1.4v-2h1.4v-2.2h2.7v2.2h2.3v2h-2.3v3.7
			c0,0.8,0.4,1.2,1.1,1.2c0.4,0,0.8-0.1,1.1-0.3L179.6,160.1z"/>
		<path class="st0" d="M190.5,155.3v5.2h-2.7v-4.8c0-1.5-0.7-2.2-1.9-2.2c-1.3,0-2.2,0.8-2.2,2.5v4.5H181V148h2.7v4.4
			c0.7-0.7,1.7-1.1,2.9-1.1C188.8,151.3,190.5,152.5,190.5,155.3z"/>
	</g>
	<g class="st4">
		<path class="st0" d="M383,144.1c0,2.7-2,4.3-5.2,4.3h-2.4v3.3h-2.8v-11.9h5.2C381,139.7,383,141.4,383,144.1z M380.2,144.1
			c0-1.3-0.8-2.1-2.5-2.1h-2.2v4.1h2.2C379.3,146.1,380.2,145.3,380.2,144.1z"/>
		<path class="st0" d="M390.4,142.4v2.4c-0.2,0-0.4,0-0.6,0c-1.5,0-2.4,0.8-2.4,2.5v4.3h-2.7v-9.1h2.5v1.2
			C387.9,142.8,389,142.4,390.4,142.4z"/>
		<path class="st0" d="M400.8,147.8h-6.9c0.3,1.1,1.2,1.8,2.6,1.8c1,0,1.7-0.3,2.3-0.9l1.4,1.5c-0.9,1-2.1,1.5-3.8,1.5
			c-3.2,0-5.2-2-5.2-4.7s2.1-4.7,4.9-4.7c2.7,0,4.8,1.8,4.8,4.7C400.9,147.3,400.9,147.6,400.8,147.8z M393.9,146.3h4.5
			c-0.2-1.2-1.1-1.9-2.2-1.9C394.9,144.4,394.1,145.1,393.9,146.3z"/>
		<path class="st0" d="M412.6,147.1c0,2.9-2,4.7-4.6,4.7c-1.1,0-2.1-0.4-2.8-1.1v4.3h-2.7v-12.4h2.5v1.1c0.7-0.8,1.6-1.2,2.9-1.2
			C410.6,142.4,412.6,144.2,412.6,147.1z M409.9,147.1c0-1.6-1-2.5-2.3-2.5s-2.3,1-2.3,2.5c0,1.6,1,2.5,2.3,2.5
			S409.9,148.6,409.9,147.1z"/>
		<path class="st0" d="M422.3,146.4v5.2h-2.5v-1.1c-0.5,0.8-1.4,1.3-2.8,1.3c-2.1,0-3.4-1.2-3.4-2.8s1.1-2.7,3.9-2.7h2.1
			c0-1.1-0.7-1.8-2.1-1.8c-1,0-2,0.3-2.6,0.8l-1-1.9c1-0.7,2.5-1.1,3.9-1.1C420.7,142.4,422.3,143.6,422.3,146.4z M419.7,148.7v-0.9
			h-1.8c-1.2,0-1.6,0.5-1.6,1.1c0,0.7,0.6,1.1,1.5,1.1C418.6,150,419.4,149.6,419.7,148.7z"/>
		<path class="st0" d="M430.4,142.4v2.4c-0.2,0-0.4,0-0.6,0c-1.5,0-2.4,0.8-2.4,2.5v4.3h-2.7v-9.1h2.5v1.2
			C427.9,142.8,429,142.4,430.4,142.4z"/>
		<path class="st0" d="M440,146.4v5.2h-2.5v-1.1c-0.5,0.8-1.4,1.3-2.8,1.3c-2.1,0-3.4-1.2-3.4-2.8s1.1-2.7,3.9-2.7h2.1
			c0-1.1-0.7-1.8-2.1-1.8c-1,0-2,0.3-2.6,0.8l-1-1.9c1-0.7,2.5-1.1,3.9-1.1C438.4,142.4,440,143.6,440,146.4z M437.4,148.7v-0.9
			h-1.8c-1.2,0-1.6,0.5-1.6,1.1c0,0.7,0.6,1.1,1.5,1.1C436.3,150,437.1,149.6,437.4,148.7z"/>
		<path class="st0" d="M448.3,151.2c-0.5,0.4-1.3,0.6-2.2,0.6c-2.2,0-3.4-1.1-3.4-3.3v-3.8h-1.4v-2h1.4v-2.2h2.7v2.2h2.3v2h-2.3v3.7
			c0,0.8,0.4,1.2,1.1,1.2c0.4,0,0.8-0.1,1.1-0.3L448.3,151.2z"/>
		<path class="st0" d="M449.5,139.7c0-0.8,0.7-1.5,1.6-1.5s1.6,0.6,1.6,1.4c0,0.9-0.7,1.5-1.6,1.5S449.5,140.6,449.5,139.7z
			 M449.8,142.5h2.7v9.1h-2.7V142.5z"/>
		<path class="st0" d="M454.3,147.1c0-2.8,2.1-4.7,5-4.7s5,2,5,4.7c0,2.8-2.1,4.7-5,4.7S454.3,149.8,454.3,147.1z M461.6,147.1
			c0-1.6-1-2.5-2.3-2.5s-2.3,1-2.3,2.5c0,1.6,1,2.5,2.3,2.5S461.6,148.6,461.6,147.1z"/>
		<path class="st0" d="M475.4,146.4v5.2h-2.7v-4.8c0-1.5-0.7-2.2-1.9-2.2c-1.3,0-2.2,0.8-2.2,2.5v4.5h-2.7v-9.1h2.5v1.1
			c0.7-0.8,1.8-1.2,3-1.2C473.8,142.4,475.4,143.6,475.4,146.4z"/>
	</g>
	<g class="st4">
		<path class="st0" d="M754.9,149.1h-5.5l-1.1,2.6h-2.8l5.3-11.9h2.7l5.3,11.9h-2.9L754.9,149.1z M754,147l-1.9-4.6l-1.9,4.6H754z"
			/>
		<path class="st0" d="M768.9,142.5v9.1h-2.5v-1.1c-0.7,0.8-1.7,1.2-2.8,1.2c-2.3,0-3.9-1.3-3.9-4.1v-5.2h2.7v4.8
			c0,1.5,0.7,2.2,1.9,2.2s2.1-0.8,2.1-2.5v-4.5h2.5V142.5z"/>
		<path class="st0" d="M777.3,151.2c-0.5,0.4-1.3,0.6-2.2,0.6c-2.2,0-3.4-1.1-3.4-3.3v-3.8h-1.4v-2h1.4v-2.2h2.7v2.2h2.3v2h-2.3v3.7
			c0,0.8,0.4,1.2,1.1,1.2c0.4,0,0.8-0.1,1.1-0.3L777.3,151.2z"/>
		<path class="st0" d="M788.1,146.4v5.2h-2.7v-4.8c0-1.5-0.7-2.2-1.9-2.2c-1.3,0-2.2,0.8-2.2,2.5v4.5h-2.7V139h2.7v4.4
			c0.7-0.7,1.7-1.1,2.9-1.1C786.5,142.4,788.1,143.6,788.1,146.4z"/>
		<path class="st0" d="M790,147.1c0-2.8,2.1-4.7,5-4.7s5,2,5,4.7c0,2.8-2.1,4.7-5,4.7S790,149.8,790,147.1z M797.3,147.1
			c0-1.6-1-2.5-2.3-2.5s-2.3,1-2.3,2.5c0,1.6,1,2.5,2.3,2.5S797.3,148.6,797.3,147.1z"/>
		<path class="st0" d="M807.4,142.4v2.4c-0.2,0-0.4,0-0.6,0c-1.5,0-2.4,0.8-2.4,2.5v4.3h-2.7v-9.1h2.5v1.2
			C804.9,142.8,806,142.4,807.4,142.4z"/>
		<path class="st0" d="M808.7,139.7c0-0.8,0.7-1.5,1.6-1.5c1,0,1.6,0.6,1.6,1.4c0,0.9-0.7,1.5-1.6,1.5
			C809.4,141.2,808.7,140.6,808.7,139.7z M809,142.5h2.7v9.1H809V142.5z"/>
		<path class="st0" d="M821.7,149.6v2h-8.2V150l4.7-5.5h-4.5v-2h7.9v1.6l-4.7,5.5H821.7z"/>
		<path class="st0" d="M831.5,146.4v5.2H829v-1.1c-0.5,0.8-1.4,1.3-2.8,1.3c-2.1,0-3.4-1.2-3.4-2.8s1.1-2.7,3.9-2.7h2.1
			c0-1.1-0.7-1.8-2.1-1.8c-1,0-2,0.3-2.6,0.8l-1-1.9c1-0.7,2.5-1.1,3.9-1.1C829.9,142.4,831.5,143.6,831.5,146.4z M828.8,148.7v-0.9
			H827c-1.2,0-1.6,0.5-1.6,1.1c0,0.7,0.6,1.1,1.5,1.1C827.7,150,828.5,149.6,828.8,148.7z"/>
		<path class="st0" d="M839.8,151.2c-0.5,0.4-1.3,0.6-2.2,0.6c-2.2,0-3.4-1.1-3.4-3.3v-3.8h-1.4v-2h1.4v-2.2h2.7v2.2h2.3v2h-2.3v3.7
			c0,0.8,0.4,1.2,1.1,1.2c0.4,0,0.8-0.1,1.1-0.3L839.8,151.2z"/>
		<path class="st0" d="M840.9,139.7c0-0.8,0.7-1.5,1.6-1.5c1,0,1.6,0.6,1.6,1.4c0,0.9-0.7,1.5-1.6,1.5
			C841.6,141.2,840.9,140.6,840.9,139.7z M841.3,142.5h2.7v9.1h-2.7V142.5z"/>
		<path class="st0" d="M845.7,147.1c0-2.8,2.1-4.7,5-4.7s5,2,5,4.7c0,2.8-2.1,4.7-5,4.7S845.7,149.8,845.7,147.1z M853.1,147.1
			c0-1.6-1-2.5-2.3-2.5s-2.3,1-2.3,2.5c0,1.6,1,2.5,2.3,2.5S853.1,148.6,853.1,147.1z"/>
		<path class="st0" d="M866.9,146.4v5.2h-2.7v-4.8c0-1.5-0.7-2.2-1.9-2.2c-1.3,0-2.2,0.8-2.2,2.5v4.5h-2.7v-9.1h2.5v1.1
			c0.7-0.8,1.8-1.2,3-1.2C865.2,142.4,866.9,143.6,866.9,146.4z"/>
	</g>
	<path id="Path_11341_2_" class="st1" d="M1015.1,172.3h-3.5l1.3-3.3l9-22.3l1.1-2.7l-1.1-2.7l-9.1-22.4l-1.3-3.3h29.2V111h-36.3
		l13,32.2l0.4,0.9l-0.4,0.9l-13,32.1H1209v6.7l12.1-9l-12.1-9v6.5L1015.1,172.3L1015.1,172.3z"/>
	<path id="Path_11342_2_" class="st1" d="M1209,170v-4.1l12.1,9l-12.1,9v-6.7h-204.5l13-32.1l0.4-0.9l-0.4-0.9l-13-32.2h36.3v4.7
		h-29.2l1.3,3.3l9.1,22.4l1.1,2.7l-1.1,2.7l-9,22.3l-1.3,3.3H1209V170z"/>
	<g class="st4">
		<path class="st5" d="M1043.7,145.7c0-3.6,2.8-6.2,6.5-6.2c2.1,0,3.8,0.7,4.9,2.1l-1.8,1.6c-0.8-0.9-1.8-1.4-3-1.4
			c-2.2,0-3.8,1.6-3.8,3.8s1.6,3.8,3.8,3.8c1.2,0,2.2-0.5,3-1.4l1.8,1.6c-1.1,1.4-2.8,2.1-4.9,2.1
			C1046.4,151.8,1043.7,149.3,1043.7,145.7z"/>
		<path class="st5" d="M1055.7,147.1c0-2.8,2.1-4.7,5-4.7s5,2,5,4.7c0,2.8-2.1,4.7-5,4.7C1057.8,151.8,1055.7,149.8,1055.7,147.1z
			 M1063.1,147.1c0-1.6-1-2.5-2.3-2.5s-2.3,1-2.3,2.5c0,1.6,1,2.5,2.3,2.5S1063.1,148.6,1063.1,147.1z"/>
		<path class="st5" d="M1076.9,146.4v5.2h-2.7v-4.8c0-1.5-0.7-2.2-1.9-2.2c-1.3,0-2.2,0.8-2.2,2.5v4.5h-2.7v-9.1h2.5v1.1
			c0.7-0.8,1.8-1.2,3-1.2C1075.2,142.4,1076.9,143.6,1076.9,146.4z"/>
		<path class="st5" d="M1085.2,151.2c-0.5,0.4-1.3,0.6-2.2,0.6c-2.2,0-3.4-1.1-3.4-3.3v-3.8h-1.4v-2h1.4v-2.2h2.7v2.2h2.3v2h-2.3
			v3.7c0,0.8,0.4,1.2,1.1,1.2c0.4,0,0.8-0.1,1.1-0.3L1085.2,151.2z"/>
		<path class="st5" d="M1086.3,139.7c0-0.8,0.7-1.5,1.6-1.5c1,0,1.6,0.6,1.6,1.4c0,0.9-0.7,1.5-1.6,1.5
			C1087,141.2,1086.3,140.6,1086.3,139.7z M1086.7,142.5h2.7v9.1h-2.7V142.5z"/>
		<path class="st5" d="M1101.1,146.4v5.2h-2.7v-4.8c0-1.5-0.7-2.2-1.9-2.2c-1.3,0-2.2,0.8-2.2,2.5v4.5h-2.7v-9.1h2.5v1.1
			c0.7-0.8,1.8-1.2,3-1.2C1099.5,142.4,1101.1,143.6,1101.1,146.4z"/>
		<path class="st5" d="M1112.7,142.5v9.1h-2.5v-1.1c-0.7,0.8-1.7,1.2-2.8,1.2c-2.3,0-3.9-1.3-3.9-4.1v-5.2h2.7v4.8
			c0,1.5,0.7,2.2,1.9,2.2c1.2,0,2.1-0.8,2.1-2.5v-4.5h2.5L1112.7,142.5L1112.7,142.5z"/>
		<path class="st5" d="M1114.5,147.1c0-2.8,2.1-4.7,5-4.7s5,2,5,4.7c0,2.8-2.1,4.7-5,4.7C1116.7,151.8,1114.5,149.8,1114.5,147.1z
			 M1121.9,147.1c0-1.6-1-2.5-2.3-2.5s-2.3,1-2.3,2.5c0,1.6,1,2.5,2.3,2.5S1121.9,148.6,1121.9,147.1z"/>
		<path class="st5" d="M1135.6,142.5v9.1h-2.5v-1.1c-0.7,0.8-1.7,1.2-2.8,1.2c-2.3,0-3.9-1.3-3.9-4.1v-5.2h2.7v4.8
			c0,1.5,0.7,2.2,1.9,2.2c1.2,0,2.1-0.8,2.1-2.5v-4.5h2.5L1135.6,142.5L1135.6,142.5z"/>
		<path class="st5" d="M1137.1,150.8l0.9-1.9c0.8,0.5,2.1,0.9,3.2,0.9c1.2,0,1.7-0.3,1.7-0.8c0-1.5-5.5,0-5.5-3.6c0-1.7,1.6-3,4.2-3
			c1.3,0,2.7,0.3,3.5,0.8l-0.9,1.9c-0.9-0.5-1.8-0.7-2.6-0.7c-1.2,0-1.7,0.4-1.7,0.8c0,1.6,5.5,0.1,5.5,3.7c0,1.7-1.6,2.9-4.3,2.9
			C1139.6,151.8,1138,151.3,1137.1,150.8z"/>
		<path class="st5" d="M1162.9,151.6v-7.1l-3.5,5.9h-1.2l-3.5-5.7v7h-2.6v-11.9h2.3l4.5,7.4l4.4-7.4h2.3v11.9L1162.9,151.6
			L1162.9,151.6z"/>
		<path class="st5" d="M1167.4,147.1c0-2.8,2.1-4.7,5-4.7s5,2,5,4.7c0,2.8-2.1,4.7-5,4.7S1167.4,149.8,1167.4,147.1z M1174.8,147.1
			c0-1.6-1-2.5-2.3-2.5s-2.3,1-2.3,2.5c0,1.6,1,2.5,2.3,2.5S1174.8,148.6,1174.8,147.1z"/>
		<path class="st5" d="M1188.6,146.4v5.2h-2.7v-4.8c0-1.5-0.7-2.2-1.9-2.2c-1.3,0-2.2,0.8-2.2,2.5v4.5h-2.7v-9.1h2.5v1.1
			c0.7-0.8,1.8-1.2,3-1.2C1186.9,142.4,1188.6,143.6,1188.6,146.4z"/>
		<path class="st5" d="M1190.7,139.7c0-0.8,0.7-1.5,1.6-1.5s1.6,0.6,1.6,1.4c0,0.9-0.7,1.5-1.6,1.5S1190.7,140.6,1190.7,139.7z
			 M1191,142.5h2.7v9.1h-2.7V142.5z"/>
		<path class="st5" d="M1202,151.2c-0.5,0.4-1.3,0.6-2.2,0.6c-2.2,0-3.4-1.1-3.4-3.3v-3.8h-1.4v-2h1.4v-2.2h2.7v2.2h2.3v2h-2.3v3.7
			c0,0.8,0.4,1.2,1.1,1.2c0.4,0,0.8-0.1,1.1-0.3L1202,151.2z"/>
		<path class="st5" d="M1202.5,147.1c0-2.8,2.1-4.7,5-4.7s5,2,5,4.7c0,2.8-2.1,4.7-5,4.7S1202.5,149.8,1202.5,147.1z M1209.9,147.1
			c0-1.6-1-2.5-2.3-2.5s-2.3,1-2.3,2.5c0,1.6,1,2.5,2.3,2.5S1209.9,148.6,1209.9,147.1z"/>
		<path class="st5" d="M1220,142.4v2.4c-0.2,0-0.4,0-0.6,0c-1.5,0-2.4,0.8-2.4,2.5v4.3h-2.7v-9.1h2.5v1.2
			C1217.5,142.8,1218.6,142.4,1220,142.4z"/>
		<path class="st5" d="M1221.3,139.7c0-0.8,0.7-1.5,1.6-1.5s1.6,0.6,1.6,1.4c0,0.9-0.7,1.5-1.6,1.5S1221.3,140.6,1221.3,139.7z
			 M1221.6,142.5h2.7v9.1h-2.7V142.5z"/>
		<path class="st5" d="M1236.1,146.4v5.2h-2.7v-4.8c0-1.5-0.7-2.2-1.9-2.2c-1.3,0-2.2,0.8-2.2,2.5v4.5h-2.7v-9.1h2.5v1.1
			c0.7-0.8,1.8-1.2,3-1.2C1234.4,142.4,1236.1,143.6,1236.1,146.4z"/>
		<path class="st5" d="M1248,142.5v7.6c0,3.4-1.8,5-5.1,5c-1.7,0-3.4-0.4-4.5-1.3l1.1-1.9c0.8,0.6,2.1,1,3.2,1
			c1.9,0,2.7-0.8,2.7-2.5V150c-0.7,0.8-1.7,1.1-2.9,1.1c-2.5,0-4.6-1.8-4.6-4.4c0-2.7,2-4.4,4.6-4.4c1.3,0,2.3,0.4,3,1.3v-1.2
			L1248,142.5L1248,142.5z M1245.4,146.8c0-1.3-1-2.2-2.4-2.2s-2.4,0.9-2.4,2.2s1,2.2,2.4,2.2S1245.4,148.1,1245.4,146.8z"/>
	</g>
	<rect x="823.5" y="215.2" class="st6" width="136.7" height="63.5"/>
	<g class="st4">
		<path class="st2" d="M875.7,232.5c0.5,0.1,1,0.1,1.3,0.1c0.6,0,1-0.2,1.3-0.5c0.2-0.3,0.4-0.9,0.4-1.8v-12.6h1.5v12.6
			c0,1.2-0.2,2.1-0.7,2.7c-0.5,0.6-1.2,0.8-2.2,0.8c-0.4,0-0.9,0-1.5-0.1L875.7,232.5L875.7,232.5z"/>
		<path class="st2" d="M891.7,227.3H885l-1.4,3.3h-1.5l5.6-12.8h1.3l5.6,12.8h-1.5L891.7,227.3z M891.2,226.1l-2.8-6.6l-2.8,6.6
			H891.2z"/>
		<path class="st2" d="M905.5,225.1c0.4,0.5,0.6,1.2,0.6,2c0,1.1-0.4,2-1.1,2.6c-0.7,0.6-1.8,0.9-3.1,0.9h-5.3v-12.8h5.1
			c1.3,0,2.3,0.3,3.1,0.9c0.7,0.6,1.1,1.4,1.1,2.5c0,0.7-0.2,1.3-0.5,1.8c-0.4,0.5-0.8,0.9-1.5,1.1
			C904.5,224.2,905.1,224.6,905.5,225.1z M898,223.5h3.5c1,0,1.7-0.2,2.2-0.6c0.5-0.4,0.7-0.9,0.7-1.7c0-1.5-1-2.2-2.9-2.2H898
			V223.5z M904,228.8c0.5-0.4,0.7-1,0.7-1.7c0-1.6-1-2.4-2.9-2.4H898v4.7h3.7C902.7,229.4,903.5,229.2,904,228.8z"/>
	</g>
	<g class="st4">
		<path class="st2" d="M843.2,248.9h-6.7l-1.4,3.3h-1.5l5.6-12.8h1.3l5.6,12.8h-1.5L843.2,248.9z M842.7,247.7l-2.8-6.6l-2.8,6.6
			H842.7z"/>
		<path class="st2" d="M855.4,243.2v9.1H854v-1.6c-0.3,0.6-0.7,1-1.2,1.3s-1.1,0.4-1.7,0.4c-1.1,0-1.9-0.3-2.4-0.9
			c-0.6-0.6-0.8-1.5-0.8-2.7v-5.6h1.5v5.6c0,0.8,0.2,1.4,0.5,1.8s0.8,0.6,1.5,0.6c0.8,0,1.5-0.3,1.9-0.8c0.5-0.5,0.7-1.2,0.7-2.1
			v-5.1H855.4z"/>
		<path class="st2" d="M860.2,244.3v5c0,0.7,0.1,1.1,0.4,1.4c0.3,0.3,0.7,0.4,1.2,0.4c0.3,0,0.7-0.1,1-0.2v1.2
			c-0.4,0.1-0.8,0.2-1.3,0.2c-0.9,0-1.5-0.2-2-0.7s-0.7-1.2-0.7-2.2v-5.1H857v-1.2h1.8v-2.3l1.5-0.5v2.8h2.6v1.2L860.2,244.3
			L860.2,244.3z"/>
		<path class="st2" d="M872.3,246.5v5.7h-1.5v-5.6c0-0.8-0.2-1.5-0.5-1.8s-0.9-0.6-1.6-0.6c-0.8,0-1.5,0.3-2,0.8s-0.8,1.2-0.8,2.1
			v5.2h-1.5V239h1.5v5.7c0.3-0.6,0.7-1,1.2-1.3s1.1-0.4,1.8-0.4C871.2,242.9,872.3,244.1,872.3,246.5z"/>
		<path class="st2" d="M876.5,251.8c-0.6-0.4-1.1-0.9-1.5-1.6c-0.4-0.7-0.5-1.5-0.5-2.5c0-0.9,0.2-1.8,0.5-2.5
			c0.4-0.7,0.9-1.3,1.5-1.6c0.6-0.4,1.4-0.6,2.2-0.6c0.9,0,1.6,0.2,2.2,0.6c0.6,0.4,1.1,0.9,1.5,1.6c0.4,0.7,0.5,1.5,0.5,2.5
			c0,0.9-0.2,1.8-0.5,2.5c-0.4,0.7-0.9,1.3-1.5,1.6c-0.6,0.4-1.4,0.6-2.2,0.6C877.9,252.3,877.2,252.1,876.5,251.8z M880.9,250.2
			c0.5-0.6,0.7-1.5,0.7-2.6s-0.2-2-0.7-2.6s-1.2-0.9-2.1-0.9c-0.9,0-1.6,0.3-2.1,0.9c-0.5,0.6-0.7,1.5-0.7,2.6s0.2,2,0.7,2.6
			s1.2,0.9,2.1,0.9C879.7,251.1,880.4,250.8,880.9,250.2z"/>
		<path class="st2" d="M890.4,243v1.3c-0.3-0.1-0.6-0.1-1-0.1c-0.9,0-1.5,0.3-2,0.8c-0.4,0.5-0.6,1.2-0.6,2v5.2h-1.5v-6.5
			c0-0.9,0-1.8-0.1-2.5h1.4l0.1,1.7c0.2-0.6,0.6-1.1,1.1-1.4s1.1-0.5,1.7-0.5C889.9,242.9,890.1,243,890.4,243z"/>
		<path class="st2" d="M893.5,239.3v1.7h-1.8v-1.7H893.5z M891.9,243.2h1.5v9.1h-1.5V243.2z"/>
		<path class="st2" d="M903.3,251.1v1.2h-7.7v-1l5.7-6.9h-5.5v-1.2h7.3v1.1l-5.7,6.8L903.3,251.1L903.3,251.1z"/>
		<path class="st2" d="M913.2,243.2v9.1h-1.4v-1.6c-0.3,0.6-0.7,1-1.2,1.3s-1.2,0.5-1.9,0.5c-0.8,0-1.5-0.2-2.1-0.6
			c-0.6-0.4-1.1-0.9-1.4-1.6s-0.5-1.5-0.5-2.5c0-0.9,0.2-1.8,0.5-2.5s0.8-1.3,1.4-1.7c0.6-0.4,1.3-0.6,2.1-0.6
			c0.7,0,1.3,0.2,1.9,0.5c0.5,0.3,0.9,0.8,1.2,1.3v-1.6L913.2,243.2L913.2,243.2z M911.1,250.2c0.5-0.6,0.7-1.5,0.7-2.6
			s-0.2-2-0.7-2.6s-1.2-0.9-2.1-0.9s-1.6,0.3-2.1,0.9s-0.7,1.5-0.7,2.6s0.2,2,0.7,2.6s1.2,0.9,2.1,0.9
			C909.9,251.1,910.6,250.8,911.1,250.2z"/>
		<path class="st2" d="M918,244.3v5c0,0.7,0.1,1.1,0.4,1.4c0.3,0.3,0.7,0.4,1.2,0.4c0.3,0,0.7-0.1,1-0.2v1.2
			c-0.4,0.1-0.8,0.2-1.3,0.2c-0.9,0-1.5-0.2-2-0.7s-0.7-1.2-0.7-2.2v-5.1h-1.8v-1.2h1.8v-2.3l1.5-0.5v2.8h2.6v1.2L918,244.3
			L918,244.3z"/>
		<path class="st2" d="M924,239.3v1.7h-1.8v-1.7H924z M922.4,243.2h1.5v9.1h-1.5V243.2z"/>
		<path class="st2" d="M928.1,251.8c-0.6-0.4-1.1-0.9-1.5-1.6c-0.4-0.7-0.5-1.5-0.5-2.5c0-0.9,0.2-1.8,0.5-2.5
			c0.4-0.7,0.9-1.3,1.5-1.6c0.6-0.4,1.4-0.6,2.2-0.6c0.9,0,1.6,0.2,2.2,0.6c0.6,0.4,1.1,0.9,1.5,1.6c0.4,0.7,0.5,1.5,0.5,2.5
			c0,0.9-0.2,1.8-0.5,2.5c-0.4,0.7-0.9,1.3-1.5,1.6c-0.6,0.4-1.4,0.6-2.2,0.6C929.5,252.3,928.8,252.1,928.1,251.8z M932.5,250.2
			c0.5-0.6,0.7-1.5,0.7-2.6s-0.2-2-0.7-2.6s-1.2-0.9-2.1-0.9c-0.9,0-1.6,0.3-2.1,0.9c-0.5,0.6-0.7,1.5-0.7,2.6s0.2,2,0.7,2.6
			s1.2,0.9,2.1,0.9C931.3,251.1,932,250.8,932.5,250.2z"/>
		<path class="st2" d="M944.7,246.5v5.7h-1.5v-5.6c0-0.8-0.2-1.5-0.5-1.8s-0.9-0.6-1.6-0.6c-0.8,0-1.5,0.3-2,0.8s-0.8,1.2-0.8,2.1
			v5.2H937v-6.5c0-0.9,0-1.8-0.1-2.5h1.4l0.1,1.6c0.3-0.6,0.7-1,1.2-1.4c0.6-0.3,1.2-0.5,1.9-0.5
			C943.6,242.9,944.7,244.1,944.7,246.5z"/>
	</g>
	<g class="st4">
		<path class="st2" d="M859.8,261h5.1c1.3,0,2.3,0.3,3.1,1c0.7,0.6,1.1,1.5,1.1,2.6s-0.4,2-1.1,2.6c-0.7,0.6-1.8,1-3.1,1h-3.6v5.6
			h-1.5V261z M864.8,266.9c0.9,0,1.7-0.2,2.1-0.6c0.5-0.4,0.7-1,0.7-1.8s-0.2-1.4-0.7-1.8s-1.2-0.6-2.1-0.6h-3.5v4.7L864.8,266.9
			L864.8,266.9z"/>
		<path class="st2" d="M876.2,264.6v1.3c-0.3-0.1-0.6-0.1-1-0.1c-0.9,0-1.5,0.3-2,0.8c-0.4,0.5-0.6,1.2-0.6,2v5.2h-1.5v-6.5
			c0-0.9,0-1.8-0.1-2.5h1.4l0.1,1.7c0.2-0.6,0.6-1.1,1.1-1.4s1.1-0.5,1.7-0.5C875.7,264.5,875.9,264.6,876.2,264.6z"/>
		<path class="st2" d="M879,273.4c-0.6-0.4-1.1-0.9-1.5-1.6s-0.5-1.5-0.5-2.5c0-0.9,0.2-1.8,0.5-2.5c0.4-0.7,0.9-1.3,1.5-1.6
			c0.6-0.4,1.4-0.6,2.2-0.6c0.9,0,1.6,0.2,2.2,0.6c0.6,0.4,1.1,0.9,1.5,1.6s0.5,1.5,0.5,2.5c0,0.9-0.2,1.8-0.5,2.5
			c-0.4,0.7-0.9,1.3-1.5,1.6c-0.6,0.4-1.4,0.6-2.2,0.6C880.4,273.9,879.6,273.7,879,273.4z M883.3,271.8c0.5-0.6,0.7-1.5,0.7-2.6
			s-0.2-2-0.7-2.6s-1.2-0.9-2.1-0.9c-0.9,0-1.6,0.3-2.1,0.9s-0.7,1.5-0.7,2.6s0.2,2,0.7,2.6s1.2,0.9,2.1,0.9
			C882.1,272.7,882.8,272.4,883.3,271.8z"/>
		<path class="st2" d="M889.3,273.4c-0.7-0.4-1.2-0.9-1.5-1.6c-0.4-0.7-0.5-1.5-0.5-2.5c0-0.9,0.2-1.8,0.5-2.5s0.9-1.3,1.5-1.7
			c0.7-0.4,1.4-0.6,2.3-0.6c0.6,0,1.2,0.1,1.8,0.3c0.6,0.2,1,0.5,1.4,0.9l-0.5,1.1c-0.5-0.4-0.9-0.6-1.3-0.8s-0.9-0.3-1.3-0.3
			c-0.9,0-1.7,0.3-2.2,0.9s-0.8,1.5-0.8,2.6s0.3,1.9,0.8,2.5s1.3,0.9,2.2,0.9c0.4,0,0.9-0.1,1.3-0.3s0.9-0.4,1.3-0.8l0.5,1.1
			c-0.4,0.4-0.9,0.6-1.4,0.9c-0.6,0.2-1.2,0.3-1.8,0.3C890.7,273.9,890,273.7,889.3,273.4z"/>
		<path class="st2" d="M904.3,269.2h-6.6c0,1.2,0.3,2,0.8,2.6s1.3,0.9,2.3,0.9c1.1,0,2-0.4,2.9-1.1l0.5,1.1
			c-0.4,0.4-0.9,0.7-1.5,0.9s-1.3,0.3-1.9,0.3c-1.4,0-2.5-0.4-3.3-1.3c-0.8-0.8-1.2-2-1.2-3.4c0-0.9,0.2-1.7,0.5-2.5
			c0.4-0.7,0.9-1.3,1.5-1.7c0.6-0.4,1.4-0.6,2.2-0.6c1.2,0,2.1,0.4,2.8,1.2c0.7,0.8,1,1.9,1,3.2V269.2z M898.6,266.4
			c-0.5,0.5-0.8,1.1-0.9,1.9h5.3c-0.1-0.9-0.3-1.5-0.7-1.9s-1-0.7-1.8-0.7S899.1,265.9,898.6,266.4z"/>
		<path class="st2" d="M905.9,272.8l0.5-1.1c0.5,0.4,1,0.7,1.5,0.8c0.5,0.2,1.1,0.3,1.7,0.3c0.7,0,1.2-0.1,1.6-0.4
			c0.4-0.2,0.5-0.6,0.5-1s-0.1-0.6-0.4-0.9c-0.2-0.2-0.6-0.4-1.2-0.5l-1.5-0.4c-0.8-0.2-1.3-0.5-1.8-0.9s-0.6-0.9-0.6-1.5
			c0-0.8,0.3-1.4,1-1.9c0.6-0.5,1.5-0.7,2.5-0.7c0.6,0,1.2,0.1,1.8,0.3c0.6,0.2,1,0.5,1.4,0.9l-0.5,1.1c-0.9-0.7-1.8-1.1-2.7-1.1
			c-0.6,0-1.1,0.1-1.5,0.4c-0.4,0.2-0.5,0.6-0.5,1s0.1,0.7,0.3,0.9c0.2,0.2,0.6,0.4,1.1,0.5l1.5,0.4c0.8,0.2,1.5,0.5,1.9,0.9
			s0.6,0.9,0.6,1.6c0,0.8-0.3,1.4-1,1.9s-1.5,0.7-2.6,0.7C908,273.9,906.8,273.5,905.9,272.8z"/>
		<path class="st2" d="M914.9,272.8l0.5-1.1c0.5,0.4,1,0.7,1.5,0.8c0.5,0.2,1.1,0.3,1.7,0.3c0.7,0,1.2-0.1,1.6-0.4
			c0.4-0.2,0.5-0.6,0.5-1s-0.1-0.6-0.4-0.9c-0.2-0.2-0.6-0.4-1.2-0.5l-1.5-0.4c-0.8-0.2-1.3-0.5-1.8-0.9s-0.6-0.9-0.6-1.5
			c0-0.8,0.3-1.4,1-1.9c0.6-0.5,1.5-0.7,2.5-0.7c0.6,0,1.2,0.1,1.8,0.3c0.6,0.2,1,0.5,1.4,0.9l-0.5,1.1c-0.9-0.7-1.8-1.1-2.7-1.1
			c-0.6,0-1.1,0.1-1.5,0.4c-0.4,0.2-0.5,0.6-0.5,1s0.1,0.7,0.3,0.9c0.2,0.2,0.6,0.4,1.1,0.5l1.5,0.4c0.8,0.2,1.5,0.5,1.9,0.9
			s0.6,0.9,0.6,1.6c0,0.8-0.3,1.4-1,1.9s-1.5,0.7-2.6,0.7C917,273.9,915.8,273.5,914.9,272.8z"/>
	</g>
	<rect x="823.5" y="12.1" class="st6" width="136.7" height="63.5"/>
	<g class="st4">
		<path class="st3" d="M869.5,24.3h-6.7l-1.4,3.3h-1.5l5.6-12.8h1.3l5.6,12.8h-1.5L869.5,24.3z M869,23l-2.8-6.6l-2.8,6.6H869z"/>
		<path class="st3" d="M882.2,18.5v9c0,1.3-0.3,2.4-1,3.1s-1.7,1-3.1,1c-1.4,0-2.6-0.3-3.6-0.9l0.3-1.2c0.6,0.3,1.1,0.6,1.6,0.7
			s1.1,0.2,1.7,0.2c0.9,0,1.5-0.2,2-0.7c0.4-0.5,0.7-1.1,0.7-2.1v-2.1c-0.3,0.6-0.7,1-1.2,1.3s-1.2,0.5-1.9,0.5
			c-0.8,0-1.5-0.2-2.1-0.6s-1.1-0.9-1.4-1.6c-0.3-0.7-0.5-1.5-0.5-2.4s0.2-1.7,0.5-2.4c0.3-0.7,0.8-1.2,1.4-1.6s1.3-0.6,2.1-0.6
			c0.7,0,1.3,0.2,1.9,0.5c0.5,0.3,0.9,0.8,1.2,1.3v-1.6h1.4L882.2,18.5L882.2,18.5z M880,25.2c0.5-0.6,0.7-1.4,0.7-2.4
			s-0.2-1.8-0.7-2.4s-1.2-0.9-2.1-0.9c-0.9,0-1.6,0.3-2.1,0.9s-0.8,1.4-0.8,2.4s0.3,1.8,0.8,2.4s1.2,0.9,2.1,0.9
			S879.5,25.8,880,25.2z"/>
		<path class="st3" d="M892.6,23H886c0,1.2,0.3,2,0.8,2.6s1.3,0.9,2.3,0.9c1.1,0,2-0.4,2.9-1.1l0.5,1.1c-0.4,0.4-0.9,0.7-1.5,0.9
			s-1.3,0.3-1.9,0.3c-1.4,0-2.5-0.4-3.3-1.3s-1.2-2-1.2-3.4c0-0.9,0.2-1.7,0.5-2.5s0.9-1.3,1.5-1.7c0.6-0.4,1.4-0.6,2.2-0.6
			c1.2,0,2.1,0.4,2.8,1.2c0.7,0.8,1,1.9,1,3.2V23z M886.9,20.1c-0.5,0.5-0.8,1.1-0.9,1.9h5.3c-0.1-0.9-0.3-1.5-0.7-1.9
			s-1-0.7-1.8-0.7S887.4,19.6,886.9,20.1z"/>
		<path class="st3" d="M902.6,21.9v5.7h-1.5V22c0-0.8-0.2-1.5-0.5-1.8s-0.9-0.6-1.6-0.6c-0.8,0-1.5,0.3-2,0.8s-0.8,1.2-0.8,2.1v5.2
			h-1.5V21c0-0.9,0-1.8-0.1-2.5h1.4l0.1,1.6c0.3-0.6,0.7-1,1.2-1.4c0.6-0.3,1.2-0.5,1.9-0.5C901.5,18.3,902.6,19.5,902.6,21.9z"/>
		<path class="st3" d="M906.9,27.1c-0.7-0.4-1.2-0.9-1.5-1.6c-0.4-0.7-0.5-1.5-0.5-2.5c0-0.9,0.2-1.8,0.5-2.5
			c0.4-0.7,0.9-1.3,1.5-1.7c0.7-0.4,1.4-0.6,2.3-0.6c0.6,0,1.2,0.1,1.8,0.3c0.6,0.2,1,0.5,1.4,0.9l-0.5,1.1
			c-0.5-0.4-0.9-0.6-1.3-0.8s-0.9-0.3-1.3-0.3c-0.9,0-1.7,0.3-2.2,0.9s-0.8,1.5-0.8,2.6s0.3,1.9,0.8,2.5s1.3,0.9,2.2,0.9
			c0.4,0,0.9-0.1,1.3-0.3s0.9-0.4,1.3-0.8l0.5,1.1c-0.4,0.4-0.9,0.6-1.4,0.9c-0.6,0.2-1.2,0.3-1.8,0.3
			C908.3,27.7,907.5,27.5,906.9,27.1z"/>
		<path class="st3" d="M922.2,18.5l-4.2,9.9c-0.4,1-1,1.8-1.7,2.3s-1.5,0.8-2.5,1l-0.3-1.1c0.9-0.2,1.5-0.4,1.9-0.8
			c0.4-0.3,0.8-0.8,1.1-1.5l0.4-0.8l-3.8-9h1.5l3.1,7.5l3.1-7.5H922.2z"/>
	</g>
	<g class="st4">
		<path class="st3" d="M843.1,45.9h-6.7l-1.4,3.3h-1.5l5.6-12.8h1.3l5.6,12.8h-1.5L843.1,45.9z M842.6,44.6l-2.8-6.6l-2.8,6.6H842.6
			z"/>
		<path class="st3" d="M855.3,40.1v9.1h-1.4v-1.6c-0.3,0.6-0.7,1-1.2,1.3s-1.1,0.4-1.7,0.4c-1.1,0-1.9-0.3-2.4-0.9
			c-0.6-0.6-0.8-1.5-0.8-2.7v-5.6h1.5v5.6c0,0.8,0.2,1.4,0.5,1.8s0.8,0.6,1.5,0.6c0.8,0,1.5-0.3,1.9-0.8c0.5-0.5,0.7-1.2,0.7-2.1
			v-5.1H855.3z"/>
		<path class="st3" d="M860.1,41.2v5c0,0.7,0.1,1.1,0.4,1.4c0.3,0.3,0.7,0.4,1.2,0.4c0.3,0,0.7-0.1,1-0.2V49
			c-0.4,0.1-0.8,0.2-1.3,0.2c-0.9,0-1.5-0.2-2-0.7s-0.7-1.2-0.7-2.2v-5.1h-1.8V40h1.8v-2.3l1.5-0.5V40h2.6v1.2H860.1z"/>
		<path class="st3" d="M872.2,43.5v5.7h-1.5v-5.6c0-0.8-0.2-1.5-0.5-1.8s-0.9-0.6-1.6-0.6c-0.8,0-1.5,0.3-2,0.8s-0.8,1.2-0.8,2.1
			v5.2h-1.5V35.9h1.5v5.7c0.3-0.6,0.7-1,1.2-1.3s1.1-0.4,1.8-0.4C871.1,39.9,872.2,41.1,872.2,43.5z"/>
		<path class="st3" d="M876.5,48.7c-0.6-0.4-1.1-0.9-1.5-1.6c-0.4-0.7-0.5-1.5-0.5-2.5c0-0.9,0.2-1.8,0.5-2.5
			c0.4-0.7,0.9-1.3,1.5-1.6c0.6-0.4,1.4-0.6,2.2-0.6c0.9,0,1.6,0.2,2.2,0.6c0.6,0.4,1.1,0.9,1.5,1.6c0.4,0.7,0.5,1.5,0.5,2.5
			c0,0.9-0.2,1.8-0.5,2.5c-0.4,0.7-0.9,1.3-1.5,1.6c-0.6,0.4-1.4,0.6-2.2,0.6S877.1,49.1,876.5,48.7z M880.8,47.2
			c0.5-0.6,0.7-1.5,0.7-2.6s-0.2-2-0.7-2.6s-1.2-0.9-2.1-0.9c-0.9,0-1.6,0.3-2.1,0.9c-0.5,0.6-0.7,1.5-0.7,2.6s0.2,2,0.7,2.6
			s1.2,0.9,2.1,0.9C879.6,48.1,880.3,47.8,880.8,47.2z"/>
		<path class="st3" d="M890.3,40v1.3c-0.3-0.1-0.6-0.1-1-0.1c-0.9,0-1.5,0.3-2,0.8c-0.4,0.5-0.6,1.2-0.6,2v5.2h-1.5v-6.5
			c0-0.9,0-1.8-0.1-2.5h1.4l0.1,1.7c0.2-0.6,0.6-1.1,1.1-1.4s1.1-0.5,1.7-0.5C889.8,39.9,890.1,39.9,890.3,40z"/>
		<path class="st3" d="M893.4,36.3V38h-1.8v-1.7H893.4z M891.8,40.1h1.5v9.1h-1.5V40.1z"/>
		<path class="st3" d="M903.2,48v1.2h-7.6v-1l5.7-6.9h-5.5v-1.2h7.3v1.1l-5.7,6.8C897.4,48,903.2,48,903.2,48z"/>
		<path class="st3" d="M913.2,40.1v9.1h-1.4v-1.6c-0.3,0.6-0.7,1-1.2,1.3s-1.2,0.5-1.9,0.5c-0.8,0-1.5-0.2-2.1-0.6
			c-0.6-0.4-1.1-0.9-1.4-1.6s-0.5-1.5-0.5-2.5c0-0.9,0.2-1.8,0.5-2.5s0.8-1.3,1.4-1.7c0.6-0.4,1.3-0.6,2.1-0.6
			c0.7,0,1.3,0.2,1.9,0.5c0.5,0.3,0.9,0.8,1.2,1.3v-1.6C911.8,40.1,913.2,40.1,913.2,40.1z M911,47.2c0.5-0.6,0.7-1.5,0.7-2.6
			s-0.2-2-0.7-2.6s-1.2-0.9-2.1-0.9s-1.6,0.3-2.1,0.9s-0.7,1.5-0.7,2.6s0.2,2,0.7,2.6s1.2,0.9,2.1,0.9
			C909.8,48.1,910.5,47.8,911,47.2z"/>
		<path class="st3" d="M917.9,41.2v5c0,0.7,0.1,1.1,0.4,1.4c0.3,0.3,0.7,0.4,1.2,0.4c0.3,0,0.7-0.1,1-0.2V49
			c-0.4,0.1-0.8,0.2-1.3,0.2c-0.9,0-1.5-0.2-2-0.7s-0.7-1.2-0.7-2.2v-5.1h-1.8V40h1.8v-2.3l1.5-0.5V40h2.6v1.2
			C920.6,41.2,917.9,41.2,917.9,41.2z"/>
		<path class="st3" d="M923.9,36.3V38h-1.8v-1.7H923.9z M922.3,40.1h1.5v9.1h-1.5V40.1z"/>
		<path class="st3" d="M928.1,48.7c-0.6-0.4-1.1-0.9-1.5-1.6s-0.5-1.5-0.5-2.5c0-0.9,0.2-1.8,0.5-2.5s0.9-1.3,1.5-1.6
			c0.6-0.4,1.4-0.6,2.2-0.6s1.6,0.2,2.2,0.6c0.6,0.4,1.1,0.9,1.5,1.6s0.5,1.5,0.5,2.5c0,0.9-0.2,1.8-0.5,2.5s-0.9,1.3-1.5,1.6
			c-0.6,0.4-1.4,0.6-2.2,0.6S928.7,49.1,928.1,48.7z M932.4,47.2c0.5-0.6,0.7-1.5,0.7-2.6s-0.2-2-0.7-2.6s-1.2-0.9-2.1-0.9
			c-0.9,0-1.6,0.3-2.1,0.9c-0.5,0.6-0.7,1.5-0.7,2.6s0.2,2,0.7,2.6s1.2,0.9,2.1,0.9S931.9,47.8,932.4,47.2z"/>
		<path class="st3" d="M944.6,43.5v5.7h-1.5v-5.6c0-0.8-0.2-1.5-0.5-1.8s-0.9-0.6-1.6-0.6c-0.8,0-1.5,0.3-2,0.8s-0.8,1.2-0.8,2.1
			v5.2h-1.5v-6.5c0-0.9,0-1.8-0.1-2.5h1.4l0.1,1.6c0.3-0.6,0.7-1,1.2-1.4c0.6-0.3,1.2-0.5,1.9-0.5C943.6,39.9,944.6,41.1,944.6,43.5
			z"/>
	</g>
	<g class="st4">
		<path class="st3" d="M859.8,57.9h5.1c1.3,0,2.3,0.3,3.1,1c0.7,0.6,1.1,1.5,1.1,2.6s-0.4,2-1.1,2.6c-0.7,0.6-1.8,1-3.1,1h-3.6v5.6
			h-1.5V57.9z M864.8,63.9c0.9,0,1.7-0.2,2.1-0.6c0.5-0.4,0.7-1,0.7-1.8s-0.2-1.4-0.7-1.8c-0.5-0.4-1.2-0.6-2.1-0.6h-3.5v4.7
			L864.8,63.9L864.8,63.9z"/>
		<path class="st3" d="M876.2,61.6v1.3c-0.3-0.1-0.6-0.1-1-0.1c-0.9,0-1.5,0.3-2,0.8c-0.4,0.5-0.6,1.2-0.6,2v5.2h-1.5v-6.5
			c0-0.9,0-1.8-0.1-2.5h1.4l0.1,1.7c0.2-0.6,0.6-1.1,1.1-1.4c0.5-0.3,1.1-0.5,1.7-0.5C875.7,61.5,876,61.5,876.2,61.6z"/>
		<path class="st3" d="M879,70.3c-0.6-0.4-1.1-0.9-1.5-1.6s-0.5-1.5-0.5-2.5c0-0.9,0.2-1.8,0.5-2.5c0.4-0.7,0.9-1.3,1.5-1.6
			c0.6-0.4,1.4-0.6,2.2-0.6c0.9,0,1.6,0.2,2.2,0.6c0.6,0.4,1.1,0.9,1.5,1.6s0.5,1.5,0.5,2.5c0,0.9-0.2,1.8-0.5,2.5
			c-0.4,0.7-0.9,1.3-1.5,1.6c-0.6,0.4-1.4,0.6-2.2,0.6S879.7,70.7,879,70.3z M883.3,68.8c0.5-0.6,0.7-1.5,0.7-2.6s-0.2-2-0.7-2.6
			s-1.2-0.9-2.1-0.9c-0.9,0-1.6,0.3-2.1,0.9c-0.5,0.6-0.7,1.5-0.7,2.6s0.2,2,0.7,2.6s1.2,0.9,2.1,0.9
			C882.2,69.7,882.9,69.4,883.3,68.8z"/>
		<path class="st3" d="M889.3,70.3c-0.7-0.4-1.2-0.9-1.5-1.6c-0.4-0.7-0.5-1.5-0.5-2.5c0-0.9,0.2-1.8,0.5-2.5s0.9-1.3,1.5-1.7
			c0.7-0.4,1.4-0.6,2.3-0.6c0.6,0,1.2,0.1,1.8,0.3s1,0.5,1.4,0.9l-0.5,1.1c-0.5-0.4-0.9-0.6-1.3-0.8s-0.9-0.3-1.3-0.3
			c-0.9,0-1.7,0.3-2.2,0.9c-0.5,0.6-0.8,1.5-0.8,2.6s0.3,1.9,0.8,2.5s1.3,0.9,2.2,0.9c0.4,0,0.9-0.1,1.3-0.3s0.9-0.4,1.3-0.8
			l0.5,1.1c-0.4,0.4-0.9,0.6-1.4,0.9c-0.6,0.2-1.2,0.3-1.8,0.3C890.7,70.9,890,70.7,889.3,70.3z"/>
		<path class="st3" d="M904.3,66.2h-6.6c0,1.2,0.3,2,0.8,2.6s1.3,0.9,2.3,0.9c1.1,0,2-0.4,2.9-1.1l0.5,1.1c-0.4,0.4-0.9,0.7-1.5,0.9
			s-1.3,0.3-1.9,0.3c-1.4,0-2.5-0.4-3.3-1.3c-0.8-0.8-1.2-2-1.2-3.4c0-0.9,0.2-1.7,0.5-2.5c0.4-0.7,0.9-1.3,1.5-1.7s1.4-0.6,2.2-0.6
			c1.2,0,2.1,0.4,2.8,1.2s1,1.9,1,3.2V66.2z M898.6,63.3c-0.5,0.5-0.8,1.1-0.9,1.9h5.3c-0.1-0.9-0.3-1.5-0.7-1.9s-1-0.7-1.8-0.7
			S899.1,62.8,898.6,63.3z"/>
		<path class="st3" d="M906,69.7l0.5-1.1c0.5,0.4,1,0.7,1.5,0.8c0.5,0.2,1.1,0.3,1.7,0.3c0.7,0,1.2-0.1,1.6-0.4
			c0.4-0.2,0.5-0.6,0.5-1s-0.1-0.6-0.4-0.9c-0.2-0.2-0.6-0.4-1.2-0.5l-1.5-0.4c-0.8-0.2-1.3-0.5-1.8-0.9s-0.6-0.9-0.6-1.5
			c0-0.8,0.3-1.4,1-1.9c0.6-0.5,1.5-0.7,2.5-0.7c0.6,0,1.2,0.1,1.8,0.3s1,0.5,1.4,0.9l-0.5,1.1c-0.9-0.7-1.8-1.1-2.7-1.1
			c-0.6,0-1.1,0.1-1.5,0.4c-0.4,0.2-0.5,0.6-0.5,1s0.1,0.7,0.3,0.9c0.2,0.2,0.6,0.4,1.1,0.5l1.5,0.4c0.8,0.2,1.5,0.5,1.9,0.9
			s0.6,0.9,0.6,1.6c0,0.8-0.3,1.4-1,1.9s-1.5,0.7-2.6,0.7C908,70.9,906.8,70.5,906,69.7z"/>
		<path class="st3" d="M914.9,69.7l0.5-1.1c0.5,0.4,1,0.7,1.5,0.8c0.5,0.2,1.1,0.3,1.7,0.3c0.7,0,1.2-0.1,1.6-0.4
			c0.4-0.2,0.5-0.6,0.5-1s-0.1-0.6-0.4-0.9c-0.2-0.2-0.6-0.4-1.2-0.5l-1.5-0.4c-0.8-0.2-1.3-0.5-1.8-0.9s-0.6-0.9-0.6-1.5
			c0-0.8,0.3-1.4,1-1.9c0.6-0.5,1.5-0.7,2.5-0.7c0.6,0,1.2,0.1,1.8,0.3s1,0.5,1.4,0.9l-0.5,1.1c-0.9-0.7-1.8-1.1-2.7-1.1
			c-0.6,0-1.1,0.1-1.5,0.4c-0.4,0.2-0.5,0.6-0.5,1s0.1,0.7,0.3,0.9c0.2,0.2,0.6,0.4,1.1,0.5l1.5,0.4c0.8,0.2,1.5,0.5,1.9,0.9
			s0.6,0.9,0.6,1.6c0,0.8-0.3,1.4-1,1.9s-1.5,0.7-2.6,0.7C917,70.9,915.8,70.5,914.9,69.7z"/>
	</g>
	<rect x="653.2" y="225.8" class="st6" width="136.7" height="41.9"/>
	<g class="st4">
		<path class="st2" d="M670.6,228.4h7.9v1.2H672v4.4h6.1v1.2H672v5.9h-1.5L670.6,228.4L670.6,228.4z"/>
		<path class="st2" d="M688,232.1v9.1h-1.4v-1.6c-0.3,0.6-0.7,1-1.2,1.3s-1.1,0.4-1.7,0.4c-1.1,0-1.9-0.3-2.4-0.9
			c-0.6-0.6-0.8-1.5-0.8-2.7v-5.6h1.5v5.6c0,0.8,0.2,1.4,0.5,1.8s0.8,0.6,1.5,0.6c0.8,0,1.5-0.3,1.9-0.8c0.5-0.5,0.7-1.2,0.7-2.1
			v-5.1H688z"/>
		<path class="st2" d="M690.8,228h1.5v13.2h-1.5V228z"/>
		<path class="st2" d="M695.1,228h1.5v13.2h-1.5V228z"/>
		<path class="st2" d="M703.5,239.7l0.6-1.1c0.6,0.5,1.3,0.9,1.9,1.2c0.7,0.2,1.4,0.3,2.3,0.3c1,0,1.8-0.2,2.4-0.6
			c0.6-0.4,0.8-1,0.8-1.7c0-0.4-0.1-0.8-0.4-1.1c-0.3-0.3-0.6-0.5-1.1-0.6c-0.4-0.2-1-0.3-1.8-0.5c-1-0.2-1.8-0.5-2.4-0.7
			s-1.2-0.6-1.5-1.1c-0.4-0.5-0.6-1.1-0.6-1.9c0-0.7,0.2-1.4,0.6-1.9c0.4-0.6,0.9-1,1.6-1.3c0.7-0.3,1.5-0.5,2.5-0.5
			c0.9,0,1.7,0.1,2.5,0.4s1.4,0.7,1.9,1.2l-0.6,1.1c-0.6-0.5-1.2-0.9-1.8-1.1s-1.3-0.4-2-0.4c-1,0-1.8,0.2-2.3,0.6
			c-0.6,0.4-0.8,1-0.8,1.8c0,0.6,0.2,1.1,0.7,1.5c0.5,0.3,1.2,0.6,2.3,0.8c1.1,0.3,2,0.5,2.6,0.7s1.2,0.6,1.6,1
			c0.4,0.4,0.6,1,0.6,1.8c0,0.7-0.2,1.4-0.6,1.9c-0.4,0.5-0.9,1-1.6,1.3s-1.6,0.4-2.5,0.4C706.3,241.3,704.7,240.8,703.5,239.7z"/>
		<path class="st2" d="M722.8,236.6h-6.6c0,1.2,0.3,2,0.8,2.6s1.3,0.9,2.3,0.9c1.1,0,2-0.4,2.9-1.1l0.5,1.1
			c-0.4,0.4-0.9,0.7-1.5,0.9s-1.3,0.3-1.9,0.3c-1.4,0-2.5-0.4-3.3-1.3c-0.8-0.8-1.2-2-1.2-3.4c0-0.9,0.2-1.7,0.5-2.5
			c0.4-0.7,0.9-1.3,1.5-1.7s1.4-0.6,2.2-0.6c1.2,0,2.1,0.4,2.8,1.2s1,1.9,1,3.2V236.6z M717.2,233.7c-0.5,0.5-0.8,1.1-0.9,1.9h5.3
			c-0.1-0.9-0.3-1.5-0.7-1.9s-1-0.7-1.8-0.7S717.6,233.3,717.2,233.7z"/>
		<path class="st2" d="M726.6,240.8c-0.7-0.4-1.2-0.9-1.5-1.6c-0.4-0.7-0.5-1.5-0.5-2.5c0-0.9,0.2-1.8,0.5-2.5
			c0.4-0.7,0.9-1.3,1.5-1.7c0.7-0.4,1.4-0.6,2.3-0.6c0.6,0,1.2,0.1,1.8,0.3s1,0.5,1.4,0.9l-0.5,1.1c-0.5-0.4-0.9-0.6-1.3-0.8
			s-0.9-0.3-1.3-0.3c-0.9,0-1.7,0.3-2.2,0.9c-0.5,0.6-0.8,1.5-0.8,2.6s0.3,1.9,0.8,2.5s1.3,0.9,2.2,0.9c0.4,0,0.9-0.1,1.3-0.3
			s0.9-0.4,1.3-0.8l0.5,1.1c-0.4,0.4-0.9,0.6-1.4,0.9c-0.6,0.2-1.2,0.3-1.8,0.3C728,241.3,727.2,241.1,726.6,240.8z"/>
		<path class="st2" d="M741.5,232.1v9.1h-1.4v-1.6c-0.3,0.6-0.7,1-1.2,1.3s-1.1,0.4-1.7,0.4c-1.1,0-1.9-0.3-2.4-0.9
			c-0.6-0.6-0.8-1.5-0.8-2.7v-5.6h1.5v5.6c0,0.8,0.2,1.4,0.5,1.8s0.8,0.6,1.5,0.6c0.8,0,1.5-0.3,1.9-0.8c0.5-0.5,0.7-1.2,0.7-2.1
			v-5.1H741.5z"/>
		<path class="st2" d="M749.4,232v1.3c-0.3-0.1-0.6-0.1-1-0.1c-0.9,0-1.5,0.3-2,0.8c-0.4,0.5-0.6,1.2-0.6,2v5.2h-1.5v-6.5
			c0-0.9,0-1.8-0.1-2.5h1.4l0.1,1.7c0.2-0.6,0.6-1.1,1.1-1.4s1.1-0.5,1.7-0.5C748.9,231.9,749.1,232,749.4,232z"/>
		<path class="st2" d="M752.5,228.3v1.7h-1.8v-1.7H752.5z M750.9,232.1h1.5v9.1h-1.5V232.1z"/>
		<path class="st2" d="M757.1,233.3v5c0,0.7,0.1,1.1,0.4,1.4c0.3,0.3,0.7,0.4,1.2,0.4c0.3,0,0.7-0.1,1-0.2v1.2
			c-0.4,0.1-0.8,0.2-1.3,0.2c-0.9,0-1.5-0.2-2-0.7s-0.7-1.2-0.7-2.2v-5.1h-1.8v-1.2h1.8v-2.3l1.5-0.5v2.8h2.6v1.2L757.1,233.3
			L757.1,233.3z"/>
		<path class="st2" d="M769.5,232.1l-4.2,9.9c-0.4,1-1,1.8-1.7,2.3s-1.5,0.8-2.5,1l-0.3-1.1c0.9-0.2,1.5-0.4,1.9-0.8
			c0.4-0.3,0.8-0.8,1.1-1.5l0.4-0.8l-3.8-9h1.5l3.1,7.5l3.1-7.5L769.5,232.1L769.5,232.1z"/>
	</g>
	<g class="st4">
		<path class="st2" d="M679.3,259.5h-6.7l-1.4,3.3h-1.5l5.6-12.8h1.3l5.6,12.8h-1.5L679.3,259.5z M678.8,258.3l-2.8-6.6l-2.8,6.6
			H678.8z"/>
		<path class="st2" d="M683.3,261.8l0.5-1.1c0.5,0.4,1,0.7,1.5,0.8c0.5,0.2,1.1,0.3,1.7,0.3c0.7,0,1.2-0.1,1.6-0.4
			c0.4-0.2,0.5-0.6,0.5-1s-0.1-0.6-0.4-0.9c-0.2-0.2-0.6-0.4-1.2-0.5l-1.5-0.4c-0.8-0.2-1.3-0.5-1.8-0.9s-0.6-0.9-0.6-1.5
			c0-0.8,0.3-1.4,1-1.9c0.6-0.5,1.5-0.7,2.5-0.7c0.6,0,1.2,0.1,1.8,0.3s1,0.5,1.4,0.9l-0.5,1.1c-0.9-0.7-1.8-1.1-2.7-1.1
			c-0.6,0-1.1,0.1-1.5,0.4c-0.4,0.2-0.5,0.6-0.5,1s0.1,0.7,0.3,0.9c0.2,0.2,0.6,0.4,1.1,0.5l1.5,0.4c0.8,0.2,1.5,0.5,1.9,0.9
			s0.6,0.9,0.6,1.6c0,0.8-0.3,1.4-1,1.9s-1.5,0.7-2.6,0.7C685.4,262.9,684.2,262.5,683.3,261.8z"/>
		<path class="st2" d="M692.2,261.8l0.5-1.1c0.5,0.4,1,0.7,1.5,0.8c0.5,0.2,1.1,0.3,1.7,0.3c0.7,0,1.2-0.1,1.6-0.4
			c0.4-0.2,0.5-0.6,0.5-1s-0.1-0.6-0.4-0.9c-0.2-0.2-0.6-0.4-1.2-0.5l-1.5-0.4c-0.8-0.2-1.3-0.5-1.8-0.9s-0.6-0.9-0.6-1.5
			c0-0.8,0.3-1.4,1-1.9c0.6-0.5,1.5-0.7,2.5-0.7c0.6,0,1.2,0.1,1.8,0.3s1,0.5,1.4,0.9l-0.5,1.1c-0.9-0.7-1.8-1.1-2.7-1.1
			c-0.6,0-1.1,0.1-1.5,0.4c-0.4,0.2-0.5,0.6-0.5,1s0.1,0.7,0.3,0.9c0.2,0.2,0.6,0.4,1.1,0.5l1.5,0.4c0.8,0.2,1.5,0.5,1.9,0.9
			s0.6,0.9,0.6,1.6c0,0.8-0.3,1.4-1,1.9s-1.5,0.7-2.6,0.7C694.3,262.9,693.1,262.5,692.2,261.8z"/>
		<path class="st2" d="M709.3,258.2h-6.6c0,1.2,0.3,2,0.8,2.6s1.3,0.9,2.3,0.9c1.1,0,2-0.4,2.9-1.1l0.5,1.1
			c-0.4,0.4-0.9,0.7-1.5,0.9s-1.3,0.3-1.9,0.3c-1.4,0-2.5-0.4-3.3-1.3c-0.8-0.8-1.2-2-1.2-3.4c0-0.9,0.2-1.7,0.5-2.5
			c0.4-0.7,0.9-1.3,1.5-1.7s1.4-0.6,2.2-0.6c1.2,0,2.1,0.4,2.8,1.2s1,1.9,1,3.2V258.2z M703.6,255.3c-0.5,0.5-0.8,1.1-0.9,1.9h5.3
			c-0.1-0.9-0.3-1.5-0.7-1.9s-1-0.7-1.8-0.7S704.1,254.9,703.6,255.3z"/>
		<path class="st2" d="M710.9,261.8l0.5-1.1c0.5,0.4,1,0.7,1.5,0.8c0.5,0.2,1.1,0.3,1.7,0.3c0.7,0,1.2-0.1,1.6-0.4
			c0.4-0.2,0.5-0.6,0.5-1s-0.1-0.6-0.4-0.9c-0.2-0.2-0.6-0.4-1.2-0.5l-1.5-0.4c-0.8-0.2-1.3-0.5-1.8-0.9s-0.6-0.9-0.6-1.5
			c0-0.8,0.3-1.4,1-1.9c0.6-0.5,1.5-0.7,2.5-0.7c0.6,0,1.2,0.1,1.8,0.3s1,0.5,1.4,0.9l-0.5,1.1c-0.9-0.7-1.8-1.1-2.7-1.1
			c-0.6,0-1.1,0.1-1.5,0.4c-0.4,0.2-0.5,0.6-0.5,1s0.1,0.7,0.3,0.9c0.2,0.2,0.6,0.4,1.1,0.5l1.5,0.4c0.8,0.2,1.5,0.5,1.9,0.9
			s0.6,0.9,0.6,1.6c0,0.8-0.3,1.4-1,1.9s-1.5,0.7-2.6,0.7C713,262.9,711.8,262.5,710.9,261.8z"/>
		<path class="st2" d="M719.9,261.8l0.5-1.1c0.5,0.4,1,0.7,1.5,0.8c0.5,0.2,1.1,0.3,1.7,0.3c0.7,0,1.2-0.1,1.6-0.4
			c0.4-0.2,0.5-0.6,0.5-1s-0.1-0.6-0.4-0.9c-0.2-0.2-0.6-0.4-1.2-0.5l-1.5-0.4c-0.8-0.2-1.3-0.5-1.8-0.9s-0.6-0.9-0.6-1.5
			c0-0.8,0.3-1.4,1-1.9c0.6-0.5,1.5-0.7,2.5-0.7c0.6,0,1.2,0.1,1.8,0.3s1,0.5,1.4,0.9l-0.5,1.1c-0.9-0.7-1.8-1.1-2.7-1.1
			c-0.6,0-1.1,0.1-1.5,0.4c-0.4,0.2-0.5,0.6-0.5,1s0.1,0.7,0.3,0.9c0.2,0.2,0.6,0.4,1.1,0.5l1.5,0.4c0.8,0.2,1.5,0.5,1.9,0.9
			s0.6,0.9,0.6,1.6c0,0.8-0.3,1.4-1,1.9s-1.5,0.7-2.6,0.7C722,262.9,720.8,262.5,719.9,261.8z"/>
		<path class="st2" d="M742.4,257.1v5.7h-1.5v-5.6c0-0.9-0.1-1.5-0.4-1.9s-0.8-0.6-1.4-0.6c-0.8,0-1.4,0.3-1.8,0.8
			c-0.4,0.5-0.6,1.2-0.6,2.1v5.2h-1.5v-5.6c0-0.8-0.2-1.5-0.5-1.8s-0.8-0.6-1.4-0.6c-0.8,0-1.4,0.3-1.8,0.8
			c-0.4,0.5-0.7,1.2-0.7,2.1v5.2h-1.5v-6.5c0-0.9,0-1.8-0.1-2.5h1.4l0.1,1.6c0.3-0.6,0.6-1,1.1-1.3s1.1-0.5,1.7-0.5
			c0.7,0,1.3,0.1,1.8,0.4s0.8,0.7,1,1.3c0.3-0.5,0.7-1,1.2-1.3s1.1-0.5,1.8-0.5C741.4,253.5,742.4,254.7,742.4,257.1z"/>
		<path class="st2" d="M752.8,258.2h-6.6c0,1.2,0.3,2,0.8,2.6s1.3,0.9,2.3,0.9c1.1,0,2-0.4,2.9-1.1l0.5,1.1
			c-0.4,0.4-0.9,0.7-1.5,0.9s-1.3,0.3-1.9,0.3c-1.4,0-2.5-0.4-3.3-1.3s-1.2-2-1.2-3.4c0-0.9,0.2-1.7,0.5-2.5s0.9-1.3,1.5-1.7
			s1.4-0.6,2.2-0.6c1.2,0,2.1,0.4,2.8,1.2s1,1.9,1,3.2V258.2z M747.1,255.3c-0.5,0.5-0.8,1.1-0.9,1.9h5.3c-0.1-0.9-0.3-1.5-0.7-1.9
			s-1-0.7-1.8-0.7S747.5,254.9,747.1,255.3z"/>
		<path class="st2" d="M762.7,257.1v5.7h-1.5v-5.6c0-0.8-0.2-1.5-0.5-1.8s-0.9-0.6-1.6-0.6c-0.8,0-1.5,0.3-2,0.8s-0.8,1.2-0.8,2.1
			v5.2H755v-6.5c0-0.9,0-1.8-0.1-2.5h1.4l0.1,1.6c0.3-0.6,0.7-1,1.2-1.4c0.6-0.3,1.2-0.5,1.9-0.5
			C761.7,253.5,762.7,254.7,762.7,257.1z"/>
		<path class="st2" d="M767.4,254.9v5c0,0.7,0.1,1.1,0.4,1.4c0.3,0.3,0.7,0.4,1.2,0.4c0.3,0,0.7-0.1,1-0.2v1.2
			c-0.4,0.1-0.8,0.2-1.3,0.2c-0.9,0-1.5-0.2-2-0.7S766,261,766,260v-5.1h-1.8v-1.2h1.8v-2.3l1.5-0.5v2.8h2.6v1.2H767.4L767.4,254.9z
			"/>
	</g>
	<rect x="653.2" y="22.7" class="st6" width="136.7" height="41.9"/>
	<g class="st4">
		<path class="st3" d="M670.6,25.3h7.9v1.2H672V31h6.1v1.2H672v5.9h-1.5L670.6,25.3L670.6,25.3z"/>
		<path class="st3" d="M688,29.1v9.1h-1.4v-1.6c-0.3,0.6-0.7,1-1.2,1.3s-1.1,0.4-1.7,0.4c-1.1,0-1.9-0.3-2.4-0.9
			c-0.6-0.6-0.8-1.5-0.8-2.7v-5.6h1.5v5.6c0,0.8,0.2,1.4,0.5,1.8s0.8,0.6,1.5,0.6c0.8,0,1.5-0.3,1.9-0.8c0.5-0.5,0.7-1.2,0.7-2.1
			v-5.1H688z"/>
		<path class="st3" d="M690.8,24.9h1.5v13.2h-1.5V24.9z"/>
		<path class="st3" d="M695.1,24.9h1.5v13.2h-1.5V24.9z"/>
		<path class="st3" d="M703.5,36.7l0.6-1.1c0.6,0.5,1.3,0.9,1.9,1.2c0.7,0.2,1.4,0.3,2.3,0.3c1,0,1.8-0.2,2.4-0.6
			c0.6-0.4,0.8-1,0.8-1.7c0-0.4-0.1-0.8-0.4-1.1c-0.3-0.3-0.6-0.5-1.1-0.6c-0.4-0.2-1-0.3-1.8-0.5c-1-0.2-1.8-0.5-2.4-0.7
			s-1.2-0.6-1.5-1.1c-0.4-0.5-0.6-1.1-0.6-1.9c0-0.7,0.2-1.4,0.6-1.9c0.4-0.6,0.9-1,1.6-1.3c0.7-0.3,1.5-0.5,2.5-0.5
			c0.9,0,1.7,0.1,2.5,0.4s1.4,0.7,1.9,1.2l-0.6,1.1c-0.6-0.5-1.2-0.9-1.8-1.1s-1.3-0.4-2-0.4c-1,0-1.8,0.2-2.3,0.6
			c-0.6,0.4-0.8,1-0.8,1.8c0,0.6,0.2,1.1,0.7,1.5c0.5,0.3,1.2,0.6,2.3,0.8c1.1,0.3,2,0.5,2.6,0.7s1.2,0.6,1.6,1
			c0.4,0.4,0.6,1,0.6,1.8c0,0.7-0.2,1.4-0.6,1.9c-0.4,0.5-0.9,1-1.6,1.3s-1.6,0.4-2.5,0.4C706.3,38.3,704.7,37.7,703.5,36.7z"/>
		<path class="st3" d="M722.8,33.6h-6.6c0,1.2,0.3,2,0.8,2.6s1.3,0.9,2.3,0.9c1.1,0,2-0.4,2.9-1.1l0.5,1.1c-0.4,0.4-0.9,0.7-1.5,0.9
			s-1.3,0.3-1.9,0.3c-1.4,0-2.5-0.4-3.3-1.3c-0.8-0.8-1.2-2-1.2-3.4c0-0.9,0.2-1.7,0.5-2.5c0.4-0.7,0.9-1.3,1.5-1.7
			c0.6-0.4,1.4-0.6,2.2-0.6c1.2,0,2.1,0.4,2.8,1.2c0.7,0.8,1,1.9,1,3.2V33.6z M717.2,30.7c-0.5,0.5-0.8,1.1-0.9,1.9h5.3
			c-0.1-0.9-0.3-1.5-0.7-1.9s-1-0.7-1.8-0.7S717.6,30.2,717.2,30.7z"/>
		<path class="st3" d="M726.6,37.7c-0.7-0.4-1.2-0.9-1.5-1.6c-0.4-0.7-0.5-1.5-0.5-2.5c0-0.9,0.2-1.8,0.5-2.5
			c0.4-0.7,0.9-1.3,1.5-1.7c0.7-0.4,1.4-0.6,2.3-0.6c0.6,0,1.2,0.1,1.8,0.3c0.6,0.2,1,0.5,1.4,0.9l-0.5,1.1
			c-0.5-0.4-0.9-0.6-1.3-0.8S729.4,30,729,30c-0.9,0-1.7,0.3-2.2,0.9s-0.8,1.5-0.8,2.6s0.3,1.9,0.8,2.5s1.3,0.9,2.2,0.9
			c0.4,0,0.9-0.1,1.3-0.3s0.9-0.4,1.3-0.8l0.5,1.1c-0.4,0.4-0.9,0.6-1.4,0.9c-0.6,0.2-1.2,0.3-1.8,0.3
			C728,38.3,727.2,38.1,726.6,37.7z"/>
		<path class="st3" d="M741.5,29.1v9.1h-1.4v-1.6c-0.3,0.6-0.7,1-1.2,1.3s-1.1,0.4-1.7,0.4c-1.1,0-1.9-0.3-2.4-0.9
			c-0.6-0.6-0.8-1.5-0.8-2.7v-5.6h1.5v5.6c0,0.8,0.2,1.4,0.5,1.8s0.8,0.6,1.5,0.6c0.8,0,1.5-0.3,1.9-0.8c0.5-0.5,0.7-1.2,0.7-2.1
			v-5.1H741.5z"/>
		<path class="st3" d="M749.4,29v1.3c-0.3-0.1-0.6-0.1-1-0.1c-0.9,0-1.5,0.3-2,0.8c-0.4,0.5-0.6,1.2-0.6,2v5.2h-1.5v-6.5
			c0-0.9,0-1.8-0.1-2.5h1.4l0.1,1.7c0.2-0.6,0.6-1.1,1.1-1.4s1.1-0.5,1.7-0.5C748.9,28.9,749.1,28.9,749.4,29z"/>
		<path class="st3" d="M752.5,25.3V27h-1.8v-1.7H752.5z M750.9,29.1h1.5v9.1h-1.5V29.1z"/>
		<path class="st3" d="M757.1,30.2v5c0,0.7,0.1,1.1,0.4,1.4c0.3,0.3,0.7,0.4,1.2,0.4c0.3,0,0.7-0.1,1-0.2V38
			c-0.4,0.1-0.8,0.2-1.3,0.2c-0.9,0-1.5-0.2-2-0.7s-0.7-1.2-0.7-2.2v-5.1h-1.8V29h1.8v-2.3l1.5-0.5V29h2.6v1.2H757.1z"/>
		<path class="st3" d="M769.5,29.1l-4.2,9.9c-0.4,1-1,1.8-1.7,2.3s-1.5,0.8-2.5,1l-0.3-1.1c0.9-0.2,1.5-0.4,1.9-0.8
			c0.4-0.3,0.8-0.8,1.1-1.5l0.4-0.8l-3.8-9h1.5l3.1,7.5l3.1-7.5C768.1,29.1,769.5,29.1,769.5,29.1z"/>
	</g>
	<g class="st4">
		<path class="st3" d="M679.3,56.4h-6.7l-1.4,3.3h-1.5l5.6-12.8h1.3l5.6,12.8h-1.5L679.3,56.4z M678.8,55.2l-2.8-6.6l-2.8,6.6H678.8
			z"/>
		<path class="st3" d="M683.3,58.7l0.5-1.1c0.5,0.4,1,0.7,1.5,0.8c0.5,0.2,1.1,0.3,1.7,0.3c0.7,0,1.2-0.1,1.6-0.4
			c0.4-0.2,0.5-0.6,0.5-1s-0.1-0.6-0.4-0.9c-0.2-0.2-0.6-0.4-1.2-0.5l-1.5-0.4c-0.8-0.2-1.3-0.5-1.8-0.9s-0.6-0.9-0.6-1.5
			c0-0.8,0.3-1.4,1-1.9c0.6-0.5,1.5-0.7,2.5-0.7c0.6,0,1.2,0.1,1.8,0.3s1,0.5,1.4,0.9l-0.5,1.1c-0.9-0.7-1.8-1.1-2.7-1.1
			c-0.6,0-1.1,0.1-1.5,0.4c-0.4,0.2-0.5,0.6-0.5,1s0.1,0.7,0.3,0.9s0.6,0.4,1.1,0.5l1.5,0.4c0.8,0.2,1.5,0.5,1.9,0.9
			s0.6,0.9,0.6,1.6c0,0.8-0.3,1.4-1,1.9S688,60,686.9,60C685.4,59.9,684.2,59.5,683.3,58.7z"/>
		<path class="st3" d="M692.2,58.7l0.5-1.1c0.5,0.4,1,0.7,1.5,0.8c0.5,0.2,1.1,0.3,1.7,0.3c0.7,0,1.2-0.1,1.6-0.4
			c0.4-0.2,0.5-0.6,0.5-1s-0.1-0.6-0.4-0.9c-0.2-0.2-0.6-0.4-1.2-0.5l-1.5-0.4c-0.8-0.2-1.3-0.5-1.8-0.9s-0.6-0.9-0.6-1.5
			c0-0.8,0.3-1.4,1-1.9c0.6-0.5,1.5-0.7,2.5-0.7c0.6,0,1.2,0.1,1.8,0.3s1,0.5,1.4,0.9l-0.5,1.1c-0.9-0.7-1.8-1.1-2.7-1.1
			c-0.6,0-1.1,0.1-1.5,0.4c-0.4,0.2-0.5,0.6-0.5,1s0.1,0.7,0.3,0.9s0.6,0.4,1.1,0.5l1.5,0.4c0.8,0.2,1.5,0.5,1.9,0.9
			s0.6,0.9,0.6,1.6c0,0.8-0.3,1.4-1,1.9s-1.5,0.7-2.6,0.7C694.3,59.9,693.1,59.5,692.2,58.7z"/>
		<path class="st3" d="M709.3,55.2h-6.6c0,1.2,0.3,2,0.8,2.6s1.3,0.9,2.3,0.9c1.1,0,2-0.4,2.9-1.1l0.5,1.1c-0.4,0.4-0.9,0.7-1.5,0.9
			s-1.3,0.3-1.9,0.3c-1.4,0-2.5-0.4-3.3-1.3c-0.8-0.8-1.2-2-1.2-3.4c0-0.9,0.2-1.7,0.5-2.5c0.4-0.7,0.9-1.3,1.5-1.7s1.4-0.6,2.2-0.6
			c1.2,0,2.1,0.4,2.8,1.2s1,1.9,1,3.2V55.2z M703.6,52.3c-0.5,0.5-0.8,1.1-0.9,1.9h5.3c-0.1-0.9-0.3-1.5-0.7-1.9s-1-0.7-1.8-0.7
			S704.1,51.8,703.6,52.3z"/>
		<path class="st3" d="M710.9,58.7l0.5-1.1c0.5,0.4,1,0.7,1.5,0.8c0.5,0.2,1.1,0.3,1.7,0.3c0.7,0,1.2-0.1,1.6-0.4
			c0.4-0.2,0.5-0.6,0.5-1s-0.1-0.6-0.4-0.9c-0.2-0.2-0.6-0.4-1.2-0.5l-1.5-0.4c-0.8-0.2-1.3-0.5-1.8-0.9s-0.6-0.9-0.6-1.5
			c0-0.8,0.3-1.4,1-1.9c0.6-0.5,1.5-0.7,2.5-0.7c0.6,0,1.2,0.1,1.8,0.3s1,0.5,1.4,0.9l-0.5,1.1c-0.9-0.7-1.8-1.1-2.7-1.1
			c-0.6,0-1.1,0.1-1.5,0.4c-0.4,0.2-0.5,0.6-0.5,1s0.1,0.7,0.3,0.9s0.6,0.4,1.1,0.5l1.5,0.4c0.8,0.2,1.5,0.5,1.9,0.9
			s0.6,0.9,0.6,1.6c0,0.8-0.3,1.4-1,1.9s-1.5,0.7-2.6,0.7C713,59.9,711.8,59.5,710.9,58.7z"/>
		<path class="st3" d="M719.9,58.7l0.5-1.1c0.5,0.4,1,0.7,1.5,0.8c0.5,0.2,1.1,0.3,1.7,0.3c0.7,0,1.2-0.1,1.6-0.4
			c0.4-0.2,0.5-0.6,0.5-1s-0.1-0.6-0.4-0.9c-0.2-0.2-0.6-0.4-1.2-0.5l-1.5-0.4c-0.8-0.2-1.3-0.5-1.8-0.9s-0.6-0.9-0.6-1.5
			c0-0.8,0.3-1.4,1-1.9c0.6-0.5,1.5-0.7,2.5-0.7c0.6,0,1.2,0.1,1.8,0.3s1,0.5,1.4,0.9l-0.5,1.1c-0.9-0.7-1.8-1.1-2.7-1.1
			c-0.6,0-1.1,0.1-1.5,0.4c-0.4,0.2-0.5,0.6-0.5,1s0.1,0.7,0.3,0.9s0.6,0.4,1.1,0.5l1.5,0.4c0.8,0.2,1.5,0.5,1.9,0.9
			s0.6,0.9,0.6,1.6c0,0.8-0.3,1.4-1,1.9s-1.5,0.7-2.6,0.7C722,59.9,720.8,59.5,719.9,58.7z"/>
		<path class="st3" d="M742.4,54.1v5.7h-1.5v-5.6c0-0.9-0.1-1.5-0.4-1.9s-0.8-0.6-1.4-0.6c-0.8,0-1.4,0.3-1.8,0.8
			c-0.4,0.5-0.6,1.2-0.6,2.1v5.2h-1.5v-5.6c0-0.8-0.2-1.5-0.5-1.8s-0.8-0.6-1.4-0.6c-0.8,0-1.4,0.3-1.8,0.8
			c-0.4,0.5-0.7,1.2-0.7,2.1v5.2h-1.5v-6.5c0-0.9,0-1.8-0.1-2.5h1.4l0.1,1.6c0.3-0.6,0.6-1,1.1-1.3s1.1-0.5,1.7-0.5
			c0.7,0,1.3,0.1,1.8,0.4s0.8,0.7,1,1.3c0.3-0.5,0.7-1,1.2-1.3s1.1-0.5,1.8-0.5C741.4,50.5,742.4,51.7,742.4,54.1z"/>
		<path class="st3" d="M752.8,55.2h-6.6c0,1.2,0.3,2,0.8,2.6s1.3,0.9,2.3,0.9c1.1,0,2-0.4,2.9-1.1l0.5,1.1c-0.4,0.4-0.9,0.7-1.5,0.9
			s-1.3,0.3-1.9,0.3c-1.4,0-2.5-0.4-3.3-1.3s-1.2-2-1.2-3.4c0-0.9,0.2-1.7,0.5-2.5s0.9-1.3,1.5-1.7s1.4-0.6,2.2-0.6
			c1.2,0,2.1,0.4,2.8,1.2s1,1.9,1,3.2V55.2z M747.1,52.3c-0.5,0.5-0.8,1.1-0.9,1.9h5.3c-0.1-0.9-0.3-1.5-0.7-1.9s-1-0.7-1.8-0.7
			S747.5,51.8,747.1,52.3z"/>
		<path class="st3" d="M762.7,54.1v5.7h-1.5v-5.6c0-0.8-0.2-1.5-0.5-1.8s-0.9-0.6-1.6-0.6c-0.8,0-1.5,0.3-2,0.8s-0.8,1.2-0.8,2.1
			v5.2H755v-6.5c0-0.9,0-1.8-0.1-2.5h1.4l0.1,1.6c0.3-0.6,0.7-1,1.2-1.4c0.6-0.3,1.2-0.5,1.9-0.5C761.7,50.5,762.7,51.7,762.7,54.1z
			"/>
		<path class="st3" d="M767.4,51.8v5c0,0.7,0.1,1.1,0.4,1.4c0.3,0.3,0.7,0.4,1.2,0.4c0.3,0,0.7-0.1,1-0.2v1.2
			c-0.4,0.1-0.8,0.2-1.3,0.2c-0.9,0-1.5-0.2-2-0.7s-0.7-1.2-0.7-2.2v-5.1h-1.8v-1.2h1.8v-2.3l1.5-0.5v2.8h2.6v1.2
			C770.1,51.8,767.4,51.8,767.4,51.8z"/>
	</g>
	<rect x="451.2" y="23.2" class="st6" width="125.6" height="41.9"/>
	<g class="st4">
		<path class="st3" d="M481,38.7h-1.6l-1.6-4.3c-0.2-0.5-0.5-0.9-0.8-1.1c-0.3-0.2-0.8-0.3-1.4-0.3h-3.2v5.6H471V25.8h5.1
			c1.4,0,2.4,0.3,3.2,0.9c0.7,0.6,1.1,1.5,1.1,2.6c0,0.8-0.2,1.5-0.7,2.1c-0.4,0.6-1.1,1-1.9,1.2c0.4,0.1,0.7,0.2,1,0.5
			s0.5,0.6,0.7,1.1L481,38.7z M475.9,31.8c2,0,3-0.8,3-2.4c0-0.8-0.2-1.4-0.7-1.8S477,27,476,27h-3.5v4.8H475.9z"/>
		<path class="st3" d="M490.9,34.1h-6.6c0,1.2,0.3,2,0.8,2.6s1.3,0.9,2.3,0.9c1.1,0,2-0.4,2.9-1.1l0.5,1.1c-0.4,0.4-0.9,0.7-1.5,0.9
			s-1.3,0.3-1.9,0.3c-1.4,0-2.5-0.4-3.3-1.3c-0.8-0.8-1.2-2-1.2-3.4c0-0.9,0.2-1.7,0.5-2.5c0.4-0.7,0.9-1.3,1.5-1.7
			c0.6-0.4,1.4-0.6,2.2-0.6c1.2,0,2.1,0.4,2.8,1.2s1,1.9,1,3.2L490.9,34.1L490.9,34.1z M485.2,31.2c-0.5,0.5-0.8,1.1-0.9,1.9h5.3
			c-0.1-0.9-0.3-1.5-0.7-1.9c-0.4-0.4-1-0.7-1.8-0.7S485.6,30.7,485.2,31.2z"/>
		<path class="st3" d="M501,29.6v9.1h-1.4V37c-0.3,0.6-0.7,1-1.2,1.3s-1.2,0.5-1.9,0.5c-0.8,0-1.5-0.2-2.1-0.6
			c-0.6-0.4-1.1-0.9-1.4-1.6s-0.5-1.5-0.5-2.5c0-0.9,0.2-1.8,0.5-2.5s0.8-1.3,1.4-1.7c0.6-0.4,1.3-0.6,2.1-0.6
			c0.7,0,1.3,0.2,1.9,0.5c0.5,0.3,0.9,0.8,1.2,1.3v-1.6h1.4V29.6z M498.9,36.7c0.5-0.6,0.7-1.5,0.7-2.6s-0.2-2-0.7-2.6
			s-1.2-0.9-2.1-0.9s-1.6,0.3-2.1,0.9S494,33,494,34.1s0.2,2,0.7,2.6s1.2,0.9,2.1,0.9S498.4,37.3,498.9,36.7z"/>
		<path class="st3" d="M511.8,25.4v13.2h-1.4V37c-0.3,0.6-0.7,1-1.2,1.3s-1.2,0.5-1.9,0.5c-0.8,0-1.5-0.2-2.1-0.6
			c-0.6-0.4-1.1-1-1.4-1.7s-0.5-1.5-0.5-2.5c0-0.9,0.2-1.8,0.5-2.5s0.8-1.2,1.4-1.6s1.3-0.6,2.1-0.6c0.7,0,1.3,0.2,1.9,0.5
			c0.5,0.3,0.9,0.7,1.2,1.3v-5.7C510.4,25.4,511.8,25.4,511.8,25.4z M509.7,36.7c0.5-0.6,0.7-1.5,0.7-2.6s-0.2-2-0.7-2.6
			s-1.2-0.9-2.1-0.9s-1.6,0.3-2.1,0.9s-0.7,1.4-0.7,2.5s0.2,2,0.7,2.6s1.2,0.9,2.1,0.9C508.5,37.6,509.2,37.3,509.7,36.7z"/>
		<path class="st3" d="M516.3,25.8v1.7h-1.8v-1.7H516.3z M514.7,29.6h1.5v9.1h-1.5V29.6z"/>
		<path class="st3" d="M526.7,33v5.7h-1.5V33c0-0.8-0.2-1.5-0.5-1.8s-0.9-0.6-1.6-0.6c-0.8,0-1.5,0.3-2,0.8s-0.8,1.2-0.8,2.1v5.2
			H519v-6.5c0-0.9,0-1.8-0.1-2.5h1.4l0.1,1.6c0.3-0.6,0.7-1,1.2-1.4c0.6-0.3,1.2-0.5,1.9-0.5C525.6,29.4,526.7,30.6,526.7,33z"/>
		<path class="st3" d="M537.1,34.1h-6.6c0,1.2,0.3,2,0.8,2.6s1.3,0.9,2.3,0.9c1.1,0,2-0.4,2.9-1.1l0.5,1.1c-0.4,0.4-0.9,0.7-1.5,0.9
			s-1.3,0.3-1.9,0.3c-1.4,0-2.5-0.4-3.3-1.3c-0.8-0.8-1.2-2-1.2-3.4c0-0.9,0.2-1.7,0.5-2.5c0.4-0.7,0.9-1.3,1.5-1.7
			c0.6-0.4,1.4-0.6,2.2-0.6c1.2,0,2.1,0.4,2.8,1.2s1,1.9,1,3.2V34.1z M531.4,31.2c-0.5,0.5-0.8,1.1-0.9,1.9h5.3
			c-0.1-0.9-0.3-1.5-0.7-1.9s-1-0.7-1.8-0.7S531.9,30.7,531.4,31.2z"/>
		<path class="st3" d="M538.7,37.6l0.5-1.1c0.5,0.4,1,0.7,1.5,0.8c0.5,0.2,1.1,0.3,1.7,0.3c0.7,0,1.2-0.1,1.6-0.4
			c0.4-0.2,0.5-0.6,0.5-1s-0.1-0.6-0.4-0.9c-0.2-0.2-0.6-0.4-1.2-0.5l-1.5-0.4c-0.8-0.2-1.3-0.5-1.8-0.9S539,32.6,539,32
			c0-0.8,0.3-1.4,1-1.9c0.6-0.5,1.5-0.7,2.5-0.7c0.6,0,1.2,0.1,1.8,0.3s1,0.5,1.4,0.9l-0.5,1.1c-0.9-0.7-1.8-1.1-2.7-1.1
			c-0.6,0-1.1,0.1-1.5,0.4s-0.5,0.6-0.5,1s0.1,0.7,0.3,0.9s0.6,0.4,1.1,0.5l1.5,0.4c0.8,0.2,1.5,0.5,1.9,0.9s0.6,0.9,0.6,1.6
			c0,0.8-0.3,1.4-1,1.9c-0.6,0.5-1.5,0.7-2.6,0.7C540.8,38.8,539.6,38.4,538.7,37.6z"/>
		<path class="st3" d="M547.6,37.6l0.5-1.1c0.5,0.4,1,0.7,1.5,0.8c0.5,0.2,1.1,0.3,1.7,0.3c0.7,0,1.2-0.1,1.6-0.4
			c0.4-0.2,0.5-0.6,0.5-1s-0.1-0.6-0.4-0.9c-0.2-0.2-0.6-0.4-1.2-0.5l-1.5-0.4c-0.8-0.2-1.3-0.5-1.8-0.9s-0.6-0.9-0.6-1.5
			c0-0.8,0.3-1.4,1-1.9c0.6-0.5,1.5-0.7,2.5-0.7c0.6,0,1.2,0.1,1.8,0.3s1,0.5,1.4,0.9l-0.5,1.1c-0.9-0.7-1.8-1.1-2.7-1.1
			c-0.6,0-1.1,0.1-1.5,0.4s-0.5,0.6-0.5,1s0.1,0.7,0.3,0.9s0.6,0.4,1.1,0.5l1.5,0.4c0.8,0.2,1.5,0.5,1.9,0.9s0.6,0.9,0.6,1.6
			c0,0.8-0.3,1.4-1,1.9c-0.6,0.5-1.5,0.7-2.6,0.7C549.7,38.8,548.5,38.4,547.6,37.6z"/>
	</g>
	<g class="st4">
		<path class="st3" d="M471.8,57h-6.7l-1.4,3.3h-1.5l5.6-12.8h1.3l5.6,12.8h-1.5L471.8,57z M471.2,55.7l-2.8-6.6l-2.8,6.6H471.2z"/>
		<path class="st3" d="M475.7,59.2l0.5-1.1c0.5,0.4,1,0.7,1.5,0.8c0.5,0.2,1.1,0.3,1.7,0.3c0.7,0,1.2-0.1,1.6-0.4
			c0.4-0.2,0.5-0.6,0.5-1s-0.1-0.6-0.4-0.9c-0.2-0.2-0.6-0.4-1.2-0.5l-1.5-0.4c-0.8-0.2-1.3-0.5-1.8-0.9s-0.6-0.9-0.6-1.5
			c0-0.8,0.3-1.4,1-1.9c0.6-0.5,1.5-0.7,2.5-0.7c0.6,0,1.2,0.1,1.8,0.3s1,0.5,1.4,0.9l-0.5,1.1c-0.9-0.7-1.8-1.1-2.7-1.1
			c-0.6,0-1.1,0.1-1.5,0.4s-0.5,0.6-0.5,1s0.1,0.7,0.3,0.9s0.6,0.4,1.1,0.5l1.5,0.4c0.8,0.2,1.5,0.5,1.9,0.9s0.6,0.9,0.6,1.6
			c0,0.8-0.3,1.4-1,1.9c-0.6,0.5-1.5,0.7-2.6,0.7C477.8,60.4,476.6,60,475.7,59.2z"/>
		<path class="st3" d="M484.7,59.2l0.5-1.1c0.5,0.4,1,0.7,1.5,0.8c0.5,0.2,1.1,0.3,1.7,0.3c0.7,0,1.2-0.1,1.6-0.4
			c0.4-0.2,0.5-0.6,0.5-1s-0.1-0.6-0.4-0.9c-0.2-0.2-0.6-0.4-1.2-0.5l-1.5-0.4c-0.8-0.2-1.3-0.5-1.8-0.9s-0.6-0.9-0.6-1.5
			c0-0.8,0.3-1.4,1-1.9c0.6-0.5,1.5-0.7,2.5-0.7c0.6,0,1.2,0.1,1.8,0.3s1,0.5,1.4,0.9l-0.5,1.1c-0.9-0.7-1.8-1.1-2.7-1.1
			c-0.6,0-1.1,0.1-1.5,0.4s-0.5,0.6-0.5,1s0.1,0.7,0.3,0.9s0.6,0.4,1.1,0.5l1.5,0.4c0.8,0.2,1.5,0.5,1.9,0.9s0.6,0.9,0.6,1.6
			c0,0.8-0.3,1.4-1,1.9c-0.6,0.5-1.5,0.7-2.6,0.7C486.8,60.4,485.6,60,484.7,59.2z"/>
		<path class="st3" d="M501.7,55.7h-6.6c0,1.2,0.3,2,0.8,2.6s1.3,0.9,2.3,0.9c1.1,0,2-0.4,2.9-1.1l0.5,1.1c-0.4,0.4-0.9,0.7-1.5,0.9
			s-1.3,0.3-1.9,0.3c-1.4,0-2.5-0.4-3.3-1.3c-0.8-0.8-1.2-2-1.2-3.4c0-0.9,0.2-1.7,0.5-2.5c0.4-0.7,0.9-1.3,1.5-1.7s1.4-0.6,2.2-0.6
			c1.2,0,2.1,0.4,2.8,1.2s1,1.9,1,3.2L501.7,55.7L501.7,55.7z M496.1,52.8c-0.5,0.5-0.8,1.1-0.9,1.9h5.3c-0.1-0.9-0.3-1.5-0.7-1.9
			c-0.4-0.4-1-0.7-1.8-0.7S496.5,52.3,496.1,52.8z"/>
		<path class="st3" d="M503.4,59.2l0.5-1.1c0.5,0.4,1,0.7,1.5,0.8c0.5,0.2,1.1,0.3,1.7,0.3c0.7,0,1.2-0.1,1.6-0.4
			c0.4-0.2,0.5-0.6,0.5-1s-0.1-0.6-0.4-0.9c-0.2-0.2-0.6-0.4-1.2-0.5l-1.5-0.4c-0.8-0.2-1.3-0.5-1.8-0.9s-0.6-0.9-0.6-1.5
			c0-0.8,0.3-1.4,1-1.9c0.6-0.5,1.5-0.7,2.5-0.7c0.6,0,1.2,0.1,1.8,0.3s1,0.5,1.4,0.9l-0.5,1.1c-0.9-0.7-1.8-1.1-2.7-1.1
			c-0.6,0-1.1,0.1-1.5,0.4s-0.5,0.6-0.5,1s0.1,0.7,0.3,0.9s0.6,0.4,1.1,0.5l1.5,0.4c0.8,0.2,1.5,0.5,1.9,0.9s0.6,0.9,0.6,1.6
			c0,0.8-0.3,1.4-1,1.9c-0.6,0.5-1.5,0.7-2.6,0.7C505.5,60.4,504.3,60,503.4,59.2z"/>
		<path class="st3" d="M512.3,59.2l0.5-1.1c0.5,0.4,1,0.7,1.5,0.8c0.5,0.2,1.1,0.3,1.7,0.3c0.7,0,1.2-0.1,1.6-0.4
			c0.4-0.2,0.5-0.6,0.5-1s-0.1-0.6-0.4-0.9c-0.2-0.2-0.6-0.4-1.2-0.5L515,56c-0.8-0.2-1.3-0.5-1.8-0.9s-0.6-0.9-0.6-1.5
			c0-0.8,0.3-1.4,1-1.9c0.6-0.5,1.5-0.7,2.5-0.7c0.6,0,1.2,0.1,1.8,0.3s1,0.5,1.4,0.9l-0.5,1.1c-0.9-0.7-1.8-1.1-2.7-1.1
			c-0.6,0-1.1,0.1-1.5,0.4s-0.5,0.6-0.5,1s0.1,0.7,0.3,0.9s0.6,0.4,1.1,0.5l1.5,0.4c0.8,0.2,1.5,0.5,1.9,0.9s0.6,0.9,0.6,1.6
			c0,0.8-0.3,1.4-1,1.9c-0.6,0.5-1.5,0.7-2.6,0.7C514.4,60.4,513.2,60,512.3,59.2z"/>
		<path class="st3" d="M534.9,54.6v5.7h-1.5v-5.6c0-0.9-0.1-1.5-0.4-1.9c-0.3-0.4-0.8-0.6-1.4-0.6c-0.8,0-1.4,0.3-1.8,0.8
			c-0.4,0.5-0.6,1.2-0.6,2.1v5.2h-1.5v-5.6c0-0.8-0.1-1.5-0.4-1.8c-0.3-0.4-0.8-0.6-1.4-0.6c-0.8,0-1.4,0.3-1.8,0.8
			c-0.4,0.5-0.7,1.2-0.7,2.1v5.2h-1.5v-6.5c0-0.9,0-1.8-0.1-2.5h1.4l0.1,1.6c0.3-0.6,0.6-1,1.1-1.3s1.1-0.5,1.7-0.5
			c0.7,0,1.3,0.1,1.8,0.4s0.8,0.7,1,1.3c0.3-0.5,0.7-1,1.2-1.3s1.1-0.5,1.8-0.5C533.9,51,534.9,52.2,534.9,54.6z"/>
		<path class="st3" d="M545.2,55.7h-6.6c0,1.2,0.3,2,0.8,2.6s1.3,0.9,2.3,0.9c1.1,0,2-0.4,2.9-1.1l0.5,1.1c-0.4,0.4-0.9,0.7-1.5,0.9
			s-1.3,0.3-1.9,0.3c-1.4,0-2.5-0.4-3.3-1.3c-0.8-0.8-1.2-2-1.2-3.4c0-0.9,0.2-1.7,0.5-2.5c0.4-0.7,0.9-1.3,1.5-1.7s1.4-0.6,2.2-0.6
			c1.2,0,2.1,0.4,2.8,1.2s1,1.9,1,3.2V55.7z M539.5,52.8c-0.5,0.5-0.8,1.1-0.9,1.9h5.3c-0.1-0.9-0.3-1.5-0.7-1.9s-1-0.7-1.8-0.7
			S540,52.3,539.5,52.8z"/>
		<path class="st3" d="M555.2,54.6v5.7h-1.5v-5.6c0-0.8-0.2-1.5-0.5-1.8s-0.9-0.6-1.6-0.6c-0.8,0-1.5,0.3-2,0.8s-0.8,1.2-0.8,2.1
			v5.2h-1.5v-6.5c0-0.9,0-1.8-0.1-2.5h1.4l0.1,1.6c0.3-0.6,0.7-1,1.2-1.4c0.6-0.3,1.2-0.5,1.9-0.5C554.1,51,555.2,52.2,555.2,54.6z"
			/>
		<path class="st3" d="M559.9,52.4v5c0,0.7,0.1,1.1,0.4,1.4c0.3,0.3,0.7,0.4,1.2,0.4c0.3,0,0.7-0.1,1-0.2v1.2
			c-0.4,0.1-0.8,0.2-1.3,0.2c-0.9,0-1.5-0.2-2-0.7s-0.7-1.2-0.7-2.2v-5.1h-1.8v-1.2h1.8v-2.3l1.5-0.5v2.8h2.6v1.2
			C562.6,52.4,559.9,52.4,559.9,52.4z"/>
	</g>
	<rect x="442.7" y="226.3" class="st6" width="137.7" height="41.9"/>
	<g class="st4">
		<path class="st2" d="M478.6,241.7H477l-1.6-4.3c-0.2-0.5-0.5-0.9-0.8-1.1c-0.3-0.2-0.8-0.3-1.4-0.3H470v5.6h-1.5v-12.8h5.1
			c1.4,0,2.4,0.3,3.2,0.9s1.1,1.5,1.1,2.6c0,0.8-0.2,1.5-0.7,2.1c-0.4,0.6-1.1,1-1.9,1.2c0.4,0.1,0.7,0.2,1,0.5s0.5,0.6,0.7,1.1
			L478.6,241.7z M473.5,234.9c2,0,3-0.8,3-2.4c0-0.8-0.2-1.4-0.7-1.8c-0.5-0.4-1.2-0.6-2.2-0.6H470v4.8H473.5z"/>
		<path class="st2" d="M488.4,237.1h-6.6c0,1.2,0.3,2,0.8,2.6s1.3,0.9,2.3,0.9c1.1,0,2-0.4,2.9-1.1l0.5,1.1
			c-0.4,0.4-0.9,0.7-1.5,0.9s-1.3,0.3-1.9,0.3c-1.4,0-2.5-0.4-3.3-1.2s-1.2-2-1.2-3.4c0-0.9,0.2-1.7,0.5-2.5
			c0.4-0.7,0.9-1.3,1.5-1.7s1.4-0.6,2.2-0.6c1.2,0,2.1,0.4,2.8,1.2c0.7,0.8,1,1.9,1,3.2L488.4,237.1L488.4,237.1z M482.7,234.3
			c-0.5,0.5-0.8,1.1-0.9,1.9h5.3c-0.1-0.9-0.3-1.5-0.7-1.9s-1-0.7-1.8-0.7S483.2,233.8,482.7,234.3z"/>
		<path class="st2" d="M498.6,232.7v9.1h-1.4v-1.6c-0.3,0.6-0.7,1-1.2,1.3s-1.2,0.5-1.9,0.5c-0.8,0-1.5-0.2-2.1-0.6
			c-0.6-0.4-1.1-0.9-1.4-1.6c-0.3-0.7-0.5-1.5-0.5-2.5c0-0.9,0.2-1.8,0.5-2.5s0.8-1.3,1.4-1.7s1.3-0.6,2.1-0.6
			c0.7,0,1.3,0.2,1.9,0.5c0.5,0.3,0.9,0.8,1.2,1.3v-1.6L498.6,232.7L498.6,232.7z M496.4,239.7c0.5-0.6,0.7-1.5,0.7-2.6
			s-0.2-2-0.7-2.6s-1.2-0.9-2.1-0.9s-1.6,0.3-2.1,0.9c-0.5,0.6-0.7,1.5-0.7,2.6s0.2,2,0.7,2.6s1.2,0.9,2.1,0.9
			C495.2,240.6,495.9,240.3,496.4,239.7z"/>
		<path class="st2" d="M509.4,228.5v13.2H508v-1.6c-0.3,0.6-0.7,1-1.2,1.3s-1.2,0.5-1.9,0.5c-0.8,0-1.5-0.2-2.1-0.6s-1.1-1-1.4-1.7
			s-0.5-1.5-0.5-2.5c0-0.9,0.2-1.8,0.5-2.5s0.8-1.2,1.4-1.6c0.6-0.4,1.3-0.6,2.1-0.6c0.7,0,1.3,0.2,1.9,0.5c0.5,0.3,0.9,0.7,1.2,1.3
			v-5.7L509.4,228.5L509.4,228.5z M507.2,239.7c0.5-0.6,0.7-1.5,0.7-2.6s-0.2-2-0.7-2.6s-1.2-0.9-2.1-0.9s-1.6,0.3-2.1,0.9
			s-0.7,1.4-0.7,2.5s0.2,2,0.7,2.6s1.2,0.9,2.1,0.9C506,240.6,506.7,240.3,507.2,239.7z"/>
		<path class="st2" d="M513.8,228.8v1.7H512v-1.7H513.8z M512.2,232.7h1.5v9.1h-1.5V232.7z"/>
		<path class="st2" d="M524.2,236v5.7h-1.5v-5.6c0-0.8-0.2-1.5-0.5-1.8c-0.3-0.4-0.9-0.6-1.6-0.6c-0.8,0-1.5,0.3-2,0.8
			s-0.8,1.2-0.8,2.1v5.2h-1.5v-6.5c0-0.9,0-1.8-0.1-2.5h1.4l0.1,1.6c0.3-0.6,0.7-1,1.2-1.4c0.6-0.3,1.2-0.5,1.9-0.5
			C523.2,232.4,524.2,233.6,524.2,236z"/>
		<path class="st2" d="M534.6,237.1H528c0,1.2,0.3,2,0.8,2.6s1.3,0.9,2.3,0.9c1.1,0,2-0.4,2.9-1.1l0.5,1.1c-0.4,0.4-0.9,0.7-1.5,0.9
			s-1.3,0.3-1.9,0.3c-1.4,0-2.5-0.4-3.3-1.2s-1.2-2-1.2-3.4c0-0.9,0.2-1.7,0.5-2.5c0.4-0.7,0.9-1.3,1.5-1.7s1.4-0.6,2.2-0.6
			c1.2,0,2.1,0.4,2.8,1.2s1,1.9,1,3.2V237.1z M528.9,234.3c-0.5,0.5-0.8,1.1-0.9,1.9h5.3c-0.1-0.9-0.3-1.5-0.7-1.9s-1-0.7-1.8-0.7
			S529.4,233.8,528.9,234.3z"/>
		<path class="st2" d="M536.2,240.7l0.5-1.1c0.5,0.4,1,0.7,1.5,0.8c0.5,0.2,1.1,0.3,1.7,0.3c0.7,0,1.2-0.1,1.6-0.3
			c0.4-0.2,0.5-0.6,0.5-1s-0.1-0.6-0.4-0.9c-0.2-0.2-0.6-0.4-1.2-0.5l-1.5-0.4c-0.8-0.2-1.3-0.5-1.8-0.9s-0.6-0.9-0.6-1.5
			c0-0.8,0.3-1.4,1-1.9c0.6-0.5,1.5-0.7,2.5-0.7c0.6,0,1.2,0.1,1.8,0.3s1,0.5,1.4,0.9l-0.5,1.1c-0.9-0.7-1.8-1.1-2.7-1.1
			c-0.6,0-1.1,0.1-1.5,0.4s-0.5,0.6-0.5,1s0.1,0.7,0.3,0.9s0.6,0.4,1.1,0.5l1.5,0.4c0.8,0.2,1.5,0.5,1.9,0.9s0.6,0.9,0.6,1.6
			c0,0.8-0.3,1.4-1,1.9c-0.6,0.5-1.5,0.7-2.6,0.7C538.3,241.8,537.1,241.4,536.2,240.7z"/>
		<path class="st2" d="M545.2,240.7l0.5-1.1c0.5,0.4,1,0.7,1.5,0.8c0.5,0.2,1.1,0.3,1.7,0.3c0.7,0,1.2-0.1,1.6-0.3
			c0.4-0.2,0.5-0.6,0.5-1s-0.1-0.6-0.4-0.9c-0.2-0.2-0.6-0.4-1.2-0.5l-1.5-0.4c-0.8-0.2-1.3-0.5-1.8-0.9s-0.6-0.9-0.6-1.5
			c0-0.8,0.3-1.4,1-1.9c0.6-0.5,1.5-0.7,2.5-0.7c0.6,0,1.2,0.1,1.8,0.3s1,0.5,1.4,0.9l-0.5,1.1c-0.9-0.7-1.8-1.1-2.7-1.1
			c-0.6,0-1.1,0.1-1.5,0.4s-0.5,0.6-0.5,1s0.1,0.7,0.3,0.9s0.6,0.4,1.1,0.5l1.5,0.4c0.8,0.2,1.5,0.5,1.9,0.9s0.6,0.9,0.6,1.6
			c0,0.8-0.3,1.4-1,1.9c-0.6,0.5-1.5,0.7-2.6,0.7C547.3,241.8,546.1,241.4,545.2,240.7z"/>
	</g>
	<g class="st4">
		<path class="st2" d="M469.3,260h-6.7l-1.4,3.3h-1.5l5.6-12.8h1.3l5.6,12.8h-1.5L469.3,260z M468.8,258.8l-2.8-6.6l-2.8,6.6H468.8z
			"/>
		<path class="st2" d="M473.3,262.3l0.5-1.1c0.5,0.4,1,0.7,1.5,0.8c0.5,0.2,1.1,0.3,1.7,0.3c0.7,0,1.2-0.1,1.6-0.4
			c0.4-0.2,0.5-0.6,0.5-1s-0.1-0.6-0.4-0.9c-0.2-0.2-0.6-0.4-1.2-0.5l-1.5-0.4c-0.8-0.2-1.3-0.5-1.8-0.9s-0.6-0.9-0.6-1.5
			c0-0.8,0.3-1.4,1-1.9c0.6-0.5,1.5-0.7,2.5-0.7c0.6,0,1.2,0.1,1.8,0.3s1,0.5,1.4,0.9l-0.5,1.1c-0.9-0.7-1.8-1.1-2.7-1.1
			c-0.6,0-1.1,0.1-1.5,0.4s-0.5,0.6-0.5,1s0.1,0.7,0.3,0.9s0.6,0.4,1.1,0.5l1.5,0.4c0.8,0.2,1.5,0.5,1.9,0.9s0.6,0.9,0.6,1.6
			c0,0.8-0.3,1.4-1,1.9c-0.6,0.5-1.5,0.7-2.6,0.7C475.4,263.4,474.2,263,473.3,262.3z"/>
		<path class="st2" d="M482.2,262.3l0.5-1.1c0.5,0.4,1,0.7,1.5,0.8c0.5,0.2,1.1,0.3,1.7,0.3c0.7,0,1.2-0.1,1.6-0.4
			c0.4-0.2,0.5-0.6,0.5-1s-0.1-0.6-0.4-0.9c-0.2-0.2-0.6-0.4-1.2-0.5l-1.5-0.4c-0.8-0.2-1.3-0.5-1.8-0.9s-0.6-0.9-0.6-1.5
			c0-0.8,0.3-1.4,1-1.9c0.6-0.5,1.5-0.7,2.5-0.7c0.6,0,1.2,0.1,1.8,0.3s1,0.5,1.4,0.9l-0.5,1.1c-0.9-0.7-1.8-1.1-2.7-1.1
			c-0.6,0-1.1,0.1-1.5,0.4s-0.5,0.6-0.5,1s0.1,0.7,0.3,0.9s0.6,0.4,1.1,0.5l1.5,0.4c0.8,0.2,1.5,0.5,1.9,0.9s0.6,0.9,0.6,1.6
			c0,0.8-0.3,1.4-1,1.9c-0.6,0.5-1.5,0.7-2.6,0.7C484.3,263.4,483.1,263,482.2,262.3z"/>
		<path class="st2" d="M499.3,258.7h-6.6c0,1.2,0.3,2,0.8,2.6s1.3,0.9,2.3,0.9c1.1,0,2-0.4,2.9-1.1l0.5,1.1
			c-0.4,0.4-0.9,0.7-1.5,0.9s-1.3,0.3-1.9,0.3c-1.4,0-2.5-0.4-3.3-1.3c-0.8-0.8-1.2-2-1.2-3.4c0-0.9,0.2-1.7,0.5-2.5
			c0.4-0.7,0.9-1.3,1.5-1.7s1.4-0.6,2.2-0.6c1.2,0,2.1,0.4,2.8,1.2s1,1.9,1,3.2L499.3,258.7L499.3,258.7z M493.6,255.9
			c-0.5,0.5-0.8,1.1-0.9,1.9h5.3c-0.1-0.9-0.3-1.5-0.7-1.9c-0.4-0.4-1-0.7-1.8-0.7S494.1,255.4,493.6,255.9z"/>
		<path class="st2" d="M500.9,262.3l0.5-1.1c0.5,0.4,1,0.7,1.5,0.8c0.5,0.2,1.1,0.3,1.7,0.3c0.7,0,1.2-0.1,1.6-0.4
			c0.4-0.2,0.5-0.6,0.5-1s-0.1-0.6-0.4-0.9c-0.2-0.2-0.6-0.4-1.2-0.5l-1.5-0.4c-0.8-0.2-1.3-0.5-1.8-0.9s-0.6-0.9-0.6-1.5
			c0-0.8,0.3-1.4,1-1.9c0.6-0.5,1.5-0.7,2.5-0.7c0.6,0,1.2,0.1,1.8,0.3s1,0.5,1.4,0.9l-0.5,1.1c-0.9-0.7-1.8-1.1-2.7-1.1
			c-0.6,0-1.1,0.1-1.5,0.4s-0.5,0.6-0.5,1s0.1,0.7,0.3,0.9s0.6,0.4,1.1,0.5l1.5,0.4c0.8,0.2,1.5,0.5,1.9,0.9s0.6,0.9,0.6,1.6
			c0,0.8-0.3,1.4-1,1.9c-0.6,0.5-1.5,0.7-2.6,0.7C503,263.4,501.8,263,500.9,262.3z"/>
		<path class="st2" d="M509.8,262.3l0.5-1.1c0.5,0.4,1,0.7,1.5,0.8c0.5,0.2,1.1,0.3,1.7,0.3c0.7,0,1.2-0.1,1.6-0.4
			c0.4-0.2,0.5-0.6,0.5-1s-0.1-0.6-0.4-0.9c-0.2-0.2-0.6-0.4-1.2-0.5l-1.5-0.4c-0.8-0.2-1.3-0.5-1.8-0.9s-0.6-0.9-0.6-1.5
			c0-0.8,0.3-1.4,1-1.9c0.6-0.5,1.5-0.7,2.5-0.7c0.6,0,1.2,0.1,1.8,0.3s1,0.5,1.4,0.9l-0.5,1.1c-0.9-0.7-1.8-1.1-2.7-1.1
			c-0.6,0-1.1,0.1-1.5,0.4s-0.5,0.6-0.5,1s0.1,0.7,0.3,0.9c0.2,0.2,0.6,0.4,1.1,0.5l1.5,0.4c0.8,0.2,1.5,0.5,1.9,0.9
			s0.6,0.9,0.6,1.6c0,0.8-0.3,1.4-1,1.9c-0.6,0.5-1.5,0.7-2.6,0.7C511.9,263.4,510.7,263,509.8,262.3z"/>
		<path class="st2" d="M532.4,257.6v5.7h-1.5v-5.6c0-0.9-0.1-1.5-0.4-1.9c-0.3-0.4-0.8-0.6-1.4-0.6c-0.8,0-1.4,0.3-1.8,0.8
			c-0.4,0.5-0.6,1.2-0.6,2.1v5.2h-1.5v-5.6c0-0.8-0.1-1.5-0.4-1.8c-0.3-0.4-0.8-0.6-1.4-0.6c-0.8,0-1.4,0.3-1.8,0.8
			c-0.4,0.5-0.7,1.2-0.7,2.1v5.2h-1.5v-6.5c0-0.9,0-1.8-0.1-2.5h1.4l0.1,1.6c0.3-0.6,0.6-1,1.1-1.3s1.1-0.5,1.7-0.5
			c0.7,0,1.3,0.1,1.8,0.4s0.8,0.7,1,1.3c0.3-0.5,0.7-1,1.2-1.3s1.1-0.5,1.8-0.5C531.4,254,532.4,255.2,532.4,257.6z"/>
		<path class="st2" d="M542.7,258.7h-6.6c0,1.2,0.3,2,0.8,2.6s1.3,0.9,2.3,0.9c1.1,0,2-0.4,2.9-1.1l0.5,1.1
			c-0.4,0.4-0.9,0.7-1.5,0.9s-1.3,0.3-1.9,0.3c-1.4,0-2.5-0.4-3.3-1.3c-0.8-0.8-1.2-2-1.2-3.4c0-0.9,0.2-1.7,0.5-2.5
			c0.4-0.7,0.9-1.3,1.5-1.7s1.4-0.6,2.2-0.6c1.2,0,2.1,0.4,2.8,1.2s1,1.9,1,3.2V258.7z M537.1,255.9c-0.5,0.5-0.8,1.1-0.9,1.9h5.3
			c-0.1-0.9-0.3-1.5-0.7-1.9s-1-0.7-1.8-0.7S537.5,255.4,537.1,255.9z"/>
		<path class="st2" d="M552.7,257.6v5.7h-1.5v-5.6c0-0.8-0.2-1.5-0.5-1.8s-0.9-0.6-1.6-0.6c-0.8,0-1.5,0.3-2,0.8s-0.8,1.2-0.8,2.1
			v5.2h-1.5v-6.5c0-0.9,0-1.8-0.1-2.5h1.4l0.1,1.6c0.3-0.6,0.7-1,1.2-1.4c0.6-0.3,1.2-0.5,1.9-0.5
			C551.6,254,552.7,255.2,552.7,257.6z"/>
		<path class="st2" d="M557.4,255.4v5c0,0.7,0.1,1.1,0.4,1.4c0.3,0.3,0.7,0.4,1.2,0.4c0.3,0,0.7-0.1,1-0.2v1.2
			c-0.4,0.1-0.8,0.2-1.3,0.2c-0.9,0-1.5-0.2-2-0.7s-0.7-1.2-0.7-2.2v-5.1h-1.8v-1.2h1.8v-2.3l1.5-0.5v2.8h2.6v1.2L557.4,255.4
			L557.4,255.4z"/>
	</g>
	<rect x="279.7" y="23.3" class="st6" width="125.6" height="40.1"/>
	<g class="st4">
		<path class="st3" d="M293.9,25.9h5.1c1.3,0,2.3,0.3,3.1,1c0.7,0.6,1.1,1.5,1.1,2.6s-0.4,2-1.1,2.6s-1.8,1-3.1,1h-3.6v5.6h-1.5
			V25.9z M298.9,31.8c0.9,0,1.7-0.2,2.1-0.6s0.7-1,0.7-1.8s-0.2-1.4-0.7-1.8s-1.2-0.6-2.1-0.6h-3.5v4.7L298.9,31.8L298.9,31.8z"/>
		<path class="st3" d="M313.1,29.6v9.1h-1.4V37c-0.3,0.6-0.7,1-1.2,1.3s-1.2,0.5-1.9,0.5c-0.8,0-1.5-0.2-2.1-0.6
			c-0.6-0.4-1.1-0.9-1.4-1.6s-0.5-1.5-0.5-2.5c0-0.9,0.2-1.8,0.5-2.5s0.8-1.3,1.4-1.7c0.6-0.4,1.3-0.6,2.1-0.6
			c0.7,0,1.3,0.2,1.9,0.5c0.5,0.3,0.9,0.8,1.2,1.3v-1.6h1.4V29.6z M311,36.7c0.5-0.6,0.7-1.5,0.7-2.6s-0.2-2-0.7-2.6
			s-1.2-0.9-2.1-0.9s-1.6,0.3-2.1,0.9s-0.7,1.5-0.7,2.6c0,1.1,0.2,2,0.7,2.6s1.2,0.9,2.1,0.9C309.8,37.6,310.5,37.3,311,36.7z"/>
		<path class="st3" d="M321,29.5v1.3c-0.3-0.1-0.6-0.1-1-0.1c-0.9,0-1.5,0.3-2,0.8c-0.4,0.5-0.6,1.2-0.6,2v5.2h-1.5v-6.5
			c0-0.9,0-1.8-0.1-2.5h1.4l0.1,1.7c0.2-0.6,0.6-1.1,1.1-1.4s1.1-0.5,1.7-0.5C320.5,29.4,320.7,29.4,321,29.5z"/>
		<path class="st3" d="M325.1,30.8v5c0,0.7,0.1,1.1,0.4,1.4c0.3,0.3,0.7,0.4,1.2,0.4c0.3,0,0.7-0.1,1-0.2v1.2
			c-0.4,0.1-0.8,0.2-1.3,0.2c-0.9,0-1.5-0.2-2-0.7s-0.7-1.2-0.7-2.2v-5.1h-1.8v-1.2h1.8v-2.3l1.5-0.5v2.8h2.6v1.2
			C327.8,30.8,325.1,30.8,325.1,30.8z"/>
		<path class="st3" d="M337.2,33v5.7h-1.5v-5.6c0-0.8-0.2-1.5-0.5-1.8s-0.9-0.6-1.6-0.6c-0.8,0-1.5,0.3-2,0.8
			c-0.5,0.5-0.8,1.2-0.8,2.1v5.2h-1.5v-6.5c0-0.9,0-1.8-0.1-2.5h1.4l0.1,1.6c0.3-0.6,0.7-1,1.2-1.4c0.6-0.3,1.2-0.5,1.9-0.5
			C336.2,29.4,337.2,30.6,337.2,33z"/>
		<path class="st3" d="M347.6,34.1H341c0,1.2,0.3,2,0.8,2.6s1.3,0.9,2.3,0.9c1.1,0,2-0.4,2.9-1.1l0.5,1.1c-0.4,0.4-0.9,0.7-1.5,0.9
			s-1.3,0.3-1.9,0.3c-1.4,0-2.5-0.4-3.3-1.3c-0.8-0.8-1.2-2-1.2-3.4c0-0.9,0.2-1.7,0.5-2.5c0.4-0.7,0.9-1.3,1.5-1.7
			c0.6-0.4,1.4-0.6,2.2-0.6c1.2,0,2.1,0.4,2.8,1.2s1,1.9,1,3.2L347.6,34.1L347.6,34.1z M341.9,31.2c-0.5,0.5-0.8,1.1-0.9,1.9h5.3
			c-0.1-0.9-0.3-1.5-0.7-1.9c-0.4-0.4-1-0.7-1.8-0.7S342.4,30.8,341.9,31.2z"/>
		<path class="st3" d="M354.8,29.5v1.3c-0.3-0.1-0.6-0.1-1-0.1c-0.9,0-1.5,0.3-2,0.8c-0.4,0.5-0.6,1.2-0.6,2v5.2h-1.5v-6.5
			c0-0.9,0-1.8-0.1-2.5h1.4l0.1,1.7c0.2-0.6,0.6-1.1,1.1-1.4s1.1-0.5,1.7-0.5C354.3,29.4,354.6,29.4,354.8,29.5z"/>
		<path class="st3" d="M355.7,37.6l0.5-1.1c0.5,0.4,1,0.7,1.5,0.8c0.5,0.2,1.1,0.3,1.7,0.3c0.7,0,1.2-0.1,1.6-0.4
			c0.4-0.2,0.5-0.6,0.5-1s-0.1-0.6-0.4-0.9c-0.2-0.2-0.6-0.4-1.2-0.5l-1.5-0.4c-0.8-0.2-1.3-0.5-1.8-0.9S356,32.6,356,32
			c0-0.8,0.3-1.4,1-1.9c0.6-0.5,1.5-0.7,2.5-0.7c0.6,0,1.2,0.1,1.8,0.3s1,0.5,1.4,0.9l-0.5,1.1c-0.9-0.7-1.8-1.1-2.7-1.1
			c-0.6,0-1.1,0.1-1.5,0.4s-0.5,0.6-0.5,1s0.1,0.7,0.3,0.9s0.6,0.4,1.1,0.5l1.5,0.4c0.8,0.2,1.5,0.5,1.9,0.9s0.6,0.9,0.6,1.6
			c0,0.8-0.3,1.4-1,1.9c-0.6,0.5-1.5,0.7-2.6,0.7C357.7,38.8,356.5,38.4,355.7,37.6z"/>
		<path class="st3" d="M372.9,33v5.7h-1.5v-5.6c0-0.8-0.2-1.5-0.5-1.8s-0.9-0.6-1.6-0.6c-0.8,0-1.5,0.3-2,0.8
			c-0.5,0.5-0.8,1.2-0.8,2.1v5.2H365V25.4h1.5v5.7c0.3-0.6,0.7-1,1.2-1.3s1.1-0.4,1.8-0.4C371.8,29.4,372.9,30.6,372.9,33z"/>
		<path class="st3" d="M377.3,25.8v1.7h-1.8v-1.7H377.3z M375.7,29.6h1.5v9.1h-1.5V29.6z"/>
		<path class="st3" d="M386.6,30c0.6,0.4,1.1,1,1.4,1.7s0.5,1.5,0.5,2.5c0,0.9-0.2,1.8-0.5,2.5s-0.8,1.2-1.4,1.6
			c-0.6,0.4-1.3,0.6-2.1,0.6c-0.7,0-1.3-0.2-1.9-0.5c-0.5-0.3-0.9-0.8-1.2-1.3v5.6H380V32.2c0-0.9,0-1.8-0.1-2.5h1.4l0.1,1.7
			c0.3-0.6,0.7-1.1,1.2-1.4s1.2-0.5,1.9-0.5C385.3,29.4,386,29.6,386.6,30z M386.3,36.7c0.5-0.6,0.7-1.5,0.7-2.6s-0.2-2-0.7-2.6
			s-1.2-0.9-2.1-0.9s-1.6,0.3-2.1,0.9s-0.7,1.5-0.7,2.6s0.2,2,0.7,2.6s1.2,0.9,2.1,0.9C385.1,37.6,385.8,37.3,386.3,36.7z"/>
	</g>
	<g class="st4">
		<path class="st3" d="M283,47.5h8.1v1.2h-6.6v4.5h6.3v1.2h-6.3V59h6.6v1.2H283V47.5z"/>
		<path class="st3" d="M292.8,59.2l0.5-1.1c0.5,0.4,1,0.7,1.5,0.8c0.5,0.2,1.1,0.3,1.7,0.3c0.7,0,1.2-0.1,1.6-0.4
			c0.4-0.2,0.5-0.6,0.5-1s-0.1-0.6-0.4-0.9c-0.2-0.2-0.6-0.4-1.2-0.5l-1.5-0.4c-0.8-0.2-1.3-0.5-1.8-0.9s-0.6-0.9-0.6-1.5
			c0-0.8,0.3-1.4,1-1.9c0.6-0.5,1.5-0.7,2.5-0.7c0.6,0,1.2,0.1,1.8,0.3s1,0.5,1.4,0.9l-0.5,1.1c-0.9-0.7-1.8-1.1-2.7-1.1
			c-0.6,0-1.1,0.1-1.5,0.4s-0.5,0.6-0.5,1s0.1,0.7,0.3,0.9s0.6,0.4,1.1,0.5l1.5,0.4c0.8,0.2,1.5,0.5,1.9,0.9s0.6,0.9,0.6,1.6
			c0,0.8-0.3,1.4-1,1.9c-0.6,0.5-1.5,0.7-2.6,0.7C294.9,60.4,293.7,60,292.8,59.2z"/>
		<path class="st3" d="M304.2,52.4v5c0,0.7,0.1,1.1,0.4,1.4c0.3,0.3,0.7,0.4,1.2,0.4c0.3,0,0.7-0.1,1-0.2v1.2
			c-0.4,0.1-0.8,0.2-1.3,0.2c-0.9,0-1.5-0.2-2-0.7s-0.7-1.2-0.7-2.2v-5.1H301v-1.2h1.8v-2.3l1.5-0.5v2.8h2.6v1.2
			C306.9,52.4,304.2,52.4,304.2,52.4z"/>
		<path class="st3" d="M316.5,51.2v9.1h-1.4v-1.6c-0.3,0.6-0.7,1-1.2,1.3s-1.2,0.5-1.9,0.5c-0.8,0-1.5-0.2-2.1-0.6
			c-0.6-0.4-1.1-0.9-1.4-1.6s-0.5-1.5-0.5-2.5c0-0.9,0.2-1.8,0.5-2.5s0.8-1.3,1.4-1.7s1.3-0.6,2.1-0.6c0.7,0,1.3,0.2,1.9,0.5
			c0.5,0.3,0.9,0.8,1.2,1.3v-1.6C315.1,51.2,316.5,51.2,316.5,51.2z M314.4,58.3c0.5-0.6,0.7-1.5,0.7-2.6s-0.2-2-0.7-2.6
			s-1.2-0.9-2.1-0.9s-1.6,0.3-2.1,0.9s-0.7,1.5-0.7,2.6s0.2,2,0.7,2.6s1.2,0.9,2.1,0.9C313.2,59.2,313.9,58.9,314.4,58.3z"/>
		<path class="st3" d="M326,51.6c0.6,0.4,1.1,0.9,1.4,1.6c0.3,0.7,0.5,1.5,0.5,2.5c0,0.9-0.2,1.8-0.5,2.5s-0.8,1.3-1.4,1.7
			s-1.3,0.6-2.1,0.6c-0.7,0-1.3-0.2-1.9-0.5c-0.5-0.3-0.9-0.8-1.2-1.3v1.7h-1.5V47h1.5v5.8c0.3-0.6,0.7-1,1.2-1.3s1.2-0.5,1.9-0.5
			C324.6,51,325.4,51.2,326,51.6z M325.6,58.3c0.5-0.6,0.7-1.5,0.7-2.6s-0.2-1.9-0.7-2.5s-1.2-0.9-2.1-0.9s-1.6,0.3-2.1,0.9
			c-0.5,0.6-0.7,1.5-0.7,2.6s0.2,2,0.7,2.6s1.2,0.9,2.1,0.9C324.5,59.2,325.1,58.9,325.6,58.3z"/>
		<path class="st3" d="M330.1,47h1.5v13.2h-1.5V47z"/>
		<path class="st3" d="M336.1,47.4V49h-1.8v-1.7h1.8V47.4z M334.4,51.2h1.5v9.1h-1.5V51.2z"/>
		<path class="st3" d="M338.1,59.2l0.5-1.1c0.5,0.4,1,0.7,1.5,0.8c0.5,0.2,1.1,0.3,1.7,0.3c0.7,0,1.2-0.1,1.6-0.4
			c0.4-0.2,0.5-0.6,0.5-1s-0.1-0.6-0.4-0.9c-0.2-0.2-0.6-0.4-1.2-0.5l-1.5-0.4c-0.8-0.2-1.3-0.5-1.8-0.9s-0.6-0.9-0.6-1.5
			c0-0.8,0.3-1.4,1-1.9c0.6-0.5,1.5-0.7,2.5-0.7c0.6,0,1.2,0.1,1.8,0.3s1,0.5,1.4,0.9l-0.5,1.1c-0.9-0.7-1.8-1.1-2.7-1.1
			c-0.6,0-1.1,0.1-1.5,0.4s-0.5,0.6-0.5,1s0.1,0.7,0.3,0.9s0.6,0.4,1.1,0.5l1.5,0.4c0.8,0.2,1.5,0.5,1.9,0.9s0.6,0.9,0.6,1.6
			c0,0.8-0.3,1.4-1,1.9c-0.6,0.5-1.5,0.7-2.6,0.7C340.2,60.4,339,60,338.1,59.2z"/>
		<path class="st3" d="M355.4,54.6v5.7H354v-5.6c0-0.8-0.2-1.5-0.5-1.8s-0.9-0.6-1.6-0.6c-0.8,0-1.5,0.3-2,0.8s-0.8,1.2-0.8,2.1v5.2
			h-1.5V47h1.5v5.7c0.3-0.6,0.7-1,1.2-1.3s1.1-0.4,1.8-0.4C354.3,51,355.4,52.2,355.4,54.6z"/>
		<path class="st3" d="M371.2,54.6v5.7h-1.5v-5.6c0-0.9-0.1-1.5-0.4-1.9s-0.8-0.6-1.4-0.6c-0.8,0-1.4,0.3-1.8,0.8s-0.6,1.2-0.6,2.1
			v5.2H364v-5.6c0-0.8-0.1-1.5-0.4-1.8c-0.3-0.4-0.8-0.6-1.4-0.6c-0.8,0-1.4,0.3-1.8,0.8s-0.7,1.2-0.7,2.1v5.2h-1.5v-6.5
			c0-0.9,0-1.8-0.1-2.5h1.4l0.1,1.6c0.3-0.6,0.6-1,1.1-1.3s1.1-0.5,1.7-0.5c0.7,0,1.3,0.1,1.8,0.4s0.8,0.7,1,1.3
			c0.3-0.5,0.7-1,1.2-1.3s1.1-0.5,1.8-0.5C370.2,51,371.2,52.2,371.2,54.6z"/>
		<path class="st3" d="M381.6,55.7H375c0,1.2,0.3,2,0.8,2.6s1.3,0.9,2.3,0.9c1.1,0,2-0.4,2.9-1.1l0.5,1.1c-0.4,0.4-0.9,0.7-1.5,0.9
			s-1.3,0.3-1.9,0.3c-1.4,0-2.5-0.4-3.3-1.3c-0.8-0.8-1.2-2-1.2-3.4c0-0.9,0.2-1.7,0.5-2.5c0.4-0.7,0.9-1.3,1.5-1.7s1.4-0.6,2.2-0.6
			c1.2,0,2.1,0.4,2.8,1.2s1,1.9,1,3.2L381.6,55.7L381.6,55.7z M375.9,52.8c-0.5,0.5-0.8,1.1-0.9,1.9h5.3c-0.1-0.9-0.3-1.5-0.7-1.9
			c-0.4-0.4-1-0.7-1.8-0.7S376.4,52.4,375.9,52.8z"/>
		<path class="st3" d="M391.6,54.6v5.7h-1.5v-5.6c0-0.8-0.2-1.5-0.5-1.8s-0.9-0.6-1.6-0.6c-0.8,0-1.5,0.3-2,0.8s-0.8,1.2-0.8,2.1
			v5.2h-1.5v-6.5c0-0.9,0-1.8-0.1-2.5h1.4l0.1,1.6c0.3-0.6,0.7-1,1.2-1.4c0.6-0.3,1.2-0.5,1.9-0.5C390.5,51,391.6,52.2,391.6,54.6z"
			/>
		<path class="st3" d="M396.3,52.4v5c0,0.7,0.1,1.1,0.4,1.4c0.3,0.3,0.7,0.4,1.2,0.4c0.3,0,0.7-0.1,1-0.2v1.2
			c-0.4,0.1-0.8,0.2-1.3,0.2c-0.9,0-1.5-0.2-2-0.7s-0.7-1.2-0.7-2.2v-5.1H393v-1.2h1.8v-2.3l1.5-0.5v2.8h2.6v1.2
			C398.9,52.4,396.3,52.4,396.3,52.4z"/>
	</g>
	<rect x="274.1" y="226.3" class="st6" width="136.7" height="40.1"/>
	<g class="st4">
		<path class="st2" d="M301.3,228.9h7.9v1.2h-6.5v4.4h6.1v1.2h-6.1v5.9h-1.5v-12.7L301.3,228.9L301.3,228.9z"/>
		<path class="st2" d="M318.6,237.2H312c0,1.2,0.3,2,0.8,2.6s1.3,0.9,2.3,0.9c1.1,0,2-0.4,2.9-1.1l0.5,1.1c-0.4,0.4-0.9,0.7-1.5,0.9
			s-1.3,0.3-1.9,0.3c-1.4,0-2.5-0.4-3.3-1.3c-0.8-0.8-1.2-2-1.2-3.4c0-0.9,0.2-1.7,0.5-2.5c0.4-0.7,0.9-1.3,1.5-1.7s1.4-0.6,2.2-0.6
			c1.2,0,2.1,0.4,2.8,1.2s1,1.9,1,3.2L318.6,237.2L318.6,237.2z M312.9,234.3c-0.5,0.5-0.8,1.1-0.9,1.9h5.3
			c-0.1-0.9-0.3-1.5-0.7-1.9c-0.4-0.4-1-0.7-1.8-0.7S313.4,233.8,312.9,234.3z"/>
		<path class="st2" d="M328.8,228.5v13.2h-1.4v-1.6c-0.3,0.6-0.7,1-1.2,1.3s-1.2,0.5-1.9,0.5c-0.8,0-1.5-0.2-2.1-0.6
			c-0.6-0.4-1.1-1-1.4-1.7s-0.5-1.5-0.5-2.5c0-0.9,0.2-1.8,0.5-2.5s0.8-1.2,1.4-1.6c0.6-0.4,1.3-0.6,2.1-0.6c0.7,0,1.3,0.2,1.9,0.5
			c0.5,0.3,0.9,0.7,1.2,1.3v-5.7L328.8,228.5L328.8,228.5z M326.6,239.7c0.5-0.6,0.7-1.5,0.7-2.6s-0.2-2-0.7-2.6s-1.2-0.9-2.1-0.9
			s-1.6,0.3-2.1,0.9c-0.5,0.6-0.7,1.4-0.7,2.5s0.2,2,0.7,2.6s1.2,0.9,2.1,0.9C325.5,240.6,326.2,240.3,326.6,239.7z"/>
		<path class="st2" d="M341.9,241.7h-1.6l-1.6-4.3c-0.2-0.5-0.5-0.9-0.8-1.1c-0.3-0.2-0.8-0.3-1.4-0.3h-3.2v5.6h-1.5v-12.8h5.1
			c1.4,0,2.4,0.3,3.2,0.9c0.7,0.6,1.1,1.5,1.1,2.6c0,0.8-0.2,1.5-0.7,2.1c-0.4,0.6-1.1,1-1.9,1.2c0.4,0.1,0.7,0.2,1,0.5
			s0.5,0.6,0.7,1.1L341.9,241.7z M336.8,234.9c2,0,3-0.8,3-2.4c0-0.8-0.2-1.4-0.7-1.8c-0.5-0.4-1.2-0.6-2.2-0.6h-3.5v4.8H336.8z"/>
		<path class="st2" d="M352.6,238.4h-6.7l-1.4,3.3H343l5.6-12.8h1.3l5.6,12.8H354L352.6,238.4z M352,237.2l-2.8-6.6l-2.8,6.6H352z"
			/>
		<path class="st2" d="M369.5,228.9v12.8h-1.4v-9.5l-4.2,9.5h-1l-4.2-9.5v9.5h-1.4v-12.8h1.2l4.9,11.1l4.8-11.1H369.5z"/>
		<path class="st2" d="M372.7,228.9h5.1c1.3,0,2.3,0.3,3.1,1c0.7,0.6,1.1,1.5,1.1,2.6s-0.4,2-1.1,2.6s-1.8,1-3.1,1h-3.6v5.6h-1.5
			V228.9z M377.7,234.9c0.9,0,1.7-0.2,2.1-0.6s0.7-1,0.7-1.8s-0.2-1.4-0.7-1.8c-0.5-0.4-1.2-0.6-2.1-0.6h-3.5v4.7h3.5V234.9z"/>
	</g>
	<g class="st4">
		<path class="st2" d="M311,262.7c-0.9-0.5-1.6-1.3-2.1-2.3s-0.7-2.2-0.7-3.5s0.2-2.5,0.7-3.5s1.2-1.7,2.1-2.3s1.9-0.8,3.2-0.8
			c0.9,0,1.7,0.1,2.4,0.4c0.7,0.3,1.4,0.7,1.9,1.2l-0.6,1.1c-0.6-0.5-1.2-0.9-1.8-1.1c-0.6-0.2-1.3-0.3-2-0.3
			c-1.4,0-2.5,0.5-3.3,1.4s-1.2,2.2-1.2,3.9c0,1.7,0.4,3,1.2,3.9s1.9,1.4,3.3,1.4c0.7,0,1.4-0.1,2-0.3c0.6-0.2,1.2-0.6,1.8-1.1
			l0.6,1.1c-0.5,0.5-1.2,0.9-1.9,1.2c-0.7,0.3-1.6,0.4-2.4,0.4C312.9,263.5,311.9,263.2,311,262.7z"/>
		<path class="st2" d="M322.1,262.9c-0.6-0.4-1.1-0.9-1.5-1.6s-0.5-1.5-0.5-2.5c0-0.9,0.2-1.8,0.5-2.5s0.9-1.3,1.5-1.6
			c0.6-0.4,1.4-0.6,2.2-0.6s1.6,0.2,2.2,0.6c0.6,0.4,1.1,0.9,1.5,1.6s0.5,1.5,0.5,2.5c0,0.9-0.2,1.8-0.5,2.5s-0.9,1.3-1.5,1.6
			c-0.6,0.4-1.4,0.6-2.2,0.6S322.8,263.3,322.1,262.9z M326.4,261.4c0.5-0.6,0.7-1.5,0.7-2.6s-0.2-2-0.7-2.6s-1.2-0.9-2.1-0.9
			s-1.6,0.3-2.1,0.9c-0.5,0.6-0.7,1.5-0.7,2.6s0.2,2,0.7,2.6s1.2,0.9,2.1,0.9S326,262,326.4,261.4z"/>
		<path class="st2" d="M338.7,257.6v5.7h-1.5v-5.6c0-0.8-0.2-1.5-0.5-1.8s-0.9-0.6-1.6-0.6c-0.8,0-1.5,0.3-2,0.8s-0.8,1.2-0.8,2.1
			v5.2h-1.5v-6.5c0-0.9,0-1.8-0.1-2.5h1.4l0.1,1.6c0.3-0.6,0.7-1,1.2-1.4c0.6-0.3,1.2-0.5,1.9-0.5
			C337.6,254.1,338.7,255.3,338.7,257.6z"/>
		<path class="st2" d="M349.2,257.6v5.7h-1.5v-5.6c0-0.8-0.2-1.5-0.5-1.8s-0.9-0.6-1.6-0.6c-0.8,0-1.5,0.3-2,0.8s-0.8,1.2-0.8,2.1
			v5.2h-1.5v-6.5c0-0.9,0-1.8-0.1-2.5h1.4l0.1,1.6c0.3-0.6,0.7-1,1.2-1.4c0.6-0.3,1.2-0.5,1.9-0.5
			C348.1,254.1,349.2,255.3,349.2,257.6z"/>
		<path class="st2" d="M359.6,258.8H353c0,1.2,0.3,2,0.8,2.6s1.3,0.9,2.3,0.9c1.1,0,2-0.4,2.9-1.1l0.5,1.1c-0.4,0.4-0.9,0.7-1.5,0.9
			s-1.3,0.3-1.9,0.3c-1.4,0-2.5-0.4-3.3-1.3c-0.8-0.8-1.2-2-1.2-3.4c0-0.9,0.2-1.7,0.5-2.5c0.4-0.7,0.9-1.3,1.5-1.7s1.4-0.6,2.2-0.6
			c1.2,0,2.1,0.4,2.8,1.2s1,1.9,1,3.2L359.6,258.8L359.6,258.8z M353.9,255.9c-0.5,0.5-0.8,1.1-0.9,1.9h5.3
			c-0.1-0.9-0.3-1.5-0.7-1.9c-0.4-0.4-1-0.7-1.8-0.7S354.3,255.4,353.9,255.9z"/>
		<path class="st2" d="M363.3,262.9c-0.7-0.4-1.2-0.9-1.5-1.6s-0.5-1.5-0.5-2.5c0-0.9,0.2-1.8,0.5-2.5c0.4-0.7,0.9-1.3,1.5-1.7
			c0.7-0.4,1.4-0.6,2.3-0.6c0.6,0,1.2,0.1,1.8,0.3s1,0.5,1.4,0.9l-0.5,1.1c-0.5-0.4-0.9-0.6-1.3-0.8s-0.9-0.3-1.3-0.3
			c-0.9,0-1.7,0.3-2.2,0.9c-0.5,0.6-0.8,1.5-0.8,2.6s0.3,1.9,0.8,2.5s1.3,0.9,2.2,0.9c0.4,0,0.9-0.1,1.3-0.3s0.9-0.4,1.3-0.8
			l0.5,1.1c-0.4,0.4-0.9,0.6-1.4,0.9c-0.6,0.2-1.2,0.3-1.8,0.3C364.7,263.5,363.9,263.3,363.3,262.9z"/>
		<path class="st2" d="M372.6,255.4v5c0,0.7,0.1,1.1,0.4,1.4s0.7,0.4,1.2,0.4c0.3,0,0.7-0.1,1-0.2v1.2c-0.4,0.1-0.8,0.2-1.3,0.2
			c-0.9,0-1.5-0.2-2-0.7s-0.7-1.2-0.7-2.2v-5.1h-1.8v-1.2h1.8V252l1.5-0.5v2.8h2.6v1.2h-2.7V255.4z"/>
	</g>
</g>
</svg>
