<?xml version="1.0" encoding="utf-8"?>
<!-- Generator: Adobe Illustrator 24.2.3, SVG Export Plug-In . SVG Version: 6.00 Build 0)  -->
<svg version="1.1" id="Layer_1" xmlns="http://www.w3.org/2000/svg" xmlns:xlink="http://www.w3.org/1999/xlink" x="0px" y="0px"
	 viewBox="0 0 662 613" style="enable-background:new 0 0 662 613;" xml:space="preserve">
<style type="text/css">
	.st0{display:none;}
	.st1{display:inline;fill:#F2F2F2;}
	.st2{fill:#FFFFFF;}
	.st3{fill:#0A90B7;}
	.st4{fill:#FFFFFF;stroke:#C71F25;stroke-width:0.5;}
	.st5{fill:#FFFFFF;stroke:#1A4480;stroke-width:0.5;}
	.st6{enable-background:new    ;}
	.st7{fill:none;}
	.st8{fill:#333333;}
	.st9{fill:#CC1D1D;}
	.st10{fill:none;stroke:#1A4480;stroke-width:1.1571;}
	.st11{fill:none;stroke:#CC1D1D;stroke-width:1.1571;}
	.st12{fill:#1A4480;}
	.st13{fill:#454545;}
	.st14{fill:none;stroke:#D0D0D0;}
</style>
<g id="Layer_2_1_" class="st0">
	<rect x="-1565" y="-168" class="st1" width="2787" height="1656"/>
</g>
<g id="Layer_4">
	<path id="Path_11101_1_" class="st2" d="M646,502.9H415.5l13.4-29.9l-13.4-29.9H646l14.5,29.9L646,502.9z"/>
	<path id="Path_11099_1_" class="st3" d="M171.8,502.9H-0.1L12,473l-12.1-29.9h171.9l13.1,29.9L171.8,502.9z"/>
	<path id="Path_11099_3_" class="st3" d="M379.1,502.9H207.2l12.1-29.9l-12.1-29.9h171.9l13.1,29.9L379.1,502.9z"/>
	<path id="Path_11287_1_" class="st3" d="M649.2,162.9H343.8l12.6-29.9l-12.6-29.9h305.4l12.6,29.9L649.2,162.9z"/>
	<path id="Path_11287-2" class="st3" d="M305.4,162.9H0v-59.8h305.4L318,133L305.4,162.9z"/>
	<path id="Path_11341_1_" class="st3" d="M425,498.5h-3.2l1.2-3l8.2-20.2l1-2.4l-1-2.4l-8.2-20.3l-1.2-3h26.5v-4.3h-32.9l11.8,29.2
		l0.3,0.8l-0.3,0.8l-11.8,29.1H598v6.1l11-8.1l-11-8.1v5.9L425,498.5L425,498.5z"/>
	<path id="Path_11342_1_" class="st3" d="M598.1,496.3v-3.7l11,8.1l-11,8.1v-6.1H415.5l11.8-29.1l0.3-0.8l-0.3-0.8l-11.8-29.2h32.9
		v4.3h-26.5l1.2,2.9l8.2,20.3l1,2.4l-1,2.4l-8.2,20.2l-1.2,3h176.3L598.1,496.3z"/>
	<path id="Path_11343_1_" class="st3" d="M648.9,502.8h-32.5v-4.3h29.7l0.6-1.3l10.3-23.5l0.4-0.9l-0.4-0.9l-10.3-23.5l-0.6-1.3
		H466.6v6.1l-11-8.1l11-8.1v5.9h182.3l13.1,30L648.9,502.8z"/>
</g>
<g id="Layer_3">
	<polygon class="st4" points="315.8,529.5 299.7,512.5 283.5,529.5 232.1,529.5 232.1,615.4 367.2,615.4 367.2,529.5 	"/>
	<polygon class="st5" points="367.2,330.5 232.1,330.5 232.1,416.4 283.5,416.4 299.7,433.4 315.8,416.4 367.2,416.4 	"/>
	<polygon class="st4" points="106.6,529.5 92.4,514.5 78.1,529.5 24.8,529.5 24.8,615.4 159.9,615.4 159.9,529.5 	"/>
	<polygon class="st5" points="159.9,332.5 24.8,332.5 24.8,418.4 76.2,418.4 92.4,435.4 108.5,418.4 159.9,418.4 	"/>
	<polygon class="st4" points="593,189.9 575.8,171.9 558.7,189.9 507,189.9 507,258.9 643.8,258.9 643.8,189.9 	"/>
	<polygon class="st4" points="437,189.9 419.9,171.9 402.8,189.9 351.1,189.9 351.1,258.9 487.9,258.9 487.9,189.9 	"/>
	<polygon class="st5" points="643.8,5 507,5 507,74 558.9,74 575.8,91.8 592.8,74 643.8,74 	"/>
	<polygon class="st5" points="487.9,5 351.1,5 351.1,74 402.9,74 419.9,91.8 436.8,74 487.9,74 	"/>
	<g class="st6">
		<path class="st2" d="M48.4,139l1-2.2c0.9,0.6,2.2,1,3.5,1c1.2,0,1.7-0.3,1.7-0.9c0-1.7-6-0.5-6-4.3c0-1.9,1.5-3.4,4.6-3.4
			c1.4,0,2.8,0.3,3.8,0.9l-0.9,2.2c-1-0.5-2-0.8-2.9-0.8c-1.2,0-1.7,0.4-1.7,0.9c0,1.6,6,0.4,6,4.3c0,1.8-1.5,3.4-4.6,3.4
			C51.1,140.2,49.4,139.7,48.4,139z"/>
		<path class="st2" d="M67,136.6h-5.9c0.2,0.8,0.9,1.3,2,1.3c0.8,0,1.3-0.2,1.9-0.7l1.5,1.6c-0.8,0.9-1.9,1.3-3.5,1.3
			c-2.9,0-4.8-1.8-4.8-4.2c0-2.4,1.9-4.2,4.5-4.2c2.4,0,4.3,1.5,4.3,4.2C67,136.1,67,136.4,67,136.6z M61,135.1h3.3
			c-0.1-0.9-0.8-1.4-1.7-1.4C61.8,133.7,61.2,134.3,61,135.1z"/>
		<path class="st2" d="M68.3,128.9h2.8V140h-2.8V128.9z"/>
		<path class="st2" d="M81.3,136.6h-5.9c0.2,0.8,0.9,1.3,2,1.3c0.8,0,1.3-0.2,1.9-0.7l1.5,1.6c-0.8,0.9-1.9,1.3-3.5,1.3
			c-2.9,0-4.8-1.8-4.8-4.2c0-2.4,1.9-4.2,4.5-4.2c2.4,0,4.3,1.5,4.3,4.2C81.3,136.1,81.3,136.4,81.3,136.6z M75.3,135.1h3.3
			c-0.1-0.9-0.8-1.4-1.7-1.4C76.1,133.7,75.5,134.3,75.3,135.1z"/>
		<path class="st2" d="M82.1,135.9c0-2.4,1.9-4.2,4.7-4.2c1.8,0,3.3,0.8,3.8,2.2l-2.2,1.1c-0.4-0.8-1-1.1-1.6-1.1
			c-1,0-1.8,0.7-1.8,1.9c0,1.3,0.8,2,1.8,2c0.7,0,1.2-0.3,1.6-1.1l2.2,1.1c-0.6,1.4-2,2.2-3.8,2.2C84.1,140.1,82.1,138.4,82.1,135.9
			z"/>
		<path class="st2" d="M97.4,139.7c-0.5,0.3-1.2,0.5-2,0.5c-2.1,0-3.3-1-3.3-3.1v-2.7H91v-2.1h1.2V130H95v2.1h1.9v2.1H95v2.7
			c0,0.6,0.3,0.9,0.9,0.9c0.3,0,0.6-0.1,0.9-0.3L97.4,139.7z"/>
		<path class="st2" d="M110.1,137.9h-4.4l-0.8,2h-3l4.6-10.5h2.9L114,140h-3.1L110.1,137.9z M109.2,135.8l-1.4-3.4l-1.4,3.4H109.2z"
			/>
		<path class="st2" d="M123.1,131.9v8.1h-2.7v-0.9c-0.6,0.7-1.5,1-2.4,1c-2,0-3.5-1.1-3.5-3.7v-4.5h2.9v4.1c0,1.3,0.5,1.8,1.4,1.8
			c0.8,0,1.5-0.6,1.5-1.9v-3.9H123.1z"/>
		<path class="st2" d="M130.5,139.7c-0.5,0.3-1.2,0.5-2,0.5c-2.1,0-3.3-1-3.3-3.1v-2.7h-1.2v-2.1h1.2V130h2.8v2.1h1.9v2.1h-1.9v2.7
			c0,0.6,0.3,0.9,0.9,0.9c0.3,0,0.6-0.1,0.9-0.3L130.5,139.7z"/>
		<path class="st2" d="M140.3,135.3v4.6h-2.9v-4.2c0-1.2-0.5-1.7-1.3-1.7c-0.9,0-1.6,0.6-1.6,1.9v3.9h-2.8v-11.1h2.8v3.8
			c0.6-0.6,1.5-0.9,2.4-0.9C138.8,131.7,140.3,132.8,140.3,135.3z"/>
		<path class="st2" d="M141.7,135.9c0-2.4,1.9-4.2,4.6-4.2c2.7,0,4.6,1.7,4.6,4.2c0,2.5-1.9,4.2-4.6,4.2
			C143.6,140.1,141.7,138.4,141.7,135.9z M148,135.9c0-1.2-0.7-1.9-1.7-1.9c-1,0-1.7,0.7-1.7,1.9c0,1.2,0.8,2,1.7,2
			C147.2,137.9,148,137.2,148,135.9z"/>
		<path class="st2" d="M157.6,131.7v2.6c-0.3,0-0.4,0-0.6,0c-1.2,0-2,0.6-2,2v3.7h-2.8v-8.1h2.7v1
			C155.5,132.1,156.4,131.7,157.6,131.7z"/>
		<path class="st2" d="M158.5,129.4c0-0.9,0.7-1.5,1.7-1.5s1.7,0.6,1.7,1.5c0,0.9-0.7,1.6-1.7,1.6S158.5,130.3,158.5,129.4z
			 M158.8,131.9h2.8v8.1h-2.8V131.9z"/>
		<path class="st2" d="M170.6,137.9v2.1h-7.5v-1.7l3.8-4.3h-3.7v-2.1h7.2v1.7l-3.8,4.3H170.6z"/>
		<path class="st2" d="M179.5,135.5v4.5h-2.7v-1c-0.4,0.8-1.2,1.2-2.4,1.2c-2,0-3-1.1-3-2.5c0-1.5,1.1-2.4,3.6-2.4h1.6
			c0-0.8-0.6-1.3-1.7-1.3c-0.8,0-1.6,0.3-2.2,0.7l-1-1.9c0.9-0.6,2.3-0.9,3.6-0.9C177.9,131.7,179.5,132.9,179.5,135.5z
			 M176.6,137.4v-0.7h-1.2c-0.9,0-1.2,0.3-1.2,0.8c0,0.5,0.4,0.8,1.1,0.8C175.8,138.3,176.4,138,176.6,137.4z"/>
		<path class="st2" d="M186.9,139.7c-0.5,0.3-1.2,0.5-2,0.5c-2.1,0-3.3-1-3.3-3.1v-2.7h-1.2v-2.1h1.2V130h2.8v2.1h1.9v2.1h-1.9v2.7
			c0,0.6,0.3,0.9,0.9,0.9c0.3,0,0.6-0.1,0.9-0.3L186.9,139.7z"/>
		<path class="st2" d="M187.6,129.4c0-0.9,0.7-1.5,1.7-1.5s1.7,0.6,1.7,1.5c0,0.9-0.7,1.6-1.7,1.6S187.6,130.3,187.6,129.4z
			 M188,131.9h2.8v8.1H188V131.9z"/>
		<path class="st2" d="M192.1,135.9c0-2.4,1.9-4.2,4.6-4.2c2.7,0,4.6,1.7,4.6,4.2c0,2.5-1.9,4.2-4.6,4.2
			C194.1,140.1,192.1,138.4,192.1,135.9z M198.4,135.9c0-1.2-0.7-1.9-1.7-1.9c-1,0-1.7,0.7-1.7,1.9c0,1.2,0.8,2,1.7,2
			C197.7,137.9,198.4,137.2,198.4,135.9z"/>
		<path class="st2" d="M211.3,135.3v4.6h-2.9v-4.2c0-1.2-0.5-1.7-1.3-1.7c-0.9,0-1.6,0.6-1.6,1.9v3.9h-2.8v-8.1h2.7v0.9
			c0.6-0.7,1.6-1,2.6-1C209.8,131.7,211.3,132.8,211.3,135.3z"/>
		<path class="st2" d="M227,133.4c0,2.4-1.8,3.9-4.7,3.9h-1.8v2.7h-3v-10.5h4.8C225.2,129.5,227,131,227,133.4z M224,133.4
			c0-1-0.6-1.5-1.8-1.5h-1.6v3.1h1.6C223.4,134.9,224,134.3,224,133.4z"/>
		<path class="st2" d="M235.9,135.5v4.5h-2.7v-1c-0.4,0.8-1.2,1.2-2.4,1.2c-2,0-3-1.1-3-2.5c0-1.5,1.1-2.4,3.6-2.4h1.6
			c0-0.8-0.6-1.3-1.7-1.3c-0.8,0-1.6,0.3-2.2,0.7l-1-1.9c0.9-0.6,2.3-0.9,3.6-0.9C234.4,131.7,235.9,132.9,235.9,135.5z M233,137.4
			v-0.7h-1.2c-0.9,0-1.2,0.3-1.2,0.8c0,0.5,0.4,0.8,1.1,0.8C232.3,138.3,232.8,138,233,137.4z"/>
		<path class="st2" d="M243.3,139.7c-0.5,0.3-1.2,0.5-2,0.5c-2.1,0-3.3-1-3.3-3.1v-2.7h-1.2v-2.1h1.2V130h2.8v2.1h1.9v2.1h-1.9v2.7
			c0,0.6,0.3,0.9,0.9,0.9c0.3,0,0.6-0.1,0.9-0.3L243.3,139.7z"/>
		<path class="st2" d="M253.1,135.3v4.6h-2.9v-4.2c0-1.2-0.5-1.7-1.3-1.7c-0.9,0-1.6,0.6-1.6,1.9v3.9h-2.8v-11.1h2.8v3.8
			c0.6-0.6,1.5-0.9,2.4-0.9C251.6,131.7,253.1,132.8,253.1,135.3z"/>
	</g>
	<g class="st6">
		<path class="st2" d="M464,133.4c0,2.4-1.8,3.9-4.7,3.9h-1.8v2.7h-3v-10.5h4.8C462.2,129.5,464,131,464,133.4z M461,133.4
			c0-1-0.6-1.5-1.8-1.5h-1.6v3.1h1.6C460.4,134.9,461,134.3,461,133.4z"/>
		<path class="st2" d="M470.8,131.7v2.6c-0.3,0-0.4,0-0.6,0c-1.2,0-2,0.6-2,2v3.7h-2.8v-8.1h2.7v1
			C468.7,132.1,469.6,131.7,470.8,131.7z"/>
		<path class="st2" d="M480.2,136.6h-5.9c0.2,0.8,0.9,1.3,2,1.3c0.8,0,1.3-0.2,1.9-0.7l1.5,1.6c-0.8,0.9-1.9,1.3-3.5,1.3
			c-2.9,0-4.8-1.8-4.8-4.2c0-2.4,1.9-4.2,4.5-4.2c2.4,0,4.3,1.5,4.3,4.2C480.2,136.1,480.2,136.4,480.2,136.6z M474.2,135.1h3.3
			c-0.2-0.9-0.8-1.4-1.7-1.4S474.4,134.3,474.2,135.1z"/>
		<path class="st2" d="M490.7,135.9c0,2.6-1.8,4.2-4,4.2c-0.9,0-1.7-0.3-2.3-0.9v3.6h-2.8v-11h2.7v0.8c0.5-0.6,1.3-0.9,2.4-0.9
			C488.9,131.7,490.7,133.3,490.7,135.9z M487.8,135.9c0-1.2-0.8-1.9-1.7-1.9s-1.7,0.7-1.7,1.9c0,1.2,0.8,1.9,1.7,1.9
			S487.8,137.2,487.8,135.9z"/>
		<path class="st2" d="M499.4,135.5v4.5h-2.7v-1c-0.4,0.8-1.2,1.2-2.4,1.2c-2,0-3-1.1-3-2.5c0-1.5,1.1-2.4,3.6-2.4h1.6
			c0-0.8-0.6-1.3-1.7-1.3c-0.8,0-1.7,0.3-2.2,0.7l-1-1.9c0.9-0.6,2.3-0.9,3.6-0.9C497.9,131.7,499.4,132.9,499.4,135.5z
			 M496.6,137.4v-0.7h-1.2c-0.9,0-1.2,0.3-1.2,0.8c0,0.5,0.4,0.8,1.1,0.8C495.8,138.3,496.4,138,496.6,137.4z"/>
		<path class="st2" d="M506.7,131.7v2.6c-0.3,0-0.4,0-0.6,0c-1.2,0-2,0.6-2,2v3.7h-2.8v-8.1h2.7v1
			C504.5,132.1,505.5,131.7,506.7,131.7z"/>
		<path class="st2" d="M515.4,135.5v4.5h-2.7v-1c-0.4,0.8-1.2,1.2-2.4,1.2c-2,0-3-1.1-3-2.5c0-1.5,1.1-2.4,3.6-2.4h1.6
			c0-0.8-0.6-1.3-1.7-1.3c-0.8,0-1.6,0.3-2.2,0.7l-1-1.9c0.9-0.6,2.3-0.9,3.6-0.9C513.9,131.7,515.4,132.9,515.4,135.5z
			 M512.6,137.4v-0.7h-1.2c-0.9,0-1.2,0.3-1.2,0.8c0,0.5,0.4,0.8,1.1,0.8C511.8,138.3,512.3,138,512.6,137.4z"/>
		<path class="st2" d="M522.8,139.7c-0.5,0.3-1.2,0.5-2,0.5c-2.1,0-3.3-1-3.3-3.1v-2.7h-1.2v-2.1h1.2V130h2.8v2.1h1.9v2.1h-1.9v2.7
			c0,0.6,0.3,0.9,0.9,0.9c0.3,0,0.6-0.1,0.9-0.3L522.8,139.7z"/>
		<path class="st2" d="M523.6,129.4c0-0.9,0.7-1.5,1.7-1.5s1.7,0.6,1.7,1.5c0,0.9-0.7,1.6-1.7,1.6S523.6,130.3,523.6,129.4z
			 M523.9,131.9h2.8v8.1h-2.8V131.9z"/>
		<path class="st2" d="M528.1,135.9c0-2.4,1.9-4.2,4.6-4.2c2.7,0,4.6,1.7,4.6,4.2c0,2.5-1.9,4.2-4.6,4.2
			C530,140.1,528.1,138.4,528.1,135.9z M534.4,135.9c0-1.2-0.7-1.9-1.7-1.9c-1,0-1.7,0.7-1.7,1.9c0,1.2,0.8,2,1.7,2
			C533.7,137.9,534.4,137.2,534.4,135.9z"/>
		<path class="st2" d="M547.2,135.3v4.6h-2.8v-4.2c0-1.2-0.5-1.7-1.3-1.7c-0.9,0-1.6,0.6-1.6,1.9v3.9h-2.8v-8.1h2.7v0.9
			c0.6-0.7,1.6-1,2.6-1C545.8,131.7,547.2,132.8,547.2,135.3z"/>
	</g>
	<g class="st6">
		<path class="st2" d="M68.4,476.9h-1.6v2.8h-3v-10.5h4.8c2.9,0,4.7,1.5,4.7,3.9c0,1.5-0.8,2.7-2.1,3.3l2.3,3.3h-3.2L68.4,476.9z
			 M68.4,471.6h-1.6v3.1h1.6c1.2,0,1.8-0.6,1.8-1.5C70.3,472.1,69.7,471.6,68.4,471.6z"/>
		<path class="st2" d="M83,476.4h-5.9c0.2,0.8,0.9,1.3,2,1.3c0.8,0,1.3-0.2,1.9-0.7l1.5,1.6c-0.8,0.9-1.9,1.3-3.5,1.3
			c-2.9,0-4.8-1.8-4.8-4.2c0-2.4,1.9-4.2,4.5-4.2c2.4,0,4.3,1.5,4.3,4.2C83.1,475.9,83.1,476.2,83,476.4z M77.1,474.9h3.3
			c-0.1-0.9-0.8-1.4-1.7-1.4C77.9,473.5,77.3,474,77.1,474.9z"/>
		<path class="st2" d="M92.8,471.6l-3.4,8.1h-2.9l-3.3-8.1h2.9l2,5l2.1-5H92.8z"/>
		<path class="st2" d="M93.2,469.2c0-0.9,0.7-1.5,1.7-1.5s1.7,0.6,1.7,1.5c0,0.9-0.7,1.6-1.7,1.6S93.2,470,93.2,469.2z M93.6,471.6
			h2.8v8.1h-2.8V471.6z"/>
		<path class="st2" d="M106.5,476.4h-5.9c0.2,0.8,0.9,1.3,2,1.3c0.8,0,1.3-0.2,1.9-0.7l1.5,1.6c-0.8,0.9-1.9,1.3-3.5,1.3
			c-2.9,0-4.8-1.8-4.8-4.2c0-2.4,1.9-4.2,4.5-4.2c2.4,0,4.3,1.5,4.3,4.2C106.6,475.9,106.5,476.2,106.5,476.4z M100.6,474.9h3.3
			c-0.1-0.9-0.8-1.4-1.7-1.4C101.3,473.5,100.7,474,100.6,474.9z"/>
		<path class="st2" d="M121.2,471.6l-2.9,8.1h-2.8l-1.5-4.4l-1.6,4.4h-2.8l-2.9-8.1h2.7l1.7,4.9l1.7-4.9h2.4l1.7,5l1.7-5H121.2z"/>
	</g>
	<g class="st6">
		<path class="st2" d="M251.9,477.7h-4.4l-0.8,2h-3l4.6-10.5h2.9l4.6,10.5h-3.1L251.9,477.7z M251,475.5l-1.4-3.4l-1.4,3.4H251z"/>
		<path class="st2" d="M264.9,471.6v8.1h-2.7v-0.9c-0.6,0.7-1.5,1-2.4,1c-2,0-3.5-1.1-3.5-3.7v-4.5h2.9v4.1c0,1.3,0.5,1.8,1.4,1.8
			c0.8,0,1.5-0.6,1.5-1.9v-3.9H264.9z"/>
		<path class="st2" d="M272.4,479.4c-0.5,0.3-1.2,0.5-2,0.5c-2.1,0-3.3-1-3.3-3.1V474h-1.2v-2.1h1.2v-2.1h2.8v2.1h1.9v2.1h-1.9v2.7
			c0,0.6,0.3,0.9,0.9,0.9c0.3,0,0.6-0.1,0.9-0.3L272.4,479.4z"/>
		<path class="st2" d="M282.1,475.1v4.6h-2.9v-4.2c0-1.2-0.5-1.7-1.3-1.7c-0.9,0-1.6,0.6-1.6,1.9v3.9h-2.8v-11.1h2.8v3.8
			c0.6-0.6,1.5-0.9,2.4-0.9C280.7,471.5,282.1,472.6,282.1,475.1z"/>
		<path class="st2" d="M283.5,475.7c0-2.4,1.9-4.2,4.6-4.2c2.7,0,4.6,1.7,4.6,4.2c0,2.5-1.9,4.2-4.6,4.2
			C285.5,479.9,283.5,478.1,283.5,475.7z M289.8,475.7c0-1.2-0.7-1.9-1.7-1.9c-1,0-1.7,0.7-1.7,1.9c0,1.2,0.8,2,1.7,2
			C289.1,477.6,289.8,476.9,289.8,475.7z"/>
		<path class="st2" d="M299.5,471.5v2.6c-0.3,0-0.4,0-0.6,0c-1.2,0-2,0.6-2,2v3.7H294v-8.1h2.7v1
			C297.3,471.8,298.3,471.5,299.5,471.5z"/>
		<path class="st2" d="M300.3,469.2c0-0.9,0.7-1.5,1.7-1.5s1.7,0.6,1.7,1.5c0,0.9-0.7,1.6-1.7,1.6S300.3,470,300.3,469.2z
			 M300.6,471.6h2.8v8.1h-2.8V471.6z"/>
		<path class="st2" d="M312.4,477.6v2.1h-7.5v-1.7l3.8-4.3H305v-2.1h7.2v1.7l-3.8,4.3H312.4z"/>
		<path class="st2" d="M321.3,475.2v4.5h-2.7v-1c-0.4,0.8-1.2,1.2-2.4,1.2c-2,0-3-1.1-3-2.5c0-1.5,1.1-2.4,3.6-2.4h1.6
			c0-0.8-0.6-1.3-1.7-1.3c-0.8,0-1.6,0.3-2.2,0.7l-1-1.9c0.9-0.6,2.3-0.9,3.6-0.9C319.8,471.5,321.3,472.6,321.3,475.2z
			 M318.4,477.1v-0.7h-1.2c-0.9,0-1.2,0.3-1.2,0.8c0,0.5,0.4,0.8,1.1,0.8C317.7,478.1,318.2,477.8,318.4,477.1z"/>
		<path class="st2" d="M328.7,479.4c-0.5,0.3-1.2,0.5-2,0.5c-2.1,0-3.3-1-3.3-3.1V474h-1.2v-2.1h1.2v-2.1h2.8v2.1h1.9v2.1h-1.9v2.7
			c0,0.6,0.3,0.9,0.9,0.9c0.3,0,0.6-0.1,0.9-0.3L328.7,479.4z"/>
		<path class="st2" d="M329.5,469.2c0-0.9,0.7-1.5,1.7-1.5s1.7,0.6,1.7,1.5c0,0.9-0.7,1.6-1.7,1.6S329.5,470,329.5,469.2z
			 M329.8,471.6h2.8v8.1h-2.8V471.6z"/>
		<path class="st2" d="M334,475.7c0-2.4,1.9-4.2,4.6-4.2c2.7,0,4.6,1.7,4.6,4.2c0,2.5-1.9,4.2-4.6,4.2
			C335.9,479.9,334,478.1,334,475.7z M340.3,475.7c0-1.2-0.7-1.9-1.7-1.9c-1,0-1.7,0.7-1.7,1.9c0,1.2,0.8,2,1.7,2
			C339.5,477.6,340.3,476.9,340.3,475.7z"/>
		<path class="st2" d="M353.1,475.1v4.6h-2.8v-4.2c0-1.2-0.5-1.7-1.3-1.7c-0.9,0-1.6,0.6-1.6,1.9v3.9h-2.8v-8.1h2.7v0.9
			c0.6-0.7,1.6-1,2.6-1C351.7,471.5,353.1,472.6,353.1,475.1z"/>
	</g>
</g>
<g id="Layer_1_1_">
	<rect x="232.2" y="545.3" class="st7" width="135" height="61.5"/>
	<g class="st6">
		<path class="st8" d="M284,562.1c0.5,0.1,0.9,0.1,1.3,0.1c0.6,0,1-0.2,1.2-0.5s0.4-0.9,0.4-1.7v-12.2h1.4v12.2
			c0,1.2-0.2,2.1-0.7,2.6c-0.4,0.5-1.2,0.8-2.2,0.8c-0.4,0-0.9,0-1.5-0.1V562.1z"/>
		<path class="st8" d="M299.5,557H293l-1.4,3.2h-1.5l5.5-12.4h1.3l5.5,12.4h-1.5L299.5,557z M299,555.9l-2.7-6.4l-2.7,6.4H299z"/>
		<path class="st8" d="M312.9,554.9c0.4,0.5,0.6,1.2,0.6,1.9c0,1.1-0.4,1.9-1.1,2.5c-0.7,0.6-1.7,0.9-3.1,0.9h-5.2v-12.4h5
			c1.3,0,2.3,0.3,3,0.8s1.1,1.4,1.1,2.4c0,0.7-0.2,1.2-0.5,1.7s-0.8,0.8-1.4,1.1C312,554.1,312.5,554.4,312.9,554.9z M305.6,553.3
			h3.3c0.9,0,1.6-0.2,2.1-0.6s0.7-0.9,0.7-1.6c0-1.4-0.9-2.1-2.8-2.1h-3.3V553.3z M311.4,558.5c0.5-0.4,0.7-0.9,0.7-1.7
			c0-1.5-0.9-2.3-2.8-2.3h-3.6v4.5h3.6C310.2,559,310.9,558.9,311.4,558.5z"/>
	</g>
	<g class="st6">
		<path class="st8" d="M252.5,577.9H246l-1.4,3.2h-1.5l5.5-12.4h1.3l5.5,12.4h-1.5L252.5,577.9z M252,576.8l-2.7-6.4l-2.7,6.4H252z"
			/>
		<path class="st8" d="M264.3,572.4v8.8H263v-1.5c-0.3,0.5-0.7,0.9-1.2,1.2c-0.5,0.3-1.1,0.4-1.7,0.4c-1,0-1.8-0.3-2.4-0.9
			c-0.5-0.6-0.8-1.4-0.8-2.6v-5.4h1.4v5.4c0,0.8,0.2,1.4,0.5,1.7c0.3,0.4,0.8,0.6,1.5,0.6c0.8,0,1.4-0.3,1.9-0.8
			c0.5-0.5,0.7-1.2,0.7-2v-5H264.3z"/>
		<path class="st8" d="M268.9,573.5v4.8c0,0.7,0.1,1.1,0.4,1.4c0.3,0.3,0.6,0.4,1.1,0.4c0.3,0,0.6-0.1,0.9-0.2v1.2
			c-0.4,0.1-0.8,0.2-1.2,0.2c-0.8,0-1.5-0.2-2-0.7s-0.7-1.2-0.7-2.1v-5h-1.7v-1.1h1.7v-2.2l1.4-0.5v2.8h2.5v1.1H268.9z"/>
		<path class="st8" d="M280.7,575.6v5.5h-1.4v-5.4c0-0.8-0.2-1.4-0.5-1.8c-0.3-0.4-0.8-0.6-1.5-0.6c-0.8,0-1.5,0.2-2,0.7
			c-0.5,0.5-0.7,1.2-0.7,2v5h-1.4v-12.8h1.4v5.5c0.3-0.5,0.7-0.9,1.2-1.2c0.5-0.3,1.1-0.4,1.8-0.4
			C279.6,572.2,280.7,573.3,280.7,575.6z"/>
		<path class="st8" d="M284.8,580.7c-0.6-0.4-1.1-0.9-1.5-1.6s-0.5-1.5-0.5-2.4c0-0.9,0.2-1.7,0.5-2.4s0.8-1.2,1.5-1.6
			c0.6-0.4,1.4-0.6,2.2-0.6c0.8,0,1.6,0.2,2.2,0.6s1.1,0.9,1.5,1.6s0.5,1.5,0.5,2.4c0,0.9-0.2,1.7-0.5,2.4s-0.8,1.2-1.5,1.6
			s-1.4,0.6-2.2,0.6C286.2,581.3,285.4,581.1,284.8,580.7z M289,579.2c0.5-0.6,0.7-1.4,0.7-2.5c0-1.1-0.2-1.9-0.7-2.5
			s-1.1-0.9-2-0.9c-0.9,0-1.5,0.3-2,0.9c-0.5,0.6-0.7,1.4-0.7,2.5c0,1.1,0.2,1.9,0.7,2.5s1.1,0.9,2,0.9S288.5,579.8,289,579.2z"/>
		<path class="st8" d="M298.2,572.3l0,1.3c-0.3-0.1-0.6-0.1-0.9-0.1c-0.8,0-1.5,0.3-1.9,0.8c-0.4,0.5-0.6,1.2-0.6,1.9v5h-1.4v-6.3
			c0-0.9,0-1.7-0.1-2.5h1.3l0.1,1.6c0.2-0.6,0.6-1,1.1-1.4c0.5-0.3,1-0.5,1.7-0.5C297.7,572.2,298,572.2,298.2,572.3z"/>
		<path class="st8" d="M301.2,568.7v1.6h-1.7v-1.6H301.2z M299.6,572.4h1.4v8.8h-1.4V572.4z"/>
		<path class="st8" d="M310.7,580v1.1h-7.4v-1l5.5-6.7h-5.3v-1.1h7v1L305,580H310.7z"/>
		<path class="st8" d="M320.3,572.4v8.8H319v-1.6c-0.3,0.5-0.6,1-1.2,1.3c-0.5,0.3-1.1,0.4-1.8,0.4c-0.8,0-1.5-0.2-2-0.6
			s-1-0.9-1.4-1.6c-0.3-0.7-0.5-1.5-0.5-2.4s0.2-1.7,0.5-2.4c0.3-0.7,0.8-1.2,1.4-1.6c0.6-0.4,1.3-0.6,2-0.6c0.7,0,1.3,0.2,1.8,0.5
			c0.5,0.3,0.9,0.7,1.2,1.3v-1.5H320.3z M318.3,579.2c0.5-0.6,0.7-1.4,0.7-2.5c0-1.1-0.2-1.9-0.7-2.5c-0.5-0.6-1.1-0.9-2-0.9
			c-0.9,0-1.5,0.3-2,0.9c-0.5,0.6-0.7,1.4-0.7,2.5s0.2,1.9,0.7,2.5c0.5,0.6,1.2,0.9,2,0.9C317.1,580.1,317.8,579.8,318.3,579.2z"/>
		<path class="st8" d="M325,573.5v4.8c0,0.7,0.1,1.1,0.4,1.4c0.3,0.3,0.6,0.4,1.1,0.4c0.3,0,0.6-0.1,0.9-0.2v1.2
			c-0.4,0.1-0.8,0.2-1.2,0.2c-0.8,0-1.5-0.2-2-0.7s-0.7-1.2-0.7-2.1v-5h-1.7v-1.1h1.7v-2.2l1.4-0.5v2.8h2.5v1.1H325z"/>
		<path class="st8" d="M330.8,568.7v1.6H329v-1.6H330.8z M329.2,572.4h1.4v8.8h-1.4V572.4z"/>
		<path class="st8" d="M334.8,580.7c-0.6-0.4-1.1-0.9-1.5-1.6s-0.5-1.5-0.5-2.4c0-0.9,0.2-1.7,0.5-2.4s0.8-1.2,1.5-1.6
			c0.6-0.4,1.4-0.6,2.2-0.6s1.6,0.2,2.2,0.6c0.6,0.4,1.1,0.9,1.5,1.6s0.5,1.5,0.5,2.4c0,0.9-0.2,1.7-0.5,2.4s-0.8,1.2-1.5,1.6
			c-0.6,0.4-1.4,0.6-2.2,0.6S335.4,581.1,334.8,580.7z M339,579.2c0.5-0.6,0.7-1.4,0.7-2.5c0-1.1-0.2-1.9-0.7-2.5s-1.1-0.9-2-0.9
			c-0.9,0-1.5,0.3-2,0.9s-0.7,1.4-0.7,2.5c0,1.1,0.2,1.9,0.7,2.5s1.1,0.9,2,0.9C337.8,580.1,338.5,579.8,339,579.2z"/>
		<path class="st8" d="M350.8,575.6v5.5h-1.4v-5.4c0-0.8-0.2-1.4-0.5-1.8s-0.8-0.6-1.5-0.6c-0.8,0-1.5,0.2-2,0.7
			c-0.5,0.5-0.7,1.2-0.7,2v5h-1.4v-6.3c0-0.9,0-1.7-0.1-2.5h1.3l0.1,1.6c0.3-0.6,0.7-1,1.2-1.3c0.5-0.3,1.1-0.5,1.8-0.5
			C349.8,572.2,350.8,573.3,350.8,575.6z"/>
	</g>
	<g class="st6">
		<path class="st8" d="M268.7,589.6h5c1.3,0,2.3,0.3,3,0.9s1.1,1.5,1.1,2.5c0,1.1-0.4,1.9-1.1,2.6s-1.7,0.9-3,0.9h-3.5v5.5h-1.4
			V589.6z M273.5,595.4c0.9,0,1.6-0.2,2.1-0.6c0.5-0.4,0.7-1,0.7-1.7c0-0.7-0.2-1.3-0.7-1.7c-0.5-0.4-1.2-0.6-2.1-0.6h-3.4v4.6
			H273.5z"/>
		<path class="st8" d="M284.6,593.2l0,1.3c-0.3-0.1-0.6-0.1-0.9-0.1c-0.8,0-1.5,0.3-1.9,0.8c-0.4,0.5-0.6,1.2-0.6,1.9v5h-1.4v-6.3
			c0-0.9,0-1.7-0.1-2.5h1.3l0.1,1.6c0.2-0.6,0.6-1,1.1-1.4c0.5-0.3,1-0.5,1.7-0.5C284,593.1,284.3,593.1,284.6,593.2z"/>
		<path class="st8" d="M287.3,601.6c-0.6-0.4-1.1-0.9-1.5-1.6s-0.5-1.5-0.5-2.4c0-0.9,0.2-1.7,0.5-2.4s0.8-1.2,1.5-1.6
			c0.6-0.4,1.4-0.6,2.2-0.6c0.8,0,1.6,0.2,2.2,0.6s1.1,0.9,1.5,1.6s0.5,1.5,0.5,2.4c0,0.9-0.2,1.7-0.5,2.4s-0.8,1.2-1.5,1.6
			s-1.4,0.6-2.2,0.6C288.6,602.2,287.9,602,287.3,601.6z M291.4,600.1c0.5-0.6,0.7-1.4,0.7-2.5c0-1.1-0.2-1.9-0.7-2.5
			s-1.1-0.9-2-0.9c-0.9,0-1.5,0.3-2,0.9c-0.5,0.6-0.7,1.4-0.7,2.5c0,1.1,0.2,1.9,0.7,2.5s1.1,0.9,2,0.9S291,600.7,291.4,600.1z"/>
		<path class="st8" d="M297.2,601.6c-0.6-0.4-1.1-0.9-1.5-1.6s-0.5-1.5-0.5-2.4s0.2-1.7,0.5-2.4c0.3-0.7,0.8-1.2,1.5-1.6
			s1.4-0.6,2.3-0.6c0.6,0,1.2,0.1,1.7,0.3c0.6,0.2,1,0.5,1.4,0.8l-0.5,1c-0.4-0.3-0.9-0.6-1.3-0.8s-0.8-0.2-1.3-0.2
			c-0.9,0-1.6,0.3-2.1,0.9c-0.5,0.6-0.8,1.4-0.8,2.5c0,1.1,0.3,1.9,0.8,2.5c0.5,0.6,1.2,0.9,2.1,0.9c0.4,0,0.9-0.1,1.3-0.2
			s0.8-0.4,1.3-0.8l0.5,1c-0.4,0.3-0.8,0.6-1.4,0.8c-0.6,0.2-1.1,0.3-1.8,0.3C298.6,602.2,297.9,602,297.2,601.6z"/>
		<path class="st8" d="M311.8,597.6h-6.4c0,1.1,0.3,2,0.8,2.5c0.5,0.6,1.2,0.9,2.2,0.9c1,0,2-0.3,2.8-1l0.5,1
			c-0.4,0.4-0.9,0.6-1.5,0.9c-0.6,0.2-1.2,0.3-1.8,0.3c-1.4,0-2.4-0.4-3.2-1.2c-0.8-0.8-1.2-1.9-1.2-3.3c0-0.9,0.2-1.7,0.5-2.4
			c0.3-0.7,0.8-1.2,1.5-1.6c0.6-0.4,1.3-0.6,2.1-0.6c1.2,0,2.1,0.4,2.7,1.1c0.7,0.8,1,1.8,1,3.1V597.6z M306.2,594.8
			c-0.5,0.4-0.8,1.1-0.9,1.9h5.1c-0.1-0.8-0.3-1.5-0.7-1.9c-0.4-0.4-1-0.6-1.7-0.6C307.3,594.2,306.7,594.4,306.2,594.8z"/>
		<path class="st8" d="M313.4,601l0.5-1c0.5,0.4,1,0.6,1.4,0.8c0.5,0.2,1,0.2,1.6,0.2c0.7,0,1.2-0.1,1.5-0.3c0.3-0.2,0.5-0.6,0.5-1
			c0-0.3-0.1-0.6-0.3-0.8c-0.2-0.2-0.6-0.4-1.2-0.5L316,598c-0.7-0.2-1.3-0.5-1.7-0.9c-0.4-0.4-0.6-0.9-0.6-1.5
			c0-0.8,0.3-1.4,0.9-1.9c0.6-0.5,1.4-0.7,2.4-0.7c0.6,0,1.2,0.1,1.7,0.3c0.5,0.2,1,0.5,1.4,0.9l-0.5,1c-0.8-0.7-1.7-1-2.7-1
			c-0.6,0-1.1,0.1-1.5,0.4s-0.5,0.6-0.5,1c0,0.4,0.1,0.6,0.3,0.9c0.2,0.2,0.6,0.4,1,0.5l1.5,0.4c0.8,0.2,1.4,0.5,1.8,0.9
			s0.6,0.9,0.6,1.5c0,0.8-0.3,1.4-0.9,1.8c-0.6,0.5-1.5,0.7-2.5,0.7C315.4,602.2,314.2,601.8,313.4,601z"/>
		<path class="st8" d="M322,601l0.5-1c0.5,0.4,1,0.6,1.4,0.8c0.5,0.2,1,0.2,1.6,0.2c0.7,0,1.2-0.1,1.5-0.3c0.3-0.2,0.5-0.6,0.5-1
			c0-0.3-0.1-0.6-0.3-0.8c-0.2-0.2-0.6-0.4-1.2-0.5l-1.5-0.3c-0.7-0.2-1.3-0.5-1.7-0.9c-0.4-0.4-0.6-0.9-0.6-1.5
			c0-0.8,0.3-1.4,0.9-1.9c0.6-0.5,1.4-0.7,2.4-0.7c0.6,0,1.2,0.1,1.7,0.3c0.5,0.2,1,0.5,1.4,0.9l-0.5,1c-0.8-0.7-1.7-1-2.7-1
			c-0.6,0-1.1,0.1-1.5,0.4s-0.5,0.6-0.5,1c0,0.4,0.1,0.6,0.3,0.9c0.2,0.2,0.6,0.4,1,0.5l1.5,0.4c0.8,0.2,1.4,0.5,1.8,0.9
			s0.6,0.9,0.6,1.5c0,0.8-0.3,1.4-0.9,1.8c-0.6,0.5-1.5,0.7-2.5,0.7C324,602.2,322.9,601.8,322,601z"/>
	</g>
	<rect x="232.2" y="342.2" class="st7" width="135" height="61.5"/>
	<g class="st6">
		<path class="st8" d="M278,353.9h-6.5l-1.4,3.2h-1.5l5.5-12.4h1.3l5.5,12.4h-1.5L278,353.9z M277.5,352.7l-2.7-6.4l-2.7,6.4H277.5z
			"/>
		<path class="st8" d="M290.3,348.3v8.7c0,1.3-0.3,2.3-1,3c-0.7,0.7-1.7,1-3,1c-1.3,0-2.5-0.3-3.5-0.9l0.2-1.2
			c0.6,0.3,1.1,0.5,1.6,0.7c0.5,0.1,1,0.2,1.6,0.2c0.8,0,1.5-0.2,1.9-0.7c0.4-0.4,0.6-1.1,0.6-2v-2.1c-0.3,0.6-0.7,1-1.2,1.3
			c-0.5,0.3-1.1,0.5-1.8,0.5c-0.8,0-1.5-0.2-2-0.5s-1.1-0.9-1.4-1.5c-0.3-0.7-0.5-1.4-0.5-2.3s0.2-1.6,0.5-2.3
			c0.3-0.7,0.8-1.2,1.4-1.5s1.3-0.5,2-0.5c0.7,0,1.3,0.2,1.8,0.5c0.5,0.3,0.9,0.7,1.2,1.3v-1.5H290.3z M288.2,354.8
			c0.5-0.6,0.7-1.3,0.7-2.3c0-1-0.2-1.8-0.7-2.3c-0.5-0.6-1.1-0.8-2-0.8c-0.9,0-1.5,0.3-2,0.8c-0.5,0.6-0.7,1.3-0.7,2.3
			c0,1,0.2,1.8,0.7,2.3c0.5,0.6,1.2,0.8,2,0.8C287.1,355.6,287.7,355.3,288.2,354.8z"/>
		<path class="st8" d="M300.4,352.6H294c0,1.1,0.3,2,0.8,2.5c0.5,0.6,1.2,0.9,2.2,0.9c1,0,2-0.3,2.8-1l0.5,1
			c-0.4,0.4-0.9,0.6-1.5,0.9c-0.6,0.2-1.2,0.3-1.8,0.3c-1.4,0-2.4-0.4-3.2-1.2c-0.8-0.8-1.2-1.9-1.2-3.3c0-0.9,0.2-1.7,0.5-2.4
			c0.3-0.7,0.8-1.2,1.5-1.6c0.6-0.4,1.3-0.6,2.1-0.6c1.2,0,2.1,0.4,2.7,1.1c0.7,0.8,1,1.8,1,3.1V352.6z M294.9,349.9
			c-0.5,0.4-0.8,1.1-0.9,1.9h5.1c-0.1-0.8-0.3-1.5-0.7-1.9c-0.4-0.4-1-0.6-1.7-0.6C295.9,349.2,295.4,349.4,294.9,349.9z"/>
		<path class="st8" d="M310.1,351.6v5.5h-1.4v-5.4c0-0.8-0.2-1.4-0.5-1.8c-0.3-0.4-0.8-0.6-1.5-0.6c-0.8,0-1.5,0.2-2,0.7
			c-0.5,0.5-0.7,1.2-0.7,2v5h-1.4v-6.3c0-0.9,0-1.7-0.1-2.5h1.3l0.1,1.6c0.3-0.6,0.7-1,1.2-1.3s1.1-0.5,1.8-0.5
			C309,348.1,310.1,349.3,310.1,351.6z"/>
		<path class="st8" d="M314.2,356.6c-0.6-0.4-1.1-0.9-1.5-1.6s-0.5-1.5-0.5-2.4s0.2-1.7,0.5-2.4c0.3-0.7,0.8-1.2,1.5-1.6
			s1.4-0.6,2.3-0.6c0.6,0,1.2,0.1,1.7,0.3c0.6,0.2,1,0.5,1.4,0.8l-0.5,1c-0.4-0.3-0.9-0.6-1.3-0.8s-0.8-0.2-1.3-0.2
			c-0.9,0-1.6,0.3-2.1,0.9c-0.5,0.6-0.8,1.4-0.8,2.5c0,1.1,0.3,1.9,0.8,2.5c0.5,0.6,1.2,0.9,2.1,0.9c0.4,0,0.9-0.1,1.3-0.2
			s0.8-0.4,1.3-0.8l0.5,1c-0.4,0.3-0.8,0.6-1.4,0.8c-0.6,0.2-1.1,0.3-1.8,0.3C315.6,357.2,314.8,357,314.2,356.6z"/>
		<path class="st8" d="M329.1,348.3l-4.1,9.6c-0.4,1-1,1.7-1.6,2.2s-1.5,0.8-2.4,1l-0.3-1.1c0.8-0.2,1.4-0.4,1.9-0.7
			s0.8-0.8,1.1-1.4l0.3-0.8l-3.7-8.7h1.5l3,7.2l3-7.2H329.1z"/>
	</g>
	<g class="st6">
		<path class="st8" d="M252.5,374.8H246l-1.4,3.2h-1.5l5.5-12.4h1.3l5.5,12.4h-1.5L252.5,374.8z M252,373.6l-2.7-6.4l-2.7,6.4H252z"
			/>
		<path class="st8" d="M264.4,369.2v8.8H263v-1.5c-0.3,0.5-0.7,0.9-1.2,1.2c-0.5,0.3-1.1,0.4-1.7,0.4c-1,0-1.8-0.3-2.4-0.9
			c-0.5-0.6-0.8-1.4-0.8-2.6v-5.4h1.4v5.4c0,0.8,0.2,1.4,0.5,1.7c0.3,0.4,0.8,0.6,1.5,0.6c0.8,0,1.4-0.3,1.9-0.8
			c0.5-0.5,0.7-1.2,0.7-2v-5H264.4z"/>
		<path class="st8" d="M269,370.3v4.8c0,0.7,0.1,1.1,0.4,1.4c0.3,0.3,0.6,0.4,1.1,0.4c0.3,0,0.6-0.1,0.9-0.2v1.2
			c-0.4,0.1-0.8,0.2-1.2,0.2c-0.8,0-1.5-0.2-2-0.7s-0.7-1.2-0.7-2.1v-5h-1.7v-1.1h1.7V367l1.4-0.5v2.8h2.5v1.1H269z"/>
		<path class="st8" d="M280.7,372.5v5.5h-1.4v-5.4c0-0.8-0.2-1.4-0.5-1.8c-0.3-0.4-0.8-0.6-1.5-0.6c-0.8,0-1.5,0.2-2,0.7
			c-0.5,0.5-0.7,1.2-0.7,2v5h-1.4v-12.8h1.4v5.5c0.3-0.5,0.7-0.9,1.2-1.2c0.5-0.3,1.1-0.4,1.8-0.4
			C279.7,369,280.7,370.2,280.7,372.5z"/>
		<path class="st8" d="M284.8,377.5c-0.6-0.4-1.1-0.9-1.5-1.6s-0.5-1.5-0.5-2.4c0-0.9,0.2-1.7,0.5-2.4s0.8-1.2,1.5-1.6
			c0.6-0.4,1.4-0.6,2.2-0.6c0.8,0,1.6,0.2,2.2,0.6s1.1,0.9,1.5,1.6s0.5,1.5,0.5,2.4c0,0.9-0.2,1.7-0.5,2.4s-0.8,1.2-1.5,1.6
			s-1.4,0.6-2.2,0.6C286.2,378.1,285.5,377.9,284.8,377.5z M289,376.1c0.5-0.6,0.7-1.4,0.7-2.5c0-1.1-0.2-1.9-0.7-2.5
			s-1.1-0.9-2-0.9c-0.9,0-1.5,0.3-2,0.9c-0.5,0.6-0.7,1.4-0.7,2.5c0,1.1,0.2,1.9,0.7,2.5s1.1,0.9,2,0.9S288.6,376.6,289,376.1z"/>
		<path class="st8" d="M298.2,369.1l0,1.3c-0.3-0.1-0.6-0.1-0.9-0.1c-0.8,0-1.5,0.3-1.9,0.8c-0.4,0.5-0.6,1.2-0.6,1.9v5h-1.4v-6.3
			c0-0.9,0-1.7-0.1-2.5h1.3l0.1,1.6c0.2-0.6,0.6-1,1.1-1.4c0.5-0.3,1-0.5,1.7-0.5C297.7,369,298,369,298.2,369.1z"/>
		<path class="st8" d="M301.3,365.5v1.6h-1.7v-1.6H301.3z M299.7,369.2h1.4v8.8h-1.4V369.2z"/>
		<path class="st8" d="M310.7,376.9v1.1h-7.4v-1l5.5-6.7h-5.3v-1.1h7v1l-5.5,6.6H310.7z"/>
		<path class="st8" d="M320.4,369.2v8.8H319v-1.6c-0.3,0.5-0.6,1-1.2,1.3c-0.5,0.3-1.1,0.4-1.8,0.4c-0.8,0-1.5-0.2-2-0.6
			s-1-0.9-1.4-1.6c-0.3-0.7-0.5-1.5-0.5-2.4s0.2-1.7,0.5-2.4c0.3-0.7,0.8-1.2,1.4-1.6c0.6-0.4,1.3-0.6,2-0.6c0.7,0,1.3,0.2,1.8,0.5
			c0.5,0.3,0.9,0.7,1.2,1.3v-1.5H320.4z M318.3,376c0.5-0.6,0.7-1.4,0.7-2.5c0-1.1-0.2-1.9-0.7-2.5c-0.5-0.6-1.1-0.9-2-0.9
			c-0.9,0-1.5,0.3-2,0.9c-0.5,0.6-0.7,1.4-0.7,2.5s0.2,1.9,0.7,2.5c0.5,0.6,1.2,0.9,2,0.9C317.2,376.9,317.8,376.6,318.3,376z"/>
		<path class="st8" d="M325,370.3v4.8c0,0.7,0.1,1.1,0.4,1.4c0.3,0.3,0.6,0.4,1.1,0.4c0.3,0,0.6-0.1,0.9-0.2v1.2
			c-0.4,0.1-0.8,0.2-1.2,0.2c-0.8,0-1.5-0.2-2-0.7s-0.7-1.2-0.7-2.1v-5h-1.7v-1.1h1.7V367l1.4-0.5v2.8h2.5v1.1H325z"/>
		<path class="st8" d="M330.8,365.5v1.6h-1.7v-1.6H330.8z M329.2,369.2h1.4v8.8h-1.4V369.2z"/>
		<path class="st8" d="M334.8,377.5c-0.6-0.4-1.1-0.9-1.5-1.6s-0.5-1.5-0.5-2.4c0-0.9,0.2-1.7,0.5-2.4s0.8-1.2,1.5-1.6
			s1.4-0.6,2.2-0.6c0.8,0,1.6,0.2,2.2,0.6c0.6,0.4,1.1,0.9,1.5,1.6s0.5,1.5,0.5,2.4c0,0.9-0.2,1.7-0.5,2.4s-0.8,1.2-1.5,1.6
			c-0.6,0.4-1.4,0.6-2.2,0.6C336.2,378.1,335.4,377.9,334.8,377.5z M339,376.1c0.5-0.6,0.7-1.4,0.7-2.5c0-1.1-0.2-1.9-0.7-2.5
			s-1.1-0.9-2-0.9c-0.9,0-1.5,0.3-2,0.9c-0.5,0.6-0.7,1.4-0.7,2.5c0,1.1,0.2,1.9,0.7,2.5s1.1,0.9,2,0.9
			C337.9,376.9,338.5,376.6,339,376.1z"/>
		<path class="st8" d="M350.9,372.5v5.5h-1.4v-5.4c0-0.8-0.2-1.4-0.5-1.8c-0.3-0.4-0.8-0.6-1.5-0.6c-0.8,0-1.5,0.2-2,0.7
			c-0.5,0.5-0.7,1.2-0.7,2v5h-1.4v-6.3c0-0.9,0-1.7-0.1-2.5h1.3l0.1,1.6c0.3-0.6,0.7-1,1.2-1.3c0.5-0.3,1.1-0.5,1.8-0.5
			C349.8,369,350.9,370.2,350.9,372.5z"/>
	</g>
	<g class="st6">
		<path class="st8" d="M268.7,386.5h5c1.3,0,2.3,0.3,3,0.9s1.1,1.5,1.1,2.5c0,1.1-0.4,1.9-1.1,2.6s-1.7,0.9-3,0.9h-3.5v5.5h-1.4
			V386.5z M273.5,392.2c0.9,0,1.6-0.2,2.1-0.6c0.5-0.4,0.7-1,0.7-1.7c0-0.7-0.2-1.3-0.7-1.7c-0.5-0.4-1.2-0.6-2.1-0.6h-3.4v4.6
			H273.5z"/>
		<path class="st8" d="M284.6,390l0,1.3c-0.3-0.1-0.6-0.1-0.9-0.1c-0.8,0-1.5,0.3-1.9,0.8c-0.4,0.5-0.6,1.2-0.6,1.9v5h-1.4v-6.3
			c0-0.9,0-1.7-0.1-2.5h1.3l0.1,1.6c0.2-0.6,0.6-1,1.1-1.4c0.5-0.3,1-0.5,1.7-0.5C284.1,389.9,284.3,389.9,284.6,390z"/>
		<path class="st8" d="M287.3,398.4c-0.6-0.4-1.1-0.9-1.5-1.6s-0.5-1.5-0.5-2.4c0-0.9,0.2-1.7,0.5-2.4s0.8-1.2,1.5-1.6
			c0.6-0.4,1.4-0.6,2.2-0.6c0.8,0,1.6,0.2,2.2,0.6s1.1,0.9,1.5,1.6s0.5,1.5,0.5,2.4c0,0.9-0.2,1.7-0.5,2.4s-0.8,1.2-1.5,1.6
			s-1.4,0.6-2.2,0.6C288.6,399,287.9,398.8,287.3,398.4z M291.5,397c0.5-0.6,0.7-1.4,0.7-2.5c0-1.1-0.2-1.9-0.7-2.5s-1.1-0.9-2-0.9
			c-0.9,0-1.5,0.3-2,0.9c-0.5,0.6-0.7,1.4-0.7,2.5c0,1.1,0.2,1.9,0.7,2.5s1.1,0.9,2,0.9S291,397.5,291.5,397z"/>
		<path class="st8" d="M297.3,398.4c-0.6-0.4-1.1-0.9-1.5-1.6s-0.5-1.5-0.5-2.4s0.2-1.7,0.5-2.4c0.3-0.7,0.8-1.2,1.5-1.6
			s1.4-0.6,2.3-0.6c0.6,0,1.2,0.1,1.7,0.3c0.6,0.2,1,0.5,1.4,0.8l-0.5,1c-0.4-0.3-0.9-0.6-1.3-0.8s-0.8-0.2-1.3-0.2
			c-0.9,0-1.6,0.3-2.1,0.9c-0.5,0.6-0.8,1.4-0.8,2.5c0,1.1,0.3,1.9,0.8,2.5c0.5,0.6,1.2,0.9,2.1,0.9c0.4,0,0.9-0.1,1.3-0.2
			s0.8-0.4,1.3-0.8l0.5,1c-0.4,0.3-0.8,0.6-1.4,0.8c-0.6,0.2-1.1,0.3-1.8,0.3C298.6,399,297.9,398.8,297.3,398.4z"/>
		<path class="st8" d="M311.8,394.4h-6.4c0,1.1,0.3,2,0.8,2.5c0.5,0.6,1.2,0.9,2.2,0.9c1,0,2-0.3,2.8-1l0.5,1
			c-0.4,0.4-0.9,0.6-1.5,0.9c-0.6,0.2-1.2,0.3-1.8,0.3c-1.4,0-2.4-0.4-3.2-1.2c-0.8-0.8-1.2-1.9-1.2-3.3c0-0.9,0.2-1.7,0.5-2.4
			c0.3-0.7,0.8-1.2,1.5-1.6c0.6-0.4,1.3-0.6,2.1-0.6c1.2,0,2.1,0.4,2.7,1.1c0.7,0.8,1,1.8,1,3.1V394.4z M306.3,391.7
			c-0.5,0.4-0.8,1.1-0.9,1.9h5.1c-0.1-0.8-0.3-1.5-0.7-1.9c-0.4-0.4-1-0.6-1.7-0.6C307.3,391,306.7,391.2,306.3,391.7z"/>
		<path class="st8" d="M313.4,397.9l0.5-1c0.5,0.4,1,0.6,1.4,0.8c0.5,0.2,1,0.2,1.6,0.2c0.7,0,1.2-0.1,1.5-0.3
			c0.3-0.2,0.5-0.6,0.5-1c0-0.3-0.1-0.6-0.3-0.8c-0.2-0.2-0.6-0.4-1.2-0.5l-1.5-0.3c-0.7-0.2-1.3-0.5-1.7-0.9
			c-0.4-0.4-0.6-0.9-0.6-1.5c0-0.8,0.3-1.4,0.9-1.9c0.6-0.5,1.4-0.7,2.4-0.7c0.6,0,1.2,0.1,1.7,0.3c0.5,0.2,1,0.5,1.4,0.9l-0.5,1
			c-0.8-0.7-1.7-1-2.7-1c-0.6,0-1.1,0.1-1.5,0.4s-0.5,0.6-0.5,1c0,0.4,0.1,0.6,0.3,0.9c0.2,0.2,0.6,0.4,1,0.5l1.5,0.4
			c0.8,0.2,1.4,0.5,1.8,0.9s0.6,0.9,0.6,1.5c0,0.8-0.3,1.4-0.9,1.8c-0.6,0.5-1.5,0.7-2.5,0.7C315.4,399,314.2,398.6,313.4,397.9z"/>
		<path class="st8" d="M322,397.9l0.5-1c0.5,0.4,1,0.6,1.4,0.8c0.5,0.2,1,0.2,1.6,0.2c0.7,0,1.2-0.1,1.5-0.3c0.3-0.2,0.5-0.6,0.5-1
			c0-0.3-0.1-0.6-0.3-0.8c-0.2-0.2-0.6-0.4-1.2-0.5l-1.5-0.3c-0.7-0.2-1.3-0.5-1.7-0.9c-0.4-0.4-0.6-0.9-0.6-1.5
			c0-0.8,0.3-1.4,0.9-1.9c0.6-0.5,1.4-0.7,2.4-0.7c0.6,0,1.2,0.1,1.7,0.3c0.5,0.2,1,0.5,1.4,0.9l-0.5,1c-0.8-0.7-1.7-1-2.7-1
			c-0.6,0-1.1,0.1-1.5,0.4s-0.5,0.6-0.5,1c0,0.4,0.1,0.6,0.3,0.9c0.2,0.2,0.6,0.4,1,0.5l1.5,0.4c0.8,0.2,1.4,0.5,1.8,0.9
			s0.6,0.9,0.6,1.5c0,0.8-0.3,1.4-0.9,1.8c-0.6,0.5-1.5,0.7-2.5,0.7C324.1,399,322.9,398.6,322,397.9z"/>
	</g>
	<rect x="24.9" y="555.8" class="st7" width="135" height="40.6"/>
	<g class="st6">
		<path class="st8" d="M43,558.3h7.7v1.2h-6.3v4.3h5.9v1.2h-5.9v5.7H43V558.3z"/>
		<path class="st8" d="M59.8,561.9v8.8h-1.4v-1.5c-0.3,0.5-0.7,0.9-1.2,1.2c-0.5,0.3-1.1,0.4-1.7,0.4c-1,0-1.8-0.3-2.4-0.9
			c-0.5-0.6-0.8-1.4-0.8-2.6v-5.4h1.4v5.4c0,0.8,0.2,1.4,0.5,1.7c0.3,0.4,0.8,0.6,1.5,0.6c0.8,0,1.4-0.3,1.9-0.8
			c0.5-0.5,0.7-1.2,0.7-2v-5H59.8z"/>
		<path class="st8" d="M62.5,557.9H64v12.8h-1.4V557.9z"/>
		<path class="st8" d="M66.7,557.9h1.4v12.8h-1.4V557.9z"/>
		<path class="st8" d="M74.9,569.3l0.5-1.1c0.6,0.5,1.2,0.9,1.9,1.1s1.4,0.3,2.2,0.3c1,0,1.8-0.2,2.3-0.6s0.8-0.9,0.8-1.6
			c0-0.4-0.1-0.8-0.4-1c-0.3-0.3-0.6-0.5-1-0.6c-0.4-0.2-1-0.3-1.7-0.5c-1-0.2-1.7-0.4-2.4-0.7c-0.6-0.2-1.1-0.6-1.5-1.1
			c-0.4-0.5-0.6-1.1-0.6-1.8c0-0.7,0.2-1.3,0.6-1.9c0.4-0.5,0.9-1,1.6-1.3c0.7-0.3,1.5-0.5,2.4-0.5c0.9,0,1.7,0.1,2.4,0.4
			s1.4,0.7,1.9,1.2l-0.6,1.1c-0.6-0.5-1.2-0.9-1.8-1.1c-0.6-0.2-1.3-0.3-2-0.3c-1,0-1.7,0.2-2.3,0.6c-0.5,0.4-0.8,1-0.8,1.7
			c0,0.6,0.2,1.1,0.7,1.4c0.5,0.3,1.2,0.6,2.2,0.8c1.1,0.3,1.9,0.5,2.5,0.7c0.6,0.2,1.1,0.5,1.5,1s0.6,1,0.6,1.7
			c0,0.7-0.2,1.3-0.6,1.8c-0.4,0.5-0.9,0.9-1.6,1.2c-0.7,0.3-1.5,0.4-2.4,0.4C77.6,570.8,76,570.3,74.9,569.3z"/>
		<path class="st8" d="M93.6,566.3h-6.4c0,1.1,0.3,2,0.8,2.5c0.5,0.6,1.2,0.9,2.2,0.9c1,0,2-0.3,2.8-1l0.5,1
			c-0.4,0.4-0.9,0.6-1.5,0.9c-0.6,0.2-1.2,0.3-1.8,0.3c-1.4,0-2.4-0.4-3.2-1.2c-0.8-0.8-1.2-1.9-1.2-3.3c0-0.9,0.2-1.7,0.5-2.4
			c0.3-0.7,0.8-1.2,1.5-1.6c0.6-0.4,1.3-0.6,2.1-0.6c1.2,0,2.1,0.4,2.7,1.1c0.7,0.8,1,1.8,1,3.1V566.3z M88.1,563.5
			c-0.5,0.4-0.8,1.1-0.9,1.9h5.1c-0.1-0.8-0.3-1.5-0.7-1.9c-0.4-0.4-1-0.6-1.7-0.6C89.1,562.8,88.6,563,88.1,563.5z"/>
		<path class="st8" d="M97.2,570.3c-0.6-0.4-1.1-0.9-1.5-1.6s-0.5-1.5-0.5-2.4s0.2-1.7,0.5-2.4c0.3-0.7,0.8-1.2,1.5-1.6
			s1.4-0.6,2.3-0.6c0.6,0,1.2,0.1,1.7,0.3c0.6,0.2,1,0.5,1.4,0.8l-0.5,1c-0.4-0.3-0.9-0.6-1.3-0.8s-0.8-0.2-1.3-0.2
			c-0.9,0-1.6,0.3-2.1,0.9c-0.5,0.6-0.8,1.4-0.8,2.5c0,1.1,0.3,1.9,0.8,2.5c0.5,0.6,1.2,0.9,2.1,0.9c0.4,0,0.9-0.1,1.3-0.2
			s0.8-0.4,1.3-0.8l0.5,1c-0.4,0.3-0.8,0.6-1.4,0.8c-0.6,0.2-1.1,0.3-1.8,0.3C98.6,570.8,97.8,570.6,97.2,570.3z"/>
		<path class="st8" d="M111.7,561.9v8.8h-1.4v-1.5c-0.3,0.5-0.7,0.9-1.2,1.2c-0.5,0.3-1.1,0.4-1.7,0.4c-1,0-1.8-0.3-2.4-0.9
			c-0.5-0.6-0.8-1.4-0.8-2.6v-5.4h1.4v5.4c0,0.8,0.2,1.4,0.5,1.7c0.3,0.4,0.8,0.6,1.5,0.6c0.8,0,1.4-0.3,1.9-0.8
			c0.5-0.5,0.7-1.2,0.7-2v-5H111.7z"/>
		<path class="st8" d="M119.3,561.8l0,1.3c-0.3-0.1-0.6-0.1-0.9-0.1c-0.8,0-1.5,0.3-1.9,0.8c-0.4,0.5-0.6,1.2-0.6,1.9v5h-1.4v-6.3
			c0-0.9,0-1.7-0.1-2.5h1.3l0.1,1.6c0.2-0.6,0.6-1,1.1-1.4c0.5-0.3,1-0.5,1.7-0.5C118.8,561.7,119.1,561.8,119.3,561.8z"/>
		<path class="st8" d="M122.3,558.2v1.6h-1.7v-1.6H122.3z M120.7,561.9h1.4v8.8h-1.4V561.9z"/>
		<path class="st8" d="M126.8,563v4.8c0,0.7,0.1,1.1,0.4,1.4c0.3,0.3,0.6,0.4,1.1,0.4c0.3,0,0.6-0.1,0.9-0.2v1.2
			c-0.4,0.1-0.8,0.2-1.2,0.2c-0.8,0-1.5-0.2-2-0.7s-0.7-1.2-0.7-2.1v-5h-1.7v-1.1h1.7v-2.2l1.4-0.5v2.8h2.5v1.1H126.8z"/>
		<path class="st8" d="M138.8,561.9l-4.1,9.6c-0.4,1-1,1.7-1.6,2.2s-1.5,0.8-2.4,1l-0.3-1.1c0.8-0.2,1.4-0.4,1.9-0.7
			s0.8-0.8,1.1-1.4l0.3-0.8l-3.7-8.7h1.5l3,7.2l3-7.2H138.8z"/>
	</g>
	<g class="st6">
		<path class="st8" d="M51.4,588.4H45l-1.4,3.2h-1.5l5.5-12.4h1.3l5.5,12.4h-1.5L51.4,588.4z M50.9,587.2l-2.7-6.4l-2.7,6.4H50.9z"
			/>
		<path class="st8" d="M55.3,590.6l0.5-1c0.5,0.4,1,0.6,1.4,0.8c0.5,0.2,1,0.2,1.6,0.2c0.7,0,1.2-0.1,1.5-0.3c0.3-0.2,0.5-0.6,0.5-1
			c0-0.3-0.1-0.6-0.3-0.8c-0.2-0.2-0.6-0.4-1.2-0.5l-1.5-0.3c-0.7-0.2-1.3-0.5-1.7-0.9c-0.4-0.4-0.6-0.9-0.6-1.5
			c0-0.8,0.3-1.4,0.9-1.9c0.6-0.5,1.4-0.7,2.4-0.7c0.6,0,1.2,0.1,1.7,0.3c0.5,0.2,1,0.5,1.4,0.9l-0.5,1c-0.8-0.7-1.7-1-2.7-1
			c-0.6,0-1.1,0.1-1.5,0.4s-0.5,0.6-0.5,1c0,0.4,0.1,0.6,0.3,0.9c0.2,0.2,0.6,0.4,1,0.5l1.5,0.4c0.8,0.2,1.4,0.5,1.8,0.9
			s0.6,0.9,0.6,1.5c0,0.8-0.3,1.4-0.9,1.8c-0.6,0.5-1.5,0.7-2.5,0.7C57.3,591.7,56.2,591.3,55.3,590.6z"/>
		<path class="st8" d="M63.9,590.6l0.5-1c0.5,0.4,1,0.6,1.4,0.8c0.5,0.2,1,0.2,1.6,0.2c0.7,0,1.2-0.1,1.5-0.3c0.3-0.2,0.5-0.6,0.5-1
			c0-0.3-0.1-0.6-0.3-0.8c-0.2-0.2-0.6-0.4-1.2-0.5l-1.5-0.3c-0.7-0.2-1.3-0.5-1.7-0.9c-0.4-0.4-0.6-0.9-0.6-1.5
			c0-0.8,0.3-1.4,0.9-1.9c0.6-0.5,1.4-0.7,2.4-0.7c0.6,0,1.2,0.1,1.7,0.3c0.5,0.2,1,0.5,1.4,0.9l-0.5,1c-0.8-0.7-1.7-1-2.7-1
			c-0.6,0-1.1,0.1-1.5,0.4s-0.5,0.6-0.5,1c0,0.4,0.1,0.6,0.3,0.9c0.2,0.2,0.6,0.4,1,0.5l1.5,0.4c0.8,0.2,1.4,0.5,1.8,0.9
			s0.6,0.9,0.6,1.5c0,0.8-0.3,1.4-0.9,1.8c-0.6,0.5-1.5,0.7-2.5,0.7C66,591.7,64.8,591.3,63.9,590.6z"/>
		<path class="st8" d="M80.5,587.2H74c0,1.1,0.3,2,0.8,2.5c0.5,0.6,1.2,0.9,2.2,0.9c1,0,2-0.3,2.8-1l0.5,1c-0.4,0.4-0.9,0.6-1.5,0.9
			c-0.6,0.2-1.2,0.3-1.8,0.3c-1.4,0-2.4-0.4-3.2-1.2c-0.8-0.8-1.2-1.9-1.2-3.3c0-0.9,0.2-1.7,0.5-2.4c0.3-0.7,0.8-1.2,1.5-1.6
			c0.6-0.4,1.3-0.6,2.1-0.6c1.2,0,2.1,0.4,2.7,1.1c0.7,0.8,1,1.8,1,3.1V587.2z M75,584.4c-0.5,0.4-0.8,1.1-0.9,1.9h5.1
			c-0.1-0.8-0.3-1.5-0.7-1.9c-0.4-0.4-1-0.6-1.7-0.6C76,583.7,75.4,583.9,75,584.4z"/>
		<path class="st8" d="M82.1,590.6l0.5-1c0.5,0.4,1,0.6,1.4,0.8c0.5,0.2,1,0.2,1.6,0.2c0.7,0,1.2-0.1,1.5-0.3c0.3-0.2,0.5-0.6,0.5-1
			c0-0.3-0.1-0.6-0.3-0.8c-0.2-0.2-0.6-0.4-1.2-0.5l-1.5-0.3c-0.7-0.2-1.3-0.5-1.7-0.9c-0.4-0.4-0.6-0.9-0.6-1.5
			c0-0.8,0.3-1.4,0.9-1.9c0.6-0.5,1.4-0.7,2.4-0.7c0.6,0,1.2,0.1,1.7,0.3c0.5,0.2,1,0.5,1.4,0.9l-0.5,1c-0.8-0.7-1.7-1-2.7-1
			c-0.6,0-1.1,0.1-1.5,0.4s-0.5,0.6-0.5,1c0,0.4,0.1,0.6,0.3,0.9c0.2,0.2,0.6,0.4,1,0.5l1.5,0.4c0.8,0.2,1.4,0.5,1.8,0.9
			s0.6,0.9,0.6,1.5c0,0.8-0.3,1.4-0.9,1.8c-0.6,0.5-1.5,0.7-2.5,0.7C84.1,591.7,82.9,591.3,82.1,590.6z"/>
		<path class="st8" d="M90.7,590.6l0.5-1c0.5,0.4,1,0.6,1.4,0.8c0.5,0.2,1,0.2,1.6,0.2c0.7,0,1.2-0.1,1.5-0.3c0.3-0.2,0.5-0.6,0.5-1
			c0-0.3-0.1-0.6-0.3-0.8c-0.2-0.2-0.6-0.4-1.2-0.5l-1.5-0.3c-0.7-0.2-1.3-0.5-1.7-0.9c-0.4-0.4-0.6-0.9-0.6-1.5
			c0-0.8,0.3-1.4,0.9-1.9c0.6-0.5,1.4-0.7,2.4-0.7c0.6,0,1.2,0.1,1.7,0.3c0.5,0.2,1,0.5,1.4,0.9l-0.5,1c-0.8-0.7-1.7-1-2.7-1
			c-0.6,0-1.1,0.1-1.5,0.4s-0.5,0.6-0.5,1c0,0.4,0.1,0.6,0.3,0.9c0.2,0.2,0.6,0.4,1,0.5l1.5,0.4c0.8,0.2,1.4,0.5,1.8,0.9
			s0.6,0.9,0.6,1.5c0,0.8-0.3,1.4-0.9,1.8c-0.6,0.5-1.5,0.7-2.5,0.7C92.7,591.7,91.6,591.3,90.7,590.6z"/>
		<path class="st8" d="M112.5,586.1v5.5h-1.4v-5.4c0-0.8-0.1-1.4-0.4-1.8c-0.3-0.4-0.7-0.6-1.4-0.6c-0.7,0-1.3,0.2-1.7,0.7
			c-0.4,0.5-0.6,1.2-0.6,2v5h-1.4v-5.4c0-0.8-0.1-1.4-0.4-1.8s-0.8-0.6-1.4-0.6c-0.7,0-1.3,0.2-1.8,0.7c-0.4,0.5-0.6,1.2-0.6,2v5
			h-1.4v-6.3c0-0.9,0-1.7-0.1-2.5h1.3l0.1,1.5c0.2-0.6,0.6-1,1.1-1.3c0.5-0.3,1-0.5,1.7-0.5c0.7,0,1.3,0.1,1.7,0.4
			c0.4,0.3,0.8,0.7,1,1.3c0.3-0.5,0.7-0.9,1.2-1.2s1.1-0.5,1.8-0.5C111.6,582.6,112.5,583.8,112.5,586.1z"/>
		<path class="st8" d="M122.6,587.2h-6.4c0,1.1,0.3,2,0.8,2.5c0.5,0.6,1.2,0.9,2.2,0.9c1,0,2-0.3,2.8-1l0.5,1
			c-0.4,0.4-0.9,0.6-1.5,0.9c-0.6,0.2-1.2,0.3-1.8,0.3c-1.4,0-2.4-0.4-3.2-1.2c-0.8-0.8-1.2-1.9-1.2-3.3c0-0.9,0.2-1.7,0.5-2.4
			c0.3-0.7,0.8-1.2,1.5-1.6c0.6-0.4,1.3-0.6,2.1-0.6c1.2,0,2.1,0.4,2.7,1.1c0.7,0.8,1,1.8,1,3.1V587.2z M117.1,584.4
			c-0.5,0.4-0.8,1.1-0.9,1.9h5.1c-0.1-0.8-0.3-1.5-0.7-1.9c-0.4-0.4-1-0.6-1.7-0.6C118.1,583.7,117.5,583.9,117.1,584.4z"/>
		<path class="st8" d="M132.2,586.1v5.5h-1.4v-5.4c0-0.8-0.2-1.4-0.5-1.8c-0.3-0.4-0.8-0.6-1.5-0.6c-0.8,0-1.5,0.2-2,0.7
			c-0.5,0.5-0.7,1.2-0.7,2v5h-1.4v-6.3c0-0.9,0-1.7-0.1-2.5h1.3l0.1,1.6c0.3-0.6,0.7-1,1.2-1.3s1.1-0.5,1.8-0.5
			C131.2,582.6,132.2,583.8,132.2,586.1z"/>
		<path class="st8" d="M136.8,583.9v4.8c0,0.7,0.1,1.1,0.4,1.4c0.3,0.3,0.6,0.4,1.1,0.4c0.3,0,0.6-0.1,0.9-0.2v1.2
			c-0.4,0.1-0.8,0.2-1.2,0.2c-0.8,0-1.5-0.2-2-0.7s-0.7-1.2-0.7-2.1v-5h-1.7v-1.1h1.7v-2.2l1.4-0.5v2.8h2.5v1.1H136.8z"/>
	</g>
	<rect x="24.9" y="354.6" class="st7" width="135" height="40.6"/>
	<g class="st6">
		<path class="st8" d="M43,357.1h7.7v1.2h-6.3v4.3h5.9v1.2h-5.9v5.7H43V357.1z"/>
		<path class="st8" d="M59.8,360.8v8.8h-1.4V368c-0.3,0.5-0.7,0.9-1.2,1.2c-0.5,0.3-1.1,0.4-1.7,0.4c-1,0-1.8-0.3-2.4-0.9
			c-0.5-0.6-0.8-1.4-0.8-2.6v-5.4h1.4v5.4c0,0.8,0.2,1.4,0.5,1.7c0.3,0.4,0.8,0.6,1.5,0.6c0.8,0,1.4-0.3,1.9-0.8
			c0.5-0.5,0.7-1.2,0.7-2v-5H59.8z"/>
		<path class="st8" d="M62.5,356.7H64v12.8h-1.4V356.7z"/>
		<path class="st8" d="M66.7,356.7h1.4v12.8h-1.4V356.7z"/>
		<path class="st8" d="M74.9,368.1l0.5-1.1c0.6,0.5,1.2,0.9,1.9,1.1s1.4,0.3,2.2,0.3c1,0,1.8-0.2,2.3-0.6s0.8-0.9,0.8-1.6
			c0-0.4-0.1-0.8-0.4-1c-0.3-0.3-0.6-0.5-1-0.6c-0.4-0.2-1-0.3-1.7-0.5c-1-0.2-1.7-0.4-2.4-0.7c-0.6-0.2-1.1-0.6-1.5-1.1
			c-0.4-0.5-0.6-1.1-0.6-1.8c0-0.7,0.2-1.3,0.6-1.9c0.4-0.5,0.9-1,1.6-1.3c0.7-0.3,1.5-0.5,2.4-0.5c0.9,0,1.7,0.1,2.4,0.4
			s1.4,0.7,1.9,1.2l-0.6,1.1c-0.6-0.5-1.2-0.9-1.8-1.1c-0.6-0.2-1.3-0.3-2-0.3c-1,0-1.7,0.2-2.3,0.6c-0.5,0.4-0.8,1-0.8,1.7
			c0,0.6,0.2,1.1,0.7,1.4c0.5,0.3,1.2,0.6,2.2,0.8c1.1,0.3,1.9,0.5,2.5,0.7c0.6,0.2,1.1,0.5,1.5,1s0.6,1,0.6,1.7
			c0,0.7-0.2,1.3-0.6,1.8c-0.4,0.5-0.9,0.9-1.6,1.2c-0.7,0.3-1.5,0.4-2.4,0.4C77.6,369.7,76,369.2,74.9,368.1z"/>
		<path class="st8" d="M93.6,365.1h-6.4c0,1.1,0.3,2,0.8,2.5c0.5,0.6,1.2,0.9,2.2,0.9c1,0,2-0.3,2.8-1l0.5,1
			c-0.4,0.4-0.9,0.6-1.5,0.9c-0.6,0.2-1.2,0.3-1.8,0.3c-1.4,0-2.4-0.4-3.2-1.2c-0.8-0.8-1.2-1.9-1.2-3.3c0-0.9,0.2-1.7,0.5-2.4
			c0.3-0.7,0.8-1.2,1.5-1.6c0.6-0.4,1.3-0.6,2.1-0.6c1.2,0,2.1,0.4,2.7,1.1c0.7,0.8,1,1.8,1,3.1V365.1z M88.1,362.3
			c-0.5,0.4-0.8,1.1-0.9,1.9h5.1c-0.1-0.8-0.3-1.5-0.7-1.9c-0.4-0.4-1-0.6-1.7-0.6C89.1,361.7,88.6,361.9,88.1,362.3z"/>
		<path class="st8" d="M97.2,369.1c-0.6-0.4-1.1-0.9-1.5-1.6s-0.5-1.5-0.5-2.4s0.2-1.7,0.5-2.4c0.3-0.7,0.8-1.2,1.5-1.6
			s1.4-0.6,2.3-0.6c0.6,0,1.2,0.1,1.7,0.3c0.6,0.2,1,0.5,1.4,0.8l-0.5,1c-0.4-0.3-0.9-0.6-1.3-0.8s-0.8-0.2-1.3-0.2
			c-0.9,0-1.6,0.3-2.1,0.9c-0.5,0.6-0.8,1.4-0.8,2.5c0,1.1,0.3,1.9,0.8,2.5c0.5,0.6,1.2,0.9,2.1,0.9c0.4,0,0.9-0.1,1.3-0.2
			s0.8-0.4,1.3-0.8l0.5,1c-0.4,0.3-0.8,0.6-1.4,0.8c-0.6,0.2-1.1,0.3-1.8,0.3C98.6,369.7,97.8,369.5,97.2,369.1z"/>
		<path class="st8" d="M111.7,360.8v8.8h-1.4V368c-0.3,0.5-0.7,0.9-1.2,1.2c-0.5,0.3-1.1,0.4-1.7,0.4c-1,0-1.8-0.3-2.4-0.9
			c-0.5-0.6-0.8-1.4-0.8-2.6v-5.4h1.4v5.4c0,0.8,0.2,1.4,0.5,1.7c0.3,0.4,0.8,0.6,1.5,0.6c0.8,0,1.4-0.3,1.9-0.8
			c0.5-0.5,0.7-1.2,0.7-2v-5H111.7z"/>
		<path class="st8" d="M119.3,360.7l0,1.3c-0.3-0.1-0.6-0.1-0.9-0.1c-0.8,0-1.5,0.3-1.9,0.8c-0.4,0.5-0.6,1.2-0.6,1.9v5h-1.4v-6.3
			c0-0.9,0-1.7-0.1-2.5h1.3l0.1,1.6c0.2-0.6,0.6-1,1.1-1.4c0.5-0.3,1-0.5,1.7-0.5C118.8,360.6,119.1,360.6,119.3,360.7z"/>
		<path class="st8" d="M122.3,357.1v1.6h-1.7v-1.6H122.3z M120.7,360.8h1.4v8.8h-1.4V360.8z"/>
		<path class="st8" d="M126.8,361.9v4.8c0,0.7,0.1,1.1,0.4,1.4c0.3,0.3,0.6,0.4,1.1,0.4c0.3,0,0.6-0.1,0.9-0.2v1.2
			c-0.4,0.1-0.8,0.2-1.2,0.2c-0.8,0-1.5-0.2-2-0.7s-0.7-1.2-0.7-2.1v-5h-1.7v-1.1h1.7v-2.2l1.4-0.5v2.8h2.5v1.1H126.8z"/>
		<path class="st8" d="M138.8,360.8l-4.1,9.6c-0.4,1-1,1.7-1.6,2.2s-1.5,0.8-2.4,1l-0.3-1.1c0.8-0.2,1.4-0.4,1.9-0.7
			s0.8-0.8,1.1-1.4l0.3-0.8l-3.7-8.7h1.5l3,7.2l3-7.2H138.8z"/>
	</g>
	<g class="st6">
		<path class="st8" d="M51.4,387.2H45l-1.4,3.2h-1.5l5.5-12.4h1.3l5.5,12.4h-1.5L51.4,387.2z M50.9,386.1l-2.7-6.4l-2.7,6.4H50.9z"
			/>
		<path class="st8" d="M55.3,389.4l0.5-1c0.5,0.4,1,0.6,1.4,0.8c0.5,0.2,1,0.2,1.6,0.2c0.7,0,1.2-0.1,1.5-0.3c0.3-0.2,0.5-0.6,0.5-1
			c0-0.3-0.1-0.6-0.3-0.8c-0.2-0.2-0.6-0.4-1.2-0.5l-1.5-0.3c-0.7-0.2-1.3-0.5-1.7-0.9c-0.4-0.4-0.6-0.9-0.6-1.5
			c0-0.8,0.3-1.4,0.9-1.9c0.6-0.5,1.4-0.7,2.4-0.7c0.6,0,1.2,0.1,1.7,0.3c0.5,0.2,1,0.5,1.4,0.9l-0.5,1c-0.8-0.7-1.7-1-2.7-1
			c-0.6,0-1.1,0.1-1.5,0.4s-0.5,0.6-0.5,1c0,0.4,0.1,0.6,0.3,0.9c0.2,0.2,0.6,0.4,1,0.5l1.5,0.4c0.8,0.2,1.4,0.5,1.8,0.9
			s0.6,0.9,0.6,1.5c0,0.8-0.3,1.4-0.9,1.8c-0.6,0.5-1.5,0.7-2.5,0.7C57.3,390.6,56.2,390.2,55.3,389.4z"/>
		<path class="st8" d="M63.9,389.4l0.5-1c0.5,0.4,1,0.6,1.4,0.8c0.5,0.2,1,0.2,1.6,0.2c0.7,0,1.2-0.1,1.5-0.3c0.3-0.2,0.5-0.6,0.5-1
			c0-0.3-0.1-0.6-0.3-0.8c-0.2-0.2-0.6-0.4-1.2-0.5l-1.5-0.3c-0.7-0.2-1.3-0.5-1.7-0.9c-0.4-0.4-0.6-0.9-0.6-1.5
			c0-0.8,0.3-1.4,0.9-1.9c0.6-0.5,1.4-0.7,2.4-0.7c0.6,0,1.2,0.1,1.7,0.3c0.5,0.2,1,0.5,1.4,0.9l-0.5,1c-0.8-0.7-1.7-1-2.7-1
			c-0.6,0-1.1,0.1-1.5,0.4s-0.5,0.6-0.5,1c0,0.4,0.1,0.6,0.3,0.9c0.2,0.2,0.6,0.4,1,0.5l1.5,0.4c0.8,0.2,1.4,0.5,1.8,0.9
			s0.6,0.9,0.6,1.5c0,0.8-0.3,1.4-0.9,1.8c-0.6,0.5-1.5,0.7-2.5,0.7C66,390.6,64.8,390.2,63.9,389.4z"/>
		<path class="st8" d="M80.5,386H74c0,1.1,0.3,2,0.8,2.5c0.5,0.6,1.2,0.9,2.2,0.9c1,0,2-0.3,2.8-1l0.5,1c-0.4,0.4-0.9,0.6-1.5,0.9
			c-0.6,0.2-1.2,0.3-1.8,0.3c-1.4,0-2.4-0.4-3.2-1.2c-0.8-0.8-1.2-1.9-1.2-3.3c0-0.9,0.2-1.7,0.5-2.4c0.3-0.7,0.8-1.2,1.5-1.6
			c0.6-0.4,1.3-0.6,2.1-0.6c1.2,0,2.1,0.4,2.7,1.1c0.7,0.8,1,1.8,1,3.1V386z M75,383.2c-0.5,0.4-0.8,1.1-0.9,1.9h5.1
			c-0.1-0.8-0.3-1.5-0.7-1.9c-0.4-0.4-1-0.6-1.7-0.6C76,382.6,75.4,382.8,75,383.2z"/>
		<path class="st8" d="M82.1,389.4l0.5-1c0.5,0.4,1,0.6,1.4,0.8c0.5,0.2,1,0.2,1.6,0.2c0.7,0,1.2-0.1,1.5-0.3c0.3-0.2,0.5-0.6,0.5-1
			c0-0.3-0.1-0.6-0.3-0.8c-0.2-0.2-0.6-0.4-1.2-0.5l-1.5-0.3c-0.7-0.2-1.3-0.5-1.7-0.9c-0.4-0.4-0.6-0.9-0.6-1.5
			c0-0.8,0.3-1.4,0.9-1.9c0.6-0.5,1.4-0.7,2.4-0.7c0.6,0,1.2,0.1,1.7,0.3c0.5,0.2,1,0.5,1.4,0.9l-0.5,1c-0.8-0.7-1.7-1-2.7-1
			c-0.6,0-1.1,0.1-1.5,0.4s-0.5,0.6-0.5,1c0,0.4,0.1,0.6,0.3,0.9c0.2,0.2,0.6,0.4,1,0.5l1.5,0.4c0.8,0.2,1.4,0.5,1.8,0.9
			s0.6,0.9,0.6,1.5c0,0.8-0.3,1.4-0.9,1.8c-0.6,0.5-1.5,0.7-2.5,0.7C84.1,390.6,82.9,390.2,82.1,389.4z"/>
		<path class="st8" d="M90.7,389.4l0.5-1c0.5,0.4,1,0.6,1.4,0.8c0.5,0.2,1,0.2,1.6,0.2c0.7,0,1.2-0.1,1.5-0.3c0.3-0.2,0.5-0.6,0.5-1
			c0-0.3-0.1-0.6-0.3-0.8c-0.2-0.2-0.6-0.4-1.2-0.5l-1.5-0.3c-0.7-0.2-1.3-0.5-1.7-0.9c-0.4-0.4-0.6-0.9-0.6-1.5
			c0-0.8,0.3-1.4,0.9-1.9c0.6-0.5,1.4-0.7,2.4-0.7c0.6,0,1.2,0.1,1.7,0.3c0.5,0.2,1,0.5,1.4,0.9l-0.5,1c-0.8-0.7-1.7-1-2.7-1
			c-0.6,0-1.1,0.1-1.5,0.4s-0.5,0.6-0.5,1c0,0.4,0.1,0.6,0.3,0.9c0.2,0.2,0.6,0.4,1,0.5l1.5,0.4c0.8,0.2,1.4,0.5,1.8,0.9
			s0.6,0.9,0.6,1.5c0,0.8-0.3,1.4-0.9,1.8c-0.6,0.5-1.5,0.7-2.5,0.7C92.7,390.6,91.6,390.2,90.7,389.4z"/>
		<path class="st8" d="M112.5,384.9v5.5h-1.4V385c0-0.8-0.1-1.4-0.4-1.8c-0.3-0.4-0.7-0.6-1.4-0.6c-0.7,0-1.3,0.2-1.7,0.7
			c-0.4,0.5-0.6,1.2-0.6,2v5h-1.4V385c0-0.8-0.1-1.4-0.4-1.8s-0.8-0.6-1.4-0.6c-0.7,0-1.3,0.2-1.8,0.7c-0.4,0.5-0.6,1.2-0.6,2v5
			h-1.4v-6.3c0-0.9,0-1.7-0.1-2.5h1.3l0.1,1.5c0.2-0.6,0.6-1,1.1-1.3c0.5-0.3,1-0.5,1.7-0.5c0.7,0,1.3,0.1,1.7,0.4
			c0.4,0.3,0.8,0.7,1,1.3c0.3-0.5,0.7-0.9,1.2-1.2s1.1-0.5,1.8-0.5C111.6,381.5,112.5,382.6,112.5,384.9z"/>
		<path class="st8" d="M122.6,386h-6.4c0,1.1,0.3,2,0.8,2.5c0.5,0.6,1.2,0.9,2.2,0.9c1,0,2-0.3,2.8-1l0.5,1
			c-0.4,0.4-0.9,0.6-1.5,0.9c-0.6,0.2-1.2,0.3-1.8,0.3c-1.4,0-2.4-0.4-3.2-1.2c-0.8-0.8-1.2-1.9-1.2-3.3c0-0.9,0.2-1.7,0.5-2.4
			c0.3-0.7,0.8-1.2,1.5-1.6c0.6-0.4,1.3-0.6,2.1-0.6c1.2,0,2.1,0.4,2.7,1.1c0.7,0.8,1,1.8,1,3.1V386z M117.1,383.2
			c-0.5,0.4-0.8,1.1-0.9,1.9h5.1c-0.1-0.8-0.3-1.5-0.7-1.9c-0.4-0.4-1-0.6-1.7-0.6C118.1,382.6,117.5,382.8,117.1,383.2z"/>
		<path class="st8" d="M132.2,384.9v5.5h-1.4V385c0-0.8-0.2-1.4-0.5-1.8c-0.3-0.4-0.8-0.6-1.5-0.6c-0.8,0-1.5,0.2-2,0.7
			c-0.5,0.5-0.7,1.2-0.7,2v5h-1.4v-6.3c0-0.9,0-1.7-0.1-2.5h1.3l0.1,1.6c0.3-0.6,0.7-1,1.2-1.3s1.1-0.5,1.8-0.5
			C131.2,381.5,132.2,382.6,132.2,384.9z"/>
		<path class="st8" d="M136.8,382.8v4.8c0,0.7,0.1,1.1,0.4,1.4c0.3,0.3,0.6,0.4,1.1,0.4c0.3,0,0.6-0.1,0.9-0.2v1.2
			c-0.4,0.1-0.8,0.2-1.2,0.2c-0.8,0-1.5-0.2-2-0.7s-0.7-1.2-0.7-2.1v-5h-1.7v-1.1h1.7v-2.2l1.4-0.5v2.8h2.5v1.1H136.8z"/>
	</g>
	<g class="st6">
		<path class="st9" d="M96.6,231.6c0.5,0.1,0.9,0.1,1.1,0.1c0.5,0,0.8-0.1,0.9-0.3s0.2-0.5,0.2-1.1v-10.2h2.9v10.1
			c0,1.3-0.3,2.2-0.8,2.9c-0.5,0.6-1.4,0.9-2.7,0.9c-0.5,0-1.1,0-1.7-0.1V231.6z"/>
		<path class="st9" d="M111.2,228.9h-4.9l-1,2.3h-2.9l5.1-11h2.3l5.2,11h-2.9L111.2,228.9z M110.3,226.7l-1.5-3.5l-1.5,3.5H110.3z"
			/>
		<path class="st9" d="M124.6,226.5c0.4,0.5,0.5,1,0.5,1.7c0,0.6-0.2,1.1-0.5,1.6s-0.8,0.8-1.4,1s-1.3,0.4-2.1,0.4h-5.5v-11h5.3
			c1.2,0,2.1,0.3,2.7,0.8s1,1.2,1,2.1c0,0.6-0.1,1.1-0.4,1.5c-0.3,0.4-0.7,0.7-1.3,0.9C123.8,225.7,124.2,226,124.6,226.5z
			 M118.5,224.5h2c0.5,0,0.9-0.1,1.2-0.2c0.2-0.2,0.4-0.4,0.4-0.8c0-0.4-0.1-0.6-0.4-0.8c-0.3-0.2-0.6-0.3-1.2-0.3h-2V224.5z
			 M122,228.7c0.2-0.2,0.4-0.5,0.4-0.9c0-0.4-0.1-0.7-0.4-0.9c-0.2-0.2-0.6-0.3-1.2-0.3h-2.3v2.3h2.3
			C121.4,229,121.8,228.9,122,228.7z"/>
		<path class="st9" d="M131,220.2h5.2c1.3,0,2.2,0.3,2.9,0.9c0.7,0.6,1,1.4,1,2.4c0,1-0.4,1.8-1.1,2.4c-0.7,0.6-1.7,0.9-2.9,0.9
			h-2.3v4.3H131V220.2z M135.9,224.7c1.1,0,1.6-0.4,1.6-1.2c0-0.4-0.1-0.7-0.4-0.9c-0.3-0.2-0.7-0.3-1.2-0.3h-1.9v2.3H135.9z"/>
		<path class="st9" d="M151.2,231.2h-3.1l-1.4-3.7c-0.2-0.4-0.6-0.6-1.2-0.6h-1.1v4.3h-2.9v-11h5.1c1.3,0,2.3,0.3,3,0.9
			c0.7,0.6,1,1.4,1,2.4c0,0.7-0.2,1.4-0.6,1.9c-0.4,0.5-1,0.9-1.7,1.2c0.3,0.1,0.6,0.2,0.8,0.4s0.4,0.5,0.6,0.9L151.2,231.2z
			 M147.6,224.5c0.3-0.2,0.4-0.5,0.4-0.9c0-0.4-0.1-0.7-0.4-0.9s-0.7-0.3-1.4-0.3h-1.8v2.4h1.8C146.9,224.7,147.3,224.6,147.6,224.5
			z"/>
		<path class="st9" d="M154.9,230.6c-0.8-0.5-1.5-1.1-1.9-2c-0.4-0.9-0.7-1.9-0.7-3c0-1.1,0.2-2.1,0.7-3c0.5-0.8,1.1-1.5,1.9-2
			c0.8-0.5,1.8-0.7,2.9-0.7s2.1,0.2,2.9,0.7c0.8,0.5,1.5,1.1,1.9,2c0.4,0.8,0.7,1.8,0.7,3c0,1.1-0.2,2.1-0.7,3
			c-0.4,0.9-1.1,1.5-1.9,2c-0.8,0.5-1.8,0.7-2.9,0.7S155.7,231.1,154.9,230.6z M159.7,228.2c0.5-0.6,0.7-1.4,0.7-2.6
			c0-1.1-0.2-2-0.7-2.5c-0.5-0.6-1.1-0.9-1.9-0.9c-0.8,0-1.5,0.3-1.9,0.9c-0.5,0.6-0.7,1.4-0.7,2.5c0,1.1,0.2,2,0.7,2.6
			c0.5,0.6,1.1,0.9,1.9,0.9C158.6,229.1,159.3,228.8,159.7,228.2z"/>
		<path class="st9" d="M167.4,230.6c-0.8-0.5-1.5-1.1-2-2c-0.5-0.9-0.7-1.8-0.7-3c0-1.1,0.2-2.1,0.7-2.9c0.5-0.8,1.1-1.5,2-2
			c0.8-0.5,1.8-0.7,3-0.7c0.7,0,1.4,0.1,2.1,0.3c0.7,0.2,1.2,0.5,1.6,0.9l-0.9,2.1c-0.9-0.6-1.8-1-2.8-1c-0.9,0-1.6,0.3-2,0.8
			c-0.5,0.6-0.7,1.4-0.7,2.5c0,1.1,0.2,2,0.7,2.5c0.5,0.6,1.2,0.8,2,0.8c1,0,1.9-0.3,2.8-1l0.9,2.1c-0.4,0.4-1,0.7-1.6,0.9
			c-0.7,0.2-1.4,0.3-2.1,0.3C169.2,231.3,168.2,231.1,167.4,230.6z"/>
		<path class="st9" d="M175.6,220.2h7.8v2.2h-5v2.1h4.7v2.2h-4.7v2.3h5v2.2h-7.8V220.2z"/>
		<path class="st9" d="M186.3,231c-0.8-0.2-1.5-0.5-2-0.9l0.9-2.1c0.5,0.3,1.1,0.6,1.7,0.8c0.6,0.2,1.2,0.3,1.8,0.3
			c0.6,0,1.1-0.1,1.4-0.3s0.5-0.4,0.5-0.7c0-0.3-0.1-0.5-0.4-0.7c-0.3-0.2-0.9-0.4-1.7-0.5c-1-0.2-1.8-0.5-2.4-0.8
			c-0.6-0.3-1-0.7-1.2-1.1c-0.2-0.4-0.3-0.9-0.3-1.5c0-0.7,0.2-1.3,0.6-1.8c0.4-0.5,0.9-1,1.6-1.3s1.5-0.5,2.4-0.5
			c0.8,0,1.6,0.1,2.3,0.3c0.7,0.2,1.3,0.5,1.8,0.9l-0.9,2.1c-0.5-0.3-1-0.6-1.5-0.8c-0.5-0.2-1.1-0.3-1.6-0.3
			c-0.5,0-0.9,0.1-1.3,0.3c-0.3,0.2-0.5,0.5-0.5,0.8c0,0.2,0.1,0.3,0.2,0.5c0.1,0.1,0.3,0.2,0.6,0.4s0.8,0.2,1.4,0.4
			c1,0.2,1.8,0.5,2.4,0.8c0.6,0.3,1,0.7,1.2,1.1c0.2,0.4,0.4,0.9,0.4,1.5c0,1.1-0.4,1.9-1.3,2.5c-0.8,0.6-2,0.9-3.5,0.9
			C187.9,231.3,187.1,231.2,186.3,231z"/>
		<path class="st9" d="M196.7,231c-0.8-0.2-1.5-0.5-2-0.9l0.9-2.1c0.5,0.3,1.1,0.6,1.7,0.8c0.6,0.2,1.2,0.3,1.8,0.3
			c0.6,0,1.1-0.1,1.4-0.3s0.5-0.4,0.5-0.7c0-0.3-0.1-0.5-0.4-0.7c-0.3-0.2-0.9-0.4-1.7-0.5c-1-0.2-1.8-0.5-2.4-0.8
			c-0.6-0.3-1-0.7-1.2-1.1c-0.2-0.4-0.3-0.9-0.3-1.5c0-0.7,0.2-1.3,0.6-1.8c0.4-0.5,0.9-1,1.6-1.3s1.5-0.5,2.4-0.5
			c0.8,0,1.6,0.1,2.3,0.3c0.7,0.2,1.3,0.5,1.8,0.9l-0.9,2.1c-0.5-0.3-1-0.6-1.5-0.8c-0.5-0.2-1.1-0.3-1.6-0.3
			c-0.5,0-0.9,0.1-1.3,0.3c-0.3,0.2-0.5,0.5-0.5,0.8c0,0.2,0.1,0.3,0.2,0.5c0.1,0.1,0.3,0.2,0.6,0.4s0.8,0.2,1.4,0.4
			c1,0.2,1.8,0.5,2.4,0.8c0.6,0.3,1,0.7,1.2,1.1c0.2,0.4,0.4,0.9,0.4,1.5c0,1.1-0.4,1.9-1.3,2.5c-0.8,0.6-2,0.9-3.5,0.9
			C198.3,231.3,197.5,231.2,196.7,231z"/>
	</g>
	<path class="st10" d="M65.3,20.2L240,19.7c10.5,0,19.1,8.5,19.1,19v0.4c0,10.5-8.5,19.1-19,19.1L65.4,58.8
		c-10.5,0-19.1-8.5-19.1-19v-0.4C46.2,28.8,54.7,20.2,65.3,20.2z"/>
	<path class="st11" d="M65.3,205.7l174.7-0.5c10.5,0,19.1,8.5,19.1,19v0.4c0,10.5-8.5,19.1-19,19.1l-174.7,0.5
		c-10.5,0-19.1-8.5-19.1-19v-0.4C46.2,214.3,54.7,205.7,65.3,205.7z"/>
	<g class="st6">
		<path class="st12" d="M86.6,43.4h-4.9l-1,2.3h-2.9l5.1-11h2.3l5.2,11h-2.9L86.6,43.4z M85.7,41.2l-1.5-3.5l-1.5,3.5H85.7z"/>
		<path class="st12" d="M100.5,39.5V45c-0.6,0.3-1.2,0.5-2,0.6c-0.7,0.1-1.5,0.2-2.2,0.2c-1.2,0-2.2-0.2-3.1-0.7
			c-0.9-0.5-1.6-1.1-2-2s-0.7-1.9-0.7-3c0-1.1,0.2-2.1,0.7-3c0.5-0.8,1.1-1.5,2-2c0.9-0.5,1.9-0.7,3-0.7c0.8,0,1.5,0.1,2.2,0.3
			s1.3,0.5,1.7,0.8l-0.9,2.1c-0.5-0.3-1-0.6-1.5-0.7c-0.5-0.1-1-0.2-1.5-0.2c-1,0-1.7,0.3-2.2,0.8c-0.5,0.6-0.7,1.4-0.7,2.5
			c0,1.2,0.2,2,0.7,2.6s1.3,0.8,2.3,0.8c0.5,0,1-0.1,1.5-0.2v-2H96v-2H100.5z"/>
		<path class="st12" d="M102.4,34.7h7.8v2.2h-5V39h4.7v2.2h-4.7v2.3h5v2.2h-7.8V34.7z"/>
		<path class="st12" d="M121.5,34.7v11h-2.1l-5-6.2v6.2h-2.7v-11h2.1l5,6.2v-6.2H121.5z"/>
		<path class="st12" d="M125.9,45.1c-0.8-0.5-1.5-1.1-2-2c-0.5-0.9-0.7-1.8-0.7-3c0-1.1,0.2-2.1,0.7-2.9c0.5-0.8,1.1-1.5,2-2
			c0.8-0.5,1.8-0.7,3-0.7c0.7,0,1.4,0.1,2.1,0.3c0.7,0.2,1.2,0.5,1.6,0.9l-0.9,2.1c-0.9-0.6-1.8-1-2.8-1c-0.9,0-1.6,0.3-2,0.8
			c-0.5,0.6-0.7,1.4-0.7,2.5c0,1.1,0.2,2,0.7,2.5c0.5,0.6,1.2,0.8,2,0.8c1,0,1.9-0.3,2.8-1l0.9,2.1c-0.4,0.4-1,0.7-1.6,0.9
			c-0.7,0.2-1.4,0.3-2.1,0.3C127.7,45.8,126.7,45.6,125.9,45.1z"/>
		<path class="st12" d="M139.5,41.5v4.2h-2.9v-4.2l-4.6-6.8h3.3l2.8,4.4l2.8-4.4h3.3L139.5,41.5z"/>
		<path class="st12" d="M148.6,34.7h5.2c1.3,0,2.2,0.3,2.9,0.9c0.7,0.6,1,1.4,1,2.4c0,1-0.4,1.8-1.1,2.4c-0.7,0.6-1.7,0.9-2.9,0.9
			h-2.3v4.3h-2.9V34.7z M153.5,39.2c1.1,0,1.6-0.4,1.6-1.2c0-0.4-0.1-0.7-0.4-0.9c-0.3-0.2-0.7-0.3-1.2-0.3h-1.9v2.3H153.5z"/>
		<path class="st12" d="M168.8,45.7h-3.1l-1.4-3.7c-0.2-0.4-0.6-0.6-1.2-0.6h-1.1v4.3h-2.9v-11h5.1c1.3,0,2.3,0.3,3,0.9
			c0.7,0.6,1,1.4,1,2.4c0,0.7-0.2,1.4-0.6,1.9c-0.4,0.5-1,0.9-1.7,1.2c0.3,0.1,0.6,0.2,0.8,0.4s0.4,0.5,0.6,0.9L168.8,45.7z
			 M165.2,39c0.3-0.2,0.4-0.5,0.4-0.9c0-0.4-0.1-0.7-0.4-0.9s-0.7-0.3-1.4-0.3H162v2.4h1.8C164.5,39.2,164.9,39.1,165.2,39z"/>
		<path class="st12" d="M172.5,45.1c-0.8-0.5-1.5-1.1-1.9-2c-0.4-0.9-0.7-1.9-0.7-3c0-1.1,0.2-2.1,0.7-3c0.5-0.8,1.1-1.5,1.9-2
			c0.8-0.5,1.8-0.7,2.9-0.7s2.1,0.2,2.9,0.7c0.8,0.5,1.5,1.1,1.9,2c0.4,0.8,0.7,1.8,0.7,3c0,1.1-0.2,2.1-0.7,3
			c-0.4,0.9-1.1,1.5-1.9,2c-0.8,0.5-1.8,0.7-2.9,0.7S173.3,45.6,172.5,45.1z M177.3,42.7c0.5-0.6,0.7-1.4,0.7-2.6
			c0-1.1-0.2-2-0.7-2.5c-0.5-0.6-1.1-0.9-1.9-0.9c-0.8,0-1.5,0.3-1.9,0.9c-0.5,0.6-0.7,1.4-0.7,2.5c0,1.1,0.2,2,0.7,2.6
			c0.5,0.6,1.1,0.9,1.9,0.9C176.2,43.6,176.9,43.3,177.3,42.7z"/>
		<path class="st12" d="M185,45.1c-0.8-0.5-1.5-1.1-2-2c-0.5-0.9-0.7-1.8-0.7-3c0-1.1,0.2-2.1,0.7-2.9c0.5-0.8,1.1-1.5,2-2
			c0.8-0.5,1.8-0.7,3-0.7c0.7,0,1.4,0.1,2.1,0.3c0.7,0.2,1.2,0.5,1.6,0.9l-0.9,2.1c-0.9-0.6-1.8-1-2.8-1c-0.9,0-1.6,0.3-2,0.8
			c-0.5,0.6-0.7,1.4-0.7,2.5c0,1.1,0.2,2,0.7,2.5c0.5,0.6,1.2,0.8,2,0.8c1,0,1.9-0.3,2.8-1l0.9,2.1c-0.4,0.4-1,0.7-1.6,0.9
			c-0.7,0.2-1.4,0.3-2.1,0.3C186.8,45.8,185.8,45.6,185,45.1z"/>
		<path class="st12" d="M193.2,34.7h7.8v2.2h-5V39h4.7v2.2H196v2.3h5v2.2h-7.8V34.7z"/>
		<path class="st12" d="M203.9,45.5c-0.8-0.2-1.5-0.5-2-0.9l0.9-2.1c0.5,0.3,1.1,0.6,1.7,0.8c0.6,0.2,1.2,0.3,1.8,0.3
			c0.6,0,1.1-0.1,1.4-0.3s0.5-0.4,0.5-0.7c0-0.3-0.1-0.5-0.4-0.7c-0.3-0.2-0.9-0.4-1.7-0.5c-1-0.2-1.8-0.5-2.4-0.8
			c-0.6-0.3-1-0.7-1.2-1.1c-0.2-0.4-0.3-0.9-0.3-1.5c0-0.7,0.2-1.3,0.6-1.8c0.4-0.5,0.9-1,1.6-1.3s1.5-0.5,2.4-0.5
			c0.8,0,1.6,0.1,2.3,0.3c0.7,0.2,1.3,0.5,1.8,0.9l-0.9,2.1c-0.5-0.3-1-0.6-1.5-0.8c-0.5-0.2-1.1-0.3-1.6-0.3
			c-0.5,0-0.9,0.1-1.3,0.3c-0.3,0.2-0.5,0.5-0.5,0.8c0,0.2,0.1,0.3,0.2,0.5c0.1,0.1,0.3,0.2,0.6,0.4s0.8,0.2,1.4,0.4
			c1,0.2,1.8,0.5,2.4,0.8c0.6,0.3,1,0.7,1.2,1.1c0.2,0.4,0.4,0.9,0.4,1.5c0,1.1-0.4,1.9-1.3,2.5c-0.8,0.6-2,0.9-3.5,0.9
			C205.5,45.8,204.7,45.7,203.9,45.5z"/>
		<path class="st12" d="M214.3,45.5c-0.8-0.2-1.5-0.5-2-0.9l0.9-2.1c0.5,0.3,1.1,0.6,1.7,0.8c0.6,0.2,1.2,0.3,1.8,0.3
			c0.6,0,1.1-0.1,1.4-0.3s0.5-0.4,0.5-0.7c0-0.3-0.1-0.5-0.4-0.7c-0.3-0.2-0.9-0.4-1.7-0.5c-1-0.2-1.8-0.5-2.4-0.8
			c-0.6-0.3-1-0.7-1.2-1.1c-0.2-0.4-0.3-0.9-0.3-1.5c0-0.7,0.2-1.3,0.6-1.8c0.4-0.5,0.9-1,1.6-1.3s1.5-0.5,2.4-0.5
			c0.8,0,1.6,0.1,2.3,0.3c0.7,0.2,1.3,0.5,1.8,0.9l-0.9,2.1c-0.5-0.3-1-0.6-1.5-0.8c-0.5-0.2-1.1-0.3-1.6-0.3
			c-0.5,0-0.9,0.1-1.3,0.3c-0.3,0.2-0.5,0.5-0.5,0.8c0,0.2,0.1,0.3,0.2,0.5c0.1,0.1,0.3,0.2,0.6,0.4s0.8,0.2,1.4,0.4
			c1,0.2,1.8,0.5,2.4,0.8c0.6,0.3,1,0.7,1.2,1.1c0.2,0.4,0.4,0.9,0.4,1.5c0,1.1-0.4,1.9-1.3,2.5c-0.8,0.6-2,0.9-3.5,0.9
			C215.9,45.8,215.1,45.7,214.3,45.5z"/>
	</g>
	<g class="st6">
		<path class="st13" d="M448.8,474.5c0-3.2,2.4-5.4,5.7-5.4c1.8,0,3.3,0.7,4.3,1.9l-1.6,1.4c-0.7-0.8-1.6-1.2-2.6-1.2
			c-2,0-3.4,1.4-3.4,3.4c0,2,1.4,3.4,3.4,3.4c1,0,1.9-0.4,2.6-1.2l1.6,1.4c-1,1.2-2.5,1.9-4.3,1.9
			C451.2,479.9,448.8,477.6,448.8,474.5z"/>
		<path class="st13" d="M459.4,475.7c0-2.4,1.9-4.2,4.4-4.2c2.6,0,4.4,1.7,4.4,4.2c0,2.4-1.9,4.2-4.4,4.2
			C461.3,479.9,459.4,478.1,459.4,475.7z M465.9,475.7c0-1.4-0.9-2.2-2.1-2.2s-2.1,0.8-2.1,2.2c0,1.4,0.9,2.2,2.1,2.2
			S465.9,477.1,465.9,475.7z"/>
		<path class="st13" d="M478.1,475.1v4.6h-2.3v-4.3c0-1.3-0.6-1.9-1.6-1.9c-1.1,0-1.9,0.7-1.9,2.2v4h-2.3v-8.1h2.2v0.9
			c0.6-0.7,1.6-1.1,2.7-1.1C476.6,471.5,478.1,472.7,478.1,475.1z"/>
		<path class="st13" d="M485.4,479.3c-0.5,0.3-1.2,0.5-1.9,0.5c-1.9,0-3-1-3-2.9v-3.3h-1.2v-1.8h1.2v-2h2.3v2h2v1.8h-2v3.3
			c0,0.7,0.4,1.1,1,1.1c0.3,0,0.7-0.1,0.9-0.3L485.4,479.3z"/>
		<path class="st13" d="M486.4,469.2c0-0.7,0.6-1.3,1.5-1.3s1.5,0.5,1.5,1.3c0,0.8-0.6,1.4-1.5,1.4S486.4,470,486.4,469.2z
			 M486.7,471.7h2.3v8.1h-2.3V471.7z"/>
		<path class="st13" d="M499.5,475.1v4.6h-2.3v-4.3c0-1.3-0.6-1.9-1.6-1.9c-1.1,0-1.9,0.7-1.9,2.2v4h-2.3v-8.1h2.2v0.9
			c0.6-0.7,1.6-1.1,2.7-1.1C498,471.5,499.5,472.7,499.5,475.1z"/>
		<path class="st13" d="M509.7,471.7v8.1h-2.2v-1c-0.6,0.7-1.5,1.1-2.5,1.1c-2,0-3.5-1.1-3.5-3.6v-4.6h2.3v4.2
			c0,1.3,0.6,1.9,1.6,1.9c1.1,0,1.9-0.7,1.9-2.2v-4H509.7z"/>
		<path class="st13" d="M511.3,475.7c0-2.4,1.9-4.2,4.4-4.2c2.6,0,4.4,1.7,4.4,4.2c0,2.4-1.9,4.2-4.4,4.2
			C513.2,479.9,511.3,478.1,511.3,475.7z M517.8,475.7c0-1.4-0.9-2.2-2.1-2.2s-2.1,0.8-2.1,2.2c0,1.4,0.9,2.2,2.1,2.2
			S517.8,477.1,517.8,475.7z"/>
		<path class="st13" d="M529.8,471.7v8.1h-2.2v-1c-0.6,0.7-1.5,1.1-2.5,1.1c-2,0-3.5-1.1-3.5-3.6v-4.6h2.3v4.2
			c0,1.3,0.6,1.9,1.6,1.9c1.1,0,1.9-0.7,1.9-2.2v-4H529.8z"/>
		<path class="st13" d="M531.2,479l0.8-1.7c0.7,0.5,1.8,0.8,2.8,0.8c1.1,0,1.5-0.3,1.5-0.7c0-1.3-4.9,0-4.9-3.2
			c0-1.5,1.4-2.6,3.7-2.6c1.1,0,2.3,0.3,3.1,0.7l-0.8,1.7c-0.8-0.5-1.6-0.6-2.3-0.6c-1.1,0-1.5,0.3-1.5,0.8c0,1.4,4.9,0,4.9,3.2
			c0,1.5-1.4,2.6-3.8,2.6C533.4,479.9,532,479.5,531.2,479z"/>
		<path class="st13" d="M554,479.7l0-6.3l-3.1,5.2h-1.1l-3.1-5.1v6.2h-2.3v-10.5h2l3.9,6.5l3.9-6.5h2l0,10.5H554z"/>
		<path class="st13" d="M558,475.7c0-2.4,1.9-4.2,4.4-4.2c2.6,0,4.4,1.7,4.4,4.2c0,2.4-1.9,4.2-4.4,4.2
			C559.8,479.9,558,478.1,558,475.7z M564.5,475.7c0-1.4-0.9-2.2-2.1-2.2s-2.1,0.8-2.1,2.2c0,1.4,0.9,2.2,2.1,2.2
			S564.5,477.1,564.5,475.7z"/>
		<path class="st13" d="M576.6,475.1v4.6h-2.3v-4.3c0-1.3-0.6-1.9-1.6-1.9c-1.1,0-1.9,0.7-1.9,2.2v4h-2.3v-8.1h2.2v0.9
			c0.6-0.7,1.6-1.1,2.7-1.1C575.2,471.5,576.6,472.7,576.6,475.1z"/>
		<path class="st13" d="M578.5,469.2c0-0.7,0.6-1.3,1.5-1.3s1.5,0.5,1.5,1.3c0,0.8-0.6,1.4-1.5,1.4S578.5,470,578.5,469.2z
			 M578.7,471.7h2.3v8.1h-2.3V471.7z"/>
		<path class="st13" d="M588.5,479.3c-0.5,0.3-1.2,0.5-1.9,0.5c-1.9,0-3-1-3-2.9v-3.3h-1.2v-1.8h1.2v-2h2.3v2h2v1.8h-2v3.3
			c0,0.7,0.4,1.1,1,1.1c0.3,0,0.7-0.1,0.9-0.3L588.5,479.3z"/>
		<path class="st13" d="M588.9,475.7c0-2.4,1.9-4.2,4.4-4.2c2.6,0,4.4,1.7,4.4,4.2c0,2.4-1.9,4.2-4.4,4.2
			C590.8,479.9,588.9,478.1,588.9,475.7z M595.4,475.7c0-1.4-0.9-2.2-2.1-2.2s-2.1,0.8-2.1,2.2c0,1.4,0.9,2.2,2.1,2.2
			S595.4,477.1,595.4,475.7z"/>
		<path class="st13" d="M604.4,471.5v2.2c-0.2,0-0.3,0-0.5,0c-1.3,0-2.1,0.7-2.1,2.2v3.8h-2.3v-8.1h2.2v1.1
			C602.2,471.9,603.1,471.5,604.4,471.5z"/>
		<path class="st13" d="M605.5,469.2c0-0.7,0.6-1.3,1.5-1.3s1.5,0.5,1.5,1.3c0,0.8-0.6,1.4-1.5,1.4S605.5,470,605.5,469.2z
			 M605.8,471.7h2.3v8.1h-2.3V471.7z"/>
		<path class="st13" d="M618.5,475.1v4.6h-2.3v-4.3c0-1.3-0.6-1.9-1.6-1.9c-1.1,0-1.9,0.7-1.9,2.2v4h-2.3v-8.1h2.2v0.9
			c0.6-0.7,1.6-1.1,2.7-1.1C617.1,471.5,618.5,472.7,618.5,475.1z"/>
		<path class="st13" d="M629.1,471.7v6.7c0,3-1.6,4.4-4.5,4.4c-1.5,0-3-0.4-4-1.1l0.9-1.7c0.7,0.6,1.8,0.9,2.8,0.9
			c1.7,0,2.4-0.8,2.4-2.2v-0.3c-0.6,0.7-1.5,1-2.5,1c-2.2,0-4-1.5-4-3.9c0-2.4,1.8-3.9,4-3.9c1.1,0,2.1,0.4,2.7,1.2v-1H629.1z
			 M626.7,475.4c0-1.2-0.9-2-2.1-2c-1.2,0-2.1,0.8-2.1,2c0,1.2,0.9,2,2.1,2C625.9,477.4,626.7,476.6,626.7,475.4z"/>
	</g>
	<rect x="514.2" y="19.5" class="st7" width="125.6" height="40.1"/>
	<g class="st6">
		<path class="st8" d="M545.5,34.2H544l-1.5-4.1c-0.2-0.5-0.4-0.8-0.8-1c-0.3-0.2-0.8-0.3-1.4-0.3h-3.1v5.4h-1.4V21.9h4.9
			c1.3,0,2.3,0.3,3,0.9c0.7,0.6,1.1,1.4,1.1,2.5c0,0.8-0.2,1.5-0.6,2c-0.4,0.5-1,0.9-1.8,1.2c0.4,0.1,0.7,0.2,0.9,0.5
			c0.3,0.2,0.5,0.6,0.6,1.1L545.5,34.2z M540.6,27.7c1.9,0,2.8-0.8,2.8-2.3c0-0.8-0.2-1.3-0.7-1.7s-1.2-0.6-2.1-0.6h-3.4v4.6H540.6z
			"/>
		<path class="st8" d="M554.9,29.8h-6.4c0,1.1,0.3,1.9,0.8,2.5c0.5,0.6,1.2,0.8,2.2,0.8c1,0,1.9-0.3,2.8-1l0.5,1
			c-0.4,0.4-0.9,0.6-1.5,0.8c-0.6,0.2-1.2,0.3-1.8,0.3c-1.4,0-2.4-0.4-3.2-1.2c-0.8-0.8-1.2-1.9-1.2-3.3c0-0.9,0.2-1.7,0.5-2.3
			s0.8-1.2,1.4-1.6s1.3-0.6,2.1-0.6c1.1,0,2,0.4,2.7,1.1c0.7,0.8,1,1.8,1,3.1V29.8z M549.4,27.1c-0.5,0.4-0.7,1-0.9,1.8h5
			c-0.1-0.8-0.3-1.4-0.7-1.9c-0.4-0.4-1-0.6-1.7-0.6C550.5,26.4,549.9,26.6,549.4,27.1z"/>
		<path class="st8" d="M564.6,25.5v8.7h-1.4v-1.6c-0.3,0.5-0.6,1-1.1,1.2c-0.5,0.3-1.1,0.4-1.8,0.4c-0.8,0-1.4-0.2-2-0.6
			c-0.6-0.4-1-0.9-1.3-1.6c-0.3-0.7-0.5-1.5-0.5-2.3c0-0.9,0.2-1.7,0.5-2.4s0.8-1.2,1.4-1.6s1.2-0.6,2-0.6c0.7,0,1.3,0.1,1.8,0.4
			c0.5,0.3,0.9,0.7,1.2,1.3v-1.5H564.6z M562.5,32.3c0.5-0.6,0.7-1.4,0.7-2.5s-0.2-1.9-0.7-2.5c-0.5-0.6-1.1-0.9-2-0.9
			s-1.5,0.3-2,0.9s-0.7,1.4-0.7,2.5s0.2,1.9,0.7,2.4c0.5,0.6,1.1,0.9,2,0.9C561.4,33.2,562.1,32.9,562.5,32.3z"/>
		<path class="st8" d="M574.9,21.5v12.7h-1.4v-1.6c-0.3,0.5-0.6,1-1.1,1.2c-0.5,0.3-1.1,0.4-1.8,0.4c-0.8,0-1.4-0.2-2-0.6
			c-0.6-0.4-1-0.9-1.4-1.6c-0.3-0.7-0.5-1.5-0.5-2.4s0.2-1.7,0.5-2.3c0.3-0.7,0.8-1.2,1.4-1.6c0.6-0.4,1.3-0.6,2-0.6
			c0.7,0,1.3,0.1,1.8,0.4c0.5,0.3,0.9,0.7,1.1,1.2v-5.5H574.9z M572.9,32.3c0.5-0.6,0.7-1.4,0.7-2.5c0-1.1-0.2-1.9-0.7-2.5
			c-0.5-0.6-1.1-0.9-2-0.9c-0.8,0-1.5,0.3-2,0.9c-0.5,0.6-0.7,1.4-0.7,2.4c0,1.1,0.2,1.9,0.7,2.5c0.5,0.6,1.1,0.9,2,0.9
			C571.8,33.2,572.4,32.9,572.9,32.3z"/>
		<path class="st8" d="M579.2,21.9v1.6h-1.7v-1.6H579.2z M577.6,25.5h1.4v8.7h-1.4V25.5z"/>
		<path class="st8" d="M589.2,28.7v5.4h-1.4v-5.4c0-0.8-0.2-1.4-0.5-1.8c-0.3-0.4-0.8-0.6-1.5-0.6c-0.8,0-1.4,0.2-1.9,0.7
			c-0.5,0.5-0.7,1.2-0.7,2v5h-1.4V28c0-0.9,0-1.7-0.1-2.4h1.3l0.1,1.5c0.3-0.6,0.7-1,1.2-1.3c0.5-0.3,1.1-0.5,1.8-0.5
			C588.1,25.3,589.2,26.5,589.2,28.7z"/>
		<path class="st8" d="M599.1,29.8h-6.4c0,1.1,0.3,1.9,0.8,2.5c0.5,0.6,1.2,0.8,2.2,0.8c1,0,1.9-0.3,2.8-1l0.5,1
			c-0.4,0.4-0.9,0.6-1.5,0.8c-0.6,0.2-1.2,0.3-1.8,0.3c-1.4,0-2.4-0.4-3.2-1.2c-0.8-0.8-1.2-1.9-1.2-3.3c0-0.9,0.2-1.7,0.5-2.3
			s0.8-1.2,1.4-1.6c0.6-0.4,1.3-0.6,2.1-0.6c1.1,0,2,0.4,2.7,1.1s1,1.8,1,3.1V29.8z M593.6,27.1c-0.5,0.4-0.7,1-0.9,1.8h5
			c-0.1-0.8-0.3-1.4-0.7-1.9c-0.4-0.4-1-0.6-1.7-0.6S594.1,26.6,593.6,27.1z"/>
		<path class="st8" d="M600.6,33.2l0.5-1c0.5,0.4,0.9,0.6,1.4,0.8c0.5,0.2,1,0.2,1.6,0.2c0.7,0,1.2-0.1,1.5-0.3s0.5-0.5,0.5-1
			c0-0.3-0.1-0.6-0.3-0.8c-0.2-0.2-0.6-0.4-1.1-0.5l-1.5-0.3c-0.7-0.2-1.3-0.4-1.7-0.9s-0.6-0.9-0.6-1.5c0-0.8,0.3-1.4,0.9-1.9
			s1.4-0.7,2.4-0.7c0.6,0,1.2,0.1,1.7,0.3c0.5,0.2,1,0.5,1.4,0.8l-0.5,1c-0.8-0.7-1.7-1-2.6-1c-0.6,0-1.1,0.1-1.4,0.4
			c-0.3,0.2-0.5,0.6-0.5,1c0,0.4,0.1,0.6,0.3,0.8c0.2,0.2,0.6,0.4,1,0.5l1.5,0.4c0.8,0.2,1.4,0.5,1.8,0.9c0.4,0.4,0.6,0.9,0.6,1.5
			c0,0.7-0.3,1.3-0.9,1.8c-0.6,0.4-1.4,0.7-2.5,0.7C602.6,34.3,601.5,33.9,600.6,33.2z"/>
		<path class="st8" d="M609.2,33.2l0.5-1c0.5,0.4,0.9,0.6,1.4,0.8c0.5,0.2,1,0.2,1.6,0.2c0.7,0,1.2-0.1,1.5-0.3
			c0.3-0.2,0.5-0.5,0.5-1c0-0.3-0.1-0.6-0.3-0.8c-0.2-0.2-0.6-0.4-1.1-0.5l-1.5-0.3c-0.7-0.2-1.3-0.4-1.7-0.9
			c-0.4-0.4-0.6-0.9-0.6-1.5c0-0.8,0.3-1.4,0.9-1.9c0.6-0.5,1.4-0.7,2.4-0.7c0.6,0,1.2,0.1,1.7,0.3s1,0.5,1.4,0.8l-0.5,1
			c-0.8-0.7-1.7-1-2.6-1c-0.6,0-1.1,0.1-1.4,0.4c-0.3,0.2-0.5,0.6-0.5,1c0,0.4,0.1,0.6,0.3,0.8c0.2,0.2,0.6,0.4,1,0.5l1.5,0.4
			c0.8,0.2,1.4,0.5,1.8,0.9s0.6,0.9,0.6,1.5c0,0.7-0.3,1.3-0.9,1.8c-0.6,0.4-1.4,0.7-2.5,0.7C611.2,34.3,610,33.9,609.2,33.2z"/>
	</g>
	<g class="st6">
		<path class="st8" d="M536.6,51.7h-6.4l-1.4,3.2h-1.5l5.4-12.3h1.2l5.4,12.3h-1.4L536.6,51.7z M536.1,50.6l-2.7-6.3l-2.7,6.3H536.1
			z"/>
		<path class="st8" d="M540.4,53.9l0.5-1c0.5,0.4,0.9,0.6,1.4,0.8c0.5,0.2,1,0.2,1.6,0.2c0.7,0,1.2-0.1,1.5-0.3
			c0.3-0.2,0.5-0.5,0.5-1c0-0.3-0.1-0.6-0.3-0.8c-0.2-0.2-0.6-0.4-1.1-0.5l-1.5-0.3c-0.7-0.2-1.3-0.4-1.7-0.9
			c-0.4-0.4-0.6-0.9-0.6-1.5c0-0.8,0.3-1.4,0.9-1.9S543,46,544,46c0.6,0,1.2,0.1,1.7,0.3s1,0.5,1.4,0.8l-0.5,1c-0.8-0.7-1.7-1-2.6-1
			c-0.6,0-1.1,0.1-1.4,0.4c-0.3,0.2-0.5,0.6-0.5,1c0,0.4,0.1,0.6,0.3,0.8c0.2,0.2,0.6,0.4,1,0.5l1.5,0.4c0.8,0.2,1.4,0.5,1.8,0.9
			c0.4,0.4,0.6,0.9,0.6,1.5c0,0.7-0.3,1.3-0.9,1.8s-1.4,0.7-2.5,0.7C542.4,55,541.2,54.6,540.4,53.9z"/>
		<path class="st8" d="M548.9,53.9l0.5-1c0.5,0.4,0.9,0.6,1.4,0.8c0.5,0.2,1,0.2,1.6,0.2c0.7,0,1.2-0.1,1.5-0.3
			c0.3-0.2,0.5-0.5,0.5-1c0-0.3-0.1-0.6-0.3-0.8c-0.2-0.2-0.6-0.4-1.1-0.5l-1.5-0.3c-0.7-0.2-1.3-0.4-1.7-0.9
			c-0.4-0.4-0.6-0.9-0.6-1.5c0-0.8,0.3-1.4,0.9-1.9s1.4-0.7,2.4-0.7c0.6,0,1.2,0.1,1.7,0.3c0.5,0.2,1,0.5,1.4,0.8l-0.5,1
			c-0.8-0.7-1.7-1-2.6-1c-0.6,0-1.1,0.1-1.4,0.4c-0.3,0.2-0.5,0.6-0.5,1c0,0.4,0.1,0.6,0.3,0.8c0.2,0.2,0.6,0.4,1,0.5l1.5,0.4
			c0.8,0.2,1.4,0.5,1.8,0.9c0.4,0.4,0.6,0.9,0.6,1.5c0,0.7-0.3,1.3-0.9,1.8c-0.6,0.4-1.4,0.7-2.5,0.7
			C550.9,55,549.8,54.6,548.9,53.9z"/>
		<path class="st8" d="M565.2,50.5h-6.4c0,1.1,0.3,1.9,0.8,2.5c0.5,0.6,1.2,0.8,2.2,0.8c1,0,1.9-0.3,2.8-1l0.5,1
			c-0.4,0.4-0.9,0.6-1.5,0.8c-0.6,0.2-1.2,0.3-1.8,0.3c-1.4,0-2.4-0.4-3.2-1.2c-0.8-0.8-1.2-1.9-1.2-3.3c0-0.9,0.2-1.7,0.5-2.3
			c0.3-0.7,0.8-1.2,1.4-1.6s1.3-0.6,2.1-0.6c1.1,0,2,0.4,2.7,1.1s1,1.8,1,3.1V50.5z M559.8,47.8c-0.5,0.4-0.7,1-0.9,1.8h5
			c-0.1-0.8-0.3-1.4-0.7-1.9c-0.4-0.4-1-0.6-1.7-0.6S560.3,47.3,559.8,47.8z"/>
		<path class="st8" d="M566.8,53.9l0.5-1c0.5,0.4,0.9,0.6,1.4,0.8c0.5,0.2,1,0.2,1.6,0.2c0.7,0,1.2-0.1,1.5-0.3
			c0.3-0.2,0.5-0.5,0.5-1c0-0.3-0.1-0.6-0.3-0.8c-0.2-0.2-0.6-0.4-1.1-0.5l-1.5-0.3c-0.7-0.2-1.3-0.4-1.7-0.9
			c-0.4-0.4-0.6-0.9-0.6-1.5c0-0.8,0.3-1.4,0.9-1.9s1.4-0.7,2.4-0.7c0.6,0,1.2,0.1,1.7,0.3c0.5,0.2,1,0.5,1.4,0.8l-0.5,1
			c-0.8-0.7-1.7-1-2.6-1c-0.6,0-1.1,0.1-1.4,0.4c-0.3,0.2-0.5,0.6-0.5,1c0,0.4,0.1,0.6,0.3,0.8c0.2,0.2,0.6,0.4,1,0.5l1.5,0.4
			c0.8,0.2,1.4,0.5,1.8,0.9c0.4,0.4,0.6,0.9,0.6,1.5c0,0.7-0.3,1.3-0.9,1.8c-0.6,0.4-1.4,0.7-2.5,0.7
			C568.8,55,567.7,54.6,566.8,53.9z"/>
		<path class="st8" d="M575.4,53.9l0.5-1c0.5,0.4,0.9,0.6,1.4,0.8c0.5,0.2,1,0.2,1.6,0.2c0.7,0,1.2-0.1,1.5-0.3
			c0.3-0.2,0.5-0.5,0.5-1c0-0.3-0.1-0.6-0.3-0.8c-0.2-0.2-0.6-0.4-1.1-0.5l-1.5-0.3c-0.7-0.2-1.3-0.4-1.7-0.9
			c-0.4-0.4-0.6-0.9-0.6-1.5c0-0.8,0.3-1.4,0.9-1.9S578,46,579,46c0.6,0,1.2,0.1,1.7,0.3s1,0.5,1.4,0.8l-0.5,1c-0.8-0.7-1.7-1-2.6-1
			c-0.6,0-1.1,0.1-1.4,0.4c-0.3,0.2-0.5,0.6-0.5,1c0,0.4,0.1,0.6,0.3,0.8c0.2,0.2,0.6,0.4,1,0.5l1.5,0.4c0.8,0.2,1.4,0.5,1.8,0.9
			c0.4,0.4,0.6,0.9,0.6,1.5c0,0.7-0.3,1.3-0.9,1.8s-1.4,0.7-2.5,0.7C577.4,55,576.2,54.6,575.4,53.9z"/>
		<path class="st8" d="M596.9,49.4v5.4h-1.4v-5.4c0-0.8-0.1-1.4-0.4-1.8c-0.3-0.4-0.7-0.6-1.4-0.6c-0.7,0-1.3,0.2-1.7,0.7
			c-0.4,0.5-0.6,1.2-0.6,2v4.9H590v-5.4c0-0.8-0.1-1.4-0.4-1.8s-0.7-0.6-1.4-0.6c-0.7,0-1.3,0.2-1.7,0.7c-0.4,0.5-0.6,1.2-0.6,2v4.9
			h-1.4v-6.2c0-0.9,0-1.7-0.1-2.4h1.3l0.1,1.5c0.2-0.6,0.6-1,1.1-1.3c0.5-0.3,1-0.4,1.7-0.4c0.7,0,1.3,0.1,1.7,0.4
			c0.4,0.3,0.8,0.7,1,1.3c0.3-0.5,0.7-0.9,1.2-1.2c0.5-0.3,1.1-0.5,1.7-0.5C596,46,596.9,47.2,596.9,49.4z"/>
		<path class="st8" d="M606.8,50.5h-6.4c0,1.1,0.3,1.9,0.8,2.5c0.5,0.6,1.2,0.8,2.2,0.8c1,0,1.9-0.3,2.8-1l0.5,1
			c-0.4,0.4-0.9,0.6-1.5,0.8c-0.6,0.2-1.2,0.3-1.8,0.3c-1.4,0-2.4-0.4-3.2-1.2c-0.8-0.8-1.2-1.9-1.2-3.3c0-0.9,0.2-1.7,0.5-2.3
			c0.3-0.7,0.8-1.2,1.4-1.6s1.3-0.6,2.1-0.6c1.1,0,2,0.4,2.7,1.1s1,1.8,1,3.1V50.5z M601.4,47.8c-0.5,0.4-0.7,1-0.9,1.8h5
			c-0.1-0.8-0.3-1.4-0.7-1.9c-0.4-0.4-1-0.6-1.7-0.6S601.8,47.3,601.4,47.8z"/>
		<path class="st8" d="M616.4,49.4v5.4H615v-5.4c0-0.8-0.2-1.4-0.5-1.8s-0.8-0.6-1.5-0.6c-0.8,0-1.4,0.2-1.9,0.7
			c-0.5,0.5-0.7,1.2-0.7,2v5h-1.4v-6.2c0-0.9,0-1.7-0.1-2.4h1.3l0.1,1.5c0.3-0.6,0.7-1,1.2-1.3c0.5-0.3,1.1-0.5,1.8-0.5
			C615.3,46,616.4,47.2,616.4,49.4z"/>
		<path class="st8" d="M620.9,47.3v4.7c0,0.6,0.1,1.1,0.4,1.4c0.3,0.3,0.6,0.4,1.1,0.4c0.3,0,0.6-0.1,0.9-0.2v1.2
			c-0.4,0.1-0.8,0.2-1.2,0.2c-0.8,0-1.5-0.2-1.9-0.7s-0.7-1.2-0.7-2.1v-4.9h-1.7v-1.1h1.7V44l1.4-0.5v2.7h2.5v1.1H620.9z"/>
	</g>
	<rect x="505.7" y="204.3" class="st7" width="137.7" height="40.1"/>
	<g class="st6">
		<path class="st8" d="M543,219.1h-1.5L540,215c-0.2-0.5-0.4-0.8-0.8-1s-0.8-0.3-1.4-0.3h-3.1v5.4h-1.4v-12.3h4.9
			c1.3,0,2.3,0.3,3,0.9c0.7,0.6,1.1,1.4,1.1,2.5c0,0.8-0.2,1.5-0.6,2c-0.4,0.5-1,0.9-1.8,1.2c0.4,0.1,0.7,0.2,0.9,0.5
			c0.3,0.2,0.5,0.6,0.6,1.1L543,219.1z M538.1,212.6c1.9,0,2.8-0.8,2.8-2.3c0-0.8-0.2-1.3-0.7-1.7s-1.2-0.6-2.1-0.6h-3.4v4.6H538.1z
			"/>
		<path class="st8" d="M552.4,214.7H546c0,1.1,0.3,1.9,0.8,2.5c0.5,0.6,1.2,0.8,2.2,0.8c1,0,1.9-0.3,2.8-1l0.5,1
			c-0.4,0.4-0.9,0.6-1.5,0.8c-0.6,0.2-1.2,0.3-1.8,0.3c-1.4,0-2.4-0.4-3.2-1.2c-0.8-0.8-1.2-1.9-1.2-3.3c0-0.9,0.2-1.7,0.5-2.3
			c0.3-0.7,0.8-1.2,1.4-1.6c0.6-0.4,1.3-0.6,2.1-0.6c1.1,0,2,0.4,2.7,1.1s1,1.8,1,3.1V214.7z M547,212c-0.5,0.4-0.7,1-0.9,1.8h5
			c-0.1-0.8-0.3-1.4-0.7-1.9c-0.4-0.4-1-0.6-1.7-0.6S547.4,211.5,547,212z"/>
		<path class="st8" d="M562.1,210.4v8.7h-1.4v-1.6c-0.3,0.5-0.6,1-1.1,1.2c-0.5,0.3-1.1,0.4-1.8,0.4c-0.8,0-1.4-0.2-2-0.6
			c-0.6-0.4-1-0.9-1.3-1.6c-0.3-0.7-0.5-1.5-0.5-2.3c0-0.9,0.2-1.7,0.5-2.4c0.3-0.7,0.8-1.2,1.4-1.6c0.6-0.4,1.2-0.6,2-0.6
			c0.7,0,1.3,0.1,1.8,0.4c0.5,0.3,0.9,0.7,1.2,1.3v-1.5H562.1z M560.1,217.2c0.5-0.6,0.7-1.4,0.7-2.5s-0.2-1.9-0.7-2.5
			c-0.5-0.6-1.1-0.9-2-0.9c-0.8,0-1.5,0.3-2,0.9c-0.5,0.6-0.7,1.4-0.7,2.5s0.2,1.9,0.7,2.4s1.1,0.9,2,0.9
			C558.9,218,559.6,217.8,560.1,217.2z"/>
		<path class="st8" d="M572.5,206.4v12.7h-1.4v-1.6c-0.3,0.5-0.6,1-1.1,1.2s-1.1,0.4-1.8,0.4c-0.8,0-1.4-0.2-2-0.6
			c-0.6-0.4-1-0.9-1.4-1.6s-0.5-1.5-0.5-2.4s0.2-1.7,0.5-2.3c0.3-0.7,0.8-1.2,1.4-1.6c0.6-0.4,1.3-0.6,2-0.6c0.7,0,1.3,0.1,1.8,0.4
			c0.5,0.3,0.9,0.7,1.1,1.2v-5.5H572.5z M570.4,217.2c0.5-0.6,0.7-1.4,0.7-2.5c0-1.1-0.2-1.9-0.7-2.5c-0.5-0.6-1.1-0.9-2-0.9
			s-1.5,0.3-2,0.9c-0.5,0.6-0.7,1.4-0.7,2.4c0,1.1,0.2,1.9,0.7,2.5c0.5,0.6,1.1,0.9,2,0.9S569.9,217.8,570.4,217.2z"/>
		<path class="st8" d="M576.7,206.8v1.6H575v-1.6H576.7z M575.2,210.4h1.4v8.7h-1.4V210.4z"/>
		<path class="st8" d="M586.7,213.6v5.4h-1.4v-5.4c0-0.8-0.2-1.4-0.5-1.8s-0.8-0.6-1.5-0.6c-0.8,0-1.4,0.2-1.9,0.7
			c-0.5,0.5-0.7,1.2-0.7,2v5h-1.4v-6.2c0-0.9,0-1.7-0.1-2.4h1.3l0.1,1.5c0.3-0.6,0.7-1,1.2-1.3c0.5-0.3,1.1-0.5,1.8-0.5
			C585.7,210.2,586.7,211.4,586.7,213.6z"/>
		<path class="st8" d="M596.6,214.7h-6.4c0,1.1,0.3,1.9,0.8,2.5c0.5,0.6,1.2,0.8,2.2,0.8c1,0,1.9-0.3,2.8-1l0.5,1
			c-0.4,0.4-0.9,0.6-1.5,0.8c-0.6,0.2-1.2,0.3-1.8,0.3c-1.4,0-2.4-0.4-3.2-1.2c-0.8-0.8-1.2-1.9-1.2-3.3c0-0.9,0.2-1.7,0.5-2.3
			c0.3-0.7,0.8-1.2,1.4-1.6c0.6-0.4,1.3-0.6,2.1-0.6c1.1,0,2,0.4,2.7,1.1c0.7,0.8,1,1.8,1,3.1V214.7z M591.1,212
			c-0.5,0.4-0.7,1-0.9,1.8h5c-0.1-0.8-0.3-1.4-0.7-1.9c-0.4-0.4-1-0.6-1.7-0.6C592.2,211.3,591.6,211.5,591.1,212z"/>
		<path class="st8" d="M598.2,218.1l0.5-1c0.5,0.4,0.9,0.6,1.4,0.8c0.5,0.2,1,0.2,1.6,0.2c0.7,0,1.2-0.1,1.5-0.3
			c0.3-0.2,0.5-0.5,0.5-1c0-0.3-0.1-0.6-0.3-0.8c-0.2-0.2-0.6-0.4-1.1-0.5l-1.5-0.3c-0.7-0.2-1.3-0.4-1.7-0.9
			c-0.4-0.4-0.6-0.9-0.6-1.5c0-0.8,0.3-1.4,0.9-1.9c0.6-0.5,1.4-0.7,2.4-0.7c0.6,0,1.2,0.1,1.7,0.3s1,0.5,1.4,0.8l-0.5,1
			c-0.8-0.7-1.7-1-2.6-1c-0.6,0-1.1,0.1-1.4,0.4c-0.3,0.2-0.5,0.6-0.5,1c0,0.4,0.1,0.6,0.3,0.8c0.2,0.2,0.6,0.4,1,0.5l1.5,0.4
			c0.8,0.2,1.4,0.5,1.8,0.9s0.6,0.9,0.6,1.5c0,0.7-0.3,1.3-0.9,1.8c-0.6,0.4-1.4,0.7-2.5,0.7C600.2,219.2,599,218.8,598.2,218.1z"/>
		<path class="st8" d="M606.7,218.1l0.5-1c0.5,0.4,0.9,0.6,1.4,0.8c0.5,0.2,1,0.2,1.6,0.2c0.7,0,1.2-0.1,1.5-0.3s0.5-0.5,0.5-1
			c0-0.3-0.1-0.6-0.3-0.8c-0.2-0.2-0.6-0.4-1.1-0.5l-1.5-0.3c-0.7-0.2-1.3-0.4-1.7-0.9s-0.6-0.9-0.6-1.5c0-0.8,0.3-1.4,0.9-1.9
			s1.4-0.7,2.4-0.7c0.6,0,1.2,0.1,1.7,0.3s1,0.5,1.4,0.8l-0.5,1c-0.8-0.7-1.7-1-2.6-1c-0.6,0-1.1,0.1-1.4,0.4
			c-0.3,0.2-0.5,0.6-0.5,1c0,0.4,0.1,0.6,0.3,0.8c0.2,0.2,0.6,0.4,1,0.5l1.5,0.4c0.8,0.2,1.4,0.5,1.8,0.9c0.4,0.4,0.6,0.9,0.6,1.5
			c0,0.7-0.3,1.3-0.9,1.8s-1.4,0.7-2.5,0.7C608.7,219.2,607.5,218.8,606.7,218.1z"/>
	</g>
	<g class="st6">
		<path class="st8" d="M534.1,236.6h-6.4l-1.4,3.2h-1.5l5.4-12.3h1.2l5.4,12.3h-1.4L534.1,236.6z M533.6,235.5l-2.7-6.3l-2.7,6.3
			H533.6z"/>
		<path class="st8" d="M537.9,238.8l0.5-1c0.5,0.4,0.9,0.6,1.4,0.8c0.5,0.2,1,0.2,1.6,0.2c0.7,0,1.2-0.1,1.5-0.3
			c0.3-0.2,0.5-0.5,0.5-1c0-0.3-0.1-0.6-0.3-0.8c-0.2-0.2-0.6-0.4-1.1-0.5l-1.5-0.3c-0.7-0.2-1.3-0.4-1.7-0.9
			c-0.4-0.4-0.6-0.9-0.6-1.5c0-0.8,0.3-1.4,0.9-1.9s1.4-0.7,2.4-0.7c0.6,0,1.2,0.1,1.7,0.3c0.5,0.2,1,0.5,1.4,0.8l-0.5,1
			c-0.8-0.7-1.7-1-2.6-1c-0.6,0-1.1,0.1-1.4,0.4c-0.3,0.2-0.5,0.6-0.5,1c0,0.4,0.1,0.6,0.3,0.8c0.2,0.2,0.6,0.4,1,0.5l1.5,0.4
			c0.8,0.2,1.4,0.5,1.8,0.9c0.4,0.4,0.6,0.9,0.6,1.5c0,0.7-0.3,1.3-0.9,1.8c-0.6,0.4-1.4,0.7-2.5,0.7
			C539.9,239.9,538.8,239.5,537.9,238.8z"/>
		<path class="st8" d="M546.4,238.8l0.5-1c0.5,0.4,0.9,0.6,1.4,0.8c0.5,0.2,1,0.2,1.6,0.2c0.7,0,1.2-0.1,1.5-0.3
			c0.3-0.2,0.5-0.5,0.5-1c0-0.3-0.1-0.6-0.3-0.8c-0.2-0.2-0.6-0.4-1.1-0.5l-1.5-0.3c-0.7-0.2-1.3-0.4-1.7-0.9
			c-0.4-0.4-0.6-0.9-0.6-1.5c0-0.8,0.3-1.4,0.9-1.9s1.4-0.7,2.4-0.7c0.6,0,1.2,0.1,1.7,0.3s1,0.5,1.4,0.8l-0.5,1
			c-0.8-0.7-1.7-1-2.6-1c-0.6,0-1.1,0.1-1.4,0.4c-0.3,0.2-0.5,0.6-0.5,1c0,0.4,0.1,0.6,0.3,0.8c0.2,0.2,0.6,0.4,1,0.5l1.5,0.4
			c0.8,0.2,1.4,0.5,1.8,0.9c0.4,0.4,0.6,0.9,0.6,1.5c0,0.7-0.3,1.3-0.9,1.8s-1.4,0.7-2.5,0.7C548.4,239.9,547.3,239.5,546.4,238.8z"
			/>
		<path class="st8" d="M562.8,235.4h-6.4c0,1.1,0.3,1.9,0.8,2.5c0.5,0.6,1.2,0.8,2.2,0.8c1,0,1.9-0.3,2.8-1l0.5,1
			c-0.4,0.4-0.9,0.6-1.5,0.8c-0.6,0.2-1.2,0.3-1.8,0.3c-1.4,0-2.4-0.4-3.2-1.2c-0.8-0.8-1.2-1.9-1.2-3.3c0-0.9,0.2-1.7,0.5-2.3
			c0.3-0.7,0.8-1.2,1.4-1.6c0.6-0.4,1.3-0.6,2.1-0.6c1.1,0,2,0.4,2.7,1.1c0.7,0.8,1,1.8,1,3.1V235.4z M557.3,232.7
			c-0.5,0.4-0.7,1-0.9,1.8h5c-0.1-0.8-0.3-1.4-0.7-1.9c-0.4-0.4-1-0.6-1.7-0.6C558.4,232,557.8,232.2,557.3,232.7z"/>
		<path class="st8" d="M564.3,238.8l0.5-1c0.5,0.4,0.9,0.6,1.4,0.8c0.5,0.2,1,0.2,1.6,0.2c0.7,0,1.2-0.1,1.5-0.3
			c0.3-0.2,0.5-0.5,0.5-1c0-0.3-0.1-0.6-0.3-0.8c-0.2-0.2-0.6-0.4-1.1-0.5l-1.5-0.3c-0.7-0.2-1.3-0.4-1.7-0.9
			c-0.4-0.4-0.6-0.9-0.6-1.5c0-0.8,0.3-1.4,0.9-1.9s1.4-0.7,2.4-0.7c0.6,0,1.2,0.1,1.7,0.3s1,0.5,1.4,0.8l-0.5,1
			c-0.8-0.7-1.7-1-2.6-1c-0.6,0-1.1,0.1-1.4,0.4c-0.3,0.2-0.5,0.6-0.5,1c0,0.4,0.1,0.6,0.3,0.8c0.2,0.2,0.6,0.4,1,0.5l1.5,0.4
			c0.8,0.2,1.4,0.5,1.8,0.9c0.4,0.4,0.6,0.9,0.6,1.5c0,0.7-0.3,1.3-0.9,1.8s-1.4,0.7-2.5,0.7C566.3,239.9,565.2,239.5,564.3,238.8z"
			/>
		<path class="st8" d="M572.9,238.8l0.5-1c0.5,0.4,0.9,0.6,1.4,0.8c0.5,0.2,1,0.2,1.6,0.2c0.7,0,1.2-0.1,1.5-0.3
			c0.3-0.2,0.5-0.5,0.5-1c0-0.3-0.1-0.6-0.3-0.8c-0.2-0.2-0.6-0.4-1.1-0.5l-1.5-0.3c-0.7-0.2-1.3-0.4-1.7-0.9
			c-0.4-0.4-0.6-0.9-0.6-1.5c0-0.8,0.3-1.4,0.9-1.9s1.4-0.7,2.4-0.7c0.6,0,1.2,0.1,1.7,0.3c0.5,0.2,1,0.5,1.4,0.8l-0.5,1
			c-0.8-0.7-1.7-1-2.6-1c-0.6,0-1.1,0.1-1.4,0.4c-0.3,0.2-0.5,0.6-0.5,1c0,0.4,0.1,0.6,0.3,0.8c0.2,0.2,0.6,0.4,1,0.5l1.5,0.4
			c0.8,0.2,1.4,0.5,1.8,0.9c0.4,0.4,0.6,0.9,0.6,1.5c0,0.7-0.3,1.3-0.9,1.8c-0.6,0.4-1.4,0.7-2.5,0.7
			C574.9,239.9,573.7,239.5,572.9,238.8z"/>
		<path class="st8" d="M594.4,234.3v5.4H593v-5.4c0-0.8-0.1-1.4-0.4-1.8s-0.7-0.6-1.4-0.6c-0.7,0-1.3,0.2-1.7,0.7
			c-0.4,0.5-0.6,1.2-0.6,2v4.9h-1.4v-5.4c0-0.8-0.1-1.4-0.4-1.8c-0.3-0.4-0.7-0.6-1.4-0.6c-0.7,0-1.3,0.2-1.7,0.7
			c-0.4,0.5-0.6,1.2-0.6,2v4.9H582v-6.2c0-0.9,0-1.7-0.1-2.4h1.3l0.1,1.5c0.2-0.6,0.6-1,1.1-1.3c0.5-0.3,1-0.4,1.7-0.4
			c0.7,0,1.2,0.1,1.7,0.4c0.4,0.3,0.8,0.7,1,1.3c0.3-0.5,0.7-0.9,1.2-1.2c0.5-0.3,1.1-0.5,1.7-0.5
			C593.5,230.9,594.4,232.1,594.4,234.3z"/>
		<path class="st8" d="M604.3,235.4H598c0,1.1,0.3,1.9,0.8,2.5c0.5,0.6,1.2,0.8,2.2,0.8c1,0,1.9-0.3,2.8-1l0.5,1
			c-0.4,0.4-0.9,0.6-1.5,0.8c-0.6,0.2-1.2,0.3-1.8,0.3c-1.4,0-2.4-0.4-3.2-1.2c-0.8-0.8-1.2-1.9-1.2-3.3c0-0.9,0.2-1.7,0.5-2.3
			c0.3-0.7,0.8-1.2,1.4-1.6c0.6-0.4,1.3-0.6,2.1-0.6c1.1,0,2,0.4,2.7,1.1c0.7,0.8,1,1.8,1,3.1V235.4z M598.9,232.7
			c-0.5,0.4-0.7,1-0.9,1.8h5c-0.1-0.8-0.3-1.4-0.7-1.9c-0.4-0.4-1-0.6-1.7-0.6C599.9,232,599.4,232.2,598.9,232.7z"/>
		<path class="st8" d="M613.9,234.3v5.4h-1.4v-5.4c0-0.8-0.2-1.4-0.5-1.8s-0.8-0.6-1.5-0.6c-0.8,0-1.4,0.2-1.9,0.7
			c-0.5,0.5-0.7,1.2-0.7,2v5h-1.4v-6.2c0-0.9,0-1.7-0.1-2.4h1.3l0.1,1.5c0.3-0.6,0.7-1,1.2-1.3c0.5-0.3,1.1-0.5,1.8-0.5
			C612.9,230.9,613.9,232.1,613.9,234.3z"/>
		<path class="st8" d="M618.4,232.2v4.7c0,0.6,0.1,1.1,0.4,1.4c0.3,0.3,0.6,0.4,1.1,0.4c0.3,0,0.6-0.1,0.9-0.2v1.2
			c-0.4,0.1-0.8,0.2-1.2,0.2c-0.8,0-1.5-0.2-1.9-0.7s-0.7-1.2-0.7-2.1v-4.9h-1.7v-1.1h1.7v-2.2l1.4-0.5v2.7h2.5v1.1H618.4z"/>
	</g>
	<rect x="356.2" y="19.5" class="st7" width="125.6" height="40.1"/>
	<g class="st6">
		<path class="st8" d="M372.6,21.9h4.9c1.3,0,2.2,0.3,3,0.9s1.1,1.4,1.1,2.5s-0.4,1.9-1.1,2.5c-0.7,0.6-1.7,0.9-2.9,0.9H374v5.4
			h-1.4V21.9z M377.3,27.6c0.9,0,1.6-0.2,2-0.6c0.5-0.4,0.7-1,0.7-1.7s-0.2-1.3-0.7-1.7s-1.1-0.6-2-0.6H374v4.5H377.3z"/>
		<path class="st8" d="M391,25.5v8.7h-1.4v-1.6c-0.3,0.5-0.6,1-1.1,1.2c-0.5,0.3-1.1,0.4-1.8,0.4c-0.8,0-1.4-0.2-2-0.6
			c-0.6-0.4-1-0.9-1.3-1.6c-0.3-0.7-0.5-1.5-0.5-2.3c0-0.9,0.2-1.7,0.5-2.4c0.3-0.7,0.8-1.2,1.4-1.6c0.6-0.4,1.2-0.6,2-0.6
			c0.7,0,1.3,0.1,1.8,0.4c0.5,0.3,0.9,0.7,1.2,1.3v-1.5H391z M388.9,32.3c0.5-0.6,0.7-1.4,0.7-2.5s-0.2-1.9-0.7-2.5
			c-0.5-0.6-1.1-0.9-2-0.9s-1.5,0.3-2,0.9s-0.7,1.4-0.7,2.5s0.2,1.9,0.7,2.4s1.1,0.9,2,0.9C387.8,33.2,388.4,32.9,388.9,32.3z"/>
		<path class="st8" d="M398.5,25.4l0,1.3c-0.3-0.1-0.6-0.1-0.9-0.1c-0.8,0-1.5,0.3-1.9,0.8s-0.6,1.2-0.6,1.9v4.9h-1.4V28
			c0-0.9,0-1.7-0.1-2.4h1.3l0.1,1.6c0.2-0.6,0.6-1,1-1.3c0.5-0.3,1-0.5,1.7-0.5C398,25.3,398.2,25.4,398.5,25.4z"/>
		<path class="st8" d="M402.4,26.6v4.7c0,0.6,0.1,1.1,0.4,1.4c0.3,0.3,0.6,0.4,1.1,0.4c0.3,0,0.6-0.1,0.9-0.2v1.2
			c-0.4,0.1-0.8,0.2-1.2,0.2c-0.8,0-1.5-0.2-1.9-0.7s-0.7-1.2-0.7-2.1v-4.9h-1.7v-1.1h1.7v-2.2l1.4-0.5v2.7h2.5v1.1H402.4z"/>
		<path class="st8" d="M414,28.8v5.4h-1.4v-5.4c0-0.8-0.2-1.4-0.5-1.8s-0.8-0.6-1.5-0.6c-0.8,0-1.4,0.2-1.9,0.7
			c-0.5,0.5-0.7,1.2-0.7,2v5h-1.4V28c0-0.9,0-1.7-0.1-2.4h1.3l0.1,1.5c0.3-0.6,0.7-1,1.2-1.3c0.5-0.3,1.1-0.5,1.8-0.5
			C413,25.3,414,26.5,414,28.8z"/>
		<path class="st8" d="M423.9,29.8h-6.4c0,1.1,0.3,1.9,0.8,2.5c0.5,0.6,1.2,0.8,2.2,0.8c1,0,1.9-0.3,2.8-1l0.5,1
			c-0.4,0.4-0.9,0.6-1.5,0.8c-0.6,0.2-1.2,0.3-1.8,0.3c-1.4,0-2.4-0.4-3.2-1.2c-0.8-0.8-1.2-1.9-1.2-3.3c0-0.9,0.2-1.7,0.5-2.3
			c0.3-0.7,0.8-1.2,1.4-1.6s1.3-0.6,2.1-0.6c1.1,0,2,0.4,2.7,1.1s1,1.8,1,3.1V29.8z M418.5,27.1c-0.5,0.4-0.7,1-0.9,1.8h5
			c-0.1-0.8-0.3-1.4-0.7-1.9c-0.4-0.4-1-0.6-1.7-0.6S418.9,26.6,418.5,27.1z"/>
		<path class="st8" d="M430.8,25.4l0,1.3c-0.3-0.1-0.6-0.1-0.9-0.1c-0.8,0-1.5,0.3-1.9,0.8s-0.6,1.2-0.6,1.9v4.9H426V28
			c0-0.9,0-1.7-0.1-2.4h1.3l0.1,1.6c0.2-0.6,0.6-1,1-1.3c0.5-0.3,1-0.5,1.7-0.5C430.3,25.3,430.6,25.4,430.8,25.4z"/>
		<path class="st8" d="M431.6,33.2l0.5-1c0.5,0.4,0.9,0.6,1.4,0.8c0.5,0.2,1,0.2,1.6,0.2c0.7,0,1.2-0.1,1.5-0.3
			c0.3-0.2,0.5-0.5,0.5-1c0-0.3-0.1-0.6-0.3-0.8c-0.2-0.2-0.6-0.4-1.1-0.5l-1.5-0.3c-0.7-0.2-1.3-0.4-1.7-0.9
			c-0.4-0.4-0.6-0.9-0.6-1.5c0-0.8,0.3-1.4,0.9-1.9s1.4-0.7,2.4-0.7c0.6,0,1.2,0.1,1.7,0.3s1,0.5,1.4,0.8l-0.5,1
			c-0.8-0.7-1.7-1-2.6-1c-0.6,0-1.1,0.1-1.4,0.4c-0.3,0.2-0.5,0.6-0.5,1c0,0.4,0.1,0.6,0.3,0.8c0.2,0.2,0.6,0.4,1,0.5l1.5,0.4
			c0.8,0.2,1.4,0.5,1.8,0.9c0.4,0.4,0.6,0.9,0.6,1.5c0,0.7-0.3,1.3-0.9,1.8s-1.4,0.7-2.5,0.7C433.6,34.3,432.5,34,431.6,33.2z"/>
		<path class="st8" d="M448.1,28.8v5.4h-1.4v-5.4c0-0.8-0.2-1.4-0.5-1.8s-0.8-0.6-1.5-0.6c-0.8,0-1.4,0.2-1.9,0.7
			c-0.5,0.5-0.7,1.2-0.7,2v5h-1.4V21.5h1.4V27c0.3-0.5,0.7-0.9,1.2-1.2c0.5-0.3,1.1-0.4,1.7-0.4C447.1,25.3,448.1,26.5,448.1,28.8z"
			/>
		<path class="st8" d="M452.3,21.9v1.6h-1.7v-1.6H452.3z M450.8,25.5h1.4v8.7h-1.4V25.5z"/>
		<path class="st8" d="M461.2,25.9c0.6,0.4,1,0.9,1.4,1.6c0.3,0.7,0.5,1.5,0.5,2.4c0,0.9-0.2,1.7-0.5,2.3c-0.3,0.7-0.8,1.2-1.4,1.6
			c-0.6,0.4-1.3,0.6-2,0.6c-0.7,0-1.3-0.1-1.8-0.4c-0.5-0.3-0.9-0.7-1.2-1.3v5.3h-1.4V28c0-0.9,0-1.7-0.1-2.4h1.3l0.1,1.7
			c0.2-0.6,0.6-1.1,1.1-1.4c0.5-0.3,1.1-0.5,1.9-0.5C460,25.3,460.6,25.5,461.2,25.9z M460.9,32.3c0.5-0.6,0.7-1.4,0.7-2.4
			s-0.2-1.9-0.7-2.5c-0.5-0.6-1.1-0.9-2-0.9c-0.9,0-1.5,0.3-2,0.9c-0.5,0.6-0.7,1.4-0.7,2.5s0.2,1.9,0.7,2.5c0.5,0.6,1.1,0.9,2,0.9
			C459.8,33.2,460.4,32.9,460.9,32.3z"/>
	</g>
	<g class="st6">
		<path class="st8" d="M362.1,42.6h7.7v1.2h-6.4v4.3h6v1.2h-6v4.5h6.4v1.2h-7.7V42.6z"/>
		<path class="st8" d="M371.5,53.9l0.5-1c0.5,0.4,0.9,0.6,1.4,0.8c0.5,0.2,1,0.2,1.6,0.2c0.7,0,1.2-0.1,1.5-0.3
			c0.3-0.2,0.5-0.5,0.5-1c0-0.3-0.1-0.6-0.3-0.8c-0.2-0.2-0.6-0.4-1.1-0.5l-1.5-0.3c-0.7-0.2-1.3-0.4-1.7-0.9
			c-0.4-0.4-0.6-0.9-0.6-1.5c0-0.8,0.3-1.4,0.9-1.9s1.4-0.7,2.4-0.7c0.6,0,1.2,0.1,1.7,0.3c0.5,0.2,1,0.5,1.4,0.8l-0.5,1
			c-0.8-0.7-1.7-1-2.6-1c-0.6,0-1.1,0.1-1.4,0.4c-0.3,0.2-0.5,0.6-0.5,1c0,0.4,0.1,0.6,0.3,0.8c0.2,0.2,0.6,0.4,1,0.5l1.5,0.4
			c0.8,0.2,1.4,0.5,1.8,0.9c0.4,0.4,0.6,0.9,0.6,1.5c0,0.7-0.3,1.3-0.9,1.8c-0.6,0.4-1.4,0.7-2.5,0.7
			C373.5,55,372.3,54.7,371.5,53.9z"/>
		<path class="st8" d="M382.3,47.3v4.7c0,0.6,0.1,1.1,0.4,1.4c0.3,0.3,0.6,0.4,1.1,0.4c0.3,0,0.6-0.1,0.9-0.2v1.2
			c-0.4,0.1-0.8,0.2-1.2,0.2c-0.8,0-1.5-0.2-1.9-0.7s-0.7-1.2-0.7-2.1v-4.9h-1.7v-1.1h1.7V44l1.4-0.5v2.7h2.5v1.1H382.3z"/>
		<path class="st8" d="M394.1,46.2v8.7h-1.4v-1.6c-0.3,0.5-0.6,1-1.1,1.2s-1.1,0.4-1.8,0.4c-0.8,0-1.4-0.2-2-0.6
			c-0.6-0.4-1-0.9-1.3-1.6c-0.3-0.7-0.5-1.5-0.5-2.3c0-0.9,0.2-1.7,0.5-2.4s0.8-1.2,1.4-1.6c0.6-0.4,1.2-0.6,2-0.6
			c0.7,0,1.3,0.1,1.8,0.4c0.5,0.3,0.9,0.7,1.2,1.3v-1.5H394.1z M392.1,53c0.5-0.6,0.7-1.4,0.7-2.5s-0.2-1.9-0.7-2.5
			c-0.5-0.6-1.1-0.9-2-0.9c-0.8,0-1.5,0.3-2,0.9c-0.5,0.6-0.7,1.4-0.7,2.5s0.2,1.9,0.7,2.4c0.5,0.6,1.1,0.9,2,0.9
			C390.9,53.9,391.6,53.6,392.1,53z"/>
		<path class="st8" d="M403.2,46.6c0.6,0.4,1,0.9,1.4,1.6c0.3,0.7,0.5,1.5,0.5,2.3s-0.2,1.7-0.5,2.4s-0.8,1.2-1.4,1.6
			c-0.6,0.4-1.3,0.6-2,0.6c-0.7,0-1.3-0.1-1.8-0.4c-0.5-0.3-0.9-0.7-1.2-1.3v1.6h-1.4V42.2h1.4v5.5c0.3-0.6,0.6-1,1.1-1.3
			c0.5-0.3,1.1-0.4,1.8-0.4C401.9,46,402.6,46.2,403.2,46.6z M402.9,53c0.5-0.6,0.7-1.4,0.7-2.5c0-1-0.2-1.9-0.7-2.4
			c-0.5-0.6-1.1-0.9-2-0.9c-0.9,0-1.5,0.3-2,0.9c-0.5,0.6-0.7,1.4-0.7,2.5s0.2,1.9,0.7,2.5c0.5,0.6,1.1,0.9,2,0.9
			C401.7,53.9,402.4,53.6,402.9,53z"/>
		<path class="st8" d="M407.2,42.2h1.4v12.7h-1.4V42.2z"/>
		<path class="st8" d="M412.8,42.6v1.6h-1.7v-1.6H412.8z M411.3,46.2h1.4v8.7h-1.4V46.2z"/>
		<path class="st8" d="M414.8,53.9l0.5-1c0.5,0.4,0.9,0.6,1.4,0.8c0.5,0.2,1,0.2,1.6,0.2c0.7,0,1.2-0.1,1.5-0.3
			c0.3-0.2,0.5-0.5,0.5-1c0-0.3-0.1-0.6-0.3-0.8c-0.2-0.2-0.6-0.4-1.1-0.5l-1.5-0.3c-0.7-0.2-1.3-0.4-1.7-0.9
			c-0.4-0.4-0.6-0.9-0.6-1.5c0-0.8,0.3-1.4,0.9-1.9s1.4-0.7,2.4-0.7c0.6,0,1.2,0.1,1.7,0.3s1,0.5,1.4,0.8l-0.5,1
			c-0.8-0.7-1.7-1-2.6-1c-0.6,0-1.1,0.1-1.4,0.4c-0.3,0.2-0.5,0.6-0.5,1c0,0.4,0.1,0.6,0.3,0.8c0.2,0.2,0.6,0.4,1,0.5l1.5,0.4
			c0.8,0.2,1.4,0.5,1.8,0.9c0.4,0.4,0.6,0.9,0.6,1.5c0,0.7-0.3,1.3-0.9,1.8s-1.4,0.7-2.5,0.7C416.8,55,415.7,54.7,414.8,53.9z"/>
		<path class="st8" d="M431.3,49.5v5.4h-1.4v-5.4c0-0.8-0.2-1.4-0.5-1.8s-0.8-0.6-1.5-0.6c-0.8,0-1.4,0.2-1.9,0.7
			c-0.5,0.5-0.7,1.2-0.7,2v5h-1.4V42.2h1.4v5.4c0.3-0.5,0.7-0.9,1.2-1.2c0.5-0.3,1.1-0.4,1.7-0.4C430.3,46,431.3,47.2,431.3,49.5z"
			/>
		<path class="st8" d="M446.4,49.5v5.4H445v-5.4c0-0.8-0.1-1.4-0.4-1.8c-0.3-0.4-0.7-0.6-1.4-0.6c-0.7,0-1.3,0.2-1.7,0.7
			c-0.4,0.5-0.6,1.2-0.6,2v4.9h-1.4v-5.4c0-0.8-0.1-1.4-0.4-1.8s-0.7-0.6-1.4-0.6c-0.7,0-1.3,0.2-1.7,0.7c-0.4,0.5-0.6,1.2-0.6,2
			v4.9H434v-6.2c0-0.9,0-1.7-0.1-2.4h1.3l0.1,1.5c0.2-0.6,0.6-1,1.1-1.3c0.5-0.3,1-0.4,1.7-0.4c0.7,0,1.3,0.1,1.7,0.4
			c0.4,0.3,0.8,0.7,1,1.3c0.3-0.5,0.7-0.9,1.2-1.2c0.5-0.3,1.1-0.5,1.7-0.5C445.5,46,446.4,47.2,446.4,49.5z"/>
		<path class="st8" d="M456.3,50.5H450c0,1.1,0.3,1.9,0.8,2.5c0.5,0.6,1.2,0.8,2.2,0.8c1,0,1.9-0.3,2.8-1l0.5,1
			c-0.4,0.4-0.9,0.6-1.5,0.8c-0.6,0.2-1.2,0.3-1.8,0.3c-1.4,0-2.4-0.4-3.2-1.2c-0.8-0.8-1.2-1.9-1.2-3.3c0-0.9,0.2-1.7,0.5-2.3
			c0.3-0.7,0.8-1.2,1.4-1.6c0.6-0.4,1.3-0.6,2.1-0.6c1.1,0,2,0.4,2.7,1.1c0.7,0.8,1,1.8,1,3.1V50.5z M450.9,47.8
			c-0.5,0.4-0.7,1-0.9,1.8h5c-0.1-0.8-0.3-1.4-0.7-1.9c-0.4-0.4-1-0.6-1.7-0.6C452,47.1,451.4,47.3,450.9,47.8z"/>
		<path class="st8" d="M465.9,49.5v5.4h-1.4v-5.4c0-0.8-0.2-1.4-0.5-1.8s-0.8-0.6-1.5-0.6c-0.8,0-1.4,0.2-1.9,0.7
			c-0.5,0.5-0.7,1.2-0.7,2v5h-1.4v-6.2c0-0.9,0-1.7-0.1-2.4h1.3l0.1,1.5c0.3-0.6,0.7-1,1.2-1.3c0.5-0.3,1.1-0.5,1.8-0.5
			C464.9,46,465.9,47.2,465.9,49.5z"/>
		<path class="st8" d="M470.4,47.3v4.7c0,0.6,0.1,1.1,0.4,1.4c0.3,0.3,0.6,0.4,1.1,0.4c0.3,0,0.6-0.1,0.9-0.2v1.2
			c-0.4,0.1-0.8,0.2-1.2,0.2c-0.8,0-1.5-0.2-1.9-0.7s-0.7-1.2-0.7-2.1v-4.9h-1.7v-1.1h1.7V44l1.4-0.5v2.7h2.5v1.1H470.4z"/>
	</g>
	<rect x="350.7" y="204.4" class="st7" width="136.7" height="40.1"/>
	<g class="st6">
		<path class="st8" d="M379.7,206.8h7.6v1.2h-6.2v4.3h5.8v1.2h-5.8v5.6h-1.4V206.8z"/>
		<path class="st8" d="M396.3,214.7h-6.4c0,1.1,0.3,1.9,0.8,2.5c0.5,0.6,1.2,0.8,2.2,0.8c1,0,1.9-0.3,2.8-1l0.5,1
			c-0.4,0.4-0.9,0.6-1.5,0.8c-0.6,0.2-1.2,0.3-1.8,0.3c-1.4,0-2.4-0.4-3.2-1.2c-0.8-0.8-1.2-1.9-1.2-3.3c0-0.9,0.2-1.7,0.5-2.3
			c0.3-0.7,0.8-1.2,1.4-1.6c0.6-0.4,1.3-0.6,2.1-0.6c1.1,0,2,0.4,2.7,1.1s1,1.8,1,3.1V214.7z M390.8,212c-0.5,0.4-0.7,1-0.9,1.8h5
			c-0.1-0.8-0.3-1.4-0.7-1.9c-0.4-0.4-1-0.6-1.7-0.6S391.3,211.5,390.8,212z"/>
		<path class="st8" d="M406,206.4v12.7h-1.4v-1.6c-0.3,0.5-0.6,1-1.1,1.2c-0.5,0.3-1.1,0.4-1.8,0.4c-0.8,0-1.4-0.2-2-0.6
			c-0.6-0.4-1-0.9-1.4-1.6c-0.3-0.7-0.5-1.5-0.5-2.4s0.2-1.7,0.5-2.3c0.3-0.7,0.8-1.2,1.4-1.6s1.3-0.6,2-0.6c0.7,0,1.3,0.1,1.8,0.4
			s0.9,0.7,1.1,1.2v-5.5H406z M403.9,217.2c0.5-0.6,0.7-1.4,0.7-2.5c0-1.1-0.2-1.9-0.7-2.5c-0.5-0.6-1.1-0.9-2-0.9
			c-0.8,0-1.5,0.3-2,0.9c-0.5,0.6-0.7,1.4-0.7,2.4c0,1.1,0.2,1.9,0.7,2.5c0.5,0.6,1.1,0.9,2,0.9
			C402.8,218.1,403.5,217.8,403.9,217.2z"/>
		<path class="st8" d="M418.5,219.1H417l-1.5-4.1c-0.2-0.5-0.4-0.8-0.8-1s-0.8-0.3-1.4-0.3h-3.1v5.4h-1.4v-12.3h4.9
			c1.3,0,2.3,0.3,3,0.9c0.7,0.6,1.1,1.4,1.1,2.5c0,0.8-0.2,1.5-0.6,2c-0.4,0.5-1,0.9-1.8,1.2c0.4,0.1,0.7,0.2,0.9,0.5
			c0.3,0.2,0.5,0.6,0.6,1.1L418.5,219.1z M413.6,212.6c1.9,0,2.8-0.8,2.8-2.3c0-0.8-0.2-1.3-0.7-1.7s-1.2-0.6-2.1-0.6h-3.4v4.6
			H413.6z"/>
		<path class="st8" d="M428.7,215.9h-6.4l-1.4,3.2h-1.5l5.4-12.3h1.2l5.4,12.3h-1.4L428.7,215.9z M428.2,214.8l-2.7-6.3l-2.7,6.3
			H428.2z"/>
		<path class="st8" d="M444.9,206.8v12.3h-1.3V210l-4,9.1h-1l-4-9l0,9h-1.3v-12.3h1.2l4.6,10.6l4.6-10.6H444.9z"/>
		<path class="st8" d="M448,206.8h4.9c1.3,0,2.2,0.3,3,0.9c0.7,0.6,1.1,1.4,1.1,2.5s-0.4,1.9-1.1,2.5c-0.7,0.6-1.7,0.9-2.9,0.9h-3.5
			v5.4H448V206.8z M452.7,212.5c0.9,0,1.6-0.2,2-0.6c0.5-0.4,0.7-1,0.7-1.7s-0.2-1.3-0.7-1.7s-1.1-0.6-2-0.6h-3.4v4.5H452.7z"/>
	</g>
	<g class="st6">
		<path class="st8" d="M388.9,239.2c-0.9-0.5-1.5-1.2-2-2.2c-0.5-0.9-0.7-2.1-0.7-3.3s0.2-2.4,0.7-3.3s1.1-1.7,2-2.2
			c0.9-0.5,1.9-0.8,3-0.8c0.8,0,1.6,0.1,2.3,0.4c0.7,0.3,1.3,0.6,1.8,1.2l-0.5,1.1c-0.6-0.5-1.2-0.9-1.7-1.1
			c-0.6-0.2-1.2-0.3-1.9-0.3c-1.3,0-2.4,0.4-3.1,1.3s-1.1,2.1-1.1,3.7c0,1.6,0.4,2.9,1.1,3.7s1.8,1.3,3.1,1.3c0.7,0,1.3-0.1,1.9-0.3
			c0.6-0.2,1.1-0.6,1.7-1.1l0.5,1.1c-0.5,0.5-1.1,0.9-1.8,1.2c-0.7,0.3-1.5,0.4-2.3,0.4C390.7,239.9,389.7,239.7,388.9,239.2z"/>
		<path class="st8" d="M399.5,239.4c-0.6-0.4-1.1-0.9-1.4-1.6c-0.3-0.7-0.5-1.5-0.5-2.4c0-0.9,0.2-1.7,0.5-2.4
			c0.3-0.7,0.8-1.2,1.4-1.6c0.6-0.4,1.3-0.6,2.2-0.6s1.5,0.2,2.2,0.6s1.1,0.9,1.4,1.6c0.3,0.7,0.5,1.5,0.5,2.4
			c0,0.9-0.2,1.7-0.5,2.4c-0.3,0.7-0.8,1.2-1.4,1.6c-0.6,0.4-1.3,0.6-2.2,0.6S400.2,239.7,399.5,239.4z M403.7,237.9
			c0.5-0.6,0.7-1.4,0.7-2.5c0-1.1-0.2-1.9-0.7-2.5c-0.5-0.6-1.1-0.9-2-0.9c-0.8,0-1.5,0.3-2,0.9c-0.5,0.6-0.7,1.4-0.7,2.5
			c0,1.1,0.2,1.9,0.7,2.5c0.5,0.6,1.1,0.9,2,0.9S403.2,238.5,403.7,237.9z"/>
		<path class="st8" d="M415.4,234.4v5.4H414v-5.4c0-0.8-0.2-1.4-0.5-1.8c-0.3-0.4-0.8-0.6-1.5-0.6c-0.8,0-1.4,0.2-1.9,0.7
			c-0.5,0.5-0.7,1.2-0.7,2v5H408v-6.2c0-0.9,0-1.7-0.1-2.4h1.3l0.1,1.5c0.3-0.6,0.7-1,1.2-1.3c0.5-0.3,1.1-0.5,1.8-0.5
			C414.3,230.9,415.4,232.1,415.4,234.4z"/>
		<path class="st8" d="M425.5,234.4v5.4h-1.4v-5.4c0-0.8-0.2-1.4-0.5-1.8s-0.8-0.6-1.5-0.6c-0.8,0-1.4,0.2-1.9,0.7
			c-0.5,0.5-0.7,1.2-0.7,2v5H418v-6.2c0-0.9,0-1.7-0.1-2.4h1.3l0.1,1.5c0.3-0.6,0.7-1,1.2-1.3c0.5-0.3,1.1-0.5,1.8-0.5
			C424.4,230.9,425.5,232.1,425.5,234.4z"/>
		<path class="st8" d="M435.3,235.4H429c0,1.1,0.3,1.9,0.8,2.5c0.5,0.6,1.2,0.8,2.2,0.8c1,0,1.9-0.3,2.8-1l0.5,1
			c-0.4,0.4-0.9,0.6-1.5,0.8c-0.6,0.2-1.2,0.3-1.8,0.3c-1.4,0-2.4-0.4-3.2-1.2c-0.8-0.8-1.2-1.9-1.2-3.3c0-0.9,0.2-1.7,0.5-2.3
			c0.3-0.7,0.8-1.2,1.4-1.6c0.6-0.4,1.3-0.6,2.1-0.6c1.1,0,2,0.4,2.7,1.1c0.7,0.8,1,1.8,1,3.1V235.4z M429.9,232.7
			c-0.5,0.4-0.7,1-0.9,1.8h5c-0.1-0.8-0.3-1.4-0.7-1.9c-0.4-0.4-1-0.6-1.7-0.6C431,232,430.4,232.2,429.9,232.7z"/>
		<path class="st8" d="M438.9,239.4c-0.6-0.4-1.1-0.9-1.4-1.6c-0.3-0.7-0.5-1.5-0.5-2.3c0-0.9,0.2-1.7,0.5-2.4s0.8-1.2,1.5-1.6
			c0.6-0.4,1.4-0.6,2.2-0.6c0.6,0,1.2,0.1,1.7,0.3s1,0.5,1.4,0.8l-0.5,1c-0.4-0.3-0.9-0.6-1.3-0.8c-0.4-0.2-0.8-0.2-1.2-0.2
			c-0.9,0-1.6,0.3-2.1,0.9c-0.5,0.6-0.8,1.4-0.8,2.5c0,1,0.2,1.9,0.7,2.4c0.5,0.6,1.2,0.9,2.1,0.9c0.4,0,0.8-0.1,1.2-0.2
			c0.4-0.2,0.8-0.4,1.3-0.8l0.5,1c-0.4,0.3-0.8,0.6-1.4,0.8c-0.6,0.2-1.1,0.3-1.7,0.3C440.3,239.9,439.5,239.7,438.9,239.4z"/>
		<path class="st8" d="M447.9,232.2v4.7c0,0.6,0.1,1.1,0.4,1.4c0.3,0.3,0.6,0.4,1.1,0.4c0.3,0,0.6-0.1,0.9-0.2v1.2
			c-0.4,0.1-0.8,0.2-1.2,0.2c-0.8,0-1.5-0.2-1.9-0.7s-0.7-1.2-0.7-2.1v-4.9h-1.7v-1.1h1.7v-2.2l1.4-0.5v2.7h2.5v1.1H447.9z"/>
	</g>
	<line id="Line_280_4_" class="st14" x1="662" y1="294.5" x2="0" y2="294.5"/>
</g>
</svg>
