<?xml version="1.0" encoding="utf-8"?>
<!-- Generator: Adobe Illustrator 24.2.3, SVG Export Plug-In . SVG Version: 6.00 Build 0)  -->
<svg version="1.1" id="Layer_1" xmlns="http://www.w3.org/2000/svg" xmlns:xlink="http://www.w3.org/1999/xlink" x="0px" y="0px"
	 viewBox="0 0 662 613" style="enable-background:new 0 0 662 613;" xml:space="preserve">
<style type="text/css">
	.st0{display:none;}
	.st1{display:inline;fill:#F2F2F2;}
	.st2{fill:#FFFFFF;}
	.st3{fill:#0A90B7;}
	.st4{enable-background:new    ;}
	.st5{fill:none;}
	.st6{fill:#333333;}
	.st7{fill:#C71F25;}
	.st8{fill:none;stroke:#1A4480;stroke-width:1.1571;}
	.st9{fill:none;stroke:#C71F25;stroke-width:1.1571;}
	.st10{fill:#1A4480;}
	.st11{fill:#454545;}
	.st12{fill:none;stroke:#D0D0D0;}
</style>
<g id="Layer_2_1_" class="st0">
	<rect x="-1565" y="-168" class="st1" width="2787" height="1656"/>
</g>
<g id="Layer_4">
	<path id="Path_11101_1_" class="st2" d="M646,502.9H415.5l13.4-29.9l-13.4-29.9H646l14.5,29.9L646,502.9z"/>
	<path id="Path_11099_1_" class="st3" d="M171.8,502.9H-0.1L12,473l-12.1-29.9h171.9l13.1,29.9L171.8,502.9z"/>
	<path id="Path_11099_3_" class="st3" d="M379.1,502.9H207.2l12.1-29.9l-12.1-29.9h171.9l13.1,29.9L379.1,502.9z"/>
	<path id="Path_11287_1_" class="st3" d="M649.2,162.9H343.8l12.6-29.9l-12.6-29.9h305.4l12.6,29.9L649.2,162.9z"/>
	<path id="Path_11287-2" class="st3" d="M305.4,162.9H0v-59.8h305.4L318,133L305.4,162.9z"/>
	<path id="Path_11341_1_" class="st3" d="M425,498.5h-3.2l1.2-3l8.2-20.2l1-2.4l-1-2.4l-8.2-20.3l-1.2-3h26.5v-4.3h-32.9l11.8,29.2
		l0.3,0.8l-0.3,0.8l-11.8,29.1H598v6.1l11-8.1l-11-8.1v5.9L425,498.5L425,498.5z"/>
	<path id="Path_11342_1_" class="st3" d="M598.1,496.3v-3.7l11,8.1l-11,8.1v-6.1H415.5l11.8-29.1l0.3-0.8l-0.3-0.8l-11.8-29.2h32.9
		v4.3h-26.5l1.2,2.9l8.2,20.3l1,2.4l-1,2.4l-8.2,20.2l-1.2,3h176.3L598.1,496.3z"/>
	<path id="Path_11343_1_" class="st3" d="M648.9,502.8h-32.5v-4.3h29.7l0.6-1.3l10.3-23.5l0.4-0.9l-0.4-0.9l-10.3-23.5l-0.6-1.3
		H466.6v6.1l-11-8.1l11-8.1v5.9h182.3l13.1,30L648.9,502.8z"/>
</g>
<g id="Layer_3">
	<rect id="Rectangle_2941_8_" x="232.1" y="529.5" class="st2" width="135.1" height="85.9"/>
	<path id="Path_11091_8_" class="st2" d="M299.7,512.5L323,537h-46.6L299.7,512.5z"/>
	<rect id="Rectangle_2941_7_" x="232.1" y="330.5" class="st2" width="135.1" height="85.9"/>
	<path id="Path_11091_7_" class="st2" d="M299.7,433.4L323,409h-46.6L299.7,433.4z"/>
	<rect id="Rectangle_2941_6_" x="24.8" y="529.5" class="st2" width="135.1" height="85.9"/>
	<path id="Path_11091_6_" class="st2" d="M92.4,514.5l23.3,24.4H69.1L92.4,514.5z"/>
	<rect id="Rectangle_2941_5_" x="24.8" y="332.5" class="st2" width="135.1" height="85.9"/>
	<path id="Path_11091_5_" class="st2" d="M92.4,435.4l23.3-24.4H69.1L92.4,435.4z"/>
	<rect id="Rectangle_2941_4_" x="507" y="189.9" class="st2" width="136.8" height="69"/>
	<path id="Path_11091_4_" class="st2" d="M575.8,171.9l23.6,24.8h-47.2L575.8,171.9z"/>
	<rect id="Rectangle_2941_3_" x="351.1" y="189.9" class="st2" width="136.8" height="69"/>
	<path id="Path_11091_3_" class="st2" d="M419.9,171.9l23.6,24.8h-47.2L419.9,171.9z"/>
	<rect id="Rectangle_2941_2_" x="507" y="5" class="st2" width="136.8" height="69"/>
	<path id="Path_11091_2_" class="st2" d="M575.8,91.8L599.4,67h-47.2L575.8,91.8z"/>
	<rect id="Rectangle_2941_1_" x="351.1" y="5" class="st2" width="136.8" height="69"/>
	<path id="Path_11091_1_" class="st2" d="M419.9,91.8L443.5,67h-47.2L419.9,91.8z"/>
	<g class="st4">
		<path class="st2" d="M55.1,132c-0.7-0.2-1.2-0.3-1.6-0.3c-0.3,0-0.5,0.1-0.6,0.2c-0.2,0.1-0.2,0.3-0.2,0.5c0,0.3,0.1,0.5,0.4,0.7
			c0.3,0.2,0.8,0.3,1.4,0.5c0.7,0.2,1.4,0.4,1.8,0.6s0.9,0.5,1.3,1s0.5,1,0.5,1.7c0,0.7-0.2,1.3-0.6,1.9c-0.4,0.5-0.9,0.9-1.6,1.1
			c-0.7,0.2-1.4,0.4-2.2,0.4c-0.9,0-1.8-0.2-2.7-0.5c-0.9-0.3-1.7-0.7-2.3-1.3l1.2-2.4c0.5,0.5,1.2,0.8,1.9,1.2
			c0.8,0.3,1.4,0.5,2,0.5c0.3,0,0.6-0.1,0.8-0.2s0.3-0.3,0.3-0.6c0-0.3-0.2-0.5-0.5-0.7s-0.8-0.3-1.4-0.5c-0.7-0.2-1.3-0.4-1.8-0.6
			s-0.9-0.5-1.2-1s-0.5-1-0.5-1.7c0-0.7,0.2-1.3,0.5-1.8s0.9-0.9,1.5-1.2c0.7-0.3,1.4-0.4,2.3-0.4c0.8,0,1.6,0.1,2.4,0.3
			c0.8,0.2,1.5,0.5,2,0.9l-1.2,2.4C56.4,132.5,55.7,132.3,55.1,132z"/>
		<path class="st2" d="M66,132.9c0.8,0.8,1.1,1.9,1.1,3.3c0,0.2,0,0.4,0,0.5h-5.5c0.1,0.4,0.3,0.7,0.6,0.9c0.3,0.2,0.6,0.3,1,0.3
			c0.6,0,1.2-0.3,1.8-0.8l1.6,1.5c-0.4,0.5-1,0.8-1.6,1.1c-0.6,0.2-1.3,0.4-2.1,0.4c-0.9,0-1.7-0.2-2.3-0.5
			c-0.7-0.3-1.2-0.8-1.5-1.5s-0.5-1.4-0.5-2.2c0-0.8,0.2-1.6,0.5-2.2c0.4-0.6,0.9-1.1,1.5-1.5c0.6-0.3,1.4-0.5,2.2-0.5
			C64.2,131.7,65.3,132.1,66,132.9z M63.8,134.2c-0.2-0.3-0.5-0.4-0.9-0.4c-0.4,0-0.6,0.1-0.9,0.4s-0.4,0.6-0.5,1h2.6
			C64.2,134.8,64,134.4,63.8,134.2z"/>
		<path class="st2" d="M68.4,128.9h3V140h-3V128.9z"/>
		<path class="st2" d="M80.2,132.9c0.8,0.8,1.1,1.9,1.1,3.3c0,0.2,0,0.4,0,0.5h-5.5c0.1,0.4,0.3,0.7,0.6,0.9c0.3,0.2,0.6,0.3,1,0.3
			c0.6,0,1.2-0.3,1.8-0.8l1.6,1.5c-0.4,0.5-1,0.8-1.6,1.1c-0.6,0.2-1.3,0.4-2.1,0.4c-0.9,0-1.7-0.2-2.3-0.5
			c-0.7-0.3-1.2-0.8-1.5-1.5s-0.5-1.4-0.5-2.2c0-0.8,0.2-1.6,0.5-2.2c0.4-0.6,0.9-1.1,1.5-1.5c0.6-0.3,1.4-0.5,2.2-0.5
			C78.4,131.7,79.4,132.1,80.2,132.9z M78,134.2c-0.2-0.3-0.5-0.4-0.9-0.4c-0.4,0-0.6,0.1-0.9,0.4s-0.4,0.6-0.5,1h2.6
			C78.3,134.8,78.2,134.4,78,134.2z"/>
		<path class="st2" d="M87,134.4c-0.2-0.1-0.5-0.2-0.8-0.2c-0.4,0-0.7,0.2-1,0.5c-0.3,0.3-0.4,0.7-0.4,1.3c0,0.5,0.1,1,0.4,1.3
			s0.6,0.5,1,0.5c0.6,0,1-0.3,1.3-0.9l2.4,1.2c-0.3,0.7-0.8,1.2-1.5,1.6s-1.4,0.6-2.3,0.6c-0.9,0-1.6-0.2-2.2-0.5
			c-0.6-0.3-1.1-0.8-1.5-1.5s-0.5-1.4-0.5-2.2c0-0.8,0.2-1.6,0.5-2.2c0.4-0.6,0.9-1.1,1.5-1.5c0.6-0.3,1.4-0.5,2.2-0.5
			c0.8,0,1.6,0.2,2.3,0.6s1.2,0.9,1.5,1.6l-2.3,1.1C87.4,134.7,87.3,134.5,87,134.4z"/>
		<path class="st2" d="M96.5,139.6c-0.3,0.2-0.6,0.3-1.1,0.4c-0.4,0.1-0.8,0.1-1.3,0.1c-0.9,0-1.6-0.2-2.1-0.7
			c-0.5-0.5-0.8-1.1-0.8-2v-3.3h-1.1v-1.9h1.1V130h3v2.3h2v1.9h-2v2.8c0,0.3,0.1,0.5,0.2,0.6c0.1,0.1,0.3,0.2,0.5,0.2
			c0.2,0,0.5-0.1,0.9-0.2L96.5,139.6z"/>
		<path class="st2" d="M108.5,140l-0.6-1.7h-4.2L103,140h-3.2l4.5-10.5h3.2l4.3,10.5H108.5z M104.5,136h2.6l-1.3-3.4L104.5,136z"/>
		<path class="st2" d="M120.5,131.8v8.2h-3v-1.2c-0.3,0.4-0.6,0.8-1.1,1c-0.4,0.2-0.9,0.3-1.4,0.3c-0.6,0-1.1-0.1-1.5-0.4
			c-0.4-0.3-0.8-0.6-1-1.1c-0.2-0.5-0.4-1-0.4-1.7v-5.2h3v4.3c0,0.4,0.1,0.7,0.3,1c0.2,0.2,0.5,0.4,0.8,0.4c0.4,0,0.7-0.2,0.9-0.5
			c0.2-0.3,0.3-0.7,0.3-1.1v-4H120.5z"/>
		<path class="st2" d="M127.9,139.6c-0.3,0.2-0.6,0.3-1.1,0.4c-0.4,0.1-0.8,0.1-1.3,0.1c-0.9,0-1.6-0.2-2.1-0.7
			c-0.5-0.5-0.8-1.1-0.8-2v-3.3h-1.1v-1.9h1.1V130h3v2.3h2v1.9h-2v2.8c0,0.3,0.1,0.5,0.2,0.6c0.1,0.1,0.3,0.2,0.5,0.2
			c0.2,0,0.5-0.1,0.9-0.2L127.9,139.6z"/>
		<path class="st2" d="M136.9,132.6c0.5,0.6,0.8,1.3,0.8,2.3v5.2h-3v-4.3c0-0.4-0.1-0.7-0.3-1s-0.5-0.4-0.9-0.4
			c-0.4,0-0.7,0.2-1,0.5c-0.2,0.3-0.4,0.7-0.4,1.1v4h-3v-11.1h3v4.2c0.3-0.4,0.7-0.8,1.1-1c0.4-0.2,0.9-0.4,1.5-0.4
			C135.6,131.7,136.4,132,136.9,132.6z"/>
		<path class="st2" d="M145.6,132.2c0.7,0.3,1.2,0.8,1.6,1.5s0.6,1.4,0.6,2.2c0,0.8-0.2,1.6-0.6,2.2c-0.4,0.6-0.9,1.1-1.6,1.5
			c-0.7,0.3-1.5,0.5-2.4,0.5c-0.9,0-1.7-0.2-2.4-0.5c-0.7-0.3-1.2-0.8-1.6-1.5c-0.4-0.6-0.6-1.4-0.6-2.2c0-0.8,0.2-1.6,0.6-2.2
			s0.9-1.1,1.6-1.5c0.7-0.3,1.5-0.5,2.4-0.5C144.1,131.7,144.9,131.9,145.6,132.2z M142.1,134.6c-0.3,0.3-0.4,0.8-0.4,1.3
			c0,0.5,0.1,1,0.4,1.3c0.3,0.3,0.6,0.5,1.1,0.5c0.4,0,0.8-0.2,1.1-0.5c0.3-0.3,0.4-0.8,0.4-1.3c0-0.5-0.1-1-0.4-1.3
			s-0.6-0.5-1.1-0.5C142.8,134.1,142.4,134.3,142.1,134.6z"/>
		<path class="st2" d="M153.1,132.1c0.4-0.2,0.9-0.4,1.5-0.4v2.7c-0.1,0-0.3,0-0.5,0c-0.6,0-1.1,0.2-1.5,0.5
			c-0.4,0.3-0.5,0.7-0.5,1.2v3.9h-3v-8.2h3v1.3C152.3,132.7,152.6,132.3,153.1,132.1z"/>
		<path class="st2" d="M158.2,128.4c0.3,0.3,0.4,0.7,0.4,1.1s-0.1,0.8-0.4,1.1s-0.7,0.4-1.1,0.4s-0.8-0.1-1.1-0.4
			c-0.3-0.3-0.4-0.7-0.4-1.1s0.1-0.8,0.4-1.1c0.3-0.3,0.7-0.4,1.1-0.4S157.9,128.1,158.2,128.4z M155.6,131.8h3v8.2h-3V131.8z"/>
		<path class="st2" d="M160.1,131.8h7.3v1.8l-3.7,4.1h3.8v2.3H160v-1.8l3.7-4.1h-3.5V131.8z"/>
		<path class="st2" d="M175.4,132.5c0.6,0.5,1,1.3,1,2.2v5.3h-3v-0.9c-0.2,0.3-0.6,0.6-1,0.8c-0.4,0.2-0.9,0.3-1.4,0.3
			c-0.9,0-1.5-0.2-2-0.7c-0.5-0.5-0.7-1.1-0.7-1.9c0-0.8,0.3-1.4,0.8-1.8c0.5-0.4,1.3-0.6,2.3-0.7h2v0c0-0.3-0.1-0.6-0.4-0.8
			c-0.2-0.2-0.6-0.3-1-0.3c-0.3,0-0.7,0-1.1,0.1c-0.4,0.1-0.9,0.2-1.3,0.4l-0.8-2c1.4-0.6,2.7-0.8,3.9-0.8
			C173.9,131.7,174.8,132,175.4,132.5z M172.9,137.9c0.2-0.1,0.4-0.4,0.5-0.6v-0.7H172c-0.6,0-0.9,0.3-0.9,0.8
			c0,0.3,0.1,0.5,0.2,0.6c0.2,0.1,0.4,0.2,0.7,0.2C172.3,138.1,172.6,138.1,172.9,137.9z"/>
		<path class="st2" d="M183.6,139.6c-0.3,0.2-0.6,0.3-1.1,0.4c-0.4,0.1-0.8,0.1-1.3,0.1c-0.9,0-1.6-0.2-2.1-0.7
			c-0.5-0.5-0.8-1.1-0.8-2v-3.3h-1.1v-1.9h1.1V130h3v2.3h2v1.9h-2v2.8c0,0.3,0.1,0.5,0.2,0.6c0.1,0.1,0.3,0.2,0.5,0.2
			c0.2,0,0.5-0.1,0.9-0.2L183.6,139.6z"/>
		<path class="st2" d="M187.3,128.4c0.3,0.3,0.4,0.7,0.4,1.1s-0.1,0.8-0.4,1.1s-0.7,0.4-1.1,0.4s-0.8-0.1-1.1-0.4
			c-0.3-0.3-0.4-0.7-0.4-1.1s0.1-0.8,0.4-1.1c0.3-0.3,0.7-0.4,1.1-0.4S187,128.1,187.3,128.4z M184.7,131.8h3v8.2h-3V131.8z"/>
		<path class="st2" d="M195.9,132.2c0.7,0.3,1.2,0.8,1.6,1.5s0.6,1.4,0.6,2.2c0,0.8-0.2,1.6-0.6,2.2c-0.4,0.6-0.9,1.1-1.6,1.5
			c-0.7,0.3-1.5,0.5-2.4,0.5c-0.9,0-1.7-0.2-2.4-0.5c-0.7-0.3-1.2-0.8-1.6-1.5c-0.4-0.6-0.6-1.4-0.6-2.2c0-0.8,0.2-1.6,0.6-2.2
			s0.9-1.1,1.6-1.5c0.7-0.3,1.5-0.5,2.4-0.5C194.4,131.7,195.2,131.9,195.9,132.2z M192.4,134.6c-0.3,0.3-0.4,0.8-0.4,1.3
			c0,0.5,0.1,1,0.4,1.3c0.3,0.3,0.6,0.5,1.1,0.5c0.4,0,0.8-0.2,1.1-0.5c0.3-0.3,0.4-0.8,0.4-1.3c0-0.5-0.1-1-0.4-1.3
			s-0.6-0.5-1.1-0.5C193,134.1,192.7,134.3,192.4,134.6z"/>
		<path class="st2" d="M206.4,132.1c0.4,0.3,0.8,0.6,1,1.1c0.2,0.5,0.4,1,0.4,1.6v5.2h-3v-4.3c0-0.4-0.1-0.7-0.3-1
			c-0.2-0.2-0.5-0.4-0.8-0.4c-0.4,0-0.7,0.2-1,0.5c-0.2,0.3-0.4,0.7-0.4,1.1v4h-3v-8.2h3v1.3c0.3-0.4,0.7-0.8,1.1-1
			c0.4-0.2,0.9-0.4,1.5-0.4C205.4,131.7,205.9,131.8,206.4,132.1z"/>
		<path class="st2" d="M220.4,130.4c0.7,0.7,1.1,1.6,1.1,2.8c0,1.2-0.4,2.2-1.1,2.9c-0.7,0.7-1.8,1-3.2,1l-1.6,0v2.8h-3.1v-10.5h4.8
			C218.7,129.5,219.7,129.8,220.4,130.4z M218.2,134.4c0.3-0.2,0.4-0.6,0.4-1.1c0-0.5-0.1-0.8-0.4-1.1c-0.3-0.2-0.6-0.4-1.1-0.4
			h-1.5v2.9h1.5C217.6,134.8,218,134.6,218.2,134.4z"/>
		<path class="st2" d="M229.3,132.5c0.6,0.5,1,1.3,1,2.2v5.3h-3v-0.9c-0.2,0.3-0.6,0.6-1,0.8c-0.4,0.2-0.9,0.3-1.4,0.3
			c-0.9,0-1.5-0.2-2-0.7c-0.5-0.5-0.7-1.1-0.7-1.9c0-0.8,0.3-1.4,0.8-1.8c0.5-0.4,1.3-0.6,2.3-0.7h2v0c0-0.3-0.1-0.6-0.4-0.8
			c-0.2-0.2-0.6-0.3-1-0.3c-0.3,0-0.7,0-1.1,0.1c-0.4,0.1-0.9,0.2-1.3,0.4l-0.8-2c1.4-0.6,2.7-0.8,3.9-0.8
			C227.8,131.7,228.7,132,229.3,132.5z M226.8,137.9c0.2-0.1,0.4-0.4,0.5-0.6v-0.7h-1.4c-0.6,0-0.9,0.3-0.9,0.8
			c0,0.3,0.1,0.5,0.2,0.6c0.2,0.1,0.4,0.2,0.7,0.2C226.3,138.1,226.5,138.1,226.8,137.9z"/>
		<path class="st2" d="M237.5,139.6c-0.3,0.2-0.6,0.3-1.1,0.4c-0.4,0.1-0.8,0.1-1.3,0.1c-0.9,0-1.6-0.2-2.1-0.7
			c-0.5-0.5-0.8-1.1-0.8-2v-3.3h-1.1v-1.9h1.1V130h3v2.3h2v1.9h-2v2.8c0,0.3,0.1,0.5,0.2,0.6c0.1,0.1,0.3,0.2,0.5,0.2
			c0.2,0,0.5-0.1,0.9-0.2L237.5,139.6z"/>
		<path class="st2" d="M246.5,132.6c0.5,0.6,0.8,1.3,0.8,2.3v5.2h-3v-4.3c0-0.4-0.1-0.7-0.3-1s-0.5-0.4-0.9-0.4
			c-0.4,0-0.7,0.2-1,0.5c-0.2,0.3-0.4,0.7-0.4,1.1v4h-3v-11.1h3v4.2c0.3-0.4,0.7-0.8,1.1-1c0.4-0.2,0.9-0.4,1.5-0.4
			C245.2,131.7,245.9,132,246.5,132.6z"/>
	</g>
	<g class="st4">
		<path class="st2" d="M463.1,130.4c0.7,0.7,1.1,1.6,1.1,2.8c0,1.2-0.4,2.2-1.1,2.9c-0.7,0.7-1.8,1-3.2,1l-1.6,0v2.8h-3.1v-10.5h4.8
			C461.3,129.5,462.4,129.8,463.1,130.4z M460.9,134.4c0.3-0.2,0.4-0.6,0.4-1.1c0-0.5-0.1-0.8-0.4-1.1c-0.3-0.2-0.6-0.4-1.1-0.4
			h-1.5v2.9h1.5C460.3,134.8,460.6,134.6,460.9,134.4z"/>
		<path class="st2" d="M469.6,132.1c0.4-0.2,0.9-0.4,1.5-0.4v2.7c-0.1,0-0.3,0-0.5,0c-0.6,0-1.1,0.2-1.5,0.5s-0.5,0.7-0.5,1.2v3.9
			h-3v-8.2h3v1.3C468.8,132.7,469.1,132.3,469.6,132.1z"/>
		<path class="st2" d="M478.9,132.9c0.8,0.8,1.1,1.9,1.1,3.3c0,0.2,0,0.4,0,0.5h-5.5c0.1,0.4,0.3,0.7,0.6,0.9s0.6,0.3,1,0.3
			c0.6,0,1.2-0.3,1.8-0.8l1.6,1.5c-0.4,0.5-1,0.8-1.6,1.1c-0.6,0.2-1.3,0.4-2.1,0.4c-0.9,0-1.7-0.2-2.3-0.5
			c-0.7-0.3-1.2-0.8-1.5-1.5c-0.4-0.6-0.5-1.4-0.5-2.2c0-0.8,0.2-1.6,0.5-2.2c0.4-0.6,0.9-1.1,1.5-1.5c0.7-0.3,1.4-0.5,2.2-0.5
			C477.1,131.7,478.2,132.1,478.9,132.9z M476.7,134.2c-0.2-0.3-0.5-0.4-0.9-0.4c-0.3,0-0.6,0.1-0.9,0.4c-0.2,0.2-0.4,0.6-0.5,1h2.6
			C477.1,134.8,476.9,134.4,476.7,134.2z"/>
		<path class="st2" d="M488.6,132.2c0.6,0.4,1,0.8,1.3,1.5c0.3,0.6,0.5,1.4,0.5,2.2c0,0.8-0.2,1.6-0.5,2.2c-0.3,0.6-0.7,1.1-1.3,1.4
			c-0.6,0.3-1.2,0.5-2,0.5c-0.5,0-0.9-0.1-1.3-0.3c-0.4-0.2-0.7-0.4-1-0.8v3.9h-3v-11.1h3v0.9c0.3-0.3,0.6-0.6,1-0.8
			s0.8-0.3,1.3-0.3C487.3,131.7,488,131.9,488.6,132.2z M486.9,137.2c0.3-0.3,0.4-0.8,0.4-1.3s-0.1-1-0.4-1.3
			c-0.3-0.3-0.6-0.5-1.1-0.5c-0.4,0-0.8,0.2-1.1,0.5c-0.3,0.3-0.4,0.8-0.4,1.3s0.1,1,0.4,1.3c0.3,0.3,0.6,0.5,1.1,0.5
			C486.3,137.7,486.6,137.5,486.9,137.2z"/>
		<path class="st2" d="M498.1,132.5c0.6,0.5,1,1.3,1,2.2v5.3h-3v-0.9c-0.2,0.3-0.6,0.6-1,0.8c-0.4,0.2-0.9,0.3-1.4,0.3
			c-0.9,0-1.5-0.2-2-0.7c-0.5-0.5-0.7-1.1-0.7-1.9c0-0.8,0.3-1.4,0.8-1.8c0.5-0.4,1.3-0.6,2.3-0.7h2v0c0-0.3-0.1-0.6-0.4-0.8
			c-0.2-0.2-0.6-0.3-1-0.3c-0.3,0-0.7,0-1.1,0.1c-0.4,0.1-0.9,0.2-1.3,0.4l-0.8-2c1.4-0.6,2.7-0.8,3.9-0.8
			C496.6,131.7,497.5,132,498.1,132.5z M495.6,137.9c0.2-0.1,0.4-0.4,0.5-0.6v-0.7h-1.4c-0.6,0-0.9,0.3-0.9,0.8
			c0,0.3,0.1,0.5,0.2,0.6c0.2,0.1,0.4,0.2,0.7,0.2C495,138.1,495.3,138.1,495.6,137.9z"/>
		<path class="st2" d="M504.8,132.1c0.4-0.2,0.9-0.4,1.5-0.4v2.7c-0.1,0-0.3,0-0.5,0c-0.6,0-1.1,0.2-1.5,0.5
			c-0.4,0.3-0.5,0.7-0.5,1.2v3.9h-3v-8.2h3v1.3C504,132.7,504.4,132.3,504.8,132.1z"/>
		<path class="st2" d="M513.7,132.5c0.6,0.5,1,1.3,1,2.2v5.3h-3v-0.9c-0.2,0.3-0.6,0.6-1,0.8c-0.4,0.2-0.9,0.3-1.4,0.3
			c-0.9,0-1.5-0.2-2-0.7c-0.5-0.5-0.7-1.1-0.7-1.9c0-0.8,0.3-1.4,0.8-1.8c0.5-0.4,1.3-0.6,2.3-0.7h2v0c0-0.3-0.1-0.6-0.4-0.8
			c-0.2-0.2-0.6-0.3-1-0.3c-0.3,0-0.7,0-1.1,0.1c-0.4,0.1-0.9,0.2-1.3,0.4l-0.8-2c1.4-0.6,2.7-0.8,3.9-0.8
			C512.1,131.7,513,132,513.7,132.5z M511.1,137.9c0.2-0.1,0.4-0.4,0.5-0.6v-0.7h-1.4c-0.6,0-0.9,0.3-0.9,0.8c0,0.3,0.1,0.5,0.2,0.6
			c0.2,0.1,0.4,0.2,0.7,0.2C510.6,138.1,510.9,138.1,511.1,137.9z"/>
		<path class="st2" d="M521.8,139.6c-0.3,0.2-0.6,0.3-1.1,0.4c-0.4,0.1-0.8,0.1-1.3,0.1c-0.9,0-1.6-0.2-2.1-0.7
			c-0.5-0.5-0.8-1.1-0.8-2v-3.3h-1.1v-1.9h1.1V130h3v2.3h2v1.9h-2v2.8c0,0.3,0.1,0.5,0.2,0.6c0.1,0.1,0.3,0.2,0.5,0.2
			c0.2,0,0.5-0.1,0.9-0.2L521.8,139.6z"/>
		<path class="st2" d="M525.6,128.4c0.3,0.3,0.4,0.7,0.4,1.1s-0.1,0.8-0.4,1.1s-0.7,0.4-1.1,0.4s-0.8-0.1-1.1-0.4s-0.4-0.7-0.4-1.1
			s0.1-0.8,0.4-1.1s0.7-0.4,1.1-0.4S525.3,128.1,525.6,128.4z M523,131.8h3v8.2h-3V131.8z"/>
		<path class="st2" d="M534.1,132.2c0.7,0.3,1.2,0.8,1.6,1.5s0.6,1.4,0.6,2.2c0,0.8-0.2,1.6-0.6,2.2c-0.4,0.6-0.9,1.1-1.6,1.5
			c-0.7,0.3-1.5,0.5-2.4,0.5s-1.7-0.2-2.4-0.5c-0.7-0.3-1.2-0.8-1.6-1.5c-0.4-0.6-0.6-1.4-0.6-2.2c0-0.8,0.2-1.6,0.6-2.2
			s0.9-1.1,1.6-1.5c0.7-0.3,1.5-0.5,2.4-0.5S533.5,131.9,534.1,132.2z M530.7,134.6c-0.3,0.3-0.4,0.8-0.4,1.3c0,0.5,0.1,1,0.4,1.3
			c0.3,0.3,0.6,0.5,1.1,0.5c0.4,0,0.8-0.2,1.1-0.5c0.3-0.3,0.4-0.8,0.4-1.3c0-0.5-0.1-1-0.4-1.3c-0.3-0.3-0.6-0.5-1.1-0.5
			C531.3,134.1,531,134.3,530.7,134.6z"/>
		<path class="st2" d="M544.7,132.1c0.4,0.3,0.8,0.6,1,1.1c0.2,0.5,0.4,1,0.4,1.6v5.2h-3v-4.3c0-0.4-0.1-0.7-0.3-1
			c-0.2-0.2-0.5-0.4-0.8-0.4c-0.4,0-0.7,0.2-1,0.5c-0.2,0.3-0.4,0.7-0.4,1.1v4h-3v-8.2h3v1.3c0.3-0.4,0.7-0.8,1.1-1
			c0.4-0.2,0.9-0.4,1.5-0.4C543.7,131.7,544.2,131.8,544.7,132.1z"/>
	</g>
	<g class="st4">
		<path class="st2" d="M70.1,479.7l-1.4-2.8h-1.6v2.8H64v-10.5h4.9c1.4,0,2.5,0.3,3.3,1c0.8,0.7,1.2,1.6,1.2,2.8
			c0,0.8-0.2,1.4-0.5,2c-0.3,0.6-0.7,1-1.3,1.3l2.1,3.4H70.1z M67.1,474.5h1.8c0.5,0,0.8-0.1,1.1-0.4c0.3-0.2,0.4-0.6,0.4-1.1
			c0-0.5-0.1-0.8-0.4-1.1s-0.6-0.4-1.1-0.4h-1.8V474.5z"/>
		<path class="st2" d="M81.7,472.7c0.8,0.8,1.1,1.9,1.1,3.3c0,0.2,0,0.4,0,0.5h-5.5c0.1,0.4,0.3,0.7,0.6,0.9c0.3,0.2,0.6,0.3,1,0.3
			c0.6,0,1.2-0.3,1.8-0.8l1.6,1.5c-0.4,0.5-1,0.8-1.6,1.1c-0.6,0.2-1.3,0.4-2.1,0.4c-0.9,0-1.7-0.2-2.3-0.5
			c-0.7-0.3-1.2-0.8-1.5-1.5s-0.5-1.4-0.5-2.2c0-0.8,0.2-1.6,0.5-2.2c0.4-0.6,0.9-1.1,1.5-1.5c0.6-0.3,1.4-0.5,2.2-0.5
			C79.9,471.5,80.9,471.9,81.7,472.7z M79.5,473.9c-0.2-0.3-0.5-0.4-0.9-0.4c-0.4,0-0.6,0.1-0.9,0.4s-0.4,0.6-0.5,1h2.6
			C79.8,474.5,79.7,474.2,79.5,473.9z"/>
		<path class="st2" d="M82.7,471.6h3.1l1.5,5.4l1.5-5.4h3l-3,8.2h-3.1L82.7,471.6z"/>
		<path class="st2" d="M95.3,468.1c0.3,0.3,0.4,0.7,0.4,1.1s-0.1,0.8-0.4,1.1s-0.7,0.4-1.1,0.4s-0.8-0.1-1.1-0.4
			c-0.3-0.3-0.4-0.7-0.4-1.1s0.1-0.8,0.4-1.1c0.3-0.3,0.7-0.4,1.1-0.4S95,467.8,95.3,468.1z M92.7,471.6h3v8.2h-3V471.6z"/>
		<path class="st2" d="M104.3,472.7c0.8,0.8,1.1,1.9,1.1,3.3c0,0.2,0,0.4,0,0.5H100c0.1,0.4,0.3,0.7,0.6,0.9c0.3,0.2,0.6,0.3,1,0.3
			c0.6,0,1.2-0.3,1.8-0.8l1.6,1.5c-0.4,0.5-1,0.8-1.6,1.1c-0.6,0.2-1.3,0.4-2.1,0.4c-0.9,0-1.7-0.2-2.3-0.5
			c-0.7-0.3-1.2-0.8-1.5-1.5s-0.5-1.4-0.5-2.2c0-0.8,0.2-1.6,0.5-2.2c0.4-0.6,0.9-1.1,1.5-1.5c0.6-0.3,1.4-0.5,2.2-0.5
			C102.5,471.5,103.6,471.9,104.3,472.7z M102.1,473.9c-0.2-0.3-0.5-0.4-0.9-0.4c-0.4,0-0.6,0.1-0.9,0.4s-0.4,0.6-0.5,1h2.6
			C102.5,474.5,102.4,474.2,102.1,473.9z"/>
		<path class="st2" d="M105.4,471.6h3.1l1.5,5.2l1.4-5.2h2.9l1.5,5.2l1.4-5.2h2.9l-3,8.2h-3l-1.4-4.7l-1.4,4.7h-3L105.4,471.6z"/>
	</g>
	<g class="st4">
		<path class="st2" d="M254.5,479.7l-0.6-1.7h-4.2l-0.6,1.7h-3.2l4.5-10.5h3.2l4.3,10.5H254.5z M250.5,475.8h2.6l-1.3-3.4
			L250.5,475.8z"/>
		<path class="st2" d="M266.5,471.6v8.2h-3v-1.2c-0.3,0.4-0.6,0.8-1.1,1c-0.4,0.2-0.9,0.3-1.4,0.3c-0.6,0-1.1-0.1-1.5-0.4
			c-0.4-0.3-0.8-0.6-1-1.1c-0.2-0.5-0.4-1-0.4-1.7v-5.2h3v4.3c0,0.4,0.1,0.7,0.3,1c0.2,0.2,0.5,0.4,0.8,0.4c0.4,0,0.7-0.2,0.9-0.5
			c0.2-0.3,0.3-0.7,0.3-1.1v-4H266.5z"/>
		<path class="st2" d="M273.9,479.3c-0.3,0.2-0.6,0.3-1.1,0.4c-0.4,0.1-0.8,0.1-1.3,0.1c-0.9,0-1.6-0.2-2.1-0.7
			c-0.5-0.5-0.8-1.1-0.8-2v-3.3h-1.1V472h1.1v-2.3h3v2.3h2v1.9h-2v2.8c0,0.3,0.1,0.5,0.2,0.6c0.1,0.1,0.3,0.2,0.5,0.2
			c0.2,0,0.5-0.1,0.9-0.2L273.9,479.3z"/>
		<path class="st2" d="M282.9,472.3c0.5,0.6,0.8,1.3,0.8,2.3v5.2h-3v-4.3c0-0.4-0.1-0.7-0.3-1s-0.5-0.4-0.9-0.4
			c-0.4,0-0.7,0.2-1,0.5c-0.2,0.3-0.4,0.7-0.4,1.1v4h-3v-11.1h3v4.2c0.3-0.4,0.7-0.8,1.1-1c0.4-0.2,0.9-0.4,1.5-0.4
			C281.6,471.5,282.3,471.7,282.9,472.3z"/>
		<path class="st2" d="M291.6,472c0.7,0.3,1.2,0.8,1.6,1.5s0.6,1.4,0.6,2.2c0,0.8-0.2,1.6-0.6,2.2c-0.4,0.6-0.9,1.1-1.6,1.5
			c-0.7,0.3-1.5,0.5-2.4,0.5c-0.9,0-1.7-0.2-2.4-0.5c-0.7-0.3-1.2-0.8-1.6-1.5c-0.4-0.6-0.6-1.4-0.6-2.2c0-0.8,0.2-1.6,0.6-2.2
			s0.9-1.1,1.6-1.5c0.7-0.3,1.5-0.5,2.4-0.5C290.1,471.5,290.9,471.6,291.6,472z M288.1,474.4c-0.3,0.3-0.4,0.8-0.4,1.3
			c0,0.5,0.1,1,0.4,1.3c0.3,0.3,0.6,0.5,1.1,0.5c0.4,0,0.8-0.2,1.1-0.5c0.3-0.3,0.4-0.8,0.4-1.3c0-0.5-0.1-1-0.4-1.3
			s-0.6-0.5-1.1-0.5C288.8,473.9,288.4,474,288.1,474.4z"/>
		<path class="st2" d="M299.1,471.8c0.4-0.2,0.9-0.4,1.5-0.4v2.7c-0.1,0-0.3,0-0.5,0c-0.6,0-1.1,0.2-1.5,0.5
			c-0.4,0.3-0.5,0.7-0.5,1.2v3.9h-3v-8.2h3v1.3C298.3,472.4,298.6,472.1,299.1,471.8z"/>
		<path class="st2" d="M304.2,468.1c0.3,0.3,0.4,0.7,0.4,1.1s-0.1,0.8-0.4,1.1s-0.7,0.4-1.1,0.4s-0.8-0.1-1.1-0.4
			c-0.3-0.3-0.4-0.7-0.4-1.1s0.1-0.8,0.4-1.1c0.3-0.3,0.7-0.4,1.1-0.4S303.9,467.8,304.2,468.1z M301.6,471.6h3v8.2h-3V471.6z"/>
		<path class="st2" d="M306.1,471.6h7.3v1.8l-3.7,4.1h3.8v2.3H306v-1.8l3.7-4.1h-3.5V471.6z"/>
		<path class="st2" d="M321.4,472.2c0.6,0.5,1,1.3,1,2.2v5.3h-3v-0.9c-0.2,0.3-0.6,0.6-1,0.8c-0.4,0.2-0.9,0.3-1.4,0.3
			c-0.9,0-1.5-0.2-2-0.7c-0.5-0.5-0.7-1.1-0.7-1.9c0-0.8,0.3-1.4,0.8-1.8c0.5-0.4,1.3-0.6,2.3-0.7h2v0c0-0.3-0.1-0.6-0.4-0.8
			c-0.2-0.2-0.6-0.3-1-0.3c-0.3,0-0.7,0-1.1,0.1c-0.4,0.1-0.9,0.2-1.3,0.4l-0.8-2c1.4-0.6,2.7-0.8,3.9-0.8
			C319.8,471.5,320.7,471.7,321.4,472.2z M318.8,477.7c0.2-0.1,0.4-0.4,0.5-0.6v-0.7H318c-0.6,0-0.9,0.3-0.9,0.8
			c0,0.3,0.1,0.5,0.2,0.6c0.2,0.1,0.4,0.2,0.7,0.2C318.3,477.9,318.6,477.8,318.8,477.7z"/>
		<path class="st2" d="M329.5,479.3c-0.3,0.2-0.6,0.3-1.1,0.4c-0.4,0.1-0.8,0.1-1.3,0.1c-0.9,0-1.6-0.2-2.1-0.7
			c-0.5-0.5-0.8-1.1-0.8-2v-3.3h-1.1V472h1.1v-2.3h3v2.3h2v1.9h-2v2.8c0,0.3,0.1,0.5,0.2,0.6c0.1,0.1,0.3,0.2,0.5,0.2
			c0.2,0,0.5-0.1,0.9-0.2L329.5,479.3z"/>
		<path class="st2" d="M333.3,468.1c0.3,0.3,0.4,0.7,0.4,1.1s-0.1,0.8-0.4,1.1s-0.7,0.4-1.1,0.4s-0.8-0.1-1.1-0.4
			c-0.3-0.3-0.4-0.7-0.4-1.1s0.1-0.8,0.4-1.1c0.3-0.3,0.7-0.4,1.1-0.4S333,467.8,333.3,468.1z M330.7,471.6h3v8.2h-3V471.6z"/>
		<path class="st2" d="M341.9,472c0.7,0.3,1.2,0.8,1.6,1.5s0.6,1.4,0.6,2.2c0,0.8-0.2,1.6-0.6,2.2c-0.4,0.6-0.9,1.1-1.6,1.5
			c-0.7,0.3-1.5,0.5-2.4,0.5s-1.7-0.2-2.4-0.5c-0.7-0.3-1.2-0.8-1.6-1.5c-0.4-0.6-0.6-1.4-0.6-2.2c0-0.8,0.2-1.6,0.6-2.2
			s0.9-1.1,1.6-1.5c0.7-0.3,1.5-0.5,2.4-0.5S341.2,471.6,341.9,472z M338.4,474.4c-0.3,0.3-0.4,0.8-0.4,1.3c0,0.5,0.1,1,0.4,1.3
			c0.3,0.3,0.6,0.5,1.1,0.5c0.4,0,0.8-0.2,1.1-0.5c0.3-0.3,0.4-0.8,0.4-1.3c0-0.5-0.1-1-0.4-1.3c-0.3-0.3-0.6-0.5-1.1-0.5
			C339,473.9,338.7,474,338.4,474.4z"/>
		<path class="st2" d="M352.4,471.8c0.4,0.3,0.8,0.6,1,1.1c0.2,0.5,0.4,1,0.4,1.6v5.2h-3v-4.3c0-0.4-0.1-0.7-0.3-1
			c-0.2-0.2-0.5-0.4-0.8-0.4c-0.4,0-0.7,0.2-1,0.5s-0.4,0.7-0.4,1.1v4h-3v-8.2h3v1.3c0.3-0.4,0.7-0.8,1.1-1c0.4-0.2,0.9-0.4,1.5-0.4
			C351.4,471.5,351.9,471.6,352.4,471.8z"/>
	</g>
</g>
<g id="Layer_1_1_">
	<rect x="232.2" y="545.3" class="st5" width="135" height="61.5"/>
	<g class="st4">
		<path class="st6" d="M284,562.1c0.5,0.1,0.9,0.1,1.3,0.1c0.6,0,1-0.2,1.2-0.5s0.4-0.9,0.4-1.7v-12.2h1.4v12.2
			c0,1.2-0.2,2.1-0.7,2.6c-0.4,0.5-1.2,0.8-2.2,0.8c-0.4,0-0.9,0-1.5-0.1V562.1z"/>
		<path class="st6" d="M300.9,560.2l-1.4-3.2H293l-1.4,3.2h-1.5l5.5-12.4h1.3l5.5,12.4H300.9z M293.6,555.9h5.5l-2.7-6.4
			L293.6,555.9z"/>
		<path class="st6" d="M312.9,554.9c0.4,0.5,0.6,1.2,0.6,1.9c0,1.1-0.4,1.9-1.1,2.5c-0.7,0.6-1.7,0.9-3.1,0.9h-5.2v-12.4h5
			c1.3,0,2.3,0.3,3,0.8s1.1,1.4,1.1,2.4c0,0.7-0.2,1.2-0.5,1.7s-0.8,0.8-1.4,1.1C312,554.1,312.5,554.4,312.9,554.9z M305.6,553.3
			h3.3c0.9,0,1.6-0.2,2.1-0.6s0.7-0.9,0.7-1.6c0-1.4-0.9-2.1-2.8-2.1h-3.3V553.3z M311.4,558.5c0.5-0.4,0.7-0.9,0.7-1.7
			c0-1.5-0.9-2.3-2.8-2.3h-3.6v4.5h3.6C310.2,559,310.9,558.9,311.4,558.5z"/>
	</g>
	<g class="st4">
		<path class="st6" d="M253.9,581.1l-1.4-3.2H246l-1.4,3.2h-1.5l5.5-12.4h1.3l5.5,12.4H253.9z M246.5,576.8h5.5l-2.7-6.4
			L246.5,576.8z"/>
		<path class="st6" d="M264.3,572.4v8.8H263v-1.5c-0.3,0.5-0.7,0.9-1.2,1.2c-0.5,0.3-1.1,0.4-1.7,0.4c-1,0-1.8-0.3-2.4-0.9
			c-0.5-0.6-0.8-1.4-0.8-2.6v-5.4h1.4v5.4c0,0.8,0.2,1.4,0.5,1.7s0.8,0.6,1.5,0.6c0.8,0,1.4-0.3,1.9-0.8c0.5-0.5,0.7-1.2,0.7-2v-5
			H264.3z"/>
		<path class="st6" d="M268.9,573.5v4.8c0,0.7,0.1,1.1,0.4,1.4c0.3,0.3,0.6,0.4,1.1,0.4c0.3,0,0.6-0.1,0.9-0.2v1.2
			c-0.4,0.1-0.8,0.2-1.2,0.2c-0.8,0-1.5-0.2-2-0.7s-0.7-1.2-0.7-2.1v-5h-1.7v-1.1h1.7v-2.2l1.4-0.5v2.8h2.5v1.1H268.9z"/>
		<path class="st6" d="M280.7,575.6v5.5h-1.4v-5.4c0-0.8-0.2-1.4-0.5-1.8s-0.8-0.6-1.5-0.6c-0.8,0-1.5,0.2-2,0.7
			c-0.5,0.5-0.7,1.2-0.7,2v5h-1.4v-12.8h1.4v5.5c0.3-0.5,0.7-0.9,1.2-1.2c0.5-0.3,1.1-0.4,1.8-0.4
			C279.6,572.2,280.7,573.3,280.7,575.6z"/>
		<path class="st6" d="M284.8,580.7c-0.6-0.4-1.1-0.9-1.5-1.6s-0.5-1.5-0.5-2.4c0-0.9,0.2-1.7,0.5-2.4s0.8-1.2,1.5-1.6
			c0.6-0.4,1.4-0.6,2.2-0.6s1.6,0.2,2.2,0.6c0.6,0.4,1.1,0.9,1.5,1.6s0.5,1.5,0.5,2.4c0,0.9-0.2,1.7-0.5,2.4s-0.8,1.2-1.5,1.6
			c-0.6,0.4-1.4,0.6-2.2,0.6S285.4,581.1,284.8,580.7z M289,579.2c0.5-0.6,0.7-1.4,0.7-2.5c0-1.1-0.2-1.9-0.7-2.5s-1.1-0.9-2-0.9
			c-0.9,0-1.5,0.3-2,0.9s-0.7,1.4-0.7,2.5c0,1.1,0.2,1.9,0.7,2.5s1.1,0.9,2,0.9C287.9,580.1,288.5,579.8,289,579.2z"/>
		<path class="st6" d="M298.2,572.3l0,1.3c-0.3-0.1-0.6-0.1-0.9-0.1c-0.8,0-1.5,0.3-1.9,0.8c-0.4,0.5-0.6,1.2-0.6,1.9v5h-1.4v-6.3
			c0-0.9,0-1.7-0.1-2.5h1.3l0.1,1.6c0.2-0.6,0.6-1,1.1-1.4c0.5-0.3,1-0.5,1.7-0.5C297.7,572.2,298,572.2,298.2,572.3z"/>
		<path class="st6" d="M299.5,568.7h1.7v1.6h-1.7V568.7z M299.6,581.1v-8.8h1.4v8.8H299.6z"/>
		<path class="st6" d="M305,580h5.7v1.1h-7.4v-1l5.5-6.7h-5.3v-1.1h7v1L305,580z"/>
		<path class="st6" d="M320.3,572.4v8.8H319v-1.6c-0.3,0.5-0.6,1-1.2,1.3c-0.5,0.3-1.1,0.4-1.8,0.4c-0.8,0-1.5-0.2-2-0.6
			s-1-0.9-1.4-1.6c-0.3-0.7-0.5-1.5-0.5-2.4s0.2-1.7,0.5-2.4c0.3-0.7,0.8-1.2,1.4-1.6s1.3-0.6,2-0.6c0.7,0,1.3,0.2,1.8,0.5
			c0.5,0.3,0.9,0.7,1.2,1.3v-1.5H320.3z M318.3,579.2c0.5-0.6,0.7-1.4,0.7-2.5c0-1.1-0.2-1.9-0.7-2.5c-0.5-0.6-1.1-0.9-2-0.9
			c-0.9,0-1.5,0.3-2,0.9c-0.5,0.6-0.7,1.4-0.7,2.5s0.2,1.9,0.7,2.5c0.5,0.6,1.2,0.9,2,0.9C317.1,580.1,317.8,579.8,318.3,579.2z"/>
		<path class="st6" d="M325,573.5v4.8c0,0.7,0.1,1.1,0.4,1.4c0.3,0.3,0.6,0.4,1.1,0.4c0.3,0,0.6-0.1,0.9-0.2v1.2
			c-0.4,0.1-0.8,0.2-1.2,0.2c-0.8,0-1.5-0.2-2-0.7s-0.7-1.2-0.7-2.1v-5h-1.7v-1.1h1.7v-2.2l1.4-0.5v2.8h2.5v1.1H325z"/>
		<path class="st6" d="M329,568.7h1.7v1.6H329V568.7z M329.2,581.1v-8.8h1.4v8.8H329.2z"/>
		<path class="st6" d="M334.8,580.7c-0.6-0.4-1.1-0.9-1.5-1.6s-0.5-1.5-0.5-2.4c0-0.9,0.2-1.7,0.5-2.4s0.8-1.2,1.5-1.6
			c0.6-0.4,1.4-0.6,2.2-0.6s1.6,0.2,2.2,0.6c0.6,0.4,1.1,0.9,1.5,1.6s0.5,1.5,0.5,2.4c0,0.9-0.2,1.7-0.5,2.4s-0.8,1.2-1.5,1.6
			c-0.6,0.4-1.4,0.6-2.2,0.6S335.4,581.1,334.8,580.7z M339,579.2c0.5-0.6,0.7-1.4,0.7-2.5c0-1.1-0.2-1.9-0.7-2.5s-1.1-0.9-2-0.9
			c-0.9,0-1.5,0.3-2,0.9s-0.7,1.4-0.7,2.5c0,1.1,0.2,1.9,0.7,2.5s1.1,0.9,2,0.9C337.8,580.1,338.5,579.8,339,579.2z"/>
		<path class="st6" d="M350.8,575.6v5.5h-1.4v-5.4c0-0.8-0.2-1.4-0.5-1.8s-0.8-0.6-1.5-0.6c-0.8,0-1.5,0.2-2,0.7
			c-0.5,0.5-0.7,1.2-0.7,2v5h-1.4v-6.3c0-0.9,0-1.7-0.1-2.5h1.3l0.1,1.6c0.3-0.6,0.7-1,1.2-1.3c0.5-0.3,1.1-0.5,1.8-0.5
			C349.8,572.2,350.8,573.3,350.8,575.6z"/>
	</g>
	<g class="st4">
		<path class="st6" d="M268.7,589.6h5c1.3,0,2.3,0.3,3,0.9s1.1,1.5,1.1,2.5c0,1.1-0.4,1.9-1.1,2.6s-1.7,0.9-3,0.9h-3.5v5.5h-1.4
			V589.6z M273.5,595.4c0.9,0,1.6-0.2,2.1-0.6c0.5-0.4,0.7-1,0.7-1.7c0-0.7-0.2-1.3-0.7-1.7c-0.5-0.4-1.2-0.6-2.1-0.6h-3.4v4.6
			H273.5z"/>
		<path class="st6" d="M284.6,593.2l0,1.3c-0.3-0.1-0.6-0.1-0.9-0.1c-0.8,0-1.5,0.3-1.9,0.8c-0.4,0.5-0.6,1.2-0.6,1.9v5h-1.4v-6.3
			c0-0.9,0-1.7-0.1-2.5h1.3l0.1,1.6c0.2-0.6,0.6-1,1.1-1.4c0.5-0.3,1-0.5,1.7-0.5C284,593.1,284.3,593.1,284.6,593.2z"/>
		<path class="st6" d="M287.3,601.6c-0.6-0.4-1.1-0.9-1.5-1.6s-0.5-1.5-0.5-2.4c0-0.9,0.2-1.7,0.5-2.4s0.8-1.2,1.5-1.6
			c0.6-0.4,1.4-0.6,2.2-0.6c0.8,0,1.6,0.2,2.2,0.6s1.1,0.9,1.5,1.6s0.5,1.5,0.5,2.4c0,0.9-0.2,1.7-0.5,2.4s-0.8,1.2-1.5,1.6
			s-1.4,0.6-2.2,0.6C288.6,602.2,287.9,602,287.3,601.6z M291.4,600.1c0.5-0.6,0.7-1.4,0.7-2.5c0-1.1-0.2-1.9-0.7-2.5
			s-1.1-0.9-2-0.9c-0.9,0-1.5,0.3-2,0.9c-0.5,0.6-0.7,1.4-0.7,2.5c0,1.1,0.2,1.9,0.7,2.5s1.1,0.9,2,0.9S291,600.7,291.4,600.1z"/>
		<path class="st6" d="M297.2,601.6c-0.6-0.4-1.1-0.9-1.5-1.6s-0.5-1.5-0.5-2.4s0.2-1.7,0.5-2.4c0.3-0.7,0.8-1.2,1.5-1.6
			s1.4-0.6,2.3-0.6c0.6,0,1.2,0.1,1.7,0.3c0.6,0.2,1,0.5,1.4,0.8l-0.5,1c-0.4-0.3-0.9-0.6-1.3-0.8s-0.8-0.2-1.3-0.2
			c-0.9,0-1.6,0.3-2.1,0.9c-0.5,0.6-0.8,1.4-0.8,2.5c0,1.1,0.3,1.9,0.8,2.5c0.5,0.6,1.2,0.9,2.1,0.9c0.4,0,0.9-0.1,1.3-0.2
			s0.8-0.4,1.3-0.8l0.5,1c-0.4,0.3-0.8,0.6-1.4,0.8c-0.6,0.2-1.1,0.3-1.8,0.3C298.6,602.2,297.9,602,297.2,601.6z"/>
		<path class="st6" d="M311.8,597.6h-6.4c0,1.1,0.3,2,0.8,2.5c0.5,0.6,1.2,0.9,2.2,0.9c1,0,2-0.3,2.8-1l0.5,1
			c-0.4,0.4-0.9,0.6-1.5,0.9c-0.6,0.2-1.2,0.3-1.8,0.3c-1.4,0-2.4-0.4-3.2-1.2c-0.8-0.8-1.2-1.9-1.2-3.3c0-0.9,0.2-1.7,0.5-2.4
			c0.3-0.7,0.8-1.2,1.5-1.6c0.6-0.4,1.3-0.6,2.1-0.6c1.2,0,2.1,0.4,2.7,1.1c0.7,0.8,1,1.8,1,3.1V597.6z M306.2,594.8
			c-0.5,0.4-0.8,1.1-0.9,1.9h5.1c-0.1-0.8-0.3-1.5-0.7-1.9c-0.4-0.4-1-0.6-1.7-0.6C307.3,594.2,306.7,594.4,306.2,594.8z"/>
		<path class="st6" d="M313.4,601l0.5-1c0.5,0.4,1,0.6,1.4,0.8c0.5,0.2,1,0.2,1.6,0.2c0.7,0,1.2-0.1,1.5-0.3c0.3-0.2,0.5-0.6,0.5-1
			c0-0.3-0.1-0.6-0.3-0.8c-0.2-0.2-0.6-0.4-1.2-0.5L316,598c-0.7-0.2-1.3-0.5-1.7-0.9c-0.4-0.4-0.6-0.9-0.6-1.5
			c0-0.8,0.3-1.4,0.9-1.9c0.6-0.5,1.4-0.7,2.4-0.7c0.6,0,1.2,0.1,1.7,0.3c0.5,0.2,1,0.5,1.4,0.9l-0.5,1c-0.8-0.7-1.7-1-2.7-1
			c-0.6,0-1.1,0.1-1.5,0.4s-0.5,0.6-0.5,1c0,0.4,0.1,0.6,0.3,0.9c0.2,0.2,0.6,0.4,1,0.5l1.5,0.4c0.8,0.2,1.4,0.5,1.8,0.9
			s0.6,0.9,0.6,1.5c0,0.8-0.3,1.4-0.9,1.8c-0.6,0.5-1.5,0.7-2.5,0.7C315.4,602.2,314.2,601.8,313.4,601z"/>
		<path class="st6" d="M322,601l0.5-1c0.5,0.4,1,0.6,1.4,0.8c0.5,0.2,1,0.2,1.6,0.2c0.7,0,1.2-0.1,1.5-0.3c0.3-0.2,0.5-0.6,0.5-1
			c0-0.3-0.1-0.6-0.3-0.8c-0.2-0.2-0.6-0.4-1.2-0.5l-1.5-0.3c-0.7-0.2-1.3-0.5-1.7-0.9c-0.4-0.4-0.6-0.9-0.6-1.5
			c0-0.8,0.3-1.4,0.9-1.9c0.6-0.5,1.4-0.7,2.4-0.7c0.6,0,1.2,0.1,1.7,0.3c0.5,0.2,1,0.5,1.4,0.9l-0.5,1c-0.8-0.7-1.7-1-2.7-1
			c-0.6,0-1.1,0.1-1.5,0.4s-0.5,0.6-0.5,1c0,0.4,0.1,0.6,0.3,0.9c0.2,0.2,0.6,0.4,1,0.5l1.5,0.4c0.8,0.2,1.4,0.5,1.8,0.9
			s0.6,0.9,0.6,1.5c0,0.8-0.3,1.4-0.9,1.8c-0.6,0.5-1.5,0.7-2.5,0.7C324,602.2,322.9,601.8,322,601z"/>
	</g>
	<rect x="232.2" y="342.2" class="st5" width="135" height="61.5"/>
	<g class="st4">
		<path class="st6" d="M279.4,357.1l-1.4-3.2h-6.5l-1.4,3.2h-1.5l5.5-12.4h1.3l5.5,12.4H279.4z M272,352.7h5.5l-2.7-6.4L272,352.7z"
			/>
		<path class="st6" d="M290.3,348.3v8.7c0,1.3-0.3,2.3-1,3c-0.7,0.7-1.7,1-3,1c-1.3,0-2.5-0.3-3.5-0.9l0.2-1.2
			c0.6,0.3,1.1,0.5,1.6,0.7c0.5,0.1,1,0.2,1.6,0.2c0.8,0,1.5-0.2,1.9-0.7c0.4-0.4,0.6-1.1,0.6-2v-2.1c-0.3,0.6-0.7,1-1.2,1.3
			c-0.5,0.3-1.1,0.5-1.8,0.5c-0.8,0-1.5-0.2-2-0.5s-1.1-0.9-1.4-1.5c-0.3-0.7-0.5-1.4-0.5-2.3s0.2-1.6,0.5-2.3
			c0.3-0.7,0.8-1.2,1.4-1.5s1.3-0.5,2-0.5c0.7,0,1.3,0.2,1.8,0.5c0.5,0.3,0.9,0.7,1.2,1.3v-1.5H290.3z M288.2,354.8
			c0.5-0.6,0.7-1.3,0.7-2.3c0-1-0.2-1.8-0.7-2.3c-0.5-0.6-1.1-0.8-2-0.8c-0.9,0-1.5,0.3-2,0.8c-0.5,0.6-0.7,1.3-0.7,2.3
			c0,1,0.2,1.8,0.7,2.3c0.5,0.6,1.2,0.8,2,0.8C287.1,355.6,287.7,355.3,288.2,354.8z"/>
		<path class="st6" d="M300.4,352.6H294c0,1.1,0.3,2,0.8,2.5c0.5,0.6,1.2,0.9,2.2,0.9c1,0,2-0.3,2.8-1l0.5,1
			c-0.4,0.4-0.9,0.6-1.5,0.9c-0.6,0.2-1.2,0.3-1.8,0.3c-1.4,0-2.4-0.4-3.2-1.2c-0.8-0.8-1.2-1.9-1.2-3.3c0-0.9,0.2-1.7,0.5-2.4
			c0.3-0.7,0.8-1.2,1.5-1.6c0.6-0.4,1.3-0.6,2.1-0.6c1.2,0,2.1,0.4,2.7,1.1c0.7,0.8,1,1.8,1,3.1V352.6z M294.9,349.9
			c-0.5,0.4-0.8,1.1-0.9,1.9h5.1c-0.1-0.8-0.3-1.5-0.7-1.9c-0.4-0.4-1-0.6-1.7-0.6C295.9,349.2,295.4,349.4,294.9,349.9z"/>
		<path class="st6" d="M310.1,351.6v5.5h-1.4v-5.4c0-0.8-0.2-1.4-0.5-1.8c-0.3-0.4-0.8-0.6-1.5-0.6c-0.8,0-1.5,0.2-2,0.7
			c-0.5,0.5-0.7,1.2-0.7,2v5h-1.4v-6.3c0-0.9,0-1.7-0.1-2.5h1.3l0.1,1.6c0.3-0.6,0.7-1,1.2-1.3s1.1-0.5,1.8-0.5
			C309,348.1,310.1,349.3,310.1,351.6z"/>
		<path class="st6" d="M314.2,356.6c-0.6-0.4-1.1-0.9-1.5-1.6s-0.5-1.5-0.5-2.4s0.2-1.7,0.5-2.4c0.3-0.7,0.8-1.2,1.5-1.6
			s1.4-0.6,2.3-0.6c0.6,0,1.2,0.1,1.7,0.3c0.6,0.2,1,0.5,1.4,0.8l-0.5,1c-0.4-0.3-0.9-0.6-1.3-0.8s-0.8-0.2-1.3-0.2
			c-0.9,0-1.6,0.3-2.1,0.9c-0.5,0.6-0.8,1.4-0.8,2.5c0,1.1,0.3,1.9,0.8,2.5c0.5,0.6,1.2,0.9,2.1,0.9c0.4,0,0.9-0.1,1.3-0.2
			s0.8-0.4,1.3-0.8l0.5,1c-0.4,0.3-0.8,0.6-1.4,0.8c-0.6,0.2-1.1,0.3-1.8,0.3C315.6,357.2,314.8,357,314.2,356.6z"/>
		<path class="st6" d="M329.1,348.3l-4.1,9.6c-0.4,1-1,1.7-1.6,2.2s-1.5,0.8-2.4,1l-0.3-1.1c0.8-0.2,1.4-0.4,1.9-0.7
			s0.8-0.8,1.1-1.4l0.3-0.8l-3.7-8.7h1.5l3,7.2l3-7.2H329.1z"/>
	</g>
	<g class="st4">
		<path class="st6" d="M253.9,378l-1.4-3.2H246l-1.4,3.2h-1.5l5.5-12.4h1.3l5.5,12.4H253.9z M246.5,373.6h5.5l-2.7-6.4L246.5,373.6z
			"/>
		<path class="st6" d="M264.4,369.2v8.8H263v-1.5c-0.3,0.5-0.7,0.9-1.2,1.2c-0.5,0.3-1.1,0.4-1.7,0.4c-1,0-1.8-0.3-2.4-0.9
			c-0.5-0.6-0.8-1.4-0.8-2.6v-5.4h1.4v5.4c0,0.8,0.2,1.4,0.5,1.7c0.3,0.4,0.8,0.6,1.5,0.6c0.8,0,1.4-0.3,1.9-0.8
			c0.5-0.5,0.7-1.2,0.7-2v-5H264.4z"/>
		<path class="st6" d="M269,370.3v4.8c0,0.7,0.1,1.1,0.4,1.4c0.3,0.3,0.6,0.4,1.1,0.4c0.3,0,0.6-0.1,0.9-0.2v1.2
			c-0.4,0.1-0.8,0.2-1.2,0.2c-0.8,0-1.5-0.2-2-0.7s-0.7-1.2-0.7-2.1v-5h-1.7v-1.1h1.7V367l1.4-0.5v2.8h2.5v1.1H269z"/>
		<path class="st6" d="M280.7,372.5v5.5h-1.4v-5.4c0-0.8-0.2-1.4-0.5-1.8c-0.3-0.4-0.8-0.6-1.5-0.6c-0.8,0-1.5,0.2-2,0.7
			c-0.5,0.5-0.7,1.2-0.7,2v5h-1.4v-12.8h1.4v5.5c0.3-0.5,0.7-0.9,1.2-1.2c0.5-0.3,1.1-0.4,1.8-0.4
			C279.7,369,280.7,370.2,280.7,372.5z"/>
		<path class="st6" d="M284.8,377.5c-0.6-0.4-1.1-0.9-1.5-1.6s-0.5-1.5-0.5-2.4c0-0.9,0.2-1.7,0.5-2.4s0.8-1.2,1.5-1.6
			c0.6-0.4,1.4-0.6,2.2-0.6c0.8,0,1.6,0.2,2.2,0.6s1.1,0.9,1.5,1.6s0.5,1.5,0.5,2.4c0,0.9-0.2,1.7-0.5,2.4s-0.8,1.2-1.5,1.6
			s-1.4,0.6-2.2,0.6C286.2,378.1,285.5,377.9,284.8,377.5z M289,376.1c0.5-0.6,0.7-1.4,0.7-2.5c0-1.1-0.2-1.9-0.7-2.5
			s-1.1-0.9-2-0.9c-0.9,0-1.5,0.3-2,0.9c-0.5,0.6-0.7,1.4-0.7,2.5c0,1.1,0.2,1.9,0.7,2.5s1.1,0.9,2,0.9S288.6,376.6,289,376.1z"/>
		<path class="st6" d="M298.2,369.1l0,1.3c-0.3-0.1-0.6-0.1-0.9-0.1c-0.8,0-1.5,0.3-1.9,0.8c-0.4,0.5-0.6,1.2-0.6,1.9v5h-1.4v-6.3
			c0-0.9,0-1.7-0.1-2.5h1.3l0.1,1.6c0.2-0.6,0.6-1,1.1-1.4c0.5-0.3,1-0.5,1.7-0.5C297.7,369,298,369,298.2,369.1z"/>
		<path class="st6" d="M299.5,365.5h1.7v1.6h-1.7V365.5z M299.7,378v-8.8h1.4v8.8H299.7z"/>
		<path class="st6" d="M305.1,376.9h5.7v1.1h-7.4v-1l5.5-6.7h-5.3v-1.1h7v1L305.1,376.9z"/>
		<path class="st6" d="M320.4,369.2v8.8H319v-1.6c-0.3,0.5-0.6,1-1.2,1.3c-0.5,0.3-1.1,0.4-1.8,0.4c-0.8,0-1.5-0.2-2-0.6
			s-1-0.9-1.4-1.6c-0.3-0.7-0.5-1.5-0.5-2.4s0.2-1.7,0.5-2.4c0.3-0.7,0.8-1.2,1.4-1.6c0.6-0.4,1.3-0.6,2-0.6c0.7,0,1.3,0.2,1.8,0.5
			c0.5,0.3,0.9,0.7,1.2,1.3v-1.5H320.4z M318.3,376c0.5-0.6,0.7-1.4,0.7-2.5c0-1.1-0.2-1.9-0.7-2.5c-0.5-0.6-1.1-0.9-2-0.9
			c-0.9,0-1.5,0.3-2,0.9c-0.5,0.6-0.7,1.4-0.7,2.5s0.2,1.9,0.7,2.5c0.5,0.6,1.2,0.9,2,0.9C317.2,376.9,317.8,376.6,318.3,376z"/>
		<path class="st6" d="M325,370.3v4.8c0,0.7,0.1,1.1,0.4,1.4c0.3,0.3,0.6,0.4,1.1,0.4c0.3,0,0.6-0.1,0.9-0.2v1.2
			c-0.4,0.1-0.8,0.2-1.2,0.2c-0.8,0-1.5-0.2-2-0.7s-0.7-1.2-0.7-2.1v-5h-1.7v-1.1h1.7V367l1.4-0.5v2.8h2.5v1.1H325z"/>
		<path class="st6" d="M329.1,365.5h1.7v1.6h-1.7V365.5z M329.2,378v-8.8h1.4v8.8H329.2z"/>
		<path class="st6" d="M334.8,377.5c-0.6-0.4-1.1-0.9-1.5-1.6s-0.5-1.5-0.5-2.4c0-0.9,0.2-1.7,0.5-2.4s0.8-1.2,1.5-1.6
			s1.4-0.6,2.2-0.6c0.8,0,1.6,0.2,2.2,0.6c0.6,0.4,1.1,0.9,1.5,1.6s0.5,1.5,0.5,2.4c0,0.9-0.2,1.7-0.5,2.4s-0.8,1.2-1.5,1.6
			c-0.6,0.4-1.4,0.6-2.2,0.6C336.2,378.1,335.4,377.9,334.8,377.5z M339,376.1c0.5-0.6,0.7-1.4,0.7-2.5c0-1.1-0.2-1.9-0.7-2.5
			s-1.1-0.9-2-0.9c-0.9,0-1.5,0.3-2,0.9c-0.5,0.6-0.7,1.4-0.7,2.5c0,1.1,0.2,1.9,0.7,2.5s1.1,0.9,2,0.9
			C337.9,376.9,338.5,376.6,339,376.1z"/>
		<path class="st6" d="M350.9,372.5v5.5h-1.4v-5.4c0-0.8-0.2-1.4-0.5-1.8c-0.3-0.4-0.8-0.6-1.5-0.6c-0.8,0-1.5,0.2-2,0.7
			c-0.5,0.5-0.7,1.2-0.7,2v5h-1.4v-6.3c0-0.9,0-1.7-0.1-2.5h1.3l0.1,1.6c0.3-0.6,0.7-1,1.2-1.3c0.5-0.3,1.1-0.5,1.8-0.5
			C349.8,369,350.9,370.2,350.9,372.5z"/>
	</g>
	<g class="st4">
		<path class="st6" d="M268.7,386.5h5c1.3,0,2.3,0.3,3,0.9s1.1,1.5,1.1,2.5c0,1.1-0.4,1.9-1.1,2.6s-1.7,0.9-3,0.9h-3.5v5.5h-1.4
			V386.5z M273.5,392.2c0.9,0,1.6-0.2,2.1-0.6c0.5-0.4,0.7-1,0.7-1.7c0-0.7-0.2-1.3-0.7-1.7c-0.5-0.4-1.2-0.6-2.1-0.6h-3.4v4.6
			H273.5z"/>
		<path class="st6" d="M284.6,390l0,1.3c-0.3-0.1-0.6-0.1-0.9-0.1c-0.8,0-1.5,0.3-1.9,0.8c-0.4,0.5-0.6,1.2-0.6,1.9v5h-1.4v-6.3
			c0-0.9,0-1.7-0.1-2.5h1.3l0.1,1.6c0.2-0.6,0.6-1,1.1-1.4c0.5-0.3,1-0.5,1.7-0.5C284.1,389.9,284.3,389.9,284.6,390z"/>
		<path class="st6" d="M287.3,398.4c-0.6-0.4-1.1-0.9-1.5-1.6s-0.5-1.5-0.5-2.4c0-0.9,0.2-1.7,0.5-2.4s0.8-1.2,1.5-1.6
			s1.4-0.6,2.2-0.6c0.8,0,1.6,0.2,2.2,0.6c0.6,0.4,1.1,0.9,1.5,1.6s0.5,1.5,0.5,2.4c0,0.9-0.2,1.7-0.5,2.4s-0.8,1.2-1.5,1.6
			c-0.6,0.4-1.4,0.6-2.2,0.6C288.6,399,287.9,398.8,287.3,398.4z M291.5,397c0.5-0.6,0.7-1.4,0.7-2.5c0-1.1-0.2-1.9-0.7-2.5
			s-1.1-0.9-2-0.9c-0.9,0-1.5,0.3-2,0.9c-0.5,0.6-0.7,1.4-0.7,2.5c0,1.1,0.2,1.9,0.7,2.5s1.1,0.9,2,0.9
			C290.3,397.8,291,397.5,291.5,397z"/>
		<path class="st6" d="M297.3,398.4c-0.6-0.4-1.1-0.9-1.5-1.6s-0.5-1.5-0.5-2.4s0.2-1.7,0.5-2.4c0.3-0.7,0.8-1.2,1.5-1.6
			c0.6-0.4,1.4-0.6,2.3-0.6c0.6,0,1.2,0.1,1.7,0.3c0.6,0.2,1,0.5,1.4,0.8l-0.5,1c-0.4-0.3-0.9-0.6-1.3-0.8c-0.4-0.2-0.8-0.2-1.3-0.2
			c-0.9,0-1.6,0.3-2.1,0.9s-0.8,1.4-0.8,2.5c0,1.1,0.3,1.9,0.8,2.5c0.5,0.6,1.2,0.9,2.1,0.9c0.4,0,0.9-0.1,1.3-0.2
			c0.4-0.2,0.8-0.4,1.3-0.8l0.5,1c-0.4,0.3-0.8,0.6-1.4,0.8c-0.6,0.2-1.1,0.3-1.8,0.3C298.6,399,297.9,398.8,297.3,398.4z"/>
		<path class="st6" d="M311.8,394.4h-6.4c0,1.1,0.3,2,0.8,2.5c0.5,0.6,1.2,0.9,2.2,0.9c1,0,2-0.3,2.8-1l0.5,1
			c-0.4,0.4-0.9,0.6-1.5,0.9c-0.6,0.2-1.2,0.3-1.8,0.3c-1.4,0-2.4-0.4-3.2-1.2c-0.8-0.8-1.2-1.9-1.2-3.3c0-0.9,0.2-1.7,0.5-2.4
			c0.3-0.7,0.8-1.2,1.5-1.6c0.6-0.4,1.3-0.6,2.1-0.6c1.2,0,2.1,0.4,2.7,1.1c0.7,0.8,1,1.8,1,3.1V394.4z M306.3,391.7
			c-0.5,0.4-0.8,1.1-0.9,1.9h5.1c-0.1-0.8-0.3-1.5-0.7-1.9c-0.4-0.4-1-0.6-1.7-0.6S306.7,391.2,306.3,391.7z"/>
		<path class="st6" d="M313.4,397.9l0.5-1c0.5,0.4,1,0.6,1.4,0.8c0.5,0.2,1,0.2,1.6,0.2c0.7,0,1.2-0.1,1.5-0.3
			c0.3-0.2,0.5-0.6,0.5-1c0-0.3-0.1-0.6-0.3-0.8s-0.6-0.4-1.2-0.5l-1.5-0.3c-0.7-0.2-1.3-0.5-1.7-0.9c-0.4-0.4-0.6-0.9-0.6-1.5
			c0-0.8,0.3-1.4,0.9-1.9s1.4-0.7,2.4-0.7c0.6,0,1.2,0.1,1.7,0.3c0.5,0.2,1,0.5,1.4,0.9l-0.5,1c-0.8-0.7-1.7-1-2.7-1
			c-0.6,0-1.1,0.1-1.5,0.4s-0.5,0.6-0.5,1c0,0.4,0.1,0.6,0.3,0.9c0.2,0.2,0.6,0.4,1,0.5l1.5,0.4c0.8,0.2,1.4,0.5,1.8,0.9
			c0.4,0.4,0.6,0.9,0.6,1.5c0,0.8-0.3,1.4-0.9,1.8c-0.6,0.5-1.5,0.7-2.5,0.7C315.4,399,314.2,398.6,313.4,397.9z"/>
		<path class="st6" d="M322,397.9l0.5-1c0.5,0.4,1,0.6,1.4,0.8c0.5,0.2,1,0.2,1.6,0.2c0.7,0,1.2-0.1,1.5-0.3s0.5-0.6,0.5-1
			c0-0.3-0.1-0.6-0.3-0.8c-0.2-0.2-0.6-0.4-1.2-0.5l-1.5-0.3c-0.7-0.2-1.3-0.5-1.7-0.9c-0.4-0.4-0.6-0.9-0.6-1.5
			c0-0.8,0.3-1.4,0.9-1.9c0.6-0.5,1.4-0.7,2.4-0.7c0.6,0,1.2,0.1,1.7,0.3c0.5,0.2,1,0.5,1.4,0.9l-0.5,1c-0.8-0.7-1.7-1-2.7-1
			c-0.6,0-1.1,0.1-1.5,0.4s-0.5,0.6-0.5,1c0,0.4,0.1,0.6,0.3,0.9c0.2,0.2,0.6,0.4,1,0.5l1.5,0.4c0.8,0.2,1.4,0.5,1.8,0.9
			c0.4,0.4,0.6,0.9,0.6,1.5c0,0.8-0.3,1.4-0.9,1.8s-1.5,0.7-2.5,0.7C324.1,399,322.9,398.6,322,397.9z"/>
	</g>
	<rect x="24.9" y="555.8" class="st5" width="135" height="40.6"/>
	<g class="st4">
		<path class="st6" d="M43,570.7v-12.4h7.7v1.2h-6.3v4.3h5.9v1.2h-5.9v5.7H43z"/>
		<path class="st6" d="M59.8,561.9v8.8h-1.4v-1.5c-0.3,0.5-0.7,0.9-1.2,1.2c-0.5,0.3-1.1,0.4-1.7,0.4c-1,0-1.8-0.3-2.4-0.9
			c-0.5-0.6-0.8-1.4-0.8-2.6v-5.4h1.4v5.4c0,0.8,0.2,1.4,0.5,1.7c0.3,0.4,0.8,0.6,1.5,0.6c0.8,0,1.4-0.3,1.9-0.8
			c0.5-0.5,0.7-1.2,0.7-2v-5H59.8z"/>
		<path class="st6" d="M62.5,570.7v-12.8H64v12.8H62.5z"/>
		<path class="st6" d="M66.7,570.7v-12.8h1.4v12.8H66.7z"/>
		<path class="st6" d="M74.9,569.3l0.5-1.1c0.6,0.5,1.2,0.9,1.9,1.1s1.4,0.3,2.2,0.3c1,0,1.8-0.2,2.3-0.6s0.8-0.9,0.8-1.6
			c0-0.4-0.1-0.8-0.4-1c-0.3-0.3-0.6-0.5-1-0.6c-0.4-0.2-1-0.3-1.7-0.5c-1-0.2-1.7-0.4-2.4-0.7c-0.6-0.2-1.1-0.6-1.5-1.1
			c-0.4-0.5-0.6-1.1-0.6-1.8c0-0.7,0.2-1.3,0.6-1.9c0.4-0.5,0.9-1,1.6-1.3c0.7-0.3,1.5-0.5,2.4-0.5c0.9,0,1.7,0.1,2.4,0.4
			s1.4,0.7,1.9,1.2l-0.6,1.1c-0.6-0.5-1.2-0.9-1.8-1.1c-0.6-0.2-1.3-0.3-2-0.3c-1,0-1.7,0.2-2.3,0.6c-0.5,0.4-0.8,1-0.8,1.7
			c0,0.6,0.2,1.1,0.7,1.4c0.5,0.3,1.2,0.6,2.2,0.8c1.1,0.3,1.9,0.5,2.5,0.7c0.6,0.2,1.1,0.5,1.5,1s0.6,1,0.6,1.7
			c0,0.7-0.2,1.3-0.6,1.8c-0.4,0.5-0.9,0.9-1.6,1.2c-0.7,0.3-1.5,0.4-2.4,0.4C77.6,570.8,76,570.3,74.9,569.3z"/>
		<path class="st6" d="M93.6,566.3h-6.4c0,1.1,0.3,2,0.8,2.5c0.5,0.6,1.2,0.9,2.2,0.9c1,0,2-0.3,2.8-1l0.5,1
			c-0.4,0.4-0.9,0.6-1.5,0.9c-0.6,0.2-1.2,0.3-1.8,0.3c-1.4,0-2.4-0.4-3.2-1.2c-0.8-0.8-1.2-1.9-1.2-3.3c0-0.9,0.2-1.7,0.5-2.4
			c0.3-0.7,0.8-1.2,1.5-1.6c0.6-0.4,1.3-0.6,2.1-0.6c1.2,0,2.1,0.4,2.7,1.1c0.7,0.8,1,1.8,1,3.1V566.3z M88.1,563.5
			c-0.5,0.4-0.8,1.1-0.9,1.9h5.1c-0.1-0.8-0.3-1.5-0.7-1.9c-0.4-0.4-1-0.6-1.7-0.6C89.1,562.8,88.6,563,88.1,563.5z"/>
		<path class="st6" d="M97.2,570.3c-0.6-0.4-1.1-0.9-1.5-1.6s-0.5-1.5-0.5-2.4s0.2-1.7,0.5-2.4c0.3-0.7,0.8-1.2,1.5-1.6
			s1.4-0.6,2.3-0.6c0.6,0,1.2,0.1,1.7,0.3c0.6,0.2,1,0.5,1.4,0.8l-0.5,1c-0.4-0.3-0.9-0.6-1.3-0.8s-0.8-0.2-1.3-0.2
			c-0.9,0-1.6,0.3-2.1,0.9c-0.5,0.6-0.8,1.4-0.8,2.5c0,1.1,0.3,1.9,0.8,2.5c0.5,0.6,1.2,0.9,2.1,0.9c0.4,0,0.9-0.1,1.3-0.2
			s0.8-0.4,1.3-0.8l0.5,1c-0.4,0.3-0.8,0.6-1.4,0.8c-0.6,0.2-1.1,0.3-1.8,0.3C98.6,570.8,97.8,570.6,97.2,570.3z"/>
		<path class="st6" d="M111.7,561.9v8.8h-1.4v-1.5c-0.3,0.5-0.7,0.9-1.2,1.2c-0.5,0.3-1.1,0.4-1.7,0.4c-1,0-1.8-0.3-2.4-0.9
			c-0.5-0.6-0.8-1.4-0.8-2.6v-5.4h1.4v5.4c0,0.8,0.2,1.4,0.5,1.7c0.3,0.4,0.8,0.6,1.5,0.6c0.8,0,1.4-0.3,1.9-0.8
			c0.5-0.5,0.7-1.2,0.7-2v-5H111.7z"/>
		<path class="st6" d="M119.3,561.8l0,1.3c-0.3-0.1-0.6-0.1-0.9-0.1c-0.8,0-1.5,0.3-1.9,0.8c-0.4,0.5-0.6,1.2-0.6,1.9v5h-1.4v-6.3
			c0-0.9,0-1.7-0.1-2.5h1.3l0.1,1.6c0.2-0.6,0.6-1,1.1-1.4c0.5-0.3,1-0.5,1.7-0.5C118.8,561.7,119.1,561.8,119.3,561.8z"/>
		<path class="st6" d="M120.6,558.2h1.7v1.6h-1.7V558.2z M120.7,570.7v-8.8h1.4v8.8H120.7z"/>
		<path class="st6" d="M126.8,563v4.8c0,0.7,0.1,1.1,0.4,1.4c0.3,0.3,0.6,0.4,1.1,0.4c0.3,0,0.6-0.1,0.9-0.2v1.2
			c-0.4,0.1-0.8,0.2-1.2,0.2c-0.8,0-1.5-0.2-2-0.7s-0.7-1.2-0.7-2.1v-5h-1.7v-1.1h1.7v-2.2l1.4-0.5v2.8h2.5v1.1H126.8z"/>
		<path class="st6" d="M138.8,561.9l-4.1,9.6c-0.4,1-1,1.7-1.6,2.2s-1.5,0.8-2.4,1l-0.3-1.1c0.8-0.2,1.4-0.4,1.9-0.7
			s0.8-0.8,1.1-1.4l0.3-0.8l-3.7-8.7h1.5l3,7.2l3-7.2H138.8z"/>
	</g>
	<g class="st4">
		<path class="st6" d="M52.8,591.6l-1.4-3.2H45l-1.4,3.2h-1.5l5.5-12.4h1.3l5.5,12.4H52.8z M45.5,587.2h5.5l-2.7-6.4L45.5,587.2z"/>
		<path class="st6" d="M55.3,590.6l0.5-1c0.5,0.4,1,0.6,1.4,0.8c0.5,0.2,1,0.2,1.6,0.2c0.7,0,1.2-0.1,1.5-0.3s0.5-0.6,0.5-1
			c0-0.3-0.1-0.6-0.3-0.8c-0.2-0.2-0.6-0.4-1.2-0.5l-1.5-0.3c-0.7-0.2-1.3-0.5-1.7-0.9c-0.4-0.4-0.6-0.9-0.6-1.5
			c0-0.8,0.3-1.4,0.9-1.9c0.6-0.5,1.4-0.7,2.4-0.7c0.6,0,1.2,0.1,1.7,0.3c0.5,0.2,1,0.5,1.4,0.9l-0.5,1c-0.8-0.7-1.7-1-2.7-1
			c-0.6,0-1.1,0.1-1.5,0.4s-0.5,0.6-0.5,1c0,0.4,0.1,0.6,0.3,0.9c0.2,0.2,0.6,0.4,1,0.5l1.5,0.4c0.8,0.2,1.4,0.5,1.8,0.9
			c0.4,0.4,0.6,0.9,0.6,1.5c0,0.8-0.3,1.4-0.9,1.8s-1.5,0.7-2.5,0.7C57.3,591.7,56.2,591.3,55.3,590.6z"/>
		<path class="st6" d="M63.9,590.6l0.5-1c0.5,0.4,1,0.6,1.4,0.8c0.5,0.2,1,0.2,1.6,0.2c0.7,0,1.2-0.1,1.5-0.3c0.3-0.2,0.5-0.6,0.5-1
			c0-0.3-0.1-0.6-0.3-0.8s-0.6-0.4-1.2-0.5l-1.5-0.3c-0.7-0.2-1.3-0.5-1.7-0.9c-0.4-0.4-0.6-0.9-0.6-1.5c0-0.8,0.3-1.4,0.9-1.9
			s1.4-0.7,2.4-0.7c0.6,0,1.2,0.1,1.7,0.3c0.5,0.2,1,0.5,1.4,0.9l-0.5,1c-0.8-0.7-1.7-1-2.7-1c-0.6,0-1.1,0.1-1.5,0.4
			s-0.5,0.6-0.5,1c0,0.4,0.1,0.6,0.3,0.9c0.2,0.2,0.6,0.4,1,0.5l1.5,0.4c0.8,0.2,1.4,0.5,1.8,0.9c0.4,0.4,0.6,0.9,0.6,1.5
			c0,0.8-0.3,1.4-0.9,1.8c-0.6,0.5-1.5,0.7-2.5,0.7C66,591.7,64.8,591.3,63.9,590.6z"/>
		<path class="st6" d="M80.5,587.2H74c0,1.1,0.3,2,0.8,2.5c0.5,0.6,1.2,0.9,2.2,0.9c1,0,2-0.3,2.8-1l0.5,1c-0.4,0.4-0.9,0.6-1.5,0.9
			c-0.6,0.2-1.2,0.3-1.8,0.3c-1.4,0-2.4-0.4-3.2-1.2c-0.8-0.8-1.2-1.9-1.2-3.3c0-0.9,0.2-1.7,0.5-2.4c0.3-0.7,0.8-1.2,1.5-1.6
			c0.6-0.4,1.3-0.6,2.1-0.6c1.2,0,2.1,0.4,2.7,1.1c0.7,0.8,1,1.8,1,3.1V587.2z M75,584.4c-0.5,0.4-0.8,1.1-0.9,1.9h5.1
			c-0.1-0.8-0.3-1.5-0.7-1.9c-0.4-0.4-1-0.6-1.7-0.6S75.4,583.9,75,584.4z"/>
		<path class="st6" d="M82.1,590.6l0.5-1c0.5,0.4,1,0.6,1.4,0.8c0.5,0.2,1,0.2,1.6,0.2c0.7,0,1.2-0.1,1.5-0.3s0.5-0.6,0.5-1
			c0-0.3-0.1-0.6-0.3-0.8c-0.2-0.2-0.6-0.4-1.2-0.5l-1.5-0.3c-0.7-0.2-1.3-0.5-1.7-0.9c-0.4-0.4-0.6-0.9-0.6-1.5
			c0-0.8,0.3-1.4,0.9-1.9c0.6-0.5,1.4-0.7,2.4-0.7c0.6,0,1.2,0.1,1.7,0.3c0.5,0.2,1,0.5,1.4,0.9l-0.5,1c-0.8-0.7-1.7-1-2.7-1
			c-0.6,0-1.1,0.1-1.5,0.4s-0.5,0.6-0.5,1c0,0.4,0.1,0.6,0.3,0.9c0.2,0.2,0.6,0.4,1,0.5l1.5,0.4c0.8,0.2,1.4,0.5,1.8,0.9
			c0.4,0.4,0.6,0.9,0.6,1.5c0,0.8-0.3,1.4-0.9,1.8s-1.5,0.7-2.5,0.7C84.1,591.7,82.9,591.3,82.1,590.6z"/>
		<path class="st6" d="M90.7,590.6l0.5-1c0.5,0.4,1,0.6,1.4,0.8c0.5,0.2,1,0.2,1.6,0.2c0.7,0,1.2-0.1,1.5-0.3s0.5-0.6,0.5-1
			c0-0.3-0.1-0.6-0.3-0.8c-0.2-0.2-0.6-0.4-1.2-0.5l-1.5-0.3c-0.7-0.2-1.3-0.5-1.7-0.9c-0.4-0.4-0.6-0.9-0.6-1.5
			c0-0.8,0.3-1.4,0.9-1.9c0.6-0.5,1.4-0.7,2.4-0.7c0.6,0,1.2,0.1,1.7,0.3c0.5,0.2,1,0.5,1.4,0.9l-0.5,1c-0.8-0.7-1.7-1-2.7-1
			c-0.6,0-1.1,0.1-1.5,0.4s-0.5,0.6-0.5,1c0,0.4,0.1,0.6,0.3,0.9c0.2,0.2,0.6,0.4,1,0.5l1.5,0.4c0.8,0.2,1.4,0.5,1.8,0.9
			c0.4,0.4,0.6,0.9,0.6,1.5c0,0.8-0.3,1.4-0.9,1.8s-1.5,0.7-2.5,0.7C92.7,591.7,91.6,591.3,90.7,590.6z"/>
		<path class="st6" d="M112.5,586.1v5.5h-1.4v-5.4c0-0.8-0.1-1.4-0.4-1.8c-0.3-0.4-0.7-0.6-1.4-0.6c-0.7,0-1.3,0.2-1.7,0.7
			c-0.4,0.5-0.6,1.2-0.6,2v5h-1.4v-5.4c0-0.8-0.1-1.4-0.4-1.8c-0.3-0.4-0.8-0.6-1.4-0.6c-0.7,0-1.3,0.2-1.8,0.7
			c-0.4,0.5-0.6,1.2-0.6,2v5h-1.4v-6.3c0-0.9,0-1.7-0.1-2.5h1.3l0.1,1.5c0.2-0.6,0.6-1,1.1-1.3c0.5-0.3,1-0.5,1.7-0.5
			c0.7,0,1.3,0.1,1.7,0.4c0.4,0.3,0.8,0.7,1,1.3c0.3-0.5,0.7-0.9,1.2-1.2c0.5-0.3,1.1-0.5,1.8-0.5
			C111.6,582.6,112.5,583.8,112.5,586.1z"/>
		<path class="st6" d="M122.6,587.2h-6.4c0,1.1,0.3,2,0.8,2.5s1.2,0.9,2.2,0.9c1,0,2-0.3,2.8-1l0.5,1c-0.4,0.4-0.9,0.6-1.5,0.9
			c-0.6,0.2-1.2,0.3-1.8,0.3c-1.4,0-2.4-0.4-3.2-1.2c-0.8-0.8-1.2-1.9-1.2-3.3c0-0.9,0.2-1.7,0.5-2.4c0.3-0.7,0.8-1.2,1.5-1.6
			s1.3-0.6,2.1-0.6c1.2,0,2.1,0.4,2.7,1.1c0.7,0.8,1,1.8,1,3.1V587.2z M117.1,584.4c-0.5,0.4-0.8,1.1-0.9,1.9h5.1
			c-0.1-0.8-0.3-1.5-0.7-1.9c-0.4-0.4-1-0.6-1.7-0.6C118.1,583.7,117.5,583.9,117.1,584.4z"/>
		<path class="st6" d="M132.2,586.1v5.5h-1.4v-5.4c0-0.8-0.2-1.4-0.5-1.8c-0.3-0.4-0.8-0.6-1.5-0.6c-0.8,0-1.5,0.2-2,0.7
			c-0.5,0.5-0.7,1.2-0.7,2v5h-1.4v-6.3c0-0.9,0-1.7-0.1-2.5h1.3l0.1,1.6c0.3-0.6,0.7-1,1.2-1.3c0.5-0.3,1.1-0.5,1.8-0.5
			C131.2,582.6,132.2,583.8,132.2,586.1z"/>
		<path class="st6" d="M136.8,583.9v4.8c0,0.7,0.1,1.1,0.4,1.4c0.3,0.3,0.6,0.4,1.1,0.4c0.3,0,0.6-0.1,0.9-0.2v1.2
			c-0.4,0.1-0.8,0.2-1.2,0.2c-0.8,0-1.5-0.2-2-0.7s-0.7-1.2-0.7-2.1v-5h-1.7v-1.1h1.7v-2.2l1.4-0.5v2.8h2.5v1.1H136.8z"/>
	</g>
	<rect x="24.9" y="354.6" class="st5" width="135" height="40.6"/>
	<g class="st4">
		<path class="st6" d="M43,369.5v-12.4h7.7v1.2h-6.3v4.3h5.9v1.2h-5.9v5.7H43z"/>
		<path class="st6" d="M59.8,360.8v8.8h-1.4V368c-0.3,0.5-0.7,0.9-1.2,1.2c-0.5,0.3-1.1,0.4-1.7,0.4c-1,0-1.8-0.3-2.4-0.9
			c-0.5-0.6-0.8-1.4-0.8-2.6v-5.4h1.4v5.4c0,0.8,0.2,1.4,0.5,1.7c0.3,0.4,0.8,0.6,1.5,0.6c0.8,0,1.4-0.3,1.9-0.8
			c0.5-0.5,0.7-1.2,0.7-2v-5H59.8z"/>
		<path class="st6" d="M62.5,369.5v-12.8H64v12.8H62.5z"/>
		<path class="st6" d="M66.7,369.5v-12.8h1.4v12.8H66.7z"/>
		<path class="st6" d="M74.9,368.1l0.5-1.1c0.6,0.5,1.2,0.9,1.9,1.1s1.4,0.3,2.2,0.3c1,0,1.8-0.2,2.3-0.6s0.8-0.9,0.8-1.6
			c0-0.4-0.1-0.8-0.4-1c-0.3-0.3-0.6-0.5-1-0.6c-0.4-0.2-1-0.3-1.7-0.5c-1-0.2-1.7-0.4-2.4-0.7c-0.6-0.2-1.1-0.6-1.5-1.1
			c-0.4-0.5-0.6-1.1-0.6-1.8c0-0.7,0.2-1.3,0.6-1.9c0.4-0.5,0.9-1,1.6-1.3c0.7-0.3,1.5-0.5,2.4-0.5c0.9,0,1.7,0.1,2.4,0.4
			s1.4,0.7,1.9,1.2l-0.6,1.1c-0.6-0.5-1.2-0.9-1.8-1.1c-0.6-0.2-1.3-0.3-2-0.3c-1,0-1.7,0.2-2.3,0.6c-0.5,0.4-0.8,1-0.8,1.7
			c0,0.6,0.2,1.1,0.7,1.4c0.5,0.3,1.2,0.6,2.2,0.8c1.1,0.3,1.9,0.5,2.5,0.7c0.6,0.2,1.1,0.5,1.5,1s0.6,1,0.6,1.7
			c0,0.7-0.2,1.3-0.6,1.8c-0.4,0.5-0.9,0.9-1.6,1.2c-0.7,0.3-1.5,0.4-2.4,0.4C77.6,369.7,76,369.2,74.9,368.1z"/>
		<path class="st6" d="M93.6,365.1h-6.4c0,1.1,0.3,2,0.8,2.5c0.5,0.6,1.2,0.9,2.2,0.9c1,0,2-0.3,2.8-1l0.5,1
			c-0.4,0.4-0.9,0.6-1.5,0.9c-0.6,0.2-1.2,0.3-1.8,0.3c-1.4,0-2.4-0.4-3.2-1.2c-0.8-0.8-1.2-1.9-1.2-3.3c0-0.9,0.2-1.7,0.5-2.4
			c0.3-0.7,0.8-1.2,1.5-1.6c0.6-0.4,1.3-0.6,2.1-0.6c1.2,0,2.1,0.4,2.7,1.1c0.7,0.8,1,1.8,1,3.1V365.1z M88.1,362.3
			c-0.5,0.4-0.8,1.1-0.9,1.9h5.1c-0.1-0.8-0.3-1.5-0.7-1.9c-0.4-0.4-1-0.6-1.7-0.6C89.1,361.7,88.6,361.9,88.1,362.3z"/>
		<path class="st6" d="M97.2,369.1c-0.6-0.4-1.1-0.9-1.5-1.6s-0.5-1.5-0.5-2.4s0.2-1.7,0.5-2.4c0.3-0.7,0.8-1.2,1.5-1.6
			s1.4-0.6,2.3-0.6c0.6,0,1.2,0.1,1.7,0.3c0.6,0.2,1,0.5,1.4,0.8l-0.5,1c-0.4-0.3-0.9-0.6-1.3-0.8s-0.8-0.2-1.3-0.2
			c-0.9,0-1.6,0.3-2.1,0.9c-0.5,0.6-0.8,1.4-0.8,2.5c0,1.1,0.3,1.9,0.8,2.5c0.5,0.6,1.2,0.9,2.1,0.9c0.4,0,0.9-0.1,1.3-0.2
			s0.8-0.4,1.3-0.8l0.5,1c-0.4,0.3-0.8,0.6-1.4,0.8c-0.6,0.2-1.1,0.3-1.8,0.3C98.6,369.7,97.8,369.5,97.2,369.1z"/>
		<path class="st6" d="M111.7,360.8v8.8h-1.4V368c-0.3,0.5-0.7,0.9-1.2,1.2c-0.5,0.3-1.1,0.4-1.7,0.4c-1,0-1.8-0.3-2.4-0.9
			c-0.5-0.6-0.8-1.4-0.8-2.6v-5.4h1.4v5.4c0,0.8,0.2,1.4,0.5,1.7c0.3,0.4,0.8,0.6,1.5,0.6c0.8,0,1.4-0.3,1.9-0.8
			c0.5-0.5,0.7-1.2,0.7-2v-5H111.7z"/>
		<path class="st6" d="M119.3,360.7l0,1.3c-0.3-0.1-0.6-0.1-0.9-0.1c-0.8,0-1.5,0.3-1.9,0.8c-0.4,0.5-0.6,1.2-0.6,1.9v5h-1.4v-6.3
			c0-0.9,0-1.7-0.1-2.5h1.3l0.1,1.6c0.2-0.6,0.6-1,1.1-1.4c0.5-0.3,1-0.5,1.7-0.5C118.8,360.6,119.1,360.6,119.3,360.7z"/>
		<path class="st6" d="M120.6,357.1h1.7v1.6h-1.7V357.1z M120.7,369.5v-8.8h1.4v8.8H120.7z"/>
		<path class="st6" d="M126.8,361.9v4.8c0,0.7,0.1,1.1,0.4,1.4c0.3,0.3,0.6,0.4,1.1,0.4c0.3,0,0.6-0.1,0.9-0.2v1.2
			c-0.4,0.1-0.8,0.2-1.2,0.2c-0.8,0-1.5-0.2-2-0.7s-0.7-1.2-0.7-2.1v-5h-1.7v-1.1h1.7v-2.2l1.4-0.5v2.8h2.5v1.1H126.8z"/>
		<path class="st6" d="M138.8,360.8l-4.1,9.6c-0.4,1-1,1.7-1.6,2.2s-1.5,0.8-2.4,1l-0.3-1.1c0.8-0.2,1.4-0.4,1.9-0.7
			s0.8-0.8,1.1-1.4l0.3-0.8l-3.7-8.7h1.5l3,7.2l3-7.2H138.8z"/>
	</g>
	<g class="st4">
		<path class="st6" d="M52.8,390.4l-1.4-3.2H45l-1.4,3.2h-1.5l5.5-12.4h1.3l5.5,12.4H52.8z M45.5,386.1h5.5l-2.7-6.4L45.5,386.1z"/>
		<path class="st6" d="M55.3,389.4l0.5-1c0.5,0.4,1,0.6,1.4,0.8c0.5,0.2,1,0.2,1.6,0.2c0.7,0,1.2-0.1,1.5-0.3s0.5-0.6,0.5-1
			c0-0.3-0.1-0.6-0.3-0.8c-0.2-0.2-0.6-0.4-1.2-0.5l-1.5-0.3c-0.7-0.2-1.3-0.5-1.7-0.9c-0.4-0.4-0.6-0.9-0.6-1.5
			c0-0.8,0.3-1.4,0.9-1.9c0.6-0.5,1.4-0.7,2.4-0.7c0.6,0,1.2,0.1,1.7,0.3c0.5,0.2,1,0.5,1.4,0.9l-0.5,1c-0.8-0.7-1.7-1-2.7-1
			c-0.6,0-1.1,0.1-1.5,0.4s-0.5,0.6-0.5,1c0,0.4,0.1,0.6,0.3,0.9c0.2,0.2,0.6,0.4,1,0.5l1.5,0.4c0.8,0.2,1.4,0.5,1.8,0.9
			c0.4,0.4,0.6,0.9,0.6,1.5c0,0.8-0.3,1.4-0.9,1.8s-1.5,0.7-2.5,0.7C57.3,390.6,56.2,390.2,55.3,389.4z"/>
		<path class="st6" d="M63.9,389.4l0.5-1c0.5,0.4,1,0.6,1.4,0.8c0.5,0.2,1,0.2,1.6,0.2c0.7,0,1.2-0.1,1.5-0.3c0.3-0.2,0.5-0.6,0.5-1
			c0-0.3-0.1-0.6-0.3-0.8s-0.6-0.4-1.2-0.5l-1.5-0.3c-0.7-0.2-1.3-0.5-1.7-0.9c-0.4-0.4-0.6-0.9-0.6-1.5c0-0.8,0.3-1.4,0.9-1.9
			s1.4-0.7,2.4-0.7c0.6,0,1.2,0.1,1.7,0.3c0.5,0.2,1,0.5,1.4,0.9l-0.5,1c-0.8-0.7-1.7-1-2.7-1c-0.6,0-1.1,0.1-1.5,0.4
			s-0.5,0.6-0.5,1c0,0.4,0.1,0.6,0.3,0.9c0.2,0.2,0.6,0.4,1,0.5l1.5,0.4c0.8,0.2,1.4,0.5,1.8,0.9c0.4,0.4,0.6,0.9,0.6,1.5
			c0,0.8-0.3,1.4-0.9,1.8c-0.6,0.5-1.5,0.7-2.5,0.7C66,390.6,64.8,390.2,63.9,389.4z"/>
		<path class="st6" d="M80.5,386H74c0,1.1,0.3,2,0.8,2.5c0.5,0.6,1.2,0.9,2.2,0.9c1,0,2-0.3,2.8-1l0.5,1c-0.4,0.4-0.9,0.6-1.5,0.9
			c-0.6,0.2-1.2,0.3-1.8,0.3c-1.4,0-2.4-0.4-3.2-1.2c-0.8-0.8-1.2-1.9-1.2-3.3c0-0.9,0.2-1.7,0.5-2.4c0.3-0.7,0.8-1.2,1.5-1.6
			c0.6-0.4,1.3-0.6,2.1-0.6c1.2,0,2.1,0.4,2.7,1.1c0.7,0.8,1,1.8,1,3.1V386z M75,383.2c-0.5,0.4-0.8,1.1-0.9,1.9h5.1
			c-0.1-0.8-0.3-1.5-0.7-1.9c-0.4-0.4-1-0.6-1.7-0.6S75.4,382.8,75,383.2z"/>
		<path class="st6" d="M82.1,389.4l0.5-1c0.5,0.4,1,0.6,1.4,0.8c0.5,0.2,1,0.2,1.6,0.2c0.7,0,1.2-0.1,1.5-0.3s0.5-0.6,0.5-1
			c0-0.3-0.1-0.6-0.3-0.8c-0.2-0.2-0.6-0.4-1.2-0.5l-1.5-0.3c-0.7-0.2-1.3-0.5-1.7-0.9c-0.4-0.4-0.6-0.9-0.6-1.5
			c0-0.8,0.3-1.4,0.9-1.9c0.6-0.5,1.4-0.7,2.4-0.7c0.6,0,1.2,0.1,1.7,0.3c0.5,0.2,1,0.5,1.4,0.9l-0.5,1c-0.8-0.7-1.7-1-2.7-1
			c-0.6,0-1.1,0.1-1.5,0.4s-0.5,0.6-0.5,1c0,0.4,0.1,0.6,0.3,0.9c0.2,0.2,0.6,0.4,1,0.5l1.5,0.4c0.8,0.2,1.4,0.5,1.8,0.9
			c0.4,0.4,0.6,0.9,0.6,1.5c0,0.8-0.3,1.4-0.9,1.8s-1.5,0.7-2.5,0.7C84.1,390.6,82.9,390.2,82.1,389.4z"/>
		<path class="st6" d="M90.7,389.4l0.5-1c0.5,0.4,1,0.6,1.4,0.8c0.5,0.2,1,0.2,1.6,0.2c0.7,0,1.2-0.1,1.5-0.3s0.5-0.6,0.5-1
			c0-0.3-0.1-0.6-0.3-0.8c-0.2-0.2-0.6-0.4-1.2-0.5l-1.5-0.3c-0.7-0.2-1.3-0.5-1.7-0.9c-0.4-0.4-0.6-0.9-0.6-1.5
			c0-0.8,0.3-1.4,0.9-1.9c0.6-0.5,1.4-0.7,2.4-0.7c0.6,0,1.2,0.1,1.7,0.3c0.5,0.2,1,0.5,1.4,0.9l-0.5,1c-0.8-0.7-1.7-1-2.7-1
			c-0.6,0-1.1,0.1-1.5,0.4s-0.5,0.6-0.5,1c0,0.4,0.1,0.6,0.3,0.9c0.2,0.2,0.6,0.4,1,0.5l1.5,0.4c0.8,0.2,1.4,0.5,1.8,0.9
			c0.4,0.4,0.6,0.9,0.6,1.5c0,0.8-0.3,1.4-0.9,1.8s-1.5,0.7-2.5,0.7C92.7,390.6,91.6,390.2,90.7,389.4z"/>
		<path class="st6" d="M112.5,384.9v5.5h-1.4V385c0-0.8-0.1-1.4-0.4-1.8c-0.3-0.4-0.7-0.6-1.4-0.6c-0.7,0-1.3,0.2-1.7,0.7
			c-0.4,0.5-0.6,1.2-0.6,2v5h-1.4V385c0-0.8-0.1-1.4-0.4-1.8c-0.3-0.4-0.8-0.6-1.4-0.6c-0.7,0-1.3,0.2-1.8,0.7
			c-0.4,0.5-0.6,1.2-0.6,2v5h-1.4v-6.3c0-0.9,0-1.7-0.1-2.5h1.3l0.1,1.5c0.2-0.6,0.6-1,1.1-1.3c0.5-0.3,1-0.5,1.7-0.5
			c0.7,0,1.3,0.1,1.7,0.4c0.4,0.3,0.8,0.7,1,1.3c0.3-0.5,0.7-0.9,1.2-1.2c0.5-0.3,1.1-0.5,1.8-0.5
			C111.6,381.5,112.5,382.6,112.5,384.9z"/>
		<path class="st6" d="M122.6,386h-6.4c0,1.1,0.3,2,0.8,2.5s1.2,0.9,2.2,0.9c1,0,2-0.3,2.8-1l0.5,1c-0.4,0.4-0.9,0.6-1.5,0.9
			c-0.6,0.2-1.2,0.3-1.8,0.3c-1.4,0-2.4-0.4-3.2-1.2c-0.8-0.8-1.2-1.9-1.2-3.3c0-0.9,0.2-1.7,0.5-2.4c0.3-0.7,0.8-1.2,1.5-1.6
			s1.3-0.6,2.1-0.6c1.2,0,2.1,0.4,2.7,1.1c0.7,0.8,1,1.8,1,3.1V386z M117.1,383.2c-0.5,0.4-0.8,1.1-0.9,1.9h5.1
			c-0.1-0.8-0.3-1.5-0.7-1.9c-0.4-0.4-1-0.6-1.7-0.6C118.1,382.6,117.5,382.8,117.1,383.2z"/>
		<path class="st6" d="M132.2,384.9v5.5h-1.4V385c0-0.8-0.2-1.4-0.5-1.8c-0.3-0.4-0.8-0.6-1.5-0.6c-0.8,0-1.5,0.2-2,0.7
			c-0.5,0.5-0.7,1.2-0.7,2v5h-1.4v-6.3c0-0.9,0-1.7-0.1-2.5h1.3l0.1,1.6c0.3-0.6,0.7-1,1.2-1.3c0.5-0.3,1.1-0.5,1.8-0.5
			C131.2,381.5,132.2,382.6,132.2,384.9z"/>
		<path class="st6" d="M136.8,382.8v4.8c0,0.7,0.1,1.1,0.4,1.4c0.3,0.3,0.6,0.4,1.1,0.4c0.3,0,0.6-0.1,0.9-0.2v1.2
			c-0.4,0.1-0.8,0.2-1.2,0.2c-0.8,0-1.5-0.2-2-0.7s-0.7-1.2-0.7-2.1v-5h-1.7v-1.1h1.7v-2.2l1.4-0.5v2.8h2.5v1.1H136.8z"/>
	</g>
	<g class="st4">
		<path class="st7" d="M96.6,231.6c0.5,0.1,0.9,0.1,1.1,0.1c0.5,0,0.8-0.1,0.9-0.3s0.2-0.5,0.2-1.1v-10.2h2.9v10.1
			c0,1.3-0.3,2.2-0.8,2.9c-0.5,0.6-1.4,0.9-2.7,0.9c-0.5,0-1.1,0-1.7-0.1V231.6z"/>
		<path class="st7" d="M112.2,231.2l-1-2.3h-4.9l-1,2.3h-2.9l5.1-11h2.3l5.2,11H112.2z M107.3,226.7h3l-1.5-3.5L107.3,226.7z"/>
		<path class="st7" d="M124.6,226.5c0.4,0.5,0.5,1,0.5,1.7c0,0.6-0.2,1.1-0.5,1.6s-0.8,0.8-1.4,1s-1.3,0.4-2.1,0.4h-5.5v-11h5.3
			c1.2,0,2.1,0.3,2.7,0.8s1,1.2,1,2.1c0,0.6-0.1,1.1-0.4,1.5c-0.3,0.4-0.7,0.7-1.3,0.9C123.8,225.7,124.2,226,124.6,226.5z
			 M118.5,224.5h2c0.5,0,0.9-0.1,1.2-0.2c0.2-0.2,0.4-0.4,0.4-0.8c0-0.4-0.1-0.6-0.4-0.8c-0.3-0.2-0.6-0.3-1.2-0.3h-2V224.5z
			 M122,228.7c0.2-0.2,0.4-0.5,0.4-0.9c0-0.4-0.1-0.7-0.4-0.9c-0.2-0.2-0.6-0.3-1.2-0.3h-2.3v2.3h2.3
			C121.4,229,121.8,228.9,122,228.7z"/>
		<path class="st7" d="M131,220.2h5.2c1.3,0,2.2,0.3,2.9,0.9c0.7,0.6,1,1.4,1,2.4c0,1-0.4,1.8-1.1,2.4c-0.7,0.6-1.7,0.9-2.9,0.9
			h-2.3v4.3H131V220.2z M135.9,224.7c1.1,0,1.6-0.4,1.6-1.2c0-0.4-0.1-0.7-0.4-0.9c-0.3-0.2-0.7-0.3-1.2-0.3h-1.9v2.3H135.9z"/>
		<path class="st7" d="M151.2,231.2h-3.1l-1.4-3.7c-0.2-0.4-0.6-0.6-1.2-0.6h-1.1v4.3h-2.9v-11h5.1c1.3,0,2.3,0.3,3,0.9
			c0.7,0.6,1,1.4,1,2.4c0,0.7-0.2,1.4-0.6,1.9c-0.4,0.5-1,0.9-1.7,1.2c0.3,0.1,0.6,0.2,0.8,0.4s0.4,0.5,0.6,0.9L151.2,231.2z
			 M147.6,224.5c0.3-0.2,0.4-0.5,0.4-0.9c0-0.4-0.1-0.7-0.4-0.9s-0.7-0.3-1.4-0.3h-1.8v2.4h1.8C146.9,224.7,147.3,224.6,147.6,224.5
			z"/>
		<path class="st7" d="M154.9,230.6c-0.8-0.5-1.5-1.1-1.9-2c-0.4-0.9-0.7-1.9-0.7-3c0-1.1,0.2-2.1,0.7-3c0.5-0.8,1.1-1.5,1.9-2
			c0.8-0.5,1.8-0.7,2.9-0.7s2.1,0.2,2.9,0.7c0.8,0.5,1.5,1.1,1.9,2c0.4,0.8,0.7,1.8,0.7,3c0,1.1-0.2,2.1-0.7,3
			c-0.4,0.9-1.1,1.5-1.9,2c-0.8,0.5-1.8,0.7-2.9,0.7S155.7,231.1,154.9,230.6z M159.7,228.2c0.5-0.6,0.7-1.4,0.7-2.6
			c0-1.1-0.2-2-0.7-2.5c-0.5-0.6-1.1-0.9-1.9-0.9c-0.8,0-1.5,0.3-1.9,0.9c-0.5,0.6-0.7,1.4-0.7,2.5c0,1.1,0.2,2,0.7,2.6
			c0.5,0.6,1.1,0.9,1.9,0.9C158.6,229.1,159.3,228.8,159.7,228.2z"/>
		<path class="st7" d="M167.4,230.6c-0.8-0.5-1.5-1.1-2-2c-0.5-0.9-0.7-1.8-0.7-3c0-1.1,0.2-2.1,0.7-2.9c0.5-0.8,1.1-1.5,2-2
			c0.8-0.5,1.8-0.7,3-0.7c0.7,0,1.4,0.1,2.1,0.3c0.7,0.2,1.2,0.5,1.6,0.9l-0.9,2.1c-0.9-0.6-1.8-1-2.8-1c-0.9,0-1.6,0.3-2,0.8
			c-0.5,0.6-0.7,1.4-0.7,2.5c0,1.1,0.2,2,0.7,2.5c0.5,0.6,1.2,0.8,2,0.8c1,0,1.9-0.3,2.8-1l0.9,2.1c-0.4,0.4-1,0.7-1.6,0.9
			c-0.7,0.2-1.4,0.3-2.1,0.3C169.2,231.3,168.2,231.1,167.4,230.6z"/>
		<path class="st7" d="M175.6,231.2v-11h7.8v2.2h-5v2.1h4.7v2.2h-4.7v2.3h5v2.2H175.6z"/>
		<path class="st7" d="M186.3,231c-0.8-0.2-1.5-0.5-2-0.9l0.9-2.1c0.5,0.3,1.1,0.6,1.7,0.8c0.6,0.2,1.2,0.3,1.8,0.3
			c0.6,0,1.1-0.1,1.4-0.3s0.5-0.4,0.5-0.7c0-0.3-0.1-0.5-0.4-0.7c-0.3-0.2-0.9-0.4-1.7-0.5c-1-0.2-1.8-0.5-2.4-0.8
			c-0.6-0.3-1-0.7-1.2-1.1c-0.2-0.4-0.3-0.9-0.3-1.5c0-0.7,0.2-1.3,0.6-1.8c0.4-0.5,0.9-1,1.6-1.3s1.5-0.5,2.4-0.5
			c0.8,0,1.6,0.1,2.3,0.3c0.7,0.2,1.3,0.5,1.8,0.9l-0.9,2.1c-0.5-0.3-1-0.6-1.5-0.8c-0.5-0.2-1.1-0.3-1.6-0.3
			c-0.5,0-0.9,0.1-1.3,0.3c-0.3,0.2-0.5,0.5-0.5,0.8c0,0.2,0.1,0.3,0.2,0.5c0.1,0.1,0.3,0.2,0.6,0.4s0.8,0.2,1.4,0.4
			c1,0.2,1.8,0.5,2.4,0.8c0.6,0.3,1,0.7,1.2,1.1c0.2,0.4,0.4,0.9,0.4,1.5c0,1.1-0.4,1.9-1.3,2.5c-0.8,0.6-2,0.9-3.5,0.9
			C187.9,231.3,187.1,231.2,186.3,231z"/>
		<path class="st7" d="M196.7,231c-0.8-0.2-1.5-0.5-2-0.9l0.9-2.1c0.5,0.3,1.1,0.6,1.7,0.8c0.6,0.2,1.2,0.3,1.8,0.3
			c0.6,0,1.1-0.1,1.4-0.3s0.5-0.4,0.5-0.7c0-0.3-0.1-0.5-0.4-0.7c-0.3-0.2-0.9-0.4-1.7-0.5c-1-0.2-1.8-0.5-2.4-0.8
			c-0.6-0.3-1-0.7-1.2-1.1c-0.2-0.4-0.3-0.9-0.3-1.5c0-0.7,0.2-1.3,0.6-1.8c0.4-0.5,0.9-1,1.6-1.3s1.5-0.5,2.4-0.5
			c0.8,0,1.6,0.1,2.3,0.3c0.7,0.2,1.3,0.5,1.8,0.9l-0.9,2.1c-0.5-0.3-1-0.6-1.5-0.8c-0.5-0.2-1.1-0.3-1.6-0.3
			c-0.5,0-0.9,0.1-1.3,0.3c-0.3,0.2-0.5,0.5-0.5,0.8c0,0.2,0.1,0.3,0.2,0.5c0.1,0.1,0.3,0.2,0.6,0.4s0.8,0.2,1.4,0.4
			c1,0.2,1.8,0.5,2.4,0.8c0.6,0.3,1,0.7,1.2,1.1c0.2,0.4,0.4,0.9,0.4,1.5c0,1.1-0.4,1.9-1.3,2.5c-0.8,0.6-2,0.9-3.5,0.9
			C198.3,231.3,197.5,231.2,196.7,231z"/>
	</g>
	<path class="st8" d="M65.3,20.2L240,19.7c10.5,0,19.1,8.5,19.1,19v0.4c0,10.5-8.5,19.1-19,19.1L65.4,58.8c-10.5,0-19.1-8.5-19.1-19
		v-0.4C46.2,28.8,54.7,20.2,65.3,20.2z"/>
	<path class="st9" d="M65.3,205.7l174.7-0.5c10.5,0,19.1,8.5,19.1,19v0.4c0,10.5-8.5,19.1-19,19.1l-174.7,0.5
		c-10.5,0-19.1-8.5-19.1-19v-0.4C46.2,214.3,54.7,205.7,65.3,205.7z"/>
	<g class="st4">
		<path class="st10" d="M87.6,45.7l-1-2.3h-4.9l-1,2.3h-2.9l5.1-11h2.3l5.2,11H87.6z M82.7,41.2h3l-1.5-3.5L82.7,41.2z"/>
		<path class="st10" d="M100.5,39.5V45c-0.6,0.3-1.2,0.5-2,0.6c-0.7,0.1-1.5,0.2-2.2,0.2c-1.2,0-2.2-0.2-3.1-0.7
			c-0.9-0.5-1.6-1.1-2-2s-0.7-1.9-0.7-3c0-1.1,0.2-2.1,0.7-3c0.5-0.8,1.1-1.5,2-2c0.9-0.5,1.9-0.7,3-0.7c0.8,0,1.5,0.1,2.2,0.3
			c0.7,0.2,1.3,0.5,1.7,0.8l-0.9,2.1c-0.5-0.3-1-0.6-1.5-0.7c-0.5-0.1-1-0.2-1.5-0.2c-1,0-1.7,0.3-2.2,0.8c-0.5,0.6-0.7,1.4-0.7,2.5
			c0,1.2,0.2,2,0.7,2.6c0.5,0.6,1.3,0.8,2.3,0.8c0.5,0,1-0.1,1.5-0.2v-2H96v-2H100.5z"/>
		<path class="st10" d="M102.4,45.7v-11h7.8v2.2h-5V39h4.7v2.2h-4.7v2.3h5v2.2H102.4z"/>
		<path class="st10" d="M118.8,34.7h2.7v11h-2.1l-5-6.2v6.2h-2.7v-11h2.1l5,6.2V34.7z"/>
		<path class="st10" d="M125.9,45.1c-0.8-0.5-1.5-1.1-2-2s-0.7-1.8-0.7-3c0-1.1,0.2-2.1,0.7-2.9s1.1-1.5,2-2c0.8-0.5,1.8-0.7,3-0.7
			c0.7,0,1.4,0.1,2.1,0.3c0.7,0.2,1.2,0.5,1.6,0.9l-0.9,2.1c-0.9-0.6-1.8-1-2.8-1c-0.9,0-1.6,0.3-2,0.8s-0.7,1.4-0.7,2.5
			c0,1.1,0.2,2,0.7,2.5s1.2,0.8,2,0.8c1,0,1.9-0.3,2.8-1l0.9,2.1c-0.4,0.4-1,0.7-1.6,0.9c-0.7,0.2-1.4,0.3-2.1,0.3
			C127.7,45.8,126.7,45.6,125.9,45.1z"/>
		<path class="st10" d="M144.2,34.7l-4.7,6.8v4.2h-2.9v-4.2l-4.6-6.8h3.3l2.8,4.4l2.8-4.4H144.2z"/>
		<path class="st10" d="M148.6,34.7h5.2c1.3,0,2.2,0.3,2.9,0.9c0.7,0.6,1,1.4,1,2.4c0,1-0.4,1.8-1.1,2.4s-1.7,0.9-2.9,0.9h-2.3v4.3
			h-2.9V34.7z M153.5,39.2c1.1,0,1.6-0.4,1.6-1.2c0-0.4-0.1-0.7-0.4-0.9c-0.3-0.2-0.7-0.3-1.2-0.3h-1.9v2.3H153.5z"/>
		<path class="st10" d="M168.8,45.7h-3.1l-1.4-3.7c-0.2-0.4-0.6-0.6-1.2-0.6h-1.1v4.3h-2.9v-11h5.1c1.3,0,2.3,0.3,3,0.9
			c0.7,0.6,1,1.4,1,2.4c0,0.7-0.2,1.4-0.6,1.9c-0.4,0.5-1,0.9-1.7,1.2c0.3,0.1,0.6,0.2,0.8,0.4s0.4,0.5,0.6,0.9L168.8,45.7z
			 M165.2,39c0.3-0.2,0.4-0.5,0.4-0.9c0-0.4-0.1-0.7-0.4-0.9c-0.3-0.2-0.7-0.3-1.4-0.3H162v2.4h1.8C164.5,39.2,164.9,39.1,165.2,39z
			"/>
		<path class="st10" d="M172.5,45.1c-0.8-0.5-1.5-1.1-1.9-2c-0.4-0.9-0.7-1.9-0.7-3c0-1.1,0.2-2.1,0.7-3c0.5-0.8,1.1-1.5,1.9-2
			c0.8-0.5,1.8-0.7,2.9-0.7c1.1,0,2.1,0.2,2.9,0.7c0.8,0.5,1.5,1.1,1.9,2c0.4,0.8,0.7,1.8,0.7,3c0,1.1-0.2,2.1-0.7,3
			c-0.4,0.9-1.1,1.5-1.9,2c-0.8,0.5-1.8,0.7-2.9,0.7C174.3,45.8,173.3,45.6,172.5,45.1z M177.3,42.7c0.5-0.6,0.7-1.4,0.7-2.6
			c0-1.1-0.2-2-0.7-2.5c-0.5-0.6-1.1-0.9-1.9-0.9c-0.8,0-1.5,0.3-1.9,0.9c-0.5,0.6-0.7,1.4-0.7,2.5c0,1.1,0.2,2,0.7,2.6
			c0.5,0.6,1.1,0.9,1.9,0.9C176.2,43.6,176.9,43.3,177.3,42.7z"/>
		<path class="st10" d="M185,45.1c-0.8-0.5-1.5-1.1-2-2s-0.7-1.8-0.7-3c0-1.1,0.2-2.1,0.7-2.9s1.1-1.5,2-2c0.8-0.5,1.8-0.7,3-0.7
			c0.7,0,1.4,0.1,2.1,0.3c0.7,0.2,1.2,0.5,1.6,0.9l-0.9,2.1c-0.9-0.6-1.8-1-2.8-1c-0.9,0-1.6,0.3-2,0.8s-0.7,1.4-0.7,2.5
			c0,1.1,0.2,2,0.7,2.5s1.2,0.8,2,0.8c1,0,1.9-0.3,2.8-1l0.9,2.1c-0.4,0.4-1,0.7-1.6,0.9c-0.7,0.2-1.4,0.3-2.1,0.3
			C186.8,45.8,185.8,45.6,185,45.1z"/>
		<path class="st10" d="M193.2,45.7v-11h7.8v2.2h-5V39h4.7v2.2H196v2.3h5v2.2H193.2z"/>
		<path class="st10" d="M203.9,45.5c-0.8-0.2-1.5-0.5-2-0.9l0.9-2.1c0.5,0.3,1.1,0.6,1.7,0.8c0.6,0.2,1.2,0.3,1.8,0.3
			c0.6,0,1.1-0.1,1.4-0.3c0.3-0.2,0.5-0.4,0.5-0.7c0-0.3-0.1-0.5-0.4-0.7c-0.3-0.2-0.9-0.4-1.7-0.5c-1-0.2-1.8-0.5-2.4-0.8
			c-0.6-0.3-1-0.7-1.2-1.1c-0.2-0.4-0.3-0.9-0.3-1.5c0-0.7,0.2-1.3,0.6-1.8c0.4-0.5,0.9-1,1.6-1.3c0.7-0.3,1.5-0.5,2.4-0.5
			c0.8,0,1.6,0.1,2.3,0.3c0.7,0.2,1.3,0.5,1.8,0.9l-0.9,2.1c-0.5-0.3-1-0.6-1.5-0.8c-0.5-0.2-1.1-0.3-1.6-0.3
			c-0.5,0-0.9,0.1-1.3,0.3s-0.5,0.5-0.5,0.8c0,0.2,0.1,0.3,0.2,0.5c0.1,0.1,0.3,0.2,0.6,0.4c0.3,0.1,0.8,0.2,1.4,0.4
			c1,0.2,1.8,0.5,2.4,0.8c0.6,0.3,1,0.7,1.2,1.1s0.4,0.9,0.4,1.5c0,1.1-0.4,1.9-1.3,2.5c-0.8,0.6-2,0.9-3.5,0.9
			C205.5,45.8,204.7,45.7,203.9,45.5z"/>
		<path class="st10" d="M214.3,45.5c-0.8-0.2-1.5-0.5-2-0.9l0.9-2.1c0.5,0.3,1.1,0.6,1.7,0.8c0.6,0.2,1.2,0.3,1.8,0.3
			c0.6,0,1.1-0.1,1.4-0.3c0.3-0.2,0.5-0.4,0.5-0.7c0-0.3-0.1-0.5-0.4-0.7c-0.3-0.2-0.9-0.4-1.7-0.5c-1-0.2-1.8-0.5-2.4-0.8
			s-1-0.7-1.2-1.1c-0.2-0.4-0.3-0.9-0.3-1.5c0-0.7,0.2-1.3,0.6-1.8c0.4-0.5,0.9-1,1.6-1.3c0.7-0.3,1.5-0.5,2.4-0.5
			c0.8,0,1.6,0.1,2.3,0.3s1.3,0.5,1.8,0.9l-0.9,2.1c-0.5-0.3-1-0.6-1.5-0.8c-0.5-0.2-1.1-0.3-1.6-0.3c-0.5,0-0.9,0.1-1.3,0.3
			c-0.3,0.2-0.5,0.5-0.5,0.8c0,0.2,0.1,0.3,0.2,0.5c0.1,0.1,0.3,0.2,0.6,0.4c0.3,0.1,0.8,0.2,1.4,0.4c1,0.2,1.8,0.5,2.4,0.8
			c0.6,0.3,1,0.7,1.2,1.1c0.2,0.4,0.4,0.9,0.4,1.5c0,1.1-0.4,1.9-1.3,2.5c-0.8,0.6-2,0.9-3.5,0.9C215.9,45.8,215.1,45.7,214.3,45.5z
			"/>
	</g>
	<g class="st4">
		<path class="st11" d="M454.6,472c-0.5-0.3-0.9-0.4-1.3-0.4c-0.5,0-0.9,0.1-1.3,0.4s-0.7,0.6-0.9,1c-0.2,0.4-0.3,0.9-0.3,1.4
			c0,0.5,0.1,1,0.3,1.4c0.2,0.4,0.5,0.8,0.9,1s0.8,0.4,1.3,0.4c0.4,0,0.8-0.1,1.3-0.3c0.5-0.2,0.9-0.5,1.2-0.9l1.8,1.9
			c-0.6,0.6-1.3,1.1-2.1,1.5c-0.8,0.4-1.6,0.6-2.4,0.6c-1,0-2-0.2-2.8-0.7c-0.8-0.5-1.5-1.1-2-2c-0.5-0.8-0.7-1.8-0.7-2.8
			c0-1,0.2-1.9,0.7-2.8c0.5-0.8,1.2-1.5,2-1.9c0.9-0.5,1.8-0.7,2.9-0.7c0.8,0,1.6,0.2,2.4,0.5c0.8,0.3,1.4,0.8,2,1.4l-1.8,2.1
			C455.4,472.6,455,472.3,454.6,472z"/>
		<path class="st11" d="M464.7,472c0.7,0.3,1.2,0.8,1.6,1.5s0.6,1.4,0.6,2.2c0,0.8-0.2,1.6-0.6,2.2c-0.4,0.6-0.9,1.1-1.6,1.5
			c-0.7,0.3-1.5,0.5-2.4,0.5c-0.9,0-1.7-0.2-2.4-0.5c-0.7-0.3-1.2-0.8-1.6-1.5c-0.4-0.6-0.6-1.4-0.6-2.2c0-0.8,0.2-1.6,0.6-2.2
			s0.9-1.1,1.6-1.5c0.7-0.3,1.5-0.5,2.4-0.5C463.2,471.5,464,471.6,464.7,472z M461.2,474.4c-0.3,0.3-0.4,0.8-0.4,1.3
			c0,0.5,0.1,1,0.4,1.3c0.3,0.3,0.6,0.5,1.1,0.5c0.4,0,0.8-0.2,1.1-0.5c0.3-0.3,0.4-0.8,0.4-1.3c0-0.5-0.1-1-0.4-1.3
			c-0.3-0.3-0.6-0.5-1.1-0.5C461.8,473.9,461.5,474,461.2,474.4z"/>
		<path class="st11" d="M475.2,471.8c0.4,0.3,0.8,0.6,1,1.1c0.2,0.5,0.4,1,0.4,1.6v5.2h-3v-4.3c0-0.4-0.1-0.7-0.3-1
			c-0.2-0.2-0.5-0.4-0.8-0.4c-0.4,0-0.7,0.2-1,0.5c-0.2,0.3-0.4,0.7-0.4,1.1v4h-3v-8.2h3v1.3c0.3-0.4,0.7-0.8,1.1-1
			c0.4-0.2,0.9-0.4,1.5-0.4C474.2,471.5,474.7,471.6,475.2,471.8z"/>
		<path class="st11" d="M483.8,479.3c-0.3,0.2-0.6,0.3-1.1,0.4c-0.4,0.1-0.8,0.1-1.3,0.1c-0.9,0-1.6-0.2-2.1-0.7
			c-0.5-0.5-0.8-1.1-0.8-2v-3.3h-1.1V472h1.1v-2.3h3v2.3h2v1.9h-2v2.8c0,0.3,0.1,0.5,0.2,0.6c0.1,0.1,0.3,0.2,0.5,0.2
			c0.2,0,0.5-0.1,0.9-0.2L483.8,479.3z"/>
		<path class="st11" d="M487.6,468.1c0.3,0.3,0.4,0.7,0.4,1.1s-0.1,0.8-0.4,1.1s-0.7,0.4-1.1,0.4s-0.8-0.1-1.1-0.4
			c-0.3-0.3-0.4-0.7-0.4-1.1s0.1-0.8,0.4-1.1c0.3-0.3,0.7-0.4,1.1-0.4S487.3,467.8,487.6,468.1z M484.9,471.6h3v8.2h-3V471.6z"/>
		<path class="st11" d="M497,471.8c0.4,0.3,0.8,0.6,1,1.1c0.2,0.5,0.4,1,0.4,1.6v5.2h-3v-4.3c0-0.4-0.1-0.7-0.3-1
			c-0.2-0.2-0.5-0.4-0.8-0.4c-0.4,0-0.7,0.2-1,0.5s-0.4,0.7-0.4,1.1v4h-3v-8.2h3v1.3c0.3-0.4,0.7-0.8,1.1-1c0.4-0.2,0.9-0.4,1.5-0.4
			C496,471.5,496.5,471.6,497,471.8z"/>
		<path class="st11" d="M508.1,471.6v8.2h-3v-1.2c-0.3,0.4-0.6,0.8-1.1,1c-0.4,0.2-0.9,0.3-1.4,0.3c-0.6,0-1.1-0.1-1.5-0.4
			c-0.4-0.3-0.8-0.6-1-1.1s-0.4-1-0.4-1.7v-5.2h3v4.3c0,0.4,0.1,0.7,0.3,1c0.2,0.2,0.5,0.4,0.8,0.4c0.4,0,0.7-0.2,0.9-0.5
			s0.3-0.7,0.3-1.1v-4H508.1z"/>
		<path class="st11" d="M516.3,472c0.7,0.3,1.2,0.8,1.6,1.5s0.6,1.4,0.6,2.2c0,0.8-0.2,1.6-0.6,2.2c-0.4,0.6-0.9,1.1-1.6,1.5
			c-0.7,0.3-1.5,0.5-2.4,0.5s-1.7-0.2-2.4-0.5c-0.7-0.3-1.2-0.8-1.6-1.5c-0.4-0.6-0.6-1.4-0.6-2.2c0-0.8,0.2-1.6,0.6-2.2
			s0.9-1.1,1.6-1.5c0.7-0.3,1.5-0.5,2.4-0.5S515.6,471.6,516.3,472z M512.8,474.4c-0.3,0.3-0.4,0.8-0.4,1.3c0,0.5,0.1,1,0.4,1.3
			c0.3,0.3,0.6,0.5,1.1,0.5c0.4,0,0.8-0.2,1.1-0.5c0.3-0.3,0.4-0.8,0.4-1.3c0-0.5-0.1-1-0.4-1.3c-0.3-0.3-0.6-0.5-1.1-0.5
			C513.4,473.9,513.1,474,512.8,474.4z"/>
		<path class="st11" d="M527.8,471.6v8.2h-3v-1.2c-0.3,0.4-0.6,0.8-1.1,1c-0.4,0.2-0.9,0.3-1.4,0.3c-0.6,0-1.1-0.1-1.5-0.4
			c-0.4-0.3-0.8-0.6-1-1.1s-0.4-1-0.4-1.7v-5.2h3v4.3c0,0.4,0.1,0.7,0.3,1c0.2,0.2,0.5,0.4,0.8,0.4c0.4,0,0.7-0.2,0.9-0.5
			s0.3-0.7,0.3-1.1v-4H527.8z"/>
		<path class="st11" d="M532.7,473.5c-0.2,0-0.3,0-0.5,0.1c-0.1,0.1-0.2,0.2-0.2,0.3c0,0.2,0.1,0.3,0.3,0.4c0.2,0.1,0.5,0.2,1,0.3
			c0.6,0.2,1.1,0.3,1.5,0.5c0.4,0.2,0.7,0.4,1,0.8s0.4,0.8,0.4,1.3c0,0.8-0.3,1.5-1,2c-0.7,0.5-1.5,0.7-2.6,0.7
			c-0.7,0-1.4-0.1-2.1-0.3c-0.7-0.2-1.2-0.5-1.8-0.9l0.9-1.9c0.5,0.3,1,0.6,1.5,0.8c0.5,0.2,1,0.3,1.4,0.3c0.2,0,0.4,0,0.5-0.1
			c0.1-0.1,0.2-0.2,0.2-0.3c0-0.2-0.1-0.3-0.3-0.4c-0.2-0.1-0.5-0.2-1-0.3c-0.6-0.2-1.1-0.3-1.5-0.5c-0.4-0.2-0.7-0.4-1-0.8
			s-0.4-0.8-0.4-1.3c0-0.8,0.3-1.5,1-2c0.6-0.5,1.5-0.7,2.5-0.7c1.2,0,2.4,0.3,3.6,1l-1,1.9C534.3,473.8,533.4,473.5,532.7,473.5z"
			/>
		<path class="st11" d="M540.8,469.2h3.3l2.8,5.8l2.8-5.8h3.3v10.5h-2.7v-6.2l-2.4,5.2h-2l-2.4-5.2v6.2h-2.7V469.2z"/>
		<path class="st11" d="M561.2,472c0.7,0.3,1.2,0.8,1.6,1.5s0.6,1.4,0.6,2.2c0,0.8-0.2,1.6-0.6,2.2c-0.4,0.6-0.9,1.1-1.6,1.5
			c-0.7,0.3-1.5,0.5-2.4,0.5c-0.9,0-1.7-0.2-2.4-0.5c-0.7-0.3-1.2-0.8-1.6-1.5c-0.4-0.6-0.6-1.4-0.6-2.2c0-0.8,0.2-1.6,0.6-2.2
			s0.9-1.1,1.6-1.5c0.7-0.3,1.5-0.5,2.4-0.5C559.7,471.5,560.5,471.6,561.2,472z M557.8,474.4c-0.3,0.3-0.4,0.8-0.4,1.3
			c0,0.5,0.1,1,0.4,1.3c0.3,0.3,0.6,0.5,1.1,0.5c0.4,0,0.8-0.2,1.1-0.5c0.3-0.3,0.4-0.8,0.4-1.3c0-0.5-0.1-1-0.4-1.3
			c-0.3-0.3-0.6-0.5-1.1-0.5C558.4,473.9,558,474,557.8,474.4z"/>
		<path class="st11" d="M571.7,471.8c0.4,0.3,0.8,0.6,1,1.1c0.2,0.5,0.4,1,0.4,1.6v5.2h-3v-4.3c0-0.4-0.1-0.7-0.3-1
			c-0.2-0.2-0.5-0.4-0.8-0.4c-0.4,0-0.7,0.2-1,0.5s-0.4,0.7-0.4,1.1v4h-3v-8.2h3v1.3c0.3-0.4,0.7-0.8,1.1-1c0.4-0.2,0.9-0.4,1.5-0.4
			C570.8,471.5,571.3,471.6,571.7,471.8z"/>
		<path class="st11" d="M577.4,468.1c0.3,0.3,0.4,0.7,0.4,1.1s-0.1,0.8-0.4,1.1s-0.7,0.4-1.1,0.4s-0.8-0.1-1.1-0.4s-0.4-0.7-0.4-1.1
			s0.1-0.8,0.4-1.1s0.7-0.4,1.1-0.4S577.1,467.8,577.4,468.1z M574.7,471.6h3v8.2h-3V471.6z"/>
		<path class="st11" d="M585.2,479.3c-0.3,0.2-0.6,0.3-1.1,0.4c-0.4,0.1-0.8,0.1-1.3,0.1c-0.9,0-1.6-0.2-2.1-0.7
			c-0.5-0.5-0.8-1.1-0.8-2v-3.3h-1.1V472h1.1v-2.3h3v2.3h2v1.9h-2v2.8c0,0.3,0.1,0.5,0.2,0.6c0.1,0.1,0.3,0.2,0.5,0.2
			c0.2,0,0.5-0.1,0.9-0.2L585.2,479.3z"/>
		<path class="st11" d="M592.6,472c0.7,0.3,1.2,0.8,1.6,1.5s0.6,1.4,0.6,2.2c0,0.8-0.2,1.6-0.6,2.2c-0.4,0.6-0.9,1.1-1.6,1.5
			c-0.7,0.3-1.5,0.5-2.4,0.5c-0.9,0-1.7-0.2-2.4-0.5c-0.7-0.3-1.2-0.8-1.6-1.5c-0.4-0.6-0.6-1.4-0.6-2.2c0-0.8,0.2-1.6,0.6-2.2
			s0.9-1.1,1.6-1.5c0.7-0.3,1.5-0.5,2.4-0.5C591.1,471.5,591.9,471.6,592.6,472z M589.1,474.4c-0.3,0.3-0.4,0.8-0.4,1.3
			c0,0.5,0.1,1,0.4,1.3c0.3,0.3,0.6,0.5,1.1,0.5c0.4,0,0.8-0.2,1.1-0.5c0.3-0.3,0.4-0.8,0.4-1.3c0-0.5-0.1-1-0.4-1.3
			c-0.3-0.3-0.6-0.5-1.1-0.5C589.8,473.9,589.4,474,589.1,474.4z"/>
		<path class="st11" d="M600.1,471.8c0.4-0.2,0.9-0.4,1.5-0.4v2.7c-0.1,0-0.3,0-0.5,0c-0.6,0-1.1,0.2-1.5,0.5s-0.5,0.7-0.5,1.2v3.9
			h-3v-8.2h3v1.3C599.3,472.4,599.6,472.1,600.1,471.8z"/>
		<path class="st11" d="M605.2,468.1c0.3,0.3,0.4,0.7,0.4,1.1s-0.1,0.8-0.4,1.1s-0.7,0.4-1.1,0.4s-0.8-0.1-1.1-0.4s-0.4-0.7-0.4-1.1
			s0.1-0.8,0.4-1.1s0.7-0.4,1.1-0.4S605,467.8,605.2,468.1z M602.6,471.6h3v8.2h-3V471.6z"/>
		<path class="st11" d="M614.6,471.8c0.4,0.3,0.8,0.6,1,1.1c0.2,0.5,0.4,1,0.4,1.6v5.2h-3v-4.3c0-0.4-0.1-0.7-0.3-1
			c-0.2-0.2-0.5-0.4-0.8-0.4c-0.4,0-0.7,0.2-1,0.5c-0.2,0.3-0.4,0.7-0.4,1.1v4h-3v-8.2h3v1.3c0.3-0.4,0.7-0.8,1.1-1
			c0.4-0.2,0.9-0.4,1.5-0.4C613.7,471.5,614.2,471.6,614.6,471.8z"/>
		<path class="st11" d="M625.6,471.6v7.5c0,0.8-0.2,1.4-0.6,2c-0.4,0.6-0.9,1-1.6,1.3c-0.7,0.3-1.5,0.5-2.3,0.5
			c-0.7,0-1.4-0.1-2.1-0.3c-0.7-0.2-1.2-0.5-1.7-0.8l1-2c0.4,0.2,0.8,0.4,1.2,0.6c0.4,0.1,0.9,0.2,1.3,0.2c0.5,0,1-0.1,1.3-0.4
			c0.3-0.2,0.5-0.6,0.5-1v-0.8c-0.5,0.7-1.3,1-2.2,1c-0.7,0-1.2-0.2-1.8-0.5c-0.5-0.3-0.9-0.8-1.2-1.4c-0.3-0.6-0.4-1.3-0.4-2.1
			c0-0.8,0.1-1.4,0.4-2s0.7-1,1.2-1.4c0.5-0.3,1.1-0.5,1.7-0.5c0.9,0,1.7,0.3,2.2,1v-0.9H625.6z M622.2,476.6
			c0.3-0.3,0.4-0.7,0.4-1.2c0-0.5-0.1-0.9-0.4-1.2c-0.3-0.3-0.6-0.5-1-0.5c-0.4,0-0.7,0.2-1,0.5c-0.3,0.3-0.4,0.7-0.4,1.2
			c0,0.5,0.1,0.9,0.4,1.2c0.3,0.3,0.6,0.5,1,0.5C621.7,477.1,622,476.9,622.2,476.6z"/>
	</g>
	<rect x="514.2" y="19.5" class="st5" width="125.6" height="40.1"/>
	<g class="st4">
		<path class="st6" d="M545.5,34.2H544l-1.5-4.1c-0.2-0.5-0.4-0.8-0.8-1c-0.3-0.2-0.8-0.3-1.4-0.3h-3.1v5.4h-1.4V21.9h4.9
			c1.3,0,2.3,0.3,3,0.9c0.7,0.6,1.1,1.4,1.1,2.5c0,0.8-0.2,1.5-0.6,2c-0.4,0.5-1,0.9-1.8,1.2c0.4,0.1,0.7,0.2,0.9,0.5
			c0.3,0.2,0.5,0.6,0.6,1.1L545.5,34.2z M540.6,27.7c1.9,0,2.8-0.8,2.8-2.3c0-0.8-0.2-1.3-0.7-1.7s-1.2-0.6-2.1-0.6h-3.4v4.6H540.6z
			"/>
		<path class="st6" d="M554.9,29.8h-6.4c0,1.1,0.3,1.9,0.8,2.5c0.5,0.6,1.2,0.8,2.2,0.8c1,0,1.9-0.3,2.8-1l0.5,1
			c-0.4,0.4-0.9,0.6-1.5,0.8c-0.6,0.2-1.2,0.3-1.8,0.3c-1.4,0-2.4-0.4-3.2-1.2c-0.8-0.8-1.2-1.9-1.2-3.3c0-0.9,0.2-1.7,0.5-2.3
			s0.8-1.2,1.4-1.6s1.3-0.6,2.1-0.6c1.1,0,2,0.4,2.7,1.1c0.7,0.8,1,1.8,1,3.1V29.8z M549.4,27.1c-0.5,0.4-0.7,1-0.9,1.8h5
			c-0.1-0.8-0.3-1.4-0.7-1.9c-0.4-0.4-1-0.6-1.7-0.6C550.5,26.4,549.9,26.6,549.4,27.1z"/>
		<path class="st6" d="M564.6,25.5v8.7h-1.4v-1.6c-0.3,0.5-0.6,1-1.1,1.2c-0.5,0.3-1.1,0.4-1.8,0.4c-0.8,0-1.4-0.2-2-0.6
			c-0.6-0.4-1-0.9-1.3-1.6c-0.3-0.7-0.5-1.5-0.5-2.3c0-0.9,0.2-1.7,0.5-2.4s0.8-1.2,1.4-1.6s1.2-0.6,2-0.6c0.7,0,1.3,0.1,1.8,0.4
			c0.5,0.3,0.9,0.7,1.2,1.3v-1.5H564.6z M562.5,32.3c0.5-0.6,0.7-1.4,0.7-2.5s-0.2-1.9-0.7-2.5c-0.5-0.6-1.1-0.9-2-0.9
			s-1.5,0.3-2,0.9s-0.7,1.4-0.7,2.5s0.2,1.9,0.7,2.4c0.5,0.6,1.1,0.9,2,0.9C561.4,33.2,562.1,32.9,562.5,32.3z"/>
		<path class="st6" d="M574.9,21.5v12.7h-1.4v-1.6c-0.3,0.5-0.6,1-1.1,1.2c-0.5,0.3-1.1,0.4-1.8,0.4c-0.8,0-1.4-0.2-2-0.6
			c-0.6-0.4-1-0.9-1.4-1.6c-0.3-0.7-0.5-1.5-0.5-2.4s0.2-1.7,0.5-2.3c0.3-0.7,0.8-1.2,1.4-1.6c0.6-0.4,1.3-0.6,2-0.6
			c0.7,0,1.3,0.1,1.8,0.4c0.5,0.3,0.9,0.7,1.1,1.2v-5.5H574.9z M572.9,32.3c0.5-0.6,0.7-1.4,0.7-2.5c0-1.1-0.2-1.9-0.7-2.5
			c-0.5-0.6-1.1-0.9-2-0.9c-0.8,0-1.5,0.3-2,0.9c-0.5,0.6-0.7,1.4-0.7,2.4c0,1.1,0.2,1.9,0.7,2.5c0.5,0.6,1.1,0.9,2,0.9
			C571.8,33.2,572.4,32.9,572.9,32.3z"/>
		<path class="st6" d="M577.5,21.9h1.7v1.6h-1.7V21.9z M577.6,34.2v-8.7h1.4v8.7H577.6z"/>
		<path class="st6" d="M589.2,28.7v5.4h-1.4v-5.4c0-0.8-0.2-1.4-0.5-1.8c-0.3-0.4-0.8-0.6-1.5-0.6c-0.8,0-1.4,0.2-1.9,0.7
			c-0.5,0.5-0.7,1.2-0.7,2v5h-1.4V28c0-0.9,0-1.7-0.1-2.4h1.3l0.1,1.5c0.3-0.6,0.7-1,1.2-1.3c0.5-0.3,1.1-0.5,1.8-0.5
			C588.1,25.3,589.2,26.5,589.2,28.7z"/>
		<path class="st6" d="M599.1,29.8h-6.4c0,1.1,0.3,1.9,0.8,2.5c0.5,0.6,1.2,0.8,2.2,0.8c1,0,1.9-0.3,2.8-1l0.5,1
			c-0.4,0.4-0.9,0.6-1.5,0.8c-0.6,0.2-1.2,0.3-1.8,0.3c-1.4,0-2.4-0.4-3.2-1.2c-0.8-0.8-1.2-1.9-1.2-3.3c0-0.9,0.2-1.7,0.5-2.3
			s0.8-1.2,1.4-1.6c0.6-0.4,1.3-0.6,2.1-0.6c1.1,0,2,0.4,2.7,1.1s1,1.8,1,3.1V29.8z M593.6,27.1c-0.5,0.4-0.7,1-0.9,1.8h5
			c-0.1-0.8-0.3-1.4-0.7-1.9c-0.4-0.4-1-0.6-1.7-0.6S594.1,26.6,593.6,27.1z"/>
		<path class="st6" d="M600.6,33.2l0.5-1c0.5,0.4,0.9,0.6,1.4,0.8c0.5,0.2,1,0.2,1.6,0.2c0.7,0,1.2-0.1,1.5-0.3s0.5-0.5,0.5-1
			c0-0.3-0.1-0.6-0.3-0.8c-0.2-0.2-0.6-0.4-1.1-0.5l-1.5-0.3c-0.7-0.2-1.3-0.4-1.7-0.9s-0.6-0.9-0.6-1.5c0-0.8,0.3-1.4,0.9-1.9
			s1.4-0.7,2.4-0.7c0.6,0,1.2,0.1,1.7,0.3c0.5,0.2,1,0.5,1.4,0.8l-0.5,1c-0.8-0.7-1.7-1-2.6-1c-0.6,0-1.1,0.1-1.4,0.4
			c-0.3,0.2-0.5,0.6-0.5,1c0,0.4,0.1,0.6,0.3,0.8c0.2,0.2,0.6,0.4,1,0.5l1.5,0.4c0.8,0.2,1.4,0.5,1.8,0.9c0.4,0.4,0.6,0.9,0.6,1.5
			c0,0.7-0.3,1.3-0.9,1.8c-0.6,0.4-1.4,0.7-2.5,0.7C602.6,34.3,601.5,33.9,600.6,33.2z"/>
		<path class="st6" d="M609.2,33.2l0.5-1c0.5,0.4,0.9,0.6,1.4,0.8c0.5,0.2,1,0.2,1.6,0.2c0.7,0,1.2-0.1,1.5-0.3
			c0.3-0.2,0.5-0.5,0.5-1c0-0.3-0.1-0.6-0.3-0.8c-0.2-0.2-0.6-0.4-1.1-0.5l-1.5-0.3c-0.7-0.2-1.3-0.4-1.7-0.9
			c-0.4-0.4-0.6-0.9-0.6-1.5c0-0.8,0.3-1.4,0.9-1.9c0.6-0.5,1.4-0.7,2.4-0.7c0.6,0,1.2,0.1,1.7,0.3s1,0.5,1.4,0.8l-0.5,1
			c-0.8-0.7-1.7-1-2.6-1c-0.6,0-1.1,0.1-1.4,0.4c-0.3,0.2-0.5,0.6-0.5,1c0,0.4,0.1,0.6,0.3,0.8c0.2,0.2,0.6,0.4,1,0.5l1.5,0.4
			c0.8,0.2,1.4,0.5,1.8,0.9s0.6,0.9,0.6,1.5c0,0.7-0.3,1.3-0.9,1.8c-0.6,0.4-1.4,0.7-2.5,0.7C611.2,34.3,610,33.9,609.2,33.2z"/>
	</g>
	<g class="st4">
		<path class="st6" d="M537.9,54.9l-1.3-3.2h-6.4l-1.4,3.2h-1.5l5.4-12.3h1.2l5.4,12.3H537.9z M530.7,50.6h5.4l-2.7-6.3L530.7,50.6z
			"/>
		<path class="st6" d="M540.4,53.9l0.5-1c0.5,0.4,0.9,0.6,1.4,0.8c0.5,0.2,1,0.2,1.6,0.2c0.7,0,1.2-0.1,1.5-0.3
			c0.3-0.2,0.5-0.5,0.5-1c0-0.3-0.1-0.6-0.3-0.8c-0.2-0.2-0.6-0.4-1.1-0.5l-1.5-0.3c-0.7-0.2-1.3-0.4-1.7-0.9
			c-0.4-0.4-0.6-0.9-0.6-1.5c0-0.8,0.3-1.4,0.9-1.9S543,46,544,46c0.6,0,1.2,0.1,1.7,0.3s1,0.5,1.4,0.8l-0.5,1c-0.8-0.7-1.7-1-2.6-1
			c-0.6,0-1.1,0.1-1.4,0.4c-0.3,0.2-0.5,0.6-0.5,1c0,0.4,0.1,0.6,0.3,0.8c0.2,0.2,0.6,0.4,1,0.5l1.5,0.4c0.8,0.2,1.4,0.5,1.8,0.9
			c0.4,0.4,0.6,0.9,0.6,1.5c0,0.7-0.3,1.3-0.9,1.8s-1.4,0.7-2.5,0.7C542.4,55,541.2,54.6,540.4,53.9z"/>
		<path class="st6" d="M548.9,53.9l0.5-1c0.5,0.4,0.9,0.6,1.4,0.8c0.5,0.2,1,0.2,1.6,0.2c0.7,0,1.2-0.1,1.5-0.3
			c0.3-0.2,0.5-0.5,0.5-1c0-0.3-0.1-0.6-0.3-0.8c-0.2-0.2-0.6-0.4-1.1-0.5l-1.5-0.3c-0.7-0.2-1.3-0.4-1.7-0.9
			c-0.4-0.4-0.6-0.9-0.6-1.5c0-0.8,0.3-1.4,0.9-1.9s1.4-0.7,2.4-0.7c0.6,0,1.2,0.1,1.7,0.3c0.5,0.2,1,0.5,1.4,0.8l-0.5,1
			c-0.8-0.7-1.7-1-2.6-1c-0.6,0-1.1,0.1-1.4,0.4c-0.3,0.2-0.5,0.6-0.5,1c0,0.4,0.1,0.6,0.3,0.8c0.2,0.2,0.6,0.4,1,0.5l1.5,0.4
			c0.8,0.2,1.4,0.5,1.8,0.9c0.4,0.4,0.6,0.9,0.6,1.5c0,0.7-0.3,1.3-0.9,1.8c-0.6,0.4-1.4,0.7-2.5,0.7
			C550.9,55,549.8,54.6,548.9,53.9z"/>
		<path class="st6" d="M565.2,50.5h-6.4c0,1.1,0.3,1.9,0.8,2.5c0.5,0.6,1.2,0.8,2.2,0.8c1,0,1.9-0.3,2.8-1l0.5,1
			c-0.4,0.4-0.9,0.6-1.5,0.8c-0.6,0.2-1.2,0.3-1.8,0.3c-1.4,0-2.4-0.4-3.2-1.2c-0.8-0.8-1.2-1.9-1.2-3.3c0-0.9,0.2-1.7,0.5-2.3
			c0.3-0.7,0.8-1.2,1.4-1.6s1.3-0.6,2.1-0.6c1.1,0,2,0.4,2.7,1.1s1,1.8,1,3.1V50.5z M559.8,47.8c-0.5,0.4-0.7,1-0.9,1.8h5
			c-0.1-0.8-0.3-1.4-0.7-1.9c-0.4-0.4-1-0.6-1.7-0.6S560.3,47.3,559.8,47.8z"/>
		<path class="st6" d="M566.8,53.9l0.5-1c0.5,0.4,0.9,0.6,1.4,0.8c0.5,0.2,1,0.2,1.6,0.2c0.7,0,1.2-0.1,1.5-0.3
			c0.3-0.2,0.5-0.5,0.5-1c0-0.3-0.1-0.6-0.3-0.8c-0.2-0.2-0.6-0.4-1.1-0.5l-1.5-0.3c-0.7-0.2-1.3-0.4-1.7-0.9
			c-0.4-0.4-0.6-0.9-0.6-1.5c0-0.8,0.3-1.4,0.9-1.9s1.4-0.7,2.4-0.7c0.6,0,1.2,0.1,1.7,0.3c0.5,0.2,1,0.5,1.4,0.8l-0.5,1
			c-0.8-0.7-1.7-1-2.6-1c-0.6,0-1.1,0.1-1.4,0.4c-0.3,0.2-0.5,0.6-0.5,1c0,0.4,0.1,0.6,0.3,0.8c0.2,0.2,0.6,0.4,1,0.5l1.5,0.4
			c0.8,0.2,1.4,0.5,1.8,0.9c0.4,0.4,0.6,0.9,0.6,1.5c0,0.7-0.3,1.3-0.9,1.8c-0.6,0.4-1.4,0.7-2.5,0.7
			C568.8,55,567.7,54.6,566.8,53.9z"/>
		<path class="st6" d="M575.4,53.9l0.5-1c0.5,0.4,0.9,0.6,1.4,0.8c0.5,0.2,1,0.2,1.6,0.2c0.7,0,1.2-0.1,1.5-0.3
			c0.3-0.2,0.5-0.5,0.5-1c0-0.3-0.1-0.6-0.3-0.8c-0.2-0.2-0.6-0.4-1.1-0.5l-1.5-0.3c-0.7-0.2-1.3-0.4-1.7-0.9
			c-0.4-0.4-0.6-0.9-0.6-1.5c0-0.8,0.3-1.4,0.9-1.9S578,46,579,46c0.6,0,1.2,0.1,1.7,0.3s1,0.5,1.4,0.8l-0.5,1c-0.8-0.7-1.7-1-2.6-1
			c-0.6,0-1.1,0.1-1.4,0.4c-0.3,0.2-0.5,0.6-0.5,1c0,0.4,0.1,0.6,0.3,0.8c0.2,0.2,0.6,0.4,1,0.5l1.5,0.4c0.8,0.2,1.4,0.5,1.8,0.9
			c0.4,0.4,0.6,0.9,0.6,1.5c0,0.7-0.3,1.3-0.9,1.8s-1.4,0.7-2.5,0.7C577.4,55,576.2,54.6,575.4,53.9z"/>
		<path class="st6" d="M596.9,49.4v5.4h-1.4v-5.4c0-0.8-0.1-1.4-0.4-1.8c-0.3-0.4-0.7-0.6-1.4-0.6c-0.7,0-1.3,0.2-1.7,0.7
			c-0.4,0.5-0.6,1.2-0.6,2v4.9H590v-5.4c0-0.8-0.1-1.4-0.4-1.8s-0.7-0.6-1.4-0.6c-0.7,0-1.3,0.2-1.7,0.7c-0.4,0.5-0.6,1.2-0.6,2v4.9
			h-1.4v-6.2c0-0.9,0-1.7-0.1-2.4h1.3l0.1,1.5c0.2-0.6,0.6-1,1.1-1.3c0.5-0.3,1-0.4,1.7-0.4c0.7,0,1.3,0.1,1.7,0.4
			c0.4,0.3,0.8,0.7,1,1.3c0.3-0.5,0.7-0.9,1.2-1.2c0.5-0.3,1.1-0.5,1.7-0.5C596,46,596.9,47.2,596.9,49.4z"/>
		<path class="st6" d="M606.8,50.5h-6.4c0,1.1,0.3,1.9,0.8,2.5c0.5,0.6,1.2,0.8,2.2,0.8c1,0,1.9-0.3,2.8-1l0.5,1
			c-0.4,0.4-0.9,0.6-1.5,0.8c-0.6,0.2-1.2,0.3-1.8,0.3c-1.4,0-2.4-0.4-3.2-1.2c-0.8-0.8-1.2-1.9-1.2-3.3c0-0.9,0.2-1.7,0.5-2.3
			c0.3-0.7,0.8-1.2,1.4-1.6s1.3-0.6,2.1-0.6c1.1,0,2,0.4,2.7,1.1s1,1.8,1,3.1V50.5z M601.4,47.8c-0.5,0.4-0.7,1-0.9,1.8h5
			c-0.1-0.8-0.3-1.4-0.7-1.9c-0.4-0.4-1-0.6-1.7-0.6S601.8,47.3,601.4,47.8z"/>
		<path class="st6" d="M616.4,49.4v5.4H615v-5.4c0-0.8-0.2-1.4-0.5-1.8s-0.8-0.6-1.5-0.6c-0.8,0-1.4,0.2-1.9,0.7
			c-0.5,0.5-0.7,1.2-0.7,2v5h-1.4v-6.2c0-0.9,0-1.7-0.1-2.4h1.3l0.1,1.5c0.3-0.6,0.7-1,1.2-1.3c0.5-0.3,1.1-0.5,1.8-0.5
			C615.3,46,616.4,47.2,616.4,49.4z"/>
		<path class="st6" d="M620.9,47.3v4.7c0,0.6,0.1,1.1,0.4,1.4c0.3,0.3,0.6,0.4,1.1,0.4c0.3,0,0.6-0.1,0.9-0.2v1.2
			c-0.4,0.1-0.8,0.2-1.2,0.2c-0.8,0-1.5-0.2-1.9-0.7s-0.7-1.2-0.7-2.1v-4.9h-1.7v-1.1h1.7V44l1.4-0.5v2.7h2.5v1.1H620.9z"/>
	</g>
	<rect x="505.7" y="204.3" class="st5" width="137.7" height="40.1"/>
	<g class="st4">
		<path class="st6" d="M543,219.1h-1.5L540,215c-0.2-0.5-0.4-0.8-0.8-1s-0.8-0.3-1.4-0.3h-3.1v5.4h-1.4v-12.3h4.9
			c1.3,0,2.3,0.3,3,0.9c0.7,0.6,1.1,1.4,1.1,2.5c0,0.8-0.2,1.5-0.6,2c-0.4,0.5-1,0.9-1.8,1.2c0.4,0.1,0.7,0.2,0.9,0.5
			c0.3,0.2,0.5,0.6,0.6,1.1L543,219.1z M538.1,212.6c1.9,0,2.8-0.8,2.8-2.3c0-0.8-0.2-1.3-0.7-1.7s-1.2-0.6-2.1-0.6h-3.4v4.6H538.1z
			"/>
		<path class="st6" d="M552.4,214.7H546c0,1.1,0.3,1.9,0.8,2.5c0.5,0.6,1.2,0.8,2.2,0.8c1,0,1.9-0.3,2.8-1l0.5,1
			c-0.4,0.4-0.9,0.6-1.5,0.8c-0.6,0.2-1.2,0.3-1.8,0.3c-1.4,0-2.4-0.4-3.2-1.2c-0.8-0.8-1.2-1.9-1.2-3.3c0-0.9,0.2-1.7,0.5-2.3
			c0.3-0.7,0.8-1.2,1.4-1.6c0.6-0.4,1.3-0.6,2.1-0.6c1.1,0,2,0.4,2.7,1.1s1,1.8,1,3.1V214.7z M547,212c-0.5,0.4-0.7,1-0.9,1.8h5
			c-0.1-0.8-0.3-1.4-0.7-1.9c-0.4-0.4-1-0.6-1.7-0.6S547.4,211.5,547,212z"/>
		<path class="st6" d="M562.1,210.4v8.7h-1.4v-1.6c-0.3,0.5-0.6,1-1.1,1.2c-0.5,0.3-1.1,0.4-1.8,0.4c-0.8,0-1.4-0.2-2-0.6
			c-0.6-0.4-1-0.9-1.3-1.6c-0.3-0.7-0.5-1.5-0.5-2.3c0-0.9,0.2-1.7,0.5-2.4c0.3-0.7,0.8-1.2,1.4-1.6c0.6-0.4,1.2-0.6,2-0.6
			c0.7,0,1.3,0.1,1.8,0.4c0.5,0.3,0.9,0.7,1.2,1.3v-1.5H562.1z M560.1,217.2c0.5-0.6,0.7-1.4,0.7-2.5s-0.2-1.9-0.7-2.5
			c-0.5-0.6-1.1-0.9-2-0.9c-0.8,0-1.5,0.3-2,0.9c-0.5,0.6-0.7,1.4-0.7,2.5s0.2,1.9,0.7,2.4s1.1,0.9,2,0.9
			C558.9,218,559.6,217.8,560.1,217.2z"/>
		<path class="st6" d="M572.5,206.4v12.7h-1.4v-1.6c-0.3,0.5-0.6,1-1.1,1.2s-1.1,0.4-1.8,0.4c-0.8,0-1.4-0.2-2-0.6
			c-0.6-0.4-1-0.9-1.4-1.6s-0.5-1.5-0.5-2.4s0.2-1.7,0.5-2.3c0.3-0.7,0.8-1.2,1.4-1.6c0.6-0.4,1.3-0.6,2-0.6c0.7,0,1.3,0.1,1.8,0.4
			c0.5,0.3,0.9,0.7,1.1,1.2v-5.5H572.5z M570.4,217.2c0.5-0.6,0.7-1.4,0.7-2.5c0-1.1-0.2-1.9-0.7-2.5c-0.5-0.6-1.1-0.9-2-0.9
			s-1.5,0.3-2,0.9c-0.5,0.6-0.7,1.4-0.7,2.4c0,1.1,0.2,1.9,0.7,2.5c0.5,0.6,1.1,0.9,2,0.9S569.9,217.8,570.4,217.2z"/>
		<path class="st6" d="M575,206.8h1.7v1.6H575V206.8z M575.2,219.1v-8.7h1.4v8.7H575.2z"/>
		<path class="st6" d="M586.7,213.6v5.4h-1.4v-5.4c0-0.8-0.2-1.4-0.5-1.8s-0.8-0.6-1.5-0.6c-0.8,0-1.4,0.2-1.9,0.7
			c-0.5,0.5-0.7,1.2-0.7,2v5h-1.4v-6.2c0-0.9,0-1.7-0.1-2.4h1.3l0.1,1.5c0.3-0.6,0.7-1,1.2-1.3c0.5-0.3,1.1-0.5,1.8-0.5
			C585.7,210.2,586.7,211.4,586.7,213.6z"/>
		<path class="st6" d="M596.6,214.7h-6.4c0,1.1,0.3,1.9,0.8,2.5c0.5,0.6,1.2,0.8,2.2,0.8c1,0,1.9-0.3,2.8-1l0.5,1
			c-0.4,0.4-0.9,0.6-1.5,0.8c-0.6,0.2-1.2,0.3-1.8,0.3c-1.4,0-2.4-0.4-3.2-1.2c-0.8-0.8-1.2-1.9-1.2-3.3c0-0.9,0.2-1.7,0.5-2.3
			c0.3-0.7,0.8-1.2,1.4-1.6c0.6-0.4,1.3-0.6,2.1-0.6c1.1,0,2,0.4,2.7,1.1c0.7,0.8,1,1.8,1,3.1V214.7z M591.1,212
			c-0.5,0.4-0.7,1-0.9,1.8h5c-0.1-0.8-0.3-1.4-0.7-1.9c-0.4-0.4-1-0.6-1.7-0.6C592.2,211.3,591.6,211.5,591.1,212z"/>
		<path class="st6" d="M598.2,218.1l0.5-1c0.5,0.4,0.9,0.6,1.4,0.8c0.5,0.2,1,0.2,1.6,0.2c0.7,0,1.2-0.1,1.5-0.3
			c0.3-0.2,0.5-0.5,0.5-1c0-0.3-0.1-0.6-0.3-0.8c-0.2-0.2-0.6-0.4-1.1-0.5l-1.5-0.3c-0.7-0.2-1.3-0.4-1.7-0.9
			c-0.4-0.4-0.6-0.9-0.6-1.5c0-0.8,0.3-1.4,0.9-1.9c0.6-0.5,1.4-0.7,2.4-0.7c0.6,0,1.2,0.1,1.7,0.3s1,0.5,1.4,0.8l-0.5,1
			c-0.8-0.7-1.7-1-2.6-1c-0.6,0-1.1,0.1-1.4,0.4c-0.3,0.2-0.5,0.6-0.5,1c0,0.4,0.1,0.6,0.3,0.8c0.2,0.2,0.6,0.4,1,0.5l1.5,0.4
			c0.8,0.2,1.4,0.5,1.8,0.9s0.6,0.9,0.6,1.5c0,0.7-0.3,1.3-0.9,1.8c-0.6,0.4-1.4,0.7-2.5,0.7C600.2,219.2,599,218.8,598.2,218.1z"/>
		<path class="st6" d="M606.7,218.1l0.5-1c0.5,0.4,0.9,0.6,1.4,0.8c0.5,0.2,1,0.2,1.6,0.2c0.7,0,1.2-0.1,1.5-0.3s0.5-0.5,0.5-1
			c0-0.3-0.1-0.6-0.3-0.8c-0.2-0.2-0.6-0.4-1.1-0.5l-1.5-0.3c-0.7-0.2-1.3-0.4-1.7-0.9s-0.6-0.9-0.6-1.5c0-0.8,0.3-1.4,0.9-1.9
			s1.4-0.7,2.4-0.7c0.6,0,1.2,0.1,1.7,0.3s1,0.5,1.4,0.8l-0.5,1c-0.8-0.7-1.7-1-2.6-1c-0.6,0-1.1,0.1-1.4,0.4
			c-0.3,0.2-0.5,0.6-0.5,1c0,0.4,0.1,0.6,0.3,0.8c0.2,0.2,0.6,0.4,1,0.5l1.5,0.4c0.8,0.2,1.4,0.5,1.8,0.9c0.4,0.4,0.6,0.9,0.6,1.5
			c0,0.7-0.3,1.3-0.9,1.8s-1.4,0.7-2.5,0.7C608.7,219.2,607.5,218.8,606.7,218.1z"/>
	</g>
	<g class="st4">
		<path class="st6" d="M535.4,239.8l-1.3-3.2h-6.4l-1.4,3.2h-1.5l5.4-12.3h1.2l5.4,12.3H535.4z M528.2,235.5h5.4l-2.7-6.3
			L528.2,235.5z"/>
		<path class="st6" d="M537.9,238.8l0.5-1c0.5,0.4,0.9,0.6,1.4,0.8c0.5,0.2,1,0.2,1.6,0.2c0.7,0,1.2-0.1,1.5-0.3
			c0.3-0.2,0.5-0.5,0.5-1c0-0.3-0.1-0.6-0.3-0.8c-0.2-0.2-0.6-0.4-1.1-0.5l-1.5-0.3c-0.7-0.2-1.3-0.4-1.7-0.9
			c-0.4-0.4-0.6-0.9-0.6-1.5c0-0.8,0.3-1.4,0.9-1.9s1.4-0.7,2.4-0.7c0.6,0,1.2,0.1,1.7,0.3c0.5,0.2,1,0.5,1.4,0.8l-0.5,1
			c-0.8-0.7-1.7-1-2.6-1c-0.6,0-1.1,0.1-1.4,0.4c-0.3,0.2-0.5,0.6-0.5,1c0,0.4,0.1,0.6,0.3,0.8c0.2,0.2,0.6,0.4,1,0.5l1.5,0.4
			c0.8,0.2,1.4,0.5,1.8,0.9c0.4,0.4,0.6,0.9,0.6,1.5c0,0.7-0.3,1.3-0.9,1.8c-0.6,0.4-1.4,0.7-2.5,0.7
			C539.9,239.9,538.8,239.5,537.9,238.8z"/>
		<path class="st6" d="M546.4,238.8l0.5-1c0.5,0.4,0.9,0.6,1.4,0.8c0.5,0.2,1,0.2,1.6,0.2c0.7,0,1.2-0.1,1.5-0.3
			c0.3-0.2,0.5-0.5,0.5-1c0-0.3-0.1-0.6-0.3-0.8c-0.2-0.2-0.6-0.4-1.1-0.5l-1.5-0.3c-0.7-0.2-1.3-0.4-1.7-0.9
			c-0.4-0.4-0.6-0.9-0.6-1.5c0-0.8,0.3-1.4,0.9-1.9s1.4-0.7,2.4-0.7c0.6,0,1.2,0.1,1.7,0.3s1,0.5,1.4,0.8l-0.5,1
			c-0.8-0.7-1.7-1-2.6-1c-0.6,0-1.1,0.1-1.4,0.4c-0.3,0.2-0.5,0.6-0.5,1c0,0.4,0.1,0.6,0.3,0.8c0.2,0.2,0.6,0.4,1,0.5l1.5,0.4
			c0.8,0.2,1.4,0.5,1.8,0.9c0.4,0.4,0.6,0.9,0.6,1.5c0,0.7-0.3,1.3-0.9,1.8s-1.4,0.7-2.5,0.7C548.4,239.9,547.3,239.5,546.4,238.8z"
			/>
		<path class="st6" d="M562.8,235.4h-6.4c0,1.1,0.3,1.9,0.8,2.5c0.5,0.6,1.2,0.8,2.2,0.8c1,0,1.9-0.3,2.8-1l0.5,1
			c-0.4,0.4-0.9,0.6-1.5,0.8c-0.6,0.2-1.2,0.3-1.8,0.3c-1.4,0-2.4-0.4-3.2-1.2c-0.8-0.8-1.2-1.9-1.2-3.3c0-0.9,0.2-1.7,0.5-2.3
			c0.3-0.7,0.8-1.2,1.4-1.6c0.6-0.4,1.3-0.6,2.1-0.6c1.1,0,2,0.4,2.7,1.1c0.7,0.8,1,1.8,1,3.1V235.4z M557.3,232.7
			c-0.5,0.4-0.7,1-0.9,1.8h5c-0.1-0.8-0.3-1.4-0.7-1.9c-0.4-0.4-1-0.6-1.7-0.6C558.4,232,557.8,232.2,557.3,232.7z"/>
		<path class="st6" d="M564.3,238.8l0.5-1c0.5,0.4,0.9,0.6,1.4,0.8c0.5,0.2,1,0.2,1.6,0.2c0.7,0,1.2-0.1,1.5-0.3
			c0.3-0.2,0.5-0.5,0.5-1c0-0.3-0.1-0.6-0.3-0.8c-0.2-0.2-0.6-0.4-1.1-0.5l-1.5-0.3c-0.7-0.2-1.3-0.4-1.7-0.9
			c-0.4-0.4-0.6-0.9-0.6-1.5c0-0.8,0.3-1.4,0.9-1.9s1.4-0.7,2.4-0.7c0.6,0,1.2,0.1,1.7,0.3s1,0.5,1.4,0.8l-0.5,1
			c-0.8-0.7-1.7-1-2.6-1c-0.6,0-1.1,0.1-1.4,0.4c-0.3,0.2-0.5,0.6-0.5,1c0,0.4,0.1,0.6,0.3,0.8c0.2,0.2,0.6,0.4,1,0.5l1.5,0.4
			c0.8,0.2,1.4,0.5,1.8,0.9c0.4,0.4,0.6,0.9,0.6,1.5c0,0.7-0.3,1.3-0.9,1.8s-1.4,0.7-2.5,0.7C566.3,239.9,565.2,239.5,564.3,238.8z"
			/>
		<path class="st6" d="M572.9,238.8l0.5-1c0.5,0.4,0.9,0.6,1.4,0.8c0.5,0.2,1,0.2,1.6,0.2c0.7,0,1.2-0.1,1.5-0.3
			c0.3-0.2,0.5-0.5,0.5-1c0-0.3-0.1-0.6-0.3-0.8c-0.2-0.2-0.6-0.4-1.1-0.5l-1.5-0.3c-0.7-0.2-1.3-0.4-1.7-0.9
			c-0.4-0.4-0.6-0.9-0.6-1.5c0-0.8,0.3-1.4,0.9-1.9s1.4-0.7,2.4-0.7c0.6,0,1.2,0.1,1.7,0.3c0.5,0.2,1,0.5,1.4,0.8l-0.5,1
			c-0.8-0.7-1.7-1-2.6-1c-0.6,0-1.1,0.1-1.4,0.4c-0.3,0.2-0.5,0.6-0.5,1c0,0.4,0.1,0.6,0.3,0.8c0.2,0.2,0.6,0.4,1,0.5l1.5,0.4
			c0.8,0.2,1.4,0.5,1.8,0.9c0.4,0.4,0.6,0.9,0.6,1.5c0,0.7-0.3,1.3-0.9,1.8c-0.6,0.4-1.4,0.7-2.5,0.7
			C574.9,239.9,573.7,239.5,572.9,238.8z"/>
		<path class="st6" d="M594.4,234.3v5.4H593v-5.4c0-0.8-0.1-1.4-0.4-1.8s-0.7-0.6-1.4-0.6c-0.7,0-1.3,0.2-1.7,0.7
			c-0.4,0.5-0.6,1.2-0.6,2v4.9h-1.4v-5.4c0-0.8-0.1-1.4-0.4-1.8c-0.3-0.4-0.7-0.6-1.4-0.6c-0.7,0-1.3,0.2-1.7,0.7
			c-0.4,0.5-0.6,1.2-0.6,2v4.9H582v-6.2c0-0.9,0-1.7-0.1-2.4h1.3l0.1,1.5c0.2-0.6,0.6-1,1.1-1.3c0.5-0.3,1-0.4,1.7-0.4
			c0.7,0,1.2,0.1,1.7,0.4c0.4,0.3,0.8,0.7,1,1.3c0.3-0.5,0.7-0.9,1.2-1.2c0.5-0.3,1.1-0.5,1.7-0.5
			C593.5,230.9,594.4,232.1,594.4,234.3z"/>
		<path class="st6" d="M604.3,235.4H598c0,1.1,0.3,1.9,0.8,2.5c0.5,0.6,1.2,0.8,2.2,0.8c1,0,1.9-0.3,2.8-1l0.5,1
			c-0.4,0.4-0.9,0.6-1.5,0.8c-0.6,0.2-1.2,0.3-1.8,0.3c-1.4,0-2.4-0.4-3.2-1.2c-0.8-0.8-1.2-1.9-1.2-3.3c0-0.9,0.2-1.7,0.5-2.3
			c0.3-0.7,0.8-1.2,1.4-1.6c0.6-0.4,1.3-0.6,2.1-0.6c1.1,0,2,0.4,2.7,1.1c0.7,0.8,1,1.8,1,3.1V235.4z M598.9,232.7
			c-0.5,0.4-0.7,1-0.9,1.8h5c-0.1-0.8-0.3-1.4-0.7-1.9c-0.4-0.4-1-0.6-1.7-0.6C599.9,232,599.4,232.2,598.9,232.7z"/>
		<path class="st6" d="M613.9,234.3v5.4h-1.4v-5.4c0-0.8-0.2-1.4-0.5-1.8s-0.8-0.6-1.5-0.6c-0.8,0-1.4,0.2-1.9,0.7
			c-0.5,0.5-0.7,1.2-0.7,2v5h-1.4v-6.2c0-0.9,0-1.7-0.1-2.4h1.3l0.1,1.5c0.3-0.6,0.7-1,1.2-1.3c0.5-0.3,1.1-0.5,1.8-0.5
			C612.9,230.9,613.9,232.1,613.9,234.3z"/>
		<path class="st6" d="M618.4,232.2v4.7c0,0.6,0.1,1.1,0.4,1.4c0.3,0.3,0.6,0.4,1.1,0.4c0.3,0,0.6-0.1,0.9-0.2v1.2
			c-0.4,0.1-0.8,0.2-1.2,0.2c-0.8,0-1.5-0.2-1.9-0.7s-0.7-1.2-0.7-2.1v-4.9h-1.7v-1.1h1.7v-2.2l1.4-0.5v2.7h2.5v1.1H618.4z"/>
	</g>
	<rect x="356.2" y="19.5" class="st5" width="125.6" height="40.1"/>
	<g class="st4">
		<path class="st6" d="M372.6,21.9h4.9c1.3,0,2.2,0.3,3,0.9s1.1,1.4,1.1,2.5s-0.4,1.9-1.1,2.5c-0.7,0.6-1.7,0.9-2.9,0.9H374v5.4
			h-1.4V21.9z M377.3,27.6c0.9,0,1.6-0.2,2-0.6c0.5-0.4,0.7-1,0.7-1.7s-0.2-1.3-0.7-1.7s-1.1-0.6-2-0.6H374v4.5H377.3z"/>
		<path class="st6" d="M391,25.5v8.7h-1.4v-1.6c-0.3,0.5-0.6,1-1.1,1.2c-0.5,0.3-1.1,0.4-1.8,0.4c-0.8,0-1.4-0.2-2-0.6
			c-0.6-0.4-1-0.9-1.3-1.6c-0.3-0.7-0.5-1.5-0.5-2.3c0-0.9,0.2-1.7,0.5-2.4c0.3-0.7,0.8-1.2,1.4-1.6c0.6-0.4,1.2-0.6,2-0.6
			c0.7,0,1.3,0.1,1.8,0.4c0.5,0.3,0.9,0.7,1.2,1.3v-1.5H391z M388.9,32.3c0.5-0.6,0.7-1.4,0.7-2.5s-0.2-1.9-0.7-2.5
			c-0.5-0.6-1.1-0.9-2-0.9c-0.8,0-1.5,0.3-2,0.9c-0.5,0.6-0.7,1.4-0.7,2.5s0.2,1.9,0.7,2.4s1.1,0.9,2,0.9
			C387.8,33.2,388.4,32.9,388.9,32.3z"/>
		<path class="st6" d="M398.5,25.4l0,1.3c-0.3-0.1-0.6-0.1-0.9-0.1c-0.8,0-1.5,0.3-1.9,0.8c-0.4,0.5-0.6,1.2-0.6,1.9v4.9h-1.4V28
			c0-0.9,0-1.7-0.1-2.4h1.3l0.1,1.6c0.2-0.6,0.6-1,1-1.3c0.5-0.3,1-0.5,1.7-0.5C398,25.3,398.2,25.4,398.5,25.4z"/>
		<path class="st6" d="M402.4,26.6v4.7c0,0.6,0.1,1.1,0.4,1.4c0.3,0.3,0.6,0.4,1.1,0.4c0.3,0,0.6-0.1,0.9-0.2v1.2
			c-0.4,0.1-0.8,0.2-1.2,0.2c-0.8,0-1.5-0.2-1.9-0.7s-0.7-1.2-0.7-2.1v-4.9h-1.7v-1.1h1.7v-2.2l1.4-0.5v2.7h2.5v1.1H402.4z"/>
		<path class="st6" d="M414,28.8v5.4h-1.4v-5.4c0-0.8-0.2-1.4-0.5-1.8s-0.8-0.6-1.5-0.6c-0.8,0-1.4,0.2-1.9,0.7
			c-0.5,0.5-0.7,1.2-0.7,2v5h-1.4V28c0-0.9,0-1.7-0.1-2.4h1.3l0.1,1.5c0.3-0.6,0.7-1,1.2-1.3c0.5-0.3,1.1-0.5,1.8-0.5
			C413,25.3,414,26.5,414,28.8z"/>
		<path class="st6" d="M423.9,29.8h-6.4c0,1.1,0.3,1.9,0.8,2.5c0.5,0.6,1.2,0.8,2.2,0.8c1,0,1.9-0.3,2.8-1l0.5,1
			c-0.4,0.4-0.9,0.6-1.5,0.8c-0.6,0.2-1.2,0.3-1.8,0.3c-1.4,0-2.4-0.4-3.2-1.2c-0.8-0.8-1.2-1.9-1.2-3.3c0-0.9,0.2-1.7,0.5-2.3
			c0.3-0.7,0.8-1.2,1.4-1.6c0.6-0.4,1.3-0.6,2.1-0.6c1.1,0,2,0.4,2.7,1.1c0.7,0.8,1,1.8,1,3.1V29.8z M418.5,27.1
			c-0.5,0.4-0.7,1-0.9,1.8h5c-0.1-0.8-0.3-1.4-0.7-1.9c-0.4-0.4-1-0.6-1.7-0.6C419.5,26.4,418.9,26.6,418.5,27.1z"/>
		<path class="st6" d="M430.8,25.4l0,1.3c-0.3-0.1-0.6-0.1-0.9-0.1c-0.8,0-1.5,0.3-1.9,0.8s-0.6,1.2-0.6,1.9v4.9H426V28
			c0-0.9,0-1.7-0.1-2.4h1.3l0.1,1.6c0.2-0.6,0.6-1,1-1.3c0.5-0.3,1-0.5,1.7-0.5C430.3,25.3,430.6,25.4,430.8,25.4z"/>
		<path class="st6" d="M431.6,33.2l0.5-1c0.5,0.4,0.9,0.6,1.4,0.8c0.5,0.2,1,0.2,1.6,0.2c0.7,0,1.2-0.1,1.5-0.3
			c0.3-0.2,0.5-0.5,0.5-1c0-0.3-0.1-0.6-0.3-0.8c-0.2-0.2-0.6-0.4-1.1-0.5l-1.5-0.3c-0.7-0.2-1.3-0.4-1.7-0.9
			c-0.4-0.4-0.6-0.9-0.6-1.5c0-0.8,0.3-1.4,0.9-1.9c0.6-0.5,1.4-0.7,2.4-0.7c0.6,0,1.2,0.1,1.7,0.3s1,0.5,1.4,0.8l-0.5,1
			c-0.8-0.7-1.7-1-2.6-1c-0.6,0-1.1,0.1-1.4,0.4c-0.3,0.2-0.5,0.6-0.5,1c0,0.4,0.1,0.6,0.3,0.8c0.2,0.2,0.6,0.4,1,0.5l1.5,0.4
			c0.8,0.2,1.4,0.5,1.8,0.9s0.6,0.9,0.6,1.5c0,0.7-0.3,1.3-0.9,1.8c-0.6,0.4-1.4,0.7-2.5,0.7C433.6,34.3,432.5,34,431.6,33.2z"/>
		<path class="st6" d="M448.1,28.8v5.4h-1.4v-5.4c0-0.8-0.2-1.4-0.5-1.8s-0.8-0.6-1.5-0.6c-0.8,0-1.4,0.2-1.9,0.7
			c-0.5,0.5-0.7,1.2-0.7,2v5h-1.4V21.5h1.4V27c0.3-0.5,0.7-0.9,1.2-1.2c0.5-0.3,1.1-0.4,1.7-0.4C447.1,25.3,448.1,26.5,448.1,28.8z"
			/>
		<path class="st6" d="M450.6,21.9h1.7v1.6h-1.7V21.9z M450.8,34.2v-8.7h1.4v8.7H450.8z"/>
		<path class="st6" d="M461.2,25.9c0.6,0.4,1,0.9,1.4,1.6s0.5,1.5,0.5,2.4c0,0.9-0.2,1.7-0.5,2.3c-0.3,0.7-0.8,1.2-1.4,1.6
			c-0.6,0.4-1.3,0.6-2,0.6c-0.7,0-1.3-0.1-1.8-0.4c-0.5-0.3-0.9-0.7-1.2-1.3v5.3h-1.4V28c0-0.9,0-1.7-0.1-2.4h1.3l0.1,1.7
			c0.2-0.6,0.6-1.1,1.1-1.4c0.5-0.3,1.1-0.5,1.9-0.5C460,25.3,460.6,25.5,461.2,25.9z M460.9,32.3c0.5-0.6,0.7-1.4,0.7-2.4
			s-0.2-1.9-0.7-2.5c-0.5-0.6-1.1-0.9-2-0.9c-0.9,0-1.5,0.3-2,0.9c-0.5,0.6-0.7,1.4-0.7,2.5s0.2,1.9,0.7,2.5c0.5,0.6,1.1,0.9,2,0.9
			C459.8,33.2,460.4,32.9,460.9,32.3z"/>
	</g>
	<g class="st4">
		<path class="st6" d="M362.1,54.9V42.6h7.7v1.2h-6.4v4.3h6v1.2h-6v4.5h6.4v1.2H362.1z"/>
		<path class="st6" d="M371.5,53.9l0.5-1c0.5,0.4,0.9,0.6,1.4,0.8c0.5,0.2,1,0.2,1.6,0.2c0.7,0,1.2-0.1,1.5-0.3s0.5-0.5,0.5-1
			c0-0.3-0.1-0.6-0.3-0.8c-0.2-0.2-0.6-0.4-1.1-0.5l-1.5-0.3c-0.7-0.2-1.3-0.4-1.7-0.9s-0.6-0.9-0.6-1.5c0-0.8,0.3-1.4,0.9-1.9
			s1.4-0.7,2.4-0.7c0.6,0,1.2,0.1,1.7,0.3c0.5,0.2,1,0.5,1.4,0.8l-0.5,1c-0.8-0.7-1.7-1-2.6-1c-0.6,0-1.1,0.1-1.4,0.4
			c-0.3,0.2-0.5,0.6-0.5,1c0,0.4,0.1,0.6,0.3,0.8c0.2,0.2,0.6,0.4,1,0.5l1.5,0.4c0.8,0.2,1.4,0.5,1.8,0.9c0.4,0.4,0.6,0.9,0.6,1.5
			c0,0.7-0.3,1.3-0.9,1.8c-0.6,0.4-1.4,0.7-2.5,0.7C373.5,55,372.3,54.7,371.5,53.9z"/>
		<path class="st6" d="M382.3,47.3v4.7c0,0.6,0.1,1.1,0.4,1.4c0.3,0.3,0.6,0.4,1.1,0.4c0.3,0,0.6-0.1,0.9-0.2v1.2
			c-0.4,0.1-0.8,0.2-1.2,0.2c-0.8,0-1.5-0.2-1.9-0.7s-0.7-1.2-0.7-2.1v-4.9h-1.7v-1.1h1.7V44l1.4-0.5v2.7h2.5v1.1H382.3z"/>
		<path class="st6" d="M394.1,46.2v8.7h-1.4v-1.6c-0.3,0.5-0.6,1-1.1,1.2c-0.5,0.3-1.1,0.4-1.8,0.4c-0.8,0-1.4-0.2-2-0.6
			c-0.6-0.4-1-0.9-1.3-1.6c-0.3-0.7-0.5-1.5-0.5-2.3c0-0.9,0.2-1.7,0.5-2.4s0.8-1.2,1.4-1.6s1.2-0.6,2-0.6c0.7,0,1.3,0.1,1.8,0.4
			c0.5,0.3,0.9,0.7,1.2,1.3v-1.5H394.1z M392.1,53c0.5-0.6,0.7-1.4,0.7-2.5s-0.2-1.9-0.7-2.5c-0.5-0.6-1.1-0.9-2-0.9s-1.5,0.3-2,0.9
			s-0.7,1.4-0.7,2.5s0.2,1.9,0.7,2.4c0.5,0.6,1.1,0.9,2,0.9C390.9,53.9,391.6,53.6,392.1,53z"/>
		<path class="st6" d="M403.2,46.6c0.6,0.4,1,0.9,1.4,1.6c0.3,0.7,0.5,1.5,0.5,2.3s-0.2,1.7-0.5,2.4c-0.3,0.7-0.8,1.2-1.4,1.6
			c-0.6,0.4-1.3,0.6-2,0.6c-0.7,0-1.3-0.1-1.8-0.4c-0.5-0.3-0.9-0.7-1.2-1.3v1.6h-1.4V42.2h1.4v5.5c0.3-0.6,0.6-1,1.1-1.3
			c0.5-0.3,1.1-0.4,1.8-0.4C401.9,46,402.6,46.2,403.2,46.6z M402.9,53c0.5-0.6,0.7-1.4,0.7-2.5c0-1-0.2-1.9-0.7-2.4
			c-0.5-0.6-1.1-0.9-2-0.9c-0.9,0-1.5,0.3-2,0.9c-0.5,0.6-0.7,1.4-0.7,2.5s0.2,1.9,0.7,2.5c0.5,0.6,1.1,0.9,2,0.9
			C401.7,53.9,402.4,53.6,402.9,53z"/>
		<path class="st6" d="M407.2,54.9V42.2h1.4v12.7H407.2z"/>
		<path class="st6" d="M411.1,42.6h1.7v1.6h-1.7V42.6z M411.3,54.9v-8.7h1.4v8.7H411.3z"/>
		<path class="st6" d="M414.8,53.9l0.5-1c0.5,0.4,0.9,0.6,1.4,0.8c0.5,0.2,1,0.2,1.6,0.2c0.7,0,1.2-0.1,1.5-0.3
			c0.3-0.2,0.5-0.5,0.5-1c0-0.3-0.1-0.6-0.3-0.8c-0.2-0.2-0.6-0.4-1.1-0.5l-1.5-0.3c-0.7-0.2-1.3-0.4-1.7-0.9
			c-0.4-0.4-0.6-0.9-0.6-1.5c0-0.8,0.3-1.4,0.9-1.9c0.6-0.5,1.4-0.7,2.4-0.7c0.6,0,1.2,0.1,1.7,0.3s1,0.5,1.4,0.8l-0.5,1
			c-0.8-0.7-1.7-1-2.6-1c-0.6,0-1.1,0.1-1.4,0.4c-0.3,0.2-0.5,0.6-0.5,1c0,0.4,0.1,0.6,0.3,0.8c0.2,0.2,0.6,0.4,1,0.5l1.5,0.4
			c0.8,0.2,1.4,0.5,1.8,0.9s0.6,0.9,0.6,1.5c0,0.7-0.3,1.3-0.9,1.8c-0.6,0.4-1.4,0.7-2.5,0.7C416.8,55,415.7,54.7,414.8,53.9z"/>
		<path class="st6" d="M431.3,49.5v5.4h-1.4v-5.4c0-0.8-0.2-1.4-0.5-1.8c-0.3-0.4-0.8-0.6-1.5-0.6c-0.8,0-1.4,0.2-1.9,0.7
			c-0.5,0.5-0.7,1.2-0.7,2v5h-1.4V42.2h1.4v5.4c0.3-0.5,0.7-0.9,1.2-1.2c0.5-0.3,1.1-0.4,1.7-0.4C430.3,46,431.3,47.2,431.3,49.5z"
			/>
		<path class="st6" d="M446.4,49.5v5.4H445v-5.4c0-0.8-0.1-1.4-0.4-1.8c-0.3-0.4-0.7-0.6-1.4-0.6c-0.7,0-1.3,0.2-1.7,0.7
			c-0.4,0.5-0.6,1.2-0.6,2v4.9h-1.4v-5.4c0-0.8-0.1-1.4-0.4-1.8c-0.3-0.4-0.7-0.6-1.4-0.6c-0.7,0-1.3,0.2-1.7,0.7
			c-0.4,0.5-0.6,1.2-0.6,2v4.9H434v-6.2c0-0.9,0-1.7-0.1-2.4h1.3l0.1,1.5c0.2-0.6,0.6-1,1.1-1.3c0.5-0.3,1-0.4,1.7-0.4
			c0.7,0,1.3,0.1,1.7,0.4c0.4,0.3,0.8,0.7,1,1.3c0.3-0.5,0.7-0.9,1.2-1.2c0.5-0.3,1.1-0.5,1.7-0.5C445.5,46,446.4,47.2,446.4,49.5z"
			/>
		<path class="st6" d="M456.3,50.5H450c0,1.1,0.3,1.9,0.8,2.5c0.5,0.6,1.2,0.8,2.2,0.8c1,0,1.9-0.3,2.8-1l0.5,1
			c-0.4,0.4-0.9,0.6-1.5,0.8c-0.6,0.2-1.2,0.3-1.8,0.3c-1.4,0-2.4-0.4-3.2-1.2c-0.8-0.8-1.2-1.9-1.2-3.3c0-0.9,0.2-1.7,0.5-2.3
			s0.8-1.2,1.4-1.6c0.6-0.4,1.3-0.6,2.1-0.6c1.1,0,2,0.4,2.7,1.1s1,1.8,1,3.1V50.5z M450.9,47.8c-0.5,0.4-0.7,1-0.9,1.8h5
			c-0.1-0.8-0.3-1.4-0.7-1.9c-0.4-0.4-1-0.6-1.7-0.6S451.4,47.3,450.9,47.8z"/>
		<path class="st6" d="M465.9,49.5v5.4h-1.4v-5.4c0-0.8-0.2-1.4-0.5-1.8s-0.8-0.6-1.5-0.6c-0.8,0-1.4,0.2-1.9,0.7
			c-0.5,0.5-0.7,1.2-0.7,2v5h-1.4v-6.2c0-0.9,0-1.7-0.1-2.4h1.3l0.1,1.5c0.3-0.6,0.7-1,1.2-1.3c0.5-0.3,1.1-0.5,1.8-0.5
			C464.9,46,465.9,47.2,465.9,49.5z"/>
		<path class="st6" d="M470.4,47.3v4.7c0,0.6,0.1,1.1,0.4,1.4c0.3,0.3,0.6,0.4,1.1,0.4c0.3,0,0.6-0.1,0.9-0.2v1.2
			c-0.4,0.1-0.8,0.2-1.2,0.2c-0.8,0-1.5-0.2-1.9-0.7s-0.7-1.2-0.7-2.1v-4.9h-1.7v-1.1h1.7V44l1.4-0.5v2.7h2.5v1.1H470.4z"/>
	</g>
	<rect x="350.7" y="204.4" class="st5" width="136.7" height="40.1"/>
	<g class="st4">
		<path class="st6" d="M379.7,219.1v-12.3h7.6v1.2h-6.2v4.3h5.8v1.2h-5.8v5.6H379.7z"/>
		<path class="st6" d="M396.3,214.7h-6.4c0,1.1,0.3,1.9,0.8,2.5c0.5,0.6,1.2,0.8,2.2,0.8c1,0,1.9-0.3,2.8-1l0.5,1
			c-0.4,0.4-0.9,0.6-1.5,0.8c-0.6,0.2-1.2,0.3-1.8,0.3c-1.4,0-2.4-0.4-3.2-1.2c-0.8-0.8-1.2-1.9-1.2-3.3c0-0.9,0.2-1.7,0.5-2.3
			c0.3-0.7,0.8-1.2,1.4-1.6c0.6-0.4,1.3-0.6,2.1-0.6c1.1,0,2,0.4,2.7,1.1s1,1.8,1,3.1V214.7z M390.8,212c-0.5,0.4-0.7,1-0.9,1.8h5
			c-0.1-0.8-0.3-1.4-0.7-1.9c-0.4-0.4-1-0.6-1.7-0.6S391.3,211.5,390.8,212z"/>
		<path class="st6" d="M406,206.4v12.7h-1.4v-1.6c-0.3,0.5-0.6,1-1.1,1.2c-0.5,0.3-1.1,0.4-1.8,0.4c-0.8,0-1.4-0.2-2-0.6
			c-0.6-0.4-1-0.9-1.4-1.6c-0.3-0.7-0.5-1.5-0.5-2.4s0.2-1.7,0.5-2.3c0.3-0.7,0.8-1.2,1.4-1.6s1.3-0.6,2-0.6c0.7,0,1.3,0.1,1.8,0.4
			s0.9,0.7,1.1,1.2v-5.5H406z M403.9,217.2c0.5-0.6,0.7-1.4,0.7-2.5c0-1.1-0.2-1.9-0.7-2.5c-0.5-0.6-1.1-0.9-2-0.9
			c-0.8,0-1.5,0.3-2,0.9c-0.5,0.6-0.7,1.4-0.7,2.4c0,1.1,0.2,1.9,0.7,2.5c0.5,0.6,1.1,0.9,2,0.9
			C402.8,218.1,403.5,217.8,403.9,217.2z"/>
		<path class="st6" d="M418.5,219.1H417l-1.5-4.1c-0.2-0.5-0.4-0.8-0.8-1s-0.8-0.3-1.4-0.3h-3.1v5.4h-1.4v-12.3h4.9
			c1.3,0,2.3,0.3,3,0.9c0.7,0.6,1.1,1.4,1.1,2.5c0,0.8-0.2,1.5-0.6,2c-0.4,0.5-1,0.9-1.8,1.2c0.4,0.1,0.7,0.2,0.9,0.5
			c0.3,0.2,0.5,0.6,0.6,1.1L418.5,219.1z M413.6,212.6c1.9,0,2.8-0.8,2.8-2.3c0-0.8-0.2-1.3-0.7-1.7s-1.2-0.6-2.1-0.6h-3.4v4.6
			H413.6z"/>
		<path class="st6" d="M430.1,219.1l-1.3-3.2h-6.4l-1.4,3.2h-1.5l5.4-12.3h1.2l5.4,12.3H430.1z M422.8,214.8h5.4l-2.7-6.3
			L422.8,214.8z"/>
		<path class="st6" d="M443.8,206.8h1.2v12.3h-1.3V210l-4,9.1h-1l-4-9l0,9h-1.3v-12.3h1.2l4.6,10.6L443.8,206.8z"/>
		<path class="st6" d="M448,206.8h4.9c1.3,0,2.2,0.3,3,0.9c0.7,0.6,1.1,1.4,1.1,2.5s-0.4,1.9-1.1,2.5c-0.7,0.6-1.7,0.9-2.9,0.9h-3.5
			v5.4H448V206.8z M452.7,212.5c0.9,0,1.6-0.2,2-0.6c0.5-0.4,0.7-1,0.7-1.7s-0.2-1.3-0.7-1.7s-1.1-0.6-2-0.6h-3.4v4.5H452.7z"/>
	</g>
	<g class="st4">
		<path class="st6" d="M388.9,239.2c-0.9-0.5-1.5-1.2-2-2.2c-0.5-0.9-0.7-2.1-0.7-3.3s0.2-2.4,0.7-3.3s1.1-1.7,2-2.2
			c0.9-0.5,1.9-0.8,3-0.8c0.8,0,1.6,0.1,2.3,0.4c0.7,0.3,1.3,0.6,1.8,1.2l-0.5,1.1c-0.6-0.5-1.2-0.9-1.7-1.1
			c-0.6-0.2-1.2-0.3-1.9-0.3c-1.3,0-2.4,0.4-3.1,1.3s-1.1,2.1-1.1,3.7c0,1.6,0.4,2.9,1.1,3.7s1.8,1.3,3.1,1.3c0.7,0,1.3-0.1,1.9-0.3
			c0.6-0.2,1.1-0.6,1.7-1.1l0.5,1.1c-0.5,0.5-1.1,0.9-1.8,1.2c-0.7,0.3-1.5,0.4-2.3,0.4C390.7,239.9,389.7,239.7,388.9,239.2z"/>
		<path class="st6" d="M399.5,239.4c-0.6-0.4-1.1-0.9-1.4-1.6c-0.3-0.7-0.5-1.5-0.5-2.4c0-0.9,0.2-1.7,0.5-2.4
			c0.3-0.7,0.8-1.2,1.4-1.6c0.6-0.4,1.3-0.6,2.2-0.6s1.5,0.2,2.2,0.6s1.1,0.9,1.4,1.6c0.3,0.7,0.5,1.5,0.5,2.4
			c0,0.9-0.2,1.7-0.5,2.4c-0.3,0.7-0.8,1.2-1.4,1.6c-0.6,0.4-1.3,0.6-2.2,0.6S400.2,239.7,399.5,239.4z M403.7,237.9
			c0.5-0.6,0.7-1.4,0.7-2.5c0-1.1-0.2-1.9-0.7-2.5c-0.5-0.6-1.1-0.9-2-0.9c-0.8,0-1.5,0.3-2,0.9c-0.5,0.6-0.7,1.4-0.7,2.5
			c0,1.1,0.2,1.9,0.7,2.5c0.5,0.6,1.1,0.9,2,0.9S403.2,238.5,403.7,237.9z"/>
		<path class="st6" d="M415.4,234.4v5.4H414v-5.4c0-0.8-0.2-1.4-0.5-1.8c-0.3-0.4-0.8-0.6-1.5-0.6c-0.8,0-1.4,0.2-1.9,0.7
			c-0.5,0.5-0.7,1.2-0.7,2v5H408v-6.2c0-0.9,0-1.7-0.1-2.4h1.3l0.1,1.5c0.3-0.6,0.7-1,1.2-1.3c0.5-0.3,1.1-0.5,1.8-0.5
			C414.3,230.9,415.4,232.1,415.4,234.4z"/>
		<path class="st6" d="M425.5,234.4v5.4h-1.4v-5.4c0-0.8-0.2-1.4-0.5-1.8s-0.8-0.6-1.5-0.6c-0.8,0-1.4,0.2-1.9,0.7
			c-0.5,0.5-0.7,1.2-0.7,2v5H418v-6.2c0-0.9,0-1.7-0.1-2.4h1.3l0.1,1.5c0.3-0.6,0.7-1,1.2-1.3c0.5-0.3,1.1-0.5,1.8-0.5
			C424.4,230.9,425.5,232.1,425.5,234.4z"/>
		<path class="st6" d="M435.3,235.4H429c0,1.1,0.3,1.9,0.8,2.5c0.5,0.6,1.2,0.8,2.2,0.8c1,0,1.9-0.3,2.8-1l0.5,1
			c-0.4,0.4-0.9,0.6-1.5,0.8c-0.6,0.2-1.2,0.3-1.8,0.3c-1.4,0-2.4-0.4-3.2-1.2c-0.8-0.8-1.2-1.9-1.2-3.3c0-0.9,0.2-1.7,0.5-2.3
			c0.3-0.7,0.8-1.2,1.4-1.6c0.6-0.4,1.3-0.6,2.1-0.6c1.1,0,2,0.4,2.7,1.1c0.7,0.8,1,1.8,1,3.1V235.4z M429.9,232.7
			c-0.5,0.4-0.7,1-0.9,1.8h5c-0.1-0.8-0.3-1.4-0.7-1.9c-0.4-0.4-1-0.6-1.7-0.6C431,232,430.4,232.2,429.9,232.7z"/>
		<path class="st6" d="M438.9,239.4c-0.6-0.4-1.1-0.9-1.4-1.6c-0.3-0.7-0.5-1.5-0.5-2.3c0-0.9,0.2-1.7,0.5-2.4s0.8-1.2,1.5-1.6
			c0.6-0.4,1.4-0.6,2.2-0.6c0.6,0,1.2,0.1,1.7,0.3s1,0.5,1.4,0.8l-0.5,1c-0.4-0.3-0.9-0.6-1.3-0.8c-0.4-0.2-0.8-0.2-1.2-0.2
			c-0.9,0-1.6,0.3-2.1,0.9c-0.5,0.6-0.8,1.4-0.8,2.5c0,1,0.2,1.9,0.7,2.4c0.5,0.6,1.2,0.9,2.1,0.9c0.4,0,0.8-0.1,1.2-0.2
			c0.4-0.2,0.8-0.4,1.3-0.8l0.5,1c-0.4,0.3-0.8,0.6-1.4,0.8c-0.6,0.2-1.1,0.3-1.7,0.3C440.3,239.9,439.5,239.7,438.9,239.4z"/>
		<path class="st6" d="M447.9,232.2v4.7c0,0.6,0.1,1.1,0.4,1.4c0.3,0.3,0.6,0.4,1.1,0.4c0.3,0,0.6-0.1,0.9-0.2v1.2
			c-0.4,0.1-0.8,0.2-1.2,0.2c-0.8,0-1.5-0.2-1.9-0.7s-0.7-1.2-0.7-2.1v-4.9h-1.7v-1.1h1.7v-2.2l1.4-0.5v2.7h2.5v1.1H447.9z"/>
	</g>
	<line id="Line_280_4_" class="st12" x1="662" y1="294.5" x2="0" y2="294.5"/>
</g>
</svg>
