<?xml version="1.0" encoding="utf-8"?>
<!-- Generator: Adobe Illustrator 24.0.3, SVG Export Plug-In . SVG Version: 6.00 Build 0)  -->
<svg version="1.1" xmlns="http://www.w3.org/2000/svg" xmlns:xlink="http://www.w3.org/1999/xlink" x="0px" y="0px"
	 viewBox="0 0 1280 306" style="enable-background:new 0 0 1280 306;" xml:space="preserve">
<style type="text/css">
	.st0{fill:#FFFFFF;}
	.st1{fill:#1294C2;}
	.st2{fill:none;}
	.st3{fill:none;stroke:#CC1D1D;stroke-width:1.0897;}
	.st4{fill:none;stroke:#1A4480;stroke-width:1.0897;}
	.st5{font-family:'Montserrat-Bold';}
	.st6{font-size:16.3448px;}
	.st7{fill:#454545;}
	.st8{fill:#333333;}
	.st9{font-family:'ProximaNova-Regular';}
	.st10{font-size:17.4344px;}
	.st11{fill:#CC1D1D;}
	.st12{font-family:'Muli-ExtraBold';}
	.st13{font-size:15.2551px;}
	.st14{fill:#1A4480;}
	.st15{fill:#0A90B7;}
	.st16{fill:none;stroke:#C71F25;}
	.st17{fill:none;stroke:#1A4480;}
</style>
<g id="Layer_2">
</g>
<g id="Layer_1">
	<rect id="Rectangle_2940_7_" x="827.3" y="-0.3" class="st0" width="135.1" height="95"/>
	<path id="Path_11090_7_" class="st0" d="M895.3,109.6l23.3-24.4H872L895.3,109.6z"/>
	<rect id="Rectangle_2940_6_" x="623.3" y="-0.3" class="st0" width="135.1" height="95"/>
	<path id="Path_11090_6_" class="st0" d="M691.3,109.6l23.3-24.4H668L691.3,109.6z"/>
	<rect id="Rectangle_2940_5_" x="421.3" y="-0.3" class="st0" width="135.1" height="95"/>
	<path id="Path_11090_5_" class="st0" d="M489.3,109.6l23.3-24.4H466L489.3,109.6z"/>
	<rect id="Rectangle_2940_4_" x="264.3" y="-0.3" class="st0" width="135.1" height="95"/>
	<path id="Path_11090_4_" class="st0" d="M332.3,109.6l23.3-24.4H309L332.3,109.6z"/>
	<rect id="Rectangle_2941_7_" x="827.3" y="212.5" class="st0" width="135.1" height="93.9"/>
	<path id="Path_11091_7_" class="st0" d="M895.3,197.5l23.3,24.4H872L895.3,197.5z"/>
	<rect id="Rectangle_2941_6_" x="623.6" y="212.5" class="st0" width="135.1" height="93.9"/>
	<path id="Path_11091_6_" class="st0" d="M691.5,197.5l23.3,24.4h-46.6L691.5,197.5z"/>
	<rect id="Rectangle_2941_5_" x="420.9" y="212.5" class="st0" width="135.1" height="93.9"/>
	<path id="Path_11091_5_" class="st0" d="M488.9,197.5l23.3,24.4h-46.6L488.9,197.5z"/>
	<rect id="Rectangle_2941_4_" x="264" y="212.5" class="st0" width="135.1" height="93.9"/>
	<path id="Path_11091_4_" class="st0" d="M331.9,197.5l23.3,24.4h-46.6L331.9,197.5z"/>
	<path id="Path_11098_2_" class="st1" d="M972.6,184.4H802.8l13.2-32.5l-13.2-32.6h169.9l14.3,32.6L972.6,184.4z"/>
	<path id="Path_11099_2_" class="st1" d="M771,184.4H601.2l13.2-32.5l-13.2-32.6H771l14.3,32.6L771,184.4z"/>
	<path id="Path_11100_1_" class="st1" d="M208.2,184.4H9.5v-65.1h198.7l14.3,32.6L208.2,184.4z"/>
	<path id="Path_11101_2_" class="st0" d="M1255.5,184.4h-251.2l14.6-32.5l-14.6-32.6h251.2l15.8,32.6L1255.5,184.4z"/>
	<path id="Path_11287_2_" class="st1" d="M570.5,184.4H239.4l13.7-32.5l-13.7-32.6h331.1l13.7,32.6L570.5,184.4z"/>
	<path id="Path_11341_2_" class="st1" d="M1014.8,179.6h-3.5l1.3-3.2l8.9-22l1.1-2.6l-1.1-2.6l-8.9-22.1l-1.3-3.2h28.9V119h-35.8
		l12.8,31.8l0.4,0.9l-0.4,0.9l-12.8,31.7h199v6.6l11.9-8.9l-11.9-8.9v6.4L1014.8,179.6L1014.8,179.6z"/>
	<path id="Path_11342_2_" class="st1" d="M1203.4,177.3v-4.1l11.9,8.9l-11.9,8.9v-6.6h-199l12.8-31.7l0.4-0.9l-0.4-0.9l-12.8-31.8
		h35.8v4.7h-28.9l1.3,3.2l8.9,22.1l1.1,2.6l-1.1,2.6l-8.9,22l-1.3,3.2h192.1L1203.4,177.3z"/>
	<path id="Path_11343_2_" class="st1" d="M1258.7,184.3h-35.5v-4.7h32.4l0.6-1.4l11.2-25.6l0.4-0.9l-0.4-0.9l-11.2-25.6l-0.6-1.4
		H1060v6.6l-11.9-8.9l11.9-8.9v6.5h198.7l14.3,32.7L1258.7,184.3z"/>
	<text transform="matrix(1 0 0 1 83.1284 149.3481)" class="st0 st5 st6">Select </text>
	<text transform="matrix(1 0 0 1 25.3823 168.9614)" class="st0 st5 st6">Authorization Path</text>
	<text transform="matrix(1 0 0 1 356.3169 159.1543)" class="st0 st5 st6">Preparation</text>
	<text transform="matrix(1 0 0 1 664.54 159.1543)" class="st0 st5 st6">Review</text>
	<text transform="matrix(1 0 0 1 836.7705 159.1543)" class="st0 st5 st6">Authorization</text>
	<text transform="matrix(1 0 0 1 1042.3877 159.1543)" class="st7 st5 st6">Continuous Monitoring</text>
	<text transform="matrix(1 0 0 1 878.0723 245.3346)" class="st8 st9 st10">JAB </text>
	<text transform="matrix(1 0 0 1 840.8066 267.1266)" class="st8 st9 st10">Authorization </text>
	<text transform="matrix(1 0 0 1 864.6221 288.9196)" class="st8 st9 st10">Process</text>
	<text transform="matrix(1 0 0 1 863.6455 28.5798)" class="st8 st9 st10">Agency </text>
	<text transform="matrix(1 0 0 1 840.8066 50.3727)" class="st8 st9 st10">Authorization </text>
	<text transform="matrix(1 0 0 1 864.6221 72.1662)" class="st8 st9 st10">Process</text>
	<text transform="matrix(1 0 0 1 642.2109 256.2306)" class="st8 st9 st10">Full Security </text>
	<text transform="matrix(1 0 0 1 645.5576 278.0236)" class="st8 st9 st10">Assessment</text>
	<text transform="matrix(1 0 0 1 642.2109 39.4765)" class="st8 st9 st10">Full Security </text>
	<text transform="matrix(1 0 0 1 645.5576 61.2695)" class="st8 st9 st10">Assessment</text>
	<text transform="matrix(1 0 0 1 448.5664 256.2306)" class="st8 st9 st10">Readiness </text>
	<text transform="matrix(1 0 0 1 443.9722 278.0236)" class="st8 st9 st10">Assessment</text>
	<text transform="matrix(1 0 0 1 448.5664 39.4765)" class="st8 st9 st10">Readiness </text>
	<text transform="matrix(1 0 0 1 443.9722 61.2695)" class="st8 st9 st10">Assessment</text>
	<text transform="matrix(1 0 0 1 286.9448 39.4765)" class="st8 st9 st10">Partnership </text>
	<text transform="matrix(1 0 0 1 276.7021 61.2695)" class="st8 st9 st10">Establishment</text>
	<text transform="matrix(1 0 0 1 292.0269 256.2306)" class="st8 st9 st10">FedRAMP </text>
	<text transform="matrix(1 0 0 1 297.6763 278.0236)" class="st8 st9 st10">Connect</text>
	<g id="Component_62_65_1_" transform="translate(0 223)">
		<g id="Base_2_">
			<path class="st2" d="M27.5,19.2h161.3c10.2,0,18.5,8.3,18.5,18.5v4.4c0,10.2-8.3,18.5-18.5,18.5H27.5C17.3,60.7,9,52.4,9,42.1
				v-4.4C9,27.5,17.3,19.2,27.5,19.2z"/>
			<path class="st3" d="M27.5,19.8h161.3c9.9,0,18,8,18,18v4.4c0,9.9-8,18-18,18H27.5c-9.9,0-18-8-18-18v-4.4
				C9.5,27.8,17.6,19.8,27.5,19.8z"/>
		</g>
		<text transform="matrix(1 0 0 1 53.6743 45.3965)" class="st11 st12 st13">JAB PROCESS</text>
	</g>
	<g id="Component_62_66_1_" transform="translate(0 18.894)">
		<g id="Base-2_2_">
			<path class="st2" d="M27.5,0.9h161.3c10.2,0,18.5,8.3,18.5,18.5v4.4c0,10.2-8.3,18.5-18.5,18.5H27.5C17.3,42.4,9,34.1,9,23.8
				v-4.4C9,9.2,17.3,0.9,27.5,0.9z"/>
			<path class="st4" d="M27.5,1.5h161.3c9.9,0,18,8,18,18v4.4c0,9.9-8,18-18,18H27.5c-9.9,0-18-8-18-18v-4.4
				C9.5,9.5,17.6,1.5,27.5,1.5z"/>
		</g>
		<text transform="matrix(1 0 0 1 35.208 27.0982)" class="st14 st12 st13">AGENCY PROCESS</text>
	</g>
</g>
</svg>
