<?xml version="1.0" encoding="utf-8"?>
<!-- Generator: Adobe Illustrator 24.2.3, SVG Export Plug-In . SVG Version: 6.00 Build 0)  -->
<svg version="1.1" xmlns="http://www.w3.org/2000/svg" xmlns:xlink="http://www.w3.org/1999/xlink" x="0px" y="0px"
	 viewBox="0 0 144 144" style="enable-background:new 0 0 144 144;" xml:space="preserve">
<style type="text/css">
	.st0{fill:#FFFFFF;}
	.st1{fill:#981C20;}
	.st2{fill:#C81F25;}
	.st3{fill:#A33336;}
	.st4{fill:#F0F0F0;}
	.st5{fill:#757575;}
	.st6{fill:#D6D6D6;}
	.st7{fill:#E21E3E;}
	.st8{fill:#E74E44;}
	.st9{fill:#F2F2F2;}
	.st10{fill:#DCDCDC;}
	.st11{fill:#C8C8C8;}
	.st12{fill:#259CBF;}
	.st13{fill:#0A90B7;}
</style>
<g id="Layer_2">
</g>
<g id="Layer_1">
	<ellipse id="Ellipse_603_1_" class="st0" cx="71.8" cy="72.2" rx="71.8" ry="71.8"/>
	<g id="Group_5050" transform="translate(0.275)">
		<g id="Group_5049">
			<g id="Group_5035" transform="translate(9.432 33.399)">
				<g id="Group_5030">
					<g id="Group_5029">
						<g id="Group_5027" transform="translate(4.17)">
							<path id="Path_13332" class="st1" d="M38.7,6.9L2.9,30.2l1.6,0.7L40.4,20l4.7-8.2l-4.7-4.2L38.7,6.9z"/>
						</g>
						<g id="Group_5028">
							<path id="Path_13333" class="st2" d="M7,20.3l-5,6.9l5,2.9l35.8-10.9l4.7-8.2l-4.7-4.2L7,20.3z"/>
						</g>
						<path id="Path_13334" class="st0" d="M42.9,19.3l1.7,0.7l4.7-8.2l-1.7-0.7L42.9,19.3z"/>
						<path id="Path_13335" class="st0" d="M42.9,6.9l4.7,4.2l1.7,0.7l-4.7-4.2L42.9,6.9z"/>
					</g>
				</g>
				<g id="Group_5034" transform="translate(34.706)">
					<g id="Group_5033">
						<g id="Group_5031">
							<path id="Path_13336" class="st1" d="M15.5,6.9l35.8,23.3l-1.6,0.7L13.8,20l-4.7-8.2l4.7-4.2L15.5,6.9z"/>
						</g>
						<g id="Group_5032" transform="translate(1.394)">
							<path id="Path_13337" class="st3" d="M50,20.3l5,6.9l-5,2.9L14.1,19.3l-4.7-8.2l4.7-4.2L50,20.3z"/>
						</g>
						<path id="Path_13338" class="st0" d="M15.5,19.3L13.8,20l-4.7-8.2l1.7-0.7L15.5,19.3z"/>
						<path id="Path_13339" class="st0" d="M15.5,6.9l-4.7,4.2l-1.7,0.7l4.7-4.2L15.5,6.9z"/>
					</g>
				</g>
			</g>
			<g id="Group_5037" transform="translate(39.112 13.902)">
				<path id="Path_13344" class="st4" d="M16.9,124.9l-6.2-1.9L8.1,6.6l8.7-3.7L16.9,124.9z"/>
				<path id="Path_13345" class="st4" d="M16.9,124.9l-6.2-1.9L8.1,6.6l8.7-3.7L16.9,124.9z"/>
				<path id="Path_13346" class="st5" d="M12.2,37v31.4l2-0.5V18.5l-2,0.8V37z"/>
				<path id="Path_13347" class="st6" d="M16.9,124.9L23,123L25.6,6.6l-8.7-3.7L16.9,124.9z"/>
				<path id="Path_13348" class="st5" d="M25.3,24.3l0.1-8.7l-5.8,3L25.3,24.3z"/>
			</g>
			<g id="Group_5044">
				<g id="Group_5040" transform="translate(48.629)">
					<g id="Group_5038">
						<path id="Path_13349" class="st1" d="M55.3,0L10.1,32.4l2,0.8l45.3-16.7l5.9-10.4l-5.9-5.3L55.3,0z"/>
					</g>
					<g id="Group_5039">
						<path id="Path_13350" class="st2" d="M10.1,20v12.4l45.2-16.8l5.9-10.4L55.3,0L10.1,20z"/>
					</g>
					<path id="Path_13351" class="st7" d="M55.3,15.6l2.1,0.9l5.9-10.4l-2.1-0.9L55.3,15.6z"/>
					<path id="Path_13352" class="st8" d="M55.3,0l5.9,5.3l2.1,0.9l-5.9-5.3L55.3,0z"/>
				</g>
				<g id="Group_5043">
					<g id="Group_5041">
						<path id="Path_13353" class="st1" d="M8.1,0l45.2,32.4l-2,0.8L5.9,16.5L0.1,6.2l5.9-5.3L8.1,0z"/>
					</g>
					<g id="Group_5042" transform="translate(1.757)">
						<path id="Path_13354" class="st3" d="M51.5,20v12.4L6.3,15.6L0.4,5.3L6.3,0L51.5,20z"/>
					</g>
					<path id="Path_13355" class="st7" d="M8.1,15.6l-2.1,0.9L0.1,6.2l2.1-0.9L8.1,15.6z"/>
					<path id="Path_13356" class="st8" d="M8.1,0L2.2,5.3L0.1,6.2l5.9-5.3L8.1,0z"/>
				</g>
			</g>
			<g id="Group_5048" transform="translate(0 17.959)">
				<g id="Group_5047">
					<g id="Group_5045">
						<path id="Path_13357" class="st1" d="M8.1,3.7l45.2,28.6l-2,0.8L6,19.6l-5.9-10l5.9-5.3L8.1,3.7z"/>
					</g>
					<g id="Group_5046" transform="translate(1.757)">
						<path id="Path_13358" class="st3" d="M51.5,19.9v12.4L6.3,18.7l-5.9-10l5.9-4.9L51.5,19.9z"/>
					</g>
					<path id="Path_13359" class="st7" d="M8.1,18.7l-2.1,0.9l-5.9-10l2.1-0.9L8.1,18.7z"/>
					<path id="Path_13360" class="st8" d="M8.1,3.7L2.2,8.6L0.1,9.5l5.9-5.3L8.1,3.7z"/>
				</g>
			</g>
		</g>
	</g>
	<g>
		<path class="st6" d="M126.8,118.4c-3.9,4.7-8.5,8.9-13.5,12.4l19.1,3.6L126.8,118.4z"/>
		<path class="st9" d="M126.8,118.4l-1-2.8c2.4-5.1,3.7-10.6,3.7-16.2c0-20.9-16.9-37.8-37.8-37.8h0c-7.5,0-14.8,2.2-21.1,6.4
			c-2.5,1.7-4.8,3.7-6.8,5.8l-1.1,49.8c12.2,14.6,33.8,18,50,7.1l0.6,0.1C118.3,127.2,122.8,123.1,126.8,118.4z"/>
		<path class="st10" d="M56.3,112.5l0-26.4C53.1,94.5,53,103.9,56.3,112.5z"/>
		<path class="st11" d="M56.3,112.5c1,2.7,2.3,5.3,4,7.8c0.8,1.1,1.6,2.2,2.4,3.2l1.1-49.8c-3.3,3.6-5.9,7.8-7.6,12.3L56.3,112.5z"
			/>
		<polygon class="st9" points="56.3,112.5 56.3,112.5 56.3,86.1 56.3,86.1 		"/>
	</g>
	<path id="Path_13362" class="st12" d="M92.9,59c20.9,0,37.8,16.9,37.8,37.8c0,5.6-1.3,11.2-3.7,16.2l6.6,18.8l-19.6-3.7
		c-17.3,11.6-40.8,7-52.4-10.3s-7-40.8,10.3-52.4C78,61.2,85.4,59,92.9,59z"/>
	<path id="Path_13364" class="st13" d="M92.4,59c-20.9,0.1-37.7,17.1-37.6,38c0.1,20.7,16.9,37.5,37.6,37.6c0.1,0,0.2,0,0.4,0V59
		C92.7,59,92.6,59,92.4,59z"/>
	<path id="Group_5051" transform="translate(62.96 59.04)" class="st0" d="M23.1,47.3v-3.1c-0.1-2.1,0.4-4.2,1.4-6
		c1.2-1.9,2.9-3.6,4.8-4.8c1.5-0.9,2.8-2,4-3.3c0.8-1,1.2-2.2,1.2-3.4c0-1-0.5-1.9-1.3-2.4c-1-0.6-2.2-0.9-3.4-0.9
		c-3.4,0-7.4,1.3-12,3.9L13,17.4c5.3-3.3,11.5-5.1,17.7-5.2c5.1,0,9,1.2,11.9,3.6c2.9,2.4,4.5,6,4.3,9.7c0.1,2.7-0.6,5.3-1.9,7.6
		c-1.6,2.4-3.7,4.5-6.2,6.1c-1.6,1-3.1,2.2-4.5,3.6c-0.6,0.8-0.9,1.7-0.9,2.7v1.8H23.1z M21.6,60c-0.1-1.9,0.5-3.8,1.8-5.2
		c1.5-1.3,3.4-2,5.4-1.8c1.9-0.1,3.8,0.5,5.2,1.8c1.3,1.4,1.9,3.2,1.8,5.1c0.1,1.9-0.6,3.8-1.9,5.1c-1.4,1.3-3.3,1.9-5.2,1.8
		c-1.9,0.1-3.8-0.5-5.3-1.8C22.2,63.7,21.5,61.9,21.6,60L21.6,60z"/>
	<path class="st9" d="M76,76.4c5.1-3.2,10.9-4.9,16.8-5.1v11.1c0,0,0,0-0.1,0c-3.4,0-7.4,1.3-12,3.9L76,76.4z M87.4,97.2
		c-1,1.9-1.4,3.9-1.4,6v3.1h6.8V92c-0.2,0.1-0.4,0.3-0.6,0.4C90.3,93.6,88.6,95.3,87.4,97.2z M91.8,112.1c-2-0.1-3.9,0.5-5.4,1.8
		c-1.3,1.4-1.9,3.3-1.8,5.2v0c-0.1,1.9,0.6,3.8,1.9,5.1c1.5,1.3,3.4,1.9,5.3,1.8c0.4,0,0.7,0,1.1,0v-13.8
		C92.5,112,92.1,112,91.8,112.1z"/>
</g>
</svg>
