<svg xmlns="http://www.w3.org/2000/svg" width="129.586" height="129.934" viewBox="0 0 129.586 129.934">
  <g id="Group_5053" data-name="Group 5053" transform="translate(-980.324 -6.859)">
    <circle id="Ellipse_603" data-name="Ellipse 603" cx="64.793" cy="64.793" r="64.793" transform="translate(980.324 7.207)" fill="#fff"/>
    <g id="Group_5050" data-name="Group 5050">
      <g id="Group_5049" data-name="Group 5049">
        <g id="Group_5035" data-name="Group 5035">
          <g id="Group_5030" data-name="Group 5030">
            <g id="Group_5029" data-name="Group 5029">
              <g id="Group_5027" data-name="Group 5027">
                <path id="Path_13332" data-name="Path 13332" d="M1028.061,43.165,995.527,64.284l1.418.605,32.642-9.825,4.243-7.461-4.243-3.785Z" fill="#981c20"/>
              </g>
              <g id="Group_5028" data-name="Group 5028">
                <path id="Path_13333" data-name="Path 13333" d="M995.527,55.331l-4.569,6.291,4.569,2.661,32.534-9.872,4.243-7.461-4.243-3.785Z" fill="#c81f25"/>
              </g>
              <path id="Path_13334" data-name="Path 13334" d="M1028.061,54.412l1.527.652,4.243-7.461-1.527-.652Z" fill="#fff"/>
              <path id="Path_13335" data-name="Path 13335" d="M1028.061,43.165l4.243,3.785,1.527.652-4.243-3.785Z" fill="#fff"/>
            </g>
          </g>
          <g id="Group_5034" data-name="Group 5034">
            <g id="Group_5033" data-name="Group 5033">
              <g id="Group_5031" data-name="Group 5031">
                <path id="Path_13336" data-name="Path 13336" d="M1034.753,43.165l32.534,21.118-1.418.605-32.642-9.825-4.243-7.461,4.243-3.785Z" fill="#981c20"/>
              </g>
              <g id="Group_5032" data-name="Group 5032">
                <path id="Path_13337" data-name="Path 13337" d="M1067.286,55.331l4.569,6.291-4.569,2.661-32.534-9.872-4.243-7.461,4.243-3.785Z" fill="#a33336"/>
              </g>
              <path id="Path_13338" data-name="Path 13338" d="M1034.753,54.412l-1.527.652-4.243-7.461,1.527-.652Z" fill="#fff"/>
              <path id="Path_13339" data-name="Path 13339" d="M1034.753,43.165l-4.243,3.785-1.527.652,4.243-3.785Z" fill="#fff"/>
            </g>
          </g>
        </g>
        <g id="Group_5036" data-name="Group 5036">
          <path id="Path_13340" data-name="Path 13340" d="M1031.407,132.079l-5.589-1.739-2.341-104.887,7.93-3.362Z" fill="#f0f0f0"/>
          <path id="Path_13341" data-name="Path 13341" d="M1027.122,53.123v28.54l1.788-.43V36.293l-1.788.763Z" fill="#a3d8e8"/>
          <path id="Path_13342" data-name="Path 13342" d="M1031.407,132.079,1037,130.34l2.341-104.887-7.93-3.362Z" fill="#f0f0f0"/>
          <path id="Path_13343" data-name="Path 13343" d="M1039.09,41.505l.09-7.934-5.276,2.722Z" fill="#d1d1d1"/>
        </g>
        <g id="Group_5037" data-name="Group 5037">
          <path id="Path_13344" data-name="Path 13344" d="M1031.407,132.079l-5.589-1.739-2.341-104.887,7.93-3.362Z" fill="#f0f0f0"/>
          <path id="Path_13345" data-name="Path 13345" d="M1031.407,132.079l-5.589-1.739-2.341-104.887,7.93-3.362Z" fill="#f0f0f0" style="mix-blend-mode: multiply;isolation: isolate"/>
          <path id="Path_13346" data-name="Path 13346" d="M1027.122,53.123v28.54l1.788-.43V36.293l-1.788.763Z" fill="#f0f0f0" style="mix-blend-mode: multiply;isolation: isolate"/>
          <path id="Path_13347" data-name="Path 13347" d="M1031.407,132.079,1037,130.34l2.341-104.887-7.93-3.362Z" fill="#f0f0f0"/>
          <path id="Path_13348" data-name="Path 13348" d="M1039.09,41.505l.09-7.934-5.276,2.722Z" fill="#f0f0f0" style="mix-blend-mode: multiply;isolation: isolate"/>
        </g>
        <g id="Group_5044" data-name="Group 5044">
          <g id="Group_5040" data-name="Group 5040">
            <g id="Group_5038" data-name="Group 5038">
              <path id="Path_13349" data-name="Path 13349" d="M1074.915,6.859,1033.9,36.293l1.788.763,41.148-15.2,5.349-9.406-5.349-4.772Z" fill="#981c20"/>
            </g>
            <g id="Group_5039" data-name="Group 5039">
              <path id="Path_13350" data-name="Path 13350" d="M1033.9,25.008V36.293l41.011-15.256,5.349-9.406-5.349-4.772Z" fill="#c81f25"/>
            </g>
            <path id="Path_13351" data-name="Path 13351" d="M1074.915,21.037l1.925.821,5.349-9.406-1.925-.821Z" fill="#e21e3e"/>
            <path id="Path_13352" data-name="Path 13352" d="M1074.915,6.859l5.349,4.772,1.925.821-5.349-4.772Z" fill="#e74e44"/>
          </g>
          <g id="Group_5043" data-name="Group 5043">
            <g id="Group_5041" data-name="Group 5041">
              <path id="Path_13353" data-name="Path 13353" d="M987.9,6.859l41.011,29.434-1.788.763-41.148-15.2-5.349-9.406,5.349-4.772Z" fill="#981c20"/>
            </g>
            <g id="Group_5042" data-name="Group 5042">
              <path id="Path_13354" data-name="Path 13354" d="M1028.91,25.008V36.293L987.9,21.037l-5.349-9.406L987.9,6.859Z" fill="#a33336"/>
            </g>
            <path id="Path_13355" data-name="Path 13355" d="M987.9,21.037l-1.925.821-5.349-9.406,1.925-.821Z" fill="#e21e3e"/>
            <path id="Path_13356" data-name="Path 13356" d="M987.9,6.859l-5.349,4.772-1.925.821,5.349-4.772Z" fill="#e74e44"/>
          </g>
        </g>
        <g id="Group_5048" data-name="Group 5048">
          <g id="Group_5047" data-name="Group 5047">
            <g id="Group_5045" data-name="Group 5045">
              <path id="Path_13357" data-name="Path 13357" d="M987.9,26.374,1028.91,52.36l-1.788.763L985.974,40.764l-5.349-9.1,5.349-4.772Z" fill="#981c20"/>
            </g>
            <g id="Group_5046" data-name="Group 5046">
              <path id="Path_13358" data-name="Path 13358" d="M1028.91,41.075V52.36L987.9,39.943l-5.349-9.1,5.349-4.468Z" fill="#a33336"/>
            </g>
            <path id="Path_13359" data-name="Path 13359" d="M987.9,39.943l-1.925.821-5.349-9.1,1.925-.821Z" fill="#e21e3e"/>
            <path id="Path_13360" data-name="Path 13360" d="M987.9,26.374l-5.349,4.468-1.925.821,5.349-4.772Z" fill="#e74e44"/>
          </g>
        </g>
      </g>
    </g>
    <path id="Path_13361" data-name="Path 13361" d="M1062.735,61.908a34.323,34.323,0,0,1,30.976,49.077l5.977,17.109-17.836-3.384a34.31,34.31,0,1,1-19.117-62.8Z" fill="#f2f2f2" style="mix-blend-mode: multiply;isolation: isolate"/>
    <path id="Path_13362" data-name="Path 13362" d="M1063.837,59.611a34.321,34.321,0,0,1,30.975,49.077l5.977,17.109-17.835-3.384a34.31,34.31,0,1,1-19.117-62.8Z" fill="#0a90b7"/>
    <g id="Group_5051" data-name="Group 5051">
      <path id="Path_13363" data-name="Path 13363" d="M1057.871,102.581V99.748a11.062,11.062,0,0,1,1.238-5.452,13.351,13.351,0,0,1,4.4-4.331,16.718,16.718,0,0,0,3.607-3.031,4.768,4.768,0,0,0,1.1-3.1,2.526,2.526,0,0,0-1.176-2.191,5.312,5.312,0,0,0-3.064-.807q-4.675,0-10.927,3.525l-4.3-8.96a30.584,30.584,0,0,1,16.1-4.678q6.9,0,10.835,3.229a10.777,10.777,0,0,1,3.931,8.795,13.165,13.165,0,0,1-1.749,6.9,18.334,18.334,0,0,1-5.587,5.517,21.861,21.861,0,0,0-4.071,3.278,3.838,3.838,0,0,0-.82,2.454v1.68Zm-1.331,11.529a6.3,6.3,0,0,1,1.656-4.677,6.63,6.63,0,0,1,4.875-1.647,6.421,6.421,0,0,1,4.752,1.663,6.322,6.322,0,0,1,1.656,4.661,6.132,6.132,0,0,1-1.718,4.645,6.5,6.5,0,0,1-4.69,1.647,6.722,6.722,0,0,1-4.8-1.631A6.085,6.085,0,0,1,1056.54,114.11Z" fill="#fff"/>
    </g>
    <g id="Group_5052" data-name="Group 5052" opacity="0.75">
      <path id="Path_13364" data-name="Path 13364" d="M1063.837,59.611a34.309,34.309,0,1,0,0,68.618c.112,0,.221-.011.333-.012v-68.6C1064.058,59.618,1063.949,59.611,1063.837,59.611Z" fill="#f0f0f0" style="mix-blend-mode: multiply;isolation: isolate"/>
    </g>
  </g>
</svg>
