<svg xmlns="http://www.w3.org/2000/svg" width="1159.551" height="281.863" viewBox="0 0 1159.551 281.863">
  <g id="Group_4485" data-name="Group 4485" transform="translate(-141 -1268)">
    <rect id="Rectangle_2940" data-name="Rectangle 2940" width="124" height="87.151" transform="translate(891 1268.367)" fill="#fff"/>
    <path id="Path_11090" data-name="Path 11090" d="M952.375,1368.636,973.75,1346.2H931Z" transform="translate(1 0.59)" fill="#fff"/>
    <rect id="Rectangle_2941" data-name="Rectangle 2941" width="124" height="86.198" transform="translate(891 1463.665)" fill="#fff"/>
    <path id="Path_11091" data-name="Path 11091" d="M952.375,1449.367,973.75,1471.8H931Z" transform="translate(1 0.59)" fill="#fff"/>
    <rect id="Rectangle_2942" data-name="Rectangle 2942" width="124" height="81.641" transform="translate(704 1268.367)" fill="#fff"/>
    <path id="Path_11092" data-name="Path 11092" d="M765.375,1368.636,786.75,1346.2H744Z" transform="translate(1 0.59)" fill="#fff"/>
    <rect id="Rectangle_2943" data-name="Rectangle 2943" width="124" height="80.688" transform="translate(704 1469.176)" fill="#fff"/>
    <path id="Path_11093" data-name="Path 11093" d="M765.375,1449.367,786.75,1471.8H744Z" transform="translate(1 0.59)" fill="#fff"/>
    <rect id="Rectangle_2944" data-name="Rectangle 2944" width="124" height="81.641" transform="translate(374 1268)" fill="#fff"/>
    <path id="Path_11094" data-name="Path 11094" d="M435.375,1368.269l21.375-22.437H414Z" transform="translate(1 0.59)" fill="#fff"/>
    <rect id="Rectangle_2945" data-name="Rectangle 2945" width="124" height="80.688" transform="translate(374 1468.809)" fill="#fff"/>
    <path id="Path_11095" data-name="Path 11095" d="M435.375,1449l21.375,22.437H414Z" transform="translate(1 0.59)" fill="#fff"/>
    <rect id="Rectangle_2946" data-name="Rectangle 2946" width="124" height="81.641" transform="translate(518 1268.367)" fill="#fff"/>
    <path id="Path_11096" data-name="Path 11096" d="M579.375,1368.636,600.75,1346.2H558Z" transform="translate(1 0.59)" fill="#fff"/>
    <rect id="Rectangle_2947" data-name="Rectangle 2947" width="124" height="80.688" transform="translate(518 1469.176)" fill="#fff"/>
    <path id="Path_11097" data-name="Path 11097" d="M579.375,1449.367,600.75,1471.8H558Z" transform="translate(1 0.59)" fill="#fff"/>
    <path id="Path_11098" data-name="Path 11098" d="M1023.891,1438.782H868l12.1-29.854L868,1379h155.891l13.1,29.927Z" transform="translate(1 0.59)" fill="#1294c2"/>
    <path id="Path_11099" data-name="Path 11099" d="M838.891,1438.782H683l12.1-29.854L683,1379H838.891l13.1,29.927Z" transform="translate(1 0.59)" fill="#1294c2"/>
    <path id="Path_11100" data-name="Path 11100" d="M322.341,1438.782H140V1379H322.341l13.1,29.927Z" transform="translate(1 0.59)" fill="#1294c2"/>
    <path id="Path_11101" data-name="Path 11101" d="M1283.511,1438.782H1053l13.383-29.854L1053,1379h230.511L1298,1408.927Z" transform="translate(1 0.59)" fill="#fff"/>
    <path id="Path_11102" data-name="Path 11102" d="M902,1405.208l1.98,5.508H900Zm3.438,9.792h2.79l-4.626-12.006h-3.2L895.75,1415h2.808l.756-2.07h5.364Z" transform="translate(1 0.59)" fill="#fff"/>
    <path id="Path_11103" data-name="Path 11103" d="M915.082,1415h2.286v-8.694h-2.286v5.886a2.559,2.559,0,0,1-1.98.99,1.4,1.4,0,0,1-1.6-1.6v-5.274h-2.286v6.174a2.49,2.49,0,0,0,2.808,2.736,4.069,4.069,0,0,0,3.06-1.314Z" transform="translate(1 0.59)" fill="#fff"/>
    <path id="Path_11104" data-name="Path 11104" d="M922.732,1415.216a2.822,2.822,0,0,0,1.908-.558l-.486-1.728a1.249,1.249,0,0,1-.792.252c-.5,0-.792-.414-.792-.954V1408.3h1.764v-2H922.57v-2.376h-2.3v2.376h-1.44v2h1.44v4.536A2.173,2.173,0,0,0,922.732,1415.216Z" transform="translate(1 0.59)" fill="#fff"/>
    <path id="Path_11105" data-name="Path 11105" d="M931.966,1415h2.286v-6.174a2.5,2.5,0,0,0-2.826-2.736,4.023,4.023,0,0,0-3.06,1.35v-4.446H926.08V1415h2.286v-5.85a2.533,2.533,0,0,1,1.98-1.026c.99,0,1.62.378,1.62,1.584Z" transform="translate(1 0.59)" fill="#fff"/>
    <path id="Path_11106" data-name="Path 11106" d="M940.732,1413.182a2.549,2.549,0,1,1,2.232-2.538A2.287,2.287,0,0,1,940.732,1413.182Zm0,2.034a4.563,4.563,0,1,0-4.59-4.572A4.412,4.412,0,0,0,940.732,1415.216Z" transform="translate(1 0.59)" fill="#fff"/>
    <path id="Path_11107" data-name="Path 11107" d="M947.212,1415H949.5v-5.742a2.808,2.808,0,0,1,2.772-.918v-2.232a3.719,3.719,0,0,0-2.772,1.386v-1.188h-2.286Z" transform="translate(1 0.59)" fill="#fff"/>
    <path id="Path_11108" data-name="Path 11108" d="M953.872,1415h2.286v-8.694h-2.286Zm1.134-9.972a1.368,1.368,0,1,0-1.368-1.368A1.367,1.367,0,0,0,955.006,1405.028Z" transform="translate(1 0.59)" fill="#fff"/>
    <path id="Path_11109" data-name="Path 11109" d="M958.228,1415h7.092v-2h-4.05l3.978-5.04v-1.656h-7.02v2h3.924l-3.924,4.986Z" transform="translate(1 0.59)" fill="#fff"/>
    <path id="Path_11110" data-name="Path 11110" d="M972.628,1412.912a2.286,2.286,0,0,1-1.836.756c-.9,0-1.638-.468-1.638-1.278,0-.846.738-1.314,1.638-1.314a2.286,2.286,0,0,1,1.836.756Zm0,2.088h2.286v-5.616c0-2.5-1.818-3.294-3.8-3.294a5.7,5.7,0,0,0-3.8,1.368l.864,1.53a3.658,3.658,0,0,1,2.538-1.026c1.152,0,1.908.576,1.908,1.458v1.206a3.514,3.514,0,0,0-2.754-1.062,2.753,2.753,0,0,0-3.024,2.772,2.9,2.9,0,0,0,3.024,2.88,3.6,3.6,0,0,0,2.754-1.116Z" transform="translate(1 0.59)" fill="#fff"/>
    <path id="Path_11111" data-name="Path 11111" d="M980.278,1415.216a2.822,2.822,0,0,0,1.908-.558l-.486-1.728a1.249,1.249,0,0,1-.792.252c-.5,0-.792-.414-.792-.954V1408.3h1.764v-2h-1.764v-2.376h-2.3v2.376h-1.44v2h1.44v4.536A2.173,2.173,0,0,0,980.278,1415.216Z" transform="translate(1 0.59)" fill="#fff"/>
    <path id="Path_11112" data-name="Path 11112" d="M983.626,1415h2.286v-8.694h-2.286Zm1.134-9.972a1.368,1.368,0,1,0-1.368-1.368A1.367,1.367,0,0,0,984.76,1405.028Z" transform="translate(1 0.59)" fill="#fff"/>
    <path id="Path_11113" data-name="Path 11113" d="M992.392,1413.182a2.549,2.549,0,1,1,2.232-2.538A2.287,2.287,0,0,1,992.392,1413.182Zm0,2.034a4.563,4.563,0,1,0-4.59-4.572A4.412,4.412,0,0,0,992.392,1415.216Z" transform="translate(1 0.59)" fill="#fff"/>
    <path id="Path_11114" data-name="Path 11114" d="M1004.74,1415h2.286v-6.138a2.529,2.529,0,0,0-2.826-2.772,3.981,3.981,0,0,0-3.042,1.35v-1.134h-2.286V1415h2.286v-5.85a2.476,2.476,0,0,1,1.98-1.026,1.411,1.411,0,0,1,1.6,1.62Z" transform="translate(1 0.59)" fill="#fff"/>
    <path id="Path_11115" data-name="Path 11115" d="M743.49,1406.846a1.657,1.657,0,0,1-1.8,1.656h-2.682v-3.312h2.682A1.657,1.657,0,0,1,743.49,1406.846Zm-.252,8.154h2.934l-2.7-4.572a3.445,3.445,0,0,0,2.628-3.564,3.739,3.739,0,0,0-4.032-3.87h-5.616V1415h2.556v-4.3h1.872Z" transform="translate(1 0.59)" fill="#fff"/>
    <path id="Path_11116" data-name="Path 11116" d="M751.554,1407.908a2.014,2.014,0,0,1,2.142,1.926h-4.284A2.089,2.089,0,0,1,751.554,1407.908Zm-4.5,2.736a4.4,4.4,0,0,0,4.644,4.572,5.419,5.419,0,0,0,3.582-1.206l-1.008-1.476a3.556,3.556,0,0,1-2.322.864,2.343,2.343,0,0,1-2.5-2.016h6.462v-.5c0-2.844-1.764-4.788-4.356-4.788A4.425,4.425,0,0,0,747.054,1410.644Z" transform="translate(1 0.59)" fill="#fff"/>
    <path id="Path_11117" data-name="Path 11117" d="M760,1415h2.466l3.492-8.694h-2.466l-2.268,6.048-2.268-6.048H756.5Z" transform="translate(1 0.59)" fill="#fff"/>
    <path id="Path_11118" data-name="Path 11118" d="M767.16,1415h2.286v-8.694H767.16Zm1.134-9.972a1.368,1.368,0,1,0-1.368-1.368A1.367,1.367,0,0,0,768.294,1405.028Z" transform="translate(1 0.59)" fill="#fff"/>
    <path id="Path_11119" data-name="Path 11119" d="M775.836,1407.908a2.014,2.014,0,0,1,2.142,1.926h-4.284A2.089,2.089,0,0,1,775.836,1407.908Zm-4.5,2.736a4.4,4.4,0,0,0,4.644,4.572,5.419,5.419,0,0,0,3.582-1.206l-1.008-1.476a3.556,3.556,0,0,1-2.322.864,2.343,2.343,0,0,1-2.5-2.016h6.462v-.5c0-2.844-1.764-4.788-4.356-4.788A4.425,4.425,0,0,0,771.336,1410.644Z" transform="translate(1 0.59)" fill="#fff"/>
    <path id="Path_11120" data-name="Path 11120" d="M789.66,1415h2.43l2.646-8.694H792.36l-1.62,5.85-1.908-5.85H786.8l-1.908,5.85-1.62-5.85h-2.376L783.54,1415h2.448l1.836-5.922Z" transform="translate(1 0.59)" fill="#fff"/>
    <path id="Path_11121" data-name="Path 11121" d="M400.488,1503h1.328v-4.864h5.552v-1.184h-5.552v-3.44h5.664v-1.184h-6.992Z" transform="translate(1 0.59)" fill="#333"/>
    <path id="Path_11122" data-name="Path 11122" d="M412.9,1496.072a2.5,2.5,0,0,1,2.544,2.576h-5.072A2.578,2.578,0,0,1,412.9,1496.072Zm-3.792,3.056a3.832,3.832,0,0,0,3.936,4.064,4.2,4.2,0,0,0,3.072-1.184l-.576-.784a3.378,3.378,0,0,1-2.384.976,2.723,2.723,0,0,1-2.784-2.672h6.256v-.3c0-2.32-1.376-4.144-3.712-4.144A3.864,3.864,0,0,0,409.112,1499.128Z" transform="translate(1 0.59)" fill="#333"/>
    <path id="Path_11123" data-name="Path 11123" d="M424.488,1500.9a2.874,2.874,0,0,1-2.32,1.216c-1.552,0-2.48-1.264-2.48-2.976s.928-2.992,2.48-2.992a2.9,2.9,0,0,1,2.32,1.248Zm0,2.1h1.2v-10.672h-1.2v4.112a3.231,3.231,0,0,0-2.608-1.36c-2.032,0-3.44,1.6-3.44,4.064,0,2.512,1.424,4.048,3.44,4.048a3.254,3.254,0,0,0,2.608-1.344Z" transform="translate(1 0.59)" fill="#333"/>
    <path id="Path_11124" data-name="Path 11124" d="M434.712,1495.544a2,2,0,0,1-2.128,2.048h-2.8v-4.08h2.8A1.984,1.984,0,0,1,434.712,1495.544Zm-.08,7.456H436.2l-2.88-4.352a2.949,2.949,0,0,0,2.768-3.1,3.108,3.108,0,0,0-3.344-3.216h-4.288V1503h1.328v-4.24h2.128Z" transform="translate(1 0.59)" fill="#333"/>
    <path id="Path_11125" data-name="Path 11125" d="M442.52,1493.512l2.3,5.936H440.2Zm3.648,9.488h1.472l-4.3-10.672h-1.648L437.4,1503h1.472l.944-2.368h5.408Z" transform="translate(1 0.59)" fill="#333"/>
    <path id="Path_11126" data-name="Path 11126" d="M458.472,1503H459.8v-10.672h-1.9l-3.328,8.128-3.312-8.128h-1.9V1503h1.328v-8.88L454.3,1503h.544l3.632-8.88Z" transform="translate(1 0.59)" fill="#333"/>
    <path id="Path_11127" data-name="Path 11127" d="M468.872,1495.544a1.984,1.984,0,0,1-2.128,2.032h-2.8v-4.064h2.8A1.984,1.984,0,0,1,468.872,1495.544ZM462.616,1503h1.328v-4.24h2.96a3.218,3.218,0,1,0,0-6.432h-4.288Z" transform="translate(1 0.59)" fill="#333"/>
    <path id="Path_11128" data-name="Path 11128" d="M408.456,1523.192a4.853,4.853,0,0,0,4.112-2.112l-1.136-.624a3.582,3.582,0,0,1-2.976,1.552,4.345,4.345,0,0,1,0-8.672,3.622,3.622,0,0,1,2.976,1.552l1.12-.624a4.8,4.8,0,0,0-4.1-2.112,5.521,5.521,0,0,0,0,11.04Z" transform="translate(1 0.59)" fill="#333"/>
    <path id="Path_11129" data-name="Path 11129" d="M417.912,1522.12a3.016,3.016,0,0,1,0-5.968c1.648,0,2.56,1.408,2.56,2.976C420.472,1520.712,419.56,1522.12,417.912,1522.12Zm0,1.072a4.063,4.063,0,1,0-3.824-4.064A3.8,3.8,0,0,0,417.912,1523.192Z" transform="translate(1 0.59)" fill="#333"/>
    <path id="Path_11130" data-name="Path 11130" d="M429.224,1523h1.2v-5.424a2.2,2.2,0,0,0-2.464-2.5,3.833,3.833,0,0,0-2.752,1.312v-1.12h-1.2V1523h1.2v-5.648a2.984,2.984,0,0,1,2.288-1.2c1.04,0,1.728.432,1.728,1.792Z" transform="translate(1 0.59)" fill="#333"/>
    <path id="Path_11131" data-name="Path 11131" d="M438.36,1523h1.2v-5.424a2.2,2.2,0,0,0-2.464-2.5,3.833,3.833,0,0,0-2.752,1.312v-1.12h-1.2V1523h1.2v-5.648a2.984,2.984,0,0,1,2.288-1.2c1.04,0,1.728.432,1.728,1.792Z" transform="translate(1 0.59)" fill="#333"/>
    <path id="Path_11132" data-name="Path 11132" d="M445.624,1516.072a2.5,2.5,0,0,1,2.544,2.576H443.1A2.578,2.578,0,0,1,445.624,1516.072Zm-3.792,3.056a3.832,3.832,0,0,0,3.936,4.064,4.2,4.2,0,0,0,3.072-1.184l-.576-.784a3.378,3.378,0,0,1-2.384.976,2.723,2.723,0,0,1-2.784-2.672h6.256v-.3c0-2.32-1.376-4.144-3.712-4.144A3.864,3.864,0,0,0,441.832,1519.128Z" transform="translate(1 0.59)" fill="#333"/>
    <path id="Path_11133" data-name="Path 11133" d="M451.16,1519.128a3.822,3.822,0,0,0,3.856,4.064,3.308,3.308,0,0,0,2.832-1.344l-.8-.736a2.33,2.33,0,0,1-1.968,1.008,3,3,0,0,1,0-5.968,2.292,2.292,0,0,1,1.968,1.008l.8-.736a3.308,3.308,0,0,0-2.832-1.344A3.818,3.818,0,0,0,451.16,1519.128Z" transform="translate(1 0.59)" fill="#333"/>
    <path id="Path_11134" data-name="Path 11134" d="M461.8,1523.192a1.962,1.962,0,0,0,1.44-.5l-.352-.9a1.158,1.158,0,0,1-.816.32c-.528,0-.784-.416-.784-.992v-4.8h1.568v-1.056h-1.568v-2.112h-1.2v2.112h-1.28v1.056h1.28v5.056A1.581,1.581,0,0,0,461.8,1523.192Z" transform="translate(1 0.59)" fill="#333"/>
    <path id="Path_11135" data-name="Path 11135" d="M549.128,1495.544a2,2,0,0,1-2.128,2.048h-2.8v-4.08H547A1.984,1.984,0,0,1,549.128,1495.544Zm-.08,7.456h1.568l-2.88-4.352a2.949,2.949,0,0,0,2.768-3.1,3.108,3.108,0,0,0-3.344-3.216h-4.288V1503H544.2v-4.24h2.128Z" transform="translate(1 0.59)" fill="#333"/>
    <path id="Path_11136" data-name="Path 11136" d="M555.736,1496.072a2.5,2.5,0,0,1,2.544,2.576h-5.072A2.578,2.578,0,0,1,555.736,1496.072Zm-3.792,3.056a3.832,3.832,0,0,0,3.936,4.064,4.2,4.2,0,0,0,3.072-1.184l-.576-.784a3.378,3.378,0,0,1-2.384.976,2.723,2.723,0,0,1-2.784-2.672h6.256v-.3c0-2.32-1.376-4.144-3.712-4.144A3.864,3.864,0,0,0,551.944,1499.128Z" transform="translate(1 0.59)" fill="#333"/>
    <path id="Path_11137" data-name="Path 11137" d="M566.552,1501.368a2.588,2.588,0,0,1-2.128.96,1.7,1.7,0,1,1,0-3.376,2.588,2.588,0,0,1,2.128.96Zm0,1.632h1.2v-5.312c0-1.872-1.36-2.608-2.992-2.608a4.045,4.045,0,0,0-3.088,1.28l.56.832a3.07,3.07,0,0,1,2.368-1.072c1.12,0,1.952.592,1.952,1.632v1.392a3.231,3.231,0,0,0-2.56-1.056,2.531,2.531,0,0,0-2.7,2.544,2.573,2.573,0,0,0,2.7,2.56,3.343,3.343,0,0,0,2.56-1.072Z" transform="translate(1 0.59)" fill="#333"/>
    <path id="Path_11138" data-name="Path 11138" d="M576.072,1500.9a2.874,2.874,0,0,1-2.32,1.216c-1.552,0-2.48-1.264-2.48-2.976s.928-2.992,2.48-2.992a2.9,2.9,0,0,1,2.32,1.248Zm0,2.1h1.2v-10.672h-1.2v4.112a3.231,3.231,0,0,0-2.608-1.36c-2.032,0-3.44,1.6-3.44,4.064,0,2.512,1.424,4.048,3.44,4.048a3.254,3.254,0,0,0,2.608-1.344Z" transform="translate(1 0.59)" fill="#333"/>
    <path id="Path_11139" data-name="Path 11139" d="M579.992,1503h1.2v-7.728h-1.2Zm.592-9.024a.819.819,0,0,0,.816-.816.808.808,0,0,0-1.616,0A.816.816,0,0,0,580.584,1493.976Z" transform="translate(1 0.59)" fill="#333"/>
    <path id="Path_11140" data-name="Path 11140" d="M589.128,1503h1.2v-5.424a2.2,2.2,0,0,0-2.464-2.5,3.833,3.833,0,0,0-2.752,1.312v-1.12h-1.2V1503h1.2v-5.648a2.984,2.984,0,0,1,2.288-1.2c1.04,0,1.728.432,1.728,1.792Z" transform="translate(1 0.59)" fill="#333"/>
    <path id="Path_11141" data-name="Path 11141" d="M596.392,1496.072a2.5,2.5,0,0,1,2.544,2.576h-5.072A2.578,2.578,0,0,1,596.392,1496.072Zm-3.792,3.056a3.832,3.832,0,0,0,3.936,4.064,4.2,4.2,0,0,0,3.072-1.184l-.576-.784a3.378,3.378,0,0,1-2.384.976,2.723,2.723,0,0,1-2.784-2.672h6.256v-.3c0-2.32-1.376-4.144-3.712-4.144A3.864,3.864,0,0,0,592.6,1499.128Z" transform="translate(1 0.59)" fill="#333"/>
    <path id="Path_11142" data-name="Path 11142" d="M601.7,1501.976a4.111,4.111,0,0,0,3.12,1.216c2,0,3.04-1.04,3.04-2.336,0-1.712-1.552-2.1-2.9-2.4-1.008-.24-1.888-.48-1.888-1.232,0-.688.656-1.168,1.712-1.168a3.011,3.011,0,0,1,2.3.976l.56-.832a3.911,3.911,0,0,0-2.864-1.12c-1.84,0-2.88,1.024-2.88,2.224,0,1.6,1.488,1.952,2.8,2.256,1.04.256,1.984.528,1.984,1.376,0,.752-.64,1.28-1.824,1.28a3.5,3.5,0,0,1-2.544-1.1Z" transform="translate(1 0.59)" fill="#333"/>
    <path id="Path_11143" data-name="Path 11143" d="M609.464,1501.976a4.111,4.111,0,0,0,3.12,1.216c2,0,3.04-1.04,3.04-2.336,0-1.712-1.552-2.1-2.9-2.4-1.008-.24-1.888-.48-1.888-1.232,0-.688.656-1.168,1.712-1.168a3.011,3.011,0,0,1,2.3.976l.56-.832a3.911,3.911,0,0,0-2.864-1.12c-1.84,0-2.88,1.024-2.88,2.224,0,1.6,1.488,1.952,2.8,2.256,1.04.256,1.984.528,1.984,1.376,0,.752-.64,1.28-1.824,1.28a3.5,3.5,0,0,1-2.544-1.1Z" transform="translate(1 0.59)" fill="#333"/>
    <path id="Path_11144" data-name="Path 11144" d="M540.448,1513.512l2.3,5.936h-4.624ZM544.1,1523h1.472l-4.3-10.672h-1.648L535.328,1523H536.8l.944-2.368h5.408Z" transform="translate(1 0.59)" fill="#333"/>
    <path id="Path_11145" data-name="Path 11145" d="M546.56,1521.976a4.111,4.111,0,0,0,3.12,1.216c2,0,3.04-1.04,3.04-2.336,0-1.712-1.552-2.1-2.9-2.4-1.008-.24-1.888-.48-1.888-1.232,0-.688.656-1.168,1.712-1.168a3.011,3.011,0,0,1,2.3.976l.56-.832a3.911,3.911,0,0,0-2.864-1.12c-1.84,0-2.88,1.024-2.88,2.224,0,1.6,1.488,1.952,2.8,2.256,1.04.256,1.984.528,1.984,1.376,0,.752-.64,1.28-1.824,1.28a3.5,3.5,0,0,1-2.544-1.1Z" transform="translate(1 0.59)" fill="#333"/>
    <path id="Path_11146" data-name="Path 11146" d="M554.32,1521.976a4.111,4.111,0,0,0,3.12,1.216c2,0,3.04-1.04,3.04-2.336,0-1.712-1.552-2.1-2.9-2.4-1.008-.24-1.888-.48-1.888-1.232,0-.688.656-1.168,1.712-1.168a3.011,3.011,0,0,1,2.3.976l.56-.832a3.911,3.911,0,0,0-2.864-1.12c-1.84,0-2.88,1.024-2.88,2.224,0,1.6,1.488,1.952,2.8,2.256,1.04.256,1.984.528,1.984,1.376,0,.752-.64,1.28-1.824,1.28a3.5,3.5,0,0,1-2.544-1.1Z" transform="translate(1 0.59)" fill="#333"/>
    <path id="Path_11147" data-name="Path 11147" d="M566.1,1516.072a2.5,2.5,0,0,1,2.544,2.576h-5.072A2.578,2.578,0,0,1,566.1,1516.072Zm-3.792,3.056a3.832,3.832,0,0,0,3.936,4.064,4.2,4.2,0,0,0,3.072-1.184l-.576-.784a3.378,3.378,0,0,1-2.384.976,2.723,2.723,0,0,1-2.784-2.672h6.256v-.3c0-2.32-1.376-4.144-3.712-4.144A3.864,3.864,0,0,0,562.3,1519.128Z" transform="translate(1 0.59)" fill="#333"/>
    <path id="Path_11148" data-name="Path 11148" d="M571.408,1521.976a4.111,4.111,0,0,0,3.12,1.216c2,0,3.04-1.04,3.04-2.336,0-1.712-1.552-2.1-2.9-2.4-1.008-.24-1.888-.48-1.888-1.232,0-.688.656-1.168,1.712-1.168a3.011,3.011,0,0,1,2.3.976l.56-.832a3.911,3.911,0,0,0-2.864-1.12c-1.84,0-2.88,1.024-2.88,2.224,0,1.6,1.488,1.952,2.8,2.256,1.04.256,1.984.528,1.984,1.376,0,.752-.64,1.28-1.824,1.28a3.5,3.5,0,0,1-2.544-1.1Z" transform="translate(1 0.59)" fill="#333"/>
    <path id="Path_11149" data-name="Path 11149" d="M579.168,1521.976a4.111,4.111,0,0,0,3.12,1.216c2,0,3.04-1.04,3.04-2.336,0-1.712-1.552-2.1-2.9-2.4-1.008-.24-1.888-.48-1.888-1.232,0-.688.656-1.168,1.712-1.168a3.011,3.011,0,0,1,2.3.976l.56-.832a3.911,3.911,0,0,0-2.864-1.12c-1.84,0-2.88,1.024-2.88,2.224,0,1.6,1.488,1.952,2.8,2.256,1.04.256,1.984.528,1.984,1.376,0,.752-.64,1.28-1.824,1.28a3.5,3.5,0,0,1-2.544-1.1Z" transform="translate(1 0.59)" fill="#333"/>
    <path id="Path_11150" data-name="Path 11150" d="M596.928,1523h1.2v-5.584c0-1.552-.752-2.336-2.16-2.336a3.253,3.253,0,0,0-2.592,1.44,1.984,1.984,0,0,0-2.08-1.44,3.341,3.341,0,0,0-2.5,1.312v-1.12h-1.2V1523h1.2v-5.648a2.7,2.7,0,0,1,2.032-1.2c1.008,0,1.424.624,1.424,1.6V1523h1.2v-5.664a2.7,2.7,0,0,1,2.048-1.184c.992,0,1.424.624,1.424,1.6Z" transform="translate(1 0.59)" fill="#333"/>
    <path id="Path_11151" data-name="Path 11151" d="M604.192,1516.072a2.5,2.5,0,0,1,2.544,2.576h-5.072A2.578,2.578,0,0,1,604.192,1516.072Zm-3.792,3.056a3.832,3.832,0,0,0,3.936,4.064,4.2,4.2,0,0,0,3.072-1.184l-.576-.784a3.378,3.378,0,0,1-2.384.976,2.723,2.723,0,0,1-2.784-2.672h6.256v-.3c0-2.32-1.376-4.144-3.712-4.144A3.864,3.864,0,0,0,600.4,1519.128Z" transform="translate(1 0.59)" fill="#333"/>
    <path id="Path_11152" data-name="Path 11152" d="M615.392,1523h1.2v-5.424a2.2,2.2,0,0,0-2.464-2.5,3.833,3.833,0,0,0-2.752,1.312v-1.12h-1.2V1523h1.2v-5.648a2.984,2.984,0,0,1,2.288-1.2c1.04,0,1.728.432,1.728,1.792Z" transform="translate(1 0.59)" fill="#333"/>
    <path id="Path_11153" data-name="Path 11153" d="M621.264,1523.192a1.961,1.961,0,0,0,1.44-.5l-.352-.9a1.158,1.158,0,0,1-.816.32c-.528,0-.784-.416-.784-.992v-4.8h1.568v-1.056h-1.568v-2.112h-1.2v2.112h-1.28v1.056h1.28v5.056A1.581,1.581,0,0,0,621.264,1523.192Z" transform="translate(1 0.59)" fill="#333"/>
    <path id="Path_11154" data-name="Path 11154" d="M549.128,1297.544a2,2,0,0,1-2.128,2.048h-2.8v-4.08H547A1.984,1.984,0,0,1,549.128,1297.544Zm-.08,7.456h1.568l-2.88-4.352a2.949,2.949,0,0,0,2.768-3.1,3.108,3.108,0,0,0-3.344-3.216h-4.288V1305H544.2v-4.24h2.128Z" transform="translate(1 0.59)" fill="#333"/>
    <path id="Path_11155" data-name="Path 11155" d="M555.736,1298.072a2.5,2.5,0,0,1,2.544,2.576h-5.072A2.578,2.578,0,0,1,555.736,1298.072Zm-3.792,3.056a3.832,3.832,0,0,0,3.936,4.064,4.2,4.2,0,0,0,3.072-1.184l-.576-.784a3.378,3.378,0,0,1-2.384.976,2.723,2.723,0,0,1-2.784-2.672h6.256v-.3c0-2.32-1.376-4.144-3.712-4.144A3.864,3.864,0,0,0,551.944,1301.128Z" transform="translate(1 0.59)" fill="#333"/>
    <path id="Path_11156" data-name="Path 11156" d="M566.552,1303.368a2.588,2.588,0,0,1-2.128.96,1.7,1.7,0,1,1,0-3.376,2.588,2.588,0,0,1,2.128.96Zm0,1.632h1.2v-5.312c0-1.872-1.36-2.608-2.992-2.608a4.045,4.045,0,0,0-3.088,1.28l.56.832a3.07,3.07,0,0,1,2.368-1.072c1.12,0,1.952.592,1.952,1.632v1.392a3.231,3.231,0,0,0-2.56-1.056,2.531,2.531,0,0,0-2.7,2.544,2.573,2.573,0,0,0,2.7,2.56,3.343,3.343,0,0,0,2.56-1.072Z" transform="translate(1 0.59)" fill="#333"/>
    <path id="Path_11157" data-name="Path 11157" d="M576.072,1302.9a2.874,2.874,0,0,1-2.32,1.216c-1.552,0-2.48-1.264-2.48-2.976s.928-2.992,2.48-2.992a2.9,2.9,0,0,1,2.32,1.248Zm0,2.1h1.2v-10.672h-1.2v4.112a3.231,3.231,0,0,0-2.608-1.36c-2.032,0-3.44,1.6-3.44,4.064,0,2.512,1.424,4.048,3.44,4.048a3.254,3.254,0,0,0,2.608-1.344Z" transform="translate(1 0.59)" fill="#333"/>
    <path id="Path_11158" data-name="Path 11158" d="M579.992,1305h1.2v-7.728h-1.2Zm.592-9.024a.819.819,0,0,0,.816-.816.808.808,0,0,0-1.616,0A.816.816,0,0,0,580.584,1295.976Z" transform="translate(1 0.59)" fill="#333"/>
    <path id="Path_11159" data-name="Path 11159" d="M589.128,1305h1.2v-5.424a2.2,2.2,0,0,0-2.464-2.5,3.833,3.833,0,0,0-2.752,1.312v-1.12h-1.2V1305h1.2v-5.648a2.984,2.984,0,0,1,2.288-1.2c1.04,0,1.728.432,1.728,1.792Z" transform="translate(1 0.59)" fill="#333"/>
    <path id="Path_11160" data-name="Path 11160" d="M596.392,1298.072a2.5,2.5,0,0,1,2.544,2.576h-5.072A2.578,2.578,0,0,1,596.392,1298.072Zm-3.792,3.056a3.832,3.832,0,0,0,3.936,4.064,4.2,4.2,0,0,0,3.072-1.184l-.576-.784a3.378,3.378,0,0,1-2.384.976,2.723,2.723,0,0,1-2.784-2.672h6.256v-.3c0-2.32-1.376-4.144-3.712-4.144A3.864,3.864,0,0,0,592.6,1301.128Z" transform="translate(1 0.59)" fill="#333"/>
    <path id="Path_11161" data-name="Path 11161" d="M601.7,1303.976a4.111,4.111,0,0,0,3.12,1.216c2,0,3.04-1.04,3.04-2.336,0-1.712-1.552-2.1-2.9-2.4-1.008-.24-1.888-.48-1.888-1.232,0-.688.656-1.168,1.712-1.168a3.011,3.011,0,0,1,2.3.976l.56-.832a3.911,3.911,0,0,0-2.864-1.12c-1.84,0-2.88,1.024-2.88,2.224,0,1.6,1.488,1.952,2.8,2.256,1.04.256,1.984.528,1.984,1.376,0,.752-.64,1.28-1.824,1.28a3.5,3.5,0,0,1-2.544-1.1Z" transform="translate(1 0.59)" fill="#333"/>
    <path id="Path_11162" data-name="Path 11162" d="M609.464,1303.976a4.111,4.111,0,0,0,3.12,1.216c2,0,3.04-1.04,3.04-2.336,0-1.712-1.552-2.1-2.9-2.4-1.008-.24-1.888-.48-1.888-1.232,0-.688.656-1.168,1.712-1.168a3.011,3.011,0,0,1,2.3.976l.56-.832a3.911,3.911,0,0,0-2.864-1.12c-1.84,0-2.88,1.024-2.88,2.224,0,1.6,1.488,1.952,2.8,2.256,1.04.256,1.984.528,1.984,1.376,0,.752-.64,1.28-1.824,1.28a3.5,3.5,0,0,1-2.544-1.1Z" transform="translate(1 0.59)" fill="#333"/>
    <path id="Path_11163" data-name="Path 11163" d="M540.448,1315.512l2.3,5.936h-4.624ZM544.1,1325h1.472l-4.3-10.672h-1.648L535.328,1325H536.8l.944-2.368h5.408Z" transform="translate(1 0.59)" fill="#333"/>
    <path id="Path_11164" data-name="Path 11164" d="M546.56,1323.976a4.111,4.111,0,0,0,3.12,1.216c2,0,3.04-1.04,3.04-2.336,0-1.712-1.552-2.1-2.9-2.4-1.008-.24-1.888-.48-1.888-1.232,0-.688.656-1.168,1.712-1.168a3.011,3.011,0,0,1,2.3.976l.56-.832a3.911,3.911,0,0,0-2.864-1.12c-1.84,0-2.88,1.024-2.88,2.224,0,1.6,1.488,1.952,2.8,2.256,1.04.256,1.984.528,1.984,1.376,0,.752-.64,1.28-1.824,1.28a3.5,3.5,0,0,1-2.544-1.1Z" transform="translate(1 0.59)" fill="#333"/>
    <path id="Path_11165" data-name="Path 11165" d="M554.32,1323.976a4.111,4.111,0,0,0,3.12,1.216c2,0,3.04-1.04,3.04-2.336,0-1.712-1.552-2.1-2.9-2.4-1.008-.24-1.888-.48-1.888-1.232,0-.688.656-1.168,1.712-1.168a3.011,3.011,0,0,1,2.3.976l.56-.832a3.911,3.911,0,0,0-2.864-1.12c-1.84,0-2.88,1.024-2.88,2.224,0,1.6,1.488,1.952,2.8,2.256,1.04.256,1.984.528,1.984,1.376,0,.752-.64,1.28-1.824,1.28a3.5,3.5,0,0,1-2.544-1.1Z" transform="translate(1 0.59)" fill="#333"/>
    <path id="Path_11166" data-name="Path 11166" d="M566.1,1318.072a2.5,2.5,0,0,1,2.544,2.576h-5.072A2.578,2.578,0,0,1,566.1,1318.072Zm-3.792,3.056a3.832,3.832,0,0,0,3.936,4.064,4.2,4.2,0,0,0,3.072-1.184l-.576-.784a3.378,3.378,0,0,1-2.384.976,2.723,2.723,0,0,1-2.784-2.672h6.256v-.3c0-2.32-1.376-4.144-3.712-4.144A3.864,3.864,0,0,0,562.3,1321.128Z" transform="translate(1 0.59)" fill="#333"/>
    <path id="Path_11167" data-name="Path 11167" d="M571.408,1323.976a4.111,4.111,0,0,0,3.12,1.216c2,0,3.04-1.04,3.04-2.336,0-1.712-1.552-2.1-2.9-2.4-1.008-.24-1.888-.48-1.888-1.232,0-.688.656-1.168,1.712-1.168a3.011,3.011,0,0,1,2.3.976l.56-.832a3.911,3.911,0,0,0-2.864-1.12c-1.84,0-2.88,1.024-2.88,2.224,0,1.6,1.488,1.952,2.8,2.256,1.04.256,1.984.528,1.984,1.376,0,.752-.64,1.28-1.824,1.28a3.5,3.5,0,0,1-2.544-1.1Z" transform="translate(1 0.59)" fill="#333"/>
    <path id="Path_11168" data-name="Path 11168" d="M579.168,1323.976a4.111,4.111,0,0,0,3.12,1.216c2,0,3.04-1.04,3.04-2.336,0-1.712-1.552-2.1-2.9-2.4-1.008-.24-1.888-.48-1.888-1.232,0-.688.656-1.168,1.712-1.168a3.011,3.011,0,0,1,2.3.976l.56-.832a3.911,3.911,0,0,0-2.864-1.12c-1.84,0-2.88,1.024-2.88,2.224,0,1.6,1.488,1.952,2.8,2.256,1.04.256,1.984.528,1.984,1.376,0,.752-.64,1.28-1.824,1.28a3.5,3.5,0,0,1-2.544-1.1Z" transform="translate(1 0.59)" fill="#333"/>
    <path id="Path_11169" data-name="Path 11169" d="M596.928,1325h1.2v-5.584c0-1.552-.752-2.336-2.16-2.336a3.253,3.253,0,0,0-2.592,1.44,1.984,1.984,0,0,0-2.08-1.44,3.341,3.341,0,0,0-2.5,1.312v-1.12h-1.2V1325h1.2v-5.648a2.7,2.7,0,0,1,2.032-1.2c1.008,0,1.424.624,1.424,1.6V1325h1.2v-5.664a2.7,2.7,0,0,1,2.048-1.184c.992,0,1.424.624,1.424,1.6Z" transform="translate(1 0.59)" fill="#333"/>
    <path id="Path_11170" data-name="Path 11170" d="M604.192,1318.072a2.5,2.5,0,0,1,2.544,2.576h-5.072A2.578,2.578,0,0,1,604.192,1318.072Zm-3.792,3.056a3.832,3.832,0,0,0,3.936,4.064,4.2,4.2,0,0,0,3.072-1.184l-.576-.784a3.378,3.378,0,0,1-2.384.976,2.723,2.723,0,0,1-2.784-2.672h6.256v-.3c0-2.32-1.376-4.144-3.712-4.144A3.864,3.864,0,0,0,600.4,1321.128Z" transform="translate(1 0.59)" fill="#333"/>
    <path id="Path_11171" data-name="Path 11171" d="M615.392,1325h1.2v-5.424a2.2,2.2,0,0,0-2.464-2.5,3.833,3.833,0,0,0-2.752,1.312v-1.12h-1.2V1325h1.2v-5.648a2.984,2.984,0,0,1,2.288-1.2c1.04,0,1.728.432,1.728,1.792Z" transform="translate(1 0.59)" fill="#333"/>
    <path id="Path_11172" data-name="Path 11172" d="M621.264,1325.192a1.961,1.961,0,0,0,1.44-.5l-.352-.9a1.158,1.158,0,0,1-.816.32c-.528,0-.784-.416-.784-.992v-4.8h1.568v-1.056h-1.568v-2.112h-1.2v2.112h-1.28v1.056h1.28v5.056A1.581,1.581,0,0,0,621.264,1325.192Z" transform="translate(1 0.59)" fill="#333"/>
    <path id="Path_11173" data-name="Path 11173" d="M721.584,1503h1.328v-4.864h5.552v-1.184h-5.552v-3.44h5.664v-1.184h-6.992Z" transform="translate(1 0.59)" fill="#333"/>
    <path id="Path_11174" data-name="Path 11174" d="M735.872,1503h1.2v-7.728h-1.2v5.68a2.956,2.956,0,0,1-2.288,1.168c-1.04,0-1.728-.4-1.728-1.76v-5.088h-1.2v5.456a2.174,2.174,0,0,0,2.464,2.464,3.78,3.78,0,0,0,2.752-1.28Z" transform="translate(1 0.59)" fill="#333"/>
    <rect id="Rectangle_2948" data-name="Rectangle 2948" width="1.2" height="10.672" transform="translate(740.792 1492.918)" fill="#333"/>
    <rect id="Rectangle_2949" data-name="Rectangle 2949" width="1.2" height="10.672" transform="translate(744.712 1492.918)" fill="#333"/>
    <path id="Path_11175" data-name="Path 11175" d="M751.488,1501.5a5.285,5.285,0,0,0,4.1,1.7c2.88,0,3.936-1.584,3.936-3.136,0-2.24-1.984-2.784-3.728-3.248-1.36-.368-2.592-.688-2.592-1.76,0-1.008.912-1.7,2.192-1.7a4.084,4.084,0,0,1,3.088,1.28l.8-.976a5.018,5.018,0,0,0-3.792-1.488c-2.1,0-3.664,1.2-3.664,2.96,0,2.1,1.9,2.576,3.616,3.024,1.408.384,2.7.736,2.7,2.016,0,.816-.608,1.84-2.512,1.84a4.511,4.511,0,0,1-3.36-1.52Z" transform="translate(1 0.59)" fill="#333"/>
    <path id="Path_11176" data-name="Path 11176" d="M765.12,1496.072a2.5,2.5,0,0,1,2.544,2.576h-5.072A2.578,2.578,0,0,1,765.12,1496.072Zm-3.792,3.056a3.832,3.832,0,0,0,3.936,4.064,4.2,4.2,0,0,0,3.072-1.184l-.576-.784a3.378,3.378,0,0,1-2.384.976,2.723,2.723,0,0,1-2.784-2.672h6.256v-.3c0-2.32-1.376-4.144-3.712-4.144A3.864,3.864,0,0,0,761.328,1499.128Z" transform="translate(1 0.59)" fill="#333"/>
    <path id="Path_11177" data-name="Path 11177" d="M770.656,1499.128a3.822,3.822,0,0,0,3.856,4.064,3.308,3.308,0,0,0,2.832-1.344l-.8-.736a2.33,2.33,0,0,1-1.968,1.008,3,3,0,0,1,0-5.968,2.292,2.292,0,0,1,1.968,1.008l.8-.736a3.308,3.308,0,0,0-2.832-1.344A3.818,3.818,0,0,0,770.656,1499.128Z" transform="translate(1 0.59)" fill="#333"/>
    <path id="Path_11178" data-name="Path 11178" d="M784.56,1503h1.2v-7.728h-1.2v5.68a2.956,2.956,0,0,1-2.288,1.168c-1.04,0-1.728-.4-1.728-1.76v-5.088h-1.2v5.456a2.174,2.174,0,0,0,2.464,2.464,3.78,3.78,0,0,0,2.752-1.28Z" transform="translate(1 0.59)" fill="#333"/>
    <path id="Path_11179" data-name="Path 11179" d="M788.48,1503h1.2v-5.472a2.827,2.827,0,0,1,2.1-1.232,2.116,2.116,0,0,1,.48.048v-1.232a3.285,3.285,0,0,0-2.576,1.408v-1.248h-1.2Z" transform="translate(1 0.59)" fill="#333"/>
    <path id="Path_11180" data-name="Path 11180" d="M794.08,1503h1.2v-7.728h-1.2Zm.592-9.024a.819.819,0,0,0,.816-.816.808.808,0,0,0-1.616,0A.816.816,0,0,0,794.672,1493.976Z" transform="translate(1 0.59)" fill="#333"/>
    <path id="Path_11181" data-name="Path 11181" d="M799.952,1503.192a1.962,1.962,0,0,0,1.44-.5l-.352-.9a1.158,1.158,0,0,1-.816.32c-.528,0-.784-.416-.784-.992v-4.8h1.568v-1.056H799.44v-2.112h-1.2v2.112h-1.28v1.056h1.28v5.056A1.581,1.581,0,0,0,799.952,1503.192Z" transform="translate(1 0.59)" fill="#333"/>
    <path id="Path_11182" data-name="Path 11182" d="M802.784,1504.936l-.192,1.088a3.9,3.9,0,0,0,.88.112,2.3,2.3,0,0,0,2.272-1.568l3.872-9.3H808.3l-2.56,6.336-2.576-6.336h-1.3l3.232,7.808-.512,1.168a1.111,1.111,0,0,1-1.152.816A1.841,1.841,0,0,1,802.784,1504.936Z" transform="translate(1 0.59)" fill="#333"/>
    <path id="Path_11183" data-name="Path 11183" d="M726.448,1513.512l2.3,5.936h-4.624ZM730.1,1523h1.472l-4.3-10.672h-1.648L721.328,1523H722.8l.944-2.368h5.408Z" transform="translate(1 0.59)" fill="#333"/>
    <path id="Path_11184" data-name="Path 11184" d="M732.56,1521.976a4.111,4.111,0,0,0,3.12,1.216c2,0,3.04-1.04,3.04-2.336,0-1.712-1.552-2.1-2.9-2.4-1.008-.24-1.888-.48-1.888-1.232,0-.688.656-1.168,1.712-1.168a3.011,3.011,0,0,1,2.3.976l.56-.832a3.911,3.911,0,0,0-2.864-1.12c-1.84,0-2.88,1.024-2.88,2.224,0,1.6,1.488,1.952,2.8,2.256,1.04.256,1.984.528,1.984,1.376,0,.752-.64,1.28-1.824,1.28a3.5,3.5,0,0,1-2.544-1.1Z" transform="translate(1 0.59)" fill="#333"/>
    <path id="Path_11185" data-name="Path 11185" d="M740.32,1521.976a4.111,4.111,0,0,0,3.12,1.216c2,0,3.04-1.04,3.04-2.336,0-1.712-1.552-2.1-2.9-2.4-1.008-.24-1.888-.48-1.888-1.232,0-.688.656-1.168,1.712-1.168a3.011,3.011,0,0,1,2.3.976l.56-.832a3.911,3.911,0,0,0-2.864-1.12c-1.84,0-2.88,1.024-2.88,2.224,0,1.6,1.488,1.952,2.8,2.256,1.04.256,1.984.528,1.984,1.376,0,.752-.64,1.28-1.824,1.28a3.5,3.5,0,0,1-2.544-1.1Z" transform="translate(1 0.59)" fill="#333"/>
    <path id="Path_11186" data-name="Path 11186" d="M752.1,1516.072a2.5,2.5,0,0,1,2.544,2.576h-5.072A2.578,2.578,0,0,1,752.1,1516.072Zm-3.792,3.056a3.832,3.832,0,0,0,3.936,4.064,4.2,4.2,0,0,0,3.072-1.184l-.576-.784a3.378,3.378,0,0,1-2.384.976,2.723,2.723,0,0,1-2.784-2.672h6.256v-.3c0-2.32-1.376-4.144-3.712-4.144A3.864,3.864,0,0,0,748.3,1519.128Z" transform="translate(1 0.59)" fill="#333"/>
    <path id="Path_11187" data-name="Path 11187" d="M757.408,1521.976a4.111,4.111,0,0,0,3.12,1.216c2,0,3.04-1.04,3.04-2.336,0-1.712-1.552-2.1-2.9-2.4-1.008-.24-1.888-.48-1.888-1.232,0-.688.656-1.168,1.712-1.168a3.011,3.011,0,0,1,2.3.976l.56-.832a3.911,3.911,0,0,0-2.864-1.12c-1.84,0-2.88,1.024-2.88,2.224,0,1.6,1.488,1.952,2.8,2.256,1.04.256,1.984.528,1.984,1.376,0,.752-.64,1.28-1.824,1.28a3.5,3.5,0,0,1-2.544-1.1Z" transform="translate(1 0.59)" fill="#333"/>
    <path id="Path_11188" data-name="Path 11188" d="M765.168,1521.976a4.111,4.111,0,0,0,3.12,1.216c2,0,3.04-1.04,3.04-2.336,0-1.712-1.552-2.1-2.9-2.4-1.008-.24-1.888-.48-1.888-1.232,0-.688.656-1.168,1.712-1.168a3.011,3.011,0,0,1,2.3.976l.56-.832a3.911,3.911,0,0,0-2.864-1.12c-1.84,0-2.88,1.024-2.88,2.224,0,1.6,1.488,1.952,2.8,2.256,1.04.256,1.984.528,1.984,1.376,0,.752-.64,1.28-1.824,1.28a3.5,3.5,0,0,1-2.544-1.1Z" transform="translate(1 0.59)" fill="#333"/>
    <path id="Path_11189" data-name="Path 11189" d="M782.928,1523h1.2v-5.584c0-1.552-.752-2.336-2.16-2.336a3.253,3.253,0,0,0-2.592,1.44,1.984,1.984,0,0,0-2.08-1.44,3.341,3.341,0,0,0-2.5,1.312v-1.12h-1.2V1523h1.2v-5.648a2.7,2.7,0,0,1,2.032-1.2c1.008,0,1.424.624,1.424,1.6V1523h1.2v-5.664a2.7,2.7,0,0,1,2.048-1.184c.992,0,1.424.624,1.424,1.6Z" transform="translate(1 0.59)" fill="#333"/>
    <path id="Path_11190" data-name="Path 11190" d="M790.192,1516.072a2.5,2.5,0,0,1,2.544,2.576h-5.072A2.578,2.578,0,0,1,790.192,1516.072Zm-3.792,3.056a3.832,3.832,0,0,0,3.936,4.064,4.2,4.2,0,0,0,3.072-1.184l-.576-.784a3.378,3.378,0,0,1-2.384.976,2.723,2.723,0,0,1-2.784-2.672h6.256v-.3c0-2.32-1.376-4.144-3.712-4.144A3.864,3.864,0,0,0,786.4,1519.128Z" transform="translate(1 0.59)" fill="#333"/>
    <path id="Path_11191" data-name="Path 11191" d="M801.392,1523h1.2v-5.424a2.2,2.2,0,0,0-2.464-2.5,3.833,3.833,0,0,0-2.752,1.312v-1.12h-1.2V1523h1.2v-5.648a2.984,2.984,0,0,1,2.288-1.2c1.04,0,1.728.432,1.728,1.792Z" transform="translate(1 0.59)" fill="#333"/>
    <path id="Path_11192" data-name="Path 11192" d="M807.264,1523.192a1.961,1.961,0,0,0,1.44-.5l-.352-.9a1.158,1.158,0,0,1-.816.32c-.528,0-.784-.416-.784-.992v-4.8h1.568v-1.056h-1.568v-2.112h-1.2v2.112h-1.28v1.056h1.28v5.056A1.581,1.581,0,0,0,807.264,1523.192Z" transform="translate(1 0.59)" fill="#333"/>
    <path id="Path_11193" data-name="Path 11193" d="M721.584,1305h1.328v-4.864h5.552v-1.184h-5.552v-3.44h5.664v-1.184h-6.992Z" transform="translate(1 0.59)" fill="#333"/>
    <path id="Path_11194" data-name="Path 11194" d="M735.872,1305h1.2v-7.728h-1.2v5.68a2.956,2.956,0,0,1-2.288,1.168c-1.04,0-1.728-.4-1.728-1.76v-5.088h-1.2v5.456a2.174,2.174,0,0,0,2.464,2.464,3.78,3.78,0,0,0,2.752-1.28Z" transform="translate(1 0.59)" fill="#333"/>
    <rect id="Rectangle_2950" data-name="Rectangle 2950" width="1.2" height="10.672" transform="translate(740.792 1294.918)" fill="#333"/>
    <rect id="Rectangle_2951" data-name="Rectangle 2951" width="1.2" height="10.672" transform="translate(744.712 1294.918)" fill="#333"/>
    <path id="Path_11195" data-name="Path 11195" d="M751.488,1303.5a5.285,5.285,0,0,0,4.1,1.7c2.88,0,3.936-1.584,3.936-3.136,0-2.24-1.984-2.784-3.728-3.248-1.36-.368-2.592-.688-2.592-1.76,0-1.008.912-1.7,2.192-1.7a4.084,4.084,0,0,1,3.088,1.28l.8-.976a5.018,5.018,0,0,0-3.792-1.488c-2.1,0-3.664,1.2-3.664,2.96,0,2.1,1.9,2.576,3.616,3.024,1.408.384,2.7.736,2.7,2.016,0,.816-.608,1.84-2.512,1.84a4.511,4.511,0,0,1-3.36-1.52Z" transform="translate(1 0.59)" fill="#333"/>
    <path id="Path_11196" data-name="Path 11196" d="M765.12,1298.072a2.5,2.5,0,0,1,2.544,2.576h-5.072A2.578,2.578,0,0,1,765.12,1298.072Zm-3.792,3.056a3.832,3.832,0,0,0,3.936,4.064,4.2,4.2,0,0,0,3.072-1.184l-.576-.784a3.378,3.378,0,0,1-2.384.976,2.723,2.723,0,0,1-2.784-2.672h6.256v-.3c0-2.32-1.376-4.144-3.712-4.144A3.864,3.864,0,0,0,761.328,1301.128Z" transform="translate(1 0.59)" fill="#333"/>
    <path id="Path_11197" data-name="Path 11197" d="M770.656,1301.128a3.822,3.822,0,0,0,3.856,4.064,3.308,3.308,0,0,0,2.832-1.344l-.8-.736a2.33,2.33,0,0,1-1.968,1.008,3,3,0,0,1,0-5.968,2.292,2.292,0,0,1,1.968,1.008l.8-.736a3.308,3.308,0,0,0-2.832-1.344A3.818,3.818,0,0,0,770.656,1301.128Z" transform="translate(1 0.59)" fill="#333"/>
    <path id="Path_11198" data-name="Path 11198" d="M784.56,1305h1.2v-7.728h-1.2v5.68a2.956,2.956,0,0,1-2.288,1.168c-1.04,0-1.728-.4-1.728-1.76v-5.088h-1.2v5.456a2.174,2.174,0,0,0,2.464,2.464,3.78,3.78,0,0,0,2.752-1.28Z" transform="translate(1 0.59)" fill="#333"/>
    <path id="Path_11199" data-name="Path 11199" d="M788.48,1305h1.2v-5.472a2.827,2.827,0,0,1,2.1-1.232,2.116,2.116,0,0,1,.48.048v-1.232a3.285,3.285,0,0,0-2.576,1.408v-1.248h-1.2Z" transform="translate(1 0.59)" fill="#333"/>
    <path id="Path_11200" data-name="Path 11200" d="M794.08,1305h1.2v-7.728h-1.2Zm.592-9.024a.819.819,0,0,0,.816-.816.808.808,0,0,0-1.616,0A.816.816,0,0,0,794.672,1295.976Z" transform="translate(1 0.59)" fill="#333"/>
    <path id="Path_11201" data-name="Path 11201" d="M799.952,1305.192a1.962,1.962,0,0,0,1.44-.5l-.352-.9a1.158,1.158,0,0,1-.816.32c-.528,0-.784-.416-.784-.992v-4.8h1.568v-1.056H799.44v-2.112h-1.2v2.112h-1.28v1.056h1.28v5.056A1.581,1.581,0,0,0,799.952,1305.192Z" transform="translate(1 0.59)" fill="#333"/>
    <path id="Path_11202" data-name="Path 11202" d="M802.784,1306.936l-.192,1.088a3.9,3.9,0,0,0,.88.112,2.3,2.3,0,0,0,2.272-1.568l3.872-9.3H808.3l-2.56,6.336-2.576-6.336h-1.3l3.232,7.808-.512,1.168a1.111,1.111,0,0,1-1.152.816A1.841,1.841,0,0,1,802.784,1306.936Z" transform="translate(1 0.59)" fill="#333"/>
    <path id="Path_11203" data-name="Path 11203" d="M726.448,1315.512l2.3,5.936h-4.624ZM730.1,1325h1.472l-4.3-10.672h-1.648L721.328,1325H722.8l.944-2.368h5.408Z" transform="translate(1 0.59)" fill="#333"/>
    <path id="Path_11204" data-name="Path 11204" d="M732.56,1323.976a4.111,4.111,0,0,0,3.12,1.216c2,0,3.04-1.04,3.04-2.336,0-1.712-1.552-2.1-2.9-2.4-1.008-.24-1.888-.48-1.888-1.232,0-.688.656-1.168,1.712-1.168a3.011,3.011,0,0,1,2.3.976l.56-.832a3.911,3.911,0,0,0-2.864-1.12c-1.84,0-2.88,1.024-2.88,2.224,0,1.6,1.488,1.952,2.8,2.256,1.04.256,1.984.528,1.984,1.376,0,.752-.64,1.28-1.824,1.28a3.5,3.5,0,0,1-2.544-1.1Z" transform="translate(1 0.59)" fill="#333"/>
    <path id="Path_11205" data-name="Path 11205" d="M740.32,1323.976a4.111,4.111,0,0,0,3.12,1.216c2,0,3.04-1.04,3.04-2.336,0-1.712-1.552-2.1-2.9-2.4-1.008-.24-1.888-.48-1.888-1.232,0-.688.656-1.168,1.712-1.168a3.011,3.011,0,0,1,2.3.976l.56-.832a3.911,3.911,0,0,0-2.864-1.12c-1.84,0-2.88,1.024-2.88,2.224,0,1.6,1.488,1.952,2.8,2.256,1.04.256,1.984.528,1.984,1.376,0,.752-.64,1.28-1.824,1.28a3.5,3.5,0,0,1-2.544-1.1Z" transform="translate(1 0.59)" fill="#333"/>
    <path id="Path_11206" data-name="Path 11206" d="M752.1,1318.072a2.5,2.5,0,0,1,2.544,2.576h-5.072A2.578,2.578,0,0,1,752.1,1318.072Zm-3.792,3.056a3.832,3.832,0,0,0,3.936,4.064,4.2,4.2,0,0,0,3.072-1.184l-.576-.784a3.378,3.378,0,0,1-2.384.976,2.723,2.723,0,0,1-2.784-2.672h6.256v-.3c0-2.32-1.376-4.144-3.712-4.144A3.864,3.864,0,0,0,748.3,1321.128Z" transform="translate(1 0.59)" fill="#333"/>
    <path id="Path_11207" data-name="Path 11207" d="M757.408,1323.976a4.111,4.111,0,0,0,3.12,1.216c2,0,3.04-1.04,3.04-2.336,0-1.712-1.552-2.1-2.9-2.4-1.008-.24-1.888-.48-1.888-1.232,0-.688.656-1.168,1.712-1.168a3.011,3.011,0,0,1,2.3.976l.56-.832a3.911,3.911,0,0,0-2.864-1.12c-1.84,0-2.88,1.024-2.88,2.224,0,1.6,1.488,1.952,2.8,2.256,1.04.256,1.984.528,1.984,1.376,0,.752-.64,1.28-1.824,1.28a3.5,3.5,0,0,1-2.544-1.1Z" transform="translate(1 0.59)" fill="#333"/>
    <path id="Path_11208" data-name="Path 11208" d="M765.168,1323.976a4.111,4.111,0,0,0,3.12,1.216c2,0,3.04-1.04,3.04-2.336,0-1.712-1.552-2.1-2.9-2.4-1.008-.24-1.888-.48-1.888-1.232,0-.688.656-1.168,1.712-1.168a3.011,3.011,0,0,1,2.3.976l.56-.832a3.911,3.911,0,0,0-2.864-1.12c-1.84,0-2.88,1.024-2.88,2.224,0,1.6,1.488,1.952,2.8,2.256,1.04.256,1.984.528,1.984,1.376,0,.752-.64,1.28-1.824,1.28a3.5,3.5,0,0,1-2.544-1.1Z" transform="translate(1 0.59)" fill="#333"/>
    <path id="Path_11209" data-name="Path 11209" d="M782.928,1325h1.2v-5.584c0-1.552-.752-2.336-2.16-2.336a3.253,3.253,0,0,0-2.592,1.44,1.984,1.984,0,0,0-2.08-1.44,3.341,3.341,0,0,0-2.5,1.312v-1.12h-1.2V1325h1.2v-5.648a2.7,2.7,0,0,1,2.032-1.2c1.008,0,1.424.624,1.424,1.6V1325h1.2v-5.664a2.7,2.7,0,0,1,2.048-1.184c.992,0,1.424.624,1.424,1.6Z" transform="translate(1 0.59)" fill="#333"/>
    <path id="Path_11210" data-name="Path 11210" d="M790.192,1318.072a2.5,2.5,0,0,1,2.544,2.576h-5.072A2.578,2.578,0,0,1,790.192,1318.072Zm-3.792,3.056a3.832,3.832,0,0,0,3.936,4.064,4.2,4.2,0,0,0,3.072-1.184l-.576-.784a3.378,3.378,0,0,1-2.384.976,2.723,2.723,0,0,1-2.784-2.672h6.256v-.3c0-2.32-1.376-4.144-3.712-4.144A3.864,3.864,0,0,0,786.4,1321.128Z" transform="translate(1 0.59)" fill="#333"/>
    <path id="Path_11211" data-name="Path 11211" d="M801.392,1325h1.2v-5.424a2.2,2.2,0,0,0-2.464-2.5,3.833,3.833,0,0,0-2.752,1.312v-1.12h-1.2V1325h1.2v-5.648a2.984,2.984,0,0,1,2.288-1.2c1.04,0,1.728.432,1.728,1.792Z" transform="translate(1 0.59)" fill="#333"/>
    <path id="Path_11212" data-name="Path 11212" d="M807.264,1325.192a1.961,1.961,0,0,0,1.44-.5l-.352-.9a1.158,1.158,0,0,1-.816.32c-.528,0-.784-.416-.784-.992v-4.8h1.568v-1.056h-1.568v-2.112h-1.2v2.112h-1.28v1.056h1.28v5.056A1.581,1.581,0,0,0,807.264,1325.192Z" transform="translate(1 0.59)" fill="#333"/>
    <path id="Path_11213" data-name="Path 11213" d="M401.08,1297.544a1.984,1.984,0,0,1-2.128,2.032h-2.8v-4.064h2.8A1.984,1.984,0,0,1,401.08,1297.544ZM394.824,1305h1.328v-4.24h2.96a3.218,3.218,0,1,0,0-6.432h-4.288Z" transform="translate(1 0.59)" fill="#333"/>
    <path id="Path_11214" data-name="Path 11214" d="M409,1303.368a2.588,2.588,0,0,1-2.128.96,1.7,1.7,0,1,1,0-3.376,2.588,2.588,0,0,1,2.128.96Zm0,1.632h1.2v-5.312c0-1.872-1.36-2.608-2.992-2.608a4.045,4.045,0,0,0-3.088,1.28l.56.832a3.07,3.07,0,0,1,2.368-1.072c1.12,0,1.952.592,1.952,1.632v1.392a3.231,3.231,0,0,0-2.56-1.056,2.531,2.531,0,0,0-2.7,2.544,2.573,2.573,0,0,0,2.7,2.56,3.343,3.343,0,0,0,2.56-1.072Z" transform="translate(1 0.59)" fill="#333"/>
    <path id="Path_11215" data-name="Path 11215" d="M412.92,1305h1.2v-5.472a2.827,2.827,0,0,1,2.1-1.232,2.116,2.116,0,0,1,.48.048v-1.232a3.285,3.285,0,0,0-2.576,1.408v-1.248h-1.2Z" transform="translate(1 0.59)" fill="#333"/>
    <path id="Path_11216" data-name="Path 11216" d="M420.472,1305.192a1.962,1.962,0,0,0,1.44-.5l-.352-.9a1.158,1.158,0,0,1-.816.32c-.528,0-.784-.416-.784-.992v-4.8h1.568v-1.056H419.96v-2.112h-1.2v2.112h-1.28v1.056h1.28v5.056A1.581,1.581,0,0,0,420.472,1305.192Z" transform="translate(1 0.59)" fill="#333"/>
    <path id="Path_11217" data-name="Path 11217" d="M428.76,1305h1.2v-5.424a2.2,2.2,0,0,0-2.464-2.5,3.833,3.833,0,0,0-2.752,1.312v-1.12h-1.2V1305h1.2v-5.648a2.984,2.984,0,0,1,2.288-1.2c1.04,0,1.728.432,1.728,1.792Z" transform="translate(1 0.59)" fill="#333"/>
    <path id="Path_11218" data-name="Path 11218" d="M436.024,1298.072a2.5,2.5,0,0,1,2.544,2.576H433.5A2.578,2.578,0,0,1,436.024,1298.072Zm-3.792,3.056a3.832,3.832,0,0,0,3.936,4.064,4.2,4.2,0,0,0,3.072-1.184l-.576-.784a3.378,3.378,0,0,1-2.384.976,2.723,2.723,0,0,1-2.784-2.672h6.256v-.3c0-2.32-1.376-4.144-3.712-4.144A3.864,3.864,0,0,0,432.232,1301.128Z" transform="translate(1 0.59)" fill="#333"/>
    <path id="Path_11219" data-name="Path 11219" d="M442.008,1305h1.2v-5.472a2.827,2.827,0,0,1,2.1-1.232,2.116,2.116,0,0,1,.48.048v-1.232a3.285,3.285,0,0,0-2.576,1.408v-1.248h-1.2Z" transform="translate(1 0.59)" fill="#333"/>
    <path id="Path_11220" data-name="Path 11220" d="M446.936,1303.976a4.111,4.111,0,0,0,3.12,1.216c2,0,3.04-1.04,3.04-2.336,0-1.712-1.552-2.1-2.9-2.4-1.008-.24-1.888-.48-1.888-1.232,0-.688.656-1.168,1.712-1.168a3.011,3.011,0,0,1,2.3.976l.56-.832a3.911,3.911,0,0,0-2.864-1.12c-1.84,0-2.88,1.024-2.88,2.224,0,1.6,1.488,1.952,2.8,2.256,1.04.256,1.984.528,1.984,1.376,0,.752-.64,1.28-1.824,1.28a3.5,3.5,0,0,1-2.544-1.1Z" transform="translate(1 0.59)" fill="#333"/>
    <path id="Path_11221" data-name="Path 11221" d="M460.6,1305h1.2v-5.456a2.174,2.174,0,0,0-2.464-2.464,3.84,3.84,0,0,0-2.768,1.312v-4.064h-1.2V1305h1.2v-5.648a3.037,3.037,0,0,1,2.288-1.2c1.04,0,1.744.4,1.744,1.76Z" transform="translate(1 0.59)" fill="#333"/>
    <path id="Path_11222" data-name="Path 11222" d="M464.52,1305h1.2v-7.728h-1.2Zm.592-9.024a.819.819,0,0,0,.816-.816.808.808,0,0,0-1.616,0A.816.816,0,0,0,465.112,1295.976Z" transform="translate(1 0.59)" fill="#333"/>
    <path id="Path_11223" data-name="Path 11223" d="M474.424,1301.128c0,1.712-.928,2.992-2.48,2.992a2.871,2.871,0,0,1-2.3-1.248v-3.488a2.857,2.857,0,0,1,2.3-1.232C473.5,1298.152,474.424,1299.416,474.424,1301.128Zm-4.784,6.816v-4.112a3.167,3.167,0,0,0,2.608,1.36c2.032,0,3.44-1.568,3.44-4.064,0-2.512-1.408-4.048-3.44-4.048a3.23,3.23,0,0,0-2.608,1.344v-1.152h-1.2v10.672Z" transform="translate(1 0.59)" fill="#333"/>
    <path id="Path_11224" data-name="Path 11224" d="M385.424,1325h6.992v-1.184h-5.664v-3.68H392.3v-1.184h-5.552v-3.44h5.664v-1.184h-6.992Z" transform="translate(1 0.59)" fill="#333"/>
    <path id="Path_11225" data-name="Path 11225" d="M394.128,1323.976a4.111,4.111,0,0,0,3.12,1.216c2,0,3.04-1.04,3.04-2.336,0-1.712-1.552-2.1-2.9-2.4-1.008-.24-1.888-.48-1.888-1.232,0-.688.656-1.168,1.712-1.168a3.011,3.011,0,0,1,2.3.976l.56-.832a3.911,3.911,0,0,0-2.864-1.12c-1.84,0-2.88,1.024-2.88,2.224,0,1.6,1.488,1.952,2.8,2.256,1.04.256,1.984.528,1.984,1.376,0,.752-.64,1.28-1.824,1.28a3.5,3.5,0,0,1-2.544-1.1Z" transform="translate(1 0.59)" fill="#333"/>
    <path id="Path_11226" data-name="Path 11226" d="M404.512,1325.192a1.962,1.962,0,0,0,1.44-.5l-.352-.9a1.158,1.158,0,0,1-.816.32c-.528,0-.784-.416-.784-.992v-4.8h1.568v-1.056H404v-2.112h-1.2v2.112h-1.28v1.056h1.28v5.056A1.581,1.581,0,0,0,404.512,1325.192Z" transform="translate(1 0.59)" fill="#333"/>
    <path id="Path_11227" data-name="Path 11227" d="M412.416,1323.368a2.588,2.588,0,0,1-2.128.96,1.7,1.7,0,1,1,0-3.376,2.588,2.588,0,0,1,2.128.96Zm0,1.632h1.2v-5.312c0-1.872-1.36-2.608-2.992-2.608a4.045,4.045,0,0,0-3.088,1.28l.56.832a3.07,3.07,0,0,1,2.368-1.072c1.12,0,1.952.592,1.952,1.632v1.392a3.231,3.231,0,0,0-2.56-1.056,2.531,2.531,0,0,0-2.7,2.544,2.573,2.573,0,0,0,2.7,2.56,3.343,3.343,0,0,0,2.56-1.072Z" transform="translate(1 0.59)" fill="#333"/>
    <path id="Path_11228" data-name="Path 11228" d="M417.536,1322.9v-3.5a2.871,2.871,0,0,1,2.3-1.248c1.568,0,2.5,1.28,2.5,2.992s-.928,2.976-2.5,2.976A2.844,2.844,0,0,1,417.536,1322.9Zm-1.2,2.1h1.2v-1.152a3.254,3.254,0,0,0,2.608,1.344c2.016,0,3.44-1.536,3.44-4.048,0-2.464-1.424-4.064-3.44-4.064a3.209,3.209,0,0,0-2.608,1.36v-4.112h-1.2Z" transform="translate(1 0.59)" fill="#333"/>
    <rect id="Rectangle_2952" data-name="Rectangle 2952" width="1.2" height="10.672" transform="translate(426.856 1314.918)" fill="#333"/>
    <path id="Path_11229" data-name="Path 11229" d="M429.776,1325h1.2v-7.728h-1.2Zm.592-9.024a.819.819,0,0,0,.816-.816.808.808,0,0,0-1.616,0A.816.816,0,0,0,430.368,1315.976Z" transform="translate(1 0.59)" fill="#333"/>
    <path id="Path_11230" data-name="Path 11230" d="M433.024,1323.976a4.111,4.111,0,0,0,3.12,1.216c2,0,3.04-1.04,3.04-2.336,0-1.712-1.552-2.1-2.9-2.4-1.008-.24-1.888-.48-1.888-1.232,0-.688.656-1.168,1.712-1.168a3.011,3.011,0,0,1,2.3.976l.56-.832a3.911,3.911,0,0,0-2.864-1.12c-1.84,0-2.88,1.024-2.88,2.224,0,1.6,1.488,1.952,2.8,2.256,1.04.256,1.984.528,1.984,1.376,0,.752-.64,1.28-1.824,1.28a3.5,3.5,0,0,1-2.544-1.1Z" transform="translate(1 0.59)" fill="#333"/>
    <path id="Path_11231" data-name="Path 11231" d="M446.688,1325h1.2v-5.456a2.174,2.174,0,0,0-2.464-2.464,3.84,3.84,0,0,0-2.768,1.312v-4.064h-1.2V1325h1.2v-5.648a3.037,3.037,0,0,1,2.288-1.2c1.04,0,1.744.4,1.744,1.76Z" transform="translate(1 0.59)" fill="#333"/>
    <path id="Path_11232" data-name="Path 11232" d="M459.936,1325h1.2v-5.584c0-1.552-.752-2.336-2.16-2.336a3.253,3.253,0,0,0-2.592,1.44,1.984,1.984,0,0,0-2.08-1.44,3.341,3.341,0,0,0-2.5,1.312v-1.12h-1.2V1325h1.2v-5.648a2.7,2.7,0,0,1,2.032-1.2c1.008,0,1.424.624,1.424,1.6V1325h1.2v-5.664a2.7,2.7,0,0,1,2.048-1.184c.992,0,1.424.624,1.424,1.6Z" transform="translate(1 0.59)" fill="#333"/>
    <path id="Path_11233" data-name="Path 11233" d="M467.2,1318.072a2.5,2.5,0,0,1,2.544,2.576h-5.072A2.578,2.578,0,0,1,467.2,1318.072Zm-3.792,3.056a3.832,3.832,0,0,0,3.936,4.064,4.2,4.2,0,0,0,3.072-1.184l-.576-.784a3.378,3.378,0,0,1-2.384.976,2.723,2.723,0,0,1-2.784-2.672h6.256v-.3c0-2.32-1.376-4.144-3.712-4.144A3.864,3.864,0,0,0,463.408,1321.128Z" transform="translate(1 0.59)" fill="#333"/>
    <path id="Path_11234" data-name="Path 11234" d="M478.4,1325h1.2v-5.424a2.2,2.2,0,0,0-2.464-2.5,3.833,3.833,0,0,0-2.752,1.312v-1.12h-1.2V1325h1.2v-5.648a2.984,2.984,0,0,1,2.288-1.2c1.04,0,1.728.432,1.728,1.792Z" transform="translate(1 0.59)" fill="#333"/>
    <path id="Path_11235" data-name="Path 11235" d="M484.272,1325.192a1.962,1.962,0,0,0,1.44-.5l-.352-.9a1.158,1.158,0,0,1-.816.32c-.528,0-.784-.416-.784-.992v-4.8h1.568v-1.056H483.76v-2.112h-1.2v2.112h-1.28v1.056h1.28v5.056A1.581,1.581,0,0,0,484.272,1325.192Z" transform="translate(1 0.59)" fill="#333"/>
    <path id="Path_11236" data-name="Path 11236" d="M935.744,1491.96a3.424,3.424,0,0,0,2.784,1.232,3.137,3.137,0,0,0,3.392-3.408v-7.456h-1.328v7.44a2.067,2.067,0,0,1-2.144,2.24,2.555,2.555,0,0,1-2.016-1.056Z" transform="translate(1 0.59)" fill="#333"/>
    <path id="Path_11237" data-name="Path 11237" d="M948.336,1483.512l2.3,5.936h-4.624Zm3.648,9.488h1.472l-4.3-10.672H947.5L943.216,1493h1.472l.944-2.368h5.408Z" transform="translate(1 0.59)" fill="#333"/>
    <path id="Path_11238" data-name="Path 11238" d="M956.5,1491.816v-3.68h3.264a1.813,1.813,0,0,1,1.984,1.84,1.765,1.765,0,0,1-1.984,1.84Zm0-4.864v-3.44h3.2a1.678,1.678,0,0,1,1.84,1.728,1.658,1.658,0,0,1-1.84,1.712ZM955.168,1493h4.864a2.782,2.782,0,0,0,3.088-2.88,2.664,2.664,0,0,0-2.08-2.624,2.426,2.426,0,0,0,1.872-2.448,2.692,2.692,0,0,0-2.992-2.72h-4.752Z" transform="translate(1 0.59)" fill="#333"/>
    <path id="Path_11239" data-name="Path 11239" d="M908.856,1503.512l2.3,5.936h-4.624ZM912.5,1513h1.472l-4.3-10.672h-1.648L903.736,1513h1.472l.944-2.368h5.408Z" transform="translate(1 0.59)" fill="#333"/>
    <path id="Path_11240" data-name="Path 11240" d="M920.664,1513h1.2v-7.728h-1.2v5.68a2.956,2.956,0,0,1-2.288,1.168c-1.04,0-1.728-.4-1.728-1.76v-5.088h-1.2v5.456a2.174,2.174,0,0,0,2.464,2.464,3.78,3.78,0,0,0,2.752-1.28Z" transform="translate(1 0.59)" fill="#333"/>
    <path id="Path_11241" data-name="Path 11241" d="M926.536,1513.192a1.962,1.962,0,0,0,1.44-.5l-.352-.9a1.158,1.158,0,0,1-.816.32c-.528,0-.784-.416-.784-.992v-4.8h1.568v-1.056h-1.568v-2.112h-1.2v2.112h-1.28v1.056h1.28v5.056A1.581,1.581,0,0,0,926.536,1513.192Z" transform="translate(1 0.59)" fill="#333"/>
    <path id="Path_11242" data-name="Path 11242" d="M934.84,1513h1.2v-5.456a2.174,2.174,0,0,0-2.464-2.464,3.84,3.84,0,0,0-2.768,1.312v-4.064h-1.2V1513h1.2v-5.648a3.037,3.037,0,0,1,2.288-1.2c1.04,0,1.744.4,1.744,1.76Z" transform="translate(1 0.59)" fill="#333"/>
    <path id="Path_11243" data-name="Path 11243" d="M942.136,1512.12a3.016,3.016,0,0,1,0-5.968c1.648,0,2.56,1.408,2.56,2.976C944.7,1510.712,943.784,1512.12,942.136,1512.12Zm0,1.072a4.063,4.063,0,1,0-3.824-4.064A3.8,3.8,0,0,0,942.136,1513.192Z" transform="translate(1 0.59)" fill="#333"/>
    <path id="Path_11244" data-name="Path 11244" d="M948.232,1513h1.2v-5.472a2.827,2.827,0,0,1,2.1-1.232,2.116,2.116,0,0,1,.48.048v-1.232a3.285,3.285,0,0,0-2.576,1.408v-1.248h-1.2Z" transform="translate(1 0.59)" fill="#333"/>
    <path id="Path_11245" data-name="Path 11245" d="M953.832,1513h1.2v-7.728h-1.2Zm.592-9.024a.819.819,0,0,0,.816-.816.808.808,0,0,0-1.616,0A.816.816,0,0,0,954.424,1503.976Z" transform="translate(1 0.59)" fill="#333"/>
    <path id="Path_11246" data-name="Path 11246" d="M957.384,1513h5.888v-1.04H958.92l4.288-5.776v-.912h-5.824v1.056h4.256l-4.256,5.744Z" transform="translate(1 0.59)" fill="#333"/>
    <path id="Path_11247" data-name="Path 11247" d="M970.456,1511.368a2.588,2.588,0,0,1-2.128.96,1.7,1.7,0,1,1,0-3.376,2.588,2.588,0,0,1,2.128.96Zm0,1.632h1.2v-5.312c0-1.872-1.36-2.608-2.992-2.608a4.045,4.045,0,0,0-3.088,1.28l.56.832a3.07,3.07,0,0,1,2.368-1.072c1.12,0,1.952.592,1.952,1.632v1.392a3.231,3.231,0,0,0-2.56-1.056,2.531,2.531,0,0,0-2.7,2.544,2.573,2.573,0,0,0,2.7,2.56,3.343,3.343,0,0,0,2.56-1.072Z" transform="translate(1 0.59)" fill="#333"/>
    <path id="Path_11248" data-name="Path 11248" d="M976.328,1513.192a1.962,1.962,0,0,0,1.44-.5l-.352-.9a1.158,1.158,0,0,1-.816.32c-.528,0-.784-.416-.784-.992v-4.8h1.568v-1.056h-1.568v-2.112h-1.2v2.112h-1.28v1.056h1.28v5.056A1.581,1.581,0,0,0,976.328,1513.192Z" transform="translate(1 0.59)" fill="#333"/>
    <path id="Path_11249" data-name="Path 11249" d="M979.4,1513h1.2v-7.728h-1.2Zm.592-9.024a.819.819,0,0,0,.816-.816.808.808,0,0,0-1.616,0A.816.816,0,0,0,979.992,1503.976Z" transform="translate(1 0.59)" fill="#333"/>
    <path id="Path_11250" data-name="Path 11250" d="M986.7,1512.12a3.016,3.016,0,0,1,0-5.968c1.648,0,2.56,1.408,2.56,2.976C989.256,1510.712,988.344,1512.12,986.7,1512.12Zm0,1.072a4.063,4.063,0,1,0-3.824-4.064A3.8,3.8,0,0,0,986.7,1513.192Z" transform="translate(1 0.59)" fill="#333"/>
    <path id="Path_11251" data-name="Path 11251" d="M998.008,1513h1.2v-5.424a2.2,2.2,0,0,0-2.464-2.5,3.833,3.833,0,0,0-2.752,1.312v-1.12h-1.2V1513h1.2v-5.648a2.984,2.984,0,0,1,2.288-1.2c1.04,0,1.728.432,1.728,1.792Z" transform="translate(1 0.59)" fill="#333"/>
    <path id="Path_11252" data-name="Path 11252" d="M930.728,1525.544a1.984,1.984,0,0,1-2.128,2.032h-2.8v-4.064h2.8A1.984,1.984,0,0,1,930.728,1525.544ZM924.472,1533H925.8v-4.24h2.96a3.218,3.218,0,1,0,0-6.432h-4.288Z" transform="translate(1 0.59)" fill="#333"/>
    <path id="Path_11253" data-name="Path 11253" d="M934.136,1533h1.2v-5.472a2.827,2.827,0,0,1,2.1-1.232,2.116,2.116,0,0,1,.48.048v-1.232a3.285,3.285,0,0,0-2.576,1.408v-1.248h-1.2Z" transform="translate(1 0.59)" fill="#333"/>
    <path id="Path_11254" data-name="Path 11254" d="M943.112,1532.12a3.016,3.016,0,0,1,0-5.968c1.648,0,2.56,1.408,2.56,2.976C945.672,1530.712,944.76,1532.12,943.112,1532.12Zm0,1.072a4.063,4.063,0,1,0-3.824-4.064A3.8,3.8,0,0,0,943.112,1533.192Z" transform="translate(1 0.59)" fill="#333"/>
    <path id="Path_11255" data-name="Path 11255" d="M948.76,1529.128a3.822,3.822,0,0,0,3.856,4.064,3.308,3.308,0,0,0,2.832-1.344l-.8-.736a2.33,2.33,0,0,1-1.968,1.008,3,3,0,0,1,0-5.968,2.292,2.292,0,0,1,1.968,1.008l.8-.736a3.308,3.308,0,0,0-2.832-1.344A3.818,3.818,0,0,0,948.76,1529.128Z" transform="translate(1 0.59)" fill="#333"/>
    <path id="Path_11256" data-name="Path 11256" d="M960.792,1526.072a2.5,2.5,0,0,1,2.544,2.576h-5.072A2.578,2.578,0,0,1,960.792,1526.072ZM957,1529.128a3.832,3.832,0,0,0,3.936,4.064,4.2,4.2,0,0,0,3.072-1.184l-.576-.784a3.378,3.378,0,0,1-2.384.976,2.723,2.723,0,0,1-2.784-2.672h6.256v-.3c0-2.32-1.376-4.144-3.712-4.144A3.864,3.864,0,0,0,957,1529.128Z" transform="translate(1 0.59)" fill="#333"/>
    <path id="Path_11257" data-name="Path 11257" d="M966.1,1531.976a4.111,4.111,0,0,0,3.12,1.216c2,0,3.04-1.04,3.04-2.336,0-1.712-1.552-2.1-2.9-2.4-1.008-.24-1.888-.48-1.888-1.232,0-.688.656-1.168,1.712-1.168a3.011,3.011,0,0,1,2.3.976l.56-.832a3.911,3.911,0,0,0-2.864-1.12c-1.84,0-2.88,1.024-2.88,2.224,0,1.6,1.488,1.952,2.8,2.256,1.04.256,1.984.528,1.984,1.376,0,.752-.64,1.28-1.824,1.28a3.5,3.5,0,0,1-2.544-1.1Z" transform="translate(1 0.59)" fill="#333"/>
    <path id="Path_11258" data-name="Path 11258" d="M973.864,1531.976a4.111,4.111,0,0,0,3.12,1.216c2,0,3.04-1.04,3.04-2.336,0-1.712-1.552-2.1-2.9-2.4-1.008-.24-1.888-.48-1.888-1.232,0-.688.656-1.168,1.712-1.168a3.011,3.011,0,0,1,2.3.976l.56-.832a3.911,3.911,0,0,0-2.864-1.12c-1.84,0-2.88,1.024-2.88,2.224,0,1.6,1.488,1.952,2.8,2.256,1.04.256,1.984.528,1.984,1.376,0,.752-.64,1.28-1.824,1.28a3.5,3.5,0,0,1-2.544-1.1Z" transform="translate(1 0.59)" fill="#333"/>
    <path id="Path_11259" data-name="Path 11259" d="M929.816,1285.512l2.3,5.936H927.5Zm3.648,9.488h1.472l-4.3-10.672h-1.648L924.7,1295h1.472l.944-2.368h5.408Z" transform="translate(1 0.59)" fill="#333"/>
    <path id="Path_11260" data-name="Path 11260" d="M942.184,1292.776a2.861,2.861,0,0,1-2.3,1.264c-1.552,0-2.48-1.248-2.48-2.944,0-1.712.928-2.944,2.48-2.944a2.847,2.847,0,0,1,2.3,1.248Zm-5.6,4.208a3.949,3.949,0,0,0,3.12,1.152c1.888,0,3.68-.8,3.68-3.36v-7.5h-1.2v1.168a3.2,3.2,0,0,0-2.592-1.36c-2.032,0-3.44,1.536-3.44,4.016,0,2.5,1.424,4,3.44,4a3.228,3.228,0,0,0,2.592-1.376v1.1a2.213,2.213,0,0,1-2.48,2.32,2.951,2.951,0,0,1-2.512-1.056Z" transform="translate(1 0.59)" fill="#333"/>
    <path id="Path_11261" data-name="Path 11261" d="M949.448,1288.072a2.5,2.5,0,0,1,2.544,2.576H946.92A2.578,2.578,0,0,1,949.448,1288.072Zm-3.792,3.056a3.832,3.832,0,0,0,3.936,4.064,4.2,4.2,0,0,0,3.072-1.184l-.576-.784a3.378,3.378,0,0,1-2.384.976,2.723,2.723,0,0,1-2.784-2.672h6.256v-.3c0-2.32-1.376-4.144-3.712-4.144A3.864,3.864,0,0,0,945.656,1291.128Z" transform="translate(1 0.59)" fill="#333"/>
    <path id="Path_11262" data-name="Path 11262" d="M960.648,1295h1.2v-5.424a2.2,2.2,0,0,0-2.464-2.5,3.833,3.833,0,0,0-2.752,1.312v-1.12h-1.2V1295h1.2v-5.648a2.984,2.984,0,0,1,2.288-1.2c1.04,0,1.728.432,1.728,1.792Z" transform="translate(1 0.59)" fill="#333"/>
    <path id="Path_11263" data-name="Path 11263" d="M964.12,1291.128a3.822,3.822,0,0,0,3.856,4.064,3.308,3.308,0,0,0,2.832-1.344l-.8-.736a2.33,2.33,0,0,1-1.968,1.008,3,3,0,0,1,0-5.968,2.292,2.292,0,0,1,1.968,1.008l.8-.736a3.308,3.308,0,0,0-2.832-1.344A3.818,3.818,0,0,0,964.12,1291.128Z" transform="translate(1 0.59)" fill="#333"/>
    <path id="Path_11264" data-name="Path 11264" d="M972.568,1296.936l-.192,1.088a3.9,3.9,0,0,0,.88.112,2.3,2.3,0,0,0,2.272-1.568l3.872-9.3h-1.312l-2.56,6.336-2.576-6.336h-1.3l3.232,7.808-.512,1.168a1.111,1.111,0,0,1-1.152.816A1.841,1.841,0,0,1,972.568,1296.936Z" transform="translate(1 0.59)" fill="#333"/>
    <path id="Path_11265" data-name="Path 11265" d="M908.856,1305.512l2.3,5.936h-4.624ZM912.5,1315h1.472l-4.3-10.672h-1.648L903.736,1315h1.472l.944-2.368h5.408Z" transform="translate(1 0.59)" fill="#333"/>
    <path id="Path_11266" data-name="Path 11266" d="M920.664,1315h1.2v-7.728h-1.2v5.68a2.956,2.956,0,0,1-2.288,1.168c-1.04,0-1.728-.4-1.728-1.76v-5.088h-1.2v5.456a2.174,2.174,0,0,0,2.464,2.464,3.78,3.78,0,0,0,2.752-1.28Z" transform="translate(1 0.59)" fill="#333"/>
    <path id="Path_11267" data-name="Path 11267" d="M926.536,1315.192a1.962,1.962,0,0,0,1.44-.5l-.352-.9a1.158,1.158,0,0,1-.816.32c-.528,0-.784-.416-.784-.992v-4.8h1.568v-1.056h-1.568v-2.112h-1.2v2.112h-1.28v1.056h1.28v5.056A1.581,1.581,0,0,0,926.536,1315.192Z" transform="translate(1 0.59)" fill="#333"/>
    <path id="Path_11268" data-name="Path 11268" d="M934.84,1315h1.2v-5.456a2.174,2.174,0,0,0-2.464-2.464,3.84,3.84,0,0,0-2.768,1.312v-4.064h-1.2V1315h1.2v-5.648a3.037,3.037,0,0,1,2.288-1.2c1.04,0,1.744.4,1.744,1.76Z" transform="translate(1 0.59)" fill="#333"/>
    <path id="Path_11269" data-name="Path 11269" d="M942.136,1314.12a3.016,3.016,0,0,1,0-5.968c1.648,0,2.56,1.408,2.56,2.976C944.7,1312.712,943.784,1314.12,942.136,1314.12Zm0,1.072a4.063,4.063,0,1,0-3.824-4.064A3.8,3.8,0,0,0,942.136,1315.192Z" transform="translate(1 0.59)" fill="#333"/>
    <path id="Path_11270" data-name="Path 11270" d="M948.232,1315h1.2v-5.472a2.827,2.827,0,0,1,2.1-1.232,2.116,2.116,0,0,1,.48.048v-1.232a3.285,3.285,0,0,0-2.576,1.408v-1.248h-1.2Z" transform="translate(1 0.59)" fill="#333"/>
    <path id="Path_11271" data-name="Path 11271" d="M953.832,1315h1.2v-7.728h-1.2Zm.592-9.024a.819.819,0,0,0,.816-.816.808.808,0,0,0-1.616,0A.816.816,0,0,0,954.424,1305.976Z" transform="translate(1 0.59)" fill="#333"/>
    <path id="Path_11272" data-name="Path 11272" d="M957.384,1315h5.888v-1.04H958.92l4.288-5.776v-.912h-5.824v1.056h4.256l-4.256,5.744Z" transform="translate(1 0.59)" fill="#333"/>
    <path id="Path_11273" data-name="Path 11273" d="M970.456,1313.368a2.588,2.588,0,0,1-2.128.96,1.7,1.7,0,1,1,0-3.376,2.588,2.588,0,0,1,2.128.96Zm0,1.632h1.2v-5.312c0-1.872-1.36-2.608-2.992-2.608a4.045,4.045,0,0,0-3.088,1.28l.56.832a3.07,3.07,0,0,1,2.368-1.072c1.12,0,1.952.592,1.952,1.632v1.392a3.231,3.231,0,0,0-2.56-1.056,2.531,2.531,0,0,0-2.7,2.544,2.573,2.573,0,0,0,2.7,2.56,3.343,3.343,0,0,0,2.56-1.072Z" transform="translate(1 0.59)" fill="#333"/>
    <path id="Path_11274" data-name="Path 11274" d="M976.328,1315.192a1.962,1.962,0,0,0,1.44-.5l-.352-.9a1.158,1.158,0,0,1-.816.32c-.528,0-.784-.416-.784-.992v-4.8h1.568v-1.056h-1.568v-2.112h-1.2v2.112h-1.28v1.056h1.28v5.056A1.581,1.581,0,0,0,976.328,1315.192Z" transform="translate(1 0.59)" fill="#333"/>
    <path id="Path_11275" data-name="Path 11275" d="M979.4,1315h1.2v-7.728h-1.2Zm.592-9.024a.819.819,0,0,0,.816-.816.808.808,0,0,0-1.616,0A.816.816,0,0,0,979.992,1305.976Z" transform="translate(1 0.59)" fill="#333"/>
    <path id="Path_11276" data-name="Path 11276" d="M986.7,1314.12a3.016,3.016,0,0,1,0-5.968c1.648,0,2.56,1.408,2.56,2.976C989.256,1312.712,988.344,1314.12,986.7,1314.12Zm0,1.072a4.063,4.063,0,1,0-3.824-4.064A3.8,3.8,0,0,0,986.7,1315.192Z" transform="translate(1 0.59)" fill="#333"/>
    <path id="Path_11277" data-name="Path 11277" d="M998.008,1315h1.2v-5.424a2.2,2.2,0,0,0-2.464-2.5,3.833,3.833,0,0,0-2.752,1.312v-1.12h-1.2V1315h1.2v-5.648a2.984,2.984,0,0,1,2.288-1.2c1.04,0,1.728.432,1.728,1.792Z" transform="translate(1 0.59)" fill="#333"/>
    <path id="Path_11278" data-name="Path 11278" d="M930.728,1327.544a1.984,1.984,0,0,1-2.128,2.032h-2.8v-4.064h2.8A1.984,1.984,0,0,1,930.728,1327.544ZM924.472,1335H925.8v-4.24h2.96a3.218,3.218,0,1,0,0-6.432h-4.288Z" transform="translate(1 0.59)" fill="#333"/>
    <path id="Path_11279" data-name="Path 11279" d="M934.136,1335h1.2v-5.472a2.827,2.827,0,0,1,2.1-1.232,2.116,2.116,0,0,1,.48.048v-1.232a3.285,3.285,0,0,0-2.576,1.408v-1.248h-1.2Z" transform="translate(1 0.59)" fill="#333"/>
    <path id="Path_11280" data-name="Path 11280" d="M943.112,1334.12a3.016,3.016,0,0,1,0-5.968c1.648,0,2.56,1.408,2.56,2.976C945.672,1332.712,944.76,1334.12,943.112,1334.12Zm0,1.072a4.063,4.063,0,1,0-3.824-4.064A3.8,3.8,0,0,0,943.112,1335.192Z" transform="translate(1 0.59)" fill="#333"/>
    <path id="Path_11281" data-name="Path 11281" d="M948.76,1331.128a3.822,3.822,0,0,0,3.856,4.064,3.308,3.308,0,0,0,2.832-1.344l-.8-.736a2.33,2.33,0,0,1-1.968,1.008,3,3,0,0,1,0-5.968,2.292,2.292,0,0,1,1.968,1.008l.8-.736a3.308,3.308,0,0,0-2.832-1.344A3.818,3.818,0,0,0,948.76,1331.128Z" transform="translate(1 0.59)" fill="#333"/>
    <path id="Path_11282" data-name="Path 11282" d="M960.792,1328.072a2.5,2.5,0,0,1,2.544,2.576h-5.072A2.578,2.578,0,0,1,960.792,1328.072ZM957,1331.128a3.832,3.832,0,0,0,3.936,4.064,4.2,4.2,0,0,0,3.072-1.184l-.576-.784a3.378,3.378,0,0,1-2.384.976,2.723,2.723,0,0,1-2.784-2.672h6.256v-.3c0-2.32-1.376-4.144-3.712-4.144A3.864,3.864,0,0,0,957,1331.128Z" transform="translate(1 0.59)" fill="#333"/>
    <path id="Path_11283" data-name="Path 11283" d="M966.1,1333.976a4.111,4.111,0,0,0,3.12,1.216c2,0,3.04-1.04,3.04-2.336,0-1.712-1.552-2.1-2.9-2.4-1.008-.24-1.888-.48-1.888-1.232,0-.688.656-1.168,1.712-1.168a3.011,3.011,0,0,1,2.3.976l.56-.832a3.911,3.911,0,0,0-2.864-1.12c-1.84,0-2.88,1.024-2.88,2.224,0,1.6,1.488,1.952,2.8,2.256,1.04.256,1.984.528,1.984,1.376,0,.752-.64,1.28-1.824,1.28a3.5,3.5,0,0,1-2.544-1.1Z" transform="translate(1 0.59)" fill="#333"/>
    <path id="Path_11284" data-name="Path 11284" d="M973.864,1333.976a4.111,4.111,0,0,0,3.12,1.216c2,0,3.04-1.04,3.04-2.336,0-1.712-1.552-2.1-2.9-2.4-1.008-.24-1.888-.48-1.888-1.232,0-.688.656-1.168,1.712-1.168a3.011,3.011,0,0,1,2.3.976l.56-.832a3.911,3.911,0,0,0-2.864-1.12c-1.84,0-2.88,1.024-2.88,2.224,0,1.6,1.488,1.952,2.8,2.256,1.04.256,1.984.528,1.984,1.376,0,.752-.64,1.28-1.824,1.28a3.5,3.5,0,0,1-2.544-1.1Z" transform="translate(1 0.59)" fill="#333"/>
    <path id="Path_11285" data-name="Path 11285" d="M163,1491H301a20,20,0,0,1,0,40H163a20,20,0,0,1,0-40Zm0,1a19,19,0,1,0,0,38H301a19,19,0,1,0,0-38H163" transform="translate(1 0.59)" fill="#cc1d1d"/>
    <text id="J" transform="translate(182 1516.59)" fill="#cc1d1d" font-size="14" font-family="Muli-Black, Muli" font-weight="800"><tspan x="0" y="0">J</tspan></text>
    <text id="A" transform="translate(188.062 1516.59)" fill="#cc1d1d" font-size="14" font-family="Muli-Black, Muli" font-weight="800"><tspan x="0" y="0">A</tspan></text>
    <text id="B" transform="translate(199.248 1516.59)" fill="#cc1d1d" font-size="14" font-family="Muli-Black, Muli" font-weight="800"><tspan x="0" y="0">B</tspan></text>
    <text id="_" data-name=" " transform="translate(209.496 1516.59)" fill="#cc1d1d" font-size="14" font-family="Muli-Black, Muli" font-weight="800"><tspan x="0" y="0"> </tspan></text>
    <text id="P" transform="translate(213.976 1516.59)" fill="#cc1d1d" font-size="14" font-family="Muli-Black, Muli" font-weight="800"><tspan x="0" y="0">P</tspan></text>
    <text id="R" transform="translate(223.986 1516.59)" fill="#cc1d1d" font-size="14" font-family="Muli-Black, Muli" font-weight="800"><tspan x="0" y="0">R</tspan></text>
    <text id="O" transform="translate(234.332 1516.59)" fill="#cc1d1d" font-size="14" font-family="Muli-Black, Muli" font-weight="800"><tspan x="0" y="0">O</tspan></text>
    <text id="C" transform="translate(246.022 1516.59)" fill="#cc1d1d" font-size="14" font-family="Muli-Black, Muli" font-weight="800"><tspan x="0" y="0">C</tspan></text>
    <text id="E" transform="translate(256.032 1516.59)" fill="#cc1d1d" font-size="14" font-family="Muli-Black, Muli" font-weight="800"><tspan x="0" y="0">E</tspan></text>
    <text id="S" transform="translate(264.768 1516.59)" fill="#cc1d1d" font-size="14" font-family="Muli-Black, Muli" font-weight="800"><tspan x="0" y="0">S</tspan></text>
    <text id="S-2" data-name="S" transform="translate(274.596 1516.59)" fill="#cc1d1d" font-size="14" font-family="Muli-Black, Muli" font-weight="800"><tspan x="0" y="0">S</tspan></text>
    <path id="Path_11286" data-name="Path 11286" d="M143.5,1306q0-.959.094-1.911t.281-1.893q.186-.941.465-1.857t.644-1.8q.368-.885.819-1.73t.983-1.642q.533-.8,1.14-1.537t1.285-1.418q.678-.677,1.418-1.285t1.537-1.14q.8-.531,1.642-.984t1.73-.818q.885-.366,1.8-.644t1.857-.465q.939-.187,1.893-.281T163,1286.5H301q.959,0,1.911.094t1.893.281q.941.186,1.857.465t1.8.644q.885.367,1.73.818t1.642.984q.8.532,1.537,1.14t1.418,1.285q.676.678,1.285,1.418t1.14,1.537q.531.8.983,1.642t.819,1.73q.366.885.644,1.8t.465,1.857q.188.939.281,1.893T320.5,1306q0,.959-.094,1.911t-.281,1.893q-.186.941-.465,1.857t-.644,1.8q-.367.885-.819,1.73t-.983,1.641q-.532.8-1.14,1.538t-1.285,1.418q-.678.677-1.418,1.285t-1.537,1.14q-.8.531-1.642.983t-1.73.819q-.885.366-1.8.644t-1.857.465q-.939.188-1.893.281T301,1325.5H163q-.959,0-1.911-.094t-1.893-.281q-.94-.186-1.857-.465t-1.8-.644q-.885-.367-1.73-.819t-1.642-.983q-.8-.532-1.537-1.14t-1.418-1.285q-.677-.678-1.285-1.418t-1.14-1.538q-.531-.8-.983-1.641t-.819-1.73q-.366-.885-.644-1.8t-.465-1.857q-.187-.939-.281-1.893T143.5,1306Z" transform="translate(1 0.59)" fill="none" stroke="#1a4480" stroke-width="1"/>
    <text id="A-2" data-name="A" transform="translate(165 1311.59)" fill="#1a4480" font-size="14" font-family="Muli-Black, Muli" font-weight="800"><tspan x="0" y="0">A</tspan></text>
    <text id="G" transform="translate(175.92 1311.59)" fill="#1a4480" font-size="14" font-family="Muli-Black, Muli" font-weight="800"><tspan x="0" y="0">G</tspan></text>
    <text id="E-2" data-name="E" transform="translate(186.854 1311.59)" fill="#1a4480" font-size="14" font-family="Muli-Black, Muli" font-weight="800"><tspan x="0" y="0">E</tspan></text>
    <text id="N" transform="translate(195.73 1311.59)" fill="#1a4480" font-size="14" font-family="Muli-Black, Muli" font-weight="800"><tspan x="0" y="0">N</tspan></text>
    <text id="C-2" data-name="C" transform="translate(206.874 1311.59)" fill="#1a4480" font-size="14" font-family="Muli-Black, Muli" font-weight="800"><tspan x="0" y="0">C</tspan></text>
    <text id="Y" transform="translate(216.772 1311.59)" fill="#1a4480" font-size="14" font-family="Muli-Black, Muli" font-weight="800"><tspan x="0" y="0">Y</tspan></text>
    <text id="_2" data-name=" " transform="translate(226.39 1311.59)" fill="#1a4480" font-size="14" font-family="Muli-Black, Muli" font-weight="800"><tspan x="0" y="0"> </tspan></text>
    <text id="P-2" data-name="P" transform="translate(230.87 1311.59)" fill="#1a4480" font-size="14" font-family="Muli-Black, Muli" font-weight="800"><tspan x="0" y="0">P</tspan></text>
    <text id="R-2" data-name="R" transform="translate(240.88 1311.59)" fill="#1a4480" font-size="14" font-family="Muli-Black, Muli" font-weight="800"><tspan x="0" y="0">R</tspan></text>
    <text id="O-2" data-name="O" transform="translate(251.226 1311.59)" fill="#1a4480" font-size="14" font-family="Muli-Black, Muli" font-weight="800"><tspan x="0" y="0">O</tspan></text>
    <text id="C-3" data-name="C" transform="translate(262.916 1311.59)" fill="#1a4480" font-size="14" font-family="Muli-Black, Muli" font-weight="800"><tspan x="0" y="0">C</tspan></text>
    <text id="E-3" data-name="E" transform="translate(272.926 1311.59)" fill="#1a4480" font-size="14" font-family="Muli-Black, Muli" font-weight="800"><tspan x="0" y="0">E</tspan></text>
    <text id="S-3" data-name="S" transform="translate(281.662 1311.59)" fill="#1a4480" font-size="14" font-family="Muli-Black, Muli" font-weight="800"><tspan x="0" y="0">S</tspan></text>
    <text id="S-4" data-name="S" transform="translate(291.49 1311.59)" fill="#1a4480" font-size="14" font-family="Muli-Black, Muli" font-weight="800"><tspan x="0" y="0">S</tspan></text>
    <path id="Path_11287" data-name="Path 11287" d="M654.852,1438.782H351l12.577-29.854L351,1379H654.852l12.577,29.927Z" transform="translate(1 0.59)" fill="#1294c2"/>
    <path id="Path_11288" data-name="Path 11288" d="M206.352,1402.308a6.918,6.918,0,0,0,5.094,1.908c3.24,0,4.806-1.656,4.806-3.852,0-2.664-2.52-3.258-4.5-3.708-1.386-.324-2.394-.576-2.394-1.386,0-.72.612-1.224,1.764-1.224a5.122,5.122,0,0,1,3.438,1.314l1.422-1.872a6.678,6.678,0,0,0-4.68-1.674c-2.826,0-4.554,1.62-4.554,3.618,0,2.682,2.52,3.222,4.482,3.672,1.386.324,2.43.63,2.43,1.53,0,.684-.684,1.35-2.088,1.35a5.264,5.264,0,0,1-3.816-1.62Z" transform="translate(1 0.59)" fill="#fff"/>
    <path id="Path_11289" data-name="Path 11289" d="M222.048,1396.908a2.014,2.014,0,0,1,2.142,1.926h-4.284A2.089,2.089,0,0,1,222.048,1396.908Zm-4.5,2.736a4.4,4.4,0,0,0,4.644,4.572,5.419,5.419,0,0,0,3.582-1.206l-1.008-1.476a3.556,3.556,0,0,1-2.322.864,2.343,2.343,0,0,1-2.5-2.016H226.4v-.5c0-2.844-1.764-4.788-4.356-4.788A4.425,4.425,0,0,0,217.548,1399.644Z" transform="translate(1 0.59)" fill="#fff"/>
    <rect id="Rectangle_2953" data-name="Rectangle 2953" width="2.286" height="12.006" transform="translate(229.24 1392.584)" fill="#fff"/>
    <path id="Path_11290" data-name="Path 11290" d="M236.916,1396.908a2.014,2.014,0,0,1,2.142,1.926h-4.284A2.089,2.089,0,0,1,236.916,1396.908Zm-4.5,2.736a4.4,4.4,0,0,0,4.644,4.572,5.419,5.419,0,0,0,3.582-1.206l-1.008-1.476a3.556,3.556,0,0,1-2.322.864,2.343,2.343,0,0,1-2.5-2.016h6.462v-.5c0-2.844-1.764-4.788-4.356-4.788A4.425,4.425,0,0,0,232.416,1399.644Z" transform="translate(1 0.59)" fill="#fff"/>
    <path id="Path_11291" data-name="Path 11291" d="M242.55,1399.644a4.414,4.414,0,0,0,4.608,4.572,4.007,4.007,0,0,0,3.438-1.584l-1.494-1.386a2.194,2.194,0,0,1-1.836.936,2.535,2.535,0,0,1,0-5.058,2.108,2.108,0,0,1,1.836.936l1.494-1.4a4.046,4.046,0,0,0-3.438-1.566A4.41,4.41,0,0,0,242.55,1399.644Z" transform="translate(1 0.59)" fill="#fff"/>
    <path id="Path_11292" data-name="Path 11292" d="M255.186,1404.216a2.822,2.822,0,0,0,1.908-.558l-.486-1.728a1.249,1.249,0,0,1-.792.252c-.5,0-.792-.414-.792-.954V1397.3h1.764v-2h-1.764v-2.376h-2.3v2.376h-1.44v2h1.44v4.536A2.173,2.173,0,0,0,255.186,1404.216Z" transform="translate(1 0.59)" fill="#fff"/>
    <path id="Path_11293" data-name="Path 11293" d="M162.657,1415.208l1.98,5.508h-3.978ZM166.1,1425h2.79l-4.626-12.006h-3.2L156.411,1425h2.808l.756-2.07h5.364Z" transform="translate(1 0.59)" fill="#fff"/>
    <path id="Path_11294" data-name="Path 11294" d="M175.743,1425h2.286v-8.694h-2.286v5.886a2.559,2.559,0,0,1-1.98.99,1.4,1.4,0,0,1-1.6-1.6v-5.274h-2.286v6.174a2.49,2.49,0,0,0,2.808,2.736,4.069,4.069,0,0,0,3.06-1.314Z" transform="translate(1 0.59)" fill="#fff"/>
    <path id="Path_11295" data-name="Path 11295" d="M183.393,1425.216a2.822,2.822,0,0,0,1.908-.558l-.486-1.728a1.249,1.249,0,0,1-.792.252c-.5,0-.792-.414-.792-.954V1418.3h1.764v-2h-1.764v-2.376h-2.3v2.376h-1.44v2h1.44v4.536A2.173,2.173,0,0,0,183.393,1425.216Z" transform="translate(1 0.59)" fill="#fff"/>
    <path id="Path_11296" data-name="Path 11296" d="M192.627,1425h2.286v-6.174a2.5,2.5,0,0,0-2.826-2.736,4.023,4.023,0,0,0-3.06,1.35v-4.446h-2.286V1425h2.286v-5.85a2.533,2.533,0,0,1,1.98-1.026c.99,0,1.62.378,1.62,1.584Z" transform="translate(1 0.59)" fill="#fff"/>
    <path id="Path_11297" data-name="Path 11297" d="M201.393,1423.182a2.549,2.549,0,1,1,2.232-2.538A2.287,2.287,0,0,1,201.393,1423.182Zm0,2.034a4.563,4.563,0,1,0-4.59-4.572A4.412,4.412,0,0,0,201.393,1425.216Z" transform="translate(1 0.59)" fill="#fff"/>
    <path id="Path_11298" data-name="Path 11298" d="M207.873,1425h2.286v-5.742a2.808,2.808,0,0,1,2.772-.918v-2.232a3.719,3.719,0,0,0-2.772,1.386v-1.188h-2.286Z" transform="translate(1 0.59)" fill="#fff"/>
    <path id="Path_11299" data-name="Path 11299" d="M214.533,1425h2.286v-8.694h-2.286Zm1.134-9.972a1.368,1.368,0,1,0-1.368-1.368A1.367,1.367,0,0,0,215.667,1415.028Z" transform="translate(1 0.59)" fill="#fff"/>
    <path id="Path_11300" data-name="Path 11300" d="M218.889,1425h7.092v-2h-4.05l3.978-5.04v-1.656h-7.02v2h3.924l-3.924,4.986Z" transform="translate(1 0.59)" fill="#fff"/>
    <path id="Path_11301" data-name="Path 11301" d="M233.289,1422.912a2.286,2.286,0,0,1-1.836.756c-.9,0-1.638-.468-1.638-1.278,0-.846.738-1.314,1.638-1.314a2.286,2.286,0,0,1,1.836.756Zm0,2.088h2.286v-5.616c0-2.5-1.818-3.294-3.8-3.294a5.7,5.7,0,0,0-3.8,1.368l.864,1.53a3.658,3.658,0,0,1,2.538-1.026c1.152,0,1.908.576,1.908,1.458v1.206a3.514,3.514,0,0,0-2.754-1.062,2.753,2.753,0,0,0-3.024,2.772,2.9,2.9,0,0,0,3.024,2.88,3.6,3.6,0,0,0,2.754-1.116Z" transform="translate(1 0.59)" fill="#fff"/>
    <path id="Path_11302" data-name="Path 11302" d="M240.939,1425.216a2.822,2.822,0,0,0,1.908-.558l-.486-1.728a1.249,1.249,0,0,1-.792.252c-.5,0-.792-.414-.792-.954V1418.3h1.764v-2h-1.764v-2.376h-2.3v2.376h-1.44v2h1.44v4.536A2.173,2.173,0,0,0,240.939,1425.216Z" transform="translate(1 0.59)" fill="#fff"/>
    <path id="Path_11303" data-name="Path 11303" d="M244.287,1425h2.286v-8.694h-2.286Zm1.134-9.972a1.368,1.368,0,1,0-1.368-1.368A1.367,1.367,0,0,0,245.421,1415.028Z" transform="translate(1 0.59)" fill="#fff"/>
    <path id="Path_11304" data-name="Path 11304" d="M253.053,1423.182a2.549,2.549,0,1,1,2.232-2.538A2.287,2.287,0,0,1,253.053,1423.182Zm0,2.034a4.563,4.563,0,1,0-4.59-4.572A4.412,4.412,0,0,0,253.053,1425.216Z" transform="translate(1 0.59)" fill="#fff"/>
    <path id="Path_11305" data-name="Path 11305" d="M265.4,1425h2.286v-6.138a2.529,2.529,0,0,0-2.826-2.772,3.981,3.981,0,0,0-3.042,1.35v-1.134h-2.286V1425h2.286v-5.85a2.476,2.476,0,0,1,1.98-1.026,1.411,1.411,0,0,1,1.6,1.62Z" transform="translate(1 0.59)" fill="#fff"/>
    <path id="Path_11306" data-name="Path 11306" d="M282.015,1416.846a1.636,1.636,0,0,1-1.764,1.656h-2.718v-3.312h2.718A1.647,1.647,0,0,1,282.015,1416.846ZM274.977,1425h2.556v-4.3h3.06a3.856,3.856,0,1,0,0-7.7h-5.616Z" transform="translate(1 0.59)" fill="#fff"/>
    <path id="Path_11307" data-name="Path 11307" d="M291.2,1422.912a2.286,2.286,0,0,1-1.836.756c-.9,0-1.638-.468-1.638-1.278,0-.846.738-1.314,1.638-1.314a2.286,2.286,0,0,1,1.836.756Zm0,2.088h2.286v-5.616c0-2.5-1.818-3.294-3.8-3.294a5.7,5.7,0,0,0-3.8,1.368l.864,1.53a3.658,3.658,0,0,1,2.538-1.026c1.152,0,1.908.576,1.908,1.458v1.206a3.514,3.514,0,0,0-2.754-1.062,2.753,2.753,0,0,0-3.024,2.772,2.9,2.9,0,0,0,3.024,2.88,3.6,3.6,0,0,0,2.754-1.116Z" transform="translate(1 0.59)" fill="#fff"/>
    <path id="Path_11308" data-name="Path 11308" d="M298.845,1425.216a2.822,2.822,0,0,0,1.908-.558l-.486-1.728a1.249,1.249,0,0,1-.792.252c-.5,0-.792-.414-.792-.954V1418.3h1.764v-2h-1.764v-2.376h-2.3v2.376h-1.44v2h1.44v4.536A2.173,2.173,0,0,0,298.845,1425.216Z" transform="translate(1 0.59)" fill="#fff"/>
    <path id="Path_11309" data-name="Path 11309" d="M308.079,1425h2.286v-6.174a2.5,2.5,0,0,0-2.826-2.736,4.023,4.023,0,0,0-3.06,1.35v-4.446h-2.286V1425h2.286v-5.85a2.533,2.533,0,0,1,1.98-1.026c.99,0,1.62.378,1.62,1.584Z" transform="translate(1 0.59)" fill="#fff"/>
    <path id="Path_11310" data-name="Path 11310" d="M467.518,1406.846a1.636,1.636,0,0,1-1.764,1.656h-2.718v-3.312h2.718A1.647,1.647,0,0,1,467.518,1406.846ZM460.48,1415h2.556v-4.3h3.06a3.856,3.856,0,1,0,0-7.7H460.48Z" transform="translate(1 0.59)" fill="#fff"/>
    <path id="Path_11311" data-name="Path 11311" d="M471.838,1415h2.286v-5.742a2.808,2.808,0,0,1,2.772-.918v-2.232a3.719,3.719,0,0,0-2.772,1.386v-1.188h-2.286Z" transform="translate(1 0.59)" fill="#fff"/>
    <path id="Path_11312" data-name="Path 11312" d="M482.44,1407.908a2.014,2.014,0,0,1,2.142,1.926H480.3A2.089,2.089,0,0,1,482.44,1407.908Zm-4.5,2.736a4.4,4.4,0,0,0,4.644,4.572,5.419,5.419,0,0,0,3.582-1.206l-1.008-1.476a3.556,3.556,0,0,1-2.322.864,2.343,2.343,0,0,1-2.5-2.016H486.8v-.5c0-2.844-1.764-4.788-4.356-4.788A4.425,4.425,0,0,0,477.94,1410.644Z" transform="translate(1 0.59)" fill="#fff"/>
    <path id="Path_11313" data-name="Path 11313" d="M495.076,1410.644a2.26,2.26,0,0,1-2.2,2.538,2.618,2.618,0,0,1-1.962-.99v-3.078a2.56,2.56,0,0,1,1.962-.99A2.254,2.254,0,0,1,495.076,1410.644Zm-4.158,7.668v-4.428a3.322,3.322,0,0,0,2.682,1.332c2.232,0,3.852-1.674,3.852-4.572s-1.62-4.554-3.852-4.554a3.358,3.358,0,0,0-2.682,1.314v-1.1h-2.286v12.006Z" transform="translate(1 0.59)" fill="#fff"/>
    <path id="Path_11314" data-name="Path 11314" d="M504.562,1412.912a2.286,2.286,0,0,1-1.836.756c-.9,0-1.638-.468-1.638-1.278,0-.846.738-1.314,1.638-1.314a2.286,2.286,0,0,1,1.836.756Zm0,2.088h2.286v-5.616c0-2.5-1.818-3.294-3.8-3.294a5.7,5.7,0,0,0-3.8,1.368l.864,1.53a3.658,3.658,0,0,1,2.538-1.026c1.152,0,1.908.576,1.908,1.458v1.206a3.514,3.514,0,0,0-2.754-1.062,2.753,2.753,0,0,0-3.024,2.772,2.9,2.9,0,0,0,3.024,2.88,3.6,3.6,0,0,0,2.754-1.116Z" transform="translate(1 0.59)" fill="#fff"/>
    <path id="Path_11315" data-name="Path 11315" d="M509.3,1415h2.286v-5.742a2.808,2.808,0,0,1,2.772-.918v-2.232a3.719,3.719,0,0,0-2.772,1.386v-1.188H509.3Z" transform="translate(1 0.59)" fill="#fff"/>
    <path id="Path_11316" data-name="Path 11316" d="M521.176,1412.912a2.286,2.286,0,0,1-1.836.756c-.9,0-1.638-.468-1.638-1.278,0-.846.738-1.314,1.638-1.314a2.286,2.286,0,0,1,1.836.756Zm0,2.088h2.286v-5.616c0-2.5-1.818-3.294-3.8-3.294a5.7,5.7,0,0,0-3.8,1.368l.864,1.53a3.658,3.658,0,0,1,2.538-1.026c1.152,0,1.908.576,1.908,1.458v1.206a3.514,3.514,0,0,0-2.754-1.062,2.753,2.753,0,0,0-3.024,2.772,2.9,2.9,0,0,0,3.024,2.88,3.6,3.6,0,0,0,2.754-1.116Z" transform="translate(1 0.59)" fill="#fff"/>
    <path id="Path_11317" data-name="Path 11317" d="M528.826,1415.216a2.822,2.822,0,0,0,1.908-.558l-.486-1.728a1.249,1.249,0,0,1-.792.252c-.5,0-.792-.414-.792-.954V1408.3h1.764v-2h-1.764v-2.376h-2.3v2.376h-1.44v2h1.44v4.536A2.173,2.173,0,0,0,528.826,1415.216Z" transform="translate(1 0.59)" fill="#fff"/>
    <path id="Path_11318" data-name="Path 11318" d="M532.174,1415h2.286v-8.694h-2.286Zm1.134-9.972a1.368,1.368,0,1,0-1.368-1.368A1.367,1.367,0,0,0,533.308,1405.028Z" transform="translate(1 0.59)" fill="#fff"/>
    <path id="Path_11319" data-name="Path 11319" d="M540.94,1413.182a2.549,2.549,0,1,1,2.232-2.538A2.287,2.287,0,0,1,540.94,1413.182Zm0,2.034a4.563,4.563,0,1,0-4.59-4.572A4.412,4.412,0,0,0,540.94,1415.216Z" transform="translate(1 0.59)" fill="#fff"/>
    <path id="Path_11320" data-name="Path 11320" d="M553.288,1415h2.286v-6.138a2.529,2.529,0,0,0-2.826-2.772,3.981,3.981,0,0,0-3.042,1.35v-1.134H547.42V1415h2.286v-5.85a2.476,2.476,0,0,1,1.98-1.026,1.411,1.411,0,0,1,1.6,1.62Z" transform="translate(1 0.59)" fill="#fff"/>
    <path id="Path_11321" data-name="Path 11321" d="M1091.741,1415.216a5.572,5.572,0,0,0,5.112-2.952l-2.2-1.062a3.255,3.255,0,0,1-2.916,1.746,3.952,3.952,0,0,1,0-7.884,3.288,3.288,0,0,1,2.916,1.746l2.2-1.08a5.54,5.54,0,0,0-5.112-2.934,6.211,6.211,0,1,0,0,12.42Z" transform="translate(1 0.59)" fill="#454545"/>
    <path id="Path_11322" data-name="Path 11322" d="M1102.541,1413.182a2.549,2.549,0,1,1,2.232-2.538A2.287,2.287,0,0,1,1102.541,1413.182Zm0,2.034a4.563,4.563,0,1,0-4.59-4.572A4.412,4.412,0,0,0,1102.541,1415.216Z" transform="translate(1 0.59)" fill="#454545"/>
    <path id="Path_11323" data-name="Path 11323" d="M1114.889,1415h2.286v-6.138a2.529,2.529,0,0,0-2.826-2.772,3.981,3.981,0,0,0-3.042,1.35v-1.134h-2.286V1415h2.286v-5.85a2.476,2.476,0,0,1,1.98-1.026,1.411,1.411,0,0,1,1.6,1.62Z" transform="translate(1 0.59)" fill="#454545"/>
    <path id="Path_11324" data-name="Path 11324" d="M1122.539,1415.216a2.822,2.822,0,0,0,1.908-.558l-.486-1.728a1.249,1.249,0,0,1-.792.252c-.5,0-.792-.414-.792-.954V1408.3h1.764v-2h-1.764v-2.376h-2.3v2.376h-1.44v2h1.44v4.536A2.173,2.173,0,0,0,1122.539,1415.216Z" transform="translate(1 0.59)" fill="#454545"/>
    <path id="Path_11325" data-name="Path 11325" d="M1125.887,1415h2.286v-8.694h-2.286Zm1.134-9.972a1.368,1.368,0,1,0-1.368-1.368A1.367,1.367,0,0,0,1127.021,1405.028Z" transform="translate(1 0.59)" fill="#454545"/>
    <path id="Path_11326" data-name="Path 11326" d="M1136.489,1415h2.286v-6.138a2.529,2.529,0,0,0-2.826-2.772,3.981,3.981,0,0,0-3.042,1.35v-1.134h-2.286V1415h2.286v-5.85a2.476,2.476,0,0,1,1.98-1.026,1.411,1.411,0,0,1,1.6,1.62Z" transform="translate(1 0.59)" fill="#454545"/>
    <path id="Path_11327" data-name="Path 11327" d="M1147.091,1415h2.286v-8.694h-2.286v5.886a2.559,2.559,0,0,1-1.98.99,1.4,1.4,0,0,1-1.6-1.6v-5.274h-2.286v6.174a2.49,2.49,0,0,0,2.808,2.736,4.069,4.069,0,0,0,3.06-1.314Z" transform="translate(1 0.59)" fill="#454545"/>
    <path id="Path_11328" data-name="Path 11328" d="M1155.857,1413.182a2.549,2.549,0,1,1,2.232-2.538A2.288,2.288,0,0,1,1155.857,1413.182Zm0,2.034a4.563,4.563,0,1,0-4.59-4.572A4.412,4.412,0,0,0,1155.857,1415.216Z" transform="translate(1 0.59)" fill="#454545"/>
    <path id="Path_11329" data-name="Path 11329" d="M1168.2,1415h2.286v-8.694H1168.2v5.886a2.559,2.559,0,0,1-1.98.99,1.4,1.4,0,0,1-1.6-1.6v-5.274h-2.286v6.174a2.49,2.49,0,0,0,2.808,2.736,4.069,4.069,0,0,0,3.06-1.314Z" transform="translate(1 0.59)" fill="#454545"/>
    <path id="Path_11330" data-name="Path 11330" d="M1172.183,1413.866a5.852,5.852,0,0,0,3.888,1.35c2.412,0,3.762-1.206,3.762-2.79,0-2.16-2-2.556-3.492-2.844-.972-.2-1.656-.4-1.656-.936,0-.5.54-.81,1.368-.81a3.668,3.668,0,0,1,2.574,1.008l.918-1.566a5.554,5.554,0,0,0-3.51-1.188c-2.286,0-3.564,1.278-3.564,2.736,0,2.07,1.926,2.43,3.42,2.718.99.2,1.746.414,1.746,1.026,0,.54-.468.882-1.458.882a4.976,4.976,0,0,1-3.006-1.188Z" transform="translate(1 0.59)" fill="#454545"/>
    <path id="Path_11331" data-name="Path 11331" d="M1196.987,1415h2.574v-12.006h-3.6l-2.916,7.488-2.916-7.488h-3.582V1415h2.556v-8.64l3.384,8.64h1.116l3.384-8.64Z" transform="translate(1 0.59)" fill="#454545"/>
    <path id="Path_11332" data-name="Path 11332" d="M1206.095,1413.182a2.549,2.549,0,1,1,2.232-2.538A2.287,2.287,0,0,1,1206.095,1413.182Zm0,2.034a4.563,4.563,0,1,0-4.59-4.572A4.412,4.412,0,0,0,1206.095,1415.216Z" transform="translate(1 0.59)" fill="#454545"/>
    <path id="Path_11333" data-name="Path 11333" d="M1218.443,1415h2.286v-6.138a2.529,2.529,0,0,0-2.826-2.772,3.981,3.981,0,0,0-3.042,1.35v-1.134h-2.286V1415h2.286v-5.85a2.476,2.476,0,0,1,1.98-1.026,1.411,1.411,0,0,1,1.6,1.62Z" transform="translate(1 0.59)" fill="#454545"/>
    <path id="Path_11334" data-name="Path 11334" d="M1223.177,1415h2.286v-8.694h-2.286Zm1.134-9.972a1.368,1.368,0,1,0-1.368-1.368A1.367,1.367,0,0,0,1224.311,1405.028Z" transform="translate(1 0.59)" fill="#454545"/>
    <path id="Path_11335" data-name="Path 11335" d="M1230.827,1415.216a2.822,2.822,0,0,0,1.908-.558l-.486-1.728a1.249,1.249,0,0,1-.792.252c-.5,0-.792-.414-.792-.954V1408.3h1.764v-2h-1.764v-2.376h-2.3v2.376h-1.44v2h1.44v4.536A2.173,2.173,0,0,0,1230.827,1415.216Z" transform="translate(1 0.59)" fill="#454545"/>
    <path id="Path_11336" data-name="Path 11336" d="M1238.207,1413.182a2.549,2.549,0,1,1,2.232-2.538A2.287,2.287,0,0,1,1238.207,1413.182Zm0,2.034a4.563,4.563,0,1,0-4.59-4.572A4.412,4.412,0,0,0,1238.207,1415.216Z" transform="translate(1 0.59)" fill="#454545"/>
    <path id="Path_11337" data-name="Path 11337" d="M1244.687,1415h2.286v-5.742a2.808,2.808,0,0,1,2.772-.918v-2.232a3.719,3.719,0,0,0-2.772,1.386v-1.188h-2.286Z" transform="translate(1 0.59)" fill="#454545"/>
    <path id="Path_11338" data-name="Path 11338" d="M1251.347,1415h2.286v-8.694h-2.286Zm1.134-9.972a1.368,1.368,0,1,0-1.368-1.368A1.367,1.367,0,0,0,1252.481,1405.028Z" transform="translate(1 0.59)" fill="#454545"/>
    <path id="Path_11339" data-name="Path 11339" d="M1261.949,1415h2.286v-6.138a2.529,2.529,0,0,0-2.826-2.772,3.982,3.982,0,0,0-3.042,1.35v-1.134h-2.286V1415h2.286v-5.85a2.476,2.476,0,0,1,1.98-1.026,1.411,1.411,0,0,1,1.6,1.62Z" transform="translate(1 0.59)" fill="#454545"/>
    <path id="Path_11340" data-name="Path 11340" d="M1272.641,1411.922a2.532,2.532,0,0,1-1.962.99,2.4,2.4,0,0,1,0-4.788,2.478,2.478,0,0,1,1.962.99Zm-6.138,5.31a5.267,5.267,0,0,0,3.744,1.3c2.142,0,4.7-.81,4.7-4.122v-8.1h-2.3v1.116a3.348,3.348,0,0,0-2.682-1.332c-2.2,0-3.834,1.584-3.834,4.428,0,2.9,1.656,4.428,3.834,4.428a3.385,3.385,0,0,0,2.682-1.368v.882a2.125,2.125,0,0,1-2.394,2.2,3.455,3.455,0,0,1-2.718-1.08Z" transform="translate(1 0.59)" fill="#454545"/>
    <path id="Path_11341" data-name="Path 11341" d="M1062.56,1434.376h-3.185l1.2-2.952,8.2-20.23.978-2.415-.976-2.416-8.211-20.315-1.193-2.951h26.489V1378.8H1053l11.789,29.167.325.805-.326.805L1053,1438.669h182.637v6.1l10.955-8.138-10.955-8.138v5.884H1062.56Z" transform="translate(1 0.59)" fill="#1294c2"/>
    <path id="Path_11342" data-name="Path 11342" d="M1235.641,1432.23v-3.737l10.955,8.138-10.955,8.138v-6.1H1053l11.785-29.087.326-.8-.325-.806L1053,1378.8h32.854v4.293h-26.489l1.192,2.95,8.211,20.316.977,2.416-.979,2.416-8.2,20.23-1.2,2.952h176.267Z" transform="translate(1 0.59)" fill="#1294c2"/>
    <path id="Path_11343" data-name="Path 11343" d="M1286.438,1438.669H1253.9v-4.293h29.735l.563-1.285,10.291-23.458.378-.861-.378-.862-10.3-23.529-.562-1.286H1104.11v6.056l-10.955-8.138,10.955-8.138v5.927h182.325l13.115,29.971Z" transform="translate(1 0.59)" fill="#1294c2"/>
  </g>
</svg>
