<?xml version="1.0" encoding="utf-8"?>
<!-- Generator: Adobe Illustrator 24.2.3, SVG Export Plug-In . SVG Version: 6.00 Build 0)  -->
<svg version="1.1" id="Layer_1" xmlns="http://www.w3.org/2000/svg" xmlns:xlink="http://www.w3.org/1999/xlink" x="0px" y="0px"
	 viewBox="0 0 662 613" style="enable-background:new 0 0 662 613;" xml:space="preserve">
<style type="text/css">
	.st0{fill:#0A90B7;}
	.st1{fill:#FFFFFF;}
	.st2{fill:#C71F25;}
	.st3{fill:#1A4480;}
	.st4{enable-background:new    ;}
	.st5{fill:none;}
	.st6{fill:#1294C2;}
	.st7{fill:#D0D0D0;}
</style>
<g id="Layer_4">
	<path id="Path_11287_1_" class="st0" d="M649.2,160.9H313.8l12.6-29.9l-12.6-29.9h335.4l12.6,29.9L649.2,160.9z"/>
	<path id="Path_11287_4_" class="st0" d="M335.2,495.9H-0.2L12.4,466l-12.6-29.9h335.4l12.6,29.9L335.2,495.9z"/>
	<path id="Path_11287-2" class="st0" d="M275.4,160.9H0v-59.8h275.4L288,131L275.4,160.9z"/>
</g>
<g id="Layer_3">
	<g>
		<polygon class="st1" points="589,187.9 571.8,169.9 554.7,187.9 503,187.9 503,256.9 639.8,256.9 639.8,187.9 		"/>
		<path class="st2" d="M640.2,257.3H502.6v-69.8h51.9l17.3-18.2l17.4,18.2h51V257.3z M503.4,256.5h136v-68.2h-50.6l-0.1-0.1
			l-16.9-17.7l-16.9,17.8h-51.5L503.4,256.5L503.4,256.5z"/>
	</g>
	<g>
		<polygon class="st1" points="422,187.9 404.9,169.9 387.8,187.9 336.1,187.9 336.1,256.9 472.9,256.9 472.9,187.9 		"/>
		<path class="st2" d="M473.3,257.3H335.7v-69.8h51.9l17.3-18.2l17.3,18.2h51.1V257.3z M336.5,256.5h136.1v-68.2h-50.7l-0.1-0.1
			L405,170.5l-17,17.8h-51.5V256.5z"/>
	</g>
	<g>
		<polygon class="st1" points="639.8,3 503,3 503,72 554.9,72 571.8,89.8 588.8,72 639.8,72 		"/>
		<path class="st3" d="M571.8,90.3l-17.1-18h-52.1V2.6h137.5v69.8H589L571.8,90.3z M503.4,71.6h51.7l0.1,0.1l16.6,17.5l16.8-17.6
			h50.8V3.4h-136L503.4,71.6L503.4,71.6z"/>
	</g>
	<g>
		<polygon class="st1" points="472.9,3 336.1,3 336.1,72 387.9,72 404.9,89.8 421.8,72 472.9,72 		"/>
		<path class="st3" d="M404.9,90.3l-17.2-18h-52V2.6h137.6v69.8H422L404.9,90.3z M336.5,71.6h51.6l16.8,17.6l16.7-17.6h50.9V3.4
			h-136V71.6z"/>
	</g>
	<g>
		<g class="st4">
			<path class="st1" d="M22.1,136.8l0.9-2.1c1,0.7,2.5,1.2,3.9,1.2c1.6,0,2.3-0.5,2.3-1.3c0-2.2-6.9-0.7-6.9-5.1c0-2,1.6-3.7,5-3.7
				c1.5,0,3,0.4,4.1,1.1l-0.8,2.1c-1.1-0.6-2.2-0.9-3.3-0.9c-1.6,0-2.3,0.6-2.3,1.4c0,2.2,6.9,0.7,6.9,5c0,2-1.6,3.7-5,3.7
				C25.1,138.2,23.2,137.6,22.1,136.8z"/>
			<path class="st1" d="M42.6,134.2h-6.9c0.3,1.1,1.2,1.8,2.6,1.8c1,0,1.7-0.3,2.3-0.9l1.4,1.5c-0.9,1-2.1,1.5-3.8,1.5
				c-3.2,0-5.2-2-5.2-4.7s2.1-4.7,4.9-4.7c2.7,0,4.8,1.8,4.8,4.7C42.7,133.7,42.7,133.9,42.6,134.2z M35.7,132.6h4.5
				c-0.2-1.2-1.1-1.9-2.2-1.9C36.7,130.7,35.9,131.4,35.7,132.6z"/>
			<path class="st1" d="M44.5,125.4h2.7V138h-2.7V125.4z"/>
			<path class="st1" d="M58.5,134.2h-6.9c0.3,1.1,1.2,1.8,2.6,1.8c1,0,1.7-0.3,2.3-0.9l1.4,1.5c-0.9,1-2.1,1.5-3.8,1.5
				c-3.2,0-5.2-2-5.2-4.7s2.1-4.7,4.9-4.7c2.7,0,4.8,1.8,4.8,4.7C58.5,133.7,58.5,133.9,58.5,134.2z M51.5,132.6H56
				c-0.2-1.2-1.1-1.9-2.2-1.9C52.6,130.7,51.7,131.4,51.5,132.6z"/>
			<path class="st1" d="M59.6,133.4c0-2.8,2.1-4.7,5.1-4.7c1.9,0,3.4,0.8,4.1,2.3l-2.1,1.1c-0.5-0.9-1.2-1.3-2.1-1.3
				c-1.3,0-2.4,0.9-2.4,2.5s1.1,2.5,2.4,2.5c0.8,0,1.6-0.4,2.1-1.3l2.1,1.1c-0.7,1.5-2.2,2.3-4.1,2.3
				C61.7,138.1,59.6,136.2,59.6,133.4z"/>
			<path class="st1" d="M76.4,137.5c-0.5,0.4-1.3,0.6-2.2,0.6c-2.2,0-3.4-1.1-3.4-3.3V131h-1.4v-2h1.4v-2.2h2.7v2.2h2.3v2h-2.3v3.7
				c0,0.8,0.4,1.2,1.1,1.2c0.4,0,0.8-0.1,1.1-0.3L76.4,137.5z"/>
			<path class="st1" d="M90.7,135.4h-5.5l-1.1,2.5h-2.8l5.3-11.9h2.7l5.3,11.9h-2.9L90.7,135.4z M89.8,133.3l-1.9-4.6l-1.9,4.6H89.8
				z"/>
			<path class="st1" d="M104.8,128.8v9.1h-2.5v-1.1c-0.7,0.8-1.7,1.2-2.8,1.2c-2.3,0-3.9-1.3-3.9-4.1v-5.2h2.7v4.8
				c0,1.5,0.7,2.2,1.9,2.2c1.2,0,2.1-0.8,2.1-2.5v-4.5h2.5C104.8,128.7,104.8,128.8,104.8,128.8z"/>
			<path class="st1" d="M113.1,137.5c-0.5,0.4-1.3,0.6-2.2,0.6c-2.2,0-3.4-1.1-3.4-3.3V131h-1.4v-2h1.4v-2.2h2.7v2.2h2.3v2h-2.3v3.7
				c0,0.8,0.4,1.2,1.1,1.2c0.4,0,0.8-0.1,1.1-0.3L113.1,137.5z"/>
			<path class="st1" d="M124,132.8v5.2h-2.7v-4.8c0-1.5-0.7-2.2-1.9-2.2c-1.3,0-2.2,0.8-2.2,2.5v4.5h-2.7v-12.6h2.7v4.4
				c0.7-0.7,1.7-1.1,2.9-1.1C122.3,128.7,124,130,124,132.8z"/>
			<path class="st1" d="M125.8,133.4c0-2.8,2.1-4.7,5-4.7c2.9,0,5,2,5,4.7s-2.1,4.7-5,4.7C127.9,138.1,125.8,136.2,125.8,133.4z
				 M133.1,133.4c0-1.6-1-2.5-2.3-2.5s-2.3,1-2.3,2.5c0,1.6,1,2.5,2.3,2.5S133.1,135,133.1,133.4z"/>
			<path class="st1" d="M143.3,128.7v2.4c-0.2,0-0.4,0-0.6,0c-1.5,0-2.4,0.8-2.4,2.5v4.3h-2.7v-9.1h2.5v1.2
				C140.8,129.2,141.9,128.7,143.3,128.7z"/>
			<path class="st1" d="M144.5,126.1c0-0.8,0.7-1.5,1.6-1.5s1.6,0.6,1.6,1.4c0,0.9-0.7,1.5-1.6,1.5S144.5,126.9,144.5,126.1z
				 M144.9,128.8h2.7v9.1h-2.7V128.8z"/>
			<path class="st1" d="M157.5,135.9v2h-8.2v-1.6l4.7-5.5h-4.5v-2h7.9v1.6l-4.7,5.5H157.5z"/>
			<path class="st1" d="M167.3,132.8v5.2h-2.5v-1.1c-0.5,0.8-1.4,1.3-2.8,1.3c-2.1,0-3.4-1.2-3.4-2.8s1.1-2.7,3.9-2.7h2.1
				c0-1.1-0.7-1.8-2.1-1.8c-1,0-2,0.3-2.6,0.8l-1-1.9c1-0.7,2.5-1.1,3.9-1.1C165.7,128.7,167.3,130,167.3,132.8z M164.6,135.1v-0.9
				h-1.8c-1.2,0-1.6,0.5-1.6,1.1c0,0.7,0.6,1.1,1.5,1.1C163.6,136.3,164.3,135.9,164.6,135.1z"/>
			<path class="st1" d="M175.6,137.5c-0.5,0.4-1.3,0.6-2.2,0.6c-2.2,0-3.4-1.1-3.4-3.3V131h-1.4v-2h1.4v-2.2h2.7v2.2h2.3v2h-2.3v3.7
				c0,0.8,0.4,1.2,1.1,1.2c0.4,0,0.8-0.1,1.1-0.3L175.6,137.5z"/>
			<path class="st1" d="M176.8,126.1c0-0.8,0.7-1.5,1.6-1.5s1.6,0.6,1.6,1.4c0,0.9-0.7,1.5-1.6,1.5S176.8,126.9,176.8,126.1z
				 M177.1,128.8h2.7v9.1h-2.7V128.8z"/>
			<path class="st1" d="M181.5,133.4c0-2.8,2.1-4.7,5-4.7s5,2,5,4.7s-2.1,4.7-5,4.7C183.6,138.1,181.5,136.2,181.5,133.4z
				 M188.9,133.4c0-1.6-1-2.5-2.3-2.5s-2.3,1-2.3,2.5c0,1.6,1,2.5,2.3,2.5S188.9,135,188.9,133.4z"/>
			<path class="st1" d="M202.7,132.8v5.2H200v-4.8c0-1.5-0.7-2.2-1.9-2.2c-1.3,0-2.2,0.8-2.2,2.5v4.5h-2.7v-9.1h2.5v1.1
				c0.7-0.8,1.8-1.2,3-1.2C201.1,128.7,202.7,130,202.7,132.8z"/>
			<path class="st1" d="M220.4,130.4c0,2.7-2,4.3-5.2,4.3h-2.4v3.3H210v-11.9h5.2C218.4,126.1,220.4,127.7,220.4,130.4z
				 M217.6,130.4c0-1.3-0.8-2.1-2.5-2.1h-2.2v4.1h2.2C216.8,132.5,217.6,131.7,217.6,130.4z"/>
			<path class="st1" d="M230.2,132.8v5.2h-2.5v-1.1c-0.5,0.8-1.4,1.3-2.8,1.3c-2.1,0-3.4-1.2-3.4-2.8s1.1-2.7,3.9-2.7h2.1
				c0-1.1-0.7-1.8-2.1-1.8c-1,0-2,0.3-2.6,0.8l-1-1.9c1-0.7,2.5-1.1,3.9-1.1C228.6,128.7,230.2,130,230.2,132.8z M227.5,135.1v-0.9
				h-1.8c-1.2,0-1.6,0.5-1.6,1.1c0,0.7,0.6,1.1,1.5,1.1C226.5,136.3,227.2,135.9,227.5,135.1z"/>
			<path class="st1" d="M238.5,137.5c-0.5,0.4-1.3,0.6-2.2,0.6c-2.2,0-3.4-1.1-3.4-3.3V131h-1.4v-2h1.4v-2.2h2.7v2.2h2.3v2h-2.3v3.7
				c0,0.8,0.4,1.2,1.1,1.2c0.4,0,0.8-0.1,1.1-0.3L238.5,137.5z"/>
			<path class="st1" d="M249.3,132.8v5.2h-2.7v-4.8c0-1.5-0.7-2.2-1.9-2.2c-1.3,0-2.2,0.8-2.2,2.5v4.5H240v-12.6h2.7v4.4
				c0.7-0.7,1.7-1.1,2.9-1.1C247.7,128.7,249.3,130,249.3,132.8z"/>
		</g>
	</g>
	<g>
		<g class="st4">
			<path class="st1" d="M446.2,130.4c0,2.7-2,4.3-5.2,4.3h-2.4v3.3h-2.8v-11.9h5.2C444.2,126.1,446.2,127.7,446.2,130.4z
				 M443.4,130.4c0-1.3-0.8-2.1-2.5-2.1h-2.2v4.1h2.2C442.6,132.5,443.4,131.7,443.4,130.4z"/>
			<path class="st1" d="M453.7,128.7v2.4c-0.2,0-0.4,0-0.6,0c-1.5,0-2.4,0.8-2.4,2.5v4.3H448v-9.1h2.5v1.2
				C451.2,129.2,452.3,128.7,453.7,128.7z"/>
			<path class="st1" d="M464.1,134.2h-6.9c0.3,1.1,1.2,1.8,2.6,1.8c1,0,1.7-0.3,2.3-0.9l1.4,1.5c-0.8,1-2.1,1.5-3.8,1.5
				c-3.2,0-5.2-2-5.2-4.7s2.1-4.7,4.9-4.7c2.7,0,4.8,1.8,4.8,4.7C464.1,133.7,464.1,133.9,464.1,134.2z M457.1,132.6h4.5
				c-0.2-1.2-1.1-1.9-2.2-1.9C458.2,130.7,457.3,131.4,457.1,132.6z"/>
			<path class="st1" d="M475.9,133.4c0,2.9-2,4.7-4.6,4.7c-1.1,0-2.1-0.4-2.8-1.1v4.3h-2.7v-12.4h2.5v1.1c0.7-0.8,1.6-1.2,2.9-1.2
				C473.9,128.7,475.9,130.5,475.9,133.4z M473.2,133.4c0-1.6-1-2.5-2.3-2.5s-2.3,1-2.3,2.5c0,1.6,1,2.5,2.3,2.5
				S473.2,135,473.2,133.4z"/>
			<path class="st1" d="M485.6,132.8v5.2h-2.5v-1.1c-0.5,0.8-1.4,1.3-2.8,1.3c-2.1,0-3.4-1.2-3.4-2.8s1.1-2.7,3.9-2.7h2.1
				c0-1.1-0.7-1.8-2.1-1.8c-1,0-2,0.3-2.6,0.8l-1-1.9c1-0.7,2.5-1.1,3.9-1.1C484,128.7,485.6,130,485.6,132.8z M482.9,135.1v-0.9
				h-1.8c-1.2,0-1.6,0.5-1.6,1.1c0,0.7,0.6,1.1,1.5,1.1C481.8,136.3,482.6,135.9,482.9,135.1z"/>
			<path class="st1" d="M493.6,128.7v2.4c-0.2,0-0.4,0-0.6,0c-1.5,0-2.4,0.8-2.4,2.5v4.3H488v-9.1h2.5v1.2
				C491.1,129.2,492.2,128.7,493.6,128.7z"/>
			<path class="st1" d="M503.3,132.8v5.2h-2.5v-1.1c-0.5,0.8-1.4,1.3-2.8,1.3c-2.1,0-3.4-1.2-3.4-2.8s1.1-2.7,3.9-2.7h2.1
				c0-1.1-0.7-1.8-2.1-1.8c-1,0-2,0.3-2.6,0.8l-1-1.9c1-0.7,2.5-1.1,3.9-1.1C501.6,128.7,503.3,130,503.3,132.8z M500.6,135.1v-0.9
				h-1.8c-1.2,0-1.6,0.5-1.6,1.1c0,0.7,0.6,1.1,1.5,1.1C499.5,136.3,500.3,135.9,500.6,135.1z"/>
			<path class="st1" d="M511.6,137.5c-0.5,0.4-1.3,0.6-2.2,0.6c-2.2,0-3.4-1.1-3.4-3.3V131h-1.4v-2h1.4v-2.2h2.7v2.2h2.3v2h-2.3v3.7
				c0,0.8,0.4,1.2,1.1,1.2c0.4,0,0.8-0.1,1.1-0.3L511.6,137.5z"/>
			<path class="st1" d="M512.7,126.1c0-0.8,0.7-1.5,1.6-1.5c1,0,1.6,0.6,1.6,1.4c0,0.9-0.7,1.5-1.6,1.5
				C513.4,127.6,512.7,126.9,512.7,126.1z M513.1,128.8h2.7v9.1h-2.7V128.8z"/>
			<path class="st1" d="M517.5,133.4c0-2.8,2.1-4.7,5-4.7s5,2,5,4.7s-2.1,4.7-5,4.7S517.5,136.2,517.5,133.4z M524.9,133.4
				c0-1.6-1-2.5-2.3-2.5s-2.3,1-2.3,2.5c0,1.6,1,2.5,2.3,2.5S524.9,135,524.9,133.4z"/>
			<path class="st1" d="M538.7,132.8v5.2H536v-4.8c0-1.5-0.7-2.2-1.9-2.2c-1.3,0-2.2,0.8-2.2,2.5v4.5h-2.7v-9.1h2.5v1.1
				c0.7-0.8,1.8-1.2,3-1.2C537,128.7,538.7,130,538.7,132.8z"/>
		</g>
	</g>
	<g>
		<polygon class="st1" points="275,522.9 257.8,504.9 240.7,522.9 189,522.9 189,609.9 325.8,609.9 325.8,522.9 		"/>
		<path class="st2" d="M326.2,610.3H188.6v-87.8h51.9l17.3-18.2l17.4,18.2h51L326.2,610.3L326.2,610.3z M189.4,609.5h136v-86.2
			h-50.6l-17-17.8l-16.9,17.8h-51.5V609.5z"/>
	</g>
	<g>
		<polygon class="st1" points="108,522.9 90.9,504.9 73.8,522.9 22.1,522.9 22.1,609.9 158.9,609.9 158.9,522.9 		"/>
		<path class="st2" d="M159.3,610.3H21.7v-87.8h51.9l17.3-18.2l17.3,18.2h51.1L159.3,610.3L159.3,610.3z M22.5,609.5h136v-86.2
			h-50.7l-0.1-0.1l-16.8-17.7L74,523.3H22.5V609.5z"/>
	</g>
	<g>
		<polygon class="st1" points="325.8,320 189,320 189,407 240.9,407 257.8,424.8 274.8,407 325.8,407 		"/>
		<path class="st3" d="M257.8,425.3l-17.1-18h-52.1v-87.8h137.5v87.8H275L257.8,425.3z M189.4,406.6h51.7l16.7,17.6l16.8-17.6h50.8
			v-86.2h-136L189.4,406.6L189.4,406.6z"/>
	</g>
	<g>
		<polygon class="st1" points="158.9,320 22.1,320 22.1,407 73.9,407 90.9,424.8 107.8,407 158.9,407 		"/>
		<path class="st3" d="M90.9,425.3l-17.2-18h-52v-87.8h137.5v87.8H108L90.9,425.3z M22.5,406.6h51.6l0.1,0.1l16.7,17.5l16.7-17.6
			h50.9v-86.2h-136V406.6z"/>
	</g>
	<g>
		<g class="st4">
			<path class="st1" d="M118.1,469.2h-5.5l-1.1,2.5h-2.8l5.3-11.9h2.7l5.3,11.9h-2.9L118.1,469.2z M117.2,467.1l-1.9-4.6l-1.9,4.6
				H117.2z"/>
			<path class="st1" d="M132.1,462.6v9.1h-2.5v-1.1c-0.7,0.8-1.7,1.2-2.8,1.2c-2.3,0-3.9-1.3-3.9-4.1v-5.2h2.7v4.8
				c0,1.5,0.7,2.2,1.9,2.2c1.2,0,2.1-0.8,2.1-2.5v-4.5h2.5V462.6z"/>
			<path class="st1" d="M140.5,471.3c-0.5,0.4-1.3,0.6-2.2,0.6c-2.2,0-3.4-1.1-3.4-3.3v-3.8h-1.4v-2h1.4v-2.2h2.7v2.2h2.3v2h-2.3
				v3.7c0,0.8,0.4,1.2,1.1,1.2c0.4,0,0.8-0.1,1.1-0.3L140.5,471.3z"/>
			<path class="st1" d="M151.3,466.5v5.2h-2.7v-4.8c0-1.5-0.7-2.2-1.9-2.2c-1.3,0-2.2,0.8-2.2,2.5v4.5H142v-12.6h2.7v4.4
				c0.7-0.7,1.7-1.1,2.9-1.1C149.7,462.5,151.3,463.7,151.3,466.5z"/>
			<path class="st1" d="M153.1,467.2c0-2.8,2.1-4.7,5-4.7s5,2,5,4.7s-2.1,4.7-5,4.7C155.3,471.9,153.1,469.9,153.1,467.2z
				 M160.5,467.2c0-1.6-1-2.5-2.3-2.5s-2.3,1-2.3,2.5c0,1.6,1,2.5,2.3,2.5S160.5,468.7,160.5,467.2z"/>
			<path class="st1" d="M170.6,462.5v2.4c-0.2,0-0.4,0-0.6,0c-1.5,0-2.4,0.8-2.4,2.5v4.3H165v-9.1h2.5v1.2
				C168.1,462.9,169.2,462.5,170.6,462.5z"/>
			<path class="st1" d="M171.9,459.8c0-0.8,0.7-1.5,1.6-1.5s1.6,0.6,1.6,1.4c0,0.9-0.7,1.5-1.6,1.5S171.9,460.7,171.9,459.8z
				 M172.2,462.6h2.7v9.1h-2.7V462.6z"/>
			<path class="st1" d="M184.9,469.7v2h-8.2v-1.6l4.7-5.5h-4.5v-2h7.9v1.6l-4.7,5.5H184.9z"/>
			<path class="st1" d="M194.7,466.5v5.2h-2.5v-1.1c-0.5,0.8-1.4,1.3-2.8,1.3c-2.1,0-3.4-1.2-3.4-2.8c0-1.6,1.1-2.7,3.9-2.7h2.1
				c0-1.1-0.7-1.8-2.1-1.8c-1,0-2,0.3-2.6,0.8l-1-1.9c1-0.7,2.5-1.1,3.9-1.1C193,462.5,194.7,463.7,194.7,466.5z M192,468.8v-0.9
				h-1.8c-1.2,0-1.6,0.5-1.6,1.1c0,0.7,0.6,1.1,1.5,1.1C190.9,470.1,191.7,469.7,192,468.8z"/>
			<path class="st1" d="M203,471.3c-0.5,0.4-1.3,0.6-2.2,0.6c-2.2,0-3.4-1.1-3.4-3.3v-3.8H196v-2h1.4v-2.2h2.7v2.2h2.3v2H200v3.7
				c0,0.8,0.4,1.2,1.1,1.2c0.4,0,0.8-0.1,1.1-0.3L203,471.3z"/>
			<path class="st1" d="M204.1,459.8c0-0.8,0.7-1.5,1.6-1.5s1.6,0.6,1.6,1.4c0,0.9-0.7,1.5-1.6,1.5S204.1,460.7,204.1,459.8z
				 M204.5,462.6h2.7v9.1h-2.7V462.6z"/>
			<path class="st1" d="M208.9,467.2c0-2.8,2.1-4.7,5-4.7s5,2,5,4.7s-2.1,4.7-5,4.7C211,471.9,208.9,469.9,208.9,467.2z
				 M216.3,467.2c0-1.6-1-2.5-2.3-2.5s-2.3,1-2.3,2.5c0,1.6,1,2.5,2.3,2.5C215.2,469.7,216.3,468.7,216.3,467.2z"/>
			<path class="st1" d="M230.1,466.5v5.2h-2.7v-4.8c0-1.5-0.7-2.2-1.9-2.2c-1.3,0-2.2,0.8-2.2,2.5v4.5h-2.7v-9.1h2.5v1.1
				c0.7-0.8,1.8-1.2,3-1.2C228.4,462.5,230.1,463.7,230.1,466.5z"/>
		</g>
	</g>
</g>
<g id="Layer_1_1_">
	<rect x="190.2" y="536.3" class="st5" width="135" height="63.5"/>
	<g class="st4">
		<path class="st2" d="M241.5,553.6c0.5,0.1,1,0.1,1.3,0.1c0.6,0,1-0.2,1.3-0.5c0.2-0.3,0.4-0.9,0.4-1.8v-12.6h1.5v12.6
			c0,1.2-0.2,2.1-0.7,2.7c-0.5,0.6-1.2,0.8-2.2,0.8c-0.4,0-0.9,0-1.5-0.1v-1.2H241.5z"/>
		<path class="st2" d="M257.5,548.4h-6.7l-1.4,3.3h-1.5l5.6-12.8h1.3l5.6,12.8h-1.5L257.5,548.4z M257,547.2l-2.8-6.6l-2.8,6.6H257z
			"/>
		<path class="st2" d="M271.3,546.2c0.4,0.5,0.6,1.2,0.6,2c0,1.1-0.4,2-1.1,2.6s-1.8,0.9-3.1,0.9h-5.3v-12.8h5.1
			c1.3,0,2.3,0.3,3.1,0.9c0.7,0.6,1.1,1.4,1.1,2.5c0,0.7-0.2,1.3-0.5,1.8c-0.4,0.5-0.8,0.9-1.5,1.1
			C270.4,545.3,270.9,545.7,271.3,546.2z M263.8,544.6h3.5c1,0,1.7-0.2,2.2-0.6c0.5-0.4,0.7-0.9,0.7-1.7c0-1.5-1-2.2-2.9-2.2h-3.5
			L263.8,544.6L263.8,544.6z M269.8,549.9c0.5-0.4,0.7-1,0.7-1.7c0-1.6-1-2.4-2.9-2.4h-3.7v4.7h3.7
			C268.6,550.5,269.3,550.3,269.8,549.9z"/>
	</g>
	<g class="st4">
		<path class="st2" d="M209,570h-6.7l-1.4,3.3h-1.5l5.6-12.8h1.3l5.6,12.8h-1.5L209,570z M208.5,568.8l-2.8-6.6l-2.8,6.6H208.5z"/>
		<path class="st2" d="M221.2,564.3v9.1h-1.4v-1.6c-0.3,0.6-0.7,1-1.2,1.3s-1.1,0.4-1.7,0.4c-1.1,0-1.9-0.3-2.4-0.9
			c-0.6-0.6-0.8-1.5-0.8-2.7v-5.6h1.5v5.6c0,0.8,0.2,1.4,0.5,1.8s0.8,0.6,1.5,0.6c0.8,0,1.5-0.3,1.9-0.8c0.5-0.5,0.7-1.2,0.7-2.1
			v-5.1H221.2z"/>
		<path class="st2" d="M226,565.4v5c0,0.7,0.1,1.1,0.4,1.4c0.3,0.3,0.7,0.4,1.2,0.4c0.3,0,0.7-0.1,1-0.2v1.2
			c-0.4,0.1-0.8,0.2-1.3,0.2c-0.9,0-1.5-0.2-2-0.7s-0.7-1.2-0.7-2.2v-5.1h-1.8v-1.2h1.8v-2.3l1.5-0.5v2.8h2.6v1.2L226,565.4
			L226,565.4z"/>
		<path class="st2" d="M238.1,567.6v5.7h-1.5v-5.6c0-0.8-0.2-1.5-0.5-1.8s-0.9-0.6-1.6-0.6c-0.8,0-1.5,0.3-2,0.8s-0.8,1.2-0.8,2.1
			v5.2h-1.5v-13.2h1.5v5.7c0.3-0.6,0.7-1,1.2-1.3s1.1-0.4,1.8-0.4C237,564,238.1,565.2,238.1,567.6z"/>
		<path class="st2" d="M242.4,572.9c-0.6-0.4-1.1-0.9-1.5-1.6s-0.5-1.5-0.5-2.5c0-0.9,0.2-1.8,0.5-2.5s0.9-1.3,1.5-1.6
			c0.6-0.4,1.4-0.6,2.2-0.6s1.6,0.2,2.2,0.6c0.6,0.4,1.1,0.9,1.5,1.6s0.5,1.5,0.5,2.5c0,0.9-0.2,1.8-0.5,2.5s-0.9,1.3-1.5,1.6
			c-0.6,0.4-1.4,0.6-2.2,0.6S243,573.3,242.4,572.9z M246.7,571.3c0.5-0.6,0.7-1.5,0.7-2.6s-0.2-2-0.7-2.6s-1.2-0.9-2.1-0.9
			c-0.9,0-1.6,0.3-2.1,0.9c-0.5,0.6-0.7,1.5-0.7,2.6s0.2,2,0.7,2.6s1.2,0.9,2.1,0.9S246.2,571.9,246.7,571.3z"/>
		<path class="st2" d="M256.2,564.2v1.3c-0.3-0.1-0.6-0.1-1-0.1c-0.9,0-1.5,0.3-2,0.8c-0.4,0.5-0.6,1.2-0.6,2v5.2h-1.5v-6.5
			c0-0.9,0-1.8-0.1-2.5h1.4l0.1,1.7c0.2-0.6,0.6-1.1,1.1-1.4c0.5-0.3,1.1-0.5,1.7-0.5C255.7,564,255.9,564.1,256.2,564.2z"/>
		<path class="st2" d="M259.3,560.4v1.7h-1.8v-1.7H259.3z M257.7,564.3h1.5v9.1h-1.5V564.3z"/>
		<path class="st2" d="M269.1,572.2v1.2h-7.6v-1l5.7-6.9h-5.5v-1.2h7.3v1.1l-5.7,6.8L269.1,572.2L269.1,572.2z"/>
		<path class="st2" d="M279.1,564.3v9.1h-1.4v-1.6c-0.3,0.6-0.7,1-1.2,1.3s-1.2,0.5-1.9,0.5c-0.8,0-1.5-0.2-2.1-0.6
			c-0.6-0.4-1.1-0.9-1.4-1.6s-0.5-1.5-0.5-2.5c0-0.9,0.2-1.8,0.5-2.5s0.8-1.3,1.4-1.7s1.3-0.6,2.1-0.6c0.7,0,1.3,0.2,1.9,0.5
			c0.5,0.3,0.9,0.8,1.2,1.3v-1.6L279.1,564.3L279.1,564.3z M276.9,571.3c0.5-0.6,0.7-1.5,0.7-2.6s-0.2-2-0.7-2.6s-1.2-0.9-2.1-0.9
			s-1.6,0.3-2.1,0.9s-0.7,1.5-0.7,2.6s0.2,2,0.7,2.6s1.2,0.9,2.1,0.9C275.7,572.2,276.4,571.9,276.9,571.3z"/>
		<path class="st2" d="M283.8,565.4v5c0,0.7,0.1,1.1,0.4,1.4c0.3,0.3,0.7,0.4,1.2,0.4c0.3,0,0.7-0.1,1-0.2v1.2
			c-0.4,0.1-0.8,0.2-1.3,0.2c-0.9,0-1.5-0.2-2-0.7s-0.7-1.2-0.7-2.2v-5.1h-1.8v-1.2h1.8v-2.3l1.5-0.5v2.8h2.6v1.2L283.8,565.4
			L283.8,565.4z"/>
		<path class="st2" d="M289.8,560.4v1.7H288v-1.7H289.8z M288.2,564.3h1.5v9.1h-1.5V564.3z"/>
		<path class="st2" d="M294,572.9c-0.6-0.4-1.1-0.9-1.5-1.6s-0.5-1.5-0.5-2.5c0-0.9,0.2-1.8,0.5-2.5s0.9-1.3,1.5-1.6
			c0.6-0.4,1.4-0.6,2.2-0.6s1.6,0.2,2.2,0.6c0.6,0.4,1.1,0.9,1.5,1.6s0.5,1.5,0.5,2.5c0,0.9-0.2,1.8-0.5,2.5s-0.9,1.3-1.5,1.6
			c-0.6,0.4-1.4,0.6-2.2,0.6S294.6,573.3,294,572.9z M298.3,571.3c0.5-0.6,0.7-1.5,0.7-2.6s-0.2-2-0.7-2.6s-1.2-0.9-2.1-0.9
			s-1.6,0.3-2.1,0.9c-0.5,0.6-0.7,1.5-0.7,2.6s0.2,2,0.7,2.6s1.2,0.9,2.1,0.9S297.8,571.9,298.3,571.3z"/>
		<path class="st2" d="M310.5,567.6v5.7H309v-5.6c0-0.8-0.2-1.5-0.5-1.8s-0.9-0.6-1.6-0.6c-0.8,0-1.5,0.3-2,0.8s-0.8,1.2-0.8,2.1
			v5.2h-1.5v-6.5c0-0.9,0-1.8-0.1-2.5h1.4l0.1,1.6c0.3-0.6,0.7-1,1.2-1.4c0.6-0.3,1.2-0.5,1.9-0.5
			C309.5,564,310.5,565.2,310.5,567.6z"/>
	</g>
	<g class="st4">
		<path class="st2" d="M225.6,582.1h5.1c1.3,0,2.3,0.3,3.1,1c0.7,0.6,1.1,1.5,1.1,2.6s-0.4,2-1.1,2.6c-0.7,0.6-1.8,1-3.1,1h-3.6v5.6
			h-1.5V582.1z M230.6,588.1c0.9,0,1.7-0.2,2.1-0.6s0.7-1,0.7-1.8s-0.2-1.4-0.7-1.8c-0.5-0.4-1.2-0.6-2.1-0.6h-3.5v4.7L230.6,588.1
			L230.6,588.1z"/>
		<path class="st2" d="M242,585.8v1.3c-0.3-0.1-0.6-0.1-1-0.1c-0.9,0-1.5,0.3-2,0.8c-0.4,0.5-0.6,1.2-0.6,2v5.2H237v-6.5
			c0-0.9,0-1.8-0.1-2.5h1.4l0.1,1.7c0.2-0.6,0.6-1.1,1.1-1.4c0.5-0.3,1.1-0.5,1.7-0.5C241.5,585.6,241.8,585.7,242,585.8z"/>
		<path class="st2" d="M244.8,594.5c-0.6-0.4-1.1-0.9-1.5-1.6s-0.5-1.5-0.5-2.5c0-0.9,0.2-1.8,0.5-2.5s0.9-1.3,1.5-1.6
			c0.6-0.4,1.4-0.6,2.2-0.6s1.6,0.2,2.2,0.6c0.6,0.4,1.1,0.9,1.5,1.6s0.5,1.5,0.5,2.5c0,0.9-0.2,1.8-0.5,2.5s-0.9,1.3-1.5,1.6
			c-0.6,0.4-1.4,0.6-2.2,0.6S245.5,594.9,244.8,594.5z M249.1,592.9c0.5-0.6,0.7-1.5,0.7-2.6s-0.2-2-0.7-2.6s-1.2-0.9-2.1-0.9
			c-0.9,0-1.6,0.3-2.1,0.9c-0.5,0.6-0.7,1.5-0.7,2.6s0.2,2,0.7,2.6s1.2,0.9,2.1,0.9S248.6,593.5,249.1,592.9z"/>
		<path class="st2" d="M255.1,594.5c-0.7-0.4-1.2-0.9-1.5-1.6s-0.5-1.5-0.5-2.5c0-0.9,0.2-1.8,0.5-2.5c0.4-0.7,0.9-1.3,1.5-1.7
			c0.7-0.4,1.4-0.6,2.3-0.6c0.6,0,1.2,0.1,1.8,0.3s1,0.5,1.4,0.9l-0.5,1.1c-0.5-0.4-0.9-0.6-1.3-0.8s-0.9-0.3-1.3-0.3
			c-0.9,0-1.7,0.3-2.2,0.9c-0.5,0.6-0.8,1.5-0.8,2.6s0.3,1.9,0.8,2.5s1.3,0.9,2.2,0.9c0.4,0,0.9-0.1,1.3-0.3s0.9-0.4,1.3-0.8
			l0.5,1.1c-0.4,0.4-0.9,0.6-1.4,0.9c-0.6,0.2-1.2,0.3-1.8,0.3C256.5,595,255.8,594.9,255.1,594.5z"/>
		<path class="st2" d="M270.1,590.3h-6.6c0,1.2,0.3,2,0.8,2.6s1.3,0.9,2.3,0.9c1.1,0,2-0.4,2.9-1.1l0.5,1.1
			c-0.4,0.4-0.9,0.7-1.5,0.9s-1.3,0.3-1.9,0.3c-1.4,0-2.5-0.4-3.3-1.3c-0.8-0.8-1.2-2-1.2-3.4c0-0.9,0.2-1.7,0.5-2.5
			c0.4-0.7,0.9-1.3,1.5-1.7s1.4-0.6,2.2-0.6c1.2,0,2.1,0.4,2.8,1.2s1,1.9,1,3.2L270.1,590.3L270.1,590.3z M264.4,587.5
			c-0.5,0.5-0.8,1.1-0.9,1.9h5.3c-0.1-0.9-0.3-1.5-0.7-1.9c-0.4-0.4-1-0.7-1.8-0.7S264.9,587,264.4,587.5z"/>
		<path class="st2" d="M271.8,593.9l0.5-1.1c0.5,0.4,1,0.7,1.5,0.8c0.5,0.2,1.1,0.3,1.7,0.3c0.7,0,1.2-0.1,1.6-0.4
			c0.4-0.2,0.5-0.6,0.5-1s-0.1-0.6-0.4-0.9c-0.2-0.2-0.6-0.4-1.2-0.5l-1.5-0.4c-0.8-0.2-1.3-0.5-1.8-0.9s-0.6-0.9-0.6-1.5
			c0-0.8,0.3-1.4,1-1.9c0.6-0.5,1.5-0.7,2.5-0.7c0.6,0,1.2,0.1,1.8,0.3s1,0.5,1.4,0.9l-0.5,1.1c-0.9-0.7-1.8-1.1-2.7-1.1
			c-0.6,0-1.1,0.1-1.5,0.4s-0.5,0.6-0.5,1s0.1,0.7,0.3,0.9s0.6,0.4,1.1,0.5l1.5,0.4c0.8,0.2,1.5,0.5,1.9,0.9s0.6,0.9,0.6,1.6
			c0,0.8-0.3,1.4-1,1.9c-0.6,0.5-1.5,0.7-2.6,0.7C273.8,595,272.6,594.7,271.8,593.9z"/>
		<path class="st2" d="M280.7,593.9l0.5-1.1c0.5,0.4,1,0.7,1.5,0.8c0.5,0.2,1.1,0.3,1.7,0.3c0.7,0,1.2-0.1,1.6-0.4
			c0.4-0.2,0.5-0.6,0.5-1s-0.1-0.6-0.4-0.9c-0.2-0.2-0.6-0.4-1.2-0.5l-1.5-0.4c-0.8-0.2-1.3-0.5-1.8-0.9s-0.6-0.9-0.6-1.5
			c0-0.8,0.3-1.4,1-1.9c0.6-0.5,1.5-0.7,2.5-0.7c0.6,0,1.2,0.1,1.8,0.3s1,0.5,1.4,0.9l-0.5,1.1c-0.9-0.7-1.8-1.1-2.7-1.1
			c-0.6,0-1.1,0.1-1.5,0.4s-0.5,0.6-0.5,1s0.1,0.7,0.3,0.9s0.6,0.4,1.1,0.5l1.5,0.4c0.8,0.2,1.5,0.5,1.9,0.9s0.6,0.9,0.6,1.6
			c0,0.8-0.3,1.4-1,1.9c-0.6,0.5-1.5,0.7-2.6,0.7C282.8,595,281.6,594.7,280.7,593.9z"/>
	</g>
	<rect x="190.2" y="331.2" class="st5" width="135" height="63.5"/>
	<g class="st4">
		<path class="st3" d="M235.3,343.3h-6.7l-1.4,3.3h-1.5l5.6-12.8h1.3l5.6,12.8h-1.5L235.3,343.3z M234.8,342l-2.8-6.6l-2.8,6.6
			H234.8z"/>
		<path class="st3" d="M248,337.5v9c0,1.3-0.3,2.4-1,3.1s-1.7,1-3.1,1c-1.4,0-2.6-0.3-3.6-0.9l0.3-1.2c0.6,0.3,1.1,0.6,1.6,0.7
			s1.1,0.2,1.7,0.2c0.9,0,1.5-0.2,2-0.7s0.7-1.1,0.7-2.1v-2.1c-0.3,0.6-0.7,1-1.2,1.3s-1.2,0.5-1.9,0.5c-0.8,0-1.5-0.2-2.1-0.6
			s-1.1-0.9-1.4-1.6c-0.3-0.7-0.5-1.5-0.5-2.4s0.2-1.7,0.5-2.4c0.3-0.7,0.8-1.2,1.4-1.6s1.3-0.6,2.1-0.6c0.7,0,1.3,0.2,1.9,0.5
			c0.5,0.3,0.9,0.8,1.2,1.3v-1.6h1.4L248,337.5L248,337.5z M245.8,344.2c0.5-0.6,0.7-1.4,0.7-2.4s-0.2-1.8-0.7-2.4s-1.2-0.9-2.1-0.9
			c-0.9,0-1.6,0.3-2.1,0.9s-0.8,1.4-0.8,2.4s0.3,1.8,0.8,2.4s1.2,0.9,2.1,0.9S245.3,344.8,245.8,344.2z"/>
		<path class="st3" d="M258.4,342h-6.6c0,1.2,0.3,2,0.8,2.6s1.3,0.9,2.3,0.9c1.1,0,2-0.4,2.9-1.1l0.5,1.1c-0.4,0.4-0.9,0.7-1.5,0.9
			s-1.3,0.3-1.9,0.3c-1.4,0-2.5-0.4-3.3-1.3c-0.8-0.8-1.2-2-1.2-3.4c0-0.9,0.2-1.7,0.5-2.5c0.4-0.7,0.9-1.3,1.5-1.7
			c0.6-0.4,1.4-0.6,2.2-0.6c1.2,0,2.1,0.4,2.8,1.2s1,1.9,1,3.2V342z M252.7,339.1c-0.5,0.5-0.8,1.1-0.9,1.9h5.3
			c-0.1-0.9-0.3-1.5-0.7-1.9c-0.4-0.4-1-0.7-1.8-0.7S253.2,338.7,252.7,339.1z"/>
		<path class="st3" d="M268.4,340.9v5.7h-1.5V341c0-0.8-0.2-1.5-0.5-1.8s-0.9-0.6-1.6-0.6c-0.8,0-1.5,0.3-2,0.8s-0.8,1.2-0.8,2.1
			v5.2h-1.5V340c0-0.9,0-1.8-0.1-2.5h1.4l0.1,1.6c0.3-0.6,0.7-1,1.2-1.4c0.6-0.3,1.2-0.5,1.9-0.5
			C267.3,337.3,268.4,338.5,268.4,340.9z"/>
		<path class="st3" d="M272.7,346.1c-0.7-0.4-1.2-0.9-1.5-1.6s-0.5-1.5-0.5-2.5c0-0.9,0.2-1.8,0.5-2.5c0.4-0.7,0.9-1.3,1.5-1.7
			c0.7-0.4,1.4-0.6,2.3-0.6c0.6,0,1.2,0.1,1.8,0.3s1,0.5,1.4,0.9l-0.5,1.1c-0.5-0.4-0.9-0.6-1.3-0.8s-0.9-0.3-1.3-0.3
			c-0.9,0-1.7,0.3-2.2,0.9s-0.8,1.5-0.8,2.6s0.3,1.9,0.8,2.5s1.3,0.9,2.2,0.9c0.4,0,0.9-0.1,1.3-0.3s0.9-0.4,1.3-0.8l0.5,1.1
			c-0.4,0.4-0.9,0.6-1.4,0.9c-0.6,0.2-1.2,0.3-1.8,0.3C274.1,346.7,273.3,346.5,272.7,346.1z"/>
		<path class="st3" d="M288,337.5l-4.2,9.9c-0.4,1-1,1.8-1.7,2.3s-1.5,0.8-2.5,1l-0.3-1.1c0.9-0.2,1.5-0.4,1.9-0.8
			c0.4-0.3,0.8-0.8,1.1-1.5l0.4-0.8l-3.8-9h1.5l3.1,7.5l3.1-7.5H288z"/>
	</g>
	<g class="st4">
		<path class="st3" d="M208.9,364.9h-6.7l-1.4,3.3h-1.5l5.6-12.8h1.3l5.6,12.8h-1.5L208.9,364.9z M208.4,363.6l-2.8-6.6l-2.8,6.6
			H208.4z"/>
		<path class="st3" d="M221.1,359.1v9.1h-1.4v-1.6c-0.3,0.6-0.7,1-1.2,1.3s-1.1,0.4-1.7,0.4c-1.1,0-1.9-0.3-2.4-0.9
			c-0.6-0.6-0.8-1.5-0.8-2.7v-5.6h1.5v5.6c0,0.8,0.2,1.4,0.5,1.8s0.8,0.6,1.5,0.6c0.8,0,1.5-0.3,1.9-0.8c0.5-0.5,0.7-1.2,0.7-2.1
			v-5.1L221.1,359.1L221.1,359.1z"/>
		<path class="st3" d="M225.9,360.3v5c0,0.7,0.1,1.1,0.4,1.4c0.3,0.3,0.7,0.4,1.2,0.4c0.3,0,0.7-0.1,1-0.2v1.2
			c-0.4,0.1-0.8,0.2-1.3,0.2c-0.9,0-1.5-0.2-2-0.7s-0.7-1.2-0.7-2.2v-5.1h-1.8v-1.2h1.8v-2.3l1.5-0.5v2.8h2.6v1.2L225.9,360.3
			L225.9,360.3z"/>
		<path class="st3" d="M238,362.5v5.7h-1.5v-5.6c0-0.8-0.2-1.5-0.5-1.8s-0.9-0.6-1.6-0.6c-0.8,0-1.5,0.3-2,0.8s-0.8,1.2-0.8,2.1v5.2
			h-1.5v-13.2h1.5v5.7c0.3-0.6,0.7-1,1.2-1.3s1.1-0.4,1.8-0.4C236.9,358.9,238,360.1,238,362.5z"/>
		<path class="st3" d="M242.3,367.7c-0.6-0.4-1.1-0.9-1.5-1.6s-0.5-1.5-0.5-2.5c0-0.9,0.2-1.8,0.5-2.5s0.9-1.3,1.5-1.6
			c0.6-0.4,1.4-0.6,2.2-0.6s1.6,0.2,2.2,0.6c0.6,0.4,1.1,0.9,1.5,1.6s0.5,1.5,0.5,2.5c0,0.9-0.2,1.8-0.5,2.5s-0.9,1.3-1.5,1.6
			c-0.6,0.4-1.4,0.6-2.2,0.6S242.9,368.1,242.3,367.7z M246.6,366.2c0.5-0.6,0.7-1.5,0.7-2.6s-0.2-2-0.7-2.6s-1.2-0.9-2.1-0.9
			c-0.9,0-1.6,0.3-2.1,0.9s-0.7,1.5-0.7,2.6s0.2,2,0.7,2.6s1.2,0.9,2.1,0.9S246.1,366.8,246.6,366.2z"/>
		<path class="st3" d="M256.1,359v1.3c-0.3-0.1-0.6-0.1-1-0.1c-0.9,0-1.5,0.3-2,0.8c-0.4,0.5-0.6,1.2-0.6,2v5.2H251v-6.5
			c0-0.9,0-1.8-0.1-2.5h1.4l0.1,1.7c0.2-0.6,0.6-1.1,1.1-1.4s1.1-0.5,1.7-0.5C255.6,358.9,255.9,358.9,256.1,359z"/>
		<path class="st3" d="M259.2,355.3v1.7h-1.8v-1.7H259.2z M257.6,359.1h1.5v9.1h-1.5V359.1z"/>
		<path class="st3" d="M269,367v1.2h-7.6v-1l5.7-6.9h-5.5v-1.2h7.3v1.1l-5.7,6.8H269z"/>
		<path class="st3" d="M279,359.1v9.1h-1.4v-1.6c-0.3,0.6-0.7,1-1.2,1.3s-1.2,0.5-1.9,0.5c-0.8,0-1.5-0.2-2.1-0.6s-1.1-0.9-1.4-1.6
			s-0.5-1.5-0.5-2.5c0-0.9,0.2-1.8,0.5-2.5s0.8-1.3,1.4-1.7c0.6-0.4,1.3-0.6,2.1-0.6c0.7,0,1.3,0.2,1.9,0.5c0.5,0.3,0.9,0.8,1.2,1.3
			v-1.6L279,359.1L279,359.1z M276.8,366.2c0.5-0.6,0.7-1.5,0.7-2.6s-0.2-2-0.7-2.6s-1.2-0.9-2.1-0.9s-1.6,0.3-2.1,0.9
			s-0.7,1.5-0.7,2.6s0.2,2,0.7,2.6s1.2,0.9,2.1,0.9C275.7,367.1,276.3,366.8,276.8,366.2z"/>
		<path class="st3" d="M283.7,360.3v5c0,0.7,0.1,1.1,0.4,1.4s0.7,0.4,1.2,0.4c0.3,0,0.7-0.1,1-0.2v1.2c-0.4,0.1-0.8,0.2-1.3,0.2
			c-0.9,0-1.5-0.2-2-0.7s-0.7-1.2-0.7-2.2v-5.1h-1.8v-1.2h1.8v-2.3l1.5-0.5v2.8h2.6v1.2L283.7,360.3L283.7,360.3z"/>
		<path class="st3" d="M289.7,355.3v1.7H288v-1.7H289.7z M288.1,359.1h1.5v9.1h-1.5V359.1z"/>
		<path class="st3" d="M293.9,367.7c-0.6-0.4-1.1-0.9-1.5-1.6s-0.5-1.5-0.5-2.5c0-0.9,0.2-1.8,0.5-2.5s0.9-1.3,1.5-1.6
			c0.6-0.4,1.4-0.6,2.2-0.6s1.6,0.2,2.2,0.6s1.1,0.9,1.5,1.6s0.5,1.5,0.5,2.5c0,0.9-0.2,1.8-0.5,2.5s-0.9,1.3-1.5,1.6
			c-0.6,0.4-1.4,0.6-2.2,0.6S294.5,368.1,293.9,367.7z M298.2,366.2c0.5-0.6,0.7-1.5,0.7-2.6s-0.2-2-0.7-2.6s-1.2-0.9-2.1-0.9
			s-1.6,0.3-2.1,0.9s-0.7,1.5-0.7,2.6s0.2,2,0.7,2.6s1.2,0.9,2.1,0.9S297.7,366.8,298.2,366.2z"/>
		<path class="st3" d="M310.5,362.5v5.7H309v-5.6c0-0.8-0.2-1.5-0.5-1.8s-0.9-0.6-1.6-0.6c-0.8,0-1.5,0.3-2,0.8s-0.8,1.2-0.8,2.1
			v5.2h-1.5v-6.5c0-0.9,0-1.8-0.1-2.5h1.4l0.1,1.6c0.3-0.6,0.7-1,1.2-1.4c0.6-0.3,1.2-0.5,1.9-0.5
			C309.4,358.9,310.5,360.1,310.5,362.5z"/>
	</g>
	<g class="st4">
		<path class="st3" d="M225.6,376.9h5.1c1.3,0,2.3,0.3,3.1,1c0.7,0.6,1.1,1.5,1.1,2.6s-0.4,2-1.1,2.6c-0.7,0.6-1.8,1-3.1,1h-3.6v5.6
			h-1.5V376.9z M230.6,382.9c0.9,0,1.7-0.2,2.1-0.6s0.7-1,0.7-1.8s-0.2-1.4-0.7-1.8s-1.2-0.6-2.1-0.6h-3.5v4.7L230.6,382.9
			L230.6,382.9z"/>
		<path class="st3" d="M242,380.6v1.3c-0.3-0.1-0.6-0.1-1-0.1c-0.9,0-1.5,0.3-2,0.8c-0.4,0.5-0.6,1.2-0.6,2v5.2H237v-6.5
			c0-0.9,0-1.8-0.1-2.5h1.4l0.1,1.7c0.2-0.6,0.6-1.1,1.1-1.4s1.1-0.5,1.7-0.5C241.5,380.5,241.8,380.5,242,380.6z"/>
		<path class="st3" d="M244.8,389.3c-0.6-0.4-1.1-0.9-1.5-1.6s-0.5-1.5-0.5-2.5c0-0.9,0.2-1.8,0.5-2.5s0.9-1.3,1.5-1.6
			c0.6-0.4,1.4-0.6,2.2-0.6s1.6,0.2,2.2,0.6c0.6,0.4,1.1,0.9,1.5,1.6s0.5,1.5,0.5,2.5c0,0.9-0.2,1.8-0.5,2.5s-0.9,1.3-1.5,1.6
			c-0.6,0.4-1.4,0.6-2.2,0.6S245.5,389.7,244.8,389.3z M249.1,387.8c0.5-0.6,0.7-1.5,0.7-2.6s-0.2-2-0.7-2.6s-1.2-0.9-2.1-0.9
			c-0.9,0-1.6,0.3-2.1,0.9s-0.7,1.5-0.7,2.6s0.2,2,0.7,2.6s1.2,0.9,2.1,0.9S248.7,388.4,249.1,387.8z"/>
		<path class="st3" d="M255.1,389.3c-0.7-0.4-1.2-0.9-1.5-1.6s-0.5-1.5-0.5-2.5c0-0.9,0.2-1.8,0.5-2.5c0.4-0.7,0.9-1.3,1.5-1.7
			c0.7-0.4,1.4-0.6,2.3-0.6c0.6,0,1.2,0.1,1.8,0.3s1,0.5,1.4,0.9l-0.5,1.1c-0.5-0.4-0.9-0.6-1.3-0.8s-0.9-0.3-1.3-0.3
			c-0.9,0-1.7,0.3-2.2,0.9s-0.8,1.5-0.8,2.6s0.3,1.9,0.8,2.5s1.3,0.9,2.2,0.9c0.4,0,0.9-0.1,1.3-0.3s0.9-0.4,1.3-0.8l0.5,1.1
			c-0.4,0.4-0.9,0.6-1.4,0.9c-0.6,0.2-1.2,0.3-1.8,0.3C256.5,389.9,255.8,389.7,255.1,389.3z"/>
		<path class="st3" d="M270.1,385.2h-6.6c0,1.2,0.3,2,0.8,2.6s1.3,0.9,2.3,0.9c1.1,0,2-0.4,2.9-1.1l0.5,1.1
			c-0.4,0.4-0.9,0.7-1.5,0.9s-1.3,0.3-1.9,0.3c-1.4,0-2.5-0.4-3.3-1.3c-0.8-0.8-1.2-2-1.2-3.4c0-0.9,0.2-1.7,0.5-2.5
			c0.4-0.7,0.9-1.3,1.5-1.7c0.6-0.4,1.4-0.6,2.2-0.6c1.2,0,2.1,0.4,2.8,1.2s1,1.9,1,3.2L270.1,385.2L270.1,385.2z M264.4,382.3
			c-0.5,0.5-0.8,1.1-0.9,1.9h5.3c-0.1-0.9-0.3-1.5-0.7-1.9c-0.4-0.4-1-0.7-1.8-0.7S264.9,381.9,264.4,382.3z"/>
		<path class="st3" d="M271.8,388.7l0.5-1.1c0.5,0.4,1,0.7,1.5,0.8c0.5,0.2,1.1,0.3,1.7,0.3c0.7,0,1.2-0.1,1.6-0.4
			c0.4-0.2,0.5-0.6,0.5-1s-0.1-0.6-0.4-0.9c-0.2-0.2-0.6-0.4-1.2-0.5l-1.5-0.4c-0.8-0.2-1.3-0.5-1.8-0.9s-0.6-0.9-0.6-1.5
			c0-0.8,0.3-1.4,1-1.9c0.6-0.5,1.5-0.7,2.5-0.7c0.6,0,1.2,0.1,1.8,0.3s1,0.5,1.4,0.9l-0.5,1.1c-0.9-0.7-1.8-1.1-2.7-1.1
			c-0.6,0-1.1,0.1-1.5,0.4s-0.5,0.6-0.5,1s0.1,0.7,0.3,0.9s0.6,0.4,1.1,0.5l1.5,0.4c0.8,0.2,1.5,0.5,1.9,0.9s0.6,0.9,0.6,1.6
			c0,0.8-0.3,1.4-1,1.9c-0.6,0.5-1.5,0.7-2.6,0.7C273.9,389.9,272.7,389.5,271.8,388.7z"/>
		<path class="st3" d="M280.7,388.7l0.5-1.1c0.5,0.4,1,0.7,1.5,0.8c0.5,0.2,1.1,0.3,1.7,0.3c0.7,0,1.2-0.1,1.6-0.4
			c0.4-0.2,0.5-0.6,0.5-1s-0.1-0.6-0.4-0.9c-0.2-0.2-0.6-0.4-1.2-0.5l-1.5-0.4c-0.8-0.2-1.3-0.5-1.8-0.9s-0.6-0.9-0.6-1.5
			c0-0.8,0.3-1.4,1-1.9c0.6-0.5,1.5-0.7,2.5-0.7c0.6,0,1.2,0.1,1.8,0.3s1,0.5,1.4,0.9l-0.5,1.1c-0.9-0.7-1.8-1.1-2.7-1.1
			c-0.6,0-1.1,0.1-1.5,0.4s-0.5,0.6-0.5,1s0.1,0.7,0.3,0.9s0.6,0.4,1.1,0.5l1.5,0.4c0.8,0.2,1.5,0.5,1.9,0.9s0.6,0.9,0.6,1.6
			c0,0.8-0.3,1.4-1,1.9c-0.6,0.5-1.5,0.7-2.6,0.7C282.8,389.9,281.6,389.5,280.7,388.7z"/>
	</g>
	<rect x="23.9" y="548.8" class="st5" width="135" height="41.9"/>
	<g class="st4">
		<path class="st2" d="M40.4,551.4h7.9v1.2h-6.5v4.4H48v1.2h-6.1v5.9h-1.5V551.4z"/>
		<path class="st2" d="M57.8,555.1v9.1h-1.4v-1.6c-0.3,0.6-0.7,1-1.2,1.3s-1.1,0.4-1.7,0.4c-1.1,0-1.9-0.3-2.4-0.9
			c-0.6-0.6-0.8-1.5-0.8-2.7v-5.6h1.5v5.6c0,0.8,0.2,1.4,0.5,1.8s0.8,0.6,1.5,0.6c0.8,0,1.5-0.3,1.9-0.8c0.5-0.5,0.7-1.2,0.7-2.1
			v-5.1H57.8z"/>
		<path class="st2" d="M60.6,550.9H62v13.2h-1.5L60.6,550.9L60.6,550.9z"/>
		<path class="st2" d="M64.9,550.9h1.5v13.2h-1.5V550.9z"/>
		<path class="st2" d="M73.3,562.7l0.6-1.1c0.6,0.5,1.3,0.9,1.9,1.2c0.7,0.2,1.4,0.3,2.3,0.3c1,0,1.8-0.2,2.4-0.6
			c0.6-0.4,0.8-1,0.8-1.7c0-0.4-0.1-0.8-0.4-1.1s-0.6-0.5-1.1-0.6c-0.4-0.2-1-0.3-1.8-0.5c-1-0.2-1.8-0.5-2.4-0.7
			c-0.6-0.3-1.2-0.6-1.5-1.1c-0.4-0.5-0.6-1.1-0.6-1.9c0-0.7,0.2-1.4,0.6-1.9c0.4-0.6,0.9-1,1.6-1.3s1.5-0.5,2.5-0.5
			c0.9,0,1.7,0.1,2.5,0.4c0.8,0.3,1.4,0.7,1.9,1.2L82,554c-0.6-0.5-1.2-0.9-1.8-1.1c-0.6-0.2-1.3-0.4-2-0.4c-1,0-1.8,0.2-2.3,0.6
			s-0.8,1-0.8,1.8c0,0.6,0.2,1.1,0.7,1.5c0.5,0.3,1.2,0.6,2.3,0.8c1.1,0.3,2,0.5,2.6,0.7s1.2,0.6,1.6,1s0.6,1,0.6,1.8
			c0,0.7-0.2,1.4-0.6,1.9s-0.9,1-1.6,1.3s-1.6,0.4-2.5,0.4C76.1,564.3,74.5,563.8,73.3,562.7z"/>
		<path class="st2" d="M92.6,559.6H86c0,1.2,0.3,2,0.8,2.6s1.3,0.9,2.3,0.9c1.1,0,2-0.4,2.9-1.1l0.5,1.1c-0.4,0.4-0.9,0.7-1.5,0.9
			s-1.3,0.3-1.9,0.3c-1.4,0-2.5-0.4-3.3-1.3c-0.8-0.8-1.2-2-1.2-3.4c0-0.9,0.2-1.7,0.5-2.5c0.4-0.7,0.9-1.3,1.5-1.7s1.4-0.6,2.2-0.6
			c1.2,0,2.1,0.4,2.8,1.2s1,1.9,1,3.2C92.6,559.2,92.6,559.6,92.6,559.6z M87,556.7c-0.5,0.5-0.8,1.1-0.9,1.9h5.3
			c-0.1-0.9-0.3-1.5-0.7-1.9c-0.4-0.4-1-0.7-1.8-0.7S87.4,556.3,87,556.7z"/>
		<path class="st2" d="M96.4,563.7c-0.7-0.4-1.2-0.9-1.5-1.6s-0.5-1.5-0.5-2.5c0-0.9,0.2-1.8,0.5-2.5c0.4-0.7,0.9-1.3,1.5-1.7
			c0.7-0.4,1.4-0.6,2.3-0.6c0.6,0,1.2,0.1,1.8,0.3s1,0.5,1.4,0.9l-0.5,1.1c-0.5-0.4-0.9-0.6-1.3-0.8s-0.9-0.3-1.3-0.3
			c-0.9,0-1.7,0.3-2.2,0.9c-0.5,0.6-0.8,1.5-0.8,2.6s0.3,1.9,0.8,2.5s1.3,0.9,2.2,0.9c0.4,0,0.9-0.1,1.3-0.3s0.9-0.4,1.3-0.8
			l0.5,1.1c-0.4,0.4-0.9,0.6-1.4,0.9c-0.6,0.2-1.2,0.3-1.8,0.3C97.8,564.3,97,564.1,96.4,563.7z"/>
		<path class="st2" d="M111.3,555.1v9.1h-1.4v-1.6c-0.3,0.6-0.7,1-1.2,1.3s-1.1,0.4-1.7,0.4c-1.1,0-1.9-0.3-2.4-0.9
			c-0.6-0.6-0.8-1.5-0.8-2.7v-5.6h1.5v5.6c0,0.8,0.2,1.4,0.5,1.8s0.8,0.6,1.5,0.6c0.8,0,1.5-0.3,1.9-0.8c0.5-0.5,0.7-1.2,0.7-2.1
			v-5.1H111.3z"/>
		<path class="st2" d="M119.2,555v1.3c-0.3-0.1-0.6-0.1-1-0.1c-0.9,0-1.5,0.3-2,0.8c-0.4,0.5-0.6,1.2-0.6,2v5.2h-1.5v-6.5
			c0-0.9,0-1.8-0.1-2.5h1.4l0.1,1.7c0.2-0.6,0.6-1.1,1.1-1.4c0.5-0.3,1.1-0.5,1.7-0.5C118.7,554.9,118.9,554.9,119.2,555z"/>
		<path class="st2" d="M122.3,551.3v1.7h-1.8v-1.7H122.3z M120.7,555.1h1.5v9.1h-1.5V555.1z"/>
		<path class="st2" d="M126.9,556.3v5c0,0.7,0.1,1.1,0.4,1.4c0.3,0.3,0.7,0.4,1.2,0.4c0.3,0,0.7-0.1,1-0.2v1.2
			c-0.4,0.1-0.8,0.2-1.3,0.2c-0.9,0-1.5-0.2-2-0.7s-0.7-1.2-0.7-2.2v-5.1h-1.8v-1.2h1.8v-2.3l1.5-0.5v2.8h2.6v1.2L126.9,556.3
			L126.9,556.3z"/>
		<path class="st2" d="M139.3,555.1l-4.2,9.9c-0.4,1-1,1.8-1.7,2.3s-1.5,0.8-2.5,1l-0.3-1.1c0.9-0.2,1.5-0.4,1.9-0.8
			c0.4-0.3,0.8-0.8,1.1-1.5l0.4-0.8l-3.8-9h1.5l3.1,7.5l3.1-7.5L139.3,555.1L139.3,555.1z"/>
	</g>
	<g class="st4">
		<path class="st2" d="M49.1,582.5h-6.7l-1.4,3.3h-1.5l5.6-12.8h1.3l5.6,12.8h-1.5L49.1,582.5z M48.6,581.3l-2.8-6.6l-2.8,6.6H48.6z
			"/>
		<path class="st2" d="M53.1,584.7l0.5-1.1c0.5,0.4,1,0.7,1.5,0.8c0.5,0.2,1.1,0.3,1.7,0.3c0.7,0,1.2-0.1,1.6-0.4
			c0.4-0.2,0.5-0.6,0.5-1s-0.1-0.6-0.4-0.9c-0.2-0.2-0.6-0.4-1.2-0.5l-1.5-0.4c-0.8-0.2-1.3-0.5-1.8-0.9s-0.6-0.9-0.6-1.5
			c0-0.8,0.3-1.4,1-1.9c0.6-0.5,1.5-0.7,2.5-0.7c0.6,0,1.2,0.1,1.8,0.3s1,0.5,1.4,0.9l-0.5,1.1c-0.9-0.7-1.8-1.1-2.7-1.1
			c-0.6,0-1.1,0.1-1.5,0.4s-0.5,0.6-0.5,1s0.1,0.7,0.3,0.9s0.6,0.4,1.1,0.5l1.5,0.4c0.8,0.2,1.5,0.5,1.9,0.9s0.6,0.9,0.6,1.6
			c0,0.8-0.3,1.4-1,1.9c-0.6,0.5-1.5,0.7-2.6,0.7C55.2,585.9,54,585.5,53.1,584.7z"/>
		<path class="st2" d="M62,584.7l0.5-1.1c0.5,0.4,1,0.7,1.5,0.8c0.5,0.2,1.1,0.3,1.7,0.3c0.7,0,1.2-0.1,1.6-0.4
			c0.4-0.2,0.5-0.6,0.5-1s-0.1-0.6-0.4-0.9c-0.2-0.2-0.6-0.4-1.2-0.5l-1.5-0.4c-0.8-0.2-1.3-0.5-1.8-0.9s-0.6-0.9-0.6-1.5
			c0-0.8,0.3-1.4,1-1.9c0.6-0.5,1.5-0.7,2.5-0.7c0.6,0,1.2,0.1,1.8,0.3s1,0.5,1.4,0.9l-0.5,1.1c-0.9-0.7-1.8-1.1-2.7-1.1
			c-0.6,0-1.1,0.1-1.5,0.4s-0.5,0.6-0.5,1s0.1,0.7,0.3,0.9s0.6,0.4,1.1,0.5l1.5,0.4c0.8,0.2,1.5,0.5,1.9,0.9s0.6,0.9,0.6,1.6
			c0,0.8-0.3,1.4-1,1.9c-0.6,0.5-1.5,0.7-2.6,0.7C64.1,585.9,62.9,585.5,62,584.7z"/>
		<path class="st2" d="M79.1,581.2h-6.6c0,1.2,0.3,2,0.8,2.6s1.3,0.9,2.3,0.9c1.1,0,2-0.4,2.9-1.1l0.5,1.1c-0.4,0.4-0.9,0.7-1.5,0.9
			s-1.3,0.3-1.9,0.3c-1.4,0-2.5-0.4-3.3-1.3c-0.8-0.8-1.2-2-1.2-3.4c0-0.9,0.2-1.7,0.5-2.5c0.4-0.7,0.9-1.3,1.5-1.7s1.4-0.6,2.2-0.6
			c1.2,0,2.1,0.4,2.8,1.2s1,1.9,1,3.2C79.1,580.8,79.1,581.2,79.1,581.2z M73.4,578.3c-0.5,0.5-0.8,1.1-0.9,1.9h5.3
			c-0.1-0.9-0.3-1.5-0.7-1.9c-0.4-0.4-1-0.7-1.8-0.7S73.9,577.9,73.4,578.3z"/>
		<path class="st2" d="M80.7,584.7l0.5-1.1c0.5,0.4,1,0.7,1.5,0.8c0.5,0.2,1.1,0.3,1.7,0.3c0.7,0,1.2-0.1,1.6-0.4
			c0.4-0.2,0.5-0.6,0.5-1s-0.1-0.6-0.4-0.9c-0.2-0.2-0.6-0.4-1.2-0.5l-1.5-0.4c-0.8-0.2-1.3-0.5-1.8-0.9s-0.6-0.9-0.6-1.5
			c0-0.8,0.3-1.4,1-1.9c0.6-0.5,1.5-0.7,2.5-0.7c0.6,0,1.2,0.1,1.8,0.3s1,0.5,1.4,0.9l-0.5,1.1c-0.9-0.7-1.8-1.1-2.7-1.1
			c-0.6,0-1.1,0.1-1.5,0.4s-0.5,0.6-0.5,1s0.1,0.7,0.3,0.9s0.6,0.4,1.1,0.5l1.5,0.4c0.8,0.2,1.5,0.5,1.9,0.9s0.6,0.9,0.6,1.6
			c0,0.8-0.3,1.4-1,1.9c-0.6,0.5-1.5,0.7-2.6,0.7C82.8,585.9,81.6,585.5,80.7,584.7z"/>
		<path class="st2" d="M89.7,584.7l0.5-1.1c0.5,0.4,1,0.7,1.5,0.8c0.5,0.2,1.1,0.3,1.7,0.3c0.7,0,1.2-0.1,1.6-0.4
			c0.4-0.2,0.5-0.6,0.5-1s-0.1-0.6-0.4-0.9c-0.2-0.2-0.6-0.4-1.2-0.5l-1.5-0.4c-0.8-0.2-1.3-0.5-1.8-0.9s-0.6-0.9-0.6-1.5
			c0-0.8,0.3-1.4,1-1.9c0.6-0.5,1.5-0.7,2.5-0.7c0.6,0,1.2,0.1,1.8,0.3s1,0.5,1.4,0.9l-0.5,1.1c-0.9-0.7-1.8-1.1-2.7-1.1
			c-0.6,0-1.1,0.1-1.5,0.4s-0.5,0.6-0.5,1s0.1,0.7,0.3,0.9s0.6,0.4,1.1,0.5l1.5,0.4c0.8,0.2,1.5,0.5,1.9,0.9s0.6,0.9,0.6,1.6
			c0,0.8-0.3,1.4-1,1.9c-0.6,0.5-1.5,0.7-2.6,0.7C91.8,585.9,90.5,585.5,89.7,584.7z"/>
		<path class="st2" d="M112.2,580.1v5.7h-1.5v-5.6c0-0.9-0.1-1.5-0.4-1.9s-0.8-0.6-1.4-0.6c-0.8,0-1.4,0.3-1.8,0.8s-0.6,1.2-0.6,2.1
			v5.2H105v-5.6c0-0.8-0.1-1.5-0.4-1.8c-0.3-0.4-0.8-0.6-1.4-0.6c-0.8,0-1.4,0.3-1.8,0.8s-0.7,1.2-0.7,2.1v5.2h-1.5v-6.5
			c0-0.9,0-1.8-0.1-2.5h1.4l0.1,1.6c0.3-0.6,0.6-1,1.1-1.3s1.1-0.5,1.7-0.5c0.7,0,1.3,0.1,1.8,0.4s0.8,0.7,1,1.3
			c0.3-0.5,0.7-1,1.2-1.3s1.1-0.5,1.8-0.5C111.2,576.5,112.2,577.7,112.2,580.1z"/>
		<path class="st2" d="M122.5,581.2h-6.6c0,1.2,0.3,2,0.8,2.6s1.3,0.9,2.3,0.9c1.1,0,2-0.4,2.9-1.1l0.5,1.1
			c-0.4,0.4-0.9,0.7-1.5,0.9s-1.3,0.3-1.9,0.3c-1.4,0-2.5-0.4-3.3-1.3c-0.8-0.8-1.2-2-1.2-3.4c0-0.9,0.2-1.7,0.5-2.5
			c0.4-0.7,0.9-1.3,1.5-1.7s1.4-0.6,2.2-0.6c1.2,0,2.1,0.4,2.8,1.2s1,1.9,1,3.2C122.5,580.8,122.5,581.2,122.5,581.2z M116.9,578.3
			c-0.5,0.5-0.8,1.1-0.9,1.9h5.3c-0.1-0.9-0.3-1.5-0.7-1.9c-0.4-0.4-1-0.7-1.8-0.7S117.3,577.9,116.9,578.3z"/>
		<path class="st2" d="M132.5,580.1v5.7H131v-5.6c0-0.8-0.2-1.5-0.5-1.8s-0.9-0.6-1.6-0.6c-0.8,0-1.5,0.3-2,0.8s-0.8,1.2-0.8,2.1
			v5.2h-1.5v-6.5c0-0.9,0-1.8-0.1-2.5h1.4l0.1,1.6c0.3-0.6,0.7-1,1.2-1.4c0.6-0.3,1.2-0.5,1.9-0.5
			C131.4,576.5,132.5,577.7,132.5,580.1z"/>
		<path class="st2" d="M137.2,577.9v5c0,0.7,0.1,1.1,0.4,1.4c0.3,0.3,0.7,0.4,1.2,0.4c0.3,0,0.7-0.1,1-0.2v1.2
			c-0.4,0.1-0.8,0.2-1.3,0.2c-0.9,0-1.5-0.2-2-0.7s-0.7-1.2-0.7-2.2v-5.1H134v-1.2h1.8v-2.3l1.5-0.5v2.8h2.6v1.2L137.2,577.9
			L137.2,577.9z"/>
	</g>
	<rect x="23.9" y="343.6" class="st5" width="135" height="41.9"/>
	<g class="st4">
		<path class="st3" d="M40.4,346.2h7.9v1.2h-6.5v4.4H48v1.2h-6.1v5.9h-1.5V346.2z"/>
		<path class="st3" d="M57.8,350v9.1h-1.4v-1.6c-0.3,0.6-0.7,1-1.2,1.3s-1.1,0.4-1.7,0.4c-1.1,0-1.9-0.3-2.4-0.9
			c-0.6-0.6-0.8-1.5-0.8-2.7V350h1.5v5.6c0,0.8,0.2,1.4,0.5,1.8s0.8,0.6,1.5,0.6c0.8,0,1.5-0.3,1.9-0.8c0.5-0.5,0.7-1.2,0.7-2.1V350
			H57.8z"/>
		<path class="st3" d="M60.6,345.8H62V359h-1.5L60.6,345.8L60.6,345.8z"/>
		<path class="st3" d="M64.9,345.8h1.5V359h-1.5V345.8z"/>
		<path class="st3" d="M73.3,357.5l0.6-1.1c0.6,0.5,1.3,0.9,1.9,1.2c0.7,0.2,1.4,0.3,2.3,0.3c1,0,1.8-0.2,2.4-0.6s0.8-1,0.8-1.7
			c0-0.4-0.1-0.8-0.4-1.1c-0.3-0.3-0.6-0.5-1.1-0.6c-0.4-0.2-1-0.3-1.8-0.5c-1-0.2-1.8-0.5-2.4-0.7c-0.6-0.3-1.2-0.6-1.5-1.1
			c-0.4-0.5-0.6-1.1-0.6-1.9c0-0.7,0.2-1.4,0.6-1.9c0.4-0.6,0.9-1,1.6-1.3s1.5-0.5,2.5-0.5c0.9,0,1.7,0.1,2.5,0.4s1.4,0.7,1.9,1.2
			l-0.6,1.1c-0.6-0.5-1.2-0.9-1.8-1.1c-0.6-0.2-1.3-0.4-2-0.4c-1,0-1.8,0.2-2.3,0.6s-0.8,1-0.8,1.8c0,0.6,0.2,1.1,0.7,1.5
			c0.5,0.3,1.2,0.6,2.3,0.8c1.1,0.3,2,0.5,2.6,0.7s1.2,0.6,1.6,1s0.6,1,0.6,1.8c0,0.7-0.2,1.4-0.6,1.9s-0.9,1-1.6,1.3
			s-1.6,0.4-2.5,0.4C76.1,359.2,74.5,358.6,73.3,357.5z"/>
		<path class="st3" d="M92.6,354.4H86c0,1.2,0.3,2,0.8,2.6s1.3,0.9,2.3,0.9c1.1,0,2-0.4,2.9-1.1l0.5,1.1c-0.4,0.4-0.9,0.7-1.5,0.9
			s-1.3,0.3-1.9,0.3c-1.4,0-2.5-0.4-3.3-1.3c-0.8-0.8-1.2-2-1.2-3.4c0-0.9,0.2-1.7,0.5-2.5c0.4-0.7,0.9-1.3,1.5-1.7
			c0.6-0.4,1.4-0.6,2.2-0.6c1.2,0,2.1,0.4,2.8,1.2s1,1.9,1,3.2C92.6,354,92.6,354.4,92.6,354.4z M87,351.6c-0.5,0.5-0.8,1.1-0.9,1.9
			h5.3c-0.1-0.9-0.3-1.5-0.7-1.9c-0.4-0.4-1-0.7-1.8-0.7S87.4,351.1,87,351.6z"/>
		<path class="st3" d="M96.4,358.6c-0.7-0.4-1.2-0.9-1.5-1.6s-0.5-1.5-0.5-2.5c0-0.9,0.2-1.8,0.5-2.5c0.4-0.7,0.9-1.3,1.5-1.7
			c0.7-0.4,1.4-0.6,2.3-0.6c0.6,0,1.2,0.1,1.8,0.3s1,0.5,1.4,0.9l-0.5,1.1c-0.5-0.4-0.9-0.6-1.3-0.8s-0.9-0.3-1.3-0.3
			c-0.9,0-1.7,0.3-2.2,0.9s-0.8,1.5-0.8,2.6s0.3,1.9,0.8,2.5s1.3,0.9,2.2,0.9c0.4,0,0.9-0.1,1.3-0.3s0.9-0.4,1.3-0.8l0.5,1.1
			c-0.4,0.4-0.9,0.6-1.4,0.9c-0.6,0.2-1.2,0.3-1.8,0.3C97.8,359.1,97,359,96.4,358.6z"/>
		<path class="st3" d="M111.3,350v9.1h-1.4v-1.6c-0.3,0.6-0.7,1-1.2,1.3s-1.1,0.4-1.7,0.4c-1.1,0-1.9-0.3-2.4-0.9
			c-0.6-0.6-0.8-1.5-0.8-2.7V350h1.5v5.6c0,0.8,0.2,1.4,0.5,1.8s0.8,0.6,1.5,0.6c0.8,0,1.5-0.3,1.9-0.8c0.5-0.5,0.7-1.2,0.7-2.1V350
			H111.3z"/>
		<path class="st3" d="M119.2,349.9v1.3c-0.3-0.1-0.6-0.1-1-0.1c-0.9,0-1.5,0.3-2,0.8c-0.4,0.5-0.6,1.2-0.6,2v5.2h-1.5v-6.5
			c0-0.9,0-1.8-0.1-2.5h1.4l0.1,1.7c0.2-0.6,0.6-1.1,1.1-1.4s1.1-0.5,1.7-0.5C118.7,349.8,118.9,349.8,119.2,349.9z"/>
		<path class="st3" d="M122.3,346.1v1.7h-1.8v-1.7H122.3z M120.7,350h1.5v9.1h-1.5V350z"/>
		<path class="st3" d="M126.9,351.1v5c0,0.7,0.1,1.1,0.4,1.4s0.7,0.4,1.2,0.4c0.3,0,0.7-0.1,1-0.2v1.2c-0.4,0.1-0.8,0.2-1.3,0.2
			c-0.9,0-1.5-0.2-2-0.7s-0.7-1.2-0.7-2.2v-5.1h-1.8V350h1.8v-2.3l1.5-0.5v2.8h2.6v1.2h-2.7C126.9,351.2,126.9,351.1,126.9,351.1z"
			/>
		<path class="st3" d="M139.3,350l-4.2,9.9c-0.4,1-1,1.8-1.7,2.3s-1.5,0.8-2.5,1l-0.3-1.1c0.9-0.2,1.5-0.4,1.9-0.8
			c0.4-0.3,0.8-0.8,1.1-1.5l0.4-0.8l-3.8-9h1.5l3.1,7.5l3.1-7.5H139.3z"/>
	</g>
	<g class="st4">
		<path class="st3" d="M49.1,377.3h-6.7l-1.4,3.3h-1.5l5.6-12.8h1.3l5.6,12.8h-1.5L49.1,377.3z M48.6,376.1l-2.8-6.6l-2.8,6.6H48.6z
			"/>
		<path class="st3" d="M53.1,379.6l0.5-1.1c0.5,0.4,1,0.7,1.5,0.8c0.5,0.2,1.1,0.3,1.7,0.3c0.7,0,1.2-0.1,1.6-0.4
			c0.4-0.2,0.5-0.6,0.5-1s-0.1-0.6-0.4-0.9c-0.2-0.2-0.6-0.4-1.2-0.5l-1.5-0.4c-0.8-0.2-1.3-0.5-1.8-0.9s-0.6-0.9-0.6-1.5
			c0-0.8,0.3-1.4,1-1.9c0.6-0.5,1.5-0.7,2.5-0.7c0.6,0,1.2,0.1,1.8,0.3s1,0.5,1.4,0.9l-0.5,1.1c-0.9-0.7-1.8-1.1-2.7-1.1
			c-0.6,0-1.1,0.1-1.5,0.4s-0.5,0.6-0.5,1s0.1,0.7,0.3,0.9s0.6,0.4,1.1,0.5l1.5,0.4c0.8,0.2,1.5,0.5,1.9,0.9s0.6,0.9,0.6,1.6
			c0,0.8-0.3,1.4-1,1.9c-0.6,0.5-1.5,0.7-2.6,0.7C55.2,380.7,54,380.4,53.1,379.6z"/>
		<path class="st3" d="M62,379.6l0.5-1.1c0.5,0.4,1,0.7,1.5,0.8c0.5,0.2,1.1,0.3,1.7,0.3c0.7,0,1.2-0.1,1.6-0.4
			c0.4-0.2,0.5-0.6,0.5-1s-0.1-0.6-0.4-0.9c-0.2-0.2-0.6-0.4-1.2-0.5l-1.5-0.4c-0.8-0.2-1.3-0.5-1.8-0.9s-0.6-0.9-0.6-1.5
			c0-0.8,0.3-1.4,1-1.9c0.6-0.5,1.5-0.7,2.5-0.7c0.6,0,1.2,0.1,1.8,0.3s1,0.5,1.4,0.9l-0.5,1.1c-0.9-0.7-1.8-1.1-2.7-1.1
			c-0.6,0-1.1,0.1-1.5,0.4s-0.5,0.6-0.5,1s0.1,0.7,0.3,0.9s0.6,0.4,1.1,0.5l1.5,0.4c0.8,0.2,1.5,0.5,1.9,0.9s0.6,0.9,0.6,1.6
			c0,0.8-0.3,1.4-1,1.9c-0.6,0.5-1.5,0.7-2.6,0.7C64.1,380.7,62.9,380.4,62,379.6z"/>
		<path class="st3" d="M79.1,376h-6.6c0,1.2,0.3,2,0.8,2.6s1.3,0.9,2.3,0.9c1.1,0,2-0.4,2.9-1.1l0.5,1.1c-0.4,0.4-0.9,0.7-1.5,0.9
			s-1.3,0.3-1.9,0.3c-1.4,0-2.5-0.4-3.3-1.3c-0.8-0.8-1.2-2-1.2-3.4c0-0.9,0.2-1.7,0.5-2.5c0.4-0.7,0.9-1.3,1.5-1.7
			c0.6-0.4,1.4-0.6,2.2-0.6c1.2,0,2.1,0.4,2.8,1.2s1,1.9,1,3.2C79.1,375.6,79.1,376,79.1,376z M73.4,373.2c-0.5,0.5-0.8,1.1-0.9,1.9
			h5.3c-0.1-0.9-0.3-1.5-0.7-1.9c-0.4-0.4-1-0.7-1.8-0.7S73.9,372.7,73.4,373.2z"/>
		<path class="st3" d="M80.7,379.6l0.5-1.1c0.5,0.4,1,0.7,1.5,0.8c0.5,0.2,1.1,0.3,1.7,0.3c0.7,0,1.2-0.1,1.6-0.4
			c0.4-0.2,0.5-0.6,0.5-1s-0.1-0.6-0.4-0.9c-0.2-0.2-0.6-0.4-1.2-0.5l-1.5-0.4c-0.8-0.2-1.3-0.5-1.8-0.9S81,374.6,81,374
			c0-0.8,0.3-1.4,1-1.9c0.6-0.5,1.5-0.7,2.5-0.7c0.6,0,1.2,0.1,1.8,0.3s1,0.5,1.4,0.9l-0.5,1.1c-0.9-0.7-1.8-1.1-2.7-1.1
			c-0.6,0-1.1,0.1-1.5,0.4s-0.5,0.6-0.5,1s0.1,0.7,0.3,0.9s0.6,0.4,1.1,0.5l1.5,0.4c0.8,0.2,1.5,0.5,1.9,0.9s0.6,0.9,0.6,1.6
			c0,0.8-0.3,1.4-1,1.9c-0.6,0.5-1.5,0.7-2.6,0.7C82.8,380.7,81.6,380.4,80.7,379.6z"/>
		<path class="st3" d="M89.7,379.6l0.5-1.1c0.5,0.4,1,0.7,1.5,0.8c0.5,0.2,1.1,0.3,1.7,0.3c0.7,0,1.2-0.1,1.6-0.4
			c0.4-0.2,0.5-0.6,0.5-1s-0.1-0.6-0.4-0.9c-0.2-0.2-0.6-0.4-1.2-0.5l-1.5-0.4c-0.8-0.2-1.3-0.5-1.8-0.9S90,374.6,90,374
			c0-0.8,0.3-1.4,1-1.9c0.6-0.5,1.5-0.7,2.5-0.7c0.6,0,1.2,0.1,1.8,0.3s1,0.5,1.4,0.9l-0.5,1.1c-0.9-0.7-1.8-1.1-2.7-1.1
			c-0.6,0-1.1,0.1-1.5,0.4s-0.5,0.6-0.5,1s0.1,0.7,0.3,0.9s0.6,0.4,1.1,0.5l1.5,0.4c0.8,0.2,1.5,0.5,1.9,0.9s0.6,0.9,0.6,1.6
			c0,0.8-0.3,1.4-1,1.9c-0.6,0.5-1.5,0.7-2.6,0.7C91.8,380.7,90.5,380.4,89.7,379.6z"/>
		<path class="st3" d="M112.2,374.9v5.7h-1.5V375c0-0.9-0.1-1.5-0.4-1.9s-0.8-0.6-1.4-0.6c-0.8,0-1.4,0.3-1.8,0.8s-0.6,1.2-0.6,2.1
			v5.2H105V375c0-0.8-0.1-1.5-0.4-1.8c-0.3-0.4-0.8-0.6-1.4-0.6c-0.8,0-1.4,0.3-1.8,0.8s-0.7,1.2-0.7,2.1v5.2h-1.5v-6.5
			c0-0.9,0-1.8-0.1-2.5h1.4l0.1,1.6c0.3-0.6,0.6-1,1.1-1.3s1.1-0.5,1.7-0.5c0.7,0,1.3,0.1,1.8,0.4s0.8,0.7,1,1.3
			c0.3-0.5,0.7-1,1.2-1.3s1.1-0.5,1.8-0.5C111.2,371.4,112.2,372.5,112.2,374.9z"/>
		<path class="st3" d="M122.5,376h-6.6c0,1.2,0.3,2,0.8,2.6s1.3,0.9,2.3,0.9c1.1,0,2-0.4,2.9-1.1l0.5,1.1c-0.4,0.4-0.9,0.7-1.5,0.9
			s-1.3,0.3-1.9,0.3c-1.4,0-2.5-0.4-3.3-1.3c-0.8-0.8-1.2-2-1.2-3.4c0-0.9,0.2-1.7,0.5-2.5c0.4-0.7,0.9-1.3,1.5-1.7
			c0.6-0.4,1.4-0.6,2.2-0.6c1.2,0,2.1,0.4,2.8,1.2s1,1.9,1,3.2C122.5,375.6,122.5,376,122.5,376z M116.9,373.2
			c-0.5,0.5-0.8,1.1-0.9,1.9h5.3c-0.1-0.9-0.3-1.5-0.7-1.9c-0.4-0.4-1-0.7-1.8-0.7S117.3,372.7,116.9,373.2z"/>
		<path class="st3" d="M132.5,374.9v5.7H131V375c0-0.8-0.2-1.5-0.5-1.8s-0.9-0.6-1.6-0.6c-0.8,0-1.5,0.3-2,0.8s-0.8,1.2-0.8,2.1v5.2
			h-1.5v-6.5c0-0.9,0-1.8-0.1-2.5h1.4l0.1,1.6c0.3-0.6,0.7-1,1.2-1.4c0.6-0.3,1.2-0.5,1.9-0.5C131.4,371.4,132.5,372.5,132.5,374.9z
			"/>
		<path class="st3" d="M137.2,372.7v5c0,0.7,0.1,1.1,0.4,1.4c0.3,0.3,0.7,0.4,1.2,0.4c0.3,0,0.7-0.1,1-0.2v1.2
			c-0.4,0.1-0.8,0.2-1.3,0.2c-0.9,0-1.5-0.2-2-0.7s-0.7-1.2-0.7-2.2v-5.1H134v-1.2h1.8v-2.3l1.5-0.5v2.8h2.6v1.2L137.2,372.7
			L137.2,372.7z"/>
	</g>
	<path id="Path_11101_4_" class="st1" d="M644.9,498.7H374.5l14.8-32.9l-14.8-33h270.4l16,33L644.9,498.7z"/>
	<path id="Path_11343_4_" class="st6" d="M648.1,498.6h-35.9v-4.7H645l0.6-1.4l11.4-25.9l0.4-0.9l-0.4-1l-11.4-26l-0.6-1.4H430.9
		v6.7l-12.1-9l12.1-9v6.5h217.2l14.5,33.1L648.1,498.6z"/>
	<path id="Path_11341_4_" class="st6" d="M385.1,493.8h-3.5l1.3-3.3l9-22.3l1.1-2.7l-1.1-2.7l-9.1-22.4l-1.3-3.3h29.2v-4.7h-36.3
		l13,32.2l0.4,0.9l-0.4,0.9l-13,32.1H592v6.7l12.1-9l-12.1-9v6.5L385.1,493.8L385.1,493.8z"/>
	<path id="Path_11342_4_" class="st6" d="M592,491.5v-4.1l12.1,9l-12.1,9v-6.7H374.5l13-32.1l0.4-0.9l-0.4-0.9l-13-32.2h36.3v4.7
		h-29.2l1.3,3.3L392,463l1.1,2.7l-1.1,2.7l-9,22.3l-1.3,3.3H592V491.5z"/>
	<g class="st4">
		<path class="st0" d="M418.7,467.2c0-3.6,2.8-6.2,6.5-6.2c2.1,0,3.8,0.7,4.9,2.1l-1.8,1.6c-0.8-0.9-1.8-1.4-3-1.4
			c-2.2,0-3.8,1.6-3.8,3.8c0,2.2,1.6,3.8,3.8,3.8c1.2,0,2.2-0.5,3-1.4l1.8,1.6c-1.1,1.4-2.8,2.1-4.9,2.1
			C421.4,473.3,418.7,470.8,418.7,467.2z"/>
		<path class="st0" d="M430.7,468.6c0-2.8,2.1-4.7,5-4.7s5,2,5,4.7s-2.1,4.7-5,4.7S430.7,471.3,430.7,468.6z M438.1,468.6
			c0-1.6-1-2.5-2.3-2.5s-2.3,1-2.3,2.5c0,1.6,1,2.5,2.3,2.5S438.1,470.1,438.1,468.6z"/>
		<path class="st0" d="M451.9,467.9v5.2h-2.7v-4.8c0-1.5-0.7-2.2-1.9-2.2c-1.3,0-2.2,0.8-2.2,2.5v4.5h-2.7V464h2.5v1.1
			c0.7-0.8,1.8-1.2,3-1.2C450.2,463.9,451.9,465.1,451.9,467.9z"/>
		<path class="st0" d="M460.2,472.7c-0.5,0.4-1.3,0.6-2.2,0.6c-2.2,0-3.4-1.1-3.4-3.3v-3.8h-1.4v-2h1.4V462h2.7v2.2h2.3v2h-2.3v3.7
			c0,0.8,0.4,1.2,1.1,1.2c0.4,0,0.8-0.1,1.1-0.3L460.2,472.7z"/>
		<path class="st0" d="M461.3,461.2c0-0.8,0.7-1.5,1.6-1.5c1,0,1.6,0.6,1.6,1.4c0,0.9-0.7,1.5-1.6,1.5
			C462,462.7,461.3,462.1,461.3,461.2z M461.7,464h2.7v9.1h-2.7V464z"/>
		<path class="st0" d="M476.1,467.9v5.2h-2.7v-4.8c0-1.5-0.7-2.2-1.9-2.2c-1.3,0-2.2,0.8-2.2,2.5v4.5h-2.7V464h2.5v1.1
			c0.7-0.8,1.8-1.2,3-1.2C474.5,463.9,476.1,465.1,476.1,467.9z"/>
		<path class="st0" d="M487.7,464v9.1h-2.5V472c-0.7,0.8-1.7,1.2-2.8,1.2c-2.3,0-3.9-1.3-3.9-4.1V464h2.7v4.8c0,1.5,0.7,2.2,1.9,2.2
			c1.2,0,2.1-0.8,2.1-2.5V464H487.7z"/>
		<path class="st0" d="M489.5,468.6c0-2.8,2.1-4.7,5-4.7s5,2,5,4.7s-2.1,4.7-5,4.7C491.7,473.3,489.5,471.3,489.5,468.6z
			 M496.9,468.6c0-1.6-1-2.5-2.3-2.5s-2.3,1-2.3,2.5c0,1.6,1,2.5,2.3,2.5S496.9,470.1,496.9,468.6z"/>
		<path class="st0" d="M510.6,464v9.1H508V472c-0.7,0.8-1.7,1.2-2.8,1.2c-2.3,0-3.9-1.3-3.9-4.1V464h2.7v4.8c0,1.5,0.7,2.2,1.9,2.2
			c1.2,0,2.1-0.8,2.1-2.5V464H510.6z"/>
		<path class="st0" d="M512.1,472.3l0.9-1.9c0.8,0.5,2.1,0.9,3.2,0.9c1.2,0,1.7-0.3,1.7-0.8c0-1.5-5.5,0-5.5-3.6c0-1.7,1.6-3,4.2-3
			c1.3,0,2.7,0.3,3.5,0.8l-0.9,1.9c-0.9-0.5-1.8-0.7-2.6-0.7c-1.2,0-1.7,0.4-1.7,0.8c0,1.6,5.5,0.1,5.5,3.7c0,1.7-1.6,2.9-4.3,2.9
			C514.6,473.3,513,472.8,512.1,472.3z"/>
		<path class="st0" d="M537.9,473.1V466l-3.5,5.9h-1.2l-3.5-5.7v7H527v-11.9h2.3l4.5,7.4l4.4-7.4h2.3v11.9L537.9,473.1L537.9,473.1z
			"/>
		<path class="st0" d="M542.4,468.6c0-2.8,2.1-4.7,5-4.7s5,2,5,4.7s-2.1,4.7-5,4.7S542.4,471.3,542.4,468.6z M549.8,468.6
			c0-1.6-1-2.5-2.3-2.5s-2.3,1-2.3,2.5c0,1.6,1,2.5,2.3,2.5S549.8,470.1,549.8,468.6z"/>
		<path class="st0" d="M563.6,467.9v5.2h-2.7v-4.8c0-1.5-0.7-2.2-1.9-2.2c-1.3,0-2.2,0.8-2.2,2.5v4.5h-2.7V464h2.5v1.1
			c0.7-0.8,1.8-1.2,3-1.2C561.9,463.9,563.6,465.1,563.6,467.9z"/>
		<path class="st0" d="M565.7,461.2c0-0.8,0.7-1.5,1.6-1.5c1,0,1.6,0.6,1.6,1.4c0,0.9-0.7,1.5-1.6,1.5
			C566.3,462.7,565.7,462.1,565.7,461.2z M566,464h2.7v9.1H566V464z"/>
		<path class="st0" d="M577,472.7c-0.5,0.4-1.3,0.6-2.2,0.6c-2.2,0-3.4-1.1-3.4-3.3v-3.8H570v-2h1.4V462h2.7v2.2h2.3v2h-2.3v3.7
			c0,0.8,0.4,1.2,1.1,1.2c0.4,0,0.8-0.1,1.1-0.3L577,472.7z"/>
		<path class="st0" d="M577.5,468.6c0-2.8,2.1-4.7,5-4.7s5,2,5,4.7s-2.1,4.7-5,4.7C579.6,473.3,577.5,471.3,577.5,468.6z
			 M584.9,468.6c0-1.6-1-2.5-2.3-2.5s-2.3,1-2.3,2.5c0,1.6,1,2.5,2.3,2.5S584.9,470.1,584.9,468.6z"/>
		<path class="st0" d="M595,463.9v2.4c-0.2,0-0.4,0-0.6,0c-1.5,0-2.4,0.8-2.4,2.5v4.3h-2.7V464h2.5v1.2
			C592.5,464.3,593.6,463.9,595,463.9z"/>
		<path class="st0" d="M596.3,461.2c0-0.8,0.7-1.5,1.6-1.5c1,0,1.6,0.6,1.6,1.4c0,0.9-0.7,1.5-1.6,1.5
			C596.9,462.7,596.3,462.1,596.3,461.2z M596.6,464h2.7v9.1h-2.7V464z"/>
		<path class="st0" d="M611.1,467.9v5.2h-2.7v-4.8c0-1.5-0.7-2.2-1.9-2.2c-1.3,0-2.2,0.8-2.2,2.5v4.5h-2.7V464h2.5v1.1
			c0.7-0.8,1.8-1.2,3-1.2C609.4,463.9,611.1,465.1,611.1,467.9z"/>
		<path class="st0" d="M623,464v7.6c0,3.4-1.8,5-5.1,5c-1.7,0-3.4-0.4-4.5-1.3l1.1-1.9c0.8,0.6,2.1,1,3.2,1c1.9,0,2.7-0.8,2.7-2.5
			v-0.4c-0.7,0.8-1.7,1.1-2.9,1.1c-2.5,0-4.6-1.8-4.6-4.4s2-4.4,4.6-4.4c1.3,0,2.3,0.4,3,1.3V464H623z M620.4,468.3
			c0-1.3-1-2.2-2.4-2.2s-2.4,0.9-2.4,2.2s1,2.2,2.4,2.2S620.4,469.6,620.4,468.3z"/>
	</g>
	<rect x="510.2" y="17.5" class="st5" width="125.6" height="41.9"/>
	<g class="st4">
		<path class="st3" d="M540,32.9h-1.6l-1.6-4.3c-0.2-0.5-0.5-0.9-0.8-1.1s-0.8-0.3-1.4-0.3h-3.2v5.6H530V20h5.1
			c1.4,0,2.4,0.3,3.2,0.9c0.7,0.6,1.1,1.5,1.1,2.6c0,0.8-0.2,1.5-0.7,2.1c-0.4,0.6-1.1,1-1.9,1.2c0.4,0.1,0.7,0.2,1,0.5
			s0.5,0.6,0.7,1.1L540,32.9z M534.9,26c2,0,3-0.8,3-2.4c0-0.8-0.2-1.4-0.7-1.8s-1.2-0.6-2.2-0.6h-3.5V26H534.9z"/>
		<path class="st3" d="M549.9,28.3h-6.6c0,1.2,0.3,2,0.8,2.6s1.3,0.9,2.3,0.9c1.1,0,2-0.4,2.9-1.1l0.5,1.1c-0.4,0.4-0.9,0.7-1.5,0.9
			S547,33,546.4,33c-1.4,0-2.5-0.4-3.3-1.3s-1.2-2-1.2-3.4c0-0.9,0.2-1.7,0.5-2.5s0.9-1.3,1.5-1.7c0.6-0.4,1.4-0.6,2.2-0.6
			c1.2,0,2.1,0.4,2.8,1.2c0.7,0.8,1,1.9,1,3.2V28.3z M544.2,25.4c-0.5,0.5-0.8,1.1-0.9,1.9h5.3c-0.1-0.9-0.3-1.5-0.7-1.9
			s-1-0.7-1.8-0.7S544.6,25,544.2,25.4z"/>
		<path class="st3" d="M560,23.8v9.1h-1.4v-1.6c-0.3,0.6-0.7,1-1.2,1.3s-1.2,0.5-1.9,0.5c-0.8,0-1.5-0.2-2.1-0.6
			c-0.6-0.4-1.1-0.9-1.4-1.6s-0.5-1.5-0.5-2.5c0-0.9,0.2-1.8,0.5-2.5s0.8-1.3,1.4-1.7c0.6-0.4,1.3-0.6,2.1-0.6
			c0.7,0,1.3,0.2,1.9,0.5c0.5,0.3,0.9,0.8,1.2,1.3v-1.6C558.6,23.8,560,23.8,560,23.8z M557.9,30.9c0.5-0.6,0.7-1.5,0.7-2.6
			s-0.2-2-0.7-2.6s-1.2-0.9-2.1-0.9s-1.6,0.3-2.1,0.9s-0.7,1.5-0.7,2.6s0.2,2,0.7,2.6s1.2,0.9,2.1,0.9S557.4,31.5,557.9,30.9z"/>
		<path class="st3" d="M570.8,19.6v13.2h-1.4v-1.6c-0.3,0.6-0.7,1-1.2,1.3S567,33,566.3,33c-0.8,0-1.5-0.2-2.1-0.6
			c-0.6-0.4-1.1-1-1.4-1.7s-0.5-1.5-0.5-2.5c0-0.9,0.2-1.8,0.5-2.5s0.8-1.2,1.4-1.6c0.6-0.4,1.3-0.6,2.1-0.6c0.7,0,1.3,0.2,1.9,0.5
			c0.5,0.3,0.9,0.7,1.2,1.3v-5.7C569.4,19.6,570.8,19.6,570.8,19.6z M568.7,30.9c0.5-0.6,0.7-1.5,0.7-2.6s-0.2-2-0.7-2.6
			s-1.2-0.9-2.1-0.9s-1.6,0.3-2.1,0.9s-0.7,1.4-0.7,2.5s0.2,2,0.7,2.6s1.2,0.9,2.1,0.9S568.2,31.5,568.7,30.9z"/>
		<path class="st3" d="M575.3,20v1.7h-1.8V20H575.3z M573.7,23.8h1.5v9.1h-1.5V23.8z"/>
		<path class="st3" d="M585.7,27.2v5.7h-1.5v-5.6c0-0.8-0.2-1.5-0.5-1.8s-0.9-0.6-1.6-0.6c-0.8,0-1.5,0.3-2,0.8s-0.8,1.2-0.8,2.1V33
			H578v-6.5c0-0.9,0-1.8-0.1-2.5h1.4l0.1,1.6c0.3-0.6,0.7-1,1.2-1.4c0.6-0.3,1.2-0.5,1.9-0.5C584.6,23.6,585.7,24.8,585.7,27.2z"/>
		<path class="st3" d="M596.1,28.3h-6.6c0,1.2,0.3,2,0.8,2.6s1.3,0.9,2.3,0.9c1.1,0,2-0.4,2.9-1.1l0.5,1.1c-0.4,0.4-0.9,0.7-1.5,0.9
			s-1.3,0.3-1.9,0.3c-1.4,0-2.5-0.4-3.3-1.3c-0.8-0.8-1.2-2-1.2-3.4c0-0.9,0.2-1.7,0.5-2.5c0.4-0.7,0.9-1.3,1.5-1.7
			c0.6-0.4,1.4-0.6,2.2-0.6c1.2,0,2.1,0.4,2.8,1.2c0.7,0.8,1,1.9,1,3.2V28.3z M590.4,25.4c-0.5,0.5-0.8,1.1-0.9,1.9h5.3
			c-0.1-0.9-0.3-1.5-0.7-1.9s-1-0.7-1.8-0.7S590.9,25,590.4,25.4z"/>
		<path class="st3" d="M597.7,31.8l0.5-1.1c0.5,0.4,1,0.7,1.5,0.8s1.1,0.3,1.7,0.3c0.7,0,1.2-0.1,1.6-0.4c0.4-0.2,0.5-0.6,0.5-1
			s-0.1-0.6-0.4-0.9c-0.2-0.2-0.6-0.4-1.2-0.5l-1.5-0.4c-0.8-0.2-1.3-0.5-1.8-0.9s-0.6-0.9-0.6-1.5c0-0.8,0.3-1.4,1-1.9
			c0.6-0.5,1.5-0.7,2.5-0.7c0.6,0,1.2,0.1,1.8,0.3c0.6,0.2,1,0.5,1.4,0.9l-0.5,1.1c-0.9-0.7-1.8-1.1-2.7-1.1c-0.6,0-1.1,0.1-1.5,0.4
			c-0.4,0.2-0.5,0.6-0.5,1s0.1,0.7,0.3,0.9c0.2,0.2,0.6,0.4,1.1,0.5l1.5,0.4c0.8,0.2,1.5,0.5,1.9,0.9s0.6,0.9,0.6,1.6
			c0,0.8-0.3,1.4-1,1.9c-0.6,0.5-1.5,0.7-2.6,0.7C599.8,33,598.6,32.6,597.7,31.8z"/>
		<path class="st3" d="M606.6,31.8l0.5-1.1c0.5,0.4,1,0.7,1.5,0.8s1.1,0.3,1.7,0.3c0.7,0,1.2-0.1,1.6-0.4c0.4-0.2,0.5-0.6,0.5-1
			s-0.1-0.6-0.4-0.9c-0.2-0.2-0.6-0.4-1.2-0.5l-1.5-0.4c-0.8-0.2-1.3-0.5-1.8-0.9s-0.6-0.9-0.6-1.5c0-0.8,0.3-1.4,1-1.9
			c0.6-0.5,1.5-0.7,2.5-0.7c0.6,0,1.2,0.1,1.8,0.3c0.6,0.2,1,0.5,1.4,0.9l-0.5,1.1c-0.9-0.7-1.8-1.1-2.7-1.1c-0.6,0-1.1,0.1-1.5,0.4
			c-0.4,0.2-0.5,0.6-0.5,1s0.1,0.7,0.3,0.9c0.2,0.2,0.6,0.4,1.1,0.5l1.5,0.4c0.8,0.2,1.5,0.5,1.9,0.9s0.6,0.9,0.6,1.6
			c0,0.8-0.3,1.4-1,1.9c-0.6,0.5-1.5,0.7-2.6,0.7C608.7,33,607.5,32.6,606.6,31.8z"/>
	</g>
	<g class="st4">
		<path class="st3" d="M530.8,51.2h-6.7l-1.4,3.3h-1.5l5.6-12.8h1.3l5.6,12.8h-1.5L530.8,51.2z M530.2,49.9l-2.8-6.6l-2.8,6.6H530.2
			z"/>
		<path class="st3" d="M534.7,53.4l0.5-1.1c0.5,0.4,1,0.7,1.5,0.8c0.5,0.2,1.1,0.3,1.7,0.3c0.7,0,1.2-0.1,1.6-0.4
			c0.4-0.2,0.5-0.6,0.5-1s-0.1-0.6-0.4-0.9c-0.2-0.2-0.6-0.4-1.2-0.5l-1.5-0.4c-0.8-0.2-1.3-0.5-1.8-0.9s-0.6-0.9-0.6-1.5
			c0-0.8,0.3-1.4,1-1.9c0.6-0.5,1.5-0.7,2.5-0.7c0.6,0,1.2,0.1,1.8,0.3s1,0.5,1.4,0.9l-0.5,1.1c-0.9-0.7-1.8-1.1-2.7-1.1
			c-0.6,0-1.1,0.1-1.5,0.4c-0.4,0.2-0.5,0.6-0.5,1s0.1,0.7,0.3,0.9s0.6,0.4,1.1,0.5l1.5,0.4c0.8,0.2,1.5,0.5,1.9,0.9
			s0.6,0.9,0.6,1.6c0,0.8-0.3,1.4-1,1.9s-1.5,0.7-2.6,0.7C536.8,54.6,535.6,54.2,534.7,53.4z"/>
		<path class="st3" d="M543.7,53.4l0.5-1.1c0.5,0.4,1,0.7,1.5,0.8c0.5,0.2,1.1,0.3,1.7,0.3c0.7,0,1.2-0.1,1.6-0.4
			c0.4-0.2,0.5-0.6,0.5-1s-0.1-0.6-0.4-0.9c-0.2-0.2-0.6-0.4-1.2-0.5l-1.5-0.4c-0.8-0.2-1.3-0.5-1.8-0.9s-0.6-0.9-0.6-1.5
			c0-0.8,0.3-1.4,1-1.9c0.6-0.5,1.5-0.7,2.5-0.7c0.6,0,1.2,0.1,1.8,0.3s1,0.5,1.4,0.9l-0.5,1.1c-0.9-0.7-1.8-1.1-2.7-1.1
			c-0.6,0-1.1,0.1-1.5,0.4c-0.4,0.2-0.5,0.6-0.5,1s0.1,0.7,0.3,0.9s0.6,0.4,1.1,0.5l1.5,0.4c0.8,0.2,1.5,0.5,1.9,0.9
			s0.6,0.9,0.6,1.6c0,0.8-0.3,1.4-1,1.9s-1.5,0.7-2.6,0.7C545.8,54.6,544.6,54.2,543.7,53.4z"/>
		<path class="st3" d="M560.7,49.9h-6.6c0,1.2,0.3,2,0.8,2.6s1.3,0.9,2.3,0.9c1.1,0,2-0.4,2.9-1.1l0.5,1.1c-0.4,0.4-0.9,0.7-1.5,0.9
			s-1.3,0.3-1.9,0.3c-1.4,0-2.5-0.4-3.3-1.3c-0.8-0.8-1.2-2-1.2-3.4c0-0.9,0.2-1.7,0.5-2.5c0.4-0.7,0.9-1.3,1.5-1.7s1.4-0.6,2.2-0.6
			c1.2,0,2.1,0.4,2.8,1.2s1,1.9,1,3.2V49.9z M555.1,47c-0.5,0.5-0.8,1.1-0.9,1.9h5.3c-0.1-0.9-0.3-1.5-0.7-1.9s-1-0.7-1.8-0.7
			S555.5,46.6,555.1,47z"/>
		<path class="st3" d="M562.4,53.4l0.5-1.1c0.5,0.4,1,0.7,1.5,0.8c0.5,0.2,1.1,0.3,1.7,0.3c0.7,0,1.2-0.1,1.6-0.4
			c0.4-0.2,0.5-0.6,0.5-1s-0.1-0.6-0.4-0.9c-0.2-0.2-0.6-0.4-1.2-0.5l-1.5-0.4c-0.8-0.2-1.3-0.5-1.8-0.9s-0.6-0.9-0.6-1.5
			c0-0.8,0.3-1.4,1-1.9c0.6-0.5,1.5-0.7,2.5-0.7c0.6,0,1.2,0.1,1.8,0.3s1,0.5,1.4,0.9l-0.5,1.1c-0.9-0.7-1.8-1.1-2.7-1.1
			c-0.6,0-1.1,0.1-1.5,0.4c-0.4,0.2-0.5,0.6-0.5,1s0.1,0.7,0.3,0.9s0.6,0.4,1.1,0.5l1.5,0.4c0.8,0.2,1.5,0.5,1.9,0.9
			s0.6,0.9,0.6,1.6c0,0.8-0.3,1.4-1,1.9s-1.5,0.7-2.6,0.7C564.5,54.6,563.3,54.2,562.4,53.4z"/>
		<path class="st3" d="M571.3,53.4l0.5-1.1c0.5,0.4,1,0.7,1.5,0.8c0.5,0.2,1.1,0.3,1.7,0.3c0.7,0,1.2-0.1,1.6-0.4
			c0.4-0.2,0.5-0.6,0.5-1s-0.1-0.6-0.4-0.9c-0.2-0.2-0.6-0.4-1.2-0.5l-1.5-0.4c-0.8-0.2-1.3-0.5-1.8-0.9s-0.6-0.9-0.6-1.5
			c0-0.8,0.3-1.4,1-1.9c0.6-0.5,1.5-0.7,2.5-0.7c0.6,0,1.2,0.1,1.8,0.3s1,0.5,1.4,0.9l-0.5,1.1c-0.9-0.7-1.8-1.1-2.7-1.1
			c-0.6,0-1.1,0.1-1.5,0.4c-0.4,0.2-0.5,0.6-0.5,1s0.1,0.7,0.3,0.9s0.6,0.4,1.1,0.5l1.5,0.4c0.8,0.2,1.5,0.5,1.9,0.9
			s0.6,0.9,0.6,1.6c0,0.8-0.3,1.4-1,1.9s-1.5,0.7-2.6,0.7C573.4,54.6,572.2,54.2,571.3,53.4z"/>
		<path class="st3" d="M593.9,48.8v5.7h-1.5v-5.6c0-0.9-0.1-1.5-0.4-1.9s-0.8-0.6-1.4-0.6c-0.8,0-1.4,0.3-1.8,0.8
			c-0.4,0.5-0.6,1.2-0.6,2.1v5.2h-1.5v-5.6c0-0.8-0.2-1.5-0.5-1.8s-0.8-0.6-1.4-0.6c-0.8,0-1.4,0.3-1.8,0.8
			c-0.4,0.5-0.7,1.2-0.7,2.1v5.2h-1.5v-6.5c0-0.9,0-1.8-0.1-2.5h1.4l0.1,1.6c0.3-0.6,0.6-1,1.1-1.3s1.1-0.5,1.7-0.5
			c0.7,0,1.3,0.1,1.8,0.4s0.8,0.7,1,1.3c0.3-0.5,0.7-1,1.2-1.3s1.1-0.5,1.8-0.5C592.9,45.2,593.9,46.4,593.9,48.8z"/>
		<path class="st3" d="M604.2,49.9h-6.6c0,1.2,0.3,2,0.8,2.6s1.3,0.9,2.3,0.9c1.1,0,2-0.4,2.9-1.1l0.5,1.1c-0.4,0.4-0.9,0.7-1.5,0.9
			s-1.3,0.3-1.9,0.3c-1.4,0-2.5-0.4-3.3-1.3s-1.2-2-1.2-3.4c0-0.9,0.2-1.7,0.5-2.5s0.9-1.3,1.5-1.7s1.4-0.6,2.2-0.6
			c1.2,0,2.1,0.4,2.8,1.2s1,1.9,1,3.2V49.9z M598.5,47c-0.5,0.5-0.8,1.1-0.9,1.9h5.3c-0.1-0.9-0.3-1.5-0.7-1.9s-1-0.7-1.8-0.7
			S599,46.6,598.5,47z"/>
		<path class="st3" d="M614.2,48.8v5.7h-1.5v-5.6c0-0.8-0.2-1.5-0.5-1.8s-0.9-0.6-1.6-0.6c-0.8,0-1.5,0.3-2,0.8s-0.8,1.2-0.8,2.1
			v5.2h-1.5v-6.5c0-0.9,0-1.8-0.1-2.5h1.4l0.1,1.6c0.3-0.6,0.7-1,1.2-1.4c0.6-0.3,1.2-0.5,1.9-0.5C613.1,45.2,614.2,46.4,614.2,48.8
			z"/>
		<path class="st3" d="M618.9,46.6v5c0,0.7,0.1,1.1,0.4,1.4c0.3,0.3,0.7,0.4,1.2,0.4c0.3,0,0.7-0.1,1-0.2v1.2
			c-0.4,0.1-0.8,0.2-1.3,0.2c-0.9,0-1.5-0.2-2-0.7s-0.7-1.2-0.7-2.2v-5.1h-1.8v-1.2h1.8v-2.3l1.5-0.5v2.8h2.6v1.2
			C621.6,46.6,618.9,46.6,618.9,46.6z"/>
	</g>
	<rect x="501.7" y="202.3" class="st5" width="137.7" height="41.9"/>
	<g class="st4">
		<path class="st2" d="M537.6,217.8H536l-1.6-4.3c-0.2-0.5-0.5-0.9-0.8-1.1c-0.3-0.2-0.8-0.3-1.4-0.3H529v5.6h-1.5v-12.8h5.1
			c1.4,0,2.4,0.3,3.2,0.9c0.7,0.6,1.1,1.5,1.1,2.6c0,0.8-0.2,1.5-0.7,2.1c-0.4,0.6-1.1,1-1.9,1.2c0.4,0.1,0.7,0.2,1,0.5
			s0.5,0.6,0.7,1.1L537.6,217.8z M532.5,210.9c2,0,3-0.8,3-2.4c0-0.8-0.2-1.4-0.7-1.8c-0.5-0.4-1.2-0.6-2.2-0.6H529v4.8H532.5z"/>
		<path class="st2" d="M547.4,213.2h-6.6c0,1.2,0.3,2,0.8,2.6s1.3,0.9,2.3,0.9c1.1,0,2-0.4,2.9-1.1l0.5,1.1
			c-0.4,0.4-0.9,0.7-1.5,0.9s-1.3,0.3-1.9,0.3c-1.4,0-2.5-0.4-3.3-1.3c-0.8-0.8-1.2-2-1.2-3.4c0-0.9,0.2-1.7,0.5-2.5
			c0.4-0.7,0.9-1.3,1.5-1.7s1.4-0.6,2.2-0.6c1.2,0,2.1,0.4,2.8,1.2s1,1.9,1,3.2V213.2z M541.7,210.3c-0.5,0.5-0.8,1.1-0.9,1.9h5.3
			c-0.1-0.9-0.3-1.5-0.7-1.9s-1-0.7-1.8-0.7S542.2,209.8,541.7,210.3z"/>
		<path class="st2" d="M557.6,208.7v9.1h-1.4v-1.6c-0.3,0.6-0.7,1-1.2,1.3s-1.2,0.5-1.9,0.5c-0.8,0-1.5-0.2-2.1-0.6
			c-0.6-0.4-1.1-0.9-1.4-1.6s-0.5-1.5-0.5-2.5c0-0.9,0.2-1.8,0.5-2.5s0.8-1.3,1.4-1.7c0.6-0.4,1.3-0.6,2.1-0.6
			c0.7,0,1.3,0.2,1.9,0.5c0.5,0.3,0.9,0.8,1.2,1.3v-1.6L557.6,208.7L557.6,208.7z M555.4,215.8c0.5-0.6,0.7-1.5,0.7-2.6
			s-0.2-2-0.7-2.6s-1.2-0.9-2.1-0.9c-0.9,0-1.6,0.3-2.1,0.9s-0.7,1.5-0.7,2.6s0.2,2,0.7,2.6s1.2,0.9,2.1,0.9
			S554.9,216.4,555.4,215.8z"/>
		<path class="st2" d="M568.4,204.5v13.2H567v-1.6c-0.3,0.6-0.7,1-1.2,1.3s-1.2,0.5-1.9,0.5c-0.8,0-1.5-0.2-2.1-0.6
			c-0.6-0.4-1.1-1-1.4-1.7c-0.3-0.7-0.5-1.5-0.5-2.5c0-0.9,0.2-1.8,0.5-2.5s0.8-1.2,1.4-1.6c0.6-0.4,1.3-0.6,2.1-0.6
			c0.7,0,1.3,0.2,1.9,0.5c0.5,0.3,0.9,0.7,1.2,1.3v-5.7L568.4,204.5L568.4,204.5z M566.2,215.8c0.5-0.6,0.7-1.5,0.7-2.6
			s-0.2-2-0.7-2.6s-1.2-0.9-2.1-0.9c-0.9,0-1.6,0.3-2.1,0.9c-0.5,0.6-0.7,1.4-0.7,2.5s0.2,2,0.7,2.6s1.2,0.9,2.1,0.9
			C565,216.7,565.7,216.4,566.2,215.8z"/>
		<path class="st2" d="M572.8,204.9v1.7H571v-1.7H572.8z M571.2,208.7h1.5v9.1h-1.5V208.7z"/>
		<path class="st2" d="M583.2,212.1v5.7h-1.5v-5.6c0-0.8-0.2-1.5-0.5-1.8s-0.9-0.6-1.6-0.6c-0.8,0-1.5,0.3-2,0.8s-0.8,1.2-0.8,2.1
			v5.2h-1.5v-6.5c0-0.9,0-1.8-0.1-2.5h1.4l0.1,1.6c0.3-0.6,0.7-1,1.2-1.4c0.6-0.3,1.2-0.5,1.9-0.5
			C582.2,208.5,583.2,209.7,583.2,212.1z"/>
		<path class="st2" d="M593.6,213.2H587c0,1.2,0.3,2,0.8,2.6s1.3,0.9,2.3,0.9c1.1,0,2-0.4,2.9-1.1l0.5,1.1c-0.4,0.4-0.9,0.7-1.5,0.9
			s-1.3,0.3-1.9,0.3c-1.4,0-2.5-0.4-3.3-1.3s-1.2-2-1.2-3.4c0-0.9,0.2-1.7,0.5-2.5s0.9-1.3,1.5-1.7s1.4-0.6,2.2-0.6
			c1.2,0,2.1,0.4,2.8,1.2s1,1.9,1,3.2V213.2z M587.9,210.3c-0.5,0.5-0.8,1.1-0.9,1.9h5.3c-0.1-0.9-0.3-1.5-0.7-1.9s-1-0.7-1.8-0.7
			S588.4,209.8,587.9,210.3z"/>
		<path class="st2" d="M595.2,216.7l0.5-1.1c0.5,0.4,1,0.7,1.5,0.8c0.5,0.2,1.1,0.3,1.7,0.3c0.7,0,1.2-0.1,1.6-0.4
			c0.4-0.2,0.5-0.6,0.5-1s-0.1-0.6-0.4-0.9c-0.2-0.2-0.6-0.4-1.2-0.5l-1.5-0.4c-0.8-0.2-1.3-0.5-1.8-0.9s-0.6-0.9-0.6-1.5
			c0-0.8,0.3-1.4,1-1.9c0.6-0.5,1.5-0.7,2.5-0.7c0.6,0,1.2,0.1,1.8,0.3s1,0.5,1.4,0.9l-0.5,1.1c-0.9-0.7-1.8-1.1-2.7-1.1
			c-0.6,0-1.1,0.1-1.5,0.4c-0.4,0.2-0.5,0.6-0.5,1s0.1,0.7,0.3,0.9s0.6,0.4,1.1,0.5l1.5,0.4c0.8,0.2,1.5,0.5,1.9,0.9
			s0.6,0.9,0.6,1.6c0,0.8-0.3,1.4-1,1.9s-1.5,0.7-2.6,0.7C597.3,217.9,596.1,217.5,595.2,216.7z"/>
		<path class="st2" d="M604.2,216.7l0.5-1.1c0.5,0.4,1,0.7,1.5,0.8c0.5,0.2,1.1,0.3,1.7,0.3c0.7,0,1.2-0.1,1.6-0.4
			c0.4-0.2,0.5-0.6,0.5-1s-0.1-0.6-0.4-0.9c-0.2-0.2-0.6-0.4-1.2-0.5l-1.5-0.4c-0.8-0.2-1.3-0.5-1.8-0.9s-0.6-0.9-0.6-1.5
			c0-0.8,0.3-1.4,1-1.9c0.6-0.5,1.5-0.7,2.5-0.7c0.6,0,1.2,0.1,1.8,0.3s1,0.5,1.4,0.9l-0.5,1.1c-0.9-0.7-1.8-1.1-2.7-1.1
			c-0.6,0-1.1,0.1-1.5,0.4c-0.4,0.2-0.5,0.6-0.5,1s0.1,0.7,0.3,0.9s0.6,0.4,1.1,0.5l1.5,0.4c0.8,0.2,1.5,0.5,1.9,0.9
			s0.6,0.9,0.6,1.6c0,0.8-0.3,1.4-1,1.9s-1.5,0.7-2.6,0.7C606.3,217.9,605.1,217.5,604.2,216.7z"/>
	</g>
	<g class="st4">
		<path class="st2" d="M528.3,236.1h-6.7l-1.4,3.3h-1.5l5.6-12.8h1.3l5.6,12.8h-1.5L528.3,236.1z M527.8,234.8l-2.8-6.6l-2.8,6.6
			H527.8z"/>
		<path class="st2" d="M532.3,238.3l0.5-1.1c0.5,0.4,1,0.7,1.5,0.8s1.1,0.3,1.7,0.3c0.7,0,1.2-0.1,1.6-0.4c0.4-0.2,0.5-0.6,0.5-1
			s-0.1-0.6-0.4-0.9c-0.2-0.2-0.6-0.4-1.2-0.5l-1.5-0.4c-0.8-0.2-1.3-0.5-1.8-0.9s-0.6-0.9-0.6-1.5c0-0.8,0.3-1.4,1-1.9
			c0.6-0.5,1.5-0.7,2.5-0.7c0.6,0,1.2,0.1,1.8,0.3s1,0.5,1.4,0.9l-0.5,1.1c-0.9-0.7-1.8-1.1-2.7-1.1c-0.6,0-1.1,0.1-1.5,0.4
			c-0.4,0.2-0.5,0.6-0.5,1s0.1,0.7,0.3,0.9s0.6,0.4,1.1,0.5l1.5,0.4c0.8,0.2,1.5,0.5,1.9,0.9s0.6,0.9,0.6,1.6c0,0.8-0.3,1.4-1,1.9
			c-0.6,0.5-1.5,0.7-2.6,0.7C534.4,239.5,533.2,239.1,532.3,238.3z"/>
		<path class="st2" d="M541.2,238.3l0.5-1.1c0.5,0.4,1,0.7,1.5,0.8s1.1,0.3,1.7,0.3c0.7,0,1.2-0.1,1.6-0.4c0.4-0.2,0.5-0.6,0.5-1
			s-0.1-0.6-0.4-0.9c-0.2-0.2-0.6-0.4-1.2-0.5l-1.5-0.4c-0.8-0.2-1.3-0.5-1.8-0.9s-0.6-0.9-0.6-1.5c0-0.8,0.3-1.4,1-1.9
			c0.6-0.5,1.5-0.7,2.5-0.7c0.6,0,1.2,0.1,1.8,0.3s1,0.5,1.4,0.9l-0.5,1.1c-0.9-0.7-1.8-1.1-2.7-1.1c-0.6,0-1.1,0.1-1.5,0.4
			c-0.4,0.2-0.5,0.6-0.5,1s0.1,0.7,0.3,0.9s0.6,0.4,1.1,0.5l1.5,0.4c0.8,0.2,1.5,0.5,1.9,0.9s0.6,0.9,0.6,1.6c0,0.8-0.3,1.4-1,1.9
			c-0.6,0.5-1.5,0.7-2.6,0.7C543.3,239.5,542.1,239.1,541.2,238.3z"/>
		<path class="st2" d="M558.3,234.8h-6.6c0,1.2,0.3,2,0.8,2.6s1.3,0.9,2.3,0.9c1.1,0,2-0.4,2.9-1.1l0.5,1.1
			c-0.4,0.4-0.9,0.7-1.5,0.9s-1.3,0.3-1.9,0.3c-1.4,0-2.5-0.4-3.3-1.3s-1.2-2-1.2-3.4c0-0.9,0.2-1.7,0.5-2.5s0.9-1.3,1.5-1.7
			s1.4-0.6,2.2-0.6c1.2,0,2.1,0.4,2.8,1.2s1,1.9,1,3.2V234.8z M552.6,231.9c-0.5,0.5-0.8,1.1-0.9,1.9h5.3c-0.1-0.9-0.3-1.5-0.7-1.9
			s-1-0.7-1.8-0.7S553.1,231.4,552.6,231.9z"/>
		<path class="st2" d="M559.9,238.3l0.5-1.1c0.5,0.4,1,0.7,1.5,0.8s1.1,0.3,1.7,0.3c0.7,0,1.2-0.1,1.6-0.4c0.4-0.2,0.5-0.6,0.5-1
			s-0.1-0.6-0.4-0.9c-0.2-0.2-0.6-0.4-1.2-0.5l-1.5-0.4c-0.8-0.2-1.3-0.5-1.8-0.9s-0.6-0.9-0.6-1.5c0-0.8,0.3-1.4,1-1.9
			c0.6-0.5,1.5-0.7,2.5-0.7c0.6,0,1.2,0.1,1.8,0.3s1,0.5,1.4,0.9l-0.5,1.1c-0.9-0.7-1.8-1.1-2.7-1.1c-0.6,0-1.1,0.1-1.5,0.4
			c-0.4,0.2-0.5,0.6-0.5,1s0.1,0.7,0.3,0.9s0.6,0.4,1.1,0.5l1.5,0.4c0.8,0.2,1.5,0.5,1.9,0.9s0.6,0.9,0.6,1.6c0,0.8-0.3,1.4-1,1.9
			c-0.6,0.5-1.5,0.7-2.6,0.7C562,239.5,560.8,239.1,559.9,238.3z"/>
		<path class="st2" d="M568.8,238.3l0.5-1.1c0.5,0.4,1,0.7,1.5,0.8s1.1,0.3,1.7,0.3c0.7,0,1.2-0.1,1.6-0.4c0.4-0.2,0.5-0.6,0.5-1
			s-0.1-0.6-0.4-0.9c-0.2-0.2-0.6-0.4-1.2-0.5l-1.5-0.4c-0.8-0.2-1.3-0.5-1.8-0.9s-0.6-0.9-0.6-1.5c0-0.8,0.3-1.4,1-1.9
			c0.6-0.5,1.5-0.7,2.5-0.7c0.6,0,1.2,0.1,1.8,0.3s1,0.5,1.4,0.9l-0.5,1.1c-0.9-0.7-1.8-1.1-2.7-1.1c-0.6,0-1.1,0.1-1.5,0.4
			c-0.4,0.2-0.5,0.6-0.5,1s0.1,0.7,0.3,0.9s0.6,0.4,1.1,0.5l1.5,0.4c0.8,0.2,1.5,0.5,1.9,0.9s0.6,0.9,0.6,1.6c0,0.8-0.3,1.4-1,1.9
			c-0.6,0.5-1.5,0.7-2.6,0.7C570.9,239.5,569.7,239.1,568.8,238.3z"/>
		<path class="st2" d="M591.4,233.7v5.7h-1.5v-5.6c0-0.9-0.1-1.5-0.4-1.9c-0.3-0.4-0.8-0.6-1.4-0.6c-0.8,0-1.4,0.3-1.8,0.8
			c-0.4,0.5-0.6,1.2-0.6,2.1v5.2h-1.5v-5.6c0-0.8-0.1-1.5-0.4-1.8c-0.3-0.4-0.8-0.6-1.4-0.6c-0.8,0-1.4,0.3-1.8,0.8
			c-0.4,0.5-0.7,1.2-0.7,2.1v5.2h-1.5V233c0-0.9,0-1.8-0.1-2.5h1.4l0.1,1.6c0.3-0.6,0.6-1,1.1-1.3s1.1-0.5,1.7-0.5
			c0.7,0,1.3,0.1,1.8,0.4s0.8,0.7,1,1.3c0.3-0.5,0.7-1,1.2-1.3s1.1-0.5,1.8-0.5C590.4,230.1,591.4,231.3,591.4,233.7z"/>
		<path class="st2" d="M601.7,234.8h-6.6c0,1.2,0.3,2,0.8,2.6s1.3,0.9,2.3,0.9c1.1,0,2-0.4,2.9-1.1l0.5,1.1
			c-0.4,0.4-0.9,0.7-1.5,0.9s-1.3,0.3-1.9,0.3c-1.4,0-2.5-0.4-3.3-1.3c-0.8-0.8-1.2-2-1.2-3.4c0-0.9,0.2-1.7,0.5-2.5
			c0.4-0.7,0.9-1.3,1.5-1.7s1.4-0.6,2.2-0.6c1.2,0,2.1,0.4,2.8,1.2s1,1.9,1,3.2V234.8z M596.1,231.9c-0.5,0.5-0.8,1.1-0.9,1.9h5.3
			c-0.1-0.9-0.3-1.5-0.7-1.9s-1-0.7-1.8-0.7S596.5,231.4,596.1,231.9z"/>
		<path class="st2" d="M611.7,233.7v5.7h-1.5v-5.6c0-0.8-0.2-1.5-0.5-1.8s-0.9-0.6-1.6-0.6c-0.8,0-1.5,0.3-2,0.8s-0.8,1.2-0.8,2.1
			v5.2h-1.5V233c0-0.9,0-1.8-0.1-2.5h1.4l0.1,1.6c0.3-0.6,0.7-1,1.2-1.4c0.6-0.3,1.2-0.5,1.9-0.5
			C610.6,230.1,611.7,231.3,611.7,233.7z"/>
		<path class="st2" d="M616.4,231.4v5c0,0.7,0.1,1.1,0.4,1.4c0.3,0.3,0.7,0.4,1.2,0.4c0.3,0,0.7-0.1,1-0.2v1.2
			c-0.4,0.1-0.8,0.2-1.3,0.2c-0.9,0-1.5-0.2-2-0.7s-0.7-1.2-0.7-2.2v-5.1h-1.8v-1.2h1.8V228l1.5-0.5v2.8h2.6v1.2h-2.7V231.4z"/>
	</g>
	<rect x="341.2" y="17.5" class="st5" width="125.6" height="40.1"/>
	<g class="st4">
		<path class="st3" d="M355.5,20.1h5.1c1.3,0,2.3,0.3,3.1,1c0.7,0.6,1.1,1.5,1.1,2.6s-0.4,2-1.1,2.6s-1.8,1-3.1,1H357v5.6h-1.5V20.1
			z M360.4,26c0.9,0,1.7-0.2,2.1-0.6c0.5-0.4,0.7-1,0.7-1.8s-0.2-1.4-0.7-1.8s-1.2-0.6-2.1-0.6h-3.5V26H360.4z"/>
		<path class="st3" d="M374.7,23.8v9.1h-1.4v-1.6c-0.3,0.6-0.7,1-1.2,1.3s-1.2,0.5-1.9,0.5c-0.8,0-1.5-0.2-2.1-0.6
			c-0.6-0.4-1.1-0.9-1.4-1.6s-0.5-1.5-0.5-2.5c0-0.9,0.2-1.8,0.5-2.5s0.8-1.3,1.4-1.7c0.6-0.4,1.3-0.6,2.1-0.6
			c0.7,0,1.3,0.2,1.9,0.5c0.5,0.3,0.9,0.8,1.2,1.3v-1.6C373.3,23.8,374.7,23.8,374.7,23.8z M372.5,30.9c0.5-0.6,0.7-1.5,0.7-2.6
			s-0.2-2-0.7-2.6s-1.2-0.9-2.1-0.9s-1.6,0.3-2.1,0.9s-0.7,1.5-0.7,2.6s0.2,2,0.7,2.6s1.2,0.9,2.1,0.9
			C371.4,31.8,372,31.5,372.5,30.9z"/>
		<path class="st3" d="M382.5,23.7V25c-0.3-0.1-0.6-0.1-1-0.1c-0.9,0-1.5,0.3-2,0.8c-0.4,0.5-0.6,1.2-0.6,2v5.2h-1.5v-6.5
			c0-0.9,0-1.8-0.1-2.5h1.4l0.1,1.7c0.2-0.6,0.6-1.1,1.1-1.4s1.1-0.5,1.7-0.5C382,23.6,382.3,23.6,382.5,23.7z"/>
		<path class="st3" d="M386.7,25v5c0,0.7,0.1,1.1,0.4,1.4s0.7,0.4,1.2,0.4c0.3,0,0.7-0.1,1-0.2v1.2c-0.4,0.1-0.8,0.2-1.3,0.2
			c-0.9,0-1.5-0.2-2-0.7s-0.7-1.2-0.7-2.2V25h-1.8v-1.2h1.8v-2.3l1.5-0.5v2.8h2.6V25H386.7z"/>
		<path class="st3" d="M398.8,27.2v5.7h-1.5v-5.6c0-0.8-0.2-1.5-0.5-1.8s-0.9-0.6-1.6-0.6c-0.8,0-1.5,0.3-2,0.8s-0.8,1.2-0.8,2.1V33
			H391v-6.5c0-0.9,0-1.8-0.1-2.5h1.4l0.1,1.6c0.3-0.6,0.7-1,1.2-1.4c0.6-0.3,1.2-0.5,1.9-0.5C397.7,23.6,398.8,24.8,398.8,27.2z"/>
		<path class="st3" d="M409.1,28.3h-6.6c0,1.2,0.3,2,0.8,2.6s1.3,0.9,2.3,0.9c1.1,0,2-0.4,2.9-1.1l0.5,1.1c-0.4,0.4-0.9,0.7-1.5,0.9
			s-1.3,0.3-1.9,0.3c-1.4,0-2.5-0.4-3.3-1.3s-1.2-2-1.2-3.4c0-0.9,0.2-1.7,0.5-2.5s0.9-1.3,1.5-1.7c0.6-0.4,1.4-0.6,2.2-0.6
			c1.2,0,2.1,0.4,2.8,1.2c0.7,0.8,1,1.9,1,3.2L409.1,28.3L409.1,28.3z M403.5,25.4c-0.5,0.5-0.8,1.1-0.9,1.9h5.3
			c-0.1-0.9-0.3-1.5-0.7-1.9c-0.4-0.4-1-0.7-1.8-0.7S403.9,25,403.5,25.4z"/>
		<path class="st3" d="M416.4,23.7V25c-0.3-0.1-0.6-0.1-1-0.1c-0.9,0-1.5,0.3-2,0.8c-0.4,0.5-0.6,1.2-0.6,2v5.2h-1.5v-6.5
			c0-0.9,0-1.8-0.1-2.5h1.4l0.1,1.7c0.2-0.6,0.6-1.1,1.1-1.4s1.1-0.5,1.7-0.5C415.9,23.6,416.1,23.6,416.4,23.7z"/>
		<path class="st3" d="M417.2,31.8l0.5-1.1c0.5,0.4,1,0.7,1.5,0.8s1.1,0.3,1.7,0.3c0.7,0,1.2-0.1,1.6-0.4c0.4-0.2,0.5-0.6,0.5-1
			s-0.1-0.6-0.4-0.9c-0.2-0.2-0.6-0.4-1.2-0.5l-1.5-0.4c-0.8-0.2-1.3-0.5-1.8-0.9s-0.6-0.9-0.6-1.5c0-0.8,0.3-1.4,1-1.9
			c0.6-0.5,1.5-0.7,2.5-0.7c0.6,0,1.2,0.1,1.8,0.3c0.6,0.2,1,0.5,1.4,0.9l-0.5,1.1c-0.9-0.7-1.8-1.1-2.7-1.1c-0.6,0-1.1,0.1-1.5,0.4
			c-0.4,0.2-0.5,0.6-0.5,1s0.1,0.7,0.3,0.9c0.2,0.2,0.6,0.4,1.1,0.5l1.5,0.4c0.8,0.2,1.5,0.5,1.9,0.9s0.6,0.9,0.6,1.6
			c0,0.8-0.3,1.4-1,1.9c-0.6,0.5-1.5,0.7-2.6,0.7C419.3,33,418.1,32.6,417.2,31.8z"/>
		<path class="st3" d="M434.5,27.2v5.7H433v-5.6c0-0.8-0.2-1.5-0.5-1.8s-0.9-0.6-1.6-0.6c-0.8,0-1.5,0.3-2,0.8s-0.8,1.2-0.8,2.1V33
			h-1.5V19.6h1.5v5.7c0.3-0.6,0.7-1,1.2-1.3s1.1-0.4,1.8-0.4C433.4,23.6,434.5,24.8,434.5,27.2z"/>
		<path class="st3" d="M438.9,20v1.7h-1.8V20H438.9z M437.2,23.8h1.5v9.1h-1.5V23.8z"/>
		<path class="st3" d="M448.1,24.2c0.6,0.4,1.1,1,1.4,1.7s0.5,1.5,0.5,2.5c0,0.9-0.2,1.8-0.5,2.5s-0.8,1.2-1.4,1.6
			c-0.6,0.4-1.3,0.6-2.1,0.6c-0.7,0-1.3-0.2-1.9-0.5c-0.5-0.3-0.9-0.8-1.2-1.3v5.6h-1.5V26.4c0-0.9,0-1.8-0.1-2.5h1.4l0.1,1.7
			c0.3-0.6,0.7-1.1,1.2-1.4s1.2-0.5,1.9-0.5C446.8,23.6,447.5,23.8,448.1,24.2z M447.8,30.9c0.5-0.6,0.7-1.5,0.7-2.6s-0.2-2-0.7-2.6
			s-1.2-0.9-2.1-0.9s-1.6,0.3-2.1,0.9s-0.7,1.5-0.7,2.6s0.2,2,0.7,2.6s1.2,0.9,2.1,0.9C446.6,31.8,447.3,31.5,447.8,30.9z"/>
	</g>
	<g class="st4">
		<path class="st3" d="M344.6,41.7h8.1v1.2H346v4.5h6.3v1.2H346v4.7h6.6v1.2h-8.1V41.7H344.6z"/>
		<path class="st3" d="M354.4,53.4l0.5-1.1c0.5,0.4,1,0.7,1.5,0.8c0.5,0.2,1.1,0.3,1.7,0.3c0.7,0,1.2-0.1,1.6-0.4
			c0.4-0.2,0.5-0.6,0.5-1s-0.1-0.6-0.4-0.9c-0.2-0.2-0.6-0.4-1.2-0.5l-1.5-0.4c-0.8-0.2-1.3-0.5-1.8-0.9s-0.6-0.9-0.6-1.5
			c0-0.8,0.3-1.4,1-1.9c0.6-0.5,1.5-0.7,2.5-0.7c0.6,0,1.2,0.1,1.8,0.3c0.6,0.2,1,0.5,1.4,0.9l-0.5,1.1c-0.9-0.7-1.8-1.1-2.7-1.1
			c-0.6,0-1.1,0.1-1.5,0.4c-0.4,0.2-0.5,0.6-0.5,1s0.1,0.7,0.3,0.9c0.2,0.2,0.6,0.4,1.1,0.5l1.5,0.4c0.8,0.2,1.5,0.5,1.9,0.9
			s0.6,0.9,0.6,1.6c0,0.8-0.3,1.4-1,1.9s-1.5,0.7-2.6,0.7C356.5,54.6,355.3,54.2,354.4,53.4z"/>
		<path class="st3" d="M365.7,46.6v5c0,0.7,0.1,1.1,0.4,1.4c0.3,0.3,0.7,0.4,1.2,0.4c0.3,0,0.7-0.1,1-0.2v1.2
			c-0.4,0.1-0.8,0.2-1.3,0.2c-0.9,0-1.5-0.2-2-0.7s-0.7-1.2-0.7-2.2v-5.1h-1.8v-1.2h1.8v-2.3l1.5-0.5v2.8h2.6v1.2
			C368.4,46.6,365.7,46.6,365.7,46.6z"/>
		<path class="st3" d="M378.1,45.4v9.1h-1.4v-1.6c-0.3,0.6-0.7,1-1.2,1.3s-1.2,0.5-1.9,0.5c-0.8,0-1.5-0.2-2.1-0.6
			c-0.6-0.4-1.1-0.9-1.4-1.6s-0.5-1.5-0.5-2.5c0-0.9,0.2-1.8,0.5-2.5s0.8-1.3,1.4-1.7s1.3-0.6,2.1-0.6c0.7,0,1.3,0.2,1.9,0.5
			c0.5,0.3,0.9,0.8,1.2,1.3v-1.6C376.7,45.4,378.1,45.4,378.1,45.4z M375.9,52.5c0.5-0.6,0.7-1.5,0.7-2.6s-0.2-2-0.7-2.6
			s-1.2-0.9-2.1-0.9s-1.6,0.3-2.1,0.9s-0.7,1.5-0.7,2.6s0.2,2,0.7,2.6s1.2,0.9,2.1,0.9C374.7,53.4,375.4,53.1,375.9,52.5z"/>
		<path class="st3" d="M387.5,45.8c0.6,0.4,1.1,0.9,1.4,1.6c0.3,0.7,0.5,1.5,0.5,2.5c0,0.9-0.2,1.8-0.5,2.5s-0.8,1.3-1.4,1.7
			s-1.3,0.6-2.1,0.6c-0.7,0-1.3-0.2-1.9-0.5c-0.5-0.3-0.9-0.8-1.2-1.3v1.7h-1.5V41.2h1.5V47c0.3-0.6,0.7-1,1.2-1.3s1.2-0.5,1.9-0.5
			C386.2,45.2,386.9,45.4,387.5,45.8z M387.2,52.5c0.5-0.6,0.7-1.5,0.7-2.6s-0.2-1.9-0.7-2.5s-1.2-0.9-2.1-0.9s-1.6,0.3-2.1,0.9
			c-0.5,0.6-0.7,1.5-0.7,2.6s0.2,2,0.7,2.6s1.2,0.9,2.1,0.9C386,53.4,386.7,53.1,387.2,52.5z"/>
		<path class="st3" d="M391.7,41.2h1.5v13.2h-1.5V41.2z"/>
		<path class="st3" d="M397.6,41.6v1.7h-1.8v-1.7H397.6z M396,45.4h1.5v9.1H396V45.4z"/>
		<path class="st3" d="M399.7,53.4l0.5-1.1c0.5,0.4,1,0.7,1.5,0.8s1.1,0.3,1.7,0.3c0.7,0,1.2-0.1,1.6-0.4c0.4-0.2,0.5-0.6,0.5-1
			s-0.1-0.6-0.4-0.9c-0.2-0.2-0.6-0.4-1.2-0.5l-1.5-0.4c-0.8-0.2-1.3-0.5-1.8-0.9s-0.6-0.9-0.6-1.5c0-0.8,0.3-1.4,1-1.9
			c0.6-0.5,1.5-0.7,2.5-0.7c0.6,0,1.2,0.1,1.8,0.3c0.6,0.2,1,0.5,1.4,0.9l-0.5,1.1c-0.9-0.7-1.8-1.1-2.7-1.1c-0.6,0-1.1,0.1-1.5,0.4
			c-0.4,0.2-0.5,0.6-0.5,1s0.1,0.7,0.3,0.9c0.2,0.2,0.6,0.4,1.1,0.5l1.5,0.4c0.8,0.2,1.5,0.5,1.9,0.9s0.6,0.9,0.6,1.6
			c0,0.8-0.3,1.4-1,1.9c-0.6,0.5-1.5,0.7-2.6,0.7C401.8,54.6,400.6,54.2,399.7,53.4z"/>
		<path class="st3" d="M417,48.8v5.7h-1.5v-5.6c0-0.8-0.2-1.5-0.5-1.8s-0.9-0.6-1.6-0.6c-0.8,0-1.5,0.3-2,0.8s-0.8,1.2-0.8,2.1v5.2
			h-1.5V41.2h1.5v5.7c0.3-0.6,0.7-1,1.2-1.3s1.1-0.4,1.8-0.4C415.9,45.2,417,46.4,417,48.8z"/>
		<path class="st3" d="M432.8,48.8v5.7h-1.5v-5.6c0-0.9-0.1-1.5-0.4-1.9s-0.8-0.6-1.4-0.6c-0.8,0-1.4,0.3-1.8,0.8s-0.6,1.2-0.6,2.1
			v5.2h-1.5v-5.6c0-0.8-0.2-1.5-0.5-1.8s-0.8-0.6-1.4-0.6c-0.8,0-1.4,0.3-1.8,0.8s-0.7,1.2-0.7,2.1v5.2h-1.5V48c0-0.9,0-1.8-0.1-2.5
			h1.4l0.1,1.6c0.3-0.6,0.6-1,1.1-1.3s1.1-0.5,1.7-0.5c0.7,0,1.3,0.1,1.8,0.4s0.8,0.7,1,1.3c0.3-0.5,0.7-1,1.2-1.3s1.1-0.5,1.8-0.5
			C431.8,45.2,432.8,46.4,432.8,48.8z"/>
		<path class="st3" d="M443.1,49.9h-6.6c0,1.2,0.3,2,0.8,2.6s1.3,0.9,2.3,0.9c1.1,0,2-0.4,2.9-1.1l0.5,1.1c-0.4,0.4-0.9,0.7-1.5,0.9
			s-1.3,0.3-1.9,0.3c-1.4,0-2.5-0.4-3.3-1.3s-1.2-2-1.2-3.4c0-0.9,0.2-1.7,0.5-2.5s0.9-1.3,1.5-1.7s1.4-0.6,2.2-0.6
			c1.2,0,2.1,0.4,2.8,1.2c0.7,0.8,1,1.9,1,3.2L443.1,49.9L443.1,49.9z M437.4,47c-0.5,0.5-0.8,1.1-0.9,1.9h5.3
			c-0.1-0.9-0.3-1.5-0.7-1.9c-0.4-0.4-1-0.7-1.8-0.7S437.9,46.6,437.4,47z"/>
		<path class="st3" d="M453.1,48.8v5.7h-1.5v-5.6c0-0.8-0.2-1.5-0.5-1.8s-0.9-0.6-1.6-0.6c-0.8,0-1.5,0.3-2,0.8s-0.8,1.2-0.8,2.1
			v5.2h-1.5V48c0-0.9,0-1.8-0.1-2.5h1.4l0.1,1.6c0.3-0.6,0.7-1,1.2-1.4c0.6-0.3,1.2-0.5,1.9-0.5C452,45.2,453.1,46.4,453.1,48.8z"/>
		<path class="st3" d="M457.8,46.6v5c0,0.7,0.1,1.1,0.4,1.4c0.3,0.3,0.7,0.4,1.2,0.4c0.3,0,0.7-0.1,1-0.2v1.2
			c-0.4,0.1-0.8,0.2-1.3,0.2c-0.9,0-1.5-0.2-2-0.7s-0.7-1.2-0.7-2.2v-5.1h-1.8v-1.2h1.8v-2.3l1.5-0.5v2.8h2.6v1.2
			C460.5,46.6,457.8,46.6,457.8,46.6z"/>
	</g>
	<rect x="335.7" y="202.4" class="st5" width="136.7" height="40.1"/>
	<g class="st4">
		<path class="st2" d="M362.9,204.9h7.9v1.2h-6.5v4.4h6.1v1.2h-6.1v5.9h-1.5v-12.7L362.9,204.9L362.9,204.9z"/>
		<path class="st2" d="M380.2,213.2h-6.6c0,1.2,0.3,2,0.8,2.6s1.3,0.9,2.3,0.9c1.1,0,2-0.4,2.9-1.1l0.5,1.1
			c-0.4,0.4-0.9,0.7-1.5,0.9s-1.3,0.3-1.9,0.3c-1.4,0-2.5-0.4-3.3-1.3c-0.8-0.8-1.2-2-1.2-3.4c0-0.9,0.2-1.7,0.5-2.5
			c0.4-0.7,0.9-1.3,1.5-1.7s1.4-0.6,2.2-0.6c1.2,0,2.1,0.4,2.8,1.2c0.7,0.8,1,1.9,1,3.2L380.2,213.2L380.2,213.2z M374.5,210.3
			c-0.5,0.5-0.8,1.1-0.9,1.9h5.3c-0.1-0.9-0.3-1.5-0.7-1.9c-0.4-0.4-1-0.7-1.8-0.7S375,209.9,374.5,210.3z"/>
		<path class="st2" d="M390.4,204.5v13.2H389v-1.6c-0.3,0.6-0.7,1-1.2,1.3s-1.2,0.5-1.9,0.5c-0.8,0-1.5-0.2-2.1-0.6
			c-0.6-0.4-1.1-1-1.4-1.7s-0.5-1.5-0.5-2.5c0-0.9,0.2-1.8,0.5-2.5s0.8-1.2,1.4-1.6c0.6-0.4,1.3-0.6,2.1-0.6c0.7,0,1.3,0.2,1.9,0.5
			c0.5,0.3,0.9,0.7,1.2,1.3v-5.7L390.4,204.5L390.4,204.5z M388.3,215.8c0.5-0.6,0.7-1.5,0.7-2.6s-0.2-2-0.7-2.6s-1.2-0.9-2.1-0.9
			s-1.6,0.3-2.1,0.9c-0.5,0.6-0.7,1.4-0.7,2.5s0.2,2,0.7,2.6s1.2,0.9,2.1,0.9S387.8,216.4,388.3,215.8z"/>
		<path class="st2" d="M403.5,217.8h-1.6l-1.6-4.3c-0.2-0.5-0.5-0.9-0.8-1.1s-0.8-0.3-1.4-0.3h-3.2v5.6h-1.5v-12.8h5.1
			c1.4,0,2.4,0.3,3.2,0.9c0.7,0.6,1.1,1.5,1.1,2.6c0,0.8-0.2,1.5-0.7,2.1c-0.4,0.6-1.1,1-1.9,1.2c0.4,0.1,0.7,0.2,1,0.5
			s0.5,0.6,0.7,1.1L403.5,217.8z M398.4,210.9c2,0,3-0.8,3-2.4c0-0.8-0.2-1.4-0.7-1.8c-0.5-0.4-1.2-0.6-2.2-0.6H395v4.8H398.4z"/>
		<path class="st2" d="M414.2,214.5h-6.7l-1.4,3.3h-1.5l5.6-12.8h1.3l5.6,12.8h-1.5L414.2,214.5z M413.7,213.2l-2.8-6.6l-2.8,6.6
			H413.7z"/>
		<path class="st2" d="M431.1,204.9v12.8h-1.4v-9.5l-4.2,9.5h-1l-4.2-9.5v9.5H419v-12.8h1.2l4.9,11.1l4.8-11.1H431.1z"/>
		<path class="st2" d="M434.3,204.9h5.1c1.3,0,2.3,0.3,3.1,1c0.7,0.6,1.1,1.5,1.1,2.6s-0.4,2-1.1,2.6s-1.8,1-3.1,1h-3.6v5.6h-1.5
			V204.9z M439.3,210.9c0.9,0,1.7-0.2,2.1-0.6c0.5-0.4,0.7-1,0.7-1.8s-0.2-1.4-0.7-1.8c-0.5-0.4-1.2-0.6-2.1-0.6h-3.5v4.7h3.5V210.9
			z"/>
	</g>
	<g class="st4">
		<path class="st2" d="M372.6,238.7c-0.9-0.5-1.6-1.3-2.1-2.3s-0.7-2.2-0.7-3.5s0.2-2.5,0.7-3.5s1.2-1.7,2.1-2.3
			c0.9-0.5,1.9-0.8,3.2-0.8c0.9,0,1.7,0.1,2.4,0.4c0.7,0.3,1.4,0.7,1.9,1.2l-0.6,1.1c-0.6-0.5-1.2-0.9-1.8-1.1
			c-0.6-0.2-1.3-0.3-2-0.3c-1.4,0-2.5,0.5-3.3,1.4s-1.2,2.2-1.2,3.9s0.4,3,1.2,3.9c0.8,0.9,1.9,1.4,3.3,1.4c0.7,0,1.4-0.1,2-0.3
			s1.2-0.6,1.8-1.1l0.6,1.1c-0.5,0.5-1.2,0.9-1.9,1.2c-0.7,0.3-1.6,0.4-2.4,0.4C374.5,239.5,373.5,239.2,372.6,238.7z"/>
		<path class="st2" d="M383.7,238.9c-0.6-0.4-1.1-0.9-1.5-1.6c-0.4-0.7-0.5-1.5-0.5-2.5c0-0.9,0.2-1.8,0.5-2.5
			c0.4-0.7,0.9-1.3,1.5-1.6c0.6-0.4,1.4-0.6,2.2-0.6c0.9,0,1.6,0.2,2.2,0.6c0.6,0.4,1.1,0.9,1.5,1.6c0.4,0.7,0.5,1.5,0.5,2.5
			c0,0.9-0.2,1.8-0.5,2.5c-0.4,0.7-0.9,1.3-1.5,1.6c-0.6,0.4-1.4,0.6-2.2,0.6S384.4,239.3,383.7,238.9z M388,237.4
			c0.5-0.6,0.7-1.5,0.7-2.6s-0.2-2-0.7-2.6s-1.2-0.9-2.1-0.9s-1.6,0.3-2.1,0.9c-0.5,0.6-0.7,1.5-0.7,2.6s0.2,2,0.7,2.6
			s1.2,0.9,2.1,0.9C386.9,238.3,387.6,238,388,237.4z"/>
		<path class="st2" d="M400.3,233.7v5.7h-1.5v-5.6c0-0.8-0.2-1.5-0.5-1.8s-0.9-0.6-1.6-0.6c-0.8,0-1.5,0.3-2,0.8s-0.8,1.2-0.8,2.1
			v5.2h-1.5V233c0-0.9,0-1.8-0.1-2.5h1.4l0.1,1.6c0.3-0.6,0.7-1,1.2-1.4c0.6-0.3,1.2-0.5,1.9-0.5
			C399.2,230.1,400.3,231.3,400.3,233.7z"/>
		<path class="st2" d="M410.8,233.7v5.7h-1.5v-5.6c0-0.8-0.2-1.5-0.5-1.8s-0.9-0.6-1.6-0.6c-0.8,0-1.5,0.3-2,0.8s-0.8,1.2-0.8,2.1
			v5.2h-1.5V233c0-0.9,0-1.8-0.1-2.5h1.4l0.1,1.6c0.3-0.6,0.7-1,1.2-1.4c0.6-0.3,1.2-0.5,1.9-0.5
			C409.7,230.1,410.8,231.3,410.8,233.7z"/>
		<path class="st2" d="M421.2,234.8h-6.6c0,1.2,0.3,2,0.8,2.6s1.3,0.9,2.3,0.9c1.1,0,2-0.4,2.9-1.1l0.5,1.1
			c-0.4,0.4-0.9,0.7-1.5,0.9s-1.3,0.3-1.9,0.3c-1.4,0-2.5-0.4-3.3-1.3s-1.2-2-1.2-3.4c0-0.9,0.2-1.7,0.5-2.5s0.9-1.3,1.5-1.7
			s1.4-0.6,2.2-0.6c1.2,0,2.1,0.4,2.8,1.2c0.7,0.8,1,1.9,1,3.2L421.2,234.8L421.2,234.8z M415.5,231.9c-0.5,0.5-0.8,1.1-0.9,1.9h5.3
			c-0.1-0.9-0.3-1.5-0.7-1.9c-0.4-0.4-1-0.7-1.8-0.7S416,231.5,415.5,231.9z"/>
		<path class="st2" d="M424.9,238.9c-0.7-0.4-1.2-0.9-1.5-1.6c-0.4-0.7-0.5-1.5-0.5-2.5c0-0.9,0.2-1.8,0.5-2.5s0.9-1.3,1.5-1.7
			c0.7-0.4,1.4-0.6,2.3-0.6c0.6,0,1.2,0.1,1.8,0.3c0.6,0.2,1,0.5,1.4,0.9l-0.5,1.1c-0.5-0.4-0.9-0.6-1.3-0.8s-0.9-0.3-1.3-0.3
			c-0.9,0-1.7,0.3-2.2,0.9s-0.8,1.5-0.8,2.6s0.3,1.9,0.8,2.5s1.3,0.9,2.2,0.9c0.4,0,0.9-0.1,1.3-0.3s0.9-0.4,1.3-0.8l0.5,1.1
			c-0.4,0.4-0.9,0.6-1.4,0.9c-0.6,0.2-1.2,0.3-1.8,0.3C426.3,239.5,425.5,239.3,424.9,238.9z"/>
		<path class="st2" d="M434.2,231.5v5c0,0.7,0.1,1.1,0.4,1.4c0.3,0.3,0.7,0.4,1.2,0.4c0.3,0,0.7-0.1,1-0.2v1.2
			c-0.4,0.1-0.8,0.2-1.3,0.2c-0.9,0-1.5-0.2-2-0.7s-0.7-1.2-0.7-2.2v-5.1H431v-1.2h1.8V228l1.5-0.5v2.8h2.6v1.2H434.2z"/>
	</g>
	<rect y="292" class="st7" width="662" height="1"/>
</g>
</svg>
