<svg id="fisma-graphic" xmlns="http://www.w3.org/2000/svg" width="87.035" height="87.035" viewBox="0 0 87.035 87.035">
  <g id="Circles" transform="translate(0 0)">
    <ellipse id="Ellipse_353" data-name="Ellipse 353" cx="43.517" cy="43.517" rx="43.517" ry="43.517" fill="#d3ebf9"/>
  </g>
  <g id="Icon_Art" data-name="Icon Art" transform="translate(3.728 4.74)">
    <rect id="Rectangle_1728" data-name="Rectangle 1728" width="3.16" height="61.124" transform="translate(39.055 6.991)" fill="#1a4480"/>
    <g id="Group_2018" data-name="Group 2018" transform="translate(66.398 16.168)">
      <path id="Path_2832" data-name="Path 2832" d="M125.015,67.614a.368.368,0,0,1,.177-.485h0a.366.366,0,0,1,.485.178h0a.365.365,0,0,1-.177.484h0a.37.37,0,0,1-.119.034h0A.367.367,0,0,1,125.015,67.614Zm-.607-1.306a.366.366,0,0,1,.177-.485h0a.363.363,0,0,1,.485.178h0a.367.367,0,0,1-.177.484h0a.361.361,0,0,1-.119.031h0A.369.369,0,0,1,124.408,66.308ZM123.8,65a.367.367,0,0,1,.177-.485h0a.366.366,0,0,1,.485.177h0a.366.366,0,0,1-.178.485h0a.362.362,0,0,1-.118.034h0A.368.368,0,0,1,123.8,65Zm-.607-1.306a.366.366,0,0,1,.177-.485h0a.363.363,0,0,1,.485.178h0a.368.368,0,0,1-.178.484h0a.358.358,0,0,1-.118.031h0A.363.363,0,0,1,123.193,63.694Zm-.608-1.308a.366.366,0,0,1,.178-.485h0a.365.365,0,0,1,.484.178h0a.365.365,0,0,1-.177.484h0a.4.4,0,0,1-.119.031h0A.364.364,0,0,1,122.585,62.386Zm-.607-1.308a.364.364,0,0,1,.178-.482h0a.362.362,0,0,1,.484.178h0a.363.363,0,0,1-.177.482h0a.387.387,0,0,1-.119.034h0A.363.363,0,0,1,121.978,61.077Zm-.607-1.306a.366.366,0,0,1,.177-.485h0a.367.367,0,0,1,.485.177h0a.366.366,0,0,1-.177.485h0a.4.4,0,0,1-.119.031h0A.365.365,0,0,1,121.371,59.772Zm-.607-1.308a.367.367,0,0,1,.177-.485h0a.367.367,0,0,1,.485.177h0a.365.365,0,0,1-.178.485h0a.4.4,0,0,1-.118.034h0A.363.363,0,0,1,120.764,58.463Zm-.607-1.306a.364.364,0,0,1,.177-.485h0a.365.365,0,0,1,.485.177h0a.367.367,0,0,1-.177.485h0a.4.4,0,0,1-.119.031h0A.364.364,0,0,1,120.157,57.158Zm-.607-1.308a.364.364,0,0,1,.177-.485h0a.368.368,0,0,1,.485.177h0a.366.366,0,0,1-.178.485h0a.4.4,0,0,1-.118.034h0A.363.363,0,0,1,119.55,55.849Zm-.607-1.306a.364.364,0,0,1,.177-.485h0a.36.36,0,0,1,.482.178h0a.364.364,0,0,1-.175.484h0a.4.4,0,0,1-.118.031h0A.365.365,0,0,1,118.942,54.544Zm-.607-1.308a.362.362,0,0,1,.175-.485h0a.366.366,0,0,1,.485.178h0a.362.362,0,0,1-.175.484h0a.4.4,0,0,1-.121.031h0A.363.363,0,0,1,118.335,53.235Zm-.608-1.309a.361.361,0,0,1,.175-.482h0a.361.361,0,0,1,.485.178h0a.362.362,0,0,1-.178.482h0a.361.361,0,0,1-.119.034h0A.362.362,0,0,1,117.727,51.926Zm-.61-1.3a.366.366,0,0,1,.177-.485h0a.365.365,0,0,1,.485.178h0a.364.364,0,0,1-.177.484h0a.357.357,0,0,1-.119.031h0A.37.37,0,0,1,117.118,50.621Zm-.607-1.308a.367.367,0,0,1,.177-.485h0a.366.366,0,0,1,.485.177h0a.366.366,0,0,1-.177.485h0a.365.365,0,0,1-.119.034h0A.368.368,0,0,1,116.51,49.313Zm-.607-1.306a.366.366,0,0,1,.177-.485h0a.363.363,0,0,1,.485.178h0a.366.366,0,0,1-.177.484h0a.361.361,0,0,1-.119.031h0A.371.371,0,0,1,115.9,48.007ZM115.3,46.7a.367.367,0,0,1,.177-.485h0a.366.366,0,0,1,.485.177h0a.365.365,0,0,1-.178.485h0a.361.361,0,0,1-.118.034h0A.369.369,0,0,1,115.3,46.7Zm-.607-1.306a.366.366,0,0,1,.177-.485h0a.364.364,0,0,1,.485.177h0a.368.368,0,0,1-.177.485h0a.384.384,0,0,1-.119.031h0A.367.367,0,0,1,114.689,45.393Zm-.607-1.308a.365.365,0,0,1,.177-.485h0a.367.367,0,0,1,.485.177h0a.366.366,0,0,1-.178.485h0a.361.361,0,0,1-.118.034h0A.365.365,0,0,1,114.082,44.085Zm-.608-1.308a.368.368,0,0,1,.178-.485h0a.366.366,0,0,1,.484.177h0a.366.366,0,0,1-.177.485h0a.4.4,0,0,1-.119.034h0A.363.363,0,0,1,113.474,42.777Zm-.606-1.306a.365.365,0,0,1,.177-.485h0a.367.367,0,0,1,.485.177h0a.367.367,0,0,1-.178.485h0a.4.4,0,0,1-.119.031h0A.364.364,0,0,1,112.868,41.471Zm-.608-1.308a.367.367,0,0,1,.177-.485h0a.366.366,0,0,1,.485.177h0a.366.366,0,0,1-.177.485h0a.407.407,0,0,1-.119.034h0A.363.363,0,0,1,112.26,40.163Zm-.607-1.306a.365.365,0,0,1,.178-.485h0a.364.364,0,0,1,.484.177h0a.367.367,0,0,1-.177.485h0a.4.4,0,0,1-.119.031h0A.365.365,0,0,1,111.653,38.857Z" transform="translate(-111.619 -38.337)" fill="#1a4480"/>
    </g>
    <g id="Group_2019" data-name="Group 2019" transform="translate(52.426 16.059)">
      <path id="Path_2833" data-name="Path 2833" d="M91.032,67.849a.366.366,0,0,1-.185-.482h0a.366.366,0,0,1,.482-.185h0a.367.367,0,0,1,.186.482h0a.363.363,0,0,1-.363.217h0A.4.4,0,0,1,91.032,67.849Zm.586-1.316a.367.367,0,0,1-.186-.482h0a.367.367,0,0,1,.482-.185h0a.366.366,0,0,1,.185.482h0a.364.364,0,0,1-.363.214h0A.362.362,0,0,1,91.618,66.534Zm.585-1.318a.365.365,0,0,1-.185-.482h0a.366.366,0,0,1,.482-.185h0a.364.364,0,0,1,.185.482h0a.362.362,0,0,1-.362.217h0A.368.368,0,0,1,92.2,65.215Zm.586-1.318a.364.364,0,0,1-.186-.479h0a.366.366,0,0,1,.482-.185h0a.364.364,0,0,1,.185.482h0a.364.364,0,0,1-.363.214h0A.308.308,0,0,1,92.789,63.9Zm.585-1.315a.365.365,0,0,1-.185-.482h0a.367.367,0,0,1,.482-.186h0a.363.363,0,0,1,.185.482h0a.364.364,0,0,1-.362.215h0A.4.4,0,0,1,93.374,62.582Zm.588-1.318a.361.361,0,0,1-.185-.482h0a.361.361,0,0,1,.482-.183h0a.364.364,0,0,1,.183.482h0a.365.365,0,0,1-.363.214h0A.307.307,0,0,1,93.962,61.263Zm.585-1.316a.362.362,0,0,1-.185-.482h0a.365.365,0,0,1,.482-.185h0a.362.362,0,0,1,.183.482h0a.362.362,0,0,1-.359.214h0A.367.367,0,0,1,94.547,59.948Zm.586-1.318a.363.363,0,0,1-.185-.482h0a.365.365,0,0,1,.482-.185h0a.363.363,0,0,1,.183.482h0a.362.362,0,0,1-.36.217h0A.351.351,0,0,1,95.133,58.629Zm.585-1.316a.364.364,0,0,1-.185-.482h0a.363.363,0,0,1,.482-.185h0a.365.365,0,0,1,.185.482h0a.371.371,0,0,1-.362.215h0A.348.348,0,0,1,95.718,57.314ZM96.3,56a.366.366,0,0,1-.185-.482h0a.365.365,0,0,1,.482-.185h0a.366.366,0,0,1,.185.482h0a.369.369,0,0,1-.363.218h0A.367.367,0,0,1,96.3,56Zm.585-1.318A.364.364,0,0,1,96.7,54.2h0a.362.362,0,0,1,.482-.185h0a.365.365,0,0,1,.185.482h0a.369.369,0,0,1-.362.214h0A.31.31,0,0,1,96.888,54.677Zm.586-1.316a.365.365,0,0,1-.185-.482h0a.365.365,0,0,1,.482-.186h0a.366.366,0,0,1,.185.482h0a.368.368,0,0,1-.363.214h0A.359.359,0,0,1,97.474,53.362Zm.586-1.318a.363.363,0,0,1-.186-.479h0a.361.361,0,0,1,.482-.185h0a.364.364,0,0,1,.185.482h0a.367.367,0,0,1-.362.214h0A.316.316,0,0,1,98.06,52.043Zm.585-1.316a.367.367,0,0,1-.186-.482h0a.366.366,0,0,1,.482-.185h0a.366.366,0,0,1,.185.482h0a.364.364,0,0,1-.363.214h0A.376.376,0,0,1,98.645,50.728Zm.585-1.318a.365.365,0,0,1-.185-.482h0a.365.365,0,0,1,.482-.185h0a.367.367,0,0,1,.186.482h0a.363.363,0,0,1-.363.217h0A.367.367,0,0,1,99.23,49.409Zm.586-1.316a.367.367,0,0,1-.186-.482h0a.364.364,0,0,1,.482-.185h0a.365.365,0,0,1,.186.482h0a.364.364,0,0,1-.363.214h0A.358.358,0,0,1,99.815,48.093Zm.585-1.318a.365.365,0,0,1-.185-.482h0a.367.367,0,0,1,.482-.186h0a.366.366,0,0,1,.185.482h0a.363.363,0,0,1-.362.218h0A.405.405,0,0,1,100.4,46.776Zm.586-1.318a.364.364,0,0,1-.186-.479h0a.365.365,0,0,1,.482-.186h0a.366.366,0,0,1,.186.482h0a.366.366,0,0,1-.363.215h0A.333.333,0,0,1,100.986,45.457Zm.585-1.316a.363.363,0,0,1-.183-.482h0a.363.363,0,0,1,.479-.186h0a.364.364,0,0,1,.185.482h0a.365.365,0,0,1-.362.214h0A.4.4,0,0,1,101.571,44.142Zm.586-1.318a.362.362,0,0,1-.183-.482h0a.363.363,0,0,1,.479-.185h0a.364.364,0,0,1,.185.482h0a.362.362,0,0,1-.36.217h0A.4.4,0,0,1,102.156,42.823Zm.585-1.316a.365.365,0,0,1-.183-.482h0a.363.363,0,0,1,.479-.185h0a.363.363,0,0,1,.185.482h0a.364.364,0,0,1-.362.214h0A.379.379,0,0,1,102.742,41.507Zm.586-1.318a.362.362,0,0,1-.183-.482h0a.363.363,0,0,1,.479-.185h0a.364.364,0,0,1,.185.482h0a.363.363,0,0,1-.363.217h0A.369.369,0,0,1,103.327,40.189Zm.588-1.315a.364.364,0,0,1-.185-.482h0a.363.363,0,0,1,.482-.186h0a.362.362,0,0,1,.183.482h0a.363.363,0,0,1-.359.215h0A.363.363,0,0,1,103.915,38.874Z" transform="translate(-90.816 -38.174)" fill="#1a4480"/>
    </g>
    <path id="Path_2834" data-name="Path 2834" d="M93.635,83.36h20.856c2.777,0,5.027-3.3,5.027-7.381H88.608C88.608,80.055,90.859,83.36,93.635,83.36Z" transform="translate(-37.665 -34.53)" fill="#cc1d1d"/>
    <path id="Path_2835" data-name="Path 2835" d="M90.046,82.437c.914,1.842,2.39,3.043,4.061,3.043h20.856c1.671,0,3.147-1.2,4.061-3.043Z" transform="translate(-38.137 -36.65)" fill="#cc1d1d" opacity="0.73" style="mix-blend-mode: multiply;isolation: isolate"/>
    <path id="Path_2836" data-name="Path 2836" d="M120.649,80.316a15.183,15.183,0,0,0,.591-4.337h-9.352v4.337Z" transform="translate(-45.309 -34.53)" fill="#cc1d1d" style="mix-blend-mode: multiply;isolation: isolate"/>
    <g id="Group_2020" data-name="Group 2020" transform="translate(15.455 6.368)">
      <path id="Path_2837" data-name="Path 2837" d="M49.165,53.023a.367.367,0,0,1,.177-.484h0a.366.366,0,0,1,.485.177h0a.366.366,0,0,1-.178.485h0a.362.362,0,0,1-.118.034h0A.368.368,0,0,1,49.165,53.023Zm-.607-1.3a.366.366,0,0,1,.177-.485h0a.364.364,0,0,1,.485.177h0a.367.367,0,0,1-.177.485h0a.365.365,0,0,1-.12.031h0A.37.37,0,0,1,48.558,51.718Zm-.607-1.308a.366.366,0,0,1,.177-.485h0a.366.366,0,0,1,.485.177h0a.366.366,0,0,1-.178.485h0a.362.362,0,0,1-.118.034h0A.368.368,0,0,1,47.95,50.409ZM47.343,49.1a.365.365,0,0,1,.177-.484h0a.364.364,0,0,1,.485.177h0a.368.368,0,0,1-.178.485h0a.362.362,0,0,1-.118.031h0A.365.365,0,0,1,47.343,49.1Zm-.608-1.308a.365.365,0,0,1,.178-.484h0a.365.365,0,0,1,.484.177h0a.366.366,0,0,1-.177.485h0A.378.378,0,0,1,47.1,48h0A.364.364,0,0,1,46.735,47.795Zm-.607-1.308A.363.363,0,0,1,46.306,46h0a.362.362,0,0,1,.484.177h0a.364.364,0,0,1-.177.482h0a.407.407,0,0,1-.119.034h0A.364.364,0,0,1,46.128,46.486Zm-.607-1.306A.365.365,0,0,1,45.7,44.7h0a.366.366,0,0,1,.485.177h0a.366.366,0,0,1-.177.485h0a.378.378,0,0,1-.119.03h0A.364.364,0,0,1,45.521,45.181Zm-.607-1.308a.366.366,0,0,1,.177-.484h0a.366.366,0,0,1,.485.177h0a.366.366,0,0,1-.178.485h0a.382.382,0,0,1-.118.033h0A.363.363,0,0,1,44.914,43.872Zm-.607-1.306a.363.363,0,0,1,.177-.484h0a.364.364,0,0,1,.485.177h0a.367.367,0,0,1-.177.484h0a.367.367,0,0,1-.119.031h0A.364.364,0,0,1,44.307,42.567ZM43.7,41.258a.364.364,0,0,1,.177-.485h0a.368.368,0,0,1,.484.178h0a.365.365,0,0,1-.177.484h0a.366.366,0,0,1-.118.034h0A.362.362,0,0,1,43.7,41.258Zm-.607-1.306a.363.363,0,0,1,.177-.484h0a.36.36,0,0,1,.482.177h0a.365.365,0,0,1-.175.485h0a.374.374,0,0,1-.118.03h0A.364.364,0,0,1,43.092,39.953Zm-.607-1.308a.361.361,0,0,1,.175-.484h0a.366.366,0,0,1,.485.177h0a.362.362,0,0,1-.175.484h0a.378.378,0,0,1-.122.032h0A.363.363,0,0,1,42.485,38.644Zm-.608-1.308a.36.36,0,0,1,.175-.482h0a.362.362,0,0,1,.485.177h0a.362.362,0,0,1-.178.482h0a.365.365,0,0,1-.119.034h0A.363.363,0,0,1,41.878,37.336Zm-.61-1.306a.365.365,0,0,1,.177-.484h0a.366.366,0,0,1,.485.177h0a.364.364,0,0,1-.177.485h0a.362.362,0,0,1-.119.031h0A.37.37,0,0,1,41.268,36.03Zm-.607-1.308a.366.366,0,0,1,.177-.484h0a.366.366,0,0,1,.485.177h0a.366.366,0,0,1-.177.485h0a.353.353,0,0,1-.119.033h0A.367.367,0,0,1,40.661,34.722Zm-.607-1.306a.365.365,0,0,1,.177-.484h0a.364.364,0,0,1,.485.177h0a.367.367,0,0,1-.177.485h0a.36.36,0,0,1-.119.03h0A.369.369,0,0,1,40.053,33.416Zm-.607-1.308a.366.366,0,0,1,.177-.484h0a.366.366,0,0,1,.485.177h0a.366.366,0,0,1-.178.485h0a.379.379,0,0,1-.118.034h0A.368.368,0,0,1,39.446,32.108ZM38.839,30.8a.365.365,0,0,1,.177-.484h0a.363.363,0,0,1,.485.177h0a.368.368,0,0,1-.177.485h0a.383.383,0,0,1-.119.03h0A.366.366,0,0,1,38.839,30.8Zm-.607-1.308a.365.365,0,0,1,.177-.484h0a.365.365,0,0,1,.484.177h0a.365.365,0,0,1-.177.484h0a.346.346,0,0,1-.118.034h0A.364.364,0,0,1,38.232,29.494Zm-.608-1.308A.368.368,0,0,1,37.8,27.7h0a.365.365,0,0,1,.484.177h0a.365.365,0,0,1-.177.484h0a.365.365,0,0,1-.119.034h0A.363.363,0,0,1,37.624,28.186Zm-.606-1.306a.365.365,0,0,1,.177-.485h0a.367.367,0,0,1,.484.178h0a.365.365,0,0,1-.177.484h0a.363.363,0,0,1-.119.031h0A.363.363,0,0,1,37.018,26.88Zm-.608-1.308a.367.367,0,0,1,.177-.485h0a.367.367,0,0,1,.485.178h0a.365.365,0,0,1-.177.484h0a.369.369,0,0,1-.119.034h0A.363.363,0,0,1,36.41,25.572ZM35.8,24.266a.366.366,0,0,1,.178-.485h0a.364.364,0,0,1,.484.178h0a.366.366,0,0,1-.177.484h0a.362.362,0,0,1-.119.031h0A.364.364,0,0,1,35.8,24.266Z" transform="translate(-35.769 -23.746)" fill="#1a4480"/>
    </g>
    <g id="Group_2021" data-name="Group 2021" transform="translate(1.483 6.259)">
      <path id="Path_2838" data-name="Path 2838" d="M15.182,53.259A.366.366,0,0,1,15,52.777h0a.367.367,0,0,1,.482-.185h0a.367.367,0,0,1,.186.482h0a.365.365,0,0,1-.363.218h0A.405.405,0,0,1,15.182,53.259Zm.586-1.316a.367.367,0,0,1-.186-.482h0a.368.368,0,0,1,.482-.186h0a.366.366,0,0,1,.185.482h0a.365.365,0,0,1-.363.214h0A.394.394,0,0,1,15.768,51.944Zm.585-1.318a.365.365,0,0,1-.185-.482h0a.366.366,0,0,1,.482-.185h0a.364.364,0,0,1,.185.482h0a.363.363,0,0,1-.362.217h0A.405.405,0,0,1,16.353,50.625Zm.586-1.318a.364.364,0,0,1-.186-.479h0a.364.364,0,0,1,.482-.185h0a.363.363,0,0,1,.185.482h0a.365.365,0,0,1-.363.214h0A.334.334,0,0,1,16.939,49.307Zm.585-1.316a.365.365,0,0,1-.185-.482h0a.366.366,0,0,1,.482-.185h0a.363.363,0,0,1,.185.482h0a.364.364,0,0,1-.362.214h0A.4.4,0,0,1,17.524,47.991Zm.588-1.318a.361.361,0,0,1-.185-.482h0a.36.36,0,0,1,.481-.183h0a.364.364,0,0,1,.183.482h0a.364.364,0,0,1-.363.214h0A.294.294,0,0,1,18.112,46.673Zm.585-1.316a.362.362,0,0,1-.185-.482h0a.365.365,0,0,1,.482-.186h0a.362.362,0,0,1,.183.482h0a.364.364,0,0,1-.359.215h0A.363.363,0,0,1,18.7,45.358Zm.586-1.318a.363.363,0,0,1-.185-.482h0a.366.366,0,0,1,.482-.186h0a.363.363,0,0,1,.183.482h0a.363.363,0,0,1-.36.218h0A.367.367,0,0,1,19.283,44.039Zm.585-1.316a.364.364,0,0,1-.185-.482h0a.363.363,0,0,1,.482-.185h0a.365.365,0,0,1,.185.482h0a.369.369,0,0,1-.362.214h0A.363.363,0,0,1,19.868,42.723Zm.586-1.318a.365.365,0,0,1-.185-.482h0a.365.365,0,0,1,.482-.185h0a.366.366,0,0,1,.185.482h0a.368.368,0,0,1-.363.217h0A.363.363,0,0,1,20.453,41.405Zm.585-1.318a.363.363,0,0,1-.185-.479h0a.363.363,0,0,1,.482-.185h0a.365.365,0,0,1,.185.482h0a.368.368,0,0,1-.362.214h0A.31.31,0,0,1,21.038,40.087Zm.586-1.316a.365.365,0,0,1-.186-.482h0a.366.366,0,0,1,.482-.185h0a.366.366,0,0,1,.185.482h0a.366.366,0,0,1-.363.214h0A.359.359,0,0,1,21.624,38.771Zm.585-1.318a.363.363,0,0,1-.185-.478h0a.361.361,0,0,1,.482-.186h0a.364.364,0,0,1,.185.482h0a.366.366,0,0,1-.362.214h0A.3.3,0,0,1,22.209,37.452Zm.586-1.315a.367.367,0,0,1-.186-.482h0a.366.366,0,0,1,.482-.186h0a.366.366,0,0,1,.186.482h0a.365.365,0,0,1-.363.215h0A.376.376,0,0,1,22.795,36.137Zm.585-1.318a.365.365,0,0,1-.185-.482h0a.365.365,0,0,1,.482-.186h0a.367.367,0,0,1,.185.482h0a.363.363,0,0,1-.362.217h0A.385.385,0,0,1,23.38,34.819Zm.586-1.316a.367.367,0,0,1-.186-.482h0a.363.363,0,0,1,.482-.185h0a.365.365,0,0,1,.186.482h0a.365.365,0,0,1-.363.214h0A.376.376,0,0,1,23.965,33.5Zm.585-1.318a.365.365,0,0,1-.185-.482h0a.366.366,0,0,1,.482-.185h0a.366.366,0,0,1,.185.482h0a.363.363,0,0,1-.362.217h0A.386.386,0,0,1,24.55,32.185Zm.586-1.318a.364.364,0,0,1-.186-.479h0a.364.364,0,0,1,.482-.185h0a.365.365,0,0,1,.186.482h0a.365.365,0,0,1-.363.214h0A.32.32,0,0,1,25.136,30.866Zm.585-1.316a.362.362,0,0,1-.183-.481h0a.362.362,0,0,1,.479-.186h0a.363.363,0,0,1,.185.482h0a.363.363,0,0,1-.362.214h0A.361.361,0,0,1,25.721,29.551Zm.586-1.318a.36.36,0,0,1-.183-.481h0a.363.363,0,0,1,.479-.186h0a.364.364,0,0,1,.185.482h0a.363.363,0,0,1-.36.218h0A.38.38,0,0,1,26.307,28.232Zm.585-1.315a.365.365,0,0,1-.183-.482h0a.364.364,0,0,1,.479-.186h0a.363.363,0,0,1,.185.482h0a.365.365,0,0,1-.362.215h0A.4.4,0,0,1,26.892,26.917Zm.586-1.318a.362.362,0,0,1-.183-.482h0a.363.363,0,0,1,.478-.186h0a.364.364,0,0,1,.186.482h0a.363.363,0,0,1-.363.218h0A.4.4,0,0,1,27.477,25.6Zm.588-1.316a.364.364,0,0,1-.185-.482h0a.363.363,0,0,1,.482-.185h0a.362.362,0,0,1,.183.482h0a.362.362,0,0,1-.359.214h0A.359.359,0,0,1,28.065,24.283Z" transform="translate(-14.966 -23.584)" fill="#1a4480"/>
    </g>
    <path id="Path_2839" data-name="Path 2839" d="M17.785,68.769H38.641c2.777,0,5.027-3.3,5.027-7.38H12.758C12.758,65.464,15.009,68.769,17.785,68.769Z" transform="translate(-12.758 -29.739)" fill="#cc1d1d"/>
    <path id="Path_2840" data-name="Path 2840" d="M14.2,67.847c.914,1.841,2.39,3.042,4.061,3.042H39.113c1.671,0,3.147-1.2,4.061-3.042Z" transform="translate(-13.23 -31.859)" fill="#cc1d1d" opacity="0.73" style="mix-blend-mode: multiply;isolation: isolate"/>
    <path id="Path_2841" data-name="Path 2841" d="M44.8,65.726a15.19,15.19,0,0,0,.591-4.337H36.038v4.337Z" transform="translate(-20.402 -29.739)" fill="#cc1d1d" style="mix-blend-mode: multiply;isolation: isolate"/>
    <path id="Path_2842" data-name="Path 2842" d="M32.348,20.226l26.87,8.781.947-5.017L32.889,17.359Z" transform="translate(-19.191 -15.281)" fill="#1a4480"/>
    <path id="Path_2843" data-name="Path 2843" d="M100.576,33.863,72.354,32.248l.947-5.017L101.117,31Z" transform="translate(-32.327 -18.523)" fill="#1a4480"/>
    <path id="Path_2844" data-name="Path 2844" d="M72.365,18.045h0A1.831,1.831,0,0,1,74.2,19.876V22.5H70.535V19.876A1.831,1.831,0,0,1,72.365,18.045Z" transform="translate(-31.73 -15.506)" fill="#1a4480"/>
    <path id="Path_2845" data-name="Path 2845" d="M65.366,105.819c.337,6.256,2.582,8.377,5.3,8.377s4.965-2.121,5.3-8.377C75.97,110.033,65.366,110.033,65.366,105.819Z" transform="translate(-30.033 -44.328)" fill="#420010"/>
    <g id="Group_2022" data-name="Group 2022" transform="translate(11.521 0)">
      <path id="Path_2846" data-name="Path 2846" d="M65.3,94.218c0,7.576,2.394,10.071,5.348,10.071s5.348-2.5,5.348-10.071c0-5.225-2.543-13.235-4.121-17.7a1.3,1.3,0,0,0-2.452,0C67.841,80.983,65.3,88.993,65.3,94.218Z" transform="translate(-41.531 -34.421)" fill="#83d2ff"/>
      <path id="Path_2847" data-name="Path 2847" d="M67.9,69.283c0,1.062,1.612,1.922,3.6,1.922s3.6-.86,3.6-1.922-1.612-1.922-3.6-1.922S67.9,68.222,67.9,69.283Z" transform="translate(-42.386 -31.7)" fill="#83d2ff"/>
      <ellipse id="Ellipse_354" data-name="Ellipse 354" cx="3.6" cy="3.654" rx="3.6" ry="3.654" transform="translate(25.514 27.275)" fill="#83d2ff"/>
      <ellipse id="Ellipse_355" data-name="Ellipse 355" cx="3.6" cy="5.558" rx="3.6" ry="5.558" transform="translate(25.514 5.76)" fill="#83d2ff"/>
      <ellipse id="Ellipse_356" data-name="Ellipse 356" cx="3.011" cy="3.011" rx="3.011" ry="3.011" transform="translate(0 5.564) rotate(-67.5)" fill="#83d2ff"/>
      <ellipse id="Ellipse_357" data-name="Ellipse 357" cx="3.011" cy="3.011" rx="3.011" ry="3.011" transform="translate(51.372 11.491) rotate(-13.346)" fill="#83d2ff"/>
    </g>
    <g id="Group_2023" data-name="Group 2023" transform="translate(13.909 1.803)">
      <path id="Path_2848" data-name="Path 2848" d="M73.632,118.692a1.445,1.445,0,0,0-1.34-1.375,122.874,122.874,0,0,0-14.984.017,1.447,1.447,0,0,0-1.358,1.357Z" transform="translate(-40.85 -49.834)" fill="#dff3fd"/>
      <ellipse id="Ellipse_358" data-name="Ellipse 358" cx="1.067" cy="0.689" rx="1.067" ry="0.689" fill="#dff3fd"/>
      <ellipse id="Ellipse_359" data-name="Ellipse 359" cx="1.067" cy="0.689" rx="1.067" ry="0.689" transform="translate(25.051 5.529)" fill="#dff3fd"/>
      <ellipse id="Ellipse_360" data-name="Ellipse 360" cx="1.067" cy="0.689" rx="1.067" ry="0.689" transform="translate(51.027 9.867)" fill="#dff3fd"/>
      <ellipse id="Ellipse_361" data-name="Ellipse 361" cx="1.067" cy="0.689" rx="1.067" ry="0.689" transform="translate(25.146 26.598)" fill="#dff3fd"/>
      <ellipse id="Ellipse_362" data-name="Ellipse 362" cx="1.067" cy="0.689" rx="1.067" ry="0.689" transform="translate(25.146 34.295)" fill="#dff3fd"/>
      <ellipse id="Ellipse_363" data-name="Ellipse 363" cx="1.067" cy="2.358" rx="1.067" ry="2.358" transform="translate(25.146 46.012)" fill="#dff3fd"/>
    </g>
    <path id="Path_2849" data-name="Path 2849" d="M38.151,121.8H85.312v-2.521a2.649,2.649,0,0,0-2.212-2.611,128.076,128.076,0,0,0-42.738,0,2.649,2.649,0,0,0-2.212,2.611Z" transform="translate(-21.096 -47.3)" fill="#90cef1"/>
    <rect id="Rectangle_1729" data-name="Rectangle 1729" width="47.161" height="0.972" transform="translate(17.055 71.944)" fill="#90cef1" style="mix-blend-mode: multiply;isolation: isolate"/>
    <path id="Rectangle_1730" data-name="Rectangle 1730" d="M3.443,0H48.7a3.443,3.443,0,0,1,3.443,3.443v.271a0,0,0,0,1,0,0H0a0,0,0,0,1,0,0V3.443A3.443,3.443,0,0,1,3.443,0Z" transform="translate(14.542 72.916)" fill="#1a4480"/>
  </g>
</svg>
