<svg xmlns="http://www.w3.org/2000/svg" xmlns:xlink="http://www.w3.org/1999/xlink" width="102.972" height="102.972" viewBox="0 0 102.972 102.972">
  <defs>
    <filter id="path4212" x="86.393" y="66.171" width="5.507" height="10.256" filterUnits="userSpaceOnUse">
      <feOffset dy="3.6" input="SourceAlpha"/>
      <feGaussianBlur result="blur"/>
      <feFlood flood-color="#1a4480" flood-opacity="0.302"/>
      <feComposite operator="in" in2="blur"/>
      <feComposite in="SourceGraphic"/>
    </filter>
    <filter id="path4218" x="58.86" y="66.171" width="5.507" height="10.256" filterUnits="userSpaceOnUse">
      <feOffset dy="3.6" input="SourceAlpha"/>
      <feGaussianBlur result="blur-2"/>
      <feFlood flood-color="#1a4480" flood-opacity="0.302"/>
      <feComposite operator="in" in2="blur-2"/>
      <feComposite in="SourceGraphic"/>
    </filter>
    <filter id="path4220" x="71.486" y="69.816" width="7.787" height="7.882" filterUnits="userSpaceOnUse">
      <feOffset dy="3.6" input="SourceAlpha"/>
      <feGaussianBlur result="blur-3"/>
      <feFlood flood-color="#1a4480" flood-opacity="0.302"/>
      <feComposite operator="in" in2="blur-3"/>
      <feComposite in="SourceGraphic"/>
    </filter>
    <filter id="path4342" x="49.578" y="78.733" width="7.862" height="13.103" filterUnits="userSpaceOnUse">
      <feOffset dy="3.6" input="SourceAlpha"/>
      <feGaussianBlur result="blur-4"/>
      <feFlood flood-color="#1a4480" flood-opacity="0.302"/>
      <feComposite operator="in" in2="blur-4"/>
      <feComposite in="SourceGraphic"/>
    </filter>
    <filter id="path4348" x="10.268" y="78.733" width="7.862" height="13.103" filterUnits="userSpaceOnUse">
      <feOffset dy="3.6" input="SourceAlpha"/>
      <feGaussianBlur result="blur-5"/>
      <feFlood flood-color="#1a4480" flood-opacity="0.302"/>
      <feComposite operator="in" in2="blur-5"/>
      <feComposite in="SourceGraphic"/>
    </filter>
    <filter id="path4356" x="28.295" y="83.937" width="11.119" height="9.714" filterUnits="userSpaceOnUse">
      <feOffset dy="3.6" input="SourceAlpha"/>
      <feGaussianBlur result="blur-6"/>
      <feFlood flood-color="#1a4480" flood-opacity="0.302"/>
      <feComposite operator="in" in2="blur-6"/>
      <feComposite in="SourceGraphic"/>
    </filter>
    <filter id="path4204" x="91.073" y="63.101" width="3.775" height="7.882" filterUnits="userSpaceOnUse">
      <feOffset dy="3.6" input="SourceAlpha"/>
      <feGaussianBlur result="blur-7"/>
      <feFlood flood-color="#1a4480" flood-opacity="0.302"/>
      <feComposite operator="in" in2="blur-7"/>
      <feComposite in="SourceGraphic"/>
    </filter>
    <filter id="path4208" x="86.656" y="56.675" width="5.244" height="8.643" filterUnits="userSpaceOnUse">
      <feOffset dy="3.6" input="SourceAlpha"/>
      <feGaussianBlur result="blur-8"/>
      <feFlood flood-color="#1a4480" flood-opacity="0.302"/>
      <feComposite operator="in" in2="blur-8"/>
      <feComposite in="SourceGraphic"/>
    </filter>
    <filter id="path4212-2" x="86.393" y="66.171" width="5.507" height="10.256" filterUnits="userSpaceOnUse">
      <feOffset dy="3.6" input="SourceAlpha"/>
      <feGaussianBlur result="blur-9"/>
      <feFlood flood-color="#1a4480" flood-opacity="0.302"/>
      <feComposite operator="in" in2="blur-9"/>
      <feComposite in="SourceGraphic"/>
    </filter>
    <filter id="path4214" x="83.721" y="67.392" width="2.672" height="9.034" filterUnits="userSpaceOnUse">
      <feOffset dy="3.6" input="SourceAlpha"/>
      <feGaussianBlur result="blur-10"/>
      <feFlood flood-color="#1a4480" flood-opacity="0.302"/>
      <feComposite operator="in" in2="blur-10"/>
      <feComposite in="SourceGraphic"/>
    </filter>
    <filter id="path4202" x="55.912" y="63.101" width="3.778" height="7.882" filterUnits="userSpaceOnUse">
      <feOffset dy="3.6" input="SourceAlpha"/>
      <feGaussianBlur result="blur-11"/>
      <feFlood flood-color="#1a4480" flood-opacity="0.302"/>
      <feComposite operator="in" in2="blur-11"/>
      <feComposite in="SourceGraphic"/>
    </filter>
    <filter id="path4216" x="64.367" y="67.394" width="2.669" height="9.033" filterUnits="userSpaceOnUse">
      <feOffset dy="3.6" input="SourceAlpha"/>
      <feGaussianBlur result="blur-12"/>
      <feFlood flood-color="#1a4480" flood-opacity="0.302"/>
      <feComposite operator="in" in2="blur-12"/>
      <feComposite in="SourceGraphic"/>
    </filter>
    <filter id="path4218-2" x="58.86" y="66.171" width="5.507" height="10.256" filterUnits="userSpaceOnUse">
      <feOffset dy="3.6" input="SourceAlpha"/>
      <feGaussianBlur result="blur-13"/>
      <feFlood flood-color="#1a4480" flood-opacity="0.302"/>
      <feComposite operator="in" in2="blur-13"/>
      <feComposite in="SourceGraphic"/>
    </filter>
    <filter id="path4220-2" x="71.486" y="69.816" width="7.787" height="7.882" filterUnits="userSpaceOnUse">
      <feOffset dy="3.6" input="SourceAlpha"/>
      <feGaussianBlur result="blur-14"/>
      <feFlood flood-color="#1a4480" flood-opacity="0.302"/>
      <feComposite operator="in" in2="blur-14"/>
      <feComposite in="SourceGraphic"/>
    </filter>
    <filter id="path4338" x="6.058" y="74.351" width="5.395" height="9.714" filterUnits="userSpaceOnUse">
      <feOffset dy="3.6" input="SourceAlpha"/>
      <feGaussianBlur result="blur-15"/>
      <feFlood flood-color="#1a4480" flood-opacity="0.302"/>
      <feComposite operator="in" in2="blur-15"/>
      <feComposite in="SourceGraphic"/>
    </filter>
    <filter id="path4340" x="56.26" y="74.351" width="5.39" height="9.714" filterUnits="userSpaceOnUse">
      <feOffset dy="3.6" input="SourceAlpha"/>
      <feGaussianBlur result="blur-16"/>
      <feFlood flood-color="#1a4480" flood-opacity="0.302"/>
      <feComposite operator="in" in2="blur-16"/>
      <feComposite in="SourceGraphic"/>
    </filter>
    <filter id="path4358" x="10.268" y="65.175" width="10.067" height="9.715" filterUnits="userSpaceOnUse">
      <feOffset dy="3.6" input="SourceAlpha"/>
      <feGaussianBlur result="blur-17"/>
      <feFlood flood-color="#1a4480" flood-opacity="0.302"/>
      <feComposite operator="in" in2="blur-17"/>
      <feComposite in="SourceGraphic"/>
    </filter>
    <filter id="path4360" x="49.954" y="65.175" width="7.487" height="10.8" filterUnits="userSpaceOnUse">
      <feOffset dy="3.6" input="SourceAlpha"/>
      <feGaussianBlur result="blur-18"/>
      <feFlood flood-color="#1a4480" flood-opacity="0.302"/>
      <feComposite operator="in" in2="blur-18"/>
      <feComposite in="SourceGraphic"/>
    </filter>
    <filter id="path4342-2" x="49.578" y="78.733" width="7.862" height="13.103" filterUnits="userSpaceOnUse">
      <feOffset dy="3.6" input="SourceAlpha"/>
      <feGaussianBlur result="blur-19"/>
      <feFlood flood-color="#1a4480" flood-opacity="0.302"/>
      <feComposite operator="in" in2="blur-19"/>
      <feComposite in="SourceGraphic"/>
    </filter>
    <filter id="path4344" x="45.764" y="80.477" width="3.815" height="11.359" filterUnits="userSpaceOnUse">
      <feOffset dy="3.6" input="SourceAlpha"/>
      <feGaussianBlur result="blur-20"/>
      <feFlood flood-color="#1a4480" flood-opacity="0.302"/>
      <feComposite operator="in" in2="blur-20"/>
      <feComposite in="SourceGraphic"/>
    </filter>
    <filter id="path4346" x="18.13" y="80.479" width="3.812" height="11.357" filterUnits="userSpaceOnUse">
      <feOffset dy="3.6" input="SourceAlpha"/>
      <feGaussianBlur result="blur-21"/>
      <feFlood flood-color="#1a4480" flood-opacity="0.302"/>
      <feComposite operator="in" in2="blur-21"/>
      <feComposite in="SourceGraphic"/>
    </filter>
    <filter id="path4348-2" x="10.268" y="78.733" width="7.862" height="13.103" filterUnits="userSpaceOnUse">
      <feOffset dy="3.6" input="SourceAlpha"/>
      <feGaussianBlur result="blur-22"/>
      <feFlood flood-color="#1a4480" flood-opacity="0.302"/>
      <feComposite operator="in" in2="blur-22"/>
      <feComposite in="SourceGraphic"/>
    </filter>
    <filter id="path4356-2" x="28.295" y="83.937" width="11.119" height="9.714" filterUnits="userSpaceOnUse">
      <feOffset dy="3.6" input="SourceAlpha"/>
      <feGaussianBlur result="blur-23"/>
      <feFlood flood-color="#1a4480" flood-opacity="0.302"/>
      <feComposite operator="in" in2="blur-23"/>
      <feComposite in="SourceGraphic"/>
    </filter>
  </defs>
  <g id="Group_2135" data-name="Group 2135" transform="translate(-7.444 -4.499)">
    <g id="Circles" transform="translate(7.444 4.499)">
      <circle id="Ellipse_371" data-name="Ellipse 371" cx="51.486" cy="51.486" r="51.486" fill="#1a4480"/>
    </g>
    <g id="Layer_5" data-name="Layer 5" transform="translate(13.502 28.686)">
      <g transform="matrix(1, 0, 0, 1, -6.06, -24.19)" filter="url(#path4212)">
        <path id="path4212-3" data-name="path4212" d="M121.673,87.773v4.281l-5.507,2.374V90.147Z" transform="translate(-29.77 -21.6)" fill="#1a4480"/>
      </g>
      <g transform="matrix(1, 0, 0, 1, -6.06, -24.19)" filter="url(#path4218)">
        <path id="path4218-3" data-name="path4218" d="M81.518,87.773v4.281l5.507,2.374V90.147Z" transform="translate(-22.66 -21.6)" fill="#1a4480"/>
      </g>
      <g transform="matrix(1, 0, 0, 1, -6.06, -24.19)" filter="url(#path4220)">
        <path id="path4220-3" data-name="path4220" d="M97.407,92.36v4.282h7.787V92.36Z" transform="translate(-25.92 -22.54)" fill="#1a4480"/>
      </g>
      <g transform="matrix(1, 0, 0, 1, -6.06, -24.19)" filter="url(#path4342)">
        <path id="path4342-3" data-name="path4342" d="M77.7,103.582V109.7l-7.862,3.389v-6.114Z" transform="translate(-20.26 -24.85)" fill="#1a4480"/>
      </g>
      <g transform="matrix(1, 0, 0, 1, -6.06, -24.19)" filter="url(#path4348)">
        <path id="path4348-3" data-name="path4348" d="M20.366,103.582V109.7l7.862,3.389v-6.114Z" transform="translate(-10.1 -24.85)" fill="#1a4480"/>
      </g>
      <g transform="matrix(1, 0, 0, 1, -6.06, -24.19)" filter="url(#path4356)">
        <path id="path4356-3" data-name="path4356" d="M43.052,110.131v6.114H54.171v-6.114Z" transform="translate(-14.76 -26.19)" fill="#1a4480"/>
      </g>
      <g id="path4200" transform="translate(49.854 31.212)">
        <g id="Group_2124" data-name="Group 2124" transform="translate(0 2.861)" opacity="0.3" style="mix-blend-mode: multiply;isolation: isolate">
          <path id="Path_3197" data-name="Path 3197" d="M96.738,77.817l-6.876,1.316-3.248,2.021L86.263,81l-5.507,2.374,1.139.491-2.172,1.125v1.453H77.807V89.8h3.778a6.33,6.33,0,0,0,1.843,1.917L80.756,92.87l5.507,2.374,2.669-1.151a30.853,30.853,0,0,0,4.45.795v1.627h7.787V94.887a30.838,30.838,0,0,0,4.447-.795l2.672,1.152,5.507-2.374-2.669-1.151a6.322,6.322,0,0,0,1.843-1.918h3.775V86.444h-2.087l.065-2.505-1.325-.392.4-.172-4.559-1.965-.685-.7Zm.68,6.094a18.011,18.011,0,0,1,6.767,1.233c1.592.687,2.583,1.591,2.807,2.556l-1.262-.47a35.926,35.926,0,0,1-4.143,2.106H95.68l-5.554-1.382-2.5-.477a4.689,4.689,0,0,1,2.735-2.333A18.23,18.23,0,0,1,97.418,83.911Z" transform="translate(-77.807 -77.817)" fill="#1a4480"/>
        </g>
        <g id="Group_2125" data-name="Group 2125">
          <path id="Path_3198" data-name="Path 3198" d="M96.738,74.217l-6.876,1.316-3.248,2.021-.352-.152-5.507,2.374,1.139.491-2.172,1.125v1.453H77.807V86.2h3.778a6.33,6.33,0,0,0,1.843,1.917L80.756,89.27l5.507,2.374,2.669-1.151a30.852,30.852,0,0,0,4.45.795v1.627h7.787V91.287a30.837,30.837,0,0,0,4.447-.795l2.672,1.152,5.507-2.374-2.669-1.151a6.322,6.322,0,0,0,1.843-1.918h3.775V82.844h-2.087l.065-2.505-1.325-.392.4-.172-4.559-1.965-.685-.7Zm.68,6.094a18.011,18.011,0,0,1,6.767,1.233c1.592.687,2.583,1.591,2.807,2.556l-1.262-.47a35.926,35.926,0,0,1-4.143,2.106H95.68l-5.554-1.382-2.5-.477a4.689,4.689,0,0,1,2.735-2.333A18.23,18.23,0,0,1,97.418,80.311Z" transform="translate(-77.807 -74.217)" fill="#90cef1"/>
        </g>
      </g>
      <g id="path4200-2" data-name="path4200" transform="translate(49.854 31.212)" style="mix-blend-mode: multiply;isolation: isolate">
        <g id="Group_2126" data-name="Group 2126" transform="translate(0 2.861)" opacity="0.3" style="mix-blend-mode: multiply;isolation: isolate">
          <path id="Path_3199" data-name="Path 3199" d="M96.738,77.817l-6.876,1.316-3.248,2.021L86.263,81l-5.507,2.374,1.139.491-2.172,1.125v1.453H77.807V89.8h3.778a6.33,6.33,0,0,0,1.843,1.917L80.756,92.87l5.507,2.374,2.669-1.151a30.853,30.853,0,0,0,4.45.795v1.627h7.787V94.887a30.838,30.838,0,0,0,4.447-.795l2.672,1.152,5.507-2.374-2.669-1.151a6.322,6.322,0,0,0,1.843-1.918h3.775V86.444h-2.087l.065-2.505-1.325-.392.4-.172-4.559-1.965-.685-.7Zm.68,6.094a18.011,18.011,0,0,1,6.767,1.233c1.592.687,2.583,1.591,2.807,2.556l-1.262-.47a35.926,35.926,0,0,1-4.143,2.106H95.68l-5.554-1.382-2.5-.477a4.689,4.689,0,0,1,2.735-2.333A18.23,18.23,0,0,1,97.418,83.911Z" transform="translate(-77.807 -77.817)" fill="#1a4480"/>
        </g>
        <g id="Group_2127" data-name="Group 2127">
          <path id="Path_3200" data-name="Path 3200" d="M96.738,74.217l-6.876,1.316-3.248,2.021-.352-.152-5.507,2.374,1.139.491-2.172,1.125v1.453H77.807V86.2h3.778a6.33,6.33,0,0,0,1.843,1.917L80.756,89.27l5.507,2.374,2.669-1.151a30.852,30.852,0,0,0,4.45.795v1.627h7.787V91.287a30.837,30.837,0,0,0,4.447-.795l2.672,1.152,5.507-2.374-2.669-1.151a6.322,6.322,0,0,0,1.843-1.918h3.775V82.844h-2.087l.065-2.505-1.325-.392.4-.172-4.559-1.965-.685-.7Zm.68,6.094a18.011,18.011,0,0,1,6.767,1.233c1.592.687,2.583,1.591,2.807,2.556l-1.262-.47a35.926,35.926,0,0,1-4.143,2.106H95.68l-5.554-1.382-2.5-.477a4.689,4.689,0,0,1,2.735-2.333A18.23,18.23,0,0,1,97.418,80.311Z" transform="translate(-77.807 -74.217)" fill="#c2e4f7"/>
        </g>
      </g>
      <g transform="matrix(1, 0, 0, 1, -6.06, -24.19)" filter="url(#path4204)">
        <path id="path4204-2" data-name="path4204" d="M125.831,83.91v4.282h-3.775V83.91Z" transform="translate(-30.98 -20.81)" fill="#90cef1"/>
      </g>
      <g transform="matrix(1, 0, 0, 1, -6.06, -24.19)" filter="url(#path4208)">
        <path id="path4208-2" data-name="path4208" d="M121.741,75.823v4.571l-4.009.471L116.5,77.443Z" transform="translate(-29.84 -19.15)" fill="#90cef1"/>
      </g>
      <g transform="matrix(1, 0, 0, 1, -6.06, -24.19)" filter="url(#path4212-2)">
        <path id="path4212-4" data-name="path4212" d="M121.673,87.773v4.281l-5.507,2.374V90.147Z" transform="translate(-29.77 -21.6)" fill="#90cef1"/>
      </g>
      <g transform="matrix(1, 0, 0, 1, -6.06, -24.19)" filter="url(#path4214)">
        <path id="path4214-2" data-name="path4214" d="M112.8,89.31v4.282l2.672,1.152V90.462Z" transform="translate(-29.08 -21.92)" fill="#90cef1"/>
      </g>
      <g transform="matrix(1, 0, 0, 1, -6.06, -24.19)" filter="url(#path4202)">
        <path id="path4202-2" data-name="path4202" d="M77.807,83.91v4.282h3.778V83.91Z" transform="translate(-21.9 -20.81)" fill="#90cef1"/>
      </g>
      <g transform="matrix(1, 0, 0, 1, -6.06, -24.19)" filter="url(#path4216)">
        <path id="path4216-2" data-name="path4216" d="M91.117,89.312v4.282l-2.669,1.151V90.463Z" transform="translate(-24.08 -21.92)" fill="#90cef1"/>
      </g>
      <g transform="matrix(1, 0, 0, 1, -6.06, -24.19)" filter="url(#path4218-2)">
        <path id="path4218-4" data-name="path4218" d="M81.518,87.773v4.281l5.507,2.374V90.147Z" transform="translate(-22.66 -21.6)" fill="#90cef1"/>
      </g>
      <g transform="matrix(1, 0, 0, 1, -6.06, -24.19)" filter="url(#path4220-2)">
        <path id="path4220-4" data-name="path4220" d="M97.407,92.36v4.282h7.787V92.36Z" transform="translate(-25.92 -22.54)" fill="#90cef1"/>
      </g>
      <g id="path4210" transform="translate(49.854 28.843)">
        <path id="Path_3201" data-name="Path 3201" d="M93.382,71.236v1.629a30.948,30.948,0,0,0-4.447.794l-2.672-1.151-5.507,2.374,2.669,1.151a6.331,6.331,0,0,0-1.843,1.918H77.807v3.357h3.778a6.33,6.33,0,0,0,1.843,1.917l-2.672,1.152,5.507,2.374L88.932,85.6a30.852,30.852,0,0,0,4.45.795v1.627h7.787V86.393a30.837,30.837,0,0,0,4.447-.795l2.672,1.152,5.507-2.374-2.669-1.151a6.322,6.322,0,0,0,1.843-1.918h3.775V77.95h-3.778a6.334,6.334,0,0,0-1.842-1.917l2.672-1.152-5.507-2.374-2.669,1.151a30.854,30.854,0,0,0-4.45-.795V71.236Zm4.037,4.181a18.011,18.011,0,0,1,6.767,1.233c3.817,1.645,3.817,4.312,0,5.958a19.969,19.969,0,0,1-13.82,0c-3.817-1.646-3.817-4.313,0-5.958A18.23,18.23,0,0,1,97.418,75.417Z" transform="translate(-77.807 -71.236)" fill="#dff3fd"/>
      </g>
      <g id="path4180" transform="translate(0 39.166)">
        <g id="Group_2128" data-name="Group 2128" transform="translate(0 2.861)" opacity="0.3" style="mix-blend-mode: multiply;isolation: isolate">
          <path id="Path_3202" data-name="Path 3202" d="M42.1,87.827l-9.818,1.879-4.636,2.885-.5-.218-7.862,3.39,1.627.7-3.1,1.607v2.074H15.068v4.793h5.395a9.048,9.048,0,0,0,2.63,2.737l-3.815,1.645,7.862,3.389,3.812-1.643A43.968,43.968,0,0,0,37.3,112.2v2.323H48.424V112.2a44.272,44.272,0,0,0,6.35-1.134l3.815,1.644,7.862-3.389-3.812-1.643a9.03,9.03,0,0,0,2.632-2.739h5.39v-4.793h-2.98l.094-3.578-1.892-.559.568-.245-6.51-2.807-.977-.995Zm.971,8.7a25.71,25.71,0,0,1,9.662,1.762c2.273.981,3.688,2.271,4.008,3.65l-1.8-.673s-5.287,3.008-5.916,3.008H40.587l-7.93-1.974-3.564-.681c.45-1.26,1.817-2.427,3.9-3.33A26.034,26.034,0,0,1,43.068,96.527Z" transform="translate(-15.068 -87.827)" fill="#1a4480"/>
        </g>
        <g id="Group_2129" data-name="Group 2129">
          <path id="Path_3203" data-name="Path 3203" d="M42.1,84.227l-9.818,1.879-4.636,2.885-.5-.218-7.862,3.39,1.627.7-3.1,1.607v2.074H15.068v4.793h5.395a9.048,9.048,0,0,0,2.63,2.737l-3.815,1.645,7.862,3.389,3.812-1.643A43.969,43.969,0,0,0,37.3,108.6v2.323H48.424V108.6a44.273,44.273,0,0,0,6.35-1.134l3.815,1.644,7.862-3.389-3.812-1.643a9.031,9.031,0,0,0,2.632-2.739h5.39V96.545h-2.98l.094-3.578-1.892-.559.568-.245-6.51-2.807-.977-.995Zm.971,8.7a25.71,25.71,0,0,1,9.662,1.762c2.273.981,3.688,2.271,4.008,3.65l-1.8-.673s-5.287,3.008-5.916,3.008H40.587L32.657,98.7l-3.564-.681c.45-1.26,1.817-2.427,3.9-3.33A26.034,26.034,0,0,1,43.068,92.927Z" transform="translate(-15.068 -84.227)" fill="#90cef1"/>
        </g>
      </g>
      <g id="path4180-2" data-name="path4180" transform="translate(0 39.166)" style="mix-blend-mode: multiply;isolation: isolate">
        <g id="Group_2130" data-name="Group 2130" transform="translate(0 2.861)" opacity="0.3" style="mix-blend-mode: multiply;isolation: isolate">
          <path id="Path_3204" data-name="Path 3204" d="M42.1,87.827l-9.818,1.879-4.636,2.885-.5-.218-7.862,3.39,1.627.7-3.1,1.607v2.074H15.068v4.793h5.395a9.048,9.048,0,0,0,2.63,2.737l-3.815,1.645,7.862,3.389,3.812-1.643A43.968,43.968,0,0,0,37.3,112.2v2.323H48.424V112.2a44.272,44.272,0,0,0,6.35-1.134l3.815,1.644,7.862-3.389-3.812-1.643a9.03,9.03,0,0,0,2.632-2.739h5.39v-4.793h-2.98l.094-3.578-1.892-.559.568-.245-6.51-2.807-.977-.995Zm.971,8.7a25.71,25.71,0,0,1,9.662,1.762c2.273.981,3.688,2.271,4.008,3.65l-1.8-.673s-5.287,3.008-5.916,3.008H40.587l-7.93-1.974-3.564-.681c.45-1.26,1.817-2.427,3.9-3.33A26.034,26.034,0,0,1,43.068,96.527Z" transform="translate(-15.068 -87.827)" fill="#1a4480"/>
        </g>
        <g id="Group_2131" data-name="Group 2131">
          <path id="Path_3205" data-name="Path 3205" d="M42.1,84.227l-9.818,1.879-4.636,2.885-.5-.218-7.862,3.39,1.627.7-3.1,1.607v2.074H15.068v4.793h5.395a9.048,9.048,0,0,0,2.63,2.737l-3.815,1.645,7.862,3.389,3.812-1.643A43.969,43.969,0,0,0,37.3,108.6v2.323H48.424V108.6a44.273,44.273,0,0,0,6.35-1.134l3.815,1.644,7.862-3.389-3.812-1.643a9.031,9.031,0,0,0,2.632-2.739h5.39V96.545h-2.98l.094-3.578-1.892-.559.568-.245-6.51-2.807-.977-.995Zm.971,8.7a25.71,25.71,0,0,1,9.662,1.762c2.273.981,3.688,2.271,4.008,3.65l-1.8-.673s-5.287,3.008-5.916,3.008H40.587L32.657,98.7l-3.564-.681c.45-1.26,1.817-2.427,3.9-3.33A26.034,26.034,0,0,1,43.068,92.927Z" transform="translate(-15.068 -84.227)" fill="#c2e4f7"/>
        </g>
      </g>
      <g transform="matrix(1, 0, 0, 1, -6.06, -24.19)" filter="url(#path4338)">
        <path id="path4338-2" data-name="path4338" d="M15.068,98.067v6.114h5.395V98.067Z" transform="translate(-9.01 -23.72)" fill="#90cef1"/>
      </g>
      <g transform="matrix(1, 0, 0, 1, -6.06, -24.19)" filter="url(#path4340)">
        <path id="path4340-2" data-name="path4340" d="M83.636,98.067v6.114h-5.39V98.067Z" transform="translate(-21.99 -23.72)" fill="#90cef1"/>
      </g>
      <g transform="matrix(1, 0, 0, 1, -6.06, -24.19)" filter="url(#path4358)">
        <path id="path4358-2" data-name="path4358" d="M20.366,86.52v6.115l4.994-2.153L30.433,88.4Z" transform="translate(-10.1 -21.34)" fill="#90cef1"/>
      </g>
      <g transform="matrix(1, 0, 0, 1, -6.06, -24.19)" filter="url(#path4360)">
        <path id="path4360-2" data-name="path4360" d="M77.8,86.52v6.527l-5.724.673-1.762-4.887Z" transform="translate(-20.36 -21.34)" fill="#90cef1"/>
      </g>
      <g id="path4319" transform="translate(0 35.784)">
        <path id="Path_3206" data-name="Path 3206" d="M37.3,79.971V82.3a44.034,44.034,0,0,0-6.35,1.134L27.14,81.786l-7.862,3.389,3.811,1.643a9.036,9.036,0,0,0-2.631,2.739h-5.39V94.35h5.395a9.048,9.048,0,0,0,2.63,2.737l-3.815,1.645,7.862,3.389,3.812-1.643a44.078,44.078,0,0,0,6.353,1.135v2.323H48.424v-2.326a44.054,44.054,0,0,0,6.35-1.134l3.815,1.645,7.862-3.389L62.639,97.09a9.03,9.03,0,0,0,2.632-2.739h5.39V89.557H65.266a9.048,9.048,0,0,0-2.63-2.737l3.815-1.645-7.862-3.389-3.812,1.643a44.078,44.078,0,0,0-6.353-1.135V79.971Zm5.763,5.968A25.711,25.711,0,0,1,52.73,87.7c5.45,2.349,5.45,6.157,0,8.506s-14.283,2.349-19.732,0S27.549,90.05,33,87.7A26.019,26.019,0,0,1,43.068,85.939Z" transform="translate(-15.068 -79.971)" fill="#dff3fd"/>
      </g>
      <path id="Path_3207" data-name="Path 3207" d="M115.94,54.439H96.527l3.294-6.412-3.294-6.412H115.94l3.294,6.412Z" transform="translate(-31.798 -36.309)" fill="#cc1d1d"/>
      <g id="Group_2132" data-name="Group 2132" transform="translate(64.729 11.717)" opacity="0.39" style="mix-blend-mode: multiply;isolation: isolate">
        <path id="Path_3208" data-name="Path 3208" d="M99.821,49.684,96.527,56.1H115.94l3.294-6.412Z" transform="translate(-96.527 -49.684)" fill="#cc1d1d"/>
      </g>
      <path id="Path_3209" data-name="Path 3209" d="M40.809,54.439H21.4l3.294-6.412L21.4,41.614H40.809L44.1,48.027Z" transform="translate(-16.368 -36.309)" fill="#cc1d1d"/>
      <g id="Group_2133" data-name="Group 2133" transform="translate(5.028 11.717)" opacity="0.39" style="mix-blend-mode: multiply;isolation: isolate">
        <path id="Path_3210" data-name="Path 3210" d="M24.69,49.684,21.4,56.1H40.809L44.1,49.684Z" transform="translate(-21.396 -49.684)" fill="#cc1d1d"/>
      </g>
      <g transform="matrix(1, 0, 0, 1, -6.06, -24.19)" filter="url(#path4342-2)">
        <path id="path4342-4" data-name="path4342" d="M77.7,103.582V109.7l-7.862,3.389v-6.114Z" transform="translate(-20.26 -24.85)" fill="#90cef1"/>
      </g>
      <g transform="matrix(1, 0, 0, 1, -6.06, -24.19)" filter="url(#path4344)">
        <path id="path4344-2" data-name="path4344" d="M65.036,105.777v6.115l3.815,1.644v-6.114Z" transform="translate(-19.27 -25.3)" fill="#90cef1"/>
      </g>
      <g transform="matrix(1, 0, 0, 1, -6.06, -24.19)" filter="url(#path4346)">
        <path id="path4346-2" data-name="path4346" d="M34.072,105.779v6.114l-3.812,1.643v-6.114Z" transform="translate(-12.13 -25.3)" fill="#90cef1"/>
      </g>
      <g transform="matrix(1, 0, 0, 1, -6.06, -24.19)" filter="url(#path4348-2)">
        <path id="path4348-4" data-name="path4348" d="M20.366,103.582V109.7l7.862,3.389v-6.114Z" transform="translate(-10.1 -24.85)" fill="#90cef1"/>
      </g>
      <g transform="matrix(1, 0, 0, 1, -6.06, -24.19)" filter="url(#path4356-2)">
        <path id="path4356-4" data-name="path4356" d="M43.052,110.131v6.114H54.171v-6.114Z" transform="translate(-14.76 -26.19)" fill="#90cef1"/>
      </g>
      <path id="Path_3211" data-name="Path 3211" d="M80.109,58.373H47.717l6.02-11.717-6.02-11.717H80.109l6.02,11.717Z" transform="translate(-21.773 -34.938)" fill="#0f96c2"/>
      <g id="Group_2134" data-name="Group 2134" transform="translate(25.944 11.717)" opacity="0.39" style="mix-blend-mode: multiply;isolation: isolate">
        <path id="Path_3212" data-name="Path 3212" d="M53.737,49.684,47.717,61.4H80.109l6.019-11.717Z" transform="translate(-47.717 -49.684)" fill="#0f96c2"/>
      </g>
    </g>
  </g>
</svg>
