<svg xmlns="http://www.w3.org/2000/svg" width="102.972" height="102.972" viewBox="0 0 102.972 102.972">
  <g id="Group_2138" data-name="Group 2138" transform="translate(173.366 -7.207)">
    <g id="Circles" transform="translate(-173.366 7.207)">
      <circle id="Ellipse_372" data-name="Ellipse 372" cx="51.486" cy="51.486" r="51.486" fill="#1a4480"/>
    </g>
    <g id="Icon_Art" data-name="Icon Art" transform="translate(-150.667 12.229)">
      <path id="Path_3213" data-name="Path 3213" d="M-90.807,107.794c-1.424-4.79-13.562-8.266-27.109-7.762s-23.377,4.795-21.953,9.585,13.561,8.266,27.109,7.763S-89.383,112.584-90.807,107.794Zm-9.891-2.12-17.037,7.392a1.841,1.841,0,0,1-1.121.029l-11.906-3.866c-.332-.108-.354-.292-.049-.409l3.663-1.411a2.026,2.026,0,0,1,1.158-.017l6.391,2.076a1.855,1.855,0,0,0,1.122-.029l12.308-5.34a2,2,0,0,1,1.153-.042l4.2,1.211C-100.467,105.367-100.413,105.55-100.7,105.674Z" transform="translate(143.816 -31.283)" fill="#1a4480" style="mix-blend-mode: multiply;isolation: isolate"/>
      <g id="Group_2137" data-name="Group 2137" transform="translate(0 0)">
        <path id="Path_3214" data-name="Path 3214" d="M-84.083,81.774l-57.668-5.438,8.122-7.957a4.135,4.135,0,0,1,3.283-1.164l36.764,3.467a4.138,4.138,0,0,1,3.008,1.757Z" transform="translate(144.174 -24.549)" fill="#90cef1"/>
        <path id="Path_3215" data-name="Path 3215" d="M-103.308,75.848c.3.007,23.669,2.232,23.669,2.232l-2.048-2.9L-98.41,73.6Z" transform="translate(136.279 -25.865)" fill="#0f96c2" opacity="0.56" style="mix-blend-mode: multiply;isolation: isolate"/>
        <g id="Group_2136" data-name="Group 2136" transform="translate(20.536)">
          <path id="Path_3216" data-name="Path 3216" d="M-93.906,37.954a23.981,23.981,0,0,0-6.3,14.211l-.924,9.8c-.085.9-1.953,1.5-4.5,1.547a18.681,18.681,0,0,1-2.171-.085,19.6,19.6,0,0,1-2.078-.308,13.024,13.024,0,0,1-2.137-.617c-1.318-.5-2.12-1.134-2.061-1.758l.973-10.317A23.59,23.59,0,0,0-116.76,35.7a14.441,14.441,0,0,1-2.132-9.045,14.479,14.479,0,0,1,5.807-10.291,13.2,13.2,0,0,1,1.58-1.008c.152-.089.311-.17.47-.25h.008a14.4,14.4,0,0,1,9.586-1.267c.164.032.328.071.485.11a14.049,14.049,0,0,1,5.364,2.613c.142.1.283.219.424.335a13.666,13.666,0,0,1,1.354,1.293,14.458,14.458,0,0,1,3.853,9.845A14.459,14.459,0,0,1-93.906,37.954Z" transform="translate(118.957 -13.527)" fill="#0f96c2"/>
        </g>
        <rect id="Rectangle_1803" data-name="Rectangle 1803" width="57.924" height="11.495" transform="translate(2.424 51.787) rotate(5.387)" fill="#0f96c2"/>
        <ellipse id="Ellipse_373" data-name="Ellipse 373" cx="5.662" cy="2.136" rx="5.662" ry="2.136" transform="translate(22.663 18.548) rotate(-84.613)" fill="#90cef1"/>
        <path id="Path_3217" data-name="Path 3217" d="M-106.541,55.022-108.085,71.4a13.023,13.023,0,0,1-2.137-.617l1.505-15.965a1.093,1.093,0,0,1,1.187-.989A1.1,1.1,0,0,1-106.541,55.022Z" transform="translate(137.699 -21.803)" fill="#90cef1"/>
        <path id="Rectangle_1804" data-name="Rectangle 1804" d="M1.391,0h0A1.391,1.391,0,0,1,2.781,1.391V9.138a0,0,0,0,1,0,0H0a0,0,0,0,1,0,0V1.391A1.391,1.391,0,0,1,1.391,0Z" transform="matrix(0.996, 0.094, -0.094, 0.996, 3.669, 53.871)" fill="#90cef1"/>
        <rect id="Rectangle_1805" data-name="Rectangle 1805" width="59.969" height="4.579" rx="1.256" transform="translate(0.43 62.038) rotate(5.387)" fill="#a00a0f"/>
        <path id="Path_3218" data-name="Path 3218" d="M-93.542,16.565c-.644.985-3.963,1.478-7.895,1.108s-7.1-1.476-7.54-2.563a14.4,14.4,0,0,1,9.586-1.267A14.011,14.011,0,0,1-93.542,16.565Z" transform="translate(137.443 -13.527)" fill="#fff"/>
        <path id="Path_3219" data-name="Path 3219" d="M-89.822,38.581a23.981,23.981,0,0,0-6.3,14.211l-.924,9.8c-.054.57-.822,1.016-2.021,1.286l.949-10.063a36.353,36.353,0,0,1,5-15.7A22.19,22.19,0,0,0-89.952,27.18a19.811,19.811,0,0,0-2.393-10.586c0-.008-.007-.009-.006-.017.292.2.569.4.844.614.142.1.283.219.424.335a13.665,13.665,0,0,1,1.354,1.293,14.458,14.458,0,0,1,3.853,9.845A14.459,14.459,0,0,1-89.822,38.581Z" transform="translate(135.409 -14.153)" fill="#90cef1" opacity="0.6" style="mix-blend-mode: multiply;isolation: isolate"/>
      </g>
    </g>
  </g>
</svg>
