<svg id="Group_2115" data-name="Group 2115" xmlns="http://www.w3.org/2000/svg" width="105.645" height="105.645" viewBox="0 0 105.645 105.645">
  <g id="Circles" transform="translate(0 0)">
    <circle id="Ellipse_367" data-name="Ellipse 367" cx="52.823" cy="52.823" r="52.823" fill="#1a4480"/>
  </g>
  <g id="Icon_Art" data-name="Icon Art" transform="translate(13.504 19.415)">
    <g id="Group_2114" data-name="Group 2114">
      <g id="Group_2110" data-name="Group 2110">
        <g id="Group_2102" data-name="Group 2102" transform="translate(28.513 15.51)">
          <path id="Path_3067" data-name="Path 3067" d="M108.869,50.046l-.1,44.274-50.023,7.03.1-44.274Z" transform="translate(-58.746 -50.046)" fill="#27a0c8"/>
        </g>
        <g id="Group_2103" data-name="Group 2103" transform="translate(0 7.034)">
          <path id="Path_3068" data-name="Path 3068" d="M52.388,55.155l-.1,44.276L23.772,83.917l.1-44.267L34.806,45.6l6.565,3.569Z" transform="translate(-23.772 -39.65)" fill="#0f96c2"/>
        </g>
        <g id="Group_2104" data-name="Group 2104" transform="translate(0.101)">
          <path id="Path_3069" data-name="Path 3069" d="M52.408,53.562,23.9,38.051l50.023-7.03,28.512,15.51Z" transform="translate(-23.896 -31.021)" fill="#87cae0"/>
        </g>
        <g id="Group_2105" data-name="Group 2105" transform="translate(0 7.034)" opacity="0.8" style="mix-blend-mode: multiply;isolation: isolate">
          <path id="Path_3070" data-name="Path 3070" d="M52.388,55.155l-.1,44.276L23.772,83.917l.1-44.267L34.806,45.6l6.565,3.569Z" transform="translate(-23.772 -39.65)" fill="#0f96c2"/>
        </g>
        <g id="Group_2106" data-name="Group 2106" transform="translate(11.008 14.498)">
          <path id="Path_3071" data-name="Path 3071" d="M43.866,52.373V63.511l-.473.228-.51-.8-.519.246-.51-.8-.519.246-.519-.8-.51.246-.519-.8-.51.246-.519-.792-.51.246-.519-.8-.455.219L37.3,48.8Z" transform="translate(-37.274 -48.804)" fill="#0f96c2"/>
        </g>
        <g id="Group_2107" data-name="Group 2107" transform="translate(11.035 5.95)">
          <path id="Path_3072" data-name="Path 3072" d="M43.872,48.918l-6.565-3.569,50.023-7.03L93.8,41.836Z" transform="translate(-37.307 -38.319)" fill="#0f96c2"/>
        </g>
        <g id="Group_2108" data-name="Group 2108" transform="translate(32.064 27.632)">
          <path id="Path_3073" data-name="Path 3073" d="M96.709,69.368c-.045.006-.088.014-.132.021a9.175,9.175,0,0,0-9.462-4.37,12.273,12.273,0,0,0-6.5,3.124,7.377,7.377,0,0,0-3.575-.381,9.507,9.507,0,0,0-8.006,9.119,7.677,7.677,0,0,0,.146,1.429,8.184,8.184,0,0,0-6.082,7.66A5.864,5.864,0,0,0,70,91.909l24.891-3.46q.455-.064.9-.17.456-.018.923-.082a11.18,11.18,0,0,0,9.414-10.723A8,8,0,0,0,96.709,69.368Z" transform="translate(-63.102 -64.915)" fill="#eef9fe"/>
          <path id="Path_3074" data-name="Path 3074" d="M102.71,70.84a8.458,8.458,0,0,1,1.233,4.485,11.179,11.179,0,0,1-9.414,10.723,8.864,8.864,0,0,1-3.745-.255,12.743,12.743,0,0,0,7.357-11.2,9.165,9.165,0,0,0-4.005-7.8A9.759,9.759,0,0,1,95.2,71.305,12.726,12.726,0,0,1,84.48,83.512a9.628,9.628,0,0,1-6.57-1.339,4.919,4.919,0,0,0,1.483-3.432,3.658,3.658,0,0,0-1.409-2.966,3.685,3.685,0,0,1,.6,2.067c0,2.283-1.771,4.537-5.079,5a4.119,4.119,0,0,1-1.328-.029,3.762,3.762,0,0,0,2.913.787,8.231,8.231,0,0,1-6.857,7.1,6.344,6.344,0,0,1-3.469-.454,5.984,5.984,0,0,0,5.538,2.015l26.711-3.713a11.18,11.18,0,0,0,9.414-10.723A8.031,8.031,0,0,0,102.71,70.84Z" transform="translate(-63.41 -65.263)" fill="#dff3fd"/>
        </g>
        <g id="Group_2109" data-name="Group 2109" transform="translate(5.904 31.712)">
          <path id="Path_3075" data-name="Path 3075" d="M32.111,79.617a4.84,4.84,0,0,1-.81-1.5,5.436,5.436,0,0,1-.288-1.763V72.074A3.157,3.157,0,0,1,31.3,70.61a1.184,1.184,0,0,1,.81-.661,1.806,1.806,0,0,1,1.2.23,3.705,3.705,0,0,1,1.2.981,4.73,4.73,0,0,1,.81,1.459,5.2,5.2,0,0,1,.288,1.727v.087a.164.164,0,0,1-.037.113.068.068,0,0,1-.089.014l-.972-.435a.219.219,0,0,1-.089-.1.308.308,0,0,1-.036-.143v-.174a2.7,2.7,0,0,0-.3-1.259,1.809,1.809,0,0,0-.779-.816.651.651,0,0,0-.788.022,1.261,1.261,0,0,0-.3.957v4.473a2.652,2.652,0,0,0,.3,1.251,1.831,1.831,0,0,0,.788.814.651.651,0,0,0,.779-.02,1.234,1.234,0,0,0,.3-.95v-.189c0-.107.042-.139.125-.1l.972.551a.2.2,0,0,1,.126.18v.117a3.121,3.121,0,0,1-.288,1.45,1.166,1.166,0,0,1-.81.654,1.859,1.859,0,0,1-1.2-.237A3.647,3.647,0,0,1,32.111,79.617Z" transform="translate(-31.014 -69.92)" fill="#1a4480"/>
          <path id="Path_3076" data-name="Path 3076" d="M39.35,83.318a4.439,4.439,0,0,1-.8-1.384,4.664,4.664,0,0,1-.282-1.607v-.379a.134.134,0,0,1,.037-.105.074.074,0,0,1,.089-.006l.94.476a.214.214,0,0,1,.089.1.309.309,0,0,1,.037.143v.291a2.349,2.349,0,0,0,.313,1.178,1.985,1.985,0,0,0,.835.818q.481.243.747.029a.959.959,0,0,0,.267-.783,1.978,1.978,0,0,0-.146-.752,3.762,3.762,0,0,0-.413-.735q-.267-.374-.831-1.069-.637-.774-1.023-1.342a5.888,5.888,0,0,1-.647-1.269A4.318,4.318,0,0,1,38.3,75.4a1.957,1.957,0,0,1,.6-1.68,1.468,1.468,0,0,1,1.577.071,3.827,3.827,0,0,1,1.2.966,4.618,4.618,0,0,1,.81,1.423,4.866,4.866,0,0,1,.287,1.647v.307a.135.135,0,0,1-.037.105.073.073,0,0,1-.088.006l-.951-.482a.208.208,0,0,1-.089-.1.307.307,0,0,1-.037-.143v-.277a2.49,2.49,0,0,0-.3-1.185,1.886,1.886,0,0,0-.819-.823.636.636,0,0,0-.705-.029.947.947,0,0,0-.256.781,2,2,0,0,0,.135.739,3.436,3.436,0,0,0,.413.734q.276.389.83,1.062.751.978,1.107,1.494a5.433,5.433,0,0,1,.6,1.172,4.043,4.043,0,0,1,.245,1.428,2.018,2.018,0,0,1-.616,1.72,1.518,1.518,0,0,1-1.65-.071A3.907,3.907,0,0,1,39.35,83.318Z" transform="translate(-32.353 -70.586)" fill="#1a4480"/>
          <path id="Path_3077" data-name="Path 3077" d="M46.564,86.955a4.867,4.867,0,0,1-.814-1.528,5.729,5.729,0,0,1-.288-1.814V79.5A3.391,3.391,0,0,1,45.75,78a1.215,1.215,0,0,1,.814-.7,1.776,1.776,0,0,1,1.216.223,3.7,3.7,0,0,1,1.227,1.016,4.966,4.966,0,0,1,.82,1.53,5.64,5.64,0,0,1,.292,1.8v4.11a3.374,3.374,0,0,1-.292,1.52,1.24,1.24,0,0,1-.82.7,1.809,1.809,0,0,1-1.227-.229A3.694,3.694,0,0,1,46.564,86.955Zm2.036-.491a1.416,1.416,0,0,0,.307-1.031V81.207a3,3,0,0,0-.307-1.358,1.879,1.879,0,0,0-.82-.874.635.635,0,0,0-.8.051,1.461,1.461,0,0,0-.3,1.048V84.3a2.98,2.98,0,0,0,.3,1.341,1.838,1.838,0,0,0,.8.867A.655.655,0,0,0,48.6,86.464Z" transform="translate(-33.683 -71.276)" fill="#1a4480"/>
        </g>
      </g>
      <g id="Group_2113" data-name="Group 2113" transform="translate(48.561 16.83)">
        <g id="Group_2111" data-name="Group 2111" transform="translate(1.747 14.091)">
          <path id="Path_3078" data-name="Path 3078" d="M94.525,90.763,91.436,85.9,85.48,88.186l8.014-17.825L101,72.5Z" transform="translate(-85.48 -69.21)" fill="#a00a0f"/>
          <path id="Path_3079" data-name="Path 3079" d="M102.627,89.64l3.089-5.728,5.956.609-8.014-15.572-7.5,4.246Z" transform="translate(-87.452 -68.949)" fill="#a00a0f"/>
        </g>
        <path id="Path_3080" data-name="Path 3080" d="M111.051,63.587c0,1.171-1.7,2.341-1.984,3.461-.3,1.159.7,2.673.13,3.731s-2.509,1.306-3.313,2.224-.767,2.847-1.759,3.56-2.631-.058-3.748.4c-1.08.44-2.012,2.267-3.182,2.432s-2.1-1.4-3.183-1.538c-1.117-.141-2.77,1.085-3.749.656s-.954-2.373-1.758-3.065-2.739-.382-3.313-1.294.428-2.691.13-3.766c-.289-1.039-1.984-1.732-1.984-2.9s1.7-2.341,1.984-3.462c.3-1.158-.7-2.672-.13-3.73.574-1.073,2.509-1.307,3.313-2.225s.767-2.847,1.759-3.56,2.631.059,3.748-.4c1.08-.44,2.012-2.267,3.183-2.432s2.1,1.4,3.182,1.538c1.117.142,2.77-1.085,3.749-.656s.954,2.374,1.758,3.065,2.739.382,3.313,1.294-.428,2.691-.13,3.766C109.356,61.723,111.051,62.417,111.051,63.587Z" transform="translate(-83.337 -51.665)" fill="#cc1d1d"/>
        <g id="Group_2112" data-name="Group 2112" transform="translate(4.876 4.8)">
          <path id="Path_3081" data-name="Path 3081" d="M107.28,65.361A10.686,10.686,0,0,1,98.3,75.6a7.624,7.624,0,0,1-8.981-7.718A10.685,10.685,0,0,1,98.3,57.642a7.625,7.625,0,0,1,8.982,7.719" transform="translate(-89.318 -57.552)" fill="#eff9fe"/>
          <path id="Path_3082" data-name="Path 3082" d="M106.047,65.949a8.789,8.789,0,0,1-7.388,8.426,6.272,6.272,0,0,1-7.388-6.35A8.79,8.79,0,0,1,98.659,59.6a6.271,6.271,0,0,1,7.388,6.349" transform="translate(-89.679 -57.917)" fill="#fff"/>
        </g>
        <path id="Path_3083" data-name="Path 3083" d="M93.228,68.238a.311.311,0,0,1,.026-.433l1.507-1.542a.306.306,0,0,1,.43-.033l2.13,2.114a.287.287,0,0,0,.417-.045l5.127-5.816a.312.312,0,0,1,.43-.059l1.417,1.227a.3.3,0,0,1,0,.43l-7.1,8.051a.287.287,0,0,1-.417.045Z" transform="translate(-85.15 -53.641)" fill="#cc1d1d"/>
      </g>
    </g>
  </g>
</svg>
