<?xml version="1.0" encoding="utf-8"?>
<!-- Generator: Adobe Illustrator 24.2.3, SVG Export Plug-In . SVG Version: 6.00 Build 0)  -->
<svg version="1.1" id="Layer_1" xmlns="http://www.w3.org/2000/svg" xmlns:xlink="http://www.w3.org/1999/xlink" x="0px" y="0px"
	 viewBox="0 0 29.4 29.4" style="enable-background:new 0 0 29.4 29.4;" xml:space="preserve">
<style type="text/css">
	.st0{opacity:0.803;fill:#C71F25;enable-background:new    ;}
	.st1{fill:#C71F25;}
</style>
<g id="Group_3549" transform="translate(-3.029)">
	<path id="Path_6990" class="st0" d="M8.8,6.6V6c0.8-0.6,1.3-1.6,1.3-2.6c0-1.8-1.4-3.3-3.2-3.3S3.6,1.5,3.6,3.3c0,1,0.5,2,1.3,2.6
		v21.4c0,1.1,0.9,2,2,2l0,0c1.1,0,1.9-0.8,1.9-1.9v-0.1v-4.4c0,0,0,0,0.1,0L8.8,6.6L8.8,6.6z"/>
	<path id="Path_6991" class="st1" d="M26.9,6.1c-0.5,0-2.6,1.3-4.4,1.3c-1.4,0-3-1.3-6.1-1.3c-1.9,0.1-3.8,0.6-5.5,1.4v12.8
		c0.1,0,0.2,0,0.2-0.1c1.7-0.9,3.6-1.3,5.6-1.4c2.7,0,3.7,1.4,5.9,1.4c1.5-0.1,3.1-0.5,4.4-1.1c0.3-0.1,0.6-0.3,0.6-0.6l0,0V6.8
		C27.6,6.4,27.2,6.1,26.9,6.1z"/>
</g>
</svg>
