<?xml version="1.0" encoding="utf-8"?>
<!-- Generator: Adobe Illustrator 24.2.3, SVG Export Plug-In . SVG Version: 6.00 Build 0)  -->
<svg version="1.1" id="Layer_1" xmlns="http://www.w3.org/2000/svg" xmlns:xlink="http://www.w3.org/1999/xlink" x="0px" y="0px"
	 viewBox="0 0 29.4 29.4" style="enable-background:new 0 0 29.4 29.4;" xml:space="preserve">
<style type="text/css">
	.st0{opacity:0.803;fill:#C71F25;enable-background:new    ;}
	.st1{fill:#C71F25;}
</style>
<g id="Group_3549" transform="translate(-3.029)">
	<path id="Path_6990" class="st0" d="M9.3,4.8V4.4c0.6-0.4,1-1.2,1-1.9c0-1.3-1-2.5-2.4-2.5S5.4,1,5.4,2.4c0,0.7,0.4,1.5,1,1.9v15.9
		c0,0.8,0.7,1.5,1.5,1.5l0,0c0.8,0,1.4-0.6,1.4-1.4v-0.1V17c0,0,0,0,0.1,0L9.3,4.8L9.3,4.8z"/>
	<path id="Path_6991" class="st1" d="M22.8,4.5c-0.4,0-1.9,1-3.3,1c-1,0-2.2-1-4.5-1c-1.4,0.1-2.8,0.4-4.1,1v9.5
		c0.1,0,0.1,0,0.1-0.1c1.3-0.7,2.7-1,4.2-1c2,0,2.8,1,4.4,1c1.1-0.1,2.3-0.4,3.3-0.8c0.2-0.1,0.4-0.2,0.4-0.4l0,0V5
		C23.3,4.7,23,4.5,22.8,4.5z"/>
</g>
</svg>
