<svg xmlns="http://www.w3.org/2000/svg" width="26.28" height="31.941" viewBox="0 0 26.28 31.941">
  <g id="Group_3549" data-name="Group 3549" transform="translate(-3.029)">
    <path id="Path_6990" data-name="Path 6990" d="M8.778,7.112V6.388a3.393,3.393,0,0,0,1.405-2.811A3.578,3.578,0,1,0,4.434,6.388V29.769a2.154,2.154,0,0,0,2.172,2.172,2.094,2.094,0,0,0,2.108-2.172V24.914a.579.579,0,0,1,.064-.027V7.112Z" fill="#c71f25" opacity="0.803"/>
    <path id="Path_6991" data-name="Path 6991" d="M130.787,105.472c-.54,0-2.807,1.458-4.858,1.458-1.545,0-3.253-1.458-6.694-1.458a16.069,16.069,0,0,0-6.046,1.511v13.959a2.255,2.255,0,0,0,.27-.085,15.446,15.446,0,0,1,6.1-1.565c2.915,0,4.049,1.511,6.478,1.511a12.434,12.434,0,0,0,4.858-1.242c.378-.162.7-.324.7-.7h0V106.174A.778.778,0,0,0,130.787,105.472Z" transform="translate(-102.288 -98.892)" fill="#c71f25"/>
  </g>
</svg>
