<svg xmlns="http://www.w3.org/2000/svg" width="90" height="79.394" viewBox="0 0 90 79.394">
  <path id="Path_6892" data-name="Path 6892" d="M0,0V79.394H79.32V0ZM62.049,40.429l6.1,13.36H63.979l-1.783-4.3-1.9,4.3H55.979ZM11.118,64.355c-4.636-3.161-5.44-7.026-5.44-11.088,0-5.439,3.253-11.246,9.693-12.483a20.5,20.5,0,0,1,11.088.977l-.14,4.184c-3.093-1.989-8.578-2.72-12.134-.628-3.17,1.866-4.184,4.6-4.254,7.95a9.172,9.172,0,0,0,4.895,8.754c2.307,1.206,7.685.622,7.685.622l-.027-6.359-4.64.01.041-3.933h8.957l.017,13.374C21.923,67.206,15.441,67.3,11.118,64.355Zm34.338.041c-3.39,2.654-8.32,2.461-12.246,1.054l.41-4.16c2.285,1.23,6.5,2.345,8.964.059a4.166,4.166,0,0,0,.937-3.457c-1.406-4.1-12.538-3.926-10.487-12.421a6.793,6.793,0,0,1,4.277-4.57c2.871-1.326,6.785-.549,9.582.336,0,0-.618,3.767-.559,3.942-2.344-1.172-5.683-1.876-7.909-.645a3.059,3.059,0,0,0-1,3.632c3.632,3.984,10.077,3.046,10.429,10.722A7.37,7.37,0,0,1,45.456,64.4Zm8.853,2.122H50.136L55.7,54l2.991,2.713-2.225,5.078,5.425-2.783,2.991,2.365Zm14.817,0-4.108-9.724,2.945-2.874,5.686,12.6ZM87.42,3.024a.871.871,0,0,0,.865-.88.8.8,0,0,0-.476-.7,1.95,1.95,0,0,0-.826-.1H85.941V4.38h.491V3.093h.29c.375,0,.514.13.9.812l.268.475h.6l-.366-.591C87.818,3.3,87.648,3.117,87.42,3.024Zm-.391-.351h-.6V1.761h.559c.566,0,.775.115.775.452C87.766,2.534,87.534,2.672,87.03,2.672ZM87.181,0A2.822,2.822,0,1,0,90,2.818,2.822,2.822,0,0,0,87.181,0Zm0,5.177a2.355,2.355,0,1,1,2.352-2.359A2.36,2.36,0,0,1,87.181,5.177Z" fill="#1a4480"/>
</svg>
