<?xml version="1.0" encoding="utf-8"?>
<!-- Generator: Adobe Illustrator 24.2.3, SVG Export Plug-In . SVG Version: 6.00 Build 0)  -->
<svg version="1.1" id="Layer_1" xmlns="http://www.w3.org/2000/svg" xmlns:xlink="http://www.w3.org/1999/xlink" x="0px" y="0px"
	 viewBox="0 0 568 300" style="enable-background:new 0 0 568 300;" xml:space="preserve">
<style type="text/css">
	.st0{fill:#F9F9F9;}
	.st1{fill:#DEDEDE;}
	.st2{fill:#0A90B7;}
	.st3{fill:#D8D8D8;}
	.st4{opacity:0.3;fill:#FFFFFF;}
	.st5{fill:#1A4480;}
	.st6{fill:#D9F1FD;}
	.st7{opacity:0.3;}
	.st8{fill:#FFFFFF;}
	.st9{fill:none;}
	.st10{fill:#444444;}
	.st11{font-family:'Montserrat-Light';}
	.st12{font-size:16px;}
	.st13{fill:none;stroke:#0A90B7;stroke-miterlimit:10;}
	.st14{fill:none;stroke:#1A4480;stroke-miterlimit:10;}
</style>
<rect y="12.5" class="st0" width="568" height="271"/>
<path class="st1" d="M233.3,180.8c0-5.5-0.6-11.1-1.8-16.6c-0.4-1.7-2.1-2.6-3.8-2.2c-11.5,3.2-22.2,1-26.1-6.2
	c-4-7.3-0.1-17.4,8.9-25.4c1.3-1.2,1.5-3.1,0.3-4.4c-4-4-8.4-7.5-13-10.5c-1.5-1-3.4-0.4-4.2,1.2c-5.8,10.4-14.9,16.4-22.9,14.1
	c-7.9-2.3-12.4-12.3-11.7-24.2c0.1-1.8-1.1-3.3-2.9-3.3c-5.5,0-11.1,0.6-16.6,1.8c-1.7,0.4-2.6,2.1-2.1,3.8
	c3.2,11.5,1,22.2-6.2,26.1c-7.3,4-17.4,0.1-25.3-8.9c-1.2-1.3-3.1-1.5-4.4-0.3c-4,4-7.5,8.4-10.5,13c-1,1.5-0.4,3.4,1.2,4.2
	c10.4,5.8,16.4,14.9,14.1,22.9c-2.3,7.9-12.3,12.4-24.2,11.7c-1.8-0.1-3.3,1.1-3.3,2.9c0,5.5,0.6,11.1,1.8,16.6
	c0.4,1.7,2.1,2.6,3.8,2.2c11.5-3.2,22.2-1,26.1,6.2c4,7.3,0.1,17.4-8.9,25.4c-1.3,1.2-1.5,3.1-0.3,4.4c4,4,8.4,7.5,13,10.5
	c1.5,1,3.4,0.4,4.2-1.2c5.8-10.4,14.9-16.4,22.9-14.1c7.9,2.3,12.4,12.3,11.7,24.2c-0.1,1.8,1.1,3.3,2.9,3.3
	c5.5,0,11.1-0.6,16.6-1.8c1.7-0.4,2.6-2.1,2.2-3.8c-3.2-11.5-1-22.1,6.2-26.1c7.3-4,17.4-0.1,25.4,8.8c1.2,1.3,3.1,1.5,4.4,0.3
	c4-4,7.5-8.4,10.5-13c1-1.5,0.4-3.4-1.2-4.2c-10.4-5.8-16.4-14.9-14.1-22.9c2.3-7.9,12.3-12.4,24.2-11.7
	C231.8,183.9,233.3,182.6,233.3,180.8z M151.7,221.1c-22.4-2.5-38.5-22.8-36-45.2c2.5-22.4,22.8-38.5,45.2-36
	c22.4,2.5,38.5,22.8,36,45.2C194.3,207.6,174.1,223.7,151.7,221.1z"/>
<path class="st1" d="M312.4,74.1c-0.7-4.4-1.9-8.7-3.6-12.9c-0.5-1.3-2-1.8-3.3-1.2c-8.7,4.1-17.4,3.7-21.5-1.5
	c-4.1-5.2-2.3-13.8,3.7-21.2c0.9-1.1,0.8-2.7-0.4-3.5c-3.7-2.6-7.6-4.8-11.7-6.6c-1.3-0.6-2.7,0.2-3.2,1.5
	c-3.3,9-9.7,14.9-16.3,14.1c-6.6-0.8-11.4-8.1-12.4-17.6c-0.2-1.4-1.3-2.5-2.7-2.2c-4.4,0.7-8.7,1.9-12.9,3.6
	c-1.3,0.5-1.8,2-1.2,3.3c4.1,8.7,3.7,17.4-1.5,21.5c-5.2,4.1-13.8,2.3-21.2-3.7c-1.1-0.9-2.7-0.8-3.5,0.4c-2.6,3.7-4.8,7.6-6.6,11.7
	c-0.6,1.3,0.2,2.7,1.5,3.2c9,3.3,14.9,9.7,14.1,16.3c-0.8,6.6-8.1,11.4-17.6,12.4c-1.4,0.2-2.5,1.3-2.2,2.7
	c0.7,4.4,1.9,8.7,3.6,12.9c0.5,1.3,2,1.8,3.3,1.2c8.7-4.1,17.4-3.7,21.5,1.5c4.1,5.2,2.3,13.8-3.7,21.2c-0.9,1.1-0.8,2.7,0.4,3.5
	c3.7,2.6,7.6,4.8,11.7,6.6c1.3,0.6,2.7-0.1,3.2-1.5c3.3-9,9.7-14.9,16.3-14.1c6.6,0.8,11.4,8.1,12.4,17.6c0.1,1.4,1.3,2.5,2.7,2.2
	c4.4-0.7,8.7-1.9,12.9-3.6c1.3-0.5,1.8-2,1.2-3.3c-4.1-8.7-3.7-17.4,1.5-21.5c5.2-4.1,13.8-2.3,21.2,3.7c1.1,0.9,2.7,0.8,3.5-0.4
	c2.6-3.7,4.8-7.6,6.6-11.7c0.6-1.3-0.2-2.7-1.5-3.2c-9-3.3-14.9-9.7-14.1-16.3c0.8-6.6,8.1-11.4,17.6-12.4
	C311.6,76.7,312.6,75.6,312.4,74.1z M253,116.7c-18.1,0.9-33.5-13-34.4-31.1c-0.9-18.1,13-33.5,31.1-34.4
	c18.1-0.9,33.5,13,34.4,31.1C285,100.4,271.1,115.8,253,116.7z"/>
<path class="st1" d="M321.4,207.4c-1.3-3.5-3-7-5.1-10.2c-0.7-1-2-1.2-3-0.5c-6.6,4.8-13.9,5.9-18.2,2.2c-4.3-3.7-4.2-11.1-0.3-18.3
	c0.6-1.1,0.2-2.4-0.9-2.9c-3.5-1.6-7.1-2.8-10.8-3.6c-1.2-0.3-2.2,0.6-2.4,1.8c-1.3,8-5.7,14-11.3,14.4c-5.6,0.4-10.8-4.9-13.2-12.7
	c-0.4-1.2-1.5-1.8-2.6-1.4c-3.5,1.3-7,3-10.2,5.1c-1,0.7-1.2,2-0.5,3c4.8,6.6,5.9,13.9,2.2,18.2c-3.7,4.3-11.1,4.2-18.3,0.3
	c-1.1-0.6-2.4-0.2-2.9,0.9c-1.6,3.5-2.8,7.1-3.6,10.8c-0.3,1.2,0.6,2.2,1.8,2.4c8,1.3,14,5.7,14.4,11.3c0.4,5.6-4.9,10.8-12.7,13.2
	c-1.2,0.4-1.8,1.5-1.4,2.6c1.3,3.5,3,7,5.1,10.2c0.7,1,2,1.2,3,0.5c6.6-4.8,13.9-5.9,18.2-2.2c4.3,3.7,4.2,11.1,0.3,18.3
	c-0.6,1.1-0.2,2.4,0.9,2.9c3.5,1.6,7.1,2.8,10.8,3.6c1.2,0.3,2.2-0.6,2.4-1.8c1.3-8,5.7-14,11.3-14.4c5.6-0.4,10.8,4.9,13.2,12.7
	c0.4,1.2,1.5,1.8,2.6,1.4c3.5-1.3,7-3,10.2-5.1c1-0.7,1.2-2,0.5-3c-4.8-6.6-5.9-13.9-2.2-18.2c3.7-4.3,11.1-4.2,18.3-0.3
	c1.1,0.6,2.4,0.2,2.9-0.9c1.6-3.5,2.8-7.1,3.6-10.8c0.3-1.2-0.6-2.2-1.8-2.4c-8-1.3-14-5.7-14.4-11.3c-0.4-5.6,4.9-10.8,12.7-13.2
	C321.2,209.6,321.9,208.5,321.4,207.4z M278.8,252.4c-14.9,3.7-30-5.5-33.7-20.4c-3.7-14.9,5.5-30,20.4-33.7
	c14.9-3.7,30,5.5,33.7,20.4C302.8,233.6,293.7,248.7,278.8,252.4z"/>
<path class="st1" d="M363,145.3c-0.6-2.7-1.4-5.3-2.6-7.8c-0.4-0.8-1.3-1.1-2.1-0.6c-5.2,2.7-10.5,2.8-13.2-0.3
	c-2.7-3.1-1.8-8.4,1.7-13.1c0.5-0.7,0.4-1.7-0.3-2.1c-2.3-1.5-4.8-2.7-7.3-3.7c-0.8-0.3-1.7,0.2-1.9,1c-1.7,5.6-5.5,9.4-9.6,9.1
	c-4.1-0.3-7.2-4.6-8.1-10.4c-0.1-0.9-0.9-1.5-1.7-1.3c-2.7,0.6-5.3,1.4-7.8,2.6c-0.8,0.4-1,1.3-0.6,2.1c2.7,5.2,2.8,10.6-0.3,13.2
	c-3.1,2.7-8.4,1.8-13.1-1.7c-0.7-0.5-1.7-0.4-2.1,0.3c-1.5,2.3-2.7,4.8-3.7,7.3c-0.3,0.8,0.2,1.7,1,1.9c5.6,1.7,9.4,5.5,9.1,9.6
	c-0.3,4.1-4.6,7.2-10.4,8.1c-0.9,0.1-1.5,0.9-1.3,1.7c0.6,2.7,1.4,5.3,2.6,7.8c0.4,0.8,1.3,1.1,2.1,0.6c5.2-2.7,10.5-2.8,13.2,0.3
	c2.7,3.1,1.8,8.4-1.7,13.1c-0.5,0.7-0.4,1.7,0.3,2.1c2.3,1.5,4.8,2.8,7.3,3.7c0.8,0.3,1.7-0.2,1.9-1c1.7-5.6,5.5-9.4,9.6-9.1
	c4.1,0.3,7.2,4.6,8.1,10.4c0.1,0.9,0.9,1.5,1.7,1.3c2.7-0.6,5.3-1.4,7.8-2.6c0.8-0.4,1-1.3,0.6-2.1c-2.7-5.2-2.8-10.5,0.3-13.2
	c3.1-2.7,8.4-1.8,13.1,1.7c0.7,0.5,1.7,0.4,2.1-0.3c1.5-2.3,2.7-4.8,3.7-7.3c0.3-0.8-0.2-1.7-1-1.9c-5.6-1.7-9.4-5.5-9.1-9.6
	c0.3-4.1,4.6-7.2,10.4-8.1C362.6,146.9,363.2,146.2,363,145.3z M327.9,173.1c-11,1.1-20.9-7-21.9-18c-1.1-11,7-20.9,18-21.9
	c11-1.1,20.9,7,21.9,18C347,162.2,338.9,172,327.9,173.1z"/>
<path class="st2" d="M229.4,180.3c0.3-5.5-0.1-11.1-1-16.7c-0.3-1.8-2-2.7-3.7-2.3c-11.6,2.7-22.2,0-25.8-7.4
	c-3.6-7.4,0.7-17.4,10-24.9c1.4-1.1,1.7-3,0.5-4.4c-3.8-4.2-8-7.9-12.5-11.1c-1.5-1-3.3-0.5-4.3,1c-6.3,10.1-15.7,15.7-23.5,13
	c-7.8-2.7-11.8-12.8-10.5-24.7c0.2-1.8-1-3.3-2.8-3.4c-5.5-0.3-11.1,0.1-16.7,1c-1.8,0.3-2.7,2-2.3,3.7c2.7,11.6,0,22.2-7.4,25.8
	c-7.4,3.6-17.4-0.7-24.9-10c-1.1-1.4-3.1-1.7-4.4-0.5c-4.2,3.8-7.9,8-11.1,12.5c-1,1.5-0.5,3.3,1,4.3c10.1,6.3,15.7,15.7,13,23.5
	c-2.7,7.8-12.8,11.8-24.7,10.5c-1.8-0.2-3.3,1-3.4,2.8c-0.3,5.5,0.1,11.1,1,16.7c0.3,1.8,2,2.7,3.7,2.3c11.6-2.7,22.2,0,25.8,7.4
	c3.6,7.4-0.7,17.4-10,24.9c-1.4,1.1-1.7,3-0.5,4.4c3.8,4.2,8,7.9,12.5,11.1c1.5,1,3.3,0.5,4.3-1c6.3-10.1,15.7-15.7,23.5-13
	c7.8,2.7,11.8,12.8,10.5,24.7c-0.2,1.8,1,3.3,2.8,3.4c5.5,0.3,11.1-0.1,16.7-1c1.8-0.3,2.7-2,2.3-3.7c-2.7-11.6,0-22.2,7.4-25.8
	c7.4-3.6,17.4,0.7,24.9,10c1.1,1.4,3,1.7,4.4,0.5c4.2-3.8,7.9-8,11.1-12.5c1-1.5,0.5-3.3-1-4.3c-10.1-6.3-15.7-15.7-13-23.5
	c2.7-7.8,12.8-11.8,24.7-10.5C227.8,183.2,229.3,182.1,229.4,180.3z M146,216.8c-22.3-3.6-37.4-24.5-33.9-46.8
	c3.6-22.3,24.5-37.4,46.8-33.9c22.3,3.6,37.4,24.5,33.9,46.8C189.2,205.2,168.3,220.3,146,216.8z"/>
<g>
	<path class="st3" d="M80,125.2l3.3,2.4c2.1-5.8,4.9-11.6,8.5-17.1c-5.8,3-11.4,6.7-16.7,11.1l3.3,2.4l-0.9,1.3
		c-3.3,4.8-6.1,9.8-8.4,15.1c-4.6,10.6-7.2,22.1-7.6,33.7c-0.3,11.6,1.5,23.2,5.5,34.1c4,10.9,10.1,20.9,17.9,29.5l1.6-1.4
		c-7.6-8.4-13.6-18.2-17.5-28.8c-3.9-10.6-5.8-22-5.4-33.3c0.3-11.3,2.8-22.5,7.4-32.9c2.3-5.2,5-10.1,8.2-14.8L80,125.2z"/>
</g>
<g>
	<g>
		<path class="st4" d="M144.5,131.8c-0.1,0-0.1,0-0.2,0c-3.2,0.6-6.3,1.5-9.3,2.7c-0.8,0.3-1.7-0.1-2-0.8c-0.3-0.8,0.1-1.7,0.8-2
			c3.2-1.3,6.5-2.2,9.9-2.8c0.8-0.1,1.6,0.4,1.8,1.3C145.7,130.9,145.2,131.6,144.5,131.8z"/>
	</g>
	<g>
		<path class="st4" d="M106.5,185.9c-0.1,0-0.1,0-0.2,0c-0.8,0.1-1.6-0.4-1.8-1.3c-3.5-19.8,5.9-39.9,23.3-50
			c0.7-0.4,1.7-0.2,2.1,0.6c0.4,0.7,0.2,1.7-0.6,2.1c-16.3,9.5-25,28.3-21.8,46.8C107.7,184.9,107.2,185.7,106.5,185.9z"/>
	</g>
	<g>
		<path class="st4" d="M168.1,221.9c-0.8,0.2-1.6-0.2-1.9-1c-0.3-0.8,0.1-1.7,0.9-2c18-6.3,30.1-23.4,30.1-42.4
			c0-0.9,0.7-1.5,1.5-1.5c0.9,0,1.5,0.7,1.5,1.5C200.3,196.9,187.3,215.1,168.1,221.9C168.1,221.9,168.1,221.9,168.1,221.9z"/>
	</g>
</g>
<path class="st5" d="M310.4,70.1c-0.7-4.4-1.9-8.7-3.6-12.9c-0.5-1.3-2-1.8-3.3-1.2c-8.7,4.1-17.4,3.7-21.5-1.5
	c-4.1-5.2-2.3-13.8,3.7-21.2c0.9-1.1,0.8-2.7-0.4-3.5c-3.7-2.6-7.6-4.8-11.7-6.6c-1.3-0.6-2.7,0.2-3.2,1.5
	c-3.3,9-9.7,14.9-16.3,14.1c-6.6-0.8-11.4-8.1-12.4-17.6c-0.2-1.4-1.3-2.5-2.7-2.2c-4.4,0.7-8.7,1.9-12.9,3.6
	c-1.3,0.5-1.8,2-1.2,3.3c4.1,8.7,3.7,17.4-1.5,21.5c-5.2,4.1-13.8,2.3-21.2-3.7c-1.1-0.9-2.7-0.8-3.5,0.4c-2.6,3.7-4.8,7.6-6.6,11.7
	c-0.6,1.3,0.2,2.7,1.5,3.2c9,3.3,14.9,9.7,14.1,16.3c-0.8,6.6-8.1,11.4-17.6,12.4c-1.4,0.2-2.5,1.3-2.2,2.7
	c0.7,4.4,1.9,8.7,3.6,12.9c0.5,1.3,2,1.8,3.3,1.2c8.7-4.1,17.4-3.7,21.5,1.5c4.1,5.2,2.3,13.8-3.7,21.2c-0.9,1.1-0.8,2.7,0.4,3.5
	c3.7,2.6,7.6,4.8,11.7,6.6c1.3,0.6,2.7-0.1,3.2-1.5c3.3-9,9.7-14.9,16.3-14.1c6.6,0.8,11.4,8.1,12.4,17.6c0.1,1.4,1.3,2.5,2.7,2.2
	c4.4-0.7,8.7-1.9,12.9-3.6c1.3-0.5,1.8-2,1.2-3.3c-4.1-8.7-3.7-17.4,1.5-21.5c5.2-4.1,13.8-2.3,21.2,3.7c1.1,0.9,2.7,0.8,3.5-0.4
	c2.6-3.7,4.8-7.6,6.6-11.7c0.6-1.3-0.2-2.7-1.5-3.2c-9-3.3-14.9-9.7-14.1-16.3c0.8-6.6,8.1-11.4,17.6-12.4
	C309.6,72.7,310.6,71.6,310.4,70.1z M251,112.7c-18.1,0.9-33.5-13-34.4-31.1c-0.9-18.1,13-33.5,31.1-34.4
	c18.1-0.9,33.5,13,34.4,31.1C283,96.4,269.1,111.8,251,112.7z"/>
<g>
	<path class="st3" d="M208.1,20.1l-2.2-3.3l-0.4,0.5l-0.4,0.5l-0.8,1l-0.8,1c-0.3,0.3-0.5,0.7-0.8,1c-1,1.4-2,2.7-2.9,4.1
		c-1.9,2.7-3.5,5.7-4.9,8.5c2.7-1.8,5.4-3.4,8.2-4.8c1.4-0.7,2.8-1.3,4.2-1.9c0.3-0.2,0.7-0.3,1.1-0.4l1.1-0.4l1.1-0.4l0.5-0.2
		l0.5-0.2l-2.2-3.3l1.3-0.8c3.6-2.4,7.5-4.4,11.5-6.1c8-3.3,16.7-5.1,25.4-5.4c8.7-0.2,17.4,1.2,25.6,4.1
		c8.2,2.9,15.8,7.4,22.4,13.1l1.4-1.6c-6.8-5.8-14.6-10.4-23-13.4c-8.4-3-17.4-4.5-26.3-4.3c-8.9,0.2-17.8,2.1-26.1,5.5
		c-4.1,1.7-8.1,3.8-11.9,6.2L208.1,20.1z"/>
</g>
<g>
	<g>
		<path class="st4" d="M249.9,44.1c0,0-0.1,0-0.1,0c-2.6,0-5.2,0.2-7.7,0.7c-0.7,0.1-1.4-0.3-1.5-1c-0.1-0.7,0.3-1.4,1-1.5
			c2.7-0.5,5.5-0.8,8.3-0.7c0.7,0,1.3,0.6,1.3,1.3C251.1,43.5,250.5,44,249.9,44.1z"/>
	</g>
	<g>
		<path class="st4" d="M211.8,80.9c0,0-0.1,0-0.1,0c-0.7,0-1.3-0.6-1.3-1.3c0.3-16.2,10.7-30.6,25.9-35.9c0.7-0.2,1.4,0.1,1.7,0.8
			c0.2,0.7-0.1,1.4-0.8,1.7c-14.2,5-23.9,18.4-24.2,33.5C213,80.3,212.4,80.8,211.8,80.9z"/>
	</g>
	<g>
		<path class="st4" d="M254.8,118.6c-0.7,0.1-1.3-0.4-1.4-1.1c-0.1-0.7,0.4-1.4,1.1-1.5c15.1-2.3,27.2-13.8,30.1-28.8
			c0.1-0.7,0.8-1.2,1.5-1c0.7,0.1,1.2,0.8,1,1.5C284.1,103.7,271.1,116.1,254.8,118.6C254.9,118.6,254.9,118.6,254.8,118.6z"/>
	</g>
</g>
<path class="st5" d="M319.4,203.4c-1.3-3.5-3-7-5.1-10.2c-0.7-1-2-1.2-3-0.5c-6.6,4.8-13.9,5.9-18.2,2.2c-4.3-3.7-4.2-11.1-0.3-18.3
	c0.6-1.1,0.2-2.4-0.9-2.9c-3.5-1.6-7.1-2.8-10.8-3.6c-1.2-0.3-2.2,0.6-2.4,1.8c-1.3,8-5.7,14-11.3,14.4c-5.6,0.4-10.8-4.9-13.2-12.7
	c-0.4-1.2-1.5-1.8-2.6-1.4c-3.5,1.3-7,3-10.2,5.1c-1,0.7-1.2,2-0.5,3c4.8,6.6,5.9,13.9,2.2,18.2c-3.7,4.3-11.1,4.2-18.3,0.3
	c-1.1-0.6-2.4-0.2-2.9,0.9c-1.6,3.5-2.8,7.1-3.6,10.8c-0.3,1.2,0.6,2.2,1.8,2.4c8,1.3,14,5.7,14.4,11.3c0.4,5.6-4.9,10.8-12.7,13.2
	c-1.2,0.4-1.8,1.5-1.4,2.6c1.3,3.5,3,7,5.1,10.2c0.7,1,2,1.2,3,0.5c6.6-4.8,13.9-5.9,18.2-2.2c4.3,3.7,4.2,11.1,0.3,18.3
	c-0.6,1.1-0.2,2.4,0.9,2.9c3.5,1.6,7.1,2.8,10.8,3.6c1.2,0.3,2.2-0.6,2.4-1.8c1.3-8,5.7-14,11.3-14.4c5.6-0.4,10.8,4.9,13.2,12.7
	c0.4,1.2,1.5,1.8,2.6,1.4c3.5-1.3,7-3,10.2-5.1c1-0.7,1.2-2,0.5-3c-4.8-6.6-5.9-13.9-2.2-18.2c3.7-4.3,11.1-4.2,18.3-0.3
	c1.1,0.6,2.4,0.2,2.9-0.9c1.6-3.5,2.8-7.1,3.6-10.8c0.3-1.2-0.6-2.2-1.8-2.4c-8-1.3-14-5.7-14.4-11.3c-0.4-5.6,4.9-10.8,12.7-13.2
	C319.2,205.6,319.9,204.5,319.4,203.4z M276.8,248.4c-14.9,3.7-30-5.5-33.7-20.4c-3.7-14.9,5.5-30,20.4-33.7
	c14.9-3.7,30,5.5,33.7,20.4C300.8,229.6,291.7,244.7,276.8,248.4z"/>
<g>
	<path class="st3" d="M298.4,282.6l1.8,3.5c2.5-2.3,4.9-4.7,7-7.2c2.1-2.6,3.9-5.2,5.5-8c-2.8,1.6-5.6,2.9-8.4,4
		c-2.9,1.1-5.8,1.9-8.6,2.5l1.8,3.5l-1.3,0.6c-3.2,1.6-6.5,2.9-9.9,3.8c-6.8,2-14,2.7-21.1,2.1c-7.1-0.5-14.1-2.3-20.5-5.3
		c-6.5-3-12.4-7.1-17.4-12.2l-1.4,1.4c5.2,5.2,11.3,9.5,18,12.6c6.7,3.1,13.9,4.9,21.2,5.5c7.3,0.6,14.8-0.2,21.8-2.2
		c3.5-1,7-2.3,10.3-4L298.4,282.6z"/>
</g>
<g>
	<g>
		<path class="st4" d="M262.9,191.7c-0.5,0-0.9-0.3-1-0.8c-0.1-0.6,0.2-1.2,0.8-1.3c2.3-0.5,4.6-0.8,7-0.8c0.6,0,1.1,0.5,1.1,1.1
			c0,0.6-0.5,1.1-1.1,1.1c-2.2,0-4.4,0.3-6.5,0.8C263.1,191.7,263,191.7,262.9,191.7z"/>
	</g>
	<g>
		<path class="st4" d="M238.1,223c-0.6,0-1.1-0.5-1.1-1.1c-0.1-13.7,8.4-26.2,21.2-31.1c0.6-0.2,1.2,0.1,1.4,0.6
			c0.2,0.6-0.1,1.2-0.6,1.4c-12,4.6-19.9,16.2-19.8,29C239.2,222.5,238.7,223,238.1,223C238.2,223,238.1,223,238.1,223z"/>
	</g>
	<g>
		<path class="st4" d="M275.5,254c-0.5,0-1-0.4-1.1-0.9c-0.1-0.6,0.3-1.1,0.9-1.2c12.8-2.3,22.8-12.4,24.9-25.2
			c0.1-0.6,0.7-1,1.2-0.9c0.6,0.1,1,0.7,0.9,1.2c-2.3,13.7-13,24.5-26.7,26.9C275.7,254,275.6,254,275.5,254z"/>
	</g>
</g>
<path class="st6" d="M361,141.3c-0.6-2.7-1.4-5.3-2.6-7.8c-0.4-0.8-1.3-1.1-2.1-0.6c-5.2,2.7-10.5,2.8-13.2-0.3
	c-2.7-3.1-1.8-8.4,1.7-13.1c0.5-0.7,0.4-1.7-0.3-2.1c-2.3-1.5-4.8-2.7-7.3-3.7c-0.8-0.3-1.7,0.2-1.9,1c-1.7,5.6-5.5,9.4-9.6,9.1
	c-4.1-0.3-7.2-4.6-8.1-10.4c-0.1-0.9-0.9-1.5-1.7-1.3c-2.7,0.6-5.3,1.4-7.8,2.6c-0.8,0.4-1,1.3-0.6,2.1c2.7,5.2,2.8,10.6-0.3,13.2
	c-3.1,2.7-8.4,1.8-13.1-1.7c-0.7-0.5-1.7-0.4-2.1,0.3c-1.5,2.3-2.7,4.8-3.7,7.3c-0.3,0.8,0.2,1.7,1,1.9c5.6,1.7,9.4,5.5,9.1,9.6
	c-0.3,4.1-4.6,7.2-10.4,8.1c-0.9,0.1-1.5,0.9-1.3,1.7c0.6,2.7,1.4,5.3,2.6,7.8c0.4,0.8,1.3,1.1,2.1,0.6c5.2-2.7,10.5-2.8,13.2,0.3
	c2.7,3.1,1.8,8.4-1.7,13.1c-0.5,0.7-0.4,1.7,0.3,2.1c2.3,1.5,4.8,2.8,7.3,3.7c0.8,0.3,1.7-0.2,1.9-1c1.7-5.6,5.5-9.4,9.6-9.1
	c4.1,0.3,7.2,4.6,8.1,10.4c0.1,0.9,0.9,1.5,1.7,1.3c2.7-0.6,5.3-1.4,7.8-2.6c0.8-0.4,1-1.3,0.6-2.1c-2.7-5.2-2.8-10.5,0.3-13.2
	c3.1-2.7,8.4-1.8,13.1,1.7c0.7,0.5,1.7,0.4,2.1-0.3c1.5-2.3,2.7-4.8,3.7-7.3c0.3-0.8-0.2-1.7-1-1.9c-5.6-1.7-9.4-5.5-9.1-9.6
	c0.3-4.1,4.6-7.2,10.4-8.1C360.6,142.9,361.2,142.2,361,141.3z M325.9,169.1c-11,1.1-20.9-7-21.9-18c-1.1-11,7-20.9,18-21.9
	c11-1.1,20.9,7,21.9,18C345,158.2,336.9,168,325.9,169.1z"/>
<g>
	<path class="st3" d="M372,165.2l-3.5-1.4c-0.4,5.5-2.2,11.2-5.2,16.5c5.3-3.1,10.2-7.5,14.1-13l-3.5-1.4l0.5-1.3
		c0.8-2.3,1.5-4.7,1.9-7c0.9-4.8,1-9.7,0.3-14.5c-0.7-4.8-2.1-9.5-4.4-13.9c-1.1-2.2-2.3-4.3-3.8-6.2c-1.4-2-3-3.8-4.8-5.5l-1.4,1.4
		c6.6,6.5,11.1,15.3,12.4,24.5c0.7,4.6,0.6,9.3-0.3,13.9c-0.4,2.3-1,4.5-1.8,6.7L372,165.2z"/>
</g>
<g>
	<g>
		<path class="st4" d="M319.8,127.5c-0.4,0-0.7-0.3-0.8-0.7c-0.1-0.5,0.2-0.9,0.7-1c1.7-0.3,3.4-0.4,5.1-0.3c0.5,0,0.8,0.4,0.8,0.9
			c0,0.5-0.4,0.8-0.9,0.8c-1.6-0.1-3.2,0-4.7,0.3C319.9,127.4,319.9,127.5,319.8,127.5z"/>
	</g>
	<g class="st7">
		<path class="st8" d="M300.8,149.1C300.8,149.1,300.8,149.1,300.8,149.1c-0.5,0-0.8-0.4-0.8-0.9c0.4-9.9,7-18.6,16.4-21.7
			c0.4-0.1,0.9,0.1,1,0.5c0.1,0.4-0.1,0.9-0.5,1c-8.8,2.8-14.9,10.9-15.3,20.2C301.6,148.8,301.3,149.1,300.8,149.1z"/>
	</g>
	<g>
		<path class="st4" d="M326.7,172.9c-0.4,0-0.8-0.3-0.8-0.7c-0.1-0.5,0.3-0.9,0.7-0.9c9.3-1.2,16.8-8.1,18.8-17.2
			c0.1-0.4,0.5-0.7,1-0.6c0.4,0.1,0.7,0.5,0.6,1c-2.2,9.8-10.3,17.2-20.2,18.5C326.7,172.9,326.7,172.9,326.7,172.9z"/>
	</g>
</g>
<path class="st5" d="M361,141.3c-0.6-2.7-1.4-5.3-2.6-7.8c-0.4-0.8-1.3-1.1-2.1-0.6c-5.2,2.7-10.5,2.8-13.2-0.3
	c-2.7-3.1-1.8-8.4,1.7-13.1c0.5-0.7,0.4-1.7-0.3-2.1c-2.3-1.5-4.8-2.7-7.3-3.7c-0.8-0.3-1.7,0.2-1.9,1c-1.7,5.6-5.5,9.4-9.6,9.1
	c-4.1-0.3-7.2-4.6-8.1-10.4c-0.1-0.9-0.9-1.5-1.7-1.3c-2.7,0.6-5.3,1.4-7.8,2.6c-0.8,0.4-1,1.3-0.6,2.1c2.7,5.2,2.8,10.6-0.3,13.2
	c-3.1,2.7-8.4,1.8-13.1-1.7c-0.7-0.5-1.7-0.4-2.1,0.3c-1.5,2.3-2.7,4.8-3.7,7.3c-0.3,0.8,0.2,1.7,1,1.9c5.6,1.7,9.4,5.5,9.1,9.6
	c-0.3,4.1-4.6,7.2-10.4,8.1c-0.9,0.1-1.5,0.9-1.3,1.7c0.6,2.7,1.4,5.3,2.6,7.8c0.4,0.8,1.3,1.1,2.1,0.6c5.2-2.7,10.5-2.8,13.2,0.3
	c2.7,3.1,1.8,8.4-1.7,13.1c-0.5,0.7-0.4,1.7,0.3,2.1c2.3,1.5,4.8,2.8,7.3,3.7c0.8,0.3,1.7-0.2,1.9-1c1.7-5.6,5.5-9.4,9.6-9.1
	c4.1,0.3,7.2,4.6,8.1,10.4c0.1,0.9,0.9,1.5,1.7,1.3c2.7-0.6,5.3-1.4,7.8-2.6c0.8-0.4,1-1.3,0.6-2.1c-2.7-5.2-2.8-10.5,0.3-13.2
	c3.1-2.7,8.4-1.8,13.1,1.7c0.7,0.5,1.7,0.4,2.1-0.3c1.5-2.3,2.7-4.8,3.7-7.3c0.3-0.8-0.2-1.7-1-1.9c-5.6-1.7-9.4-5.5-9.1-9.6
	c0.3-4.1,4.6-7.2,10.4-8.1C360.6,142.9,361.2,142.2,361,141.3z M325.9,169.1c-11,1.1-20.9-7-21.9-18c-1.1-11,7-20.9,18-21.9
	c11-1.1,20.9,7,21.9,18C345,158.2,336.9,168,325.9,169.1z"/>
<g>
	<g>
		<path class="st4" d="M319.8,127.5c-0.4,0-0.7-0.3-0.8-0.7c-0.1-0.5,0.2-0.9,0.7-1c1.7-0.3,3.4-0.4,5.1-0.3c0.5,0,0.8,0.4,0.8,0.9
			c0,0.5-0.4,0.8-0.9,0.8c-1.6-0.1-3.2,0-4.7,0.3C319.9,127.4,319.9,127.5,319.8,127.5z"/>
	</g>
	<g class="st7">
		<path class="st8" d="M300.8,149.1C300.8,149.1,300.8,149.1,300.8,149.1c-0.5,0-0.8-0.4-0.8-0.9c0.4-9.9,7-18.6,16.4-21.7
			c0.4-0.1,0.9,0.1,1,0.5c0.1,0.4-0.1,0.9-0.5,1c-8.8,2.8-14.9,10.9-15.3,20.2C301.6,148.8,301.3,149.1,300.8,149.1z"/>
	</g>
	<g>
		<path class="st4" d="M326.7,172.9c-0.4,0-0.8-0.3-0.8-0.7c-0.1-0.5,0.3-0.9,0.7-0.9c9.3-1.2,16.8-8.1,18.8-17.2
			c0.1-0.4,0.5-0.7,1-0.6c0.4,0.1,0.7,0.5,0.6,1c-2.2,9.8-10.3,17.2-20.2,18.5C326.7,172.9,326.7,172.9,326.7,172.9z"/>
	</g>
</g>
<rect x="2" y="32" class="st9" width="124" height="56.2"/>
<text transform="matrix(1 0 0 1 86.9125 45.5996)"><tspan x="0" y="0" class="st10 st11 st12">Joint </tspan><tspan x="-69" y="19.2" class="st10 st11 st12">Authorization </tspan><tspan x="-54.9" y="38.4" class="st10 st11 st12">Board (JAB)</tspan></text>
<rect x="402.8" y="51" class="st9" width="163.2" height="56.2"/>
<text transform="matrix(1 0 0 1 402.7736 64.5996)"><tspan x="0" y="0" class="st10 st11 st12">Office of </tspan><tspan x="0" y="19.2" class="st10 st11 st12">Management and </tspan><tspan x="0" y="38.4" class="st10 st11 st12">Budget (OMB)</tspan></text>
<rect x="402.8" y="139.1" class="st9" width="124.6" height="17.8"/>
<text transform="matrix(1 0 0 1 402.7735 152.6689)" class="st10 st11 st12">CIO Council</text>
<rect x="402.8" y="191.9" class="st9" width="157.2" height="63.1"/>
<text transform="matrix(1 0 0 1 402.7733 205.5371)"><tspan x="0" y="0" class="st10 st11 st12">National Institute </tspan><tspan x="0" y="19.2" class="st10 st11 st12">for Standards and </tspan><tspan x="0" y="38.4" class="st10 st11 st12">Technology (NIST)</tspan></text>
<g>
	<g>
		<polyline class="st13" points="135,60 153,60 153,175.4 		"/>
		<g>
			<circle class="st2" cx="153" cy="175.2" r="3.8"/>
		</g>
	</g>
</g>
<g>
	<g>
		<line class="st14" x1="250.5" y1="80.5" x2="391.5" y2="80.5"/>
		<g>
			<circle class="st5" cx="250.5" cy="80.5" r="3.8"/>
		</g>
	</g>
</g>
<g>
	<g>
		<line class="st14" x1="272" y1="221.5" x2="391.5" y2="221.5"/>
		<g>
			<circle class="st5" cx="272" cy="221.5" r="3.8"/>
		</g>
	</g>
</g>
<g>
	<g>
		<line class="st14" x1="324" y1="148.5" x2="391.5" y2="148.5"/>
		<g>
			<circle class="st5" cx="324" cy="148.5" r="3.8"/>
		</g>
	</g>
</g>
</svg>
