<svg xmlns="http://www.w3.org/2000/svg" width="90" height="90" viewBox="0 0 90 90">
  <g id="Group_4507" data-name="Group 4507" transform="translate(-831 -841)">
    <circle id="Ellipse_683" data-name="Ellipse 683" cx="45" cy="45" r="45" transform="translate(831 841)" fill="#fff"/>
    <g id="Group_4234" data-name="Group 4234" transform="translate(606.75 607.11)">
      <path id="Path_9820" data-name="Path 9820" d="M269.25,233.89a45,45,0,1,0,45,45A45,45,0,0,0,269.25,233.89Zm0,87.127a42.128,42.128,0,1,1,42.128-42.128A42.128,42.128,0,0,1,269.25,321.017Z" transform="translate(0 0)" fill="#afafaf" fill-rule="evenodd"/>
      <path id="Path_9821" data-name="Path 9821" d="M256.284,306.941c.037.28.086.559.109.84a13.775,13.775,0,0,1,.1,1.632,4.178,4.178,0,0,1-1.2,2.567,2.508,2.508,0,0,1-.609-1.366c-.042-.316.016-.647-.039-.959a2.494,2.494,0,0,0-.286-.614l-1.268.573a5.444,5.444,0,0,1-.067-.9,5.063,5.063,0,0,1,.222-1.024.464.464,0,0,0-.026-.433c-.248-.41-.242-.412-.721-.327-.4.071-.793.138-1.26.22a4.562,4.562,0,0,1,1.049-1.72,6.3,6.3,0,0,1-2.327-.313,4.443,4.443,0,0,1,1.735-.928c-.081-.395-.085-.4-.439-.394a4.03,4.03,0,0,1-2.63-1.086,5.127,5.127,0,0,1,2.333-.453,3.768,3.768,0,0,1-2.692-1.688,4.525,4.525,0,0,1,2.254-.076c-.044-.193-.072-.359-.124-.516-.015-.045-.1-.081-.158-.095-.189-.042-.383-.066-.572-.109a2.214,2.214,0,0,1-1.565-1.2c-.157-.311-.284-.637-.448-1.007a4.436,4.436,0,0,1,2.4.584c-.044-.375-.079-.706-.125-1.036-.006-.042-.059-.085-.1-.111a2.833,2.833,0,0,1-1.273-2.284c-.055-.476-.121-.949-.181-1.424a1.02,1.02,0,0,1,0-.107l1.382.9c.017-.358.036-.69.048-1.022a26.372,26.372,0,0,1,.993-6.188.276.276,0,0,1,.337-.244,8.825,8.825,0,0,0,2.45-.239,5.11,5.11,0,0,0-1.922,2.971,5.626,5.626,0,0,0,3.454-.8,6.408,6.408,0,0,0-1.288,3.052,6.122,6.122,0,0,0,3.159-1.23,9.915,9.915,0,0,0-1.1,3,5.524,5.524,0,0,0,3.064-1.371,6.872,6.872,0,0,0-.685,3.2,4.952,4.952,0,0,0,2.713-1.266,7.679,7.679,0,0,0-.37,3.174,4.466,4.466,0,0,0,2.521-1.909,5.783,5.783,0,0,0-.147,2.888,3.409,3.409,0,0,0,2-1.638,5.116,5.116,0,0,0-.043,2.708l1.185-.572c.026.26.034.541.086.814q.149.789.344,1.568a.324.324,0,0,1-.069.335,5.471,5.471,0,0,1-1.7,1.271c-.078.042-.153.088-.268.155l.843.4c-.463.431-1.141.512-1.6.987l.8.337a1.545,1.545,0,0,1-.149.109,5.355,5.355,0,0,1-3.064.78,2.508,2.508,0,0,0-1.1.123c-.323.127-.623.281-.653.672-.392.1-.935-.109-1.036.487a.9.9,0,0,0,.694,1.018c-.176.374.067.608.3.836a.462.462,0,0,0,.649.09c-.012.347.054.456.357.579a2.34,2.34,0,0,0,.426.136c.33.065.51-.009.637-.239a.766.766,0,0,0-.064-.886c-.025.19-.035.372-.075.547a.317.317,0,0,1-.433.265c-.636-.13-.7-.272-.4-.961-.155.1-.261.154-.36.223-.289.2-.418.174-.66-.158-.193-.265-.167-.419.105-.618a.383.383,0,0,0,.146-.161c-.108.022-.217.042-.325.066a.517.517,0,0,1-.647-.644c.025-.093.165-.185.272-.223.286-.1.382-.053.532.2a.5.5,0,0,0,.419.274,1.936,1.936,0,0,1-.15-.352c-.106-.509.212-.848.829-.877.329-.016.659,0,.989,0s.641,0,.961-.006a.3.3,0,0,1,.3.227,4.091,4.091,0,0,0,.209.5.417.417,0,0,0,.543.234c.758-.226,1.512-.466,2.267-.7l.135-.046c-.058.3-.111.569-.17.875a2.707,2.707,0,0,0,.976-.421c.306-.183.615-.363.922-.544l.047.043-.231.82a5.478,5.478,0,0,0,.536-.2,11.013,11.013,0,0,0,1.093-.573,1.586,1.586,0,0,1,1.681,0,7.766,7.766,0,0,0-1.612,3.1l1.247-.234a7.117,7.117,0,0,0-.328,2.068,4.334,4.334,0,0,0,1.324-.545,8.314,8.314,0,0,0,.158,2.256l1.411-1.04a8.382,8.382,0,0,0,.628,2.209l1.143-1.248a6.3,6.3,0,0,0,1.091,2,8.317,8.317,0,0,0,1.093-2.089l1.2,1.338a7.826,7.826,0,0,0,.628-2.214l1.418,1.045a7.206,7.206,0,0,0,.14-2.232l1.339.572a7.691,7.691,0,0,0-.325-2.123l1.225.236a5.013,5.013,0,0,0-.592-1.639c-.283-.491-.613-.954-.933-1.445.317-.1.654-.211,1-.306a.389.389,0,0,1,.236.048c.44.205.876.421,1.315.628.28.131.565.254.9.406-.094-.33-.167-.583-.249-.875.709.232,1.211.82,1.957.947-.059-.3-.113-.58-.175-.9.843.242,1.665.469,2.48.72.311.1.507.037.631-.268.053-.131.081-.273.136-.4.137-.323.277-.38.539-.373.374.011.748-.025,1.123-.022a2.16,2.16,0,0,1,.551.074.665.665,0,0,1,.383,1.1.439.439,0,0,0,.457-.319c.088-.2.176-.237.443-.145.175.06.3.15.248.38-.107.481-.266.585-.745.453a.489.489,0,0,0-.265-.01c.074.059.15.114.221.177a.324.324,0,0,1,.069.508,1.832,1.832,0,0,1-.155.192.323.323,0,0,1-.494.05l-.318-.22c.013.23.1.491.014.654-.076.14-.352.191-.549.239-.314.076-.388-.067-.45-.808l-.059-.024a1.765,1.765,0,0,0-.126.362c-.074.618.268.913.862.755.072-.019.143-.043.214-.067.268-.09.482-.222.43-.56a.79.79,0,0,0,.986-.951c.443-.06.616-.265.716-.854.061-.356-.164-.5-.493-.579l7.62-6.009c.021.169.038.3.064.5l1.355-1.8-.039-.051-2.061.907.488.168-7.873,6.218a.592.592,0,0,1,.007-.711q2.25-4.534,4.487-9.074c.036-.073.075-.145.128-.248l.26.439.462-2.218-.052-.028-1.483,1.715.512-.061c-1.595,3.232-3.171,6.426-4.753,9.63a2.916,2.916,0,0,0-.474-.155,4.94,4.94,0,0,0-.8-.059,5.228,5.228,0,0,1-2.805-.529c-.089-.051-.172-.113-.258-.171l.805-.333c-.434-.484-1.112-.556-1.6-1l.858-.316a.613.613,0,0,0-.095-.069,5.307,5.307,0,0,1-1.9-1.475.307.307,0,0,1-.054-.251,8.578,8.578,0,0,0,.416-2.513,2.9,2.9,0,0,0,1.285.672,5.037,5.037,0,0,0-.066-2.628,3.466,3.466,0,0,0,2.033,1.522,5.706,5.706,0,0,0-.232-2.853,4.623,4.623,0,0,0,2.578,1.8,6.676,6.676,0,0,0-.439-3.044,12.191,12.191,0,0,0,1.247.785,13.253,13.253,0,0,0,1.467.515,6.817,6.817,0,0,0-.69-3.29,5.12,5.12,0,0,0,2.915,1.52,5.072,5.072,0,0,0-.806-2.982,4.423,4.423,0,0,0,2.98,1.088A4.666,4.666,0,0,0,297.5,288.6a5.325,5.325,0,0,0,1.7.619,4.42,4.42,0,0,0,1.782-.006,4.21,4.21,0,0,0-2.174-2.944c.492.1.917.207,1.349.264s.879.07,1.319.09c.122.006.183.03.22.16a26.526,26.526,0,0,1,.85,4.147,25.825,25.825,0,0,1,.184,4.125c0,.051.006.1.015.227l.966-1.042-.479-.09,1.76-1.112.028.025-1,1.838c-.039-.172-.067-.3-.1-.452a1.3,1.3,0,0,0-.142.114c-.323.354-.647.709-.964,1.069a.454.454,0,0,0-.115.233c-.05.506-.087,1.013-.133,1.585l.988-.827-.47-.148,1.889-.868.028.031-1.218,1.664c-.025-.171-.043-.294-.067-.458a5.025,5.025,0,0,1-.465.371,1.71,1.71,0,0,0-.9,1.557,2.944,2.944,0,0,1-.078.462l.81-.51-.449-.215,1.977-.606.023.04-1.431,1.5c.01-.174.018-.31.03-.505-.362.232-.691.421-.992.647-.08.06-.09.229-.111.352a.36.36,0,0,1-.283.321c-.527.164-1.046.35-1.638.551l.459.2c-1.8,1.26-3.7,2.332-5.423,3.662l.028.055.2-.09a19.529,19.529,0,0,0,2.744-1.616c.819-.54,1.643-1.074,2.464-1.609.055-.036.113-.066.187-.109v.5l1.088-1.2-.136.587,1.094-.6-.452-.218,1.965-.591.032.044-1.412,1.466v-.479l-.551.3c-.217.12-.435.236-.647.364-.065.039-.146.1-.157.169-.035.193-.16.242-.325.275a13.494,13.494,0,0,0-1.42.345l.391.227c-1.136.57-2.247,1.12-3.352,1.681s-2.216,1.069-3.306,1.688l.18.238,6.619-3.311-.06.515,1.014-.88c-.065.211-.111.364-.176.574.344-.142.635-.262.962-.4l-.419-.245,2-.418.028.049-1.551,1.344c.021-.185.036-.313.056-.489-.419.183-.8.34-1.176.525-.079.04-.113.184-.152.287a26.588,26.588,0,0,1-16.41,15.676,26.694,26.694,0,0,1-9.889,1.3,26.436,26.436,0,0,1-17.774-8.336c-.232-.246-.452-.5-.677-.752-.019-.022-.033-.049.008-.052a11.275,11.275,0,0,0,.593-1.192,2.964,2.964,0,0,0-.083-1.81c-.127-.477-.245-.954-.375-1.43-.013-.049-.08-.083-.121-.124-.025.011-.06.016-.076.035a4.9,4.9,0,0,0-1.178,3.525,1.851,1.851,0,0,0,.084.335,13.245,13.245,0,0,1,1.151-3.8A.33.33,0,0,0,256.284,306.941Zm2.07-5.935a6.7,6.7,0,0,0-1.248,3.088,4.36,4.36,0,0,0,2.135-4.11,4.552,4.552,0,0,0-2.094,1.411v-2.3a3.97,3.97,0,0,0-1.282,1.518,3.415,3.415,0,0,0-.164,2.83,2.036,2.036,0,0,0-.214.044.537.537,0,1,0,.64.767c.2-.331.4-.656.613-1l.155.523c.141-.5.253-1.026.438-1.524A2.713,2.713,0,0,1,258.354,301.006Zm-6.283-.844c.286-.245.591-.5.886-.762a2.718,2.718,0,0,0,.976-2.063,5.774,5.774,0,0,0-.176-1.5C252.005,296.523,251.219,298.858,252.071,300.163Zm1.381,1.263c-.353.108-.5.289-.452.541.048.267.26.379.654.342.051.113.1.23.157.342s.126.215.19.323a4.879,4.879,0,0,1,.32-3.434c-.011.3-.049.608-.08.911s-.059.625-.077.939-.037.613-.031.919.046.608.073.936c.241-.383.444-.731.673-1.06a2.819,2.819,0,0,0,.472-2.28,5.985,5.985,0,0,0-.567-1.57A3.512,3.512,0,0,0,253.452,301.426Zm12.541,11.69c-.015-1.506-2.332-5.047-3.716-5.616-.062.149-.126.3-.185.448a.228.228,0,0,0,.09.289,7.232,7.232,0,0,1,2.694,4.468.2.2,0,0,0,.111.137C265.319,312.94,265.655,313.025,265.993,313.116ZM301.361,297.1l1.056-2-.044-.041-1.839,1.188.018.056.431.064c-.074.085-.121.142-.17.2q-3.752,4.1-7.5,8.211a3.52,3.52,0,0,0-.32.49l.066.054a8.44,8.44,0,0,0,.827-.7q3.471-3.767,6.923-7.552c.136-.147.27-.294.427-.466Zm-50.22-.284c1.02-.712,1.528-3.277.844-4.171a3.43,3.43,0,0,0-1.61,1.878.315.315,0,0,0,.066.232,3.2,3.2,0,0,1,.6,1.29C251.092,296.293,251.108,296.545,251.141,296.818Zm50.028-2.445c-.071.093-.114.154-.16.212-1.355,1.716-2.723,3.421-4.06,5.152-.612.792-1.161,1.633-1.737,2.454a.994.994,0,0,0-.066.128l.056.04c2.163-2.521,4.129-5.2,6.244-7.788.054.164.1.293.16.487l.9-2.075-.049-.035-1.746,1.324.025.051Zm-12.745,20.371c.059-.112.1-.175.127-.24.357-.732.71-1.467,1.076-2.2a.567.567,0,0,0,.03-.467.528.528,0,0,1,.013-.352c.3-.651.62-1.295.932-1.941.037-.079.07-.16.109-.251l-.274-.152c-.361.749-.707,1.477-1.069,2.2a.547.547,0,0,1-.267.232.6.6,0,0,0-.339.3c-.369.726-.751,1.447-1.128,2.17-.035.068-.066.139-.119.253l.66-.188Zm12.854-16.518c.027.153.051.291.088.5l1.21-1.912-.05-.04-1.976,1.072.484.121c-1.839,1.814-3.851,3.414-5.525,5.365C297.567,301.8,299.331,299.926,301.278,298.226ZM284.2,312.473c.056-.046.12-.1.181-.148.437-.377.875-.753,1.309-1.132.158-.139.3-.289.547-.242.059.011.138-.047.2-.088.858-.6,1.727-1.19,2.567-1.818a7.444,7.444,0,0,0,.82-.834l-.037-.042c-.062.036-.126.071-.186.11-.981.647-1.964,1.291-2.94,1.946a.622.622,0,0,1-.558.128.406.406,0,0,0-.287.052c-.716.437-1.426.883-2.137,1.328-.061.038-.12.082-.222.152a1.477,1.477,0,0,1,.525.14C284.091,312.115,284.123,312.308,284.2,312.473Zm14.638-16.516-.054-.03-1.633,1.468.037.054.438-.021c-.047.077-.075.128-.107.176-.577.875-1.143,1.758-1.733,2.624a21.917,21.917,0,0,0-1.952,3.376c-.032.071-.061.143-.091.215l.047.025,4.115-6.224.2.481Zm-8.712,12.316c-.431.469-.848.908-1.247,1.363a.741.741,0,0,1-.6.317.37.37,0,0,0-.222.123q-.943.932-1.878,1.872c-.044.044-.079.1-.177.218.469-.14.724-.022.765.441.059-.07.107-.124.151-.181q.682-.893,1.361-1.787c.136-.179.251-.372.517-.38.058,0,.121-.08.168-.135.347-.4.677-.822,1.04-1.21A.561.561,0,0,0,290.123,308.273Zm-.585-.3-.031-.037c-.073.035-.148.069-.22.106-.9.447-1.8.892-2.69,1.344a.534.534,0,0,1-.423.039.623.623,0,0,0-.4.025c-.709.32-1.409.659-2.112.992-.111.053-.219.112-.375.193a2.1,2.1,0,0,1,.454.183,1.838,1.838,0,0,1,.287.354c.035-.02.1-.051.161-.09.566-.366,1.134-.728,1.694-1.1a.556.556,0,0,1,.518-.124.359.359,0,0,0,.243-.076q1.13-.691,2.255-1.393C289.115,308.256,289.326,308.115,289.538,307.978ZM249.1,294.251a20.74,20.74,0,0,1,1.776,2.929c-.27.247-.33.457-.205.678a.483.483,0,0,0,.539.227.5.5,0,0,0,.349-.472c-.007-.259-.159-.383-.606-.491A4.14,4.14,0,0,0,249.1,294.251Zm2.888,12.035.026.055.193-.1a9.87,9.87,0,0,1,2.263-.846c.144-.033.272-.068.38.112a.435.435,0,0,0,.58.134.5.5,0,0,0,.27-.52.48.48,0,0,0-.455-.395.465.465,0,0,0-.493.34c-.019.063-.035.127-.053.195A3.652,3.652,0,0,0,251.986,306.286Zm-3.414-8.2a13.328,13.328,0,0,1,2.44,1.637l-.107.1a.355.355,0,0,0-.075.45.346.346,0,0,0,.394.193.352.352,0,0,0,.306-.339.38.38,0,0,0-.247-.388.727.727,0,0,1-.236-.185,4.007,4.007,0,0,0-1.472-1.221A2.331,2.331,0,0,0,248.572,298.088Zm9.039,7.34a.554.554,0,1,0-.568-.541A.551.551,0,0,0,257.612,305.429Zm-.2,1.661a.544.544,0,0,0,.557-.549.556.556,0,1,0-.557.549Zm-3.554-2.658a2.022,2.022,0,0,0,.062.276.376.376,0,1,0,.69-.3.344.344,0,0,0-.5-.172.778.778,0,0,1-.63.125,4.856,4.856,0,0,0-2.316.414c-.071.031-.137.073-.239.128Zm-1.63-2.551c-1.191-.774-1.961-1.081-2.514-.932.088.031.157.052.222.08.666.283,1.331.566,2,.854a.306.306,0,0,1,.217.34.37.37,0,0,0,.733.054.334.334,0,0,0-.236-.424A1.465,1.465,0,0,0,252.23,301.88Zm1.658,1.815a.536.536,0,1,0-.532.551A.547.547,0,0,0,253.888,303.7Zm-1.1-2.751a.546.546,0,0,0-.511-.524.523.523,0,1,0,0,1.046A.54.54,0,0,0,252.784,300.944Zm2.666,5.183a3.919,3.919,0,0,0-1.9,2.54Zm3.807-.532a.458.458,0,0,0-.452-.438.447.447,0,0,0-.435.428.451.451,0,0,0,.437.451A.459.459,0,0,0,259.257,305.594Zm-2.769-.5a.41.41,0,1,0,.405.393A.409.409,0,0,0,256.487,305.1Zm34.935,2.464a.769.769,0,0,0,.6-.763.214.214,0,0,0-.078-.125.509.509,0,0,0-.6-.008C291.377,306.981,291.4,307.272,291.423,307.562Zm-30.47-.72a.518.518,0,0,0-.6.019c-.17.164-.011.33.025.493a.305.305,0,0,0,.049.1.561.561,0,0,0,.445.294C260.9,307.44,260.925,307.156,260.953,306.842Zm-8.059-3.736a3.109,3.109,0,0,0-2.207-.4Zm8.391,4.3-.5.747c.179.035.354.08.532.1.04,0,.134-.092.128-.128C261.406,307.883,261.344,307.651,261.285,307.4Zm30.208.532c-.157-.241-.3-.464-.461-.709-.044.155-.1.3-.125.45a2.471,2.471,0,0,0-.016.362,3.448,3.448,0,0,0,.41-.011A.649.649,0,0,0,291.493,307.933Zm-30.332-.973a.481.481,0,0,0,.5-.018c.082-.066.091-.234.112-.359.007-.04-.043-.107-.085-.131-.02-.013-.089.036-.122.071C261.431,306.665,261.3,306.814,261.161,306.96Zm29.986-.178c-.143-.154-.274-.292-.4-.433-.061-.066-.128-.162-.2-.023a.332.332,0,0,0,.311.495A1.792,1.792,0,0,0,291.148,306.783Z" transform="translate(-6.885 -15.406)" fill="#2b5283" fill-rule="evenodd"/>
      <path id="Path_9822" data-name="Path 9822" d="M297.42,264.643c-.6.374-1.2.7-1.75,1.1a3.388,3.388,0,0,0-1.525,2.367,7.144,7.144,0,0,0,.043,1.585,23.361,23.361,0,0,1,.292,3.124,4.175,4.175,0,0,1-2.848,3.749,1.709,1.709,0,0,1-.7-.036c-1.292-.174-2.584-.358-3.877-.532-.3-.042-.611-.054-.913-.1a.24.24,0,0,1-.155-.156c-.107-.679-.2-1.362-.3-2.041-.138-.9-.286-1.8-.432-2.708a2.162,2.162,0,0,0,1.927-1.024,2.935,2.935,0,0,1-2.67-.8,2.705,2.705,0,0,0-1.966-.846,7.9,7.9,0,0,0-2.338.215,1.814,1.814,0,0,0-.354.137.459.459,0,0,0-.3.588,10.051,10.051,0,0,0-1.132.345,1.4,1.4,0,0,0-.479,2.189c.007.008.027.007.041.01.195-.541.406-.668,1.014-.7a2.028,2.028,0,0,1,2.022,1.374,1.2,1.2,0,0,1-.311,1.3c-.229.225-.488.42-.728.634a3.816,3.816,0,0,0-1.055,1.352.284.284,0,0,1-.2.136c-1,.114-2,.21-3,.328-.518.061-1.031.161-1.547.241a.7.7,0,0,1-.265.011,5.529,5.529,0,0,1-4.037-3.4,4.349,4.349,0,0,1,0-2.8,18.68,18.68,0,0,0,.467-1.89,4.219,4.219,0,0,0-1.587-4.233c-.076-.06-.148-.126-.221-.19a.349.349,0,0,1-.027-.047,26.536,26.536,0,0,1,28.913.726Z" transform="translate(-13.017 -7.676)" fill="#2b5283" fill-rule="evenodd"/>
      <path id="Path_9823" data-name="Path 9823" d="M300.8,274.8l1.423-.4a31.6,31.6,0,1,1-53.979-.724l1.361.527a29.914,29.914,0,0,0-3.767,23.774,29.243,29.243,0,0,0,10.579,16.194,30.059,30.059,0,0,0,36.676.4,29.378,29.378,0,0,0,11.513-18.4A29.791,29.791,0,0,0,300.8,274.8Z" transform="translate(-5.635 -11.701)" fill="#9e2935" fill-rule="evenodd"/>
      <path id="Path_9824" data-name="Path 9824" d="M293.753,291.3a47.033,47.033,0,0,0-19.57,0c-.02-.292-.044-.565-.056-.84q-.1-2.076-.193-4.153c-.026-.568-.049-1.137-.085-1.706-.01-.161.044-.227.2-.252,1.349-.224,2.694-.479,4.048-.673a40.225,40.225,0,0,1,6.9-.4c1.076.032,2.156.1,3.226.219,1.53.174,3.052.411,4.576.63.362.052.717.151,1.077.216.152.028.211.087.2.251-.079,1.646-.151,3.293-.225,4.939-.019.426-.038.853-.06,1.279C293.784,290.969,293.767,291.124,293.753,291.3Zm-3.518-4.46c-.03-.163-.058-.308-.085-.455l-.055-.043c-.042.457-.306.51-.665.436l.354.316-.214.428.032.03.426-.25a2.283,2.283,0,0,1,.153.179c.047.067.083.142.124.212l.111-.04c-.21-.382-.089-.617.274-.752Zm-3.2-.352c.008.037.193.812.2.827l.392-.258.353.32.034-.03-.111-.457.394-.228c-.163-.063-.354-.032-.443-.112s-.092-.28-.131-.426C287.62,286.486,287.419,286.656,287.031,286.487Zm4.616-1.792-.064.031c-.075.133-.119.327-.233.384s-.288-.03-.437-.054l-.03.05.361.294-.235.443a.551.551,0,0,0,.269-.106c.126-.1.22-.092.314.045a1.587,1.587,0,0,0,.2.2l.072,0c-.251-.4-.046-.592.33-.737C291.743,285.31,291.594,285.1,291.648,284.695Zm-9.923.2.372-.289a.557.557,0,0,0-.3-.013c-.134.029-.211-.008-.244-.149a2.392,2.392,0,0,0-.109-.292l-.076-.033c.083.467-.178.558-.587.521.183.131.365.2.4.308s-.049.294-.092.491a1.633,1.633,0,0,0,.2-.17c.128-.161.254-.182.405-.028a1.013,1.013,0,0,0,.184.122l.028-.038C281.849,285.185,281.791,285.048,281.724,284.892Zm-5.473,2.179a1.019,1.019,0,0,0-.234.024c-.215.089-.333.012-.391-.2a1.152,1.152,0,0,0-.121-.212c-.03.206-.054.359-.076.513l-.517.086.481.238c-.028.162-.055.313-.082.464l.033.062c.188-.369.436-.441.755-.169-.064-.179-.185-.323-.164-.443S276.116,287.217,276.252,287.072Zm7.321-1.741.412-.31.372.29.035-.025-.15-.456.375-.273.018-.076c-.442.167-.594-.064-.664-.448-.015.448-.258.558-.641.493.138.123.32.191.356.3S283.627,285.118,283.572,285.33Zm7.277,4.583a1.591,1.591,0,0,0,.225-.127.2.2,0,0,1,.332.049,2.179,2.179,0,0,0,.213.229c-.02-.218-.09-.4-.031-.517s.246-.156.416-.251l-.508-.078-.084-.522-.234.475-.455-.072-.068.039C291.079,289.333,291.048,289.6,290.849,289.913Zm-13.07-2.767c-.032.166-.061.308-.093.473a7.632,7.632,0,0,1,.816-.108,1.771,1.771,0,0,0-.123-.246.2.2,0,0,1,.06-.33,2.3,2.3,0,0,0,.236-.212c-.219.016-.4.085-.517.023s-.137-.254-.209-.407a.9.9,0,0,1-.6.575Zm3.06.157.033-.037-.188-.428.409-.342c-.217.014-.4.081-.5.017s-.142-.261-.229-.443l-.122.5-.461.021a.516.516,0,0,0,.224.181c.143.059.194.142.126.3a2.314,2.314,0,0,0-.084.343l.4-.369Zm-3.919-1.4.032-.076-.248-.45.356-.294-.025-.04-.45.083-.2-.415-.074-.019c.083.438-.132.577-.538.568.422.11.539.342.364.743C276.369,285.682,276.608,285.547,276.92,285.908Zm9.606,2.3c-.054.433-.308.519-.7.454.459.17.373.461.253.774l.385-.265.4.345c-.044-.2-.139-.375-.093-.494s.232-.189.356-.28l.013-.064C286.723,288.792,286.552,288.615,286.526,288.207Zm6.613-.9c-.446.032-.591-.187-.6-.56l-.21.415-.457-.091-.02.042.344.3-.274.508.479-.251.313.349h.067C292.608,287.643,292.706,287.408,293.139,287.31Zm-4.023-2.966-.069.034-.184.428-.481-.061a2.963,2.963,0,0,1,.174.82l.407-.253.39.364c-.037-.208-.124-.385-.074-.5s.238-.17.366-.251C289.249,284.947,289.07,284.766,289.116,284.344Zm.024,4.874.405-.232.024-.072c-.454.114-.591-.112-.565-.553a1.655,1.655,0,0,0-.1.156c-.149.332-.148.332-.489.307-.039,0-.078,0-.117.006.376.191.335.449.156.738,0,0,.015.021.03.04l.385-.232.341.325.037-.019C289.21,289.534,289.177,289.385,289.14,289.218Zm-6.306-2.311.19.139.187.133.068-.01c-.254-.334-.18-.577.195-.759-.41.085-.623-.058-.654-.466a.58.58,0,0,0-.089.227c-.02.21-.116.308-.337.263a1.011,1.011,0,0,0-.2,0l-.051.062c.454.1.442.362.3.673,0,0,.013.019.031.043Zm-6.361,3.078.09.036.275-.378.441.237.025-.038-.228-.437.366-.3,0-.078c-.4.224-.6.053-.692-.354a5.056,5.056,0,0,1-.618.623C276.54,289.392,276.67,289.611,276.473,289.985Zm8.1-3.577c.479.167.4.446.246.745,0,0,.016.019.032.037l.374-.278.368.3c-.006-.161-.114-.323-.075-.433s.22-.195.337-.291c.007-.006,0-.025,0-.068-.39.119-.559-.071-.59-.476C285.195,286.328,285.02,286.525,284.577,286.409Zm-4.748,2.394c-.153.008-.342.075-.45.009s-.136-.263-.2-.4c-.018.388-.2.57-.634.541.466.111.476.387.365.736l.352-.333.4.248.062-.011C279.457,289.268,279.487,289.009,279.829,288.8Zm1.791-.573-.062-.024c.039.431-.172.568-.565.5.139.121.323.188.366.306s-.051.292-.1.5l.4-.349.392.258.03-.035c-.057-.142-.115-.283-.176-.431.076-.057.143-.1.206-.155s.111-.1.178-.153c-.186,0-.371.054-.472-.015S281.681,288.368,281.62,288.229Zm1.777.38.413.3-.152.447.036.064c.25-.375.5-.334.8-.013-.27-.386-.141-.621.242-.82-.493.189-.59-.109-.657-.513-.078.222-.09.417-.192.5S283.594,288.6,283.4,288.61Zm-4.488-4.235-.071-.029c.049.421-.132.6-.558.553.413.135.505.376.294.744h.065l.352-.331.412.251a1.274,1.274,0,0,1,.166-.817l-.484.053Zm6.944.212.38.311-.2.488c.18-.109.316-.26.44-.251s.25.174.374.27a.483.483,0,0,1,.308-.755c-.457.091-.591-.138-.584-.532A1.213,1.213,0,0,1,285.853,284.588Z" transform="translate(-14.587 -14.521)" fill="#2b5283" fill-rule="evenodd"/>
      <path id="Path_9825" data-name="Path 9825" d="M250.87,262.064a2.564,2.564,0,0,1-1.4-2.921.245.245,0,0,1,.076.025,11.543,11.543,0,0,0,3.214,1.813c1.623.63,3.271,1.194,4.9,1.8a11.157,11.157,0,0,1,4.279,2.605,2.962,2.962,0,0,1,.968,1.753,4.54,4.54,0,0,1-.284,1.914,14.832,14.832,0,0,0-.562,2.048,4.7,4.7,0,0,0,.973,3.778,8.39,8.39,0,0,0,2.6,2.249.4.4,0,0,1,.192.26c.058,1.151.1,2.3.149,3.455a.29.29,0,0,1-.208.339c-.335.123-.665.259-1.016.4a4.024,4.024,0,0,1-.176-2.423,7.074,7.074,0,0,1-3.085.772,6.027,6.027,0,0,1,1.09-2.923,9.6,9.6,0,0,1-3.156-.063c.181-.361.33-.717.531-1.041s.458-.625.684-.927c-.586-.084-1.2-.135-1.8-.267s-1.169-.342-1.787-.529a6.372,6.372,0,0,1,2.15-2.087,18.868,18.868,0,0,1-3.809-.718,7.315,7.315,0,0,1,1.736-1.811,13.077,13.077,0,0,1-3.922-1.04l1.193-1.356a8.162,8.162,0,0,1-3.665-.882,5.491,5.491,0,0,1,1.326-1.482c-.343-.084-.673-.141-.986-.248a5.3,5.3,0,0,1-2.032-1.285c-.112-.111-.1-.188,0-.3a2.983,2.983,0,0,1,1.638-.867Z" transform="translate(-7.269 -7.427)" fill="#2b5283" fill-rule="evenodd"/>
      <path id="Path_9826" data-name="Path 9826" d="M316.26,269.431a13.3,13.3,0,0,1-3.921,1.037,7.984,7.984,0,0,1,1.782,1.813,18.3,18.3,0,0,1-3.857.712,6.426,6.426,0,0,1,2.118,2.053,9.116,9.116,0,0,1-3.635.788,5.269,5.269,0,0,1,1.26,2.024,9.25,9.25,0,0,1-3.115.047,6.059,6.059,0,0,1,1.079,2.927,7.016,7.016,0,0,1-3.078-.767,4.205,4.205,0,0,1-.178,2.429c-.448-.192-.885-.373-1.315-.572-.044-.02-.063-.14-.06-.213.04-1.04.083-2.079.138-3.119a.368.368,0,0,1,.162-.252,7.636,7.636,0,0,0,1.7-1.357,3.952,3.952,0,0,0,1.018-2.276,12.594,12.594,0,0,0-.112-2.91c-.057-.536-.125-1.071-.152-1.609a2.48,2.48,0,0,1,.978-2.118,12.509,12.509,0,0,1,4.157-2.309c1.778-.572,3.567-1.11,5.351-1.665a12.007,12.007,0,0,0,3.273-1.439c.183-.125.357-.263.568-.417a2.775,2.775,0,0,1-.807,2.314,5.077,5.077,0,0,1-1.99,1.046l-.251.083a5.669,5.669,0,0,1,1.36,1.506,9.832,9.832,0,0,1-3.683.866Z" transform="translate(-23.262 -8.338)" fill="#2b5283" fill-rule="evenodd"/>
      <path id="Path_9827" data-name="Path 9827" d="M301.156,260.6c-.6.161-1.126.311-1.661.44-.07.017-.176-.061-.247-.118a30.088,30.088,0,0,0-14.079-6.356,30.154,30.154,0,0,0-22.28,5.072.369.369,0,0,1-.427.04c-.222-.107-.457-.185-.688-.272s-.445-.168-.716-.269a31.722,31.722,0,0,1,40.1,1.463Z" transform="translate(-10.826 -5.532)" fill="#9e2935" fill-rule="evenodd"/>
      <path id="Path_9828" data-name="Path 9828" d="M276.237,302.454a.348.348,0,0,1-.035-.017c-.322-.293-.449-.274-.688.121-.118.2-.222.4-.332.6l-.08,0a9.646,9.646,0,0,1-.272-1.229c-.1-1.1-.168-2.206-.239-3.31-.073-1.127-.138-2.253-.208-3.412.381-.077.75-.164,1.122-.224.943-.153,1.886-.313,2.833-.435.822-.106,1.649-.181,2.476-.24.91-.065,1.823-.092,2.734-.14.166-.009.238.028.238.219-.007,2.09,0,4.18,0,6.27,0,.042-.005.085-.008.128l-.075.063a1.433,1.433,0,0,1-.166-.251.7.7,0,0,0-.446-.38.4.4,0,0,1-.275-.3,1.3,1.3,0,0,0-.92-1.006,2.668,2.668,0,0,1-.8-.64c-.166-.16-.28-.172-.406.022a1.11,1.11,0,0,1-.877.5.479.479,0,0,0-.381.272,6.447,6.447,0,0,1-.382.552,3.049,3.049,0,0,1-1.177.908.758.758,0,0,0-.282.271c-.161.242-.3.5-.45.75A2.6,2.6,0,0,1,276.237,302.454Z" transform="translate(-14.745 -17.73)" fill="#2973a2" fill-rule="evenodd"/>
      <path id="Path_9829" data-name="Path 9829" d="M284.2,312.227a5.629,5.629,0,0,0-2.423-1.128c-1.053-.335-2.114-.649-3.164-.992a4.7,4.7,0,0,1-2.729-2.24c-.025-.045-.049-.092-.07-.14a.536.536,0,0,1-.021-.089c.087,0,.166-.013.245-.013,2.63,0,5.26,0,7.89,0,.214,0,.28.055.277.275-.01,1.357,0,2.713,0,4.069Z" transform="translate(-15.158 -21.686)" fill="#639130" fill-rule="evenodd"/>
      <path id="Path_9830" data-name="Path 9830" d="M288.684,299.38c.378.1.726.213,1.081.291a2.163,2.163,0,0,0,1.492-.272c.292-.152.573-.323.859-.487a1.6,1.6,0,0,1,1.8.032,3.854,3.854,0,0,0,1.422.64,2.529,2.529,0,0,0,2.077-.481c.17-.131.34-.264.548-.426-.03.551-.058,1.053-.088,1.556-.015.254-.026.509-.054.762a.309.309,0,0,1-.115.191c-.3.213-.616.4-.9.625a1.5,1.5,0,0,1-1.643.2,6.944,6.944,0,0,1-.743-.417,2.6,2.6,0,0,0-2.652-.1c-.3.152-.594.317-.88.495a1.514,1.514,0,0,1-1.6.031c-.6-.31-.6-.308-.6-.972Z" transform="translate(-18.951 -19.048)" fill="#2b5283" fill-rule="evenodd"/>
      <path id="Path_9831" data-name="Path 9831" d="M288.7,304.621c.429.1.831.2,1.238.275a1.889,1.889,0,0,0,1.172-.213c.315-.155.623-.328.922-.512a1.644,1.644,0,0,1,1.933.017,3.561,3.561,0,0,0,1.52.628,2.54,2.54,0,0,0,1.94-.509l.245-.184.059.025a9.3,9.3,0,0,1-.22,1.244,13.982,13.982,0,0,1-.618,1.532.92.92,0,0,1-.736.495,1.625,1.625,0,0,1-1.11-.174c-.188-.107-.378-.212-.563-.327a2.708,2.708,0,0,0-2.953-.024q-.371.21-.738.426a1.418,1.418,0,0,1-1.415.026c-.682-.329-.683-.328-.682-1.081q0-.82,0-1.64C288.7,304.613,288.713,304.6,288.7,304.621Z" transform="translate(-18.956 -20.581)" fill="#2973a2" fill-rule="evenodd"/>
      <path id="Path_9832" data-name="Path 9832" d="M288.7,295.439c0-.352,0-.7,0-1.056,0-.148.033-.22.2-.212.865.047,1.733.07,2.6.131s1.715.127,2.565.243c1.16.159,2.313.366,3.469.553a.587.587,0,0,1,.087.018c.149.052.414.088.425.161a3.244,3.244,0,0,1-.038.776c0,.026-.07.047-.107.069a6.668,6.668,0,0,0-.966.6,1.669,1.669,0,0,1-2.09.131,6.708,6.708,0,0,0-1.206-.584,2.238,2.238,0,0,0-1.721.158,11.879,11.879,0,0,0-1.081.592,1.455,1.455,0,0,1-1.533,0c-.6-.314-.6-.313-.6-.976Z" transform="translate(-18.955 -17.73)" fill="#2973a2" fill-rule="evenodd"/>
      <path id="Path_9833" data-name="Path 9833" d="M243.513,329.588l.437.609-.274.2-1.53-2.11.263-.2.452.594,3.077-2.234-.023-.052-4.549.921,2.115-4.135-.047-.041-3.012,2.18.429.611-.27.2-1.189-1.632.268-.2.452.6,4.18-3.039c-.148-.207-.281-.394-.429-.6l.268-.2c.293.4.583.793.857,1.194.033.048,0,.167-.039.237q-.936,1.853-1.88,3.7c-.04.078-.075.157-.136.288.324-.065.6-.118.872-.175,1.148-.239,2.3-.481,3.447-.716a.232.232,0,0,1,.192.037c.328.436.646.88.976,1.333l-.268.2-.452-.6Z" transform="translate(-4.453 -25.636)" fill="#2b5283" fill-rule="evenodd"/>
      <path id="Path_9834" data-name="Path 9834" d="M303.766,249.972c-.16-1.591-.313-3.112-.465-4.633l-.06-.006-1.349,3.469.683.279-.11.318-1.889-.733.122-.308.7.251c.625-1.605,1.244-3.2,1.87-4.809l-.691-.284c.039-.1.075-.2.119-.316.457.179.9.348,1.341.534a.294.294,0,0,1,.122.21c.072.639.133,1.28.2,1.921q.119,1.184.238,2.368a.949.949,0,0,0,.049.156c.075-.069.134-.121.191-.176.945-.93,1.894-1.857,2.831-2.8a.368.368,0,0,1,.48-.108c.436.191.887.349,1.352.529l-.124.315-.7-.258c-.621,1.6-1.238,3.192-1.866,4.811l.695.284-.122.311-2.44-.947.119-.312.7.268,1.371-3.537-.056-.035Z" transform="translate(-22.449 -2.739)" fill="#2b5283" fill-rule="evenodd"/>
      <path id="Path_9835" data-name="Path 9835" d="M234.238,310.41c.053.232.1.434.145.632-.3.144-.315.138-.39-.171-.149-.61-.3-1.219-.45-1.829-.071-.29-.07-.29.26-.354.042.161.076.328.132.486.018.052.1.128.14.12.727-.169,1.451-.349,2.2-.534l-.7-2.845-1.319.315c-.261.063-.522.131-.785.187-.154.033-.22.1-.163.263.045.133.068.275.108.436l-.323.087-.585-2.382.318-.084c.061.22.118.426.181.649l5.015-1.225c-.032-.143-.057-.265-.085-.388-.066-.287-.067-.287.263-.332l.58,2.365-.32.086c-.059-.215-.114-.412-.178-.642l-2.225.539.7,2.852.949-.231c.37-.09.739-.186,1.112-.268.133-.029.181-.073.136-.212s-.076-.3-.117-.474l.33-.09.577,2.37c-.321.121-.321.121-.4-.176l-.092-.376Z" transform="translate(-2.431 -20.457)" fill="#2b5283" fill-rule="evenodd"/>
      <path id="Path_9836" data-name="Path 9836" d="M286.779,246.889h.637v.33h-2.441v-.325c.161,0,.316-.008.469,0s.215-.045.21-.2c-.008-.292,0-.584,0-.877,0-1.281,0-2.562.01-3.844,0-.205-.056-.289-.265-.265a3.866,3.866,0,0,1-.4,0V241.4a.869.869,0,0,1,.148-.024c.959.008,1.918,0,2.876.032a1.377,1.377,0,0,1,1.465,1.19,1.506,1.506,0,0,1-.9,1.806c-.094.042-.189.081-.3.128a1.176,1.176,0,0,0,.061.128c.4.617.793,1.235,1.2,1.849.217.331.223.328.834.407v.309c-.494,0-.972.016-1.448-.006-.246-.011-.382-.217-.5-.409-.431-.675-.863-1.35-1.288-2.029a.27.27,0,0,0-.364-.137Zm-.008-2.692h.544a.962.962,0,0,0,.923-.594,1.445,1.445,0,0,0,.092-.964.9.9,0,0,0-.875-.789,2.787,2.787,0,0,0-.537,0,.2.2,0,0,0-.14.14C286.769,242.713,286.771,243.438,286.771,244.2Z" transform="translate(-17.86 -2.201)" fill="#2b5283" fill-rule="evenodd"/>
      <path id="Path_9837" data-name="Path 9837" d="M328.811,331.777l-.269-.2.4-.548-4.147-3.076-.415.529-.265-.193c.076-.1.145-.2.215-.294.478-.643.949-1.292,1.438-1.926a3.123,3.123,0,0,1,.579-.591,1.292,1.292,0,0,1,1.422-.1,1.48,1.48,0,0,1,.957,1.28,6.483,6.483,0,0,1-.073.853c.228.018.477.04.725.057.531.035,1.062.059,1.591.1a.671.671,0,0,0,.721-.339.813.813,0,0,1,.1-.113l.274.207c-.3.389-.577.779-.892,1.137a.626.626,0,0,1-.438.167c-.62-.016-1.24-.064-1.861-.1-.268-.018-.536-.056-.8-.054-.093,0-.185.1-.317.169l1.861,1.391.406-.529.27.2Zm-1.382-3.265c.54-.594.657-.988.447-1.446a1.5,1.5,0,0,0-1.243-.835c-.572.036-.786.5-1.072.9Z" transform="translate(-29.371 -26.86)" fill="#2b5283" fill-rule="evenodd"/>
      <path id="Path_9838" data-name="Path 9838" d="M281.662,345.35v-.332c.272,0,.539-.008.8,0,.644.022,1.288.062,1.931.076a2.934,2.934,0,0,1,.559,5.809,3.347,3.347,0,0,1-.694.039c-.832-.019-1.663-.048-2.494-.076-.1,0-.2-.022-.3-.033-.039-.308-.033-.313.248-.308.472.008.42.083.438-.421.053-1.5.106-3,.168-4.492.008-.192-.031-.284-.239-.265C281.951,345.36,281.817,345.35,281.662,345.35Zm2.244,5.322a1.784,1.784,0,0,0,1.806-.933,2.831,2.831,0,0,0,.031-3.008,1.785,1.785,0,0,0-1.364-.959c-.245-.03-.494-.018-.74-.032-.13-.008-.148.064-.15.167,0,.277-.011.554-.021.832q-.069,1.887-.141,3.773c0,.116.035.166.152.162C283.622,350.669,283.764,350.673,283.906,350.673Z" transform="translate(-16.824 -32.684)" fill="#2b5283" fill-rule="evenodd"/>
      <path id="Path_9839" data-name="Path 9839" d="M251.977,254.013l-.548.392-.2-.266c.352-.26.692-.514,1.035-.765.416-.306.829-.618,1.253-.913a2.9,2.9,0,0,1,4.6,1.853,2.766,2.766,0,0,1-1.218,2.931c-.407.292-.81.592-1.213.891a.484.484,0,0,1-.759-.119q-.921-1.247-1.837-2.5Zm3.9,3.411c.243-.181.478-.34.695-.521a1.761,1.761,0,0,0,.624-1.52,2.77,2.77,0,0,0-.952-1.97,2.15,2.15,0,0,0-3.272.056Z" transform="translate(-7.935 -5.295)" fill="#2b5283" fill-rule="evenodd"/>
      <path id="Path_9840" data-name="Path 9840" d="M239.146,320.223a2.9,2.9,0,0,1-2.944-2.9,3.129,3.129,0,0,1,3.148-3.015,2.894,2.894,0,0,1,2.908,2.912A3.064,3.064,0,0,1,239.146,320.223Zm.8-4.868-.015.039c-.178.02-.359.027-.534.061a3.2,3.2,0,0,0-2.441,1.78,1.2,1.2,0,0,0,.825,1.79,2.967,2.967,0,0,0,2.162-.2,2.858,2.858,0,0,0,1.661-1.756,1.123,1.123,0,0,0-.671-1.454A7.659,7.659,0,0,0,239.943,315.354Z" transform="translate(-3.515 -23.653)" fill="#2b5283" fill-rule="evenodd"/>
      <path id="Path_9841" data-name="Path 9841" d="M337.969,275.535a3.071,3.071,0,0,1-3.049,3.021,2.888,2.888,0,0,1-3-2.881,3.1,3.1,0,0,1,3.119-3.032A2.9,2.9,0,0,1,337.969,275.535Zm-3.686,1.922a3.379,3.379,0,0,0,2.49-1.1,2.606,2.606,0,0,0,.419-.606,1.239,1.239,0,0,0-.887-1.909,3.225,3.225,0,0,0-2.732.611,2.578,2.578,0,0,0-.994,1.3,1.135,1.135,0,0,0,.6,1.472A2.243,2.243,0,0,0,334.283,277.457Z" transform="translate(-31.668 -11.398)" fill="#2b5283" fill-rule="evenodd"/>
      <path id="Path_9842" data-name="Path 9842" d="M275.413,349.886a3.837,3.837,0,0,1-.5-.126.356.356,0,0,1-.152-.195q-.919-2.266-1.83-4.535a.474.474,0,0,0-.144-.208l-.9,3.76.676.181c-.025.11-.046.2-.073.32l-1.916-.455.073-.336c.192.049.365.09.537.136.121.032.186.011.22-.133.336-1.417.68-2.833,1.019-4.25a.605.605,0,0,0-.47-.758c-.087-.02-.172-.045-.277-.073l.054-.294a.823.823,0,0,1,.177,0c.436.1.87.217,1.309.309a.405.405,0,0,1,.327.286c.545,1.393,1.1,2.782,1.65,4.172.029.073.059.146.089.22h.06c.286-1.191.572-2.381.863-3.593l-.675-.186c.023-.105.043-.2.07-.32l1.927.457-.083.328-.728-.161Z" transform="translate(-13.625 -32.067)" fill="#2b5283" fill-rule="evenodd"/>
      <path id="Path_9843" data-name="Path 9843" d="M321.2,253.509l.228-.251c.417.381.826.752,1.229,1.129a.208.208,0,0,1,.05.157c-.15,1.194-.306,2.388-.46,3.582-.054.414-.1.828-.156,1.242l.051.033,2.5-2.746-.512-.474.223-.251,1.465,1.332-.224.251-.592-.522a2.1,2.1,0,0,1-.157.227q-.973,1.074-1.953,2.143a.507.507,0,0,1-.212.15c-.582.164-1.166.319-1.781.485.186-1.52.37-3.013.553-4.508l-.054-.028-2.6,2.855.508.485-.226.246-1.462-1.333.224-.251.553.491c.4-.435.788-.858,1.175-1.284.627-.685,1.264-1.362,1.869-2.067a1.6,1.6,0,0,0,.211-.616c.01-.037-.051-.1-.091-.142C321.448,253.734,321.331,253.631,321.2,253.509Z" transform="translate(-27.461 -5.696)" fill="#2b5283" fill-rule="evenodd"/>
      <path id="Path_9844" data-name="Path 9844" d="M317.693,334.442l-.5.439-.229-.244,1.814-1.657.231.242-.485.459.687.755c.515.565,1.029,1.13,1.547,1.691a5.073,5.073,0,0,0,.466.455,1.175,1.175,0,0,0,1.664-.008,1.572,1.572,0,0,0,.208-2.452c-.744-.841-1.509-1.662-2.285-2.515l-.553.488-.232-.257,1.5-1.368.234.251-.551.506.858.944c.494.543.993,1.081,1.481,1.63a1.953,1.953,0,0,1,.6,1.52,2.217,2.217,0,0,1-.174.666,3.03,3.03,0,0,1-1.59,1.574,1.84,1.84,0,0,1-2.248-.46c-.755-.812-1.5-1.636-2.245-2.454C317.828,334.583,317.766,334.519,317.693,334.442Z" transform="translate(-27.269 -28.407)" fill="#2b5283" fill-rule="evenodd"/>
      <path id="Path_9845" data-name="Path 9845" d="M233.563,282.742l-.21.627-.3-.083c.016-.076.028-.145.047-.212q.281-.946.563-1.891c.083-.278.092-.282.388-.146-.052.195-.1.395-.163.621.387.116.763.232,1.141.344.81.238,1.614.5,2.433.7a1.32,1.32,0,0,0,1.772-1.348,1.516,1.516,0,0,0-1.169-1.668c-1.033-.325-2.075-.623-3.112-.937-.139-.042-.207-.018-.241.128-.04.173-.1.34-.152.507-.35-.051-.35-.051-.259-.351l.5-1.672.322.091c-.048.162-.08.315-.138.457-.078.194-.036.28.178.342,1.006.288,2.008.592,3.008.9a3.523,3.523,0,0,1,.54.214,1.7,1.7,0,0,1,1.01,1.34,2.974,2.974,0,0,1-.8,2.605,1.821,1.821,0,0,1-1.97.431c-1.044-.318-2.09-.626-3.136-.937C233.734,282.782,233.655,282.766,233.563,282.742Z" transform="translate(-2.588 -12.787)" fill="#2b5283" fill-rule="evenodd"/>
      <path id="Path_9846" data-name="Path 9846" d="M251.878,331.328l-.491-.468.227-.243,2.692,2.472.191-.152.326.288-.937,1.012-.325-.287.424-.476-1.383-1.282-1.452,1.573,1.084,1,.375-.469.363.314-1.168,1.268-.328-.294.408-.466-1.069-.983-1.519,1.641,1.446,1.331.456-.477.321.3-.775.846-3.109-2.861.264-.212.478.415Z" transform="translate(-6.878 -28.449)" fill="#2b5283" fill-rule="evenodd"/>
      <path id="Path_9847" data-name="Path 9847" d="M270.579,247c.051-.018.085-.031.12-.041a.878.878,0,0,0,.714-.973,2.178,2.178,0,0,0-.389-1.11.857.857,0,0,0-1.021-.358c-.184.053-.364.123-.57.193l1.588,4.783c.158-.051.3-.095.437-.14.289-.1.289-.1.382.233l-2.413.8c-.037-.115-.067-.21-.1-.321l.633-.222c-.541-1.631-1.078-3.251-1.624-4.9l-.641.188-.113-.3c.078-.032.143-.061.211-.083.759-.251,1.513-.517,2.279-.745a2.7,2.7,0,0,1,.944-.13,1.476,1.476,0,0,1,1.373,1.168,1.657,1.657,0,0,1-.546,1.8,2.568,2.568,0,0,1-.775.433C270.7,247.426,270.678,247.393,270.579,247Z" transform="translate(-12.744 -2.937)" fill="#2b5283" fill-rule="evenodd"/>
      <path id="Path_9848" data-name="Path 9848" d="M314.333,252.1l-1.2,1.885,1.653,1.059.364-.55.376.239-.621.971-3.551-2.268.178-.284.575.356,2.784-4.357-.564-.367c.061-.1.111-.178.178-.287l3.08,1.965.165-.181.364.228-.738,1.163-.366-.229c.092-.15.184-.284.258-.428.023-.044.02-.146-.008-.164-.491-.325-.988-.64-1.5-.971l-1.151,1.8,1.225.785.335-.5.378.225-.925,1.448-.38-.226.326-.532Z" transform="translate(-25.618 -4.296)" fill="#2b5283" fill-rule="evenodd"/>
      <path id="Path_9849" data-name="Path 9849" d="M262.391,250.265l1.026,1.988,1.748-.9-.286-.579.38-.215.533,1.024-3.745,1.931-.156-.3.6-.314-2.368-4.594-.6.3c-.05-.091-.1-.18-.16-.3l3.251-1.677c-.024-.074-.046-.141-.076-.232l.377-.2.635,1.222-.382.2-.306-.56-1.673.858.977,1.9,1.292-.662-.26-.544.387-.212.786,1.527-.386.218-.294-.55Z" transform="translate(-10.327 -3.619)" fill="#2b5283" fill-rule="evenodd"/>
      <path id="Path_9850" data-name="Path 9850" d="M305.084,348.188l-.127-.308.623-.265-1.887-4.806-.608.232c-.178-.277-.175-.289.1-.4l2.92-1.152c.076-.03.149-.064.232-.1-.018-.083-.033-.153-.052-.237l.4-.156.5,1.28-.4.165c-.082-.2-.159-.379-.248-.59l-1.76.686.786,1.995,1.352-.538-.192-.534a.325.325,0,0,1,.044-.047c.342-.189.344-.188.482.169q.235.607.469,1.213c0,.013.007.028.017.068l-.395.174-.243-.578-1.354.529.817,2.084,1.826-.719c-.076-.206-.147-.4-.226-.612l.412-.16.419,1.064Z" transform="translate(-23.151 -31.502)" fill="#2b5283" fill-rule="evenodd"/>
      <path id="Path_9851" data-name="Path 9851" d="M266.331,347.188c-.044.089-.085.175-.136.279l-1.943-.884.146-.3.556.239c.02-.213.041-.4.054-.592.019-.269.03-.539.05-.807a.209.209,0,0,0-.14-.243c-.569-.249-1.131-.512-1.7-.763a.254.254,0,0,0-.219,0c-.359.326-.707.664-1.081,1.021l.649.3c-.049.105-.09.2-.14.307l-1.646-.75.133-.3a.875.875,0,0,1,.214.081c.214.157.355.078.53-.09,1.345-1.292,2.7-2.573,4.052-3.859.1-.1.179-.185.342-.086s.312.121.294.372c-.083,1.18-.145,2.361-.212,3.542-.042.733-.07,1.466-.12,2.2C266,347.108,266.235,347.05,266.331,347.188Zm-1.079-5.14-.064-.023-1.726,1.636,1.639.743Z" transform="translate(-10.745 -31.418)" fill="#2b5283" fill-rule="evenodd"/>
      <path id="Path_9852" data-name="Path 9852" d="M279.992,247.288c-.265-.443-.5-.848-.752-1.248a.219.219,0,0,0-.18-.075c-.627.1-1.253.21-1.876.328a.261.261,0,0,0-.176.15c-.112.455-.205.916-.313,1.414l.7-.1c.023.1.044.2.07.32-.557.1-1.1.191-1.642.288-.135.024-.191-.055-.176-.162.008-.064.088-.17.135-.169.325.006.407-.18.466-.462.372-1.784.762-3.565,1.144-5.347a.43.43,0,0,1,.527-.351c.07.021.126.118.17.191q1.427,2.364,2.848,4.732c.128.215.248.376.543.226.023.126.041.224.063.348l-2.1.366c-.022-.115-.04-.209-.063-.329Zm-2.3-3.866-.059.009c-.164.771-.33,1.542-.5,2.342l1.768-.312Z" transform="translate(-15.116 -2.344)" fill="#2b5283" fill-rule="evenodd"/>
      <path id="Path_9853" data-name="Path 9853" d="M298.971,344.1c0-.1-.008-.162-.012-.255l.416-.084c.107.486.211.956.317,1.437a1.577,1.577,0,0,0-.163.051c-.224.1-.323,0-.331-.212-.011-.275-.162-.382-.415-.431a1.268,1.268,0,0,0-.974.115.713.713,0,0,0,.006,1.253c.479.256,1,.422,1.5.644a3.444,3.444,0,0,1,.783.424,1.669,1.669,0,0,1,.583,1.794,1.632,1.632,0,0,1-1.309,1.217,2.379,2.379,0,0,1-1.379-.052c.01.116.018.2.027.31l-.429.091c-.114-.512-.224-1.009-.339-1.526l.438-.09a.955.955,0,0,1,.057.226c0,.384.245.521.575.585a1.587,1.587,0,0,0,1.05-.108.774.774,0,0,0,.105-1.393,8.119,8.119,0,0,0-1.09-.517c-.373-.168-.764-.3-1.123-.5a1.582,1.582,0,0,1,.2-2.768,2.382,2.382,0,0,1,1.176-.229C298.741,344.095,298.845,344.1,298.971,344.1Z" transform="translate(-21.262 -32.316)" fill="#2b5283" fill-rule="evenodd"/>
      <path id="Path_9854" data-name="Path 9854" d="M314.144,337.424l-.156-.306.375-.236.808,1.332-.382.244a2.42,2.42,0,0,1-.166-.271.368.368,0,0,0-.388-.227,1.971,1.971,0,0,0-2.028,2.261,2.919,2.919,0,0,0,1.858,2.5,2.039,2.039,0,0,0,2.549-.874.3.3,0,0,0,0-.383c-.085-.113-.15-.239-.236-.38l.39-.25.608.992a4.079,4.079,0,0,1-3.456,1.81,2.969,2.969,0,0,1-2.6-2.124,3.006,3.006,0,0,1,1.272-3.464,3.411,3.411,0,0,1,1.4-.571A.874.874,0,0,0,314.144,337.424Z" transform="translate(-25.565 -30.292)" fill="#2b5283" fill-rule="evenodd"/>
      <path id="Path_9855" data-name="Path 9855" d="M239.523,268.785l-.21-.16.214-.373,1.293.728-.216.386a2.413,2.413,0,0,1-.3-.166.357.357,0,0,0-.481.016,1.351,1.351,0,0,0-.616.823.71.71,0,0,0,.908.858c.49-.177.947-.442,1.424-.654a4.489,4.489,0,0,1,.9-.336,1.64,1.64,0,0,1,1.709.7,1.617,1.617,0,0,1,.105,1.783,2.369,2.369,0,0,1-.983,1.052l.242.186c-.065.121-.129.244-.2.385l-1.371-.77.223-.392a2.944,2.944,0,0,0,.412.222.479.479,0,0,0,.327.01,1.421,1.421,0,0,0,.931-1.311.719.719,0,0,0-.9-.717,10.413,10.413,0,0,0-1.261.512,10.923,10.923,0,0,1-1.04.47A1.529,1.529,0,0,1,239,271.56a1.494,1.494,0,0,1-.308-1.57A2.453,2.453,0,0,1,239.523,268.785Z" transform="translate(-4.219 -10.107)" fill="#2b5283" fill-rule="evenodd"/>
      <path id="Path_9856" data-name="Path 9856" d="M340.882,285.023l-1.3.328c-.038-.142-.073-.27-.111-.414l.616-.174c-.087-.347-.17-.684-.255-1.021-.055-.218-.1-.437-.174-.649-.017-.053-.117-.125-.162-.114-.639.152-1.274.316-1.943.486.121.476.238.934.36,1.416l.58-.14.126.421-1.664.424-.122-.42.6-.168-.354-1.41-.9.229c-.412.106-.823.218-1.238.314-.151.035-.18.095-.132.234a3.439,3.439,0,0,1,.088.386l-.319.083c-.2-.771-.388-1.527-.588-2.312l.319-.088c.063.219.121.423.186.652l5-1.267c-.054-.224-.1-.431-.157-.657l.327-.078.9,3.52C340.853,284.612,340.882,284.65,340.882,285.023Z" transform="translate(-32.275 -13.88)" fill="#2b5283" fill-rule="evenodd"/>
      <path id="Path_9857" data-name="Path 9857" d="M331.1,316.14c.055-.147.1-.271.152-.406l.249.049,1.489-3.957-.22-.12c.049-.129.1-.258.155-.414l1.382.52-.157.425-.691-.254-.555,1.465,4.7,1.771.312-.791.314.113c-.334.887-.661,1.758-1,2.65l-.315-.117c.082-.224.154-.433.237-.64.044-.109.043-.175-.085-.223q-2.236-.835-4.47-1.679a.426.426,0,0,0-.095-.008l-.549,1.44.687.27-.156.428Z" transform="translate(-31.427 -22.766)" fill="#2b5283" fill-rule="evenodd"/>
      <path id="Path_9858" data-name="Path 9858" d="M296.27,247.425l.833.159c-.014.111-.026.2-.042.322-.46-.074-.906-.145-1.353-.22-.4-.066-.795-.136-1.192-.207-.281-.05-.281-.052-.176-.361l.827.121L296,242.3c-.346-.063-.666-.124-.988-.177-.176-.029-.4-.119-.517-.044s-.1.318-.142.488c-.013.051-.023.1-.041.183l-.436-.065c.06-.376.113-.735.177-1.093.069-.39.074-.389.493-.282,0,.07.006.142.011.24l4.153.7.078-.226.433.059c-.081.487-.158.954-.241,1.45l-.45-.065c.04-.25.074-.469.115-.726l-1.543-.263Z" transform="translate(-20.48 -2.164)" fill="#2b5283" fill-rule="evenodd"/>
      <path id="Path_9859" data-name="Path 9859" d="M295.247,310.179c-.4.157-.795.34-1.211.474-1.315.422-2.637.822-3.954,1.237a3.585,3.585,0,0,0-1.377.782v-2.765c.319.1.626.208.942.282a2.174,2.174,0,0,0,1.523-.209c.352-.181.692-.385,1.04-.575a1.594,1.594,0,0,1,1.7.064C294.329,309.722,294.775,309.93,295.247,310.179Z" transform="translate(-18.958 -22.147)" fill="#2b5283" fill-rule="evenodd"/>
      <path id="Path_9860" data-name="Path 9860" d="M331.326,263.874l-3.99,3.056.513.678-.269.207-1.442-1.883.3-.157.223.263,3.985-3.048-.955-1.253-.587.441-.282-.355,1.177-.9.27.344c-.237.144-.114.275,0,.426q1.133,1.467,2.255,2.944c.044.059.094.114.143.174l.2-.12.275.348-1.177.9-.27-.358.575-.457Z" transform="translate(-29.967 -7.95)" fill="#2b5283" fill-rule="evenodd"/>
      <path id="Path_9861" data-name="Path 9861" d="M334.506,308.532l-.328-.069c.157-.8.311-1.586.464-2.37.323-.025.342,0,.289.27-.022.116-.039.233-.067.406l2.2-.88-1.722-1.575-.164.74-.325-.059c.131-.671.258-1.321.383-1.965.333-.016.358,0,.28.3a.5.5,0,0,0,.181.578c.584.5,1.141,1.04,1.719,1.551a.927.927,0,0,0,.407.2c.738.157,1.481.291,2.22.444.166.035.234,0,.251-.173a4.061,4.061,0,0,1,.1-.448l.324.063c-.156.8-.31,1.587-.469,2.408l-.325-.067c.036-.215.07-.418.108-.648-.385-.079-.755-.157-1.127-.23-.352-.069-.7-.145-1.057-.2a.926.926,0,0,0-.453.036c-.868.344-1.729.708-2.6,1.058a.316.316,0,0,0-.223.273C334.559,308.3,334.532,308.4,334.506,308.532Z" transform="translate(-32.332 -20.335)" fill="#2b5283" fill-rule="evenodd"/>
      <path id="Path_9862" data-name="Path 9862" d="M258.292,336.4l-.553-.384.19-.277,2.037,1.369-.186.282-.557-.367-2.8,4.165,1.6,1.081.375-.543.364.254-.64.948-3.468-2.331.191-.282.563.373Z" transform="translate(-8.942 -29.956)" fill="#2b5283" fill-rule="evenodd"/>
      <path id="Path_9863" data-name="Path 9863" d="M334.712,322.719c.065-.117.115-.208.166-.3l.153-.277.3.154-1.172,2.166-.3-.164.313-.6-4.542-2.459-.336.585-.291-.153,1.171-2.167.291.165-.307.585Z" transform="translate(-30.812 -25.182)" fill="#2b5283" fill-rule="evenodd"/>
      <path id="Path_9864" data-name="Path 9864" d="M243.01,278.3a.576.576,0,1,1-.57.594A.571.571,0,0,1,243.01,278.3Z" transform="translate(-5.35 -13.063)" fill="#2b5283" fill-rule="evenodd"/>
      <path id="Path_9865" data-name="Path 9865" d="M247.875,270.438a.559.559,0,1,1,.56-.572A.558.558,0,0,1,247.875,270.438Z" transform="translate(-6.779 -10.421)" fill="#2b5283" fill-rule="evenodd"/>
      <path id="Path_9866" data-name="Path 9866" d="M284.839,273.336c.5-.042.976-.087,1.451-.116a2.316,2.316,0,0,1,.431.066c-.44.165-.82.308-1.2.448a.132.132,0,0,1-.1-.008C285.236,273.607,285.058,273.484,284.839,273.336Z" transform="translate(-17.82 -11.567)" fill="#2b5283" fill-rule="evenodd"/>
      <path id="Path_9867" data-name="Path 9867" d="M259.484,309.6a1.989,1.989,0,0,1-.15-.389,4.463,4.463,0,0,1,.287-2.565,1.478,1.478,0,0,1,.227-.342,10.67,10.67,0,0,0-.293,3.268Z" transform="translate(-10.299 -21.299)" fill="#2b5283" fill-rule="evenodd"/>
    </g>
  </g>
</svg>
