<svg xmlns="http://www.w3.org/2000/svg" width="131.61" height="134.66" viewBox="0 0 131.61 134.66"><g style="isolation:isolate"><circle cx="66.82" cy="69.2" r="64.79" fill="#d9f1fd"/><circle cx="64.79" cy="64.79" r="64.79" fill="#d9f1fd"/><path d="M115.74,29.89c-5.7-1-11.44-1.9-17.07-3.17C90.15,24.8,82.16,21.51,74.28,18c-1.56-.7-3.09-1.48-4.63-2.22h-1.5a8.18,8.18,0,0,1-.94.58c-2.95,1.31-5.9,2.65-8.87,3.91q-5,2.14-10.18,3.89a109.74,109.74,0,0,1-17.69,4.41l-2.18.35L14.91,31.08h0v5.17h0l.45,7.62c.22,3.93.4,7.85.64,11.77.08,1.31.16,2.61.26,3.92A80.32,80.32,0,0,0,18.85,74c.41,1.59.85,3.16,1.31,4.74s.93,3,1.45,4.46c.79,2.2,1.67,4.35,2.64,6.47q1,2.11,2,4.18a100.74,100.74,0,0,0,11.84,17.56c.53.63,1.07,1.26,1.62,1.87.83.93,1.7,1.82,2.57,2.69a106.7,106.7,0,0,0,8.39,7.47c.64.53,1.3,1,2,1.57,1.84,1.46,3.73,2.85,5.68,4.15a67.27,67.27,0,0,0,6.09,3.61,34.68,34.68,0,0,0,3.17,1.41l1.09.43a.75.75,0,0,0,.31.06h0a1.75,1.75,0,0,0,.69-.09c1-.41,2.1-.85,3.1-1.34,5.27-2.61,9.81-6.14,14.39-9.64,10.35-7.9,18-17.77,24-28.68,3.72-6.65,6-13.82,8-21.08A83.91,83.91,0,0,0,122,55.49c.27-5.83.6-11.65.9-17.48a8.05,8.05,0,0,1,.17-1v-6C120.65,30.68,118.18,30.33,115.74,29.89Z" fill="#e2f4fd" style="mix-blend-mode:multiply"/><path d="M111.48,21.21c-5.7-1-11.44-1.9-17.07-3.17C85.89,16.12,77.9,12.83,70,9.3c-1.56-.7-3.09-1.48-4.63-2.22h-1.5a8.18,8.18,0,0,1-.94.58c-3,1.32-5.9,2.65-8.87,3.92a118.91,118.91,0,0,1-27.87,8.29q-7.79,1.24-15.56,2.53v5.17l.45,7.63c.29,5.22.51,10.46.9,15.68A93.5,93.5,0,0,0,15.9,70c3.53,12,9.78,22.81,18,32.67a96.25,96.25,0,0,0,14.54,13.6,75.07,75.07,0,0,0,11.77,7.76,46,46,0,0,0,4.26,1.84,1.07,1.07,0,0,0,.32.07,1.75,1.75,0,0,0,.69-.1c1-.41,2.1-.84,3.1-1.34,5.27-2.61,9.81-6.14,14.39-9.64,10.35-7.9,17.95-17.77,24-28.67,3.72-6.66,6-13.83,8-21.09a84.42,84.42,0,0,0,2.8-18.33c.27-5.83.59-11.65.9-17.47a7.87,7.87,0,0,1,.17-1v-6C116.38,22,113.92,21.65,111.48,21.21Zm3,9.32c-.37,6.34-.74,12.13-1,17.92a78.48,78.48,0,0,1-2.58,17.06c-2.18,7.9-4.83,15.63-9.26,22.74a95.31,95.31,0,0,1-11.85,15.69A91.74,91.74,0,0,1,76,115.47a116.61,116.61,0,0,1-10.32,6,2.31,2.31,0,0,1-1,.24,1.53,1.53,0,0,1-.62-.08,30.06,30.06,0,0,1-3.69-1.57c-5.82-2.9-10.75-6.9-15.57-11A83.34,83.34,0,0,1,24,81.65a88.41,88.41,0,0,1-7.43-24.13A94.38,94.38,0,0,1,15.6,47c-.38-6.72-.64-13.44-1-20.16,0-.53.15-.78.73-.87,2.43-.37,4.84-.83,7.28-1.17a134.7,134.7,0,0,0,16.93-3.32,152,152,0,0,0,23.58-9.09,3,3,0,0,1,1.59-.31,3.46,3.46,0,0,1,1.13.32c4.09,1.82,8.18,3.64,12.33,5.31a103.71,103.71,0,0,0,23,6.31c4.12.64,8.23,1.31,12.35,1.92.71.11,1,.37.93,1C114.46,28.35,114.49,29.71,114.49,30.53Z" fill="#fff"/><path d="M26.21,19.87a118.91,118.91,0,0,0,27.87-8.29C57.05,10.31,60,9,63,7.66a7,7,0,0,0,.94-.58h.86v5a3,3,0,0,0-1.59.31,152,152,0,0,1-23.58,9.09,134.7,134.7,0,0,1-16.93,3.32c-2.44.34-4.85.8-7.28,1.17-.58.09-.76.34-.73.87.32,6.72.58,13.44,1,20.16a94.38,94.38,0,0,0,.93,10.49A88.41,88.41,0,0,0,24,81.65a83.34,83.34,0,0,0,20.91,27.4c4.82,4.1,9.75,8.1,15.57,11a30.06,30.06,0,0,0,3.69,1.57,1.53,1.53,0,0,0,.62.08V126a1.07,1.07,0,0,1-.32-.07,46,46,0,0,1-4.26-1.84,75.07,75.07,0,0,1-11.77-7.76,96.25,96.25,0,0,1-14.54-13.6C25.68,92.85,19.43,82.09,15.9,70A93.5,93.5,0,0,1,12,50.88c-.39-5.22-.61-10.46-.9-15.68l-.45-7.63V22.4Q18.43,21.13,26.21,19.87Z" fill="#f1f0f0" opacity="0.48" style="mix-blend-mode:multiply"/><path d="M108.9,27.93c-6.16-1.08-12.37-2-18.46-3.34C81.9,22.68,74,19.21,66.21,15.49a3.69,3.69,0,0,0-1.46-.4,3.74,3.74,0,0,0-1.65.39c-7.82,3.7-15.76,7.2-24.34,9.12-5.33,1.19-10.76,2-16.15,2.94l-4.52.82c.12,3.24.21,6.32.35,9.4.17,3.57.41,7.14.56,10.72A82.39,82.39,0,0,0,28.92,85,79.7,79.7,0,0,0,51.37,111a62.34,62.34,0,0,0,12.11,7.43,3.49,3.49,0,0,0,1.27.32,3.2,3.2,0,0,0,1.55-.38,59.31,59.31,0,0,0,10.85-6.7c3.95-3.16,8-6.25,11.36-10,7.59-8.38,13.61-17.6,17-28.13,1.63-5.09,2.87-10.29,4.07-15.49a41,41,0,0,0,.68-7c.36-6.85.7-13.7.94-20.56C111.27,28.1,111.78,28.43,108.9,27.93Z" fill="#fff"/><path d="M51.37,111A79.7,79.7,0,0,1,28.92,85,82.39,82.39,0,0,1,19,48.48c-.15-3.58-.39-7.15-.56-10.72-.14-3.08-.23-6.16-.35-9.4l4.52-.82c5.39-1,10.82-1.75,16.15-2.94,8.58-1.92,16.52-5.42,24.34-9.12a3.74,3.74,0,0,1,1.65-.39V118.72a3.49,3.49,0,0,1-1.27-.32A62.34,62.34,0,0,1,51.37,111Z" fill="#f1f0f0" opacity="0.48" style="mix-blend-mode:multiply"/><path d="M114.5,27c0-.66-.22-.92-.93-1-4.12-.61-8.23-1.28-12.35-1.92a103.71,103.71,0,0,1-23-6.31c-4.15-1.67-8.24-3.49-12.33-5.31a3.46,3.46,0,0,0-1.13-.32,3,3,0,0,0-1.59.31,152,152,0,0,1-23.58,9.09,134.7,134.7,0,0,1-16.93,3.32c-2.44.34-4.85.8-7.28,1.17-.58.09-.76.34-.73.87.32,6.72.58,13.44,1,20.16a94.38,94.38,0,0,0,.93,10.49A88.41,88.41,0,0,0,24,81.65a83.34,83.34,0,0,0,20.91,27.4c4.82,4.1,9.75,8.1,15.57,11a30.06,30.06,0,0,0,3.69,1.57,1.53,1.53,0,0,0,.62.08,2.31,2.31,0,0,0,1-.24,116.61,116.61,0,0,0,10.32-6,91.74,91.74,0,0,0,13.74-11.53,95.31,95.31,0,0,0,11.85-15.69c4.43-7.11,7.08-14.84,9.26-22.74a78.48,78.48,0,0,0,2.58-17.06c.28-5.79.65-11.58,1-17.92C114.49,29.71,114.46,28.35,114.5,27Zm-3.32,3.48c-.24,6.86-.58,13.71-.94,20.56a41,41,0,0,1-.68,7c-1.2,5.2-2.44,10.4-4.07,15.49-3.37,10.53-9.39,19.75-17,28.13-3.37,3.72-7.41,6.81-11.36,10a59.31,59.31,0,0,1-10.85,6.7,3.2,3.2,0,0,1-1.55.38,3.49,3.49,0,0,1-1.27-.32A62.34,62.34,0,0,1,51.37,111,79.7,79.7,0,0,1,28.92,85,82.39,82.39,0,0,1,19,48.48c-.15-3.58-.39-7.15-.56-10.72-.14-3.08-.23-6.16-.35-9.4l4.52-.82c5.39-1,10.82-1.75,16.15-2.94,8.58-1.92,16.52-5.42,24.34-9.12a3.74,3.74,0,0,1,1.65-.39,3.69,3.69,0,0,1,1.46.4c7.77,3.72,15.69,7.19,24.23,9.1,6.09,1.36,12.3,2.26,18.46,3.34C111.78,28.43,111.27,28.1,111.18,30.48Z" fill="#f1f0f0"/><path d="M63.1,15.48c-7.82,3.7-15.76,7.2-24.34,9.12-5.33,1.19-10.76,2-16.15,2.94l-4.52.82c.12,3.24.21,6.32.35,9.4.17,3.57.41,7.14.56,10.72A82.39,82.39,0,0,0,28.92,85,79.7,79.7,0,0,0,51.37,111a62.34,62.34,0,0,0,12.11,7.43,3.49,3.49,0,0,0,1.27.32v3a1.53,1.53,0,0,1-.62-.08,30.06,30.06,0,0,1-3.69-1.57c-5.82-2.9-10.75-6.9-15.57-11A83.34,83.34,0,0,1,24,81.65a88.41,88.41,0,0,1-7.43-24.13A94.38,94.38,0,0,1,15.6,47c-.38-6.72-.64-13.44-1-20.16,0-.53.15-.78.73-.87,2.43-.37,4.84-.83,7.28-1.17a134.7,134.7,0,0,0,16.93-3.32,152,152,0,0,0,23.58-9.09,3,3,0,0,1,1.59-.31v3A3.74,3.74,0,0,0,63.1,15.48Z" fill="#f1f0f0" style="mix-blend-mode:multiply"/><path d="M40.29,24.23h0L58.37,55.08Z" fill="#eef8fb"/><path d="M18.22,28.08c.12,3.3.24,6.64.38,9.79.16,3.65.16,7.3.31,11,.2,4.85,1.42,9.6,2.35,14.28H50.94a2.37,2.37,0,0,0,2.25-2,10.24,10.24,0,0,1,.57-1.83L21,27.56Z" fill="#9f1d20"/><path d="M90.06,24.9c-.69-.16-1.72-.44-2.39-.62-7.49-2.14-14.51-5.54-21.41-9.18a3.31,3.31,0,0,0-1.43-.42h0v40a10.63,10.63,0,0,1,4.36,1.29l-.08.14a11.16,11.16,0,0,1,5.24,7l33.86-35C102.14,27,96,26.35,90.06,24.9Z" fill="#4c9dc0"/><path d="M76.82,64.6a3.91,3.91,0,0,1-3.74-3.16.83.83,0,0,0,0-.15L73,61.07l-.21-.84,34.81-33.75,1.8.31c1.88.31,3,.63,2.84,3.09,0,.24,0,.53-.06.88-.21,6-.51,12.89-.93,20.94l0,.74c-.08,1.93-.14,3.46-2.15,11.05l-.3,1.11Z" fill="#0790b7"/><path d="M108.08,28.09l.32.05c2.86.51,2.35.17,2.27,2.56-.25,6.89-.58,14.05-.94,20.93-.12,2.35.1,3.09-2.13,11.47H76.82a2.37,2.37,0,0,1-2.27-2c0-.15-.07-.29-.11-.44l33.64-32.61m-1-3.22L106,25.93,72.35,58.55,71.1,59.76l.43,1.68c0,.09,0,.17.07.26l0,.08A5.38,5.38,0,0,0,76.8,66.1h33.11l.59-2.23c2-7.38,2.11-9.13,2.2-11.37,0-.23,0-.46,0-.72.41-8.06.72-14.92.93-21,0-.32,0-.59,0-.81.28-3.65-2-4.34-4.08-4.69l-.71-.12-.2,0-.12,0-1.51-.26Z" fill="#fff"/><path d="M58.5,54A11.27,11.27,0,0,1,64,52.56c.27,0,.54,0,.81,0V14.68a3.41,3.41,0,0,0-1.6.4c-7.35,3.59-14.8,7-22.79,9l0,0-.06,0-1.26.32C33.86,25.62,29.28,26,24,27L21,27.56,53.76,59.28A10.7,10.7,0,0,1,58.5,54Z" fill="#c82127"/><circle cx="63.27" cy="63.49" r="12.4" fill="#fff"/><path d="M97.69,55a1.16,1.16,0,0,0,.68-1.36,1.19,1.19,0,0,0-1.27-.85l-7.94.77L63,62.87l2.27,6.21S88.7,59,97.69,55Z" fill="#1a4580" opacity="0.25" style="mix-blend-mode:multiply"/><path d="M65.25,69.08c2.31-.82,23-12.26,31.61-17a1.17,1.17,0,0,0,.56-1.41,1.2,1.2,0,0,0-1.34-.74c-9.67,1.73-32.86,5.91-35.33,6.75,0,0,0,0,0,0h0a6.56,6.56,0,0,0-4,8.43A6.7,6.7,0,0,0,65.25,69.08Z" fill="#1a4580"/><path d="M65.25,69.08c2.31-.82,23-12.26,31.61-17a1.17,1.17,0,0,0,.56-1.41L56.71,65.1A6.7,6.7,0,0,0,65.25,69.08Z" fill="#1a4580" style="mix-blend-mode:multiply"/></g></svg>