<?xml version="1.0" encoding="utf-8"?>
<!-- Generator: Adobe Illustrator 25.0.1, SVG Export Plug-In . SVG Version: 6.00 Build 0)  -->
<svg version="1.1" id="Layer_1" xmlns="http://www.w3.org/2000/svg" xmlns:xlink="http://www.w3.org/1999/xlink" x="0px" y="0px"
	 viewBox="0 0 1280 290" style="enable-background:new 0 0 1280 290;" xml:space="preserve">
<style type="text/css">
	.st0{display:none;}
	.st1{display:inline;fill:#F2F2F2;}
	.st2{display:inline;}
	.st3{font-family:'Montserrat-Bold';}
	.st4{font-size:59.0197px;}
	.st5{fill:#FFFFFF;}
	.st6{fill:#C71F25;}
	.st7{fill:none;}
	.st8{enable-background:new    ;}
	.st9{fill:#1A4480;}
	.st10{fill:#1294C2;}
	.st11{fill:#0A90B7;}
</style>
<g id="Layer_2_1_" class="st0">
	<rect x="487" y="-3" class="st1" width="2787" height="1656"/>
	<text transform="matrix(1 0 0 1 554.3887 103.4434)" class="st2 st3 st4">Desktop</text>
</g>
<g id="Layer_3">
</g>
<g id="Layer_4">
</g>
<g id="Layer_1_1_">
	<g>
		<g>
			<polygon class="st5" points="857.9,202.8 840.3,184.4 822.8,202.8 771.9,202.8 771.9,287.9 908.8,287.9 908.8,202.8 			"/>
			<path class="st6" d="M909.2,288.3H771.5v-85.9h51.1l17.7-18.6l17.8,18.6h51.1L909.2,288.3L909.2,288.3z M772.3,287.5h136.1v-84.4
				h-50.7l-0.1-0.1l-17.3-18.1L823,203.2h-50.7V287.5z"/>
		</g>
		<rect x="772" y="215.2" class="st7" width="136.7" height="63.5"/>
		<g class="st8">
			<path class="st6" d="M824.4,232.5c0.5,0.1,1,0.1,1.3,0.1c0.6,0,1-0.2,1.3-0.5c0.2-0.3,0.4-0.9,0.4-1.8v-12.6h1.5v12.6
				c0,1.2-0.2,2.1-0.7,2.7c-0.5,0.6-1.2,0.8-2.2,0.8c-0.4,0-0.9,0-1.5-0.1L824.4,232.5L824.4,232.5z"/>
			<path class="st6" d="M840.4,227.3h-6.7l-1.4,3.3h-1.5l5.6-12.8h1.3l5.6,12.8h-1.5L840.4,227.3z M839.8,226.1l-2.8-6.6l-2.8,6.6
				H839.8z"/>
			<path class="st6" d="M854.2,225.1c0.4,0.5,0.6,1.2,0.6,2c0,1.1-0.4,2-1.1,2.6c-0.7,0.6-1.8,0.9-3.2,0.9h-5.3v-12.8h5.1
				c1.3,0,2.3,0.3,3.1,0.9c0.7,0.6,1.1,1.4,1.1,2.5c0,0.7-0.2,1.3-0.5,1.8c-0.4,0.5-0.8,0.9-1.5,1.1
				C853.2,224.2,853.8,224.6,854.2,225.1z M846.6,223.5h3.5c1,0,1.7-0.2,2.2-0.6c0.5-0.4,0.7-0.9,0.7-1.7c0-1.5-1-2.2-2.9-2.2h-3.5
				V223.5z M852.6,228.8c0.5-0.4,0.7-1,0.7-1.7c0-1.6-1-2.4-2.9-2.4h-3.7v4.7h3.7C851.4,229.4,852.1,229.2,852.6,228.8z"/>
		</g>
		<g class="st8">
			<path class="st6" d="M792.7,248.9H786l-1.4,3.3h-1.5l5.6-12.8h1.3l5.6,12.8h-1.5L792.7,248.9z M792.2,247.7l-2.8-6.6l-2.8,6.6
				H792.2z"/>
			<path class="st6" d="M805,243.2v9.1h-1.4v-1.6c-0.3,0.6-0.7,1-1.2,1.3s-1.1,0.4-1.7,0.4c-1.1,0-1.9-0.3-2.4-0.9
				c-0.6-0.6-0.8-1.5-0.8-2.7v-5.6h1.5v5.6c0,0.8,0.2,1.4,0.5,1.8s0.8,0.6,1.5,0.6c0.8,0,1.5-0.3,1.9-0.8c0.5-0.5,0.7-1.2,0.7-2.1
				v-5.1H805z"/>
			<path class="st6" d="M809.7,244.3v5c0,0.7,0.1,1.1,0.4,1.4c0.3,0.3,0.7,0.4,1.2,0.4c0.3,0,0.7-0.1,1-0.2v1.2
				c-0.4,0.1-0.8,0.2-1.3,0.2c-0.9,0-1.5-0.2-2-0.7s-0.7-1.2-0.7-2.2v-5.1h-1.8v-1.2h1.8v-2.3l1.5-0.5v2.8h2.6v1.2L809.7,244.3
				L809.7,244.3z"/>
			<path class="st6" d="M821.8,246.5v5.7h-1.5v-5.6c0-0.8-0.2-1.5-0.5-1.8s-0.9-0.6-1.6-0.6c-0.8,0-1.5,0.3-2,0.8s-0.8,1.2-0.8,2.1
				v5.2h-1.5V239h1.5v5.7c0.3-0.6,0.7-1,1.2-1.3s1.1-0.4,1.8-0.4C820.8,242.9,821.8,244.1,821.8,246.5z"/>
			<path class="st6" d="M826.1,251.8c-0.6-0.4-1.1-0.9-1.5-1.6c-0.4-0.7-0.5-1.5-0.5-2.5c0-0.9,0.2-1.8,0.5-2.5
				c0.4-0.7,0.9-1.3,1.5-1.6c0.6-0.4,1.4-0.6,2.2-0.6c0.9,0,1.6,0.2,2.2,0.6c0.6,0.4,1.1,0.9,1.5,1.6c0.4,0.7,0.5,1.5,0.5,2.5
				c0,0.9-0.2,1.8-0.5,2.5c-0.4,0.7-0.9,1.3-1.5,1.6c-0.6,0.4-1.4,0.6-2.2,0.6C827.5,252.3,826.7,252.1,826.1,251.8z M830.4,250.2
				c0.5-0.6,0.7-1.5,0.7-2.6s-0.2-2-0.7-2.6s-1.2-0.9-2.1-0.9c-0.9,0-1.6,0.3-2.1,0.9c-0.5,0.6-0.7,1.5-0.7,2.6s0.2,2,0.7,2.6
				s1.2,0.9,2.1,0.9C829.2,251.1,829.9,250.8,830.4,250.2z"/>
			<path class="st6" d="M839.9,243v1.3c-0.3-0.1-0.6-0.1-1-0.1c-0.9,0-1.5,0.3-2,0.8c-0.4,0.5-0.6,1.2-0.6,2v5.2h-1.5v-6.5
				c0-0.9,0-1.8-0.1-2.5h1.4l0.1,1.7c0.2-0.6,0.6-1.1,1.1-1.4s1.1-0.5,1.7-0.5C839.4,242.9,839.7,243,839.9,243z"/>
			<path class="st6" d="M843,239.3v1.7h-1.8v-1.7H843z M841.4,243.2h1.5v9.1h-1.5V243.2z"/>
			<path class="st6" d="M852.8,251.1v1.2h-7.7v-1l5.7-6.9h-5.5v-1.2h7.3v1.1l-5.7,6.8L852.8,251.1L852.8,251.1z"/>
			<path class="st6" d="M862.8,243.2v9.1h-1.4v-1.6c-0.3,0.6-0.7,1-1.2,1.3s-1.2,0.5-1.9,0.5c-0.8,0-1.5-0.2-2.1-0.6
				c-0.6-0.4-1.1-0.9-1.4-1.6s-0.5-1.5-0.5-2.5c0-0.9,0.2-1.8,0.5-2.5s0.8-1.3,1.4-1.7c0.6-0.4,1.3-0.6,2.1-0.6
				c0.7,0,1.3,0.2,1.9,0.5c0.5,0.3,0.9,0.8,1.2,1.3v-1.6L862.8,243.2L862.8,243.2z M860.6,250.2c0.5-0.6,0.7-1.5,0.7-2.6
				s-0.2-2-0.7-2.6s-1.2-0.9-2.1-0.9s-1.6,0.3-2.1,0.9s-0.7,1.5-0.7,2.6s0.2,2,0.7,2.6s1.2,0.9,2.1,0.9
				C859.5,251.1,860.2,250.8,860.6,250.2z"/>
			<path class="st6" d="M867.6,244.3v5c0,0.7,0.1,1.1,0.4,1.4c0.3,0.3,0.7,0.4,1.2,0.4c0.3,0,0.7-0.1,1-0.2v1.2
				c-0.4,0.1-0.8,0.2-1.3,0.2c-0.9,0-1.5-0.2-2-0.7s-0.7-1.2-0.7-2.2v-5.1h-1.8v-1.2h1.8v-2.3l1.5-0.5v2.8h2.6v1.2L867.6,244.3
				L867.6,244.3z"/>
			<path class="st6" d="M873.6,239.3v1.7h-1.8v-1.7H873.6z M871.9,243.2h1.5v9.1h-1.5V243.2z"/>
			<path class="st6" d="M877.7,251.8c-0.6-0.4-1.1-0.9-1.5-1.6c-0.4-0.7-0.5-1.5-0.5-2.5c0-0.9,0.2-1.8,0.5-2.5
				c0.4-0.7,0.9-1.3,1.5-1.6c0.6-0.4,1.4-0.6,2.2-0.6c0.9,0,1.6,0.2,2.2,0.6c0.6,0.4,1.1,0.9,1.5,1.6c0.4,0.7,0.5,1.5,0.5,2.5
				c0,0.9-0.2,1.8-0.5,2.5c-0.4,0.7-0.9,1.3-1.5,1.6c-0.6,0.4-1.4,0.6-2.2,0.6C879.1,252.3,878.3,252.1,877.7,251.8z M882,250.2
				c0.5-0.6,0.7-1.5,0.7-2.6s-0.2-2-0.7-2.6s-1.2-0.9-2.1-0.9c-0.9,0-1.6,0.3-2.1,0.9c-0.5,0.6-0.7,1.5-0.7,2.6s0.2,2,0.7,2.6
				s1.2,0.9,2.1,0.9C880.8,251.1,881.5,250.8,882,250.2z"/>
			<path class="st6" d="M894.3,246.5v5.7h-1.5v-5.6c0-0.8-0.2-1.5-0.5-1.8s-0.9-0.6-1.6-0.6c-0.8,0-1.5,0.3-2,0.8s-0.8,1.2-0.8,2.1
				v5.2h-1.5v-6.5c0-0.9,0-1.8-0.1-2.5h1.4l0.1,1.6c0.3-0.6,0.7-1,1.2-1.4c0.6-0.3,1.2-0.5,1.9-0.5
				C893.2,242.9,894.3,244.1,894.3,246.5z"/>
		</g>
		<g class="st8">
			<path class="st6" d="M808.8,261h5.1c1.3,0,2.3,0.3,3.1,1c0.7,0.6,1.1,1.5,1.1,2.6s-0.4,2-1.1,2.6c-0.7,0.6-1.8,1-3.1,1h-3.6v5.6
				h-1.5V261z M813.8,267c0.9,0,1.7-0.2,2.1-0.6c0.5-0.4,0.7-1,0.7-1.8s-0.2-1.4-0.7-1.8s-1.2-0.6-2.1-0.6h-3.5v4.7L813.8,267
				L813.8,267z"/>
			<path class="st6" d="M825.2,264.6v1.3c-0.3-0.1-0.6-0.1-1-0.1c-0.9,0-1.5,0.3-2,0.8c-0.4,0.5-0.6,1.2-0.6,2v5.2h-1.5v-6.5
				c0-0.9,0-1.8-0.1-2.5h1.4l0.1,1.7c0.2-0.6,0.6-1.1,1.1-1.4s1.1-0.5,1.7-0.5C824.7,264.5,825,264.6,825.2,264.6z"/>
			<path class="st6" d="M828,273.4c-0.6-0.4-1.1-0.9-1.5-1.6s-0.5-1.5-0.5-2.5c0-0.9,0.2-1.8,0.5-2.5c0.4-0.7,0.9-1.3,1.5-1.6
				c0.6-0.4,1.4-0.6,2.2-0.6c0.9,0,1.6,0.2,2.2,0.6c0.6,0.4,1.1,0.9,1.5,1.6s0.5,1.5,0.5,2.5c0,0.9-0.2,1.8-0.5,2.5
				c-0.4,0.7-0.9,1.3-1.5,1.6c-0.6,0.4-1.4,0.6-2.2,0.6C829.4,273.9,828.7,273.7,828,273.4z M832.4,271.8c0.5-0.6,0.7-1.5,0.7-2.6
				s-0.2-2-0.7-2.6s-1.2-0.9-2.1-0.9c-0.9,0-1.6,0.3-2.1,0.9s-0.7,1.5-0.7,2.6s0.2,2,0.7,2.6s1.2,0.9,2.1,0.9
				C831.2,272.7,831.9,272.4,832.4,271.8z"/>
			<path class="st6" d="M838.3,273.4c-0.7-0.4-1.2-0.9-1.5-1.6c-0.4-0.7-0.5-1.5-0.5-2.5c0-0.9,0.2-1.8,0.5-2.5s0.9-1.3,1.5-1.7
				c0.7-0.4,1.4-0.6,2.3-0.6c0.6,0,1.2,0.1,1.8,0.3c0.6,0.2,1,0.5,1.4,0.9l-0.5,1.1c-0.5-0.4-0.9-0.6-1.3-0.8s-0.9-0.3-1.3-0.3
				c-0.9,0-1.7,0.3-2.2,0.9s-0.8,1.5-0.8,2.6s0.3,1.9,0.8,2.5s1.3,0.9,2.2,0.9c0.4,0,0.9-0.1,1.3-0.3s0.9-0.4,1.3-0.8l0.5,1.1
				c-0.4,0.4-0.9,0.6-1.4,0.9c-0.6,0.2-1.2,0.3-1.8,0.3C839.8,273.9,839,273.7,838.3,273.4z"/>
			<path class="st6" d="M853.3,269.2h-6.6c0,1.2,0.3,2,0.8,2.6s1.3,0.9,2.3,0.9c1.1,0,2-0.4,2.9-1.1l0.5,1.1
				c-0.4,0.4-0.9,0.7-1.5,0.9s-1.3,0.3-1.9,0.3c-1.4,0-2.5-0.4-3.3-1.3c-0.8-0.8-1.2-2-1.2-3.4c0-0.9,0.2-1.7,0.5-2.5
				c0.4-0.7,0.9-1.3,1.5-1.7c0.6-0.4,1.4-0.6,2.2-0.6c1.2,0,2.1,0.4,2.8,1.2c0.7,0.8,1,1.9,1,3.2V269.2z M847.6,266.4
				c-0.5,0.5-0.8,1.1-0.9,1.9h5.3c-0.1-0.9-0.3-1.5-0.7-1.9s-1-0.7-1.8-0.7S848.1,265.9,847.6,266.4z"/>
			<path class="st6" d="M855,272.8l0.5-1.1c0.5,0.4,1,0.7,1.5,0.8c0.5,0.2,1.1,0.3,1.7,0.3c0.7,0,1.2-0.1,1.6-0.4
				c0.4-0.2,0.5-0.6,0.5-1s-0.1-0.6-0.4-0.9c-0.2-0.2-0.6-0.4-1.2-0.5l-1.5-0.4c-0.8-0.2-1.3-0.5-1.8-0.9s-0.6-0.9-0.6-1.5
				c0-0.8,0.3-1.4,1-1.9c0.6-0.5,1.5-0.7,2.5-0.7c0.6,0,1.2,0.1,1.8,0.3c0.6,0.2,1,0.5,1.4,0.9l-0.5,1.1c-0.9-0.7-1.8-1.1-2.7-1.1
				c-0.6,0-1.1,0.1-1.5,0.4c-0.4,0.2-0.5,0.6-0.5,1s0.1,0.7,0.3,0.9c0.2,0.2,0.6,0.4,1.1,0.5l1.5,0.4c0.8,0.2,1.5,0.5,1.9,0.9
				s0.6,0.9,0.6,1.6c0,0.8-0.3,1.4-1,1.9s-1.5,0.7-2.6,0.7C857.1,273.9,855.9,273.5,855,272.8z"/>
			<path class="st6" d="M863.9,272.8l0.5-1.1c0.5,0.4,1,0.7,1.5,0.8c0.5,0.2,1.1,0.3,1.7,0.3c0.7,0,1.2-0.1,1.6-0.4
				c0.4-0.2,0.5-0.6,0.5-1s-0.1-0.6-0.4-0.9c-0.2-0.2-0.6-0.4-1.2-0.5l-1.5-0.4c-0.8-0.2-1.3-0.5-1.8-0.9s-0.6-0.9-0.6-1.5
				c0-0.8,0.3-1.4,1-1.9c0.6-0.5,1.5-0.7,2.5-0.7c0.6,0,1.2,0.1,1.8,0.3c0.6,0.2,1,0.5,1.4,0.9l-0.5,1.1c-0.9-0.7-1.8-1.1-2.7-1.1
				c-0.6,0-1.1,0.1-1.5,0.4c-0.4,0.2-0.5,0.6-0.5,1s0.1,0.7,0.3,0.9c0.2,0.2,0.6,0.4,1.1,0.5l1.5,0.4c0.8,0.2,1.5,0.5,1.9,0.9
				s0.6,0.9,0.6,1.6c0,0.8-0.3,1.4-1,1.9s-1.5,0.7-2.6,0.7C866,273.9,864.8,273.5,863.9,272.8z"/>
		</g>
	</g>
	<g>
		<polygon class="st5" points="983.8,1.8 847,1.8 847,85.8 898.7,85.8 915.4,103.3 932.1,85.8 983.8,85.8 		"/>
		<path class="st9" d="M915.4,103.8l-16.9-17.7h-51.9V1.4h137.5v84.8h-51.9L915.4,103.8z M847.4,85.4h51.5l16.5,17.3l16.5-17.3h51.5
			V2.2h-136V85.4z"/>
	</g>
	<rect x="848" y="11.1" class="st7" width="136.7" height="63.5"/>
	<g class="st8">
		<path class="st9" d="M894.5,23.3h-6.7l-1.4,3.3h-1.5l5.6-12.8h1.3l5.6,12.8h-1.5L894.5,23.3z M894,22l-2.8-6.6l-2.8,6.6H894z"/>
		<path class="st9" d="M907.2,17.5v9c0,1.3-0.3,2.4-1,3.1s-1.7,1-3.1,1c-1.4,0-2.6-0.3-3.6-0.9l0.3-1.2c0.6,0.3,1.1,0.6,1.6,0.7
			s1.1,0.2,1.7,0.2c0.9,0,1.5-0.2,2-0.7c0.4-0.5,0.7-1.1,0.7-2.1v-2.1c-0.3,0.6-0.7,1-1.2,1.3s-1.2,0.5-1.9,0.5
			c-0.8,0-1.5-0.2-2.1-0.6s-1.1-0.9-1.4-1.6c-0.3-0.7-0.5-1.5-0.5-2.4s0.2-1.7,0.5-2.4s0.8-1.2,1.4-1.6s1.3-0.6,2.1-0.6
			c0.7,0,1.3,0.2,1.9,0.5c0.5,0.3,0.9,0.8,1.2,1.3v-1.6h1.4V17.5z M905,24.2c0.5-0.6,0.7-1.4,0.7-2.4s-0.2-1.8-0.7-2.4
			s-1.2-0.9-2.1-0.9c-0.9,0-1.6,0.3-2.1,0.9s-0.8,1.4-0.8,2.4s0.3,1.8,0.8,2.4s1.2,0.9,2.1,0.9S904.5,24.8,905,24.2z"/>
		<path class="st9" d="M917.6,22H911c0,1.2,0.3,2,0.8,2.6s1.3,0.9,2.3,0.9c1.1,0,2-0.4,2.9-1.1l0.5,1.1c-0.4,0.4-0.9,0.7-1.5,0.9
			s-1.3,0.3-1.9,0.3c-1.4,0-2.5-0.4-3.3-1.3c-0.8-0.8-1.2-2-1.2-3.4c0-0.9,0.2-1.7,0.5-2.5c0.4-0.7,0.9-1.3,1.5-1.7
			c0.6-0.4,1.4-0.6,2.2-0.6c1.2,0,2.1,0.4,2.8,1.2c0.7,0.8,1,1.9,1,3.2V22z M911.9,19.1c-0.5,0.5-0.8,1.1-0.9,1.9h5.3
			c-0.1-0.9-0.3-1.5-0.7-1.9s-1-0.7-1.8-0.7S912.4,18.6,911.9,19.1z"/>
		<path class="st9" d="M927.6,20.9v5.7h-1.5V21c0-0.8-0.2-1.5-0.5-1.8s-0.9-0.6-1.6-0.6c-0.8,0-1.5,0.3-2,0.8s-0.8,1.2-0.8,2.1v5.2
			h-1.5V20c0-0.9,0-1.8-0.1-2.5h1.4l0.1,1.6c0.3-0.6,0.7-1,1.2-1.4c0.6-0.3,1.2-0.5,1.9-0.5C926.5,17.3,927.6,18.5,927.6,20.9z"/>
		<path class="st9" d="M931.8,26.1c-0.7-0.4-1.2-0.9-1.5-1.6c-0.4-0.7-0.5-1.5-0.5-2.5c0-0.9,0.2-1.8,0.5-2.5s0.9-1.3,1.5-1.7
			c0.7-0.4,1.4-0.6,2.3-0.6c0.6,0,1.2,0.1,1.8,0.3c0.6,0.2,1,0.5,1.4,0.9l-0.5,1.1c-0.5-0.4-0.9-0.6-1.3-0.8s-0.9-0.3-1.3-0.3
			c-0.9,0-1.7,0.3-2.2,0.9s-0.8,1.5-0.8,2.6s0.3,1.9,0.8,2.5s1.3,0.9,2.2,0.9c0.4,0,0.9-0.1,1.3-0.3s0.9-0.4,1.3-0.8l0.5,1.1
			c-0.4,0.4-0.9,0.6-1.4,0.9c-0.6,0.2-1.2,0.3-1.8,0.3C933.2,26.7,932.5,26.5,931.8,26.1z"/>
		<path class="st9" d="M947.2,17.5l-4.2,9.9c-0.4,1-1,1.8-1.7,2.3s-1.5,0.8-2.5,1l-0.3-1.1c0.9-0.2,1.5-0.4,1.9-0.8
			c0.4-0.3,0.8-0.8,1.1-1.5l0.4-0.8l-3.8-9h1.5l3.1,7.5l3.1-7.5H947.2z"/>
	</g>
	<g class="st8">
		<path class="st9" d="M868.8,44.9h-6.7l-1.4,3.3h-1.5l5.6-12.8h1.3l5.6,12.8h-1.5L868.8,44.9z M868.3,43.6l-2.8-6.6l-2.8,6.6H868.3
			z"/>
		<path class="st9" d="M881,39.1v9.1h-1.4v-1.6c-0.3,0.6-0.7,1-1.2,1.3s-1.1,0.4-1.7,0.4c-1.1,0-1.9-0.3-2.4-0.9
			c-0.6-0.6-0.8-1.5-0.8-2.7v-5.6h1.5v5.6c0,0.8,0.2,1.4,0.5,1.8s0.8,0.6,1.5,0.6c0.8,0,1.5-0.3,1.9-0.8c0.5-0.5,0.7-1.2,0.7-2.1
			v-5.1H881z"/>
		<path class="st9" d="M885.8,40.2v5c0,0.7,0.1,1.1,0.4,1.4c0.3,0.3,0.7,0.4,1.2,0.4c0.3,0,0.7-0.1,1-0.2V48
			c-0.4,0.1-0.8,0.2-1.3,0.2c-0.9,0-1.5-0.2-2-0.7s-0.7-1.2-0.7-2.2v-5.1h-1.8V39h1.8v-2.3l1.5-0.5V39h2.6v1.2
			C888.5,40.2,885.8,40.2,885.8,40.2z"/>
		<path class="st9" d="M897.9,42.5v5.7h-1.5v-5.6c0-0.8-0.2-1.5-0.5-1.8s-0.9-0.6-1.6-0.6c-0.8,0-1.5,0.3-2,0.8s-0.8,1.2-0.8,2.1
			v5.2H890V34.9h1.5v5.7c0.3-0.6,0.7-1,1.2-1.3s1.1-0.4,1.8-0.4C896.8,38.9,897.9,40.1,897.9,42.5z"/>
		<path class="st9" d="M902.1,47.7c-0.6-0.4-1.1-0.9-1.5-1.6c-0.4-0.7-0.5-1.5-0.5-2.5c0-0.9,0.2-1.8,0.5-2.5
			c0.4-0.7,0.9-1.3,1.5-1.6c0.6-0.4,1.4-0.6,2.2-0.6c0.9,0,1.6,0.2,2.2,0.6c0.6,0.4,1.1,0.9,1.5,1.6c0.4,0.7,0.5,1.5,0.5,2.5
			c0,0.9-0.2,1.8-0.5,2.5c-0.4,0.7-0.9,1.3-1.5,1.6c-0.6,0.4-1.4,0.6-2.2,0.6S902.8,48.1,902.1,47.7z M906.5,46.2
			c0.5-0.6,0.7-1.5,0.7-2.6s-0.2-2-0.7-2.6s-1.2-0.9-2.1-0.9c-0.9,0-1.6,0.3-2.1,0.9c-0.5,0.6-0.7,1.5-0.7,2.6s0.2,2,0.7,2.6
			s1.2,0.9,2.1,0.9C905.3,47.1,906,46.8,906.5,46.2z"/>
		<path class="st9" d="M916,39v1.3c-0.3-0.1-0.6-0.1-1-0.1c-0.9,0-1.5,0.3-2,0.8c-0.4,0.5-0.6,1.2-0.6,2v5.2h-1.5v-6.5
			c0-0.9,0-1.8-0.1-2.5h1.4l0.1,1.7c0.2-0.6,0.6-1.1,1.1-1.4c0.5-0.3,1.1-0.5,1.7-0.5C915.5,38.9,915.7,38.9,916,39z"/>
		<path class="st9" d="M919.1,35.3V37h-1.8v-1.7H919.1z M917.5,39.1h1.5v9.1h-1.5V39.1z"/>
		<path class="st9" d="M928.9,47v1.2h-7.6v-1l5.7-6.9h-5.5v-1.2h7.3v1.1L923,47H928.9z"/>
		<path class="st9" d="M938.8,39.1v9.1h-1.4v-1.6c-0.3,0.6-0.7,1-1.2,1.3s-1.2,0.5-1.9,0.5c-0.8,0-1.5-0.2-2.1-0.6
			c-0.6-0.4-1.1-0.9-1.4-1.6s-0.5-1.5-0.5-2.5c0-0.9,0.2-1.8,0.5-2.5s0.8-1.3,1.4-1.7c0.6-0.4,1.3-0.6,2.1-0.6
			c0.7,0,1.3,0.2,1.9,0.5c0.5,0.3,0.9,0.8,1.2,1.3v-1.6C937.4,39.1,938.8,39.1,938.8,39.1z M936.7,46.2c0.5-0.6,0.7-1.5,0.7-2.6
			s-0.2-2-0.7-2.6s-1.2-0.9-2.1-0.9c-0.9,0-1.6,0.3-2.1,0.9s-0.7,1.5-0.7,2.6s0.2,2,0.7,2.6s1.2,0.9,2.1,0.9
			C935.5,47.1,936.2,46.8,936.7,46.2z"/>
		<path class="st9" d="M943.6,40.2v5c0,0.7,0.1,1.1,0.4,1.4c0.3,0.3,0.7,0.4,1.2,0.4c0.3,0,0.7-0.1,1-0.2V48
			c-0.4,0.1-0.8,0.2-1.3,0.2c-0.9,0-1.5-0.2-2-0.7s-0.7-1.2-0.7-2.2v-5.1h-1.8V39h1.8v-2.3l1.5-0.5V39h2.6v1.2
			C946.3,40.2,943.6,40.2,943.6,40.2z"/>
		<path class="st9" d="M949.6,35.3V37h-1.8v-1.7H949.6z M948,39.1h1.5v9.1H948V39.1z"/>
		<path class="st9" d="M953.7,47.7c-0.6-0.4-1.1-0.9-1.5-1.6c-0.4-0.7-0.5-1.5-0.5-2.5c0-0.9,0.2-1.8,0.5-2.5
			c0.4-0.7,0.9-1.3,1.5-1.6c0.6-0.4,1.4-0.6,2.2-0.6c0.9,0,1.6,0.2,2.2,0.6c0.6,0.4,1.1,0.9,1.5,1.6c0.4,0.7,0.5,1.5,0.5,2.5
			c0,0.9-0.2,1.8-0.5,2.5c-0.4,0.7-0.9,1.3-1.5,1.6c-0.6,0.4-1.4,0.6-2.2,0.6C955.1,48.3,954.4,48.1,953.7,47.7z M958.1,46.2
			c0.5-0.6,0.7-1.5,0.7-2.6s-0.2-2-0.7-2.6s-1.2-0.9-2.1-0.9c-0.9,0-1.6,0.3-2.1,0.9c-0.5,0.6-0.7,1.5-0.7,2.6s0.2,2,0.7,2.6
			s1.2,0.9,2.1,0.9C956.9,47.1,957.6,46.8,958.1,46.2z"/>
		<path class="st9" d="M970.3,42.5v5.7h-1.5v-5.6c0-0.8-0.2-1.5-0.5-1.8s-0.9-0.6-1.6-0.6c-0.8,0-1.5,0.3-2,0.8s-0.8,1.2-0.8,2.1
			v5.2h-1.5v-6.5c0-0.9,0-1.8-0.1-2.5h1.4l0.1,1.6c0.3-0.6,0.7-1,1.2-1.4c0.6-0.3,1.2-0.5,1.9-0.5C969.2,38.9,970.3,40.1,970.3,42.5
			z"/>
	</g>
	<g class="st8">
		<path class="st9" d="M884.9,56.9h5.1c1.3,0,2.3,0.3,3.1,1c0.7,0.6,1.1,1.5,1.1,2.6s-0.4,2-1.1,2.6c-0.7,0.6-1.8,1-3.1,1h-3.6v5.6
			h-1.5V56.9z M889.9,62.9c0.9,0,1.7-0.2,2.1-0.6c0.5-0.4,0.7-1,0.7-1.8s-0.2-1.4-0.7-1.8c-0.5-0.4-1.2-0.6-2.1-0.6h-3.5v4.7
			L889.9,62.9L889.9,62.9z"/>
		<path class="st9" d="M901.3,60.6v1.3c-0.3-0.1-0.6-0.1-1-0.1c-0.9,0-1.5,0.3-2,0.8c-0.4,0.5-0.6,1.2-0.6,2v5.2h-1.5v-6.5
			c0-0.9,0-1.8-0.1-2.5h1.4l0.1,1.7c0.2-0.6,0.6-1.1,1.1-1.4s1.1-0.5,1.7-0.5C900.8,60.5,901,60.5,901.3,60.6z"/>
		<path class="st9" d="M904.1,69.3c-0.6-0.4-1.1-0.9-1.5-1.6s-0.5-1.5-0.5-2.5c0-0.9,0.2-1.8,0.5-2.5c0.4-0.7,0.9-1.3,1.5-1.6
			c0.6-0.4,1.4-0.6,2.2-0.6c0.9,0,1.6,0.2,2.2,0.6c0.6,0.4,1.1,0.9,1.5,1.6c0.4,0.7,0.5,1.5,0.5,2.5c0,0.9-0.2,1.8-0.5,2.5
			c-0.4,0.7-0.9,1.3-1.5,1.6c-0.6,0.4-1.4,0.6-2.2,0.6S904.7,69.7,904.1,69.3z M908.4,67.8c0.5-0.6,0.7-1.5,0.7-2.6s-0.2-2-0.7-2.6
			s-1.2-0.9-2.1-0.9c-0.9,0-1.6,0.3-2.1,0.9c-0.5,0.6-0.7,1.5-0.7,2.6s0.2,2,0.7,2.6s1.2,0.9,2.1,0.9
			C907.2,68.7,907.9,68.4,908.4,67.8z"/>
		<path class="st9" d="M914.4,69.3c-0.7-0.4-1.2-0.9-1.5-1.6c-0.4-0.7-0.5-1.5-0.5-2.5c0-0.9,0.2-1.8,0.5-2.5
			c0.4-0.7,0.9-1.3,1.5-1.7c0.7-0.4,1.4-0.6,2.3-0.6c0.6,0,1.2,0.1,1.8,0.3s1,0.5,1.4,0.9l-0.5,1.1c-0.5-0.4-0.9-0.6-1.3-0.8
			s-0.9-0.3-1.3-0.3c-0.9,0-1.7,0.3-2.2,0.9c-0.5,0.6-0.8,1.5-0.8,2.6s0.3,1.9,0.8,2.5s1.3,0.9,2.2,0.9c0.4,0,0.9-0.1,1.3-0.3
			s0.9-0.4,1.3-0.8l0.5,1.1c-0.4,0.4-0.9,0.6-1.4,0.9c-0.6,0.2-1.2,0.3-1.8,0.3C915.8,69.9,915,69.7,914.4,69.3z"/>
		<path class="st9" d="M929.4,65.2h-6.6c0,1.2,0.3,2,0.8,2.6s1.3,0.9,2.3,0.9c1.1,0,2-0.4,2.9-1.1l0.5,1.1c-0.4,0.4-0.9,0.7-1.5,0.9
			s-1.3,0.3-1.9,0.3c-1.4,0-2.5-0.4-3.3-1.3s-1.2-2-1.2-3.4c0-0.9,0.2-1.7,0.5-2.5s0.9-1.3,1.5-1.7s1.4-0.6,2.2-0.6
			c1.2,0,2.1,0.4,2.8,1.2s1,1.9,1,3.2V65.2z M923.7,62.3c-0.5,0.5-0.8,1.1-0.9,1.9h5.3c-0.1-0.9-0.3-1.5-0.7-1.9s-1-0.7-1.8-0.7
			S924.2,61.8,923.7,62.3z"/>
		<path class="st9" d="M931,68.7l0.5-1.1c0.5,0.4,1,0.7,1.5,0.8s1.1,0.3,1.7,0.3c0.7,0,1.2-0.1,1.6-0.4c0.4-0.2,0.5-0.6,0.5-1
			s-0.1-0.6-0.4-0.9c-0.2-0.2-0.6-0.4-1.2-0.5l-1.5-0.4c-0.8-0.2-1.3-0.5-1.8-0.9s-0.6-0.9-0.6-1.5c0-0.8,0.3-1.4,1-1.9
			c0.6-0.5,1.5-0.7,2.5-0.7c0.6,0,1.2,0.1,1.8,0.3s1,0.5,1.4,0.9l-0.5,1.1c-0.9-0.7-1.8-1.1-2.7-1.1c-0.6,0-1.1,0.1-1.5,0.4
			c-0.4,0.2-0.5,0.6-0.5,1s0.1,0.7,0.3,0.9c0.2,0.2,0.6,0.4,1.1,0.5l1.5,0.4c0.8,0.2,1.5,0.5,1.9,0.9s0.6,0.9,0.6,1.6
			c0,0.8-0.3,1.4-1,1.9c-0.6,0.5-1.5,0.7-2.6,0.7C933.1,69.9,931.9,69.5,931,68.7z"/>
		<path class="st9" d="M940,68.7l0.5-1.1c0.5,0.4,1,0.7,1.5,0.8s1.1,0.3,1.7,0.3c0.7,0,1.2-0.1,1.6-0.4c0.4-0.2,0.5-0.6,0.5-1
			s-0.1-0.6-0.4-0.9c-0.2-0.2-0.6-0.4-1.2-0.5l-1.5-0.4c-0.8-0.2-1.3-0.5-1.8-0.9s-0.6-0.9-0.6-1.5c0-0.8,0.3-1.4,1-1.9
			c0.6-0.5,1.5-0.7,2.5-0.7c0.6,0,1.2,0.1,1.8,0.3s1,0.5,1.4,0.9l-0.5,1.1c-0.9-0.7-1.8-1.1-2.7-1.1c-0.6,0-1.1,0.1-1.5,0.4
			c-0.4,0.2-0.5,0.6-0.5,1s0.1,0.7,0.3,0.9c0.2,0.2,0.6,0.4,1.1,0.5l1.5,0.4c0.8,0.2,1.5,0.5,1.9,0.9s0.6,0.9,0.6,1.6
			c0,0.8-0.3,1.4-1,1.9c-0.6,0.5-1.5,0.7-2.6,0.7C942.1,69.9,940.8,69.5,940,68.7z"/>
	</g>
	<g>
		<polygon class="st5" points="618.8,202.8 601.2,184.4 583.7,202.8 538.8,202.8 538.8,287.9 663.6,287.9 663.6,202.8 		"/>
		<path class="st6" d="M664,288.3H538.4v-85.9h45.1l17.7-18.6l17.8,18.6h45V288.3z M539.2,287.5h124v-84.4h-44.6l-17.4-18.2
			l-17.3,18.2h-44.7V287.5z"/>
	</g>
	<g>
		<polygon class="st5" points="827,1.8 690.2,1.8 690.2,85.8 741.9,85.8 758.6,103.3 775.2,85.8 827,85.8 		"/>
		<path class="st9" d="M758.6,103.8l-16.9-17.7h-51.9V1.4h137.5v84.8h-52L758.6,103.8z M690.6,85.4h51.5l16.5,17.3L775,85.4h51.6
			V2.2h-136V85.4z"/>
	</g>
	<rect x="690.2" y="21.7" class="st7" width="136.7" height="41.9"/>
	<g class="st8">
		<path class="st9" d="M708.7,24.3h7.9v1.2h-6.5V30h6.1v1.2h-6.1v5.9h-1.5L708.7,24.3L708.7,24.3z"/>
		<path class="st9" d="M726.1,28.1v9.1h-1.4v-1.6c-0.3,0.6-0.7,1-1.2,1.3s-1.1,0.4-1.7,0.4c-1.1,0-1.9-0.3-2.4-0.9
			c-0.6-0.6-0.8-1.5-0.8-2.7v-5.6h1.5v5.6c0,0.8,0.2,1.4,0.5,1.8s0.8,0.6,1.5,0.6c0.8,0,1.5-0.3,1.9-0.8c0.5-0.5,0.7-1.2,0.7-2.1
			v-5.1H726.1z"/>
		<path class="st9" d="M728.9,23.9h1.5v13.2h-1.5V23.9z"/>
		<path class="st9" d="M733.1,23.9h1.5v13.2h-1.5V23.9z"/>
		<path class="st9" d="M741.6,35.7l0.6-1.1c0.6,0.5,1.3,0.9,1.9,1.2c0.7,0.2,1.4,0.3,2.3,0.3c1,0,1.8-0.2,2.4-0.6
			c0.6-0.4,0.8-1,0.8-1.7c0-0.4-0.1-0.8-0.4-1.1c-0.3-0.3-0.6-0.5-1.1-0.6c-0.4-0.2-1-0.3-1.8-0.5c-1-0.2-1.8-0.5-2.4-0.7
			s-1.2-0.6-1.5-1.1c-0.4-0.5-0.6-1.1-0.6-1.9c0-0.7,0.2-1.4,0.6-1.9c0.4-0.6,0.9-1,1.6-1.3c0.7-0.3,1.5-0.5,2.5-0.5
			c0.9,0,1.7,0.1,2.5,0.4s1.4,0.7,1.9,1.2l-0.6,1.1c-0.6-0.5-1.2-0.9-1.8-1.1s-1.3-0.4-2-0.4c-1,0-1.8,0.2-2.3,0.6
			c-0.6,0.4-0.8,1-0.8,1.8c0,0.6,0.2,1.1,0.7,1.5c0.5,0.3,1.2,0.6,2.3,0.8c1.1,0.3,2,0.5,2.6,0.7s1.2,0.6,1.6,1
			c0.4,0.4,0.6,1,0.6,1.8c0,0.7-0.2,1.4-0.6,1.9c-0.4,0.5-0.9,1-1.6,1.3s-1.6,0.4-2.5,0.4C744.4,37.3,742.8,36.8,741.6,35.7z"/>
		<path class="st9" d="M760.9,32.6h-6.6c0,1.2,0.3,2,0.8,2.6s1.3,0.9,2.3,0.9c1.1,0,2-0.4,2.9-1.1l0.5,1.1c-0.4,0.4-0.9,0.7-1.5,0.9
			s-1.3,0.3-1.9,0.3c-1.4,0-2.5-0.4-3.3-1.3c-0.8-0.8-1.2-2-1.2-3.4c0-0.9,0.2-1.7,0.5-2.5c0.4-0.7,0.9-1.3,1.5-1.7
			c0.6-0.4,1.4-0.6,2.2-0.6c1.2,0,2.1,0.4,2.8,1.2c0.7,0.8,1,1.9,1,3.2V32.6z M755.2,29.7c-0.5,0.5-0.8,1.1-0.9,1.9h5.3
			c-0.1-0.9-0.3-1.5-0.7-1.9s-1-0.7-1.8-0.7S755.7,29.2,755.2,29.7z"/>
		<path class="st9" d="M764.6,36.7c-0.7-0.4-1.2-0.9-1.5-1.6c-0.4-0.7-0.5-1.5-0.5-2.5c0-0.9,0.2-1.8,0.5-2.5
			c0.4-0.7,0.9-1.3,1.5-1.7c0.7-0.4,1.4-0.6,2.3-0.6c0.6,0,1.2,0.1,1.8,0.3c0.6,0.2,1,0.5,1.4,0.9l-0.5,1.1
			c-0.5-0.4-0.9-0.6-1.3-0.8S767.4,29,767,29c-0.9,0-1.7,0.3-2.2,0.9s-0.8,1.5-0.8,2.6s0.3,1.9,0.8,2.5s1.3,0.9,2.2,0.9
			c0.4,0,0.9-0.1,1.3-0.3s0.9-0.4,1.3-0.8l0.5,1.1c-0.4,0.4-0.9,0.6-1.4,0.9c-0.6,0.2-1.2,0.3-1.8,0.3
			C766.1,37.3,765.3,37.1,764.6,36.7z"/>
		<path class="st9" d="M779.6,28.1v9.1h-1.4v-1.6c-0.3,0.6-0.7,1-1.2,1.3s-1.1,0.4-1.7,0.4c-1.1,0-1.9-0.3-2.4-0.9
			c-0.6-0.6-0.8-1.5-0.8-2.7v-5.6h1.5v5.6c0,0.8,0.2,1.4,0.5,1.8s0.8,0.6,1.5,0.6c0.8,0,1.5-0.3,1.9-0.8c0.5-0.5,0.7-1.2,0.7-2.1
			v-5.1H779.6z"/>
		<path class="st9" d="M787.5,28v1.3c-0.3-0.1-0.6-0.1-1-0.1c-0.9,0-1.5,0.3-2,0.8c-0.4,0.5-0.6,1.2-0.6,2v5.2h-1.5v-6.5
			c0-0.9,0-1.8-0.1-2.5h1.4l0.1,1.7c0.2-0.6,0.6-1.1,1.1-1.4s1.1-0.5,1.7-0.5C786.9,27.9,787.2,27.9,787.5,28z"/>
		<path class="st9" d="M790.6,24.3V26h-1.8v-1.7H790.6z M788.9,28.1h1.5v9.1h-1.5V28.1z"/>
		<path class="st9" d="M795.2,29.2v5c0,0.7,0.1,1.1,0.4,1.4c0.3,0.3,0.7,0.4,1.2,0.4c0.3,0,0.7-0.1,1-0.2V37
			c-0.4,0.1-0.8,0.2-1.3,0.2c-0.9,0-1.5-0.2-2-0.7s-0.7-1.2-0.7-2.2v-5.1H792V28h1.8v-2.3l1.5-0.5V28h2.6v1.2
			C797.9,29.2,795.2,29.2,795.2,29.2z"/>
		<path class="st9" d="M807.6,28.1l-4.2,9.9c-0.4,1-1,1.8-1.7,2.3s-1.5,0.8-2.5,1l-0.3-1.1c0.9-0.2,1.5-0.4,1.9-0.8
			c0.4-0.3,0.8-0.8,1.1-1.5l0.4-0.8l-3.8-9h1.5l3.1,7.5l3.1-7.5C806.2,28.1,807.6,28.1,807.6,28.1z"/>
	</g>
	<g class="st8">
		<path class="st9" d="M717.2,55.5h-6.7l-1.4,3.3h-1.5l5.6-12.8h1.3l5.6,12.8h-1.5L717.2,55.5z M716.7,54.2l-2.8-6.6l-2.8,6.6H716.7
			z"/>
		<path class="st9" d="M721.2,57.7l0.5-1.1c0.5,0.4,1,0.7,1.5,0.8c0.5,0.2,1.1,0.3,1.7,0.3c0.7,0,1.2-0.1,1.6-0.4
			c0.4-0.2,0.5-0.6,0.5-1s-0.1-0.6-0.4-0.9c-0.2-0.2-0.6-0.4-1.2-0.5l-1.5-0.4c-0.8-0.2-1.3-0.5-1.8-0.9s-0.6-0.9-0.6-1.5
			c0-0.8,0.3-1.4,1-1.9c0.6-0.5,1.5-0.7,2.5-0.7c0.6,0,1.2,0.1,1.8,0.3s1,0.5,1.4,0.9l-0.5,1.1c-0.9-0.7-1.8-1.1-2.7-1.1
			c-0.6,0-1.1,0.1-1.5,0.4c-0.4,0.2-0.5,0.6-0.5,1s0.1,0.7,0.3,0.9s0.6,0.4,1.1,0.5l1.5,0.4c0.8,0.2,1.5,0.5,1.9,0.9
			s0.6,0.9,0.6,1.6c0,0.8-0.3,1.4-1,1.9s-1.5,0.7-2.6,0.7C723.3,58.9,722.1,58.5,721.2,57.7z"/>
		<path class="st9" d="M730.1,57.7l0.5-1.1c0.5,0.4,1,0.7,1.5,0.8c0.5,0.2,1.1,0.3,1.7,0.3c0.7,0,1.2-0.1,1.6-0.4
			c0.4-0.2,0.5-0.6,0.5-1s-0.1-0.6-0.4-0.9c-0.2-0.2-0.6-0.4-1.2-0.5l-1.5-0.4c-0.8-0.2-1.3-0.5-1.8-0.9s-0.6-0.9-0.6-1.5
			c0-0.8,0.3-1.4,1-1.9c0.6-0.5,1.5-0.7,2.5-0.7c0.6,0,1.2,0.1,1.8,0.3s1,0.5,1.4,0.9l-0.5,1.1c-0.9-0.7-1.8-1.1-2.7-1.1
			c-0.6,0-1.1,0.1-1.5,0.4c-0.4,0.2-0.5,0.6-0.5,1s0.1,0.7,0.3,0.9s0.6,0.4,1.1,0.5l1.5,0.4c0.8,0.2,1.5,0.5,1.9,0.9
			s0.6,0.9,0.6,1.6c0,0.8-0.3,1.4-1,1.9s-1.5,0.7-2.6,0.7C732.2,58.9,731,58.5,730.1,57.7z"/>
		<path class="st9" d="M747.2,54.2h-6.6c0,1.2,0.3,2,0.8,2.6s1.3,0.9,2.3,0.9c1.1,0,2-0.4,2.9-1.1l0.5,1.1c-0.4,0.4-0.9,0.7-1.5,0.9
			s-1.3,0.3-1.9,0.3c-1.4,0-2.5-0.4-3.3-1.3c-0.8-0.8-1.2-2-1.2-3.4c0-0.9,0.2-1.7,0.5-2.5c0.4-0.7,0.9-1.3,1.5-1.7s1.4-0.6,2.2-0.6
			c1.2,0,2.1,0.4,2.8,1.2s1,1.9,1,3.2V54.2z M741.5,51.3c-0.5,0.5-0.8,1.1-0.9,1.9h5.3c-0.1-0.9-0.3-1.5-0.7-1.9s-1-0.7-1.8-0.7
			S742,50.8,741.5,51.3z"/>
		<path class="st9" d="M748.8,57.7l0.5-1.1c0.5,0.4,1,0.7,1.5,0.8c0.5,0.2,1.1,0.3,1.7,0.3c0.7,0,1.2-0.1,1.6-0.4
			c0.4-0.2,0.5-0.6,0.5-1s-0.1-0.6-0.4-0.9c-0.2-0.2-0.6-0.4-1.2-0.5l-1.5-0.4c-0.8-0.2-1.3-0.5-1.8-0.9s-0.6-0.9-0.6-1.5
			c0-0.8,0.3-1.4,1-1.9c0.6-0.5,1.5-0.7,2.5-0.7c0.6,0,1.2,0.1,1.8,0.3s1,0.5,1.4,0.9l-0.5,1.1c-0.9-0.7-1.8-1.1-2.7-1.1
			c-0.6,0-1.1,0.1-1.5,0.4c-0.4,0.2-0.5,0.6-0.5,1s0.1,0.7,0.3,0.9s0.6,0.4,1.1,0.5l1.5,0.4c0.8,0.2,1.5,0.5,1.9,0.9
			s0.6,0.9,0.6,1.6c0,0.8-0.3,1.4-1,1.9s-1.5,0.7-2.6,0.7C750.9,58.9,749.7,58.5,748.8,57.7z"/>
		<path class="st9" d="M757.7,57.7l0.5-1.1c0.5,0.4,1,0.7,1.5,0.8c0.5,0.2,1.1,0.3,1.7,0.3c0.7,0,1.2-0.1,1.6-0.4
			c0.4-0.2,0.5-0.6,0.5-1s-0.1-0.6-0.4-0.9c-0.2-0.2-0.6-0.4-1.2-0.5l-1.5-0.4c-0.8-0.2-1.3-0.5-1.8-0.9s-0.6-0.9-0.6-1.5
			c0-0.8,0.3-1.4,1-1.9c0.6-0.5,1.5-0.7,2.5-0.7c0.6,0,1.2,0.1,1.8,0.3s1,0.5,1.4,0.9l-0.5,1.1c-0.9-0.7-1.8-1.1-2.7-1.1
			c-0.6,0-1.1,0.1-1.5,0.4c-0.4,0.2-0.5,0.6-0.5,1s0.1,0.7,0.3,0.9s0.6,0.4,1.1,0.5l1.5,0.4c0.8,0.2,1.5,0.5,1.9,0.9
			s0.6,0.9,0.6,1.6c0,0.8-0.3,1.4-1,1.9s-1.5,0.7-2.6,0.7C759.8,58.9,758.6,58.5,757.7,57.7z"/>
		<path class="st9" d="M780.3,53.1v5.7h-1.5v-5.6c0-0.9-0.1-1.5-0.4-1.9s-0.8-0.6-1.4-0.6c-0.8,0-1.4,0.3-1.8,0.8
			c-0.4,0.5-0.6,1.2-0.6,2.1v5.2H773v-5.6c0-0.8-0.2-1.5-0.5-1.8s-0.8-0.6-1.4-0.6c-0.8,0-1.4,0.3-1.8,0.8c-0.4,0.5-0.7,1.2-0.7,2.1
			v5.2h-1.5v-6.5c0-0.9,0-1.8-0.1-2.5h1.4l0.1,1.6c0.3-0.6,0.6-1,1.1-1.3s1.1-0.5,1.7-0.5c0.7,0,1.3,0.1,1.8,0.4s0.8,0.7,1,1.3
			c0.3-0.5,0.7-1,1.2-1.3s1.1-0.5,1.8-0.5C779.3,49.5,780.3,50.7,780.3,53.1z"/>
		<path class="st9" d="M790.6,54.2H784c0,1.2,0.3,2,0.8,2.6s1.3,0.9,2.3,0.9c1.1,0,2-0.4,2.9-1.1l0.5,1.1c-0.4,0.4-0.9,0.7-1.5,0.9
			s-1.3,0.3-1.9,0.3c-1.4,0-2.5-0.4-3.3-1.3s-1.2-2-1.2-3.4c0-0.9,0.2-1.7,0.5-2.5s0.9-1.3,1.5-1.7s1.4-0.6,2.2-0.6
			c1.2,0,2.1,0.4,2.8,1.2s1,1.9,1,3.2V54.2z M785,51.3c-0.5,0.5-0.8,1.1-0.9,1.9h5.3c-0.1-0.9-0.3-1.5-0.7-1.9s-1-0.7-1.8-0.7
			S785.4,50.8,785,51.3z"/>
		<path class="st9" d="M800.6,53.1v5.7h-1.5v-5.6c0-0.8-0.2-1.5-0.5-1.8s-0.9-0.6-1.6-0.6c-0.8,0-1.5,0.3-2,0.8s-0.8,1.2-0.8,2.1
			v5.2h-1.5v-6.5c0-0.9,0-1.8-0.1-2.5h1.4l0.1,1.6c0.3-0.6,0.7-1,1.2-1.4c0.6-0.3,1.2-0.5,1.9-0.5C799.5,49.5,800.6,50.7,800.6,53.1
			z"/>
		<path class="st9" d="M805.3,50.8v5c0,0.7,0.1,1.1,0.4,1.4c0.3,0.3,0.7,0.4,1.2,0.4c0.3,0,0.7-0.1,1-0.2v1.2
			c-0.4,0.1-0.8,0.2-1.3,0.2c-0.9,0-1.5-0.2-2-0.7s-0.7-1.2-0.7-2.2v-5.1h-1.8v-1.2h1.8v-2.3l1.5-0.5v2.8h2.6v1.2
			C808,50.8,805.3,50.8,805.3,50.8z"/>
	</g>
	<g>
		<polygon class="st5" points="597.4,1.8 470.6,1.8 470.6,85.8 518.7,85.8 535.4,103.3 552.1,85.8 597.4,85.8 		"/>
		<path class="st9" d="M535.4,103.8l-16.9-17.7h-48.3V1.4h127.5v84.8h-45.5L535.4,103.8z M471,85.4h47.9l16.5,17.3l16.5-17.3H597
			V2.2H471V85.4z"/>
	</g>
	<g>
		<polygon class="st5" points="436.6,1.8 309.7,1.8 309.7,85.8 355.5,85.8 372.2,103.3 388.8,85.8 436.6,85.8 		"/>
		<path class="st9" d="M372.2,103.8l-16.9-17.7h-46V1.4H437v84.8h-48L372.2,103.8z M310.1,85.4h45.6l16.5,17.3l16.4-17.3h47.6V2.2
			H310.1V85.4z"/>
	</g>
	<g>
		<polygon class="st5" points="473.9,202.8 456.4,184.4 438.8,202.8 394,202.8 394,287.9 518.8,287.9 518.8,202.8 		"/>
		<path class="st6" d="M519.2,288.3H393.6v-85.9h45l17.8-18.6l17.7,18.6h45.1V288.3z M394.4,287.5h124v-84.4h-44.7l-17.3-18.2
			L439,203.2h-44.6V287.5z"/>
	</g>
	<g>
		<g>
			<polygon class="st5" points="329.1,202.8 311.6,184.4 294,202.8 249.1,202.8 249.1,287.9 374,287.9 374,202.8 			"/>
			<path class="st6" d="M374.4,288.3H248.7v-85.9h45.1l17.8-18.6l17.7,18.6h45.1V288.3z M249.5,287.5h124.1v-84.4h-44.7l-17.3-18.2
				l-17.4,18.2h-44.7L249.5,287.5L249.5,287.5z"/>
		</g>
	</g>
	<rect x="471" y="21.7" class="st7" width="125.6" height="41.9"/>
	<g class="st8">
		<path class="st9" d="M517.2,24.3h5.1c1.3,0,2.3,0.3,3.1,1c0.7,0.6,1.1,1.5,1.1,2.6s-0.4,2-1.1,2.6c-0.7,0.6-1.8,1-3.1,1h-3.6v5.6
			h-1.5V24.3z M522.2,30.3c0.9,0,1.7-0.2,2.1-0.6s0.7-1,0.7-1.8s-0.2-1.4-0.7-1.8s-1.2-0.6-2.1-0.6h-3.5v4.7L522.2,30.3L522.2,30.3z
			"/>
		<path class="st9" d="M533.6,28v1.3c-0.3-0.1-0.6-0.1-1-0.1c-0.9,0-1.5,0.3-2,0.8c-0.4,0.5-0.6,1.2-0.6,2v5.2h-1.5v-6.5
			c0-0.9,0-1.8-0.1-2.5h1.4l0.1,1.7c0.2-0.6,0.6-1.1,1.1-1.4s1.1-0.5,1.7-0.5C533.1,27.9,533.3,27.9,533.6,28z"/>
		<path class="st9" d="M542.5,32.6h-6.6c0,1.2,0.3,2,0.8,2.6s1.3,0.9,2.3,0.9c1.1,0,2-0.4,2.9-1.1l0.5,1.1c-0.4,0.4-0.9,0.7-1.5,0.9
			s-1.3,0.3-1.9,0.3c-1.4,0-2.5-0.4-3.3-1.3c-0.8-0.8-1.2-2-1.2-3.4c0-0.9,0.2-1.7,0.5-2.5c0.4-0.7,0.9-1.3,1.5-1.7
			c0.6-0.4,1.4-0.6,2.2-0.6c1.2,0,2.1,0.4,2.8,1.2s1,1.9,1,3.2V32.6z M536.8,29.7c-0.5,0.5-0.8,1.1-0.9,1.9h5.3
			c-0.1-0.9-0.3-1.5-0.7-1.9s-1-0.7-1.8-0.7S537.3,29.2,536.8,29.7z"/>
		<path class="st9" d="M544.8,31.7h5.1v1.2h-5.1V31.7z"/>
	</g>
	<g class="st8">
		<path class="st9" d="M486.1,55.4h-6.7l-1.4,3.3h-1.5l5.6-12.8h1.3l5.6,12.8h-1.5L486.1,55.4z M485.6,54.2l-2.8-6.6l-2.8,6.6H485.6
			z"/>
		<path class="st9" d="M498.3,49.7v9.1h-1.4v-1.6c-0.3,0.6-0.7,1-1.2,1.3s-1.1,0.4-1.7,0.4c-1.1,0-1.9-0.3-2.4-0.9
			c-0.6-0.6-0.8-1.5-0.8-2.7v-5.6h1.5v5.6c0,0.8,0.2,1.4,0.5,1.8s0.8,0.6,1.5,0.6c0.8,0,1.5-0.3,1.9-0.8c0.5-0.5,0.7-1.2,0.7-2.1
			v-5.1C496.9,49.7,498.3,49.7,498.3,49.7z"/>
		<path class="st9" d="M503.1,50.8v5c0,0.7,0.1,1.1,0.4,1.4c0.3,0.3,0.7,0.4,1.2,0.4c0.3,0,0.7-0.1,1-0.2v1.2
			c-0.4,0.1-0.8,0.2-1.3,0.2c-0.9,0-1.5-0.2-2-0.7s-0.7-1.2-0.7-2.2v-5.1h-1.8v-1.2h1.8v-2.3l1.5-0.5v2.8h2.6v1.2
			C505.8,50.8,503.1,50.8,503.1,50.8z"/>
		<path class="st9" d="M515.2,53v5.7h-1.5v-5.6c0-0.8-0.2-1.5-0.5-1.8s-0.9-0.6-1.6-0.6c-0.8,0-1.5,0.3-2,0.8s-0.8,1.2-0.8,2.1v5.2
			h-1.5V45.5h1.5v5.7c0.3-0.6,0.7-1,1.2-1.3s1.1-0.4,1.8-0.4C514.1,49.5,515.2,50.7,515.2,53z"/>
		<path class="st9" d="M519.4,58.3c-0.6-0.4-1.1-0.9-1.5-1.6s-0.5-1.5-0.5-2.5c0-0.9,0.2-1.8,0.5-2.5s0.9-1.3,1.5-1.6
			c0.6-0.4,1.4-0.6,2.2-0.6s1.6,0.2,2.2,0.6c0.6,0.4,1.1,0.9,1.5,1.6s0.5,1.5,0.5,2.5c0,0.9-0.2,1.8-0.5,2.5s-0.9,1.3-1.5,1.6
			c-0.6,0.4-1.4,0.6-2.2,0.6S520.1,58.7,519.4,58.3z M523.8,56.8c0.5-0.6,0.7-1.5,0.7-2.6s-0.2-2-0.7-2.6s-1.2-0.9-2.1-0.9
			c-0.9,0-1.6,0.3-2.1,0.9c-0.5,0.6-0.7,1.5-0.7,2.6s0.2,2,0.7,2.6s1.2,0.9,2.1,0.9S523.3,57.4,523.8,56.8z"/>
		<path class="st9" d="M533.3,49.6v1.3c-0.3-0.1-0.6-0.1-1-0.1c-0.9,0-1.5,0.3-2,0.8c-0.4,0.5-0.6,1.2-0.6,2v5.2h-1.5v-6.5
			c0-0.9,0-1.8-0.1-2.5h1.4l0.1,1.7c0.2-0.6,0.6-1.1,1.1-1.4c0.5-0.3,1.1-0.5,1.7-0.5C532.8,49.5,533,49.5,533.3,49.6z"/>
		<path class="st9" d="M536.4,45.8v1.7h-1.8v-1.7H536.4z M534.8,49.7h1.5v9.1h-1.5V49.7z"/>
		<path class="st9" d="M546.2,57.6v1.2h-7.6v-1l5.7-6.9h-5.5v-1.2h7.3v1.1l-5.7,6.8C540.4,57.6,546.2,57.6,546.2,57.6z"/>
		<path class="st9" d="M556.1,49.7v9.1h-1.4v-1.6c-0.3,0.6-0.7,1-1.2,1.3s-1.2,0.5-1.9,0.5c-0.8,0-1.5-0.2-2.1-0.6
			c-0.6-0.4-1.1-0.9-1.4-1.6s-0.5-1.5-0.5-2.5c0-0.9,0.2-1.8,0.5-2.5s0.8-1.3,1.4-1.7c0.6-0.4,1.3-0.6,2.1-0.6
			c0.7,0,1.3,0.2,1.9,0.5c0.5,0.3,0.9,0.8,1.2,1.3v-1.6C554.7,49.7,556.1,49.7,556.1,49.7z M554,56.7c0.5-0.6,0.7-1.5,0.7-2.6
			s-0.2-2-0.7-2.6s-1.2-0.9-2.1-0.9c-0.9,0-1.6,0.3-2.1,0.9s-0.7,1.5-0.7,2.6s0.2,2,0.7,2.6s1.2,0.9,2.1,0.9
			C552.8,57.7,553.5,57.4,554,56.7z"/>
		<path class="st9" d="M560.9,50.8v5c0,0.7,0.1,1.1,0.4,1.4c0.3,0.3,0.7,0.4,1.2,0.4c0.3,0,0.7-0.1,1-0.2v1.2
			c-0.4,0.1-0.8,0.2-1.3,0.2c-0.9,0-1.5-0.2-2-0.7s-0.7-1.2-0.7-2.2v-5.1h-1.8v-1.2h1.8v-2.3l1.5-0.5v2.8h2.6v1.2
			C563.6,50.8,560.9,50.8,560.9,50.8z"/>
		<path class="st9" d="M566.9,45.8v1.7h-1.8v-1.7H566.9z M565.3,49.7h1.5v9.1h-1.5V49.7z"/>
		<path class="st9" d="M571,58.3c-0.6-0.4-1.1-0.9-1.5-1.6s-0.5-1.5-0.5-2.5c0-0.9,0.2-1.8,0.5-2.5s0.9-1.3,1.5-1.6
			c0.6-0.4,1.4-0.6,2.2-0.6s1.6,0.2,2.2,0.6c0.6,0.4,1.1,0.9,1.5,1.6s0.5,1.5,0.5,2.5c0,0.9-0.2,1.8-0.5,2.5s-0.9,1.3-1.5,1.6
			c-0.6,0.4-1.4,0.6-2.2,0.6S571.7,58.7,571,58.3z M575.4,56.8c0.5-0.6,0.7-1.5,0.7-2.6s-0.2-2-0.7-2.6s-1.2-0.9-2.1-0.9
			c-0.9,0-1.6,0.3-2.1,0.9c-0.5,0.6-0.7,1.5-0.7,2.6s0.2,2,0.7,2.6s1.2,0.9,2.1,0.9S574.9,57.4,575.4,56.8z"/>
		<path class="st9" d="M587.6,53v5.7h-1.5v-5.6c0-0.8-0.2-1.5-0.5-1.8s-0.9-0.6-1.6-0.6c-0.8,0-1.5,0.3-2,0.8s-0.8,1.2-0.8,2.1v5.2
			h-1.5v-6.5c0-0.9,0-1.8-0.1-2.5h1.4l0.1,1.6c0.3-0.6,0.7-1,1.2-1.4c0.6-0.3,1.2-0.5,1.9-0.5C586.5,49.5,587.6,50.7,587.6,53z"/>
	</g>
	<rect x="310.1" y="21.7" class="st7" width="125.6" height="41.9"/>
	<g class="st8">
		<path class="st9" d="M340.7,37.1h-1.6l-1.6-4.3c-0.2-0.5-0.5-0.9-0.8-1.1s-0.8-0.3-1.4-0.3h-3.2V37h-1.5V24.3h5.1
			c1.4,0,2.4,0.3,3.2,0.9c0.7,0.6,1.1,1.5,1.1,2.6c0,0.8-0.2,1.5-0.7,2.1c-0.4,0.6-1.1,1-1.9,1.2c0.4,0.1,0.7,0.2,1,0.5
			s0.5,0.6,0.7,1.1L340.7,37.1z M335.6,30.3c2,0,3-0.8,3-2.4c0-0.8-0.2-1.4-0.7-1.8s-1.2-0.6-2.2-0.6h-3.5v4.8H335.6z"/>
		<path class="st9" d="M350.5,32.6h-6.6c0,1.2,0.3,2,0.8,2.6s1.3,0.9,2.3,0.9c1.1,0,2-0.4,2.9-1.1l0.5,1.1c-0.4,0.4-0.9,0.7-1.5,0.9
			s-1.3,0.3-1.9,0.3c-1.4,0-2.5-0.4-3.3-1.3c-0.8-0.8-1.2-2-1.2-3.4c0-0.9,0.2-1.7,0.5-2.5c0.4-0.7,0.9-1.3,1.5-1.7
			c0.6-0.4,1.4-0.6,2.2-0.6c1.2,0,2.1,0.4,2.8,1.2s1,1.9,1,3.2L350.5,32.6L350.5,32.6z M344.8,29.7c-0.5,0.5-0.8,1.1-0.9,1.9h5.3
			c-0.1-0.9-0.3-1.5-0.7-1.9c-0.4-0.4-1-0.7-1.8-0.7S345.3,29.2,344.8,29.7z"/>
		<path class="st9" d="M360.7,28.1v9.1h-1.4v-1.6c-0.3,0.6-0.7,1-1.2,1.3s-1.2,0.5-1.9,0.5c-0.8,0-1.5-0.2-2.1-0.6
			c-0.6-0.4-1.1-0.9-1.4-1.6s-0.5-1.5-0.5-2.5c0-0.9,0.2-1.8,0.5-2.5s0.8-1.3,1.4-1.7c0.6-0.4,1.3-0.6,2.1-0.6
			c0.7,0,1.3,0.2,1.9,0.5c0.5,0.3,0.9,0.8,1.2,1.3v-1.6C359.3,28.1,360.7,28.1,360.7,28.1z M358.5,35.1c0.5-0.6,0.7-1.5,0.7-2.6
			s-0.2-2-0.7-2.6s-1.2-0.9-2.1-0.9s-1.6,0.3-2.1,0.9s-0.7,1.5-0.7,2.6c0,1.1,0.2,2,0.7,2.6s1.2,0.9,2.1,0.9
			C357.4,36.1,358.1,35.8,358.5,35.1z"/>
		<path class="st9" d="M371.5,23.9v13.2h-1.4v-1.6c-0.3,0.6-0.7,1-1.2,1.3s-1.2,0.5-1.9,0.5c-0.8,0-1.5-0.2-2.1-0.6
			c-0.6-0.4-1.1-1-1.4-1.7s-0.5-1.5-0.5-2.5c0-0.9,0.2-1.8,0.5-2.5s0.8-1.2,1.4-1.6s1.3-0.6,2.1-0.6c0.7,0,1.3,0.2,1.9,0.5
			c0.5,0.3,0.9,0.7,1.2,1.3v-5.7C370.1,23.9,371.5,23.9,371.5,23.9z M369.3,35.1c0.5-0.6,0.7-1.5,0.7-2.6c0-1.1-0.2-2-0.7-2.6
			s-1.2-0.9-2.1-0.9s-1.6,0.3-2.1,0.9s-0.7,1.4-0.7,2.5c0,1.1,0.2,2,0.7,2.6s1.2,0.9,2.1,0.9C368.2,36.1,368.9,35.8,369.3,35.1z"/>
		<path class="st9" d="M376,24.2v1.7h-1.8v-1.7H376z M374.3,28.1h1.5v9.1h-1.5V28.1z"/>
		<path class="st9" d="M386.4,31.4v5.7h-1.5v-5.6c0-0.8-0.2-1.5-0.5-1.8s-0.9-0.6-1.6-0.6c-0.8,0-1.5,0.3-2,0.8S380,31.1,380,32v5.2
			h-1.5v-6.5c0-0.9,0-1.8-0.1-2.5h1.4l0.1,1.6c0.3-0.6,0.7-1,1.2-1.4c0.6-0.3,1.2-0.5,1.9-0.5C385.3,27.9,386.4,29.1,386.4,31.4z"/>
		<path class="st9" d="M396.7,32.6h-6.6c0,1.2,0.3,2,0.8,2.6s1.3,0.9,2.3,0.9c1.1,0,2-0.4,2.9-1.1l0.5,1.1c-0.4,0.4-0.9,0.7-1.5,0.9
			s-1.3,0.3-1.9,0.3c-1.4,0-2.5-0.4-3.3-1.3c-0.8-0.8-1.2-2-1.2-3.4c0-0.9,0.2-1.7,0.5-2.5c0.4-0.7,0.9-1.3,1.5-1.7
			c0.6-0.4,1.4-0.6,2.2-0.6c1.2,0,2.1,0.4,2.8,1.2s1,1.9,1,3.2L396.7,32.6L396.7,32.6z M391,29.7c-0.5,0.5-0.8,1.1-0.9,1.9h5.3
			c-0.1-0.9-0.3-1.5-0.7-1.9c-0.4-0.4-1-0.7-1.8-0.7S391.5,29.2,391,29.7z"/>
		<path class="st9" d="M398.4,36.1l0.5-1.1c0.5,0.4,1,0.7,1.5,0.8c0.5,0.2,1.1,0.3,1.7,0.3c0.7,0,1.2-0.1,1.6-0.4
			c0.4-0.2,0.5-0.6,0.5-1s-0.1-0.6-0.4-0.9c-0.2-0.2-0.6-0.4-1.2-0.5L401,33c-0.8-0.2-1.3-0.5-1.8-0.9s-0.6-0.9-0.6-1.5
			c0-0.8,0.3-1.4,1-1.9c0.6-0.5,1.5-0.7,2.5-0.7c0.6,0,1.2,0.1,1.8,0.3s1,0.5,1.4,0.9l-0.5,1.1c-0.9-0.7-1.8-1.1-2.7-1.1
			c-0.6,0-1.1,0.1-1.5,0.4s-0.5,0.6-0.5,1s0.1,0.7,0.3,0.9s0.6,0.4,1.1,0.5l1.5,0.4c0.8,0.2,1.5,0.5,1.9,0.9s0.6,0.9,0.6,1.6
			c0,0.8-0.3,1.4-1,1.9c-0.6,0.5-1.5,0.7-2.6,0.7C400.5,37.3,399.3,36.9,398.4,36.1z"/>
		<path class="st9" d="M407.3,36.1l0.5-1.1c0.5,0.4,1,0.7,1.5,0.8c0.5,0.2,1.1,0.3,1.7,0.3c0.7,0,1.2-0.1,1.6-0.4
			c0.4-0.2,0.5-0.6,0.5-1s-0.1-0.6-0.4-0.9c-0.2-0.2-0.6-0.4-1.2-0.5L410,33c-0.8-0.2-1.3-0.5-1.8-0.9s-0.6-0.9-0.6-1.5
			c0-0.8,0.3-1.4,1-1.9c0.6-0.5,1.5-0.7,2.5-0.7c0.6,0,1.2,0.1,1.8,0.3s1,0.5,1.4,0.9l-0.5,1.1c-0.9-0.7-1.8-1.1-2.7-1.1
			c-0.6,0-1.1,0.1-1.5,0.4s-0.5,0.6-0.5,1s0.1,0.7,0.3,0.9s0.6,0.4,1.1,0.5l1.5,0.4c0.8,0.2,1.5,0.5,1.9,0.9s0.6,0.9,0.6,1.6
			c0,0.8-0.3,1.4-1,1.9c-0.6,0.5-1.5,0.7-2.6,0.7C409.4,37.3,408.2,36.9,407.3,36.1z"/>
	</g>
	<g class="st8">
		<path class="st9" d="M331.5,55.4h-6.7l-1.4,3.3h-1.5l5.6-12.8h1.3l5.6,12.8h-1.5L331.5,55.4z M331,54.2l-2.8-6.6l-2.8,6.6H331z"/>
		<path class="st9" d="M335.5,57.7l0.5-1.1c0.5,0.4,1,0.7,1.5,0.8c0.5,0.2,1.1,0.3,1.7,0.3c0.7,0,1.2-0.1,1.6-0.4
			c0.4-0.2,0.5-0.6,0.5-1s-0.1-0.6-0.4-0.9c-0.2-0.2-0.6-0.4-1.2-0.5l-1.5-0.4c-0.8-0.2-1.3-0.5-1.8-0.9s-0.6-0.9-0.6-1.5
			c0-0.8,0.3-1.4,1-1.9c0.6-0.5,1.5-0.7,2.5-0.7c0.6,0,1.2,0.1,1.8,0.3s1,0.5,1.4,0.9l-0.5,1.1c-0.9-0.7-1.8-1.1-2.7-1.1
			c-0.6,0-1.1,0.1-1.5,0.4s-0.5,0.6-0.5,1s0.1,0.7,0.3,0.9s0.6,0.4,1.1,0.5l1.5,0.4c0.8,0.2,1.5,0.5,1.9,0.9s0.6,0.9,0.6,1.6
			c0,0.8-0.3,1.4-1,1.9c-0.6,0.5-1.5,0.7-2.6,0.7C337.6,58.9,336.4,58.5,335.5,57.7z"/>
		<path class="st9" d="M344.4,57.7l0.5-1.1c0.5,0.4,1,0.7,1.5,0.8c0.5,0.2,1.1,0.3,1.7,0.3c0.7,0,1.2-0.1,1.6-0.4
			c0.4-0.2,0.5-0.6,0.5-1s-0.1-0.6-0.4-0.9c-0.2-0.2-0.6-0.4-1.2-0.5l-1.5-0.4c-0.8-0.2-1.3-0.5-1.8-0.9s-0.6-0.9-0.6-1.5
			c0-0.8,0.3-1.4,1-1.9c0.6-0.5,1.5-0.7,2.5-0.7c0.6,0,1.2,0.1,1.8,0.3s1,0.5,1.4,0.9l-0.5,1.1c-0.9-0.7-1.8-1.1-2.7-1.1
			c-0.6,0-1.1,0.1-1.5,0.4s-0.5,0.6-0.5,1s0.1,0.7,0.3,0.9s0.6,0.4,1.1,0.5l1.5,0.4c0.8,0.2,1.5,0.5,1.9,0.9s0.6,0.9,0.6,1.6
			c0,0.8-0.3,1.4-1,1.9c-0.6,0.5-1.5,0.7-2.6,0.7C346.5,58.9,345.3,58.5,344.4,57.7z"/>
		<path class="st9" d="M361.5,54.2h-6.6c0,1.2,0.3,2,0.8,2.6s1.3,0.9,2.3,0.9c1.1,0,2-0.4,2.9-1.1l0.5,1.1c-0.4,0.4-0.9,0.7-1.5,0.9
			s-1.3,0.3-1.9,0.3c-1.4,0-2.5-0.4-3.3-1.3c-0.8-0.8-1.2-2-1.2-3.4c0-0.9,0.2-1.7,0.5-2.5c0.4-0.7,0.9-1.3,1.5-1.7s1.4-0.6,2.2-0.6
			c1.2,0,2.1,0.4,2.8,1.2s1,1.9,1,3.2L361.5,54.2L361.5,54.2z M355.8,51.3c-0.5,0.5-0.8,1.1-0.9,1.9h5.3c-0.1-0.9-0.3-1.5-0.7-1.9
			c-0.4-0.4-1-0.7-1.8-0.7S356.3,50.8,355.8,51.3z"/>
		<path class="st9" d="M363.1,57.7l0.5-1.1c0.5,0.4,1,0.7,1.5,0.8c0.5,0.2,1.1,0.3,1.7,0.3c0.7,0,1.2-0.1,1.6-0.4
			c0.4-0.2,0.5-0.6,0.5-1s-0.1-0.6-0.4-0.9c-0.2-0.2-0.6-0.4-1.2-0.5l-1.5-0.4c-0.8-0.2-1.3-0.5-1.8-0.9s-0.6-0.9-0.6-1.5
			c0-0.8,0.3-1.4,1-1.9c0.6-0.5,1.5-0.7,2.5-0.7c0.6,0,1.2,0.1,1.8,0.3s1,0.5,1.4,0.9l-0.5,1.1c-0.9-0.7-1.8-1.1-2.7-1.1
			c-0.6,0-1.1,0.1-1.5,0.4s-0.5,0.6-0.5,1s0.1,0.7,0.3,0.9s0.6,0.4,1.1,0.5l1.5,0.4c0.8,0.2,1.5,0.5,1.9,0.9s0.6,0.9,0.6,1.6
			c0,0.8-0.3,1.4-1,1.9c-0.6,0.5-1.5,0.7-2.6,0.7C365.2,58.9,364,58.5,363.1,57.7z"/>
		<path class="st9" d="M372.1,57.7l0.5-1.1c0.5,0.4,1,0.7,1.5,0.8c0.5,0.2,1.1,0.3,1.7,0.3c0.7,0,1.2-0.1,1.6-0.4
			c0.4-0.2,0.5-0.6,0.5-1s-0.1-0.6-0.4-0.9c-0.2-0.2-0.6-0.4-1.2-0.5l-1.5-0.4c-0.8-0.2-1.3-0.5-1.8-0.9s-0.6-0.9-0.6-1.5
			c0-0.8,0.3-1.4,1-1.9c0.6-0.5,1.5-0.7,2.5-0.7c0.6,0,1.2,0.1,1.8,0.3s1,0.5,1.4,0.9l-0.5,1.1c-0.9-0.7-1.8-1.1-2.7-1.1
			c-0.6,0-1.1,0.1-1.5,0.4s-0.5,0.6-0.5,1s0.1,0.7,0.3,0.9s0.6,0.4,1.1,0.5l1.5,0.4c0.8,0.2,1.5,0.5,1.9,0.9s0.6,0.9,0.6,1.6
			c0,0.8-0.3,1.4-1,1.9c-0.6,0.5-1.5,0.7-2.6,0.7C374.2,58.9,373,58.5,372.1,57.7z"/>
		<path class="st9" d="M394.6,53v5.7h-1.5v-5.6c0-0.9-0.1-1.5-0.4-1.9s-0.8-0.6-1.4-0.6c-0.8,0-1.4,0.3-1.8,0.8s-0.6,1.2-0.6,2.1
			v5.2h-1.5v-5.6c0-0.8-0.1-1.5-0.4-1.8c-0.3-0.4-0.8-0.6-1.4-0.6c-0.8,0-1.4,0.3-1.8,0.8s-0.7,1.2-0.7,2.1v5.2h-1.5v-6.5
			c0-0.9,0-1.8-0.1-2.5h1.4l0.1,1.6c0.3-0.6,0.6-1,1.1-1.3s1.1-0.5,1.7-0.5c0.7,0,1.3,0.1,1.8,0.4s0.8,0.7,1,1.3
			c0.3-0.5,0.7-1,1.2-1.3s1.1-0.5,1.8-0.5C393.6,49.5,394.6,50.7,394.6,53z"/>
		<path class="st9" d="M405,54.2h-6.6c0,1.2,0.3,2,0.8,2.6s1.3,0.9,2.3,0.9c1.1,0,2-0.4,2.9-1.1l0.5,1.1c-0.4,0.4-0.9,0.7-1.5,0.9
			s-1.3,0.3-1.9,0.3c-1.4,0-2.5-0.4-3.3-1.3c-0.8-0.8-1.2-2-1.2-3.4c0-0.9,0.2-1.7,0.5-2.5c0.4-0.7,0.9-1.3,1.5-1.7s1.4-0.6,2.2-0.6
			c1.2,0,2.1,0.4,2.8,1.2s1,1.9,1,3.2L405,54.2L405,54.2z M399.3,51.3c-0.5,0.5-0.8,1.1-0.9,1.9h5.3c-0.1-0.9-0.3-1.5-0.7-1.9
			c-0.4-0.4-1-0.7-1.8-0.7S399.8,50.8,399.3,51.3z"/>
		<path class="st9" d="M415,53v5.7h-1.5v-5.6c0-0.8-0.2-1.5-0.5-1.8s-0.9-0.6-1.6-0.6c-0.8,0-1.5,0.3-2,0.8s-0.8,1.2-0.8,2.1v5.2
			h-1.5v-6.5c0-0.9,0-1.8-0.1-2.5h1.4l0.1,1.6c0.3-0.6,0.7-1,1.2-1.4c0.6-0.3,1.2-0.5,1.9-0.5C413.9,49.5,415,50.7,415,53z"/>
		<path class="st9" d="M419.6,50.8v5c0,0.7,0.1,1.1,0.4,1.4c0.3,0.3,0.7,0.4,1.2,0.4c0.3,0,0.7-0.1,1-0.2v1.2
			c-0.4,0.1-0.8,0.2-1.3,0.2c-0.9,0-1.5-0.2-2-0.7s-0.7-1.2-0.7-2.2v-5.1h-1.8v-1.2h1.8v-2.3l1.5-0.5v2.8h2.6v1.2
			C422.3,50.8,419.6,50.8,419.6,50.8z"/>
	</g>
	<rect x="542" y="226.5" class="st7" width="116" height="41.9"/>
	<g class="st8">
		<path class="st6" d="M550.1,229.1h7.9v1.2h-6.5v4.4h6.1v1.2h-6.1v5.9H550L550.1,229.1L550.1,229.1z"/>
		<path class="st6" d="M567.5,232.9v9.1h-1.4v-1.6c-0.3,0.6-0.7,1-1.2,1.3s-1.1,0.4-1.7,0.4c-1.1,0-1.9-0.3-2.4-0.9
			c-0.6-0.6-0.8-1.5-0.8-2.7v-5.6h1.5v5.6c0,0.8,0.2,1.4,0.5,1.8s0.8,0.6,1.5,0.6c0.8,0,1.5-0.3,1.9-0.8c0.5-0.5,0.7-1.2,0.7-2.1
			v-5.1H567.5z"/>
		<path class="st6" d="M570.3,228.7h1.5v13.2h-1.5V228.7z"/>
		<path class="st6" d="M574.6,228.7h1.5v13.2h-1.5V228.7z"/>
		<path class="st6" d="M583,240.4l0.6-1.1c0.6,0.5,1.3,0.9,1.9,1.2c0.7,0.2,1.4,0.3,2.3,0.3c1,0,1.8-0.2,2.4-0.6
			c0.6-0.4,0.8-1,0.8-1.7c0-0.4-0.1-0.8-0.4-1.1c-0.3-0.3-0.6-0.5-1.1-0.6c-0.4-0.2-1-0.3-1.8-0.5c-1-0.2-1.8-0.5-2.4-0.7
			c-0.6-0.3-1.2-0.6-1.5-1.1c-0.4-0.5-0.6-1.1-0.6-1.9c0-0.7,0.2-1.4,0.6-1.9c0.4-0.6,0.9-1,1.6-1.3c0.7-0.3,1.5-0.5,2.5-0.5
			c0.9,0,1.7,0.1,2.5,0.4c0.8,0.3,1.4,0.7,1.9,1.2l-0.6,1.1c-0.6-0.5-1.2-0.9-1.8-1.1c-0.6-0.2-1.3-0.4-2-0.4c-1,0-1.8,0.2-2.3,0.6
			s-0.8,1-0.8,1.8c0,0.6,0.2,1.1,0.7,1.5c0.5,0.3,1.2,0.6,2.3,0.8c1.1,0.3,2,0.5,2.6,0.7s1.2,0.6,1.6,1c0.4,0.4,0.6,1,0.6,1.8
			c0,0.7-0.2,1.4-0.6,1.9c-0.4,0.5-0.9,1-1.6,1.3c-0.7,0.3-1.6,0.4-2.5,0.4C585.8,242.1,584.2,241.5,583,240.4z"/>
		<path class="st6" d="M602.3,237.3h-6.6c0,1.2,0.3,2,0.8,2.6s1.3,0.9,2.3,0.9c1.1,0,2-0.4,2.9-1.1l0.5,1.1
			c-0.4,0.4-0.9,0.7-1.5,0.9s-1.3,0.3-1.9,0.3c-1.4,0-2.5-0.4-3.3-1.3c-0.8-0.8-1.2-2-1.2-3.4c0-0.9,0.2-1.7,0.5-2.5
			c0.4-0.7,0.9-1.3,1.5-1.7s1.4-0.6,2.2-0.6c1.2,0,2.1,0.4,2.8,1.2s1,1.9,1,3.2V237.3z M596.7,234.5c-0.5,0.5-0.8,1.1-0.9,1.9h5.3
			c-0.1-0.9-0.3-1.5-0.7-1.9s-1-0.7-1.8-0.7S597.1,234,596.7,234.5z"/>
		<path class="st6" d="M606.1,241.5c-0.7-0.4-1.2-0.9-1.5-1.6s-0.5-1.5-0.5-2.5c0-0.9,0.2-1.8,0.5-2.5c0.4-0.7,0.9-1.3,1.5-1.7
			c0.7-0.4,1.4-0.6,2.3-0.6c0.6,0,1.2,0.1,1.8,0.3s1,0.5,1.4,0.9l-0.5,1.1c-0.5-0.4-0.9-0.6-1.3-0.8s-0.9-0.3-1.3-0.3
			c-0.9,0-1.7,0.3-2.2,0.9c-0.5,0.6-0.8,1.5-0.8,2.6s0.3,1.9,0.8,2.5s1.3,0.9,2.2,0.9c0.4,0,0.9-0.1,1.3-0.3s0.9-0.4,1.3-0.8
			l0.5,1.1c-0.4,0.4-0.9,0.6-1.4,0.9c-0.6,0.2-1.2,0.3-1.8,0.3C607.5,242,606.7,241.8,606.1,241.5z"/>
		<path class="st6" d="M621,232.9v9.1h-1.4v-1.6c-0.3,0.6-0.7,1-1.2,1.3s-1.1,0.4-1.7,0.4c-1.1,0-1.9-0.3-2.4-0.9
			c-0.6-0.6-0.8-1.5-0.8-2.7v-5.6h1.5v5.6c0,0.8,0.2,1.4,0.5,1.8s0.8,0.6,1.5,0.6c0.8,0,1.5-0.3,1.9-0.8c0.5-0.5,0.7-1.2,0.7-2.1
			v-5.1H621z"/>
		<path class="st6" d="M628.9,232.7v1.3c-0.3-0.1-0.6-0.1-1-0.1c-0.9,0-1.5,0.3-2,0.8c-0.4,0.5-0.6,1.2-0.6,2v5.2h-1.5v-6.5
			c0-0.9,0-1.8-0.1-2.5h1.4l0.1,1.7c0.2-0.6,0.6-1.1,1.1-1.4c0.5-0.3,1.1-0.5,1.7-0.5C628.4,232.6,628.6,232.7,628.9,232.7z"/>
		<path class="st6" d="M632,229v1.7h-1.8V229H632z M630.4,232.9h1.5v9.1h-1.5V232.9z"/>
		<path class="st6" d="M636.6,234v5c0,0.7,0.1,1.1,0.4,1.4c0.3,0.3,0.7,0.4,1.2,0.4c0.3,0,0.7-0.1,1-0.2v1.2
			c-0.4,0.1-0.8,0.2-1.3,0.2c-0.9,0-1.5-0.2-2-0.7s-0.7-1.2-0.7-2.2V234h-1.8v-1.2h1.8v-2.3l1.5-0.5v2.8h2.6v1.2H636.6z"/>
		<path class="st6" d="M649,232.9l-4.2,9.9c-0.4,1-1,1.8-1.7,2.3s-1.5,0.8-2.5,1l-0.3-1.1c0.9-0.2,1.5-0.4,1.9-0.8
			c0.4-0.3,0.8-0.8,1.1-1.5l0.4-0.8l-3.8-9h1.5l3.1,7.5l3.1-7.5L649,232.9L649,232.9z"/>
	</g>
	<g class="st8">
		<path class="st6" d="M558.6,260.2h-6.7l-1.4,3.3H549l5.6-12.8h1.3l5.6,12.8H560L558.6,260.2z M558.1,259l-2.8-6.6l-2.8,6.6H558.1z
			"/>
		<path class="st6" d="M562.6,262.5l0.5-1.1c0.5,0.4,1,0.7,1.5,0.8c0.5,0.2,1.1,0.3,1.7,0.3c0.7,0,1.2-0.1,1.6-0.4
			c0.4-0.2,0.5-0.6,0.5-1s-0.1-0.6-0.4-0.9c-0.2-0.2-0.6-0.4-1.2-0.5l-1.5-0.4c-0.8-0.2-1.3-0.5-1.8-0.9s-0.6-0.9-0.6-1.5
			c0-0.8,0.3-1.4,1-1.9c0.6-0.5,1.5-0.7,2.5-0.7c0.6,0,1.2,0.1,1.8,0.3s1,0.5,1.4,0.9l-0.5,1.1c-0.9-0.7-1.8-1.1-2.7-1.1
			c-0.6,0-1.1,0.1-1.5,0.4s-0.5,0.6-0.5,1s0.1,0.7,0.3,0.9s0.6,0.4,1.1,0.5l1.5,0.4c0.8,0.2,1.5,0.5,1.9,0.9s0.6,0.9,0.6,1.6
			c0,0.8-0.3,1.4-1,1.9c-0.6,0.5-1.5,0.7-2.6,0.7C564.7,263.6,563.5,263.2,562.6,262.5z"/>
		<path class="st6" d="M571.5,262.5l0.5-1.1c0.5,0.4,1,0.7,1.5,0.8c0.5,0.2,1.1,0.3,1.7,0.3c0.7,0,1.2-0.1,1.6-0.4
			c0.4-0.2,0.5-0.6,0.5-1s-0.1-0.6-0.4-0.9c-0.2-0.2-0.6-0.4-1.2-0.5l-1.5-0.4c-0.8-0.2-1.3-0.5-1.8-0.9s-0.6-0.9-0.6-1.5
			c0-0.8,0.3-1.4,1-1.9c0.6-0.5,1.5-0.7,2.5-0.7c0.6,0,1.2,0.1,1.8,0.3s1,0.5,1.4,0.9l-0.5,1.1c-0.9-0.7-1.8-1.1-2.7-1.1
			c-0.6,0-1.1,0.1-1.5,0.4s-0.5,0.6-0.5,1s0.1,0.7,0.3,0.9s0.6,0.4,1.1,0.5l1.5,0.4c0.8,0.2,1.5,0.5,1.9,0.9s0.6,0.9,0.6,1.6
			c0,0.8-0.3,1.4-1,1.9c-0.6,0.5-1.5,0.7-2.6,0.7C573.6,263.6,572.4,263.2,571.5,262.5z"/>
		<path class="st6" d="M588.6,258.9H582c0,1.2,0.3,2,0.8,2.6s1.3,0.9,2.3,0.9c1.1,0,2-0.4,2.9-1.1l0.5,1.1c-0.4,0.4-0.9,0.7-1.5,0.9
			s-1.3,0.3-1.9,0.3c-1.4,0-2.5-0.4-3.3-1.3c-0.8-0.8-1.2-2-1.2-3.4c0-0.9,0.2-1.7,0.5-2.5c0.4-0.7,0.9-1.3,1.5-1.7s1.4-0.6,2.2-0.6
			c1.2,0,2.1,0.4,2.8,1.2c0.7,0.8,1,1.9,1,3.2V258.9z M582.9,256.1c-0.5,0.5-0.8,1.1-0.9,1.9h5.3c-0.1-0.9-0.3-1.5-0.7-1.9
			s-1-0.7-1.8-0.7S583.4,255.6,582.9,256.1z"/>
		<path class="st6" d="M590.2,262.5l0.5-1.1c0.5,0.4,1,0.7,1.5,0.8c0.5,0.2,1.1,0.3,1.7,0.3c0.7,0,1.2-0.1,1.6-0.4
			c0.4-0.2,0.5-0.6,0.5-1s-0.1-0.6-0.4-0.9c-0.2-0.2-0.6-0.4-1.2-0.5l-1.5-0.4c-0.8-0.2-1.3-0.5-1.8-0.9s-0.6-0.9-0.6-1.5
			c0-0.8,0.3-1.4,1-1.9c0.6-0.5,1.5-0.7,2.5-0.7c0.6,0,1.2,0.1,1.8,0.3s1,0.5,1.4,0.9l-0.5,1.1c-0.9-0.7-1.8-1.1-2.7-1.1
			c-0.6,0-1.1,0.1-1.5,0.4s-0.5,0.6-0.5,1s0.1,0.7,0.3,0.9s0.6,0.4,1.1,0.5l1.5,0.4c0.8,0.2,1.5,0.5,1.9,0.9s0.6,0.9,0.6,1.6
			c0,0.8-0.3,1.4-1,1.9c-0.6,0.5-1.5,0.7-2.6,0.7C592.3,263.6,591.1,263.2,590.2,262.5z"/>
		<path class="st6" d="M599.2,262.5l0.5-1.1c0.5,0.4,1,0.7,1.5,0.8c0.5,0.2,1.1,0.3,1.7,0.3c0.7,0,1.2-0.1,1.6-0.4
			c0.4-0.2,0.5-0.6,0.5-1s-0.1-0.6-0.4-0.9c-0.2-0.2-0.6-0.4-1.2-0.5l-1.5-0.4c-0.8-0.2-1.3-0.5-1.8-0.9s-0.6-0.9-0.6-1.5
			c0-0.8,0.3-1.4,1-1.9c0.6-0.5,1.5-0.7,2.5-0.7c0.6,0,1.2,0.1,1.8,0.3s1,0.5,1.4,0.9l-0.5,1.1c-0.9-0.7-1.8-1.1-2.7-1.1
			c-0.6,0-1.1,0.1-1.5,0.4s-0.5,0.6-0.5,1s0.1,0.7,0.3,0.9s0.6,0.4,1.1,0.5l1.5,0.4c0.8,0.2,1.5,0.5,1.9,0.9s0.6,0.9,0.6,1.6
			c0,0.8-0.3,1.4-1,1.9c-0.6,0.5-1.5,0.7-2.6,0.7C601.3,263.6,600,263.2,599.2,262.5z"/>
		<path class="st6" d="M621.7,257.8v5.7h-1.5v-5.6c0-0.9-0.1-1.5-0.4-1.9c-0.3-0.4-0.8-0.6-1.4-0.6c-0.8,0-1.4,0.3-1.8,0.8
			c-0.4,0.5-0.6,1.2-0.6,2.1v5.2h-1.5v-5.6c0-0.8-0.1-1.5-0.4-1.8c-0.3-0.4-0.8-0.6-1.4-0.6c-0.8,0-1.4,0.3-1.8,0.8
			c-0.4,0.5-0.7,1.2-0.7,2.1v5.2h-1.5V257c0-0.9,0-1.8-0.1-2.5h1.4l0.1,1.6c0.3-0.6,0.6-1,1.1-1.3s1.1-0.5,1.7-0.5
			c0.7,0,1.3,0.1,1.8,0.4s0.8,0.7,1,1.3c0.3-0.5,0.7-1,1.2-1.3s1.1-0.5,1.8-0.5C620.7,254.2,621.7,255.4,621.7,257.8z"/>
		<path class="st6" d="M632,258.9h-6.6c0,1.2,0.3,2,0.8,2.6s1.3,0.9,2.3,0.9c1.1,0,2-0.4,2.9-1.1l0.5,1.1c-0.4,0.4-0.9,0.7-1.5,0.9
			s-1.3,0.3-1.9,0.3c-1.4,0-2.5-0.4-3.3-1.3c-0.8-0.8-1.2-2-1.2-3.4c0-0.9,0.2-1.7,0.5-2.5c0.4-0.7,0.9-1.3,1.5-1.7s1.4-0.6,2.2-0.6
			c1.2,0,2.1,0.4,2.8,1.2c0.7,0.8,1,1.9,1,3.2V258.9z M626.4,256.1c-0.5,0.5-0.8,1.1-0.9,1.9h5.3c-0.1-0.9-0.3-1.5-0.7-1.9
			s-1-0.7-1.8-0.7S626.8,255.6,626.4,256.1z"/>
		<path class="st6" d="M642,257.8v5.7h-1.5v-5.6c0-0.8-0.2-1.5-0.5-1.8c-0.3-0.4-0.9-0.6-1.6-0.6c-0.8,0-1.5,0.3-2,0.8
			c-0.5,0.5-0.8,1.2-0.8,2.1v5.2h-1.5V257c0-0.9,0-1.8-0.1-2.5h1.4l0.1,1.6c0.3-0.6,0.7-1,1.2-1.4c0.6-0.3,1.2-0.5,1.9-0.5
			C641,254.2,642,255.4,642,257.8z"/>
		<path class="st6" d="M646.7,255.6v5c0,0.7,0.1,1.1,0.4,1.4c0.3,0.3,0.7,0.4,1.2,0.4c0.3,0,0.7-0.1,1-0.2v1.2
			c-0.4,0.1-0.8,0.2-1.3,0.2c-0.9,0-1.5-0.2-2-0.7s-0.7-1.2-0.7-2.2v-5.1h-1.8v-1.2h1.8v-2.3l1.5-0.5v2.8h2.6v1.2L646.7,255.6
			L646.7,255.6z"/>
	</g>
	<rect x="394" y="227" class="st7" width="125" height="41.9"/>
	<g class="st8">
		<path class="st6" d="M424.3,242.4h-1.6l-1.6-4.3c-0.2-0.5-0.5-0.9-0.8-1.1c-0.3-0.2-0.8-0.3-1.4-0.3h-3.2v5.6h-1.5v-12.8h5.1
			c1.4,0,2.4,0.3,3.2,0.9c0.7,0.6,1.1,1.5,1.1,2.6c0,0.8-0.2,1.5-0.7,2.1c-0.4,0.6-1.1,1-1.9,1.2c0.4,0.1,0.7,0.2,1,0.5
			s0.5,0.6,0.7,1.1L424.3,242.4z M419.2,235.6c2,0,3-0.8,3-2.4c0-0.8-0.2-1.4-0.7-1.8c-0.5-0.4-1.2-0.6-2.2-0.6h-3.5v4.8H419.2z"/>
		<path class="st6" d="M434.1,237.9h-6.6c0,1.2,0.3,2,0.8,2.6s1.3,0.9,2.3,0.9c1.1,0,2-0.4,2.9-1.1l0.5,1.1
			c-0.4,0.4-0.9,0.7-1.5,0.9s-1.3,0.3-1.9,0.3c-1.4,0-2.5-0.4-3.3-1.3c-0.8-0.8-1.2-2-1.2-3.4c0-0.9,0.2-1.7,0.5-2.5
			c0.4-0.7,0.9-1.3,1.5-1.7s1.4-0.6,2.2-0.6c1.2,0,2.1,0.4,2.8,1.2s1,1.9,1,3.2L434.1,237.9L434.1,237.9z M428.4,235
			c-0.5,0.5-0.8,1.1-0.9,1.9h5.3c-0.1-0.9-0.3-1.5-0.7-1.9c-0.4-0.4-1-0.7-1.8-0.7S428.9,234.5,428.4,235z"/>
		<path class="st6" d="M444.3,233.4v9.1h-1.4v-1.6c-0.3,0.6-0.7,1-1.2,1.3s-1.2,0.5-1.9,0.5c-0.8,0-1.5-0.2-2.1-0.6
			c-0.6-0.4-1.1-0.9-1.4-1.6s-0.5-1.5-0.5-2.5c0-0.9,0.2-1.8,0.5-2.5s0.8-1.3,1.4-1.7s1.3-0.6,2.1-0.6c0.7,0,1.3,0.2,1.9,0.5
			c0.5,0.3,0.9,0.8,1.2,1.3v-1.6L444.3,233.4L444.3,233.4z M442.1,240.4c0.5-0.6,0.7-1.5,0.7-2.6s-0.2-2-0.7-2.6s-1.2-0.9-2.1-0.9
			s-1.6,0.3-2.1,0.9s-0.7,1.5-0.7,2.6s0.2,2,0.7,2.6s1.2,0.9,2.1,0.9C440.9,241.3,441.6,241,442.1,240.4z"/>
		<path class="st6" d="M455.1,229.2v13.2h-1.4v-1.6c-0.3,0.6-0.7,1-1.2,1.3s-1.2,0.5-1.9,0.5c-0.8,0-1.5-0.2-2.1-0.6
			c-0.6-0.4-1.1-1-1.4-1.7s-0.5-1.5-0.5-2.5c0-0.9,0.2-1.8,0.5-2.5s0.8-1.2,1.4-1.6c0.6-0.4,1.3-0.6,2.1-0.6c0.7,0,1.3,0.2,1.9,0.5
			c0.5,0.3,0.9,0.7,1.2,1.3v-5.7L455.1,229.2L455.1,229.2z M452.9,240.4c0.5-0.6,0.7-1.5,0.7-2.6s-0.2-2-0.7-2.6s-1.2-0.9-2.1-0.9
			s-1.6,0.3-2.1,0.9c-0.5,0.6-0.7,1.4-0.7,2.5s0.2,2,0.7,2.6s1.2,0.9,2.1,0.9C451.7,241.3,452.4,241,452.9,240.4z"/>
		<path class="st6" d="M459.5,229.5v1.7h-1.8v-1.7H459.5z M457.9,233.4h1.5v9.1h-1.5V233.4z"/>
		<path class="st6" d="M469.9,236.7v5.7h-1.5v-5.6c0-0.8-0.2-1.5-0.5-1.8s-0.9-0.6-1.6-0.6c-0.8,0-1.5,0.3-2,0.8s-0.8,1.2-0.8,2.1
			v5.2H462V236c0-0.9,0-1.8-0.1-2.5h1.4l0.1,1.6c0.3-0.6,0.7-1,1.2-1.4c0.6-0.3,1.2-0.5,1.9-0.5
			C468.9,233.2,469.9,234.3,469.9,236.7z"/>
		<path class="st6" d="M480.3,237.9h-6.6c0,1.2,0.3,2,0.8,2.6s1.3,0.9,2.3,0.9c1.1,0,2-0.4,2.9-1.1l0.5,1.1
			c-0.4,0.4-0.9,0.7-1.5,0.9s-1.3,0.3-1.9,0.3c-1.4,0-2.5-0.4-3.3-1.3c-0.8-0.8-1.2-2-1.2-3.4c0-0.9,0.2-1.7,0.5-2.5
			c0.4-0.7,0.9-1.3,1.5-1.7s1.4-0.6,2.2-0.6c1.2,0,2.1,0.4,2.8,1.2s1,1.9,1,3.2L480.3,237.9L480.3,237.9z M474.6,235
			c-0.5,0.5-0.8,1.1-0.9,1.9h5.3c-0.1-0.9-0.3-1.5-0.7-1.9c-0.4-0.4-1-0.7-1.8-0.7S475.1,234.5,474.6,235z"/>
		<path class="st6" d="M481.9,241.4l0.5-1.1c0.5,0.4,1,0.7,1.5,0.8c0.5,0.2,1.1,0.3,1.7,0.3c0.7,0,1.2-0.1,1.6-0.4
			c0.4-0.2,0.5-0.6,0.5-1s-0.1-0.6-0.4-0.9c-0.2-0.2-0.6-0.4-1.2-0.5l-1.5-0.4c-0.8-0.2-1.3-0.5-1.8-0.9s-0.6-0.9-0.6-1.5
			c0-0.8,0.3-1.4,1-1.9c0.6-0.5,1.5-0.7,2.5-0.7c0.6,0,1.2,0.1,1.8,0.3s1,0.5,1.4,0.9l-0.5,1.1c-0.9-0.7-1.8-1.1-2.7-1.1
			c-0.6,0-1.1,0.1-1.5,0.4s-0.5,0.6-0.5,1s0.1,0.7,0.3,0.9s0.6,0.4,1.1,0.5l1.5,0.4c0.8,0.2,1.5,0.5,1.9,0.9s0.6,0.9,0.6,1.6
			c0,0.8-0.3,1.4-1,1.9c-0.6,0.5-1.5,0.7-2.6,0.7C484,242.6,482.8,242.2,481.9,241.4z"/>
		<path class="st6" d="M490.9,241.4l0.5-1.1c0.5,0.4,1,0.7,1.5,0.8c0.5,0.2,1.1,0.3,1.7,0.3c0.7,0,1.2-0.1,1.6-0.4
			c0.4-0.2,0.5-0.6,0.5-1s-0.1-0.6-0.4-0.9c-0.2-0.2-0.6-0.4-1.2-0.5l-1.5-0.4c-0.8-0.2-1.3-0.5-1.8-0.9s-0.6-0.9-0.6-1.5
			c0-0.8,0.3-1.4,1-1.9c0.6-0.5,1.5-0.7,2.5-0.7c0.6,0,1.2,0.1,1.8,0.3s1,0.5,1.4,0.9l-0.5,1.1c-0.9-0.7-1.8-1.1-2.7-1.1
			c-0.6,0-1.1,0.1-1.5,0.4s-0.5,0.6-0.5,1s0.1,0.7,0.3,0.9s0.6,0.4,1.1,0.5l1.5,0.4c0.8,0.2,1.5,0.5,1.9,0.9s0.6,0.9,0.6,1.6
			c0,0.8-0.3,1.4-1,1.9c-0.6,0.5-1.5,0.7-2.6,0.7C493,242.6,491.7,242.2,490.9,241.4z"/>
	</g>
	<g class="st8">
		<path class="st6" d="M415.1,260.7h-6.7L407,264h-1.5l5.6-12.8h1.3L418,264h-1.5L415.1,260.7z M414.6,259.5l-2.8-6.6l-2.8,6.6
			H414.6z"/>
		<path class="st6" d="M419.1,263l0.5-1.1c0.5,0.4,1,0.7,1.5,0.8c0.5,0.2,1.1,0.3,1.7,0.3c0.7,0,1.2-0.1,1.6-0.3
			c0.4-0.2,0.5-0.6,0.5-1s-0.1-0.6-0.4-0.9c-0.2-0.2-0.6-0.4-1.2-0.5l-1.5-0.4c-0.8-0.2-1.3-0.5-1.8-0.9s-0.6-0.9-0.6-1.5
			c0-0.8,0.3-1.4,1-1.9c0.6-0.5,1.5-0.7,2.5-0.7c0.6,0,1.2,0.1,1.8,0.3c0.6,0.2,1,0.5,1.4,0.9l-0.5,1.1c-0.9-0.7-1.8-1.1-2.7-1.1
			c-0.6,0-1.1,0.1-1.5,0.4s-0.5,0.6-0.5,1s0.1,0.7,0.3,0.9c0.2,0.2,0.6,0.4,1.1,0.5l1.5,0.4c0.8,0.2,1.5,0.5,1.9,0.9
			s0.6,0.9,0.6,1.6c0,0.8-0.3,1.4-1,1.9c-0.6,0.5-1.5,0.7-2.6,0.7C421.2,264.2,420,263.8,419.1,263z"/>
		<path class="st6" d="M428,263l0.5-1.1c0.5,0.4,1,0.7,1.5,0.8c0.5,0.2,1.1,0.3,1.7,0.3c0.7,0,1.2-0.1,1.6-0.3
			c0.4-0.2,0.5-0.6,0.5-1s-0.1-0.6-0.4-0.9c-0.2-0.2-0.6-0.4-1.2-0.5l-1.5-0.4c-0.8-0.2-1.3-0.5-1.8-0.9s-0.6-0.9-0.6-1.5
			c0-0.8,0.3-1.4,1-1.9c0.6-0.5,1.5-0.7,2.5-0.7c0.6,0,1.2,0.1,1.8,0.3c0.6,0.2,1,0.5,1.4,0.9l-0.5,1.1c-0.9-0.7-1.8-1.1-2.7-1.1
			c-0.6,0-1.1,0.1-1.5,0.4s-0.5,0.6-0.5,1s0.1,0.7,0.3,0.9c0.2,0.2,0.6,0.4,1.1,0.5l1.5,0.4c0.8,0.2,1.5,0.5,1.9,0.9
			s0.6,0.9,0.6,1.6c0,0.8-0.3,1.4-1,1.9c-0.6,0.5-1.5,0.7-2.6,0.7C430.1,264.2,428.9,263.8,428,263z"/>
		<path class="st6" d="M445.1,259.5h-6.6c0,1.2,0.3,2,0.8,2.6s1.3,0.9,2.3,0.9c1.1,0,2-0.4,2.9-1.1l0.5,1.1
			c-0.4,0.4-0.9,0.7-1.5,0.9c-0.6,0.2-1.3,0.3-1.9,0.3c-1.4,0-2.5-0.4-3.3-1.2c-0.8-0.8-1.2-2-1.2-3.4c0-0.9,0.2-1.7,0.5-2.5
			c0.4-0.7,0.9-1.3,1.5-1.7s1.4-0.6,2.2-0.6c1.2,0,2.1,0.4,2.8,1.2c0.7,0.8,1,1.9,1,3.2L445.1,259.5L445.1,259.5z M439.4,256.6
			c-0.5,0.5-0.8,1.1-0.9,1.9h5.3c-0.1-0.9-0.3-1.5-0.7-1.9s-1-0.7-1.8-0.7S439.9,256.1,439.4,256.6z"/>
		<path class="st6" d="M446.7,263l0.5-1.1c0.5,0.4,1,0.7,1.5,0.8c0.5,0.2,1.1,0.3,1.7,0.3c0.7,0,1.2-0.1,1.6-0.3
			c0.4-0.2,0.5-0.6,0.5-1s-0.1-0.6-0.4-0.9c-0.2-0.2-0.6-0.4-1.2-0.5l-1.5-0.4c-0.8-0.2-1.3-0.5-1.8-0.9s-0.6-0.9-0.6-1.5
			c0-0.8,0.3-1.4,1-1.9c0.6-0.5,1.5-0.7,2.5-0.7c0.6,0,1.2,0.1,1.8,0.3c0.6,0.2,1,0.5,1.4,0.9l-0.5,1.1c-0.9-0.7-1.8-1.1-2.7-1.1
			c-0.6,0-1.1,0.1-1.5,0.4s-0.5,0.6-0.5,1s0.1,0.7,0.3,0.9c0.2,0.2,0.6,0.4,1.1,0.5l1.5,0.4c0.8,0.2,1.5,0.5,1.9,0.9
			s0.6,0.9,0.6,1.6c0,0.8-0.3,1.4-1,1.9c-0.6,0.5-1.5,0.7-2.6,0.7C448.8,264.2,447.6,263.8,446.7,263z"/>
		<path class="st6" d="M455.6,263l0.5-1.1c0.5,0.4,1,0.7,1.5,0.8c0.5,0.2,1.1,0.3,1.7,0.3c0.7,0,1.2-0.1,1.6-0.3
			c0.4-0.2,0.5-0.6,0.5-1s-0.1-0.6-0.4-0.9c-0.2-0.2-0.6-0.4-1.2-0.5l-1.5-0.4c-0.8-0.2-1.3-0.5-1.8-0.9s-0.6-0.9-0.6-1.5
			c0-0.8,0.3-1.4,1-1.9c0.6-0.5,1.5-0.7,2.5-0.7c0.6,0,1.2,0.1,1.8,0.3c0.6,0.2,1,0.5,1.4,0.9l-0.5,1.1c-0.9-0.7-1.8-1.1-2.7-1.1
			c-0.6,0-1.1,0.1-1.5,0.4s-0.5,0.6-0.5,1s0.1,0.7,0.3,0.9c0.2,0.2,0.6,0.4,1.1,0.5l1.5,0.4c0.8,0.2,1.5,0.5,1.9,0.9
			s0.6,0.9,0.6,1.6c0,0.8-0.3,1.4-1,1.9c-0.6,0.5-1.5,0.7-2.6,0.7C457.7,264.2,456.5,263.8,455.6,263z"/>
		<path class="st6" d="M478.2,258.3v5.7h-1.5v-5.6c0-0.9-0.1-1.5-0.4-1.9s-0.8-0.6-1.4-0.6c-0.8,0-1.4,0.3-1.8,0.8s-0.6,1.2-0.6,2.1
			v5.2H471v-5.6c0-0.8-0.1-1.5-0.4-1.8c-0.3-0.4-0.8-0.6-1.4-0.6c-0.8,0-1.4,0.3-1.8,0.8s-0.7,1.2-0.7,2.1v5.2h-1.5v-6.5
			c0-0.9,0-1.8-0.1-2.5h1.4l0.1,1.6c0.3-0.6,0.6-1,1.1-1.3s1.1-0.5,1.7-0.5c0.7,0,1.3,0.1,1.8,0.4c0.5,0.3,0.8,0.7,1,1.3
			c0.3-0.5,0.7-1,1.2-1.3s1.1-0.5,1.8-0.5C477.2,254.8,478.2,255.9,478.2,258.3z"/>
		<path class="st6" d="M488.5,259.5h-6.6c0,1.2,0.3,2,0.8,2.6s1.3,0.9,2.3,0.9c1.1,0,2-0.4,2.9-1.1l0.5,1.1
			c-0.4,0.4-0.9,0.7-1.5,0.9c-0.6,0.2-1.3,0.3-1.9,0.3c-1.4,0-2.5-0.4-3.3-1.2c-0.8-0.8-1.2-2-1.2-3.4c0-0.9,0.2-1.7,0.5-2.5
			c0.4-0.7,0.9-1.3,1.5-1.7s1.4-0.6,2.2-0.6c1.2,0,2.1,0.4,2.8,1.2c0.7,0.8,1,1.9,1,3.2L488.5,259.5L488.5,259.5z M482.8,256.6
			c-0.5,0.5-0.8,1.1-0.9,1.9h5.3c-0.1-0.9-0.3-1.5-0.7-1.9s-1-0.7-1.8-0.7S483.3,256.1,482.8,256.6z"/>
		<path class="st6" d="M498.5,258.3v5.7H497v-5.6c0-0.8-0.2-1.5-0.5-1.8c-0.3-0.4-0.9-0.6-1.6-0.6c-0.8,0-1.5,0.3-2,0.8
			s-0.8,1.2-0.8,2.1v5.2h-1.5v-6.5c0-0.9,0-1.8-0.1-2.5h1.4l0.1,1.6c0.3-0.6,0.7-1,1.2-1.4c0.6-0.3,1.2-0.5,1.9-0.5
			C497.4,254.8,498.5,255.9,498.5,258.3z"/>
		<path class="st6" d="M503.2,256.1v4.9c0,0.7,0.1,1.1,0.4,1.4s0.7,0.4,1.2,0.4c0.3,0,0.7-0.1,1-0.2v1.2c-0.4,0.1-0.8,0.2-1.3,0.2
			c-0.9,0-1.5-0.2-2-0.7s-0.7-1.2-0.7-2.2V256H500v-1h1.8v-2.3l1.5-0.5v2.8h2.6v1.2h-2.7V256.1z"/>
	</g>
	<rect x="249" y="227" class="st7" width="125" height="41.9"/>
	<g class="st8">
		<path class="st6" d="M270.8,229.6h7.9v1.2h-6.5v4.4h6.1v1.2h-6.1v5.9h-1.5v-12.7H270.8z"/>
		<path class="st6" d="M288.2,237.9h-6.6c0,1.2,0.3,2,0.8,2.6s1.3,0.9,2.3,0.9c1.1,0,2-0.4,2.9-1.1l0.5,1.1
			c-0.4,0.4-0.9,0.7-1.5,0.9s-1.3,0.3-1.9,0.3c-1.4,0-2.5-0.4-3.3-1.3c-0.8-0.8-1.2-2-1.2-3.4c0-0.9,0.2-1.7,0.5-2.5
			c0.4-0.7,0.9-1.3,1.5-1.7s1.4-0.6,2.2-0.6c1.2,0,2.1,0.4,2.8,1.2s1,1.9,1,3.2L288.2,237.9L288.2,237.9z M282.5,235
			c-0.5,0.5-0.8,1.1-0.9,1.9h5.3c-0.1-0.9-0.3-1.5-0.7-1.9c-0.4-0.4-1-0.7-1.8-0.7S283,234.5,282.5,235z"/>
		<path class="st6" d="M298.4,229.2v13.2H297v-1.6c-0.3,0.6-0.7,1-1.2,1.3s-1.2,0.5-1.9,0.5c-0.8,0-1.5-0.2-2.1-0.6
			c-0.6-0.4-1.1-1-1.4-1.7s-0.5-1.5-0.5-2.5c0-0.9,0.2-1.8,0.5-2.5s0.8-1.2,1.4-1.6c0.6-0.4,1.3-0.6,2.1-0.6c0.7,0,1.3,0.2,1.9,0.5
			c0.5,0.3,0.9,0.7,1.2,1.3v-5.7L298.4,229.2L298.4,229.2z M296.2,240.5c0.5-0.6,0.7-1.5,0.7-2.6s-0.2-2-0.7-2.6s-1.2-0.9-2.1-0.9
			s-1.6,0.3-2.1,0.9c-0.5,0.6-0.7,1.4-0.7,2.5s0.2,2,0.7,2.6s1.2,0.9,2.1,0.9C295.1,241.4,295.7,241.1,296.2,240.5z"/>
		<path class="st6" d="M311.4,242.4h-1.6l-1.6-4.3c-0.2-0.5-0.5-0.9-0.8-1.1c-0.3-0.2-0.8-0.3-1.4-0.3h-3.2v5.6h-1.5v-12.8h5.1
			c1.4,0,2.4,0.3,3.2,0.9c0.7,0.6,1.1,1.5,1.1,2.6c0,0.8-0.2,1.5-0.7,2.1c-0.4,0.6-1.1,1-1.9,1.2c0.4,0.1,0.7,0.2,1,0.5
			s0.5,0.6,0.7,1.1L311.4,242.4z M306.4,235.6c2,0,3-0.8,3-2.4c0-0.8-0.2-1.4-0.7-1.8c-0.5-0.4-1.2-0.6-2.2-0.6H303v4.8H306.4z"/>
		<path class="st6" d="M322.1,239.1h-6.7l-1.4,3.3h-1.5l5.6-12.8h1.3l5.6,12.8h-1.5L322.1,239.1z M321.6,237.9l-2.8-6.6l-2.8,6.6
			H321.6z"/>
		<path class="st6" d="M339.1,229.6v12.8h-1.4v-9.5l-4.2,9.5h-1l-4.2-9.5v9.5H327v-12.8h1.2l4.9,11.1l4.8-11.1H339.1z"/>
		<path class="st6" d="M342.2,229.6h5.1c1.3,0,2.3,0.3,3.1,1c0.7,0.6,1.1,1.5,1.1,2.6s-0.4,2-1.1,2.6s-1.8,1-3.1,1h-3.6v5.6h-1.5
			V229.6z M347.2,235.6c0.9,0,1.7-0.2,2.1-0.6s0.7-1,0.7-1.8s-0.2-1.4-0.7-1.8c-0.5-0.4-1.2-0.6-2.1-0.6h-3.5v4.7h3.5V235.6z"/>
	</g>
	<g class="st8">
		<path class="st6" d="M280.6,263.4c-0.9-0.5-1.6-1.3-2.1-2.3s-0.7-2.2-0.7-3.5s0.2-2.5,0.7-3.5s1.2-1.7,2.1-2.3s1.9-0.8,3.2-0.8
			c0.9,0,1.7,0.1,2.4,0.4c0.7,0.3,1.4,0.7,1.9,1.2l-0.6,1.1c-0.6-0.5-1.2-0.9-1.8-1.1c-0.6-0.2-1.3-0.3-2-0.3
			c-1.4,0-2.5,0.5-3.3,1.4s-1.2,2.2-1.2,3.9c0,1.7,0.4,3,1.2,3.9s1.9,1.4,3.3,1.4c0.7,0,1.4-0.1,2-0.3c0.6-0.2,1.2-0.6,1.8-1.1
			l0.6,1.1c-0.5,0.5-1.2,0.9-1.9,1.2c-0.7,0.3-1.6,0.4-2.4,0.4C282.5,264.2,281.4,263.9,280.6,263.4z"/>
		<path class="st6" d="M291.7,263.6c-0.6-0.4-1.1-0.9-1.5-1.6s-0.5-1.5-0.5-2.5c0-0.9,0.2-1.8,0.5-2.5s0.9-1.3,1.5-1.6
			c0.6-0.4,1.4-0.6,2.2-0.6s1.6,0.2,2.2,0.6c0.6,0.4,1.1,0.9,1.5,1.6s0.5,1.5,0.5,2.5c0,0.9-0.2,1.8-0.5,2.5s-0.9,1.3-1.5,1.6
			c-0.6,0.4-1.4,0.6-2.2,0.6S292.3,264,291.7,263.6z M296,262.1c0.5-0.6,0.7-1.5,0.7-2.6s-0.2-2-0.7-2.6s-1.2-0.9-2.1-0.9
			s-1.6,0.3-2.1,0.9s-0.7,1.5-0.7,2.6s0.2,2,0.7,2.6s1.2,0.9,2.1,0.9S295.5,262.7,296,262.1z"/>
		<path class="st6" d="M308.3,258.4v5.7h-1.5v-5.6c0-0.8-0.2-1.5-0.5-1.8s-0.9-0.6-1.6-0.6c-0.8,0-1.5,0.3-2,0.8s-0.8,1.2-0.8,2.1
			v5.2h-1.5v-6.5c0-0.9,0-1.8-0.1-2.5h1.4l0.1,1.6c0.3-0.6,0.7-1,1.2-1.4c0.6-0.3,1.2-0.5,1.9-0.5
			C307.2,254.8,308.3,256,308.3,258.4z"/>
		<path class="st6" d="M318.8,258.4v5.7h-1.5v-5.6c0-0.8-0.2-1.5-0.5-1.8s-0.9-0.6-1.6-0.6c-0.8,0-1.5,0.3-2,0.8s-0.8,1.2-0.8,2.1
			v5.2H311v-6.5c0-0.9,0-1.8-0.1-2.5h1.4l0.1,1.6c0.3-0.6,0.7-1,1.2-1.4c0.6-0.3,1.2-0.5,1.9-0.5C317.7,254.8,318.8,256,318.8,258.4
			z"/>
		<path class="st6" d="M329.1,259.5h-6.6c0,1.2,0.3,2,0.8,2.6s1.3,0.9,2.3,0.9c1.1,0,2-0.4,2.9-1.1l0.5,1.1
			c-0.4,0.4-0.9,0.7-1.5,0.9s-1.3,0.3-1.9,0.3c-1.4,0-2.5-0.4-3.3-1.3c-0.8-0.8-1.2-2-1.2-3.4c0-0.9,0.2-1.7,0.5-2.5
			c0.4-0.7,0.9-1.3,1.5-1.7s1.4-0.6,2.2-0.6c1.2,0,2.1,0.4,2.8,1.2c0.7,0.8,1,1.9,1,3.2L329.1,259.5L329.1,259.5z M323.4,256.6
			c-0.5,0.5-0.8,1.1-0.9,1.9h5.3c-0.1-0.9-0.3-1.5-0.7-1.9c-0.4-0.4-1-0.7-1.8-0.7S323.9,256.1,323.4,256.6z"/>
		<path class="st6" d="M332.8,263.6c-0.7-0.4-1.2-0.9-1.5-1.6s-0.5-1.5-0.5-2.5c0-0.9,0.2-1.8,0.5-2.5c0.4-0.7,0.9-1.3,1.5-1.7
			c0.7-0.4,1.4-0.6,2.3-0.6c0.6,0,1.2,0.1,1.8,0.3s1,0.5,1.4,0.9l-0.5,1.1c-0.5-0.4-0.9-0.6-1.3-0.8s-0.9-0.3-1.3-0.3
			c-0.9,0-1.7,0.3-2.2,0.9s-0.8,1.5-0.8,2.6s0.3,1.9,0.8,2.5s1.3,0.9,2.2,0.9c0.4,0,0.9-0.1,1.3-0.3s0.9-0.4,1.3-0.8l0.5,1.1
			c-0.4,0.4-0.9,0.6-1.4,0.9c-0.6,0.2-1.2,0.3-1.8,0.3C334.3,264.2,333.5,264,332.8,263.6z"/>
		<path class="st6" d="M342.2,256.1v5c0,0.7,0.1,1.1,0.4,1.4s0.7,0.4,1.2,0.4c0.3,0,0.7-0.1,1-0.2v1.2c-0.4,0.1-0.8,0.2-1.3,0.2
			c-0.9,0-1.5-0.2-2-0.7s-0.7-1.2-0.7-2.2v-5.1H339V255h1.8v-2.3l1.5-0.5v2.8h2.6v1.2h-2.7V256.1z"/>
	</g>
	<path id="Path_11101_3_" class="st5" d="M1261.9,177.2h-257.4l14.8-32.9l-14.8-33h257.4l16,33L1261.9,177.2z"/>
	<path id="Path_11098_2_" class="st10" d="M978.7,177.2h-284l13.4-32.9l-13.4-33h284l14.5,33L978.7,177.2z"/>
	<path id="Path_11100_4_" class="st10" d="M216.4,177.2H0.2v-66h216.2l14.5,33L216.4,177.2z"/>
	<path id="Path_11287_4_" class="st10" d="M670.2,177.2H247.9l13.9-32.9l-13.9-33h422.3l13.9,33L670.2,177.2z"/>
	<path id="Path_11343_3_" class="st10" d="M1265.1,177.1h-35.9v-4.7h32.8l0.6-1.4l11.4-26l0.4-0.9l-0.4-1l-11.4-26l-0.6-1.4h-201.1
		v6.7l-12.1-9l12.1-9v6.5h204.2l14.5,33.1L1265.1,177.1z"/>
	<g class="st8">
		<path class="st5" d="M81.7,139.4l0.8-1.8c1,0.8,2.6,1.4,4.2,1.4c2,0,2.8-0.7,2.8-1.6c0-2.7-7.5-0.9-7.5-5.6c0-2,1.6-3.8,5.1-3.8
			c1.5,0,3.1,0.4,4.2,1.1l-0.7,1.8c-1.1-0.7-2.4-1-3.5-1c-1.9,0-2.7,0.8-2.7,1.7c0,2.7,7.5,0.9,7.5,5.6c0,2-1.6,3.7-5.1,3.7
			C84.7,140.9,82.8,140.3,81.7,139.4z"/>
		<path class="st5" d="M102.9,136.6h-7.5c0.3,1.4,1.4,2.3,3.1,2.3c1.1,0,1.9-0.3,2.6-1l1.2,1.4c-0.9,1-2.2,1.6-3.9,1.6
			c-3.2,0-5.3-2.1-5.3-4.9c0-2.9,2.1-4.9,5-4.9c2.8,0,4.9,2,4.9,5C102.9,136.1,102.9,136.4,102.9,136.6z M95.3,135.1h5.5
			c-0.2-1.4-1.2-2.3-2.7-2.3C96.6,132.8,95.6,133.7,95.3,135.1z"/>
		<path class="st5" d="M105.1,127.3h2.3v13.4h-2.3V127.3z"/>
		<path class="st5" d="M119.3,136.6h-7.5c0.3,1.4,1.4,2.3,3.1,2.3c1.1,0,1.9-0.3,2.6-1l1.2,1.4c-0.9,1-2.2,1.6-3.9,1.6
			c-3.2,0-5.3-2.1-5.3-4.9c0-2.9,2.1-4.9,5-4.9c2.8,0,4.9,2,4.9,5C119.3,136.1,119.3,136.4,119.3,136.6z M111.7,135.1h5.5
			c-0.2-1.4-1.2-2.3-2.7-2.3S112,133.7,111.7,135.1z"/>
		<path class="st5" d="M120.7,135.9c0-2.9,2.2-4.9,5.2-4.9c1.9,0,3.4,0.8,4.1,2.2l-1.7,1c-0.6-0.9-1.4-1.3-2.4-1.3
			c-1.7,0-2.9,1.2-2.9,3c0,1.9,1.3,3,2.9,3c1,0,1.8-0.4,2.4-1.3l1.7,1c-0.7,1.4-2.2,2.3-4.1,2.3
			C122.9,140.8,120.7,138.8,120.7,135.9z"/>
		<path class="st5" d="M137.9,140.2c-0.5,0.4-1.4,0.6-2.2,0.6c-2.1,0-3.3-1.1-3.3-3.2V133h-1.6v-1.8h1.6V129h2.3v2.2h2.6v1.8h-2.6
			v4.6c0,0.9,0.5,1.4,1.3,1.4c0.5,0,0.9-0.1,1.3-0.4L137.9,140.2z"/>
	</g>
	<g class="st8">
		<path class="st5" d="M32.5,157.7h-6.3l-1.2,2.9h-2.4l5.7-12.6h2.3l5.7,12.6h-2.4L32.5,157.7z M31.7,155.8l-2.4-5.5l-2.4,5.5H31.7z
			"/>
		<path class="st5" d="M46.7,151v9.6h-2.1v-1.2c-0.7,0.9-1.9,1.4-3.1,1.4c-2.5,0-4.1-1.4-4.1-4.2V151h2.3v5.2c0,1.7,0.8,2.6,2.3,2.6
			c1.6,0,2.6-1,2.6-2.9V151H46.7z"/>
		<path class="st5" d="M55.4,160c-0.5,0.4-1.4,0.6-2.2,0.6c-2.1,0-3.3-1.1-3.3-3.2v-4.6h-1.6V151H50v-2.2h2.3v2.2h2.6v1.8h-2.6v4.6
			c0,0.9,0.5,1.4,1.3,1.4c0.5,0,0.9-0.1,1.3-0.4L55.4,160z"/>
		<path class="st5" d="M66.8,155.1v5.5h-2.3v-5.2c0-1.7-0.8-2.5-2.3-2.5c-1.6,0-2.7,1-2.7,2.9v4.9h-2.3v-13.4h2.3v4.9
			c0.7-0.8,1.9-1.2,3.2-1.2C65.1,150.8,66.8,152.2,66.8,155.1z"/>
		<path class="st5" d="M68.9,155.8c0-2.9,2.2-4.9,5.1-4.9c3,0,5.1,2,5.1,4.9s-2.1,4.9-5.1,4.9C71.1,160.7,68.9,158.6,68.9,155.8z
			 M76.9,155.8c0-1.8-1.2-3-2.9-3c-1.6,0-2.8,1.2-2.8,3s1.2,3,2.8,3C75.7,158.8,76.9,157.6,76.9,155.8z"/>
		<path class="st5" d="M86.9,150.8v2.1c-0.2,0-0.4-0.1-0.5-0.1c-1.7,0-2.8,1-2.8,3v4.7h-2.3V151h2.1v1.4
			C84.1,151.3,85.3,150.8,86.9,150.8z"/>
		<path class="st5" d="M88.5,148c0-0.8,0.6-1.4,1.4-1.4s1.4,0.6,1.4,1.3c0,0.8-0.6,1.4-1.4,1.4C89.1,149.4,88.5,148.8,88.5,148z
			 M88.8,151H91v9.6h-2.3V151H88.8z"/>
		<path class="st5" d="M101.5,158.8v1.8h-8.3v-1.4l5.3-6.4h-5.2V151h8v1.4l-5.3,6.4L101.5,158.8L101.5,158.8z"/>
		<path class="st5" d="M111.6,154.9v5.6h-2.1v-1.2c-0.5,0.8-1.6,1.3-3,1.3c-2.2,0-3.6-1.2-3.6-2.9c0-1.6,1.1-2.9,4-2.9h2.5v-0.1
			c0-1.3-0.8-2.1-2.4-2.1c-1.1,0-2.2,0.4-2.9,1l-0.9-1.6c1-0.8,2.5-1.2,4.1-1.2C110,150.8,111.6,152.2,111.6,154.9z M109.4,157.6
			v-1.1H107c-1.5,0-1.9,0.6-1.9,1.3c0,0.8,0.7,1.3,1.8,1.3C108,159.1,109,158.6,109.4,157.6z"/>
		<path class="st5" d="M120.3,160c-0.5,0.4-1.4,0.6-2.2,0.6c-2.1,0-3.3-1.1-3.3-3.2v-4.6h-1.6V151h1.6v-2.2h2.3v2.2h2.6v1.8h-2.6
			v4.6c0,0.9,0.5,1.4,1.3,1.4c0.5,0,0.9-0.1,1.3-0.4L120.3,160z"/>
		<path class="st5" d="M121.8,148c0-0.8,0.6-1.4,1.4-1.4s1.4,0.6,1.4,1.3c0,0.8-0.6,1.4-1.4,1.4C122.4,149.4,121.8,148.8,121.8,148z
			 M122.1,151h2.3v9.6h-2.3V151z"/>
		<path class="st5" d="M126.5,155.8c0-2.9,2.2-4.9,5.1-4.9c3,0,5.1,2,5.1,4.9s-2.1,4.9-5.1,4.9C128.7,160.7,126.5,158.6,126.5,155.8
			z M134.5,155.8c0-1.8-1.2-3-2.9-3c-1.6,0-2.8,1.2-2.8,3s1.2,3,2.8,3C133.3,158.8,134.5,157.6,134.5,155.8z"/>
		<path class="st5" d="M148.4,155.1v5.5h-2.3v-5.2c0-1.7-0.8-2.5-2.3-2.5c-1.6,0-2.7,1-2.7,2.9v4.9h-2.3V151h2.1v1.2
			c0.7-0.9,1.9-1.4,3.3-1.4C146.7,150.8,148.4,152.2,148.4,155.1z"/>
		<path class="st5" d="M167,152.4c0,2.8-2.1,4.5-5.4,4.5h-2.8v3.6h-2.3V148h5.2C165,148,167,149.7,167,152.4z M164.6,152.4
			c0-1.6-1.1-2.5-3.1-2.5h-2.7v5h2.7C163.6,155,164.6,154,164.6,152.4z"/>
		<path class="st5" d="M177.1,154.9v5.6H175v-1.2c-0.5,0.8-1.6,1.3-3,1.3c-2.2,0-3.6-1.2-3.6-2.9c0-1.6,1.1-2.9,4-2.9h2.5v-0.1
			c0-1.3-0.8-2.1-2.4-2.1c-1.1,0-2.2,0.4-2.9,1l-0.9-1.6c1-0.8,2.5-1.2,4.1-1.2C175.5,150.8,177.1,152.2,177.1,154.9z M174.8,157.6
			v-1.1h-2.3c-1.5,0-1.9,0.6-1.9,1.3c0,0.8,0.7,1.3,1.8,1.3C173.5,159.1,174.5,158.6,174.8,157.6z"/>
		<path class="st5" d="M185.7,160c-0.5,0.4-1.4,0.6-2.2,0.6c-2.1,0-3.3-1.1-3.3-3.2v-4.6h-1.6V151h1.6v-2.2h2.3v2.2h2.6v1.8h-2.6
			v4.6c0,0.9,0.5,1.4,1.3,1.4c0.5,0,0.9-0.1,1.3-0.4L185.7,160z"/>
		<path class="st5" d="M197.1,155.1v5.5h-2.3v-5.2c0-1.7-0.8-2.5-2.3-2.5c-1.6,0-2.7,1-2.7,2.9v4.9h-2.3v-13.4h2.3v4.9
			c0.7-0.8,1.9-1.2,3.2-1.2C195.4,150.8,197.1,152.2,197.1,155.1z"/>
	</g>
	<g class="st8">
		<path class="st5" d="M416.5,143.5c0,2.8-2.1,4.5-5.4,4.5h-2.8v3.6H406V139h5.2C414.4,139,416.5,140.7,416.5,143.5z M414.1,143.5
			c0-1.6-1.1-2.5-3.1-2.5h-2.7v5h2.7C413.1,146,414.1,145.1,414.1,143.5z"/>
		<path class="st5" d="M424.1,141.9v2.1c-0.2,0-0.4-0.1-0.5-0.1c-1.7,0-2.8,1-2.8,3v4.7h-2.3V142h2.1v1.4
			C421.3,142.4,422.5,141.9,424.1,141.9z"/>
		<path class="st5" d="M434.9,147.5h-7.5c0.3,1.4,1.4,2.3,3.1,2.3c1.1,0,1.9-0.3,2.6-1l1.2,1.4c-0.9,1-2.2,1.6-3.9,1.6
			c-3.2,0-5.3-2.1-5.3-4.9c0-2.9,2.1-4.9,5-4.9c2.8,0,4.9,2,4.9,5C435,147.1,434.9,147.3,434.9,147.5z M427.4,146.1h5.5
			c-0.2-1.4-1.2-2.3-2.7-2.3C428.6,143.7,427.6,144.6,427.4,146.1z"/>
		<path class="st5" d="M447.3,146.8c0,3-2.1,4.9-4.9,4.9c-1.2,0-2.3-0.4-3.1-1.3v4.7H437V142h2.1v1.3c0.8-0.9,1.9-1.4,3.2-1.4
			C445.2,141.9,447.3,143.9,447.3,146.8z M445,146.8c0-1.8-1.2-3-2.8-3c-1.6,0-2.9,1.2-2.9,3s1.2,3,2.9,3
			C443.8,149.8,445,148.7,445,146.8z"/>
		<path class="st5" d="M457.4,146v5.6h-2.1v-1.2c-0.5,0.8-1.6,1.3-3,1.3c-2.2,0-3.6-1.2-3.6-2.9c0-1.6,1.1-2.9,4-2.9h2.5v-0.1
			c0-1.3-0.8-2.1-2.4-2.1c-1.1,0-2.2,0.4-2.9,1l-0.9-1.6c1-0.8,2.5-1.2,4.1-1.2C455.8,141.9,457.4,143.2,457.4,146z M455.1,148.6
			v-1.1h-2.3c-1.5,0-1.9,0.6-1.9,1.3c0,0.8,0.7,1.3,1.8,1.3S454.7,149.6,455.1,148.6z"/>
		<path class="st5" d="M465.8,141.9v2.1c-0.2,0-0.4-0.1-0.5-0.1c-1.7,0-2.8,1-2.8,3v4.7h-2.3V142h2.1v1.4
			C463,142.4,464.2,141.9,465.8,141.9z"/>
		<path class="st5" d="M475.7,146v5.6h-2.1v-1.2c-0.5,0.8-1.6,1.3-3,1.3c-2.2,0-3.6-1.2-3.6-2.9c0-1.6,1.1-2.9,4-2.9h2.5v-0.1
			c0-1.3-0.8-2.1-2.4-2.1c-1.1,0-2.2,0.4-2.9,1l-0.9-1.6c1-0.8,2.5-1.2,4.1-1.2C474.1,141.9,475.7,143.2,475.7,146z M473.5,148.6
			v-1.1h-2.3c-1.5,0-1.9,0.6-1.9,1.3c0,0.8,0.7,1.3,1.8,1.3C472.1,150.1,473.1,149.6,473.5,148.6z"/>
		<path class="st5" d="M484.4,151.1c-0.5,0.4-1.4,0.6-2.2,0.6c-2.1,0-3.3-1.1-3.3-3.2v-4.6h-1.6v-1.8h1.6v-2.2h2.3v2.2h2.6v1.8h-2.6
			v4.6c0,0.9,0.5,1.4,1.3,1.4c0.5,0,0.9-0.1,1.3-0.4L484.4,151.1z"/>
		<path class="st5" d="M485.9,139.1c0-0.8,0.6-1.4,1.4-1.4s1.4,0.6,1.4,1.3c0,0.8-0.6,1.4-1.4,1.4
			C486.5,140.4,485.9,139.8,485.9,139.1z M486.2,142h2.3v9.6h-2.3V142z"/>
		<path class="st5" d="M490.6,146.8c0-2.9,2.2-4.9,5.1-4.9c3,0,5.1,2,5.1,4.9s-2.1,4.9-5.1,4.9C492.8,151.8,490.6,149.7,490.6,146.8
			z M498.6,146.8c0-1.8-1.2-3-2.9-3c-1.6,0-2.8,1.2-2.8,3s1.2,3,2.8,3C497.4,149.8,498.6,148.7,498.6,146.8z"/>
		<path class="st5" d="M512.5,146.1v5.5h-2.3v-5.2c0-1.7-0.8-2.5-2.3-2.5c-1.6,0-2.7,1-2.7,2.9v4.9H503V142h2.1v1.2
			c0.7-0.9,1.9-1.4,3.3-1.4C510.8,141.9,512.5,143.2,512.5,146.1z"/>
	</g>
	<g class="st8">
		<path class="st5" d="M788,148.7h-6.3l-1.2,2.9H778l5.7-12.6h2.3l5.7,12.6h-2.4L788,148.7z M787.2,146.9l-2.4-5.5l-2.4,5.5H787.2z"
			/>
		<path class="st5" d="M802.2,142v9.6h-2.1v-1.2c-0.7,0.9-1.9,1.4-3.1,1.4c-2.5,0-4.1-1.4-4.1-4.2V142h2.3v5.2
			c0,1.7,0.8,2.6,2.2,2.6c1.6,0,2.6-1,2.6-2.9V142H802.2z"/>
		<path class="st5" d="M810.9,151.1c-0.5,0.4-1.4,0.6-2.2,0.6c-2.1,0-3.3-1.1-3.3-3.2v-4.6h-1.6v-1.8h1.6v-2.2h2.2v2.2h2.6v1.8h-2.6
			v4.6c0,0.9,0.5,1.4,1.3,1.4c0.5,0,0.9-0.1,1.3-0.4L810.9,151.1z"/>
		<path class="st5" d="M822.3,146.1v5.5H820v-5.2c0-1.7-0.8-2.5-2.3-2.5c-1.6,0-2.7,1-2.7,2.9v4.9h-2.3v-13.4h2.3v4.9
			c0.7-0.8,1.9-1.2,3.2-1.2C820.5,141.9,822.3,143.2,822.3,146.1z"/>
		<path class="st5" d="M824.4,146.8c0-2.9,2.2-4.9,5.1-4.9c3,0,5.1,2,5.1,4.9s-2.1,4.9-5.1,4.9C826.6,151.8,824.4,149.7,824.4,146.8
			z M832.4,146.8c0-1.8-1.2-3-2.9-3c-1.6,0-2.8,1.2-2.8,3s1.2,3,2.8,3C831.2,149.8,832.4,148.7,832.4,146.8z"/>
		<path class="st5" d="M842.4,141.9v2.1c-0.2,0-0.4-0.1-0.5-0.1c-1.7,0-2.8,1-2.8,3v4.7h-2.2V142h2.1v1.4
			C839.6,142.4,840.8,141.9,842.4,141.9z"/>
		<path class="st5" d="M844,139.1c0-0.8,0.6-1.4,1.4-1.4s1.4,0.6,1.4,1.3c0,0.8-0.6,1.4-1.4,1.4C844.6,140.4,844,139.8,844,139.1z
			 M844.3,142h2.2v9.6h-2.2V142z"/>
		<path class="st5" d="M857,149.8v1.8h-8.3v-1.4l5.3-6.4h-5.2V142h8v1.4l-5.3,6.4L857,149.8L857,149.8z"/>
		<path class="st5" d="M867.1,146v5.6H865v-1.2c-0.5,0.8-1.6,1.3-3,1.3c-2.2,0-3.6-1.2-3.6-2.9c0-1.6,1.1-2.9,4-2.9h2.5v-0.1
			c0-1.3-0.8-2.1-2.4-2.1c-1.1,0-2.2,0.4-2.9,1l-0.9-1.6c1-0.8,2.5-1.2,4.1-1.2C865.5,141.9,867.1,143.2,867.1,146z M864.9,148.6
			v-1.1h-2.3c-1.5,0-1.9,0.6-1.9,1.3c0,0.8,0.7,1.3,1.8,1.3C863.5,150.1,864.5,149.6,864.9,148.6z"/>
		<path class="st5" d="M875.8,151.1c-0.5,0.4-1.4,0.6-2.2,0.6c-2.1,0-3.3-1.1-3.3-3.2v-4.6h-1.6v-1.8h1.6v-2.2h2.2v2.2h2.6v1.8h-2.6
			v4.6c0,0.9,0.5,1.4,1.3,1.4c0.5,0,0.9-0.1,1.3-0.4L875.8,151.1z"/>
		<path class="st5" d="M877.3,139.1c0-0.8,0.6-1.4,1.4-1.4s1.4,0.6,1.4,1.3c0,0.8-0.6,1.4-1.4,1.4
			C877.9,140.4,877.3,139.8,877.3,139.1z M877.6,142h2.2v9.6h-2.2V142z"/>
		<path class="st5" d="M882,146.8c0-2.9,2.2-4.9,5.1-4.9c3,0,5.1,2,5.1,4.9s-2.1,4.9-5.1,4.9C884.2,151.8,882,149.7,882,146.8z
			 M890,146.8c0-1.8-1.2-3-2.9-3c-1.6,0-2.8,1.2-2.8,3s1.2,3,2.8,3C888.8,149.8,890,148.7,890,146.8z"/>
		<path class="st5" d="M903.9,146.1v5.5h-2.3v-5.2c0-1.7-0.8-2.5-2.3-2.5c-1.6,0-2.7,1-2.7,2.9v4.9h-2.2V142h2.1v1.2
			c0.7-0.9,1.9-1.4,3.3-1.4C902.2,141.9,903.9,143.2,903.9,146.1z"/>
	</g>
	<path id="Path_11341_3_" class="st10" d="M1015.1,172.3h-3.5l1.3-3.3l9-22.3l1.1-2.7l-1.1-2.7l-9.1-22.4l-1.3-3.3h29.2V111h-36.3
		l13,32.2l0.4,0.9l-0.4,0.9l-13,32.1H1209v6.7l12.1-9l-12.1-9v6.5L1015.1,172.3L1015.1,172.3z"/>
	<path id="Path_11342_3_" class="st10" d="M1209,170v-4.1l12.1,9l-12.1,9v-6.7h-204.5l13-32.1l0.4-0.9l-0.4-0.9l-13-32.2h36.3v4.7
		h-29.2l1.3,3.3l9.1,22.4l1.1,2.7l-1.1,2.7l-9,22.3l-1.3,3.3H1209V170z"/>
	<g class="st8">
		<path class="st11" d="M1039.7,145.3c0-3.8,2.9-6.5,6.8-6.5c2.2,0,4,0.8,5.2,2.2l-1.9,1.7c-0.8-1-1.9-1.5-3.2-1.5c-2.4,0-4,1.7-4,4
			c0,2.4,1.7,4,4,4c1.3,0,2.3-0.5,3.2-1.5l1.9,1.7c-1.2,1.5-3,2.2-5.2,2.2C1042.6,151.9,1039.7,149.1,1039.7,145.3z"/>
		<path class="st11" d="M1052.5,146.8c0-2.9,2.3-5,5.3-5c3.1,0,5.3,2.1,5.3,5s-2.2,5-5.3,5S1052.5,149.7,1052.5,146.8z
			 M1060.3,146.8c0-1.7-1.1-2.7-2.5-2.7s-2.5,1-2.5,2.7s1.1,2.7,2.5,2.7S1060.3,148.5,1060.3,146.8z"/>
		<path class="st11" d="M1074.9,146.1v5.5h-2.8v-5.1c0-1.6-0.7-2.3-2-2.3s-2.3,0.8-2.3,2.6v4.8h-2.8v-9.7h2.7v1.1
			c0.8-0.8,1.9-1.3,3.2-1.3C1073.1,141.8,1074.9,143.1,1074.9,146.1z"/>
		<path class="st11" d="M1083.7,151.2c-0.6,0.4-1.4,0.6-2.3,0.6c-2.3,0-3.6-1.2-3.6-3.5v-4h-1.5v-2.2h1.5v-2.4h2.8v2.4h2.4v2.2h-2.4
			v3.9c0,0.8,0.5,1.3,1.2,1.3c0.4,0,0.8-0.1,1.1-0.4L1083.7,151.2z"/>
		<path class="st11" d="M1084.9,139c0-0.9,0.7-1.6,1.7-1.6s1.7,0.6,1.7,1.5s-0.7,1.6-1.7,1.6C1085.6,140.6,1084.9,139.9,1084.9,139z
			 M1085.2,141.9h2.8v9.7h-2.8V141.9z"/>
		<path class="st11" d="M1100.6,146.1v5.5h-2.8v-5.1c0-1.6-0.7-2.3-2-2.3s-2.3,0.8-2.3,2.6v4.8h-2.8v-9.7h2.7v1.1
			c0.8-0.8,1.9-1.3,3.2-1.3C1098.8,141.8,1100.6,143.1,1100.6,146.1z"/>
		<path class="st11" d="M1112.8,141.9v9.7h-2.7v-1.2c-0.7,0.8-1.8,1.3-3,1.3c-2.4,0-4.1-1.4-4.1-4.4v-5.5h2.8v5.1
			c0,1.6,0.7,2.3,2,2.3s2.2-0.8,2.2-2.6v-4.8L1112.8,141.9L1112.8,141.9z"/>
		<path class="st11" d="M1114.7,146.8c0-2.9,2.2-5,5.3-5s5.3,2.1,5.3,5s-2.2,5-5.3,5S1114.7,149.7,1114.7,146.8z M1122.5,146.8
			c0-1.7-1.1-2.7-2.5-2.7s-2.5,1-2.5,2.7s1.1,2.7,2.5,2.7S1122.5,148.5,1122.5,146.8z"/>
		<path class="st11" d="M1137,141.9v9.7h-2.7v-1.2c-0.7,0.8-1.8,1.3-3,1.3c-2.4,0-4.1-1.4-4.1-4.4v-5.5h2.8v5.1c0,1.6,0.7,2.3,2,2.3
			s2.2-0.8,2.2-2.6v-4.8L1137,141.9L1137,141.9z"/>
		<path class="st11" d="M1138.7,150.7l0.9-2c0.9,0.6,2.2,0.9,3.4,0.9c1.3,0,1.8-0.3,1.8-0.9c0-1.6-5.9,0-5.9-3.8
			c0-1.8,1.7-3.1,4.5-3.1c1.3,0,2.8,0.3,3.7,0.8l-0.9,2c-1-0.5-1.9-0.7-2.8-0.7c-1.3,0-1.8,0.4-1.8,0.9c0,1.7,5.9,0.1,5.9,3.9
			c0,1.8-1.7,3.1-4.6,3.1C1141.2,151.8,1139.6,151.3,1138.7,150.7z"/>
		<path class="st11" d="M1165.9,151.6V144l-3.7,6.2h-1.3l-3.7-6.1v7.4h-2.7V139h2.4l4.7,7.8l4.6-7.8h2.4v12.6H1165.9z"/>
		<path class="st11" d="M1170.7,146.8c0-2.9,2.3-5,5.3-5c3.1,0,5.3,2.1,5.3,5s-2.2,5-5.3,5C1173,151.8,1170.7,149.7,1170.7,146.8z
			 M1178.5,146.8c0-1.7-1.1-2.7-2.5-2.7s-2.5,1-2.5,2.7s1.1,2.7,2.5,2.7S1178.5,148.5,1178.5,146.8z"/>
		<path class="st11" d="M1193.1,146.1v5.5h-2.8v-5.1c0-1.6-0.7-2.3-2-2.3c-1.4,0-2.3,0.8-2.3,2.6v4.8h-2.8v-9.7h2.7v1.1
			c0.8-0.8,1.9-1.3,3.2-1.3C1191.4,141.8,1193.1,143.1,1193.1,146.1z"/>
		<path class="st11" d="M1195.3,139c0-0.9,0.7-1.6,1.7-1.6s1.7,0.6,1.7,1.5s-0.7,1.6-1.7,1.6C1196,140.6,1195.3,139.9,1195.3,139z
			 M1195.7,141.9h2.8v9.7h-2.8V141.9z"/>
		<path class="st11" d="M1207.3,151.2c-0.6,0.4-1.4,0.6-2.3,0.6c-2.3,0-3.6-1.2-3.6-3.5v-4h-1.5v-2.2h1.5v-2.4h2.8v2.4h2.4v2.2h-2.4
			v3.9c0,0.8,0.5,1.3,1.2,1.3c0.4,0,0.8-0.1,1.1-0.4L1207.3,151.2z"/>
		<path class="st11" d="M1207.9,146.8c0-2.9,2.3-5,5.3-5s5.3,2.1,5.3,5s-2.2,5-5.3,5S1207.9,149.7,1207.9,146.8z M1215.7,146.8
			c0-1.7-1.1-2.7-2.5-2.7s-2.5,1-2.5,2.7s1.1,2.7,2.5,2.7S1215.7,148.5,1215.7,146.8z"/>
		<path class="st11" d="M1226.4,141.8v2.6c-0.2,0-0.4,0-0.6,0c-1.5,0-2.6,0.8-2.6,2.7v4.6h-2.8V142h2.7v1.3
			C1223.8,142.3,1224.9,141.8,1226.4,141.8z"/>
		<path class="st11" d="M1227.8,139c0-0.9,0.7-1.6,1.7-1.6s1.7,0.6,1.7,1.5s-0.7,1.6-1.7,1.6C1228.5,140.6,1227.8,139.9,1227.8,139z
			 M1228.1,141.9h2.8v9.7h-2.8V141.9z"/>
		<path class="st11" d="M1243.4,146.1v5.5h-2.8v-5.1c0-1.6-0.7-2.3-2-2.3s-2.3,0.8-2.3,2.6v4.8h-2.8v-9.7h2.7v1.1
			c0.8-0.8,1.9-1.3,3.2-1.3C1241.7,141.8,1243.4,143.1,1243.4,146.1z"/>
		<path class="st11" d="M1256.1,141.9v8.1c0,3.6-1.9,5.3-5.4,5.3c-1.8,0-3.6-0.5-4.8-1.3l1.1-2c0.8,0.7,2.2,1.1,3.4,1.1
			c2,0,2.8-0.9,2.8-2.6V150c-0.7,0.8-1.8,1.2-3.1,1.2c-2.7,0-4.8-1.9-4.8-4.7s2.2-4.7,4.8-4.7c1.4,0,2.5,0.5,3.2,1.4V142h2.8V141.9z
			 M1253.3,146.5c0-1.4-1.1-2.4-2.5-2.4s-2.6,1-2.6,2.4s1.1,2.4,2.6,2.4S1253.3,147.9,1253.3,146.5z"/>
	</g>
</g>
</svg>
