<?xml version="1.0" encoding="utf-8"?>
<!-- Generator: Adobe Illustrator 25.0.1, SVG Export Plug-In . SVG Version: 6.00 Build 0)  -->
<svg version="1.1" id="Layer_1" xmlns="http://www.w3.org/2000/svg" xmlns:xlink="http://www.w3.org/1999/xlink" x="0px" y="0px"
	 viewBox="0 0 302 1162" style="enable-background:new 0 0 302 1162;" xml:space="preserve">
<style type="text/css">
	.st0{display:none;}
	.st1{display:inline;fill:#F2F2F2;}
	.st2{display:inline;}
	.st3{font-family:'Montserrat-Bold';}
	.st4{font-size:59.0197px;}
	.st5{fill:#FFFFFF;}
	.st6{fill:#0A90B7;}
	.st7{enable-background:new    ;}
	.st8{fill:#1A4480;}
	.st9{fill:#B3B3B3;}
	.st10{fill:#C71F25;}
	.st11{fill:#8B8C8E;}
</style>
<g id="Layer_2_1_" class="st0">
	<rect x="-1599" y="-3" class="st1" width="2787" height="1656"/>
	<text transform="matrix(1 0 0 1 -30.6113 103.4434)" class="st2 st3 st4">Tablet</text>
</g>
<g id="Layer_3">
	<rect y="1019" class="st5" width="301" height="143"/>
	<rect x="1" y="232" class="st5" width="301" height="422"/>
</g>
<g id="Layer_4">
	<path id="Path_11100_1_" class="st6" d="M280.9,47.6H14V0h266.9l9.1,23.8L280.9,47.6z"/>
	<path id="Path_11101_4_" class="st5" d="M274.3,1119.2H14.2l13.4-30.4l-13.4-30.5h260.1l14.7,30.5L274.3,1119.2z"/>
	<path id="Path_11341_4_" class="st6" d="M24.5,1114.7H21l1.3-3l6.8-20.6l1-2.5l-1-2.5l-6.8-20.7l-1.3-3h28.3v-4.4H14.2l10.6,29.7
		l0.3,0.8l-0.3,0.8l-10.6,29.6l201.8-0.3v6.2l11.7-8.3l-11.7-8.3v6L24.5,1114.7L24.5,1114.7z"/>
	<path id="Path_11342_4_" class="st6" d="M215.9,1112.3v-3.8l11.7,8.3l-11.7,8.3v-6.2l-201.6,0.2l10.6-29.6l0.3-0.8l-0.3-0.8
		l-10.6-29.7h35.2v4.4H21l1.3,3l6.8,20.7l1,2.5l-1,2.5l-6.8,20.6l-1.3,3l194.8-0.2L215.9,1112.3z"/>
	<path id="Path_11343_4_" class="st6" d="M277.2,1119.1h-39.3v-4.4h36.4l0.6-1.3l8.9-23.9l0.4-0.9l-0.4-0.9l-8.9-24l-0.6-1.3
		l-202-0.1v6.2l-11.6-8.3l11.6-8.3v6l205,0.1l11.8,30.5L277.2,1119.1z"/>
</g>
<g id="Layer_1_1_">
	<g>
		<g class="st7">
			<path class="st6" d="M48,1089.8c0-3.8,2.9-6.5,6.8-6.5c2.2,0,4,0.8,5.2,2.2l-1.9,1.7c-0.8-1-1.9-1.5-3.2-1.5c-2.4,0-4,1.7-4,4
				s1.7,4,4,4c1.3,0,2.3-0.5,3.2-1.5l1.9,1.7c-1.2,1.5-3,2.2-5.2,2.2C50.9,1096.3,48,1093.6,48,1089.8z"/>
			<path class="st6" d="M60.7,1091.3c0-2.9,2.3-5,5.3-5s5.3,2.1,5.3,5s-2.2,5-5.3,5S60.7,1094.2,60.7,1091.3z M68.5,1091.3
				c0-1.7-1.1-2.7-2.5-2.7s-2.5,1-2.5,2.7s1.1,2.7,2.5,2.7S68.5,1093,68.5,1091.3z"/>
			<path class="st6" d="M83.1,1090.6v5.5h-2.8v-5.1c0-1.6-0.7-2.3-2-2.3c-1.4,0-2.3,0.8-2.3,2.6v4.8h-2.8v-9.7h2.7v1.1
				c0.8-0.8,1.9-1.3,3.2-1.3C81.4,1086.3,83.1,1087.6,83.1,1090.6z"/>
			<path class="st6" d="M91.9,1095.7c-0.6,0.4-1.4,0.6-2.3,0.6c-2.3,0-3.6-1.2-3.6-3.5v-4h-1.5v-2.2H86v-2.4h2.8v2.4h2.4v2.2h-2.4
				v3.9c0,0.8,0.5,1.3,1.2,1.3c0.4,0,0.8-0.1,1.1-0.4L91.9,1095.7z"/>
			<path class="st6" d="M93.1,1083.5c0-0.9,0.7-1.6,1.7-1.6s1.7,0.6,1.7,1.5s-0.7,1.6-1.7,1.6C93.8,1085.1,93.1,1084.4,93.1,1083.5z
				 M93.5,1086.4h2.8v9.7h-2.8V1086.4z"/>
			<path class="st6" d="M108.8,1090.6v5.5H106v-5.1c0-1.6-0.7-2.3-2-2.3c-1.4,0-2.3,0.8-2.3,2.6v4.8h-2.8v-9.7h2.7v1.1
				c0.8-0.8,1.9-1.3,3.2-1.3C107.1,1086.3,108.8,1087.6,108.8,1090.6z"/>
			<path class="st6" d="M121.1,1086.4v9.7h-2.7v-1.2c-0.7,0.8-1.8,1.3-3,1.3c-2.4,0-4.1-1.4-4.1-4.4v-5.5h2.8v5.1
				c0,1.6,0.7,2.3,2,2.3s2.2-0.8,2.2-2.6v-4.8L121.1,1086.4L121.1,1086.4z"/>
			<path class="st6" d="M123,1091.3c0-2.9,2.3-5,5.3-5s5.3,2.1,5.3,5s-2.2,5-5.3,5S123,1094.2,123,1091.3z M130.8,1091.3
				c0-1.7-1.1-2.7-2.5-2.7s-2.5,1-2.5,2.7s1.1,2.7,2.5,2.7C129.7,1094,130.8,1093,130.8,1091.3z"/>
			<path class="st6" d="M145.2,1086.4v9.7h-2.7v-1.2c-0.7,0.8-1.8,1.3-3,1.3c-2.4,0-4.1-1.4-4.1-4.4v-5.5h2.8v5.1
				c0,1.6,0.7,2.3,2,2.3s2.2-0.8,2.2-2.6v-4.8L145.2,1086.4L145.2,1086.4z"/>
			<path class="st6" d="M146.9,1095.2l0.9-2c0.9,0.6,2.2,0.9,3.4,0.9c1.3,0,1.8-0.3,1.8-0.9c0-1.6-5.9,0-5.9-3.8
				c0-1.8,1.7-3.1,4.5-3.1c1.3,0,2.8,0.3,3.7,0.8l-0.9,2c-1-0.5-1.9-0.7-2.8-0.7c-1.3,0-1.8,0.4-1.8,0.9c0,1.7,5.9,0.1,5.9,3.9
				c0,1.8-1.7,3.1-4.6,3.1C149.5,1096.3,147.8,1095.8,146.9,1095.2z"/>
			<path class="st6" d="M174.2,1096.1v-7.6l-3.7,6.2h-1.3l-3.7-6.1v7.4h-2.7v-12.6h2.4l4.7,7.8l4.6-7.8h2.4v12.6L174.2,1096.1
				L174.2,1096.1z"/>
			<path class="st6" d="M179,1091.3c0-2.9,2.3-5,5.3-5s5.3,2.1,5.3,5s-2.2,5-5.3,5S179,1094.2,179,1091.3z M186.8,1091.3
				c0-1.7-1.1-2.7-2.5-2.7s-2.5,1-2.5,2.7s1.1,2.7,2.5,2.7S186.8,1093,186.8,1091.3z"/>
			<path class="st6" d="M201.4,1090.6v5.5h-2.8v-5.1c0-1.6-0.7-2.3-2-2.3c-1.4,0-2.3,0.8-2.3,2.6v4.8h-2.8v-9.7h2.7v1.1
				c0.8-0.8,1.9-1.3,3.2-1.3C199.6,1086.3,201.4,1087.6,201.4,1090.6z"/>
			<path class="st6" d="M203.6,1083.5c0-0.9,0.7-1.6,1.7-1.6s1.7,0.6,1.7,1.5s-0.7,1.6-1.7,1.6
				C204.3,1085.1,203.6,1084.4,203.6,1083.5z M203.9,1086.4h2.8v9.7h-2.8V1086.4z"/>
			<path class="st6" d="M215.6,1095.7c-0.6,0.4-1.4,0.6-2.3,0.6c-2.3,0-3.6-1.2-3.6-3.5v-4h-1.5v-2.2h1.5v-2.4h2.8v2.4h2.4v2.2h-2.4
				v3.9c0,0.8,0.5,1.3,1.2,1.3c0.4,0,0.8-0.1,1.1-0.4L215.6,1095.7z"/>
			<path class="st6" d="M216.1,1091.3c0-2.9,2.2-5,5.3-5s5.3,2.1,5.3,5s-2.2,5-5.3,5S216.1,1094.2,216.1,1091.3z M223.9,1091.3
				c0-1.7-1.1-2.7-2.5-2.7s-2.5,1-2.5,2.7s1.1,2.7,2.5,2.7S223.9,1093,223.9,1091.3z"/>
			<path class="st6" d="M234.7,1086.3v2.6c-0.2,0-0.4,0-0.6,0c-1.5,0-2.6,0.8-2.6,2.7v4.6h-2.8v-9.7h2.7v1.3
				C232,1086.8,233.2,1086.3,234.7,1086.3z"/>
			<path class="st6" d="M236,1083.5c0-0.9,0.7-1.6,1.7-1.6s1.7,0.6,1.7,1.5s-0.7,1.6-1.7,1.6C236.7,1085.1,236,1084.4,236,1083.5z
				 M236.3,1086.4h2.8v9.7h-2.8V1086.4z"/>
			<path class="st6" d="M251.6,1090.6v5.5h-2.8v-5.1c0-1.6-0.7-2.3-2-2.3s-2.3,0.8-2.3,2.6v4.8h-2.8v-9.7h2.7v1.1
				c0.8-0.8,1.9-1.3,3.2-1.3C249.9,1086.3,251.6,1087.6,251.6,1090.6z"/>
			<path class="st6" d="M264.3,1086.4v8.1c0,3.6-1.9,5.3-5.4,5.3c-1.8,0-3.6-0.5-4.8-1.3l1.1-2c0.8,0.7,2.2,1.1,3.4,1.1
				c2,0,2.8-0.9,2.8-2.6v-0.4c-0.7,0.8-1.8,1.2-3.1,1.2c-2.7,0-4.8-1.9-4.8-4.7s2.2-4.7,4.8-4.7c1.4,0,2.5,0.5,3.2,1.4v-1.2h2.8
				V1086.4z M261.5,1091c0-1.4-1.1-2.4-2.5-2.4c-1.5,0-2.6,1-2.6,2.4s1.1,2.4,2.6,2.4C260.4,1093.3,261.5,1092.4,261.5,1091z"/>
		</g>
	</g>
	<g class="st7">
		<path class="st8" d="M120.1,356.6h-6.5l-1.2,3h-3.3l6.2-14h3.2l6.2,14h-3.4L120.1,356.6z M119.1,354.1l-2.2-5.4l-2.2,5.4H119.1z"
			/>
		<path class="st8" d="M136.9,348.8v8.9c0,4-2.1,5.8-6,5.8c-2,0-4-0.5-5.2-1.5l1.2-2.2c0.9,0.7,2.4,1.2,3.8,1.2c2.2,0,3.1-1,3.1-2.9
			v-0.5c-0.8,0.9-2,1.3-3.4,1.3c-3,0-5.3-2.1-5.3-5.2s2.4-5.2,5.3-5.2c1.5,0,2.7,0.5,3.5,1.5v-1.4h3V348.8z M133.8,353.8
			c0-1.6-1.2-2.6-2.8-2.6s-2.8,1.1-2.8,2.6c0,1.6,1.2,2.6,2.8,2.6C132.7,356.5,133.8,355.4,133.8,353.8z"/>
		<path class="st8" d="M150.2,355.1h-8.1c0.3,1.3,1.4,2.2,3.1,2.2c1.1,0,1.9-0.3,2.7-1l1.6,1.8c-1,1.1-2.5,1.7-4.4,1.7
			c-3.7,0-6.1-2.3-6.1-5.5s2.4-5.5,5.7-5.5c3.1,0,5.6,2.1,5.6,5.6C150.3,354.5,150.2,354.8,150.2,355.1z M142.1,353.2h5.3
			c-0.2-1.4-1.2-2.2-2.6-2.2C143.3,351,142.3,351.9,142.1,353.2z"/>
		<path class="st8" d="M163.2,353.4v6.2h-3.1v-5.7c0-1.7-0.8-2.5-2.2-2.5c-1.5,0-2.6,0.9-2.6,2.9v5.3h-3.1v-10.7h3v1.3
			c0.8-0.9,2.1-1.4,3.5-1.4C161.3,348.7,163.2,350.1,163.2,353.4z"/>
		<path class="st8" d="M165.4,354.2c0-3.2,2.5-5.5,6-5.5c2.2,0,4,1,4.8,2.7l-2.4,1.3c-0.6-1-1.4-1.5-2.4-1.5c-1.6,0-2.8,1.1-2.8,3
			s1.2,3,2.8,3c1,0,1.8-0.4,2.4-1.5l2.4,1.3c-0.8,1.7-2.5,2.7-4.8,2.7C167.9,359.7,165.4,357.4,165.4,354.2z"/>
		<path class="st8" d="M188.4,348.8l-4.8,11.4c-1,2.6-2.5,3.4-4.4,3.4c-1.1,0-2.3-0.4-3-1l1.1-2.2c0.5,0.4,1.1,0.7,1.7,0.7
			c0.9,0,1.3-0.4,1.7-1.3v-0.1l-4.6-10.8h3.2l3,7.3l3-7.3h3.1V348.8z"/>
	</g>
	<rect x="22.1" y="352.4" class="st9" width="71.5" height="0.5"/>
	<rect x="210" y="352.4" class="st9" width="71.5" height="0.5"/>
	<rect x="22" y="492.4" class="st9" width="85.5" height="0.5"/>
	<rect x="193" y="492.4" class="st9" width="89" height="0.5"/>
	<g class="st7">
		<path class="st10" d="M129.2,497.8l1.8-2.2c0.8,1,1.6,1.5,2.6,1.5c1.3,0,2-0.8,2-2.3v-6.7h-4.9v-2.6h8.1v9.1c0,3.5-1.7,5.2-5,5.2
			C131.9,499.8,130.3,499.1,129.2,497.8z"/>
		<path class="st10" d="M150.8,496.6h-6.5l-1.2,3h-3.3l6.2-14h3.2l6.2,14H152L150.8,496.6z M149.8,494.1l-2.2-5.4l-2.2,5.4H149.8z"
			/>
		<path class="st10" d="M169.6,495.7c0,2.4-1.9,3.8-5.6,3.8h-7.2v-14h6.8c3.5,0,5.3,1.5,5.3,3.6c0,1.4-0.7,2.5-1.8,3.1
			C168.6,492.8,169.6,494,169.6,495.7z M160.1,488v3.3h3.2c1.6,0,2.4-0.6,2.4-1.7s-0.9-1.6-2.4-1.6L160.1,488L160.1,488z
			 M166.4,495.4c0-1.2-0.9-1.7-2.6-1.7H160v3.5h3.8C165.5,497.1,166.4,496.6,166.4,495.4z"/>
	</g>
	<path id="Path_11287_10_" class="st6" d="M280.1,309.2H14l9.9-23.2L14,262.7h266.1L290,286L280.1,309.2z"/>
	<path id="Path_11287_3_" class="st6" d="M280.1,733.2H14l9.9-23.2L14,686.7h266.1L290,710L280.1,733.2z"/>
	<g>
		<g class="st7">
			<path class="st5" d="M108.6,284c0,2.8-2.1,4.5-5.4,4.5h-2.8v3.6H98v-12.6h5.2C106.5,279.5,108.6,281.2,108.6,284z M106.2,284
				c0-1.6-1.1-2.5-3.1-2.5h-2.7v5h2.7C105.2,286.5,106.2,285.6,106.2,284z"/>
			<path class="st5" d="M116.2,282.4v2.1c-0.2,0-0.4-0.1-0.5-0.1c-1.7,0-2.8,1-2.8,3v4.7h-2.3v-9.6h2.1v1.4
				C113.4,282.9,114.6,282.4,116.2,282.4z"/>
			<path class="st5" d="M127,288h-7.5c0.3,1.4,1.4,2.3,3.1,2.3c1.1,0,1.9-0.3,2.6-1l1.2,1.4c-0.9,1-2.2,1.6-3.9,1.6
				c-3.2,0-5.3-2.1-5.3-4.9c0-2.9,2.1-4.9,5-4.9c2.8,0,4.9,2,4.9,5C127,287.6,127,287.8,127,288z M119.4,286.6h5.5
				c-0.2-1.4-1.2-2.3-2.7-2.3C120.7,284.2,119.7,285.1,119.4,286.6z"/>
			<path class="st5" d="M139.4,287.3c0,3-2.1,4.9-4.9,4.9c-1.2,0-2.3-0.4-3.1-1.3v4.7h-2.3v-13.1h2.1v1.3c0.8-0.9,1.9-1.4,3.2-1.4
				C137.3,282.4,139.4,284.4,139.4,287.3z M137.1,287.3c0-1.8-1.2-3-2.8-3s-2.9,1.2-2.9,3s1.2,3,2.9,3
				C135.9,290.3,137.1,289.2,137.1,287.3z"/>
			<path class="st5" d="M149.5,286.5v5.6h-2.1V291c-0.5,0.8-1.6,1.3-3,1.3c-2.2,0-3.6-1.2-3.6-2.9c0-1.6,1.1-2.9,4-2.9h2.5v-0.1
				c0-1.3-0.8-2.1-2.4-2.1c-1.1,0-2.2,0.4-2.9,1l-0.9-1.6c1-0.8,2.5-1.2,4.1-1.2C147.9,282.4,149.5,283.7,149.5,286.5z M147.2,289.1
				V288h-2.3c-1.5,0-1.9,0.6-1.9,1.3c0,0.8,0.7,1.3,1.8,1.3C145.9,290.6,146.8,290.1,147.2,289.1z"/>
			<path class="st5" d="M157.9,282.4v2.1c-0.2,0-0.4-0.1-0.5-0.1c-1.7,0-2.8,1-2.8,3v4.7h-2.2v-9.6h2.1v1.4
				C155.1,282.9,156.3,282.4,157.9,282.4z"/>
			<path class="st5" d="M167.8,286.5v5.6h-2.1V291c-0.5,0.8-1.6,1.3-3,1.3c-2.2,0-3.6-1.2-3.6-2.9c0-1.6,1.1-2.9,4-2.9h2.5v-0.1
				c0-1.3-0.8-2.1-2.4-2.1c-1.1,0-2.2,0.4-2.9,1l-0.9-1.6c1-0.8,2.5-1.2,4.1-1.2C166.2,282.4,167.8,283.7,167.8,286.5z M165.6,289.1
				V288h-2.3c-1.5,0-1.9,0.6-1.9,1.3c0,0.8,0.7,1.3,1.8,1.3C164.2,290.6,165.2,290.1,165.6,289.1z"/>
			<path class="st5" d="M176.5,291.6c-0.5,0.4-1.4,0.6-2.2,0.6c-2.1,0-3.3-1.1-3.3-3.2v-4.6h-1.6v-1.8h1.6v-2.2h2.3v2.2h2.6v1.8
				h-2.6v4.6c0,0.9,0.5,1.4,1.3,1.4c0.5,0,0.9-0.1,1.3-0.4L176.5,291.6z"/>
			<path class="st5" d="M178,279.6c0-0.8,0.6-1.4,1.4-1.4s1.4,0.6,1.4,1.3c0,0.8-0.6,1.4-1.4,1.4S178,280.3,178,279.6z M178.3,282.5
				h2.2v9.6h-2.2V282.5z"/>
			<path class="st5" d="M182.7,287.3c0-2.9,2.2-4.9,5.1-4.9c3,0,5.1,2,5.1,4.9s-2.1,4.9-5.1,4.9
				C184.9,292.3,182.7,290.2,182.7,287.3z M190.7,287.3c0-1.8-1.2-3-2.9-3c-1.6,0-2.8,1.2-2.8,3s1.2,3,2.8,3
				C189.5,290.3,190.7,289.2,190.7,287.3z"/>
			<path class="st5" d="M204.6,286.6v5.5h-2.3v-5.2c0-1.7-0.8-2.5-2.3-2.5c-1.6,0-2.7,1-2.7,2.9v4.9h-2.2v-9.6h2.1v1.2
				c0.7-0.9,1.9-1.4,3.3-1.4C202.9,282.4,204.6,283.7,204.6,286.6z"/>
		</g>
	</g>
	<g>
		<g class="st7">
			<path class="st10" d="M48.6,594.5h7.9v1.2H50v4.4h6.1v1.2H50v5.9h-1.5L48.6,594.5L48.6,594.5z"/>
			<path class="st10" d="M66,598.2v9.1h-1.4v-1.6c-0.3,0.6-0.7,1-1.2,1.3s-1.1,0.4-1.7,0.4c-1.1,0-1.9-0.3-2.4-0.9
				c-0.6-0.6-0.8-1.5-0.8-2.7v-5.6H60v5.6c0,0.8,0.2,1.4,0.5,1.8s0.8,0.6,1.5,0.6c0.8,0,1.5-0.3,1.9-0.8c0.5-0.5,0.7-1.2,0.7-2.1
				v-5.1H66z"/>
			<path class="st10" d="M68.8,594h1.5v13.2h-1.5V594z"/>
			<path class="st10" d="M73.1,594h1.5v13.2h-1.5V594z"/>
			<path class="st10" d="M81.5,605.8l0.6-1.1c0.6,0.5,1.3,0.9,1.9,1.2c0.7,0.2,1.4,0.3,2.3,0.3c1,0,1.8-0.2,2.4-0.6
				c0.6-0.4,0.8-1,0.8-1.7c0-0.4-0.1-0.8-0.4-1.1s-0.6-0.5-1.1-0.6c-0.4-0.2-1-0.3-1.8-0.5c-1-0.2-1.8-0.5-2.4-0.7
				c-0.6-0.3-1.2-0.6-1.5-1.1c-0.4-0.5-0.6-1.1-0.6-1.9c0-0.7,0.2-1.4,0.6-1.9c0.4-0.6,0.9-1,1.6-1.3s1.5-0.5,2.5-0.5
				c0.9,0,1.7,0.1,2.5,0.4c0.8,0.3,1.4,0.7,1.9,1.2l-0.6,1.1c-0.6-0.5-1.2-0.9-1.8-1.1c-0.6-0.2-1.3-0.4-2-0.4c-1,0-1.8,0.2-2.3,0.6
				s-0.8,1-0.8,1.8c0,0.6,0.2,1.1,0.7,1.5c0.5,0.3,1.2,0.6,2.3,0.8c1.1,0.3,2,0.5,2.6,0.7s1.2,0.6,1.6,1s0.6,1,0.6,1.8
				c0,0.7-0.2,1.4-0.6,1.9s-0.9,1-1.6,1.3s-1.6,0.4-2.5,0.4C84.3,607.4,82.7,606.9,81.5,605.8z"/>
			<path class="st10" d="M100.8,602.7h-6.6c0,1.2,0.3,2,0.8,2.6s1.3,0.9,2.3,0.9c1.1,0,2-0.4,2.9-1.1l0.5,1.1
				c-0.4,0.4-0.9,0.7-1.5,0.9s-1.3,0.3-1.9,0.3c-1.4,0-2.5-0.4-3.3-1.3c-0.8-0.8-1.2-2-1.2-3.4c0-0.9,0.2-1.7,0.5-2.5
				c0.4-0.7,0.9-1.3,1.5-1.7s1.4-0.6,2.2-0.6c1.2,0,2.1,0.4,2.8,1.2s1,1.9,1,3.2C100.8,602.3,100.8,602.7,100.8,602.7z M95.2,599.8
				c-0.5,0.5-0.8,1.1-0.9,1.9h5.3c-0.1-0.9-0.3-1.5-0.7-1.9c-0.4-0.4-1-0.7-1.8-0.7S95.6,599.4,95.2,599.8z"/>
			<path class="st10" d="M104.6,606.8c-0.7-0.4-1.2-0.9-1.5-1.6s-0.5-1.5-0.5-2.5c0-0.9,0.2-1.8,0.5-2.5c0.4-0.7,0.9-1.3,1.5-1.7
				c0.7-0.4,1.4-0.6,2.3-0.6c0.6,0,1.2,0.1,1.8,0.3s1,0.5,1.4,0.9l-0.5,1.1c-0.5-0.4-0.9-0.6-1.3-0.8s-0.9-0.3-1.3-0.3
				c-0.9,0-1.7,0.3-2.2,0.9c-0.5,0.6-0.8,1.5-0.8,2.6s0.3,1.9,0.8,2.5s1.3,0.9,2.2,0.9c0.4,0,0.9-0.1,1.3-0.3s0.9-0.4,1.3-0.8
				l0.5,1.1c-0.4,0.4-0.9,0.6-1.4,0.9c-0.6,0.2-1.2,0.3-1.8,0.3C106,607.4,105.2,607.2,104.6,606.8z"/>
			<path class="st10" d="M119.5,598.2v9.1h-1.4v-1.6c-0.3,0.6-0.7,1-1.2,1.3s-1.1,0.4-1.7,0.4c-1.1,0-1.9-0.3-2.4-0.9
				c-0.6-0.6-0.8-1.5-0.8-2.7v-5.6h1.5v5.6c0,0.8,0.2,1.4,0.5,1.8s0.8,0.6,1.5,0.6c0.8,0,1.5-0.3,1.9-0.8c0.5-0.5,0.7-1.2,0.7-2.1
				v-5.1H119.5z"/>
			<path class="st10" d="M127.4,598.1v1.3c-0.3-0.1-0.6-0.1-1-0.1c-0.9,0-1.5,0.3-2,0.8c-0.4,0.5-0.6,1.2-0.6,2v5.2h-1.5v-6.5
				c0-0.9,0-1.8-0.1-2.5h1.4l0.1,1.7c0.2-0.6,0.6-1.1,1.1-1.4c0.5-0.3,1.1-0.5,1.7-0.5C126.9,598,127.1,598.1,127.4,598.1z"/>
			<path class="st10" d="M130.5,594.4v1.7h-1.8v-1.7H130.5z M128.9,598.2h1.5v9.1h-1.5V598.2z"/>
			<path class="st10" d="M135.1,599.4v5c0,0.7,0.1,1.1,0.4,1.4c0.3,0.3,0.7,0.4,1.2,0.4c0.3,0,0.7-0.1,1-0.2v1.2
				c-0.4,0.1-0.8,0.2-1.3,0.2c-0.9,0-1.5-0.2-2-0.7s-0.7-1.2-0.7-2.2v-5.1h-1.8v-1.2h1.8v-2.3l1.5-0.5v2.8h2.6v1.2L135.1,599.4
				L135.1,599.4z"/>
			<path class="st10" d="M147.5,598.2l-4.2,9.9c-0.4,1-1,1.8-1.7,2.3s-1.5,0.8-2.5,1l-0.3-1.1c0.9-0.2,1.5-0.4,1.9-0.8
				c0.4-0.3,0.8-0.8,1.1-1.5l0.4-0.8l-3.8-9h1.5l3.1,7.5l3.1-7.5L147.5,598.2L147.5,598.2z"/>
			<path class="st10" d="M162.4,604h-6.7l-1.4,3.3h-1.5l5.6-12.8h1.3l5.6,12.8h-1.5L162.4,604z M161.9,602.8l-2.8-6.6l-2.8,6.6
				H161.9z"/>
			<path class="st10" d="M166.4,606.3l0.5-1.1c0.5,0.4,1,0.7,1.5,0.8c0.5,0.2,1.1,0.3,1.7,0.3c0.7,0,1.2-0.1,1.6-0.4
				c0.4-0.2,0.5-0.6,0.5-1s-0.1-0.6-0.4-0.9c-0.2-0.2-0.6-0.4-1.2-0.5l-1.5-0.4c-0.8-0.2-1.3-0.5-1.8-0.9s-0.6-0.9-0.6-1.5
				c0-0.8,0.3-1.4,1-1.9c0.6-0.5,1.5-0.7,2.5-0.7c0.6,0,1.2,0.1,1.8,0.3s1,0.5,1.4,0.9l-0.5,1.1c-0.9-0.7-1.8-1.1-2.7-1.1
				c-0.6,0-1.1,0.1-1.5,0.4c-0.4,0.2-0.5,0.6-0.5,1s0.1,0.7,0.3,0.9s0.6,0.4,1.1,0.5l1.5,0.4c0.8,0.2,1.5,0.5,1.9,0.9
				s0.6,0.9,0.6,1.6c0,0.8-0.3,1.4-1,1.9s-1.5,0.7-2.6,0.7C168.5,607.4,167.2,607,166.4,606.3z"/>
			<path class="st10" d="M175.3,606.3l0.5-1.1c0.5,0.4,1,0.7,1.5,0.8c0.5,0.2,1.1,0.3,1.7,0.3c0.7,0,1.2-0.1,1.6-0.4
				c0.4-0.2,0.5-0.6,0.5-1s-0.1-0.6-0.4-0.9c-0.2-0.2-0.6-0.4-1.2-0.5l-1.5-0.4c-0.8-0.2-1.3-0.5-1.8-0.9s-0.6-0.9-0.6-1.5
				c0-0.8,0.3-1.4,1-1.9c0.6-0.5,1.5-0.7,2.5-0.7c0.6,0,1.2,0.1,1.8,0.3s1,0.5,1.4,0.9l-0.5,1.1c-0.9-0.7-1.8-1.1-2.7-1.1
				c-0.6,0-1.1,0.1-1.5,0.4c-0.4,0.2-0.5,0.6-0.5,1s0.1,0.7,0.3,0.9s0.6,0.4,1.1,0.5l1.5,0.4c0.8,0.2,1.5,0.5,1.9,0.9
				s0.6,0.9,0.6,1.6c0,0.8-0.3,1.4-1,1.9s-1.5,0.7-2.6,0.7C177.4,607.4,176.2,607,175.3,606.3z"/>
			<path class="st10" d="M192.4,602.7h-6.6c0,1.2,0.3,2,0.8,2.6s1.3,0.9,2.3,0.9c1.1,0,2-0.4,2.9-1.1l0.5,1.1
				c-0.4,0.4-0.9,0.7-1.5,0.9s-1.3,0.3-1.9,0.3c-1.4,0-2.5-0.4-3.3-1.3c-0.8-0.8-1.2-2-1.2-3.4c0-0.9,0.2-1.7,0.5-2.5
				c0.4-0.7,0.9-1.3,1.5-1.7s1.4-0.6,2.2-0.6c1.2,0,2.1,0.4,2.8,1.2s1,1.9,1,3.2V602.7z M186.7,599.8c-0.5,0.5-0.8,1.1-0.9,1.9h5.3
				c-0.1-0.9-0.3-1.5-0.7-1.9s-1-0.7-1.8-0.7S187.1,599.4,186.7,599.8z"/>
			<path class="st10" d="M194,606.3l0.5-1.1c0.5,0.4,1,0.7,1.5,0.8c0.5,0.2,1.1,0.3,1.7,0.3c0.7,0,1.2-0.1,1.6-0.4
				c0.4-0.2,0.5-0.6,0.5-1s-0.1-0.6-0.4-0.9c-0.2-0.2-0.6-0.4-1.2-0.5l-1.5-0.4c-0.8-0.2-1.3-0.5-1.8-0.9s-0.6-0.9-0.6-1.5
				c0-0.8,0.3-1.4,1-1.9c0.6-0.5,1.5-0.7,2.5-0.7c0.6,0,1.2,0.1,1.8,0.3s1,0.5,1.4,0.9l-0.5,1.1c-0.9-0.7-1.8-1.1-2.7-1.1
				c-0.6,0-1.1,0.1-1.5,0.4c-0.4,0.2-0.5,0.6-0.5,1s0.1,0.7,0.3,0.9s0.6,0.4,1.1,0.5l1.5,0.4c0.8,0.2,1.5,0.5,1.9,0.9
				s0.6,0.9,0.6,1.6c0,0.8-0.3,1.4-1,1.9s-1.5,0.7-2.6,0.7C196.1,607.4,194.9,607,194,606.3z"/>
			<path class="st10" d="M202.9,606.3l0.5-1.1c0.5,0.4,1,0.7,1.5,0.8c0.5,0.2,1.1,0.3,1.7,0.3c0.7,0,1.2-0.1,1.6-0.4
				c0.4-0.2,0.5-0.6,0.5-1s-0.1-0.6-0.4-0.9c-0.2-0.2-0.6-0.4-1.2-0.5l-1.5-0.4c-0.8-0.2-1.3-0.5-1.8-0.9s-0.6-0.9-0.6-1.5
				c0-0.8,0.3-1.4,1-1.9c0.6-0.5,1.5-0.7,2.5-0.7c0.6,0,1.2,0.1,1.8,0.3s1,0.5,1.4,0.9l-0.5,1.1c-0.9-0.7-1.8-1.1-2.7-1.1
				c-0.6,0-1.1,0.1-1.5,0.4c-0.4,0.2-0.5,0.6-0.5,1s0.1,0.7,0.3,0.9s0.6,0.4,1.1,0.5l1.5,0.4c0.8,0.2,1.5,0.5,1.9,0.9
				s0.6,0.9,0.6,1.6c0,0.8-0.3,1.4-1,1.9s-1.5,0.7-2.6,0.7C205,607.4,203.8,607,202.9,606.3z"/>
			<path class="st10" d="M225.5,601.6v5.7H224v-5.6c0-0.9-0.1-1.5-0.4-1.9s-0.8-0.6-1.4-0.6c-0.8,0-1.4,0.3-1.8,0.8
				c-0.4,0.5-0.6,1.2-0.6,2.1v5.2h-1.5v-5.6c0-0.8-0.2-1.5-0.5-1.8s-0.8-0.6-1.4-0.6c-0.8,0-1.4,0.3-1.8,0.8
				c-0.4,0.5-0.7,1.2-0.7,2.1v5.2h-1.5v-6.5c0-0.9,0-1.8-0.1-2.5h1.4l0.1,1.6c0.3-0.6,0.6-1,1.1-1.3s1.1-0.5,1.7-0.5
				c0.7,0,1.3,0.1,1.8,0.4s0.8,0.7,1,1.3c0.3-0.5,0.7-1,1.2-1.3s1.1-0.5,1.8-0.5C224.5,598,225.5,599.2,225.5,601.6z"/>
			<path class="st10" d="M235.8,602.7h-6.6c0,1.2,0.3,2,0.8,2.6s1.3,0.9,2.3,0.9c1.1,0,2-0.4,2.9-1.1l0.5,1.1
				c-0.4,0.4-0.9,0.7-1.5,0.9s-1.3,0.3-1.9,0.3c-1.4,0-2.5-0.4-3.3-1.3c-0.8-0.8-1.2-2-1.2-3.4c0-0.9,0.2-1.7,0.5-2.5
				c0.4-0.7,0.9-1.3,1.5-1.7s1.4-0.6,2.2-0.6c1.2,0,2.1,0.4,2.8,1.2s1,1.9,1,3.2V602.7z M230.1,599.8c-0.5,0.5-0.8,1.1-0.9,1.9h5.3
				c-0.1-0.9-0.3-1.5-0.7-1.9s-1-0.7-1.8-0.7S230.6,599.4,230.1,599.8z"/>
			<path class="st10" d="M245.8,601.6v5.7h-1.5v-5.6c0-0.8-0.2-1.5-0.5-1.8s-0.9-0.6-1.6-0.6c-0.8,0-1.5,0.3-2,0.8s-0.8,1.2-0.8,2.1
				v5.2H238v-6.5c0-0.9,0-1.8-0.1-2.5h1.4l0.1,1.6c0.3-0.6,0.7-1,1.2-1.4c0.6-0.3,1.2-0.5,1.9-0.5
				C244.7,598,245.8,599.2,245.8,601.6z"/>
			<path class="st10" d="M250.5,599.4v5c0,0.7,0.1,1.1,0.4,1.4c0.3,0.3,0.7,0.4,1.2,0.4c0.3,0,0.7-0.1,1-0.2v1.2
				c-0.4,0.1-0.8,0.2-1.3,0.2c-0.9,0-1.5-0.2-2-0.7s-0.7-1.2-0.7-2.2v-5.1h-1.8v-1.2h1.8v-2.3l1.5-0.5v2.8h2.6v1.2L250.5,599.4
				L250.5,599.4z"/>
		</g>
	</g>
	<g>
		<g class="st7">
			<path class="st8" d="M78.2,420.2h5.1c1.3,0,2.3,0.3,3.1,1c0.7,0.6,1.1,1.5,1.1,2.6s-0.4,2-1.1,2.6s-1.8,1-3.1,1h-3.6v5.6h-1.5
				V420.2z M83.1,426.1c0.9,0,1.7-0.2,2.1-0.6s0.7-1,0.7-1.8s-0.2-1.4-0.7-1.8s-1.2-0.6-2.1-0.6h-3.5v4.7L83.1,426.1L83.1,426.1z"/>
			<path class="st8" d="M94.6,423.8v1.3c-0.3-0.1-0.6-0.1-1-0.1c-0.9,0-1.5,0.3-2,0.8c-0.4,0.5-0.6,1.2-0.6,2v5.2h-1.5v-6.5
				c0-0.9,0-1.8-0.1-2.5h1.4l0.1,1.7c0.2-0.6,0.6-1.1,1.1-1.4s1.1-0.5,1.7-0.5C94,423.7,94.3,423.7,94.6,423.8z"/>
			<path class="st8" d="M103.4,428.4h-6.6c0,1.2,0.3,2,0.8,2.6s1.3,0.9,2.3,0.9c1.1,0,2-0.4,2.9-1.1l0.5,1.1
				c-0.4,0.4-0.9,0.7-1.5,0.9s-1.3,0.3-1.9,0.3c-1.4,0-2.5-0.4-3.3-1.3c-0.8-0.8-1.2-2-1.2-3.4c0-0.9,0.2-1.7,0.5-2.5
				c0.4-0.7,0.9-1.3,1.5-1.7c0.6-0.4,1.4-0.6,2.2-0.6c1.2,0,2.1,0.4,2.8,1.2s1,1.9,1,3.2C103.4,428,103.4,428.4,103.4,428.4z
				 M97.7,425.5c-0.5,0.5-0.8,1.1-0.9,1.9h5.3c-0.1-0.9-0.3-1.5-0.7-1.9c-0.4-0.4-1-0.7-1.8-0.7S98.2,425.1,97.7,425.5z"/>
			<path class="st8" d="M105.7,427.5h5.1v1.2h-5.1V427.5z"/>
			<path class="st8" d="M121.9,429.7h-6.7l-1.4,3.3h-1.5l5.6-12.8h1.3l5.6,12.8h-1.5L121.9,429.7z M121.3,428.5l-2.8-6.6l-2.8,6.6
				H121.3z"/>
			<path class="st8" d="M134.1,423.9v9.1h-1.4v-1.6c-0.3,0.6-0.7,1-1.2,1.3s-1.1,0.4-1.7,0.4c-1.1,0-1.9-0.3-2.4-0.9
				c-0.6-0.6-0.8-1.5-0.8-2.7v-5.6h1.5v5.6c0,0.8,0.2,1.4,0.5,1.8s0.8,0.6,1.5,0.6c0.8,0,1.5-0.3,1.9-0.8c0.5-0.5,0.7-1.2,0.7-2.1
				v-5.1L134.1,423.9L134.1,423.9z"/>
			<path class="st8" d="M138.8,425.1v5c0,0.7,0.1,1.1,0.4,1.4c0.3,0.3,0.7,0.4,1.2,0.4c0.3,0,0.7-0.1,1-0.2v1.2
				c-0.4,0.1-0.8,0.2-1.3,0.2c-0.9,0-1.5-0.2-2-0.7s-0.7-1.2-0.7-2.2v-5.1h-1.8v-1.2h1.8v-2.3l1.5-0.5v2.8h2.6v1.2L138.8,425.1
				L138.8,425.1z"/>
			<path class="st8" d="M151,427.3v5.7h-1.5v-5.6c0-0.8-0.2-1.5-0.5-1.8s-0.9-0.6-1.6-0.6c-0.8,0-1.5,0.3-2,0.8s-0.8,1.2-0.8,2.1
				v5.2h-1.5v-13.2h1.5v5.7c0.3-0.6,0.7-1,1.2-1.3s1.1-0.4,1.8-0.4C149.9,423.7,151,424.9,151,427.3z"/>
			<path class="st8" d="M155.2,432.5c-0.6-0.4-1.1-0.9-1.5-1.6s-0.5-1.5-0.5-2.5c0-0.9,0.2-1.8,0.5-2.5c0.4-0.7,0.9-1.3,1.5-1.6
				c0.6-0.4,1.4-0.6,2.2-0.6c0.9,0,1.6,0.2,2.2,0.6c0.6,0.4,1.1,0.9,1.5,1.6s0.5,1.5,0.5,2.5c0,0.9-0.2,1.8-0.5,2.5
				c-0.4,0.7-0.9,1.3-1.5,1.6c-0.6,0.4-1.4,0.6-2.2,0.6C156.6,433.1,155.9,432.9,155.2,432.5z M159.5,431c0.5-0.6,0.7-1.5,0.7-2.6
				s-0.2-2-0.7-2.6s-1.2-0.9-2.1-0.9c-0.9,0-1.6,0.3-2.1,0.9s-0.7,1.5-0.7,2.6s0.2,2,0.7,2.6s1.2,0.9,2.1,0.9
				C158.4,431.9,159,431.6,159.5,431z"/>
			<path class="st8" d="M169.1,423.8v1.3c-0.3-0.1-0.6-0.1-1-0.1c-0.9,0-1.5,0.3-2,0.8c-0.4,0.5-0.6,1.2-0.6,2v5.2H164v-6.5
				c0-0.9,0-1.8-0.1-2.5h1.4l0.1,1.7c0.2-0.6,0.6-1.1,1.1-1.4s1.1-0.5,1.7-0.5C168.5,423.7,168.8,423.7,169.1,423.8z"/>
			<path class="st8" d="M172.2,420.1v1.7h-1.8v-1.7H172.2z M170.5,423.9h1.5v9.1h-1.5V423.9z"/>
			<path class="st8" d="M182,431.8v1.2h-7.6v-1l5.7-6.9h-5.5v-1.2h7.3v1.1l-5.7,6.8H182z"/>
			<path class="st8" d="M191.9,423.9v9.1h-1.4v-1.6c-0.3,0.6-0.7,1-1.2,1.3s-1.2,0.5-1.9,0.5c-0.8,0-1.5-0.2-2.1-0.6
				s-1.1-0.9-1.4-1.6s-0.5-1.5-0.5-2.5c0-0.9,0.2-1.8,0.5-2.5s0.8-1.3,1.4-1.7c0.6-0.4,1.3-0.6,2.1-0.6c0.7,0,1.3,0.2,1.9,0.5
				c0.5,0.3,0.9,0.8,1.2,1.3v-1.6L191.9,423.9L191.9,423.9z M189.8,431c0.5-0.6,0.7-1.5,0.7-2.6s-0.2-2-0.7-2.6s-1.2-0.9-2.1-0.9
				s-1.6,0.3-2.1,0.9s-0.7,1.5-0.7,2.6s0.2,2,0.7,2.6s1.2,0.9,2.1,0.9S189.3,431.6,189.8,431z"/>
			<path class="st8" d="M196.7,425.1v5c0,0.7,0.1,1.1,0.4,1.4c0.3,0.3,0.7,0.4,1.2,0.4c0.3,0,0.7-0.1,1-0.2v1.2
				c-0.4,0.1-0.8,0.2-1.3,0.2c-0.9,0-1.5-0.2-2-0.7s-0.7-1.2-0.7-2.2v-5.1h-1.8v-1.2h1.8v-2.3l1.5-0.5v2.8h2.6v1.2L196.7,425.1
				L196.7,425.1z"/>
			<path class="st8" d="M202.7,420.1v1.7h-1.8v-1.7H202.7z M201,423.9h1.5v9.1H201V423.9z"/>
			<path class="st8" d="M206.8,432.5c-0.6-0.4-1.1-0.9-1.5-1.6s-0.5-1.5-0.5-2.5c0-0.9,0.2-1.8,0.5-2.5c0.4-0.7,0.9-1.3,1.5-1.6
				c0.6-0.4,1.4-0.6,2.2-0.6c0.9,0,1.6,0.2,2.2,0.6c0.6,0.4,1.1,0.9,1.5,1.6s0.5,1.5,0.5,2.5c0,0.9-0.2,1.8-0.5,2.5
				c-0.4,0.7-0.9,1.3-1.5,1.6c-0.6,0.4-1.4,0.6-2.2,0.6S207.5,432.9,206.8,432.5z M211.1,431c0.5-0.6,0.7-1.5,0.7-2.6
				s-0.2-2-0.7-2.6s-1.2-0.9-2.1-0.9c-0.9,0-1.6,0.3-2.1,0.9s-0.7,1.5-0.7,2.6s0.2,2,0.7,2.6s1.2,0.9,2.1,0.9
				C210,431.9,210.7,431.6,211.1,431z"/>
			<path class="st8" d="M223.4,427.3v5.7h-1.5v-5.6c0-0.8-0.2-1.5-0.5-1.8s-0.9-0.6-1.6-0.6c-0.8,0-1.5,0.3-2,0.8s-0.8,1.2-0.8,2.1
				v5.2h-1.5v-6.5c0-0.9,0-1.8-0.1-2.5h1.4l0.1,1.6c0.3-0.6,0.7-1,1.2-1.4c0.6-0.3,1.2-0.5,1.9-0.5
				C222.3,423.7,223.4,424.9,223.4,427.3z"/>
		</g>
	</g>
	<g>
		<g class="st7">
			<path class="st8" d="M63.8,400.7h-1.6l-1.6-4.3c-0.2-0.5-0.5-0.9-0.8-1.1S59,395,58.4,395h-3.2v5.6h-1.5v-12.8h5.1
				c1.4,0,2.4,0.3,3.2,0.9c0.7,0.6,1.1,1.5,1.1,2.6c0,0.8-0.2,1.5-0.7,2.1c-0.4,0.6-1.1,1-1.9,1.2c0.4,0.1,0.7,0.2,1,0.5
				s0.5,0.6,0.7,1.1L63.8,400.7z M58.7,393.8c2,0,3-0.8,3-2.4c0-0.8-0.2-1.4-0.7-1.8s-1.2-0.6-2.2-0.6h-3.5v4.8H58.7z"/>
			<path class="st8" d="M73.6,396.1H67c0,1.2,0.3,2,0.8,2.6s1.3,0.9,2.3,0.9c1.1,0,2-0.4,2.9-1.1l0.5,1.1c-0.4,0.4-0.9,0.7-1.5,0.9
				s-1.3,0.3-1.9,0.3c-1.4,0-2.5-0.4-3.3-1.3c-0.8-0.8-1.2-2-1.2-3.4c0-0.9,0.2-1.7,0.5-2.5c0.4-0.7,0.9-1.3,1.5-1.7
				c0.6-0.4,1.4-0.6,2.2-0.6c1.2,0,2.1,0.4,2.8,1.2s1,1.9,1,3.2C73.6,395.7,73.6,396.1,73.6,396.1z M67.9,393.2
				c-0.5,0.5-0.8,1.1-0.9,1.9h5.3c-0.1-0.9-0.3-1.5-0.7-1.9c-0.4-0.4-1-0.7-1.8-0.7S68.4,392.7,67.9,393.2z"/>
			<path class="st8" d="M83.8,391.6v9.1h-1.4V399c-0.3,0.6-0.7,1-1.2,1.3s-1.2,0.5-1.9,0.5c-0.8,0-1.5-0.2-2.1-0.6s-1.1-0.9-1.4-1.6
				s-0.5-1.5-0.5-2.5c0-0.9,0.2-1.8,0.5-2.5s0.8-1.3,1.4-1.7c0.6-0.4,1.3-0.6,2.1-0.6c0.7,0,1.3,0.2,1.9,0.5
				c0.5,0.3,0.9,0.8,1.2,1.3v-1.6h1.4V391.6z M81.7,398.7c0.5-0.6,0.7-1.5,0.7-2.6s-0.2-2-0.7-2.6s-1.2-0.9-2.1-0.9
				s-1.6,0.3-2.1,0.9s-0.7,1.5-0.7,2.6s0.2,2,0.7,2.6s1.2,0.9,2.1,0.9S81.2,399.3,81.7,398.7z"/>
			<path class="st8" d="M94.6,387.4v13.2h-1.4V399c-0.3,0.6-0.7,1-1.2,1.3s-1.2,0.5-1.9,0.5c-0.8,0-1.5-0.2-2.1-0.6s-1.1-1-1.4-1.7
				s-0.5-1.5-0.5-2.5c0-0.9,0.2-1.8,0.5-2.5s0.8-1.2,1.4-1.6s1.3-0.6,2.1-0.6c0.7,0,1.3,0.2,1.9,0.5c0.5,0.3,0.9,0.7,1.2,1.3v-5.7
				L94.6,387.4L94.6,387.4z M92.5,398.7c0.5-0.6,0.7-1.5,0.7-2.6s-0.2-2-0.7-2.6s-1.2-0.9-2.1-0.9s-1.6,0.3-2.1,0.9
				s-0.7,1.4-0.7,2.5s0.2,2,0.7,2.6s1.2,0.9,2.1,0.9C91.3,399.6,92,399.3,92.5,398.7z"/>
			<path class="st8" d="M99.1,387.8v1.7h-1.8v-1.7H99.1z M97.4,391.6h1.5v9.1h-1.5V391.6z"/>
			<path class="st8" d="M109.5,395v5.7H108V395c0-0.8-0.2-1.5-0.5-1.8s-0.9-0.6-1.6-0.6c-0.8,0-1.5,0.3-2,0.8s-0.8,1.2-0.8,2.1v5.2
				h-1.5v-6.5c0-0.9,0-1.8-0.1-2.5h1.4l0.1,1.6c0.3-0.6,0.7-1,1.2-1.4c0.6-0.3,1.2-0.5,1.9-0.5C108.4,391.4,109.5,392.6,109.5,395z"
				/>
			<path class="st8" d="M119.8,396.1h-6.6c0,1.2,0.3,2,0.8,2.6s1.3,0.9,2.3,0.9c1.1,0,2-0.4,2.9-1.1l0.5,1.1
				c-0.4,0.4-0.9,0.7-1.5,0.9s-1.3,0.3-1.9,0.3c-1.4,0-2.5-0.4-3.3-1.3c-0.8-0.8-1.2-2-1.2-3.4c0-0.9,0.2-1.7,0.5-2.5
				c0.4-0.7,0.9-1.3,1.5-1.7c0.6-0.4,1.4-0.6,2.2-0.6c1.2,0,2.1,0.4,2.8,1.2s1,1.9,1,3.2C119.8,395.7,119.8,396.1,119.8,396.1z
				 M114.2,393.2c-0.5,0.5-0.8,1.1-0.9,1.9h5.3c-0.1-0.9-0.3-1.5-0.7-1.9c-0.4-0.4-1-0.7-1.8-0.7S114.6,392.7,114.2,393.2z"/>
			<path class="st8" d="M121.5,399.6l0.5-1.1c0.5,0.4,1,0.7,1.5,0.8c0.5,0.2,1.1,0.3,1.7,0.3c0.7,0,1.2-0.1,1.6-0.4
				c0.4-0.2,0.5-0.6,0.5-1s-0.1-0.6-0.4-0.9c-0.2-0.2-0.6-0.4-1.2-0.5l-1.5-0.4c-0.8-0.2-1.3-0.5-1.8-0.9s-0.6-0.9-0.6-1.5
				c0-0.8,0.3-1.4,1-1.9c0.6-0.5,1.5-0.7,2.5-0.7c0.6,0,1.2,0.1,1.8,0.3s1,0.5,1.4,0.9l-0.5,1.1c-0.9-0.7-1.8-1.1-2.7-1.1
				c-0.6,0-1.1,0.1-1.5,0.4s-0.5,0.6-0.5,1s0.1,0.7,0.3,0.9s0.6,0.4,1.1,0.5l1.5,0.4c0.8,0.2,1.5,0.5,1.9,0.9
				c0.4,0.4,0.6,0.9,0.6,1.6c0,0.8-0.3,1.4-1,1.9c-0.6,0.5-1.5,0.7-2.6,0.7C123.6,400.8,122.4,400.4,121.5,399.6z"/>
			<path class="st8" d="M130.4,399.6l0.5-1.1c0.5,0.4,1,0.7,1.5,0.8c0.5,0.2,1.1,0.3,1.7,0.3c0.7,0,1.2-0.1,1.6-0.4
				c0.4-0.2,0.5-0.6,0.5-1s-0.1-0.6-0.4-0.9c-0.2-0.2-0.6-0.4-1.2-0.5l-1.5-0.4c-0.8-0.2-1.3-0.5-1.8-0.9s-0.6-0.9-0.6-1.5
				c0-0.8,0.3-1.4,1-1.9c0.6-0.5,1.5-0.7,2.5-0.7c0.6,0,1.2,0.1,1.8,0.3s1,0.5,1.4,0.9l-0.5,1.1c-0.9-0.7-1.8-1.1-2.7-1.1
				c-0.6,0-1.1,0.1-1.5,0.4s-0.5,0.6-0.5,1s0.1,0.7,0.3,0.9s0.6,0.4,1.1,0.5l1.5,0.4c0.8,0.2,1.5,0.5,1.9,0.9s0.6,0.9,0.6,1.6
				c0,0.8-0.3,1.4-1,1.9c-0.6,0.5-1.5,0.7-2.6,0.7C132.5,400.8,131.3,400.4,130.4,399.6z"/>
			<path class="st8" d="M153.2,397.4h-6.7l-1.4,3.3h-1.5l5.6-12.8h1.3l5.6,12.8h-1.5L153.2,397.4z M152.6,396.1l-2.8-6.6l-2.8,6.6
				H152.6z"/>
			<path class="st8" d="M157.1,399.6l0.5-1.1c0.5,0.4,1,0.7,1.5,0.8s1.1,0.3,1.7,0.3c0.7,0,1.2-0.1,1.6-0.4c0.4-0.2,0.5-0.6,0.5-1
				s-0.1-0.6-0.4-0.9c-0.2-0.2-0.6-0.4-1.2-0.5l-1.5-0.4c-0.8-0.2-1.3-0.5-1.8-0.9s-0.6-0.9-0.6-1.5c0-0.8,0.3-1.4,1-1.9
				c0.6-0.5,1.5-0.7,2.5-0.7c0.6,0,1.2,0.1,1.8,0.3c0.6,0.2,1,0.5,1.4,0.9l-0.5,1.1c-0.9-0.7-1.8-1.1-2.7-1.1
				c-0.6,0-1.1,0.1-1.5,0.4c-0.4,0.2-0.5,0.6-0.5,1s0.1,0.7,0.3,0.9c0.2,0.2,0.6,0.4,1.1,0.5l1.5,0.4c0.8,0.2,1.5,0.5,1.9,0.9
				s0.6,0.9,0.6,1.6c0,0.8-0.3,1.4-1,1.9c-0.6,0.5-1.5,0.7-2.6,0.7C159.2,400.8,158,400.4,157.1,399.6z"/>
			<path class="st8" d="M166.1,399.6l0.5-1.1c0.5,0.4,1,0.7,1.5,0.8s1.1,0.3,1.7,0.3c0.7,0,1.2-0.1,1.6-0.4c0.4-0.2,0.5-0.6,0.5-1
				s-0.1-0.6-0.4-0.9c-0.2-0.2-0.6-0.4-1.2-0.5l-1.5-0.4c-0.8-0.2-1.3-0.5-1.8-0.9s-0.6-0.9-0.6-1.5c0-0.8,0.3-1.4,1-1.9
				c0.6-0.5,1.5-0.7,2.5-0.7c0.6,0,1.2,0.1,1.8,0.3c0.6,0.2,1,0.5,1.4,0.9l-0.5,1.1c-0.9-0.7-1.8-1.1-2.7-1.1
				c-0.6,0-1.1,0.1-1.5,0.4c-0.4,0.2-0.5,0.6-0.5,1s0.1,0.7,0.3,0.9c0.2,0.2,0.6,0.4,1.1,0.5l1.5,0.4c0.8,0.2,1.5,0.5,1.9,0.9
				s0.6,0.9,0.6,1.6c0,0.8-0.3,1.4-1,1.9c-0.6,0.5-1.5,0.7-2.6,0.7C168.2,400.8,167,400.4,166.1,399.6z"/>
			<path class="st8" d="M183.1,396.1h-6.6c0,1.2,0.3,2,0.8,2.6s1.3,0.9,2.3,0.9c1.1,0,2-0.4,2.9-1.1l0.5,1.1
				c-0.4,0.4-0.9,0.7-1.5,0.9s-1.3,0.3-1.9,0.3c-1.4,0-2.5-0.4-3.3-1.3c-0.8-0.8-1.2-2-1.2-3.4c0-0.9,0.2-1.7,0.5-2.5
				c0.4-0.7,0.9-1.3,1.5-1.7c0.6-0.4,1.4-0.6,2.2-0.6c1.2,0,2.1,0.4,2.8,1.2c0.7,0.8,1,1.9,1,3.2V396.1z M177.5,393.2
				c-0.5,0.5-0.8,1.1-0.9,1.9h5.3c-0.1-0.9-0.3-1.5-0.7-1.9s-1-0.7-1.8-0.7S177.9,392.7,177.5,393.2z"/>
			<path class="st8" d="M184.8,399.6l0.5-1.1c0.5,0.4,1,0.7,1.5,0.8s1.1,0.3,1.7,0.3c0.7,0,1.2-0.1,1.6-0.4c0.4-0.2,0.5-0.6,0.5-1
				s-0.1-0.6-0.4-0.9c-0.2-0.2-0.6-0.4-1.2-0.5l-1.5-0.4c-0.8-0.2-1.3-0.5-1.8-0.9s-0.6-0.9-0.6-1.5c0-0.8,0.3-1.4,1-1.9
				c0.6-0.5,1.5-0.7,2.5-0.7c0.6,0,1.2,0.1,1.8,0.3c0.6,0.2,1,0.5,1.4,0.9l-0.5,1.1c-0.9-0.7-1.8-1.1-2.7-1.1
				c-0.6,0-1.1,0.1-1.5,0.4c-0.4,0.2-0.5,0.6-0.5,1s0.1,0.7,0.3,0.9c0.2,0.2,0.6,0.4,1.1,0.5l1.5,0.4c0.8,0.2,1.5,0.5,1.9,0.9
				s0.6,0.9,0.6,1.6c0,0.8-0.3,1.4-1,1.9c-0.6,0.5-1.5,0.7-2.6,0.7C186.9,400.8,185.7,400.4,184.8,399.6z"/>
			<path class="st8" d="M193.7,399.6l0.5-1.1c0.5,0.4,1,0.7,1.5,0.8s1.1,0.3,1.7,0.3c0.7,0,1.2-0.1,1.6-0.4c0.4-0.2,0.5-0.6,0.5-1
				s-0.1-0.6-0.4-0.9c-0.2-0.2-0.6-0.4-1.2-0.5l-1.5-0.4c-0.8-0.2-1.3-0.5-1.8-0.9s-0.6-0.9-0.6-1.5c0-0.8,0.3-1.4,1-1.9
				c0.6-0.5,1.5-0.7,2.5-0.7c0.6,0,1.2,0.1,1.8,0.3c0.6,0.2,1,0.5,1.4,0.9l-0.5,1.1c-0.9-0.7-1.8-1.1-2.7-1.1
				c-0.6,0-1.1,0.1-1.5,0.4c-0.4,0.2-0.5,0.6-0.5,1s0.1,0.7,0.3,0.9c0.2,0.2,0.6,0.4,1.1,0.5l1.5,0.4c0.8,0.2,1.5,0.5,1.9,0.9
				s0.6,0.9,0.6,1.6c0,0.8-0.3,1.4-1,1.9c-0.6,0.5-1.5,0.7-2.6,0.7C195.8,400.8,194.6,400.4,193.7,399.6z"/>
			<path class="st8" d="M216.3,395v5.7h-1.5V395c0-0.9-0.1-1.5-0.4-1.9c-0.3-0.4-0.8-0.6-1.4-0.6c-0.8,0-1.4,0.3-1.8,0.8
				c-0.4,0.5-0.6,1.2-0.6,2.1v5.2H209V395c0-0.8-0.1-1.5-0.4-1.8c-0.3-0.4-0.8-0.6-1.4-0.6c-0.8,0-1.4,0.3-1.8,0.8
				c-0.4,0.5-0.7,1.2-0.7,2.1v5.2h-1.5v-6.5c0-0.9,0-1.8-0.1-2.5h1.4l0.1,1.6c0.3-0.6,0.6-1,1.1-1.3s1.1-0.5,1.7-0.5
				c0.7,0,1.3,0.1,1.8,0.4s0.8,0.7,1,1.3c0.3-0.5,0.7-1,1.2-1.3s1.1-0.5,1.8-0.5C215.3,391.4,216.3,392.6,216.3,395z"/>
			<path class="st8" d="M226.6,396.1H220c0,1.2,0.3,2,0.8,2.6s1.3,0.9,2.3,0.9c1.1,0,2-0.4,2.9-1.1l0.5,1.1
				c-0.4,0.4-0.9,0.7-1.5,0.9s-1.3,0.3-1.9,0.3c-1.4,0-2.5-0.4-3.3-1.3s-1.2-2-1.2-3.4c0-0.9,0.2-1.7,0.5-2.5s0.9-1.3,1.5-1.7
				c0.6-0.4,1.4-0.6,2.2-0.6c1.2,0,2.1,0.4,2.8,1.2c0.7,0.8,1,1.9,1,3.2V396.1z M220.9,393.2c-0.5,0.5-0.8,1.1-0.9,1.9h5.3
				c-0.1-0.9-0.3-1.5-0.7-1.9s-1-0.7-1.8-0.7S221.4,392.7,220.9,393.2z"/>
			<path class="st8" d="M236.6,395v5.7h-1.5V395c0-0.8-0.2-1.5-0.5-1.8s-0.9-0.6-1.6-0.6c-0.8,0-1.5,0.3-2,0.8s-0.8,1.2-0.8,2.1v5.2
				h-1.5v-6.5c0-0.9,0-1.8-0.1-2.5h1.4l0.1,1.6c0.3-0.6,0.7-1,1.2-1.4c0.6-0.3,1.2-0.5,1.9-0.5C235.5,391.4,236.6,392.6,236.6,395z"
				/>
			<path class="st8" d="M241.3,392.8v5c0,0.7,0.1,1.1,0.4,1.4c0.3,0.3,0.7,0.4,1.2,0.4c0.3,0,0.7-0.1,1-0.2v1.2
				c-0.4,0.1-0.8,0.2-1.3,0.2c-0.9,0-1.5-0.2-2-0.7s-0.7-1.2-0.7-2.2v-5.1h-1.8v-1.2h1.8v-2.3l1.5-0.5v2.8h2.6v1.2L241.3,392.8
				L241.3,392.8z"/>
		</g>
	</g>
	<g>
		<g class="st7">
			<path class="st10" d="M63.8,575h-1.6l-1.6-4.3c-0.2-0.5-0.5-0.9-0.8-1.1c-0.3-0.2-0.8-0.3-1.4-0.3h-3.2v5.6h-1.5v-12.8h5.1
				c1.4,0,2.4,0.3,3.2,0.9c0.7,0.6,1.1,1.5,1.1,2.6c0,0.8-0.2,1.5-0.7,2.1c-0.4,0.6-1.1,1-1.9,1.2c0.4,0.1,0.7,0.2,1,0.5
				s0.5,0.6,0.7,1.1L63.8,575z M58.7,568.2c2,0,3-0.8,3-2.4c0-0.8-0.2-1.4-0.7-1.8c-0.5-0.4-1.2-0.6-2.2-0.6h-3.5v4.8H58.7z"/>
			<path class="st10" d="M73.6,570.4H67c0,1.2,0.3,2,0.8,2.6s1.3,0.9,2.3,0.9c1.1,0,2-0.4,2.9-1.1l0.5,1.1c-0.4,0.4-0.9,0.7-1.5,0.9
				s-1.3,0.3-1.9,0.3c-1.4,0-2.5-0.4-3.3-1.3c-0.8-0.8-1.2-2-1.2-3.4c0-0.9,0.2-1.7,0.5-2.5c0.4-0.7,0.9-1.3,1.5-1.7
				s1.4-0.6,2.2-0.6c1.2,0,2.1,0.4,2.8,1.2s1,1.9,1,3.2C73.6,570,73.6,570.4,73.6,570.4z M67.9,567.5c-0.5,0.5-0.8,1.1-0.9,1.9h5.3
				c-0.1-0.9-0.3-1.5-0.7-1.9c-0.4-0.4-1-0.7-1.8-0.7S68.4,567.1,67.9,567.5z"/>
			<path class="st10" d="M83.8,565.9v9.1h-1.4v-1.6c-0.3,0.6-0.7,1-1.2,1.3s-1.2,0.5-1.9,0.5c-0.8,0-1.5-0.2-2.1-0.6
				c-0.6-0.4-1.1-0.9-1.4-1.6s-0.5-1.5-0.5-2.5c0-0.9,0.2-1.8,0.5-2.5s0.8-1.3,1.4-1.7s1.3-0.6,2.1-0.6c0.7,0,1.3,0.2,1.9,0.5
				c0.5,0.3,0.9,0.8,1.2,1.3v-1.6L83.8,565.9L83.8,565.9z M81.7,573c0.5-0.6,0.7-1.5,0.7-2.6s-0.2-2-0.7-2.6s-1.2-0.9-2.1-0.9
				s-1.6,0.3-2.1,0.9s-0.7,1.5-0.7,2.6s0.2,2,0.7,2.6s1.2,0.9,2.1,0.9S81.2,573.6,81.7,573z"/>
			<path class="st10" d="M94.6,561.7V575h-1.4v-1.6c-0.3,0.6-0.7,1-1.2,1.3s-1.2,0.5-1.9,0.5c-0.8,0-1.5-0.2-2.1-0.6
				c-0.6-0.4-1.1-1-1.4-1.7s-0.5-1.5-0.5-2.5c0-0.9,0.2-1.8,0.5-2.5s0.8-1.2,1.4-1.6c0.6-0.4,1.3-0.6,2.1-0.6c0.7,0,1.3,0.2,1.9,0.5
				c0.5,0.3,0.9,0.7,1.2,1.3v-5.7h1.4V561.7z M92.5,573c0.5-0.6,0.7-1.5,0.7-2.6s-0.2-2-0.7-2.6s-1.2-0.9-2.1-0.9s-1.6,0.3-2.1,0.9
				c-0.5,0.6-0.7,1.4-0.7,2.5s0.2,2,0.7,2.6s1.2,0.9,2.1,0.9C91.3,573.9,92,573.6,92.5,573z"/>
			<path class="st10" d="M99.1,562.1v1.7h-1.8v-1.7H99.1z M97.4,565.9h1.5v9.1h-1.5V565.9z"/>
			<path class="st10" d="M109.5,569.3v5.7H108v-5.6c0-0.8-0.2-1.5-0.5-1.8s-0.9-0.6-1.6-0.6c-0.8,0-1.5,0.3-2,0.8s-0.8,1.2-0.8,2.1
				v5.2h-1.5v-6.5c0-0.9,0-1.8-0.1-2.5h1.4l0.1,1.6c0.3-0.6,0.7-1,1.2-1.4c0.6-0.3,1.2-0.5,1.9-0.5
				C108.4,565.7,109.5,566.9,109.5,569.3z"/>
			<path class="st10" d="M119.8,570.4h-6.6c0,1.2,0.3,2,0.8,2.6s1.3,0.9,2.3,0.9c1.1,0,2-0.4,2.9-1.1l0.5,1.1
				c-0.4,0.4-0.9,0.7-1.5,0.9s-1.3,0.3-1.9,0.3c-1.4,0-2.5-0.4-3.3-1.3c-0.8-0.8-1.2-2-1.2-3.4c0-0.9,0.2-1.7,0.5-2.5
				c0.4-0.7,0.9-1.3,1.5-1.7s1.4-0.6,2.2-0.6c1.2,0,2.1,0.4,2.8,1.2s1,1.9,1,3.2C119.8,570,119.8,570.4,119.8,570.4z M114.2,567.5
				c-0.5,0.5-0.8,1.1-0.9,1.9h5.3c-0.1-0.9-0.3-1.5-0.7-1.9c-0.4-0.4-1-0.7-1.8-0.7S114.6,567.1,114.2,567.5z"/>
			<path class="st10" d="M121.5,573.9l0.5-1.1c0.5,0.4,1,0.7,1.5,0.8c0.5,0.2,1.1,0.3,1.7,0.3c0.7,0,1.2-0.1,1.6-0.4
				c0.4-0.2,0.5-0.6,0.5-1s-0.1-0.6-0.4-0.9c-0.2-0.2-0.6-0.4-1.2-0.5l-1.5-0.4c-0.8-0.2-1.3-0.5-1.8-0.9s-0.6-0.9-0.6-1.5
				c0-0.8,0.3-1.4,1-1.9c0.6-0.5,1.5-0.7,2.5-0.7c0.6,0,1.2,0.1,1.8,0.3s1,0.5,1.4,0.9L128,568c-0.9-0.7-1.8-1.1-2.7-1.1
				c-0.6,0-1.1,0.1-1.5,0.4s-0.5,0.6-0.5,1s0.1,0.7,0.3,0.9s0.6,0.4,1.1,0.5l1.5,0.4c0.8,0.2,1.5,0.5,1.9,0.9
				c0.4,0.4,0.6,0.9,0.6,1.6c0,0.8-0.3,1.4-1,1.9c-0.6,0.5-1.5,0.7-2.6,0.7C123.6,575.1,122.4,574.7,121.5,573.9z"/>
			<path class="st10" d="M130.4,573.9l0.5-1.1c0.5,0.4,1,0.7,1.5,0.8c0.5,0.2,1.1,0.3,1.7,0.3c0.7,0,1.2-0.1,1.6-0.4
				c0.4-0.2,0.5-0.6,0.5-1s-0.1-0.6-0.4-0.9c-0.2-0.2-0.6-0.4-1.2-0.5l-1.5-0.4c-0.8-0.2-1.3-0.5-1.8-0.9s-0.6-0.9-0.6-1.5
				c0-0.8,0.3-1.4,1-1.9c0.6-0.5,1.5-0.7,2.5-0.7c0.6,0,1.2,0.1,1.8,0.3s1,0.5,1.4,0.9l-0.5,1.1c-0.9-0.7-1.8-1.1-2.7-1.1
				c-0.6,0-1.1,0.1-1.5,0.4s-0.5,0.6-0.5,1s0.1,0.7,0.3,0.9s0.6,0.4,1.1,0.5l1.5,0.4c0.8,0.2,1.5,0.5,1.9,0.9s0.6,0.9,0.6,1.6
				c0,0.8-0.3,1.4-1,1.9c-0.6,0.5-1.5,0.7-2.6,0.7C132.5,575.1,131.3,574.7,130.4,573.9z"/>
			<path class="st10" d="M153.2,571.7h-6.7L145,575h-1.5l5.6-12.8h1.3L156,575h-1.5L153.2,571.7z M152.6,570.5l-2.8-6.6l-2.8,6.6
				H152.6z"/>
			<path class="st10" d="M157.1,573.9l0.5-1.1c0.5,0.4,1,0.7,1.5,0.8s1.1,0.3,1.7,0.3c0.7,0,1.2-0.1,1.6-0.4c0.4-0.2,0.5-0.6,0.5-1
				s-0.1-0.6-0.4-0.9c-0.2-0.2-0.6-0.4-1.2-0.5l-1.5-0.4c-0.8-0.2-1.3-0.5-1.8-0.9s-0.6-0.9-0.6-1.5c0-0.8,0.3-1.4,1-1.9
				c0.6-0.5,1.5-0.7,2.5-0.7c0.6,0,1.2,0.1,1.8,0.3s1,0.5,1.4,0.9l-0.5,1.1c-0.9-0.7-1.8-1.1-2.7-1.1c-0.6,0-1.1,0.1-1.5,0.4
				c-0.4,0.2-0.5,0.6-0.5,1s0.1,0.7,0.3,0.9s0.6,0.4,1.1,0.5l1.5,0.4c0.8,0.2,1.5,0.5,1.9,0.9s0.6,0.9,0.6,1.6c0,0.8-0.3,1.4-1,1.9
				c-0.6,0.5-1.5,0.7-2.6,0.7C159.2,575.1,158,574.7,157.1,573.9z"/>
			<path class="st10" d="M166.1,573.9l0.5-1.1c0.5,0.4,1,0.7,1.5,0.8s1.1,0.3,1.7,0.3c0.7,0,1.2-0.1,1.6-0.4c0.4-0.2,0.5-0.6,0.5-1
				s-0.1-0.6-0.4-0.9c-0.2-0.2-0.6-0.4-1.2-0.5l-1.5-0.4c-0.8-0.2-1.3-0.5-1.8-0.9s-0.6-0.9-0.6-1.5c0-0.8,0.3-1.4,1-1.9
				c0.6-0.5,1.5-0.7,2.5-0.7c0.6,0,1.2,0.1,1.8,0.3s1,0.5,1.4,0.9l-0.5,1.1c-0.9-0.7-1.8-1.1-2.7-1.1c-0.6,0-1.1,0.1-1.5,0.4
				c-0.4,0.2-0.5,0.6-0.5,1s0.1,0.7,0.3,0.9s0.6,0.4,1.1,0.5l1.5,0.4c0.8,0.2,1.5,0.5,1.9,0.9s0.6,0.9,0.6,1.6c0,0.8-0.3,1.4-1,1.9
				c-0.6,0.5-1.5,0.7-2.6,0.7C168.2,575.1,167,574.7,166.1,573.9z"/>
			<path class="st10" d="M183.1,570.4h-6.6c0,1.2,0.3,2,0.8,2.6s1.3,0.9,2.3,0.9c1.1,0,2-0.4,2.9-1.1l0.5,1.1
				c-0.4,0.4-0.9,0.7-1.5,0.9s-1.3,0.3-1.9,0.3c-1.4,0-2.5-0.4-3.3-1.3c-0.8-0.8-1.2-2-1.2-3.4c0-0.9,0.2-1.7,0.5-2.5
				c0.4-0.7,0.9-1.3,1.5-1.7s1.4-0.6,2.2-0.6c1.2,0,2.1,0.4,2.8,1.2s1,1.9,1,3.2V570.4z M177.5,567.5c-0.5,0.5-0.8,1.1-0.9,1.9h5.3
				c-0.1-0.9-0.3-1.5-0.7-1.9s-1-0.7-1.8-0.7S177.9,567.1,177.5,567.5z"/>
			<path class="st10" d="M184.8,573.9l0.5-1.1c0.5,0.4,1,0.7,1.5,0.8s1.1,0.3,1.7,0.3c0.7,0,1.2-0.1,1.6-0.4c0.4-0.2,0.5-0.6,0.5-1
				s-0.1-0.6-0.4-0.9c-0.2-0.2-0.6-0.4-1.2-0.5l-1.5-0.4c-0.8-0.2-1.3-0.5-1.8-0.9s-0.6-0.9-0.6-1.5c0-0.8,0.3-1.4,1-1.9
				c0.6-0.5,1.5-0.7,2.5-0.7c0.6,0,1.2,0.1,1.8,0.3s1,0.5,1.4,0.9l-0.5,1.1c-0.9-0.7-1.8-1.1-2.7-1.1c-0.6,0-1.1,0.1-1.5,0.4
				c-0.4,0.2-0.5,0.6-0.5,1s0.1,0.7,0.3,0.9s0.6,0.4,1.1,0.5l1.5,0.4c0.8,0.2,1.5,0.5,1.9,0.9s0.6,0.9,0.6,1.6c0,0.8-0.3,1.4-1,1.9
				c-0.6,0.5-1.5,0.7-2.6,0.7C186.9,575.1,185.7,574.7,184.8,573.9z"/>
			<path class="st10" d="M193.7,573.9l0.5-1.1c0.5,0.4,1,0.7,1.5,0.8s1.1,0.3,1.7,0.3c0.7,0,1.2-0.1,1.6-0.4c0.4-0.2,0.5-0.6,0.5-1
				s-0.1-0.6-0.4-0.9c-0.2-0.2-0.6-0.4-1.2-0.5l-1.5-0.4c-0.8-0.2-1.3-0.5-1.8-0.9s-0.6-0.9-0.6-1.5c0-0.8,0.3-1.4,1-1.9
				c0.6-0.5,1.5-0.7,2.5-0.7c0.6,0,1.2,0.1,1.8,0.3s1,0.5,1.4,0.9l-0.5,1.1c-0.9-0.7-1.8-1.1-2.7-1.1c-0.6,0-1.1,0.1-1.5,0.4
				c-0.4,0.2-0.5,0.6-0.5,1s0.1,0.7,0.3,0.9s0.6,0.4,1.1,0.5l1.5,0.4c0.8,0.2,1.5,0.5,1.9,0.9s0.6,0.9,0.6,1.6c0,0.8-0.3,1.4-1,1.9
				c-0.6,0.5-1.5,0.7-2.6,0.7C195.8,575.1,194.6,574.7,193.7,573.9z"/>
			<path class="st10" d="M216.3,569.3v5.7h-1.5v-5.6c0-0.9-0.1-1.5-0.4-1.9c-0.3-0.4-0.8-0.6-1.4-0.6c-0.8,0-1.4,0.3-1.8,0.8
				c-0.4,0.5-0.6,1.2-0.6,2.1v5.2H209v-5.6c0-0.8-0.1-1.5-0.4-1.8c-0.3-0.4-0.8-0.6-1.4-0.6c-0.8,0-1.4,0.3-1.8,0.8
				c-0.4,0.5-0.7,1.2-0.7,2.1v5.2h-1.5v-6.5c0-0.9,0-1.8-0.1-2.5h1.4l0.1,1.6c0.3-0.6,0.6-1,1.1-1.3s1.1-0.5,1.7-0.5
				c0.7,0,1.3,0.1,1.8,0.4s0.8,0.7,1,1.3c0.3-0.5,0.7-1,1.2-1.3s1.1-0.5,1.8-0.5C215.3,565.7,216.3,566.9,216.3,569.3z"/>
			<path class="st10" d="M226.6,570.4H220c0,1.2,0.3,2,0.8,2.6s1.3,0.9,2.3,0.9c1.1,0,2-0.4,2.9-1.1l0.5,1.1
				c-0.4,0.4-0.9,0.7-1.5,0.9s-1.3,0.3-1.9,0.3c-1.4,0-2.5-0.4-3.3-1.3s-1.2-2-1.2-3.4c0-0.9,0.2-1.7,0.5-2.5s0.9-1.3,1.5-1.7
				s1.4-0.6,2.2-0.6c1.2,0,2.1,0.4,2.8,1.2s1,1.9,1,3.2V570.4z M220.9,567.5c-0.5,0.5-0.8,1.1-0.9,1.9h5.3c-0.1-0.9-0.3-1.5-0.7-1.9
				s-1-0.7-1.8-0.7S221.4,567.1,220.9,567.5z"/>
			<path class="st10" d="M236.6,569.3v5.7h-1.5v-5.6c0-0.8-0.2-1.5-0.5-1.8s-0.9-0.6-1.6-0.6c-0.8,0-1.5,0.3-2,0.8s-0.8,1.2-0.8,2.1
				v5.2h-1.5v-6.5c0-0.9,0-1.8-0.1-2.5h1.4l0.1,1.6c0.3-0.6,0.7-1,1.2-1.4c0.6-0.3,1.2-0.5,1.9-0.5
				C235.5,565.7,236.6,566.9,236.6,569.3z"/>
			<path class="st10" d="M241.3,567.1v5c0,0.7,0.1,1.1,0.4,1.4c0.3,0.3,0.7,0.4,1.2,0.4c0.3,0,0.7-0.1,1-0.2v1.2
				c-0.4,0.1-0.8,0.2-1.3,0.2c-0.9,0-1.5-0.2-2-0.7s-0.7-1.2-0.7-2.2v-5.1h-1.8v-1.2h1.8v-2.3l1.5-0.5v2.8h2.6v1.2L241.3,567.1
				L241.3,567.1z"/>
		</g>
	</g>
	<g>
		<g class="st7">
			<path class="st10" d="M74.3,529.8h7.9v1.2h-6.5v4.4h6.1v1.2h-6.1v5.9h-1.5L74.3,529.8L74.3,529.8z"/>
			<path class="st10" d="M91.7,538.1h-6.6c0,1.2,0.3,2,0.8,2.6s1.3,0.9,2.3,0.9c1.1,0,2-0.4,2.9-1.1l0.5,1.1
				c-0.4,0.4-0.9,0.7-1.5,0.9s-1.3,0.3-1.9,0.3c-1.4,0-2.5-0.4-3.3-1.3c-0.8-0.8-1.2-2-1.2-3.4c0-0.9,0.2-1.7,0.5-2.5
				c0.4-0.7,0.9-1.3,1.5-1.7s1.4-0.6,2.2-0.6c1.2,0,2.1,0.4,2.8,1.2s1,1.9,1,3.2C91.7,537.7,91.7,538.1,91.7,538.1z M86,535.2
				c-0.5,0.5-0.8,1.1-0.9,1.9h5.3c-0.1-0.9-0.3-1.5-0.7-1.9c-0.4-0.4-1-0.7-1.8-0.7S86.5,534.7,86,535.2z"/>
			<path class="st10" d="M101.9,529.4v13.2h-1.4V541c-0.3,0.6-0.7,1-1.2,1.3s-1.2,0.5-1.9,0.5c-0.8,0-1.5-0.2-2.1-0.6
				c-0.6-0.4-1.1-1-1.4-1.7s-0.5-1.5-0.5-2.5c0-0.9,0.2-1.8,0.5-2.5s0.8-1.2,1.4-1.6c0.6-0.4,1.3-0.6,2.1-0.6c0.7,0,1.3,0.2,1.9,0.5
				c0.5,0.3,0.9,0.7,1.2,1.3v-5.7H101.9z M99.7,540.7c0.5-0.6,0.7-1.5,0.7-2.6s-0.2-2-0.7-2.6s-1.2-0.9-2.1-0.9s-1.6,0.3-2.1,0.9
				c-0.5,0.6-0.7,1.4-0.7,2.5s0.2,2,0.7,2.6s1.2,0.9,2.1,0.9C98.6,541.6,99.2,541.3,99.7,540.7z"/>
			<path class="st10" d="M115,542.7h-1.6l-1.6-4.3c-0.2-0.5-0.5-0.9-0.8-1.1c-0.3-0.2-0.8-0.3-1.4-0.3h-3.2v5.6h-1.5v-12.8h5.1
				c1.4,0,2.4,0.3,3.2,0.9c0.7,0.6,1.1,1.5,1.1,2.6c0,0.8-0.2,1.5-0.7,2.1c-0.4,0.6-1.1,1-1.9,1.2c0.4,0.1,0.7,0.2,1,0.5
				s0.5,0.6,0.7,1.1L115,542.7z M109.9,535.8c2,0,3-0.8,3-2.4c0-0.8-0.2-1.4-0.7-1.8c-0.5-0.4-1.2-0.6-2.2-0.6h-3.5v4.8H109.9z"/>
			<path class="st10" d="M125.6,539.4h-6.7l-1.4,3.3H116l5.6-12.8h1.3l5.6,12.8H127L125.6,539.4z M125.1,538.1l-2.8-6.6l-2.8,6.6
				H125.1z"/>
			<path class="st10" d="M142.6,529.8v12.8h-1.4v-9.5l-4.2,9.5h-1l-4.2-9.5v9.5h-1.4v-12.8h1.2l4.9,11.1l4.8-11.1H142.6z"/>
			<path class="st10" d="M145.8,529.8h5.1c1.3,0,2.3,0.3,3.1,1c0.7,0.6,1.1,1.5,1.1,2.6s-0.4,2-1.1,2.6c-0.7,0.6-1.8,1-3.1,1h-3.6
				v5.6h-1.5V529.8z M150.7,535.8c0.9,0,1.7-0.2,2.1-0.6c0.5-0.4,0.7-1,0.7-1.8s-0.2-1.4-0.7-1.8c-0.5-0.4-1.2-0.6-2.1-0.6h-3.5v4.7
				L150.7,535.8L150.7,535.8z"/>
			<path class="st10" d="M164.5,542c-0.9-0.5-1.6-1.3-2.1-2.3s-0.7-2.2-0.7-3.5s0.2-2.5,0.7-3.5s1.2-1.7,2.1-2.3
				c0.9-0.5,1.9-0.8,3.2-0.8c0.9,0,1.7,0.1,2.4,0.4c0.7,0.3,1.4,0.7,1.9,1.2l-0.6,1.1c-0.6-0.5-1.2-0.9-1.8-1.1s-1.3-0.3-2-0.3
				c-1.4,0-2.5,0.5-3.3,1.4s-1.2,2.2-1.2,3.9s0.4,3,1.2,3.9s1.9,1.4,3.3,1.4c0.7,0,1.4-0.1,2-0.3s1.2-0.6,1.8-1.1l0.6,1.1
				c-0.5,0.5-1.2,0.9-1.9,1.2s-1.6,0.4-2.4,0.4C166.4,542.8,165.4,542.5,164.5,542z"/>
			<path class="st10" d="M175.6,542.2c-0.6-0.4-1.1-0.9-1.5-1.6c-0.4-0.7-0.5-1.5-0.5-2.5c0-0.9,0.2-1.8,0.5-2.5
				c0.4-0.7,0.9-1.3,1.5-1.6c0.6-0.4,1.4-0.6,2.2-0.6c0.9,0,1.6,0.2,2.2,0.6c0.6,0.4,1.1,0.9,1.5,1.6c0.4,0.7,0.5,1.5,0.5,2.5
				c0,0.9-0.2,1.8-0.5,2.5c-0.4,0.7-0.9,1.3-1.5,1.6c-0.6,0.4-1.4,0.6-2.2,0.6S176.3,542.6,175.6,542.2z M179.9,540.7
				c0.5-0.6,0.7-1.5,0.7-2.6s-0.2-2-0.7-2.6s-1.2-0.9-2.1-0.9c-0.9,0-1.6,0.3-2.1,0.9c-0.5,0.6-0.7,1.5-0.7,2.6s0.2,2,0.7,2.6
				s1.2,0.9,2.1,0.9C178.8,541.6,179.5,541.3,179.9,540.7z"/>
			<path class="st10" d="M192.2,537v5.7h-1.5V537c0-0.8-0.2-1.5-0.5-1.8s-0.9-0.6-1.6-0.6c-0.8,0-1.5,0.3-2,0.8s-0.8,1.2-0.8,2.1
				v5.2h-1.5v-6.5c0-0.9,0-1.8-0.1-2.5h1.4l0.1,1.6c0.3-0.6,0.7-1,1.2-1.4c0.6-0.3,1.2-0.5,1.9-0.5
				C191.1,533.4,192.2,534.6,192.2,537z"/>
			<path class="st10" d="M202.7,537v5.7h-1.5V537c0-0.8-0.2-1.5-0.5-1.8s-0.9-0.6-1.6-0.6c-0.8,0-1.5,0.3-2,0.8s-0.8,1.2-0.8,2.1
				v5.2h-1.5v-6.5c0-0.9,0-1.8-0.1-2.5h1.4l0.1,1.6c0.3-0.6,0.7-1,1.2-1.4c0.6-0.3,1.2-0.5,1.9-0.5
				C201.6,533.4,202.7,534.6,202.7,537z"/>
			<path class="st10" d="M213.1,538.1h-6.6c0,1.2,0.3,2,0.8,2.6s1.3,0.9,2.3,0.9c1.1,0,2-0.4,2.9-1.1l0.5,1.1
				c-0.4,0.4-0.9,0.7-1.5,0.9s-1.3,0.3-1.9,0.3c-1.4,0-2.5-0.4-3.3-1.3c-0.8-0.8-1.2-2-1.2-3.4c0-0.9,0.2-1.7,0.5-2.5
				c0.4-0.7,0.9-1.3,1.5-1.7s1.4-0.6,2.2-0.6c1.2,0,2.1,0.4,2.8,1.2s1,1.9,1,3.2V538.1z M207.4,535.2c-0.5,0.5-0.8,1.1-0.9,1.9h5.3
				c-0.1-0.9-0.3-1.5-0.7-1.9s-1-0.7-1.8-0.7S207.8,534.7,207.4,535.2z"/>
			<path class="st10" d="M216.8,542.2c-0.7-0.4-1.2-0.9-1.5-1.6c-0.4-0.7-0.5-1.5-0.5-2.5c0-0.9,0.2-1.8,0.5-2.5
				c0.4-0.7,0.9-1.3,1.5-1.7c0.7-0.4,1.4-0.6,2.3-0.6c0.6,0,1.2,0.1,1.8,0.3s1,0.5,1.4,0.9l-0.5,1.1c-0.5-0.4-0.9-0.6-1.3-0.8
				s-0.9-0.3-1.3-0.3c-0.9,0-1.7,0.3-2.2,0.9c-0.5,0.6-0.8,1.5-0.8,2.6s0.3,1.9,0.8,2.5s1.3,0.9,2.2,0.9c0.4,0,0.9-0.1,1.3-0.3
				s0.9-0.4,1.3-0.8l0.5,1.1c-0.4,0.4-0.9,0.6-1.4,0.9c-0.6,0.2-1.2,0.3-1.8,0.3C218.2,542.8,217.4,542.6,216.8,542.2z"/>
			<path class="st10" d="M226.1,534.8v5c0,0.7,0.1,1.1,0.4,1.4c0.3,0.3,0.7,0.4,1.2,0.4c0.3,0,0.7-0.1,1-0.2v1.2
				c-0.4,0.1-0.8,0.2-1.3,0.2c-0.9,0-1.5-0.2-2-0.7s-0.7-1.2-0.7-2.2v-5.1h-1.8v-1.2h1.8v-2.3l1.5-0.5v2.8h2.6v1.2L226.1,534.8
				L226.1,534.8z"/>
		</g>
	</g>
	<g class="st7">
		<path class="st8" d="M120.1,780.6h-6.5l-1.2,3h-3.3l6.2-14h3.2l6.2,14h-3.4L120.1,780.6z M119.1,778.1l-2.2-5.4l-2.2,5.4H119.1z"
			/>
		<path class="st8" d="M136.9,772.8v8.9c0,4-2.1,5.8-6,5.8c-2,0-4-0.5-5.2-1.5l1.2-2.2c0.9,0.7,2.4,1.2,3.8,1.2c2.2,0,3.1-1,3.1-2.9
			v-0.5c-0.8,0.9-2,1.3-3.4,1.3c-3,0-5.3-2.1-5.3-5.2c0-3.1,2.4-5.2,5.3-5.2c1.5,0,2.7,0.5,3.5,1.5v-1.4h3V772.8z M133.8,777.8
			c0-1.6-1.2-2.6-2.8-2.6s-2.8,1.1-2.8,2.6c0,1.6,1.2,2.6,2.8,2.6C132.7,780.5,133.8,779.4,133.8,777.8z"/>
		<path class="st8" d="M150.2,779.1h-8.1c0.3,1.3,1.4,2.2,3.1,2.2c1.1,0,1.9-0.3,2.7-1l1.6,1.8c-1,1.1-2.5,1.7-4.4,1.7
			c-3.7,0-6.1-2.3-6.1-5.5s2.4-5.5,5.7-5.5c3.1,0,5.6,2.1,5.6,5.6C150.3,778.5,150.2,778.8,150.2,779.1z M142.1,777.2h5.3
			c-0.2-1.4-1.2-2.2-2.6-2.2C143.3,775,142.3,775.9,142.1,777.2z"/>
		<path class="st8" d="M163.2,777.4v6.2h-3.1v-5.7c0-1.7-0.8-2.5-2.2-2.5c-1.5,0-2.6,0.9-2.6,2.9v5.3h-3.1v-10.7h3v1.3
			c0.8-0.9,2.1-1.4,3.5-1.4C161.3,772.7,163.2,774.1,163.2,777.4z"/>
		<path class="st8" d="M165.4,778.2c0-3.2,2.5-5.5,6-5.5c2.2,0,4,1,4.8,2.7l-2.4,1.3c-0.6-1-1.4-1.5-2.4-1.5c-1.6,0-2.8,1.1-2.8,3
			s1.2,3,2.8,3c1,0,1.8-0.4,2.4-1.5l2.4,1.3c-0.8,1.7-2.5,2.7-4.8,2.7C167.9,783.7,165.4,781.4,165.4,778.2z"/>
		<path class="st8" d="M188.4,772.8l-4.8,11.4c-1,2.6-2.5,3.4-4.4,3.4c-1.1,0-2.3-0.4-3-1l1.1-2.2c0.5,0.4,1.1,0.7,1.7,0.7
			c0.9,0,1.3-0.4,1.7-1.3v-0.1l-4.6-10.8h3.2l3,7.3l3-7.3h3.1V772.8z"/>
	</g>
	<rect x="23.1" y="776.3" class="st11" width="71.5" height="0.5"/>
	<rect x="211" y="776.3" class="st11" width="71.5" height="0.5"/>
	<rect x="22" y="916.3" class="st11" width="85.5" height="0.5"/>
	<rect x="193" y="916.3" class="st11" width="89" height="0.5"/>
	<g class="st7">
		<path class="st10" d="M129.2,921.8l1.8-2.2c0.8,1,1.6,1.5,2.6,1.5c1.3,0,2-0.8,2-2.3v-6.7h-4.9v-2.6h8.1v9.1c0,3.5-1.7,5.2-5,5.2
			C131.9,923.8,130.3,923.1,129.2,921.8z"/>
		<path class="st10" d="M150.8,920.6h-6.5l-1.2,3h-3.3l6.2-14h3.2l6.2,14H152L150.8,920.6z M149.8,918.1l-2.2-5.4l-2.2,5.4H149.8z"
			/>
		<path class="st10" d="M169.6,919.7c0,2.4-1.9,3.8-5.6,3.8h-7.2v-14h6.8c3.5,0,5.3,1.5,5.3,3.6c0,1.4-0.7,2.5-1.8,3.1
			C168.6,916.8,169.6,918,169.6,919.7z M160.1,912v3.3h3.2c1.6,0,2.4-0.6,2.4-1.7s-0.9-1.6-2.4-1.6H160.1z M166.4,919.4
			c0-1.2-0.9-1.7-2.6-1.7H160v3.5h3.8C165.5,921.1,166.4,920.6,166.4,919.4z"/>
	</g>
	<g>
		<g class="st7">
			<path class="st10" d="M38.3,968.6c0.5,0.1,1,0.1,1.3,0.1c0.6,0,1-0.2,1.3-0.5c0.2-0.3,0.4-0.9,0.4-1.8v-12.6h1.5v12.6
				c0,1.2-0.2,2.1-0.7,2.7c-0.5,0.6-1.2,0.8-2.2,0.8c-0.4,0-0.9,0-1.5-0.1L38.3,968.6L38.3,968.6z"/>
			<path class="st10" d="M54.2,963.4h-6.7l-1.4,3.3h-1.5l5.6-12.8h1.3l5.6,12.8h-1.5L54.2,963.4z M53.7,962.1l-2.8-6.6l-2.8,6.6
				H53.7z"/>
			<path class="st10" d="M68,961.2c0.4,0.5,0.6,1.2,0.6,2c0,1.1-0.4,2-1.1,2.6s-1.8,0.9-3.1,0.9h-5.3v-12.8h5.1
				c1.3,0,2.3,0.3,3.1,0.9c0.7,0.6,1.1,1.4,1.1,2.5c0,0.7-0.2,1.3-0.5,1.8c-0.4,0.5-0.8,0.9-1.5,1.1C67.1,960.3,67.6,960.6,68,961.2
				z M60.5,959.5H64c1,0,1.7-0.2,2.2-0.6c0.5-0.4,0.7-0.9,0.7-1.7c0-1.5-1-2.2-2.9-2.2h-3.5C60.5,955,60.5,959.5,60.5,959.5z
				 M66.5,964.9c0.5-0.4,0.7-1,0.7-1.7c0-1.6-1-2.4-2.9-2.4h-3.7v4.7h3.7C65.3,965.4,66,965.2,66.5,964.9z"/>
			<path class="st10" d="M84.4,963.4h-6.7l-1.4,3.3h-1.5l5.6-12.8h1.3l5.6,12.8h-1.5L84.4,963.4z M83.9,962.1l-2.8-6.6l-2.8,6.6
				H83.9z"/>
			<path class="st10" d="M96.6,957.6v9.1h-1.4v-1.6c-0.3,0.6-0.7,1-1.2,1.3s-1.1,0.4-1.7,0.4c-1.1,0-1.9-0.3-2.4-0.9
				c-0.6-0.6-0.8-1.5-0.8-2.7v-5.6h1.5v5.6c0,0.8,0.2,1.4,0.5,1.8s0.8,0.6,1.5,0.6c0.8,0,1.5-0.3,1.9-0.8c0.5-0.5,0.7-1.2,0.7-2.1
				v-5.1H96.6z"/>
			<path class="st10" d="M101.4,958.8v5c0,0.7,0.1,1.1,0.4,1.4c0.3,0.3,0.7,0.4,1.2,0.4c0.3,0,0.7-0.1,1-0.2v1.2
				c-0.4,0.1-0.8,0.2-1.3,0.2c-0.9,0-1.5-0.2-2-0.7s-0.7-1.2-0.7-2.2v-5.1h-1.8v-1.2h1.8v-2.3l1.5-0.5v2.8h2.6v1.2L101.4,958.8
				L101.4,958.8z"/>
			<path class="st10" d="M113.5,961v5.7H112V961c0-0.8-0.2-1.5-0.5-1.8s-0.9-0.6-1.6-0.6c-0.8,0-1.5,0.3-2,0.8s-0.8,1.2-0.8,2.1v5.2
				h-1.5v-13.2h1.5v5.7c0.3-0.6,0.7-1,1.2-1.3s1.1-0.4,1.8-0.4C112.4,957.4,113.5,958.6,113.5,961z"/>
			<path class="st10" d="M117.8,966.2c-0.6-0.4-1.1-0.9-1.5-1.6s-0.5-1.5-0.5-2.5c0-0.9,0.2-1.8,0.5-2.5s0.9-1.3,1.5-1.6
				c0.6-0.4,1.4-0.6,2.2-0.6s1.6,0.2,2.2,0.6c0.6,0.4,1.1,0.9,1.5,1.6s0.5,1.5,0.5,2.5c0,0.9-0.2,1.8-0.5,2.5s-0.9,1.3-1.5,1.6
				c-0.6,0.4-1.4,0.6-2.2,0.6S118.4,966.6,117.8,966.2z M122.1,964.7c0.5-0.6,0.7-1.5,0.7-2.6s-0.2-2-0.7-2.6s-1.2-0.9-2.1-0.9
				s-1.6,0.3-2.1,0.9c-0.5,0.6-0.7,1.5-0.7,2.6s0.2,2,0.7,2.6s1.2,0.9,2.1,0.9S121.6,965.3,122.1,964.7z"/>
			<path class="st10" d="M131.6,957.5v1.3c-0.3-0.1-0.6-0.1-1-0.1c-0.9,0-1.5,0.3-2,0.8c-0.4,0.5-0.6,1.2-0.6,2v5.2h-1.5v-6.5
				c0-0.9,0-1.8-0.1-2.5h1.4l0.1,1.7c0.2-0.6,0.6-1.1,1.1-1.4c0.5-0.3,1.1-0.5,1.7-0.5C131.1,957.4,131.4,957.4,131.6,957.5z"/>
			<path class="st10" d="M134.7,953.8v1.7h-1.8v-1.7H134.7z M133.1,957.6h1.5v9.1h-1.5V957.6z"/>
			<path class="st10" d="M144.5,965.5v1.2h-7.6v-1l5.7-6.9h-5.5v-1.2h7.3v1.1l-5.7,6.8L144.5,965.5L144.5,965.5z"/>
			<path class="st10" d="M154.5,957.6v9.1H153V965c-0.3,0.6-0.7,1-1.2,1.3s-1.2,0.5-1.9,0.5c-0.8,0-1.5-0.2-2.1-0.6
				c-0.6-0.4-1.1-0.9-1.4-1.6s-0.5-1.5-0.5-2.5c0-0.9,0.2-1.8,0.5-2.5s0.8-1.3,1.4-1.7c0.6-0.4,1.3-0.6,2.1-0.6
				c0.7,0,1.3,0.2,1.9,0.5c0.5,0.3,0.9,0.8,1.2,1.3v-1.6L154.5,957.6L154.5,957.6z M152.3,964.7c0.5-0.6,0.7-1.5,0.7-2.6
				s-0.2-2-0.7-2.6s-1.2-0.9-2.1-0.9c-0.9,0-1.6,0.3-2.1,0.9s-0.7,1.5-0.7,2.6s0.2,2,0.7,2.6s1.2,0.9,2.1,0.9
				C151.1,965.6,151.8,965.3,152.3,964.7z"/>
			<path class="st10" d="M159.2,958.8v5c0,0.7,0.1,1.1,0.4,1.4c0.3,0.3,0.7,0.4,1.2,0.4c0.3,0,0.7-0.1,1-0.2v1.2
				c-0.4,0.1-0.8,0.2-1.3,0.2c-0.9,0-1.5-0.2-2-0.7s-0.7-1.2-0.7-2.2v-5.1H156v-1.2h1.8v-2.3l1.5-0.5v2.8h2.6v1.2L159.2,958.8
				L159.2,958.8z"/>
			<path class="st10" d="M165.2,953.8v1.7h-1.8v-1.7H165.2z M163.6,957.6h1.5v9.1h-1.5V957.6z"/>
			<path class="st10" d="M169.4,966.2c-0.6-0.4-1.1-0.9-1.5-1.6c-0.4-0.7-0.5-1.5-0.5-2.5c0-0.9,0.2-1.8,0.5-2.5
				c0.4-0.7,0.9-1.3,1.5-1.6c0.6-0.4,1.4-0.6,2.2-0.6c0.9,0,1.6,0.2,2.2,0.6c0.6,0.4,1.1,0.9,1.5,1.6c0.4,0.7,0.5,1.5,0.5,2.5
				c0,0.9-0.2,1.8-0.5,2.5c-0.4,0.7-0.9,1.3-1.5,1.6c-0.6,0.4-1.4,0.6-2.2,0.6C170.8,966.8,170,966.6,169.4,966.2z M173.7,964.7
				c0.5-0.6,0.7-1.5,0.7-2.6s-0.2-2-0.7-2.6s-1.2-0.9-2.1-0.9c-0.9,0-1.6,0.3-2.1,0.9c-0.5,0.6-0.7,1.5-0.7,2.6s0.2,2,0.7,2.6
				s1.2,0.9,2.1,0.9C172.5,965.6,173.2,965.3,173.7,964.7z"/>
			<path class="st10" d="M185.9,961v5.7h-1.5V961c0-0.8-0.2-1.5-0.5-1.8s-0.9-0.6-1.6-0.6c-0.8,0-1.5,0.3-2,0.8s-0.8,1.2-0.8,2.1
				v5.2H178v-6.5c0-0.9,0-1.8-0.1-2.5h1.4l0.1,1.6c0.3-0.6,0.7-1,1.2-1.4c0.6-0.3,1.2-0.5,1.9-0.5
				C184.9,957.4,185.9,958.6,185.9,961z"/>
			<path class="st10" d="M193.6,953.8h5.1c1.3,0,2.3,0.3,3.1,1c0.7,0.6,1.1,1.5,1.1,2.6s-0.4,2-1.1,2.6c-0.7,0.6-1.8,1-3.1,1h-3.6
				v5.6h-1.5V953.8z M198.6,959.8c0.9,0,1.7-0.2,2.1-0.6c0.5-0.4,0.7-1,0.7-1.8s-0.2-1.4-0.7-1.8c-0.5-0.4-1.2-0.6-2.1-0.6h-3.5v4.7
				L198.6,959.8L198.6,959.8z"/>
			<path class="st10" d="M210,957.5v1.3c-0.3-0.1-0.6-0.1-1-0.1c-0.9,0-1.5,0.3-2,0.8c-0.4,0.5-0.6,1.2-0.6,2v5.2h-1.5v-6.5
				c0-0.9,0-1.8-0.1-2.5h1.4l0.1,1.7c0.2-0.6,0.6-1.1,1.1-1.4c0.5-0.3,1.1-0.5,1.7-0.5C209.4,957.4,209.7,957.4,210,957.5z"/>
			<path class="st10" d="M212.8,966.2c-0.6-0.4-1.1-0.9-1.5-1.6c-0.4-0.7-0.5-1.5-0.5-2.5c0-0.9,0.2-1.8,0.5-2.5
				c0.4-0.7,0.9-1.3,1.5-1.6c0.6-0.4,1.4-0.6,2.2-0.6c0.9,0,1.6,0.2,2.2,0.6c0.6,0.4,1.1,0.9,1.5,1.6c0.4,0.7,0.5,1.5,0.5,2.5
				c0,0.9-0.2,1.8-0.5,2.5c-0.4,0.7-0.9,1.3-1.5,1.6c-0.6,0.4-1.4,0.6-2.2,0.6S213.4,966.6,212.8,966.2z M217.1,964.7
				c0.5-0.6,0.7-1.5,0.7-2.6s-0.2-2-0.7-2.6s-1.2-0.9-2.1-0.9c-0.9,0-1.6,0.3-2.1,0.9c-0.5,0.6-0.7,1.5-0.7,2.6s0.2,2,0.7,2.6
				s1.2,0.9,2.1,0.9C215.9,965.6,216.6,965.3,217.1,964.7z"/>
			<path class="st10" d="M223.1,966.2c-0.7-0.4-1.2-0.9-1.5-1.6c-0.4-0.7-0.5-1.5-0.5-2.5c0-0.9,0.2-1.8,0.5-2.5s0.9-1.3,1.5-1.7
				c0.7-0.4,1.4-0.6,2.3-0.6c0.6,0,1.2,0.1,1.8,0.3s1,0.5,1.4,0.9l-0.5,1.1c-0.5-0.4-0.9-0.6-1.3-0.8s-0.9-0.3-1.3-0.3
				c-0.9,0-1.7,0.3-2.2,0.9s-0.8,1.5-0.8,2.6s0.3,1.9,0.8,2.5s1.3,0.9,2.2,0.9c0.4,0,0.9-0.1,1.3-0.3s0.9-0.4,1.3-0.8l0.5,1.1
				c-0.4,0.4-0.9,0.6-1.4,0.9c-0.6,0.2-1.2,0.3-1.8,0.3C224.5,966.8,223.7,966.6,223.1,966.2z"/>
			<path class="st10" d="M238.1,962.1h-6.6c0,1.2,0.3,2,0.8,2.6s1.3,0.9,2.3,0.9c1.1,0,2-0.4,2.9-1.1l0.5,1.1
				c-0.4,0.4-0.9,0.7-1.5,0.9s-1.3,0.3-1.9,0.3c-1.4,0-2.5-0.4-3.3-1.3s-1.2-2-1.2-3.4c0-0.9,0.2-1.7,0.5-2.5s0.9-1.3,1.5-1.7
				s1.4-0.6,2.2-0.6c1.2,0,2.1,0.4,2.8,1.2s1,1.9,1,3.2V962.1z M232.4,959.2c-0.5,0.5-0.8,1.1-0.9,1.9h5.3c-0.1-0.9-0.3-1.5-0.7-1.9
				s-1-0.7-1.8-0.7S232.8,958.7,232.4,959.2z"/>
			<path class="st10" d="M239.7,965.6l0.5-1.1c0.5,0.4,1,0.7,1.5,0.8c0.5,0.2,1.1,0.3,1.7,0.3c0.7,0,1.2-0.1,1.6-0.4
				c0.4-0.2,0.5-0.6,0.5-1s-0.1-0.6-0.4-0.9c-0.2-0.2-0.6-0.4-1.2-0.5l-1.5-0.4c-0.8-0.2-1.3-0.5-1.8-0.9s-0.6-0.9-0.6-1.5
				c0-0.8,0.3-1.4,1-1.9c0.6-0.5,1.5-0.7,2.5-0.7c0.6,0,1.2,0.1,1.8,0.3s1,0.5,1.4,0.9l-0.5,1.1c-0.9-0.7-1.8-1.1-2.7-1.1
				c-0.6,0-1.1,0.1-1.5,0.4c-0.4,0.2-0.5,0.6-0.5,1s0.1,0.7,0.3,0.9s0.6,0.4,1.1,0.5l1.5,0.4c0.8,0.2,1.5,0.5,1.9,0.9
				s0.6,0.9,0.6,1.6c0,0.8-0.3,1.4-1,1.9s-1.5,0.7-2.6,0.7C241.8,966.8,240.6,966.4,239.7,965.6z"/>
			<path class="st10" d="M248.6,965.6l0.5-1.1c0.5,0.4,1,0.7,1.5,0.8c0.5,0.2,1.1,0.3,1.7,0.3c0.7,0,1.2-0.1,1.6-0.4
				c0.4-0.2,0.5-0.6,0.5-1s-0.1-0.6-0.4-0.9c-0.2-0.2-0.6-0.4-1.2-0.5l-1.5-0.4c-0.8-0.2-1.3-0.5-1.8-0.9s-0.6-0.9-0.6-1.5
				c0-0.8,0.3-1.4,1-1.9c0.6-0.5,1.5-0.7,2.5-0.7c0.6,0,1.2,0.1,1.8,0.3s1,0.5,1.4,0.9l-0.5,1.1c-0.9-0.7-1.8-1.1-2.7-1.1
				c-0.6,0-1.1,0.1-1.5,0.4c-0.4,0.2-0.5,0.6-0.5,1s0.1,0.7,0.3,0.9s0.6,0.4,1.1,0.5l1.5,0.4c0.8,0.2,1.5,0.5,1.9,0.9
				s0.6,0.9,0.6,1.6c0,0.8-0.3,1.4-1,1.9s-1.5,0.7-2.6,0.7C250.7,966.8,249.5,966.4,248.6,965.6z"/>
		</g>
	</g>
	<g>
		<g class="st7">
			<path class="st5" d="M95.3,713.2H89l-1.2,2.9h-2.4l5.7-12.6h2.3l5.7,12.6h-2.4L95.3,713.2z M94.5,711.4l-2.4-5.5l-2.4,5.5H94.5z"
				/>
			<path class="st5" d="M109.5,706.5v9.6h-2.1v-1.2c-0.7,0.9-1.9,1.3-3.1,1.3c-2.5,0-4.1-1.3-4.1-4.2v-5.5h2.3v5.2
				c0,1.7,0.8,2.6,2.3,2.6c1.6,0,2.6-1,2.6-2.9v-4.9L109.5,706.5L109.5,706.5z"/>
			<path class="st5" d="M118.3,715.6c-0.5,0.4-1.4,0.6-2.2,0.6c-2.1,0-3.3-1.1-3.3-3.2v-4.6h-1.6v-1.8h1.6v-2.2h2.3v2.2h2.6v1.8H115
				v4.6c0,0.9,0.5,1.4,1.3,1.4c0.5,0,0.9-0.1,1.3-0.4L118.3,715.6z"/>
			<path class="st5" d="M129.6,710.6v5.5h-2.3v-5.2c0-1.7-0.8-2.5-2.3-2.5c-1.6,0-2.7,1-2.7,2.9v4.9H120v-13.4h2.3v4.9
				c0.7-0.8,1.9-1.2,3.2-1.2C127.9,706.4,129.6,707.7,129.6,710.6z"/>
			<path class="st5" d="M131.7,711.3c0-2.9,2.2-4.9,5.1-4.9c3,0,5.1,2,5.1,4.9s-2.1,4.9-5.1,4.9
				C133.9,716.3,131.7,714.2,131.7,711.3z M139.7,711.3c0-1.8-1.2-3-2.9-3c-1.6,0-2.8,1.2-2.8,3s1.2,3,2.8,3
				C138.5,714.3,139.7,713.2,139.7,711.3z"/>
			<path class="st5" d="M149.7,706.4v2.1c-0.2,0-0.4-0.1-0.5-0.1c-1.7,0-2.8,1-2.8,3v4.7h-2.3v-9.6h2.1v1.4
				C146.9,706.9,148.1,706.4,149.7,706.4z"/>
			<path class="st5" d="M151.3,703.6c0-0.8,0.6-1.3,1.4-1.3s1.4,0.6,1.4,1.3c0,0.8-0.6,1.4-1.4,1.4
				C151.9,704.9,151.3,704.3,151.3,703.6z M151.6,706.5h2.3v9.6h-2.3V706.5z"/>
			<path class="st5" d="M164.3,714.3v1.8H156v-1.4l5.3-6.4h-5.2v-1.8h8v1.4l-5.3,6.4H164.3z"/>
			<path class="st5" d="M174.4,710.5v5.6h-2.1V715c-0.5,0.8-1.6,1.3-3,1.3c-2.2,0-3.6-1.2-3.6-2.9c0-1.6,1.1-2.9,4-2.9h2.5v-0.1
				c0-1.3-0.8-2.1-2.4-2.1c-1.1,0-2.2,0.4-2.9,1l-0.9-1.6c1-0.8,2.5-1.2,4.1-1.2C172.8,706.4,174.4,707.7,174.4,710.5z M172.2,713.1
				V712h-2.3c-1.5,0-1.9,0.6-1.9,1.3c0,0.8,0.7,1.3,1.8,1.3C170.8,714.6,171.8,714.1,172.2,713.1z"/>
			<path class="st5" d="M183.1,715.6c-0.5,0.4-1.4,0.6-2.2,0.6c-2.1,0-3.3-1.1-3.3-3.2v-4.6H176v-1.8h1.6v-2.2h2.3v2.2h2.6v1.8h-2.6
				v4.6c0,0.9,0.5,1.4,1.3,1.4c0.5,0,0.9-0.1,1.3-0.4L183.1,715.6z"/>
			<path class="st5" d="M184.6,703.6c0-0.8,0.6-1.3,1.4-1.3s1.4,0.6,1.4,1.3c0,0.8-0.6,1.4-1.4,1.4
				C185.2,704.9,184.6,704.3,184.6,703.6z M184.9,706.5h2.3v9.6h-2.3V706.5z"/>
			<path class="st5" d="M189.3,711.3c0-2.9,2.2-4.9,5.1-4.9c3,0,5.1,2,5.1,4.9s-2.1,4.9-5.1,4.9
				C191.5,716.3,189.3,714.2,189.3,711.3z M197.3,711.3c0-1.8-1.2-3-2.9-3c-1.6,0-2.8,1.2-2.8,3s1.2,3,2.8,3
				C196.1,714.3,197.3,713.2,197.3,711.3z"/>
			<path class="st5" d="M211.2,710.6v5.5H209v-5.2c0-1.7-0.8-2.5-2.3-2.5c-1.6,0-2.7,1-2.7,2.9v4.9h-2.3v-9.6h2.1v1.2
				c0.7-0.9,1.9-1.3,3.3-1.3C209.5,706.4,211.2,707.7,211.2,710.6z"/>
		</g>
	</g>
	<g>
		<g class="st7">
			<path class="st8" d="M29.8,853.7h-6.7l-1.4,3.3h-1.5l5.6-12.8h1.3l5.6,12.8h-1.5L29.8,853.7z M29.3,852.5l-2.8-6.6l-2.8,6.6H29.3
				z"/>
			<path class="st8" d="M42.5,847.9v9c0,1.3-0.3,2.4-1,3.1c-0.7,0.7-1.7,1-3.1,1c-1.4,0-2.6-0.3-3.6-0.9l0.3-1.2
				c0.6,0.3,1.1,0.6,1.6,0.7c0.5,0.1,1.1,0.2,1.7,0.2c0.9,0,1.5-0.2,2-0.7s0.7-1.1,0.7-2.1v-2.1c-0.3,0.6-0.7,1-1.2,1.3
				s-1.2,0.5-1.9,0.5c-0.8,0-1.5-0.2-2.1-0.6s-1.1-0.9-1.4-1.6c-0.3-0.7-0.5-1.5-0.5-2.4s0.2-1.7,0.5-2.4s0.8-1.2,1.4-1.6
				s1.3-0.6,2.1-0.6c0.7,0,1.3,0.2,1.9,0.5c0.5,0.3,0.9,0.8,1.2,1.3v-1.6h1.4V847.9z M40.3,854.6c0.5-0.6,0.7-1.4,0.7-2.4
				s-0.2-1.8-0.7-2.4c-0.5-0.6-1.2-0.9-2.1-0.9c-0.9,0-1.6,0.3-2.1,0.9c-0.5,0.6-0.8,1.4-0.8,2.4s0.3,1.8,0.8,2.4
				c0.5,0.6,1.2,0.9,2.1,0.9S39.8,855.2,40.3,854.6z"/>
			<path class="st8" d="M52.9,852.4h-6.6c0,1.2,0.3,2,0.8,2.6s1.3,0.9,2.3,0.9c1.1,0,2-0.4,2.9-1.1l0.5,1.1
				c-0.4,0.4-0.9,0.7-1.5,0.9s-1.3,0.3-1.9,0.3c-1.4,0-2.5-0.4-3.3-1.3c-0.8-0.8-1.2-2-1.2-3.4c0-0.9,0.2-1.7,0.5-2.5
				c0.4-0.7,0.9-1.3,1.5-1.7s1.4-0.6,2.2-0.6c1.2,0,2.1,0.4,2.8,1.2s1,1.9,1,3.2V852.4z M47.2,849.5c-0.5,0.5-0.8,1.1-0.9,1.9h5.3
				c-0.1-0.9-0.3-1.5-0.7-1.9s-1-0.7-1.8-0.7S47.7,849.1,47.2,849.5z"/>
			<path class="st8" d="M62.9,851.3v5.7h-1.5v-5.6c0-0.8-0.2-1.5-0.5-1.8S60,849,59.3,849c-0.8,0-1.5,0.3-2,0.8s-0.8,1.2-0.8,2.1
				v5.2H55v-6.5c0-0.9,0-1.8-0.1-2.5h1.4l0.1,1.6c0.3-0.6,0.7-1,1.2-1.4c0.6-0.3,1.2-0.5,1.9-0.5C61.8,847.7,62.9,848.9,62.9,851.3z
				"/>
			<path class="st8" d="M67.1,856.5c-0.7-0.4-1.2-0.9-1.5-1.6s-0.5-1.5-0.5-2.5c0-0.9,0.2-1.8,0.5-2.5c0.4-0.7,0.9-1.3,1.5-1.7
				c0.7-0.4,1.4-0.6,2.3-0.6c0.6,0,1.2,0.1,1.8,0.3s1,0.5,1.4,0.9l-0.5,1.1c-0.5-0.4-0.9-0.6-1.3-0.8s-0.9-0.3-1.3-0.3
				c-0.9,0-1.7,0.3-2.2,0.9c-0.5,0.6-0.8,1.5-0.8,2.6s0.3,1.9,0.8,2.5s1.3,0.9,2.2,0.9c0.4,0,0.9-0.1,1.3-0.3s0.9-0.4,1.3-0.8
				l0.5,1.1c-0.4,0.4-0.9,0.6-1.4,0.9c-0.6,0.2-1.2,0.3-1.8,0.3C68.6,857.1,67.8,856.9,67.1,856.5z"/>
			<path class="st8" d="M82.5,847.9l-4.2,9.9c-0.4,1-1,1.8-1.7,2.3s-1.5,0.8-2.5,1l-0.3-1.1c0.9-0.2,1.5-0.4,1.9-0.8
				c0.4-0.3,0.8-0.8,1.1-1.5l0.4-0.8l-3.8-9h1.5l3.1,7.5l3.1-7.5L82.5,847.9L82.5,847.9z"/>
			<path class="st8" d="M97.4,853.7h-6.7l-1.4,3.3h-1.5l5.6-12.8h1.3l5.6,12.8h-1.5L97.4,853.7z M96.9,852.5l-2.8-6.6l-2.8,6.6H96.9
				z"/>
			<path class="st8" d="M109.6,847.9v9.1h-1.4v-1.6c-0.3,0.6-0.7,1-1.2,1.3s-1.1,0.4-1.7,0.4c-1.1,0-1.9-0.3-2.4-0.9
				c-0.6-0.6-0.8-1.5-0.8-2.7v-5.6h1.5v5.6c0,0.8,0.2,1.4,0.5,1.8s0.8,0.6,1.5,0.6c0.8,0,1.5-0.3,1.9-0.8c0.5-0.5,0.7-1.2,0.7-2.1
				v-5.1H109.6z"/>
			<path class="st8" d="M114.4,849.1v5c0,0.7,0.1,1.1,0.4,1.4c0.3,0.3,0.7,0.4,1.2,0.4c0.3,0,0.7-0.1,1-0.2v1.2
				c-0.4,0.1-0.8,0.2-1.3,0.2c-0.9,0-1.5-0.2-2-0.7s-0.7-1.2-0.7-2.2v-5.1h-1.8v-1.2h1.8v-2.3l1.5-0.5v2.8h2.6v1.2L114.4,849.1
				L114.4,849.1z"/>
			<path class="st8" d="M126.5,851.3v5.7H125v-5.6c0-0.8-0.2-1.5-0.5-1.8s-0.9-0.6-1.6-0.6c-0.8,0-1.5,0.3-2,0.8s-0.8,1.2-0.8,2.1
				v5.2h-1.5v-13.2h1.5v5.7c0.3-0.6,0.7-1,1.2-1.3s1.1-0.4,1.8-0.4C125.4,847.7,126.5,848.9,126.5,851.3z"/>
			<path class="st8" d="M130.7,856.5c-0.6-0.4-1.1-0.9-1.5-1.6s-0.5-1.5-0.5-2.5c0-0.9,0.2-1.8,0.5-2.5s0.9-1.3,1.5-1.6
				c0.6-0.4,1.4-0.6,2.2-0.6s1.6,0.2,2.2,0.6c0.6,0.4,1.1,0.9,1.5,1.6s0.5,1.5,0.5,2.5c0,0.9-0.2,1.8-0.5,2.5s-0.9,1.3-1.5,1.6
				c-0.6,0.4-1.4,0.6-2.2,0.6S131.4,856.9,130.7,856.5z M135.1,855c0.5-0.6,0.7-1.5,0.7-2.6s-0.2-2-0.7-2.6s-1.2-0.9-2.1-0.9
				c-0.9,0-1.6,0.3-2.1,0.9c-0.5,0.6-0.7,1.5-0.7,2.6s0.2,2,0.7,2.6s1.2,0.9,2.1,0.9S134.6,855.6,135.1,855z"/>
			<path class="st8" d="M144.6,847.8v1.3c-0.3-0.1-0.6-0.1-1-0.1c-0.9,0-1.5,0.3-2,0.8c-0.4,0.5-0.6,1.2-0.6,2v5.2h-1.5v-6.5
				c0-0.9,0-1.8-0.1-2.5h1.4l0.1,1.7c0.2-0.6,0.6-1.1,1.1-1.4c0.5-0.3,1.1-0.5,1.7-0.5C144,847.7,144.3,847.7,144.6,847.8z"/>
			<path class="st8" d="M147.7,844.1v1.7h-1.8v-1.7H147.7z M146,847.9h1.5v9.1H146V847.9z"/>
			<path class="st8" d="M157.5,855.8v1.2h-7.6v-1l5.7-6.9H150v-1.2h7.3v1.1l-5.7,6.8L157.5,855.8L157.5,855.8z"/>
			<path class="st8" d="M167.4,847.9v9.1H166v-1.6c-0.3,0.6-0.7,1-1.2,1.3s-1.2,0.5-1.9,0.5c-0.8,0-1.5-0.2-2.1-0.6
				c-0.6-0.4-1.1-0.9-1.4-1.6s-0.5-1.5-0.5-2.5c0-0.9,0.2-1.8,0.5-2.5s0.8-1.3,1.4-1.7c0.6-0.4,1.3-0.6,2.1-0.6
				c0.7,0,1.3,0.2,1.9,0.5c0.5,0.3,0.9,0.8,1.2,1.3v-1.6L167.4,847.9L167.4,847.9z M165.3,855c0.5-0.6,0.7-1.5,0.7-2.6
				s-0.2-2-0.7-2.6s-1.2-0.9-2.1-0.9s-1.6,0.3-2.1,0.9s-0.7,1.5-0.7,2.6s0.2,2,0.7,2.6s1.2,0.9,2.1,0.9S164.8,855.6,165.3,855z"/>
			<path class="st8" d="M172.2,849.1v5c0,0.7,0.1,1.1,0.4,1.4c0.3,0.3,0.7,0.4,1.2,0.4c0.3,0,0.7-0.1,1-0.2v1.2
				c-0.4,0.1-0.8,0.2-1.3,0.2c-0.9,0-1.5-0.2-2-0.7s-0.7-1.2-0.7-2.2v-5.1H169v-1.2h1.8v-2.3l1.5-0.5v2.8h2.6v1.2L172.2,849.1
				L172.2,849.1z"/>
			<path class="st8" d="M178.2,844.1v1.7h-1.8v-1.7H178.2z M176.6,847.9h1.5v9.1h-1.5V847.9z"/>
			<path class="st8" d="M182.3,856.5c-0.6-0.4-1.1-0.9-1.5-1.6c-0.4-0.7-0.5-1.5-0.5-2.5c0-0.9,0.2-1.8,0.5-2.5
				c0.4-0.7,0.9-1.3,1.5-1.6c0.6-0.4,1.4-0.6,2.2-0.6c0.9,0,1.6,0.2,2.2,0.6c0.6,0.4,1.1,0.9,1.5,1.6c0.4,0.7,0.5,1.5,0.5,2.5
				c0,0.9-0.2,1.8-0.5,2.5c-0.4,0.7-0.9,1.3-1.5,1.6c-0.6,0.4-1.4,0.6-2.2,0.6S183,856.9,182.3,856.5z M186.7,855
				c0.5-0.6,0.7-1.5,0.7-2.6s-0.2-2-0.7-2.6s-1.2-0.9-2.1-0.9c-0.9,0-1.6,0.3-2.1,0.9c-0.5,0.6-0.7,1.5-0.7,2.6s0.2,2,0.7,2.6
				s1.2,0.9,2.1,0.9S186.2,855.6,186.7,855z"/>
			<path class="st8" d="M198.9,851.3v5.7h-1.5v-5.6c0-0.8-0.2-1.5-0.5-1.8s-0.9-0.6-1.6-0.6c-0.8,0-1.5,0.3-2,0.8s-0.8,1.2-0.8,2.1
				v5.2H191v-6.5c0-0.9,0-1.8-0.1-2.5h1.4l0.1,1.6c0.3-0.6,0.7-1,1.2-1.4c0.6-0.3,1.2-0.5,1.9-0.5
				C197.8,847.7,198.9,848.9,198.9,851.3z"/>
			<path class="st8" d="M206.5,844.2h5.1c1.3,0,2.3,0.3,3.1,1c0.7,0.6,1.1,1.5,1.1,2.6s-0.4,2-1.1,2.6c-0.7,0.6-1.8,1-3.1,1H208v5.6
				h-1.5V844.2z M211.5,850.1c0.9,0,1.7-0.2,2.1-0.6c0.5-0.4,0.7-1,0.7-1.8s-0.2-1.4-0.7-1.8c-0.5-0.4-1.2-0.6-2.1-0.6H208v4.7
				L211.5,850.1L211.5,850.1z"/>
			<path class="st8" d="M222.9,847.8v1.3c-0.3-0.1-0.6-0.1-1-0.1c-0.9,0-1.5,0.3-2,0.8c-0.4,0.5-0.6,1.2-0.6,2v5.2h-1.5v-6.5
				c0-0.9,0-1.8-0.1-2.5h1.4l0.1,1.7c0.2-0.6,0.6-1.1,1.1-1.4s1.1-0.5,1.7-0.5C222.4,847.7,222.7,847.7,222.9,847.8z"/>
			<path class="st8" d="M225.7,856.5c-0.6-0.4-1.1-0.9-1.5-1.6c-0.4-0.7-0.5-1.5-0.5-2.5c0-0.9,0.2-1.8,0.5-2.5
				c0.4-0.7,0.9-1.3,1.5-1.6c0.6-0.4,1.4-0.6,2.2-0.6c0.9,0,1.6,0.2,2.2,0.6c0.6,0.4,1.1,0.9,1.5,1.6c0.4,0.7,0.5,1.5,0.5,2.5
				c0,0.9-0.2,1.8-0.5,2.5c-0.4,0.7-0.9,1.3-1.5,1.6c-0.6,0.4-1.4,0.6-2.2,0.6C227.1,857.1,226.4,856.9,225.7,856.5z M230.1,855
				c0.5-0.6,0.7-1.5,0.7-2.6s-0.2-2-0.7-2.6s-1.2-0.9-2.1-0.9c-0.9,0-1.6,0.3-2.1,0.9c-0.5,0.6-0.7,1.5-0.7,2.6s0.2,2,0.7,2.6
				s1.2,0.9,2.1,0.9C228.9,855.9,229.6,855.6,230.1,855z"/>
			<path class="st8" d="M236,856.5c-0.7-0.4-1.2-0.9-1.5-1.6c-0.4-0.7-0.5-1.5-0.5-2.5c0-0.9,0.2-1.8,0.5-2.5
				c0.4-0.7,0.9-1.3,1.5-1.7c0.7-0.4,1.4-0.6,2.3-0.6c0.6,0,1.2,0.1,1.8,0.3s1,0.5,1.4,0.9l-0.5,1.1c-0.5-0.4-0.9-0.6-1.3-0.8
				s-0.9-0.3-1.3-0.3c-0.9,0-1.7,0.3-2.2,0.9c-0.5,0.6-0.8,1.5-0.8,2.6s0.3,1.9,0.8,2.5s1.3,0.9,2.2,0.9c0.4,0,0.9-0.1,1.3-0.3
				s0.9-0.4,1.3-0.8l0.5,1.1c-0.4,0.4-0.9,0.6-1.4,0.9c-0.6,0.2-1.2,0.3-1.8,0.3C237.5,857.1,236.7,856.9,236,856.5z"/>
			<path class="st8" d="M251,852.4h-6.6c0,1.2,0.3,2,0.8,2.6s1.3,0.9,2.3,0.9c1.1,0,2-0.4,2.9-1.1l0.5,1.1c-0.4,0.4-0.9,0.7-1.5,0.9
				s-1.3,0.3-1.9,0.3c-1.4,0-2.5-0.4-3.3-1.3s-1.2-2-1.2-3.4c0-0.9,0.2-1.7,0.5-2.5s0.9-1.3,1.5-1.7s1.4-0.6,2.2-0.6
				c1.2,0,2.1,0.4,2.8,1.2s1,1.9,1,3.2V852.4z M245.3,849.5c-0.5,0.5-0.8,1.1-0.9,1.9h5.3c-0.1-0.9-0.3-1.5-0.7-1.9s-1-0.7-1.8-0.7
				S245.8,849.1,245.3,849.5z"/>
			<path class="st8" d="M252.7,855.9l0.5-1.1c0.5,0.4,1,0.7,1.5,0.8s1.1,0.3,1.7,0.3c0.7,0,1.2-0.1,1.6-0.4c0.4-0.2,0.5-0.6,0.5-1
				s-0.1-0.6-0.4-0.9c-0.2-0.2-0.6-0.4-1.2-0.5l-1.5-0.4c-0.8-0.2-1.3-0.5-1.8-0.9s-0.6-0.9-0.6-1.5c0-0.8,0.3-1.4,1-1.9
				c0.6-0.5,1.5-0.7,2.5-0.7c0.6,0,1.2,0.1,1.8,0.3c0.6,0.2,1,0.5,1.4,0.9l-0.5,1.1c-0.9-0.7-1.8-1.1-2.7-1.1
				c-0.6,0-1.1,0.1-1.5,0.4c-0.4,0.2-0.5,0.6-0.5,1s0.1,0.7,0.3,0.9s0.6,0.4,1.1,0.5l1.5,0.4c0.8,0.2,1.5,0.5,1.9,0.9
				s0.6,0.9,0.6,1.6c0,0.8-0.3,1.4-1,1.9c-0.6,0.5-1.5,0.7-2.6,0.7C254.8,857.1,253.6,856.7,252.7,855.9z"/>
			<path class="st8" d="M261.6,855.9l0.5-1.1c0.5,0.4,1,0.7,1.5,0.8s1.1,0.3,1.7,0.3c0.7,0,1.2-0.1,1.6-0.4c0.4-0.2,0.5-0.6,0.5-1
				s-0.1-0.6-0.4-0.9c-0.2-0.2-0.6-0.4-1.2-0.5l-1.5-0.4c-0.8-0.2-1.3-0.5-1.8-0.9s-0.6-0.9-0.6-1.5c0-0.8,0.3-1.4,1-1.9
				c0.6-0.5,1.5-0.7,2.5-0.7c0.6,0,1.2,0.1,1.8,0.3c0.6,0.2,1,0.5,1.4,0.9l-0.5,1.1c-0.9-0.7-1.8-1.1-2.7-1.1
				c-0.6,0-1.1,0.1-1.5,0.4c-0.4,0.2-0.5,0.6-0.5,1s0.1,0.7,0.3,0.9c0.2,0.2,0.6,0.4,1.1,0.5l1.5,0.4c0.8,0.2,1.5,0.5,1.9,0.9
				s0.6,0.9,0.6,1.6c0,0.8-0.3,1.4-1,1.9c-0.6,0.5-1.5,0.7-2.6,0.7C263.7,857.1,262.5,856.7,261.6,855.9z"/>
		</g>
	</g>
	<g>
		<g class="st7">
			<path class="st8" d="M46.1,811.8H54v1.2h-6.5v4.4h6.1v1.2h-6.1v5.9H46L46.1,811.8L46.1,811.8z"/>
			<path class="st8" d="M63.5,815.6v9.1h-1.4v-1.6c-0.3,0.6-0.7,1-1.2,1.3s-1.1,0.4-1.7,0.4c-1.1,0-1.9-0.3-2.4-0.9
				c-0.6-0.6-0.8-1.5-0.8-2.7v-5.6h1.5v5.6c0,0.8,0.2,1.4,0.5,1.8s0.8,0.6,1.5,0.6c0.8,0,1.5-0.3,1.9-0.8c0.5-0.5,0.7-1.2,0.7-2.1
				v-5.1H63.5z"/>
			<path class="st8" d="M66.3,811.4h1.5v13.2h-1.5V811.4z"/>
			<path class="st8" d="M70.6,811.4H72v13.2h-1.5L70.6,811.4L70.6,811.4z"/>
			<path class="st8" d="M79,823.2l0.6-1.1c0.6,0.5,1.3,0.9,1.9,1.2c0.7,0.2,1.4,0.3,2.3,0.3c1,0,1.8-0.2,2.4-0.6
				c0.6-0.4,0.8-1,0.8-1.7c0-0.4-0.1-0.8-0.4-1.1s-0.6-0.5-1.1-0.6c-0.4-0.2-1-0.3-1.8-0.5c-1-0.2-1.8-0.5-2.4-0.7
				c-0.6-0.3-1.2-0.6-1.5-1.1c-0.4-0.5-0.6-1.1-0.6-1.9c0-0.7,0.2-1.4,0.6-1.9c0.4-0.6,0.9-1,1.6-1.3s1.5-0.5,2.5-0.5
				c0.9,0,1.7,0.1,2.5,0.4c0.8,0.3,1.4,0.7,1.9,1.2l-0.6,1.1c-0.6-0.5-1.2-0.9-1.8-1.1c-0.6-0.2-1.3-0.4-2-0.4c-1,0-1.8,0.2-2.3,0.6
				s-0.8,1-0.8,1.8c0,0.6,0.2,1.1,0.7,1.5c0.5,0.3,1.2,0.6,2.3,0.8c1.1,0.3,2,0.5,2.6,0.7s1.2,0.6,1.6,1s0.6,1,0.6,1.8
				c0,0.7-0.2,1.4-0.6,1.9s-0.9,1-1.6,1.3s-1.6,0.4-2.5,0.4C81.8,824.8,80.2,824.3,79,823.2z"/>
			<path class="st8" d="M98.3,820.1h-6.6c0,1.2,0.3,2,0.8,2.6s1.3,0.9,2.3,0.9c1.1,0,2-0.4,2.9-1.1l0.5,1.1
				c-0.4,0.4-0.9,0.7-1.5,0.9s-1.3,0.3-1.9,0.3c-1.4,0-2.5-0.4-3.3-1.3c-0.8-0.8-1.2-2-1.2-3.4c0-0.9,0.2-1.7,0.5-2.5
				c0.4-0.7,0.9-1.3,1.5-1.7s1.4-0.6,2.2-0.6c1.2,0,2.1,0.4,2.8,1.2s1,1.9,1,3.2C98.3,819.7,98.3,820.1,98.3,820.1z M92.7,817.2
				c-0.5,0.5-0.8,1.1-0.9,1.9H97c-0.1-0.9-0.3-1.5-0.7-1.9c-0.4-0.4-1-0.7-1.8-0.7S93.1,816.7,92.7,817.2z"/>
			<path class="st8" d="M102.1,824.2c-0.7-0.4-1.2-0.9-1.5-1.6s-0.5-1.5-0.5-2.5c0-0.9,0.2-1.8,0.5-2.5c0.4-0.7,0.9-1.3,1.5-1.7
				c0.7-0.4,1.4-0.6,2.3-0.6c0.6,0,1.2,0.1,1.8,0.3s1,0.5,1.4,0.9l-0.5,1.1c-0.5-0.4-0.9-0.6-1.3-0.8s-0.9-0.3-1.3-0.3
				c-0.9,0-1.7,0.3-2.2,0.9c-0.5,0.6-0.8,1.5-0.8,2.6s0.3,1.9,0.8,2.5s1.3,0.9,2.2,0.9c0.4,0,0.9-0.1,1.3-0.3s0.9-0.4,1.3-0.8
				l0.5,1.1c-0.4,0.4-0.9,0.6-1.4,0.9c-0.6,0.2-1.2,0.3-1.8,0.3C103.5,824.8,102.7,824.6,102.1,824.2z"/>
			<path class="st8" d="M117,815.6v9.1h-1.4v-1.6c-0.3,0.6-0.7,1-1.2,1.3s-1.1,0.4-1.7,0.4c-1.1,0-1.9-0.3-2.4-0.9
				c-0.6-0.6-0.8-1.5-0.8-2.7v-5.6h1.5v5.6c0,0.8,0.2,1.4,0.5,1.8s0.8,0.6,1.5,0.6c0.8,0,1.5-0.3,1.9-0.8c0.5-0.5,0.7-1.2,0.7-2.1
				v-5.1H117z"/>
			<path class="st8" d="M124.9,815.5v1.3c-0.3-0.1-0.6-0.1-1-0.1c-0.9,0-1.5,0.3-2,0.8c-0.4,0.5-0.6,1.2-0.6,2v5.2h-1.5v-6.5
				c0-0.9,0-1.8-0.1-2.5h1.4l0.1,1.7c0.2-0.6,0.6-1.1,1.1-1.4c0.5-0.3,1.1-0.5,1.7-0.5C124.4,815.4,124.6,815.4,124.9,815.5z"/>
			<path class="st8" d="M128,811.8v1.7h-1.8v-1.7H128z M126.4,815.6h1.5v9.1h-1.5V815.6z"/>
			<path class="st8" d="M132.6,816.8v5c0,0.7,0.1,1.1,0.4,1.4c0.3,0.3,0.7,0.4,1.2,0.4c0.3,0,0.7-0.1,1-0.2v1.2
				c-0.4,0.1-0.8,0.2-1.3,0.2c-0.9,0-1.5-0.2-2-0.7s-0.7-1.2-0.7-2.2v-5.1h-1.8v-1.2h1.8v-2.3l1.5-0.5v2.8h2.6v1.2L132.6,816.8
				L132.6,816.8z"/>
			<path class="st8" d="M145,815.6l-4.2,9.9c-0.4,1-1,1.8-1.7,2.3s-1.5,0.8-2.5,1l-0.3-1.1c0.9-0.2,1.5-0.4,1.9-0.8
				c0.4-0.3,0.8-0.8,1.1-1.5l0.4-0.8l-3.8-9h1.5l3.1,7.5l3.1-7.5L145,815.6L145,815.6z"/>
			<path class="st8" d="M159.9,821.4h-6.7l-1.4,3.3h-1.5l5.6-12.8h1.3l5.6,12.8h-1.5L159.9,821.4z M159.4,820.1l-2.8-6.6l-2.8,6.6
				H159.4z"/>
			<path class="st8" d="M163.9,823.6l0.5-1.1c0.5,0.4,1,0.7,1.5,0.8c0.5,0.2,1.1,0.3,1.7,0.3c0.7,0,1.2-0.1,1.6-0.4
				c0.4-0.2,0.5-0.6,0.5-1s-0.1-0.6-0.4-0.9c-0.2-0.2-0.6-0.4-1.2-0.5l-1.5-0.4c-0.8-0.2-1.3-0.5-1.8-0.9s-0.6-0.9-0.6-1.5
				c0-0.8,0.3-1.4,1-1.9c0.6-0.5,1.5-0.7,2.5-0.7c0.6,0,1.2,0.1,1.8,0.3s1,0.5,1.4,0.9l-0.5,1.1c-0.9-0.7-1.8-1.1-2.7-1.1
				c-0.6,0-1.1,0.1-1.5,0.4c-0.4,0.2-0.5,0.6-0.5,1s0.1,0.7,0.3,0.9s0.6,0.4,1.1,0.5l1.5,0.4c0.8,0.2,1.5,0.5,1.9,0.9
				s0.6,0.9,0.6,1.6c0,0.8-0.3,1.4-1,1.9s-1.5,0.7-2.6,0.7C166,824.8,164.7,824.4,163.9,823.6z"/>
			<path class="st8" d="M172.8,823.6l0.5-1.1c0.5,0.4,1,0.7,1.5,0.8c0.5,0.2,1.1,0.3,1.7,0.3c0.7,0,1.2-0.1,1.6-0.4
				c0.4-0.2,0.5-0.6,0.5-1s-0.1-0.6-0.4-0.9c-0.2-0.2-0.6-0.4-1.2-0.5l-1.5-0.4c-0.8-0.2-1.3-0.5-1.8-0.9s-0.6-0.9-0.6-1.5
				c0-0.8,0.3-1.4,1-1.9c0.6-0.5,1.5-0.7,2.5-0.7c0.6,0,1.2,0.1,1.8,0.3s1,0.5,1.4,0.9l-0.5,1.1c-0.9-0.7-1.8-1.1-2.7-1.1
				c-0.6,0-1.1,0.1-1.5,0.4c-0.4,0.2-0.5,0.6-0.5,1s0.1,0.7,0.3,0.9s0.6,0.4,1.1,0.5l1.5,0.4c0.8,0.2,1.5,0.5,1.9,0.9
				s0.6,0.9,0.6,1.6c0,0.8-0.3,1.4-1,1.9s-1.5,0.7-2.6,0.7C174.9,824.8,173.7,824.4,172.8,823.6z"/>
			<path class="st8" d="M189.9,820.1h-6.6c0,1.2,0.3,2,0.8,2.6s1.3,0.9,2.3,0.9c1.1,0,2-0.4,2.9-1.1l0.5,1.1
				c-0.4,0.4-0.9,0.7-1.5,0.9s-1.3,0.3-1.9,0.3c-1.4,0-2.5-0.4-3.3-1.3c-0.8-0.8-1.2-2-1.2-3.4c0-0.9,0.2-1.7,0.5-2.5
				c0.4-0.7,0.9-1.3,1.5-1.7s1.4-0.6,2.2-0.6c1.2,0,2.1,0.4,2.8,1.2s1,1.9,1,3.2V820.1z M184.2,817.2c-0.5,0.5-0.8,1.1-0.9,1.9h5.3
				c-0.1-0.9-0.3-1.5-0.7-1.9s-1-0.7-1.8-0.7S184.6,816.7,184.2,817.2z"/>
			<path class="st8" d="M191.5,823.6l0.5-1.1c0.5,0.4,1,0.7,1.5,0.8c0.5,0.2,1.1,0.3,1.7,0.3c0.7,0,1.2-0.1,1.6-0.4
				c0.4-0.2,0.5-0.6,0.5-1s-0.1-0.6-0.4-0.9c-0.2-0.2-0.6-0.4-1.2-0.5l-1.5-0.4c-0.8-0.2-1.3-0.5-1.8-0.9s-0.6-0.9-0.6-1.5
				c0-0.8,0.3-1.4,1-1.9c0.6-0.5,1.5-0.7,2.5-0.7c0.6,0,1.2,0.1,1.8,0.3s1,0.5,1.4,0.9l-0.5,1.1c-0.9-0.7-1.8-1.1-2.7-1.1
				c-0.6,0-1.1,0.1-1.5,0.4c-0.4,0.2-0.5,0.6-0.5,1s0.1,0.7,0.3,0.9s0.6,0.4,1.1,0.5l1.5,0.4c0.8,0.2,1.5,0.5,1.9,0.9
				s0.6,0.9,0.6,1.6c0,0.8-0.3,1.4-1,1.9s-1.5,0.7-2.6,0.7C193.6,824.8,192.4,824.4,191.5,823.6z"/>
			<path class="st8" d="M200.4,823.6l0.5-1.1c0.5,0.4,1,0.7,1.5,0.8c0.5,0.2,1.1,0.3,1.7,0.3c0.7,0,1.2-0.1,1.6-0.4
				c0.4-0.2,0.5-0.6,0.5-1s-0.1-0.6-0.4-0.9c-0.2-0.2-0.6-0.4-1.2-0.5l-1.5-0.4c-0.8-0.2-1.3-0.5-1.8-0.9s-0.6-0.9-0.6-1.5
				c0-0.8,0.3-1.4,1-1.9c0.6-0.5,1.5-0.7,2.5-0.7c0.6,0,1.2,0.1,1.8,0.3s1,0.5,1.4,0.9l-0.5,1.1c-0.9-0.7-1.8-1.1-2.7-1.1
				c-0.6,0-1.1,0.1-1.5,0.4c-0.4,0.2-0.5,0.6-0.5,1s0.1,0.7,0.3,0.9s0.6,0.4,1.1,0.5l1.5,0.4c0.8,0.2,1.5,0.5,1.9,0.9
				s0.6,0.9,0.6,1.6c0,0.8-0.3,1.4-1,1.9s-1.5,0.7-2.6,0.7C202.5,824.8,201.3,824.4,200.4,823.6z"/>
			<path class="st8" d="M223,819v5.7h-1.5V819c0-0.9-0.1-1.5-0.4-1.9s-0.8-0.6-1.4-0.6c-0.8,0-1.4,0.3-1.8,0.8
				c-0.4,0.5-0.6,1.2-0.6,2.1v5.2h-1.5V819c0-0.8-0.2-1.5-0.5-1.8s-0.8-0.6-1.4-0.6c-0.8,0-1.4,0.3-1.8,0.8
				c-0.4,0.5-0.7,1.2-0.7,2.1v5.2h-1.5v-6.5c0-0.9,0-1.8-0.1-2.5h1.4l0.1,1.6c0.3-0.6,0.6-1,1.1-1.3s1.1-0.5,1.7-0.5
				c0.7,0,1.3,0.1,1.8,0.4s0.8,0.7,1,1.3c0.3-0.5,0.7-1,1.2-1.3s1.1-0.5,1.8-0.5C222,815.4,223,816.6,223,819z"/>
			<path class="st8" d="M233.3,820.1h-6.6c0,1.2,0.3,2,0.8,2.6s1.3,0.9,2.3,0.9c1.1,0,2-0.4,2.9-1.1l0.5,1.1
				c-0.4,0.4-0.9,0.7-1.5,0.9s-1.3,0.3-1.9,0.3c-1.4,0-2.5-0.4-3.3-1.3c-0.8-0.8-1.2-2-1.2-3.4c0-0.9,0.2-1.7,0.5-2.5
				c0.4-0.7,0.9-1.3,1.5-1.7s1.4-0.6,2.2-0.6c1.2,0,2.1,0.4,2.8,1.2s1,1.9,1,3.2V820.1z M227.6,817.2c-0.5,0.5-0.8,1.1-0.9,1.9h5.3
				c-0.1-0.9-0.3-1.5-0.7-1.9s-1-0.7-1.8-0.7S228.1,816.7,227.6,817.2z"/>
			<path class="st8" d="M243.3,819v5.7h-1.5V819c0-0.8-0.2-1.5-0.5-1.8s-0.9-0.6-1.6-0.6c-0.8,0-1.5,0.3-2,0.8s-0.8,1.2-0.8,2.1v5.2
				h-1.5v-6.5c0-0.9,0-1.8-0.1-2.5h1.4l0.1,1.6c0.3-0.6,0.7-1,1.2-1.4c0.6-0.3,1.2-0.5,1.9-0.5C242.2,815.4,243.3,816.6,243.3,819z"
				/>
			<path class="st8" d="M248,816.8v5c0,0.7,0.1,1.1,0.4,1.4c0.3,0.3,0.7,0.4,1.2,0.4c0.3,0,0.7-0.1,1-0.2v1.2
				c-0.4,0.1-0.8,0.2-1.3,0.2c-0.9,0-1.5-0.2-2-0.7s-0.7-1.2-0.7-2.2v-5.1h-1.8v-1.2h1.8v-2.3l1.5-0.5v2.8h2.6v1.2L248,816.8
				L248,816.8z"/>
		</g>
	</g>
	<g>
		<g class="st7">
			<path class="st5" d="M35.1,28.6l0.8-1.8c1,0.8,2.6,1.4,4.2,1.4c2,0,2.8-0.7,2.8-1.6c0-2.7-7.5-0.9-7.5-5.6c0-2,1.6-3.8,5.1-3.8
				c1.5,0,3.1,0.4,4.2,1.1L44,20.1c-1.1-0.7-2.4-1-3.5-1c-1.9,0-2.7,0.8-2.7,1.7c0,2.7,7.5,0.9,7.5,5.6c0,2-1.6,3.7-5.1,3.7
				C38.1,30.1,36.1,29.5,35.1,28.6z"/>
			<path class="st5" d="M56.3,25.9h-7.5c0.3,1.4,1.4,2.3,3.1,2.3c1.1,0,1.9-0.3,2.6-1l1.2,1.4c-0.9,1-2.2,1.6-3.9,1.6
				c-3.2,0-5.3-2.1-5.3-4.9c0-2.9,2.1-4.9,5-4.9c2.8,0,4.9,2,4.9,5C56.3,25.4,56.3,25.7,56.3,25.9z M48.7,24.4h5.5
				C54,23,52.9,22,51.4,22C50,22,48.9,23,48.7,24.4z"/>
			<path class="st5" d="M58.5,16.6h2.3V30h-2.3V16.6z"/>
			<path class="st5" d="M72.7,25.9h-7.5c0.3,1.4,1.4,2.3,3.1,2.3c1.1,0,1.9-0.3,2.6-1l1.2,1.4c-0.9,1-2.2,1.6-3.9,1.6
				c-3.2,0-5.3-2.1-5.3-4.9c0-2.9,2.1-4.9,5-4.9c2.8,0,4.9,2,4.9,5C72.7,25.4,72.7,25.7,72.7,25.9z M65.1,24.4h5.5
				C70.4,23,69.3,22,67.8,22C66.4,22,65.3,23,65.1,24.4z"/>
			<path class="st5" d="M74.1,25.2c0-2.9,2.2-4.9,5.2-4.9c1.9,0,3.4,0.8,4.1,2.2l-1.7,1c-0.6-0.9-1.4-1.3-2.4-1.3
				c-1.7,0-2.9,1.2-2.9,3c0,1.9,1.3,3,2.9,3c1,0,1.8-0.4,2.4-1.3l1.7,1c-0.7,1.4-2.2,2.3-4.1,2.3C76.2,30.1,74.1,28,74.1,25.2z"/>
			<path class="st5" d="M91.2,29.4C90.7,29.8,89.8,30,89,30c-2.1,0-3.3-1.1-3.3-3.2v-4.6h-1.6v-1.8h1.6v-2.2H88v2.2h2.6v1.8H88v4.6
				c0,0.9,0.5,1.4,1.3,1.4c0.5,0,0.9-0.1,1.3-0.4L91.2,29.4z"/>
			<path class="st5" d="M106.4,27h-6.3l-1.2,3h-2.4l5.7-12.6h2.3l5.7,12.6h-2.4L106.4,27z M105.6,25.2l-2.4-5.5l-2.4,5.5H105.6z"/>
			<path class="st5" d="M120.6,20.3V30h-2.1v-1.2c-0.7,0.9-1.9,1.4-3.1,1.4c-2.5,0-4.1-1.4-4.1-4.2v-5.5h2.3v5.2
				c0,1.7,0.8,2.6,2.3,2.6c1.6,0,2.6-1,2.6-2.9v-4.9h2.1V20.3z"/>
			<path class="st5" d="M129.4,29.4c-0.5,0.4-1.4,0.6-2.2,0.6c-2.1,0-3.3-1.1-3.3-3.2v-4.6h-1.6v-1.8h1.6v-2.2h2.3v2.2h2.6v1.8h-2.6
				v4.6c0,0.9,0.5,1.4,1.3,1.4c0.5,0,0.9-0.1,1.3-0.4L129.4,29.4z"/>
			<path class="st5" d="M140.7,24.4V30h-2.3v-5.2c0-1.7-0.8-2.5-2.3-2.5c-1.6,0-2.7,1-2.7,2.9V30h-2.3V16.6h2.3v4.9
				c0.7-0.8,1.9-1.2,3.2-1.2C139,20.2,140.7,21.6,140.7,24.4z"/>
			<path class="st5" d="M142.9,25.2c0-2.9,2.2-4.9,5.1-4.9c3,0,5.1,2,5.1,4.9s-2.1,4.9-5.1,4.9S142.9,28,142.9,25.2z M150.8,25.2
				c0-1.8-1.2-3-2.9-3c-1.6,0-2.8,1.2-2.8,3s1.2,3,2.8,3C149.6,28.2,150.8,27,150.8,25.2z"/>
			<path class="st5" d="M160.8,20.2v2.1c-0.2,0-0.4-0.1-0.5-0.1c-1.7,0-2.8,1-2.8,3V30h-2.3v-9.6h2.1v1.4
				C158,20.7,159.2,20.2,160.8,20.2z"/>
			<path class="st5" d="M162.4,17.4c0-0.8,0.6-1.4,1.4-1.4s1.4,0.6,1.4,1.3c0,0.8-0.6,1.4-1.4,1.4C163,18.8,162.4,18.2,162.4,17.4z
				 M162.7,20.3h2.2V30h-2.2V20.3z"/>
			<path class="st5" d="M175.4,28.2V30h-8.3v-1.4l5.3-6.4h-5.2v-1.8h8v1.4l-5.3,6.4H175.4z"/>
			<path class="st5" d="M185.6,24.3V30h-2.1v-1.2c-0.5,0.8-1.6,1.3-3,1.3c-2.2,0-3.6-1.2-3.6-2.9c0-1.6,1.1-2.9,4-2.9h2.5v-0.1
				c0-1.3-0.8-2.1-2.4-2.1c-1.1,0-2.2,0.4-2.9,1l-0.9-1.6c1-0.8,2.5-1.2,4.1-1.2C183.9,20.2,185.6,21.6,185.6,24.3z M183.3,27v-1.1
				H181c-1.5,0-1.9,0.6-1.9,1.3c0,0.8,0.7,1.3,1.8,1.3C182,28.4,182.9,27.9,183.3,27z"/>
			<path class="st5" d="M194.2,29.4c-0.5,0.4-1.4,0.6-2.2,0.6c-2.1,0-3.3-1.1-3.3-3.2v-4.6h-1.6v-1.8h1.6v-2.2h2.2v2.2h2.6v1.8H191
				v4.6c0,0.9,0.5,1.4,1.3,1.4c0.5,0,0.9-0.1,1.3-0.4L194.2,29.4z"/>
			<path class="st5" d="M195.8,17.4c0-0.8,0.6-1.4,1.4-1.4s1.4,0.6,1.4,1.3c0,0.8-0.6,1.4-1.4,1.4C196.4,18.8,195.8,18.2,195.8,17.4
				z M196.1,20.3h2.3V30h-2.3V20.3z"/>
			<path class="st5" d="M200.5,25.2c0-2.9,2.2-4.9,5.1-4.9c3,0,5.1,2,5.1,4.9s-2.1,4.9-5.1,4.9S200.5,28,200.5,25.2z M208.4,25.2
				c0-1.8-1.2-3-2.9-3c-1.6,0-2.8,1.2-2.8,3s1.2,3,2.8,3C207.2,28.2,208.4,27,208.4,25.2z"/>
			<path class="st5" d="M222.3,24.4V30h-2.2v-5.2c0-1.7-0.8-2.5-2.3-2.5c-1.6,0-2.7,1-2.7,2.9V30h-2.3v-9.6h2.1v1.2
				c0.7-0.9,1.9-1.4,3.3-1.4C220.6,20.2,222.3,21.6,222.3,24.4z"/>
			<path class="st5" d="M240.9,21.8c0,2.8-2.1,4.5-5.4,4.5h-2.8V30h-2.3V17.4h5.2C238.9,17.4,240.9,19,240.9,21.8z M238.6,21.8
				c0-1.6-1.1-2.5-3.1-2.5h-2.7v5h2.7C237.5,24.3,238.6,23.4,238.6,21.8z"/>
			<path class="st5" d="M251,24.3V30h-2.1v-1.2c-0.5,0.8-1.6,1.3-3,1.3c-2.2,0-3.6-1.2-3.6-2.9c0-1.6,1.1-2.9,4-2.9h2.5v-0.1
				c0-1.3-0.8-2.1-2.4-2.1c-1.1,0-2.2,0.4-2.9,1l-0.9-1.6c1-0.8,2.5-1.2,4.1-1.2C249.4,20.2,251,21.6,251,24.3z M248.8,27v-1.1h-2.3
				c-1.5,0-1.9,0.6-1.9,1.3c0,0.8,0.7,1.3,1.8,1.3C247.4,28.4,248.4,27.9,248.8,27z"/>
			<path class="st5" d="M259.7,29.4c-0.5,0.4-1.4,0.6-2.2,0.6c-2.1,0-3.3-1.1-3.3-3.2v-4.6h-1.6v-1.8h1.6v-2.2h2.2v2.2h2.6v1.8h-2.6
				v4.6c0,0.9,0.5,1.4,1.3,1.4c0.5,0,0.9-0.1,1.3-0.4L259.7,29.4z"/>
			<path class="st5" d="M271,24.4V30h-2.2v-5.2c0-1.7-0.8-2.5-2.3-2.5c-1.6,0-2.7,1-2.7,2.9V30h-2.3V16.6h2.3v4.9
				c0.7-0.8,1.9-1.2,3.2-1.2C269.3,20.2,271,21.6,271,24.4z"/>
		</g>
	</g>
</g>
</svg>
