<?xml version="1.0" encoding="utf-8"?>
<!-- Generator: Adobe Illustrator 25.1.0, SVG Export Plug-In . SVG Version: 6.00 Build 0)  -->
<svg version="1.1" id="Layer_1" xmlns="http://www.w3.org/2000/svg" xmlns:xlink="http://www.w3.org/1999/xlink" x="0px" y="0px"
	 viewBox="0 0 1280 290" style="enable-background:new 0 0 1280 290;" xml:space="preserve">
<style type="text/css">
	.st0{display:none;}
	.st1{display:inline;fill:#F2F2F2;}
	.st2{display:inline;}
	.st3{font-family:'Montserrat-Bold';}
	.st4{font-size:59.0197px;}
	.st5{fill:#FFFFFF;}
	.st6{fill:#1294C2;}
	.st7{enable-background:new    ;}
	.st8{fill:#0A90B7;}
</style>
<g id="Layer_2_1_" class="st0">
	<rect x="487" y="-3" class="st1" width="2787" height="1656"/>
	<text transform="matrix(1 0 0 1 554.3887 103.4434)" class="st2 st3 st4">Desktop</text>
</g>
<g id="Layer_3">
</g>
<g id="Layer_4">
</g>
<g id="Layer_1_1_">
	<path id="Path_11101_3_" class="st5" d="M1261.9,177.2h-257.4l14.8-32.9l-14.8-33h257.4l16,33L1261.9,177.2z"/>
	<path id="Path_11098_2_" class="st6" d="M978.7,177.2h-284l13.4-32.9l-13.4-33h284l14.5,33L978.7,177.2z"/>
	<path id="Path_11100_4_" class="st6" d="M216.4,177.2H0.2v-66h216.2l14.5,33L216.4,177.2z"/>
	<path id="Path_11287_4_" class="st6" d="M670.2,177.2H247.9l13.9-32.9l-13.9-33h422.3l13.9,33L670.2,177.2z"/>
	<path id="Path_11343_3_" class="st6" d="M1265.1,177.1h-35.9v-4.7h32.8l0.6-1.4l11.4-26l0.4-0.9l-0.4-1l-11.4-26l-0.6-1.4h-201.1
		v6.7l-12.1-9l12.1-9v6.5h204.2l14.5,33.1L1265.1,177.1z"/>
	<g class="st7">
		<path class="st5" d="M81.7,139.4l0.8-1.8c1,0.8,2.6,1.4,4.2,1.4c2,0,2.8-0.7,2.8-1.6c0-2.7-7.5-0.9-7.5-5.6c0-2,1.6-3.8,5.1-3.8
			c1.5,0,3.1,0.4,4.2,1.1l-0.7,1.8c-1.1-0.7-2.4-1-3.5-1c-1.9,0-2.7,0.8-2.7,1.7c0,2.7,7.5,0.9,7.5,5.6c0,2-1.6,3.7-5.1,3.7
			C84.7,140.9,82.8,140.3,81.7,139.4z"/>
		<path class="st5" d="M102.9,136.6h-7.5c0.3,1.4,1.4,2.3,3.1,2.3c1.1,0,1.9-0.3,2.6-1l1.2,1.4c-0.9,1-2.2,1.6-3.9,1.6
			c-3.2,0-5.3-2.1-5.3-4.9c0-2.9,2.1-4.9,5-4.9c2.8,0,4.9,2,4.9,5C102.9,136.1,102.9,136.4,102.9,136.6z M95.3,135.1h5.5
			c-0.2-1.4-1.2-2.3-2.7-2.3C96.6,132.8,95.6,133.7,95.3,135.1z"/>
		<path class="st5" d="M105.1,127.3h2.3v13.4h-2.3V127.3z"/>
		<path class="st5" d="M119.3,136.6h-7.5c0.3,1.4,1.4,2.3,3.1,2.3c1.1,0,1.9-0.3,2.6-1l1.2,1.4c-0.9,1-2.2,1.6-3.9,1.6
			c-3.2,0-5.3-2.1-5.3-4.9c0-2.9,2.1-4.9,5-4.9c2.8,0,4.9,2,4.9,5C119.3,136.1,119.3,136.4,119.3,136.6z M111.7,135.1h5.5
			c-0.2-1.4-1.2-2.3-2.7-2.3S112,133.7,111.7,135.1z"/>
		<path class="st5" d="M120.7,135.9c0-2.9,2.2-4.9,5.2-4.9c1.9,0,3.4,0.8,4.1,2.2l-1.7,1c-0.6-0.9-1.4-1.3-2.4-1.3
			c-1.7,0-2.9,1.2-2.9,3c0,1.9,1.3,3,2.9,3c1,0,1.8-0.4,2.4-1.3l1.7,1c-0.7,1.4-2.2,2.3-4.1,2.3
			C122.9,140.8,120.7,138.8,120.7,135.9z"/>
		<path class="st5" d="M137.9,140.2c-0.5,0.4-1.4,0.6-2.2,0.6c-2.1,0-3.3-1.1-3.3-3.2V133h-1.6v-1.8h1.6V129h2.3v2.2h2.6v1.8h-2.6
			v4.6c0,0.9,0.5,1.4,1.3,1.4c0.5,0,0.9-0.1,1.3-0.4L137.9,140.2z"/>
	</g>
	<g class="st7">
		<path class="st5" d="M32.5,157.7h-6.3l-1.2,2.9h-2.4l5.7-12.6h2.3l5.7,12.6h-2.4L32.5,157.7z M31.7,155.8l-2.4-5.5l-2.4,5.5H31.7z
			"/>
		<path class="st5" d="M46.7,151v9.6h-2.1v-1.2c-0.7,0.9-1.9,1.4-3.1,1.4c-2.5,0-4.1-1.4-4.1-4.2V151h2.3v5.2c0,1.7,0.8,2.6,2.3,2.6
			c1.6,0,2.6-1,2.6-2.9V151H46.7z"/>
		<path class="st5" d="M55.4,160c-0.5,0.4-1.4,0.6-2.2,0.6c-2.1,0-3.3-1.1-3.3-3.2v-4.6h-1.6V151H50v-2.2h2.3v2.2h2.6v1.8h-2.6v4.6
			c0,0.9,0.5,1.4,1.3,1.4c0.5,0,0.9-0.1,1.3-0.4L55.4,160z"/>
		<path class="st5" d="M66.8,155.1v5.5h-2.3v-5.2c0-1.7-0.8-2.5-2.3-2.5c-1.6,0-2.7,1-2.7,2.9v4.9h-2.3v-13.4h2.3v4.9
			c0.7-0.8,1.9-1.2,3.2-1.2C65.1,150.8,66.8,152.2,66.8,155.1z"/>
		<path class="st5" d="M68.9,155.8c0-2.9,2.2-4.9,5.1-4.9c3,0,5.1,2,5.1,4.9s-2.1,4.9-5.1,4.9C71.1,160.7,68.9,158.6,68.9,155.8z
			 M76.9,155.8c0-1.8-1.2-3-2.9-3c-1.6,0-2.8,1.2-2.8,3s1.2,3,2.8,3C75.7,158.8,76.9,157.6,76.9,155.8z"/>
		<path class="st5" d="M86.9,150.8v2.1c-0.2,0-0.4-0.1-0.5-0.1c-1.7,0-2.8,1-2.8,3v4.7h-2.3V151h2.1v1.4
			C84.1,151.3,85.3,150.8,86.9,150.8z"/>
		<path class="st5" d="M88.5,148c0-0.8,0.6-1.4,1.4-1.4s1.4,0.6,1.4,1.3c0,0.8-0.6,1.4-1.4,1.4C89.1,149.4,88.5,148.8,88.5,148z
			 M88.8,151H91v9.6h-2.3V151H88.8z"/>
		<path class="st5" d="M101.5,158.8v1.8h-8.3v-1.4l5.3-6.4h-5.2V151h8v1.4l-5.3,6.4L101.5,158.8L101.5,158.8z"/>
		<path class="st5" d="M111.6,154.9v5.6h-2.1v-1.2c-0.5,0.8-1.6,1.3-3,1.3c-2.2,0-3.6-1.2-3.6-2.9c0-1.6,1.1-2.9,4-2.9h2.5v-0.1
			c0-1.3-0.8-2.1-2.4-2.1c-1.1,0-2.2,0.4-2.9,1l-0.9-1.6c1-0.8,2.5-1.2,4.1-1.2C110,150.8,111.6,152.2,111.6,154.9z M109.4,157.6
			v-1.1H107c-1.5,0-1.9,0.6-1.9,1.3c0,0.8,0.7,1.3,1.8,1.3C108,159.1,109,158.6,109.4,157.6z"/>
		<path class="st5" d="M120.3,160c-0.5,0.4-1.4,0.6-2.2,0.6c-2.1,0-3.3-1.1-3.3-3.2v-4.6h-1.6V151h1.6v-2.2h2.3v2.2h2.6v1.8h-2.6
			v4.6c0,0.9,0.5,1.4,1.3,1.4c0.5,0,0.9-0.1,1.3-0.4L120.3,160z"/>
		<path class="st5" d="M121.8,148c0-0.8,0.6-1.4,1.4-1.4s1.4,0.6,1.4,1.3c0,0.8-0.6,1.4-1.4,1.4C122.4,149.4,121.8,148.8,121.8,148z
			 M122.1,151h2.3v9.6h-2.3V151z"/>
		<path class="st5" d="M126.5,155.8c0-2.9,2.2-4.9,5.1-4.9c3,0,5.1,2,5.1,4.9s-2.1,4.9-5.1,4.9C128.7,160.7,126.5,158.6,126.5,155.8
			z M134.5,155.8c0-1.8-1.2-3-2.9-3c-1.6,0-2.8,1.2-2.8,3s1.2,3,2.8,3C133.3,158.8,134.5,157.6,134.5,155.8z"/>
		<path class="st5" d="M148.4,155.1v5.5h-2.3v-5.2c0-1.7-0.8-2.5-2.3-2.5c-1.6,0-2.7,1-2.7,2.9v4.9h-2.3V151h2.1v1.2
			c0.7-0.9,1.9-1.4,3.3-1.4C146.7,150.8,148.4,152.2,148.4,155.1z"/>
		<path class="st5" d="M167,152.4c0,2.8-2.1,4.5-5.4,4.5h-2.8v3.6h-2.3V148h5.2C165,148,167,149.7,167,152.4z M164.6,152.4
			c0-1.6-1.1-2.5-3.1-2.5h-2.7v5h2.7C163.6,155,164.6,154,164.6,152.4z"/>
		<path class="st5" d="M177.1,154.9v5.6H175v-1.2c-0.5,0.8-1.6,1.3-3,1.3c-2.2,0-3.6-1.2-3.6-2.9c0-1.6,1.1-2.9,4-2.9h2.5v-0.1
			c0-1.3-0.8-2.1-2.4-2.1c-1.1,0-2.2,0.4-2.9,1l-0.9-1.6c1-0.8,2.5-1.2,4.1-1.2C175.5,150.8,177.1,152.2,177.1,154.9z M174.8,157.6
			v-1.1h-2.3c-1.5,0-1.9,0.6-1.9,1.3c0,0.8,0.7,1.3,1.8,1.3C173.5,159.1,174.5,158.6,174.8,157.6z"/>
		<path class="st5" d="M185.7,160c-0.5,0.4-1.4,0.6-2.2,0.6c-2.1,0-3.3-1.1-3.3-3.2v-4.6h-1.6V151h1.6v-2.2h2.3v2.2h2.6v1.8h-2.6
			v4.6c0,0.9,0.5,1.4,1.3,1.4c0.5,0,0.9-0.1,1.3-0.4L185.7,160z"/>
		<path class="st5" d="M197.1,155.1v5.5h-2.3v-5.2c0-1.7-0.8-2.5-2.3-2.5c-1.6,0-2.7,1-2.7,2.9v4.9h-2.3v-13.4h2.3v4.9
			c0.7-0.8,1.9-1.2,3.2-1.2C195.4,150.8,197.1,152.2,197.1,155.1z"/>
	</g>
	<g class="st7">
		<path class="st5" d="M416.5,143.5c0,2.8-2.1,4.5-5.4,4.5h-2.8v3.6H406V139h5.2C414.4,139,416.5,140.7,416.5,143.5z M414.1,143.5
			c0-1.6-1.1-2.5-3.1-2.5h-2.7v5h2.7C413.1,146,414.1,145.1,414.1,143.5z"/>
		<path class="st5" d="M424.1,141.9v2.1c-0.2,0-0.4-0.1-0.5-0.1c-1.7,0-2.8,1-2.8,3v4.7h-2.3V142h2.1v1.4
			C421.3,142.4,422.5,141.9,424.1,141.9z"/>
		<path class="st5" d="M434.9,147.5h-7.5c0.3,1.4,1.4,2.3,3.1,2.3c1.1,0,1.9-0.3,2.6-1l1.2,1.4c-0.9,1-2.2,1.6-3.9,1.6
			c-3.2,0-5.3-2.1-5.3-4.9c0-2.9,2.1-4.9,5-4.9c2.8,0,4.9,2,4.9,5C435,147.1,434.9,147.3,434.9,147.5z M427.4,146.1h5.5
			c-0.2-1.4-1.2-2.3-2.7-2.3C428.6,143.7,427.6,144.6,427.4,146.1z"/>
		<path class="st5" d="M447.3,146.8c0,3-2.1,4.9-4.9,4.9c-1.2,0-2.3-0.4-3.1-1.3v4.7H437V142h2.1v1.3c0.8-0.9,1.9-1.4,3.2-1.4
			C445.2,141.9,447.3,143.9,447.3,146.8z M445,146.8c0-1.8-1.2-3-2.8-3c-1.6,0-2.9,1.2-2.9,3s1.2,3,2.9,3
			C443.8,149.8,445,148.7,445,146.8z"/>
		<path class="st5" d="M457.4,146v5.6h-2.1v-1.2c-0.5,0.8-1.6,1.3-3,1.3c-2.2,0-3.6-1.2-3.6-2.9c0-1.6,1.1-2.9,4-2.9h2.5v-0.1
			c0-1.3-0.8-2.1-2.4-2.1c-1.1,0-2.2,0.4-2.9,1l-0.9-1.6c1-0.8,2.5-1.2,4.1-1.2C455.8,141.9,457.4,143.2,457.4,146z M455.1,148.6
			v-1.1h-2.3c-1.5,0-1.9,0.6-1.9,1.3c0,0.8,0.7,1.3,1.8,1.3S454.7,149.6,455.1,148.6z"/>
		<path class="st5" d="M465.8,141.9v2.1c-0.2,0-0.4-0.1-0.5-0.1c-1.7,0-2.8,1-2.8,3v4.7h-2.3V142h2.1v1.4
			C463,142.4,464.2,141.9,465.8,141.9z"/>
		<path class="st5" d="M475.7,146v5.6h-2.1v-1.2c-0.5,0.8-1.6,1.3-3,1.3c-2.2,0-3.6-1.2-3.6-2.9c0-1.6,1.1-2.9,4-2.9h2.5v-0.1
			c0-1.3-0.8-2.1-2.4-2.1c-1.1,0-2.2,0.4-2.9,1l-0.9-1.6c1-0.8,2.5-1.2,4.1-1.2C474.1,141.9,475.7,143.2,475.7,146z M473.5,148.6
			v-1.1h-2.3c-1.5,0-1.9,0.6-1.9,1.3c0,0.8,0.7,1.3,1.8,1.3C472.1,150.1,473.1,149.6,473.5,148.6z"/>
		<path class="st5" d="M484.4,151.1c-0.5,0.4-1.4,0.6-2.2,0.6c-2.1,0-3.3-1.1-3.3-3.2v-4.6h-1.6v-1.8h1.6v-2.2h2.3v2.2h2.6v1.8h-2.6
			v4.6c0,0.9,0.5,1.4,1.3,1.4c0.5,0,0.9-0.1,1.3-0.4L484.4,151.1z"/>
		<path class="st5" d="M485.9,139.1c0-0.8,0.6-1.4,1.4-1.4s1.4,0.6,1.4,1.3c0,0.8-0.6,1.4-1.4,1.4
			C486.5,140.4,485.9,139.8,485.9,139.1z M486.2,142h2.3v9.6h-2.3V142z"/>
		<path class="st5" d="M490.6,146.8c0-2.9,2.2-4.9,5.1-4.9c3,0,5.1,2,5.1,4.9s-2.1,4.9-5.1,4.9C492.8,151.8,490.6,149.7,490.6,146.8
			z M498.6,146.8c0-1.8-1.2-3-2.9-3c-1.6,0-2.8,1.2-2.8,3s1.2,3,2.8,3C497.4,149.8,498.6,148.7,498.6,146.8z"/>
		<path class="st5" d="M512.5,146.1v5.5h-2.3v-5.2c0-1.7-0.8-2.5-2.3-2.5c-1.6,0-2.7,1-2.7,2.9v4.9H503V142h2.1v1.2
			c0.7-0.9,1.9-1.4,3.3-1.4C510.8,141.9,512.5,143.2,512.5,146.1z"/>
	</g>
	<g class="st7">
		<path class="st5" d="M788,148.7h-6.3l-1.2,2.9H778l5.7-12.6h2.3l5.7,12.6h-2.4L788,148.7z M787.2,146.9l-2.4-5.5l-2.4,5.5H787.2z"
			/>
		<path class="st5" d="M802.2,142v9.6h-2.1v-1.2c-0.7,0.9-1.9,1.4-3.1,1.4c-2.5,0-4.1-1.4-4.1-4.2V142h2.3v5.2
			c0,1.7,0.8,2.6,2.2,2.6c1.6,0,2.6-1,2.6-2.9V142H802.2z"/>
		<path class="st5" d="M810.9,151.1c-0.5,0.4-1.4,0.6-2.2,0.6c-2.1,0-3.3-1.1-3.3-3.2v-4.6h-1.6v-1.8h1.6v-2.2h2.2v2.2h2.6v1.8h-2.6
			v4.6c0,0.9,0.5,1.4,1.3,1.4c0.5,0,0.9-0.1,1.3-0.4L810.9,151.1z"/>
		<path class="st5" d="M822.3,146.1v5.5H820v-5.2c0-1.7-0.8-2.5-2.3-2.5c-1.6,0-2.7,1-2.7,2.9v4.9h-2.3v-13.4h2.3v4.9
			c0.7-0.8,1.9-1.2,3.2-1.2C820.5,141.9,822.3,143.2,822.3,146.1z"/>
		<path class="st5" d="M824.4,146.8c0-2.9,2.2-4.9,5.1-4.9c3,0,5.1,2,5.1,4.9s-2.1,4.9-5.1,4.9C826.6,151.8,824.4,149.7,824.4,146.8
			z M832.4,146.8c0-1.8-1.2-3-2.9-3c-1.6,0-2.8,1.2-2.8,3s1.2,3,2.8,3C831.2,149.8,832.4,148.7,832.4,146.8z"/>
		<path class="st5" d="M842.4,141.9v2.1c-0.2,0-0.4-0.1-0.5-0.1c-1.7,0-2.8,1-2.8,3v4.7h-2.2V142h2.1v1.4
			C839.6,142.4,840.8,141.9,842.4,141.9z"/>
		<path class="st5" d="M844,139.1c0-0.8,0.6-1.4,1.4-1.4s1.4,0.6,1.4,1.3c0,0.8-0.6,1.4-1.4,1.4C844.6,140.4,844,139.8,844,139.1z
			 M844.3,142h2.2v9.6h-2.2V142z"/>
		<path class="st5" d="M857,149.8v1.8h-8.3v-1.4l5.3-6.4h-5.2V142h8v1.4l-5.3,6.4L857,149.8L857,149.8z"/>
		<path class="st5" d="M867.1,146v5.6H865v-1.2c-0.5,0.8-1.6,1.3-3,1.3c-2.2,0-3.6-1.2-3.6-2.9c0-1.6,1.1-2.9,4-2.9h2.5v-0.1
			c0-1.3-0.8-2.1-2.4-2.1c-1.1,0-2.2,0.4-2.9,1l-0.9-1.6c1-0.8,2.5-1.2,4.1-1.2C865.5,141.9,867.1,143.2,867.1,146z M864.9,148.6
			v-1.1h-2.3c-1.5,0-1.9,0.6-1.9,1.3c0,0.8,0.7,1.3,1.8,1.3C863.5,150.1,864.5,149.6,864.9,148.6z"/>
		<path class="st5" d="M875.8,151.1c-0.5,0.4-1.4,0.6-2.2,0.6c-2.1,0-3.3-1.1-3.3-3.2v-4.6h-1.6v-1.8h1.6v-2.2h2.2v2.2h2.6v1.8h-2.6
			v4.6c0,0.9,0.5,1.4,1.3,1.4c0.5,0,0.9-0.1,1.3-0.4L875.8,151.1z"/>
		<path class="st5" d="M877.3,139.1c0-0.8,0.6-1.4,1.4-1.4s1.4,0.6,1.4,1.3c0,0.8-0.6,1.4-1.4,1.4
			C877.9,140.4,877.3,139.8,877.3,139.1z M877.6,142h2.2v9.6h-2.2V142z"/>
		<path class="st5" d="M882,146.8c0-2.9,2.2-4.9,5.1-4.9c3,0,5.1,2,5.1,4.9s-2.1,4.9-5.1,4.9C884.2,151.8,882,149.7,882,146.8z
			 M890,146.8c0-1.8-1.2-3-2.9-3c-1.6,0-2.8,1.2-2.8,3s1.2,3,2.8,3C888.8,149.8,890,148.7,890,146.8z"/>
		<path class="st5" d="M903.9,146.1v5.5h-2.3v-5.2c0-1.7-0.8-2.5-2.3-2.5c-1.6,0-2.7,1-2.7,2.9v4.9h-2.2V142h2.1v1.2
			c0.7-0.9,1.9-1.4,3.3-1.4C902.2,141.9,903.9,143.2,903.9,146.1z"/>
	</g>
	<path id="Path_11341_3_" class="st6" d="M1015.1,172.3h-3.5l1.3-3.3l9-22.3l1.1-2.7l-1.1-2.7l-9.1-22.4l-1.3-3.3h29.2V111h-36.3
		l13,32.2l0.4,0.9l-0.4,0.9l-13,32.1H1209v6.7l12.1-9l-12.1-9v6.5L1015.1,172.3L1015.1,172.3z"/>
	<path id="Path_11342_3_" class="st6" d="M1209,170v-4.1l12.1,9l-12.1,9v-6.7h-204.5l13-32.1l0.4-0.9l-0.4-0.9l-13-32.2h36.3v4.7
		h-29.2l1.3,3.3l9.1,22.4l1.1,2.7l-1.1,2.7l-9,22.3l-1.3,3.3H1209V170z"/>
	<g class="st7">
		<path class="st8" d="M1039.7,145.3c0-3.8,2.9-6.5,6.8-6.5c2.2,0,4,0.8,5.2,2.2l-1.9,1.7c-0.8-1-1.9-1.5-3.2-1.5c-2.4,0-4,1.7-4,4
			c0,2.4,1.7,4,4,4c1.3,0,2.3-0.5,3.2-1.5l1.9,1.7c-1.2,1.5-3,2.2-5.2,2.2C1042.6,151.9,1039.7,149.1,1039.7,145.3z"/>
		<path class="st8" d="M1052.5,146.8c0-2.9,2.3-5,5.3-5c3.1,0,5.3,2.1,5.3,5s-2.2,5-5.3,5S1052.5,149.7,1052.5,146.8z M1060.3,146.8
			c0-1.7-1.1-2.7-2.5-2.7s-2.5,1-2.5,2.7s1.1,2.7,2.5,2.7S1060.3,148.5,1060.3,146.8z"/>
		<path class="st8" d="M1074.9,146.1v5.5h-2.8v-5.1c0-1.6-0.7-2.3-2-2.3s-2.3,0.8-2.3,2.6v4.8h-2.8v-9.7h2.7v1.1
			c0.8-0.8,1.9-1.3,3.2-1.3C1073.1,141.8,1074.9,143.1,1074.9,146.1z"/>
		<path class="st8" d="M1083.7,151.2c-0.6,0.4-1.4,0.6-2.3,0.6c-2.3,0-3.6-1.2-3.6-3.5v-4h-1.5v-2.2h1.5v-2.4h2.8v2.4h2.4v2.2h-2.4
			v3.9c0,0.8,0.5,1.3,1.2,1.3c0.4,0,0.8-0.1,1.1-0.4L1083.7,151.2z"/>
		<path class="st8" d="M1084.9,139c0-0.9,0.7-1.6,1.7-1.6s1.7,0.6,1.7,1.5s-0.7,1.6-1.7,1.6C1085.6,140.6,1084.9,139.9,1084.9,139z
			 M1085.2,141.9h2.8v9.7h-2.8V141.9z"/>
		<path class="st8" d="M1100.6,146.1v5.5h-2.8v-5.1c0-1.6-0.7-2.3-2-2.3s-2.3,0.8-2.3,2.6v4.8h-2.8v-9.7h2.7v1.1
			c0.8-0.8,1.9-1.3,3.2-1.3C1098.8,141.8,1100.6,143.1,1100.6,146.1z"/>
		<path class="st8" d="M1112.8,141.9v9.7h-2.7v-1.2c-0.7,0.8-1.8,1.3-3,1.3c-2.4,0-4.1-1.4-4.1-4.4v-5.5h2.8v5.1
			c0,1.6,0.7,2.3,2,2.3s2.2-0.8,2.2-2.6v-4.8L1112.8,141.9L1112.8,141.9z"/>
		<path class="st8" d="M1114.7,146.8c0-2.9,2.2-5,5.3-5s5.3,2.1,5.3,5s-2.2,5-5.3,5S1114.7,149.7,1114.7,146.8z M1122.5,146.8
			c0-1.7-1.1-2.7-2.5-2.7s-2.5,1-2.5,2.7s1.1,2.7,2.5,2.7S1122.5,148.5,1122.5,146.8z"/>
		<path class="st8" d="M1137,141.9v9.7h-2.7v-1.2c-0.7,0.8-1.8,1.3-3,1.3c-2.4,0-4.1-1.4-4.1-4.4v-5.5h2.8v5.1c0,1.6,0.7,2.3,2,2.3
			s2.2-0.8,2.2-2.6v-4.8L1137,141.9L1137,141.9z"/>
		<path class="st8" d="M1138.7,150.7l0.9-2c0.9,0.6,2.2,0.9,3.4,0.9c1.3,0,1.8-0.3,1.8-0.9c0-1.6-5.9,0-5.9-3.8
			c0-1.8,1.7-3.1,4.5-3.1c1.3,0,2.8,0.3,3.7,0.8l-0.9,2c-1-0.5-1.9-0.7-2.8-0.7c-1.3,0-1.8,0.4-1.8,0.9c0,1.7,5.9,0.1,5.9,3.9
			c0,1.8-1.7,3.1-4.6,3.1C1141.2,151.8,1139.6,151.3,1138.7,150.7z"/>
		<path class="st8" d="M1165.9,151.6V144l-3.7,6.2h-1.3l-3.7-6.1v7.4h-2.7V139h2.4l4.7,7.8l4.6-7.8h2.4v12.6H1165.9z"/>
		<path class="st8" d="M1170.7,146.8c0-2.9,2.3-5,5.3-5c3.1,0,5.3,2.1,5.3,5s-2.2,5-5.3,5C1173,151.8,1170.7,149.7,1170.7,146.8z
			 M1178.5,146.8c0-1.7-1.1-2.7-2.5-2.7s-2.5,1-2.5,2.7s1.1,2.7,2.5,2.7S1178.5,148.5,1178.5,146.8z"/>
		<path class="st8" d="M1193.1,146.1v5.5h-2.8v-5.1c0-1.6-0.7-2.3-2-2.3c-1.4,0-2.3,0.8-2.3,2.6v4.8h-2.8v-9.7h2.7v1.1
			c0.8-0.8,1.9-1.3,3.2-1.3C1191.4,141.8,1193.1,143.1,1193.1,146.1z"/>
		<path class="st8" d="M1195.3,139c0-0.9,0.7-1.6,1.7-1.6s1.7,0.6,1.7,1.5s-0.7,1.6-1.7,1.6C1196,140.6,1195.3,139.9,1195.3,139z
			 M1195.7,141.9h2.8v9.7h-2.8V141.9z"/>
		<path class="st8" d="M1207.3,151.2c-0.6,0.4-1.4,0.6-2.3,0.6c-2.3,0-3.6-1.2-3.6-3.5v-4h-1.5v-2.2h1.5v-2.4h2.8v2.4h2.4v2.2h-2.4
			v3.9c0,0.8,0.5,1.3,1.2,1.3c0.4,0,0.8-0.1,1.1-0.4L1207.3,151.2z"/>
		<path class="st8" d="M1207.9,146.8c0-2.9,2.3-5,5.3-5s5.3,2.1,5.3,5s-2.2,5-5.3,5S1207.9,149.7,1207.9,146.8z M1215.7,146.8
			c0-1.7-1.1-2.7-2.5-2.7s-2.5,1-2.5,2.7s1.1,2.7,2.5,2.7S1215.7,148.5,1215.7,146.8z"/>
		<path class="st8" d="M1226.4,141.8v2.6c-0.2,0-0.4,0-0.6,0c-1.5,0-2.6,0.8-2.6,2.7v4.6h-2.8V142h2.7v1.3
			C1223.8,142.3,1224.9,141.8,1226.4,141.8z"/>
		<path class="st8" d="M1227.8,139c0-0.9,0.7-1.6,1.7-1.6s1.7,0.6,1.7,1.5s-0.7,1.6-1.7,1.6C1228.5,140.6,1227.8,139.9,1227.8,139z
			 M1228.1,141.9h2.8v9.7h-2.8V141.9z"/>
		<path class="st8" d="M1243.4,146.1v5.5h-2.8v-5.1c0-1.6-0.7-2.3-2-2.3s-2.3,0.8-2.3,2.6v4.8h-2.8v-9.7h2.7v1.1
			c0.8-0.8,1.9-1.3,3.2-1.3C1241.7,141.8,1243.4,143.1,1243.4,146.1z"/>
		<path class="st8" d="M1256.1,141.9v8.1c0,3.6-1.9,5.3-5.4,5.3c-1.8,0-3.6-0.5-4.8-1.3l1.1-2c0.8,0.7,2.2,1.1,3.4,1.1
			c2,0,2.8-0.9,2.8-2.6V150c-0.7,0.8-1.8,1.2-3.1,1.2c-2.7,0-4.8-1.9-4.8-4.7s2.2-4.7,4.8-4.7c1.4,0,2.5,0.5,3.2,1.4V142h2.8V141.9z
			 M1253.3,146.5c0-1.4-1.1-2.4-2.5-2.4s-2.6,1-2.6,2.4s1.1,2.4,2.6,2.4S1253.3,147.9,1253.3,146.5z"/>
	</g>
</g>
</svg>
