<?xml version="1.0" encoding="UTF-8"?>
<svg id="Layer_1" data-name="Layer 1" xmlns="http://www.w3.org/2000/svg" version="1.1" viewBox="0 0 1280 213">
  <defs>
    <style>
      .cls-1 {
        fill: #1294c2;
      }

      .cls-1, .cls-2 {
        stroke-width: 0px;
      }

      .cls-3, .cls-4, .cls-5, .cls-6, .cls-7, .cls-8 {
        isolation: isolate;
      }

      .cls-3, .cls-4, .cls-5, .cls-7, .cls-8 {
        font-size: 18px;
      }

      .cls-3, .cls-5 {
        font-family: Montserrat-SemiBold, Montserrat;
        font-weight: 600;
      }

      .cls-3, .cls-5, .cls-2 {
        fill: #fff;
      }

      .cls-3, .cls-8 {
        letter-spacing: 0em;
      }

      .cls-4 {
        letter-spacing: 0em;
      }

      .cls-4, .cls-7, .cls-8 {
        fill: #0a90b7;
        font-family: Montserrat-Bold, Montserrat;
        font-weight: 700;
      }
    </style>
  </defs>
  <path id="Path_11101" data-name="Path 11101" class="cls-2" d="M1261.9,177.2h-257.4l14.8-32.9-14.8-33h257.4l16,33-16,32.9Z"/>
  <path id="Path_11098" data-name="Path 11098" class="cls-1" d="M978.7,177.2h-284l13.3-32.9-13.3-33h284l14.5,33-14.5,32.9h0Z"/>
  <path id="Path_11100" data-name="Path 11100" class="cls-1" d="M216.4,177.2H.2v-66h216.2l14.5,33-14.5,32.9h0Z"/>
  <path id="Path_11287" data-name="Path 11287" class="cls-1" d="M670.2,177.2H247.9l13.9-32.9-13.9-33h422.3l13.9,33-13.9,32.9h0Z"/>
  <path id="Path_11343" data-name="Path 11343" class="cls-1" d="M1265.1,177.1h-35.9v-4.7h32.8l.6-1.4,11.4-25.9.4-.9-.4-.9-11.4-26-.6-1.4h-201.1v6.7l-12.1-9,12.1-9v6.5h204.2l14.5,33.1-14.5,33h0Z"/>
  <g id="Select_Authorization_Path" data-name="Select Authorization Path" class="cls-6">
    <g class="cls-6">
      <text class="cls-5" transform="translate(22.6 151.6)"><tspan x="0" y="0">A</tspan></text>
      <text class="cls-5" transform="translate(36 151.6)"><tspan x="0" y="0">ut</tspan></text>
      <text class="cls-5" transform="translate(56.1 151.6)"><tspan x="0" y="0">h</tspan></text>
      <text class="cls-5" transform="translate(68.6 151.6)"><tspan x="0" y="0">o</tspan></text>
      <text class="cls-5" transform="translate(80.3 151.6)"><tspan x="0" y="0">r</tspan></text>
      <text class="cls-5" transform="translate(87.9 151.6)"><tspan x="0" y="0">ization </tspan></text>
      <text class="cls-3" transform="translate(156 151.6)"><tspan x="0" y="0">P</tspan></text>
      <text class="cls-5" transform="translate(168.9 151.6)"><tspan x="0" y="0">ath</tspan></text>
    </g>
  </g>
  <g id="Preparation" class="cls-6">
    <g class="cls-6">
      <text class="cls-5" transform="translate(404.3 151.6)"><tspan x="0" y="0">P</tspan></text>
      <text class="cls-5" transform="translate(417.2 151.6)"><tspan x="0" y="0">r</tspan></text>
      <text class="cls-5" transform="translate(424.6 151.6)"><tspan x="0" y="0">e</tspan></text>
      <text class="cls-5" transform="translate(435.9 151.6)"><tspan x="0" y="0">p</tspan></text>
      <text class="cls-5" transform="translate(448.2 151.6)"><tspan x="0" y="0">a</tspan></text>
      <text class="cls-5" transform="translate(459.2 151.6)"><tspan x="0" y="0">r</tspan></text>
      <text class="cls-5" transform="translate(466.7 151.6)"><tspan x="0" y="0">ation</tspan></text>
    </g>
  </g>
  <g id="Authorization" class="cls-6">
    <g class="cls-6">
      <text class="cls-5" transform="translate(778.1 151.6)"><tspan x="0" y="0">A</tspan></text>
      <text class="cls-5" transform="translate(791.5 151.6)"><tspan x="0" y="0">ut</tspan></text>
      <text class="cls-5" transform="translate(811.6 151.6)"><tspan x="0" y="0">h</tspan></text>
      <text class="cls-5" transform="translate(824.1 151.6)"><tspan x="0" y="0">o</tspan></text>
      <text class="cls-5" transform="translate(835.8 151.6)"><tspan x="0" y="0">r</tspan></text>
      <text class="cls-5" transform="translate(843.3 151.6)"><tspan x="0" y="0">ization</tspan></text>
    </g>
  </g>
  <path id="Path_11341" data-name="Path 11341" class="cls-1" d="M1015,172.3h-3.5l1.3-3.3,9-22.3,1.1-2.7-1.1-2.7-9.1-22.4-1.3-3.3h29.2v-4.7h-36.3l13,32.2.4.9-.4.9-13,32.1h204.5v6.7l12.1-9-12.1-9v6.5h-194Z"/>
  <path id="Path_11342" data-name="Path 11342" class="cls-1" d="M1209,170v-4.1l12.1,9-12.1,9v-6.7h-204.5l13-32.1.4-.9-.4-.9-13-32.2h36.2v4.7h-29.2l1.3,3.2,9.1,22.4,1.1,2.7-1.1,2.7-9,22.3-1.3,3.3h197.5v-2.4h0Z"/>
  <g id="Continuous_Monitoring" data-name="Continuous Monitoring" class="cls-6">
    <g class="cls-6">
      <text class="cls-8" transform="translate(1039 151.6)"><tspan x="0" y="0">C</tspan></text>
      <text class="cls-7" transform="translate(1052 151.6)"><tspan x="0" y="0">ontinuous Moni</tspan></text>
      <text class="cls-8" transform="translate(1201.2 151.6)"><tspan x="0" y="0">t</tspan></text>
      <text class="cls-7" transform="translate(1208.8 151.6)"><tspan x="0" y="0">o</tspan></text>
      <text class="cls-7" transform="translate(1220.7 151.6)"><tspan x="0" y="0">r</tspan></text>
      <text class="cls-7" transform="translate(1228.4 151.6)"><tspan x="0" y="0">i</tspan></text>
      <text class="cls-4" transform="translate(1233.9 151.6)"><tspan x="0" y="0">n</tspan></text>
      <text class="cls-7" transform="translate(1246.6 151.6)"><tspan x="0" y="0">g</tspan></text>
    </g>
  </g>
</svg>