<?xml version="1.0" encoding="utf-8"?>
<!-- Generator: Adobe Illustrator 25.1.0, SVG Export Plug-In . SVG Version: 6.00 Build 0)  -->
<svg version="1.1" id="Layer_1" xmlns="http://www.w3.org/2000/svg" xmlns:xlink="http://www.w3.org/1999/xlink" x="0px" y="0px"
	 viewBox="0 0 302 1162" style="enable-background:new 0 0 302 1162;" xml:space="preserve">
<style type="text/css">
	.st0{display:none;}
	.st1{display:inline;fill:#F2F2F2;}
	.st2{display:inline;}
	.st3{font-family:'Montserrat-Bold';}
	.st4{font-size:59.0197px;}
	.st5{fill:#FFFFFF;}
	.st6{fill:#0A90B7;}
	.st7{enable-background:new    ;}
	.st8{fill:#1A4480;}
	.st9{fill:#B3B3B3;}
	.st10{fill:#C71F25;}
	.st11{fill:#8B8C8E;}
</style>
<g id="Layer_2_1_" class="st0">
	<rect x="-1599" y="-3" class="st1" width="2787" height="1656"/>
	<text transform="matrix(1 0 0 1 -30.6113 103.4434)" class="st2 st3 st4">Tablet</text>
</g>
<g id="Layer_3">
	<rect y="1019" class="st5" width="301" height="143"/>
	<rect x="1" y="232" class="st5" width="301" height="422"/>
</g>
<g id="Layer_4">
	<path id="Path_11100_1_" class="st6" d="M280.9,47.6H14V0h266.9l9.1,23.8L280.9,47.6z"/>
	<path id="Path_11101_4_" class="st5" d="M274.3,1119.2H14.2l13.4-30.4l-13.4-30.5h260.1l14.7,30.5L274.3,1119.2z"/>
	<path id="Path_11341_4_" class="st6" d="M24.5,1114.7H21l1.3-3l6.8-20.6l1-2.5l-1-2.5l-6.8-20.7l-1.3-3h28.3v-4.4H14.2l10.6,29.7
		l0.3,0.8l-0.3,0.8l-10.6,29.6l201.8-0.3v6.2l11.7-8.3l-11.7-8.3v6L24.5,1114.7L24.5,1114.7z"/>
	<path id="Path_11342_4_" class="st6" d="M215.9,1112.3v-3.8l11.7,8.3l-11.7,8.3v-6.2l-201.6,0.2l10.6-29.6l0.3-0.8l-0.3-0.8
		l-10.6-29.7h35.2v4.4H21l1.3,3l6.8,20.7l1,2.5l-1,2.5l-6.8,20.6l-1.3,3l194.8-0.2L215.9,1112.3z"/>
	<path id="Path_11343_4_" class="st6" d="M277.2,1119.1h-39.3v-4.4h36.4l0.6-1.3l8.9-23.9l0.4-0.9l-0.4-0.9l-8.9-24l-0.6-1.3
		l-202-0.1v6.2l-11.6-8.3l11.6-8.3v6l205,0.1l11.8,30.5L277.2,1119.1z"/>
</g>
<g id="Layer_1_1_">
	<g>
		<g class="st7">
			<path class="st6" d="M48,1089.8c0-3.8,2.9-6.5,6.8-6.5c2.2,0,4,0.8,5.2,2.2l-1.9,1.7c-0.8-1-1.9-1.5-3.2-1.5c-2.4,0-4,1.7-4,4
				s1.7,4,4,4c1.3,0,2.3-0.5,3.2-1.5l1.9,1.7c-1.2,1.5-3,2.2-5.2,2.2C50.9,1096.3,48,1093.6,48,1089.8z"/>
			<path class="st6" d="M60.7,1091.3c0-2.9,2.3-5,5.3-5s5.3,2.1,5.3,5s-2.2,5-5.3,5S60.7,1094.2,60.7,1091.3z M68.5,1091.3
				c0-1.7-1.1-2.7-2.5-2.7s-2.5,1-2.5,2.7s1.1,2.7,2.5,2.7S68.5,1093,68.5,1091.3z"/>
			<path class="st6" d="M83.1,1090.6v5.5h-2.8v-5.1c0-1.6-0.7-2.3-2-2.3c-1.4,0-2.3,0.8-2.3,2.6v4.8h-2.8v-9.7h2.7v1.1
				c0.8-0.8,1.9-1.3,3.2-1.3C81.4,1086.3,83.1,1087.6,83.1,1090.6z"/>
			<path class="st6" d="M91.9,1095.7c-0.6,0.4-1.4,0.6-2.3,0.6c-2.3,0-3.6-1.2-3.6-3.5v-4h-1.5v-2.2H86v-2.4h2.8v2.4h2.4v2.2h-2.4
				v3.9c0,0.8,0.5,1.3,1.2,1.3c0.4,0,0.8-0.1,1.1-0.4L91.9,1095.7z"/>
			<path class="st6" d="M93.1,1083.5c0-0.9,0.7-1.6,1.7-1.6s1.7,0.6,1.7,1.5s-0.7,1.6-1.7,1.6C93.8,1085.1,93.1,1084.4,93.1,1083.5z
				 M93.5,1086.4h2.8v9.7h-2.8V1086.4z"/>
			<path class="st6" d="M108.8,1090.6v5.5H106v-5.1c0-1.6-0.7-2.3-2-2.3c-1.4,0-2.3,0.8-2.3,2.6v4.8h-2.8v-9.7h2.7v1.1
				c0.8-0.8,1.9-1.3,3.2-1.3C107.1,1086.3,108.8,1087.6,108.8,1090.6z"/>
			<path class="st6" d="M121.1,1086.4v9.7h-2.7v-1.2c-0.7,0.8-1.8,1.3-3,1.3c-2.4,0-4.1-1.4-4.1-4.4v-5.5h2.8v5.1
				c0,1.6,0.7,2.3,2,2.3s2.2-0.8,2.2-2.6v-4.8L121.1,1086.4L121.1,1086.4z"/>
			<path class="st6" d="M123,1091.3c0-2.9,2.3-5,5.3-5s5.3,2.1,5.3,5s-2.2,5-5.3,5S123,1094.2,123,1091.3z M130.8,1091.3
				c0-1.7-1.1-2.7-2.5-2.7s-2.5,1-2.5,2.7s1.1,2.7,2.5,2.7C129.7,1094,130.8,1093,130.8,1091.3z"/>
			<path class="st6" d="M145.2,1086.4v9.7h-2.7v-1.2c-0.7,0.8-1.8,1.3-3,1.3c-2.4,0-4.1-1.4-4.1-4.4v-5.5h2.8v5.1
				c0,1.6,0.7,2.3,2,2.3s2.2-0.8,2.2-2.6v-4.8L145.2,1086.4L145.2,1086.4z"/>
			<path class="st6" d="M146.9,1095.2l0.9-2c0.9,0.6,2.2,0.9,3.4,0.9c1.3,0,1.8-0.3,1.8-0.9c0-1.6-5.9,0-5.9-3.8
				c0-1.8,1.7-3.1,4.5-3.1c1.3,0,2.8,0.3,3.7,0.8l-0.9,2c-1-0.5-1.9-0.7-2.8-0.7c-1.3,0-1.8,0.4-1.8,0.9c0,1.7,5.9,0.1,5.9,3.9
				c0,1.8-1.7,3.1-4.6,3.1C149.5,1096.3,147.8,1095.8,146.9,1095.2z"/>
			<path class="st6" d="M174.2,1096.1v-7.6l-3.7,6.2h-1.3l-3.7-6.1v7.4h-2.7v-12.6h2.4l4.7,7.8l4.6-7.8h2.4v12.6L174.2,1096.1
				L174.2,1096.1z"/>
			<path class="st6" d="M179,1091.3c0-2.9,2.3-5,5.3-5s5.3,2.1,5.3,5s-2.2,5-5.3,5S179,1094.2,179,1091.3z M186.8,1091.3
				c0-1.7-1.1-2.7-2.5-2.7s-2.5,1-2.5,2.7s1.1,2.7,2.5,2.7S186.8,1093,186.8,1091.3z"/>
			<path class="st6" d="M201.4,1090.6v5.5h-2.8v-5.1c0-1.6-0.7-2.3-2-2.3c-1.4,0-2.3,0.8-2.3,2.6v4.8h-2.8v-9.7h2.7v1.1
				c0.8-0.8,1.9-1.3,3.2-1.3C199.6,1086.3,201.4,1087.6,201.4,1090.6z"/>
			<path class="st6" d="M203.6,1083.5c0-0.9,0.7-1.6,1.7-1.6s1.7,0.6,1.7,1.5s-0.7,1.6-1.7,1.6
				C204.3,1085.1,203.6,1084.4,203.6,1083.5z M203.9,1086.4h2.8v9.7h-2.8V1086.4z"/>
			<path class="st6" d="M215.6,1095.7c-0.6,0.4-1.4,0.6-2.3,0.6c-2.3,0-3.6-1.2-3.6-3.5v-4h-1.5v-2.2h1.5v-2.4h2.8v2.4h2.4v2.2h-2.4
				v3.9c0,0.8,0.5,1.3,1.2,1.3c0.4,0,0.8-0.1,1.1-0.4L215.6,1095.7z"/>
			<path class="st6" d="M216.1,1091.3c0-2.9,2.2-5,5.3-5s5.3,2.1,5.3,5s-2.2,5-5.3,5S216.1,1094.2,216.1,1091.3z M223.9,1091.3
				c0-1.7-1.1-2.7-2.5-2.7s-2.5,1-2.5,2.7s1.1,2.7,2.5,2.7S223.9,1093,223.9,1091.3z"/>
			<path class="st6" d="M234.7,1086.3v2.6c-0.2,0-0.4,0-0.6,0c-1.5,0-2.6,0.8-2.6,2.7v4.6h-2.8v-9.7h2.7v1.3
				C232,1086.8,233.2,1086.3,234.7,1086.3z"/>
			<path class="st6" d="M236,1083.5c0-0.9,0.7-1.6,1.7-1.6s1.7,0.6,1.7,1.5s-0.7,1.6-1.7,1.6C236.7,1085.1,236,1084.4,236,1083.5z
				 M236.3,1086.4h2.8v9.7h-2.8V1086.4z"/>
			<path class="st6" d="M251.6,1090.6v5.5h-2.8v-5.1c0-1.6-0.7-2.3-2-2.3s-2.3,0.8-2.3,2.6v4.8h-2.8v-9.7h2.7v1.1
				c0.8-0.8,1.9-1.3,3.2-1.3C249.9,1086.3,251.6,1087.6,251.6,1090.6z"/>
			<path class="st6" d="M264.3,1086.4v8.1c0,3.6-1.9,5.3-5.4,5.3c-1.8,0-3.6-0.5-4.8-1.3l1.1-2c0.8,0.7,2.2,1.1,3.4,1.1
				c2,0,2.8-0.9,2.8-2.6v-0.4c-0.7,0.8-1.8,1.2-3.1,1.2c-2.7,0-4.8-1.9-4.8-4.7s2.2-4.7,4.8-4.7c1.4,0,2.5,0.5,3.2,1.4v-1.2h2.8
				V1086.4z M261.5,1091c0-1.4-1.1-2.4-2.5-2.4c-1.5,0-2.6,1-2.6,2.4s1.1,2.4,2.6,2.4C260.4,1093.3,261.5,1092.4,261.5,1091z"/>
		</g>
	</g>
	<g class="st7">
		<path class="st8" d="M120.1,356.6h-6.5l-1.2,3h-3.3l6.2-14h3.2l6.2,14h-3.4L120.1,356.6z M119.1,354.1l-2.2-5.4l-2.2,5.4H119.1z"
			/>
		<path class="st8" d="M136.9,348.8v8.9c0,4-2.1,5.8-6,5.8c-2,0-4-0.5-5.2-1.5l1.2-2.2c0.9,0.7,2.4,1.2,3.8,1.2c2.2,0,3.1-1,3.1-2.9
			v-0.5c-0.8,0.9-2,1.3-3.4,1.3c-3,0-5.3-2.1-5.3-5.2s2.4-5.2,5.3-5.2c1.5,0,2.7,0.5,3.5,1.5v-1.4h3L136.9,348.8L136.9,348.8z
			 M133.8,353.8c0-1.6-1.2-2.6-2.8-2.6s-2.8,1.1-2.8,2.6c0,1.6,1.2,2.6,2.8,2.6C132.7,356.5,133.8,355.4,133.8,353.8z"/>
		<path class="st8" d="M150.2,355.1h-8.1c0.3,1.3,1.4,2.2,3.1,2.2c1.1,0,1.9-0.3,2.7-1l1.6,1.8c-1,1.1-2.5,1.7-4.4,1.7
			c-3.7,0-6.1-2.3-6.1-5.5s2.4-5.5,5.7-5.5c3.1,0,5.6,2.1,5.6,5.6C150.3,354.5,150.2,354.8,150.2,355.1z M142.1,353.2h5.3
			c-0.2-1.4-1.2-2.2-2.6-2.2C143.3,351,142.3,351.9,142.1,353.2z"/>
		<path class="st8" d="M163.2,353.4v6.2h-3.1v-5.7c0-1.7-0.8-2.5-2.2-2.5c-1.5,0-2.6,0.9-2.6,2.9v5.3h-3.1v-10.7h3v1.3
			c0.8-0.9,2.1-1.4,3.5-1.4C161.3,348.7,163.2,350.1,163.2,353.4z"/>
		<path class="st8" d="M165.4,354.2c0-3.2,2.5-5.5,6-5.5c2.2,0,4,1,4.8,2.7l-2.4,1.3c-0.6-1-1.4-1.5-2.4-1.5c-1.6,0-2.8,1.1-2.8,3
			s1.2,3,2.8,3c1,0,1.8-0.4,2.4-1.5l2.4,1.3c-0.8,1.7-2.5,2.7-4.8,2.7C167.9,359.7,165.4,357.4,165.4,354.2z"/>
		<path class="st8" d="M188.4,348.8l-4.8,11.4c-1,2.6-2.5,3.4-4.4,3.4c-1.1,0-2.3-0.4-3-1l1.1-2.2c0.5,0.4,1.1,0.7,1.7,0.7
			c0.9,0,1.3-0.4,1.7-1.3v-0.1l-4.6-10.8h3.2l3,7.3l3-7.3h3.1V348.8z"/>
	</g>
	<rect x="22.1" y="352.4" class="st9" width="71.5" height="0.5"/>
	<rect x="210" y="352.4" class="st9" width="71.5" height="0.5"/>
	<rect x="22" y="492.4" class="st9" width="85.5" height="0.5"/>
	<rect x="193" y="492.4" class="st9" width="89" height="0.5"/>
	<g class="st7">
		<path class="st10" d="M129.2,497.8l1.8-2.2c0.8,1,1.6,1.5,2.6,1.5c1.3,0,2-0.8,2-2.3v-6.7h-4.9v-2.6h8.1v9.1c0,3.5-1.7,5.2-5,5.2
			C131.9,499.8,130.3,499.1,129.2,497.8z"/>
		<path class="st10" d="M150.8,496.6h-6.5l-1.2,3h-3.3l6.2-14h3.2l6.2,14H152L150.8,496.6z M149.8,494.1l-2.2-5.4l-2.2,5.4H149.8z"
			/>
		<path class="st10" d="M169.6,495.7c0,2.4-1.9,3.8-5.6,3.8h-7.2v-14h6.8c3.5,0,5.3,1.5,5.3,3.6c0,1.4-0.7,2.5-1.8,3.1
			C168.6,492.8,169.6,494,169.6,495.7z M160.1,488v3.3h3.2c1.6,0,2.4-0.6,2.4-1.7s-0.9-1.6-2.4-1.6L160.1,488L160.1,488z
			 M166.4,495.4c0-1.2-0.9-1.7-2.6-1.7H160v3.5h3.8C165.5,497.1,166.4,496.6,166.4,495.4z"/>
	</g>
	<path id="Path_11287_10_" class="st6" d="M280.1,309.2H14l9.9-23.2L14,262.7h266.1L290,286L280.1,309.2z"/>
	<path id="Path_11287_3_" class="st6" d="M280.1,733.2H14l9.9-23.2L14,686.7h266.1L290,710L280.1,733.2z"/>
	<g>
		<g class="st7">
			<path class="st5" d="M108.6,284c0,2.8-2.1,4.5-5.4,4.5h-2.8v3.6H98v-12.6h5.2C106.5,279.5,108.6,281.2,108.6,284z M106.2,284
				c0-1.6-1.1-2.5-3.1-2.5h-2.7v5h2.7C105.2,286.5,106.2,285.6,106.2,284z"/>
			<path class="st5" d="M116.2,282.4v2.1c-0.2,0-0.4-0.1-0.5-0.1c-1.7,0-2.8,1-2.8,3v4.7h-2.3v-9.6h2.1v1.4
				C113.4,282.9,114.6,282.4,116.2,282.4z"/>
			<path class="st5" d="M127,288h-7.5c0.3,1.4,1.4,2.3,3.1,2.3c1.1,0,1.9-0.3,2.6-1l1.2,1.4c-0.9,1-2.2,1.6-3.9,1.6
				c-3.2,0-5.3-2.1-5.3-4.9c0-2.9,2.1-4.9,5-4.9c2.8,0,4.9,2,4.9,5C127,287.6,127,287.8,127,288z M119.4,286.6h5.5
				c-0.2-1.4-1.2-2.3-2.7-2.3C120.7,284.2,119.7,285.1,119.4,286.6z"/>
			<path class="st5" d="M139.4,287.3c0,3-2.1,4.9-4.9,4.9c-1.2,0-2.3-0.4-3.1-1.3v4.7h-2.3v-13.1h2.1v1.3c0.8-0.9,1.9-1.4,3.2-1.4
				C137.3,282.4,139.4,284.4,139.4,287.3z M137.1,287.3c0-1.8-1.2-3-2.8-3s-2.9,1.2-2.9,3s1.2,3,2.9,3
				C135.9,290.3,137.1,289.2,137.1,287.3z"/>
			<path class="st5" d="M149.5,286.5v5.6h-2.1V291c-0.5,0.8-1.6,1.3-3,1.3c-2.2,0-3.6-1.2-3.6-2.9c0-1.6,1.1-2.9,4-2.9h2.5v-0.1
				c0-1.3-0.8-2.1-2.4-2.1c-1.1,0-2.2,0.4-2.9,1l-0.9-1.6c1-0.8,2.5-1.2,4.1-1.2C147.9,282.4,149.5,283.7,149.5,286.5z M147.2,289.1
				V288h-2.3c-1.5,0-1.9,0.6-1.9,1.3c0,0.8,0.7,1.3,1.8,1.3C145.9,290.6,146.8,290.1,147.2,289.1z"/>
			<path class="st5" d="M157.9,282.4v2.1c-0.2,0-0.4-0.1-0.5-0.1c-1.7,0-2.8,1-2.8,3v4.7h-2.2v-9.6h2.1v1.4
				C155.1,282.9,156.3,282.4,157.9,282.4z"/>
			<path class="st5" d="M167.8,286.5v5.6h-2.1V291c-0.5,0.8-1.6,1.3-3,1.3c-2.2,0-3.6-1.2-3.6-2.9c0-1.6,1.1-2.9,4-2.9h2.5v-0.1
				c0-1.3-0.8-2.1-2.4-2.1c-1.1,0-2.2,0.4-2.9,1l-0.9-1.6c1-0.8,2.5-1.2,4.1-1.2C166.2,282.4,167.8,283.7,167.8,286.5z M165.6,289.1
				V288h-2.3c-1.5,0-1.9,0.6-1.9,1.3c0,0.8,0.7,1.3,1.8,1.3C164.2,290.6,165.2,290.1,165.6,289.1z"/>
			<path class="st5" d="M176.5,291.6c-0.5,0.4-1.4,0.6-2.2,0.6c-2.1,0-3.3-1.1-3.3-3.2v-4.6h-1.6v-1.8h1.6v-2.2h2.3v2.2h2.6v1.8
				h-2.6v4.6c0,0.9,0.5,1.4,1.3,1.4c0.5,0,0.9-0.1,1.3-0.4L176.5,291.6z"/>
			<path class="st5" d="M178,279.6c0-0.8,0.6-1.4,1.4-1.4s1.4,0.6,1.4,1.3c0,0.8-0.6,1.4-1.4,1.4S178,280.3,178,279.6z M178.3,282.5
				h2.2v9.6h-2.2V282.5z"/>
			<path class="st5" d="M182.7,287.3c0-2.9,2.2-4.9,5.1-4.9c3,0,5.1,2,5.1,4.9s-2.1,4.9-5.1,4.9
				C184.9,292.3,182.7,290.2,182.7,287.3z M190.7,287.3c0-1.8-1.2-3-2.9-3c-1.6,0-2.8,1.2-2.8,3s1.2,3,2.8,3
				C189.5,290.3,190.7,289.2,190.7,287.3z"/>
			<path class="st5" d="M204.6,286.6v5.5h-2.3v-5.2c0-1.7-0.8-2.5-2.3-2.5c-1.6,0-2.7,1-2.7,2.9v4.9h-2.2v-9.6h2.1v1.2
				c0.7-0.9,1.9-1.4,3.3-1.4C202.9,282.4,204.6,283.7,204.6,286.6z"/>
		</g>
	</g>
	<g class="st7">
		<path class="st8" d="M120.1,780.6h-6.5l-1.2,3h-3.3l6.2-14h3.2l6.2,14h-3.4L120.1,780.6z M119.1,778.1l-2.2-5.4l-2.2,5.4H119.1z"
			/>
		<path class="st8" d="M136.9,772.8v8.9c0,4-2.1,5.8-6,5.8c-2,0-4-0.5-5.2-1.5l1.2-2.2c0.9,0.7,2.4,1.2,3.8,1.2c2.2,0,3.1-1,3.1-2.9
			v-0.5c-0.8,0.9-2,1.3-3.4,1.3c-3,0-5.3-2.1-5.3-5.2c0-3.1,2.4-5.2,5.3-5.2c1.5,0,2.7,0.5,3.5,1.5v-1.4h3L136.9,772.8L136.9,772.8z
			 M133.8,777.8c0-1.6-1.2-2.6-2.8-2.6s-2.8,1.1-2.8,2.6c0,1.6,1.2,2.6,2.8,2.6C132.7,780.5,133.8,779.4,133.8,777.8z"/>
		<path class="st8" d="M150.2,779.1h-8.1c0.3,1.3,1.4,2.2,3.1,2.2c1.1,0,1.9-0.3,2.7-1l1.6,1.8c-1,1.1-2.5,1.7-4.4,1.7
			c-3.7,0-6.1-2.3-6.1-5.5s2.4-5.5,5.7-5.5c3.1,0,5.6,2.1,5.6,5.6C150.3,778.5,150.2,778.8,150.2,779.1z M142.1,777.2h5.3
			c-0.2-1.4-1.2-2.2-2.6-2.2C143.3,775,142.3,775.9,142.1,777.2z"/>
		<path class="st8" d="M163.2,777.4v6.2h-3.1v-5.7c0-1.7-0.8-2.5-2.2-2.5c-1.5,0-2.6,0.9-2.6,2.9v5.3h-3.1v-10.7h3v1.3
			c0.8-0.9,2.1-1.4,3.5-1.4C161.3,772.7,163.2,774.1,163.2,777.4z"/>
		<path class="st8" d="M165.4,778.2c0-3.2,2.5-5.5,6-5.5c2.2,0,4,1,4.8,2.7l-2.4,1.3c-0.6-1-1.4-1.5-2.4-1.5c-1.6,0-2.8,1.1-2.8,3
			s1.2,3,2.8,3c1,0,1.8-0.4,2.4-1.5l2.4,1.3c-0.8,1.7-2.5,2.7-4.8,2.7C167.9,783.7,165.4,781.4,165.4,778.2z"/>
		<path class="st8" d="M188.4,772.8l-4.8,11.4c-1,2.6-2.5,3.4-4.4,3.4c-1.1,0-2.3-0.4-3-1l1.1-2.2c0.5,0.4,1.1,0.7,1.7,0.7
			c0.9,0,1.3-0.4,1.7-1.3v-0.1l-4.6-10.8h3.2l3,7.3l3-7.3h3.1V772.8z"/>
	</g>
	<rect x="23.1" y="776.3" class="st11" width="71.5" height="0.5"/>
	<rect x="211" y="776.3" class="st11" width="71.5" height="0.5"/>
	<rect x="22" y="916.3" class="st11" width="85.5" height="0.5"/>
	<rect x="193" y="916.3" class="st11" width="89" height="0.5"/>
	<g class="st7">
		<path class="st10" d="M129.2,921.8l1.8-2.2c0.8,1,1.6,1.5,2.6,1.5c1.3,0,2-0.8,2-2.3v-6.7h-4.9v-2.6h8.1v9.1c0,3.5-1.7,5.2-5,5.2
			C131.9,923.8,130.3,923.1,129.2,921.8z"/>
		<path class="st10" d="M150.8,920.6h-6.5l-1.2,3h-3.3l6.2-14h3.2l6.2,14H152L150.8,920.6z M149.8,918.1l-2.2-5.4l-2.2,5.4H149.8z"
			/>
		<path class="st10" d="M169.6,919.7c0,2.4-1.9,3.8-5.6,3.8h-7.2v-14h6.8c3.5,0,5.3,1.5,5.3,3.6c0,1.4-0.7,2.5-1.8,3.1
			C168.6,916.8,169.6,918,169.6,919.7z M160.1,912v3.3h3.2c1.6,0,2.4-0.6,2.4-1.7s-0.9-1.6-2.4-1.6H160.1z M166.4,919.4
			c0-1.2-0.9-1.7-2.6-1.7H160v3.5h3.8C165.5,921.1,166.4,920.6,166.4,919.4z"/>
	</g>
	<g>
		<g class="st7">
			<path class="st5" d="M95.3,713.2H89l-1.2,2.9h-2.4l5.7-12.6h2.3l5.7,12.6h-2.4L95.3,713.2z M94.5,711.4l-2.4-5.5l-2.4,5.5H94.5z"
				/>
			<path class="st5" d="M109.5,706.5v9.6h-2.1v-1.2c-0.7,0.9-1.9,1.3-3.1,1.3c-2.5,0-4.1-1.3-4.1-4.2v-5.5h2.3v5.2
				c0,1.7,0.8,2.6,2.3,2.6c1.6,0,2.6-1,2.6-2.9v-4.9L109.5,706.5L109.5,706.5z"/>
			<path class="st5" d="M118.3,715.6c-0.5,0.4-1.4,0.6-2.2,0.6c-2.1,0-3.3-1.1-3.3-3.2v-4.6h-1.6v-1.8h1.6v-2.2h2.3v2.2h2.6v1.8H115
				v4.6c0,0.9,0.5,1.4,1.3,1.4c0.5,0,0.9-0.1,1.3-0.4L118.3,715.6z"/>
			<path class="st5" d="M129.6,710.6v5.5h-2.3v-5.2c0-1.7-0.8-2.5-2.3-2.5c-1.6,0-2.7,1-2.7,2.9v4.9H120v-13.4h2.3v4.9
				c0.7-0.8,1.9-1.2,3.2-1.2C127.9,706.4,129.6,707.7,129.6,710.6z"/>
			<path class="st5" d="M131.7,711.3c0-2.9,2.2-4.9,5.1-4.9c3,0,5.1,2,5.1,4.9s-2.1,4.9-5.1,4.9
				C133.9,716.3,131.7,714.2,131.7,711.3z M139.7,711.3c0-1.8-1.2-3-2.9-3c-1.6,0-2.8,1.2-2.8,3s1.2,3,2.8,3
				C138.5,714.3,139.7,713.2,139.7,711.3z"/>
			<path class="st5" d="M149.7,706.4v2.1c-0.2,0-0.4-0.1-0.5-0.1c-1.7,0-2.8,1-2.8,3v4.7h-2.3v-9.6h2.1v1.4
				C146.9,706.9,148.1,706.4,149.7,706.4z"/>
			<path class="st5" d="M151.3,703.6c0-0.8,0.6-1.3,1.4-1.3s1.4,0.6,1.4,1.3c0,0.8-0.6,1.4-1.4,1.4
				C151.9,704.9,151.3,704.3,151.3,703.6z M151.6,706.5h2.3v9.6h-2.3V706.5z"/>
			<path class="st5" d="M164.3,714.3v1.8H156v-1.4l5.3-6.4h-5.2v-1.8h8v1.4l-5.3,6.4H164.3z"/>
			<path class="st5" d="M174.4,710.5v5.6h-2.1V715c-0.5,0.8-1.6,1.3-3,1.3c-2.2,0-3.6-1.2-3.6-2.9c0-1.6,1.1-2.9,4-2.9h2.5v-0.1
				c0-1.3-0.8-2.1-2.4-2.1c-1.1,0-2.2,0.4-2.9,1l-0.9-1.6c1-0.8,2.5-1.2,4.1-1.2C172.8,706.4,174.4,707.7,174.4,710.5z M172.2,713.1
				V712h-2.3c-1.5,0-1.9,0.6-1.9,1.3c0,0.8,0.7,1.3,1.8,1.3C170.8,714.6,171.8,714.1,172.2,713.1z"/>
			<path class="st5" d="M183.1,715.6c-0.5,0.4-1.4,0.6-2.2,0.6c-2.1,0-3.3-1.1-3.3-3.2v-4.6H176v-1.8h1.6v-2.2h2.3v2.2h2.6v1.8h-2.6
				v4.6c0,0.9,0.5,1.4,1.3,1.4c0.5,0,0.9-0.1,1.3-0.4L183.1,715.6z"/>
			<path class="st5" d="M184.6,703.6c0-0.8,0.6-1.3,1.4-1.3s1.4,0.6,1.4,1.3c0,0.8-0.6,1.4-1.4,1.4
				C185.2,704.9,184.6,704.3,184.6,703.6z M184.9,706.5h2.3v9.6h-2.3V706.5z"/>
			<path class="st5" d="M189.3,711.3c0-2.9,2.2-4.9,5.1-4.9c3,0,5.1,2,5.1,4.9s-2.1,4.9-5.1,4.9
				C191.5,716.3,189.3,714.2,189.3,711.3z M197.3,711.3c0-1.8-1.2-3-2.9-3c-1.6,0-2.8,1.2-2.8,3s1.2,3,2.8,3
				C196.1,714.3,197.3,713.2,197.3,711.3z"/>
			<path class="st5" d="M211.2,710.6v5.5H209v-5.2c0-1.7-0.8-2.5-2.3-2.5c-1.6,0-2.7,1-2.7,2.9v4.9h-2.3v-9.6h2.1v1.2
				c0.7-0.9,1.9-1.3,3.3-1.3C209.5,706.4,211.2,707.7,211.2,710.6z"/>
		</g>
	</g>
	<g>
		<g class="st7">
			<path class="st5" d="M35.1,28.6l0.8-1.8c1,0.8,2.6,1.4,4.2,1.4c2,0,2.8-0.7,2.8-1.6c0-2.7-7.5-0.9-7.5-5.6c0-2,1.6-3.8,5.1-3.8
				c1.5,0,3.1,0.4,4.2,1.1L44,20.1c-1.1-0.7-2.4-1-3.5-1c-1.9,0-2.7,0.8-2.7,1.7c0,2.7,7.5,0.9,7.5,5.6c0,2-1.6,3.7-5.1,3.7
				C38.1,30.1,36.1,29.5,35.1,28.6z"/>
			<path class="st5" d="M56.3,25.9h-7.5c0.3,1.4,1.4,2.3,3.1,2.3c1.1,0,1.9-0.3,2.6-1l1.2,1.4c-0.9,1-2.2,1.6-3.9,1.6
				c-3.2,0-5.3-2.1-5.3-4.9c0-2.9,2.1-4.9,5-4.9c2.8,0,4.9,2,4.9,5C56.3,25.4,56.3,25.7,56.3,25.9z M48.7,24.4h5.5
				C54,23,52.9,22,51.4,22C50,22,48.9,23,48.7,24.4z"/>
			<path class="st5" d="M58.5,16.6h2.3V30h-2.3V16.6z"/>
			<path class="st5" d="M72.7,25.9h-7.5c0.3,1.4,1.4,2.3,3.1,2.3c1.1,0,1.9-0.3,2.6-1l1.2,1.4c-0.9,1-2.2,1.6-3.9,1.6
				c-3.2,0-5.3-2.1-5.3-4.9c0-2.9,2.1-4.9,5-4.9c2.8,0,4.9,2,4.9,5C72.7,25.4,72.7,25.7,72.7,25.9z M65.1,24.4h5.5
				C70.4,23,69.3,22,67.8,22C66.4,22,65.3,23,65.1,24.4z"/>
			<path class="st5" d="M74.1,25.2c0-2.9,2.2-4.9,5.2-4.9c1.9,0,3.4,0.8,4.1,2.2l-1.7,1c-0.6-0.9-1.4-1.3-2.4-1.3
				c-1.7,0-2.9,1.2-2.9,3c0,1.9,1.3,3,2.9,3c1,0,1.8-0.4,2.4-1.3l1.7,1c-0.7,1.4-2.2,2.3-4.1,2.3C76.2,30.1,74.1,28,74.1,25.2z"/>
			<path class="st5" d="M91.2,29.4C90.7,29.8,89.8,30,89,30c-2.1,0-3.3-1.1-3.3-3.2v-4.6h-1.6v-1.8h1.6v-2.2H88v2.2h2.6v1.8H88v4.6
				c0,0.9,0.5,1.4,1.3,1.4c0.5,0,0.9-0.1,1.3-0.4L91.2,29.4z"/>
			<path class="st5" d="M106.4,27h-6.3l-1.2,3h-2.4l5.7-12.6h2.3l5.7,12.6h-2.4L106.4,27z M105.6,25.2l-2.4-5.5l-2.4,5.5H105.6z"/>
			<path class="st5" d="M120.6,20.3V30h-2.1v-1.2c-0.7,0.9-1.9,1.4-3.1,1.4c-2.5,0-4.1-1.4-4.1-4.2v-5.5h2.3v5.2
				c0,1.7,0.8,2.6,2.3,2.6c1.6,0,2.6-1,2.6-2.9v-4.9h2.1C120.6,20.5,120.6,20.3,120.6,20.3z"/>
			<path class="st5" d="M129.4,29.4c-0.5,0.4-1.4,0.6-2.2,0.6c-2.1,0-3.3-1.1-3.3-3.2v-4.6h-1.6v-1.8h1.6v-2.2h2.3v2.2h2.6v1.8h-2.6
				v4.6c0,0.9,0.5,1.4,1.3,1.4c0.5,0,0.9-0.1,1.3-0.4L129.4,29.4z"/>
			<path class="st5" d="M140.7,24.4V30h-2.3v-5.2c0-1.7-0.8-2.5-2.3-2.5c-1.6,0-2.7,1-2.7,2.9V30h-2.3V16.6h2.3v4.9
				c0.7-0.8,1.9-1.2,3.2-1.2C139,20.2,140.7,21.6,140.7,24.4z"/>
			<path class="st5" d="M142.9,25.2c0-2.9,2.2-4.9,5.1-4.9c3,0,5.1,2,5.1,4.9s-2.1,4.9-5.1,4.9S142.9,28,142.9,25.2z M150.8,25.2
				c0-1.8-1.2-3-2.9-3c-1.6,0-2.8,1.2-2.8,3s1.2,3,2.8,3C149.6,28.2,150.8,27,150.8,25.2z"/>
			<path class="st5" d="M160.8,20.2v2.1c-0.2,0-0.4-0.1-0.5-0.1c-1.7,0-2.8,1-2.8,3V30h-2.3v-9.6h2.1v1.4
				C158,20.7,159.2,20.2,160.8,20.2z"/>
			<path class="st5" d="M162.4,17.4c0-0.8,0.6-1.4,1.4-1.4s1.4,0.6,1.4,1.3c0,0.8-0.6,1.4-1.4,1.4C163,18.8,162.4,18.2,162.4,17.4z
				 M162.7,20.3h2.2V30h-2.2V20.3z"/>
			<path class="st5" d="M175.4,28.2V30h-8.3v-1.4l5.3-6.4h-5.2v-1.8h8v1.4l-5.3,6.4H175.4z"/>
			<path class="st5" d="M185.6,24.3V30h-2.1v-1.2c-0.5,0.8-1.6,1.3-3,1.3c-2.2,0-3.6-1.2-3.6-2.9c0-1.6,1.1-2.9,4-2.9h2.5v-0.1
				c0-1.3-0.8-2.1-2.4-2.1c-1.1,0-2.2,0.4-2.9,1l-0.9-1.6c1-0.8,2.5-1.2,4.1-1.2C183.9,20.2,185.6,21.6,185.6,24.3z M183.3,27v-1.1
				H181c-1.5,0-1.9,0.6-1.9,1.3c0,0.8,0.7,1.3,1.8,1.3C182,28.4,182.9,27.9,183.3,27z"/>
			<path class="st5" d="M194.2,29.4c-0.5,0.4-1.4,0.6-2.2,0.6c-2.1,0-3.3-1.1-3.3-3.2v-4.6h-1.6v-1.8h1.6v-2.2h2.2v2.2h2.6v1.8H191
				v4.6c0,0.9,0.5,1.4,1.3,1.4c0.5,0,0.9-0.1,1.3-0.4L194.2,29.4z"/>
			<path class="st5" d="M195.8,17.4c0-0.8,0.6-1.4,1.4-1.4s1.4,0.6,1.4,1.3c0,0.8-0.6,1.4-1.4,1.4C196.4,18.8,195.8,18.2,195.8,17.4
				z M196.1,20.3h2.3V30h-2.3V20.3z"/>
			<path class="st5" d="M200.5,25.2c0-2.9,2.2-4.9,5.1-4.9c3,0,5.1,2,5.1,4.9s-2.1,4.9-5.1,4.9S200.5,28,200.5,25.2z M208.4,25.2
				c0-1.8-1.2-3-2.9-3c-1.6,0-2.8,1.2-2.8,3s1.2,3,2.8,3C207.2,28.2,208.4,27,208.4,25.2z"/>
			<path class="st5" d="M222.3,24.4V30h-2.2v-5.2c0-1.7-0.8-2.5-2.3-2.5c-1.6,0-2.7,1-2.7,2.9V30h-2.3v-9.6h2.1v1.2
				c0.7-0.9,1.9-1.4,3.3-1.4C220.6,20.2,222.3,21.6,222.3,24.4z"/>
			<path class="st5" d="M240.9,21.8c0,2.8-2.1,4.5-5.4,4.5h-2.8V30h-2.3V17.4h5.2C238.9,17.4,240.9,19,240.9,21.8z M238.6,21.8
				c0-1.6-1.1-2.5-3.1-2.5h-2.7v5h2.7C237.5,24.3,238.6,23.4,238.6,21.8z"/>
			<path class="st5" d="M251,24.3V30h-2.1v-1.2c-0.5,0.8-1.6,1.3-3,1.3c-2.2,0-3.6-1.2-3.6-2.9c0-1.6,1.1-2.9,4-2.9h2.5v-0.1
				c0-1.3-0.8-2.1-2.4-2.1c-1.1,0-2.2,0.4-2.9,1l-0.9-1.6c1-0.8,2.5-1.2,4.1-1.2C249.4,20.2,251,21.6,251,24.3z M248.8,27v-1.1h-2.3
				c-1.5,0-1.9,0.6-1.9,1.3c0,0.8,0.7,1.3,1.8,1.3C247.4,28.4,248.4,27.9,248.8,27z"/>
			<path class="st5" d="M259.7,29.4c-0.5,0.4-1.4,0.6-2.2,0.6c-2.1,0-3.3-1.1-3.3-3.2v-4.6h-1.6v-1.8h1.6v-2.2h2.2v2.2h2.6v1.8h-2.6
				v4.6c0,0.9,0.5,1.4,1.3,1.4c0.5,0,0.9-0.1,1.3-0.4L259.7,29.4z"/>
			<path class="st5" d="M271,24.4V30h-2.2v-5.2c0-1.7-0.8-2.5-2.3-2.5c-1.6,0-2.7,1-2.7,2.9V30h-2.3V16.6h2.3v4.9
				c0.7-0.8,1.9-1.2,3.2-1.2C269.3,20.2,271,21.6,271,24.4z"/>
		</g>
	</g>
</g>
</svg>
