<?xml version="1.0" encoding="UTF-8"?>
<svg id="Layer_1" data-name="Layer 1" xmlns="http://www.w3.org/2000/svg" version="1.1" viewBox="0 0 302 658.4">
  <defs>
    <style>
      .cls-1, .cls-2, .cls-3, .cls-4 {
        fill: #0a90b7;
      }

      .cls-1, .cls-5 {
        stroke-width: 0px;
      }

      .cls-6, .cls-2 {
        letter-spacing: 0em;
      }

      .cls-6, .cls-2, .cls-7, .cls-8, .cls-3, .cls-4 {
        isolation: isolate;
      }

      .cls-6, .cls-2, .cls-7, .cls-3, .cls-4 {
        font-size: 18px;
      }

      .cls-6, .cls-7 {
        font-family: Montserrat-SemiBold, Montserrat;
        font-weight: 600;
      }

      .cls-6, .cls-7, .cls-5 {
        fill: #fff;
      }

      .cls-2, .cls-3, .cls-4 {
        font-family: Montserrat-Bold, Montserrat;
        font-weight: 700;
      }

      .cls-4 {
        letter-spacing: 0em;
      }
    </style>
  </defs>
  <g>
    <path id="Path_11101" data-name="Path 11101" class="cls-5" d="M274.3,636.2H14.2l13.4-30.4-13.4-30.5h260.1l14.7,30.5-14.7,30.4h0Z"/>
    <path id="Path_11341" data-name="Path 11341" class="cls-1" d="M24.5,631.7h-3.4l1.3-3,6.8-20.6,1-2.5-1-2.5-6.8-20.7-1.3-3h28.4v-4.4H14.2l10.6,29.7.4.8-.4.8-10.6,29.6,201.8-.3v6.2l11.7-8.3-11.7-8.3v6l-191.6.3h0Z"/>
    <path id="Path_11342" data-name="Path 11342" class="cls-1" d="M215.9,629.3v-3.8l11.7,8.3-11.7,8.3v-6.2l-201.6.2,10.6-29.6.4-.8-.4-.8-10.6-29.7h35.2v4.4h-28.4l1.3,3,6.8,20.7,1,2.5-1,2.5-6.8,20.6-1.3,3,194.8-.2v-2.2h0Z"/>
    <path id="Path_11343" data-name="Path 11343" class="cls-1" d="M277.2,636.1h-39.3v-4.4h36.4l.6-1.3,8.9-23.9.4-.9-.4-.9-8.9-24-.6-1.3H72.2c0,0,0,6.1,0,6.1l-11.6-8.3,11.6-8.3v6h205c0,0,11.8,30.6,11.8,30.6l-11.8,30.5h0Z"/>
    <g id="Continuous_Monitoring" data-name="Continuous Monitoring">
      <g class="cls-8">
        <text class="cls-4" transform="translate(47.2 613.1)"><tspan x="0" y="0">C</tspan></text>
        <text class="cls-3" transform="translate(60.2 613.1)"><tspan x="0" y="0">ontinuous Moni</tspan></text>
        <text class="cls-4" transform="translate(209.4 613.1)"><tspan x="0" y="0">t</tspan></text>
        <text class="cls-3" transform="translate(217 613.1)"><tspan x="0" y="0">o</tspan></text>
        <text class="cls-3" transform="translate(228.9 613.1)"><tspan x="0" y="0">r</tspan></text>
        <text class="cls-3" transform="translate(236.6 613.1)"><tspan x="0" y="0">i</tspan></text>
        <text class="cls-2" transform="translate(242.1 613.1)"><tspan x="0" y="0">n</tspan></text>
        <text class="cls-3" transform="translate(254.8 613.1)"><tspan x="0" y="0">g</tspan></text>
      </g>
    </g>
  </g>
  <g>
    <path id="Path_11287" data-name="Path 11287" class="cls-1" d="M280.1,241H14l9.9-23.2-9.9-23.3h266.1l9.9,23.3-9.9,23.2Z"/>
    <g id="Preparation">
      <g class="cls-8">
        <text class="cls-7" transform="translate(96.7 223.9)"><tspan x="0" y="0">P</tspan></text>
        <text class="cls-7" transform="translate(109.6 223.9)"><tspan x="0" y="0">r</tspan></text>
        <text class="cls-7" transform="translate(117.1 223.9)"><tspan x="0" y="0">e</tspan></text>
        <text class="cls-7" transform="translate(128.4 223.9)"><tspan x="0" y="0">p</tspan></text>
        <text class="cls-7" transform="translate(140.7 223.9)"><tspan x="0" y="0">a</tspan></text>
        <text class="cls-7" transform="translate(151.7 223.9)"><tspan x="0" y="0">r</tspan></text>
        <text class="cls-7" transform="translate(159.2 223.9)"><tspan x="0" y="0">ation</tspan></text>
      </g>
    </g>
  </g>
  <g>
    <path id="Path_11287-2" data-name="Path 11287-2" class="cls-1" d="M280.1,434.9H14l9.9-23.2-9.9-23.3h266.1l9.9,23.3-9.9,23.2Z"/>
    <g id="Authorization">
      <g class="cls-8">
        <text class="cls-7" transform="translate(85.5 417.8)"><tspan x="0" y="0">A</tspan></text>
        <text class="cls-7" transform="translate(98.9 417.8)"><tspan x="0" y="0">ut</tspan></text>
        <text class="cls-7" transform="translate(119 417.8)"><tspan x="0" y="0">h</tspan></text>
        <text class="cls-7" transform="translate(131.5 417.8)"><tspan x="0" y="0">o</tspan></text>
        <text class="cls-7" transform="translate(143.2 417.8)"><tspan x="0" y="0">r</tspan></text>
        <text class="cls-7" transform="translate(150.8 417.8)"><tspan x="0" y="0">ization</tspan></text>
      </g>
    </g>
  </g>
  <g>
    <path id="Path_11100" data-name="Path 11100" class="cls-1" d="M280.9,47.6H14V0h266.9l9.1,23.8-9.1,23.8Z"/>
    <g id="Select_Authorization_Path" data-name="Select Authorization Path">
      <g class="cls-8">
        <text class="cls-7" transform="translate(34.5 30)"><tspan x="0" y="0">Sele</tspan></text>
        <text class="cls-6" transform="translate(73.7 30)"><tspan x="0" y="0">c</tspan></text>
        <text class="cls-7" transform="translate(84.4 30)"><tspan x="0" y="0">t </tspan></text>
        <text class="cls-7" transform="translate(97.2 30)"><tspan x="0" y="0">A</tspan></text>
        <text class="cls-7" transform="translate(110.6 30)"><tspan x="0" y="0">ut</tspan></text>
        <text class="cls-7" transform="translate(130.6 30)"><tspan x="0" y="0">h</tspan></text>
        <text class="cls-7" transform="translate(143.2 30)"><tspan x="0" y="0">o</tspan></text>
        <text class="cls-7" transform="translate(154.9 30)"><tspan x="0" y="0">r</tspan></text>
        <text class="cls-7" transform="translate(162.4 30)"><tspan x="0" y="0">ization </tspan></text>
        <text class="cls-7" transform="translate(230.6 30)"><tspan x="0" y="0">P</tspan></text>
        <text class="cls-7" transform="translate(243.5 30)"><tspan x="0" y="0">ath</tspan></text>
      </g>
    </g>
  </g>
</svg>