<?xml version="1.0" encoding="utf-8"?>
<!-- Generator: Adobe Illustrator 25.0.1, SVG Export Plug-In . SVG Version: 6.00 Build 0)  -->
<svg version="1.1" id="Layer_1" xmlns="http://www.w3.org/2000/svg" xmlns:xlink="http://www.w3.org/1999/xlink" x="0px" y="0px"
	 viewBox="0 0 662 671" style="enable-background:new 0 0 662 671;" xml:space="preserve">
<style type="text/css">
	.st0{display:none;}
	.st1{display:inline;fill:#F2F2F2;}
	.st2{fill:#0A90B7;}
	.st3{enable-background:new    ;}
	.st4{fill:#FFFFFF;}
	.st5{fill:#C71F25;}
	.st6{fill:none;}
	.st7{fill:#1A4480;}
	.st8{fill:#8B8C8E;}
	.st9{fill:#1294C2;}
</style>
<g id="Layer_2_1_" class="st0">
	<rect x="-865" y="-3" class="st1" width="2787" height="1656"/>
</g>
<g id="Layer_3">
</g>
<g id="Layer_4">
</g>
<g id="Layer_1_1_">
	<g>
		<path id="Path_11098_1_" class="st2" d="M326.8,540.4H2.8l13.4-32.9l-13.4-33h324l14.5,33L326.8,540.4z"/>
		<g>
			<g class="st3">
				<path class="st4" d="M118.7,511.9h-6.3l-1.2,2.9h-2.4l5.7-12.6h2.3l5.7,12.6H120L118.7,511.9z M117.9,510.1l-2.4-5.5l-2.4,5.5
					H117.9z"/>
				<path class="st4" d="M132.9,505.2v9.6h-2.1v-1.2c-0.7,0.9-1.9,1.4-3.1,1.4c-2.5,0-4.1-1.4-4.1-4.2v-5.5h2.3v5.2
					c0,1.7,0.8,2.6,2.3,2.6c1.6,0,2.6-1,2.6-2.9v-4.9L132.9,505.2L132.9,505.2z"/>
				<path class="st4" d="M141.6,514.3c-0.5,0.4-1.4,0.6-2.2,0.6c-2.1,0-3.3-1.1-3.3-3.2v-4.6h-1.6v-1.8h1.6v-2.2h2.3v2.2h2.6v1.8
					h-2.6v4.6c0,0.9,0.5,1.4,1.3,1.4c0.5,0,0.9-0.1,1.3-0.4L141.6,514.3z"/>
				<path class="st4" d="M153,509.3v5.5h-2.3v-5.2c0-1.7-0.8-2.5-2.3-2.5c-1.6,0-2.7,1-2.7,2.9v4.9h-2.3v-13.4h2.3v4.9
					c0.7-0.8,1.9-1.2,3.2-1.2C151.3,505.1,153,506.4,153,509.3z"/>
				<path class="st4" d="M155.1,510c0-2.9,2.2-4.9,5.1-4.9c3,0,5.1,2,5.1,4.9c0,2.9-2.1,4.9-5.1,4.9
					C157.3,515,155.1,512.9,155.1,510z M163.1,510c0-1.8-1.2-3-2.9-3c-1.6,0-2.8,1.2-2.8,3s1.2,3,2.8,3
					C161.9,513,163.1,511.9,163.1,510z"/>
				<path class="st4" d="M173.1,505.1v2.1c-0.2,0-0.4-0.1-0.5-0.1c-1.7,0-2.8,1-2.8,3v4.7h-2.3v-9.6h2.1v1.4
					C170.3,505.6,171.5,505.1,173.1,505.1z"/>
				<path class="st4" d="M174.7,502.3c0-0.8,0.6-1.4,1.4-1.4s1.4,0.6,1.4,1.3c0,0.8-0.6,1.4-1.4,1.4
					C175.3,503.7,174.7,503.1,174.7,502.3z M175,505.2h2.3v9.6H175V505.2z"/>
				<path class="st4" d="M187.7,513v1.8h-8.3v-1.4l5.3-6.4h-5.2v-1.8h8v1.4l-5.3,6.4H187.7z"/>
				<path class="st4" d="M197.8,509.2v5.6h-2.1v-1.2c-0.5,0.8-1.6,1.3-3,1.3c-2.2,0-3.6-1.2-3.6-2.9c0-1.6,1.1-2.9,4-2.9h2.5V509
					c0-1.3-0.8-2.1-2.4-2.1c-1.1,0-2.2,0.4-2.9,1l-0.9-1.6c1-0.8,2.5-1.2,4.1-1.2C196.2,505.1,197.8,506.4,197.8,509.2z
					 M195.6,511.8v-1.1h-2.3c-1.5,0-1.9,0.6-1.9,1.3c0,0.8,0.7,1.3,1.8,1.3C194.2,513.3,195.2,512.8,195.6,511.8z"/>
				<path class="st4" d="M206.5,514.3c-0.5,0.4-1.4,0.6-2.2,0.6c-2.1,0-3.3-1.1-3.3-3.2v-4.6h-1.6v-1.8h1.6v-2.2h2.3v2.2h2.6v1.8
					h-2.6v4.6c0,0.9,0.5,1.4,1.3,1.4c0.5,0,0.9-0.1,1.3-0.4L206.5,514.3z"/>
				<path class="st4" d="M208,502.3c0-0.8,0.6-1.4,1.4-1.4s1.4,0.6,1.4,1.3c0,0.8-0.6,1.4-1.4,1.4C208.6,503.7,208,503.1,208,502.3z
					 M208.3,505.2h2.3v9.6h-2.3V505.2z"/>
				<path class="st4" d="M212.7,510c0-2.9,2.2-4.9,5.1-4.9c3,0,5.1,2,5.1,4.9c0,2.9-2.1,4.9-5.1,4.9
					C214.9,515,212.7,512.9,212.7,510z M220.7,510c0-1.8-1.2-3-2.9-3c-1.6,0-2.8,1.2-2.8,3s1.2,3,2.8,3
					C219.5,513,220.7,511.9,220.7,510z"/>
				<path class="st4" d="M234.6,509.3v5.5h-2.3v-5.2c0-1.7-0.8-2.5-2.3-2.5c-1.6,0-2.7,1-2.7,2.9v4.9H225v-9.6h2.1v1.2
					c0.7-0.9,1.9-1.4,3.3-1.4C232.9,505.1,234.6,506.4,234.6,509.3z"/>
			</g>
		</g>
	</g>
	<g>
		<g>
			<polygon class="st4" points="186.3,566.1 168.8,547.6 151.2,566.1 100.3,566.1 100.3,651.1 237.2,651.1 237.2,566.1 			"/>
			<path class="st5" d="M237.6,651.5H99.9v-85.8H151l17.8-18.7l17.7,18.7h51.1V651.5z M100.7,650.7h136.2v-84.2h-50.7l-17.3-18.3
				l-17.4,18.3h-50.7v84.2H100.7z"/>
		</g>
		<rect x="100.4" y="578.4" class="st6" width="136.7" height="63.5"/>
		<g class="st3">
			<path class="st5" d="M152.8,595.7c0.5,0.1,1,0.1,1.3,0.1c0.6,0,1-0.2,1.3-0.5c0.2-0.3,0.4-0.9,0.4-1.8V581h1.5v12.6
				c0,1.2-0.2,2.1-0.7,2.7c-0.5,0.6-1.2,0.8-2.2,0.8c-0.4,0-0.9,0-1.5-0.1v-1.3H152.8z"/>
			<path class="st5" d="M168.8,590.5h-6.7l-1.4,3.3h-1.5l5.6-12.8h1.3l5.6,12.8h-1.5L168.8,590.5z M168.3,589.3l-2.8-6.6l-2.8,6.6
				H168.3z"/>
			<path class="st5" d="M182.6,588.3c0.4,0.5,0.6,1.2,0.6,2c0,1.1-0.4,2-1.1,2.6c-0.7,0.6-1.8,0.9-3.1,0.9h-5.3V581h5.1
				c1.3,0,2.3,0.3,3.1,0.9c0.7,0.6,1.1,1.4,1.1,2.5c0,0.7-0.2,1.3-0.5,1.8c-0.4,0.5-0.8,0.9-1.5,1.1
				C181.6,587.4,182.2,587.8,182.6,588.3z M175.1,586.7h3.5c1,0,1.7-0.2,2.2-0.6c0.5-0.4,0.7-0.9,0.7-1.7c0-1.5-1-2.2-2.9-2.2h-3.5
				V586.7z M181,592c0.5-0.4,0.7-1,0.7-1.7c0-1.6-1-2.4-2.9-2.4h-3.7v4.7h3.7C179.8,592.6,180.6,592.4,181,592z"/>
		</g>
		<g class="st3">
			<path class="st5" d="M121.2,612.1h-6.7l-1.4,3.3h-1.5l5.6-12.8h1.3l5.6,12.8h-1.5L121.2,612.1z M120.6,610.9l-2.8-6.6l-2.8,6.6
				H120.6z"/>
			<path class="st5" d="M133.4,606.4v9.1H132v-1.6c-0.3,0.6-0.7,1-1.2,1.3s-1.1,0.4-1.7,0.4c-1.1,0-1.9-0.3-2.4-0.9
				c-0.6-0.6-0.8-1.5-0.8-2.7v-5.6h1.5v5.6c0,0.8,0.2,1.4,0.5,1.8c0.3,0.4,0.8,0.6,1.5,0.6c0.8,0,1.5-0.3,1.9-0.8
				c0.5-0.5,0.7-1.2,0.7-2.1v-5.1H133.4z"/>
			<path class="st5" d="M138.1,607.5v5c0,0.7,0.1,1.1,0.4,1.4c0.3,0.3,0.7,0.4,1.2,0.4c0.3,0,0.7-0.1,1-0.2v1.2
				c-0.4,0.1-0.8,0.2-1.3,0.2c-0.9,0-1.5-0.2-2-0.7s-0.7-1.2-0.7-2.2v-5.1h-1.8v-1.2h1.8V604l1.5-0.5v2.8h2.6v1.2H138.1z"/>
			<path class="st5" d="M150.3,609.7v5.7h-1.5v-5.6c0-0.8-0.2-1.5-0.5-1.8s-0.9-0.6-1.6-0.6c-0.8,0-1.5,0.3-2,0.8s-0.8,1.2-0.8,2.1
				v5.2h-1.5v-13.2h1.5v5.7c0.3-0.6,0.7-1,1.2-1.3s1.1-0.4,1.8-0.4C149.2,606.2,150.3,607.3,150.3,609.7z"/>
			<path class="st5" d="M154.5,615c-0.6-0.4-1.1-0.9-1.5-1.6s-0.5-1.5-0.5-2.5c0-0.9,0.2-1.8,0.5-2.5s0.9-1.3,1.5-1.6
				c0.6-0.4,1.4-0.6,2.2-0.6s1.6,0.2,2.2,0.6c0.6,0.4,1.1,0.9,1.5,1.6s0.5,1.5,0.5,2.5c0,0.9-0.2,1.8-0.5,2.5s-0.9,1.3-1.5,1.6
				c-0.6,0.4-1.4,0.6-2.2,0.6S155.2,615.4,154.5,615z M158.8,613.5c0.5-0.6,0.7-1.5,0.7-2.6s-0.2-2-0.7-2.6s-1.2-0.9-2.1-0.9
				c-0.9,0-1.6,0.3-2.1,0.9c-0.5,0.6-0.7,1.5-0.7,2.6s0.2,2,0.7,2.6s1.2,0.9,2.1,0.9S158.3,614,158.8,613.5z"/>
			<path class="st5" d="M168.4,606.3v1.3c-0.3-0.1-0.6-0.1-1-0.1c-0.9,0-1.5,0.3-2,0.8c-0.4,0.5-0.6,1.2-0.6,2v5.2h-1.5V609
				c0-0.9,0-1.8-0.1-2.5h1.4l0.1,1.7c0.2-0.6,0.6-1.1,1.1-1.4c0.5-0.3,1.1-0.5,1.7-0.5C167.8,606.2,168.1,606.2,168.4,606.3z"/>
			<path class="st5" d="M171.5,602.5v1.7h-1.8v-1.7H171.5z M169.8,606.4h1.5v9.1h-1.5V606.4z"/>
			<path class="st5" d="M181.3,614.3v1.2h-7.6v-1l5.7-6.9h-5.5v-1.2h7.3v1.1l-5.7,6.8L181.3,614.3L181.3,614.3z"/>
			<path class="st5" d="M191.2,606.4v9.1h-1.4v-1.6c-0.3,0.6-0.7,1-1.2,1.3s-1.2,0.5-1.9,0.5c-0.8,0-1.5-0.2-2.1-0.6
				c-0.6-0.4-1.1-0.9-1.4-1.6s-0.5-1.5-0.5-2.5c0-0.9,0.2-1.8,0.5-2.5s0.8-1.3,1.4-1.7c0.6-0.4,1.3-0.6,2.1-0.6
				c0.7,0,1.3,0.2,1.9,0.5c0.5,0.3,0.9,0.8,1.2,1.3v-1.6L191.2,606.4L191.2,606.4z M189.1,613.4c0.5-0.6,0.7-1.5,0.7-2.6
				s-0.2-2-0.7-2.6s-1.2-0.9-2.1-0.9c-0.9,0-1.6,0.3-2.1,0.9s-0.7,1.5-0.7,2.6s0.2,2,0.7,2.6s1.2,0.9,2.1,0.9
				C187.9,614.3,188.6,614,189.1,613.4z"/>
			<path class="st5" d="M196,607.5v5c0,0.7,0.1,1.1,0.4,1.4c0.3,0.3,0.7,0.4,1.2,0.4c0.3,0,0.7-0.1,1-0.2v1.2
				c-0.4,0.1-0.8,0.2-1.3,0.2c-0.9,0-1.5-0.2-2-0.7s-0.7-1.2-0.7-2.2v-5.1h-1.8v-1.2h1.8V604l1.5-0.5v2.8h2.6v1.2H196z"/>
			<path class="st5" d="M202,602.5v1.7h-1.8v-1.7H202z M200.3,606.4h1.5v9.1h-1.5V606.4z"/>
			<path class="st5" d="M206.1,615c-0.6-0.4-1.1-0.9-1.5-1.6s-0.5-1.5-0.5-2.5c0-0.9,0.2-1.8,0.5-2.5s0.9-1.3,1.5-1.6
				c0.6-0.4,1.4-0.6,2.2-0.6s1.6,0.2,2.2,0.6c0.6,0.4,1.1,0.9,1.5,1.6s0.5,1.5,0.5,2.5c0,0.9-0.2,1.8-0.5,2.5s-0.9,1.3-1.5,1.6
				c-0.6,0.4-1.4,0.6-2.2,0.6S206.8,615.4,206.1,615z M210.4,613.5c0.5-0.6,0.7-1.5,0.7-2.6s-0.2-2-0.7-2.6s-1.2-0.9-2.1-0.9
				c-0.9,0-1.6,0.3-2.1,0.9c-0.5,0.6-0.7,1.5-0.7,2.6s0.2,2,0.7,2.6s1.2,0.9,2.1,0.9S210,614,210.4,613.5z"/>
			<path class="st5" d="M222.7,609.7v5.7h-1.5v-5.6c0-0.8-0.2-1.5-0.5-1.8s-0.9-0.6-1.6-0.6c-0.8,0-1.5,0.3-2,0.8s-0.8,1.2-0.8,2.1
				v5.2h-1.5V609c0-0.9,0-1.8-0.1-2.5h1.4l0.1,1.6c0.3-0.6,0.7-1,1.2-1.4c0.6-0.3,1.2-0.5,1.9-0.5
				C221.6,606.2,222.7,607.3,222.7,609.7z"/>
		</g>
		<g class="st3">
			<path class="st5" d="M137.3,624.2h5.1c1.3,0,2.3,0.3,3.1,1c0.7,0.6,1.1,1.5,1.1,2.6s-0.4,2-1.1,2.6c-0.7,0.6-1.8,1-3.1,1h-3.6
				v5.6h-1.5V624.2z M142.3,630.2c0.9,0,1.7-0.2,2.1-0.6s0.7-1,0.7-1.8s-0.2-1.4-0.7-1.8c-0.5-0.4-1.2-0.6-2.1-0.6h-3.5v4.7
				L142.3,630.2L142.3,630.2z"/>
			<path class="st5" d="M153.7,627.9v1.3c-0.3-0.1-0.6-0.1-1-0.1c-0.9,0-1.5,0.3-2,0.8c-0.4,0.5-0.6,1.2-0.6,2v5.2h-1.5v-6.5
				c0-0.9,0-1.8-0.1-2.5h1.4l0.1,1.7c0.2-0.6,0.6-1.1,1.1-1.4c0.5-0.3,1.1-0.5,1.7-0.5C153.1,627.8,153.4,627.8,153.7,627.9z"/>
			<path class="st5" d="M156.5,636.6c-0.6-0.4-1.1-0.9-1.5-1.6s-0.5-1.5-0.5-2.5c0-0.9,0.2-1.8,0.5-2.5s0.9-1.3,1.5-1.6
				c0.6-0.4,1.4-0.6,2.2-0.6s1.6,0.2,2.2,0.6c0.6,0.4,1.1,0.9,1.5,1.6s0.5,1.5,0.5,2.5c0,0.9-0.2,1.8-0.5,2.5s-0.9,1.3-1.5,1.6
				c-0.6,0.4-1.4,0.6-2.2,0.6S157.1,637,156.5,636.6z M160.8,635.1c0.5-0.6,0.7-1.5,0.7-2.6s-0.2-2-0.7-2.6s-1.2-0.9-2.1-0.9
				c-0.9,0-1.6,0.3-2.1,0.9c-0.5,0.6-0.7,1.5-0.7,2.6s0.2,2,0.7,2.6s1.2,0.9,2.1,0.9S160.3,635.6,160.8,635.1z"/>
			<path class="st5" d="M166.8,636.6c-0.7-0.4-1.2-0.9-1.5-1.6s-0.5-1.5-0.5-2.5c0-0.9,0.2-1.8,0.5-2.5c0.4-0.7,0.9-1.3,1.5-1.7
				c0.7-0.4,1.4-0.6,2.3-0.6c0.6,0,1.2,0.1,1.8,0.3s1,0.5,1.4,0.9l-0.5,1.1c-0.5-0.4-0.9-0.6-1.3-0.8s-0.9-0.3-1.3-0.3
				c-0.9,0-1.7,0.3-2.2,0.9c-0.5,0.6-0.8,1.5-0.8,2.6s0.3,1.9,0.8,2.5s1.3,0.9,2.2,0.9c0.4,0,0.9-0.1,1.3-0.3s0.9-0.4,1.3-0.8
				l0.5,1.1c-0.4,0.4-0.9,0.6-1.4,0.9c-0.6,0.2-1.2,0.3-1.8,0.3C168.2,637.1,167.4,637,166.8,636.6z"/>
			<path class="st5" d="M181.7,632.5h-6.6c0,1.2,0.3,2,0.8,2.6s1.3,0.9,2.3,0.9c1.1,0,2-0.4,2.9-1.1l0.5,1.1
				c-0.4,0.4-0.9,0.7-1.5,0.9s-1.3,0.3-1.9,0.3c-1.4,0-2.5-0.4-3.3-1.3c-0.8-0.8-1.2-2-1.2-3.4c0-0.9,0.2-1.7,0.5-2.5
				c0.4-0.7,0.9-1.3,1.5-1.7s1.4-0.6,2.2-0.6c1.2,0,2.1,0.4,2.8,1.2s1,1.9,1,3.2V632.5z M176.1,629.6c-0.5,0.5-0.8,1.1-0.9,1.9h5.3
				c-0.1-0.9-0.3-1.5-0.7-1.9s-1-0.7-1.8-0.7S176.5,629.1,176.1,629.6z"/>
			<path class="st5" d="M183.4,636l0.5-1.1c0.5,0.4,1,0.7,1.5,0.8c0.5,0.2,1.1,0.3,1.7,0.3c0.7,0,1.2-0.1,1.6-0.4
				c0.4-0.2,0.5-0.6,0.5-1s-0.1-0.6-0.4-0.9c-0.2-0.2-0.6-0.4-1.2-0.5l-1.5-0.4c-0.8-0.2-1.3-0.5-1.8-0.9s-0.6-0.9-0.6-1.5
				c0-0.8,0.3-1.4,1-1.9c0.6-0.5,1.5-0.7,2.5-0.7c0.6,0,1.2,0.1,1.8,0.3s1,0.5,1.4,0.9l-0.5,1.1c-0.9-0.7-1.8-1.1-2.7-1.1
				c-0.6,0-1.1,0.1-1.5,0.4s-0.5,0.6-0.5,1s0.1,0.7,0.3,0.9s0.6,0.4,1.1,0.5l1.5,0.4c0.8,0.2,1.5,0.5,1.9,0.9s0.6,0.9,0.6,1.6
				c0,0.8-0.3,1.4-1,1.9c-0.6,0.5-1.5,0.7-2.6,0.7C185.5,637.1,184.3,636.8,183.4,636z"/>
			<path class="st5" d="M192.3,636l0.5-1.1c0.5,0.4,1,0.7,1.5,0.8c0.5,0.2,1.1,0.3,1.7,0.3c0.7,0,1.2-0.1,1.6-0.4
				c0.4-0.2,0.5-0.6,0.5-1s-0.1-0.6-0.4-0.9c-0.2-0.2-0.6-0.4-1.2-0.5l-1.5-0.4c-0.8-0.2-1.3-0.5-1.8-0.9s-0.6-0.9-0.6-1.5
				c0-0.8,0.3-1.4,1-1.9c0.6-0.5,1.5-0.7,2.5-0.7c0.6,0,1.2,0.1,1.8,0.3s1,0.5,1.4,0.9l-0.5,1.1c-0.9-0.7-1.8-1.1-2.7-1.1
				c-0.6,0-1.1,0.1-1.5,0.4s-0.5,0.6-0.5,1s0.1,0.7,0.3,0.9s0.6,0.4,1.1,0.5l1.5,0.4c0.8,0.2,1.5,0.5,1.9,0.9s0.6,0.9,0.6,1.6
				c0,0.8-0.3,1.4-1,1.9c-0.6,0.5-1.5,0.7-2.6,0.7C194.4,637.1,193.2,636.8,192.3,636z"/>
		</g>
	</g>
	<g>
		<g>
			<polygon class="st4" points="315.6,366 178.8,366 178.8,450 230.5,450 247.2,467.5 263.8,450 315.6,450 			"/>
			<path class="st7" d="M247.2,468l-16.9-17.7h-51.9v-84.8H316v84.8h-52L247.2,468z M179.2,449.6h51.5l16.5,17.3l16.4-17.3h51.6
				v-83.2h-136V449.6z"/>
		</g>
		<rect x="179.8" y="375.4" class="st6" width="136.7" height="63.5"/>
		<g class="st3">
			<path class="st7" d="M226.3,387.5h-6.7l-1.4,3.3h-1.5l5.6-12.8h1.3l5.6,12.8h-1.5L226.3,387.5z M225.7,386.2l-2.8-6.6l-2.8,6.6
				H225.7z"/>
			<path class="st7" d="M239,381.7v9c0,1.3-0.3,2.4-1,3.1s-1.7,1-3.1,1c-1.4,0-2.6-0.3-3.6-0.9l0.3-1.2c0.6,0.3,1.1,0.6,1.6,0.7
				s1.1,0.2,1.7,0.2c0.9,0,1.5-0.2,2-0.7s0.7-1.1,0.7-2.1v-2.1c-0.3,0.6-0.7,1-1.2,1.3s-1.2,0.5-1.9,0.5c-0.8,0-1.5-0.2-2.1-0.6
				s-1.1-0.9-1.4-1.6c-0.3-0.7-0.5-1.5-0.5-2.4s0.2-1.7,0.5-2.4c0.3-0.7,0.8-1.2,1.4-1.6s1.3-0.6,2.1-0.6c0.7,0,1.3,0.2,1.9,0.5
				c0.5,0.3,0.9,0.8,1.2,1.3v-1.6h1.4V381.7z M236.8,388.4c0.5-0.6,0.7-1.4,0.7-2.4s-0.2-1.8-0.7-2.4s-1.2-0.9-2.1-0.9
				c-0.9,0-1.6,0.3-2.1,0.9s-0.8,1.4-0.8,2.4s0.3,1.8,0.8,2.4s1.2,0.9,2.1,0.9S236.3,389,236.8,388.4z"/>
			<path class="st7" d="M249.4,386.2h-6.6c0,1.2,0.3,2,0.8,2.6s1.3,0.9,2.3,0.9c1.1,0,2-0.4,2.9-1.1l0.5,1.1
				c-0.4,0.4-0.9,0.7-1.5,0.9s-1.3,0.3-1.9,0.3c-1.4,0-2.5-0.4-3.3-1.3c-0.8-0.8-1.2-2-1.2-3.4c0-0.9,0.2-1.7,0.5-2.5
				c0.4-0.7,0.9-1.3,1.5-1.7c0.6-0.4,1.4-0.6,2.2-0.6c1.2,0,2.1,0.4,2.8,1.2s1,1.9,1,3.2V386.2z M243.7,383.3
				c-0.5,0.5-0.8,1.1-0.9,1.9h5.3c-0.1-0.9-0.3-1.5-0.7-1.9s-1-0.7-1.8-0.7S244.1,382.9,243.7,383.3z"/>
			<path class="st7" d="M259.3,385.1v5.7h-1.5v-5.6c0-0.8-0.2-1.5-0.5-1.8s-0.9-0.6-1.6-0.6c-0.8,0-1.5,0.3-2,0.8s-0.8,1.2-0.8,2.1
				v5.2h-1.5v-6.5c0-0.9,0-1.8-0.1-2.5h1.4l0.1,1.6c0.3-0.6,0.7-1,1.2-1.4c0.6-0.3,1.2-0.5,1.9-0.5
				C258.3,381.5,259.3,382.7,259.3,385.1z"/>
			<path class="st7" d="M263.6,390.3c-0.7-0.4-1.2-0.9-1.5-1.6s-0.5-1.5-0.5-2.5c0-0.9,0.2-1.8,0.5-2.5c0.4-0.7,0.9-1.3,1.5-1.7
				c0.7-0.4,1.4-0.6,2.3-0.6c0.6,0,1.2,0.1,1.8,0.3s1,0.5,1.4,0.9l-0.5,1.1c-0.5-0.4-0.9-0.6-1.3-0.8s-0.9-0.3-1.3-0.3
				c-0.9,0-1.7,0.3-2.2,0.9s-0.8,1.5-0.8,2.6s0.3,1.9,0.8,2.5s1.3,0.9,2.2,0.9c0.4,0,0.9-0.1,1.3-0.3s0.9-0.4,1.3-0.8l0.5,1.1
				c-0.4,0.4-0.9,0.6-1.4,0.9c-0.6,0.2-1.2,0.3-1.8,0.3C265,390.9,264.3,390.7,263.6,390.3z"/>
			<path class="st7" d="M279,381.7l-4.2,9.9c-0.4,1-1,1.8-1.7,2.3s-1.5,0.8-2.5,1l-0.3-1.1c0.9-0.2,1.5-0.4,1.9-0.8
				c0.4-0.3,0.8-0.8,1.1-1.5l0.4-0.8l-3.8-9h1.5l3.1,7.5l3.1-7.5H279z"/>
		</g>
		<g class="st3">
			<path class="st7" d="M200.6,409.1h-6.7l-1.4,3.3H191l5.6-12.8h1.3l5.6,12.8H202L200.6,409.1z M200,407.8l-2.8-6.6l-2.8,6.6H200z"
				/>
			<path class="st7" d="M212.8,403.3v9.1h-1.4v-1.6c-0.3,0.6-0.7,1-1.2,1.3s-1.1,0.4-1.7,0.4c-1.1,0-1.9-0.3-2.4-0.9
				c-0.6-0.6-0.8-1.5-0.8-2.7v-5.6h1.5v5.6c0,0.8,0.2,1.4,0.5,1.8s0.8,0.6,1.5,0.6c0.8,0,1.5-0.3,1.9-0.8c0.5-0.5,0.7-1.2,0.7-2.1
				v-5.1L212.8,403.3L212.8,403.3z"/>
			<path class="st7" d="M217.5,404.5v5c0,0.7,0.1,1.1,0.4,1.4c0.3,0.3,0.7,0.4,1.2,0.4c0.3,0,0.7-0.1,1-0.2v1.2
				c-0.4,0.1-0.8,0.2-1.3,0.2c-0.9,0-1.5-0.2-2-0.7s-0.7-1.2-0.7-2.2v-5.1h-1.8v-1.2h1.8V401l1.5-0.5v2.8h2.6v1.2H217.5z"/>
			<path class="st7" d="M229.7,406.7v5.7h-1.5v-5.6c0-0.8-0.2-1.5-0.5-1.8s-0.9-0.6-1.6-0.6c-0.8,0-1.5,0.3-2,0.8s-0.8,1.2-0.8,2.1
				v5.2h-1.5v-13.2h1.5v5.7c0.3-0.6,0.7-1,1.2-1.3s1.1-0.4,1.8-0.4C228.6,403.1,229.7,404.3,229.7,406.7z"/>
			<path class="st7" d="M233.9,411.9c-0.6-0.4-1.1-0.9-1.5-1.6s-0.5-1.5-0.5-2.5c0-0.9,0.2-1.8,0.5-2.5s0.9-1.3,1.5-1.6
				c0.6-0.4,1.4-0.6,2.2-0.6s1.6,0.2,2.2,0.6c0.6,0.4,1.1,0.9,1.5,1.6s0.5,1.5,0.5,2.5c0,0.9-0.2,1.8-0.5,2.5s-0.9,1.3-1.5,1.6
				c-0.6,0.4-1.4,0.6-2.2,0.6S234.6,412.3,233.9,411.9z M238.2,410.4c0.5-0.6,0.7-1.5,0.7-2.6s-0.2-2-0.7-2.6s-1.2-0.9-2.1-0.9
				c-0.9,0-1.6,0.3-2.1,0.9s-0.7,1.5-0.7,2.6s0.2,2,0.7,2.6s1.2,0.9,2.1,0.9S237.8,411,238.2,410.4z"/>
			<path class="st7" d="M247.8,403.2v1.3c-0.3-0.1-0.6-0.1-1-0.1c-0.9,0-1.5,0.3-2,0.8c-0.4,0.5-0.6,1.2-0.6,2v5.2h-1.5v-6.5
				c0-0.9,0-1.8-0.1-2.5h1.4l0.1,1.7c0.2-0.6,0.6-1.1,1.1-1.4s1.1-0.5,1.7-0.5C247.2,403.1,247.5,403.1,247.8,403.2z"/>
			<path class="st7" d="M250.9,399.5v1.7h-1.8v-1.7H250.9z M249.2,403.3h1.5v9.1h-1.5V403.3z"/>
			<path class="st7" d="M260.7,411.2v1.2H253v-1l5.7-6.9h-5.5v-1.2h7.3v1.1l-5.7,6.8H260.7z"/>
			<path class="st7" d="M270.6,403.3v9.1h-1.4v-1.6c-0.3,0.6-0.7,1-1.2,1.3s-1.2,0.5-1.9,0.5c-0.8,0-1.5-0.2-2.1-0.6
				s-1.1-0.9-1.4-1.6s-0.5-1.5-0.5-2.5c0-0.9,0.2-1.8,0.5-2.5s0.8-1.3,1.4-1.7c0.6-0.4,1.3-0.6,2.1-0.6c0.7,0,1.3,0.2,1.9,0.5
				c0.5,0.3,0.9,0.8,1.2,1.3v-1.6L270.6,403.3L270.6,403.3z M268.5,410.4c0.5-0.6,0.7-1.5,0.7-2.6s-0.2-2-0.7-2.6s-1.2-0.9-2.1-0.9
				s-1.6,0.3-2.1,0.9s-0.7,1.5-0.7,2.6s0.2,2,0.7,2.6s1.2,0.9,2.1,0.9S268,411,268.5,410.4z"/>
			<path class="st7" d="M275.4,404.5v5c0,0.7,0.1,1.1,0.4,1.4s0.7,0.4,1.2,0.4c0.3,0,0.7-0.1,1-0.2v1.2c-0.4,0.1-0.8,0.2-1.3,0.2
				c-0.9,0-1.5-0.2-2-0.7s-0.7-1.2-0.7-2.2v-5.1h-1.8v-1.2h1.8V401l1.5-0.5v2.8h2.6v1.2H275.4z"/>
			<path class="st7" d="M281.4,399.5v1.7h-1.8v-1.7H281.4z M279.7,403.3h1.5v9.1h-1.5V403.3z"/>
			<path class="st7" d="M285.5,411.9c-0.6-0.4-1.1-0.9-1.5-1.6s-0.5-1.5-0.5-2.5c0-0.9,0.2-1.8,0.5-2.5s0.9-1.3,1.5-1.6
				c0.6-0.4,1.4-0.6,2.2-0.6s1.6,0.2,2.2,0.6s1.1,0.9,1.5,1.6s0.5,1.5,0.5,2.5c0,0.9-0.2,1.8-0.5,2.5s-0.9,1.3-1.5,1.6
				c-0.6,0.4-1.4,0.6-2.2,0.6S286.2,412.3,285.5,411.9z M289.8,410.4c0.5-0.6,0.7-1.5,0.7-2.6s-0.2-2-0.7-2.6s-1.2-0.9-2.1-0.9
				s-1.6,0.3-2.1,0.9s-0.7,1.5-0.7,2.6s0.2,2,0.7,2.6s1.2,0.9,2.1,0.9S289.4,411,289.8,410.4z"/>
			<path class="st7" d="M302.1,406.7v5.7h-1.5v-5.6c0-0.8-0.2-1.5-0.5-1.8s-0.9-0.6-1.6-0.6c-0.8,0-1.5,0.3-2,0.8s-0.8,1.2-0.8,2.1
				v5.2h-1.5V406c0-0.9,0-1.8-0.1-2.5h1.4l0.1,1.6c0.3-0.6,0.7-1,1.2-1.4c0.6-0.3,1.2-0.5,1.9-0.5
				C301,403.1,302.1,404.3,302.1,406.7z"/>
		</g>
		<g class="st3">
			<path class="st7" d="M216.7,421.1h5.1c1.3,0,2.3,0.3,3.1,1c0.7,0.6,1.1,1.5,1.1,2.6s-0.4,2-1.1,2.6c-0.7,0.6-1.8,1-3.1,1h-3.6
				v5.6h-1.5V421.1z M221.7,427.1c0.9,0,1.7-0.2,2.1-0.6s0.7-1,0.7-1.8s-0.2-1.4-0.7-1.8s-1.2-0.6-2.1-0.6h-3.5v4.7L221.7,427.1
				L221.7,427.1z"/>
			<path class="st7" d="M233.1,424.8v1.3c-0.3-0.1-0.6-0.1-1-0.1c-0.9,0-1.5,0.3-2,0.8c-0.4,0.5-0.6,1.2-0.6,2v5.2H228v-6.5
				c0-0.9,0-1.8-0.1-2.5h1.4l0.1,1.7c0.2-0.6,0.6-1.1,1.1-1.4s1.1-0.5,1.7-0.5C232.5,424.7,232.8,424.7,233.1,424.8z"/>
			<path class="st7" d="M235.9,433.5c-0.6-0.4-1.1-0.9-1.5-1.6s-0.5-1.5-0.5-2.5c0-0.9,0.2-1.8,0.5-2.5s0.9-1.3,1.5-1.6
				c0.6-0.4,1.4-0.6,2.2-0.6s1.6,0.2,2.2,0.6c0.6,0.4,1.1,0.9,1.5,1.6s0.5,1.5,0.5,2.5c0,0.9-0.2,1.8-0.5,2.5s-0.9,1.3-1.5,1.6
				c-0.6,0.4-1.4,0.6-2.2,0.6S236.5,433.9,235.9,433.5z M240.2,432c0.5-0.6,0.7-1.5,0.7-2.6s-0.2-2-0.7-2.6s-1.2-0.9-2.1-0.9
				c-0.9,0-1.6,0.3-2.1,0.9s-0.7,1.5-0.7,2.6s0.2,2,0.7,2.6s1.2,0.9,2.1,0.9S239.7,432.6,240.2,432z"/>
			<path class="st7" d="M246.2,433.5c-0.7-0.4-1.2-0.9-1.5-1.6s-0.5-1.5-0.5-2.5c0-0.9,0.2-1.8,0.5-2.5c0.4-0.7,0.9-1.3,1.5-1.7
				c0.7-0.4,1.4-0.6,2.3-0.6c0.6,0,1.2,0.1,1.8,0.3s1,0.5,1.4,0.9l-0.5,1.1c-0.5-0.4-0.9-0.6-1.3-0.8s-0.9-0.3-1.3-0.3
				c-0.9,0-1.7,0.3-2.2,0.9s-0.8,1.5-0.8,2.6s0.3,1.9,0.8,2.5s1.3,0.9,2.2,0.9c0.4,0,0.9-0.1,1.3-0.3s0.9-0.4,1.3-0.8l0.5,1.1
				c-0.4,0.4-0.9,0.6-1.4,0.9c-0.6,0.2-1.2,0.3-1.8,0.3C247.6,434.1,246.8,433.9,246.2,433.5z"/>
			<path class="st7" d="M261.1,429.4h-6.6c0,1.2,0.3,2,0.8,2.6s1.3,0.9,2.3,0.9c1.1,0,2-0.4,2.9-1.1l0.5,1.1
				c-0.4,0.4-0.9,0.7-1.5,0.9s-1.3,0.3-1.9,0.3c-1.4,0-2.5-0.4-3.3-1.3c-0.8-0.8-1.2-2-1.2-3.4c0-0.9,0.2-1.7,0.5-2.5
				c0.4-0.7,0.9-1.3,1.5-1.7c0.6-0.4,1.4-0.6,2.2-0.6c1.2,0,2.1,0.4,2.8,1.2s1,1.9,1,3.2V429.4z M255.5,426.5
				c-0.5,0.5-0.8,1.1-0.9,1.9h5.3c-0.1-0.9-0.3-1.5-0.7-1.9c-0.4-0.4-1-0.7-1.8-0.7S255.9,426.1,255.5,426.5z"/>
			<path class="st7" d="M262.8,432.9l0.5-1.1c0.5,0.4,1,0.7,1.5,0.8c0.5,0.2,1.1,0.3,1.7,0.3c0.7,0,1.2-0.1,1.6-0.4
				c0.4-0.2,0.5-0.6,0.5-1s-0.1-0.6-0.4-0.9c-0.2-0.2-0.6-0.4-1.2-0.5l-1.5-0.4c-0.8-0.2-1.3-0.5-1.8-0.9s-0.6-0.9-0.6-1.5
				c0-0.8,0.3-1.4,1-1.9c0.6-0.5,1.5-0.7,2.5-0.7c0.6,0,1.2,0.1,1.8,0.3s1,0.5,1.4,0.9l-0.5,1.1c-0.9-0.7-1.8-1.1-2.7-1.1
				c-0.6,0-1.1,0.1-1.5,0.4s-0.5,0.6-0.5,1s0.1,0.7,0.3,0.9s0.6,0.4,1.1,0.5l1.5,0.4c0.8,0.2,1.5,0.5,1.9,0.9s0.6,0.9,0.6,1.6
				c0,0.8-0.3,1.4-1,1.9c-0.6,0.5-1.5,0.7-2.6,0.7C264.9,434.1,263.7,433.7,262.8,432.9z"/>
			<path class="st7" d="M271.7,432.9l0.5-1.1c0.5,0.4,1,0.7,1.5,0.8c0.5,0.2,1.1,0.3,1.7,0.3c0.7,0,1.2-0.1,1.6-0.4
				c0.4-0.2,0.5-0.6,0.5-1s-0.1-0.6-0.4-0.9c-0.2-0.2-0.6-0.4-1.2-0.5l-1.5-0.4c-0.8-0.2-1.3-0.5-1.8-0.9s-0.6-0.9-0.6-1.5
				c0-0.8,0.3-1.4,1-1.9c0.6-0.5,1.5-0.7,2.5-0.7c0.6,0,1.2,0.1,1.8,0.3s1,0.5,1.4,0.9l-0.5,1.1c-0.9-0.7-1.8-1.1-2.7-1.1
				c-0.6,0-1.1,0.1-1.5,0.4s-0.5,0.6-0.5,1s0.1,0.7,0.3,0.9s0.6,0.4,1.1,0.5l1.5,0.4c0.8,0.2,1.5,0.5,1.9,0.9s0.6,0.9,0.6,1.6
				c0,0.8-0.3,1.4-1,1.9c-0.6,0.5-1.5,0.7-2.6,0.7C273.8,434.1,272.6,433.7,271.7,432.9z"/>
		</g>
	</g>
	<g>
		<g>
			<polygon class="st4" points="158.8,366 21.9,366 21.9,450 73.7,450 90.3,467.5 107,450 158.8,450 			"/>
			<path class="st7" d="M90.3,468l-16.8-17.7h-52v-84.8h137.6v84.8h-52L90.3,468z M22.3,449.6h51.6L90.3,467l16.5-17.3h51.6v-83.2
				H22.3V449.6z"/>
		</g>
		<rect x="22" y="385.9" class="st6" width="136.7" height="41.9"/>
		<g class="st3">
			<path class="st7" d="M40.5,388.5h7.9v1.2h-6.5v4.4H48v1.2h-6.1v5.9h-1.5L40.5,388.5L40.5,388.5z"/>
			<path class="st7" d="M57.8,392.3v9.1h-1.4v-1.6c-0.3,0.6-0.7,1-1.2,1.3s-1.1,0.4-1.7,0.4c-1.1,0-1.9-0.3-2.4-0.9
				c-0.6-0.6-0.8-1.5-0.8-2.7v-5.6h1.5v5.6c0,0.8,0.2,1.4,0.5,1.8s0.8,0.6,1.5,0.6c0.8,0,1.5-0.3,1.9-0.8c0.5-0.5,0.7-1.2,0.7-2.1
				v-5.1L57.8,392.3L57.8,392.3z"/>
			<path class="st7" d="M60.6,388.1h1.5v13.2h-1.5V388.1z"/>
			<path class="st7" d="M64.9,388.1h1.5v13.2h-1.5V388.1z"/>
			<path class="st7" d="M73.4,399.9l0.6-1.1c0.6,0.5,1.3,0.9,1.9,1.2c0.7,0.2,1.4,0.3,2.3,0.3c1,0,1.8-0.2,2.4-0.6s0.8-1,0.8-1.7
				c0-0.4-0.1-0.8-0.4-1.1c-0.3-0.3-0.6-0.5-1.1-0.6c-0.4-0.2-1-0.3-1.8-0.5c-1-0.2-1.8-0.5-2.4-0.7c-0.6-0.3-1.2-0.6-1.5-1.1
				c-0.4-0.5-0.6-1.1-0.6-1.9c0-0.7,0.2-1.4,0.6-1.9c0.4-0.6,0.9-1,1.6-1.3s1.5-0.5,2.5-0.5c0.9,0,1.7,0.1,2.5,0.4s1.4,0.7,1.9,1.2
				l-0.6,1.1c-0.6-0.5-1.2-0.9-1.8-1.1c-0.6-0.2-1.3-0.4-2-0.4c-1,0-1.8,0.2-2.3,0.6s-0.8,1-0.8,1.8c0,0.6,0.2,1.1,0.7,1.5
				c0.5,0.3,1.2,0.6,2.3,0.8c1.1,0.3,2,0.5,2.6,0.7s1.2,0.6,1.6,1s0.6,1,0.6,1.8c0,0.7-0.2,1.4-0.6,1.9s-0.9,1-1.6,1.3
				s-1.6,0.4-2.5,0.4C76.1,401.5,74.6,401,73.4,399.9z"/>
			<path class="st7" d="M92.7,396.8h-6.6c0,1.2,0.3,2,0.8,2.6s1.3,0.9,2.3,0.9c1.1,0,2-0.4,2.9-1.1l0.5,1.1
				c-0.4,0.4-0.9,0.7-1.5,0.9s-1.3,0.3-1.9,0.3c-1.4,0-2.5-0.4-3.3-1.3c-0.8-0.8-1.2-2-1.2-3.4c0-0.9,0.2-1.7,0.5-2.5
				c0.4-0.7,0.9-1.3,1.5-1.7c0.6-0.4,1.4-0.6,2.2-0.6c1.2,0,2.1,0.4,2.8,1.2s1,1.9,1,3.2C92.7,396.4,92.7,396.8,92.7,396.8z
				 M87,393.9c-0.5,0.5-0.8,1.1-0.9,1.9h5.3c-0.1-0.9-0.3-1.5-0.7-1.9c-0.4-0.4-1-0.7-1.8-0.7S87.5,393.4,87,393.9z"/>
			<path class="st7" d="M96.4,400.9c-0.7-0.4-1.2-0.9-1.5-1.6s-0.5-1.5-0.5-2.5c0-0.9,0.2-1.8,0.5-2.5c0.4-0.7,0.9-1.3,1.5-1.7
				c0.7-0.4,1.4-0.6,2.3-0.6c0.6,0,1.2,0.1,1.8,0.3s1,0.5,1.4,0.9l-0.5,1.1c-0.5-0.4-0.9-0.6-1.3-0.8s-0.9-0.3-1.3-0.3
				c-0.9,0-1.7,0.3-2.2,0.9s-0.8,1.5-0.8,2.6s0.3,1.9,0.8,2.5s1.3,0.9,2.2,0.9c0.4,0,0.9-0.1,1.3-0.3s0.9-0.4,1.3-0.8l0.5,1.1
				c-0.4,0.4-0.9,0.6-1.4,0.9c-0.6,0.2-1.2,0.3-1.8,0.3C97.8,401.5,97.1,401.3,96.4,400.9z"/>
			<path class="st7" d="M111.4,392.3v9.1H110v-1.6c-0.3,0.6-0.7,1-1.2,1.3s-1.1,0.4-1.7,0.4c-1.1,0-1.9-0.3-2.4-0.9
				c-0.6-0.6-0.8-1.5-0.8-2.7v-5.6h1.5v5.6c0,0.8,0.2,1.4,0.5,1.8s0.8,0.6,1.5,0.6c0.8,0,1.5-0.3,1.9-0.8c0.5-0.5,0.7-1.2,0.7-2.1
				v-5.1L111.4,392.3L111.4,392.3z"/>
			<path class="st7" d="M119.2,392.2v1.3c-0.3-0.1-0.6-0.1-1-0.1c-0.9,0-1.5,0.3-2,0.8c-0.4,0.5-0.6,1.2-0.6,2v5.2h-1.5v-6.5
				c0-0.9,0-1.8-0.1-2.5h1.4l0.1,1.7c0.2-0.6,0.6-1.1,1.1-1.4s1.1-0.5,1.7-0.5C118.7,392.1,119,392.1,119.2,392.2z"/>
			<path class="st7" d="M122.4,388.5v1.7h-1.8v-1.7H122.4z M120.7,392.3h1.5v9.1h-1.5V392.3z"/>
			<path class="st7" d="M127,393.4v5c0,0.7,0.1,1.1,0.4,1.4s0.7,0.4,1.2,0.4c0.3,0,0.7-0.1,1-0.2v1.2c-0.4,0.1-0.8,0.2-1.3,0.2
				c-0.9,0-1.5-0.2-2-0.7s-0.7-1.2-0.7-2.2v-5.1h-1.8v-1.2h1.8V390l1.5-0.5v2.8h2.6v1.2H127V393.4z"/>
			<path class="st7" d="M139.4,392.3l-4.2,9.9c-0.4,1-1,1.8-1.7,2.3s-1.5,0.8-2.5,1l-0.3-1.1c0.9-0.2,1.5-0.4,1.9-0.8
				c0.4-0.3,0.8-0.8,1.1-1.5l0.4-0.8l-3.8-9h1.5l3.1,7.5l3.1-7.5H139.4z"/>
		</g>
		<g class="st3">
			<path class="st7" d="M49,419.7h-6.7l-1.4,3.3h-1.5l5.6-12.8h1.3l5.6,12.8h-1.5L49,419.7z M48.4,418.4l-2.8-6.6l-2.8,6.6H48.4z"/>
			<path class="st7" d="M52.9,421.9l0.5-1.1c0.5,0.4,1,0.7,1.5,0.8c0.5,0.2,1.1,0.3,1.7,0.3c0.7,0,1.2-0.1,1.6-0.4
				c0.4-0.2,0.5-0.6,0.5-1s-0.1-0.6-0.4-0.9c-0.2-0.2-0.6-0.4-1.2-0.5l-1.5-0.4c-0.8-0.2-1.3-0.5-1.8-0.9s-0.6-0.9-0.6-1.5
				c0-0.8,0.3-1.4,1-1.9c0.6-0.5,1.5-0.7,2.5-0.7c0.6,0,1.2,0.1,1.8,0.3s1,0.5,1.4,0.9l-0.5,1.1c-0.9-0.7-1.8-1.1-2.7-1.1
				c-0.6,0-1.1,0.1-1.5,0.4s-0.5,0.6-0.5,1s0.1,0.7,0.3,0.9s0.6,0.4,1.1,0.5l1.5,0.4c0.8,0.2,1.5,0.5,1.9,0.9s0.6,0.9,0.6,1.6
				c0,0.8-0.3,1.4-1,1.9c-0.6,0.5-1.5,0.7-2.6,0.7C55,423.1,53.8,422.7,52.9,421.9z"/>
			<path class="st7" d="M61.9,421.9l0.5-1.1c0.5,0.4,1,0.7,1.5,0.8c0.5,0.2,1.1,0.3,1.7,0.3c0.7,0,1.2-0.1,1.6-0.4
				c0.4-0.2,0.5-0.6,0.5-1s-0.1-0.6-0.4-0.9c-0.2-0.2-0.6-0.4-1.2-0.5l-1.5-0.4c-0.8-0.2-1.3-0.5-1.8-0.9s-0.6-0.9-0.6-1.5
				c0-0.8,0.3-1.4,1-1.9c0.6-0.5,1.5-0.7,2.5-0.7c0.6,0,1.2,0.1,1.8,0.3s1,0.5,1.4,0.9l-0.5,1.1c-0.9-0.7-1.8-1.1-2.7-1.1
				c-0.6,0-1.1,0.1-1.5,0.4s-0.5,0.6-0.5,1s0.1,0.7,0.3,0.9s0.6,0.4,1.1,0.5l1.5,0.4c0.8,0.2,1.5,0.5,1.9,0.9s0.6,0.9,0.6,1.6
				c0,0.8-0.3,1.4-1,1.9c-0.6,0.5-1.5,0.7-2.6,0.7C64,423.1,62.8,422.7,61.9,421.9z"/>
			<path class="st7" d="M78.9,418.4h-6.6c0,1.2,0.3,2,0.8,2.6s1.3,0.9,2.3,0.9c1.1,0,2-0.4,2.9-1.1l0.5,1.1
				c-0.4,0.4-0.9,0.7-1.5,0.9s-1.3,0.3-1.9,0.3c-1.4,0-2.5-0.4-3.3-1.3c-0.8-0.8-1.2-2-1.2-3.4c0-0.9,0.2-1.7,0.5-2.5
				c0.4-0.7,0.9-1.3,1.5-1.7c0.6-0.4,1.4-0.6,2.2-0.6c1.2,0,2.1,0.4,2.8,1.2s1,1.9,1,3.2C78.9,418,78.9,418.4,78.9,418.4z
				 M73.3,415.5c-0.5,0.5-0.8,1.1-0.9,1.9h5.3c-0.1-0.9-0.3-1.5-0.7-1.9c-0.4-0.4-1-0.7-1.8-0.7S73.7,415,73.3,415.5z"/>
			<path class="st7" d="M80.6,421.9l0.5-1.1c0.5,0.4,1,0.7,1.5,0.8c0.5,0.2,1.1,0.3,1.7,0.3c0.7,0,1.2-0.1,1.6-0.4
				c0.4-0.2,0.5-0.6,0.5-1s-0.1-0.6-0.4-0.9c-0.2-0.2-0.6-0.4-1.2-0.5l-1.5-0.4c-0.8-0.2-1.3-0.5-1.8-0.9s-0.6-0.9-0.6-1.5
				c0-0.8,0.3-1.4,1-1.9c0.6-0.5,1.5-0.7,2.5-0.7c0.6,0,1.2,0.1,1.8,0.3s1,0.5,1.4,0.9l-0.5,1.1c-0.9-0.7-1.8-1.1-2.7-1.1
				c-0.6,0-1.1,0.1-1.5,0.4s-0.5,0.6-0.5,1s0.1,0.7,0.3,0.9s0.6,0.4,1.1,0.5l1.5,0.4c0.8,0.2,1.5,0.5,1.9,0.9s0.6,0.9,0.6,1.6
				c0,0.8-0.3,1.4-1,1.9c-0.6,0.5-1.5,0.7-2.6,0.7C82.7,423.1,81.5,422.7,80.6,421.9z"/>
			<path class="st7" d="M89.5,421.9l0.5-1.1c0.5,0.4,1,0.7,1.5,0.8c0.5,0.2,1.1,0.3,1.7,0.3c0.7,0,1.2-0.1,1.6-0.4
				c0.4-0.2,0.5-0.6,0.5-1s-0.1-0.6-0.4-0.9c-0.2-0.2-0.6-0.4-1.2-0.5l-1.5-0.4c-0.8-0.2-1.3-0.5-1.8-0.9s-0.6-0.9-0.6-1.5
				c0-0.8,0.3-1.4,1-1.9c0.6-0.5,1.5-0.7,2.5-0.7c0.6,0,1.2,0.1,1.8,0.3s1,0.5,1.4,0.9L96,416c-0.9-0.7-1.8-1.1-2.7-1.1
				c-0.6,0-1.1,0.1-1.5,0.4s-0.5,0.6-0.5,1s0.1,0.7,0.3,0.9s0.6,0.4,1.1,0.5l1.5,0.4c0.8,0.2,1.5,0.5,1.9,0.9s0.6,0.9,0.6,1.6
				c0,0.8-0.3,1.4-1,1.9c-0.6,0.5-1.5,0.7-2.6,0.7C91.6,423.1,90.4,422.7,89.5,421.9z"/>
			<path class="st7" d="M112.1,417.3v5.7h-1.5v-5.6c0-0.9-0.1-1.5-0.4-1.9s-0.8-0.6-1.4-0.6c-0.8,0-1.4,0.3-1.8,0.8
				s-0.6,1.2-0.6,2.1v5.2h-1.5v-5.6c0-0.8-0.1-1.5-0.4-1.8c-0.3-0.4-0.8-0.6-1.4-0.6c-0.8,0-1.4,0.3-1.8,0.8s-0.7,1.2-0.7,2.1v5.2
				H99v-6.5c0-0.9,0-1.8-0.1-2.5h1.4l0.1,1.6c0.3-0.6,0.6-1,1.1-1.3s1.1-0.5,1.7-0.5c0.7,0,1.3,0.1,1.8,0.4s0.8,0.7,1,1.3
				c0.3-0.5,0.7-1,1.2-1.3s1.1-0.5,1.8-0.5C111.1,413.7,112.1,414.9,112.1,417.3z"/>
			<path class="st7" d="M122.4,418.4h-6.6c0,1.2,0.3,2,0.8,2.6s1.3,0.9,2.3,0.9c1.1,0,2-0.4,2.9-1.1l0.5,1.1
				c-0.4,0.4-0.9,0.7-1.5,0.9s-1.3,0.3-1.9,0.3c-1.4,0-2.5-0.4-3.3-1.3c-0.8-0.8-1.2-2-1.2-3.4c0-0.9,0.2-1.7,0.5-2.5
				c0.4-0.7,0.9-1.3,1.5-1.7c0.6-0.4,1.4-0.6,2.2-0.6c1.2,0,2.1,0.4,2.8,1.2s1,1.9,1,3.2C122.4,418,122.4,418.4,122.4,418.4z
				 M116.7,415.5c-0.5,0.5-0.8,1.1-0.9,1.9h5.3c-0.1-0.9-0.3-1.5-0.7-1.9c-0.4-0.4-1-0.7-1.8-0.7S117.2,415,116.7,415.5z"/>
			<path class="st7" d="M132.4,417.3v5.7h-1.5v-5.6c0-0.8-0.2-1.5-0.5-1.8s-0.9-0.6-1.6-0.6c-0.8,0-1.5,0.3-2,0.8s-0.8,1.2-0.8,2.1
				v5.2h-1.5v-6.5c0-0.9,0-1.8-0.1-2.5h1.4l0.1,1.6c0.3-0.6,0.7-1,1.2-1.4c0.6-0.3,1.2-0.5,1.9-0.5
				C131.3,413.7,132.4,414.9,132.4,417.3z"/>
			<path class="st7" d="M137.1,415v5c0,0.7,0.1,1.1,0.4,1.4c0.3,0.3,0.7,0.4,1.2,0.4c0.3,0,0.7-0.1,1-0.2v1.2
				c-0.4,0.1-0.8,0.2-1.3,0.2c-0.9,0-1.5-0.2-2-0.7s-0.7-1.2-0.7-2.2V415h-1.8v-1.2h1.8v-2.3l1.5-0.5v2.8h2.6v1.2H137.1z"/>
		</g>
	</g>
	<path id="Path_11100_3_" class="st2" d="M202.2,187.4H0v-66h202.2l14.5,33L202.2,187.4z"/>
	<g>
		<g class="st3">
			<path class="st4" d="M70.5,149.6l0.8-1.8c1,0.8,2.6,1.4,4.2,1.4c2,0,2.8-0.7,2.8-1.6c0-2.7-7.5-0.9-7.5-5.6c0-2,1.6-3.8,5.1-3.8
				c1.5,0,3.1,0.4,4.2,1.1l-0.7,1.8c-1.1-0.7-2.4-1-3.5-1c-1.9,0-2.7,0.8-2.7,1.7c0,2.7,7.5,0.9,7.5,5.6c0,2-1.6,3.7-5.1,3.7
				C73.5,151.1,71.6,150.5,70.5,149.6z"/>
			<path class="st4" d="M91.7,146.8h-7.5c0.3,1.4,1.4,2.3,3.1,2.3c1.1,0,1.9-0.3,2.6-1l1.2,1.4c-0.9,1-2.2,1.6-3.9,1.6
				c-3.2,0-5.3-2.1-5.3-4.9c0-2.9,2.1-4.9,5-4.9c2.8,0,4.9,2,4.9,5C91.7,146.3,91.7,146.6,91.7,146.8z M84.1,145.3h5.5
				c-0.2-1.4-1.2-2.3-2.7-2.3S84.3,143.9,84.1,145.3z"/>
			<path class="st4" d="M93.9,137.6h2.3V151h-2.3V137.6z"/>
			<path class="st4" d="M108.1,146.8h-7.5c0.3,1.4,1.4,2.3,3.1,2.3c1.1,0,1.9-0.3,2.6-1l1.2,1.4c-0.9,1-2.2,1.6-3.9,1.6
				c-3.2,0-5.3-2.1-5.3-4.9c0-2.9,2.1-4.9,5-4.9c2.8,0,4.9,2,4.9,5C108.1,146.3,108.1,146.6,108.1,146.8z M100.5,145.3h5.5
				c-0.2-1.4-1.2-2.3-2.7-2.3S100.7,143.9,100.5,145.3z"/>
			<path class="st4" d="M109.5,146.1c0-2.9,2.2-4.9,5.2-4.9c1.9,0,3.4,0.8,4.1,2.2l-1.7,1c-0.6-0.9-1.4-1.3-2.4-1.3
				c-1.7,0-2.9,1.2-2.9,3c0,1.9,1.3,3,2.9,3c1,0,1.8-0.4,2.4-1.3l1.7,1c-0.7,1.4-2.2,2.3-4.1,2.3C111.6,151,109.5,149,109.5,146.1z"
				/>
			<path class="st4" d="M126.6,150.4c-0.5,0.4-1.4,0.6-2.2,0.6c-2.1,0-3.3-1.1-3.3-3.2v-4.6h-1.6v-1.8h1.6v-2.2h2.3v2.2h2.6v1.8
				h-2.6v4.6c0,0.9,0.5,1.4,1.3,1.4c0.5,0,0.9-0.1,1.3-0.4L126.6,150.4z"/>
		</g>
		<g class="st3">
			<path class="st4" d="M21.3,167.9H15l-1.2,2.9h-2.4l5.7-12.6h2.3l5.7,12.6h-2.4L21.3,167.9z M20.5,166l-2.4-5.5l-2.4,5.5H20.5z"/>
			<path class="st4" d="M35.5,161.2v9.6h-2.1v-1.2c-0.7,0.9-1.9,1.4-3.1,1.4c-2.5,0-4.1-1.4-4.1-4.2v-5.5h2.3v5.2
				c0,1.7,0.8,2.6,2.3,2.6c1.6,0,2.6-1,2.6-2.9v-4.9h2.1V161.2z"/>
			<path class="st4" d="M44.2,170.3c-0.5,0.4-1.4,0.6-2.2,0.6c-2.1,0-3.3-1.1-3.3-3.2V163h-1.6v-1.8h1.6V159H41v2.2h2.6v1.8H41v4.6
				c0,0.9,0.5,1.4,1.3,1.4c0.5,0,0.9-0.1,1.3-0.4L44.2,170.3z"/>
			<path class="st4" d="M55.5,165.3v5.5h-2.3v-5.2c0-1.7-0.8-2.5-2.3-2.5c-1.6,0-2.7,1-2.7,2.9v4.9h-2.3v-13.4h2.3v4.9
				c0.7-0.8,1.9-1.2,3.2-1.2C53.8,161.1,55.5,162.4,55.5,165.3z"/>
			<path class="st4" d="M57.7,166c0-2.9,2.2-4.9,5.1-4.9c3,0,5.1,2,5.1,4.9s-2.1,4.9-5.1,4.9C59.9,170.9,57.7,168.9,57.7,166z
				 M65.7,166c0-1.8-1.2-3-2.9-3c-1.6,0-2.8,1.2-2.8,3s1.2,3,2.8,3C64.4,169,65.7,167.8,65.7,166z"/>
			<path class="st4" d="M75.7,161.1v2.1c-0.2,0-0.4-0.1-0.5-0.1c-1.7,0-2.8,1-2.8,3v4.7h-2.3v-9.6h2.1v1.4
				C72.9,161.6,74.1,161.1,75.7,161.1z"/>
			<path class="st4" d="M77.3,158.2c0-0.8,0.6-1.4,1.4-1.4s1.4,0.6,1.4,1.3c0,0.8-0.6,1.4-1.4,1.4C77.9,159.6,77.3,159,77.3,158.2z
				 M77.6,161.2h2.3v9.6h-2.3V161.2z"/>
			<path class="st4" d="M90.3,169v1.8H82v-1.4l5.3-6.4h-5.2v-1.8h8v1.4l-5.3,6.4H90.3z"/>
			<path class="st4" d="M100.4,165.1v5.6h-2.1v-1.2c-0.5,0.8-1.6,1.3-3,1.3c-2.2,0-3.6-1.2-3.6-2.9c0-1.6,1.1-2.9,4-2.9h2.5v0
				c0-1.3-0.8-2.1-2.4-2.1c-1.1,0-2.2,0.4-2.9,1l-0.9-1.6c1-0.8,2.5-1.2,4.1-1.2C98.8,161.1,100.4,162.4,100.4,165.1z M98.1,167.8
				v-1.1h-2.3c-1.5,0-1.9,0.6-1.9,1.3c0,0.8,0.7,1.3,1.8,1.3S97.8,168.8,98.1,167.8z"/>
			<path class="st4" d="M109,170.3c-0.5,0.4-1.4,0.6-2.2,0.6c-2.1,0-3.3-1.1-3.3-3.2V163H102v-1.8h1.6V159h2.3v2.2h2.6v1.8h-2.6v4.6
				c0,0.9,0.5,1.4,1.3,1.4c0.5,0,0.9-0.1,1.3-0.4L109,170.3z"/>
			<path class="st4" d="M110.6,158.2c0-0.8,0.6-1.4,1.4-1.4s1.4,0.6,1.4,1.3c0,0.8-0.6,1.4-1.4,1.4
				C111.2,159.6,110.6,159,110.6,158.2z M110.9,161.2h2.3v9.6h-2.3V161.2z"/>
			<path class="st4" d="M115.3,166c0-2.9,2.2-4.9,5.1-4.9c3,0,5.1,2,5.1,4.9s-2.1,4.9-5.1,4.9C117.5,170.9,115.3,168.9,115.3,166z
				 M123.3,166c0-1.8-1.2-3-2.9-3c-1.6,0-2.8,1.2-2.8,3s1.2,3,2.8,3C122.1,169,123.3,167.8,123.3,166z"/>
			<path class="st4" d="M137.2,165.3v5.5h-2.3v-5.2c0-1.7-0.8-2.5-2.3-2.5c-1.6,0-2.7,1-2.7,2.9v4.9h-2.3v-9.6h2.1v1.2
				c0.7-0.9,1.9-1.4,3.3-1.4C135.5,161.1,137.2,162.4,137.2,165.3z"/>
			<path class="st4" d="M155.8,162.7c0,2.8-2.1,4.5-5.4,4.5h-2.8v3.6h-2.3v-12.6h5.2C153.7,158.2,155.8,159.9,155.8,162.7z
				 M153.4,162.7c0-1.6-1.1-2.5-3.1-2.5h-2.7v5h2.7C152.4,165.2,153.4,164.2,153.4,162.7z"/>
			<path class="st4" d="M165.9,165.1v5.6h-2.1v-1.2c-0.5,0.8-1.6,1.3-3,1.3c-2.2,0-3.6-1.2-3.6-2.9c0-1.6,1.1-2.9,4-2.9h2.5v0
				c0-1.3-0.8-2.1-2.4-2.1c-1.1,0-2.2,0.4-2.9,1l-0.9-1.6c1-0.8,2.5-1.2,4.1-1.2C164.3,161.1,165.9,162.4,165.9,165.1z M163.6,167.8
				v-1.1h-2.3c-1.5,0-1.9,0.6-1.9,1.3c0,0.8,0.7,1.3,1.8,1.3C162.3,169.3,163.2,168.8,163.6,167.8z"/>
			<path class="st4" d="M174.5,170.3c-0.5,0.4-1.4,0.6-2.2,0.6c-2.1,0-3.3-1.1-3.3-3.2V163h-1.6v-1.8h1.6V159h2.3v2.2h2.6v1.8h-2.6
				v4.6c0,0.9,0.5,1.4,1.3,1.4c0.5,0,0.9-0.1,1.3-0.4L174.5,170.3z"/>
			<path class="st4" d="M185.8,165.3v5.5h-2.3v-5.2c0-1.7-0.8-2.5-2.3-2.5c-1.6,0-2.7,1-2.7,2.9v4.9h-2.3v-13.4h2.3v4.9
				c0.7-0.8,1.9-1.2,3.2-1.2C184.1,161.1,185.8,162.4,185.8,165.3z"/>
		</g>
	</g>
	<g>
		<path id="Path_11287_1_" class="st2" d="M646.9,187.4H238.7l11.9-32.9l-13.9-33H647l13.9,33L646.9,187.4z"/>
		<g>
			<g class="st3">
				<path class="st4" d="M406.3,153.7c0,2.8-2.1,4.5-5.4,4.5h-2.8v3.6h-2.3v-12.6h5.2C404.3,149.2,406.3,150.9,406.3,153.7z
					 M403.9,153.7c0-1.6-1.1-2.5-3.1-2.5h-2.7v5h2.7C402.9,156.2,403.9,155.3,403.9,153.7z"/>
				<path class="st4" d="M413.9,152.1v2.1c-0.2,0-0.4-0.1-0.5-0.1c-1.7,0-2.8,1-2.8,3v4.7h-2.3v-9.6h2.1v1.4
					C411.1,152.6,412.3,152.1,413.9,152.1z"/>
				<path class="st4" d="M424.7,157.8h-7.5c0.3,1.4,1.4,2.3,3.1,2.3c1.1,0,1.9-0.3,2.6-1l1.2,1.4c-0.9,1-2.2,1.6-3.9,1.6
					c-3.2,0-5.3-2.1-5.3-4.9c0-2.9,2.1-4.9,5-4.9c2.8,0,4.9,2,4.9,5C424.8,157.3,424.7,157.5,424.7,157.8z M417.2,156.3h5.5
					c-0.2-1.4-1.2-2.3-2.7-2.3C418.4,153.9,417.4,154.9,417.2,156.3z"/>
				<path class="st4" d="M437.1,157c0,3-2.1,4.9-4.9,4.9c-1.2,0-2.3-0.4-3.1-1.3v4.7h-2.3v-13.1h2.1v1.3c0.8-0.9,1.9-1.4,3.2-1.4
					C435,152.1,437.1,154.1,437.1,157z M434.8,157c0-1.8-1.2-3-2.8-3c-1.6,0-2.9,1.2-2.9,3s1.2,3,2.9,3
					C433.6,160,434.8,158.9,434.8,157z"/>
				<path class="st4" d="M447.2,156.2v5.6h-2.1v-1.2c-0.5,0.8-1.6,1.3-3,1.3c-2.2,0-3.6-1.2-3.6-2.9c0-1.6,1.1-2.9,4-2.9h2.5V156
					c0-1.3-0.8-2.1-2.4-2.1c-1.1,0-2.2,0.4-2.9,1l-0.9-1.6c1-0.8,2.5-1.2,4.1-1.2C445.6,152.1,447.2,153.4,447.2,156.2z
					 M444.9,158.8v-1.1h-2.3c-1.5,0-1.9,0.6-1.9,1.3c0,0.8,0.7,1.3,1.8,1.3C443.6,160.3,444.6,159.8,444.9,158.8z"/>
				<path class="st4" d="M455.6,152.1v2.1c-0.2,0-0.4-0.1-0.5-0.1c-1.7,0-2.8,1-2.8,3v4.7h-2.2v-9.6h2.1v1.4
					C452.8,152.6,454,152.1,455.6,152.1z"/>
				<path class="st4" d="M465.5,156.2v5.6h-2.1v-1.2c-0.5,0.8-1.6,1.3-3,1.3c-2.2,0-3.6-1.2-3.6-2.9c0-1.6,1.1-2.9,4-2.9h2.5V156
					c0-1.3-0.8-2.1-2.4-2.1c-1.1,0-2.2,0.4-2.9,1l-0.9-1.6c1-0.8,2.5-1.2,4.1-1.2C463.9,152.1,465.5,153.4,465.5,156.2z
					 M463.3,158.8v-1.1H461c-1.5,0-1.9,0.6-1.9,1.3c0,0.8,0.7,1.3,1.8,1.3C461.9,160.3,462.9,159.8,463.3,158.8z"/>
				<path class="st4" d="M474.2,161.3c-0.5,0.4-1.4,0.6-2.2,0.6c-2.1,0-3.3-1.1-3.3-3.2v-4.6h-1.6v-1.8h1.6v-2.2h2.3v2.2h2.6v1.8
					H471v4.6c0,0.9,0.5,1.4,1.3,1.4c0.5,0,0.9-0.1,1.3-0.4L474.2,161.3z"/>
				<path class="st4" d="M475.7,149.3c0-0.8,0.6-1.4,1.4-1.4s1.4,0.6,1.4,1.3c0,0.8-0.6,1.4-1.4,1.4
					C476.3,150.7,475.7,150.1,475.7,149.3z M476,152.2h2.2v9.6H476V152.2z"/>
				<path class="st4" d="M480.4,157c0-2.9,2.2-4.9,5.1-4.9c3,0,5.1,2,5.1,4.9s-2.1,4.9-5.1,4.9C482.6,162,480.4,159.9,480.4,157z
					 M488.4,157c0-1.8-1.2-3-2.9-3c-1.6,0-2.8,1.2-2.8,3s1.2,3,2.8,3C487.2,160,488.4,158.9,488.4,157z"/>
				<path class="st4" d="M502.3,156.3v5.5H500v-5.2c0-1.7-0.8-2.5-2.3-2.5c-1.6,0-2.7,1-2.7,2.9v4.9h-2.2v-9.6h2.1v1.2
					c0.7-0.9,1.9-1.4,3.3-1.4C500.6,152.1,502.3,153.4,502.3,156.3z"/>
			</g>
		</g>
	</g>
	<g>
		<polygon class="st4" points="608.6,213.1 591,194.6 573.4,213.1 528.6,213.1 528.6,294.1 653.4,294.1 653.4,213.1 		"/>
		<path class="st5" d="M653.8,294.5H528.2v-81.8h45L591,194l17.8,18.7h45V294.5z M529,293.7h124v-80.2h-44.6l-0.1-0.1L591,195.1
			l-17.4,18.3H529V293.7z"/>
	</g>
	<rect x="533" y="234" class="st6" width="116" height="41.9"/>
	<g class="st3">
		<path class="st5" d="M541.1,236.6h7.9v1.2h-6.5v4.4h6.1v1.2h-6.1v5.9H541L541.1,236.6L541.1,236.6z"/>
		<path class="st5" d="M558.5,240.4v9.1h-1.4v-1.6c-0.3,0.6-0.7,1-1.2,1.3s-1.1,0.4-1.7,0.4c-1.1,0-1.9-0.3-2.4-0.9
			c-0.6-0.6-0.8-1.5-0.8-2.7v-5.6h1.5v5.6c0,0.8,0.2,1.4,0.5,1.8s0.8,0.6,1.5,0.6c0.8,0,1.5-0.3,1.9-0.8c0.5-0.5,0.7-1.2,0.7-2.1
			v-5.1H558.5z"/>
		<path class="st5" d="M561.3,236.2h1.5v13.2h-1.5V236.2z"/>
		<path class="st5" d="M565.6,236.2h1.5v13.2h-1.5V236.2z"/>
		<path class="st5" d="M574,247.9l0.6-1.1c0.6,0.5,1.3,0.9,1.9,1.2c0.7,0.2,1.4,0.3,2.3,0.3c1,0,1.8-0.2,2.4-0.6
			c0.6-0.4,0.8-1,0.8-1.7c0-0.4-0.1-0.8-0.4-1.1c-0.3-0.3-0.6-0.5-1.1-0.6c-0.4-0.2-1-0.3-1.8-0.5c-1-0.2-1.8-0.5-2.4-0.7
			s-1.2-0.6-1.5-1.1c-0.4-0.5-0.6-1.1-0.6-1.9c0-0.7,0.2-1.4,0.6-1.9c0.4-0.6,0.9-1,1.6-1.3c0.7-0.3,1.5-0.5,2.5-0.5
			c0.9,0,1.7,0.1,2.5,0.4s1.4,0.7,1.9,1.2l-0.6,1.1c-0.6-0.5-1.2-0.9-1.8-1.1s-1.3-0.4-2-0.4c-1,0-1.8,0.2-2.3,0.6
			c-0.6,0.4-0.8,1-0.8,1.8c0,0.6,0.2,1.1,0.7,1.5c0.5,0.3,1.2,0.6,2.3,0.8c1.1,0.3,2,0.5,2.6,0.7s1.2,0.6,1.6,1
			c0.4,0.4,0.6,1,0.6,1.8c0,0.7-0.2,1.4-0.6,1.9c-0.4,0.5-0.9,1-1.6,1.3s-1.6,0.4-2.5,0.4C576.8,249.6,575.2,249,574,247.9z"/>
		<path class="st5" d="M593.3,244.8h-6.6c0,1.2,0.3,2,0.8,2.6s1.3,0.9,2.3,0.9c1.1,0,2-0.4,2.9-1.1l0.5,1.1
			c-0.4,0.4-0.9,0.7-1.5,0.9s-1.3,0.3-1.9,0.3c-1.4,0-2.5-0.4-3.3-1.3c-0.8-0.8-1.2-2-1.2-3.4c0-0.9,0.2-1.7,0.5-2.5
			c0.4-0.7,0.9-1.3,1.5-1.7s1.4-0.6,2.2-0.6c1.2,0,2.1,0.4,2.8,1.2s1,1.9,1,3.2V244.8z M587.7,242c-0.5,0.5-0.8,1.1-0.9,1.9h5.3
			c-0.1-0.9-0.3-1.5-0.7-1.9s-1-0.7-1.8-0.7S588.1,241.5,587.7,242z"/>
		<path class="st5" d="M597.1,249c-0.7-0.4-1.2-0.9-1.5-1.6c-0.4-0.7-0.5-1.5-0.5-2.5c0-0.9,0.2-1.8,0.5-2.5
			c0.4-0.7,0.9-1.3,1.5-1.7c0.7-0.4,1.4-0.6,2.3-0.6c0.6,0,1.2,0.1,1.8,0.3s1,0.5,1.4,0.9l-0.5,1.1c-0.5-0.4-0.9-0.6-1.3-0.8
			s-0.9-0.3-1.3-0.3c-0.9,0-1.7,0.3-2.2,0.9c-0.5,0.6-0.8,1.5-0.8,2.6s0.3,1.9,0.8,2.5s1.3,0.9,2.2,0.9c0.4,0,0.9-0.1,1.3-0.3
			s0.9-0.4,1.3-0.8l0.5,1.1c-0.4,0.4-0.9,0.6-1.4,0.9c-0.6,0.2-1.2,0.3-1.8,0.3C598.5,249.5,597.7,249.3,597.1,249z"/>
		<path class="st5" d="M612,240.4v9.1h-1.4v-1.6c-0.3,0.6-0.7,1-1.2,1.3s-1.1,0.4-1.7,0.4c-1.1,0-1.9-0.3-2.4-0.9
			c-0.6-0.6-0.8-1.5-0.8-2.7v-5.6h1.5v5.6c0,0.8,0.2,1.4,0.5,1.8s0.8,0.6,1.5,0.6c0.8,0,1.5-0.3,1.9-0.8c0.5-0.5,0.7-1.2,0.7-2.1
			v-5.1H612z"/>
		<path class="st5" d="M619.9,240.3v1.3c-0.3-0.1-0.6-0.1-1-0.1c-0.9,0-1.5,0.3-2,0.8c-0.4,0.5-0.6,1.2-0.6,2v5.2h-1.5V243
			c0-0.9,0-1.8-0.1-2.5h1.4l0.1,1.7c0.2-0.6,0.6-1.1,1.1-1.4s1.1-0.5,1.7-0.5C619.4,240.1,619.6,240.2,619.9,240.3z"/>
		<path class="st5" d="M623,236.5v1.7h-1.8v-1.7H623z M621.4,240.4h1.5v9.1h-1.5V240.4z"/>
		<path class="st5" d="M627.6,241.5v5c0,0.7,0.1,1.1,0.4,1.4c0.3,0.3,0.7,0.4,1.2,0.4c0.3,0,0.7-0.1,1-0.2v1.2
			c-0.4,0.1-0.8,0.2-1.3,0.2c-0.9,0-1.5-0.2-2-0.7s-0.7-1.2-0.7-2.2v-5.1h-1.8v-1.2h1.8V238l1.5-0.5v2.8h2.6v1.2H627.6z"/>
		<path class="st5" d="M640,240.4l-4.2,9.9c-0.4,1-1,1.8-1.7,2.3s-1.5,0.8-2.5,1l-0.3-1.1c0.9-0.2,1.5-0.4,1.9-0.8
			c0.4-0.3,0.8-0.8,1.1-1.5l0.4-0.8l-3.8-9h1.5l3.1,7.5l3.1-7.5L640,240.4L640,240.4z"/>
	</g>
	<g class="st3">
		<path class="st5" d="M549.6,267.7h-6.7l-1.4,3.3H540l5.6-12.8h1.3l5.6,12.8H551L549.6,267.7z M549.1,266.5l-2.8-6.6l-2.8,6.6
			H549.1z"/>
		<path class="st5" d="M553.6,270l0.5-1.1c0.5,0.4,1,0.7,1.5,0.8c0.5,0.2,1.1,0.3,1.7,0.3c0.7,0,1.2-0.1,1.6-0.4
			c0.4-0.2,0.5-0.6,0.5-1s-0.1-0.6-0.4-0.9c-0.2-0.2-0.6-0.4-1.2-0.5l-1.5-0.4c-0.8-0.2-1.3-0.5-1.8-0.9s-0.6-0.9-0.6-1.5
			c0-0.8,0.3-1.4,1-1.9c0.6-0.5,1.5-0.7,2.5-0.7c0.6,0,1.2,0.1,1.8,0.3c0.6,0.2,1,0.5,1.4,0.9l-0.5,1.1c-0.9-0.7-1.8-1.1-2.7-1.1
			c-0.6,0-1.1,0.1-1.5,0.4c-0.4,0.2-0.5,0.6-0.5,1s0.1,0.7,0.3,0.9c0.2,0.2,0.6,0.4,1.1,0.5l1.5,0.4c0.8,0.2,1.5,0.5,1.9,0.9
			s0.6,0.9,0.6,1.6c0,0.8-0.3,1.4-1,1.9s-1.5,0.7-2.6,0.7C555.7,271.1,554.5,270.8,553.6,270z"/>
		<path class="st5" d="M562.5,270l0.5-1.1c0.5,0.4,1,0.7,1.5,0.8c0.5,0.2,1.1,0.3,1.7,0.3c0.7,0,1.2-0.1,1.6-0.4
			c0.4-0.2,0.5-0.6,0.5-1s-0.1-0.6-0.4-0.9c-0.2-0.2-0.6-0.4-1.2-0.5l-1.5-0.4c-0.8-0.2-1.3-0.5-1.8-0.9s-0.6-0.9-0.6-1.5
			c0-0.8,0.3-1.4,1-1.9c0.6-0.5,1.5-0.7,2.5-0.7c0.6,0,1.2,0.1,1.8,0.3c0.6,0.2,1,0.5,1.4,0.9l-0.5,1c-0.9-0.7-1.8-1.1-2.7-1.1
			c-0.6,0-1.1,0.1-1.5,0.4c-0.4,0.2-0.5,0.6-0.5,1s0.1,0.7,0.3,0.9c0.2,0.2,0.6,0.4,1.1,0.5l1.5,0.4c0.8,0.2,1.5,0.5,1.9,0.9
			s0.6,0.9,0.6,1.6c0,0.8-0.3,1.4-1,1.9s-1.5,0.7-2.6,0.7C564.6,271.1,563.4,270.8,562.5,270z"/>
		<path class="st5" d="M579.6,266.4H573c0,1.2,0.3,2,0.8,2.6s1.3,0.9,2.3,0.9c1.1,0,2-0.4,2.9-1.1l0.5,1.1c-0.4,0.4-0.9,0.7-1.5,0.9
			s-1.3,0.3-1.9,0.3c-1.4,0-2.5-0.4-3.3-1.3c-0.8-0.8-1.2-2-1.2-3.4c0-0.9,0.2-1.7,0.5-2.5c0.4-0.7,0.9-1.3,1.5-1.7
			c0.6-0.4,1.4-0.6,2.2-0.6c1.2,0,2.1,0.4,2.8,1.2c0.7,0.8,1,1.9,1,3.2V266.4z M573.9,263.6c-0.5,0.5-0.8,1.1-0.9,1.9h5.3
			c-0.1-0.9-0.3-1.5-0.7-1.9s-1-0.7-1.8-0.7S574.4,263.1,573.9,263.6z"/>
		<path class="st5" d="M581.2,270l0.5-1.1c0.5,0.4,1,0.7,1.5,0.8c0.5,0.2,1.1,0.3,1.7,0.3c0.7,0,1.2-0.1,1.6-0.4
			c0.4-0.2,0.5-0.6,0.5-1s-0.1-0.6-0.4-0.9c-0.2-0.2-0.6-0.4-1.2-0.5l-1.5-0.4c-0.8-0.2-1.3-0.5-1.8-0.9s-0.6-0.9-0.6-1.5
			c0-0.8,0.3-1.4,1-1.9c0.6-0.5,1.5-0.7,2.5-0.7c0.6,0,1.2,0.1,1.8,0.3c0.6,0.2,1,0.5,1.4,0.9l-0.5,1.1c-0.9-0.7-1.8-1.1-2.7-1.1
			c-0.6,0-1.1,0.1-1.5,0.4c-0.4,0.2-0.5,0.6-0.5,1s0.1,0.7,0.3,0.9c0.2,0.2,0.6,0.4,1.1,0.5l1.5,0.4c0.8,0.2,1.5,0.5,1.9,0.9
			s0.6,0.9,0.6,1.6c0,0.8-0.3,1.4-1,1.9s-1.5,0.7-2.6,0.7C583.3,271.1,582.1,270.8,581.2,270z"/>
		<path class="st5" d="M590.2,270l0.5-1.1c0.5,0.4,1,0.7,1.5,0.8c0.5,0.2,1.1,0.3,1.7,0.3c0.7,0,1.2-0.1,1.6-0.4
			c0.4-0.2,0.5-0.6,0.5-1s-0.1-0.6-0.4-0.9c-0.2-0.2-0.6-0.4-1.2-0.5l-1.5-0.4c-0.8-0.2-1.3-0.5-1.8-0.9s-0.6-0.9-0.6-1.5
			c0-0.8,0.3-1.4,1-1.9c0.6-0.5,1.5-0.7,2.5-0.7c0.6,0,1.2,0.1,1.8,0.3c0.6,0.2,1,0.5,1.4,0.9l-0.5,1.1c-0.9-0.7-1.8-1.1-2.7-1.1
			c-0.6,0-1.1,0.1-1.5,0.4c-0.4,0.2-0.5,0.6-0.5,1s0.1,0.7,0.3,0.9c0.2,0.2,0.6,0.4,1.1,0.5l1.5,0.4c0.8,0.2,1.5,0.5,1.9,0.9
			s0.6,0.9,0.6,1.6c0,0.8-0.3,1.4-1,1.9s-1.5,0.7-2.6,0.7C592.3,271.1,591,270.8,590.2,270z"/>
		<path class="st5" d="M612.7,265.3v5.7h-1.5v-5.6c0-0.9-0.1-1.5-0.4-1.9s-0.8-0.6-1.4-0.6c-0.8,0-1.4,0.3-1.8,0.8
			c-0.4,0.5-0.6,1.2-0.6,2.1v5.2h-1.5v-5.6c0-0.8-0.2-1.5-0.5-1.8s-0.8-0.6-1.4-0.6c-0.8,0-1.4,0.3-1.8,0.8
			c-0.4,0.5-0.7,1.2-0.7,2.1v5.2h-1.5v-6.5c0-0.9,0-1.8-0.1-2.5h1.4l0.1,1.6c0.3-0.6,0.6-1,1.1-1.3s1.1-0.5,1.7-0.5
			c0.7,0,1.3,0.1,1.8,0.4s0.8,0.7,1,1.3c0.3-0.5,0.7-1,1.2-1.3s1.1-0.5,1.8-0.5C611.7,261.7,612.7,262.9,612.7,265.3z"/>
		<path class="st5" d="M623,266.4h-6.6c0,1.2,0.3,2,0.8,2.6s1.3,0.9,2.3,0.9c1.1,0,2-0.4,2.9-1.1l0.5,1.1c-0.4,0.4-0.9,0.7-1.5,0.9
			s-1.3,0.3-1.9,0.3c-1.4,0-2.5-0.4-3.3-1.3s-1.2-2-1.2-3.4c0-0.9,0.2-1.7,0.5-2.5s0.9-1.3,1.5-1.7c0.6-0.4,1.4-0.6,2.2-0.6
			c1.2,0,2.1,0.4,2.8,1.2c0.7,0.8,1,1.9,1,3.2V266.4z M617.4,263.6c-0.5,0.5-0.8,1.1-0.9,1.9h5.3c-0.1-0.9-0.3-1.5-0.7-1.9
			s-1-0.7-1.8-0.7S617.8,263.1,617.4,263.6z"/>
		<path class="st5" d="M633,265.3v5.7h-1.5v-5.6c0-0.8-0.2-1.5-0.5-1.8s-0.9-0.6-1.6-0.6c-0.8,0-1.5,0.3-2,0.8s-0.8,1.2-0.8,2.1v5.2
			h-1.5v-6.5c0-0.9,0-1.8-0.1-2.5h1.4l0.1,1.6c0.3-0.6,0.7-1,1.2-1.4c0.6-0.3,1.2-0.5,1.9-0.5C632,261.7,633,262.9,633,265.3z"/>
		<path class="st5" d="M637.7,263.1v5c0,0.7,0.1,1.1,0.4,1.4c0.3,0.3,0.7,0.4,1.2,0.4c0.3,0,0.7-0.1,1-0.2v1.2
			c-0.4,0.1-0.8,0.2-1.3,0.2c-0.9,0-1.5-0.2-2-0.7s-0.7-1.2-0.7-2.2v-5.1h-1.8V262h1.8v-2.3l1.5-0.5v2.8h2.6v1.2h-2.7V263.1z"/>
	</g>
	<g>
		<polygon class="st4" points="582.2,21 455.3,21 455.3,97 503.5,97 520.2,114.5 536.8,97 582.2,97 		"/>
		<path class="st7" d="M520.2,115l-16.9-17.7h-48.4V20.6h127.7v76.8H537L520.2,115z M455.7,96.6h48l16.5,17.3l16.4-17.3h45.2V21.4
			H455.7V96.6z"/>
	</g>
	<rect x="457" y="37.5" class="st6" width="125.6" height="41.9"/>
	<g class="st3">
		<path class="st7" d="M503.2,40h5.1c1.3,0,2.3,0.3,3.1,1c0.7,0.6,1.1,1.5,1.1,2.6s-0.4,2-1.1,2.6c-0.7,0.6-1.8,1-3.1,1h-3.6v5.6
			h-1.5L503.2,40L503.2,40z M508.2,46c0.9,0,1.7-0.2,2.1-0.6c0.5-0.4,0.7-1,0.7-1.8s-0.2-1.4-0.7-1.8c-0.5-0.4-1.2-0.6-2.1-0.6h-3.5
			V46H508.2z"/>
		<path class="st7" d="M519.6,43.7V45c-0.3-0.1-0.6-0.1-1-0.1c-0.9,0-1.5,0.3-2,0.8c-0.4,0.5-0.6,1.2-0.6,2v5.2h-1.5v-6.5
			c0-0.9,0-1.8-0.1-2.5h1.4l0.1,1.7c0.2-0.6,0.6-1.1,1.1-1.4c0.5-0.3,1.1-0.5,1.7-0.5C519.1,43.6,519.3,43.6,519.6,43.7z"/>
		<path class="st7" d="M528.5,48.3h-6.6c0,1.2,0.3,2,0.8,2.6s1.3,0.9,2.3,0.9c1.1,0,2-0.4,2.9-1.1l0.5,1.1c-0.4,0.4-0.9,0.7-1.5,0.9
			S525.6,53,525,53c-1.4,0-2.5-0.4-3.3-1.3s-1.2-2-1.2-3.4c0-0.9,0.2-1.7,0.5-2.5s0.9-1.3,1.5-1.7s1.4-0.6,2.2-0.6
			c1.2,0,2.1,0.4,2.8,1.2s1,1.9,1,3.2V48.3z M522.8,45.4c-0.5,0.5-0.8,1.1-0.9,1.9h5.3c-0.1-0.9-0.3-1.5-0.7-1.9s-1-0.7-1.8-0.7
			S523.3,45,522.8,45.4z"/>
		<path class="st7" d="M530.8,47.4h5.1v1.2h-5.1V47.4z"/>
	</g>
	<g class="st3">
		<path class="st7" d="M472.1,71.2h-6.7l-1.4,3.3h-1.5l5.6-12.8h1.3l5.6,12.8h-1.5L472.1,71.2z M471.6,69.9l-2.8-6.6l-2.8,6.6H471.6
			z"/>
		<path class="st7" d="M484.3,65.4v9.1h-1.4v-1.6c-0.3,0.6-0.7,1-1.2,1.3s-1.1,0.4-1.7,0.4c-1.1,0-1.9-0.3-2.4-0.9
			c-0.6-0.6-0.8-1.5-0.8-2.7v-5.6h1.5V71c0,0.8,0.2,1.4,0.5,1.8s0.8,0.6,1.5,0.6c0.8,0,1.5-0.3,1.9-0.8c0.5-0.5,0.7-1.2,0.7-2.1
			v-5.1H484.3z"/>
		<path class="st7" d="M489.1,66.6v5c0,0.7,0.1,1.1,0.4,1.4s0.7,0.4,1.2,0.4c0.3,0,0.7-0.1,1-0.2v1.2c-0.4,0.1-0.8,0.2-1.3,0.2
			c-0.9,0-1.5-0.2-2-0.7s-0.7-1.2-0.7-2.2v-5.1h-1.8v-1.2h1.8v-2.3l1.5-0.5v2.8h2.6v1.2C491.8,66.6,489.1,66.6,489.1,66.6z"/>
		<path class="st7" d="M501.2,68.8v5.7h-1.5v-5.6c0-0.8-0.2-1.5-0.5-1.8s-0.9-0.6-1.6-0.6c-0.8,0-1.5,0.3-2,0.8s-0.8,1.2-0.8,2.1
			v5.2h-1.5V61.2h1.5v5.7c0.3-0.6,0.7-1,1.2-1.3s1.1-0.4,1.8-0.4C500.1,65.2,501.2,66.4,501.2,68.8z"/>
		<path class="st7" d="M505.4,74c-0.6-0.4-1.1-0.9-1.5-1.6s-0.5-1.5-0.5-2.5c0-0.9,0.2-1.8,0.5-2.5c0.4-0.7,0.9-1.3,1.5-1.6
			c0.6-0.4,1.4-0.6,2.2-0.6c0.9,0,1.6,0.2,2.2,0.6s1.1,0.9,1.5,1.6s0.5,1.5,0.5,2.5c0,0.9-0.2,1.8-0.5,2.5c-0.4,0.7-0.9,1.3-1.5,1.6
			c-0.6,0.4-1.4,0.6-2.2,0.6S506.1,74.4,505.4,74z M509.8,72.5c0.5-0.6,0.7-1.5,0.7-2.6s-0.2-2-0.7-2.6s-1.2-0.9-2.1-0.9
			s-1.6,0.3-2.1,0.9s-0.7,1.5-0.7,2.6s0.2,2,0.7,2.6s1.2,0.9,2.1,0.9C508.6,73.4,509.3,73.1,509.8,72.5z"/>
		<path class="st7" d="M519.3,65.3v1.3c-0.3-0.1-0.6-0.1-1-0.1c-0.9,0-1.5,0.3-2,0.8c-0.4,0.5-0.6,1.2-0.6,2v5.2h-1.5V68
			c0-0.9,0-1.8-0.1-2.5h1.4l0.1,1.7c0.2-0.6,0.6-1.1,1.1-1.4s1.1-0.5,1.7-0.5C518.8,65.2,519,65.2,519.3,65.3z"/>
		<path class="st7" d="M522.4,61.6v1.7h-1.8v-1.7H522.4z M520.8,65.4h1.5v9.1h-1.5V65.4z"/>
		<path class="st7" d="M532.2,73.3v1.2h-7.7v-1l5.7-6.9h-5.5v-1.2h7.3v1.1l-5.7,6.8H532.2z"/>
		<path class="st7" d="M542.1,65.4v9.1h-1.4v-1.6c-0.3,0.6-0.7,1-1.2,1.3s-1.2,0.5-1.9,0.5c-0.8,0-1.5-0.2-2.1-0.6s-1.1-0.9-1.4-1.6
			s-0.5-1.5-0.5-2.5c0-0.9,0.2-1.8,0.5-2.5s0.8-1.3,1.4-1.7c0.6-0.4,1.3-0.6,2.1-0.6c0.7,0,1.3,0.2,1.9,0.5c0.5,0.3,0.9,0.8,1.2,1.3
			v-1.6L542.1,65.4L542.1,65.4z M540,72.5c0.5-0.6,0.7-1.5,0.7-2.6s-0.2-2-0.7-2.6s-1.2-0.9-2.1-0.9s-1.6,0.3-2.1,0.9
			s-0.7,1.5-0.7,2.6s0.2,2,0.7,2.6s1.2,0.9,2.1,0.9S539.5,73.1,540,72.5z"/>
		<path class="st7" d="M546.9,66.6v5c0,0.7,0.1,1.1,0.4,1.4c0.3,0.3,0.7,0.4,1.2,0.4c0.3,0,0.7-0.1,1-0.2v1.2
			c-0.4,0.1-0.8,0.2-1.3,0.2c-0.9,0-1.5-0.2-2-0.7s-0.7-1.2-0.7-2.2v-5.1h-1.8v-1.2h1.8v-2.3l1.5-0.5v2.8h2.6v1.2
			C549.6,66.6,546.9,66.6,546.9,66.6z"/>
		<path class="st7" d="M552.9,61.6v1.7h-1.8v-1.7H552.9z M551.3,65.4h1.5v9.1h-1.5V65.4z"/>
		<path class="st7" d="M557,74c-0.6-0.4-1.1-0.9-1.5-1.6s-0.5-1.5-0.5-2.5c0-0.9,0.2-1.8,0.5-2.5c0.4-0.7,0.9-1.3,1.5-1.6
			c0.6-0.4,1.4-0.6,2.2-0.6c0.9,0,1.6,0.2,2.2,0.6c0.6,0.4,1.1,0.9,1.5,1.6s0.5,1.5,0.5,2.5c0,0.9-0.2,1.8-0.5,2.5
			c-0.4,0.7-0.9,1.3-1.5,1.6c-0.6,0.4-1.4,0.6-2.2,0.6S557.7,74.4,557,74z M561.4,72.5c0.5-0.6,0.7-1.5,0.7-2.6s-0.2-2-0.7-2.6
			s-1.2-0.9-2.1-0.9c-0.9,0-1.6,0.3-2.1,0.9s-0.7,1.5-0.7,2.6s0.2,2,0.7,2.6s1.2,0.9,2.1,0.9S560.9,73.1,561.4,72.5z"/>
		<path class="st7" d="M573.6,68.8v5.7h-1.5v-5.6c0-0.8-0.2-1.5-0.5-1.8s-0.9-0.6-1.6-0.6c-0.8,0-1.5,0.3-2,0.8s-0.8,1.2-0.8,2.1
			v5.2h-1.5V68c0-0.9,0-1.8-0.1-2.5h1.4l0.1,1.6c0.3-0.6,0.7-1,1.2-1.4c0.6-0.3,1.2-0.5,1.9-0.5C572.5,65.2,573.6,66.4,573.6,68.8z"
			/>
	</g>
	<g>
		<polygon class="st4" points="435.3,21 308.5,21 308.5,97 354.3,97 370.9,114.5 387.6,97 435.3,97 		"/>
		<path class="st7" d="M370.9,115l-16.8-17.7h-46V20.6h127.5v76.8h-47.9L370.9,115z M308.9,96.6h45.6l0.1,0.1l16.3,17.2l16.5-17.3
			h47.5V21.4h-126V96.6z"/>
	</g>
	<rect x="308.1" y="37.5" class="st6" width="125.6" height="41.9"/>
	<g class="st3">
		<path class="st7" d="M338.7,52.9h-1.6l-1.6-4.3c-0.2-0.5-0.5-0.9-0.8-1.1c-0.3-0.2-0.8-0.3-1.4-0.3h-3.2v5.6h-1.5V40h5.1
			c1.4,0,2.4,0.3,3.2,0.9c0.7,0.6,1.1,1.5,1.1,2.6c0,0.8-0.2,1.5-0.7,2.1c-0.4,0.6-1.1,1-1.9,1.2c0.4,0.1,0.7,0.2,1,0.5
			s0.5,0.6,0.7,1.1L338.7,52.9z M333.6,46c2,0,3-0.8,3-2.4c0-0.8-0.2-1.4-0.7-1.8s-1.2-0.6-2.2-0.6h-3.5V46H333.6z"/>
		<path class="st7" d="M348.5,48.3h-6.6c0,1.2,0.3,2,0.8,2.6s1.3,0.9,2.3,0.9c1.1,0,2-0.4,2.9-1.1l0.5,1.1c-0.4,0.4-0.9,0.7-1.5,0.9
			S345.7,53,345,53c-1.4,0-2.5-0.4-3.3-1.3c-0.8-0.8-1.2-2-1.2-3.4c0-0.9,0.2-1.7,0.5-2.5c0.4-0.7,0.9-1.3,1.5-1.7s1.4-0.6,2.2-0.6
			c1.2,0,2.1,0.4,2.8,1.2c0.7,0.8,1,1.9,1,3.2L348.5,48.3L348.5,48.3z M342.8,45.4c-0.5,0.5-0.8,1.1-0.9,1.9h5.3
			c-0.1-0.9-0.3-1.5-0.7-1.9c-0.4-0.4-1-0.7-1.8-0.7S343.3,45,342.8,45.4z"/>
		<path class="st7" d="M358.7,43.8v9.1h-1.4v-1.6c-0.3,0.6-0.7,1-1.2,1.3s-1.2,0.5-1.9,0.5c-0.8,0-1.5-0.2-2.1-0.6
			c-0.6-0.4-1.1-0.9-1.4-1.6s-0.5-1.5-0.5-2.5c0-0.9,0.2-1.8,0.5-2.5s0.8-1.3,1.4-1.7s1.3-0.6,2.1-0.6c0.7,0,1.3,0.2,1.9,0.5
			c0.5,0.3,0.9,0.8,1.2,1.3v-1.6C357.3,43.8,358.7,43.8,358.7,43.8z M356.5,50.9c0.5-0.6,0.7-1.5,0.7-2.6s-0.2-2-0.7-2.6
			s-1.2-0.9-2.1-0.9s-1.6,0.3-2.1,0.9s-0.7,1.5-0.7,2.6s0.2,2,0.7,2.6s1.2,0.9,2.1,0.9C355.4,51.8,356.1,51.5,356.5,50.9z"/>
		<path class="st7" d="M369.5,39.6v13.2h-1.4v-1.6c-0.3,0.6-0.7,1-1.2,1.3S365.7,53,365,53c-0.8,0-1.5-0.2-2.1-0.6
			c-0.6-0.4-1.1-1-1.4-1.7s-0.5-1.5-0.5-2.5c0-0.9,0.2-1.8,0.5-2.5s0.8-1.2,1.4-1.6c0.6-0.4,1.3-0.6,2.1-0.6c0.7,0,1.3,0.2,1.9,0.5
			c0.5,0.3,0.9,0.7,1.2,1.3v-5.7C368.1,39.6,369.5,39.6,369.5,39.6z M367.3,50.9c0.5-0.6,0.7-1.5,0.7-2.6s-0.2-2-0.7-2.6
			s-1.2-0.9-2.1-0.9s-1.6,0.3-2.1,0.9c-0.5,0.6-0.7,1.4-0.7,2.5s0.2,2,0.7,2.6s1.2,0.9,2.1,0.9C366.2,51.8,366.9,51.5,367.3,50.9z"
			/>
		<path class="st7" d="M374,40v1.7h-1.8V40H374z M372.3,43.8h1.5v9.1h-1.5V43.8z"/>
		<path class="st7" d="M384.4,47.2v5.7h-1.5v-5.6c0-0.8-0.2-1.5-0.5-1.8s-0.9-0.6-1.6-0.6c-0.8,0-1.5,0.3-2,0.8s-0.8,1.2-0.8,2.1V53
			h-1.5v-6.5c0-0.9,0-1.8-0.1-2.5h1.4l0.1,1.6c0.3-0.6,0.7-1,1.2-1.4c0.6-0.3,1.2-0.5,1.9-0.5C383.3,43.6,384.4,44.8,384.4,47.2z"/>
		<path class="st7" d="M394.7,48.3h-6.6c0,1.2,0.3,2,0.8,2.6s1.3,0.9,2.3,0.9c1.1,0,2-0.4,2.9-1.1l0.5,1.1c-0.4,0.4-0.9,0.7-1.5,0.9
			s-1.3,0.3-1.9,0.3c-1.4,0-2.5-0.4-3.3-1.3c-0.8-0.8-1.2-2-1.2-3.4c0-0.9,0.2-1.7,0.5-2.5c0.4-0.7,0.9-1.3,1.5-1.7s1.4-0.6,2.2-0.6
			c1.2,0,2.1,0.4,2.8,1.2s1,1.9,1,3.2L394.7,48.3L394.7,48.3z M389,45.4c-0.5,0.5-0.8,1.1-0.9,1.9h5.3c-0.1-0.9-0.3-1.5-0.7-1.9
			c-0.4-0.4-1-0.7-1.8-0.7S389.5,45,389,45.4z"/>
		<path class="st7" d="M396.4,51.8l0.5-1.1c0.5,0.4,1,0.7,1.5,0.8c0.5,0.2,1.1,0.3,1.7,0.3c0.7,0,1.2-0.1,1.6-0.4
			c0.4-0.2,0.5-0.6,0.5-1s-0.1-0.6-0.4-0.9c-0.2-0.2-0.6-0.4-1.2-0.5l-1.5-0.4c-0.8-0.2-1.3-0.5-1.8-0.9s-0.6-0.9-0.6-1.5
			c0-0.8,0.3-1.4,1-1.9c0.6-0.5,1.5-0.7,2.5-0.7c0.6,0,1.2,0.1,1.8,0.3c0.6,0.2,1,0.5,1.4,0.9l-0.5,1.1c-0.9-0.7-1.8-1.1-2.7-1.1
			c-0.6,0-1.1,0.1-1.5,0.4c-0.4,0.2-0.5,0.6-0.5,1s0.1,0.7,0.3,0.9c0.2,0.2,0.6,0.4,1.1,0.5L401,48c0.8,0.2,1.5,0.5,1.9,0.9
			s0.6,0.9,0.6,1.6c0,0.8-0.3,1.4-1,1.9S401.1,53,400,53C398.5,53,397.3,52.6,396.4,51.8z"/>
		<path class="st7" d="M405.3,51.8l0.5-1.1c0.5,0.4,1,0.7,1.5,0.8c0.5,0.2,1.1,0.3,1.7,0.3c0.7,0,1.2-0.1,1.6-0.4
			c0.4-0.2,0.5-0.6,0.5-1s-0.1-0.6-0.4-0.9c-0.2-0.2-0.6-0.4-1.2-0.5l-1.5-0.4c-0.8-0.2-1.3-0.5-1.8-0.9s-0.6-0.9-0.6-1.5
			c0-0.8,0.3-1.4,1-1.9c0.6-0.5,1.5-0.7,2.5-0.7c0.6,0,1.2,0.1,1.8,0.3c0.6,0.2,1,0.5,1.4,0.9l-0.5,1.1c-0.9-0.7-1.8-1.1-2.7-1.1
			c-0.6,0-1.1,0.1-1.5,0.4c-0.4,0.2-0.5,0.6-0.5,1s0.1,0.7,0.3,0.9c0.2,0.2,0.6,0.4,1.1,0.5L410,48c0.8,0.2,1.5,0.5,1.9,0.9
			s0.6,0.9,0.6,1.6c0,0.8-0.3,1.4-1,1.9S410,53,408.9,53C407.4,53,406.2,52.6,405.3,51.8z"/>
	</g>
	<g class="st3">
		<path class="st7" d="M329.5,71.2h-6.7l-1.4,3.3h-1.5l5.6-12.8h1.3l5.6,12.8h-1.5L329.5,71.2z M329,69.9l-2.8-6.6l-2.8,6.6H329z"/>
		<path class="st7" d="M333.5,73.4l0.5-1.1c0.5,0.4,1,0.7,1.5,0.8s1.1,0.3,1.7,0.3c0.7,0,1.2-0.1,1.6-0.4c0.4-0.2,0.5-0.6,0.5-1
			s-0.1-0.6-0.4-0.9c-0.2-0.2-0.6-0.4-1.2-0.5l-1.5-0.4c-0.8-0.2-1.3-0.5-1.8-0.9s-0.6-0.9-0.6-1.5c0-0.8,0.3-1.4,1-1.9
			c0.6-0.5,1.5-0.7,2.5-0.7c0.6,0,1.2,0.1,1.8,0.3s1,0.5,1.4,0.9l-0.5,1.1c-0.9-0.7-1.8-1.1-2.7-1.1c-0.6,0-1.1,0.1-1.5,0.4
			s-0.5,0.6-0.5,1s0.1,0.7,0.3,0.9s0.6,0.4,1.1,0.5l1.5,0.4c0.8,0.2,1.5,0.5,1.9,0.9s0.6,0.9,0.6,1.6c0,0.8-0.3,1.4-1,1.9
			c-0.6,0.5-1.5,0.7-2.6,0.7C335.6,74.6,334.4,74.2,333.5,73.4z"/>
		<path class="st7" d="M342.4,73.4l0.5-1.1c0.5,0.4,1,0.7,1.5,0.8s1.1,0.3,1.7,0.3c0.7,0,1.2-0.1,1.6-0.4c0.4-0.2,0.5-0.6,0.5-1
			s-0.1-0.6-0.4-0.9c-0.2-0.2-0.6-0.4-1.2-0.5l-1.5-0.4c-0.8-0.2-1.3-0.5-1.8-0.9s-0.6-0.9-0.6-1.5c0-0.8,0.3-1.4,1-1.9
			c0.6-0.5,1.5-0.7,2.5-0.7c0.6,0,1.2,0.1,1.8,0.3s1,0.5,1.4,0.9l-0.5,1.1c-0.9-0.7-1.8-1.1-2.7-1.1c-0.6,0-1.1,0.1-1.5,0.4
			s-0.5,0.6-0.5,1s0.1,0.7,0.3,0.9s0.6,0.4,1.1,0.5l1.5,0.4c0.8,0.2,1.5,0.5,1.9,0.9s0.6,0.9,0.6,1.6c0,0.8-0.3,1.4-1,1.9
			c-0.6,0.5-1.5,0.7-2.6,0.7C344.5,74.6,343.3,74.2,342.4,73.4z"/>
		<path class="st7" d="M359.5,69.9h-6.6c0,1.2,0.3,2,0.8,2.6s1.3,0.9,2.3,0.9c1.1,0,2-0.4,2.9-1.1l0.5,1.1c-0.4,0.4-0.9,0.7-1.5,0.9
			s-1.3,0.3-1.9,0.3c-1.4,0-2.5-0.4-3.3-1.3c-0.8-0.8-1.2-2-1.2-3.4c0-0.9,0.2-1.7,0.5-2.5c0.4-0.7,0.9-1.3,1.5-1.7
			c0.6-0.4,1.4-0.6,2.2-0.6c1.2,0,2.1,0.4,2.8,1.2s1,1.9,1,3.2L359.5,69.9L359.5,69.9z M353.8,67c-0.5,0.5-0.8,1.1-0.9,1.9h5.3
			c-0.1-0.9-0.3-1.5-0.7-1.9c-0.4-0.4-1-0.7-1.8-0.7S354.3,66.6,353.8,67z"/>
		<path class="st7" d="M361.1,73.4l0.5-1.1c0.5,0.4,1,0.7,1.5,0.8c0.5,0.2,1.1,0.3,1.7,0.3c0.7,0,1.2-0.1,1.6-0.4
			c0.4-0.2,0.5-0.6,0.5-1s-0.1-0.6-0.4-0.9c-0.2-0.2-0.6-0.4-1.2-0.5l-1.5-0.4c-0.8-0.2-1.3-0.5-1.8-0.9s-0.6-0.9-0.6-1.5
			c0-0.8,0.3-1.4,1-1.9c0.6-0.5,1.5-0.7,2.5-0.7c0.6,0,1.2,0.1,1.8,0.3s1,0.5,1.4,0.9l-0.5,1.1c-0.9-0.7-1.8-1.1-2.7-1.1
			c-0.6,0-1.1,0.1-1.5,0.4s-0.5,0.6-0.5,1s0.1,0.7,0.3,0.9s0.6,0.4,1.1,0.5l1.5,0.4c0.8,0.2,1.5,0.5,1.9,0.9s0.6,0.9,0.6,1.6
			c0,0.8-0.3,1.4-1,1.9c-0.6,0.5-1.5,0.7-2.6,0.7C363.2,74.6,362,74.2,361.1,73.4z"/>
		<path class="st7" d="M370.1,73.4l0.5-1.1c0.5,0.4,1,0.7,1.5,0.8c0.5,0.2,1.1,0.3,1.7,0.3c0.7,0,1.2-0.1,1.6-0.4
			c0.4-0.2,0.5-0.6,0.5-1s-0.1-0.6-0.4-0.9c-0.2-0.2-0.6-0.4-1.2-0.5l-1.5-0.4c-0.8-0.2-1.3-0.5-1.8-0.9s-0.6-0.9-0.6-1.5
			c0-0.8,0.3-1.4,1-1.9c0.6-0.5,1.5-0.7,2.5-0.7c0.6,0,1.2,0.1,1.8,0.3s1,0.5,1.4,0.9l-0.5,1.1c-0.9-0.7-1.8-1.1-2.7-1.1
			c-0.6,0-1.1,0.1-1.5,0.4s-0.5,0.6-0.5,1s0.1,0.7,0.3,0.9s0.6,0.4,1.1,0.5l1.5,0.4c0.8,0.2,1.5,0.5,1.9,0.9s0.6,0.9,0.6,1.6
			c0,0.8-0.3,1.4-1,1.9c-0.6,0.5-1.5,0.7-2.6,0.7C372.2,74.6,371,74.2,370.1,73.4z"/>
		<path class="st7" d="M392.6,68.8v5.7h-1.5v-5.6c0-0.9-0.1-1.5-0.4-1.9s-0.8-0.6-1.4-0.6c-0.8,0-1.4,0.3-1.8,0.8s-0.6,1.2-0.6,2.1
			v5.2h-1.5v-5.6c0-0.8-0.2-1.5-0.4-1.8c-0.3-0.4-0.8-0.6-1.4-0.6c-0.8,0-1.4,0.3-1.8,0.8s-0.7,1.2-0.7,2.1v5.2h-1.5V68
			c0-0.9,0-1.8-0.1-2.5h1.4l0.1,1.6c0.3-0.6,0.6-1,1.1-1.3s1.1-0.5,1.7-0.5c0.7,0,1.3,0.1,1.8,0.4s0.8,0.7,1,1.3
			c0.3-0.5,0.7-1,1.2-1.3s1.1-0.5,1.8-0.5C391.6,65.2,392.6,66.4,392.6,68.8z"/>
		<path class="st7" d="M403,69.9h-6.6c0,1.2,0.3,2,0.8,2.6s1.3,0.9,2.3,0.9c1.1,0,2-0.4,2.9-1.1l0.5,1.1c-0.4,0.4-0.9,0.7-1.5,0.9
			c-0.6,0.2-1.2,0.3-1.9,0.3c-1.4,0-2.5-0.4-3.3-1.3c-0.8-0.8-1.2-2-1.2-3.4c0-0.9,0.2-1.7,0.5-2.5c0.4-0.7,0.9-1.3,1.5-1.7
			c0.6-0.4,1.4-0.6,2.2-0.6c1.2,0,2.1,0.4,2.8,1.2c0.7,0.8,1,1.9,1,3.2L403,69.9L403,69.9z M397.3,67c-0.5,0.5-0.8,1.1-0.9,1.9h5.3
			c-0.1-0.9-0.3-1.5-0.7-1.9c-0.4-0.4-1-0.7-1.8-0.7S397.8,66.6,397.3,67z"/>
		<path class="st7" d="M413,68.8v5.7h-1.5v-5.6c0-0.8-0.2-1.5-0.5-1.8s-0.9-0.6-1.6-0.6c-0.8,0-1.5,0.3-2,0.8s-0.8,1.2-0.8,2.1v5.2
			h-1.5V68c0-0.9,0-1.8-0.1-2.5h1.4l0.1,1.6c0.3-0.6,0.7-1,1.2-1.4c0.6-0.3,1.2-0.5,1.9-0.5C411.9,65.2,413,66.4,413,68.8z"/>
		<path class="st7" d="M417.6,66.6v5c0,0.7,0.1,1.1,0.4,1.4s0.7,0.4,1.2,0.4c0.3,0,0.7-0.1,1-0.2v1.2c-0.4,0.1-0.8,0.2-1.3,0.2
			c-0.9,0-1.5-0.2-2-0.7s-0.7-1.2-0.7-2.2v-5.1h-1.8v-1.2h1.8v-2.3l1.5-0.5v2.8h2.6v1.2C420.3,66.6,417.6,66.6,417.6,66.6z"/>
	</g>
	<g>
		<polygon class="st4" points="463.7,213.1 446.2,194.6 428.6,213.1 383.7,213.1 383.7,294.1 508.6,294.1 508.6,213.1 		"/>
		<path class="st5" d="M509,294.5H383.3v-81.8h45.1l17.8-18.7l17.7,18.7H509V294.5z M384.1,293.7h124.1v-80.2h-44.7l-0.1-0.1
			l-17.2-18.2l-17.4,18.3h-44.7L384.1,293.7L384.1,293.7z"/>
	</g>
	<rect x="386.7" y="234.5" class="st6" width="119" height="41.9"/>
	<g class="st3">
		<path class="st5" d="M413.9,249.9h-1.6l-1.6-4.3c-0.2-0.5-0.5-0.9-0.8-1.1s-0.8-0.3-1.4-0.3h-3.2v5.6h-1.5V237h5.1
			c1.4,0,2.4,0.3,3.2,0.9c0.7,0.6,1.1,1.5,1.1,2.6c0,0.8-0.2,1.5-0.7,2.1c-0.4,0.6-1.1,1-1.9,1.2c0.4,0.1,0.7,0.2,1,0.5
			s0.5,0.6,0.7,1.1L413.9,249.9z M408.8,243.1c2,0,3-0.8,3-2.4c0-0.8-0.2-1.4-0.7-1.8c-0.5-0.4-1.2-0.6-2.2-0.6h-3.5v4.8H408.8z"/>
		<path class="st5" d="M423.7,245.4h-6.6c0,1.2,0.3,2,0.8,2.6s1.3,0.9,2.3,0.9c1.1,0,2-0.4,2.9-1.1l0.5,1.1
			c-0.4,0.4-0.9,0.7-1.5,0.9s-1.3,0.3-1.9,0.3c-1.4,0-2.5-0.4-3.3-1.3s-1.2-2-1.2-3.4c0-0.9,0.2-1.7,0.5-2.5s0.9-1.3,1.5-1.7
			s1.4-0.6,2.2-0.6c1.2,0,2.1,0.4,2.8,1.2c0.7,0.8,1,1.9,1,3.2L423.7,245.4L423.7,245.4z M418.1,242.5c-0.5,0.5-0.8,1.1-0.9,1.9h5.3
			c-0.1-0.9-0.3-1.5-0.7-1.9c-0.4-0.4-1-0.7-1.8-0.7S418.5,242,418.1,242.5z"/>
		<path class="st5" d="M433.9,240.9v9.1h-1.4v-1.6c-0.3,0.6-0.7,1-1.2,1.3s-1.2,0.5-1.9,0.5c-0.8,0-1.5-0.2-2.1-0.6
			c-0.6-0.4-1.1-0.9-1.4-1.6s-0.5-1.5-0.5-2.5c0-0.9,0.2-1.8,0.5-2.5s0.8-1.3,1.4-1.7s1.3-0.6,2.1-0.6c0.7,0,1.3,0.2,1.9,0.5
			c0.5,0.3,0.9,0.8,1.2,1.3v-1.6L433.9,240.9L433.9,240.9z M431.8,247.9c0.5-0.6,0.7-1.5,0.7-2.6s-0.2-2-0.7-2.6s-1.2-0.9-2.1-0.9
			s-1.6,0.3-2.1,0.9s-0.7,1.5-0.7,2.6s0.2,2,0.7,2.6s1.2,0.9,2.1,0.9C430.6,248.8,431.3,248.5,431.8,247.9z"/>
		<path class="st5" d="M444.7,236.7v13.2h-1.4v-1.6c-0.3,0.6-0.7,1-1.2,1.3s-1.2,0.5-1.9,0.5c-0.8,0-1.5-0.2-2.1-0.6
			c-0.6-0.4-1.1-1-1.4-1.7s-0.5-1.5-0.5-2.5c0-0.9,0.2-1.8,0.5-2.5s0.8-1.2,1.4-1.6c0.6-0.4,1.3-0.6,2.1-0.6c0.7,0,1.3,0.2,1.9,0.5
			c0.5,0.3,0.9,0.7,1.2,1.3v-5.7L444.7,236.7L444.7,236.7z M442.6,247.9c0.5-0.6,0.7-1.5,0.7-2.6s-0.2-2-0.7-2.6s-1.2-0.9-2.1-0.9
			s-1.6,0.3-2.1,0.9c-0.5,0.6-0.7,1.4-0.7,2.5s0.2,2,0.7,2.6s1.2,0.9,2.1,0.9S442.1,248.5,442.6,247.9z"/>
		<path class="st5" d="M449.2,237v1.7h-1.8V237H449.2z M447.5,240.9h1.5v9.1h-1.5V240.9z"/>
		<path class="st5" d="M459.6,244.2v5.7h-1.5v-5.6c0-0.8-0.2-1.5-0.5-1.8s-0.9-0.6-1.6-0.6c-0.8,0-1.5,0.3-2,0.8s-0.8,1.2-0.8,2.1
			v5.2h-1.5v-6.5c0-0.9,0-1.8-0.1-2.5h1.4l0.1,1.6c0.3-0.6,0.7-1,1.2-1.4c0.6-0.3,1.2-0.5,1.9-0.5
			C458.5,240.7,459.6,241.8,459.6,244.2z"/>
		<path class="st5" d="M469.9,245.4h-6.6c0,1.2,0.3,2,0.8,2.6s1.3,0.9,2.3,0.9c1.1,0,2-0.4,2.9-1.1l0.5,1.1
			c-0.4,0.4-0.9,0.7-1.5,0.9s-1.3,0.3-1.9,0.3c-1.4,0-2.5-0.4-3.3-1.3c-0.8-0.8-1.2-2-1.2-3.4c0-0.9,0.2-1.7,0.5-2.5
			c0.4-0.7,0.9-1.3,1.5-1.7s1.4-0.6,2.2-0.6c1.2,0,2.1,0.4,2.8,1.2c0.7,0.8,1,1.9,1,3.2L469.9,245.4L469.9,245.4z M464.3,242.5
			c-0.5,0.5-0.8,1.1-0.9,1.9h5.3c-0.1-0.9-0.3-1.5-0.7-1.9c-0.4-0.4-1-0.7-1.8-0.7S464.7,242,464.3,242.5z"/>
		<path class="st5" d="M471.6,248.9l0.5-1.1c0.5,0.4,1,0.7,1.5,0.8s1.1,0.3,1.7,0.3c0.7,0,1.2-0.1,1.6-0.4c0.4-0.2,0.5-0.6,0.5-1
			s-0.1-0.6-0.4-0.9c-0.2-0.2-0.6-0.4-1.2-0.5l-1.5-0.4c-0.8-0.2-1.3-0.5-1.8-0.9s-0.6-0.9-0.6-1.5c0-0.8,0.3-1.4,1-1.9
			c0.6-0.5,1.5-0.7,2.5-0.7c0.6,0,1.2,0.1,1.8,0.3c0.6,0.2,1,0.5,1.4,0.9l-0.5,1.1c-0.9-0.7-1.8-1.1-2.7-1.1c-0.6,0-1.1,0.1-1.5,0.4
			c-0.4,0.2-0.5,0.6-0.5,1s0.1,0.7,0.3,0.9c0.2,0.2,0.6,0.4,1.1,0.5l1.5,0.4c0.8,0.2,1.5,0.5,1.9,0.9s0.6,0.9,0.6,1.6
			c0,0.8-0.3,1.4-1,1.9c-0.6,0.5-1.5,0.7-2.6,0.7C473.7,250.1,472.5,249.7,471.6,248.9z"/>
		<path class="st5" d="M480.5,248.9l0.5-1.1c0.5,0.4,1,0.7,1.5,0.8s1.1,0.3,1.7,0.3c0.7,0,1.2-0.1,1.6-0.4c0.4-0.2,0.5-0.6,0.5-1
			s-0.1-0.6-0.4-0.9c-0.2-0.2-0.6-0.4-1.2-0.5l-1.5-0.4c-0.8-0.2-1.3-0.5-1.8-0.9s-0.6-0.9-0.6-1.5c0-0.8,0.3-1.4,1-1.9
			c0.6-0.5,1.5-0.7,2.5-0.7c0.6,0,1.2,0.1,1.8,0.3c0.6,0.2,1,0.5,1.4,0.9L487,243c-0.9-0.7-1.8-1.1-2.7-1.1c-0.6,0-1.1,0.1-1.5,0.4
			c-0.4,0.2-0.5,0.6-0.5,1s0.1,0.7,0.3,0.9c0.2,0.2,0.6,0.4,1.1,0.5l1.5,0.4c0.8,0.2,1.5,0.5,1.9,0.9s0.6,0.9,0.6,1.6
			c0,0.8-0.3,1.4-1,1.9c-0.6,0.5-1.5,0.7-2.6,0.7C482.6,250.1,481.4,249.7,480.5,248.9z"/>
	</g>
	<g class="st3">
		<path class="st5" d="M404.8,268.2h-6.7l-1.4,3.3h-1.5l5.6-12.8h1.3l5.6,12.8h-1.5L404.8,268.2z M404.2,267l-2.8-6.6l-2.8,6.6
			H404.2z"/>
		<path class="st5" d="M408.7,270.5l0.5-1.1c0.5,0.4,1,0.7,1.5,0.8c0.5,0.2,1.1,0.3,1.7,0.3c0.7,0,1.2-0.1,1.6-0.4
			c0.4-0.2,0.5-0.6,0.5-1s-0.1-0.6-0.4-0.9c-0.2-0.2-0.6-0.4-1.2-0.5l-1.5-0.4c-0.8-0.2-1.3-0.5-1.8-0.9s-0.6-0.9-0.6-1.5
			c0-0.8,0.3-1.4,1-1.9c0.6-0.5,1.5-0.7,2.5-0.7c0.6,0,1.2,0.1,1.8,0.3c0.6,0.2,1,0.5,1.4,0.9l-0.5,1.1c-0.9-0.7-1.8-1.1-2.7-1.1
			c-0.6,0-1.1,0.1-1.5,0.4c-0.4,0.2-0.5,0.6-0.5,1s0.1,0.7,0.3,0.9c0.2,0.2,0.6,0.4,1.1,0.5l1.5,0.4c0.8,0.2,1.5,0.5,1.9,0.9
			s0.6,0.9,0.6,1.6c0,0.8-0.3,1.4-1,1.9s-1.5,0.7-2.6,0.7C410.8,271.7,409.6,271.3,408.7,270.5z"/>
		<path class="st5" d="M417.7,270.5l0.5-1.1c0.5,0.4,1,0.7,1.5,0.8c0.5,0.2,1.1,0.3,1.7,0.3c0.7,0,1.2-0.1,1.6-0.4
			c0.4-0.2,0.5-0.6,0.5-1s-0.1-0.6-0.4-0.9c-0.2-0.2-0.6-0.4-1.2-0.5l-1.5-0.4c-0.8-0.2-1.3-0.5-1.8-0.9s-0.6-0.9-0.6-1.5
			c0-0.8,0.3-1.4,1-1.9c0.6-0.5,1.5-0.7,2.5-0.7c0.6,0,1.2,0.1,1.8,0.3c0.6,0.2,1,0.5,1.4,0.9l-0.5,1.1c-0.9-0.7-1.8-1.1-2.7-1.1
			c-0.6,0-1.1,0.1-1.5,0.4c-0.4,0.2-0.5,0.6-0.5,1s0.1,0.7,0.3,0.9c0.2,0.2,0.6,0.4,1.1,0.5l1.5,0.4c0.8,0.2,1.5,0.5,1.9,0.9
			s0.6,0.9,0.6,1.6c0,0.8-0.3,1.4-1,1.9s-1.5,0.7-2.6,0.7C419.7,271.7,418.5,271.3,417.7,270.5z"/>
		<path class="st5" d="M434.7,267h-6.6c0,1.2,0.3,2,0.8,2.6s1.3,0.9,2.3,0.9c1.1,0,2-0.4,2.9-1.1l0.5,1.1c-0.4,0.4-0.9,0.7-1.5,0.9
			s-1.3,0.3-1.9,0.3c-1.4,0-2.5-0.4-3.3-1.3c-0.8-0.8-1.2-2-1.2-3.4c0-0.9,0.2-1.7,0.5-2.5c0.4-0.7,0.9-1.3,1.5-1.7
			c0.6-0.4,1.4-0.6,2.2-0.6c1.2,0,2.1,0.4,2.8,1.2c0.7,0.8,1,1.9,1,3.2L434.7,267L434.7,267z M429,264.1c-0.5,0.5-0.8,1.1-0.9,1.9
			h5.3c-0.1-0.9-0.3-1.5-0.7-1.9c-0.4-0.4-1-0.7-1.8-0.7S429.5,263.6,429,264.1z"/>
		<path class="st5" d="M436.4,270.5l0.5-1.1c0.5,0.4,1,0.7,1.5,0.8c0.5,0.2,1.1,0.3,1.7,0.3c0.7,0,1.2-0.1,1.6-0.4
			c0.4-0.2,0.5-0.6,0.5-1s-0.1-0.6-0.4-0.9c-0.2-0.2-0.6-0.4-1.2-0.5l-1.5-0.4c-0.8-0.2-1.3-0.5-1.8-0.9s-0.6-0.9-0.6-1.5
			c0-0.8,0.3-1.4,1-1.9c0.6-0.5,1.5-0.7,2.5-0.7c0.6,0,1.2,0.1,1.8,0.3c0.6,0.2,1,0.5,1.4,0.9l-0.5,1.1c-0.9-0.7-1.8-1.1-2.7-1.1
			c-0.6,0-1.1,0.1-1.5,0.4c-0.4,0.2-0.5,0.6-0.5,1s0.1,0.7,0.3,0.9c0.2,0.2,0.6,0.4,1.1,0.5l1.5,0.4c0.8,0.2,1.5,0.5,1.9,0.9
			s0.6,0.9,0.6,1.6c0,0.8-0.3,1.4-1,1.9s-1.5,0.7-2.6,0.7C438.5,271.7,437.3,271.3,436.4,270.5z"/>
		<path class="st5" d="M445.3,270.5l0.5-1.1c0.5,0.4,1,0.7,1.5,0.8c0.5,0.2,1.1,0.3,1.7,0.3c0.7,0,1.2-0.1,1.6-0.4
			c0.4-0.2,0.5-0.6,0.5-1s-0.1-0.6-0.4-0.9c-0.2-0.2-0.6-0.4-1.2-0.5l-1.5-0.4c-0.8-0.2-1.3-0.5-1.8-0.9s-0.6-0.9-0.6-1.5
			c0-0.8,0.3-1.4,1-1.9c0.6-0.5,1.5-0.7,2.5-0.7c0.6,0,1.2,0.1,1.8,0.3c0.6,0.2,1,0.5,1.4,0.9l-0.5,1.1c-0.9-0.7-1.8-1.1-2.7-1.1
			c-0.6,0-1.1,0.1-1.5,0.4c-0.4,0.2-0.5,0.6-0.5,1s0.1,0.7,0.3,0.9c0.2,0.2,0.6,0.4,1.1,0.5l1.5,0.4c0.8,0.2,1.5,0.5,1.9,0.9
			s0.6,0.9,0.6,1.6c0,0.8-0.3,1.4-1,1.9s-1.5,0.7-2.6,0.7C447.4,271.7,446.2,271.3,445.3,270.5z"/>
		<path class="st5" d="M467.8,265.8v5.7h-1.5v-5.6c0-0.9-0.1-1.5-0.4-1.9s-0.8-0.6-1.4-0.6c-0.8,0-1.4,0.3-1.8,0.8s-0.6,1.2-0.6,2.1
			v5.2h-1.5v-5.6c0-0.8-0.2-1.5-0.5-1.8s-0.8-0.6-1.4-0.6c-0.8,0-1.4,0.3-1.8,0.8s-0.7,1.2-0.7,2.1v5.2h-1.5V265
			c0-0.9,0-1.8-0.1-2.5h1.4l0.1,1.6c0.3-0.6,0.6-1,1.1-1.3s1.1-0.5,1.7-0.5c0.7,0,1.3,0.1,1.8,0.4s0.8,0.7,1,1.3
			c0.3-0.5,0.7-1,1.2-1.3s1.1-0.5,1.8-0.5C466.8,262.3,467.8,263.4,467.8,265.8z"/>
		<path class="st5" d="M478.2,267h-6.6c0,1.2,0.3,2,0.8,2.6s1.3,0.9,2.3,0.9c1.1,0,2-0.4,2.9-1.1l0.5,1.1c-0.4,0.4-0.9,0.7-1.5,0.9
			s-1.3,0.3-1.9,0.3c-1.4,0-2.5-0.4-3.3-1.3s-1.2-2-1.2-3.4c0-0.9,0.2-1.7,0.5-2.5s0.9-1.3,1.5-1.7c0.6-0.4,1.4-0.6,2.2-0.6
			c1.2,0,2.1,0.4,2.8,1.2c0.7,0.8,1,1.9,1,3.2L478.2,267L478.2,267z M472.5,264.1c-0.5,0.5-0.8,1.1-0.9,1.9h5.3
			c-0.1-0.9-0.3-1.5-0.7-1.9c-0.4-0.4-1-0.7-1.8-0.7S473,263.6,472.5,264.1z"/>
		<path class="st5" d="M488.2,265.8v5.7h-1.5v-5.6c0-0.8-0.2-1.5-0.5-1.8s-0.9-0.6-1.6-0.6c-0.8,0-1.5,0.3-2,0.8s-0.8,1.2-0.8,2.1
			v5.2h-1.5V265c0-0.9,0-1.8-0.1-2.5h1.4l0.1,1.6c0.3-0.6,0.7-1,1.2-1.4c0.6-0.3,1.2-0.5,1.9-0.5
			C487.1,262.3,488.2,263.4,488.2,265.8z"/>
		<path class="st5" d="M492.9,263.6v5c0,0.7,0.1,1.1,0.4,1.4s0.7,0.4,1.2,0.4c0.3,0,0.7-0.1,1-0.2v1.2c-0.4,0.1-0.8,0.2-1.3,0.2
			c-0.9,0-1.5-0.2-2-0.7s-0.7-1.2-0.7-2.2v-5.1h-1.8v-1.2h1.8v-2.3l1.5-0.5v2.8h2.6v1.2L492.9,263.6L492.9,263.6z"/>
	</g>
	<g>
		<polygon class="st4" points="318.9,213.1 301.3,194.6 283.8,213.1 238.9,213.1 238.9,294.1 363.7,294.1 363.7,213.1 		"/>
		<path class="st5" d="M364.1,294.5H238.5v-81.8h45.1l17.7-18.7l17.8,18.7h45V294.5z M239.3,293.7h124.1v-80.2h-44.6l-17.4-18.3
			L284,213.5h-44.7V293.7z"/>
	</g>
	<g class="st3">
		<path class="st5" d="M260.5,237.1h7.9v1.2H262v4.4h6.1v1.2H262v5.9h-1.5V237.1z"/>
		<path class="st5" d="M277.8,245.4h-6.6c0,1.2,0.3,2,0.8,2.6s1.3,0.9,2.3,0.9c1.1,0,2-0.4,2.9-1.1l0.5,1.1
			c-0.4,0.4-0.9,0.7-1.5,0.9s-1.3,0.3-1.9,0.3c-1.4,0-2.5-0.4-3.3-1.3c-0.8-0.8-1.2-2-1.2-3.4c0-0.9,0.2-1.7,0.5-2.5
			c0.4-0.7,0.9-1.3,1.5-1.7s1.4-0.6,2.2-0.6c1.2,0,2.1,0.4,2.8,1.2s1,1.9,1,3.2L277.8,245.4L277.8,245.4z M272.2,242.5
			c-0.5,0.5-0.8,1.1-0.9,1.9h5.3c-0.1-0.9-0.3-1.5-0.7-1.9c-0.4-0.4-1-0.7-1.8-0.7S272.6,242,272.2,242.5z"/>
		<path class="st5" d="M288,236.7v13.2h-1.4v-1.6c-0.3,0.6-0.7,1-1.2,1.3s-1.2,0.5-1.9,0.5c-0.8,0-1.5-0.2-2.1-0.6
			c-0.6-0.4-1.1-1-1.4-1.7s-0.5-1.5-0.5-2.5c0-0.9,0.2-1.8,0.5-2.5s0.8-1.2,1.4-1.6c0.6-0.4,1.3-0.6,2.1-0.6c0.7,0,1.3,0.2,1.9,0.5
			c0.5,0.3,0.9,0.7,1.2,1.3v-5.7L288,236.7L288,236.7z M285.9,248c0.5-0.6,0.7-1.5,0.7-2.6s-0.2-2-0.7-2.6s-1.2-0.9-2.1-0.9
			s-1.6,0.3-2.1,0.9c-0.5,0.6-0.7,1.4-0.7,2.5s0.2,2,0.7,2.6s1.2,0.9,2.1,0.9C284.7,248.9,285.4,248.6,285.9,248z"/>
		<path class="st5" d="M301.1,249.9h-1.6l-1.6-4.3c-0.2-0.5-0.5-0.9-0.8-1.1c-0.3-0.2-0.8-0.3-1.4-0.3h-3.2v5.6H291V237h5.1
			c1.4,0,2.4,0.3,3.2,0.9c0.7,0.6,1.1,1.5,1.1,2.6c0,0.8-0.2,1.5-0.7,2.1c-0.4,0.6-1.1,1-1.9,1.2c0.4,0.1,0.7,0.2,1,0.5
			s0.5,0.6,0.7,1.1L301.1,249.9z M296,243.1c2,0,3-0.8,3-2.4c0-0.8-0.2-1.4-0.7-1.8c-0.5-0.4-1.2-0.6-2.2-0.6h-3.5v4.8H296z"/>
		<path class="st5" d="M311.8,246.6h-6.7l-1.4,3.3h-1.5l5.6-12.8h1.3l5.6,12.8h-1.5L311.8,246.6z M311.3,245.4l-2.8-6.6l-2.8,6.6
			H311.3z"/>
		<path class="st5" d="M328.7,237.1v12.8h-1.4v-9.5l-4.2,9.5h-1l-4.2-9.5v9.5h-1.4v-12.8h1.2l4.9,11.1l4.8-11.1H328.7z"/>
		<path class="st5" d="M331.9,237.1h5.1c1.3,0,2.3,0.3,3.1,1c0.7,0.6,1.1,1.5,1.1,2.6s-0.4,2-1.1,2.6s-1.8,1-3.1,1h-3.6v5.6h-1.5
			V237.1z M336.9,243.1c0.9,0,1.7-0.2,2.1-0.6c0.5-0.4,0.7-1,0.7-1.8s-0.2-1.4-0.7-1.8c-0.5-0.4-1.2-0.6-2.1-0.6h-3.5v4.7h3.5V243.1
			z"/>
	</g>
	<g class="st3">
		<path class="st5" d="M270.2,270.9c-0.9-0.5-1.6-1.3-2.1-2.3s-0.7-2.2-0.7-3.5s0.2-2.5,0.7-3.5s1.2-1.7,2.1-2.3s1.9-0.8,3.2-0.8
			c0.9,0,1.7,0.1,2.4,0.4c0.7,0.3,1.4,0.7,1.9,1.2l-0.6,1.1c-0.6-0.5-1.2-0.9-1.8-1.1c-0.6-0.2-1.3-0.3-2-0.3
			c-1.4,0-2.5,0.5-3.3,1.4s-1.2,2.2-1.2,3.9c0,1.7,0.4,3,1.2,3.9s1.9,1.4,3.3,1.4c0.7,0,1.4-0.1,2-0.3c0.6-0.2,1.2-0.6,1.8-1.1
			l0.6,1.1c-0.5,0.5-1.2,0.9-1.9,1.2c-0.7,0.3-1.6,0.4-2.4,0.4C272.2,271.7,271.1,271.4,270.2,270.9z"/>
		<path class="st5" d="M281.3,271.1c-0.6-0.4-1.1-0.9-1.5-1.6s-0.5-1.5-0.5-2.5c0-0.9,0.2-1.8,0.5-2.5s0.9-1.3,1.5-1.6
			c0.6-0.4,1.4-0.6,2.2-0.6s1.6,0.2,2.2,0.6s1.1,0.9,1.5,1.6s0.5,1.5,0.5,2.5c0,0.9-0.2,1.8-0.5,2.5s-0.9,1.3-1.5,1.6
			c-0.6,0.4-1.4,0.6-2.2,0.6S282,271.5,281.3,271.1z M285.7,269.6c0.5-0.6,0.7-1.5,0.7-2.6s-0.2-2-0.7-2.6s-1.2-0.9-2.1-0.9
			s-1.6,0.3-2.1,0.9s-0.7,1.5-0.7,2.6s0.2,2,0.7,2.6s1.2,0.9,2.1,0.9S285.2,270.2,285.7,269.6z"/>
		<path class="st5" d="M297.9,265.9v5.7h-1.5V266c0-0.8-0.2-1.5-0.5-1.8s-0.9-0.6-1.6-0.6c-0.8,0-1.5,0.3-2,0.8s-0.8,1.2-0.8,2.1
			v5.2H290V265c0-0.9,0-1.8-0.1-2.5h1.4l0.1,1.6c0.3-0.6,0.7-1,1.2-1.4c0.6-0.3,1.2-0.5,1.9-0.5
			C296.8,262.3,297.9,263.5,297.9,265.9z"/>
		<path class="st5" d="M308.4,265.9v5.7H307V266c0-0.8-0.2-1.5-0.5-1.8s-0.9-0.6-1.6-0.6c-0.8,0-1.5,0.3-2,0.8s-0.8,1.2-0.8,2.1v5.2
			h-1.5V265c0-0.9,0-1.8-0.1-2.5h1.4l0.1,1.6c0.3-0.6,0.7-1,1.2-1.4c0.6-0.3,1.2-0.5,1.9-0.5C307.4,262.3,308.4,263.5,308.4,265.9z"
			/>
		<path class="st5" d="M318.8,267h-6.6c0,1.2,0.3,2,0.8,2.6s1.3,0.9,2.3,0.9c1.1,0,2-0.4,2.9-1.1l0.5,1.1c-0.4,0.4-0.9,0.7-1.5,0.9
			s-1.3,0.3-1.9,0.3c-1.4,0-2.5-0.4-3.3-1.3c-0.8-0.8-1.2-2-1.2-3.4c0-0.9,0.2-1.7,0.5-2.5c0.4-0.7,0.9-1.3,1.5-1.7
			c0.6-0.4,1.4-0.6,2.2-0.6c1.2,0,2.1,0.4,2.8,1.2s1,1.9,1,3.2L318.8,267L318.8,267z M313.1,264.1c-0.5,0.5-0.8,1.1-0.9,1.9h5.3
			c-0.1-0.9-0.3-1.5-0.7-1.9c-0.4-0.4-1-0.7-1.8-0.7S313.6,263.6,313.1,264.1z"/>
		<path class="st5" d="M322.5,271.1c-0.7-0.4-1.2-0.9-1.5-1.6s-0.5-1.5-0.5-2.5c0-0.9,0.2-1.8,0.5-2.5c0.4-0.7,0.9-1.3,1.5-1.7
			c0.7-0.4,1.4-0.6,2.3-0.6c0.6,0,1.2,0.1,1.8,0.3s1,0.5,1.4,0.9l-0.5,1.1c-0.5-0.4-0.9-0.6-1.3-0.8s-0.9-0.3-1.3-0.3
			c-0.9,0-1.7,0.3-2.2,0.9s-0.8,1.5-0.8,2.6s0.3,1.9,0.8,2.5s1.3,0.9,2.2,0.9c0.4,0,0.9-0.1,1.3-0.3s0.9-0.4,1.3-0.8l0.5,1.1
			c-0.4,0.4-0.9,0.6-1.4,0.9c-0.6,0.2-1.2,0.3-1.8,0.3C323.9,271.7,323.1,271.5,322.5,271.1z"/>
		<path class="st5" d="M331.9,263.6v5c0,0.7,0.1,1.1,0.4,1.4s0.7,0.4,1.2,0.4c0.3,0,0.7-0.1,1-0.2v1.2c-0.4,0.1-0.8,0.2-1.3,0.2
			c-0.9,0-1.5-0.2-2-0.7s-0.7-1.2-0.7-2.2v-5.1h-1.8v-1.2h1.8v-2.3l1.5-0.5v2.8h2.6v1.2L331.9,263.6L331.9,263.6z"/>
	</g>
	<rect x="0.1" y="315.4" class="st8" width="201.9" height="0.5"/>
	<rect x="237.1" y="315.4" class="st8" width="424.9" height="0.5"/>
	<rect x="0.1" y="1.4" class="st8" width="201.9" height="0.5"/>
	<rect x="237.1" y="1.4" class="st8" width="424.9" height="0.5"/>
	<rect x="0.1" y="668.3" class="st8" width="330.9" height="0.5"/>
	<rect x="0.1" y="347.3" class="st8" width="330.9" height="0.5"/>
	<rect x="362" y="668.3" class="st8" width="300" height="0.5"/>
	<rect x="362" y="347.3" class="st8" width="300" height="0.5"/>
	<path id="Path_11101_1_" class="st4" d="M642.9,541.5H365.1l15.1-33.8l-15.1-33.9h277.8l16.4,33.8L642.9,541.5z"/>
	<path id="Path_11343_1_" class="st9" d="M646.2,541.4h-36.8v-4.9H643l0.6-1.5l11.6-26.5l0.4-1l-0.4-1L643.6,480l-0.6-1.5H422.9v6.8
		l-12.4-9.2l12.4-9.2v6.7h223.3l14.8,33.9L646.2,541.4z"/>
	<path id="Path_11341_1_" class="st9" d="M375.9,536.5h-3.6l1.4-3.3l9.3-22.9l1.1-2.7l-1.1-2.7l-9.3-23l-1.3-3.3h30v-4.9h-37.2
		l13.3,33l0.4,0.9l-0.4,0.9l-13.3,32.9h223.6v6.9l12.4-9.2l-12.4-9.2v6.7L375.9,536.5L375.9,536.5z"/>
	<path id="Path_11342_1_" class="st9" d="M588.7,534.1v-4.2l12.4,9.2l-12.4,9.2v-6.9H365.1l13.3-32.9l0.4-0.9l-0.4-0.9l-13.3-33
		h37.2v4.9h-30l1.3,3.3l9.3,23l1.1,2.7l-1.1,2.7l-9.3,22.9l-1.4,3.3h216.4L588.7,534.1z"/>
	<g class="st3">
		<path class="st2" d="M409.2,508.9c0-3.9,3-6.7,7-6.7c2.2,0,4.1,0.8,5.3,2.3l-1.9,1.8c-0.9-1-2-1.5-3.2-1.5c-2.4,0-4.1,1.7-4.1,4.1
			s1.7,4.1,4.1,4.1c1.3,0,2.4-0.5,3.2-1.5l1.9,1.8c-1.2,1.5-3.1,2.3-5.3,2.3C412.2,515.5,409.2,512.8,409.2,508.9z"/>
		<path class="st2" d="M422.2,510.4c0-3,2.3-5.1,5.5-5.1s5.4,2.1,5.4,5.1c0,3-2.3,5.1-5.4,5.1C424.5,515.5,422.2,513.4,422.2,510.4z
			 M430.2,510.4c0-1.7-1.1-2.7-2.5-2.7s-2.5,1-2.5,2.7c0,1.7,1.1,2.7,2.5,2.7S430.2,512.1,430.2,510.4z"/>
		<path class="st2" d="M445.2,509.6v5.7h-2.9v-5.2c0-1.6-0.7-2.3-2-2.3c-1.4,0-2.4,0.8-2.4,2.7v4.9H435v-9.9h2.7v1.2
			c0.8-0.8,1.9-1.3,3.3-1.3C443.4,505.3,445.2,506.6,445.2,509.6z"/>
		<path class="st2" d="M454.2,514.8c-0.6,0.4-1.5,0.6-2.3,0.6c-2.3,0-3.7-1.2-3.7-3.6v-4.1h-1.5v-2.2h1.5v-2.4h2.9v2.4h2.5v2.2H451
			v4c0,0.8,0.5,1.3,1.2,1.3c0.4,0,0.8-0.1,1.2-0.4L454.2,514.8z"/>
		<path class="st2" d="M455.5,502.4c0-0.9,0.7-1.6,1.8-1.6c1.1,0,1.8,0.7,1.8,1.5c0,1-0.7,1.7-1.8,1.7S455.5,503.3,455.5,502.4z
			 M455.8,505.4h2.9v9.9h-2.9V505.4z"/>
		<path class="st2" d="M471.5,509.6v5.7h-2.9v-5.2c0-1.6-0.7-2.3-2-2.3c-1.4,0-2.4,0.8-2.4,2.7v4.9h-2.9v-9.9h2.7v1.2
			c0.8-0.8,1.9-1.3,3.3-1.3C469.7,505.3,471.5,506.6,471.5,509.6z"/>
		<path class="st2" d="M484.1,505.4v9.9h-2.7v-1.2c-0.8,0.9-1.9,1.3-3.1,1.3c-2.5,0-4.2-1.4-4.2-4.5v-5.6h2.9v5.2
			c0,1.7,0.7,2.4,2,2.4s2.3-0.8,2.3-2.7v-4.9h2.8V505.4z"/>
		<path class="st2" d="M486.1,510.4c0-3,2.3-5.1,5.5-5.1s5.4,2.1,5.4,5.1c0,3-2.3,5.1-5.4,5.1S486.1,513.4,486.1,510.4z M494,510.4
			c0-1.7-1.1-2.7-2.5-2.7s-2.5,1-2.5,2.7c0,1.7,1.1,2.7,2.5,2.7C493,513.1,494,512.1,494,510.4z"/>
		<path class="st2" d="M508.9,505.4v9.9h-2.7v-1.2c-0.8,0.9-1.9,1.3-3.1,1.3c-2.5,0-4.2-1.4-4.2-4.5v-5.6h2.9v5.2
			c0,1.7,0.7,2.4,2,2.4s2.3-0.8,2.3-2.7v-4.9h2.8V505.4z"/>
		<path class="st2" d="M510.6,514.4l1-2.1c0.9,0.6,2.2,1,3.5,1s1.8-0.4,1.8-0.9c0-1.6-6,0-6-3.9c0-1.9,1.7-3.2,4.6-3.2
			c1.4,0,2.9,0.3,3.8,0.9l-1,2c-1-0.6-2-0.7-2.9-0.7c-1.3,0-1.8,0.4-1.8,0.9c0,1.7,6,0.1,6,4c0,1.8-1.7,3.2-4.7,3.2
			C513.2,515.5,511.5,515,510.6,514.4z"/>
		<path class="st2" d="M538.5,515.3v-7.7l-3.8,6.4h-1.3l-3.8-6.2v7.6h-2.8v-12.9h2.5l4.8,8l4.8-8h2.5v12.9L538.5,515.3L538.5,515.3z
			"/>
		<path class="st2" d="M543.5,510.4c0-3,2.3-5.1,5.5-5.1s5.4,2.1,5.4,5.1c0,3-2.3,5.1-5.4,5.1S543.5,513.4,543.5,510.4z
			 M551.4,510.4c0-1.7-1.1-2.7-2.5-2.7s-2.5,1-2.5,2.7c0,1.7,1.1,2.7,2.5,2.7C550.4,513.1,551.4,512.1,551.4,510.4z"/>
		<path class="st2" d="M566.4,509.6v5.7h-2.9v-5.2c0-1.6-0.7-2.3-2-2.3c-1.4,0-2.4,0.8-2.4,2.7v4.9h-2.9v-9.9h2.7v1.2
			c0.8-0.8,1.9-1.3,3.3-1.3C564.6,505.3,566.4,506.6,566.4,509.6z"/>
		<path class="st2" d="M568.7,502.4c0-0.9,0.7-1.6,1.8-1.6s1.8,0.7,1.8,1.5c0,1-0.7,1.7-1.8,1.7S568.7,503.3,568.7,502.4z
			 M569,505.4h2.9v9.9H569V505.4z"/>
		<path class="st2" d="M581,514.8c-0.6,0.4-1.5,0.6-2.3,0.6c-2.3,0-3.7-1.2-3.7-3.6v-4.1h-1.5v-2.2h1.5v-2.4h2.9v2.4h2.5v2.2h-2.5v4
			c0,0.8,0.5,1.3,1.2,1.3c0.4,0,0.8-0.1,1.2-0.4L581,514.8z"/>
		<path class="st2" d="M581.6,510.4c0-3,2.3-5.1,5.5-5.1s5.4,2.1,5.4,5.1c0,3-2.3,5.1-5.4,5.1S581.6,513.4,581.6,510.4z
			 M589.5,510.4c0-1.7-1.1-2.7-2.5-2.7s-2.5,1-2.5,2.7c0,1.7,1.1,2.7,2.5,2.7C588.5,513.1,589.5,512.1,589.5,510.4z"/>
		<path class="st2" d="M600.5,505.3v2.7c-0.2,0-0.4,0-0.6,0c-1.6,0-2.6,0.9-2.6,2.8v4.7h-2.9v-9.9h2.7v1.3
			C597.8,505.8,599,505.3,600.5,505.3z"/>
		<path class="st2" d="M601.9,502.4c0-0.9,0.7-1.6,1.8-1.6s1.8,0.7,1.8,1.5c0,1-0.7,1.7-1.8,1.7C602.6,504,601.9,503.3,601.9,502.4z
			 M602.3,505.4h2.9v9.9h-2.9V505.4z"/>
		<path class="st2" d="M618,509.6v5.7h-2.9v-5.2c0-1.6-0.7-2.3-2-2.3c-1.4,0-2.4,0.8-2.4,2.7v4.9h-2.9v-9.9h2.7v1.2
			c0.8-0.8,1.9-1.3,3.3-1.3C616.2,505.3,618,506.6,618,509.6z"/>
		<path class="st2" d="M630.9,505.4v8.3c0,3.7-2,5.4-5.6,5.4c-1.9,0-3.7-0.5-4.9-1.4l1.1-2.1c0.8,0.7,2.2,1.1,3.5,1.1
			c2,0,2.9-0.9,2.9-2.7v-0.4c-0.8,0.8-1.8,1.2-3.1,1.2c-2.7,0-5-1.9-5-4.8s2.2-4.8,5-4.8c1.4,0,2.5,0.5,3.3,1.4v-1.3L630.9,505.4
			L630.9,505.4z M628.1,510c0-1.5-1.1-2.4-2.6-2.4s-2.6,1-2.6,2.4c0,1.5,1.1,2.4,2.6,2.4S628.1,511.5,628.1,510z"/>
	</g>
</g>
</svg>
