<?xml version="1.0" encoding="utf-8"?>
<!-- Generator: Adobe Illustrator 25.1.0, SVG Export Plug-In . SVG Version: 6.00 Build 0)  -->
<svg version="1.1" id="Layer_1" xmlns="http://www.w3.org/2000/svg" xmlns:xlink="http://www.w3.org/1999/xlink" x="0px" y="0px"
	 viewBox="0 0 662 671" style="enable-background:new 0 0 662 671;" xml:space="preserve">
<style type="text/css">
	.st0{display:none;}
	.st1{display:inline;fill:#F2F2F2;}
	.st2{fill:#0A90B7;}
	.st3{enable-background:new    ;}
	.st4{fill:#FFFFFF;}
	.st5{fill:#1294C2;}
</style>
<g id="Layer_2_1_" class="st0">
	<rect x="-865" y="-3" class="st1" width="2787" height="1656"/>
</g>
<g id="Layer_3">
</g>
<g id="Layer_4">
</g>
<g id="Layer_1_1_">
	<g>
		<path id="Path_11098_1_" class="st2" d="M326.8,540.4H2.8l13.4-32.9l-13.4-33h324l14.5,33L326.8,540.4z"/>
		<g>
			<g class="st3">
				<path class="st4" d="M118.7,511.9h-6.3l-1.2,2.9h-2.4l5.7-12.6h2.3l5.7,12.6H120L118.7,511.9z M117.9,510.1l-2.4-5.5l-2.4,5.5
					H117.9z"/>
				<path class="st4" d="M132.9,505.2v9.6h-2.1v-1.2c-0.7,0.9-1.9,1.4-3.1,1.4c-2.5,0-4.1-1.4-4.1-4.2v-5.5h2.3v5.2
					c0,1.7,0.8,2.6,2.3,2.6c1.6,0,2.6-1,2.6-2.9v-4.9L132.9,505.2L132.9,505.2z"/>
				<path class="st4" d="M141.6,514.3c-0.5,0.4-1.4,0.6-2.2,0.6c-2.1,0-3.3-1.1-3.3-3.2v-4.6h-1.6v-1.8h1.6v-2.2h2.3v2.2h2.6v1.8
					h-2.6v4.6c0,0.9,0.5,1.4,1.3,1.4c0.5,0,0.9-0.1,1.3-0.4L141.6,514.3z"/>
				<path class="st4" d="M153,509.3v5.5h-2.3v-5.2c0-1.7-0.8-2.5-2.3-2.5c-1.6,0-2.7,1-2.7,2.9v4.9h-2.3v-13.4h2.3v4.9
					c0.7-0.8,1.9-1.2,3.2-1.2C151.3,505.1,153,506.4,153,509.3z"/>
				<path class="st4" d="M155.1,510c0-2.9,2.2-4.9,5.1-4.9c3,0,5.1,2,5.1,4.9c0,2.9-2.1,4.9-5.1,4.9
					C157.3,515,155.1,512.9,155.1,510z M163.1,510c0-1.8-1.2-3-2.9-3c-1.6,0-2.8,1.2-2.8,3s1.2,3,2.8,3
					C161.9,513,163.1,511.9,163.1,510z"/>
				<path class="st4" d="M173.1,505.1v2.1c-0.2,0-0.4-0.1-0.5-0.1c-1.7,0-2.8,1-2.8,3v4.7h-2.3v-9.6h2.1v1.4
					C170.3,505.6,171.5,505.1,173.1,505.1z"/>
				<path class="st4" d="M174.7,502.3c0-0.8,0.6-1.4,1.4-1.4s1.4,0.6,1.4,1.3c0,0.8-0.6,1.4-1.4,1.4
					C175.3,503.7,174.7,503.1,174.7,502.3z M175,505.2h2.3v9.6H175V505.2z"/>
				<path class="st4" d="M187.7,513v1.8h-8.3v-1.4l5.3-6.4h-5.2v-1.8h8v1.4l-5.3,6.4H187.7z"/>
				<path class="st4" d="M197.8,509.2v5.6h-2.1v-1.2c-0.5,0.8-1.6,1.3-3,1.3c-2.2,0-3.6-1.2-3.6-2.9c0-1.6,1.1-2.9,4-2.9h2.5V509
					c0-1.3-0.8-2.1-2.4-2.1c-1.1,0-2.2,0.4-2.9,1l-0.9-1.6c1-0.8,2.5-1.2,4.1-1.2C196.2,505.1,197.8,506.4,197.8,509.2z
					 M195.6,511.8v-1.1h-2.3c-1.5,0-1.9,0.6-1.9,1.3c0,0.8,0.7,1.3,1.8,1.3C194.2,513.3,195.2,512.8,195.6,511.8z"/>
				<path class="st4" d="M206.5,514.3c-0.5,0.4-1.4,0.6-2.2,0.6c-2.1,0-3.3-1.1-3.3-3.2v-4.6h-1.6v-1.8h1.6v-2.2h2.3v2.2h2.6v1.8
					h-2.6v4.6c0,0.9,0.5,1.4,1.3,1.4c0.5,0,0.9-0.1,1.3-0.4L206.5,514.3z"/>
				<path class="st4" d="M208,502.3c0-0.8,0.6-1.4,1.4-1.4s1.4,0.6,1.4,1.3c0,0.8-0.6,1.4-1.4,1.4C208.6,503.7,208,503.1,208,502.3z
					 M208.3,505.2h2.3v9.6h-2.3V505.2z"/>
				<path class="st4" d="M212.7,510c0-2.9,2.2-4.9,5.1-4.9c3,0,5.1,2,5.1,4.9c0,2.9-2.1,4.9-5.1,4.9
					C214.9,515,212.7,512.9,212.7,510z M220.7,510c0-1.8-1.2-3-2.9-3c-1.6,0-2.8,1.2-2.8,3s1.2,3,2.8,3
					C219.5,513,220.7,511.9,220.7,510z"/>
				<path class="st4" d="M234.6,509.3v5.5h-2.3v-5.2c0-1.7-0.8-2.5-2.3-2.5c-1.6,0-2.7,1-2.7,2.9v4.9H225v-9.6h2.1v1.2
					c0.7-0.9,1.9-1.4,3.3-1.4C232.9,505.1,234.6,506.4,234.6,509.3z"/>
			</g>
		</g>
	</g>
	<path id="Path_11100_3_" class="st2" d="M202.2,187.4H0v-66h202.2l14.5,33L202.2,187.4z"/>
	<g>
		<g class="st3">
			<path class="st4" d="M70.5,149.6l0.8-1.8c1,0.8,2.6,1.4,4.2,1.4c2,0,2.8-0.7,2.8-1.6c0-2.7-7.5-0.9-7.5-5.6c0-2,1.6-3.8,5.1-3.8
				c1.5,0,3.1,0.4,4.2,1.1l-0.7,1.8c-1.1-0.7-2.4-1-3.5-1c-1.9,0-2.7,0.8-2.7,1.7c0,2.7,7.5,0.9,7.5,5.6c0,2-1.6,3.7-5.1,3.7
				C73.5,151.1,71.6,150.5,70.5,149.6z"/>
			<path class="st4" d="M91.7,146.8h-7.5c0.3,1.4,1.4,2.3,3.1,2.3c1.1,0,1.9-0.3,2.6-1l1.2,1.4c-0.9,1-2.2,1.6-3.9,1.6
				c-3.2,0-5.3-2.1-5.3-4.9c0-2.9,2.1-4.9,5-4.9c2.8,0,4.9,2,4.9,5C91.7,146.3,91.7,146.6,91.7,146.8z M84.1,145.3h5.5
				c-0.2-1.4-1.2-2.3-2.7-2.3S84.3,143.9,84.1,145.3z"/>
			<path class="st4" d="M93.9,137.6h2.3V151h-2.3V137.6z"/>
			<path class="st4" d="M108.1,146.8h-7.5c0.3,1.4,1.4,2.3,3.1,2.3c1.1,0,1.9-0.3,2.6-1l1.2,1.4c-0.9,1-2.2,1.6-3.9,1.6
				c-3.2,0-5.3-2.1-5.3-4.9c0-2.9,2.1-4.9,5-4.9c2.8,0,4.9,2,4.9,5C108.1,146.3,108.1,146.6,108.1,146.8z M100.5,145.3h5.5
				c-0.2-1.4-1.2-2.3-2.7-2.3S100.7,143.9,100.5,145.3z"/>
			<path class="st4" d="M109.5,146.1c0-2.9,2.2-4.9,5.2-4.9c1.9,0,3.4,0.8,4.1,2.2l-1.7,1c-0.6-0.9-1.4-1.3-2.4-1.3
				c-1.7,0-2.9,1.2-2.9,3c0,1.9,1.3,3,2.9,3c1,0,1.8-0.4,2.4-1.3l1.7,1c-0.7,1.4-2.2,2.3-4.1,2.3C111.6,151,109.5,149,109.5,146.1z"
				/>
			<path class="st4" d="M126.6,150.4c-0.5,0.4-1.4,0.6-2.2,0.6c-2.1,0-3.3-1.1-3.3-3.2v-4.6h-1.6v-1.8h1.6v-2.2h2.3v2.2h2.6v1.8
				h-2.6v4.6c0,0.9,0.5,1.4,1.3,1.4c0.5,0,0.9-0.1,1.3-0.4L126.6,150.4z"/>
		</g>
		<g class="st3">
			<path class="st4" d="M21.3,167.9H15l-1.2,2.9h-2.4l5.7-12.6h2.3l5.7,12.6h-2.4L21.3,167.9z M20.5,166l-2.4-5.5l-2.4,5.5H20.5z"/>
			<path class="st4" d="M35.5,161.2v9.6h-2.1v-1.2c-0.7,0.9-1.9,1.4-3.1,1.4c-2.5,0-4.1-1.4-4.1-4.2v-5.5h2.3v5.2
				c0,1.7,0.8,2.6,2.3,2.6c1.6,0,2.6-1,2.6-2.9v-4.9h2.1C35.5,161.3,35.5,161.2,35.5,161.2z"/>
			<path class="st4" d="M44.2,170.3c-0.5,0.4-1.4,0.6-2.2,0.6c-2.1,0-3.3-1.1-3.3-3.2V163h-1.6v-1.8h1.6V159H41v2.2h2.6v1.8H41v4.6
				c0,0.9,0.5,1.4,1.3,1.4c0.5,0,0.9-0.1,1.3-0.4L44.2,170.3z"/>
			<path class="st4" d="M55.5,165.3v5.5h-2.3v-5.2c0-1.7-0.8-2.5-2.3-2.5c-1.6,0-2.7,1-2.7,2.9v4.9h-2.3v-13.4h2.3v4.9
				c0.7-0.8,1.9-1.2,3.2-1.2C53.8,161.1,55.5,162.4,55.5,165.3z"/>
			<path class="st4" d="M57.7,166c0-2.9,2.2-4.9,5.1-4.9c3,0,5.1,2,5.1,4.9s-2.1,4.9-5.1,4.9C59.9,170.9,57.7,168.9,57.7,166z
				 M65.7,166c0-1.8-1.2-3-2.9-3c-1.6,0-2.8,1.2-2.8,3s1.2,3,2.8,3C64.4,169,65.7,167.8,65.7,166z"/>
			<path class="st4" d="M75.7,161.1v2.1c-0.2,0-0.4-0.1-0.5-0.1c-1.7,0-2.8,1-2.8,3v4.7h-2.3v-9.6h2.1v1.4
				C72.9,161.6,74.1,161.1,75.7,161.1z"/>
			<path class="st4" d="M77.3,158.2c0-0.8,0.6-1.4,1.4-1.4s1.4,0.6,1.4,1.3c0,0.8-0.6,1.4-1.4,1.4C77.9,159.6,77.3,159,77.3,158.2z
				 M77.6,161.2h2.3v9.6h-2.3V161.2z"/>
			<path class="st4" d="M90.3,169v1.8H82v-1.4l5.3-6.4h-5.2v-1.8h8v1.4l-5.3,6.4H90.3z"/>
			<path class="st4" d="M100.4,165.1v5.6h-2.1v-1.2c-0.5,0.8-1.6,1.3-3,1.3c-2.2,0-3.6-1.2-3.6-2.9c0-1.6,1.1-2.9,4-2.9h2.5l0,0
				c0-1.3-0.8-2.1-2.4-2.1c-1.1,0-2.2,0.4-2.9,1l-0.9-1.6c1-0.8,2.5-1.2,4.1-1.2C98.8,161.1,100.4,162.4,100.4,165.1z M98.1,167.8
				v-1.1h-2.3c-1.5,0-1.9,0.6-1.9,1.3c0,0.8,0.7,1.3,1.8,1.3S97.8,168.8,98.1,167.8z"/>
			<path class="st4" d="M109,170.3c-0.5,0.4-1.4,0.6-2.2,0.6c-2.1,0-3.3-1.1-3.3-3.2V163H102v-1.8h1.6V159h2.3v2.2h2.6v1.8h-2.6v4.6
				c0,0.9,0.5,1.4,1.3,1.4c0.5,0,0.9-0.1,1.3-0.4L109,170.3z"/>
			<path class="st4" d="M110.6,158.2c0-0.8,0.6-1.4,1.4-1.4s1.4,0.6,1.4,1.3c0,0.8-0.6,1.4-1.4,1.4
				C111.2,159.6,110.6,159,110.6,158.2z M110.9,161.2h2.3v9.6h-2.3V161.2z"/>
			<path class="st4" d="M115.3,166c0-2.9,2.2-4.9,5.1-4.9c3,0,5.1,2,5.1,4.9s-2.1,4.9-5.1,4.9C117.5,170.9,115.3,168.9,115.3,166z
				 M123.3,166c0-1.8-1.2-3-2.9-3c-1.6,0-2.8,1.2-2.8,3s1.2,3,2.8,3C122.1,169,123.3,167.8,123.3,166z"/>
			<path class="st4" d="M137.2,165.3v5.5h-2.3v-5.2c0-1.7-0.8-2.5-2.3-2.5c-1.6,0-2.7,1-2.7,2.9v4.9h-2.3v-9.6h2.1v1.2
				c0.7-0.9,1.9-1.4,3.3-1.4C135.5,161.1,137.2,162.4,137.2,165.3z"/>
			<path class="st4" d="M155.8,162.7c0,2.8-2.1,4.5-5.4,4.5h-2.8v3.6h-2.3v-12.6h5.2C153.7,158.2,155.8,159.9,155.8,162.7z
				 M153.4,162.7c0-1.6-1.1-2.5-3.1-2.5h-2.7v5h2.7C152.4,165.2,153.4,164.2,153.4,162.7z"/>
			<path class="st4" d="M165.9,165.1v5.6h-2.1v-1.2c-0.5,0.8-1.6,1.3-3,1.3c-2.2,0-3.6-1.2-3.6-2.9c0-1.6,1.1-2.9,4-2.9h2.5l0,0
				c0-1.3-0.8-2.1-2.4-2.1c-1.1,0-2.2,0.4-2.9,1l-0.9-1.6c1-0.8,2.5-1.2,4.1-1.2C164.3,161.1,165.9,162.4,165.9,165.1z M163.6,167.8
				v-1.1h-2.3c-1.5,0-1.9,0.6-1.9,1.3c0,0.8,0.7,1.3,1.8,1.3C162.3,169.3,163.2,168.8,163.6,167.8z"/>
			<path class="st4" d="M174.5,170.3c-0.5,0.4-1.4,0.6-2.2,0.6c-2.1,0-3.3-1.1-3.3-3.2V163h-1.6v-1.8h1.6V159h2.3v2.2h2.6v1.8h-2.6
				v4.6c0,0.9,0.5,1.4,1.3,1.4c0.5,0,0.9-0.1,1.3-0.4L174.5,170.3z"/>
			<path class="st4" d="M185.8,165.3v5.5h-2.3v-5.2c0-1.7-0.8-2.5-2.3-2.5c-1.6,0-2.7,1-2.7,2.9v4.9h-2.3v-13.4h2.3v4.9
				c0.7-0.8,1.9-1.2,3.2-1.2C184.1,161.1,185.8,162.4,185.8,165.3z"/>
		</g>
	</g>
	<g>
		<path id="Path_11287_1_" class="st2" d="M646.9,187.4H238.7l11.9-32.9l-13.9-33H647l13.9,33L646.9,187.4z"/>
		<g>
			<g class="st3">
				<path class="st4" d="M406.3,153.7c0,2.8-2.1,4.5-5.4,4.5h-2.8v3.6h-2.3v-12.6h5.2C404.3,149.2,406.3,150.9,406.3,153.7z
					 M403.9,153.7c0-1.6-1.1-2.5-3.1-2.5h-2.7v5h2.7C402.9,156.2,403.9,155.3,403.9,153.7z"/>
				<path class="st4" d="M413.9,152.1v2.1c-0.2,0-0.4-0.1-0.5-0.1c-1.7,0-2.8,1-2.8,3v4.7h-2.3v-9.6h2.1v1.4
					C411.1,152.6,412.3,152.1,413.9,152.1z"/>
				<path class="st4" d="M424.7,157.8h-7.5c0.3,1.4,1.4,2.3,3.1,2.3c1.1,0,1.9-0.3,2.6-1l1.2,1.4c-0.9,1-2.2,1.6-3.9,1.6
					c-3.2,0-5.3-2.1-5.3-4.9c0-2.9,2.1-4.9,5-4.9c2.8,0,4.9,2,4.9,5C424.8,157.3,424.7,157.5,424.7,157.8z M417.2,156.3h5.5
					c-0.2-1.4-1.2-2.3-2.7-2.3C418.4,153.9,417.4,154.9,417.2,156.3z"/>
				<path class="st4" d="M437.1,157c0,3-2.1,4.9-4.9,4.9c-1.2,0-2.3-0.4-3.1-1.3v4.7h-2.3v-13.1h2.1v1.3c0.8-0.9,1.9-1.4,3.2-1.4
					C435,152.1,437.1,154.1,437.1,157z M434.8,157c0-1.8-1.2-3-2.8-3c-1.6,0-2.9,1.2-2.9,3s1.2,3,2.9,3
					C433.6,160,434.8,158.9,434.8,157z"/>
				<path class="st4" d="M447.2,156.2v5.6h-2.1v-1.2c-0.5,0.8-1.6,1.3-3,1.3c-2.2,0-3.6-1.2-3.6-2.9c0-1.6,1.1-2.9,4-2.9h2.5V156
					c0-1.3-0.8-2.1-2.4-2.1c-1.1,0-2.2,0.4-2.9,1l-0.9-1.6c1-0.8,2.5-1.2,4.1-1.2C445.6,152.1,447.2,153.4,447.2,156.2z
					 M444.9,158.8v-1.1h-2.3c-1.5,0-1.9,0.6-1.9,1.3c0,0.8,0.7,1.3,1.8,1.3C443.6,160.3,444.6,159.8,444.9,158.8z"/>
				<path class="st4" d="M455.6,152.1v2.1c-0.2,0-0.4-0.1-0.5-0.1c-1.7,0-2.8,1-2.8,3v4.7h-2.2v-9.6h2.1v1.4
					C452.8,152.6,454,152.1,455.6,152.1z"/>
				<path class="st4" d="M465.5,156.2v5.6h-2.1v-1.2c-0.5,0.8-1.6,1.3-3,1.3c-2.2,0-3.6-1.2-3.6-2.9c0-1.6,1.1-2.9,4-2.9h2.5V156
					c0-1.3-0.8-2.1-2.4-2.1c-1.1,0-2.2,0.4-2.9,1l-0.9-1.6c1-0.8,2.5-1.2,4.1-1.2C463.9,152.1,465.5,153.4,465.5,156.2z
					 M463.3,158.8v-1.1H461c-1.5,0-1.9,0.6-1.9,1.3c0,0.8,0.7,1.3,1.8,1.3C461.9,160.3,462.9,159.8,463.3,158.8z"/>
				<path class="st4" d="M474.2,161.3c-0.5,0.4-1.4,0.6-2.2,0.6c-2.1,0-3.3-1.1-3.3-3.2v-4.6h-1.6v-1.8h1.6v-2.2h2.3v2.2h2.6v1.8
					H471v4.6c0,0.9,0.5,1.4,1.3,1.4c0.5,0,0.9-0.1,1.3-0.4L474.2,161.3z"/>
				<path class="st4" d="M475.7,149.3c0-0.8,0.6-1.4,1.4-1.4s1.4,0.6,1.4,1.3c0,0.8-0.6,1.4-1.4,1.4
					C476.3,150.7,475.7,150.1,475.7,149.3z M476,152.2h2.2v9.6H476V152.2z"/>
				<path class="st4" d="M480.4,157c0-2.9,2.2-4.9,5.1-4.9c3,0,5.1,2,5.1,4.9s-2.1,4.9-5.1,4.9C482.6,162,480.4,159.9,480.4,157z
					 M488.4,157c0-1.8-1.2-3-2.9-3c-1.6,0-2.8,1.2-2.8,3s1.2,3,2.8,3C487.2,160,488.4,158.9,488.4,157z"/>
				<path class="st4" d="M502.3,156.3v5.5H500v-5.2c0-1.7-0.8-2.5-2.3-2.5c-1.6,0-2.7,1-2.7,2.9v4.9h-2.2v-9.6h2.1v1.2
					c0.7-0.9,1.9-1.4,3.3-1.4C500.6,152.1,502.3,153.4,502.3,156.3z"/>
			</g>
		</g>
	</g>
	<path id="Path_11101_1_" class="st4" d="M642.9,541.5H365.1l15.1-33.8l-15.1-33.9h277.8l16.4,33.8L642.9,541.5z"/>
	<path id="Path_11343_1_" class="st5" d="M646.2,541.4h-36.8v-4.9H643l0.6-1.5l11.6-26.5l0.4-1l-0.4-1L643.6,480l-0.6-1.5H422.9v6.8
		l-12.4-9.2l12.4-9.2v6.7h223.3l14.8,33.9L646.2,541.4z"/>
	<path id="Path_11341_1_" class="st5" d="M375.9,536.5h-3.6l1.4-3.3l9.3-22.9l1.1-2.7l-1.1-2.7l-9.3-23l-1.3-3.3h30v-4.9h-37.2
		l13.3,33l0.4,0.9l-0.4,0.9l-13.3,32.9h223.6v6.9l12.4-9.2l-12.4-9.2v6.7L375.9,536.5L375.9,536.5z"/>
	<path id="Path_11342_1_" class="st5" d="M588.7,534.1v-4.2l12.4,9.2l-12.4,9.2v-6.9H365.1l13.3-32.9l0.4-0.9l-0.4-0.9l-13.3-33
		h37.2v4.9h-30l1.3,3.3l9.3,23l1.1,2.7l-1.1,2.7l-9.3,22.9l-1.4,3.3h216.4L588.7,534.1z"/>
	<g class="st3">
		<path class="st2" d="M409.2,508.9c0-3.9,3-6.7,7-6.7c2.2,0,4.1,0.8,5.3,2.3l-1.9,1.8c-0.9-1-2-1.5-3.2-1.5c-2.4,0-4.1,1.7-4.1,4.1
			s1.7,4.1,4.1,4.1c1.3,0,2.4-0.5,3.2-1.5l1.9,1.8c-1.2,1.5-3.1,2.3-5.3,2.3C412.2,515.5,409.2,512.8,409.2,508.9z"/>
		<path class="st2" d="M422.2,510.4c0-3,2.3-5.1,5.5-5.1s5.4,2.1,5.4,5.1c0,3-2.3,5.1-5.4,5.1C424.5,515.5,422.2,513.4,422.2,510.4z
			 M430.2,510.4c0-1.7-1.1-2.7-2.5-2.7s-2.5,1-2.5,2.7c0,1.7,1.1,2.7,2.5,2.7S430.2,512.1,430.2,510.4z"/>
		<path class="st2" d="M445.2,509.6v5.7h-2.9v-5.2c0-1.6-0.7-2.3-2-2.3c-1.4,0-2.4,0.8-2.4,2.7v4.9H435v-9.9h2.7v1.2
			c0.8-0.8,1.9-1.3,3.3-1.3C443.4,505.3,445.2,506.6,445.2,509.6z"/>
		<path class="st2" d="M454.2,514.8c-0.6,0.4-1.5,0.6-2.3,0.6c-2.3,0-3.7-1.2-3.7-3.6v-4.1h-1.5v-2.2h1.5v-2.4h2.9v2.4h2.5v2.2H451
			v4c0,0.8,0.5,1.3,1.2,1.3c0.4,0,0.8-0.1,1.2-0.4L454.2,514.8z"/>
		<path class="st2" d="M455.5,502.4c0-0.9,0.7-1.6,1.8-1.6c1.1,0,1.8,0.7,1.8,1.5c0,1-0.7,1.7-1.8,1.7S455.5,503.3,455.5,502.4z
			 M455.8,505.4h2.9v9.9h-2.9V505.4z"/>
		<path class="st2" d="M471.5,509.6v5.7h-2.9v-5.2c0-1.6-0.7-2.3-2-2.3c-1.4,0-2.4,0.8-2.4,2.7v4.9h-2.9v-9.9h2.7v1.2
			c0.8-0.8,1.9-1.3,3.3-1.3C469.7,505.3,471.5,506.6,471.5,509.6z"/>
		<path class="st2" d="M484.1,505.4v9.9h-2.7v-1.2c-0.8,0.9-1.9,1.3-3.1,1.3c-2.5,0-4.2-1.4-4.2-4.5v-5.6h2.9v5.2
			c0,1.7,0.7,2.4,2,2.4s2.3-0.8,2.3-2.7v-4.9h2.8L484.1,505.4L484.1,505.4z"/>
		<path class="st2" d="M486.1,510.4c0-3,2.3-5.1,5.5-5.1s5.4,2.1,5.4,5.1c0,3-2.3,5.1-5.4,5.1S486.1,513.4,486.1,510.4z M494,510.4
			c0-1.7-1.1-2.7-2.5-2.7s-2.5,1-2.5,2.7c0,1.7,1.1,2.7,2.5,2.7C493,513.1,494,512.1,494,510.4z"/>
		<path class="st2" d="M508.9,505.4v9.9h-2.7v-1.2c-0.8,0.9-1.9,1.3-3.1,1.3c-2.5,0-4.2-1.4-4.2-4.5v-5.6h2.9v5.2
			c0,1.7,0.7,2.4,2,2.4s2.3-0.8,2.3-2.7v-4.9h2.8L508.9,505.4L508.9,505.4z"/>
		<path class="st2" d="M510.6,514.4l1-2.1c0.9,0.6,2.2,1,3.5,1s1.8-0.4,1.8-0.9c0-1.6-6,0-6-3.9c0-1.9,1.7-3.2,4.6-3.2
			c1.4,0,2.9,0.3,3.8,0.9l-1,2c-1-0.6-2-0.7-2.9-0.7c-1.3,0-1.8,0.4-1.8,0.9c0,1.7,6,0.1,6,4c0,1.8-1.7,3.2-4.7,3.2
			C513.2,515.5,511.5,515,510.6,514.4z"/>
		<path class="st2" d="M538.5,515.3v-7.7l-3.8,6.4h-1.3l-3.8-6.2v7.6h-2.8v-12.9h2.5l4.8,8l4.8-8h2.5v12.9L538.5,515.3L538.5,515.3z
			"/>
		<path class="st2" d="M543.5,510.4c0-3,2.3-5.1,5.5-5.1s5.4,2.1,5.4,5.1c0,3-2.3,5.1-5.4,5.1S543.5,513.4,543.5,510.4z
			 M551.4,510.4c0-1.7-1.1-2.7-2.5-2.7s-2.5,1-2.5,2.7c0,1.7,1.1,2.7,2.5,2.7C550.4,513.1,551.4,512.1,551.4,510.4z"/>
		<path class="st2" d="M566.4,509.6v5.7h-2.9v-5.2c0-1.6-0.7-2.3-2-2.3c-1.4,0-2.4,0.8-2.4,2.7v4.9h-2.9v-9.9h2.7v1.2
			c0.8-0.8,1.9-1.3,3.3-1.3C564.6,505.3,566.4,506.6,566.4,509.6z"/>
		<path class="st2" d="M568.7,502.4c0-0.9,0.7-1.6,1.8-1.6s1.8,0.7,1.8,1.5c0,1-0.7,1.7-1.8,1.7S568.7,503.3,568.7,502.4z
			 M569,505.4h2.9v9.9H569V505.4z"/>
		<path class="st2" d="M581,514.8c-0.6,0.4-1.5,0.6-2.3,0.6c-2.3,0-3.7-1.2-3.7-3.6v-4.1h-1.5v-2.2h1.5v-2.4h2.9v2.4h2.5v2.2h-2.5v4
			c0,0.8,0.5,1.3,1.2,1.3c0.4,0,0.8-0.1,1.2-0.4L581,514.8z"/>
		<path class="st2" d="M581.6,510.4c0-3,2.3-5.1,5.5-5.1s5.4,2.1,5.4,5.1c0,3-2.3,5.1-5.4,5.1S581.6,513.4,581.6,510.4z
			 M589.5,510.4c0-1.7-1.1-2.7-2.5-2.7s-2.5,1-2.5,2.7c0,1.7,1.1,2.7,2.5,2.7C588.5,513.1,589.5,512.1,589.5,510.4z"/>
		<path class="st2" d="M600.5,505.3v2.7c-0.2,0-0.4,0-0.6,0c-1.6,0-2.6,0.9-2.6,2.8v4.7h-2.9v-9.9h2.7v1.3
			C597.8,505.8,599,505.3,600.5,505.3z"/>
		<path class="st2" d="M601.9,502.4c0-0.9,0.7-1.6,1.8-1.6s1.8,0.7,1.8,1.5c0,1-0.7,1.7-1.8,1.7C602.6,504,601.9,503.3,601.9,502.4z
			 M602.3,505.4h2.9v9.9h-2.9V505.4z"/>
		<path class="st2" d="M618,509.6v5.7h-2.9v-5.2c0-1.6-0.7-2.3-2-2.3c-1.4,0-2.4,0.8-2.4,2.7v4.9h-2.9v-9.9h2.7v1.2
			c0.8-0.8,1.9-1.3,3.3-1.3C616.2,505.3,618,506.6,618,509.6z"/>
		<path class="st2" d="M630.9,505.4v8.3c0,3.7-2,5.4-5.6,5.4c-1.9,0-3.7-0.5-4.9-1.4l1.1-2.1c0.8,0.7,2.2,1.1,3.5,1.1
			c2,0,2.9-0.9,2.9-2.7v-0.4c-0.8,0.8-1.8,1.2-3.1,1.2c-2.7,0-5-1.9-5-4.8s2.2-4.8,5-4.8c1.4,0,2.5,0.5,3.3,1.4v-1.3L630.9,505.4
			L630.9,505.4z M628.1,510c0-1.5-1.1-2.4-2.6-2.4s-2.6,1-2.6,2.4c0,1.5,1.1,2.4,2.6,2.4S628.1,511.5,628.1,510z"/>
	</g>
</g>
</svg>
