<?xml version="1.0" encoding="UTF-8"?>
<svg id="Layer_1" data-name="Layer 1" xmlns="http://www.w3.org/2000/svg" viewBox="0 0 1280 213">
  <defs>
    <style>
      .cls-1 {
        letter-spacing: .01em;
      }

      .cls-2 {
        letter-spacing: 0em;
      }

      .cls-3 {
        letter-spacing: 0em;
      }

      .cls-4 {
        letter-spacing: -.01em;
      }

      .cls-5 {
        letter-spacing: .01em;
      }

      .cls-6 {
        letter-spacing: 0em;
      }

      .cls-7, .cls-8, .cls-9 {
        stroke-width: 0px;
      }

      .cls-7, .cls-10 {
        fill: #1a4480;
      }

      .cls-11 {
        stroke: #1a4480;
      }

      .cls-11, .cls-12, .cls-13, .cls-9 {
        fill: #fff;
      }

      .cls-11, .cls-13 {
        stroke-width: .75px;
      }

      .cls-14 {
        letter-spacing: .02em;
      }

      .cls-15 {
        letter-spacing: 0em;
      }

      .cls-16 {
        letter-spacing: .02em;
      }

      .cls-17 {
        letter-spacing: 0em;
      }

      .cls-18 {
        letter-spacing: 0em;
      }

      .cls-19 {
        letter-spacing: .01em;
      }

      .cls-20 {
        letter-spacing: .01em;
      }

      .cls-21 {
        letter-spacing: -.01em;
      }

      .cls-8 {
        fill: #1294c2;
      }

      .cls-22 {
        letter-spacing: .01em;
      }

      .cls-23 {
        letter-spacing: .01em;
      }

      .cls-24 {
        fill: #0a90b7;
      }

      .cls-24, .cls-12, .cls-25, .cls-26, .cls-10 {
        isolation: isolate;
      }

      .cls-24, .cls-12, .cls-10 {
        font-size: 18px;
      }

      .cls-24, .cls-25 {
        font-family: Montserrat-Bold, Montserrat;
        font-weight: 700;
      }

      .cls-27 {
        letter-spacing: 0em;
      }

      .cls-28 {
        letter-spacing: 0em;
      }

      .cls-29 {
        letter-spacing: 0em;
      }

      .cls-30 {
        letter-spacing: -.01em;
      }

      .cls-12 {
        font-family: Montserrat-SemiBold, Montserrat;
        font-weight: 600;
      }

      .cls-31 {
        letter-spacing: 0em;
      }

      .cls-32 {
        letter-spacing: 0em;
      }

      .cls-33 {
        letter-spacing: 0em;
      }

      .cls-25 {
        fill: #1a4480;
        font-size: 16.5px;
      }

      .cls-34 {
        letter-spacing: 0em;
      }

      .cls-35 {
        letter-spacing: 0em;
      }

      .cls-36 {
        letter-spacing: 0em;
      }

      .cls-13 {
        stroke: #1a4480;
      }

      .cls-10 {
        font-family: Muli-Regular, Muli;
      }

      .cls-37 {
        letter-spacing: 0em;
      }

      .cls-38 {
        letter-spacing: 0em;
      }
    </style>
  </defs>
  <polygon class="cls-11" points="983.81 1.79 846.99 1.79 846.99 85.8 898.75 85.8 915.4 103.27 932.05 85.8 983.81 85.8 983.81 1.79"/>
  <g class="cls-26">
    <path class="cls-7" d="M894.48,23.26h-6.7l-1.42,3.29h-1.53l5.63-12.82h1.3l5.63,12.82h-1.51l-1.4-3.29ZM893.96,22.03l-2.83-6.59-2.83,6.59h5.65Z"/>
    <path class="cls-7" d="M907.37,17.5v8.98c0,1.34-.34,2.36-1.04,3.05-.69.69-1.71,1.04-3.05,1.04s-2.57-.31-3.56-.94l.25-1.19c.58.32,1.12.56,1.63.7.51.14,1.07.22,1.68.22.88,0,1.54-.23,1.98-.69.44-.46.67-1.15.67-2.06v-2.14c-.28.58-.68,1.02-1.21,1.34-.53.32-1.17.48-1.9.48-.79,0-1.5-.19-2.12-.56-.62-.37-1.09-.9-1.43-1.58s-.5-1.47-.5-2.36.17-1.67.5-2.36.81-1.21,1.43-1.58,1.32-.56,2.12-.56c.72,0,1.35.16,1.88.47s.94.75,1.21,1.31v-1.57h1.46ZM905.17,24.18c.5-.58.75-1.38.75-2.4s-.25-1.82-.75-2.4-1.18-.87-2.06-.87-1.59.29-2.1.87c-.51.58-.77,1.38-.77,2.4s.25,1.82.77,2.4c.51.58,1.21.87,2.1.87s1.56-.29,2.06-.87Z"/>
    <path class="cls-7" d="M917.94,21.98h-6.64c.01,1.15.28,2.02.8,2.61.52.59,1.28.88,2.28.88,1.06,0,2.03-.35,2.92-1.06l.49,1.06c-.4.37-.9.67-1.52.88-.62.22-1.25.32-1.9.32-1.42,0-2.53-.42-3.33-1.25-.8-.83-1.21-1.98-1.21-3.43,0-.92.18-1.74.54-2.46.36-.71.86-1.27,1.51-1.66s1.39-.59,2.21-.59c1.2,0,2.14.39,2.83,1.18s1.03,1.87,1.03,3.25v.27ZM912.26,19.1c-.47.46-.78,1.1-.91,1.93h5.27c-.07-.85-.32-1.5-.75-1.94-.43-.44-1.02-.67-1.77-.67s-1.37.23-1.85.68Z"/>
    <path class="cls-7" d="M928.11,20.86v5.69h-1.46v-5.62c0-.84-.17-1.45-.5-1.84-.34-.39-.86-.58-1.58-.58-.84,0-1.51.26-2.02.77-.5.52-.76,1.21-.76,2.09v5.18h-1.46v-6.52c0-.94-.05-1.78-.14-2.54h1.39l.14,1.62c.28-.59.69-1.04,1.24-1.36.55-.32,1.18-.48,1.89-.48,2.17,0,3.26,1.19,3.26,3.58Z"/>
    <path class="cls-7" d="M932.55,26.1c-.65-.38-1.16-.93-1.51-1.63-.35-.7-.53-1.52-.53-2.46s.18-1.76.54-2.48c.36-.71.87-1.27,1.54-1.66s1.44-.59,2.33-.59c.61,0,1.2.1,1.77.31s1.04.5,1.41.87l-.49,1.08c-.46-.36-.9-.62-1.32-.79-.43-.17-.86-.25-1.31-.25-.92,0-1.65.31-2.18.93-.53.62-.79,1.48-.79,2.58s.26,1.94.78,2.55c.52.61,1.25.91,2.19.91.44,0,.88-.08,1.31-.25.43-.17.87-.43,1.32-.79l.49,1.08c-.38.36-.87.65-1.45.85s-1.18.31-1.81.31c-.88,0-1.64-.19-2.29-.58Z"/>
    <path class="cls-7" d="M948.09,17.5l-4.23,9.88c-.44,1.03-1,1.79-1.67,2.27-.67.48-1.5.81-2.48.99l-.31-1.13c.85-.19,1.5-.45,1.93-.77.44-.32.8-.81,1.09-1.47l.36-.81-3.83-8.96h1.53l3.06,7.47,3.1-7.47h1.46Z"/>
    <path class="cls-7" d="M868.86,44.86h-6.7l-1.42,3.29h-1.53l5.63-12.82h1.3l5.63,12.82h-1.51l-1.4-3.29ZM868.34,43.63l-2.83-6.59-2.83,6.59h5.65Z"/>
    <path class="cls-7" d="M881.27,39.1v9.05h-1.42v-1.57c-.29.55-.69.97-1.21,1.26-.52.29-1.1.43-1.75.43-1.07,0-1.88-.3-2.43-.9s-.83-1.49-.83-2.66v-5.62h1.46v5.58c0,.82.17,1.42.5,1.8.34.38.85.58,1.53.58.8,0,1.45-.26,1.94-.78s.74-1.21.74-2.06v-5.11h1.46Z"/>
    <path class="cls-7" d="M886.2,40.25v4.95c0,.67.14,1.14.41,1.41s.67.41,1.17.41c.34,0,.66-.05.97-.16v1.24c-.37.12-.79.18-1.26.18-.86,0-1.54-.24-2.02-.73s-.73-1.2-.73-2.15v-5.15h-1.76v-1.15h1.76v-2.32l1.46-.52v2.84h2.59v1.15h-2.59Z"/>
    <path class="cls-7" d="M898.51,42.46v5.69h-1.46v-5.62c0-.84-.17-1.45-.5-1.84-.34-.39-.86-.58-1.58-.58-.84,0-1.51.26-2.02.77-.5.52-.76,1.21-.76,2.09v5.18h-1.46v-13.25h1.46v5.67c.29-.55.7-.97,1.23-1.26s1.14-.43,1.83-.43c2.17,0,3.26,1.19,3.26,3.58Z"/>
    <path class="cls-7" d="M902.94,47.7c-.65-.38-1.15-.93-1.5-1.64-.35-.71-.53-1.54-.53-2.48s.18-1.78.53-2.48c.35-.71.86-1.25,1.5-1.64.65-.38,1.4-.58,2.25-.58s1.6.19,2.25.58c.65.38,1.15.93,1.5,1.64.35.71.53,1.54.53,2.48s-.18,1.78-.53,2.48c-.35.71-.86,1.25-1.5,1.64-.65.38-1.4.58-2.25.58s-1.6-.19-2.25-.58ZM907.26,46.18c.48-.59.72-1.46.72-2.6s-.25-1.96-.74-2.57c-.49-.61-1.18-.91-2.05-.91s-1.58.3-2.07.91c-.49.61-.74,1.46-.74,2.57s.24,2.01.73,2.6c.49.59,1.18.89,2.08.89s1.59-.3,2.07-.89Z"/>
    <path class="cls-7" d="M916.96,38.99l-.04,1.33c-.28-.1-.59-.14-.95-.14-.88,0-1.53.27-1.95.82s-.64,1.21-.64,1.99v5.17h-1.46v-6.52c0-.94-.05-1.78-.14-2.54h1.39l.14,1.67c.23-.61.59-1.08,1.1-1.4.5-.32,1.08-.49,1.73-.49.3,0,.58.04.83.11Z"/>
    <path class="cls-7" d="M920.25,35.26v1.66h-1.78v-1.66h1.78ZM918.61,39.1h1.46v9.05h-1.46v-9.05Z"/>
    <path class="cls-7" d="M930.22,47v1.15h-7.65v-1.01l5.71-6.89h-5.51v-1.15h7.25v1.06l-5.65,6.84h5.85Z"/>
    <path class="cls-7" d="M940.36,39.1v9.05h-1.44v-1.64c-.26.56-.66,1-1.2,1.31-.53.31-1.16.46-1.86.46-.8,0-1.51-.19-2.12-.58-.61-.38-1.07-.93-1.4-1.63-.33-.7-.5-1.52-.5-2.46s.17-1.76.5-2.48c.34-.71.81-1.27,1.41-1.66.61-.4,1.3-.59,2.1-.59.71,0,1.33.16,1.85.47.53.31.93.75,1.21,1.31v-1.57h1.44ZM938.2,46.16c.48-.61.72-1.47.72-2.58s-.24-1.97-.72-2.57c-.48-.6-1.16-.9-2.05-.9s-1.58.31-2.08.93c-.5.62-.75,1.48-.75,2.58s.25,1.96.74,2.56,1.19.9,2.09.9,1.57-.3,2.05-.91Z"/>
    <path class="cls-7" d="M945.31,40.25v4.95c0,.67.14,1.14.41,1.41s.67.41,1.17.41c.34,0,.66-.05.97-.16v1.24c-.37.12-.79.18-1.26.18-.86,0-1.54-.24-2.02-.73s-.73-1.2-.73-2.15v-5.15h-1.76v-1.15h1.76v-2.32l1.46-.52v2.84h2.59v1.15h-2.59Z"/>
    <path class="cls-7" d="M951.48,35.26v1.66h-1.78v-1.66h1.78ZM949.84,39.1h1.46v9.05h-1.46v-9.05Z"/>
    <path class="cls-7" d="M955.8,47.7c-.65-.38-1.15-.93-1.5-1.64-.35-.71-.53-1.54-.53-2.48s.18-1.78.53-2.48c.35-.71.86-1.25,1.5-1.64.65-.38,1.4-.58,2.25-.58s1.6.19,2.25.58c.65.38,1.15.93,1.5,1.64.35.71.53,1.54.53,2.48s-.18,1.78-.53,2.48c-.35.71-.86,1.25-1.5,1.64-.65.38-1.4.58-2.25.58s-1.6-.19-2.25-.58ZM960.12,46.18c.48-.59.72-1.46.72-2.6s-.25-1.96-.74-2.57c-.49-.61-1.18-.91-2.05-.91s-1.58.3-2.07.91c-.49.61-.74,1.46-.74,2.57s.24,2.01.73,2.6c.49.59,1.18.89,2.08.89s1.59-.3,2.07-.89Z"/>
    <path class="cls-7" d="M972.56,42.46v5.69h-1.46v-5.62c0-.84-.17-1.45-.5-1.84-.34-.39-.86-.58-1.58-.58-.84,0-1.51.26-2.02.77-.5.52-.76,1.21-.76,2.09v5.18h-1.46v-6.52c0-.94-.05-1.78-.14-2.54h1.39l.14,1.62c.28-.59.69-1.04,1.24-1.36.55-.32,1.18-.48,1.89-.48,2.17,0,3.26,1.19,3.26,3.58Z"/>
    <path class="cls-7" d="M885.08,56.93h5.11c1.32,0,2.35.32,3.09.95s1.11,1.51,1.11,2.63-.37,2-1.12,2.64c-.74.64-1.77.96-3.08.96h-3.64v5.63h-1.48v-12.82ZM890.07,62.89c.95,0,1.66-.2,2.14-.61.48-.41.72-1,.72-1.76s-.24-1.35-.72-1.75c-.48-.4-1.19-.6-2.14-.6h-3.51v4.73h3.51Z"/>
    <path class="cls-7" d="M901.66,60.59l-.04,1.33c-.28-.1-.59-.14-.95-.14-.88,0-1.53.27-1.95.82s-.64,1.21-.64,1.99v5.17h-1.46v-6.52c0-.94-.05-1.78-.14-2.54h1.39l.14,1.67c.23-.61.59-1.08,1.1-1.4.5-.32,1.08-.49,1.73-.49.3,0,.58.04.83.11Z"/>
    <path class="cls-7" d="M904.63,69.3c-.65-.38-1.15-.93-1.5-1.64-.35-.71-.53-1.54-.53-2.48s.18-1.78.53-2.48c.35-.71.86-1.25,1.5-1.64.65-.38,1.4-.58,2.25-.58s1.6.19,2.25.58c.65.38,1.15.93,1.5,1.64.35.71.53,1.54.53,2.48s-.18,1.78-.53,2.48c-.35.71-.86,1.25-1.5,1.64-.65.38-1.4.58-2.25.58s-1.6-.19-2.25-.58ZM908.95,67.78c.48-.59.72-1.46.72-2.6s-.25-1.96-.74-2.57c-.49-.61-1.18-.91-2.05-.91s-1.58.3-2.07.91c-.49.61-.74,1.46-.74,2.57s.24,2.01.73,2.6c.49.59,1.18.89,2.08.89s1.59-.3,2.07-.89Z"/>
    <path class="cls-7" d="M915.11,69.3c-.65-.38-1.16-.93-1.51-1.63-.35-.7-.53-1.52-.53-2.46s.18-1.76.54-2.48c.36-.71.87-1.27,1.54-1.66s1.44-.59,2.33-.59c.61,0,1.2.1,1.77.31s1.04.5,1.41.87l-.49,1.08c-.46-.36-.9-.62-1.32-.79-.43-.17-.86-.25-1.31-.25-.92,0-1.65.31-2.18.93-.53.62-.79,1.48-.79,2.58s.26,1.94.78,2.55c.52.61,1.25.91,2.19.91.44,0,.88-.08,1.31-.25.43-.17.87-.43,1.32-.79l.49,1.08c-.38.36-.87.65-1.45.85s-1.18.31-1.81.31c-.88,0-1.64-.19-2.29-.58Z"/>
    <path class="cls-7" d="M930.28,65.18h-6.64c.01,1.15.28,2.02.8,2.61.52.59,1.28.88,2.28.88,1.06,0,2.03-.35,2.92-1.06l.49,1.06c-.4.37-.9.67-1.52.88-.62.22-1.25.32-1.9.32-1.42,0-2.53-.42-3.33-1.25-.8-.83-1.21-1.98-1.21-3.43,0-.92.18-1.74.54-2.46.36-.71.86-1.27,1.51-1.66s1.39-.59,2.21-.59c1.2,0,2.14.39,2.83,1.18s1.03,1.87,1.03,3.25v.27ZM924.6,62.3c-.47.46-.78,1.1-.91,1.93h5.27c-.07-.85-.32-1.5-.75-1.94-.43-.44-1.02-.67-1.77-.67s-1.37.23-1.85.68Z"/>
    <path class="cls-7" d="M932.11,68.71l.49-1.08c.49.38.99.66,1.49.83s1.07.25,1.69.25c.68,0,1.2-.12,1.56-.35.35-.23.53-.57.53-1.02,0-.36-.12-.65-.36-.86-.24-.22-.64-.38-1.19-.5l-1.53-.36c-.76-.17-1.34-.47-1.75-.9-.41-.43-.62-.95-.62-1.55,0-.79.32-1.44.95-1.94.64-.5,1.48-.75,2.52-.75.64,0,1.24.1,1.8.31s1.04.5,1.42.88l-.49,1.06c-.85-.71-1.76-1.06-2.74-1.06-.65,0-1.15.12-1.5.37-.35.25-.53.59-.53,1.03,0,.37.11.67.33.88.22.22.58.38,1.07.5l1.53.38c.84.19,1.46.49,1.87.89.41.4.61.93.61,1.57,0,.78-.32,1.4-.95,1.87-.64.47-1.5.7-2.59.7-1.52,0-2.73-.39-3.62-1.17Z"/>
    <path class="cls-7" d="M941.22,68.71l.49-1.08c.49.38.99.66,1.49.83s1.07.25,1.69.25c.68,0,1.2-.12,1.56-.35.35-.23.53-.57.53-1.02,0-.36-.12-.65-.36-.86-.24-.22-.64-.38-1.19-.5l-1.53-.36c-.76-.17-1.34-.47-1.75-.9-.41-.43-.62-.95-.62-1.55,0-.79.32-1.44.95-1.94.64-.5,1.48-.75,2.52-.75.64,0,1.24.1,1.8.31s1.04.5,1.42.88l-.49,1.06c-.85-.71-1.76-1.06-2.74-1.06-.65,0-1.15.12-1.5.37-.35.25-.53.59-.53,1.03,0,.37.11.67.33.88.22.22.58.38,1.07.5l1.53.38c.84.19,1.46.49,1.87.89.41.4.61.93.61,1.57,0,.78-.32,1.4-.95,1.87-.64.47-1.5.7-2.59.7-1.52,0-2.73-.39-3.62-1.17Z"/>
  </g>
  <polygon class="cls-11" points="826.99 1.79 690.16 1.79 690.16 85.8 741.92 85.8 758.57 103.27 775.22 85.8 826.99 85.8 826.99 1.79"/>
  <text class="cls-10" transform="translate(707.16 37.15)"><tspan x="0" y="0">F</tspan><tspan class="cls-22" x="10.13" y="0">ull Securi</tspan><tspan class="cls-16" x="86.69" y="0">t</tspan><tspan class="cls-28" x="93.28" y="0">y </tspan><tspan class="cls-18" x=".08" y="21.6">A</tspan><tspan class="cls-22" x="13.36" y="21.6">ssessment</tspan></text>
  <polygon class="cls-11" points="597.4 1.79 470.57 1.79 470.57 85.8 518.75 85.8 535.4 103.27 552.05 85.8 597.4 85.8 597.4 1.79"/>
  <polygon class="cls-11" points="436.57 1.79 309.74 1.79 309.74 85.8 355.51 85.8 372.16 103.27 388.81 85.8 436.57 85.8 436.57 1.79"/>
  <g class="cls-26">
    <path class="cls-7" d="M517.28,24.32h5.11c1.32,0,2.35.32,3.09.95.74.64,1.11,1.51,1.11,2.63s-.37,2-1.12,2.64c-.74.64-1.77.96-3.08.96h-3.64v5.63h-1.48v-12.82ZM522.27,30.28c.95,0,1.66-.2,2.14-.61.48-.41.72-1,.72-1.76s-.24-1.35-.72-1.75c-.48-.4-1.19-.6-2.14-.6h-3.51v4.73h3.51Z"/>
    <path class="cls-7" d="M533.86,27.97l-.04,1.33c-.28-.1-.59-.14-.95-.14-.88,0-1.53.27-1.95.82-.43.55-.64,1.21-.64,1.99v5.17h-1.46v-6.52c0-.94-.05-1.78-.14-2.54h1.39l.14,1.67c.23-.61.59-1.08,1.1-1.4.5-.32,1.08-.49,1.73-.49.3,0,.58.04.83.11Z"/>
    <path class="cls-7" d="M542.91,32.56h-6.64c.01,1.15.28,2.02.8,2.61s1.28.88,2.28.88c1.06,0,2.03-.35,2.92-1.06l.49,1.06c-.4.37-.9.67-1.52.88-.62.22-1.25.32-1.9.32-1.42,0-2.53-.42-3.33-1.25-.8-.83-1.21-1.98-1.21-3.43,0-.92.18-1.74.54-2.46.36-.71.86-1.27,1.51-1.66s1.39-.59,2.21-.59c1.2,0,2.14.39,2.83,1.18s1.03,1.87,1.03,3.25v.27ZM537.24,29.68c-.47.46-.78,1.1-.91,1.93h5.27c-.07-.85-.32-1.5-.75-1.94-.43-.44-1.02-.67-1.77-.67s-1.37.23-1.84.68Z"/>
    <path class="cls-7" d="M545.42,31.7h5.09v1.21h-5.09v-1.21Z"/>
    <path class="cls-7" d="M486.22,55.44h-6.7l-1.42,3.29h-1.53l5.63-12.82h1.3l5.63,12.82h-1.51l-1.4-3.29ZM485.7,54.22l-2.83-6.59-2.83,6.59h5.65Z"/>
    <path class="cls-7" d="M498.63,49.68v9.05h-1.42v-1.57c-.29.55-.69.97-1.21,1.26-.52.29-1.1.43-1.75.43-1.07,0-1.88-.3-2.43-.9-.55-.6-.83-1.49-.83-2.66v-5.62h1.46v5.58c0,.82.17,1.42.5,1.8.34.38.85.58,1.53.58.8,0,1.45-.26,1.94-.78.49-.52.74-1.21.74-2.06v-5.11h1.46Z"/>
    <path class="cls-7" d="M503.56,50.83v4.95c0,.67.14,1.14.41,1.41.28.27.67.41,1.17.41.34,0,.66-.05.97-.16v1.24c-.37.12-.79.18-1.26.18-.86,0-1.54-.24-2.02-.73-.49-.49-.73-1.2-.73-2.15v-5.15h-1.76v-1.15h1.76v-2.32l1.46-.52v2.84h2.59v1.15h-2.59Z"/>
    <path class="cls-7" d="M515.87,53.05v5.69h-1.46v-5.62c0-.84-.17-1.45-.5-1.84-.34-.39-.86-.58-1.58-.58-.84,0-1.51.26-2.02.77-.5.52-.76,1.21-.76,2.09v5.18h-1.46v-13.25h1.46v5.67c.29-.55.7-.97,1.23-1.26.53-.29,1.14-.43,1.83-.43,2.17,0,3.26,1.19,3.26,3.58Z"/>
    <path class="cls-7" d="M520.3,58.28c-.65-.38-1.15-.93-1.5-1.64s-.53-1.54-.53-2.48.18-1.78.53-2.48c.35-.71.85-1.25,1.5-1.64s1.4-.58,2.25-.58,1.6.19,2.25.58,1.15.93,1.5,1.64c.35.71.53,1.54.53,2.48s-.18,1.78-.53,2.48-.85,1.25-1.5,1.64c-.65.38-1.4.58-2.25.58s-1.6-.19-2.25-.58ZM524.62,56.76c.48-.59.72-1.46.72-2.6s-.25-1.96-.74-2.57c-.49-.61-1.18-.91-2.05-.91s-1.58.3-2.07.91c-.49.61-.74,1.46-.74,2.57s.24,2.01.73,2.6c.49.59,1.18.89,2.08.89s1.59-.3,2.07-.89Z"/>
    <path class="cls-7" d="M534.32,49.57l-.04,1.33c-.28-.1-.59-.14-.95-.14-.88,0-1.53.27-1.95.82-.43.55-.64,1.21-.64,1.99v5.17h-1.46v-6.52c0-.94-.05-1.78-.14-2.54h1.39l.14,1.67c.23-.61.59-1.08,1.1-1.4.5-.32,1.08-.49,1.73-.49.3,0,.58.04.83.11Z"/>
    <path class="cls-7" d="M537.61,45.85v1.66h-1.78v-1.66h1.78ZM535.97,49.68h1.46v9.05h-1.46v-9.05Z"/>
    <path class="cls-7" d="M547.58,57.58v1.15h-7.65v-1.01l5.71-6.89h-5.51v-1.15h7.25v1.06l-5.65,6.84h5.85Z"/>
    <path class="cls-7" d="M557.72,49.68v9.05h-1.44v-1.64c-.26.56-.66,1-1.2,1.31-.53.31-1.16.46-1.86.46-.8,0-1.51-.19-2.11-.58-.61-.38-1.07-.93-1.4-1.63-.33-.7-.5-1.52-.5-2.46s.17-1.76.5-2.48c.34-.71.81-1.27,1.41-1.66s1.31-.59,2.1-.59c.71,0,1.33.16,1.85.47.53.31.93.75,1.21,1.31v-1.57h1.44ZM555.56,56.75c.48-.61.72-1.47.72-2.58s-.24-1.97-.72-2.57-1.16-.9-2.05-.9-1.58.31-2.08.93c-.5.62-.75,1.48-.75,2.58s.25,1.96.74,2.56c.49.6,1.19.9,2.09.9s1.57-.3,2.05-.91Z"/>
    <path class="cls-7" d="M562.67,50.83v4.95c0,.67.14,1.14.41,1.41.28.27.67.41,1.17.41.34,0,.66-.05.97-.16v1.24c-.37.12-.79.18-1.26.18-.86,0-1.54-.24-2.02-.73-.49-.49-.73-1.2-.73-2.15v-5.15h-1.76v-1.15h1.76v-2.32l1.46-.52v2.84h2.59v1.15h-2.59Z"/>
    <path class="cls-7" d="M568.84,45.85v1.66h-1.78v-1.66h1.78ZM567.2,49.68h1.46v9.05h-1.46v-9.05Z"/>
    <path class="cls-7" d="M573.16,58.28c-.65-.38-1.15-.93-1.5-1.64s-.53-1.54-.53-2.48.18-1.78.53-2.48c.35-.71.85-1.25,1.5-1.64s1.4-.58,2.25-.58,1.6.19,2.25.58,1.15.93,1.5,1.64c.35.71.53,1.54.53,2.48s-.18,1.78-.53,2.48-.85,1.25-1.5,1.64c-.65.38-1.4.58-2.25.58s-1.6-.19-2.25-.58ZM577.48,56.76c.48-.59.72-1.46.72-2.6s-.25-1.96-.74-2.57c-.49-.61-1.18-.91-2.05-.91s-1.58.3-2.07.91c-.49.61-.74,1.46-.74,2.57s.24,2.01.73,2.6c.49.59,1.18.89,2.08.89s1.59-.3,2.07-.89Z"/>
    <path class="cls-7" d="M589.92,53.05v5.69h-1.46v-5.62c0-.84-.17-1.45-.5-1.84-.34-.39-.86-.58-1.58-.58-.84,0-1.51.26-2.02.77-.5.52-.76,1.21-.76,2.09v5.18h-1.46v-6.52c0-.94-.05-1.78-.14-2.54h1.39l.14,1.62c.28-.59.69-1.04,1.24-1.36.55-.32,1.18-.48,1.89-.48,2.17,0,3.26,1.19,3.26,3.58Z"/>
  </g>
  <text class="cls-10" transform="translate(329.05 37.14)"><tspan class="cls-20"><tspan x="0" y="0">Readiness </tspan></tspan><tspan class="cls-15" x="-7.45" y="21.6">A</tspan><tspan class="cls-28" x="5.83" y="21.6">ssessment </tspan></text>
  <path id="Path_11101" data-name="Path 11101" class="cls-9" d="M1261.86,177.19h-257.36l14.77-32.94-14.77-33.02h257.36l15.99,33.02-15.99,32.94Z"/>
  <path id="Path_11098" data-name="Path 11098" class="cls-8" d="M978.66,177.19h-284.02l13.35-32.94-13.35-33.02h284.02l14.46,33.02-14.46,32.94Z"/>
  <path id="Path_11100" data-name="Path 11100" class="cls-8" d="M216.43,177.19H.22v-65.97h216.2l14.46,33.02-14.46,32.94Z"/>
  <path id="Path_11287" data-name="Path 11287" class="cls-8" d="M670.17,177.19H247.88l13.88-32.94-13.88-33.02h422.28l13.88,33.02-13.88,32.94Z"/>
  <path id="Path_11343" data-name="Path 11343" class="cls-8" d="M1265.09,177.07h-35.9v-4.74h32.81l.62-1.42,11.36-25.88.42-.95-.42-.95-11.37-25.96-.62-1.42h-201.08v6.68l-12.09-8.98,12.09-8.98v6.54h204.19l14.47,33.07-14.47,32.99Z"/>
  <g id="Select_Authorization_Path" data-name="Select Authorization Path" class="cls-26">
    <text class="cls-12" transform="translate(81.1 140.71)"><tspan class="cls-33" x="0" y="0">Sele</tspan><tspan class="cls-1" x="39.28" y="0">c</tspan><tspan class="cls-37" x="49.95" y="0">t </tspan></text>
    <text class="cls-12" transform="translate(22.62 160.57)"><tspan class="cls-35" x="0" y="0">A</tspan><tspan class="cls-37" x="13.39" y="0">ut</tspan><tspan class="cls-28" x="33.46" y="0">h</tspan><tspan class="cls-37" x="45.97" y="0">o</tspan><tspan x="57.67" y="0">r</tspan><tspan class="cls-33" x="65.23" y="0">ization </tspan><tspan class="cls-4" x="133.4" y="0">P</tspan><tspan class="cls-33" x="146.28" y="0">ath</tspan></text>
  </g>
  <g id="Preparation" class="cls-26">
    <text class="cls-12" transform="translate(404.26 151.64)"><tspan class="cls-36" x="0" y="0">P</tspan><tspan class="cls-6" x="12.89" y="0">r</tspan><tspan class="cls-33" x="20.36" y="0">e</tspan><tspan class="cls-31" x="31.64" y="0">p</tspan><tspan class="cls-37" x="43.96" y="0">a</tspan><tspan class="cls-3" x="54.97" y="0">r</tspan><tspan class="cls-37" x="62.48" y="0">ation</tspan></text>
  </g>
  <g id="Authorization" class="cls-26">
    <text class="cls-12" transform="translate(778.11 151.64)"><tspan class="cls-35" x="0" y="0">A</tspan><tspan class="cls-32" x="13.39" y="0">ut</tspan><tspan class="cls-28" x="33.46" y="0">h</tspan><tspan class="cls-32" x="45.97" y="0">o</tspan><tspan x="57.67" y="0">r</tspan><tspan class="cls-37" x="65.23" y="0">ization</tspan></text>
  </g>
  <path id="Path_11341" data-name="Path 11341" class="cls-8" d="M1015.05,172.33h-3.51l1.32-3.26,9.05-22.32,1.08-2.66-1.08-2.67-9.06-22.42-1.32-3.26h29.23v-4.74h-36.26l13.01,32.18.36.88-.36.89-13.01,32.1h204.53v6.73l12.09-8.98-12.09-8.98v6.49h-193.98Z"/>
  <path id="Path_11342" data-name="Path 11342" class="cls-8" d="M1209.04,169.96v-4.12l12.09,8.98-12.09,8.98v-6.73h-204.53l13-32.1.36-.88-.36-.89-13.01-32.19h36.25v4.74h-29.23l1.32,3.25,9.06,22.42,1.08,2.67-1.08,2.67-9.05,22.32-1.32,3.26h197.5v-2.36Z"/>
  <g id="Continuous_Monitoring" data-name="Continuous Monitoring" class="cls-26">
    <text class="cls-24" transform="translate(1039.03 151.64)"><tspan class="cls-30" x="0" y="0">C</tspan><tspan class="cls-32" x="12.94" y="0">ontinuous Moni</tspan><tspan class="cls-21" x="162.12" y="0">t</tspan><tspan class="cls-37" x="169.74" y="0">o</tspan><tspan class="cls-38" x="181.62" y="0">r</tspan><tspan class="cls-37" x="189.39" y="0">i</tspan><tspan class="cls-5" x="194.9" y="0">n</tspan><tspan class="cls-32" x="207.54" y="0">g</tspan></text>
  </g>
  <path class="cls-13" d="M28.13,24.45l156.25-.54c11.74-.03,21.28,9.45,21.31,21.19v.48c.05,11.74-9.44,21.28-21.18,21.31l-156.25.54c-11.74.03-21.28-9.45-21.31-21.19v-.48c-.05-11.74,9.44-21.28,21.18-21.31Z"/>
  <g id="Agency_PROCESS" data-name="Agency PROCESS" class="cls-26">
    <text class="cls-25" transform="translate(36.53 51.49)"><tspan class="cls-34" x="0" y="0">A</tspan><tspan class="cls-19" x="12.72" y="0">ge</tspan><tspan class="cls-14" x="35.01" y="0">n</tspan><tspan class="cls-17" x="46.68" y="0">c</tspan><tspan class="cls-23" x="56.46" y="0">y </tspan><tspan x="71.33" y="0">P</tspan><tspan class="cls-27" x="83.41" y="0">r</tspan><tspan class="cls-29" x="90.54" y="0">o</tspan><tspan class="cls-2" x="101.51" y="0">c</tspan><tspan class="cls-29" x="111.31" y="0">ess</tspan></text>
  </g>
</svg>