<svg xmlns="http://www.w3.org/2000/svg" width="30.208" height="25.706" viewBox="0 0 30.208 25.706">
  <g id="home-learn-program-basics" transform="translate(-3449.732 -1531.337)">
    <path id="Path_2080" data-name="Path 2080" d="M3474.192,1545.08h-7.717c.106-.029.218-.061.338-.1,4.01-1.349,4.31-8.208,1.237-9.595a4,4,0,0,0-3.1-.308,2.157,2.157,0,0,1,1.3-1.677.6.6,0,0,0-.408-1.128,2.986,2.986,0,0,0-1.616,1.367,3.889,3.889,0,0,0-1.588-1.936,1.813,1.813,0,1,0-1.4,2.567,3.978,3.978,0,0,0,2.616.26,5.45,5.45,0,0,0-.155.737c-.608-.425-1.731-.732-3.682.119-3.439,1.5-2.773,8.245,1.237,9.595.12.039.231.071.338.1H3450.8a1.069,1.069,0,0,0,0,2.139h23.392a3.613,3.613,0,0,1,3.609,3.609v.468a3.613,3.613,0,0,1-3.609,3.609H3450.8a1.069,1.069,0,0,0,0,2.139h23.392a5.754,5.754,0,0,0,5.748-5.748v-.468A5.754,5.754,0,0,0,3474.192,1545.08Zm-14.163-6.547a.9.9,0,1,1,.9-.9A.9.9,0,0,1,3460.03,1538.533Zm3.22,6.547c.31-.163.462-.4.786-.434.324.032.476.271.786.434Z" fill="#fff"/>
    <rect id="Rectangle_1504" data-name="Rectangle 1504" width="22.923" height="5.614" transform="translate(3451.976 1548.264)" fill="#fff"/>
  </g>
</svg>
