<?xml version="1.0" encoding="UTF-8"?>
<svg id="Layer_1" data-name="Layer 1" xmlns="http://www.w3.org/2000/svg" viewBox="0 0 662 490">
  <defs>
    <style>
      .cls-1 {
        letter-spacing: .01em;
      }

      .cls-2 {
        letter-spacing: 0em;
      }

      .cls-3 {
        letter-spacing: 0em;
      }

      .cls-4 {
        letter-spacing: -.01em;
      }

      .cls-5 {
        font-size: 18.45px;
      }

      .cls-5, .cls-6, .cls-7, .cls-8, .cls-9 {
        isolation: isolate;
      }

      .cls-5, .cls-7 {
        font-family: Montserrat-Bold, Montserrat;
        font-weight: 700;
      }

      .cls-5, .cls-10 {
        fill: #0a90b7;
      }

      .cls-11 {
        letter-spacing: 0em;
      }

      .cls-12, .cls-13, .cls-14, .cls-10 {
        stroke-width: 0px;
      }

      .cls-12, .cls-9 {
        fill: #1a4480;
      }

      .cls-15 {
        stroke: #1a4480;
      }

      .cls-15, .cls-6, .cls-16, .cls-14 {
        fill: #fff;
      }

      .cls-15, .cls-16 {
        stroke-width: .75px;
      }

      .cls-17 {
        letter-spacing: .02em;
      }

      .cls-18 {
        letter-spacing: 0em;
      }

      .cls-19 {
        letter-spacing: .02em;
      }

      .cls-20 {
        letter-spacing: 0em;
      }

      .cls-21 {
        letter-spacing: 0em;
      }

      .cls-22 {
        letter-spacing: .01em;
      }

      .cls-23 {
        letter-spacing: .01em;
      }

      .cls-24 {
        letter-spacing: -.01em;
      }

      .cls-13 {
        fill: #1294c2;
      }

      .cls-25 {
        letter-spacing: .01em;
      }

      .cls-26 {
        letter-spacing: .01em;
      }

      .cls-27 {
        fill: none;
        stroke: #8b8c8e;
        stroke-width: .5px;
      }

      .cls-28 {
        letter-spacing: .01em;
      }

      .cls-29 {
        letter-spacing: 0em;
      }

      .cls-30 {
        letter-spacing: 0em;
      }

      .cls-31 {
        letter-spacing: 0em;
      }

      .cls-32 {
        letter-spacing: -.01em;
      }

      .cls-6 {
        font-family: Montserrat-SemiBold, Montserrat;
        font-weight: 600;
      }

      .cls-6, .cls-9 {
        font-size: 18px;
      }

      .cls-33 {
        letter-spacing: 0em;
      }

      .cls-34 {
        letter-spacing: 0em;
      }

      .cls-35 {
        letter-spacing: 0em;
      }

      .cls-7 {
        fill: #1a4480;
        font-size: 16.5px;
      }

      .cls-36 {
        letter-spacing: 0em;
      }

      .cls-37 {
        letter-spacing: 0em;
      }

      .cls-38 {
        letter-spacing: 0em;
      }

      .cls-39 {
        letter-spacing: 0em;
      }

      .cls-16 {
        stroke: #1a4480;
      }

      .cls-9 {
        font-family: Muli-Regular, Muli;
      }

      .cls-40 {
        letter-spacing: 0em;
      }

      .cls-41 {
        letter-spacing: 0em;
      }

      .cls-42 {
        letter-spacing: 0em;
      }
    </style>
  </defs>
  <g>
    <path id="Path_11098" data-name="Path 11098" class="cls-10" d="M326.83,453.41H2.81l13.35-32.94-13.35-33.02h324.02l14.46,33.02-14.46,32.94Z"/>
    <g id="Authorization">
      <text class="cls-6" transform="translate(108.92 427.85)"><tspan class="cls-38" x="0" y="0">A</tspan><tspan class="cls-34" x="13.39" y="0">ut</tspan><tspan class="cls-30" x="33.46" y="0">h</tspan><tspan class="cls-34" x="45.97" y="0">o</tspan><tspan x="57.67" y="0">r</tspan><tspan class="cls-41" x="65.23" y="0">ization</tspan></text>
    </g>
  </g>
  <g>
    <polygon class="cls-15" points="315.59 279 178.76 279 178.76 363.01 230.52 363.01 247.17 380.49 263.83 363.01 315.59 363.01 315.59 279"/>
    <g class="cls-8">
      <path class="cls-12" d="M226.26,300.47h-6.7l-1.42,3.29h-1.53l5.63-12.82h1.3l5.63,12.82h-1.51l-1.4-3.29ZM225.74,299.25l-2.83-6.59-2.83,6.59h5.65Z"/>
      <path class="cls-12" d="M239.15,294.71v8.98c0,1.34-.34,2.36-1.04,3.05-.69.69-1.71,1.04-3.05,1.04s-2.57-.31-3.56-.94l.25-1.19c.58.32,1.12.56,1.63.7.51.14,1.07.22,1.68.22.88,0,1.54-.23,1.98-.69.44-.46.67-1.15.67-2.06v-2.14c-.28.58-.68,1.02-1.21,1.34-.53.32-1.17.48-1.9.48-.79,0-1.5-.19-2.12-.56-.62-.37-1.09-.9-1.43-1.58s-.5-1.47-.5-2.36.17-1.67.5-2.36.81-1.21,1.43-1.58,1.32-.56,2.12-.56c.72,0,1.35.16,1.88.47s.94.75,1.21,1.31v-1.57h1.46ZM236.94,301.4c.5-.58.75-1.38.75-2.4s-.25-1.82-.75-2.4-1.18-.87-2.06-.87-1.59.29-2.1.87c-.51.58-.77,1.38-.77,2.4s.25,1.82.77,2.4c.51.58,1.21.87,2.1.87s1.56-.29,2.06-.87Z"/>
      <path class="cls-12" d="M249.71,299.19h-6.64c.01,1.15.28,2.02.8,2.61.52.59,1.28.88,2.28.88,1.06,0,2.03-.35,2.92-1.06l.49,1.06c-.4.37-.9.67-1.52.88-.62.22-1.25.32-1.9.32-1.42,0-2.53-.42-3.33-1.25-.8-.83-1.21-1.98-1.21-3.43,0-.92.18-1.74.54-2.46.36-.71.86-1.27,1.51-1.66s1.39-.59,2.21-.59c1.2,0,2.14.39,2.83,1.18s1.03,1.87,1.03,3.25v.27ZM244.04,296.31c-.47.46-.78,1.1-.91,1.93h5.27c-.07-.85-.32-1.5-.75-1.94-.43-.44-1.02-.67-1.77-.67s-1.37.23-1.85.68Z"/>
      <path class="cls-12" d="M259.88,298.08v5.69h-1.46v-5.62c0-.84-.17-1.45-.5-1.84-.34-.39-.86-.58-1.58-.58-.84,0-1.51.26-2.02.77-.5.52-.76,1.21-.76,2.09v5.18h-1.46v-6.52c0-.94-.05-1.78-.14-2.54h1.39l.14,1.62c.28-.59.69-1.04,1.24-1.36.55-.32,1.18-.48,1.89-.48,2.17,0,3.26,1.19,3.26,3.58Z"/>
      <path class="cls-12" d="M264.32,303.31c-.65-.38-1.16-.93-1.51-1.63-.35-.7-.53-1.52-.53-2.46s.18-1.76.54-2.48c.36-.71.87-1.27,1.54-1.66s1.44-.59,2.33-.59c.61,0,1.2.1,1.77.31s1.04.5,1.41.87l-.49,1.08c-.46-.36-.9-.62-1.32-.79-.43-.17-.86-.25-1.31-.25-.92,0-1.65.31-2.18.93-.53.62-.79,1.48-.79,2.58s.26,1.94.78,2.55c.52.61,1.25.91,2.19.91.44,0,.88-.08,1.31-.25.43-.17.87-.43,1.32-.79l.49,1.08c-.38.36-.87.65-1.45.85s-1.18.31-1.81.31c-.88,0-1.64-.19-2.29-.58Z"/>
      <path class="cls-12" d="M279.87,294.71l-4.23,9.88c-.44,1.03-1,1.79-1.67,2.27-.67.48-1.5.81-2.48.99l-.31-1.13c.85-.19,1.5-.45,1.93-.77.44-.32.8-.81,1.09-1.47l.36-.81-3.83-8.96h1.53l3.06,7.47,3.1-7.47h1.46Z"/>
      <path class="cls-12" d="M200.64,322.07h-6.7l-1.42,3.29h-1.53l5.63-12.82h1.3l5.63,12.82h-1.51l-1.4-3.29ZM200.12,320.85l-2.83-6.59-2.83,6.59h5.65Z"/>
      <path class="cls-12" d="M213.04,316.31v9.05h-1.42v-1.57c-.29.55-.69.97-1.21,1.26-.52.29-1.1.43-1.75.43-1.07,0-1.88-.3-2.43-.9s-.83-1.49-.83-2.66v-5.62h1.46v5.58c0,.82.17,1.42.5,1.8.34.38.85.58,1.53.58.8,0,1.45-.26,1.94-.78s.74-1.21.74-2.06v-5.11h1.46Z"/>
      <path class="cls-12" d="M217.97,317.46v4.95c0,.67.14,1.14.41,1.41s.67.41,1.17.41c.34,0,.66-.05.97-.16v1.24c-.37.12-.79.18-1.26.18-.86,0-1.54-.24-2.02-.73s-.73-1.2-.73-2.15v-5.15h-1.76v-1.15h1.76v-2.32l1.46-.52v2.84h2.59v1.15h-2.59Z"/>
      <path class="cls-12" d="M230.28,319.68v5.69h-1.46v-5.62c0-.84-.17-1.45-.5-1.84-.34-.39-.86-.58-1.58-.58-.84,0-1.51.26-2.02.77-.5.52-.76,1.21-.76,2.09v5.18h-1.46v-13.25h1.46v5.67c.29-.55.7-.97,1.23-1.26s1.14-.43,1.83-.43c2.17,0,3.26,1.19,3.26,3.58Z"/>
      <path class="cls-12" d="M234.71,324.91c-.65-.38-1.15-.93-1.5-1.64-.35-.71-.53-1.54-.53-2.48s.18-1.78.53-2.48c.35-.71.86-1.25,1.5-1.64.65-.38,1.4-.58,2.25-.58s1.6.19,2.25.58c.65.38,1.15.93,1.5,1.64.35.71.53,1.54.53,2.48s-.18,1.78-.53,2.48c-.35.71-.86,1.25-1.5,1.64-.65.38-1.4.58-2.25.58s-1.6-.19-2.25-.58ZM239.03,323.39c.48-.59.72-1.46.72-2.6s-.25-1.96-.74-2.57c-.49-.61-1.18-.91-2.05-.91s-1.58.3-2.07.91c-.49.61-.74,1.46-.74,2.57s.24,2.01.73,2.6c.49.59,1.18.89,2.08.89s1.59-.3,2.07-.89Z"/>
      <path class="cls-12" d="M248.73,316.2l-.04,1.33c-.28-.1-.59-.14-.95-.14-.88,0-1.53.27-1.95.82s-.64,1.21-.64,1.99v5.17h-1.46v-6.52c0-.94-.05-1.78-.14-2.54h1.39l.14,1.67c.23-.61.59-1.08,1.1-1.4.5-.32,1.08-.49,1.73-.49.3,0,.58.04.83.11Z"/>
      <path class="cls-12" d="M252.03,312.48v1.66h-1.78v-1.66h1.78ZM250.39,316.31h1.46v9.05h-1.46v-9.05Z"/>
      <path class="cls-12" d="M262,324.21v1.15h-7.65v-1.01l5.71-6.89h-5.51v-1.15h7.25v1.06l-5.65,6.84h5.85Z"/>
      <path class="cls-12" d="M272.13,316.31v9.05h-1.44v-1.64c-.26.56-.66,1-1.2,1.31-.53.31-1.16.46-1.86.46-.8,0-1.51-.19-2.12-.58-.61-.38-1.07-.93-1.4-1.63-.33-.7-.5-1.52-.5-2.46s.17-1.76.5-2.48c.34-.71.81-1.27,1.41-1.66.61-.4,1.3-.59,2.1-.59.71,0,1.33.16,1.85.47.53.31.93.75,1.21,1.31v-1.57h1.44ZM269.97,323.38c.48-.61.72-1.47.72-2.58s-.24-1.97-.72-2.57c-.48-.6-1.16-.9-2.05-.9s-1.58.31-2.08.93c-.5.62-.75,1.48-.75,2.58s.25,1.96.74,2.56,1.19.9,2.09.9,1.57-.3,2.05-.91Z"/>
      <path class="cls-12" d="M277.08,317.46v4.95c0,.67.14,1.14.41,1.41s.67.41,1.17.41c.34,0,.66-.05.97-.16v1.24c-.37.12-.79.18-1.26.18-.86,0-1.54-.24-2.02-.73s-.73-1.2-.73-2.15v-5.15h-1.76v-1.15h1.76v-2.32l1.46-.52v2.84h2.59v1.15h-2.59Z"/>
      <path class="cls-12" d="M283.26,312.48v1.66h-1.78v-1.66h1.78ZM281.62,316.31h1.46v9.05h-1.46v-9.05Z"/>
      <path class="cls-12" d="M287.58,324.91c-.65-.38-1.15-.93-1.5-1.64-.35-.71-.53-1.54-.53-2.48s.18-1.78.53-2.48c.35-.71.86-1.25,1.5-1.64.65-.38,1.4-.58,2.25-.58s1.6.19,2.25.58c.65.38,1.15.93,1.5,1.64.35.71.53,1.54.53,2.48s-.18,1.78-.53,2.48c-.35.71-.86,1.25-1.5,1.64-.65.38-1.4.58-2.25.58s-1.6-.19-2.25-.58ZM291.9,323.39c.48-.59.72-1.46.72-2.6s-.25-1.96-.74-2.57c-.49-.61-1.18-.91-2.05-.91s-1.58.3-2.07.91c-.49.61-.74,1.46-.74,2.57s.24,2.01.73,2.6c.49.59,1.18.89,2.08.89s1.59-.3,2.07-.89Z"/>
      <path class="cls-12" d="M304.33,319.68v5.69h-1.46v-5.62c0-.84-.17-1.45-.5-1.84-.34-.39-.86-.58-1.58-.58-.84,0-1.51.26-2.02.77-.5.52-.76,1.21-.76,2.09v5.18h-1.46v-6.52c0-.94-.05-1.78-.14-2.54h1.39l.14,1.62c.28-.59.69-1.04,1.24-1.36.55-.32,1.18-.48,1.89-.48,2.17,0,3.26,1.19,3.26,3.58Z"/>
      <path class="cls-12" d="M216.86,334.15h5.11c1.32,0,2.35.32,3.09.95s1.11,1.51,1.11,2.63-.37,2-1.12,2.64c-.74.64-1.77.96-3.08.96h-3.64v5.63h-1.48v-12.82ZM221.84,340.11c.95,0,1.66-.2,2.14-.61.48-.41.72-1,.72-1.76s-.24-1.35-.72-1.75c-.48-.4-1.19-.6-2.14-.6h-3.51v4.73h3.51Z"/>
      <path class="cls-12" d="M233.43,337.8l-.04,1.33c-.28-.1-.59-.14-.95-.14-.88,0-1.53.27-1.95.82s-.64,1.21-.64,1.99v5.17h-1.46v-6.52c0-.94-.05-1.78-.14-2.54h1.39l.14,1.67c.23-.61.59-1.08,1.1-1.4.5-.32,1.08-.49,1.73-.49.3,0,.58.04.83.11Z"/>
      <path class="cls-12" d="M236.4,346.51c-.65-.38-1.15-.93-1.5-1.64-.35-.71-.53-1.54-.53-2.48s.18-1.78.53-2.48c.35-.71.86-1.25,1.5-1.64.65-.38,1.4-.58,2.25-.58s1.6.19,2.25.58c.65.38,1.15.93,1.5,1.64.35.71.53,1.54.53,2.48s-.18,1.78-.53,2.48c-.35.71-.86,1.25-1.5,1.64-.65.38-1.4.58-2.25.58s-1.6-.19-2.25-.58ZM240.72,344.99c.48-.59.72-1.46.72-2.6s-.25-1.96-.74-2.57c-.49-.61-1.18-.91-2.05-.91s-1.58.3-2.07.91c-.49.61-.74,1.46-.74,2.57s.24,2.01.73,2.6c.49.59,1.18.89,2.08.89s1.59-.3,2.07-.89Z"/>
      <path class="cls-12" d="M246.89,346.51c-.65-.38-1.16-.93-1.51-1.63-.35-.7-.53-1.52-.53-2.46s.18-1.76.54-2.48c.36-.71.87-1.27,1.54-1.66s1.44-.59,2.33-.59c.61,0,1.2.1,1.77.31s1.04.5,1.41.87l-.49,1.08c-.46-.36-.9-.62-1.32-.79-.43-.17-.86-.25-1.31-.25-.92,0-1.65.31-2.18.93-.53.62-.79,1.48-.79,2.58s.26,1.94.78,2.55c.52.61,1.25.91,2.19.91.44,0,.88-.08,1.31-.25.43-.17.87-.43,1.32-.79l.49,1.08c-.38.36-.87.65-1.45.85s-1.18.31-1.81.31c-.88,0-1.64-.19-2.29-.58Z"/>
      <path class="cls-12" d="M262.05,342.39h-6.64c.01,1.15.28,2.02.8,2.61.52.59,1.28.88,2.28.88,1.06,0,2.03-.35,2.92-1.06l.49,1.06c-.4.37-.9.67-1.52.88-.62.22-1.25.32-1.9.32-1.42,0-2.53-.42-3.33-1.25-.8-.83-1.21-1.98-1.21-3.43,0-.92.18-1.74.54-2.46.36-.71.86-1.27,1.51-1.66s1.39-.59,2.21-.59c1.2,0,2.14.39,2.83,1.18s1.03,1.87,1.03,3.25v.27ZM256.37,339.51c-.47.46-.78,1.1-.91,1.93h5.27c-.07-.85-.32-1.5-.75-1.94-.43-.44-1.02-.67-1.77-.67s-1.37.23-1.85.68Z"/>
      <path class="cls-12" d="M263.89,345.92l.49-1.08c.49.38.99.66,1.49.83s1.07.25,1.69.25c.68,0,1.2-.12,1.56-.35.35-.23.53-.57.53-1.02,0-.36-.12-.65-.36-.86-.24-.22-.64-.38-1.19-.5l-1.53-.36c-.76-.17-1.34-.47-1.75-.9-.41-.43-.62-.95-.62-1.55,0-.79.32-1.44.95-1.94.64-.5,1.48-.75,2.52-.75.64,0,1.24.1,1.8.31s1.04.5,1.42.88l-.49,1.06c-.85-.71-1.76-1.06-2.74-1.06-.65,0-1.15.12-1.5.37-.35.25-.53.59-.53,1.03,0,.37.11.67.33.88.22.22.58.38,1.07.5l1.53.38c.84.19,1.46.49,1.87.89.41.4.61.93.61,1.57,0,.78-.32,1.4-.95,1.87-.64.47-1.5.7-2.59.7-1.52,0-2.73-.39-3.62-1.17Z"/>
      <path class="cls-12" d="M273,345.92l.49-1.08c.49.38.99.66,1.49.83s1.07.25,1.69.25c.68,0,1.2-.12,1.56-.35.35-.23.53-.57.53-1.02,0-.36-.12-.65-.36-.86-.24-.22-.64-.38-1.19-.5l-1.53-.36c-.76-.17-1.34-.47-1.75-.9-.41-.43-.62-.95-.62-1.55,0-.79.32-1.44.95-1.94.64-.5,1.48-.75,2.52-.75.64,0,1.24.1,1.8.31s1.04.5,1.42.88l-.49,1.06c-.85-.71-1.76-1.06-2.74-1.06-.65,0-1.15.12-1.5.37-.35.25-.53.59-.53,1.03,0,.37.11.67.33.88.22.22.58.38,1.07.5l1.53.38c.84.19,1.46.49,1.87.89.41.4.61.93.61,1.57,0,.78-.32,1.4-.95,1.87-.64.47-1.5.7-2.59.7-1.52,0-2.73-.39-3.62-1.17Z"/>
    </g>
  </g>
  <g>
    <polygon class="cls-15" points="158.76 279 21.93 279 21.93 363.01 73.7 363.01 90.35 380.49 107 363.01 158.76 363.01 158.76 279"/>
    <text class="cls-9" transform="translate(38.93 314.35)"><tspan x="0" y="0">F</tspan><tspan class="cls-25" x="10.13" y="0">ull Securi</tspan><tspan class="cls-19" x="86.69" y="0">t</tspan><tspan class="cls-30" x="93.27" y="0">y </tspan><tspan class="cls-21" x=".08" y="21.6">A</tspan><tspan class="cls-25" x="13.36" y="21.6">ssessment</tspan></text>
  </g>
  <path id="Path_11100" data-name="Path 11100" class="cls-10" d="M202.2,187.41H0v-65.97h202.2l14.46,33.02-14.46,32.94Z"/>
  <g id="Select_Authorization_Path" data-name="Select Authorization Path">
    <g>
      <text class="cls-6" transform="translate(69.88 150.92)"><tspan class="cls-35" x="0" y="0">Sele</tspan><tspan class="cls-1" x="39.28" y="0">c</tspan><tspan class="cls-41" x="49.95" y="0">t </tspan></text>
      <text class="cls-6" transform="translate(11.4 170.78)"><tspan class="cls-38" x="0" y="0">A</tspan><tspan class="cls-41" x="13.39" y="0">ut</tspan><tspan class="cls-30" x="33.46" y="0">h</tspan><tspan class="cls-41" x="45.97" y="0">o</tspan><tspan x="57.67" y="0">r</tspan><tspan class="cls-35" x="65.23" y="0">ization </tspan><tspan class="cls-4" x="133.4" y="0">P</tspan><tspan class="cls-35" x="146.28" y="0">ath</tspan></text>
    </g>
  </g>
  <g>
    <path id="Path_11287" data-name="Path 11287" class="cls-10" d="M646.94,187.41H238.65l11.88-32.94-13.88-33.02h410.28l13.88,33.02-13.88,32.94Z"/>
    <g id="Preparation">
      <text class="cls-6" transform="translate(394.42 161.85)"><tspan class="cls-39" x="0" y="0">P</tspan><tspan class="cls-11" x="12.89" y="0">r</tspan><tspan class="cls-35" x="20.36" y="0">e</tspan><tspan class="cls-33" x="31.64" y="0">p</tspan><tspan class="cls-41" x="43.96" y="0">a</tspan><tspan class="cls-3" x="54.97" y="0">r</tspan><tspan class="cls-41" x="62.48" y="0">ation</tspan></text>
    </g>
  </g>
  <path class="cls-16" d="M26.91,34.67l148.25-.54c11.74-.03,21.28,9.45,21.31,21.19v.48c.05,11.74-9.44,21.28-21.18,21.31l-148.25.54c-11.74.03-21.28-9.45-21.31-21.19v-.48c-.05-11.74,9.44-21.28,21.18-21.31Z"/>
  <g id="Agency_PROCESS" data-name="Agency PROCESS" class="cls-8">
    <text class="cls-7" transform="translate(31.3 61.71)"><tspan class="cls-36" x="0" y="0">A</tspan><tspan class="cls-22" x="12.72" y="0">ge</tspan><tspan class="cls-17" x="35.01" y="0">n</tspan><tspan class="cls-20" x="46.68" y="0">c</tspan><tspan class="cls-26" x="56.46" y="0">y </tspan><tspan x="71.33" y="0">P</tspan><tspan class="cls-29" x="83.41" y="0">r</tspan><tspan class="cls-31" x="90.54" y="0">o</tspan><tspan class="cls-2" x="101.51" y="0">c</tspan><tspan class="cls-31" x="111.31" y="0">ess</tspan></text>
  </g>
  <polygon class="cls-15" points="582.17 21 455.35 21 455.35 97.01 503.52 97.01 520.17 114.49 536.83 97.01 582.17 97.01 582.17 21"/>
  <g class="cls-8">
    <path class="cls-12" d="M503.28,40.05h5.11c1.32,0,2.35.32,3.09.95s1.11,1.51,1.11,2.63-.37,2-1.12,2.64c-.74.64-1.77.96-3.08.96h-3.64v5.63h-1.48v-12.82ZM508.27,46.01c.95,0,1.66-.2,2.14-.61.48-.41.72-1,.72-1.76s-.24-1.35-.72-1.75c-.48-.4-1.19-.6-2.14-.6h-3.51v4.73h3.51Z"/>
    <path class="cls-12" d="M519.86,43.7l-.04,1.33c-.28-.1-.59-.14-.95-.14-.88,0-1.53.27-1.95.82-.43.55-.64,1.21-.64,1.99v5.17h-1.46v-6.52c0-.94-.05-1.78-.14-2.54h1.39l.14,1.67c.23-.61.59-1.08,1.1-1.4.5-.32,1.08-.49,1.73-.49.3,0,.58.04.83.11Z"/>
    <path class="cls-12" d="M528.91,48.29h-6.64c.01,1.15.28,2.02.8,2.61.52.59,1.28.88,2.28.88,1.06,0,2.03-.35,2.92-1.06l.49,1.06c-.4.37-.9.67-1.52.88-.62.22-1.25.32-1.9.32-1.42,0-2.53-.42-3.33-1.25-.8-.83-1.21-1.98-1.21-3.43,0-.92.18-1.74.54-2.46.36-.71.86-1.27,1.51-1.66.65-.4,1.39-.59,2.21-.59,1.2,0,2.14.39,2.83,1.18.68.79,1.03,1.87,1.03,3.25v.27ZM523.24,45.41c-.47.46-.78,1.1-.91,1.93h5.27c-.07-.85-.32-1.5-.75-1.94-.43-.44-1.02-.67-1.77-.67s-1.37.23-1.84.68Z"/>
    <path class="cls-12" d="M531.42,47.43h5.09v1.21h-5.09v-1.21Z"/>
    <path class="cls-12" d="M472.22,71.17h-6.7l-1.42,3.29h-1.53l5.63-12.82h1.3l5.63,12.82h-1.51l-1.4-3.29ZM471.7,69.95l-2.83-6.59-2.83,6.59h5.65Z"/>
    <path class="cls-12" d="M484.63,65.41v9.05h-1.42v-1.57c-.29.55-.69.97-1.21,1.26-.52.29-1.1.43-1.75.43-1.07,0-1.88-.3-2.43-.9-.55-.6-.83-1.49-.83-2.66v-5.62h1.46v5.58c0,.82.17,1.42.5,1.8.34.38.85.58,1.53.58.8,0,1.45-.26,1.94-.78s.74-1.21.74-2.06v-5.11h1.46Z"/>
    <path class="cls-12" d="M489.56,66.56v4.95c0,.67.14,1.14.41,1.41.28.27.67.41,1.17.41.33,0,.66-.05.97-.16v1.24c-.37.12-.79.18-1.26.18-.86,0-1.54-.24-2.03-.73s-.73-1.2-.73-2.15v-5.15h-1.76v-1.15h1.76v-2.32l1.46-.52v2.84h2.59v1.15h-2.59Z"/>
    <path class="cls-12" d="M501.87,68.78v5.69h-1.46v-5.62c0-.84-.17-1.45-.5-1.84-.34-.39-.86-.58-1.58-.58-.84,0-1.51.26-2.02.77-.5.52-.76,1.21-.76,2.09v5.18h-1.46v-13.25h1.46v5.67c.29-.55.7-.97,1.23-1.26s1.14-.43,1.83-.43c2.17,0,3.26,1.19,3.26,3.58Z"/>
    <path class="cls-12" d="M506.3,74.02c-.65-.38-1.15-.93-1.5-1.64-.35-.71-.53-1.54-.53-2.48s.18-1.78.53-2.48c.35-.71.86-1.25,1.5-1.64.65-.38,1.4-.58,2.25-.58s1.6.19,2.25.58c.65.38,1.15.93,1.5,1.64.35.71.53,1.54.53,2.48s-.18,1.78-.53,2.48c-.35.71-.85,1.25-1.5,1.64-.65.38-1.4.58-2.25.58s-1.6-.19-2.25-.58ZM510.62,72.49c.48-.59.72-1.46.72-2.6s-.25-1.96-.74-2.57c-.49-.61-1.18-.91-2.05-.91s-1.58.3-2.07.91c-.49.61-.74,1.46-.74,2.57s.24,2.01.73,2.6c.49.59,1.18.89,2.08.89s1.59-.3,2.07-.89Z"/>
    <path class="cls-12" d="M520.32,65.3l-.04,1.33c-.28-.1-.59-.14-.95-.14-.88,0-1.53.27-1.95.82-.43.55-.64,1.21-.64,1.99v5.17h-1.46v-6.52c0-.94-.05-1.78-.14-2.54h1.39l.14,1.67c.23-.61.59-1.08,1.1-1.4.5-.32,1.08-.49,1.73-.49.3,0,.58.04.83.11Z"/>
    <path class="cls-12" d="M523.61,61.58v1.66h-1.78v-1.66h1.78ZM521.97,65.41h1.46v9.05h-1.46v-9.05Z"/>
    <path class="cls-12" d="M533.58,73.31v1.15h-7.65v-1.01l5.71-6.89h-5.51v-1.15h7.25v1.06l-5.65,6.84h5.85Z"/>
    <path class="cls-12" d="M543.72,65.41v9.05h-1.44v-1.64c-.26.56-.66,1-1.2,1.31-.53.31-1.16.46-1.86.46-.8,0-1.51-.19-2.12-.58-.61-.38-1.07-.93-1.4-1.63-.33-.7-.5-1.52-.5-2.46s.17-1.76.5-2.48c.33-.71.81-1.27,1.41-1.66.61-.4,1.31-.59,2.1-.59.71,0,1.33.16,1.85.47s.93.75,1.21,1.31v-1.57h1.44ZM541.56,72.48c.48-.61.72-1.47.72-2.58s-.24-1.97-.72-2.57c-.48-.6-1.16-.9-2.05-.9s-1.58.31-2.08.93c-.5.62-.75,1.48-.75,2.58s.25,1.96.74,2.56c.49.6,1.19.9,2.09.9s1.57-.3,2.05-.91Z"/>
    <path class="cls-12" d="M548.67,66.56v4.95c0,.67.14,1.14.41,1.41.28.27.67.41,1.17.41.33,0,.66-.05.97-.16v1.24c-.37.12-.79.18-1.26.18-.86,0-1.54-.24-2.03-.73s-.73-1.2-.73-2.15v-5.15h-1.76v-1.15h1.76v-2.32l1.46-.52v2.84h2.59v1.15h-2.59Z"/>
    <path class="cls-12" d="M554.84,61.58v1.66h-1.78v-1.66h1.78ZM553.2,65.41h1.46v9.05h-1.46v-9.05Z"/>
    <path class="cls-12" d="M559.16,74.02c-.65-.38-1.15-.93-1.5-1.64-.35-.71-.53-1.54-.53-2.48s.18-1.78.53-2.48c.35-.71.85-1.25,1.5-1.64.65-.38,1.4-.58,2.25-.58s1.6.19,2.25.58c.65.38,1.15.93,1.5,1.64.35.71.53,1.54.53,2.48s-.18,1.78-.53,2.48c-.35.71-.86,1.25-1.5,1.64-.65.38-1.4.58-2.25.58s-1.6-.19-2.25-.58ZM563.48,72.49c.48-.59.72-1.46.72-2.6s-.25-1.96-.74-2.57c-.49-.61-1.18-.91-2.05-.91s-1.58.3-2.07.91c-.49.61-.74,1.46-.74,2.57s.24,2.01.73,2.6c.49.59,1.18.89,2.08.89s1.59-.3,2.07-.89Z"/>
    <path class="cls-12" d="M575.92,68.78v5.69h-1.46v-5.62c0-.84-.17-1.45-.5-1.84-.34-.39-.86-.58-1.58-.58-.84,0-1.51.26-2.02.77-.5.52-.76,1.21-.76,2.09v5.18h-1.46v-6.52c0-.94-.05-1.78-.14-2.54h1.39l.14,1.62c.28-.59.69-1.04,1.24-1.36.55-.32,1.18-.48,1.89-.48,2.17,0,3.26,1.19,3.26,3.58Z"/>
  </g>
  <polygon class="cls-15" points="435.35 21 308.52 21 308.52 97.01 354.28 97.01 370.93 114.49 387.58 97.01 435.35 97.01 435.35 21"/>
  <text class="cls-9" transform="translate(327.05 52.87)"><tspan class="cls-23"><tspan x="0" y="0">Readiness </tspan></tspan><tspan class="cls-18" x="-7.45" y="21.6">A</tspan><tspan class="cls-30" x="5.83" y="21.6">ssessment </tspan></text>
  <line id="Line_280" data-name="Line 280" class="cls-27" x1="662" y1="258.55" x2=".06" y2="258.55"/>
  <path id="Path_11101" data-name="Path 11101" class="cls-14" d="M642.86,454.52h-277.8l15.14-33.77-15.14-33.85h277.8l16.39,33.85-16.39,33.77Z"/>
  <path id="Path_11343" data-name="Path 11343" class="cls-13" d="M646.17,454.39h-36.8v-4.85h33.63l.64-1.45,11.64-26.53.43-.97-.43-.98-11.65-26.61-.64-1.45h-220.11v6.85l-12.39-9.2,12.39-9.2v6.7h223.29l14.83,33.9-14.83,33.81Z"/>
  <path id="Path_11341" data-name="Path 11341" class="cls-13" d="M375.87,449.54h-3.6l1.36-3.34,9.27-22.88,1.11-2.73-1.1-2.73-9.29-22.98-1.35-3.34h29.96v-4.86h-37.17l13.33,32.99.37.9-.37.91-13.33,32.9h223.65v6.9l12.39-9.2-12.39-9.2v6.66h-212.83Z"/>
  <path id="Path_11342" data-name="Path 11342" class="cls-13" d="M588.71,447.11v-4.23l12.39,9.2-12.39,9.2v-6.9h-223.65l13.33-32.9.37-.9-.37-.91-13.33-33h37.16v4.86h-29.96l1.35,3.34,9.29,22.98,1.11,2.73-1.11,2.73-9.27,22.88-1.36,3.34h216.44v-2.42Z"/>
  <g id="Continuous_Monitoring" data-name="Continuous Monitoring" class="cls-8">
    <text class="cls-5" transform="translate(408.45 428.32)"><tspan class="cls-32" x="0" y="0">C</tspan><tspan class="cls-42" x="13.27" y="0">ontinuous Moni</tspan><tspan class="cls-24" x="166.18" y="0">t</tspan><tspan class="cls-37" x="173.98" y="0">o</tspan><tspan class="cls-40" x="186.16" y="0">r</tspan><tspan class="cls-37" x="194.13" y="0">i</tspan><tspan class="cls-28" x="199.78" y="0">n</tspan><tspan class="cls-37" x="212.73" y="0">g</tspan></text>
  </g>
</svg>