<svg xmlns="http://www.w3.org/2000/svg" width="34.606" height="27.593" viewBox="0 0 34.606 27.593">
  <path id="Path_6903" data-name="Path 6903" d="M496.347-239.877h-6.855l4.185-6.726-4.185-6.727h6.855l4.185,6.727Zm-9.833-13.453h-6.855l4.084,6.564a2.875,2.875,0,0,1,2.642,2.861,2.879,2.879,0,0,1-2.31,2.817l-4.183.837-.233.374h6.855L490.7-246.6Zm-13.266,6.809a3.744,3.744,0,0,0,3.74-3.74,3.744,3.744,0,0,0-3.74-3.74,3.744,3.744,0,0,0-3.74,3.74A3.744,3.744,0,0,0,473.248-246.521Zm10.264.831h-8.6a.414.414,0,0,0-.3.128c-.493.515-1.039,1.075-1.346,1.377l-1.384-1.384a.413.413,0,0,0-.375-.114l-2.819.564a2.082,2.082,0,0,0-1.67,2.037v5.672a1.244,1.244,0,0,0,.555,1.037l1.8,1.2a.417.417,0,0,1,.183.3l.706,6.354a1.245,1.245,0,0,0,1.239,1.11h2.677a1.248,1.248,0,0,0,1.237-1.092h0l1.5-11.974a.417.417,0,0,1,.331-.356l6.622-1.324a1.77,1.77,0,0,0,.3-.088,1.78,1.78,0,0,0,.4-.221,1.787,1.787,0,0,0,.328-.311,1.782,1.782,0,0,0,.406-1.131A1.788,1.788,0,0,0,483.512-245.69Z" transform="translate(-466.515 254.5)" fill="#fff" stroke="rgba(0,0,0,0)" stroke-width="1"/>
</svg>
