<svg xmlns="http://www.w3.org/2000/svg" width="18.2" height="18.2" viewBox="0 0 18.2 18.2">
  <g id="Group_3468" data-name="Group 3468" transform="translate(190.884 -217.291)">
    <path id="Path_6913" data-name="Path 6913" d="M-186.374,230.154h-3.469a1.041,1.041,0,0,0-1.041,1.041V241.6a1.041,1.041,0,0,0,1.041,1.041h3.469a1.041,1.041,0,0,0,1.041-1.041V231.195A1.041,1.041,0,0,0-186.374,230.154Zm-1.735,10.755a1.041,1.041,0,0,1-1.041-1.041,1.041,1.041,0,0,1,1.041-1.041,1.041,1.041,0,0,1,1.041,1.041A1.041,1.041,0,0,1-188.109,240.909Z" transform="translate(0 -7.152)" fill="#c71f25"/>
    <path id="Path_6914" data-name="Path 6914" d="M-173.893,220.187c0,1.507-.905,2.354-1.159,3.361h3.543a2.1,2.1,0,0,1,2.075,2.065,2.6,2.6,0,0,1-.678,1.749l0,0a3.021,3.021,0,0,1-.324,2.825,2.855,2.855,0,0,1-.571,2.657,1.92,1.92,0,0,1-.214,1.587c-.711,1.042-2.473,1.057-3.963,1.057h-.1a9.835,9.835,0,0,1-4.164-1.128,5.419,5.419,0,0,0-1.834-.575.422.422,0,0,1-.41-.427v-7.6a.429.429,0,0,1,.124-.3c1.38-1.392,1.973-2.865,3.1-4.021a4.349,4.349,0,0,0,.885-2.094c.155-.657.479-2.055,1.182-2.055C-175.566,217.291-173.893,217.576-173.893,220.187Z" transform="translate(-3.249 0)" fill="#c71f25" opacity="0.8"/>
  </g>
</svg>
