<?xml version="1.0" encoding="utf-8"?>
<!-- Generator: Adobe Illustrator 24.0.3, SVG Export Plug-In . SVG Version: 6.00 Build 0)  -->
<svg version="1.1" xmlns="http://www.w3.org/2000/svg" xmlns:xlink="http://www.w3.org/1999/xlink" x="0px" y="0px"
	 viewBox="0 0 129.6 129.6" style="enable-background:new 0 0 129.6 129.6;" xml:space="preserve">
<style type="text/css">
	.st0{display:none;}
	.st1{display:inline;fill:#F1F0F0;}
	.st2{fill:#FFFFFF;}
	.st3{fill:#D1D3D4;}
	.st4{fill:url(#XMLID_5_);}
	.st5{clip-path:url(#SVGID_2_);}
	.st6{fill:#757576;}
	.st7{fill:#F1F0F0;}
	.st8{fill:url(#SVGID_3_);}
	.st9{fill:url(#SVGID_4_);}
	.st10{fill:url(#SVGID_5_);}
	.st11{fill:url(#SVGID_6_);}
	.st12{fill:url(#SVGID_7_);}
	.st13{fill:url(#SVGID_8_);}
	.st14{fill:url(#SVGID_9_);}
	.st15{fill:url(#SVGID_10_);}
	.st16{fill:url(#SVGID_11_);}
	.st17{fill:url(#SVGID_12_);}
	.st18{fill:url(#SVGID_13_);}
	.st19{fill:url(#SVGID_14_);}
	.st20{fill:#5D5F61;}
	.st21{fill:url(#SVGID_15_);}
	.st22{fill:#E9EAEA;}
	.st23{fill:url(#SVGID_16_);}
	.st24{fill:url(#SVGID_17_);}
	.st25{fill:url(#SVGID_18_);}
	.st26{fill:url(#SVGID_19_);}
	.st27{fill:#747577;}
	.st28{fill:url(#SVGID_20_);}
	.st29{fill:url(#SVGID_21_);}
	.st30{fill:url(#SVGID_22_);}
	.st31{fill:url(#SVGID_23_);}
	.st32{fill:url(#SVGID_24_);}
	.st33{fill:url(#SVGID_25_);}
	.st34{fill:url(#SVGID_26_);}
	.st35{fill:url(#SVGID_27_);}
	.st36{fill:#DFE0E1;}
	.st37{fill:url(#SVGID_28_);}
	.st38{fill:url(#SVGID_29_);}
	.st39{fill:url(#SVGID_30_);}
	.st40{fill:url(#SVGID_31_);}
	.st41{fill:url(#SVGID_32_);}
	.st42{fill:url(#SVGID_33_);}
	.st43{fill:url(#SVGID_34_);}
	.st44{fill:url(#SVGID_35_);}
	.st45{fill:url(#SVGID_36_);}
	.st46{fill:url(#SVGID_37_);}
	.st47{fill:url(#SVGID_38_);}
	.st48{fill:url(#SVGID_39_);}
	.st49{fill:url(#SVGID_40_);}
	.st50{fill:url(#SVGID_41_);}
	.st51{fill:#D2D3D5;}
	.st52{fill:url(#SVGID_42_);}
	.st53{fill:url(#SVGID_43_);}
	.st54{fill:url(#XMLID_6_);}
	.st55{fill:url(#XMLID_7_);}
	.st56{fill:#5C5959;}
	.st57{fill:#585656;}
	.st58{clip-path:url(#SVGID_2_);fill:#0790B7;}
	.st59{fill:#9F9D9D;}
	.st60{fill:#AFADAD;}
	.st61{fill:url(#SVGID_44_);}
	.st62{fill:url(#SVGID_45_);}
	.st63{fill:url(#SVGID_46_);}
	.st64{fill:url(#SVGID_47_);}
	.st65{fill:url(#SVGID_48_);}
	.st66{fill:url(#SVGID_49_);}
	.st67{fill:url(#SVGID_50_);}
	.st68{fill:url(#SVGID_51_);}
	.st69{fill:url(#SVGID_52_);}
	.st70{fill:url(#SVGID_53_);}
	.st71{fill:url(#SVGID_54_);}
	.st72{fill:url(#SVGID_55_);}
	.st73{fill:url(#SVGID_56_);}
	.st74{fill:url(#SVGID_57_);}
	.st75{fill:url(#SVGID_58_);}
	.st76{fill:url(#SVGID_59_);}
	.st77{fill:url(#SVGID_60_);}
	.st78{fill:#D6D4D4;}
	.st79{fill:url(#SVGID_61_);}
	.st80{fill:url(#SVGID_62_);}
	.st81{fill:url(#SVGID_63_);}
	.st82{fill:url(#SVGID_64_);}
	.st83{fill:url(#SVGID_65_);}
	.st84{fill:url(#SVGID_66_);}
	.st85{fill:url(#SVGID_67_);}
	.st86{fill:url(#SVGID_68_);}
	.st87{fill:url(#SVGID_69_);}
	.st88{fill:url(#SVGID_70_);}
	.st89{fill:url(#SVGID_71_);}
	.st90{fill:url(#SVGID_72_);}
	.st91{fill:url(#SVGID_73_);}
	.st92{fill:url(#SVGID_74_);}
	.st93{fill:url(#SVGID_75_);}
	.st94{fill:url(#SVGID_76_);}
	.st95{fill:url(#SVGID_77_);}
	.st96{fill:url(#SVGID_78_);}
	.st97{fill:url(#SVGID_79_);}
	.st98{fill:url(#SVGID_80_);}
	.st99{fill:url(#SVGID_81_);}
	.st100{fill:url(#SVGID_82_);}
	.st101{fill:url(#SVGID_83_);}
	.st102{fill:url(#SVGID_84_);}
	.st103{fill:url(#SVGID_85_);}
	.st104{fill:url(#SVGID_86_);}
	.st105{fill:url(#SVGID_87_);}
	.st106{opacity:0.15;fill:#757576;}
	.st107{opacity:0.15;}
	.st108{fill:#0790B7;}
	.st109{fill:url(#SVGID_88_);}
	.st110{fill:#6EA9C8;}
	.st111{fill:#58A0C2;}
	.st112{fill:#63A5C5;}
	.st113{fill:#4B9CBF;}
	.st114{fill:#1A4580;}
	.st115{fill:#162E51;}
	.st116{fill:url(#SVGID_89_);}
	.st117{fill:url(#SVGID_90_);}
	.st118{fill:url(#SVGID_91_);}
	.st119{fill:url(#SVGID_92_);}
	.st120{fill:#C82127;}
	.st121{opacity:0.3;fill:#C82127;}
	.st122{fill:#9F1D20;}
	.st123{opacity:0.23;fill:#0790B7;}
	.st124{opacity:0.5;fill:#D9F1FD;}
	.st125{fill:#D9F1FD;}
	.st126{fill:#E2F4FD;}
	.st127{opacity:0.18;fill:#1A4580;}
	.st128{fill:#3D98BC;}
	.st129{fill:url(#SVGID_93_);}
	.st130{fill:#138CAA;}
	.st131{clip-path:url(#SVGID_95_);}
	.st132{fill:#991E21;}
	.st133{fill:#A1352C;}
	.st134{fill:#E2E2E2;}
	.st135{fill:#C6C4C4;}
	.st136{fill:#E21E3F;}
	.st137{fill:#E64E43;}
	.st138{fill:#5FA3C4;}
	.st139{opacity:0.71;clip-path:url(#SVGID_97_);fill:#94BCD4;}
	.st140{clip-path:url(#SVGID_97_);}
	.st141{fill-rule:evenodd;clip-rule:evenodd;fill:#509EC0;}
	.st142{fill-rule:evenodd;clip-rule:evenodd;fill:#D9F1FD;}
	.st143{fill-rule:evenodd;clip-rule:evenodd;fill:#0790B7;}
	.st144{fill-rule:evenodd;clip-rule:evenodd;fill:#94BCD4;}
	.st145{fill:#509EC0;}
	.st146{clip-path:url(#SVGID_99_);}
	.st147{fill:#0789A9;}
	.st148{fill:#3F578C;}
	.st149{opacity:0.58;fill:#1A4580;}
	.st150{fill:#DEF3FD;}
	.st151{opacity:0.34;fill:#AAE0F8;}
	.st152{opacity:0.17;fill:#757576;}
</style>
<g id="Layer_2" class="st0">
	<rect x="-424.9" y="-232.7" class="st1" width="958.6" height="621.8"/>
</g>
<g id="Layer_1">
	<g>
		<circle class="st2" cx="64.8" cy="64.8" r="64.8"/>
	</g>
	<path class="st3" d="M33.9,72c-16,0-29,13-29,29c0,4.5,1,8.7,2.8,12.5L2.6,128l15.1-2.9c4.6,3.1,10.2,4.9,16.2,4.9
		c16,0,29-13,29-29S49.9,72,33.9,72z"/>
	<path class="st3" d="M81.7,43.1c20.6,0,37.4,16.7,37.4,37.4c0,5.8-1.3,11.2-3.6,16.1l6.5,18.6l-19.4-3.7c-6,4-13.1,6.3-20.8,6.3
		c-20.6,0-37.4-16.7-37.4-37.4S61.1,43.1,81.7,43.1z"/>
	<path class="st130" d="M80.6,40.8c20.6,0,37.4,16.7,37.4,37.4c0,5.8-1.3,11.2-3.6,16.1l6.5,18.6l-19.4-3.7c-6,4-13.1,6.3-20.8,6.3
		c-20.6,0-37.4-16.7-37.4-37.4S60,40.8,80.6,40.8z"/>
	<g>
		<defs>
			<path id="SVGID_94_" d="M129.4,6.1c0,0-10.6,49.8-10.6,71c0,5.9-1.3,11.5-3.7,16.5l6.7,19.2l-20-3.8c-6.1,4.1-13.5,6.5-21.4,6.5
				c-21.2,0-38.4-17.2-38.4-38.4C41.9,72.5,15.8,0,15.8,0h113.7L129.4,6.1z"/>
		</defs>
		<clipPath id="SVGID_2_">
			<use xlink:href="#SVGID_94_"  style="overflow:visible;"/>
		</clipPath>
		<g class="st5">
			<g>
				<g>
					<g>
						<g>
							<polygon class="st132" points="75.8,36.5 43.6,57.4 45,58 77.3,48.3 81.5,40.9 77.3,37.1 							"/>
						</g>
						<g>
							<polygon class="st120" points="43.6,48.5 39.1,54.8 43.6,57.4 75.8,47.6 80,40.2 75.8,36.5 							"/>
						</g>
						<polygon class="st2" points="75.8,47.6 77.3,48.3 81.5,40.9 80,40.2 						"/>
						<polygon class="st2" points="75.8,36.5 80,40.2 81.5,40.9 77.3,37.1 						"/>
					</g>
				</g>
				<g>
					<g>
						<g>
							<polygon class="st132" points="82.4,36.5 114.6,57.4 113.2,58 80.9,48.3 76.7,40.9 80.9,37.1 							"/>
						</g>
						<g>
							<polygon class="st133" points="114.6,48.5 119.2,54.8 114.6,57.4 82.4,47.6 78.2,40.2 82.4,36.5 							"/>
						</g>
						<polygon class="st2" points="82.4,47.6 80.9,48.3 76.7,40.9 78.2,40.2 						"/>
						<polygon class="st2" points="82.4,36.5 78.2,40.2 76.7,40.9 80.9,37.1 						"/>
					</g>
				</g>
			</g>
			<g>
				<polygon class="st2" points="79.1,141.1 73.6,139.4 71.3,19 79.1,15.6 				"/>
				<polygon class="st134" points="74.9,46.4 74.9,74.6 76.6,74.2 76.6,29.7 74.9,30.5 				"/>
				<polygon class="st134" points="79.1,141.1 84.7,139.4 87,19 79.1,15.6 				"/>
				<polygon class="st135" points="86.7,34.9 86.8,27 81.6,29.7 				"/>
			</g>
			<g>
				<g>
					<g>
						<polygon class="st132" points="122.2,0.6 81.6,29.7 83.4,30.5 124.1,15.4 129.4,6.1 124.1,1.4 						"/>
					</g>
					<g>
						<polygon class="st120" points="81.6,18.5 81.6,29.7 122.2,14.6 127.5,5.3 122.2,0.6 						"/>
					</g>
					<polygon class="st136" points="122.2,14.6 124.1,15.4 129.4,6.1 127.5,5.3 					"/>
					<polygon class="st137" points="122.2,0.6 127.5,5.3 129.4,6.1 124.1,1.4 					"/>
				</g>
				<g>
					<g>
						<polygon class="st132" points="36,0.6 76.6,29.7 74.9,30.5 34.1,15.4 28.8,6.1 34.1,1.4 						"/>
					</g>
					<g>
						<polygon class="st133" points="76.6,18.5 76.6,29.7 36,14.6 30.8,5.3 36,0.6 						"/>
					</g>
					<polygon class="st136" points="36,14.6 34.1,15.4 28.8,6.1 30.8,5.3 					"/>
					<polygon class="st137" points="36,0.6 30.8,5.3 28.8,6.1 34.1,1.4 					"/>
				</g>
			</g>
			<g>
				<g>
					<g>
						<polygon class="st132" points="36,19.9 76.6,45.6 74.9,46.4 34.1,34.1 28.8,25.1 34.1,20.4 						"/>
					</g>
					<g>
						<polygon class="st133" points="76.6,34.4 76.6,45.6 36,33.3 30.8,24.3 36,19.9 						"/>
					</g>
					<polygon class="st136" points="36,33.3 34.1,34.1 28.8,25.1 30.8,24.3 					"/>
					<polygon class="st137" points="36,19.9 30.8,24.3 28.8,25.1 34.1,20.4 					"/>
				</g>
			</g>
		</g>
	</g>
	<path class="st138" d="M33,70c-16,0-29,13-29,29c0,4.5,1,8.7,2.8,12.5L1.7,126l15.1-2.9c4.6,3.1,10.2,4.9,16.2,4.9
		c16,0,29-13,29-29S49,70,33,70z"/>
	<g>
		<path class="st2" d="M27.8,106.4V104c0-1.8,0.3-3.4,1-4.6c0.7-1.3,1.9-2.5,3.7-3.7c1.4-0.9,2.4-1.8,3.1-2.6
			c0.6-0.8,0.9-1.6,0.9-2.6c0-0.8-0.3-1.4-1-1.9C34.9,88.2,34.1,88,33,88c-2.6,0-5.7,1-9.2,3l-3.6-7.6c4.3-2.6,8.9-4,13.6-4
			c3.9,0,7,0.9,9.2,2.7c2.2,1.8,3.3,4.3,3.3,7.4c0,2.2-0.5,4.2-1.5,5.8c-1,1.6-2.6,3.2-4.7,4.7c-1.8,1.3-3,2.2-3.4,2.8
			c-0.5,0.6-0.7,1.3-0.7,2.1v1.4H27.8z M26.7,116.1c0-1.7,0.5-3,1.4-4c0.9-0.9,2.3-1.4,4.1-1.4c1.7,0,3.1,0.5,4,1.4
			c0.9,0.9,1.4,2.3,1.4,3.9c0,1.7-0.5,3-1.5,3.9c-1,0.9-2.3,1.4-4,1.4c-1.7,0-3.1-0.5-4.1-1.4C27.2,119.2,26.7,117.8,26.7,116.1z"/>
	</g>
</g>
</svg>
