<?xml version="1.0" encoding="utf-8"?>
<!-- Generator: Adobe Illustrator 24.0.3, SVG Export Plug-In . SVG Version: 6.00 Build 0)  -->
<svg version="1.1" id="Layer_1" xmlns="http://www.w3.org/2000/svg" xmlns:xlink="http://www.w3.org/1999/xlink" x="0px" y="0px"
	 viewBox="0 0 132.9 132.9" style="enable-background:new 0 0 132.9 132.9;" xml:space="preserve">
<style type="text/css">
	.st0{fill:#FFFFFF;}
	.st1{fill:url(#XMLID_52_);}
	.st2{clip-path:url(#SVGID_2_);}
	.st3{fill:#757575;}
	.st4{fill:#F0F0F0;}
	.st5{fill:url(#SVGID_3_);}
	.st6{fill:url(#SVGID_4_);}
	.st7{fill:url(#SVGID_5_);}
	.st8{fill:url(#SVGID_6_);}
	.st9{fill:url(#SVGID_7_);}
	.st10{fill:url(#SVGID_8_);}
	.st11{fill:url(#SVGID_9_);}
	.st12{fill:url(#SVGID_10_);}
	.st13{fill:url(#SVGID_11_);}
	.st14{fill:url(#SVGID_12_);}
	.st15{fill:url(#SVGID_13_);}
	.st16{fill:url(#SVGID_14_);}
	.st17{fill:#5D5E60;}
	.st18{fill:url(#SVGID_15_);}
	.st19{fill:#E9EAEB;}
	.st20{fill:url(#SVGID_16_);}
	.st21{fill:url(#SVGID_17_);}
	.st22{fill:url(#SVGID_18_);}
	.st23{fill:url(#SVGID_19_);}
	.st24{fill:#737577;}
	.st25{fill:url(#SVGID_20_);}
	.st26{fill:url(#SVGID_21_);}
	.st27{fill:url(#SVGID_22_);}
	.st28{fill:url(#SVGID_23_);}
	.st29{fill:url(#SVGID_24_);}
	.st30{fill:url(#SVGID_25_);}
	.st31{fill:url(#SVGID_26_);}
	.st32{fill:url(#SVGID_27_);}
	.st33{fill:#DFE0E1;}
	.st34{fill:url(#SVGID_28_);}
	.st35{fill:url(#SVGID_29_);}
	.st36{fill:url(#SVGID_30_);}
	.st37{fill:url(#SVGID_31_);}
	.st38{fill:url(#SVGID_32_);}
	.st39{fill:url(#SVGID_33_);}
	.st40{fill:url(#SVGID_34_);}
	.st41{fill:url(#SVGID_35_);}
	.st42{fill:url(#SVGID_36_);}
	.st43{fill:url(#SVGID_37_);}
	.st44{fill:url(#SVGID_38_);}
	.st45{fill:url(#SVGID_39_);}
	.st46{fill:url(#SVGID_40_);}
	.st47{fill:url(#SVGID_41_);}
	.st48{fill:#D2D3D5;}
	.st49{fill:url(#SVGID_42_);}
	.st50{fill:url(#SVGID_43_);}
	.st51{fill:url(#XMLID_53_);}
	.st52{fill:url(#XMLID_54_);}
	.st53{fill:#656565;}
	.st54{fill:#5F5F5F;}
	.st55{clip-path:url(#SVGID_2_);fill:#0A90B7;}
	.st56{fill:#A8A8A8;}
	.st57{fill:#BABABA;}
	.st58{fill:url(#SVGID_44_);}
	.st59{fill:url(#SVGID_45_);}
	.st60{fill:url(#SVGID_46_);}
	.st61{fill:url(#SVGID_47_);}
	.st62{fill:url(#SVGID_48_);}
	.st63{fill:url(#SVGID_49_);}
	.st64{fill:url(#SVGID_50_);}
	.st65{fill:url(#SVGID_51_);}
	.st66{fill:url(#SVGID_52_);}
	.st67{fill:url(#SVGID_53_);}
	.st68{fill:url(#SVGID_54_);}
	.st69{fill:url(#SVGID_55_);}
	.st70{fill:url(#SVGID_56_);}
	.st71{fill:url(#SVGID_57_);}
	.st72{fill:url(#SVGID_58_);}
	.st73{fill:url(#SVGID_59_);}
	.st74{fill:url(#SVGID_60_);}
	.st75{fill:#E1E1E1;}
	.st76{fill:url(#SVGID_61_);}
	.st77{fill:url(#SVGID_62_);}
	.st78{fill:url(#SVGID_63_);}
	.st79{fill:url(#SVGID_64_);}
	.st80{fill:url(#SVGID_65_);}
	.st81{fill:url(#SVGID_66_);}
	.st82{fill:url(#SVGID_67_);}
	.st83{fill:url(#SVGID_68_);}
	.st84{fill:url(#SVGID_69_);}
	.st85{fill:url(#SVGID_70_);}
	.st86{fill:url(#SVGID_71_);}
	.st87{fill:url(#SVGID_72_);}
	.st88{fill:url(#SVGID_73_);}
	.st89{fill:url(#SVGID_74_);}
	.st90{fill:url(#SVGID_75_);}
	.st91{fill:url(#SVGID_76_);}
	.st92{fill:url(#SVGID_77_);}
	.st93{fill:url(#SVGID_78_);}
	.st94{fill:url(#SVGID_79_);}
	.st95{fill:url(#SVGID_80_);}
	.st96{fill:url(#SVGID_81_);}
	.st97{fill:url(#SVGID_82_);}
	.st98{fill:url(#SVGID_83_);}
	.st99{fill:url(#SVGID_84_);}
	.st100{fill:url(#SVGID_85_);}
	.st101{fill:url(#SVGID_86_);}
	.st102{fill:url(#SVGID_87_);}
	.st103{opacity:0.15;fill:#757575;}
	.st104{opacity:0.15;}
	.st105{fill:#0A90B7;}
	.st106{fill:url(#SVGID_88_);}
	.st107{fill:#53B1CD;}
	.st108{fill:#3BA6C5;}
	.st109{fill:#47ACC9;}
	.st110{fill:#2FA1C2;}
	.st111{fill:#1A4480;}
	.st112{fill:#162E51;}
	.st113{fill:url(#SVGID_89_);}
	.st114{fill:url(#SVGID_90_);}
	.st115{fill:url(#SVGID_91_);}
	.st116{fill:url(#SVGID_92_);}
	.st117{fill:#C81F25;}
	.st118{opacity:0.3;fill:#C81F25;}
	.st119{fill:#A00A0F;}
	.st120{opacity:0.23;fill:#0A90B7;}
	.st121{opacity:0.5;fill:#D9F1FD;}
	.st122{fill:#D9F1FD;}
	.st123{fill:#E2F4FD;}
	.st124{opacity:0.18;fill:#1A4480;}
	.st125{fill:#229BBE;}
	.st126{fill:url(#SVGID_93_);}
	.st127{fill:#ECEDEE;}
	.st128{fill:#C2E9F9;}
	.st129{opacity:0.66;}
	.st130{clip-path:url(#SVGID_95_);}
	.st131{fill:#981C20;}
	.st132{fill:#A33336;}
	.st133{fill:#D1D1D1;}
	.st134{fill:#E21E3E;}
	.st135{fill:#E74E44;}
	.st136{opacity:0.75;}
	.st137{opacity:0.71;clip-path:url(#SVGID_97_);fill:#D9F1FD;}
	.st138{clip-path:url(#SVGID_97_);}
	.st139{fill-rule:evenodd;clip-rule:evenodd;fill:#FFFFFF;}
	.st140{fill-rule:evenodd;clip-rule:evenodd;fill:#D9F1FD;}
	.st141{opacity:0.66;fill-rule:evenodd;clip-rule:evenodd;fill:#D9F1FD;}
	.st142{opacity:0.57;fill:#D9F1FD;}
	.st143{clip-path:url(#SVGID_99_);}
	.st144{fill:#3C6093;}
	.st145{opacity:0.58;fill:#1A4480;}
	.st146{fill:#DEF3FD;}
	.st147{opacity:0.45;fill:#D9F1FD;}
	.st148{opacity:0.81;fill:#D9F1FD;}
</style>
<g>
	<circle class="st0" cx="66.6" cy="66.5" r="66.5"/>
</g>
<g>
	
		<linearGradient id="XMLID_52_" gradientUnits="userSpaceOnUse" x1="-3396.9834" y1="88.838" x2="-3396.4968" y2="101.5193" gradientTransform="matrix(1 0 0 1 3449.0835 0)">
		<stop  offset="0" style="stop-color:#5D5E60"/>
		<stop  offset="1" style="stop-color:#59595C"/>
	</linearGradient>
	<polygon id="XMLID_50_" class="st1" points="51.1,87.9 52.1,87.7 53.2,92.4 52.2,92.8 	"/>
	<g>
		<defs>
			<path id="SVGID_1_" d="M133.1,66.5c0,36.7-29.8,66.5-66.5,66.5S0.1,103.2,0.1,66.5c0-23.7,0-66.5,0-66.5s53.5,0,66.5,0
				c18.4,0,66.5,0,66.5,0V66.5z"/>
		</defs>
		<clipPath id="SVGID_2_">
			<use xlink:href="#SVGID_1_"  style="overflow:visible;"/>
		</clipPath>
		<g class="st2">
			<g id="XMLID_46_">
				<path id="XMLID_49_" class="st3" d="M107.5,6.6c0,0,6.2,10.8,5.1,17.1c-1.1,6.4,1.1,8.4-1.1,11.3c-1.3,1.7-4.4,4.4-4.4,5.1
					c0,0.7-3.3-0.4-3.5-1.2C96.3,17.8,107.5,6.6,107.5,6.6z"/>
				<path id="XMLID_48_" class="st3" d="M113.2,21.1c0,0,1.8,9.2-1.7,14.2c-3.5,4.9-3.7,4-3.7,4l-3-0.6c0,0,2.9-1.2,4.2-4.7
					c2.1-5.4,1-10.2,1-10.2L113.2,21.1z"/>
				<path id="XMLID_47_" class="st3" d="M109.1,25.7c-1.6-7-4.9-12.6-5.3-19.4c-0.2,0-0.3,0-0.3,0c-18.5-2.8-16,31.3-11.8,35
					c1.1,0.3,8.9,4.6,11.3,5.2C100.2,36.6,111.2,35.3,109.1,25.7z"/>
			</g>
			<g>
				<g>
					<path class="st4" d="M116,135.9c0.1-0.7,0.4-2.7,0.8-5.2c-0.5,0.1-1,0.1-1.5,0.2c-2.8,0.4-5.6,0.8-8.4,1.1l0.2,3.3
						c0,0-1.6,20.8-1.6,29.7c0,8.9-1.9,11.5-2.4,13.3c-0.3,1-1.4,8.5-1.4,9.9c0,1.3-0.8,5.4-0.1,5.9c0.7,0.4,5.8,1.5,7.2,0
						c1.3-1.6,0.2-10,0.2-11.1c0-1.1-0.4-6.4,4-18.6C117.3,152.2,115.8,137.8,116,135.9z"/>
					<linearGradient id="SVGID_3_" gradientUnits="userSpaceOnUse" x1="101.374" y1="111.8913" x2="111.969" y2="154.6189">
						<stop  offset="0" style="stop-color:#D2D3D5"/>
						<stop  offset="0.6132" style="stop-color:#D5D6D7"/>
						<stop  offset="1" style="stop-color:#DDDEDF"/>
					</linearGradient>
					<path class="st5" d="M116.8,130.7c-0.5,0.1-1,0.1-1.5,0.2c-3.2,0.4-6.5,0.5-9.7,0.9c0.7,4.5,0.7,7.8,0.7,8.9
						c0,5.1-2.2,14.1-1.1,31c1.1-13.4,2.7-22.5,8.6-27.8c1.1-1,0.8,5.2-1.1,14.7c-1.9,9.5-2.8,15.9-2.8,15.9s2.5-8.3,3-9.5
						c0.5-1.2,4.3-14.2,3.6-20.8c-0.7-6.6,0.2-11.5,0.6-13.1C117,130.9,116.9,130.8,116.8,130.7z"/>
				</g>
				<linearGradient id="SVGID_4_" gradientUnits="userSpaceOnUse" x1="100.1514" y1="87.4947" x2="105.615" y2="136.2906">
					<stop  offset="0" style="stop-color:#5D5E60"/>
					<stop  offset="0.2873" style="stop-color:#595A5C"/>
					<stop  offset="1" style="stop-color:#545557"/>
				</linearGradient>
				<path class="st6" d="M86.1,98.2c0.1-6.1,1.6-13.2,4-19.8c0,0,17.1,1.7,27.2-0.7c0,0,0.8,3.1,1,4c0.2,0.9,3.1,13.5,3.3,14.8
					c0.2,1.2,0.3,36.5,0.3,39.8c-12.3-0.6-25.4,2.4-36.5,0.7C85.3,136.9,85.9,106.1,86.1,98.2z"/>
				<path class="st17" d="M118,80.4c0,0,3.1,9.1,3.5,14.2c0.7,8.4,0.3,41.7,0.3,41.7s-2.2-0.1-4-0.1c0.1-4.8,3.3-46.2-1.9-55.3
					L118,80.4z"/>
				<path class="st17" d="M89.2,85.9c-0.6-0.2-1.2-0.2-1.7-0.6c-1.1,4-1.9,8.9-1.7,16.1c0.2,5.9-0.6,35.5-0.6,35.5s2.7,0.5,5.2,0.5
					C90.5,137.4,86.1,102,89.2,85.9z"/>
				<linearGradient id="SVGID_5_" gradientUnits="userSpaceOnUse" x1="103.3666" y1="84.3868" x2="103.6177" y2="88.5096">
					<stop  offset="5.494510e-03" style="stop-color:#4D4D4F"/>
					<stop  offset="1" style="stop-color:#545557"/>
				</linearGradient>
				<path class="st7" d="M87.5,85.3l-0.3,1.2c0,0,4.8,1.9,15.8,1.9c7.7,0,16-1.8,16.8-2.2l-0.3-1L87.5,85.3z"/>
				<path class="st17" d="M94.6,91c-0.4-1,7.3,0.6,11.4,0.7c3.6,0.1,6.9-0.9,8.2-0.4C115.7,92.2,103.3,113.8,94.6,91z"/>
				<path class="st17" d="M95.5,107.3c-1.3-8.2,1.2-13.5,4.7-1.8c2,6.6,4.1,23.7,2.3,26.1C101.5,132.9,97.1,117.4,95.5,107.3z"/>
			</g>
			<path class="st19" d="M93.9,37.5c0-0.2,0.4-1.5,0.8-1.6c7.1-2.1,14-0.8,14.9,0c0.9,0.8,1,4.6,1,4.6l-16,0.4L93.9,37.5z"/>
			<linearGradient id="SVGID_6_" gradientUnits="userSpaceOnUse" x1="102.7535" y1="46.6288" x2="101.543" y2="23.1682">
				<stop  offset="0" style="stop-color:#F6F6F6"/>
				<stop  offset="0.9831" style="stop-color:#F0F0F1"/>
				<stop  offset="1" style="stop-color:#F0F0F1"/>
			</linearGradient>
			<path class="st8" d="M94.6,35.8c0,0,1.9-1,7.7-1.1c3.1,0,6.9,0.3,7.6,1.4l-0.6,1.3c0,0,0.7-2.8-6.9-2.6c-6.1,0.2-7.5,1.1-7.6,2.4
				L94.6,35.8z"/>
			<linearGradient id="SVGID_7_" gradientUnits="userSpaceOnUse" x1="109.3831" y1="25.6699" x2="104.4114" y2="39.9109">
				<stop  offset="0" style="stop-color:#D2D3D5"/>
				<stop  offset="0.6132" style="stop-color:#D5D6D7"/>
				<stop  offset="1" style="stop-color:#DDDEDF"/>
			</linearGradient>
			<path class="st9" d="M117,42.3c-0.8,0-10.3-4-10.5-5.7c-0.5-2.9,0.1-5.1,0.1-5.1l-7.8-2.6c0.4,2.9-0.9,7-1.8,8.7
				c-0.5,1.1-3.3,2.8-6.5,3.7c0.6,0.6,7.4,10.9,11.9,14.5C102.8,56.1,116.2,45.4,117,42.3z"/>
			
				<linearGradient id="SVGID_8_" gradientUnits="userSpaceOnUse" x1="158.9526" y1="-340.575" x2="158.4059" y2="-345.1912" gradientTransform="matrix(0.9851 0.1719 -0.1719 0.9851 -112.8748 353.4401)">
				<stop  offset="0" style="stop-color:#D2D3D5"/>
				<stop  offset="0.6132" style="stop-color:#D5D6D7"/>
				<stop  offset="1" style="stop-color:#DDDEDF"/>
			</linearGradient>
			<path class="st10" d="M102.9,42.7c0.5-0.5,1.1-2.2,1.1-2.2c-0.4,0.2-1.3,1.2-1.5,1.1c-0.2-0.1-1.3-1.5-1.3-1.2
				C101.1,40.8,102.4,43.2,102.9,42.7z"/>
			<linearGradient id="SVGID_9_" gradientUnits="userSpaceOnUse" x1="104.7817" y1="19.3449" x2="99.2131" y2="57.8188">
				<stop  offset="0" style="stop-color:#D2D3D5"/>
				<stop  offset="0.6132" style="stop-color:#D5D6D7"/>
				<stop  offset="1" style="stop-color:#DDDEDF"/>
			</linearGradient>
			<path class="st11" d="M109.5,38.6c-1.6-0.9-2.4-1.6-2.6-1.8c-0.3-0.2-0.5-1.4-0.5-2.6c0-0.5,0-2,0-2.6c-0.2,0.2-9.5-1.4-9.5-1.4
				s0.5,5.5-0.5,7.6c-0.1,0.2-1.2,1-2.5,1.8c-1.1,0.6,5.8,9.8,6.4,12.5c0.7,3.4,2.2,5.5,2.2,5.5s5.1-14.8,5.6-15.7
				C108.4,41.4,110.9,39.4,109.5,38.6z M107.2,39.3c-1.3,1.9-1.9,3.1-2,3.9c-0.1,0.8-1.4,6.3-2.6,9c0,0-2.3-6.2-2.6-7.9
				c-0.2-1.5-1.8-3.7-2.9-5.1c0.3-0.7,0.5-0.9,0.8-1.4c0,0,4.7,0.1,7.5-1.9C105.1,37.9,107.3,39.1,107.2,39.3z"/>
			<path class="st24" d="M107.6,40.3c0,0,1.8-1.3,2.3-1.9c0,0,3.3,1.3,5.2,2c2.6,0.9,7.1,3.2,7.2,3.4c0,0-5.6,6.1-6.2,8.4
				c-0.6,2.3-1.3,11.2-0.8,14.8c0.5,3.6,2.6,13.8,4.2,18.4c0,0-17.9,4.7-32.1,0.2c0,0,0.8-2.2,1.5-4.8c0.6-2.2,1-4.6,0.7-6.5
				c-0.7-4.6-0.2-8.6-0.5-13c-0.2-4.5-0.6-10.7-1.6-12.1c-1-1.3-3.7-4.6-4.6-5.1c0,0,4.3-3.2,12.2-5.1c0,0,1.7,4.2,3,4.8
				C98.2,43.6,105.6,46.5,107.6,40.3z"/>
			<linearGradient id="SVGID_10_" gradientUnits="userSpaceOnUse" x1="104.0404" y1="79.2071" x2="102.3281" y2="49.2028">
				<stop  offset="0" style="stop-color:#848689"/>
				<stop  offset="0.5008" style="stop-color:#797B7D"/>
				<stop  offset="1" style="stop-color:#737577"/>
			</linearGradient>
			<path class="st12" d="M87.3,46c0,0,2.5,6.9,4.6,10.6c1.7,3,6.7,4.4,10.5,4.2c4.5-0.1,9.5-0.9,11.2-5.1c2.1-4.9,2.5-5.6,3.3-10.6
				l-9.6-0.1l-9.4,0.2L87.3,46z"/>
			<linearGradient id="SVGID_11_" gradientUnits="userSpaceOnUse" x1="107.9523" y1="41.2737" x2="109.9289" y2="39.1817">
				<stop  offset="0" style="stop-color:#E9EAEB"/>
				<stop  offset="0.7173" style="stop-color:#ECECED"/>
				<stop  offset="1" style="stop-color:#F0F0F1"/>
			</linearGradient>
			<path class="st13" d="M108.9,41.8c0.8-0.7,2.1-1.8,2.7-2.1l-2.7-1.7l-2.9,3.9c0,0-0.1,0.4-0.2,0.9
				C106.8,42.1,107.9,41.8,108.9,41.8z"/>
			<linearGradient id="SVGID_12_" gradientUnits="userSpaceOnUse" x1="99.5422" y1="54.8578" x2="96.2106" y2="38.7193">
				<stop  offset="0" style="stop-color:#F6F6F6"/>
				<stop  offset="0.9831" style="stop-color:#F0F0F1"/>
				<stop  offset="1" style="stop-color:#F0F0F1"/>
			</linearGradient>
			<path class="st14" d="M96.3,42.4c0,0,0.2,0.9,0.5,2.1c0.5,0,1,0.1,1.5,0.3c0.4,0.1,0.8,0.3,1.3,0.4c-0.2-0.8-0.3-1.3-0.3-1.5
				c-0.1-0.7-1.6-3.3-1.6-3.3l-1.5-1.3l-1.8,1.6C94.9,41.2,96.3,42.4,96.3,42.4z"/>
			<linearGradient id="SVGID_13_" gradientUnits="userSpaceOnUse" x1="68.8236" y1="87.3539" x2="131.5557" y2="69.5005">
				<stop  offset="5.495000e-03" style="stop-color:#696A6D"/>
				<stop  offset="1" style="stop-color:#737577"/>
			</linearGradient>
			<path class="st15" d="M89.9,76.6l26-6.4l1.8,8.1c0,0-6.6-1.2-7-1.1C104,79,89,80.5,89,80.5L89.9,76.6z"/>
			<linearGradient id="SVGID_14_" gradientUnits="userSpaceOnUse" x1="93.7834" y1="38.5815" x2="95.4192" y2="44.3385">
				<stop  offset="0" style="stop-color:#E9EAEB"/>
				<stop  offset="0.7173" style="stop-color:#ECECED"/>
				<stop  offset="1" style="stop-color:#F0F0F1"/>
			</linearGradient>
			<path class="st16" d="M96.3,39.6c-0.5-0.3-2.2-1.4-2.2-1.4l-2.9,2.7l0.6,4.8l4.2-4c0,0,1.8-0.1,2.7,0.8
				C98.8,42.4,97.9,40.4,96.3,39.6z"/>
			<g>
				
					<linearGradient id="SVGID_15_" gradientUnits="userSpaceOnUse" x1="-5213.3398" y1="606.418" x2="-5178.8237" y2="607.6532" gradientTransform="matrix(-0.9806 0.1958 0.1958 0.9806 -5105.3306 496.7508)">
					<stop  offset="5.495000e-03" style="stop-color:#696A6D"/>
					<stop  offset="1" style="stop-color:#737577"/>
				</linearGradient>
				<path class="st18" d="M110.9,74.3c0.1,0,0.2-0.1,0.5-0.1c0,0.2-0.1,0.3-0.1,0.5c0,0.1,0,0.3,0,0.4c-1.8,0.1-3.5,0.5-5,0.9
					c-2.8,0.6-10.8,1.7-10.8,1.7l-0.4-0.9C95.7,76.8,110.3,74.5,110.9,74.3z"/>
			</g>
			<path class="st24" d="M82.9,44.4c0.3-1.8,5.4,3.5,5.5,5.2c0.1,1.7,0.9,10,0.9,11c0,1,0.2,5,0.2,8.1c0,0,5.3,2.1,11,1.8
				c5.6-0.3,6.5,0.2,6.5,0.2l0.1,5.5c0,0-6.7,1.7-12.9,2.3c-5.8,0.6-11-0.3-11.9-0.8c-0.9-0.4-1.4-7.8-1.3-9.5c0.1-1.7,0.7-8.2,1-10
				C82,56.5,81.7,50.7,82.9,44.4z"/>
			<path class="st24" d="M102.6,77.4c0.3,0.4,4.4-0.6,4.4-0.6l-0.2-4.8l-4,0.4C102.7,72.3,102.3,76.8,102.6,77.4z"/>
			<linearGradient id="SVGID_16_" gradientUnits="userSpaceOnUse" x1="81.5839" y1="32.0656" x2="83.0676" y2="50.4348">
				<stop  offset="0" style="stop-color:#848689"/>
				<stop  offset="1" style="stop-color:#737577"/>
			</linearGradient>
			<path class="st20" d="M82.7,44.6c1.6-4.5,2.7,13.8,2,15.4c-0.8,2.2-2.5-0.2-2.8-4.6C81.8,52.9,81.7,47.2,82.7,44.6z"/>
			<path class="st24" d="M106.9,73.4c0,0-2-1-4.2-2.1c0,1-0.1,2.6-0.1,3.5l4.4,0.8L106.9,73.4z"/>
			<linearGradient id="SVGID_17_" gradientUnits="userSpaceOnUse" x1="88.3501" y1="73.0188" x2="87.9832" y2="40.364">
				<stop  offset="5.495000e-03" style="stop-color:#696A6D"/>
				<stop  offset="1" style="stop-color:#737577"/>
			</linearGradient>
			<path class="st21" d="M89.4,62.5c0,0-0.7-12-1.2-14.1c-0.4-1.7-1.1,10.5-1.1,10.5L89.4,62.5z"/>
			<g>
				<path class="st33" d="M83.6,55.8c-0.2,0.2,0.2,0.5,0.8,0.9c0.4,0.3,0.5,0,0.5,0S84.3,56,83.6,55.8z"/>
				<path class="st33" d="M80.3,61.6c0.2,0.2,0.5-0.2,1-0.7c0.3-0.3,0.1-0.5,0.1-0.5S80.7,60.9,80.3,61.6z"/>
				<path class="st33" d="M80.2,64.4c0.2,0.2,0.5-0.2,1.1-0.7c0.3-0.3,0.1-0.5,0.1-0.5S80.6,63.8,80.2,64.4z"/>
				<path class="st33" d="M80.6,67.2c0.1,0.2,0.4-0.2,0.8-0.6c0.2-0.3,0.1-0.4,0.1-0.4S80.9,66.6,80.6,67.2z"/>
				
					<linearGradient id="SVGID_18_" gradientUnits="userSpaceOnUse" x1="-5250.1465" y1="469.0856" x2="-5241.7075" y2="469.3876" gradientTransform="matrix(-0.9885 0.1509 0.1509 0.9885 -5169.0112 386.4767)">
					<stop  offset="0" style="stop-color:#D2D3D5"/>
					<stop  offset="0.6132" style="stop-color:#D5D6D7"/>
					<stop  offset="1" style="stop-color:#DDDEDF"/>
				</linearGradient>
				<path class="st22" d="M88.6,61.7l-0.8-0.4c0,0-2-1.9-2.4-2.7c0,0-1.8-1.2-1.9-2.4c0,0,0.9,1.3,2.1,2.3
					C86.8,59.4,88.6,61.7,88.6,61.7z"/>
				
					<linearGradient id="SVGID_19_" gradientUnits="userSpaceOnUse" x1="-5251.0557" y1="471.5996" x2="-5237.4482" y2="472.0865" gradientTransform="matrix(-0.9885 0.1509 0.1509 0.9885 -5169.0112 386.4767)">
					<stop  offset="0" style="stop-color:#D2D3D5"/>
					<stop  offset="0.6132" style="stop-color:#D5D6D7"/>
					<stop  offset="1" style="stop-color:#DDDEDF"/>
				</linearGradient>
				<path class="st23" d="M87.4,62.8c0,0-2.7-2-2.8-2.1c-0.1-0.1-1.8,0-1.9,0c-0.1,0-1.4,1-2.1,1c0,0,0.1,0.3,0.7,0.1
					c0.6-0.2,1.3-0.7,1.5-0.8c0,0,0.9,0.2,1.6,0c0,0,0.3,0.8,1.5,1.4L87.4,62.8z"/>
				
					<linearGradient id="SVGID_20_" gradientUnits="userSpaceOnUse" x1="-5250.978" y1="473.7524" x2="-5236.8774" y2="474.257" gradientTransform="matrix(-0.9885 0.1509 0.1509 0.9885 -5169.0112 386.4767)">
					<stop  offset="0" style="stop-color:#D2D3D5"/>
					<stop  offset="0.6132" style="stop-color:#D5D6D7"/>
					<stop  offset="1" style="stop-color:#DDDEDF"/>
				</linearGradient>
				<path class="st25" d="M87.4,64.6l-1.3,0c0,0-2-0.6-2.7-1.2c0,0-1.9,1.7-2.8,1.3c0,0,0.9-0.2,2.8-1.5
					C83.4,63.1,86.6,64.3,87.4,64.6z"/>
				
					<linearGradient id="SVGID_21_" gradientUnits="userSpaceOnUse" x1="-5257.6504" y1="477.7299" x2="-5236.2261" y2="478.4966" gradientTransform="matrix(-0.9885 0.1509 0.1509 0.9885 -5169.0112 386.4767)">
					<stop  offset="0" style="stop-color:#D2D3D5"/>
					<stop  offset="0.6132" style="stop-color:#D5D6D7"/>
					<stop  offset="1" style="stop-color:#DDDEDF"/>
				</linearGradient>
				<path class="st26" d="M86.9,66.3c0,0-3.2-0.9-3.4-0.9c-0.2,0-1.4,1.4-2.4,1.9c0,0,0.5,0.2,2.4-1.5c0,0,1.9,0.8,2.9,0.8
					c0,0,2.6,3.9,5.6,3.4C91.9,70,88.9,70.1,86.9,66.3z"/>
			</g>
			<path class="st24" d="M115.4,54.2c0,0,0.6-4.4,2-5.7c1.4-1.3,3.3-4.9,5.3-4.5c0,0,1.6,4.3,1,12.5c-0.3,4.3,1.2,9.1,0.4,15.3
				c-0.6,4.5-0.3,4.8-3.2,4.9c-1.1,0.1-9.2-0.1-22.1-4.2c0,0,1.2-2.9,0.6-5.6c0,0,11.5-0.3,15.9-0.2c0,0-0.8-3.5-0.4-5.2
				C115.3,59.9,115.4,54.2,115.4,54.2z"/>
			<linearGradient id="SVGID_22_" gradientUnits="userSpaceOnUse" x1="115.9248" y1="71.9462" x2="115.4356" y2="45.2842">
				<stop  offset="0" style="stop-color:#737577"/>
				<stop  offset="0.9945" style="stop-color:#696A6D"/>
			</linearGradient>
			<path class="st27" d="M115.9,50.5c0,0-0.4,2.6-0.6,4.3c-0.4,4.1-0.3,6.9-0.5,8.5c0,0,1.8-2,1.8-2.5
				C116.7,60.2,116.6,43.7,115.9,50.5z"/>
			<linearGradient id="SVGID_23_" gradientUnits="userSpaceOnUse" x1="110.0297" y1="38.2811" x2="121.8194" y2="43.4604">
				<stop  offset="0" style="stop-color:#737577"/>
				<stop  offset="1" style="stop-color:#848689"/>
			</linearGradient>
			<path class="st28" d="M110.1,38.8c0,0,5.6,0.5,12.4,5C122.4,43.7,111.6,39.8,110.1,38.8z"/>
			<linearGradient id="SVGID_24_" gradientUnits="userSpaceOnUse" x1="120.4131" y1="33.7258" x2="121.8967" y2="52.0949">
				<stop  offset="0" style="stop-color:#848689"/>
				<stop  offset="1" style="stop-color:#737577"/>
			</linearGradient>
			<path class="st29" d="M122.7,44.2c0.4,1.2,1.4,4.5,1,12.7c-0.3,5.2-2.7,5.6-2.9,4.9C120.5,61.1,121.3,40.2,122.7,44.2z"/>
			<linearGradient id="SVGID_25_" gradientUnits="userSpaceOnUse" x1="109.1307" y1="59.2822" x2="110.109" y2="71.2671">
				<stop  offset="0" style="stop-color:#848689"/>
				<stop  offset="1" style="stop-color:#737577"/>
			</linearGradient>
			<path class="st30" d="M102.5,66.9c0,0,11-0.4,13.8,0c2.8,0.4-0.9,3.9-3.7,3.7c-2.7-0.1-10.2-1.3-10.2-1.3L102.5,66.9z"/>
			<linearGradient id="SVGID_26_" gradientUnits="userSpaceOnUse" x1="122.6394" y1="78.2098" x2="118.0735" y2="72.9916">
				<stop  offset="0" style="stop-color:#848689"/>
				<stop  offset="1" style="stop-color:#737577"/>
			</linearGradient>
			<path class="st31" d="M124.3,65.7c0,0,0.1,1.7,0.1,3.9c-0.1,2.9-0.3,6.1-1.3,6.8c-1.6,1.1-10.8-0.3-15.8-1.6
				c0,0,10.1,0.7,12.5-0.1C122,74,124.1,68.3,124.3,65.7z"/>
			<linearGradient id="SVGID_27_" gradientUnits="userSpaceOnUse" x1="81.6336" y1="77.6614" x2="85.3841" y2="74.4">
				<stop  offset="0" style="stop-color:#848689"/>
				<stop  offset="1" style="stop-color:#737577"/>
			</linearGradient>
			<path class="st32" d="M80.8,68.3c0,0-0.3,8.7,1.3,9.5c1.6,0.8,7,1.1,9.8,0.9c0,0-4.3-1.6-6.8-2.9C82.7,74.5,80.8,70.6,80.8,68.3z
				"/>
			<linearGradient id="SVGID_28_" gradientUnits="userSpaceOnUse" x1="102.3326" y1="40.7682" x2="102.2858" y2="50.9204">
				<stop  offset="5.495000e-03" style="stop-color:#696A6D"/>
				<stop  offset="1" style="stop-color:#737577"/>
			</linearGradient>
			<path class="st34" d="M108.5,39.8c0,0-2.4,3.3-6.3,3.5c-2.1,0.1-4.4-0.3-6.3-3L94,41.6c0,0,1.1,4.1,7.9,4c2.5,0,6.7-1.4,8.8-4.9
				L108.5,39.8z"/>
			<linearGradient id="SVGID_29_" gradientUnits="userSpaceOnUse" x1="109.5808" y1="39.9356" x2="117.0184" y2="47.9535">
				<stop  offset="5.495000e-03" style="stop-color:#696A6D"/>
				<stop  offset="1" style="stop-color:#737577"/>
			</linearGradient>
			<path class="st35" d="M113.3,40.6l-4.6-2c-0.1,1-0.6,1.9-1.2,2.4c0.7-0.3,3.9,4,4.7,3.4C112.7,44,113.3,40.6,113.3,40.6z"/>
			<linearGradient id="SVGID_30_" gradientUnits="userSpaceOnUse" x1="95.0302" y1="47.0347" x2="93.8187" y2="23.5553">
				<stop  offset="0" style="stop-color:#F6F6F6"/>
				<stop  offset="0.9831" style="stop-color:#F0F0F1"/>
				<stop  offset="1" style="stop-color:#F0F0F1"/>
			</linearGradient>
			<path class="st36" d="M98.8,42.4c0,0-2-2.2-2.3-2.2c-0.3,0-1.7,1.3-1.7,1.3s-1.7,1.6-3.8,4.4c0,0-0.3-5.4,0.1-6.1
				c2-3.2,3.5-4.1,3.5-4.1s0.3,2,2.2,3.4C97.3,39.6,97.9,40.6,98.8,42.4z"/>
			<linearGradient id="SVGID_31_" gradientUnits="userSpaceOnUse" x1="109.8627" y1="44.4914" x2="108.8562" y2="24.9837">
				<stop  offset="0" style="stop-color:#F6F6F6"/>
				<stop  offset="0.9831" style="stop-color:#F0F0F1"/>
				<stop  offset="1" style="stop-color:#F0F0F1"/>
			</linearGradient>
			<path class="st37" d="M106,41.8c0,0,1.2-1.5,2-1.4c0.9,0.1,3.5,3.6,4.3,3.3c0.4-0.2,1.3-3.5,0.9-4.1c-1.6-2.3-3.7-3.8-3.7-3.8
				s-0.2,2-1.7,3.3C107.3,39.5,106.1,41.3,106,41.8z"/>
			<path class="st48" d="M92.1,21.9c0.4,3.1,0.5,5.5,0.5,5.5c-1.2,0-1.5-1.3-2-2.5c-0.7-1.8-1.1-3.7,0.8-3.9
				C91.8,21,92.1,21.9,92.1,21.9z"/>
			<linearGradient id="SVGID_32_" gradientUnits="userSpaceOnUse" x1="91.033" y1="22.0839" x2="91.2846" y2="30.8898">
				<stop  offset="0" style="stop-color:#B9BBBD"/>
				<stop  offset="0.6167" style="stop-color:#C7C8CA"/>
				<stop  offset="1" style="stop-color:#D2D3D5"/>
			</linearGradient>
			<path class="st38" d="M91.9,26.3c0,0-0.6-0.7-0.4-2c0.4-3.2-1.6-3.4-1.1-1.2c0,0,0.3-1,0.5-0.7c0.3,0.4-0.3,0.6,0,2.2
				C91.1,25.4,91.9,26.3,91.9,26.3z"/>
			<path class="st48" d="M111.6,21.9c-0.4,3.1-0.5,5.5-0.5,5.5c1.2,0,1.5-1.3,2-2.5c0.7-1.8,1.2-3.7-0.5-3.8
				C112.2,21,111.6,21.9,111.6,21.9z"/>
			<linearGradient id="SVGID_33_" gradientUnits="userSpaceOnUse" x1="101.1258" y1="31.3064" x2="102.304" y2="36.2977">
				<stop  offset="0" style="stop-color:#B9BBBD"/>
				<stop  offset="0.6167" style="stop-color:#C7C8CA"/>
				<stop  offset="1" style="stop-color:#D2D3D5"/>
			</linearGradient>
			<path class="st39" d="M97,35.9c0,0,0-3.8-0.3-4.9l9.8,0.8l-0.1,2C106.4,33.8,102.5,37.7,97,35.9z"/>
			<path id="XMLID_45_" class="st4" d="M103.3,8.2c-5.9-1-10.1,4.4-11.2,11.1c-0.6,3.7-0.4,7,1.5,9.8c0.8,1.1,1.7,1.6,2.8,2.5
				c0.7,0.6,1.8,1.7,2.6,2.3c0.7,0.5,1.4,1,2.3,1c2.8,0.1,4.6-2.1,5.4-2.9c2.8-2.8,5.4-3.8,4.8-11.5C111.1,14.5,107.2,8.3,103.3,8.2
				z"/>
			
				<linearGradient id="XMLID_53_" gradientUnits="userSpaceOnUse" x1="758.4789" y1="-963.8944" x2="763.1412" y2="-963.8944" gradientTransform="matrix(0.9833 0.182 -0.182 0.9833 -814.5624 836.9568)">
				<stop  offset="0" style="stop-color:#E2E3E4"/>
				<stop  offset="0.8184" style="stop-color:#DFE0E1"/>
				<stop  offset="1" style="stop-color:#DDDEDF"/>
			</linearGradient>
			<path id="XMLID_44_" class="st51" d="M111.7,23.5c0,0-0.4-1.4-1.3-1.8c2.1,3.2-0.1,6.7-1.8,8.3c-1.9,1.8-2.7,2.8-3,3.1
				c0.3-0.3,2.8-2.6,3.5-3.1C109.8,29.6,112.3,26.9,111.7,23.5z"/>
			<path id="XMLID_43_" class="st48" d="M92.6,22.5c0,0-1.1,5.1,2.6,8c2.1,1.6,2.7,2.5,3.2,3c0,0-2.3-2-3.7-3
				C94.1,30,90.7,27.7,92.6,22.5z"/>
			<linearGradient id="XMLID_54_" gradientUnits="userSpaceOnUse" x1="102.0526" y1="35.2962" x2="102.6606" y2="42.5238">
				<stop  offset="0" style="stop-color:#B9BBBD"/>
				<stop  offset="0.6167" style="stop-color:#C7C8CA"/>
				<stop  offset="1" style="stop-color:#D2D3D5"/>
			</linearGradient>
			<path id="XMLID_42_" class="st52" d="M98.9,33.8c0,0,2.3,3.2,6.1-0.1C105,33.7,101.9,36.2,98.9,33.8z"/>
			<g id="XMLID_23_">
				<path id="XMLID_41_" class="st53" d="M106.3,10l1.7-3.1c0,0,3.8-1.5,5.8,6c2.5,9.3-1.1,16.9-1.1,16.9S116,13.9,106.3,10z"/>
				<path id="XMLID_40_" class="st3" d="M106.3,10l1.9-3.1c0,0-2.2-3.7-8.6-3c-4.1,0.4-12,4.2-13,12.2c-0.8,5.9-0.5,6.3-0.3,11.4
					c0,0,2-4.8,3-9.3c1-4.5,5.9-7.5,8.2-9C99.9,7.8,104.6,6.9,106.3,10z"/>
				<path id="XMLID_39_" class="st3" d="M86.7,31.2c0,0-2.9,3.9-0.7,7.4c1.5,2.4-3.6,4.8-3.8,1.6c0,0-0.9,1.8-0.1,3.1
					c1.9,3.3,6.5,2.5,7.6-0.3c1.2-2.8-0.7-8.1,0.7-9.4L86.7,31.2z"/>
				<path id="XMLID_38_" class="st3" d="M106.3,10c0,0-0.7-2.2-2.3-2.2C97.6,7.8,93.2,20,93.2,20s6.6-10.5,10.4-10.7
					C105.9,9.2,106.3,10,106.3,10z"/>
				<path id="XMLID_37_" class="st3" d="M86.9,28.1c0,0-2.6,1.9-2.1,4.6c0.5,2.7,4.6,2.8,3.3,5.3c-1.2,2.5-2.1,3.8-2.1,7.1
					c0.1,5.4,11.3,7.3,7,3.8c-2.1-1.6,0.7-9.1,1.6-10.2C95.5,37.6,86.4,34.1,86.9,28.1z"/>
				<path id="XMLID_36_" class="st3" d="M87.7,23.3c-1.2,1.7-4.5,6.2-4.1,9.8c0.5,4.9,5.9,4.4,7,7.6c1.2,3.3-4.3,3.4-4.3,3.4
					s6.3,4.5,9.2-1.8c1.7-3.7,1.1-6.8-1.9-9.3c-3-2.5-4.6-4.2-4.6-4.9C89.1,27.5,88.9,21.6,87.7,23.3z"/>
				<path id="XMLID_35_" class="st53" d="M87.4,28.9c0,0-3.9,3.9,0.3,6.9c5.4,3.8,5.7,6.1,2.7,8.9c0,0,2.8-1.7,3.3-3.7
					c0.6-2.1-2.9-4.8-3.9-6.1c-1.7-2.2-0.8-4.7-0.8-4.7L87.4,28.9z"/>
				<path id="XMLID_34_" class="st3" d="M106.3,10c0,0-0.9-5.6-7.8-2.2c-2.5,1.2-8.3,7.4-9.8,9.8C87.2,20,83,26.7,88.1,31
					c4.7,3.9,8.2,5.6,5.6,9.6c-2.6,4-3.8,5.8-3.7,8.3c0.1,2,3.7,6.2,8.4,2.3c0,0-3.1,1.2-4.2-0.8c-0.6-1.1,0.1-2.8,1.5-4
					c5.4-4.5,5-9.6,1.2-13.2c-3.3-3.1-6.3-3.4-4.8-9.2c0.7-2.7,1.9-4.8,4-9C98.5,9.7,103.1,5.6,106.3,10z"/>
				<path id="XMLID_33_" class="st3" d="M96.4,9.5c0,0-10.4,8.2-12.2,14.7c-1.1,4,1.2,5.3,3.4,6.3c0,0-3.8-3.1-1.6-7.3
					C88.2,19,96.4,9.5,96.4,9.5z"/>
				<path id="XMLID_32_" class="st3" d="M97.3,11.7c0,0-6.6,8.1-7.6,9.4c-1.1,1.4-4.6,8.4,3.9,10.9c0,0-4.9-3.9-3.2-8.3
					C91.5,20.7,97.3,11.7,97.3,11.7z"/>
				<path id="XMLID_31_" class="st53" d="M96.6,45.3c0,0-3.8,3.4-2.1,5c1.6,1.6,3.8,0.7,3.8,0.7s-1.3,1-3.6,0.7
					c-1.1-0.2-3-1.2-1.9-3.1C93.8,46.6,96.6,45.3,96.6,45.3z"/>
				<path id="XMLID_30_" class="st3" d="M89.8,32.4c0,0,10.1,5.7,5.3,9.1c-10.1,7-4.4,10.3-2.1,11.1c0,0-4.7-0.5-5.5-3.6
					c-0.5-2.2,1.4-4,4.6-7C96.6,38,91.3,33.7,89.8,32.4z"/>
				<path id="XMLID_29_" class="st3" d="M90.8,33.3c0,0,5.3,3.1,5,5.8c-0.4,3-4.3,5.2-6.8,2.7c0,0,3.6,0.7,4.3-2
					C93.8,38.2,94.1,36.6,90.8,33.3z"/>
				<path id="XMLID_28_" class="st3" d="M106.3,10c0,0,1.1-0.5,1.9,0.4c0.8,0.9,4.5,8.3,3.4,12.7c0,0-0.4-5.4-2.5-9.5
					C108,11.2,107.4,10.4,106.3,10z"/>
				<path id="XMLID_27_" class="st3" d="M106.3,10c0,0,3.8-2.9,6.1,4.6c1.7,5.6,6.3,13.2-1.5,19c0,0,2.8-2.3,2.9-6.1
					c0.1-4.1-1.4-6-3.3-12.1C108.8,9.9,106.3,10,106.3,10z"/>
				<path id="XMLID_26_" class="st54" d="M92.7,21.4c0,0-2.3,5.6,0.8,8.4c4,3.8,4.4,4.4,5,5.6c0,0-3.5-3.2-4.2-3.7
					c-0.7-0.5-3.6-2.2-4.5-4.2C89.2,26.3,90.5,24.2,92.7,21.4z"/>
				<path id="XMLID_25_" class="st3" d="M99.1,6.9c0,0-8.4,0.9-12,9.9C87.1,16.8,92.4,9.4,99.1,6.9z"/>
				<path id="XMLID_24_" class="st3" d="M89,10.3c0,0,3-4.7,8.4-6.2c4.4-1.2,8.5-0.5,10.6,2.3c0,0,1.5-0.1,2.9,1
					c1.4,1.1,3.3,4.1,3.7,9.3c0,0-2.4-9.1-6.6-9.2c0,0-3.2-3.3-9.3-2.2C94.1,6.1,89,10.3,89,10.3z"/>
			</g>
		</g>
		<path class="st55" d="M124.3,65.7C124.3,65.7,124.2,65.7,124.3,65.7c-0.2-3.2-0.7-6-0.6-8.7c0,0,0-0.1,0-0.1
			c0-0.6,0.1-1.2,0.1-1.8c0-0.8,0-1.6,0-2.3c0-0.1,0-0.1,0-0.2c0-0.2,0-0.4,0-0.6c-0.1-4.8-0.7-7-1-7.9c0-0.1,0-0.1-0.1-0.1
			c0,0,0-0.1,0-0.1c0,0,0,0,0,0c-0.1-0.2-0.1-0.2-0.2-0.3c0,0,0,0,0,0c0,0,0,0,0,0c0,0,0,0,0,0c0,0-0.2-0.1-0.4-0.3
			c-3.5-2.2-6.7-3.4-8.9-4c-0.9-1.2-1.9-2.2-2.6-2.9c0.3-0.4,0.6-0.8,1-1.3c0.7-1,1.2-2.3,1.6-3.5c2.8-3.3,2.6-7,1.6-10.5
			c0.1-1.4,0.1-2.9-0.1-4.5c0,0,0,0.1,0,0.1c0-0.1,0-0.2,0-0.3c0-0.1,0-0.1,0-0.2c-0.5-4.9-2.3-7.7-3.6-8.8c-1.4-1.1-2.9-1-2.9-1
			c-2.2-2.8-6.2-3.5-10.6-2.3c-5.4,1.5-8.4,6.2-8.4,6.2s0,0,0,0c-1.2,1.6-2,3.6-2.4,5.9c-0.2,1.7-0.4,3-0.4,4
			c-0.9,1.4-1.7,2.8-2,4.1c-0.6,2-0.3,3.3,0.4,4.2c-0.7,1.5-1.1,3.1-1,4.6c0.2,1.6,0.8,2.6,1.7,3.3c0.1,0.8,0.3,1.5,0.8,2.3
			c1.5,2.4-3.6,4.8-3.8,1.6c0,0-0.9,1.8-0.1,3.1c0.2,0.3,0.4,0.6,0.6,0.8c-0.1,0.1-0.1,0.2-0.2,0.4c-0.9,2.5-0.9,7.7-0.7,10.4
			c0,1.5-0.1,2.6-0.2,3.3c-0.1,0.4-0.1,1.2-0.2,2c0,0-0.1,0.1-0.1,0.1c-0.2,0.1-0.8,0.6-1.1,1.1c0.1,0.1,0.2,0,0.3,0
			c0,0.1,0,0.1,0,0.1c0,0,0,0,0.1,0.1c0,0,0,0,0,0c0,0,0.1,0,0.1,0c0,0,0,0,0,0c0.1,0,0.2,0,0.4,0c0,0,0.1,0,0.1,0
			c0,0.1,0,0.1,0,0.1c0,0.5-0.1,1-0.1,1.5c-0.2,0.2-0.8,0.6-1.1,1c0,0.1,0.1,0.1,0.2,0c0.1,0.1,0.1,0.1,0.2,0.2c0,0,0,0,0,0
			c0,0,0.1,0,0.1,0c0,0,0.1,0,0.1,0c0.1,0,0.2,0,0.2,0c-0.1,0.7-0.1,1.4-0.2,2c-0.1,0.1-0.3,0.3-0.4,0.5c0.1,0.1,0.1,0,0.2,0
			c0,0,0,0.1,0.1,0.1c0,0.5-0.1,0.8-0.1,1.1c0,0-0.3,8.7,1.3,9.5c0.1,0,0.1,0.1,0.2,0.1c1.4,0.5,4.4,0.8,7,0.9L89,80.4
			c0,0.1,0,0.2-0.1,0.3c-0.7,2.6-1.5,4.8-1.5,4.8c0,0,0,0,0,0l-0.2,1c0,0,0,0,0,0c-0.9,3.8-1.5,8.4-1.4,14.9c0.1,2.4,0,8.9-0.1,15.7
			c-0.1,3.8-0.2,7.6-0.2,10.8c-0.1,5.2-0.2,9.1-0.2,9.1s2.7,0.5,5.2,0.5c0,0,0,0,0,0c0.5,0,0.9,0,1.4,0c0.1,0.3,0.1,0.6,0.2,1h0
			c0.1,1.2,0.2,2.6,0.2,3c0,0.9-1.7,6.1-2.1,10.1c-0.4,4.4,2.8,27.2,2.5,29.2c-0.2,1.2-0.4,2.9-0.6,4c0,0.2-0.8,3.8-0.7,9.2
			c0.1,2.5,0.2,4.3,5,4.4c3,0,3.3-1.9,3.4-4.6c0.2-2.7-0.5-11.8-1.5-14c-0.1-0.4-0.1-0.8-0.1-1.3c-0.1-2.3,1.1-10.3,2.4-16
			c1.5-6.8,0.7-10,1-11.9c0.3-1.9,1.2-7.1,1.5-9.7c0.1-1,0.1-2.2,0.1-3.2l0-0.8c1-0.1,2-0.2,3-0.2c0.1,1.5,0.2,3.2,0.2,3.5
			c0,0.5-0.3,4.9-0.4,6c-0.5,5.1-1.3,12.5-0.8,23.2c-0.4,4.8-1.4,7.1-1.7,7.9c-0.3,0.8-0.5,2.4-0.6,2.9c0,0,0,0.1,0,0.2
			c-1.1,2-1.8,10.9-1.6,13.5c0.1,2.6,0.5,4.3,3.1,4.4c5.2,0.2,5.1-1.7,5.2-4.1c0.2-5.1-0.4-8.6-0.4-8.9c0,0,0-0.1,0-0.1
			c0-0.6-0.2-5.1,0.5-9.5c0.1-0.5,0.2-1,0.3-1.5c0.2-0.7,2.5-8.3,3-9.4c0.5-1.2,4.3-14.2,3.6-20.8c-0.3-2.4-0.3-4.6-0.2-6.5l0.1-1.3
			c1.6,0,3.3,0,4.9,0c0.3,0,0.6,0,0.6,0s0.4-33.3-0.3-41.7c-0.2-2.3-1-5.6-1.8-8.4c0,0,0,0,0,0l-0.2-0.9c0,0,0,0,0,0
			c-0.6-1.8-1.3-4.3-1.9-7l0,0l-0.3-1.6c2.7,0.3,5,0.3,5.7-0.2c1-0.7,1.3-3.9,1.3-6.8C124.4,67.5,124.3,65.7,124.3,65.7z
			 M113.8,27.5c0,0.9-0.2,1.7-0.5,2.4c0.1-1,0.2-1.9,0.2-2.8c0.1-0.2,0.1-0.5,0.2-0.8C113.8,26.7,113.8,27.1,113.8,27.5z M86,23.3
			C86,23.3,86,23.3,86,23.3c-0.3,1-0.4,2.1-0.3,3.2c-0.1,0.1-0.2,0.3-0.2,0.4C85.2,25.8,85.3,24.6,86,23.3z M98.3,180.3
			C98.3,180.3,98.3,180.2,98.3,180.3C98.3,180.2,98.3,180.3,98.3,180.3z"/>
		<g class="st2">
			<path id="XMLID_22_" class="st56" d="M25.9,36.6l-0.3-6.2L39,32.7l-0.3,4.5c0,0-4.2,5.6-5.1,5.9C32.6,43.3,26.1,39.1,25.9,36.6z"
				/>
			<g id="XMLID_20_">
				<path id="XMLID_21_" class="st57" d="M21.2,20.4c-1.2,0.2-0.9,1.1-0.4,2.5c0.5,3.9,1.5,4.7,1.9,4.4
					C23.5,26.9,22.6,20.1,21.2,20.4z"/>
			</g>
			<g id="XMLID_18_">
				<path id="XMLID_19_" class="st57" d="M43.9,20.4c1.2,0.2,1,1,0.6,2.5c-0.3,3.9-1.2,4.7-1.7,4.5C42,27,42.5,20.2,43.9,20.4z"/>
			</g>
			<path id="XMLID_17_" class="st57" d="M43,20.2c0.4-9.2-2.4-10.4-3.2-11.3c-1.6-1.9-4.1-2.7-8.4-2.6c0,0-5.6,0.2-7,3.3
				c-1.5,3.3-1.8,7.9-1.6,12.2c0.2,5.2,0.2,6.6,0.6,7.7c0.2,0.5,0.5,1.2,1.5,2c1.6,1.3,3.7,3.7,5,4.7c0.5,0.4,4,1.3,6.7-0.6
				c1.4-1,2.9-2.2,4.7-4c0.8-0.8,1.3-2.1,1.3-2.7c0-0.7,0.4-3.5,0.4-4.1C42.8,22,42.9,22.7,43,20.2z"/>
			<g>
				<linearGradient id="SVGID_34_" gradientUnits="userSpaceOnUse" x1="32.6092" y1="41.8476" x2="34.2143" y2="54.8667">
					<stop  offset="0" style="stop-color:#F1F0F5"/>
					<stop  offset="0.6433" style="stop-color:#F9F8FA"/>
					<stop  offset="1" style="stop-color:#FFFFFF"/>
				</linearGradient>
				<path class="st40" d="M26.4,47.4c0,0,2.1-4,2.8-4.5c0.7-0.5,2.3-0.9,3.4-0.9c1.1,0,6.7,1.7,7.2,2.7c0.5,1-3.7,8.6-5.7,9.2
					C32,54.6,26.4,47.4,26.4,47.4z"/>
				<linearGradient id="SVGID_35_" gradientUnits="userSpaceOnUse" x1="11.6877" y1="141.5384" x2="45.2398" y2="141.5384">
					<stop  offset="0" style="stop-color:#38373B"/>
					<stop  offset="1" style="stop-color:#333236"/>
				</linearGradient>
				<path class="st41" d="M12.5,107.5l0.9,49.1L13,181.8l-1.3,3.6l0.8,5.9c1.3,0,2.3-0.1,5,0.2c-2.1-0.5-3.5-0.9-3.5-0.9
					s1.9-11.4,2.9-16c1-4.6,1.2-31.3,1.2-32.3c0-1,5.4-38.7,7.6-47.7c0.3-1.2,0.6-2.2,1-3.1c-3.3-0.1-10.2,9.3-11.5,9.2
					C14.9,103,12.5,107.5,12.5,107.5z"/>
				<linearGradient id="SVGID_36_" gradientUnits="userSpaceOnUse" x1="49.8246" y1="101.813" x2="39.0426" y2="265.3086">
					<stop  offset="0" style="stop-color:#38373B"/>
					<stop  offset="1" style="stop-color:#333236"/>
				</linearGradient>
				<path class="st42" d="M53.6,164.8l-0.2-18.3l0-39.2c0,0-0.7-4.2-1.3-6.6c-3.4,0.3-9.7-9.5-12.9-9.3l3.9,17.6
					c0,0,3.5,30.1,3.5,32.8c0,2.7,1.2,24.5,1.5,26.4c0.2,1.9,2.9,22.6,2.9,22.6s-2.4,1.2-5.2,2.6l0,0.1c0,0,4.1-1.5,5.4-1.9
					c1.2-0.5,3.9,0.5,3.9,0.5l0.5-5.1l-0.2-5.8L53.6,164.8z"/>
				<linearGradient id="SVGID_37_" gradientUnits="userSpaceOnUse" x1="32.1964" y1="233.2527" x2="33.094" y2="129.7971">
					<stop  offset="0" style="stop-color:#38373B"/>
					<stop  offset="1" style="stop-color:#333236"/>
				</linearGradient>
				<path class="st43" d="M25.7,91.5c0,0.9-0.5,1.8-0.8,3c-2.2,9-7.3,46.8-7.3,47.7c0,1-0.7,26.8-1.7,31.4c-1,4.6-2,17.7-2,17.7
					s1.7,0.1,4,0.3c2.3,0.3,3.4,0.6,3.4,0.6s0.8-2,1.8-3.7c1-1.7,1-4.9,1-4.9l1.2-7.3l1.2-25.1c0,0,3.4-18.8,3.9-19.5
					c0.5-0.7,3.6-16.2,3.6-16.2c3.4,11.2,5.6,30.1,5.6,30.1l1.7,21.4l2.7,11.2l-0.5,5.6l-0.2,2.7l1.2,2.9l1.2,4.2c3-1,5.5-2,5.5-2
					S50.3,170,50,168c-0.2-1.9-3.2-23.6-3.2-26.3c0-2.7-2.2-33.1-2.2-33.1l-5.5-17.1C36.5,91.7,34.7,91.9,25.7,91.5z"/>
				<linearGradient id="SVGID_38_" gradientUnits="userSpaceOnUse" x1="32.1572" y1="37.063" x2="33.1807" y2="55.5841">
					<stop  offset="0" style="stop-color:#E1E1E5"/>
					<stop  offset="1" style="stop-color:#F1F0F5"/>
				</linearGradient>
				<path class="st44" d="M26.9,48.2c0,0,4,4,5.6,4.4c0,0,4.3-2.5,6.1-5.1l-1-1.2c0,0-3.6,4.2-4.8,4.8c0,0-2.8-2.6-4.6-4.3
					L26.9,48.2z"/>
				<linearGradient id="SVGID_39_" gradientUnits="userSpaceOnUse" x1="33.7464" y1="70.3967" x2="33.5155" y2="155.3883">
					<stop  offset="5.494510e-03" style="stop-color:#2B2A2D"/>
					<stop  offset="1" style="stop-color:#333236"/>
				</linearGradient>
				<path class="st45" d="M26.5,151.2c0,0,4.3-20.4,4.5-20.8c0.2-0.4,3-14.3,3-14.3s4,18.9,4.2,20.4c0.2,1.5,1.7,11,2.2,18.7
					c0,0,0.2-20.5,0-21.4c-0.2-0.9-6.3-22.3-6.3-22.3s-2.8,5.8-3.1,7.6C30.8,120.9,26.5,151.2,26.5,151.2z"/>
				<linearGradient id="SVGID_40_" gradientUnits="userSpaceOnUse" x1="32.3285" y1="37.2776" x2="33.2427" y2="53.8213">
					<stop  offset="0" style="stop-color:#E1E1E5"/>
					<stop  offset="1" style="stop-color:#F1F0F5"/>
				</linearGradient>
				<path class="st46" d="M40.8,38.3L38,44.8c-1.7-1.6-3.1-2.8-3.1-2.8s-3.7-0.1-4.3,0.2c-0.3,0.1-1.1,1.2-1.9,2.3l-4.6-6.7
					c0,0-0.8,2.8-0.1,4.5c0.8,1.7,3.4,6.4,3.4,6.4s3.7-4.6,4-4.7c0.3-0.1,2.5-0.7,3.1,0.1c0.4,0.5,4.7,5.1,4.7,5.1s1.9-5.5,2-6.9
					C41.5,40.2,40.8,38.3,40.8,38.3z"/>
				<g>
					<path class="st54" d="M30.7,43.1c0,0,1-1.2,2-1.1c0.8,0.1,2.3,0.7,2.4,0.9c0.1,0.2-0.4,3.1-0.7,3.7c-0.3,0.5-2.1,0.5-2.6,0.2
						C31.2,46.4,30.7,43.1,30.7,43.1z"/>
					<path class="st54" d="M30.9,44l-0.2-1.1c0,0,1-0.7,2.1-0.8C32.7,42,31.1,43.5,30.9,44z"/>
					<path class="st54" d="M29.5,73.2L30.1,57c0,0,1.1-6.4,1.4-8.2c0.3-1.8,0.7-2.6,0.7-2.6l2.1,0c0,0,0.3,1.9,0.3,2.1
						c0.1,0.2,2,5.4,2.1,7.8c0.1,2.3-0.5,16.4-0.5,16.4L29.5,73.2z"/>
					<path class="st54" d="M31.8,46.7c0,0,2,0.4,2.6-0.2l1.3,5l-1.9-3.4c0,0-2.6,2.9-2.8,3.5L31.8,46.7z"/>
					<path class="st54" d="M35,43.8l0.2-1.1c0,0-1-0.4-2.4-0.7C32.7,42,34.4,42.8,35,43.8z"/>
					<path class="st54" d="M34.8,45.2c0,0-0.1,1.2-0.5,1.5c-0.4,0.5-1.1,0.5-1.4,0.4c-0.2,0-1,0-1.3-0.5c-0.3-0.5-0.4-1.1-0.4-1.1
						s0.7,1.2,1.6,1.3C33.7,46.9,34.4,45.8,34.8,45.2z"/>
					<linearGradient id="SVGID_41_" gradientUnits="userSpaceOnUse" x1="32.5695" y1="73.1687" x2="33.8233" y2="62.2081">
						<stop  offset="0" style="stop-color:#A50D12"/>
						<stop  offset="1" style="stop-color:#B4262C"/>
					</linearGradient>
					<path class="st47" d="M29.6,73.6c0,0,0-2.9,0.1-5.9c2.5,0.1,6.6,0.1,6.6,0.1l-0.2,4.6l-2.3,0.1L29.6,73.6z"/>
				</g>
				<path class="st75" d="M25.9,35.7c0,0,0,1,0.2,1.5c0.2,0.4,0.7,2,2.4,3c1.7,1,3.5,1.8,4.1,1.8c0.6,0,3.2-0.8,3.7-1.1
					c0.5-0.3,2.3-2,2.4-2.7c0-0.7,0.2-1.7,0-3c0,0-0.7,2.8-2.1,3.8c-1.4,1-3.3,1.9-3.8,2c-0.5,0.1-4-1.5-4.7-2.1
					C27.3,38.3,26.3,36.5,25.9,35.7z"/>
				<linearGradient id="SVGID_42_" gradientUnits="userSpaceOnUse" x1="38.6724" y1="40.2059" x2="39.0935" y2="47.6351">
					<stop  offset="0" style="stop-color:#F1F0F5"/>
					<stop  offset="0.6433" style="stop-color:#F9F8FA"/>
					<stop  offset="1" style="stop-color:#FFFFFF"/>
				</linearGradient>
				<path class="st49" d="M37,44.9l2.2,2.5l1.6-5c0,0-1.4,3.4-2,3.3C38.2,45.6,37,44.9,37,44.9z"/>
				<linearGradient id="SVGID_43_" gradientUnits="userSpaceOnUse" x1="27.0109" y1="40.8669" x2="27.432" y2="48.2961">
					<stop  offset="0" style="stop-color:#F1F0F5"/>
					<stop  offset="0.6433" style="stop-color:#F9F8FA"/>
					<stop  offset="1" style="stop-color:#FFFFFF"/>
				</linearGradient>
				<path class="st50" d="M24.9,42.9l2.4,4.5l2.2-2.9C29.5,44.5,27.1,47,24.9,42.9z"/>
				<linearGradient id="SVGID_44_" gradientUnits="userSpaceOnUse" x1="36.8477" y1="37.1753" x2="36.7274" y2="54.0489">
					<stop  offset="0" style="stop-color:#F1F0F5"/>
					<stop  offset="0.6433" style="stop-color:#F9F8FA"/>
					<stop  offset="1" style="stop-color:#FFFFFF"/>
				</linearGradient>
				<path class="st58" d="M32.6,42c0,0,5.3-2.2,5.8-4.3c0.4-1.7,0.3-2.4,0.3-2.4s0.7,0.9,1.3,1.7c1.2,1.6,1,2.4,1,3.8
					c0,1.5-1.9,6.6-1.9,6.6s-3.6-4.2-4.1-4.4C34.6,42.7,33.8,42.2,32.6,42z"/>
				
					<linearGradient id="SVGID_45_" gradientUnits="userSpaceOnUse" x1="-1480.2506" y1="37.6105" x2="-1480.371" y2="54.4837" gradientTransform="matrix(-1 0 0 1 -1452.2218 0)">
					<stop  offset="0" style="stop-color:#F1F0F5"/>
					<stop  offset="0.6433" style="stop-color:#F9F8FA"/>
					<stop  offset="1" style="stop-color:#FFFFFF"/>
				</linearGradient>
				<path class="st59" d="M32.6,42c0,0-5.8-2.7-6.3-4.4c-0.4-1.5-0.4-1.9-0.4-1.9s-1.3,1.5-2,2.3c-1.2,1.7,0.7,4.6,0.7,4.6l2.6,4.8
					c0,0,2.8-3.8,3.4-4.5C31.3,42.3,32.6,42,32.6,42z"/>
				<linearGradient id="SVGID_46_" gradientUnits="userSpaceOnUse" x1="14.336" y1="100.3289" x2="52.1817" y2="100.3289">
					<stop  offset="5.494510e-03" style="stop-color:#2B2A2D"/>
					<stop  offset="1" style="stop-color:#333236"/>
				</linearGradient>
				<path class="st60" d="M32.2,101.8c-9.4,0-17.8-0.6-17.8-0.6l0.1-0.5c0,0,5.5-2,18.4-1.9c13.9,0.1,19.3,1.9,19.3,1.9l0.1,0.4
					C52.2,101.2,44.1,101.8,32.2,101.8z"/>
				<linearGradient id="SVGID_47_" gradientUnits="userSpaceOnUse" x1="33.9619" y1="38.631" x2="40.6339" y2="38.631">
					<stop  offset="0" style="stop-color:#FFFFFF"/>
					<stop  offset="0.3567" style="stop-color:#F9F8FA"/>
					<stop  offset="1" style="stop-color:#F1F0F5"/>
				</linearGradient>
				<path class="st61" d="M32.6,42c0,0,2.2-1.1,3.8-2.2c0.8-0.6,1.8-1.3,2.2-3.2c0.2-0.7,0.1-1.4,0.1-1.4s1.1,0.8,0.2,2.7
					C38,39.9,35.8,41.5,32.6,42z"/>
				<linearGradient id="SVGID_48_" gradientUnits="userSpaceOnUse" x1="24.3037" y1="41.6375" x2="37.1165" y2="34.3497">
					<stop  offset="0" style="stop-color:#FFFFFF"/>
					<stop  offset="0.3567" style="stop-color:#F9F8FA"/>
					<stop  offset="1" style="stop-color:#F1F0F5"/>
				</linearGradient>
				<path class="st62" d="M25.9,35.7c0,0,0.2,1.4,0.8,2.4c0.8,1.2,3.6,2.8,5.9,4c0,0-1.9-0.1-4.9-2.3c-0.6-0.5-1.4-1.1-1.7-2
					C25.4,36.2,25.9,35.7,25.9,35.7z"/>
				<linearGradient id="SVGID_49_" gradientUnits="userSpaceOnUse" x1="30.8913" y1="97.1018" x2="35.4343" y2="115.274">
					<stop  offset="5.494510e-03" style="stop-color:#2B2A2D"/>
					<stop  offset="1" style="stop-color:#333236"/>
				</linearGradient>
				<path class="st63" d="M31.8,96.2c0,0-0.4,9.5,0.5,10.4c0.8,0.9,2.5,1.2,2.5,1.2s-1.5-0.8-1.9-1.6
					C32.4,105.4,31.8,96.2,31.8,96.2z"/>
				<linearGradient id="SVGID_50_" gradientUnits="userSpaceOnUse" x1="32.6261" y1="43.9072" x2="33.2889" y2="101.5725">
					<stop  offset="0" style="stop-color:#38373B"/>
					<stop  offset="1" style="stop-color:#333236"/>
				</linearGradient>
				<path class="st64" d="M40.7,39.3c0,0-0.5,11.8-8,14.9c0,0.1,0,0.2,0,0.2c-6.2-4.2-8.8-14.8-8.8-14.8c-7.6,2.4-10.8,5.1-10.8,5.1
					c-0.6,2.3,0.3,15.6,0.7,16.5c2.1,4.4-1.9,19.3,0.6,35.9c0.2,1.2,10.1,3.6,19.1,3.7c9,0.2,18.3-2,18.4-3.6
					c1.4-21.7-0.2-24.9-0.1-35.7c0-4.2,0.6-17,0.6-17C50.9,43.4,40.7,39.3,40.7,39.3z"/>
				<linearGradient id="SVGID_51_" gradientUnits="userSpaceOnUse" x1="46.3499" y1="55.121" x2="46.6343" y2="40.8988">
					<stop  offset="0" style="stop-color:#3A3A3E"/>
					<stop  offset="1" style="stop-color:#38373B"/>
				</linearGradient>
				<path class="st65" d="M40.8,39.3c0,0,8.1,2.8,11.5,5.2C49.6,44,44.6,43.3,40.8,39.3z"/>
				<linearGradient id="SVGID_52_" gradientUnits="userSpaceOnUse" x1="18.8997" y1="51.0495" x2="19.1171" y2="40.1768">
					<stop  offset="0" style="stop-color:#3A3A3E"/>
					<stop  offset="1" style="stop-color:#38373B"/>
				</linearGradient>
				<path class="st66" d="M14.4,43.8c2.8-1.9,9.4-4.5,9.4-4.5S20,44.1,14.4,43.8z"/>
				<linearGradient id="SVGID_53_" gradientUnits="userSpaceOnUse" x1="32.1017" y1="47.8497" x2="34.5094" y2="65.3275">
					<stop  offset="0" style="stop-color:#3A3A3E"/>
					<stop  offset="1" style="stop-color:#38373B"/>
				</linearGradient>
				<path class="st67" d="M47.7,52.8c-1.9-1.9-4.9-1.6-9.3-1.4c-1.4,1.8-3.7,2.2-5.7,2.2c-2.3-0.2-3-0.6-4.8-2.4
					c-3.5-0.1-5.6,0.1-8.9,1.9c-4.6,2.6,4.9,14.2,15.7,13.5C45.5,66.1,50.3,55.3,47.7,52.8z"/>
				<linearGradient id="SVGID_54_" gradientUnits="userSpaceOnUse" x1="32.3318" y1="34.4916" x2="31.9556" y2="60.1989">
					<stop  offset="0" style="stop-color:#38373B"/>
					<stop  offset="1" style="stop-color:#333236"/>
				</linearGradient>
				<path class="st68" d="M23.9,38c0,0-0.1,3.5,3,8.2c2.9,4.4,6,6.2,6,6.2s4-2.4,5.6-6c1.9-4.1,2.3-6.8,2.2-8.4c0,0,1,1.1,1.5,1.8
					c0.2,0.2,0.8,4.7-2.2,9.6c-2.1,3.6-7.3,6.7-7.3,6.7s-3.7-2-5.1-3.5c-6.1-6.7-5.9-11.9-5.4-12.7C22.6,39.4,23.4,38.6,23.9,38z"/>
				<linearGradient id="SVGID_55_" gradientUnits="userSpaceOnUse" x1="52.0976" y1="101.4752" x2="42.1129" y2="90.8823">
					<stop  offset="0" style="stop-color:#3A3A3E"/>
					<stop  offset="1" style="stop-color:#38373B"/>
				</linearGradient>
				<path class="st69" d="M36.3,98.4c0,0,10.9,0.2,15.6-1.3c0,0,0.4-4.5,0.3-9.1c0,0-0.1,5.8-2.9,7.4C46.5,97,36.3,98.4,36.3,98.4z"
					/>
				<linearGradient id="SVGID_56_" gradientUnits="userSpaceOnUse" x1="1.1295" y1="92.2483" x2="62.7337" y2="105.0547">
					<stop  offset="0" style="stop-color:#333236"/>
					<stop  offset="0.753" style="stop-color:#2B2A2C"/>
					<stop  offset="1" style="stop-color:#272628"/>
				</linearGradient>
				<path class="st70" d="M32.2,101.4c-9.4,0-17.8-0.6-17.8-0.6l0-3.7c0,0,5.6,1.3,18.5,1.3c13.9,0.1,19.1-1.3,19.1-1.3l0.2,3.7
					C52.1,100.7,44.1,101.4,32.2,101.4z"/>
				<path class="st3" d="M13.6,109l-2.9-4.2c0,0-0.2-3.9,4.5-3.5C15.2,101.4,13.3,106.6,13.6,109z"/>
				<path class="st3" d="M15.2,101.4l-2.7,6.1l1.9-5.4c0,0-3.6,0.1-3.2,3.5l-0.6-0.8c0,0,0.3-2.3,1.6-3.2
					C13.6,100.6,15.2,101.4,15.2,101.4z"/>
				
					<linearGradient id="SVGID_57_" gradientUnits="userSpaceOnUse" x1="-433.2799" y1="26.1902" x2="-427.3146" y2="89.515" gradientTransform="matrix(-1 0 0 1 -413.8866 0)">
					<stop  offset="0" style="stop-color:#333236"/>
					<stop  offset="0.753" style="stop-color:#2B2A2C"/>
					<stop  offset="1" style="stop-color:#272628"/>
				</linearGradient>
				<path class="st71" d="M15,55.7c0,0-0.8,9-1,12.2c-0.8,10.1-0.4,16.9-0.4,16.9c0.6-4.2,2.7-15.4,3.5-16.7
					C17.8,66.8,15.5,60.9,15,55.7z"/>
				<path class="st3" d="M11,105.3c0,0-1.1-3.3,4.2-3.9l-0.5-1.6c0,0-2.8-1-4,0.9c-1.2,1.9-0.7,3.2-0.7,3.2L11,105.3z"/>
				
					<linearGradient id="SVGID_58_" gradientUnits="userSpaceOnUse" x1="-423.0797" y1="43.6175" x2="-422.4167" y2="101.2957" gradientTransform="matrix(-1 0 0 1 -413.8866 0)">
					<stop  offset="0" style="stop-color:#38373B"/>
					<stop  offset="1" style="stop-color:#333236"/>
				</linearGradient>
				<path class="st72" d="M9.9,103.9c0,0-2.8-4.3-3.8-7.1c-0.5-1.5-3.6-11.9-3.8-15.3c-0.2-2.6,2.8-19.7,5.3-26.4
					c1.8-4.8,4.1-9.6,5.9-10.6c1.7-1,1.7,19.8,1.1,20.9c-0.6,1.1-3.3,15.4-3.2,15.8c0.1,0.4,1.8,14.9,3.6,19.2
					C14.1,100.1,10.1,100.2,9.9,103.9z"/>
				
					<linearGradient id="SVGID_59_" gradientUnits="userSpaceOnUse" x1="-420.4484" y1="103.2461" x2="-430.0924" y2="98.5401" gradientTransform="matrix(-1 0 0 1 -413.8866 0)">
					<stop  offset="0" style="stop-color:#333236"/>
					<stop  offset="0.753" style="stop-color:#2B2A2C"/>
					<stop  offset="1" style="stop-color:#272628"/>
				</linearGradient>
				<path class="st73" d="M15,100.3c0,0-1.3-0.3-2.7,0.2c-1.4,0.5-2.3,1.6-2.4,3.3l-1.4-2.3c0,0,0.5-3.5,5.8-3.2L15,100.3z"/>
				
					<linearGradient id="SVGID_60_" gradientUnits="userSpaceOnUse" x1="-427.4631" y1="102.0027" x2="-438.8755" y2="275.0576" gradientTransform="matrix(-1 0 0 1 -413.8866 0)">
					<stop  offset="0" style="stop-color:#38373B"/>
					<stop  offset="1" style="stop-color:#333236"/>
				</linearGradient>
				<polygon class="st74" points="15.2,101.4 12.5,107.5 12.6,113.4 15.6,106.5 				"/>
				
					<linearGradient id="SVGID_61_" gradientUnits="userSpaceOnUse" x1="-424.4304" y1="44.9979" x2="-421.9555" y2="109.4822" gradientTransform="matrix(-1 0 0 1 -413.8866 0)">
					<stop  offset="0" style="stop-color:#3A3A3E"/>
					<stop  offset="1" style="stop-color:#38373B"/>
				</linearGradient>
				<path class="st76" d="M13.5,44.5c2.5,4.9-2.1,12.4-3.6,15.2c-1.8,3.4-5,5.8-3.2-1.7C6.7,57.9,9.8,46.4,13.5,44.5z"/>
				
					<linearGradient id="SVGID_62_" gradientUnits="userSpaceOnUse" x1="-429.845" y1="35.5037" x2="-423.8658" y2="98.9757" gradientTransform="matrix(-1 0 0 1 -413.8866 0)">
					<stop  offset="0" style="stop-color:#333236"/>
					<stop  offset="0.753" style="stop-color:#2B2A2C"/>
					<stop  offset="1" style="stop-color:#272628"/>
				</linearGradient>
				<path class="st77" d="M14.6,65.4c0,0-3.3,15.1-3.2,15.8c0.1,0.7,2.1,13.4,2.1,13.4S8.1,82.1,8.7,80.7
					C9.2,79.3,14.6,65.4,14.6,65.4z"/>
				<linearGradient id="SVGID_63_" gradientUnits="userSpaceOnUse" x1="56.4305" y1="37.6018" x2="49.4986" y2="70.9258">
					<stop  offset="0" style="stop-color:#333236"/>
					<stop  offset="0.753" style="stop-color:#2B2A2C"/>
					<stop  offset="1" style="stop-color:#272628"/>
				</linearGradient>
				<path class="st78" d="M48.6,60c1.9-13,4.7-13,6.1-13l-3.6,20l0.4,10.3c0,0-7.2,0.3-4.9-1.8C49.4,72.9,48.2,62.1,48.6,60z"/>
				<linearGradient id="SVGID_64_" gradientUnits="userSpaceOnUse" x1="51.44" y1="58.5312" x2="51.1477" y2="102.688">
					<stop  offset="0" style="stop-color:#38373B"/>
					<stop  offset="1" style="stop-color:#333236"/>
				</linearGradient>
				<path class="st79" d="M49.9,61.5c-0.5-5.8-0.7-18.8,2.5-17c0,0,3.4,1.1,6.7,15.7c3.3,14.5,3.7,17,3.7,18.1
					c0,1.1-1.4,4.2-1.8,4.4c-1.1,0.6-8.7,1.1-13.9,0.7c-3.1-0.2-5.7-0.1-5.7-0.1s1.6-5.9-1.6-8.3l11.4-1.8
					C51.2,73.3,50.1,63,49.9,61.5z"/>
				<linearGradient id="SVGID_65_" gradientUnits="userSpaceOnUse" x1="53.7011" y1="59.9129" x2="54.143" y2="78.6486">
					<stop  offset="0" style="stop-color:#333236"/>
					<stop  offset="0.753" style="stop-color:#2B2A2C"/>
					<stop  offset="1" style="stop-color:#272628"/>
				</linearGradient>
				<path class="st80" d="M49.4,61.8c0,0-0.1-5.2,0.2-7.4c0,0,1,14.6,8.8,21.2c0,0-3.9-2.4-7.2-2.3C51.2,73.3,49.2,63.3,49.4,61.8z"
					/>
				<linearGradient id="SVGID_66_" gradientUnits="userSpaceOnUse" x1="50.7647" y1="73.2625" x2="51.1198" y2="99.1022">
					<stop  offset="0" style="stop-color:#3A3A3E"/>
					<stop  offset="1" style="stop-color:#38373B"/>
				</linearGradient>
				<path class="st81" d="M42.1,75.9c0,0,14.3-3.2,17.4,0.8c1.7,2.2-17.3,4.1-17.3,4.1s0.3-4-0.2-5.1L42.1,75.9z"/>
				<linearGradient id="SVGID_67_" gradientUnits="userSpaceOnUse" x1="42.8345" y1="67.8525" x2="41.6437" y2="83.566">
					<stop  offset="0" style="stop-color:#333236"/>
					<stop  offset="0.753" style="stop-color:#2B2A2C"/>
					<stop  offset="1" style="stop-color:#272628"/>
				</linearGradient>
				<path class="st82" d="M39.7,75l3.1-0.4c0,0,2.3,2,1.3,8.8l-3.6,0.1c0,0,0.3-2.2,0.2-3.2C40.7,76.8,39.7,75,39.7,75z"/>
				
					<linearGradient id="SVGID_68_" gradientUnits="userSpaceOnUse" x1="603.9434" y1="22.3182" x2="606.4493" y2="87.6143" gradientTransform="matrix(0.9979 6.400000e-02 -6.400000e-02 0.9979 -545.6813 -15.6752)">
					<stop  offset="0" style="stop-color:#3A3A3E"/>
					<stop  offset="1" style="stop-color:#38373B"/>
				</linearGradient>
				<path class="st83" d="M52.5,44.5c-2.8,4.7,1.6,12.8,2.9,15.7c1.6,3.5,4.6,6.1,3.3-1.5C58.7,58.6,56.5,46.8,52.5,44.5z"/>
			</g>
			<path id="XMLID_16_" class="st57" d="M22.4,24.2c0.1,2,0.4,4,0.7,5c0.1,0.2,0.3,1.3,1.3,2.2c1.6,1.5,3.7,3.2,3.7,3.2
				c-0.3-0.5-2.9-3.5-3.4-4.2C22.9,27.7,22.4,24.2,22.4,24.2z"/>
			<path id="XMLID_15_" class="st57" d="M37.6,34.9c0.7-0.5,2.3-1.9,3.6-3.2c0.6-0.6,1.1-1.7,1.2-2.5c0.2-0.7,0.4-5,0.4-5
				c-0.2,1.8-0.7,4.4-1.7,6.2C40.3,32.2,38,34.4,37.6,34.9z"/>
			<path id="XMLID_14_" class="st3" d="M41.6,8.5c0,0,0.8-2.2-0.9-3.8c0,0,1,0.6,0,1.5C39.4,3.2,26,0.6,21.3,8.4c0,0,1.7-1,3.2,0.2
				c0,0-3-0.6-4.1,2.6c0,0,1.8-1.8,3,0c0,0-2.1-0.3-3.1,3.3c0.8-1.3,1.5-0.6,1.5-0.6s-1,2.1-0.3,6.5c0,0,1,0.3,1.1,3.1
				c0,0,1-10.6,2.9-11.9C30.3,8.4,37.9,10,39,10.8c3.5,2.6,3.9,12.8,3.9,12.8s0-3.3,1.1-3.2C44.1,20.4,46.6,10.9,41.6,8.5z"/>
			<path id="XMLID_13_" class="st103" d="M41.6,8.5c0,0,0.9-2.2-0.9-3.8c0,0,1.8,2.5,0.2,4.1c0,0,2.5,0.7,3.9,4.9
				C44.6,13.7,44.6,9.7,41.6,8.5z"/>
			<g id="XMLID_11_" class="st104">
				<path id="XMLID_12_" class="st3" d="M28.6,5.7C28.5,5.7,28.5,5.7,28.6,5.7C28.5,5.7,28.5,5.7,28.6,5.7z"/>
			</g>
		</g>
		<path class="st55" d="M59.1,60.2c-0.2-1-0.4-1.9-0.7-2.7c-0.7-3-2.6-10.7-5.7-12.8c-0.1-0.1-0.2-0.1-0.2-0.2c0,0,0,0,0,0l0,0
			c-0.1,0-0.1-0.1-0.1-0.1c0,0-0.1-0.1-0.2-0.1c-2.6-1.8-7.6-3.7-10-4.6c-0.6-0.7-1.5-1.8-1.5-1.8c0,0,0,0,0,0
			c-0.2-0.3-0.4-0.7-0.7-1c-0.3-0.4-0.7-0.9-1-1.3c-0.1-0.2-0.2-0.3-0.2-0.3l0.1-1.4c0.1-0.1,0.2-0.2,0.3-0.3
			c0.7-0.6,1.4-1.2,2.1-1.9c0.6-0.6,1.1-1.7,1.2-2.5c0.1-0.3,0.2-1.1,0.2-1.9c0,0,0.1,0.1,0.1,0.1c0.4,0.2,1.4-0.6,1.7-4.5
			c0.4-1.4,0.6-2.3-0.5-2.5c0,0,0,0,0,0c0,0,0.9-3.4,0.6-6.7c0,0,0,0,0,0c0,0,0-4.1-3.1-5.2c0,0,0.8-2-0.7-3.5
			c-0.1-0.2-0.3-0.2-0.3-0.2s0.2,0.3,0.4,0.8c0,0.2-0.1,0.5-0.4,0.8C39.4,3.2,26,0.6,21.3,8.4c0,0,1.7-1,3.2,0.2c0,0-3-0.6-4.1,2.6
			c0,0,1.8-1.8,3,0c0,0-2.1-0.3-3.1,3.3c0.8-1.3,1.5-0.6,1.5-0.6s-1,2.1-0.3,6.5c-0.1,0-0.2,0-0.3,0c-1.2,0.2-0.9,1.1-0.4,2.5
			c0.5,3.9,1.5,4.7,1.9,4.4c0,0,0,0,0,0c0.1,0.7,0.2,1.4,0.4,1.8c0.1,0.2,0.3,1.3,1.3,2.2c0.4,0.4,0.9,0.8,1.3,1.2l0.2,3.2
			c-0.2,0.2-1.4,1.5-1.9,2.3c-0.5,0.6-1.3,1.4-1.6,1.9c-2.1,0.9-6,2.6-7.9,3.9c0,0,0,0,0,0c-0.8,0.5-1.2,0.9-1.2,0.9c0,0,0,0,0,0
			c-3.6,2.4-6.4,13.3-6.4,13.3c0,0,0,0,0,0c-2.2,7.8-4.5,21.3-4.4,23.5c0.2,3.4,3.3,13.8,3.8,15.3c0.5,1.4,1.5,3.3,2.4,4.8l0,0l0,0
			c0.8,1.3,1.4,2.3,1.4,2.3l1.1,1.5l0,0l0.2,0.2l1.3,1.9l0.9,49.1L13,181.8l-1.3,3.6l0.8,5.9c0,0,0,0,0,0c0,0.4-0.1,0.8-0.2,1.1
			c-0.4,1.2-4.2,5.4-4.3,6.5c-0.1,0.9,0.1,1.4,0.3,1.6c0.1,0.1,1.1,1,5.5,0.9c0.3,0,0.6,0,0.9-0.1c4.7,0.7,11.4,1.2,18.9,1.2
			c7.5,0,14.3-0.5,18.9-1.2c0.3,0,0.7,0.1,1,0.1c4.4,0.1,5.4-0.9,5.5-0.9c0.2-0.2,0.4-0.6,0.3-1.6c-0.1-1.1-3.8-5.3-4.3-6.5
			c0-0.1-0.1-0.2-0.1-0.3c0,0,0,0,0,0l0.5-5.1l-0.2-5.8l-1.7-16.3l-0.2-18.3l0-39.2c0,0-0.6-3.7-1.2-6.1l0,0l0,0
			c0-0.2-0.1-0.3-0.1-0.4c0,0,0,0,0,0l0,0l-0.2-3.6c0,0,0,0,0,0c0-0.1,0-0.3,0-0.4c0-0.5,0.1-1.8,0.2-3.5c0.2-3.8,0.3-7,0.3-9.7
			c4-0.1,7.8-0.4,8.5-0.9c0.5-0.3,1.8-3.4,1.8-4.4C62.8,77.2,62.4,74.7,59.1,60.2z M22.7,21.8c0,0.2,0,0.3,0,0.5
			c0,0.3-0.1,0.6-0.1,0.8c0-0.1,0-0.2-0.1-0.3C22.6,22.6,22.7,22.2,22.7,21.8z M22.8,23.8C22.8,23.7,22.8,23.7,22.8,23.8
			c0-0.1,0-0.1,0-0.1C22.8,23.7,22.8,23.7,22.8,23.8z M14.4,98.4L14.4,98.4c-0.3-1.2-0.6-2.5-0.9-3.9c0-0.1-1.7-10.9-2-13
			c0-0.2,0-0.3-0.1-0.3c0,0,0-0.1,0-0.1c0-0.1,0.1-0.5,0.1-0.9c0.4-2.2,1.6-7.7,2.4-11.4c-0.7,9.6-0.4,15.9-0.4,15.9c0,0,0,0,0,0
			c0,3.9,0.2,8.1,0.8,12.3L14.4,98.4z M21.6,20.6c0,0-0.1-0.1-0.1-0.1C21.5,20.5,21.6,20.5,21.6,20.6z M22.1,195.6
			c0-0.4-0.1-0.8-0.2-0.8l-0.5-2.6c0,0,0,0,0,0s0.8-2,1.8-3.7c1-1.7,1-4.9,1-4.9l1.2-7.3l1.2-25.1c0,0,4.3-20.4,4.5-20.8
			c0.2-0.4,3-14.3,3-14.3s4,18.9,4.2,20.4c0.1,1.4,1.4,9.5,2.1,16.8l1.1,13.7l2.7,11.2l-0.5,5.6l-0.2,2.7l1.2,2.9l1.2,4.2l-0.2,1.2
			c-0.1,0.1-0.2,0.4-0.2,0.9c-3.5-0.3-7.5-0.4-11.7-0.4C29.5,195.2,25.5,195.4,22.1,195.6z"/>
		<g class="st2">
			<g id="XMLID_4_">
				<g id="XMLID_7_">
					<path id="XMLID_9_" class="st105" d="M42.2,128.1c0.2,0.9,1.1,4.3,0.8,7c-0.2,2.7-0.6,11.1-1.1,11.1c-0.5,0-1.8,0.6-1.8-4.4
						c-0.1-5-0.3-5-0.7-5.1c-0.4-0.1-1.5,1.6-1.8,3.1c-0.2,1.5-0.6,4.2-0.5,4.6c0.2,0.4,3.9,2.4,4.4,2.8c0.5,0.4,2.1,1.6,1.3,2.3
						c-0.6,0.5-7.2-2.9-8.8-4c-0.7-0.5-0.2-5.5-0.1-7.4c0.2-1.9,3.3-9,4-11.4c0.7-2.4,1.5-4.4,1.5-4.4l4,1.8
						C43.5,124.1,42,127.2,42.2,128.1z"/>
				</g>
				<path id="XMLID_6_" class="st105" d="M39,126.4c-0.5,0.4-5.1,10.9-3.3,10.7C36.8,136.9,42.1,124,39,126.4z"/>
				<path id="XMLID_5_" class="st105" d="M43,125.3c0,0-0.7,1.9-0.6,3c0.2,1.1,1,3.6,0.6,7.3c0,0-0.3-5.6-1.1-7
					C41.2,127.4,43,125.3,43,125.3z"/>
			</g>
			<polygon id="XMLID_3_" class="st105" points="37.6,128 37.3,128.8 42.8,130.1 42.5,128.6 			"/>
			<path id="XMLID_2_" class="st0" d="M43.7,58.5c0,0-1.9,0.6-2.6,3.2c-0.7,2.3-1.1,9.1-0.5,16.1c0.6,6.9-0.3,16.4-0.4,17
				c-0.7,11.1-1.5,18.1-2.7,27.7c-0.2,1.7,7.9,7,7.9,7l4.8-31.5l3.3-13.1L43.7,58.5z"/>
			
				<linearGradient id="SVGID_69_" gradientUnits="userSpaceOnUse" x1="-2147.7434" y1="-1711.0228" x2="-2149.5154" y2="-1716.6514" gradientTransform="matrix(-0.1707 -0.9853 -0.9853 0.1707 -2015.0636 -1701.6398)">
				<stop  offset="0" style="stop-color:#F1F0F5"/>
				<stop  offset="1" style="stop-color:#E1E1E5"/>
			</linearGradient>
			<polygon class="st84" points="44.2,123.6 44.4,122.7 37.6,121.3 37.4,123.6 			"/>
			<polygon class="st4" points="43.1,128.9 44.3,123.2 37,121.9 36.9,128.2 			"/>
			<path id="XMLID_1_" class="st4" d="M46.7,61.1c0,0-1.6,6.9-0.7,15.3c0.2,2.1,2.3,13.4,2.4,14.6c0.1,1.1-2.9,24.6-3.3,27.7
				c-0.4,3.1-1.5,10.6-1.5,10.6l1.9,0.4c0,0,6.5-34.6,6.4-35.3C51.7,93.7,46.7,61.1,46.7,61.1z"/>
			<path class="st0" d="M100.8,92.3c-0.8-3.4-1.9-7.2-2.1-7.9c-0.4-1.3-6.2-27.8-11.7-27.9c-1.3,0-3.5,7-3.2,10
				c0.3,3-0.2,8.3,0.6,10.2c0.8,2,3.2,9,6,14c0,0,0,0-0.1,0.1C93.6,90.1,97.4,90.8,100.8,92.3z"/>
			<path class="st4" d="M55.5,52.6c-0.1-0.3,0.5-1.9,1-2.1c8.8-2.7,17.5-1,18.7,0.1c1.1,1,1.3,5.8,1.3,5.8l-20,0.5L55.5,52.6z"/>
			<path class="st0" d="M56.3,50.4c0,0,2.3-1.3,9.6-1.4c3.9,0,8.6,0.3,9.6,1.8l-0.8,1.6c0,0,0.9-3.5-8.7-3.2c-7.6,0.2-9.3,1.4-9.4,3
				L56.3,50.4z"/>
			<path class="st107" d="M84.4,58.6c-1,0-12.8-5.1-13.2-7.1c-0.6-3.6-0.4-6.8-0.4-6.8l-9.2-2.9c0.4,3.6-1.1,8.7-2.2,10.9
				c-0.7,1.4-4.1,3.5-8.1,4.7C52,58,60.6,70.9,66.2,75.3C66.7,75.8,83.5,62.5,84.4,58.6z"/>
			<g>
				<path class="st108" d="M71.9,51.6c-0.3-0.3-0.7-1.4-0.8-2.7c-0.1-0.6-0.1-2-0.2-2.7c-0.2,0.2-10-0.2-10.4-0.7l-1.1,0
					c0,0,0.3,3.6-0.2,6.2C59,52.5,52,55.5,52,55.5c3.1-0.7,5.6-1.4,6.7-1.6c0.9-0.2,2.4-0.5,3.5-1c5.9-2.7,7.8-3.6,7.8-3.6
					c0.3,2.5,2.1,4.2,2,4.2c4.5,2.6,9.8,2.4,9.8,2.4C74.9,55.3,72.2,51.9,71.9,51.6z"/>
			</g>
			<g>
				<path class="st109" d="M66.7,14.7c-9.9-0.1-12.5,6-13.1,15.5c-0.3,4.7-0.8,8.3,1.5,11.7c0.9,1.4,2.4,2.7,3.7,3.8
					c0.8,0.7,2.2,2.2,3.1,2.9c0.8,0.7,1.7,1.2,2.8,1.2c3.4,0.1,5.6-2.6,6.5-3.6c3.4-3.5,6.7-6.7,6-14.4
					C76.5,24.1,73.4,14.7,66.7,14.7z"/>
				<g>
					<path class="st108" d="M53.7,33.7c0.5,3.9,0.6,6.9,0.6,6.9c-1.5,0-1.8-1.7-2.3-3.2c-0.9-2.3-1.4-4.7,1-4.9
						C53.3,32.5,53.7,33.7,53.7,33.7z"/>
					<path class="st108" d="M76.8,33.7c-0.5,3.9-0.6,6.9-0.6,6.9c1.5,0,1.8-1.7,2.3-3.2c0.9-2.3,1.4-4.7-0.6-4.8
						C77.5,32.6,76.8,33.7,76.8,33.7z"/>
				</g>
				<path class="st110" d="M53.3,36.1c0,0,0.7-1.9,1.7-2.8c-0.9-2.5,0.1-5,1.1-8.1c0.7-2.3,4.4-6.8,9.3-6.2c4.9,0.5,7.9,2.5,9,6
					c0.7,2.3,1.3,5.6,1.2,8.3c0.7,0.8,1.4,1.8,1.6,2.3c0,0,1.3-15-4.6-19.1c-5.9-4.1-15.5-1.3-17.1,1.9C53.9,21.5,53.4,31,53.3,36.1
					z"/>
				<path class="st111" d="M58.8,13.6c-0.2,0.2-0.8,0.3-1.6,0.6c-4.8,2.1-6,11-5.8,10.5c0.6,4.3,1.8,8.6,1.8,10.3l0.1,1.2
					c0.6-1.8,0.5-6.9,0.5-7.2c0.1,0.5,0.2,1.3,0.3,1.7c0.1-0.2,1.1-7.3,1.1-7.3s-0.2,3.1,0.3,3.4c0.2-2.3,1-6.7,1-6.7
					c0.1,2-0.3,4.9-0.3,4.9c1.4-2.2,3.3-7.5,3.3-7.5c0.2,0.5-0.6,4.3-0.6,4.3c1.2-1.7,1.6-3.2,1.8-4.2c0.2,0.9,0.9,2.2,2.9,3.6
					c0,0-1.5-2.7-1.4-3.7c0,0-0.1,2.3,6.1,3c0,0-4.3-1.5-4.4-3.2c0,0,4.1,3.1,7,3.2c0,0-2.3-1.9-2.1-3.1c0,0,2.8,4.3,4.2,4.9
					c0,0-1.5-2.7-1.3-3.8c0,0,2.1,5,3.7,7.7l0-2.2c0.6,2.3,0.7,6.2,0.7,6.2l0.3-1.2c0.1,1.8,0.5,5.6,0.7,6.7l0.1-1.5
					c0,0,0.9-6.4,1.1-11.3C75.2,8.3,59.8,12.4,58.8,13.6z"/>
				<path class="st111" d="M62.4,15.1c0,0,5.2,4,6.4,3.9c0,0-0.5-2.4-0.1-2.9c1,0.8,1.3,2.3,3,3.7c0,0-0.5-1.3,0-2.5
					c0,0,2.9,4.9,3.6,7.4c0.2-1.5,0.6-2.6,0.6-2.6l0.9,6.2l0.4-0.8l0.2,6.8l0.9-2.2c0,0,0.5-8.9,0.3-9.4l0.4,0.8c0,0,0-5.3-2.4-7.5
					l0.7,0.1c0,0-7.1-10.3-18.1-3.1c0,0-6.3,0.5-7.6,6.8L52,19c0,0-1.1,3.2-1,6.3l0.3-0.9c0,0-0.2,2.4,0.7,7.5l1,0.3l0.5,1.9
					l0.2-6.2c0,0,0.2,0.8,0.4,1.3c0.1-4.7,1-8.1,1-8.1s0.3,2.1,0.5,2.7c0.1-1.9,0.9-5.6,0.9-5.6s0.4,3,0.3,4.4c0,0,2.1-5.5,2.9-6.4
					c0,0,0.3,0.8,0.3,2l0.9-3.2c0,0,0.4,2.2,1.2,3.4c0,0-0.4-1.9-0.1-2.7c0,0,0.4,1.5,1.9,2.1L62.4,15.1z"/>
				<path class="st112" d="M59,12.9c0,0,1.1-1.3,2.9-1.9c2.1-0.7,6.6-1.7,11.8,1.6c0,0-9.3-4-14.3,1.3c0,0-4.1,0.1-6.6,3.1
					C52.8,16.9,54.3,13.9,59,12.9z"/>
			</g>
			<path class="st108" d="M75,54c-0.5-0.3-1.2-0.7-1.6-1c-0.5,0.5-0.9,1.1-1.8,2.2c-1.4,1.8-1.9,3.5-2,4.4c-0.1,1-1.7,7.9-3.2,11.3
				c0,0-2.9-7.8-3.2-9.9c-0.3-1.9-0.9-4.2-5.2-8.5c-0.6,0.3-1.8,1-3,1.7c-1.3,0.8,7.8,13.2,8.5,16.5c0.9,4.3,2.8,6.8,2.8,6.8
				s6.4-18.5,7-19.6C73.6,57.4,76.7,55,75,54z"/>
			<path class="st0" d="M72.7,56.1c0,0,2.3-1.7,2.9-2.4c0,0,4.6,0.7,7,1.5c3.2,1.1,4.1,0.8,4.8,1.9c0,0-2.3,11.4-2.4,14.4
				c-0.1,3.1-0.1,4.3-0.6,6.3c-0.6,2-3,12.4-3,13.7c-0.1,5,2,12.9,1.9,19.6c0,0-9.8,7.4-16.5,6.7c-6.6-0.8-15.2-1.5-18.4-5.9
				c0,0,2.7-8.7,2.7-14.6c0-6.1-1.4-10.8-3.8-18.2c-0.3-10-2.4-17.4-3.5-20.5c0,0,3.6-1.8,13.5-4.2c0,0,1.5,3.6,3.2,4.4
				c0,0,2.2,12.1,6.4,16.5C66.8,75.2,72.7,61.6,72.7,56.1z"/>
			<path class="st0" d="M70.7,58c0,0-0.5,3-0.7,4.3c-0.2,1.3-1.6,7.5-3.6,11.5l1,4.3c0,0,3.1-5.7,4.3-9.1c1.2-3.4,1.9-10,1.9-10.4
				c0,0,3.1-2.8,4.2-3.4l-3.4-2.2L70.7,58z"/>
			<linearGradient id="SVGID_70_" gradientUnits="userSpaceOnUse" x1="68.1307" y1="87.4773" x2="67.0487" y2="75.0346">
				<stop  offset="0" style="stop-color:#E1E1E5"/>
				<stop  offset="1" style="stop-color:#F1F0F5"/>
			</linearGradient>
			<path class="st85" d="M66.2,74l0.4-0.8c0,0,0.8,2.1,1,2.9c0.2,0.8,0.7,4,0.8,5.6c0.1,1.4,0.4,3.8,0.1,7.9l-0.6,0L66.2,74z"/>
			<path class="st0" d="M60.4,56.4c0,0,1.8,3.2,1.9,4.1c0.1,0.9,2.8,10.9,4.1,13.6c1.3,2.7,1.5,7.9,1.6,9.7c0.3,5.7-1,12.9-1,12.9
				l-3.4-1.4c0,0,1.4-6,1-9.2c-0.4-3.2,0-8.9-2.1-13.8c-2.1-5-4.1-13.5-4.1-13.5s-1.8-1.5-2.3-2.1l2.3-1.9L60.4,56.4z"/>
			<path class="st0" d="M85.1,72.8c-0.2,1.7-0.2,1.8-0.6,4.3c-0.7,4.6-1.5,11.8-1,17.4c0.5,4.8,0.3,7.7,0.9,10.2
				c0.4,2.1-13,3.7-17.3,3.2c-4.3-0.4-16.8-3-16.8-4.2c0.1-8-0.4-16.3-2.8-24.1c-0.5-1.6-1.9-7.9-0.6-4.5c0.6,1.6,1.7,4.8,3.9,7
				c2.8,2.8,13.5,3.7,15.8,3.7c2.3,0,10.1-0.3,13.4-3.2C82.5,80.4,85.6,70.1,85.1,72.8z"/>
			<linearGradient id="SVGID_71_" gradientUnits="userSpaceOnUse" x1="80.6504" y1="99.9395" x2="86.2299" y2="118.6617">
				<stop  offset="0" style="stop-color:#3A3941"/>
				<stop  offset="1" style="stop-color:#35343C"/>
			</linearGradient>
			<path class="st86" d="M78.9,103.7l1.8,3.7c0,0,4.5-0.7,4.9-0.8c-0.4-1.6-1.2-3.8-1.2-3.8S80.7,103.4,78.9,103.7z"/>
			<path class="st4" d="M58.6,55.3c-0.6-0.3-2.7-1.8-2.7-1.8l-3.6,3.3l0.6,6.3l5.4-5.4c0,0,2.3,0,3.4,1
				C61.7,58.8,60.5,56.2,58.6,55.3z"/>
			<path class="st0" d="M61.7,58.8c0,0-2.5-2.8-2.9-2.8c-0.4,0-2.1,1.7-2.1,1.7s-2.1,1.9-4.8,5.5c0,0-0.4-6.8,0.1-7.6
				c2.5-4,4.3-5.1,4.3-5.1s0.3,2.5,2.7,4.2C59.8,55.2,60.5,56.5,61.7,58.8z"/>
			<path class="st4" d="M74.1,53.9c0,0-2.7,2.5-3.4,4.1c0,0,2.2-0.9,2.8-0.8l5.3,5.6l0.6-6.5L74.1,53.9z"/>
			<path class="st0" d="M70.7,58c0,0,2.3-2.3,2.7-2.3c0.4,0,1.7,1.3,1.7,1.3s3.5,4.1,4.5,5.4c0,0,0.6-6.4,0.1-7.2
				c-1.9-2.8-4.6-4.8-4.6-4.8S74.9,53,73,54.6C72.3,55.2,70.8,57.4,70.7,58z"/>
			<g>
				<path class="st117" d="M93.4,165.4c-1.6-8.6-5.7-39.3-6.9-46.9L84.1,106c0,0-11.9,0.8-14.5,0.8c-2.6,0-18.9-2.9-18.9-2.9
					s-4,11.1-4.1,11.1c0,0-3.8,10.7-3.5,15.4c0.5,7.3,2.4,23.3,3,27.3c0.6,4.1,8.8,73,8.8,73l5.8,1.7c0,0,4.1-0.6,5.8-1.7
					c0,0-8-99.6,0.2-93.7l14.8,37.2l14.8,55.9l7.5,0.4l2.9-3.2C106.7,227.3,95,173.7,93.4,165.4z"/>
				<path class="st118" d="M50.6,103.7c0,0-2.4,6.1-2.6,6.9c-0.2,0.8-4.8,13.7-4.9,18c-0.1,7.2,4.5,41.1,11.7,102.2l5.8,1.7
					c0,0-6.1-90.4-5.9-93.6c0.2-3.2,2-18.8,3.9-33.9L50.6,103.7z"/>
				<path class="st118" d="M103.8,230.5l2.9-3.2c0,0-12.9-60.3-13.9-67.6c-3.2-22.9-5.4-38.4-5.9-40.8c-1.2-5.1-3.8-15.9-3.8-15.9
					l-12.6,1.8c0,0,7.8,21.1,9.7,29.9C82,143.4,103.8,230.5,103.8,230.5z"/>
				<path class="st119" d="M50.2,103.7c0,0,3,0.5,14.9,1.7c2.7,0.3,14.8-1.3,19.1-2.6l0.2,5.4c0,0-17.8,6.1-35.3,0.2L50.2,103.7z"/>
				<path class="st119" d="M81.5,106c0,0,2.9,14.8,3.3,16.4c0.5,1.5,7.5,34.2,7.5,34.2s-2.6-30.3-3.5-33.5
					c-0.9-3.2-4.9-17.8-4.9-17.8L81.5,106z"/>
				<path class="st118" d="M62.7,107.7c0,0,1.7,19.1,2,19.5c0.3,0.5,3.5,2.7,3.5,2.7s-3.9-2.1-4.4-2.3c-0.5-0.2-1.9-19.9-1.9-19.9
					L62.7,107.7z"/>
				<path class="st120" d="M66.7,137c0,0-2.2,4.1-2.2,7.4c0,3.3,1.1,50.7,2,86.4c0,0-1.1,0.8-3.3,1.2c0,0-2.5-38.7-2.8-40.9
					c-0.3-2.3-3.1-46.7,3.6-58.6c0,0,1.8,1.4,4.5,3c2.7,4.8,6.1,16.9,8.6,25.1c2.6,8.5,22.5,69.8,22.5,69.8l-3.4-0.2L66.7,137z"/>
				<path class="st119" d="M50.5,103.7c0,0-3.8,9.7-4.3,11.2c-0.3,1-1.3,3.9-2.1,7.1c-0.6,2.6-1.2,5.4-1.1,7.4
					c0.1,3.7,1.6,15,2.6,24.9c-0.7-13.1,0.1-23.8,1-29.1c0.9-5.3,6.5-21,6.5-21L50.5,103.7z"/>
			</g>
			<g>
				<path class="st121" d="M95.3,105.3L69.1,117c-0.8,0.4-1.7,0-2.1-0.8L51.6,81.9c-0.4-0.8,0-1.7,0.8-2.1l26.2-11.8
					c0.8-0.4,1.7,0,2.1,0.8l15.4,34.3C96.5,104,96.1,104.9,95.3,105.3z"/>
				<path class="st111" d="M93.5,104.5l-26.2,11.8c-0.8,0.4-1.7,0-2.1-0.8L49.8,81.1c-0.4-0.8,0-1.7,0.8-2.1l26.2-11.8
					c0.8-0.4,1.7,0,2.1,0.8l15.4,34.3C94.6,103.2,94.3,104.1,93.5,104.5z"/>
				<g>
					<polygon class="st0" points="92.7,103 66.7,114.7 51.4,80.6 77.4,68.9 89.5,95.9 					"/>
				</g>
				<path class="st122" d="M69.9,67.9l-4.2,1.9c-0.4,0.2-0.8,0.1-1.1-0.2c-0.7-0.8-1.8-1-2.8-0.6c-1,0.4-1.5,1.5-1.4,2.5
					c0.1,0.4-0.2,0.8-0.5,1l-4.2,1.9c-0.5,0.2-0.7,0.8-0.5,1.2l1.4,3.1c0.2,0.5,0.8,0.7,1.2,0.5L72,72.8c0.5-0.2,0.7-0.8,0.5-1.2
					l-1.4-3.1C70.9,67.9,70.3,67.7,69.9,67.9z M63.2,72.1c-0.5,0.2-1.1,0-1.4-0.5s0-1.1,0.5-1.4c0.5-0.2,1.1,0,1.4,0.5
					S63.7,71.9,63.2,72.1z"/>
				<g>
					
						<rect x="56" y="74.6" transform="matrix(0.9124 -0.4093 0.4093 0.9124 -25.1605 33.0639)" class="st123" width="17.4" height="1.4"/>
				</g>
				<g>
					<g>
						
							<rect x="61.6" y="79.8" transform="matrix(0.9124 -0.4093 0.4093 0.9124 -27.0768 33.909)" class="st122" width="8.2" height="0.7"/>
					</g>
					<g>
						
							<rect x="62" y="79.9" transform="matrix(0.9124 -0.4093 0.4093 0.9124 -26.6933 35.7644)" class="st123" width="16.5" height="0.7"/>
					</g>
					<g>
						
							<rect x="62.7" y="81.5" transform="matrix(0.9124 -0.4093 0.4093 0.9124 -27.3115 36.2175)" class="st123" width="16.5" height="0.7"/>
					</g>
					<g>
						
							<rect x="64.6" y="86.6" transform="matrix(0.9124 -0.4093 0.4093 0.9124 -29.5623 35.7309)" class="st122" width="8.2" height="0.7"/>
					</g>
					<g>
						
							<rect x="65" y="86.6" transform="matrix(0.9124 -0.4093 0.4093 0.9124 -29.1789 37.5863)" class="st123" width="16.5" height="0.7"/>
					</g>
					<g>
						
							<rect x="65.7" y="88.3" transform="matrix(0.9124 -0.4093 0.4093 0.9124 -29.797 38.0394)" class="st123" width="16.5" height="0.7"/>
					</g>
					<g>
						
							<rect x="67.7" y="93.4" transform="matrix(0.9124 -0.4093 0.4093 0.9124 -32.1059 37.5952)" class="st122" width="8.2" height="0.7"/>
					</g>
					<g>
						
							<rect x="68.1" y="93.5" transform="matrix(0.9124 -0.4093 0.4093 0.9124 -31.7224 39.4506)" class="st123" width="16.5" height="0.7"/>
					</g>
					<g>
						
							<rect x="68.8" y="95.1" transform="matrix(0.9124 -0.4093 0.4093 0.9124 -32.3406 39.9037)" class="st123" width="16.5" height="0.7"/>
					</g>
					<g>
						
							<rect x="69.6" y="96.8" transform="matrix(0.9124 -0.4093 0.4093 0.9124 -32.9587 40.3568)" class="st123" width="16.5" height="0.7"/>
					</g>
					<g>
						
							<rect x="70.7" y="100.3" transform="matrix(0.9124 -0.4093 0.4093 0.9124 -34.6494 39.4596)" class="st122" width="8.2" height="0.7"/>
					</g>
					<g>
						
							<rect x="71.2" y="100.3" transform="matrix(0.9124 -0.4093 0.4093 0.9124 -34.266 41.315)" class="st123" width="16.5" height="0.7"/>
					</g>
					<g>
						
							<rect x="71.9" y="102" transform="matrix(0.9124 -0.4093 0.4093 0.9124 -34.8841 41.7681)" class="st123" width="16.5" height="0.7"/>
					</g>
					<path class="st117" d="M58.9,84.5L58.9,84.5c0,0,0.1-0.1,0.1-0.1c0.8-0.4,1.8,0,2.2,0.8c0.4,0.8,0.1,1.7-0.7,2.1
						c0,0-0.1,0.1-0.1,0.1c-0.8,0.4-1.8,0-2.2-0.8C57.9,85.9,58.2,84.9,58.9,84.5"/>
					<path class="st117" d="M61.9,91.2L61.9,91.2c0,0,0.1-0.1,0.1-0.1c0.4-0.2,0.9-0.2,1.3,0c0.4,0.2,0.7,0.5,0.9,0.9
						c0.4,0.8,0.1,1.7-0.7,2.1c0,0-0.1,0.1-0.1,0.1c-0.4,0.2-0.9,0.2-1.3,0c-0.4-0.2-0.7-0.5-0.9-0.9C60.9,92.6,61.2,91.7,61.9,91.2
						"/>
					<path class="st117" d="M64.9,97.9L64.9,97.9c0,0,0.1-0.1,0.1-0.1c0.8-0.4,1.8,0,2.2,0.8c0.4,0.8,0.1,1.7-0.7,2.1
						c0,0-0.1,0.1-0.1,0.1c-0.8,0.4-1.8,0-2.2-0.8C63.9,99.3,64.2,98.4,64.9,97.9"/>
					<g>
						<path class="st117" d="M66.3,99.5c0,0.1,0,0.1,0,0.2c0,0.1,0,0.1,0,0.2c0,0.1-0.1,0.1-0.1,0.1c-0.1,0-0.1,0.1-0.2,0.1
							c0,0-0.1,0-0.1,0s-0.1,0-0.1,0s-0.1,0-0.1,0s0,0,0,0c0,0,0,0,0,0c0,0,0,0,0,0c0,0,0,0,0,0s0,0,0,0c0,0,0-0.1,0-0.1
							c0,0,0,0,0,0c0,0,0,0,0,0c0,0,0,0,0.1,0s0.1,0,0.1,0c0,0,0.1,0,0.1,0c0,0,0.1,0,0.1-0.1s0,0,0.1-0.1c0,0,0,0,0-0.1
							c0,0,0-0.1,0-0.1c0,0,0-0.1-0.1-0.1s0,0-0.1,0c0,0-0.1,0-0.1,0c0,0-0.1,0-0.1,0l-0.1,0c0,0,0,0,0,0c0,0,0,0,0,0s0,0,0,0
							s0,0,0,0c0,0,0,0,0,0s0,0,0,0c0,0,0,0,0,0s0,0,0,0l0.1,0c0,0,0.1,0,0.1-0.1c0,0,0,0,0.1-0.1c0,0,0-0.1,0-0.1c0,0,0-0.1,0-0.1
							c0,0,0,0,0-0.1s0,0-0.1,0s0,0-0.1,0c0,0-0.1,0-0.1,0c0,0-0.1,0-0.1,0.1s0,0-0.1,0.1c0,0,0,0,0,0.1c0,0,0,0,0,0c0,0,0,0,0,0
							c0,0,0,0,0,0c0,0,0,0,0,0s0,0,0,0c0,0,0,0,0,0c0,0,0,0,0,0c0,0,0,0,0,0s0,0,0,0s0,0,0,0s0,0,0.1-0.1c0,0,0.1-0.1,0.1-0.1
							c0,0,0.1,0,0.1-0.1c0.1,0,0.1,0,0.2-0.1c0.1,0,0.1,0,0.1,0c0,0,0.1,0,0.1,0.1c0,0,0.1,0.1,0.1,0.1c0,0,0,0.1,0,0.1
							s0,0.1,0,0.1c0,0,0,0.1,0,0.1s0,0.1-0.1,0.1l0,0c0,0,0.1,0,0.1,0c0,0,0.1,0,0.1,0C66.2,99.3,66.2,99.3,66.3,99.5
							C66.3,99.4,66.3,99.4,66.3,99.5z"/>
					</g>
					<path class="st117" d="M67.9,104.7L67.9,104.7c0,0,0.1-0.1,0.1-0.1c0.8-0.4,1.8,0,2.2,0.8c0.4,0.8,0.1,1.7-0.7,2.1
						c0,0-0.1,0.1-0.1,0.1c-0.8,0.4-1.8,0-2.2-0.8C66.9,106,67.2,105.1,67.9,104.7"/>
					<g>
						<path class="st117" d="M69.4,106.2C69.4,106.2,69.4,106.2,69.4,106.2c0,0.1,0,0.1,0,0.1l-0.1,0l0.1,0.2c0,0,0,0,0,0s0,0,0,0
							s0,0,0,0c0,0,0,0-0.1,0c0,0,0,0-0.1,0c0,0,0,0,0,0s0,0,0,0c0,0,0,0,0,0l-0.1-0.2l-0.5,0.2c0,0,0,0,0,0c0,0,0,0,0,0
							c0,0,0,0,0,0c0,0,0,0,0-0.1c0,0,0,0,0-0.1c0,0,0,0,0,0c0,0,0,0,0,0c0,0,0,0,0,0l0.1-0.9c0,0,0,0,0,0s0,0,0,0c0,0,0,0,0,0
							s0,0,0.1,0c0,0,0.1,0,0.1,0c0,0,0,0,0.1,0c0,0,0,0,0,0c0,0,0,0,0,0l0.3,0.8L69.4,106.2C69.3,106.1,69.3,106.1,69.4,106.2
							C69.3,106.1,69.3,106.1,69.4,106.2z M68.7,105.7L68.7,105.7l-0.1,0.7l0.3-0.1L68.7,105.7z"/>
					</g>
				</g>
			</g>
			<path class="st124" d="M59,101.8l-2.1-4.6c0,0,0.8-0.6,2-0.6c1.1,0,3.3-0.5,3.5-0.5c0.2-0.1,5.4,3.1,6.1,2.9
				c0.6-0.2,9.3-3,18.6-7.5l5.1,12.2c0,0-9.1,1.6-11.5,1.8c-1.8,0.1-6.8,0.5-9.7,1.8c-0.9,0.4-6.9,2.8-8.2,2.7L59,101.8z"/>
			<g>
				<path class="st105" d="M75.6,98.3c0,0-6.7,1.3-7.5,1.3c-0.8,0-5.1-2.4-5.6-2.6c-0.5-0.2-4.3,0.6-4.7,0.7
					c-0.4,0.1-1.4,2.7-1.7,3.3c-0.3,0.6,0.6,1.3,2.1,0.1c0.7-0.6,0.9-1.1,1.2-1.3c0.5-0.5,1.9-0.2,2.2-0.1c0.3,0.1-1.8,1-2.7,1.5
					c-1,0.5-2,0.9-2.1,1.3c-0.2,0.8,0.5,1.8,1.1,1.7c-0.4,0.6-0.3,1,0,1.5c0.5,0.7,0.7,0.6,1.1,0.7c-0.2,0.8,0.1,1.1,0.3,1.4
					c0.4,0.5,0.7,0.4,1.2,0.4c0.2,0-0.1,1.3,1.4,1.3c1.6,0,3.6-0.5,4.5-1.1c1.1-0.6,4-2,5.4-2.5c0.9-0.3,6.1-1.1,6.1-1.1L75.6,98.3z
					"/>
				<path class="st105" d="M57.1,98.6c0,0,0.4-0.8,0.6-0.9c0.3-0.1,4.2-0.9,4.7-0.7c0.5,0.2,2.2,1.2,2.2,1.2s-1.7-0.7-2.4-0.9
					c-0.7-0.2-4.2,0.5-4.4,0.6C57.6,97.9,57.1,98.6,57.1,98.6z"/>
				<path class="st105" d="M65.1,98.3c0,0,2.4,1.2,3,1.2c0.6,0,6.4-1,7.5-1.2l0.4,1.1c0,0-6.4,1.3-7.3,1.2
					C67.7,100.4,65.1,98.3,65.1,98.3z"/>
				<path class="st125" d="M63,100.4c0,0-5.2,1.1-5.2,1.7c0,0.6,0.3,1.3,0.6,1.5c0.2,0.1,0.7,0,1.2-0.1c-0.5,0.2-0.8,0.4-0.8,0.6
					c0,0.6,0.3,1.2,0.6,1.3c0.2,0.1,0.4,0.1,0.7,0.1c-0.2,1.4,1.2,1.3,1.5,1.4c0,0,0.1,0,0.1,0c0,0,0,0,0,0.1c0,0.6,0.2,0.9,0.5,1
					c2.9,1,5.3-1.3,5.3-1.3L63,100.4z"/>
				<path class="st105" d="M66.8,107.9c0,0,2.6-2.4,3.8-2.7c1.2-0.3,6.9-1.2,6.9-1.2l0.2,0.7c0,0-5.6,1-6.6,1.3
					C70.3,106.3,66.8,107.9,66.8,107.9z"/>
				<path class="st105" d="M57.3,101.5c0.4-0.2,1.2-0.7,1.7-1.4c0.5-0.7,0.8-0.8,1.6-0.7c0.8,0.1,0.9,0.2,0.9,0.2
					c0,0.1-3.2,1.7-3.2,1.7s3.4-1.1,4.1-1.8C63,98.8,61.5,99,61,99c-0.5,0-1.8,0.6-2.1,0.6C58.9,99.6,57.8,101.3,57.3,101.5z"/>
				<path class="st105" d="M57.3,103.9c0.1,0,0.3,0.2,0.5,0.2c0,0-0.1,0.2-0.2,0.4c0,0,0.6-0.5,1.2-0.7
					C58.8,103.9,57.6,104,57.3,103.9z"/>
				<path class="st105" d="M58.3,106.1c0.2,0.1,0.6,0.2,0.6,0.2s-0.1,0.5,0,0.7c0,0,0.2-0.8,0.6-1C59.4,105.9,58.7,106.1,58.3,106.1
					z"/>
				<path class="st105" d="M59.6,107.9c0.2,0.1,0.5,0.1,0.7,0.1c0,0,0.1,0.3,0.2,0.5c0,0-0.1-0.5,0.5-0.9
					C61,107.7,60.5,107.9,59.6,107.9z"/>
			</g>
			<path class="st0" d="M90.2,90.8c-0.5,0.3-2.9,1.8-6.8,3.7c-2.4,1.2-9.5,4-9.5,4l1.5,6.9c0,0,9.4-1.5,13.2-2.3
				c3-0.7,12.3-4.2,12.8-5.1c0.4-0.7,0-3.1-0.6-5.7C97.4,90.8,93.6,90.1,90.2,90.8z"/>
			<polygon class="st105" points="73.2,98.7 74.2,98.5 76.3,105 75.1,105.2 			"/>
			<path class="st4" d="M95.1,90.5c-4.7-2.2-7.6-10-8.2-14.2c-0.6-4.2-0.1-10-0.6-9.6C85.8,67,84.4,77,84.4,77
				c0.3,1.5,5.6,13.5,5.8,13.8l-8.3,4.4C85.7,93.9,98.9,92.3,95.1,90.5z"/>
			<polygon class="st4" points="79.8,96.1 80.8,95.7 83.9,104 81.2,104.5 			"/>
			<polygon class="st4" points="73.5,98.5 80.2,95.9 83.4,104.7 75.4,105.4 			"/>
			
				<linearGradient id="SVGID_72_" gradientUnits="userSpaceOnUse" x1="439.6784" y1="-1906.8057" x2="445.2629" y2="-1925.4753" gradientTransform="matrix(0.8892 0.4576 -0.4576 0.8892 -1187.2489 1593.8705)">
				<stop  offset="0" style="stop-color:#FFFFFF"/>
				<stop  offset="0.3567" style="stop-color:#F9F8FA"/>
				<stop  offset="1" style="stop-color:#F1F0F5"/>
			</linearGradient>
			<polygon class="st87" points="73.9,99.8 73.5,98.5 80.2,95.9 81.1,98.4 			"/>
		</g>
	</g>
</g>
</svg>
