<?xml version="1.0" encoding="utf-8"?>
<!-- Generator: Adobe Illustrator 24.0.3, SVG Export Plug-In . SVG Version: 6.00 Build 0)  -->
<svg version="1.1" id="Layer_1" xmlns="http://www.w3.org/2000/svg" xmlns:xlink="http://www.w3.org/1999/xlink" x="0px" y="0px"
	 viewBox="0 0 132.9 132.9" style="enable-background:new 0 0 132.9 132.9;" xml:space="preserve">
<style type="text/css">
	.st0{fill:#FFFFFF;}
	.st1{fill:url(#XMLID_52_);}
	.st2{clip-path:url(#SVGID_2_);}
	.st3{fill:#757575;}
	.st4{fill:#F0F0F0;}
	.st5{fill:url(#SVGID_3_);}
	.st6{fill:url(#SVGID_4_);}
	.st7{fill:url(#SVGID_5_);}
	.st8{fill:url(#SVGID_6_);}
	.st9{fill:url(#SVGID_7_);}
	.st10{fill:url(#SVGID_8_);}
	.st11{fill:url(#SVGID_9_);}
	.st12{fill:url(#SVGID_10_);}
	.st13{fill:url(#SVGID_11_);}
	.st14{fill:url(#SVGID_12_);}
	.st15{fill:url(#SVGID_13_);}
	.st16{fill:url(#SVGID_14_);}
	.st17{fill:#5D5E60;}
	.st18{fill:url(#SVGID_15_);}
	.st19{fill:#E9EAEB;}
	.st20{fill:url(#SVGID_16_);}
	.st21{fill:url(#SVGID_17_);}
	.st22{fill:url(#SVGID_18_);}
	.st23{fill:url(#SVGID_19_);}
	.st24{fill:#737577;}
	.st25{fill:url(#SVGID_20_);}
	.st26{fill:url(#SVGID_21_);}
	.st27{fill:url(#SVGID_22_);}
	.st28{fill:url(#SVGID_23_);}
	.st29{fill:url(#SVGID_24_);}
	.st30{fill:url(#SVGID_25_);}
	.st31{fill:url(#SVGID_26_);}
	.st32{fill:url(#SVGID_27_);}
	.st33{fill:#DFE0E1;}
	.st34{fill:url(#SVGID_28_);}
	.st35{fill:url(#SVGID_29_);}
	.st36{fill:url(#SVGID_30_);}
	.st37{fill:url(#SVGID_31_);}
	.st38{fill:url(#SVGID_32_);}
	.st39{fill:url(#SVGID_33_);}
	.st40{fill:url(#SVGID_34_);}
	.st41{fill:url(#SVGID_35_);}
	.st42{fill:url(#SVGID_36_);}
	.st43{fill:url(#SVGID_37_);}
	.st44{fill:url(#SVGID_38_);}
	.st45{fill:url(#SVGID_39_);}
	.st46{fill:url(#SVGID_40_);}
	.st47{fill:url(#SVGID_41_);}
	.st48{fill:#D2D3D5;}
	.st49{fill:url(#SVGID_42_);}
	.st50{fill:url(#SVGID_43_);}
	.st51{fill:url(#XMLID_53_);}
	.st52{fill:url(#XMLID_54_);}
	.st53{fill:#656565;}
	.st54{fill:#5F5F5F;}
	.st55{clip-path:url(#SVGID_2_);fill:#0A90B7;}
	.st56{fill:#A8A8A8;}
	.st57{fill:#BABABA;}
	.st58{fill:url(#SVGID_44_);}
	.st59{fill:url(#SVGID_45_);}
	.st60{fill:url(#SVGID_46_);}
	.st61{fill:url(#SVGID_47_);}
	.st62{fill:url(#SVGID_48_);}
	.st63{fill:url(#SVGID_49_);}
	.st64{fill:url(#SVGID_50_);}
	.st65{fill:url(#SVGID_51_);}
	.st66{fill:url(#SVGID_52_);}
	.st67{fill:url(#SVGID_53_);}
	.st68{fill:url(#SVGID_54_);}
	.st69{fill:url(#SVGID_55_);}
	.st70{fill:url(#SVGID_56_);}
	.st71{fill:url(#SVGID_57_);}
	.st72{fill:url(#SVGID_58_);}
	.st73{fill:url(#SVGID_59_);}
	.st74{fill:url(#SVGID_60_);}
	.st75{fill:#E1E1E1;}
	.st76{fill:url(#SVGID_61_);}
	.st77{fill:url(#SVGID_62_);}
	.st78{fill:url(#SVGID_63_);}
	.st79{fill:url(#SVGID_64_);}
	.st80{fill:url(#SVGID_65_);}
	.st81{fill:url(#SVGID_66_);}
	.st82{fill:url(#SVGID_67_);}
	.st83{fill:url(#SVGID_68_);}
	.st84{fill:url(#SVGID_69_);}
	.st85{fill:url(#SVGID_70_);}
	.st86{fill:url(#SVGID_71_);}
	.st87{fill:url(#SVGID_72_);}
	.st88{fill:url(#SVGID_73_);}
	.st89{fill:url(#SVGID_74_);}
	.st90{fill:url(#SVGID_75_);}
	.st91{fill:url(#SVGID_76_);}
	.st92{fill:url(#SVGID_77_);}
	.st93{fill:url(#SVGID_78_);}
	.st94{fill:url(#SVGID_79_);}
	.st95{fill:url(#SVGID_80_);}
	.st96{fill:url(#SVGID_81_);}
	.st97{fill:url(#SVGID_82_);}
	.st98{fill:url(#SVGID_83_);}
	.st99{fill:url(#SVGID_84_);}
	.st100{fill:url(#SVGID_85_);}
	.st101{fill:url(#SVGID_86_);}
	.st102{fill:url(#SVGID_87_);}
	.st103{opacity:0.15;fill:#757575;}
	.st104{opacity:0.15;}
	.st105{fill:#0A90B7;}
	.st106{fill:url(#SVGID_88_);}
	.st107{fill:#53B1CD;}
	.st108{fill:#3BA6C5;}
	.st109{fill:#47ACC9;}
	.st110{fill:#2FA1C2;}
	.st111{fill:#1A4480;}
	.st112{fill:#162E51;}
	.st113{fill:url(#SVGID_89_);}
	.st114{fill:url(#SVGID_90_);}
	.st115{fill:url(#SVGID_91_);}
	.st116{fill:url(#SVGID_92_);}
	.st117{fill:#C81F25;}
	.st118{opacity:0.3;fill:#C81F25;}
	.st119{fill:#A00A0F;}
	.st120{opacity:0.23;fill:#0A90B7;}
	.st121{opacity:0.5;fill:#D9F1FD;}
	.st122{fill:#D9F1FD;}
	.st123{fill:#E2F4FD;}
	.st124{opacity:0.18;fill:#1A4480;}
	.st125{fill:#229BBE;}
	.st126{fill:url(#SVGID_93_);}
	.st127{fill:#ECEDEE;}
	.st128{fill:#C2E9F9;}
	.st129{opacity:0.66;}
	.st130{clip-path:url(#SVGID_95_);}
	.st131{fill:#981C20;}
	.st132{fill:#A33336;}
	.st133{fill:#D1D1D1;}
	.st134{fill:#E21E3E;}
	.st135{fill:#E74E44;}
	.st136{opacity:0.75;}
	.st137{opacity:0.71;clip-path:url(#SVGID_97_);fill:#D9F1FD;}
	.st138{clip-path:url(#SVGID_97_);}
	.st139{fill-rule:evenodd;clip-rule:evenodd;fill:#FFFFFF;}
	.st140{fill-rule:evenodd;clip-rule:evenodd;fill:#D9F1FD;}
	.st141{opacity:0.66;fill-rule:evenodd;clip-rule:evenodd;fill:#D9F1FD;}
	.st142{opacity:0.57;fill:#D9F1FD;}
	.st143{clip-path:url(#SVGID_99_);}
	.st144{fill:#3C6093;}
	.st145{opacity:0.58;fill:#1A4480;}
	.st146{fill:#DEF3FD;}
	.st147{opacity:0.45;fill:#D9F1FD;}
	.st148{opacity:0.81;fill:#D9F1FD;}
</style>
<g>
	<circle class="st0" cx="65.9" cy="66.2" r="65.8"/>
</g>
<path class="st127" d="M83.1,44.2c21,0,38,17,38,38c0,5.9-1.3,11.4-3.7,16.3l6.6,18.9l-19.7-3.7c-6,4.1-13.3,6.4-21.2,6.4
	c-21,0-38-17-38-38S62.1,44.2,83.1,44.2z"/>
<path class="st128" d="M81.9,41.9c21,0,38,17,38,38c0,5.9-1.3,11.4-3.7,16.3l6.6,18.9l-19.7-3.7c-6,4.1-13.3,6.4-21.2,6.4
	c-21,0-38-17-38-38S60.9,41.9,81.9,41.9z"/>
<g class="st129">
	<path class="st128" d="M116.2,96.2c2.4-5,3.7-10.5,3.7-16.4c0-21-17-38-38-38c-0.1,0-0.2,0-0.3,0v76c0.1,0,0.2,0,0.3,0
		c7.8,0,15.1-2.4,21.2-6.4l19.7,3.7L116.2,96.2z"/>
</g>
<g>
	<defs>
		<path id="SVGID_94_" d="M131.5,6.6c0,0-10.8,50.6-10.8,72.1c0,6-1.4,11.7-3.8,16.8l6.8,19.5l-20.3-3.8c-6.2,4.2-13.7,6.6-21.7,6.6
			c-21.6,0-39-17.5-39-39c0-4.7-26.5-78.3-26.5-78.3h115.5L131.5,6.6z"/>
	</defs>
	<clipPath id="SVGID_2_">
		<use xlink:href="#SVGID_94_"  style="overflow:visible;"/>
	</clipPath>
	<g class="st2">
		<g>
			<g>
				<g>
					<g>
						<polygon class="st131" points="77,37.5 44.3,58.7 45.8,59.3 78.6,49.5 82.8,42 78.6,38.2 						"/>
					</g>
					<g>
						<polygon class="st117" points="44.3,49.7 39.7,56.1 44.3,58.7 77,48.8 81.3,41.3 77,37.5 						"/>
					</g>
					<polygon class="st0" points="77,48.8 78.6,49.5 82.8,42 81.3,41.3 					"/>
					<polygon class="st0" points="77,37.5 81.3,41.3 82.8,42 78.6,38.2 					"/>
				</g>
			</g>
			<g>
				<g>
					<g>
						<polygon class="st131" points="83.8,37.5 116.5,58.7 115,59.3 82.2,49.5 78,42 82.2,38.2 						"/>
					</g>
					<g>
						<polygon class="st132" points="116.5,49.7 121.1,56.1 116.5,58.7 83.8,48.8 79.5,41.3 83.8,37.5 						"/>
					</g>
					<polygon class="st0" points="83.8,48.8 82.2,49.5 78,42 79.5,41.3 					"/>
					<polygon class="st0" points="83.8,37.5 79.5,41.3 78,42 82.2,38.2 					"/>
				</g>
			</g>
		</g>
		<g>
			<polygon class="st0" points="80.4,143.7 74.8,142 72.4,19.7 80.4,16.3 			"/>
			<polygon class="st133" points="76.1,47.5 76.1,76.2 77.9,75.8 77.9,30.6 76.1,31.4 			"/>
			<polygon class="st4" points="80.4,143.7 86,142 88.4,19.7 80.4,16.3 			"/>
			<polygon class="st133" points="88.1,35.8 88.2,27.9 82.9,30.6 			"/>
		</g>
		<g>
			<g>
				<g>
					<polygon class="st131" points="124.1,1 82.9,30.6 84.7,31.4 126.1,16.1 131.5,6.6 126.1,1.8 					"/>
				</g>
				<g>
					<polygon class="st117" points="82.9,19.3 82.9,30.6 124.1,15.3 129.5,5.8 124.1,1 					"/>
				</g>
				<polygon class="st134" points="124.1,15.3 126.1,16.1 131.5,6.6 129.5,5.8 				"/>
				<polygon class="st135" points="124.1,1 129.5,5.8 131.5,6.6 126.1,1.8 				"/>
			</g>
			<g>
				<g>
					<polygon class="st131" points="36.7,1 77.9,30.6 76.1,31.4 34.7,16.1 29.4,6.6 34.7,1.8 					"/>
				</g>
				<g>
					<polygon class="st132" points="77.9,19.3 77.9,30.6 36.7,15.3 31.3,5.8 36.7,1 					"/>
				</g>
				<polygon class="st134" points="36.7,15.3 34.7,16.1 29.4,6.6 31.3,5.8 				"/>
				<polygon class="st135" points="36.7,1 31.3,5.8 29.4,6.6 34.7,1.8 				"/>
			</g>
		</g>
		<g>
			<g>
				<g>
					<polygon class="st131" points="36.7,20.6 77.9,46.8 76.1,47.5 34.7,35.1 29.4,25.9 34.7,21.1 					"/>
				</g>
				<g>
					<polygon class="st132" points="77.9,35.4 77.9,46.8 36.7,34.3 31.3,25.1 36.7,20.6 					"/>
				</g>
				<polygon class="st134" points="36.7,34.3 34.7,35.1 29.4,25.9 31.3,25.1 				"/>
				<polygon class="st135" points="36.7,20.6 31.3,25.1 29.4,25.9 34.7,21.1 				"/>
			</g>
		</g>
	</g>
</g>
<path class="st127" d="M34.5,73.5C18.2,73.5,5,86.7,5,103c0,4.5,1,8.8,2.9,12.7l-5.1,14.7l15.3-2.9c4.7,3.2,10.3,5,16.4,5
	c16.3,0,29.5-13.2,29.5-29.5S50.8,73.5,34.5,73.5z"/>
<path class="st105" d="M33.5,71.5C17.3,71.5,4.1,84.7,4.1,101c0,4.5,1,8.8,2.9,12.7l-5.1,14.7l15.3-2.9c4.7,3.2,10.3,5,16.4,5
	c16.3,0,29.5-13.2,29.5-29.5S49.8,71.5,33.5,71.5z"/>
<g>
	<path class="st0" d="M28.3,108.5V106c0-1.8,0.4-3.4,1.1-4.7c0.7-1.3,2-2.5,3.8-3.7c1.4-1,2.5-1.8,3.1-2.6c0.6-0.8,0.9-1.7,0.9-2.7
		c0-0.8-0.3-1.4-1-1.9c-0.7-0.5-1.6-0.7-2.6-0.7c-2.7,0-5.8,1-9.4,3l-3.7-7.7c4.4-2.7,9-4,13.8-4c4,0,7.1,0.9,9.3,2.8
		c2.3,1.8,3.4,4.4,3.4,7.6c0,2.3-0.5,4.3-1.5,5.9c-1,1.7-2.6,3.3-4.8,4.7c-1.9,1.3-3,2.2-3.5,2.8c-0.5,0.6-0.7,1.3-0.7,2.1v1.4H28.3
		z M27.2,118.4c0-1.7,0.5-3.1,1.4-4c0.9-0.9,2.3-1.4,4.2-1.4c1.8,0,3.1,0.5,4.1,1.4c0.9,1,1.4,2.3,1.4,4c0,1.7-0.5,3-1.5,4
		c-1,0.9-2.3,1.4-4,1.4c-1.8,0-3.1-0.5-4.1-1.4C27.7,121.4,27.2,120.1,27.2,118.4z"/>
</g>
<g class="st136">
	<path class="st4" d="M33.5,71.5C49.8,71.5,63,84.7,63,101c0,16.3-13.2,29.5-29.5,29.5c-0.1,0-0.2,0-0.3,0V71.5
		C33.3,71.5,33.4,71.5,33.5,71.5z"/>
</g>
</svg>
