<svg xmlns="http://www.w3.org/2000/svg" width="16.002" height="19.449" viewBox="0 0 16.002 19.449">
  <g id="Group_3549" data-name="Group 3549" transform="translate(-3.029)">
    <path id="Path_6990" data-name="Path 6990" d="M6.529,4.331V3.89a2.066,2.066,0,0,0,.856-1.712,2.178,2.178,0,1,0-3.5,1.712V18.127a1.311,1.311,0,0,0,1.322,1.323A1.275,1.275,0,0,0,6.49,18.127V15.17a.352.352,0,0,1,.039-.016V4.331Z" fill="#c71f25" opacity="0.803"/>
    <path id="Path_6991" data-name="Path 6991" d="M123.9,105.472c-.329,0-1.709.887-2.958.887-.94,0-1.98-.887-4.075-.887a9.782,9.782,0,0,0-3.681.92v8.5a1.372,1.372,0,0,0,.164-.052,9.4,9.4,0,0,1,3.713-.953c1.775,0,2.465.92,3.943.92a7.569,7.569,0,0,0,2.958-.756c.23-.1.427-.2.427-.427h0V105.9A.474.474,0,0,0,123.9,105.472Z" transform="translate(-105.364 -101.465)" fill="#c71f25"/>
  </g>
</svg>
