<?xml version="1.0" encoding="utf-8"?>
<!-- Generator: Adobe Illustrator 24.0.3, SVG Export Plug-In . SVG Version: 6.00 Build 0)  -->
<svg version="1.1" id="Layer_1" xmlns="http://www.w3.org/2000/svg" xmlns:xlink="http://www.w3.org/1999/xlink" x="0px" y="0px"
	 viewBox="0 0 132.9 132.9" style="enable-background:new 0 0 132.9 132.9;" xml:space="preserve">
<style type="text/css">
	.st0{fill:#FFFFFF;}
	.st1{fill:url(#XMLID_52_);}
	.st2{clip-path:url(#SVGID_2_);}
	.st3{fill:#757575;}
	.st4{fill:#F0F0F0;}
	.st5{fill:url(#SVGID_3_);}
	.st6{fill:url(#SVGID_4_);}
	.st7{fill:url(#SVGID_5_);}
	.st8{fill:url(#SVGID_6_);}
	.st9{fill:url(#SVGID_7_);}
	.st10{fill:url(#SVGID_8_);}
	.st11{fill:url(#SVGID_9_);}
	.st12{fill:url(#SVGID_10_);}
	.st13{fill:url(#SVGID_11_);}
	.st14{fill:url(#SVGID_12_);}
	.st15{fill:url(#SVGID_13_);}
	.st16{fill:url(#SVGID_14_);}
	.st17{fill:#5D5E60;}
	.st18{fill:url(#SVGID_15_);}
	.st19{fill:#E9EAEB;}
	.st20{fill:url(#SVGID_16_);}
	.st21{fill:url(#SVGID_17_);}
	.st22{fill:url(#SVGID_18_);}
	.st23{fill:url(#SVGID_19_);}
	.st24{fill:#737577;}
	.st25{fill:url(#SVGID_20_);}
	.st26{fill:url(#SVGID_21_);}
	.st27{fill:url(#SVGID_22_);}
	.st28{fill:url(#SVGID_23_);}
	.st29{fill:url(#SVGID_24_);}
	.st30{fill:url(#SVGID_25_);}
	.st31{fill:url(#SVGID_26_);}
	.st32{fill:url(#SVGID_27_);}
	.st33{fill:#DFE0E1;}
	.st34{fill:url(#SVGID_28_);}
	.st35{fill:url(#SVGID_29_);}
	.st36{fill:url(#SVGID_30_);}
	.st37{fill:url(#SVGID_31_);}
	.st38{fill:url(#SVGID_32_);}
	.st39{fill:url(#SVGID_33_);}
	.st40{fill:url(#SVGID_34_);}
	.st41{fill:url(#SVGID_35_);}
	.st42{fill:url(#SVGID_36_);}
	.st43{fill:url(#SVGID_37_);}
	.st44{fill:url(#SVGID_38_);}
	.st45{fill:url(#SVGID_39_);}
	.st46{fill:url(#SVGID_40_);}
	.st47{fill:url(#SVGID_41_);}
	.st48{fill:#D2D3D5;}
	.st49{fill:url(#SVGID_42_);}
	.st50{fill:url(#SVGID_43_);}
	.st51{fill:url(#XMLID_53_);}
	.st52{fill:url(#XMLID_54_);}
	.st53{fill:#656565;}
	.st54{fill:#5F5F5F;}
	.st55{clip-path:url(#SVGID_2_);fill:#0A90B7;}
	.st56{fill:#A8A8A8;}
	.st57{fill:#BABABA;}
	.st58{fill:url(#SVGID_44_);}
	.st59{fill:url(#SVGID_45_);}
	.st60{fill:url(#SVGID_46_);}
	.st61{fill:url(#SVGID_47_);}
	.st62{fill:url(#SVGID_48_);}
	.st63{fill:url(#SVGID_49_);}
	.st64{fill:url(#SVGID_50_);}
	.st65{fill:url(#SVGID_51_);}
	.st66{fill:url(#SVGID_52_);}
	.st67{fill:url(#SVGID_53_);}
	.st68{fill:url(#SVGID_54_);}
	.st69{fill:url(#SVGID_55_);}
	.st70{fill:url(#SVGID_56_);}
	.st71{fill:url(#SVGID_57_);}
	.st72{fill:url(#SVGID_58_);}
	.st73{fill:url(#SVGID_59_);}
	.st74{fill:url(#SVGID_60_);}
	.st75{fill:#E1E1E1;}
	.st76{fill:url(#SVGID_61_);}
	.st77{fill:url(#SVGID_62_);}
	.st78{fill:url(#SVGID_63_);}
	.st79{fill:url(#SVGID_64_);}
	.st80{fill:url(#SVGID_65_);}
	.st81{fill:url(#SVGID_66_);}
	.st82{fill:url(#SVGID_67_);}
	.st83{fill:url(#SVGID_68_);}
	.st84{fill:url(#SVGID_69_);}
	.st85{fill:url(#SVGID_70_);}
	.st86{fill:url(#SVGID_71_);}
	.st87{fill:url(#SVGID_72_);}
	.st88{fill:url(#SVGID_73_);}
	.st89{fill:url(#SVGID_74_);}
	.st90{fill:url(#SVGID_75_);}
	.st91{fill:url(#SVGID_76_);}
	.st92{fill:url(#SVGID_77_);}
	.st93{fill:url(#SVGID_78_);}
	.st94{fill:url(#SVGID_79_);}
	.st95{fill:url(#SVGID_80_);}
	.st96{fill:url(#SVGID_81_);}
	.st97{fill:url(#SVGID_82_);}
	.st98{fill:url(#SVGID_83_);}
	.st99{fill:url(#SVGID_84_);}
	.st100{fill:url(#SVGID_85_);}
	.st101{fill:url(#SVGID_86_);}
	.st102{fill:url(#SVGID_87_);}
	.st103{opacity:0.15;fill:#757575;}
	.st104{opacity:0.15;}
	.st105{fill:#0A90B7;}
	.st106{fill:url(#SVGID_88_);}
	.st107{fill:#53B1CD;}
	.st108{fill:#3BA6C5;}
	.st109{fill:#47ACC9;}
	.st110{fill:#2FA1C2;}
	.st111{fill:#1A4480;}
	.st112{fill:#162E51;}
	.st113{fill:url(#SVGID_89_);}
	.st114{fill:url(#SVGID_90_);}
	.st115{fill:url(#SVGID_91_);}
	.st116{fill:url(#SVGID_92_);}
	.st117{fill:#C81F25;}
	.st118{opacity:0.3;fill:#C81F25;}
	.st119{fill:#A00A0F;}
	.st120{opacity:0.23;fill:#0A90B7;}
	.st121{opacity:0.5;fill:#D9F1FD;}
	.st122{fill:#D9F1FD;}
	.st123{fill:#E2F4FD;}
	.st124{opacity:0.18;fill:#1A4480;}
	.st125{fill:#229BBE;}
	.st126{fill:url(#SVGID_93_);}
	.st127{fill:#ECEDEE;}
	.st128{fill:#C2E9F9;}
	.st129{opacity:0.66;}
	.st130{clip-path:url(#SVGID_95_);}
	.st131{fill:#981C20;}
	.st132{fill:#A33336;}
	.st133{fill:#D1D1D1;}
	.st134{fill:#E21E3E;}
	.st135{fill:#E74E44;}
	.st136{opacity:0.75;}
	.st137{opacity:0.71;clip-path:url(#SVGID_97_);fill:#D9F1FD;}
	.st138{clip-path:url(#SVGID_97_);}
	.st139{fill-rule:evenodd;clip-rule:evenodd;fill:#FFFFFF;}
	.st140{fill-rule:evenodd;clip-rule:evenodd;fill:#D9F1FD;}
	.st141{opacity:0.66;fill-rule:evenodd;clip-rule:evenodd;fill:#D9F1FD;}
	.st142{opacity:0.57;fill:#D9F1FD;}
	.st143{clip-path:url(#SVGID_99_);}
	.st144{fill:#3C6093;}
	.st145{opacity:0.58;fill:#1A4480;}
	.st146{fill:#DEF3FD;}
	.st147{opacity:0.45;fill:#D9F1FD;}
	.st148{opacity:0.81;fill:#D9F1FD;}
</style>
<g>
	<circle class="st0" cx="66.1" cy="65.6" r="64.8"/>
</g>
<g>
	<g>
		<defs>
			<path id="SVGID_96_" d="M130.9,65.7c0,35.8-29,64.8-64.8,64.8s-64.8-29-64.8-64.8c0-13.4,0-65,0-65h129.6
				C130.9,0.7,130.9,40.2,130.9,65.7z"/>
		</defs>
		<clipPath id="SVGID_2_">
			<use xlink:href="#SVGID_96_"  style="overflow:visible;"/>
		</clipPath>
		<polygon style="opacity:0.71;clip-path:url(#SVGID_2_);fill:#D9F1FD;" points="55,128.2 55,40.5 66.8,40.5 66.8,37.1 73.1,27 
			88.7,27 88.7,44 93.5,44 93.5,39.7 93.5,35.8 101,35.8 115.4,45.9 115.4,54.9 119,54.9 131.1,64.5 131.1,68.2 131.1,69.2 
			131.1,71.7 131.1,73.9 131.1,74.9 131.1,77.5 131.1,79.7 131.1,80.7 131.1,83.2 131.1,85.4 131.1,86.4 131.1,89 131.1,90.4 
			131.1,91.2 131.1,92.2 131.1,94.7 131.1,96.9 131.1,97.9 131.1,100.5 131.1,102.7 131.1,103.7 131.1,106.2 131.1,108.4 
			131.1,109.4 131.1,112 131.1,114.2 131.1,115.2 131.1,117.7 131.1,120 131.1,120.9 131.1,123.5 131.1,125.7 131.1,126.7 
			114.4,122 117,120.1 115.9,118.3 		"/>
		<g class="st2">
			<g>
				<polygon class="st139" points="56.4,150.6 28.2,150.6 28.2,20.3 56.4,20.3 56.4,150.6 				"/>
				<polygon class="st140" points="8.3,150.6 28.2,150.6 28.2,20.3 8.3,20.3 8.3,150.6 				"/>
				<polygon class="st141" points="8.3,150.6 28.2,150.6 28.2,20.3 8.3,20.3 8.3,150.6 				"/>
				<polygon class="st140" points="32.3,5.1 8.3,20.3 28.2,20.3 				"/>
				<polygon class="st140" points="32.3,5.1 8.3,20.3 28.2,20.3 				"/>
				<polygon class="st139" points="32.3,5.1 56.4,20.3 28.2,20.3 				"/>
				<path class="st122" d="M8.3,41.1h20v5.7h-20V41.1L8.3,41.1z M8.3,51.2v5.7h20v-5.7H8.3L8.3,51.2z M8.3,61.2v5.7h20v-5.7H8.3
					L8.3,61.2z M8.3,71.2v5.7h20v-5.7H8.3L8.3,71.2z M8.3,81.2v5.7h20v-5.7H8.3L8.3,81.2z M8.3,91.2v5.7h20v-5.7H8.3L8.3,91.2z
					 M8.3,101.3v5.7h20v-5.7H8.3L8.3,101.3z M8.3,111.3v5.7h20v-5.7H8.3L8.3,111.3z M28.2,20.3h-20V26h20V20.3L28.2,20.3z M8.3,31.1
					v5.7h20v-5.7H8.3L8.3,31.1z"/>
				<path class="st122" d="M8.3,41.1h20v5.7h-20V41.1L8.3,41.1z M8.3,51.2v5.7h20v-5.7H8.3L8.3,51.2z M8.3,61.2v5.7h20v-5.7H8.3
					L8.3,61.2z M8.3,71.2v5.7h20v-5.7H8.3L8.3,71.2z M8.3,81.2v5.7h20v-5.7H8.3L8.3,81.2z M8.3,91.2v5.7h20v-5.7H8.3L8.3,91.2z
					 M8.3,101.3v5.7h20v-5.7H8.3L8.3,101.3z M8.3,111.3v5.7h20v-5.7H8.3L8.3,111.3z M28.2,20.3h-20V26h20V20.3L28.2,20.3z M8.3,31.1
					v5.7h20v-5.7H8.3L8.3,31.1z"/>
				<path class="st142" d="M28.2,41.1h28.2v5.7H28.2V41.1L28.2,41.1z M28.2,51.2v5.7h28.2v-5.7H28.2L28.2,51.2z M28.2,61.2v5.7h28.2
					v-5.7H28.2L28.2,61.2z M28.2,71.2v5.7h28.2v-5.7H28.2L28.2,71.2z M28.2,81.2v5.7h28.2v-5.7H28.2L28.2,81.2z M28.2,91.2v5.7h28.2
					v-5.7H28.2L28.2,91.2z M28.2,101.3v5.7h28.2v-5.7H28.2L28.2,101.3z M28.2,111.3v5.7h28.2v-5.7H28.2L28.2,111.3z M28.2,121.3v5.7
					h28.2v-5.7H28.2L28.2,121.3z M28.2,31.1v5.7h28.2v-5.7H28.2L28.2,31.1z M56.4,26v-5.7H28.2V26H56.4L56.4,26z"/>
			</g>
		</g>
	</g>
</g>
<g>
	<defs>
		<path id="SVGID_98_" d="M130.9,130.4c0,0-29,0-64.8,0s-64.8-29-64.8-64.8c0-3.1,0-64.8,0-64.8h129.6V130.4z"/>
	</defs>
	<clipPath id="SVGID_3_">
		<use xlink:href="#SVGID_98_"  style="overflow:visible;"/>
	</clipPath>
	<g style="clip-path:url(#SVGID_3_);">
		<path class="st124" d="M33.7,73.8V78l-5.4,8.6v12c0,0,0,0,0,0h3.7c0.6,0,1.2-0.1,1.7-0.3v3.5v24.1h-5.3v7.6h5.3h46.8V72.7H33.7
			V73.8z"/>
		<rect x="30.1" y="68.8" class="st124" width="50.4" height="3.9"/>
	</g>
	<g style="clip-path:url(#SVGID_3_);">
		<rect x="38.5" y="69.4" class="st144" width="86.7" height="60.7"/>
		<rect x="36.3" y="65.5" class="st111" width="91.1" height="3.9"/>
		<rect x="35.2" y="122.5" class="st111" width="93.2" height="7.6"/>
		<rect x="38.5" y="69.4" class="st145" width="86.7" height="1.1"/>
		<rect x="71.9" y="92.2" class="st111" width="19.9" height="37.9"/>
		<g>
			<rect x="73.6" y="94.1" class="st112" width="16.5" height="36.1"/>
			
				<rect x="66.2" y="106.3" transform="matrix(-1.836970e-16 1 -1 -1.836970e-16 193.9471 30.2782)" class="st146" width="31.3" height="11.7"/>
			<g>
				<polygon class="st147" points="82.3,127.8 87.7,120.3 87.7,118 80.4,127.8 				"/>
				<polygon class="st147" points="76,121.9 87.7,108 87.7,96.4 86.9,96.4 76,112.7 				"/>
			</g>
			<rect x="75.1" y="112.1" class="st112" width="13.4" height="1.1"/>
		</g>
		<g>
			<g>
				<g>
					<rect x="41.1" y="87.2" class="st112" width="28.2" height="32.7"/>
				</g>
			</g>
			<g>
				<g>
					<rect x="42.2" y="88.3" class="st146" width="26" height="30.6"/>
				</g>
			</g>
			<g>
				<polygon class="st147" points="61.1,118.8 68.2,109.1 68.2,101.3 56.1,118.8 				"/>
				<polygon class="st147" points="42.2,111.7 59.1,88.3 57.1,88.3 42.2,109.3 				"/>
				<polygon class="st147" points="54.5,118.8 68.2,99.4 68.2,89.7 46.4,118.8 				"/>
			</g>
		</g>
		<g>
			<g>
				<rect x="94.4" y="87.2" class="st112" width="28.2" height="32.7"/>
			</g>
			<g>
				<rect x="95.5" y="88.3" class="st146" width="26" height="30.6"/>
			</g>
			<g>
				<polygon class="st147" points="115.9,118.8 121.5,112.1 121.5,100.1 108.5,118.8 				"/>
				<polygon class="st147" points="95.5,111.1 112,88.3 110,88.3 95.5,108.8 				"/>
				<polygon class="st147" points="115.1,88.3 95.5,114.8 95.5,118.8 97.2,118.8 120.2,88.3 				"/>
			</g>
		</g>
		<g>
			<path class="st148" d="M124.3,92.2h-0.2h-6.3h-0.2h-6.3h-0.2h-6.3h-0.2h-6.3h-0.2h-6.3h-0.2h-6.3h-0.2h-6.3h-0.2h-6.3h-0.2h-6.3
				h-0.2h-6.3h-0.2h-6.3h-0.2h-6.3h-0.2h-6.3h-0.2h-1.1v6.2c0.7-0.4,1.1-1.1,1.1-1.9l0,0v0c0,1.2,1,2.2,2.2,2.2h2.2
				c1.2,0,2.2-1,2.2-2.2c0,1.2,1,2.2,2.2,2.2h2.2c1.2,0,2.2-1,2.2-2.2c0,1.2,1,2.2,2.2,2.2h2.2c1.2,0,2.2-1,2.2-2.2
				c0,1.2,1,2.2,2.2,2.2h2.2c1.2,0,2.2-1,2.2-2.2c0,1.2,1,2.2,2.2,2.2h2.2c1.2,0,2.2-1,2.2-2.2c0,1.2,1,2.2,2.2,2.2h2.2
				c1.2,0,2.2-1,2.2-2.2c0,1.2,1,2.2,2.2,2.2h2.2c1.2,0,2.2-1,2.2-2.2c0,1.2,1,2.2,2.2,2.2h2.2c1.2,0,2.2-1,2.2-2.2
				c0,1.2,1,2.2,2.2,2.2h2.2c1.2,0,2.2-1,2.2-2.2c0,1.2,1,2.2,2.2,2.2h2.2c1.2,0,2.2-1,2.2-2.2c0,1.2,1,2.2,2.2,2.2h2.2
				c1.2,0,2.2-1,2.2-2.2c0,1.2,1,2.2,2.2,2.2h2.2c1.2,0,2.2-1,2.2-2.2c0,1.2,1,2.2,2.2,2.2h2.2c1.2,0,2.2-1,2.2-2.2
				c0,0.8,0.4,1.5,1.1,1.9v-6.2H124.3z"/>
			<g>
				<g>
					<polygon class="st117" points="130.6,88.7 33,88.7 38.5,74.6 125.2,74.6 					"/>
					<polygon class="st0" points="46.1,88.7 39.6,88.7 44.3,74.6 50,74.6 					"/>
					<polygon class="st0" points="59.1,88.7 52.6,88.7 55.8,74.6 61.6,74.6 					"/>
					<polygon class="st0" points="72.1,88.7 65.6,88.7 67.4,74.6 73.2,74.6 					"/>
					<polygon class="st0" points="85.1,88.7 78.6,88.7 78.9,74.6 84.7,74.6 					"/>
					<polygon class="st0" points="98.1,88.7 91.6,88.7 90.5,74.6 96.3,74.6 					"/>
					<polygon class="st0" points="111.1,88.7 104.6,88.7 102.1,74.6 107.9,74.6 					"/>
					<polygon class="st0" points="124.1,88.7 117.6,88.7 113.6,74.6 119.4,74.6 					"/>
				</g>
				<g>
					<path class="st4" d="M122.2,95.2h-2.6c-1.1,0-2-0.9-2-2v-4.5h6.5v4.5C124.1,94.3,123.2,95.2,122.2,95.2z"/>
					<path class="st119" d="M128.7,95.2h-2.6c-1.1,0-2-0.9-2-2v-4.5h6.5v4.5C130.6,94.3,129.7,95.2,128.7,95.2z"/>
					<path class="st4" d="M109.1,95.2h-2.6c-1.1,0-2-0.9-2-2v-4.5h6.5v4.5C111.1,94.3,110.2,95.2,109.1,95.2z"/>
					<path class="st119" d="M115.7,95.2h-2.6c-1.1,0-2-0.9-2-2v-4.5h6.5v4.5C117.6,94.3,116.7,95.2,115.7,95.2z"/>
					<path class="st4" d="M96.1,95.2h-2.6c-1.1,0-2-0.9-2-2v-4.5h6.5v4.5C98.1,94.3,97.2,95.2,96.1,95.2z"/>
					<path class="st119" d="M102.6,95.2h-2.6c-1.1,0-2-0.9-2-2v-4.5h6.5v4.5C104.6,94.3,103.7,95.2,102.6,95.2z"/>
					<path class="st4" d="M83.1,95.2h-2.6c-1.1,0-2-0.9-2-2v-4.5h6.5v4.5C85.1,94.3,84.2,95.2,83.1,95.2z"/>
					<path class="st119" d="M89.6,95.2H87c-1.1,0-2-0.9-2-2v-4.5h6.5v4.5C91.6,94.3,90.7,95.2,89.6,95.2z"/>
					<path class="st4" d="M70.1,95.2h-2.6c-1.1,0-2-0.9-2-2v-4.5h6.5v4.5C72.1,94.3,71.2,95.2,70.1,95.2z"/>
					<path class="st119" d="M76.6,95.2H74c-1.1,0-2-0.9-2-2v-4.5h6.5v4.5C78.6,94.3,77.7,95.2,76.6,95.2z"/>
					<path class="st4" d="M57.1,95.2h-2.6c-1.1,0-2-0.9-2-2v-4.5h6.5v4.5C59.1,94.3,58.2,95.2,57.1,95.2z"/>
					<path class="st119" d="M63.6,95.2H61c-1.1,0-2-0.9-2-2v-4.5h6.5v4.5C65.6,94.3,64.7,95.2,63.6,95.2z"/>
					<path class="st4" d="M44.1,95.2h-2.6c-1.1,0-2-0.9-2-2v-4.5h6.5v4.5C46.1,94.3,45.2,95.2,44.1,95.2z"/>
					<path class="st119" d="M50.6,95.2H48c-1.1,0-2-0.9-2-2v-4.5h6.5v4.5C52.6,94.3,51.7,95.2,50.6,95.2z"/>
					<path class="st119" d="M37.6,95.2H35c-1.1,0-2-0.9-2-2v-4.5h6.5v4.5C39.6,94.3,38.7,95.2,37.6,95.2z"/>
				</g>
			</g>
		</g>
	</g>
</g>
</svg>
