<?xml version="1.0" encoding="utf-8"?>
<!-- Generator: Adobe Illustrator 24.0.3, SVG Export Plug-In . SVG Version: 6.00 Build 0)  -->
<svg version="1.1" xmlns="http://www.w3.org/2000/svg" xmlns:xlink="http://www.w3.org/1999/xlink" x="0px" y="0px"
	 viewBox="0 0 129.6 129.6" style="enable-background:new 0 0 129.6 129.6;" xml:space="preserve">
<style type="text/css">
	.st0{display:none;}
	.st1{display:inline;fill:#F1F0F0;}
	.st2{fill:#FFFFFF;}
	.st3{fill:#D1D3D4;}
	.st4{fill:url(#XMLID_5_);}
	.st5{clip-path:url(#SVGID_2_);}
	.st6{fill:#757576;}
	.st7{fill:#F1F0F0;}
	.st8{fill:url(#SVGID_3_);}
	.st9{fill:url(#SVGID_4_);}
	.st10{fill:url(#SVGID_5_);}
	.st11{fill:url(#SVGID_6_);}
	.st12{fill:url(#SVGID_7_);}
	.st13{fill:url(#SVGID_8_);}
	.st14{fill:url(#SVGID_9_);}
	.st15{fill:url(#SVGID_10_);}
	.st16{fill:url(#SVGID_11_);}
	.st17{fill:url(#SVGID_12_);}
	.st18{fill:url(#SVGID_13_);}
	.st19{fill:url(#SVGID_14_);}
	.st20{fill:#5D5F61;}
	.st21{fill:url(#SVGID_15_);}
	.st22{fill:#E9EAEA;}
	.st23{fill:url(#SVGID_16_);}
	.st24{fill:url(#SVGID_17_);}
	.st25{fill:url(#SVGID_18_);}
	.st26{fill:url(#SVGID_19_);}
	.st27{fill:#747577;}
	.st28{fill:url(#SVGID_20_);}
	.st29{fill:url(#SVGID_21_);}
	.st30{fill:url(#SVGID_22_);}
	.st31{fill:url(#SVGID_23_);}
	.st32{fill:url(#SVGID_24_);}
	.st33{fill:url(#SVGID_25_);}
	.st34{fill:url(#SVGID_26_);}
	.st35{fill:url(#SVGID_27_);}
	.st36{fill:#DFE0E1;}
	.st37{fill:url(#SVGID_28_);}
	.st38{fill:url(#SVGID_29_);}
	.st39{fill:url(#SVGID_30_);}
	.st40{fill:url(#SVGID_31_);}
	.st41{fill:url(#SVGID_32_);}
	.st42{fill:url(#SVGID_33_);}
	.st43{fill:url(#SVGID_34_);}
	.st44{fill:url(#SVGID_35_);}
	.st45{fill:url(#SVGID_36_);}
	.st46{fill:url(#SVGID_37_);}
	.st47{fill:url(#SVGID_38_);}
	.st48{fill:url(#SVGID_39_);}
	.st49{fill:url(#SVGID_40_);}
	.st50{fill:url(#SVGID_41_);}
	.st51{fill:#D2D3D5;}
	.st52{fill:url(#SVGID_42_);}
	.st53{fill:url(#SVGID_43_);}
	.st54{fill:url(#XMLID_6_);}
	.st55{fill:url(#XMLID_7_);}
	.st56{fill:#5C5959;}
	.st57{fill:#585656;}
	.st58{clip-path:url(#SVGID_2_);fill:#0790B7;}
	.st59{fill:#9F9D9D;}
	.st60{fill:#AFADAD;}
	.st61{fill:url(#SVGID_44_);}
	.st62{fill:url(#SVGID_45_);}
	.st63{fill:url(#SVGID_46_);}
	.st64{fill:url(#SVGID_47_);}
	.st65{fill:url(#SVGID_48_);}
	.st66{fill:url(#SVGID_49_);}
	.st67{fill:url(#SVGID_50_);}
	.st68{fill:url(#SVGID_51_);}
	.st69{fill:url(#SVGID_52_);}
	.st70{fill:url(#SVGID_53_);}
	.st71{fill:url(#SVGID_54_);}
	.st72{fill:url(#SVGID_55_);}
	.st73{fill:url(#SVGID_56_);}
	.st74{fill:url(#SVGID_57_);}
	.st75{fill:url(#SVGID_58_);}
	.st76{fill:url(#SVGID_59_);}
	.st77{fill:url(#SVGID_60_);}
	.st78{fill:#D6D4D4;}
	.st79{fill:url(#SVGID_61_);}
	.st80{fill:url(#SVGID_62_);}
	.st81{fill:url(#SVGID_63_);}
	.st82{fill:url(#SVGID_64_);}
	.st83{fill:url(#SVGID_65_);}
	.st84{fill:url(#SVGID_66_);}
	.st85{fill:url(#SVGID_67_);}
	.st86{fill:url(#SVGID_68_);}
	.st87{fill:url(#SVGID_69_);}
	.st88{fill:url(#SVGID_70_);}
	.st89{fill:url(#SVGID_71_);}
	.st90{fill:url(#SVGID_72_);}
	.st91{fill:url(#SVGID_73_);}
	.st92{fill:url(#SVGID_74_);}
	.st93{fill:url(#SVGID_75_);}
	.st94{fill:url(#SVGID_76_);}
	.st95{fill:url(#SVGID_77_);}
	.st96{fill:url(#SVGID_78_);}
	.st97{fill:url(#SVGID_79_);}
	.st98{fill:url(#SVGID_80_);}
	.st99{fill:url(#SVGID_81_);}
	.st100{fill:url(#SVGID_82_);}
	.st101{fill:url(#SVGID_83_);}
	.st102{fill:url(#SVGID_84_);}
	.st103{fill:url(#SVGID_85_);}
	.st104{fill:url(#SVGID_86_);}
	.st105{fill:url(#SVGID_87_);}
	.st106{opacity:0.15;fill:#757576;}
	.st107{opacity:0.15;}
	.st108{fill:#0790B7;}
	.st109{fill:url(#SVGID_88_);}
	.st110{fill:#6EA9C8;}
	.st111{fill:#58A0C2;}
	.st112{fill:#63A5C5;}
	.st113{fill:#4B9CBF;}
	.st114{fill:#1A4580;}
	.st115{fill:#162E51;}
	.st116{fill:url(#SVGID_89_);}
	.st117{fill:url(#SVGID_90_);}
	.st118{fill:url(#SVGID_91_);}
	.st119{fill:url(#SVGID_92_);}
	.st120{fill:#C82127;}
	.st121{opacity:0.3;fill:#C82127;}
	.st122{fill:#9F1D20;}
	.st123{opacity:0.23;fill:#0790B7;}
	.st124{opacity:0.5;fill:#D9F1FD;}
	.st125{fill:#D9F1FD;}
	.st126{fill:#E2F4FD;}
	.st127{opacity:0.18;fill:#1A4580;}
	.st128{fill:#3D98BC;}
	.st129{fill:url(#SVGID_93_);}
	.st130{fill:#138CAA;}
	.st131{clip-path:url(#SVGID_95_);}
	.st132{fill:#991E21;}
	.st133{fill:#A1352C;}
	.st134{fill:#E2E2E2;}
	.st135{fill:#C6C4C4;}
	.st136{fill:#E21E3F;}
	.st137{fill:#E64E43;}
	.st138{fill:#5FA3C4;}
	.st139{opacity:0.71;clip-path:url(#SVGID_97_);fill:#94BCD4;}
	.st140{clip-path:url(#SVGID_97_);}
	.st141{fill-rule:evenodd;clip-rule:evenodd;fill:#509EC0;}
	.st142{fill-rule:evenodd;clip-rule:evenodd;fill:#D9F1FD;}
	.st143{fill-rule:evenodd;clip-rule:evenodd;fill:#0790B7;}
	.st144{fill-rule:evenodd;clip-rule:evenodd;fill:#94BCD4;}
	.st145{fill:#509EC0;}
	.st146{clip-path:url(#SVGID_99_);}
	.st147{fill:#0789A9;}
	.st148{fill:#3F578C;}
	.st149{opacity:0.58;fill:#1A4580;}
	.st150{fill:#DEF3FD;}
	.st151{opacity:0.34;fill:#AAE0F8;}
	.st152{opacity:0.17;fill:#757576;}
</style>
<g id="Layer_2" class="st0">
	<rect x="-195.3" y="-232.7" class="st1" width="958.6" height="621.8"/>
</g>
<g id="Layer_1">
	<g>
		<circle class="st2" cx="64.8" cy="64.8" r="64.8"/>
	</g>
	<g>
		<g>
			<defs>
				<path id="SVGID_96_" d="M129.6,64.9c0,35.8-29,64.8-64.8,64.8S0,100.7,0,64.9c0-13.4,0-65,0-65h129.6
					C129.6-0.1,129.6,39.4,129.6,64.9z"/>
			</defs>
			<clipPath id="SVGID_2_">
				<use xlink:href="#SVGID_96_"  style="overflow:visible;"/>
			</clipPath>
			<polygon style="opacity:0.71;clip-path:url(#SVGID_2_);fill:#94BCD4;" points="53.7,127.5 53.7,39.8 65.4,39.8 65.4,36.3 
				71.8,26.2 87.3,26.2 87.3,43.3 92.1,43.3 92.1,39 92.1,35 99.6,35 114,45.1 114,54.1 117.7,54.1 129.7,63.7 129.7,67.4 
				129.7,68.4 129.7,70.9 129.7,73.1 129.7,74.1 129.7,76.7 129.7,78.9 129.7,79.9 129.7,82.4 129.7,84.7 129.7,85.7 129.7,88.2 
				129.7,89.6 129.7,90.4 129.7,91.4 129.7,93.9 129.7,96.2 129.7,97.2 129.7,99.7 129.7,101.9 129.7,102.9 129.7,105.4 
				129.7,107.7 129.7,108.7 129.7,111.2 129.7,113.4 129.7,114.4 129.7,117 129.7,119.2 129.7,120.2 129.7,122.7 129.7,124.9 
				129.7,125.9 113,121.3 115.7,119.3 114.6,117.5 			"/>
			<g class="st5">
				<g>
					<polygon class="st141" points="55.1,149.8 26.9,149.8 26.9,19.5 55.1,19.5 55.1,149.8 					"/>
					<polygon class="st142" points="6.9,149.8 26.9,149.8 26.9,19.5 6.9,19.5 6.9,149.8 					"/>
					<polygon class="st143" points="6.9,149.8 26.9,149.8 26.9,19.5 6.9,19.5 6.9,149.8 					"/>
					<polygon class="st142" points="31,4.3 6.9,19.5 26.9,19.5 					"/>
					<polygon class="st143" points="31,4.3 6.9,19.5 26.9,19.5 					"/>
					<polygon class="st144" points="31,4.3 55.1,19.5 26.9,19.5 					"/>
					<path class="st145" d="M26.9,40.4h28.2V46H26.9V40.4L26.9,40.4z M26.9,50.4v5.7h28.2v-5.7H26.9L26.9,50.4z M26.9,60.4v5.7h28.2
						v-5.7H26.9L26.9,60.4z M26.9,70.4v5.7h28.2v-5.7H26.9L26.9,70.4z M26.9,80.4v5.7h28.2v-5.7H26.9L26.9,80.4z M26.9,90.5v5.7
						h28.2v-5.7H26.9L26.9,90.5z M26.9,100.5v5.7h28.2v-5.7H26.9L26.9,100.5z M26.9,110.5v5.7h28.2v-5.7H26.9L26.9,110.5z
						 M26.9,120.5v5.7h28.2v-5.7H26.9L26.9,120.5z M26.9,30.3V36h28.2v-5.7H26.9L26.9,30.3z M55.1,25.2v-5.7H26.9v5.7H55.1
						L55.1,25.2z"/>
				</g>
			</g>
		</g>
	</g>
	<g>
		<defs>
			<path id="SVGID_98_" d="M129.6,129.6c0,0-29,0-64.8,0S0,100.6,0,64.8C0,61.7,0,0,0,0h129.6V129.6z"/>
		</defs>
		<clipPath id="SVGID_3_">
			<use xlink:href="#SVGID_98_"  style="overflow:visible;"/>
		</clipPath>
		<g style="clip-path:url(#SVGID_3_);">
			<path class="st147" d="M32.3,73v4.2l-5.4,8.6v12c0,0,0,0,0,0h3.7c0.6,0,1.2-0.1,1.7-0.3v3.5v24.1H27v7.6h5.3h46.8V71.9H32.3V73z"
				/>
			<rect x="28.8" y="68" class="st147" width="50.4" height="3.9"/>
		</g>
		<g style="clip-path:url(#SVGID_3_);">
			<rect x="37.1" y="68.6" class="st148" width="86.7" height="60.7"/>
			<rect x="35" y="64.7" class="st114" width="91.1" height="3.9"/>
			<rect x="33.9" y="121.7" class="st114" width="93.2" height="7.6"/>
			<rect x="37.1" y="68.6" class="st149" width="86.7" height="1.1"/>
			<rect x="70.5" y="91.5" class="st114" width="19.9" height="37.9"/>
			<g>
				<rect x="72.3" y="93.3" class="st115" width="16.5" height="36.1"/>
				
					<rect x="64.8" y="105.5" transform="matrix(-1.836970e-16 1 -1 -1.836970e-16 191.8341 30.8416)" class="st150" width="31.3" height="11.7"/>
				<g>
					<polygon class="st151" points="81,127 86.4,119.6 86.4,117.3 79.1,127 					"/>
					<polygon class="st151" points="74.6,121.2 86.4,107.3 86.4,95.7 85.5,95.7 74.6,111.9 					"/>
				</g>
				<rect x="73.8" y="111.4" class="st115" width="13.4" height="1.1"/>
			</g>
			<g>
				<g>
					<g>
						<rect x="39.7" y="86.4" class="st115" width="28.2" height="32.7"/>
					</g>
				</g>
				<g>
					<g>
						<rect x="40.8" y="87.5" class="st125" width="26" height="30.6"/>
					</g>
				</g>
				<g>
					<polygon class="st151" points="59.7,118.1 66.8,108.4 66.8,100.5 54.8,118.1 					"/>
					<polygon class="st151" points="40.8,110.9 57.8,87.5 55.8,87.5 40.8,108.5 					"/>
					<polygon class="st151" points="53.2,118.1 66.8,98.6 66.8,88.9 45,118.1 					"/>
				</g>
			</g>
			<g>
				<g>
					<rect x="93.1" y="86.4" class="st115" width="28.2" height="32.7"/>
				</g>
				<g>
					<rect x="94.2" y="87.5" class="st125" width="26" height="30.6"/>
				</g>
				<g>
					<polygon class="st151" points="114.5,118.1 120.2,111.3 120.2,99.3 107.2,118.1 					"/>
					<polygon class="st151" points="94.2,110.3 110.6,87.5 108.7,87.5 94.2,108 					"/>
					<polygon class="st151" points="113.8,87.5 94.2,114.1 94.2,118.1 95.8,118.1 118.8,87.5 					"/>
				</g>
			</g>
			<g>
				<path class="st152" d="M123,91.5h-0.2h-6.3h-0.2H110h-0.2h-6.3h-0.2H97h-0.2h-6.3h-0.2H84h-0.2h-6.3h-0.2H71h-0.2h-6.3h-0.2H58
					h-0.2h-6.3h-0.2h-6.3h-0.2h-6.3h-0.2h-1.1v6.2c0.7-0.4,1.1-1.1,1.1-1.9l0,0v0c0,1.2,1,2.2,2.2,2.2h2.2c1.2,0,2.2-1,2.2-2.2
					c0,1.2,1,2.2,2.2,2.2h2.2c1.2,0,2.2-1,2.2-2.2c0,1.2,1,2.2,2.2,2.2h2.2c1.2,0,2.2-1,2.2-2.2c0,1.2,1,2.2,2.2,2.2h2.2
					c1.2,0,2.2-1,2.2-2.2c0,1.2,1,2.2,2.2,2.2h2.2c1.2,0,2.2-1,2.2-2.2c0,1.2,1,2.2,2.2,2.2h2.2c1.2,0,2.2-1,2.2-2.2
					c0,1.2,1,2.2,2.2,2.2h2.2c1.2,0,2.2-1,2.2-2.2c0,1.2,1,2.2,2.2,2.2h2.2c1.2,0,2.2-1,2.2-2.2c0,1.2,1,2.2,2.2,2.2h2.2
					c1.2,0,2.2-1,2.2-2.2c0,1.2,1,2.2,2.2,2.2h2.2c1.2,0,2.2-1,2.2-2.2c0,1.2,1,2.2,2.2,2.2h2.2c1.2,0,2.2-1,2.2-2.2
					c0,1.2,1,2.2,2.2,2.2h2.2c1.2,0,2.2-1,2.2-2.2c0,1.2,1,2.2,2.2,2.2h2.2c1.2,0,2.2-1,2.2-2.2c0,0.8,0.4,1.5,1.1,1.9v-6.2H123z"/>
				<g>
					<g>
						<polygon class="st120" points="129.3,87.9 31.7,87.9 37.1,73.8 123.9,73.8 						"/>
						<polygon class="st2" points="44.7,87.9 38.2,87.9 42.9,73.8 48.7,73.8 						"/>
						<polygon class="st2" points="57.7,87.9 51.2,87.9 54.5,73.8 60.3,73.8 						"/>
						<polygon class="st2" points="70.7,87.9 64.2,87.9 66,73.8 71.8,73.8 						"/>
						<polygon class="st2" points="83.7,87.9 77.2,87.9 77.6,73.8 83.4,73.8 						"/>
						<polygon class="st2" points="96.8,87.9 90.3,87.9 89.2,73.8 95,73.8 						"/>
						<polygon class="st2" points="109.8,87.9 103.3,87.9 100.7,73.8 106.5,73.8 						"/>
						<polygon class="st2" points="122.8,87.9 116.3,87.9 112.3,73.8 118.1,73.8 						"/>
					</g>
					<g>
						<path class="st7" d="M120.8,94.4h-2.6c-1.1,0-2-0.9-2-2v-4.5h6.5v4.5C122.8,93.6,121.9,94.4,120.8,94.4z"/>
						<path class="st122" d="M127.3,94.4h-2.6c-1.1,0-2-0.9-2-2v-4.5h6.5v4.5C129.3,93.6,128.4,94.4,127.3,94.4z"/>
						<path class="st7" d="M107.8,94.4h-2.6c-1.1,0-2-0.9-2-2v-4.5h6.5v4.5C109.8,93.6,108.9,94.4,107.8,94.4z"/>
						<path class="st122" d="M114.3,94.4h-2.6c-1.1,0-2-0.9-2-2v-4.5h6.5v4.5C116.3,93.6,115.4,94.4,114.3,94.4z"/>
						<path class="st7" d="M94.8,94.4h-2.6c-1.1,0-2-0.9-2-2v-4.5h6.5v4.5C96.8,93.6,95.9,94.4,94.8,94.4z"/>
						<path class="st122" d="M101.3,94.4h-2.6c-1.1,0-2-0.9-2-2v-4.5h6.5v4.5C103.3,93.6,102.4,94.4,101.3,94.4z"/>
						<path class="st7" d="M81.8,94.4h-2.6c-1.1,0-2-0.9-2-2v-4.5h6.5v4.5C83.7,93.6,82.9,94.4,81.8,94.4z"/>
						<path class="st122" d="M88.3,94.4h-2.6c-1.1,0-2-0.9-2-2v-4.5h6.5v4.5C90.3,93.6,89.4,94.4,88.3,94.4z"/>
						<path class="st7" d="M68.8,94.4h-2.6c-1.1,0-2-0.9-2-2v-4.5h6.5v4.5C70.7,93.6,69.9,94.4,68.8,94.4z"/>
						<path class="st122" d="M75.3,94.4h-2.6c-1.1,0-2-0.9-2-2v-4.5h6.5v4.5C77.2,93.6,76.4,94.4,75.3,94.4z"/>
						<path class="st7" d="M55.8,94.4h-2.6c-1.1,0-2-0.9-2-2v-4.5h6.5v4.5C57.7,93.6,56.9,94.4,55.8,94.4z"/>
						<path class="st122" d="M62.3,94.4h-2.6c-1.1,0-2-0.9-2-2v-4.5h6.5v4.5C64.2,93.6,63.4,94.4,62.3,94.4z"/>
						<path class="st7" d="M42.8,94.4h-2.6c-1.1,0-2-0.9-2-2v-4.5h6.5v4.5C44.7,93.6,43.8,94.4,42.8,94.4z"/>
						<path class="st122" d="M49.3,94.4h-2.6c-1.1,0-2-0.9-2-2v-4.5h6.5v4.5C51.2,93.6,50.3,94.4,49.3,94.4z"/>
						<path class="st122" d="M36.3,94.4h-2.6c-1.1,0-2-0.9-2-2v-4.5h6.5v4.5C38.2,93.6,37.3,94.4,36.3,94.4z"/>
					</g>
				</g>
			</g>
		</g>
	</g>
</g>
</svg>
