<svg xmlns="http://www.w3.org/2000/svg" width="129.81" height="129.59" viewBox="0 0 129.81 129.59"><circle cx="65.01" cy="64.79" r="64.79" fill="#d9f1fd"/><path d="M92.92,94l-2.31.37-1.08.88-7.66,4.93s-1.25.14-1.43.7S71,104,71,104l-1.84,1L51.79,90.52,60.6,71.26l11.76-2.19Z" fill="#0790b7"/><path d="M110.39,74.11c-.66-2-1.41-4-2.23-5.9a94.45,94.45,0,0,0-4.93-10,105.5,105.5,0,0,0-8.14-12.33l-.49-.63a.87.87,0,0,0-.12-.14.94.94,0,0,0-.09-.12c-1-1.31-2.28,0-3.5,0a34.53,34.53,0,0,1-6-1.88c-2.82-1-5.63-2-8.41-3.14-3.11-1.24-6.25-3.6-9.73-3.39a8.45,8.45,0,0,0-1.72.28l-.09,0c-2.84.73-5.58,2.56-8.22,3.62-5.16-.26-10.32-.53-15.48-.77A79.3,79.3,0,0,1,28.7,37.86h0c-.63-.15-1.21-.3-1.73-.45-2.06,5.72-8.84,24.24-12.89,32.71.19.14.43.31.72.49h0c2,1.3,5.94,3.55,7.86,5,0,.22,32.39,25.3,34.62,26.44.07,0,.11,0,.12,0l1.79,1.64c2.5,2.28,7,3,9.94,1.27a4,4,0,0,0,.43-.28A103.43,103.43,0,0,1,57,93.82c-.33-.3-1-1.54-.83-1.75s.66.33,1.48,1c1.48,1.16,3.68,3.08,4.87,4.22A67.87,67.87,0,0,0,71,104a16.21,16.21,0,0,0,4.74.58c1.68-.19,4.41-2,4.73-3.74a71.8,71.8,0,0,1-9.29-7.11C68.27,91,65.82,88.65,63,85.85c-.71-.7-1.11-1.67-1-1.9s2.59,1.57,3.11,2.08c2.17,2.12,4.34,4.23,6.55,6.33a40.2,40.2,0,0,0,3.72,3.43c2.07,1.53,4.31,2.9,6.44,4.35,3.08.53,7.8-1.19,7.66-4.93-4.21-3.72-8.24-7.47-12.09-11.56-1.8-1.93-3.59-3.86-5.37-5.81-.34-.37-2.63-2.75-2.3-3.21s2.77,1.7,3.24,2.21c1.83,2,3.67,4,5.52,6,3.84,4.08,7.87,7.81,12.08,11.53A4.77,4.77,0,0,0,92.92,94c2.85-1.14,5.19-4.61,3.84-7.41A1.32,1.32,0,0,0,97,86.4h0c1.07-.62,4.47-2.79,6.52-4.22,2.34-1.65,4.21-3.25,4.67-3.62C109.62,77.4,111,76,110.39,74.11Z" fill="#4e9dc0"/><path d="M60.5,38.93a85.4,85.4,0,0,1-8.81,3.39c-4.47.28-5.61,8-6.72,11.4a32.12,32.12,0,0,0-1.83,7.79C43,64.12,44.72,65,47.28,65c3.6,0,5.94-3,7.78-5.72a27.76,27.76,0,0,0,3.19-5.37L64,53.67h0c3.1,1.89,4.79,1.63,7.19,4.39,2.73,3.14,6.91,8.63,9.36,12A51.46,51.46,0,0,0,85.15,75c1.2,1.21,2.29,2.52,3.5,3.73,2.23,2.22,5.53,5.71,7.89,7.79a2,2,0,0,0,.53-.12c.37,0,7.17-4.58,8-5.23,0,0,15.35-10.15,16.53-12.09-3.4-10.51-12.32-21.19-19.18-29.83-.67.26-9.78,4.24-10.51,4.24-1.78,0-4.68.34-6.33-.22-2.79-1-5.57-2-8.32-3s-5.53-2.91-8.44-3.61-5.69,1.1-8.34,2.33C56,41,60.92,38.73,60.5,38.93Z" fill="#1a4580"/><path d="M56,97.44a9,9,0,0,0-4-2,1,1,0,0,1-.15.14c.79-1,.63-4.43-.51-5.6-1.29-1.74-4.86-2.25-6.56-1l-.6.55h0c.63-.86,1.09-2.7-.58-4.87a5.23,5.23,0,0,0-6.38-1.57l0,.14v.05s0,.11,0,.16l0,0c0-.06,0-.13,0-.19.45-3.68-3.65-7.32-7-5.82l-1.81,1.34-5.81-3.16c-.21,2.5-.71,7.18.4,9.5a15.1,15.1,0,0,0,1.42,2.74A7.88,7.88,0,0,0,29,90.39a7.71,7.71,0,0,0,6.13,6.48,3.07,3.07,0,0,0,1.33-.28,2.73,2.73,0,0,0,.24,2c1.1,2.25,3.87,5.39,7,3.86-1.11,2.88,4.34,6.71,7,4.73L56.6,103C58.19,101.83,57.3,98.55,56,97.44Z" fill="#1a4580"/><path d="M29.51,35.2s-1.82,8-15.49,37.07L4,69.68l16.23-38.1Z" fill="#fff"/><path d="M25.1,33.23S18.12,53,9.43,71.06L.59,68.49,17,30Z" fill="#bfbebe"/><path d="M25.54,30.21s-.37,1-1.05,2.77a2,2,0,0,1-.09.22C22,39.38,16.19,54.38,8.87,70.9c0,0,0,0,0,0l-1,2.36L.26,70.66Q0,67.77,0,64.8A64.52,64.52,0,0,1,14.24,24.27Z" fill="#162e51"/><path d="M100.06,38.12s1.83,8,15.5,37.07l10-2.59L109.31,34.51Z" fill="#fff"/><path d="M104.47,36.16s7,19.78,15.68,37.82L129,71.41,112.57,32.87Z" fill="#bfbebe"/><path d="M129.58,64.8a65.32,65.32,0,0,1-.61,8.9l-7.2,2.52-1-2.36s0,0,0,0L119.48,71c-3.48-8-6.59-15.46-9.08-21.65-2.34-5.8-4.15-10.45-5.22-13.27l-.09-.21c-.68-1.79-1-2.78-1-2.78l12.9-6.79A64.55,64.55,0,0,1,129.58,64.8Z" fill="#162e51"/></svg>