<svg xmlns="http://www.w3.org/2000/svg" width="1160.141" height="447.422" viewBox="0 0 1160.141 447.422">
  <g id="Group_3793" data-name="Group 3793" transform="translate(0 -5.825)">
    <g id="Layer_1" data-name="Layer 1">
      <path id="Path_7616" data-name="Path 7616" d="M933.075,138.408H654.6l13.825-36.852L654.6,64.613H933.075L946.9,101.556Z" fill="#1293c1"/>
      <path id="Path_7843" data-name="Path 7843" d="M279.217,137.8h-278V64h278l14.4,36.943Z" fill="#1293c1"/>
      <text id="Authorization_Process" data-name="Authorization Process" transform="translate(724.986 78.25)" fill="#fff" font-size="20.741" font-family="Montserrat-Regular, Montserrat" style="isolation: isolate"><tspan x="4.771" y="20">Authorization </tspan><tspan x="36.059" y="46.272">Process</tspan></text>
      <path id="Path_7616-2" data-name="Path 7616" d="M632.987,138.408H353.13l13.825-36.852L353.13,64.613H632.987l13.824,36.943Z" fill="#1293c1"/>
      <path id="Path_7621" data-name="Path 7621" d="M1135,68.673" fill="#1292c0"/>
      <text id="ConMon" transform="translate(1085.595 107.729)" fill="#1294c2" font-size="20.741" font-family="Montserrat-Regular, Montserrat" style="isolation: isolate"><tspan x="-43.37" y="0">ConMon</tspan></text>
      <g id="Group_3628" data-name="Group 3628">
        <path id="Path_7622" data-name="Path 7622" d="M1015.076,133.444h-3.5l1.319-3.245,9.013-26.386,1.075-2.654L1021.91,98.5l-9.026-26.479-1.311-3.244h26.678V64.061h-33.683l12.959,36.209.357.885-.358.885-12.954,36.121h93.121v6.706l12.043-8.946-12.043-8.942v6.468h-82.617Z" fill="#1292c0"/>
        <path id="Path_7623" data-name="Path 7623" d="M1097.693,131.085v-4.106l12.042,8.945-12.042,8.946v-6.705h-93.121l12.954-36.122.358-.879-.357-.886-12.959-36.209h33.683v4.709h-26.686l1.31,3.243L1021.9,98.5l1.074,2.655-1.076,2.658-9.014,26.386-1.319,3.245h86.127Z" fill="#1292c0"/>
        <path id="Path_7624" data-name="Path 7624" d="M1145.725,64.061h-80.811V57.545l-12.042,8.945,12.042,8.946V68.779h77.724l.619,1.414,11.322,30.01.414.948-.415.946-11.315,29.934-.619,1.411h-18.287v4.719h21.369l14.414-37.008Z" fill="#1292c0"/>
        <path id="Path_7625" data-name="Path 7625" d="M1145.726,138.162h-21.369v-4.718h18.286l.618-1.413,11.313-29.934.415-.946-.415-.948-11.322-30.011-.618-1.414h-77.72v6.657l-12.042-8.946,12.042-8.945v6.515h80.81l14.417,37.093Z" fill="#1292c0"/>
      </g>
      <line id="Line_227" data-name="Line 227" y1="13.397" transform="translate(975.43 53.645)" fill="none" stroke="#cc1d1d" stroke-miterlimit="10" stroke-width="1.383"/>
      <line id="Line_228" data-name="Line 228" y1="13.397" transform="translate(320.776 53.645)" fill="none" stroke="#cc1d1d" stroke-miterlimit="10" stroke-width="1.383"/>
      <g id="Group_3777" data-name="Group 3777">
        <path id="Path_8001" data-name="Path 8001" d="M994.523,110.558c.77-1.33-.582-3.579-.176-5.1.392-1.468,2.7-2.736,2.7-4.329s-2.307-2.86-2.7-4.328c-.406-1.52.946-3.769.176-5.1-.781-1.349-3.412-1.3-4.507-2.393s-1.043-3.726-2.392-4.507c-1.331-.77-3.58.582-5.1.176-1.468-.392-2.736-2.7-4.328-2.7s-2.861,2.308-4.329,2.7c-1.519.406-3.769-.946-5.1-.176-1.349.78-1.3,3.411-2.393,4.506s-3.726,1.044-4.507,2.393c-.769,1.331.583,3.58.176,5.1-.392,1.468-2.7,2.736-2.7,4.328s2.307,2.86,2.7,4.329c.407,1.519-.946,3.768-.176,5.1.781,1.349,3.412,1.3,4.507,2.392.716.717.947,2.085,1.4,3.168l-6.049,12.6,8.1-1.967,4.2,7.2,4.17-11.18,4.169,11.18,4.2-7.2,8.1,1.967-6.049-12.605c.448-1.082.679-2.45,1.4-3.166C991.111,111.856,993.742,111.908,994.523,110.558Z" fill="#ccecfc" style="mix-blend-mode: multiply;isolation: isolate"/>
        <g id="Group_3776" data-name="Group 3776">
          <g id="Group_3774" data-name="Group 3774">
            <path id="Path_8002" data-name="Path 8002" d="M971.261,131.346l-4.2-7.2-8.1,1.967,10.9-22.716,10.207,4.342Z" fill="#a00a0f"/>
            <path id="Path_8003" data-name="Path 8003" d="M979.6,131.346l4.2-7.2,8.1,1.967L981,103.4,970.8,107.737Z" fill="#a00a0f"/>
          </g>
          <path id="Path_8004" data-name="Path 8004" d="M994.281,98.52c0,1.592-2.307,2.86-2.7,4.329-.406,1.519.946,3.768.176,5.1-.78,1.349-3.411,1.3-4.507,2.392s-1.043,3.727-2.393,4.507c-1.33.77-3.579-.582-5.1-.176-1.469.392-2.737,2.7-4.329,2.7s-2.86-2.307-4.329-2.7c-1.519-.406-3.769.946-5.1.176-1.349-.781-1.3-3.412-2.393-4.507s-3.726-1.044-4.506-2.393c-.77-1.33.582-3.579.176-5.1-.393-1.468-2.7-2.736-2.7-4.328s2.307-2.861,2.7-4.329c.406-1.52-.946-3.769-.176-5.1.781-1.35,3.412-1.3,4.507-2.393s1.043-3.726,2.393-4.507c1.33-.77,3.579.583,5.1.176,1.469-.392,2.737-2.7,4.329-2.7s2.86,2.307,4.329,2.7c1.519.406,3.769-.946,5.1-.177,1.349.781,1.3,3.412,2.393,4.507s3.726,1.044,4.507,2.393c.769,1.331-.583,3.58-.177,5.1C991.974,95.66,994.281,96.927,994.281,98.52Z" fill="#cc1d1d"/>
          <g id="Group_3775" data-name="Group 3775">
            <path id="Path_8005" data-name="Path 8005" d="M987.647,98.521A12.217,12.217,0,1,1,975.429,86.3a12.217,12.217,0,0,1,12.218,12.219" fill="#eff9fe"/>
            <path id="Path_8006" data-name="Path 8006" d="M985.479,98.521a10.051,10.051,0,1,1-10.05-10.051,10.051,10.051,0,0,1,10.05,10.051" fill="#fff"/>
          </g>
        </g>
      </g>
    </g>
    <g id="Layer_3" data-name="Layer 3">
      <text id="Continuous_Monitoring" data-name="Continuous
Monitoring" transform="translate(1044.016 201.399)" fill="#444" font-size="16.593" font-family="Muli-Regular, Muli"><tspan x="0" y="17">Continuous</tspan><tspan x="0" y="36.911">Monitoring</tspan></text>
      <text id="Monthly_Continuous_Monitoring_deliverables" data-name="Monthly Continuous Monitoring deliverables" transform="translate(1044.016 258.795)" fill="#444" font-size="16.593" font-family="Muli-Regular, Muli"><tspan x="0" y="17">Monthly </tspan><tspan x="0" y="36.911">Continuous </tspan><tspan x="0" y="56.823">Monitoring </tspan><tspan x="0" y="76.734">deliverables</tspan></text>
      <text id="ATO" transform="translate(975.428 44.262)" fill="#cc1d1d" font-size="17.976" font-family="Montserrat-SemiBold, Montserrat" font-weight="600"><tspan x="-18.47" y="0">ATO</tspan></text>
      <g id="Group_3780" data-name="Group 3780">
        <circle id="Ellipse_650" data-name="Ellipse 650" cx="12.129" cy="12.129" r="12.129" transform="translate(1005.169 263.583)" fill="#1294c2"/>
        <g id="Group_3778" data-name="Group 3778" opacity="0.5" style="mix-blend-mode: multiply;isolation: isolate">
          <path id="Path_8007" data-name="Path 8007" d="M1018.357,287.142l-8.562.006-.1-21.389,16.882-.009.1,12.917Z" fill="#1294c2"/>
        </g>
        <g id="Group_3779" data-name="Group 3779">
          <path id="Path_8008" data-name="Path 8008" d="M1017.3,286.153l-8.562.006-.1-21.389,16.882-.009.1,12.917Z" fill="#fff"/>
        </g>
        <path id="Path_8009" data-name="Path 8009" d="M1017.3,277.682l8.32,0-8.317,8.476Z" fill="#cc1d1d"/>
      </g>
      <g id="Group_3783" data-name="Group 3783">
        <circle id="Ellipse_651" data-name="Ellipse 651" cx="12.129" cy="12.129" r="12.129" transform="translate(18.84 202.03)" fill="#1294c2"/>
        <g id="Group_3781" data-name="Group 3781" opacity="0.5" style="mix-blend-mode: multiply;isolation: isolate">
          <path id="Path_8010" data-name="Path 8010" d="M32.029,225.588l-8.562.006-.1-21.389,16.882-.009.1,12.917Z" fill="#1294c2"/>
        </g>
        <g id="Group_3782" data-name="Group 3782">
          <path id="Path_8011" data-name="Path 8011" d="M30.973,224.6l-8.562.006-.1-21.389,16.882-.009.1,12.917Z" fill="#fff"/>
        </g>
        <path id="Path_8012" data-name="Path 8012" d="M30.97,216.129l8.32,0L30.973,224.6Z" fill="#cc1d1d"/>
      </g>
      <g id="Group_3786" data-name="Group 3786">
        <circle id="Ellipse_652" data-name="Ellipse 652" cx="12.129" cy="12.129" r="12.129" transform="translate(18.84 263.331)" fill="#1294c2"/>
        <g id="Group_3784" data-name="Group 3784" opacity="0.5" style="mix-blend-mode: multiply;isolation: isolate">
          <path id="Path_8013" data-name="Path 8013" d="M32.029,286.889l-8.562.006-.1-21.389,16.882-.009.1,12.917Z" fill="#1294c2"/>
        </g>
        <g id="Group_3785" data-name="Group 3785">
          <path id="Path_8014" data-name="Path 8014" d="M30.973,285.9l-8.562.006-.1-21.389,16.882-.009.1,12.917Z" fill="#fff"/>
        </g>
        <path id="Path_8015" data-name="Path 8015" d="M30.97,277.43l8.32,0L30.973,285.9Z" fill="#cc1d1d"/>
      </g>
      <path id="Path_8016" data-name="Path 8016" d="M1021.164,214.642v-5.837h-7.732v5.837h-4.548l8.414,12.569,8.414-12.569Z" fill="#1294c2"/>
      <rect id="Rectangle_2466" data-name="Rectangle 2466" width="102.98" height="24.225" transform="translate(1034.105 154.052)" fill="#ccecfc"/>
      <rect id="Rectangle_2467" data-name="Rectangle 2467" width="112.002" height="24.225" transform="translate(743.633 154.052)" fill="#ccecfc"/>
      <rect id="Rectangle_2468" data-name="Rectangle 2468" width="112.002" height="24.225" transform="translate(443.033 154.052)" fill="#ccecfc"/>
      <rect id="Rectangle_2469" data-name="Rectangle 2469" width="232.3" height="24.225" transform="translate(26.218 154.052)" fill="#ccecfc"/>
      <text id="Kick-Off_1_week_" data-name="Kick-Off  (~1 week)" transform="translate(707.292 219.735)" fill="#444" font-size="16.593" font-family="Muli-Regular, Muli"><tspan x="0" y="0">Kick-Off </tspan><tspan y="0" xml:space="preserve" font-family="Muli-Italic, Muli" font-style="italic"> (~1 week)</tspan></text>
      <text id="Remediation_3_weeks_" data-name="Remediation  (~3 weeks)" transform="translate(707.293 305.237)" fill="#444" font-size="16.593" font-family="Muli-Regular, Muli"><tspan x="0" y="0" xml:space="preserve">Remediation  </tspan><tspan y="0" font-family="Muli-Italic, Muli" font-style="italic">(~3 weeks)</tspan></text>
      <text id="Review_3-4_weeks_" data-name="Review  (~3-4 weeks)" transform="translate(707.292 265.935)" fill="#444" font-size="16.593" font-family="Muli-Regular, Muli"><tspan x="0" y="0" xml:space="preserve">Review  </tspan><tspan y="0" font-family="Muli-Italic, Muli" font-style="italic">(~3-4 weeks)</tspan></text>
      <path id="Path_8017" data-name="Path 8017" d="M680.908,293.192v-5.837h-7.732v5.837h-4.548l8.414,12.569,8.414-12.569Z" fill="#1294c2"/>
      <text id="Final_Review_4_weeks_" data-name="Final Review  (~4 weeks)" transform="translate(707.293 342.106)" fill="#444" font-size="16.593" font-family="Muli-Regular, Muli"><tspan x="0" y="0" xml:space="preserve">Final Review  </tspan><tspan y="0" font-family="Muli-Italic, Muli" font-style="italic">(~4 weeks)</tspan></text>
      <path id="Path_8018" data-name="Path 8018" d="M680.908,330.061v-5.837h-7.732v5.837h-4.548l8.414,12.569,8.414-12.569Z" fill="#1294c2"/>
      <path id="Path_8019" data-name="Path 8019" d="M680.908,253.449v-5.837h-7.732v5.837h-4.548l8.414,12.569,8.414-12.569Z" fill="#1294c2"/>
      <path id="Path_8020" data-name="Path 8020" d="M672.885,225.059" fill="none" stroke="#0d3751" stroke-linecap="round" stroke-linejoin="round" stroke-width="0.139"/>
      <path id="Path_8021" data-name="Path 8021" d="M672.885,227.15" fill="none" stroke="#0d3751" stroke-linecap="round" stroke-linejoin="round" stroke-width="0.139"/>
      <path id="Path_8022" data-name="Path 8022" d="M672.885,228.24" fill="none" stroke="#0d3751" stroke-linecap="round" stroke-linejoin="round" stroke-width="0.139"/>
      <ellipse id="Ellipse_653" data-name="Ellipse 653" cx="10.074" cy="2.742" rx="10.074" ry="2.742" transform="translate(666.96 226.611)" fill="#ccecfc" opacity="0.6" style="mix-blend-mode: multiply;isolation: isolate"/>
      <path id="Path_8023" data-name="Path 8023" d="M677.525,229.353c.3-8.561,8.5-10.681,8.5-17.678a8.988,8.988,0,1,0-17.952.641c.48,6.494,8.184,8.743,8.473,17.037" fill="#cc1d1d"/>
      <path id="Path_8024" data-name="Path 8024" d="M675.613,211.784a2.727,2.727,0,1,1-2.728-2.727A2.727,2.727,0,0,1,675.613,211.784Z" fill="#fff"/>
      <text id="note:_During_the_authorization_process_a_CSP_must_be_prioritized_by_the_JAB_before_entering_the_JAB_P-ATO_process._The_CSP_can_obtain_FedRAMP_Ready_status_either_before_or_after_the_JAB_s_prioritization" data-name="note: During the authorization process a CSP must be prioritized by the JAB before entering the JAB P-ATO process. The CSP can obtain FedRAMP Ready status either before or after the JAB’s prioritization" transform="translate(0 397.247)" fill="#444" font-size="15.21" font-family="Muli-LightItalic, Muli" font-weight="300" font-style="italic"><tspan x="0" y="15">note: During the authorization process a CSP must be prioritized by the JAB before entering the JAB P-ATO process. </tspan><tspan x="0" y="39.889">The CSP can obtain FedRAMP Ready status either before or after the JAB’s prioritization</tspan></text>
      <text id="FedRAMP_Connect_Business_Case" data-name="FedRAMP Connect 
Business Case" transform="translate(59.832 279.124)" fill="#444" font-size="16.593" font-family="Muli-Regular, Muli"><tspan x="0" y="0">FedRAMP Connect </tspan><tspan x="0" y="19.911">Business Case</tspan></text>
      <text id="Security_Authorization_Package_SSP_SAP_SAR_POA_M_" data-name="Security Authorization Package
(SSP, SAP, SAR, POA&amp;M)
" transform="translate(402.416 200.744)" fill="#444" font-size="16.593" font-family="Muli-Regular, Muli"><tspan x="0" y="17">Security Authorization </tspan><tspan x="0" y="36.911">Package</tspan><tspan font-family="Muli-Italic, Muli" font-style="italic"><tspan x="0" y="56.823">(SSP, SAP, SAR, POA&amp;M)</tspan></tspan></text>
      <text id="FedRAMP_Ready_and_Prioritized_for_JAB" data-name="FedRAMP Ready and
Prioritized for JAB" transform="translate(214.732 5.825)" fill="#cc1d1d" font-size="17.976" font-family="Montserrat-SemiBold, Montserrat" font-weight="600"><tspan x="11.105" y="17">FedRAMP Ready and</tspan><tspan x="23.688" y="38.571">Prioritized for JAB</tspan></text>
      <text id="Readiness_Assessment_FedRAMP_Connect" data-name="Readiness Assessment &amp; FedRAMP Connect" transform="translate(14.997 74.473)" fill="#fff" font-size="20.741" font-family="Montserrat-Regular, Montserrat"><tspan x="2.572" y="20">Readiness Assessment &amp; </tspan><tspan x="30.655" y="46.272">FedRAMP Connect</tspan></text>
      <text id="duration_is_CSP_dependent" data-name="duration is CSP dependent" transform="translate(40.399 171.372)" fill="#757575" font-size="16.593" font-family="Muli-Italic, Muli" font-style="italic"><tspan x="0" y="0">duration is CSP dependent</tspan></text>
      <text id="_4_weeks" data-name="~4 weeks" transform="translate(462.415 171.372)" fill="#757575" font-size="16.593" font-family="Muli-Italic, Muli" font-style="italic"><tspan x="0" y="0">~4 weeks</tspan></text>
      <text id="_12_weeks" data-name="~12 weeks" transform="translate(758.037 171.372)" fill="#757575" font-size="16.593" font-family="Muli-Italic, Muli" font-style="italic"><tspan x="0" y="0">~12 weeks</tspan></text>
      <text id="ongoing" transform="translate(1054.401 171.372)" fill="#757575" font-size="16.593" font-family="Muli-Italic, Muli" font-style="italic"><tspan x="0" y="0">ongoing</tspan></text>
      <text id="Readiness_Assessment_Report" data-name="Readiness Assessment 
Report" transform="translate(59.832 219.737)" fill="#444" font-size="16.593" font-family="Muli-Regular, Muli"><tspan x="0" y="0">Readiness Assessment </tspan><tspan x="0" y="19.911">Report</tspan></text>
      <g id="Group_3789" data-name="Group 3789">
        <circle id="Ellipse_654" data-name="Ellipse 654" cx="12.129" cy="12.129" r="12.129" transform="translate(357.276 202.03)" fill="#1294c2"/>
        <g id="Group_3787" data-name="Group 3787" opacity="0.5" style="mix-blend-mode: multiply;isolation: isolate">
          <path id="Path_8025" data-name="Path 8025" d="M370.465,225.588l-8.562.006-.1-21.389,16.882-.009.1,12.917Z" fill="#1294c2"/>
        </g>
        <g id="Group_3788" data-name="Group 3788">
          <path id="Path_8026" data-name="Path 8026" d="M369.41,224.6l-8.562.006-.1-21.389,16.882-.009.1,12.917Z" fill="#fff"/>
        </g>
        <path id="Path_8027" data-name="Path 8027" d="M369.406,216.129l8.32,0L369.41,224.6Z" fill="#cc1d1d"/>
      </g>
      <ellipse id="Ellipse_655" data-name="Ellipse 655" cx="22.918" cy="9.209" rx="22.918" ry="9.209" transform="translate(298.791 111.539)" fill="#ccecfc"/>
      <path id="Path_8028" data-name="Path 8028" d="M335.406,120.878c-.823-2.77-7.841-4.779-15.675-4.488s-13.516,2.772-12.693,5.542,7.842,4.779,15.675,4.488S336.229,123.648,335.406,120.878Zm-5.719-1.226-9.85,4.274a1.065,1.065,0,0,1-.648.016l-6.884-2.235c-.192-.062-.2-.169-.029-.237l2.118-.815a1.173,1.173,0,0,1,.67-.011l3.7,1.2a1.068,1.068,0,0,0,.649-.016l7.116-3.088a1.163,1.163,0,0,1,.667-.024l2.428.7C329.821,119.474,329.852,119.58,329.687,119.652Z" fill="#1a4480" style="mix-blend-mode: multiply;isolation: isolate"/>
      <g id="Group_3791" data-name="Group 3791">
        <path id="Path_8029" data-name="Path 8029" d="M339.5,109.727l-33.343-3.145,4.7-4.6a2.391,2.391,0,0,1,1.9-.673l21.257,2.005a2.392,2.392,0,0,1,1.739,1.016Z" fill="#1294c2"/>
        <path id="Path_8030" data-name="Path 8030" d="M339.5,109.727l-33.343-3.145,4.7-4.6a2.391,2.391,0,0,1,1.9-.673l21.257,2.005a2.392,2.392,0,0,1,1.739,1.016Z" fill="#1294c2" opacity="0.52" style="mix-blend-mode: multiply;isolation: isolate"/>
        <path id="Path_8031" data-name="Path 8031" d="M323.82,105.539c.172,0,13.686,1.291,13.686,1.291l-1.184-1.676-9.67-.912Z" fill="#1294c2" opacity="0.82" style="mix-blend-mode: multiply;isolation: isolate"/>
        <g id="Group_3790" data-name="Group 3790">
          <path id="Path_8032" data-name="Path 8032" d="M331.115,90.764a13.866,13.866,0,0,0-3.645,8.216l-.535,5.668c-.049.521-1.129.867-2.6.895a10.7,10.7,0,0,1-1.255-.05,11.4,11.4,0,0,1-1.2-.177,7.617,7.617,0,0,1-1.236-.357c-.761-.289-1.225-.655-1.191-1.017l.562-5.965a13.642,13.642,0,0,0-2.113-8.515,8.39,8.39,0,0,1,2.125-11.18,7.655,7.655,0,0,1,.913-.583c.088-.051.18-.1.272-.145h.005a8.323,8.323,0,0,1,5.542-.733c.1.018.19.041.28.063a8.129,8.129,0,0,1,3.1,1.511c.082.059.163.126.245.194a7.891,7.891,0,0,1,.783.748,8.369,8.369,0,0,1-.053,11.426Z" fill="#1294c2"/>
        </g>
        <rect id="Rectangle_2470" data-name="Rectangle 2470" width="33.491" height="6.646" transform="translate(306.158 106.582) rotate(5.387)" fill="#1294c2"/>
        <ellipse id="Ellipse_656" data-name="Ellipse 656" cx="3.274" cy="1.235" rx="3.274" ry="1.235" transform="translate(317.861 87.364) rotate(-84.613)" fill="#dff3fd"/>
        <path id="Path_8033" data-name="Path 8033" d="M322.772,95.847l-.893,9.469a7.617,7.617,0,0,1-1.236-.357l.871-9.231a.632.632,0,1,1,1.258.119Z" fill="#dff3fd"/>
        <path id="Rectangle_2471" data-name="Rectangle 2471" d="M.8,0h0a.8.8,0,0,1,.8.8v4.48a0,0,0,0,1,0,0H0a0,0,0,0,1,0,0V.8A.8.8,0,0,1,.8,0Z" transform="translate(306.878 107.787) rotate(5.387)" fill="#dff3fd"/>
        <rect id="Rectangle_2472" data-name="Rectangle 2472" width="34.674" height="2.647" rx="0.577" transform="translate(305.005 112.509) rotate(5.387)" fill="#cc1d1d"/>
        <path id="Path_8034" data-name="Path 8034" d="M330.14,78.4c-.372.57-2.291.855-4.565.64s-4.105-.853-4.359-1.481a8.323,8.323,0,0,1,5.542-.733A8.088,8.088,0,0,1,330.14,78.4Z" fill="#fff"/>
        <path id="Path_8035" data-name="Path 8035" d="M331.115,90.764a13.866,13.866,0,0,0-3.645,8.216l-.535,5.668c-.031.329-.475.587-1.168.743l.548-5.818a21.012,21.012,0,0,1,2.892-9.077,12.849,12.849,0,0,0,1.833-6.325,11.456,11.456,0,0,0-1.384-6.12c0-.005-.005-.005,0-.01.169.113.329.23.488.355.082.059.163.126.245.194a7.891,7.891,0,0,1,.783.748,8.369,8.369,0,0,1-.053,11.426Z" fill="#ccecfc" opacity="0.6" style="mix-blend-mode: multiply;isolation: isolate"/>
      </g>
      <g id="Group_3792" data-name="Group 3792">
        <path id="Path_8036" data-name="Path 8036" d="M970.027,101.962h.907l.907,0V101.8l-.076-.086a.077.077,0,0,0,.025-.056v-.022a.08.08,0,0,0-.082-.078h-.083v-4.73l.071-.048v-.1h-.072v-.193l.136-.163v-.118l-.826,0-.827,0v.117l.137.162v.193h-.073v.1l.072.048v4.724h-.084a.079.079,0,0,0-.081.077v.022a.073.073,0,0,0,.025.056l-.076.086Z" fill="#cc1d1d"/>
        <path id="Path_8037" data-name="Path 8037" d="M972.275,101.966h1.814v-.161l-.076-.086a.081.081,0,0,0,.025-.057v-.021a.08.08,0,0,0-.082-.078h-.083v-4.74l.071-.048v-.1h-.072v-.193l.136-.164v-.118l-.826,0-.827,0v.118l.137.162v.194h-.072v.1l.071.047v4.734h-.083a.08.08,0,0,0-.082.078v.021a.077.077,0,0,0,.025.057l-.076.086Z" fill="#cc1d1d"/>
        <path id="Path_8038" data-name="Path 8038" d="M974.523,101.969h1.814v-.162l-.076-.086a.074.074,0,0,0,.025-.056v-.022a.08.08,0,0,0-.082-.078h-.083V96.817l.071-.048v-.1h-.072v-.194l.137-.164V96.2l-.827,0-.826,0v.118l.136.162v.194h-.072v.1l.071.048v4.743h-.083a.08.08,0,0,0-.082.078v.022a.077.077,0,0,0,.025.056l-.076.086Z" fill="#cc1d1d"/>
        <path id="Path_8039" data-name="Path 8039" d="M976.771,101.97h1.814v-.162l-.076-.087a.073.073,0,0,0,.025-.056v-.022a.079.079,0,0,0-.081-.078h-.084V96.808l.072-.049v-.1h-.073v-.194l.137-.164v-.119l-.827,0-.826,0v.119l.136.162v.194h-.072v.1l.071.048v4.752H976.9a.08.08,0,0,0-.082.078v.022a.077.077,0,0,0,.025.056l-.076.087Z" fill="#cc1d1d"/>
        <path id="Path_8040" data-name="Path 8040" d="M979.019,101.971h1.814v-.163l-.076-.086a.078.078,0,0,0,.026-.057v-.022a.08.08,0,0,0-.082-.078h-.084V96.8l.072-.048v-.1h-.072v-.195l.136-.164v-.12l-.827.005-.826,0V96.3l.136.163v.194h-.072v.1l.071.048v4.762h-.083a.08.08,0,0,0-.082.078v.022a.077.077,0,0,0,.025.056l-.076.087Z" fill="#cc1d1d"/>
        <path id="Path_8041" data-name="Path 8041" d="M981.139,94.52l-5.709-1.257-5.71,1.322v1.257l11.419-.053Zm-5.709.736a.694.694,0,0,1-.715-.677.7.7,0,0,1,.715-.685.693.693,0,0,1,.715.676A.7.7,0,0,1,975.43,95.256Z" fill="#cc1d1d"/>
        <path id="Path_8042" data-name="Path 8042" d="M981.682,103.4v-.569h-.321v-.488l-11.861-.014v.483h-.321v.563h-.357v.376l13.217.032v-.38Z" fill="#cc1d1d"/>
      </g>
    </g>
    <g id="to_lock" data-name="to lock">
      <text id="Full_Security_Assessment" data-name="Full Security
Assessment" transform="translate(371.666 78.252)" fill="#fff" font-size="20.741" font-family="Montserrat-Regular, Montserrat"><tspan x="64.823" y="20">Full Security</tspan><tspan x="66.783" y="46.272">Assessment</tspan></text>
    </g>
  </g>
</svg>
