<?xml version="1.0" encoding="utf-8"?>
<!-- Generator: Adobe Illustrator 24.2.3, SVG Export Plug-In . SVG Version: 6.00 Build 0)  -->
<svg version="1.1" xmlns="http://www.w3.org/2000/svg" xmlns:xlink="http://www.w3.org/1999/xlink" x="0px" y="0px"
	 viewBox="0 0 320 373.7" style="enable-background:new 0 0 320 373.7;" xml:space="preserve">
<style type="text/css">
	.st0{opacity:0.46;fill:#FFFFFF;}
	.st1{fill:#0A90B7;}
	.st2{fill:#F2F2F2;}
	.st3{enable-background:new    ;}
	.st4{fill:#FFFFFF;}
	.st5{fill:#A6D7E5;}
	.st6{fill:#1294C2;}
	.st7{opacity:0.46;fill:#209ABD;}
	.st8{opacity:0.6;fill:#0A90B7;}
	.st9{fill:#444444;}
	.st10{opacity:0.55;fill:#F2F2F2;}
	.st11{opacity:0.55;}
	.st12{fill:#757575;}
	.st13{fill:#D8D8D8;}
	.st14{fill:#A00A0F;}
	.st15{fill:#C71F25;}
	.st16{opacity:0.1;enable-background:new    ;}
</style>
<g id="Layer_6">
</g>
<g id="Shapes">
</g>
<g id="background">
</g>
<g id="text">
</g>
<g id="Graphics">
</g>
<g id="Layer_5">
	<rect x="10.2" class="st0" width="300" height="373.7"/>
	<path id="Path_7616_2_" class="st1" d="M295.6,43.7H61V11.6h234.6l7.1,16.1L295.6,43.7z"/>
	<rect x="21.7" y="11.6" class="st2" width="39.3" height="32.2"/>
	<rect x="26.1" y="56.7" class="st10" width="265" height="81"/>
	<g class="st11">
		<g>
			<path class="st9" d="M71.6,105.6c-0.5-0.2-0.9-0.4-1.2-0.8l0.3-0.5c0.4,0.3,0.8,0.6,1.1,0.7s0.9,0.2,1.4,0.2
				c0.6,0,1.1-0.1,1.5-0.4s0.5-0.6,0.5-1.1c0-0.3-0.1-0.5-0.3-0.7s-0.4-0.3-0.7-0.4c-0.3-0.1-0.6-0.2-1.1-0.3
				c-0.6-0.1-1.1-0.3-1.4-0.4c-0.4-0.1-0.7-0.3-0.9-0.6s-0.4-0.6-0.4-1.1c0-0.4,0.1-0.8,0.3-1.1c0.2-0.3,0.5-0.6,0.9-0.8
				c0.4-0.2,0.9-0.3,1.4-0.3c0.5,0,1,0.1,1.4,0.3c0.4,0.2,0.8,0.4,1.1,0.7l-0.3,0.5c-0.4-0.3-0.7-0.6-1.1-0.7s-0.8-0.2-1.2-0.2
				c-0.6,0-1.1,0.1-1.5,0.4s-0.5,0.7-0.5,1.1c0,0.4,0.2,0.7,0.5,0.9c0.3,0.2,0.8,0.4,1.4,0.5l0.3,0.1c0.6,0.1,1,0.3,1.4,0.4
				c0.3,0.1,0.6,0.3,0.9,0.6c0.2,0.3,0.4,0.6,0.4,1c0,0.4-0.1,0.8-0.3,1.1s-0.5,0.6-0.9,0.7s-0.9,0.3-1.4,0.3
				C72.6,105.9,72.1,105.8,71.6,105.6z"/>
			<path class="st9" d="M77.7,103L77.7,103c0,0.8,0.2,1.3,0.5,1.7c0.3,0.4,0.8,0.6,1.4,0.6c0.6,0,1.2-0.2,1.8-0.7l0.3,0.5
				c-0.2,0.2-0.5,0.4-0.9,0.5s-0.7,0.2-1.1,0.2c-0.8,0-1.5-0.2-1.9-0.7s-0.7-1.2-0.7-2c0-0.5,0.1-1,0.3-1.5c0.2-0.4,0.5-0.8,0.9-1
				c0.4-0.2,0.8-0.3,1.3-0.3c0.7,0,1.3,0.2,1.7,0.7c0.4,0.5,0.6,1.1,0.6,1.9v0.1H77.7z M78.3,101.3c-0.3,0.3-0.5,0.7-0.6,1.2h3.4
				c0-0.5-0.2-1-0.5-1.3c-0.3-0.3-0.7-0.4-1.1-0.4C79,100.8,78.6,101,78.3,101.3z"/>
			<path class="st9" d="M84,105.5c-0.4-0.2-0.7-0.6-0.9-1s-0.3-0.9-0.3-1.4c0-0.6,0.1-1,0.3-1.5c0.2-0.4,0.5-0.8,0.9-1
				c0.4-0.2,0.8-0.3,1.3-0.3c0.4,0,0.7,0.1,1,0.2c0.3,0.1,0.6,0.3,0.8,0.5l-0.3,0.5c-0.3-0.2-0.5-0.4-0.8-0.5s-0.5-0.2-0.8-0.2
				c-0.6,0-1,0.2-1.4,0.6s-0.5,0.9-0.5,1.6c0,0.7,0.2,1.2,0.5,1.6c0.3,0.4,0.8,0.6,1.4,0.6c0.3,0,0.5-0.1,0.8-0.2
				c0.3-0.1,0.5-0.3,0.8-0.5l0.3,0.5c-0.2,0.2-0.5,0.4-0.9,0.5c-0.3,0.1-0.7,0.2-1,0.2C84.9,105.8,84.4,105.7,84,105.5z"/>
			<path class="st9" d="M92.8,100.4v5.4h-0.6v-1c-0.2,0.3-0.4,0.6-0.7,0.8c-0.3,0.2-0.7,0.3-1.1,0.3c-0.6,0-1.1-0.2-1.4-0.5
				c-0.3-0.3-0.5-0.9-0.5-1.6v-3.4h0.6v3.3c0,0.5,0.1,0.9,0.3,1.2s0.5,0.4,1,0.4c0.5,0,0.9-0.2,1.3-0.5c0.3-0.3,0.5-0.8,0.5-1.3v-3
				H92.8z"/>
			<path class="st9" d="M97.4,100.3l0,0.6c-0.1,0-0.3,0-0.5,0c-0.5,0-0.9,0.2-1.2,0.5c-0.3,0.3-0.4,0.8-0.4,1.2v3.1h-0.6v-3.9
				c0-0.6,0-1.1-0.1-1.5h0.6l0.1,1c0.1-0.4,0.4-0.6,0.7-0.8c0.3-0.2,0.6-0.3,1-0.3C97.1,100.3,97.3,100.3,97.4,100.3z"/>
			<path class="st9" d="M99.2,98.2V99h-0.9v-0.8H99.2z M98.4,100.4h0.6v5.4h-0.6V100.4z"/>
			<path class="st9" d="M101.8,100.9v3.2c0,0.4,0.1,0.7,0.2,0.9c0.2,0.2,0.4,0.2,0.7,0.2c0.2,0,0.4,0,0.6-0.1v0.6
				c-0.2,0.1-0.5,0.1-0.7,0.1c-0.5,0-0.8-0.1-1.1-0.4c-0.3-0.3-0.4-0.7-0.4-1.2v-3.3h-1.1v-0.5h1.1V99l0.7-0.2v1.7h1.6v0.5H101.8z"
				/>
			<path class="st9" d="M109.2,100.4l-2.5,5.9c-0.2,0.6-0.6,1-0.9,1.3c-0.4,0.3-0.8,0.5-1.4,0.6l-0.1-0.5c0.5-0.1,0.9-0.3,1.2-0.5
				c0.3-0.2,0.5-0.5,0.7-0.9l0.2-0.5l-2.3-5.4h0.7l1.9,4.7l1.9-4.7H109.2z"/>
			<path class="st9" d="M118.1,103.7H114l-0.9,2h-0.7l3.3-7.6h0.6l3.3,7.6H119L118.1,103.7z M117.9,103.2l-1.8-4.2l-1.8,4.2H117.9z"
				/>
			<path class="st9" d="M125.2,100.4v5.4h-0.6v-1c-0.2,0.3-0.4,0.6-0.7,0.8c-0.3,0.2-0.7,0.3-1.1,0.3c-0.6,0-1.1-0.2-1.4-0.5
				c-0.3-0.3-0.5-0.9-0.5-1.6v-3.4h0.6v3.3c0,0.5,0.1,0.9,0.3,1.2s0.5,0.4,1,0.4c0.5,0,0.9-0.2,1.3-0.5c0.3-0.3,0.5-0.8,0.5-1.3v-3
				H125.2z"/>
			<path class="st9" d="M127.9,100.9v3.2c0,0.4,0.1,0.7,0.2,0.9c0.2,0.2,0.4,0.2,0.7,0.2c0.2,0,0.4,0,0.6-0.1v0.6
				c-0.2,0.1-0.5,0.1-0.7,0.1c-0.5,0-0.8-0.1-1.1-0.4c-0.3-0.3-0.4-0.7-0.4-1.2v-3.3h-1.1v-0.5h1.1V99l0.7-0.2v1.7h1.6v0.5H127.9z"
				/>
			<path class="st9" d="M135.1,102.4v3.4h-0.7v-3.4c0-0.5-0.1-0.9-0.3-1.2c-0.2-0.2-0.6-0.4-1-0.4c-0.5,0-1,0.2-1.3,0.5
				c-0.3,0.3-0.5,0.8-0.5,1.3v3.1h-0.6v-7.9h0.6v3.4c0.2-0.3,0.4-0.6,0.7-0.8c0.3-0.2,0.7-0.3,1.1-0.3
				C134.5,100.3,135.1,101,135.1,102.4z"/>
			<path class="st9" d="M137.8,105.5c-0.4-0.2-0.7-0.6-0.9-1c-0.2-0.4-0.3-0.9-0.3-1.5c0-0.6,0.1-1,0.3-1.5s0.5-0.7,0.9-1
				s0.8-0.3,1.3-0.3c0.5,0,0.9,0.1,1.3,0.3s0.7,0.6,0.9,1s0.3,0.9,0.3,1.5c0,0.6-0.1,1-0.3,1.5c-0.2,0.4-0.5,0.7-0.9,1
				c-0.4,0.2-0.8,0.3-1.3,0.3C138.6,105.8,138.1,105.7,137.8,105.5z M140.4,104.7c0.3-0.4,0.5-0.9,0.5-1.6c0-0.7-0.2-1.2-0.5-1.6
				s-0.7-0.6-1.3-0.6c-0.6,0-1,0.2-1.3,0.6c-0.3,0.4-0.5,0.9-0.5,1.6c0,0.7,0.2,1.3,0.5,1.6s0.7,0.6,1.3,0.6
				S140.1,105.1,140.4,104.7z"/>
			<path class="st9" d="M145.8,100.3l0,0.6c-0.1,0-0.3,0-0.5,0c-0.5,0-0.9,0.2-1.2,0.5s-0.4,0.8-0.4,1.2v3.1H143v-3.9
				c0-0.6,0-1.1-0.1-1.5h0.6l0.1,1c0.1-0.4,0.4-0.6,0.7-0.8s0.6-0.3,1-0.3C145.5,100.3,145.6,100.3,145.8,100.3z"/>
			<path class="st9" d="M147.5,98.2V99h-0.9v-0.8H147.5z M146.8,100.4h0.6v5.4h-0.6V100.4z"/>
			<path class="st9" d="M153.4,105.2v0.5h-4.5v-0.4l3.6-4.4h-3.4v-0.5h4.2v0.5l-3.5,4.3H153.4z"/>
			<path class="st9" d="M159.3,100.4v5.4h-0.7v-1c-0.2,0.4-0.4,0.6-0.7,0.8c-0.3,0.2-0.7,0.3-1.1,0.3c-0.5,0-0.9-0.1-1.3-0.3
				c-0.4-0.2-0.6-0.5-0.8-1c-0.2-0.4-0.3-0.9-0.3-1.5c0-0.6,0.1-1,0.3-1.5c0.2-0.4,0.5-0.8,0.8-1c0.4-0.2,0.8-0.3,1.2-0.3
				c0.4,0,0.8,0.1,1.1,0.3c0.3,0.2,0.6,0.5,0.7,0.8v-1H159.3z M158.2,104.7c0.3-0.4,0.5-0.9,0.5-1.6c0-0.7-0.2-1.3-0.5-1.6
				c-0.3-0.4-0.7-0.6-1.3-0.6s-1,0.2-1.3,0.6s-0.5,0.9-0.5,1.6c0,0.7,0.2,1.2,0.5,1.6c0.3,0.4,0.8,0.6,1.3,0.6
				C157.4,105.3,157.9,105.1,158.2,104.7z"/>
			<path class="st9" d="M162,100.9v3.2c0,0.4,0.1,0.7,0.2,0.9c0.2,0.2,0.4,0.2,0.7,0.2c0.2,0,0.4,0,0.6-0.1v0.6
				c-0.2,0.1-0.5,0.1-0.7,0.1c-0.5,0-0.8-0.1-1.1-0.4c-0.3-0.3-0.4-0.7-0.4-1.2v-3.3h-1.1v-0.5h1.1V99l0.7-0.2v1.7h1.6v0.5H162z"/>
			<path class="st9" d="M165.5,98.2V99h-0.9v-0.8H165.5z M164.8,100.4h0.6v5.4h-0.6V100.4z"/>
			<path class="st9" d="M168.1,105.5c-0.4-0.2-0.7-0.6-0.9-1c-0.2-0.4-0.3-0.9-0.3-1.5c0-0.6,0.1-1,0.3-1.5s0.5-0.7,0.9-1
				s0.8-0.3,1.3-0.3c0.5,0,0.9,0.1,1.3,0.3s0.7,0.6,0.9,1s0.3,0.9,0.3,1.5c0,0.6-0.1,1-0.3,1.5c-0.2,0.4-0.5,0.7-0.9,1
				c-0.4,0.2-0.8,0.3-1.3,0.3C168.9,105.8,168.5,105.7,168.1,105.5z M170.7,104.7c0.3-0.4,0.5-0.9,0.5-1.6c0-0.7-0.2-1.2-0.5-1.6
				s-0.7-0.6-1.3-0.6c-0.6,0-1,0.2-1.3,0.6c-0.3,0.4-0.5,0.9-0.5,1.6c0,0.7,0.2,1.3,0.5,1.6s0.7,0.6,1.3,0.6
				S170.4,105.1,170.7,104.7z"/>
			<path class="st9" d="M177.7,102.4v3.4h-0.7v-3.4c0-0.5-0.1-0.9-0.3-1.2c-0.2-0.2-0.6-0.4-1-0.4c-0.5,0-1,0.2-1.3,0.5
				c-0.3,0.3-0.5,0.8-0.5,1.3v3.1h-0.6v-3.9c0-0.6,0-1.1-0.1-1.5h0.6l0.1,1c0.2-0.4,0.4-0.6,0.7-0.8c0.3-0.2,0.7-0.3,1.1-0.3
				C177.1,100.3,177.7,101,177.7,102.4z"/>
			<path class="st9" d="M182.4,98.2h2.9c0.8,0,1.4,0.2,1.8,0.6c0.4,0.4,0.7,0.9,0.7,1.5c0,0.7-0.2,1.2-0.7,1.5
				c-0.4,0.4-1,0.6-1.8,0.6h-2.3v3.4h-0.7V98.2z M185.3,101.8c0.6,0,1.1-0.1,1.4-0.4s0.5-0.6,0.5-1.1c0-0.5-0.2-0.9-0.5-1.1
				s-0.8-0.4-1.4-0.4h-2.2v3H185.3z"/>
			<path class="st9" d="M193.7,100.4v5.4H193v-1c-0.2,0.4-0.4,0.6-0.7,0.8c-0.3,0.2-0.7,0.3-1.1,0.3c-0.5,0-0.9-0.1-1.3-0.3
				c-0.4-0.2-0.6-0.5-0.8-1c-0.2-0.4-0.3-0.9-0.3-1.5c0-0.6,0.1-1,0.3-1.5c0.2-0.4,0.5-0.8,0.8-1c0.4-0.2,0.8-0.3,1.2-0.3
				c0.4,0,0.8,0.1,1.1,0.3c0.3,0.2,0.6,0.5,0.7,0.8v-1H193.7z M192.5,104.7c0.3-0.4,0.5-0.9,0.5-1.6c0-0.7-0.2-1.3-0.5-1.6
				c-0.3-0.4-0.7-0.6-1.3-0.6s-1,0.2-1.3,0.6s-0.5,0.9-0.5,1.6c0,0.7,0.2,1.2,0.5,1.6c0.3,0.4,0.8,0.6,1.3,0.6
				C191.8,105.3,192.2,105.1,192.5,104.7z"/>
			<path class="st9" d="M196.3,105.5c-0.4-0.2-0.7-0.6-0.9-1s-0.3-0.9-0.3-1.4c0-0.6,0.1-1,0.3-1.5c0.2-0.4,0.5-0.8,0.9-1
				c0.4-0.2,0.8-0.3,1.3-0.3c0.4,0,0.7,0.1,1,0.2c0.3,0.1,0.6,0.3,0.8,0.5l-0.3,0.5c-0.3-0.2-0.5-0.4-0.8-0.5s-0.5-0.2-0.8-0.2
				c-0.6,0-1,0.2-1.4,0.6s-0.5,0.9-0.5,1.6c0,0.7,0.2,1.2,0.5,1.6c0.3,0.4,0.8,0.6,1.4,0.6c0.3,0,0.5-0.1,0.8-0.2
				c0.3-0.1,0.5-0.3,0.8-0.5l0.3,0.5c-0.2,0.2-0.5,0.4-0.9,0.5c-0.3,0.1-0.7,0.2-1,0.2C197.1,105.8,196.7,105.7,196.3,105.5z"/>
			<path class="st9" d="M204.4,105.8l-3-2.6v2.6h-0.6v-7.9h0.6v5l2.7-2.5h0.8l-2.8,2.6l3.1,2.8H204.4z"/>
			<path class="st9" d="M210.6,100.4v5.4h-0.7v-1c-0.2,0.4-0.4,0.6-0.7,0.8c-0.3,0.2-0.7,0.3-1.1,0.3c-0.5,0-0.9-0.1-1.3-0.3
				c-0.4-0.2-0.6-0.5-0.8-1c-0.2-0.4-0.3-0.9-0.3-1.5c0-0.6,0.1-1,0.3-1.5c0.2-0.4,0.5-0.8,0.8-1c0.4-0.2,0.8-0.3,1.2-0.3
				c0.4,0,0.8,0.1,1.1,0.3c0.3,0.2,0.6,0.5,0.7,0.8v-1H210.6z M209.5,104.7c0.3-0.4,0.5-0.9,0.5-1.6c0-0.7-0.2-1.3-0.5-1.6
				c-0.3-0.4-0.7-0.6-1.3-0.6s-1,0.2-1.3,0.6s-0.5,0.9-0.5,1.6c0,0.7,0.2,1.2,0.5,1.6c0.3,0.4,0.8,0.6,1.3,0.6
				C208.7,105.3,209.2,105.1,209.5,104.7z"/>
			<path class="st9" d="M217,100.4v5.4c0,0.8-0.2,1.4-0.6,1.8s-1,0.6-1.7,0.6c-0.8,0-1.5-0.2-2.1-0.6l0.1-0.6c0.3,0.2,0.7,0.4,1,0.4
				c0.3,0.1,0.6,0.1,1,0.1c0.5,0,0.9-0.1,1.2-0.4c0.3-0.3,0.4-0.7,0.4-1.3v-1.4c-0.2,0.4-0.4,0.6-0.7,0.8c-0.3,0.2-0.7,0.3-1.2,0.3
				c-0.5,0-0.9-0.1-1.3-0.3c-0.4-0.2-0.6-0.5-0.9-0.9c-0.2-0.4-0.3-0.9-0.3-1.4c0-0.5,0.1-1,0.3-1.4c0.2-0.4,0.5-0.7,0.9-0.9
				c0.4-0.2,0.8-0.3,1.3-0.3c0.4,0,0.8,0.1,1.1,0.3c0.3,0.2,0.6,0.5,0.7,0.8v-1H217z M215.9,104.5c0.3-0.4,0.5-0.9,0.5-1.5
				c0-0.6-0.2-1.2-0.5-1.5s-0.8-0.6-1.3-0.6c-0.6,0-1,0.2-1.3,0.6c-0.3,0.4-0.5,0.9-0.5,1.5c0,0.6,0.2,1.2,0.5,1.5
				c0.3,0.4,0.8,0.6,1.3,0.6C215.1,105,215.6,104.8,215.9,104.5z"/>
			<path class="st9" d="M219.2,103L219.2,103c0,0.8,0.2,1.3,0.5,1.7c0.3,0.4,0.8,0.6,1.4,0.6c0.6,0,1.2-0.2,1.8-0.7l0.3,0.5
				c-0.2,0.2-0.5,0.4-0.9,0.5s-0.7,0.2-1.1,0.2c-0.8,0-1.5-0.2-1.9-0.7s-0.7-1.2-0.7-2c0-0.5,0.1-1,0.3-1.5c0.2-0.4,0.5-0.8,0.9-1
				c0.4-0.2,0.8-0.3,1.3-0.3c0.7,0,1.3,0.2,1.7,0.7c0.4,0.5,0.6,1.1,0.6,1.9v0.1H219.2z M219.8,101.3c-0.3,0.3-0.5,0.7-0.6,1.2h3.4
				c0-0.5-0.2-1-0.5-1.3c-0.3-0.3-0.7-0.4-1.1-0.4C220.5,100.8,220.1,101,219.8,101.3z"/>
			<path class="st9" d="M228,105.4c-0.2-0.8-0.3-1.6-0.3-2.4c0-0.8,0.1-1.6,0.3-2.4c0.2-0.8,0.5-1.6,0.9-2.4h0.6
				c-0.4,0.9-0.6,1.7-0.8,2.5c-0.2,0.8-0.2,1.5-0.2,2.3c0,0.8,0.1,1.5,0.2,2.3c0.2,0.8,0.4,1.6,0.8,2.5h-0.6
				C228.5,106.9,228.2,106.1,228,105.4z"/>
			<path class="st9" d="M231.6,105.6c-0.5-0.2-0.9-0.4-1.2-0.8l0.3-0.5c0.4,0.3,0.8,0.6,1.1,0.7s0.9,0.2,1.4,0.2
				c0.6,0,1.1-0.1,1.5-0.4c0.4-0.3,0.5-0.6,0.5-1.1c0-0.3-0.1-0.5-0.3-0.7s-0.4-0.3-0.7-0.4s-0.6-0.2-1.1-0.3
				c-0.6-0.1-1.1-0.3-1.4-0.4c-0.4-0.1-0.7-0.3-0.9-0.6c-0.2-0.3-0.4-0.6-0.4-1.1c0-0.4,0.1-0.8,0.3-1.1c0.2-0.3,0.5-0.6,0.9-0.8
				c0.4-0.2,0.9-0.3,1.4-0.3c0.5,0,1,0.1,1.4,0.3c0.4,0.2,0.8,0.4,1.1,0.7l-0.3,0.5c-0.4-0.3-0.7-0.6-1.1-0.7
				c-0.4-0.1-0.8-0.2-1.2-0.2c-0.6,0-1.1,0.1-1.5,0.4c-0.4,0.3-0.5,0.7-0.5,1.1c0,0.4,0.2,0.7,0.5,0.9c0.3,0.2,0.8,0.4,1.4,0.5
				l0.3,0.1c0.6,0.1,1,0.3,1.4,0.4c0.3,0.1,0.6,0.3,0.9,0.6c0.2,0.3,0.4,0.6,0.4,1c0,0.4-0.1,0.8-0.3,1.1c-0.2,0.3-0.5,0.6-0.9,0.7
				s-0.9,0.3-1.4,0.3C232.6,105.9,232.1,105.8,231.6,105.6z"/>
			<path class="st9" d="M238.2,105.6c-0.5-0.2-0.9-0.4-1.2-0.8l0.3-0.5c0.4,0.3,0.8,0.6,1.1,0.7s0.9,0.2,1.4,0.2
				c0.6,0,1.1-0.1,1.5-0.4s0.5-0.6,0.5-1.1c0-0.3-0.1-0.5-0.3-0.7s-0.4-0.3-0.7-0.4c-0.3-0.1-0.6-0.2-1.1-0.3
				c-0.6-0.1-1.1-0.3-1.4-0.4c-0.4-0.1-0.7-0.3-0.9-0.6s-0.4-0.6-0.4-1.1c0-0.4,0.1-0.8,0.3-1.1c0.2-0.3,0.5-0.6,0.9-0.8
				c0.4-0.2,0.9-0.3,1.4-0.3c0.5,0,1,0.1,1.4,0.3c0.4,0.2,0.8,0.4,1.1,0.7l-0.3,0.5c-0.4-0.3-0.7-0.6-1.1-0.7s-0.8-0.2-1.2-0.2
				c-0.6,0-1.1,0.1-1.5,0.4s-0.5,0.7-0.5,1.1c0,0.4,0.2,0.7,0.5,0.9c0.3,0.2,0.8,0.4,1.4,0.5l0.3,0.1c0.6,0.1,1,0.3,1.4,0.4
				c0.3,0.1,0.6,0.3,0.9,0.6c0.2,0.3,0.4,0.6,0.4,1c0,0.4-0.1,0.8-0.3,1.1s-0.5,0.6-0.9,0.7s-0.9,0.3-1.4,0.3
				C239.2,105.9,238.7,105.8,238.2,105.6z"/>
			<path class="st9" d="M244.1,98.2h2.9c0.8,0,1.4,0.2,1.8,0.6c0.4,0.4,0.7,0.9,0.7,1.5c0,0.7-0.2,1.2-0.7,1.5
				c-0.4,0.4-1,0.6-1.8,0.6h-2.3v3.4h-0.7V98.2z M246.9,101.8c0.6,0,1.1-0.1,1.4-0.4s0.5-0.6,0.5-1.1c0-0.5-0.2-0.9-0.5-1.1
				s-0.8-0.4-1.4-0.4h-2.2v3H246.9z"/>
			<path class="st9" d="M251.1,104.8v0.7c0,0.3,0,0.5-0.1,0.7c-0.1,0.2-0.2,0.4-0.4,0.6l-0.3-0.3c0.2-0.3,0.4-0.6,0.4-0.9h-0.4v-0.9
				H251.1z"/>
			<path class="st9" d="M71.6,119c-0.5-0.2-0.9-0.4-1.2-0.8l0.3-0.5c0.4,0.3,0.8,0.6,1.1,0.7s0.9,0.2,1.4,0.2c0.6,0,1.1-0.1,1.5-0.4
				s0.5-0.6,0.5-1.1c0-0.3-0.1-0.5-0.3-0.7s-0.4-0.3-0.7-0.4c-0.3-0.1-0.6-0.2-1.1-0.3c-0.6-0.1-1.1-0.3-1.4-0.4
				c-0.4-0.1-0.7-0.3-0.9-0.6s-0.4-0.6-0.4-1.1c0-0.4,0.1-0.8,0.3-1.1c0.2-0.3,0.5-0.6,0.9-0.8c0.4-0.2,0.9-0.3,1.4-0.3
				c0.5,0,1,0.1,1.4,0.3c0.4,0.2,0.8,0.4,1.1,0.7l-0.3,0.5c-0.4-0.3-0.7-0.6-1.1-0.7s-0.8-0.2-1.2-0.2c-0.6,0-1.1,0.1-1.5,0.4
				s-0.5,0.7-0.5,1.1c0,0.4,0.2,0.7,0.5,0.9c0.3,0.2,0.8,0.4,1.4,0.5l0.3,0.1c0.6,0.1,1,0.3,1.4,0.4c0.3,0.1,0.6,0.3,0.9,0.6
				c0.2,0.3,0.4,0.6,0.4,1c0,0.4-0.1,0.8-0.3,1.1s-0.5,0.6-0.9,0.7s-0.9,0.3-1.4,0.3C72.6,119.2,72.1,119.1,71.6,119z"/>
			<path class="st9" d="M82.4,117.1h-4.1l-0.9,2h-0.7l3.3-7.6h0.6l3.3,7.6h-0.7L82.4,117.1z M82.1,116.5l-1.8-4.2l-1.8,4.2H82.1z"/>
			<path class="st9" d="M85.2,111.5h2.9c0.8,0,1.4,0.2,1.8,0.6c0.4,0.4,0.7,0.9,0.7,1.5c0,0.7-0.2,1.2-0.7,1.5
				c-0.4,0.4-1,0.6-1.8,0.6h-2.3v3.4h-0.7V111.5z M88.1,115.1c0.6,0,1.1-0.1,1.4-0.4s0.5-0.6,0.5-1.1c0-0.5-0.2-0.9-0.5-1.1
				s-0.8-0.4-1.4-0.4h-2.2v3H88.1z"/>
			<path class="st9" d="M92.3,118.2v0.7c0,0.3,0,0.5-0.1,0.7c-0.1,0.2-0.2,0.4-0.4,0.6l-0.3-0.3c0.2-0.3,0.4-0.6,0.4-0.9h-0.4v-0.9
				H92.3z"/>
			<path class="st9" d="M97.6,119c-0.5-0.2-0.9-0.4-1.2-0.8l0.3-0.5c0.4,0.3,0.8,0.6,1.1,0.7s0.9,0.2,1.4,0.2c0.6,0,1.1-0.1,1.5-0.4
				c0.4-0.3,0.5-0.6,0.5-1.1c0-0.3-0.1-0.5-0.3-0.7s-0.4-0.3-0.7-0.4s-0.6-0.2-1.1-0.3c-0.6-0.1-1.1-0.3-1.4-0.4
				c-0.4-0.1-0.7-0.3-0.9-0.6c-0.2-0.3-0.4-0.6-0.4-1.1c0-0.4,0.1-0.8,0.3-1.1c0.2-0.3,0.5-0.6,0.9-0.8c0.4-0.2,0.9-0.3,1.4-0.3
				c0.5,0,1,0.1,1.4,0.3c0.4,0.2,0.8,0.4,1.1,0.7l-0.3,0.5c-0.4-0.3-0.7-0.6-1.1-0.7c-0.4-0.1-0.8-0.2-1.2-0.2
				c-0.6,0-1.1,0.1-1.5,0.4c-0.4,0.3-0.5,0.7-0.5,1.1c0,0.4,0.2,0.7,0.5,0.9c0.3,0.2,0.8,0.4,1.4,0.5l0.3,0.1c0.6,0.1,1,0.3,1.4,0.4
				c0.3,0.1,0.6,0.3,0.9,0.6c0.2,0.3,0.4,0.6,0.4,1c0,0.4-0.1,0.8-0.3,1.1c-0.2,0.3-0.5,0.6-0.9,0.7s-0.9,0.3-1.4,0.3
				C98.6,119.2,98.1,119.1,97.6,119z"/>
			<path class="st9" d="M108.4,117.1h-4.1l-0.9,2h-0.7l3.3-7.6h0.6l3.3,7.6h-0.7L108.4,117.1z M108.2,116.5l-1.8-4.2l-1.8,4.2H108.2
				z"/>
			<path class="st9" d="M117.1,119.1h-0.7l-1-2.5c-0.1-0.3-0.3-0.6-0.5-0.7c-0.2-0.1-0.5-0.2-0.9-0.2h-2.1v3.4h-0.7v-7.6h2.9
				c0.8,0,1.4,0.2,1.8,0.5c0.4,0.4,0.7,0.9,0.7,1.5c0,0.5-0.1,0.9-0.4,1.2c-0.3,0.3-0.6,0.6-1.1,0.7c0.2,0,0.4,0.1,0.6,0.3
				c0.2,0.1,0.3,0.4,0.4,0.7L117.1,119.1z M114.2,115.2c1.2,0,1.9-0.5,1.9-1.6c0-1-0.6-1.5-1.9-1.5h-2.2v3.1H114.2z"/>
			<path class="st9" d="M119.5,118.2v0.7c0,0.3,0,0.5-0.1,0.7c-0.1,0.2-0.2,0.4-0.4,0.6l-0.3-0.3c0.2-0.3,0.4-0.6,0.4-0.9h-0.4v-0.9
				H119.5z"/>
			<path class="st9" d="M124,111.5h2.9c0.8,0,1.4,0.2,1.8,0.6c0.4,0.4,0.7,0.9,0.7,1.5c0,0.7-0.2,1.2-0.7,1.5
				c-0.4,0.4-1,0.6-1.8,0.6h-2.3v3.4H124V111.5z M126.9,115.1c0.6,0,1.1-0.1,1.4-0.4s0.5-0.6,0.5-1.1c0-0.5-0.2-0.9-0.5-1.1
				s-0.8-0.4-1.4-0.4h-2.2v3H126.9z"/>
			<path class="st9" d="M132.1,118.8c-0.5-0.3-0.9-0.8-1.2-1.3s-0.4-1.3-0.4-2.1s0.1-1.5,0.4-2.1c0.3-0.6,0.7-1,1.2-1.3
				c0.5-0.3,1.1-0.5,1.8-0.5c0.7,0,1.3,0.2,1.8,0.5c0.5,0.3,0.9,0.8,1.2,1.3c0.3,0.6,0.4,1.3,0.4,2.1s-0.1,1.5-0.4,2.1
				c-0.3,0.6-0.7,1-1.2,1.4s-1.1,0.5-1.8,0.5C133.3,119.2,132.7,119.1,132.1,118.8z M135.9,117.8c0.5-0.6,0.7-1.4,0.7-2.4
				c0-1.1-0.2-1.9-0.7-2.4s-1.1-0.9-2-0.9c-0.9,0-1.5,0.3-2,0.9c-0.5,0.6-0.7,1.4-0.7,2.4s0.2,1.9,0.7,2.4c0.5,0.6,1.1,0.9,2,0.9
				S135.5,118.3,135.9,117.8z"/>
			<path class="st9" d="M143.9,117.1h-4.1l-0.9,2h-0.7l3.3-7.6h0.6l3.3,7.6h-0.7L143.9,117.1z M143.6,116.5l-1.8-4.2l-1.8,4.2H143.6
				z"/>
			<path class="st9" d="M152.9,118.8l-0.4,0.4c-0.6-0.3-1.1-0.7-1.5-1.1c-0.3,0.3-0.6,0.6-1,0.8c-0.4,0.2-0.8,0.3-1.3,0.3
				c-0.5,0-0.9-0.1-1.2-0.2c-0.4-0.2-0.6-0.4-0.8-0.7s-0.3-0.6-0.3-1c0-0.5,0.1-0.9,0.4-1.2c0.3-0.4,0.7-0.8,1.4-1.2
				c-0.3-0.4-0.6-0.8-0.7-1c-0.1-0.3-0.2-0.5-0.2-0.8c0-0.5,0.2-0.9,0.5-1.2c0.3-0.3,0.8-0.4,1.3-0.4c0.5,0,0.9,0.1,1.2,0.4
				c0.3,0.3,0.4,0.6,0.4,1.1c0,0.4-0.1,0.7-0.3,1s-0.6,0.6-1.3,1l1.9,2.2c0.3-0.7,0.5-1.5,0.6-2.5h0.6c0,1.2-0.3,2.2-0.8,3
				C151.8,118.1,152.3,118.5,152.9,118.8z M150.7,117.7l-2.1-2.4c-0.6,0.4-1,0.7-1.2,1c-0.2,0.3-0.3,0.6-0.3,1c0,0.4,0.2,0.8,0.5,1
				c0.3,0.3,0.7,0.4,1.3,0.4C149.6,118.7,150.2,118.3,150.7,117.7z M148.1,113.7c0.1,0.2,0.3,0.5,0.6,0.9c0.5-0.3,0.9-0.6,1.1-0.8
				c0.2-0.2,0.3-0.5,0.3-0.7c0-0.3-0.1-0.5-0.3-0.7c-0.2-0.2-0.4-0.3-0.7-0.3c-0.3,0-0.6,0.1-0.8,0.3s-0.3,0.5-0.3,0.8
				C148,113.3,148,113.5,148.1,113.7z"/>
			<path class="st9" d="M161,111.5v7.6h-0.6V113l-2.7,6.1h-0.5l-2.7-6l0,6h-0.6v-7.6h0.5l3,6.8l3-6.8H161z"/>
			<path class="st9" d="M162.4,121.1c0.4-0.9,0.6-1.7,0.8-2.5c0.2-0.8,0.2-1.6,0.2-2.3c0-0.8-0.1-1.5-0.2-2.3
				c-0.2-0.8-0.4-1.6-0.8-2.5h0.6c0.4,0.8,0.7,1.6,0.9,2.4c0.2,0.8,0.3,1.6,0.3,2.4c0,0.8-0.1,1.6-0.3,2.4c-0.2,0.8-0.5,1.6-0.9,2.4
				H162.4z"/>
			<path class="st9" d="M166.3,114.9l1.1-1.4l-1.7-0.5l0.2-0.5l1.6,0.6l-0.1-1.7h0.5l0,1.7l1.6-0.6l0.2,0.5l-1.7,0.5l1.1,1.4
				l-0.4,0.3l-1-1.4l-1,1.4L166.3,114.9z"/>
		</g>
	</g>
	<g class="st11">
		<g>
			<path class="st1" d="M46.4,75.9v2.9h4.2v1h-4.2v3.4h-1.2v-8.4h5.9v1H46.4z"/>
			<path class="st1" d="M58.5,76.9v6.4h-1.1v-1c-0.5,0.7-1.3,1-2.2,1c-1.6,0-2.7-0.9-2.7-2.8v-3.7h1.2v3.5c0,1.3,0.6,1.9,1.7,1.9
				c1.2,0,2-0.7,2-2.1v-3.3H58.5z"/>
			<path class="st1" d="M60.9,74.4H62v8.9h-1.2V74.4z"/>
			<path class="st1" d="M64.3,74.4h1.2v8.9h-1.2V74.4z"/>
			<path class="st1" d="M70.6,82.4l0.4-0.9c0.6,0.6,1.7,1,2.8,1c1.5,0,2.1-0.6,2.1-1.3c0-2.1-5.1-0.8-5.1-3.9c0-1.3,1-2.4,3.2-2.4
				c1,0,2,0.3,2.7,0.7l-0.4,1c-0.7-0.5-1.6-0.7-2.3-0.7c-1.4,0-2,0.6-2,1.3c0,2.1,5.1,0.8,5.1,3.9c0,1.3-1,2.4-3.3,2.4
				C72.5,83.4,71.2,83,70.6,82.4z"/>
			<path class="st1" d="M84.5,80.5h-5.2c0.1,1.1,1,1.9,2.3,1.9c0.7,0,1.4-0.3,1.8-0.8l0.6,0.7c-0.6,0.7-1.5,1-2.5,1
				c-2.1,0-3.4-1.4-3.4-3.3c0-1.9,1.4-3.3,3.2-3.3c1.8,0,3.2,1.3,3.2,3.3C84.5,80.3,84.5,80.4,84.5,80.5z M79.3,79.7h4.1
				c-0.1-1.1-0.9-1.8-2-1.8C80.3,77.9,79.5,78.6,79.3,79.7z"/>
			<path class="st1" d="M85.7,80.1c0-1.9,1.4-3.3,3.4-3.3c1.1,0,2.1,0.5,2.6,1.4l-0.9,0.6c-0.4-0.6-1-0.9-1.7-0.9
				c-1.3,0-2.2,0.9-2.2,2.2c0,1.4,0.9,2.3,2.2,2.3c0.7,0,1.3-0.3,1.7-0.9l0.9,0.6c-0.5,0.9-1.5,1.4-2.6,1.4
				C87.1,83.4,85.7,82,85.7,80.1z"/>
			<path class="st1" d="M99.2,76.9v6.4h-1.1v-1c-0.5,0.7-1.3,1-2.2,1c-1.6,0-2.7-0.9-2.7-2.8v-3.7h1.2v3.5c0,1.3,0.6,1.9,1.7,1.9
				c1.2,0,2-0.7,2-2.1v-3.3H99.2z"/>
			<path class="st1" d="M104.9,76.9V78c-0.1,0-0.2,0-0.3,0c-1.2,0-2,0.8-2,2.2v3.2h-1.2v-6.4h1.1V78C103,77.3,103.8,76.9,104.9,76.9
				z"/>
			<path class="st1" d="M106.3,75c0-0.4,0.3-0.8,0.8-0.8s0.8,0.3,0.8,0.7c0,0.4-0.3,0.8-0.8,0.8C106.6,75.7,106.3,75.4,106.3,75z
				 M106.5,76.9h1.2v6.4h-1.2V76.9z"/>
			<path class="st1" d="M113.5,83c-0.3,0.3-0.9,0.4-1.4,0.4c-1.3,0-2-0.7-2-2v-3.5H109v-1h1.1v-1.4h1.2v1.4h1.8v1h-1.8v3.5
				c0,0.7,0.4,1.1,1,1.1c0.3,0,0.7-0.1,0.9-0.3L113.5,83z"/>
			<path class="st1" d="M120.6,76.9l-3.1,7c-0.6,1.3-1.3,1.8-2.3,1.8c-0.6,0-1.2-0.2-1.6-0.6l0.5-0.9c0.3,0.3,0.7,0.5,1.1,0.5
				c0.6,0,0.9-0.3,1.2-1l0.2-0.4l-2.8-6.4h1.2l2.2,5.1l2.2-5.1H120.6z"/>
			<path class="st1" d="M130.7,81.2h-4.5l-0.9,2.1H124l3.8-8.4h1.2l3.8,8.4h-1.3L130.7,81.2z M130.3,80.3l-1.8-4.1l-1.8,4.1H130.3z"
				/>
			<path class="st1" d="M133.2,82.7l0.5-0.9c0.5,0.4,1.4,0.7,2.2,0.7c1.1,0,1.5-0.3,1.5-0.9c0-1.4-4-0.2-4-2.7c0-1.1,1-1.9,2.7-1.9
				c0.8,0,1.8,0.2,2.3,0.6l-0.5,0.9c-0.6-0.4-1.2-0.5-1.8-0.5c-1,0-1.5,0.4-1.5,0.9c0,1.5,4,0.3,4,2.8c0,1.2-1.1,1.9-2.8,1.9
				C134.8,83.4,133.7,83.1,133.2,82.7z"/>
			<path class="st1" d="M139.3,82.7l0.5-0.9c0.5,0.4,1.4,0.7,2.2,0.7c1.1,0,1.5-0.3,1.5-0.9c0-1.4-4-0.2-4-2.7c0-1.1,1-1.9,2.7-1.9
				c0.8,0,1.8,0.2,2.3,0.6l-0.5,0.9c-0.6-0.4-1.2-0.5-1.8-0.5c-1,0-1.5,0.4-1.5,0.9c0,1.5,4,0.3,4,2.8c0,1.2-1.1,1.9-2.8,1.9
				C140.9,83.4,139.9,83.1,139.3,82.7z"/>
			<path class="st1" d="M152,80.5h-5.2c0.1,1.1,1,1.9,2.3,1.9c0.7,0,1.4-0.3,1.8-0.8l0.6,0.7c-0.6,0.7-1.5,1-2.5,1
				c-2.1,0-3.4-1.4-3.4-3.3c0-1.9,1.4-3.3,3.2-3.3s3.2,1.3,3.2,3.3C152.1,80.3,152.1,80.4,152,80.5z M146.9,79.7h4.1
				c-0.1-1.1-0.9-1.8-2-1.8C147.8,77.9,147,78.6,146.9,79.7z"/>
			<path class="st1" d="M153,82.7l0.5-0.9c0.5,0.4,1.4,0.7,2.2,0.7c1.1,0,1.5-0.3,1.5-0.9c0-1.4-4-0.2-4-2.7c0-1.1,1-1.9,2.7-1.9
				c0.8,0,1.8,0.2,2.3,0.6l-0.5,0.9c-0.6-0.4-1.2-0.5-1.8-0.5c-1,0-1.5,0.4-1.5,0.9c0,1.5,4,0.3,4,2.8c0,1.2-1.1,1.9-2.8,1.9
				C154.6,83.4,153.5,83.1,153,82.7z"/>
			<path class="st1" d="M159.1,82.7l0.5-0.9c0.5,0.4,1.4,0.7,2.2,0.7c1.1,0,1.5-0.3,1.5-0.9c0-1.4-4-0.2-4-2.7c0-1.1,1-1.9,2.7-1.9
				c0.8,0,1.8,0.2,2.3,0.6l-0.5,0.9c-0.6-0.4-1.2-0.5-1.8-0.5c-1,0-1.5,0.4-1.5,0.9c0,1.5,4,0.3,4,2.8c0,1.2-1.1,1.9-2.8,1.9
				C160.7,83.4,159.7,83.1,159.1,82.7z"/>
			<path class="st1" d="M176.7,79.7v3.7h-1.2v-3.5c0-1.3-0.6-1.9-1.6-1.9c-1.2,0-1.9,0.7-1.9,2.1v3.3h-1.2v-3.5
				c0-1.3-0.6-1.9-1.6-1.9c-1.2,0-1.9,0.7-1.9,2.1v3.3h-1.2v-6.4h1.1v1c0.5-0.7,1.2-1,2.2-1c1,0,1.8,0.4,2.2,1.2
				c0.5-0.7,1.4-1.2,2.5-1.2C175.6,76.9,176.7,77.8,176.7,79.7z"/>
			<path class="st1" d="M184.7,80.5h-5.2c0.1,1.1,1,1.9,2.3,1.9c0.7,0,1.4-0.3,1.8-0.8l0.6,0.7c-0.6,0.7-1.5,1-2.5,1
				c-2.1,0-3.4-1.4-3.4-3.3c0-1.9,1.4-3.3,3.2-3.3c1.8,0,3.2,1.3,3.2,3.3C184.7,80.3,184.7,80.4,184.7,80.5z M179.5,79.7h4.1
				c-0.1-1.1-0.9-1.8-2-1.8C180.5,77.9,179.6,78.6,179.5,79.7z"/>
			<path class="st1" d="M192.5,79.7v3.7h-1.2v-3.5c0-1.3-0.6-1.9-1.7-1.9c-1.2,0-2,0.7-2,2.1v3.3h-1.2v-6.4h1.1v1
				c0.5-0.6,1.3-1,2.3-1C191.4,76.9,192.5,77.8,192.5,79.7z"/>
			<path class="st1" d="M198.3,83c-0.3,0.3-0.9,0.4-1.4,0.4c-1.3,0-2-0.7-2-2v-3.5h-1.1v-1h1.1v-1.4h1.2v1.4h1.8v1h-1.8v3.5
				c0,0.7,0.4,1.1,1,1.1c0.3,0,0.7-0.1,0.9-0.3L198.3,83z"/>
		</g>
	</g>
	<g class="st3">
		<path class="st4" d="M80.4,30.1H76l-0.9,2h-1.7l3.9-8.7H79l3.9,8.7h-1.7L80.4,30.1z M79.8,28.8L78.2,25l-1.6,3.8H79.8z"/>
		<path class="st4" d="M90.3,25.5v6.6h-1.5v-0.8c-0.5,0.6-1.3,0.9-2.1,0.9c-1.7,0-2.9-0.9-2.9-2.9v-3.8h1.6v3.6
			c0,1.2,0.6,1.8,1.6,1.8c1.1,0,1.8-0.7,1.8-2v-3.4H90.3z"/>
		<path class="st4" d="M96.3,31.8c-0.4,0.3-0.9,0.4-1.5,0.4c-1.5,0-2.3-0.8-2.3-2.2v-3.2h-1.1v-1.2h1.1V24h1.6v1.5h1.8v1.2h-1.8v3.2
			c0,0.6,0.3,1,0.9,1c0.3,0,0.6-0.1,0.9-0.3L96.3,31.8z"/>
		<path class="st4" d="M104.2,28.3v3.8h-1.6v-3.6c0-1.2-0.6-1.8-1.6-1.8c-1.1,0-1.9,0.7-1.9,2v3.4h-1.6v-9.2h1.6v3.4
			c0.5-0.5,1.3-0.8,2.2-0.8C103,25.4,104.2,26.3,104.2,28.3z"/>
		<path class="st4" d="M105.8,28.8c0-2,1.5-3.4,3.5-3.4c2.1,0,3.5,1.4,3.5,3.4c0,2-1.5,3.4-3.5,3.4
			C107.3,32.2,105.8,30.8,105.8,28.8z M111.3,28.8c0-1.3-0.8-2.1-2-2.1c-1.1,0-2,0.8-2,2.1s0.8,2.1,2,2.1
			C110.4,30.9,111.3,30.1,111.3,28.8z"/>
		<path class="st4" d="M118.3,25.4v1.5c-0.1,0-0.2,0-0.4,0c-1.2,0-1.9,0.7-1.9,2.1v3.2h-1.6v-6.6h1.5v1
			C116.3,25.7,117.1,25.4,118.3,25.4z"/>
		<path class="st4" d="M119.4,23.4c0-0.5,0.4-0.9,1-0.9s1,0.4,1,0.9c0,0.5-0.4,1-1,1C119.8,24.4,119.4,24,119.4,23.4z M119.6,25.5
			h1.6v6.6h-1.6V25.5z"/>
		<path class="st4" d="M128.5,30.9v1.2h-5.7v-1l3.6-4.4h-3.6v-1.2h5.6v1l-3.7,4.4H128.5z"/>
		<path class="st4" d="M135.5,28.2v3.9h-1.5v-0.8c-0.4,0.6-1.1,0.9-2.1,0.9c-1.5,0-2.5-0.8-2.5-2c0-1.1,0.7-2,2.8-2h1.7v-0.1
			c0-0.9-0.5-1.4-1.7-1.4c-0.7,0-1.5,0.2-2,0.7l-0.6-1.1c0.7-0.5,1.7-0.8,2.8-0.8C134.4,25.4,135.5,26.3,135.5,28.2z M134,30v-0.8
			h-1.6c-1.1,0-1.3,0.4-1.3,0.9c0,0.6,0.5,0.9,1.3,0.9C133,31.1,133.7,30.7,134,30z"/>
		<path class="st4" d="M141.6,31.8c-0.4,0.3-0.9,0.4-1.5,0.4c-1.5,0-2.3-0.8-2.3-2.2v-3.2h-1.1v-1.2h1.1V24h1.6v1.5h1.8v1.2h-1.8
			v3.2c0,0.6,0.3,1,0.9,1c0.3,0,0.6-0.1,0.9-0.3L141.6,31.8z"/>
		<path class="st4" d="M142.7,23.4c0-0.5,0.4-0.9,1-0.9s1,0.4,1,0.9c0,0.5-0.4,1-1,1C143.1,24.4,142.7,24,142.7,23.4z M142.9,25.5
			h1.6v6.6h-1.6V25.5z"/>
		<path class="st4" d="M146,28.8c0-2,1.5-3.4,3.5-3.4c2.1,0,3.5,1.4,3.5,3.4c0,2-1.5,3.4-3.5,3.4C147.5,32.2,146,30.8,146,28.8z
			 M151.5,28.8c0-1.3-0.8-2.1-2-2.1c-1.1,0-2,0.8-2,2.1s0.8,2.1,2,2.1C150.7,30.9,151.5,30.1,151.5,28.8z"/>
		<path class="st4" d="M161.2,28.3v3.8h-1.6v-3.6c0-1.2-0.6-1.8-1.6-1.8c-1.1,0-1.9,0.7-1.9,2v3.4h-1.6v-6.6h1.5v0.9
			c0.5-0.6,1.3-0.9,2.3-0.9C160,25.4,161.2,26.3,161.2,28.3z"/>
	</g>
	<g class="st11">
		<path id="Path_1554_1_" class="st12" d="M162.1,154.4c0,4.5-3.6,8.1-8.1,8.1s-8.1-3.6-8.1-8.1c0-4.5,3.6-8.1,8.1-8.1
			S162.1,149.9,162.1,154.4z"/>
		<g id="Group_1434_1_" transform="translate(4.574 4.222)">
			<g id="arrow_1_" transform="translate(4.574 0)">
				<path id="arrow-2_1_" class="st4" d="M145,155c-0.2,0-0.5-0.1-0.6-0.3l-3.5-3.4c-0.3-0.3-0.4-0.8-0.1-1.2c0,0,0,0,0.1-0.1
					c0.3-0.3,0.9-0.3,1.2,0c0,0,0,0,0,0l2.9,2.8l2.9-2.8c0.3-0.3,0.9-0.3,1.2,0c0,0,0,0,0,0c0.3,0.3,0.4,0.8,0.1,1.2
					c0,0,0,0-0.1,0.1l-3.5,3.4C145.4,154.9,145.2,155,145,155z"/>
			</g>
			<path class="st4" d="M149.4,154.2c-0.6,0-1-0.4-1-1V146c0-0.6,0.4-1,1-1s1,0.4,1,1v7.2C150.4,153.7,150,154.2,149.4,154.2z"/>
		</g>
	</g>
	<g class="st11">
		<g>
			<circle class="st1" cx="52.4" cy="103.8" r="8.1"/>
		</g>
		<g>
			<path class="st4" d="M54.1,101.6c-0.2,0-0.4-0.2-0.4-0.4v-2.7h-4.1c-0.6,0-1.1,0.5-1.1,1.1v8.4c0,0.6,0.5,1.1,1.1,1.1h6.2
				c0.6,0,1.1-0.5,1.1-1.1v-6.4H54.1z"/>
		</g>
		<path class="st5" d="M54.1,101.6h2.7l-3.1-3.1v2.7C53.7,101.4,53.8,101.6,54.1,101.6z"/>
		<polygon class="st2" points="56.7,103.8 56.7,101.6 54.1,101.6 		"/>
	</g>
	<g>
		<path class="st4" d="M49.4,35.8c-0.7,0-1.5-0.2-2.5-0.7L46.7,35l-0.1-0.1c-0.4-0.2-0.8-0.3-1.1-0.4c-0.2-0.1-0.4-0.1-0.6-0.1
			c-0.2,0-0.3,0-0.4,0.1c-0.1,0.1-0.2,0.2-0.2,0.3c-0.1,0.3-0.3,0.4-0.6,0.4h-1.8c-0.3,0-0.6-0.3-0.6-0.6c0-0.1,0-0.3,0-0.4
			c0-0.1,0-0.3,0-0.5c0-1,0.2-1.9,0.6-2.7c0.4-0.8,0.9-1.6,1.7-2.3c0.2-0.2,0.5-0.5,0.9-0.7c-0.1,0-0.2,0-0.3,0
			c-0.8,0-1.5-0.3-2-0.9c-0.5-0.6-0.8-1.4-0.8-2.4c0-1.5,0.6-2.8,1.8-3.8c1.1-0.9,2.6-1.4,4.2-1.4c1.8,0,3.3,0.5,4.4,1.4
			c1.2,1,1.8,2.3,1.8,4c0,1.3-0.4,2.4-1.2,3.3c-0.2,0.3-0.5,0.5-0.8,0.7h1.6c0.3,0,0.6,0.3,0.6,0.7c0,0.1,0,0.2,0,0.4
			c0,0.1,0,0.3,0,0.5c0,1.7-0.4,3.1-1.1,3.9C52,35.3,50.9,35.8,49.4,35.8L49.4,35.8z M48.1,30.4c0.2,0,0.5,0.1,0.8,0.2
			c0.9,0.2,1.2,0.2,1.2,0.2c0.1,0,0.3,0,0.4-0.1c0-0.1,0.1-0.3,0.1-1c0-0.1,0-0.2,0-0.2c-0.5,0.3-1,0.5-1.5,0.7
			c-0.2,0.1-0.4,0.1-0.8,0.2C48.3,30.3,48.2,30.4,48.1,30.4L48.1,30.4z M45.5,23.3c0.2,0.1,0.4,0.2,0.5,0.4c0.4,0.4,0.6,1,0.6,1.7
			c0,0.5-0.1,1-0.4,1.4c0.2-0.2,0.4-0.3,0.6-0.4c0.7-0.5,1-0.8,1.1-1c0.2-0.2,0.2-0.5,0.2-0.9c0-0.4-0.1-0.7-0.4-0.9
			c-0.3-0.3-0.8-0.5-1.4-0.5C46,23.2,45.8,23.2,45.5,23.3L45.5,23.3z M35.1,35.8c-1.8,0-3.3-0.7-4.5-2.2c-1.1-1.5-1.7-3.5-1.7-5.9
			c0-2.4,0.6-4.4,1.7-5.9c1.1-1.5,2.6-2.2,4.5-2.2c1.8,0,3.3,0.7,4.5,2.2c1.1,1.5,1.7,3.5,1.7,5.9c0,2.4-0.6,4.4-1.7,5.9
			C38.4,35,36.9,35.8,35.1,35.8L35.1,35.8z M35.1,23.1c-0.5,0-0.8,0.3-1,0.8c-0.2,0.5-0.4,1.5-0.4,3.7c0,2.2,0.2,3.2,0.4,3.7
			c0.2,0.6,0.5,0.8,1,0.8c0.5,0,0.8-0.3,1-0.8c0.2-0.5,0.4-1.5,0.4-3.7c0-2.2-0.2-3.2-0.4-3.7C35.9,23.3,35.6,23.1,35.1,23.1
			L35.1,23.1z"/>
		<path class="st1" d="M41.9,34.6c0-0.1,0-0.2,0-0.3c0-0.1,0-0.3,0-0.5c0-0.9,0.2-1.6,0.5-2.3c0.3-0.7,0.8-1.4,1.5-2
			c0.5-0.5,1.2-1,2.3-1.6c0.5-0.3,0.8-0.5,1-0.6c0.6-0.4,1.1-0.8,1.3-1.2c0.2-0.4,0.4-0.8,0.4-1.4c0-0.7-0.2-1.2-0.7-1.6
			c-0.4-0.4-1.1-0.6-1.8-0.6c-0.6,0-1.1,0.1-1.5,0.4c-0.4,0.3-0.7,0.7-0.9,1.2c0.1,0,0.2-0.1,0.4-0.1c0.1,0,0.2,0,0.3,0
			c0.4,0,0.8,0.1,1.1,0.4c0.3,0.3,0.4,0.7,0.4,1.1c0,0.5-0.2,1-0.6,1.3c-0.4,0.4-0.8,0.5-1.4,0.5c-0.7,0-1.2-0.2-1.6-0.7
			c-0.4-0.5-0.6-1.1-0.6-1.8c0-1.3,0.5-2.3,1.5-3.2c1-0.9,2.3-1.3,3.9-1.3c1.7,0,3,0.4,4,1.3c1,0.8,1.5,2,1.5,3.3c0,1-0.3,1.9-1,2.7
			c-0.6,0.7-1.6,1.3-2.9,1.7c-0.2,0.1-0.4,0.1-0.7,0.2c-2.1,0.7-3.4,1.4-3.9,2.3c0.4-0.3,0.8-0.4,1.3-0.6c0.4-0.1,0.9-0.2,1.3-0.2
			c0.5,0,1.1,0.1,1.8,0.3c0.7,0.2,1.2,0.2,1.4,0.2c0.4,0,0.7-0.1,0.9-0.4c0.2-0.3,0.3-0.8,0.3-1.5h1.8c0,0.1,0,0.2,0,0.3
			c0,0.1,0,0.3,0,0.5c0,1.5-0.3,2.7-0.9,3.4c-0.6,0.7-1.6,1.1-2.8,1.1c-0.6,0-1.4-0.2-2.3-0.6c-0.1-0.1-0.3-0.1-0.3-0.1
			c-0.5-0.2-0.8-0.3-1.1-0.4c-0.3-0.1-0.5-0.1-0.7-0.1c-0.3,0-0.5,0.1-0.7,0.2c-0.2,0.2-0.4,0.4-0.5,0.7H41.9z M29.5,27.6
			c0-2.2,0.5-4,1.6-5.3c1-1.3,2.4-2,4.1-2c1.7,0,3,0.7,4.1,2c1,1.3,1.5,3.1,1.5,5.3c0,2.2-0.5,4-1.6,5.3c-1,1.3-2.4,2-4.1,2
			c-1.7,0-3-0.7-4.1-2C30,31.6,29.5,29.9,29.5,27.6z M33.1,27.6c0,1.9,0.2,3.2,0.5,4.1c0.3,0.8,0.8,1.2,1.5,1.2
			c0.7,0,1.2-0.4,1.6-1.3c0.3-0.8,0.5-2.2,0.5-4.1c0-1.9-0.2-3.2-0.5-4.1c-0.3-0.8-0.8-1.2-1.5-1.2c-0.7,0-1.2,0.4-1.5,1.3
			C33.2,24.4,33.1,25.8,33.1,27.6z"/>
		<path class="st5" d="M33.8,32.5l-0.2,0.3c-0.2-0.2-0.3-0.5-0.4-0.8c-0.4-0.9-0.5-2.3-0.5-4.3c0-2,0.2-3.4,0.5-4.3
			c0.4-1,1.1-1.6,1.9-1.6c0.6,0,1.1,0.3,1.5,0.8l-0.2,0.3c-0.3-0.4-0.8-0.6-1.3-0.6c-0.8,0-1.3,0.5-1.7,1.4
			c-0.3,0.9-0.5,2.2-0.5,4.2c0,1.9,0.2,3.3,0.5,4.2C33.5,32.1,33.6,32.3,33.8,32.5z M39.1,22.5l-0.2,0.3c0.9,1.2,1.4,2.8,1.4,4.8
			c0,2-0.5,3.7-1.4,4.9c-0.9,1.2-2.2,1.8-3.8,1.8c-1.6,0-2.8-0.6-3.8-1.8v0l-0.2,0.3c0,0,0,0,0,0c1,1.3,2.3,2,4,2c1.6,0,3-0.7,4-2
			c1-1.3,1.5-3,1.5-5.2C40.6,25.5,40.1,23.8,39.1,22.5z M53,30c0,0,0-0.1,0-0.1l-0.3,0.4c0,0.1,0,0.2,0,0.3c0,1.4-0.3,2.4-0.8,3
			c-0.5,0.6-1.4,0.9-2.5,0.9c-0.6,0-1.3-0.2-2.1-0.6L47,33.7c-0.5-0.2-0.9-0.3-1.2-0.4c-0.3-0.1-0.6-0.1-0.8-0.1
			c-0.4,0-0.7,0.1-1,0.3c-0.2,0.1-0.4,0.3-0.5,0.6h-1.1l-0.3,0.4h1.5c0.1-0.3,0.3-0.5,0.5-0.6c0.2-0.2,0.5-0.2,0.8-0.2
			c0.2,0,0.5,0,0.8,0.1c0.3,0.1,0.7,0.2,1.1,0.4l0.3,0.1c0.9,0.4,1.6,0.6,2.2,0.6c1.2,0,2.1-0.3,2.7-1c0.6-0.7,0.9-1.8,0.9-3.2
			C53,30.3,53,30.1,53,30z M42.6,26.5c0.4,0.4,0.9,0.6,1.5,0.6c0.5,0,0.9-0.2,1.3-0.5c0.3-0.3,0.5-0.7,0.5-1.2c0-0.4-0.1-0.7-0.3-1
			l-0.2,0.3c0,0,0,0,0,0c0.2,0.2,0.2,0.4,0.2,0.7c0,0.3-0.1,0.6-0.4,0.9c-0.3,0.3-0.6,0.4-1.1,0.4c-0.6,0-1-0.2-1.3-0.5L42.6,26.5
			C42.6,26.5,42.6,26.5,42.6,26.5z M51.8,22.8C51.8,22.8,51.8,22.8,51.8,22.8c0.4,0.6,0.6,1.3,0.6,2.1c0,0.9-0.3,1.6-0.8,2.3
			c-0.6,0.7-1.5,1.2-2.7,1.6c-0.2,0.1-0.4,0.1-0.7,0.2c-2.2,0.7-3.6,1.5-4.2,2.5c-0.1,0.2-0.1,0.5,0,0.7l0.2-0.2c0-0.1,0-0.2,0-0.2
			c0.6-0.9,1.9-1.7,4-2.4c0.3-0.1,0.6-0.2,0.7-0.2c1.2-0.4,2.2-1,2.8-1.7c0.6-0.7,0.9-1.6,0.9-2.5c0-0.9-0.2-1.7-0.7-2.4L51.8,22.8z
			 M48.4,22.5c-0.5-0.5-1.2-0.7-2.1-0.7c-0.7,0-1.3,0.2-1.8,0.5c-0.5,0.3-0.9,0.8-1.1,1.4c-0.1,0.2-0.1,0.4,0.1,0.6l0.2-0.2
			c0-0.1,0-0.1,0-0.2c0.2-0.5,0.5-1,1-1.3c0.4-0.3,1-0.4,1.6-0.4c0.8,0,1.4,0.2,1.9,0.6L48.4,22.5C48.5,22.5,48.4,22.5,48.4,22.5z"
			/>
	</g>
	<rect x="10.2" class="st7" width="300" height="373.7"/>
	<g>
		<polygon class="st1" points="10,349 0,335.9 10,335.9 		"/>
		<polygon class="st1" points="310,349 320,335.9 310,335.9 		"/>
		<rect x="10" y="328.8" class="st8" width="300" height="12.4"/>
	</g>
	<g>
		<rect x="0" y="69" class="st2" width="320" height="266.7"/>
	</g>
	<g>
		<g>
			<g>
				<path class="st1" d="M31.2,129.5c-0.4-0.2-0.7-0.5-0.9-0.8c-0.2-0.4-0.3-0.8-0.3-1.2c0-0.4,0.1-0.8,0.3-1.1
					c0.2-0.4,0.5-0.7,0.9-0.9c0.4-0.2,0.8-0.3,1.2-0.3c0.4,0,0.8,0.1,1.2,0.3c0.4,0.2,0.7,0.5,0.9,0.8c0.2,0.4,0.3,0.8,0.3,1.2
					c0,0.4-0.1,0.8-0.3,1.2c-0.2,0.4-0.5,0.6-0.9,0.8c-0.4,0.2-0.8,0.3-1.2,0.3S31.6,129.7,31.2,129.5z"/>
				<path class="st1" d="M32.4,129.9c-0.4,0-0.9-0.1-1.3-0.3l0,0c-0.4-0.2-0.7-0.5-0.9-0.9c-0.2-0.4-0.3-0.8-0.3-1.2
					c0-0.4,0.1-0.8,0.3-1.2c0.2-0.4,0.5-0.7,0.9-0.9c0.4-0.2,0.8-0.3,1.3-0.3c0.4,0,0.9,0.1,1.2,0.3c0.4,0.2,0.7,0.5,0.9,0.9
					c0.2,0.4,0.3,0.8,0.3,1.3c0,0.4-0.1,0.9-0.3,1.2c-0.2,0.4-0.5,0.7-0.9,0.9C33.2,129.8,32.8,129.9,32.4,129.9z M31.2,129.4
					c0.7,0.4,1.6,0.4,2.3,0c0.3-0.2,0.6-0.5,0.8-0.8c0.2-0.3,0.3-0.7,0.3-1.1c0-0.4-0.1-0.8-0.3-1.1c-0.2-0.3-0.5-0.6-0.8-0.8
					c-0.3-0.2-0.7-0.3-1.1-0.3c-0.4,0-0.8,0.1-1.2,0.3c-0.3,0.2-0.6,0.5-0.8,0.8c-0.2,0.3-0.3,0.7-0.3,1.1c0,0.4,0.1,0.8,0.3,1.1
					S30.9,129.2,31.2,129.4L31.2,129.4z"/>
			</g>
			<path class="st9" d="M60.4,131l-5-4.5v4.5h-0.8v-9.3h0.8v4.3l4.8-4.3h1.1l-5,4.5l5.3,4.8H60.4z"/>
			<path class="st9" d="M63.6,121.7v1h-1.1v-1H63.6z M62.7,124.4h0.8v6.5h-0.8V124.4z"/>
			<path class="st9" d="M66.7,130.6c-0.5-0.3-0.8-0.7-1.1-1.2c-0.3-0.5-0.4-1.1-0.4-1.8c0-0.7,0.1-1.3,0.4-1.8
				c0.3-0.5,0.6-0.9,1.1-1.2c0.5-0.3,1-0.4,1.6-0.4c0.4,0,0.9,0.1,1.3,0.2c0.4,0.2,0.7,0.4,1,0.6l-0.3,0.6c-0.3-0.3-0.7-0.5-1-0.6
				c-0.3-0.1-0.6-0.2-1-0.2c-0.7,0-1.3,0.2-1.7,0.7c-0.4,0.5-0.6,1.2-0.6,2c0,0.8,0.2,1.5,0.6,2s1,0.7,1.7,0.7c0.3,0,0.7-0.1,1-0.2
				c0.3-0.1,0.6-0.3,1-0.6l0.3,0.6c-0.3,0.3-0.6,0.5-1,0.6c-0.4,0.2-0.8,0.2-1.3,0.2C67.7,131.1,67.2,130.9,66.7,130.6z"/>
			<path class="st9" d="M76.6,131l-3.6-3.2v3.2h-0.8v-9.6H73v6.1l3.3-3h1l-3.4,3.1l3.8,3.4H76.6z"/>
			<path class="st9" d="M78.4,127.1H82v0.7h-3.6V127.1z"/>
			<path class="st9" d="M85.8,130.5c-0.6-0.4-1.1-0.9-1.4-1.6c-0.3-0.7-0.5-1.6-0.5-2.5c0-1,0.2-1.8,0.5-2.5
				c0.3-0.7,0.8-1.3,1.4-1.6c0.6-0.4,1.4-0.6,2.2-0.6c0.9,0,1.6,0.2,2.2,0.6c0.6,0.4,1.1,0.9,1.4,1.6s0.5,1.6,0.5,2.5
				s-0.2,1.8-0.5,2.5c-0.3,0.7-0.8,1.3-1.4,1.7s-1.4,0.6-2.2,0.6C87.1,131.1,86.4,130.9,85.8,130.5z M90.4,129.3
				c0.6-0.7,0.9-1.7,0.9-3c0-1.3-0.3-2.3-0.9-3s-1.4-1-2.4-1c-1,0-1.9,0.4-2.4,1.1c-0.6,0.7-0.9,1.7-0.9,3c0,1.3,0.3,2.3,0.9,3
				s1.4,1.1,2.4,1.1C89,130.4,89.9,130,90.4,129.3z"/>
			<path class="st9" d="M95.5,122.3c-0.2,0.2-0.3,0.6-0.3,1.1v1h1.7v0.6h-1.7v5.9h-0.8v-5.9h-1.3v-0.6h1.3v-1.2
				c0-0.7,0.2-1.1,0.5-1.5c0.3-0.3,0.8-0.5,1.3-0.5c0.3,0,0.5,0,0.8,0.1v0.7c-0.2-0.1-0.5-0.1-0.7-0.1C96,122,95.7,122.1,95.5,122.3
				z"/>
			<path class="st9" d="M99.9,122.3c-0.2,0.2-0.3,0.6-0.3,1.1v1h1.7v0.6h-1.7v5.9h-0.8v-5.9h-1.3v-0.6h1.3v-1.2
				c0-0.7,0.2-1.1,0.5-1.5c0.3-0.3,0.8-0.5,1.3-0.5c0.3,0,0.5,0,0.8,0.1v0.7c-0.2-0.1-0.5-0.1-0.7-0.1
				C100.4,122,100.1,122.1,99.9,122.3z"/>
			<path class="st9" d="M106.8,130.5c-0.2-1-0.3-1.9-0.3-3c0-1,0.1-2,0.3-2.9c0.2-1,0.6-1.9,1.1-2.9h0.7c-0.5,1.1-0.8,2.1-1,3
				c-0.2,0.9-0.3,1.9-0.3,2.8s0.1,1.9,0.3,2.8c0.2,0.9,0.5,2,1,3h-0.7C107.4,132.4,107.1,131.4,106.8,130.5z"/>
			<path class="st9" d="M116.2,126.8c-0.4,0.8-0.9,1.3-1.7,1.3c-0.3,0-0.6-0.1-0.8-0.2c-0.3-0.1-0.6-0.3-1-0.5
				c-0.3-0.2-0.5-0.3-0.7-0.4s-0.4-0.1-0.5-0.1c-0.3,0-0.5,0.1-0.7,0.2s-0.3,0.4-0.4,0.7l-0.6-0.3c0.3-0.8,0.9-1.2,1.7-1.2
				c0.3,0,0.6,0.1,0.8,0.2c0.3,0.1,0.6,0.3,1,0.5c0.3,0.2,0.5,0.3,0.7,0.4c0.2,0.1,0.4,0.1,0.5,0.1c0.3,0,0.5-0.1,0.7-0.2
				s0.3-0.4,0.5-0.6L116.2,126.8z"/>
			<path class="st9" d="M123.7,130.3v0.7h-4.9v-0.7h2.1v-7.5l-1.9,1.2v-0.8l2.3-1.5h0.5v8.6H123.7z"/>
			<path class="st9" d="M139.1,124.4l-2.4,6.5h-0.8l-2-5.5l-2,5.5h-0.8l-2.4-6.5h0.8l1.9,5.6l2-5.6h0.8l2,5.6l2-5.6H139.1z"/>
			<path class="st9" d="M141.1,127.6L141.1,127.6c0,0.9,0.2,1.6,0.6,2.1c0.4,0.5,1,0.7,1.8,0.7c0.8,0,1.5-0.3,2.2-0.8l0.3,0.6
				c-0.3,0.3-0.7,0.5-1.1,0.6s-0.9,0.2-1.4,0.2c-1,0-1.8-0.3-2.4-0.9c-0.6-0.6-0.9-1.4-0.9-2.5c0-0.7,0.1-1.3,0.4-1.8
				c0.3-0.5,0.6-0.9,1.1-1.2c0.5-0.3,1-0.4,1.6-0.4c0.9,0,1.5,0.3,2,0.8s0.7,1.3,0.7,2.3v0.2H141.1z M141.8,125.5
				c-0.4,0.4-0.6,0.9-0.7,1.5h4.2c-0.1-0.7-0.2-1.2-0.6-1.5c-0.3-0.4-0.8-0.5-1.4-0.5C142.7,124.9,142.2,125.1,141.8,125.5z"/>
			<path class="st9" d="M148.2,127.6L148.2,127.6c0,0.9,0.2,1.6,0.6,2.1c0.4,0.5,1,0.7,1.8,0.7c0.8,0,1.5-0.3,2.2-0.8l0.3,0.6
				c-0.3,0.3-0.7,0.5-1.1,0.6s-0.9,0.2-1.4,0.2c-1,0-1.8-0.3-2.4-0.9c-0.6-0.6-0.9-1.4-0.9-2.5c0-0.7,0.1-1.3,0.4-1.8
				c0.3-0.5,0.6-0.9,1.1-1.2c0.5-0.3,1-0.4,1.6-0.4c0.9,0,1.5,0.3,2,0.8s0.7,1.3,0.7,2.3v0.2H148.2z M149,125.5
				c-0.4,0.4-0.6,0.9-0.7,1.5h4.2c-0.1-0.7-0.2-1.2-0.6-1.5c-0.3-0.4-0.8-0.5-1.4-0.5C149.9,124.9,149.4,125.1,149,125.5z"/>
			<path class="st9" d="M159.4,131l-3.6-3.2v3.2H155v-9.6h0.8v6.1l3.3-3h1l-3.4,3.1l3.8,3.4H159.4z"/>
			<path class="st9" d="M160.9,133.4c0.5-1.1,0.8-2.1,1-3c0.2-1,0.3-1.9,0.3-2.8c0-0.9-0.1-1.9-0.3-2.8s-0.5-1.9-1-3h0.7
				c0.5,1,0.8,1.9,1.1,2.9c0.2,1,0.3,1.9,0.3,2.9c0,1-0.1,2-0.3,3c-0.2,1-0.6,1.9-1.1,2.9H160.9z"/>
			<path class="st9" d="M54.6,146.2h5.6v0.7h-4.8v3.5H60v0.7h-4.5v4.4h-0.8V146.2z"/>
			<path class="st9" d="M62.1,152.1L62.1,152.1c0,0.9,0.2,1.6,0.6,2.1c0.4,0.5,1,0.7,1.8,0.7c0.8,0,1.5-0.3,2.2-0.8l0.3,0.6
				c-0.3,0.3-0.7,0.5-1.1,0.6s-0.9,0.2-1.4,0.2c-1,0-1.8-0.3-2.4-0.9c-0.6-0.6-0.9-1.4-0.9-2.5c0-0.7,0.1-1.3,0.4-1.8
				c0.3-0.5,0.6-0.9,1.1-1.2c0.5-0.3,1-0.4,1.6-0.4c0.9,0,1.5,0.3,2,0.8s0.7,1.3,0.7,2.3v0.2H62.1z M62.9,150
				c-0.4,0.4-0.6,0.9-0.7,1.5h4.2c-0.1-0.7-0.2-1.2-0.6-1.5c-0.3-0.4-0.8-0.5-1.4-0.5C63.8,149.4,63.3,149.6,62.9,150z"/>
			<path class="st9" d="M74.4,145.9v9.6h-0.8v-1.3c-0.2,0.4-0.5,0.8-0.9,1c-0.4,0.2-0.9,0.3-1.4,0.3c-0.6,0-1.1-0.1-1.5-0.4
				c-0.4-0.3-0.8-0.7-1-1.2c-0.2-0.5-0.4-1.1-0.4-1.8c0-0.7,0.1-1.3,0.4-1.8c0.2-0.5,0.6-0.9,1-1.2c0.4-0.3,1-0.4,1.5-0.4
				c0.5,0,1,0.1,1.4,0.3s0.7,0.6,0.9,1v-4.2H74.4z M73.1,154.2c0.4-0.5,0.6-1.1,0.6-2c0-0.9-0.2-1.5-0.6-2c-0.4-0.5-0.9-0.7-1.6-0.7
				c-0.7,0-1.2,0.2-1.6,0.7c-0.4,0.5-0.6,1.1-0.6,2c0,0.9,0.2,1.5,0.6,2c0.4,0.5,0.9,0.7,1.6,0.7C72.2,154.9,72.7,154.6,73.1,154.2z
				"/>
			<path class="st9" d="M84,155.5h-0.8l-1.2-3.1c-0.1-0.4-0.4-0.7-0.6-0.8c-0.3-0.1-0.6-0.2-1.1-0.2h-2.6v4.2h-0.8v-9.3h3.6
				c1,0,1.7,0.2,2.2,0.7c0.5,0.4,0.8,1.1,0.8,1.9c0,0.6-0.2,1.1-0.5,1.5c-0.3,0.4-0.8,0.7-1.4,0.9c0.3,0,0.5,0.2,0.7,0.3
				c0.2,0.2,0.4,0.5,0.5,0.8L84,155.5z M80.3,150.6c1.5,0,2.3-0.6,2.3-1.9c0-1.2-0.8-1.8-2.3-1.8h-2.7v3.8H80.3z"/>
			<path class="st9" d="M91.8,153h-5l-1.1,2.5h-0.8l4.1-9.3h0.7l4,9.3h-0.8L91.8,153z M91.5,152.3l-2.2-5.1l-2.2,5.1H91.5z"/>
			<path class="st9" d="M104,146.2v9.3h-0.8V148l-3.3,7.4h-0.6l-3.3-7.4l0,7.4h-0.8v-9.3H96l3.7,8.3l3.6-8.3H104z"/>
			<path class="st9" d="M106.5,146.2h3.6c0.9,0,1.7,0.2,2.2,0.7c0.5,0.5,0.8,1.1,0.8,1.9c0,0.8-0.3,1.4-0.8,1.9s-1.3,0.7-2.2,0.7
				h-2.8v4.2h-0.8V146.2z M110,150.6c0.7,0,1.3-0.2,1.7-0.5c0.4-0.3,0.6-0.8,0.6-1.4c0-0.6-0.2-1-0.6-1.4c-0.4-0.3-0.9-0.5-1.7-0.5
				h-2.7v3.7H110z"/>
			<path class="st9" d="M127,146.2v9.3h-0.8V148l-3.3,7.4h-0.6l-3.3-7.4l0,7.4h-0.8v-9.3h0.7l3.7,8.3l3.6-8.3H127z"/>
			<path class="st9" d="M135,148.9v6.5h-0.8v-1.3c-0.2,0.4-0.5,0.8-0.9,1c-0.4,0.2-0.9,0.3-1.4,0.3c-0.6,0-1.1-0.1-1.5-0.4
				c-0.4-0.3-0.8-0.7-1-1.2c-0.2-0.5-0.4-1.1-0.4-1.8c0-0.7,0.1-1.3,0.4-1.8c0.2-0.5,0.6-0.9,1-1.2c0.4-0.3,0.9-0.4,1.5-0.4
				c0.5,0,1,0.1,1.4,0.3s0.7,0.6,0.9,1v-1.2H135z M133.6,154.2c0.4-0.5,0.6-1.1,0.6-2c0-0.9-0.2-1.5-0.6-2c-0.4-0.5-0.9-0.7-1.6-0.7
				c-0.7,0-1.2,0.2-1.6,0.7c-0.4,0.5-0.6,1.2-0.6,2c0,0.8,0.2,1.5,0.6,2c0.4,0.5,0.9,0.7,1.6,0.7
				C132.7,154.9,133.2,154.6,133.6,154.2z"/>
			<path class="st9" d="M140.6,148.8l0,0.7c-0.2,0-0.4-0.1-0.6-0.1c-0.7,0-1.2,0.2-1.5,0.6c-0.3,0.4-0.5,0.9-0.5,1.5v3.8h-0.8v-4.7
				c0-0.7,0-1.3-0.1-1.8h0.8l0.1,1.2c0.2-0.4,0.4-0.8,0.8-1c0.4-0.2,0.8-0.4,1.3-0.4C140.2,148.8,140.4,148.8,140.6,148.8z"/>
			<path class="st9" d="M146.2,155.5l-3.6-3.2v3.2h-0.8v-9.6h0.8v6.1l3.3-3h1l-3.4,3.1l3.8,3.4H146.2z"/>
			<path class="st9" d="M148.7,152.1L148.7,152.1c0,0.9,0.2,1.6,0.6,2.1c0.4,0.5,1,0.7,1.8,0.7c0.8,0,1.5-0.3,2.2-0.8l0.3,0.6
				c-0.3,0.3-0.7,0.5-1.1,0.6s-0.9,0.2-1.4,0.2c-1,0-1.8-0.3-2.4-0.9c-0.6-0.6-0.9-1.4-0.9-2.5c0-0.7,0.1-1.3,0.4-1.8
				c0.3-0.5,0.6-0.9,1.1-1.2c0.5-0.3,1-0.4,1.6-0.4c0.9,0,1.5,0.3,2,0.8s0.7,1.3,0.7,2.3v0.2H148.7z M149.4,150
				c-0.4,0.4-0.6,0.9-0.7,1.5h4.2c-0.1-0.7-0.2-1.2-0.6-1.5c-0.3-0.4-0.8-0.5-1.4-0.5C150.3,149.4,149.8,149.6,149.4,150z"/>
			<path class="st9" d="M156.5,149.6v3.9c0,0.5,0.1,0.9,0.3,1.1s0.5,0.3,0.9,0.3c0.2,0,0.5,0,0.7-0.1v0.7c-0.3,0.1-0.6,0.1-0.8,0.1
				c-0.6,0-1-0.2-1.4-0.5c-0.3-0.3-0.5-0.8-0.5-1.5v-4.1h-1.3v-0.6h1.3v-1.7l0.8-0.3v2h1.9v0.6H156.5z"/>
			<path class="st9" d="M164.5,149.2c0.4,0.3,0.8,0.7,1,1.2c0.2,0.5,0.4,1.1,0.4,1.8c0,0.7-0.1,1.3-0.4,1.8c-0.2,0.5-0.6,0.9-1,1.2
				c-0.4,0.3-1,0.4-1.5,0.4c-0.5,0-1-0.1-1.4-0.4c-0.4-0.2-0.7-0.6-0.9-1v4.1h-0.8v-7.6c0-0.7,0-1.3-0.1-1.8h0.8l0.1,1.3
				c0.2-0.5,0.5-0.8,0.9-1.1c0.4-0.2,0.9-0.4,1.4-0.4C163.5,148.8,164,148.9,164.5,149.2z M164.4,154.2c0.4-0.5,0.6-1.1,0.6-2
				c0-0.9-0.2-1.5-0.6-2c-0.4-0.5-0.9-0.7-1.6-0.7c-0.7,0-1.2,0.2-1.6,0.7c-0.4,0.5-0.6,1.1-0.6,2c0,0.9,0.2,1.5,0.6,2
				c0.4,0.5,0.9,0.7,1.6,0.7C163.5,154.9,164.1,154.6,164.4,154.2z"/>
			<path class="st9" d="M167.7,145.9h0.8v9.6h-0.8V145.9z"/>
			<path class="st9" d="M176.3,148.9v6.5h-0.8v-1.3c-0.2,0.4-0.5,0.8-0.9,1c-0.4,0.2-0.9,0.3-1.4,0.3c-0.6,0-1.1-0.1-1.5-0.4
				c-0.4-0.3-0.8-0.7-1-1.2c-0.2-0.5-0.4-1.1-0.4-1.8c0-0.7,0.1-1.3,0.4-1.8c0.2-0.5,0.6-0.9,1-1.2c0.4-0.3,0.9-0.4,1.5-0.4
				c0.5,0,1,0.1,1.4,0.3s0.7,0.6,0.9,1v-1.2H176.3z M174.9,154.2c0.4-0.5,0.6-1.1,0.6-2c0-0.9-0.2-1.5-0.6-2
				c-0.4-0.5-0.9-0.7-1.6-0.7c-0.7,0-1.2,0.2-1.6,0.7c-0.4,0.5-0.6,1.2-0.6,2c0,0.8,0.2,1.5,0.6,2c0.4,0.5,0.9,0.7,1.6,0.7
				C174,154.9,174.5,154.6,174.9,154.2z"/>
			<path class="st9" d="M179.5,155.1c-0.5-0.3-0.8-0.7-1.1-1.2c-0.3-0.5-0.4-1.1-0.4-1.8c0-0.7,0.1-1.3,0.4-1.8
				c0.3-0.5,0.6-0.9,1.1-1.2c0.5-0.3,1-0.4,1.6-0.4c0.4,0,0.9,0.1,1.3,0.2c0.4,0.2,0.7,0.4,1,0.6l-0.3,0.6c-0.3-0.3-0.7-0.5-1-0.6
				c-0.3-0.1-0.6-0.2-1-0.2c-0.7,0-1.3,0.2-1.7,0.7c-0.4,0.5-0.6,1.2-0.6,2c0,0.8,0.2,1.5,0.6,2s1,0.7,1.7,0.7c0.3,0,0.7-0.1,1-0.2
				c0.3-0.1,0.6-0.3,1-0.6l0.3,0.6c-0.3,0.3-0.6,0.5-1,0.6c-0.4,0.2-0.8,0.2-1.3,0.2C180.5,155.6,180,155.4,179.5,155.1z"/>
			<path class="st9" d="M185.4,152.1L185.4,152.1c0,0.9,0.2,1.6,0.6,2.1c0.4,0.5,1,0.7,1.8,0.7c0.8,0,1.5-0.3,2.2-0.8l0.3,0.6
				c-0.3,0.3-0.7,0.5-1.1,0.6s-0.9,0.2-1.4,0.2c-1,0-1.8-0.3-2.4-0.9c-0.6-0.6-0.9-1.4-0.9-2.5c0-0.7,0.1-1.3,0.4-1.8
				c0.3-0.5,0.6-0.9,1.1-1.2c0.5-0.3,1-0.4,1.6-0.4c0.9,0,1.5,0.3,2,0.8s0.7,1.3,0.7,2.3v0.2H185.4z M186.1,150
				c-0.4,0.4-0.6,0.9-0.7,1.5h4.2c-0.1-0.7-0.2-1.2-0.6-1.5c-0.3-0.4-0.8-0.5-1.4-0.5C187,149.4,186.5,149.6,186.1,150z"/>
			<path class="st9" d="M195.6,146.2h3c1.5,0,2.6,0.4,3.4,1.2c0.8,0.8,1.2,1.9,1.2,3.4s-0.4,2.6-1.2,3.4c-0.8,0.8-1.9,1.2-3.4,1.2
				h-3V146.2z M198.6,154.8c1.3,0,2.2-0.3,2.8-1c0.6-0.7,1-1.7,1-3c0-2.6-1.3-3.9-3.8-3.9h-2.1v7.9H198.6z"/>
			<path class="st9" d="M205.7,152.1L205.7,152.1c0,0.9,0.2,1.6,0.6,2.1c0.4,0.5,1,0.7,1.8,0.7c0.8,0,1.5-0.3,2.2-0.8l0.3,0.6
				c-0.3,0.3-0.7,0.5-1.1,0.6s-0.9,0.2-1.4,0.2c-1,0-1.8-0.3-2.4-0.9c-0.6-0.6-0.9-1.4-0.9-2.5c0-0.7,0.1-1.3,0.4-1.8
				c0.3-0.5,0.6-0.9,1.1-1.2c0.5-0.3,1-0.4,1.6-0.4c0.9,0,1.5,0.3,2,0.8s0.7,1.3,0.7,2.3v0.2H205.7z M206.4,150
				c-0.4,0.4-0.6,0.9-0.7,1.5h4.2c-0.1-0.7-0.2-1.2-0.6-1.5c-0.3-0.4-0.8-0.5-1.4-0.5C207.3,149.4,206.8,149.6,206.4,150z"/>
			<path class="st9" d="M212,154.7l0.3-0.6c0.3,0.3,0.7,0.5,1.1,0.6c0.4,0.1,0.8,0.2,1.2,0.2c0.5,0,1-0.1,1.2-0.3
				c0.3-0.2,0.4-0.5,0.4-0.8c0-0.3-0.1-0.5-0.3-0.7c-0.2-0.2-0.5-0.3-0.9-0.4l-1.1-0.2c-0.5-0.1-0.9-0.3-1.2-0.7
				c-0.3-0.3-0.5-0.7-0.5-1.1c0-0.6,0.2-1,0.7-1.4c0.4-0.3,1-0.5,1.8-0.5c0.5,0,0.9,0.1,1.3,0.2s0.7,0.4,1,0.6l-0.3,0.6
				c-0.6-0.5-1.3-0.8-2-0.8c-0.5,0-0.9,0.1-1.2,0.3c-0.3,0.2-0.4,0.5-0.4,0.8c0,0.3,0.1,0.5,0.3,0.7c0.2,0.2,0.5,0.3,0.8,0.4
				l1.1,0.3c1.2,0.3,1.8,0.8,1.8,1.7c0,0.5-0.2,1-0.7,1.3s-1.1,0.5-1.8,0.5C213.5,155.6,212.6,155.3,212,154.7z"/>
			<path class="st9" d="M219.9,146.2v1h-1.1v-1H219.9z M218.9,148.9h0.8v6.5h-0.8V148.9z"/>
			<path class="st9" d="M227.6,148.9v6.6c0,0.9-0.2,1.7-0.7,2.2c-0.5,0.5-1.2,0.7-2.1,0.7c-1,0-1.8-0.2-2.5-0.7l0.2-0.7
				c0.4,0.3,0.8,0.4,1.2,0.5c0.4,0.1,0.8,0.2,1.2,0.2c0.7,0,1.1-0.2,1.5-0.5c0.3-0.4,0.5-0.9,0.5-1.6v-1.7c-0.2,0.4-0.5,0.8-0.9,1
				c-0.4,0.2-0.9,0.4-1.4,0.4c-0.6,0-1.1-0.1-1.5-0.4s-0.8-0.7-1-1.2c-0.2-0.5-0.4-1.1-0.4-1.7c0-0.6,0.1-1.2,0.4-1.7s0.6-0.9,1-1.1
				c0.4-0.3,1-0.4,1.5-0.4c0.5,0,1,0.1,1.4,0.3s0.7,0.6,0.9,1v-1.2H227.6z M226.2,153.9c0.4-0.5,0.6-1.1,0.6-1.9
				c0-0.8-0.2-1.4-0.6-1.9c-0.4-0.5-0.9-0.7-1.6-0.7c-0.7,0-1.2,0.2-1.6,0.7s-0.6,1.1-0.6,1.9c0,0.8,0.2,1.4,0.6,1.9
				c0.4,0.4,0.9,0.7,1.6,0.7C225.3,154.6,225.8,154.3,226.2,153.9z"/>
			<path class="st9" d="M235.2,151.3v4.2h-0.8v-4.1c0-0.7-0.1-1.1-0.4-1.4c-0.3-0.3-0.7-0.5-1.2-0.5c-0.7,0-1.2,0.2-1.6,0.6
				c-0.4,0.4-0.6,0.9-0.6,1.6v3.8h-0.8v-4.7c0-0.7,0-1.3-0.1-1.8h0.8l0.1,1.2c0.2-0.4,0.5-0.8,0.9-1s0.9-0.3,1.4-0.3
				C234.4,148.8,235.2,149.6,235.2,151.3z"/>
			<path class="st9" d="M243,148.9v6.5h-0.8v-1.3c-0.2,0.4-0.5,0.8-0.9,1c-0.4,0.2-0.9,0.3-1.4,0.3c-0.6,0-1.1-0.1-1.5-0.4
				c-0.4-0.3-0.8-0.7-1-1.2c-0.2-0.5-0.4-1.1-0.4-1.8c0-0.7,0.1-1.3,0.4-1.8c0.2-0.5,0.6-0.9,1-1.2c0.4-0.3,0.9-0.4,1.5-0.4
				c0.5,0,1,0.1,1.4,0.3s0.7,0.6,0.9,1v-1.2H243z M241.6,154.2c0.4-0.5,0.6-1.1,0.6-2c0-0.9-0.2-1.5-0.6-2c-0.4-0.5-0.9-0.7-1.6-0.7
				c-0.7,0-1.2,0.2-1.6,0.7c-0.4,0.5-0.6,1.2-0.6,2c0,0.8,0.2,1.5,0.6,2c0.4,0.5,0.9,0.7,1.6,0.7
				C240.7,154.9,241.3,154.6,241.6,154.2z"/>
			<path class="st9" d="M246.3,149.6v3.9c0,0.5,0.1,0.9,0.3,1.1s0.5,0.3,0.9,0.3c0.2,0,0.5,0,0.7-0.1v0.7c-0.3,0.1-0.6,0.1-0.8,0.1
				c-0.6,0-1-0.2-1.4-0.5c-0.3-0.3-0.5-0.8-0.5-1.5v-4.1h-1.3v-0.6h1.3v-1.7l0.8-0.3v2h1.9v0.6H246.3z"/>
			<path class="st9" d="M250.6,146.2v1h-1.1v-1H250.6z M249.7,148.9h0.8v6.5h-0.8V148.9z"/>
			<path class="st9" d="M253.7,155.1c-0.5-0.3-0.8-0.7-1.1-1.2c-0.2-0.5-0.4-1.1-0.4-1.8s0.1-1.3,0.4-1.8c0.2-0.5,0.6-0.9,1.1-1.2
				c0.5-0.3,1-0.4,1.6-0.4c0.6,0,1.1,0.1,1.6,0.4s0.8,0.7,1.1,1.2c0.2,0.5,0.4,1.1,0.4,1.8s-0.1,1.3-0.4,1.8
				c-0.2,0.5-0.6,0.9-1.1,1.2s-1,0.4-1.6,0.4C254.7,155.6,254.2,155.4,253.7,155.1z M256.9,154.2c0.4-0.5,0.6-1.1,0.6-2
				c0-0.9-0.2-1.5-0.6-2c-0.4-0.5-0.9-0.7-1.6-0.7c-0.7,0-1.2,0.2-1.6,0.7c-0.4,0.5-0.6,1.1-0.6,2c0,0.9,0.2,1.5,0.6,2
				c0.4,0.5,0.9,0.7,1.6,0.7S256.6,154.6,256.9,154.2z"/>
			<path class="st9" d="M265.6,151.3v4.2h-0.8v-4.1c0-0.7-0.1-1.1-0.4-1.4c-0.3-0.3-0.7-0.5-1.2-0.5c-0.7,0-1.2,0.2-1.6,0.6
				c-0.4,0.4-0.6,0.9-0.6,1.6v3.8h-0.8v-4.7c0-0.7,0-1.3-0.1-1.8h0.8l0.1,1.2c0.2-0.4,0.5-0.8,0.9-1s0.9-0.3,1.4-0.3
				C264.8,148.8,265.6,149.6,265.6,151.3z"/>
			<path class="st9" d="M54.4,168H58v0.7h-3.6V168z"/>
			<path class="st9" d="M63.6,162.5h0.8v9.3h-0.8V162.5z"/>
			<path class="st9" d="M72.2,167.6v4.2h-0.8v-4.1c0-0.7-0.1-1.1-0.4-1.4c-0.3-0.3-0.7-0.5-1.2-0.5c-0.7,0-1.2,0.2-1.6,0.6
				c-0.4,0.4-0.6,0.9-0.6,1.6v3.8h-0.8v-4.7c0-0.7,0-1.3-0.1-1.8h0.8l0.1,1.2c0.2-0.4,0.5-0.8,0.9-1c0.4-0.2,0.9-0.3,1.4-0.3
				C71.4,165.1,72.2,166,72.2,167.6z"/>
			<path class="st9" d="M77.9,162.5h3.6c0.9,0,1.7,0.2,2.2,0.7c0.5,0.5,0.8,1.1,0.8,1.9c0,0.8-0.3,1.4-0.8,1.9
				c-0.5,0.5-1.3,0.7-2.2,0.7h-2.8v4.2h-0.8V162.5z M81.4,166.9c0.7,0,1.3-0.2,1.7-0.5c0.4-0.3,0.6-0.8,0.6-1.4c0-0.6-0.2-1-0.6-1.4
				c-0.4-0.3-0.9-0.5-1.7-0.5h-2.7v3.7H81.4z"/>
			<path class="st9" d="M89.5,165.2l0,0.7c-0.2,0-0.4-0.1-0.6-0.1c-0.7,0-1.2,0.2-1.5,0.6c-0.3,0.4-0.5,0.9-0.5,1.5v3.8h-0.8v-4.7
				c0-0.7,0-1.3-0.1-1.8h0.8l0.1,1.2c0.2-0.4,0.4-0.8,0.8-1c0.4-0.2,0.8-0.4,1.3-0.4C89.2,165.1,89.4,165.1,89.5,165.2z"/>
			<path class="st9" d="M91.7,171.5c-0.5-0.3-0.8-0.7-1.1-1.2s-0.4-1.1-0.4-1.8c0-0.7,0.1-1.3,0.4-1.8c0.2-0.5,0.6-0.9,1.1-1.2
				c0.5-0.3,1-0.4,1.6-0.4c0.6,0,1.1,0.1,1.6,0.4c0.5,0.3,0.8,0.7,1.1,1.2c0.2,0.5,0.4,1.1,0.4,1.8c0,0.7-0.1,1.3-0.4,1.8
				c-0.2,0.5-0.6,0.9-1.1,1.2c-0.5,0.3-1,0.4-1.6,0.4C92.6,171.9,92.1,171.8,91.7,171.5z M94.8,170.5c0.4-0.5,0.6-1.1,0.6-2
				c0-0.9-0.2-1.5-0.6-2s-0.9-0.7-1.6-0.7c-0.7,0-1.2,0.2-1.6,0.7c-0.4,0.5-0.6,1.1-0.6,2c0,0.9,0.2,1.5,0.6,2
				c0.4,0.5,0.9,0.7,1.6,0.7S94.5,171,94.8,170.5z"/>
			<path class="st9" d="M99.1,171.5c-0.5-0.3-0.8-0.7-1.1-1.2c-0.3-0.5-0.4-1.1-0.4-1.8c0-0.7,0.1-1.3,0.4-1.8
				c0.3-0.5,0.6-0.9,1.1-1.2c0.5-0.3,1-0.4,1.6-0.4c0.4,0,0.9,0.1,1.3,0.2c0.4,0.2,0.7,0.4,1,0.6l-0.3,0.6c-0.3-0.3-0.7-0.5-1-0.6
				s-0.6-0.2-1-0.2c-0.7,0-1.3,0.2-1.7,0.7c-0.4,0.5-0.6,1.2-0.6,2c0,0.8,0.2,1.5,0.6,2c0.4,0.5,1,0.7,1.7,0.7c0.3,0,0.7-0.1,1-0.2
				s0.6-0.3,1-0.6l0.3,0.6c-0.3,0.3-0.6,0.5-1,0.6c-0.4,0.2-0.8,0.2-1.3,0.2C100.1,171.9,99.5,171.8,99.1,171.5z"/>
			<path class="st9" d="M104.9,168.4L104.9,168.4c0,0.9,0.2,1.6,0.6,2.1c0.4,0.5,1,0.7,1.8,0.7c0.8,0,1.5-0.3,2.2-0.8l0.3,0.6
				c-0.3,0.3-0.7,0.5-1.1,0.6s-0.9,0.2-1.4,0.2c-1,0-1.8-0.3-2.4-0.9c-0.6-0.6-0.9-1.4-0.9-2.5c0-0.7,0.1-1.3,0.4-1.8
				c0.3-0.5,0.6-0.9,1.1-1.2c0.5-0.3,1-0.4,1.6-0.4c0.9,0,1.5,0.3,2,0.8s0.7,1.3,0.7,2.3v0.2H104.9z M105.7,166.3
				c-0.4,0.4-0.6,0.9-0.7,1.5h4.2c-0.1-0.7-0.2-1.2-0.6-1.5c-0.3-0.4-0.8-0.5-1.4-0.5C106.6,165.8,106.1,165.9,105.7,166.3z"/>
			<path class="st9" d="M111.3,171l0.3-0.6c0.3,0.3,0.7,0.5,1.1,0.6s0.8,0.2,1.2,0.2c0.5,0,1-0.1,1.2-0.3c0.3-0.2,0.4-0.5,0.4-0.8
				c0-0.3-0.1-0.5-0.3-0.7c-0.2-0.2-0.5-0.3-0.9-0.4l-1.1-0.2c-0.5-0.1-0.9-0.3-1.2-0.7c-0.3-0.3-0.5-0.7-0.5-1.1
				c0-0.6,0.2-1,0.7-1.4c0.4-0.3,1-0.5,1.8-0.5c0.5,0,0.9,0.1,1.3,0.2c0.4,0.1,0.7,0.4,1,0.6l-0.3,0.6c-0.6-0.5-1.3-0.8-2-0.8
				c-0.5,0-0.9,0.1-1.2,0.3c-0.3,0.2-0.4,0.5-0.4,0.8c0,0.3,0.1,0.5,0.3,0.7s0.5,0.3,0.8,0.4l1.1,0.3c1.2,0.3,1.8,0.8,1.8,1.7
				c0,0.5-0.2,1-0.7,1.3c-0.5,0.3-1.1,0.5-1.8,0.5C112.8,171.9,111.9,171.6,111.3,171z"/>
			<path class="st9" d="M117.8,171l0.3-0.6c0.3,0.3,0.7,0.5,1.1,0.6s0.8,0.2,1.2,0.2c0.5,0,1-0.1,1.2-0.3c0.3-0.2,0.4-0.5,0.4-0.8
				c0-0.3-0.1-0.5-0.3-0.7c-0.2-0.2-0.5-0.3-0.9-0.4l-1.1-0.2c-0.5-0.1-0.9-0.3-1.2-0.7c-0.3-0.3-0.5-0.7-0.5-1.1
				c0-0.6,0.2-1,0.7-1.4c0.4-0.3,1-0.5,1.8-0.5c0.5,0,0.9,0.1,1.3,0.2c0.4,0.1,0.7,0.4,1,0.6l-0.3,0.6c-0.6-0.5-1.3-0.8-2-0.8
				c-0.5,0-0.9,0.1-1.2,0.3c-0.3,0.2-0.4,0.5-0.4,0.8c0,0.3,0.1,0.5,0.3,0.7s0.5,0.3,0.8,0.4l1.1,0.3c1.2,0.3,1.8,0.8,1.8,1.7
				c0,0.5-0.2,1-0.7,1.3c-0.5,0.3-1.1,0.5-1.8,0.5C119.3,171.9,118.4,171.6,117.8,171z"/>
			<g>
				<path class="st1" d="M31.2,194.8c-0.4-0.2-0.7-0.5-0.9-0.8s-0.3-0.8-0.3-1.2c0-0.4,0.1-0.8,0.3-1.1c0.2-0.4,0.5-0.7,0.9-0.9
					c0.4-0.2,0.8-0.3,1.2-0.3c0.4,0,0.8,0.1,1.2,0.3c0.4,0.2,0.7,0.5,0.9,0.8s0.3,0.8,0.3,1.2c0,0.4-0.1,0.8-0.3,1.2
					c-0.2,0.4-0.5,0.6-0.9,0.8c-0.4,0.2-0.8,0.3-1.2,0.3S31.6,195,31.2,194.8z"/>
				<path class="st1" d="M32.4,195.3c-0.4,0-0.9-0.1-1.2-0.3h0c-0.4-0.2-0.7-0.5-0.9-0.9c-0.2-0.4-0.3-0.8-0.3-1.2
					c0-0.4,0.1-0.8,0.3-1.2c0.2-0.4,0.5-0.7,0.9-0.9c0.4-0.2,0.8-0.3,1.3-0.3c0.4,0,0.9,0.1,1.2,0.3c0.4,0.2,0.7,0.5,0.9,0.9
					c0.2,0.4,0.3,0.8,0.3,1.3c0,0.4-0.1,0.9-0.3,1.2c-0.2,0.4-0.5,0.7-0.9,0.9C33.2,195.2,32.8,195.3,32.4,195.3z M31.2,194.7
					c0.7,0.4,1.6,0.4,2.3,0c0.3-0.2,0.6-0.5,0.8-0.8c0.2-0.3,0.3-0.7,0.3-1.1c0-0.4-0.1-0.8-0.3-1.1c-0.2-0.3-0.5-0.6-0.8-0.8
					c-0.3-0.2-0.7-0.3-1.1-0.3c-0.4,0-0.8,0.1-1.2,0.3c-0.3,0.2-0.6,0.5-0.8,0.8c-0.2,0.3-0.3,0.7-0.3,1.1c0,0.4,0.1,0.8,0.3,1.1
					S30.9,194.5,31.2,194.7z"/>
			</g>
			<path class="st9" d="M61.8,196.3h-0.8l-1.2-3.1c-0.1-0.4-0.4-0.7-0.6-0.8c-0.3-0.1-0.6-0.2-1.1-0.2h-2.6v4.2h-0.8V187h3.6
				c1,0,1.7,0.2,2.2,0.7c0.5,0.4,0.8,1.1,0.8,1.9c0,0.6-0.2,1.1-0.5,1.5c-0.3,0.4-0.8,0.7-1.4,0.9c0.3,0,0.5,0.2,0.7,0.3
				s0.4,0.5,0.5,0.8L61.8,196.3z M58.2,191.5c1.5,0,2.3-0.6,2.3-1.9c0-1.2-0.8-1.8-2.3-1.8h-2.7v3.8H58.2z"/>
			<path class="st9" d="M64,192.9L64,192.9c0,0.9,0.2,1.6,0.6,2.1c0.4,0.5,1,0.7,1.8,0.7c0.8,0,1.5-0.3,2.2-0.8l0.3,0.6
				c-0.3,0.3-0.7,0.5-1.1,0.6s-0.9,0.2-1.4,0.2c-1,0-1.8-0.3-2.4-0.9c-0.6-0.6-0.9-1.4-0.9-2.5c0-0.7,0.1-1.3,0.4-1.8
				c0.3-0.5,0.6-0.9,1.1-1.2s1-0.4,1.6-0.4c0.9,0,1.5,0.3,2,0.8s0.7,1.3,0.7,2.3v0.2H64z M64.7,190.8c-0.4,0.4-0.6,0.9-0.7,1.5h4.2
				c-0.1-0.7-0.2-1.2-0.6-1.5c-0.3-0.4-0.8-0.5-1.4-0.5C65.6,190.3,65.1,190.4,64.7,190.8z"/>
			<path class="st9" d="M76.2,189.8l-2.8,6.5h-0.8l-2.8-6.5h0.8l2.4,5.8l2.4-5.8H76.2z"/>
			<path class="st9" d="M78.5,187.1v1h-1.1v-1H78.5z M77.6,189.8h0.8v6.5h-0.8V189.8z"/>
			<path class="st9" d="M81,192.9L81,192.9c0,0.9,0.2,1.6,0.6,2.1c0.4,0.5,1,0.7,1.8,0.7c0.8,0,1.5-0.3,2.2-0.8l0.3,0.6
				c-0.3,0.3-0.7,0.5-1.1,0.6s-0.9,0.2-1.4,0.2c-1,0-1.8-0.3-2.4-0.9c-0.6-0.6-0.9-1.4-0.9-2.5c0-0.7,0.1-1.3,0.4-1.8
				c0.3-0.5,0.6-0.9,1.1-1.2s1-0.4,1.6-0.4c0.9,0,1.5,0.3,2,0.8s0.7,1.3,0.7,2.3v0.2H81z M81.8,190.8c-0.4,0.4-0.6,0.9-0.7,1.5h4.2
				c-0.1-0.7-0.2-1.2-0.6-1.5c-0.3-0.4-0.8-0.5-1.4-0.5C82.7,190.3,82.2,190.4,81.8,190.8z"/>
			<path class="st9" d="M97.5,189.8l-2.4,6.5h-0.8l-2-5.5l-2,5.5h-0.8l-2.4-6.5h0.8l1.9,5.6l2-5.6h0.8l2,5.6l2-5.6H97.5z"/>
			<path class="st9" d="M103.1,195.8c-0.2-1-0.3-1.9-0.3-3c0-1,0.1-2,0.3-2.9s0.6-1.9,1.1-2.9h0.7c-0.5,1.1-0.8,2.1-1,3
				c-0.2,0.9-0.3,1.9-0.3,2.8c0,0.9,0.1,1.9,0.3,2.8c0.2,1,0.5,2,1,3h-0.7C103.7,197.7,103.3,196.8,103.1,195.8z"/>
			<path class="st9" d="M112.5,192.2c-0.4,0.8-0.9,1.3-1.7,1.3c-0.3,0-0.6-0.1-0.8-0.2c-0.3-0.1-0.6-0.3-1-0.5
				c-0.3-0.2-0.5-0.3-0.7-0.4c-0.2-0.1-0.4-0.1-0.5-0.1c-0.3,0-0.5,0.1-0.7,0.2s-0.3,0.4-0.4,0.7l-0.6-0.3c0.3-0.8,0.9-1.2,1.7-1.2
				c0.3,0,0.6,0.1,0.8,0.2c0.3,0.1,0.6,0.3,1,0.5c0.3,0.2,0.5,0.3,0.7,0.4c0.2,0.1,0.4,0.1,0.5,0.1c0.3,0,0.5-0.1,0.7-0.2
				c0.2-0.2,0.3-0.4,0.5-0.6L112.5,192.2z"/>
			<path class="st9" d="M119.6,192.3c0.3,0.4,0.4,0.9,0.4,1.5c0,0.8-0.3,1.4-0.8,1.9s-1.2,0.7-2.1,0.7c-0.6,0-1.2-0.1-1.7-0.3
				c-0.5-0.2-1-0.5-1.4-0.9l0.3-0.6c0.4,0.4,0.9,0.7,1.3,0.8c0.4,0.2,0.9,0.3,1.4,0.3c0.7,0,1.2-0.2,1.6-0.5
				c0.4-0.3,0.6-0.8,0.6-1.4c0-1.2-0.8-1.9-2.3-1.9h-1v-0.7h0.8c0.7,0,1.3-0.2,1.7-0.5c0.4-0.3,0.6-0.8,0.6-1.4
				c0-0.5-0.2-0.9-0.5-1.2s-0.8-0.4-1.4-0.4c-0.9,0-1.8,0.4-2.7,1.1l-0.3-0.6c0.4-0.4,0.8-0.7,1.4-0.9c0.5-0.2,1.1-0.3,1.7-0.3
				c0.8,0,1.5,0.2,1.9,0.6c0.5,0.4,0.7,1,0.7,1.7c0,0.5-0.1,1-0.4,1.4c-0.3,0.4-0.6,0.7-1.1,0.9C118.9,191.7,119.4,192,119.6,192.3z
				"/>
			<path class="st9" d="M122.2,192.5h3.6v0.7h-3.6V192.5z"/>
			<path class="st9" d="M134.1,194.2h-1.4v2.1h-0.8v-2.1h-4.4v-0.6l4.5-6.6h0.7v6.5h1.4V194.2z M131.9,193.5v-5.1l-3.5,5.1H131.9z"
				/>
			<path class="st9" d="M148.9,189.8l-2.4,6.5h-0.8l-2-5.5l-2,5.5h-0.8l-2.4-6.5h0.8l1.9,5.6l2-5.6h0.8l2,5.6l2-5.6H148.9z"/>
			<path class="st9" d="M150.9,192.9L150.9,192.9c0,0.9,0.2,1.6,0.6,2.1c0.4,0.5,1,0.7,1.8,0.7c0.8,0,1.5-0.3,2.2-0.8l0.3,0.6
				c-0.3,0.3-0.7,0.5-1.1,0.6s-0.9,0.2-1.4,0.2c-1,0-1.8-0.3-2.4-0.9c-0.6-0.6-0.9-1.4-0.9-2.5c0-0.7,0.1-1.3,0.4-1.8
				c0.3-0.5,0.6-0.9,1.1-1.2s1-0.4,1.6-0.4c0.9,0,1.5,0.3,2,0.8s0.7,1.3,0.7,2.3v0.2H150.9z M151.6,190.8c-0.4,0.4-0.6,0.9-0.7,1.5
				h4.2c-0.1-0.7-0.2-1.2-0.6-1.5c-0.3-0.4-0.8-0.5-1.4-0.5C152.5,190.3,152,190.4,151.6,190.8z"/>
			<path class="st9" d="M158,192.9L158,192.9c0,0.9,0.2,1.6,0.6,2.1c0.4,0.5,1,0.7,1.8,0.7c0.8,0,1.5-0.3,2.2-0.8l0.3,0.6
				c-0.3,0.3-0.7,0.5-1.1,0.6s-0.9,0.2-1.4,0.2c-1,0-1.8-0.3-2.4-0.9c-0.6-0.6-0.9-1.4-0.9-2.5c0-0.7,0.1-1.3,0.4-1.8
				c0.3-0.5,0.6-0.9,1.1-1.2s1-0.4,1.6-0.4c0.9,0,1.5,0.3,2,0.8s0.7,1.3,0.7,2.3v0.2H158z M158.8,190.8c-0.4,0.4-0.6,0.9-0.7,1.5
				h4.2c-0.1-0.7-0.2-1.2-0.6-1.5c-0.3-0.4-0.8-0.5-1.4-0.5C159.6,190.3,159.2,190.4,158.8,190.8z"/>
			<path class="st9" d="M169.2,196.3l-3.6-3.2v3.2h-0.8v-9.6h0.8v6.1l3.3-3h1l-3.4,3.1l3.8,3.4H169.2z"/>
			<path class="st9" d="M170.8,195.5l0.3-0.6c0.3,0.3,0.7,0.5,1.1,0.6s0.8,0.2,1.2,0.2c0.5,0,1-0.1,1.2-0.3c0.3-0.2,0.4-0.5,0.4-0.8
				c0-0.3-0.1-0.5-0.3-0.7c-0.2-0.2-0.5-0.3-0.9-0.4l-1.1-0.2c-0.5-0.1-0.9-0.3-1.2-0.7c-0.3-0.3-0.5-0.7-0.5-1.1
				c0-0.6,0.2-1,0.7-1.4c0.4-0.3,1-0.5,1.8-0.5c0.5,0,0.9,0.1,1.3,0.2s0.7,0.4,1,0.6l-0.3,0.6c-0.6-0.5-1.3-0.8-2-0.8
				c-0.5,0-0.9,0.1-1.2,0.3c-0.3,0.2-0.4,0.5-0.4,0.8c0,0.3,0.1,0.5,0.3,0.7c0.2,0.2,0.5,0.3,0.8,0.4l1.1,0.3
				c1.2,0.3,1.8,0.8,1.8,1.7c0,0.5-0.2,1-0.7,1.3c-0.5,0.3-1.1,0.5-1.8,0.5C172.3,196.4,171.4,196.1,170.8,195.5z"/>
			<path class="st9" d="M177.1,198.7c0.5-1.1,0.8-2.1,1-3c0.2-1,0.3-1.9,0.3-2.8c0-0.9-0.1-1.9-0.3-2.8c-0.2-0.9-0.5-1.9-1-3h0.7
				c0.5,1,0.8,1.9,1.1,2.9s0.3,1.9,0.3,2.9c0,1-0.1,2-0.3,3s-0.6,1.9-1.1,2.9H177.1z"/>
			<g>
				<path class="st1" d="M31.2,219.3c-0.4-0.2-0.7-0.5-0.9-0.8s-0.3-0.8-0.3-1.2c0-0.4,0.1-0.8,0.3-1.1c0.2-0.4,0.5-0.7,0.9-0.9
					c0.4-0.2,0.8-0.3,1.2-0.3c0.4,0,0.8,0.1,1.2,0.3c0.4,0.2,0.7,0.5,0.9,0.8s0.3,0.8,0.3,1.2c0,0.4-0.1,0.8-0.3,1.2
					c-0.2,0.4-0.5,0.6-0.9,0.8c-0.4,0.2-0.8,0.3-1.2,0.3S31.6,219.5,31.2,219.3z"/>
				<path class="st1" d="M32.4,219.8c-0.4,0-0.9-0.1-1.2-0.3h0c-0.4-0.2-0.7-0.5-0.9-0.9c-0.2-0.4-0.3-0.8-0.3-1.2
					c0-0.4,0.1-0.8,0.3-1.2c0.2-0.4,0.5-0.7,0.9-0.9c0.4-0.2,0.8-0.3,1.3-0.3c0.4,0,0.9,0.1,1.2,0.3c0.4,0.2,0.7,0.5,0.9,0.9
					c0.2,0.4,0.3,0.8,0.3,1.3c0,0.4-0.1,0.9-0.3,1.2c-0.2,0.4-0.5,0.7-0.9,0.9C33.2,219.7,32.8,219.8,32.4,219.8z M31.2,219.2
					c0.7,0.4,1.6,0.4,2.3,0c0.3-0.2,0.6-0.5,0.8-0.8c0.2-0.3,0.3-0.7,0.3-1.1c0-0.4-0.1-0.8-0.3-1.1c-0.2-0.3-0.5-0.6-0.8-0.8
					c-0.3-0.2-0.7-0.3-1.1-0.3c-0.4,0-0.8,0.1-1.2,0.3c-0.3,0.2-0.6,0.5-0.8,0.8c-0.2,0.3-0.3,0.7-0.3,1.1c0,0.4,0.1,0.8,0.3,1.1
					S30.9,219,31.2,219.2z"/>
			</g>
			<path class="st9" d="M61.8,220.8h-0.8l-1.2-3.1c-0.1-0.4-0.4-0.7-0.6-0.8c-0.3-0.1-0.6-0.2-1.1-0.2h-2.6v4.2h-0.8v-9.3h3.6
				c1,0,1.7,0.2,2.2,0.7c0.5,0.4,0.8,1.1,0.8,1.9c0,0.6-0.2,1.1-0.5,1.5c-0.3,0.4-0.8,0.7-1.4,0.9c0.3,0,0.5,0.2,0.7,0.3
				s0.4,0.5,0.5,0.8L61.8,220.8z M58.2,216c1.5,0,2.3-0.6,2.3-1.9c0-1.2-0.8-1.8-2.3-1.8h-2.7v3.8H58.2z"/>
			<path class="st9" d="M64,217.4L64,217.4c0,0.9,0.2,1.6,0.6,2.1c0.4,0.5,1,0.7,1.8,0.7c0.8,0,1.5-0.3,2.2-0.8l0.3,0.6
				c-0.3,0.3-0.7,0.5-1.1,0.6s-0.9,0.2-1.4,0.2c-1,0-1.8-0.3-2.4-0.9c-0.6-0.6-0.9-1.4-0.9-2.5c0-0.7,0.1-1.3,0.4-1.8
				c0.3-0.5,0.6-0.9,1.1-1.2s1-0.4,1.6-0.4c0.9,0,1.5,0.3,2,0.8s0.7,1.3,0.7,2.3v0.2H64z M64.7,215.3c-0.4,0.4-0.6,0.9-0.7,1.5h4.2
				c-0.1-0.7-0.2-1.2-0.6-1.5c-0.3-0.4-0.8-0.5-1.4-0.5C65.6,214.8,65.1,214.9,64.7,215.3z"/>
			<path class="st9" d="M79.9,216.6v4.2h-0.8v-4.1c0-0.7-0.1-1.1-0.4-1.4s-0.6-0.5-1.1-0.5c-0.6,0-1.1,0.2-1.4,0.6
				c-0.3,0.4-0.5,0.9-0.5,1.6v3.8h-0.8v-4.1c0-0.7-0.1-1.1-0.4-1.4c-0.2-0.3-0.6-0.5-1.1-0.5c-0.6,0-1.1,0.2-1.4,0.6
				c-0.4,0.4-0.5,0.9-0.5,1.6v3.8h-0.8v-4.7c0-0.7,0-1.3-0.1-1.8h0.8l0.1,1.2c0.2-0.4,0.5-0.8,0.8-1s0.8-0.3,1.3-0.3
				c1.1,0,1.7,0.4,2,1.3c0.2-0.4,0.5-0.7,0.9-0.9s0.8-0.3,1.3-0.3C79.2,214.1,79.9,215,79.9,216.6z"/>
			<path class="st9" d="M82.6,217.4L82.6,217.4c0,0.9,0.2,1.6,0.6,2.1c0.4,0.5,1,0.7,1.8,0.7c0.8,0,1.5-0.3,2.2-0.8l0.3,0.6
				c-0.3,0.3-0.7,0.5-1.1,0.6s-0.9,0.2-1.4,0.2c-1,0-1.8-0.3-2.4-0.9c-0.6-0.6-0.9-1.4-0.9-2.5c0-0.7,0.1-1.3,0.4-1.8
				c0.3-0.5,0.6-0.9,1.1-1.2s1-0.4,1.6-0.4c0.9,0,1.5,0.3,2,0.8s0.7,1.3,0.7,2.3v0.2H82.6z M83.3,215.3c-0.4,0.4-0.6,0.9-0.7,1.5
				h4.2c-0.1-0.7-0.2-1.2-0.6-1.5c-0.3-0.4-0.8-0.5-1.4-0.5C84.2,214.8,83.7,214.9,83.3,215.3z"/>
			<path class="st9" d="M94.9,211.2v9.6h-0.8v-1.3c-0.2,0.4-0.5,0.8-0.9,1c-0.4,0.2-0.9,0.3-1.4,0.3c-0.6,0-1.1-0.1-1.5-0.4
				c-0.4-0.3-0.8-0.7-1-1.2s-0.4-1.1-0.4-1.8s0.1-1.3,0.4-1.8c0.2-0.5,0.6-0.9,1-1.2c0.4-0.3,1-0.4,1.5-0.4c0.5,0,1,0.1,1.4,0.3
				s0.7,0.6,0.9,1v-4.2H94.9z M93.5,219.5c0.4-0.5,0.6-1.1,0.6-2c0-0.9-0.2-1.5-0.6-2s-0.9-0.7-1.6-0.7c-0.7,0-1.2,0.2-1.6,0.7
				c-0.4,0.5-0.6,1.1-0.6,2c0,0.9,0.2,1.5,0.6,2c0.4,0.5,0.9,0.7,1.6,0.7C92.6,220.2,93.1,220,93.5,219.5z"/>
			<path class="st9" d="M98,211.6v1H97v-1H98z M97.1,214.3h0.8v6.5h-0.8V214.3z"/>
			<path class="st9" d="M105.7,214.3v6.5h-0.8v-1.3c-0.2,0.4-0.5,0.8-0.9,1c-0.4,0.2-0.9,0.3-1.4,0.3c-0.6,0-1.1-0.1-1.5-0.4
				c-0.4-0.3-0.8-0.7-1-1.2c-0.2-0.5-0.4-1.1-0.4-1.8s0.1-1.3,0.4-1.8c0.2-0.5,0.6-0.9,1-1.2c0.4-0.3,0.9-0.4,1.5-0.4
				c0.5,0,1,0.1,1.4,0.3s0.7,0.6,0.9,1v-1.2H105.7z M104.3,219.5c0.4-0.5,0.6-1.1,0.6-2c0-0.9-0.2-1.5-0.6-2s-0.9-0.7-1.6-0.7
				c-0.7,0-1.2,0.2-1.6,0.7c-0.4,0.5-0.6,1.2-0.6,2c0,0.8,0.2,1.5,0.6,2c0.4,0.5,0.9,0.7,1.6,0.7C103.4,220.2,104,220,104.3,219.5z"
				/>
			<path class="st9" d="M109,214.9v3.9c0,0.5,0.1,0.9,0.3,1.1s0.5,0.3,0.9,0.3c0.2,0,0.5,0,0.7-0.1v0.7c-0.3,0.1-0.6,0.1-0.8,0.1
				c-0.6,0-1-0.2-1.4-0.5c-0.3-0.3-0.5-0.8-0.5-1.5v-4.1h-1.3v-0.6h1.3v-1.7l0.8-0.3v2h1.9v0.6H109z"/>
			<path class="st9" d="M113.3,211.6v1h-1.1v-1H113.3z M112.4,214.3h0.8v6.5h-0.8V214.3z"/>
			<path class="st9" d="M116.4,220.5c-0.5-0.3-0.8-0.7-1.1-1.2c-0.2-0.5-0.4-1.1-0.4-1.8c0-0.7,0.1-1.3,0.4-1.8
				c0.2-0.5,0.6-0.9,1.1-1.2c0.5-0.3,1-0.4,1.6-0.4c0.6,0,1.1,0.1,1.6,0.4c0.5,0.3,0.8,0.7,1.1,1.2c0.2,0.5,0.4,1.1,0.4,1.8
				c0,0.7-0.1,1.3-0.4,1.8c-0.2,0.5-0.6,0.9-1.1,1.2c-0.5,0.3-1,0.4-1.6,0.4C117.4,220.9,116.9,220.8,116.4,220.5z M119.6,219.5
				c0.4-0.5,0.6-1.1,0.6-2c0-0.9-0.2-1.5-0.6-2s-0.9-0.7-1.6-0.7c-0.7,0-1.2,0.2-1.6,0.7c-0.4,0.5-0.6,1.1-0.6,2
				c0,0.9,0.2,1.5,0.6,2c0.4,0.5,0.9,0.7,1.6,0.7S119.3,220,119.6,219.5z"/>
			<path class="st9" d="M128.3,216.6v4.2h-0.8v-4.1c0-0.7-0.1-1.1-0.4-1.4s-0.7-0.5-1.2-0.5c-0.7,0-1.2,0.2-1.6,0.6
				c-0.4,0.4-0.6,0.9-0.6,1.6v3.8h-0.8v-4.7c0-0.7,0-1.3-0.1-1.8h0.8l0.1,1.2c0.2-0.4,0.5-0.8,0.9-1s0.9-0.3,1.4-0.3
				C127.5,214.1,128.3,215,128.3,216.6z"/>
			<path class="st9" d="M134.5,220.3c-0.2-1-0.3-1.9-0.3-3c0-1,0.1-2,0.3-2.9s0.6-1.9,1.1-2.9h0.7c-0.5,1.1-0.8,2.1-1,3
				c-0.2,0.9-0.3,1.9-0.3,2.8c0,0.9,0.1,1.9,0.3,2.8c0.2,1,0.5,2,1,3h-0.7C135.1,222.2,134.7,221.3,134.5,220.3z"/>
			<path class="st9" d="M143.9,216.7c-0.4,0.8-0.9,1.3-1.7,1.3c-0.3,0-0.6-0.1-0.8-0.2c-0.3-0.1-0.6-0.3-1-0.5
				c-0.3-0.2-0.5-0.3-0.7-0.4c-0.2-0.1-0.4-0.1-0.5-0.1c-0.3,0-0.5,0.1-0.7,0.2s-0.3,0.4-0.4,0.7l-0.6-0.3c0.3-0.8,0.9-1.2,1.7-1.2
				c0.3,0,0.6,0.1,0.8,0.2c0.3,0.1,0.6,0.3,1,0.5c0.3,0.2,0.5,0.3,0.7,0.4c0.2,0.1,0.4,0.1,0.5,0.1c0.3,0,0.5-0.1,0.7-0.2
				c0.2-0.2,0.3-0.4,0.5-0.6L143.9,216.7z"/>
			<path class="st9" d="M151,216.8c0.3,0.4,0.4,0.9,0.4,1.5c0,0.8-0.3,1.4-0.8,1.9s-1.2,0.7-2.1,0.7c-0.6,0-1.2-0.1-1.7-0.3
				c-0.5-0.2-1-0.5-1.4-0.9l0.3-0.6c0.4,0.4,0.9,0.7,1.3,0.8c0.4,0.2,0.9,0.3,1.4,0.3c0.7,0,1.2-0.2,1.6-0.5
				c0.4-0.3,0.6-0.8,0.6-1.4c0-1.2-0.8-1.9-2.3-1.9h-1v-0.7h0.8c0.7,0,1.3-0.2,1.7-0.5c0.4-0.3,0.6-0.8,0.6-1.4
				c0-0.5-0.2-0.9-0.5-1.2s-0.8-0.4-1.4-0.4c-0.9,0-1.8,0.4-2.7,1.1l-0.3-0.6c0.4-0.4,0.8-0.7,1.4-0.9c0.5-0.2,1.1-0.3,1.7-0.3
				c0.8,0,1.5,0.2,1.9,0.6c0.5,0.4,0.7,1,0.7,1.7c0,0.5-0.1,1-0.4,1.4c-0.3,0.4-0.6,0.7-1.1,0.9C150.3,216.2,150.8,216.5,151,216.8z
				"/>
			<path class="st9" d="M166.8,214.3l-2.4,6.5h-0.8l-2-5.5l-2,5.5h-0.8l-2.4-6.5h0.8l1.9,5.6l2-5.6h0.8l2,5.6l2-5.6H166.8z"/>
			<path class="st9" d="M168.7,217.4L168.7,217.4c0,0.9,0.2,1.6,0.6,2.1c0.4,0.5,1,0.7,1.8,0.7c0.8,0,1.5-0.3,2.2-0.8l0.3,0.6
				c-0.3,0.3-0.7,0.5-1.1,0.6s-0.9,0.2-1.4,0.2c-1,0-1.8-0.3-2.4-0.9c-0.6-0.6-0.9-1.4-0.9-2.5c0-0.7,0.1-1.3,0.4-1.8
				c0.3-0.5,0.6-0.9,1.1-1.2s1-0.4,1.6-0.4c0.9,0,1.5,0.3,2,0.8s0.7,1.3,0.7,2.3v0.2H168.7z M169.5,215.3c-0.4,0.4-0.6,0.9-0.7,1.5
				h4.2c-0.1-0.7-0.2-1.2-0.6-1.5c-0.3-0.4-0.8-0.5-1.4-0.5C170.4,214.8,169.9,214.9,169.5,215.3z"/>
			<path class="st9" d="M175.9,217.4L175.9,217.4c0,0.9,0.2,1.6,0.6,2.1c0.4,0.5,1,0.7,1.8,0.7c0.8,0,1.5-0.3,2.2-0.8l0.3,0.6
				c-0.3,0.3-0.7,0.5-1.1,0.6s-0.9,0.2-1.4,0.2c-1,0-1.8-0.3-2.4-0.9c-0.6-0.6-0.9-1.4-0.9-2.5c0-0.7,0.1-1.3,0.4-1.8
				c0.3-0.5,0.6-0.9,1.1-1.2s1-0.4,1.6-0.4c0.9,0,1.5,0.3,2,0.8s0.7,1.3,0.7,2.3v0.2H175.9z M176.7,215.3c-0.4,0.4-0.6,0.9-0.7,1.5
				h4.2c-0.1-0.7-0.2-1.2-0.6-1.5c-0.3-0.4-0.8-0.5-1.4-0.5C177.5,214.8,177,214.9,176.7,215.3z"/>
			<path class="st9" d="M187,220.8l-3.6-3.2v3.2h-0.8v-9.6h0.8v6.1l3.3-3h1l-3.4,3.1l3.8,3.4H187z"/>
			<path class="st9" d="M188.7,220l0.3-0.6c0.3,0.3,0.7,0.5,1.1,0.6s0.8,0.2,1.2,0.2c0.5,0,1-0.1,1.2-0.3c0.3-0.2,0.4-0.5,0.4-0.8
				c0-0.3-0.1-0.5-0.3-0.7c-0.2-0.2-0.5-0.3-0.9-0.4l-1.1-0.2c-0.5-0.1-0.9-0.3-1.2-0.7c-0.3-0.3-0.5-0.7-0.5-1.1
				c0-0.6,0.2-1,0.7-1.4c0.4-0.3,1-0.5,1.8-0.5c0.5,0,0.9,0.1,1.3,0.2s0.7,0.4,1,0.6l-0.3,0.6c-0.6-0.5-1.3-0.8-2-0.8
				c-0.5,0-0.9,0.1-1.2,0.3c-0.3,0.2-0.4,0.5-0.4,0.8c0,0.3,0.1,0.5,0.3,0.7c0.2,0.2,0.5,0.3,0.8,0.4l1.1,0.3
				c1.2,0.3,1.8,0.8,1.8,1.7c0,0.5-0.2,1-0.7,1.3c-0.5,0.3-1.1,0.5-1.8,0.5C190.2,220.9,189.3,220.6,188.7,220z"/>
			<path class="st9" d="M195,223.2c0.5-1.1,0.8-2.1,1-3c0.2-1,0.3-1.9,0.3-2.8c0-0.9-0.1-1.9-0.3-2.8c-0.2-0.9-0.5-1.9-1-3h0.7
				c0.5,1,0.8,1.9,1.1,2.9s0.3,1.9,0.3,2.9c0,1-0.1,2-0.3,3s-0.6,1.9-1.1,2.9H195z"/>
			<g>
				<path class="st1" d="M31.2,243.8c-0.4-0.2-0.7-0.5-0.9-0.8s-0.3-0.8-0.3-1.2c0-0.4,0.1-0.8,0.3-1.1c0.2-0.4,0.5-0.7,0.9-0.9
					c0.4-0.2,0.8-0.3,1.2-0.3c0.4,0,0.8,0.1,1.2,0.3c0.4,0.2,0.7,0.5,0.9,0.8s0.3,0.8,0.3,1.2c0,0.4-0.1,0.8-0.3,1.2
					c-0.2,0.4-0.5,0.6-0.9,0.8c-0.4,0.2-0.8,0.3-1.2,0.3S31.6,244.1,31.2,243.8z"/>
				<path class="st1" d="M32.4,244.3c-0.4,0-0.9-0.1-1.2-0.3h0c-0.4-0.2-0.7-0.5-0.9-0.9c-0.2-0.4-0.3-0.8-0.3-1.2
					c0-0.4,0.1-0.8,0.3-1.2c0.2-0.4,0.5-0.7,0.9-0.9c0.4-0.2,0.8-0.3,1.3-0.3c0.4,0,0.9,0.1,1.2,0.3c0.4,0.2,0.7,0.5,0.9,0.9
					c0.2,0.4,0.3,0.8,0.3,1.3c0,0.4-0.1,0.9-0.3,1.2c-0.2,0.4-0.5,0.7-0.9,0.9C33.2,244.2,32.8,244.3,32.4,244.3z M31.2,243.7
					c0.7,0.4,1.6,0.4,2.3,0c0.3-0.2,0.6-0.5,0.8-0.8c0.2-0.3,0.3-0.7,0.3-1.1c0-0.4-0.1-0.8-0.3-1.1c-0.2-0.3-0.5-0.6-0.8-0.8
					c-0.3-0.2-0.7-0.3-1.1-0.3c-0.4,0-0.8,0.1-1.2,0.3c-0.3,0.2-0.6,0.5-0.8,0.8c-0.2,0.3-0.3,0.7-0.3,1.1c0,0.4,0.1,0.8,0.3,1.1
					S30.9,243.5,31.2,243.7z"/>
			</g>
			<path class="st9" d="M54.6,236h5.6v0.7h-4.8v3.5H60v0.7h-4.5v4.4h-0.8V236z"/>
			<path class="st9" d="M62.8,236.1v1h-1.1v-1H62.8z M61.9,238.8h0.8v6.5h-0.8V238.8z"/>
			<path class="st9" d="M70.3,241.1v4.2h-0.8v-4.1c0-0.7-0.1-1.1-0.4-1.4s-0.7-0.5-1.2-0.5c-0.7,0-1.2,0.2-1.6,0.6
				c-0.4,0.4-0.6,0.9-0.6,1.6v3.8h-0.8v-4.7c0-0.7,0-1.3-0.1-1.8h0.8l0.1,1.2c0.2-0.4,0.5-0.8,0.9-1s0.9-0.3,1.4-0.3
				C69.5,238.6,70.3,239.5,70.3,241.1z"/>
			<path class="st9" d="M78.1,238.8v6.5h-0.8v-1.3c-0.2,0.4-0.5,0.8-0.9,1c-0.4,0.2-0.9,0.3-1.4,0.3c-0.6,0-1.1-0.1-1.5-0.4
				c-0.4-0.3-0.8-0.7-1-1.2c-0.2-0.5-0.4-1.1-0.4-1.8s0.1-1.3,0.4-1.8c0.2-0.5,0.6-0.9,1-1.2c0.4-0.3,0.9-0.4,1.5-0.4
				c0.5,0,1,0.1,1.4,0.3s0.7,0.6,0.9,1v-1.2H78.1z M76.7,244c0.4-0.5,0.6-1.1,0.6-2c0-0.9-0.2-1.5-0.6-2s-0.9-0.7-1.6-0.7
				c-0.7,0-1.2,0.2-1.6,0.7c-0.4,0.5-0.6,1.2-0.6,2c0,0.8,0.2,1.5,0.6,2c0.4,0.5,0.9,0.7,1.6,0.7C75.8,244.7,76.3,244.5,76.7,244z"
				/>
			<path class="st9" d="M80.3,235.7h0.8v9.6h-0.8V235.7z"/>
			<path class="st9" d="M94,245.3h-0.8l-1.2-3.1c-0.1-0.4-0.4-0.7-0.6-0.8c-0.3-0.1-0.6-0.2-1.1-0.2h-2.6v4.2h-0.8V236h3.6
				c1,0,1.7,0.2,2.2,0.7c0.5,0.4,0.8,1.1,0.8,1.9c0,0.6-0.2,1.1-0.5,1.5c-0.3,0.4-0.8,0.7-1.4,0.9c0.3,0,0.5,0.2,0.7,0.3
				s0.4,0.5,0.5,0.8L94,245.3z M90.4,240.5c1.5,0,2.3-0.6,2.3-1.9c0-1.2-0.8-1.8-2.3-1.8h-2.7v3.8H90.4z"/>
			<path class="st9" d="M96.2,241.9L96.2,241.9c0,0.9,0.2,1.6,0.6,2.1c0.4,0.5,1,0.7,1.8,0.7c0.8,0,1.5-0.3,2.2-0.8l0.3,0.6
				c-0.3,0.3-0.7,0.5-1.1,0.6s-0.9,0.2-1.4,0.2c-1,0-1.8-0.3-2.4-0.9c-0.6-0.6-0.9-1.4-0.9-2.5c0-0.7,0.1-1.3,0.4-1.8
				c0.3-0.5,0.6-0.9,1.1-1.2s1-0.4,1.6-0.4c0.9,0,1.5,0.3,2,0.8s0.7,1.3,0.7,2.3v0.2H96.2z M97,239.8c-0.4,0.4-0.6,0.9-0.7,1.5h4.2
				c-0.1-0.7-0.2-1.2-0.6-1.5c-0.3-0.4-0.8-0.5-1.4-0.5C97.8,239.3,97.4,239.4,97,239.8z"/>
			<path class="st9" d="M108.5,238.8l-2.8,6.5h-0.8l-2.8-6.5h0.8l2.4,5.8l2.4-5.8H108.5z"/>
			<path class="st9" d="M110.8,236.1v1h-1.1v-1H110.8z M109.8,238.8h0.8v6.5h-0.8V238.8z"/>
			<path class="st9" d="M113.3,241.9L113.3,241.9c0,0.9,0.2,1.6,0.6,2.1c0.4,0.5,1,0.7,1.8,0.7c0.8,0,1.5-0.3,2.2-0.8l0.3,0.6
				c-0.3,0.3-0.7,0.5-1.1,0.6s-0.9,0.2-1.4,0.2c-1,0-1.8-0.3-2.4-0.9c-0.6-0.6-0.9-1.4-0.9-2.5c0-0.7,0.1-1.3,0.4-1.8
				c0.3-0.5,0.6-0.9,1.1-1.2s1-0.4,1.6-0.4c0.9,0,1.5,0.3,2,0.8s0.7,1.3,0.7,2.3v0.2H113.3z M114,239.8c-0.4,0.4-0.6,0.9-0.7,1.5
				h4.2c-0.1-0.7-0.2-1.2-0.6-1.5c-0.3-0.4-0.8-0.5-1.4-0.5C114.9,239.3,114.4,239.4,114,239.8z"/>
			<path class="st9" d="M129.7,238.8l-2.4,6.5h-0.8l-2-5.5l-2,5.5h-0.8l-2.4-6.5h0.8l1.9,5.6l2-5.6h0.8l2,5.6l2-5.6H129.7z"/>
			<path class="st9" d="M135.3,244.8c-0.2-1-0.3-1.9-0.3-3c0-1,0.1-2,0.3-2.9s0.6-1.9,1.1-2.9h0.7c-0.5,1.1-0.8,2.1-1,3
				c-0.2,0.9-0.3,1.9-0.3,2.8c0,0.9,0.1,1.9,0.3,2.8c0.2,1,0.5,2,1,3h-0.7C135.9,246.7,135.6,245.8,135.3,244.8z"/>
			<path class="st9" d="M144.7,241.2c-0.4,0.8-0.9,1.3-1.7,1.3c-0.3,0-0.6-0.1-0.8-0.2c-0.3-0.1-0.6-0.3-1-0.5
				c-0.3-0.2-0.5-0.3-0.7-0.4c-0.2-0.1-0.4-0.1-0.5-0.1c-0.3,0-0.5,0.1-0.7,0.2s-0.3,0.4-0.4,0.7l-0.6-0.3c0.3-0.8,0.9-1.2,1.7-1.2
				c0.3,0,0.6,0.1,0.8,0.2c0.3,0.1,0.6,0.3,1,0.5c0.3,0.2,0.5,0.3,0.7,0.4c0.2,0.1,0.4,0.1,0.5,0.1c0.3,0,0.5-0.1,0.7-0.2
				c0.2-0.2,0.3-0.4,0.5-0.6L144.7,241.2z"/>
			<path class="st9" d="M152.9,243.2h-1.4v2.1h-0.8v-2.1h-4.4v-0.6l4.5-6.6h0.7v6.5h1.4V243.2z M150.6,242.5v-5.1l-3.5,5.1H150.6z"
				/>
			<path class="st9" d="M167.7,238.8l-2.4,6.5h-0.8l-2-5.5l-2,5.5h-0.8l-2.4-6.5h0.8l1.9,5.6l2-5.6h0.8l2,5.6l2-5.6H167.7z"/>
			<path class="st9" d="M169.6,241.9L169.6,241.9c0,0.9,0.2,1.6,0.6,2.1c0.4,0.5,1,0.7,1.8,0.7c0.8,0,1.5-0.3,2.2-0.8l0.3,0.6
				c-0.3,0.3-0.7,0.5-1.1,0.6s-0.9,0.2-1.4,0.2c-1,0-1.8-0.3-2.4-0.9c-0.6-0.6-0.9-1.4-0.9-2.5c0-0.7,0.1-1.3,0.4-1.8
				c0.3-0.5,0.6-0.9,1.1-1.2s1-0.4,1.6-0.4c0.9,0,1.5,0.3,2,0.8s0.7,1.3,0.7,2.3v0.2H169.6z M170.4,239.8c-0.4,0.4-0.6,0.9-0.7,1.5
				h4.2c-0.1-0.7-0.2-1.2-0.6-1.5c-0.3-0.4-0.8-0.5-1.4-0.5C171.2,239.3,170.7,239.4,170.4,239.8z"/>
			<path class="st9" d="M176.8,241.9L176.8,241.9c0,0.9,0.2,1.6,0.6,2.1c0.4,0.5,1,0.7,1.8,0.7c0.8,0,1.5-0.3,2.2-0.8l0.3,0.6
				c-0.3,0.3-0.7,0.5-1.1,0.6s-0.9,0.2-1.4,0.2c-1,0-1.8-0.3-2.4-0.9c-0.6-0.6-0.9-1.4-0.9-2.5c0-0.7,0.1-1.3,0.4-1.8
				c0.3-0.5,0.6-0.9,1.1-1.2s1-0.4,1.6-0.4c0.9,0,1.5,0.3,2,0.8s0.7,1.3,0.7,2.3v0.2H176.8z M177.5,239.8c-0.4,0.4-0.6,0.9-0.7,1.5
				h4.2c-0.1-0.7-0.2-1.2-0.6-1.5c-0.3-0.4-0.8-0.5-1.4-0.5C178.4,239.3,177.9,239.4,177.5,239.8z"/>
			<path class="st9" d="M187.9,245.3l-3.6-3.2v3.2h-0.8v-9.6h0.8v6.1l3.3-3h1l-3.4,3.1l3.8,3.4H187.9z"/>
			<path class="st9" d="M189.6,244.5l0.3-0.6c0.3,0.3,0.7,0.5,1.1,0.6s0.8,0.2,1.2,0.2c0.5,0,1-0.1,1.2-0.3c0.3-0.2,0.4-0.5,0.4-0.8
				c0-0.3-0.1-0.5-0.3-0.7c-0.2-0.2-0.5-0.3-0.9-0.4l-1.1-0.2c-0.5-0.1-0.9-0.3-1.2-0.7c-0.3-0.3-0.5-0.7-0.5-1.1
				c0-0.6,0.2-1,0.7-1.4c0.4-0.3,1-0.5,1.8-0.5c0.5,0,0.9,0.1,1.3,0.2s0.7,0.4,1,0.6l-0.3,0.6c-0.6-0.5-1.3-0.8-2-0.8
				c-0.5,0-0.9,0.1-1.2,0.3c-0.3,0.2-0.4,0.5-0.4,0.8c0,0.3,0.1,0.5,0.3,0.7c0.2,0.2,0.5,0.3,0.8,0.4l1.1,0.3
				c1.2,0.3,1.8,0.8,1.8,1.7c0,0.5-0.2,1-0.7,1.3c-0.5,0.3-1.1,0.5-1.8,0.5C191,245.4,190.2,245.1,189.6,244.5z"/>
			<path class="st9" d="M195.8,247.7c0.5-1.1,0.8-2.1,1-3c0.2-1,0.3-1.9,0.3-2.8c0-0.9-0.1-1.9-0.3-2.8c-0.2-0.9-0.5-1.9-1-3h0.7
				c0.5,1,0.8,1.9,1.1,2.9s0.3,1.9,0.3,2.9c0,1-0.1,2-0.3,3s-0.6,1.9-1.1,2.9H195.8z"/>
			<g>
				<path class="st1" d="M31.2,268.3c-0.4-0.2-0.7-0.5-0.9-0.8s-0.3-0.8-0.3-1.2c0-0.4,0.1-0.8,0.3-1.1c0.2-0.4,0.5-0.7,0.9-0.9
					c0.4-0.2,0.8-0.3,1.2-0.3c0.4,0,0.8,0.1,1.2,0.3c0.4,0.2,0.7,0.5,0.9,0.8s0.3,0.8,0.3,1.2c0,0.4-0.1,0.8-0.3,1.2
					c-0.2,0.4-0.5,0.6-0.9,0.8c-0.4,0.2-0.8,0.3-1.2,0.3S31.6,268.6,31.2,268.3z"/>
				<path class="st1" d="M32.4,268.8c-0.4,0-0.9-0.1-1.2-0.3h0c-0.4-0.2-0.7-0.5-0.9-0.9c-0.2-0.4-0.3-0.8-0.3-1.2
					c0-0.4,0.1-0.8,0.3-1.2c0.2-0.4,0.5-0.7,0.9-0.9c0.4-0.2,0.8-0.3,1.3-0.3c0.4,0,0.9,0.1,1.2,0.3c0.4,0.2,0.7,0.5,0.9,0.9
					c0.2,0.4,0.3,0.8,0.3,1.3c0,0.4-0.1,0.9-0.3,1.2c-0.2,0.4-0.5,0.7-0.9,0.9C33.2,268.7,32.8,268.8,32.4,268.8z M31.2,268.2
					c0.7,0.4,1.6,0.4,2.3,0c0.3-0.2,0.6-0.5,0.8-0.8c0.2-0.3,0.3-0.7,0.3-1.1c0-0.4-0.1-0.8-0.3-1.1c-0.2-0.3-0.5-0.6-0.8-0.8
					c-0.3-0.2-0.7-0.3-1.1-0.3c-0.4,0-0.8,0.1-1.2,0.3c-0.3,0.2-0.6,0.5-0.8,0.8c-0.2,0.3-0.3,0.7-0.3,1.1c0,0.4,0.1,0.8,0.3,1.1
					S30.9,268,31.2,268.2z"/>
			</g>
			<path class="st9" d="M53.3,271.4c0.4,0.1,0.7,0.1,0.9,0.1c0.5,0,0.8-0.1,1-0.4c0.2-0.3,0.3-0.7,0.3-1.4v-9.3h0.8v9.3
				c0,0.9-0.2,1.5-0.5,1.9s-0.8,0.6-1.5,0.6c-0.3,0-0.6,0-1.1-0.1V271.4z"/>
			<path class="st9" d="M64.8,267.3h-5l-1.1,2.5h-0.8l4.1-9.3h0.7l4,9.3h-0.8L64.8,267.3z M64.5,266.6l-2.2-5.1l-2.2,5.1H64.5z"/>
			<path class="st9" d="M74.7,265.8c0.3,0.4,0.4,0.9,0.4,1.5c0,0.8-0.3,1.4-0.8,1.9s-1.3,0.7-2.3,0.7h-3.7v-9.3h3.6
				c0.9,0,1.7,0.2,2.2,0.6c0.5,0.4,0.8,1,0.8,1.8c0,0.5-0.1,0.9-0.4,1.3c-0.3,0.4-0.6,0.6-1.1,0.8C74,265.2,74.4,265.5,74.7,265.8z
				 M69.1,264.7h2.7c0.7,0,1.3-0.2,1.7-0.5c0.4-0.3,0.6-0.7,0.6-1.3c0-1.2-0.8-1.7-2.3-1.7h-2.7V264.7z M73.8,268.7
				c0.4-0.3,0.6-0.7,0.6-1.4c0-1.2-0.8-1.9-2.3-1.9h-2.9v3.7H72C72.8,269.1,73.4,269,73.8,268.7z"/>
			<path class="st9" d="M80.6,260.5h3.6c0.9,0,1.7,0.2,2.2,0.7c0.5,0.5,0.8,1.1,0.8,1.9c0,0.8-0.3,1.4-0.8,1.9
				c-0.5,0.5-1.3,0.7-2.2,0.7h-2.8v4.2h-0.8V260.5z M84.2,264.9c0.7,0,1.3-0.2,1.7-0.5c0.4-0.3,0.6-0.8,0.6-1.4c0-0.6-0.2-1-0.6-1.4
				c-0.4-0.3-0.9-0.5-1.7-0.5h-2.7v3.7H84.2z"/>
			<path class="st9" d="M88.5,266h3.6v0.7h-3.6V266z"/>
			<path class="st9" d="M100.2,267.3h-5l-1.1,2.5h-0.8l4.1-9.3h0.7l4,9.3h-0.8L100.2,267.3z M99.9,266.6l-2.2-5.1l-2.2,5.1H99.9z"/>
			<path class="st9" d="M104.9,261.2h-3.3v-0.7h7.5v0.7h-3.3v8.6h-0.8V261.2z"/>
			<path class="st9" d="M111.5,269.3c-0.6-0.4-1.1-0.9-1.4-1.6c-0.3-0.7-0.5-1.6-0.5-2.5s0.2-1.8,0.5-2.5c0.3-0.7,0.8-1.3,1.4-1.6
				c0.6-0.4,1.4-0.6,2.2-0.6c0.9,0,1.6,0.2,2.2,0.6c0.6,0.4,1.1,0.9,1.4,1.6s0.5,1.6,0.5,2.5s-0.2,1.8-0.5,2.5
				c-0.3,0.7-0.8,1.3-1.4,1.7c-0.6,0.4-1.4,0.6-2.2,0.6C112.9,269.9,112.1,269.7,111.5,269.3z M116.1,268.1c0.6-0.7,0.9-1.7,0.9-3
				s-0.3-2.3-0.9-3s-1.4-1-2.4-1c-1,0-1.9,0.4-2.4,1.1s-0.9,1.7-0.9,3c0,1.3,0.3,2.3,0.9,3c0.6,0.7,1.4,1.1,2.4,1.1
				C114.8,269.2,115.6,268.9,116.1,268.1z"/>
			<path class="st9" d="M123.4,260.5h0.8v9.3h-0.8V260.5z"/>
			<path class="st9" d="M126.2,269l0.3-0.6c0.3,0.3,0.7,0.5,1.1,0.6s0.8,0.2,1.2,0.2c0.5,0,1-0.1,1.2-0.3c0.3-0.2,0.4-0.5,0.4-0.8
				c0-0.3-0.1-0.5-0.3-0.7c-0.2-0.2-0.5-0.3-0.9-0.4l-1.1-0.2c-0.5-0.1-0.9-0.3-1.2-0.7c-0.3-0.3-0.5-0.7-0.5-1.1
				c0-0.6,0.2-1,0.7-1.4c0.4-0.3,1-0.5,1.8-0.5c0.5,0,0.9,0.1,1.3,0.2s0.7,0.4,1,0.6l-0.3,0.6c-0.6-0.5-1.3-0.8-2-0.8
				c-0.5,0-0.9,0.1-1.2,0.3c-0.3,0.2-0.4,0.5-0.4,0.8c0,0.3,0.1,0.5,0.3,0.7c0.2,0.2,0.5,0.3,0.8,0.4l1.1,0.3
				c1.2,0.3,1.8,0.8,1.8,1.7c0,0.5-0.2,1-0.7,1.3c-0.5,0.3-1.1,0.5-1.8,0.5C127.6,269.9,126.8,269.6,126.2,269z"/>
			<path class="st9" d="M132.7,269l0.3-0.6c0.3,0.3,0.7,0.5,1.1,0.6s0.8,0.2,1.2,0.2c0.5,0,1-0.1,1.2-0.3c0.3-0.2,0.4-0.5,0.4-0.8
				c0-0.3-0.1-0.5-0.3-0.7c-0.2-0.2-0.5-0.3-0.9-0.4l-1.1-0.2c-0.5-0.1-0.9-0.3-1.2-0.7c-0.3-0.3-0.5-0.7-0.5-1.1
				c0-0.6,0.2-1,0.7-1.4c0.4-0.3,1-0.5,1.8-0.5c0.5,0,0.9,0.1,1.3,0.2s0.7,0.4,1,0.6l-0.3,0.6c-0.6-0.5-1.3-0.8-2-0.8
				c-0.5,0-0.9,0.1-1.2,0.3c-0.3,0.2-0.4,0.5-0.4,0.8c0,0.3,0.1,0.5,0.3,0.7c0.2,0.2,0.5,0.3,0.8,0.4l1.1,0.3
				c1.2,0.3,1.8,0.8,1.8,1.7c0,0.5-0.2,1-0.7,1.3c-0.5,0.3-1.1,0.5-1.8,0.5C134.1,269.9,133.3,269.6,132.7,269z"/>
			<path class="st9" d="M144.8,263.3v6.5h-0.8v-1.2c-0.2,0.4-0.5,0.7-0.9,1c-0.4,0.2-0.8,0.3-1.3,0.3c-0.8,0-1.3-0.2-1.7-0.6
				c-0.4-0.4-0.6-1.1-0.6-1.9v-4.1h0.8v4.1c0,0.6,0.1,1.1,0.4,1.4c0.3,0.3,0.7,0.5,1.2,0.5c0.6,0,1.2-0.2,1.5-0.6
				c0.4-0.4,0.6-0.9,0.6-1.6v-3.7H144.8z"/>
			<path class="st9" d="M147.5,266.4L147.5,266.4c0,0.9,0.2,1.6,0.6,2.1c0.4,0.5,1,0.7,1.8,0.7c0.8,0,1.5-0.3,2.2-0.8l0.3,0.6
				c-0.3,0.3-0.7,0.5-1.1,0.6s-0.9,0.2-1.4,0.2c-1,0-1.8-0.3-2.4-0.9c-0.6-0.6-0.9-1.4-0.9-2.5c0-0.7,0.1-1.3,0.4-1.8
				c0.3-0.5,0.6-0.9,1.1-1.2s1-0.4,1.6-0.4c0.9,0,1.5,0.3,2,0.8s0.7,1.3,0.7,2.3v0.2H147.5z M148.3,264.3c-0.4,0.4-0.6,0.9-0.7,1.5
				h4.2c-0.1-0.7-0.2-1.2-0.6-1.5c-0.3-0.4-0.8-0.5-1.4-0.5C149.1,263.8,148.6,264,148.3,264.3z"/>
			<path class="st9" d="M159.8,260.2v9.6H159v-1.3c-0.2,0.4-0.5,0.8-0.9,1c-0.4,0.2-0.9,0.3-1.4,0.3c-0.6,0-1.1-0.1-1.5-0.4
				c-0.4-0.3-0.8-0.7-1-1.2s-0.4-1.1-0.4-1.8s0.1-1.3,0.4-1.8c0.2-0.5,0.6-0.9,1-1.2c0.4-0.3,1-0.4,1.5-0.4c0.5,0,1,0.1,1.4,0.3
				s0.7,0.6,0.9,1v-4.2H159.8z M158.4,268.5c0.4-0.5,0.6-1.1,0.6-2c0-0.9-0.2-1.5-0.6-2s-0.9-0.7-1.6-0.7c-0.7,0-1.2,0.2-1.6,0.7
				c-0.4,0.5-0.6,1.1-0.6,2c0,0.9,0.2,1.5,0.6,2c0.4,0.5,0.9,0.7,1.6,0.7C157.5,269.2,158.1,269,158.4,268.5z"/>
			<path class="st9" d="M54.6,285h5.6v0.7h-4.8v3.5H60v0.7h-4.5v4.4h-0.8V285z"/>
			<path class="st9" d="M62.1,291L62.1,291c0,0.9,0.2,1.6,0.6,2.1c0.4,0.5,1,0.7,1.8,0.7c0.8,0,1.5-0.3,2.2-0.8l0.3,0.6
				c-0.3,0.3-0.7,0.5-1.1,0.6s-0.9,0.2-1.4,0.2c-1,0-1.8-0.3-2.4-0.9c-0.6-0.6-0.9-1.4-0.9-2.5c0-0.7,0.1-1.3,0.4-1.8
				c0.3-0.5,0.6-0.9,1.1-1.2s1-0.4,1.6-0.4c0.9,0,1.5,0.3,2,0.8s0.7,1.3,0.7,2.3v0.2H62.1z M62.9,288.8c-0.4,0.4-0.6,0.9-0.7,1.5
				h4.2c-0.1-0.7-0.2-1.2-0.6-1.5c-0.3-0.4-0.8-0.5-1.4-0.5C63.8,288.3,63.3,288.5,62.9,288.8z"/>
			<path class="st9" d="M74.4,284.7v9.6h-0.8v-1.3c-0.2,0.4-0.5,0.8-0.9,1c-0.4,0.2-0.9,0.3-1.4,0.3c-0.6,0-1.1-0.1-1.5-0.4
				c-0.4-0.3-0.8-0.7-1-1.2s-0.4-1.1-0.4-1.8s0.1-1.3,0.4-1.8c0.2-0.5,0.6-0.9,1-1.2c0.4-0.3,1-0.4,1.5-0.4c0.5,0,1,0.1,1.4,0.3
				s0.7,0.6,0.9,1v-4.2H74.4z M73.1,293c0.4-0.5,0.6-1.1,0.6-2c0-0.9-0.2-1.5-0.6-2s-0.9-0.7-1.6-0.7c-0.7,0-1.2,0.2-1.6,0.7
				c-0.4,0.5-0.6,1.1-0.6,2c0,0.9,0.2,1.5,0.6,2c0.4,0.5,0.9,0.7,1.6,0.7C72.2,293.7,72.7,293.5,73.1,293z"/>
			<path class="st9" d="M84,294.3h-0.8l-1.2-3.1c-0.1-0.4-0.4-0.7-0.6-0.8c-0.3-0.1-0.6-0.2-1.1-0.2h-2.6v4.2h-0.8V285h3.6
				c1,0,1.7,0.2,2.2,0.7c0.5,0.4,0.8,1.1,0.8,1.9c0,0.6-0.2,1.1-0.5,1.5c-0.3,0.4-0.8,0.7-1.4,0.9c0.3,0,0.5,0.2,0.7,0.3
				s0.4,0.5,0.5,0.8L84,294.3z M80.3,289.5c1.5,0,2.3-0.6,2.3-1.9c0-1.2-0.8-1.8-2.3-1.8h-2.7v3.8H80.3z"/>
			<path class="st9" d="M91.8,291.8h-5l-1.1,2.5h-0.8L89,285h0.7l4,9.3h-0.8L91.8,291.8z M91.5,291.1l-2.2-5.1l-2.2,5.1H91.5z"/>
			<path class="st9" d="M104,285v9.3h-0.8v-7.4l-3.3,7.4h-0.6l-3.3-7.4l0,7.4h-0.8V285H96l3.7,8.3l3.6-8.3H104z"/>
			<path class="st9" d="M106.5,285h3.6c0.9,0,1.7,0.2,2.2,0.7c0.5,0.5,0.8,1.1,0.8,1.9c0,0.8-0.3,1.4-0.8,1.9
				c-0.5,0.5-1.3,0.7-2.2,0.7h-2.8v4.2h-0.8V285z M110,289.4c0.7,0,1.3-0.2,1.7-0.5c0.4-0.3,0.6-0.8,0.6-1.4c0-0.6-0.2-1-0.6-1.4
				c-0.4-0.3-0.9-0.5-1.7-0.5h-2.7v3.7H110z"/>
			<path class="st9" d="M127,285v9.3h-0.8v-7.4l-3.3,7.4h-0.6l-3.3-7.4l0,7.4h-0.8V285h0.7l3.7,8.3l3.6-8.3H127z"/>
			<path class="st9" d="M135,287.8v6.5h-0.8v-1.3c-0.2,0.4-0.5,0.8-0.9,1c-0.4,0.2-0.9,0.3-1.4,0.3c-0.6,0-1.1-0.1-1.5-0.4
				c-0.4-0.3-0.8-0.7-1-1.2c-0.2-0.5-0.4-1.1-0.4-1.8s0.1-1.3,0.4-1.8c0.2-0.5,0.6-0.9,1-1.2c0.4-0.3,0.9-0.4,1.5-0.4
				c0.5,0,1,0.1,1.4,0.3s0.7,0.6,0.9,1v-1.2H135z M133.6,293c0.4-0.5,0.6-1.1,0.6-2c0-0.9-0.2-1.5-0.6-2s-0.9-0.7-1.6-0.7
				c-0.7,0-1.2,0.2-1.6,0.7c-0.4,0.5-0.6,1.2-0.6,2c0,0.8,0.2,1.5,0.6,2c0.4,0.5,0.9,0.7,1.6,0.7C132.7,293.7,133.2,293.5,133.6,293
				z"/>
			<path class="st9" d="M140.6,287.7l0,0.7c-0.2,0-0.4-0.1-0.6-0.1c-0.7,0-1.2,0.2-1.5,0.6c-0.3,0.4-0.5,0.9-0.5,1.5v3.8h-0.8v-4.7
				c0-0.7,0-1.3-0.1-1.8h0.8l0.1,1.2c0.2-0.4,0.4-0.8,0.8-1c0.4-0.2,0.8-0.4,1.3-0.4C140.2,287.6,140.4,287.6,140.6,287.7z"/>
			<path class="st9" d="M146.2,294.3l-3.6-3.2v3.2h-0.8v-9.6h0.8v6.1l3.3-3h1l-3.4,3.1l3.8,3.4H146.2z"/>
			<path class="st9" d="M148.7,291L148.7,291c0,0.9,0.2,1.6,0.6,2.1c0.4,0.5,1,0.7,1.8,0.7c0.8,0,1.5-0.3,2.2-0.8l0.3,0.6
				c-0.3,0.3-0.7,0.5-1.1,0.6s-0.9,0.2-1.4,0.2c-1,0-1.8-0.3-2.4-0.9c-0.6-0.6-0.9-1.4-0.9-2.5c0-0.7,0.1-1.3,0.4-1.8
				c0.3-0.5,0.6-0.9,1.1-1.2s1-0.4,1.6-0.4c0.9,0,1.5,0.3,2,0.8s0.7,1.3,0.7,2.3v0.2H148.7z M149.4,288.8c-0.4,0.4-0.6,0.9-0.7,1.5
				h4.2c-0.1-0.7-0.2-1.2-0.6-1.5c-0.3-0.4-0.8-0.5-1.4-0.5C150.3,288.3,149.8,288.5,149.4,288.8z"/>
			<path class="st9" d="M156.5,288.4v3.9c0,0.5,0.1,0.9,0.3,1.1s0.5,0.3,0.9,0.3c0.2,0,0.5,0,0.7-0.1v0.7c-0.3,0.1-0.6,0.1-0.8,0.1
				c-0.6,0-1-0.2-1.4-0.5c-0.3-0.3-0.5-0.8-0.5-1.5v-4.1h-1.3v-0.6h1.3V286l0.8-0.3v2h1.9v0.6H156.5z"/>
			<path class="st9" d="M164.5,288c0.4,0.3,0.8,0.7,1,1.2c0.2,0.5,0.4,1.1,0.4,1.8s-0.1,1.3-0.4,1.8c-0.2,0.5-0.6,0.9-1,1.2
				c-0.4,0.3-1,0.4-1.5,0.4c-0.5,0-1-0.1-1.4-0.4c-0.4-0.2-0.7-0.6-0.9-1v4.1h-0.8v-7.6c0-0.7,0-1.3-0.1-1.8h0.8l0.1,1.3
				c0.2-0.5,0.5-0.8,0.9-1.1c0.4-0.2,0.9-0.4,1.4-0.4C163.5,287.6,164,287.8,164.5,288z M164.4,293c0.4-0.5,0.6-1.1,0.6-2
				c0-0.9-0.2-1.5-0.6-2c-0.4-0.5-0.9-0.7-1.6-0.7c-0.7,0-1.2,0.2-1.6,0.7c-0.4,0.5-0.6,1.1-0.6,2c0,0.9,0.2,1.5,0.6,2
				c0.4,0.5,0.9,0.7,1.6,0.7C163.5,293.7,164.1,293.5,164.4,293z"/>
			<path class="st9" d="M167.7,284.7h0.8v9.6h-0.8V284.7z"/>
			<path class="st9" d="M176.3,287.8v6.5h-0.8v-1.3c-0.2,0.4-0.5,0.8-0.9,1c-0.4,0.2-0.9,0.3-1.4,0.3c-0.6,0-1.1-0.1-1.5-0.4
				c-0.4-0.3-0.8-0.7-1-1.2c-0.2-0.5-0.4-1.1-0.4-1.8s0.1-1.3,0.4-1.8c0.2-0.5,0.6-0.9,1-1.2c0.4-0.3,0.9-0.4,1.5-0.4
				c0.5,0,1,0.1,1.4,0.3s0.7,0.6,0.9,1v-1.2H176.3z M174.9,293c0.4-0.5,0.6-1.1,0.6-2c0-0.9-0.2-1.5-0.6-2s-0.9-0.7-1.6-0.7
				c-0.7,0-1.2,0.2-1.6,0.7c-0.4,0.5-0.6,1.2-0.6,2c0,0.8,0.2,1.5,0.6,2c0.4,0.5,0.9,0.7,1.6,0.7C174,293.7,174.5,293.5,174.9,293z"
				/>
			<path class="st9" d="M179.5,294c-0.5-0.3-0.8-0.7-1.1-1.2c-0.3-0.5-0.4-1.1-0.4-1.8c0-0.7,0.1-1.3,0.4-1.8
				c0.3-0.5,0.6-0.9,1.1-1.2s1-0.4,1.6-0.4c0.4,0,0.9,0.1,1.3,0.2c0.4,0.2,0.7,0.4,1,0.6l-0.3,0.6c-0.3-0.3-0.7-0.5-1-0.6
				c-0.3-0.1-0.6-0.2-1-0.2c-0.7,0-1.3,0.2-1.7,0.7c-0.4,0.5-0.6,1.2-0.6,2c0,0.8,0.2,1.5,0.6,2c0.4,0.5,1,0.7,1.7,0.7
				c0.3,0,0.7-0.1,1-0.2s0.6-0.3,1-0.6l0.3,0.6c-0.3,0.3-0.6,0.5-1,0.6c-0.4,0.2-0.8,0.2-1.3,0.2C180.5,294.4,180,294.3,179.5,294z"
				/>
			<path class="st9" d="M185.4,291L185.4,291c0,0.9,0.2,1.6,0.6,2.1c0.4,0.5,1,0.7,1.8,0.7c0.8,0,1.5-0.3,2.2-0.8l0.3,0.6
				c-0.3,0.3-0.7,0.5-1.1,0.6s-0.9,0.2-1.4,0.2c-1,0-1.8-0.3-2.4-0.9c-0.6-0.6-0.9-1.4-0.9-2.5c0-0.7,0.1-1.3,0.4-1.8
				c0.3-0.5,0.6-0.9,1.1-1.2s1-0.4,1.6-0.4c0.9,0,1.5,0.3,2,0.8s0.7,1.3,0.7,2.3v0.2H185.4z M186.1,288.8c-0.4,0.4-0.6,0.9-0.7,1.5
				h4.2c-0.1-0.7-0.2-1.2-0.6-1.5c-0.3-0.4-0.8-0.5-1.4-0.5C187,288.3,186.5,288.5,186.1,288.8z"/>
			<path class="st9" d="M195.6,285h3c1.5,0,2.6,0.4,3.4,1.2c0.8,0.8,1.2,1.9,1.2,3.4c0,1.5-0.4,2.6-1.2,3.5
				c-0.8,0.8-1.9,1.2-3.4,1.2h-3V285z M198.6,293.6c1.3,0,2.2-0.3,2.8-1c0.6-0.7,1-1.7,1-3c0-2.6-1.3-3.9-3.8-3.9h-2.1v7.9H198.6z"
				/>
			<path class="st9" d="M205.7,291L205.7,291c0,0.9,0.2,1.6,0.6,2.1c0.4,0.5,1,0.7,1.8,0.7c0.8,0,1.5-0.3,2.2-0.8l0.3,0.6
				c-0.3,0.3-0.7,0.5-1.1,0.6s-0.9,0.2-1.4,0.2c-1,0-1.8-0.3-2.4-0.9c-0.6-0.6-0.9-1.4-0.9-2.5c0-0.7,0.1-1.3,0.4-1.8
				c0.3-0.5,0.6-0.9,1.1-1.2s1-0.4,1.6-0.4c0.9,0,1.5,0.3,2,0.8s0.7,1.3,0.7,2.3v0.2H205.7z M206.4,288.8c-0.4,0.4-0.6,0.9-0.7,1.5
				h4.2c-0.1-0.7-0.2-1.2-0.6-1.5c-0.3-0.4-0.8-0.5-1.4-0.5C207.3,288.3,206.8,288.5,206.4,288.8z"/>
			<path class="st9" d="M212,293.5l0.3-0.6c0.3,0.3,0.7,0.5,1.1,0.6s0.8,0.2,1.2,0.2c0.5,0,1-0.1,1.2-0.3c0.3-0.2,0.4-0.5,0.4-0.8
				c0-0.3-0.1-0.5-0.3-0.7c-0.2-0.2-0.5-0.3-0.9-0.4l-1.1-0.2c-0.5-0.1-0.9-0.3-1.2-0.7c-0.3-0.3-0.5-0.7-0.5-1.1
				c0-0.6,0.2-1,0.7-1.4c0.4-0.3,1-0.5,1.8-0.5c0.5,0,0.9,0.1,1.3,0.2s0.7,0.4,1,0.6l-0.3,0.6c-0.6-0.5-1.3-0.8-2-0.8
				c-0.5,0-0.9,0.1-1.2,0.3c-0.3,0.2-0.4,0.5-0.4,0.8c0,0.3,0.1,0.5,0.3,0.7c0.2,0.2,0.5,0.3,0.8,0.4l1.1,0.3
				c1.2,0.3,1.8,0.8,1.8,1.7c0,0.5-0.2,1-0.7,1.3c-0.5,0.3-1.1,0.5-1.8,0.5C213.5,294.4,212.6,294.1,212,293.5z"/>
			<path class="st9" d="M219.9,285.1v1h-1.1v-1H219.9z M218.9,287.8h0.8v6.5h-0.8V287.8z"/>
			<path class="st9" d="M227.6,287.8v6.6c0,0.9-0.2,1.7-0.7,2.2c-0.5,0.5-1.2,0.7-2.1,0.7c-1,0-1.8-0.2-2.5-0.7l0.2-0.7
				c0.4,0.3,0.8,0.4,1.2,0.5c0.4,0.1,0.8,0.2,1.2,0.2c0.7,0,1.1-0.2,1.5-0.5c0.3-0.4,0.5-0.9,0.5-1.6v-1.7c-0.2,0.4-0.5,0.8-0.9,1
				c-0.4,0.2-0.9,0.4-1.4,0.4c-0.6,0-1.1-0.1-1.5-0.4s-0.8-0.7-1-1.2s-0.4-1.1-0.4-1.7c0-0.6,0.1-1.2,0.4-1.7s0.6-0.9,1-1.1
				c0.4-0.3,1-0.4,1.5-0.4c0.5,0,1,0.1,1.4,0.3s0.7,0.6,0.9,1v-1.2H227.6z M226.2,292.7c0.4-0.5,0.6-1.1,0.6-1.9
				c0-0.8-0.2-1.4-0.6-1.9c-0.4-0.5-0.9-0.7-1.6-0.7c-0.7,0-1.2,0.2-1.6,0.7s-0.6,1.1-0.6,1.9c0,0.8,0.2,1.4,0.6,1.9
				c0.4,0.4,0.9,0.7,1.6,0.7C225.3,293.4,225.8,293.2,226.2,292.7z"/>
			<path class="st9" d="M235.2,290.2v4.2h-0.8v-4.1c0-0.7-0.1-1.1-0.4-1.4s-0.7-0.5-1.2-0.5c-0.7,0-1.2,0.2-1.6,0.6
				c-0.4,0.4-0.6,0.9-0.6,1.6v3.8h-0.8v-4.7c0-0.7,0-1.3-0.1-1.8h0.8l0.1,1.2c0.2-0.4,0.5-0.8,0.9-1s0.9-0.3,1.4-0.3
				C234.4,287.6,235.2,288.5,235.2,290.2z"/>
			<path class="st9" d="M243,287.8v6.5h-0.8v-1.3c-0.2,0.4-0.5,0.8-0.9,1c-0.4,0.2-0.9,0.3-1.4,0.3c-0.6,0-1.1-0.1-1.5-0.4
				c-0.4-0.3-0.8-0.7-1-1.2c-0.2-0.5-0.4-1.1-0.4-1.8s0.1-1.3,0.4-1.8c0.2-0.5,0.6-0.9,1-1.2c0.4-0.3,0.9-0.4,1.5-0.4
				c0.5,0,1,0.1,1.4,0.3s0.7,0.6,0.9,1v-1.2H243z M241.6,293c0.4-0.5,0.6-1.1,0.6-2c0-0.9-0.2-1.5-0.6-2s-0.9-0.7-1.6-0.7
				c-0.7,0-1.2,0.2-1.6,0.7c-0.4,0.5-0.6,1.2-0.6,2c0,0.8,0.2,1.5,0.6,2c0.4,0.5,0.9,0.7,1.6,0.7C240.7,293.7,241.3,293.5,241.6,293
				z"/>
			<path class="st9" d="M246.3,288.4v3.9c0,0.5,0.1,0.9,0.3,1.1s0.5,0.3,0.9,0.3c0.2,0,0.5,0,0.7-0.1v0.7c-0.3,0.1-0.6,0.1-0.8,0.1
				c-0.6,0-1-0.2-1.4-0.5c-0.3-0.3-0.5-0.8-0.5-1.5v-4.1h-1.3v-0.6h1.3V286l0.8-0.3v2h1.9v0.6H246.3z"/>
			<path class="st9" d="M250.6,285.1v1h-1.1v-1H250.6z M249.7,287.8h0.8v6.5h-0.8V287.8z"/>
			<path class="st9" d="M253.7,294c-0.5-0.3-0.8-0.7-1.1-1.2c-0.2-0.5-0.4-1.1-0.4-1.8c0-0.7,0.1-1.3,0.4-1.8
				c0.2-0.5,0.6-0.9,1.1-1.2c0.5-0.3,1-0.4,1.6-0.4c0.6,0,1.1,0.1,1.6,0.4c0.5,0.3,0.8,0.7,1.1,1.2c0.2,0.5,0.4,1.1,0.4,1.8
				c0,0.7-0.1,1.3-0.4,1.8c-0.2,0.5-0.6,0.9-1.1,1.2c-0.5,0.3-1,0.4-1.6,0.4C254.7,294.4,254.2,294.3,253.7,294z M256.9,293
				c0.4-0.5,0.6-1.1,0.6-2c0-0.9-0.2-1.5-0.6-2s-0.9-0.7-1.6-0.7c-0.7,0-1.2,0.2-1.6,0.7c-0.4,0.5-0.6,1.1-0.6,2
				c0,0.9,0.2,1.5,0.6,2c0.4,0.5,0.9,0.7,1.6,0.7S256.6,293.5,256.9,293z"/>
			<path class="st9" d="M265.6,290.2v4.2h-0.8v-4.1c0-0.7-0.1-1.1-0.4-1.4s-0.7-0.5-1.2-0.5c-0.7,0-1.2,0.2-1.6,0.6
				c-0.4,0.4-0.6,0.9-0.6,1.6v3.8h-0.8v-4.7c0-0.7,0-1.3-0.1-1.8h0.8l0.1,1.2c0.2-0.4,0.5-0.8,0.9-1s0.9-0.3,1.4-0.3
				C264.8,287.6,265.6,288.5,265.6,290.2z"/>
			<path class="st9" d="M54.4,306.8H58v0.7h-3.6V306.8z"/>
			<path class="st9" d="M69.7,308.2h-5l-1.1,2.5h-0.8l4.1-9.3h0.7l4,9.3h-0.8L69.7,308.2z M69.4,307.5l-2.2-5.1l-2.2,5.1H69.4z"/>
			<path class="st9" d="M78.3,304.1v6.5h-0.8v-1.2c-0.2,0.4-0.5,0.7-0.9,1c-0.4,0.2-0.8,0.3-1.3,0.3c-0.8,0-1.3-0.2-1.7-0.6
				c-0.4-0.4-0.6-1.1-0.6-1.9v-4.1h0.8v4.1c0,0.6,0.1,1.1,0.4,1.4c0.3,0.3,0.7,0.5,1.2,0.5c0.6,0,1.2-0.2,1.5-0.6
				c0.4-0.4,0.6-0.9,0.6-1.6v-3.7H78.3z"/>
			<path class="st9" d="M81.7,304.8v3.9c0,0.5,0.1,0.9,0.3,1.1s0.5,0.3,0.9,0.3c0.2,0,0.5,0,0.7-0.1v0.7c-0.3,0.1-0.6,0.1-0.8,0.1
				c-0.6,0-1-0.2-1.4-0.5c-0.3-0.3-0.5-0.8-0.5-1.5v-4.1h-1.3v-0.6h1.3v-1.7l0.8-0.3v2h1.9v0.6H81.7z"/>
			<path class="st9" d="M90.4,306.5v4.2h-0.8v-4.1c0-0.7-0.1-1.1-0.4-1.4s-0.7-0.5-1.2-0.5c-0.7,0-1.2,0.2-1.6,0.6
				c-0.4,0.4-0.6,0.9-0.6,1.6v3.8H85V301h0.8v4.2c0.2-0.4,0.5-0.7,0.9-1c0.4-0.2,0.8-0.3,1.4-0.3C89.7,304,90.4,304.8,90.4,306.5z"
				/>
			<path class="st9" d="M93.7,310.3c-0.5-0.3-0.8-0.7-1.1-1.2c-0.2-0.5-0.4-1.1-0.4-1.8c0-0.7,0.1-1.3,0.4-1.8
				c0.2-0.5,0.6-0.9,1.1-1.2c0.5-0.3,1-0.4,1.6-0.4c0.6,0,1.1,0.1,1.6,0.4c0.5,0.3,0.8,0.7,1.1,1.2c0.2,0.5,0.4,1.1,0.4,1.8
				c0,0.7-0.1,1.3-0.4,1.8c-0.2,0.5-0.6,0.9-1.1,1.2c-0.5,0.3-1,0.4-1.6,0.4C94.7,310.7,94.1,310.6,93.7,310.3z M96.9,309.3
				c0.4-0.5,0.6-1.1,0.6-2c0-0.9-0.2-1.5-0.6-2s-0.9-0.7-1.6-0.7c-0.7,0-1.2,0.2-1.6,0.7c-0.4,0.5-0.6,1.1-0.6,2
				c0,0.9,0.2,1.5,0.6,2c0.4,0.5,0.9,0.7,1.6,0.7S96.5,309.8,96.9,309.3z"/>
			<path class="st9" d="M103.5,304l0,0.7c-0.2,0-0.4-0.1-0.6-0.1c-0.7,0-1.2,0.2-1.5,0.6c-0.3,0.4-0.5,0.9-0.5,1.5v3.8h-0.8v-4.7
				c0-0.7,0-1.3-0.1-1.8h0.8l0.1,1.2c0.2-0.4,0.4-0.8,0.8-1c0.4-0.2,0.8-0.4,1.3-0.4C103.1,304,103.3,304,103.5,304z"/>
			<path class="st9" d="M105.6,301.4v1h-1.1v-1H105.6z M104.7,304.1h0.8v6.5h-0.8V304.1z"/>
			<path class="st9" d="M112.8,310v0.7h-5.5v-0.5l4.4-5.4h-4.2v-0.6h5.2v0.6l-4.3,5.3H112.8z"/>
			<path class="st9" d="M114.8,307.3L114.8,307.3c0,0.9,0.2,1.6,0.6,2.1c0.4,0.5,1,0.7,1.8,0.7c0.8,0,1.5-0.3,2.2-0.8l0.3,0.6
				c-0.3,0.3-0.7,0.5-1.1,0.6s-0.9,0.2-1.4,0.2c-1,0-1.8-0.3-2.4-0.9c-0.6-0.6-0.9-1.4-0.9-2.5c0-0.7,0.1-1.3,0.4-1.8
				c0.3-0.5,0.6-0.9,1.1-1.2s1-0.4,1.6-0.4c0.9,0,1.5,0.3,2,0.8s0.7,1.3,0.7,2.3v0.2H114.8z M115.6,305.1c-0.4,0.4-0.6,0.9-0.7,1.5
				h4.2c-0.1-0.7-0.2-1.2-0.6-1.5c-0.3-0.4-0.8-0.5-1.4-0.5C116.4,304.6,115.9,304.8,115.6,305.1z"/>
			<path class="st9" d="M127.1,301v9.6h-0.8v-1.3c-0.2,0.4-0.5,0.8-0.9,1c-0.4,0.2-0.9,0.3-1.4,0.3c-0.6,0-1.1-0.1-1.5-0.4
				c-0.4-0.3-0.8-0.7-1-1.2s-0.4-1.1-0.4-1.8s0.1-1.3,0.4-1.8c0.2-0.5,0.6-0.9,1-1.2c0.4-0.3,1-0.4,1.5-0.4c0.5,0,1,0.1,1.4,0.3
				s0.7,0.6,0.9,1V301H127.1z M125.8,309.3c0.4-0.5,0.6-1.1,0.6-2c0-0.9-0.2-1.5-0.6-2s-0.9-0.7-1.6-0.7c-0.7,0-1.2,0.2-1.6,0.7
				c-0.4,0.5-0.6,1.1-0.6,2c0,0.9,0.2,1.5,0.6,2c0.4,0.5,0.9,0.7,1.6,0.7C124.8,310,125.4,309.8,125.8,309.3z"/>
		</g>
	</g>
	<g>
		<g>
			<path class="st1" d="M21.6,101.8l0.9-1c0.6,0.8,1.3,1.2,2.1,1.2c1.2,0,1.8-0.7,1.8-2.1v-5.8h-3.7v-1.3h5.2v7
				c0,2.3-1.1,3.4-3.2,3.4C23.4,103.3,22.3,102.8,21.6,101.8z"/>
			<path class="st1" d="M37.3,100.6h-5.5l-1.1,2.6h-1.5l4.7-10.3h1.5l4.7,10.3h-1.5L37.3,100.6z M36.8,99.4l-2.2-5l-2.2,5H36.8z"/>
			<path class="st1" d="M50.5,100.4c0,1.8-1.3,2.8-3.9,2.8h-4.9V92.9h4.6c2.4,0,3.7,1,3.7,2.7c0,1.1-0.6,1.9-1.4,2.3
				C49.8,98.2,50.5,99,50.5,100.4z M43.2,94.1v3.3h3c1.5,0,2.4-0.6,2.4-1.6c0-1.1-0.9-1.6-2.4-1.6H43.2z M49.1,100.3
				c0-1.2-0.9-1.7-2.5-1.7h-3.4v3.4h3.4C48.2,102,49.1,101.5,49.1,100.3z"/>
			<path class="st1" d="M63.6,100.6h-5.5l-1.1,2.6h-1.5l4.7-10.3h1.5l4.7,10.3h-1.5L63.6,100.6z M63.1,99.4l-2.2-5l-2.2,5H63.1z"/>
			<path class="st1" d="M74.9,95.4v7.8h-1.3V102c-0.6,0.8-1.5,1.3-2.6,1.3c-2,0-3.4-1.1-3.4-3.4v-4.5H69v4.3c0,1.5,0.8,2.3,2.1,2.3
				c1.5,0,2.4-0.9,2.4-2.6v-4H74.9z"/>
			<path class="st1" d="M82.1,102.7c-0.4,0.4-1.1,0.5-1.7,0.5c-1.6,0-2.5-0.9-2.5-2.4v-4.3h-1.3v-1.2h1.3v-1.7h1.4v1.7h2.2v1.2h-2.2
				v4.2c0,0.8,0.4,1.3,1.2,1.3c0.4,0,0.8-0.1,1.1-0.4L82.1,102.7z"/>
			<path class="st1" d="M91.3,98.7v4.5h-1.4v-4.3c0-1.5-0.8-2.3-2.1-2.3c-1.5,0-2.5,0.9-2.5,2.6v4H84V92.3h1.4v4.2
				c0.6-0.7,1.6-1.2,2.7-1.2C90,95.3,91.3,96.4,91.3,98.7z"/>
			<path class="st1" d="M93.4,99.3c0-2.3,1.7-4,4.1-4c2.3,0,4,1.6,4,4s-1.7,4-4,4C95.2,103.3,93.4,101.6,93.4,99.3z M100.1,99.3
				c0-1.7-1.1-2.7-2.6-2.7s-2.6,1.1-2.6,2.7c0,1.7,1.1,2.7,2.6,2.7S100.1,100.9,100.1,99.3z"/>
			<path class="st1" d="M107.8,95.3v1.4c-0.1,0-0.2,0-0.3,0c-1.5,0-2.5,0.9-2.5,2.6v3.9h-1.4v-7.8h1.4v1.3
				C105.5,95.8,106.5,95.3,107.8,95.3z"/>
			<path class="st1" d="M109.5,93c0-0.5,0.4-0.9,1-0.9c0.5,0,1,0.4,1,0.9c0,0.5-0.4,0.9-1,0.9C109.9,93.9,109.5,93.5,109.5,93z
				 M109.7,95.4h1.4v7.8h-1.4V95.4z"/>
			<path class="st1" d="M119.7,102v1.2h-6.5v-0.9l4.6-5.7h-4.5v-1.2h6.3v0.9L115,102H119.7z"/>
			<path class="st1" d="M127.9,98.5v4.7h-1.3v-1c-0.5,0.7-1.3,1.1-2.6,1.1c-1.8,0-2.9-0.9-2.9-2.3c0-1.2,0.8-2.3,3.1-2.3h2.2v-0.3
				c0-1.2-0.7-1.9-2.1-1.9c-0.9,0-1.9,0.3-2.5,0.8l-0.6-1.1c0.8-0.6,2-1,3.2-1C126.7,95.3,127.9,96.3,127.9,98.5z M126.5,100.8v-1.1
				h-2.2c-1.4,0-1.8,0.5-1.8,1.2c0,0.8,0.6,1.3,1.7,1.3C125.3,102.2,126.2,101.7,126.5,100.8z"/>
			<path class="st1" d="M135.1,102.7c-0.4,0.4-1.1,0.5-1.7,0.5c-1.6,0-2.5-0.9-2.5-2.4v-4.3h-1.3v-1.2h1.3v-1.7h1.4v1.7h2.2v1.2
				h-2.2v4.2c0,0.8,0.4,1.3,1.2,1.3c0.4,0,0.8-0.1,1.1-0.4L135.1,102.7z"/>
			<path class="st1" d="M136.7,93c0-0.5,0.4-0.9,1-0.9c0.5,0,1,0.4,1,0.9c0,0.5-0.4,0.9-1,0.9C137.1,93.9,136.7,93.5,136.7,93z
				 M136.9,95.4h1.4v7.8h-1.4V95.4z"/>
			<path class="st1" d="M140.5,99.3c0-2.3,1.7-4,4.1-4c2.3,0,4,1.6,4,4s-1.7,4-4,4C142.2,103.3,140.5,101.6,140.5,99.3z M147.1,99.3
				c0-1.7-1.1-2.7-2.6-2.7s-2.6,1.1-2.6,2.7c0,1.7,1.1,2.7,2.6,2.7S147.1,100.9,147.1,99.3z"/>
			<path class="st1" d="M158.1,98.7v4.5h-1.4v-4.3c0-1.5-0.8-2.3-2.1-2.3c-1.5,0-2.5,0.9-2.5,2.6v4h-1.4v-7.8h1.4v1.2
				c0.6-0.8,1.6-1.2,2.8-1.2C156.7,95.3,158.1,96.4,158.1,98.7z"/>
			<path class="st1" d="M173.4,96.5c0,2.2-1.6,3.6-4.3,3.6h-2.5v3.1h-1.5V92.9h4C171.8,92.9,173.4,94.2,173.4,96.5z M172,96.5
				c0-1.5-1-2.3-2.9-2.3h-2.5v4.6h2.5C171,98.8,172,97.9,172,96.5z"/>
			<path class="st1" d="M179.6,95.3v1.4c-0.1,0-0.2,0-0.3,0c-1.5,0-2.5,0.9-2.5,2.6v3.9h-1.4v-7.8h1.4v1.3
				C177.3,95.8,178.2,95.3,179.6,95.3z"/>
			<path class="st1" d="M180.7,99.3c0-2.3,1.7-4,4.1-4c2.3,0,4,1.6,4,4s-1.7,4-4,4C182.4,103.3,180.7,101.6,180.7,99.3z M187.4,99.3
				c0-1.7-1.1-2.7-2.6-2.7s-2.6,1.1-2.6,2.7c0,1.7,1.1,2.7,2.6,2.7S187.4,100.9,187.4,99.3z"/>
			<path class="st1" d="M190.2,99.3c0-2.3,1.7-4,4.1-4c1.4,0,2.6,0.6,3.2,1.7l-1.1,0.7c-0.5-0.8-1.3-1.1-2.1-1.1
				c-1.5,0-2.7,1.1-2.7,2.7c0,1.7,1.1,2.7,2.7,2.7c0.9,0,1.6-0.4,2.1-1.1l1.1,0.7c-0.6,1.1-1.8,1.7-3.2,1.7
				C191.9,103.3,190.2,101.6,190.2,99.3z"/>
			<path class="st1" d="M206.3,99.7H200c0.2,1.4,1.3,2.3,2.8,2.3c0.9,0,1.7-0.3,2.2-0.9l0.8,0.9c-0.7,0.8-1.8,1.3-3.1,1.3
				c-2.5,0-4.2-1.7-4.2-4c0-2.3,1.7-4,3.9-4c2.2,0,3.9,1.6,3.9,4C206.4,99.4,206.3,99.6,206.3,99.7z M200,98.7h5
				c-0.1-1.3-1.1-2.2-2.5-2.2C201.2,96.5,200.2,97.4,200,98.7z"/>
			<path class="st1" d="M207.5,102.3l0.6-1.1c0.7,0.5,1.7,0.8,2.7,0.8c1.3,0,1.9-0.4,1.9-1.1c0-1.7-4.9-0.2-4.9-3.3
				c0-1.4,1.2-2.3,3.2-2.3c1,0,2.2,0.3,2.8,0.7l-0.6,1.1c-0.7-0.5-1.5-0.6-2.2-0.6c-1.2,0-1.8,0.5-1.8,1.1c0,1.8,4.9,0.3,4.9,3.4
				c0,1.4-1.3,2.3-3.4,2.3C209.4,103.3,208.1,102.9,207.5,102.3z"/>
			<path class="st1" d="M215,102.3l0.6-1.1c0.7,0.5,1.7,0.8,2.7,0.8c1.3,0,1.9-0.4,1.9-1.1c0-1.7-4.9-0.2-4.9-3.3
				c0-1.4,1.2-2.3,3.2-2.3c1,0,2.2,0.3,2.8,0.7l-0.6,1.1c-0.7-0.5-1.5-0.6-2.2-0.6c-1.2,0-1.8,0.5-1.8,1.1c0,1.8,4.9,0.3,4.9,3.4
				c0,1.4-1.3,2.3-3.4,2.3C216.9,103.3,215.6,102.9,215,102.3z"/>
		</g>
	</g>
	<rect x="31.7" y="168" class="st1" width="0.8" height="110"/>
	<rect x="31.7" y="125.9" class="st1" width="0.8" height="9.1"/>
	<g>
		<path class="st13" d="M41.4,300.1c0.4-0.7-0.3-1.9-0.1-2.7c0.2-0.8,1.4-1.4,1.4-2.3c0-0.8-1.2-1.5-1.4-2.3c-0.2-0.8,0.5-2,0.1-2.7
			c-0.4-0.7-1.8-0.7-2.4-1.3c-0.6-0.6-0.5-2-1.3-2.4c-0.7-0.4-1.9,0.3-2.7,0.1c-0.8-0.2-1.4-1.4-2.3-1.4c-0.8,0-1.5,1.2-2.3,1.4
			c-0.8,0.2-2-0.5-2.7-0.1c-0.7,0.4-0.7,1.8-1.3,2.4c-0.6,0.6-2,0.5-2.4,1.3c-0.4,0.7,0.3,1.9,0.1,2.7c-0.2,0.8-1.4,1.4-1.4,2.3
			c0,0.8,1.2,1.5,1.4,2.3c0.2,0.8-0.5,2-0.1,2.7c0.4,0.7,1.8,0.7,2.4,1.3c0.4,0.4,0.5,1.1,0.7,1.7l-3.2,6.6l4.3-1l2.2,3.8l2.2-5.9
			l2.2,5.9l2.2-3.8l4.3,1l-3.2-6.6c0.2-0.6,0.4-1.3,0.7-1.7C39.6,300.8,41,300.8,41.4,300.1z"/>
		<g>
			<g>
				<polygon class="st14" points="29.2,311 27,307.2 22.7,308.3 28.4,296.3 33.8,298.6 				"/>
				<polygon class="st14" points="33.6,311 35.8,307.2 40,308.3 34.3,296.3 28.9,298.6 				"/>
			</g>
			<path class="st15" d="M41.3,293.8c0,0.8-1.2,1.5-1.4,2.3c-0.2,0.8,0.5,2,0.1,2.7c-0.4,0.7-1.8,0.7-2.4,1.3
				c-0.6,0.6-0.5,2-1.3,2.4c-0.7,0.4-1.9-0.3-2.7-0.1c-0.8,0.2-1.4,1.4-2.3,1.4c-0.8,0-1.5-1.2-2.3-1.4c-0.8-0.2-2,0.5-2.7,0.1
				c-0.7-0.4-0.7-1.8-1.3-2.4c-0.6-0.6-2-0.5-2.4-1.3c-0.4-0.7,0.3-1.9,0.1-2.7c-0.2-0.8-1.4-1.4-1.4-2.3c0-0.8,1.2-1.5,1.4-2.3
				c0.2-0.8-0.5-2-0.1-2.7c0.4-0.7,1.8-0.7,2.4-1.3c0.6-0.6,0.5-2,1.3-2.4c0.7-0.4,1.9,0.3,2.7,0.1c0.8-0.2,1.4-1.4,2.3-1.4
				c0.8,0,1.5,1.2,2.3,1.4c0.8,0.2,2-0.5,2.7-0.1c0.7,0.4,0.7,1.8,1.3,2.4c0.6,0.6,2,0.5,2.4,1.3c0.4,0.7-0.3,1.9-0.1,2.7
				C40,292.3,41.3,292.9,41.3,293.8z"/>
			<g>
				<path class="st2" d="M37,293.8c0,3.1-2.5,5.6-5.6,5.6s-5.6-2.5-5.6-5.6s2.5-5.6,5.6-5.6S37,290.7,37,293.8"/>
				<path class="st4" d="M36,293.8c0,2.6-2.1,4.6-4.6,4.6s-4.6-2.1-4.6-4.6s2.1-4.6,4.6-4.6S36,291.2,36,293.8"/>
			</g>
		</g>
	</g>
	<g>
		<path class="st13" d="M43.3,154.3c0-1.3,0-1.3,0-2.5L41,151c-0.3-0.7-0.5-1.1-0.7-1.8l1-2.2c-0.9-0.9-0.9-0.9-1.8-1.8l-2.2,1
			c-0.7-0.3-1.1-0.5-1.8-0.8l-0.8-2.3c-1.3,0-1.3,0-2.5,0l-0.8,2.3c-0.7,0.3-1.1,0.5-1.8,0.7l-2.2-1c-0.9,0.9-0.9,0.9-1.8,1.8l1,2.2
			c-0.3,0.7-0.5,1.1-0.8,1.8l-2.3,0.8c0,1.3,0,1.3,0,2.5l2.3,0.8c0.3,0.7,0.5,1.1,0.7,1.8l-1,2.2c0.9,0.9,0.9,0.9,1.8,1.8l2.2-1
			c0.7,0.3,1.1,0.5,1.8,0.8l0.8,2.3c1.3,0,1.3,0,2.5,0l0.8-2.3c0.7-0.3,1.1-0.5,1.8-0.7l2.2,1c0.9-0.9,0.9-0.9,1.8-1.8l-1-2.2
			c0.3-0.7,0.5-1.1,0.8-1.8L43.3,154.3z M33.4,156.8c-2.1,0-3.8-1.7-3.8-3.8c0-2.1,1.7-3.8,3.8-3.8c2.1,0,3.8,1.7,3.8,3.8
			C37.2,155.1,35.5,156.8,33.4,156.8z"/>
		<path class="st15" d="M42.1,153.5c0-1.3,0-1.3,0-2.5l-2.3-0.8c-0.3-0.7-0.5-1.1-0.7-1.8l1-2.2c-0.9-0.9-0.9-0.9-1.8-1.8l-2.2,1
			c-0.7-0.3-1.1-0.5-1.8-0.8l-0.8-2.3c-1.3,0-1.3,0-2.5,0l-0.8,2.3c-0.7,0.3-1.1,0.5-1.8,0.7l-2.2-1c-0.9,0.9-0.9,0.9-1.8,1.8l1,2.2
			c-0.3,0.7-0.5,1.1-0.8,1.8l-2.3,0.8c0,1.3,0,1.3,0,2.5l2.3,0.8c0.3,0.7,0.5,1.1,0.7,1.8l-1,2.2c0.9,0.9,0.9,0.9,1.8,1.8l2.2-1
			c0.7,0.3,1.1,0.5,1.8,0.8l0.8,2.3c1.3,0,1.3,0,2.5,0l0.8-2.3c0.7-0.3,1.1-0.5,1.8-0.7l2.2,1c0.9-0.9,0.9-0.9,1.8-1.8l-1-2.2
			c0.3-0.7,0.5-1.1,0.8-1.8L42.1,153.5z M32.2,156c-2.1,0-3.8-1.7-3.8-3.8c0-2.1,1.7-3.8,3.8-3.8c2.1,0,3.8,1.7,3.8,3.8
			C36.1,154.3,34.4,156,32.2,156z"/>
	</g>
</g>
</svg>
