<svg xmlns="http://www.w3.org/2000/svg" width="199.5" height="44.3" viewBox="0 0 199.5 44.3">
  <g id="Group_4513" data-name="Group 4513" transform="translate(-0.6 -224.8)">
    <g id="Group_4511" data-name="Group 4511">
      <path id="Path_11446" data-name="Path 11446" d="M22.2,225.7l156.3-.5a21.3,21.3,0,0,1,21.3,21.2v.5a21.3,21.3,0,0,1-21.2,21.3l-156.3.5A21.3,21.3,0,0,1,1,247.5V247A21.168,21.168,0,0,1,22.2,225.7Z" fill="#fff"/>
      <path id="Path_11447" data-name="Path 11447" d="M22.3,269.1A21.659,21.659,0,0,1,.6,247.5V247a21.719,21.719,0,0,1,6.2-15.3,21.489,21.489,0,0,1,15.3-6.4l156.3-.5a21.659,21.659,0,0,1,21.7,21.6v.5a21.659,21.659,0,0,1-21.6,21.7Zm-.1-43a20.827,20.827,0,0,0-20.8,21v.5a20.87,20.87,0,0,0,20.9,20.8l156.3-.5A20.87,20.87,0,0,0,199.4,247v-.5a20.87,20.87,0,0,0-20.9-20.8Z" fill="#c71f25"/>
    </g>
    <g id="Group_4512" data-name="Group 4512" style="isolation: isolate">
      <path id="Path_11448" data-name="Path 11448" d="M46,251.3l1.5-1.8a2.722,2.722,0,0,0,2.1,1.3c1.1,0,1.6-.6,1.6-1.9v-5.5H47.1v-2.1H54v7.5c0,2.9-1.4,4.3-4.2,4.3A6.191,6.191,0,0,1,46,251.3Z" fill="#cc1d1d"/>
      <path id="Path_11449" data-name="Path 11449" d="M64,250.3H58.6l-1,2.5H54.9L60,241.3h2.6l5.2,11.5H65Zm-.9-2.1-1.8-4.4-1.8,4.4Z" fill="#cc1d1d"/>
      <path id="Path_11450" data-name="Path 11450" d="M79.6,249.6c0,2-1.6,3.2-4.6,3.2H69V241.3h5.6c2.9,0,4.4,1.2,4.4,3a2.713,2.713,0,0,1-1.5,2.5A2.647,2.647,0,0,1,79.6,249.6Zm-7.9-6.4v2.7h2.7c1.3,0,2-.5,2-1.4s-.7-1.4-2-1.4H71.7Zm5.2,6.1c0-1-.7-1.4-2.1-1.4H71.7v2.9h3.1C76.2,250.7,76.9,250.3,76.9,249.3Z" fill="#cc1d1d"/>
      <path id="Path_11451" data-name="Path 11451" d="M96.3,245.4c0,2.6-1.9,4.2-5,4.2H89v3.2H86.3V241.3h5C94.4,241.2,96.3,242.8,96.3,245.4Zm-2.7,0c0-1.3-.8-2-2.5-2H89v4h2.2C92.8,247.4,93.6,246.6,93.6,245.4Z" fill="#cc1d1d"/>
      <path id="Path_11452" data-name="Path 11452" d="M103.5,243.7v2.4h-.6a2.237,2.237,0,0,0-2.4,2.5v4.2H98v-8.9h2.5v1.2A3.485,3.485,0,0,1,103.5,243.7Z" fill="#cc1d1d"/>
      <path id="Path_11453" data-name="Path 11453" d="M104.3,248.3a4.91,4.91,0,0,1,9.8,0,4.548,4.548,0,0,1-4.9,4.6A4.6,4.6,0,0,1,104.3,248.3Zm7.2,0a2.317,2.317,0,0,0-2.3-2.5,2.263,2.263,0,0,0-2.3,2.5,2.308,2.308,0,1,0,4.6,0Z" fill="#cc1d1d"/>
      <path id="Path_11454" data-name="Path 11454" d="M115.1,248.3a4.6,4.6,0,0,1,4.9-4.6,4.087,4.087,0,0,1,4,2.3l-2,1.1a2.311,2.311,0,0,0-2-1.2,2.509,2.509,0,0,0,0,5,2.311,2.311,0,0,0,2-1.2l2,1.1a4.078,4.078,0,0,1-4,2.2A4.742,4.742,0,0,1,115.1,248.3Z" fill="#cc1d1d"/>
      <path id="Path_11455" data-name="Path 11455" d="M134.1,249h-6.7a2.342,2.342,0,0,0,2.5,1.8,2.94,2.94,0,0,0,2.2-.9l1.4,1.5a4.82,4.82,0,0,1-3.7,1.4c-3.1,0-5.1-1.9-5.1-4.6a4.492,4.492,0,0,1,4.7-4.6,4.355,4.355,0,0,1,4.6,4.6A2.485,2.485,0,0,1,134.1,249Zm-6.8-1.5h4.4a2.244,2.244,0,0,0-4.4,0Z" fill="#cc1d1d"/>
      <path id="Path_11456" data-name="Path 11456" d="M135,251.9l.9-1.8a6.259,6.259,0,0,0,3.1.9c1.2,0,1.6-.3,1.6-.8,0-1.5-5.4,0-5.4-3.5,0-1.7,1.5-2.9,4.1-2.9a7.116,7.116,0,0,1,3.4.8l-.9,1.8a5.09,5.09,0,0,0-2.6-.7c-1.2,0-1.6.4-1.6.8,0,1.5,5.4,0,5.4,3.5,0,1.6-1.5,2.8-4.2,2.8A6.135,6.135,0,0,1,135,251.9Z" fill="#cc1d1d"/>
      <path id="Path_11457" data-name="Path 11457" d="M143.7,251.9l.9-1.8a6.259,6.259,0,0,0,3.1.9c1.2,0,1.6-.3,1.6-.8,0-1.5-5.4,0-5.4-3.5,0-1.7,1.5-2.9,4.1-2.9a7.116,7.116,0,0,1,3.4.8l-.9,1.8a5.09,5.09,0,0,0-2.6-.7c-1.2,0-1.6.4-1.6.8,0,1.5,5.4,0,5.4,3.5,0,1.6-1.5,2.8-4.2,2.8A6.509,6.509,0,0,1,143.7,251.9Z" fill="#cc1d1d"/>
    </g>
  </g>
</svg>
