<svg xmlns="http://www.w3.org/2000/svg" width="137.7" height="104.5" viewBox="0 0 137.7 104.5">
  <g id="Group_9270" data-name="Group 9270" transform="translate(-906.8 -264.4)">
    <path id="Path_23881" data-name="Path 23881" d="M857.9,202.8l-17.6-18.4-17.5,18.4H771.9v85.1H908.8V202.8Z" transform="translate(135.3 80.6)" fill="#fff"/>
    <path id="Path_23882" data-name="Path 23882" d="M909.2,288.3H771.5V202.4h51.1l17.7-18.6,17.8,18.6h51.1v85.9Z" transform="translate(135.3 80.6)" fill="#c71f25"/>
    <path id="Path_23883" data-name="Path 23883" d="M824.4,232.5a6.637,6.637,0,0,0,1.3.1,1.728,1.728,0,0,0,1.3-.5,3.38,3.38,0,0,0,.4-1.8V217.7h1.5v12.6a4.148,4.148,0,0,1-.7,2.7,2.608,2.608,0,0,1-2.2.8,8.635,8.635,0,0,1-1.5-.1l-.1-1.2Z" transform="translate(135.3 80.6)" fill="#fff"/>
    <path id="Path_23884" data-name="Path 23884" d="M840.4,227.3h-6.7l-1.4,3.3h-1.5l5.6-12.8h1.3l5.6,12.8h-1.5Zm-.6-1.2-2.8-6.6-2.8,6.6Z" transform="translate(135.3 80.6)" fill="#fff"/>
    <path id="Path_23885" data-name="Path 23885" d="M854.2,225.1a3.174,3.174,0,0,1,.6,2,3.315,3.315,0,0,1-1.1,2.6,4.885,4.885,0,0,1-3.2.9h-5.3V217.8h5.1a4.964,4.964,0,0,1,3.1.9,3.1,3.1,0,0,1,1.1,2.5,3.453,3.453,0,0,1-.5,1.8,2.827,2.827,0,0,1-1.5,1.1A2.7,2.7,0,0,1,854.2,225.1Zm-7.6-1.6h3.5a3.4,3.4,0,0,0,2.2-.6,1.94,1.94,0,0,0,.7-1.7c0-1.5-1-2.2-2.9-2.2h-3.5Zm6,5.3a2.06,2.06,0,0,0,.7-1.7c0-1.6-1-2.4-2.9-2.4h-3.7v4.7h3.7A3.4,3.4,0,0,0,852.6,228.8Z" transform="translate(135.3 80.6)" fill="#fff"/>
    <path id="Path_23886" data-name="Path 23886" d="M792.7,248.9H786l-1.4,3.3h-1.5l5.6-12.8H790l5.6,12.8h-1.5Zm-.5-1.2-2.8-6.6-2.8,6.6Z" transform="translate(135.3 80.6)" fill="#fff"/>
    <path id="Path_23887" data-name="Path 23887" d="M805,243.2v9.1h-1.4v-1.6a3.039,3.039,0,0,1-1.2,1.3,3.287,3.287,0,0,1-1.7.4,2.953,2.953,0,0,1-2.4-.9,3.647,3.647,0,0,1-.8-2.7v-5.6H799v5.6a2.969,2.969,0,0,0,.5,1.8,1.755,1.755,0,0,0,1.5.6,2.407,2.407,0,0,0,1.9-.8,2.817,2.817,0,0,0,.7-2.1v-5.1Z" transform="translate(135.3 80.6)" fill="#fff"/>
    <path id="Path_23888" data-name="Path 23888" d="M809.7,244.3v5a1.809,1.809,0,0,0,.4,1.4,1.594,1.594,0,0,0,1.2.4,3.553,3.553,0,0,0,1-.2v1.2a5.067,5.067,0,0,1-1.3.2,2.578,2.578,0,0,1-2-.7,2.918,2.918,0,0,1-.7-2.2v-5.1h-1.8v-1.2h1.8v-2.3l1.5-.5v2.8h2.6v1.2Z" transform="translate(135.3 80.6)" fill="#fff"/>
    <path id="Path_23889" data-name="Path 23889" d="M821.8,246.5v5.7h-1.5v-5.6a2.763,2.763,0,0,0-.5-1.8,2.359,2.359,0,0,0-1.6-.6,2.792,2.792,0,0,0-2,.8,2.865,2.865,0,0,0-.8,2.1v5.2h-1.5V239h1.5v5.7a3.039,3.039,0,0,1,1.2-1.3,3.425,3.425,0,0,1,1.8-.4C820.8,242.9,821.8,244.1,821.8,246.5Z" transform="translate(135.3 80.6)" fill="#fff"/>
    <path id="Path_23890" data-name="Path 23890" d="M826.1,251.8a4.63,4.63,0,0,1-1.5-1.6,4.87,4.87,0,0,1-.5-2.5,6.551,6.551,0,0,1,.5-2.5,3.891,3.891,0,0,1,1.5-1.6,4.032,4.032,0,0,1,2.2-.6,3.8,3.8,0,0,1,2.2.6,4.629,4.629,0,0,1,1.5,1.6,4.869,4.869,0,0,1,.5,2.5,6.551,6.551,0,0,1-.5,2.5,3.891,3.891,0,0,1-1.5,1.6,4.032,4.032,0,0,1-2.2.6A7.09,7.09,0,0,1,826.1,251.8Zm4.3-1.6a5.179,5.179,0,0,0,0-5.2,2.9,2.9,0,0,0-4.2,0,5.178,5.178,0,0,0,0,5.2,2.9,2.9,0,0,0,4.2,0Z" transform="translate(135.3 80.6)" fill="#fff"/>
    <path id="Path_23891" data-name="Path 23891" d="M839.9,243v1.3a3.083,3.083,0,0,0-1-.1,2.629,2.629,0,0,0-2,.8,3.173,3.173,0,0,0-.6,2v5.2h-1.5v-6.5a19.3,19.3,0,0,0-.1-2.5h1.4l.1,1.7a2.586,2.586,0,0,1,1.1-1.4,3.371,3.371,0,0,1,1.7-.5A2.645,2.645,0,0,1,839.9,243Z" transform="translate(135.3 80.6)" fill="#fff"/>
    <path id="Path_23892" data-name="Path 23892" d="M843,239.3V241h-1.8v-1.7Zm-1.6,3.9h1.5v9.1h-1.5Z" transform="translate(135.3 80.6)" fill="#fff"/>
    <path id="Path_23893" data-name="Path 23893" d="M852.8,251.1v1.2h-7.7v-1l5.7-6.9h-5.5v-1.2h7.3v1.1l-5.7,6.8Z" transform="translate(135.3 80.6)" fill="#fff"/>
    <path id="Path_23894" data-name="Path 23894" d="M862.8,243.2v9.1h-1.4v-1.6a3.04,3.04,0,0,1-1.2,1.3,3.83,3.83,0,0,1-1.9.5,3.7,3.7,0,0,1-2.1-.6,3.638,3.638,0,0,1-1.4-1.6,6.175,6.175,0,0,1-.5-2.5,6.551,6.551,0,0,1,.5-2.5,3.906,3.906,0,0,1,1.4-1.7,3.7,3.7,0,0,1,2.1-.6,4.136,4.136,0,0,1,1.9.5,3.745,3.745,0,0,1,1.2,1.3v-1.6Zm-2.2,7a5.178,5.178,0,0,0,0-5.2,2.9,2.9,0,0,0-4.2,0,5.178,5.178,0,0,0,0,5.2,2.583,2.583,0,0,0,2.1.9A2.336,2.336,0,0,0,860.6,250.2Z" transform="translate(135.3 80.6)" fill="#fff"/>
    <path id="Path_23895" data-name="Path 23895" d="M867.6,244.3v5a1.809,1.809,0,0,0,.4,1.4,1.594,1.594,0,0,0,1.2.4,3.553,3.553,0,0,0,1-.2v1.2a5.067,5.067,0,0,1-1.3.2,2.578,2.578,0,0,1-2-.7,2.918,2.918,0,0,1-.7-2.2v-5.1h-1.8v-1.2h1.8v-2.3l1.5-.5v2.8h2.6v1.2Z" transform="translate(135.3 80.6)" fill="#fff"/>
    <path id="Path_23896" data-name="Path 23896" d="M873.6,239.3V241h-1.8v-1.7Zm-1.7,3.9h1.5v9.1h-1.5Z" transform="translate(135.3 80.6)" fill="#fff"/>
    <path id="Path_23897" data-name="Path 23897" d="M877.7,251.8a4.629,4.629,0,0,1-1.5-1.6,4.869,4.869,0,0,1-.5-2.5,6.551,6.551,0,0,1,.5-2.5,3.89,3.89,0,0,1,1.5-1.6,4.031,4.031,0,0,1,2.2-.6,3.8,3.8,0,0,1,2.2.6,4.628,4.628,0,0,1,1.5,1.6,4.869,4.869,0,0,1,.5,2.5,6.55,6.55,0,0,1-.5,2.5,3.89,3.89,0,0,1-1.5,1.6,4.032,4.032,0,0,1-2.2.6A7.089,7.089,0,0,1,877.7,251.8Zm4.3-1.6a5.178,5.178,0,0,0,0-5.2,2.9,2.9,0,0,0-4.2,0,5.178,5.178,0,0,0,0,5.2,2.9,2.9,0,0,0,4.2,0Z" transform="translate(135.3 80.6)" fill="#fff"/>
    <path id="Path_23898" data-name="Path 23898" d="M894.3,246.5v5.7h-1.5v-5.6a2.763,2.763,0,0,0-.5-1.8,2.359,2.359,0,0,0-1.6-.6,2.792,2.792,0,0,0-2,.8,2.865,2.865,0,0,0-.8,2.1v5.2h-1.5v-6.5a19.283,19.283,0,0,0-.1-2.5h1.4l.1,1.6a4.071,4.071,0,0,1,1.2-1.4,4.136,4.136,0,0,1,1.9-.5C893.2,242.9,894.3,244.1,894.3,246.5Z" transform="translate(135.3 80.6)" fill="#fff"/>
    <path id="Path_23899" data-name="Path 23899" d="M808.8,261h5.1a4.454,4.454,0,0,1,3.1,1,3.623,3.623,0,0,1,0,5.2,4.79,4.79,0,0,1-3.1,1h-3.6v5.6h-1.5Zm5,6a3.1,3.1,0,0,0,2.1-.6,2.664,2.664,0,0,0,0-3.6,3.281,3.281,0,0,0-2.1-.6h-3.5v4.7l3.5.1Z" transform="translate(135.3 80.6)" fill="#fff"/>
    <path id="Path_23900" data-name="Path 23900" d="M825.2,264.6v1.3a3.083,3.083,0,0,0-1-.1,2.629,2.629,0,0,0-2,.8,3.173,3.173,0,0,0-.6,2v5.2h-1.5v-6.5a19.3,19.3,0,0,0-.1-2.5h1.4l.1,1.7a2.586,2.586,0,0,1,1.1-1.4,3.371,3.371,0,0,1,1.7-.5A2.645,2.645,0,0,1,825.2,264.6Z" transform="translate(135.3 80.6)" fill="#fff"/>
    <path id="Path_23901" data-name="Path 23901" d="M828,273.4a4.629,4.629,0,0,1-1.5-1.6,4.869,4.869,0,0,1-.5-2.5,6.551,6.551,0,0,1,.5-2.5,3.891,3.891,0,0,1,1.5-1.6,4.031,4.031,0,0,1,2.2-.6,3.8,3.8,0,0,1,2.2.6,4.63,4.63,0,0,1,1.5,1.6,4.87,4.87,0,0,1,.5,2.5,6.551,6.551,0,0,1-.5,2.5,3.891,3.891,0,0,1-1.5,1.6,4.032,4.032,0,0,1-2.2.6A7.945,7.945,0,0,1,828,273.4Zm4.4-1.6a5.179,5.179,0,0,0,0-5.2,2.9,2.9,0,0,0-4.2,0,5.178,5.178,0,0,0,0,5.2,2.9,2.9,0,0,0,4.2,0Z" transform="translate(135.3 80.6)" fill="#fff"/>
    <path id="Path_23902" data-name="Path 23902" d="M838.3,273.4a3.318,3.318,0,0,1-1.5-1.6,4.87,4.87,0,0,1-.5-2.5,6.551,6.551,0,0,1,.5-2.5,4.125,4.125,0,0,1,1.5-1.7,4.383,4.383,0,0,1,2.3-.6,5.663,5.663,0,0,1,1.8.3,3.39,3.39,0,0,1,1.4.9l-.5,1.1a6.551,6.551,0,0,0-1.3-.8,3.079,3.079,0,0,0-1.3-.3,2.792,2.792,0,0,0-2.2.9,4.033,4.033,0,0,0-.8,2.6,3.742,3.742,0,0,0,.8,2.5,2.792,2.792,0,0,0,2.2.9,3.079,3.079,0,0,0,1.3-.3,4.579,4.579,0,0,0,1.3-.8l.5,1.1a6.7,6.7,0,0,1-1.4.9,5.662,5.662,0,0,1-1.8.3A4.494,4.494,0,0,1,838.3,273.4Z" transform="translate(135.3 80.6)" fill="#fff"/>
    <path id="Path_23903" data-name="Path 23903" d="M853.3,269.2h-6.6a3.844,3.844,0,0,0,.8,2.6,2.869,2.869,0,0,0,2.3.9,4.556,4.556,0,0,0,2.9-1.1l.5,1.1a3.766,3.766,0,0,1-1.5.9,6.28,6.28,0,0,1-1.9.3,4.156,4.156,0,0,1-3.3-1.3,4.7,4.7,0,0,1-1.2-3.4,6.963,6.963,0,0,1,.5-2.5,4.978,4.978,0,0,1,1.5-1.7,4.032,4.032,0,0,1,2.2-.6,3.489,3.489,0,0,1,2.8,1.2,4.722,4.722,0,0,1,1,3.2Zm-5.7-2.8a3.1,3.1,0,0,0-.9,1.9H852a3.041,3.041,0,0,0-.7-1.9,2.793,2.793,0,0,0-3.7,0Z" transform="translate(135.3 80.6)" fill="#fff"/>
    <path id="Path_23904" data-name="Path 23904" d="M855,272.8l.5-1.1a3.675,3.675,0,0,0,1.5.8,4.671,4.671,0,0,0,1.7.3,2.537,2.537,0,0,0,1.6-.4,1.015,1.015,0,0,0,.5-1,1.086,1.086,0,0,0-.4-.9,2.255,2.255,0,0,0-1.2-.5l-1.5-.4a4.353,4.353,0,0,1-1.8-.9,1.717,1.717,0,0,1-.6-1.5,2.166,2.166,0,0,1,1-1.9,3.9,3.9,0,0,1,2.5-.7,5.663,5.663,0,0,1,1.8.3,3.39,3.39,0,0,1,1.4.9l-.5,1.1a4.473,4.473,0,0,0-2.7-1.1,2.41,2.41,0,0,0-1.5.4,1.016,1.016,0,0,0-.5,1,1.223,1.223,0,0,0,.3.9,2.257,2.257,0,0,0,1.1.5l1.5.4a4.212,4.212,0,0,1,1.9.9,2.111,2.111,0,0,1,.6,1.6,2.166,2.166,0,0,1-1,1.9,4.209,4.209,0,0,1-2.6.7A7.329,7.329,0,0,1,855,272.8Z" transform="translate(135.3 80.6)" fill="#fff"/>
    <path id="Path_23905" data-name="Path 23905" d="M863.9,272.8l.5-1.1a3.675,3.675,0,0,0,1.5.8,4.671,4.671,0,0,0,1.7.3,2.537,2.537,0,0,0,1.6-.4,1.016,1.016,0,0,0,.5-1,1.086,1.086,0,0,0-.4-.9,2.255,2.255,0,0,0-1.2-.5l-1.5-.4a4.353,4.353,0,0,1-1.8-.9,1.717,1.717,0,0,1-.6-1.5,2.166,2.166,0,0,1,1-1.9,3.9,3.9,0,0,1,2.5-.7,5.663,5.663,0,0,1,1.8.3,3.391,3.391,0,0,1,1.4.9l-.5,1.1a4.473,4.473,0,0,0-2.7-1.1,2.41,2.41,0,0,0-1.5.4,1.015,1.015,0,0,0-.5,1,1.222,1.222,0,0,0,.3.9,2.257,2.257,0,0,0,1.1.5l1.5.4a4.213,4.213,0,0,1,1.9.9,2.111,2.111,0,0,1,.6,1.6,2.166,2.166,0,0,1-1,1.9,4.208,4.208,0,0,1-2.6.7A7.329,7.329,0,0,1,863.9,272.8Z" transform="translate(135.3 80.6)" fill="#fff"/>
  </g>
</svg>
