<svg xmlns="http://www.w3.org/2000/svg" width="125.6" height="104.5" viewBox="0 0 125.6 104.5">
  <g id="Group_9269" data-name="Group 9269" transform="translate(-673.7 -264.4)">
    <path id="Path_23934" data-name="Path 23934" d="M618.8,202.8l-17.6-18.4-17.5,18.4H538.8v85.1H663.6V202.8Z" transform="translate(135.3 80.6)" fill="#fff"/>
    <path id="Path_23935" data-name="Path 23935" d="M664,288.3H538.4V202.4h45.1l17.7-18.6L619,202.4h45Z" transform="translate(135.3 80.6)" fill="#c71f25"/>
    <path id="Path_24004" data-name="Path 24004" d="M550.1,229.1H558v1.2h-6.5v4.4h6.1v1.2h-6.1v5.9H550l.1-12.7Z" transform="translate(135.3 80.6)" fill="#fff"/>
    <path id="Path_24005" data-name="Path 24005" d="M567.5,232.9V242h-1.4v-1.6a3.039,3.039,0,0,1-1.2,1.3,3.287,3.287,0,0,1-1.7.4,2.953,2.953,0,0,1-2.4-.9,3.646,3.646,0,0,1-.8-2.7v-5.6h1.5v5.6a2.969,2.969,0,0,0,.5,1.8,1.755,1.755,0,0,0,1.5.6,2.407,2.407,0,0,0,1.9-.8,2.817,2.817,0,0,0,.7-2.1v-5.1Z" transform="translate(135.3 80.6)" fill="#fff"/>
    <path id="Path_24006" data-name="Path 24006" d="M570.3,228.7h1.5v13.2h-1.5Z" transform="translate(135.3 80.6)" fill="#fff"/>
    <path id="Path_24007" data-name="Path 24007" d="M574.6,228.7h1.5v13.2h-1.5Z" transform="translate(135.3 80.6)" fill="#fff"/>
    <path id="Path_24008" data-name="Path 24008" d="M583,240.4l.6-1.1a9.976,9.976,0,0,0,1.9,1.2,8.017,8.017,0,0,0,2.3.3,4.265,4.265,0,0,0,2.4-.6,1.88,1.88,0,0,0,.8-1.7,1.5,1.5,0,0,0-.4-1.1,1.975,1.975,0,0,0-1.1-.6,10.628,10.628,0,0,0-1.8-.5,18.378,18.378,0,0,1-2.4-.7,3.461,3.461,0,0,1-1.5-1.1,2.883,2.883,0,0,1-.6-1.9,3.077,3.077,0,0,1,.6-1.9,3.435,3.435,0,0,1,1.6-1.3,6.175,6.175,0,0,1,2.5-.5,6.9,6.9,0,0,1,2.5.4,5.162,5.162,0,0,1,1.9,1.2l-.6,1.1a5.826,5.826,0,0,0-1.8-1.1,6.466,6.466,0,0,0-2-.4,3.715,3.715,0,0,0-2.3.6,2.2,2.2,0,0,0-.8,1.8,1.8,1.8,0,0,0,.7,1.5,6.654,6.654,0,0,0,2.3.8c1.1.3,2,.5,2.6.7a4.355,4.355,0,0,1,1.6,1,2.445,2.445,0,0,1,.6,1.8,3.077,3.077,0,0,1-.6,1.9,4.172,4.172,0,0,1-1.6,1.3,6.567,6.567,0,0,1-2.5.4A6.067,6.067,0,0,1,583,240.4Z" transform="translate(135.3 80.6)" fill="#fff"/>
    <path id="Path_24009" data-name="Path 24009" d="M602.3,237.3h-6.6a3.844,3.844,0,0,0,.8,2.6,2.869,2.869,0,0,0,2.3.9,4.556,4.556,0,0,0,2.9-1.1l.5,1.1a3.766,3.766,0,0,1-1.5.9,6.279,6.279,0,0,1-1.9.3,4.156,4.156,0,0,1-3.3-1.3,4.7,4.7,0,0,1-1.2-3.4,6.963,6.963,0,0,1,.5-2.5,4.978,4.978,0,0,1,1.5-1.7,4.032,4.032,0,0,1,2.2-.6,3.489,3.489,0,0,1,2.8,1.2,4.722,4.722,0,0,1,1,3.2Zm-5.6-2.8a3.1,3.1,0,0,0-.9,1.9h5.3a3.041,3.041,0,0,0-.7-1.9,2.481,2.481,0,0,0-1.8-.7A2.352,2.352,0,0,0,596.7,234.5Z" transform="translate(135.3 80.6)" fill="#fff"/>
    <path id="Path_24010" data-name="Path 24010" d="M606.1,241.5a3.319,3.319,0,0,1-1.5-1.6,6.175,6.175,0,0,1-.5-2.5,6.551,6.551,0,0,1,.5-2.5,4.978,4.978,0,0,1,1.5-1.7,4.383,4.383,0,0,1,2.3-.6,5.663,5.663,0,0,1,1.8.3,3.39,3.39,0,0,1,1.4.9l-.5,1.1a6.551,6.551,0,0,0-1.3-.8,3.079,3.079,0,0,0-1.3-.3,2.792,2.792,0,0,0-2.2.9,4.033,4.033,0,0,0-.8,2.6,3.742,3.742,0,0,0,.8,2.5,2.792,2.792,0,0,0,2.2.9,3.079,3.079,0,0,0,1.3-.3,4.579,4.579,0,0,0,1.3-.8l.5,1.1a6.7,6.7,0,0,1-1.4.9,5.663,5.663,0,0,1-1.8.3A4.141,4.141,0,0,1,606.1,241.5Z" transform="translate(135.3 80.6)" fill="#fff"/>
    <path id="Path_24011" data-name="Path 24011" d="M621,232.9V242h-1.4v-1.6a3.039,3.039,0,0,1-1.2,1.3,3.287,3.287,0,0,1-1.7.4,2.953,2.953,0,0,1-2.4-.9,3.646,3.646,0,0,1-.8-2.7v-5.6H615v5.6a2.969,2.969,0,0,0,.5,1.8,1.755,1.755,0,0,0,1.5.6,2.407,2.407,0,0,0,1.9-.8,2.817,2.817,0,0,0,.7-2.1v-5.1Z" transform="translate(135.3 80.6)" fill="#fff"/>
    <path id="Path_24012" data-name="Path 24012" d="M628.9,232.7V234a3.083,3.083,0,0,0-1-.1,2.629,2.629,0,0,0-2,.8,3.173,3.173,0,0,0-.6,2v5.2h-1.5v-6.5a19.3,19.3,0,0,0-.1-2.5h1.4l.1,1.7a2.586,2.586,0,0,1,1.1-1.4,3.371,3.371,0,0,1,1.7-.5A2.7,2.7,0,0,1,628.9,232.7Z" transform="translate(135.3 80.6)" fill="#fff"/>
    <path id="Path_24013" data-name="Path 24013" d="M632,229v1.7h-1.8V229Zm-1.6,3.9h1.5V242h-1.5Z" transform="translate(135.3 80.6)" fill="#fff"/>
    <path id="Path_24014" data-name="Path 24014" d="M636.6,234v5a1.809,1.809,0,0,0,.4,1.4,1.594,1.594,0,0,0,1.2.4,3.553,3.553,0,0,0,1-.2v1.2a5.067,5.067,0,0,1-1.3.2,2.578,2.578,0,0,1-2-.7,2.918,2.918,0,0,1-.7-2.2V234h-1.8v-1.2h1.8v-2.3l1.5-.5v2.8h2.6V234Z" transform="translate(135.3 80.6)" fill="#fff"/>
    <path id="Path_24015" data-name="Path 24015" d="M649,232.9l-4.2,9.9a5.148,5.148,0,0,1-1.7,2.3,6.257,6.257,0,0,1-2.5,1l-.3-1.1a3.745,3.745,0,0,0,1.9-.8,3.656,3.656,0,0,0,1.1-1.5l.4-.8-3.8-9h1.5l3.1,7.5,3.1-7.5Z" transform="translate(135.3 80.6)" fill="#fff"/>
    <path id="Path_24016" data-name="Path 24016" d="M558.6,260.2h-6.7l-1.4,3.3H549l5.6-12.8h1.3l5.6,12.8H560Zm-.5-1.2-2.8-6.6-2.8,6.6Z" transform="translate(135.3 80.6)" fill="#fff"/>
    <path id="Path_24017" data-name="Path 24017" d="M562.6,262.5l.5-1.1a3.675,3.675,0,0,0,1.5.8,4.672,4.672,0,0,0,1.7.3,2.537,2.537,0,0,0,1.6-.4,1.016,1.016,0,0,0,.5-1,1.086,1.086,0,0,0-.4-.9,2.254,2.254,0,0,0-1.2-.5l-1.5-.4a4.352,4.352,0,0,1-1.8-.9,1.716,1.716,0,0,1-.6-1.5,2.166,2.166,0,0,1,1-1.9,3.9,3.9,0,0,1,2.5-.7,5.662,5.662,0,0,1,1.8.3,3.39,3.39,0,0,1,1.4.9l-.5,1.1a4.473,4.473,0,0,0-2.7-1.1,2.41,2.41,0,0,0-1.5.4,1.107,1.107,0,0,0-.5,1,1.222,1.222,0,0,0,.3.9,2.257,2.257,0,0,0,1.1.5l1.5.4a4.213,4.213,0,0,1,1.9.9,2.111,2.111,0,0,1,.6,1.6,2.166,2.166,0,0,1-1,1.9,4.023,4.023,0,0,1-2.6.7A7.329,7.329,0,0,1,562.6,262.5Z" transform="translate(135.3 80.6)" fill="#fff"/>
    <path id="Path_24018" data-name="Path 24018" d="M571.5,262.5l.5-1.1a3.675,3.675,0,0,0,1.5.8,4.671,4.671,0,0,0,1.7.3,2.537,2.537,0,0,0,1.6-.4,1.016,1.016,0,0,0,.5-1,1.086,1.086,0,0,0-.4-.9,2.255,2.255,0,0,0-1.2-.5l-1.5-.4a4.352,4.352,0,0,1-1.8-.9,1.717,1.717,0,0,1-.6-1.5,2.166,2.166,0,0,1,1-1.9,3.9,3.9,0,0,1,2.5-.7,5.662,5.662,0,0,1,1.8.3,3.39,3.39,0,0,1,1.4.9l-.5,1.1a4.473,4.473,0,0,0-2.7-1.1,2.41,2.41,0,0,0-1.5.4,1.108,1.108,0,0,0-.5,1,1.223,1.223,0,0,0,.3.9,2.257,2.257,0,0,0,1.1.5l1.5.4a4.212,4.212,0,0,1,1.9.9,2.111,2.111,0,0,1,.6,1.6,2.166,2.166,0,0,1-1,1.9,4.023,4.023,0,0,1-2.6.7A7.329,7.329,0,0,1,571.5,262.5Z" transform="translate(135.3 80.6)" fill="#fff"/>
    <path id="Path_24019" data-name="Path 24019" d="M588.6,258.9H582a3.844,3.844,0,0,0,.8,2.6,2.869,2.869,0,0,0,2.3.9,4.555,4.555,0,0,0,2.9-1.1l.5,1.1a3.766,3.766,0,0,1-1.5.9,6.279,6.279,0,0,1-1.9.3,4.156,4.156,0,0,1-3.3-1.3,4.7,4.7,0,0,1-1.2-3.4,6.963,6.963,0,0,1,.5-2.5,4.978,4.978,0,0,1,1.5-1.7,4.032,4.032,0,0,1,2.2-.6,3.489,3.489,0,0,1,2.8,1.2,4.722,4.722,0,0,1,1,3.2Zm-5.7-2.8a3.1,3.1,0,0,0-.9,1.9h5.3a3.041,3.041,0,0,0-.7-1.9,2.793,2.793,0,0,0-3.7,0Z" transform="translate(135.3 80.6)" fill="#fff"/>
    <path id="Path_24020" data-name="Path 24020" d="M590.2,262.5l.5-1.1a3.675,3.675,0,0,0,1.5.8,4.671,4.671,0,0,0,1.7.3,2.537,2.537,0,0,0,1.6-.4,1.016,1.016,0,0,0,.5-1,1.086,1.086,0,0,0-.4-.9,2.254,2.254,0,0,0-1.2-.5l-1.5-.4a4.352,4.352,0,0,1-1.8-.9,1.716,1.716,0,0,1-.6-1.5,2.166,2.166,0,0,1,1-1.9,3.9,3.9,0,0,1,2.5-.7,5.662,5.662,0,0,1,1.8.3,3.39,3.39,0,0,1,1.4.9l-.5,1.1a4.473,4.473,0,0,0-2.7-1.1,2.41,2.41,0,0,0-1.5.4,1.107,1.107,0,0,0-.5,1,1.222,1.222,0,0,0,.3.9,2.257,2.257,0,0,0,1.1.5l1.5.4a4.212,4.212,0,0,1,1.9.9,2.111,2.111,0,0,1,.6,1.6,2.166,2.166,0,0,1-1,1.9,4.023,4.023,0,0,1-2.6.7A7.329,7.329,0,0,1,590.2,262.5Z" transform="translate(135.3 80.6)" fill="#fff"/>
    <path id="Path_24021" data-name="Path 24021" d="M599.2,262.5l.5-1.1a3.675,3.675,0,0,0,1.5.8,4.671,4.671,0,0,0,1.7.3,2.537,2.537,0,0,0,1.6-.4,1.016,1.016,0,0,0,.5-1,1.086,1.086,0,0,0-.4-.9,2.254,2.254,0,0,0-1.2-.5l-1.5-.4a4.352,4.352,0,0,1-1.8-.9,1.716,1.716,0,0,1-.6-1.5,2.166,2.166,0,0,1,1-1.9,3.9,3.9,0,0,1,2.5-.7,5.662,5.662,0,0,1,1.8.3,3.39,3.39,0,0,1,1.4.9l-.5,1.1a4.473,4.473,0,0,0-2.7-1.1,2.41,2.41,0,0,0-1.5.4,1.107,1.107,0,0,0-.5,1,1.222,1.222,0,0,0,.3.9,2.257,2.257,0,0,0,1.1.5l1.5.4a4.212,4.212,0,0,1,1.9.9,2.111,2.111,0,0,1,.6,1.6,2.166,2.166,0,0,1-1,1.9,4.023,4.023,0,0,1-2.6.7A6.969,6.969,0,0,1,599.2,262.5Z" transform="translate(135.3 80.6)" fill="#fff"/>
    <path id="Path_24022" data-name="Path 24022" d="M621.7,257.8v5.7h-1.5v-5.6a3.161,3.161,0,0,0-.4-1.9,1.678,1.678,0,0,0-1.4-.6,2.2,2.2,0,0,0-1.8.8,3.281,3.281,0,0,0-.6,2.1v5.2h-1.5v-5.6a2.82,2.82,0,0,0-.4-1.8,1.678,1.678,0,0,0-1.4-.6,2.2,2.2,0,0,0-1.8.8,3.3,3.3,0,0,0-.7,2.1v5.2h-1.5V257a19.283,19.283,0,0,0-.1-2.5H610l.1,1.6a2.85,2.85,0,0,1,1.1-1.3,3.371,3.371,0,0,1,1.7-.5,3.425,3.425,0,0,1,1.8.4,2.209,2.209,0,0,1,1,1.3,3.745,3.745,0,0,1,1.2-1.3,3.453,3.453,0,0,1,1.8-.5Q621.7,254.2,621.7,257.8Z" transform="translate(135.3 80.6)" fill="#fff"/>
    <path id="Path_24023" data-name="Path 24023" d="M632,258.9h-6.6a3.844,3.844,0,0,0,.8,2.6,2.869,2.869,0,0,0,2.3.9,4.556,4.556,0,0,0,2.9-1.1l.5,1.1a3.766,3.766,0,0,1-1.5.9,6.279,6.279,0,0,1-1.9.3,4.156,4.156,0,0,1-3.3-1.3,4.7,4.7,0,0,1-1.2-3.4,6.963,6.963,0,0,1,.5-2.5,4.978,4.978,0,0,1,1.5-1.7,4.032,4.032,0,0,1,2.2-.6,3.489,3.489,0,0,1,2.8,1.2,4.722,4.722,0,0,1,1,3.2Zm-5.6-2.8a3.1,3.1,0,0,0-.9,1.9h5.3a3.041,3.041,0,0,0-.7-1.9,2.481,2.481,0,0,0-1.8-.7A2.352,2.352,0,0,0,626.4,256.1Z" transform="translate(135.3 80.6)" fill="#fff"/>
    <path id="Path_24024" data-name="Path 24024" d="M642,257.8v5.7h-1.5v-5.6a2.763,2.763,0,0,0-.5-1.8,1.969,1.969,0,0,0-1.6-.6,2.792,2.792,0,0,0-2,.8,2.865,2.865,0,0,0-.8,2.1v5.2h-1.5V257a19.3,19.3,0,0,0-.1-2.5h1.4l.1,1.6a4.071,4.071,0,0,1,1.2-1.4,4.136,4.136,0,0,1,1.9-.5C641,254.2,642,255.4,642,257.8Z" transform="translate(135.3 80.6)" fill="#fff"/>
    <path id="Path_24025" data-name="Path 24025" d="M646.7,255.6v5a1.809,1.809,0,0,0,.4,1.4,1.594,1.594,0,0,0,1.2.4,3.554,3.554,0,0,0,1-.2v1.2a5.066,5.066,0,0,1-1.3.2,2.578,2.578,0,0,1-2-.7,2.918,2.918,0,0,1-.7-2.2v-5.1h-1.8v-1.2h1.8v-2.3l1.5-.5v2.8h2.6v1.2Z" transform="translate(135.3 80.6)" fill="#fff"/>
  </g>
</svg>
