<?xml version="1.0" encoding="utf-8"?>
<!-- Generator: Adobe Illustrator 24.2.3, SVG Export Plug-In . SVG Version: 6.00 Build 0)  -->
<svg version="1.1" xmlns="http://www.w3.org/2000/svg" xmlns:xlink="http://www.w3.org/1999/xlink" x="0px" y="0px"
	 viewBox="0 0 320 306" style="enable-background:new 0 0 320 306;" xml:space="preserve">
<style type="text/css">
	.st0{opacity:0.46;fill:#FFFFFF;}
	.st1{fill:#0A90B7;}
	.st2{fill:#F2F2F2;}
	.st3{enable-background:new    ;}
	.st4{fill:#FFFFFF;}
	.st5{fill:#A6D7E5;}
	.st6{fill:#1294C2;}
	.st7{opacity:0.46;fill:#209ABD;}
	.st8{opacity:0.6;fill:#0A90B7;}
	.st9{fill:#444444;}
	.st10{opacity:0.55;fill:#F2F2F2;}
	.st11{opacity:0.55;}
	.st12{fill:#757575;}
	.st13{fill:#D8D8D8;}
	.st14{fill:#A00A0F;}
	.st15{fill:#C71F25;}
	.st16{opacity:0.1;enable-background:new    ;}
</style>
<g id="Layer_6">
</g>
<g id="Shapes">
</g>
<g id="background">
</g>
<g id="text">
</g>
<g id="Graphics">
</g>
<g id="Layer_5">
	<rect x="10" y="0" class="st0" width="300" height="306"/>
	<path id="Path_7616_4_" class="st1" d="M293.6,41.6H58.7V9.4h234.9l7.1,16.1L293.6,41.6z"/>
	<rect x="19.4" y="9.4" class="st2" width="39.3" height="32.2"/>
	<g class="st3">
		<path class="st4" d="M78.3,24.3c0,1.9-1.4,3.1-3.7,3.1h-2v2.5H71v-8.7h3.6C76.9,21.2,78.3,22.4,78.3,24.3z M76.7,24.3
			c0-1.1-0.7-1.7-2.2-1.7h-1.9V26h1.9C75.9,26,76.7,25.4,76.7,24.3z"/>
		<path class="st4" d="M83.6,23.2v1.5c-0.1,0-0.2,0-0.4,0c-1.2,0-1.9,0.7-1.9,2.1v3.2h-1.6v-6.6h1.5v1
			C81.7,23.6,82.5,23.2,83.6,23.2z"/>
		<path class="st4" d="M91.2,27.1h-5.2c0.2,1,1,1.6,2.2,1.6c0.7,0,1.3-0.2,1.8-0.7l0.8,1c-0.6,0.7-1.5,1.1-2.7,1.1
			c-2.2,0-3.7-1.4-3.7-3.4c0-2,1.5-3.4,3.4-3.4c1.9,0,3.4,1.4,3.4,3.4C91.2,26.8,91.2,27,91.2,27.1z M85.9,26.1h3.8
			c-0.1-1-0.9-1.6-1.9-1.6C86.8,24.4,86.1,25.1,85.9,26.1z"/>
		<path class="st4" d="M99.8,26.6c0,2.1-1.4,3.4-3.4,3.4c-0.8,0-1.6-0.3-2.1-0.9v3.2h-1.6v-9.1h1.5v0.9c0.5-0.6,1.3-0.9,2.2-0.9
			C98.4,23.2,99.8,24.5,99.8,26.6z M98.2,26.6c0-1.3-0.8-2.1-2-2.1s-2,0.8-2,2.1c0,1.3,0.9,2.1,2,2.1S98.2,27.9,98.2,26.6z"/>
		<path class="st4" d="M106.8,26v3.9h-1.5v-0.8c-0.4,0.6-1.1,0.9-2.1,0.9c-1.5,0-2.5-0.8-2.5-2c0-1.1,0.7-2,2.8-2h1.7v-0.1
			c0-0.9-0.5-1.4-1.7-1.4c-0.7,0-1.5,0.2-2,0.7L101,24c0.7-0.5,1.7-0.8,2.8-0.8C105.7,23.2,106.8,24.1,106.8,26z M105.3,27.8v-0.8
			h-1.6c-1.1,0-1.3,0.4-1.3,0.9c0,0.6,0.5,0.9,1.3,0.9C104.3,28.9,105,28.5,105.3,27.8z"/>
		<path class="st4" d="M112.7,23.2v1.5c-0.1,0-0.2,0-0.4,0c-1.2,0-1.9,0.7-1.9,2.1v3.2h-1.6v-6.6h1.5v1
			C110.8,23.6,111.6,23.2,112.7,23.2z"/>
		<path class="st4" d="M119.6,26v3.9h-1.5v-0.8c-0.4,0.6-1.1,0.9-2.1,0.9c-1.5,0-2.5-0.8-2.5-2c0-1.1,0.7-2,2.8-2h1.7v-0.1
			c0-0.9-0.5-1.4-1.7-1.4c-0.7,0-1.5,0.2-2,0.7l-0.6-1.1c0.7-0.5,1.7-0.8,2.8-0.8C118.5,23.2,119.6,24.1,119.6,26z M118.1,27.8v-0.8
			h-1.6c-1.1,0-1.3,0.4-1.3,0.9c0,0.6,0.5,0.9,1.3,0.9C117.1,28.9,117.8,28.5,118.1,27.8z"/>
		<path class="st4" d="M125.7,29.6c-0.4,0.3-0.9,0.4-1.5,0.4c-1.5,0-2.3-0.8-2.3-2.2v-3.2h-1.1v-1.2h1.1v-1.5h1.6v1.5h1.8v1.2h-1.8
			v3.2c0,0.6,0.3,1,0.9,1c0.3,0,0.6-0.1,0.9-0.3L125.7,29.6z"/>
		<path class="st4" d="M126.8,21.2c0-0.5,0.4-0.9,1-0.9c0.6,0,1,0.4,1,0.9c0,0.5-0.4,1-1,1C127.2,22.2,126.8,21.8,126.8,21.2z
			 M127,23.3h1.6v6.6H127V23.3z"/>
		<path class="st4" d="M130.1,26.6c0-2,1.5-3.4,3.5-3.4c2.1,0,3.5,1.4,3.5,3.4s-1.5,3.4-3.5,3.4C131.6,30,130.1,28.6,130.1,26.6z
			 M135.6,26.6c0-1.3-0.8-2.1-2-2.1c-1.1,0-2,0.8-2,2.1c0,1.3,0.8,2.1,2,2.1C134.8,28.7,135.6,27.9,135.6,26.6z"/>
		<path class="st4" d="M145.3,26.1v3.8h-1.6v-3.6c0-1.2-0.6-1.8-1.6-1.8c-1.1,0-1.9,0.7-1.9,2v3.4h-1.6v-6.6h1.5v0.9
			c0.5-0.6,1.3-0.9,2.3-0.9C144.1,23.2,145.3,24.1,145.3,26.1z"/>
	</g>
	<g>
		<path class="st4" d="M33.9,33.6c-1.8,0-3.3-0.7-4.5-2.2c-1.1-1.5-1.7-3.5-1.7-5.9c0-2.4,0.6-4.4,1.7-5.9c1.1-1.5,2.6-2.2,4.5-2.2
			c1.8,0,3.3,0.8,4.5,2.2c1.1,1.5,1.7,3.5,1.7,5.9c0,2.4-0.6,4.4-1.7,5.9C37.2,32.8,35.7,33.6,33.9,33.6L33.9,33.6z M33.9,20.9
			c-0.5,0-0.8,0.3-1,0.8c-0.2,0.5-0.4,1.5-0.4,3.7c0,2.2,0.2,3.2,0.4,3.7c0.2,0.6,0.5,0.8,1,0.8c0.5,0,0.8-0.3,1-0.8
			c0.2-0.5,0.4-1.5,0.4-3.7c0-2.2-0.2-3.2-0.4-3.7C34.7,21.2,34.4,20.9,33.9,20.9L33.9,20.9z M49.4,33.6c0.3,0,0.6-0.4,0.6-0.8v-2
			c0-0.5-0.3-0.8-0.6-0.8h-0.8c-0.8,0-0.9-0.4-0.9-0.9V18.1c0-0.5-0.3-0.8-0.6-0.8h-2.7c-0.3,0-0.5,0.2-0.6,0.5
			c-0.2,0.5-0.4,0.8-0.9,1.1c-0.5,0.3-1.2,0.4-2,0.5c-0.3,0-0.6,0.4-0.6,0.8v2c0,0.2,0.1,0.4,0.2,0.6c0.1,0.2,0.3,0.2,0.4,0.2h1.8
			v5.9v0.5c0,0.3,0,0.6-0.9,0.6h-0.9c-0.3,0-0.6,0.4-0.6,0.8v2c0,0.5,0.3,0.8,0.6,0.8H49.4L49.4,33.6z"/>
		<path class="st1" d="M40.9,32.7v-2h0.9c0.6,0,1-0.1,1.2-0.2c0.2-0.1,0.3-0.5,0.3-1.2v-0.5v-6.8h-2.5v-2c0.9,0,1.7-0.2,2.3-0.5
			c0.6-0.3,1-0.8,1.2-1.5h2.7v10.9c0,0.8,0.1,1.3,0.2,1.4c0.2,0.2,0.6,0.3,1.3,0.3h0.8v2H40.9z M28.3,25.5c0-2.2,0.5-4,1.6-5.3
			c1-1.3,2.4-2,4.1-2c1.7,0,3,0.7,4.1,2c1,1.3,1.5,3.1,1.5,5.3c0,2.2-0.5,4-1.6,5.3c-1,1.3-2.4,2-4.1,2c-1.7,0-3-0.7-4.1-2
			C28.8,29.4,28.3,27.7,28.3,25.5z M31.9,25.5c0,1.9,0.2,3.2,0.5,4.1c0.3,0.8,0.8,1.2,1.5,1.2c0.7,0,1.2-0.4,1.6-1.3
			c0.3-0.8,0.5-2.2,0.5-4.1c0-1.9-0.2-3.3-0.5-4.1c-0.3-0.8-0.8-1.3-1.5-1.3c-0.7,0-1.2,0.4-1.6,1.3C32,22.2,31.9,23.6,31.9,25.5z"
			/>
		<path class="st5" d="M47.2,30.6L47,31c-0.3-0.3-0.4-0.9-0.4-1.9V18.8l0.3-0.4v10.7C46.9,29.9,47,30.4,47.2,30.6z M43.4,21.5h-2
			l-0.3,0.4h2.3c0,0,0.1,0,0.1,0.1l0.2-0.3C43.6,21.6,43.5,21.5,43.4,21.5z M48.9,31.4v0.8h-7.5l-0.3,0.4h8.2V31L48.9,31.4z
			 M32.2,29.6c-0.3-0.9-0.5-2.2-0.5-4.2c0-1.9,0.2-3.3,0.5-4.2c0.3-0.9,0.9-1.4,1.7-1.4c0.5,0,1,0.2,1.3,0.6l0.2-0.3
			c-0.4-0.5-0.9-0.8-1.5-0.8c-0.9,0-1.5,0.5-1.9,1.6c-0.4,0.9-0.5,2.4-0.5,4.3c0,2,0.2,3.4,0.5,4.3c0.1,0.3,0.3,0.6,0.4,0.8l0.2-0.3
			C32.4,30.1,32.3,29.9,32.2,29.6z M37.9,20.3l-0.2,0.3c0.9,1.2,1.4,2.8,1.4,4.8c0,2-0.5,3.7-1.4,4.9c-0.9,1.2-2.2,1.8-3.8,1.8
			c-1.6,0-2.8-0.6-3.8-1.8v0l-0.2,0.3c0,0,0,0,0,0c1,1.3,2.3,2,4,2c1.6,0,3-0.7,4-2c1-1.3,1.5-3,1.5-5.2
			C39.4,23.3,38.9,21.6,37.9,20.3z"/>
	</g>
	<g class="st11">
		<path id="Path_1554_6_" class="st12" d="M167.7,149.4c0,4.2-3.4,7.6-7.6,7.6c-4.2,0-7.6-3.4-7.6-7.6s3.4-7.6,7.6-7.6
			C164.3,141.8,167.7,145.2,167.7,149.4z"/>
		<g id="Group_1434_6_" transform="translate(4.574 4.222)">
			<g id="arrow_6_" transform="translate(4.574 0)">
				<path id="arrow-2_6_" class="st4" d="M151,149.7c-0.2,0-0.4-0.1-0.6-0.2l-3.3-3.2c-0.3-0.3-0.3-0.8-0.1-1.1c0,0,0,0,0.1-0.1
					c0.3-0.3,0.8-0.3,1.2,0c0,0,0,0,0,0l2.7,2.7l2.7-2.7c0.3-0.3,0.8-0.3,1.2,0c0,0,0,0,0,0c0.3,0.3,0.3,0.8,0,1.1c0,0,0,0,0,0
					l-3.3,3.2C151.4,149.6,151.2,149.7,151,149.7z"/>
			</g>
			<path class="st4" d="M155.5,148.9c-0.6,0-1-0.4-1-1v-6.7c0-0.6,0.4-1,1-1s1,0.4,1,1v6.7C156.5,148.5,156,148.9,155.5,148.9z"/>
		</g>
	</g>
	<g class="st11">
		<rect x="28.5" y="54.5" class="st2" width="263.1" height="81.4"/>
		<g>
			<g>
				<path class="st1" d="M46.1,71.4v2.8h4v1h-4v3.2H45v-7.9h5.6v1H46.1z"/>
				<path class="st1" d="M57.3,75.7h-4.9c0.1,1,1,1.8,2.2,1.8c0.7,0,1.3-0.2,1.7-0.7l0.6,0.7c-0.5,0.6-1.4,1-2.4,1
					c-1.9,0-3.2-1.3-3.2-3.1c0-1.8,1.3-3,3-3c1.7,0,3,1.2,3,3.1C57.3,75.5,57.3,75.6,57.3,75.7z M52.4,74.9h3.8
					c-0.1-1-0.9-1.7-1.9-1.7C53.3,73.2,52.5,73.9,52.4,74.9z"/>
				<path class="st1" d="M64.6,69.9v8.4h-1v-0.9c-0.5,0.7-1.3,1-2.1,1c-1.8,0-3-1.2-3-3.1s1.3-3,3-3c0.8,0,1.6,0.3,2.1,1v-3.3H64.6z
					 M63.5,75.3c0-1.3-0.9-2.1-2-2.1c-1.2,0-2,0.8-2,2.1c0,1.3,0.9,2.1,2,2.1C62.6,77.4,63.5,76.6,63.5,75.3z"/>
				<path class="st1" d="M72.2,78.3l-1.7-2.4c-0.2,0-0.3,0-0.5,0h-2v2.4h-1.1v-7.9H70c2.1,0,3.3,1,3.3,2.8c0,1.2-0.6,2.1-1.7,2.5
					l1.9,2.7H72.2z M72.1,73.2c0-1.1-0.8-1.8-2.2-1.8H68V75h1.9C71.4,75,72.1,74.3,72.1,73.2z"/>
				<path class="st1" d="M80.3,76.3h-4.2l-0.9,2H74l3.6-7.9h1.1l3.6,7.9h-1.2L80.3,76.3z M79.9,75.4l-1.7-3.9l-1.7,3.9H79.9z"/>
				<path class="st1" d="M90.9,78.3l0-5.8l-2.9,4.8h-0.5l-2.9-4.8v5.7h-1.1v-7.9h0.9l3.3,5.6l3.3-5.6H92l0,7.9H90.9z"/>
				<path class="st1" d="M100.9,73.2c0,1.7-1.2,2.8-3.3,2.8h-2v2.4h-1.1v-7.9h3.1C99.6,70.4,100.9,71.5,100.9,73.2z M99.7,73.2
					c0-1.1-0.8-1.8-2.2-1.8h-1.9v3.5h1.9C99,74.9,99.7,74.3,99.7,73.2z"/>
				<path class="st1" d="M105.3,74.4c0-2.3,1.8-4,4.2-4c1.2,0,2.3,0.4,3,1.2l-0.7,0.7c-0.6-0.6-1.4-0.9-2.2-0.9
					c-1.8,0-3.1,1.3-3.1,3s1.3,3,3.1,3c0.9,0,1.6-0.3,2.2-0.9l0.7,0.7c-0.7,0.8-1.8,1.2-3,1.2C107,78.4,105.3,76.7,105.3,74.4z"/>
				<path class="st1" d="M113.2,75.3c0-1.8,1.3-3,3.1-3s3.1,1.3,3.1,3s-1.3,3.1-3.1,3.1S113.2,77.1,113.2,75.3z M118.3,75.3
					c0-1.3-0.9-2.1-2-2.1s-2,0.8-2,2.1c0,1.3,0.9,2.1,2,2.1S118.3,76.6,118.3,75.3z"/>
				<path class="st1" d="M126.7,74.9v3.4h-1.1V75c0-1.2-0.6-1.8-1.6-1.8c-1.2,0-1.9,0.7-1.9,2v3.1h-1.1v-6h1v0.9
					c0.4-0.6,1.2-1,2.2-1C125.7,72.3,126.7,73.1,126.7,74.9z"/>
				<path class="st1" d="M134.5,74.9v3.4h-1.1V75c0-1.2-0.6-1.8-1.6-1.8c-1.2,0-1.9,0.7-1.9,2v3.1h-1.1v-6h1v0.9
					c0.4-0.6,1.2-1,2.2-1C133.5,72.3,134.5,73.1,134.5,74.9z"/>
				<path class="st1" d="M142.1,75.7h-4.9c0.1,1,1,1.8,2.2,1.8c0.7,0,1.3-0.2,1.7-0.7l0.6,0.7c-0.5,0.6-1.4,1-2.4,1
					c-1.9,0-3.2-1.3-3.2-3.1c0-1.8,1.3-3,3-3c1.7,0,3,1.2,3,3.1C142.1,75.5,142.1,75.6,142.1,75.7z M137.2,74.9h3.8
					c-0.1-1-0.9-1.7-1.9-1.7C138.1,73.2,137.3,73.9,137.2,74.9z"/>
				<path class="st1" d="M143.2,75.3c0-1.8,1.3-3,3.2-3c1.1,0,2,0.4,2.4,1.3l-0.8,0.5c-0.4-0.6-1-0.9-1.6-0.9
					c-1.2,0-2.1,0.8-2.1,2.1c0,1.3,0.9,2.1,2.1,2.1c0.7,0,1.2-0.3,1.6-0.9l0.8,0.5c-0.5,0.8-1.4,1.3-2.4,1.3
					C144.5,78.4,143.2,77.1,143.2,75.3z"/>
				<path class="st1" d="M153.7,78c-0.3,0.3-0.8,0.4-1.3,0.4c-1.2,0-1.9-0.7-1.9-1.9v-3.3h-1v-0.9h1V71h1.1v1.3h1.7v0.9h-1.7v3.2
					c0,0.6,0.3,1,0.9,1c0.3,0,0.6-0.1,0.8-0.3L153.7,78z"/>
			</g>
		</g>
		<g>
			<g>
				<path class="st9" d="M69.8,95.8h4.3v0.5h-3.7v2.7h3.5v0.6h-3.5v3.4h-0.6V95.8z"/>
				<path class="st9" d="M75.6,100.4L75.6,100.4c0,0.7,0.2,1.2,0.5,1.6c0.3,0.4,0.8,0.5,1.4,0.5c0.6,0,1.2-0.2,1.7-0.6l0.2,0.5
					c-0.2,0.2-0.5,0.4-0.8,0.5c-0.3,0.1-0.7,0.2-1.1,0.2c-0.8,0-1.4-0.2-1.8-0.7c-0.4-0.5-0.7-1.1-0.7-1.9c0-0.5,0.1-1,0.3-1.4
					c0.2-0.4,0.5-0.7,0.8-0.9c0.4-0.2,0.8-0.3,1.2-0.3c0.7,0,1.2,0.2,1.6,0.6c0.4,0.4,0.6,1,0.6,1.8v0.1H75.6z M76.1,98.7
					c-0.3,0.3-0.5,0.7-0.5,1.2h3.2c0-0.5-0.2-0.9-0.5-1.2c-0.3-0.3-0.6-0.4-1.1-0.4C76.8,98.3,76.4,98.5,76.1,98.7z"/>
				<path class="st9" d="M85,95.6v7.4h-0.6v-1c-0.1,0.3-0.4,0.6-0.7,0.8c-0.3,0.2-0.7,0.3-1.1,0.3c-0.4,0-0.8-0.1-1.2-0.3
					s-0.6-0.5-0.8-0.9c-0.2-0.4-0.3-0.9-0.3-1.4c0-0.5,0.1-1,0.3-1.4c0.2-0.4,0.4-0.7,0.8-0.9c0.3-0.2,0.7-0.3,1.2-0.3
					c0.4,0,0.8,0.1,1.1,0.3c0.3,0.2,0.5,0.4,0.7,0.8v-3.3H85z M84,102c0.3-0.4,0.4-0.9,0.4-1.5c0-0.7-0.1-1.2-0.4-1.5
					c-0.3-0.4-0.7-0.5-1.2-0.5c-0.5,0-1,0.2-1.2,0.5s-0.4,0.9-0.4,1.5c0,0.7,0.1,1.2,0.4,1.5s0.7,0.6,1.2,0.6
					C83.3,102.5,83.7,102.3,84,102z"/>
				<path class="st9" d="M92.3,103h-0.6l-0.9-2.4c-0.1-0.3-0.3-0.5-0.5-0.6s-0.5-0.2-0.9-0.2h-2v3.2h-0.6v-7.1h2.8
					c0.7,0,1.3,0.2,1.7,0.5s0.6,0.8,0.6,1.5c0,0.5-0.1,0.8-0.4,1.2c-0.2,0.3-0.6,0.5-1,0.7c0.2,0,0.4,0.1,0.5,0.3
					c0.1,0.1,0.3,0.3,0.4,0.6L92.3,103z M89.5,99.2c1.2,0,1.8-0.5,1.8-1.5c0-0.9-0.6-1.4-1.8-1.4h-2.1v2.9H89.5z"/>
				<path class="st9" d="M98.4,101.1h-3.9l-0.8,1.9h-0.6l3.1-7.1h0.6l3.1,7.1h-0.6L98.4,101.1z M98.1,100.5l-1.7-3.9l-1.7,3.9H98.1z
					"/>
				<path class="st9" d="M107.7,95.8v7.1h-0.6v-5.7l-2.5,5.7h-0.5l-2.5-5.7l0,5.7h-0.6v-7.1h0.5l2.8,6.4l2.8-6.4H107.7z"/>
				<path class="st9" d="M109.6,95.8h2.7c0.7,0,1.3,0.2,1.7,0.5c0.4,0.3,0.6,0.8,0.6,1.4c0,0.6-0.2,1.1-0.6,1.5s-1,0.5-1.7,0.5h-2.1
					v3.2h-0.6V95.8z M112.3,99.2c0.6,0,1-0.1,1.3-0.4c0.3-0.2,0.4-0.6,0.4-1.1c0-0.5-0.1-0.8-0.4-1.1c-0.3-0.2-0.7-0.4-1.3-0.4h-2.1
					v2.9H112.3z"/>
				<path class="st9" d="M120,102.6c-0.5-0.3-0.9-0.7-1.1-1.3c-0.3-0.6-0.4-1.2-0.4-2c0-0.7,0.1-1.4,0.4-1.9c0.3-0.5,0.6-1,1.1-1.3
					c0.5-0.3,1.1-0.4,1.7-0.4c0.5,0,0.9,0.1,1.4,0.2c0.4,0.2,0.8,0.4,1.1,0.7l-0.3,0.5c-0.3-0.3-0.7-0.5-1-0.7
					c-0.3-0.1-0.7-0.2-1.1-0.2c-0.8,0-1.5,0.3-1.9,0.8c-0.5,0.5-0.7,1.3-0.7,2.3c0,1,0.2,1.8,0.7,2.3s1.1,0.8,1.9,0.8
					c0.4,0,0.8-0.1,1.1-0.2c0.3-0.1,0.7-0.4,1-0.7l0.3,0.5c-0.3,0.3-0.7,0.5-1.1,0.7c-0.4,0.2-0.9,0.2-1.4,0.2
					C121.1,103.1,120.5,102.9,120,102.6z"/>
				<path class="st9" d="M126.2,102.7c-0.4-0.2-0.6-0.5-0.8-0.9c-0.2-0.4-0.3-0.9-0.3-1.4s0.1-1,0.3-1.4c0.2-0.4,0.5-0.7,0.8-0.9
					c0.4-0.2,0.8-0.3,1.2-0.3c0.5,0,0.9,0.1,1.2,0.3c0.3,0.2,0.6,0.5,0.8,0.9c0.2,0.4,0.3,0.9,0.3,1.4s-0.1,1-0.3,1.4
					c-0.2,0.4-0.5,0.7-0.8,0.9c-0.3,0.2-0.7,0.3-1.2,0.3C127,103,126.6,102.9,126.2,102.7z M128.7,102c0.3-0.4,0.4-0.9,0.4-1.5
					c0-0.7-0.1-1.2-0.4-1.5c-0.3-0.4-0.7-0.5-1.2-0.5c-0.5,0-0.9,0.2-1.2,0.5c-0.3,0.4-0.4,0.9-0.4,1.5c0,0.7,0.1,1.2,0.4,1.5
					c0.3,0.4,0.7,0.5,1.2,0.5C128,102.5,128.4,102.3,128.7,102z"/>
				<path class="st9" d="M135.3,99.8v3.2h-0.6v-3.2c0-0.5-0.1-0.9-0.3-1.1c-0.2-0.2-0.5-0.4-1-0.4c-0.5,0-0.9,0.2-1.2,0.5
					c-0.3,0.3-0.5,0.7-0.5,1.2v2.9h-0.6v-3.6c0-0.5,0-1-0.1-1.4h0.6l0.1,0.9c0.2-0.3,0.4-0.6,0.7-0.8c0.3-0.2,0.7-0.3,1.1-0.3
					C134.7,97.8,135.3,98.5,135.3,99.8z"/>
				<path class="st9" d="M141.2,99.8v3.2h-0.6v-3.2c0-0.5-0.1-0.9-0.3-1.1c-0.2-0.2-0.5-0.4-1-0.4c-0.5,0-0.9,0.2-1.2,0.5
					c-0.3,0.3-0.5,0.7-0.5,1.2v2.9H137v-3.6c0-0.5,0-1-0.1-1.4h0.6l0.1,0.9c0.2-0.3,0.4-0.6,0.7-0.8c0.3-0.2,0.7-0.3,1.1-0.3
					C140.6,97.8,141.2,98.5,141.2,99.8z"/>
				<path class="st9" d="M143.2,100.4L143.2,100.4c0,0.7,0.2,1.2,0.5,1.6c0.3,0.4,0.8,0.5,1.4,0.5c0.6,0,1.2-0.2,1.7-0.6l0.2,0.5
					c-0.2,0.2-0.5,0.4-0.8,0.5c-0.3,0.1-0.7,0.2-1.1,0.2c-0.8,0-1.4-0.2-1.8-0.7c-0.4-0.5-0.7-1.1-0.7-1.9c0-0.5,0.1-1,0.3-1.4
					c0.2-0.4,0.5-0.7,0.8-0.9c0.4-0.2,0.8-0.3,1.2-0.3c0.7,0,1.2,0.2,1.6,0.6c0.4,0.4,0.6,1,0.6,1.8v0.1H143.2z M143.8,98.7
					c-0.3,0.3-0.5,0.7-0.5,1.2h3.2c0-0.5-0.2-0.9-0.5-1.2c-0.3-0.3-0.6-0.4-1.1-0.4C144.4,98.3,144.1,98.5,143.8,98.7z"/>
				<path class="st9" d="M149.2,102.7c-0.4-0.2-0.6-0.5-0.8-0.9c-0.2-0.4-0.3-0.8-0.3-1.4c0-0.5,0.1-1,0.3-1.4
					c0.2-0.4,0.5-0.7,0.8-0.9c0.4-0.2,0.8-0.3,1.3-0.3c0.3,0,0.7,0.1,1,0.2s0.6,0.3,0.8,0.5l-0.2,0.5c-0.3-0.2-0.5-0.4-0.7-0.5
					s-0.5-0.1-0.7-0.1c-0.5,0-1,0.2-1.3,0.6c-0.3,0.4-0.5,0.9-0.5,1.5c0,0.6,0.2,1.1,0.5,1.5c0.3,0.4,0.7,0.5,1.3,0.5
					c0.3,0,0.5,0,0.7-0.1s0.5-0.2,0.7-0.5l0.2,0.5c-0.2,0.2-0.5,0.4-0.8,0.5c-0.3,0.1-0.6,0.2-1,0.2
					C149.9,103,149.5,102.9,149.2,102.7z"/>
				<path class="st9" d="M154.2,98.4v3c0,0.4,0.1,0.7,0.2,0.8c0.2,0.2,0.4,0.2,0.7,0.2c0.2,0,0.4,0,0.5-0.1v0.6
					c-0.2,0.1-0.4,0.1-0.7,0.1c-0.4,0-0.8-0.1-1-0.4c-0.3-0.2-0.4-0.6-0.4-1.1v-3.1h-1V98h1v-1.3l0.6-0.2V98h1.5v0.5H154.2z"/>
				<path class="st9" d="M164.3,99.9c0.2,0.3,0.3,0.7,0.3,1.1c0,0.6-0.2,1.1-0.6,1.4c-0.4,0.3-1,0.5-1.7,0.5h-2.9v-7.1h2.8
					c0.7,0,1.3,0.2,1.7,0.5c0.4,0.3,0.6,0.8,0.6,1.4c0,0.4-0.1,0.7-0.3,1s-0.5,0.5-0.8,0.6C163.8,99.4,164.1,99.6,164.3,99.9z
					 M160.1,99.1h2.1c0.6,0,1-0.1,1.3-0.4s0.4-0.6,0.4-1c0-0.9-0.6-1.3-1.7-1.3h-2.1V99.1z M163.6,102.1c0.3-0.2,0.4-0.6,0.4-1
					c0-1-0.6-1.4-1.8-1.4h-2.2v2.8h2.2C162.9,102.4,163.3,102.3,163.6,102.1z"/>
				<path class="st9" d="M170.2,98v5h-0.6v-0.9c-0.2,0.3-0.4,0.6-0.7,0.7c-0.3,0.2-0.6,0.3-1,0.3c-0.6,0-1-0.2-1.3-0.5
					c-0.3-0.3-0.5-0.8-0.5-1.5V98h0.6v3.1c0,0.5,0.1,0.9,0.3,1.1c0.2,0.2,0.5,0.4,0.9,0.4c0.5,0,0.9-0.2,1.2-0.5
					c0.3-0.3,0.4-0.7,0.4-1.2V98H170.2z"/>
				<path class="st9" d="M171.7,102.4l0.2-0.5c0.3,0.2,0.5,0.4,0.8,0.5c0.3,0.1,0.6,0.1,0.9,0.1c0.4,0,0.7-0.1,0.9-0.2
					c0.2-0.1,0.3-0.4,0.3-0.6c0-0.2-0.1-0.4-0.2-0.5c-0.1-0.1-0.4-0.2-0.7-0.3l-0.9-0.2c-0.4-0.1-0.7-0.3-0.9-0.5
					c-0.2-0.2-0.3-0.5-0.3-0.8c0-0.4,0.2-0.8,0.5-1.1c0.3-0.3,0.8-0.4,1.3-0.4c0.4,0,0.7,0.1,1,0.2c0.3,0.1,0.6,0.3,0.8,0.5
					l-0.2,0.5c-0.5-0.4-1-0.6-1.5-0.6c-0.4,0-0.7,0.1-0.9,0.2c-0.2,0.2-0.3,0.4-0.3,0.6c0,0.2,0.1,0.4,0.2,0.6s0.3,0.2,0.6,0.3
					l0.9,0.2c0.9,0.2,1.4,0.6,1.4,1.3c0,0.4-0.2,0.8-0.5,1c-0.3,0.3-0.8,0.4-1.4,0.4C172.8,103,172.1,102.8,171.7,102.4z"/>
				<path class="st9" d="M177.7,95.9v0.8h-0.8v-0.8H177.7z M177,98h0.6v5H177V98z"/>
				<path class="st9" d="M183.5,99.8v3.2h-0.6v-3.2c0-0.5-0.1-0.9-0.3-1.1c-0.2-0.2-0.5-0.4-1-0.4c-0.5,0-0.9,0.2-1.2,0.5
					c-0.3,0.3-0.5,0.7-0.5,1.2v2.9h-0.6v-3.6c0-0.5,0-1-0.1-1.4h0.6l0.1,0.9c0.2-0.3,0.4-0.6,0.7-0.8c0.3-0.2,0.7-0.3,1.1-0.3
					C182.9,97.8,183.5,98.5,183.5,99.8z"/>
				<path class="st9" d="M185.5,100.4L185.5,100.4c0,0.7,0.2,1.2,0.5,1.6c0.3,0.4,0.8,0.5,1.4,0.5c0.6,0,1.2-0.2,1.7-0.6l0.2,0.5
					c-0.2,0.2-0.5,0.4-0.8,0.5c-0.3,0.1-0.7,0.2-1.1,0.2c-0.8,0-1.4-0.2-1.8-0.7s-0.7-1.1-0.7-1.9c0-0.5,0.1-1,0.3-1.4
					c0.2-0.4,0.5-0.7,0.8-0.9c0.4-0.2,0.8-0.3,1.2-0.3c0.7,0,1.2,0.2,1.6,0.6c0.4,0.4,0.6,1,0.6,1.8v0.1H185.5z M186.1,98.7
					c-0.3,0.3-0.5,0.7-0.5,1.2h3.2c0-0.5-0.2-0.9-0.5-1.2c-0.3-0.3-0.6-0.4-1.1-0.4C186.7,98.3,186.4,98.5,186.1,98.7z"/>
				<path class="st9" d="M190.4,102.4l0.2-0.5c0.3,0.2,0.5,0.4,0.8,0.5c0.3,0.1,0.6,0.1,0.9,0.1c0.4,0,0.7-0.1,0.9-0.2
					c0.2-0.1,0.3-0.4,0.3-0.6c0-0.2-0.1-0.4-0.2-0.5c-0.1-0.1-0.4-0.2-0.7-0.3l-0.9-0.2c-0.4-0.1-0.7-0.3-0.9-0.5
					c-0.2-0.2-0.3-0.5-0.3-0.8c0-0.4,0.2-0.8,0.5-1.1c0.3-0.3,0.8-0.4,1.3-0.4c0.4,0,0.7,0.1,1,0.2c0.3,0.1,0.6,0.3,0.8,0.5
					l-0.2,0.5c-0.5-0.4-1-0.6-1.5-0.6c-0.4,0-0.7,0.1-0.9,0.2c-0.2,0.2-0.3,0.4-0.3,0.6c0,0.2,0.1,0.4,0.2,0.6
					c0.1,0.1,0.3,0.2,0.6,0.3l0.9,0.2c0.9,0.2,1.4,0.6,1.4,1.3c0,0.4-0.2,0.8-0.5,1c-0.3,0.3-0.8,0.4-1.4,0.4
					C191.5,103,190.8,102.8,190.4,102.4z"/>
				<path class="st9" d="M195.4,102.4l0.2-0.5c0.3,0.2,0.5,0.4,0.8,0.5c0.3,0.1,0.6,0.1,0.9,0.1c0.4,0,0.7-0.1,0.9-0.2
					c0.2-0.1,0.3-0.4,0.3-0.6c0-0.2-0.1-0.4-0.2-0.5c-0.1-0.1-0.4-0.2-0.7-0.3l-0.9-0.2c-0.4-0.1-0.7-0.3-0.9-0.5
					c-0.2-0.2-0.3-0.5-0.3-0.8c0-0.4,0.2-0.8,0.5-1.1c0.3-0.3,0.8-0.4,1.3-0.4c0.4,0,0.7,0.1,1,0.2c0.3,0.1,0.6,0.3,0.8,0.5
					l-0.2,0.5c-0.5-0.4-1-0.6-1.5-0.6c-0.4,0-0.7,0.1-0.9,0.2c-0.2,0.2-0.3,0.4-0.3,0.6c0,0.2,0.1,0.4,0.2,0.6
					c0.1,0.1,0.3,0.2,0.6,0.3l0.9,0.2c0.9,0.2,1.4,0.6,1.4,1.3c0,0.4-0.2,0.8-0.5,1c-0.3,0.3-0.8,0.4-1.4,0.4
					C196.5,103,195.8,102.8,195.4,102.4z"/>
				<path class="st9" d="M204.6,102.6c-0.5-0.3-0.9-0.7-1.1-1.3c-0.3-0.6-0.4-1.2-0.4-2c0-0.7,0.1-1.4,0.4-1.9
					c0.3-0.5,0.6-1,1.1-1.3s1.1-0.4,1.7-0.4c0.5,0,0.9,0.1,1.4,0.2c0.4,0.2,0.8,0.4,1.1,0.7l-0.3,0.5c-0.3-0.3-0.7-0.5-1-0.7
					c-0.3-0.1-0.7-0.2-1.1-0.2c-0.8,0-1.5,0.3-1.9,0.8c-0.5,0.5-0.7,1.3-0.7,2.3c0,1,0.2,1.8,0.7,2.3s1.1,0.8,1.9,0.8
					c0.4,0,0.8-0.1,1.1-0.2c0.3-0.1,0.7-0.4,1-0.7l0.3,0.5c-0.3,0.3-0.7,0.5-1.1,0.7c-0.4,0.2-0.9,0.2-1.4,0.2
					C205.7,103.1,205.1,102.9,204.6,102.6z"/>
				<path class="st9" d="M214.4,98v5h-0.6v-1c-0.1,0.3-0.4,0.6-0.7,0.8c-0.3,0.2-0.7,0.3-1.1,0.3c-0.4,0-0.8-0.1-1.2-0.3
					s-0.6-0.5-0.8-0.9c-0.2-0.4-0.3-0.8-0.3-1.4c0-0.5,0.1-1,0.3-1.4c0.2-0.4,0.4-0.7,0.8-0.9c0.3-0.2,0.7-0.3,1.2-0.3
					c0.4,0,0.8,0.1,1.1,0.3c0.3,0.2,0.5,0.4,0.7,0.8V98H214.4z M213.3,102c0.3-0.4,0.4-0.9,0.4-1.5c0-0.7-0.1-1.2-0.4-1.5
					c-0.3-0.4-0.7-0.5-1.2-0.5c-0.5,0-0.9,0.2-1.2,0.6s-0.4,0.9-0.4,1.5c0,0.6,0.1,1.2,0.4,1.5c0.3,0.4,0.7,0.5,1.2,0.5
					C212.6,102.5,213,102.3,213.3,102z"/>
				<path class="st9" d="M215.8,102.4l0.2-0.5c0.3,0.2,0.5,0.4,0.8,0.5c0.3,0.1,0.6,0.1,0.9,0.1c0.4,0,0.7-0.1,0.9-0.2
					c0.2-0.1,0.3-0.4,0.3-0.6c0-0.2-0.1-0.4-0.2-0.5c-0.1-0.1-0.4-0.2-0.7-0.3l-0.9-0.2c-0.4-0.1-0.7-0.3-0.9-0.5
					c-0.2-0.2-0.3-0.5-0.3-0.8c0-0.4,0.2-0.8,0.5-1.1c0.3-0.3,0.8-0.4,1.3-0.4c0.4,0,0.7,0.1,1,0.2c0.3,0.1,0.6,0.3,0.8,0.5
					l-0.2,0.5c-0.5-0.4-1-0.6-1.5-0.6c-0.4,0-0.7,0.1-0.9,0.2c-0.2,0.2-0.3,0.4-0.3,0.6c0,0.2,0.1,0.4,0.2,0.6
					c0.1,0.1,0.3,0.2,0.6,0.3l0.9,0.2c0.9,0.2,1.4,0.6,1.4,1.3c0,0.4-0.2,0.8-0.5,1c-0.3,0.3-0.8,0.4-1.4,0.4
					C216.9,103,216.3,102.8,215.8,102.4z"/>
				<path class="st9" d="M221.4,100.4L221.4,100.4c0,0.7,0.2,1.2,0.5,1.6c0.3,0.4,0.8,0.5,1.4,0.5c0.6,0,1.2-0.2,1.7-0.6l0.2,0.5
					c-0.2,0.2-0.5,0.4-0.8,0.5c-0.3,0.1-0.7,0.2-1.1,0.2c-0.8,0-1.4-0.2-1.8-0.7c-0.4-0.5-0.7-1.1-0.7-1.9c0-0.5,0.1-1,0.3-1.4
					c0.2-0.4,0.5-0.7,0.8-0.9c0.4-0.2,0.8-0.3,1.2-0.3c0.7,0,1.2,0.2,1.6,0.6c0.4,0.4,0.6,1,0.6,1.8v0.1H221.4z M222,98.7
					c-0.3,0.3-0.5,0.7-0.5,1.2h3.2c0-0.5-0.2-0.9-0.5-1.2c-0.3-0.3-0.6-0.4-1.1-0.4C222.7,98.3,222.3,98.5,222,98.7z"/>
				<g>
					<path class="st1" d="M51.8,120.7c-0.3-0.2-0.5-0.4-0.7-0.7c-0.2-0.3-0.3-0.6-0.3-0.9c0-0.3,0.1-0.6,0.2-0.9
						c0.2-0.3,0.4-0.5,0.7-0.7c0.3-0.2,0.6-0.3,0.9-0.3c0.3,0,0.6,0.1,0.9,0.2c0.3,0.2,0.5,0.4,0.7,0.6c0.2,0.3,0.3,0.6,0.3,0.9
						c0,0.3-0.1,0.6-0.2,0.9c-0.2,0.3-0.4,0.5-0.7,0.7c-0.3,0.2-0.6,0.2-0.9,0.2C52.4,120.9,52.1,120.8,51.8,120.7z"/>
					<path class="st1" d="M52.7,121c-0.3,0-0.7-0.1-1-0.3l0,0c-0.3-0.2-0.5-0.4-0.7-0.7c-0.2-0.3-0.3-0.6-0.3-1
						c0-0.3,0.1-0.6,0.3-0.9c0.2-0.3,0.4-0.5,0.7-0.7c0.6-0.3,1.3-0.4,2,0c0.3,0.2,0.5,0.4,0.7,0.7c0.2,0.3,0.3,0.6,0.3,1
						c0,0.3-0.1,0.7-0.3,1c-0.2,0.3-0.4,0.5-0.7,0.7C53.4,120.9,53.1,121,52.7,121z M51.9,120.6c0.5,0.3,1.2,0.3,1.7,0
						c0.3-0.1,0.5-0.4,0.6-0.6c0.2-0.3,0.2-0.5,0.2-0.8c0-0.3-0.1-0.6-0.2-0.8c-0.2-0.3-0.4-0.5-0.6-0.6c-0.5-0.3-1.2-0.3-1.7,0
						c-0.3,0.2-0.5,0.4-0.6,0.6c-0.1,0.3-0.2,0.5-0.2,0.8c0,0.3,0.1,0.6,0.2,0.8C51.4,120.2,51.6,120.4,51.9,120.6L51.9,120.6z"/>
				</g>
				<path class="st9" d="M69.8,114.6h2.7c0.7,0,1.3,0.2,1.7,0.5c0.4,0.3,0.6,0.8,0.6,1.4c0,0.6-0.2,1.1-0.6,1.5s-1,0.5-1.7,0.5h-2.1
					v3.2h-0.6V114.6z M72.5,118c0.6,0,1-0.1,1.3-0.4c0.3-0.2,0.4-0.6,0.4-1.1c0-0.5-0.1-0.8-0.4-1.1c-0.3-0.2-0.7-0.4-1.3-0.4h-2.1
					v2.9H72.5z"/>
				<path class="st9" d="M78.7,116.7l0,0.6c-0.1,0-0.3,0-0.5,0c-0.5,0-0.9,0.2-1.1,0.5c-0.3,0.3-0.4,0.7-0.4,1.2v3h-0.6v-3.6
					c0-0.5,0-1-0.1-1.4h0.6l0.1,0.9c0.1-0.3,0.3-0.6,0.6-0.8c0.3-0.2,0.6-0.3,1-0.3C78.4,116.6,78.6,116.7,78.7,116.7z"/>
				<path class="st9" d="M80.4,114.7v0.8h-0.8v-0.8H80.4z M79.7,116.8h0.6v5h-0.6V116.8z"/>
				<path class="st9" d="M82.8,121.5c-0.4-0.2-0.6-0.5-0.8-0.9c-0.2-0.4-0.3-0.9-0.3-1.4s0.1-1,0.3-1.4c0.2-0.4,0.5-0.7,0.8-0.9
					c0.4-0.2,0.8-0.3,1.2-0.3c0.5,0,0.9,0.1,1.2,0.3c0.3,0.2,0.6,0.5,0.8,0.9c0.2,0.4,0.3,0.9,0.3,1.4s-0.1,1-0.3,1.4
					c-0.2,0.4-0.5,0.7-0.8,0.9c-0.3,0.2-0.7,0.3-1.2,0.3C83.5,121.9,83.1,121.8,82.8,121.5z M85.2,120.8c0.3-0.4,0.4-0.9,0.4-1.5
					c0-0.7-0.1-1.2-0.4-1.5c-0.3-0.4-0.7-0.5-1.2-0.5c-0.5,0-0.9,0.2-1.2,0.5c-0.3,0.4-0.4,0.9-0.4,1.5c0,0.7,0.1,1.2,0.4,1.5
					c0.3,0.4,0.7,0.5,1.2,0.5C84.5,121.3,84.9,121.1,85.2,120.8z"/>
				<path class="st9" d="M90.3,116.7l0,0.6c-0.1,0-0.3,0-0.5,0c-0.5,0-0.9,0.2-1.1,0.5c-0.3,0.3-0.4,0.7-0.4,1.2v3h-0.6v-3.6
					c0-0.5,0-1-0.1-1.4h0.6l0.1,0.9c0.1-0.3,0.3-0.6,0.6-0.8c0.3-0.2,0.6-0.3,1-0.3C90,116.6,90.2,116.7,90.3,116.7z"/>
				<path class="st9" d="M92,114.7v0.8h-0.8v-0.8H92z M91.2,116.8h0.6v5h-0.6V116.8z"/>
				<path class="st9" d="M94.4,117.3v3c0,0.4,0.1,0.7,0.2,0.8c0.2,0.2,0.4,0.2,0.7,0.2c0.2,0,0.4,0,0.5-0.1v0.6
					c-0.2,0.1-0.4,0.1-0.7,0.1c-0.4,0-0.8-0.1-1-0.4c-0.3-0.2-0.4-0.6-0.4-1.1v-3.1h-1v-0.5h1v-1.3l0.6-0.2v1.6h1.5v0.5H94.4z"/>
				<path class="st9" d="M97.7,114.7v0.8h-0.8v-0.8H97.7z M97,116.8h0.6v5H97V116.8z"/>
				<path class="st9" d="M103.2,121.3v0.5H99v-0.4l3.3-4.1h-3.2v-0.5h4v0.5l-3.3,4.1H103.2z"/>
				<path class="st9" d="M104.8,119.2L104.8,119.2c0,0.7,0.2,1.2,0.5,1.6c0.3,0.4,0.8,0.5,1.4,0.5c0.6,0,1.2-0.2,1.7-0.6l0.2,0.5
					c-0.2,0.2-0.5,0.4-0.8,0.5c-0.3,0.1-0.7,0.2-1.1,0.2c-0.8,0-1.4-0.2-1.8-0.7c-0.4-0.5-0.7-1.1-0.7-1.9c0-0.5,0.1-1,0.3-1.4
					c0.2-0.4,0.5-0.7,0.8-0.9c0.4-0.2,0.8-0.3,1.2-0.3c0.7,0,1.2,0.2,1.6,0.6c0.4,0.4,0.6,1,0.6,1.8v0.1H104.8z M105.4,117.6
					c-0.3,0.3-0.5,0.7-0.5,1.2h3.2c0-0.5-0.2-0.9-0.5-1.2c-0.3-0.3-0.6-0.4-1.1-0.4C106,117.1,105.7,117.3,105.4,117.6z"/>
				<path class="st9" d="M114.2,114.4v7.4h-0.6v-1c-0.1,0.3-0.4,0.6-0.7,0.8c-0.3,0.2-0.7,0.3-1.1,0.3c-0.4,0-0.8-0.1-1.2-0.3
					s-0.6-0.5-0.8-0.9c-0.2-0.4-0.3-0.9-0.3-1.4c0-0.5,0.1-1,0.3-1.4c0.2-0.4,0.4-0.7,0.8-0.9c0.3-0.2,0.7-0.3,1.2-0.3
					c0.4,0,0.8,0.1,1.1,0.3c0.3,0.2,0.5,0.4,0.7,0.8v-3.3H114.2z M113.2,120.8c0.3-0.4,0.4-0.9,0.4-1.5c0-0.7-0.1-1.2-0.4-1.5
					c-0.3-0.4-0.7-0.5-1.2-0.5c-0.5,0-1,0.2-1.2,0.5s-0.4,0.9-0.4,1.5c0,0.7,0.1,1.2,0.4,1.5s0.7,0.6,1.2,0.6
					C112.5,121.3,112.9,121.1,113.2,120.8z"/>
				<path class="st9" d="M119.4,117.3v3c0,0.4,0.1,0.7,0.2,0.8c0.2,0.2,0.4,0.2,0.7,0.2c0.2,0,0.4,0,0.5-0.1v0.6
					c-0.2,0.1-0.4,0.1-0.7,0.1c-0.4,0-0.8-0.1-1-0.4c-0.3-0.2-0.4-0.6-0.4-1.1v-3.1h-1v-0.5h1v-1.3l0.6-0.2v1.6h1.5v0.5H119.4z"/>
				<path class="st9" d="M122.8,121.5c-0.4-0.2-0.6-0.5-0.8-0.9c-0.2-0.4-0.3-0.9-0.3-1.4s0.1-1,0.3-1.4c0.2-0.4,0.5-0.7,0.8-0.9
					c0.4-0.2,0.8-0.3,1.2-0.3c0.5,0,0.9,0.1,1.2,0.3c0.3,0.2,0.6,0.5,0.8,0.9c0.2,0.4,0.3,0.9,0.3,1.4s-0.1,1-0.3,1.4
					c-0.2,0.4-0.5,0.7-0.8,0.9c-0.3,0.2-0.7,0.3-1.2,0.3C123.5,121.9,123.1,121.8,122.8,121.5z M125.2,120.8
					c0.3-0.4,0.4-0.9,0.4-1.5c0-0.7-0.1-1.2-0.4-1.5c-0.3-0.4-0.7-0.5-1.2-0.5c-0.5,0-0.9,0.2-1.2,0.5c-0.3,0.4-0.4,0.9-0.4,1.5
					c0,0.7,0.1,1.2,0.4,1.5c0.3,0.4,0.7,0.5,1.2,0.5C124.5,121.3,124.9,121.1,125.2,120.8z"/>
				<path class="st9" d="M137.8,116.8l-1.8,5h-0.6l-1.5-4.2l-1.5,4.2h-0.6l-1.8-5h0.7l1.5,4.3l1.6-4.3h0.6l1.5,4.3l1.5-4.3H137.8z"
					/>
				<path class="st9" d="M139.7,121.5c-0.4-0.2-0.6-0.5-0.8-0.9c-0.2-0.4-0.3-0.9-0.3-1.4s0.1-1,0.3-1.4c0.2-0.4,0.5-0.7,0.8-0.9
					c0.4-0.2,0.8-0.3,1.2-0.3c0.5,0,0.9,0.1,1.2,0.3c0.3,0.2,0.6,0.5,0.8,0.9c0.2,0.4,0.3,0.9,0.3,1.4s-0.1,1-0.3,1.4
					c-0.2,0.4-0.5,0.7-0.8,0.9c-0.3,0.2-0.7,0.3-1.2,0.3C140.5,121.9,140.1,121.8,139.7,121.5z M142.2,120.8
					c0.3-0.4,0.4-0.9,0.4-1.5c0-0.7-0.1-1.2-0.4-1.5c-0.3-0.4-0.7-0.5-1.2-0.5c-0.5,0-0.9,0.2-1.2,0.5c-0.3,0.4-0.4,0.9-0.4,1.5
					c0,0.7,0.1,1.2,0.4,1.5c0.3,0.4,0.7,0.5,1.2,0.5C141.5,121.3,141.9,121.1,142.2,120.8z"/>
				<path class="st9" d="M147.2,116.7l0,0.6c-0.1,0-0.3,0-0.5,0c-0.5,0-0.9,0.2-1.1,0.5c-0.3,0.3-0.4,0.7-0.4,1.2v3h-0.6v-3.6
					c0-0.5,0-1-0.1-1.4h0.6l0.1,0.9c0.1-0.3,0.3-0.6,0.6-0.8c0.3-0.2,0.6-0.3,1-0.3C147,116.6,147.1,116.7,147.2,116.7z"/>
				<path class="st9" d="M151.6,121.8l-2.8-2.4v2.4h-0.6v-7.4h0.6v4.7l2.5-2.3h0.8l-2.6,2.4l2.9,2.6H151.6z"/>
				<path class="st9" d="M163.3,116.8l-1.8,5h-0.6l-1.5-4.2l-1.5,4.2h-0.6l-1.8-5h0.7l1.5,4.3l1.6-4.3h0.6l1.5,4.3l1.5-4.3H163.3z"
					/>
				<path class="st9" d="M165.3,114.7v0.8h-0.8v-0.8H165.3z M164.6,116.8h0.6v5h-0.6V116.8z"/>
				<path class="st9" d="M167.8,117.3v3c0,0.4,0.1,0.7,0.2,0.8c0.2,0.2,0.4,0.2,0.7,0.2c0.2,0,0.4,0,0.5-0.1v0.6
					c-0.2,0.1-0.4,0.1-0.7,0.1c-0.4,0-0.8-0.1-1-0.4c-0.3-0.2-0.4-0.6-0.4-1.1v-3.1h-1v-0.5h1v-1.3l0.6-0.2v1.6h1.5v0.5H167.8z"/>
				<path class="st9" d="M174.5,118.6v3.2h-0.6v-3.2c0-0.5-0.1-0.9-0.3-1.1c-0.2-0.2-0.5-0.4-1-0.4c-0.5,0-0.9,0.2-1.2,0.5
					c-0.3,0.3-0.5,0.7-0.5,1.2v2.9h-0.6v-7.4h0.6v3.2c0.2-0.3,0.4-0.6,0.7-0.7s0.6-0.3,1-0.3C173.9,116.6,174.5,117.3,174.5,118.6z"
					/>
				<path class="st9" d="M177.9,123c0.3,0.1,0.5,0.1,0.7,0.1c0.4,0,0.6-0.1,0.7-0.3c0.1-0.2,0.2-0.5,0.2-1v-7.1h0.6v7.1
					c0,0.7-0.1,1.1-0.3,1.4c-0.2,0.3-0.6,0.4-1.1,0.4c-0.2,0-0.5,0-0.8-0.1V123z"/>
				<path class="st9" d="M186.7,119.9h-3.9l-0.8,1.9h-0.6l3.1-7.1h0.6l3.1,7.1h-0.6L186.7,119.9z M186.5,119.3l-1.7-3.9l-1.7,3.9
					H186.5z"/>
				<path class="st9" d="M194.3,118.7c0.2,0.3,0.3,0.7,0.3,1.1c0,0.6-0.2,1.1-0.6,1.4c-0.4,0.3-1,0.5-1.7,0.5h-2.9v-7.1h2.8
					c0.7,0,1.3,0.2,1.7,0.5c0.4,0.3,0.6,0.8,0.6,1.4c0,0.4-0.1,0.7-0.3,1s-0.5,0.5-0.8,0.6C193.8,118.2,194.1,118.4,194.3,118.7z
					 M190,117.9h2.1c0.6,0,1-0.1,1.3-0.4s0.4-0.6,0.4-1c0-0.9-0.6-1.3-1.7-1.3H190V117.9z M193.6,120.9c0.3-0.2,0.4-0.6,0.4-1
					c0-1-0.6-1.4-1.8-1.4H190v2.8h2.2C192.9,121.3,193.3,121.1,193.6,120.9z"/>
			</g>
		</g>
		<rect x="52.4" y="96.2" class="st1" width="0.8" height="21.6"/>
		<g>
			<g>
				<circle class="st1" cx="52.8" cy="98.6" r="7.6"/>
			</g>
			<g>
				<path class="st4" d="M54.4,96.6c-0.2,0-0.4-0.2-0.4-0.4v-2.5h-3.9c-0.5,0-1,0.4-1,1v7.9c0,0.5,0.4,1,1,1h5.8c0.5,0,1-0.4,1-1v-6
					H54.4z"/>
			</g>
			<path class="st5" d="M54.3,96.6h2.5L54,93.7v2.5C54,96.4,54.1,96.5,54.3,96.6z"/>
			<polygon class="st2" points="56.9,98.6 56.9,96.6 54.4,96.6 			"/>
		</g>
	</g>
	<g class="st11">
		<rect x="28.5" y="162.9" class="st2" width="263.1" height="120"/>
		<g>
			<g>
				<g>
					<path class="st1" d="M51.8,206c-0.3-0.2-0.5-0.4-0.7-0.7c-0.2-0.3-0.3-0.6-0.3-0.9c0-0.3,0.1-0.6,0.2-0.9
						c0.2-0.3,0.4-0.5,0.7-0.7c0.3-0.2,0.6-0.3,0.9-0.3c0.3,0,0.6,0.1,0.9,0.2c0.3,0.2,0.5,0.4,0.7,0.6c0.2,0.3,0.3,0.6,0.3,0.9
						c0,0.3-0.1,0.6-0.2,0.9c-0.2,0.3-0.4,0.5-0.7,0.7c-0.3,0.2-0.6,0.2-0.9,0.2C52.4,206.2,52.1,206.2,51.8,206z"/>
					<path class="st1" d="M52.7,206.4c-0.3,0-0.7-0.1-1-0.3l0,0c-0.3-0.2-0.5-0.4-0.7-0.7c-0.2-0.3-0.3-0.6-0.3-1
						c0-0.3,0.1-0.6,0.3-0.9c0.2-0.3,0.4-0.5,0.7-0.7c0.6-0.3,1.3-0.4,2,0c0.3,0.2,0.5,0.4,0.7,0.7c0.2,0.3,0.3,0.6,0.3,1
						c0,0.3-0.1,0.7-0.3,1c-0.2,0.3-0.4,0.5-0.7,0.7C53.4,206.3,53.1,206.4,52.7,206.4z M51.9,205.9c0.5,0.3,1.2,0.3,1.7,0
						c0.3-0.2,0.5-0.4,0.6-0.6c0.2-0.3,0.2-0.5,0.2-0.8c0-0.3-0.1-0.6-0.2-0.8c-0.2-0.3-0.4-0.5-0.6-0.6c-0.5-0.3-1.2-0.3-1.7,0
						c-0.3,0.2-0.5,0.4-0.6,0.6c-0.1,0.3-0.2,0.5-0.2,0.8c0,0.3,0.1,0.6,0.2,0.8C51.4,205.5,51.6,205.7,51.9,205.9L51.9,205.9z"/>
				</g>
				<path class="st9" d="M75.3,207.1h-0.6l-0.9-2.4c-0.1-0.3-0.3-0.5-0.5-0.6s-0.5-0.2-0.9-0.2h-2v3.2h-0.6V200h2.8
					c0.7,0,1.3,0.2,1.7,0.5s0.6,0.8,0.6,1.5c0,0.5-0.1,0.8-0.4,1.2c-0.2,0.3-0.6,0.5-1,0.7c0.2,0,0.4,0.1,0.5,0.3
					c0.1,0.1,0.3,0.3,0.4,0.6L75.3,207.1z M72.5,203.4c1.2,0,1.8-0.5,1.8-1.5c0-0.9-0.6-1.4-1.8-1.4h-2.1v2.9H72.5z"/>
				<path class="st9" d="M81.4,205.2h-3.9l-0.8,1.9h-0.6l3.1-7.1h0.6l3.1,7.1h-0.6L81.4,205.2z M81.1,204.7l-1.7-3.9l-1.7,3.9H81.1z
					"/>
				<path class="st9" d="M89.6,207.1h-0.6l-0.9-2.4c-0.1-0.3-0.3-0.5-0.5-0.6s-0.5-0.2-0.9-0.2h-2v3.2h-0.6V200h2.8
					c0.7,0,1.3,0.2,1.7,0.5s0.6,0.8,0.6,1.5c0,0.5-0.1,0.8-0.4,1.2c-0.2,0.3-0.6,0.5-1,0.7c0.2,0,0.4,0.1,0.5,0.3
					c0.1,0.1,0.3,0.3,0.4,0.6L89.6,207.1z M86.8,203.4c1.2,0,1.8-0.5,1.8-1.5c0-0.9-0.6-1.4-1.8-1.4h-2.1v2.9H86.8z"/>
				<path class="st9" d="M93.6,200h2.3c1.1,0,2,0.3,2.6,0.9c0.6,0.6,0.9,1.5,0.9,2.6c0,1.1-0.3,2-0.9,2.6c-0.6,0.6-1.5,0.9-2.6,0.9
					h-2.3V200z M95.9,206.6c1,0,1.7-0.3,2.2-0.8c0.5-0.5,0.7-1.3,0.7-2.3c0-2-1-3-2.9-3h-1.6v6.1H95.9z"/>
				<path class="st9" d="M101.3,204.5L101.3,204.5c0,0.7,0.2,1.2,0.5,1.6c0.3,0.4,0.8,0.5,1.4,0.5c0.6,0,1.2-0.2,1.7-0.6l0.2,0.5
					c-0.2,0.2-0.5,0.4-0.8,0.5c-0.3,0.1-0.7,0.2-1.1,0.2c-0.8,0-1.4-0.2-1.8-0.7c-0.4-0.5-0.7-1.1-0.7-1.9c0-0.5,0.1-1,0.3-1.4
					c0.2-0.4,0.5-0.7,0.8-0.9c0.4-0.2,0.8-0.3,1.2-0.3c0.7,0,1.2,0.2,1.6,0.6c0.4,0.4,0.6,1,0.6,1.8v0.1H101.3z M101.9,202.9
					c-0.3,0.3-0.5,0.7-0.5,1.2h3.2c0-0.5-0.2-0.9-0.5-1.2c-0.3-0.3-0.6-0.4-1.1-0.4C102.6,202.5,102.2,202.6,101.9,202.9z"/>
				<path class="st9" d="M110.7,202.1l-2.2,5h-0.6l-2.1-5h0.7l1.8,4.4l1.8-4.4H110.7z"/>
				<path class="st9" d="M112.1,204.5L112.1,204.5c0,0.7,0.2,1.2,0.5,1.6c0.3,0.4,0.8,0.5,1.4,0.5c0.6,0,1.2-0.2,1.7-0.6l0.2,0.5
					c-0.2,0.2-0.5,0.4-0.8,0.5c-0.3,0.1-0.7,0.2-1.1,0.2c-0.8,0-1.4-0.2-1.8-0.7c-0.4-0.5-0.7-1.1-0.7-1.9c0-0.5,0.1-1,0.3-1.4
					c0.2-0.4,0.5-0.7,0.8-0.9c0.4-0.2,0.8-0.3,1.2-0.3c0.7,0,1.2,0.2,1.6,0.6c0.4,0.4,0.6,1,0.6,1.8v0.1H112.1z M112.6,202.9
					c-0.3,0.3-0.5,0.7-0.5,1.2h3.2c0-0.5-0.2-0.9-0.5-1.2c-0.3-0.3-0.6-0.4-1.1-0.4C113.3,202.5,112.9,202.6,112.6,202.9z"/>
				<path class="st9" d="M117.2,199.7h0.6v7.4h-0.6V199.7z"/>
				<path class="st9" d="M120.3,206.9c-0.4-0.2-0.6-0.5-0.8-0.9c-0.2-0.4-0.3-0.9-0.3-1.4s0.1-1,0.3-1.4c0.2-0.4,0.5-0.7,0.8-0.9
					c0.4-0.2,0.8-0.3,1.2-0.3c0.5,0,0.9,0.1,1.2,0.3c0.3,0.2,0.6,0.5,0.8,0.9c0.2,0.4,0.3,0.9,0.3,1.4s-0.1,1-0.3,1.4
					c-0.2,0.4-0.5,0.7-0.8,0.9c-0.3,0.2-0.7,0.3-1.2,0.3C121.1,207.2,120.7,207.1,120.3,206.9z M122.8,206.1
					c0.3-0.4,0.4-0.9,0.4-1.5c0-0.7-0.1-1.2-0.4-1.5c-0.3-0.4-0.7-0.5-1.2-0.5c-0.5,0-0.9,0.2-1.2,0.5c-0.3,0.4-0.4,0.9-0.4,1.5
					c0,0.7,0.1,1.2,0.4,1.5c0.3,0.4,0.7,0.5,1.2,0.5C122.1,206.7,122.5,206.5,122.8,206.1z"/>
				<path class="st9" d="M128.8,202.3c0.3,0.2,0.6,0.5,0.8,0.9c0.2,0.4,0.3,0.9,0.3,1.4c0,0.5-0.1,1-0.3,1.4
					c-0.2,0.4-0.4,0.7-0.8,0.9s-0.7,0.3-1.2,0.3c-0.4,0-0.8-0.1-1.1-0.3c-0.3-0.2-0.5-0.4-0.7-0.8v3.2h-0.6v-5.8c0-0.5,0-1-0.1-1.4
					h0.6l0.1,1c0.1-0.4,0.4-0.6,0.7-0.8c0.3-0.2,0.7-0.3,1.1-0.3C128.1,202,128.4,202.1,128.8,202.3z M128.8,206.1
					c0.3-0.4,0.4-0.9,0.4-1.5c0-0.7-0.1-1.2-0.4-1.5s-0.7-0.6-1.2-0.6c-0.5,0-0.9,0.2-1.2,0.5s-0.4,0.9-0.4,1.5
					c0,0.7,0.1,1.2,0.4,1.5s0.7,0.5,1.2,0.5C128.1,206.7,128.5,206.5,128.8,206.1z"/>
				<path class="st9" d="M138.3,203.9v3.2h-0.6V204c0-0.5-0.1-0.9-0.3-1.1c-0.2-0.2-0.5-0.3-0.9-0.3c-0.5,0-0.8,0.2-1.1,0.5
					c-0.3,0.3-0.4,0.7-0.4,1.3v2.9h-0.6V204c0-0.5-0.1-0.9-0.3-1.1c-0.2-0.2-0.5-0.3-0.9-0.3c-0.5,0-0.8,0.2-1.1,0.5
					c-0.3,0.3-0.4,0.7-0.4,1.3v2.9h-0.6v-3.6c0-0.5,0-1-0.1-1.4h0.6l0.1,0.9c0.1-0.3,0.3-0.6,0.6-0.8c0.3-0.2,0.6-0.3,1-0.3
					c0.8,0,1.3,0.3,1.6,1c0.1-0.3,0.4-0.5,0.7-0.7c0.3-0.2,0.6-0.3,1-0.3C137.8,202,138.3,202.6,138.3,203.9z"/>
				<path class="st9" d="M140.3,204.5L140.3,204.5c0,0.7,0.2,1.2,0.5,1.6c0.3,0.4,0.8,0.5,1.4,0.5c0.6,0,1.2-0.2,1.7-0.6l0.2,0.5
					c-0.2,0.2-0.5,0.4-0.8,0.5c-0.3,0.1-0.7,0.2-1.1,0.2c-0.8,0-1.4-0.2-1.8-0.7c-0.4-0.5-0.7-1.1-0.7-1.9c0-0.5,0.1-1,0.3-1.4
					c0.2-0.4,0.5-0.7,0.8-0.9c0.4-0.2,0.8-0.3,1.2-0.3c0.7,0,1.2,0.2,1.6,0.6c0.4,0.4,0.6,1,0.6,1.8v0.1H140.3z M140.9,202.9
					c-0.3,0.3-0.5,0.7-0.5,1.2h3.2c0-0.5-0.2-0.9-0.5-1.2c-0.3-0.3-0.6-0.4-1.1-0.4C141.6,202.5,141.2,202.6,140.9,202.9z"/>
				<path class="st9" d="M149.7,203.9v3.2h-0.6V204c0-0.5-0.1-0.9-0.3-1.1c-0.2-0.2-0.5-0.4-1-0.4c-0.5,0-0.9,0.2-1.2,0.5
					c-0.3,0.3-0.5,0.7-0.5,1.2v2.9h-0.6v-3.6c0-0.5,0-1-0.1-1.4h0.6l0.1,0.9c0.2-0.3,0.4-0.6,0.7-0.8c0.3-0.2,0.7-0.3,1.1-0.3
					C149.1,202,149.7,202.6,149.7,203.9z"/>
				<path class="st9" d="M152.2,202.6v3c0,0.4,0.1,0.7,0.2,0.8c0.2,0.2,0.4,0.2,0.7,0.2c0.2,0,0.4,0,0.5-0.1v0.6
					c-0.2,0.1-0.4,0.1-0.7,0.1c-0.4,0-0.8-0.1-1-0.4c-0.3-0.2-0.4-0.6-0.4-1.1v-3.1h-1v-0.5h1v-1.3l0.6-0.2v1.6h1.5v0.5H152.2z"/>
				<g>
					<path class="st1" d="M51.8,224.8c-0.3-0.2-0.5-0.4-0.7-0.7c-0.2-0.3-0.3-0.6-0.3-0.9c0-0.3,0.1-0.6,0.2-0.9
						c0.2-0.3,0.4-0.5,0.7-0.7c0.3-0.2,0.6-0.3,0.9-0.3c0.3,0,0.6,0.1,0.9,0.2c0.3,0.2,0.5,0.4,0.7,0.6c0.2,0.3,0.3,0.6,0.3,0.9
						c0,0.3-0.1,0.6-0.2,0.9c-0.2,0.3-0.4,0.5-0.7,0.7c-0.3,0.2-0.6,0.2-0.9,0.2C52.4,225.1,52.1,225,51.8,224.8z"/>
					<path class="st1" d="M52.7,225.2c-0.3,0-0.7-0.1-1-0.3l0,0c-0.3-0.2-0.5-0.4-0.7-0.7c-0.2-0.3-0.3-0.6-0.3-1
						c0-0.3,0.1-0.6,0.3-0.9c0.2-0.3,0.4-0.5,0.7-0.7c0.6-0.3,1.3-0.4,2,0c0.3,0.2,0.5,0.4,0.7,0.7c0.2,0.3,0.3,0.6,0.3,1
						c0,0.3-0.1,0.7-0.3,1c-0.2,0.3-0.4,0.5-0.7,0.7C53.4,225.1,53.1,225.2,52.7,225.2z M51.9,224.7c0.5,0.3,1.2,0.3,1.7,0
						c0.3-0.2,0.5-0.4,0.6-0.6c0.2-0.3,0.2-0.5,0.2-0.8c0-0.3-0.1-0.6-0.2-0.8c-0.2-0.3-0.4-0.5-0.6-0.6c-0.5-0.3-1.2-0.3-1.7,0
						c-0.3,0.2-0.5,0.4-0.6,0.6c-0.1,0.3-0.2,0.5-0.2,0.8c0,0.3,0.1,0.6,0.2,0.8C51.4,224.4,51.6,224.6,51.9,224.7L51.9,224.7z"/>
				</g>
				<path class="st9" d="M69.8,218.8h4.3v0.5h-3.7v2.7h3.5v0.6h-3.5v3.4h-0.6V218.8z"/>
				<path class="st9" d="M75.6,223.4L75.6,223.4c0,0.7,0.2,1.2,0.5,1.6c0.3,0.4,0.8,0.5,1.4,0.5c0.6,0,1.2-0.2,1.7-0.6l0.2,0.5
					c-0.2,0.2-0.5,0.4-0.8,0.5c-0.3,0.1-0.7,0.2-1.1,0.2c-0.8,0-1.4-0.2-1.8-0.7c-0.4-0.5-0.7-1.1-0.7-1.9c0-0.5,0.1-1,0.3-1.4
					c0.2-0.4,0.5-0.7,0.8-0.9c0.4-0.2,0.8-0.3,1.2-0.3c0.7,0,1.2,0.2,1.6,0.6c0.4,0.4,0.6,1,0.6,1.8v0.1H75.6z M76.2,221.7
					c-0.3,0.3-0.5,0.7-0.5,1.2h3.2c0-0.5-0.2-0.9-0.5-1.2c-0.3-0.3-0.6-0.4-1.1-0.4C76.8,221.3,76.5,221.4,76.2,221.7z"/>
				<path class="st9" d="M85,218.6v7.4h-0.6v-1c-0.1,0.3-0.4,0.6-0.7,0.8c-0.3,0.2-0.7,0.3-1.1,0.3c-0.4,0-0.8-0.1-1.2-0.3
					s-0.6-0.5-0.8-0.9c-0.2-0.4-0.3-0.9-0.3-1.4c0-0.5,0.1-1,0.3-1.4c0.2-0.4,0.4-0.7,0.8-0.9c0.3-0.2,0.7-0.3,1.2-0.3
					c0.4,0,0.8,0.1,1.1,0.3c0.3,0.2,0.5,0.4,0.7,0.8v-3.3H85z M84,224.9c0.3-0.4,0.4-0.9,0.4-1.5c0-0.7-0.1-1.2-0.4-1.5
					c-0.3-0.4-0.7-0.5-1.2-0.5c-0.5,0-1,0.2-1.2,0.5s-0.4,0.9-0.4,1.5c0,0.7,0.1,1.2,0.4,1.5s0.7,0.6,1.2,0.6
					C83.3,225.5,83.7,225.3,84,224.9z"/>
				<path class="st9" d="M92.4,225.9h-0.6l-0.9-2.4c-0.1-0.3-0.3-0.5-0.5-0.6s-0.5-0.2-0.9-0.2h-2v3.2h-0.6v-7.1h2.8
					c0.7,0,1.3,0.2,1.7,0.5s0.6,0.8,0.6,1.5c0,0.5-0.1,0.8-0.4,1.2c-0.2,0.3-0.6,0.5-1,0.7c0.2,0,0.4,0.1,0.5,0.3
					c0.1,0.1,0.3,0.3,0.4,0.6L92.4,225.9z M89.6,222.2c1.2,0,1.8-0.5,1.8-1.5c0-0.9-0.6-1.4-1.8-1.4h-2.1v2.9H89.6z"/>
				<path class="st9" d="M98.4,224h-3.9l-0.8,1.9h-0.6l3.1-7.1h0.6l3.1,7.1h-0.6L98.4,224z M98.2,223.5l-1.7-3.9l-1.7,3.9H98.2z"/>
				<path class="st9" d="M107.8,218.8v7.1h-0.6v-5.7l-2.5,5.7h-0.5l-2.5-5.7l0,5.7h-0.6v-7.1h0.5l2.8,6.4l2.8-6.4H107.8z"/>
				<path class="st9" d="M109.7,218.8h2.7c0.7,0,1.3,0.2,1.7,0.5c0.4,0.3,0.6,0.8,0.6,1.4c0,0.6-0.2,1.1-0.6,1.5s-1,0.5-1.7,0.5
					h-2.1v3.2h-0.6V218.8z M112.4,222.2c0.6,0,1-0.1,1.3-0.4c0.3-0.2,0.4-0.6,0.4-1.1c0-0.5-0.1-0.8-0.4-1.1
					c-0.3-0.2-0.7-0.4-1.3-0.4h-2.1v2.9H112.4z"/>
				<path class="st9" d="M118.8,218.8h2.7c0.7,0,1.3,0.2,1.7,0.5c0.4,0.3,0.6,0.8,0.6,1.4c0,0.6-0.2,1.1-0.6,1.5s-1,0.5-1.7,0.5
					h-2.1v3.2h-0.6V218.8z M121.5,222.2c0.6,0,1-0.1,1.3-0.4c0.3-0.2,0.4-0.6,0.4-1.1c0-0.5-0.1-0.8-0.4-1.1
					c-0.3-0.2-0.7-0.4-1.3-0.4h-2.1v2.9H121.5z"/>
				<path class="st9" d="M132,218.8v7.1h-0.6v-5.7l-2.5,5.7h-0.5l-2.5-5.7l0,5.7h-0.6v-7.1h0.5l2.8,6.4l2.8-6.4H132z"/>
				<path class="st9" d="M135.1,225.6c-0.5-0.3-0.8-0.7-1.1-1.3c-0.3-0.5-0.4-1.2-0.4-1.9c0-0.8,0.1-1.4,0.4-1.9s0.6-1,1.1-1.3
					c0.5-0.3,1-0.4,1.7-0.4s1.2,0.1,1.7,0.4c0.5,0.3,0.8,0.7,1.1,1.3c0.3,0.5,0.4,1.2,0.4,1.9c0,0.8-0.1,1.4-0.4,2
					c-0.3,0.6-0.6,1-1.1,1.3c-0.5,0.3-1,0.4-1.7,0.4C136.1,226,135.6,225.9,135.1,225.6z M138.6,224.7c0.4-0.5,0.7-1.3,0.7-2.3
					s-0.2-1.8-0.7-2.3c-0.4-0.5-1.1-0.8-1.9-0.8c-0.8,0-1.4,0.3-1.9,0.8c-0.4,0.5-0.7,1.3-0.7,2.3s0.2,1.7,0.7,2.3
					c0.4,0.5,1.1,0.8,1.9,0.8C137.6,225.5,138.2,225.2,138.6,224.7z"/>
				<path class="st9" d="M149.7,225.9h-0.6l-0.9-2.4c-0.1-0.3-0.3-0.5-0.5-0.6s-0.5-0.2-0.9-0.2h-2v3.2h-0.6v-7.1h2.8
					c0.7,0,1.3,0.2,1.7,0.5s0.6,0.8,0.6,1.5c0,0.5-0.1,0.8-0.4,1.2c-0.2,0.3-0.6,0.5-1,0.7c0.2,0,0.4,0.1,0.5,0.3
					c0.1,0.1,0.3,0.3,0.4,0.6L149.7,225.9z M146.9,222.2c1.2,0,1.8-0.5,1.8-1.5c0-0.9-0.6-1.4-1.8-1.4h-2.1v2.9H146.9z"/>
				<path class="st9" d="M151.4,223.4L151.4,223.4c0,0.7,0.2,1.2,0.5,1.6c0.3,0.4,0.8,0.5,1.4,0.5c0.6,0,1.2-0.2,1.7-0.6l0.2,0.5
					c-0.2,0.2-0.5,0.4-0.8,0.5c-0.3,0.1-0.7,0.2-1.1,0.2c-0.8,0-1.4-0.2-1.8-0.7c-0.4-0.5-0.7-1.1-0.7-1.9c0-0.5,0.1-1,0.3-1.4
					c0.2-0.4,0.5-0.7,0.8-0.9c0.4-0.2,0.8-0.3,1.2-0.3c0.7,0,1.2,0.2,1.6,0.6c0.4,0.4,0.6,1,0.6,1.8v0.1H151.4z M152,221.7
					c-0.3,0.3-0.5,0.7-0.5,1.2h3.2c0-0.5-0.2-0.9-0.5-1.2c-0.3-0.3-0.6-0.4-1.1-0.4C152.6,221.3,152.3,221.4,152,221.7z"/>
				<path class="st9" d="M160.8,220.9l-2.2,5H158l-2.1-5h0.7l1.8,4.4l1.8-4.4H160.8z"/>
				<path class="st9" d="M162.6,218.8v0.8h-0.8v-0.8H162.6z M161.8,220.9h0.6v5h-0.6V220.9z"/>
				<path class="st9" d="M164.5,223.4L164.5,223.4c0,0.7,0.2,1.2,0.5,1.6c0.3,0.4,0.8,0.5,1.4,0.5c0.6,0,1.2-0.2,1.7-0.6l0.2,0.5
					c-0.2,0.2-0.5,0.4-0.8,0.5s-0.7,0.2-1.1,0.2c-0.8,0-1.4-0.2-1.8-0.7s-0.7-1.1-0.7-1.9c0-0.5,0.1-1,0.3-1.4
					c0.2-0.4,0.5-0.7,0.8-0.9c0.4-0.2,0.8-0.3,1.2-0.3c0.7,0,1.2,0.2,1.5,0.6c0.4,0.4,0.6,1,0.6,1.8v0.1H164.5z M165.1,221.7
					c-0.3,0.3-0.5,0.7-0.5,1.2h3.2c0-0.5-0.2-0.9-0.5-1.2c-0.3-0.3-0.6-0.4-1.1-0.4C165.7,221.3,165.4,221.4,165.1,221.7z"/>
				<path class="st9" d="M177.1,220.9l-1.8,5h-0.6l-1.5-4.2l-1.5,4.2h-0.6l-1.8-5h0.7l1.5,4.3l1.6-4.3h0.6l1.5,4.3l1.5-4.3H177.1z"
					/>
				<path class="st9" d="M181.7,225.7c-0.4-0.2-0.6-0.5-0.8-0.9s-0.3-0.9-0.3-1.4s0.1-1,0.3-1.4s0.5-0.7,0.8-0.9
					c0.4-0.2,0.8-0.3,1.2-0.3c0.5,0,0.9,0.1,1.2,0.3c0.3,0.2,0.6,0.5,0.8,0.9c0.2,0.4,0.3,0.9,0.3,1.4s-0.1,1-0.3,1.4
					c-0.2,0.4-0.5,0.7-0.8,0.9c-0.3,0.2-0.7,0.3-1.2,0.3C182.5,226,182.1,225.9,181.7,225.7z M184.2,224.9c0.3-0.4,0.4-0.9,0.4-1.5
					c0-0.7-0.1-1.2-0.4-1.5c-0.3-0.4-0.7-0.5-1.2-0.5c-0.5,0-0.9,0.2-1.2,0.5c-0.3,0.4-0.4,0.9-0.4,1.5c0,0.7,0.1,1.2,0.4,1.5
					c0.3,0.4,0.7,0.5,1.2,0.5S183.9,225.3,184.2,224.9z"/>
				<path class="st9" d="M187.7,219.3c-0.2,0.2-0.2,0.4-0.2,0.8v0.8h1.3v0.5h-1.3v4.5h-0.6v-4.5h-1v-0.5h1V220
					c0-0.5,0.1-0.9,0.4-1.1c0.2-0.2,0.6-0.4,1-0.4c0.2,0,0.4,0,0.6,0.1v0.6c-0.2-0.1-0.4-0.1-0.5-0.1
					C188.1,219.1,187.9,219.1,187.7,219.3z"/>
				<path class="st9" d="M198.1,225.9h-0.6l-0.9-2.4c-0.1-0.3-0.3-0.5-0.5-0.6s-0.5-0.2-0.9-0.2h-2v3.2h-0.6v-7.1h2.8
					c0.7,0,1.3,0.2,1.7,0.5s0.6,0.8,0.6,1.5c0,0.5-0.1,0.8-0.4,1.2s-0.6,0.5-1,0.7c0.2,0,0.4,0.1,0.5,0.3c0.1,0.1,0.3,0.3,0.4,0.6
					L198.1,225.9z M195.3,222.2c1.2,0,1.8-0.5,1.8-1.5c0-0.9-0.6-1.4-1.8-1.4h-2.1v2.9H195.3z"/>
				<path class="st9" d="M204.2,224h-3.9l-0.8,1.9h-0.6l3.1-7.1h0.6l3.1,7.1H205L204.2,224z M203.9,223.5l-1.7-3.9l-1.7,3.9H203.9z"
					/>
				<path class="st9" d="M212.4,225.9h-0.6l-0.9-2.4c-0.1-0.3-0.3-0.5-0.5-0.6c-0.2-0.1-0.5-0.2-0.9-0.2h-2v3.2h-0.6v-7.1h2.8
					c0.7,0,1.3,0.2,1.7,0.5s0.6,0.8,0.6,1.5c0,0.5-0.1,0.8-0.4,1.2c-0.2,0.3-0.6,0.5-1,0.7c0.2,0,0.4,0.1,0.5,0.3
					c0.1,0.1,0.3,0.3,0.4,0.6L212.4,225.9z M209.6,222.2c1.2,0,1.8-0.5,1.8-1.5c0-0.9-0.6-1.4-1.8-1.4h-2.1v2.9H209.6z"/>
				<g>
					<path class="st1" d="M51.8,243.6c-0.3-0.2-0.5-0.4-0.7-0.7c-0.2-0.3-0.3-0.6-0.3-0.9c0-0.3,0.1-0.6,0.2-0.9
						c0.2-0.3,0.4-0.5,0.7-0.7c0.3-0.2,0.6-0.3,0.9-0.3c0.3,0,0.6,0.1,0.9,0.2c0.3,0.2,0.5,0.4,0.7,0.6c0.2,0.3,0.3,0.6,0.3,0.9
						c0,0.3-0.1,0.6-0.2,0.9c-0.2,0.3-0.4,0.5-0.7,0.7c-0.3,0.2-0.6,0.2-0.9,0.2C52.4,243.9,52.1,243.8,51.8,243.6z"/>
					<path class="st1" d="M52.7,244c-0.3,0-0.7-0.1-1-0.3l0,0c-0.3-0.2-0.5-0.4-0.7-0.7c-0.2-0.3-0.3-0.6-0.3-1
						c0-0.3,0.1-0.6,0.3-0.9c0.2-0.3,0.4-0.5,0.7-0.7c0.6-0.3,1.3-0.4,2,0c0.3,0.2,0.5,0.4,0.7,0.7c0.2,0.3,0.3,0.6,0.3,1
						c0,0.3-0.1,0.7-0.3,1c-0.2,0.3-0.4,0.5-0.7,0.7C53.4,243.9,53.1,244,52.7,244z M51.9,243.5c0.5,0.3,1.2,0.3,1.7,0
						c0.3-0.2,0.5-0.4,0.6-0.6c0.2-0.3,0.2-0.5,0.2-0.8c0-0.3-0.1-0.6-0.2-0.8c-0.2-0.3-0.4-0.5-0.6-0.6c-0.5-0.3-1.2-0.3-1.7,0
						c-0.3,0.2-0.5,0.4-0.6,0.6c-0.1,0.3-0.2,0.5-0.2,0.8c0,0.3,0.1,0.6,0.2,0.8C51.4,243.2,51.6,243.4,51.9,243.5L51.9,243.5z"/>
				</g>
				<path class="st9" d="M75.3,244.8h-0.6l-0.9-2.4c-0.1-0.3-0.3-0.5-0.5-0.6s-0.5-0.2-0.9-0.2h-2v3.2h-0.6v-7.1h2.8
					c0.7,0,1.3,0.2,1.7,0.5s0.6,0.8,0.6,1.5c0,0.5-0.1,0.8-0.4,1.2c-0.2,0.3-0.6,0.5-1,0.7c0.2,0,0.4,0.1,0.5,0.3
					c0.1,0.1,0.3,0.3,0.4,0.6L75.3,244.8z M72.5,241c1.2,0,1.8-0.5,1.8-1.5c0-0.9-0.6-1.4-1.8-1.4h-2.1v2.9H72.5z"/>
				<path class="st9" d="M77,242.2L77,242.2c0,0.7,0.2,1.2,0.5,1.6c0.3,0.4,0.8,0.5,1.4,0.5c0.6,0,1.2-0.2,1.7-0.6l0.2,0.5
					c-0.2,0.2-0.5,0.4-0.8,0.5c-0.3,0.1-0.7,0.2-1.1,0.2c-0.8,0-1.4-0.2-1.8-0.7c-0.4-0.5-0.7-1.1-0.7-1.9c0-0.5,0.1-1,0.3-1.4
					c0.2-0.4,0.5-0.7,0.8-0.9c0.4-0.2,0.8-0.3,1.2-0.3c0.7,0,1.2,0.2,1.6,0.6c0.4,0.4,0.6,1,0.6,1.8v0.1H77z M77.6,240.5
					c-0.3,0.3-0.5,0.7-0.5,1.2h3.2c0-0.5-0.2-0.9-0.5-1.2c-0.3-0.3-0.6-0.4-1.1-0.4C78.3,240.1,77.9,240.3,77.6,240.5z"/>
				<path class="st9" d="M89.3,241.6v3.2h-0.6v-3.2c0-0.5-0.1-0.9-0.3-1.1c-0.2-0.2-0.5-0.3-0.9-0.3c-0.5,0-0.8,0.2-1.1,0.5
					c-0.3,0.3-0.4,0.7-0.4,1.3v2.9h-0.6v-3.2c0-0.5-0.1-0.9-0.3-1.1c-0.2-0.2-0.5-0.3-0.9-0.3c-0.5,0-0.8,0.2-1.1,0.5
					c-0.3,0.3-0.4,0.7-0.4,1.3v2.9h-0.6v-3.6c0-0.5,0-1-0.1-1.4h0.6l0.1,0.9c0.1-0.3,0.3-0.6,0.6-0.8c0.3-0.2,0.6-0.3,1-0.3
					c0.8,0,1.3,0.3,1.6,1c0.1-0.3,0.4-0.5,0.7-0.7c0.3-0.2,0.6-0.3,1-0.3C88.7,239.6,89.3,240.3,89.3,241.6z"/>
				<path class="st9" d="M91.3,242.2L91.3,242.2c0,0.7,0.2,1.2,0.5,1.6c0.3,0.4,0.8,0.5,1.4,0.5c0.6,0,1.2-0.2,1.7-0.6l0.2,0.5
					c-0.2,0.2-0.5,0.4-0.8,0.5c-0.3,0.1-0.7,0.2-1.1,0.2c-0.8,0-1.4-0.2-1.8-0.7c-0.4-0.5-0.7-1.1-0.7-1.9c0-0.5,0.1-1,0.3-1.4
					c0.2-0.4,0.5-0.7,0.8-0.9c0.4-0.2,0.8-0.3,1.2-0.3c0.7,0,1.2,0.2,1.6,0.6c0.4,0.4,0.6,1,0.6,1.8v0.1H91.3z M91.9,240.5
					c-0.3,0.3-0.5,0.7-0.5,1.2h3.2c0-0.5-0.2-0.9-0.5-1.2c-0.3-0.3-0.6-0.4-1.1-0.4C92.5,240.1,92.1,240.3,91.9,240.5z"/>
				<path class="st9" d="M100.7,237.4v7.4h-0.6v-1c-0.1,0.3-0.4,0.6-0.7,0.8c-0.3,0.2-0.7,0.3-1.1,0.3c-0.4,0-0.8-0.1-1.2-0.3
					s-0.6-0.5-0.8-0.9c-0.2-0.4-0.3-0.9-0.3-1.4c0-0.5,0.1-1,0.3-1.4c0.2-0.4,0.4-0.7,0.8-0.9c0.3-0.2,0.7-0.3,1.2-0.3
					c0.4,0,0.8,0.1,1.1,0.3c0.3,0.2,0.5,0.4,0.7,0.8v-3.3H100.7z M99.7,243.8c0.3-0.4,0.4-0.9,0.4-1.5c0-0.7-0.1-1.2-0.4-1.5
					c-0.3-0.4-0.7-0.5-1.2-0.5c-0.5,0-1,0.2-1.2,0.5s-0.4,0.9-0.4,1.5c0,0.7,0.1,1.2,0.4,1.5s0.7,0.6,1.2,0.6
					C99,244.3,99.4,244.1,99.7,243.8z"/>
				<path class="st9" d="M103.2,237.7v0.8h-0.8v-0.8H103.2z M102.4,239.7h0.6v5h-0.6V239.7z"/>
				<path class="st9" d="M109,239.7v5h-0.6v-1c-0.1,0.3-0.4,0.6-0.7,0.8c-0.3,0.2-0.7,0.3-1.1,0.3c-0.4,0-0.8-0.1-1.2-0.3
					c-0.3-0.2-0.6-0.5-0.8-0.9c-0.2-0.4-0.3-0.8-0.3-1.4c0-0.5,0.1-1,0.3-1.4c0.2-0.4,0.4-0.7,0.8-0.9c0.3-0.2,0.7-0.3,1.2-0.3
					c0.4,0,0.8,0.1,1.1,0.3c0.3,0.2,0.5,0.4,0.7,0.8v-0.9H109z M108,243.8c0.3-0.4,0.4-0.9,0.4-1.5c0-0.7-0.1-1.2-0.4-1.5
					c-0.3-0.4-0.7-0.5-1.2-0.5c-0.5,0-0.9,0.2-1.2,0.6s-0.4,0.9-0.4,1.5c0,0.6,0.1,1.2,0.4,1.5c0.3,0.4,0.7,0.5,1.2,0.5
					C107.3,244.3,107.7,244.1,108,243.8z"/>
				<path class="st9" d="M111.6,240.2v3c0,0.4,0.1,0.7,0.2,0.8c0.2,0.2,0.4,0.2,0.7,0.2c0.2,0,0.4,0,0.5-0.1v0.6
					c-0.2,0.1-0.4,0.1-0.7,0.1c-0.4,0-0.8-0.1-1-0.4c-0.3-0.2-0.4-0.6-0.4-1.1v-3.1h-1v-0.5h1v-1.3l0.6-0.2v1.6h1.5v0.5H111.6z"/>
				<path class="st9" d="M114.9,237.7v0.8h-0.8v-0.8H114.9z M114.2,239.7h0.6v5h-0.6V239.7z"/>
				<path class="st9" d="M117.3,244.5c-0.4-0.2-0.6-0.5-0.8-0.9c-0.2-0.4-0.3-0.9-0.3-1.4s0.1-1,0.3-1.4c0.2-0.4,0.5-0.7,0.8-0.9
					c0.4-0.2,0.8-0.3,1.2-0.3c0.5,0,0.9,0.1,1.2,0.3c0.3,0.2,0.6,0.5,0.8,0.9c0.2,0.4,0.3,0.9,0.3,1.4s-0.1,1-0.3,1.4
					c-0.2,0.4-0.5,0.7-0.8,0.9c-0.3,0.2-0.7,0.3-1.2,0.3C118.1,244.8,117.7,244.7,117.3,244.5z M119.8,243.8
					c0.3-0.4,0.4-0.9,0.4-1.5c0-0.7-0.1-1.2-0.4-1.5c-0.3-0.4-0.7-0.5-1.2-0.5c-0.5,0-0.9,0.2-1.2,0.5c-0.3,0.4-0.4,0.9-0.4,1.5
					c0,0.7,0.1,1.2,0.4,1.5c0.3,0.4,0.7,0.5,1.2,0.5C119.1,244.3,119.5,244.1,119.8,243.8z"/>
				<path class="st9" d="M126.4,241.6v3.2h-0.6v-3.2c0-0.5-0.1-0.9-0.3-1.1c-0.2-0.2-0.5-0.4-1-0.4c-0.5,0-0.9,0.2-1.2,0.5
					c-0.3,0.3-0.5,0.7-0.5,1.2v2.9h-0.6v-3.6c0-0.5,0-1-0.1-1.4h0.6l0.1,0.9c0.2-0.3,0.4-0.6,0.7-0.8c0.3-0.2,0.7-0.3,1.1-0.3
					C125.8,239.6,126.4,240.3,126.4,241.6z"/>
				<path class="st9" d="M131.2,244.4c-0.2-0.7-0.3-1.5-0.3-2.3c0-0.8,0.1-1.5,0.3-2.3c0.2-0.7,0.4-1.5,0.8-2.2h0.5
					c-0.4,0.8-0.6,1.6-0.8,2.3s-0.2,1.4-0.2,2.2c0,0.7,0.1,1.4,0.2,2.2c0.2,0.7,0.4,1.5,0.8,2.3H132
					C131.6,245.8,131.3,245.1,131.2,244.4z"/>
				<path class="st9" d="M134.5,237.7v0.8h-0.8v-0.8H134.5z M133.7,239.7h0.6v5h-0.6V239.7z"/>
				<path class="st9" d="M137.2,238.1c-0.2,0.2-0.2,0.4-0.2,0.8v0.8h1.3v0.5h-1.3v4.5h-0.6v-4.5h-1v-0.5h1v-0.9
					c0-0.5,0.1-0.9,0.4-1.1c0.2-0.2,0.6-0.4,1-0.4c0.2,0,0.4,0,0.6,0.1v0.6c-0.2-0.1-0.4-0.1-0.5-0.1
					C137.5,237.9,137.3,238,137.2,238.1z"/>
				<path class="st9" d="M146.1,241.6v3.2h-0.6v-3.2c0-0.5-0.1-0.9-0.3-1.1c-0.2-0.2-0.5-0.4-1-0.4c-0.5,0-0.9,0.2-1.2,0.5
					c-0.3,0.3-0.5,0.7-0.5,1.2v2.9H142v-3.6c0-0.5,0-1-0.1-1.4h0.6l0.1,0.9c0.2-0.3,0.4-0.6,0.7-0.8c0.3-0.2,0.7-0.3,1.1-0.3
					C145.5,239.6,146.1,240.3,146.1,241.6z"/>
				<path class="st9" d="M148.2,242.2L148.2,242.2c0,0.7,0.2,1.2,0.5,1.6c0.3,0.4,0.8,0.5,1.4,0.5c0.6,0,1.2-0.2,1.7-0.6l0.2,0.5
					c-0.2,0.2-0.5,0.4-0.8,0.5c-0.3,0.1-0.7,0.2-1.1,0.2c-0.8,0-1.4-0.2-1.8-0.7c-0.4-0.5-0.7-1.1-0.7-1.9c0-0.5,0.1-1,0.3-1.4
					c0.2-0.4,0.5-0.7,0.8-0.9c0.4-0.2,0.8-0.3,1.2-0.3c0.7,0,1.2,0.2,1.6,0.6c0.4,0.4,0.6,1,0.6,1.8v0.1H148.2z M148.7,240.5
					c-0.3,0.3-0.5,0.7-0.5,1.2h3.2c0-0.5-0.2-0.9-0.5-1.2c-0.3-0.3-0.6-0.4-1.1-0.4C149.4,240.1,149,240.3,148.7,240.5z"/>
				<path class="st9" d="M153.7,242.2L153.7,242.2c0,0.7,0.2,1.2,0.5,1.6c0.3,0.4,0.8,0.5,1.4,0.5c0.6,0,1.2-0.2,1.7-0.6l0.2,0.5
					c-0.2,0.2-0.5,0.4-0.8,0.5c-0.3,0.1-0.7,0.2-1.1,0.2c-0.8,0-1.4-0.2-1.8-0.7c-0.4-0.5-0.7-1.1-0.7-1.9c0-0.5,0.1-1,0.3-1.4
					c0.2-0.4,0.5-0.7,0.8-0.9c0.4-0.2,0.8-0.3,1.2-0.3c0.7,0,1.2,0.2,1.6,0.6c0.4,0.4,0.6,1,0.6,1.8v0.1H153.7z M154.2,240.5
					c-0.3,0.3-0.5,0.7-0.5,1.2h3.2c0-0.5-0.2-0.9-0.5-1.2c-0.3-0.3-0.6-0.4-1.1-0.4C154.9,240.1,154.5,240.3,154.2,240.5z"/>
				<path class="st9" d="M163.1,237.4v7.4h-0.6v-1c-0.1,0.3-0.4,0.6-0.7,0.8c-0.3,0.2-0.7,0.3-1.1,0.3c-0.4,0-0.8-0.1-1.2-0.3
					s-0.6-0.5-0.8-0.9c-0.2-0.4-0.3-0.9-0.3-1.4c0-0.5,0.1-1,0.3-1.4c0.2-0.4,0.4-0.7,0.8-0.9c0.3-0.2,0.7-0.3,1.2-0.3
					c0.4,0,0.8,0.1,1.1,0.3c0.3,0.2,0.5,0.4,0.7,0.8v-3.3H163.1z M162.1,243.8c0.3-0.4,0.4-0.9,0.4-1.5c0-0.7-0.1-1.2-0.4-1.5
					c-0.3-0.4-0.7-0.5-1.2-0.5c-0.5,0-1,0.2-1.2,0.5s-0.4,0.9-0.4,1.5c0,0.7,0.1,1.2,0.4,1.5s0.7,0.6,1.2,0.6
					C161.4,244.3,161.8,244.1,162.1,243.8z"/>
				<path class="st9" d="M165.1,242.2L165.1,242.2c0,0.7,0.2,1.2,0.5,1.6c0.3,0.4,0.8,0.5,1.4,0.5c0.6,0,1.2-0.2,1.7-0.6l0.2,0.5
					c-0.2,0.2-0.5,0.4-0.8,0.5c-0.3,0.1-0.7,0.2-1.1,0.2c-0.8,0-1.4-0.2-1.8-0.7c-0.4-0.5-0.7-1.1-0.7-1.9c0-0.5,0.1-1,0.3-1.4
					c0.2-0.4,0.5-0.7,0.8-0.9c0.4-0.2,0.8-0.3,1.2-0.3c0.7,0,1.2,0.2,1.5,0.6c0.4,0.4,0.6,1,0.6,1.8v0.1H165.1z M165.7,240.5
					c-0.3,0.3-0.5,0.7-0.5,1.2h3.2c0-0.5-0.2-0.9-0.5-1.2c-0.3-0.3-0.6-0.4-1.1-0.4C166.4,240.1,166,240.3,165.7,240.5z"/>
				<path class="st9" d="M174.6,237.4v7.4H174v-1c-0.1,0.3-0.4,0.6-0.7,0.8c-0.3,0.2-0.7,0.3-1.1,0.3c-0.4,0-0.8-0.1-1.2-0.3
					s-0.6-0.5-0.8-0.9c-0.2-0.4-0.3-0.9-0.3-1.4c0-0.5,0.1-1,0.3-1.4c0.2-0.4,0.4-0.7,0.8-0.9s0.7-0.3,1.2-0.3
					c0.4,0,0.8,0.1,1.1,0.3c0.3,0.2,0.5,0.4,0.7,0.8v-3.3H174.6z M173.5,243.8c0.3-0.4,0.4-0.9,0.4-1.5c0-0.7-0.1-1.2-0.4-1.5
					c-0.3-0.4-0.7-0.5-1.2-0.5c-0.5,0-0.9,0.2-1.2,0.5s-0.4,0.9-0.4,1.5c0,0.7,0.1,1.2,0.4,1.5s0.7,0.6,1.2,0.6
					C172.8,244.3,173.3,244.1,173.5,243.8z"/>
				<path class="st9" d="M175.8,246.6c0.3-0.8,0.6-1.6,0.7-2.3c0.2-0.7,0.2-1.5,0.2-2.2c0-0.7-0.1-1.4-0.2-2.2s-0.4-1.5-0.8-2.3h0.5
					c0.4,0.7,0.6,1.5,0.8,2.2c0.2,0.7,0.3,1.5,0.3,2.3c0,0.8-0.1,1.5-0.3,2.3c-0.2,0.7-0.4,1.5-0.8,2.2H175.8z"/>
				<path class="st9" d="M69.8,256.4h4.3v0.5h-3.7v2.7h3.5v0.6h-3.5v3.4h-0.6V256.4z"/>
				<path class="st9" d="M75.6,261L75.6,261c0,0.7,0.2,1.2,0.5,1.6c0.3,0.4,0.8,0.5,1.4,0.5c0.6,0,1.2-0.2,1.7-0.6l0.2,0.5
					c-0.2,0.2-0.5,0.4-0.8,0.5c-0.3,0.1-0.7,0.2-1.1,0.2c-0.8,0-1.4-0.2-1.8-0.7c-0.4-0.5-0.7-1.1-0.7-1.9c0-0.5,0.1-1,0.3-1.4
					c0.2-0.4,0.5-0.7,0.8-0.9c0.4-0.2,0.8-0.3,1.2-0.3c0.7,0,1.2,0.2,1.6,0.6c0.4,0.4,0.6,1,0.6,1.8v0.1H75.6z M76.2,259.4
					c-0.3,0.3-0.5,0.7-0.5,1.2h3.2c0-0.5-0.2-0.9-0.5-1.2c-0.3-0.3-0.6-0.4-1.1-0.4C76.8,258.9,76.5,259.1,76.2,259.4z"/>
				<path class="st9" d="M85,256.2v7.4h-0.6v-1c-0.1,0.3-0.4,0.6-0.7,0.8c-0.3,0.2-0.7,0.3-1.1,0.3c-0.4,0-0.8-0.1-1.2-0.3
					s-0.6-0.5-0.8-0.9c-0.2-0.4-0.3-0.9-0.3-1.4c0-0.5,0.1-1,0.3-1.4c0.2-0.4,0.4-0.7,0.8-0.9c0.3-0.2,0.7-0.3,1.2-0.3
					c0.4,0,0.8,0.1,1.1,0.3c0.3,0.2,0.5,0.4,0.7,0.8v-3.3H85z M84,262.6c0.3-0.4,0.4-0.9,0.4-1.5c0-0.7-0.1-1.2-0.4-1.5
					c-0.3-0.4-0.7-0.5-1.2-0.5c-0.5,0-1,0.2-1.2,0.5s-0.4,0.9-0.4,1.5c0,0.7,0.1,1.2,0.4,1.5s0.7,0.6,1.2,0.6
					C83.3,263.1,83.7,262.9,84,262.6z"/>
				<path class="st9" d="M92.4,263.6h-0.6l-0.9-2.4c-0.1-0.3-0.3-0.5-0.5-0.6s-0.5-0.2-0.9-0.2h-2v3.2h-0.6v-7.1h2.8
					c0.7,0,1.3,0.2,1.7,0.5s0.6,0.8,0.6,1.5c0,0.5-0.1,0.8-0.4,1.2c-0.2,0.3-0.6,0.5-1,0.7c0.2,0,0.4,0.1,0.5,0.3
					c0.1,0.1,0.3,0.3,0.4,0.6L92.4,263.6z M89.6,259.8c1.2,0,1.8-0.5,1.8-1.5c0-0.9-0.6-1.4-1.8-1.4h-2.1v2.9H89.6z"/>
				<path class="st9" d="M98.4,261.7h-3.9l-0.8,1.9h-0.6l3.1-7.1h0.6l3.1,7.1h-0.6L98.4,261.7z M98.2,261.1l-1.7-3.9l-1.7,3.9H98.2z
					"/>
				<path class="st9" d="M107.8,256.4v7.1h-0.6v-5.7l-2.5,5.7h-0.5l-2.5-5.7l0,5.7h-0.6v-7.1h0.5l2.8,6.4l2.8-6.4H107.8z"/>
				<path class="st9" d="M109.7,256.4h2.7c0.7,0,1.3,0.2,1.7,0.5c0.4,0.3,0.6,0.8,0.6,1.4c0,0.6-0.2,1.1-0.6,1.5s-1,0.5-1.7,0.5
					h-2.1v3.2h-0.6V256.4z M112.4,259.8c0.6,0,1-0.1,1.3-0.4c0.3-0.2,0.4-0.6,0.4-1.1c0-0.5-0.1-0.8-0.4-1.1
					c-0.3-0.2-0.7-0.4-1.3-0.4h-2.1v2.9H112.4z"/>
				<path class="st9" d="M125.5,256.4v7.1h-0.6v-5.7l-2.5,5.7h-0.5l-2.5-5.7l0,5.7h-0.6v-7.1h0.5l2.8,6.4l2.8-6.4H125.5z"/>
				<path class="st9" d="M131.5,258.6v5h-0.6v-1c-0.1,0.3-0.4,0.6-0.7,0.8c-0.3,0.2-0.7,0.3-1.1,0.3c-0.4,0-0.8-0.1-1.2-0.3
					c-0.3-0.2-0.6-0.5-0.8-0.9c-0.2-0.4-0.3-0.8-0.3-1.4c0-0.5,0.1-1,0.3-1.4c0.2-0.4,0.4-0.7,0.8-0.9c0.3-0.2,0.7-0.3,1.2-0.3
					c0.4,0,0.8,0.1,1.1,0.3c0.3,0.2,0.5,0.4,0.7,0.8v-0.9H131.5z M130.5,262.6c0.3-0.4,0.4-0.9,0.4-1.5c0-0.7-0.1-1.2-0.4-1.5
					c-0.3-0.4-0.7-0.5-1.2-0.5c-0.5,0-0.9,0.2-1.2,0.6s-0.4,0.9-0.4,1.5c0,0.6,0.1,1.2,0.4,1.5c0.3,0.4,0.7,0.5,1.2,0.5
					C129.8,263.1,130.2,262.9,130.5,262.6z"/>
				<path class="st9" d="M135.8,258.5l0,0.6c-0.1,0-0.3,0-0.5,0c-0.5,0-0.9,0.2-1.1,0.5c-0.3,0.3-0.4,0.7-0.4,1.2v3h-0.6v-3.6
					c0-0.5,0-1-0.1-1.4h0.6l0.1,0.9c0.1-0.3,0.3-0.6,0.6-0.8c0.3-0.2,0.6-0.3,1-0.3C135.6,258.4,135.7,258.4,135.8,258.5z"/>
				<path class="st9" d="M140.2,263.6l-2.8-2.4v2.4h-0.6v-7.4h0.6v4.7l2.5-2.3h0.8l-2.6,2.4l2.9,2.6H140.2z"/>
				<path class="st9" d="M142.1,261L142.1,261c0,0.7,0.2,1.2,0.5,1.6c0.3,0.4,0.8,0.5,1.4,0.5c0.6,0,1.2-0.2,1.7-0.6l0.2,0.5
					c-0.2,0.2-0.5,0.4-0.8,0.5c-0.3,0.1-0.7,0.2-1.1,0.2c-0.8,0-1.4-0.2-1.8-0.7c-0.4-0.5-0.7-1.1-0.7-1.9c0-0.5,0.1-1,0.3-1.4
					c0.2-0.4,0.5-0.7,0.8-0.9c0.4-0.2,0.8-0.3,1.2-0.3c0.7,0,1.2,0.2,1.6,0.6c0.4,0.4,0.6,1,0.6,1.8v0.1H142.1z M142.6,259.4
					c-0.3,0.3-0.5,0.7-0.5,1.2h3.2c0-0.5-0.2-0.9-0.5-1.2c-0.3-0.3-0.6-0.4-1.1-0.4C143.3,258.9,142.9,259.1,142.6,259.4z"/>
				<path class="st9" d="M148.1,259v3c0,0.4,0.1,0.7,0.2,0.8c0.2,0.2,0.4,0.2,0.7,0.2c0.2,0,0.4,0,0.5-0.1v0.6
					c-0.2,0.1-0.4,0.1-0.7,0.1c-0.4,0-0.8-0.1-1-0.4c-0.3-0.2-0.4-0.6-0.4-1.1V259h-1v-0.5h1v-1.3l0.6-0.2v1.6h1.5v0.5H148.1z"/>
				<path class="st9" d="M154.2,258.8c0.3,0.2,0.6,0.5,0.8,0.9c0.2,0.4,0.3,0.9,0.3,1.4c0,0.5-0.1,1-0.3,1.4
					c-0.2,0.4-0.4,0.7-0.8,0.9s-0.7,0.3-1.2,0.3c-0.4,0-0.8-0.1-1.1-0.3c-0.3-0.2-0.5-0.4-0.7-0.8v3.2h-0.6v-5.8c0-0.5,0-1-0.1-1.4
					h0.6l0.1,1c0.1-0.4,0.4-0.6,0.7-0.8c0.3-0.2,0.7-0.3,1.1-0.3C153.5,258.4,153.8,258.5,154.2,258.8z M154.2,262.6
					c0.3-0.4,0.4-0.9,0.4-1.5c0-0.7-0.1-1.2-0.4-1.5s-0.7-0.6-1.2-0.6c-0.5,0-0.9,0.2-1.2,0.5s-0.4,0.9-0.4,1.5
					c0,0.7,0.1,1.2,0.4,1.5s0.7,0.5,1.2,0.5C153.5,263.1,153.9,262.9,154.2,262.6z"/>
				<path class="st9" d="M156.6,256.2h0.6v7.4h-0.6V256.2z"/>
				<path class="st9" d="M163.2,258.6v5h-0.6v-1c-0.1,0.3-0.4,0.6-0.7,0.8c-0.3,0.2-0.7,0.3-1.1,0.3c-0.4,0-0.8-0.1-1.2-0.3
					c-0.3-0.2-0.6-0.5-0.8-0.9c-0.2-0.4-0.3-0.8-0.3-1.4c0-0.5,0.1-1,0.3-1.4c0.2-0.4,0.4-0.7,0.8-0.9c0.3-0.2,0.7-0.3,1.2-0.3
					c0.4,0,0.8,0.1,1.1,0.3c0.3,0.2,0.5,0.4,0.7,0.8v-0.9H163.2z M162.2,262.6c0.3-0.4,0.4-0.9,0.4-1.5c0-0.7-0.1-1.2-0.4-1.5
					c-0.3-0.4-0.7-0.5-1.2-0.5c-0.5,0-0.9,0.2-1.2,0.6s-0.4,0.9-0.4,1.5c0,0.6,0.1,1.2,0.4,1.5c0.3,0.4,0.7,0.5,1.2,0.5
					C161.5,263.1,161.9,262.9,162.2,262.6z"/>
				<path class="st9" d="M165.8,263.3c-0.4-0.2-0.6-0.5-0.8-0.9c-0.2-0.4-0.3-0.8-0.3-1.4c0-0.5,0.1-1,0.3-1.4
					c0.2-0.4,0.5-0.7,0.8-0.9c0.4-0.2,0.8-0.3,1.3-0.3c0.3,0,0.7,0.1,1,0.2c0.3,0.1,0.6,0.3,0.8,0.5l-0.2,0.5
					c-0.3-0.2-0.5-0.4-0.7-0.5c-0.2-0.1-0.5-0.1-0.7-0.1c-0.5,0-1,0.2-1.3,0.6c-0.3,0.4-0.5,0.9-0.5,1.5c0,0.6,0.2,1.1,0.5,1.5
					c0.3,0.4,0.7,0.5,1.3,0.5c0.3,0,0.5,0,0.7-0.1c0.2-0.1,0.5-0.2,0.7-0.5l0.2,0.5c-0.2,0.2-0.5,0.4-0.8,0.5s-0.6,0.2-1,0.2
					C166.5,263.7,166.1,263.5,165.8,263.3z"/>
				<path class="st9" d="M170.3,261L170.3,261c0,0.7,0.2,1.2,0.5,1.6c0.3,0.4,0.8,0.5,1.4,0.5c0.6,0,1.2-0.2,1.7-0.6l0.2,0.5
					c-0.2,0.2-0.5,0.4-0.8,0.5c-0.3,0.1-0.7,0.2-1.1,0.2c-0.8,0-1.4-0.2-1.8-0.7c-0.4-0.5-0.7-1.1-0.7-1.9c0-0.5,0.1-1,0.3-1.4
					c0.2-0.4,0.5-0.7,0.8-0.9c0.4-0.2,0.8-0.3,1.2-0.3c0.7,0,1.2,0.2,1.6,0.6c0.4,0.4,0.6,1,0.6,1.8v0.1H170.3z M170.8,259.4
					c-0.3,0.3-0.5,0.7-0.5,1.2h3.2c0-0.5-0.2-0.9-0.5-1.2c-0.3-0.3-0.6-0.4-1.1-0.4C171.5,258.9,171.1,259.1,170.8,259.4z"/>
				<path class="st9" d="M180.7,256.4h2.3c1.1,0,2,0.3,2.6,0.9c0.6,0.6,0.9,1.5,0.9,2.6c0,1.1-0.3,2-0.9,2.6s-1.5,0.9-2.6,0.9h-2.3
					V256.4z M183,263c1,0,1.7-0.3,2.2-0.8s0.7-1.3,0.7-2.3c0-2-1-3-2.9-3h-1.6v6.1H183z"/>
				<path class="st9" d="M188.4,261L188.4,261c0,0.7,0.2,1.2,0.5,1.6c0.3,0.4,0.8,0.5,1.4,0.5c0.6,0,1.2-0.2,1.7-0.6l0.2,0.5
					c-0.2,0.2-0.5,0.4-0.8,0.5s-0.7,0.2-1.1,0.2c-0.8,0-1.4-0.2-1.8-0.7s-0.7-1.1-0.7-1.9c0-0.5,0.1-1,0.3-1.4
					c0.2-0.4,0.5-0.7,0.8-0.9c0.4-0.2,0.8-0.3,1.2-0.3c0.7,0,1.2,0.2,1.5,0.6c0.4,0.4,0.6,1,0.6,1.8v0.1H188.4z M189,259.4
					c-0.3,0.3-0.5,0.7-0.5,1.2h3.2c0-0.5-0.2-0.9-0.5-1.2c-0.3-0.3-0.6-0.4-1.1-0.4C189.7,258.9,189.3,259.1,189,259.4z"/>
				<path class="st9" d="M193.3,263l0.2-0.5c0.3,0.2,0.5,0.4,0.8,0.5c0.3,0.1,0.6,0.1,0.9,0.1c0.4,0,0.7-0.1,0.9-0.2
					c0.2-0.1,0.3-0.4,0.3-0.6c0-0.2-0.1-0.4-0.2-0.5c-0.1-0.1-0.4-0.2-0.7-0.3l-0.9-0.2c-0.4-0.1-0.7-0.3-0.9-0.5
					c-0.2-0.2-0.3-0.5-0.3-0.8c0-0.4,0.2-0.8,0.5-1.1s0.8-0.4,1.3-0.4c0.4,0,0.7,0.1,1,0.2c0.3,0.1,0.6,0.3,0.8,0.5l-0.2,0.5
					c-0.5-0.4-1-0.6-1.5-0.6c-0.4,0-0.7,0.1-0.9,0.2c-0.2,0.2-0.3,0.4-0.3,0.6c0,0.2,0.1,0.4,0.2,0.6s0.3,0.2,0.6,0.3l0.9,0.2
					c0.9,0.2,1.4,0.6,1.4,1.3c0,0.4-0.2,0.8-0.5,1c-0.3,0.3-0.8,0.4-1.4,0.4C194.4,263.7,193.8,263.4,193.3,263z"/>
				<path class="st9" d="M199.3,256.5v0.8h-0.8v-0.8H199.3z M198.6,258.6h0.6v5h-0.6V258.6z"/>
				<path class="st9" d="M205.3,258.6v5c0,0.7-0.2,1.3-0.5,1.7s-0.9,0.6-1.6,0.6c-0.7,0-1.4-0.2-2-0.5l0.1-0.5
					c0.3,0.2,0.6,0.3,0.9,0.4c0.3,0.1,0.6,0.1,0.9,0.1c0.5,0,0.9-0.1,1.1-0.4c0.3-0.3,0.4-0.7,0.4-1.2v-1.3
					c-0.2,0.3-0.4,0.6-0.7,0.8c-0.3,0.2-0.7,0.3-1.1,0.3c-0.4,0-0.8-0.1-1.2-0.3c-0.3-0.2-0.6-0.5-0.8-0.9c-0.2-0.4-0.3-0.8-0.3-1.3
					c0-0.5,0.1-0.9,0.3-1.3c0.2-0.4,0.5-0.7,0.8-0.9c0.3-0.2,0.7-0.3,1.2-0.3c0.4,0,0.8,0.1,1.1,0.3c0.3,0.2,0.5,0.4,0.7,0.8v-0.9
					H205.3z M204.2,262.4c0.3-0.3,0.4-0.8,0.4-1.4c0-0.6-0.1-1.1-0.4-1.4c-0.3-0.4-0.7-0.5-1.2-0.5c-0.5,0-0.9,0.2-1.2,0.5
					c-0.3,0.4-0.5,0.8-0.5,1.4s0.2,1.1,0.5,1.4c0.3,0.3,0.7,0.5,1.2,0.5C203.5,262.9,203.9,262.7,204.2,262.4z"/>
				<path class="st9" d="M211.1,260.4v3.2h-0.6v-3.2c0-0.5-0.1-0.9-0.3-1.1c-0.2-0.2-0.5-0.4-1-0.4c-0.5,0-0.9,0.2-1.2,0.5
					c-0.3,0.3-0.5,0.7-0.5,1.2v2.9H207v-3.6c0-0.5,0-1-0.1-1.4h0.6l0.1,0.9c0.2-0.3,0.4-0.6,0.7-0.8c0.3-0.2,0.7-0.3,1.1-0.3
					C210.5,258.4,211.1,259.1,211.1,260.4z"/>
				<path class="st9" d="M217.1,258.6v5h-0.6v-1c-0.1,0.3-0.4,0.6-0.7,0.8c-0.3,0.2-0.7,0.3-1.1,0.3c-0.4,0-0.8-0.1-1.2-0.3
					c-0.3-0.2-0.6-0.5-0.8-0.9c-0.2-0.4-0.3-0.8-0.3-1.4c0-0.5,0.1-1,0.3-1.4c0.2-0.4,0.5-0.7,0.8-0.9c0.3-0.2,0.7-0.3,1.2-0.3
					c0.4,0,0.8,0.1,1.1,0.3c0.3,0.2,0.5,0.4,0.7,0.8v-0.9H217.1z M216.1,262.6c0.3-0.4,0.4-0.9,0.4-1.5c0-0.7-0.1-1.2-0.4-1.5
					s-0.7-0.5-1.2-0.5c-0.5,0-0.9,0.2-1.2,0.6c-0.3,0.4-0.4,0.9-0.4,1.5c0,0.6,0.1,1.2,0.4,1.5c0.3,0.4,0.7,0.5,1.2,0.5
					C215.4,263.1,215.8,262.9,216.1,262.6z"/>
				<path class="st9" d="M219.7,259v3c0,0.4,0.1,0.7,0.2,0.8c0.2,0.2,0.4,0.2,0.7,0.2c0.2,0,0.4,0,0.5-0.1v0.6
					c-0.2,0.1-0.4,0.1-0.7,0.1c-0.4,0-0.8-0.1-1-0.4c-0.2-0.2-0.4-0.6-0.4-1.1V259h-1v-0.5h1v-1.3l0.6-0.2v1.6h1.5v0.5H219.7z"/>
				<path class="st9" d="M223,256.5v0.8h-0.8v-0.8H223z M222.2,258.6h0.6v5h-0.6V258.6z"/>
				<path class="st9" d="M225.4,263.3c-0.4-0.2-0.6-0.5-0.8-0.9s-0.3-0.9-0.3-1.4s0.1-1,0.3-1.4s0.5-0.7,0.8-0.9
					c0.4-0.2,0.8-0.3,1.2-0.3c0.5,0,0.9,0.1,1.2,0.3c0.3,0.2,0.6,0.5,0.8,0.9c0.2,0.4,0.3,0.9,0.3,1.4s-0.1,1-0.3,1.4
					c-0.2,0.4-0.5,0.7-0.8,0.9c-0.3,0.2-0.7,0.3-1.2,0.3C226.1,263.7,225.7,263.5,225.4,263.3z M227.8,262.6
					c0.3-0.4,0.4-0.9,0.4-1.5c0-0.7-0.1-1.2-0.4-1.5c-0.3-0.4-0.7-0.5-1.2-0.5c-0.5,0-0.9,0.2-1.2,0.5c-0.3,0.4-0.4,0.9-0.4,1.5
					c0,0.7,0.1,1.2,0.4,1.5c0.3,0.4,0.7,0.5,1.2,0.5S227.5,262.9,227.8,262.6z"/>
				<path class="st9" d="M234.4,260.4v3.2h-0.6v-3.2c0-0.5-0.1-0.9-0.3-1.1c-0.2-0.2-0.5-0.4-1-0.4c-0.5,0-0.9,0.2-1.2,0.5
					c-0.3,0.3-0.5,0.7-0.5,1.2v2.9h-0.6v-3.6c0-0.5,0-1-0.1-1.4h0.6l0.1,0.9c0.2-0.3,0.4-0.6,0.7-0.8c0.3-0.2,0.7-0.3,1.1-0.3
					C233.8,258.4,234.4,259.1,234.4,260.4z"/>
				<path class="st9" d="M238.7,260.6h2.8v0.5h-2.8V260.6z"/>
				<path class="st9" d="M251.2,263.6h-0.6l-0.9-2.4c-0.1-0.3-0.3-0.5-0.5-0.6s-0.5-0.2-0.9-0.2h-2v3.2h-0.6v-7.1h2.8
					c0.7,0,1.3,0.2,1.7,0.5s0.6,0.8,0.6,1.5c0,0.5-0.1,0.8-0.4,1.2c-0.2,0.3-0.6,0.5-1,0.7c0.2,0,0.4,0.1,0.5,0.3
					c0.1,0.1,0.3,0.3,0.4,0.6L251.2,263.6z M248.5,259.8c1.2,0,1.8-0.5,1.8-1.5c0-0.9-0.6-1.4-1.8-1.4h-2.1v2.9H248.5z"/>
				<path class="st9" d="M252.9,261L252.9,261c0,0.7,0.2,1.2,0.5,1.6c0.3,0.4,0.8,0.5,1.4,0.5c0.6,0,1.2-0.2,1.7-0.6l0.2,0.5
					c-0.2,0.2-0.5,0.4-0.8,0.5s-0.7,0.2-1.1,0.2c-0.8,0-1.4-0.2-1.8-0.7s-0.7-1.1-0.7-1.9c0-0.5,0.1-1,0.3-1.4
					c0.2-0.4,0.5-0.7,0.8-0.9c0.4-0.2,0.8-0.3,1.2-0.3c0.7,0,1.2,0.2,1.5,0.6c0.4,0.4,0.6,1,0.6,1.8v0.1H252.9z M253.5,259.4
					c-0.3,0.3-0.5,0.7-0.5,1.2h3.2c0-0.5-0.2-0.9-0.5-1.2c-0.3-0.3-0.6-0.4-1.1-0.4C254.2,258.9,253.8,259.1,253.5,259.4z"/>
				<path class="st9" d="M262.4,258.6v5h-0.6v-1c-0.1,0.3-0.4,0.6-0.7,0.8c-0.3,0.2-0.7,0.3-1.1,0.3c-0.4,0-0.8-0.1-1.2-0.3
					s-0.6-0.5-0.8-0.9c-0.2-0.4-0.3-0.8-0.3-1.4c0-0.5,0.1-1,0.3-1.4c0.2-0.4,0.4-0.7,0.8-0.9c0.3-0.2,0.7-0.3,1.2-0.3
					c0.4,0,0.8,0.1,1.1,0.3c0.3,0.2,0.5,0.4,0.7,0.8v-0.9H262.4z M261.3,262.6c0.3-0.4,0.4-0.9,0.4-1.5c0-0.7-0.1-1.2-0.4-1.5
					c-0.3-0.4-0.7-0.5-1.2-0.5c-0.5,0-0.9,0.2-1.2,0.6c-0.3,0.4-0.4,0.9-0.4,1.5c0,0.6,0.1,1.2,0.4,1.5c0.3,0.4,0.7,0.5,1.2,0.5
					C260.6,263.1,261,262.9,261.3,262.6z"/>
				<path class="st9" d="M268.3,256.2v7.4h-0.6v-1c-0.1,0.3-0.4,0.6-0.7,0.8c-0.3,0.2-0.7,0.3-1.1,0.3c-0.4,0-0.8-0.1-1.2-0.3
					s-0.6-0.5-0.8-0.9c-0.2-0.4-0.3-0.9-0.3-1.4c0-0.5,0.1-1,0.3-1.4c0.2-0.4,0.4-0.7,0.8-0.9s0.7-0.3,1.2-0.3
					c0.4,0,0.8,0.1,1.1,0.3c0.3,0.2,0.5,0.4,0.7,0.8v-3.3H268.3z M267.3,262.6c0.3-0.4,0.4-0.9,0.4-1.5c0-0.7-0.1-1.2-0.4-1.5
					c-0.3-0.4-0.7-0.5-1.2-0.5c-0.5,0-0.9,0.2-1.2,0.5s-0.4,0.9-0.4,1.5c0,0.7,0.1,1.2,0.4,1.5s0.7,0.6,1.2,0.6
					C266.6,263.1,267,262.9,267.3,262.6z"/>
				<path class="st9" d="M274.3,258.6l-2.4,5.5c-0.2,0.5-0.5,1-0.9,1.2c-0.4,0.3-0.8,0.4-1.3,0.5l-0.1-0.5c0.5-0.1,0.8-0.3,1.1-0.4
					c0.2-0.2,0.4-0.5,0.6-0.9l0.2-0.5l-2.1-5h0.7l1.8,4.4l1.8-4.4H274.3z"/>
			</g>
		</g>
		<g>
			<g>
				<path class="st1" d="M50.3,190.9l-1.7-2.4c-0.2,0-0.3,0-0.5,0h-2v2.4H45V183h3.1c2.1,0,3.3,1,3.3,2.8c0,1.2-0.6,2.1-1.7,2.5
					l1.9,2.7H50.3z M50.2,185.7c0-1.1-0.8-1.8-2.2-1.8h-1.9v3.6H48C49.5,187.5,50.2,186.9,50.2,185.7z"/>
				<path class="st1" d="M58.5,188.3h-4.9c0.1,1,1,1.8,2.2,1.8c0.7,0,1.3-0.2,1.7-0.7l0.6,0.7c-0.5,0.6-1.4,1-2.4,1
					c-1.9,0-3.2-1.3-3.2-3.1c0-1.8,1.3-3,3-3c1.7,0,3,1.2,3,3.1C58.5,188,58.5,188.2,58.5,188.3z M53.7,187.5h3.8
					c-0.1-1-0.9-1.7-1.9-1.7C54.5,185.8,53.8,186.5,53.7,187.5z"/>
				<path class="st1" d="M64.7,187.3v3.6h-1v-0.8c-0.4,0.5-1,0.9-2,0.9c-1.4,0-2.2-0.7-2.2-1.8c0-1,0.6-1.8,2.4-1.8h1.7v-0.2
					c0-0.9-0.5-1.4-1.6-1.4c-0.7,0-1.4,0.2-1.9,0.6l-0.5-0.8c0.6-0.5,1.5-0.8,2.5-0.8C63.8,184.8,64.7,185.6,64.7,187.3z
					 M63.6,189.1v-0.8H62c-1.1,0-1.4,0.4-1.4,0.9c0,0.6,0.5,1,1.3,1C62.7,190.1,63.4,189.7,63.6,189.1z"/>
				<path class="st1" d="M72.5,182.5v8.4h-1v-0.9c-0.5,0.7-1.3,1-2.1,1c-1.8,0-3-1.2-3-3.1s1.3-3,3-3c0.8,0,1.6,0.3,2.1,1v-3.3H72.5
					z M71.5,187.9c0-1.3-0.9-2.1-2-2.1c-1.2,0-2,0.8-2,2.1s0.9,2.1,2,2.1C70.6,190,71.5,189.2,71.5,187.9z"/>
				<path class="st1" d="M74.5,183.1c0-0.4,0.3-0.7,0.7-0.7c0.4,0,0.7,0.3,0.7,0.7c0,0.4-0.3,0.7-0.7,0.7
					C74.8,183.8,74.5,183.4,74.5,183.1z M74.7,184.9h1.1v6h-1.1V184.9z"/>
				<path class="st1" d="M83.6,187.4v3.4h-1.1v-3.3c0-1.2-0.6-1.8-1.6-1.8c-1.2,0-1.9,0.7-1.9,2v3.1H78v-6h1v0.9
					c0.4-0.6,1.2-1,2.2-1C82.6,184.8,83.6,185.7,83.6,187.4z"/>
				<path class="st1" d="M91.2,188.3h-4.9c0.1,1,1,1.8,2.2,1.8c0.7,0,1.3-0.2,1.7-0.7l0.6,0.7c-0.5,0.6-1.4,1-2.4,1
					c-1.9,0-3.2-1.3-3.2-3.1c0-1.8,1.3-3,3-3c1.7,0,3,1.2,3,3.1C91.2,188,91.2,188.2,91.2,188.3z M86.3,187.5h3.8
					c-0.1-1-0.9-1.7-1.9-1.7C87.2,185.8,86.4,186.5,86.3,187.5z"/>
				<path class="st1" d="M92.1,190.3l0.5-0.9c0.5,0.4,1.3,0.6,2.1,0.6c1,0,1.4-0.3,1.4-0.8c0-1.3-3.8-0.2-3.8-2.6
					c0-1.1,1-1.8,2.5-1.8c0.8,0,1.7,0.2,2.2,0.5l-0.5,0.9c-0.5-0.4-1.1-0.5-1.7-0.5c-0.9,0-1.4,0.4-1.4,0.8c0,1.4,3.8,0.3,3.8,2.6
					c0,1.1-1,1.8-2.6,1.8C93.5,191,92.6,190.7,92.1,190.3z"/>
				<path class="st1" d="M97.8,190.3l0.5-0.9c0.5,0.4,1.3,0.6,2.1,0.6c1,0,1.4-0.3,1.4-0.8c0-1.3-3.8-0.2-3.8-2.6
					c0-1.1,1-1.8,2.5-1.8c0.8,0,1.7,0.2,2.2,0.5l-0.5,0.9c-0.5-0.4-1.1-0.5-1.7-0.5c-0.9,0-1.4,0.4-1.4,0.8c0,1.4,3.8,0.3,3.8,2.6
					c0,1.1-1,1.8-2.6,1.8C99.3,191,98.3,190.7,97.8,190.3z"/>
				<path class="st1" d="M112.7,188.9h-4.2l-0.9,2h-1.2l3.6-7.9h1.1l3.6,7.9h-1.2L112.7,188.9z M112.3,188l-1.7-3.9l-1.7,3.9H112.3z
					"/>
				<path class="st1" d="M115.1,190.3l0.5-0.9c0.5,0.4,1.3,0.6,2.1,0.6c1,0,1.4-0.3,1.4-0.8c0-1.3-3.8-0.2-3.8-2.6
					c0-1.1,1-1.8,2.5-1.8c0.8,0,1.7,0.2,2.2,0.5l-0.5,0.9c-0.5-0.4-1.1-0.5-1.7-0.5c-0.9,0-1.4,0.4-1.4,0.8c0,1.4,3.8,0.3,3.8,2.6
					c0,1.1-1,1.8-2.6,1.8C116.5,191,115.6,190.7,115.1,190.3z"/>
				<path class="st1" d="M120.8,190.3l0.5-0.9c0.5,0.4,1.3,0.6,2.1,0.6c1,0,1.4-0.3,1.4-0.8c0-1.3-3.8-0.2-3.8-2.6
					c0-1.1,1-1.8,2.5-1.8c0.8,0,1.7,0.2,2.2,0.5l-0.5,0.9c-0.5-0.4-1.1-0.5-1.7-0.5c-0.9,0-1.4,0.4-1.4,0.8c0,1.4,3.8,0.3,3.8,2.6
					c0,1.1-1,1.8-2.6,1.8C122.3,191,121.3,190.7,120.8,190.3z"/>
				<path class="st1" d="M132.7,188.3h-4.9c0.1,1,1,1.8,2.2,1.8c0.7,0,1.3-0.2,1.7-0.7l0.6,0.7c-0.5,0.6-1.4,1-2.4,1
					c-1.9,0-3.2-1.3-3.2-3.1c0-1.8,1.3-3,3-3c1.7,0,3,1.2,3,3.1C132.8,188,132.8,188.2,132.7,188.3z M127.9,187.5h3.8
					c-0.1-1-0.9-1.7-1.9-1.7C128.8,185.8,128,186.5,127.9,187.5z"/>
				<path class="st1" d="M133.6,190.3l0.5-0.9c0.5,0.4,1.3,0.6,2.1,0.6c1,0,1.4-0.3,1.4-0.8c0-1.3-3.8-0.2-3.8-2.6
					c0-1.1,1-1.8,2.5-1.8c0.8,0,1.7,0.2,2.2,0.5l-0.5,0.9c-0.5-0.4-1.1-0.5-1.7-0.5c-0.9,0-1.4,0.4-1.4,0.8c0,1.4,3.8,0.3,3.8,2.6
					c0,1.1-1,1.8-2.6,1.8C135.1,191,134.1,190.7,133.6,190.3z"/>
				<path class="st1" d="M139.4,190.3l0.5-0.9c0.5,0.4,1.3,0.6,2.1,0.6c1,0,1.4-0.3,1.4-0.8c0-1.3-3.8-0.2-3.8-2.6
					c0-1.1,1-1.8,2.5-1.8c0.8,0,1.7,0.2,2.2,0.5l-0.5,0.9c-0.5-0.4-1.1-0.5-1.7-0.5c-0.9,0-1.4,0.4-1.4,0.8c0,1.4,3.8,0.3,3.8,2.6
					c0,1.1-1,1.8-2.6,1.8C140.9,191,139.9,190.7,139.4,190.3z"/>
				<path class="st1" d="M155.9,187.4v3.4h-1.1v-3.3c0-1.2-0.6-1.8-1.5-1.8c-1.1,0-1.8,0.7-1.8,2v3.1h-1.1v-3.3
					c0-1.2-0.6-1.8-1.5-1.8c-1.1,0-1.8,0.7-1.8,2v3.1h-1.1v-6h1v0.9c0.4-0.6,1.2-0.9,2.1-0.9c0.9,0,1.7,0.4,2.1,1.1
					c0.5-0.7,1.3-1.1,2.3-1.1C154.9,184.8,155.9,185.7,155.9,187.4z"/>
				<path class="st1" d="M163.4,188.3h-4.9c0.1,1,1,1.8,2.2,1.8c0.7,0,1.3-0.2,1.7-0.7l0.6,0.7c-0.5,0.6-1.4,1-2.4,1
					c-1.9,0-3.2-1.3-3.2-3.1c0-1.8,1.3-3,3-3c1.7,0,3,1.2,3,3.1C163.4,188,163.4,188.2,163.4,188.3z M158.5,187.5h3.8
					c-0.1-1-0.9-1.7-1.9-1.7C159.4,185.8,158.6,186.5,158.5,187.5z"/>
				<path class="st1" d="M170.7,187.4v3.4h-1.1v-3.3c0-1.2-0.6-1.8-1.6-1.8c-1.2,0-1.9,0.7-1.9,2v3.1H165v-6h1v0.9
					c0.4-0.6,1.2-1,2.2-1C169.7,184.8,170.7,185.7,170.7,187.4z"/>
				<path class="st1" d="M176.2,190.5c-0.3,0.3-0.8,0.4-1.3,0.4c-1.2,0-1.9-0.7-1.9-1.9v-3.3h-1v-0.9h1v-1.3h1.1v1.3h1.7v0.9h-1.7
					v3.2c0,0.6,0.3,1,0.9,1c0.3,0,0.6-0.1,0.8-0.3L176.2,190.5z"/>
				<path class="st9" d="M179.8,190.3c0-2.2,0.8-4.5,2-5.9h0.4c-1.2,1.5-2,3.9-2,6c0,0.8,0.1,1.5,0.4,2.2h-0.4
					C179.9,191.9,179.8,191.1,179.8,190.3z"/>
				<path class="st9" d="M185.4,186.3l-0.1,0.4c-0.1,0-0.1,0-0.1,0c-1,0-1.7,0.6-2,1.8l-0.5,2.4h-0.4l0.9-4.6h0.4l-0.2,1
					C183.9,186.6,184.5,186.3,185.4,186.3z"/>
				<path class="st9" d="M186.1,188.7c0,0.1,0,0.2,0,0.3c0,1,0.6,1.5,1.7,1.5c0.7,0,1.2-0.2,1.6-0.6l0.2,0.3
					c-0.4,0.4-1.1,0.7-1.8,0.7c-1.3,0-2.1-0.7-2.1-1.9c0-1.6,1.1-2.7,2.5-2.7c1.2,0,1.9,0.7,1.9,1.9c0,0.2,0,0.4-0.1,0.5H186.1z
					 M186.2,188.4h3.5c0-0.1,0-0.1,0-0.2c0-0.9-0.6-1.5-1.5-1.5C187.1,186.7,186.4,187.3,186.2,188.4z"/>
				<path class="st9" d="M196.1,186.3l-1.3,6.3h-0.4l0.5-2.6c-0.4,0.6-1.1,0.9-1.9,0.9c-1.2,0-2-0.7-2-1.9c0-1.6,1.1-2.7,2.6-2.7
					c1,0,1.6,0.4,1.8,1.2l0.2-1.2H196.1z M195.2,188.2c0-1-0.6-1.5-1.6-1.5c-1.2,0-2.1,1-2.1,2.3c0,1,0.6,1.5,1.6,1.5
					C194.3,190.5,195.2,189.6,195.2,188.2z"/>
				<path class="st9" d="M202,186.3l-0.9,4.6h-0.4l0.2-0.9c-0.4,0.6-1.1,0.9-1.9,0.9c-1,0-1.6-0.6-1.6-1.5c0-0.2,0-0.3,0.1-0.5
					l0.5-2.6h0.4l-0.5,2.6c0,0.2,0,0.3,0,0.4c0,0.7,0.4,1.1,1.3,1.1c1,0,1.8-0.6,2-1.7l0.5-2.5H202z"/>
				<path class="st9" d="M204,186.3h0.4l-0.9,4.6H203L204,186.3z M204.1,184.9c0-0.2,0.2-0.4,0.4-0.4c0.2,0,0.3,0.1,0.3,0.3
					c0,0.2-0.2,0.4-0.4,0.4C204.2,185.2,204.1,185,204.1,184.9z"/>
				<path class="st9" d="M208.5,186.3l-0.1,0.4c-0.1,0-0.1,0-0.1,0c-1,0-1.7,0.6-2,1.8l-0.5,2.4h-0.4l0.9-4.6h0.4l-0.2,1
					C207,186.6,207.6,186.3,208.5,186.3z"/>
				<path class="st9" d="M209.2,188.7c0,0.1,0,0.2,0,0.3c0,1,0.6,1.5,1.7,1.5c0.7,0,1.2-0.2,1.6-0.6l0.2,0.3
					c-0.4,0.4-1.1,0.7-1.8,0.7c-1.3,0-2.1-0.7-2.1-1.9c0-1.6,1.1-2.7,2.5-2.7c1.2,0,1.9,0.7,1.9,1.9c0,0.2,0,0.4-0.1,0.5H209.2z
					 M209.3,188.4h3.5c0-0.1,0-0.1,0-0.2c0-0.9-0.6-1.5-1.5-1.5C210.3,186.7,209.5,187.3,209.3,188.4z"/>
				<path class="st9" d="M219.6,184.4l-1.3,6.5h-0.4l0.2-0.9c-0.4,0.6-1.1,0.9-1.9,0.9c-1.2,0-2-0.7-2-1.9c0-1.6,1.1-2.7,2.6-2.7
					c1,0,1.6,0.4,1.8,1.2l0.6-3.1H219.6z M218.3,188.2c0-1-0.6-1.5-1.6-1.5c-1.2,0-2.2,1-2.2,2.3c0,1,0.6,1.5,1.6,1.5
					C217.4,190.5,218.3,189.6,218.3,188.2z"/>
				<path class="st9" d="M221.9,186.6c0-0.8-0.1-1.5-0.4-2.2h0.4c0.2,0.7,0.4,1.5,0.4,2.3c0,2.2-0.8,4.5-2,5.9h-0.4
					C221.1,191.1,221.9,188.7,221.9,186.6z"/>
			</g>
		</g>
		<rect x="52.4" y="202.7" class="st1" width="0.8" height="45"/>
		<g>
			<g id="g56755_3_" transform="matrix(14,0,0,14,49637.042,519374.88)">
				<path id="path56757_3_" class="st15" d="M-3541.2-37079.7c0,0.3-0.2,0.5-0.5,0.5l0,0c-0.3,0-0.5-0.2-0.5-0.5l0,0
					c0-0.3,0.2-0.5,0.5-0.5l0,0C-3541.4-37080.2-3541.2-37080-3541.2-37079.7L-3541.2-37079.7z"/>
			</g>
			<path id="path53460_3_" class="st16" d="M56.3,255.7c-2.1,1-3.2,3.1-4.2,5l-1.4-1.4c-0.7,0.5-1.5,1-2.2,1.4l5.9,5.9
				c3.3-0.7,5.7-3.6,5.9-6.9L56.3,255.7z"/>
			<path id="path38606_3_" class="st4" d="M50.7,259.3c0.4,0.6,0.8,1.3,1.1,2c1.1-2.1,2.2-4.5,4.5-5.7c-0.2,1-0.4,2.1,0,3.1
				c-2,1-3.2,2.8-4.4,4.7c-1.2-1.7-2.2-2.2-3.4-2.8C49.2,260.3,50,259.8,50.7,259.3L50.7,259.3z"/>
		</g>
	</g>
	<rect x="10" y="0" class="st7" width="300" height="306"/>
	<g>
		<polygon class="st1" points="10,298.3 0,285.2 10,285.2 		"/>
		<polygon class="st1" points="310,298.3 320,285.2 310,285.2 		"/>
		<rect x="10" y="278.1" class="st8" width="300" height="12.4"/>
	</g>
	<g>
		<rect x="0" y="192.3" class="st2" width="320" height="92.5"/>
		<g>
			<g>
				<path class="st9" d="M51.9,250.4c-0.5-0.2-1-0.5-1.4-0.9l0.3-0.6c0.4,0.4,0.9,0.7,1.3,0.8c0.4,0.2,1,0.2,1.6,0.2
					c0.7,0,1.3-0.2,1.7-0.5c0.4-0.3,0.6-0.7,0.6-1.3c0-0.3-0.1-0.6-0.3-0.8c-0.2-0.2-0.5-0.4-0.8-0.5c-0.3-0.1-0.7-0.2-1.2-0.3
					c-0.7-0.1-1.2-0.3-1.6-0.5c-0.4-0.2-0.8-0.4-1.1-0.7c-0.3-0.3-0.4-0.7-0.4-1.3c0-0.5,0.1-0.9,0.4-1.3c0.3-0.4,0.6-0.7,1.1-0.9
					s1-0.3,1.6-0.3c0.6,0,1.1,0.1,1.6,0.3c0.5,0.2,0.9,0.5,1.3,0.8l-0.3,0.6c-0.4-0.4-0.8-0.6-1.2-0.8c-0.4-0.2-0.9-0.3-1.4-0.3
					c-0.7,0-1.3,0.2-1.7,0.5c-0.4,0.3-0.6,0.8-0.6,1.3c0,0.5,0.2,0.8,0.5,1.1c0.4,0.2,0.9,0.4,1.6,0.6l0.4,0.1
					c0.7,0.2,1.2,0.3,1.5,0.5c0.4,0.1,0.7,0.4,1,0.7s0.4,0.7,0.4,1.2c0,0.5-0.1,0.9-0.4,1.3c-0.3,0.4-0.6,0.6-1.1,0.8
					c-0.5,0.2-1,0.3-1.6,0.3C53,250.7,52.4,250.6,51.9,250.4z"/>
				<path class="st9" d="M58.8,247.4L58.8,247.4c0,0.9,0.2,1.5,0.6,1.9s0.9,0.7,1.7,0.7c0.7,0,1.4-0.3,2-0.8l0.3,0.6
					c-0.3,0.3-0.6,0.5-1,0.6s-0.8,0.2-1.3,0.2c-0.9,0-1.7-0.3-2.2-0.8s-0.8-1.3-0.8-2.3c0-0.6,0.1-1.2,0.4-1.7
					c0.2-0.5,0.6-0.9,1-1.1c0.4-0.3,0.9-0.4,1.5-0.4c0.8,0,1.4,0.3,1.9,0.8s0.7,1.2,0.7,2.2v0.2H58.8z M59.6,245.4
					c-0.4,0.3-0.6,0.8-0.7,1.4h3.9c0-0.6-0.2-1.1-0.5-1.4s-0.8-0.5-1.3-0.5C60.4,244.9,59.9,245.1,59.6,245.4z"/>
				<path class="st9" d="M66.1,250.3c-0.4-0.3-0.8-0.6-1-1.1c-0.2-0.5-0.4-1-0.4-1.7c0-0.6,0.1-1.2,0.4-1.7c0.2-0.5,0.6-0.9,1-1.1
					s0.9-0.4,1.5-0.4c0.4,0,0.8,0.1,1.2,0.2c0.4,0.1,0.7,0.3,0.9,0.6l-0.3,0.6c-0.3-0.3-0.6-0.5-0.9-0.6c-0.3-0.1-0.6-0.2-0.9-0.2
					c-0.7,0-1.2,0.2-1.6,0.7c-0.4,0.5-0.6,1.1-0.6,1.9c0,0.8,0.2,1.4,0.6,1.8s0.9,0.7,1.6,0.7c0.3,0,0.6-0.1,0.9-0.2
					c0.3-0.1,0.6-0.3,0.9-0.6l0.3,0.6c-0.3,0.3-0.6,0.5-1,0.6c-0.4,0.1-0.8,0.2-1.2,0.2C67,250.7,66.5,250.5,66.1,250.3z"/>
				<path class="st9" d="M76.1,244.5v6.1h-0.7v-1.1c-0.2,0.4-0.5,0.7-0.8,0.9c-0.4,0.2-0.8,0.3-1.2,0.3c-0.7,0-1.3-0.2-1.6-0.6
					s-0.5-1-0.5-1.8v-3.8h0.7v3.8c0,0.6,0.1,1,0.4,1.3s0.6,0.4,1.1,0.4c0.6,0,1.1-0.2,1.4-0.6c0.4-0.4,0.5-0.9,0.5-1.5v-3.5H76.1z"
					/>
				<path class="st9" d="M81.4,244.4l0,0.7c-0.2,0-0.3,0-0.6,0c-0.6,0-1.1,0.2-1.4,0.6c-0.3,0.4-0.5,0.9-0.5,1.4v3.6h-0.7v-4.4
					c0-0.6,0-1.2-0.1-1.7h0.7l0.1,1.1c0.2-0.4,0.4-0.7,0.8-1s0.7-0.3,1.2-0.3C81,244.3,81.2,244.3,81.4,244.4z"/>
				<path class="st9" d="M83.4,241.9v1h-1v-1H83.4z M82.5,244.5h0.7v6.1h-0.7V244.5z"/>
				<path class="st9" d="M86.4,245.1v3.6c0,0.5,0.1,0.8,0.3,1c0.2,0.2,0.5,0.3,0.8,0.3c0.2,0,0.4,0,0.7-0.1v0.7
					c-0.3,0.1-0.5,0.1-0.8,0.1c-0.5,0-1-0.2-1.3-0.5c-0.3-0.3-0.5-0.8-0.5-1.4v-3.8h-1.2v-0.6h1.2v-1.6l0.7-0.3v1.9h1.8v0.6H86.4z"
					/>
				<path class="st9" d="M94.8,244.5l-2.9,6.8c-0.3,0.7-0.6,1.2-1.1,1.5s-1,0.5-1.6,0.7l-0.1-0.6c0.6-0.1,1-0.3,1.3-0.5
					c0.3-0.2,0.5-0.6,0.8-1l0.3-0.6l-2.6-6.1h0.8l2.2,5.4l2.2-5.4H94.8z"/>
				<path class="st9" d="M105,248.2h-4.7l-1,2.3h-0.8l3.8-8.7h0.7l3.8,8.7H106L105,248.2z M104.7,247.6l-2.1-4.8l-2.1,4.8H104.7z"/>
				<path class="st9" d="M113.1,244.5v6.1h-0.7v-1.1c-0.2,0.4-0.5,0.7-0.8,0.9c-0.4,0.2-0.8,0.3-1.2,0.3c-0.7,0-1.3-0.2-1.6-0.6
					s-0.5-1-0.5-1.8v-3.8h0.7v3.8c0,0.6,0.1,1,0.4,1.3s0.6,0.4,1.1,0.4c0.6,0,1.1-0.2,1.4-0.6c0.4-0.4,0.5-0.9,0.5-1.5v-3.5H113.1z"
					/>
				<path class="st9" d="M116.2,245.1v3.6c0,0.5,0.1,0.8,0.3,1c0.2,0.2,0.5,0.3,0.8,0.3c0.2,0,0.4,0,0.7-0.1v0.7
					c-0.3,0.1-0.5,0.1-0.8,0.1c-0.5,0-1-0.2-1.3-0.5c-0.3-0.3-0.5-0.8-0.5-1.4v-3.8h-1.2v-0.6h1.2v-1.6l0.7-0.3v1.9h1.8v0.6H116.2z"
					/>
				<path class="st9" d="M124.4,246.7v3.9h-0.7v-3.8c0-0.6-0.1-1.1-0.4-1.3c-0.2-0.3-0.6-0.4-1.2-0.4c-0.6,0-1.1,0.2-1.5,0.6
					c-0.4,0.4-0.6,0.9-0.6,1.5v3.5h-0.7v-9h0.7v3.9c0.2-0.4,0.5-0.7,0.8-0.9c0.4-0.2,0.8-0.3,1.3-0.3
					C123.7,244.3,124.4,245.1,124.4,246.7z"/>
				<path class="st9" d="M127.4,250.3c-0.4-0.3-0.8-0.6-1-1.1s-0.3-1-0.3-1.7s0.1-1.2,0.3-1.7c0.2-0.5,0.6-0.8,1-1.1
					s0.9-0.4,1.5-0.4c0.6,0,1,0.1,1.5,0.4c0.4,0.3,0.8,0.6,1,1.1c0.2,0.5,0.3,1,0.3,1.7s-0.1,1.2-0.3,1.7s-0.6,0.9-1,1.1
					c-0.4,0.3-0.9,0.4-1.5,0.4C128.3,250.7,127.8,250.5,127.4,250.3z M130.4,249.3c0.4-0.4,0.5-1.1,0.5-1.9c0-0.8-0.2-1.4-0.5-1.9
					c-0.4-0.4-0.9-0.7-1.5-0.7c-0.6,0-1.1,0.2-1.5,0.7c-0.4,0.4-0.5,1.1-0.5,1.9c0,0.8,0.2,1.4,0.5,1.9c0.3,0.4,0.9,0.6,1.5,0.6
					C129.5,250,130,249.8,130.4,249.3z"/>
				<path class="st9" d="M136.6,244.4l0,0.7c-0.2,0-0.3,0-0.6,0c-0.6,0-1.1,0.2-1.4,0.6c-0.3,0.4-0.5,0.9-0.5,1.4v3.6h-0.7v-4.4
					c0-0.6,0-1.2-0.1-1.7h0.7l0.1,1.1c0.2-0.4,0.4-0.7,0.8-1s0.7-0.3,1.2-0.3C136.2,244.3,136.4,244.3,136.6,244.4z"/>
				<path class="st9" d="M138.6,241.9v1h-1v-1H138.6z M137.7,244.5h0.7v6.1h-0.7V244.5z"/>
				<path class="st9" d="M145.3,250v0.6h-5.1v-0.5l4.1-5h-3.9v-0.6h4.8v0.6l-4,4.9H145.3z"/>
				<path class="st9" d="M152,244.5v6.1h-0.7v-1.2c-0.2,0.4-0.4,0.7-0.8,0.9c-0.4,0.2-0.8,0.3-1.3,0.3c-0.5,0-1-0.1-1.4-0.4
					c-0.4-0.3-0.7-0.6-1-1.1c-0.2-0.5-0.3-1-0.3-1.7s0.1-1.2,0.3-1.7c0.2-0.5,0.5-0.9,1-1.1c0.4-0.3,0.9-0.4,1.4-0.4
					c0.5,0,0.9,0.1,1.3,0.3c0.4,0.2,0.6,0.5,0.8,0.9v-1.1H152z M150.7,249.3c0.3-0.4,0.5-1.1,0.5-1.9c0-0.8-0.2-1.4-0.5-1.9
					c-0.4-0.4-0.8-0.7-1.5-0.7c-0.6,0-1.1,0.2-1.5,0.7c-0.4,0.5-0.5,1.1-0.5,1.9c0,0.8,0.2,1.4,0.5,1.8c0.4,0.4,0.9,0.7,1.5,0.7
					C149.9,250,150.3,249.8,150.7,249.3z"/>
				<path class="st9" d="M155.1,245.1v3.6c0,0.5,0.1,0.8,0.3,1c0.2,0.2,0.5,0.3,0.8,0.3c0.2,0,0.4,0,0.7-0.1v0.7
					c-0.3,0.1-0.5,0.1-0.8,0.1c-0.5,0-1-0.2-1.3-0.5c-0.3-0.3-0.5-0.8-0.5-1.4v-3.8h-1.2v-0.6h1.2v-1.6l0.7-0.3v1.9h1.8v0.6H155.1z"
					/>
				<path class="st9" d="M159.1,241.9v1h-1v-1H159.1z M158.2,244.5h0.7v6.1h-0.7V244.5z"/>
				<path class="st9" d="M162,250.3c-0.4-0.3-0.8-0.6-1-1.1c-0.2-0.5-0.3-1-0.3-1.7s0.1-1.2,0.3-1.7c0.2-0.5,0.6-0.8,1-1.1
					s0.9-0.4,1.5-0.4c0.6,0,1,0.1,1.5,0.4s0.8,0.6,1,1.1c0.2,0.5,0.3,1,0.3,1.7s-0.1,1.2-0.3,1.7s-0.6,0.9-1,1.1
					c-0.4,0.3-0.9,0.4-1.5,0.4C162.9,250.7,162.4,250.5,162,250.3z M165,249.3c0.4-0.4,0.5-1.1,0.5-1.9c0-0.8-0.2-1.4-0.5-1.9
					c-0.4-0.4-0.9-0.7-1.5-0.7c-0.6,0-1.1,0.2-1.5,0.7c-0.4,0.4-0.5,1.1-0.5,1.9c0,0.8,0.2,1.4,0.5,1.9s0.9,0.6,1.5,0.6
					S164.6,249.8,165,249.3z"/>
				<path class="st9" d="M173,246.7v3.9h-0.7v-3.8c0-0.6-0.1-1.1-0.4-1.3c-0.2-0.3-0.6-0.4-1.2-0.4c-0.6,0-1.1,0.2-1.5,0.6
					c-0.4,0.4-0.6,0.9-0.6,1.5v3.5H168v-4.4c0-0.6,0-1.2-0.1-1.7h0.7l0.1,1.1c0.2-0.4,0.5-0.7,0.8-0.9c0.4-0.2,0.8-0.3,1.3-0.3
					C172.3,244.3,173,245.1,173,246.7z"/>
				<path class="st9" d="M178.4,241.9h3.3c0.9,0,1.6,0.2,2.1,0.6c0.5,0.4,0.7,1,0.7,1.7c0,0.7-0.2,1.3-0.8,1.8
					c-0.5,0.4-1.2,0.6-2,0.6h-2.6v3.9h-0.8V241.9z M181.7,246c0.7,0,1.2-0.2,1.5-0.5s0.5-0.7,0.5-1.3c0-0.6-0.2-1-0.5-1.3
					c-0.3-0.3-0.9-0.5-1.5-0.5h-2.5v3.5H181.7z"/>
				<path class="st9" d="M191.2,244.5v6.1h-0.7v-1.2c-0.2,0.4-0.4,0.7-0.8,0.9c-0.4,0.2-0.8,0.3-1.3,0.3c-0.5,0-1-0.1-1.4-0.4
					c-0.4-0.3-0.7-0.6-1-1.1c-0.2-0.5-0.3-1-0.3-1.7s0.1-1.2,0.3-1.7c0.2-0.5,0.5-0.9,1-1.1c0.4-0.3,0.9-0.4,1.4-0.4
					c0.5,0,0.9,0.1,1.3,0.3c0.4,0.2,0.6,0.5,0.8,0.9v-1.1H191.2z M189.9,249.3c0.3-0.4,0.5-1.1,0.5-1.9c0-0.8-0.2-1.4-0.5-1.9
					c-0.4-0.4-0.8-0.7-1.5-0.7c-0.6,0-1.1,0.2-1.5,0.7c-0.4,0.5-0.5,1.1-0.5,1.9c0,0.8,0.2,1.4,0.5,1.8c0.4,0.4,0.9,0.7,1.5,0.7
					C189.1,250,189.6,249.8,189.9,249.3z"/>
				<path class="st9" d="M194.3,250.3c-0.4-0.3-0.8-0.6-1-1.1c-0.2-0.5-0.4-1-0.4-1.7c0-0.6,0.1-1.2,0.4-1.7s0.6-0.9,1-1.1
					s0.9-0.4,1.5-0.4c0.4,0,0.8,0.1,1.2,0.2c0.4,0.1,0.7,0.3,0.9,0.6l-0.3,0.6c-0.3-0.3-0.6-0.5-0.9-0.6c-0.3-0.1-0.6-0.2-0.9-0.2
					c-0.7,0-1.2,0.2-1.6,0.7c-0.4,0.5-0.6,1.1-0.6,1.9c0,0.8,0.2,1.4,0.6,1.8c0.4,0.4,0.9,0.7,1.6,0.7c0.3,0,0.6-0.1,0.9-0.2
					c0.3-0.1,0.6-0.3,0.9-0.6l0.3,0.6c-0.3,0.3-0.6,0.5-1,0.6c-0.4,0.1-0.8,0.2-1.2,0.2C195.2,250.7,194.7,250.5,194.3,250.3z"/>
				<path class="st9" d="M203.4,250.6l-3.4-3v3h-0.7v-9h0.7v5.7l3.1-2.8h1l-3.2,2.9l3.5,3.2H203.4z"/>
				<path class="st9" d="M210.5,244.5v6.1h-0.7v-1.2c-0.2,0.4-0.4,0.7-0.8,0.9c-0.4,0.2-0.8,0.3-1.3,0.3c-0.5,0-1-0.1-1.4-0.4
					c-0.4-0.3-0.7-0.6-1-1.1c-0.2-0.5-0.3-1-0.3-1.7s0.1-1.2,0.3-1.7c0.2-0.5,0.5-0.9,1-1.1c0.4-0.3,0.9-0.4,1.4-0.4
					c0.5,0,0.9,0.1,1.3,0.3c0.4,0.2,0.6,0.5,0.8,0.9v-1.1H210.5z M209.3,249.3c0.3-0.4,0.5-1.1,0.5-1.9c0-0.8-0.2-1.4-0.5-1.9
					c-0.4-0.4-0.8-0.7-1.5-0.7c-0.6,0-1.1,0.2-1.5,0.7c-0.4,0.5-0.5,1.1-0.5,1.9c0,0.8,0.2,1.4,0.5,1.8c0.4,0.4,0.9,0.7,1.5,0.7
					C208.4,250,208.9,249.8,209.3,249.3z"/>
				<path class="st9" d="M217.9,244.5v6.1c0,0.9-0.2,1.6-0.7,2c-0.4,0.5-1.1,0.7-1.9,0.7c-0.9,0-1.7-0.2-2.4-0.7l0.1-0.6
					c0.4,0.2,0.8,0.4,1.1,0.5c0.3,0.1,0.7,0.1,1.1,0.1c0.6,0,1.1-0.2,1.4-0.5c0.3-0.3,0.5-0.8,0.5-1.5v-1.6c-0.2,0.4-0.5,0.7-0.8,1
					s-0.8,0.3-1.3,0.3c-0.5,0-1-0.1-1.4-0.4c-0.4-0.3-0.7-0.6-1-1.1c-0.2-0.5-0.3-1-0.3-1.6c0-0.6,0.1-1.1,0.3-1.6
					c0.2-0.5,0.6-0.8,1-1.1c0.4-0.3,0.9-0.4,1.4-0.4c0.5,0,1,0.1,1.3,0.3c0.4,0.2,0.6,0.5,0.8,0.9v-1.1H217.9z M216.6,249.1
					c0.4-0.4,0.5-1,0.5-1.7c0-0.7-0.2-1.3-0.5-1.8c-0.4-0.4-0.9-0.6-1.5-0.6c-0.6,0-1.1,0.2-1.5,0.6c-0.4,0.4-0.5,1-0.5,1.8
					c0,0.7,0.2,1.3,0.5,1.7c0.4,0.4,0.9,0.6,1.5,0.6C215.7,249.7,216.2,249.5,216.6,249.1z"/>
				<path class="st9" d="M220.3,247.4L220.3,247.4c0,0.9,0.2,1.5,0.6,1.9c0.4,0.4,0.9,0.7,1.7,0.7c0.7,0,1.4-0.3,2-0.8l0.3,0.6
					c-0.3,0.3-0.6,0.5-1,0.6s-0.8,0.2-1.3,0.2c-0.9,0-1.7-0.3-2.2-0.8s-0.8-1.3-0.8-2.3c0-0.6,0.1-1.2,0.4-1.7s0.6-0.9,1-1.1
					c0.4-0.3,0.9-0.4,1.5-0.4c0.8,0,1.4,0.3,1.9,0.8c0.5,0.5,0.7,1.2,0.7,2.2v0.2H220.3z M221.1,245.4c-0.3,0.3-0.6,0.8-0.7,1.4h3.9
					c0-0.6-0.2-1.1-0.5-1.4s-0.8-0.5-1.3-0.5C221.9,244.9,221.4,245.1,221.1,245.4z"/>
				<path class="st9" d="M230.4,250.1c-0.2-0.9-0.3-1.8-0.3-2.8c0-0.9,0.1-1.9,0.3-2.7s0.5-1.8,1-2.7h0.7c-0.4,1-0.7,1.9-0.9,2.8
					c-0.2,0.9-0.3,1.8-0.3,2.6s0.1,1.8,0.3,2.6c0.2,0.9,0.5,1.8,0.9,2.8h-0.6C231,251.9,230.6,251,230.4,250.1z"/>
				<path class="st9" d="M234.5,250.4c-0.5-0.2-1-0.5-1.4-0.9l0.3-0.6c0.4,0.4,0.9,0.7,1.3,0.8c0.4,0.2,1,0.2,1.6,0.2
					c0.7,0,1.3-0.2,1.7-0.5s0.6-0.7,0.6-1.3c0-0.3-0.1-0.6-0.3-0.8c-0.2-0.2-0.5-0.4-0.8-0.5c-0.3-0.1-0.7-0.2-1.2-0.3
					c-0.7-0.1-1.2-0.3-1.6-0.5c-0.4-0.2-0.8-0.4-1.1-0.7c-0.3-0.3-0.4-0.7-0.4-1.3c0-0.5,0.1-0.9,0.4-1.3c0.3-0.4,0.6-0.7,1.1-0.9
					c0.5-0.2,1-0.3,1.6-0.3c0.6,0,1.1,0.1,1.6,0.3c0.5,0.2,0.9,0.5,1.3,0.8l-0.3,0.6c-0.4-0.4-0.8-0.6-1.2-0.8s-0.9-0.3-1.4-0.3
					c-0.7,0-1.3,0.2-1.7,0.5s-0.6,0.8-0.6,1.3c0,0.5,0.2,0.8,0.5,1.1c0.4,0.2,0.9,0.4,1.6,0.6l0.4,0.1c0.7,0.2,1.2,0.3,1.5,0.5
					s0.7,0.4,1,0.7s0.4,0.7,0.4,1.2c0,0.5-0.1,0.9-0.4,1.3c-0.3,0.4-0.6,0.6-1.1,0.8s-1,0.3-1.6,0.3
					C235.7,250.7,235.1,250.6,234.5,250.4z"/>
				<path class="st9" d="M242.1,250.4c-0.5-0.2-1-0.5-1.4-0.9l0.3-0.6c0.4,0.4,0.9,0.7,1.3,0.8c0.4,0.2,1,0.2,1.6,0.2
					c0.7,0,1.3-0.2,1.7-0.5s0.6-0.7,0.6-1.3c0-0.3-0.1-0.6-0.3-0.8c-0.2-0.2-0.5-0.4-0.8-0.5c-0.3-0.1-0.7-0.2-1.2-0.3
					c-0.7-0.1-1.2-0.3-1.6-0.5c-0.4-0.2-0.8-0.4-1.1-0.7c-0.3-0.3-0.4-0.7-0.4-1.3c0-0.5,0.1-0.9,0.4-1.3c0.3-0.4,0.6-0.7,1.1-0.9
					c0.5-0.2,1-0.3,1.6-0.3c0.6,0,1.1,0.1,1.6,0.3c0.5,0.2,0.9,0.5,1.3,0.8l-0.3,0.6c-0.4-0.4-0.8-0.6-1.2-0.8s-0.9-0.3-1.4-0.3
					c-0.7,0-1.3,0.2-1.7,0.5s-0.6,0.8-0.6,1.3c0,0.5,0.2,0.8,0.5,1.1c0.4,0.2,0.9,0.4,1.6,0.6l0.4,0.1c0.7,0.2,1.2,0.3,1.5,0.5
					s0.7,0.4,1,0.7s0.4,0.7,0.4,1.2c0,0.5-0.1,0.9-0.4,1.3c-0.3,0.4-0.6,0.6-1.1,0.8s-1,0.3-1.6,0.3
					C243.2,250.7,242.6,250.6,242.1,250.4z"/>
				<path class="st9" d="M248.7,241.9h3.3c0.9,0,1.6,0.2,2.1,0.6c0.5,0.4,0.7,1,0.7,1.7c0,0.7-0.2,1.3-0.8,1.8
					c-0.5,0.4-1.2,0.6-2,0.6h-2.6v3.9h-0.8V241.9z M252,246c0.7,0,1.2-0.2,1.5-0.5s0.5-0.7,0.5-1.3c0-0.6-0.2-1-0.5-1.3
					c-0.3-0.3-0.9-0.5-1.5-0.5h-2.5v3.5H252z"/>
				<path class="st9" d="M256.8,249.5v0.8c0,0.3,0,0.6-0.1,0.9c-0.1,0.3-0.3,0.5-0.5,0.7l-0.4-0.3c0.3-0.3,0.4-0.6,0.5-1h-0.5v-1.1
					H256.8z"/>
				<path class="st9" d="M262.9,250.4c-0.5-0.2-1-0.5-1.4-0.9l0.3-0.6c0.4,0.4,0.9,0.7,1.3,0.8c0.4,0.2,1,0.2,1.6,0.2
					c0.7,0,1.3-0.2,1.7-0.5s0.6-0.7,0.6-1.3c0-0.3-0.1-0.6-0.3-0.8c-0.2-0.2-0.5-0.4-0.8-0.5c-0.3-0.1-0.7-0.2-1.2-0.3
					c-0.7-0.1-1.2-0.3-1.6-0.5c-0.4-0.2-0.8-0.4-1.1-0.7c-0.3-0.3-0.4-0.7-0.4-1.3c0-0.5,0.1-0.9,0.4-1.3c0.3-0.4,0.6-0.7,1.1-0.9
					c0.5-0.2,1-0.3,1.6-0.3c0.6,0,1.1,0.1,1.6,0.3c0.5,0.2,0.9,0.5,1.3,0.8l-0.3,0.6c-0.4-0.4-0.8-0.6-1.2-0.8s-0.9-0.3-1.4-0.3
					c-0.7,0-1.3,0.2-1.7,0.5s-0.6,0.8-0.6,1.3c0,0.5,0.2,0.8,0.5,1.1c0.4,0.2,0.9,0.4,1.6,0.6l0.4,0.1c0.7,0.2,1.2,0.3,1.5,0.5
					s0.7,0.4,1,0.7s0.4,0.7,0.4,1.2c0,0.5-0.1,0.9-0.4,1.3c-0.3,0.4-0.6,0.6-1.1,0.8s-1,0.3-1.6,0.3
					C264,250.7,263.4,250.6,262.9,250.4z"/>
				<path class="st9" d="M275.2,248.2h-4.7l-1,2.3h-0.8l3.8-8.7h0.7l3.8,8.7h-0.8L275.2,248.2z M274.9,247.6l-2.1-4.8l-2.1,4.8
					H274.9z"/>
				<path class="st9" d="M278.4,241.9h3.3c0.9,0,1.6,0.2,2.1,0.6c0.5,0.4,0.7,1,0.7,1.7c0,0.7-0.2,1.3-0.8,1.8
					c-0.5,0.4-1.2,0.6-2,0.6h-2.6v3.9h-0.8V241.9z M281.7,246c0.7,0,1.2-0.2,1.5-0.5s0.5-0.7,0.5-1.3c0-0.6-0.2-1-0.5-1.3
					c-0.3-0.3-0.9-0.5-1.5-0.5h-2.5v3.5H281.7z"/>
				<path class="st9" d="M286.5,249.5v0.8c0,0.3,0,0.6-0.1,0.9c-0.1,0.3-0.3,0.5-0.5,0.7l-0.4-0.3c0.3-0.3,0.4-0.6,0.5-1h-0.5v-1.1
					H286.5z"/>
				<path class="st9" d="M51.9,265.7c-0.5-0.2-1-0.5-1.4-0.9l0.3-0.6c0.4,0.4,0.9,0.7,1.3,0.8c0.4,0.2,1,0.2,1.6,0.2
					c0.7,0,1.3-0.2,1.7-0.5c0.4-0.3,0.6-0.7,0.6-1.3c0-0.3-0.1-0.6-0.3-0.8c-0.2-0.2-0.5-0.4-0.8-0.5c-0.3-0.1-0.7-0.2-1.2-0.3
					c-0.7-0.1-1.2-0.3-1.6-0.5c-0.4-0.2-0.8-0.4-1.1-0.7c-0.3-0.3-0.4-0.7-0.4-1.3c0-0.5,0.1-0.9,0.4-1.3c0.3-0.4,0.6-0.7,1.1-0.9
					s1-0.3,1.6-0.3c0.6,0,1.1,0.1,1.6,0.3c0.5,0.2,0.9,0.5,1.3,0.8l-0.3,0.6c-0.4-0.4-0.8-0.6-1.2-0.8c-0.4-0.2-0.9-0.3-1.4-0.3
					c-0.7,0-1.3,0.2-1.7,0.5c-0.4,0.3-0.6,0.8-0.6,1.3c0,0.5,0.2,0.8,0.5,1.1c0.4,0.2,0.9,0.4,1.6,0.6l0.4,0.1
					c0.7,0.2,1.2,0.3,1.5,0.5c0.4,0.1,0.7,0.4,1,0.7s0.4,0.7,0.4,1.2c0,0.5-0.1,0.9-0.4,1.3c-0.3,0.4-0.6,0.6-1.1,0.8
					c-0.5,0.2-1,0.3-1.6,0.3C53,265.9,52.4,265.8,51.9,265.7z"/>
				<path class="st9" d="M64.2,263.5h-4.7l-1,2.3h-0.8l3.8-8.7h0.7l3.8,8.7h-0.8L64.2,263.5z M63.9,262.8l-2.1-4.8l-2.1,4.8H63.9z"
					/>
				<path class="st9" d="M74.2,265.8h-0.8l-1.1-2.9c-0.1-0.4-0.3-0.7-0.6-0.8c-0.2-0.1-0.6-0.2-1.1-0.2h-2.4v3.9h-0.8v-8.7h3.4
					c0.9,0,1.6,0.2,2.1,0.6c0.5,0.4,0.7,1,0.7,1.8c0,0.6-0.1,1-0.4,1.4c-0.3,0.4-0.7,0.7-1.3,0.8c0.3,0,0.5,0.1,0.6,0.3
					c0.2,0.2,0.3,0.4,0.5,0.8L74.2,265.8z M70.8,261.3c1.4,0,2.1-0.6,2.1-1.8c0-1.1-0.7-1.7-2.1-1.7h-2.6v3.5H70.8z"/>
				<path class="st9" d="M76.8,264.8v0.8c0,0.3,0,0.6-0.1,0.9c-0.1,0.3-0.3,0.5-0.5,0.7l-0.4-0.3c0.3-0.3,0.4-0.6,0.5-1h-0.5v-1.1
					H76.8z"/>
				<path class="st9" d="M82,257.1h3.3c0.9,0,1.6,0.2,2.1,0.6c0.5,0.4,0.7,1,0.7,1.7c0,0.7-0.2,1.3-0.8,1.8c-0.5,0.4-1.2,0.6-2,0.6
					h-2.6v3.9H82V257.1z M85.3,261.3c0.7,0,1.2-0.2,1.5-0.5c0.4-0.3,0.5-0.7,0.5-1.3c0-0.6-0.2-1-0.5-1.3c-0.3-0.3-0.9-0.5-1.5-0.5
					h-2.5v3.5H85.3z"/>
				<path class="st9" d="M91.3,265.4c-0.6-0.4-1-0.9-1.3-1.5c-0.3-0.7-0.5-1.5-0.5-2.4c0-0.9,0.2-1.7,0.5-2.4
					c0.3-0.7,0.8-1.2,1.3-1.5c0.6-0.4,1.3-0.5,2.1-0.5c0.8,0,1.5,0.2,2.1,0.5c0.6,0.4,1,0.9,1.3,1.5s0.5,1.5,0.5,2.4
					s-0.2,1.7-0.5,2.4c-0.3,0.7-0.8,1.2-1.3,1.5c-0.6,0.4-1.3,0.5-2.1,0.5C92.6,265.9,91.9,265.7,91.3,265.4z M95.6,264.3
					c0.5-0.7,0.8-1.6,0.8-2.8s-0.3-2.1-0.8-2.8s-1.3-1-2.3-1c-1,0-1.7,0.3-2.3,1s-0.8,1.6-0.8,2.8s0.3,2.1,0.8,2.8s1.3,1,2.3,1
					C94.3,265.3,95.1,264.9,95.6,264.3z"/>
				<path class="st9" d="M104.7,263.5H100l-1,2.3h-0.8l3.8-8.7h0.7l3.8,8.7h-0.8L104.7,263.5z M104.4,262.8l-2.1-4.8l-2.1,4.8H104.4
					z"/>
				<path class="st9" d="M115,265.4l-0.4,0.5c-0.7-0.3-1.2-0.7-1.7-1.2c-0.3,0.4-0.7,0.7-1.2,0.9s-0.9,0.3-1.5,0.3
					c-0.5,0-1-0.1-1.4-0.3c-0.4-0.2-0.7-0.4-1-0.8c-0.2-0.3-0.3-0.7-0.3-1.2c0-0.5,0.2-1,0.5-1.4c0.3-0.4,0.9-0.9,1.6-1.3
					c-0.4-0.5-0.7-0.9-0.8-1.2c-0.2-0.3-0.2-0.6-0.2-0.9c0-0.6,0.2-1,0.6-1.3c0.4-0.3,0.9-0.5,1.5-0.5c0.6,0,1,0.2,1.4,0.5
					c0.3,0.3,0.5,0.7,0.5,1.2c0,0.4-0.1,0.8-0.4,1.1c-0.3,0.3-0.7,0.7-1.4,1.2l2.2,2.6c0.4-0.7,0.6-1.7,0.6-2.8h0.7
					c0,1.3-0.3,2.5-0.9,3.4C113.7,264.6,114.3,265.1,115,265.4z M112.5,264.2l-2.4-2.8c-0.7,0.4-1.1,0.8-1.4,1.1
					c-0.3,0.3-0.4,0.7-0.4,1.1c0,0.5,0.2,0.9,0.5,1.2c0.4,0.3,0.8,0.4,1.5,0.4C111.2,265.3,111.9,264.9,112.5,264.2z M109.5,259.6
					c0.1,0.2,0.4,0.6,0.7,1c0.6-0.4,1-0.7,1.2-1c0.2-0.3,0.3-0.5,0.3-0.8c0-0.3-0.1-0.6-0.3-0.8s-0.5-0.3-0.8-0.3
					c-0.4,0-0.7,0.1-0.9,0.3s-0.3,0.5-0.3,0.9C109.3,259.1,109.4,259.4,109.5,259.6z"/>
				<path class="st9" d="M124.2,257.1v8.7h-0.7v-7l-3.1,7h-0.6l-3.1-6.9l0,6.9h-0.7v-8.7h0.6l3.4,7.8l3.4-7.8H124.2z"/>
				<path class="st9" d="M125.8,268c0.4-1,0.7-1.9,0.9-2.8c0.2-0.9,0.3-1.8,0.3-2.6c0-0.9-0.1-1.8-0.3-2.6s-0.5-1.8-0.9-2.8h0.7
					c0.4,0.9,0.8,1.8,1,2.7c0.2,0.9,0.3,1.8,0.3,2.7c0,1-0.1,1.9-0.3,2.8c-0.2,0.9-0.5,1.8-1,2.7H125.8z"/>
			</g>
		</g>
		<g>
			<g>
				<path class="st1" d="M23.2,214.3v3.4H28v1.2h-4.8v3.9h-1.4v-9.6h6.8v1.2H23.2z"/>
				<path class="st1" d="M37,215.4v7.3h-1.2v-1.1c-0.5,0.8-1.4,1.2-2.5,1.2c-1.9,0-3.1-1-3.1-3.2v-4.2h1.3v4c0,1.4,0.7,2.1,2,2.1
					c1.4,0,2.3-0.9,2.3-2.4v-3.8H37z"/>
				<path class="st1" d="M39.6,212.5H41v10.2h-1.3V212.5z"/>
				<path class="st1" d="M43.6,212.5h1.3v10.2h-1.3V212.5z"/>
				<path class="st1" d="M50.7,221.6l0.5-1.1c0.7,0.6,1.9,1.1,3.2,1.1c1.7,0,2.4-0.6,2.4-1.5c0-2.3-5.8-0.9-5.8-4.4
					c0-1.5,1.2-2.7,3.7-2.7c1.1,0,2.3,0.3,3.1,0.9l-0.5,1.1c-0.8-0.5-1.8-0.8-2.6-0.8c-1.6,0-2.3,0.7-2.3,1.5c0,2.3,5.8,0.9,5.8,4.4
					c0,1.5-1.2,2.7-3.7,2.7C52.9,222.8,51.5,222.3,50.7,221.6z"/>
				<path class="st1" d="M66.6,219.5h-5.9c0.2,1.3,1.2,2.1,2.6,2.1c0.9,0,1.6-0.3,2.1-0.9l0.7,0.9c-0.7,0.8-1.7,1.2-2.9,1.2
					c-2.3,0-3.9-1.6-3.9-3.7c0-2.2,1.6-3.7,3.7-3.7c2.1,0,3.6,1.5,3.6,3.7C66.7,219.2,66.6,219.4,66.6,219.5z M60.7,218.6h4.7
					c-0.1-1.2-1.1-2.1-2.3-2.1C61.8,216.5,60.9,217.3,60.7,218.6z"/>
				<path class="st1" d="M68,219.1c0-2.2,1.6-3.7,3.8-3.7c1.3,0,2.4,0.5,3,1.6l-1,0.6c-0.5-0.7-1.2-1-2-1c-1.4,0-2.5,1-2.5,2.6
					c0,1.6,1.1,2.6,2.5,2.6c0.8,0,1.5-0.3,2-1l1,0.6c-0.6,1-1.7,1.6-3,1.6C69.6,222.8,68,221.2,68,219.1z"/>
				<path class="st1" d="M83.4,215.4v7.3h-1.2v-1.1c-0.5,0.8-1.4,1.2-2.5,1.2c-1.9,0-3.1-1-3.1-3.2v-4.2h1.3v4c0,1.4,0.7,2.1,2,2.1
					c1.4,0,2.3-0.9,2.3-2.4v-3.8H83.4z"/>
				<path class="st1" d="M89.9,215.4v1.3c-0.1,0-0.2,0-0.3,0c-1.4,0-2.3,0.9-2.3,2.5v3.6H86v-7.3h1.3v1.2
					C87.8,215.8,88.7,215.4,89.9,215.4z"/>
				<path class="st1" d="M91.5,213.2c0-0.5,0.4-0.9,0.9-0.9c0.5,0,0.9,0.4,0.9,0.8c0,0.5-0.4,0.9-0.9,0.9
					C91.9,214,91.5,213.7,91.5,213.2z M91.7,215.4H93v7.3h-1.3V215.4z"/>
				<path class="st1" d="M99.8,222.3c-0.4,0.3-1,0.5-1.6,0.5c-1.5,0-2.3-0.8-2.3-2.3v-4h-1.2v-1.1h1.2v-1.6h1.3v1.6h2.1v1.1h-2.1
					v3.9c0,0.8,0.4,1.2,1.1,1.2c0.4,0,0.8-0.1,1-0.3L99.8,222.3z"/>
				<path class="st1" d="M107.8,215.4l-3.5,8c-0.6,1.5-1.5,2-2.6,2c-0.7,0-1.4-0.2-1.9-0.7l0.6-1c0.4,0.3,0.8,0.5,1.3,0.5
					c0.6,0,1-0.3,1.4-1.1l0.2-0.5l-3.2-7.3h1.4l2.5,5.8l2.5-5.8H107.8z"/>
				<path class="st1" d="M119.3,220.3h-5.1l-1.1,2.4h-1.4l4.4-9.6h1.4l4.4,9.6h-1.4L119.3,220.3z M118.8,219.2l-2.1-4.7l-2.1,4.7
					H118.8z"/>
				<path class="st1" d="M122.2,221.9l0.5-1c0.6,0.4,1.6,0.8,2.6,0.8c1.2,0,1.7-0.4,1.7-1c0-1.6-4.6-0.2-4.6-3.1
					c0-1.3,1.2-2.2,3-2.2c0.9,0,2,0.2,2.7,0.7l-0.6,1c-0.7-0.4-1.4-0.6-2.1-0.6c-1.2,0-1.7,0.4-1.7,1c0,1.7,4.6,0.3,4.6,3.1
					c0,1.3-1.2,2.2-3.1,2.2C124,222.8,122.8,222.4,122.2,221.9z"/>
				<path class="st1" d="M129.2,221.9l0.5-1c0.6,0.4,1.6,0.8,2.6,0.8c1.2,0,1.7-0.4,1.7-1c0-1.6-4.6-0.2-4.6-3.1
					c0-1.3,1.2-2.2,3-2.2c0.9,0,2,0.2,2.7,0.7l-0.6,1c-0.7-0.4-1.4-0.6-2.1-0.6c-1.2,0-1.7,0.4-1.7,1c0,1.7,4.6,0.3,4.6,3.1
					c0,1.3-1.2,2.2-3.1,2.2C131,222.8,129.8,222.4,129.2,221.9z"/>
				<path class="st1" d="M143.7,219.5h-5.9c0.2,1.3,1.2,2.1,2.6,2.1c0.9,0,1.6-0.3,2.1-0.9l0.7,0.9c-0.7,0.8-1.7,1.2-2.9,1.2
					c-2.3,0-3.9-1.6-3.9-3.7c0-2.2,1.6-3.7,3.7-3.7c2.1,0,3.6,1.5,3.6,3.7C143.7,219.2,143.7,219.4,143.7,219.5z M137.8,218.6h4.7
					c-0.1-1.2-1.1-2.1-2.3-2.1C138.9,216.5,137.9,217.3,137.8,218.6z"/>
				<path class="st1" d="M144.8,221.9l0.5-1c0.6,0.4,1.6,0.8,2.6,0.8c1.2,0,1.7-0.4,1.7-1c0-1.6-4.6-0.2-4.6-3.1
					c0-1.3,1.2-2.2,3-2.2c0.9,0,2,0.2,2.7,0.7l-0.6,1c-0.7-0.4-1.4-0.6-2.1-0.6c-1.2,0-1.7,0.4-1.7,1c0,1.7,4.6,0.3,4.6,3.1
					c0,1.3-1.2,2.2-3.1,2.2C146.6,222.8,145.4,222.4,144.8,221.9z"/>
				<path class="st1" d="M151.8,221.9l0.5-1c0.6,0.4,1.6,0.8,2.6,0.8c1.2,0,1.7-0.4,1.7-1c0-1.6-4.6-0.2-4.6-3.1
					c0-1.3,1.2-2.2,3-2.2c0.9,0,2,0.2,2.7,0.7l-0.6,1c-0.7-0.4-1.4-0.6-2.1-0.6c-1.2,0-1.7,0.4-1.7,1c0,1.7,4.6,0.3,4.6,3.1
					c0,1.3-1.2,2.2-3.1,2.2C153.6,222.8,152.4,222.4,151.8,221.9z"/>
				<path class="st1" d="M171.8,218.5v4.2h-1.3v-4c0-1.4-0.7-2.1-1.9-2.1c-1.3,0-2.2,0.8-2.2,2.4v3.7h-1.3v-4c0-1.4-0.7-2.1-1.9-2.1
					c-1.3,0-2.2,0.8-2.2,2.4v3.7h-1.3v-7.3h1.3v1.1c0.5-0.7,1.4-1.2,2.5-1.2c1.1,0,2,0.4,2.5,1.3c0.5-0.8,1.6-1.3,2.8-1.3
					C170.6,215.4,171.8,216.4,171.8,218.5z"/>
				<path class="st1" d="M181,219.5h-5.9c0.2,1.3,1.2,2.1,2.6,2.1c0.9,0,1.6-0.3,2.1-0.9l0.7,0.9c-0.7,0.8-1.7,1.2-2.9,1.2
					c-2.3,0-3.9-1.6-3.9-3.7c0-2.2,1.6-3.7,3.7-3.7c2.1,0,3.6,1.5,3.6,3.7C181,219.2,181,219.4,181,219.5z M175.1,218.6h4.7
					c-0.1-1.2-1.1-2.1-2.3-2.1C176.1,216.5,175.2,217.3,175.1,218.6z"/>
				<path class="st1" d="M189.9,218.5v4.2h-1.3v-4c0-1.4-0.7-2.1-2-2.1c-1.4,0-2.3,0.8-2.3,2.4v3.7H183v-7.3h1.3v1.1
					c0.5-0.7,1.5-1.2,2.6-1.2C188.6,215.4,189.9,216.4,189.9,218.5z"/>
				<path class="st1" d="M196.6,222.3c-0.4,0.3-1,0.5-1.6,0.5c-1.5,0-2.3-0.8-2.3-2.3v-4h-1.2v-1.1h1.2v-1.6h1.3v1.6h2.1v1.1H194
					v3.9c0,0.8,0.4,1.2,1.1,1.2c0.4,0,0.8-0.1,1-0.3L196.6,222.3z"/>
			</g>
		</g>
		<g>
			<g>
				<circle class="st1" cx="30" cy="246" r="9.2"/>
			</g>
			<g>
				<path class="st4" d="M31.9,243.5c-0.3,0-0.5-0.2-0.5-0.5v-3h-4.7c-0.7,0-1.2,0.5-1.2,1.2v9.6c0,0.7,0.5,1.2,1.2,1.2h7
					c0.7,0,1.2-0.5,1.2-1.2v-7.3H31.9z"/>
			</g>
			<path class="st5" d="M31.9,243.5H35l-3.5-3.5v3.1C31.5,243.3,31.6,243.5,31.9,243.5z"/>
			<polygon class="st2" points="35,246 35,243.6 31.9,243.6 			"/>
		</g>
	</g>
</g>
</svg>
