<?xml version="1.0" encoding="utf-8"?>
<!-- Generator: Adobe Illustrator 24.2.3, SVG Export Plug-In . SVG Version: 6.00 Build 0)  -->
<svg version="1.1" xmlns="http://www.w3.org/2000/svg" xmlns:xlink="http://www.w3.org/1999/xlink" x="0px" y="0px"
	 viewBox="0 0 320 294.6" style="enable-background:new 0 0 320 294.6;" xml:space="preserve">
<style type="text/css">
	.st0{opacity:0.46;fill:#FFFFFF;}
	.st1{fill:#0A90B7;}
	.st2{fill:#F2F2F2;}
	.st3{enable-background:new    ;}
	.st4{fill:#FFFFFF;}
	.st5{fill:#A6D7E5;}
	.st6{fill:#1294C2;}
	.st7{opacity:0.46;fill:#209ABD;}
	.st8{opacity:0.6;fill:#0A90B7;}
	.st9{fill:#444444;}
	.st10{opacity:0.55;fill:#F2F2F2;}
	.st11{opacity:0.55;}
	.st12{fill:#757575;}
	.st13{fill:#D8D8D8;}
	.st14{fill:#A00A0F;}
	.st15{fill:#C71F25;}
	.st16{opacity:0.1;enable-background:new    ;}
</style>
<g id="Layer_6">
	<rect x="10" y="0" class="st0" width="300" height="294.6"/>
</g>
<g id="Shapes">
	<path id="Path_7616_3_" class="st1" d="M293.6,41.6H58.7V9.4h234.9l7.1,16.1L293.6,41.6z"/>
	<rect x="19.4" y="9.4" class="st2" width="39.3" height="32.2"/>
</g>
<g id="background">
</g>
<g id="text">
	<g class="st3">
		<path class="st4" d="M78.3,24.3c0,1.9-1.4,3.1-3.7,3.1h-2v2.5H71v-8.7h3.6C76.9,21.2,78.3,22.4,78.3,24.3z M76.7,24.3
			c0-1.1-0.7-1.7-2.2-1.7h-1.9V26h1.9C75.9,26,76.7,25.4,76.7,24.3z"/>
		<path class="st4" d="M83.6,23.2v1.5c-0.1,0-0.2,0-0.4,0c-1.2,0-1.9,0.7-1.9,2.1v3.2h-1.6v-6.6h1.5v1
			C81.7,23.6,82.5,23.2,83.6,23.2z"/>
		<path class="st4" d="M91.2,27.1h-5.2c0.2,1,1,1.6,2.2,1.6c0.7,0,1.3-0.2,1.8-0.7l0.8,1c-0.6,0.7-1.5,1.1-2.7,1.1
			c-2.2,0-3.7-1.4-3.7-3.4c0-2,1.5-3.4,3.4-3.4c1.9,0,3.4,1.4,3.4,3.4C91.2,26.8,91.2,27,91.2,27.1z M85.9,26.1h3.8
			c-0.1-1-0.9-1.6-1.9-1.6C86.8,24.4,86.1,25.1,85.9,26.1z"/>
		<path class="st4" d="M99.8,26.6c0,2.1-1.4,3.4-3.4,3.4c-0.8,0-1.6-0.3-2.1-0.9v3.2h-1.6v-9.1h1.5v0.9c0.5-0.6,1.3-0.9,2.2-0.9
			C98.4,23.2,99.8,24.5,99.8,26.6z M98.2,26.6c0-1.3-0.8-2.1-2-2.1s-2,0.8-2,2.1c0,1.3,0.9,2.1,2,2.1S98.2,27.9,98.2,26.6z"/>
		<path class="st4" d="M106.8,26v3.9h-1.5v-0.8c-0.4,0.6-1.1,0.9-2.1,0.9c-1.5,0-2.5-0.8-2.5-2c0-1.1,0.7-2,2.8-2h1.7v-0.1
			c0-0.9-0.5-1.4-1.7-1.4c-0.7,0-1.5,0.2-2,0.7L101,24c0.7-0.5,1.7-0.8,2.8-0.8C105.7,23.2,106.8,24.1,106.8,26z M105.3,27.8v-0.8
			h-1.6c-1.1,0-1.3,0.4-1.3,0.9c0,0.6,0.5,0.9,1.3,0.9C104.3,28.9,105,28.5,105.3,27.8z"/>
		<path class="st4" d="M112.7,23.2v1.5c-0.1,0-0.2,0-0.4,0c-1.2,0-1.9,0.7-1.9,2.1v3.2h-1.6v-6.6h1.5v1
			C110.8,23.6,111.6,23.2,112.7,23.2z"/>
		<path class="st4" d="M119.6,26v3.9h-1.5v-0.8c-0.4,0.6-1.1,0.9-2.1,0.9c-1.5,0-2.5-0.8-2.5-2c0-1.1,0.7-2,2.8-2h1.7v-0.1
			c0-0.9-0.5-1.4-1.7-1.4c-0.7,0-1.5,0.2-2,0.7l-0.6-1.1c0.7-0.5,1.7-0.8,2.8-0.8C118.5,23.2,119.6,24.1,119.6,26z M118.1,27.8v-0.8
			h-1.6c-1.1,0-1.3,0.4-1.3,0.9c0,0.6,0.5,0.9,1.3,0.9C117.1,28.9,117.8,28.5,118.1,27.8z"/>
		<path class="st4" d="M125.7,29.6c-0.4,0.3-0.9,0.4-1.5,0.4c-1.5,0-2.3-0.8-2.3-2.2v-3.2h-1.1v-1.2h1.1v-1.5h1.6v1.5h1.8v1.2h-1.8
			v3.2c0,0.6,0.3,1,0.9,1c0.3,0,0.6-0.1,0.9-0.3L125.7,29.6z"/>
		<path class="st4" d="M126.8,21.2c0-0.5,0.4-0.9,1-0.9c0.6,0,1,0.4,1,0.9c0,0.5-0.4,1-1,1C127.2,22.2,126.8,21.8,126.8,21.2z
			 M127,23.3h1.6v6.6H127V23.3z"/>
		<path class="st4" d="M130.1,26.6c0-2,1.5-3.4,3.5-3.4c2.1,0,3.5,1.4,3.5,3.4s-1.5,3.4-3.5,3.4C131.6,30,130.1,28.6,130.1,26.6z
			 M135.6,26.6c0-1.3-0.8-2.1-2-2.1c-1.1,0-2,0.8-2,2.1c0,1.3,0.8,2.1,2,2.1C134.8,28.7,135.6,27.9,135.6,26.6z"/>
		<path class="st4" d="M145.3,26.1v3.8h-1.6v-3.6c0-1.2-0.6-1.8-1.6-1.8c-1.1,0-1.9,0.7-1.9,2v3.4h-1.6v-6.6h1.5v0.9
			c0.5-0.6,1.3-0.9,2.3-0.9C144.1,23.2,145.3,24.1,145.3,26.1z"/>
	</g>
</g>
<g id="Graphics">
	<g>
		<path class="st4" d="M33.9,33.6c-1.8,0-3.3-0.7-4.5-2.2c-1.1-1.5-1.7-3.5-1.7-5.9c0-2.4,0.6-4.4,1.7-5.9c1.1-1.5,2.6-2.2,4.5-2.2
			c1.8,0,3.3,0.8,4.5,2.2c1.1,1.5,1.7,3.5,1.7,5.9c0,2.4-0.6,4.4-1.7,5.9C37.2,32.8,35.7,33.6,33.9,33.6L33.9,33.6z M33.9,20.9
			c-0.5,0-0.8,0.3-1,0.8c-0.2,0.5-0.4,1.5-0.4,3.7c0,2.2,0.2,3.2,0.4,3.7c0.2,0.6,0.5,0.8,1,0.8c0.5,0,0.8-0.3,1-0.8
			c0.2-0.5,0.4-1.5,0.4-3.7c0-2.2-0.2-3.2-0.4-3.7C34.7,21.2,34.4,20.9,33.9,20.9L33.9,20.9z M49.4,33.6c0.3,0,0.6-0.4,0.6-0.8v-2
			c0-0.5-0.3-0.8-0.6-0.8h-0.8c-0.8,0-0.9-0.4-0.9-0.9V18.1c0-0.5-0.3-0.8-0.6-0.8h-2.7c-0.3,0-0.5,0.2-0.6,0.5
			c-0.2,0.5-0.4,0.8-0.9,1.1c-0.5,0.3-1.2,0.4-2,0.5c-0.3,0-0.6,0.4-0.6,0.8v2c0,0.2,0.1,0.4,0.2,0.6c0.1,0.2,0.3,0.2,0.4,0.2h1.8
			v5.9v0.5c0,0.3,0,0.6-0.9,0.6h-0.9c-0.3,0-0.6,0.4-0.6,0.8v2c0,0.5,0.3,0.8,0.6,0.8H49.4L49.4,33.6z"/>
		<path class="st1" d="M40.9,32.7v-2h0.9c0.6,0,1-0.1,1.2-0.2c0.2-0.1,0.3-0.5,0.3-1.2v-0.5v-6.8h-2.5v-2c0.9,0,1.7-0.2,2.3-0.5
			c0.6-0.3,1-0.8,1.2-1.5h2.7v10.9c0,0.8,0.1,1.3,0.2,1.4c0.2,0.2,0.6,0.3,1.3,0.3h0.8v2H40.9z M28.3,25.5c0-2.2,0.5-4,1.6-5.3
			c1-1.3,2.4-2,4.1-2c1.7,0,3,0.7,4.1,2c1,1.3,1.5,3.1,1.5,5.3c0,2.2-0.5,4-1.6,5.3c-1,1.3-2.4,2-4.1,2c-1.7,0-3-0.7-4.1-2
			C28.8,29.4,28.3,27.7,28.3,25.5z M31.9,25.5c0,1.9,0.2,3.2,0.5,4.1c0.3,0.8,0.8,1.2,1.5,1.2c0.7,0,1.2-0.4,1.6-1.3
			c0.3-0.8,0.5-2.2,0.5-4.1c0-1.9-0.2-3.3-0.5-4.1c-0.3-0.8-0.8-1.3-1.5-1.3c-0.7,0-1.2,0.4-1.6,1.3C32,22.2,31.9,23.6,31.9,25.5z"
			/>
		<path class="st5" d="M47.2,30.6L47,31c-0.3-0.3-0.4-0.9-0.4-1.9V18.8l0.3-0.4v10.7C46.9,29.9,47,30.4,47.2,30.6z M43.4,21.5h-2
			l-0.3,0.4h2.3c0,0,0.1,0,0.1,0.1l0.2-0.3C43.6,21.6,43.5,21.5,43.4,21.5z M48.9,31.4v0.8h-7.5l-0.3,0.4h8.2V31L48.9,31.4z
			 M32.2,29.6c-0.3-0.9-0.5-2.2-0.5-4.2c0-1.9,0.2-3.3,0.5-4.2c0.3-0.9,0.9-1.4,1.7-1.4c0.5,0,1,0.2,1.3,0.6l0.2-0.3
			c-0.4-0.5-0.9-0.8-1.5-0.8c-0.9,0-1.5,0.5-1.9,1.6c-0.4,0.9-0.5,2.4-0.5,4.3c0,2,0.2,3.4,0.5,4.3c0.1,0.3,0.3,0.6,0.4,0.8l0.2-0.3
			C32.4,30.1,32.3,29.9,32.2,29.6z M37.9,20.3l-0.2,0.3c0.9,1.2,1.4,2.8,1.4,4.8c0,2-0.5,3.7-1.4,4.9c-0.9,1.2-2.2,1.8-3.8,1.8
			c-1.6,0-2.8-0.6-3.8-1.8v0l-0.2,0.3c0,0,0,0,0,0c1,1.3,2.3,2,4,2c1.6,0,3-0.7,4-2c1-1.3,1.5-3,1.5-5.2
			C39.4,23.3,38.9,21.6,37.9,20.3z"/>
	</g>
</g>
<g id="Layer_5">
	<g class="st11">
		<path id="Path_1554_7_" class="st12" d="M167.7,195c0,4.2-3.4,7.6-7.6,7.6c-4.2,0-7.6-3.4-7.6-7.6s3.4-7.6,7.6-7.6
			C164.3,187.5,167.7,190.9,167.7,195z"/>
		<g id="Group_1434_7_" transform="translate(4.574 4.222)">
			<g id="arrow_7_" transform="translate(4.574 0)">
				<path id="arrow-2_7_" class="st4" d="M151,195.4c-0.2,0-0.4-0.1-0.6-0.2l-3.3-3.2c-0.3-0.3-0.3-0.8-0.1-1.1c0,0,0,0,0.1-0.1
					c0.3-0.3,0.8-0.3,1.2,0c0,0,0,0,0,0l2.7,2.7l2.7-2.7c0.3-0.3,0.8-0.3,1.2,0c0,0,0,0,0,0c0.3,0.3,0.3,0.8,0,1.1c0,0,0,0,0,0
					l-3.3,3.2C151.4,195.3,151.2,195.4,151,195.4z"/>
			</g>
			<path class="st4" d="M155.5,194.6c-0.6,0-1-0.4-1-1v-6.8c0-0.6,0.4-1,1-1s1,0.4,1,1v6.8C156.5,194.2,156,194.6,155.5,194.6z"/>
		</g>
	</g>
	<g class="st11">
		<rect x="28.5" y="208.3" class="st2" width="263.1" height="76"/>
		<g>
			<g>
				<path class="st9" d="M71.2,256c-0.4-0.2-0.8-0.4-1.1-0.7l0.3-0.5c0.4,0.3,0.7,0.5,1.1,0.7c0.4,0.1,0.8,0.2,1.3,0.2
					c0.6,0,1.1-0.1,1.4-0.4c0.3-0.2,0.5-0.6,0.5-1c0-0.3-0.1-0.5-0.2-0.6c-0.2-0.2-0.4-0.3-0.6-0.4c-0.3-0.1-0.6-0.2-1-0.3
					c-0.5-0.1-1-0.2-1.3-0.4c-0.3-0.1-0.6-0.3-0.9-0.6c-0.2-0.3-0.4-0.6-0.4-1c0-0.4,0.1-0.8,0.3-1.1c0.2-0.3,0.5-0.5,0.9-0.7
					s0.8-0.3,1.3-0.3c0.5,0,0.9,0.1,1.4,0.2c0.4,0.2,0.8,0.4,1.1,0.7l-0.3,0.5c-0.3-0.3-0.7-0.5-1-0.7c-0.3-0.1-0.7-0.2-1.1-0.2
					c-0.6,0-1.1,0.1-1.4,0.4c-0.3,0.3-0.5,0.6-0.5,1.1c0,0.4,0.1,0.7,0.4,0.9s0.7,0.4,1.3,0.5l0.3,0.1c0.5,0.1,1,0.3,1.3,0.4
					c0.3,0.1,0.6,0.3,0.8,0.5c0.2,0.2,0.3,0.6,0.3,1c0,0.4-0.1,0.7-0.3,1c-0.2,0.3-0.5,0.5-0.9,0.7c-0.4,0.2-0.8,0.2-1.3,0.2
					C72.1,256.2,71.6,256.1,71.2,256z"/>
				<path class="st9" d="M76.9,253.5L76.9,253.5c0,0.7,0.2,1.2,0.5,1.6c0.3,0.4,0.8,0.5,1.4,0.5c0.6,0,1.2-0.2,1.7-0.6l0.2,0.5
					c-0.2,0.2-0.5,0.4-0.8,0.5c-0.3,0.1-0.7,0.2-1.1,0.2c-0.8,0-1.4-0.2-1.8-0.7c-0.4-0.5-0.7-1.1-0.7-1.9c0-0.5,0.1-1,0.3-1.4
					c0.2-0.4,0.5-0.7,0.8-0.9c0.4-0.2,0.8-0.3,1.2-0.3c0.7,0,1.2,0.2,1.6,0.6c0.4,0.4,0.6,1,0.6,1.8v0.1H76.9z M77.5,251.9
					c-0.3,0.3-0.5,0.7-0.5,1.2h3.2c0-0.5-0.2-0.9-0.5-1.2c-0.3-0.3-0.6-0.4-1.1-0.4C78.1,251.5,77.8,251.6,77.5,251.9z"/>
				<path class="st9" d="M82.9,255.8c-0.4-0.2-0.6-0.5-0.8-0.9c-0.2-0.4-0.3-0.8-0.3-1.4c0-0.5,0.1-1,0.3-1.4
					c0.2-0.4,0.5-0.7,0.8-0.9c0.4-0.2,0.8-0.3,1.3-0.3c0.3,0,0.7,0.1,1,0.2s0.6,0.3,0.8,0.5l-0.2,0.5c-0.3-0.2-0.5-0.4-0.7-0.5
					s-0.5-0.1-0.7-0.1c-0.5,0-1,0.2-1.3,0.6c-0.3,0.4-0.5,0.9-0.5,1.5c0,0.6,0.2,1.1,0.5,1.5c0.3,0.4,0.7,0.5,1.3,0.5
					c0.3,0,0.5,0,0.7-0.1s0.5-0.2,0.7-0.5l0.2,0.5c-0.2,0.2-0.5,0.4-0.8,0.5c-0.3,0.1-0.6,0.2-1,0.2
					C83.6,256.2,83.2,256.1,82.9,255.8z"/>
				<path class="st9" d="M91.1,251.1v5h-0.6v-0.9c-0.2,0.3-0.4,0.6-0.7,0.7c-0.3,0.2-0.6,0.3-1,0.3c-0.6,0-1-0.2-1.3-0.5
					c-0.3-0.3-0.5-0.8-0.5-1.5v-3.2h0.6v3.1c0,0.5,0.1,0.9,0.3,1.1c0.2,0.2,0.5,0.4,0.9,0.4c0.5,0,0.9-0.2,1.2-0.5
					c0.3-0.3,0.4-0.7,0.4-1.2v-2.9H91.1z"/>
				<path class="st9" d="M95.4,251l0,0.6c-0.1,0-0.3,0-0.5,0c-0.5,0-0.9,0.2-1.1,0.5c-0.3,0.3-0.4,0.7-0.4,1.2v3h-0.6v-3.6
					c0-0.5,0-1-0.1-1.4h0.6l0.1,0.9c0.1-0.3,0.3-0.6,0.6-0.8c0.3-0.2,0.6-0.3,1-0.3C95.1,251,95.3,251,95.4,251z"/>
				<path class="st9" d="M97.1,249v0.8h-0.8V249H97.1z M96.4,251.1H97v5h-0.6V251.1z"/>
				<path class="st9" d="M99.6,251.6v3c0,0.4,0.1,0.7,0.2,0.8c0.2,0.2,0.4,0.2,0.7,0.2c0.2,0,0.4,0,0.5-0.1v0.6
					c-0.2,0.1-0.4,0.1-0.7,0.1c-0.4,0-0.8-0.1-1-0.4c-0.3-0.2-0.4-0.6-0.4-1.1v-3.1h-1v-0.5h1v-1.3l0.6-0.2v1.6h1.5v0.5H99.6z"/>
				<path class="st9" d="M106.4,251.1l-2.4,5.5c-0.2,0.5-0.5,1-0.9,1.2c-0.4,0.3-0.8,0.4-1.3,0.5l-0.1-0.5c0.5-0.1,0.8-0.3,1.1-0.4
					c0.2-0.2,0.4-0.5,0.6-0.9l0.2-0.5l-2.1-5h0.7l1.8,4.4l1.8-4.4H106.4z"/>
				<path class="st9" d="M114.9,254.2H111l-0.8,1.9h-0.6l3.1-7.1h0.6l3.1,7.1h-0.6L114.9,254.2z M114.6,253.7l-1.7-3.9l-1.7,3.9
					H114.6z"/>
				<path class="st9" d="M121.5,251.1v5h-0.6v-0.9c-0.2,0.3-0.4,0.6-0.7,0.7c-0.3,0.2-0.6,0.3-1,0.3c-0.6,0-1-0.2-1.3-0.5
					c-0.3-0.3-0.5-0.8-0.5-1.5v-3.2h0.6v3.1c0,0.5,0.1,0.9,0.3,1.1c0.2,0.2,0.5,0.4,0.9,0.4c0.5,0,0.9-0.2,1.2-0.5
					c0.3-0.3,0.4-0.7,0.4-1.2v-2.9H121.5z"/>
				<path class="st9" d="M124.1,251.6v3c0,0.4,0.1,0.7,0.2,0.8c0.2,0.2,0.4,0.2,0.7,0.2c0.2,0,0.4,0,0.5-0.1v0.6
					c-0.2,0.1-0.4,0.1-0.7,0.1c-0.4,0-0.8-0.1-1-0.4c-0.3-0.2-0.4-0.6-0.4-1.1v-3.1h-1v-0.5h1v-1.3l0.6-0.2v1.6h1.5v0.5H124.1z"/>
				<path class="st9" d="M130.8,252.9v3.2h-0.6v-3.2c0-0.5-0.1-0.9-0.3-1.1c-0.2-0.2-0.5-0.4-1-0.4c-0.5,0-0.9,0.2-1.2,0.5
					c-0.3,0.3-0.5,0.7-0.5,1.2v2.9h-0.6v-7.4h0.6v3.2c0.2-0.3,0.4-0.6,0.7-0.7c0.3-0.2,0.6-0.3,1-0.3
					C130.2,251,130.8,251.6,130.8,252.9z"/>
				<path class="st9" d="M133.3,255.8c-0.4-0.2-0.6-0.5-0.8-0.9c-0.2-0.4-0.3-0.9-0.3-1.4s0.1-1,0.3-1.4c0.2-0.4,0.5-0.7,0.8-0.9
					c0.4-0.2,0.8-0.3,1.2-0.3c0.5,0,0.9,0.1,1.2,0.3c0.3,0.2,0.6,0.5,0.8,0.9c0.2,0.4,0.3,0.9,0.3,1.4s-0.1,1-0.3,1.4
					c-0.2,0.4-0.5,0.7-0.8,0.9c-0.3,0.2-0.7,0.3-1.2,0.3C134,256.2,133.6,256.1,133.3,255.8z M135.7,255.1c0.3-0.4,0.4-0.9,0.4-1.5
					c0-0.7-0.1-1.2-0.4-1.5c-0.3-0.4-0.7-0.5-1.2-0.5c-0.5,0-0.9,0.2-1.2,0.5c-0.3,0.4-0.4,0.9-0.4,1.5c0,0.7,0.1,1.2,0.4,1.5
					c0.3,0.4,0.7,0.5,1.2,0.5C135,255.6,135.4,255.4,135.7,255.1z"/>
				<path class="st9" d="M140.8,251l0,0.6c-0.1,0-0.3,0-0.5,0c-0.5,0-0.9,0.2-1.1,0.5c-0.3,0.3-0.4,0.7-0.4,1.2v3h-0.6v-3.6
					c0-0.5,0-1-0.1-1.4h0.6l0.1,0.9c0.1-0.3,0.3-0.6,0.6-0.8c0.3-0.2,0.6-0.3,1-0.3C140.5,251,140.7,251,140.8,251z"/>
				<path class="st9" d="M142.5,249v0.8h-0.8V249H142.5z M141.7,251.1h0.6v5h-0.6V251.1z"/>
				<path class="st9" d="M148,255.6v0.5h-4.2v-0.4l3.3-4.1h-3.2v-0.5h4v0.5l-3.3,4.1H148z"/>
				<path class="st9" d="M153.5,251.1v5h-0.6v-1c-0.1,0.3-0.4,0.6-0.7,0.8c-0.3,0.2-0.7,0.3-1.1,0.3c-0.4,0-0.8-0.1-1.2-0.3
					c-0.3-0.2-0.6-0.5-0.8-0.9c-0.2-0.4-0.3-0.8-0.3-1.4c0-0.5,0.1-1,0.3-1.4c0.2-0.4,0.4-0.7,0.8-0.9c0.3-0.2,0.7-0.3,1.2-0.3
					c0.4,0,0.8,0.1,1.1,0.3c0.3,0.2,0.5,0.4,0.7,0.8v-0.9H153.5z M152.4,255.1c0.3-0.4,0.4-0.9,0.4-1.5c0-0.7-0.1-1.2-0.4-1.5
					c-0.3-0.4-0.7-0.5-1.2-0.5c-0.5,0-0.9,0.2-1.2,0.6s-0.4,0.9-0.4,1.5c0,0.6,0.1,1.2,0.4,1.5c0.3,0.4,0.7,0.5,1.2,0.5
					C151.7,255.6,152.1,255.4,152.4,255.1z"/>
				<path class="st9" d="M156,251.6v3c0,0.4,0.1,0.7,0.2,0.8c0.2,0.2,0.4,0.2,0.7,0.2c0.2,0,0.4,0,0.5-0.1v0.6
					c-0.2,0.1-0.4,0.1-0.7,0.1c-0.4,0-0.8-0.1-1-0.4c-0.3-0.2-0.4-0.6-0.4-1.1v-3.1h-1v-0.5h1v-1.3l0.6-0.2v1.6h1.5v0.5H156z"/>
				<path class="st9" d="M159.3,249v0.8h-0.8V249H159.3z M158.6,251.1h0.6v5h-0.6V251.1z"/>
				<path class="st9" d="M161.7,255.8c-0.4-0.2-0.6-0.5-0.8-0.9c-0.2-0.4-0.3-0.9-0.3-1.4s0.1-1,0.3-1.4c0.2-0.4,0.5-0.7,0.8-0.9
					c0.4-0.2,0.8-0.3,1.2-0.3c0.5,0,0.9,0.1,1.2,0.3c0.3,0.2,0.6,0.5,0.8,0.9c0.2,0.4,0.3,0.9,0.3,1.4s-0.1,1-0.3,1.4
					c-0.2,0.4-0.5,0.7-0.8,0.9c-0.3,0.2-0.7,0.3-1.2,0.3C162.5,256.2,162.1,256.1,161.7,255.8z M164.2,255.1
					c0.3-0.4,0.4-0.9,0.4-1.5c0-0.7-0.1-1.2-0.4-1.5c-0.3-0.4-0.7-0.5-1.2-0.5c-0.5,0-0.9,0.2-1.2,0.5c-0.3,0.4-0.4,0.9-0.4,1.5
					c0,0.7,0.1,1.2,0.4,1.5c0.3,0.4,0.7,0.5,1.2,0.5C163.5,255.6,163.9,255.4,164.2,255.1z"/>
				<path class="st9" d="M170.8,252.9v3.2h-0.6v-3.2c0-0.5-0.1-0.9-0.3-1.1c-0.2-0.2-0.5-0.4-1-0.4c-0.5,0-0.9,0.2-1.2,0.5
					c-0.3,0.3-0.5,0.7-0.5,1.2v2.9h-0.6v-3.6c0-0.5,0-1-0.1-1.4h0.6l0.1,0.9c0.2-0.3,0.4-0.6,0.7-0.8c0.3-0.2,0.7-0.3,1.1-0.3
					C170.2,251,170.8,251.6,170.8,252.9z"/>
				<path class="st9" d="M175.2,249h2.7c0.7,0,1.3,0.2,1.7,0.5c0.4,0.3,0.6,0.8,0.6,1.4c0,0.6-0.2,1.1-0.6,1.5s-1,0.5-1.7,0.5h-2.1
					v3.2h-0.6V249z M177.9,252.3c0.6,0,1-0.1,1.3-0.4c0.3-0.2,0.4-0.6,0.4-1.1c0-0.5-0.1-0.8-0.4-1.1c-0.3-0.2-0.7-0.4-1.3-0.4h-2.1
					v2.9H177.9z"/>
				<path class="st9" d="M185.7,251.1v5h-0.6v-1c-0.1,0.3-0.4,0.6-0.7,0.8c-0.3,0.2-0.7,0.3-1.1,0.3c-0.4,0-0.8-0.1-1.2-0.3
					c-0.3-0.2-0.6-0.5-0.8-0.9c-0.2-0.4-0.3-0.8-0.3-1.4c0-0.5,0.1-1,0.3-1.4c0.2-0.4,0.4-0.7,0.8-0.9c0.3-0.2,0.7-0.3,1.2-0.3
					c0.4,0,0.8,0.1,1.1,0.3c0.3,0.2,0.5,0.4,0.7,0.8v-0.9H185.7z M184.7,255.1c0.3-0.4,0.4-0.9,0.4-1.5c0-0.7-0.1-1.2-0.4-1.5
					c-0.3-0.4-0.7-0.5-1.2-0.5c-0.5,0-0.9,0.2-1.2,0.6s-0.4,0.9-0.4,1.5c0,0.6,0.1,1.2,0.4,1.5c0.3,0.4,0.7,0.5,1.2,0.5
					C184,255.6,184.4,255.4,184.7,255.1z"/>
				<path class="st9" d="M188.2,255.8c-0.4-0.2-0.6-0.5-0.8-0.9c-0.2-0.4-0.3-0.8-0.3-1.4c0-0.5,0.1-1,0.3-1.4
					c0.2-0.4,0.5-0.7,0.8-0.9c0.4-0.2,0.8-0.3,1.3-0.3c0.3,0,0.7,0.1,1,0.2s0.6,0.3,0.8,0.5l-0.2,0.5c-0.3-0.2-0.5-0.4-0.7-0.5
					s-0.5-0.1-0.7-0.1c-0.5,0-1,0.2-1.3,0.6c-0.3,0.4-0.5,0.9-0.5,1.5c0,0.6,0.2,1.1,0.5,1.5c0.3,0.4,0.7,0.5,1.3,0.5
					c0.3,0,0.5,0,0.7-0.1s0.5-0.2,0.7-0.5l0.2,0.5c-0.2,0.2-0.5,0.4-0.8,0.5c-0.3,0.1-0.6,0.2-1,0.2
					C189,256.2,188.6,256.1,188.2,255.8z"/>
				<path class="st9" d="M195.8,256.1l-2.8-2.4v2.4h-0.6v-7.4h0.6v4.7l2.5-2.3h0.8l-2.6,2.4l2.9,2.6H195.8z"/>
				<path class="st9" d="M201.6,251.1v5H201v-1c-0.1,0.3-0.4,0.6-0.7,0.8c-0.3,0.2-0.7,0.3-1.1,0.3c-0.4,0-0.8-0.1-1.2-0.3
					c-0.3-0.2-0.6-0.5-0.8-0.9c-0.2-0.4-0.3-0.8-0.3-1.4c0-0.5,0.1-1,0.3-1.4c0.2-0.4,0.4-0.7,0.8-0.9c0.3-0.2,0.7-0.3,1.2-0.3
					c0.4,0,0.8,0.1,1.1,0.3c0.3,0.2,0.5,0.4,0.7,0.8v-0.9H201.6z M200.6,255.1c0.3-0.4,0.4-0.9,0.4-1.5c0-0.7-0.1-1.2-0.4-1.5
					c-0.3-0.4-0.7-0.5-1.2-0.5c-0.5,0-0.9,0.2-1.2,0.6s-0.4,0.9-0.4,1.5c0,0.6,0.1,1.2,0.4,1.5c0.3,0.4,0.7,0.5,1.2,0.5
					C199.9,255.6,200.3,255.4,200.6,255.1z"/>
				<path class="st9" d="M207.6,251.1v5c0,0.7-0.2,1.3-0.5,1.7s-0.9,0.6-1.6,0.6c-0.7,0-1.4-0.2-2-0.5l0.1-0.5
					c0.3,0.2,0.6,0.3,0.9,0.4c0.3,0.1,0.6,0.1,0.9,0.1c0.5,0,0.9-0.1,1.1-0.4c0.3-0.3,0.4-0.7,0.4-1.2v-1.3
					c-0.2,0.3-0.4,0.6-0.7,0.8c-0.3,0.2-0.7,0.3-1.1,0.3c-0.4,0-0.8-0.1-1.2-0.3s-0.6-0.5-0.8-0.9c-0.2-0.4-0.3-0.8-0.3-1.3
					c0-0.5,0.1-0.9,0.3-1.3c0.2-0.4,0.5-0.7,0.8-0.9c0.3-0.2,0.7-0.3,1.2-0.3c0.4,0,0.8,0.1,1.1,0.3c0.3,0.2,0.5,0.4,0.7,0.8v-0.9
					H207.6z M206.6,254.9c0.3-0.3,0.4-0.8,0.4-1.4c0-0.6-0.1-1.1-0.4-1.4c-0.3-0.4-0.7-0.5-1.2-0.5c-0.5,0-0.9,0.2-1.2,0.5
					c-0.3,0.4-0.5,0.8-0.5,1.4s0.2,1.1,0.5,1.4c0.3,0.3,0.7,0.5,1.2,0.5C205.9,255.4,206.3,255.2,206.6,254.9z"/>
				<path class="st9" d="M209.7,253.5L209.7,253.5c0,0.7,0.2,1.2,0.5,1.6c0.3,0.4,0.8,0.5,1.4,0.5c0.6,0,1.2-0.2,1.7-0.6l0.2,0.5
					c-0.2,0.2-0.5,0.4-0.8,0.5c-0.3,0.1-0.7,0.2-1.1,0.2c-0.8,0-1.4-0.2-1.8-0.7c-0.4-0.5-0.7-1.1-0.7-1.9c0-0.5,0.1-1,0.3-1.4
					c0.2-0.4,0.5-0.7,0.8-0.9c0.4-0.2,0.8-0.3,1.2-0.3c0.7,0,1.2,0.2,1.6,0.6c0.4,0.4,0.6,1,0.6,1.8v0.1H209.7z M210.3,251.9
					c-0.3,0.3-0.5,0.7-0.5,1.2h3.2c0-0.5-0.2-0.9-0.5-1.2c-0.3-0.3-0.6-0.4-1.1-0.4C210.9,251.5,210.6,251.6,210.3,251.9z"/>
				<path class="st9" d="M218,255.7c-0.2-0.7-0.3-1.5-0.3-2.3c0-0.8,0.1-1.5,0.3-2.3c0.2-0.7,0.4-1.5,0.8-2.2h0.5
					c-0.4,0.8-0.6,1.6-0.8,2.3s-0.2,1.4-0.2,2.2c0,0.7,0.1,1.4,0.2,2.2c0.2,0.7,0.4,1.5,0.8,2.3h-0.5
					C218.4,257.2,218.1,256.4,218,255.7z"/>
				<path class="st9" d="M221.3,256c-0.4-0.2-0.8-0.4-1.1-0.7l0.3-0.5c0.4,0.3,0.7,0.5,1.1,0.7c0.4,0.1,0.8,0.2,1.3,0.2
					c0.6,0,1.1-0.1,1.4-0.4c0.3-0.2,0.5-0.6,0.5-1c0-0.3-0.1-0.5-0.2-0.6c-0.2-0.2-0.4-0.3-0.6-0.4c-0.3-0.1-0.6-0.2-1-0.3
					c-0.5-0.1-1-0.2-1.3-0.4c-0.3-0.1-0.6-0.3-0.9-0.6c-0.2-0.3-0.4-0.6-0.4-1c0-0.4,0.1-0.8,0.3-1.1c0.2-0.3,0.5-0.5,0.9-0.7
					s0.8-0.3,1.3-0.3c0.5,0,0.9,0.1,1.4,0.2c0.4,0.2,0.8,0.4,1.1,0.7l-0.3,0.5c-0.3-0.3-0.7-0.5-1-0.7c-0.3-0.1-0.7-0.2-1.1-0.2
					c-0.6,0-1.1,0.1-1.4,0.4c-0.3,0.3-0.5,0.6-0.5,1.1c0,0.4,0.1,0.7,0.4,0.9s0.7,0.4,1.3,0.5l0.3,0.1c0.5,0.1,1,0.3,1.3,0.4
					c0.3,0.1,0.6,0.3,0.8,0.5c0.2,0.2,0.3,0.6,0.3,1c0,0.4-0.1,0.7-0.3,1c-0.2,0.3-0.5,0.5-0.9,0.7c-0.4,0.2-0.8,0.2-1.3,0.2
					C222.3,256.2,221.8,256.1,221.3,256z"/>
				<path class="st9" d="M227.5,256c-0.4-0.2-0.8-0.4-1.1-0.7l0.3-0.5c0.4,0.3,0.7,0.5,1.1,0.7c0.4,0.1,0.8,0.2,1.3,0.2
					c0.6,0,1.1-0.1,1.4-0.4c0.3-0.2,0.5-0.6,0.5-1c0-0.3-0.1-0.5-0.2-0.6c-0.2-0.2-0.4-0.3-0.6-0.4c-0.3-0.1-0.6-0.2-1-0.3
					c-0.5-0.1-1-0.2-1.3-0.4c-0.3-0.1-0.6-0.3-0.9-0.6c-0.2-0.3-0.4-0.6-0.4-1c0-0.4,0.1-0.8,0.3-1.1c0.2-0.3,0.5-0.5,0.9-0.7
					s0.8-0.3,1.3-0.3c0.5,0,0.9,0.1,1.4,0.2c0.4,0.2,0.8,0.4,1.1,0.7l-0.3,0.5c-0.3-0.3-0.7-0.5-1-0.7c-0.3-0.1-0.7-0.2-1.1-0.2
					c-0.6,0-1.1,0.1-1.4,0.4c-0.3,0.3-0.5,0.6-0.5,1.1c0,0.4,0.1,0.7,0.4,0.9s0.7,0.4,1.3,0.5l0.3,0.1c0.5,0.1,1,0.3,1.3,0.4
					c0.3,0.1,0.6,0.3,0.8,0.5c0.2,0.2,0.3,0.6,0.3,1c0,0.4-0.1,0.7-0.3,1c-0.2,0.3-0.5,0.5-0.9,0.7c-0.4,0.2-0.8,0.2-1.3,0.2
					C228.5,256.2,228,256.1,227.5,256z"/>
				<path class="st9" d="M233,249h2.7c0.7,0,1.3,0.2,1.7,0.5c0.4,0.3,0.6,0.8,0.6,1.4c0,0.6-0.2,1.1-0.6,1.5s-1,0.5-1.7,0.5h-2.1
					v3.2H233V249z M235.7,252.3c0.6,0,1-0.1,1.3-0.4c0.3-0.2,0.4-0.6,0.4-1.1c0-0.5-0.1-0.8-0.4-1.1c-0.3-0.2-0.7-0.4-1.3-0.4h-2.1
					v2.9H235.7z"/>
				<path class="st9" d="M239.6,255.2v0.6c0,0.3,0,0.5-0.1,0.7c-0.1,0.2-0.2,0.4-0.4,0.6l-0.3-0.3c0.2-0.3,0.4-0.5,0.4-0.8h-0.4
					v-0.9H239.6z"/>
				<path class="st9" d="M244.6,256c-0.4-0.2-0.8-0.4-1.1-0.7l0.3-0.5c0.4,0.3,0.7,0.5,1.1,0.7c0.4,0.1,0.8,0.2,1.3,0.2
					c0.6,0,1.1-0.1,1.4-0.4c0.3-0.2,0.5-0.6,0.5-1c0-0.3-0.1-0.5-0.2-0.6c-0.2-0.2-0.4-0.3-0.6-0.4c-0.3-0.1-0.6-0.2-1-0.3
					c-0.5-0.1-1-0.2-1.3-0.4c-0.3-0.1-0.6-0.3-0.9-0.6c-0.2-0.3-0.4-0.6-0.4-1c0-0.4,0.1-0.8,0.3-1.1c0.2-0.3,0.5-0.5,0.9-0.7
					s0.8-0.3,1.3-0.3c0.5,0,0.9,0.1,1.4,0.2c0.4,0.2,0.8,0.4,1.1,0.7l-0.3,0.5c-0.3-0.3-0.7-0.5-1-0.7c-0.3-0.1-0.7-0.2-1.1-0.2
					c-0.6,0-1.1,0.1-1.4,0.4c-0.3,0.3-0.5,0.6-0.5,1.1c0,0.4,0.1,0.7,0.4,0.9s0.7,0.4,1.3,0.5l0.3,0.1c0.5,0.1,1,0.3,1.3,0.4
					c0.3,0.1,0.6,0.3,0.8,0.5c0.2,0.2,0.3,0.6,0.3,1c0,0.4-0.1,0.7-0.3,1c-0.2,0.3-0.5,0.5-0.9,0.7c-0.4,0.2-0.8,0.2-1.3,0.2
					C245.6,256.2,245.1,256.1,244.6,256z"/>
				<path class="st9" d="M254.8,254.2h-3.9l-0.8,1.9h-0.6l3.1-7.1h0.6l3.1,7.1h-0.6L254.8,254.2z M254.5,253.7l-1.7-3.9l-1.7,3.9
					H254.5z"/>
				<path class="st9" d="M257.5,249h2.7c0.7,0,1.3,0.2,1.7,0.5c0.4,0.3,0.6,0.8,0.6,1.4c0,0.6-0.2,1.1-0.6,1.5s-1,0.5-1.7,0.5h-2.1
					v3.2h-0.6V249z M260.2,252.3c0.6,0,1-0.1,1.3-0.4c0.3-0.2,0.4-0.6,0.4-1.1c0-0.5-0.1-0.8-0.4-1.1c-0.3-0.2-0.7-0.4-1.3-0.4h-2.1
					v2.9H260.2z"/>
				<path class="st9" d="M264.1,255.2v0.6c0,0.3,0,0.5-0.1,0.7c-0.1,0.2-0.2,0.4-0.4,0.6l-0.3-0.3c0.2-0.3,0.4-0.5,0.4-0.8h-0.4
					v-0.9H264.1z"/>
				<path class="st9" d="M71.2,268.5c-0.4-0.2-0.8-0.4-1.1-0.7l0.3-0.5c0.4,0.3,0.7,0.5,1.1,0.7c0.4,0.1,0.8,0.2,1.3,0.2
					c0.6,0,1.1-0.1,1.4-0.4c0.3-0.2,0.5-0.6,0.5-1c0-0.3-0.1-0.5-0.2-0.6c-0.2-0.2-0.4-0.3-0.6-0.4c-0.3-0.1-0.6-0.2-1-0.3
					c-0.5-0.1-1-0.2-1.3-0.4c-0.3-0.1-0.6-0.3-0.9-0.6c-0.2-0.3-0.4-0.6-0.4-1c0-0.4,0.1-0.8,0.3-1.1c0.2-0.3,0.5-0.5,0.9-0.7
					s0.8-0.3,1.3-0.3c0.5,0,0.9,0.1,1.4,0.2c0.4,0.2,0.8,0.4,1.1,0.7l-0.3,0.5c-0.3-0.3-0.7-0.5-1-0.7c-0.3-0.1-0.7-0.2-1.1-0.2
					c-0.6,0-1.1,0.1-1.4,0.4c-0.3,0.3-0.5,0.6-0.5,1.1c0,0.4,0.1,0.7,0.4,0.9s0.7,0.4,1.3,0.5l0.3,0.1c0.5,0.1,1,0.3,1.3,0.4
					c0.3,0.1,0.6,0.3,0.8,0.5c0.2,0.2,0.3,0.6,0.3,1c0,0.4-0.1,0.7-0.3,1c-0.2,0.3-0.5,0.5-0.9,0.7c-0.4,0.2-0.8,0.2-1.3,0.2
					C72.1,268.7,71.6,268.6,71.2,268.5z"/>
				<path class="st9" d="M81.3,266.7h-3.9l-0.8,1.9H76l3.1-7.1h0.6l3.1,7.1h-0.6L81.3,266.7z M81.1,266.2l-1.7-3.9l-1.7,3.9H81.1z"
					/>
				<path class="st9" d="M89.5,268.6h-0.6l-0.9-2.4c-0.1-0.3-0.3-0.5-0.5-0.6s-0.5-0.2-0.9-0.2h-2v3.2H84v-7.1h2.8
					c0.7,0,1.3,0.2,1.7,0.5s0.6,0.8,0.6,1.5c0,0.5-0.1,0.8-0.4,1.2c-0.2,0.3-0.6,0.5-1,0.7c0.2,0,0.4,0.1,0.5,0.3
					c0.1,0.1,0.3,0.3,0.4,0.6L89.5,268.6z M86.7,264.9c1.2,0,1.8-0.5,1.8-1.5c0-0.9-0.6-1.4-1.8-1.4h-2.1v2.9H86.7z"/>
				<path class="st9" d="M91.7,267.8v0.6c0,0.3,0,0.5-0.1,0.7c-0.1,0.2-0.2,0.4-0.4,0.6l-0.3-0.3c0.2-0.3,0.4-0.5,0.4-0.8h-0.4v-0.9
					H91.7z"/>
				<path class="st9" d="M95.9,261.5h2.7c0.7,0,1.3,0.2,1.7,0.5c0.4,0.3,0.6,0.8,0.6,1.4c0,0.6-0.2,1.1-0.6,1.5s-1,0.5-1.7,0.5h-2.1
					v3.2h-0.6V261.5z M98.6,264.9c0.6,0,1-0.1,1.3-0.4c0.3-0.2,0.4-0.6,0.4-1.1c0-0.5-0.1-0.8-0.4-1.1c-0.3-0.2-0.7-0.4-1.3-0.4
					h-2.1v2.9H98.6z"/>
				<path class="st9" d="M103.6,268.3c-0.5-0.3-0.8-0.7-1.1-1.3c-0.3-0.5-0.4-1.2-0.4-1.9c0-0.8,0.1-1.4,0.4-1.9s0.6-1,1.1-1.3
					c0.5-0.3,1-0.4,1.7-0.4s1.2,0.1,1.7,0.4c0.5,0.3,0.8,0.7,1.1,1.3c0.3,0.5,0.4,1.2,0.4,1.9c0,0.8-0.1,1.4-0.4,2
					c-0.3,0.6-0.6,1-1.1,1.3c-0.5,0.3-1,0.4-1.7,0.4C104.6,268.7,104.1,268.6,103.6,268.3z M107.1,267.4c0.4-0.5,0.7-1.3,0.7-2.3
					s-0.2-1.8-0.7-2.3c-0.4-0.5-1.1-0.8-1.9-0.8c-0.8,0-1.4,0.3-1.9,0.8c-0.4,0.5-0.7,1.3-0.7,2.3s0.2,1.7,0.7,2.3
					c0.4,0.5,1.1,0.8,1.9,0.8C106.1,268.2,106.7,267.9,107.1,267.4z"/>
				<path class="st9" d="M114.6,266.7h-3.9l-0.8,1.9h-0.6l3.1-7.1h0.6l3.1,7.1h-0.6L114.6,266.7z M114.4,266.2l-1.7-3.9l-1.7,3.9
					H114.4z"/>
				<path class="st9" d="M123.1,268.3l-0.4,0.4c-0.5-0.3-1-0.6-1.4-1c-0.3,0.3-0.6,0.6-1,0.7s-0.8,0.3-1.2,0.3
					c-0.4,0-0.8-0.1-1.2-0.2s-0.6-0.4-0.8-0.6s-0.3-0.6-0.3-1c0-0.4,0.1-0.8,0.4-1.2c0.3-0.3,0.7-0.7,1.3-1.1
					c-0.3-0.4-0.6-0.7-0.7-1c-0.1-0.2-0.2-0.5-0.2-0.8c0-0.5,0.2-0.8,0.5-1.1c0.3-0.3,0.7-0.4,1.2-0.4c0.5,0,0.8,0.1,1.1,0.4
					c0.3,0.2,0.4,0.6,0.4,1c0,0.3-0.1,0.7-0.3,0.9c-0.2,0.3-0.6,0.6-1.2,1l1.8,2.1c0.3-0.6,0.5-1.4,0.5-2.3h0.6c0,1.1-0.3,2-0.7,2.8
					C122,267.7,122.5,268,123.1,268.3z M121,267.3l-2-2.3c-0.5,0.3-0.9,0.6-1.1,0.9c-0.2,0.3-0.3,0.6-0.3,0.9c0,0.4,0.1,0.7,0.4,1
					s0.7,0.4,1.2,0.4C119.9,268.2,120.5,267.9,121,267.3z M118.6,263.5c0.1,0.2,0.3,0.5,0.6,0.8c0.5-0.3,0.8-0.6,1-0.8
					c0.2-0.2,0.3-0.4,0.3-0.7c0-0.3-0.1-0.5-0.3-0.7c-0.2-0.2-0.4-0.3-0.7-0.3c-0.3,0-0.6,0.1-0.8,0.3c-0.2,0.2-0.3,0.4-0.3,0.7
					C118.4,263.1,118.5,263.3,118.6,263.5z"/>
				<path class="st9" d="M130.7,261.5v7.1h-0.6v-5.7l-2.5,5.7h-0.5l-2.5-5.7l0,5.7H124v-7.1h0.5l2.8,6.4l2.8-6.4H130.7z"/>
				<path class="st9" d="M132,270.5c0.3-0.8,0.6-1.6,0.7-2.3c0.2-0.7,0.2-1.5,0.2-2.2c0-0.7-0.1-1.4-0.2-2.2s-0.4-1.5-0.8-2.3h0.5
					c0.4,0.7,0.6,1.5,0.8,2.2c0.2,0.7,0.3,1.5,0.3,2.3c0,0.8-0.1,1.5-0.3,2.3c-0.2,0.7-0.4,1.5-0.8,2.2H132z"/>
			</g>
		</g>
		<g>
			<g>
				<path class="st1" d="M47.6,226.3v2.8h4v1h-4v3.2h-1.1v-7.9H52v1H47.6z"/>
				<path class="st1" d="M58.9,227.3v6h-1v-0.9c-0.4,0.6-1.2,1-2,1c-1.5,0-2.6-0.8-2.6-2.6v-3.4h1.1v3.3c0,1.2,0.6,1.8,1.6,1.8
					c1.1,0,1.9-0.7,1.9-2v-3.1H58.9z"/>
				<path class="st1" d="M61.1,224.9h1.1v8.4h-1.1V224.9z"/>
				<path class="st1" d="M64.4,224.9h1.1v8.4h-1.1V224.9z"/>
				<path class="st1" d="M70.2,232.4l0.4-0.9c0.6,0.5,1.6,0.9,2.6,0.9c1.4,0,2-0.5,2-1.2c0-1.9-4.8-0.7-4.8-3.6c0-1.2,0.9-2.3,3-2.3
					c0.9,0,1.9,0.2,2.5,0.7l-0.4,0.9c-0.7-0.4-1.5-0.6-2.2-0.6c-1.3,0-1.9,0.6-1.9,1.3c0,1.9,4.8,0.7,4.8,3.6c0,1.2-1,2.2-3.1,2.2
					C72,233.4,70.9,233,70.2,232.4z"/>
				<path class="st1" d="M83.3,230.6h-4.9c0.1,1,1,1.8,2.2,1.8c0.7,0,1.3-0.2,1.7-0.7l0.6,0.7c-0.5,0.6-1.4,1-2.4,1
					c-1.9,0-3.2-1.3-3.2-3.1c0-1.8,1.3-3,3-3c1.7,0,3,1.2,3,3.1C83.3,230.4,83.3,230.5,83.3,230.6z M78.5,229.9h3.8
					c-0.1-1-0.9-1.7-1.9-1.7C79.3,228.1,78.6,228.8,78.5,229.9z"/>
				<path class="st1" d="M84.4,230.3c0-1.8,1.3-3,3.2-3c1.1,0,2,0.4,2.4,1.3l-0.8,0.5c-0.4-0.6-1-0.9-1.6-0.9
					c-1.2,0-2.1,0.8-2.1,2.1c0,1.3,0.9,2.1,2.1,2.1c0.7,0,1.2-0.3,1.6-0.9L90,232c-0.5,0.8-1.4,1.3-2.4,1.3
					C85.7,233.3,84.4,232.1,84.4,230.3z"/>
				<path class="st1" d="M97.1,227.3v6h-1v-0.9c-0.4,0.6-1.2,1-2,1c-1.5,0-2.6-0.8-2.6-2.6v-3.4h1.1v3.3c0,1.2,0.6,1.8,1.6,1.8
					c1.1,0,1.9-0.7,1.9-2v-3.1H97.1z"/>
				<path class="st1" d="M102.5,227.2v1c-0.1,0-0.2,0-0.2,0c-1.2,0-1.9,0.7-1.9,2v3h-1.1v-6h1v1
					C100.7,227.6,101.4,227.2,102.5,227.2z"/>
				<path class="st1" d="M103.7,225.4c0-0.4,0.3-0.7,0.7-0.7c0.4,0,0.7,0.3,0.7,0.7c0,0.4-0.3,0.7-0.7,0.7
					C104,226.1,103.7,225.8,103.7,225.4z M103.9,227.3h1.1v6h-1.1V227.3z"/>
				<path class="st1" d="M110.5,232.9c-0.3,0.3-0.8,0.4-1.3,0.4c-1.2,0-1.9-0.7-1.9-1.9v-3.3h-1v-0.9h1V226h1.1v1.3h1.7v0.9h-1.7
					v3.2c0,0.6,0.3,1,0.9,1c0.3,0,0.6-0.1,0.8-0.3L110.5,232.9z"/>
				<path class="st1" d="M117.2,227.3l-2.9,6.6c-0.5,1.3-1.2,1.7-2.1,1.7c-0.6,0-1.2-0.2-1.5-0.6l0.5-0.8c0.3,0.3,0.7,0.4,1.1,0.4
					c0.5,0,0.8-0.2,1.1-0.9l0.2-0.4l-2.6-6h1.1l2.1,4.8l2.1-4.8H117.2z"/>
				<path class="st1" d="M126.6,231.3h-4.2l-0.9,2h-1.2l3.6-7.9h1.1l3.6,7.9h-1.2L126.6,231.3z M126.2,230.4l-1.7-3.9l-1.7,3.9
					H126.2z"/>
				<path class="st1" d="M129,232.6l0.5-0.9c0.5,0.4,1.3,0.6,2.1,0.6c1,0,1.4-0.3,1.4-0.8c0-1.3-3.8-0.2-3.8-2.6
					c0-1.1,1-1.8,2.5-1.8c0.8,0,1.7,0.2,2.2,0.5l-0.5,0.9c-0.5-0.4-1.1-0.5-1.7-0.5c-0.9,0-1.4,0.4-1.4,0.8c0,1.4,3.8,0.3,3.8,2.6
					c0,1.1-1,1.8-2.6,1.8C130.5,233.3,129.5,233,129,232.6z"/>
				<path class="st1" d="M134.8,232.6l0.5-0.9c0.5,0.4,1.3,0.6,2.1,0.6c1,0,1.4-0.3,1.4-0.8c0-1.3-3.8-0.2-3.8-2.6
					c0-1.1,1-1.8,2.5-1.8c0.8,0,1.7,0.2,2.2,0.5l-0.5,0.9c-0.5-0.4-1.1-0.5-1.7-0.5c-0.9,0-1.4,0.4-1.4,0.8c0,1.4,3.8,0.3,3.8,2.6
					c0,1.1-1,1.8-2.6,1.8C136.2,233.3,135.3,233,134.8,232.6z"/>
				<path class="st1" d="M146.7,230.6h-4.9c0.1,1,1,1.8,2.2,1.8c0.7,0,1.3-0.2,1.7-0.7l0.6,0.7c-0.5,0.6-1.4,1-2.4,1
					c-1.9,0-3.2-1.3-3.2-3.1c0-1.8,1.3-3,3-3c1.7,0,3,1.2,3,3.1C146.7,230.4,146.7,230.5,146.7,230.6z M141.8,229.9h3.8
					c-0.1-1-0.9-1.7-1.9-1.7C142.7,228.1,141.9,228.8,141.8,229.9z"/>
				<path class="st1" d="M147.6,232.6l0.5-0.9c0.5,0.4,1.3,0.6,2.1,0.6c1,0,1.4-0.3,1.4-0.8c0-1.3-3.8-0.2-3.8-2.6
					c0-1.1,1-1.8,2.5-1.8c0.8,0,1.7,0.2,2.2,0.5l-0.5,0.9c-0.5-0.4-1.1-0.5-1.7-0.5c-0.9,0-1.4,0.4-1.4,0.8c0,1.4,3.8,0.3,3.8,2.6
					c0,1.1-1,1.8-2.6,1.8C149,233.3,148.1,233,147.6,232.6z"/>
				<path class="st1" d="M153.3,232.6l0.5-0.9c0.5,0.4,1.3,0.6,2.1,0.6c1,0,1.4-0.3,1.4-0.8c0-1.3-3.8-0.2-3.8-2.6
					c0-1.1,1-1.8,2.5-1.8c0.8,0,1.7,0.2,2.2,0.5l-0.5,0.9c-0.5-0.4-1.1-0.5-1.7-0.5c-0.9,0-1.4,0.4-1.4,0.8c0,1.4,3.8,0.3,3.8,2.6
					c0,1.1-1,1.8-2.6,1.8C154.8,233.3,153.8,233,153.3,232.6z"/>
				<path class="st1" d="M169.8,229.8v3.4h-1.1v-3.3c0-1.2-0.6-1.8-1.5-1.8c-1.1,0-1.8,0.7-1.8,2v3.1h-1.1v-3.3
					c0-1.2-0.6-1.8-1.5-1.8c-1.1,0-1.8,0.7-1.8,2v3.1h-1.1v-6h1v0.9c0.4-0.6,1.2-0.9,2.1-0.9c0.9,0,1.7,0.4,2.1,1.1
					c0.5-0.7,1.3-1.1,2.3-1.1C168.8,227.2,169.8,228.1,169.8,229.8z"/>
				<path class="st1" d="M177.3,230.6h-4.9c0.1,1,1,1.8,2.2,1.8c0.7,0,1.3-0.2,1.7-0.7l0.6,0.7c-0.5,0.6-1.4,1-2.4,1
					c-1.9,0-3.2-1.3-3.2-3.1c0-1.8,1.3-3,3-3c1.7,0,3,1.2,3,3.1C177.3,230.4,177.3,230.5,177.3,230.6z M172.5,229.9h3.8
					c-0.1-1-0.9-1.7-1.9-1.7C173.3,228.1,172.6,228.8,172.5,229.9z"/>
				<path class="st1" d="M184.6,229.8v3.4h-1.1v-3.3c0-1.2-0.6-1.8-1.6-1.8c-1.2,0-1.9,0.7-1.9,2v3.1H179v-6h1v0.9
					c0.4-0.6,1.2-1,2.2-1C183.6,227.2,184.6,228.1,184.6,229.8z"/>
				<path class="st1" d="M190.1,232.9c-0.3,0.3-0.8,0.4-1.3,0.4c-1.2,0-1.9-0.7-1.9-1.9v-3.3h-1v-0.9h1V226h1.1v1.3h1.7v0.9H188v3.2
					c0,0.6,0.3,1,0.9,1c0.3,0,0.6-0.1,0.8-0.3L190.1,232.9z"/>
			</g>
		</g>
		<g>
			<g>
				<circle class="st1" cx="53.2" cy="252.5" r="7.6"/>
			</g>
			<g>
				<path class="st4" d="M54.8,250.4c-0.2,0-0.4-0.2-0.4-0.4v-2.5h-3.9c-0.5,0-1,0.4-1,1v7.9c0,0.5,0.4,1,1,1h5.8c0.5,0,1-0.4,1-1
					v-6H54.8z"/>
			</g>
			<path class="st5" d="M54.7,250.4h2.5l-2.9-2.9v2.5C54.4,250.2,54.5,250.4,54.7,250.4z"/>
			<polygon class="st2" points="57.3,252.5 57.3,250.4 54.8,250.4 			"/>
		</g>
	</g>
	<g class="st11">
		<rect x="28.5" y="61.5" class="st2" width="263.1" height="120"/>
		<g>
			<g>
				<g>
					<path class="st1" d="M51.8,104.5c-0.3-0.2-0.5-0.4-0.7-0.7c-0.2-0.3-0.3-0.6-0.3-0.9c0-0.3,0.1-0.6,0.2-0.9
						c0.2-0.3,0.4-0.5,0.7-0.7c0.3-0.2,0.6-0.3,0.9-0.3c0.3,0,0.6,0.1,0.9,0.2c0.3,0.2,0.5,0.4,0.7,0.6c0.2,0.3,0.3,0.6,0.3,0.9
						c0,0.3-0.1,0.6-0.2,0.9c-0.2,0.3-0.4,0.5-0.7,0.7c-0.3,0.2-0.6,0.2-0.9,0.2C52.4,104.8,52.1,104.7,51.8,104.5z"/>
					<path class="st1" d="M52.7,104.9c-0.3,0-0.7-0.1-1-0.3l0,0c-0.3-0.2-0.5-0.4-0.7-0.7c-0.2-0.3-0.3-0.6-0.3-1
						c0-0.3,0.1-0.6,0.3-0.9c0.2-0.3,0.4-0.5,0.7-0.7c0.6-0.3,1.3-0.4,2,0c0.3,0.2,0.5,0.4,0.7,0.7c0.2,0.3,0.3,0.6,0.3,1
						c0,0.3-0.1,0.7-0.3,1c-0.2,0.3-0.4,0.5-0.7,0.7C53.4,104.8,53.1,104.9,52.7,104.9z M51.9,104.4c0.5,0.3,1.2,0.3,1.7,0
						c0.3-0.1,0.5-0.4,0.6-0.6c0.2-0.3,0.2-0.5,0.2-0.8c0-0.3-0.1-0.6-0.2-0.8c-0.2-0.3-0.4-0.5-0.6-0.6c-0.5-0.3-1.2-0.3-1.7,0
						c-0.3,0.2-0.5,0.4-0.6,0.6c-0.1,0.3-0.2,0.5-0.2,0.8c0,0.3,0.1,0.6,0.2,0.8C51.4,104.1,51.6,104.3,51.9,104.4L51.9,104.4z"/>
				</g>
				<path class="st9" d="M75.3,105.7h-0.6l-0.9-2.4c-0.1-0.3-0.3-0.5-0.5-0.6s-0.5-0.2-0.9-0.2h-2v3.2h-0.6v-7.1h2.8
					c0.7,0,1.3,0.2,1.7,0.5s0.6,0.8,0.6,1.5c0,0.5-0.1,0.8-0.4,1.2c-0.2,0.3-0.6,0.5-1,0.7c0.2,0,0.4,0.1,0.5,0.3
					c0.1,0.1,0.3,0.3,0.4,0.6L75.3,105.7z M72.5,101.9c1.2,0,1.8-0.5,1.8-1.5c0-0.9-0.6-1.4-1.8-1.4h-2.1v2.9H72.5z"/>
				<path class="st9" d="M81.4,103.8h-3.9l-0.8,1.9h-0.6l3.1-7.1h0.6l3.1,7.1h-0.6L81.4,103.8z M81.1,103.2l-1.7-3.9l-1.7,3.9H81.1z
					"/>
				<path class="st9" d="M89.6,105.7h-0.6l-0.9-2.4c-0.1-0.3-0.3-0.5-0.5-0.6s-0.5-0.2-0.9-0.2h-2v3.2h-0.6v-7.1h2.8
					c0.7,0,1.3,0.2,1.7,0.5s0.6,0.8,0.6,1.5c0,0.5-0.1,0.8-0.4,1.2c-0.2,0.3-0.6,0.5-1,0.7c0.2,0,0.4,0.1,0.5,0.3
					c0.1,0.1,0.3,0.3,0.4,0.6L89.6,105.7z M86.8,101.9c1.2,0,1.8-0.5,1.8-1.5c0-0.9-0.6-1.4-1.8-1.4h-2.1v2.9H86.8z"/>
				<path class="st9" d="M93.6,98.5h2.3c1.1,0,2,0.3,2.6,0.9c0.6,0.6,0.9,1.5,0.9,2.6c0,1.1-0.3,2-0.9,2.6c-0.6,0.6-1.5,0.9-2.6,0.9
					h-2.3V98.5z M95.9,105.1c1,0,1.7-0.3,2.2-0.8c0.5-0.5,0.7-1.3,0.7-2.3c0-2-1-3-2.9-3h-1.6v6.1H95.9z"/>
				<path class="st9" d="M101.3,103.1L101.3,103.1c0,0.7,0.2,1.2,0.5,1.6c0.3,0.4,0.8,0.5,1.4,0.5c0.6,0,1.2-0.2,1.7-0.6l0.2,0.5
					c-0.2,0.2-0.5,0.4-0.8,0.5c-0.3,0.1-0.7,0.2-1.1,0.2c-0.8,0-1.4-0.2-1.8-0.7c-0.4-0.5-0.7-1.1-0.7-1.9c0-0.5,0.1-1,0.3-1.4
					c0.2-0.4,0.5-0.7,0.8-0.9c0.4-0.2,0.8-0.3,1.2-0.3c0.7,0,1.2,0.2,1.6,0.6c0.4,0.4,0.6,1,0.6,1.8v0.1H101.3z M101.9,101.4
					c-0.3,0.3-0.5,0.7-0.5,1.2h3.2c0-0.5-0.2-0.9-0.5-1.2c-0.3-0.3-0.6-0.4-1.1-0.4C102.6,101,102.2,101.2,101.9,101.4z"/>
				<path class="st9" d="M110.7,100.7l-2.2,5h-0.6l-2.1-5h0.7l1.8,4.4l1.8-4.4H110.7z"/>
				<path class="st9" d="M112.1,103.1L112.1,103.1c0,0.7,0.2,1.2,0.5,1.6c0.3,0.4,0.8,0.5,1.4,0.5c0.6,0,1.2-0.2,1.7-0.6l0.2,0.5
					c-0.2,0.2-0.5,0.4-0.8,0.5c-0.3,0.1-0.7,0.2-1.1,0.2c-0.8,0-1.4-0.2-1.8-0.7c-0.4-0.5-0.7-1.1-0.7-1.9c0-0.5,0.1-1,0.3-1.4
					c0.2-0.4,0.5-0.7,0.8-0.9c0.4-0.2,0.8-0.3,1.2-0.3c0.7,0,1.2,0.2,1.6,0.6c0.4,0.4,0.6,1,0.6,1.8v0.1H112.1z M112.6,101.4
					c-0.3,0.3-0.5,0.7-0.5,1.2h3.2c0-0.5-0.2-0.9-0.5-1.2c-0.3-0.3-0.6-0.4-1.1-0.4C113.3,101,112.9,101.2,112.6,101.4z"/>
				<path class="st9" d="M117.2,98.3h0.6v7.4h-0.6V98.3z"/>
				<path class="st9" d="M120.3,105.4c-0.4-0.2-0.6-0.5-0.8-0.9c-0.2-0.4-0.3-0.9-0.3-1.4s0.1-1,0.3-1.4c0.2-0.4,0.5-0.7,0.8-0.9
					c0.4-0.2,0.8-0.3,1.2-0.3c0.5,0,0.9,0.1,1.2,0.3c0.3,0.2,0.6,0.5,0.8,0.9c0.2,0.4,0.3,0.9,0.3,1.4s-0.1,1-0.3,1.4
					c-0.2,0.4-0.5,0.7-0.8,0.9c-0.3,0.2-0.7,0.3-1.2,0.3C121.1,105.7,120.7,105.6,120.3,105.4z M122.8,104.7
					c0.3-0.4,0.4-0.9,0.4-1.5c0-0.7-0.1-1.2-0.4-1.5c-0.3-0.4-0.7-0.5-1.2-0.5c-0.5,0-0.9,0.2-1.2,0.5c-0.3,0.4-0.4,0.9-0.4,1.5
					c0,0.7,0.1,1.2,0.4,1.5c0.3,0.4,0.7,0.5,1.2,0.5C122.1,105.2,122.5,105,122.8,104.7z"/>
				<path class="st9" d="M128.8,100.9c0.3,0.2,0.6,0.5,0.8,0.9c0.2,0.4,0.3,0.9,0.3,1.4c0,0.5-0.1,1-0.3,1.4
					c-0.2,0.4-0.4,0.7-0.8,0.9s-0.7,0.3-1.2,0.3c-0.4,0-0.8-0.1-1.1-0.3c-0.3-0.2-0.5-0.4-0.7-0.8v3.2h-0.6V102c0-0.5,0-1-0.1-1.4
					h0.6l0.1,1c0.1-0.4,0.4-0.6,0.7-0.8c0.3-0.2,0.7-0.3,1.1-0.3C128.1,100.5,128.4,100.6,128.8,100.9z M128.8,104.7
					c0.3-0.4,0.4-0.9,0.4-1.5c0-0.7-0.1-1.2-0.4-1.5s-0.7-0.6-1.2-0.6c-0.5,0-0.9,0.2-1.2,0.5s-0.4,0.9-0.4,1.5
					c0,0.7,0.1,1.2,0.4,1.5s0.7,0.5,1.2,0.5C128.1,105.2,128.5,105,128.8,104.7z"/>
				<path class="st9" d="M138.3,102.5v3.2h-0.6v-3.2c0-0.5-0.1-0.9-0.3-1.1c-0.2-0.2-0.5-0.3-0.9-0.3c-0.5,0-0.8,0.2-1.1,0.5
					c-0.3,0.3-0.4,0.7-0.4,1.3v2.9h-0.6v-3.2c0-0.5-0.1-0.9-0.3-1.1c-0.2-0.2-0.5-0.3-0.9-0.3c-0.5,0-0.8,0.2-1.1,0.5
					c-0.3,0.3-0.4,0.7-0.4,1.3v2.9h-0.6V102c0-0.5,0-1-0.1-1.4h0.6l0.1,0.9c0.1-0.3,0.3-0.6,0.6-0.8c0.3-0.2,0.6-0.3,1-0.3
					c0.8,0,1.3,0.3,1.6,1c0.1-0.3,0.4-0.5,0.7-0.7c0.3-0.2,0.6-0.3,1-0.3C137.8,100.5,138.3,101.2,138.3,102.5z"/>
				<path class="st9" d="M140.3,103.1L140.3,103.1c0,0.7,0.2,1.2,0.5,1.6c0.3,0.4,0.8,0.5,1.4,0.5c0.6,0,1.2-0.2,1.7-0.6l0.2,0.5
					c-0.2,0.2-0.5,0.4-0.8,0.5c-0.3,0.1-0.7,0.2-1.1,0.2c-0.8,0-1.4-0.2-1.8-0.7c-0.4-0.5-0.7-1.1-0.7-1.9c0-0.5,0.1-1,0.3-1.4
					c0.2-0.4,0.5-0.7,0.8-0.9c0.4-0.2,0.8-0.3,1.2-0.3c0.7,0,1.2,0.2,1.6,0.6c0.4,0.4,0.6,1,0.6,1.8v0.1H140.3z M140.9,101.4
					c-0.3,0.3-0.5,0.7-0.5,1.2h3.2c0-0.5-0.2-0.9-0.5-1.2c-0.3-0.3-0.6-0.4-1.1-0.4C141.6,101,141.2,101.2,140.9,101.4z"/>
				<path class="st9" d="M149.7,102.5v3.2h-0.6v-3.2c0-0.5-0.1-0.9-0.3-1.1c-0.2-0.2-0.5-0.4-1-0.4c-0.5,0-0.9,0.2-1.2,0.5
					c-0.3,0.3-0.5,0.7-0.5,1.2v2.9h-0.6V102c0-0.5,0-1-0.1-1.4h0.6l0.1,0.9c0.2-0.3,0.4-0.6,0.7-0.8c0.3-0.2,0.7-0.3,1.1-0.3
					C149.1,100.5,149.7,101.2,149.7,102.5z"/>
				<path class="st9" d="M152.2,101.1v3c0,0.4,0.1,0.7,0.2,0.8c0.2,0.2,0.4,0.2,0.7,0.2c0.2,0,0.4,0,0.5-0.1v0.6
					c-0.2,0.1-0.4,0.1-0.7,0.1c-0.4,0-0.8-0.1-1-0.4c-0.3-0.2-0.4-0.6-0.4-1.1v-3.1h-1v-0.5h1v-1.3l0.6-0.2v1.6h1.5v0.5H152.2z"/>
				<g>
					<path class="st1" d="M51.8,123.4c-0.3-0.2-0.5-0.4-0.7-0.7c-0.2-0.3-0.3-0.6-0.3-0.9c0-0.3,0.1-0.6,0.2-0.9
						c0.2-0.3,0.4-0.5,0.7-0.7c0.3-0.2,0.6-0.3,0.9-0.3c0.3,0,0.6,0.1,0.9,0.2c0.3,0.2,0.5,0.4,0.7,0.6c0.2,0.3,0.3,0.6,0.3,0.9
						c0,0.3-0.1,0.6-0.2,0.9c-0.2,0.3-0.4,0.5-0.7,0.7c-0.3,0.2-0.6,0.2-0.9,0.2C52.4,123.6,52.1,123.5,51.8,123.4z"/>
					<path class="st1" d="M52.7,123.7c-0.3,0-0.7-0.1-1-0.3l0,0c-0.3-0.2-0.5-0.4-0.7-0.7c-0.2-0.3-0.3-0.6-0.3-1
						c0-0.3,0.1-0.6,0.3-0.9c0.2-0.3,0.4-0.5,0.7-0.7c0.6-0.3,1.3-0.4,2,0c0.3,0.2,0.5,0.4,0.7,0.7c0.2,0.3,0.3,0.6,0.3,1
						c0,0.3-0.1,0.7-0.3,1c-0.2,0.3-0.4,0.5-0.7,0.7C53.4,123.6,53.1,123.7,52.7,123.7z M51.9,123.3c0.5,0.3,1.2,0.3,1.7,0
						c0.3-0.1,0.5-0.4,0.6-0.6c0.2-0.3,0.2-0.5,0.2-0.8c0-0.3-0.1-0.6-0.2-0.8c-0.2-0.3-0.4-0.5-0.6-0.6c-0.5-0.3-1.2-0.3-1.7,0
						c-0.3,0.2-0.5,0.4-0.6,0.6c-0.1,0.3-0.2,0.5-0.2,0.8c0,0.3,0.1,0.6,0.2,0.8C51.4,122.9,51.6,123.1,51.9,123.3L51.9,123.3z"/>
				</g>
				<path class="st9" d="M69.8,117.3h4.3v0.5h-3.7v2.7h3.5v0.6h-3.5v3.4h-0.6V117.3z"/>
				<path class="st9" d="M75.6,121.9L75.6,121.9c0,0.7,0.2,1.2,0.5,1.6c0.3,0.4,0.8,0.5,1.4,0.5c0.6,0,1.2-0.2,1.7-0.6l0.2,0.5
					c-0.2,0.2-0.5,0.4-0.8,0.5c-0.3,0.1-0.7,0.2-1.1,0.2c-0.8,0-1.4-0.2-1.8-0.7c-0.4-0.5-0.7-1.1-0.7-1.9c0-0.5,0.1-1,0.3-1.4
					c0.2-0.4,0.5-0.7,0.8-0.9c0.4-0.2,0.8-0.3,1.2-0.3c0.7,0,1.2,0.2,1.6,0.6c0.4,0.4,0.6,1,0.6,1.8v0.1H75.6z M76.2,120.3
					c-0.3,0.3-0.5,0.7-0.5,1.2h3.2c0-0.5-0.2-0.9-0.5-1.2c-0.3-0.3-0.6-0.4-1.1-0.4C76.8,119.8,76.5,120,76.2,120.3z"/>
				<path class="st9" d="M85,117.1v7.4h-0.6v-1c-0.1,0.3-0.4,0.6-0.7,0.8c-0.3,0.2-0.7,0.3-1.1,0.3c-0.4,0-0.8-0.1-1.2-0.3
					s-0.6-0.5-0.8-0.9c-0.2-0.4-0.3-0.9-0.3-1.4c0-0.5,0.1-1,0.3-1.4c0.2-0.4,0.4-0.7,0.8-0.9c0.3-0.2,0.7-0.3,1.2-0.3
					c0.4,0,0.8,0.1,1.1,0.3c0.3,0.2,0.5,0.4,0.7,0.8v-3.3H85z M84,123.5c0.3-0.4,0.4-0.9,0.4-1.5c0-0.7-0.1-1.2-0.4-1.5
					c-0.3-0.4-0.7-0.5-1.2-0.5c-0.5,0-1,0.2-1.2,0.5s-0.4,0.9-0.4,1.5c0,0.7,0.1,1.2,0.4,1.5s0.7,0.6,1.2,0.6
					C83.3,124,83.7,123.8,84,123.5z"/>
				<path class="st9" d="M92.4,124.5h-0.6l-0.9-2.4c-0.1-0.3-0.3-0.5-0.5-0.6s-0.5-0.2-0.9-0.2h-2v3.2h-0.6v-7.1h2.8
					c0.7,0,1.3,0.2,1.7,0.5s0.6,0.8,0.6,1.5c0,0.5-0.1,0.8-0.4,1.2c-0.2,0.3-0.6,0.5-1,0.7c0.2,0,0.4,0.1,0.5,0.3
					c0.1,0.1,0.3,0.3,0.4,0.6L92.4,124.5z M89.6,120.8c1.2,0,1.8-0.5,1.8-1.5c0-0.9-0.6-1.4-1.8-1.4h-2.1v2.9H89.6z"/>
				<path class="st9" d="M98.4,122.6h-3.9l-0.8,1.9h-0.6l3.1-7.1h0.6l3.1,7.1h-0.6L98.4,122.6z M98.2,122l-1.7-3.9l-1.7,3.9H98.2z"
					/>
				<path class="st9" d="M107.8,117.3v7.1h-0.6v-5.7l-2.5,5.7h-0.5l-2.5-5.7l0,5.7h-0.6v-7.1h0.5l2.8,6.4l2.8-6.4H107.8z"/>
				<path class="st9" d="M109.7,117.3h2.7c0.7,0,1.3,0.2,1.7,0.5c0.4,0.3,0.6,0.8,0.6,1.4c0,0.6-0.2,1.1-0.6,1.5s-1,0.5-1.7,0.5
					h-2.1v3.2h-0.6V117.3z M112.4,120.7c0.6,0,1-0.1,1.3-0.4c0.3-0.2,0.4-0.6,0.4-1.1c0-0.5-0.1-0.8-0.4-1.1
					c-0.3-0.2-0.7-0.4-1.3-0.4h-2.1v2.9H112.4z"/>
				<path class="st9" d="M118.8,117.3h2.7c0.7,0,1.3,0.2,1.7,0.5c0.4,0.3,0.6,0.8,0.6,1.4c0,0.6-0.2,1.1-0.6,1.5s-1,0.5-1.7,0.5
					h-2.1v3.2h-0.6V117.3z M121.5,120.7c0.6,0,1-0.1,1.3-0.4c0.3-0.2,0.4-0.6,0.4-1.1c0-0.5-0.1-0.8-0.4-1.1
					c-0.3-0.2-0.7-0.4-1.3-0.4h-2.1v2.9H121.5z"/>
				<path class="st9" d="M132,117.3v7.1h-0.6v-5.7l-2.5,5.7h-0.5l-2.5-5.7l0,5.7h-0.6v-7.1h0.5l2.8,6.4l2.8-6.4H132z"/>
				<path class="st9" d="M135.1,124.1c-0.5-0.3-0.8-0.7-1.1-1.3c-0.3-0.5-0.4-1.2-0.4-1.9c0-0.8,0.1-1.4,0.4-1.9s0.6-1,1.1-1.3
					c0.5-0.3,1-0.4,1.7-0.4s1.2,0.1,1.7,0.4c0.5,0.3,0.8,0.7,1.1,1.3c0.3,0.5,0.4,1.2,0.4,1.9c0,0.8-0.1,1.4-0.4,2
					c-0.3,0.6-0.6,1-1.1,1.3c-0.5,0.3-1,0.4-1.7,0.4C136.1,124.6,135.6,124.4,135.1,124.1z M138.6,123.2c0.4-0.5,0.7-1.3,0.7-2.3
					s-0.2-1.8-0.7-2.3c-0.4-0.5-1.1-0.8-1.9-0.8c-0.8,0-1.4,0.3-1.9,0.8c-0.4,0.5-0.7,1.3-0.7,2.3s0.2,1.7,0.7,2.3
					c0.4,0.5,1.1,0.8,1.9,0.8C137.6,124,138.2,123.8,138.6,123.2z"/>
				<path class="st9" d="M149.7,124.5h-0.6l-0.9-2.4c-0.1-0.3-0.3-0.5-0.5-0.6s-0.5-0.2-0.9-0.2h-2v3.2h-0.6v-7.1h2.8
					c0.7,0,1.3,0.2,1.7,0.5s0.6,0.8,0.6,1.5c0,0.5-0.1,0.8-0.4,1.2c-0.2,0.3-0.6,0.5-1,0.7c0.2,0,0.4,0.1,0.5,0.3
					c0.1,0.1,0.3,0.3,0.4,0.6L149.7,124.5z M146.9,120.8c1.2,0,1.8-0.5,1.8-1.5c0-0.9-0.6-1.4-1.8-1.4h-2.1v2.9H146.9z"/>
				<path class="st9" d="M151.4,121.9L151.4,121.9c0,0.7,0.2,1.2,0.5,1.6c0.3,0.4,0.8,0.5,1.4,0.5c0.6,0,1.2-0.2,1.7-0.6l0.2,0.5
					c-0.2,0.2-0.5,0.4-0.8,0.5c-0.3,0.1-0.7,0.2-1.1,0.2c-0.8,0-1.4-0.2-1.8-0.7c-0.4-0.5-0.7-1.1-0.7-1.9c0-0.5,0.1-1,0.3-1.4
					c0.2-0.4,0.5-0.7,0.8-0.9c0.4-0.2,0.8-0.3,1.2-0.3c0.7,0,1.2,0.2,1.6,0.6c0.4,0.4,0.6,1,0.6,1.8v0.1H151.4z M152,120.3
					c-0.3,0.3-0.5,0.7-0.5,1.2h3.2c0-0.5-0.2-0.9-0.5-1.2c-0.3-0.3-0.6-0.4-1.1-0.4C152.6,119.8,152.3,120,152,120.3z"/>
				<path class="st9" d="M160.8,119.5l-2.2,5H158l-2.1-5h0.7l1.8,4.4l1.8-4.4H160.8z"/>
				<path class="st9" d="M162.6,117.4v0.8h-0.8v-0.8H162.6z M161.8,119.5h0.6v5h-0.6V119.5z"/>
				<path class="st9" d="M164.5,121.9L164.5,121.9c0,0.7,0.2,1.2,0.5,1.6c0.3,0.4,0.8,0.5,1.4,0.5c0.6,0,1.2-0.2,1.7-0.6l0.2,0.5
					c-0.2,0.2-0.5,0.4-0.8,0.5c-0.3,0.1-0.7,0.2-1.1,0.2c-0.8,0-1.4-0.2-1.8-0.7c-0.4-0.5-0.7-1.1-0.7-1.9c0-0.5,0.1-1,0.3-1.4
					c0.2-0.4,0.5-0.7,0.8-0.9c0.4-0.2,0.8-0.3,1.2-0.3c0.7,0,1.2,0.2,1.6,0.6c0.4,0.4,0.6,1,0.6,1.8v0.1H164.5z M165.1,120.3
					c-0.3,0.3-0.5,0.7-0.5,1.2h3.2c0-0.5-0.2-0.9-0.5-1.2c-0.3-0.3-0.6-0.4-1.1-0.4C165.7,119.8,165.4,120,165.1,120.3z"/>
				<path class="st9" d="M177.1,119.5l-1.8,5h-0.6l-1.5-4.2l-1.5,4.2h-0.6l-1.8-5h0.7l1.5,4.3l1.6-4.3h0.6l1.5,4.3l1.5-4.3H177.1z"
					/>
				<path class="st9" d="M181.7,124.2c-0.4-0.2-0.6-0.5-0.8-0.9c-0.2-0.4-0.3-0.9-0.3-1.4s0.1-1,0.3-1.4c0.2-0.4,0.5-0.7,0.8-0.9
					c0.4-0.2,0.8-0.3,1.2-0.3c0.5,0,0.9,0.1,1.2,0.3c0.3,0.2,0.6,0.5,0.8,0.9c0.2,0.4,0.3,0.9,0.3,1.4s-0.1,1-0.3,1.4
					c-0.2,0.4-0.5,0.7-0.8,0.9c-0.3,0.2-0.7,0.3-1.2,0.3C182.5,124.6,182.1,124.5,181.7,124.2z M184.2,123.5
					c0.3-0.4,0.4-0.9,0.4-1.5c0-0.7-0.1-1.2-0.4-1.5c-0.3-0.4-0.7-0.5-1.2-0.5c-0.5,0-0.9,0.2-1.2,0.5c-0.3,0.4-0.4,0.9-0.4,1.5
					c0,0.7,0.1,1.2,0.4,1.5c0.3,0.4,0.7,0.5,1.2,0.5C183.5,124,183.9,123.8,184.2,123.5z"/>
				<path class="st9" d="M187.7,117.9c-0.2,0.2-0.2,0.4-0.2,0.8v0.8h1.3v0.5h-1.3v4.5h-0.6V120h-1v-0.5h1v-0.9
					c0-0.5,0.1-0.9,0.4-1.1c0.2-0.2,0.6-0.4,1-0.4c0.2,0,0.4,0,0.6,0.1v0.6c-0.2-0.1-0.4-0.1-0.5-0.1
					C188.1,117.6,187.9,117.7,187.7,117.9z"/>
				<path class="st9" d="M198.1,124.5h-0.6l-0.9-2.4c-0.1-0.3-0.3-0.5-0.5-0.6s-0.5-0.2-0.9-0.2h-2v3.2h-0.6v-7.1h2.8
					c0.7,0,1.3,0.2,1.7,0.5s0.6,0.8,0.6,1.5c0,0.5-0.1,0.8-0.4,1.2c-0.2,0.3-0.6,0.5-1,0.7c0.2,0,0.4,0.1,0.5,0.3
					c0.1,0.1,0.3,0.3,0.4,0.6L198.1,124.5z M195.3,120.8c1.2,0,1.8-0.5,1.8-1.5c0-0.9-0.6-1.4-1.8-1.4h-2.1v2.9H195.3z"/>
				<path class="st9" d="M204.2,122.6h-3.9l-0.8,1.9h-0.6l3.1-7.1h0.6l3.1,7.1H205L204.2,122.6z M203.9,122l-1.7-3.9l-1.7,3.9H203.9
					z"/>
				<path class="st9" d="M212.4,124.5h-0.6l-0.9-2.4c-0.1-0.3-0.3-0.5-0.5-0.6s-0.5-0.2-0.9-0.2h-2v3.2h-0.6v-7.1h2.8
					c0.7,0,1.3,0.2,1.7,0.5s0.6,0.8,0.6,1.5c0,0.5-0.1,0.8-0.4,1.2c-0.2,0.3-0.6,0.5-1,0.7c0.2,0,0.4,0.1,0.5,0.3
					c0.1,0.1,0.3,0.3,0.4,0.6L212.4,124.5z M209.6,120.8c1.2,0,1.8-0.5,1.8-1.5c0-0.9-0.6-1.4-1.8-1.4h-2.1v2.9H209.6z"/>
				<g>
					<path class="st1" d="M51.8,142.2c-0.3-0.2-0.5-0.4-0.7-0.7c-0.2-0.3-0.3-0.6-0.3-0.9c0-0.3,0.1-0.6,0.2-0.9
						c0.2-0.3,0.4-0.5,0.7-0.7c0.3-0.2,0.6-0.3,0.9-0.3c0.3,0,0.6,0.1,0.9,0.2c0.3,0.2,0.5,0.4,0.7,0.6c0.2,0.3,0.3,0.6,0.3,0.9
						c0,0.3-0.1,0.6-0.2,0.9c-0.2,0.3-0.4,0.5-0.7,0.7c-0.3,0.2-0.6,0.2-0.9,0.2C52.4,142.4,52.1,142.3,51.8,142.2z"/>
					<path class="st1" d="M52.7,142.5c-0.3,0-0.7-0.1-1-0.3l0,0c-0.3-0.2-0.5-0.4-0.7-0.7c-0.2-0.3-0.3-0.6-0.3-1
						c0-0.3,0.1-0.6,0.3-0.9c0.2-0.3,0.4-0.5,0.7-0.7c0.6-0.3,1.3-0.4,2,0c0.3,0.2,0.5,0.4,0.7,0.7c0.2,0.3,0.3,0.6,0.3,1
						c0,0.3-0.1,0.7-0.3,1c-0.2,0.3-0.4,0.5-0.7,0.7C53.4,142.5,53.1,142.5,52.7,142.5z M51.9,142.1c0.5,0.3,1.2,0.3,1.7,0
						c0.3-0.1,0.5-0.4,0.6-0.6c0.2-0.3,0.2-0.5,0.2-0.8c0-0.3-0.1-0.6-0.2-0.8c-0.2-0.3-0.4-0.5-0.6-0.6c-0.5-0.3-1.2-0.3-1.7,0
						c-0.3,0.2-0.5,0.4-0.6,0.6c-0.1,0.3-0.2,0.5-0.2,0.8c0,0.3,0.1,0.6,0.2,0.8C51.4,141.7,51.6,141.9,51.9,142.1L51.9,142.1z"/>
				</g>
				<path class="st9" d="M75.3,143.3h-0.6l-0.9-2.4c-0.1-0.3-0.3-0.5-0.5-0.6s-0.5-0.2-0.9-0.2h-2v3.2h-0.6v-7.1h2.8
					c0.7,0,1.3,0.2,1.7,0.5s0.6,0.8,0.6,1.5c0,0.5-0.1,0.8-0.4,1.2c-0.2,0.3-0.6,0.5-1,0.7c0.2,0,0.4,0.1,0.5,0.3
					c0.1,0.1,0.3,0.3,0.4,0.6L75.3,143.3z M72.5,139.6c1.2,0,1.8-0.5,1.8-1.5c0-0.9-0.6-1.4-1.8-1.4h-2.1v2.9H72.5z"/>
				<path class="st9" d="M77,140.7L77,140.7c0,0.7,0.2,1.2,0.5,1.6c0.3,0.4,0.8,0.5,1.4,0.5c0.6,0,1.2-0.2,1.7-0.6l0.2,0.5
					c-0.2,0.2-0.5,0.4-0.8,0.5c-0.3,0.1-0.7,0.2-1.1,0.2c-0.8,0-1.4-0.2-1.8-0.7c-0.4-0.5-0.7-1.1-0.7-1.9c0-0.5,0.1-1,0.3-1.4
					c0.2-0.4,0.5-0.7,0.8-0.9c0.4-0.2,0.8-0.3,1.2-0.3c0.7,0,1.2,0.2,1.6,0.6c0.4,0.4,0.6,1,0.6,1.8v0.1H77z M77.6,139.1
					c-0.3,0.3-0.5,0.7-0.5,1.2h3.2c0-0.5-0.2-0.9-0.5-1.2c-0.3-0.3-0.6-0.4-1.1-0.4C78.3,138.7,77.9,138.8,77.6,139.1z"/>
				<path class="st9" d="M89.3,140.1v3.2h-0.6v-3.2c0-0.5-0.1-0.9-0.3-1.1c-0.2-0.2-0.5-0.3-0.9-0.3c-0.5,0-0.8,0.2-1.1,0.5
					c-0.3,0.3-0.4,0.7-0.4,1.3v2.9h-0.6v-3.2c0-0.5-0.1-0.9-0.3-1.1c-0.2-0.2-0.5-0.3-0.9-0.3c-0.5,0-0.8,0.2-1.1,0.5
					c-0.3,0.3-0.4,0.7-0.4,1.3v2.9h-0.6v-3.6c0-0.5,0-1-0.1-1.4h0.6l0.1,0.9c0.1-0.3,0.3-0.6,0.6-0.8c0.3-0.2,0.6-0.3,1-0.3
					c0.8,0,1.3,0.3,1.6,1c0.1-0.3,0.4-0.5,0.7-0.7c0.3-0.2,0.6-0.3,1-0.3C88.7,138.2,89.3,138.8,89.3,140.1z"/>
				<path class="st9" d="M91.3,140.7L91.3,140.7c0,0.7,0.2,1.2,0.5,1.6c0.3,0.4,0.8,0.5,1.4,0.5c0.6,0,1.2-0.2,1.7-0.6l0.2,0.5
					c-0.2,0.2-0.5,0.4-0.8,0.5c-0.3,0.1-0.7,0.2-1.1,0.2c-0.8,0-1.4-0.2-1.8-0.7c-0.4-0.5-0.7-1.1-0.7-1.9c0-0.5,0.1-1,0.3-1.4
					c0.2-0.4,0.5-0.7,0.8-0.9c0.4-0.2,0.8-0.3,1.2-0.3c0.7,0,1.2,0.2,1.6,0.6c0.4,0.4,0.6,1,0.6,1.8v0.1H91.3z M91.9,139.1
					c-0.3,0.3-0.5,0.7-0.5,1.2h3.2c0-0.5-0.2-0.9-0.5-1.2c-0.3-0.3-0.6-0.4-1.1-0.4C92.5,138.7,92.1,138.8,91.9,139.1z"/>
				<path class="st9" d="M100.7,135.9v7.4h-0.6v-1c-0.1,0.3-0.4,0.6-0.7,0.8c-0.3,0.2-0.7,0.3-1.1,0.3c-0.4,0-0.8-0.1-1.2-0.3
					s-0.6-0.5-0.8-0.9c-0.2-0.4-0.3-0.9-0.3-1.4c0-0.5,0.1-1,0.3-1.4c0.2-0.4,0.4-0.7,0.8-0.9c0.3-0.2,0.7-0.3,1.2-0.3
					c0.4,0,0.8,0.1,1.1,0.3c0.3,0.2,0.5,0.4,0.7,0.8v-3.3H100.7z M99.7,142.3c0.3-0.4,0.4-0.9,0.4-1.5c0-0.7-0.1-1.2-0.4-1.5
					c-0.3-0.4-0.7-0.5-1.2-0.5c-0.5,0-1,0.2-1.2,0.5s-0.4,0.9-0.4,1.5c0,0.7,0.1,1.2,0.4,1.5s0.7,0.6,1.2,0.6
					C99,142.8,99.4,142.7,99.7,142.3z"/>
				<path class="st9" d="M103.2,136.2v0.8h-0.8v-0.8H103.2z M102.4,138.3h0.6v5h-0.6V138.3z"/>
				<path class="st9" d="M109,138.3v5h-0.6v-1c-0.1,0.3-0.4,0.6-0.7,0.8c-0.3,0.2-0.7,0.3-1.1,0.3c-0.4,0-0.8-0.1-1.2-0.3
					c-0.3-0.2-0.6-0.5-0.8-0.9c-0.2-0.4-0.3-0.8-0.3-1.4c0-0.5,0.1-1,0.3-1.4c0.2-0.4,0.4-0.7,0.8-0.9c0.3-0.2,0.7-0.3,1.2-0.3
					c0.4,0,0.8,0.1,1.1,0.3c0.3,0.2,0.5,0.4,0.7,0.8v-0.9H109z M108,142.3c0.3-0.4,0.4-0.9,0.4-1.5c0-0.7-0.1-1.2-0.4-1.5
					c-0.3-0.4-0.7-0.5-1.2-0.5c-0.5,0-0.9,0.2-1.2,0.6s-0.4,0.9-0.4,1.5c0,0.6,0.1,1.2,0.4,1.5c0.3,0.4,0.7,0.5,1.2,0.5
					C107.3,142.8,107.7,142.7,108,142.3z"/>
				<path class="st9" d="M111.6,138.8v3c0,0.4,0.1,0.7,0.2,0.8c0.2,0.2,0.4,0.2,0.7,0.2c0.2,0,0.4,0,0.5-0.1v0.6
					c-0.2,0.1-0.4,0.1-0.7,0.1c-0.4,0-0.8-0.1-1-0.4c-0.3-0.2-0.4-0.6-0.4-1.1v-3.1h-1v-0.5h1V137l0.6-0.2v1.6h1.5v0.5H111.6z"/>
				<path class="st9" d="M114.9,136.2v0.8h-0.8v-0.8H114.9z M114.2,138.3h0.6v5h-0.6V138.3z"/>
				<path class="st9" d="M117.3,143.1c-0.4-0.2-0.6-0.5-0.8-0.9c-0.2-0.4-0.3-0.9-0.3-1.4s0.1-1,0.3-1.4c0.2-0.4,0.5-0.7,0.8-0.9
					c0.4-0.2,0.8-0.3,1.2-0.3c0.5,0,0.9,0.1,1.2,0.3c0.3,0.2,0.6,0.5,0.8,0.9c0.2,0.4,0.3,0.9,0.3,1.4s-0.1,1-0.3,1.4
					c-0.2,0.4-0.5,0.7-0.8,0.9c-0.3,0.2-0.7,0.3-1.2,0.3C118.1,143.4,117.7,143.3,117.3,143.1z M119.8,142.3
					c0.3-0.4,0.4-0.9,0.4-1.5c0-0.7-0.1-1.2-0.4-1.5c-0.3-0.4-0.7-0.5-1.2-0.5c-0.5,0-0.9,0.2-1.2,0.5c-0.3,0.4-0.4,0.9-0.4,1.5
					c0,0.7,0.1,1.2,0.4,1.5c0.3,0.4,0.7,0.5,1.2,0.5C119.1,142.8,119.5,142.7,119.8,142.3z"/>
				<path class="st9" d="M126.4,140.1v3.2h-0.6v-3.2c0-0.5-0.1-0.9-0.3-1.1c-0.2-0.2-0.5-0.4-1-0.4c-0.5,0-0.9,0.2-1.2,0.5
					c-0.3,0.3-0.5,0.7-0.5,1.2v2.9h-0.6v-3.6c0-0.5,0-1-0.1-1.4h0.6l0.1,0.9c0.2-0.3,0.4-0.6,0.7-0.8c0.3-0.2,0.7-0.3,1.1-0.3
					C125.8,138.2,126.4,138.8,126.4,140.1z"/>
				<path class="st9" d="M131.2,142.9c-0.2-0.7-0.3-1.5-0.3-2.3c0-0.8,0.1-1.5,0.3-2.3c0.2-0.7,0.4-1.5,0.8-2.2h0.5
					c-0.4,0.8-0.6,1.6-0.8,2.3s-0.2,1.4-0.2,2.2c0,0.7,0.1,1.4,0.2,2.2c0.2,0.7,0.4,1.5,0.8,2.3H132
					C131.6,144.4,131.3,143.7,131.2,142.9z"/>
				<path class="st9" d="M134.5,136.2v0.8h-0.8v-0.8H134.5z M133.7,138.3h0.6v5h-0.6V138.3z"/>
				<path class="st9" d="M137.2,136.7c-0.2,0.2-0.2,0.4-0.2,0.8v0.8h1.3v0.5h-1.3v4.5h-0.6v-4.5h-1v-0.5h1v-0.9
					c0-0.5,0.1-0.9,0.4-1.1c0.2-0.2,0.6-0.4,1-0.4c0.2,0,0.4,0,0.6,0.1v0.6c-0.2-0.1-0.4-0.1-0.5-0.1
					C137.5,136.4,137.3,136.5,137.2,136.7z"/>
				<path class="st9" d="M146.1,140.1v3.2h-0.6v-3.2c0-0.5-0.1-0.9-0.3-1.1c-0.2-0.2-0.5-0.4-1-0.4c-0.5,0-0.9,0.2-1.2,0.5
					c-0.3,0.3-0.5,0.7-0.5,1.2v2.9H142v-3.6c0-0.5,0-1-0.1-1.4h0.6l0.1,0.9c0.2-0.3,0.4-0.6,0.7-0.8c0.3-0.2,0.7-0.3,1.1-0.3
					C145.5,138.2,146.1,138.8,146.1,140.1z"/>
				<path class="st9" d="M148.2,140.7L148.2,140.7c0,0.7,0.2,1.2,0.5,1.6c0.3,0.4,0.8,0.5,1.4,0.5c0.6,0,1.2-0.2,1.7-0.6l0.2,0.5
					c-0.2,0.2-0.5,0.4-0.8,0.5c-0.3,0.1-0.7,0.2-1.1,0.2c-0.8,0-1.4-0.2-1.8-0.7c-0.4-0.5-0.7-1.1-0.7-1.9c0-0.5,0.1-1,0.3-1.4
					c0.2-0.4,0.5-0.7,0.8-0.9c0.4-0.2,0.8-0.3,1.2-0.3c0.7,0,1.2,0.2,1.6,0.6c0.4,0.4,0.6,1,0.6,1.8v0.1H148.2z M148.7,139.1
					c-0.3,0.3-0.5,0.7-0.5,1.2h3.2c0-0.5-0.2-0.9-0.5-1.2c-0.3-0.3-0.6-0.4-1.1-0.4C149.4,138.7,149,138.8,148.7,139.1z"/>
				<path class="st9" d="M153.7,140.7L153.7,140.7c0,0.7,0.2,1.2,0.5,1.6c0.3,0.4,0.8,0.5,1.4,0.5c0.6,0,1.2-0.2,1.7-0.6l0.2,0.5
					c-0.2,0.2-0.5,0.4-0.8,0.5c-0.3,0.1-0.7,0.2-1.1,0.2c-0.8,0-1.4-0.2-1.8-0.7c-0.4-0.5-0.7-1.1-0.7-1.9c0-0.5,0.1-1,0.3-1.4
					c0.2-0.4,0.5-0.7,0.8-0.9c0.4-0.2,0.8-0.3,1.2-0.3c0.7,0,1.2,0.2,1.6,0.6c0.4,0.4,0.6,1,0.6,1.8v0.1H153.7z M154.2,139.1
					c-0.3,0.3-0.5,0.7-0.5,1.2h3.2c0-0.5-0.2-0.9-0.5-1.2c-0.3-0.3-0.6-0.4-1.1-0.4C154.9,138.7,154.5,138.8,154.2,139.1z"/>
				<path class="st9" d="M163.1,135.9v7.4h-0.6v-1c-0.1,0.3-0.4,0.6-0.7,0.8c-0.3,0.2-0.7,0.3-1.1,0.3c-0.4,0-0.8-0.1-1.2-0.3
					s-0.6-0.5-0.8-0.9c-0.2-0.4-0.3-0.9-0.3-1.4c0-0.5,0.1-1,0.3-1.4c0.2-0.4,0.4-0.7,0.8-0.9c0.3-0.2,0.7-0.3,1.2-0.3
					c0.4,0,0.8,0.1,1.1,0.3c0.3,0.2,0.5,0.4,0.7,0.8v-3.3H163.1z M162.1,142.3c0.3-0.4,0.4-0.9,0.4-1.5c0-0.7-0.1-1.2-0.4-1.5
					c-0.3-0.4-0.7-0.5-1.2-0.5c-0.5,0-1,0.2-1.2,0.5s-0.4,0.9-0.4,1.5c0,0.7,0.1,1.2,0.4,1.5s0.7,0.6,1.2,0.6
					C161.4,142.8,161.8,142.7,162.1,142.3z"/>
				<path class="st9" d="M165.1,140.7L165.1,140.7c0,0.7,0.2,1.2,0.5,1.6c0.3,0.4,0.8,0.5,1.4,0.5c0.6,0,1.2-0.2,1.7-0.6l0.2,0.5
					c-0.2,0.2-0.5,0.4-0.8,0.5c-0.3,0.1-0.7,0.2-1.1,0.2c-0.8,0-1.4-0.2-1.8-0.7c-0.4-0.5-0.7-1.1-0.7-1.9c0-0.5,0.1-1,0.3-1.4
					c0.2-0.4,0.5-0.7,0.8-0.9c0.4-0.2,0.8-0.3,1.2-0.3c0.7,0,1.2,0.2,1.6,0.6c0.4,0.4,0.6,1,0.6,1.8v0.1H165.1z M165.7,139.1
					c-0.3,0.3-0.5,0.7-0.5,1.2h3.2c0-0.5-0.2-0.9-0.5-1.2c-0.3-0.3-0.6-0.4-1.1-0.4C166.4,138.7,166,138.8,165.7,139.1z"/>
				<path class="st9" d="M174.6,135.9v7.4H174v-1c-0.1,0.3-0.4,0.6-0.7,0.8c-0.3,0.2-0.7,0.3-1.1,0.3c-0.4,0-0.8-0.1-1.2-0.3
					s-0.6-0.5-0.8-0.9c-0.2-0.4-0.3-0.9-0.3-1.4c0-0.5,0.1-1,0.3-1.4c0.2-0.4,0.4-0.7,0.8-0.9c0.3-0.2,0.7-0.3,1.2-0.3
					c0.4,0,0.8,0.1,1.1,0.3c0.3,0.2,0.5,0.4,0.7,0.8v-3.3H174.6z M173.5,142.3c0.3-0.4,0.4-0.9,0.4-1.5c0-0.7-0.1-1.2-0.4-1.5
					c-0.3-0.4-0.7-0.5-1.2-0.5c-0.5,0-1,0.2-1.2,0.5s-0.4,0.9-0.4,1.5c0,0.7,0.1,1.2,0.4,1.5s0.7,0.6,1.2,0.6
					C172.8,142.8,173.3,142.7,173.5,142.3z"/>
				<path class="st9" d="M175.8,145.1c0.3-0.8,0.6-1.6,0.7-2.3c0.2-0.7,0.2-1.5,0.2-2.2c0-0.7-0.1-1.4-0.2-2.2s-0.4-1.5-0.8-2.3h0.5
					c0.4,0.7,0.6,1.5,0.8,2.2c0.2,0.7,0.3,1.5,0.3,2.3c0,0.8-0.1,1.5-0.3,2.3c-0.2,0.7-0.4,1.5-0.8,2.2H175.8z"/>
				<path class="st9" d="M69.8,155h4.3v0.5h-3.7v2.7h3.5v0.6h-3.5v3.4h-0.6V155z"/>
				<path class="st9" d="M75.6,159.5L75.6,159.5c0,0.7,0.2,1.2,0.5,1.6c0.3,0.4,0.8,0.5,1.4,0.5c0.6,0,1.2-0.2,1.7-0.6l0.2,0.5
					c-0.2,0.2-0.5,0.4-0.8,0.5c-0.3,0.1-0.7,0.2-1.1,0.2c-0.8,0-1.4-0.2-1.8-0.7c-0.4-0.5-0.7-1.1-0.7-1.9c0-0.5,0.1-1,0.3-1.4
					c0.2-0.4,0.5-0.7,0.8-0.9c0.4-0.2,0.8-0.3,1.2-0.3c0.7,0,1.2,0.2,1.6,0.6c0.4,0.4,0.6,1,0.6,1.8v0.1H75.6z M76.2,157.9
					c-0.3,0.3-0.5,0.7-0.5,1.2h3.2c0-0.5-0.2-0.9-0.5-1.2c-0.3-0.3-0.6-0.4-1.1-0.4C76.8,157.5,76.5,157.6,76.2,157.9z"/>
				<path class="st9" d="M85,154.7v7.4h-0.6v-1c-0.1,0.3-0.4,0.6-0.7,0.8c-0.3,0.2-0.7,0.3-1.1,0.3c-0.4,0-0.8-0.1-1.2-0.3
					s-0.6-0.5-0.8-0.9c-0.2-0.4-0.3-0.9-0.3-1.4c0-0.5,0.1-1,0.3-1.4c0.2-0.4,0.4-0.7,0.8-0.9c0.3-0.2,0.7-0.3,1.2-0.3
					c0.4,0,0.8,0.1,1.1,0.3c0.3,0.2,0.5,0.4,0.7,0.8v-3.3H85z M84,161.1c0.3-0.4,0.4-0.9,0.4-1.5c0-0.7-0.1-1.2-0.4-1.5
					c-0.3-0.4-0.7-0.5-1.2-0.5c-0.5,0-1,0.2-1.2,0.5s-0.4,0.9-0.4,1.5c0,0.7,0.1,1.2,0.4,1.5s0.7,0.6,1.2,0.6
					C83.3,161.7,83.7,161.5,84,161.1z"/>
				<path class="st9" d="M92.4,162.1h-0.6l-0.9-2.4c-0.1-0.3-0.3-0.5-0.5-0.6s-0.5-0.2-0.9-0.2h-2v3.2h-0.6V155h2.8
					c0.7,0,1.3,0.2,1.7,0.5s0.6,0.8,0.6,1.5c0,0.5-0.1,0.8-0.4,1.2c-0.2,0.3-0.6,0.5-1,0.7c0.2,0,0.4,0.1,0.5,0.3
					c0.1,0.1,0.3,0.3,0.4,0.6L92.4,162.1z M89.6,158.4c1.2,0,1.8-0.5,1.8-1.5c0-0.9-0.6-1.4-1.8-1.4h-2.1v2.9H89.6z"/>
				<path class="st9" d="M98.4,160.2h-3.9l-0.8,1.9h-0.6l3.1-7.1h0.6l3.1,7.1h-0.6L98.4,160.2z M98.2,159.7l-1.7-3.9l-1.7,3.9H98.2z
					"/>
				<path class="st9" d="M107.8,155v7.1h-0.6v-5.7l-2.5,5.7h-0.5l-2.5-5.7l0,5.7h-0.6V155h0.5l2.8,6.4l2.8-6.4H107.8z"/>
				<path class="st9" d="M109.7,155h2.7c0.7,0,1.3,0.2,1.7,0.5c0.4,0.3,0.6,0.8,0.6,1.4c0,0.6-0.2,1.1-0.6,1.5s-1,0.5-1.7,0.5h-2.1
					v3.2h-0.6V155z M112.4,158.4c0.6,0,1-0.1,1.3-0.4c0.3-0.2,0.4-0.6,0.4-1.1c0-0.5-0.1-0.8-0.4-1.1c-0.3-0.2-0.7-0.4-1.3-0.4h-2.1
					v2.9H112.4z"/>
				<path class="st9" d="M125.5,155v7.1h-0.6v-5.7l-2.5,5.7h-0.5l-2.5-5.7l0,5.7h-0.6V155h0.5l2.8,6.4l2.8-6.4H125.5z"/>
				<path class="st9" d="M131.5,157.1v5h-0.6v-1c-0.1,0.3-0.4,0.6-0.7,0.8c-0.3,0.2-0.7,0.3-1.1,0.3c-0.4,0-0.8-0.1-1.2-0.3
					c-0.3-0.2-0.6-0.5-0.8-0.9c-0.2-0.4-0.3-0.8-0.3-1.4c0-0.5,0.1-1,0.3-1.4c0.2-0.4,0.4-0.7,0.8-0.9c0.3-0.2,0.7-0.3,1.2-0.3
					c0.4,0,0.8,0.1,1.1,0.3c0.3,0.2,0.5,0.4,0.7,0.8v-0.9H131.5z M130.5,161.1c0.3-0.4,0.4-0.9,0.4-1.5c0-0.7-0.1-1.2-0.4-1.5
					c-0.3-0.4-0.7-0.5-1.2-0.5c-0.5,0-0.9,0.2-1.2,0.6s-0.4,0.9-0.4,1.5c0,0.6,0.1,1.2,0.4,1.5c0.3,0.4,0.7,0.5,1.2,0.5
					C129.8,161.7,130.2,161.5,130.5,161.1z"/>
				<path class="st9" d="M135.8,157l0,0.6c-0.1,0-0.3,0-0.5,0c-0.5,0-0.9,0.2-1.1,0.5c-0.3,0.3-0.4,0.7-0.4,1.2v3h-0.6v-3.6
					c0-0.5,0-1-0.1-1.4h0.6l0.1,0.9c0.1-0.3,0.3-0.6,0.6-0.8c0.3-0.2,0.6-0.3,1-0.3C135.6,157,135.7,157,135.8,157z"/>
				<path class="st9" d="M140.2,162.1l-2.8-2.4v2.4h-0.6v-7.4h0.6v4.7l2.5-2.3h0.8l-2.6,2.4l2.9,2.6H140.2z"/>
				<path class="st9" d="M142.1,159.5L142.1,159.5c0,0.7,0.2,1.2,0.5,1.6c0.3,0.4,0.8,0.5,1.4,0.5c0.6,0,1.2-0.2,1.7-0.6l0.2,0.5
					c-0.2,0.2-0.5,0.4-0.8,0.5c-0.3,0.1-0.7,0.2-1.1,0.2c-0.8,0-1.4-0.2-1.8-0.7c-0.4-0.5-0.7-1.1-0.7-1.9c0-0.5,0.1-1,0.3-1.4
					c0.2-0.4,0.5-0.7,0.8-0.9c0.4-0.2,0.8-0.3,1.2-0.3c0.7,0,1.2,0.2,1.6,0.6c0.4,0.4,0.6,1,0.6,1.8v0.1H142.1z M142.6,157.9
					c-0.3,0.3-0.5,0.7-0.5,1.2h3.2c0-0.5-0.2-0.9-0.5-1.2c-0.3-0.3-0.6-0.4-1.1-0.4C143.3,157.5,142.9,157.6,142.6,157.9z"/>
				<path class="st9" d="M148.1,157.6v3c0,0.4,0.1,0.7,0.2,0.8c0.2,0.2,0.4,0.2,0.7,0.2c0.2,0,0.4,0,0.5-0.1v0.6
					c-0.2,0.1-0.4,0.1-0.7,0.1c-0.4,0-0.8-0.1-1-0.4c-0.3-0.2-0.4-0.6-0.4-1.1v-3.1h-1v-0.5h1v-1.3l0.6-0.2v1.6h1.5v0.5H148.1z"/>
				<path class="st9" d="M154.2,157.3c0.3,0.2,0.6,0.5,0.8,0.9c0.2,0.4,0.3,0.9,0.3,1.4c0,0.5-0.1,1-0.3,1.4
					c-0.2,0.4-0.4,0.7-0.8,0.9s-0.7,0.3-1.2,0.3c-0.4,0-0.8-0.1-1.1-0.3c-0.3-0.2-0.5-0.4-0.7-0.8v3.2h-0.6v-5.8c0-0.5,0-1-0.1-1.4
					h0.6l0.1,1c0.1-0.4,0.4-0.6,0.7-0.8c0.3-0.2,0.7-0.3,1.1-0.3C153.5,157,153.8,157.1,154.2,157.3z M154.2,161.1
					c0.3-0.4,0.4-0.9,0.4-1.5c0-0.7-0.1-1.2-0.4-1.5s-0.7-0.6-1.2-0.6c-0.5,0-0.9,0.2-1.2,0.5s-0.4,0.9-0.4,1.5
					c0,0.7,0.1,1.2,0.4,1.5s0.7,0.5,1.2,0.5C153.5,161.7,153.9,161.5,154.2,161.1z"/>
				<path class="st9" d="M156.6,154.7h0.6v7.4h-0.6V154.7z"/>
				<path class="st9" d="M163.2,157.1v5h-0.6v-1c-0.1,0.3-0.4,0.6-0.7,0.8c-0.3,0.2-0.7,0.3-1.1,0.3c-0.4,0-0.8-0.1-1.2-0.3
					c-0.3-0.2-0.6-0.5-0.8-0.9c-0.2-0.4-0.3-0.8-0.3-1.4c0-0.5,0.1-1,0.3-1.4c0.2-0.4,0.4-0.7,0.8-0.9c0.3-0.2,0.7-0.3,1.2-0.3
					c0.4,0,0.8,0.1,1.1,0.3c0.3,0.2,0.5,0.4,0.7,0.8v-0.9H163.2z M162.2,161.1c0.3-0.4,0.4-0.9,0.4-1.5c0-0.7-0.1-1.2-0.4-1.5
					c-0.3-0.4-0.7-0.5-1.2-0.5c-0.5,0-0.9,0.2-1.2,0.6s-0.4,0.9-0.4,1.5c0,0.6,0.1,1.2,0.4,1.5c0.3,0.4,0.7,0.5,1.2,0.5
					C161.5,161.7,161.9,161.5,162.2,161.1z"/>
				<path class="st9" d="M165.8,161.9c-0.4-0.2-0.6-0.5-0.8-0.9c-0.2-0.4-0.3-0.8-0.3-1.4c0-0.5,0.1-1,0.3-1.4
					c0.2-0.4,0.5-0.7,0.8-0.9c0.4-0.2,0.8-0.3,1.3-0.3c0.3,0,0.7,0.1,1,0.2s0.6,0.3,0.8,0.5l-0.2,0.5c-0.3-0.2-0.5-0.4-0.7-0.5
					s-0.5-0.1-0.7-0.1c-0.5,0-1,0.2-1.3,0.6c-0.3,0.4-0.5,0.9-0.5,1.5c0,0.6,0.2,1.1,0.5,1.5c0.3,0.4,0.7,0.5,1.3,0.5
					c0.3,0,0.5,0,0.7-0.1s0.5-0.2,0.7-0.5l0.2,0.5c-0.2,0.2-0.5,0.4-0.8,0.5c-0.3,0.1-0.6,0.2-1,0.2
					C166.5,162.2,166.1,162.1,165.8,161.9z"/>
				<path class="st9" d="M170.3,159.5L170.3,159.5c0,0.7,0.2,1.2,0.5,1.6c0.3,0.4,0.8,0.5,1.4,0.5c0.6,0,1.2-0.2,1.7-0.6l0.2,0.5
					c-0.2,0.2-0.5,0.4-0.8,0.5c-0.3,0.1-0.7,0.2-1.1,0.2c-0.8,0-1.4-0.2-1.8-0.7c-0.4-0.5-0.7-1.1-0.7-1.9c0-0.5,0.1-1,0.3-1.4
					c0.2-0.4,0.5-0.7,0.8-0.9c0.4-0.2,0.8-0.3,1.2-0.3c0.7,0,1.2,0.2,1.6,0.6c0.4,0.4,0.6,1,0.6,1.8v0.1H170.3z M170.8,157.9
					c-0.3,0.3-0.5,0.7-0.5,1.2h3.2c0-0.5-0.2-0.9-0.5-1.2c-0.3-0.3-0.6-0.4-1.1-0.4C171.5,157.5,171.1,157.6,170.8,157.9z"/>
				<path class="st9" d="M180.7,155h2.3c1.1,0,2,0.3,2.6,0.9c0.6,0.6,0.9,1.5,0.9,2.6c0,1.1-0.3,2-0.9,2.6c-0.6,0.6-1.5,0.9-2.6,0.9
					h-2.3V155z M183,161.6c1,0,1.7-0.3,2.2-0.8c0.5-0.5,0.7-1.3,0.7-2.3c0-2-1-3-2.9-3h-1.6v6.1H183z"/>
				<path class="st9" d="M188.4,159.5L188.4,159.5c0,0.7,0.2,1.2,0.5,1.6c0.3,0.4,0.8,0.5,1.4,0.5c0.6,0,1.2-0.2,1.7-0.6l0.2,0.5
					c-0.2,0.2-0.5,0.4-0.8,0.5c-0.3,0.1-0.7,0.2-1.1,0.2c-0.8,0-1.4-0.2-1.8-0.7c-0.4-0.5-0.7-1.1-0.7-1.9c0-0.5,0.1-1,0.3-1.4
					c0.2-0.4,0.5-0.7,0.8-0.9c0.4-0.2,0.8-0.3,1.2-0.3c0.7,0,1.2,0.2,1.6,0.6c0.4,0.4,0.6,1,0.6,1.8v0.1H188.4z M189,157.9
					c-0.3,0.3-0.5,0.7-0.5,1.2h3.2c0-0.5-0.2-0.9-0.5-1.2c-0.3-0.3-0.6-0.4-1.1-0.4C189.7,157.5,189.3,157.6,189,157.9z"/>
				<path class="st9" d="M193.3,161.5l0.2-0.5c0.3,0.2,0.5,0.4,0.8,0.5c0.3,0.1,0.6,0.1,0.9,0.1c0.4,0,0.7-0.1,0.9-0.2
					c0.2-0.1,0.3-0.4,0.3-0.6c0-0.2-0.1-0.4-0.2-0.5c-0.1-0.1-0.4-0.2-0.7-0.3l-0.9-0.2c-0.4-0.1-0.7-0.3-0.9-0.5
					c-0.2-0.2-0.3-0.5-0.3-0.8c0-0.4,0.2-0.8,0.5-1.1c0.3-0.3,0.8-0.4,1.3-0.4c0.4,0,0.7,0.1,1,0.2c0.3,0.1,0.6,0.3,0.8,0.5
					l-0.2,0.5c-0.5-0.4-1-0.6-1.5-0.6c-0.4,0-0.7,0.1-0.9,0.2c-0.2,0.2-0.3,0.4-0.3,0.6c0,0.2,0.1,0.4,0.2,0.6s0.3,0.2,0.6,0.3
					l0.9,0.2c0.9,0.2,1.4,0.6,1.4,1.3c0,0.4-0.2,0.8-0.5,1c-0.3,0.3-0.8,0.4-1.4,0.4C194.4,162.2,193.8,162,193.3,161.5z"/>
				<path class="st9" d="M199.3,155v0.8h-0.8V155H199.3z M198.6,157.1h0.6v5h-0.6V157.1z"/>
				<path class="st9" d="M205.3,157.1v5c0,0.7-0.2,1.3-0.5,1.7s-0.9,0.6-1.6,0.6c-0.7,0-1.4-0.2-2-0.5l0.1-0.5
					c0.3,0.2,0.6,0.3,0.9,0.4c0.3,0.1,0.6,0.1,0.9,0.1c0.5,0,0.9-0.1,1.1-0.4c0.3-0.3,0.4-0.7,0.4-1.2v-1.3
					c-0.2,0.3-0.4,0.6-0.7,0.8c-0.3,0.2-0.7,0.3-1.1,0.3c-0.4,0-0.8-0.1-1.2-0.3s-0.6-0.5-0.8-0.9c-0.2-0.4-0.3-0.8-0.3-1.3
					c0-0.5,0.1-0.9,0.3-1.3c0.2-0.4,0.5-0.7,0.8-0.9c0.3-0.2,0.7-0.3,1.2-0.3c0.4,0,0.8,0.1,1.1,0.3c0.3,0.2,0.5,0.4,0.7,0.8v-0.9
					H205.3z M204.2,160.9c0.3-0.3,0.4-0.8,0.4-1.4c0-0.6-0.1-1.1-0.4-1.4c-0.3-0.4-0.7-0.5-1.2-0.5c-0.5,0-0.9,0.2-1.2,0.5
					c-0.3,0.4-0.5,0.8-0.5,1.4s0.2,1.1,0.5,1.4c0.3,0.3,0.7,0.5,1.2,0.5C203.5,161.4,203.9,161.3,204.2,160.9z"/>
				<path class="st9" d="M211.1,158.9v3.2h-0.6V159c0-0.5-0.1-0.9-0.3-1.1c-0.2-0.2-0.5-0.4-1-0.4c-0.5,0-0.9,0.2-1.2,0.5
					c-0.3,0.3-0.5,0.7-0.5,1.2v2.9H207v-3.6c0-0.5,0-1-0.1-1.4h0.6l0.1,0.9c0.2-0.3,0.4-0.6,0.7-0.8c0.3-0.2,0.7-0.3,1.1-0.3
					C210.5,157,211.1,157.6,211.1,158.9z"/>
				<path class="st9" d="M217.1,157.1v5h-0.6v-1c-0.1,0.3-0.4,0.6-0.7,0.8c-0.3,0.2-0.7,0.3-1.1,0.3c-0.4,0-0.8-0.1-1.2-0.3
					c-0.3-0.2-0.6-0.5-0.8-0.9c-0.2-0.4-0.3-0.8-0.3-1.4c0-0.5,0.1-1,0.3-1.4c0.2-0.4,0.4-0.7,0.8-0.9c0.3-0.2,0.7-0.3,1.2-0.3
					c0.4,0,0.8,0.1,1.1,0.3c0.3,0.2,0.5,0.4,0.7,0.8v-0.9H217.1z M216.1,161.1c0.3-0.4,0.4-0.9,0.4-1.5c0-0.7-0.1-1.2-0.4-1.5
					c-0.3-0.4-0.7-0.5-1.2-0.5c-0.5,0-0.9,0.2-1.2,0.6s-0.4,0.9-0.4,1.5c0,0.6,0.1,1.2,0.4,1.5c0.3,0.4,0.7,0.5,1.2,0.5
					C215.4,161.7,215.8,161.5,216.1,161.1z"/>
				<path class="st9" d="M219.7,157.6v3c0,0.4,0.1,0.7,0.2,0.8c0.2,0.2,0.4,0.2,0.7,0.2c0.2,0,0.4,0,0.5-0.1v0.6
					c-0.2,0.1-0.4,0.1-0.7,0.1c-0.4,0-0.8-0.1-1-0.4c-0.3-0.2-0.4-0.6-0.4-1.1v-3.1h-1v-0.5h1v-1.3l0.6-0.2v1.6h1.5v0.5H219.7z"/>
				<path class="st9" d="M223,155v0.8h-0.8V155H223z M222.2,157.1h0.6v5h-0.6V157.1z"/>
				<path class="st9" d="M225.4,161.9c-0.4-0.2-0.6-0.5-0.8-0.9c-0.2-0.4-0.3-0.9-0.3-1.4s0.1-1,0.3-1.4c0.2-0.4,0.5-0.7,0.8-0.9
					c0.4-0.2,0.8-0.3,1.2-0.3c0.5,0,0.9,0.1,1.2,0.3c0.3,0.2,0.6,0.5,0.8,0.9c0.2,0.4,0.3,0.9,0.3,1.4s-0.1,1-0.3,1.4
					c-0.2,0.4-0.5,0.7-0.8,0.9c-0.3,0.2-0.7,0.3-1.2,0.3C226.1,162.2,225.7,162.1,225.4,161.9z M227.8,161.1
					c0.3-0.4,0.4-0.9,0.4-1.5c0-0.7-0.1-1.2-0.4-1.5c-0.3-0.4-0.7-0.5-1.2-0.5c-0.5,0-0.9,0.2-1.2,0.5c-0.3,0.4-0.4,0.9-0.4,1.5
					c0,0.7,0.1,1.2,0.4,1.5c0.3,0.4,0.7,0.5,1.2,0.5C227.1,161.7,227.5,161.5,227.8,161.1z"/>
				<path class="st9" d="M234.4,158.9v3.2h-0.6V159c0-0.5-0.1-0.9-0.3-1.1c-0.2-0.2-0.5-0.4-1-0.4c-0.5,0-0.9,0.2-1.2,0.5
					c-0.3,0.3-0.5,0.7-0.5,1.2v2.9h-0.6v-3.6c0-0.5,0-1-0.1-1.4h0.6l0.1,0.9c0.2-0.3,0.4-0.6,0.7-0.8c0.3-0.2,0.7-0.3,1.1-0.3
					C233.8,157,234.4,157.6,234.4,158.9z"/>
				<path class="st9" d="M238.7,159.2h2.8v0.5h-2.8V159.2z"/>
				<path class="st9" d="M251.2,162.1h-0.6l-0.9-2.4c-0.1-0.3-0.3-0.5-0.5-0.6s-0.5-0.2-0.9-0.2h-2v3.2h-0.6V155h2.8
					c0.7,0,1.3,0.2,1.7,0.5s0.6,0.8,0.6,1.5c0,0.5-0.1,0.8-0.4,1.2c-0.2,0.3-0.6,0.5-1,0.7c0.2,0,0.4,0.1,0.5,0.3
					c0.1,0.1,0.3,0.3,0.4,0.6L251.2,162.1z M248.5,158.4c1.2,0,1.8-0.5,1.8-1.5c0-0.9-0.6-1.4-1.8-1.4h-2.1v2.9H248.5z"/>
				<path class="st9" d="M252.9,159.5L252.9,159.5c0,0.7,0.2,1.2,0.5,1.6c0.3,0.4,0.8,0.5,1.4,0.5c0.6,0,1.2-0.2,1.7-0.6l0.2,0.5
					c-0.2,0.2-0.5,0.4-0.8,0.5c-0.3,0.1-0.7,0.2-1.1,0.2c-0.8,0-1.4-0.2-1.8-0.7c-0.4-0.5-0.7-1.1-0.7-1.9c0-0.5,0.1-1,0.3-1.4
					c0.2-0.4,0.5-0.7,0.8-0.9c0.4-0.2,0.8-0.3,1.2-0.3c0.7,0,1.2,0.2,1.6,0.6c0.4,0.4,0.6,1,0.6,1.8v0.1H252.9z M253.5,157.9
					c-0.3,0.3-0.5,0.7-0.5,1.2h3.2c0-0.5-0.2-0.9-0.5-1.2c-0.3-0.3-0.6-0.4-1.1-0.4C254.2,157.5,253.8,157.6,253.5,157.9z"/>
				<path class="st9" d="M262.4,157.1v5h-0.6v-1c-0.1,0.3-0.4,0.6-0.7,0.8c-0.3,0.2-0.7,0.3-1.1,0.3c-0.4,0-0.8-0.1-1.2-0.3
					c-0.3-0.2-0.6-0.5-0.8-0.9c-0.2-0.4-0.3-0.8-0.3-1.4c0-0.5,0.1-1,0.3-1.4c0.2-0.4,0.4-0.7,0.8-0.9c0.3-0.2,0.7-0.3,1.2-0.3
					c0.4,0,0.8,0.1,1.1,0.3c0.3,0.2,0.5,0.4,0.7,0.8v-0.9H262.4z M261.3,161.1c0.3-0.4,0.4-0.9,0.4-1.5c0-0.7-0.1-1.2-0.4-1.5
					c-0.3-0.4-0.7-0.5-1.2-0.5c-0.5,0-0.9,0.2-1.2,0.6s-0.4,0.9-0.4,1.5c0,0.6,0.1,1.2,0.4,1.5c0.3,0.4,0.7,0.5,1.2,0.5
					C260.6,161.7,261,161.5,261.3,161.1z"/>
				<path class="st9" d="M268.3,154.7v7.4h-0.6v-1c-0.1,0.3-0.4,0.6-0.7,0.8c-0.3,0.2-0.7,0.3-1.1,0.3c-0.4,0-0.8-0.1-1.2-0.3
					s-0.6-0.5-0.8-0.9c-0.2-0.4-0.3-0.9-0.3-1.4c0-0.5,0.1-1,0.3-1.4c0.2-0.4,0.4-0.7,0.8-0.9c0.3-0.2,0.7-0.3,1.2-0.3
					c0.4,0,0.8,0.1,1.1,0.3c0.3,0.2,0.5,0.4,0.7,0.8v-3.3H268.3z M267.3,161.1c0.3-0.4,0.4-0.9,0.4-1.5c0-0.7-0.1-1.2-0.4-1.5
					c-0.3-0.4-0.7-0.5-1.2-0.5c-0.5,0-1,0.2-1.2,0.5s-0.4,0.9-0.4,1.5c0,0.7,0.1,1.2,0.4,1.5s0.7,0.6,1.2,0.6
					C266.6,161.7,267,161.5,267.3,161.1z"/>
				<path class="st9" d="M274.3,157.1l-2.4,5.5c-0.2,0.5-0.5,1-0.9,1.2c-0.4,0.3-0.8,0.4-1.3,0.5l-0.1-0.5c0.5-0.1,0.8-0.3,1.1-0.4
					c0.2-0.2,0.4-0.5,0.6-0.9l0.2-0.5l-2.1-5h0.7l1.8,4.4l1.8-4.4H274.3z"/>
			</g>
		</g>
		<g>
			<g>
				<path class="st1" d="M50.3,89.4L48.5,87c-0.2,0-0.3,0-0.5,0h-2v2.4H45v-7.9h3.1c2.1,0,3.3,1,3.3,2.8c0,1.2-0.6,2.1-1.7,2.5
					l1.9,2.7H50.3z M50.2,84.3c0-1.1-0.8-1.8-2.2-1.8h-1.9v3.6H48C49.5,86.1,50.2,85.4,50.2,84.3z"/>
				<path class="st1" d="M58.5,86.8h-4.9c0.1,1,1,1.8,2.2,1.8c0.7,0,1.3-0.2,1.7-0.7l0.6,0.7c-0.5,0.6-1.4,1-2.4,1
					c-1.9,0-3.2-1.3-3.2-3.1c0-1.8,1.3-3,3-3c1.7,0,3,1.2,3,3.1C58.5,86.6,58.5,86.7,58.5,86.8z M53.7,86h3.8
					c-0.1-1-0.9-1.7-1.9-1.7C54.5,84.3,53.8,85,53.7,86z"/>
				<path class="st1" d="M64.7,85.8v3.6h-1v-0.8c-0.4,0.5-1,0.9-2,0.9c-1.4,0-2.2-0.7-2.2-1.8c0-1,0.6-1.8,2.4-1.8h1.7v-0.2
					c0-0.9-0.5-1.4-1.6-1.4c-0.7,0-1.4,0.2-1.9,0.6l-0.5-0.8c0.6-0.5,1.5-0.8,2.5-0.8C63.8,83.4,64.7,84.2,64.7,85.8z M63.6,87.6
					v-0.8H62c-1.1,0-1.4,0.4-1.4,0.9c0,0.6,0.5,1,1.3,1C62.7,88.7,63.4,88.3,63.6,87.6z"/>
				<path class="st1" d="M72.5,81.1v8.4h-1v-0.9c-0.5,0.7-1.3,1-2.1,1c-1.8,0-3-1.2-3-3.1s1.3-3,3-3c0.8,0,1.6,0.3,2.1,1v-3.3H72.5z
					 M71.5,86.4c0-1.3-0.9-2.1-2-2.1c-1.2,0-2,0.8-2,2.1s0.9,2.1,2,2.1C70.6,88.6,71.5,87.7,71.5,86.4z"/>
				<path class="st1" d="M74.5,81.6c0-0.4,0.3-0.7,0.7-0.7c0.4,0,0.7,0.3,0.7,0.7c0,0.4-0.3,0.7-0.7,0.7
					C74.8,82.3,74.5,82,74.5,81.6z M74.7,83.5h1.1v6h-1.1V83.5z"/>
				<path class="st1" d="M83.6,86v3.4h-1.1v-3.3c0-1.2-0.6-1.8-1.6-1.8c-1.2,0-1.9,0.7-1.9,2v3.1H78v-6h1v0.9c0.4-0.6,1.2-1,2.2-1
					C82.6,83.4,83.6,84.2,83.6,86z"/>
				<path class="st1" d="M91.2,86.8h-4.9c0.1,1,1,1.8,2.2,1.8c0.7,0,1.3-0.2,1.7-0.7l0.6,0.7c-0.5,0.6-1.4,1-2.4,1
					c-1.9,0-3.2-1.3-3.2-3.1c0-1.8,1.3-3,3-3c1.7,0,3,1.2,3,3.1C91.2,86.6,91.2,86.7,91.2,86.8z M86.3,86h3.8
					c-0.1-1-0.9-1.7-1.9-1.7C87.2,84.3,86.4,85,86.3,86z"/>
				<path class="st1" d="M92.1,88.8l0.5-0.9c0.5,0.4,1.3,0.6,2.1,0.6c1,0,1.4-0.3,1.4-0.8c0-1.3-3.8-0.2-3.8-2.6
					c0-1.1,1-1.8,2.5-1.8c0.8,0,1.7,0.2,2.2,0.5l-0.5,0.9c-0.5-0.4-1.1-0.5-1.7-0.5c-0.9,0-1.4,0.4-1.4,0.8c0,1.4,3.8,0.3,3.8,2.6
					c0,1.1-1,1.8-2.6,1.8C93.5,89.5,92.6,89.2,92.1,88.8z"/>
				<path class="st1" d="M97.8,88.8l0.5-0.9c0.5,0.4,1.3,0.6,2.1,0.6c1,0,1.4-0.3,1.4-0.8c0-1.3-3.8-0.2-3.8-2.6
					c0-1.1,1-1.8,2.5-1.8c0.8,0,1.7,0.2,2.2,0.5l-0.5,0.9c-0.5-0.4-1.1-0.5-1.7-0.5c-0.9,0-1.4,0.4-1.4,0.8c0,1.4,3.8,0.3,3.8,2.6
					c0,1.1-1,1.8-2.6,1.8C99.3,89.5,98.3,89.2,97.8,88.8z"/>
				<path class="st1" d="M112.7,87.5h-4.2l-0.9,2h-1.2l3.6-7.9h1.1l3.6,7.9h-1.2L112.7,87.5z M112.3,86.6l-1.7-3.9l-1.7,3.9H112.3z"
					/>
				<path class="st1" d="M115.1,88.8l0.5-0.9c0.5,0.4,1.3,0.6,2.1,0.6c1,0,1.4-0.3,1.4-0.8c0-1.3-3.8-0.2-3.8-2.6
					c0-1.1,1-1.8,2.5-1.8c0.8,0,1.7,0.2,2.2,0.5l-0.5,0.9c-0.5-0.4-1.1-0.5-1.7-0.5c-0.9,0-1.4,0.4-1.4,0.8c0,1.4,3.8,0.3,3.8,2.6
					c0,1.1-1,1.8-2.6,1.8C116.5,89.5,115.6,89.2,115.1,88.8z"/>
				<path class="st1" d="M120.8,88.8l0.5-0.9c0.5,0.4,1.3,0.6,2.1,0.6c1,0,1.4-0.3,1.4-0.8c0-1.3-3.8-0.2-3.8-2.6
					c0-1.1,1-1.8,2.5-1.8c0.8,0,1.7,0.2,2.2,0.5l-0.5,0.9c-0.5-0.4-1.1-0.5-1.7-0.5c-0.9,0-1.4,0.4-1.4,0.8c0,1.4,3.8,0.3,3.8,2.6
					c0,1.1-1,1.8-2.6,1.8C122.3,89.5,121.3,89.2,120.8,88.8z"/>
				<path class="st1" d="M132.7,86.8h-4.9c0.1,1,1,1.8,2.2,1.8c0.7,0,1.3-0.2,1.7-0.7l0.6,0.7c-0.5,0.6-1.4,1-2.4,1
					c-1.9,0-3.2-1.3-3.2-3.1c0-1.8,1.3-3,3-3c1.7,0,3,1.2,3,3.1C132.8,86.6,132.8,86.7,132.7,86.8z M127.9,86h3.8
					c-0.1-1-0.9-1.7-1.9-1.7C128.8,84.3,128,85,127.9,86z"/>
				<path class="st1" d="M133.6,88.8l0.5-0.9c0.5,0.4,1.3,0.6,2.1,0.6c1,0,1.4-0.3,1.4-0.8c0-1.3-3.8-0.2-3.8-2.6
					c0-1.1,1-1.8,2.5-1.8c0.8,0,1.7,0.2,2.2,0.5l-0.5,0.9c-0.5-0.4-1.1-0.5-1.7-0.5c-0.9,0-1.4,0.4-1.4,0.8c0,1.4,3.8,0.3,3.8,2.6
					c0,1.1-1,1.8-2.6,1.8C135.1,89.5,134.1,89.2,133.6,88.8z"/>
				<path class="st1" d="M139.4,88.8l0.5-0.9c0.5,0.4,1.3,0.6,2.1,0.6c1,0,1.4-0.3,1.4-0.8c0-1.3-3.8-0.2-3.8-2.6
					c0-1.1,1-1.8,2.5-1.8c0.8,0,1.7,0.2,2.2,0.5l-0.5,0.9c-0.5-0.4-1.1-0.5-1.7-0.5c-0.9,0-1.4,0.4-1.4,0.8c0,1.4,3.8,0.3,3.8,2.6
					c0,1.1-1,1.8-2.6,1.8C140.9,89.5,139.9,89.2,139.4,88.8z"/>
				<path class="st1" d="M155.9,86v3.4h-1.1v-3.3c0-1.2-0.6-1.8-1.5-1.8c-1.1,0-1.8,0.7-1.8,2v3.1h-1.1v-3.3c0-1.2-0.6-1.8-1.5-1.8
					c-1.1,0-1.8,0.7-1.8,2v3.1h-1.1v-6h1v0.9c0.4-0.6,1.2-0.9,2.1-0.9c0.9,0,1.7,0.4,2.1,1.1c0.5-0.7,1.3-1.1,2.3-1.1
					C154.9,83.4,155.9,84.2,155.9,86z"/>
				<path class="st1" d="M163.4,86.8h-4.9c0.1,1,1,1.8,2.2,1.8c0.7,0,1.3-0.2,1.7-0.7l0.6,0.7c-0.5,0.6-1.4,1-2.4,1
					c-1.9,0-3.2-1.3-3.2-3.1c0-1.8,1.3-3,3-3c1.7,0,3,1.2,3,3.1C163.4,86.6,163.4,86.7,163.4,86.8z M158.5,86h3.8
					c-0.1-1-0.9-1.7-1.9-1.7C159.4,84.3,158.6,85,158.5,86z"/>
				<path class="st1" d="M170.7,86v3.4h-1.1v-3.3c0-1.2-0.6-1.8-1.6-1.8c-1.2,0-1.9,0.7-1.9,2v3.1H165v-6h1v0.9c0.4-0.6,1.2-1,2.2-1
					C169.7,83.4,170.7,84.2,170.7,86z"/>
				<path class="st1" d="M176.2,89.1c-0.3,0.3-0.8,0.4-1.3,0.4c-1.2,0-1.9-0.7-1.9-1.9v-3.3h-1v-0.9h1v-1.3h1.1v1.3h1.7v0.9h-1.7
					v3.2c0,0.6,0.3,1,0.9,1c0.3,0,0.6-0.1,0.8-0.3L176.2,89.1z"/>
				<path class="st9" d="M179.8,88.9c0-2.2,0.8-4.5,2-5.9h0.4c-1.2,1.5-2,3.9-2,6c0,0.8,0.1,1.5,0.4,2.2h-0.4
					C179.9,90.5,179.8,89.6,179.8,88.9z"/>
				<path class="st9" d="M185.4,84.8l-0.1,0.4c-0.1,0-0.1,0-0.1,0c-1,0-1.7,0.6-2,1.8l-0.5,2.4h-0.4l0.9-4.6h0.4l-0.2,1
					C183.9,85.2,184.5,84.8,185.4,84.8z"/>
				<path class="st9" d="M186.1,87.2c0,0.1,0,0.2,0,0.3c0,1,0.6,1.5,1.7,1.5c0.6,0,1.2-0.2,1.6-0.6l0.2,0.3
					c-0.4,0.4-1.1,0.7-1.8,0.7c-1.3,0-2.1-0.7-2.1-1.9c0-1.6,1.1-2.7,2.5-2.7c1.2,0,1.9,0.7,1.9,1.9c0,0.2,0,0.4-0.1,0.5H186.1z
					 M186.2,86.9h3.5c0-0.1,0-0.1,0-0.2c0-0.9-0.6-1.5-1.5-1.5C187.1,85.2,186.4,85.9,186.2,86.9z"/>
				<path class="st9" d="M196.1,84.9l-1.3,6.3h-0.4l0.5-2.6c-0.4,0.6-1.1,0.9-1.9,0.9c-1.2,0-2-0.7-2-1.9c0-1.6,1.1-2.7,2.6-2.7
					c1,0,1.6,0.4,1.8,1.2l0.2-1.2H196.1z M195.2,86.8c0-1-0.6-1.5-1.6-1.5c-1.2,0-2.1,1-2.1,2.3c0,1,0.6,1.5,1.6,1.5
					C194.3,89.1,195.2,88.1,195.2,86.8z"/>
				<path class="st9" d="M202,84.9l-0.9,4.6h-0.4l0.2-0.9c-0.4,0.6-1.1,0.9-1.9,0.9c-1,0-1.6-0.6-1.6-1.5c0-0.2,0-0.3,0.1-0.5
					l0.5-2.6h0.4l-0.5,2.6c0,0.2,0,0.3,0,0.4c0,0.7,0.4,1.1,1.3,1.1c1,0,1.8-0.6,2-1.7l0.5-2.5H202z"/>
				<path class="st9" d="M204,84.9h0.4l-0.9,4.6H203L204,84.9z M204.1,83.4c0-0.2,0.2-0.4,0.4-0.4c0.2,0,0.3,0.1,0.3,0.3
					c0,0.2-0.2,0.4-0.4,0.4C204.2,83.7,204.1,83.6,204.1,83.4z"/>
				<path class="st9" d="M208.5,84.8l-0.1,0.4c-0.1,0-0.1,0-0.1,0c-1,0-1.7,0.6-2,1.8l-0.5,2.4h-0.4l0.9-4.6h0.4l-0.2,1
					C207,85.2,207.6,84.8,208.5,84.8z"/>
				<path class="st9" d="M209.2,87.2c0,0.1,0,0.2,0,0.3c0,1,0.6,1.5,1.7,1.5c0.6,0,1.2-0.2,1.6-0.6l0.2,0.3
					c-0.4,0.4-1.1,0.7-1.8,0.7c-1.3,0-2.1-0.7-2.1-1.9c0-1.6,1.1-2.7,2.5-2.7c1.2,0,1.9,0.7,1.9,1.9c0,0.2,0,0.4-0.1,0.5H209.2z
					 M209.3,86.9h3.5c0-0.1,0-0.1,0-0.2c0-0.9-0.6-1.5-1.5-1.5C210.3,85.2,209.5,85.9,209.3,86.9z"/>
				<path class="st9" d="M219.6,82.9l-1.3,6.5h-0.4l0.2-0.9c-0.4,0.6-1.1,0.9-1.9,0.9c-1.2,0-2-0.7-2-1.9c0-1.6,1.1-2.7,2.6-2.7
					c1,0,1.6,0.4,1.8,1.2l0.6-3.1H219.6z M218.3,86.8c0-1-0.6-1.5-1.6-1.5c-1.2,0-2.1,1-2.1,2.3c0,1,0.6,1.5,1.6,1.5
					C217.4,89.1,218.3,88.1,218.3,86.8z"/>
				<path class="st9" d="M221.9,85.2c0-0.8-0.1-1.5-0.4-2.2h0.4c0.2,0.7,0.4,1.5,0.4,2.3c0,2.2-0.8,4.5-2,5.9h-0.4
					C221.1,89.6,221.9,87.3,221.9,85.2z"/>
			</g>
		</g>
		<rect x="52.4" y="101.3" class="st1" width="0.8" height="45"/>
		<g>
			<g id="g56755_1_" transform="matrix(14,0,0,14,49637.042,519374.88)">
				<path id="path56757_1_" class="st15" d="M-3541.2-37086.9c0,0.3-0.2,0.5-0.5,0.5l0,0c-0.3,0-0.5-0.2-0.5-0.5l0,0
					c0-0.3,0.2-0.5,0.5-0.5l0,0C-3541.4-37087.5-3541.2-37087.2-3541.2-37086.9L-3541.2-37086.9z"/>
			</g>
			<path id="path53460_1_" class="st16" d="M56.3,154.2c-2.1,1-3.2,3.1-4.2,5l-1.4-1.4c-0.7,0.5-1.5,1-2.2,1.4l5.9,5.9
				c3.3-0.7,5.7-3.6,5.9-6.9L56.3,154.2z"/>
			<path id="path38606_1_" class="st4" d="M50.7,157.9c0.4,0.6,0.8,1.3,1.1,2c1.1-2.1,2.2-4.5,4.5-5.7c-0.2,1-0.4,2.1,0,3.1
				c-2,1-3.2,2.8-4.4,4.7c-1.2-1.7-2.2-2.2-3.4-2.8C49.2,158.8,50,158.4,50.7,157.9L50.7,157.9z"/>
		</g>
	</g>
	<g>
		<polygon class="st1" points="10,166.1 0,153 10,153 		"/>
		<polygon class="st1" points="310,166.1 320,153 310,153 		"/>
		<rect x="10" y="145.9" class="st8" width="300" height="12.4"/>
	</g>
	<rect x="10" y="0" class="st7" width="300" height="294.6"/>
	<g>
		<rect x="0" y="54.5" class="st2" width="320" height="99.1"/>
		<g>
			<g>
				<path class="st1" d="M21.4,75.1v3.4h4.8v1.2h-4.8v3.9H20v-9.6h6.8v1.2H21.4z"/>
				<path class="st1" d="M35,80.3h-5.9c0.2,1.3,1.2,2.1,2.6,2.1c0.9,0,1.6-0.3,2.1-0.9l0.7,0.9c-0.7,0.8-1.7,1.2-2.9,1.2
					c-2.3,0-3.9-1.6-3.9-3.7c0-2.2,1.6-3.7,3.7-3.7c2.1,0,3.6,1.5,3.6,3.7C35,80,35,80.2,35,80.3z M29.1,79.3h4.7
					c-0.1-1.2-1.1-2.1-2.3-2.1C30.2,77.3,29.2,78.1,29.1,79.3z"/>
				<path class="st1" d="M43.8,73.3v10.2h-1.3v-1.2c-0.6,0.8-1.5,1.2-2.6,1.2c-2.1,0-3.7-1.5-3.7-3.7s1.6-3.7,3.7-3.7
					c1,0,1.9,0.4,2.5,1.2v-4H43.8z M42.5,79.8c0-1.6-1.1-2.6-2.4-2.6c-1.4,0-2.5,1-2.5,2.6s1.1,2.6,2.5,2.6
					C41.5,82.4,42.5,81.4,42.5,79.8z"/>
				<path class="st1" d="M53.1,83.5l-2.1-3c-0.2,0-0.4,0-0.6,0H48v2.9h-1.4v-9.6h3.7c2.5,0,4,1.3,4,3.4c0,1.5-0.8,2.6-2.1,3l2.3,3.2
					H53.1z M53.1,77.2c0-1.4-0.9-2.2-2.7-2.2H48v4.3h2.3C52.1,79.4,53.1,78.6,53.1,77.2z"/>
				<path class="st1" d="M62.9,81.1h-5.1l-1.1,2.4h-1.4l4.4-9.6H61l4.4,9.6H64L62.9,81.1z M62.4,80l-2.1-4.7L58.3,80H62.4z"/>
				<path class="st1" d="M75.9,83.5l0-7l-3.5,5.8h-0.6l-3.5-5.8v7H67v-9.6h1.1l4,6.8l4-6.8h1.1l0,9.6H75.9z"/>
				<path class="st1" d="M88,77.2c0,2.1-1.5,3.4-4,3.4h-2.4v2.9h-1.4v-9.6H84C86.5,73.9,88,75.1,88,77.2z M86.6,77.2
					c0-1.4-0.9-2.2-2.7-2.2h-2.3v4.3h2.3C85.7,79.4,86.6,78.6,86.6,77.2z"/>
				<path class="st1" d="M93.3,78.7c0-2.8,2.2-4.9,5.1-4.9c1.5,0,2.8,0.5,3.7,1.5l-0.9,0.9c-0.7-0.8-1.6-1.1-2.7-1.1
					c-2.2,0-3.8,1.6-3.8,3.7c0,2.1,1.6,3.7,3.8,3.7c1.1,0,2-0.4,2.7-1.2l0.9,0.9c-0.9,1-2.2,1.5-3.7,1.5
					C95.5,83.6,93.3,81.5,93.3,78.7z"/>
				<path class="st1" d="M103,79.8c0-2.2,1.6-3.7,3.8-3.7s3.8,1.5,3.8,3.7s-1.6,3.7-3.8,3.7S103,82,103,79.8z M109.2,79.8
					c0-1.6-1-2.6-2.4-2.6c-1.4,0-2.5,1-2.5,2.6s1.1,2.6,2.5,2.6C108.2,82.4,109.2,81.4,109.2,79.8z"/>
				<path class="st1" d="M119.5,79.3v4.2h-1.3v-4c0-1.4-0.7-2.1-2-2.1c-1.4,0-2.3,0.8-2.3,2.4v3.7h-1.3v-7.3h1.3v1.1
					c0.5-0.7,1.5-1.2,2.6-1.2C118.2,76.1,119.5,77.2,119.5,79.3z"/>
				<path class="st1" d="M128.9,79.3v4.2h-1.3v-4c0-1.4-0.7-2.1-2-2.1c-1.4,0-2.3,0.8-2.3,2.4v3.7H122v-7.3h1.3v1.1
					c0.5-0.7,1.5-1.2,2.6-1.2C127.7,76.1,128.9,77.2,128.9,79.3z"/>
				<path class="st1" d="M138.1,80.3h-5.9c0.2,1.3,1.2,2.1,2.6,2.1c0.9,0,1.6-0.3,2.1-0.9l0.7,0.9c-0.7,0.8-1.7,1.2-2.9,1.2
					c-2.3,0-3.9-1.6-3.9-3.7c0-2.2,1.6-3.7,3.7-3.7c2.1,0,3.6,1.5,3.6,3.7C138.1,80,138.1,80.2,138.1,80.3z M132.2,79.3h4.7
					c-0.1-1.2-1.1-2.1-2.3-2.1C133.3,77.3,132.3,78.1,132.2,79.3z"/>
				<path class="st1" d="M139.4,79.8c0-2.2,1.6-3.7,3.8-3.7c1.3,0,2.4,0.5,3,1.6l-1,0.6c-0.5-0.7-1.2-1-2-1c-1.4,0-2.5,1-2.5,2.6
					c0,1.6,1.1,2.6,2.5,2.6c0.8,0,1.5-0.3,2-1l1,0.6c-0.6,1-1.7,1.6-3,1.6C141,83.6,139.4,82,139.4,79.8z"/>
				<path class="st1" d="M152.3,83.1c-0.4,0.3-1,0.5-1.6,0.5c-1.5,0-2.3-0.8-2.3-2.3v-4h-1.2v-1.1h1.2v-1.6h1.3v1.6h2.1v1.1h-2.1
					v3.9c0,0.8,0.4,1.2,1.1,1.2c0.4,0,0.8-0.1,1-0.3L152.3,83.1z"/>
			</g>
		</g>
		<g>
			<g>
				<path class="st9" d="M50.2,105h5.2v0.6h-4.5v3.3h4.2v0.7h-4.2v4.1h-0.8V105z"/>
				<path class="st9" d="M57.2,110.6L57.2,110.6c0,0.9,0.2,1.5,0.6,1.9c0.4,0.4,0.9,0.7,1.7,0.7c0.7,0,1.4-0.3,2-0.8l0.3,0.6
					c-0.3,0.3-0.6,0.5-1,0.6c-0.4,0.2-0.8,0.2-1.3,0.2c-0.9,0-1.7-0.3-2.2-0.8s-0.8-1.3-0.8-2.3c0-0.6,0.1-1.2,0.4-1.7
					c0.2-0.5,0.6-0.9,1-1.1c0.4-0.3,0.9-0.4,1.5-0.4c0.8,0,1.4,0.3,1.9,0.8c0.5,0.5,0.7,1.2,0.7,2.2v0.2H57.2z M57.9,108.6
					c-0.4,0.3-0.6,0.8-0.7,1.4h3.9c0-0.6-0.2-1.1-0.5-1.4s-0.8-0.5-1.3-0.5C58.7,108.1,58.3,108.2,57.9,108.6z"/>
				<path class="st9" d="M68.7,104.7v9H68v-1.2c-0.2,0.4-0.4,0.7-0.8,0.9c-0.4,0.2-0.8,0.3-1.3,0.3c-0.5,0-1-0.1-1.4-0.4
					c-0.4-0.3-0.7-0.6-1-1.1c-0.2-0.5-0.3-1-0.3-1.7s0.1-1.2,0.3-1.7c0.2-0.5,0.5-0.8,1-1.1c0.4-0.3,0.9-0.4,1.4-0.4
					c0.5,0,0.9,0.1,1.3,0.3c0.4,0.2,0.6,0.5,0.8,0.9v-4H68.7z M67.4,112.5c0.3-0.4,0.5-1.1,0.5-1.9c0-0.8-0.2-1.4-0.5-1.9
					c-0.4-0.4-0.8-0.7-1.5-0.7c-0.7,0-1.2,0.2-1.5,0.7c-0.4,0.4-0.5,1.1-0.5,1.8c0,0.8,0.2,1.4,0.5,1.9c0.4,0.4,0.9,0.7,1.5,0.7
					C66.6,113.2,67.1,112.9,67.4,112.5z"/>
				<path class="st9" d="M77.6,113.7h-0.8l-1.1-2.9c-0.1-0.4-0.3-0.7-0.6-0.8c-0.2-0.1-0.6-0.2-1.1-0.2h-2.4v3.9h-0.8V105h3.4
					c0.9,0,1.6,0.2,2.1,0.6c0.5,0.4,0.7,1,0.7,1.8c0,0.6-0.1,1-0.4,1.4c-0.3,0.4-0.7,0.7-1.3,0.8c0.3,0,0.5,0.1,0.6,0.3
					c0.2,0.2,0.3,0.4,0.5,0.8L77.6,113.7z M74.2,109.2c1.4,0,2.1-0.6,2.1-1.8c0-1.1-0.7-1.7-2.1-1.7h-2.6v3.5H74.2z"/>
				<path class="st9" d="M85,111.4h-4.7l-1,2.3h-0.8l3.8-8.7H83l3.8,8.7h-0.8L85,111.4z M84.7,110.8l-2.1-4.8l-2.1,4.8H84.7z"/>
				<path class="st9" d="M96.3,105v8.7h-0.7v-7l-3.1,7H92l-3.1-6.9l0,6.9h-0.7V105h0.6l3.4,7.8l3.4-7.8H96.3z"/>
				<path class="st9" d="M98.6,105h3.3c0.9,0,1.6,0.2,2.1,0.6c0.5,0.4,0.7,1,0.7,1.7c0,0.7-0.2,1.3-0.8,1.8s-1.2,0.6-2,0.6h-2.6v3.9
					h-0.8V105z M101.9,109.2c0.7,0,1.2-0.2,1.5-0.5c0.4-0.3,0.5-0.7,0.5-1.3c0-0.6-0.2-1-0.5-1.3c-0.3-0.3-0.9-0.5-1.5-0.5h-2.5v3.5
					H101.9z"/>
				<path class="st9" d="M111.3,113.3c-0.6-0.4-1-0.9-1.4-1.5s-0.5-1.5-0.5-2.4c0-0.9,0.2-1.7,0.5-2.4c0.3-0.7,0.8-1.2,1.4-1.5
					c0.6-0.4,1.3-0.5,2.1-0.5c0.6,0,1.2,0.1,1.7,0.3c0.5,0.2,0.9,0.5,1.3,0.8l-0.3,0.6c-0.4-0.4-0.8-0.6-1.2-0.8
					c-0.4-0.2-0.9-0.2-1.4-0.2c-1,0-1.8,0.3-2.3,1c-0.6,0.7-0.8,1.6-0.8,2.8c0,1.2,0.3,2.1,0.8,2.8s1.3,1,2.3,1c0.5,0,1-0.1,1.4-0.2
					c0.4-0.2,0.8-0.4,1.2-0.8l0.3,0.6c-0.4,0.4-0.8,0.7-1.3,0.8c-0.5,0.2-1.1,0.3-1.7,0.3C112.5,113.8,111.8,113.7,111.3,113.3z"/>
				<path class="st9" d="M118.9,113.4c-0.4-0.3-0.8-0.6-1-1.1c-0.2-0.5-0.3-1-0.3-1.7s0.1-1.2,0.3-1.7c0.2-0.5,0.6-0.9,1-1.1
					c0.4-0.3,0.9-0.4,1.5-0.4c0.6,0,1,0.1,1.5,0.4c0.4,0.3,0.8,0.6,1,1.1c0.2,0.5,0.3,1,0.3,1.7s-0.1,1.2-0.3,1.7
					c-0.2,0.5-0.6,0.9-1,1.1c-0.4,0.3-0.9,0.4-1.5,0.4C119.8,113.8,119.3,113.7,118.9,113.4z M121.8,112.5c0.4-0.4,0.5-1.1,0.5-1.9
					c0-0.8-0.2-1.4-0.5-1.9c-0.4-0.4-0.9-0.7-1.5-0.7c-0.6,0-1.1,0.2-1.5,0.7c-0.4,0.4-0.5,1.1-0.5,1.9c0,0.8,0.2,1.4,0.5,1.9
					c0.3,0.4,0.9,0.6,1.5,0.6C121,113.2,121.5,112.9,121.8,112.5z"/>
				<path class="st9" d="M129.9,109.8v3.9h-0.7v-3.8c0-0.6-0.1-1.1-0.4-1.3c-0.2-0.3-0.6-0.4-1.2-0.4c-0.6,0-1.1,0.2-1.5,0.6
					c-0.4,0.4-0.6,0.9-0.6,1.5v3.5h-0.7v-4.4c0-0.6,0-1.2-0.1-1.7h0.7l0.1,1.1c0.2-0.4,0.5-0.7,0.8-0.9c0.4-0.2,0.8-0.3,1.3-0.3
					C129.2,107.5,129.9,108.3,129.9,109.8z"/>
				<path class="st9" d="M137,109.8v3.9h-0.7v-3.8c0-0.6-0.1-1.1-0.4-1.3c-0.2-0.3-0.6-0.4-1.2-0.4c-0.6,0-1.1,0.2-1.5,0.6
					c-0.4,0.4-0.6,0.9-0.6,1.5v3.5H132v-4.4c0-0.6,0-1.2-0.1-1.7h0.7l0.1,1.1c0.2-0.4,0.5-0.7,0.8-0.9c0.4-0.2,0.8-0.3,1.3-0.3
					C136.3,107.5,137,108.3,137,109.8z"/>
				<path class="st9" d="M139.5,110.6L139.5,110.6c0,0.9,0.2,1.5,0.6,1.9c0.4,0.4,0.9,0.7,1.7,0.7c0.7,0,1.4-0.3,2-0.8l0.3,0.6
					c-0.3,0.3-0.6,0.5-1,0.6c-0.4,0.2-0.8,0.2-1.3,0.2c-0.9,0-1.7-0.3-2.2-0.8s-0.8-1.3-0.8-2.3c0-0.6,0.1-1.2,0.4-1.7
					c0.2-0.5,0.6-0.9,1-1.1c0.4-0.3,0.9-0.4,1.5-0.4c0.8,0,1.4,0.3,1.9,0.8c0.5,0.5,0.7,1.2,0.7,2.2v0.2H139.5z M140.2,108.6
					c-0.4,0.3-0.6,0.8-0.7,1.4h3.9c0-0.6-0.2-1.1-0.5-1.4s-0.8-0.5-1.3-0.5C141,108.1,140.5,108.2,140.2,108.6z"/>
				<path class="st9" d="M146.7,113.4c-0.4-0.3-0.8-0.6-1-1.1c-0.2-0.5-0.4-1-0.4-1.7c0-0.6,0.1-1.2,0.4-1.7c0.2-0.5,0.6-0.9,1-1.1
					c0.4-0.3,0.9-0.4,1.5-0.4c0.4,0,0.8,0.1,1.2,0.2c0.4,0.1,0.7,0.3,0.9,0.6l-0.3,0.6c-0.3-0.3-0.6-0.4-0.9-0.6
					c-0.3-0.1-0.6-0.2-0.9-0.2c-0.7,0-1.2,0.2-1.6,0.7c-0.4,0.5-0.6,1.1-0.6,1.9c0,0.8,0.2,1.4,0.6,1.8s0.9,0.7,1.6,0.7
					c0.3,0,0.6-0.1,0.9-0.2c0.3-0.1,0.6-0.3,0.9-0.6l0.3,0.6c-0.3,0.3-0.6,0.5-1,0.6c-0.4,0.1-0.8,0.2-1.2,0.2
					C147.7,113.8,147.2,113.7,146.7,113.4z"/>
				<path class="st9" d="M152.8,108.2v3.6c0,0.5,0.1,0.8,0.3,1c0.2,0.2,0.5,0.3,0.8,0.3c0.2,0,0.4,0,0.7-0.1v0.7
					c-0.3,0.1-0.5,0.1-0.8,0.1c-0.5,0-1-0.2-1.3-0.5c-0.3-0.3-0.5-0.8-0.5-1.4v-3.8h-1.2v-0.6h1.2V106l0.7-0.3v1.9h1.8v0.6H152.8z"
					/>
				<path class="st9" d="M165.2,110c0.3,0.4,0.4,0.8,0.4,1.4c0,0.8-0.2,1.3-0.7,1.7c-0.5,0.4-1.2,0.6-2.1,0.6h-3.5V105h3.4
					c0.9,0,1.6,0.2,2.1,0.6c0.5,0.4,0.7,1,0.7,1.7c0,0.5-0.1,0.9-0.4,1.2c-0.2,0.3-0.6,0.6-1,0.7C164.5,109.4,164.9,109.7,165.2,110
					z M160,109h2.5c0.7,0,1.2-0.1,1.6-0.4c0.4-0.3,0.5-0.7,0.5-1.2c0-1.1-0.7-1.6-2.1-1.6H160V109z M164.3,112.7
					c0.3-0.3,0.5-0.7,0.5-1.3c0-1.2-0.7-1.7-2.1-1.7H160v3.4h2.7C163.4,113.1,164,112.9,164.3,112.7z"/>
				<path class="st9" d="M172.4,107.6v6.1h-0.7v-1.1c-0.2,0.4-0.5,0.7-0.8,0.9c-0.4,0.2-0.8,0.3-1.2,0.3c-0.7,0-1.3-0.2-1.6-0.6
					c-0.4-0.4-0.5-1-0.5-1.8v-3.8h0.7v3.8c0,0.6,0.1,1,0.4,1.3c0.2,0.3,0.6,0.4,1.1,0.4c0.6,0,1.1-0.2,1.4-0.6
					c0.4-0.4,0.5-0.9,0.5-1.5v-3.5H172.4z"/>
				<path class="st9" d="M174.1,113l0.3-0.6c0.3,0.3,0.7,0.5,1,0.6c0.3,0.1,0.7,0.2,1.1,0.2c0.5,0,0.9-0.1,1.2-0.3
					c0.3-0.2,0.4-0.4,0.4-0.8c0-0.3-0.1-0.5-0.3-0.7s-0.5-0.3-0.9-0.4l-1-0.2c-0.5-0.1-0.9-0.3-1.2-0.6s-0.4-0.6-0.4-1
					c0-0.5,0.2-1,0.6-1.3c0.4-0.3,1-0.5,1.6-0.5c0.4,0,0.8,0.1,1.2,0.2c0.4,0.1,0.7,0.3,0.9,0.6l-0.3,0.6c-0.6-0.5-1.2-0.7-1.8-0.7
					c-0.5,0-0.8,0.1-1.1,0.3c-0.3,0.2-0.4,0.4-0.4,0.8c0,0.3,0.1,0.5,0.2,0.7c0.2,0.2,0.4,0.3,0.8,0.4l1,0.3
					c1.1,0.2,1.6,0.8,1.6,1.6c0,0.5-0.2,0.9-0.6,1.2c-0.4,0.3-1,0.5-1.7,0.5C175.5,113.8,174.7,113.5,174.1,113z"/>
				<path class="st9" d="M181.4,105.1v1h-1v-1H181.4z M180.6,107.6h0.7v6.1h-0.7V107.6z"/>
				<path class="st9" d="M188.5,109.8v3.9h-0.7v-3.8c0-0.6-0.1-1.1-0.4-1.3c-0.2-0.3-0.6-0.4-1.2-0.4c-0.6,0-1.1,0.2-1.5,0.6
					c-0.4,0.4-0.6,0.9-0.6,1.5v3.5h-0.7v-4.4c0-0.6,0-1.2-0.1-1.7h0.7l0.1,1.1c0.2-0.4,0.5-0.7,0.8-0.9c0.4-0.2,0.8-0.3,1.3-0.3
					C187.7,107.5,188.5,108.3,188.5,109.8z"/>
				<path class="st9" d="M190.9,110.6L190.9,110.6c0,0.9,0.2,1.5,0.6,1.9c0.4,0.4,0.9,0.7,1.7,0.7c0.7,0,1.4-0.3,2-0.8l0.3,0.6
					c-0.3,0.3-0.6,0.5-1,0.6c-0.4,0.2-0.8,0.2-1.3,0.2c-0.9,0-1.7-0.3-2.2-0.8s-0.8-1.3-0.8-2.3c0-0.6,0.1-1.2,0.4-1.7
					c0.2-0.5,0.6-0.9,1-1.1c0.4-0.3,0.9-0.4,1.5-0.4c0.8,0,1.4,0.3,1.9,0.8c0.5,0.5,0.7,1.2,0.7,2.2v0.2H190.9z M191.6,108.6
					c-0.4,0.3-0.6,0.8-0.7,1.4h3.9c0-0.6-0.2-1.1-0.5-1.4s-0.8-0.5-1.3-0.5C192.4,108.1,192,108.2,191.6,108.6z"/>
				<path class="st9" d="M196.8,113l0.3-0.6c0.3,0.3,0.7,0.5,1,0.6c0.3,0.1,0.7,0.2,1.1,0.2c0.5,0,0.9-0.1,1.2-0.3
					c0.3-0.2,0.4-0.4,0.4-0.8c0-0.3-0.1-0.5-0.3-0.7s-0.5-0.3-0.9-0.4l-1-0.2c-0.5-0.1-0.9-0.3-1.2-0.6s-0.4-0.6-0.4-1
					c0-0.5,0.2-1,0.6-1.3c0.4-0.3,1-0.5,1.6-0.5c0.4,0,0.8,0.1,1.2,0.2c0.4,0.1,0.7,0.3,0.9,0.6l-0.3,0.6c-0.6-0.5-1.2-0.7-1.8-0.7
					c-0.5,0-0.8,0.1-1.1,0.3c-0.3,0.2-0.4,0.4-0.4,0.8c0,0.3,0.1,0.5,0.2,0.7c0.2,0.2,0.4,0.3,0.8,0.4l1,0.3
					c1.1,0.2,1.6,0.8,1.6,1.6c0,0.5-0.2,0.9-0.6,1.2c-0.4,0.3-1,0.5-1.7,0.5C198.2,113.8,197.4,113.5,196.8,113z"/>
				<path class="st9" d="M202.9,113l0.3-0.6c0.3,0.3,0.7,0.5,1,0.6c0.3,0.1,0.7,0.2,1.1,0.2c0.5,0,0.9-0.1,1.2-0.3
					c0.3-0.2,0.4-0.4,0.4-0.8c0-0.3-0.1-0.5-0.3-0.7s-0.5-0.3-0.9-0.4l-1-0.2c-0.5-0.1-0.9-0.3-1.2-0.6s-0.4-0.6-0.4-1
					c0-0.5,0.2-1,0.6-1.3c0.4-0.3,1-0.5,1.6-0.5c0.4,0,0.8,0.1,1.2,0.2c0.4,0.1,0.7,0.3,0.9,0.6l-0.3,0.6c-0.6-0.5-1.2-0.7-1.8-0.7
					c-0.5,0-0.8,0.1-1.1,0.3c-0.3,0.2-0.4,0.4-0.4,0.8c0,0.3,0.1,0.5,0.2,0.7c0.2,0.2,0.4,0.3,0.8,0.4l1,0.3
					c1.1,0.2,1.6,0.8,1.6,1.6c0,0.5-0.2,0.9-0.6,1.2c-0.4,0.3-1,0.5-1.7,0.5C204.3,113.8,203.5,113.5,202.9,113z"/>
				<path class="st9" d="M214.2,113.3c-0.6-0.4-1-0.9-1.4-1.5s-0.5-1.5-0.5-2.4c0-0.9,0.2-1.7,0.5-2.4c0.3-0.7,0.8-1.2,1.4-1.5
					c0.6-0.4,1.3-0.5,2.1-0.5c0.6,0,1.2,0.1,1.7,0.3c0.5,0.2,0.9,0.5,1.3,0.8l-0.3,0.6c-0.4-0.4-0.8-0.6-1.2-0.8
					c-0.4-0.2-0.9-0.2-1.4-0.2c-1,0-1.8,0.3-2.3,1c-0.6,0.7-0.8,1.6-0.8,2.8c0,1.2,0.3,2.1,0.8,2.8s1.3,1,2.3,1c0.5,0,1-0.1,1.4-0.2
					c0.4-0.2,0.8-0.4,1.2-0.8l0.3,0.6c-0.4,0.4-0.8,0.7-1.3,0.8c-0.5,0.2-1.1,0.3-1.7,0.3C215.5,113.8,214.8,113.7,214.2,113.3z"/>
				<path class="st9" d="M226,107.6v6.1h-0.7v-1.2c-0.2,0.4-0.4,0.7-0.8,0.9c-0.4,0.2-0.8,0.3-1.3,0.3c-0.5,0-1-0.1-1.4-0.4
					c-0.4-0.3-0.7-0.6-1-1.1c-0.2-0.5-0.3-1-0.3-1.7s0.1-1.2,0.3-1.7c0.2-0.5,0.5-0.9,1-1.1c0.4-0.3,0.9-0.4,1.4-0.4
					c0.5,0,0.9,0.1,1.3,0.3c0.4,0.2,0.6,0.5,0.8,0.9v-1.1H226z M224.8,112.5c0.3-0.4,0.5-1.1,0.5-1.9c0-0.8-0.2-1.4-0.5-1.9
					c-0.4-0.4-0.8-0.7-1.5-0.7c-0.6,0-1.1,0.2-1.5,0.7c-0.4,0.5-0.5,1.1-0.5,1.9c0,0.8,0.2,1.4,0.5,1.8c0.4,0.4,0.9,0.7,1.5,0.7
					C223.9,113.2,224.4,112.9,224.8,112.5z"/>
				<path class="st9" d="M227.8,113l0.3-0.6c0.3,0.3,0.7,0.5,1,0.6c0.3,0.1,0.7,0.2,1.1,0.2c0.5,0,0.9-0.1,1.2-0.3
					c0.3-0.2,0.4-0.4,0.4-0.8c0-0.3-0.1-0.5-0.3-0.7s-0.5-0.3-0.9-0.4l-1-0.2c-0.5-0.1-0.9-0.3-1.2-0.6s-0.4-0.6-0.4-1
					c0-0.5,0.2-1,0.6-1.3c0.4-0.3,1-0.5,1.6-0.5c0.4,0,0.8,0.1,1.2,0.2c0.4,0.1,0.7,0.3,0.9,0.6l-0.3,0.6c-0.6-0.5-1.2-0.7-1.8-0.7
					c-0.5,0-0.8,0.1-1.1,0.3c-0.3,0.2-0.4,0.4-0.4,0.8c0,0.3,0.1,0.5,0.2,0.7c0.2,0.2,0.4,0.3,0.8,0.4l1,0.3
					c1.1,0.2,1.6,0.8,1.6,1.6c0,0.5-0.2,0.9-0.6,1.2c-0.4,0.3-1,0.5-1.7,0.5C229.1,113.8,228.3,113.5,227.8,113z"/>
				<path class="st9" d="M234.6,110.6L234.6,110.6c0,0.9,0.2,1.5,0.6,1.9c0.4,0.4,0.9,0.7,1.7,0.7c0.7,0,1.4-0.3,2-0.8l0.3,0.6
					c-0.3,0.3-0.6,0.5-1,0.6c-0.4,0.2-0.8,0.2-1.3,0.2c-0.9,0-1.7-0.3-2.2-0.8s-0.8-1.3-0.8-2.3c0-0.6,0.1-1.2,0.4-1.7
					c0.2-0.5,0.6-0.9,1-1.1c0.4-0.3,0.9-0.4,1.5-0.4c0.8,0,1.4,0.3,1.9,0.8c0.5,0.5,0.7,1.2,0.7,2.2v0.2H234.6z M235.3,108.6
					c-0.4,0.3-0.6,0.8-0.7,1.4h3.9c0-0.6-0.2-1.1-0.5-1.4s-0.8-0.5-1.3-0.5C236.1,108.1,235.7,108.2,235.3,108.6z"/>
				<g>
					<path class="st1" d="M28.3,135.2c-0.3-0.2-0.6-0.5-0.8-0.8c-0.2-0.3-0.3-0.7-0.3-1.1c0-0.4,0.1-0.7,0.3-1.1
						c0.2-0.3,0.5-0.6,0.8-0.8c0.3-0.2,0.7-0.3,1.1-0.3c0.4,0,0.8,0.1,1.1,0.3c0.3,0.2,0.6,0.5,0.8,0.8c0.2,0.3,0.3,0.7,0.3,1.1
						c0,0.4-0.1,0.8-0.3,1.1c-0.2,0.3-0.5,0.6-0.8,0.8s-0.7,0.3-1.1,0.3C29,135.5,28.6,135.4,28.3,135.2z"/>
					<path class="st1" d="M29.4,135.7c-0.4,0-0.8-0.1-1.2-0.3l0,0c-0.4-0.2-0.7-0.5-0.9-0.8c-0.2-0.4-0.3-0.7-0.3-1.2
						c0-0.4,0.1-0.8,0.3-1.1c0.2-0.4,0.5-0.6,0.9-0.9c0.7-0.4,1.6-0.4,2.4,0c0.4,0.2,0.6,0.5,0.9,0.8c0.2,0.4,0.3,0.7,0.3,1.2
						c0,0.4-0.1,0.8-0.3,1.2c-0.2,0.4-0.5,0.6-0.9,0.8C30.2,135.6,29.8,135.7,29.4,135.7z M28.4,135.1c0.6,0.4,1.5,0.4,2.1,0
						c0.3-0.2,0.6-0.4,0.8-0.7c0.2-0.3,0.3-0.7,0.3-1c0-0.4-0.1-0.7-0.3-1c-0.2-0.3-0.5-0.6-0.8-0.7c-0.7-0.4-1.5-0.4-2.1,0
						c-0.3,0.2-0.6,0.4-0.8,0.8c-0.2,0.3-0.3,0.7-0.3,1c0,0.4,0.1,0.7,0.3,1C27.8,134.7,28,135,28.4,135.1L28.4,135.1z"/>
				</g>
				<path class="st9" d="M50.2,127.9h3.3c0.9,0,1.6,0.2,2.1,0.6c0.5,0.4,0.7,1,0.7,1.7c0,0.7-0.2,1.3-0.8,1.8s-1.2,0.6-2,0.6h-2.6
					v3.9h-0.8V127.9z M53.5,132.1c0.7,0,1.2-0.2,1.5-0.5c0.4-0.3,0.5-0.7,0.5-1.3c0-0.6-0.2-1-0.5-1.3c-0.3-0.3-0.9-0.5-1.5-0.5
					h-2.5v3.5H53.5z"/>
				<path class="st9" d="M61,130.4l0,0.7c-0.2,0-0.3,0-0.6,0c-0.6,0-1.1,0.2-1.4,0.6c-0.3,0.4-0.5,0.9-0.5,1.4v3.6h-0.7v-4.4
					c0-0.6,0-1.2-0.1-1.7h0.7l0.1,1.1c0.2-0.4,0.4-0.7,0.8-1s0.7-0.3,1.2-0.3C60.7,130.4,60.9,130.4,61,130.4z"/>
				<path class="st9" d="M63.1,128v1h-1v-1H63.1z M62.2,130.5h0.7v6.1h-0.7V130.5z"/>
				<path class="st9" d="M66,136.3c-0.4-0.3-0.8-0.6-1-1.1c-0.2-0.5-0.3-1-0.3-1.7s0.1-1.2,0.3-1.7c0.2-0.5,0.6-0.9,1-1.1
					c0.4-0.3,0.9-0.4,1.5-0.4c0.6,0,1,0.1,1.5,0.4c0.4,0.3,0.8,0.6,1,1.1c0.2,0.5,0.3,1,0.3,1.7s-0.1,1.2-0.3,1.7
					c-0.2,0.5-0.6,0.9-1,1.1c-0.4,0.3-0.9,0.4-1.5,0.4C66.9,136.7,66.4,136.6,66,136.3z M69,135.4c0.4-0.4,0.5-1.1,0.5-1.9
					c0-0.8-0.2-1.4-0.5-1.9c-0.4-0.4-0.9-0.7-1.5-0.7c-0.6,0-1.1,0.2-1.5,0.7c-0.4,0.4-0.5,1.1-0.5,1.9c0,0.8,0.2,1.4,0.5,1.9
					c0.3,0.4,0.9,0.6,1.5,0.6C68.1,136,68.6,135.8,69,135.4z"/>
				<path class="st9" d="M75.1,130.4l0,0.7c-0.2,0-0.3,0-0.6,0c-0.6,0-1.1,0.2-1.4,0.6c-0.3,0.4-0.5,0.9-0.5,1.4v3.6H72v-4.4
					c0-0.6,0-1.2-0.1-1.7h0.7l0.1,1.1c0.2-0.4,0.4-0.7,0.8-1s0.7-0.3,1.2-0.3C74.8,130.4,75,130.4,75.1,130.4z"/>
				<path class="st9" d="M77.2,128v1h-1v-1H77.2z M76.3,130.5H77v6.1h-0.7V130.5z"/>
				<path class="st9" d="M80.2,131.1v3.6c0,0.5,0.1,0.8,0.3,1c0.2,0.2,0.5,0.3,0.8,0.3c0.2,0,0.4,0,0.7-0.1v0.7
					c-0.3,0.1-0.5,0.1-0.8,0.1c-0.5,0-1-0.2-1.3-0.5c-0.3-0.3-0.5-0.8-0.5-1.4v-3.8h-1.2v-0.6h1.2v-1.6l0.7-0.3v1.9H82v0.6H80.2z"/>
				<path class="st9" d="M84.2,128v1h-1v-1H84.2z M83.3,130.5H84v6.1h-0.7V130.5z"/>
				<path class="st9" d="M90.9,136v0.6h-5.1v-0.5l4.1-5h-3.9v-0.6h4.8v0.6l-4,4.9H90.9z"/>
				<path class="st9" d="M92.8,133.5L92.8,133.5c0,0.9,0.2,1.5,0.6,1.9c0.4,0.4,0.9,0.7,1.7,0.7c0.7,0,1.4-0.3,2-0.8l0.3,0.6
					c-0.3,0.3-0.6,0.5-1,0.6c-0.4,0.2-0.8,0.2-1.3,0.2c-0.9,0-1.7-0.3-2.2-0.8s-0.8-1.3-0.8-2.3c0-0.6,0.1-1.2,0.4-1.7
					c0.2-0.5,0.6-0.9,1-1.1c0.4-0.3,0.9-0.4,1.5-0.4c0.8,0,1.4,0.3,1.9,0.8c0.5,0.5,0.7,1.2,0.7,2.2v0.2H92.8z M93.5,131.5
					c-0.4,0.3-0.6,0.8-0.7,1.4h3.9c0-0.6-0.2-1.1-0.5-1.4s-0.8-0.5-1.3-0.5C94.3,131,93.8,131.1,93.5,131.5z"/>
				<path class="st9" d="M104.2,127.6v9h-0.7v-1.2c-0.2,0.4-0.4,0.7-0.8,0.9c-0.4,0.2-0.8,0.3-1.3,0.3c-0.5,0-1-0.1-1.4-0.4
					c-0.4-0.3-0.7-0.6-1-1.1c-0.2-0.5-0.3-1-0.3-1.7s0.1-1.2,0.3-1.7c0.2-0.5,0.5-0.8,1-1.1c0.4-0.3,0.9-0.4,1.4-0.4
					c0.5,0,0.9,0.1,1.3,0.3c0.4,0.2,0.6,0.5,0.8,0.9v-4H104.2z M103,135.4c0.3-0.4,0.5-1.1,0.5-1.9c0-0.8-0.2-1.4-0.5-1.9
					c-0.4-0.4-0.8-0.7-1.5-0.7c-0.7,0-1.2,0.2-1.5,0.7c-0.4,0.4-0.5,1.1-0.5,1.8c0,0.8,0.2,1.4,0.5,1.9c0.4,0.4,0.9,0.7,1.5,0.7
					C102.1,136,102.6,135.8,103,135.4z"/>
				<path class="st9" d="M110.5,131.1v3.6c0,0.5,0.1,0.8,0.3,1c0.2,0.2,0.5,0.3,0.8,0.3c0.2,0,0.4,0,0.7-0.1v0.7
					c-0.3,0.1-0.5,0.1-0.8,0.1c-0.5,0-1-0.2-1.3-0.5c-0.3-0.3-0.5-0.8-0.5-1.4v-3.8h-1.2v-0.6h1.2v-1.6l0.7-0.3v1.9h1.8v0.6H110.5z"
					/>
				<path class="st9" d="M114.6,136.3c-0.4-0.3-0.8-0.6-1-1.1c-0.2-0.5-0.3-1-0.3-1.7s0.1-1.2,0.3-1.7c0.2-0.5,0.6-0.9,1-1.1
					c0.4-0.3,0.9-0.4,1.5-0.4c0.6,0,1,0.1,1.5,0.4c0.4,0.3,0.8,0.6,1,1.1c0.2,0.5,0.3,1,0.3,1.7s-0.1,1.2-0.3,1.7
					c-0.2,0.5-0.6,0.9-1,1.1c-0.4,0.3-0.9,0.4-1.5,0.4C115.6,136.7,115.1,136.6,114.6,136.3z M117.6,135.4c0.4-0.4,0.5-1.1,0.5-1.9
					c0-0.8-0.2-1.4-0.5-1.9c-0.4-0.4-0.9-0.7-1.5-0.7c-0.6,0-1.1,0.2-1.5,0.7c-0.4,0.4-0.5,1.1-0.5,1.9c0,0.8,0.2,1.4,0.5,1.9
					c0.3,0.4,0.9,0.6,1.5,0.6C116.8,136,117.3,135.8,117.6,135.4z"/>
				<path class="st9" d="M132.9,130.5l-2.2,6.1h-0.8l-1.9-5.2l-1.9,5.2h-0.8l-2.2-6.1h0.8l1.8,5.2l1.9-5.2h0.7l1.8,5.2l1.9-5.2
					H132.9z"/>
				<path class="st9" d="M135.3,136.3c-0.4-0.3-0.8-0.6-1-1.1c-0.2-0.5-0.3-1-0.3-1.7s0.1-1.2,0.3-1.7c0.2-0.5,0.6-0.9,1-1.1
					c0.4-0.3,0.9-0.4,1.5-0.4c0.6,0,1,0.1,1.5,0.4c0.4,0.3,0.8,0.6,1,1.1c0.2,0.5,0.3,1,0.3,1.7s-0.1,1.2-0.3,1.7
					c-0.2,0.5-0.6,0.9-1,1.1c-0.4,0.3-0.9,0.4-1.5,0.4C136.2,136.7,135.7,136.6,135.3,136.3z M138.2,135.4c0.4-0.4,0.5-1.1,0.5-1.9
					c0-0.8-0.2-1.4-0.5-1.9c-0.4-0.4-0.9-0.7-1.5-0.7c-0.6,0-1.1,0.2-1.5,0.7c-0.4,0.4-0.5,1.1-0.5,1.9c0,0.8,0.2,1.4,0.5,1.9
					c0.3,0.4,0.9,0.6,1.5,0.6C137.4,136,137.9,135.8,138.2,135.4z"/>
				<path class="st9" d="M144.4,130.4l0,0.7c-0.2,0-0.3,0-0.6,0c-0.6,0-1.1,0.2-1.4,0.6c-0.3,0.4-0.5,0.9-0.5,1.4v3.6h-0.7v-4.4
					c0-0.6,0-1.2-0.1-1.7h0.7l0.1,1.1c0.2-0.4,0.4-0.7,0.8-1s0.7-0.3,1.2-0.3C144.1,130.4,144.3,130.4,144.4,130.4z"/>
				<path class="st9" d="M149.7,136.6l-3.4-3v3h-0.7v-9h0.7v5.7l3.1-2.8h1l-3.2,2.9l3.5,3.2H149.7z"/>
				<path class="st9" d="M164,130.5l-2.2,6.1H161l-1.9-5.2l-1.9,5.2h-0.8l-2.2-6.1h0.8l1.8,5.2l1.9-5.2h0.7l1.8,5.2l1.9-5.2H164z"/>
				<path class="st9" d="M166.3,128v1h-1v-1H166.3z M165.5,130.5h0.7v6.1h-0.7V130.5z"/>
				<path class="st9" d="M169.3,131.1v3.6c0,0.5,0.1,0.8,0.3,1c0.2,0.2,0.5,0.3,0.8,0.3c0.2,0,0.4,0,0.7-0.1v0.7
					c-0.3,0.1-0.5,0.1-0.8,0.1c-0.5,0-1-0.2-1.3-0.5c-0.3-0.3-0.5-0.8-0.5-1.4v-3.8h-1.2v-0.6h1.2v-1.6l0.7-0.3v1.9h1.8v0.6H169.3z"
					/>
				<path class="st9" d="M177.5,132.7v3.9h-0.7v-3.8c0-0.6-0.1-1.1-0.4-1.3c-0.2-0.3-0.6-0.4-1.2-0.4c-0.6,0-1.1,0.2-1.5,0.6
					c-0.4,0.4-0.6,0.9-0.6,1.5v3.5h-0.7v-9h0.7v3.9c0.2-0.4,0.5-0.7,0.8-0.9c0.4-0.2,0.8-0.3,1.3-0.3
					C176.8,130.4,177.5,131.1,177.5,132.7z"/>
				<path class="st9" d="M181.7,138.1c0.4,0.1,0.7,0.1,0.9,0.1c0.4,0,0.7-0.1,0.9-0.4c0.2-0.2,0.3-0.7,0.3-1.3v-8.7h0.8v8.7
					c0,0.8-0.1,1.4-0.4,1.7c-0.3,0.4-0.7,0.5-1.4,0.5c-0.3,0-0.6,0-1-0.1V138.1z"/>
				<path class="st9" d="M192.4,134.3h-4.7l-1,2.3H186l3.8-8.7h0.7l3.8,8.7h-0.8L192.4,134.3z M192.1,133.6l-2.1-4.8l-2.1,4.8H192.1
					z"/>
				<path class="st9" d="M201.6,132.9c0.3,0.4,0.4,0.8,0.4,1.4c0,0.8-0.2,1.3-0.7,1.7c-0.5,0.4-1.2,0.6-2.1,0.6h-3.5v-8.7h3.4
					c0.9,0,1.6,0.2,2.1,0.6c0.5,0.4,0.7,1,0.7,1.7c0,0.5-0.1,0.9-0.4,1.2c-0.2,0.3-0.6,0.6-1,0.7C201,132.3,201.4,132.5,201.6,132.9
					z M196.5,131.9h2.5c0.7,0,1.2-0.1,1.6-0.4c0.4-0.3,0.5-0.7,0.5-1.2c0-1.1-0.7-1.6-2.1-1.6h-2.5V131.9z M200.8,135.6
					c0.3-0.3,0.5-0.7,0.5-1.3c0-1.2-0.7-1.7-2.1-1.7h-2.7v3.4h2.7C199.9,136,200.4,135.8,200.8,135.6z"/>
			</g>
		</g>
		<rect x="29.1" y="105.2" class="st1" width="0.8" height="26.3"/>
		<g>
			<g>
				<circle class="st1" cx="29.5" cy="108.2" r="9.2"/>
			</g>
			<g>
				<path class="st4" d="M31.4,105.7c-0.3,0-0.5-0.2-0.5-0.5v-3h-4.7c-0.7,0-1.2,0.5-1.2,1.2v9.6c0,0.7,0.5,1.2,1.2,1.2h7
					c0.7,0,1.2-0.5,1.2-1.2v-7.3H31.4z"/>
			</g>
			<path class="st5" d="M31.4,105.7h3.1l-3.5-3.5v3.1C31,105.4,31.2,105.6,31.4,105.7z"/>
			<polygon class="st2" points="34.5,108.2 34.5,105.7 31.4,105.7 			"/>
		</g>
	</g>
</g>
</svg>
