<?xml version="1.0" encoding="utf-8"?>
<!-- Generator: Adobe Illustrator 24.2.3, SVG Export Plug-In . SVG Version: 6.00 Build 0)  -->
<svg version="1.1" xmlns="http://www.w3.org/2000/svg" xmlns:xlink="http://www.w3.org/1999/xlink" x="0px" y="0px"
	 viewBox="0 0 648 986.6" style="enable-background:new 0 0 648 986.6;" xml:space="preserve">
<style type="text/css">
	.st0{fill:#F2F2F2;}
	.st1{fill:#0A90B7;}
	.st2{fill:#1294C2;}
	.st3{fill:#FFFFFF;}
	.st4{fill:none;stroke:#0D3751;stroke-width:0.1394;stroke-linecap:round;stroke-linejoin:round;stroke-miterlimit:10;}
	.st5{fill:none;}
	.st6{fill:#444444;}
	.st7{font-family:'Muli-LightItalic';}
	.st8{font-size:14px;}
	.st9{fill:none;stroke:#0A90B7;stroke-miterlimit:10;}
	.st10{fill:#B8322E;}
	.st11{fill:#A00A0F;}
	.st12{opacity:0.52;fill:#A00A0F;}
	.st13{opacity:0.45;fill:#B8322E;}
	.st14{font-family:'Montserrat-Medium';}
	.st15{font-size:18px;}
	.st16{font-family:'Muli-Light';}
	.st17{font-size:16px;}
	.st18{letter-spacing:25;}
	.st19{font-family:'Montserrat-SemiBold';}
	.st20{fill:#0A90B7;stroke:#0A90B7;stroke-width:0.25;stroke-miterlimit:10;}
	.st21{font-family:'Muli-Black';}
	.st22{letter-spacing:17;}
	.st23{letter-spacing:21;}
	.st24{font-family:'Montserrat-LightItalic';}
	.st25{fill:none;stroke:#757575;stroke-width:0.25;stroke-miterlimit:10;}
	.st26{fill:none;stroke:#0A90B7;stroke-width:0.75;stroke-miterlimit:10;}
	.st27{fill:#A6D7E5;}
	.st28{fill:#757575;}
	.st29{fill:none;stroke:#FFFFFF;stroke-width:2;stroke-linecap:round;}
	.st30{fill:#D8D8D8;}
	.st31{fill:#C71F25;}
	.st32{opacity:0.1;enable-background:new    ;}
</style>
<g id="Shapes">
	<rect y="375.1" class="st0" width="648" height="416.6"/>
	<path id="Path_7616_8_" class="st1" d="M624.6,449.5H73.9v-46.5h550.7l10.2,23.3L624.6,449.5z"/>
	<path id="Path_7616_7_" class="st1" d="M624.6,46.5H73.9V0h550.7l10.2,23.3L624.6,46.5z"/>
	<rect y="402.9" class="st3" width="73.9" height="46.5"/>
	<rect y="814.8" class="st0" width="73.9" height="46.5"/>
	<rect class="st0" width="73.9" height="46.5"/>
	<g>
		<polygon class="st1" points="78.3,818.2 78.3,858.1 578,858.1 578,856.4 578,852.6 590,859.9 578,867.1 578,861.5 75,861.5 
			75,814.8 108.1,814.8 626.8,814.8 637,838.2 626.8,861.5 597.8,861.5 597.8,858.1 624.2,858.1 624.8,857.1 632.3,838.9 
			632.7,838.2 632.3,837.5 624.8,819.2 624.2,818.2 		"/>
	</g>
	<g>
		<rect x="416.1" y="611.1" class="st5" width="204.9" height="140.1"/>
		<text transform="matrix(1 0 0 1 416.0522 621.4038)"><tspan x="0" y="0" class="st6 st7 st8">Note: During the authorization </tspan><tspan x="0" y="18" class="st6 st7 st8">process a CSP must be </tspan><tspan x="0" y="36" class="st6 st7 st8">prioritized by the JAB before </tspan><tspan x="0" y="54" class="st6 st7 st8">entering the JAB P-ATO </tspan><tspan x="0" y="72" class="st6 st7 st8">process. The CSP can obtain </tspan><tspan x="0" y="90" class="st6 st7 st8">FedRAMP Ready status either </tspan><tspan x="0" y="108" class="st6 st7 st8">before or after the JAB’s </tspan><tspan x="0" y="126" class="st6 st7 st8">prioritization.</tspan></text>
	</g>
</g>
<g id="background">
</g>
<g id="text">
	<g>
		<rect x="22.1" y="892.9" class="st5" width="250.3" height="20"/>
		<text transform="matrix(1 0 0 1 22.1266 908.2051)" class="st1 st14 st15">Post Authorization</text>
	</g>
	<g>
		<rect x="32.4" y="930.8" class="st5" width="501.6" height="48.1"/>
		<text transform="matrix(1 0 0 1 32.3837 944.4614)"><tspan x="0" y="0" class="st6 st16 st17 st18">	</tspan><tspan x="30" y="0" class="st6 st16 st17">Monthly Continuous Monitoring Deliverables</tspan><tspan x="0" y="30" class="st6 st16 st17 st18">	</tspan><tspan x="30" y="30" class="st6 st16 st17">Annual Assessment</tspan></text>
	</g>
	<text transform="matrix(1 0 0 1 99.7065 29.728)" class="st3 st19 st15">Preparation</text>
	<text transform="matrix(1 0 0 1 100.0659 432.6777)" class="st3 st19 st15">Authorization</text>
	<text transform="matrix(1 0 0 1 99.7242 844.5732)" class="st1 st19 st15">Continuous Monitoring</text>
	<g>
		<rect x="31.5" y="518" class="st5" width="316.7" height="236.1"/>
		<text transform="matrix(1 0 0 1 31.4783 529.7512)"><tspan x="0" y="0" class="st20 st21 st17">•</tspan><tspan x="8.5" y="0" class="st6 st16 st17 st22">	</tspan><tspan x="30" y="0" class="st6 st16 st17">Kick-Off (~1 week)</tspan><tspan x="0" y="30" class="st20 st21 st17"> </tspan><tspan x="4.7" y="30" class="st6 st16 st17 st23">	</tspan><tspan x="30" y="30" class="st6 st16 st17">FedRAMP Marketplace Designation - </tspan><tspan x="30" y="50" class="st6 st16 st17">In Process</tspan><tspan x="0" y="80" class="st20 st21 st17">•</tspan><tspan x="8.5" y="80" class="st6 st16 st17 st22">	</tspan><tspan x="30" y="80" class="st6 st16 st17">Review (~3-4 weeks)</tspan><tspan x="0" y="110" class="st20 st21 st17">•</tspan><tspan x="8.5" y="110" class="st6 st16 st17 st22">	</tspan><tspan x="30" y="110" class="st6 st16 st17">Remediation (~3 weeks)</tspan><tspan x="0" y="140" class="st20 st21 st17">•</tspan><tspan x="8.5" y="140" class="st6 st16 st17 st22">	</tspan><tspan x="30" y="140" class="st6 st16 st17">Final Review (~4 weeks)</tspan><tspan x="0" y="170" class="st20 st21 st17">•</tspan><tspan x="8.5" y="170" class="st6 st16 st17 st22">	</tspan><tspan x="30" y="170" class="st6 st16 st17">JAB P-ATO Issued</tspan><tspan x="0" y="200" class="st20 st21 st17 st18">	</tspan><tspan x="30" y="200" class="st6 st16 st17">FedRAMP Marketplace Designation - </tspan><tspan x="30" y="220" class="st6 st16 st17">Authorized</tspan></text>
	</g>
	<g>
		<rect x="22.6" y="480.3" class="st5" width="339.9" height="20"/>
		<text transform="matrix(1 0 0 1 22.5813 495.6296)" class="st1 st14 st15">JAB Authorization Process</text>
	</g>
	<g>
		<rect x="494.9" y="138.1" class="st5" width="144.9" height="96.1"/>
		<text transform="matrix(1 0 0 1 494.9243 149.8842)"><tspan x="0" y="0" class="st6 st16 st17 st18">	</tspan><tspan x="30" y="0" class="st6 st16 st17">Security </tspan><tspan x="30" y="20" class="st6 st16 st17">Authorization </tspan><tspan x="30" y="40" class="st6 st16 st17">Package  </tspan><tspan x="30" y="60" class="st6 st16 st17">(SSP, SAP, </tspan><tspan x="30" y="80" class="st6 st16 st17">SAR, POA&amp;M)</tspan></text>
	</g>
	<g>
		<rect x="486.2" y="78.1" class="st5" width="133" height="40.5"/>
		<text transform="matrix(1 0 0 1 486.187 93.3967)"><tspan x="0" y="0" class="st1 st14 st15">Full Security </tspan><tspan x="0" y="21.6" class="st1 st14 st15">Assessment</tspan></text>
	</g>
	<g>
		<rect x="234.7" y="154.6" class="st5" width="181.4" height="188.1"/>
		<text transform="matrix(1 0 0 1 234.6697 168.3107)"><tspan x="0" y="0" class="st20 st21 st17">•</tspan><tspan x="8.5" y="0" class="st6 st16 st17 st22">	</tspan><tspan x="30" y="0" class="st6 st16 st17">RAR Development</tspan><tspan x="0" y="30" class="st20 st21 st17">•</tspan><tspan x="8.5" y="30" class="st6 st16 st17 st22">	</tspan><tspan x="30" y="30" class="st6 st16 st17">FedRAMP PMO </tspan><tspan x="30" y="50" class="st6 st16 st17">Review of RAR</tspan><tspan x="0" y="80" class="st20 st21 st17">•</tspan><tspan x="8.5" y="80" class="st6 st16 st17 st22">	</tspan><tspan x="30" y="80" class="st6 st16 st17">Remediation  </tspan><tspan x="30" y="100" class="st6 st16 st17">(if needed)</tspan><tspan x="0" y="130" class="st6 st16 st17 st18">	</tspan><tspan x="30" y="130" class="st6 st16 st17">FedRAMP </tspan><tspan x="30" y="150" class="st6 st16 st17">Marketplace  </tspan><tspan x="30" y="170" class="st6 st16 st17">Designation - Ready</tspan></text>
	</g>
	<g>
		<rect x="243.2" y="78.1" class="st5" width="177.1" height="57.4"/>
		<text transform="matrix(1 0 0 1 243.1692 93.3962)"><tspan x="0" y="0" class="st1 st14 st15">Readiness </tspan><tspan x="0" y="21.6" class="st1 st14 st15">Assessment</tspan><tspan x="111.8" y="21.6" class="st6 st24 st8"> </tspan><tspan x="0" y="38.4" class="st6 st24 st8">(required)</tspan></text>
	</g>
	<g>
		<rect x="22.4" y="78.1" class="st5" width="148.9" height="41.6"/>
		<text transform="matrix(1 0 0 1 22.3811 93.3962)"><tspan x="0" y="0" class="st1 st14 st15">FedRAMP </tspan><tspan x="0" y="21.6" class="st1 st14 st15">Connect</tspan></text>
	</g>
	<g>
		<rect x="32.4" y="138.1" class="st5" width="138.9" height="108.1"/>
		<text transform="matrix(1 0 0 1 32.3611 151.8047)"><tspan x="0" y="0" class="st6 st16 st17 st18">	</tspan><tspan x="30" y="0" class="st6 st16 st17">FedRAMP </tspan><tspan x="30" y="20" class="st6 st16 st17">Connect </tspan><tspan x="30" y="40" class="st6 st16 st17">Business Case</tspan><tspan x="0" y="70" class="st20 st21 st17">•</tspan><tspan x="8.5" y="70" class="st6 st16 st17 st22">	</tspan><tspan x="30" y="70" class="st6 st16 st17">Prioritized to </tspan><tspan x="30" y="90" class="st6 st16 st17">work with JAB</tspan></text>
	</g>
</g>
<g id="Graphics">
	<line class="st26" x1="34.7" y1="931.9" x2="34.7" y2="977.8"/>
	<g>
		<path id="Path_1554_3_" class="st28" d="M205.2,82.3c6.7,0,12.1,5.4,12.1,12.1s-5.4,12.1-12.1,12.1c-6.7,0-12.1-5.4-12.1-12.1
			S198.5,82.3,205.2,82.3z"/>
		<g id="Group_1434_3_" transform="translate(4.574 4.222)">
			<g id="arrow_3_" transform="translate(4.574 0)">
				<path id="arrow-2_3_" class="st3" d="M203.3,90.1c0,0.3-0.1,0.7-0.4,0.9l-5.1,5.3c-0.5,0.5-1.2,0.5-1.7,0.1c0,0-0.1-0.1-0.1-0.1
					c-0.5-0.5-0.5-1.3,0-1.8c0,0,0,0,0,0l4.2-4.4l-4.2-4.4c-0.5-0.5-0.5-1.3,0-1.8c0,0,0,0,0,0c0.5-0.5,1.2-0.5,1.7-0.1
					c0,0,0.1,0,0.1,0.1l5.1,5.3C203.2,89.4,203.4,89.7,203.3,90.1z"/>
			</g>
			<path id="Path_1968_3_" class="st29" d="M205.1,90.2h-10.8"/>
		</g>
	</g>
	<g>
		<path id="Path_1554_6_" class="st28" d="M448.2,82.3c6.7,0,12.1,5.4,12.1,12.1s-5.4,12.1-12.1,12.1c-6.7,0-12.1-5.4-12.1-12.1
			S441.6,82.3,448.2,82.3z"/>
		<g id="Group_1434_6_" transform="translate(4.574 4.222)">
			<g id="arrow_6_" transform="translate(4.574 0)">
				<path id="arrow-2_6_" class="st3" d="M446.4,90.1c0,0.3-0.1,0.7-0.4,0.9l-5.1,5.3c-0.5,0.5-1.2,0.5-1.7,0.1c0,0-0.1-0.1-0.1-0.1
					c-0.5-0.5-0.5-1.3,0-1.8c0,0,0,0,0,0l4.2-4.4l-4.2-4.4c-0.5-0.5-0.5-1.3,0-1.8c0,0,0,0,0,0c0.5-0.5,1.2-0.5,1.7-0.1
					c0,0,0.1,0,0.1,0.1l5.1,5.3C446.2,89.4,446.4,89.7,446.4,90.1z"/>
			</g>
			<path id="Path_1968_6_" class="st29" d="M448.2,90.2h-10.8"/>
		</g>
	</g>
	<g>
		<g>
			<circle class="st1" cx="34.2" cy="938.2" r="12.1"/>
		</g>
		<g>
			<path class="st3" d="M36.8,935c-0.3,0-0.6-0.3-0.6-0.6v-4H30c-0.9,0-1.6,0.7-1.6,1.6v12.6c0,0.9,0.7,1.6,1.6,1.6h9.2
				c0.9,0,1.6-0.7,1.6-1.6V935H36.8z"/>
		</g>
		<path class="st27" d="M36.7,935h4l-4.6-4.6v4C36.2,934.7,36.4,934.9,36.7,935z"/>
		<polygon class="st0" points="40.8,938.2 40.8,935 36.8,935 		"/>
	</g>
	<g>
		<g>
			<circle class="st1" cx="34.2" cy="970.1" r="12.1"/>
		</g>
		<g>
			<path class="st3" d="M36.8,966.8c-0.3,0-0.6-0.3-0.6-0.6v-4H30c-0.9,0-1.6,0.7-1.6,1.6v12.6c0,0.9,0.7,1.6,1.6,1.6h9.2
				c0.9,0,1.6-0.7,1.6-1.6v-9.6H36.8z"/>
		</g>
		<path class="st27" d="M36.7,966.8h4l-4.6-4.6v4C36.2,966.5,36.4,966.8,36.7,966.8z"/>
		<polygon class="st0" points="40.8,970.1 40.8,966.8 36.8,966.8 		"/>
	</g>
	<g>
		<path class="st0" d="M48.1,437.9c-1,0-2.2-0.3-3.6-0.9l-0.3-0.1l-0.2-0.1c-0.6-0.3-1.1-0.4-1.5-0.6c-0.3-0.1-0.6-0.2-0.9-0.2
			c-0.2,0-0.4,0.1-0.6,0.2c-0.1,0.1-0.3,0.3-0.4,0.5c-0.2,0.4-0.5,0.6-0.8,0.6h-2.5c-0.4,0-0.8-0.4-0.9-0.9c0-0.2,0-0.4-0.1-0.6
			c0-0.2,0-0.4,0-0.7c0-1.4,0.3-2.8,0.8-3.9c0.5-1.2,1.3-2.3,2.4-3.3c0.4-0.3,0.8-0.7,1.3-1.1c-0.1,0-0.3,0-0.4,0
			c-1.2,0-2.2-0.4-2.9-1.3c-0.8-0.9-1.2-2-1.2-3.5c0-2.2,0.9-4.1,2.6-5.6c1.6-1.4,3.7-2.1,6.1-2.1c2.6,0,4.7,0.7,6.3,2
			c1.7,1.4,2.6,3.4,2.6,5.8c0,1.8-0.6,3.4-1.7,4.7c-0.3,0.4-0.7,0.7-1.1,1h2.3c0.5,0,0.9,0.5,0.9,1c0,0.2,0,0.3,0,0.5
			c0,0.2,0,0.4,0,0.8c0,2.5-0.5,4.4-1.6,5.7C51.8,437.3,50.2,437.9,48.1,437.9L48.1,437.9z M46.2,430.2c0.4,0.1,0.7,0.1,1.2,0.2
			c1.3,0.3,1.7,0.3,1.8,0.3c0.2,0,0.5,0,0.6-0.2c0.1-0.1,0.2-0.4,0.2-1.5c0-0.1,0-0.2,0-0.3c-0.7,0.4-1.4,0.7-2.2,0.9
			c-0.2,0.1-0.6,0.2-1.1,0.3C46.5,430.1,46.4,430.2,46.2,430.2L46.2,430.2z M42.5,419.9c0.3,0.1,0.5,0.3,0.8,0.6
			c0.6,0.6,0.9,1.5,0.9,2.5c0,0.8-0.2,1.5-0.6,2.1c0.4-0.2,0.6-0.4,0.8-0.5c1-0.7,1.5-1.2,1.7-1.5c0.2-0.4,0.3-0.8,0.3-1.3
			c0-0.6-0.2-1-0.6-1.4c-0.5-0.4-1.2-0.7-2.1-0.7C43.2,419.7,42.8,419.8,42.5,419.9L42.5,419.9z M27.4,437.9c-2.6,0-4.8-1.1-6.5-3.2
			c-1.7-2.1-2.5-5-2.5-8.5c0-3.5,0.8-6.4,2.5-8.5c1.7-2.2,3.8-3.2,6.5-3.2c2.6,0,4.8,1.1,6.5,3.2c1.7,2.2,2.5,5,2.5,8.5
			c0,3.5-0.8,6.4-2.5,8.5C32.2,436.9,30,437.9,27.4,437.9L27.4,437.9z M27.4,419.6c-0.7,0-1.2,0.4-1.5,1.2c-0.3,0.7-0.6,2.2-0.6,5.4
			c0,3.2,0.3,4.7,0.6,5.4c0.3,0.8,0.8,1.2,1.5,1.2c0.7,0,1.2-0.4,1.5-1.2c0.3-0.7,0.6-2.2,0.6-5.4c0-3.2-0.3-4.7-0.6-5.4
			C28.6,420,28.1,419.6,27.4,419.6L27.4,419.6z"/>
		<path class="st1" d="M37.3,436.2c0-0.1,0-0.3,0-0.4c0-0.1,0-0.4,0-0.7c0-1.2,0.2-2.4,0.7-3.4c0.5-1,1.2-2,2.2-3
			c0.7-0.7,1.8-1.4,3.3-2.4c0.7-0.4,1.2-0.7,1.5-0.9c0.9-0.6,1.6-1.2,1.9-1.8c0.3-0.6,0.5-1.2,0.5-2c0-0.9-0.3-1.7-1-2.3
			c-0.7-0.6-1.5-0.9-2.6-0.9c-0.9,0-1.6,0.2-2.2,0.6c-0.6,0.4-1,0.9-1.3,1.7c0.2,0,0.3-0.1,0.5-0.1c0.2,0,0.3,0,0.4,0
			c0.6,0,1.1,0.2,1.5,0.6c0.4,0.4,0.6,1,0.6,1.6c0,0.8-0.3,1.4-0.8,1.9c-0.5,0.5-1.2,0.8-2,0.8c-1,0-1.7-0.3-2.3-1
			c-0.6-0.7-0.9-1.5-0.9-2.7c0-1.8,0.7-3.4,2.2-4.6c1.5-1.2,3.4-1.9,5.6-1.9c2.4,0,4.4,0.6,5.8,1.8c1.4,1.2,2.2,2.8,2.2,4.8
			c0,1.5-0.5,2.8-1.4,3.9c-0.9,1.1-2.3,1.9-4.1,2.5c-0.3,0.1-0.6,0.2-1.1,0.3c-3,1-4.9,2.1-5.7,3.3c0.6-0.4,1.2-0.6,1.8-0.8
			c0.6-0.2,1.3-0.3,1.9-0.3c0.7,0,1.6,0.1,2.6,0.4c1,0.2,1.7,0.4,2,0.4c0.6,0,1.1-0.2,1.3-0.6c0.3-0.4,0.4-1.1,0.4-2.2h2.6
			c0,0.2,0,0.3,0,0.5c0,0.2,0,0.4,0,0.7c0,2.2-0.4,3.8-1.3,4.9c-0.9,1.1-2.2,1.6-4.1,1.6c-0.9,0-2-0.3-3.3-0.9
			c-0.2-0.1-0.4-0.2-0.5-0.2c-0.7-0.3-1.2-0.5-1.6-0.6c-0.4-0.1-0.8-0.2-1.1-0.2c-0.4,0-0.8,0.1-1.1,0.3c-0.3,0.2-0.5,0.5-0.7,1
			H37.3z M19.3,426.2c0-3.2,0.8-5.8,2.2-7.7c1.5-1.9,3.5-2.9,5.9-2.9c2.4,0,4.4,1,5.9,2.9c1.5,1.9,2.2,4.5,2.2,7.7
			c0,3.2-0.8,5.8-2.2,7.7c-1.5,1.9-3.5,2.9-5.9,2.9c-2.4,0-4.4-1-5.9-2.9C20,432,19.3,429.4,19.3,426.2z M24.5,426.2
			c0,2.7,0.2,4.7,0.7,5.9c0.5,1.2,1.2,1.8,2.2,1.8c1,0,1.8-0.6,2.2-1.8c0.5-1.2,0.7-3.2,0.7-5.9c0-2.7-0.2-4.7-0.7-5.9
			c-0.5-1.2-1.2-1.8-2.2-1.8c-1,0-1.8,0.6-2.2,1.8C24.7,421.5,24.5,423.5,24.5,426.2z"/>
		<path class="st27" d="M25.5,433.2l-0.3,0.4c-0.2-0.3-0.4-0.7-0.6-1.1c-0.5-1.3-0.8-3.4-0.8-6.3c0-2.9,0.3-4.9,0.8-6.3
			c0.6-1.5,1.5-2.3,2.8-2.3c0.9,0,1.6,0.4,2.1,1.1l-0.3,0.4c-0.5-0.6-1.1-0.9-1.8-0.9c-1.1,0-1.9,0.7-2.4,2c-0.5,1.3-0.7,3.2-0.7,6
			c0,2.8,0.2,4.8,0.7,6C25.1,432.6,25.3,432.9,25.5,433.2z M33.2,418.8l-0.3,0.4c1.3,1.8,2,4.1,2,7c0,2.9-0.7,5.3-2.1,7.1
			c-1.4,1.8-3.2,2.7-5.5,2.7c-2.2,0-4.1-0.9-5.4-2.7v0l-0.3,0.4c0,0,0,0,0,0c1.4,1.9,3.4,2.8,5.7,2.8c2.4,0,4.3-1,5.7-2.8
			c1.4-1.9,2.2-4.4,2.2-7.5C35.3,423.2,34.6,420.7,33.2,418.8z M53.3,429.6c0-0.1,0-0.1,0-0.2l-0.4,0.6c0,0.1,0,0.2,0,0.4
			c0,2-0.4,3.4-1.1,4.3c-0.8,0.9-2,1.3-3.6,1.3c-0.8,0-1.9-0.3-3.1-0.8l-0.5-0.2c-0.7-0.3-1.3-0.5-1.7-0.6c-0.5-0.1-0.9-0.2-1.2-0.2
			c-0.5,0-1,0.1-1.4,0.4c-0.3,0.2-0.5,0.5-0.8,0.9h-1.5l-0.4,0.6h2.2c0.2-0.4,0.4-0.7,0.7-0.9c0.3-0.2,0.7-0.4,1.2-0.4
			c0.3,0,0.7,0.1,1.1,0.2c0.4,0.1,1,0.3,1.7,0.6l0.5,0.2c1.3,0.6,2.4,0.9,3.2,0.9c1.8,0,3.1-0.5,3.9-1.5c0.8-1,1.3-2.6,1.3-4.7
			C53.3,430,53.3,429.8,53.3,429.6z M38.3,424.5c0.5,0.6,1.3,0.9,2.2,0.9c0.7,0,1.3-0.3,1.8-0.7c0.5-0.5,0.7-1,0.7-1.7
			c0-0.6-0.2-1-0.5-1.4l-0.3,0.4c0,0,0,0,0,0c0.2,0.3,0.4,0.6,0.4,1c0,0.5-0.2,0.9-0.5,1.3c-0.4,0.4-0.9,0.6-1.6,0.6
			c-0.8,0-1.4-0.3-1.9-0.8L38.3,424.5C38.3,424.5,38.3,424.5,38.3,424.5z M51.6,419.2C51.6,419.2,51.6,419.2,51.6,419.2
			c0.6,0.9,0.9,1.9,0.9,3c0,1.3-0.4,2.4-1.2,3.3c-0.8,1-2.1,1.7-3.8,2.3c-0.3,0.1-0.6,0.2-1.1,0.3c-3.2,1-5.1,2.2-6.1,3.6
			c-0.2,0.3-0.2,0.7,0,1.1l0.4-0.3c-0.1-0.1-0.1-0.2,0-0.3c0.9-1.3,2.8-2.4,5.8-3.4c0.5-0.1,0.8-0.2,1.1-0.3c1.8-0.6,3.1-1.4,4-2.4
			c0.9-1,1.3-2.3,1.3-3.7c0-1.3-0.3-2.5-1-3.4L51.6,419.2z M46.7,418.8c-0.8-0.7-1.8-1-3-1c-1,0-1.9,0.2-2.5,0.7
			c-0.7,0.5-1.3,1.2-1.6,2.1c-0.1,0.3-0.1,0.6,0.1,0.9l0.4-0.3c0-0.1-0.1-0.2,0-0.3c0.3-0.8,0.8-1.4,1.4-1.8
			c0.6-0.4,1.4-0.6,2.3-0.6c1.1,0,2,0.3,2.7,0.9L46.7,418.8C46.7,418.8,46.7,418.8,46.7,418.8z"/>
	</g>
	<g>
		<path class="st3" d="M29,35c-2.6,0-4.8-1.1-6.5-3.2c-1.7-2.1-2.5-5-2.5-8.5c0-3.5,0.8-6.4,2.5-8.5c1.7-2.2,3.8-3.2,6.5-3.2
			c2.6,0,4.8,1.1,6.5,3.2c1.7,2.2,2.5,5,2.5,8.5c0,3.5-0.8,6.4-2.5,8.5C33.8,33.9,31.6,35,29,35L29,35z M29,16.7
			c-0.7,0-1.2,0.4-1.5,1.2c-0.3,0.7-0.6,2.2-0.6,5.4c0,3.2,0.3,4.7,0.6,5.4c0.3,0.8,0.8,1.2,1.5,1.2c0.7,0,1.2-0.4,1.5-1.2
			c0.3-0.7,0.6-2.2,0.6-5.4c0-3.2-0.3-4.7-0.6-5.4C30.2,17,29.7,16.7,29,16.7L29,16.7z M51.4,35c0.5,0,0.9-0.5,0.9-1.2v-2.9
			c0-0.7-0.4-1.2-0.9-1.2h-1.2c-1.2,0-1.3-0.6-1.3-1.3V12.7c0-0.7-0.4-1.2-0.9-1.2h-3.9c-0.4,0-0.7,0.3-0.8,0.7
			c-0.2,0.7-0.6,1.2-1.2,1.6c-0.7,0.4-1.7,0.6-2.9,0.7c-0.5,0-0.9,0.5-0.9,1.2v2.8c0,0.3,0.1,0.6,0.3,0.8c0.2,0.2,0.4,0.4,0.6,0.4
			h2.7v8.6v0.7c0,0.4,0,0.8-1.3,0.8h-1.4c-0.5,0-0.9,0.5-0.9,1.2v2.9c0,0.7,0.4,1.2,0.9,1.2H51.4L51.4,35z"/>
		<path class="st1" d="M39.2,33.8v-2.9h1.4c0.9,0,1.5-0.1,1.8-0.3c0.3-0.2,0.4-0.8,0.4-1.7v-0.7v-9.8h-3.6v-2.9
			c1.4,0,2.5-0.3,3.3-0.8c0.8-0.5,1.4-1.2,1.7-2.2H48v15.8c0,1.1,0.1,1.8,0.4,2.1c0.2,0.3,0.9,0.4,1.8,0.4h1.2v2.9H39.2z M20.9,23.3
			c0-3.2,0.8-5.8,2.2-7.7c1.5-1.9,3.5-2.9,5.9-2.9c2.4,0,4.4,1,5.9,2.9c1.5,1.9,2.2,4.5,2.2,7.7c0,3.2-0.8,5.8-2.2,7.7
			c-1.5,1.9-3.5,2.9-5.9,2.9c-2.4,0-4.4-1-5.9-2.9C21.6,29,20.9,26.5,20.9,23.3z M26.1,23.3c0,2.7,0.2,4.7,0.7,5.9
			C27.2,30.4,28,31,29,31c1,0,1.8-0.6,2.2-1.8c0.5-1.2,0.7-3.2,0.7-5.9c0-2.7-0.2-4.7-0.7-5.9c-0.5-1.2-1.2-1.8-2.2-1.8
			c-1,0-1.8,0.6-2.2,1.8C26.3,18.6,26.1,20.5,26.1,23.3z"/>
		<path class="st27" d="M48.3,30.8L48,31.2c-0.4-0.5-0.6-1.3-0.6-2.7V13.6l0.5-0.6v15.5C47.8,29.7,48,30.4,48.3,30.8z M42.7,17.6
			h-2.9l-0.5,0.6h3.3c0.1,0,0.1,0,0.2,0.1l0.3-0.4C43.1,17.7,42.9,17.6,42.7,17.6z M50.8,31.8v1.1H39.9l-0.5,0.6h11.8v-2.3
			L50.8,31.8z M26.6,29.3c-0.5-1.3-0.7-3.2-0.7-6c0-2.8,0.2-4.8,0.7-6c0.5-1.3,1.3-2,2.4-2c0.8,0,1.4,0.3,1.8,0.9l0.3-0.4
			c-0.6-0.7-1.3-1.1-2.1-1.1c-1.3,0-2.2,0.8-2.8,2.3c-0.5,1.3-0.8,3.4-0.8,6.3c0,2.9,0.2,4.9,0.8,6.3c0.2,0.4,0.4,0.8,0.6,1.1
			l0.3-0.4C26.9,30,26.7,29.7,26.6,29.3z M34.8,15.8l-0.3,0.4c1.3,1.8,2,4.1,2,7c0,2.9-0.7,5.3-2.1,7.1C33.1,32.1,31.2,33,29,33
			c-2.2,0-4.1-0.9-5.4-2.7v0l-0.3,0.4c0,0,0,0,0,0c1.4,1.9,3.4,2.8,5.7,2.8c2.4,0,4.3-1,5.7-2.8c1.4-1.9,2.2-4.4,2.2-7.5
			C36.9,20.2,36.2,17.7,34.8,15.8z"/>
	</g>
	<g>
		<path class="st3" d="M27.4,850.5c-2.9,0-5.2-1.1-7-3.4c-1.8-2.3-2.7-5.3-2.7-9c0-3.7,0.9-6.7,2.7-9c1.8-2.3,4.2-3.4,7-3.4
			c2.9,0,5.3,1.1,7,3.4c1.8,2.3,2.7,5.3,2.7,9c0,3.7-0.9,6.7-2.7,9C32.6,849.4,30.3,850.5,27.4,850.5L27.4,850.5z M27.4,831.1
			c-0.8,0-1.3,0.4-1.6,1.3c-0.3,0.8-0.7,2.4-0.7,5.7c0,3.3,0.4,4.9,0.7,5.7c0.3,0.9,0.8,1.3,1.6,1.3c0.8,0,1.3-0.4,1.6-1.3
			c0.3-0.8,0.7-2.4,0.7-5.7c0-3.3-0.3-5-0.6-5.7C28.7,831.5,28.2,831.1,27.4,831.1L27.4,831.1z M46,850.5c-2.7,0-4.9-0.6-6.5-1.7
			c-1.8-1.3-2.7-3.1-2.7-5.3c0-1.5,0.4-2.7,1.2-3.6c0.8-0.9,1.9-1.4,3.1-1.4c1.1,0,2,0.4,2.7,1.1c0.8,0.8,1.2,1.8,1.2,3
			c0,1-0.3,1.8-0.8,2.5c0.2,0,0.5,0,0.8,0c1.2,0,2-0.3,2.6-0.8c0.5-0.5,0.7-1.1,0.7-2c0-0.9-0.3-1.3-0.6-1.5
			c-0.4-0.3-1.2-0.6-2.8-0.6c-0.5,0-1-0.5-1-1.2v-2.7c-0.7,0.5-1.5,0.8-2.5,0.8c-1.2,0-2.1-0.4-2.9-1.2c-0.7-0.8-1.1-1.9-1.1-3.3
			c0-2.2,0.9-4,2.6-5.2c1.6-1.2,3.7-1.8,6.3-1.8c2.9,0,5.1,0.5,6.7,1.6c1.8,1.2,2.7,3,2.7,5.3c0,1.5-0.5,2.9-1.4,3.9
			c-0.2,0.3-0.5,0.5-0.7,0.7c0.5,0.3,1,0.7,1.4,1.2c1,1.1,1.6,2.5,1.6,4.2c0,2.6-1,4.7-3,6.1C51.9,849.9,49.4,850.5,46,850.5
			L46,850.5z M44.6,830.9c0.5,0.6,0.7,1.4,0.7,2.2c0,0.6-0.1,1.2-0.3,1.7c1.4-0.1,2.1-0.4,2.4-0.7c0.4-0.3,0.5-0.7,0.5-1.2
			c0-0.6-0.2-1-0.6-1.4c-0.5-0.4-1.3-0.7-2.3-0.7C44.9,830.9,44.8,830.9,44.6,830.9L44.6,830.9z"/>
		<path class="st1" d="M18.6,838.1c0-3.4,0.8-6.1,2.4-8.2c1.6-2.1,3.8-3.1,6.4-3.1c2.6,0,4.8,1,6.4,3.1c1.6,2.1,2.4,4.8,2.4,8.2
			c0,3.4-0.8,6.1-2.4,8.1c-1.6,2.1-3.8,3.1-6.4,3.1c-2.6,0-4.8-1-6.4-3.1C19.4,844.2,18.6,841.5,18.6,838.1z M24.2,838.1
			c0,2.9,0.3,5,0.8,6.2c0.5,1.3,1.3,1.9,2.4,1.9c1.1,0,1.9-0.6,2.4-1.9c0.5-1.3,0.8-3.4,0.8-6.2c0-2.9-0.3-5-0.7-6.3
			c-0.5-1.3-1.3-1.9-2.4-1.9c-1.1,0-1.9,0.6-2.4,1.9C24.5,833.1,24.2,835.2,24.2,838.1z M45,839v-2.9c1.3-0.1,2.3-0.4,3-0.9
			c0.7-0.5,1-1.3,1-2.2c0-1-0.4-1.8-1.1-2.4c-0.7-0.6-1.7-0.9-2.9-0.9c-0.7,0-1.3,0.1-1.8,0.3c-0.5,0.2-1,0.5-1.4,0.9h0.3
			c0.7,0,1.2,0.2,1.7,0.6c0.4,0.4,0.6,1,0.6,1.7c0,0.8-0.3,1.5-0.8,2c-0.5,0.5-1.2,0.7-2.1,0.7c-0.9,0-1.7-0.3-2.2-0.9
			c-0.5-0.6-0.8-1.4-0.8-2.4c0-1.8,0.7-3.2,2.1-4.2c1.4-1.1,3.4-1.6,5.8-1.6c2.7,0,4.8,0.5,6.3,1.5c1.5,1,2.2,2.4,2.2,4.2
			c0,1.2-0.4,2.2-1.1,3c-0.7,0.8-1.8,1.3-3.1,1.6c1.7,0.5,2.9,1.1,3.8,2c0.8,0.9,1.2,2,1.2,3.4c0,2.2-0.8,3.9-2.5,5
			c-1.6,1.2-4.1,1.7-7.2,1.7c-2.5,0-4.5-0.5-6-1.6c-1.5-1-2.2-2.5-2.2-4.2c0-1.1,0.3-2,0.9-2.7c0.6-0.7,1.4-1,2.4-1
			c0.8,0,1.5,0.3,2.1,0.8c0.6,0.6,0.8,1.2,0.8,2.1c0,0.8-0.2,1.4-0.7,1.9c-0.5,0.5-1.1,0.7-1.9,0.7c0.5,0.4,1,0.7,1.6,0.9
			c0.6,0.2,1.3,0.3,2,0.3c1.4,0,2.5-0.3,3.2-1c0.7-0.7,1.1-1.7,1.1-2.9c0-1.2-0.4-2-1.1-2.5C47.6,839.3,46.5,839,45,839z"/>
		<path class="st27" d="M43.4,832.3l0.3-0.4c0.3,0.3,0.4,0.7,0.4,1.3c0,0.7-0.2,1.3-0.7,1.8c-0.5,0.5-1.1,0.7-1.9,0.7
			c-0.9,0-1.6-0.3-2.1-0.8l0.4-0.4c0.4,0.4,1,0.6,1.7,0.6c0.7,0,1.2-0.2,1.6-0.6c0.3-0.3,0.5-0.7,0.5-1.3
			C43.6,832.8,43.5,832.5,43.4,832.3z M54.2,832.6c0,1-0.3,1.7-0.9,2.4c-0.6,0.7-1.5,1.2-2.7,1.4c-0.3,0.1-0.6,0.4-0.6,0.8
			c0,0.3,0.1,0.5,0.2,0.7l0.3-0.4c-0.1-0.1-0.1-0.1-0.1-0.2c0-0.1,0.1-0.3,0.2-0.3c1.3-0.2,2.3-0.7,2.9-1.5c0.7-0.8,1-1.7,1-2.8
			c0-1.2-0.4-2.2-1.1-3.1l-0.3,0.4C53.9,830.6,54.2,831.5,54.2,832.6z M48.7,839.1c-0.7-0.5-1.7-0.8-3-0.9l0,0l-0.5,0.6l0,0
			c1.4,0,2.5,0.3,3.3,0.8c0.2,0.1,0.3,0.3,0.5,0.4l0.3-0.4C49.1,839.4,48.9,839.2,48.7,839.1z M43.4,842.6c0,0.5-0.1,0.9-0.4,1.2
			c-0.3,0.3-0.8,0.5-1.5,0.5c-0.3,0-0.6,0.3-0.7,0.6c-0.1,0.3,0,0.6,0.2,0.9l0.3-0.4c0-0.1-0.1-0.2,0-0.3c0-0.1,0.1-0.2,0.2-0.2
			c0.8,0,1.4-0.2,1.8-0.6c0.4-0.4,0.6-0.9,0.6-1.6c0-0.7-0.2-1.2-0.6-1.7l-0.4,0.4C43.3,841.7,43.4,842.1,43.4,842.6z M54.5,839.7
			l-0.3,0.4c0.5,0.7,0.8,1.5,0.8,2.5c0,1.9-0.7,3.3-2.1,4.3c-1.5,1.1-3.8,1.6-6.9,1.6c-2.4,0-4.3-0.5-5.6-1.4
			c-0.4-0.3-0.7-0.6-1-0.9l-0.3,0.4c0.3,0.4,0.6,0.7,1.1,1c1.4,1,3.4,1.5,5.8,1.5c3.1,0,5.5-0.6,7.1-1.7c1.6-1.1,2.4-2.7,2.4-4.8
			C55.5,841.4,55.2,840.5,54.5,839.7z M48.3,829.9c-0.8-0.7-1.9-1-3.3-1c-0.7,0-1.4,0.1-2,0.3c-0.6,0.2-1.2,0.6-1.7,1.1
			c-0.2,0.2-0.3,0.6-0.2,1c0,0.1,0.1,0.2,0.2,0.3l0.3-0.4c0,0,0-0.1-0.1-0.1c0-0.1,0-0.2,0.1-0.3c0.5-0.4,1-0.8,1.5-1
			c0.5-0.2,1.2-0.3,1.9-0.3c1.3,0,2.3,0.3,3,0.9c0.2,0.1,0.3,0.3,0.4,0.4l0.3-0.4C48.7,830.2,48.5,830,48.3,829.9z M25.3,845.5
			l-0.3,0.4c-0.3-0.3-0.5-0.7-0.7-1.2c-0.6-1.4-0.8-3.6-0.8-6.7c0-3.1,0.3-5.2,0.8-6.7c0.6-1.6,1.7-2.4,3.1-2.4
			c0.9,0,1.7,0.4,2.3,1.2l-0.3,0.4c-0.5-0.6-1.2-1-2-1c-1.2,0-2.1,0.7-2.6,2.1c-0.5,1.3-0.8,3.4-0.8,6.4c0,3,0.3,5,0.8,6.4
			C24.9,844.9,25.1,845.2,25.3,845.5z M33.7,830.3l-0.3,0.4c1.4,1.9,2.1,4.3,2.1,7.4c0,3.1-0.8,5.6-2.2,7.5
			c-1.5,1.9-3.5,2.8-5.9,2.8c-2.4,0-4.4-0.9-5.9-2.8v0l-0.3,0.4c0,0,0,0,0,0c1.6,2,3.7,3,6.2,3c2.6,0,4.7-1,6.3-3
			c1.6-2,2.4-4.6,2.4-7.9C36,834.9,35.3,832.2,33.7,830.3z"/>
	</g>
	<g>
		<g>
			<circle class="st1" cx="498.8" cy="146.6" r="12.1"/>
		</g>
		<g>
			<path class="st3" d="M501.4,143.3c-0.3,0-0.6-0.3-0.6-0.6v-4h-6.2c-0.9,0-1.6,0.7-1.6,1.6v12.6c0,0.9,0.7,1.6,1.6,1.6h9.2
				c0.9,0,1.6-0.7,1.6-1.6v-9.6H501.4z"/>
		</g>
		<path class="st27" d="M501.3,143.3h4l-4.6-4.6v4C500.8,143,501,143.3,501.3,143.3z"/>
		<polygon class="st0" points="505.3,146.6 505.3,143.3 501.3,143.3 		"/>
	</g>
	<line class="st26" x1="238.9" y1="164.4" x2="238.9" y2="276.4"/>
	<g>
		<g id="g56755_3_" transform="matrix(14,0,0,14,49637.042,519374.88)">
			<path id="path56757_3_" class="st31" d="M-3527.6-37077.1c0,0.5-0.4,0.9-0.9,0.9l0,0c-0.5,0-0.9-0.4-0.9-0.9l0,0
				c0-0.5,0.4-0.9,0.9-0.9l0,0C-3528-37078-3527.6-37077.6-3527.6-37077.1L-3527.6-37077.1z"/>
		</g>
		<path id="path53460_3_" class="st32" d="M244.6,289.6c-3.4,1.6-5.1,5-6.7,8l-2.3-2.3c-1.2,0.9-2.4,1.5-3.5,2.2l9.5,9.5
			c5.3-1.2,9.1-5.7,9.4-11.1L244.6,289.6z"/>
		<path id="path38606_3_" class="st3" d="M235.6,295.4c0.7,0.9,1.2,2,1.8,3.3c1.7-3.3,3.5-7.2,7.2-9c-0.4,1.5-0.6,3.4-0.1,5
			c-3.1,1.6-5.1,4.5-7.1,7.4c-1.9-2.6-3.5-3.5-5.4-4.4C233.3,296.9,234.5,296.2,235.6,295.4L235.6,295.4z"/>
	</g>
	<line class="st26" x1="35.4" y1="578.6" x2="35.4" y2="713.3"/>
	<line class="st26" x1="35.4" y1="527.1" x2="35.4" y2="538.2"/>
	<g>
		<path class="st30" d="M46.8,740.3c0.5-0.9-0.4-2.3-0.1-3.3c0.3-0.9,1.7-1.8,1.7-2.8c0-1-1.5-1.8-1.7-2.8c-0.3-1,0.6-2.4,0.1-3.3
			c-0.5-0.9-2.2-0.8-2.9-1.5c-0.7-0.7-0.7-2.4-1.5-2.9c-0.9-0.5-2.3,0.4-3.3,0.1c-0.9-0.3-1.8-1.7-2.8-1.7c-1,0-1.8,1.5-2.8,1.7
			c-1,0.3-2.4-0.6-3.3-0.1c-0.9,0.5-0.8,2.2-1.5,2.9c-0.7,0.7-2.4,0.7-2.9,1.5c-0.5,0.9,0.4,2.3,0.1,3.3c-0.3,0.9-1.7,1.8-1.7,2.8
			c0,1,1.5,1.8,1.7,2.8c0.3,1-0.6,2.4-0.1,3.3c0.5,0.9,2.2,0.8,2.9,1.5c0.5,0.5,0.6,1.3,0.9,2l-3.9,8.1l5.2-1.3l2.7,4.6l2.7-7.2
			l2.7,7.2l2.7-4.6l5.2,1.3l-3.9-8.1c0.3-0.7,0.4-1.6,0.9-2C44.6,741.2,46.3,741.2,46.8,740.3z"/>
		<g>
			<g>
				<polygon class="st11" points="31.8,753.7 29.1,749.1 23.9,750.3 30.9,735.7 37.5,738.5 				"/>
				<polygon class="st11" points="37.2,753.7 39.9,749.1 45.1,750.3 38.1,735.7 31.5,738.5 				"/>
			</g>
			<path class="st31" d="M46.6,732.6c0,1-1.5,1.8-1.7,2.8c-0.3,1,0.6,2.4,0.1,3.3c-0.5,0.9-2.2,0.8-2.9,1.5
				c-0.7,0.7-0.7,2.4-1.5,2.9c-0.9,0.5-2.3-0.4-3.3-0.1c-0.9,0.3-1.8,1.7-2.8,1.7c-1,0-1.8-1.5-2.8-1.7c-1-0.3-2.4,0.6-3.3,0.1
				c-0.9-0.5-0.8-2.2-1.5-2.9c-0.7-0.7-2.4-0.7-2.9-1.5c-0.5-0.9,0.4-2.3,0.1-3.3c-0.3-0.9-1.7-1.8-1.7-2.8c0-1,1.5-1.8,1.7-2.8
				c0.3-1-0.6-2.4-0.1-3.3c0.5-0.9,2.2-0.8,2.9-1.5c0.7-0.7,0.7-2.4,1.5-2.9c0.9-0.5,2.3,0.4,3.3,0.1c0.9-0.3,1.8-1.7,2.8-1.7
				c1,0,1.8,1.5,2.8,1.7c1,0.3,2.4-0.6,3.3-0.1c0.9,0.5,0.8,2.2,1.5,2.9c0.7,0.7,2.4,0.7,2.9,1.5c0.5,0.9-0.4,2.3-0.1,3.3
				C45.1,730.8,46.6,731.6,46.6,732.6z"/>
			<g>
				<path class="st0" d="M41.4,732.6c0,3.8-3.1,6.9-6.9,6.9c-3.8,0-6.9-3.1-6.9-6.9s3.1-6.9,6.9-6.9
					C38.3,725.7,41.4,728.8,41.4,732.6"/>
				<path class="st3" d="M40.2,732.6c0,3.1-2.5,5.7-5.7,5.7s-5.7-2.5-5.7-5.7s2.5-5.7,5.7-5.7S40.2,729.5,40.2,732.6"/>
			</g>
		</g>
	</g>
	<g>
		<path class="st30" d="M49.1,561.8c0-1.5,0-1.6,0-3.1l-2.8-1c-0.4-0.9-0.6-1.4-0.9-2.3l1.3-2.7c-1.1-1.1-1.1-1.1-2.2-2.2l-2.7,1.2
			c-0.9-0.4-1.4-0.6-2.2-1l-1-2.8c-1.5,0-1.6,0-3.1,0l-1,2.8c-0.9,0.4-1.4,0.6-2.3,0.9l-2.7-1.3c-1.1,1.1-1.1,1.1-2.2,2.2l1.2,2.7
			c-0.4,0.9-0.6,1.4-1,2.2l-2.8,1c0,1.5,0,1.6,0,3.1l2.8,1c0.4,0.9,0.6,1.4,0.9,2.3l-1.3,2.7c1.1,1.1,1.1,1.1,2.2,2.2l2.7-1.2
			c0.9,0.4,1.4,0.6,2.2,1l1,2.8c1.5,0,1.6,0,3.1,0l1-2.8c0.9-0.4,1.4-0.6,2.3-0.9l2.7,1.3c1.1-1.1,1.1-1.1,2.2-2.2l-1.2-2.7
			c0.4-0.9,0.6-1.4,1-2.2L49.1,561.8z M37,564.9c-2.6,0-4.7-2.1-4.7-4.7c0-2.6,2.1-4.7,4.7-4.7c2.6,0,4.7,2.1,4.7,4.7
			C41.7,562.8,39.6,564.9,37,564.9z"/>
		<path class="st31" d="M47.6,560.8c0-1.5,0-1.6,0-3.1l-2.8-1c-0.4-0.9-0.6-1.4-0.9-2.3l1.3-2.7c-1.1-1.1-1.1-1.1-2.2-2.2l-2.7,1.2
			c-0.9-0.4-1.4-0.6-2.2-1l-1-2.8c-1.5,0-1.6,0-3.1,0l-1,2.8c-0.9,0.4-1.4,0.6-2.3,0.9l-2.7-1.3c-1.1,1.1-1.1,1.1-2.2,2.2l1.2,2.7
			c-0.4,0.9-0.6,1.4-1,2.2l-2.8,1c0,1.5,0,1.6,0,3.1l2.8,1c0.4,0.9,0.6,1.4,0.9,2.3l-1.3,2.7c1.1,1.1,1.1,1.1,2.2,2.2l2.7-1.2
			c0.9,0.4,1.4,0.6,2.2,1l1,2.8c1.5,0,1.6,0,3.1,0l1-2.8c0.9-0.4,1.4-0.6,2.3-0.9l2.7,1.3c1.1-1.1,1.1-1.1,2.2-2.2l-1.2-2.7
			c0.4-0.9,0.6-1.4,1-2.2L47.6,560.8z M35.6,563.9c-2.6,0-4.7-2.1-4.7-4.7c0-2.6,2.1-4.7,4.7-4.7c2.6,0,4.7,2.1,4.7,4.7
			C40.3,561.8,38.2,563.9,35.6,563.9z"/>
	</g>
	<line class="st26" x1="36.7" y1="158.9" x2="36.7" y2="216.8"/>
	<g>
		<g>
			<circle class="st1" cx="36.7" cy="149.5" r="12.1"/>
		</g>
		<g>
			<path class="st3" d="M39.2,146.2c-0.3,0-0.6-0.3-0.6-0.6v-4h-6.2c-0.9,0-1.6,0.7-1.6,1.6v12.6c0,0.9,0.7,1.6,1.6,1.6h9.2
				c0.9,0,1.6-0.7,1.6-1.6v-9.6H39.2z"/>
		</g>
		<path class="st27" d="M39.2,146.2h4l-4.6-4.6v4C38.6,145.9,38.9,146.2,39.2,146.2z"/>
		<polygon class="st0" points="43.2,149.5 43.2,146.2 39.2,146.2 		"/>
	</g>
</g>
</svg>
