<svg xmlns="http://www.w3.org/2000/svg" width="125.6" height="104.5" viewBox="0 0 125.6 104.5">
  <g id="Group_9268" data-name="Group 9268" transform="translate(-528.9 -264.4)">
    <path id="Path_23962" data-name="Path 23962" d="M473.9,202.8l-17.5-18.4-17.6,18.4H394v85.1H518.8V202.8Z" transform="translate(135.3 80.6)" fill="#fff"/>
    <path id="Path_23963" data-name="Path 23963" d="M519.2,288.3H393.6V202.4h45l17.8-18.6,17.7,18.6h45.1Z" transform="translate(135.3 80.6)" fill="#c71f25"/>
    <path id="Path_24026" data-name="Path 24026" d="M424.3,242.4h-1.6l-1.6-4.3a2.421,2.421,0,0,0-.8-1.1,2.649,2.649,0,0,0-1.4-.3h-3.2v5.6h-1.5V229.5h5.1a5.075,5.075,0,0,1,3.2.9,3.315,3.315,0,0,1,1.1,2.6,3.317,3.317,0,0,1-2.6,3.3,1.905,1.905,0,0,1,1,.5,2.979,2.979,0,0,1,.7,1.1Zm-5.1-6.8q3,0,3-2.4a2.14,2.14,0,0,0-.7-1.8,3.4,3.4,0,0,0-2.2-.6h-3.5v4.8Z" transform="translate(135.3 80.6)" fill="#fff"/>
    <path id="Path_24027" data-name="Path 24027" d="M434.1,237.9h-6.6a3.844,3.844,0,0,0,.8,2.6,2.869,2.869,0,0,0,2.3.9,4.555,4.555,0,0,0,2.9-1.1l.5,1.1a3.765,3.765,0,0,1-1.5.9,6.279,6.279,0,0,1-1.9.3,4.156,4.156,0,0,1-3.3-1.3,4.7,4.7,0,0,1-1.2-3.4,6.963,6.963,0,0,1,.5-2.5,4.978,4.978,0,0,1,1.5-1.7,4.032,4.032,0,0,1,2.2-.6,3.489,3.489,0,0,1,2.8,1.2,4.722,4.722,0,0,1,1,3.2v.4Zm-5.7-2.9a3.1,3.1,0,0,0-.9,1.9h5.3a3.041,3.041,0,0,0-.7-1.9,2.793,2.793,0,0,0-3.7,0Z" transform="translate(135.3 80.6)" fill="#fff"/>
    <path id="Path_24028" data-name="Path 24028" d="M444.3,233.4v9.1h-1.4v-1.6a3.039,3.039,0,0,1-1.2,1.3,3.83,3.83,0,0,1-1.9.5,3.7,3.7,0,0,1-2.1-.6,3.638,3.638,0,0,1-1.4-1.6,6.175,6.175,0,0,1-.5-2.5,6.551,6.551,0,0,1,.5-2.5,3.907,3.907,0,0,1,1.4-1.7,3.7,3.7,0,0,1,2.1-.6,4.136,4.136,0,0,1,1.9.5,3.744,3.744,0,0,1,1.2,1.3v-1.6Zm-2.2,7a5.179,5.179,0,0,0,0-5.2,2.9,2.9,0,0,0-4.2,0,5.179,5.179,0,0,0,0,5.2,2.9,2.9,0,0,0,4.2,0Z" transform="translate(135.3 80.6)" fill="#fff"/>
    <path id="Path_24029" data-name="Path 24029" d="M455.1,229.2v13.2h-1.4v-1.6a3.039,3.039,0,0,1-1.2,1.3,3.83,3.83,0,0,1-1.9.5,3.7,3.7,0,0,1-2.1-.6,3.907,3.907,0,0,1-1.4-1.7,6.175,6.175,0,0,1-.5-2.5,6.55,6.55,0,0,1,.5-2.5,3.638,3.638,0,0,1,1.4-1.6,3.7,3.7,0,0,1,2.1-.6,4.136,4.136,0,0,1,1.9.5,3.039,3.039,0,0,1,1.2,1.3v-5.7Zm-2.2,11.2a5.178,5.178,0,0,0,0-5.2,2.9,2.9,0,0,0-4.2,0,3.727,3.727,0,0,0-.7,2.5,4.023,4.023,0,0,0,.7,2.6,2.583,2.583,0,0,0,2.1.9A2.259,2.259,0,0,0,452.9,240.4Z" transform="translate(135.3 80.6)" fill="#fff"/>
    <path id="Path_24030" data-name="Path 24030" d="M459.5,229.5v1.7h-1.8v-1.7Zm-1.6,3.9h1.5v9.1h-1.5Z" transform="translate(135.3 80.6)" fill="#fff"/>
    <path id="Path_24031" data-name="Path 24031" d="M469.9,236.7v5.7h-1.5v-5.6a2.763,2.763,0,0,0-.5-1.8,2.359,2.359,0,0,0-1.6-.6,2.792,2.792,0,0,0-2,.8,2.865,2.865,0,0,0-.8,2.1v5.2H462V236a19.289,19.289,0,0,0-.1-2.5h1.4l.1,1.6a4.072,4.072,0,0,1,1.2-1.4,4.136,4.136,0,0,1,1.9-.5C468.9,233.2,469.9,234.3,469.9,236.7Z" transform="translate(135.3 80.6)" fill="#fff"/>
    <path id="Path_24032" data-name="Path 24032" d="M480.3,237.9h-6.6a3.844,3.844,0,0,0,.8,2.6,2.869,2.869,0,0,0,2.3.9,4.556,4.556,0,0,0,2.9-1.1l.5,1.1a3.766,3.766,0,0,1-1.5.9,6.279,6.279,0,0,1-1.9.3,4.156,4.156,0,0,1-3.3-1.3,4.7,4.7,0,0,1-1.2-3.4,6.963,6.963,0,0,1,.5-2.5,4.978,4.978,0,0,1,1.5-1.7,4.032,4.032,0,0,1,2.2-.6,3.489,3.489,0,0,1,2.8,1.2,4.722,4.722,0,0,1,1,3.2v.4Zm-5.7-2.9a3.1,3.1,0,0,0-.9,1.9H479a3.041,3.041,0,0,0-.7-1.9,2.793,2.793,0,0,0-3.7,0Z" transform="translate(135.3 80.6)" fill="#fff"/>
    <path id="Path_24033" data-name="Path 24033" d="M481.9,241.4l.5-1.1a3.675,3.675,0,0,0,1.5.8,4.671,4.671,0,0,0,1.7.3,2.537,2.537,0,0,0,1.6-.4,1.016,1.016,0,0,0,.5-1,1.086,1.086,0,0,0-.4-.9,2.254,2.254,0,0,0-1.2-.5l-1.5-.4a4.352,4.352,0,0,1-1.8-.9,1.717,1.717,0,0,1-.6-1.5,2.166,2.166,0,0,1,1-1.9,3.9,3.9,0,0,1,2.5-.7,5.663,5.663,0,0,1,1.8.3,3.39,3.39,0,0,1,1.4.9l-.5,1.1a4.473,4.473,0,0,0-2.7-1.1,2.41,2.41,0,0,0-1.5.4,1.107,1.107,0,0,0-.5,1,1.222,1.222,0,0,0,.3.9,2.257,2.257,0,0,0,1.1.5l1.5.4a4.213,4.213,0,0,1,1.9.9,2.111,2.111,0,0,1,.6,1.6,2.166,2.166,0,0,1-1,1.9,4.023,4.023,0,0,1-2.6.7A5.8,5.8,0,0,1,481.9,241.4Z" transform="translate(135.3 80.6)" fill="#fff"/>
    <path id="Path_24034" data-name="Path 24034" d="M490.9,241.4l.5-1.1a3.675,3.675,0,0,0,1.5.8,4.671,4.671,0,0,0,1.7.3,2.537,2.537,0,0,0,1.6-.4,1.016,1.016,0,0,0,.5-1,1.086,1.086,0,0,0-.4-.9,2.254,2.254,0,0,0-1.2-.5l-1.5-.4a4.352,4.352,0,0,1-1.8-.9,1.717,1.717,0,0,1-.6-1.5,2.166,2.166,0,0,1,1-1.9,3.9,3.9,0,0,1,2.5-.7,5.663,5.663,0,0,1,1.8.3,3.39,3.39,0,0,1,1.4.9l-.5,1.1a4.473,4.473,0,0,0-2.7-1.1,2.41,2.41,0,0,0-1.5.4,1.107,1.107,0,0,0-.5,1,1.222,1.222,0,0,0,.3.9,2.257,2.257,0,0,0,1.1.5l1.5.4a4.213,4.213,0,0,1,1.9.9,2.111,2.111,0,0,1,.6,1.6,2.166,2.166,0,0,1-1,1.9,4.023,4.023,0,0,1-2.6.7A5.583,5.583,0,0,1,490.9,241.4Z" transform="translate(135.3 80.6)" fill="#fff"/>
    <path id="Path_24035" data-name="Path 24035" d="M415.1,260.7h-6.7L407,264h-1.5l5.6-12.8h1.3L418,264h-1.5Zm-.5-1.2-2.8-6.6-2.8,6.6Z" transform="translate(135.3 80.6)" fill="#fff"/>
    <path id="Path_24036" data-name="Path 24036" d="M419.1,263l.5-1.1a3.675,3.675,0,0,0,1.5.8,4.672,4.672,0,0,0,1.7.3,3.506,3.506,0,0,0,1.6-.3,1.016,1.016,0,0,0,.5-1,1.086,1.086,0,0,0-.4-.9,2.255,2.255,0,0,0-1.2-.5l-1.5-.4a4.352,4.352,0,0,1-1.8-.9,1.717,1.717,0,0,1-.6-1.5,2.166,2.166,0,0,1,1-1.9,3.9,3.9,0,0,1,2.5-.7,5.663,5.663,0,0,1,1.8.3,3.39,3.39,0,0,1,1.4.9l-.5,1.1a4.473,4.473,0,0,0-2.7-1.1,2.41,2.41,0,0,0-1.5.4,1.107,1.107,0,0,0-.5,1,1.222,1.222,0,0,0,.3.9,2.257,2.257,0,0,0,1.1.5l1.5.4a4.213,4.213,0,0,1,1.9.9,2.111,2.111,0,0,1,.6,1.6,2.166,2.166,0,0,1-1,1.9,4.023,4.023,0,0,1-2.6.7A6.522,6.522,0,0,1,419.1,263Z" transform="translate(135.3 80.6)" fill="#fff"/>
    <path id="Path_24037" data-name="Path 24037" d="M428,263l.5-1.1a3.675,3.675,0,0,0,1.5.8,4.672,4.672,0,0,0,1.7.3,3.506,3.506,0,0,0,1.6-.3,1.016,1.016,0,0,0,.5-1,1.086,1.086,0,0,0-.4-.9,2.255,2.255,0,0,0-1.2-.5l-1.5-.4a4.352,4.352,0,0,1-1.8-.9,1.717,1.717,0,0,1-.6-1.5,2.166,2.166,0,0,1,1-1.9,3.9,3.9,0,0,1,2.5-.7,5.663,5.663,0,0,1,1.8.3,3.39,3.39,0,0,1,1.4.9l-.5,1.1a4.473,4.473,0,0,0-2.7-1.1,2.41,2.41,0,0,0-1.5.4,1.107,1.107,0,0,0-.5,1,1.222,1.222,0,0,0,.3.9,2.257,2.257,0,0,0,1.1.5l1.5.4a4.212,4.212,0,0,1,1.9.9,2.111,2.111,0,0,1,.6,1.6,2.166,2.166,0,0,1-1,1.9,4.023,4.023,0,0,1-2.6.7A6.522,6.522,0,0,1,428,263Z" transform="translate(135.3 80.6)" fill="#fff"/>
    <path id="Path_24038" data-name="Path 24038" d="M445.1,259.5h-6.6a3.844,3.844,0,0,0,.8,2.6,2.869,2.869,0,0,0,2.3.9,4.555,4.555,0,0,0,2.9-1.1l.5,1.1a3.765,3.765,0,0,1-1.5.9,6.279,6.279,0,0,1-1.9.3,4.46,4.46,0,0,1-3.3-1.2,4.7,4.7,0,0,1-1.2-3.4,6.962,6.962,0,0,1,.5-2.5,4.978,4.978,0,0,1,1.5-1.7,4.032,4.032,0,0,1,2.2-.6,3.489,3.489,0,0,1,2.8,1.2,4.722,4.722,0,0,1,1,3.2v.3Zm-5.7-2.9a3.1,3.1,0,0,0-.9,1.9h5.3a3.041,3.041,0,0,0-.7-1.9,2.793,2.793,0,0,0-3.7,0Z" transform="translate(135.3 80.6)" fill="#fff"/>
    <path id="Path_24039" data-name="Path 24039" d="M446.7,263l.5-1.1a3.675,3.675,0,0,0,1.5.8,4.671,4.671,0,0,0,1.7.3,3.506,3.506,0,0,0,1.6-.3,1.016,1.016,0,0,0,.5-1,1.086,1.086,0,0,0-.4-.9,2.255,2.255,0,0,0-1.2-.5l-1.5-.4a4.352,4.352,0,0,1-1.8-.9,1.717,1.717,0,0,1-.6-1.5,2.166,2.166,0,0,1,1-1.9,3.9,3.9,0,0,1,2.5-.7,5.662,5.662,0,0,1,1.8.3,3.39,3.39,0,0,1,1.4.9l-.5,1.1a4.473,4.473,0,0,0-2.7-1.1,2.41,2.41,0,0,0-1.5.4,1.107,1.107,0,0,0-.5,1,1.222,1.222,0,0,0,.3.9,2.257,2.257,0,0,0,1.1.5l1.5.4a4.212,4.212,0,0,1,1.9.9,2.111,2.111,0,0,1,.6,1.6,2.166,2.166,0,0,1-1,1.9,4.023,4.023,0,0,1-2.6.7A6.522,6.522,0,0,1,446.7,263Z" transform="translate(135.3 80.6)" fill="#fff"/>
    <path id="Path_24040" data-name="Path 24040" d="M455.6,263l.5-1.1a3.675,3.675,0,0,0,1.5.8,4.672,4.672,0,0,0,1.7.3,3.506,3.506,0,0,0,1.6-.3,1.016,1.016,0,0,0,.5-1,1.086,1.086,0,0,0-.4-.9,2.255,2.255,0,0,0-1.2-.5l-1.5-.4a4.352,4.352,0,0,1-1.8-.9,1.717,1.717,0,0,1-.6-1.5,2.166,2.166,0,0,1,1-1.9,3.9,3.9,0,0,1,2.5-.7,5.663,5.663,0,0,1,1.8.3,3.39,3.39,0,0,1,1.4.9l-.5,1.1a4.473,4.473,0,0,0-2.7-1.1,2.41,2.41,0,0,0-1.5.4,1.107,1.107,0,0,0-.5,1,1.222,1.222,0,0,0,.3.9,2.257,2.257,0,0,0,1.1.5l1.5.4a4.213,4.213,0,0,1,1.9.9,2.111,2.111,0,0,1,.6,1.6,2.166,2.166,0,0,1-1,1.9,4.023,4.023,0,0,1-2.6.7A6.522,6.522,0,0,1,455.6,263Z" transform="translate(135.3 80.6)" fill="#fff"/>
    <path id="Path_24041" data-name="Path 24041" d="M478.2,258.3V264h-1.5v-5.6a3.161,3.161,0,0,0-.4-1.9,1.678,1.678,0,0,0-1.4-.6,2.2,2.2,0,0,0-1.8.8,3.281,3.281,0,0,0-.6,2.1V264H471v-5.6a2.82,2.82,0,0,0-.4-1.8,1.678,1.678,0,0,0-1.4-.6,2.2,2.2,0,0,0-1.8.8,3.3,3.3,0,0,0-.7,2.1v5.2h-1.5v-6.5a19.289,19.289,0,0,0-.1-2.5h1.4l.1,1.6a2.85,2.85,0,0,1,1.1-1.3,3.371,3.371,0,0,1,1.7-.5,3.425,3.425,0,0,1,1.8.4,2.209,2.209,0,0,1,1,1.3,3.744,3.744,0,0,1,1.2-1.3,3.453,3.453,0,0,1,1.8-.5C477.2,254.8,478.2,255.9,478.2,258.3Z" transform="translate(135.3 80.6)" fill="#fff"/>
    <path id="Path_24042" data-name="Path 24042" d="M488.5,259.5h-6.6a3.844,3.844,0,0,0,.8,2.6,2.869,2.869,0,0,0,2.3.9,4.555,4.555,0,0,0,2.9-1.1l.5,1.1a3.765,3.765,0,0,1-1.5.9,6.279,6.279,0,0,1-1.9.3,4.459,4.459,0,0,1-3.3-1.2,4.7,4.7,0,0,1-1.2-3.4,6.963,6.963,0,0,1,.5-2.5,4.978,4.978,0,0,1,1.5-1.7,4.032,4.032,0,0,1,2.2-.6,3.489,3.489,0,0,1,2.8,1.2,4.722,4.722,0,0,1,1,3.2v.3Zm-5.7-2.9a3.1,3.1,0,0,0-.9,1.9h5.3a3.041,3.041,0,0,0-.7-1.9,2.793,2.793,0,0,0-3.7,0Z" transform="translate(135.3 80.6)" fill="#fff"/>
    <path id="Path_24043" data-name="Path 24043" d="M498.5,258.3V264H497v-5.6a2.763,2.763,0,0,0-.5-1.8,1.969,1.969,0,0,0-1.6-.6,2.792,2.792,0,0,0-2,.8,2.865,2.865,0,0,0-.8,2.1v5.2h-1.5v-6.5a19.289,19.289,0,0,0-.1-2.5h1.4l.1,1.6a4.071,4.071,0,0,1,1.2-1.4,4.136,4.136,0,0,1,1.9-.5C497.4,254.8,498.5,255.9,498.5,258.3Z" transform="translate(135.3 80.6)" fill="#fff"/>
    <path id="Path_24044" data-name="Path 24044" d="M503.2,256.1V261a1.809,1.809,0,0,0,.4,1.4,1.594,1.594,0,0,0,1.2.4,3.553,3.553,0,0,0,1-.2v1.2a5.066,5.066,0,0,1-1.3.2,2.578,2.578,0,0,1-2-.7,2.918,2.918,0,0,1-.7-2.2V256H500v-1h1.8v-2.3l1.5-.5V255h2.6v1.2h-2.7v-.1Z" transform="translate(135.3 80.6)" fill="#fff"/>
  </g>
</svg>
