<?xml version="1.0" encoding="utf-8"?>
<!-- Generator: Adobe Illustrator 24.2.3, SVG Export Plug-In . SVG Version: 6.00 Build 0)  -->
<svg version="1.1" xmlns="http://www.w3.org/2000/svg" xmlns:xlink="http://www.w3.org/1999/xlink" x="0px" y="0px"
	 viewBox="0 0 568 300" style="enable-background:new 0 0 568 300;" xml:space="preserve">
<style type="text/css">
	.st0{fill:#F7F7F7;}
	.st1{fill:none;stroke:#DFDFDF;}
	.st2{fill:#424344;}
	.st3{fill:#0077B4;}
	.st4{fill:#EAEAEA;stroke:#FFFFFF;}
	.st5{opacity:0.21;}
	.st6{opacity:0.15;}
	.st7{fill:#FFFFFF;}
	.st8{fill:#C71F25;}
	.st9{fill:#C94F30;}
	.st10{fill:#E5E5E5;}
	.st11{fill:#0A90B7;}
	.st12{fill:#F4F4F4;}
	.st13{fill:#444444;}
	.st14{opacity:0.1;}
	.st15{opacity:0.11;fill:#FFFFFF;}
	.st16{fill:#757575;}
	.st17{opacity:0.14;fill:#FFFFFF;}
	.st18{opacity:0.21;fill:#FFFFFF;}
	.st19{fill:#F0F0F0;}
	.st20{fill:#F2F2F2;}
	.st21{fill:none;stroke:#E5E5E5;stroke-width:0.25;stroke-miterlimit:10;}
	.st22{fill:#1A4480;}
	.st23{fill:#C4C4C4;}
	.st24{fill:#141414;}
	.st25{opacity:0;fill:#FFFFFF;}
	.st26{opacity:3.870968e-03;fill:#F7F7F7;}
	.st27{opacity:7.741936e-03;fill:#EFEFEF;}
	.st28{opacity:1.161290e-02;fill:#E6E6E6;}
	.st29{opacity:1.548387e-02;fill:#DEDEDE;}
	.st30{opacity:1.935484e-02;fill:#D6D6D6;}
	.st31{opacity:2.322581e-02;fill:#CECECE;}
	.st32{opacity:2.709677e-02;fill:#C5C5C5;}
	.st33{opacity:3.096774e-02;fill:#BDBDBD;}
	.st34{opacity:3.483871e-02;fill:#B5B5B5;}
	.st35{opacity:3.870968e-02;fill:#ADADAD;}
	.st36{opacity:4.258065e-02;fill:#A5A5A5;}
	.st37{opacity:4.645161e-02;fill:#9C9C9C;}
	.st38{opacity:5.032258e-02;fill:#949494;}
	.st39{opacity:5.419355e-02;fill:#8C8C8C;}
	.st40{opacity:5.806452e-02;fill:#848484;}
	.st41{opacity:6.193548e-02;fill:#7B7B7B;}
	.st42{opacity:6.580645e-02;fill:#737373;}
	.st43{opacity:6.967742e-02;fill:#6B6B6B;}
	.st44{opacity:7.354838e-02;fill:#636363;}
	.st45{opacity:7.741936e-02;fill:#5A5A5A;}
	.st46{opacity:8.129032e-02;fill:#525252;}
	.st47{opacity:8.516129e-02;fill:#4A4A4A;}
	.st48{opacity:8.903226e-02;fill:#424242;}
	.st49{opacity:9.290323e-02;fill:#3A3A3A;}
	.st50{opacity:9.677419e-02;fill:#313131;}
	.st51{opacity:0.1006;fill:#292929;}
	.st52{opacity:0.1045;fill:#212121;}
	.st53{opacity:0.1084;fill:#191919;}
	.st54{opacity:0.1123;fill:#101010;}
	.st55{opacity:0.1161;fill:#080808;}
	.st56{opacity:0.12;}
	.st57{fill:#0F0F0F;}
	.st58{fill:#1E1E1E;}
	.st59{opacity:0.5;fill:#424242;}
	.st60{fill:#E2E2E2;}
	.st61{filter:url(#Adobe_OpacityMaskFilter);}
	.st62{filter:url(#Adobe_OpacityMaskFilter_1_);}
	.st63{mask:url(#SVGID_1_);fill:url(#SVGID_2_);}
	.st64{fill:url(#SVGID_3_);}
	.st65{opacity:6.000000e-02;}
	.st66{fill:#BCBCBC;}
	.st67{filter:url(#Adobe_OpacityMaskFilter_2_);}
	.st68{filter:url(#Adobe_OpacityMaskFilter_3_);}
	.st69{mask:url(#SVGID_4_);fill:url(#SVGID_5_);}
	.st70{fill:url(#SVGID_6_);}
	.st71{fill:#CEA780;}
	.st72{opacity:0.13;}
</style>
<g id="Layer_10">
	
		<ellipse transform="matrix(0.9935 -0.1138 0.1138 0.9935 -15.768 34.5109)" class="st0" cx="294.5" cy="155.4" rx="274.6" ry="141"/>
	<g>
		<line class="st1" x1="33.3" y1="37.7" x2="33.3" y2="229.3"/>
		<line class="st1" x1="534" y1="102.2" x2="534" y2="204.1"/>
		<line class="st1" x1="285.4" y1="112.7" x2="285.4" y2="124.9"/>
		<polyline class="st1" points="342.4,143.9 342.4,226.8 534.8,226.8 		"/>
		<line class="st1" x1="66.5" y1="91.2" x2="216" y2="91.2"/>
		<line class="st1" x1="51.1" y1="156.4" x2="123.2" y2="156.4"/>
		<line class="st1" x1="467.6" y1="160.1" x2="507.3" y2="160.1"/>
		<line class="st1" x1="110.3" y1="141.1" x2="153.3" y2="141.1"/>
	</g>
	<g>
		<polygon points="381.9,62.1 361.1,82.9 340.4,62.1 		"/>
	</g>
	<g>
		<polygon points="381.9,128.9 361.1,149.6 340.4,128.9 		"/>
		<polygon class="st2" points="340.4,128.9 361.1,108.2 381.9,128.9 		"/>
	</g>
	<rect x="252.6" y="121.5" class="st3" width="66.5" height="39.2"/>
	<g>
		
			<rect x="14.4" y="8.4" transform="matrix(0.7071 -0.7071 0.7071 0.7071 -9.5794 31.5033)" class="st4" width="37.7" height="37.7"/>
		
			<rect x="115.7" y="72.3" transform="matrix(0.7071 -0.7071 0.7071 0.7071 -25.0362 121.8619)" class="st4" width="37.7" height="37.7"/>
		
			<rect x="515.1" y="74.2" transform="matrix(0.7071 -0.7071 0.7071 0.7071 90.5903 404.8418)" class="st4" width="37.7" height="37.7"/>
		
			<rect x="14.4" y="137" transform="matrix(0.7071 -0.7071 0.7071 0.7071 -100.4618 69.1479)" class="st4" width="37.7" height="37.7"/>
		<path class="st4" d="M61.1,227c0,15.4-12.5,27.8-27.8,27.8S5.4,242.4,5.4,227c0-15.4,12.5-27.8,27.8-27.8S61.1,211.6,61.1,227z"/>
		<path class="st4" d="M561.8,227c0,15.4-12.5,27.8-27.8,27.8s-27.8-12.5-27.8-27.8c0-15.4,12.5-27.8,27.8-27.8
			S561.8,211.6,561.8,227z"/>
		<rect x="-0.1" y="71.5" class="st4" width="66.5" height="39.2"/>
		<rect x="309.1" y="207.4" class="st4" width="66.5" height="39.2"/>
		<rect x="500.7" y="141.4" class="st4" width="66.5" height="39.2"/>
	</g>
</g>
<g id="Layer_5" class="st5">
</g>
<g id="Layer_8">
</g>
<g id="Layer_16">
</g>
<g id="Layer_7">
	<g id="Layer_9">
	</g>
</g>
<g id="Layer_6">
</g>
<g id="Layer_15">
	<polygon class="st6" points="519.8,41.4 519.8,41.4 519.8,29.8 515.8,29.8 515.8,27.1 514.4,27.1 514.4,29.8 510.7,29.8 
		510.7,27.1 509.2,27.1 509.2,29.8 505.5,29.8 505.5,27.1 504,27.1 504,29.8 500.3,29.8 500.3,27.1 498.8,27.1 498.8,29.8 
		495.1,29.8 495.1,27.1 493.7,27.1 493.7,29.8 489.9,29.8 489.9,27.1 488.5,27.1 488.5,29.8 484.7,29.8 484.7,27.1 483.3,27.1 
		483.3,29.8 479.6,29.8 479.6,27.1 478.1,27.1 478.1,29.8 474.4,29.8 474.4,27.1 472.9,27.1 472.9,29.8 469.2,29.8 469.2,27.1 
		467.7,27.1 467.7,29.8 464,29.8 464,27.2 462.6,27.2 462.6,29.8 458.8,29.8 458.8,27.2 457.4,27.2 457.4,29.8 453.6,29.8 
		453.6,27.2 452.2,27.2 452.2,29.8 448.5,29.8 448.5,27.2 447,27.2 447,29.8 443.2,29.8 443.2,27.2 441.8,27.2 441.8,29.8 
		437.9,29.8 437.9,98.2 519.8,98.2 	"/>
	<g>
		<rect x="435.2" y="27.6" class="st7" width="81.9" height="68.3"/>
		<rect x="435.2" y="27.6" class="st8" width="81.9" height="11.6"/>
		<g>
			<path class="st9" d="M441.4,32.3c0,0.9-0.7,1.6-1.6,1.6c-0.9,0-1.6-0.7-1.6-1.6c0-0.9,0.7-1.6,1.6-1.6
				C440.7,30.8,441.4,31.5,441.4,32.3z"/>
			<path class="st9" d="M446.6,32.3c0,0.9-0.7,1.6-1.6,1.6c-0.9,0-1.6-0.7-1.6-1.6c0-0.9,0.7-1.6,1.6-1.6
				C445.9,30.8,446.6,31.5,446.6,32.3z"/>
			<path class="st9" d="M451.8,32.3c0,0.9-0.7,1.6-1.6,1.6c-0.9,0-1.6-0.7-1.6-1.6c0-0.9,0.7-1.6,1.6-1.6
				C451.1,30.8,451.8,31.5,451.8,32.3z"/>
			<path class="st9" d="M457,32.3c0,0.9-0.7,1.6-1.6,1.6c-0.9,0-1.6-0.7-1.6-1.6c0-0.9,0.7-1.6,1.6-1.6
				C456.3,30.8,457,31.5,457,32.3z"/>
			<path class="st9" d="M462.2,32.3c0,0.9-0.7,1.6-1.6,1.6c-0.9,0-1.6-0.7-1.6-1.6c0-0.9,0.7-1.6,1.6-1.6
				C461.5,30.7,462.2,31.5,462.2,32.3z"/>
			<path class="st9" d="M467.4,32.3c0,0.9-0.7,1.6-1.6,1.6c-0.9,0-1.6-0.7-1.6-1.6c0-0.9,0.7-1.6,1.6-1.6
				C466.7,30.7,467.4,31.5,467.4,32.3z"/>
			<path class="st9" d="M472.5,32.3c0,0.9-0.7,1.6-1.6,1.6c-0.9,0-1.6-0.7-1.6-1.6c0-0.9,0.7-1.6,1.6-1.6
				C471.8,30.7,472.5,31.5,472.5,32.3z"/>
			<path class="st9" d="M477.7,32.3c0,0.9-0.7,1.6-1.6,1.6c-0.9,0-1.6-0.7-1.6-1.6c0-0.9,0.7-1.6,1.6-1.6
				C477,30.7,477.7,31.5,477.7,32.3z"/>
			<path class="st9" d="M482.9,32.3c0,0.9-0.7,1.6-1.6,1.6c-0.9,0-1.6-0.7-1.6-1.6c0-0.9,0.7-1.6,1.6-1.6
				C482.2,30.7,482.9,31.5,482.9,32.3z"/>
			<path class="st9" d="M488.1,32.3c0,0.9-0.7,1.6-1.6,1.6c-0.9,0-1.6-0.7-1.6-1.6c0-0.9,0.7-1.6,1.6-1.6
				C487.4,30.7,488.1,31.4,488.1,32.3z"/>
			<path class="st9" d="M493.3,32.3c0,0.9-0.7,1.6-1.6,1.6c-0.9,0-1.6-0.7-1.6-1.6c0-0.9,0.7-1.6,1.6-1.6
				C492.6,30.7,493.3,31.4,493.3,32.3z"/>
			<path class="st9" d="M498.5,32.3c0,0.9-0.7,1.6-1.6,1.6c-0.9,0-1.6-0.7-1.6-1.6c0-0.9,0.7-1.6,1.6-1.6
				C497.8,30.7,498.5,31.4,498.5,32.3z"/>
			<path class="st9" d="M503.6,32.3c0,0.9-0.7,1.6-1.6,1.6c-0.9,0-1.6-0.7-1.6-1.6c0-0.9,0.7-1.6,1.6-1.6
				C502.9,30.7,503.6,31.4,503.6,32.3z"/>
			<path class="st9" d="M508.8,32.3c0,0.9-0.7,1.6-1.6,1.6c-0.9,0-1.6-0.7-1.6-1.6c0-0.9,0.7-1.6,1.6-1.6
				C508.1,30.7,508.8,31.4,508.8,32.3z"/>
			<path class="st9" d="M514,32.3c0,0.9-0.7,1.6-1.6,1.6c-0.9,0-1.6-0.7-1.6-1.6c0-0.9,0.7-1.6,1.6-1.6
				C513.3,30.7,514,31.4,514,32.3z"/>
		</g>
		<g>
			<rect x="439.1" y="24.9" class="st7" width="1.4" height="7.2"/>
			<rect x="444.3" y="24.9" class="st7" width="1.4" height="7.2"/>
			<rect x="449.5" y="24.9" class="st7" width="1.4" height="7.2"/>
			<rect x="454.7" y="24.9" class="st7" width="1.4" height="7.2"/>
			<rect x="459.9" y="24.9" class="st7" width="1.4" height="7.2"/>
			<rect x="465.1" y="24.9" class="st7" width="1.4" height="7.2"/>
			<rect x="470.3" y="24.9" class="st7" width="1.4" height="7.2"/>
			<rect x="475.4" y="24.9" class="st7" width="1.4" height="7.2"/>
			<rect x="480.6" y="24.9" class="st7" width="1.4" height="7.2"/>
			<rect x="485.8" y="24.9" class="st7" width="1.4" height="7.2"/>
			<rect x="491" y="24.9" class="st7" width="1.4" height="7.2"/>
			<rect x="496.2" y="24.9" class="st7" width="1.4" height="7.2"/>
			<rect x="501.4" y="24.9" class="st7" width="1.4" height="7.2"/>
			<rect x="506.5" y="24.9" class="st7" width="1.4" height="7.2"/>
			<rect x="511.7" y="24.9" class="st7" width="1.4" height="7.2"/>
		</g>
		<rect x="482.9" y="54.1" class="st7" width="13.7" height="9.1"/>
		<path class="st10" d="M483.3,45.6l12.9,0l0,8.3l-12.9,0L483.3,45.6z M496.2,62.8l-12.9,0l0-8.2l12.9,0L496.2,62.8z M496.2,71.8
			l-12.9,0l0-8.2l12.9,0L496.2,71.8z M496.2,80.8l-12.9,0l0-8.2l12.9,0L496.2,80.8L496.2,80.8z M456.1,80.8l0-8.2l12.9,0l0,8.2
			L456.1,80.8z M456.1,63.6l12.9,0l0,8.2l-12.9,0L456.1,63.6z M456.1,54.7l12.9,0l0,8.2l-12.9,0L456.1,54.7z M482.6,54.7l0,8.2
			l-12.9,0l0-8.2L482.6,54.7z M482.6,71.8l-12.9,0l0-8.2l12.9,0L482.6,71.8z M469.7,80.8l0-8.2l12.9,0l0,8.2L469.7,80.8z
			 M469.7,45.6l12.9,0l0,8.3l-12.9,0L469.7,45.6z M456.1,45.6l12.9,0l0,8.3l-12.9,0L456.1,45.6z M442.5,54.7l12.9,0l0,8.2l-12.9,0
			L442.5,54.7z M442.5,63.7l12.9,0l0,8.2l-12.9,0L442.5,63.7z M442.5,72.6l12.9,0l0,8.2l-12.9,0L442.5,72.6z M455.4,89.9l-12.9,0
			l0-8.3l12.9,0L455.4,89.9z M469,89.9l-12.9,0l0-8.3l12.9,0L469,89.9z M482.6,89.8l-12.9,0l0-8.3l12.9,0L482.6,89.8L482.6,89.8z
			 M483.3,89.8l0-8.3l12.9,0l14.3,0l0-0.8l0-8.2l0-0.8l0-8.2l0-0.8l0-8.2l0-0.8l0-9l-13.6,0l-0.7,0l-12.9,0l-0.7,0l-12.9,0l-0.7,0
			l-12.9,0l-0.7,0l0,0.7l0,8.3l-12.9,0l-0.7,0l0,0.8l0,8.2l0,0.8l0,8.2l0,0.8l0,8.2l0,0.8l0,9l13.6,0l0.7,0l12.9,0l0.7,0l12.9,0
			l0.7,0L483.3,89.8z M509.8,80.8l-12.9,0l0-8.2l12.9,0L509.8,80.8z M509.8,71.8l-12.9,0l0-8.2l12.9,0L509.8,71.8z M509.8,62.8
			l-12.9,0l0-8.2l12.9,0L509.8,62.8z M496.9,53.9l0-8.3l12.9,0l0,8.3L496.9,53.9z"/>
		<g>
			<rect x="457.4" y="46.6" class="st10" width="2.2" height="1.7"/>
			<rect x="471" y="46.6" class="st10" width="2.2" height="1.7"/>
			<rect x="484.5" y="46.6" class="st10" width="2.2" height="1.7"/>
			<rect x="498" y="46.6" class="st10" width="2.2" height="1.7"/>
		</g>
		<g>
			<rect x="443.8" y="55.8" class="st10" width="2.2" height="1.7"/>
			<rect x="457.4" y="55.8" class="st10" width="2.2" height="1.7"/>
			<rect x="470.9" y="55.8" class="st10" width="2.2" height="1.7"/>
			<rect x="484.5" y="55.8" class="st10" width="2.2" height="1.7"/>
			<rect x="498" y="55.8" class="st10" width="2.2" height="1.7"/>
		</g>
		<g>
			<rect x="443.8" y="64.9" class="st10" width="2.2" height="1.7"/>
			<rect x="457.4" y="64.9" class="st10" width="2.2" height="1.7"/>
			<rect x="470.9" y="64.9" class="st10" width="2.2" height="1.7"/>
			<rect x="484.5" y="64.9" class="st10" width="2.2" height="1.7"/>
			<rect x="498" y="64.9" class="st10" width="2.2" height="1.7"/>
		</g>
		<g>
			<rect x="443.9" y="73.9" class="st10" width="2.2" height="1.7"/>
			<rect x="457.4" y="73.9" class="st10" width="2.2" height="1.7"/>
			<rect x="470.9" y="73.9" class="st10" width="2.2" height="1.7"/>
			<rect x="484.5" y="73.9" class="st10" width="2.2" height="1.7"/>
			<rect x="498" y="73.8" class="st10" width="2.2" height="1.7"/>
		</g>
		<g>
			<rect x="443.9" y="83" class="st10" width="2.2" height="1.7"/>
			<rect x="457.4" y="83" class="st10" width="2.2" height="1.7"/>
			<rect x="470.9" y="83" class="st10" width="2.2" height="1.7"/>
		</g>
		<g>
			<path class="st11" d="M466.1,46.9c-0.3-0.4-0.9-0.4-1.2-0.1l-2.2,1.9l-2.3-1.7c-0.4-0.3-0.9-0.2-1.2,0.2
				c-0.3,0.4-0.2,0.9,0.2,1.2l2,1.4l-1.9,1.7c-0.4,0.3-0.4,0.9-0.1,1.2c0.1,0.1,0.3,0.2,0.4,0.3c0.3,0.1,0.5,0,0.8-0.2l2.2-1.9
				l2.6,1.8c0.1,0.1,0.2,0.1,0.3,0.1c0.3,0.1,0.7,0,0.9-0.3c0.3-0.4,0.2-0.9-0.2-1.2l-2.3-1.6l1.9-1.7
				C466.4,47.8,466.4,47.3,466.1,46.9z"/>
		</g>
		<g>
			<path class="st11" d="M479.6,47.1c-0.3-0.4-0.9-0.4-1.2-0.1l-2.2,1.9l-2.3-1.7c-0.4-0.3-0.9-0.2-1.2,0.2
				c-0.3,0.4-0.2,0.9,0.2,1.2l2,1.4l-1.9,1.7c-0.4,0.3-0.4,0.9-0.1,1.2c0.1,0.1,0.3,0.2,0.4,0.3c0.3,0.1,0.5,0,0.8-0.2l2.2-1.9
				l2.6,1.8c0.1,0.1,0.2,0.1,0.3,0.1c0.3,0.1,0.7,0,0.9-0.3c0.3-0.4,0.2-0.9-0.2-1.2l-2.3-1.6l1.9-1.7
				C479.9,48,479.9,47.5,479.6,47.1z"/>
		</g>
		<g>
			<path class="st11" d="M493.4,46.8c-0.3-0.4-0.9-0.4-1.2-0.1l-2.2,1.9l-2.3-1.7c-0.4-0.3-0.9-0.2-1.2,0.2
				c-0.3,0.4-0.2,0.9,0.2,1.2l2,1.4l-1.9,1.7c-0.4,0.3-0.4,0.9-0.1,1.2c0.1,0.1,0.3,0.2,0.4,0.3c0.3,0.1,0.5,0,0.8-0.2l2.2-1.9
				l2.6,1.8c0.1,0.1,0.2,0.1,0.3,0.1c0.3,0.1,0.7,0,0.9-0.3c0.3-0.4,0.2-0.9-0.2-1.2l-2.3-1.6l1.9-1.7
				C493.7,47.7,493.7,47.2,493.4,46.8z"/>
		</g>
		<g>
			<path class="st11" d="M506.5,47.2c-0.3-0.4-0.9-0.4-1.2-0.1l-2.2,1.9l-2.3-1.7c-0.4-0.3-0.9-0.2-1.2,0.2
				c-0.3,0.4-0.2,0.9,0.2,1.2l2,1.4l-1.9,1.7c-0.4,0.3-0.4,0.9-0.1,1.2c0.1,0.1,0.3,0.2,0.4,0.3c0.3,0.1,0.5,0,0.8-0.2l2.2-1.9
				l2.6,1.8c0.1,0.1,0.2,0.1,0.3,0.1c0.3,0.1,0.7,0,0.9-0.3c0.3-0.4,0.2-0.9-0.2-1.2l-2.3-1.6l1.9-1.7
				C506.7,48.1,506.8,47.6,506.5,47.2z"/>
		</g>
		<g>
			<path class="st11" d="M453.1,55.9c-0.3-0.4-0.9-0.4-1.2-0.1l-2.2,1.9l-2.3-1.7c-0.4-0.3-0.9-0.2-1.2,0.2
				c-0.3,0.4-0.2,0.9,0.2,1.2l2,1.4l-1.9,1.7c-0.4,0.3-0.4,0.9-0.1,1.2c0.1,0.1,0.3,0.2,0.4,0.3c0.3,0.1,0.5,0,0.8-0.2l2.2-1.9
				l2.6,1.8c0.1,0.1,0.2,0.1,0.3,0.1c0.3,0.1,0.7,0,0.9-0.3c0.3-0.4,0.2-0.9-0.2-1.2l-2.3-1.6l1.9-1.7
				C453.4,56.8,453.5,56.2,453.1,55.9z"/>
		</g>
		<g>
			<path class="st11" d="M465.5,55.8c-0.3-0.4-0.9-0.4-1.2-0.1l-2.2,1.9l-2.3-1.7c-0.4-0.3-0.9-0.2-1.2,0.2
				c-0.3,0.4-0.2,0.9,0.2,1.2l2,1.4l-1.9,1.7c-0.4,0.3-0.4,0.9-0.1,1.2c0.1,0.1,0.3,0.2,0.4,0.3c0.3,0.1,0.5,0,0.8-0.2l2.2-1.9
				l2.6,1.8c0.1,0.1,0.2,0.1,0.3,0.1c0.3,0.1,0.7,0,0.9-0.3c0.3-0.4,0.2-0.9-0.2-1.2l-2.3-1.6l1.9-1.7
				C465.8,56.7,465.8,56.1,465.5,55.8z"/>
		</g>
	</g>
	<g>
		<polygon class="st6" points="519.6,128.6 410.1,128.6 410.1,253.2 410.1,253.2 410.1,275.5 493.5,275.5 519.6,275.5 519.6,275.5 
			519.6,275.5 		"/>
		<g>
			<g>
				<rect x="403.7" y="121.2" class="st6" width="112.7" height="151.2"/>
			</g>
			<rect x="403.7" y="121.2" class="st12" width="112.7" height="151.2"/>
			<polygon class="st13" points="516.4,121.2 516.4,147 451.2,121.2 			"/>
			<rect x="425.9" y="161.9" class="st14" width="76.5" height="1.9"/>
			<rect x="447.7" y="154.5" class="st14" width="32.9" height="1.9"/>
			<rect x="417.7" y="166.8" class="st14" width="84.7" height="1.9"/>
			<rect x="417.7" y="171.7" class="st14" width="84.7" height="1.9"/>
			<rect x="425.9" y="176.6" class="st14" width="76.5" height="1.9"/>
			<rect x="417.7" y="181.5" class="st14" width="84.7" height="1.9"/>
			<rect x="417.7" y="186.4" class="st14" width="84.7" height="1.9"/>
			<rect x="417.7" y="191.3" class="st14" width="84.7" height="1.9"/>
			<rect x="417.7" y="196.2" class="st14" width="84.7" height="1.9"/>
			<rect x="417.7" y="201.1" class="st14" width="84.7" height="1.9"/>
			<rect x="417.7" y="206" class="st14" width="84.7" height="1.9"/>
			<rect x="417.7" y="210.9" class="st14" width="84.7" height="1.9"/>
			<rect x="417.7" y="215.8" class="st14" width="84.7" height="1.9"/>
			<rect x="425.9" y="220.7" class="st14" width="76.5" height="1.9"/>
			<rect x="417.7" y="225.5" class="st14" width="84.7" height="1.9"/>
			<rect x="485.8" y="242.1" class="st14" width="16.6" height="1.9"/>
			<rect x="417.7" y="230.4" class="st14" width="84.7" height="1.9"/>
			<polygon class="st13" points="489.6,272.4 403.7,272.4 403.7,249.4 			"/>
			<polygon class="st15" points="468.5,121.2 465,121.3 516.4,165 516.4,132.4 			"/>
			<polygon class="st15" points="403.7,269.3 516.4,254.7 516.4,272.4 403.7,272.4 			"/>
			<g class="st14">
				<path d="M493.1,126.9h-23.9c-0.8,0-1.7-0.3-2.4-0.8c-0.6-0.4-1.9-0.8-4-0.8c-2.1,0-3.5,0.4-4,0.8c-0.8,0.5-1.6,0.8-2.4,0.8
					h-23.9c-1,0-1.8-0.8-1.8-1.7v-4.6c0-0.9,0.8-1.7,1.8-1.7h60.7c1,0,1.8,0.8,1.8,1.7v4.6C494.9,126.1,494.1,126.9,493.1,126.9z
					 M462.7,124c2,0,3.8,0.4,4.7,1c0.6,0.4,1.2,0.6,1.8,0.6h23.9c0.3,0,0.6-0.2,0.6-0.5v-4.6c0-0.3-0.3-0.5-0.6-0.5h-60.7
					c-0.3,0-0.6,0.2-0.6,0.5v4.6c0,0.3,0.3,0.5,0.6,0.5h23.9c0.6,0,1.2-0.2,1.8-0.6C458.9,124.4,460.8,124,462.7,124z"/>
			</g>
			<g>
				<path class="st11" d="M492.6,126.1h-23.9c-0.8,0-1.7-0.3-2.4-0.8c-0.6-0.4-1.9-0.8-4-0.8c-2.1,0-3.5,0.4-4,0.8
					c-0.8,0.5-1.6,0.8-2.4,0.8h-23.9c-1,0-1.8-0.8-1.8-1.7v-4.6c0-0.9,0.8-1.7,1.8-1.7h60.7c1,0,1.8,0.8,1.8,1.7v4.6
					C494.3,125.3,493.6,126.1,492.6,126.1z M462.2,123.3c2,0,3.8,0.4,4.7,1c0.6,0.4,1.2,0.6,1.8,0.6h23.9c0.3,0,0.6-0.2,0.6-0.5
					v-4.6c0-0.3-0.3-0.5-0.6-0.5h-60.7c-0.3,0-0.6,0.2-0.6,0.5v4.6c0,0.3,0.3,0.5,0.6,0.5h23.9c0.6,0,1.2-0.2,1.8-0.6
					C458.4,123.7,460.2,123.3,462.2,123.3z"/>
			</g>
		</g>
	</g>
	<path class="st6" d="M488,185.5c-1-1.4-2-2.3-2.3-2.1c-2.4,1.2-4.8,2.4-7,3.8l-28.1,19l-1.1,1l0.2,0.3l-26.4,19.3l-13,12.5l0.1,0.2
		c-1.1,0.8-1.9,1.6-1.7,1.9c0.2,0.3,1.2-0.1,2.4-0.9l0.1,0.2l16-8.2l27.2-18.3l0.2,0.2l1.3-0.7l18.9-13.8c0.5,0.4,1.1,1.1,0.9,1.5
		c-2.1,1.2-4.3,2.3-5.8,3.1c-1.7,0.9-3,1.5-3.6,2c-2.3,1.6-6.4,5.9-6.5,6.1c0,0-0.5,0.7-0.1,1c0.2,0.2,0.8-0.3,0.8-0.3
		c0,0,4.2-4.4,6.4-5.9c0.5-0.4,1.9-1.1,3.5-1.9c6.7-3.4,12.6-6.6,12.2-9.3c0-0.1,0-0.3-0.1-0.4c-0.2-0.4-0.6-0.5-1-0.5l2-1.5
		c2.1-1.6,4-3.4,5.9-5.3c0,0,0,0,0,0C489.5,188.2,489,186.9,488,185.5z"/>
	<g>
		<path class="st10" d="M487.8,186.8c-0.3,0.2-1.4-0.7-2.3-2.1c-1-1.4-1.5-2.7-1.2-2.9s1.4,0.7,2.3,2.1
			C487.6,185.3,488.2,186.6,487.8,186.8z"/>
		<path class="st16" d="M477.7,197.8c2-1.4,3.7-3,3.2-3.7c-1.6-2.3-8.1,3.8-8.1,3.8s2.1,1.6,1.2,2.2
			C473.1,200.5,475.7,199.2,477.7,197.8z"/>
		<path class="st8" d="M409.1,237.8c1.2-0.8,2.3-1.3,2.5-1c0.2,0.3-0.6,1.2-1.8,2c-1.2,0.8-2.3,1.3-2.5,1
			C407.1,239.6,407.9,238.7,409.1,237.8z"/>
		<polygon class="st10" points="421.8,225.2 425.9,231 409.8,239.1 408.9,237.7 		"/>
		<polygon class="st11" points="449.4,205.1 454.2,211.9 425.9,231 421.8,225.2 		"/>
		<g>
			<path class="st11" d="M477.3,185.7c1.6,2.2,3.1,4.3,4.7,6.5c-9.1,6.7-18.6,13.4-27.5,20c-1.8-2.5-3.6-5-5.5-7.5
				C458.4,198.3,468.1,192,477.3,185.7z"/>
		</g>
		<polygon class="st10" points="449.2,204.6 454.5,212.2 453.2,212.9 448.1,205.6 		"/>
		<path class="st8" d="M487.8,186.8c-1.2-1.7-2.3-3.3-3.5-5c-2.4,1.2-4.8,2.4-7,3.8c1.5,2.2,3,4.3,4.5,6.5
			C484,190.5,485.9,188.7,487.8,186.8z"/>
		
			<rect x="437.3" y="205.2" transform="matrix(-0.5752 -0.818 0.818 -0.5752 510.3698 705.0325)" class="st17" width="1.9" height="29.6"/>
		
			<rect x="465.8" y="185.2" transform="matrix(-0.5752 -0.818 0.818 -0.5752 571.6526 696.7773)" class="st17" width="1.9" height="29.6"/>
		<polygon class="st18" points="485.5,185.6 486.2,186.7 482,190.4 480.9,188.8 		"/>
		<polygon class="st19" points="409.4,238.5 425.3,230.2 424.3,228.7 		"/>
		<g>
			<path class="st13" d="M458.2,211c0.2-0.2,4.2-4.4,6.5-6.1c0.6-0.4,1.9-1.1,3.6-2c4-2,12.3-6.2,11.7-8.4l0.9-0.3
				c0.8,2.7-5.3,6-12.1,9.5c-1.6,0.8-3,1.5-3.5,1.9c-2.2,1.6-6.3,5.9-6.4,5.9c0,0-0.5,0.6-0.8,0.3C457.8,211.6,458.2,211,458.2,211z
				"/>
		</g>
	</g>
	<path class="st6" d="M420,3.3H191.3c-3.9,0-6.3,4.4-4.1,7.6l25.6,48.5c0.9,1.4,2.5,2.2,4.1,2.2h-0.1c-2.2,0-4,2.3-4,5.2v110.5
		c0,2.9,1.8,5.2,4,5.2h73.3h31.3h73.3c2.2,0,4-2.3,4-5.2V66.9c0-2.9-1.8-5.2-4-5.2h-0.1c1.7,0,3.2-0.8,4.1-2.2l25.4-48.5
		C426.3,7.7,423.9,3.3,420,3.3z"/>
	<polygon class="st6" points="184.7,105 75.2,105 75.2,229.7 75.2,229.7 75.2,252 158.6,252 184.7,252 184.7,252 184.7,252 	"/>
	<g>
		<rect x="71.8" y="102.1" class="st20" width="109.5" height="146.9"/>
		<g>
			<rect x="80.5" y="201.5" class="st21" width="2.8" height="2.8"/>
			<rect x="80.5" y="198.7" class="st21" width="2.8" height="2.8"/>
			<rect x="80.5" y="195.9" class="st21" width="2.8" height="2.8"/>
			<rect x="80.5" y="193.1" class="st21" width="2.8" height="2.8"/>
			<rect x="80.5" y="190.3" class="st21" width="2.8" height="2.8"/>
			<rect x="80.5" y="187.5" class="st21" width="2.8" height="2.8"/>
			<rect x="80.5" y="184.7" class="st21" width="2.8" height="2.8"/>
			<rect x="80.5" y="181.9" class="st21" width="2.8" height="2.8"/>
			<rect x="80.5" y="179.1" class="st21" width="2.8" height="2.8"/>
			<rect x="83.3" y="201.5" class="st21" width="2.8" height="2.8"/>
			<rect x="83.3" y="198.7" class="st21" width="2.8" height="2.8"/>
			<rect x="83.3" y="195.9" class="st21" width="2.8" height="2.8"/>
			<rect x="83.3" y="193.1" class="st21" width="2.8" height="2.8"/>
			<rect x="83.3" y="190.3" class="st21" width="2.8" height="2.8"/>
			<rect x="83.3" y="187.5" class="st21" width="2.8" height="2.8"/>
			<rect x="83.3" y="184.7" class="st21" width="2.8" height="2.8"/>
			<rect x="83.3" y="181.9" class="st21" width="2.8" height="2.8"/>
			<rect x="83.3" y="179.1" class="st21" width="2.8" height="2.8"/>
			<rect x="86.1" y="201.5" class="st21" width="2.8" height="2.8"/>
			<rect x="86.1" y="198.7" class="st21" width="2.8" height="2.8"/>
			<rect x="86.1" y="195.9" class="st21" width="2.8" height="2.8"/>
			<rect x="86.1" y="193.1" class="st21" width="2.8" height="2.8"/>
			<rect x="86.1" y="190.3" class="st21" width="2.8" height="2.8"/>
			<rect x="86.1" y="187.5" class="st21" width="2.8" height="2.8"/>
			<rect x="86.1" y="184.7" class="st21" width="2.8" height="2.8"/>
			<rect x="86.1" y="181.9" class="st21" width="2.8" height="2.8"/>
			<rect x="86.1" y="179.1" class="st21" width="2.8" height="2.8"/>
			<rect x="88.9" y="201.5" class="st21" width="2.8" height="2.8"/>
			<rect x="88.9" y="198.7" class="st21" width="2.8" height="2.8"/>
			<rect x="88.9" y="195.9" class="st21" width="2.8" height="2.8"/>
			<rect x="88.9" y="193.1" class="st21" width="2.8" height="2.8"/>
			<rect x="88.9" y="190.3" class="st21" width="2.8" height="2.8"/>
			<rect x="88.9" y="187.5" class="st21" width="2.8" height="2.8"/>
			<rect x="88.9" y="184.7" class="st21" width="2.8" height="2.8"/>
			<rect x="88.9" y="181.9" class="st21" width="2.8" height="2.8"/>
			<rect x="88.9" y="179.1" class="st21" width="2.8" height="2.8"/>
			<rect x="91.7" y="201.5" class="st21" width="2.8" height="2.8"/>
			<rect x="91.7" y="198.7" class="st21" width="2.8" height="2.8"/>
			<rect x="91.7" y="195.9" class="st21" width="2.8" height="2.8"/>
			<rect x="91.7" y="193.1" class="st21" width="2.8" height="2.8"/>
			<rect x="91.7" y="190.3" class="st21" width="2.8" height="2.8"/>
			<rect x="91.7" y="187.5" class="st21" width="2.8" height="2.8"/>
			<rect x="91.7" y="184.7" class="st21" width="2.8" height="2.8"/>
			<rect x="91.7" y="181.9" class="st21" width="2.8" height="2.8"/>
			<rect x="91.7" y="179.1" class="st21" width="2.8" height="2.8"/>
			<rect x="94.5" y="201.5" class="st21" width="2.8" height="2.8"/>
			<rect x="94.5" y="198.7" class="st21" width="2.8" height="2.8"/>
			<rect x="94.5" y="195.9" class="st21" width="2.8" height="2.8"/>
			<rect x="94.5" y="193.1" class="st21" width="2.8" height="2.8"/>
			<rect x="94.5" y="190.3" class="st21" width="2.8" height="2.8"/>
			<rect x="94.5" y="187.5" class="st21" width="2.8" height="2.8"/>
			<rect x="94.5" y="184.7" class="st21" width="2.8" height="2.8"/>
			<rect x="94.5" y="181.9" class="st21" width="2.8" height="2.8"/>
			<rect x="94.5" y="179.1" class="st21" width="2.8" height="2.8"/>
			<rect x="97.2" y="201.5" class="st21" width="2.8" height="2.8"/>
			<rect x="97.2" y="198.7" class="st21" width="2.8" height="2.8"/>
			<rect x="97.2" y="195.9" class="st21" width="2.8" height="2.8"/>
			<rect x="97.2" y="193.1" class="st21" width="2.8" height="2.8"/>
			<rect x="97.2" y="190.3" class="st21" width="2.8" height="2.8"/>
			<rect x="97.2" y="187.5" class="st21" width="2.8" height="2.8"/>
			<rect x="97.2" y="184.7" class="st21" width="2.8" height="2.8"/>
			<rect x="97.2" y="181.9" class="st21" width="2.8" height="2.8"/>
			<rect x="97.2" y="179.1" class="st21" width="2.8" height="2.8"/>
			<rect x="100" y="201.5" class="st21" width="2.8" height="2.8"/>
			<rect x="100" y="198.7" class="st21" width="2.8" height="2.8"/>
			<rect x="100" y="195.9" class="st21" width="2.8" height="2.8"/>
			<rect x="100" y="193.1" class="st21" width="2.8" height="2.8"/>
			<rect x="100" y="190.3" class="st21" width="2.8" height="2.8"/>
			<rect x="100" y="187.5" class="st21" width="2.8" height="2.8"/>
			<rect x="100" y="184.7" class="st21" width="2.8" height="2.8"/>
			<rect x="100" y="181.9" class="st21" width="2.8" height="2.8"/>
			<rect x="100" y="179.1" class="st21" width="2.8" height="2.8"/>
			<rect x="102.8" y="201.5" class="st21" width="2.8" height="2.8"/>
			<rect x="102.8" y="198.7" class="st21" width="2.8" height="2.8"/>
			<rect x="102.8" y="195.9" class="st21" width="2.8" height="2.8"/>
			<rect x="102.8" y="193.1" class="st21" width="2.8" height="2.8"/>
			<rect x="102.8" y="190.3" class="st21" width="2.8" height="2.8"/>
			<rect x="102.8" y="187.5" class="st21" width="2.8" height="2.8"/>
			<rect x="102.8" y="184.7" class="st21" width="2.8" height="2.8"/>
			<rect x="102.8" y="181.9" class="st21" width="2.8" height="2.8"/>
			<rect x="102.8" y="179.1" class="st21" width="2.8" height="2.8"/>
			<rect x="105.6" y="201.5" class="st21" width="2.8" height="2.8"/>
			<rect x="105.6" y="198.7" class="st21" width="2.8" height="2.8"/>
			<rect x="105.6" y="195.9" class="st21" width="2.8" height="2.8"/>
			<rect x="105.6" y="193.1" class="st21" width="2.8" height="2.8"/>
			<rect x="105.6" y="190.3" class="st21" width="2.8" height="2.8"/>
			<rect x="105.6" y="187.5" class="st21" width="2.8" height="2.8"/>
			<rect x="105.6" y="184.7" class="st21" width="2.8" height="2.8"/>
			<rect x="105.6" y="181.9" class="st21" width="2.8" height="2.8"/>
			<rect x="105.6" y="179.1" class="st21" width="2.8" height="2.8"/>
			<rect x="108.4" y="201.5" class="st21" width="2.8" height="2.8"/>
			<rect x="108.4" y="198.7" class="st21" width="2.8" height="2.8"/>
			<rect x="108.4" y="195.9" class="st21" width="2.8" height="2.8"/>
			<rect x="108.4" y="193.1" class="st21" width="2.8" height="2.8"/>
			<rect x="108.4" y="190.3" class="st21" width="2.8" height="2.8"/>
			<rect x="108.4" y="187.5" class="st21" width="2.8" height="2.8"/>
			<rect x="108.4" y="184.7" class="st21" width="2.8" height="2.8"/>
			<rect x="108.4" y="181.9" class="st21" width="2.8" height="2.8"/>
			<rect x="108.4" y="179.1" class="st21" width="2.8" height="2.8"/>
			<rect x="111.2" y="201.5" class="st21" width="2.8" height="2.8"/>
			<rect x="111.2" y="198.7" class="st21" width="2.8" height="2.8"/>
			<rect x="111.2" y="195.9" class="st21" width="2.8" height="2.8"/>
			<rect x="111.2" y="193.1" class="st21" width="2.8" height="2.8"/>
			<rect x="111.2" y="190.3" class="st21" width="2.8" height="2.8"/>
			<rect x="111.2" y="187.5" class="st21" width="2.8" height="2.8"/>
			<rect x="111.2" y="184.7" class="st21" width="2.8" height="2.8"/>
			<rect x="111.2" y="181.9" class="st21" width="2.8" height="2.8"/>
			<rect x="111.2" y="179.1" class="st21" width="2.8" height="2.8"/>
			<rect x="114" y="201.5" class="st21" width="2.8" height="2.8"/>
			<rect x="114" y="198.7" class="st21" width="2.8" height="2.8"/>
			<rect x="114" y="195.9" class="st21" width="2.8" height="2.8"/>
			<rect x="114" y="193.1" class="st21" width="2.8" height="2.8"/>
			<rect x="114" y="190.3" class="st21" width="2.8" height="2.8"/>
			<rect x="114" y="187.5" class="st21" width="2.8" height="2.8"/>
			<rect x="114" y="184.7" class="st21" width="2.8" height="2.8"/>
			<rect x="114" y="181.9" class="st21" width="2.8" height="2.8"/>
			<rect x="114" y="179.1" class="st21" width="2.8" height="2.8"/>
			<rect x="116.8" y="201.5" class="st21" width="2.8" height="2.8"/>
			<rect x="116.8" y="198.7" class="st21" width="2.8" height="2.8"/>
			<rect x="116.8" y="195.9" class="st21" width="2.8" height="2.8"/>
			<rect x="116.8" y="193.1" class="st21" width="2.8" height="2.8"/>
			<rect x="116.8" y="190.3" class="st21" width="2.8" height="2.8"/>
			<rect x="116.8" y="187.5" class="st21" width="2.8" height="2.8"/>
			<rect x="116.8" y="184.7" class="st21" width="2.8" height="2.8"/>
			<rect x="116.8" y="181.9" class="st21" width="2.8" height="2.8"/>
			<rect x="116.8" y="179.1" class="st21" width="2.8" height="2.8"/>
			<rect x="119.6" y="201.5" class="st21" width="2.8" height="2.8"/>
			<rect x="119.6" y="198.7" class="st21" width="2.8" height="2.8"/>
			<rect x="119.6" y="195.9" class="st21" width="2.8" height="2.8"/>
			<rect x="119.6" y="193.1" class="st21" width="2.8" height="2.8"/>
			<rect x="119.6" y="190.3" class="st21" width="2.8" height="2.8"/>
			<rect x="119.6" y="187.5" class="st21" width="2.8" height="2.8"/>
			<rect x="119.6" y="184.7" class="st21" width="2.8" height="2.8"/>
			<rect x="119.6" y="181.9" class="st21" width="2.8" height="2.8"/>
			<rect x="119.6" y="179.1" class="st21" width="2.8" height="2.8"/>
			<rect x="122.4" y="201.5" class="st21" width="2.8" height="2.8"/>
			<rect x="122.4" y="198.7" class="st21" width="2.8" height="2.8"/>
			<rect x="122.4" y="195.9" class="st21" width="2.8" height="2.8"/>
			<rect x="122.4" y="193.1" class="st21" width="2.8" height="2.8"/>
			<rect x="122.4" y="190.3" class="st21" width="2.8" height="2.8"/>
			<rect x="122.4" y="187.5" class="st21" width="2.8" height="2.8"/>
			<rect x="122.4" y="184.7" class="st21" width="2.8" height="2.8"/>
			<rect x="122.4" y="181.9" class="st21" width="2.8" height="2.8"/>
			<rect x="122.4" y="179.1" class="st21" width="2.8" height="2.8"/>
			<rect x="125.2" y="201.5" class="st21" width="2.8" height="2.8"/>
			<rect x="125.2" y="198.7" class="st21" width="2.8" height="2.8"/>
			<rect x="125.2" y="195.9" class="st21" width="2.8" height="2.8"/>
			<rect x="125.2" y="193.1" class="st21" width="2.8" height="2.8"/>
			<rect x="125.2" y="190.3" class="st21" width="2.8" height="2.8"/>
			<rect x="125.2" y="187.5" class="st21" width="2.8" height="2.8"/>
			<rect x="125.2" y="184.7" class="st21" width="2.8" height="2.8"/>
			<rect x="125.2" y="181.9" class="st21" width="2.8" height="2.8"/>
			<rect x="125.2" y="179.1" class="st21" width="2.8" height="2.8"/>
			<rect x="128" y="201.5" class="st21" width="2.8" height="2.8"/>
			<rect x="128" y="198.7" class="st21" width="2.8" height="2.8"/>
			<rect x="128" y="195.9" class="st21" width="2.8" height="2.8"/>
			<rect x="128" y="193.1" class="st21" width="2.8" height="2.8"/>
			<rect x="128" y="190.3" class="st21" width="2.8" height="2.8"/>
			<rect x="128" y="187.5" class="st21" width="2.8" height="2.8"/>
			<rect x="128" y="184.7" class="st21" width="2.8" height="2.8"/>
			<rect x="128" y="181.9" class="st21" width="2.8" height="2.8"/>
			<rect x="128" y="179.1" class="st21" width="2.8" height="2.8"/>
			<rect x="130.8" y="201.5" class="st21" width="2.8" height="2.8"/>
			<rect x="130.8" y="198.7" class="st21" width="2.8" height="2.8"/>
			<rect x="130.8" y="195.9" class="st21" width="2.8" height="2.8"/>
			<rect x="130.8" y="193.1" class="st21" width="2.8" height="2.8"/>
			<rect x="130.8" y="190.3" class="st21" width="2.8" height="2.8"/>
			<rect x="130.8" y="187.5" class="st21" width="2.8" height="2.8"/>
			<rect x="130.8" y="184.7" class="st21" width="2.8" height="2.8"/>
			<rect x="130.8" y="181.9" class="st21" width="2.8" height="2.8"/>
			<rect x="130.8" y="179.1" class="st21" width="2.8" height="2.8"/>
			<rect x="133.6" y="201.5" class="st21" width="2.8" height="2.8"/>
			<rect x="133.6" y="198.7" class="st21" width="2.8" height="2.8"/>
			<rect x="133.6" y="195.9" class="st21" width="2.8" height="2.8"/>
			<rect x="133.6" y="193.1" class="st21" width="2.8" height="2.8"/>
			<rect x="133.6" y="190.3" class="st21" width="2.8" height="2.8"/>
			<rect x="133.6" y="187.5" class="st21" width="2.8" height="2.8"/>
			<rect x="133.6" y="184.7" class="st21" width="2.8" height="2.8"/>
			<rect x="133.6" y="181.9" class="st21" width="2.8" height="2.8"/>
			<rect x="133.6" y="179.1" class="st21" width="2.8" height="2.8"/>
			<rect x="136.3" y="201.5" class="st21" width="2.8" height="2.8"/>
			<rect x="136.3" y="198.7" class="st21" width="2.8" height="2.8"/>
			<rect x="136.3" y="195.9" class="st21" width="2.8" height="2.8"/>
			<rect x="136.3" y="193.1" class="st21" width="2.8" height="2.8"/>
			<rect x="136.3" y="190.3" class="st21" width="2.8" height="2.8"/>
			<rect x="136.3" y="187.5" class="st21" width="2.8" height="2.8"/>
			<rect x="136.3" y="184.7" class="st21" width="2.8" height="2.8"/>
			<rect x="136.3" y="181.9" class="st21" width="2.8" height="2.8"/>
			<rect x="136.3" y="179.1" class="st21" width="2.8" height="2.8"/>
			<rect x="139.1" y="201.5" class="st21" width="2.8" height="2.8"/>
			<rect x="139.1" y="198.7" class="st21" width="2.8" height="2.8"/>
			<rect x="139.1" y="195.9" class="st21" width="2.8" height="2.8"/>
			<rect x="139.1" y="193.1" class="st21" width="2.8" height="2.8"/>
			<rect x="139.1" y="190.3" class="st21" width="2.8" height="2.8"/>
			<rect x="139.1" y="187.5" class="st21" width="2.8" height="2.8"/>
			<rect x="139.1" y="184.7" class="st21" width="2.8" height="2.8"/>
			<rect x="139.1" y="181.9" class="st21" width="2.8" height="2.8"/>
			<rect x="139.1" y="179.1" class="st21" width="2.8" height="2.8"/>
			<rect x="141.9" y="201.5" class="st21" width="2.8" height="2.8"/>
			<rect x="141.9" y="198.7" class="st21" width="2.8" height="2.8"/>
			<rect x="141.9" y="195.9" class="st21" width="2.8" height="2.8"/>
			<rect x="141.9" y="193.1" class="st21" width="2.8" height="2.8"/>
			<rect x="141.9" y="190.3" class="st21" width="2.8" height="2.8"/>
			<rect x="141.9" y="187.5" class="st21" width="2.8" height="2.8"/>
			<rect x="141.9" y="184.7" class="st21" width="2.8" height="2.8"/>
			<rect x="141.9" y="181.9" class="st21" width="2.8" height="2.8"/>
			<rect x="141.9" y="179.1" class="st21" width="2.8" height="2.8"/>
			<rect x="144.7" y="201.5" class="st21" width="2.8" height="2.8"/>
			<rect x="144.7" y="198.7" class="st21" width="2.8" height="2.8"/>
			<rect x="144.7" y="195.9" class="st21" width="2.8" height="2.8"/>
			<rect x="144.7" y="193.1" class="st21" width="2.8" height="2.8"/>
			<rect x="144.7" y="190.3" class="st21" width="2.8" height="2.8"/>
			<rect x="144.7" y="187.5" class="st21" width="2.8" height="2.8"/>
			<rect x="144.7" y="184.7" class="st21" width="2.8" height="2.8"/>
			<rect x="144.7" y="181.9" class="st21" width="2.8" height="2.8"/>
			<rect x="144.7" y="179.1" class="st21" width="2.8" height="2.8"/>
			<rect x="147.5" y="201.5" class="st21" width="2.8" height="2.8"/>
			<rect x="147.5" y="198.7" class="st21" width="2.8" height="2.8"/>
			<rect x="147.5" y="195.9" class="st21" width="2.8" height="2.8"/>
			<rect x="147.5" y="193.1" class="st21" width="2.8" height="2.8"/>
			<rect x="147.5" y="190.3" class="st21" width="2.8" height="2.8"/>
			<rect x="147.5" y="187.5" class="st21" width="2.8" height="2.8"/>
			<rect x="147.5" y="184.7" class="st21" width="2.8" height="2.8"/>
			<rect x="147.5" y="181.9" class="st21" width="2.8" height="2.8"/>
			<rect x="147.5" y="179.1" class="st21" width="2.8" height="2.8"/>
			<rect x="150.3" y="201.5" class="st21" width="2.8" height="2.8"/>
			<rect x="150.3" y="198.7" class="st21" width="2.8" height="2.8"/>
			<rect x="150.3" y="195.9" class="st21" width="2.8" height="2.8"/>
			<rect x="150.3" y="193.1" class="st21" width="2.8" height="2.8"/>
			<rect x="150.3" y="190.3" class="st21" width="2.8" height="2.8"/>
			<rect x="150.3" y="187.5" class="st21" width="2.8" height="2.8"/>
			<rect x="150.3" y="184.7" class="st21" width="2.8" height="2.8"/>
			<rect x="150.3" y="181.9" class="st21" width="2.8" height="2.8"/>
			<rect x="150.3" y="179.1" class="st21" width="2.8" height="2.8"/>
			<rect x="153.1" y="201.5" class="st21" width="2.8" height="2.8"/>
			<rect x="153.1" y="198.7" class="st21" width="2.8" height="2.8"/>
			<rect x="153.1" y="195.9" class="st21" width="2.8" height="2.8"/>
			<rect x="153.1" y="193.1" class="st21" width="2.8" height="2.8"/>
			<rect x="153.1" y="190.3" class="st21" width="2.8" height="2.8"/>
			<rect x="153.1" y="187.5" class="st21" width="2.8" height="2.8"/>
			<rect x="153.1" y="184.7" class="st21" width="2.8" height="2.8"/>
			<rect x="153.1" y="181.9" class="st21" width="2.8" height="2.8"/>
			<rect x="153.1" y="179.1" class="st21" width="2.8" height="2.8"/>
			<rect x="155.9" y="201.5" class="st21" width="2.8" height="2.8"/>
			<rect x="155.9" y="198.7" class="st21" width="2.8" height="2.8"/>
			<rect x="155.9" y="195.9" class="st21" width="2.8" height="2.8"/>
			<rect x="155.9" y="193.1" class="st21" width="2.8" height="2.8"/>
			<rect x="155.9" y="190.3" class="st21" width="2.8" height="2.8"/>
			<rect x="155.9" y="187.5" class="st21" width="2.8" height="2.8"/>
			<rect x="155.9" y="184.7" class="st21" width="2.8" height="2.8"/>
			<rect x="155.9" y="181.9" class="st21" width="2.8" height="2.8"/>
			<rect x="155.9" y="179.1" class="st21" width="2.8" height="2.8"/>
			<rect x="158.7" y="201.5" class="st21" width="2.8" height="2.8"/>
			<rect x="158.7" y="198.7" class="st21" width="2.8" height="2.8"/>
			<rect x="158.7" y="195.9" class="st21" width="2.8" height="2.8"/>
			<rect x="158.7" y="193.1" class="st21" width="2.8" height="2.8"/>
			<rect x="158.7" y="190.3" class="st21" width="2.8" height="2.8"/>
			<rect x="158.7" y="187.5" class="st21" width="2.8" height="2.8"/>
			<rect x="158.7" y="184.7" class="st21" width="2.8" height="2.8"/>
			<rect x="158.7" y="181.9" class="st21" width="2.8" height="2.8"/>
			<rect x="158.7" y="179.1" class="st21" width="2.8" height="2.8"/>
			<rect x="161.5" y="201.5" class="st21" width="2.8" height="2.8"/>
			<rect x="161.5" y="198.7" class="st21" width="2.8" height="2.8"/>
			<rect x="161.5" y="195.9" class="st21" width="2.8" height="2.8"/>
			<rect x="161.5" y="193.1" class="st21" width="2.8" height="2.8"/>
			<rect x="161.5" y="190.3" class="st21" width="2.8" height="2.8"/>
			<rect x="161.5" y="187.5" class="st21" width="2.8" height="2.8"/>
			<rect x="161.5" y="184.7" class="st21" width="2.8" height="2.8"/>
			<rect x="161.5" y="181.9" class="st21" width="2.8" height="2.8"/>
			<rect x="161.5" y="179.1" class="st21" width="2.8" height="2.8"/>
			<rect x="164.3" y="201.5" class="st21" width="2.8" height="2.8"/>
			<rect x="164.3" y="198.7" class="st21" width="2.8" height="2.8"/>
			<rect x="164.3" y="195.9" class="st21" width="2.8" height="2.8"/>
			<rect x="164.3" y="193.1" class="st21" width="2.8" height="2.8"/>
			<rect x="164.3" y="190.3" class="st21" width="2.8" height="2.8"/>
			<rect x="164.3" y="187.5" class="st21" width="2.8" height="2.8"/>
			<rect x="164.3" y="184.7" class="st21" width="2.8" height="2.8"/>
			<rect x="164.3" y="181.9" class="st21" width="2.8" height="2.8"/>
			<rect x="164.3" y="179.1" class="st21" width="2.8" height="2.8"/>
			<rect x="167.1" y="201.5" class="st21" width="2.8" height="2.8"/>
			<rect x="167.1" y="198.7" class="st21" width="2.8" height="2.8"/>
			<rect x="167.1" y="195.9" class="st21" width="2.8" height="2.8"/>
			<rect x="167.1" y="193.1" class="st21" width="2.8" height="2.8"/>
			<rect x="167.1" y="190.3" class="st21" width="2.8" height="2.8"/>
			<rect x="167.1" y="187.5" class="st21" width="2.8" height="2.8"/>
			<rect x="167.1" y="184.7" class="st21" width="2.8" height="2.8"/>
			<rect x="167.1" y="181.9" class="st21" width="2.8" height="2.8"/>
			<rect x="167.1" y="179.1" class="st21" width="2.8" height="2.8"/>
			<rect x="169.9" y="201.5" class="st21" width="2.8" height="2.8"/>
			<rect x="169.9" y="198.7" class="st21" width="2.8" height="2.8"/>
			<rect x="169.9" y="195.9" class="st21" width="2.8" height="2.8"/>
			<rect x="169.9" y="193.1" class="st21" width="2.8" height="2.8"/>
			<rect x="169.9" y="190.3" class="st21" width="2.8" height="2.8"/>
			<rect x="169.9" y="187.5" class="st21" width="2.8" height="2.8"/>
			<rect x="169.9" y="184.7" class="st21" width="2.8" height="2.8"/>
			<rect x="169.9" y="181.9" class="st21" width="2.8" height="2.8"/>
			<rect x="169.9" y="179.1" class="st21" width="2.8" height="2.8"/>
		</g>
		<polygon class="st13" points="181.3,102.1 181.3,127.1 118,102.1 		"/>
		<polygon class="st13" points="155.3,249 71.8,249 71.8,226.7 		"/>
		<polygon class="st15" points="134.8,102.1 131.3,102.2 181.3,144.7 181.3,113 		"/>
		<polygon class="st15" points="71.8,246 181.3,231.8 181.3,249 71.8,249 		"/>
		<rect x="86.4" y="209.3" class="st14" width="3.6" height="1.8"/>
		<rect x="93.2" y="209.3" class="st14" width="9.3" height="1.8"/>
		<rect x="80.5" y="216.3" class="st14" width="6" height="1.8"/>
		<rect x="80.5" y="221.7" class="st14" width="4.2" height="1.8"/>
		<rect x="106.2" y="221.7" class="st14" width="4.2" height="1.8"/>
		<rect x="114.4" y="221.7" class="st14" width="8" height="1.8"/>
		<rect x="90.9" y="216.3" class="st14" width="10.3" height="1.8"/>
		<rect x="105.8" y="216.3" class="st14" width="2.7" height="1.8"/>
		<rect x="142.1" y="216.3" class="st14" width="2.7" height="1.8"/>
		<rect x="113" y="216.3" class="st14" width="14.2" height="1.8"/>
		<rect x="161.6" y="231.5" class="st14" width="11.1" height="1.8"/>
		<rect x="131.9" y="216.3" class="st14" width="5.8" height="1.8"/>
		<rect x="148.9" y="216.3" class="st14" width="9.5" height="1.8"/>
		<rect x="88.8" y="221.7" class="st14" width="13.1" height="1.8"/>
		<rect x="89.1" y="160.8" class="st14" width="17.5" height="3.6"/>
		<rect x="80.2" y="113" class="st14" width="17.5" height="3.6"/>
		<rect x="80.5" y="160.8" class="st14" width="4.2" height="3.6"/>
		<rect x="80.5" y="167.6" class="st14" width="12.1" height="1.8"/>
		<rect x="119.6" y="167.6" class="st14" width="8.4" height="1.8"/>
		<rect x="133.2" y="167.6" class="st14" width="3.2" height="1.8"/>
		<rect x="141.3" y="167.6" class="st14" width="16.7" height="1.8"/>
		<rect x="80.5" y="173" class="st14" width="4.2" height="1.8"/>
		<rect x="107.1" y="173" class="st14" width="4.2" height="1.8"/>
		<rect x="97" y="167.6" class="st14" width="4.2" height="1.8"/>
		<rect x="105.8" y="167.6" class="st14" width="8.7" height="1.8"/>
		<rect x="89.5" y="173" class="st14" width="13.1" height="1.8"/>
		<rect x="115.8" y="173" class="st14" width="7.9" height="1.8"/>
		<rect x="128.1" y="173" class="st14" width="4.4" height="1.8"/>
		<rect x="136.8" y="173" class="st14" width="10.9" height="1.8"/>
		<rect x="152.2" y="173" class="st14" width="20.3" height="1.8"/>
		<rect x="80.5" y="153" class="st8" width="5.9" height="3.1"/>
		<rect x="86.1" y="201.6" class="st8" width="2.8" height="2.6"/>
		<rect x="88.9" y="198.8" class="st22" width="2.8" height="5.5"/>
		<rect x="91.7" y="189.6" class="st11" width="2.8" height="14.6"/>
		<rect x="94.5" y="196.1" class="st23" width="2.8" height="8.2"/>
		<rect x="108.4" y="200.4" class="st8" width="2.8" height="3.8"/>
		<rect x="111.2" y="195.4" class="st22" width="2.8" height="8.8"/>
		<rect x="114" y="192.4" class="st11" width="2.8" height="11.8"/>
		<rect x="116.8" y="198.2" class="st23" width="2.8" height="6.1"/>
		<rect x="130.8" y="199.5" class="st8" width="2.8" height="4.7"/>
		<rect x="133.6" y="193.6" class="st22" width="2.8" height="10.6"/>
		<rect x="136.3" y="187.8" class="st11" width="2.8" height="16.4"/>
		<rect x="139.1" y="198.9" class="st23" width="2.8" height="5.3"/>
		<rect x="153.1" y="197.6" class="st24" width="2.8" height="6.6"/>
		<rect x="155.9" y="194.8" class="st22" width="2.8" height="9.5"/>
		<rect x="158.7" y="183.7" class="st11" width="2.8" height="20.6"/>
		<rect x="161.5" y="190.6" class="st23" width="2.8" height="13.7"/>
		<rect x="88.3" y="147.1" class="st8" width="5.9" height="9"/>
		<rect x="96.2" y="138.5" class="st11" width="5.9" height="17.7"/>
		<rect x="104" y="149.2" class="st8" width="5.9" height="7"/>
		<rect x="111.9" y="141.7" class="st11" width="5.9" height="14.5"/>
		<rect x="119.7" y="130.5" class="st11" width="5.9" height="25.7"/>
		<rect x="127.5" y="123.3" class="st11" width="5.9" height="32.8"/>
		<rect x="135.4" y="132.6" class="st11" width="5.9" height="23.5"/>
		<rect x="143.2" y="146.1" class="st24" width="5.9" height="10"/>
		<rect x="151" y="153" class="st24" width="5.9" height="3.1"/>
		<rect x="158.9" y="138.5" class="st11" width="5.9" height="17.7"/>
		<rect x="166.7" y="153" class="st24" width="5.9" height="3.1"/>
		<g>
			<rect x="80.5" y="204" class="st24" width="92.2" height="0.5"/>
		</g>
		<g>
			<rect x="80.5" y="155.9" class="st24" width="92.2" height="0.5"/>
		</g>
		<rect x="80.2" y="120.2" class="st14" width="3.2" height="1.8"/>
		<rect x="87.2" y="120.2" class="st14" width="8.4" height="1.8"/>
		<rect x="99.3" y="120.2" class="st14" width="5.5" height="1.8"/>
		<path class="st8" d="M83.3,209.7c0-0.8-0.6-1.4-1.4-1.4c-0.8,0-1.4,0.6-1.4,1.4c0,0.8,0.6,1.4,1.4,1.4
			C82.7,211.1,83.3,210.5,83.3,209.7z"/>
		<rect x="113.3" y="209.3" class="st14" width="7.7" height="1.8"/>
		<rect x="131.4" y="209.3" class="st14" width="15.5" height="1.8"/>
		<path class="st22" d="M110.2,209.7c0-0.8-0.6-1.4-1.4-1.4c-0.8,0-1.4,0.6-1.4,1.4c0,0.8,0.6,1.4,1.4,1.4
			C109.5,211.1,110.2,210.5,110.2,209.7z"/>
		<path class="st11" d="M128,209.7c0-0.8-0.6-1.4-1.4-1.4c-0.8,0-1.4,0.6-1.4,1.4c0,0.8,0.6,1.4,1.4,1.4
			C127.4,211.1,128,210.5,128,209.7z"/>
		<rect x="157.3" y="209.3" class="st14" width="2.2" height="1.8"/>
		<rect x="162.3" y="209.3" class="st14" width="9.6" height="1.8"/>
		<path class="st23" d="M153.9,209.7c0-0.8-0.6-1.4-1.4-1.4c-0.8,0-1.4,0.6-1.4,1.4c0,0.8,0.6,1.4,1.4,1.4
			C153.3,211.1,153.9,210.5,153.9,209.7z"/>
	</g>
	<g>
		<g>
			<path class="st25" d="M338,82.5h-72.1l-4.8,29.9c0,4.5,3.7,8.2,8.2,8.2h65.1c4.5,0,8.2-3.7,8.2-8.2L338,82.5z"/>
			<path class="st26" d="M337.6,82.2h-72.1l-4.8,29.9c0,4.5,3.7,8.2,8.2,8.2h65.1c4.5,0,8.2-3.7,8.2-8.2L337.6,82.2z"/>
			<path class="st27" d="M337.1,82h-72.1l-4.8,29.9c0,4.5,3.7,8.2,8.2,8.2h65.1c4.5,0,8.2-3.7,8.2-8.2L337.1,82z"/>
			<path class="st28" d="M336.7,81.8h-72.1l-4.8,29.9c0,4.5,3.7,8.2,8.2,8.2h65.1c4.5,0,8.2-3.7,8.2-8.2L336.7,81.8z"/>
			<path class="st29" d="M336.3,81.6h-72.1l-4.8,29.9c0,4.5,3.7,8.2,8.2,8.2h65.1c4.5,0,8.2-3.7,8.2-8.2L336.3,81.6z"/>
			<path class="st30" d="M335.9,81.3h-72.1l-4.8,29.9c0,4.5,3.7,8.2,8.2,8.2h65.1c4.5,0,8.2-3.7,8.2-8.2L335.9,81.3z"/>
			<path class="st31" d="M335.4,81.1h-72.1l-4.8,29.9c0,4.5,3.7,8.2,8.2,8.2H332c4.5,0,8.2-3.7,8.2-8.2L335.4,81.1z"/>
			<path class="st32" d="M335,80.9h-72.1l-4.8,29.9c0,4.5,3.7,8.2,8.2,8.2h65.1c4.5,0,8.2-3.7,8.2-8.2L335,80.9z"/>
			<path class="st33" d="M334.6,80.7h-72.1l-4.8,29.9c0,4.5,3.7,8.2,8.2,8.2h65.1c4.5,0,8.2-3.7,8.2-8.2L334.6,80.7z"/>
			<path class="st34" d="M334.1,80.4h-72.1l-4.8,29.9c0,4.5,3.7,8.2,8.2,8.2h65.1c4.5,0,8.2-3.7,8.2-8.2L334.1,80.4z"/>
			<path class="st35" d="M333.7,80.2h-72.1l-4.8,29.9c0,4.5,3.7,8.2,8.2,8.2h65.1c4.5,0,8.2-3.7,8.2-8.2L333.7,80.2z"/>
			<path class="st36" d="M333.3,80h-72.1l-4.8,29.9c0,4.5,3.7,8.2,8.2,8.2h65.1c4.5,0,8.2-3.7,8.2-8.2L333.3,80z"/>
			<path class="st37" d="M332.9,79.7h-72.1l-4.8,29.9c0,4.5,3.7,8.2,8.2,8.2h65.1c4.5,0,8.2-3.7,8.2-8.2L332.9,79.7z"/>
			<path class="st38" d="M332.4,79.5h-72.1l-4.8,29.9c0,4.5,3.7,8.2,8.2,8.2H329c4.5,0,8.2-3.7,8.2-8.2L332.4,79.5z"/>
			<path class="st39" d="M332,79.3h-72.1l-4.8,29.9c0,4.5,3.7,8.2,8.2,8.2h65.1c4.5,0,8.2-3.7,8.2-8.2L332,79.3z"/>
			<path class="st40" d="M331.6,79.1h-72.1l-4.8,29.9c0,4.5,3.7,8.2,8.2,8.2h65.1c4.5,0,8.2-3.7,8.2-8.2L331.6,79.1z"/>
			<path class="st41" d="M331.1,78.8h-72.1l-4.8,29.9c0,4.5,3.7,8.2,8.2,8.2h65.1c4.5,0,8.2-3.7,8.2-8.2L331.1,78.8z"/>
			<path class="st42" d="M330.7,78.6h-72.1l-4.8,29.9c0,4.5,3.7,8.2,8.2,8.2h65.1c4.5,0,8.2-3.7,8.2-8.2L330.7,78.6z"/>
			<path class="st43" d="M330.3,78.4h-72.1l-4.8,29.9c0,4.5,3.7,8.2,8.2,8.2h65.1c4.5,0,8.2-3.7,8.2-8.2L330.3,78.4z"/>
			<path class="st44" d="M329.9,78.2h-72.1L253,108c0,4.5,3.7,8.2,8.2,8.2h65.1c4.5,0,8.2-3.7,8.2-8.2L329.9,78.2z"/>
			<path class="st45" d="M329.4,77.9h-72.1l-4.8,29.9c0,4.5,3.7,8.2,8.2,8.2H326c4.5,0,8.2-3.7,8.2-8.2L329.4,77.9z"/>
			<path class="st46" d="M329,77.7h-72.1l-4.8,29.9c0,4.5,3.7,8.2,8.2,8.2h65.1c4.5,0,8.2-3.7,8.2-8.2L329,77.7z"/>
			<path class="st47" d="M328.6,77.5h-72.1l-4.8,29.9c0,4.5,3.7,8.2,8.2,8.2h65.1c4.5,0,8.2-3.7,8.2-8.2L328.6,77.5z"/>
			<path class="st48" d="M328.1,77.3h-72.1l-4.8,29.9c0,4.5,3.7,8.2,8.2,8.2h65.1c4.5,0,8.2-3.7,8.2-8.2L328.1,77.3z"/>
			<path class="st49" d="M327.7,77h-72.1l-4.8,29.9c0,4.5,3.7,8.2,8.2,8.2h65.1c4.5,0,8.2-3.7,8.2-8.2L327.7,77z"/>
			<path class="st50" d="M327.3,76.8h-72.1l-4.8,29.9c0,4.5,3.7,8.2,8.2,8.2h65.1c4.5,0,8.2-3.7,8.2-8.2L327.3,76.8z"/>
			<path class="st51" d="M326.9,76.6h-72.1l-4.8,29.9c0,4.5,3.7,8.2,8.2,8.2h65.1c4.5,0,8.2-3.7,8.2-8.2L326.9,76.6z"/>
			<path class="st52" d="M326.4,76.4h-72.1l-4.8,29.9c0,4.5,3.7,8.2,8.2,8.2H323c4.5,0,8.2-3.7,8.2-8.2L326.4,76.4z"/>
			<path class="st53" d="M326,76.1h-72.1l-4.8,29.9c0,4.5,3.7,8.2,8.2,8.2h65.1c4.5,0,8.2-3.7,8.2-8.2L326,76.1z"/>
			<path class="st54" d="M325.6,75.9h-72.1l-4.8,29.9c0,4.5,3.7,8.2,8.2,8.2h65.1c4.5,0,8.2-3.7,8.2-8.2L325.6,75.9z"/>
			<path class="st55" d="M325.2,75.7h-72.1l-4.8,29.9c0,4.5,3.7,8.2,8.2,8.2h65.1c4.5,0,8.2-3.7,8.2-8.2L325.2,75.7z"/>
			<path class="st56" d="M324.7,75.4h-72.1l-4.8,29.9c0,4.5,3.7,8.2,8.2,8.2h65.1c4.5,0,8.2-3.7,8.2-8.2L324.7,75.4z"/>
		</g>
		<path class="st57" d="M391.6,59H213.9c-1.7,0-3.2-0.8-4.1-2.2L184.1,8.3c-2.1-3.3,0.2-7.6,4.1-7.6H417c3.9,0,6.3,4.4,4.1,7.6
			l-25.4,48.5C394.8,58.1,393.2,59,391.6,59z"/>
		<path class="st58" d="M389.4,53.2H215.9l-20.5-45c-0.3-0.6,0.2-1.2,0.8-1.2h213c0.6,0,1,0.6,0.8,1.2L389.4,53.2z"/>
		<path class="st59" d="M254.2,7l44.7,46.2h90.4L410,8c0.2-0.5-0.1-1-0.7-1H254.2z"/>
		<path class="st60" d="M209.8,64.2v110.5c0,2.9,1.8,5.2,4,5.2h178c2.2,0,4-2.3,4-5.2V64.2c0-2.9-1.8-5.2-4-5.2h-178
			C211.6,59,209.8,61.3,209.8,64.2z"/>
		<defs>
			<filter id="Adobe_OpacityMaskFilter" filterUnits="userSpaceOnUse" x="209.8" y="59" width="185.9" height="121">
				<feFlood  style="flood-color:white;flood-opacity:1" result="back"/>
				<feBlend  in="SourceGraphic" in2="back" mode="normal"/>
			</filter>
		</defs>
		<mask maskUnits="userSpaceOnUse" x="209.8" y="59" width="185.9" height="121" id="SVGID_1_">
			<g class="st61">
				<defs>
					<filter id="Adobe_OpacityMaskFilter_1_" filterUnits="userSpaceOnUse" x="209.8" y="59" width="185.9" height="121">
						<feFlood  style="flood-color:white;flood-opacity:1" result="back"/>
						<feBlend  in="SourceGraphic" in2="back" mode="normal"/>
					</filter>
				</defs>
				<mask maskUnits="userSpaceOnUse" x="209.8" y="59" width="185.9" height="121" id="SVGID_1_">
				</mask>
				<linearGradient id="SVGID_2_" gradientUnits="userSpaceOnUse" x1="209.7672" y1="119.4743" x2="395.7148" y2="119.4743">
					<stop  offset="0" style="stop-color:#808080"/>
					<stop  offset="0.3632" style="stop-color:#404040"/>
					<stop  offset="0.7459" style="stop-color:#000000"/>
				</linearGradient>
				<path class="st63" d="M209.8,64.2v110.5c0,2.9,1.8,5.2,4,5.2h178c2.2,0,4-2.3,4-5.2V64.2c0-2.9-1.8-5.2-4-5.2h-178
					C211.6,59,209.8,61.3,209.8,64.2z"/>
			</g>
		</mask>
		<linearGradient id="SVGID_3_" gradientUnits="userSpaceOnUse" x1="209.7672" y1="119.4743" x2="395.7148" y2="119.4743">
			<stop  offset="0" style="stop-color:#F7F7F7"/>
			<stop  offset="0.7459" style="stop-color:#F7F7F7"/>
		</linearGradient>
		<path class="st64" d="M209.8,64.2v110.5c0,2.9,1.8,5.2,4,5.2h178c2.2,0,4-2.3,4-5.2V64.2c0-2.9-1.8-5.2-4-5.2h-178
			C211.6,59,209.8,61.3,209.8,64.2z"/>
		<path class="st65" d="M221.4,137h163.1c1.6,0,2.9-1.3,2.9-2.9V74.6c0-1.6-1.3-2.9-2.9-2.9H221.4c-1.6,0-2.9,1.3-2.9,2.9V134
			C218.5,135.6,219.8,137,221.4,137z"/>
		<path class="st57" d="M372.6,59H232.7v5.5c0,0.4,0.3,0.7,0.7,0.7h138.6c0.4,0,0.7-0.3,0.7-0.7V59z"/>
		<g>
			<path class="st66" d="M223.6,79.4h8c0.5,0,0.9-0.4,0.9-0.9v-2.1c0-0.5-0.4-0.9-0.9-0.9h-8c-0.5,0-0.9,0.4-0.9,0.9v2.1
				C222.7,79,223.1,79.4,223.6,79.4z"/>
			<path class="st66" d="M235.4,79.4h8c0.5,0,0.9-0.4,0.9-0.9v-2.1c0-0.5-0.4-0.9-0.9-0.9h-8c-0.5,0-0.9,0.4-0.9,0.9v2.1
				C234.4,79,234.8,79.4,235.4,79.4z"/>
			<path class="st66" d="M247.1,79.4h8c0.5,0,0.9-0.4,0.9-0.9v-2.1c0-0.5-0.4-0.9-0.9-0.9h-8c-0.5,0-0.9,0.4-0.9,0.9v2.1
				C246.1,79,246.5,79.4,247.1,79.4z"/>
			<path class="st66" d="M258.8,79.4h8c0.5,0,0.9-0.4,0.9-0.9v-2.1c0-0.5-0.4-0.9-0.9-0.9h-8c-0.5,0-0.9,0.4-0.9,0.9v2.1
				C257.8,79,258.2,79.4,258.8,79.4z"/>
			<path class="st66" d="M270.5,79.4h8c0.5,0,0.9-0.4,0.9-0.9v-2.1c0-0.5-0.4-0.9-0.9-0.9h-8c-0.5,0-0.9,0.4-0.9,0.9v2.1
				C269.5,79,269.9,79.4,270.5,79.4z"/>
			<path class="st66" d="M282.2,79.4h8c0.5,0,0.9-0.4,0.9-0.9v-2.1c0-0.5-0.4-0.9-0.9-0.9h-8c-0.5,0-0.9,0.4-0.9,0.9v2.1
				C281.2,79,281.6,79.4,282.2,79.4z"/>
			<path class="st66" d="M293.9,79.4h8c0.5,0,0.9-0.4,0.9-0.9v-2.1c0-0.5-0.4-0.9-0.9-0.9h-8c-0.5,0-0.9,0.4-0.9,0.9v2.1
				C292.9,79,293.4,79.4,293.9,79.4z"/>
			<path class="st66" d="M305.6,79.4h8c0.5,0,0.9-0.4,0.9-0.9v-2.1c0-0.5-0.4-0.9-0.9-0.9h-8c-0.5,0-0.9,0.4-0.9,0.9v2.1
				C304.6,79,305.1,79.4,305.6,79.4z"/>
			<path class="st66" d="M317.3,79.4h8c0.5,0,0.9-0.4,0.9-0.9v-2.1c0-0.5-0.4-0.9-0.9-0.9h-8c-0.5,0-0.9,0.4-0.9,0.9v2.1
				C316.3,79,316.8,79.4,317.3,79.4z"/>
			<path class="st66" d="M329,79.4h8c0.5,0,0.9-0.4,0.9-0.9v-2.1c0-0.5-0.4-0.9-0.9-0.9h-8c-0.5,0-0.9,0.4-0.9,0.9v2.1
				C328,79,328.5,79.4,329,79.4z"/>
			<path class="st66" d="M340.7,79.4h8c0.5,0,0.9-0.4,0.9-0.9v-2.1c0-0.5-0.4-0.9-0.9-0.9h-8c-0.5,0-0.9,0.4-0.9,0.9v2.1
				C339.7,79,340.2,79.4,340.7,79.4z"/>
			<path class="st66" d="M352.4,79.4h8c0.5,0,0.9-0.4,0.9-0.9v-2.1c0-0.5-0.4-0.9-0.9-0.9h-8c-0.5,0-0.9,0.4-0.9,0.9v2.1
				C351.5,79,351.9,79.4,352.4,79.4z"/>
			<path class="st66" d="M364.1,79.4h8c0.5,0,0.9-0.4,0.9-0.9v-2.1c0-0.5-0.4-0.9-0.9-0.9h-8c-0.5,0-0.9,0.4-0.9,0.9v2.1
				C363.2,79,363.6,79.4,364.1,79.4z"/>
			<path class="st66" d="M383.8,75.5h-8c-0.5,0-0.9,0.4-0.9,0.9v2.1c0,0.5,0.4,0.9,0.9,0.9h8c0.5,0,0.9-0.4,0.9-0.9v-2.1
				C384.7,75.9,384.3,75.5,383.8,75.5z"/>
			<path class="st66" d="M224.1,90.4h6.2c0.8,0,1.4-0.6,1.4-1.4v-6.2c0-0.8-0.6-1.4-1.4-1.4h-6.2c-0.8,0-1.4,0.6-1.4,1.4V89
				C222.7,89.8,223.3,90.4,224.1,90.4z"/>
			<path class="st66" d="M234.5,90.4h6.2c0.8,0,1.4-0.6,1.4-1.4v-6.2c0-0.8-0.6-1.4-1.4-1.4h-6.2c-0.8,0-1.4,0.6-1.4,1.4V89
				C233.1,89.8,233.7,90.4,234.5,90.4z"/>
			<path class="st66" d="M243.4,82.7V89c0,0.8,0.6,1.4,1.4,1.4h6.2c0.8,0,1.4-0.6,1.4-1.4v-6.2c0-0.8-0.6-1.4-1.4-1.4h-6.2
				C244,81.3,243.4,82,243.4,82.7z"/>
			<path class="st66" d="M261.4,90.4c0.8,0,1.4-0.6,1.4-1.4v-6.2c0-0.8-0.6-1.4-1.4-1.4h-6.2c-0.8,0-1.4,0.6-1.4,1.4V89
				c0,0.8,0.6,1.4,1.4,1.4H261.4z"/>
			<path class="st66" d="M273.1,89v-6.2c0-0.8-0.6-1.4-1.4-1.4h-6.2c-0.8,0-1.4,0.6-1.4,1.4V89c0,0.8,0.6,1.4,1.4,1.4h6.2
				C272.5,90.4,273.1,89.8,273.1,89z"/>
			<path class="st66" d="M282.1,81.3h-6.2c-0.8,0-1.4,0.6-1.4,1.4V89c0,0.8,0.6,1.4,1.4,1.4h6.2c0.8,0,1.4-0.6,1.4-1.4v-6.2
				C283.5,82,282.8,81.3,282.1,81.3z"/>
			<path class="st66" d="M284.8,82.7V89c0,0.8,0.6,1.4,1.4,1.4h6.2c0.8,0,1.4-0.6,1.4-1.4v-6.2c0-0.8-0.6-1.4-1.4-1.4h-6.2
				C285.4,81.3,284.8,82,284.8,82.7z"/>
			<path class="st66" d="M296.5,81.3c-0.8,0-1.4,0.6-1.4,1.4V89c0,0.8,0.6,1.4,1.4,1.4h6.2c0.8,0,1.4-0.6,1.4-1.4v-6.2
				c0-0.8-0.6-1.4-1.4-1.4H296.5z"/>
			<path class="st66" d="M313.1,90.4c0.8,0,1.4-0.6,1.4-1.4v-6.2c0-0.8-0.6-1.4-1.4-1.4h-6.2c-0.8,0-1.4,0.6-1.4,1.4V89
				c0,0.8,0.6,1.4,1.4,1.4H313.1z"/>
			<path class="st66" d="M317.2,90.4h6.2c0.8,0,1.4-0.6,1.4-1.4v-6.2c0-0.8-0.6-1.4-1.4-1.4h-6.2c-0.8,0-1.4,0.6-1.4,1.4V89
				C315.8,89.8,316.4,90.4,317.2,90.4z"/>
			<path class="st66" d="M326.1,89c0,0.8,0.6,1.4,1.4,1.4h6.2c0.8,0,1.4-0.6,1.4-1.4v-6.2c0-0.8-0.6-1.4-1.4-1.4h-6.2
				c-0.8,0-1.4,0.6-1.4,1.4V89z"/>
			<path class="st66" d="M344.1,90.4c0.8,0,1.4-0.6,1.4-1.4v-6.2c0-0.8-0.6-1.4-1.4-1.4h-6.2c-0.8,0-1.4,0.6-1.4,1.4V89
				c0,0.8,0.6,1.4,1.4,1.4H344.1z"/>
			<path class="st66" d="M354.4,90.4c0.8,0,1.4-0.6,1.4-1.4v-6.2c0-0.8-0.6-1.4-1.4-1.4h-6.2c-0.8,0-1.4,0.6-1.4,1.4V89
				c0,0.8,0.6,1.4,1.4,1.4H354.4z"/>
			<path class="st66" d="M364.8,90.4c0.8,0,1.4-0.6,1.4-1.4v-6.2c0-0.8-0.6-1.4-1.4-1.4h-6.2c-0.8,0-1.4,0.6-1.4,1.4V89
				c0,0.8,0.6,1.4,1.4,1.4H364.8z"/>
			<path class="st66" d="M383.3,81.3h-14.5c-0.8,0-1.4,0.6-1.4,1.4V89c0,0.8,0.6,1.4,1.4,1.4h14.5c0.8,0,1.4-0.6,1.4-1.4v-6.2
				C384.7,82,384.1,81.3,383.3,81.3z"/>
			<path class="st66" d="M383.3,92.3h-6.2c-0.8,0-1.4,0.6-1.4,1.4v6.2c0,0.8,0.6,1.4,1.4,1.4h6.2c0.8,0,1.4-0.6,1.4-1.4v-6.2
				C384.7,93,384.1,92.3,383.3,92.3z"/>
			<path class="st66" d="M373,101.4c0.8,0,1.4-0.6,1.4-1.4v-6.2c0-0.8-0.6-1.4-1.4-1.4h-6.2c-0.8,0-1.4,0.6-1.4,1.4v6.2
				c0,0.8,0.6,1.4,1.4,1.4H373z"/>
			<path class="st66" d="M362.6,101.4c0.8,0,1.4-0.6,1.4-1.4v-6.2c0-0.8-0.6-1.4-1.4-1.4h-6.2c-0.8,0-1.4,0.6-1.4,1.4v6.2
				c0,0.8,0.6,1.4,1.4,1.4H362.6z"/>
			<path class="st66" d="M352.3,101.4c0.8,0,1.4-0.6,1.4-1.4v-6.2c0-0.8-0.6-1.4-1.4-1.4h-6.2c-0.8,0-1.4,0.6-1.4,1.4v6.2
				c0,0.8,0.6,1.4,1.4,1.4H352.3z"/>
			<path class="st66" d="M334.3,93.7v6.2c0,0.8,0.6,1.4,1.4,1.4h6.2c0.8,0,1.4-0.6,1.4-1.4v-6.2c0-0.8-0.6-1.4-1.4-1.4h-6.2
				C334.9,92.3,334.3,93,334.3,93.7z"/>
			<path class="st66" d="M331.6,101.4c0.8,0,1.4-0.6,1.4-1.4v-6.2c0-0.8-0.6-1.4-1.4-1.4h-6.2c-0.8,0-1.4,0.6-1.4,1.4v6.2
				c0,0.8,0.6,1.4,1.4,1.4H331.6z"/>
			<path class="st66" d="M313.6,93.7v6.2c0,0.8,0.6,1.4,1.4,1.4h6.2c0.8,0,1.4-0.6,1.4-1.4v-6.2c0-0.8-0.6-1.4-1.4-1.4H315
				C314.3,92.3,313.6,93,313.6,93.7z"/>
			<path class="st66" d="M303.3,93.7v6.2c0,0.8,0.6,1.4,1.4,1.4h6.2c0.8,0,1.4-0.6,1.4-1.4v-6.2c0-0.8-0.6-1.4-1.4-1.4h-6.2
				C303.9,92.3,303.3,93,303.3,93.7z"/>
			<path class="st66" d="M300.6,101.4c0.8,0,1.4-0.6,1.4-1.4v-6.2c0-0.8-0.6-1.4-1.4-1.4h-6.2c-0.8,0-1.4,0.6-1.4,1.4v6.2
				c0,0.8,0.6,1.4,1.4,1.4H300.6z"/>
			<path class="st66" d="M282.6,93.7v6.2c0,0.8,0.6,1.4,1.4,1.4h6.2c0.8,0,1.4-0.6,1.4-1.4v-6.2c0-0.8-0.6-1.4-1.4-1.4H284
				C283.3,92.3,282.6,93,282.6,93.7z"/>
			<path class="st66" d="M273.7,101.4h6.2c0.8,0,1.4-0.6,1.4-1.4v-6.2c0-0.8-0.6-1.4-1.4-1.4h-6.2c-0.8,0-1.4,0.6-1.4,1.4v6.2
				C272.3,100.8,272.9,101.4,273.7,101.4z"/>
			<path class="st66" d="M269.6,101.4c0.8,0,1.4-0.6,1.4-1.4v-6.2c0-0.8-0.6-1.4-1.4-1.4h-6.2c-0.8,0-1.4,0.6-1.4,1.4v6.2
				c0,0.8,0.6,1.4,1.4,1.4H269.6z"/>
			<path class="st66" d="M251.6,93.7v6.2c0,0.8,0.6,1.4,1.4,1.4h6.2c0.8,0,1.4-0.6,1.4-1.4v-6.2c0-0.8-0.6-1.4-1.4-1.4H253
				C252.2,92.3,251.6,93,251.6,93.7z"/>
			<path class="st66" d="M242.7,92.3c-0.8,0-1.4,0.6-1.4,1.4v6.2c0,0.8,0.6,1.4,1.4,1.4h6.2c0.8,0,1.4-0.6,1.4-1.4v-6.2
				c0-0.8-0.6-1.4-1.4-1.4H242.7z"/>
			<path class="st66" d="M224.1,101.4h14.5c0.8,0,1.4-0.6,1.4-1.4v-6.2c0-0.8-0.6-1.4-1.4-1.4h-14.5c-0.8,0-1.4,0.6-1.4,1.4v6.2
				C222.7,100.8,223.3,101.4,224.1,101.4z"/>
			<path class="st66" d="M252.9,104.7c0-0.8-0.6-1.4-1.4-1.4h-6.2c-0.8,0-1.4,0.6-1.4,1.4v6.2c0,0.8,0.6,1.4,1.4,1.4h6.2
				c0.8,0,1.4-0.6,1.4-1.4V104.7z"/>
			<path class="st66" d="M255.6,112.4h6.2c0.8,0,1.4-0.6,1.4-1.4v-6.2c0-0.8-0.6-1.4-1.4-1.4h-6.2c-0.8,0-1.4,0.6-1.4,1.4v6.2
				C254.2,111.8,254.9,112.4,255.6,112.4z"/>
			<path class="st66" d="M273.6,104.7c0-0.8-0.6-1.4-1.4-1.4H266c-0.8,0-1.4,0.6-1.4,1.4v6.2c0,0.8,0.6,1.4,1.4,1.4h6.2
				c0.8,0,1.4-0.6,1.4-1.4V104.7z"/>
			<path class="st66" d="M283.9,111v-6.2c0-0.8-0.6-1.4-1.4-1.4h-6.2c-0.8,0-1.4,0.6-1.4,1.4v6.2c0,0.8,0.6,1.4,1.4,1.4h6.2
				C283.3,112.4,283.9,111.8,283.9,111z"/>
			<path class="st66" d="M294.3,111v-6.2c0-0.8-0.6-1.4-1.4-1.4h-6.2c-0.8,0-1.4,0.6-1.4,1.4v6.2c0,0.8,0.6,1.4,1.4,1.4h6.2
				C293.7,112.4,294.3,111.8,294.3,111z"/>
			<path class="st66" d="M304.6,111v-6.2c0-0.8-0.6-1.4-1.4-1.4H297c-0.8,0-1.4,0.6-1.4,1.4v6.2c0,0.8,0.6,1.4,1.4,1.4h6.2
				C304,112.4,304.6,111.8,304.6,111z"/>
			<path class="st66" d="M315,111v-6.2c0-0.8-0.6-1.4-1.4-1.4h-6.2c-0.8,0-1.4,0.6-1.4,1.4v6.2c0,0.8,0.6,1.4,1.4,1.4h6.2
				C314.3,112.4,315,111.8,315,111z"/>
			<path class="st66" d="M325.3,111v-6.2c0-0.8-0.6-1.4-1.4-1.4h-6.2c-0.8,0-1.4,0.6-1.4,1.4v6.2c0,0.8,0.6,1.4,1.4,1.4h6.2
				C324.7,112.4,325.3,111.8,325.3,111z"/>
			<path class="st66" d="M335.6,111v-6.2c0-0.8-0.6-1.4-1.4-1.4H328c-0.8,0-1.4,0.6-1.4,1.4v6.2c0,0.8,0.6,1.4,1.4,1.4h6.2
				C335,112.4,335.6,111.8,335.6,111z"/>
			<path class="st66" d="M346,111v-6.2c0-0.8-0.6-1.4-1.4-1.4h-6.2c-0.8,0-1.4,0.6-1.4,1.4v6.2c0,0.8,0.6,1.4,1.4,1.4h6.2
				C345.3,112.4,346,111.8,346,111z"/>
			<path class="st66" d="M348.7,112.4h6.2c0.8,0,1.4-0.6,1.4-1.4v-6.2c0-0.8-0.6-1.4-1.4-1.4h-6.2c-0.8,0-1.4,0.6-1.4,1.4v6.2
				C347.3,111.8,347.9,112.4,348.7,112.4z"/>
			<path class="st66" d="M359,112.4h6.2c0.8,0,1.4-0.6,1.4-1.4v-6.2c0-0.8-0.6-1.4-1.4-1.4H359c-0.8,0-1.4,0.6-1.4,1.4v6.2
				C357.6,111.8,358.2,112.4,359,112.4z"/>
			<path class="st66" d="M383.3,103.4h-14.5c-0.8,0-1.4,0.6-1.4,1.4v6.2c0,0.8,0.6,1.4,1.4,1.4h14.5c0.8,0,1.4-0.6,1.4-1.4v-6.2
				C384.7,104,384.1,103.4,383.3,103.4z"/>
			<path class="st66" d="M224.1,112.4h17.1c0.8,0,1.4-0.6,1.4-1.4v-6.2c0-0.8-0.6-1.4-1.4-1.4h-17.1c-0.8,0-1.4,0.6-1.4,1.4v6.2
				C222.7,111.8,223.3,112.4,224.1,112.4z"/>
			<path class="st66" d="M260.3,123.4c0.8,0,1.4-0.6,1.4-1.4v-6.2c0-0.8-0.6-1.4-1.4-1.4h-6.2c-0.8,0-1.4,0.6-1.4,1.4v6.2
				c0,0.8,0.6,1.4,1.4,1.4H260.3z"/>
			<path class="st66" d="M230.4,125.4h-6.2c-0.8,0-1.4,0.6-1.4,1.4v6.2c0,0.8,0.6,1.4,1.4,1.4h6.2c0.8,0,1.4-0.6,1.4-1.4v-6.2
				C231.8,126,231.1,125.4,230.4,125.4z"/>
			<path class="st66" d="M240.7,125.4h-6.2c-0.8,0-1.4,0.6-1.4,1.4v6.2c0,0.8,0.6,1.4,1.4,1.4h6.2c0.8,0,1.4-0.6,1.4-1.4v-6.2
				C242.1,126,241.5,125.4,240.7,125.4z"/>
			<path class="st66" d="M251,125.4h-6.2c-0.8,0-1.4,0.6-1.4,1.4v6.2c0,0.8,0.6,1.4,1.4,1.4h6.2c0.8,0,1.4-0.6,1.4-1.4v-6.2
				C252.4,126,251.8,125.4,251,125.4z"/>
			<path class="st66" d="M332.7,125.4h-57.9c-0.8,0-1.4,0.6-1.4,1.4v6.2c0,0.8,0.6,1.4,1.4,1.4h57.9c0.8,0,1.4-0.6,1.4-1.4v-6.2
				C334.1,126,333.5,125.4,332.7,125.4z"/>
			<path class="st66" d="M270.7,114.4h-6.2c-0.8,0-1.4,0.6-1.4,1.4v6.2c0,0.8,0.6,1.4,1.4,1.4h6.2c0.8,0,1.4-0.6,1.4-1.4v-6.2
				C272,115,271.4,114.4,270.7,114.4z"/>
			<path class="st66" d="M273.4,122c0,0.8,0.6,1.4,1.4,1.4h6.2c0.8,0,1.4-0.6,1.4-1.4v-6.2c0-0.8-0.6-1.4-1.4-1.4h-6.2
				c-0.8,0-1.4,0.6-1.4,1.4V122z"/>
			<path class="st66" d="M285.1,123.4h6.2c0.8,0,1.4-0.6,1.4-1.4v-6.2c0-0.8-0.6-1.4-1.4-1.4h-6.2c-0.8,0-1.4,0.6-1.4,1.4v6.2
				C283.7,122.8,284.3,123.4,285.1,123.4z"/>
			<path class="st66" d="M295.4,123.4h6.2c0.8,0,1.4-0.6,1.4-1.4v-6.2c0-0.8-0.6-1.4-1.4-1.4h-6.2c-0.8,0-1.4,0.6-1.4,1.4v6.2
				C294,122.8,294.7,123.4,295.4,123.4z"/>
			<path class="st66" d="M305.8,123.4h6.2c0.8,0,1.4-0.6,1.4-1.4v-6.2c0-0.8-0.6-1.4-1.4-1.4h-6.2c-0.8,0-1.4,0.6-1.4,1.4v6.2
				C304.4,122.8,305,123.4,305.8,123.4z"/>
			<path class="st66" d="M316.1,123.4h6.2c0.8,0,1.4-0.6,1.4-1.4v-6.2c0-0.8-0.6-1.4-1.4-1.4h-6.2c-0.8,0-1.4,0.6-1.4,1.4v6.2
				C314.7,122.8,315.3,123.4,316.1,123.4z"/>
			<path class="st66" d="M332.7,114.4h-6.2c-0.8,0-1.4,0.6-1.4,1.4v6.2c0,0.8,0.6,1.4,1.4,1.4h6.2c0.8,0,1.4-0.6,1.4-1.4v-6.2
				C334.1,115,333.5,114.4,332.7,114.4z"/>
			<path class="st66" d="M335.4,122c0,0.8,0.6,1.4,1.4,1.4h6.2c0.8,0,1.4-0.6,1.4-1.4v-6.2c0-0.8-0.6-1.4-1.4-1.4h-6.2
				c-0.8,0-1.4,0.6-1.4,1.4V122z"/>
			<path class="st66" d="M354.8,115.8c0-0.8-0.6-1.4-1.4-1.4h-6.2c-0.8,0-1.4,0.6-1.4,1.4v6.2c0,0.8,0.6,1.4,1.4,1.4h6.2
				c0.8,0,1.4-0.6,1.4-1.4V115.8z"/>
			<path class="st66" d="M383.3,114.4h-25.9c-0.8,0-1.4,0.6-1.4,1.4v6.2c0,0.8,0.6,1.4,1.4,1.4h25.9c0.8,0,1.4-0.6,1.4-1.4v-6.2
				C384.7,115,384.1,114.4,383.3,114.4z"/>
			<path class="st66" d="M224.1,123.4H250c0.8,0,1.4-0.6,1.4-1.4v-6.2c0-0.8-0.6-1.4-1.4-1.4h-25.9c-0.8,0-1.4,0.6-1.4,1.4v6.2
				C222.7,122.8,223.3,123.4,224.1,123.4z"/>
			<path class="st66" d="M362.4,129.9h-6.2c-0.8,0-1.4,0.6-1.4,1.4v1.7c0,0.8,0.6,1.4,1.4,1.4h6.2c0.8,0,1.4-0.6,1.4-1.4v-1.7
				C363.8,130.5,363.2,129.9,362.4,129.9z"/>
			<path class="st66" d="M383.1,129.9h-6.2c-0.8,0-1.4,0.6-1.4,1.4v1.7c0,0.8,0.6,1.4,1.4,1.4h6.2c0.8,0,1.4-0.6,1.4-1.4v-1.7
				C384.5,130.5,383.8,129.9,383.1,129.9z"/>
			<path class="st66" d="M352.1,125.4h-15.5c-0.8,0-1.4,0.6-1.4,1.4v6.2c0,0.8,0.6,1.4,1.4,1.4h15.5c0.8,0,1.4-0.6,1.4-1.4v-6.2
				C353.5,126,352.8,125.4,352.1,125.4z"/>
			<path class="st66" d="M270.7,125.4h-15.5c-0.8,0-1.4,0.6-1.4,1.4v6.2c0,0.8,0.6,1.4,1.4,1.4h15.5c0.8,0,1.4-0.6,1.4-1.4v-6.2
				C272,126,271.4,125.4,270.7,125.4z"/>
			<path class="st66" d="M373.8,130.5h-8.3c-0.2,0-0.4,0.2-0.4,0.4v2.1c0,0.8,0.6,1.4,1.4,1.4h6.2c0.8,0,1.4-0.6,1.4-1.4v-2.1
				C374.1,130.7,374,130.5,373.8,130.5z"/>
			<path class="st66" d="M372.7,125.4h-6.2c-0.8,0-1.4,0.6-1.4,1.4v2.1c0,0.2,0.2,0.4,0.4,0.4h8.3c0.2,0,0.4-0.2,0.4-0.4v-2.1
				C374.1,126,373.5,125.4,372.7,125.4z"/>
		</g>
		<path class="st7" d="M230.9,78.6h-8c-0.5,0-0.9-0.4-0.9-0.9v-2.1c0-0.5,0.4-0.9,0.9-0.9h8c0.5,0,0.9,0.4,0.9,0.9v2.1
			C231.8,78.2,231.4,78.6,230.9,78.6z"/>
		<path class="st7" d="M242.6,78.6h-8c-0.5,0-0.9-0.4-0.9-0.9v-2.1c0-0.5,0.4-0.9,0.9-0.9h8c0.5,0,0.9,0.4,0.9,0.9v2.1
			C243.5,78.2,243.1,78.6,242.6,78.6z"/>
		<path class="st7" d="M254.3,78.6h-8c-0.5,0-0.9-0.4-0.9-0.9v-2.1c0-0.5,0.4-0.9,0.9-0.9h8c0.5,0,0.9,0.4,0.9,0.9v2.1
			C255.2,78.2,254.8,78.6,254.3,78.6z"/>
		<path class="st7" d="M266,78.6h-8c-0.5,0-0.9-0.4-0.9-0.9v-2.1c0-0.5,0.4-0.9,0.9-0.9h8c0.5,0,0.9,0.4,0.9,0.9v2.1
			C266.9,78.2,266.5,78.6,266,78.6z"/>
		<path class="st7" d="M277.7,78.6h-8c-0.5,0-0.9-0.4-0.9-0.9v-2.1c0-0.5,0.4-0.9,0.9-0.9h8c0.5,0,0.9,0.4,0.9,0.9v2.1
			C278.6,78.2,278.2,78.6,277.7,78.6z"/>
		<path class="st7" d="M289.4,78.6h-8c-0.5,0-0.9-0.4-0.9-0.9v-2.1c0-0.5,0.4-0.9,0.9-0.9h8c0.5,0,0.9,0.4,0.9,0.9v2.1
			C290.3,78.2,289.9,78.6,289.4,78.6z"/>
		<path class="st7" d="M301.1,78.6h-8c-0.5,0-0.9-0.4-0.9-0.9v-2.1c0-0.5,0.4-0.9,0.9-0.9h8c0.5,0,0.9,0.4,0.9,0.9v2.1
			C302,78.2,301.6,78.6,301.1,78.6z"/>
		<path class="st7" d="M312.8,78.6h-8c-0.5,0-0.9-0.4-0.9-0.9v-2.1c0-0.5,0.4-0.9,0.9-0.9h8c0.5,0,0.9,0.4,0.9,0.9v2.1
			C313.7,78.2,313.3,78.6,312.8,78.6z"/>
		<path class="st7" d="M324.5,78.6h-8c-0.5,0-0.9-0.4-0.9-0.9v-2.1c0-0.5,0.4-0.9,0.9-0.9h8c0.5,0,0.9,0.4,0.9,0.9v2.1
			C325.4,78.2,325,78.6,324.5,78.6z"/>
		<path class="st7" d="M336.2,78.6h-8c-0.5,0-0.9-0.4-0.9-0.9v-2.1c0-0.5,0.4-0.9,0.9-0.9h8c0.5,0,0.9,0.4,0.9,0.9v2.1
			C337.1,78.2,336.7,78.6,336.2,78.6z"/>
		<path class="st7" d="M347.9,78.6h-8c-0.5,0-0.9-0.4-0.9-0.9v-2.1c0-0.5,0.4-0.9,0.9-0.9h8c0.5,0,0.9,0.4,0.9,0.9v2.1
			C348.8,78.2,348.4,78.6,347.9,78.6z"/>
		<path class="st7" d="M359.6,78.6h-8c-0.5,0-0.9-0.4-0.9-0.9v-2.1c0-0.5,0.4-0.9,0.9-0.9h8c0.5,0,0.9,0.4,0.9,0.9v2.1
			C360.5,78.2,360.1,78.6,359.6,78.6z"/>
		<path class="st7" d="M371.3,78.6h-8c-0.5,0-0.9-0.4-0.9-0.9v-2.1c0-0.5,0.4-0.9,0.9-0.9h8c0.5,0,0.9,0.4,0.9,0.9v2.1
			C372.2,78.2,371.8,78.6,371.3,78.6z"/>
		<path class="st7" d="M383,78.6h-8c-0.5,0-0.9-0.4-0.9-0.9v-2.1c0-0.5,0.4-0.9,0.9-0.9h8c0.5,0,0.9,0.4,0.9,0.9v2.1
			C383.9,78.2,383.5,78.6,383,78.6z"/>
		<path class="st7" d="M229.6,89.6h-6.2c-0.8,0-1.4-0.6-1.4-1.4V82c0-0.8,0.6-1.4,1.4-1.4h6.2c0.8,0,1.4,0.6,1.4,1.4v6.2
			C231,89,230.3,89.6,229.6,89.6z"/>
		<path class="st7" d="M239.9,89.6h-6.2c-0.8,0-1.4-0.6-1.4-1.4V82c0-0.8,0.6-1.4,1.4-1.4h6.2c0.8,0,1.4,0.6,1.4,1.4v6.2
			C241.3,89,240.7,89.6,239.9,89.6z"/>
		<path class="st7" d="M250.2,89.6H244c-0.8,0-1.4-0.6-1.4-1.4V82c0-0.8,0.6-1.4,1.4-1.4h6.2c0.8,0,1.4,0.6,1.4,1.4v6.2
			C251.6,89,251,89.6,250.2,89.6z"/>
		<path class="st7" d="M260.6,89.6h-6.2c-0.8,0-1.4-0.6-1.4-1.4V82c0-0.8,0.6-1.4,1.4-1.4h6.2c0.8,0,1.4,0.6,1.4,1.4v6.2
			C262,89,261.4,89.6,260.6,89.6z"/>
		<path class="st7" d="M270.9,89.6h-6.2c-0.8,0-1.4-0.6-1.4-1.4V82c0-0.8,0.6-1.4,1.4-1.4h6.2c0.8,0,1.4,0.6,1.4,1.4v6.2
			C272.3,89,271.7,89.6,270.9,89.6z"/>
		<path class="st7" d="M281.3,89.6H275c-0.8,0-1.4-0.6-1.4-1.4V82c0-0.8,0.6-1.4,1.4-1.4h6.2c0.8,0,1.4,0.6,1.4,1.4v6.2
			C282.7,89,282,89.6,281.3,89.6z"/>
		<path class="st7" d="M291.6,89.6h-6.2c-0.8,0-1.4-0.6-1.4-1.4V82c0-0.8,0.6-1.4,1.4-1.4h6.2c0.8,0,1.4,0.6,1.4,1.4v6.2
			C293,89,292.4,89.6,291.6,89.6z"/>
		<path class="st7" d="M301.9,89.6h-6.2c-0.8,0-1.4-0.6-1.4-1.4V82c0-0.8,0.6-1.4,1.4-1.4h6.2c0.8,0,1.4,0.6,1.4,1.4v6.2
			C303.3,89,302.7,89.6,301.9,89.6z"/>
		<path class="st7" d="M312.3,89.6H306c-0.8,0-1.4-0.6-1.4-1.4V82c0-0.8,0.6-1.4,1.4-1.4h6.2c0.8,0,1.4,0.6,1.4,1.4v6.2
			C313.7,89,313,89.6,312.3,89.6z"/>
		<path class="st7" d="M322.6,89.6h-6.2c-0.8,0-1.4-0.6-1.4-1.4V82c0-0.8,0.6-1.4,1.4-1.4h6.2c0.8,0,1.4,0.6,1.4,1.4v6.2
			C324,89,323.4,89.6,322.6,89.6z"/>
		<path class="st7" d="M333,89.6h-6.2c-0.8,0-1.4-0.6-1.4-1.4V82c0-0.8,0.6-1.4,1.4-1.4h6.2c0.8,0,1.4,0.6,1.4,1.4v6.2
			C334.3,89,333.7,89.6,333,89.6z"/>
		<path class="st7" d="M343.3,89.6H337c-0.8,0-1.4-0.6-1.4-1.4V82c0-0.8,0.6-1.4,1.4-1.4h6.2c0.8,0,1.4,0.6,1.4,1.4v6.2
			C344.7,89,344.1,89.6,343.3,89.6z"/>
		<path class="st7" d="M353.6,89.6h-6.2c-0.8,0-1.4-0.6-1.4-1.4V82c0-0.8,0.6-1.4,1.4-1.4h6.2c0.8,0,1.4,0.6,1.4,1.4v6.2
			C355,89,354.4,89.6,353.6,89.6z"/>
		<path class="st7" d="M364,89.6h-6.2c-0.8,0-1.4-0.6-1.4-1.4V82c0-0.8,0.6-1.4,1.4-1.4h6.2c0.8,0,1.4,0.6,1.4,1.4v6.2
			C365.4,89,364.7,89.6,364,89.6z"/>
		<path class="st7" d="M382.5,89.6h-14.5c-0.8,0-1.4-0.6-1.4-1.4V82c0-0.8,0.6-1.4,1.4-1.4h14.5c0.8,0,1.4,0.6,1.4,1.4v6.2
			C383.9,89,383.3,89.6,382.5,89.6z"/>
		<path class="st7" d="M376.3,100.6h6.2c0.8,0,1.4-0.6,1.4-1.4V93c0-0.8-0.6-1.4-1.4-1.4h-6.2c-0.8,0-1.4,0.6-1.4,1.4v6.2
			C374.9,100,375.5,100.6,376.3,100.6z"/>
		<path class="st7" d="M365.9,100.6h6.2c0.8,0,1.4-0.6,1.4-1.4V93c0-0.8-0.6-1.4-1.4-1.4h-6.2c-0.8,0-1.4,0.6-1.4,1.4v6.2
			C364.5,100,365.2,100.6,365.9,100.6z"/>
		<path class="st7" d="M355.6,100.6h6.2c0.8,0,1.4-0.6,1.4-1.4V93c0-0.8-0.6-1.4-1.4-1.4h-6.2c-0.8,0-1.4,0.6-1.4,1.4v6.2
			C354.2,100,354.8,100.6,355.6,100.6z"/>
		<path class="st7" d="M345.3,100.6h6.2c0.8,0,1.4-0.6,1.4-1.4V93c0-0.8-0.6-1.4-1.4-1.4h-6.2c-0.8,0-1.4,0.6-1.4,1.4v6.2
			C343.9,100,344.5,100.6,345.3,100.6z"/>
		<path class="st7" d="M334.9,100.6h6.2c0.8,0,1.4-0.6,1.4-1.4V93c0-0.8-0.6-1.4-1.4-1.4h-6.2c-0.8,0-1.4,0.6-1.4,1.4v6.2
			C333.5,100,334.2,100.6,334.9,100.6z"/>
		<path class="st7" d="M324.6,100.6h6.2c0.8,0,1.4-0.6,1.4-1.4V93c0-0.8-0.6-1.4-1.4-1.4h-6.2c-0.8,0-1.4,0.6-1.4,1.4v6.2
			C323.2,100,323.8,100.6,324.6,100.6z"/>
		<path class="st7" d="M314.2,100.6h6.2c0.8,0,1.4-0.6,1.4-1.4V93c0-0.8-0.6-1.4-1.4-1.4h-6.2c-0.8,0-1.4,0.6-1.4,1.4v6.2
			C312.9,100,313.5,100.6,314.2,100.6z"/>
		<path class="st7" d="M303.9,100.6h6.2c0.8,0,1.4-0.6,1.4-1.4V93c0-0.8-0.6-1.4-1.4-1.4h-6.2c-0.8,0-1.4,0.6-1.4,1.4v6.2
			C302.5,100,303.1,100.6,303.9,100.6z"/>
		<path class="st7" d="M293.6,100.6h6.2c0.8,0,1.4-0.6,1.4-1.4V93c0-0.8-0.6-1.4-1.4-1.4h-6.2c-0.8,0-1.4,0.6-1.4,1.4v6.2
			C292.2,100,292.8,100.6,293.6,100.6z"/>
		<path class="st7" d="M283.2,100.6h6.2c0.8,0,1.4-0.6,1.4-1.4V93c0-0.8-0.6-1.4-1.4-1.4h-6.2c-0.8,0-1.4,0.6-1.4,1.4v6.2
			C281.8,100,282.5,100.6,283.2,100.6z"/>
		<path class="st7" d="M272.9,100.6h6.2c0.8,0,1.4-0.6,1.4-1.4V93c0-0.8-0.6-1.4-1.4-1.4h-6.2c-0.8,0-1.4,0.6-1.4,1.4v6.2
			C271.5,100,272.1,100.6,272.9,100.6z"/>
		<path class="st7" d="M262.6,100.6h6.2c0.8,0,1.4-0.6,1.4-1.4V93c0-0.8-0.6-1.4-1.4-1.4h-6.2c-0.8,0-1.4,0.6-1.4,1.4v6.2
			C261.2,100,261.8,100.6,262.6,100.6z"/>
		<path class="st7" d="M252.2,100.6h6.2c0.8,0,1.4-0.6,1.4-1.4V93c0-0.8-0.6-1.4-1.4-1.4h-6.2c-0.8,0-1.4,0.6-1.4,1.4v6.2
			C250.8,100,251.4,100.6,252.2,100.6z"/>
		<path class="st7" d="M241.9,100.6h6.2c0.8,0,1.4-0.6,1.4-1.4V93c0-0.8-0.6-1.4-1.4-1.4h-6.2c-0.8,0-1.4,0.6-1.4,1.4v6.2
			C240.5,100,241.1,100.6,241.9,100.6z"/>
		<path class="st7" d="M223.3,100.6h14.5c0.8,0,1.4-0.6,1.4-1.4V93c0-0.8-0.6-1.4-1.4-1.4h-14.5c-0.8,0-1.4,0.6-1.4,1.4v6.2
			C221.9,100,222.6,100.6,223.3,100.6z"/>
		<path class="st7" d="M250.7,111.6h-6.2c-0.8,0-1.4-0.6-1.4-1.4V104c0-0.8,0.6-1.4,1.4-1.4h6.2c0.8,0,1.4,0.6,1.4,1.4v6.2
			C252.1,111,251.5,111.6,250.7,111.6z"/>
		<path class="st7" d="M261.1,111.6h-6.2c-0.8,0-1.4-0.6-1.4-1.4V104c0-0.8,0.6-1.4,1.4-1.4h6.2c0.8,0,1.4,0.6,1.4,1.4v6.2
			C262.5,111,261.8,111.6,261.1,111.6z"/>
		<path class="st7" d="M271.4,111.6h-6.2c-0.8,0-1.4-0.6-1.4-1.4V104c0-0.8,0.6-1.4,1.4-1.4h6.2c0.8,0,1.4,0.6,1.4,1.4v6.2
			C272.8,111,272.2,111.6,271.4,111.6z"/>
		<path class="st7" d="M281.8,111.6h-6.2c-0.8,0-1.4-0.6-1.4-1.4V104c0-0.8,0.6-1.4,1.4-1.4h6.2c0.8,0,1.4,0.6,1.4,1.4v6.2
			C283.1,111,282.5,111.6,281.8,111.6z"/>
		<path class="st7" d="M292.1,111.6h-6.2c-0.8,0-1.4-0.6-1.4-1.4V104c0-0.8,0.6-1.4,1.4-1.4h6.2c0.8,0,1.4,0.6,1.4,1.4v6.2
			C293.5,111,292.9,111.6,292.1,111.6z"/>
		<path class="st7" d="M302.4,111.6h-6.2c-0.8,0-1.4-0.6-1.4-1.4V104c0-0.8,0.6-1.4,1.4-1.4h6.2c0.8,0,1.4,0.6,1.4,1.4v6.2
			C303.8,111,303.2,111.6,302.4,111.6z"/>
		<path class="st7" d="M312.8,111.6h-6.2c-0.8,0-1.4-0.6-1.4-1.4V104c0-0.8,0.6-1.4,1.4-1.4h6.2c0.8,0,1.4,0.6,1.4,1.4v6.2
			C314.2,111,313.5,111.6,312.8,111.6z"/>
		<path class="st7" d="M323.1,111.6h-6.2c-0.8,0-1.4-0.6-1.4-1.4V104c0-0.8,0.6-1.4,1.4-1.4h6.2c0.8,0,1.4,0.6,1.4,1.4v6.2
			C324.5,111,323.9,111.6,323.1,111.6z"/>
		<path class="st7" d="M333.4,111.6h-6.2c-0.8,0-1.4-0.6-1.4-1.4V104c0-0.8,0.6-1.4,1.4-1.4h6.2c0.8,0,1.4,0.6,1.4,1.4v6.2
			C334.8,111,334.2,111.6,333.4,111.6z"/>
		<path class="st7" d="M343.8,111.6h-6.2c-0.8,0-1.4-0.6-1.4-1.4V104c0-0.8,0.6-1.4,1.4-1.4h6.2c0.8,0,1.4,0.6,1.4,1.4v6.2
			C345.2,111,344.6,111.6,343.8,111.6z"/>
		<path class="st7" d="M354.1,111.6h-6.2c-0.8,0-1.4-0.6-1.4-1.4V104c0-0.8,0.6-1.4,1.4-1.4h6.2c0.8,0,1.4,0.6,1.4,1.4v6.2
			C355.5,111,354.9,111.6,354.1,111.6z"/>
		<path class="st7" d="M364.5,111.6h-6.2c-0.8,0-1.4-0.6-1.4-1.4V104c0-0.8,0.6-1.4,1.4-1.4h6.2c0.8,0,1.4,0.6,1.4,1.4v6.2
			C365.9,111,365.2,111.6,364.5,111.6z"/>
		<path class="st7" d="M382.5,111.6h-14.5c-0.8,0-1.4-0.6-1.4-1.4V104c0-0.8,0.6-1.4,1.4-1.4h14.5c0.8,0,1.4,0.6,1.4,1.4v6.2
			C383.9,111,383.3,111.6,382.5,111.6z"/>
		<path class="st7" d="M240.4,111.6h-17.1c-0.8,0-1.4-0.6-1.4-1.4V104c0-0.8,0.6-1.4,1.4-1.4h17.1c0.8,0,1.4,0.6,1.4,1.4v6.2
			C241.8,111,241.2,111.6,240.4,111.6z"/>
		<path class="st7" d="M259.5,122.6h-6.2c-0.8,0-1.4-0.6-1.4-1.4V115c0-0.8,0.6-1.4,1.4-1.4h6.2c0.8,0,1.4,0.6,1.4,1.4v6.2
			C260.9,122,260.3,122.6,259.5,122.6z"/>
		<path class="st7" d="M229.6,133.6h-6.2c-0.8,0-1.4-0.6-1.4-1.4V126c0-0.8,0.6-1.4,1.4-1.4h6.2c0.8,0,1.4,0.6,1.4,1.4v6.2
			C231,133,230.3,133.6,229.6,133.6z"/>
		<path class="st7" d="M239.9,133.6h-6.2c-0.8,0-1.4-0.6-1.4-1.4V126c0-0.8,0.6-1.4,1.4-1.4h6.2c0.8,0,1.4,0.6,1.4,1.4v6.2
			C241.3,133,240.7,133.6,239.9,133.6z"/>
		<path class="st7" d="M250.2,133.6H244c-0.8,0-1.4-0.6-1.4-1.4V126c0-0.8,0.6-1.4,1.4-1.4h6.2c0.8,0,1.4,0.6,1.4,1.4v6.2
			C251.6,133,251,133.6,250.2,133.6z"/>
		<path class="st7" d="M331.9,133.6H274c-0.8,0-1.4-0.6-1.4-1.4V126c0-0.8,0.6-1.4,1.4-1.4h57.9c0.8,0,1.4,0.6,1.4,1.4v6.2
			C333.3,133,332.7,133.6,331.9,133.6z"/>
		<path class="st7" d="M269.9,122.6h-6.2c-0.8,0-1.4-0.6-1.4-1.4V115c0-0.8,0.6-1.4,1.4-1.4h6.2c0.8,0,1.4,0.6,1.4,1.4v6.2
			C271.3,122,270.6,122.6,269.9,122.6z"/>
		<path class="st7" d="M280.2,122.6H274c-0.8,0-1.4-0.6-1.4-1.4V115c0-0.8,0.6-1.4,1.4-1.4h6.2c0.8,0,1.4,0.6,1.4,1.4v6.2
			C281.6,122,281,122.6,280.2,122.6z"/>
		<path class="st7" d="M290.5,122.6h-6.2c-0.8,0-1.4-0.6-1.4-1.4V115c0-0.8,0.6-1.4,1.4-1.4h6.2c0.8,0,1.4,0.6,1.4,1.4v6.2
			C291.9,122,291.3,122.6,290.5,122.6z"/>
		<path class="st7" d="M300.9,122.6h-6.2c-0.8,0-1.4-0.6-1.4-1.4V115c0-0.8,0.6-1.4,1.4-1.4h6.2c0.8,0,1.4,0.6,1.4,1.4v6.2
			C302.3,122,301.6,122.6,300.9,122.6z"/>
		<path class="st7" d="M311.2,122.6H305c-0.8,0-1.4-0.6-1.4-1.4V115c0-0.8,0.6-1.4,1.4-1.4h6.2c0.8,0,1.4,0.6,1.4,1.4v6.2
			C312.6,122,312,122.6,311.2,122.6z"/>
		<path class="st7" d="M321.5,122.6h-6.2c-0.8,0-1.4-0.6-1.4-1.4V115c0-0.8,0.6-1.4,1.4-1.4h6.2c0.8,0,1.4,0.6,1.4,1.4v6.2
			C322.9,122,322.3,122.6,321.5,122.6z"/>
		<path class="st7" d="M331.9,122.6h-6.2c-0.8,0-1.4-0.6-1.4-1.4V115c0-0.8,0.6-1.4,1.4-1.4h6.2c0.8,0,1.4,0.6,1.4,1.4v6.2
			C333.3,122,332.7,122.6,331.9,122.6z"/>
		<path class="st7" d="M342.2,122.6H336c-0.8,0-1.4-0.6-1.4-1.4V115c0-0.8,0.6-1.4,1.4-1.4h6.2c0.8,0,1.4,0.6,1.4,1.4v6.2
			C343.6,122,343,122.6,342.2,122.6z"/>
		<path class="st7" d="M352.6,122.6h-6.2c-0.8,0-1.4-0.6-1.4-1.4V115c0-0.8,0.6-1.4,1.4-1.4h6.2c0.8,0,1.4,0.6,1.4,1.4v6.2
			C354,122,353.3,122.6,352.6,122.6z"/>
		<path class="st7" d="M382.5,122.6h-25.9c-0.8,0-1.4-0.6-1.4-1.4V115c0-0.8,0.6-1.4,1.4-1.4h25.9c0.8,0,1.4,0.6,1.4,1.4v6.2
			C383.9,122,383.3,122.6,382.5,122.6z"/>
		<path class="st7" d="M249.2,122.6h-25.9c-0.8,0-1.4-0.6-1.4-1.4V115c0-0.8,0.6-1.4,1.4-1.4h25.9c0.8,0,1.4,0.6,1.4,1.4v6.2
			C250.6,122,250,122.6,249.2,122.6z"/>
		<path class="st7" d="M361.6,133.6h-6.2c-0.8,0-1.4-0.6-1.4-1.4v-1.7c0-0.8,0.6-1.4,1.4-1.4h6.2c0.8,0,1.4,0.6,1.4,1.4v1.7
			C363,133,362.4,133.6,361.6,133.6z"/>
		<path class="st7" d="M382.3,133.6H376c-0.8,0-1.4-0.6-1.4-1.4v-1.7c0-0.8,0.6-1.4,1.4-1.4h6.2c0.8,0,1.4,0.6,1.4,1.4v1.7
			C383.7,133,383,133.6,382.3,133.6z"/>
		<path class="st7" d="M351.3,133.6h-15.5c-0.8,0-1.4-0.6-1.4-1.4V126c0-0.8,0.6-1.4,1.4-1.4h15.5c0.8,0,1.4,0.6,1.4,1.4v6.2
			C352.7,133,352,133.6,351.3,133.6z"/>
		<path class="st7" d="M269.9,133.6h-15.5c-0.8,0-1.4-0.6-1.4-1.4V126c0-0.8,0.6-1.4,1.4-1.4h15.5c0.8,0,1.4,0.6,1.4,1.4v6.2
			C271.3,133,270.6,133.6,269.9,133.6z"/>
		<path class="st7" d="M371.9,133.6h-6.2c-0.8,0-1.4-0.6-1.4-1.4v-2.1c0-0.2,0.2-0.4,0.4-0.4h8.3c0.2,0,0.4,0.2,0.4,0.4v2.1
			C373.3,133,372.7,133.6,371.9,133.6z"/>
		<path class="st7" d="M365.7,124.6h6.2c0.8,0,1.4,0.6,1.4,1.4v2.1c0,0.2-0.2,0.4-0.4,0.4h-8.3c-0.2,0-0.4-0.2-0.4-0.4V126
			C364.3,125.2,364.9,124.6,365.7,124.6z"/>
		<path class="st14" d="M329.5,144.3v26.3c0,1.1-0.9,1.9-2.1,1.9h-48c-0.8,0-1.5-0.4-1.8-1c0.3,0.2,0.7,0.3,1.1,0.3h47.9
			c1.1,0,2.1-0.9,2.1-1.9v-26.3c0-0.3-0.1-0.7-0.3-0.9C329.1,142.9,329.5,143.6,329.5,144.3z"/>
		<path class="st14" d="M316.5,178H289c-1.1,0-1.9,0.9-1.9,1.9l0,0h31.3l0,0C318.4,178.9,317.5,178,316.5,178z"/>
		<path class="st65" d="M326.7,141.6h-47.9c-1.1,0-2.1,0.9-2.1,2.1v26c0,1.1,0.9,2.1,2.1,2.1h47.9c1.1,0,2.1-0.9,2.1-2.1v-26
			C328.8,142.5,327.8,141.6,326.7,141.6z"/>
		<defs>
			<filter id="Adobe_OpacityMaskFilter_2_" filterUnits="userSpaceOnUse" x="276.7" y="141.6" width="52.1" height="30.1">
				<feFlood  style="flood-color:white;flood-opacity:1" result="back"/>
				<feBlend  in="SourceGraphic" in2="back" mode="normal"/>
			</filter>
		</defs>
		<mask maskUnits="userSpaceOnUse" x="276.7" y="141.6" width="52.1" height="30.1" id="SVGID_4_">
			<g class="st67">
				<defs>
					<filter id="Adobe_OpacityMaskFilter_3_" filterUnits="userSpaceOnUse" x="276.7" y="141.6" width="52.1" height="30.1">
						<feFlood  style="flood-color:white;flood-opacity:1" result="back"/>
						<feBlend  in="SourceGraphic" in2="back" mode="normal"/>
					</filter>
				</defs>
				<mask maskUnits="userSpaceOnUse" x="276.7" y="141.6" width="52.1" height="30.1" id="SVGID_4_">
				</mask>
				<linearGradient id="SVGID_5_" gradientUnits="userSpaceOnUse" x1="276.715" y1="156.6691" x2="328.7668" y2="156.6691">
					<stop  offset="0" style="stop-color:#333333"/>
					<stop  offset="1" style="stop-color:#000000"/>
				</linearGradient>
				<path class="st69" d="M326.7,141.6h-47.9c-1.1,0-2.1,0.9-2.1,2.1v26c0,1.1,0.9,2.1,2.1,2.1h47.9c1.1,0,2.1-0.9,2.1-2.1v-26
					C328.8,142.5,327.8,141.6,326.7,141.6z"/>
			</g>
		</mask>
		<linearGradient id="SVGID_6_" gradientUnits="userSpaceOnUse" x1="276.715" y1="156.6691" x2="328.7668" y2="156.6691">
			<stop  offset="0" style="stop-color:#F7F7F7"/>
			<stop  offset="1" style="stop-color:#F7F7F7"/>
		</linearGradient>
		<path class="st70" d="M326.7,141.6h-47.9c-1.1,0-2.1,0.9-2.1,2.1v26c0,1.1,0.9,2.1,2.1,2.1h47.9c1.1,0,2.1-0.9,2.1-2.1v-26
			C328.8,142.5,327.8,141.6,326.7,141.6z"/>
	</g>
	<g>
		<g>
			<path class="st6" d="M264.3,226.6l2.8-93.1l-5.5-0.2l-0.1-2.3l-39.5,1.2l-66.9-2l-0.1,4l-5.5,0.2l0,0.5h-0.4
				c-0.5,0-0.9,0.4-0.9,0.9v74.3v74.3c0,0.5,0.4,0.9,0.9,0.9h110.3c0.5,0,0.9-0.4,0.9-0.9v-0.5l2.2,0.1l0.1-2.4l3.3-0.1L264.3,226.6
				z"/>
		</g>
		
			<rect x="148.6" y="129.6" transform="matrix(0.9996 -2.914015e-02 2.914015e-02 0.9996 -5.8798 6.0509)" class="st12" width="112.1" height="150.4"/>
		
			<rect x="148.6" y="129.6" transform="matrix(0.9996 -2.914015e-02 2.914015e-02 0.9996 -5.8798 6.0509)" class="st65" width="112.1" height="150.4"/>
		
			<rect x="130.6" y="147.9" transform="matrix(3.025521e-02 -0.9995 0.9995 3.025521e-02 -4.2706 403.4879)" class="st12" width="150.4" height="112.1"/>
		<path class="st71" d="M247.9,184.8c0-5.4,7.2-11.2,7.2-15.3V135c0-0.5-0.4-0.9-0.9-0.9H144c-0.5,0-0.9,0.4-0.9,0.9v74.3v74.3
			c0,0.5,0.4,0.9,0.9,0.9h110.3c0.5,0,0.9-0.4,0.9-0.9v-34.5c0-4-7.2-9.9-7.2-15.3c0-5.4,0-17.1,0-24.5
			C247.9,201.9,247.9,190.2,247.9,184.8z"/>
		<rect x="163.9" y="163" class="st14" width="70.1" height="36.8"/>
		<rect x="162.7" y="161.9" class="st12" width="70.1" height="36.8"/>
		<path class="st72" d="M151.8,134.1v150.4h-7.7c-0.5,0-0.9-0.4-0.9-0.9V135c0-0.5,0.4-0.9,0.9-0.9H151.8z"/>
		<path class="st16" d="M198.1,180.3h-29.7v-3.7h29.7V180.3z M209,176.5h-4.7v3.7h4.7V176.5z M227.5,176.5h-13.1v3.7h13.1V176.5z
			 M177.7,185h-9.3v1.9h9.3V185z M201,185h-16.7v1.9H201V185z M212.6,185h-4.8v1.9h4.8V185z M188.9,191.6h-20.5v1.9h20.5V191.6z"/>
		<path class="st65" d="M247.3,184.8v49c0,5.4,7.2,11.2,7.2,15.3v34.5c0,0.5-0.4,0.9-0.9,0.9H151V278h70.3c11,0,19.9-8.9,19.9-19.9
			V134.2h12.9c0.2,0.2,0.4,0.4,0.4,0.7v34.6C254.6,173.5,247.3,179.4,247.3,184.8z"/>
	</g>
</g>
</svg>
