<svg xmlns="http://www.w3.org/2000/svg" width="130.38" height="129.586" viewBox="0 0 130.38 129.586">
  <g id="Group_3866" data-name="Group 3866" transform="translate(-7.093 -7.207)">
    <g id="Circles">
      <circle id="Ellipse_666" data-name="Ellipse 666" cx="64.793" cy="64.793" r="64.793" transform="translate(7.093 7.207)" fill="#ccecfc"/>
    </g>
    <g id="Icon_Art" data-name="Icon Art">
      <path id="path4212" d="M130.347,80.913V86.3l-6.93,2.987V83.9Z" fill="#1a4480"/>
      <path id="path4218" d="M88.769,80.913V86.3L95.7,89.289V83.9Z" fill="#1a4480"/>
      <path id="path4220" d="M104.658,85.5v5.389h9.8V85.5Z" fill="#1a4480"/>
      <path id="path4342" d="M83.567,104.211v8.629l-11.1,4.783V109Z" fill="#1a4480"/>
      <path id="path4348" d="M17,104.211v8.629l11.095,4.783V109Z" fill="#1a4480"/>
      <path id="path4356" d="M42.435,111.556v8.628H58.126v-8.628Z" fill="#1a4480"/>
      <g id="path4200">
        <g id="Group_3830" data-name="Group 3830" opacity="0.8" style="mix-blend-mode: multiply;isolation: isolate">
          <path id="Path_8139" data-name="Path 8139" d="M108.882,70.957l-8.654,1.657-4.086,2.542-.444-.191-6.929,2.988,1.434.618L87.47,79.987v1.828H85.058V86.04h4.755a7.971,7.971,0,0,0,2.318,2.412L88.769,89.9,95.7,92.889l3.36-1.448a38.826,38.826,0,0,0,5.6,1v2.048h9.8v-2.05a38.949,38.949,0,0,0,5.6-1l3.362,1.449,6.93-2.987-3.359-1.448a7.98,7.98,0,0,0,2.319-2.414h4.751V81.815h-2.627l.083-3.154-1.668-.493.5-.215-5.737-2.474-.862-.877Zm.855,7.669a22.676,22.676,0,0,1,8.517,1.552c2,.865,3.25,2,3.532,3.218L120.2,82.8s-4.66,2.651-5.214,2.651h-7.433l-6.99-1.74-3.141-.6c.4-1.111,1.6-2.139,3.442-2.936A22.94,22.94,0,0,1,109.737,78.626Z" fill="#ccecfc"/>
        </g>
        <g id="Group_3831" data-name="Group 3831">
          <path id="Path_8140" data-name="Path 8140" d="M108.882,67.357l-8.654,1.657-4.086,2.542-.444-.191-6.929,2.988,1.434.618L87.47,76.387v1.828H85.058V82.44h4.755a7.971,7.971,0,0,0,2.318,2.412L88.769,86.3,95.7,89.289l3.36-1.448a38.827,38.827,0,0,0,5.6,1v2.048h9.8v-2.05a38.946,38.946,0,0,0,5.6-1l3.362,1.449,6.93-2.987-3.359-1.448a7.98,7.98,0,0,0,2.319-2.414h4.751V78.215h-2.627l.083-3.154-1.668-.493.5-.215-5.737-2.474L123.748,71Zm.855,7.669a22.675,22.675,0,0,1,8.517,1.552c2,.865,3.25,2,3.532,3.218L120.2,79.2s-4.66,2.651-5.214,2.651h-7.433l-6.99-1.74-3.141-.6c.4-1.111,1.6-2.139,3.442-2.936A22.94,22.94,0,0,1,109.737,75.026Z" fill="#cc1d1d"/>
        </g>
      </g>
      <path id="path4200-2" data-name="path4200" d="M108.882,67.357l-8.654,1.657-4.086,2.542-.444-.191-6.929,2.988,1.434.618L87.47,76.387v1.828H85.058V82.44h4.755a7.971,7.971,0,0,0,2.318,2.412L88.769,86.3,95.7,89.289l3.36-1.448a38.827,38.827,0,0,0,5.6,1v2.048h9.8v-2.05a38.946,38.946,0,0,0,5.6-1l3.362,1.449,6.93-2.987-3.359-1.448a7.98,7.98,0,0,0,2.319-2.414h4.751V78.215h-2.627l.083-3.154-1.668-.493.5-.215-5.737-2.474L123.748,71Zm.855,7.669a22.675,22.675,0,0,1,8.517,1.552c2,.865,3.25,2,3.532,3.218L120.2,79.2s-4.66,2.651-5.214,2.651h-7.433l-6.99-1.74-3.141-.6c.4-1.111,1.6-2.139,3.442-2.936A22.94,22.94,0,0,1,109.737,75.026Z" fill="#cc1d1d" style="mix-blend-mode: multiply;isolation: isolate"/>
      <path id="path4204" d="M134.058,77.051V82.44h-4.751V77.051Z" fill="#d33d3d"/>
      <path id="path4208" d="M130.347,68.964v5.752l-5.046.594L123.748,71Z" fill="#d33d3d"/>
      <path id="path4212-2" data-name="path4212" d="M130.347,80.913V86.3l-6.93,2.987V83.9Z" fill="#cc1d1d"/>
      <path id="path4214" d="M120.055,82.451V87.84l3.362,1.449V83.9Z" fill="#d33d3d"/>
      <path id="path4202" d="M85.058,77.051V82.44h4.755V77.051Z" fill="#d33d3d"/>
      <path id="path4216" d="M99.058,82.452v5.389L95.7,89.289V83.9Z" fill="#d33d3d"/>
      <path id="path4218-2" data-name="path4218" d="M88.769,80.913V86.3L95.7,89.289V83.9Z" fill="#cc1d1d"/>
      <path id="path4220-2" data-name="path4220" d="M104.658,85.5v5.389h9.8V85.5Z" fill="#cc1d1d"/>
      <path id="path4210" d="M104.658,64.376v2.05a38.782,38.782,0,0,0-5.6,1L95.7,65.976l-6.929,2.988,3.359,1.448a7.973,7.973,0,0,0-2.32,2.414h-4.75v4.225h4.755a7.971,7.971,0,0,0,2.318,2.412l-3.362,1.45L95.7,83.9l3.36-1.448a38.827,38.827,0,0,0,5.6,1V85.5h9.8V83.45a38.946,38.946,0,0,0,5.6-1l3.362,1.449,6.93-2.987-3.359-1.448a7.98,7.98,0,0,0,2.319-2.414h4.751V72.826H129.3a7.966,7.966,0,0,0-2.319-2.413l3.363-1.449-6.93-2.988-3.359,1.448a38.987,38.987,0,0,0-5.6-1V64.376Zm5.079,5.261a22.675,22.675,0,0,1,8.517,1.552c4.8,2.071,4.8,5.428,0,7.5s-12.59,2.071-17.392,0-4.8-5.427,0-7.5A22.94,22.94,0,0,1,109.737,69.637Z" fill="#cc1d1d"/>
      <g id="path4180">
        <g id="Group_3832" data-name="Group 3832" opacity="0.8" style="mix-blend-mode: multiply;isolation: isolate">
          <path id="Path_8141" data-name="Path 8141" d="M49.2,86.544,35.343,89.2,28.8,93.267l-.71-.306L17,97.744l2.3.99L14.915,101v2.927H11.053v6.765h7.613a12.759,12.759,0,0,0,3.713,3.863L17,116.877,28.09,121.66l5.379-2.319a62.155,62.155,0,0,0,8.966,1.6v3.28H58.126v-3.283a62.125,62.125,0,0,0,8.962-1.6l5.383,2.321,11.1-4.783-5.379-2.319a12.757,12.757,0,0,0,3.714-3.865h7.607v-6.765H85.3l.132-5.049-2.669-.789.8-.346-9.186-3.96L73,92.38Zm1.369,12.279A36.3,36.3,0,0,1,64.2,101.308c3.206,1.385,5.2,3.205,5.656,5.152l-2.543-.949s-7.461,4.244-8.349,4.244h-11.9L35.876,106.97l-5.03-.961c.635-1.779,2.565-3.425,5.511-4.7A36.726,36.726,0,0,1,50.568,98.823Z" fill="#ccecfc"/>
        </g>
        <g id="Group_3833" data-name="Group 3833">
          <path id="Path_8142" data-name="Path 8142" d="M49.2,82.507,35.343,85.159,28.8,89.23l-.71-.306L17,93.707l2.3.99-4.376,2.267v2.927H11.053v6.765h7.613a12.759,12.759,0,0,0,3.713,3.863L17,112.84l11.095,4.783,5.379-2.319a62.154,62.154,0,0,0,8.966,1.6v3.279H58.126V116.9a62.261,62.261,0,0,0,8.962-1.6l5.383,2.321,11.1-4.783-5.379-2.319a12.757,12.757,0,0,0,3.714-3.865h7.607V99.891H85.3l.132-5.049-2.669-.789.8-.346-9.186-3.96L73,88.343Zm1.369,12.279A36.3,36.3,0,0,1,64.2,97.271c3.206,1.385,5.2,3.2,5.656,5.152l-2.543-.95s-7.461,4.245-8.349,4.245h-11.9l-11.191-2.786-5.03-.96c.635-1.779,2.565-3.426,5.511-4.7A36.726,36.726,0,0,1,50.568,94.786Z" fill="#ccecfc"/>
        </g>
      </g>
      <path id="path4180-2" data-name="path4180" d="M49.2,82.507,35.343,85.159,28.8,89.23l-.71-.306L17,93.707l2.3.99-4.376,2.267v2.927H11.053v6.765h7.613a12.759,12.759,0,0,0,3.713,3.863L17,112.84l11.095,4.783,5.379-2.319a62.154,62.154,0,0,0,8.966,1.6v3.279H58.126V116.9a62.261,62.261,0,0,0,8.962-1.6l5.383,2.321,11.1-4.783-5.379-2.319a12.757,12.757,0,0,0,3.714-3.865h7.607V99.891H85.3l.132-5.049-2.669-.789.8-.346-9.186-3.96L73,88.343Zm1.369,12.279A36.3,36.3,0,0,1,64.2,97.271c3.206,1.385,5.2,3.2,5.656,5.152l-2.543-.95s-7.461,4.245-8.349,4.245h-11.9l-11.191-2.786-5.03-.96c.635-1.779,2.565-3.426,5.511-4.7A36.726,36.726,0,0,1,50.568,94.786Z" fill="#cc1d1d" style="mix-blend-mode: multiply;isolation: isolate"/>
      <path id="path4338" d="M11.053,98.027v8.629h7.613V98.027Z" fill="#d33d3d"/>
      <path id="path4340" d="M89.509,98.027v8.629H81.9V98.027Z" fill="#d33d3d"/>
      <path id="path4358" d="M17,85.079v8.628l7.048-3.038L31.2,87.736Z" fill="#d33d3d"/>
      <path id="path4360" d="M83.567,85.079v9.21l-8.079.951L73,88.343Z" fill="#d33d3d"/>
      <path id="path4319" d="M42.435,77.734v3.282a62.245,62.245,0,0,0-8.961,1.6L28.09,80.3,17,85.079,22.373,87.4a12.771,12.771,0,0,0-3.714,3.866H11.053v6.764h7.613a12.75,12.75,0,0,0,3.713,3.864L17,104.211,28.09,109l5.379-2.319a62.291,62.291,0,0,0,8.966,1.6v3.279H58.126v-3.282a62.262,62.262,0,0,0,8.962-1.6L72.471,109l11.1-4.784-5.379-2.318A12.771,12.771,0,0,0,81.9,98.027h7.607V91.263H81.895A12.756,12.756,0,0,0,78.183,87.4l5.384-2.321L72.471,80.3l-5.378,2.318a62.306,62.306,0,0,0-8.967-1.6V77.734Zm8.133,8.423A36.3,36.3,0,0,1,64.2,88.643c7.69,3.315,7.69,8.689,0,12s-20.157,3.316-27.847,0-7.69-8.69,0-12.005A36.725,36.725,0,0,1,50.568,86.157Z" fill="#cc1d1d"/>
      <path id="path4342-2" data-name="path4342" d="M83.567,104.211v8.629l-11.1,4.783V109Z" fill="#cc1d1d"/>
      <path id="path4344" d="M67.088,106.674V115.3l5.383,2.321V109Z" fill="#d33d3d"/>
      <path id="path4346" d="M33.469,106.676V115.3l-5.379,2.319V109Z" fill="#d33d3d"/>
      <path id="path4348-2" data-name="path4348" d="M17,104.211v8.629l11.095,4.783V109Z" fill="#cc1d1d"/>
      <path id="path4356-2" data-name="path4356" d="M42.435,111.556v8.628H58.126v-8.628Z" fill="#cc1d1d"/>
      <path id="Path_8143" data-name="Path 8143" d="M130.577,59.424H93.468L100.364,46l-6.9-13.424h37.11L137.474,46Z" fill="#4baed1"/>
      <g id="Group_3834" data-name="Group 3834" opacity="0.63" style="mix-blend-mode: multiply;isolation: isolate">
        <path id="Path_8144" data-name="Path 8144" d="M100.364,46l-6.9,13.424h37.11L137.474,46Z" fill="#1294c2"/>
      </g>
      <path id="Path_8145" data-name="Path 8145" d="M87.39,59.424H50.281L57.177,46l-6.9-13.424H87.39L94.287,46Z" fill="#4baed1"/>
      <g id="Group_3835" data-name="Group 3835" opacity="0.63" style="mix-blend-mode: multiply;isolation: isolate">
        <path id="Path_8146" data-name="Path 8146" d="M57.177,46l-6.9,13.424H87.39L94.286,46Z" fill="#1294c2"/>
      </g>
      <path id="Path_8147" data-name="Path 8147" d="M44.2,59.424H7.093L13.99,46l-6.9-13.424H44.2L51.1,46Z" fill="#4baed1"/>
      <g id="Group_3836" data-name="Group 3836" opacity="0.63" style="mix-blend-mode: multiply;isolation: isolate">
        <path id="Path_8148" data-name="Path 8148" d="M13.99,46l-6.9,13.424H44.2L51.1,46Z" fill="#1294c2"/>
      </g>
    </g>
  </g>
</svg>
