<svg xmlns="http://www.w3.org/2000/svg" width="129.587" height="129.586" viewBox="0 0 129.587 129.586">
  <g id="Group_3843" data-name="Group 3843" transform="translate(-6.793 -7.207)">
    <g id="Circles">
      <circle id="Ellipse_667" data-name="Ellipse 667" cx="64.793" cy="64.793" r="64.793" transform="translate(6.793 7.207)" fill="#ccecfc"/>
    </g>
    <g id="Icon_Art" data-name="Icon Art">
      <g id="Group_3842" data-name="Group 3842">
        <g id="Group_3841" data-name="Group 3841">
          <path id="Path_8149" data-name="Path 8149" d="M87.863,86.395a21.258,21.258,0,1,1-1.816-30.009A21.258,21.258,0,0,1,87.863,86.395Z" fill="#eef9fe" opacity="0.8"/>
          <path id="Glass_Effect" d="M62.627,55.336A4.475,4.475,0,0,0,61.016,56.9c-2.084,4.454,5.611,11.272,10.642,15.73S84.386,83.9,88.558,81.3a4.484,4.484,0,0,0,1.356-1.787A19.441,19.441,0,0,0,62.627,55.336Z" fill="#fff" opacity="0.5"/>
          <path id="Path_8150" data-name="Path 8150" d="M51.856,94.861l3.3-3.721a25.521,25.521,0,0,0,2.028,1.621L53.4,97.031a5.9,5.9,0,0,0-1.54-2.169Z" fill="#162e51"/>
          <path id="Path_8151" data-name="Path 8151" d="M55.153,91.14l-3.3,3.721a5.924,5.924,0,0,0-2.34-1.269L53.3,89.323A25.9,25.9,0,0,0,55.153,91.14Z" fill="#162e51"/>
          <path id="Path_8152" data-name="Path 8152" d="M86.06,56.254l2.749-3.105A25.377,25.377,0,1,1,55.153,91.14l2.055-2.32.695-.784A21.23,21.23,0,1,0,86.06,56.254Z" fill="#162e51"/>
          <path id="Path_8153" data-name="Path 8153" d="M88.809,53.149,86.06,56.254A21.23,21.23,0,1,0,57.9,88.036l-.695.784-2.055,2.32A25.9,25.9,0,0,1,53.3,89.323a25.378,25.378,0,0,1,35.51-36.174Z" fill="#162e51"/>
          <path id="Path_8154" data-name="Path 8154" d="M88.809,53.149,86.06,56.254A21.23,21.23,0,1,0,57.9,88.036l-.695.784-2.055,2.32A25.9,25.9,0,0,1,53.3,89.323a25.378,25.378,0,0,1,35.51-36.174Z" fill="#fff" opacity="0.1"/>
          <g id="Group_3838" data-name="Group 3838">
            <path id="Path_8155" data-name="Path 8155" d="M41.042,99.9l1.62,1.434,1.94,1.719L35.96,112.8l-9.6,10.834c-1.444-4.25-1.359-4.74-.743-9.627C26.027,113.55,26.032,114.469,41.042,99.9Z" fill="#162e51"/>
            <path id="Path_8156" data-name="Path 8156" d="M41.042,99.9c1.268-1.239,5.217-5.1,6.674-6.535a6.274,6.274,0,0,1,1.8.231,5.924,5.924,0,0,1,2.34,1.269L44.6,103.049Z" fill="#162e51"/>
          </g>
          <path id="Path_8157" data-name="Path 8157" d="M41.042,99.9l3.561,3.153,7.253-8.188a5.9,5.9,0,0,0-2.34-1.269c-.118-.033-.238-.063-.358-.088a6.232,6.232,0,0,0-1.443-.142c-.463.455-1.177,1.157-1.977,1.939C44.02,96.986,41.907,99.05,41.042,99.9Z" fill="#fff" opacity="0.1"/>
          <g id="Group_3839" data-name="Group 3839">
            <path id="Path_8158" data-name="Path 8158" d="M48.162,106.2c-12.648,16.64-11.857,16.71-12.257,17.161-3.831-.386-5.06-.235-9.542.276h0l9.6-10.834,8.642-9.755,1.941,1.719Z" fill="#162e51"/>
            <path id="Path_8159" data-name="Path 8159" d="M44.6,103.049l3.559,3.152c.736-.958,2.529-3.307,4-5.216.68-.888,1.289-1.682,1.687-2.2a6.214,6.214,0,0,0-.315-1.413c-.04-.116-.084-.232-.13-.345a5.942,5.942,0,0,0-1.543-2.17Z" fill="#162e51"/>
          </g>
          <path id="Path_8160" data-name="Path 8160" d="M48.949,98.143l3.208,2.842c.68-.888,1.289-1.682,1.687-2.2a6.214,6.214,0,0,0-.315-1.413l-.246-.217-1.94-1.719Z" fill="#cc1d1d"/>
          <path id="Path_8161" data-name="Path 8161" d="M48.949,98.143l3.208,2.842c.68-.888,1.289-1.682,1.687-2.2a6.214,6.214,0,0,0-.315-1.413l-.246-.217-1.94-1.719Z" fill="#cc1d1d" style="mix-blend-mode: multiply;isolation: isolate"/>
          <path id="Path_8162" data-name="Path 8162" d="M45.738,95.3l1.268,1.124,1.943,1.718,2.394-2.7L49.4,93.722l-.245-.218a6.232,6.232,0,0,0-1.443-.142C47.252,93.817,46.538,94.519,45.738,95.3Z" fill="#cc1d1d"/>
          <g id="Group_3840" data-name="Group 3840">
            <path id="Path_8163" data-name="Path 8163" d="M30.813,118.613l-5.194-4.6c.46-.339,1.957-1.041,15.423-14.115l1.62,1.434,1.94,1.719L35.96,112.8Z" fill="#fff" opacity="0.1"/>
            <path id="Path_8164" data-name="Path 8164" d="M25.619,114.011l5.194,4.6-4.451,5.025c-2.527-2.241-3.268-6.807-.877-9.506A.819.819,0,0,1,25.619,114.011Z" fill="#cc1d1d"/>
            <path id="Path_8165" data-name="Path 8165" d="M35.96,112.8l8.642-9.755,1.941,1.719,1.619,1.434c-11.328,14.9-11.876,16.515-12.154,17.013l-5.195-4.6Z" fill="#162e51"/>
            <path id="Path_8166" data-name="Path 8166" d="M36.008,123.215a.845.845,0,0,1-.1.148c-2.391,2.7-7.017,2.513-9.542.276h0l4.451-5.025Z" fill="#cc1d1d"/>
            <path id="Path_8167" data-name="Path 8167" d="M36.008,123.215a.845.845,0,0,1-.1.148c-2.391,2.7-7.017,2.513-9.542.276h0l4.451-5.025Z" fill="#cc1d1d" style="mix-blend-mode: multiply;isolation: isolate"/>
          </g>
        </g>
        <path id="Path_8168" data-name="Path 8168" d="M120.8,45.241c.627,1.147,1.221,2.329,1.77,3.525l-16.906,7.79c-.318-.695-.659-1.382-1.018-2.053Zm0,0L104.648,54.5M86,18.167,81.63,36.257c.745.2,1.492.429,2.231.679L89.82,19.312C88.562,18.885,87.282,18.5,86,18.167Zm8.511,24.439,11.259-14.815c-1.05-.8-2.138-1.567-3.243-2.291l-9.9,15.758C93.268,41.685,93.9,42.136,94.514,42.606Zm29.343,12.149-15.566,5.851a38.2,38.2,0,0,1-22.916,47,1.5,1.5,0,0,1-1.931-.878l-2.671-7.115-9.845,21.677,21.677,9.845-2.269-6.044a1.5,1.5,0,0,1,.877-1.932A54.819,54.819,0,0,0,123.857,54.755Zm-21.121-3.429L118.158,40.9c-.74-1.1-1.522-2.173-2.331-3.206L101.4,49.465C101.863,50.072,102.311,50.695,102.736,51.326ZM98.99,46.637l13.516-12.8c-.907-.96-1.855-1.894-2.827-2.786L97.358,45.012C97.921,45.539,98.468,46.083,98.99,46.637Zm-9.564-7.3,8.719-16.434c-1.168-.621-2.366-1.2-3.573-1.74L87.338,38.312C88.047,38.634,88.746,38.979,89.426,39.341ZM73.1,22.712,51.418,12.867l2.269,6.044a1.5,1.5,0,0,1-.877,1.932A54.7,54.7,0,0,0,20.4,89.948L35.959,84.1A38.076,38.076,0,0,1,58.648,36.4a1.5,1.5,0,0,1,1.931.877l2.671,7.116Z" fill="#1a4480"/>
      </g>
    </g>
  </g>
</svg>
