<svg xmlns="http://www.w3.org/2000/svg" width="125.7" height="104.5" viewBox="0 0 125.7 104.5">
  <g id="Group_9267" data-name="Group 9267" transform="translate(-384 -264.4)">
    <path id="Path_23964" data-name="Path 23964" d="M329.1,202.8l-17.5-18.4L294,202.8H249.1v85.1H374V202.8Z" transform="translate(135.3 80.6)" fill="#fff"/>
    <path id="Path_23965" data-name="Path 23965" d="M374.4,288.3H248.7V202.4h45.1l17.8-18.6,17.7,18.6h45.1Z" transform="translate(135.3 80.6)" fill="#c71f25"/>
    <path id="Path_24045" data-name="Path 24045" d="M270.8,229.6h7.9v1.2h-6.5v4.4h6.1v1.2h-6.1v5.9h-1.5V229.6Z" transform="translate(135.3 80.6)" fill="#fff"/>
    <path id="Path_24046" data-name="Path 24046" d="M288.2,237.9h-6.6a3.844,3.844,0,0,0,.8,2.6,2.869,2.869,0,0,0,2.3.9,4.556,4.556,0,0,0,2.9-1.1l.5,1.1a3.765,3.765,0,0,1-1.5.9,6.279,6.279,0,0,1-1.9.3,4.156,4.156,0,0,1-3.3-1.3,4.7,4.7,0,0,1-1.2-3.4,6.963,6.963,0,0,1,.5-2.5,4.978,4.978,0,0,1,1.5-1.7,4.032,4.032,0,0,1,2.2-.6,3.489,3.489,0,0,1,2.8,1.2,4.722,4.722,0,0,1,1,3.2v.4Zm-5.7-2.9a3.1,3.1,0,0,0-.9,1.9h5.3a3.041,3.041,0,0,0-.7-1.9,2.793,2.793,0,0,0-3.7,0Z" transform="translate(135.3 80.6)" fill="#fff"/>
    <path id="Path_24047" data-name="Path 24047" d="M298.4,229.2v13.2H297v-1.6a3.039,3.039,0,0,1-1.2,1.3,3.83,3.83,0,0,1-1.9.5,3.7,3.7,0,0,1-2.1-.6,3.907,3.907,0,0,1-1.4-1.7,6.175,6.175,0,0,1-.5-2.5,6.551,6.551,0,0,1,.5-2.5,3.638,3.638,0,0,1,1.4-1.6,3.7,3.7,0,0,1,2.1-.6,4.136,4.136,0,0,1,1.9.5,3.039,3.039,0,0,1,1.2,1.3v-5.7Zm-2.2,11.3a5.179,5.179,0,0,0,0-5.2,2.9,2.9,0,0,0-4.2,0,3.727,3.727,0,0,0-.7,2.5,4.023,4.023,0,0,0,.7,2.6,2.583,2.583,0,0,0,2.1.9A2.17,2.17,0,0,0,296.2,240.5Z" transform="translate(135.3 80.6)" fill="#fff"/>
    <path id="Path_24048" data-name="Path 24048" d="M311.4,242.4h-1.6l-1.6-4.3a2.421,2.421,0,0,0-.8-1.1,2.649,2.649,0,0,0-1.4-.3h-3.2v5.6h-1.5V229.5h5.1a5.075,5.075,0,0,1,3.2.9,3.315,3.315,0,0,1,1.1,2.6,3.317,3.317,0,0,1-2.6,3.3,1.905,1.905,0,0,1,1,.5,2.979,2.979,0,0,1,.7,1.1Zm-5-6.8q3,0,3-2.4a2.139,2.139,0,0,0-.7-1.8,3.4,3.4,0,0,0-2.2-.6H303v4.8Z" transform="translate(135.3 80.6)" fill="#fff"/>
    <path id="Path_24049" data-name="Path 24049" d="M322.1,239.1h-6.7l-1.4,3.3h-1.5l5.6-12.8h1.3l5.6,12.8h-1.5Zm-.5-1.2-2.8-6.6-2.8,6.6Z" transform="translate(135.3 80.6)" fill="#fff"/>
    <path id="Path_24050" data-name="Path 24050" d="M339.1,229.6v12.8h-1.4v-9.5l-4.2,9.5h-1l-4.2-9.5v9.5H327V229.6h1.2l4.9,11.1,4.8-11.1Z" transform="translate(135.3 80.6)" fill="#fff"/>
    <path id="Path_24051" data-name="Path 24051" d="M342.2,229.6h5.1a4.454,4.454,0,0,1,3.1,1,3.623,3.623,0,0,1,0,5.2,4.79,4.79,0,0,1-3.1,1h-3.6v5.6h-1.5Zm5,6a3.1,3.1,0,0,0,2.1-.6,2.481,2.481,0,0,0,.7-1.8,2.14,2.14,0,0,0-.7-1.8,3.281,3.281,0,0,0-2.1-.6h-3.5v4.7h3.5Z" transform="translate(135.3 80.6)" fill="#fff"/>
    <path id="Path_24052" data-name="Path 24052" d="M280.6,263.4a5.228,5.228,0,0,1-2.1-2.3,9.1,9.1,0,0,1,0-7,5.827,5.827,0,0,1,2.1-2.3,5.452,5.452,0,0,1,3.2-.8,6.051,6.051,0,0,1,2.4.4,6.151,6.151,0,0,1,1.9,1.2l-.6,1.1a5.825,5.825,0,0,0-1.8-1.1,6.447,6.447,0,0,0-2-.3,4.223,4.223,0,0,0-3.3,1.4,6.938,6.938,0,0,0,0,7.8,4.223,4.223,0,0,0,3.3,1.4,6.448,6.448,0,0,0,2-.3,5.826,5.826,0,0,0,1.8-1.1l.6,1.1a6.15,6.15,0,0,1-1.9,1.2,6.374,6.374,0,0,1-2.4.4A6.055,6.055,0,0,1,280.6,263.4Z" transform="translate(135.3 80.6)" fill="#fff"/>
    <path id="Path_24053" data-name="Path 24053" d="M291.7,263.6a4.629,4.629,0,0,1-1.5-1.6,4.869,4.869,0,0,1-.5-2.5,6.551,6.551,0,0,1,.5-2.5,3.345,3.345,0,0,1,1.5-1.6,4.333,4.333,0,0,1,4.4,0,4.629,4.629,0,0,1,1.5,1.6,4.869,4.869,0,0,1,.5,2.5,6.551,6.551,0,0,1-.5,2.5,3.346,3.346,0,0,1-1.5,1.6,4.333,4.333,0,0,1-4.4,0Zm4.3-1.5a5.179,5.179,0,0,0,0-5.2,2.9,2.9,0,0,0-4.2,0,5.179,5.179,0,0,0,0,5.2,2.9,2.9,0,0,0,4.2,0Z" transform="translate(135.3 80.6)" fill="#fff"/>
    <path id="Path_24054" data-name="Path 24054" d="M308.3,258.4v5.7h-1.5v-5.6a2.763,2.763,0,0,0-.5-1.8,2.359,2.359,0,0,0-1.6-.6,2.792,2.792,0,0,0-2,.8,2.865,2.865,0,0,0-.8,2.1v5.2h-1.5v-6.5a19.289,19.289,0,0,0-.1-2.5h1.4l.1,1.6a4.072,4.072,0,0,1,1.2-1.4,4.136,4.136,0,0,1,1.9-.5C307.2,254.8,308.3,256,308.3,258.4Z" transform="translate(135.3 80.6)" fill="#fff"/>
    <path id="Path_24055" data-name="Path 24055" d="M318.8,258.4v5.7h-1.5v-5.6a2.763,2.763,0,0,0-.5-1.8,2.359,2.359,0,0,0-1.6-.6,2.792,2.792,0,0,0-2,.8,2.865,2.865,0,0,0-.8,2.1v5.2H311v-6.5a19.289,19.289,0,0,0-.1-2.5h1.4l.1,1.6a4.072,4.072,0,0,1,1.2-1.4,4.136,4.136,0,0,1,1.9-.5C317.7,254.8,318.8,256,318.8,258.4Z" transform="translate(135.3 80.6)" fill="#fff"/>
    <path id="Path_24056" data-name="Path 24056" d="M329.1,259.5h-6.6a3.844,3.844,0,0,0,.8,2.6,2.869,2.869,0,0,0,2.3.9,4.555,4.555,0,0,0,2.9-1.1l.5,1.1a3.765,3.765,0,0,1-1.5.9,6.279,6.279,0,0,1-1.9.3,4.156,4.156,0,0,1-3.3-1.3,4.7,4.7,0,0,1-1.2-3.4,6.962,6.962,0,0,1,.5-2.5,4.977,4.977,0,0,1,1.5-1.7,4.032,4.032,0,0,1,2.2-.6,3.489,3.489,0,0,1,2.8,1.2,4.722,4.722,0,0,1,1,3.2v.4Zm-5.7-2.9a3.1,3.1,0,0,0-.9,1.9h5.3a3.041,3.041,0,0,0-.7-1.9,2.793,2.793,0,0,0-3.7,0Z" transform="translate(135.3 80.6)" fill="#fff"/>
    <path id="Path_24057" data-name="Path 24057" d="M332.8,263.6a3.318,3.318,0,0,1-1.5-1.6,6.175,6.175,0,0,1-.5-2.5,6.551,6.551,0,0,1,.5-2.5,4.978,4.978,0,0,1,1.5-1.7,4.383,4.383,0,0,1,2.3-.6,5.663,5.663,0,0,1,1.8.3,3.39,3.39,0,0,1,1.4.9l-.5,1.1a6.551,6.551,0,0,0-1.3-.8,3.079,3.079,0,0,0-1.3-.3,2.792,2.792,0,0,0-2.2.9,4.033,4.033,0,0,0-.8,2.6,3.742,3.742,0,0,0,.8,2.5,2.792,2.792,0,0,0,2.2.9,3.079,3.079,0,0,0,1.3-.3,4.58,4.58,0,0,0,1.3-.8l.5,1.1a6.706,6.706,0,0,1-1.4.9,5.663,5.663,0,0,1-1.8.3A3.1,3.1,0,0,1,332.8,263.6Z" transform="translate(135.3 80.6)" fill="#fff"/>
    <path id="Path_24058" data-name="Path 24058" d="M342.2,256.1v5a1.809,1.809,0,0,0,.4,1.4,1.594,1.594,0,0,0,1.2.4,3.554,3.554,0,0,0,1-.2v1.2a5.066,5.066,0,0,1-1.3.2,2.578,2.578,0,0,1-2-.7,2.918,2.918,0,0,1-.7-2.2v-5.1H339V255h1.8v-2.3l1.5-.5V255h2.6v1.2h-2.7v-.1Z" transform="translate(135.3 80.6)" fill="#fff"/>
  </g>
</svg>
