<?xml version="1.0" encoding="utf-8"?>
<!-- Generator: Adobe Illustrator 24.2.3, SVG Export Plug-In . SVG Version: 6.00 Build 0)  -->
<svg version="1.1" xmlns="http://www.w3.org/2000/svg" xmlns:xlink="http://www.w3.org/1999/xlink" x="0px" y="0px"
	 viewBox="0 0 320 339.5" style="enable-background:new 0 0 320 339.5;" xml:space="preserve">
<style type="text/css">
	.st0{opacity:0.46;fill:#FFFFFF;}
	.st1{fill:#0A90B7;}
	.st2{fill:#F2F2F2;}
	.st3{enable-background:new    ;}
	.st4{fill:#FFFFFF;}
	.st5{fill:#A6D7E5;}
	.st6{fill:#1294C2;}
	.st7{opacity:0.46;fill:#209ABD;}
	.st8{opacity:0.6;fill:#0A90B7;}
	.st9{fill:#444444;}
	.st10{opacity:0.55;fill:#F2F2F2;}
	.st11{opacity:0.55;}
	.st12{fill:#757575;}
	.st13{fill:#D8D8D8;}
	.st14{fill:#A00A0F;}
	.st15{fill:#C71F25;}
	.st16{opacity:0.1;enable-background:new    ;}
</style>
<g id="Layer_6">
</g>
<g id="Shapes">
</g>
<g id="background">
</g>
<g id="text">
</g>
<g id="Graphics">
</g>
<g id="Layer_5">
	<rect x="10" y="0" class="st0" width="300" height="339.5"/>
	<path id="Path_7616_1_" class="st1" d="M293.6,41.6H58.7V9.4h234.9l7.1,16.1L293.6,41.6z"/>
	<rect x="19.4" y="9.4" class="st2" width="39.3" height="32.2"/>
	<g class="st3">
		<path class="st4" d="M78.3,24.3c0,1.9-1.4,3.1-3.7,3.1h-2v2.5H71v-8.7h3.6C76.9,21.2,78.3,22.4,78.3,24.3z M76.7,24.3
			c0-1.1-0.7-1.7-2.2-1.7h-1.9V26h1.9C75.9,26,76.7,25.4,76.7,24.3z"/>
		<path class="st4" d="M83.6,23.2v1.5c-0.1,0-0.2,0-0.4,0c-1.2,0-1.9,0.7-1.9,2.1v3.2h-1.6v-6.6h1.5v1
			C81.7,23.6,82.5,23.2,83.6,23.2z"/>
		<path class="st4" d="M91.2,27.1h-5.2c0.2,1,1,1.6,2.2,1.6c0.7,0,1.3-0.2,1.8-0.7l0.8,1c-0.6,0.7-1.5,1.1-2.7,1.1
			c-2.2,0-3.7-1.4-3.7-3.4c0-2,1.5-3.4,3.4-3.4c1.9,0,3.4,1.4,3.4,3.4C91.2,26.8,91.2,27,91.2,27.1z M85.9,26.1h3.8
			c-0.1-1-0.9-1.6-1.9-1.6C86.8,24.4,86.1,25.1,85.9,26.1z"/>
		<path class="st4" d="M99.8,26.6c0,2.1-1.4,3.4-3.4,3.4c-0.8,0-1.6-0.3-2.1-0.9v3.2h-1.6v-9.1h1.5v0.9c0.5-0.6,1.3-0.9,2.2-0.9
			C98.4,23.2,99.8,24.5,99.8,26.6z M98.2,26.6c0-1.3-0.8-2.1-2-2.1s-2,0.8-2,2.1c0,1.3,0.9,2.1,2,2.1S98.2,27.9,98.2,26.6z"/>
		<path class="st4" d="M106.8,26v3.9h-1.5v-0.8c-0.4,0.6-1.1,0.9-2.1,0.9c-1.5,0-2.5-0.8-2.5-2c0-1.1,0.7-2,2.8-2h1.7v-0.1
			c0-0.9-0.5-1.4-1.7-1.4c-0.7,0-1.5,0.2-2,0.7L101,24c0.7-0.5,1.7-0.8,2.8-0.8C105.7,23.2,106.8,24.1,106.8,26z M105.3,27.8v-0.8
			h-1.6c-1.1,0-1.3,0.4-1.3,0.9c0,0.6,0.5,0.9,1.3,0.9C104.3,28.9,105,28.5,105.3,27.8z"/>
		<path class="st4" d="M112.7,23.2v1.5c-0.1,0-0.2,0-0.4,0c-1.2,0-1.9,0.7-1.9,2.1v3.2h-1.6v-6.6h1.5v1
			C110.8,23.6,111.6,23.2,112.7,23.2z"/>
		<path class="st4" d="M119.6,26v3.9h-1.5v-0.8c-0.4,0.6-1.1,0.9-2.1,0.9c-1.5,0-2.5-0.8-2.5-2c0-1.1,0.7-2,2.8-2h1.7v-0.1
			c0-0.9-0.5-1.4-1.7-1.4c-0.7,0-1.5,0.2-2,0.7l-0.6-1.1c0.7-0.5,1.7-0.8,2.8-0.8C118.5,23.2,119.6,24.1,119.6,26z M118.1,27.8v-0.8
			h-1.6c-1.1,0-1.3,0.4-1.3,0.9c0,0.6,0.5,0.9,1.3,0.9C117.1,28.9,117.8,28.5,118.1,27.8z"/>
		<path class="st4" d="M125.7,29.6c-0.4,0.3-0.9,0.4-1.5,0.4c-1.5,0-2.3-0.8-2.3-2.2v-3.2h-1.1v-1.2h1.1v-1.5h1.6v1.5h1.8v1.2h-1.8
			v3.2c0,0.6,0.3,1,0.9,1c0.3,0,0.6-0.1,0.9-0.3L125.7,29.6z"/>
		<path class="st4" d="M126.8,21.2c0-0.5,0.4-0.9,1-0.9c0.6,0,1,0.4,1,0.9c0,0.5-0.4,1-1,1C127.2,22.2,126.8,21.8,126.8,21.2z
			 M127,23.3h1.6v6.6H127V23.3z"/>
		<path class="st4" d="M130.1,26.6c0-2,1.5-3.4,3.5-3.4c2.1,0,3.5,1.4,3.5,3.4s-1.5,3.4-3.5,3.4C131.6,30,130.1,28.6,130.1,26.6z
			 M135.6,26.6c0-1.3-0.8-2.1-2-2.1c-1.1,0-2,0.8-2,2.1c0,1.3,0.8,2.1,2,2.1C134.8,28.7,135.6,27.9,135.6,26.6z"/>
		<path class="st4" d="M145.3,26.1v3.8h-1.6v-3.6c0-1.2-0.6-1.8-1.6-1.8c-1.1,0-1.9,0.7-1.9,2v3.4h-1.6v-6.6h1.5v0.9
			c0.5-0.6,1.3-0.9,2.3-0.9C144.1,23.2,145.3,24.1,145.3,26.1z"/>
	</g>
	<g>
		<path class="st4" d="M33.9,33.6c-1.8,0-3.3-0.7-4.5-2.2c-1.1-1.5-1.7-3.5-1.7-5.9c0-2.4,0.6-4.4,1.7-5.9c1.1-1.5,2.6-2.2,4.5-2.2
			c1.8,0,3.3,0.8,4.5,2.2c1.1,1.5,1.7,3.5,1.7,5.9c0,2.4-0.6,4.4-1.7,5.9C37.2,32.8,35.7,33.6,33.9,33.6L33.9,33.6z M33.9,20.9
			c-0.5,0-0.8,0.3-1,0.8c-0.2,0.5-0.4,1.5-0.4,3.7c0,2.2,0.2,3.2,0.4,3.7c0.2,0.6,0.5,0.8,1,0.8c0.5,0,0.8-0.3,1-0.8
			c0.2-0.5,0.4-1.5,0.4-3.7c0-2.2-0.2-3.2-0.4-3.7C34.7,21.2,34.4,20.9,33.9,20.9L33.9,20.9z M49.4,33.6c0.3,0,0.6-0.4,0.6-0.8v-2
			c0-0.5-0.3-0.8-0.6-0.8h-0.8c-0.8,0-0.9-0.4-0.9-0.9V18.1c0-0.5-0.3-0.8-0.6-0.8h-2.7c-0.3,0-0.5,0.2-0.6,0.5
			c-0.2,0.5-0.4,0.8-0.9,1.1c-0.5,0.3-1.2,0.4-2,0.5c-0.3,0-0.6,0.4-0.6,0.8v2c0,0.2,0.1,0.4,0.2,0.6c0.1,0.2,0.3,0.2,0.4,0.2h1.8
			v5.9v0.5c0,0.3,0,0.6-0.9,0.6h-0.9c-0.3,0-0.6,0.4-0.6,0.8v2c0,0.5,0.3,0.8,0.6,0.8H49.4L49.4,33.6z"/>
		<path class="st1" d="M40.9,32.7v-2h0.9c0.6,0,1-0.1,1.2-0.2c0.2-0.1,0.3-0.5,0.3-1.2v-0.5v-6.8h-2.5v-2c0.9,0,1.7-0.2,2.3-0.5
			c0.6-0.3,1-0.8,1.2-1.5h2.7v10.9c0,0.8,0.1,1.3,0.2,1.4c0.2,0.2,0.6,0.3,1.3,0.3h0.8v2H40.9z M28.3,25.5c0-2.2,0.5-4,1.6-5.3
			c1-1.3,2.4-2,4.1-2c1.7,0,3,0.7,4.1,2c1,1.3,1.5,3.1,1.5,5.3c0,2.2-0.5,4-1.6,5.3c-1,1.3-2.4,2-4.1,2c-1.7,0-3-0.7-4.1-2
			C28.8,29.4,28.3,27.7,28.3,25.5z M31.9,25.5c0,1.9,0.2,3.2,0.5,4.1c0.3,0.8,0.8,1.2,1.5,1.2c0.7,0,1.2-0.4,1.6-1.3
			c0.3-0.8,0.5-2.2,0.5-4.1c0-1.9-0.2-3.3-0.5-4.1c-0.3-0.8-0.8-1.3-1.5-1.3c-0.7,0-1.2,0.4-1.6,1.3C32,22.2,31.9,23.6,31.9,25.5z"
			/>
		<path class="st5" d="M47.2,30.6L47,31c-0.3-0.3-0.4-0.9-0.4-1.9V18.8l0.3-0.4v10.7C46.9,29.9,47,30.4,47.2,30.6z M43.4,21.5h-2
			l-0.3,0.4h2.3c0,0,0.1,0,0.1,0.1l0.2-0.3C43.6,21.6,43.5,21.5,43.4,21.5z M48.9,31.4v0.8h-7.5l-0.3,0.4h8.2V31L48.9,31.4z
			 M32.2,29.6c-0.3-0.9-0.5-2.2-0.5-4.2c0-1.9,0.2-3.3,0.5-4.2c0.3-0.9,0.9-1.4,1.7-1.4c0.5,0,1,0.2,1.3,0.6l0.2-0.3
			c-0.4-0.5-0.9-0.8-1.5-0.8c-0.9,0-1.5,0.5-1.9,1.6c-0.4,0.9-0.5,2.4-0.5,4.3c0,2,0.2,3.4,0.5,4.3c0.1,0.3,0.3,0.6,0.4,0.8l0.2-0.3
			C32.4,30.1,32.3,29.9,32.2,29.6z M37.9,20.3l-0.2,0.3c0.9,1.2,1.4,2.8,1.4,4.8c0,2-0.5,3.7-1.4,4.9c-0.9,1.2-2.2,1.8-3.8,1.8
			c-1.6,0-2.8-0.6-3.8-1.8v0l-0.2,0.3c0,0,0,0,0,0c1,1.3,2.3,2,4,2c1.6,0,3-0.7,4-2c1-1.3,1.5-3,1.5-5.2
			C39.4,23.3,38.9,21.6,37.9,20.3z"/>
	</g>
	<g class="st11">
		<path id="Path_1554_4_" class="st12" d="M167.7,149.4c0,4.2-3.4,7.6-7.6,7.6c-4.2,0-7.6-3.4-7.6-7.6s3.4-7.6,7.6-7.6
			C164.3,141.8,167.7,145.2,167.7,149.4z"/>
		<g id="Group_1434_4_" transform="translate(4.574 4.222)">
			<g id="arrow_4_" transform="translate(4.574 0)">
				<path id="arrow-2_4_" class="st4" d="M151,149.7c-0.2,0-0.4-0.1-0.6-0.2l-3.3-3.2c-0.3-0.3-0.3-0.8-0.1-1.1c0,0,0,0,0.1-0.1
					c0.3-0.3,0.8-0.3,1.2,0c0,0,0,0,0,0l2.7,2.7l2.7-2.7c0.3-0.3,0.8-0.3,1.2,0c0,0,0,0,0,0c0.3,0.3,0.3,0.8,0,1.1c0,0,0,0,0,0
					l-3.3,3.2C151.4,149.6,151.2,149.7,151,149.7z"/>
			</g>
			<path class="st4" d="M155.5,148.9c-0.6,0-1-0.4-1-1v-6.7c0-0.6,0.4-1,1-1s1,0.4,1,1v6.7C156.5,148.5,156,148.9,155.5,148.9z"/>
		</g>
	</g>
	<g class="st11">
		<path id="Path_1554_2_" class="st12" d="M167.7,236.4c0,4.2-3.4,7.6-7.6,7.6c-4.2,0-7.6-3.4-7.6-7.6s3.4-7.6,7.6-7.6
			C164.3,228.9,167.7,232.3,167.7,236.4z"/>
		<g id="Group_1434_2_" transform="translate(4.574 4.222)">
			<g id="arrow_2_" transform="translate(4.574 0)">
				<path id="arrow-2_2_" class="st4" d="M151,236.8c-0.2,0-0.4-0.1-0.6-0.2l-3.3-3.2c-0.3-0.3-0.3-0.8-0.1-1.1c0,0,0,0,0.1-0.1
					c0.3-0.3,0.8-0.3,1.2,0c0,0,0,0,0,0l2.7,2.7l2.7-2.7c0.3-0.3,0.8-0.3,1.2,0c0,0,0,0,0,0c0.3,0.3,0.3,0.8,0,1.1c0,0,0,0,0,0
					l-3.3,3.2C151.4,236.7,151.2,236.8,151,236.8z"/>
			</g>
			<path class="st4" d="M155.5,236c-0.6,0-1-0.4-1-1v-6.8c0-0.6,0.4-1,1-1s1,0.4,1,1v6.8C156.5,235.6,156,236,155.5,236z"/>
		</g>
	</g>
	<g class="st11">
		<rect x="28.5" y="249.7" class="st2" width="263.1" height="76"/>
		<g>
			<g>
				<path class="st9" d="M71.2,297.4c-0.4-0.2-0.8-0.4-1.1-0.7l0.3-0.5c0.4,0.3,0.7,0.5,1.1,0.7c0.4,0.1,0.8,0.2,1.3,0.2
					c0.6,0,1.1-0.1,1.4-0.4c0.3-0.2,0.5-0.6,0.5-1c0-0.3-0.1-0.5-0.2-0.6c-0.2-0.2-0.4-0.3-0.6-0.4c-0.3-0.1-0.6-0.2-1-0.3
					c-0.5-0.1-1-0.2-1.3-0.4c-0.3-0.1-0.6-0.3-0.9-0.6c-0.2-0.3-0.4-0.6-0.4-1c0-0.4,0.1-0.8,0.3-1.1c0.2-0.3,0.5-0.5,0.9-0.7
					s0.8-0.3,1.3-0.3c0.5,0,0.9,0.1,1.4,0.2c0.4,0.2,0.8,0.4,1.1,0.7l-0.3,0.5c-0.3-0.3-0.7-0.5-1-0.7c-0.3-0.1-0.7-0.2-1.1-0.2
					c-0.6,0-1.1,0.1-1.4,0.4c-0.3,0.3-0.5,0.6-0.5,1.1c0,0.4,0.1,0.7,0.4,0.9s0.7,0.4,1.3,0.5l0.3,0.1c0.5,0.1,1,0.3,1.3,0.4
					c0.3,0.1,0.6,0.3,0.8,0.5c0.2,0.2,0.3,0.6,0.3,1c0,0.4-0.1,0.7-0.3,1c-0.2,0.3-0.5,0.5-0.9,0.7c-0.4,0.2-0.8,0.2-1.3,0.2
					C72.1,297.6,71.6,297.5,71.2,297.4z"/>
				<path class="st9" d="M76.9,294.9L76.9,294.9c0,0.7,0.2,1.2,0.5,1.6c0.3,0.4,0.8,0.5,1.4,0.5c0.6,0,1.2-0.2,1.7-0.6l0.2,0.5
					c-0.2,0.2-0.5,0.4-0.8,0.5c-0.3,0.1-0.7,0.2-1.1,0.2c-0.8,0-1.4-0.2-1.8-0.7c-0.4-0.5-0.7-1.1-0.7-1.9c0-0.5,0.1-1,0.3-1.4
					c0.2-0.4,0.5-0.7,0.8-0.9c0.4-0.2,0.8-0.3,1.2-0.3c0.7,0,1.2,0.2,1.6,0.6c0.4,0.4,0.6,1,0.6,1.8v0.1H76.9z M77.5,293.3
					c-0.3,0.3-0.5,0.7-0.5,1.2h3.2c0-0.5-0.2-0.9-0.5-1.2c-0.3-0.3-0.6-0.4-1.1-0.4C78.1,292.9,77.8,293,77.5,293.3z"/>
				<path class="st9" d="M82.9,297.3c-0.4-0.2-0.6-0.5-0.8-0.9c-0.2-0.4-0.3-0.8-0.3-1.4c0-0.5,0.1-1,0.3-1.4
					c0.2-0.4,0.5-0.7,0.8-0.9c0.4-0.2,0.8-0.3,1.3-0.3c0.3,0,0.7,0.1,1,0.2s0.6,0.3,0.8,0.5l-0.2,0.5c-0.3-0.2-0.5-0.4-0.7-0.5
					s-0.5-0.1-0.7-0.1c-0.5,0-1,0.2-1.3,0.6c-0.3,0.4-0.5,0.9-0.5,1.5c0,0.6,0.2,1.1,0.5,1.5c0.3,0.4,0.7,0.5,1.3,0.5
					c0.3,0,0.5,0,0.7-0.1s0.5-0.2,0.7-0.5l0.2,0.5c-0.2,0.2-0.5,0.4-0.8,0.5c-0.3,0.1-0.6,0.2-1,0.2
					C83.6,297.6,83.2,297.5,82.9,297.3z"/>
				<path class="st9" d="M91.1,292.5v5h-0.6v-0.9c-0.2,0.3-0.4,0.6-0.7,0.7c-0.3,0.2-0.6,0.3-1,0.3c-0.6,0-1-0.2-1.3-0.5
					c-0.3-0.3-0.5-0.8-0.5-1.5v-3.2h0.6v3.1c0,0.5,0.1,0.9,0.3,1.1c0.2,0.2,0.5,0.4,0.9,0.4c0.5,0,0.9-0.2,1.2-0.5
					c0.3-0.3,0.4-0.7,0.4-1.2v-2.9H91.1z"/>
				<path class="st9" d="M95.4,292.4l0,0.6c-0.1,0-0.3,0-0.5,0c-0.5,0-0.9,0.2-1.1,0.5c-0.3,0.3-0.4,0.7-0.4,1.2v3h-0.6v-3.6
					c0-0.5,0-1-0.1-1.4h0.6l0.1,0.9c0.1-0.3,0.3-0.6,0.6-0.8c0.3-0.2,0.6-0.3,1-0.3C95.1,292.4,95.3,292.4,95.4,292.4z"/>
				<path class="st9" d="M97.1,290.4v0.8h-0.8v-0.8H97.1z M96.4,292.5H97v5h-0.6V292.5z"/>
				<path class="st9" d="M99.6,293v3c0,0.4,0.1,0.7,0.2,0.8c0.2,0.2,0.4,0.2,0.7,0.2c0.2,0,0.4,0,0.5-0.1v0.6
					c-0.2,0.1-0.4,0.1-0.7,0.1c-0.4,0-0.8-0.1-1-0.4c-0.3-0.2-0.4-0.6-0.4-1.1V293h-1v-0.5h1v-1.3l0.6-0.2v1.6h1.5v0.5H99.6z"/>
				<path class="st9" d="M106.4,292.5l-2.4,5.5c-0.2,0.5-0.5,1-0.9,1.2c-0.4,0.3-0.8,0.4-1.3,0.5l-0.1-0.5c0.5-0.1,0.8-0.3,1.1-0.4
					c0.2-0.2,0.4-0.5,0.6-0.9l0.2-0.5l-2.1-5h0.7l1.8,4.4l1.8-4.4H106.4z"/>
				<path class="st9" d="M114.9,295.6H111l-0.8,1.9h-0.6l3.1-7.1h0.6l3.1,7.1h-0.6L114.9,295.6z M114.6,295.1l-1.7-3.9l-1.7,3.9
					H114.6z"/>
				<path class="st9" d="M121.5,292.5v5h-0.6v-0.9c-0.2,0.3-0.4,0.6-0.7,0.7c-0.3,0.2-0.6,0.3-1,0.3c-0.6,0-1-0.2-1.3-0.5
					c-0.3-0.3-0.5-0.8-0.5-1.5v-3.2h0.6v3.1c0,0.5,0.1,0.9,0.3,1.1c0.2,0.2,0.5,0.4,0.9,0.4c0.5,0,0.9-0.2,1.2-0.5
					c0.3-0.3,0.4-0.7,0.4-1.2v-2.9H121.5z"/>
				<path class="st9" d="M124.1,293v3c0,0.4,0.1,0.7,0.2,0.8c0.2,0.2,0.4,0.2,0.7,0.2c0.2,0,0.4,0,0.5-0.1v0.6
					c-0.2,0.1-0.4,0.1-0.7,0.1c-0.4,0-0.8-0.1-1-0.4c-0.3-0.2-0.4-0.6-0.4-1.1V293h-1v-0.5h1v-1.3l0.6-0.2v1.6h1.5v0.5H124.1z"/>
				<path class="st9" d="M130.8,294.3v3.2h-0.6v-3.2c0-0.5-0.1-0.9-0.3-1.1c-0.2-0.2-0.5-0.4-1-0.4c-0.5,0-0.9,0.2-1.2,0.5
					c-0.3,0.3-0.5,0.7-0.5,1.2v2.9h-0.6v-7.4h0.6v3.2c0.2-0.3,0.4-0.6,0.7-0.7c0.3-0.2,0.6-0.3,1-0.3
					C130.2,292.4,130.8,293,130.8,294.3z"/>
				<path class="st9" d="M133.3,297.3c-0.4-0.2-0.6-0.5-0.8-0.9c-0.2-0.4-0.3-0.9-0.3-1.4s0.1-1,0.3-1.4c0.2-0.4,0.5-0.7,0.8-0.9
					c0.4-0.2,0.8-0.3,1.2-0.3c0.5,0,0.9,0.1,1.2,0.3c0.3,0.2,0.6,0.5,0.8,0.9c0.2,0.4,0.3,0.9,0.3,1.4s-0.1,1-0.3,1.4
					c-0.2,0.4-0.5,0.7-0.8,0.9c-0.3,0.2-0.7,0.3-1.2,0.3C134,297.6,133.6,297.5,133.3,297.3z M135.7,296.5c0.3-0.4,0.4-0.9,0.4-1.5
					c0-0.7-0.1-1.2-0.4-1.5c-0.3-0.4-0.7-0.5-1.2-0.5c-0.5,0-0.9,0.2-1.2,0.5c-0.3,0.4-0.4,0.9-0.4,1.5c0,0.7,0.1,1.2,0.4,1.5
					c0.3,0.4,0.7,0.5,1.2,0.5C135,297,135.4,296.9,135.7,296.5z"/>
				<path class="st9" d="M140.8,292.4l0,0.6c-0.1,0-0.3,0-0.5,0c-0.5,0-0.9,0.2-1.1,0.5c-0.3,0.3-0.4,0.7-0.4,1.2v3h-0.6v-3.6
					c0-0.5,0-1-0.1-1.4h0.6l0.1,0.9c0.1-0.3,0.3-0.6,0.6-0.8c0.3-0.2,0.6-0.3,1-0.3C140.5,292.4,140.7,292.4,140.8,292.4z"/>
				<path class="st9" d="M142.5,290.4v0.8h-0.8v-0.8H142.5z M141.7,292.5h0.6v5h-0.6V292.5z"/>
				<path class="st9" d="M148,297v0.5h-4.2v-0.4l3.3-4.1h-3.2v-0.5h4v0.5l-3.3,4.1H148z"/>
				<path class="st9" d="M153.5,292.5v5h-0.6v-1c-0.1,0.3-0.4,0.6-0.7,0.8c-0.3,0.2-0.7,0.3-1.1,0.3c-0.4,0-0.8-0.1-1.2-0.3
					c-0.3-0.2-0.6-0.5-0.8-0.9c-0.2-0.4-0.3-0.8-0.3-1.4c0-0.5,0.1-1,0.3-1.4c0.2-0.4,0.4-0.7,0.8-0.9c0.3-0.2,0.7-0.3,1.2-0.3
					c0.4,0,0.8,0.1,1.1,0.3c0.3,0.2,0.5,0.4,0.7,0.8v-0.9H153.5z M152.4,296.5c0.3-0.4,0.4-0.9,0.4-1.5c0-0.7-0.1-1.2-0.4-1.5
					c-0.3-0.4-0.7-0.5-1.2-0.5c-0.5,0-0.9,0.2-1.2,0.6s-0.4,0.9-0.4,1.5c0,0.6,0.1,1.2,0.4,1.5c0.3,0.4,0.7,0.5,1.2,0.5
					C151.7,297,152.1,296.9,152.4,296.5z"/>
				<path class="st9" d="M156,293v3c0,0.4,0.1,0.7,0.2,0.8c0.2,0.2,0.4,0.2,0.7,0.2c0.2,0,0.4,0,0.5-0.1v0.6
					c-0.2,0.1-0.4,0.1-0.7,0.1c-0.4,0-0.8-0.1-1-0.4c-0.3-0.2-0.4-0.6-0.4-1.1V293h-1v-0.5h1v-1.3l0.6-0.2v1.6h1.5v0.5H156z"/>
				<path class="st9" d="M159.3,290.4v0.8h-0.8v-0.8H159.3z M158.6,292.5h0.6v5h-0.6V292.5z"/>
				<path class="st9" d="M161.7,297.3c-0.4-0.2-0.6-0.5-0.8-0.9c-0.2-0.4-0.3-0.9-0.3-1.4s0.1-1,0.3-1.4c0.2-0.4,0.5-0.7,0.8-0.9
					c0.4-0.2,0.8-0.3,1.2-0.3c0.5,0,0.9,0.1,1.2,0.3c0.3,0.2,0.6,0.5,0.8,0.9c0.2,0.4,0.3,0.9,0.3,1.4s-0.1,1-0.3,1.4
					c-0.2,0.4-0.5,0.7-0.8,0.9c-0.3,0.2-0.7,0.3-1.2,0.3C162.5,297.6,162.1,297.5,161.7,297.3z M164.2,296.5
					c0.3-0.4,0.4-0.9,0.4-1.5c0-0.7-0.1-1.2-0.4-1.5c-0.3-0.4-0.7-0.5-1.2-0.5c-0.5,0-0.9,0.2-1.2,0.5c-0.3,0.4-0.4,0.9-0.4,1.5
					c0,0.7,0.1,1.2,0.4,1.5c0.3,0.4,0.7,0.5,1.2,0.5C163.5,297,163.9,296.9,164.2,296.5z"/>
				<path class="st9" d="M170.8,294.3v3.2h-0.6v-3.2c0-0.5-0.1-0.9-0.3-1.1c-0.2-0.2-0.5-0.4-1-0.4c-0.5,0-0.9,0.2-1.2,0.5
					c-0.3,0.3-0.5,0.7-0.5,1.2v2.9h-0.6v-3.6c0-0.5,0-1-0.1-1.4h0.6l0.1,0.9c0.2-0.3,0.4-0.6,0.7-0.8c0.3-0.2,0.7-0.3,1.1-0.3
					C170.2,292.4,170.8,293,170.8,294.3z"/>
				<path class="st9" d="M175.2,290.4h2.7c0.7,0,1.3,0.2,1.7,0.5c0.4,0.3,0.6,0.8,0.6,1.4c0,0.6-0.2,1.1-0.6,1.5s-1,0.5-1.7,0.5
					h-2.1v3.2h-0.6V290.4z M177.9,293.8c0.6,0,1-0.1,1.3-0.4c0.3-0.2,0.4-0.6,0.4-1.1c0-0.5-0.1-0.8-0.4-1.1
					c-0.3-0.2-0.7-0.4-1.3-0.4h-2.1v2.9H177.9z"/>
				<path class="st9" d="M185.7,292.5v5h-0.6v-1c-0.1,0.3-0.4,0.6-0.7,0.8c-0.3,0.2-0.7,0.3-1.1,0.3c-0.4,0-0.8-0.1-1.2-0.3
					c-0.3-0.2-0.6-0.5-0.8-0.9c-0.2-0.4-0.3-0.8-0.3-1.4c0-0.5,0.1-1,0.3-1.4c0.2-0.4,0.4-0.7,0.8-0.9c0.3-0.2,0.7-0.3,1.2-0.3
					c0.4,0,0.8,0.1,1.1,0.3c0.3,0.2,0.5,0.4,0.7,0.8v-0.9H185.7z M184.7,296.5c0.3-0.4,0.4-0.9,0.4-1.5c0-0.7-0.1-1.2-0.4-1.5
					c-0.3-0.4-0.7-0.5-1.2-0.5c-0.5,0-0.9,0.2-1.2,0.6s-0.4,0.9-0.4,1.5c0,0.6,0.1,1.2,0.4,1.5c0.3,0.4,0.7,0.5,1.2,0.5
					C184,297,184.4,296.9,184.7,296.5z"/>
				<path class="st9" d="M188.2,297.3c-0.4-0.2-0.6-0.5-0.8-0.9c-0.2-0.4-0.3-0.8-0.3-1.4c0-0.5,0.1-1,0.3-1.4
					c0.2-0.4,0.5-0.7,0.8-0.9c0.4-0.2,0.8-0.3,1.3-0.3c0.3,0,0.7,0.1,1,0.2s0.6,0.3,0.8,0.5l-0.2,0.5c-0.3-0.2-0.5-0.4-0.7-0.5
					s-0.5-0.1-0.7-0.1c-0.5,0-1,0.2-1.3,0.6c-0.3,0.4-0.5,0.9-0.5,1.5c0,0.6,0.2,1.1,0.5,1.5c0.3,0.4,0.7,0.5,1.3,0.5
					c0.3,0,0.5,0,0.7-0.1s0.5-0.2,0.7-0.5l0.2,0.5c-0.2,0.2-0.5,0.4-0.8,0.5c-0.3,0.1-0.6,0.2-1,0.2
					C189,297.6,188.6,297.5,188.2,297.3z"/>
				<path class="st9" d="M195.8,297.5l-2.8-2.4v2.4h-0.6v-7.4h0.6v4.7l2.5-2.3h0.8l-2.6,2.4l2.9,2.6H195.8z"/>
				<path class="st9" d="M201.6,292.5v5H201v-1c-0.1,0.3-0.4,0.6-0.7,0.8c-0.3,0.2-0.7,0.3-1.1,0.3c-0.4,0-0.8-0.1-1.2-0.3
					c-0.3-0.2-0.6-0.5-0.8-0.9c-0.2-0.4-0.3-0.8-0.3-1.4c0-0.5,0.1-1,0.3-1.4c0.2-0.4,0.4-0.7,0.8-0.9c0.3-0.2,0.7-0.3,1.2-0.3
					c0.4,0,0.8,0.1,1.1,0.3c0.3,0.2,0.5,0.4,0.7,0.8v-0.9H201.6z M200.6,296.5c0.3-0.4,0.4-0.9,0.4-1.5c0-0.7-0.1-1.2-0.4-1.5
					c-0.3-0.4-0.7-0.5-1.2-0.5c-0.5,0-0.9,0.2-1.2,0.6s-0.4,0.9-0.4,1.5c0,0.6,0.1,1.2,0.4,1.5c0.3,0.4,0.7,0.5,1.2,0.5
					C199.9,297,200.3,296.9,200.6,296.5z"/>
				<path class="st9" d="M207.6,292.5v5c0,0.7-0.2,1.3-0.5,1.7s-0.9,0.6-1.6,0.6c-0.7,0-1.4-0.2-2-0.5l0.1-0.5
					c0.3,0.2,0.6,0.3,0.9,0.4c0.3,0.1,0.6,0.1,0.9,0.1c0.5,0,0.9-0.1,1.1-0.4c0.3-0.3,0.4-0.7,0.4-1.2v-1.3
					c-0.2,0.3-0.4,0.6-0.7,0.8c-0.3,0.2-0.7,0.3-1.1,0.3c-0.4,0-0.8-0.1-1.2-0.3s-0.6-0.5-0.8-0.9c-0.2-0.4-0.3-0.8-0.3-1.3
					c0-0.5,0.1-0.9,0.3-1.3c0.2-0.4,0.5-0.7,0.8-0.9c0.3-0.2,0.7-0.3,1.2-0.3c0.4,0,0.8,0.1,1.1,0.3c0.3,0.2,0.5,0.4,0.7,0.8v-0.9
					H207.6z M206.6,296.3c0.3-0.3,0.4-0.8,0.4-1.4c0-0.6-0.1-1.1-0.4-1.4c-0.3-0.4-0.7-0.5-1.2-0.5c-0.5,0-0.9,0.2-1.2,0.5
					c-0.3,0.4-0.5,0.8-0.5,1.4s0.2,1.1,0.5,1.4c0.3,0.3,0.7,0.5,1.2,0.5C205.9,296.8,206.3,296.6,206.6,296.3z"/>
				<path class="st9" d="M209.7,294.9L209.7,294.9c0,0.7,0.2,1.2,0.5,1.6c0.3,0.4,0.8,0.5,1.4,0.5c0.6,0,1.2-0.2,1.7-0.6l0.2,0.5
					c-0.2,0.2-0.5,0.4-0.8,0.5c-0.3,0.1-0.7,0.2-1.1,0.2c-0.8,0-1.4-0.2-1.8-0.7c-0.4-0.5-0.7-1.1-0.7-1.9c0-0.5,0.1-1,0.3-1.4
					c0.2-0.4,0.5-0.7,0.8-0.9c0.4-0.2,0.8-0.3,1.2-0.3c0.7,0,1.2,0.2,1.6,0.6c0.4,0.4,0.6,1,0.6,1.8v0.1H209.7z M210.3,293.3
					c-0.3,0.3-0.5,0.7-0.5,1.2h3.2c0-0.5-0.2-0.9-0.5-1.2c-0.3-0.3-0.6-0.4-1.1-0.4C210.9,292.9,210.6,293,210.3,293.3z"/>
				<path class="st9" d="M218,297.1c-0.2-0.7-0.3-1.5-0.3-2.3c0-0.8,0.1-1.5,0.3-2.3c0.2-0.7,0.4-1.5,0.8-2.2h0.5
					c-0.4,0.8-0.6,1.6-0.8,2.3s-0.2,1.4-0.2,2.2c0,0.7,0.1,1.4,0.2,2.2c0.2,0.7,0.4,1.5,0.8,2.3h-0.5
					C218.4,298.6,218.1,297.8,218,297.1z"/>
				<path class="st9" d="M221.3,297.4c-0.4-0.2-0.8-0.4-1.1-0.7l0.3-0.5c0.4,0.3,0.7,0.5,1.1,0.7c0.4,0.1,0.8,0.2,1.3,0.2
					c0.6,0,1.1-0.1,1.4-0.4c0.3-0.2,0.5-0.6,0.5-1c0-0.3-0.1-0.5-0.2-0.6c-0.2-0.2-0.4-0.3-0.6-0.4c-0.3-0.1-0.6-0.2-1-0.3
					c-0.5-0.1-1-0.2-1.3-0.4c-0.3-0.1-0.6-0.3-0.9-0.6c-0.2-0.3-0.4-0.6-0.4-1c0-0.4,0.1-0.8,0.3-1.1c0.2-0.3,0.5-0.5,0.9-0.7
					s0.8-0.3,1.3-0.3c0.5,0,0.9,0.1,1.4,0.2c0.4,0.2,0.8,0.4,1.1,0.7l-0.3,0.5c-0.3-0.3-0.7-0.5-1-0.7c-0.3-0.1-0.7-0.2-1.1-0.2
					c-0.6,0-1.1,0.1-1.4,0.4c-0.3,0.3-0.5,0.6-0.5,1.1c0,0.4,0.1,0.7,0.4,0.9s0.7,0.4,1.3,0.5l0.3,0.1c0.5,0.1,1,0.3,1.3,0.4
					c0.3,0.1,0.6,0.3,0.8,0.5c0.2,0.2,0.3,0.6,0.3,1c0,0.4-0.1,0.7-0.3,1c-0.2,0.3-0.5,0.5-0.9,0.7c-0.4,0.2-0.8,0.2-1.3,0.2
					C222.3,297.6,221.8,297.5,221.3,297.4z"/>
				<path class="st9" d="M227.5,297.4c-0.4-0.2-0.8-0.4-1.1-0.7l0.3-0.5c0.4,0.3,0.7,0.5,1.1,0.7c0.4,0.1,0.8,0.2,1.3,0.2
					c0.6,0,1.1-0.1,1.4-0.4c0.3-0.2,0.5-0.6,0.5-1c0-0.3-0.1-0.5-0.2-0.6c-0.2-0.2-0.4-0.3-0.6-0.4c-0.3-0.1-0.6-0.2-1-0.3
					c-0.5-0.1-1-0.2-1.3-0.4c-0.3-0.1-0.6-0.3-0.9-0.6c-0.2-0.3-0.4-0.6-0.4-1c0-0.4,0.1-0.8,0.3-1.1c0.2-0.3,0.5-0.5,0.9-0.7
					s0.8-0.3,1.3-0.3c0.5,0,0.9,0.1,1.4,0.2c0.4,0.2,0.8,0.4,1.1,0.7l-0.3,0.5c-0.3-0.3-0.7-0.5-1-0.7c-0.3-0.1-0.7-0.2-1.1-0.2
					c-0.6,0-1.1,0.1-1.4,0.4c-0.3,0.3-0.5,0.6-0.5,1.1c0,0.4,0.1,0.7,0.4,0.9s0.7,0.4,1.3,0.5l0.3,0.1c0.5,0.1,1,0.3,1.3,0.4
					c0.3,0.1,0.6,0.3,0.8,0.5c0.2,0.2,0.3,0.6,0.3,1c0,0.4-0.1,0.7-0.3,1c-0.2,0.3-0.5,0.5-0.9,0.7c-0.4,0.2-0.8,0.2-1.3,0.2
					C228.5,297.6,228,297.5,227.5,297.4z"/>
				<path class="st9" d="M233,290.4h2.7c0.7,0,1.3,0.2,1.7,0.5c0.4,0.3,0.6,0.8,0.6,1.4c0,0.6-0.2,1.1-0.6,1.5s-1,0.5-1.7,0.5h-2.1
					v3.2H233V290.4z M235.7,293.8c0.6,0,1-0.1,1.3-0.4c0.3-0.2,0.4-0.6,0.4-1.1c0-0.5-0.1-0.8-0.4-1.1c-0.3-0.2-0.7-0.4-1.3-0.4
					h-2.1v2.9H235.7z"/>
				<path class="st9" d="M239.6,296.6v0.6c0,0.3,0,0.5-0.1,0.7c-0.1,0.2-0.2,0.4-0.4,0.6l-0.3-0.3c0.2-0.3,0.4-0.5,0.4-0.8h-0.4
					v-0.9H239.6z"/>
				<path class="st9" d="M244.6,297.4c-0.4-0.2-0.8-0.4-1.1-0.7l0.3-0.5c0.4,0.3,0.7,0.5,1.1,0.7c0.4,0.1,0.8,0.2,1.3,0.2
					c0.6,0,1.1-0.1,1.4-0.4c0.3-0.2,0.5-0.6,0.5-1c0-0.3-0.1-0.5-0.2-0.6c-0.2-0.2-0.4-0.3-0.6-0.4c-0.3-0.1-0.6-0.2-1-0.3
					c-0.5-0.1-1-0.2-1.3-0.4c-0.3-0.1-0.6-0.3-0.9-0.6c-0.2-0.3-0.4-0.6-0.4-1c0-0.4,0.1-0.8,0.3-1.1c0.2-0.3,0.5-0.5,0.9-0.7
					s0.8-0.3,1.3-0.3c0.5,0,0.9,0.1,1.4,0.2c0.4,0.2,0.8,0.4,1.1,0.7l-0.3,0.5c-0.3-0.3-0.7-0.5-1-0.7c-0.3-0.1-0.7-0.2-1.1-0.2
					c-0.6,0-1.1,0.1-1.4,0.4c-0.3,0.3-0.5,0.6-0.5,1.1c0,0.4,0.1,0.7,0.4,0.9s0.7,0.4,1.3,0.5l0.3,0.1c0.5,0.1,1,0.3,1.3,0.4
					c0.3,0.1,0.6,0.3,0.8,0.5c0.2,0.2,0.3,0.6,0.3,1c0,0.4-0.1,0.7-0.3,1c-0.2,0.3-0.5,0.5-0.9,0.7c-0.4,0.2-0.8,0.2-1.3,0.2
					C245.6,297.6,245.1,297.5,244.6,297.4z"/>
				<path class="st9" d="M254.8,295.6h-3.9l-0.8,1.9h-0.6l3.1-7.1h0.6l3.1,7.1h-0.6L254.8,295.6z M254.5,295.1l-1.7-3.9l-1.7,3.9
					H254.5z"/>
				<path class="st9" d="M257.5,290.4h2.7c0.7,0,1.3,0.2,1.7,0.5c0.4,0.3,0.6,0.8,0.6,1.4c0,0.6-0.2,1.1-0.6,1.5s-1,0.5-1.7,0.5
					h-2.1v3.2h-0.6V290.4z M260.2,293.8c0.6,0,1-0.1,1.3-0.4c0.3-0.2,0.4-0.6,0.4-1.1c0-0.5-0.1-0.8-0.4-1.1
					c-0.3-0.2-0.7-0.4-1.3-0.4h-2.1v2.9H260.2z"/>
				<path class="st9" d="M264.1,296.6v0.6c0,0.3,0,0.5-0.1,0.7c-0.1,0.2-0.2,0.4-0.4,0.6l-0.3-0.3c0.2-0.3,0.4-0.5,0.4-0.8h-0.4
					v-0.9H264.1z"/>
				<path class="st9" d="M71.2,309.9c-0.4-0.2-0.8-0.4-1.1-0.7l0.3-0.5c0.4,0.3,0.7,0.5,1.1,0.7c0.4,0.1,0.8,0.2,1.3,0.2
					c0.6,0,1.1-0.1,1.4-0.4c0.3-0.2,0.5-0.6,0.5-1c0-0.3-0.1-0.5-0.2-0.6c-0.2-0.2-0.4-0.3-0.6-0.4c-0.3-0.1-0.6-0.2-1-0.3
					c-0.5-0.1-1-0.2-1.3-0.4c-0.3-0.1-0.6-0.3-0.9-0.6c-0.2-0.3-0.4-0.6-0.4-1c0-0.4,0.1-0.8,0.3-1.1c0.2-0.3,0.5-0.5,0.9-0.7
					s0.8-0.3,1.3-0.3c0.5,0,0.9,0.1,1.4,0.2c0.4,0.2,0.8,0.4,1.1,0.7l-0.3,0.5c-0.3-0.3-0.7-0.5-1-0.7c-0.3-0.1-0.7-0.2-1.1-0.2
					c-0.6,0-1.1,0.1-1.4,0.4c-0.3,0.3-0.5,0.6-0.5,1.1c0,0.4,0.1,0.7,0.4,0.9s0.7,0.4,1.3,0.5l0.3,0.1c0.5,0.1,1,0.3,1.3,0.4
					c0.3,0.1,0.6,0.3,0.8,0.5c0.2,0.2,0.3,0.6,0.3,1c0,0.4-0.1,0.7-0.3,1c-0.2,0.3-0.5,0.5-0.9,0.7c-0.4,0.2-0.8,0.2-1.3,0.2
					C72.1,310.1,71.6,310.1,71.2,309.9z"/>
				<path class="st9" d="M81.3,308.1h-3.9l-0.8,1.9H76l3.1-7.1h0.6l3.1,7.1h-0.6L81.3,308.1z M81.1,307.6l-1.7-3.9l-1.7,3.9H81.1z"
					/>
				<path class="st9" d="M89.5,310h-0.6l-0.9-2.4c-0.1-0.3-0.3-0.5-0.5-0.6s-0.5-0.2-0.9-0.2h-2v3.2H84v-7.1h2.8
					c0.7,0,1.3,0.2,1.7,0.5s0.6,0.8,0.6,1.5c0,0.5-0.1,0.8-0.4,1.2c-0.2,0.3-0.6,0.5-1,0.7c0.2,0,0.4,0.1,0.5,0.3
					c0.1,0.1,0.3,0.3,0.4,0.6L89.5,310z M86.7,306.3c1.2,0,1.8-0.5,1.8-1.5c0-0.9-0.6-1.4-1.8-1.4h-2.1v2.9H86.7z"/>
				<path class="st9" d="M91.7,309.2v0.6c0,0.3,0,0.5-0.1,0.7c-0.1,0.2-0.2,0.4-0.4,0.6l-0.3-0.3c0.2-0.3,0.4-0.5,0.4-0.8h-0.4v-0.9
					H91.7z"/>
				<path class="st9" d="M95.9,302.9h2.7c0.7,0,1.3,0.2,1.7,0.5c0.4,0.3,0.6,0.8,0.6,1.4c0,0.6-0.2,1.1-0.6,1.5s-1,0.5-1.7,0.5h-2.1
					v3.2h-0.6V302.9z M98.6,306.3c0.6,0,1-0.1,1.3-0.4c0.3-0.2,0.4-0.6,0.4-1.1c0-0.5-0.1-0.8-0.4-1.1c-0.3-0.2-0.7-0.4-1.3-0.4
					h-2.1v2.9H98.6z"/>
				<path class="st9" d="M103.6,309.7c-0.5-0.3-0.8-0.7-1.1-1.3c-0.3-0.5-0.4-1.2-0.4-1.9c0-0.8,0.1-1.4,0.4-1.9s0.6-1,1.1-1.3
					c0.5-0.3,1-0.4,1.7-0.4s1.2,0.1,1.7,0.4c0.5,0.3,0.8,0.7,1.1,1.3c0.3,0.5,0.4,1.2,0.4,1.9c0,0.8-0.1,1.4-0.4,2
					c-0.3,0.6-0.6,1-1.1,1.3c-0.5,0.3-1,0.4-1.7,0.4C104.6,310.1,104.1,310,103.6,309.7z M107.1,308.8c0.4-0.5,0.7-1.3,0.7-2.3
					s-0.2-1.8-0.7-2.3c-0.4-0.5-1.1-0.8-1.9-0.8c-0.8,0-1.4,0.3-1.9,0.8c-0.4,0.5-0.7,1.3-0.7,2.3s0.2,1.7,0.7,2.3
					c0.4,0.5,1.1,0.8,1.9,0.8C106.1,309.6,106.7,309.3,107.1,308.8z"/>
				<path class="st9" d="M114.6,308.1h-3.9l-0.8,1.9h-0.6l3.1-7.1h0.6l3.1,7.1h-0.6L114.6,308.1z M114.4,307.6l-1.7-3.9l-1.7,3.9
					H114.4z"/>
				<path class="st9" d="M123.1,309.7l-0.4,0.4c-0.5-0.3-1-0.6-1.4-1c-0.3,0.3-0.6,0.6-1,0.7s-0.8,0.3-1.2,0.3
					c-0.4,0-0.8-0.1-1.2-0.2s-0.6-0.4-0.8-0.6s-0.3-0.6-0.3-1c0-0.4,0.1-0.8,0.4-1.2c0.3-0.3,0.7-0.7,1.3-1.1
					c-0.3-0.4-0.6-0.7-0.7-1c-0.1-0.2-0.2-0.5-0.2-0.8c0-0.5,0.2-0.8,0.5-1.1c0.3-0.3,0.7-0.4,1.2-0.4c0.5,0,0.8,0.1,1.1,0.4
					c0.3,0.2,0.4,0.6,0.4,1c0,0.3-0.1,0.7-0.3,0.9c-0.2,0.3-0.6,0.6-1.2,1l1.8,2.1c0.3-0.6,0.5-1.4,0.5-2.3h0.6c0,1.1-0.3,2-0.7,2.8
					C122,309.1,122.5,309.4,123.1,309.7z M121,308.7l-2-2.3c-0.5,0.3-0.9,0.6-1.1,0.9c-0.2,0.3-0.3,0.6-0.3,0.9c0,0.4,0.1,0.7,0.4,1
					s0.7,0.4,1.2,0.4C119.9,309.6,120.5,309.3,121,308.7z M118.6,304.9c0.1,0.2,0.3,0.5,0.6,0.8c0.5-0.3,0.8-0.6,1-0.8
					c0.2-0.2,0.3-0.4,0.3-0.7c0-0.3-0.1-0.5-0.3-0.7c-0.2-0.2-0.4-0.3-0.7-0.3c-0.3,0-0.6,0.1-0.8,0.3c-0.2,0.2-0.3,0.4-0.3,0.7
					C118.4,304.5,118.5,304.7,118.6,304.9z"/>
				<path class="st9" d="M130.7,302.9v7.1h-0.6v-5.7l-2.5,5.7h-0.5l-2.5-5.7l0,5.7H124v-7.1h0.5l2.8,6.4l2.8-6.4H130.7z"/>
				<path class="st9" d="M132,311.9c0.3-0.8,0.6-1.6,0.7-2.3c0.2-0.7,0.2-1.5,0.2-2.2c0-0.7-0.1-1.4-0.2-2.2s-0.4-1.5-0.8-2.3h0.5
					c0.4,0.7,0.6,1.5,0.8,2.2c0.2,0.7,0.3,1.5,0.3,2.3c0,0.8-0.1,1.5-0.3,2.3c-0.2,0.7-0.4,1.5-0.8,2.2H132z"/>
			</g>
		</g>
		<g>
			<g>
				<path class="st1" d="M47.6,267.7v2.8h4v1h-4v3.2h-1.1v-7.9H52v1H47.6z"/>
				<path class="st1" d="M58.9,268.7v6h-1v-0.9c-0.4,0.6-1.2,1-2,1c-1.5,0-2.6-0.8-2.6-2.6v-3.4h1.1v3.3c0,1.2,0.6,1.8,1.6,1.8
					c1.1,0,1.9-0.7,1.9-2v-3.1H58.9z"/>
				<path class="st1" d="M61.1,266.3h1.1v8.4h-1.1V266.3z"/>
				<path class="st1" d="M64.4,266.3h1.1v8.4h-1.1V266.3z"/>
				<path class="st1" d="M70.2,273.8l0.4-0.9c0.6,0.5,1.6,0.9,2.6,0.9c1.4,0,2-0.5,2-1.2c0-1.9-4.8-0.7-4.8-3.6c0-1.2,0.9-2.3,3-2.3
					c0.9,0,1.9,0.2,2.5,0.7l-0.4,0.9c-0.7-0.4-1.5-0.6-2.2-0.6c-1.3,0-1.9,0.6-1.9,1.3c0,1.9,4.8,0.7,4.8,3.6c0,1.2-1,2.2-3.1,2.2
					C72.1,274.8,70.9,274.4,70.2,273.8z"/>
				<path class="st1" d="M83.3,272h-4.9c0.1,1,1,1.8,2.2,1.8c0.7,0,1.3-0.2,1.7-0.7l0.6,0.7c-0.5,0.6-1.4,1-2.4,1
					c-1.9,0-3.2-1.3-3.2-3.1c0-1.8,1.3-3,3-3c1.7,0,3,1.2,3,3.1C83.3,271.8,83.3,271.9,83.3,272z M78.5,271.3h3.8
					c-0.1-1-0.9-1.7-1.9-1.7C79.3,269.5,78.6,270.2,78.5,271.3z"/>
				<path class="st1" d="M84.4,271.7c0-1.8,1.3-3,3.2-3c1.1,0,2,0.4,2.4,1.3l-0.8,0.5c-0.4-0.6-1-0.9-1.6-0.9
					c-1.2,0-2.1,0.8-2.1,2.1c0,1.3,0.9,2.1,2.1,2.1c0.7,0,1.2-0.3,1.6-0.9l0.8,0.5c-0.5,0.8-1.4,1.3-2.4,1.3
					C85.7,274.7,84.4,273.5,84.4,271.7z"/>
				<path class="st1" d="M97.1,268.7v6h-1v-0.9c-0.4,0.6-1.2,1-2,1c-1.5,0-2.6-0.8-2.6-2.6v-3.4h1.1v3.3c0,1.2,0.6,1.8,1.6,1.8
					c1.1,0,1.9-0.7,1.9-2v-3.1H97.1z"/>
				<path class="st1" d="M102.5,268.6v1c-0.1,0-0.2,0-0.2,0c-1.2,0-1.9,0.7-1.9,2v3h-1.1v-6h1v1C100.7,269,101.4,268.6,102.5,268.6z
					"/>
				<path class="st1" d="M103.7,266.8c0-0.4,0.3-0.7,0.7-0.7c0.4,0,0.7,0.3,0.7,0.7c0,0.4-0.3,0.7-0.7,0.7
					C104,267.5,103.7,267.2,103.7,266.8z M103.9,268.7h1.1v6h-1.1V268.7z"/>
				<path class="st1" d="M110.6,274.3c-0.3,0.3-0.8,0.4-1.3,0.4c-1.2,0-1.9-0.7-1.9-1.9v-3.3h-1v-0.9h1v-1.3h1.1v1.3h1.7v0.9h-1.7
					v3.2c0,0.6,0.3,1,0.9,1c0.3,0,0.6-0.1,0.8-0.3L110.6,274.3z"/>
				<path class="st1" d="M117.2,268.7l-2.9,6.6c-0.5,1.3-1.2,1.7-2.1,1.7c-0.6,0-1.2-0.2-1.5-0.6l0.5-0.8c0.3,0.3,0.7,0.4,1.1,0.4
					c0.5,0,0.8-0.2,1.1-0.9l0.2-0.4l-2.6-6h1.1l2.1,4.8l2.1-4.8H117.2z"/>
				<path class="st1" d="M126.6,272.7h-4.2l-0.9,2h-1.2l3.6-7.9h1.1l3.6,7.9h-1.2L126.6,272.7z M126.2,271.8l-1.7-3.9l-1.7,3.9
					H126.2z"/>
				<path class="st1" d="M129,274l0.5-0.9c0.5,0.4,1.3,0.6,2.1,0.6c1,0,1.4-0.3,1.4-0.8c0-1.3-3.8-0.2-3.8-2.6c0-1.1,1-1.8,2.5-1.8
					c0.8,0,1.7,0.2,2.2,0.5l-0.5,0.9c-0.5-0.4-1.1-0.5-1.7-0.5c-0.9,0-1.4,0.4-1.4,0.8c0,1.4,3.8,0.3,3.8,2.6c0,1.1-1,1.8-2.6,1.8
					C130.5,274.7,129.5,274.4,129,274z"/>
				<path class="st1" d="M134.8,274l0.5-0.9c0.5,0.4,1.3,0.6,2.1,0.6c1,0,1.4-0.3,1.4-0.8c0-1.3-3.8-0.2-3.8-2.6
					c0-1.1,1-1.8,2.5-1.8c0.8,0,1.7,0.2,2.2,0.5l-0.5,0.9c-0.5-0.4-1.1-0.5-1.7-0.5c-0.9,0-1.4,0.4-1.4,0.8c0,1.4,3.8,0.3,3.8,2.6
					c0,1.1-1,1.8-2.6,1.8C136.2,274.7,135.3,274.4,134.8,274z"/>
				<path class="st1" d="M146.7,272h-4.9c0.1,1,1,1.8,2.2,1.8c0.7,0,1.3-0.2,1.7-0.7l0.6,0.7c-0.5,0.6-1.4,1-2.4,1
					c-1.9,0-3.2-1.3-3.2-3.1c0-1.8,1.3-3,3-3c1.7,0,3,1.2,3,3.1C146.7,271.8,146.7,271.9,146.7,272z M141.8,271.3h3.8
					c-0.1-1-0.9-1.7-1.9-1.7C142.7,269.5,141.9,270.2,141.8,271.3z"/>
				<path class="st1" d="M147.6,274l0.5-0.9c0.5,0.4,1.3,0.6,2.1,0.6c1,0,1.4-0.3,1.4-0.8c0-1.3-3.8-0.2-3.8-2.6
					c0-1.1,1-1.8,2.5-1.8c0.8,0,1.7,0.2,2.2,0.5L152,270c-0.5-0.4-1.1-0.5-1.7-0.5c-0.9,0-1.4,0.4-1.4,0.8c0,1.4,3.8,0.3,3.8,2.6
					c0,1.1-1,1.8-2.6,1.8C149,274.7,148.1,274.4,147.6,274z"/>
				<path class="st1" d="M153.3,274l0.5-0.9c0.5,0.4,1.3,0.6,2.1,0.6c1,0,1.4-0.3,1.4-0.8c0-1.3-3.8-0.2-3.8-2.6
					c0-1.1,1-1.8,2.5-1.8c0.8,0,1.7,0.2,2.2,0.5l-0.5,0.9c-0.5-0.4-1.1-0.5-1.7-0.5c-0.9,0-1.4,0.4-1.4,0.8c0,1.4,3.8,0.3,3.8,2.6
					c0,1.1-1,1.8-2.6,1.8C154.8,274.7,153.8,274.4,153.3,274z"/>
				<path class="st1" d="M169.8,271.2v3.4h-1.1v-3.3c0-1.2-0.6-1.8-1.5-1.8c-1.1,0-1.8,0.7-1.8,2v3.1h-1.1v-3.3
					c0-1.2-0.6-1.8-1.5-1.8c-1.1,0-1.8,0.7-1.8,2v3.1h-1.1v-6h1v0.9c0.4-0.6,1.2-0.9,2.1-0.9c0.9,0,1.7,0.4,2.1,1.1
					c0.5-0.7,1.3-1.1,2.3-1.1C168.8,268.6,169.8,269.5,169.8,271.2z"/>
				<path class="st1" d="M177.3,272h-4.9c0.1,1,1,1.8,2.2,1.8c0.7,0,1.3-0.2,1.7-0.7l0.6,0.7c-0.5,0.6-1.4,1-2.4,1
					c-1.9,0-3.2-1.3-3.2-3.1c0-1.8,1.3-3,3-3c1.7,0,3,1.2,3,3.1C177.3,271.8,177.3,271.9,177.3,272z M172.5,271.3h3.8
					c-0.1-1-0.9-1.7-1.9-1.7C173.3,269.5,172.6,270.2,172.5,271.3z"/>
				<path class="st1" d="M184.6,271.2v3.4h-1.1v-3.3c0-1.2-0.6-1.8-1.6-1.8c-1.2,0-1.9,0.7-1.9,2v3.1H179v-6h1v0.9
					c0.4-0.6,1.2-1,2.2-1C183.6,268.6,184.6,269.5,184.6,271.2z"/>
				<path class="st1" d="M190.1,274.3c-0.3,0.3-0.8,0.4-1.3,0.4c-1.2,0-1.9-0.7-1.9-1.9v-3.3h-1v-0.9h1v-1.3h1.1v1.3h1.7v0.9H188
					v3.2c0,0.6,0.3,1,0.9,1c0.3,0,0.6-0.1,0.8-0.3L190.1,274.3z"/>
			</g>
		</g>
		<g>
			<g>
				<circle class="st1" cx="53.2" cy="293.9" r="7.6"/>
			</g>
			<g>
				<path class="st4" d="M54.8,291.8c-0.2,0-0.4-0.2-0.4-0.4v-2.5h-3.9c-0.5,0-1,0.4-1,1v7.9c0,0.5,0.4,1,1,1h5.8c0.5,0,1-0.4,1-1
					v-6H54.8z"/>
			</g>
			<path class="st5" d="M54.7,291.8h2.5l-2.9-2.9v2.5C54.4,291.6,54.5,291.8,54.7,291.8z"/>
			<polygon class="st2" points="57.3,293.9 57.3,291.8 54.8,291.8 			"/>
		</g>
	</g>
	<g class="st11">
		<rect x="28.5" y="54.5" class="st2" width="263.1" height="81.4"/>
		<g>
			<g>
				<path class="st1" d="M46.1,71.4v2.8h4v1h-4v3.2H45v-7.9h5.6v1H46.1z"/>
				<path class="st1" d="M57.3,75.7h-4.9c0.1,1,1,1.8,2.2,1.8c0.7,0,1.3-0.2,1.7-0.7l0.6,0.7c-0.5,0.6-1.4,1-2.4,1
					c-1.9,0-3.2-1.3-3.2-3.1c0-1.8,1.3-3,3-3c1.7,0,3,1.2,3,3.1C57.3,75.5,57.3,75.6,57.3,75.7z M52.4,74.9h3.8
					c-0.1-1-0.9-1.7-1.9-1.7C53.3,73.2,52.5,73.9,52.4,74.9z"/>
				<path class="st1" d="M64.6,69.9v8.4h-1v-0.9c-0.5,0.7-1.3,1-2.1,1c-1.8,0-3-1.2-3-3.1s1.3-3,3-3c0.8,0,1.6,0.3,2.1,1v-3.3H64.6z
					 M63.5,75.3c0-1.3-0.9-2.1-2-2.1c-1.2,0-2,0.8-2,2.1c0,1.3,0.9,2.1,2,2.1C62.6,77.4,63.5,76.6,63.5,75.3z"/>
				<path class="st1" d="M72.2,78.3l-1.7-2.4c-0.2,0-0.3,0-0.5,0h-2v2.4h-1.1v-7.9H70c2.1,0,3.3,1,3.3,2.8c0,1.2-0.6,2.1-1.7,2.5
					l1.9,2.7H72.2z M72.1,73.2c0-1.1-0.8-1.8-2.2-1.8H68V75h1.9C71.4,75,72.1,74.3,72.1,73.2z"/>
				<path class="st1" d="M80.3,76.3h-4.2l-0.9,2H74l3.6-7.9h1.1l3.6,7.9h-1.2L80.3,76.3z M79.9,75.4l-1.7-3.9l-1.7,3.9H79.9z"/>
				<path class="st1" d="M90.9,78.3l0-5.8l-2.9,4.8h-0.5l-2.9-4.8v5.7h-1.1v-7.9h0.9l3.3,5.6l3.3-5.6H92l0,7.9H90.9z"/>
				<path class="st1" d="M100.9,73.2c0,1.7-1.2,2.8-3.3,2.8h-2v2.4h-1.1v-7.9h3.1C99.6,70.4,100.9,71.5,100.9,73.2z M99.7,73.2
					c0-1.1-0.8-1.8-2.2-1.8h-1.9v3.5h1.9C99,74.9,99.7,74.3,99.7,73.2z"/>
				<path class="st1" d="M105.3,74.4c0-2.3,1.8-4,4.2-4c1.2,0,2.3,0.4,3,1.2l-0.7,0.7c-0.6-0.6-1.4-0.9-2.2-0.9
					c-1.8,0-3.1,1.3-3.1,3s1.3,3,3.1,3c0.9,0,1.6-0.3,2.2-0.9l0.7,0.7c-0.7,0.8-1.8,1.2-3,1.2C107,78.4,105.3,76.7,105.3,74.4z"/>
				<path class="st1" d="M113.2,75.3c0-1.8,1.3-3,3.1-3s3.1,1.3,3.1,3s-1.3,3.1-3.1,3.1S113.2,77.1,113.2,75.3z M118.3,75.3
					c0-1.3-0.9-2.1-2-2.1s-2,0.8-2,2.1c0,1.3,0.9,2.1,2,2.1S118.3,76.6,118.3,75.3z"/>
				<path class="st1" d="M126.7,74.9v3.4h-1.1V75c0-1.2-0.6-1.8-1.6-1.8c-1.2,0-1.9,0.7-1.9,2v3.1h-1.1v-6h1v0.9
					c0.4-0.6,1.2-1,2.2-1C125.7,72.3,126.7,73.1,126.7,74.9z"/>
				<path class="st1" d="M134.5,74.9v3.4h-1.1V75c0-1.2-0.6-1.8-1.6-1.8c-1.2,0-1.9,0.7-1.9,2v3.1h-1.1v-6h1v0.9
					c0.4-0.6,1.2-1,2.2-1C133.5,72.3,134.5,73.1,134.5,74.9z"/>
				<path class="st1" d="M142.1,75.7h-4.9c0.1,1,1,1.8,2.2,1.8c0.7,0,1.3-0.2,1.7-0.7l0.6,0.7c-0.5,0.6-1.4,1-2.4,1
					c-1.9,0-3.2-1.3-3.2-3.1c0-1.8,1.3-3,3-3c1.7,0,3,1.2,3,3.1C142.1,75.5,142.1,75.6,142.1,75.7z M137.2,74.9h3.8
					c-0.1-1-0.9-1.7-1.9-1.7C138.1,73.2,137.3,73.9,137.2,74.9z"/>
				<path class="st1" d="M143.2,75.3c0-1.8,1.3-3,3.2-3c1.1,0,2,0.4,2.4,1.3l-0.8,0.5c-0.4-0.6-1-0.9-1.6-0.9
					c-1.2,0-2.1,0.8-2.1,2.1c0,1.3,0.9,2.1,2.1,2.1c0.7,0,1.2-0.3,1.6-0.9l0.8,0.5c-0.5,0.8-1.4,1.3-2.4,1.3
					C144.5,78.4,143.2,77.1,143.2,75.3z"/>
				<path class="st1" d="M153.7,78c-0.3,0.3-0.8,0.4-1.3,0.4c-1.2,0-1.9-0.7-1.9-1.9v-3.3h-1v-0.9h1V71h1.1v1.3h1.7v0.9h-1.7v3.2
					c0,0.6,0.3,1,0.9,1c0.3,0,0.6-0.1,0.8-0.3L153.7,78z"/>
			</g>
		</g>
		<g>
			<g>
				<path class="st9" d="M69.8,95.8h4.3v0.5h-3.7v2.7h3.5v0.6h-3.5v3.4h-0.6V95.8z"/>
				<path class="st9" d="M75.6,100.4L75.6,100.4c0,0.7,0.2,1.2,0.5,1.6c0.3,0.4,0.8,0.5,1.4,0.5c0.6,0,1.2-0.2,1.7-0.6l0.2,0.5
					c-0.2,0.2-0.5,0.4-0.8,0.5c-0.3,0.1-0.7,0.2-1.1,0.2c-0.8,0-1.4-0.2-1.8-0.7c-0.4-0.5-0.7-1.1-0.7-1.9c0-0.5,0.1-1,0.3-1.4
					c0.2-0.4,0.5-0.7,0.8-0.9c0.4-0.2,0.8-0.3,1.2-0.3c0.7,0,1.2,0.2,1.6,0.6c0.4,0.4,0.6,1,0.6,1.8v0.1H75.6z M76.1,98.7
					c-0.3,0.3-0.5,0.7-0.5,1.2h3.2c0-0.5-0.2-0.9-0.5-1.2c-0.3-0.3-0.6-0.4-1.1-0.4C76.8,98.3,76.4,98.5,76.1,98.7z"/>
				<path class="st9" d="M85,95.6v7.4h-0.6v-1c-0.1,0.3-0.4,0.6-0.7,0.8c-0.3,0.2-0.7,0.3-1.1,0.3c-0.4,0-0.8-0.1-1.2-0.3
					s-0.6-0.5-0.8-0.9c-0.2-0.4-0.3-0.9-0.3-1.4c0-0.5,0.1-1,0.3-1.4c0.2-0.4,0.4-0.7,0.8-0.9c0.3-0.2,0.7-0.3,1.2-0.3
					c0.4,0,0.8,0.1,1.1,0.3c0.3,0.2,0.5,0.4,0.7,0.8v-3.3H85z M84,102c0.3-0.4,0.4-0.9,0.4-1.5c0-0.7-0.1-1.2-0.4-1.5
					c-0.3-0.4-0.7-0.5-1.2-0.5c-0.5,0-1,0.2-1.2,0.5s-0.4,0.9-0.4,1.5c0,0.7,0.1,1.2,0.4,1.5s0.7,0.6,1.2,0.6
					C83.3,102.5,83.7,102.3,84,102z"/>
				<path class="st9" d="M92.3,103h-0.6l-0.9-2.4c-0.1-0.3-0.3-0.5-0.5-0.6s-0.5-0.2-0.9-0.2h-2v3.2h-0.6v-7.1h2.8
					c0.7,0,1.3,0.2,1.7,0.5s0.6,0.8,0.6,1.5c0,0.5-0.1,0.8-0.4,1.2c-0.2,0.3-0.6,0.5-1,0.7c0.2,0,0.4,0.1,0.5,0.3
					c0.1,0.1,0.3,0.3,0.4,0.6L92.3,103z M89.5,99.2c1.2,0,1.8-0.5,1.8-1.5c0-0.9-0.6-1.4-1.8-1.4h-2.1v2.9H89.5z"/>
				<path class="st9" d="M98.4,101.1h-3.9l-0.8,1.9h-0.6l3.1-7.1h0.6l3.1,7.1h-0.6L98.4,101.1z M98.1,100.5l-1.7-3.9l-1.7,3.9H98.1z
					"/>
				<path class="st9" d="M107.7,95.8v7.1h-0.6v-5.7l-2.5,5.7h-0.5l-2.5-5.7l0,5.7h-0.6v-7.1h0.5l2.8,6.4l2.8-6.4H107.7z"/>
				<path class="st9" d="M109.6,95.8h2.7c0.7,0,1.3,0.2,1.7,0.5c0.4,0.3,0.6,0.8,0.6,1.4c0,0.6-0.2,1.1-0.6,1.5s-1,0.5-1.7,0.5h-2.1
					v3.2h-0.6V95.8z M112.3,99.2c0.6,0,1-0.1,1.3-0.4c0.3-0.2,0.4-0.6,0.4-1.1c0-0.5-0.1-0.8-0.4-1.1c-0.3-0.2-0.7-0.4-1.3-0.4h-2.1
					v2.9H112.3z"/>
				<path class="st9" d="M120,102.6c-0.5-0.3-0.9-0.7-1.1-1.3c-0.3-0.6-0.4-1.2-0.4-2c0-0.7,0.1-1.4,0.4-1.9c0.3-0.5,0.6-1,1.1-1.3
					c0.5-0.3,1.1-0.4,1.7-0.4c0.5,0,0.9,0.1,1.4,0.2c0.4,0.2,0.8,0.4,1.1,0.7l-0.3,0.5c-0.3-0.3-0.7-0.5-1-0.7
					c-0.3-0.1-0.7-0.2-1.1-0.2c-0.8,0-1.5,0.3-1.9,0.8c-0.5,0.5-0.7,1.3-0.7,2.3c0,1,0.2,1.8,0.7,2.3s1.1,0.8,1.9,0.8
					c0.4,0,0.8-0.1,1.1-0.2c0.3-0.1,0.7-0.4,1-0.7l0.3,0.5c-0.3,0.3-0.7,0.5-1.1,0.7c-0.4,0.2-0.9,0.2-1.4,0.2
					C121.1,103.1,120.5,102.9,120,102.6z"/>
				<path class="st9" d="M126.2,102.7c-0.4-0.2-0.6-0.5-0.8-0.9c-0.2-0.4-0.3-0.9-0.3-1.4s0.1-1,0.3-1.4c0.2-0.4,0.5-0.7,0.8-0.9
					c0.4-0.2,0.8-0.3,1.2-0.3c0.5,0,0.9,0.1,1.2,0.3c0.3,0.2,0.6,0.5,0.8,0.9c0.2,0.4,0.3,0.9,0.3,1.4s-0.1,1-0.3,1.4
					c-0.2,0.4-0.5,0.7-0.8,0.9c-0.3,0.2-0.7,0.3-1.2,0.3C127,103,126.6,102.9,126.2,102.7z M128.7,102c0.3-0.4,0.4-0.9,0.4-1.5
					c0-0.7-0.1-1.2-0.4-1.5c-0.3-0.4-0.7-0.5-1.2-0.5c-0.5,0-0.9,0.2-1.2,0.5c-0.3,0.4-0.4,0.9-0.4,1.5c0,0.7,0.1,1.2,0.4,1.5
					c0.3,0.4,0.7,0.5,1.2,0.5C128,102.5,128.4,102.3,128.7,102z"/>
				<path class="st9" d="M135.3,99.8v3.2h-0.6v-3.2c0-0.5-0.1-0.9-0.3-1.1c-0.2-0.2-0.5-0.4-1-0.4c-0.5,0-0.9,0.2-1.2,0.5
					c-0.3,0.3-0.5,0.7-0.5,1.2v2.9h-0.6v-3.6c0-0.5,0-1-0.1-1.4h0.6l0.1,0.9c0.2-0.3,0.4-0.6,0.7-0.8c0.3-0.2,0.7-0.3,1.1-0.3
					C134.7,97.8,135.3,98.5,135.3,99.8z"/>
				<path class="st9" d="M141.2,99.8v3.2h-0.6v-3.2c0-0.5-0.1-0.9-0.3-1.1c-0.2-0.2-0.5-0.4-1-0.4c-0.5,0-0.9,0.2-1.2,0.5
					c-0.3,0.3-0.5,0.7-0.5,1.2v2.9H137v-3.6c0-0.5,0-1-0.1-1.4h0.6l0.1,0.9c0.2-0.3,0.4-0.6,0.7-0.8c0.3-0.2,0.7-0.3,1.1-0.3
					C140.6,97.8,141.2,98.5,141.2,99.8z"/>
				<path class="st9" d="M143.2,100.4L143.2,100.4c0,0.7,0.2,1.2,0.5,1.6c0.3,0.4,0.8,0.5,1.4,0.5c0.6,0,1.2-0.2,1.7-0.6l0.2,0.5
					c-0.2,0.2-0.5,0.4-0.8,0.5c-0.3,0.1-0.7,0.2-1.1,0.2c-0.8,0-1.4-0.2-1.8-0.7c-0.4-0.5-0.7-1.1-0.7-1.9c0-0.5,0.1-1,0.3-1.4
					c0.2-0.4,0.5-0.7,0.8-0.9c0.4-0.2,0.8-0.3,1.2-0.3c0.7,0,1.2,0.2,1.6,0.6c0.4,0.4,0.6,1,0.6,1.8v0.1H143.2z M143.8,98.7
					c-0.3,0.3-0.5,0.7-0.5,1.2h3.2c0-0.5-0.2-0.9-0.5-1.2c-0.3-0.3-0.6-0.4-1.1-0.4C144.4,98.3,144.1,98.5,143.8,98.7z"/>
				<path class="st9" d="M149.2,102.7c-0.4-0.2-0.6-0.5-0.8-0.9c-0.2-0.4-0.3-0.8-0.3-1.4c0-0.5,0.1-1,0.3-1.4
					c0.2-0.4,0.5-0.7,0.8-0.9c0.4-0.2,0.8-0.3,1.3-0.3c0.3,0,0.7,0.1,1,0.2s0.6,0.3,0.8,0.5l-0.2,0.5c-0.3-0.2-0.5-0.4-0.7-0.5
					s-0.5-0.1-0.7-0.1c-0.5,0-1,0.2-1.3,0.6c-0.3,0.4-0.5,0.9-0.5,1.5c0,0.6,0.2,1.1,0.5,1.5c0.3,0.4,0.7,0.5,1.3,0.5
					c0.3,0,0.5,0,0.7-0.1s0.5-0.2,0.7-0.5l0.2,0.5c-0.2,0.2-0.5,0.4-0.8,0.5c-0.3,0.1-0.6,0.2-1,0.2
					C149.9,103,149.5,102.9,149.2,102.7z"/>
				<path class="st9" d="M154.2,98.4v3c0,0.4,0.1,0.7,0.2,0.8c0.2,0.2,0.4,0.2,0.7,0.2c0.2,0,0.4,0,0.5-0.1v0.6
					c-0.2,0.1-0.4,0.1-0.7,0.1c-0.4,0-0.8-0.1-1-0.4c-0.3-0.2-0.4-0.6-0.4-1.1v-3.1h-1V98h1v-1.3l0.6-0.2V98h1.5v0.5H154.2z"/>
				<path class="st9" d="M164.3,99.9c0.2,0.3,0.3,0.7,0.3,1.1c0,0.6-0.2,1.1-0.6,1.4c-0.4,0.3-1,0.5-1.7,0.5h-2.9v-7.1h2.8
					c0.7,0,1.3,0.2,1.7,0.5c0.4,0.3,0.6,0.8,0.6,1.4c0,0.4-0.1,0.7-0.3,1s-0.5,0.5-0.8,0.6C163.8,99.4,164.1,99.6,164.3,99.9z
					 M160.1,99.1h2.1c0.6,0,1-0.1,1.3-0.4s0.4-0.6,0.4-1c0-0.9-0.6-1.3-1.7-1.3h-2.1V99.1z M163.6,102.1c0.3-0.2,0.4-0.6,0.4-1
					c0-1-0.6-1.4-1.8-1.4h-2.2v2.8h2.2C162.9,102.4,163.3,102.3,163.6,102.1z"/>
				<path class="st9" d="M170.3,98v5h-0.6v-0.9c-0.2,0.3-0.4,0.6-0.7,0.7c-0.3,0.2-0.6,0.3-1,0.3c-0.6,0-1-0.2-1.3-0.5
					c-0.3-0.3-0.5-0.8-0.5-1.5V98h0.6v3.1c0,0.5,0.1,0.9,0.3,1.1c0.2,0.2,0.5,0.4,0.9,0.4c0.5,0,0.9-0.2,1.2-0.5
					c0.3-0.3,0.4-0.7,0.4-1.2V98H170.3z"/>
				<path class="st9" d="M171.7,102.4l0.2-0.5c0.3,0.2,0.5,0.4,0.8,0.5c0.3,0.1,0.6,0.1,0.9,0.1c0.4,0,0.7-0.1,0.9-0.2
					c0.2-0.1,0.3-0.4,0.3-0.6c0-0.2-0.1-0.4-0.2-0.5c-0.1-0.1-0.4-0.2-0.7-0.3l-0.9-0.2c-0.4-0.1-0.7-0.3-0.9-0.5
					c-0.2-0.2-0.3-0.5-0.3-0.8c0-0.4,0.2-0.8,0.5-1.1c0.3-0.3,0.8-0.4,1.3-0.4c0.4,0,0.7,0.1,1,0.2c0.3,0.1,0.6,0.3,0.8,0.5
					l-0.2,0.5c-0.5-0.4-1-0.6-1.5-0.6c-0.4,0-0.7,0.1-0.9,0.2c-0.2,0.2-0.3,0.4-0.3,0.6c0,0.2,0.1,0.4,0.2,0.6s0.3,0.2,0.6,0.3
					l0.9,0.2c0.9,0.2,1.4,0.6,1.4,1.3c0,0.4-0.2,0.8-0.5,1c-0.3,0.3-0.8,0.4-1.4,0.4C172.8,103,172.1,102.8,171.7,102.4z"/>
				<path class="st9" d="M177.7,95.9v0.8h-0.8v-0.8H177.7z M177,98h0.6v5H177V98z"/>
				<path class="st9" d="M183.5,99.8v3.2h-0.6v-3.2c0-0.5-0.1-0.9-0.3-1.1c-0.2-0.2-0.5-0.4-1-0.4c-0.5,0-0.9,0.2-1.2,0.5
					c-0.3,0.3-0.5,0.7-0.5,1.2v2.9h-0.6v-3.6c0-0.5,0-1-0.1-1.4h0.6l0.1,0.9c0.2-0.3,0.4-0.6,0.7-0.8c0.3-0.2,0.7-0.3,1.1-0.3
					C182.9,97.8,183.5,98.5,183.5,99.8z"/>
				<path class="st9" d="M185.5,100.4L185.5,100.4c0,0.7,0.2,1.2,0.5,1.6c0.3,0.4,0.8,0.5,1.4,0.5c0.6,0,1.2-0.2,1.7-0.6l0.2,0.5
					c-0.2,0.2-0.5,0.4-0.8,0.5c-0.3,0.1-0.7,0.2-1.1,0.2c-0.8,0-1.4-0.2-1.8-0.7c-0.4-0.5-0.7-1.1-0.7-1.9c0-0.5,0.1-1,0.3-1.4
					c0.2-0.4,0.5-0.7,0.8-0.9c0.4-0.2,0.8-0.3,1.2-0.3c0.7,0,1.2,0.2,1.6,0.6c0.4,0.4,0.6,1,0.6,1.8v0.1H185.5z M186.1,98.7
					c-0.3,0.3-0.5,0.7-0.5,1.2h3.2c0-0.5-0.2-0.9-0.5-1.2c-0.3-0.3-0.6-0.4-1.1-0.4C186.7,98.3,186.4,98.5,186.1,98.7z"/>
				<path class="st9" d="M190.4,102.4l0.2-0.5c0.3,0.2,0.5,0.4,0.8,0.5c0.3,0.1,0.6,0.1,0.9,0.1c0.4,0,0.7-0.1,0.9-0.2
					c0.2-0.1,0.3-0.4,0.3-0.6c0-0.2-0.1-0.4-0.2-0.5c-0.1-0.1-0.4-0.2-0.7-0.3l-0.9-0.2c-0.4-0.1-0.7-0.3-0.9-0.5
					c-0.2-0.2-0.3-0.5-0.3-0.8c0-0.4,0.2-0.8,0.5-1.1c0.3-0.3,0.8-0.4,1.3-0.4c0.4,0,0.7,0.1,1,0.2c0.3,0.1,0.6,0.3,0.8,0.5
					l-0.2,0.5c-0.5-0.4-1-0.6-1.5-0.6c-0.4,0-0.7,0.1-0.9,0.2c-0.2,0.2-0.3,0.4-0.3,0.6c0,0.2,0.1,0.4,0.2,0.6s0.3,0.2,0.6,0.3
					l0.9,0.2c0.9,0.2,1.4,0.6,1.4,1.3c0,0.4-0.2,0.8-0.5,1c-0.3,0.3-0.8,0.4-1.4,0.4C191.5,103,190.8,102.8,190.4,102.4z"/>
				<path class="st9" d="M195.4,102.4l0.2-0.5c0.3,0.2,0.5,0.4,0.8,0.5c0.3,0.1,0.6,0.1,0.9,0.1c0.4,0,0.7-0.1,0.9-0.2
					c0.2-0.1,0.3-0.4,0.3-0.6c0-0.2-0.1-0.4-0.2-0.5c-0.1-0.1-0.4-0.2-0.7-0.3l-0.9-0.2c-0.4-0.1-0.7-0.3-0.9-0.5
					c-0.2-0.2-0.3-0.5-0.3-0.8c0-0.4,0.2-0.8,0.5-1.1c0.3-0.3,0.8-0.4,1.3-0.4c0.4,0,0.7,0.1,1,0.2c0.3,0.1,0.6,0.3,0.8,0.5
					l-0.2,0.5c-0.5-0.4-1-0.6-1.5-0.6c-0.4,0-0.7,0.1-0.9,0.2c-0.2,0.2-0.3,0.4-0.3,0.6c0,0.2,0.1,0.4,0.2,0.6s0.3,0.2,0.6,0.3
					l0.9,0.2c0.9,0.2,1.4,0.6,1.4,1.3c0,0.4-0.2,0.8-0.5,1c-0.3,0.3-0.8,0.4-1.4,0.4C196.5,103,195.8,102.8,195.4,102.4z"/>
				<path class="st9" d="M204.6,102.6c-0.5-0.3-0.9-0.7-1.1-1.3c-0.3-0.6-0.4-1.2-0.4-2c0-0.7,0.1-1.4,0.4-1.9
					c0.3-0.5,0.6-1,1.1-1.3c0.5-0.3,1.1-0.4,1.7-0.4c0.5,0,0.9,0.1,1.4,0.2c0.4,0.2,0.8,0.4,1.1,0.7l-0.3,0.5
					c-0.3-0.3-0.7-0.5-1-0.7c-0.3-0.1-0.7-0.2-1.1-0.2c-0.8,0-1.5,0.3-1.9,0.8c-0.5,0.5-0.7,1.3-0.7,2.3c0,1,0.2,1.8,0.7,2.3
					s1.1,0.8,1.9,0.8c0.4,0,0.8-0.1,1.1-0.2c0.3-0.1,0.7-0.4,1-0.7l0.3,0.5c-0.3,0.3-0.7,0.5-1.1,0.7c-0.4,0.2-0.9,0.2-1.4,0.2
					C205.7,103.1,205.1,102.9,204.6,102.6z"/>
				<path class="st9" d="M214.4,98v5h-0.6v-1c-0.1,0.3-0.4,0.6-0.7,0.8c-0.3,0.2-0.7,0.3-1.1,0.3c-0.4,0-0.8-0.1-1.2-0.3
					c-0.3-0.2-0.6-0.5-0.8-0.9c-0.2-0.4-0.3-0.8-0.3-1.4c0-0.5,0.1-1,0.3-1.4c0.2-0.4,0.4-0.7,0.8-0.9c0.3-0.2,0.7-0.3,1.2-0.3
					c0.4,0,0.8,0.1,1.1,0.3c0.3,0.2,0.5,0.4,0.7,0.8V98H214.4z M213.3,102c0.3-0.4,0.4-0.9,0.4-1.5c0-0.7-0.1-1.2-0.4-1.5
					c-0.3-0.4-0.7-0.5-1.2-0.5c-0.5,0-0.9,0.2-1.2,0.6s-0.4,0.9-0.4,1.5c0,0.6,0.1,1.2,0.4,1.5c0.3,0.4,0.7,0.5,1.2,0.5
					C212.6,102.5,213,102.3,213.3,102z"/>
				<path class="st9" d="M215.8,102.4l0.2-0.5c0.3,0.2,0.5,0.4,0.8,0.5c0.3,0.1,0.6,0.1,0.9,0.1c0.4,0,0.7-0.1,0.9-0.2
					c0.2-0.1,0.3-0.4,0.3-0.6c0-0.2-0.1-0.4-0.2-0.5c-0.1-0.1-0.4-0.2-0.7-0.3l-0.9-0.2c-0.4-0.1-0.7-0.3-0.9-0.5
					c-0.2-0.2-0.3-0.5-0.3-0.8c0-0.4,0.2-0.8,0.5-1.1c0.3-0.3,0.8-0.4,1.3-0.4c0.4,0,0.7,0.1,1,0.2c0.3,0.1,0.6,0.3,0.8,0.5
					l-0.2,0.5c-0.5-0.4-1-0.6-1.5-0.6c-0.4,0-0.7,0.1-0.9,0.2c-0.2,0.2-0.3,0.4-0.3,0.6c0,0.2,0.1,0.4,0.2,0.6s0.3,0.2,0.6,0.3
					l0.9,0.2c0.9,0.2,1.4,0.6,1.4,1.3c0,0.4-0.2,0.8-0.5,1c-0.3,0.3-0.8,0.4-1.4,0.4C216.9,103,216.3,102.8,215.8,102.4z"/>
				<path class="st9" d="M221.4,100.4L221.4,100.4c0,0.7,0.2,1.2,0.5,1.6c0.3,0.4,0.8,0.5,1.4,0.5c0.6,0,1.2-0.2,1.7-0.6l0.2,0.5
					c-0.2,0.2-0.5,0.4-0.8,0.5c-0.3,0.1-0.7,0.2-1.1,0.2c-0.8,0-1.4-0.2-1.8-0.7c-0.4-0.5-0.7-1.1-0.7-1.9c0-0.5,0.1-1,0.3-1.4
					c0.2-0.4,0.5-0.7,0.8-0.9c0.4-0.2,0.8-0.3,1.2-0.3c0.7,0,1.2,0.2,1.6,0.6c0.4,0.4,0.6,1,0.6,1.8v0.1H221.4z M222,98.7
					c-0.3,0.3-0.5,0.7-0.5,1.2h3.2c0-0.5-0.2-0.9-0.5-1.2c-0.3-0.3-0.6-0.4-1.1-0.4C222.7,98.3,222.3,98.5,222,98.7z"/>
				<g>
					<path class="st1" d="M51.8,120.7c-0.3-0.2-0.5-0.4-0.7-0.7c-0.2-0.3-0.3-0.6-0.3-0.9c0-0.3,0.1-0.6,0.2-0.9
						c0.2-0.3,0.4-0.5,0.7-0.7c0.3-0.2,0.6-0.3,0.9-0.3c0.3,0,0.6,0.1,0.9,0.2c0.3,0.2,0.5,0.4,0.7,0.6c0.2,0.3,0.3,0.6,0.3,0.9
						c0,0.3-0.1,0.6-0.2,0.9c-0.2,0.3-0.4,0.5-0.7,0.7c-0.3,0.2-0.6,0.2-0.9,0.2C52.4,120.9,52.1,120.8,51.8,120.7z"/>
					<path class="st1" d="M52.7,121c-0.3,0-0.7-0.1-1-0.3l0,0c-0.3-0.2-0.5-0.4-0.7-0.7c-0.2-0.3-0.3-0.6-0.3-1
						c0-0.3,0.1-0.6,0.3-0.9c0.2-0.3,0.4-0.5,0.7-0.7c0.6-0.3,1.3-0.4,2,0c0.3,0.2,0.5,0.4,0.7,0.7c0.2,0.3,0.3,0.6,0.3,1
						c0,0.3-0.1,0.7-0.3,1c-0.2,0.3-0.4,0.5-0.7,0.7C53.4,120.9,53.1,121,52.7,121z M51.9,120.6c0.5,0.3,1.2,0.3,1.7,0
						c0.3-0.1,0.5-0.4,0.6-0.6c0.2-0.3,0.2-0.5,0.2-0.8c0-0.3-0.1-0.6-0.2-0.8c-0.2-0.3-0.4-0.5-0.6-0.6c-0.5-0.3-1.2-0.3-1.7,0
						c-0.3,0.2-0.5,0.4-0.6,0.6c-0.1,0.3-0.2,0.5-0.2,0.8c0,0.3,0.1,0.6,0.2,0.8C51.4,120.2,51.6,120.4,51.9,120.6L51.9,120.6z"/>
				</g>
				<path class="st9" d="M69.8,114.6h2.7c0.7,0,1.3,0.2,1.7,0.5c0.4,0.3,0.6,0.8,0.6,1.4c0,0.6-0.2,1.1-0.6,1.5s-1,0.5-1.7,0.5h-2.1
					v3.2h-0.6V114.6z M72.5,118c0.6,0,1-0.1,1.3-0.4c0.3-0.2,0.4-0.6,0.4-1.1c0-0.5-0.1-0.8-0.4-1.1c-0.3-0.2-0.7-0.4-1.3-0.4h-2.1
					v2.9H72.5z"/>
				<path class="st9" d="M78.7,116.7l0,0.6c-0.1,0-0.3,0-0.5,0c-0.5,0-0.9,0.2-1.1,0.5c-0.3,0.3-0.4,0.7-0.4,1.2v3h-0.6v-3.6
					c0-0.5,0-1-0.1-1.4h0.6l0.1,0.9c0.1-0.3,0.3-0.6,0.6-0.8c0.3-0.2,0.6-0.3,1-0.3C78.4,116.6,78.6,116.7,78.7,116.7z"/>
				<path class="st9" d="M80.4,114.7v0.8h-0.8v-0.8H80.4z M79.7,116.8h0.6v5h-0.6V116.8z"/>
				<path class="st9" d="M82.8,121.5c-0.4-0.2-0.6-0.5-0.8-0.9c-0.2-0.4-0.3-0.9-0.3-1.4s0.1-1,0.3-1.4c0.2-0.4,0.5-0.7,0.8-0.9
					c0.4-0.2,0.8-0.3,1.2-0.3c0.5,0,0.9,0.1,1.2,0.3c0.3,0.2,0.6,0.5,0.8,0.9c0.2,0.4,0.3,0.9,0.3,1.4s-0.1,1-0.3,1.4
					c-0.2,0.4-0.5,0.7-0.8,0.9c-0.3,0.2-0.7,0.3-1.2,0.3C83.5,121.9,83.1,121.8,82.8,121.5z M85.2,120.8c0.3-0.4,0.4-0.9,0.4-1.5
					c0-0.7-0.1-1.2-0.4-1.5c-0.3-0.4-0.7-0.5-1.2-0.5c-0.5,0-0.9,0.2-1.2,0.5c-0.3,0.4-0.4,0.9-0.4,1.5c0,0.7,0.1,1.2,0.4,1.5
					c0.3,0.4,0.7,0.5,1.2,0.5C84.5,121.3,84.9,121.1,85.2,120.8z"/>
				<path class="st9" d="M90.3,116.7l0,0.6c-0.1,0-0.3,0-0.5,0c-0.5,0-0.9,0.2-1.1,0.5c-0.3,0.3-0.4,0.7-0.4,1.2v3h-0.6v-3.6
					c0-0.5,0-1-0.1-1.4h0.6l0.1,0.9c0.1-0.3,0.3-0.6,0.6-0.8c0.3-0.2,0.6-0.3,1-0.3C90,116.6,90.2,116.7,90.3,116.7z"/>
				<path class="st9" d="M92,114.7v0.8h-0.8v-0.8H92z M91.2,116.8h0.6v5h-0.6V116.8z"/>
				<path class="st9" d="M94.4,117.3v3c0,0.4,0.1,0.7,0.2,0.8c0.2,0.2,0.4,0.2,0.7,0.2c0.2,0,0.4,0,0.5-0.1v0.6
					c-0.2,0.1-0.4,0.1-0.7,0.1c-0.4,0-0.8-0.1-1-0.4c-0.3-0.2-0.4-0.6-0.4-1.1v-3.1h-1v-0.5h1v-1.3l0.6-0.2v1.6h1.5v0.5H94.4z"/>
				<path class="st9" d="M97.7,114.7v0.8h-0.8v-0.8H97.7z M97,116.8h0.6v5H97V116.8z"/>
				<path class="st9" d="M103.2,121.3v0.5H99v-0.4l3.3-4.1h-3.2v-0.5h4v0.5l-3.3,4.1H103.2z"/>
				<path class="st9" d="M104.8,119.2L104.8,119.2c0,0.7,0.2,1.2,0.5,1.6c0.3,0.4,0.8,0.5,1.4,0.5c0.6,0,1.2-0.2,1.7-0.6l0.2,0.5
					c-0.2,0.2-0.5,0.4-0.8,0.5c-0.3,0.1-0.7,0.2-1.1,0.2c-0.8,0-1.4-0.2-1.8-0.7c-0.4-0.5-0.7-1.1-0.7-1.9c0-0.5,0.1-1,0.3-1.4
					c0.2-0.4,0.5-0.7,0.8-0.9c0.4-0.2,0.8-0.3,1.2-0.3c0.7,0,1.2,0.2,1.6,0.6c0.4,0.4,0.6,1,0.6,1.8v0.1H104.8z M105.4,117.6
					c-0.3,0.3-0.5,0.7-0.5,1.2h3.2c0-0.5-0.2-0.9-0.5-1.2c-0.3-0.3-0.6-0.4-1.1-0.4C106,117.1,105.7,117.3,105.4,117.6z"/>
				<path class="st9" d="M114.2,114.4v7.4h-0.6v-1c-0.1,0.3-0.4,0.6-0.7,0.8c-0.3,0.2-0.7,0.3-1.1,0.3c-0.4,0-0.8-0.1-1.2-0.3
					s-0.6-0.5-0.8-0.9c-0.2-0.4-0.3-0.9-0.3-1.4c0-0.5,0.1-1,0.3-1.4c0.2-0.4,0.4-0.7,0.8-0.9c0.3-0.2,0.7-0.3,1.2-0.3
					c0.4,0,0.8,0.1,1.1,0.3c0.3,0.2,0.5,0.4,0.7,0.8v-3.3H114.2z M113.2,120.8c0.3-0.4,0.4-0.9,0.4-1.5c0-0.7-0.1-1.2-0.4-1.5
					c-0.3-0.4-0.7-0.5-1.2-0.5c-0.5,0-1,0.2-1.2,0.5s-0.4,0.9-0.4,1.5c0,0.7,0.1,1.2,0.4,1.5s0.7,0.6,1.2,0.6
					C112.5,121.3,112.9,121.1,113.2,120.8z"/>
				<path class="st9" d="M119.4,117.3v3c0,0.4,0.1,0.7,0.2,0.8c0.2,0.2,0.4,0.2,0.7,0.2c0.2,0,0.4,0,0.5-0.1v0.6
					c-0.2,0.1-0.4,0.1-0.7,0.1c-0.4,0-0.8-0.1-1-0.4c-0.3-0.2-0.4-0.6-0.4-1.1v-3.1h-1v-0.5h1v-1.3l0.6-0.2v1.6h1.5v0.5H119.4z"/>
				<path class="st9" d="M122.8,121.5c-0.4-0.2-0.6-0.5-0.8-0.9c-0.2-0.4-0.3-0.9-0.3-1.4s0.1-1,0.3-1.4c0.2-0.4,0.5-0.7,0.8-0.9
					c0.4-0.2,0.8-0.3,1.2-0.3c0.5,0,0.9,0.1,1.2,0.3c0.3,0.2,0.6,0.5,0.8,0.9c0.2,0.4,0.3,0.9,0.3,1.4s-0.1,1-0.3,1.4
					c-0.2,0.4-0.5,0.7-0.8,0.9c-0.3,0.2-0.7,0.3-1.2,0.3C123.5,121.9,123.1,121.8,122.8,121.5z M125.2,120.8
					c0.3-0.4,0.4-0.9,0.4-1.5c0-0.7-0.1-1.2-0.4-1.5c-0.3-0.4-0.7-0.5-1.2-0.5c-0.5,0-0.9,0.2-1.2,0.5c-0.3,0.4-0.4,0.9-0.4,1.5
					c0,0.7,0.1,1.2,0.4,1.5c0.3,0.4,0.7,0.5,1.2,0.5C124.5,121.3,124.9,121.1,125.2,120.8z"/>
				<path class="st9" d="M137.8,116.8l-1.8,5h-0.6l-1.5-4.2l-1.5,4.2h-0.6l-1.8-5h0.7l1.5,4.3l1.6-4.3h0.6l1.5,4.3l1.5-4.3H137.8z"
					/>
				<path class="st9" d="M139.7,121.5c-0.4-0.2-0.6-0.5-0.8-0.9c-0.2-0.4-0.3-0.9-0.3-1.4s0.1-1,0.3-1.4c0.2-0.4,0.5-0.7,0.8-0.9
					c0.4-0.2,0.8-0.3,1.2-0.3c0.5,0,0.9,0.1,1.2,0.3c0.3,0.2,0.6,0.5,0.8,0.9c0.2,0.4,0.3,0.9,0.3,1.4s-0.1,1-0.3,1.4
					c-0.2,0.4-0.5,0.7-0.8,0.9c-0.3,0.2-0.7,0.3-1.2,0.3C140.5,121.9,140.1,121.8,139.7,121.5z M142.2,120.8
					c0.3-0.4,0.4-0.9,0.4-1.5c0-0.7-0.1-1.2-0.4-1.5c-0.3-0.4-0.7-0.5-1.2-0.5c-0.5,0-0.9,0.2-1.2,0.5c-0.3,0.4-0.4,0.9-0.4,1.5
					c0,0.7,0.1,1.2,0.4,1.5c0.3,0.4,0.7,0.5,1.2,0.5C141.5,121.3,141.9,121.1,142.2,120.8z"/>
				<path class="st9" d="M147.2,116.7l0,0.6c-0.1,0-0.3,0-0.5,0c-0.5,0-0.9,0.2-1.1,0.5c-0.3,0.3-0.4,0.7-0.4,1.2v3h-0.6v-3.6
					c0-0.5,0-1-0.1-1.4h0.6l0.1,0.9c0.1-0.3,0.3-0.6,0.6-0.8c0.3-0.2,0.6-0.3,1-0.3C147,116.6,147.1,116.7,147.2,116.7z"/>
				<path class="st9" d="M151.6,121.8l-2.8-2.4v2.4h-0.6v-7.4h0.6v4.7l2.5-2.3h0.8l-2.6,2.4l2.9,2.6H151.6z"/>
				<path class="st9" d="M163.3,116.8l-1.8,5h-0.6l-1.5-4.2l-1.5,4.2h-0.6l-1.8-5h0.7l1.5,4.3l1.6-4.3h0.6l1.5,4.3l1.5-4.3H163.3z"
					/>
				<path class="st9" d="M165.3,114.7v0.8h-0.8v-0.8H165.3z M164.6,116.8h0.6v5h-0.6V116.8z"/>
				<path class="st9" d="M167.8,117.3v3c0,0.4,0.1,0.7,0.2,0.8c0.2,0.2,0.4,0.2,0.7,0.2c0.2,0,0.4,0,0.5-0.1v0.6
					c-0.2,0.1-0.4,0.1-0.7,0.1c-0.4,0-0.8-0.1-1-0.4c-0.3-0.2-0.4-0.6-0.4-1.1v-3.1h-1v-0.5h1v-1.3l0.6-0.2v1.6h1.5v0.5H167.8z"/>
				<path class="st9" d="M174.5,118.6v3.2h-0.6v-3.2c0-0.5-0.1-0.9-0.3-1.1c-0.2-0.2-0.5-0.4-1-0.4c-0.5,0-0.9,0.2-1.2,0.5
					c-0.3,0.3-0.5,0.7-0.5,1.2v2.9h-0.6v-7.4h0.6v3.2c0.2-0.3,0.4-0.6,0.7-0.7c0.3-0.2,0.6-0.3,1-0.3
					C173.9,116.6,174.5,117.3,174.5,118.6z"/>
				<path class="st9" d="M177.9,123c0.3,0.1,0.5,0.1,0.7,0.1c0.4,0,0.6-0.1,0.7-0.3c0.1-0.2,0.2-0.5,0.2-1v-7.1h0.6v7.1
					c0,0.7-0.1,1.1-0.3,1.4c-0.2,0.3-0.6,0.4-1.1,0.4c-0.2,0-0.5,0-0.8-0.1V123z"/>
				<path class="st9" d="M186.7,119.9h-3.9l-0.8,1.9h-0.6l3.1-7.1h0.6l3.1,7.1h-0.6L186.7,119.9z M186.5,119.3l-1.7-3.9l-1.7,3.9
					H186.5z"/>
				<path class="st9" d="M194.3,118.7c0.2,0.3,0.3,0.7,0.3,1.1c0,0.6-0.2,1.1-0.6,1.4c-0.4,0.3-1,0.5-1.7,0.5h-2.9v-7.1h2.8
					c0.7,0,1.3,0.2,1.7,0.5c0.4,0.3,0.6,0.8,0.6,1.4c0,0.4-0.1,0.7-0.3,1s-0.5,0.5-0.8,0.6C193.8,118.2,194.1,118.4,194.3,118.7z
					 M190,117.9h2.1c0.6,0,1-0.1,1.3-0.4s0.4-0.6,0.4-1c0-0.9-0.6-1.3-1.7-1.3H190V117.9z M193.6,120.9c0.3-0.2,0.4-0.6,0.4-1
					c0-1-0.6-1.4-1.8-1.4H190v2.8h2.2C192.9,121.3,193.3,121.1,193.6,120.9z"/>
			</g>
		</g>
		<rect x="52.4" y="96.2" class="st1" width="0.8" height="21.6"/>
		<g>
			<g>
				<circle class="st1" cx="52.8" cy="98.6" r="7.6"/>
			</g>
			<g>
				<path class="st4" d="M54.4,96.6c-0.2,0-0.4-0.2-0.4-0.4v-2.5h-3.9c-0.5,0-1,0.4-1,1v7.9c0,0.5,0.4,1,1,1h5.8c0.5,0,1-0.4,1-1v-6
					H54.4z"/>
			</g>
			<path class="st5" d="M54.3,96.6h2.5L54,93.7v2.5C54,96.4,54.1,96.5,54.3,96.6z"/>
			<polygon class="st2" points="56.9,98.6 56.9,96.6 54.4,96.6 			"/>
		</g>
	</g>
	<rect x="10" y="0" class="st7" width="300" height="339.5"/>
	<g>
		<polygon class="st1" points="10,247 0,233.9 10,233.9 		"/>
		<polygon class="st1" points="310,247 320,233.9 310,233.9 		"/>
		<rect x="10" y="226.8" class="st8" width="300" height="12.4"/>
	</g>
	<g>
		<rect y="88.2" class="st4" width="320" height="146"/>
		<g>
			<g>
				<g>
					<path class="st1" d="M28.3,140.8c-0.3-0.2-0.6-0.5-0.8-0.8c-0.2-0.3-0.3-0.7-0.3-1.1c0-0.4,0.1-0.7,0.3-1.1
						c0.2-0.3,0.5-0.6,0.8-0.8c0.3-0.2,0.7-0.3,1.1-0.3c0.4,0,0.8,0.1,1.1,0.3c0.3,0.2,0.6,0.5,0.8,0.8c0.2,0.3,0.3,0.7,0.3,1.1
						c0,0.4-0.1,0.8-0.3,1.1c-0.2,0.3-0.5,0.6-0.8,0.8s-0.7,0.3-1.1,0.3C29.1,141,28.7,140.9,28.3,140.8z"/>
					<path class="st1" d="M29.5,141.2c-0.4,0-0.8-0.1-1.2-0.3c-0.4-0.2-0.7-0.5-0.9-0.8c-0.2-0.4-0.3-0.7-0.3-1.2
						c0-0.4,0.1-0.8,0.3-1.1c0.2-0.4,0.5-0.6,0.9-0.9c0.7-0.4,1.6-0.4,2.4,0c0.4,0.2,0.6,0.5,0.9,0.8c0.2,0.4,0.3,0.7,0.3,1.2
						c0,0.4-0.1,0.8-0.3,1.2c-0.2,0.4-0.5,0.6-0.9,0.8C30.3,141.1,29.9,141.2,29.5,141.2z M29.5,136.8c-0.4,0-0.8,0.1-1.1,0.3
						c-0.3,0.2-0.6,0.5-0.8,0.8c-0.2,0.3-0.3,0.7-0.3,1c0,0.4,0.1,0.7,0.3,1c0.2,0.3,0.5,0.6,0.8,0.7c0.6,0.4,1.5,0.4,2.1,0
						c0.3-0.2,0.6-0.4,0.8-0.7c0.2-0.3,0.3-0.7,0.3-1c0-0.4-0.1-0.7-0.3-1c-0.2-0.3-0.5-0.6-0.8-0.7
						C30.2,136.9,29.8,136.8,29.5,136.8z"/>
				</g>
				<path class="st9" d="M56.9,142.1h-0.8l-1.1-2.9c-0.1-0.4-0.3-0.7-0.6-0.8c-0.2-0.1-0.6-0.2-1.1-0.2H51v3.9h-0.8v-8.7h3.4
					c0.9,0,1.6,0.2,2.1,0.6c0.5,0.4,0.7,1,0.7,1.8c0,0.6-0.1,1-0.4,1.4c-0.3,0.4-0.7,0.7-1.3,0.8c0.3,0,0.5,0.1,0.6,0.3
					c0.2,0.2,0.3,0.4,0.5,0.8L56.9,142.1z M53.5,137.6c1.4,0,2.1-0.6,2.1-1.8c0-1.1-0.7-1.7-2.1-1.7H51v3.5H53.5z"/>
				<path class="st9" d="M64.3,139.8h-4.7l-1,2.3h-0.8l3.8-8.7h0.7l3.8,8.7h-0.8L64.3,139.8z M64,139.1l-2.1-4.8l-2.1,4.8H64z"/>
				<path class="st9" d="M74.3,142.1h-0.8l-1.1-2.9c-0.1-0.4-0.3-0.7-0.6-0.8c-0.2-0.1-0.6-0.2-1.1-0.2h-2.4v3.9h-0.8v-8.7h3.4
					c0.9,0,1.6,0.2,2.1,0.6c0.5,0.4,0.7,1,0.7,1.8c0,0.6-0.1,1-0.4,1.4c-0.3,0.4-0.7,0.7-1.3,0.8c0.3,0,0.5,0.1,0.6,0.3
					c0.2,0.2,0.3,0.4,0.5,0.8L74.3,142.1z M70.9,137.6c1.4,0,2.1-0.6,2.1-1.8c0-1.1-0.7-1.7-2.1-1.7h-2.6v3.5H70.9z"/>
				<path class="st9" d="M79.2,133.4H82c1.4,0,2.4,0.4,3.2,1.1c0.7,0.7,1.1,1.8,1.1,3.2s-0.4,2.5-1.1,3.2c-0.8,0.8-1.8,1.1-3.2,1.1
					h-2.8V133.4z M82,141.5c1.2,0,2.1-0.3,2.7-0.9c0.6-0.6,0.9-1.5,0.9-2.8c0-2.4-1.2-3.7-3.6-3.7h-2v7.4H82z"/>
				<path class="st9" d="M88.6,139L88.6,139c0,0.9,0.2,1.5,0.6,1.9s0.9,0.7,1.7,0.7c0.7,0,1.4-0.3,2-0.8l0.3,0.6
					c-0.3,0.3-0.6,0.5-1,0.6s-0.8,0.2-1.3,0.2c-0.9,0-1.7-0.3-2.2-0.8s-0.8-1.3-0.8-2.3c0-0.6,0.1-1.2,0.4-1.7
					c0.2-0.5,0.6-0.9,1-1.1c0.4-0.3,0.9-0.4,1.5-0.4c0.8,0,1.4,0.3,1.9,0.8s0.7,1.2,0.7,2.2v0.2H88.6z M89.3,137
					c-0.4,0.3-0.6,0.8-0.7,1.4h3.9c0-0.6-0.2-1.1-0.5-1.4s-0.8-0.5-1.3-0.5C90.1,136.5,89.6,136.6,89.3,137z"/>
				<path class="st9" d="M100,136l-2.6,6.1h-0.8L94,136h0.8l2.2,5.4l2.2-5.4H100z"/>
				<path class="st9" d="M101.6,139L101.6,139c0,0.9,0.2,1.5,0.6,1.9s0.9,0.7,1.7,0.7c0.7,0,1.4-0.3,2-0.8l0.3,0.6
					c-0.3,0.3-0.6,0.5-1,0.6s-0.8,0.2-1.3,0.2c-0.9,0-1.7-0.3-2.2-0.8s-0.8-1.3-0.8-2.3c0-0.6,0.1-1.2,0.4-1.7
					c0.2-0.5,0.6-0.9,1-1.1c0.4-0.3,0.9-0.4,1.5-0.4c0.8,0,1.4,0.3,1.9,0.8s0.7,1.2,0.7,2.2v0.2H101.6z M102.3,137
					c-0.4,0.3-0.6,0.8-0.7,1.4h3.9c0-0.6-0.2-1.1-0.5-1.4s-0.8-0.5-1.3-0.5C103.1,136.5,102.7,136.6,102.3,137z"/>
				<path class="st9" d="M107.9,133.1h0.7v9h-0.7V133.1z"/>
				<path class="st9" d="M111.7,141.8c-0.4-0.3-0.8-0.6-1-1.1s-0.3-1-0.3-1.7s0.1-1.2,0.3-1.7c0.2-0.5,0.6-0.8,1-1.1
					s0.9-0.4,1.5-0.4c0.6,0,1,0.1,1.5,0.4c0.4,0.3,0.8,0.6,1,1.1c0.2,0.5,0.3,1,0.3,1.7s-0.1,1.2-0.3,1.7s-0.6,0.9-1,1.1
					c-0.4,0.3-0.9,0.4-1.5,0.4C112.6,142.2,112.1,142.1,111.7,141.8z M114.7,140.9c0.4-0.4,0.5-1.1,0.5-1.9c0-0.8-0.2-1.4-0.5-1.9
					c-0.4-0.4-0.9-0.7-1.5-0.7c-0.6,0-1.1,0.2-1.5,0.7c-0.4,0.4-0.5,1.1-0.5,1.9c0,0.8,0.2,1.4,0.5,1.9c0.3,0.4,0.9,0.6,1.5,0.6
					C113.8,141.6,114.3,141.3,114.7,140.9z"/>
				<path class="st9" d="M121.9,136.3c0.4,0.3,0.7,0.6,1,1.1c0.2,0.5,0.3,1,0.3,1.7s-0.1,1.2-0.3,1.7c-0.2,0.5-0.5,0.8-1,1.1
					c-0.4,0.3-0.9,0.4-1.4,0.4c-0.5,0-1-0.1-1.3-0.3s-0.6-0.5-0.8-1v3.9h-0.7v-7.1c0-0.6,0-1.2-0.1-1.7h0.7l0.1,1.2
					c0.2-0.4,0.5-0.8,0.8-1c0.4-0.2,0.8-0.3,1.3-0.3C121.1,135.9,121.5,136,121.9,136.3z M121.9,140.9c0.4-0.4,0.5-1,0.5-1.8
					c0-0.8-0.2-1.4-0.5-1.9c-0.4-0.5-0.9-0.7-1.5-0.7c-0.7,0-1.2,0.2-1.5,0.7c-0.4,0.4-0.5,1.1-0.5,1.9c0,0.8,0.2,1.4,0.5,1.9
					c0.3,0.4,0.8,0.7,1.5,0.7C121.1,141.6,121.6,141.3,121.9,140.9z"/>
				<path class="st9" d="M133.6,138.2v3.9h-0.7v-3.8c0-0.6-0.1-1.1-0.3-1.3c-0.2-0.3-0.6-0.4-1-0.4c-0.6,0-1,0.2-1.3,0.6
					c-0.3,0.4-0.5,0.9-0.5,1.5v3.5h-0.7v-3.8c0-0.6-0.1-1.1-0.3-1.3c-0.2-0.3-0.6-0.4-1.1-0.4c-0.6,0-1,0.2-1.3,0.6
					c-0.3,0.4-0.5,0.9-0.5,1.5v3.5h-0.7v-4.4c0-0.6,0-1.2-0.1-1.7h0.7l0.1,1.1c0.2-0.4,0.4-0.7,0.8-0.9c0.3-0.2,0.7-0.3,1.2-0.3
					c1,0,1.6,0.4,1.9,1.2c0.2-0.4,0.4-0.7,0.8-0.9c0.4-0.2,0.8-0.3,1.3-0.3C132.9,135.9,133.6,136.7,133.6,138.2z"/>
				<path class="st9" d="M136,139L136,139c0,0.9,0.2,1.5,0.6,1.9s0.9,0.7,1.7,0.7c0.7,0,1.4-0.3,2-0.8l0.3,0.6
					c-0.3,0.3-0.6,0.5-1,0.6s-0.8,0.2-1.3,0.2c-0.9,0-1.7-0.3-2.2-0.8s-0.8-1.3-0.8-2.3c0-0.6,0.1-1.2,0.4-1.7
					c0.2-0.5,0.6-0.9,1-1.1c0.4-0.3,0.9-0.4,1.5-0.4c0.8,0,1.4,0.3,1.9,0.8s0.7,1.2,0.7,2.2v0.2H136z M136.7,137
					c-0.4,0.3-0.6,0.8-0.7,1.4h3.9c0-0.6-0.2-1.1-0.5-1.4s-0.8-0.5-1.3-0.5C137.5,136.5,137.1,136.6,136.7,137z"/>
				<path class="st9" d="M147.3,138.2v3.9h-0.7v-3.8c0-0.6-0.1-1.1-0.4-1.3c-0.2-0.3-0.6-0.4-1.2-0.4c-0.6,0-1.1,0.2-1.5,0.6
					c-0.4,0.4-0.6,0.9-0.6,1.5v3.5h-0.7v-4.4c0-0.6,0-1.2-0.1-1.7h0.7l0.1,1.1c0.2-0.4,0.5-0.7,0.8-0.9c0.4-0.2,0.8-0.3,1.3-0.3
					C146.6,135.9,147.3,136.7,147.3,138.2z"/>
				<path class="st9" d="M150.4,136.6v3.6c0,0.5,0.1,0.8,0.3,1c0.2,0.2,0.5,0.3,0.8,0.3c0.2,0,0.4,0,0.7-0.1v0.7
					c-0.3,0.1-0.5,0.1-0.8,0.1c-0.5,0-1-0.2-1.3-0.5c-0.3-0.3-0.5-0.8-0.5-1.4v-3.8h-1.2V136h1.2v-1.6l0.7-0.3v1.9h1.8v0.6H150.4z"
					/>
				<g>
					<path class="st1" d="M28.3,163.6c-0.3-0.2-0.6-0.5-0.8-0.8c-0.2-0.3-0.3-0.7-0.3-1.1c0-0.4,0.1-0.7,0.3-1.1
						c0.2-0.3,0.5-0.6,0.8-0.8c0.3-0.2,0.7-0.3,1.1-0.3c0.4,0,0.8,0.1,1.1,0.3c0.3,0.2,0.6,0.5,0.8,0.8c0.2,0.3,0.3,0.7,0.3,1.1
						c0,0.4-0.1,0.8-0.3,1.1c-0.2,0.3-0.5,0.6-0.8,0.8s-0.7,0.3-1.1,0.3C29.1,163.9,28.7,163.8,28.3,163.6z"/>
					<path class="st1" d="M29.5,164.1c-0.4,0-0.8-0.1-1.2-0.3c-0.4-0.2-0.7-0.5-0.9-0.8c-0.2-0.4-0.3-0.7-0.3-1.2
						c0-0.4,0.1-0.8,0.3-1.1c0.2-0.4,0.5-0.6,0.9-0.9c0.7-0.4,1.6-0.4,2.4,0c0.4,0.2,0.6,0.5,0.9,0.8c0.2,0.4,0.3,0.7,0.3,1.2
						c0,0.4-0.1,0.8-0.3,1.2c-0.2,0.4-0.5,0.6-0.9,0.8C30.3,164,29.9,164.1,29.5,164.1z M29.5,159.7c-0.4,0-0.8,0.1-1.1,0.3
						c-0.3,0.2-0.6,0.5-0.8,0.8c-0.2,0.3-0.3,0.7-0.3,1c0,0.4,0.1,0.7,0.3,1c0.2,0.3,0.5,0.6,0.8,0.7c0.6,0.4,1.5,0.4,2.1,0
						c0.3-0.2,0.6-0.4,0.8-0.7c0.2-0.3,0.3-0.7,0.3-1c0-0.4-0.1-0.7-0.3-1c-0.2-0.3-0.5-0.6-0.8-0.7
						C30.2,159.8,29.8,159.7,29.5,159.7z"/>
				</g>
				<path class="st9" d="M50.2,156.3h5.2v0.6H51v3.3h4.2v0.7H51v4.1h-0.8V156.3z"/>
				<path class="st9" d="M57.3,161.9L57.3,161.9c0,0.9,0.2,1.5,0.6,1.9s0.9,0.7,1.7,0.7c0.7,0,1.4-0.3,2-0.8l0.3,0.6
					c-0.3,0.3-0.6,0.5-1,0.6c-0.4,0.1-0.8,0.2-1.3,0.2c-0.9,0-1.7-0.3-2.2-0.8s-0.8-1.3-0.8-2.3c0-0.6,0.1-1.2,0.4-1.7
					c0.2-0.5,0.6-0.9,1-1.1c0.4-0.3,0.9-0.4,1.5-0.4c0.8,0,1.4,0.3,1.9,0.8s0.7,1.2,0.7,2.2v0.2H57.3z M58,159.9
					c-0.4,0.3-0.6,0.8-0.7,1.4h3.9c0-0.6-0.2-1.1-0.5-1.4s-0.8-0.5-1.3-0.5C58.8,159.4,58.3,159.5,58,159.9z"/>
				<path class="st9" d="M68.8,156v9H68v-1.2c-0.2,0.4-0.4,0.7-0.8,0.9c-0.4,0.2-0.8,0.3-1.3,0.3c-0.5,0-1-0.1-1.4-0.4
					c-0.4-0.3-0.7-0.6-1-1.1c-0.2-0.5-0.3-1-0.3-1.7s0.1-1.2,0.3-1.7c0.2-0.5,0.5-0.8,1-1.1c0.4-0.3,0.9-0.4,1.4-0.4
					c0.5,0,0.9,0.1,1.3,0.3c0.4,0.2,0.6,0.5,0.8,0.9v-4H68.8z M67.5,163.8c0.3-0.4,0.5-1.1,0.5-1.9c0-0.8-0.2-1.4-0.5-1.9
					c-0.4-0.4-0.8-0.7-1.5-0.7c-0.7,0-1.2,0.2-1.5,0.7c-0.4,0.4-0.5,1.1-0.5,1.8c0,0.8,0.2,1.4,0.5,1.9c0.4,0.4,0.9,0.7,1.5,0.7
					C66.6,164.4,67.1,164.2,67.5,163.8z"/>
				<path class="st9" d="M77.6,165h-0.8l-1.1-2.9c-0.1-0.4-0.3-0.7-0.6-0.8c-0.2-0.1-0.6-0.2-1.1-0.2h-2.4v3.9h-0.8v-8.7h3.4
					c0.9,0,1.6,0.2,2.1,0.6c0.5,0.4,0.7,1,0.7,1.8c0,0.6-0.1,1-0.4,1.4c-0.3,0.4-0.7,0.7-1.3,0.8c0.3,0,0.5,0.1,0.6,0.3
					c0.2,0.2,0.3,0.4,0.5,0.8L77.6,165z M74.3,160.5c1.4,0,2.1-0.6,2.1-1.8c0-1.1-0.7-1.7-2.1-1.7h-2.6v3.5H74.3z"/>
				<path class="st9" d="M85,162.7h-4.7l-1,2.3h-0.8l3.8-8.7H83l3.8,8.7H86L85,162.7z M84.7,162l-2.1-4.8l-2.1,4.8H84.7z"/>
				<path class="st9" d="M96.4,156.3v8.7h-0.7v-7l-3.1,7h-0.6l-3.1-6.9l0,6.9h-0.7v-8.7h0.6l3.4,7.8l3.4-7.8H96.4z"/>
				<path class="st9" d="M98.7,156.3h3.3c0.9,0,1.6,0.2,2.1,0.6c0.5,0.4,0.7,1,0.7,1.7c0,0.7-0.2,1.3-0.8,1.8
					c-0.5,0.4-1.2,0.6-2,0.6h-2.6v3.9h-0.8V156.3z M102,160.4c0.7,0,1.2-0.2,1.5-0.5c0.4-0.3,0.5-0.7,0.5-1.3c0-0.6-0.2-1-0.5-1.3
					c-0.3-0.3-0.9-0.5-1.5-0.5h-2.5v3.5H102z"/>
				<path class="st9" d="M109.8,156.3h3.3c0.9,0,1.6,0.2,2.1,0.6c0.5,0.4,0.7,1,0.7,1.7c0,0.7-0.2,1.3-0.8,1.8
					c-0.5,0.4-1.2,0.6-2,0.6h-2.6v3.9h-0.8V156.3z M113.1,160.4c0.7,0,1.2-0.2,1.5-0.5c0.4-0.3,0.5-0.7,0.5-1.3c0-0.6-0.2-1-0.5-1.3
					c-0.3-0.3-0.9-0.5-1.5-0.5h-2.5v3.5H113.1z"/>
				<path class="st9" d="M125.8,156.3v8.7h-0.7v-7l-3.1,7h-0.6l-3.1-6.9l0,6.9h-0.7v-8.7h0.6l3.4,7.8l3.4-7.8H125.8z"/>
				<path class="st9" d="M129.6,164.6c-0.6-0.4-1-0.9-1.3-1.5c-0.3-0.7-0.5-1.5-0.5-2.4c0-0.9,0.2-1.7,0.5-2.4
					c0.3-0.7,0.8-1.2,1.3-1.5c0.6-0.4,1.3-0.5,2.1-0.5c0.8,0,1.5,0.2,2.1,0.5c0.6,0.4,1,0.9,1.3,1.5s0.5,1.5,0.5,2.4
					s-0.2,1.7-0.5,2.4c-0.3,0.7-0.8,1.2-1.3,1.5c-0.6,0.4-1.3,0.5-2.1,0.5C130.9,165.1,130.2,164.9,129.6,164.6z M133.9,163.5
					c0.5-0.7,0.8-1.6,0.8-2.8s-0.3-2.1-0.8-2.8s-1.3-1-2.3-1c-1,0-1.7,0.3-2.3,1s-0.8,1.6-0.8,2.8s0.3,2.1,0.8,2.8s1.3,1,2.3,1
					C132.6,164.4,133.4,164.1,133.9,163.5z"/>
				<path class="st9" d="M147.4,165h-0.8l-1.1-2.9c-0.1-0.4-0.3-0.7-0.6-0.8c-0.2-0.1-0.6-0.2-1.1-0.2h-2.4v3.9h-0.8v-8.7h3.4
					c0.9,0,1.6,0.2,2.1,0.6c0.5,0.4,0.7,1,0.7,1.8c0,0.6-0.1,1-0.4,1.4c-0.3,0.4-0.7,0.7-1.3,0.8c0.3,0,0.5,0.1,0.6,0.3
					c0.2,0.2,0.3,0.4,0.5,0.8L147.4,165z M144,160.5c1.4,0,2.1-0.6,2.1-1.8c0-1.1-0.7-1.7-2.1-1.7h-2.6v3.5H144z"/>
				<path class="st9" d="M149.4,161.9L149.4,161.9c0,0.9,0.2,1.5,0.6,1.9s0.9,0.7,1.7,0.7c0.7,0,1.4-0.3,2-0.8l0.3,0.6
					c-0.3,0.3-0.6,0.5-1,0.6c-0.4,0.1-0.8,0.2-1.3,0.2c-0.9,0-1.7-0.3-2.2-0.8s-0.8-1.3-0.8-2.3c0-0.6,0.1-1.2,0.4-1.7
					c0.2-0.5,0.6-0.9,1-1.1c0.4-0.3,0.9-0.4,1.5-0.4c0.8,0,1.4,0.3,1.9,0.8s0.7,1.2,0.7,2.2v0.2H149.4z M150.1,159.9
					c-0.4,0.3-0.6,0.8-0.7,1.4h3.9c0-0.6-0.2-1.1-0.5-1.4s-0.8-0.5-1.3-0.5C150.9,159.4,150.5,159.5,150.1,159.9z"/>
				<path class="st9" d="M160.9,158.9l-2.6,6.1h-0.8l-2.6-6.1h0.8l2.2,5.4l2.2-5.4H160.9z"/>
				<path class="st9" d="M163,156.4v1h-1v-1H163z M162.1,158.9h0.7v6.1h-0.7V158.9z"/>
				<path class="st9" d="M165.4,161.9L165.4,161.9c0,0.9,0.2,1.5,0.6,1.9s0.9,0.7,1.7,0.7c0.7,0,1.4-0.3,2-0.8l0.3,0.6
					c-0.3,0.3-0.6,0.5-1,0.6c-0.4,0.1-0.8,0.2-1.3,0.2c-0.9,0-1.7-0.3-2.2-0.8s-0.8-1.3-0.8-2.3c0-0.6,0.1-1.2,0.4-1.7
					c0.2-0.5,0.6-0.9,1-1.1c0.4-0.3,0.9-0.4,1.5-0.4c0.8,0,1.4,0.3,1.9,0.8s0.7,1.2,0.7,2.2v0.2H165.4z M166.1,159.9
					c-0.4,0.3-0.6,0.8-0.7,1.4h3.9c0-0.6-0.2-1.1-0.5-1.4s-0.8-0.5-1.3-0.5C166.9,159.4,166.4,159.5,166.1,159.9z"/>
				<path class="st9" d="M180.7,158.9l-2.2,6.1h-0.8l-1.9-5.2L174,165h-0.8l-2.2-6.1h0.8l1.8,5.2l1.9-5.2h0.7l1.8,5.2l1.9-5.2H180.7
					z"/>
				<path class="st9" d="M186.3,164.7c-0.4-0.3-0.8-0.6-1-1.1s-0.3-1-0.3-1.7s0.1-1.2,0.3-1.7c0.2-0.5,0.6-0.8,1-1.1
					s0.9-0.4,1.5-0.4c0.6,0,1,0.1,1.5,0.4c0.4,0.3,0.8,0.6,1,1.1c0.2,0.5,0.3,1,0.3,1.7s-0.1,1.2-0.3,1.7s-0.6,0.9-1,1.1
					c-0.4,0.3-0.9,0.4-1.5,0.4C187.3,165.1,186.8,165,186.3,164.7z M189.3,163.8c0.4-0.4,0.5-1.1,0.5-1.9c0-0.8-0.2-1.4-0.5-1.9
					c-0.4-0.4-0.9-0.7-1.5-0.7c-0.6,0-1.1,0.2-1.5,0.7c-0.4,0.4-0.5,1.1-0.5,1.9c0,0.8,0.2,1.4,0.5,1.9c0.3,0.4,0.9,0.6,1.5,0.6
					C188.5,164.4,189,164.2,189.3,163.8z"/>
				<path class="st9" d="M193.6,156.9c-0.2,0.2-0.3,0.5-0.3,1v1h1.6v0.6h-1.6v5.5h-0.7v-5.5h-1.2v-0.6h1.2v-1.1
					c0-0.6,0.2-1.1,0.5-1.4c0.3-0.3,0.7-0.5,1.2-0.5c0.2,0,0.5,0,0.8,0.1v0.7c-0.2-0.1-0.4-0.1-0.6-0.1
					C194.1,156.7,193.8,156.7,193.6,156.9z"/>
				<path class="st9" d="M206.3,165h-0.8l-1.1-2.9c-0.1-0.4-0.3-0.7-0.6-0.8c-0.2-0.1-0.6-0.2-1.1-0.2h-2.4v3.9h-0.8v-8.7h3.4
					c0.9,0,1.6,0.2,2.1,0.6c0.5,0.4,0.7,1,0.7,1.8c0,0.6-0.1,1-0.4,1.4c-0.3,0.4-0.7,0.7-1.3,0.8c0.3,0,0.5,0.1,0.6,0.3
					c0.2,0.2,0.3,0.4,0.5,0.8L206.3,165z M202.9,160.5c1.4,0,2.1-0.6,2.1-1.8c0-1.1-0.7-1.7-2.1-1.7h-2.6v3.5H202.9z"/>
				<path class="st9" d="M213.7,162.7H209l-1,2.3h-0.8l3.8-8.7h0.7l3.8,8.7h-0.8L213.7,162.7z M213.4,162l-2.1-4.8l-2.1,4.8H213.4z"
					/>
				<path class="st9" d="M223.6,165h-0.8l-1.1-2.9c-0.1-0.4-0.3-0.7-0.6-0.8c-0.2-0.1-0.6-0.2-1.1-0.2h-2.4v3.9h-0.8v-8.7h3.4
					c0.9,0,1.6,0.2,2.1,0.6c0.5,0.4,0.7,1,0.7,1.8c0,0.6-0.1,1-0.4,1.4c-0.3,0.4-0.7,0.7-1.3,0.8c0.3,0,0.5,0.1,0.6,0.3
					c0.2,0.2,0.3,0.4,0.5,0.8L223.6,165z M220.2,160.5c1.4,0,2.1-0.6,2.1-1.8c0-1.1-0.7-1.7-2.1-1.7h-2.6v3.5H220.2z"/>
				<g>
					<path class="st1" d="M28.3,186.5c-0.3-0.2-0.6-0.5-0.8-0.8c-0.2-0.3-0.3-0.7-0.3-1.1c0-0.4,0.1-0.7,0.3-1.1
						c0.2-0.3,0.5-0.6,0.8-0.8c0.3-0.2,0.7-0.3,1.1-0.3c0.4,0,0.8,0.1,1.1,0.3c0.3,0.2,0.6,0.5,0.8,0.8c0.2,0.3,0.3,0.7,0.3,1.1
						c0,0.4-0.1,0.8-0.3,1.1c-0.2,0.3-0.5,0.6-0.8,0.8s-0.7,0.3-1.1,0.3C29.1,186.8,28.7,186.7,28.3,186.5z"/>
					<path class="st1" d="M29.5,186.9c-0.4,0-0.8-0.1-1.2-0.3c-0.4-0.2-0.7-0.5-0.9-0.8c-0.2-0.4-0.3-0.7-0.3-1.2
						c0-0.4,0.1-0.8,0.3-1.1c0.2-0.4,0.5-0.6,0.9-0.9c0.7-0.4,1.6-0.4,2.4,0c0.4,0.2,0.6,0.5,0.9,0.8c0.2,0.4,0.3,0.7,0.3,1.2
						c0,0.4-0.1,0.8-0.3,1.2c-0.2,0.4-0.5,0.6-0.9,0.8C30.3,186.8,29.9,186.9,29.5,186.9z M29.5,182.6c-0.4,0-0.8,0.1-1.1,0.3
						c-0.3,0.2-0.6,0.5-0.8,0.8c-0.2,0.3-0.3,0.7-0.3,1c0,0.4,0.1,0.7,0.3,1c0.2,0.3,0.5,0.6,0.8,0.7c0.6,0.4,1.5,0.4,2.1,0
						c0.3-0.2,0.6-0.4,0.8-0.8c0.2-0.3,0.3-0.7,0.3-1c0-0.4-0.1-0.7-0.3-1c-0.2-0.3-0.5-0.6-0.8-0.7
						C30.2,182.7,29.8,182.6,29.5,182.6z"/>
				</g>
				<path class="st9" d="M56.9,187.9h-0.8l-1.1-2.9c-0.1-0.4-0.3-0.7-0.6-0.8c-0.2-0.1-0.6-0.2-1.1-0.2H51v3.9h-0.8v-8.7h3.4
					c0.9,0,1.6,0.2,2.1,0.6c0.5,0.4,0.7,1,0.7,1.8c0,0.6-0.1,1-0.4,1.4c-0.3,0.4-0.7,0.7-1.3,0.8c0.3,0,0.5,0.1,0.6,0.3
					c0.2,0.2,0.3,0.4,0.5,0.8L56.9,187.9z M53.5,183.4c1.4,0,2.1-0.6,2.1-1.8c0-1.1-0.7-1.7-2.1-1.7H51v3.5H53.5z"/>
				<path class="st9" d="M59,184.8L59,184.8c0,0.9,0.2,1.5,0.6,1.9s0.9,0.7,1.7,0.7c0.7,0,1.4-0.3,2-0.8l0.3,0.6
					c-0.3,0.3-0.6,0.5-1,0.6s-0.8,0.2-1.3,0.2c-0.9,0-1.7-0.3-2.2-0.8s-0.8-1.3-0.8-2.3c0-0.6,0.1-1.2,0.4-1.7
					c0.2-0.5,0.6-0.9,1-1.1c0.4-0.3,0.9-0.4,1.5-0.4c0.8,0,1.4,0.3,1.9,0.8s0.7,1.2,0.7,2.2v0.2H59z M59.7,182.8
					c-0.4,0.3-0.6,0.8-0.7,1.4h3.9c0-0.6-0.2-1.1-0.5-1.4s-0.8-0.5-1.3-0.5C60.5,182.2,60,182.4,59.7,182.8z"/>
				<path class="st9" d="M73.9,184v3.9h-0.7v-3.8c0-0.6-0.1-1.1-0.3-1.3c-0.2-0.3-0.6-0.4-1-0.4c-0.6,0-1,0.2-1.3,0.6
					c-0.3,0.4-0.5,0.9-0.5,1.5v3.5h-0.7v-3.8c0-0.6-0.1-1.1-0.3-1.3c-0.2-0.3-0.6-0.4-1.1-0.4c-0.6,0-1,0.2-1.3,0.6
					c-0.3,0.4-0.5,0.9-0.5,1.5v3.5h-0.7v-4.4c0-0.6,0-1.2-0.1-1.7h0.7l0.1,1.1c0.2-0.4,0.4-0.7,0.8-0.9c0.3-0.2,0.7-0.3,1.2-0.3
					c1,0,1.6,0.4,1.9,1.2c0.2-0.4,0.4-0.7,0.8-0.9c0.4-0.2,0.8-0.3,1.3-0.3C73.2,181.6,73.9,182.4,73.9,184z"/>
				<path class="st9" d="M76.3,184.8L76.3,184.8c0,0.9,0.2,1.5,0.6,1.9s0.9,0.7,1.7,0.7c0.7,0,1.4-0.3,2-0.8l0.3,0.6
					c-0.3,0.3-0.6,0.5-1,0.6S79,188,78.6,188c-0.9,0-1.7-0.3-2.2-0.8s-0.8-1.3-0.8-2.3c0-0.6,0.1-1.2,0.4-1.7c0.2-0.5,0.6-0.9,1-1.1
					c0.4-0.3,0.9-0.4,1.5-0.4c0.8,0,1.4,0.3,1.9,0.8s0.7,1.2,0.7,2.2v0.2H76.3z M77,182.8c-0.4,0.3-0.6,0.8-0.7,1.4h3.9
					c0-0.6-0.2-1.1-0.5-1.4s-0.8-0.5-1.3-0.5C77.8,182.2,77.4,182.4,77,182.8z"/>
				<path class="st9" d="M87.8,178.9v9h-0.7v-1.2c-0.2,0.4-0.4,0.7-0.8,0.9c-0.4,0.2-0.8,0.3-1.3,0.3c-0.5,0-1-0.1-1.4-0.4
					c-0.4-0.3-0.7-0.6-1-1.1c-0.2-0.5-0.3-1-0.3-1.7s0.1-1.2,0.3-1.7c0.2-0.5,0.5-0.8,1-1.1c0.4-0.3,0.9-0.4,1.4-0.4
					c0.5,0,0.9,0.1,1.3,0.3c0.4,0.2,0.6,0.5,0.8,0.9v-4H87.8z M86.5,186.7c0.3-0.4,0.5-1.1,0.5-1.9c0-0.8-0.2-1.4-0.5-1.9
					c-0.4-0.4-0.8-0.7-1.5-0.7c-0.7,0-1.2,0.2-1.5,0.7c-0.4,0.4-0.5,1.1-0.5,1.8c0,0.8,0.2,1.4,0.5,1.9c0.4,0.4,0.9,0.7,1.5,0.7
					C85.7,187.3,86.2,187.1,86.5,186.7z"/>
				<path class="st9" d="M90.8,179.3v1h-1v-1H90.8z M89.9,181.8h0.7v6.1h-0.7V181.8z"/>
				<path class="st9" d="M97.9,181.8v6.1h-0.7v-1.2c-0.2,0.4-0.4,0.7-0.8,0.9c-0.4,0.2-0.8,0.3-1.3,0.3c-0.5,0-1-0.1-1.4-0.4
					c-0.4-0.3-0.7-0.6-1-1.1c-0.2-0.5-0.3-1-0.3-1.7s0.1-1.2,0.3-1.7c0.2-0.5,0.5-0.9,1-1.1c0.4-0.3,0.9-0.4,1.4-0.4
					c0.5,0,0.9,0.1,1.3,0.3c0.4,0.2,0.6,0.5,0.8,0.9v-1.1H97.9z M96.7,186.7c0.3-0.4,0.5-1.1,0.5-1.9c0-0.8-0.2-1.4-0.5-1.9
					c-0.4-0.4-0.8-0.7-1.5-0.7c-0.6,0-1.1,0.2-1.5,0.7c-0.4,0.5-0.5,1.1-0.5,1.9c0,0.8,0.2,1.4,0.5,1.8c0.4,0.4,0.9,0.7,1.5,0.7
					C95.8,187.3,96.3,187.1,96.7,186.7z"/>
				<path class="st9" d="M101.1,182.4v3.6c0,0.5,0.1,0.8,0.3,1c0.2,0.2,0.5,0.3,0.8,0.3c0.2,0,0.4,0,0.7-0.1v0.7
					c-0.3,0.1-0.5,0.1-0.8,0.1c-0.5,0-1-0.2-1.3-0.5c-0.3-0.3-0.5-0.8-0.5-1.4v-3.8h-1.2v-0.6h1.2v-1.6l0.7-0.3v1.9h1.8v0.6H101.1z"
					/>
				<path class="st9" d="M105.1,179.3v1h-1v-1H105.1z M104.2,181.8h0.7v6.1h-0.7V181.8z"/>
				<path class="st9" d="M108,187.6c-0.4-0.3-0.8-0.6-1-1.1s-0.3-1-0.3-1.7s0.1-1.2,0.3-1.7c0.2-0.5,0.6-0.8,1-1.1s0.9-0.4,1.5-0.4
					c0.6,0,1,0.1,1.5,0.4c0.4,0.3,0.8,0.6,1,1.1c0.2,0.5,0.3,1,0.3,1.7s-0.1,1.2-0.3,1.7s-0.6,0.9-1,1.1c-0.4,0.3-0.9,0.4-1.5,0.4
					C108.9,188,108.4,187.9,108,187.6z M111,186.7c0.4-0.4,0.5-1.1,0.5-1.9c0-0.8-0.2-1.4-0.5-1.9c-0.4-0.4-0.9-0.7-1.5-0.7
					c-0.6,0-1.1,0.2-1.5,0.7c-0.4,0.4-0.5,1.1-0.5,1.9c0,0.8,0.2,1.4,0.5,1.9c0.3,0.4,0.9,0.6,1.5,0.6
					C110.1,187.3,110.6,187.1,111,186.7z"/>
				<path class="st9" d="M119,184v3.9h-0.7v-3.8c0-0.6-0.1-1.1-0.4-1.3c-0.2-0.3-0.6-0.4-1.2-0.4c-0.6,0-1.1,0.2-1.5,0.6
					c-0.4,0.4-0.6,0.9-0.6,1.5v3.5H114v-4.4c0-0.6,0-1.2-0.1-1.7h0.7l0.1,1.1c0.2-0.4,0.5-0.7,0.8-0.9c0.4-0.2,0.8-0.3,1.3-0.3
					C118.3,181.6,119,182.4,119,184z"/>
				<path class="st9" d="M124.9,187.4c-0.2-0.9-0.3-1.8-0.3-2.8c0-0.9,0.1-1.9,0.3-2.7c0.2-0.9,0.5-1.8,1-2.7h0.7
					c-0.4,1-0.7,1.9-0.9,2.8s-0.3,1.8-0.3,2.6s0.1,1.8,0.3,2.6c0.2,0.9,0.5,1.8,0.9,2.8h-0.6C125.4,189.2,125.1,188.3,124.9,187.4z"
					/>
				<path class="st9" d="M128.9,179.3v1h-1v-1H128.9z M128,181.8h0.7v6.1H128V181.8z"/>
				<path class="st9" d="M132.1,179.8c-0.2,0.2-0.3,0.5-0.3,1v1h1.6v0.6h-1.6v5.5h-0.7v-5.5h-1.2v-0.6h1.2v-1.1
					c0-0.6,0.2-1.1,0.5-1.4c0.3-0.3,0.7-0.5,1.2-0.5c0.2,0,0.5,0,0.8,0.1v0.7c-0.2-0.1-0.4-0.1-0.6-0.1
					C132.6,179.5,132.3,179.6,132.1,179.8z"/>
				<path class="st9" d="M143.1,184v3.9h-0.7v-3.8c0-0.6-0.1-1.1-0.4-1.3c-0.2-0.3-0.6-0.4-1.2-0.4c-0.6,0-1.1,0.2-1.5,0.6
					c-0.4,0.4-0.6,0.9-0.6,1.5v3.5H138v-4.4c0-0.6,0-1.2-0.1-1.7h0.7l0.1,1.1c0.2-0.4,0.5-0.7,0.8-0.9c0.4-0.2,0.8-0.3,1.3-0.3
					C142.3,181.6,143.1,182.4,143.1,184z"/>
				<path class="st9" d="M145.5,184.8L145.5,184.8c0,0.9,0.2,1.5,0.6,1.9s0.9,0.7,1.7,0.7c0.7,0,1.4-0.3,2-0.8l0.3,0.6
					c-0.3,0.3-0.6,0.5-1,0.6s-0.8,0.2-1.3,0.2c-0.9,0-1.7-0.3-2.2-0.8s-0.8-1.3-0.8-2.3c0-0.6,0.1-1.2,0.4-1.7
					c0.2-0.5,0.6-0.9,1-1.1c0.4-0.3,0.9-0.4,1.5-0.4c0.8,0,1.4,0.3,1.9,0.8s0.7,1.2,0.7,2.2v0.2H145.5z M146.2,182.8
					c-0.4,0.3-0.6,0.8-0.7,1.4h3.9c0-0.6-0.2-1.1-0.5-1.4s-0.8-0.5-1.3-0.5C147,182.2,146.6,182.4,146.2,182.8z"/>
				<path class="st9" d="M152.2,184.8L152.2,184.8c0,0.9,0.2,1.5,0.6,1.9s0.9,0.7,1.7,0.7c0.7,0,1.4-0.3,2-0.8l0.3,0.6
					c-0.3,0.3-0.6,0.5-1,0.6s-0.8,0.2-1.3,0.2c-0.9,0-1.7-0.3-2.2-0.8s-0.8-1.3-0.8-2.3c0-0.6,0.1-1.2,0.4-1.7
					c0.2-0.5,0.6-0.9,1-1.1c0.4-0.3,0.9-0.4,1.5-0.4c0.8,0,1.4,0.3,1.9,0.8s0.7,1.2,0.7,2.2v0.2H152.2z M152.9,182.8
					c-0.4,0.3-0.6,0.8-0.7,1.4h3.9c0-0.6-0.2-1.1-0.5-1.4s-0.8-0.5-1.3-0.5C153.7,182.2,153.3,182.4,152.9,182.8z"/>
				<path class="st9" d="M163.7,178.9v9h-0.7v-1.2c-0.2,0.4-0.4,0.7-0.8,0.9c-0.4,0.2-0.8,0.3-1.3,0.3c-0.5,0-1-0.1-1.4-0.4
					c-0.4-0.3-0.7-0.6-1-1.1c-0.2-0.5-0.3-1-0.3-1.7s0.1-1.2,0.3-1.7c0.2-0.5,0.5-0.8,1-1.1c0.4-0.3,0.9-0.4,1.4-0.4
					c0.5,0,0.9,0.1,1.3,0.3c0.4,0.2,0.6,0.5,0.8,0.9v-4H163.7z M162.4,186.7c0.3-0.4,0.5-1.1,0.5-1.9c0-0.8-0.2-1.4-0.5-1.9
					c-0.4-0.4-0.8-0.7-1.5-0.7c-0.7,0-1.2,0.2-1.5,0.7c-0.4,0.4-0.5,1.1-0.5,1.8c0,0.8,0.2,1.4,0.5,1.9c0.4,0.4,0.9,0.7,1.5,0.7
					C161.6,187.3,162.1,187.1,162.4,186.7z"/>
				<path class="st9" d="M166.2,184.8L166.2,184.8c0,0.9,0.2,1.5,0.6,1.9s0.9,0.7,1.7,0.7c0.7,0,1.4-0.3,2-0.8l0.3,0.6
					c-0.3,0.3-0.6,0.5-1,0.6s-0.8,0.2-1.3,0.2c-0.9,0-1.7-0.3-2.2-0.8s-0.8-1.3-0.8-2.3c0-0.6,0.1-1.2,0.4-1.7
					c0.2-0.5,0.6-0.9,1-1.1c0.4-0.3,0.9-0.4,1.5-0.4c0.8,0,1.4,0.3,1.9,0.8s0.7,1.2,0.7,2.2v0.2H166.2z M166.9,182.8
					c-0.4,0.3-0.6,0.8-0.7,1.4h3.9c0-0.6-0.2-1.1-0.5-1.4s-0.8-0.5-1.3-0.5C167.7,182.2,167.2,182.4,166.9,182.8z"/>
				<path class="st9" d="M177.7,178.9v9h-0.7v-1.2c-0.2,0.4-0.4,0.7-0.8,0.9c-0.4,0.2-0.8,0.3-1.3,0.3c-0.5,0-1-0.1-1.4-0.4
					c-0.4-0.3-0.7-0.6-1-1.1c-0.2-0.5-0.3-1-0.3-1.7s0.1-1.2,0.3-1.7c0.2-0.5,0.5-0.8,1-1.1c0.4-0.3,0.9-0.4,1.4-0.4
					c0.5,0,0.9,0.1,1.3,0.3c0.4,0.2,0.6,0.5,0.8,0.9v-4H177.7z M176.4,186.7c0.3-0.4,0.5-1.1,0.5-1.9c0-0.8-0.2-1.4-0.5-1.9
					c-0.4-0.4-0.8-0.7-1.5-0.7c-0.7,0-1.2,0.2-1.5,0.7c-0.4,0.4-0.5,1.1-0.5,1.8c0,0.8,0.2,1.4,0.5,1.9c0.4,0.4,0.9,0.7,1.5,0.7
					C175.5,187.3,176,187.1,176.4,186.7z"/>
				<path class="st9" d="M179.1,190.1c0.4-1,0.7-1.9,0.9-2.8c0.2-0.9,0.3-1.8,0.3-2.6c0-0.9-0.1-1.8-0.3-2.6s-0.5-1.8-0.9-2.8h0.7
					c0.4,0.9,0.8,1.8,1,2.7c0.2,0.9,0.3,1.8,0.3,2.7c0,1-0.1,1.9-0.3,2.8c-0.2,0.9-0.5,1.8-1,2.7H179.1z"/>
				<path class="st9" d="M50.2,202.1h5.2v0.6H51v3.3h4.2v0.7H51v4.1h-0.8V202.1z"/>
				<path class="st9" d="M57.3,207.6L57.3,207.6c0,0.9,0.2,1.5,0.6,1.9s0.9,0.7,1.7,0.7c0.7,0,1.4-0.3,2-0.8l0.3,0.6
					c-0.3,0.3-0.6,0.5-1,0.6s-0.8,0.2-1.3,0.2c-0.9,0-1.7-0.3-2.2-0.8s-0.8-1.3-0.8-2.3c0-0.6,0.1-1.2,0.4-1.7
					c0.2-0.5,0.6-0.9,1-1.1c0.4-0.3,0.9-0.4,1.5-0.4c0.8,0,1.4,0.3,1.9,0.8s0.7,1.2,0.7,2.2v0.2H57.3z M58,205.6
					c-0.4,0.3-0.6,0.8-0.7,1.4h3.9c0-0.6-0.2-1.1-0.5-1.4s-0.8-0.5-1.3-0.5C58.8,205.1,58.3,205.3,58,205.6z"/>
				<path class="st9" d="M68.8,201.8v9H68v-1.2c-0.2,0.4-0.4,0.7-0.8,0.9c-0.4,0.2-0.8,0.3-1.3,0.3c-0.5,0-1-0.1-1.4-0.4
					c-0.4-0.3-0.7-0.6-1-1.1c-0.2-0.5-0.3-1-0.3-1.7s0.1-1.2,0.3-1.7c0.2-0.5,0.5-0.8,1-1.1c0.4-0.3,0.9-0.4,1.4-0.4
					c0.5,0,0.9,0.1,1.3,0.3c0.4,0.2,0.6,0.5,0.8,0.9v-4H68.8z M67.5,209.6c0.3-0.4,0.5-1.1,0.5-1.9c0-0.8-0.2-1.4-0.5-1.9
					c-0.4-0.4-0.8-0.7-1.5-0.7c-0.7,0-1.2,0.2-1.5,0.7c-0.4,0.4-0.5,1.1-0.5,1.8c0,0.8,0.2,1.4,0.5,1.9c0.4,0.4,0.9,0.7,1.5,0.7
					C66.6,210.2,67.1,210,67.5,209.6z"/>
				<path class="st9" d="M77.6,210.8h-0.8l-1.1-2.9c-0.1-0.4-0.3-0.7-0.6-0.8c-0.2-0.1-0.6-0.2-1.1-0.2h-2.4v3.9h-0.8v-8.7h3.4
					c0.9,0,1.6,0.2,2.1,0.6c0.5,0.4,0.7,1,0.7,1.8c0,0.6-0.1,1-0.4,1.4c-0.3,0.4-0.7,0.7-1.3,0.8c0.3,0,0.5,0.1,0.6,0.3
					c0.2,0.2,0.3,0.4,0.5,0.8L77.6,210.8z M74.3,206.2c1.4,0,2.1-0.6,2.1-1.8c0-1.1-0.7-1.7-2.1-1.7h-2.6v3.5H74.3z"/>
				<path class="st9" d="M85,208.5h-4.7l-1,2.3h-0.8l3.8-8.7H83l3.8,8.7H86L85,208.5z M84.7,207.8l-2.1-4.8l-2.1,4.8H84.7z"/>
				<path class="st9" d="M96.4,202.1v8.7h-0.7v-7l-3.1,7h-0.6l-3.1-6.9l0,6.9h-0.7v-8.7h0.6l3.4,7.8l3.4-7.8H96.4z"/>
				<path class="st9" d="M98.7,202.1h3.3c0.9,0,1.6,0.2,2.1,0.6c0.5,0.4,0.7,1,0.7,1.7c0,0.7-0.2,1.3-0.8,1.8
					c-0.5,0.4-1.2,0.6-2,0.6h-2.6v3.9h-0.8V202.1z M102,206.2c0.7,0,1.2-0.2,1.5-0.5c0.4-0.3,0.5-0.7,0.5-1.3c0-0.6-0.2-1-0.5-1.3
					c-0.3-0.3-0.9-0.5-1.5-0.5h-2.5v3.5H102z"/>
				<path class="st9" d="M117.9,202.1v8.7h-0.7v-7l-3.1,7h-0.6l-3.1-6.9l0,6.9h-0.7v-8.7h0.6l3.4,7.8l3.4-7.8H117.9z"/>
				<path class="st9" d="M125.3,204.7v6.1h-0.7v-1.2c-0.2,0.4-0.4,0.7-0.8,0.9c-0.4,0.2-0.8,0.3-1.3,0.3c-0.5,0-1-0.1-1.4-0.4
					c-0.4-0.3-0.7-0.6-1-1.1c-0.2-0.5-0.3-1-0.3-1.7s0.1-1.2,0.3-1.7c0.2-0.5,0.5-0.9,1-1.1c0.4-0.3,0.9-0.4,1.4-0.4
					c0.5,0,0.9,0.1,1.3,0.3c0.4,0.2,0.6,0.5,0.8,0.9v-1.1H125.3z M124,209.6c0.3-0.4,0.5-1.1,0.5-1.9c0-0.8-0.2-1.4-0.5-1.9
					c-0.4-0.4-0.8-0.7-1.5-0.7c-0.6,0-1.1,0.2-1.5,0.7c-0.4,0.5-0.5,1.1-0.5,1.9c0,0.8,0.2,1.4,0.5,1.8c0.4,0.4,0.9,0.7,1.5,0.7
					C123.2,210.2,123.7,210,124,209.6z"/>
				<path class="st9" d="M130.5,204.6l0,0.7c-0.2,0-0.3,0-0.6,0c-0.6,0-1.1,0.2-1.4,0.6c-0.3,0.4-0.5,0.9-0.5,1.4v3.6h-0.7v-4.4
					c0-0.6,0-1.2-0.1-1.7h0.7l0.1,1.1c0.2-0.4,0.4-0.7,0.8-1s0.7-0.3,1.2-0.3C130.2,204.5,130.4,204.5,130.5,204.6z"/>
				<path class="st9" d="M135.8,210.8l-3.4-3v3h-0.7v-9h0.7v5.7l3.1-2.8h1l-3.2,2.9l3.5,3.2H135.8z"/>
				<path class="st9" d="M138.1,207.6L138.1,207.6c0,0.9,0.2,1.5,0.6,1.9s0.9,0.7,1.7,0.7c0.7,0,1.4-0.3,2-0.8l0.3,0.6
					c-0.3,0.3-0.6,0.5-1,0.6s-0.8,0.2-1.3,0.2c-0.9,0-1.7-0.3-2.2-0.8s-0.8-1.3-0.8-2.3c0-0.6,0.1-1.2,0.4-1.7
					c0.2-0.5,0.6-0.9,1-1.1c0.4-0.3,0.9-0.4,1.5-0.4c0.8,0,1.4,0.3,1.9,0.8s0.7,1.2,0.7,2.2v0.2H138.1z M138.8,205.6
					c-0.4,0.3-0.6,0.8-0.7,1.4h3.9c0-0.6-0.2-1.1-0.5-1.4s-0.8-0.5-1.3-0.5C139.6,205.1,139.2,205.3,138.8,205.6z"/>
				<path class="st9" d="M145.4,205.3v3.6c0,0.5,0.1,0.8,0.3,1c0.2,0.2,0.5,0.3,0.8,0.3c0.2,0,0.4,0,0.7-0.1v0.7
					c-0.3,0.1-0.5,0.1-0.8,0.1c-0.5,0-1-0.2-1.3-0.5c-0.3-0.3-0.5-0.8-0.5-1.4v-3.8h-1.2v-0.6h1.2V203l0.7-0.3v1.9h1.8v0.6H145.4z"
					/>
				<path class="st9" d="M152.8,204.9c0.4,0.3,0.7,0.6,1,1.1c0.2,0.5,0.3,1,0.3,1.7s-0.1,1.2-0.3,1.7c-0.2,0.5-0.5,0.8-1,1.1
					c-0.4,0.3-0.9,0.4-1.4,0.4c-0.5,0-1-0.1-1.3-0.3s-0.6-0.5-0.8-1v3.9h-0.7v-7.1c0-0.6,0-1.2-0.1-1.7h0.7l0.1,1.2
					c0.2-0.4,0.5-0.8,0.8-1c0.4-0.2,0.8-0.3,1.3-0.3C152,204.5,152.4,204.7,152.8,204.9z M152.8,209.6c0.4-0.4,0.5-1,0.5-1.8
					c0-0.8-0.2-1.4-0.5-1.9c-0.4-0.5-0.9-0.7-1.5-0.7c-0.7,0-1.2,0.2-1.5,0.7c-0.4,0.4-0.5,1.1-0.5,1.9c0,0.8,0.2,1.4,0.5,1.9
					c0.3,0.4,0.8,0.7,1.5,0.7C152,210.2,152.5,210,152.8,209.6z"/>
				<path class="st9" d="M155.8,201.8h0.7v9h-0.7V201.8z"/>
				<path class="st9" d="M163.9,204.7v6.1h-0.7v-1.2c-0.2,0.4-0.4,0.7-0.8,0.9c-0.4,0.2-0.8,0.3-1.3,0.3c-0.5,0-1-0.1-1.4-0.4
					c-0.4-0.3-0.7-0.6-1-1.1c-0.2-0.5-0.3-1-0.3-1.7s0.1-1.2,0.3-1.7c0.2-0.5,0.5-0.9,1-1.1c0.4-0.3,0.9-0.4,1.4-0.4
					c0.5,0,0.9,0.1,1.3,0.3c0.4,0.2,0.6,0.5,0.8,0.9v-1.1H163.9z M162.6,209.6c0.3-0.4,0.5-1.1,0.5-1.9c0-0.8-0.2-1.4-0.5-1.9
					c-0.4-0.4-0.8-0.7-1.5-0.7c-0.6,0-1.1,0.2-1.5,0.7c-0.4,0.5-0.5,1.1-0.5,1.9c0,0.8,0.2,1.4,0.5,1.8c0.4,0.4,0.9,0.7,1.5,0.7
					C161.8,210.2,162.2,210,162.6,209.6z"/>
				<path class="st9" d="M166.9,210.5c-0.4-0.3-0.8-0.6-1-1.1c-0.2-0.5-0.4-1-0.4-1.7c0-0.6,0.1-1.2,0.4-1.7c0.2-0.5,0.6-0.9,1-1.1
					s0.9-0.4,1.5-0.4c0.4,0,0.8,0.1,1.2,0.2c0.4,0.1,0.7,0.3,0.9,0.6l-0.3,0.6c-0.3-0.3-0.6-0.5-0.9-0.6c-0.3-0.1-0.6-0.2-0.9-0.2
					c-0.7,0-1.2,0.2-1.6,0.7c-0.4,0.5-0.6,1.1-0.6,1.9c0,0.8,0.2,1.4,0.6,1.8s0.9,0.7,1.6,0.7c0.3,0,0.6-0.1,0.9-0.2
					c0.3-0.1,0.6-0.3,0.9-0.6l0.3,0.6c-0.3,0.3-0.6,0.5-1,0.6c-0.4,0.1-0.8,0.2-1.2,0.2C167.9,210.9,167.3,210.7,166.9,210.5z"/>
				<path class="st9" d="M172.4,207.6L172.4,207.6c0,0.9,0.2,1.5,0.6,1.9s0.9,0.7,1.7,0.7c0.7,0,1.4-0.3,2-0.8l0.3,0.6
					c-0.3,0.3-0.6,0.5-1,0.6s-0.8,0.2-1.3,0.2c-0.9,0-1.7-0.3-2.2-0.8s-0.8-1.3-0.8-2.3c0-0.6,0.1-1.2,0.4-1.7
					c0.2-0.5,0.6-0.9,1-1.1c0.4-0.3,0.9-0.4,1.5-0.4c0.8,0,1.4,0.3,1.9,0.8s0.7,1.2,0.7,2.2v0.2H172.4z M173.1,205.6
					c-0.4,0.3-0.6,0.8-0.7,1.4h3.9c0-0.6-0.2-1.1-0.5-1.4s-0.8-0.5-1.3-0.5C173.9,205.1,173.4,205.3,173.1,205.6z"/>
				<path class="st9" d="M185.1,202.1h2.8c1.4,0,2.4,0.4,3.2,1.1c0.7,0.7,1.1,1.8,1.1,3.2s-0.4,2.5-1.1,3.2
					c-0.8,0.8-1.8,1.1-3.2,1.1h-2.8V202.1z M187.9,210.1c1.2,0,2.1-0.3,2.7-0.9c0.6-0.6,0.9-1.5,0.9-2.8c0-2.4-1.2-3.7-3.6-3.7h-2
					v7.4H187.9z"/>
				<path class="st9" d="M194.5,207.6L194.5,207.6c0,0.9,0.2,1.5,0.6,1.9s0.9,0.7,1.7,0.7c0.7,0,1.4-0.3,2-0.8l0.3,0.6
					c-0.3,0.3-0.6,0.5-1,0.6s-0.8,0.2-1.3,0.2c-0.9,0-1.7-0.3-2.2-0.8s-0.8-1.3-0.8-2.3c0-0.6,0.1-1.2,0.4-1.7
					c0.2-0.5,0.6-0.9,1-1.1c0.4-0.3,0.9-0.4,1.5-0.4c0.8,0,1.4,0.3,1.9,0.8s0.7,1.2,0.7,2.2v0.2H194.5z M195.2,205.6
					c-0.4,0.3-0.6,0.8-0.7,1.4h3.9c0-0.6-0.2-1.1-0.5-1.4s-0.8-0.5-1.3-0.5C196,205.1,195.6,205.3,195.2,205.6z"/>
				<path class="st9" d="M200.4,210.1l0.3-0.6c0.3,0.3,0.7,0.5,1,0.6s0.7,0.2,1.1,0.2c0.5,0,0.9-0.1,1.2-0.3
					c0.3-0.2,0.4-0.4,0.4-0.8c0-0.3-0.1-0.5-0.3-0.7c-0.2-0.2-0.5-0.3-0.9-0.4l-1-0.2c-0.5-0.1-0.9-0.3-1.2-0.6s-0.4-0.6-0.4-1
					c0-0.5,0.2-1,0.6-1.3c0.4-0.3,1-0.5,1.6-0.5c0.4,0,0.8,0.1,1.2,0.2c0.4,0.1,0.7,0.3,0.9,0.6l-0.3,0.6c-0.6-0.5-1.2-0.7-1.8-0.7
					c-0.5,0-0.8,0.1-1.1,0.3c-0.3,0.2-0.4,0.4-0.4,0.8c0,0.3,0.1,0.5,0.2,0.7c0.2,0.2,0.4,0.3,0.8,0.4l1,0.3
					c1.1,0.2,1.6,0.8,1.6,1.6c0,0.5-0.2,0.9-0.6,1.2c-0.4,0.3-1,0.5-1.7,0.5C201.8,210.9,201,210.6,200.4,210.1z"/>
				<path class="st9" d="M207.8,202.1v1h-1v-1H207.8z M206.9,204.7h0.7v6.1h-0.7V204.7z"/>
				<path class="st9" d="M215,204.7v6.1c0,0.9-0.2,1.6-0.7,2c-0.4,0.5-1.1,0.7-1.9,0.7c-0.9,0-1.7-0.2-2.4-0.7l0.1-0.6
					c0.4,0.2,0.8,0.4,1.1,0.5c0.3,0.1,0.7,0.1,1.1,0.1c0.6,0,1.1-0.2,1.4-0.5c0.3-0.3,0.5-0.8,0.5-1.5v-1.6c-0.2,0.4-0.5,0.7-0.8,1
					s-0.8,0.3-1.3,0.3c-0.5,0-1-0.1-1.4-0.4c-0.4-0.3-0.7-0.6-1-1.1s-0.3-1-0.3-1.6c0-0.6,0.1-1.1,0.3-1.6s0.6-0.8,1-1.1
					c0.4-0.3,0.9-0.4,1.4-0.4c0.5,0,0.9,0.1,1.3,0.3c0.4,0.2,0.6,0.5,0.8,0.9v-1.1H215z M213.7,209.3c0.4-0.4,0.5-1,0.5-1.7
					c0-0.7-0.2-1.3-0.5-1.8c-0.4-0.4-0.9-0.6-1.5-0.6c-0.6,0-1.1,0.2-1.5,0.6c-0.4,0.4-0.5,1-0.5,1.8c0,0.7,0.2,1.3,0.5,1.7
					c0.4,0.4,0.9,0.6,1.5,0.6C212.8,209.9,213.3,209.7,213.7,209.3z"/>
				<path class="st9" d="M222.1,206.9v3.9h-0.7v-3.8c0-0.6-0.1-1.1-0.4-1.3c-0.2-0.3-0.6-0.4-1.2-0.4c-0.6,0-1.1,0.2-1.5,0.6
					c-0.4,0.4-0.6,0.9-0.6,1.5v3.5h-0.7v-4.4c0-0.6,0-1.2-0.1-1.7h0.7l0.1,1.1c0.2-0.4,0.5-0.7,0.8-0.9c0.4-0.2,0.8-0.3,1.3-0.3
					C221.4,204.5,222.1,205.3,222.1,206.9z"/>
				<path class="st9" d="M229.4,204.7v6.1h-0.7v-1.2c-0.2,0.4-0.4,0.7-0.8,0.9c-0.4,0.2-0.8,0.3-1.3,0.3c-0.5,0-1-0.1-1.4-0.4
					c-0.4-0.3-0.7-0.6-1-1.1c-0.2-0.5-0.3-1-0.3-1.7s0.1-1.2,0.3-1.7c0.2-0.5,0.5-0.9,1-1.1c0.4-0.3,0.9-0.4,1.4-0.4
					c0.5,0,0.9,0.1,1.3,0.3c0.4,0.2,0.6,0.5,0.8,0.9v-1.1H229.4z M228.1,209.6c0.3-0.4,0.5-1.1,0.5-1.9c0-0.8-0.2-1.4-0.5-1.9
					c-0.4-0.4-0.8-0.7-1.5-0.7c-0.6,0-1.1,0.2-1.5,0.7c-0.4,0.5-0.5,1.1-0.5,1.9c0,0.8,0.2,1.4,0.5,1.8c0.4,0.4,0.9,0.7,1.5,0.7
					C227.3,210.2,227.7,210,228.1,209.6z"/>
				<path class="st9" d="M232.5,205.3v3.6c0,0.5,0.1,0.8,0.3,1c0.2,0.2,0.5,0.3,0.8,0.3c0.2,0,0.4,0,0.7-0.1v0.7
					c-0.3,0.1-0.5,0.1-0.8,0.1c-0.5,0-1-0.2-1.3-0.5c-0.3-0.3-0.5-0.8-0.5-1.4v-3.8h-1.2v-0.6h1.2V203l0.7-0.3v1.9h1.8v0.6H232.5z"
					/>
				<path class="st9" d="M236.5,202.1v1h-1v-1H236.5z M235.6,204.7h0.7v6.1h-0.7V204.7z"/>
				<path class="st9" d="M239.4,210.5c-0.4-0.3-0.8-0.6-1-1.1s-0.3-1-0.3-1.7s0.1-1.2,0.3-1.7c0.2-0.5,0.6-0.8,1-1.1
					s0.9-0.4,1.5-0.4c0.6,0,1,0.1,1.5,0.4c0.4,0.3,0.8,0.6,1,1.1c0.2,0.5,0.3,1,0.3,1.7s-0.1,1.2-0.3,1.7s-0.6,0.9-1,1.1
					c-0.4,0.3-0.9,0.4-1.5,0.4C240.3,210.9,239.8,210.7,239.4,210.5z M242.4,209.6c0.4-0.4,0.5-1.1,0.5-1.9c0-0.8-0.2-1.4-0.5-1.9
					c-0.4-0.4-0.9-0.7-1.5-0.7c-0.6,0-1.1,0.2-1.5,0.7c-0.4,0.4-0.5,1.1-0.5,1.9c0,0.8,0.2,1.4,0.5,1.9c0.3,0.4,0.9,0.6,1.5,0.6
					C241.5,210.2,242,210,242.4,209.6z"/>
				<path class="st9" d="M250.4,206.9v3.9h-0.7v-3.8c0-0.6-0.1-1.1-0.4-1.3c-0.2-0.3-0.6-0.4-1.2-0.4c-0.6,0-1.1,0.2-1.5,0.6
					c-0.4,0.4-0.6,0.9-0.6,1.5v3.5h-0.7v-4.4c0-0.6,0-1.2-0.1-1.7h0.7l0.1,1.1c0.2-0.4,0.5-0.7,0.8-0.9c0.4-0.2,0.8-0.3,1.3-0.3
					C249.7,204.5,250.4,205.3,250.4,206.9z"/>
				<path class="st9" d="M255.6,207.2h3.3v0.6h-3.3V207.2z"/>
				<path class="st9" d="M270.9,210.8h-0.8l-1.1-2.9c-0.1-0.4-0.3-0.7-0.6-0.8c-0.2-0.1-0.6-0.2-1.1-0.2H265v3.9h-0.8v-8.7h3.4
					c0.9,0,1.6,0.2,2.1,0.6c0.5,0.4,0.7,1,0.7,1.8c0,0.6-0.1,1-0.4,1.4c-0.3,0.4-0.7,0.7-1.3,0.8c0.3,0,0.5,0.1,0.6,0.3
					c0.2,0.2,0.3,0.4,0.5,0.8L270.9,210.8z M267.5,206.2c1.4,0,2.1-0.6,2.1-1.8c0-1.1-0.7-1.7-2.1-1.7h-2.6v3.5H267.5z"/>
				<path class="st9" d="M272.9,207.6L272.9,207.6c0,0.9,0.2,1.5,0.6,1.9s0.9,0.7,1.7,0.7c0.7,0,1.4-0.3,2-0.8l0.3,0.6
					c-0.3,0.3-0.6,0.5-1,0.6s-0.8,0.2-1.3,0.2c-0.9,0-1.7-0.3-2.2-0.8s-0.8-1.3-0.8-2.3c0-0.6,0.1-1.2,0.4-1.7
					c0.2-0.5,0.6-0.9,1-1.1c0.4-0.3,0.9-0.4,1.5-0.4c0.8,0,1.4,0.3,1.9,0.8s0.7,1.2,0.7,2.2v0.2H272.9z M273.6,205.6
					c-0.4,0.3-0.6,0.8-0.7,1.4h3.9c0-0.6-0.2-1.1-0.5-1.4s-0.8-0.5-1.3-0.5C274.5,205.1,274,205.3,273.6,205.6z"/>
				<path class="st9" d="M284.4,204.7v6.1h-0.7v-1.2c-0.2,0.4-0.4,0.7-0.8,0.9c-0.4,0.2-0.8,0.3-1.3,0.3c-0.5,0-1-0.1-1.4-0.4
					c-0.4-0.3-0.7-0.6-1-1.1c-0.2-0.5-0.3-1-0.3-1.7s0.1-1.2,0.3-1.7c0.2-0.5,0.5-0.9,1-1.1c0.4-0.3,0.9-0.4,1.4-0.4
					c0.5,0,0.9,0.1,1.3,0.3c0.4,0.2,0.6,0.5,0.8,0.9v-1.1H284.4z M283.2,209.6c0.3-0.4,0.5-1.1,0.5-1.9c0-0.8-0.2-1.4-0.5-1.9
					c-0.4-0.4-0.8-0.7-1.5-0.7c-0.6,0-1.1,0.2-1.5,0.7c-0.4,0.5-0.5,1.1-0.5,1.9c0,0.8,0.2,1.4,0.5,1.8c0.4,0.4,0.9,0.7,1.5,0.7
					C282.3,210.2,282.8,210,283.2,209.6z"/>
				<path class="st9" d="M291.7,201.8v9H291v-1.2c-0.2,0.4-0.4,0.7-0.8,0.9c-0.4,0.2-0.8,0.3-1.3,0.3c-0.5,0-1-0.1-1.4-0.4
					c-0.4-0.3-0.7-0.6-1-1.1c-0.2-0.5-0.3-1-0.3-1.7s0.1-1.2,0.3-1.7c0.2-0.5,0.5-0.8,1-1.1c0.4-0.3,0.9-0.4,1.4-0.4
					c0.5,0,0.9,0.1,1.3,0.3c0.4,0.2,0.6,0.5,0.8,0.9v-4H291.7z M290.4,209.6c0.3-0.4,0.5-1.1,0.5-1.9c0-0.8-0.2-1.4-0.5-1.9
					c-0.4-0.4-0.8-0.7-1.5-0.7c-0.7,0-1.2,0.2-1.5,0.7c-0.4,0.4-0.5,1.1-0.5,1.8c0,0.8,0.2,1.4,0.5,1.9c0.4,0.4,0.9,0.7,1.5,0.7
					C289.6,210.2,290.1,210,290.4,209.6z"/>
				<path class="st9" d="M299,204.7l-2.9,6.8c-0.3,0.7-0.6,1.2-1.1,1.5s-1,0.5-1.6,0.7l-0.1-0.6c0.6-0.1,1-0.3,1.3-0.5
					c0.3-0.2,0.5-0.6,0.8-1l0.3-0.6l-2.6-6.1h0.8l2.2,5.4l2.2-5.4H299z"/>
			</g>
		</g>
		<g>
			<g>
				<path class="st1" d="M26.4,122.3l-2.1-3c-0.2,0-0.4,0-0.6,0h-2.4v2.9H20v-9.6h3.7c2.5,0,4,1.3,4,3.4c0,1.5-0.8,2.6-2.1,3
					l2.3,3.2H26.4z M26.4,116c0-1.4-0.9-2.2-2.7-2.2h-2.3v4.3h2.3C25.5,118.2,26.4,117.4,26.4,116z"/>
				<path class="st1" d="M36.5,119.1h-5.9c0.2,1.3,1.2,2.1,2.6,2.1c0.9,0,1.6-0.3,2.1-0.9l0.7,0.9c-0.7,0.8-1.7,1.2-2.9,1.2
					c-2.3,0-3.9-1.6-3.9-3.7c0-2.2,1.6-3.7,3.7-3.7c2.1,0,3.6,1.5,3.6,3.7C36.5,118.8,36.5,118.9,36.5,119.1z M30.6,118.1h4.7
					c-0.1-1.2-1.1-2.1-2.3-2.1C31.6,116,30.7,116.9,30.6,118.1z"/>
				<path class="st1" d="M44,117.9v4.4h-1.2v-1c-0.4,0.7-1.2,1-2.4,1c-1.6,0-2.7-0.9-2.7-2.1c0-1.2,0.8-2.1,2.9-2.1h2.1v-0.3
					c0-1.1-0.6-1.8-2-1.8c-0.9,0-1.7,0.3-2.3,0.8l-0.5-1c0.8-0.6,1.8-0.9,3-0.9C42.9,114.9,44,115.9,44,117.9z M42.7,120v-1h-2
					c-1.3,0-1.7,0.5-1.7,1.1c0,0.7,0.6,1.2,1.6,1.2C41.6,121.3,42.4,120.9,42.7,120z"/>
				<path class="st1" d="M53.5,112.1v10.2h-1.3v-1.2c-0.6,0.8-1.5,1.2-2.6,1.2c-2.1,0-3.7-1.5-3.7-3.7c0-2.2,1.6-3.7,3.7-3.7
					c1,0,1.9,0.4,2.5,1.2v-4H53.5z M52.2,118.6c0-1.6-1.1-2.6-2.4-2.6c-1.4,0-2.5,1-2.5,2.6c0,1.6,1.1,2.6,2.5,2.6
					C51.2,121.2,52.2,120.2,52.2,118.6z"/>
				<path class="st1" d="M55.9,112.7c0-0.5,0.4-0.9,0.9-0.9c0.5,0,0.9,0.4,0.9,0.8c0,0.5-0.4,0.9-0.9,0.9
					C56.3,113.6,55.9,113.2,55.9,112.7z M56.2,115h1.3v7.3h-1.3V115z"/>
				<path class="st1" d="M67,118.1v4.2h-1.3v-4c0-1.4-0.7-2.1-2-2.1c-1.4,0-2.3,0.8-2.3,2.4v3.7h-1.3V115h1.3v1.1
					c0.5-0.7,1.5-1.2,2.6-1.2C65.8,114.9,67,115.9,67,118.1z"/>
				<path class="st1" d="M76.2,119.1h-5.9c0.2,1.3,1.2,2.1,2.6,2.1c0.9,0,1.6-0.3,2.1-0.9l0.7,0.9c-0.7,0.8-1.7,1.2-2.9,1.2
					c-2.3,0-3.9-1.6-3.9-3.7c0-2.2,1.6-3.7,3.7-3.7c2.1,0,3.6,1.5,3.6,3.7C76.2,118.8,76.2,118.9,76.2,119.1z M70.3,118.1H75
					c-0.1-1.2-1.1-2.1-2.3-2.1C71.4,116,70.4,116.9,70.3,118.1z"/>
				<path class="st1" d="M77.3,121.5l0.5-1c0.6,0.4,1.6,0.8,2.6,0.8c1.2,0,1.7-0.4,1.7-1c0-1.6-4.6-0.2-4.6-3.1c0-1.3,1.2-2.2,3-2.2
					c0.9,0,2,0.2,2.7,0.7l-0.6,1c-0.7-0.4-1.4-0.6-2.1-0.6c-1.2,0-1.7,0.4-1.7,1c0,1.7,4.6,0.3,4.6,3.1c0,1.3-1.2,2.2-3.1,2.2
					C79.1,122.3,77.9,122,77.3,121.5z"/>
				<path class="st1" d="M84.3,121.5l0.5-1c0.6,0.4,1.6,0.8,2.6,0.8c1.2,0,1.7-0.4,1.7-1c0-1.6-4.6-0.2-4.6-3.1c0-1.3,1.2-2.2,3-2.2
					c0.9,0,2,0.2,2.7,0.7l-0.6,1c-0.7-0.4-1.4-0.6-2.1-0.6c-1.2,0-1.7,0.4-1.7,1c0,1.7,4.6,0.3,4.6,3.1c0,1.3-1.2,2.2-3.1,2.2
					C86.1,122.3,84.9,122,84.3,121.5z"/>
				<path class="st1" d="M102.4,119.8h-5.1l-1.1,2.4h-1.4l4.4-9.6h1.4l4.4,9.6h-1.4L102.4,119.8z M101.9,118.8l-2.1-4.7l-2.1,4.7
					H101.9z"/>
				<path class="st1" d="M105.3,121.5l0.5-1c0.6,0.4,1.6,0.8,2.6,0.8c1.2,0,1.7-0.4,1.7-1c0-1.6-4.6-0.2-4.6-3.1
					c0-1.3,1.2-2.2,3-2.2c0.9,0,2,0.2,2.7,0.7l-0.6,1c-0.7-0.4-1.4-0.6-2.1-0.6c-1.2,0-1.7,0.4-1.7,1c0,1.7,4.6,0.3,4.6,3.1
					c0,1.3-1.2,2.2-3.1,2.2C107.1,122.3,105.9,122,105.3,121.5z"/>
				<path class="st1" d="M112.3,121.5l0.5-1c0.6,0.4,1.6,0.8,2.6,0.8c1.2,0,1.7-0.4,1.7-1c0-1.6-4.6-0.2-4.6-3.1
					c0-1.3,1.2-2.2,3-2.2c0.9,0,2,0.2,2.7,0.7l-0.6,1c-0.7-0.4-1.4-0.6-2.1-0.6c-1.2,0-1.7,0.4-1.7,1c0,1.7,4.6,0.3,4.6,3.1
					c0,1.3-1.2,2.2-3.1,2.2C114.1,122.3,112.9,122,112.3,121.5z"/>
				<path class="st1" d="M126.8,119.1h-5.9c0.2,1.3,1.2,2.1,2.6,2.1c0.9,0,1.6-0.3,2.1-0.9l0.7,0.9c-0.7,0.8-1.7,1.2-2.9,1.2
					c-2.3,0-3.9-1.6-3.9-3.7c0-2.2,1.6-3.7,3.7-3.7c2.1,0,3.6,1.5,3.6,3.7C126.8,118.8,126.8,118.9,126.8,119.1z M120.9,118.1h4.7
					c-0.1-1.2-1.1-2.1-2.3-2.1C121.9,116,121,116.9,120.9,118.1z"/>
				<path class="st1" d="M127.8,121.5l0.5-1c0.6,0.4,1.6,0.8,2.6,0.8c1.2,0,1.7-0.4,1.7-1c0-1.6-4.6-0.2-4.6-3.1
					c0-1.3,1.2-2.2,3-2.2c0.9,0,2,0.2,2.7,0.7l-0.6,1c-0.7-0.4-1.4-0.6-2.1-0.6c-1.2,0-1.7,0.4-1.7,1c0,1.7,4.6,0.3,4.6,3.1
					c0,1.3-1.2,2.2-3.1,2.2C129.6,122.3,128.4,122,127.8,121.5z"/>
				<path class="st1" d="M134.9,121.5l0.5-1c0.6,0.4,1.6,0.8,2.6,0.8c1.2,0,1.7-0.4,1.7-1c0-1.6-4.6-0.2-4.6-3.1
					c0-1.3,1.2-2.2,3-2.2c0.9,0,2,0.2,2.7,0.7l-0.6,1c-0.7-0.4-1.4-0.6-2.1-0.6c-1.2,0-1.7,0.4-1.7,1c0,1.7,4.6,0.3,4.6,3.1
					c0,1.3-1.2,2.2-3.1,2.2C136.7,122.3,135.5,122,134.9,121.5z"/>
				<path class="st1" d="M154.9,118.1v4.2h-1.3v-4c0-1.4-0.7-2.1-1.9-2.1c-1.3,0-2.2,0.8-2.2,2.4v3.7h-1.3v-4c0-1.4-0.7-2.1-1.9-2.1
					c-1.3,0-2.2,0.8-2.2,2.4v3.7h-1.3V115h1.3v1.1c0.5-0.7,1.4-1.2,2.5-1.2c1.1,0,2,0.4,2.5,1.3c0.5-0.8,1.6-1.3,2.8-1.3
					C153.7,114.9,154.9,115.9,154.9,118.1z"/>
				<path class="st1" d="M164,119.1h-5.9c0.2,1.3,1.2,2.1,2.6,2.1c0.9,0,1.6-0.3,2.1-0.9l0.7,0.9c-0.7,0.8-1.7,1.2-2.9,1.2
					c-2.3,0-3.9-1.6-3.9-3.7c0-2.2,1.6-3.7,3.7-3.7c2.1,0,3.6,1.5,3.6,3.7C164.1,118.8,164.1,118.9,164,119.1z M158.1,118.1h4.7
					c-0.1-1.2-1.1-2.1-2.3-2.1C159.2,116,158.3,116.9,158.1,118.1z"/>
				<path class="st1" d="M172.9,118.1v4.2h-1.3v-4c0-1.4-0.7-2.1-2-2.1c-1.4,0-2.3,0.8-2.3,2.4v3.7H166V115h1.3v1.1
					c0.5-0.7,1.5-1.2,2.6-1.2C171.7,114.9,172.9,115.9,172.9,118.1z"/>
				<path class="st1" d="M179.6,121.8c-0.4,0.3-1,0.5-1.6,0.5c-1.5,0-2.3-0.8-2.3-2.3v-4h-1.2V115h1.2v-1.6h1.3v1.6h2.1v1.1H177v3.9
					c0,0.8,0.4,1.2,1.1,1.2c0.4,0,0.8-0.1,1-0.3L179.6,121.8z"/>
				<path class="st9" d="M183.9,121.6c0-2.6,0.9-5.5,2.4-7.2h0.5c-1.5,1.8-2.4,4.7-2.4,7.3c0,0.9,0.1,1.8,0.4,2.7h-0.5
					C184.1,123.5,183.9,122.5,183.9,121.6z"/>
				<path class="st9" d="M190.8,116.6l-0.1,0.5c-0.1,0-0.1,0-0.2,0c-1.3,0-2.1,0.8-2.4,2.2l-0.6,2.9H187l1.1-5.6h0.5l-0.2,1.2
					C188.9,117.1,189.7,116.6,190.8,116.6z"/>
				<path class="st9" d="M191.7,119.6c0,0.1,0,0.2,0,0.4c0,1.2,0.7,1.9,2.1,1.9c0.8,0,1.5-0.3,1.9-0.7l0.2,0.4
					c-0.5,0.5-1.3,0.9-2.2,0.9c-1.6,0-2.5-0.9-2.5-2.3c0-1.9,1.3-3.3,3-3.3c1.5,0,2.4,0.9,2.4,2.3c0,0.2,0,0.4-0.1,0.6H191.7z
					 M191.7,119.2h4.3c0-0.1,0-0.2,0-0.3c0-1.2-0.8-1.8-1.9-1.8C192.9,117.1,192,117.9,191.7,119.2z"/>
				<path class="st9" d="M203.8,116.7l-1.5,7.6h-0.5l0.6-3.1c-0.5,0.7-1.3,1.1-2.3,1.1c-1.4,0-2.4-0.9-2.4-2.3
					c0-1.9,1.3-3.3,3.2-3.3c1.2,0,2,0.5,2.2,1.5l0.3-1.4H203.8z M202.7,119c0-1.2-0.7-1.9-2-1.9c-1.5,0-2.6,1.2-2.6,2.8
					c0,1.2,0.7,1.9,2,1.9C201.6,121.8,202.7,120.6,202.7,119z"/>
				<path class="st9" d="M211,116.7l-1.1,5.6h-0.5l0.2-1.1c-0.5,0.8-1.3,1.1-2.3,1.1c-1.3,0-2-0.7-2-1.8c0-0.2,0-0.4,0.1-0.6
					l0.6-3.2h0.5l-0.6,3.2c0,0.2-0.1,0.4-0.1,0.5c0,0.9,0.5,1.4,1.5,1.4c1.3,0,2.1-0.7,2.4-2.1l0.6-3H211z"/>
				<path class="st9" d="M213.4,116.7h0.5l-1.1,5.6h-0.5L213.4,116.7z M213.6,114.9c0-0.3,0.2-0.5,0.5-0.5c0.2,0,0.4,0.2,0.4,0.4
					c0,0.3-0.2,0.5-0.5,0.5C213.7,115.3,213.6,115.1,213.6,114.9z"/>
				<path class="st9" d="M218.9,116.6l-0.1,0.5c-0.1,0-0.1,0-0.2,0c-1.3,0-2.1,0.8-2.4,2.2l-0.6,2.9h-0.5l1.1-5.6h0.5l-0.2,1.2
					C217.1,117.1,217.8,116.6,218.9,116.6z"/>
				<path class="st9" d="M219.8,119.6c0,0.1,0,0.2,0,0.4c0,1.2,0.7,1.9,2.1,1.9c0.8,0,1.5-0.3,1.9-0.7l0.2,0.4
					c-0.5,0.5-1.3,0.9-2.2,0.9c-1.6,0-2.5-0.9-2.5-2.3c0-1.9,1.3-3.3,3-3.3c1.5,0,2.4,0.9,2.4,2.3c0,0.2,0,0.4-0.1,0.6H219.8z
					 M219.9,119.2h4.3c0-0.1,0-0.2,0-0.3c0-1.2-0.8-1.8-1.9-1.8C221.1,117.1,220.1,117.9,219.9,119.2z"/>
				<path class="st9" d="M232.4,114.3l-1.6,7.9h-0.5l0.2-1.1c-0.5,0.7-1.4,1.1-2.4,1.1c-1.4,0-2.4-0.9-2.4-2.3
					c0-1.9,1.3-3.3,3.2-3.3c1.2,0,1.9,0.5,2.2,1.4l0.7-3.7H232.4z M230.9,119c0-1.2-0.7-1.9-2-1.9c-1.5,0-2.6,1.2-2.6,2.8
					c0,1.2,0.7,1.9,2,1.9C229.8,121.8,230.9,120.6,230.9,119z"/>
				<path class="st9" d="M235.2,117.1c0-0.9-0.1-1.8-0.4-2.7h0.5c0.3,0.8,0.5,1.8,0.5,2.8c0,2.6-0.9,5.5-2.4,7.2h-0.5
					C234.2,122.5,235.2,119.6,235.2,117.1z"/>
			</g>
		</g>
		<rect x="29.1" y="136.6" class="st1" width="0.8" height="54.7"/>
		<g>
			<g id="g56755_2_" transform="matrix(14,0,0,14,49637.042,519374.88)">
				<path id="path56757_2_" class="st15" d="M-3542.7-37083.5c0,0.4-0.3,0.7-0.7,0.7l0,0c-0.4,0-0.7-0.3-0.7-0.7l0,0
					c0-0.4,0.3-0.7,0.7-0.7l0,0C-3543-37084.2-3542.7-37083.9-3542.7-37083.5L-3542.7-37083.5z"/>
			</g>
			<path id="path53460_2_" class="st16" d="M33.8,201.1c-2.6,1.2-3.9,3.8-5.1,6.1l-1.7-1.7c-0.9,0.7-1.8,1.2-2.7,1.7l7.2,7.2
				c4-0.9,6.9-4.3,7.2-8.4L33.8,201.1z"/>
			<path id="path38606_2_" class="st4" d="M27,205.5c0.5,0.7,0.9,1.5,1.3,2.5c1.3-2.5,2.7-5.5,5.5-6.9c-0.3,1.2-0.5,2.6-0.1,3.8
				c-2.4,1.2-3.9,3.4-5.4,5.7c-1.5-2-2.7-2.7-4.1-3.4C25.2,206.6,26.1,206.1,27,205.5L27,205.5z"/>
		</g>
	</g>
</g>
</svg>
