<svg xmlns="http://www.w3.org/2000/svg" width="129.721" height="129.586" viewBox="0 0 129.721 129.586">
  <g id="Group_3844" data-name="Group 3844" transform="translate(-367.207 -452.251)">
    <g id="Circles">
      <circle id="Ellipse_664" data-name="Ellipse 664" cx="64.793" cy="64.793" r="64.793" transform="translate(367.341 452.251)" fill="#ccecfc"/>
    </g>
    <g id="Icon_Art" data-name="Icon Art">
      <path id="Path_8088" data-name="Path 8088" d="M432.065,560.358H367.207v4.154H496.793v-4.154Z" fill="#1a4480"/>
      <path id="Path_8089" data-name="Path 8089" d="M440.475,560.358H423.638c-.235,0-.426.336-.426.75v.577c0,.414.191.75.426.75h16.837c.235,0,.426-.336.426-.75v-.577C440.9,560.694,440.71,560.358,440.475,560.358Z" fill="#162e51"/>
      <path id="Path_8090" data-name="Path 8090" d="M482.133,489.871H381.9a2.293,2.293,0,0,0-2.3,2.29v68.2H484.424v-68.2A2.291,2.291,0,0,0,482.133,489.871Z" fill="#162e51"/>
      <rect id="Rectangle_2473" data-name="Rectangle 2473" width="96.825" height="62.49" transform="translate(383.6 493.869)" fill="#5eb6d6"/>
      <circle id="Ellipse_665" data-name="Ellipse 665" cx="0.312" cy="0.312" r="0.312" transform="translate(431.689 491.584)" fill="#f4f2f0"/>
      <g id="Group_3811" data-name="Group 3811" opacity="0.5" style="mix-blend-mode: multiply;isolation: isolate">
        <path id="Path_8091" data-name="Path 8091" d="M383.6,556.359h75.474L383.6,506.9Z" fill="#1294c2"/>
      </g>
      <g id="Group_3812" data-name="Group 3812">
        <path id="Path_8092" data-name="Path 8092" d="M496.574,564.786l.219-.274H367.207l.219.274a3.653,3.653,0,0,0,1.643,1.16H494.935A3.641,3.641,0,0,0,496.574,564.786Z" fill="#162e51"/>
        <path id="Path_8093" data-name="Path 8093" d="M369.069,565.946a3.65,3.65,0,0,0,1.2.2H493.74a3.638,3.638,0,0,0,1.2-.2Z" fill="#162e51"/>
      </g>
      <g id="Group_3825" data-name="Group 3825">
        <g id="Group_3813" data-name="Group 3813" opacity="0.5" style="mix-blend-mode: multiply;isolation: isolate">
          <rect id="Rectangle_2474" data-name="Rectangle 2474" width="79.103" height="62.398" transform="translate(403.794 551.034) rotate(-89.827)" fill="#1294c2"/>
          <rect id="Rectangle_2475" data-name="Rectangle 2475" width="79.103" height="31.198" transform="translate(434.994 551.128) rotate(-89.827)" fill="#1294c2" opacity="0.2"/>
          <rect id="Rectangle_2476" data-name="Rectangle 2476" width="2.022" height="24.036" transform="translate(411.452 482.866) rotate(-89.827)" fill="#1294c2"/>
          <rect id="Rectangle_2477" data-name="Rectangle 2477" width="2.022" height="48.073" transform="translate(411.273 542.165) rotate(-89.827)" fill="#1294c2"/>
          <path id="Path_8094" data-name="Path 8094" d="M426.951,497.858l.018-5.633,16.984.05-.017,5.634Zm.975-4.669-.011,3.711,15.064.044.011-3.71Z" fill="#1294c2"/>
          <path id="Path_8095" data-name="Path 8095" d="M442.976,497.906l.017-5.634,16.984.052-.017,5.633Zm.974-4.67-.011,3.711,15.064.046.011-3.711Z" fill="#1294c2"/>
          <path id="Path_8096" data-name="Path 8096" d="M426.937,502.53l.017-5.633,16.985.05-.017,5.634Zm.975-4.669-.012,3.711,15.065.044.011-3.71Z" fill="#1294c2"/>
          <path id="Path_8097" data-name="Path 8097" d="M442.962,502.578l.017-5.634,16.984.052-.017,5.633Zm.974-4.669-.011,3.71,15.064.046.011-3.711Z" fill="#1294c2"/>
          <path id="Path_8098" data-name="Path 8098" d="M426.923,507.2l.017-5.633,16.985.05-.017,5.634Zm.974-4.669-.011,3.711,15.064.045.012-3.711Z" fill="#1294c2"/>
          <path id="Path_8099" data-name="Path 8099" d="M442.947,507.25l.018-5.634,16.984.052-.017,5.633Zm.975-4.669-.011,3.71,15.064.046.011-3.711Z" fill="#1294c2"/>
          <path id="Path_8100" data-name="Path 8100" d="M426.88,521.482l.017-5.634,16.985.052-.018,5.633Zm.974-4.669-.011,3.711,15.064.045.011-3.711Z" fill="#1294c2"/>
          <path id="Path_8101" data-name="Path 8101" d="M442.9,521.531l.017-5.634,16.985.051-.017,5.634Zm.975-4.67-.012,3.711,15.064.046.011-3.711Z" fill="#1294c2"/>
          <rect id="Rectangle_2478" data-name="Rectangle 2478" width="4.672" height="16.024" transform="translate(427.347 525.675) rotate(-89.827)" fill="#1294c2"/>
          <path id="Path_8102" data-name="Path 8102" d="M426.866,526.154l.017-5.633,16.984.051-.017,5.634Zm.974-4.669-.011,3.711,15.064.045.011-3.71Z" fill="#1294c2"/>
          <rect id="Rectangle_2479" data-name="Rectangle 2479" width="4.672" height="16.024" transform="translate(443.372 525.724) rotate(-89.827)" fill="#1294c2"/>
          <path id="Path_8103" data-name="Path 8103" d="M442.89,526.2l.017-5.634,16.985.052-.017,5.633Zm.974-4.67-.011,3.711,15.064.046.011-3.711Z" fill="#1294c2"/>
          <path id="Path_8104" data-name="Path 8104" d="M426.852,530.826l.017-5.633,16.984.051-.017,5.634Zm.974-4.669-.011,3.711,15.064.045.011-3.71Z" fill="#1294c2"/>
          <path id="Path_8105" data-name="Path 8105" d="M442.876,530.875l.017-5.634,16.985.052-.018,5.633Zm.974-4.669-.011,3.71,15.064.046.011-3.711Z" fill="#1294c2"/>
          <path id="Path_8106" data-name="Path 8106" d="M442.862,535.547l.017-5.634,16.984.052-.017,5.633Zm.974-4.715-.011,3.756,15.064.046.011-3.711Z" fill="#1294c2"/>
          <rect id="Rectangle_2480" data-name="Rectangle 2480" width="4.672" height="16.024" transform="translate(427.447 492.706) rotate(-89.827)" fill="#1294c2"/>
          <path id="Path_8107" data-name="Path 8107" d="M426.966,493.186l.017-5.634,16.984.051-.017,5.633Zm.974-4.669-.011,3.71,15.064.045.011-3.711Z" fill="#1294c2"/>
          <rect id="Rectangle_2481" data-name="Rectangle 2481" width="4.672" height="16.024" transform="translate(443.471 492.755) rotate(-89.827)" fill="#1294c2"/>
          <path id="Path_8108" data-name="Path 8108" d="M442.99,493.234l.017-5.634,16.984.051-.017,5.634Zm.974-4.67-.011,3.711,15.064.046.011-3.711Z" fill="#1294c2"/>
          <path id="Path_8109" data-name="Path 8109" d="M426.911,530.832V535.6h15.932l.014-4.766Z" fill="#1294c2"/>
          <rect id="Rectangle_2482" data-name="Rectangle 2482" width="4.672" height="16.024" transform="translate(427.376 516.331) rotate(-89.827)" fill="#1294c2"/>
          <path id="Path_8110" data-name="Path 8110" d="M426.894,516.81l.017-5.634,16.985.052-.017,5.633Zm.975-4.669-.012,3.71,15.064.046.011-3.711Z" fill="#1294c2"/>
          <rect id="Rectangle_2483" data-name="Rectangle 2483" width="4.672" height="16.024" transform="translate(443.4 516.379) rotate(-89.827)" fill="#1294c2"/>
          <path id="Path_8111" data-name="Path 8111" d="M442.918,516.858l.017-5.633,16.985.051-.017,5.634Zm.975-4.669-.011,3.711,15.063.046.012-3.711Z" fill="#1294c2"/>
        </g>
        <g id="Group_3824" data-name="Group 3824">
          <g id="Group_3823" data-name="Group 3823">
            <rect id="Rectangle_2484" data-name="Rectangle 2484" width="79.103" height="62.398" transform="translate(400.993 548.233) rotate(-89.827)" fill="#fff"/>
            <rect id="Rectangle_2485" data-name="Rectangle 2485" width="79.103" height="31.198" transform="translate(432.193 548.327) rotate(-89.827)" fill="#d9f1fd" opacity="0.2"/>
            <g id="Group_3814" data-name="Group 3814">
              <rect id="Rectangle_2486" data-name="Rectangle 2486" width="2.022" height="24.036" transform="translate(408.652 480.065) rotate(-89.827)" fill="#cc1d1d"/>
            </g>
            <g id="Group_3815" data-name="Group 3815">
              <rect id="Rectangle_2487" data-name="Rectangle 2487" width="2.022" height="48.073" transform="translate(408.472 539.364) rotate(-89.827)" fill="#d9f1fd"/>
            </g>
            <path id="Path_8112" data-name="Path 8112" d="M424.151,495.057l.017-5.633,16.984.05-.017,5.634Zm.974-4.669-.011,3.711,15.064.044.011-3.71Z" fill="#d9f1fd"/>
            <path id="Path_8113" data-name="Path 8113" d="M440.175,495.105l.017-5.634,16.984.052-.017,5.633Zm.974-4.669-.011,3.71,15.064.046.011-3.711Z" fill="#d9f1fd"/>
            <path id="Path_8114" data-name="Path 8114" d="M424.136,499.729l.018-5.633,16.984.05-.017,5.634Zm.975-4.669-.012,3.711,15.065.045.011-3.711Z" fill="#d9f1fd"/>
            <path id="Path_8115" data-name="Path 8115" d="M440.161,499.777l.017-5.634,16.984.052-.017,5.633Zm.974-4.669-.011,3.71,15.064.046.011-3.711Z" fill="#d9f1fd"/>
            <path id="Path_8116" data-name="Path 8116" d="M424.122,504.4l.017-5.633,16.985.05-.017,5.634Zm.974-4.669-.011,3.711,15.065.045.011-3.711Z" fill="#d9f1fd"/>
            <path id="Path_8117" data-name="Path 8117" d="M440.147,504.449l.017-5.633,16.984.051-.017,5.633Zm.974-4.669-.011,3.711,15.064.045.011-3.711Z" fill="#d9f1fd"/>
            <path id="Path_8118" data-name="Path 8118" d="M424.079,518.681l.017-5.633,16.985.051-.017,5.634Zm.975-4.669-.012,3.711,15.064.045.011-3.711Z" fill="#d9f1fd"/>
            <path id="Path_8119" data-name="Path 8119" d="M440.1,518.73l.017-5.634,16.985.051-.017,5.634Zm.975-4.67-.011,3.711,15.063.046.011-3.711Z" fill="#d9f1fd"/>
            <g id="Group_3816" data-name="Group 3816">
              <rect id="Rectangle_2488" data-name="Rectangle 2488" width="4.672" height="16.024" transform="translate(424.547 522.874) rotate(-89.827)" fill="#fff"/>
              <path id="Path_8120" data-name="Path 8120" d="M424.065,523.353l.017-5.633,16.985.051-.018,5.634Zm.974-4.669-.011,3.711,15.064.045.011-3.71Z" fill="#d9f1fd"/>
            </g>
            <g id="Group_3817" data-name="Group 3817">
              <rect id="Rectangle_2489" data-name="Rectangle 2489" width="4.672" height="16.024" transform="translate(440.571 522.923) rotate(-89.827)" fill="#fff"/>
              <path id="Path_8121" data-name="Path 8121" d="M440.089,523.4l.017-5.634,16.985.052-.017,5.633Zm.975-4.669-.012,3.71,15.064.046.011-3.711Z" fill="#d9f1fd"/>
            </g>
            <path id="Path_8122" data-name="Path 8122" d="M424.051,528.025l.017-5.633,16.984.051-.017,5.634Zm.974-4.669-.011,3.711,15.064.046.011-3.711Z" fill="#d9f1fd"/>
            <path id="Path_8123" data-name="Path 8123" d="M440.075,528.074l.017-5.634,16.985.052-.017,5.633Zm.974-4.669-.011,3.71,15.064.046.011-3.711Z" fill="#d9f1fd"/>
            <path id="Path_8124" data-name="Path 8124" d="M440.061,532.746l.017-5.633,16.985.051-.018,5.633Zm.974-4.715-.011,3.757,15.064.045.011-3.711Z" fill="#d9f1fd"/>
            <g id="Group_3818" data-name="Group 3818">
              <rect id="Rectangle_2490" data-name="Rectangle 2490" width="4.672" height="16.024" transform="translate(424.646 489.905) rotate(-89.827)" fill="#d9f1fd"/>
              <path id="Path_8125" data-name="Path 8125" d="M424.165,490.385l.017-5.633,16.984.05-.017,5.634Zm.974-4.669-.011,3.711,15.064.044.011-3.71Z" fill="#d9f1fd"/>
            </g>
            <g id="Group_3819" data-name="Group 3819">
              <rect id="Rectangle_2491" data-name="Rectangle 2491" width="4.672" height="16.024" transform="translate(440.67 489.954) rotate(-89.827)" fill="#d9f1fd"/>
              <path id="Path_8126" data-name="Path 8126" d="M440.189,490.433l.017-5.634,16.985.052-.018,5.633Zm.974-4.67-.011,3.711,15.064.046.011-3.711Z" fill="#d9f1fd"/>
            </g>
            <g id="Group_3820" data-name="Group 3820">
              <path id="Path_8127" data-name="Path 8127" d="M424.11,528.031V532.8h15.933l.013-4.766Z" fill="#d9f1fd"/>
            </g>
            <g id="Group_3821" data-name="Group 3821">
              <rect id="Rectangle_2492" data-name="Rectangle 2492" width="4.672" height="16.024" transform="translate(424.575 513.53) rotate(-89.827)" fill="#d9f1fd"/>
              <path id="Path_8128" data-name="Path 8128" d="M424.093,514.009l.017-5.634,16.985.052-.017,5.633Zm.975-4.669-.011,3.71,15.063.046.011-3.711Z" fill="#d9f1fd"/>
            </g>
            <g id="Group_3822" data-name="Group 3822">
              <rect id="Rectangle_2493" data-name="Rectangle 2493" width="4.672" height="16.024" transform="translate(440.599 513.578) rotate(-89.827)" fill="#d9f1fd"/>
              <path id="Path_8129" data-name="Path 8129" d="M440.117,514.057l.017-5.633,16.985.051-.017,5.634Zm.975-4.669-.011,3.711,15.063.046.012-3.711Z" fill="#d9f1fd"/>
            </g>
          </g>
        </g>
      </g>
      <path id="Path_8130" data-name="Path 8130" d="M409.9,494.137a.229.229,0,0,1-.014-.322l1.017-1.107a.227.227,0,0,1,.321-.014L413,494.323a.212.212,0,0,0,.311-.022l3.416-4.192a.228.228,0,0,1,.32-.033l1.166.95a.228.228,0,0,1,.033.32l-4.729,5.8a.213.213,0,0,1-.311.023Z" fill="#cc1d1d"/>
      <path id="Path_8131" data-name="Path 8131" d="M409.9,502.143a.227.227,0,0,1-.014-.321l1.017-1.108a.228.228,0,0,1,.321-.014L413,502.33a.213.213,0,0,0,.311-.023l3.416-4.192a.228.228,0,0,1,.32-.033l1.166.95a.229.229,0,0,1,.033.321l-4.729,5.8a.212.212,0,0,1-.311.022Z" fill="#cc1d1d"/>
      <path id="Path_8132" data-name="Path 8132" d="M409.9,518.923a.229.229,0,0,1-.014-.322l1.017-1.108a.227.227,0,0,1,.321-.013L413,519.109a.213.213,0,0,0,.311-.023l3.416-4.192a.227.227,0,0,1,.32-.032l1.166.95a.228.228,0,0,1,.033.32l-4.729,5.8a.212.212,0,0,1-.311.022Z" fill="#cc1d1d"/>
      <path id="Path_8133" data-name="Path 8133" d="M409.9,526.929a.229.229,0,0,1-.014-.322L410.9,525.5a.227.227,0,0,1,.321-.014L413,527.115a.212.212,0,0,0,.311-.022l3.416-4.193a.228.228,0,0,1,.32-.032l1.166.95a.228.228,0,0,1,.033.32l-4.729,5.8a.213.213,0,0,1-.311.023Z" fill="#cc1d1d"/>
      <g id="Group_3828" data-name="Group 3828">
        <g id="Group_3826" data-name="Group 3826">
          <path id="Path_8134" data-name="Path 8134" d="M448.748,554.376l-2.092-3.585-4.033.979,5.427-11.307,5.081,2.161Z" fill="#a00a0f"/>
          <path id="Path_8135" data-name="Path 8135" d="M452.9,554.376l2.092-3.585,4.033.979L453.6,540.463l-5.081,2.161Z" fill="#a00a0f"/>
        </g>
        <path id="Path_8136" data-name="Path 8136" d="M460.207,538.036c0,.793-1.148,1.424-1.344,2.155-.2.756.471,1.876.088,2.538s-1.7.646-2.244,1.191-.519,1.855-1.191,2.243-1.781-.29-2.538-.087c-.731.2-1.362,1.343-2.154,1.343s-1.424-1.148-2.155-1.343c-.756-.2-1.876.47-2.538.087s-.646-1.7-1.191-2.243-1.855-.52-2.244-1.191.29-1.782.088-2.538c-.2-.731-1.344-1.362-1.344-2.155s1.149-1.424,1.344-2.155c.2-.756-.471-1.876-.088-2.538s1.7-.646,2.244-1.191.519-1.855,1.191-2.243,1.782.29,2.538.088c.731-.2,1.362-1.344,2.155-1.344s1.423,1.148,2.154,1.344c.757.2,1.876-.471,2.539-.088s.646,1.7,1.191,2.243,1.854.52,2.243,1.191-.29,1.782-.088,2.538C459.059,536.612,460.207,537.244,460.207,538.036Z" fill="#cc1d1d"/>
        <g id="Group_3827" data-name="Group 3827">
          <path id="Path_8137" data-name="Path 8137" d="M456.9,538.037a6.081,6.081,0,1,1-6.082-6.082,6.082,6.082,0,0,1,6.082,6.082" fill="#eff9fe"/>
          <path id="Path_8138" data-name="Path 8138" d="M455.826,538.037a5,5,0,1,1-5-5,5,5,0,0,1,5,5" fill="#fff"/>
        </g>
      </g>
    </g>
  </g>
</svg>
