<svg xmlns="http://www.w3.org/2000/svg" width="129.721" height="129.587" viewBox="0 0 129.721 129.587">
  <g id="Group_3865" data-name="Group 3865" transform="translate(-7.207 -7.207)">
    <g id="Circles">
      <circle id="Ellipse_668" data-name="Ellipse 668" cx="64.793" cy="64.793" r="64.793" transform="translate(7.341 7.207)" fill="#ccecfc"/>
    </g>
    <g id="Icon_Art" data-name="Icon Art">
      <g id="Group_3864" data-name="Group 3864">
        <g id="Group_3859" data-name="Group 3859">
          <g id="Group_3858" data-name="Group 3858">
            <g id="Group_3845" data-name="Group 3845" opacity="0.4" style="mix-blend-mode: multiply;isolation: isolate">
              <rect id="Rectangle_2494" data-name="Rectangle 2494" width="70.469" height="89.334" transform="translate(35.658 34.629) rotate(-6)" fill="#9dceef"/>
              <rect id="Rectangle_2495" data-name="Rectangle 2495" width="35.233" height="89.334" transform="translate(70.701 30.946) rotate(-6)" fill="#9dceef" opacity="0.2"/>
              <rect id="Rectangle_2496" data-name="Rectangle 2496" width="40.175" height="2.283" transform="translate(47.688 68.568) rotate(-6)" fill="#9dceef"/>
              <rect id="Rectangle_2497" data-name="Rectangle 2497" width="26.819" height="2.283" transform="translate(47.084 62.818) rotate(-6)" fill="#9dceef"/>
              <rect id="Rectangle_2498" data-name="Rectangle 2498" width="40.175" height="2.283" transform="translate(48.293 74.317) rotate(-6)" fill="#9dceef"/>
              <rect id="Rectangle_2499" data-name="Rectangle 2499" width="40.175" height="2.283" transform="translate(48.881 79.912) rotate(-6)" fill="#9dceef"/>
              <rect id="Rectangle_2500" data-name="Rectangle 2500" width="40.175" height="2.283" transform="translate(49.468 85.505) rotate(-6)" fill="#9dceef"/>
              <rect id="Rectangle_2501" data-name="Rectangle 2501" width="40.175" height="2.283" transform="translate(50.073 91.255) rotate(-6)" fill="#9dceef"/>
              <rect id="Rectangle_2502" data-name="Rectangle 2502" width="40.175" height="2.283" transform="translate(50.661 96.849) rotate(-6)" fill="#9dceef"/>
              <rect id="Rectangle_2503" data-name="Rectangle 2503" width="40.175" height="2.283" transform="translate(51.249 102.443) rotate(-6)" fill="#9dceef"/>
              <rect id="Rectangle_2504" data-name="Rectangle 2504" width="40.175" height="2.283" transform="translate(51.837 108.037) rotate(-6)" fill="#9dceef"/>
              <rect id="Rectangle_2505" data-name="Rectangle 2505" width="40.175" height="2.283" transform="translate(52.425 113.632) rotate(-6)" fill="#9dceef"/>
              <path id="Path_8169" data-name="Path 8169" d="M62.454,50.226l3.362,5.094-3.453.363L59.278,51.05l-1.785.187.516,4.9-3.124.328-.714-6.775c0-.015-.005-.03-.007-.045s0-.029,0-.044l-.008-.072,0,0a1.172,1.172,0,0,1,.864-1.133v-.01l.064-.007c.04-.008.081-.015.122-.019s.072-.005.108-.006l.238-.026.081-.011,5.093-.537a1.34,1.34,0,0,0,.726-.392,1.364,1.364,0,0,0-1.095-2.3l-.414.039-11.435,1.2.285,2.713,3.991-.42.322,3.067-3.99.419.516,4.915-3.124.329L45.212,45a1.484,1.484,0,0,1,1.32-1.63L60.067,41.95a4.377,4.377,0,0,1,2.387,8.276Z" fill="#9dceef"/>
              <path id="Path_8170" data-name="Path 8170" d="M91.262,68.023a.27.27,0,0,1-.016-.38l1.2-1.311a.27.27,0,0,1,.38-.016l2.1,1.927a.253.253,0,0,0,.369-.026l4.042-4.96a.271.271,0,0,1,.379-.039l1.379,1.124a.271.271,0,0,1,.039.379l-5.6,6.866a.252.252,0,0,1-.369.027Z" fill="#9dceef"/>
              <path id="Path_8171" data-name="Path 8171" d="M92.639,81.123a.27.27,0,0,1-.016-.381l1.2-1.31a.269.269,0,0,1,.38-.016l2.1,1.927a.252.252,0,0,0,.368-.026l4.043-4.96a.269.269,0,0,1,.378-.039l1.38,1.124a.27.27,0,0,1,.038.379l-5.6,6.866a.251.251,0,0,1-.368.027Z" fill="#9dceef"/>
              <rect id="Rectangle_2506" data-name="Rectangle 2506" width="10.311" height="10.311" rx="1.439" transform="matrix(0.995, -0.105, 0.105, 0.995, 93.399, 88.996)" fill="#9dceef"/>
              <rect id="Rectangle_2507" data-name="Rectangle 2507" width="10.311" height="10.311" rx="1.439" transform="matrix(0.995, -0.105, 0.105, 0.995, 94.673, 101.119)" fill="#9dceef"/>
            </g>
            <g id="Group_3857" data-name="Group 3857">
              <g id="Group_3856" data-name="Group 3856">
                <rect id="Rectangle_2508" data-name="Rectangle 2508" width="70.469" height="89.334" transform="translate(32.29 31.261) rotate(-6)" fill="#fff"/>
                <rect id="Rectangle_2509" data-name="Rectangle 2509" width="35.233" height="89.334" transform="translate(67.332 27.578) rotate(-6)" fill="#d9f1fd" opacity="0.2"/>
                <g id="Group_3846" data-name="Group 3846">
                  <rect id="Rectangle_2510" data-name="Rectangle 2510" width="40.175" height="2.283" transform="translate(44.32 65.199) rotate(-6)" fill="#d9f1fd"/>
                </g>
                <g id="Group_3847" data-name="Group 3847">
                  <rect id="Rectangle_2511" data-name="Rectangle 2511" width="26.819" height="2.283" transform="translate(43.715 59.45) rotate(-6)" fill="#ccecfc"/>
                </g>
                <g id="Group_3848" data-name="Group 3848">
                  <rect id="Rectangle_2512" data-name="Rectangle 2512" width="40.175" height="2.283" transform="translate(44.924 70.949) rotate(-6)" fill="#d9f1fd"/>
                </g>
                <g id="Group_3849" data-name="Group 3849">
                  <rect id="Rectangle_2513" data-name="Rectangle 2513" width="40.175" height="2.283" transform="translate(45.512 76.543) rotate(-6)" fill="#d9f1fd"/>
                </g>
                <g id="Group_3850" data-name="Group 3850">
                  <rect id="Rectangle_2514" data-name="Rectangle 2514" width="40.175" height="2.283" transform="translate(46.1 82.137) rotate(-6)" fill="#d9f1fd"/>
                </g>
                <g id="Group_3851" data-name="Group 3851">
                  <rect id="Rectangle_2515" data-name="Rectangle 2515" width="40.175" height="2.283" transform="translate(46.704 87.886) rotate(-6)" fill="#d9f1fd"/>
                </g>
                <g id="Group_3852" data-name="Group 3852">
                  <rect id="Rectangle_2516" data-name="Rectangle 2516" width="40.175" height="2.283" transform="translate(47.292 93.481) rotate(-6)" fill="#d9f1fd"/>
                </g>
                <g id="Group_3853" data-name="Group 3853">
                  <rect id="Rectangle_2517" data-name="Rectangle 2517" width="40.175" height="2.283" transform="translate(47.88 99.074) rotate(-6)" fill="#d9f1fd"/>
                </g>
                <g id="Group_3854" data-name="Group 3854">
                  <rect id="Rectangle_2518" data-name="Rectangle 2518" width="40.175" height="2.283" transform="translate(48.468 104.669) rotate(-6)" fill="#d9f1fd"/>
                </g>
                <g id="Group_3855" data-name="Group 3855">
                  <rect id="Rectangle_2519" data-name="Rectangle 2519" width="40.175" height="2.283" transform="translate(49.056 110.263) rotate(-6)" fill="#d9f1fd"/>
                </g>
                <path id="Path_8172" data-name="Path 8172" d="M59.085,46.857l3.362,5.1-3.453.363L55.91,47.681l-1.785.188.515,4.9-3.124.329L50.8,46.325c0-.015-.006-.029-.007-.044s0-.03,0-.045l-.007-.072,0,0a1.173,1.173,0,0,1,.864-1.133V45.02l.064-.007a1.175,1.175,0,0,1,.121-.02c.036,0,.072-.005.108-.005l.238-.027.081-.01,5.093-.537a1.347,1.347,0,0,0,.727-.393,1.363,1.363,0,0,0-1.1-2.3l-.413.039-11.435,1.2.285,2.713,3.99-.419.323,3.066-3.991.42.517,4.915-3.124.328-1.3-12.346A1.486,1.486,0,0,1,43.163,40L56.7,38.582a4.376,4.376,0,0,1,2.387,8.275Z" fill="#162e51"/>
                <path id="Path_8173" data-name="Path 8173" d="M87.893,64.654a.27.27,0,0,1-.016-.38l1.2-1.311a.271.271,0,0,1,.381-.016l2.1,1.928a.251.251,0,0,0,.368-.027l4.042-4.96a.271.271,0,0,1,.379-.039l1.379,1.125a.269.269,0,0,1,.039.378l-5.6,6.866a.251.251,0,0,1-.368.027Z" fill="#cc1d1d"/>
                <path id="Path_8174" data-name="Path 8174" d="M89.27,77.754a.27.27,0,0,1-.016-.38l1.2-1.311a.27.27,0,0,1,.38-.016l2.1,1.927a.251.251,0,0,0,.369-.026l4.042-4.96a.271.271,0,0,1,.379-.039l1.379,1.125a.269.269,0,0,1,.039.378l-5.595,6.866a.252.252,0,0,1-.369.027Z" fill="#cc1d1d"/>
                <rect id="Rectangle_2520" data-name="Rectangle 2520" width="10.311" height="10.311" rx="1.439" transform="matrix(0.995, -0.105, 0.105, 0.995, 90.03, 85.628)" fill="#d9f1fd"/>
                <rect id="Rectangle_2521" data-name="Rectangle 2521" width="10.311" height="10.311" rx="1.439" transform="matrix(0.995, -0.105, 0.105, 0.995, 91.304, 97.751)" fill="#d9f1fd"/>
              </g>
            </g>
          </g>
        </g>
        <g id="Group_3863" data-name="Group 3863">
          <path id="Path_8175" data-name="Path 8175" d="M71.04,97.835a21.258,21.258,0,1,1-1.816-30.008A21.257,21.257,0,0,1,71.04,97.835Z" fill="#d9f1fd" opacity="0.8"/>
          <path id="Glass_Effect" d="M45.8,66.776a4.484,4.484,0,0,0-1.611,1.561c-2.084,4.455,5.611,11.272,10.642,15.73s12.728,11.277,16.9,8.67a4.491,4.491,0,0,0,1.356-1.787A19.441,19.441,0,0,0,45.8,66.776Z" fill="#fff" opacity="0.5"/>
          <path id="Path_8176" data-name="Path 8176" d="M35.033,106.3l3.3-3.721q.982.869,2.028,1.621l-3.784,4.269a5.9,5.9,0,0,0-1.54-2.168Z" fill="#162e51"/>
          <path id="Path_8177" data-name="Path 8177" d="M38.33,102.581l-3.3,3.721a5.912,5.912,0,0,0-2.34-1.269l3.783-4.269A25.9,25.9,0,0,0,38.33,102.581Z" fill="#162e51"/>
          <path id="Path_8178" data-name="Path 8178" d="M69.237,67.694l2.749-3.1A25.378,25.378,0,0,1,40.358,104.2q-1.044-.752-2.028-1.621l2.055-2.321.7-.784A21.23,21.23,0,1,0,69.237,67.694Z" fill="#162e51"/>
          <path id="Path_8179" data-name="Path 8179" d="M71.986,64.59l-2.749,3.1A21.23,21.23,0,1,0,41.08,99.476l-.7.784-2.055,2.321a25.9,25.9,0,0,1-1.854-1.817A25.378,25.378,0,0,1,71.986,64.59Z" fill="#162e51"/>
          <path id="Path_8180" data-name="Path 8180" d="M71.986,64.59l-2.749,3.1A21.23,21.23,0,1,0,41.08,99.476l-.7.784-2.055,2.321a25.9,25.9,0,0,1-1.854-1.817A25.378,25.378,0,0,1,71.986,64.59Z" fill="#fff" opacity="0.1"/>
          <g id="Group_3860" data-name="Group 3860">
            <path id="Path_8181" data-name="Path 8181" d="M24.219,111.336l1.62,1.435,1.94,1.719-8.642,9.755-9.6,10.834c-1.444-4.25-1.359-4.74-.743-9.627C9.2,124.991,9.209,125.909,24.219,111.336Z" fill="#162e51"/>
            <path id="Path_8182" data-name="Path 8182" d="M24.219,111.336c1.268-1.238,5.217-5.1,6.674-6.534a6.239,6.239,0,0,1,1.8.231,5.912,5.912,0,0,1,2.34,1.269l-7.254,8.188Z" fill="#162e51"/>
          </g>
          <path id="Path_8183" data-name="Path 8183" d="M24.219,111.337l3.561,3.152,7.253-8.187a5.92,5.92,0,0,0-2.34-1.27c-.118-.032-.238-.062-.358-.087a6.233,6.233,0,0,0-1.443-.143c-.463.455-1.177,1.158-1.977,1.94C27.2,108.427,25.084,110.491,24.219,111.337Z" fill="#fff" opacity="0.1"/>
          <g id="Group_3861" data-name="Group 3861">
            <path id="Path_8184" data-name="Path 8184" d="M31.339,117.643c-12.648,16.639-11.857,16.71-12.257,17.161-3.831-.387-5.06-.235-9.542.276h0l9.6-10.834,8.642-9.755,1.94,1.719Z" fill="#162e51"/>
            <path id="Path_8185" data-name="Path 8185" d="M27.78,114.489l3.559,3.153c.736-.959,2.529-3.308,3.995-5.216.68-.888,1.289-1.682,1.687-2.2a6.214,6.214,0,0,0-.315-1.413c-.04-.116-.084-.232-.13-.345a5.933,5.933,0,0,0-1.543-2.17Z" fill="#162e51"/>
          </g>
          <path id="Path_8186" data-name="Path 8186" d="M32.126,109.584l3.208,2.842c.68-.888,1.289-1.682,1.687-2.2a6.214,6.214,0,0,0-.315-1.413l-.246-.217-1.94-1.719Z" fill="#cc1d1d"/>
          <path id="Path_8187" data-name="Path 8187" d="M32.126,109.584l3.208,2.842c.68-.888,1.289-1.682,1.687-2.2a6.214,6.214,0,0,0-.315-1.413l-.246-.217-1.94-1.719Z" fill="#cc1d1d" style="mix-blend-mode: multiply;isolation: isolate"/>
          <path id="Path_8188" data-name="Path 8188" d="M28.915,106.742l1.268,1.123,1.943,1.719,2.394-2.7-1.94-1.719-.245-.217a6.233,6.233,0,0,0-1.443-.143C30.429,105.257,29.715,105.96,28.915,106.742Z" fill="#cc1d1d"/>
          <g id="Group_3862" data-name="Group 3862">
            <path id="Path_8189" data-name="Path 8189" d="M13.99,130.054l-5.194-4.6c.46-.339,1.957-1.041,15.423-14.116l1.62,1.435,1.94,1.719-8.642,9.755Z" fill="#fff" opacity="0.1"/>
            <path id="Path_8190" data-name="Path 8190" d="M8.8,125.452l5.194,4.6-4.451,5.025c-2.527-2.241-3.269-6.807-.877-9.506A.776.776,0,0,1,8.8,125.452Z" fill="#cc1d1d"/>
            <path id="Path_8191" data-name="Path 8191" d="M19.137,124.245l8.642-9.755,1.94,1.719,1.62,1.434c-11.328,14.9-11.876,16.515-12.154,17.013l-5.195-4.6Z" fill="#162e51"/>
            <path id="Path_8192" data-name="Path 8192" d="M19.185,134.656a.885.885,0,0,1-.1.148c-2.391,2.7-7.017,2.513-9.542.276h0l4.451-5.025Z" fill="#cc1d1d"/>
            <path id="Path_8193" data-name="Path 8193" d="M19.185,134.656a.885.885,0,0,1-.1.148c-2.391,2.7-7.017,2.513-9.542.276h0l4.451-5.025Z" fill="#cc1d1d" style="mix-blend-mode: multiply;isolation: isolate"/>
          </g>
        </g>
      </g>
    </g>
  </g>
</svg>
