<svg xmlns="http://www.w3.org/2000/svg" width="21.865" height="26" viewBox="0 0 21.865 26">
  <g id="Group_1809" data-name="Group 1809" transform="translate(-278.303 -1252)">
    <path id="Path_2582" data-name="Path 2582" d="M-358.969,64.224l-6.057-6.057a1.517,1.517,0,0,0-2.227.052,1.5,1.5,0,0,0,.074,2.047l2.565,2.565a0,0,0,0,1,0,0h-10.491a1.525,1.525,0,0,0-1.537,1.464,1.5,1.5,0,0,0,1.5,1.543h10.524a0,0,0,0,1,0,0l-2.538,2.538a1.517,1.517,0,0,0,.052,2.227,1.5,1.5,0,0,0,2.047-.074l6.084-6.084A.162.162,0,0,0-358.969,64.224Z" transform="translate(654.946 1200.621)" fill="#1a4480"/>
    <path id="Path_2583" data-name="Path 2583" d="M-167.615-43.786h0A4.118,4.118,0,0,0-170.546-45h-4.428a.925.925,0,0,0-.924.924.925.925,0,0,0,.924.924h4.428a2.281,2.281,0,0,1,1.624.673,2.281,2.281,0,0,1,.673,1.624v17.711a2.281,2.281,0,0,1-.673,1.624,2.281,2.281,0,0,1-1.624.673h-4.428a.925.925,0,0,0-.924.924.925.925,0,0,0,.924.924h4.428a4.117,4.117,0,0,0,2.931-1.214,4.117,4.117,0,0,0,1.214-2.931V-40.855A4.118,4.118,0,0,0-167.615-43.786Z" transform="translate(466.569 1297)" fill="#1a4480"/>
  </g>
</svg>
