<?xml version="1.0" encoding="utf-8"?>
<!-- Generator: Adobe Illustrator 25.0.1, SVG Export Plug-In . SVG Version: 6.00 Build 0)  -->
<svg version="1.1" id="Layer_1" xmlns="http://www.w3.org/2000/svg" xmlns:xlink="http://www.w3.org/1999/xlink" x="0px" y="0px"
	 viewBox="0 0 199.5 44.3" style="enable-background:new 0 0 199.5 44.3;" xml:space="preserve">
<style type="text/css">
	.st0{fill:#CC1D1D;}
	.st1{fill:#C71F25;}
	.st2{fill:#FFFFFF;}
</style>
<g id="Group_4513" transform="translate(-0.6 -224.8)">
	<g id="Group_4511">
		<path id="Path_11446" class="st0" d="M22.2,225.7l156.3-0.5c11.7,0,21.2,9.5,21.3,21.2v0.5c0,11.7-9.5,21.2-21.2,21.3l-156.3,0.5
			c-11.7,0-21.2-9.5-21.3-21.2V247c-0.1-11.7,9.3-21.2,21-21.3C22.1,225.7,22.1,225.7,22.2,225.7z"/>
		<path id="Path_11447" class="st1" d="M22.3,269.1c-12,0-21.7-9.6-21.7-21.6V247c0-5.7,2.2-11.2,6.2-15.3c4-4.1,9.5-6.4,15.3-6.4
			l156.3-0.5c12,0,21.7,9.6,21.7,21.6v0.5c0,12-9.6,21.7-21.6,21.7L22.3,269.1z M22.2,226.1c-11.5,0-20.8,9.4-20.8,20.9
			c0,0,0,0.1,0,0.1v0.5c0,11.5,9.4,20.8,20.9,20.8l156.3-0.5c11.5,0,20.8-9.4,20.8-20.9v-0.5c0-11.5-9.4-20.8-20.9-20.8L22.2,226.1z
			"/>
	</g>
	<g id="Group_4512">
		<path id="Path_11448" class="st2" d="M46,251.3l1.5-1.8c0.5,0.7,1.2,1.2,2.1,1.3c1.1,0,1.6-0.6,1.6-1.9v-5.5h-4.1v-2.1H54v7.5
			c0,2.9-1.4,4.3-4.2,4.3C48.4,253,47,252.3,46,251.3z"/>
		<path id="Path_11449" class="st2" d="M64,250.3h-5.4l-1,2.5h-2.7l5.1-11.5h2.6l5.2,11.5H65L64,250.3z M63.1,248.2l-1.8-4.4
			l-1.8,4.4H63.1z"/>
		<path id="Path_11450" class="st2" d="M79.6,249.6c0,2-1.6,3.2-4.6,3.2h-6v-11.5h5.6c2.9,0,4.4,1.2,4.4,3c0,1.1-0.6,2-1.5,2.5
			C78.8,247.1,79.7,248.3,79.6,249.6z M71.7,243.2v2.7h2.7c1.3,0,2-0.5,2-1.4s-0.7-1.4-2-1.4L71.7,243.2L71.7,243.2z M76.9,249.3
			c0-1-0.7-1.4-2.1-1.4h-3.1v2.9h3.1C76.2,250.7,76.9,250.3,76.9,249.3L76.9,249.3z"/>
		<path id="Path_11451" class="st2" d="M96.3,245.4c0,2.6-1.9,4.2-5,4.2H89v3.2h-2.7v-11.5h5C94.4,241.2,96.3,242.8,96.3,245.4z
			 M93.6,245.4c0-1.3-0.8-2-2.5-2H89v4h2.2C92.8,247.4,93.6,246.6,93.6,245.4z"/>
		<path id="Path_11452" class="st2" d="M103.5,243.7v2.4h-0.6c-1.2-0.1-2.3,0.8-2.4,2.1c0,0.1,0,0.3,0,0.4v4.2H98v-8.9h2.5v1.2
			C101.2,244.2,102.3,243.6,103.5,243.7z"/>
		<path id="Path_11453" class="st2" d="M104.3,248.3c0.2-2.7,2.5-4.8,5.2-4.6c2.5,0.2,4.4,2.1,4.6,4.6c0,2.5-2,4.6-4.5,4.6
			c-0.1,0-0.3,0-0.4,0c-2.5,0.2-4.7-1.8-4.9-4.3C104.3,248.5,104.3,248.4,104.3,248.3z M111.5,248.3c0.1-1.3-0.9-2.4-2.1-2.5
			c-0.1,0-0.1,0-0.2,0c-1.2,0-2.3,1-2.3,2.2c0,0.1,0,0.2,0,0.3c-0.1,1.3,0.8,2.4,2.1,2.5c1.3,0.1,2.4-0.8,2.5-2.1
			C111.5,248.6,111.5,248.4,111.5,248.3z"/>
		<path id="Path_11454" class="st2" d="M115.1,248.3c0-2.5,2-4.6,4.6-4.6c0.1,0,0.2,0,0.3,0c1.7-0.1,3.3,0.8,4,2.3l-2,1.1
			c-0.4-0.7-1.2-1.2-2-1.2c-1.4,0.1-2.4,1.3-2.3,2.7c0.1,1.2,1.1,2.2,2.3,2.3c0.8,0,1.6-0.5,2-1.2l2,1.1c-0.8,1.5-2.3,2.4-4,2.2
			c-2.6,0.1-4.8-2-4.9-4.6C115.1,248.4,115.1,248.3,115.1,248.3z"/>
		<path id="Path_11455" class="st2" d="M134.1,249h-6.7c0.3,1.1,1.3,1.9,2.5,1.8c0.8,0,1.6-0.3,2.2-0.9l1.4,1.5
			c-1,1-2.3,1.5-3.7,1.4c-3.1,0-5.1-1.9-5.1-4.6c-0.1-2.5,1.9-4.5,4.4-4.6c0.1,0,0.2,0,0.3,0c2.4-0.1,4.5,1.7,4.6,4.1
			c0,0.2,0,0.3,0,0.5C134.1,248.5,134.1,248.7,134.1,249z M127.3,247.5h4.4c-0.2-1.2-1.4-2-2.6-1.8
			C128.2,245.9,127.5,246.6,127.3,247.5z"/>
		<path id="Path_11456" class="st2" d="M135,251.9l0.9-1.8c0.9,0.6,2,0.9,3.1,0.9c1.2,0,1.6-0.3,1.6-0.8c0-1.5-5.4,0-5.4-3.5
			c0-1.7,1.5-2.9,4.1-2.9c1.2,0,2.4,0.3,3.4,0.8l-0.9,1.8c-0.8-0.5-1.7-0.7-2.6-0.7c-1.2,0-1.6,0.4-1.6,0.8c0,1.5,5.4,0,5.4,3.5
			c0,1.6-1.5,2.8-4.2,2.8C137.5,252.9,136.1,252.6,135,251.9z"/>
		<path id="Path_11457" class="st2" d="M143.7,251.9l0.9-1.8c0.9,0.6,2,0.9,3.1,0.9c1.2,0,1.6-0.3,1.6-0.8c0-1.5-5.4,0-5.4-3.5
			c0-1.7,1.5-2.9,4.1-2.9c1.2,0,2.4,0.3,3.4,0.8l-0.9,1.8c-0.8-0.5-1.7-0.7-2.6-0.7c-1.2,0-1.6,0.4-1.6,0.8c0,1.5,5.4,0,5.4,3.5
			c0,1.6-1.5,2.8-4.2,2.8C146.2,252.9,144.8,252.6,143.7,251.9z"/>
	</g>
</g>
</svg>
