<svg xmlns="http://www.w3.org/2000/svg" width="131.6" height="134.7" viewBox="0 0 131.6 134.7"><circle cx="66.8" cy="69.2" r="64.8" fill="#d9f1fd"/><circle cx="64.8" cy="64.8" r="64.8" fill="#d9f1fd"/><path d="M115.7,29.9c-5.7-1-11.4-1.9-17.1-3.2-8.5-1.9-16.5-5.2-24.4-8.7-1.6-.7-3.1-1.5-4.6-2.2H68.1l-.9.6c-3,1.3-5.9,2.6-8.9,3.9q-4.95,2.1-10.2,3.9a114.5,114.5,0,0,1-17.7,4.4,17,17,0,0,0-2.2.4c-4.5.7-8.9,1.5-13.4,2.2h0v5.2h0c.1,2.5.3,5.1.4,7.6.2,3.9.4,7.8.6,11.8l.3,3.9a77.65,77.65,0,0,0,2.6,14.4c.4,1.6.9,3.2,1.3,4.7s.9,3,1.4,4.5c.8,2.2,1.7,4.4,2.6,6.5.6,1.4,1.3,2.8,2,4.2a100.25,100.25,0,0,0,11.8,17.6l1.6,1.9c.8.9,1.7,1.8,2.6,2.7,2.6,2.6,5.5,5.1,8.4,7.5.6.5,1.3,1.1,2,1.6a58.92,58.92,0,0,0,5.7,4.1c2,1.3,4,2.5,6.1,3.6a30.9,30.9,0,0,0,3.2,1.4c.4.1.7.3,1.1.4.1,0,.2.1.3.1h0a1.7,1.7,0,0,0,.7-.1c1-.4,2.1-.8,3.1-1.3,5.3-2.6,9.8-6.1,14.4-9.6,10.3-7.9,17.9-17.8,24-28.7,3.7-6.7,6-13.8,8-21.1a87.1,87.1,0,0,0,2.8-18.3c.3-5.8.6-11.6.9-17.5a4.4,4.4,0,0,1,.2-1v-6C120.6,30.7,118.2,30.3,115.7,29.9Z" fill="#e2f4fd"/><path d="M111.5,21.2c-5.7-1-11.4-1.9-17.1-3.2C85.9,16.1,77.9,12.8,70,9.3c-1.6-.7-3.1-1.5-4.6-2.2H63.9l-.9.6c-3,1.3-5.9,2.6-8.9,3.9a121.3,121.3,0,0,1-27.9,8.3c-5.2.8-10.4,1.7-15.6,2.5v5.2c.1,2.5.3,5.1.4,7.6.3,5.2.5,10.5.9,15.7a97.64,97.64,0,0,0,3.9,19.2c3.5,12.1,9.8,22.8,18,32.7,4.2,5.1,9.3,9.4,14.5,13.6a86.06,86.06,0,0,0,11.8,7.8,32.51,32.51,0,0,0,4.3,1.8c.1,0,.2.1.3.1a1.7,1.7,0,0,0,.7-.1c1-.4,2.1-.8,3.1-1.3,5.3-2.6,9.8-6.1,14.4-9.6,10.3-7.9,17.9-17.8,24-28.7,3.7-6.7,6-13.8,8-21.1A87.1,87.1,0,0,0,117.7,47c.3-5.8.6-11.6.9-17.5a4.4,4.4,0,0,1,.2-1v-6C116.4,22,113.9,21.6,111.5,21.2Zm3,9.3c-.4,6.3-.7,12.1-1,17.9a76.06,76.06,0,0,1-2.6,17.1c-2.2,7.9-4.8,15.6-9.3,22.7a99.16,99.16,0,0,1-11.8,15.7,88.83,88.83,0,0,1-13.7,11.5c-3.2,2.3-6.8,4-10.3,6a3,3,0,0,1-1,.2,1.27,1.27,0,0,1-.6-.1,24.3,24.3,0,0,1-3.7-1.6c-5.8-2.9-10.8-6.9-15.6-11A81,81,0,0,1,24,81.7a89.65,89.65,0,0,1-7.4-24.1,93,93,0,0,1-.9-10.5c-.4-6.7-.6-13.4-1-20.2,0-.5.1-.8.7-.9,2.4-.4,4.8-.8,7.3-1.2a140.09,140.09,0,0,0,16.9-3.3,149.52,149.52,0,0,0,23.6-9.1,2.41,2.41,0,0,1,1.6-.3,2.28,2.28,0,0,1,1.1.3c4.1,1.8,8.2,3.6,12.3,5.3a101.82,101.82,0,0,0,23,6.3c4.1.6,8.2,1.3,12.3,1.9.7.1,1,.4.9,1C114.5,28.4,114.5,29.7,114.5,30.5Z" fill="#fff"/><path d="M26.2,19.9a117.93,117.93,0,0,0,27.9-8.3C57.1,10.3,60,9,63,7.7a4.7,4.7,0,0,0,.9-.6h.9v5a3.23,3.23,0,0,0-1.6.3,159.93,159.93,0,0,1-23.6,9.1,138,138,0,0,1-17,3.3c-2.4.3-4.8.8-7.3,1.2-.6.1-.8.3-.7.9.3,6.7.6,13.4,1,20.2.2,3.5.4,7,.9,10.5a89.65,89.65,0,0,0,7.4,24.1,85.47,85.47,0,0,0,21,27.4c4.8,4.1,9.8,8.1,15.6,11,1.2.6,2.4,1.1,3.7,1.6a1.27,1.27,0,0,0,.6.1v4.3a.37.37,0,0,1-.3-.1c-1.4-.6-2.9-1.1-4.3-1.8a70.89,70.89,0,0,1-11.8-7.8,93.76,93.76,0,0,1-14.5-13.6c-8.2-9.9-14.4-20.6-18-32.7A96.19,96.19,0,0,1,12,50.9c-.4-5.2-.6-10.5-.9-15.7-.1-2.5-.3-5.1-.4-7.6V22.4C15.8,21.6,21,20.7,26.2,19.9Z" fill="#f1f0f0" opacity="0.48" style="isolation:isolate"/><path d="M108.9,27.9c-6.2-1.1-12.4-2-18.5-3.3-8.5-1.9-16.5-5.4-24.2-9.1a4.19,4.19,0,0,0-1.5-.4,3.17,3.17,0,0,0-1.6.4c-7.8,3.7-15.8,7.2-24.3,9.1-5.3,1.2-10.8,2-16.1,2.9-1.5.3-2.9.5-4.5.8.1,3.2.2,6.3.3,9.4.2,3.6.4,7.1.6,10.7A83.12,83.12,0,0,0,29,85a78.44,78.44,0,0,0,22.5,25.9,62.24,62.24,0,0,0,12.1,7.4,3.08,3.08,0,0,0,1.3.3,3.43,3.43,0,0,0,1.6-.4,58,58,0,0,0,10.9-6.7,99.49,99.49,0,0,0,11.4-10c7.6-8.4,13.6-17.6,17-28.1,1.6-5.1,2.9-10.3,4.1-15.5a41.52,41.52,0,0,0,.7-7c.4-6.9.7-13.7.9-20.6C111.3,28.1,111.8,28.4,108.9,27.9Z" fill="#fff"/><path d="M51.4,111A80.64,80.64,0,0,1,28.9,85.1,81.46,81.46,0,0,1,19,48.5c-.1-3.6-.4-7.1-.6-10.7-.1-3.1-.2-6.2-.3-9.4,1.6-.3,3.1-.6,4.5-.8,5.4-1,10.8-1.7,16.1-2.9,8.6-1.9,16.5-5.4,24.3-9.1a3.43,3.43,0,0,1,1.6-.4V118.8a3.45,3.45,0,0,1-1.3-.3A74.26,74.26,0,0,1,51.4,111Z" fill="#f1f0f0" opacity="0.48" style="isolation:isolate"/><path d="M114.5,27c0-.7-.2-.9-.9-1-4.1-.6-8.2-1.3-12.3-1.9a100.41,100.41,0,0,1-23-6.3c-4.2-1.7-8.2-3.5-12.3-5.3a2.61,2.61,0,0,0-1.1-.3,3.23,3.23,0,0,0-1.6.3,159.93,159.93,0,0,1-23.6,9.1,166,166,0,0,1-17.1,3.2c-2.4.3-4.8.8-7.3,1.2-.6.1-.8.3-.7.9.3,6.7.6,13.4,1,20.2.2,3.5.4,7,.9,10.5a89.65,89.65,0,0,0,7.4,24.1,85.47,85.47,0,0,0,21,27.4c4.8,4.1,9.8,8.1,15.6,11,1.2.6,2.4,1.1,3.7,1.6a1.27,1.27,0,0,0,.6.1,3.55,3.55,0,0,0,1-.2,95.46,95.46,0,0,0,10.3-6,94.83,94.83,0,0,0,13.7-11.5,89.56,89.56,0,0,0,11.8-15.7c4.4-7.1,7.1-14.8,9.3-22.7a82.21,82.21,0,0,0,2.6-17.1c.3-5.8.7-11.6,1-17.9Zm-3.3,3.5c-.2,6.9-.6,13.7-.9,20.6a41.52,41.52,0,0,1-.7,7c-1.2,5.2-2.4,10.4-4.1,15.5-3.4,10.5-9.4,19.8-17,28.1a99.49,99.49,0,0,1-11.4,10,55,55,0,0,1-10.9,6.7,2.93,2.93,0,0,1-1.6.4,3.45,3.45,0,0,1-1.3-.3,67.54,67.54,0,0,1-12.1-7.4A80.64,80.64,0,0,1,28.7,85.2a81.46,81.46,0,0,1-9.9-36.6c-.1-3.6-.4-7.1-.6-10.7-.1-3.1-.2-6.2-.3-9.4,1.6-.3,3.1-.6,4.5-.8,5.4-1,10.8-1.7,16.1-2.9,8.6-1.9,16.5-5.4,24.3-9.1a3.43,3.43,0,0,1,1.6-.4,3.07,3.07,0,0,1,1.5.4c7.8,3.7,15.7,7.2,24.2,9.1,6.1,1.4,12.3,2.3,18.5,3.3C111.8,28.4,111.3,28.1,111.2,30.5Z" fill="#f1f0f0"/><path d="M63.1,15.5c-7.8,3.7-15.8,7.2-24.3,9.1-5.3,1.2-10.8,2-16.1,2.9-1.5.3-2.9.5-4.5.8.1,3.2.2,6.3.3,9.4.2,3.6.4,7.1.6,10.7A83.12,83.12,0,0,0,29,85a78.44,78.44,0,0,0,22.5,25.9,62.24,62.24,0,0,0,12.1,7.4,3.08,3.08,0,0,0,1.3.3v3a1.27,1.27,0,0,1-.6-.1,24.3,24.3,0,0,1-3.7-1.6c-5.8-2.9-10.8-6.9-15.6-11A80.05,80.05,0,0,1,24,81.7a89.65,89.65,0,0,1-7.4-24.1,93,93,0,0,1-.9-10.5c-.4-6.7-.6-13.4-1-20.2,0-.5.1-.8.7-.9,2.4-.4,4.8-.8,7.3-1.2a140.09,140.09,0,0,0,16.9-3.3,149.52,149.52,0,0,0,23.6-9.1,2.41,2.41,0,0,1,1.6-.3v3A3.53,3.53,0,0,0,63.1,15.5Z" fill="#f1f0f0"/><path d="M40.3,24.2h0L58.4,55Z" fill="#eef8fb"/><path d="M18.2,28.1c.1,3.3.2,6.6.4,9.8.2,3.7.2,7.3.3,11,.2,4.8,1.4,9.6,2.3,14.3H50.9a2.45,2.45,0,0,0,2.3-2,6.36,6.36,0,0,1,.6-1.8L21,27.6A20.16,20.16,0,0,0,18.2,28.1Z" fill="#9f1d20"/><path d="M108.4,28.1a.37.37,0,0,1-.3-.1L74.4,60.7c0,.1.1.3.1.4a2.36,2.36,0,0,0,2.3,2h30.8c2.2-8.4,2-9.1,2.1-11.5.4-6.9.7-14,.9-20.9C110.8,28.3,111.3,28.6,108.4,28.1Z" fill="#0790b7"/><path d="M58.5,54A11.24,11.24,0,0,1,64,52.6a2.2,2.2,0,0,1,.8.1v-38a3.43,3.43,0,0,0-1.6.4c-7.3,3.6-14.8,7-22.8,9h-.1c-.4.1-.8.2-1.3.3C33.9,25.6,29.3,26,24,27c-.7.1-1.8.3-2.9.5L53.8,59.2A10.32,10.32,0,0,1,58.5,54Z" fill="#c82127"/><path d="M72.9,63.4a9.69,9.69,0,0,0-4.5-6.1L67,56.6h0a8.56,8.56,0,0,0-2.3-.5L63.3,56V13.2H65a4.14,4.14,0,0,1,2,.6c6.5,3.4,13.5,6.9,21.1,9.1.6.2,1.7.4,2.3.6,3.7.9,7.6,1.5,11.3,2.1,2.2.3,4.5.7,6.7,1.1l2.7.5L73.5,66.1Z" fill="#4c9dc0"/><path d="M64.8,14.7h0a3.71,3.71,0,0,1,1.4.4c6.9,3.6,13.9,7,21.4,9.2a21,21,0,0,0,2.4.6c6,1.4,12.1,2.1,18.1,3.2l-33.9,35a10.93,10.93,0,0,0-5.2-7l.1-.1a10.74,10.74,0,0,0-4.4-1.3l.1-40h0m-3-3.1V57.4l2.8.2a5.84,5.84,0,0,1,1.8.4l1.2.7a8.16,8.16,0,0,1,3.8,5.1l1.3,5.3,3.8-3.9,33.9-35,3.9-4-5.5-1c-2.3-.4-4.6-.8-6.8-1.1-3.9-.6-7.5-1.2-11.2-2.1-.6-.2-1.6-.4-2.3-.6a107.68,107.68,0,0,1-20.8-8.9,7,7,0,0,0-2.7-.8h-.2l-3-.1Z" fill="#fff"/><circle cx="63.3" cy="63.5" r="12.4" fill="#fff"/><path d="M83.6,34.2a1.24,1.24,0,0,0-.4-1.5,1.21,1.21,0,0,0-1.5.2c-1.4,1.5-3.3,3.6-5.3,5.9l-13,24.5,5.9,3C69.1,66.5,79.6,43.3,83.6,34.2Z" fill="#1a4580" opacity="0.25" style="isolation:isolate"/><path d="M69.1,66.5c1.1-2.2,8.7-24.6,11.8-33.9a1.11,1.11,0,0,0-.5-1.4,1.15,1.15,0,0,0-1.5.4c-6,7.8-20.2,26.6-21.5,28.8h0a6.54,6.54,0,0,0,2.8,8.9A6.46,6.46,0,0,0,69.1,66.5Z" fill="#1a4580"/><path d="M69.1,66.5c1.1-2.2,8.7-24.6,11.8-33.9a1.11,1.11,0,0,0-.5-1.4L60.1,69.4A6.66,6.66,0,0,0,69.1,66.5Z" fill="#1a4580"/></svg>