<svg id="Group_5076" data-name="Group 5076" xmlns="http://www.w3.org/2000/svg" xmlns:xlink="http://www.w3.org/1999/xlink" width="30" height="30" viewBox="0 0 30 30">
  <defs>
    <clipPath id="clip-path">
      <rect id="Rectangle_3089" data-name="Rectangle 3089" width="30" height="30" fill="none"/>
    </clipPath>
    <clipPath id="clip-path-3">
      <rect id="Rectangle_3087" data-name="Rectangle 3087" width="4.778" height="5.015" transform="translate(16.188 17.207)" fill="none"/>
    </clipPath>
  </defs>
  <g id="Group_5075" data-name="Group 5075" clip-path="url(#clip-path)">
    <g id="Group_5074" data-name="Group 5074">
      <g id="Group_5073" data-name="Group 5073" clip-path="url(#clip-path)">
        <path id="Path_13367" data-name="Path 13367" d="M15,0A15,15,0,1,1,0,15,15,15,0,0,1,15,0" fill="#1a4480"/>
        <path id="Path_13368" data-name="Path 13368" d="M17.938,6.567V9.6h3.033Z" fill="#e5e5e5"/>
        <path id="Path_13369" data-name="Path 13369" d="M17.922,9.6V6.567H8.855V22.233h12.1V9.6Z" fill="#fff"/>
        <path id="Path_13370" data-name="Path 13370" d="M21.567,11.7H8.167a.385.385,0,0,0-.4.4v4.433h13.8a.385.385,0,0,0,.4-.4V12.1a.385.385,0,0,0-.4-.4" fill="#2798d8"/>
        <path id="Path_13371" data-name="Path 13371" d="M7.767,16.533l1.1,1.1v-1.1Z" fill="#124a88"/>
        <g id="Group_5072" data-name="Group 5072" opacity="0.5" style="isolation: isolate">
          <g id="Group_5071" data-name="Group 5071">
            <g id="Group_5070" data-name="Group 5070" clip-path="url(#clip-path-3)">
              <path id="Path_13372" data-name="Path 13372" d="M20.966,17.622a3.212,3.212,0,0,0-4.367,1.2,3.28,3.28,0,0,0,.134,3.4h4.2Z" fill="#dbdbdb"/>
            </g>
          </g>
        </g>
        <path id="Path_13373" data-name="Path 13373" d="M19.4,17.833A2.566,2.566,0,1,1,16.833,20.4,2.567,2.567,0,0,1,19.4,17.833" fill="#fff"/>
        <path id="Path_13374" data-name="Path 13374" d="M20.667,20.4h-.6V19.133A.071.071,0,0,0,20,19.067H18.734a.071.071,0,0,0-.067.066V20.4h-.6a.072.072,0,0,0-.067.067c0,.033,0,.033.034.033l1.3,1.567a.063.063,0,0,0,.1,0l1.3-1.567a.063.063,0,0,0,0-.1Z" fill="#2798d8"/>
      </g>
    </g>
  </g>
</svg>
