<?xml version="1.0" encoding="UTF-8"?>
<svg id="Layer_1" data-name="Layer 1" xmlns="http://www.w3.org/2000/svg" viewBox="0 0 30 30">
  <defs>
    <style>
      .cls-1 {
        fill: #fff;
      }

      .cls-2 {
        fill: #e5e5e5;
      }

      .cls-3 {
        fill: #124a88;
      }

      .cls-4 {
        fill: #1a4480;
      }

      .cls-5 {
        fill: #2798d8;
      }

      .cls-6 {
        fill: #dbdbdb;
        isolation: isolate;
        opacity: .5;
      }
    </style>
  </defs>
  <g id="Group_8242" data-name="Group 8242">
    <g id="Group_8241" data-name="Group 8241">
      <circle id="Ellipse_1293" data-name="Ellipse 1293" class="cls-4" cx="15" cy="14.99" r="15"/>
      <g>
        <g id="Group_1687" data-name="Group 1687">
          <g id="Group_1686" data-name="Group 1686">
            <g id="Group_1685" data-name="Group 1685">
              <g id="Group_1676" data-name="Group 1676">
                <g id="Group_1675" data-name="Group 1675">
                  <g id="Group_1674" data-name="Group 1674">
                    <g id="Group_1673" data-name="Group 1673">
                      <g id="Group_1672" data-name="Group 1672">
                        <g id="Group_1671" data-name="Group 1671">
                          <g id="Group_1670" data-name="Group 1670">
                            <path id="Path_1564" data-name="Path 1564" class="cls-2" d="m17.94,6.55v3.03h3.03l-3.03-3.03Z"/>
                          </g>
                        </g>
                      </g>
                    </g>
                  </g>
                </g>
              </g>
              <g id="Group_1684" data-name="Group 1684">
                <g id="Group_1683" data-name="Group 1683">
                  <g id="Group_1682" data-name="Group 1682">
                    <g id="Group_1681" data-name="Group 1681">
                      <g id="Group_1680" data-name="Group 1680">
                        <g id="Group_1679" data-name="Group 1679">
                          <g id="Group_1678" data-name="Group 1678">
                            <g id="Group_1677" data-name="Group 1677">
                              <path id="Path_1565" data-name="Path 1565" class="cls-1" d="m17.92,9.59v-3.03h-9.07v15.67h12.1v-12.63h-3.03Z"/>
                            </g>
                          </g>
                        </g>
                      </g>
                    </g>
                  </g>
                </g>
              </g>
            </g>
          </g>
        </g>
        <path id="Path_1566" data-name="Path 1566" class="cls-5" d="m21.57,11.69h-13.4c-.23,0-.4.17-.4.4h0v4.43h13.8c.23,0,.4-.17.4-.4v-4.03c0-.23-.17-.4-.4-.4Z"/>
        <path id="Path_1567" data-name="Path 1567" class="cls-3" d="m7.77,16.52l1.1,1.1v-1.1h-1.1Z"/>
        <g id="Group_1688" data-name="Group 1688">
          <path id="Path_1568" data-name="Path 1568" class="cls-6" d="m20.97,17.61c-1.53-.87-3.5-.33-4.37,1.2-.6,1.07-.53,2.4.13,3.4h4.2l.03-4.6Z"/>
        </g>
        <circle id="Ellipse_197" data-name="Ellipse 197" class="cls-1" cx="19.4" cy="20.39" r="2.57"/>
        <path id="Path_1569" data-name="Path 1569" class="cls-5" d="m20.67,20.39h-.6v-1.27s-.03-.07-.07-.07h-1.27s-.07.03-.07.07v1.27h-.6s-.07.03-.07.07,0,.03.03.03l1.3,1.57s.07.03.1,0h0l1.3-1.57s.03-.07,0-.1h-.07Z"/>
      </g>
    </g>
  </g>
</svg>