<?xml version="1.0" encoding="utf-8"?>
<!-- Generator: Adobe Illustrator 27.5.0, SVG Export Plug-In . SVG Version: 6.00 Build 0)  -->
<svg version="1.1" id="Layer_1" xmlns="http://www.w3.org/2000/svg" xmlns:xlink="http://www.w3.org/1999/xlink" x="0px" y="0px"
	 viewBox="0 0 30 30" style="enable-background:new 0 0 30 30;" xml:space="preserve">
<style type="text/css">
	.st0{fill:#1A4480;}
	.st1{fill:#E5E5E5;}
	.st2{fill:#FFFFFF;}
	.st3{fill:#2798D8;}
	.st4{fill:#124A88;}
	.st5{opacity:0.5;fill:#DBDBDB;enable-background:new    ;}
</style>
<g id="Group_8242" transform="translate(-95.753 -7552.753)">
	<g id="Group_8241" transform="translate(95.438 7552.438)">
		<circle id="Ellipse_1293" class="st0" cx="15.3" cy="15.3" r="15"/>
		<g>
			<g id="Group_1687" transform="translate(1.966)">
				<g id="Group_1686">
					<g id="Group_1685">
						<g id="Group_1676" transform="translate(16.249)">
							<g id="Group_1675">
								<g id="Group_1674">
									<g id="Group_1673">
										<g id="Group_1672">
											<g id="Group_1671">
												<g id="Group_1670">
													<path id="Path_1564" class="st1" d="M0,6.9v3h3L0,6.9z"/>
												</g>
											</g>
										</g>
									</g>
								</g>
							</g>
						</g>
						<g id="Group_1684">
							<g id="Group_1683">
								<g id="Group_1682">
									<g id="Group_1681">
										<g id="Group_1680">
											<g id="Group_1679">
												<g id="Group_1678">
													<g id="Group_1677">
														<path id="Path_1565" class="st2" d="M16.3,9.9v-3H7.2v15.7h12.1V9.9H16.3z"/>
													</g>
												</g>
											</g>
										</g>
									</g>
								</g>
							</g>
						</g>
					</g>
				</g>
			</g>
			<path id="Path_1566" class="st3" d="M21.9,12H8.5c-0.2,0-0.4,0.2-0.4,0.4l0,0v4.4h13.8c0.2,0,0.4-0.2,0.4-0.4v-4
				C22.3,12.2,22.1,12,21.9,12z"/>
			<path id="Path_1567" class="st4" d="M8.1,16.8l1.1,1.1v-1.1H8.1z"/>
			<g id="Group_1688" transform="translate(15.098 19.066)">
				<path id="Path_1568" class="st5" d="M6.2-1.1C4.6-2,2.7-1.5,1.8,0.1C1.2,1.1,1.3,2.5,1.9,3.5h4.2L6.2-1.1z"/>
			</g>
			<ellipse id="Ellipse_197" class="st2" cx="19.7" cy="20.7" rx="2.6" ry="2.6"/>
			<path id="Path_1569" class="st3" d="M21,20.7h-0.6v-1.3c0,0,0-0.1-0.1-0.1l0,0H19c0,0-0.1,0-0.1,0.1v1.3h-0.6c0,0-0.1,0-0.1,0.1
				c0,0,0,0,0,0l1.3,1.6c0,0,0.1,0,0.1,0l0,0l1.3-1.6C21.1,20.8,21.1,20.7,21,20.7C21,20.7,21,20.7,21,20.7z"/>
		</g>
	</g>
</g>
</svg>
