<svg id="mp-fedramp-ready" xmlns="http://www.w3.org/2000/svg" xmlns:xlink="http://www.w3.org/1999/xlink" width="115.037" height="115.037" viewBox="0 0 115.037 115.037">
  <defs>
    <clipPath id="clip-path">
      <rect id="Rectangle_5172" data-name="Rectangle 5172" width="115.037" height="115.037" fill="none"/>
    </clipPath>
    <clipPath id="clip-path-3">
      <rect id="Rectangle_5152" data-name="Rectangle 5152" width="70.436" height="86.496" fill="none"/>
    </clipPath>
    <clipPath id="clip-path-4">
      <rect id="Rectangle_5153" data-name="Rectangle 5153" width="36.126" height="77.564" fill="none"/>
    </clipPath>
  </defs>
  <g id="Group_8368" data-name="Group 8368" clip-path="url(#clip-path)">
    <g id="Group_8367" data-name="Group 8367">
      <g id="Group_8366" data-name="Group 8366" clip-path="url(#clip-path)">
        <path id="Path_21735" data-name="Path 21735" d="M115.016,57.508A57.508,57.508,0,1,1,57.508,0a57.507,57.507,0,0,1,57.508,57.508" fill="#d9f1fd"/>
        <g id="Group_8362" data-name="Group 8362" transform="translate(23.88 19.079)" opacity="0.6" style="mix-blend-mode: multiply;isolation: isolate">
          <g id="Group_8361" data-name="Group 8361">
            <g id="Group_8360" data-name="Group 8360" clip-path="url(#clip-path-3)">
              <path id="Path_21736" data-name="Path 21736" d="M68.984,96.584,18.858,91.715a6.854,6.854,0,0,1-6.16-7.487l6.6-67.914a6.858,6.858,0,0,1,7.487-6.164l50.126,4.87a6.857,6.857,0,0,1,6.162,7.487l-6.6,67.914a6.857,6.857,0,0,1-7.487,6.162" transform="translate(-12.665 -10.12)" fill="#c2e9f9"/>
            </g>
          </g>
        </g>
        <path id="Path_21737" data-name="Path 21737" d="M67.686,94.863,17.56,89.994a6.854,6.854,0,0,1-6.16-7.487L18,14.593a6.857,6.857,0,0,1,7.487-6.162L75.609,13.3a6.857,6.857,0,0,1,6.162,7.487L75.174,88.7a6.857,6.857,0,0,1-7.487,6.162" transform="translate(10.066 7.437)" fill="#1a4480"/>
        <path id="Path_21738" data-name="Path 21738" d="M70,90.385l-56.935-5.53,7.261-74.76,56.935,5.53L71.5,74.875Z" transform="translate(11.566 8.939)" fill="#fff"/>
        <path id="Path_21739" data-name="Path 21739" d="M56.471,11.065l-9.214-.9a1.858,1.858,0,0,1-1.642-1.5,4.743,4.743,0,0,0-9.047-.881,1.864,1.864,0,0,1-1.9,1.16l-9.211-.9a1.859,1.859,0,0,0-2.031,1.671l-.671,6.9a1.859,1.859,0,0,0,1.671,2.029L55.44,21.663a1.859,1.859,0,0,0,2.029-1.671l.671-6.9a1.859,1.859,0,0,0-1.669-2.031m-15.723.694A2.057,2.057,0,1,1,43,9.909a2.058,2.058,0,0,1-2.248,1.85" transform="translate(20.14 4.278)" fill="#dbdbdb"/>
        <g id="Group_8365" data-name="Group 8365" transform="translate(52.696 21.76)" opacity="0.03">
          <g id="Group_8364" data-name="Group 8364">
            <g id="Group_8363" data-name="Group 8363" clip-path="url(#clip-path-4)">
              <path id="Path_21740" data-name="Path 21740" d="M35.21,11.541l28.865,2.8L58.32,73.591,56.814,89.1,27.949,86.3Z" transform="translate(-27.948 -11.541)"/>
            </g>
          </g>
        </g>
        <rect id="Rectangle_5154" data-name="Rectangle 5154" width="2.818" height="34.877" transform="translate(42.715 22.749) rotate(-84.453)" fill="#e8e8e8"/>
        <rect id="Rectangle_5155" data-name="Rectangle 5155" width="1.606" height="17.796" transform="translate(48.153 30.413) rotate(-84.455)" fill="#d9f1fd"/>
        <rect id="Rectangle_5156" data-name="Rectangle 5156" width="1.606" height="35.592" transform="translate(47.759 34.46) rotate(-84.452)" fill="#e2f5fd"/>
        <rect id="Rectangle_5157" data-name="Rectangle 5157" width="1.606" height="35.592" transform="translate(47.376 38.399) rotate(-84.452)" fill="#e2f5fd"/>
        <rect id="Rectangle_5158" data-name="Rectangle 5158" width="1.606" height="35.592" transform="translate(46.994 42.338) rotate(-84.452)" fill="#e2f5fd"/>
        <rect id="Rectangle_5159" data-name="Rectangle 5159" width="1.606" height="17.796" transform="translate(46.614 46.252) rotate(-84.455)" fill="#d9f1fd"/>
        <rect id="Rectangle_5160" data-name="Rectangle 5160" width="1.606" height="35.592" transform="translate(46.22 50.3) rotate(-84.452)" fill="#e2f5fd"/>
        <rect id="Rectangle_5161" data-name="Rectangle 5161" width="1.606" height="35.592" transform="translate(45.838 54.239) rotate(-84.452)" fill="#e2f5fd"/>
        <rect id="Rectangle_5162" data-name="Rectangle 5162" width="1.606" height="35.592" transform="translate(45.455 58.178) rotate(-84.452)" fill="#e2f5fd"/>
        <rect id="Rectangle_5163" data-name="Rectangle 5163" width="1.606" height="17.796" transform="matrix(0.097, -0.995, 0.995, 0.097, 45.04, 62.461)" fill="#d9f1fd"/>
        <rect id="Rectangle_5164" data-name="Rectangle 5164" width="1.606" height="35.592" transform="translate(44.646 66.509) rotate(-84.452)" fill="#e2f5fd"/>
        <rect id="Rectangle_5165" data-name="Rectangle 5165" width="1.606" height="35.592" transform="translate(44.264 70.448) rotate(-84.452)" fill="#e2f5fd"/>
        <rect id="Rectangle_5166" data-name="Rectangle 5166" width="1.606" height="35.592" transform="translate(43.881 74.387) rotate(-84.452)" fill="#e2f5fd"/>
        <rect id="Rectangle_5167" data-name="Rectangle 5167" width="1.606" height="17.796" transform="matrix(0.097, -0.995, 0.995, 0.097, 43.465, 78.67)" fill="#d9f1fd"/>
        <rect id="Rectangle_5168" data-name="Rectangle 5168" width="1.606" height="35.592" transform="matrix(0.097, -0.995, 0.995, 0.097, 43.072, 82.717)" fill="#e2f5fd"/>
        <rect id="Rectangle_5169" data-name="Rectangle 5169" width="1.606" height="35.592" transform="matrix(0.097, -0.995, 0.995, 0.097, 42.689, 86.656)" fill="#e2f5fd"/>
        <rect id="Rectangle_5170" data-name="Rectangle 5170" width="1.606" height="35.592" transform="matrix(0.097, -0.995, 0.995, 0.097, 42.307, 90.596)" fill="#e2f5fd"/>
        <path id="Path_21741" data-name="Path 21741" d="M23.2,17h0c.117,0,.236.006.354.017a3.61,3.61,0,0,1-.343,7.2,3.214,3.214,0,0,1-.354-.019A3.609,3.609,0,0,1,23.2,17m0-.888a4.5,4.5,0,0,0-.43,8.973,4.345,4.345,0,0,0,.441.021,4.5,4.5,0,0,0,.428-8.973c-.147-.013-.294-.021-.439-.021" transform="translate(16.563 14.27)" fill="#c81f25"/>
        <path id="Path_21742" data-name="Path 21742" d="M22.358,20.547a.644.644,0,0,1-.017.107.285.285,0,0,1-.026.07.093.093,0,0,1-.032.034.053.053,0,0,1-.038.008l-1.629-.158a.053.053,0,0,1-.032-.013.081.081,0,0,1-.025-.041.231.231,0,0,1-.013-.072.754.754,0,0,1,0-.109.7.7,0,0,1,.017-.111.273.273,0,0,1,.025-.07.1.1,0,0,1,.032-.036.054.054,0,0,1,.038-.009l.551.053.187-1.919-.5.215a.368.368,0,0,1-.087.023.058.058,0,0,1-.053-.019.119.119,0,0,1-.019-.07.9.9,0,0,1,.006-.134q.006-.057.011-.091a.216.216,0,0,1,.017-.058.11.11,0,0,1,.03-.04.374.374,0,0,1,.045-.03l.675-.349a.063.063,0,0,1,.03-.011.147.147,0,0,1,.045-.006c.019,0,.041,0,.072,0s.068.006.115.011.106.011.14.017a.4.4,0,0,1,.081.019.072.072,0,0,1,.034.025.058.058,0,0,1,.006.036l-.236,2.438.481.047a.055.055,0,0,1,.036.015.106.106,0,0,1,.026.043.336.336,0,0,1,.011.074c0,.03,0,.068-.006.111" transform="translate(18.193 15.681)" fill="#c81f25"/>
        <path id="Path_21743" data-name="Path 21743" d="M22.38,25.4h0c.117,0,.236.006.354.017a3.61,3.61,0,0,1-.341,7.2,3.189,3.189,0,0,1-.354-.019,3.609,3.609,0,0,1,.341-7.2m0-.888a4.5,4.5,0,0,0-.43,8.973,4.407,4.407,0,0,0,.443.021,4.5,4.5,0,0,0,.426-8.973c-.145-.013-.294-.021-.439-.021" transform="translate(15.841 21.709)" fill="#c81f25"/>
        <path id="Path_21744" data-name="Path 21744" d="M21.666,28.966a.8.8,0,0,1-.017.113.279.279,0,0,1-.025.074.09.09,0,0,1-.034.04.079.079,0,0,1-.041.009l-1.7-.166a.471.471,0,0,1-.087-.017.121.121,0,0,1-.055-.041.17.17,0,0,1-.026-.079.651.651,0,0,1,0-.132.987.987,0,0,1,.019-.128.335.335,0,0,1,.034-.092.525.525,0,0,1,.055-.077.684.684,0,0,1,.083-.081l.564-.5a2.7,2.7,0,0,0,.275-.266,1.774,1.774,0,0,0,.168-.226.807.807,0,0,0,.092-.192.872.872,0,0,0,.036-.172A.414.414,0,0,0,21,26.888a.381.381,0,0,0-.06-.124.347.347,0,0,0-.109-.091.454.454,0,0,0-.164-.043.717.717,0,0,0-.241.011,1.085,1.085,0,0,0-.19.058,1.222,1.222,0,0,0-.138.064.168.168,0,0,1-.087.028.058.058,0,0,1-.034-.017.121.121,0,0,1-.019-.049.78.78,0,0,1-.008-.087c0-.036,0-.079.008-.132a.714.714,0,0,1,.013-.087.351.351,0,0,1,.015-.06.17.17,0,0,1,.023-.045.255.255,0,0,1,.045-.041.5.5,0,0,1,.111-.06,1.5,1.5,0,0,1,.2-.064,1.9,1.9,0,0,1,.253-.043,1.418,1.418,0,0,1,.283,0,1.243,1.243,0,0,1,.4.1.8.8,0,0,1,.27.189.666.666,0,0,1,.147.264.85.85,0,0,1,.025.311,1.278,1.278,0,0,1-.055.281,1.025,1.025,0,0,1-.143.288,2.321,2.321,0,0,1-.277.332,5.657,5.657,0,0,1-.462.413l-.379.321,1.163.113a.062.062,0,0,1,.041.017.1.1,0,0,1,.028.045.273.273,0,0,1,.013.077.78.78,0,0,1,0,.111" transform="translate(17.428 23.11)" fill="#c81f25"/>
        <path id="Path_21745" data-name="Path 21745" d="M21.564,33.805h0c.117,0,.236.006.354.017a3.61,3.61,0,0,1-.341,7.2,3.19,3.19,0,0,1-.354-.019,3.609,3.609,0,0,1,.341-7.2m0-.888a4.5,4.5,0,0,0-.43,8.973,4.356,4.356,0,0,0,.443.021A4.5,4.5,0,0,0,22,32.938c-.145-.013-.294-.021-.439-.021" transform="translate(15.118 29.148)" fill="#c81f25"/>
        <path id="Path_21746" data-name="Path 21746" d="M20.9,36.732a.89.89,0,0,1-.123.385.834.834,0,0,1-.262.264,1.07,1.07,0,0,1-.379.141,1.7,1.7,0,0,1-.464.017,2.022,2.022,0,0,1-.281-.049,1.885,1.885,0,0,1-.228-.077A.958.958,0,0,1,19,37.33a.47.47,0,0,1-.083-.06.149.149,0,0,1-.026-.043.359.359,0,0,1-.013-.057c0-.021,0-.047,0-.077s0-.07.008-.113a.433.433,0,0,1,.034-.151.057.057,0,0,1,.058-.036.177.177,0,0,1,.075.038,1.309,1.309,0,0,0,.136.079,1.635,1.635,0,0,0,.2.087,1.053,1.053,0,0,0,.262.057.788.788,0,0,0,.224-.008.563.563,0,0,0,.172-.068.364.364,0,0,0,.113-.121.426.426,0,0,0,.049-.166.387.387,0,0,0-.023-.189.362.362,0,0,0-.1-.153.6.6,0,0,0-.19-.109,1.082,1.082,0,0,0-.279-.058l-.255-.026a.157.157,0,0,1-.049-.011.072.072,0,0,1-.032-.038.184.184,0,0,1-.011-.072.864.864,0,0,1,0-.115q.008-.065.017-.107a.24.24,0,0,1,.025-.064.086.086,0,0,1,.036-.028.123.123,0,0,1,.047,0l.258.025a.818.818,0,0,0,.238-.008.52.52,0,0,0,.181-.072.387.387,0,0,0,.119-.128.436.436,0,0,0,.055-.175.468.468,0,0,0-.011-.145A.331.331,0,0,0,20.046,35a.489.489,0,0,0-.179-.045.692.692,0,0,0-.226.013,1.433,1.433,0,0,0-.2.058c-.058.023-.107.045-.149.066a.2.2,0,0,1-.091.028.072.072,0,0,1-.03-.011.058.058,0,0,1-.021-.034.294.294,0,0,1-.006-.066.866.866,0,0,1,.006-.113c0-.038.008-.07.011-.094a.376.376,0,0,1,.015-.062A.213.213,0,0,1,19.2,34.7a.234.234,0,0,1,.038-.036.607.607,0,0,1,.1-.057,1.04,1.04,0,0,1,.187-.068,1.978,1.978,0,0,1,.253-.045,1.526,1.526,0,0,1,.307,0,1.323,1.323,0,0,1,.375.087.763.763,0,0,1,.264.172.624.624,0,0,1,.149.249.791.791,0,0,1,.028.317.925.925,0,0,1-.058.249.7.7,0,0,1-.121.2.623.623,0,0,1-.181.138.675.675,0,0,1-.238.074l0,.008a.868.868,0,0,1,.272.106.747.747,0,0,1,.194.172.686.686,0,0,1,.111.219.664.664,0,0,1,.021.253" transform="translate(16.716 30.537)" fill="#c81f25"/>
        <path id="Path_21747" data-name="Path 21747" d="M20.748,42.205h0c.117,0,.236.006.354.017a3.61,3.61,0,0,1-.341,7.2,3.187,3.187,0,0,1-.354-.019,3.609,3.609,0,0,1,.341-7.2m0-.888a4.5,4.5,0,0,0-.43,8.973,4.356,4.356,0,0,0,.443.021,4.5,4.5,0,0,0,.426-8.973c-.145-.013-.294-.021-.439-.021" transform="translate(14.395 36.586)" fill="#c81f25"/>
        <path id="Path_21748" data-name="Path 21748" d="M20.221,45.128a.475.475,0,0,1-.041.173c-.019.04-.043.057-.07.055l-.264-.026-.051.534a.075.075,0,0,1-.017.04.128.128,0,0,1-.051.025.581.581,0,0,1-.091.008c-.038,0-.085,0-.143-.008s-.1-.011-.136-.019a.461.461,0,0,1-.089-.026.078.078,0,0,1-.041-.034.057.057,0,0,1-.009-.04l.051-.534-1.128-.111a.156.156,0,0,1-.057-.013.074.074,0,0,1-.04-.04.24.24,0,0,1-.017-.085,1.018,1.018,0,0,1,.006-.143c.006-.049.011-.091.017-.126a.938.938,0,0,1,.021-.1.493.493,0,0,1,.03-.079l.045-.079,1.075-1.527a.091.091,0,0,1,.041-.032.315.315,0,0,1,.079-.017.857.857,0,0,1,.126,0c.049,0,.111.008.183.013s.143.017.2.026a.679.679,0,0,1,.128.03.214.214,0,0,1,.07.038.061.061,0,0,1,.019.045l-.173,1.776.262.026c.025,0,.043.023.058.062a.509.509,0,0,1,.008.189m-.773-1.689h0l-.911,1.28.782.077Z" transform="translate(15.963 38.007)" fill="#c81f25"/>
      </g>
    </g>
  </g>
</svg>
