<svg id="mp-fedramp-authorized" xmlns="http://www.w3.org/2000/svg" xmlns:xlink="http://www.w3.org/1999/xlink" width="114.972" height="114.972" viewBox="0 0 114.972 114.972">
  <defs>
    <clipPath id="clip-path">
      <rect id="Rectangle_5199" data-name="Rectangle 5199" width="114.972" height="114.972" fill="none"/>
    </clipPath>
    <clipPath id="clip-path-3">
      <rect id="Rectangle_5197" data-name="Rectangle 5197" width="31.142" height="65.059" fill="none"/>
    </clipPath>
  </defs>
  <g id="Group_8380" data-name="Group 8380" clip-path="url(#clip-path)">
    <g id="Group_8379" data-name="Group 8379" transform="translate(0 -0.001)">
      <g id="Group_8378" data-name="Group 8378" clip-path="url(#clip-path)">
        <path id="Path_21782" data-name="Path 21782" d="M114.972,57.485A57.486,57.486,0,1,1,57.487,0a57.485,57.485,0,0,1,57.485,57.485" transform="translate(0 0.001)" fill="#d9f1fd"/>
        <path id="Path_21783" data-name="Path 21783" d="M78.736,20.158,78.627,68.34,24.189,75.992,24.3,27.809Z" transform="translate(21.419 17.851)" fill="#229bbe"/>
        <path id="Path_21784" data-name="Path 21784" d="M38.874,32.14l-.109,48.184L7.731,63.441,7.84,15.266l11.9,6.469,7.144,3.884Z" transform="translate(6.846 13.519)" fill="#0a90b7"/>
        <path id="Path_21785" data-name="Path 21785" d="M38.819,35.736,7.789,18.857l54.44-7.651,31.03,16.879Z" transform="translate(6.897 9.923)" fill="#53b1cd"/>
        <g id="Group_8377" data-name="Group 8377" transform="translate(14.577 28.785)" opacity="0.41" style="mix-blend-mode: multiply;isolation: isolate">
          <g id="Group_8376" data-name="Group 8376">
            <g id="Group_8375" data-name="Group 8375" clip-path="url(#clip-path-3)">
              <path id="Path_21786" data-name="Path 21786" d="M38.874,32.14l-.109,48.184L7.731,63.441,7.84,15.266l11.9,6.469,7.144,3.884Z" transform="translate(-7.731 -15.266)" fill="#0a90b7"/>
              <g id="Group_8374" data-name="Group 8374" style="mix-blend-mode: multiply;isolation: isolate">
                <g id="Group_8373" data-name="Group 8373">
                  <g id="Group_8372" data-name="Group 8372" clip-path="url(#clip-path-3)">
                    <path id="Path_21787" data-name="Path 21787" d="M38.874,32.14l-.109,48.184L7.731,63.441,7.84,15.266l11.9,6.469,7.144,3.884Z" transform="translate(-7.731 -15.266)" fill="#0a90b7"/>
                  </g>
                </g>
              </g>
            </g>
          </g>
        </g>
        <path id="Path_21788" data-name="Path 21788" d="M21.259,23.458V35.58l-.515.247-.556-.871-.564.266-.554-.871-.566.268-.564-.873-.556.268-.564-.871-.556.268-.564-.862-.554.266-.566-.871-.5.238.03-12.606Z" transform="translate(12.472 17.333)" fill="#0a90b7"/>
        <path id="Path_21789" data-name="Path 21789" d="M21.244,26.175,14.1,22.291,68.54,14.64l7.035,3.828Z" transform="translate(12.486 12.964)" fill="#0a90b7"/>
        <path id="Path_21790" data-name="Path 21790" d="M62.811,32l-.143.021a9.987,9.987,0,0,0-10.3-4.753,13.367,13.367,0,0,0-7.071,3.4,8.045,8.045,0,0,0-3.89-.413A10.348,10.348,0,0,0,32.7,40.178a8.333,8.333,0,0,0,.158,1.556,8.906,8.906,0,0,0-6.618,8.336,6.381,6.381,0,0,0,7.5,6.462l27.089-3.767a9.005,9.005,0,0,0,.977-.185,9.712,9.712,0,0,0,1-.091A12.165,12.165,0,0,0,73.057,40.821,8.712,8.712,0,0,0,62.811,32" transform="translate(23.234 24.046)" fill="#fff"/>
        <path id="Path_21791" data-name="Path 21791" d="M68.313,32.442a9.2,9.2,0,0,1,1.342,4.88A12.166,12.166,0,0,1,59.409,48.991a9.64,9.64,0,0,1-4.076-.277,13.867,13.867,0,0,0,8.008-12.188,9.979,9.979,0,0,0-4.359-8.487,10.612,10.612,0,0,1,1.156,4.908A13.85,13.85,0,0,1,48.473,46.232a10.483,10.483,0,0,1-7.15-1.459,5.344,5.344,0,0,0,1.614-3.733A3.983,3.983,0,0,0,41.4,37.81a4.025,4.025,0,0,1,.658,2.249c0,2.485-1.927,4.938-5.528,5.44a4.454,4.454,0,0,1-1.446-.032,4.092,4.092,0,0,0,3.171.856A8.958,8.958,0,0,1,30.8,54.048a6.883,6.883,0,0,1-3.775-.494,6.508,6.508,0,0,0,6.026,2.195l29.069-4.041A12.169,12.169,0,0,0,72.363,40.038a8.74,8.74,0,0,0-4.05-7.6" transform="translate(23.928 24.829)" fill="#e4f5fe"/>
        <path id="Path_21792" data-name="Path 21792" d="M12.333,40.062a5.268,5.268,0,0,1-.881-1.627,5.911,5.911,0,0,1-.313-1.919V31.852a3.428,3.428,0,0,1,.313-1.593,1.29,1.29,0,0,1,.881-.718,1.975,1.975,0,0,1,1.307.249,4.1,4.1,0,0,1,1.307,1.067,5.138,5.138,0,0,1,.881,1.589,5.632,5.632,0,0,1,.313,1.878v.1a.174.174,0,0,1-.04.123.074.074,0,0,1-.1.015l-1.058-.473a.222.222,0,0,1-.1-.106.325.325,0,0,1-.04-.155v-.19a2.92,2.92,0,0,0-.324-1.369,1.95,1.95,0,0,0-.847-.888.706.706,0,0,0-.858.025,1.369,1.369,0,0,0-.324,1.041v4.868a2.9,2.9,0,0,0,.324,1.361,1.975,1.975,0,0,0,.858.886.7.7,0,0,0,.847-.023A1.334,1.334,0,0,0,14.81,38.5V38.3c0-.115.045-.151.136-.106l1.058.6a.215.215,0,0,1,.136.2v.126a3.387,3.387,0,0,1-.313,1.578,1.265,1.265,0,0,1-.881.711,2.007,2.007,0,0,1-1.307-.256,3.99,3.99,0,0,1-1.307-1.084" transform="translate(9.864 26.131)" fill="#1a4480"/>
        <path id="Path_21793" data-name="Path 21793" d="M15.733,41.863a4.785,4.785,0,0,1-.875-1.507,5.064,5.064,0,0,1-.307-1.748V38.2a.149.149,0,0,1,.04-.115.078.078,0,0,1,.1-.006l1.024.519a.226.226,0,0,1,.1.1.331.331,0,0,1,.04.155v.317a2.572,2.572,0,0,0,.341,1.284,2.168,2.168,0,0,0,.909.888q.523.266.813.032a1.043,1.043,0,0,0,.29-.852,2.158,2.158,0,0,0-.158-.818,4,4,0,0,0-.451-.8c-.192-.273-.494-.66-.9-1.163q-.693-.846-1.112-1.461a6.418,6.418,0,0,1-.705-1.38,4.712,4.712,0,0,1-.285-1.652,2.128,2.128,0,0,1,.649-1.827,1.6,1.6,0,0,1,1.716.077,4.148,4.148,0,0,1,1.307,1.05,5,5,0,0,1,.881,1.55,5.246,5.246,0,0,1,.313,1.791v.334a.142.142,0,0,1-.04.113.078.078,0,0,1-.1.008l-1.035-.524a.231.231,0,0,1-.1-.106.331.331,0,0,1-.04-.155v-.3a2.694,2.694,0,0,0-.324-1.29,2.047,2.047,0,0,0-.892-.9.69.69,0,0,0-.767-.032,1.036,1.036,0,0,0-.279.85,2.149,2.149,0,0,0,.149.8,3.747,3.747,0,0,0,.449.8q.3.421.9,1.154.817,1.066,1.2,1.627a5.864,5.864,0,0,1,.652,1.275,4.38,4.38,0,0,1,.268,1.554,2.192,2.192,0,0,1-.671,1.872A1.649,1.649,0,0,1,17.04,42.9a4.232,4.232,0,0,1-1.307-1.035" transform="translate(12.885 27.634)" fill="#1a4480"/>
        <path id="Path_21794" data-name="Path 21794" d="M19.137,43.514a5.3,5.3,0,0,1-.886-1.661,6.218,6.218,0,0,1-.313-1.974V35.406a3.683,3.683,0,0,1,.313-1.642A1.326,1.326,0,0,1,19.137,33a1.939,1.939,0,0,1,1.324.243,4.037,4.037,0,0,1,1.335,1.1,5.384,5.384,0,0,1,.892,1.665,6.1,6.1,0,0,1,.319,1.961v4.472a3.649,3.649,0,0,1-.319,1.655,1.342,1.342,0,0,1-.892.76,1.95,1.95,0,0,1-1.335-.249,4.011,4.011,0,0,1-1.324-1.1m2.215-.534a1.543,1.543,0,0,0,.336-1.122v-4.6a3.264,3.264,0,0,0-.336-1.478,2.037,2.037,0,0,0-.892-.952.689.689,0,0,0-.875.057,1.586,1.586,0,0,0-.33,1.141v4.6a3.239,3.239,0,0,0,.33,1.459,1.985,1.985,0,0,0,.875.943.711.711,0,0,0,.892-.047" transform="translate(15.884 29.19)" fill="#1a4480"/>
        <path id="Path_21795" data-name="Path 21795" d="M46.612,51.92,43.25,46.631l-6.482,2.485,8.722-19.4,8.164,2.325Z" transform="translate(32.558 26.316)" fill="#a00a0f"/>
        <path id="Path_21796" data-name="Path 21796" d="M48.834,51.571,52.2,45.338,58.678,46,49.956,29.053l-8.164,4.621Z" transform="translate(37.007 25.727)" fill="#a00a0f"/>
        <path id="Path_21797" data-name="Path 21797" d="M65.92,33.894c0,1.275-1.846,2.547-2.159,3.767-.326,1.261.756,2.907.14,4.059-.624,1.167-2.728,1.422-3.605,2.421s-.835,3.1-1.914,3.873-2.864-.062-4.08.434c-1.175.479-2.189,2.466-3.462,2.645s-2.289-1.523-3.464-1.672c-1.216-.155-3.015,1.18-4.078.715-1.08-.473-1.039-2.585-1.916-3.337s-2.979-.415-3.605-1.407.466-2.93.141-4.1c-.313-1.131-2.159-1.886-2.159-3.16s1.846-2.547,2.159-3.767c.324-1.26-.756-2.907-.141-4.058.626-1.169,2.73-1.424,3.607-2.423s.833-3.1,1.914-3.873c1.063-.766,2.864.062,4.078-.434,1.175-.479,2.189-2.466,3.464-2.645s2.287,1.523,3.464,1.672c1.214.155,3.015-1.18,4.078-.715,1.08.473,1.039,2.585,1.914,3.337s2.981.417,3.605,1.408c.617.977-.466,2.928-.14,4.1.313,1.131,2.159,1.886,2.159,3.16" transform="translate(31.666 18.525)" fill="#c81f25"/>
        <path id="Path_21798" data-name="Path 21798" d="M58.121,32.188a11.629,11.629,0,0,1-9.774,11.147,8.3,8.3,0,0,1-9.773-8.4,11.629,11.629,0,0,1,9.773-11.149,8.3,8.3,0,0,1,9.774,8.4" transform="translate(34.157 20.978)" fill="#eff9fe"/>
        <path id="Path_21799" data-name="Path 21799" d="M55.573,31.609a9.563,9.563,0,0,1-8.04,9.169,6.825,6.825,0,0,1-8.04-6.908,9.567,9.567,0,0,1,8.04-9.171,6.825,6.825,0,0,1,8.04,6.91" transform="translate(34.971 21.8)" fill="#fff"/>
        <path id="Path_21800" data-name="Path 21800" d="M40.461,32.349a.339.339,0,0,1,.028-.471l1.64-1.678a.334.334,0,0,1,.468-.038l2.319,2.3a.312.312,0,0,0,.453-.049l5.581-6.33a.337.337,0,0,1,.468-.064l1.542,1.335a.33.33,0,0,1,0,.468l-7.723,8.762a.313.313,0,0,1-.454.049Z" transform="translate(35.755 22.982)" fill="#c81f25"/>
      </g>
    </g>
  </g>
</svg>
