<svg id="mp-removal" xmlns="http://www.w3.org/2000/svg" xmlns:xlink="http://www.w3.org/1999/xlink" width="114.97" height="114.97" viewBox="0 0 114.97 114.97">
  <defs>
    <clipPath id="clip-path">
      <rect id="Rectangle_5554" data-name="Rectangle 5554" width="114.97" height="114.97" fill="none"/>
    </clipPath>
  </defs>
  <g id="Group_9113" data-name="Group 9113">
    <g id="Group_9112" data-name="Group 9112" clip-path="url(#clip-path)">
      <path id="Path_22352" data-name="Path 22352" d="M114.971,57.485A57.486,57.486,0,1,1,57.486,0a57.486,57.486,0,0,1,57.485,57.485" transform="translate(0)" fill="#d9f1fd"/>
    </g>
  </g>
  <g id="Group_9115" data-name="Group 9115">
    <g id="Group_9114" data-name="Group 9114" clip-path="url(#clip-path)">
      <path id="Path_22353" data-name="Path 22353" d="M47.953,21.553,18.237,71.08A13.951,13.951,0,0,0,30.2,92.207H59.915V14.78a13.838,13.838,0,0,0-11.962,6.773" transform="translate(-1.833 -1.667)" fill="#c81f25"/>
      <path id="Path_22354" data-name="Path 22354" d="M107.143,71.079,77.428,21.552a13.84,13.84,0,0,0-11.963-6.771V92.206H95.18a13.949,13.949,0,0,0,11.962-21.127" transform="translate(-7.384 -1.667)" fill="#a00a0f"/>
      <path id="Path_22355" data-name="Path 22355" d="M56.552,27.157,26.836,76.683a5.215,5.215,0,0,0,4.472,7.9H61.024V24.625a5.169,5.169,0,0,0-4.472,2.532" transform="translate(-2.942 -2.777)" fill="#fff"/>
      <path id="Path_22356" data-name="Path 22356" d="M99.653,76.684,69.937,27.158a5.167,5.167,0,0,0-4.472-2.532V84.582H95.18a5.215,5.215,0,0,0,4.472-7.9" transform="translate(-7.384 -2.778)" fill="#d9f1fd"/>
      <path id="Path_22357" data-name="Path 22357" d="M62.343,39.471a1.411,1.411,0,0,0-1.41,1.445l.741,29.638a1.41,1.41,0,0,0,1.41,1.374h1.871V39.471Z" transform="translate(-6.873 -4.452)" fill="#c81f25"/>
      <path id="Path_22358" data-name="Path 22358" d="M61.807,82.425a3.245,3.245,0,0,0,3.245,3.245V79.18a3.246,3.246,0,0,0-3.245,3.245" transform="translate(-6.971 -8.931)" fill="#c81f25"/>
      <path id="Path_22359" data-name="Path 22359" d="M68.077,39.471H65.465V71.929h1.871a1.409,1.409,0,0,0,1.409-1.374l.742-29.638a1.411,1.411,0,0,0-1.41-1.445" transform="translate(-7.384 -4.452)" fill="#a00a0f"/>
      <path id="Path_22360" data-name="Path 22360" d="M65.465,79.18v6.492a3.246,3.246,0,0,0,0-6.492" transform="translate(-7.384 -8.931)" fill="#a00a0f"/>
    </g>
  </g>
</svg>
