<svg xmlns="http://www.w3.org/2000/svg" width="28.97" height="33.996" viewBox="0 0 28.97 33.996">
  <path id="Path_2600" data-name="Path 2600" d="M141.076,47.864a9.793,9.793,0,0,0-8.282-9.67v-.581a1.562,1.562,0,0,0-1.368-1.576,1.518,1.518,0,0,0-1.666,1.51v.646a9.793,9.793,0,0,0-8.282,9.67c0,16.856-4.686,10.05-4.686,15.072a.809.809,0,0,0,.81.809h27.351a.809.809,0,0,0,.81-.809V62.7C145.762,58.369,141.076,64.291,141.076,47.864Zm-9.8,22.163a5.084,5.084,0,0,0,5.072-4.765H126.205A5.084,5.084,0,0,0,131.277,70.027Z" transform="translate(-116.792 -36.031)" fill="#999"/>
</svg>
