<svg id="omb-circular-graphic" xmlns="http://www.w3.org/2000/svg" width="91.566" height="87.035" viewBox="0 0 91.566 87.035">
  <g id="Circles" transform="translate(2.266)">
    <ellipse id="Ellipse_351" data-name="Ellipse 351" cx="43.517" cy="43.517" rx="43.517" ry="43.517" fill="#d3ebf9"/>
  </g>
  <g id="Icon_Art" data-name="Icon Art" transform="translate(0 5.62)">
    <g id="Group_1981" data-name="Group 1981" transform="translate(0.843 18.538)">
      <rect id="Rectangle_1706" data-name="Rectangle 1706" width="89.881" height="27.807" fill="#fff"/>
    </g>
    <g id="Group_1982" data-name="Group 1982" transform="translate(0 44.66)">
      <rect id="Rectangle_1707" data-name="Rectangle 1707" width="91.566" height="1.685" fill="#dff3fd"/>
    </g>
    <g id="Group_1983" data-name="Group 1983" transform="translate(29.773 16.853)">
      <rect id="Rectangle_1708" data-name="Rectangle 1708" width="32.02" height="28.649" fill="#fff"/>
    </g>
    <g id="Group_1984" data-name="Group 1984" transform="translate(0 16.01)">
      <path id="Path_2805" data-name="Path 2805" d="M1282.768,993.676h-28.93v3.371h28.93V994.8l.843-1.124Z" transform="translate(-1192.044 -991.148)" fill="#dff3fd"/>
      <path id="Path_2806" data-name="Path 2806" d="M1187.674,989.912h-3.932v2.528h-21.908l.843,1.124v2.247h28.93v-3.37h-3.932Z" transform="translate(-1161.833 -989.912)" fill="#dff3fd"/>
      <rect id="Rectangle_1709" data-name="Rectangle 1709" width="3.932" height="2.528" transform="translate(65.725)" fill="#dff3fd"/>
      <rect id="Rectangle_1710" data-name="Rectangle 1710" width="29.773" height="3.371" transform="translate(30.897 2.528)" fill="#dff3fd"/>
    </g>
    <g id="Group_1985" data-name="Group 1985" transform="translate(27.807 14.886)">
      <rect id="Rectangle_1711" data-name="Rectangle 1711" width="35.952" height="4.213" fill="#fff"/>
    </g>
    <g id="Group_2006" data-name="Group 2006" transform="translate(27.807 19.1)">
      <g id="Group_1990" data-name="Group 1990">
        <g id="Group_1989" data-name="Group 1989">
          <g id="Group_1986" data-name="Group 1986" transform="translate(0.562 1.124)">
            <rect id="Rectangle_1712" data-name="Rectangle 1712" width="2.809" height="22.751" fill="#fff"/>
          </g>
          <g id="Group_1987" data-name="Group 1987">
            <rect id="Rectangle_1713" data-name="Rectangle 1713" width="3.932" height="1.124" fill="#fff"/>
          </g>
          <g id="Group_1988" data-name="Group 1988" transform="translate(0 23.875)">
            <rect id="Rectangle_1714" data-name="Rectangle 1714" width="3.932" height="1.124" fill="#dff3fd"/>
          </g>
        </g>
      </g>
      <g id="Group_1995" data-name="Group 1995" transform="translate(10.673)">
        <g id="Group_1994" data-name="Group 1994">
          <g id="Group_1991" data-name="Group 1991" transform="translate(0.562 1.124)">
            <rect id="Rectangle_1715" data-name="Rectangle 1715" width="2.809" height="22.751" fill="#fff"/>
          </g>
          <g id="Group_1992" data-name="Group 1992">
            <rect id="Rectangle_1716" data-name="Rectangle 1716" width="3.932" height="1.124" fill="#fff"/>
          </g>
          <g id="Group_1993" data-name="Group 1993" transform="translate(0 23.875)">
            <rect id="Rectangle_1717" data-name="Rectangle 1717" width="3.932" height="1.124" fill="#fff"/>
          </g>
        </g>
      </g>
      <g id="Group_2000" data-name="Group 2000" transform="translate(21.347)">
        <g id="Group_1999" data-name="Group 1999">
          <g id="Group_1996" data-name="Group 1996" transform="translate(0.562 1.124)">
            <rect id="Rectangle_1718" data-name="Rectangle 1718" width="2.809" height="22.751" fill="#fff"/>
          </g>
          <g id="Group_1997" data-name="Group 1997">
            <rect id="Rectangle_1719" data-name="Rectangle 1719" width="3.932" height="1.124" fill="#fff"/>
          </g>
          <g id="Group_1998" data-name="Group 1998" transform="translate(0 23.875)">
            <rect id="Rectangle_1720" data-name="Rectangle 1720" width="3.932" height="1.124" fill="#fff"/>
          </g>
        </g>
      </g>
      <g id="Group_2005" data-name="Group 2005" transform="translate(32.02)">
        <g id="Group_2004" data-name="Group 2004">
          <g id="Group_2001" data-name="Group 2001" transform="translate(0.562 1.124)">
            <rect id="Rectangle_1721" data-name="Rectangle 1721" width="2.809" height="22.751" fill="#fff"/>
          </g>
          <g id="Group_2002" data-name="Group 2002">
            <rect id="Rectangle_1722" data-name="Rectangle 1722" width="3.932" height="1.124" fill="#fff"/>
          </g>
          <g id="Group_2003" data-name="Group 2003" transform="translate(0 23.875)">
            <rect id="Rectangle_1723" data-name="Rectangle 1723" width="3.932" height="1.124" fill="#dff3fd"/>
          </g>
        </g>
      </g>
    </g>
    <g id="Group_2007" data-name="Group 2007" transform="translate(26.683 46.113)">
      <rect id="Rectangle_1724" data-name="Rectangle 1724" width="38.199" height="3.09" fill="#dff3fd"/>
    </g>
    <g id="Group_2008" data-name="Group 2008" transform="translate(27.807 10.954)">
      <rect id="Rectangle_1725" data-name="Rectangle 1725" width="35.952" height="4.213" fill="#fff"/>
    </g>
    <g id="Group_2009" data-name="Group 2009" transform="translate(26.317 5.618)">
      <path id="Path_2807" data-name="Path 2807" d="M1201.7,982.393l18.779-7.954,18.779,7.954a1.123,1.123,0,0,1-.438,2.158h-36.682A1.123,1.123,0,0,1,1201.7,982.393Z" transform="translate(-1201.017 -974.439)" fill="#fff"/>
    </g>
    <path id="Path_2808" data-name="Path 2808" d="M1191.895,983.892l16.958-7.182,16.958,7.182Zm-22.646,11.235h-3.371v5.337h3.371Zm.281,4.494H1165.6v1.124h3.932Zm6.741-4.494H1172.9v5.337h3.371Zm.281,4.494h-3.932v1.124h3.932Zm6.741-4.494h-3.371v5.337h3.371Zm.281,4.494h-3.932v1.124h3.932Zm6.741-4.494h-3.371v5.337h3.371Zm.281,4.494h-3.932v1.124h3.932Zm40.166-4.494h-3.371v5.337h3.371Zm.281,4.494h-3.932v1.124h3.932Zm6.741-4.494h-3.371v5.337h3.371Zm.281,4.494h-3.932v1.124h3.932Zm6.741-4.494h-3.371v5.337h3.371Zm.281,4.494h-3.932v1.124h3.932Zm6.741-4.494h-3.371v5.337h3.371Zm.281,4.494h-3.932v1.124h3.932Zm-41.57-4.494h-3.37v5.337h3.37Zm.281,4.494h-3.932v1.124h3.932Zm-10.954-4.494h-3.371v5.337h3.371Zm.281,4.494h-3.932v1.124h3.932Zm21.066-4.494h-3.371v5.337h3.371Zm.281,4.494h-3.932v1.124h3.932Zm-52.243,3.932h-3.371v8.146h3.371Zm7.022,0H1172.9v8.146h3.371Zm7.022,0h-3.371v8.146h3.371Zm7.022,0h-3.371v8.146h3.371Zm40.446,0h-3.371v8.146h3.371Zm7.022,0h-3.371v8.146h3.371Zm7.022,0h-3.371v8.146h3.371Zm7.022,0h-3.371v8.146h3.371Zm-51.962,0h-3.371v8.146h3.371Zm21.347,0h-3.371v8.146h3.371Z" transform="translate(-1163.069 -969.567)" fill="#dff3fd"/>
    <g id="Group_2010" data-name="Group 2010" transform="translate(45.502)">
      <rect id="Rectangle_1726" data-name="Rectangle 1726" width="0.562" height="5.898" fill="#fff"/>
    </g>
    <g id="Group_2011" data-name="Group 2011" transform="translate(46.064 0.382)">
      <path id="Path_2809" data-name="Path 2809" d="M1230.418,966.823a4.576,4.576,0,0,1,2.528,0c.622.132,1.384.418,1.966,0v2.809c-.582.417-1.344.132-1.966,0a4.576,4.576,0,0,0-2.528,0Z" transform="translate(-1230.418 -966.644)" fill="#fff"/>
    </g>
    <g id="Group_2014" data-name="Group 2014" transform="translate(44.098 35.72)">
      <g id="Group_2012" data-name="Group 2012" transform="translate(0 1.685)">
        <rect id="Rectangle_1727" data-name="Rectangle 1727" width="3.371" height="8.707" fill="#eef9fe"/>
      </g>
      <g id="Group_2013" data-name="Group 2013">
        <ellipse id="Ellipse_352" data-name="Ellipse 352" cx="1.685" cy="1.685" rx="1.685" ry="1.685" fill="#eef9fe"/>
      </g>
    </g>
    <path id="Path_2810" data-name="Path 2810" d="M1227.037,1013.334a.267.267,0,1,1,.267.267A.268.268,0,0,1,1227.037,1013.334Z" transform="translate(-1183.244 -981.505)" fill="#fff"/>
    <g id="Group_2015" data-name="Group 2015" transform="translate(15.674 28.675)" opacity="0.53" style="mix-blend-mode: multiply;isolation: isolate">
      <path id="Path_2811" data-name="Path 2811" d="M1246.818,1033.661l.376.39,1.263-2.612-1.982.82.5-1.216-.8.391.76-2.32-2.526,1.465.651.518-1.811,2.2.739-2.28-1.435.844,1.606-2.376.713.466.641-2.831-2.378,1.7.7.455-2.064,3.049-.3.178.118.093-1.22,1.805-1.2.787.48-.881.025.013.011-.079,1.723-3.169.747.395.375-2.875-2.209,1.9.741.392-1.214,2.233.243-1.676-2.236,1.883.743.405-4.632,8.4a1.7,1.7,0,0,0-.992,0c-.437.124-.627.285-.69,1.1-.011.143-.021.278-.031.409s-.117.373-.2.357a7.087,7.087,0,0,1-1.995-.556,2.759,2.759,0,0,1-1-.867l.208-.239a8.919,8.919,0,0,0-.9-.822c-.033-.055-.061-.1-.081-.134l-.007-.01.339-.391a9.007,9.007,0,0,0-.975-.88l.24-.4a12.981,12.981,0,0,0-1.7-1.013c-.265-.109-.9-.311-1.566-.539.075-.345.2-.991.322-1.778a11.125,11.125,0,0,0,1.823,1.6,17.435,17.435,0,0,0-.29-1.953,16.48,16.48,0,0,0,2.3,1.3,9.268,9.268,0,0,0-.71-1.923,26.529,26.529,0,0,0,2.7.908,12.37,12.37,0,0,1-1.165-1.76,16.48,16.48,0,0,0,2.988.417s-.5-.533-1.553-1.515l.015-.015a8.213,8.213,0,0,0,3.234-.148s-.627-.439-1.926-1.221v0a8.307,8.307,0,0,0,3.335-.788s-.721-.312-2.187-.828l.019-.032a8.286,8.286,0,0,0,3.247-.948s-.775-.292-2.344-.754c0-.01.011-.021.017-.031a8.268,8.268,0,0,0,3.229-1.46s-.827-.175-2.482-.4a.109.109,0,0,0,.01-.027,8.266,8.266,0,0,0,3.317-2.065s-.9-.056-2.677-.031a.143.143,0,0,0,.007-.025,8.393,8.393,0,0,0,3.389-2.525s-.962.036-2.848.254l0-.005a8.441,8.441,0,0,0,3.536-2.594s-1,.04-2.967.27c4.43-1.728,6-3.846,6-3.846s-1.388.16-4.108.78c3.877-1.73,5.251-3.649,5.251-3.649s-1.328.174-3.937.805c1.688-1.386,5.291-4.1,5.913-5.372-3.889.656-15.617,3.157-18.606,11.619-.456,1.294,2.414,1.84,1.27,4.622-.719,1.746-2.409,2.4-4.161,2.713v-1.315h-2.666c-1.007-1.709-1.687-5.688-2.005-7.722a.767.767,0,0,1,.41-.793c-.371-.844-2.775-1.747-4.406-2.074s-1.753.434-2.241.678c-1.712.027-2.854.462-2.527,2.23.488-1.061,1.711.488,2.418.488.745,0,1.525-.081,1.385.68-.217,1.186-3.112,4.135-3.8,5.871a4.359,4.359,0,0,0-.205.643h-2.255v1.315c-1.754-.312-3.443-.966-4.161-2.713-1.146-2.782,1.724-3.329,1.268-4.622-2.989-8.462-14.718-10.963-18.606-11.619.62,1.269,4.225,3.986,5.912,5.372-2.608-.631-3.936-.805-3.936-.805s1.374,1.919,5.251,3.649c-2.721-.62-4.108-.78-4.108-.78s1.565,2.118,6,3.846c-1.964-.23-2.966-.27-2.966-.27a8.442,8.442,0,0,0,3.536,2.594l0,.005c-1.887-.218-2.848-.254-2.848-.254a8.386,8.386,0,0,0,3.388,2.525c0,.009.005.017.007.025-1.781-.025-2.676.031-2.676.031a8.259,8.259,0,0,0,3.317,2.065c0,.01.006.019.009.027-1.654.228-2.481.4-2.481.4a8.268,8.268,0,0,0,3.229,1.46c0,.01.01.021.016.031-1.569.462-2.344.754-2.344.754a8.287,8.287,0,0,0,3.247.948l.019.032c-1.466.516-2.188.828-2.188.828a8.317,8.317,0,0,0,3.335.788v0c-1.3.782-1.924,1.221-1.924,1.221a8.21,8.21,0,0,0,3.234.148l.015.015c-1.057.983-1.553,1.515-1.553,1.515a16.493,16.493,0,0,0,2.989-.417,12.542,12.542,0,0,1-1.166,1.76,26.529,26.529,0,0,0,2.7-.908,9.3,9.3,0,0,0-.711,1.923,16.513,16.513,0,0,0,2.305-1.3,17.369,17.369,0,0,0-.29,1.953,11.171,11.171,0,0,0,1.823-1.6c.119.786.248,1.433.323,1.778-.664.228-1.3.429-1.566.539a13.039,13.039,0,0,0-1.7,1.013l.239.4a9.142,9.142,0,0,0-.974.88l.338.391-.007.01c-.021.031-.049.079-.081.134a8.98,8.98,0,0,0-.9.822l.209.239a2.768,2.768,0,0,1-1,.867,7.094,7.094,0,0,1-2,.556c-.081.016-.188-.234-.2-.357s-.019-.266-.031-.409c-.064-.819-.252-.98-.69-1.1-.532-.151-1.337-.116-1.54.566a7.221,7.221,0,0,0-.172.738,5.591,5.591,0,0,0-1.353.267c-.21-.112-.414-.228-.615-.353a.223.223,0,0,1-.119-.289c.019-.072.04-.147.064-.224a.467.467,0,0,1,.275-.252,2.744,2.744,0,0,0,1.266-.913,4.592,4.592,0,0,0,.355-2.373c-.355.574-.851.765-1.455,1.7a4.1,4.1,0,0,0-.7,1.828c-.046.219-.111.275-.511-.042s-.568-.451-.837-.692c-.047-.06-.293-.309-.269-.413s.048-.417.1-.6a.446.446,0,0,1,.286-.318,3.187,3.187,0,0,0,1.5-1.048,4.266,4.266,0,0,0,.39-2.6,16.071,16.071,0,0,1-1.6,1.866,4.64,4.64,0,0,0-.949,2.4c-.023.091-.1.105-.21-.01a16.392,16.392,0,0,1-1.214-1.439.5.5,0,0,1-.1-.38c.04-.162.049-.387.114-.6a.367.367,0,0,1,.244-.239,3.706,3.706,0,0,0,1.785-1.224,4.169,4.169,0,0,0,.448-2.987c-.292.827-1.1,1.38-1.832,2.14a6.023,6.023,0,0,0-1.009,2.544c-.03.108-.062.182-.135.074-.34-.493-.651-.993-.936-1.486a.547.547,0,0,1-.085-.4,9.138,9.138,0,0,1,.2-.944.446.446,0,0,1,.224-.223,3.746,3.746,0,0,0,1.8-1.23,5.383,5.383,0,0,0,.447-2.987c-.31.769-1.188,1.3-1.831,2.14a7.483,7.483,0,0,0-1.048,2.692c-.085.329-.142.16-.245-.039-.252-.485-.478-.954-.682-1.4a.777.777,0,0,1-.1-.547,6.218,6.218,0,0,1,.192-.787c.062-.174.181-.3.607-.545a4.078,4.078,0,0,0,1.576-1.384,5.3,5.3,0,0,0,.209-3.233c-.207.717-1.348,1.412-1.824,2.358a5.7,5.7,0,0,0-.435,1.43,4.057,4.057,0,0,1-.352,1.1,4.078,4.078,0,0,0-.221.559c-.03.1-.075.086-.128-.042-.143-.338-.329-.758-.381-.922a2.242,2.242,0,0,1-.077-.585,7.6,7.6,0,0,0,.073-1.628c-.433-1.714-1.206-2.376-1.063-3.3a4.026,4.026,0,0,0-.852,3.753,4.31,4.31,0,0,0,1.465,1.822.826.826,0,0,1,.266.366c.25.63.563,1.46.954,2.295.029.062,0,.1-.048.049-.713-.674-1.695-1.6-2.04-1.865-.841-.643-2.672-1.069-2.986-1.6a4.07,4.07,0,0,0,1.486,2.795,3.318,3.318,0,0,0,2.1.352,1.434,1.434,0,0,1,.864.167,11.5,11.5,0,0,1,1.1,1.026,3.791,3.791,0,0,1,.25.379c.085.155.172.311.261.467.072.126.083.181-.1.132-.125-.032-.625-.193-.775-.252-.437-.171-1.049-.394-1.608-.552-1.02-.287-2.67-.256-2.892-.532.075.921,1.433,1.807,2.452,2.093a3.315,3.315,0,0,0,2.077-.446.536.536,0,0,1,.455-.09c.214.054.375.145.533.189a.568.568,0,0,1,.366.306c.3.474.62.946.969,1.409a.06.06,0,0,1-.066.1,26.491,26.491,0,0,0-3.441-.7c-1.053-.1-2.623.405-3.084-.038.405,1.218,1.824,1.623,2.931,1.652a3.429,3.429,0,0,0,1.847-.724.561.561,0,0,1,.382-.1,4.273,4.273,0,0,1,2.049.594c.128.152.26.3.394.451.067.072.053.178-.021.163a14.675,14.675,0,0,0-2.728-.06c-1,.1-2.159.882-2.669.745a3.681,3.681,0,0,0,2.736.8,3.037,3.037,0,0,0,1.61-1.019.452.452,0,0,1,.327-.187,3.08,3.08,0,0,1,1.3.255,3.525,3.525,0,0,1,.477.34l.108.093c.045.039.042.1-.008.1a5.194,5.194,0,0,0-2.507.469c-.84.322-1.681,1.289-1.985,1.334a3.055,3.055,0,0,0,2.563-.084,3.41,3.41,0,0,0,1.2-1.17c.09-.136.243-.311.377-.312a2.233,2.233,0,0,1,1.131.293,11.63,11.63,0,0,0,1.195.782c.008,0,.013.011.02.016a.946.946,0,0,0-.1.073,5.7,5.7,0,0,0-.589.02c-.128.013-.167.009-.243-.059-.049-.046-.106-.1-.132-.122-.048-.047-.034-.164-.034-.219a.368.368,0,1,0-.368.369.378.378,0,0,0,.112-.019.139.139,0,0,1,.133.026c.059.049.114.082-.017.113a3.469,3.469,0,0,0-.426.122.226.226,0,0,1-.25-.055.428.428,0,0,0-.321-.115.442.442,0,1,0,.425.622.365.365,0,0,1,.187-.232,3.673,3.673,0,0,1,.882-.2c.067-.007.118.055.067.094-.09.068-.186.138-.281.2a.25.25,0,0,1-.243.026.223.223,0,0,0-.076-.012.3.3,0,0,0,0,.591.3.3,0,0,0,.289-.236c.01-.054.033-.107.144-.18.156-.1.308-.218.435-.319l.032-.023a.731.731,0,0,0,.03.415,1.642,1.642,0,0,0,.97.927c-.165.214-.247.394-.179.5a1.362,1.362,0,0,0,1.27.586,1.1,1.1,0,0,0,.133.278c.338.462,1.164.293,1.768-.262a5.379,5.379,0,0,1,1.312,2.738c.032.395-.028,1.149.2,1.4a.48.48,0,0,0,.74-.415c.126-1.408-.887-2.94-1.912-4.115a2.1,2.1,0,0,0,.278-1.095,6.913,6.913,0,0,1,2.884-.478,14.663,14.663,0,0,0,1.979-.2l.23.231a18.421,18.421,0,0,0,5.561-2.574,9.575,9.575,0,0,0,1.043.732,6.216,6.216,0,0,0,.355,2.064,13.251,13.251,0,0,0-2.242,2.051,8.188,8.188,0,0,0-2.145,4.05,6.706,6.706,0,0,0,2.222-1.213,7.309,7.309,0,0,0-.752,3.158,6.865,6.865,0,0,0,2.118-1.757,7.048,7.048,0,0,0-.1,2.936,6.8,6.8,0,0,0,1.738-2.055,7.062,7.062,0,0,0,.423,2.923,6.733,6.733,0,0,0,1.323-2.288,1.469,1.469,0,1,0,1.828,0,6.727,6.727,0,0,0,1.323,2.288,7.065,7.065,0,0,0,.423-2.923,6.8,6.8,0,0,0,1.738,2.055,7.048,7.048,0,0,0-.1-2.936,6.885,6.885,0,0,0,2.118,1.757,7.321,7.321,0,0,0-.752-3.158,6.7,6.7,0,0,0,2.222,1.213,8.189,8.189,0,0,0-2.145-4.05,13.261,13.261,0,0,0-2.243-2.051,6.188,6.188,0,0,0,.355-2.064,9.518,9.518,0,0,0,1.041-.733,18.4,18.4,0,0,0,5.564,2.576l.229-.231a14.67,14.67,0,0,0,1.979.2,6.657,6.657,0,0,1,2.591.381l-.83.806-.706-.076-1.068,1.024-1.066,1.025,1.069.112-.19.183-.7.669-.774.556.514.13-.148.145.158.015-.049.048-1.061,1.03.933.093-.692.962.9-.068.014.2.177-.171.253,1.006.788-1.094.165.427.688-1.251.4,1,.7-1.3.7-1.3-.236-.592.727-1.1-.056-.187.115-.213.42-.306c.572.409,1.25.494,1.547.085a1.061,1.061,0,0,0,.134-.278,1.36,1.36,0,0,0,1.27-.586c.068-.1-.013-.284-.178-.5a1.645,1.645,0,0,0,.969-.927.69.69,0,0,0,0-.511l6.667-4.847.487.671,1.6-2.416-1.9.5,2.014-1.634.539.646,1.45-2.519-1.481.5Zm-15.378,12.761-.016-.244.641-.622-.146.265Zm.636-.032-.048.044.218-.4.031-.037c.009.026.016.05.025.075Zm12.391-13.956.492.453-.827.87.143-.3-.993.415Zm-1.341,3.432.112.112-1.381,1.333-4.917,4.564,5.8-6.092.283.292Zm-4.574,3.747,1.442-1.75,2.456-2.383.02.021Zm3.341-6.779.238.187-.682.855.064-.231-.3.195Zm-.7,1.993,1.248-1.564.508.4-.439.533-.925.388.328.337-1.11,1.346Zm-.5,1.574-.985,1.194-2.692,2.613,1.087-1.508,2.107-2.643Zm-1.136-.809-2.933,4.333-.128.163,2.617-4.811Zm-5.078,7.021a.792.792,0,0,0-.186-.285l4.641-8.415.365.2-4.207,7.734Zm.41.833c-.054-.007-.107-.013-.163-.018l.491-.724.49-.68,1.761-1.709Zm1.611.49a.147.147,0,0,0-.016-.013l6.432-5.221.272.375Zm8.867-7.728-2.677,2.173,0,0h0l-6.5,5.275,7.555-7.172.363.368.6-1.28.606-.574.3.306-.778.261Zm-.915-2.081.329.335-1.241.535.049-.1,1.66-1.74.47.433Zm.249-1.976.667-.811.38.3Zm1.273,1.328.2-.492.162.166-.34.316Z" transform="translate(-1185.171 -1008.769)" fill="#90cef1"/>
      <path id="Path_2812" data-name="Path 2812" d="M1238.363,1052.758a8.3,8.3,0,0,1-1.453,1.013v-8.718h1.453Z" transform="translate(-1202.16 -1020.684)" fill="#90cef1"/>
      <path id="Path_2813" data-name="Path 2813" d="M1241.908,1047.425a7.212,7.212,0,0,1-1.008,3.891v-6.263h1.008Z" transform="translate(-1203.471 -1020.684)" fill="#90cef1"/>
      <path id="Path_2814" data-name="Path 2814" d="M1237.133,1038.928l.435-1.339.436,1.339h1.408l-1.14.827.435,1.339-1.139-.827-1.138.827.435-1.339-1.139-.827Z" transform="translate(-1201.771 -1018.233)" fill="#90cef1"/>
      <path id="Path_2815" data-name="Path 2815" d="M1234.371,1054.367c-.545.234-1.048.418-1.453.586v-9.9h1.453Z" transform="translate(-1200.849 -1020.684)" fill="#90cef1"/>
      <path id="Path_2816" data-name="Path 2816" d="M1230.665,1038.928l.435-1.339.436,1.339h1.408l-1.139.827.434,1.339-1.139-.827-1.138.827.435-1.339-1.14-.827Z" transform="translate(-1199.647 -1018.233)" fill="#90cef1"/>
      <path id="Path_2817" data-name="Path 2817" d="M1228.924,1045.053h1.454v9.9c-.4-.167-.908-.353-1.454-.586Z" transform="translate(-1199.538 -1020.684)" fill="#90cef1"/>
      <path id="Path_2818" data-name="Path 2818" d="M1226.386,1053.773a8.254,8.254,0,0,1-1.454-1.014v-7.706h1.454Z" transform="translate(-1198.227 -1020.684)" fill="#90cef1"/>
      <path id="Path_2819" data-name="Path 2819" d="M1224.2,1038.928l.436-1.339.435,1.339h1.408l-1.139.827.434,1.339-1.137-.827-1.139.827.434-1.339-1.139-.827Z" transform="translate(-1197.524 -1018.233)" fill="#90cef1"/>
      <path id="Path_2820" data-name="Path 2820" d="M1221.6,1045.053h1.009v6.266a7.2,7.2,0,0,1-1.009-3.894Z" transform="translate(-1197.134 -1020.684)" fill="#90cef1"/>
    </g>
    <path id="Path_2821" data-name="Path 2821" d="M1245.932,1034.436l.376.391,1.263-2.613-1.982.821.5-1.216-.8.39.76-2.319-2.526,1.464.651.519-1.811,2.2.739-2.279-1.435.844,1.606-2.376.713.465.642-2.83-2.378,1.7.7.454-2.064,3.05-.3.178.118.093-1.22,1.8-1.2.788.479-.882.025.013.011-.078,1.724-3.17.747.4.375-2.876-2.209,1.9.741.393-1.214,2.233.242-1.677-2.236,1.883.743.406-4.632,8.395a1.712,1.712,0,0,0-.993,0c-.437.124-.627.285-.69,1.1-.011.144-.021.278-.031.409s-.118.372-.2.356a7.065,7.065,0,0,1-1.995-.555,2.773,2.773,0,0,1-1-.868l.208-.239a8.868,8.868,0,0,0-.9-.821c-.033-.056-.06-.1-.081-.134l-.007-.01.338-.39a9.014,9.014,0,0,0-.975-.88l.24-.4a13.053,13.053,0,0,0-1.7-1.013c-.265-.109-.9-.31-1.566-.538.074-.346.2-.991.322-1.778a11.111,11.111,0,0,0,1.823,1.6,17.477,17.477,0,0,0-.289-1.953,16.48,16.48,0,0,0,2.3,1.3,9.285,9.285,0,0,0-.711-1.923,26.376,26.376,0,0,0,2.7.908,12.359,12.359,0,0,1-1.165-1.759,16.543,16.543,0,0,0,2.988.416s-.5-.532-1.553-1.515l.015-.015a8.2,8.2,0,0,0,3.234-.148s-.627-.439-1.926-1.221h0a8.305,8.305,0,0,0,3.335-.788s-.721-.312-2.187-.829l.02-.032a8.267,8.267,0,0,0,3.247-.948s-.775-.291-2.344-.753c0-.01.011-.021.017-.031a8.275,8.275,0,0,0,3.229-1.46s-.827-.176-2.482-.4a.129.129,0,0,0,.01-.027,8.267,8.267,0,0,0,3.317-2.065s-.9-.056-2.677-.031a.248.248,0,0,0,.007-.025,8.394,8.394,0,0,0,3.389-2.526s-.962.036-2.848.254l0,0a8.441,8.441,0,0,0,3.536-2.594s-1,.041-2.967.27c4.429-1.728,6-3.845,6-3.845s-1.388.159-4.109.779c3.877-1.73,5.251-3.649,5.251-3.649s-1.328.175-3.937.806c1.688-1.387,5.291-4.1,5.913-5.372-3.889.656-15.617,3.157-18.606,11.619-.456,1.294,2.414,1.841,1.269,4.622-.719,1.747-2.408,2.4-4.161,2.713v-1.315h-2.666c-1.007-1.709-1.687-5.688-2.005-7.722a.767.767,0,0,1,.41-.793c-.371-.844-2.775-1.747-4.406-2.074s-1.753.434-2.241.678c-1.712.028-2.854.462-2.527,2.23.488-1.061,1.711.488,2.418.488.745,0,1.525-.081,1.386.68-.217,1.185-3.112,4.134-3.8,5.871a4.381,4.381,0,0,0-.2.643h-2.255v1.315c-1.754-.312-3.443-.967-4.161-2.713-1.146-2.781,1.724-3.328,1.268-4.622-2.99-8.461-14.718-10.963-18.606-11.619.621,1.269,4.225,3.985,5.912,5.372-2.608-.631-3.936-.806-3.936-.806s1.374,1.919,5.251,3.649c-2.721-.62-4.108-.779-4.108-.779s1.565,2.117,6,3.845c-1.964-.229-2.967-.27-2.967-.27a8.44,8.44,0,0,0,3.536,2.594l0,0c-1.887-.218-2.848-.254-2.848-.254a8.389,8.389,0,0,0,3.388,2.526c0,.008.005.017.007.025-1.781-.025-2.676.031-2.676.031a8.259,8.259,0,0,0,3.316,2.065c0,.01.006.019.009.027-1.654.228-2.481.4-2.481.4a8.278,8.278,0,0,0,3.229,1.46c0,.01.01.021.016.031-1.569.462-2.344.753-2.344.753a8.268,8.268,0,0,0,3.247.948l.02.032c-1.466.516-2.188.829-2.188.829a8.316,8.316,0,0,0,3.335.788h0c-1.3.782-1.924,1.221-1.924,1.221a8.2,8.2,0,0,0,3.234.148l.015.015c-1.057.984-1.553,1.515-1.553,1.515a16.551,16.551,0,0,0,2.989-.416,12.5,12.5,0,0,1-1.166,1.759,26.386,26.386,0,0,0,2.7-.908,9.318,9.318,0,0,0-.711,1.923,16.52,16.52,0,0,0,2.305-1.3,17.378,17.378,0,0,0-.29,1.953,11.162,11.162,0,0,0,1.823-1.6c.119.786.248,1.432.322,1.778-.664.228-1.3.429-1.566.538a13.1,13.1,0,0,0-1.7,1.013l.238.4a9.15,9.15,0,0,0-.974.88l.338.39-.007.01c-.021.031-.049.078-.081.134a8.939,8.939,0,0,0-.9.821l.209.239a2.78,2.78,0,0,1-1,.868,7.074,7.074,0,0,1-2,.555c-.08.016-.187-.234-.2-.356s-.02-.265-.031-.409c-.064-.818-.252-.98-.69-1.1-.532-.151-1.336-.116-1.539.567a7.228,7.228,0,0,0-.172.737,5.6,5.6,0,0,0-1.353.267c-.209-.113-.414-.228-.615-.353a.223.223,0,0,1-.119-.289c.02-.072.04-.146.064-.225a.465.465,0,0,1,.275-.252,2.753,2.753,0,0,0,1.266-.914,4.591,4.591,0,0,0,.355-2.373c-.355.573-.851.765-1.455,1.7a4.1,4.1,0,0,0-.7,1.828c-.046.22-.111.275-.511-.042s-.568-.451-.837-.692c-.047-.06-.293-.31-.269-.414s.048-.416.1-.6a.446.446,0,0,1,.286-.319,3.178,3.178,0,0,0,1.5-1.048,4.266,4.266,0,0,0,.39-2.6,16.126,16.126,0,0,1-1.6,1.867,4.634,4.634,0,0,0-.949,2.4c-.023.091-.1.105-.21-.009a16.457,16.457,0,0,1-1.214-1.439.5.5,0,0,1-.1-.38c.04-.163.049-.387.114-.6a.366.366,0,0,1,.245-.239,3.7,3.7,0,0,0,1.785-1.224,4.167,4.167,0,0,0,.448-2.986c-.292.827-1.1,1.38-1.832,2.14a6.024,6.024,0,0,0-1.009,2.544c-.03.107-.062.182-.135.074-.34-.493-.651-.993-.936-1.486a.549.549,0,0,1-.085-.4,9.065,9.065,0,0,1,.2-.944.444.444,0,0,1,.224-.223,3.744,3.744,0,0,0,1.8-1.231,5.381,5.381,0,0,0,.447-2.987c-.31.771-1.187,1.3-1.831,2.141a7.49,7.49,0,0,0-1.048,2.692c-.085.328-.142.159-.245-.04-.252-.485-.478-.954-.682-1.4a.776.776,0,0,1-.1-.547,6.163,6.163,0,0,1,.192-.786c.062-.174.181-.3.607-.545a4.073,4.073,0,0,0,1.576-1.384,5.3,5.3,0,0,0,.209-3.232c-.208.718-1.348,1.412-1.824,2.359a5.714,5.714,0,0,0-.435,1.429,4.07,4.07,0,0,1-.352,1.1,4.071,4.071,0,0,0-.221.558c-.03.1-.075.087-.128-.042-.143-.338-.329-.758-.381-.921a2.249,2.249,0,0,1-.077-.586,7.6,7.6,0,0,0,.073-1.627c-.433-1.714-1.206-2.376-1.063-3.3a4.026,4.026,0,0,0-.852,3.752,4.3,4.3,0,0,0,1.465,1.822.834.834,0,0,1,.267.367c.25.63.563,1.46.954,2.3.029.062,0,.1-.048.048-.713-.674-1.695-1.6-2.04-1.865-.841-.643-2.672-1.069-2.986-1.6a4.068,4.068,0,0,0,1.486,2.794,3.315,3.315,0,0,0,2.1.351,1.441,1.441,0,0,1,.864.168,11.486,11.486,0,0,1,1.1,1.026,3.738,3.738,0,0,1,.25.38c.084.154.172.31.261.466.072.126.083.181-.1.132-.125-.032-.625-.194-.775-.253-.437-.171-1.049-.393-1.608-.551-1.02-.286-2.67-.255-2.892-.532.075.921,1.433,1.806,2.452,2.093a3.312,3.312,0,0,0,2.077-.446.538.538,0,0,1,.455-.09c.214.054.375.146.533.189a.567.567,0,0,1,.366.306c.3.474.62.945.969,1.409a.06.06,0,0,1-.066.1,26.7,26.7,0,0,0-3.441-.7c-1.053-.1-2.624.406-3.084-.037.405,1.217,1.824,1.622,2.931,1.651a3.421,3.421,0,0,0,1.847-.724.568.568,0,0,1,.382-.1,4.263,4.263,0,0,1,2.049.594c.128.151.26.3.394.451.067.072.053.177-.021.162a14.762,14.762,0,0,0-2.728-.06c-1,.1-2.159.882-2.669.745a3.681,3.681,0,0,0,2.736.8,3.037,3.037,0,0,0,1.611-1.018.45.45,0,0,1,.327-.187,3.077,3.077,0,0,1,1.3.254,3.613,3.613,0,0,1,.477.34l.108.093c.045.04.042.1-.008.1a5.192,5.192,0,0,0-2.507.468c-.84.323-1.681,1.289-1.985,1.334a3.051,3.051,0,0,0,2.563-.085,3.4,3.4,0,0,0,1.2-1.17c.09-.135.243-.311.377-.312a2.249,2.249,0,0,1,1.131.293,11.378,11.378,0,0,0,1.195.782c.008.005.014.011.02.016a.948.948,0,0,0-.1.074,5.7,5.7,0,0,0-.59.02c-.127.013-.167.009-.243-.058l-.131-.122c-.048-.047-.034-.165-.034-.22a.368.368,0,1,0-.368.37.353.353,0,0,0,.112-.02.142.142,0,0,1,.133.026c.059.048.114.081-.017.112a3.465,3.465,0,0,0-.426.122.225.225,0,0,1-.25-.055.432.432,0,0,0-.32-.116.443.443,0,1,0,.424.623c.039-.088.076-.192.187-.232a3.634,3.634,0,0,1,.882-.2c.067-.006.118.056.067.095-.09.068-.186.138-.281.2a.25.25,0,0,1-.243.026.24.24,0,0,0-.077-.011.3.3,0,0,0,0,.59.3.3,0,0,0,.29-.236c.01-.055.033-.107.144-.181.157-.1.308-.218.435-.319l.032-.022a.731.731,0,0,0,.03.415,1.639,1.639,0,0,0,.97.927c-.165.214-.247.394-.179.5a1.361,1.361,0,0,0,1.27.586,1.108,1.108,0,0,0,.134.279c.338.462,1.164.293,1.767-.263a5.378,5.378,0,0,1,1.312,2.738c.032.4-.028,1.148.2,1.4a.48.48,0,0,0,.74-.415c.126-1.408-.887-2.94-1.912-4.114a2.105,2.105,0,0,0,.279-1.1,6.905,6.905,0,0,1,2.884-.477,14.8,14.8,0,0,0,1.979-.2l.23.231a18.459,18.459,0,0,0,5.561-2.574,9.691,9.691,0,0,0,1.043.732,6.208,6.208,0,0,0,.354,2.063,13.3,13.3,0,0,0-2.243,2.051,8.192,8.192,0,0,0-2.145,4.051,6.706,6.706,0,0,0,2.222-1.213,7.305,7.305,0,0,0-.752,3.157,6.851,6.851,0,0,0,2.118-1.758,7.056,7.056,0,0,0-.1,2.936,6.8,6.8,0,0,0,1.738-2.056,7.059,7.059,0,0,0,.423,2.923,6.729,6.729,0,0,0,1.323-2.288,1.469,1.469,0,1,0,1.828,0,6.724,6.724,0,0,0,1.323,2.288,7.06,7.06,0,0,0,.423-2.923,6.8,6.8,0,0,0,1.738,2.056,7.052,7.052,0,0,0-.1-2.936,6.873,6.873,0,0,0,2.118,1.758,7.317,7.317,0,0,0-.752-3.157,6.7,6.7,0,0,0,2.222,1.213,8.193,8.193,0,0,0-2.145-4.051,13.287,13.287,0,0,0-2.243-2.051,6.186,6.186,0,0,0,.355-2.063,9.587,9.587,0,0,0,1.041-.734,18.426,18.426,0,0,0,5.564,2.576l.229-.231a14.809,14.809,0,0,0,1.979.2,6.625,6.625,0,0,1,2.59.381l-.829.805-.707-.077-1.068,1.024-1.066,1.025,1.069.113-.19.182-.7.669-.774.557.514.13-.148.144.158.015-.049.049-1.061,1.03.933.093-.692.962.9-.068.014.2.177-.171.253,1.006.788-1.094.164.427.688-1.251.4,1,.7-1.3.7-1.3-.236-.592.727-1.1-.056-.187.115-.213.42-.306c.572.408,1.25.493,1.547.085a1.079,1.079,0,0,0,.134-.279,1.359,1.359,0,0,0,1.27-.586c.068-.1-.013-.285-.178-.5a1.643,1.643,0,0,0,.969-.927.692.692,0,0,0,0-.512l6.667-4.846.487.671,1.6-2.416-1.9.5,2.013-1.633.539.646,1.45-2.52-1.481.5Zm-15.378,12.762-.016-.244.641-.621-.146.265Zm.636-.032-.048.044.218-.4.031-.038c.009.026.016.051.025.075Zm12.391-13.957.492.454-.827.87.143-.3-.993.415Zm-1.341,3.433.112.112-1.382,1.333-4.917,4.563,5.8-6.092.284.292Zm-4.574,3.746,1.442-1.75,2.456-2.383.02.021Zm3.341-6.779.238.187-.682.854.064-.231-.3.2Zm-.7,1.994,1.248-1.564.508.4-.439.533-.925.387.328.337-1.11,1.346Zm-.5,1.574-.985,1.195-2.692,2.612,1.087-1.507,2.108-2.643Zm-1.137-.809-2.933,4.333-.128.162,2.617-4.81Zm-5.077,7.021a.8.8,0,0,0-.186-.284l4.642-8.415.365.2-4.207,7.734Zm.41.834c-.054-.007-.107-.013-.163-.018l.491-.725.49-.68,1.761-1.709Zm1.611.49a.078.078,0,0,0-.016-.013l6.432-5.221.272.374Zm8.867-7.728-2.677,2.173,0,0h0l-6.5,5.275,7.555-7.173.363.368.6-1.279.607-.575.3.306-.778.26Zm-.915-2.081.329.335-1.241.535.049-.1,1.66-1.74.47.434Zm.249-1.977.667-.81.38.3Zm1.273,1.329.2-.492.162.166-.341.316Z" transform="translate(-1169.206 -980.349)" fill="#1a4480"/>
    <path id="Path_2822" data-name="Path 2822" d="M1218.52,1035.587v8.32a9.836,9.836,0,0,0,1.233,4.767c1.55,2.816,4.033,4.092,7.32,5.353,3.286-1.261,5.769-2.537,7.32-5.353a9.837,9.837,0,0,0,1.232-4.767v-8.32Z" transform="translate(-1180.447 -988.9)" fill="#fff"/>
    <g id="Group_2016" data-name="Group 2016" transform="translate(39.548 48.551)">
      <path id="Path_2823" data-name="Path 2823" d="M1237.478,1053.532a8.278,8.278,0,0,1-1.454,1.014v-8.719h1.454Z" transform="translate(-1225.743 -1040.814)" fill="#cc1d1d"/>
      <path id="Path_2824" data-name="Path 2824" d="M1241.023,1048.2a7.208,7.208,0,0,1-1.008,3.891v-6.263h1.008Z" transform="translate(-1227.054 -1040.814)" fill="#cc1d1d"/>
      <path id="Path_2825" data-name="Path 2825" d="M1236.247,1039.7l.435-1.339.436,1.339h1.408l-1.139.827.435,1.339-1.139-.827-1.138.827.435-1.339-1.139-.827Z" transform="translate(-1225.354 -1038.363)" fill="#cc1d1d"/>
      <path id="Path_2826" data-name="Path 2826" d="M1233.485,1055.142c-.545.234-1.048.418-1.453.586v-9.9h1.453Z" transform="translate(-1224.432 -1040.814)" fill="#cc1d1d"/>
      <path id="Path_2827" data-name="Path 2827" d="M1229.779,1039.7l.435-1.339.436,1.339h1.408l-1.139.827.434,1.339-1.139-.827-1.138.827.435-1.339-1.139-.827Z" transform="translate(-1223.23 -1038.363)" fill="#cc1d1d"/>
      <path id="Path_2828" data-name="Path 2828" d="M1228.038,1045.827h1.454v9.9c-.4-.167-.908-.353-1.454-.585Z" transform="translate(-1223.121 -1040.814)" fill="#cc1d1d"/>
      <path id="Path_2829" data-name="Path 2829" d="M1225.5,1054.547a8.3,8.3,0,0,1-1.454-1.013v-7.707h1.454Z" transform="translate(-1221.81 -1040.814)" fill="#cc1d1d"/>
      <path id="Path_2830" data-name="Path 2830" d="M1223.312,1039.7l.436-1.339.435,1.339h1.408l-1.139.827.434,1.339-1.138-.827-1.139.827.434-1.339-1.139-.827Z" transform="translate(-1221.107 -1038.363)" fill="#cc1d1d"/>
      <path id="Path_2831" data-name="Path 2831" d="M1220.717,1045.827h1.009v6.266a7.206,7.206,0,0,1-1.009-3.895Z" transform="translate(-1220.717 -1040.814)" fill="#cc1d1d"/>
    </g>
  </g>
</svg>
