<svg xmlns="http://www.w3.org/2000/svg" xmlns:xlink="http://www.w3.org/1999/xlink" viewBox="0 0 500 400"><defs><style>.cls-1,.cls-18,.cls-20,.cls-22,.cls-25,.cls-26,.cls-27,.cls-28{fill:none;}.cls-2{fill:#fff;}.cls-3{isolation:isolate;}.cls-30,.cls-31,.cls-4,.cls-7{fill:#f2f2f2;}.cls-5{clip-path:url(#clip-path);}.cls-6{fill:#fbfbfb;}.cls-10,.cls-11,.cls-13,.cls-14,.cls-15,.cls-17,.cls-29,.cls-31,.cls-32,.cls-41,.cls-47,.cls-62,.cls-7{mix-blend-mode:multiply;}.cls-8{fill:#dedede;}.cls-10,.cls-11,.cls-12,.cls-13,.cls-14,.cls-15,.cls-41,.cls-9{fill:#0a90b7;}.cls-10,.cls-11,.cls-14,.cls-15,.cls-30,.cls-31,.cls-9{fill-rule:evenodd;}.cls-10{opacity:0.71;}.cls-11{opacity:0.31;}.cls-13{opacity:0.18;}.cls-14{opacity:0.34;}.cls-15,.cls-23{opacity:0.13;}.cls-16{fill:#085e84;opacity:0.66;}.cls-17{opacity:0.25;}.cls-18{stroke:#162e51;stroke-width:4.97px;}.cls-19{opacity:0.2;}.cls-20,.cls-22,.cls-25,.cls-26,.cls-27,.cls-28,.cls-71{stroke:#fff;}.cls-20{stroke-width:3.59px;}.cls-21{opacity:0.15;}.cls-22{stroke-width:3.11px;}.cls-24{opacity:0.3;}.cls-25{stroke-width:2.4px;}.cls-26{stroke-width:1.8px;}.cls-27{stroke-width:1.2px;}.cls-28{stroke-width:0.54px;}.cls-29{fill:#f4f4f4;}.cls-31{opacity:0.36;}.cls-32{fill:#757575;opacity:0.16;}.cls-33,.cls-36{fill:#babcbe;}.cls-34{fill:#c2c4c6;}.cls-35{fill:#c5c7c9;}.cls-36{opacity:0.5;}.cls-37{fill:#c0c2c4;}.cls-38{fill:#c48e4e;}.cls-39{fill:#b28252;}.cls-39,.cls-63{opacity:0.45;}.cls-40{fill:#e4f5fe;}.cls-41{opacity:0.32;}.cls-42{fill:#a00a0f;}.cls-43{fill:#363636;}.cls-44{fill:#1a1a1a;}.cls-45{fill:#303030;}.cls-46{fill:#6d6d6d;}.cls-47{fill:#dbdbdb;}.cls-48{fill:#6e6e6e;}.cls-49{fill:#8c8c8c;}.cls-50,.cls-62{fill:#c71f25;}.cls-51{fill:#d9f1fd;}.cls-52{clip-path:url(#clip-path-2);}.cls-53{fill:#f5fbfe;}.cls-54{fill:#333;}.cls-55{fill:#5e5e5e;}.cls-56{fill:#292929;}.cls-57{fill:#696969;}.cls-58{clip-path:url(#clip-path-3);}.cls-59{fill:#404040;}.cls-60{fill:#6b6b6b;}.cls-61{fill:#a3a3a3;}.cls-62{opacity:0.49;}.cls-63{fill:#bfbfbf;stroke:#e8e8e8;stroke-width:0.6px;}.cls-63,.cls-71{stroke-linecap:round;stroke-miterlimit:10;}.cls-64{opacity:0.42;}.cls-65{fill:#4d4d4d;}.cls-66{clip-path:url(#clip-path-4);}.cls-67{clip-path:url(#clip-path-5);}.cls-68{clip-path:url(#clip-path-6);}.cls-69{opacity:0.05;}.cls-70{opacity:0.22;}.cls-71{fill:#e0e0e0;stroke-width:1.17px;}.cls-72{fill:#4bafd2;}</style><clipPath id="clip-path"><rect class="cls-1" x="38.67" width="480.7" height="271.6"/></clipPath><clipPath id="clip-path-2"><path class="cls-1" d="M284.8,239.75h25.56a1.47,1.47,0,0,0,1.47-1.47V219.54a1.47,1.47,0,0,0-1.47-1.47H296.3a1.48,1.48,0,0,0-1.25.7l-11.5,18.74A1.47,1.47,0,0,0,284.8,239.75Z"/></clipPath><clipPath id="clip-path-3"><path class="cls-1" d="M261,244.08l16.23-3.79a1.43,1.43,0,0,0,.89-.65l14.25-23.24a3.78,3.78,0,0,1,3.22-1.8h25.4a1.42,1.42,0,0,1,1.42,1.42s1-21.37,2.29,46h126.9c5.06.67,2.29,11.66,2.29,11.66a2.28,2.28,0,0,1-2.29,2.29H428.22a2.27,2.27,0,0,1-2-1.11c-2.86-4.75-8.07-8.47-14-8.47s-11.17,3.72-14,8.47a2.27,2.27,0,0,1-1.95,1.11h-71.6a2.29,2.29,0,0,1-2.3-2.29v.87a1.42,1.42,0,0,1-1.42,1.42H290.58a1.39,1.39,0,0,1-1.3-.87,15.08,15.08,0,0,0-28,0A1.42,1.42,0,0,1,260,276h-2.79a1.43,1.43,0,0,1-1.43-1.42v-24A6.66,6.66,0,0,1,261,244.08Z"/></clipPath><clipPath id="clip-path-4"><rect class="cls-2" x="327.07" y="268.16" width="60.14" height="3.46" transform="translate(714.28 539.77) rotate(180)"/></clipPath><clipPath id="clip-path-5"><rect class="cls-2" x="327.07" y="278.03" width="60.14" height="3.46" transform="translate(714.28 559.52) rotate(180)"/></clipPath><clipPath id="clip-path-6"><path class="cls-1" d="M329.9,178.24H470.72a5.64,5.64,0,0,1,5.64,5.64v78a0,0,0,0,1,0,0H329.9a5.64,5.64,0,0,1-5.64-5.64V183.88A5.64,5.64,0,0,1,329.9,178.24Z" transform="translate(800.62 440.15) rotate(180)"/></clipPath></defs><g class="cls-3"><g id="Layer_7" data-name="Layer 7"><ellipse class="cls-4" cx="250" cy="327" rx="250" ry="40.98"/><path class="cls-2" d="M490.78,324.4H469.21a13,13,0,0,1-5.07-1.69L457.58,319c-1.63-.94-2.06-1.7-1-1.7h20.25a15.37,15.37,0,0,1,5.32,1.7l7.38,3.76C491.41,323.64,492,324.4,490.78,324.4Zm-41.68,0H427.53a9.35,9.35,0,0,1-4.47-1.69L417.84,319c-1.3-.94-1.47-1.7-.37-1.7h20.26a11.24,11.24,0,0,1,4.71,1.7l6.05,3.76C450,323.64,450.27,324.4,449.1,324.4Zm-41.69,0H385.84a6.54,6.54,0,0,1-3.87-1.69L378.09,319c-1-.94-.86-1.7.23-1.7h20.26a8,8,0,0,1,4.11,1.7l4.72,3.76C408.58,323.64,408.58,324.4,407.41,324.4Zm-41.68,0H344.16a4.42,4.42,0,0,1-3.27-1.69L338.34,319c-.64-.94-.26-1.7.84-1.7h20.25A5.51,5.51,0,0,1,363,319l3.37,3.76C367.16,323.64,366.9,324.4,365.73,324.4Zm-41.69,0H302.47a2.87,2.87,0,0,1-2.66-1.69L298.59,319c-.3-.94.34-1.7,1.44-1.7h20.26a3.62,3.62,0,0,1,2.91,1.7l2,3.76C325.75,323.64,325.21,324.4,324,324.4Zm-41.68,0H260.79a1.88,1.88,0,0,1-2.07-1.69l.12-3.76a1.94,1.94,0,0,1,2.05-1.7h20.25a2.35,2.35,0,0,1,2.31,1.7l.71,3.76C284.33,323.64,283.53,324.4,282.36,324.4Zm-41.69,0H219.1c-1.17,0-1.82-.76-1.46-1.69l1.45-3.76a3,3,0,0,1,2.65-1.7H242c1.1,0,1.87.76,1.71,1.7l-.63,3.76A2.37,2.37,0,0,1,240.67,324.4Zm-41.68,0H177.42c-1.17,0-1.56-.76-.86-1.69l2.79-3.76a4.55,4.55,0,0,1,3.24-1.7h20.26c1.1,0,1.59.76,1.1,1.7l-2,3.76A3.67,3.67,0,0,1,199,324.4Zm-41.69,0H135.73c-1.17,0-1.28-.76-.26-1.69L139.6,319a6.77,6.77,0,0,1,3.85-1.7H163.7c1.1,0,1.32.76.5,1.7l-3.29,3.76A5.53,5.53,0,0,1,157.3,324.4Zm-41.68,0H94.05c-1.17,0-1-.76.34-1.69L99.85,319a9.7,9.7,0,0,1,4.45-1.7h20.26c1.09,0,1,.76-.1,1.7l-4.64,3.76A8,8,0,0,1,115.62,324.4Zm-41.69,0H52.36c-1.17,0-.74-.76,1-1.69L60.1,319a13.46,13.46,0,0,1,5.05-1.7H85.41c1.1,0,.78.76-.7,1.7l-6,3.76A11.29,11.29,0,0,1,73.93,324.4Zm-41.68,0H10.68c-1.17,0-.48-.76,1.54-1.69L20.35,319a18.12,18.12,0,0,1,5.66-1.7H46.26c1.1,0,.52.76-1.3,1.7l-7.3,3.76A15.35,15.35,0,0,1,32.25,324.4Z"/></g><g id="Layer_5" data-name="Layer 5"><path class="cls-4" d="M480.36,89.58V67.48H468.94l0-56.51h-9.57V.45H448.46L432.9,11.9v3.28l-16.12,9.34V37.59h-7.2V24.25h-4.94V20.56h-6.16v3.69H396V22h-6.16v2.23h-5.16l-14.5,10h-5.35l-5.73,3.37h-3.57V32.06L350,29.4l-5.55,2.66v5.53h-9.06v0L313.69,56.47V74.9H301.27V70.67H286.7V74.9h-7.65v9.83h-5.5V81.12l-4.06-1.63-4.07,1.63v3.61h-.21v-34H233.33V48.49l-3.64-2.24-3.63,2.24v2.27h-4.62l-1.51-10.51H197.39V50.76h-2.77v55.92H189V89.36H160v-59L140.61,12.08h-5.15V9.74H129.3v2.34h-6.84l-8.41-6.23H106V4.33H99.81V5.85h-2V4.33H91.63V5.85H88.92v6.23H83V32.52H65.56v71H61.75V93.83l-3.09-2.14V55.29h-3V46.66h-2V41.54H51V38.9H49.37l-1.3-10.53h-.46l-.33-7.71h-.51l-.33,7.71H46L44.68,38.9H43v2.64H40.43v5.12h-2v8.63h-3V76.35H28.16V157.8H22.35l-11.06-7.29L0,157.8v83.38H500V89.58ZM58.66,101.05h1.42l-1.42,1.23Z"/></g><g id="Layer_8" data-name="Layer 8"><g class="cls-5"><rect class="cls-6" x="405.31" y="80.01" width="81.03" height="224.66"/><path class="cls-7" d="M416.43,93.88H425V304.67h-8.52Zm12.78,210.79h8.51V93.88h-8.51Zm12.77,0h8.51V93.88H442Zm12.77,0h8.52V93.88h-8.52Zm12.77,0H476V93.88h-8.52Z"/><path class="cls-4" d="M423.35,97.79h-6.84v9.62h6.84Zm12.77,9.62h-6.83V97.79h6.83Zm12.73,0h-6.71V97.79h6.71Zm-25.5,18.08h-6.84v-9.62h6.84Zm12.77,0h-6.83v-9.62h6.83Zm12.73,0h-6.71v-9.62h6.71Zm-25.5,18.08h-6.84V134h6.84Zm12.77,0h-6.83V134h6.83Zm12.73,0h-6.71V134h6.71Zm-25.5,18.07h-6.84V152h6.84Zm12.77,0h-6.83V152h6.83Zm12.73,0h-6.71V152h6.71Zm-25.5,18.08h-6.84v-9.61h6.84Zm12.77,0h-6.83v-9.61h6.83Zm12.73,0h-6.71v-9.61h6.71Zm-25.5,18.08h-6.84v-9.62h6.84Zm12.77,0h-6.83v-9.62h6.83Zm12.73,0h-6.71v-9.62h6.71Zm-25.5,18.08h-6.84v-9.62h6.84Zm12.77,0h-6.83v-9.62h6.83Zm12.73,0h-6.71v-9.62h6.71ZM423.35,234h-6.84v-9.62h6.84Zm12.77,0h-6.83v-9.62h6.83Zm12.73,0h-6.71v-9.62h6.71ZM423.35,252h-6.84v-9.62h6.84Zm12.77,0h-6.83v-9.62h6.83Zm12.73,0h-6.71v-9.62h6.71Zm-25.5,18.07h-6.84V260.5h6.84Zm12.77,0h-6.83V260.5h6.83Zm12.73,0h-6.71V260.5h6.71Zm-25.5,18.08h-6.84v-9.61h6.84Zm12.77,0h-6.83v-9.61h6.83Zm12.73,0h-6.71v-9.61h6.71Zm-25.5,16.67h-6.84v-8.21h6.84Zm12.77,0h-6.83v-8.21h6.83Zm25.47-197.45h-6.84V97.79h6.84Zm12.77,0h-6.84V97.79h6.84Zm-12.77,18.08h-6.84v-9.62h6.84Zm12.77,0h-6.84v-9.62h6.84Zm-12.77,18.08h-6.84V134h6.84Zm12.77,0h-6.84V134h6.84Zm-12.77,18.07h-6.84V152h6.84Zm12.77,0h-6.84V152h6.84Zm-12.77,18.08h-6.84v-9.61h6.84Zm12.77,0h-6.84v-9.61h6.84ZM461.59,197.8h-6.84v-9.62h6.84Zm12.77,0h-6.84v-9.62h6.84Zm-12.77,18.08h-6.84v-9.62h6.84Zm12.77,0h-6.84v-9.62h6.84ZM461.59,234h-6.84v-9.62h6.84Zm12.77,0h-6.84v-9.62h6.84ZM461.59,252h-6.84v-9.62h6.84Zm12.77,0h-6.84v-9.62h6.84Zm-12.77,18.07h-6.84V260.5h6.84Zm12.77,0h-6.84V260.5h6.84Zm-12.77,18.08h-6.84v-9.61h6.84Zm12.77,0h-6.84v-9.61h6.84Zm-12.77,16.67h-6.84v-8.21h6.84Zm12.77,0h-6.84v-8.21h6.84Zm-25.51,0h-6.71v-8.21h6.71Z"/><path class="cls-7" d="M423.35,97.79h-6.84v9.62h6.84Zm12.77,9.62h-6.83V97.79h6.83Zm12.73,0h-6.71V97.79h6.71Zm-25.5,18.08h-6.84v-9.62h6.84Zm12.77,0h-6.83v-9.62h6.83Zm12.73,0h-6.71v-9.62h6.71Zm-25.5,18.08h-6.84V134h6.84Zm12.77,0h-6.83V134h6.83Zm12.73,0h-6.71V134h6.71Zm-25.5,18.07h-6.84V152h6.84Zm12.77,0h-6.83V152h6.83Zm12.73,0h-6.71V152h6.71Zm-25.5,18.08h-6.84v-9.61h6.84Zm12.77,0h-6.83v-9.61h6.83Zm12.73,0h-6.71v-9.61h6.71Zm-25.5,18.08h-6.84v-9.62h6.84Zm12.77,0h-6.83v-9.62h6.83Zm12.73,0h-6.71v-9.62h6.71Zm-25.5,18.08h-6.84v-9.62h6.84Zm12.77,0h-6.83v-9.62h6.83Zm12.73,0h-6.71v-9.62h6.71ZM423.35,234h-6.84v-9.62h6.84Zm12.77,0h-6.83v-9.62h6.83Zm12.73,0h-6.71v-9.62h6.71ZM423.35,252h-6.84v-9.62h6.84Zm12.77,0h-6.83v-9.62h6.83Zm12.73,0h-6.71v-9.62h6.71Zm-25.5,18.07h-6.84V260.5h6.84Zm12.77,0h-6.83V260.5h6.83Zm12.73,0h-6.71V260.5h6.71Zm-25.5,18.08h-6.84v-9.61h6.84Zm12.77,0h-6.83v-9.61h6.83Zm12.73,0h-6.71v-9.61h6.71Zm-25.5,16.67h-6.84v-8.21h6.84Zm12.77,0h-6.83v-8.21h6.83Zm25.47-197.45h-6.84V97.79h6.84Zm12.77,0h-6.84V97.79h6.84Zm-12.77,18.08h-6.84v-9.62h6.84Zm12.77,0h-6.84v-9.62h6.84Zm-12.77,18.08h-6.84V134h6.84Zm12.77,0h-6.84V134h6.84Zm-12.77,18.07h-6.84V152h6.84Zm12.77,0h-6.84V152h6.84Zm-12.77,18.08h-6.84v-9.61h6.84Zm12.77,0h-6.84v-9.61h6.84ZM461.59,197.8h-6.84v-9.62h6.84Zm12.77,0h-6.84v-9.62h6.84Zm-12.77,18.08h-6.84v-9.62h6.84Zm12.77,0h-6.84v-9.62h6.84ZM461.59,234h-6.84v-9.62h6.84Zm12.77,0h-6.84v-9.62h6.84ZM461.59,252h-6.84v-9.62h6.84Zm12.77,0h-6.84v-9.62h6.84Zm-12.77,18.07h-6.84V260.5h6.84Zm12.77,0h-6.84V260.5h6.84Zm-12.77,18.08h-6.84v-9.61h6.84Zm12.77,0h-6.84v-9.61h6.84Zm-12.77,16.67h-6.84v-8.21h6.84Zm12.77,0h-6.84v-8.21h6.84Zm-25.51,0h-6.71v-8.21h6.71Z"/><polygon class="cls-8" points="378 103.41 378 304.67 401.86 304.67 401.86 82.97 378 103.41"/><polygon class="cls-4" points="405.31 80.01 401.86 82.97 401.86 304.67 405.31 304.67 405.31 80.01"/><polygon class="cls-9" points="341.09 4.03 283.01 52.34 311.88 38.95 341.09 4.03"/><polygon class="cls-10" points="341.09 4.03 283.01 52.34 311.88 38.95 341.09 4.03"/><polygon class="cls-9" points="283.01 323.57 311.88 310.18 311.88 38.95 283.01 52.34 283.01 323.57 283.01 323.57"/><polygon class="cls-11" points="283.01 323.57 311.88 310.18 311.88 38.95 283.01 52.34 283.01 323.57 283.01 323.57"/><path class="cls-12" d="M283,95.67v11.84l28.87-13.38V82.29L283,95.67Zm0,20.87,28.87-13.39V115L283,128.38V116.54Zm0,20.86L311.88,124v11.84L283,149.24V137.4Zm0,20.87,28.87-13.39v11.84L283,170.11V158.27Zm0,20.86,28.87-13.38v11.83L283,191V179.13ZM283,200l28.87-13.39v11.84L283,211.83V200Zm0,20.86,28.87-13.38v11.83L283,232.7V220.86Zm0,20.87,28.87-13.39v11.84L283,253.56V241.73Zm0,20.86,28.87-13.38V261L283,274.43V262.59Zm0,20.87,28.87-13.39v11.84L283,295.29V283.46ZM311.88,39V50.79L283,64.17V52.34L311.88,39ZM283,304.32l28.87-13.39v11.84L283,316.16V304.32Zm0-229.51,28.87-13.39V73.26L283,86.65V74.81Z"/><path class="cls-13" d="M283,95.67v11.84l28.87-13.38V82.29L283,95.67Zm0,20.87,28.87-13.39V115L283,128.38V116.54Zm0,20.86L311.88,124v11.84L283,149.24V137.4Zm0,20.87,28.87-13.39v11.84L283,170.11V158.27Zm0,20.86,28.87-13.38v11.83L283,191V179.13ZM283,200l28.87-13.39v11.84L283,211.83V200Zm0,20.86,28.87-13.38v11.83L283,232.7V220.86Zm0,20.87,28.87-13.39v11.84L283,253.56V241.73Zm0,20.86,28.87-13.38V261L283,274.43V262.59Zm0,20.87,28.87-13.39v11.84L283,295.29V283.46ZM311.88,39V50.79L283,64.17V52.34L311.88,39ZM283,304.32l28.87-13.39v11.84L283,316.16V304.32Zm0-229.51,28.87-13.39V73.26L283,86.65V74.81Z"/><polygon class="cls-9" points="341.09 4.03 393.25 38.95 311.88 38.95 341.09 4.03"/><polygon class="cls-14" points="341.09 4.03 393.25 38.95 311.88 38.95 341.09 4.03"/><polygon class="cls-9" points="393.25 310.18 311.88 310.18 311.88 38.95 393.25 38.95 393.25 310.18 393.25 310.18"/><polygon class="cls-15" points="393.25 310.18 311.88 310.18 311.88 38.95 393.25 38.95 393.25 310.18 393.25 310.18"/><path class="cls-12" d="M311.88,82.29V94.13h81.37V82.29Zm0,20.86h81.37V115H311.88V103.15Zm0,20.87h81.37v11.84H311.88V124Zm0,20.86h81.37v11.84H311.88V144.88Zm0,20.87h81.37v11.83H311.88V165.75Zm0,20.86h81.37v11.84H311.88V186.61Zm0,20.87h81.37v11.83H311.88V207.48Zm0,20.86h81.37v11.84H311.88V228.34Zm0,20.87h81.37V261H311.88V249.21Zm0,20.86h81.37v11.84H311.88V270.07Zm0,20.86h81.37v11.84H311.88V290.93Zm0-229.51h81.37V73.26H311.88V61.42Zm81.37-10.63H311.88V39h81.37V50.79Z"/><polygon class="cls-16" points="297.85 122.2 297.85 275.09 281.16 275.09 281.16 130.12 297.85 122.2"/><g class="cls-17"><path class="cls-18" d="M335.52,72.93a9.15,9.15,0,0,1-6.89-3.2,11.14,11.14,0,0,1-2.72-6.49.2.2,0,0,1,.18-.22.22.22,0,0,1,.23.18,10.79,10.79,0,0,0,2.61,6.26,8.78,8.78,0,0,0,6.59,3.06,9.71,9.71,0,0,0,3.08-.46,9.58,9.58,0,0,0,2.88-1.56,1.26,1.26,0,0,0,.47-.82,1.23,1.23,0,0,0-.25-.91,1.22,1.22,0,0,0-1.72-.22,7.25,7.25,0,0,1-2.15,1.17,7.45,7.45,0,0,1-2.31.33,6.31,6.31,0,0,1-4.74-2.22,8.21,8.21,0,0,1-2-4.64A.2.2,0,0,1,329,63a.21.21,0,0,1,.22.18,7.84,7.84,0,0,0,1.88,4.4,5.91,5.91,0,0,0,4.44,2.09,6.91,6.91,0,0,0,2.18-.31,6.75,6.75,0,0,0,2-1.11,1.64,1.64,0,0,1,2.31.3,1.63,1.63,0,0,1-.3,2.3,9.77,9.77,0,0,1-3,1.63A10.18,10.18,0,0,1,335.52,72.93Zm-9.41-11.4h0a.22.22,0,0,1-.19-.22,11.23,11.23,0,0,1,2.73-6.51,9.15,9.15,0,0,1,6.89-3.2,8.65,8.65,0,0,1,3,.54,9.32,9.32,0,0,1,2.69,1.52,1.66,1.66,0,0,1,.6,1.11,1.64,1.64,0,0,1-2.67,1.45,5.71,5.71,0,0,0-1.74-1,5.54,5.54,0,0,0-1.89-.34A5.91,5.91,0,0,0,331.08,57a7.83,7.83,0,0,0-1.87,4.31.2.2,0,0,1-.23.18.22.22,0,0,1-.18-.23,8.11,8.11,0,0,1,2-4.53,6.28,6.28,0,0,1,4.74-2.23,5.87,5.87,0,0,1,2,.36,6.39,6.39,0,0,1,1.86,1.06,1.23,1.23,0,0,0,2-1.09A1.21,1.21,0,0,0,341,54a9.12,9.12,0,0,0-2.57-1.46,8.54,8.54,0,0,0-2.87-.5,8.77,8.77,0,0,0-6.59,3,10.86,10.86,0,0,0-2.62,6.27A.19.19,0,0,1,326.11,61.53Z"/></g><g class="cls-19"><path class="cls-20" d="M336.3,72a9.16,9.16,0,0,1-6.89-3.19,11.23,11.23,0,0,1-2.72-6.5.21.21,0,0,1,.19-.22.22.22,0,0,1,.22.19,10.84,10.84,0,0,0,2.62,6.25,8.72,8.72,0,0,0,6.58,3.06,9.67,9.67,0,0,0,3.08-.45,9.55,9.55,0,0,0,2.89-1.57,1.23,1.23,0,0,0,.22-1.73,1.24,1.24,0,0,0-1.73-.22,6.87,6.87,0,0,1-2.14,1.17,7.17,7.17,0,0,1-2.32.34,6.32,6.32,0,0,1-4.74-2.23,8.17,8.17,0,0,1-2-4.63.22.22,0,0,1,.18-.23.21.21,0,0,1,.23.19,7.71,7.71,0,0,0,1.88,4.4,5.94,5.94,0,0,0,4.43,2.09,6.92,6.92,0,0,0,2.19-.32,6.5,6.5,0,0,0,2-1.1,1.65,1.65,0,0,1,2.31.29,1.66,1.66,0,0,1,.32,1.22,1.61,1.61,0,0,1-.62,1.09,10.1,10.1,0,0,1-3,1.63A10.2,10.2,0,0,1,336.3,72Zm-9.4-11.39h0a.21.21,0,0,1-.19-.22,11.23,11.23,0,0,1,2.72-6.51,9.13,9.13,0,0,1,6.89-3.2,8.93,8.93,0,0,1,3,.53A9.13,9.13,0,0,1,342,52.72a1.66,1.66,0,0,1,.6,1.11,1.68,1.68,0,0,1-.36,1.2,1.65,1.65,0,0,1-2.31.24,6.16,6.16,0,0,0-1.74-1,5.59,5.59,0,0,0-1.9-.33A5.93,5.93,0,0,0,331.87,56,7.83,7.83,0,0,0,330,60.34a.2.2,0,0,1-.23.18.2.2,0,0,1-.18-.22,8.2,8.2,0,0,1,2-4.54,6.34,6.34,0,0,1,4.74-2.22,6.12,6.12,0,0,1,2,.35A6.53,6.53,0,0,1,340.2,55a1.23,1.23,0,0,0,1.73-.18,1.21,1.21,0,0,0,.27-.9,1.27,1.27,0,0,0-.45-.83,8.66,8.66,0,0,0-2.57-1.46,8.37,8.37,0,0,0-2.88-.51,8.76,8.76,0,0,0-6.58,3.06,10.77,10.77,0,0,0-2.62,6.27A.21.21,0,0,1,326.9,60.59Z"/></g><g class="cls-21"><path class="cls-22" d="M336.3,72a9.16,9.16,0,0,1-6.89-3.19,11.23,11.23,0,0,1-2.72-6.5.21.21,0,0,1,.19-.22.22.22,0,0,1,.22.19,10.84,10.84,0,0,0,2.62,6.25,8.72,8.72,0,0,0,6.58,3.06,9.67,9.67,0,0,0,3.08-.45,9.55,9.55,0,0,0,2.89-1.57,1.23,1.23,0,0,0,.22-1.73,1.24,1.24,0,0,0-1.73-.22,6.87,6.87,0,0,1-2.14,1.17,7.17,7.17,0,0,1-2.32.34,6.32,6.32,0,0,1-4.74-2.23,8.17,8.17,0,0,1-2-4.63.22.22,0,0,1,.18-.23.21.21,0,0,1,.23.19,7.71,7.71,0,0,0,1.88,4.4,5.94,5.94,0,0,0,4.43,2.09,6.92,6.92,0,0,0,2.19-.32,6.5,6.5,0,0,0,2-1.1,1.65,1.65,0,0,1,2.31.29,1.66,1.66,0,0,1,.32,1.22,1.61,1.61,0,0,1-.62,1.09,10.1,10.1,0,0,1-3,1.63A10.2,10.2,0,0,1,336.3,72Zm-9.4-11.39h0a.21.21,0,0,1-.19-.22,11.23,11.23,0,0,1,2.72-6.51,9.13,9.13,0,0,1,6.89-3.2,8.93,8.93,0,0,1,3,.53A9.13,9.13,0,0,1,342,52.72a1.66,1.66,0,0,1,.6,1.11,1.68,1.68,0,0,1-.36,1.2,1.65,1.65,0,0,1-2.31.24,6.16,6.16,0,0,0-1.74-1,5.59,5.59,0,0,0-1.9-.33A5.93,5.93,0,0,0,331.87,56,7.83,7.83,0,0,0,330,60.34a.2.2,0,0,1-.23.18.2.2,0,0,1-.18-.22,8.2,8.2,0,0,1,2-4.54,6.34,6.34,0,0,1,4.74-2.22,6.12,6.12,0,0,1,2,.35A6.53,6.53,0,0,1,340.2,55a1.23,1.23,0,0,0,1.73-.18,1.21,1.21,0,0,0,.27-.9,1.27,1.27,0,0,0-.45-.83,8.66,8.66,0,0,0-2.57-1.46,8.37,8.37,0,0,0-2.88-.51,8.76,8.76,0,0,0-6.58,3.06,10.77,10.77,0,0,0-2.62,6.27A.21.21,0,0,1,326.9,60.59Z"/></g><path class="cls-23" d="M336.3,72a9.16,9.16,0,0,1-6.89-3.19,11.23,11.23,0,0,1-2.72-6.5.21.21,0,0,1,.19-.22.22.22,0,0,1,.22.19,10.84,10.84,0,0,0,2.62,6.25,8.72,8.72,0,0,0,6.58,3.06,9.67,9.67,0,0,0,3.08-.45,9.55,9.55,0,0,0,2.89-1.57,1.23,1.23,0,0,0,.22-1.73,1.24,1.24,0,0,0-1.73-.22,6.87,6.87,0,0,1-2.14,1.17,7.17,7.17,0,0,1-2.32.34,6.32,6.32,0,0,1-4.74-2.23,8.17,8.17,0,0,1-2-4.63.22.22,0,0,1,.18-.23.21.21,0,0,1,.23.19,7.71,7.71,0,0,0,1.88,4.4,5.94,5.94,0,0,0,4.43,2.09,6.92,6.92,0,0,0,2.19-.32,6.5,6.5,0,0,0,2-1.1,1.65,1.65,0,0,1,2.31.29,1.66,1.66,0,0,1,.32,1.22,1.61,1.61,0,0,1-.62,1.09,10.1,10.1,0,0,1-3,1.63A10.2,10.2,0,0,1,336.3,72Zm-9.4-11.39h0a.21.21,0,0,1-.19-.22,11.23,11.23,0,0,1,2.72-6.51,9.13,9.13,0,0,1,6.89-3.2,8.93,8.93,0,0,1,3,.53A9.13,9.13,0,0,1,342,52.72a1.66,1.66,0,0,1,.6,1.11,1.68,1.68,0,0,1-.36,1.2,1.65,1.65,0,0,1-2.31.24,6.16,6.16,0,0,0-1.74-1,5.59,5.59,0,0,0-1.9-.33A5.93,5.93,0,0,0,331.87,56,7.83,7.83,0,0,0,330,60.34a.2.2,0,0,1-.23.18.2.2,0,0,1-.18-.22,8.2,8.2,0,0,1,2-4.54,6.34,6.34,0,0,1,4.74-2.22,6.12,6.12,0,0,1,2,.35A6.53,6.53,0,0,1,340.2,55a1.23,1.23,0,0,0,1.73-.18,1.21,1.21,0,0,0,.27-.9,1.27,1.27,0,0,0-.45-.83,8.66,8.66,0,0,0-2.57-1.46,8.37,8.37,0,0,0-2.88-.51,8.76,8.76,0,0,0-6.58,3.06,10.77,10.77,0,0,0-2.62,6.27A.21.21,0,0,1,326.9,60.59Z"/><g class="cls-24"><path class="cls-25" d="M336.3,72a9.16,9.16,0,0,1-6.89-3.19,11.23,11.23,0,0,1-2.72-6.5.21.21,0,0,1,.19-.22.22.22,0,0,1,.22.19,10.84,10.84,0,0,0,2.62,6.25,8.72,8.72,0,0,0,6.58,3.06,9.67,9.67,0,0,0,3.08-.45,9.55,9.55,0,0,0,2.89-1.57,1.23,1.23,0,0,0,.22-1.73,1.24,1.24,0,0,0-1.73-.22,6.87,6.87,0,0,1-2.14,1.17,7.17,7.17,0,0,1-2.32.34,6.32,6.32,0,0,1-4.74-2.23,8.17,8.17,0,0,1-2-4.63.22.22,0,0,1,.18-.23.21.21,0,0,1,.23.19,7.71,7.71,0,0,0,1.88,4.4,5.94,5.94,0,0,0,4.43,2.09,6.92,6.92,0,0,0,2.19-.32,6.5,6.5,0,0,0,2-1.1,1.65,1.65,0,0,1,2.31.29,1.66,1.66,0,0,1,.32,1.22,1.61,1.61,0,0,1-.62,1.09,10.1,10.1,0,0,1-3,1.63A10.2,10.2,0,0,1,336.3,72Zm-9.4-11.39h0a.21.21,0,0,1-.19-.22,11.23,11.23,0,0,1,2.72-6.51,9.13,9.13,0,0,1,6.89-3.2,8.93,8.93,0,0,1,3,.53A9.13,9.13,0,0,1,342,52.72a1.66,1.66,0,0,1,.6,1.11,1.68,1.68,0,0,1-.36,1.2,1.65,1.65,0,0,1-2.31.24,6.16,6.16,0,0,0-1.74-1,5.59,5.59,0,0,0-1.9-.33A5.93,5.93,0,0,0,331.87,56,7.83,7.83,0,0,0,330,60.34a.2.2,0,0,1-.23.18.2.2,0,0,1-.18-.22,8.2,8.2,0,0,1,2-4.54,6.34,6.34,0,0,1,4.74-2.22,6.12,6.12,0,0,1,2,.35A6.53,6.53,0,0,1,340.2,55a1.23,1.23,0,0,0,1.73-.18,1.21,1.21,0,0,0,.27-.9,1.27,1.27,0,0,0-.45-.83,8.66,8.66,0,0,0-2.57-1.46,8.37,8.37,0,0,0-2.88-.51,8.76,8.76,0,0,0-6.58,3.06,10.77,10.77,0,0,0-2.62,6.27A.21.21,0,0,1,326.9,60.59Z"/></g><path class="cls-26" d="M336.3,72a9.16,9.16,0,0,1-6.89-3.19,11.23,11.23,0,0,1-2.72-6.5.21.21,0,0,1,.19-.22.22.22,0,0,1,.22.19,10.84,10.84,0,0,0,2.62,6.25,8.72,8.72,0,0,0,6.58,3.06,9.67,9.67,0,0,0,3.08-.45,9.55,9.55,0,0,0,2.89-1.57,1.23,1.23,0,0,0,.22-1.73,1.24,1.24,0,0,0-1.73-.22,6.87,6.87,0,0,1-2.14,1.17,7.17,7.17,0,0,1-2.32.34,6.32,6.32,0,0,1-4.74-2.23,8.17,8.17,0,0,1-2-4.63.22.22,0,0,1,.18-.23.21.21,0,0,1,.23.19,7.71,7.71,0,0,0,1.88,4.4,5.94,5.94,0,0,0,4.43,2.09,6.92,6.92,0,0,0,2.19-.32,6.5,6.5,0,0,0,2-1.1,1.65,1.65,0,0,1,2.31.29,1.66,1.66,0,0,1,.32,1.22,1.61,1.61,0,0,1-.62,1.09,10.1,10.1,0,0,1-3,1.63A10.2,10.2,0,0,1,336.3,72Zm-9.4-11.39h0a.21.21,0,0,1-.19-.22,11.23,11.23,0,0,1,2.72-6.51,9.13,9.13,0,0,1,6.89-3.2,8.93,8.93,0,0,1,3,.53A9.13,9.13,0,0,1,342,52.72a1.66,1.66,0,0,1,.6,1.11,1.68,1.68,0,0,1-.36,1.2,1.65,1.65,0,0,1-2.31.24,6.16,6.16,0,0,0-1.74-1,5.59,5.59,0,0,0-1.9-.33A5.93,5.93,0,0,0,331.87,56,7.83,7.83,0,0,0,330,60.34a.2.2,0,0,1-.23.18.2.2,0,0,1-.18-.22,8.2,8.2,0,0,1,2-4.54,6.34,6.34,0,0,1,4.74-2.22,6.12,6.12,0,0,1,2,.35A6.53,6.53,0,0,1,340.2,55a1.23,1.23,0,0,0,1.73-.18,1.21,1.21,0,0,0,.27-.9,1.27,1.27,0,0,0-.45-.83,8.66,8.66,0,0,0-2.57-1.46,8.37,8.37,0,0,0-2.88-.51,8.76,8.76,0,0,0-6.58,3.06,10.77,10.77,0,0,0-2.62,6.27A.21.21,0,0,1,326.9,60.59Z"/><path class="cls-27" d="M336.3,72a9.16,9.16,0,0,1-6.89-3.19,11.23,11.23,0,0,1-2.72-6.5.21.21,0,0,1,.19-.22.22.22,0,0,1,.22.19,10.84,10.84,0,0,0,2.62,6.25,8.72,8.72,0,0,0,6.58,3.06,9.67,9.67,0,0,0,3.08-.45,9.55,9.55,0,0,0,2.89-1.57,1.23,1.23,0,0,0,.22-1.73,1.24,1.24,0,0,0-1.73-.22,6.87,6.87,0,0,1-2.14,1.17,7.17,7.17,0,0,1-2.32.34,6.32,6.32,0,0,1-4.74-2.23,8.17,8.17,0,0,1-2-4.63.22.22,0,0,1,.18-.23.21.21,0,0,1,.23.19,7.71,7.71,0,0,0,1.88,4.4,5.94,5.94,0,0,0,4.43,2.09,6.92,6.92,0,0,0,2.19-.32,6.5,6.5,0,0,0,2-1.1,1.65,1.65,0,0,1,2.31.29,1.66,1.66,0,0,1,.32,1.22,1.61,1.61,0,0,1-.62,1.09,10.1,10.1,0,0,1-3,1.63A10.2,10.2,0,0,1,336.3,72Zm-9.4-11.39h0a.21.21,0,0,1-.19-.22,11.23,11.23,0,0,1,2.72-6.51,9.13,9.13,0,0,1,6.89-3.2,8.93,8.93,0,0,1,3,.53A9.13,9.13,0,0,1,342,52.72a1.66,1.66,0,0,1,.6,1.11,1.68,1.68,0,0,1-.36,1.2,1.65,1.65,0,0,1-2.31.24,6.16,6.16,0,0,0-1.74-1,5.59,5.59,0,0,0-1.9-.33A5.93,5.93,0,0,0,331.87,56,7.83,7.83,0,0,0,330,60.34a.2.2,0,0,1-.23.18.2.2,0,0,1-.18-.22,8.2,8.2,0,0,1,2-4.54,6.34,6.34,0,0,1,4.74-2.22,6.12,6.12,0,0,1,2,.35A6.53,6.53,0,0,1,340.2,55a1.23,1.23,0,0,0,1.73-.18,1.21,1.21,0,0,0,.27-.9,1.27,1.27,0,0,0-.45-.83,8.66,8.66,0,0,0-2.57-1.46,8.37,8.37,0,0,0-2.88-.51,8.76,8.76,0,0,0-6.58,3.06,10.77,10.77,0,0,0-2.62,6.27A.21.21,0,0,1,326.9,60.59Z"/><path class="cls-28" d="M336.3,72a9.16,9.16,0,0,1-6.89-3.19,11.23,11.23,0,0,1-2.72-6.5.21.21,0,0,1,.19-.22.22.22,0,0,1,.22.19,10.84,10.84,0,0,0,2.62,6.25,8.72,8.72,0,0,0,6.58,3.06,9.67,9.67,0,0,0,3.08-.45,9.55,9.55,0,0,0,2.89-1.57,1.23,1.23,0,0,0,.22-1.73,1.24,1.24,0,0,0-1.73-.22,6.87,6.87,0,0,1-2.14,1.17,7.17,7.17,0,0,1-2.32.34,6.32,6.32,0,0,1-4.74-2.23,8.17,8.17,0,0,1-2-4.63.22.22,0,0,1,.18-.23.21.21,0,0,1,.23.19,7.71,7.71,0,0,0,1.88,4.4,5.94,5.94,0,0,0,4.43,2.09,6.92,6.92,0,0,0,2.19-.32,6.5,6.5,0,0,0,2-1.1,1.65,1.65,0,0,1,2.31.29,1.66,1.66,0,0,1,.32,1.22,1.61,1.61,0,0,1-.62,1.09,10.1,10.1,0,0,1-3,1.63A10.2,10.2,0,0,1,336.3,72Zm-9.4-11.39h0a.21.21,0,0,1-.19-.22,11.23,11.23,0,0,1,2.72-6.51,9.13,9.13,0,0,1,6.89-3.2,8.93,8.93,0,0,1,3,.53A9.13,9.13,0,0,1,342,52.72a1.66,1.66,0,0,1,.6,1.11,1.68,1.68,0,0,1-.36,1.2,1.65,1.65,0,0,1-2.31.24,6.16,6.16,0,0,0-1.74-1,5.59,5.59,0,0,0-1.9-.33A5.93,5.93,0,0,0,331.87,56,7.83,7.83,0,0,0,330,60.34a.2.2,0,0,1-.23.18.2.2,0,0,1-.18-.22,8.2,8.2,0,0,1,2-4.54,6.34,6.34,0,0,1,4.74-2.22,6.12,6.12,0,0,1,2,.35A6.53,6.53,0,0,1,340.2,55a1.23,1.23,0,0,0,1.73-.18,1.21,1.21,0,0,0,.27-.9,1.27,1.27,0,0,0-.45-.83,8.66,8.66,0,0,0-2.57-1.46,8.37,8.37,0,0,0-2.88-.51,8.76,8.76,0,0,0-6.58,3.06,10.77,10.77,0,0,0-2.62,6.27A.21.21,0,0,1,326.9,60.59Z"/><path class="cls-2" d="M336.3,72a9.16,9.16,0,0,1-6.89-3.19,11.23,11.23,0,0,1-2.72-6.5.21.21,0,0,1,.19-.22.22.22,0,0,1,.22.19,10.84,10.84,0,0,0,2.62,6.25,8.72,8.72,0,0,0,6.58,3.06,9.67,9.67,0,0,0,3.08-.45,9.55,9.55,0,0,0,2.89-1.57,1.23,1.23,0,0,0,.22-1.73,1.24,1.24,0,0,0-1.73-.22,6.87,6.87,0,0,1-2.14,1.17,7.17,7.17,0,0,1-2.32.34,6.32,6.32,0,0,1-4.74-2.23,8.17,8.17,0,0,1-2-4.63.22.22,0,0,1,.18-.23.21.21,0,0,1,.23.19,7.71,7.71,0,0,0,1.88,4.4,5.94,5.94,0,0,0,4.43,2.09,6.92,6.92,0,0,0,2.19-.32,6.5,6.5,0,0,0,2-1.1,1.65,1.65,0,0,1,2.31.29,1.66,1.66,0,0,1,.32,1.22,1.61,1.61,0,0,1-.62,1.09,10.1,10.1,0,0,1-3,1.63A10.2,10.2,0,0,1,336.3,72Zm-9.4-11.39h0a.21.21,0,0,1-.19-.22,11.23,11.23,0,0,1,2.72-6.51,9.13,9.13,0,0,1,6.89-3.2,8.93,8.93,0,0,1,3,.53A9.13,9.13,0,0,1,342,52.72a1.66,1.66,0,0,1,.6,1.11,1.68,1.68,0,0,1-.36,1.2,1.65,1.65,0,0,1-2.31.24,6.16,6.16,0,0,0-1.74-1,5.59,5.59,0,0,0-1.9-.33A5.93,5.93,0,0,0,331.87,56,7.83,7.83,0,0,0,330,60.34a.2.2,0,0,1-.23.18.2.2,0,0,1-.18-.22,8.2,8.2,0,0,1,2-4.54,6.34,6.34,0,0,1,4.74-2.22,6.12,6.12,0,0,1,2,.35A6.53,6.53,0,0,1,340.2,55a1.23,1.23,0,0,0,1.73-.18,1.21,1.21,0,0,0,.27-.9,1.27,1.27,0,0,0-.45-.83,8.66,8.66,0,0,0-2.57-1.46,8.37,8.37,0,0,0-2.88-.51,8.76,8.76,0,0,0-6.58,3.06,10.77,10.77,0,0,0-2.62,6.27A.21.21,0,0,1,326.9,60.59Z"/><g class="cls-17"><path class="cls-18" d="M368.61,72.93A1.65,1.65,0,0,1,367,71.29v-18a1.65,1.65,0,0,1,1.65-1.65h5.8a6.25,6.25,0,0,1,4.61,2,7.07,7.07,0,0,1,0,9.56,6.25,6.25,0,0,1-4.61,2.05h-2.55a.21.21,0,0,1-.21-.21.2.2,0,0,1,.21-.2h2.55a5.84,5.84,0,0,0,4.31-1.92,6.66,6.66,0,0,0,0-9A5.86,5.86,0,0,0,374.41,52h-5.8a1.24,1.24,0,0,0-1.24,1.23v18a1.24,1.24,0,0,0,2.47,0V65.05a.2.2,0,0,1,.21-.2.2.2,0,0,1,.2.2v6.24A1.64,1.64,0,0,1,368.61,72.93Zm5.8-10.55h-4.36a.21.21,0,0,1-.21-.21V54.69a.21.21,0,0,1,.21-.21.2.2,0,0,1,.2.21V62h4.16a3,3,0,0,0,2.2-1,3.78,3.78,0,0,0,0-5.08,3,3,0,0,0-2.2-1h-2.55a.2.2,0,0,1-.21-.2.21.21,0,0,1,.21-.21h2.55a3.41,3.41,0,0,1,2.51,1.13,4.22,4.22,0,0,1,0,5.64A3.41,3.41,0,0,1,374.41,62.38Z"/></g><g class="cls-19"><path class="cls-20" d="M369.4,72a1.65,1.65,0,0,1-1.65-1.65v-18a1.65,1.65,0,0,1,1.65-1.64h5.8a6.27,6.27,0,0,1,4.61,2.05,7.06,7.06,0,0,1,0,9.55,6.23,6.23,0,0,1-4.61,2.05h-2.56a.2.2,0,0,1-.2-.2.2.2,0,0,1,.2-.21h2.56A5.86,5.86,0,0,0,379.51,62a6.66,6.66,0,0,0,0-9,5.84,5.84,0,0,0-4.31-1.92h-5.8a1.24,1.24,0,0,0-1.24,1.23v18a1.24,1.24,0,0,0,2.47,0V64.11a.21.21,0,0,1,.21-.21.2.2,0,0,1,.2.21v6.23A1.65,1.65,0,0,1,369.4,72Zm5.8-10.55h-4.36a.21.21,0,0,1-.21-.21V53.74a.2.2,0,0,1,.21-.2.2.2,0,0,1,.2.2V61h4.16a3,3,0,0,0,2.2-1,3.78,3.78,0,0,0,0-5.08,3,3,0,0,0-2.2-1h-2.56a.2.2,0,0,1-.2-.21.2.2,0,0,1,.2-.2h2.56a3.38,3.38,0,0,1,2.5,1.13,4.19,4.19,0,0,1,0,5.64A3.41,3.41,0,0,1,375.2,61.44Z"/></g><g class="cls-21"><path class="cls-22" d="M369.4,72a1.65,1.65,0,0,1-1.65-1.65v-18a1.65,1.65,0,0,1,1.65-1.64h5.8a6.27,6.27,0,0,1,4.61,2.05,7.06,7.06,0,0,1,0,9.55,6.23,6.23,0,0,1-4.61,2.05h-2.56a.2.2,0,0,1-.2-.2.2.2,0,0,1,.2-.21h2.56A5.86,5.86,0,0,0,379.51,62a6.66,6.66,0,0,0,0-9,5.84,5.84,0,0,0-4.31-1.92h-5.8a1.24,1.24,0,0,0-1.24,1.23v18a1.24,1.24,0,0,0,2.47,0V64.11a.21.21,0,0,1,.21-.21.2.2,0,0,1,.2.21v6.23A1.65,1.65,0,0,1,369.4,72Zm5.8-10.55h-4.36a.21.21,0,0,1-.21-.21V53.74a.2.2,0,0,1,.21-.2.2.2,0,0,1,.2.2V61h4.16a3,3,0,0,0,2.2-1,3.78,3.78,0,0,0,0-5.08,3,3,0,0,0-2.2-1h-2.56a.2.2,0,0,1-.2-.21.2.2,0,0,1,.2-.2h2.56a3.38,3.38,0,0,1,2.5,1.13,4.19,4.19,0,0,1,0,5.64A3.41,3.41,0,0,1,375.2,61.44Z"/></g><path class="cls-23" d="M369.4,72a1.65,1.65,0,0,1-1.65-1.65v-18a1.65,1.65,0,0,1,1.65-1.64h5.8a6.27,6.27,0,0,1,4.61,2.05,7.06,7.06,0,0,1,0,9.55,6.23,6.23,0,0,1-4.61,2.05h-2.56a.2.2,0,0,1-.2-.2.2.2,0,0,1,.2-.21h2.56A5.86,5.86,0,0,0,379.51,62a6.66,6.66,0,0,0,0-9,5.84,5.84,0,0,0-4.31-1.92h-5.8a1.24,1.24,0,0,0-1.24,1.23v18a1.24,1.24,0,0,0,2.47,0V64.11a.21.21,0,0,1,.21-.21.2.2,0,0,1,.2.21v6.23A1.65,1.65,0,0,1,369.4,72Zm5.8-10.55h-4.36a.21.21,0,0,1-.21-.21V53.74a.2.2,0,0,1,.21-.2.2.2,0,0,1,.2.2V61h4.16a3,3,0,0,0,2.2-1,3.78,3.78,0,0,0,0-5.08,3,3,0,0,0-2.2-1h-2.56a.2.2,0,0,1-.2-.21.2.2,0,0,1,.2-.2h2.56a3.38,3.38,0,0,1,2.5,1.13,4.19,4.19,0,0,1,0,5.64A3.41,3.41,0,0,1,375.2,61.44Z"/><g class="cls-24"><path class="cls-25" d="M369.4,72a1.65,1.65,0,0,1-1.65-1.65v-18a1.65,1.65,0,0,1,1.65-1.64h5.8a6.27,6.27,0,0,1,4.61,2.05,7.06,7.06,0,0,1,0,9.55,6.23,6.23,0,0,1-4.61,2.05h-2.56a.2.2,0,0,1-.2-.2.2.2,0,0,1,.2-.21h2.56A5.86,5.86,0,0,0,379.51,62a6.66,6.66,0,0,0,0-9,5.84,5.84,0,0,0-4.31-1.92h-5.8a1.24,1.24,0,0,0-1.24,1.23v18a1.24,1.24,0,0,0,2.47,0V64.11a.21.21,0,0,1,.21-.21.2.2,0,0,1,.2.21v6.23A1.65,1.65,0,0,1,369.4,72Zm5.8-10.55h-4.36a.21.21,0,0,1-.21-.21V53.74a.2.2,0,0,1,.21-.2.2.2,0,0,1,.2.2V61h4.16a3,3,0,0,0,2.2-1,3.78,3.78,0,0,0,0-5.08,3,3,0,0,0-2.2-1h-2.56a.2.2,0,0,1-.2-.21.2.2,0,0,1,.2-.2h2.56a3.38,3.38,0,0,1,2.5,1.13,4.19,4.19,0,0,1,0,5.64A3.41,3.41,0,0,1,375.2,61.44Z"/></g><path class="cls-26" d="M369.4,72a1.65,1.65,0,0,1-1.65-1.65v-18a1.65,1.65,0,0,1,1.65-1.64h5.8a6.27,6.27,0,0,1,4.61,2.05,7.06,7.06,0,0,1,0,9.55,6.23,6.23,0,0,1-4.61,2.05h-2.56a.2.2,0,0,1-.2-.2.2.2,0,0,1,.2-.21h2.56A5.86,5.86,0,0,0,379.51,62a6.66,6.66,0,0,0,0-9,5.84,5.84,0,0,0-4.31-1.92h-5.8a1.24,1.24,0,0,0-1.24,1.23v18a1.24,1.24,0,0,0,2.47,0V64.11a.21.21,0,0,1,.21-.21.2.2,0,0,1,.2.21v6.23A1.65,1.65,0,0,1,369.4,72Zm5.8-10.55h-4.36a.21.21,0,0,1-.21-.21V53.74a.2.2,0,0,1,.21-.2.2.2,0,0,1,.2.2V61h4.16a3,3,0,0,0,2.2-1,3.78,3.78,0,0,0,0-5.08,3,3,0,0,0-2.2-1h-2.56a.2.2,0,0,1-.2-.21.2.2,0,0,1,.2-.2h2.56a3.38,3.38,0,0,1,2.5,1.13,4.19,4.19,0,0,1,0,5.64A3.41,3.41,0,0,1,375.2,61.44Z"/><path class="cls-27" d="M369.4,72a1.65,1.65,0,0,1-1.65-1.65v-18a1.65,1.65,0,0,1,1.65-1.64h5.8a6.27,6.27,0,0,1,4.61,2.05,7.06,7.06,0,0,1,0,9.55,6.23,6.23,0,0,1-4.61,2.05h-2.56a.2.2,0,0,1-.2-.2.2.2,0,0,1,.2-.21h2.56A5.86,5.86,0,0,0,379.51,62a6.66,6.66,0,0,0,0-9,5.84,5.84,0,0,0-4.31-1.92h-5.8a1.24,1.24,0,0,0-1.24,1.23v18a1.24,1.24,0,0,0,2.47,0V64.11a.21.21,0,0,1,.21-.21.2.2,0,0,1,.2.21v6.23A1.65,1.65,0,0,1,369.4,72Zm5.8-10.55h-4.36a.21.21,0,0,1-.21-.21V53.74a.2.2,0,0,1,.21-.2.2.2,0,0,1,.2.2V61h4.16a3,3,0,0,0,2.2-1,3.78,3.78,0,0,0,0-5.08,3,3,0,0,0-2.2-1h-2.56a.2.2,0,0,1-.2-.21.2.2,0,0,1,.2-.2h2.56a3.38,3.38,0,0,1,2.5,1.13,4.19,4.19,0,0,1,0,5.64A3.41,3.41,0,0,1,375.2,61.44Z"/><path class="cls-28" d="M369.4,72a1.65,1.65,0,0,1-1.65-1.65v-18a1.65,1.65,0,0,1,1.65-1.64h5.8a6.27,6.27,0,0,1,4.61,2.05,7.06,7.06,0,0,1,0,9.55,6.23,6.23,0,0,1-4.61,2.05h-2.56a.2.2,0,0,1-.2-.2.2.2,0,0,1,.2-.21h2.56A5.86,5.86,0,0,0,379.51,62a6.66,6.66,0,0,0,0-9,5.84,5.84,0,0,0-4.31-1.92h-5.8a1.24,1.24,0,0,0-1.24,1.23v18a1.24,1.24,0,0,0,2.47,0V64.11a.21.21,0,0,1,.21-.21.2.2,0,0,1,.2.21v6.23A1.65,1.65,0,0,1,369.4,72Zm5.8-10.55h-4.36a.21.21,0,0,1-.21-.21V53.74a.2.2,0,0,1,.21-.2.2.2,0,0,1,.2.2V61h4.16a3,3,0,0,0,2.2-1,3.78,3.78,0,0,0,0-5.08,3,3,0,0,0-2.2-1h-2.56a.2.2,0,0,1-.2-.21.2.2,0,0,1,.2-.2h2.56a3.38,3.38,0,0,1,2.5,1.13,4.19,4.19,0,0,1,0,5.64A3.41,3.41,0,0,1,375.2,61.44Z"/><path class="cls-2" d="M369.4,72a1.65,1.65,0,0,1-1.65-1.65v-18a1.65,1.65,0,0,1,1.65-1.64h5.8a6.27,6.27,0,0,1,4.61,2.05,7.06,7.06,0,0,1,0,9.55,6.23,6.23,0,0,1-4.61,2.05h-2.56a.2.2,0,0,1-.2-.2.2.2,0,0,1,.2-.21h2.56A5.86,5.86,0,0,0,379.51,62a6.66,6.66,0,0,0,0-9,5.84,5.84,0,0,0-4.31-1.92h-5.8a1.24,1.24,0,0,0-1.24,1.23v18a1.24,1.24,0,0,0,2.47,0V64.11a.21.21,0,0,1,.21-.21.2.2,0,0,1,.2.21v6.23A1.65,1.65,0,0,1,369.4,72Zm5.8-10.55h-4.36a.21.21,0,0,1-.21-.21V53.74a.2.2,0,0,1,.21-.2.2.2,0,0,1,.2.2V61h4.16a3,3,0,0,0,2.2-1,3.78,3.78,0,0,0,0-5.08,3,3,0,0,0-2.2-1h-2.56a.2.2,0,0,1-.2-.21.2.2,0,0,1,.2-.2h2.56a3.38,3.38,0,0,1,2.5,1.13,4.19,4.19,0,0,1,0,5.64A3.41,3.41,0,0,1,375.2,61.44Z"/><g class="cls-17"><path class="cls-18" d="M354.36,72.94a14.26,14.26,0,0,1-3.62-.43,6.47,6.47,0,0,1-2.83-1.4,1.63,1.63,0,0,1-.53-1.14,1.65,1.65,0,0,1,.44-1.18c.85-.92,1.74-.44,2.59,0a5,5,0,0,0,1.16.52,11.32,11.32,0,0,0,2.79.32h.3a3.55,3.55,0,0,0,2-1A.21.21,0,1,1,357,69a3.94,3.94,0,0,1-2.29,1.07h-.34a11.79,11.79,0,0,1-2.9-.33,6,6,0,0,1-1.24-.55c-.91-.49-1.5-.76-2.1-.11a1.22,1.22,0,0,0,.07,1.74,6.08,6.08,0,0,0,2.65,1.3,14.45,14.45,0,0,0,3.52.42,5.68,5.68,0,0,0,.59,0,6.45,6.45,0,0,0,3.76-1.75,5.69,5.69,0,0,0,1.76-4.16c0-.21,0-.43,0-.65-.32-3.17-2.5-4.29-5.54-5.54l-.22-.09c-1.27-.51-3-1.22-3.73-2.51a1.93,1.93,0,0,1-.26-.94.2.2,0,0,1,.21-.2.2.2,0,0,1,.2.2,1.49,1.49,0,0,0,.21.74c.64,1.16,2.31,1.84,3.53,2.33L355,60c2.54,1,5.43,2.22,5.8,5.88a5.64,5.64,0,0,1,0,.69A6.14,6.14,0,0,1,359,71a6.82,6.82,0,0,1-4,1.87Zm3.43-6.14a.2.2,0,0,1-.2-.21c0-.12,0-.23,0-.35-.17-1.73-1.92-2.43-3.46-3.06l-.31-.12c-2-.8-4.18-1.71-5.37-3.87a4.69,4.69,0,0,1-.63-2.33,4.76,4.76,0,0,1,.83-2.64,5.77,5.77,0,0,1,2-1.81,6.48,6.48,0,0,1,3.17-.82A8.76,8.76,0,0,1,359,53.07a1.64,1.64,0,0,1-2.1,2.53,5.88,5.88,0,0,0-3.05-.72,3.28,3.28,0,0,0-1.58.4.2.2,0,0,1-.28-.08.21.21,0,0,1,.08-.28,3.73,3.73,0,0,1,1.78-.45,6.21,6.21,0,0,1,3.3.8,1.23,1.23,0,1,0,1.58-1.89A8.31,8.31,0,0,0,353.81,52a6.14,6.14,0,0,0-3,.77A5.33,5.33,0,0,0,349,54.45a4.22,4.22,0,0,0-.18,4.55c1.12,2,3.18,2.87,5.17,3.68l.3.12c1.57.64,3.52,1.42,3.72,3.39,0,.14,0,.27,0,.4A.21.21,0,0,1,357.79,66.8Z"/></g><g class="cls-19"><path class="cls-20" d="M355.15,72a14.25,14.25,0,0,1-3.62-.44,6.57,6.57,0,0,1-2.84-1.4,1.62,1.62,0,0,1-.52-1.14,1.65,1.65,0,0,1,.44-1.18c.85-.91,1.73-.43,2.59,0a5.32,5.32,0,0,0,1.15.51,11,11,0,0,0,2.8.33l.3,0a3.43,3.43,0,0,0,2-1,.21.21,0,0,1,.29,0,.22.22,0,0,1,0,.3,3.9,3.9,0,0,1-2.29,1.06l-.34,0a11.26,11.26,0,0,1-2.9-.34,5.8,5.8,0,0,1-1.25-.55c-.9-.49-1.49-.76-2.09-.11a1.26,1.26,0,0,0-.33.89,1.19,1.19,0,0,0,.39.85,6.07,6.07,0,0,0,2.66,1.3,14,14,0,0,0,3.52.43,5.85,5.85,0,0,0,.59,0,6.42,6.42,0,0,0,3.75-1.75,5.62,5.62,0,0,0,1.76-4.15c0-.22,0-.44,0-.65-.33-3.17-2.5-4.3-5.55-5.54l-.21-.09c-1.27-.52-3-1.23-3.73-2.52a1.93,1.93,0,0,1-.26-.93.21.21,0,1,1,.41,0,1.45,1.45,0,0,0,.21.73c.64,1.16,2.31,1.84,3.53,2.34l.21.08c2.54,1,5.42,2.23,5.8,5.89,0,.24,0,.47,0,.69a6.14,6.14,0,0,1-1.89,4.45,6.86,6.86,0,0,1-4,1.86C355.57,72,355.36,72,355.15,72Zm3.43-6.15a.2.2,0,0,1-.2-.2c0-.12,0-.24,0-.36-.18-1.72-1.92-2.43-3.46-3.05l-.31-.13c-2-.8-4.18-1.71-5.37-3.86a4.62,4.62,0,0,1,.2-5,5.76,5.76,0,0,1,2-1.82,6.65,6.65,0,0,1,3.18-.81,8.75,8.75,0,0,1,5.15,1.47,1.65,1.65,0,0,1-2.1,2.54,5.91,5.91,0,0,0-3-.72,3.17,3.17,0,0,0-1.58.4.21.21,0,0,1-.28-.09.19.19,0,0,1,.08-.27,3.62,3.62,0,0,1,1.78-.45,6.14,6.14,0,0,1,3.3.8,1.23,1.23,0,1,0,1.58-1.89,8.28,8.28,0,0,0-4.88-1.38,6.17,6.17,0,0,0-3,.76,5.59,5.59,0,0,0-1.86,1.68,4.4,4.4,0,0,0-.76,2.42,4.47,4.47,0,0,0,.57,2.13c1.13,2,3.19,2.87,5.17,3.68l.31.13c1.57.63,3.52,1.42,3.72,3.39,0,.13,0,.26,0,.4A.2.2,0,0,1,358.58,65.85Z"/></g><g class="cls-21"><path class="cls-22" d="M355.15,72a14.25,14.25,0,0,1-3.62-.44,6.57,6.57,0,0,1-2.84-1.4,1.62,1.62,0,0,1-.52-1.14,1.65,1.65,0,0,1,.44-1.18c.85-.91,1.73-.43,2.59,0a5.32,5.32,0,0,0,1.15.51,11,11,0,0,0,2.8.33l.3,0a3.43,3.43,0,0,0,2-1,.21.21,0,0,1,.29,0,.22.22,0,0,1,0,.3,3.9,3.9,0,0,1-2.29,1.06l-.34,0a11.26,11.26,0,0,1-2.9-.34,5.8,5.8,0,0,1-1.25-.55c-.9-.49-1.49-.76-2.09-.11a1.26,1.26,0,0,0-.33.89,1.19,1.19,0,0,0,.39.85,6.07,6.07,0,0,0,2.66,1.3,14,14,0,0,0,3.52.43,5.85,5.85,0,0,0,.59,0,6.42,6.42,0,0,0,3.75-1.75,5.62,5.62,0,0,0,1.76-4.15c0-.22,0-.44,0-.65-.33-3.17-2.5-4.3-5.55-5.54l-.21-.09c-1.27-.52-3-1.23-3.73-2.52a1.93,1.93,0,0,1-.26-.93.21.21,0,1,1,.41,0,1.45,1.45,0,0,0,.21.73c.64,1.16,2.31,1.84,3.53,2.34l.21.08c2.54,1,5.42,2.23,5.8,5.89,0,.24,0,.47,0,.69a6.14,6.14,0,0,1-1.89,4.45,6.86,6.86,0,0,1-4,1.86C355.57,72,355.36,72,355.15,72Zm3.43-6.15a.2.2,0,0,1-.2-.2c0-.12,0-.24,0-.36-.18-1.72-1.92-2.43-3.46-3.05l-.31-.13c-2-.8-4.18-1.71-5.37-3.86a4.62,4.62,0,0,1,.2-5,5.76,5.76,0,0,1,2-1.82,6.65,6.65,0,0,1,3.18-.81,8.75,8.75,0,0,1,5.15,1.47,1.65,1.65,0,0,1-2.1,2.54,5.91,5.91,0,0,0-3-.72,3.17,3.17,0,0,0-1.58.4.21.21,0,0,1-.28-.09.19.19,0,0,1,.08-.27,3.62,3.62,0,0,1,1.78-.45,6.14,6.14,0,0,1,3.3.8,1.23,1.23,0,1,0,1.58-1.89,8.28,8.28,0,0,0-4.88-1.38,6.17,6.17,0,0,0-3,.76,5.59,5.59,0,0,0-1.86,1.68,4.4,4.4,0,0,0-.76,2.42,4.47,4.47,0,0,0,.57,2.13c1.13,2,3.19,2.87,5.17,3.68l.31.13c1.57.63,3.52,1.42,3.72,3.39,0,.13,0,.26,0,.4A.2.2,0,0,1,358.58,65.85Z"/></g><path class="cls-23" d="M355.15,72a14.25,14.25,0,0,1-3.62-.44,6.57,6.57,0,0,1-2.84-1.4,1.62,1.62,0,0,1-.52-1.14,1.65,1.65,0,0,1,.44-1.18c.85-.91,1.73-.43,2.59,0a5.32,5.32,0,0,0,1.15.51,11,11,0,0,0,2.8.33l.3,0a3.43,3.43,0,0,0,2-1,.21.21,0,0,1,.29,0,.22.22,0,0,1,0,.3,3.9,3.9,0,0,1-2.29,1.06l-.34,0a11.26,11.26,0,0,1-2.9-.34,5.8,5.8,0,0,1-1.25-.55c-.9-.49-1.49-.76-2.09-.11a1.26,1.26,0,0,0-.33.89,1.19,1.19,0,0,0,.39.85,6.07,6.07,0,0,0,2.66,1.3,14,14,0,0,0,3.52.43,5.85,5.85,0,0,0,.59,0,6.42,6.42,0,0,0,3.75-1.75,5.62,5.62,0,0,0,1.76-4.15c0-.22,0-.44,0-.65-.33-3.17-2.5-4.3-5.55-5.54l-.21-.09c-1.27-.52-3-1.23-3.73-2.52a1.93,1.93,0,0,1-.26-.93.21.21,0,1,1,.41,0,1.45,1.45,0,0,0,.21.73c.64,1.16,2.31,1.84,3.53,2.34l.21.08c2.54,1,5.42,2.23,5.8,5.89,0,.24,0,.47,0,.69a6.14,6.14,0,0,1-1.89,4.45,6.86,6.86,0,0,1-4,1.86C355.57,72,355.36,72,355.15,72Zm3.43-6.15a.2.2,0,0,1-.2-.2c0-.12,0-.24,0-.36-.18-1.72-1.92-2.43-3.46-3.05l-.31-.13c-2-.8-4.18-1.71-5.37-3.86a4.62,4.62,0,0,1,.2-5,5.76,5.76,0,0,1,2-1.82,6.65,6.65,0,0,1,3.18-.81,8.75,8.75,0,0,1,5.15,1.47,1.65,1.65,0,0,1-2.1,2.54,5.91,5.91,0,0,0-3-.72,3.17,3.17,0,0,0-1.58.4.21.21,0,0,1-.28-.09.19.19,0,0,1,.08-.27,3.62,3.62,0,0,1,1.78-.45,6.14,6.14,0,0,1,3.3.8,1.23,1.23,0,1,0,1.58-1.89,8.28,8.28,0,0,0-4.88-1.38,6.17,6.17,0,0,0-3,.76,5.59,5.59,0,0,0-1.86,1.68,4.4,4.4,0,0,0-.76,2.42,4.47,4.47,0,0,0,.57,2.13c1.13,2,3.19,2.87,5.17,3.68l.31.13c1.57.63,3.52,1.42,3.72,3.39,0,.13,0,.26,0,.4A.2.2,0,0,1,358.58,65.85Z"/><g class="cls-24"><path class="cls-25" d="M355.15,72a14.25,14.25,0,0,1-3.62-.44,6.57,6.57,0,0,1-2.84-1.4,1.62,1.62,0,0,1-.52-1.14,1.65,1.65,0,0,1,.44-1.18c.85-.91,1.73-.43,2.59,0a5.32,5.32,0,0,0,1.15.51,11,11,0,0,0,2.8.33l.3,0a3.43,3.43,0,0,0,2-1,.21.21,0,0,1,.29,0,.22.22,0,0,1,0,.3,3.9,3.9,0,0,1-2.29,1.06l-.34,0a11.26,11.26,0,0,1-2.9-.34,5.8,5.8,0,0,1-1.25-.55c-.9-.49-1.49-.76-2.09-.11a1.26,1.26,0,0,0-.33.89,1.19,1.19,0,0,0,.39.85,6.07,6.07,0,0,0,2.66,1.3,14,14,0,0,0,3.52.43,5.85,5.85,0,0,0,.59,0,6.42,6.42,0,0,0,3.75-1.75,5.62,5.62,0,0,0,1.76-4.15c0-.22,0-.44,0-.65-.33-3.17-2.5-4.3-5.55-5.54l-.21-.09c-1.27-.52-3-1.23-3.73-2.52a1.93,1.93,0,0,1-.26-.93.21.21,0,1,1,.41,0,1.45,1.45,0,0,0,.21.73c.64,1.16,2.31,1.84,3.53,2.34l.21.08c2.54,1,5.42,2.23,5.8,5.89,0,.24,0,.47,0,.69a6.14,6.14,0,0,1-1.89,4.45,6.86,6.86,0,0,1-4,1.86C355.57,72,355.36,72,355.15,72Zm3.43-6.15a.2.2,0,0,1-.2-.2c0-.12,0-.24,0-.36-.18-1.72-1.92-2.43-3.46-3.05l-.31-.13c-2-.8-4.18-1.71-5.37-3.86a4.62,4.62,0,0,1,.2-5,5.76,5.76,0,0,1,2-1.82,6.65,6.65,0,0,1,3.18-.81,8.75,8.75,0,0,1,5.15,1.47,1.65,1.65,0,0,1-2.1,2.54,5.91,5.91,0,0,0-3-.72,3.17,3.17,0,0,0-1.58.4.21.21,0,0,1-.28-.09.19.19,0,0,1,.08-.27,3.62,3.62,0,0,1,1.78-.45,6.14,6.14,0,0,1,3.3.8,1.23,1.23,0,1,0,1.58-1.89,8.28,8.28,0,0,0-4.88-1.38,6.17,6.17,0,0,0-3,.76,5.59,5.59,0,0,0-1.86,1.68,4.4,4.4,0,0,0-.76,2.42,4.47,4.47,0,0,0,.57,2.13c1.13,2,3.19,2.87,5.17,3.68l.31.13c1.57.63,3.52,1.42,3.72,3.39,0,.13,0,.26,0,.4A.2.2,0,0,1,358.58,65.85Z"/></g><path class="cls-26" d="M355.15,72a14.25,14.25,0,0,1-3.62-.44,6.57,6.57,0,0,1-2.84-1.4,1.62,1.62,0,0,1-.52-1.14,1.65,1.65,0,0,1,.44-1.18c.85-.91,1.73-.43,2.59,0a5.32,5.32,0,0,0,1.15.51,11,11,0,0,0,2.8.33l.3,0a3.43,3.43,0,0,0,2-1,.21.21,0,0,1,.29,0,.22.22,0,0,1,0,.3,3.9,3.9,0,0,1-2.29,1.06l-.34,0a11.26,11.26,0,0,1-2.9-.34,5.8,5.8,0,0,1-1.25-.55c-.9-.49-1.49-.76-2.09-.11a1.26,1.26,0,0,0-.33.89,1.19,1.19,0,0,0,.39.85,6.07,6.07,0,0,0,2.66,1.3,14,14,0,0,0,3.52.43,5.85,5.85,0,0,0,.59,0,6.42,6.42,0,0,0,3.75-1.75,5.62,5.62,0,0,0,1.76-4.15c0-.22,0-.44,0-.65-.33-3.17-2.5-4.3-5.55-5.54l-.21-.09c-1.27-.52-3-1.23-3.73-2.52a1.93,1.93,0,0,1-.26-.93.21.21,0,1,1,.41,0,1.45,1.45,0,0,0,.21.73c.64,1.16,2.31,1.84,3.53,2.34l.21.08c2.54,1,5.42,2.23,5.8,5.89,0,.24,0,.47,0,.69a6.14,6.14,0,0,1-1.89,4.45,6.86,6.86,0,0,1-4,1.86C355.57,72,355.36,72,355.15,72Zm3.43-6.15a.2.2,0,0,1-.2-.2c0-.12,0-.24,0-.36-.18-1.72-1.92-2.43-3.46-3.05l-.31-.13c-2-.8-4.18-1.71-5.37-3.86a4.62,4.62,0,0,1,.2-5,5.76,5.76,0,0,1,2-1.82,6.65,6.65,0,0,1,3.18-.81,8.75,8.75,0,0,1,5.15,1.47,1.65,1.65,0,0,1-2.1,2.54,5.91,5.91,0,0,0-3-.72,3.17,3.17,0,0,0-1.58.4.21.21,0,0,1-.28-.09.19.19,0,0,1,.08-.27,3.62,3.62,0,0,1,1.78-.45,6.14,6.14,0,0,1,3.3.8,1.23,1.23,0,1,0,1.58-1.89,8.28,8.28,0,0,0-4.88-1.38,6.17,6.17,0,0,0-3,.76,5.59,5.59,0,0,0-1.86,1.68,4.4,4.4,0,0,0-.76,2.42,4.47,4.47,0,0,0,.57,2.13c1.13,2,3.19,2.87,5.17,3.68l.31.13c1.57.63,3.52,1.42,3.72,3.39,0,.13,0,.26,0,.4A.2.2,0,0,1,358.58,65.85Z"/><path class="cls-27" d="M355.15,72a14.25,14.25,0,0,1-3.62-.44,6.57,6.57,0,0,1-2.84-1.4,1.62,1.62,0,0,1-.52-1.14,1.65,1.65,0,0,1,.44-1.18c.85-.91,1.73-.43,2.59,0a5.32,5.32,0,0,0,1.15.51,11,11,0,0,0,2.8.33l.3,0a3.43,3.43,0,0,0,2-1,.21.21,0,0,1,.29,0,.22.22,0,0,1,0,.3,3.9,3.9,0,0,1-2.29,1.06l-.34,0a11.26,11.26,0,0,1-2.9-.34,5.8,5.8,0,0,1-1.25-.55c-.9-.49-1.49-.76-2.09-.11a1.26,1.26,0,0,0-.33.89,1.19,1.19,0,0,0,.39.85,6.07,6.07,0,0,0,2.66,1.3,14,14,0,0,0,3.52.43,5.85,5.85,0,0,0,.59,0,6.42,6.42,0,0,0,3.75-1.75,5.62,5.62,0,0,0,1.76-4.15c0-.22,0-.44,0-.65-.33-3.17-2.5-4.3-5.55-5.54l-.21-.09c-1.27-.52-3-1.23-3.73-2.52a1.93,1.93,0,0,1-.26-.93.21.21,0,1,1,.41,0,1.45,1.45,0,0,0,.21.73c.64,1.16,2.31,1.84,3.53,2.34l.21.08c2.54,1,5.42,2.23,5.8,5.89,0,.24,0,.47,0,.69a6.14,6.14,0,0,1-1.89,4.45,6.86,6.86,0,0,1-4,1.86C355.57,72,355.36,72,355.15,72Zm3.43-6.15a.2.2,0,0,1-.2-.2c0-.12,0-.24,0-.36-.18-1.72-1.92-2.43-3.46-3.05l-.31-.13c-2-.8-4.18-1.71-5.37-3.86a4.62,4.62,0,0,1,.2-5,5.76,5.76,0,0,1,2-1.82,6.65,6.65,0,0,1,3.18-.81,8.75,8.75,0,0,1,5.15,1.47,1.65,1.65,0,0,1-2.1,2.54,5.91,5.91,0,0,0-3-.72,3.17,3.17,0,0,0-1.58.4.21.21,0,0,1-.28-.09.19.19,0,0,1,.08-.27,3.62,3.62,0,0,1,1.78-.45,6.14,6.14,0,0,1,3.3.8,1.23,1.23,0,1,0,1.58-1.89,8.28,8.28,0,0,0-4.88-1.38,6.17,6.17,0,0,0-3,.76,5.59,5.59,0,0,0-1.86,1.68,4.4,4.4,0,0,0-.76,2.42,4.47,4.47,0,0,0,.57,2.13c1.13,2,3.19,2.87,5.17,3.68l.31.13c1.57.63,3.52,1.42,3.72,3.39,0,.13,0,.26,0,.4A.2.2,0,0,1,358.58,65.85Z"/><path class="cls-28" d="M355.15,72a14.25,14.25,0,0,1-3.62-.44,6.57,6.57,0,0,1-2.84-1.4,1.62,1.62,0,0,1-.52-1.14,1.65,1.65,0,0,1,.44-1.18c.85-.91,1.73-.43,2.59,0a5.32,5.32,0,0,0,1.15.51,11,11,0,0,0,2.8.33l.3,0a3.43,3.43,0,0,0,2-1,.21.21,0,0,1,.29,0,.22.22,0,0,1,0,.3,3.9,3.9,0,0,1-2.29,1.06l-.34,0a11.26,11.26,0,0,1-2.9-.34,5.8,5.8,0,0,1-1.25-.55c-.9-.49-1.49-.76-2.09-.11a1.26,1.26,0,0,0-.33.89,1.19,1.19,0,0,0,.39.85,6.07,6.07,0,0,0,2.66,1.3,14,14,0,0,0,3.52.43,5.85,5.85,0,0,0,.59,0,6.42,6.42,0,0,0,3.75-1.75,5.62,5.62,0,0,0,1.76-4.15c0-.22,0-.44,0-.65-.33-3.17-2.5-4.3-5.55-5.54l-.21-.09c-1.27-.52-3-1.23-3.73-2.52a1.93,1.93,0,0,1-.26-.93.21.21,0,1,1,.41,0,1.45,1.45,0,0,0,.21.73c.64,1.16,2.31,1.84,3.53,2.34l.21.08c2.54,1,5.42,2.23,5.8,5.89,0,.24,0,.47,0,.69a6.14,6.14,0,0,1-1.89,4.45,6.86,6.86,0,0,1-4,1.86C355.57,72,355.36,72,355.15,72Zm3.43-6.15a.2.2,0,0,1-.2-.2c0-.12,0-.24,0-.36-.18-1.72-1.92-2.43-3.46-3.05l-.31-.13c-2-.8-4.18-1.71-5.37-3.86a4.62,4.62,0,0,1,.2-5,5.76,5.76,0,0,1,2-1.82,6.65,6.65,0,0,1,3.18-.81,8.75,8.75,0,0,1,5.15,1.47,1.65,1.65,0,0,1-2.1,2.54,5.91,5.91,0,0,0-3-.72,3.17,3.17,0,0,0-1.58.4.21.21,0,0,1-.28-.09.19.19,0,0,1,.08-.27,3.62,3.62,0,0,1,1.78-.45,6.14,6.14,0,0,1,3.3.8,1.23,1.23,0,1,0,1.58-1.89,8.28,8.28,0,0,0-4.88-1.38,6.17,6.17,0,0,0-3,.76,5.59,5.59,0,0,0-1.86,1.68,4.4,4.4,0,0,0-.76,2.42,4.47,4.47,0,0,0,.57,2.13c1.13,2,3.19,2.87,5.17,3.68l.31.13c1.57.63,3.52,1.42,3.72,3.39,0,.13,0,.26,0,.4A.2.2,0,0,1,358.58,65.85Z"/><path class="cls-2" d="M355.15,72a14.25,14.25,0,0,1-3.62-.44,6.57,6.57,0,0,1-2.84-1.4,1.62,1.62,0,0,1-.52-1.14,1.65,1.65,0,0,1,.44-1.18c.85-.91,1.73-.43,2.59,0a5.32,5.32,0,0,0,1.15.51,11,11,0,0,0,2.8.33l.3,0a3.43,3.43,0,0,0,2-1,.21.21,0,0,1,.29,0,.22.22,0,0,1,0,.3,3.9,3.9,0,0,1-2.29,1.06l-.34,0a11.26,11.26,0,0,1-2.9-.34,5.8,5.8,0,0,1-1.25-.55c-.9-.49-1.49-.76-2.09-.11a1.26,1.26,0,0,0-.33.89,1.19,1.19,0,0,0,.39.85,6.07,6.07,0,0,0,2.66,1.3,14,14,0,0,0,3.52.43,5.85,5.85,0,0,0,.59,0,6.42,6.42,0,0,0,3.75-1.75,5.62,5.62,0,0,0,1.76-4.15c0-.22,0-.44,0-.65-.33-3.17-2.5-4.3-5.55-5.54l-.21-.09c-1.27-.52-3-1.23-3.73-2.52a1.93,1.93,0,0,1-.26-.93.21.21,0,1,1,.41,0,1.45,1.45,0,0,0,.21.73c.64,1.16,2.31,1.84,3.53,2.34l.21.08c2.54,1,5.42,2.23,5.8,5.89,0,.24,0,.47,0,.69a6.14,6.14,0,0,1-1.89,4.45,6.86,6.86,0,0,1-4,1.86C355.57,72,355.36,72,355.15,72Zm3.43-6.15a.2.2,0,0,1-.2-.2c0-.12,0-.24,0-.36-.18-1.72-1.92-2.43-3.46-3.05l-.31-.13c-2-.8-4.18-1.71-5.37-3.86a4.62,4.62,0,0,1,.2-5,5.76,5.76,0,0,1,2-1.82,6.65,6.65,0,0,1,3.18-.81,8.75,8.75,0,0,1,5.15,1.47,1.65,1.65,0,0,1-2.1,2.54,5.91,5.91,0,0,0-3-.72,3.17,3.17,0,0,0-1.58.4.21.21,0,0,1-.28-.09.19.19,0,0,1,.08-.27,3.62,3.62,0,0,1,1.78-.45,6.14,6.14,0,0,1,3.3.8,1.23,1.23,0,1,0,1.58-1.89,8.28,8.28,0,0,0-4.88-1.38,6.17,6.17,0,0,0-3,.76,5.59,5.59,0,0,0-1.86,1.68,4.4,4.4,0,0,0-.76,2.42,4.47,4.47,0,0,0,.57,2.13c1.13,2,3.19,2.87,5.17,3.68l.31.13c1.57.63,3.52,1.42,3.72,3.39,0,.13,0,.26,0,.4A.2.2,0,0,1,358.58,65.85Z"/><rect class="cls-6" x="82.29" y="87.66" width="125.3" height="199.62"/><polygon class="cls-4" points="207.59 87.66 238.41 120.23 238.41 287.28 207.59 287.28 207.59 87.66"/><polygon class="cls-29" points="207.59 87.66 238.41 120.23 238.41 287.28 207.59 287.28 207.59 87.66"/><path class="cls-4" d="M156.25,285.67h18.36V98.29H156.25Zm22.81,0h10.71V98.29H179.06Zm-67.63,0h18.36V98.29H111.43Zm22.81,0H145V98.29H134.24Zm-37.68,0h10.71V98.29H96.56Z"/><path class="cls-7" d="M181.88,116h7.89V104.23h-7.89Zm-22.41-11.78h15.14V116H159.47Zm-22.41,0H145V116h-7.89Zm-37.67,0h7.88V116H99.39Zm15.26,0h15.14V116H114.65Zm67.23,22h7.89V138h-7.89Zm-22.41,0h15.14V138H159.47Zm-22.41,0H145V138h-7.89Zm-37.67,0h7.88V138H99.39Zm15.26,0h15.14V138H114.65Zm67.23,22h7.89v11.78h-7.89Zm-22.41,0h15.14v11.78H159.47Zm-22.41,0H145v11.78h-7.89Zm-37.67,0h7.88v11.78H99.39Zm15.26,0h15.14v11.78H114.65Zm67.23,22h7.89V181.9h-7.89Zm-22.41,0h15.14V181.9H159.47Zm-22.41,0H145V181.9h-7.89Zm-37.67,0h7.88V181.9H99.39Zm15.26,0h15.14V181.9H114.65Zm67.23,22h7.89v11.78h-7.89Zm-22.41,0h15.14v11.78H159.47Zm-22.41,0H145v11.78h-7.89Zm-37.67,0h7.88v11.78H99.39Zm15.26,0h15.14v11.78H114.65Zm67.23,22h7.89v11.78h-7.89Zm-22.41,0h15.14v11.78H159.47Zm-22.41,0H145v11.78h-7.89Zm-37.67,0h7.88v11.78H99.39Zm15.26,0h15.14v11.78H114.65Zm67.23,22h7.89V247.8h-7.89Zm-22.41,0h15.14V247.8H159.47Zm-22.41,0H145V247.8h-7.89Zm-37.67,0h7.88V247.8H99.39Zm15.26,0h15.14V247.8H114.65Zm67.23,22h7.89v11.78h-7.89Zm-22.41,0h15.14v11.78H159.47Zm-22.41,0H145v11.78h-7.89Zm-37.67,0h7.88v11.78H99.39Zm15.26,0h15.14v11.78H114.65Z"/><rect class="cls-6" x="203.48" y="125.55" width="86.44" height="155.47"/><path class="cls-7" d="M274.09,262.34V281H262.93V262.34Zm-14.32,0H248.61V281h11.16V262.34Zm-14.32,0H234.29V281h11.16V262.34Zm-14.32,0H220V281h11.16V262.34Zm43-20.27H262.93v11.5h11.16v-11.5Zm-14.32,0H248.61v11.5h11.16v-11.5Zm-14.32,0H234.29v11.5h11.16v-11.5Zm-14.32,0H220v11.5h11.16v-11.5Zm43-20.26H262.93v11.5h11.16v-11.5Zm-14.32,0H248.61v11.5h11.16v-11.5Zm-14.32,0H234.29v11.5h11.16v-11.5Zm-14.32,0H220v11.5h11.16v-11.5Zm43-20.26H262.93v11.5h11.16v-11.5Zm-14.32,0H248.61v11.5h11.16v-11.5Zm-14.32,0H234.29v11.5h11.16v-11.5Zm-14.32,0H220v11.5h11.16v-11.5Zm43-20.26H262.93v11.49h11.16V181.29Zm-14.32,0H248.61v11.49h11.16V181.29Zm-14.32,0H234.29v11.49h11.16V181.29Zm-14.32,0H220v11.49h11.16V181.29Zm43-20.27H262.93v11.5h11.16V161Zm-14.32,0H248.61v11.5h11.16V161Zm-14.32,0H234.29v11.5h11.16V161Zm-14.32,0H220v11.5h11.16V161Zm43-20.26H262.93v11.5h11.16v-11.5Zm-14.32,0H248.61v11.5h11.16v-11.5Zm-14.32,0H234.29v11.5h11.16v-11.5Zm-14.32,0H220v11.5h11.16v-11.5Z"/><path class="cls-30" d="M264.65,253.57h9.44v-9.33h-9.44Zm-14.33-9.33h9.45v9.33h-9.45Zm-14.32,0h9.45v9.33H236Zm-14.32,0h9.45v9.33h-9.45Zm43-20.27h9.44v9.34h-9.44Zm-14.33,0h9.45v9.34h-9.45ZM236,224h9.45v9.34H236Zm-14.32,0h9.45v9.34h-9.45Zm43-20.26h9.44v9.34h-9.44Zm-14.33,0h9.45v9.34h-9.45Zm-14.32,0h9.45v9.34H236Zm-14.32,0h9.45v9.34h-9.45Zm43-20.26h9.44v9.33h-9.44Zm-14.33,0h9.45v9.33h-9.45Zm-14.32,0h9.45v9.33H236Zm-14.32,0h9.45v9.33h-9.45Zm43-20.27h9.44v9.34h-9.44Zm-14.33,0h9.45v9.34h-9.45Zm-14.32,0h9.45v9.34H236Zm-14.32,0h9.45v9.34h-9.45Zm43-20.26h9.44v9.34h-9.44Zm-14.33,0h9.45v9.34h-9.45Zm-14.32,0h9.45v9.34H236Zm-14.32,0h9.45v9.34h-9.45Zm43,138.1h9.44V264.5h-9.44ZM250.32,264.5h9.45V281h-9.45Zm-14.32,0h9.45V281H236Zm-14.32,0h9.45V281h-9.45Z"/><path class="cls-31" d="M264.65,253.57h9.44v-9.33h-9.44Zm-14.33-9.33h9.45v9.33h-9.45Zm-14.32,0h9.45v9.33H236Zm-14.32,0h9.45v9.33h-9.45Zm43-20.27h9.44v9.34h-9.44Zm-14.33,0h9.45v9.34h-9.45ZM236,224h9.45v9.34H236Zm-14.32,0h9.45v9.34h-9.45Zm43-20.26h9.44v9.34h-9.44Zm-14.33,0h9.45v9.34h-9.45Zm-14.32,0h9.45v9.34H236Zm-14.32,0h9.45v9.34h-9.45Zm43-20.26h9.44v9.33h-9.44Zm-14.33,0h9.45v9.33h-9.45Zm-14.32,0h9.45v9.33H236Zm-14.32,0h9.45v9.33h-9.45Zm43-20.27h9.44v9.34h-9.44Zm-14.33,0h9.45v9.34h-9.45Zm-14.32,0h9.45v9.34H236Zm-14.32,0h9.45v9.34h-9.45Zm43-20.26h9.44v9.34h-9.44Zm-14.33,0h9.45v9.34h-9.45Zm-14.32,0h9.45v9.34H236Zm-14.32,0h9.45v9.34h-9.45Zm43,138.1h9.44V264.5h-9.44ZM250.32,264.5h9.45V281h-9.45Zm-14.32,0h9.45V281H236Zm-14.32,0h9.45V281h-9.45Z"/></g></g><g id="Layer_15" data-name="Layer 15"><ellipse class="cls-32" cx="156.37" cy="392.24" rx="130.29" ry="7.03"/><path class="cls-33" d="M268.14,91.2a4.31,4.31,0,0,0-.36-1.28,4.24,4.24,0,0,0-.72-1.08,4.35,4.35,0,0,0-1.26-1,4.27,4.27,0,0,0-3.68,0l-21,9.51a34.17,34.17,0,0,0-16.47,16.19L112.75,346l-21-10.1h0L7.93,295.61a5.45,5.45,0,0,0-4.11-.25,5.69,5.69,0,0,0-1.67.92l-.22.19A5.28,5.28,0,0,0,.73,298l-.07.14s-.05.1-.07.14a5.62,5.62,0,0,0-.46,1.91c0,.09,0,.19,0,.28a5.71,5.71,0,0,0,.32,1.88,5.44,5.44,0,0,0,2.77,3.07L87,345.76,86.4,347l36.52,17.57.62-1.28L166.46,384l4.73-9.82L128.26,353.5h0l-7.84-3.77L209,165.64l.39.19h0a60.88,60.88,0,0,0-4.7,16.39l-18.09,130-7.45,53.53,8.45,1.17,7.27-52.28L213.12,183.4a52.14,52.14,0,0,1,4-13.87l.46.22,19.52-40.58-8.54-4.11,3.77-7.83a25.64,25.64,0,0,1,12.35-12.14l21-9.51a4.3,4.3,0,0,0,2.46-4.38Z"/><path class="cls-34" d="M241.74,98.78l24.06-10.9a4.35,4.35,0,0,1,1.26,1,4.24,4.24,0,0,1,.72,1.08,4.22,4.22,0,0,1,.25,2.84l-24,10.89a27.22,27.22,0,0,0-13.11,12.89L119,349l-4.84-2.33L226,114.22A32.51,32.51,0,0,1,241.74,98.78ZM.66,298.16s-.05.1-.07.14a5.62,5.62,0,0,0-.46,1.91c0,.09,0,.19,0,.28a5.71,5.71,0,0,0,.32,1.88l166.7,80.2,3.38-7L3.82,295.36a5.69,5.69,0,0,0-1.67.92l-.22.19A5.28,5.28,0,0,0,.73,298Zm185.58,67,25.32-181.95a54,54,0,0,1,4.8-15.9l18.8-39.07-4.83-2.33-11,22.84c-8.11,16.85-8.19,17-8.44,17.59l-.07.16a59.46,59.46,0,0,0-4.59,16l-25.31,182Z"/><path class="cls-35" d="M.66,298.16s-.05.1-.07.14a5.62,5.62,0,0,0-.46,1.91l167.8,80.73,1.8-3.75L1.93,296.47A5.28,5.28,0,0,0,.73,298ZM242.32,100l24.74-11.2a4.24,4.24,0,0,1,.72,1.08,4.31,4.31,0,0,1,.36,1.28L243.4,102.4a28.55,28.55,0,0,0-13.78,13.54L117.77,348.52l-2.34-1.12L227.28,114.82A31.12,31.12,0,0,1,242.32,100ZM185.4,364l25.18-181a54.72,54.72,0,0,1,4.89-16.19l19.05-38.95-3.24-1.56-11.05,22.81c-8,16.67-8.18,17-8.42,17.55l-.07.16a58.58,58.58,0,0,0-4.52,15.71L182,363.55Z"/><path class="cls-36" d="M112.75,346l4.14-8.62,7.69,3.7-4.15,8.62Zm10.79,17.29,8.17,3.93,4.73-9.82-8.17-3.93Zm-43.63-21L87,345.75l4.73-9.82-7.11-3.42Zm62.5,18.31c.17.68.36,1.34.56,2,.26.82.55,1.63.86,2.43a36.87,36.87,0,0,0,3,6.06,36.47,36.47,0,0,0,2.07,3c.78,1,1.62,2,2.5,2.94l14.8,7.12,4.73-9.82ZM184,332.32l-7.45,53.53L185,387l7.27-52.28c-.5-.21-1-.41-1.51-.6l-.95-.34c-1.09-.37-2.18-.69-3.29-1l-1-.22Zm25.41-166.49c-.19.41-.36.82-.53,1.25l7.69,3.69c.18-.41.35-.82.53-1.24Z"/><circle class="cls-33" cx="180.66" cy="371.38" r="22.68" transform="matrix(0.95, -0.32, 0.32, 0.95, -110.17, 78.16)"/><path class="cls-37" d="M167.84,365.21a14.22,14.22,0,1,0,19-6.65A14.23,14.23,0,0,0,167.84,365.21Z"/><path class="cls-2" d="M171.05,366.75a10.67,10.67,0,1,0,14.23-5A10.66,10.66,0,0,0,171.05,366.75Z"/><rect class="cls-38" x="34.04" y="220.83" width="95.97" height="114.36" transform="translate(-204.06 231.39) rotate(-64.31)"/><polygon class="cls-39" points="51.52 210.37 112.44 345.89 153.93 259.64 51.52 210.37"/><rect class="cls-23" x="88.12" y="234.56" width="20.59" height="19.82" transform="translate(-164.55 227.17) rotate(-64.31)"/><polygon class="cls-38" points="98.58 232.76 154.36 259.55 180.09 206.25 124.31 179.46 98.58 232.76"/><polygon class="cls-39" points="124.45 179.63 154.19 259.47 179.88 206.25 124.45 179.63"/><polygon class="cls-23" points="143.32 199.2 152.99 203.85 157.09 195.34 147.43 190.7 143.32 199.2"/><rect class="cls-38" x="147.71" y="155.14" width="38.73" height="47.08" transform="translate(-66.37 251.77) rotate(-64.31)"/><polygon class="cls-39" points="154.35 151.18 179.77 206.27 196.51 171.47 154.35 151.18"/><path class="cls-23" d="M171.82,159.63l7.35,3.54-3.57,7.42-7.35-3.53Z"/><rect class="cls-38" x="164.52" y="120.23" width="38.73" height="47.08" transform="translate(-25.4 247.14) rotate(-64.31)"/><polygon class="cls-39" points="171.16 116.28 196.57 171.37 213.32 136.56 171.16 116.28"/><rect class="cls-23" x="185.99" y="126.39" width="8.81" height="8.16" transform="translate(-9.72 245.47) rotate(-64.31)"/><rect class="cls-38" x="128.55" y="109.95" width="31.08" height="37.78" transform="translate(-34.48 202.83) rotate(-64.31)"/><polygon class="cls-39" points="133.88 106.78 154.28 150.99 167.72 123.05 133.88 106.78"/><rect class="cls-23" x="146.88" y="114.2" width="5.54" height="6.55" transform="translate(-21.09 201.4) rotate(-64.31)"/><rect class="cls-38" x="100.26" y="126.55" width="38.73" height="58.51" transform="translate(-72.64 196.06) rotate(-64.31)"/><polygon class="cls-39" points="101.75 125.83 137.47 185.88 154.21 151.07 101.75 125.83"/><polygon class="cls-23" points="118.05 143.02 130.78 149.15 134.4 141.6 121.68 135.46 118.05 143.02"/><polygon class="cls-38" points="42.8 205.96 98.58 232.75 124.3 179.44 68.52 152.66 42.8 205.96"/><polygon class="cls-39" points="68.66 152.82 98.41 232.67 124.09 179.44 68.66 152.82"/><polygon class="cls-23" points="87.53 172.4 97.2 177.04 101.3 168.54 91.64 163.9 87.53 172.4"/><path class="cls-2" d="M107,276.77l-.22-.1a19.87,19.87,0,0,0-11.23-17.3,19.56,19.56,0,0,0-12.71-1.43,14.59,14.59,0,0,0-5.28-4.37,15,15,0,0,0-20,7.24,14.62,14.62,0,0,0-.94,2.59,13,13,0,0,0-9.84,24.05l41.76,20c.51.24,1,.45,1.54.64s1,.57,1.51.82A17.81,17.81,0,0,0,107,276.77Z"/><path class="cls-40" d="M115,284.61a18,18,0,0,1-1.73,8.94,17.66,17.66,0,0,1-23.48,8.5,17.18,17.18,0,0,1-5.65-4.33,20.43,20.43,0,0,0,20.76-28.93,20.55,20.55,0,0,1-2,8.8,20.12,20.12,0,0,1-26.74,9.68A19.71,19.71,0,0,1,67,278.15a8.13,8.13,0,0,0,5.35-10.84,7.8,7.8,0,0,1-.75,4.15c-1.86,3.9-6.47,5.91-12,3.25a7.74,7.74,0,0,1-2.06-1.43,7.86,7.86,0,0,0,3.92,4.37,12.91,12.91,0,0,1-16.53,5,12.54,12.54,0,0,1-5.05-4.38,12.75,12.75,0,0,0,7,9.2L91.65,308.9a17.67,17.67,0,0,0,23.48-8.51A17.87,17.87,0,0,0,115,284.61Z"/><path class="cls-2" d="M97.49,192.55l-.12-.05a10.74,10.74,0,0,0-6.07-9.35,10.49,10.49,0,0,0-6.87-.77A7.9,7.9,0,0,0,81.57,180a8.12,8.12,0,0,0-10.79,3.91,8.21,8.21,0,0,0-.51,1.41,7,7,0,0,0-5.32,13l22.57,10.8a7.48,7.48,0,0,0,.84.35,7.89,7.89,0,0,0,.81.44,9.63,9.63,0,0,0,8.32-17.37Z"/><path class="cls-40" d="M101.81,196.79a9.78,9.78,0,0,1-.94,4.84,9.55,9.55,0,0,1-12.7,4.59,9.21,9.21,0,0,1-3-2.34,11,11,0,0,0,11.22-15.64,11,11,0,0,1-15.54,10,10.61,10.61,0,0,1-5-4.93,4.4,4.4,0,0,0,2.89-5.86,4.25,4.25,0,0,1-.4,2.25c-1,2.1-3.5,3.19-6.5,1.75a4.15,4.15,0,0,1-1.11-.77A4.2,4.2,0,0,0,72.82,193a7,7,0,0,1-8.93,2.69,6.69,6.69,0,0,1-2.73-2.36,6.88,6.88,0,0,0,3.79,5l24.22,11.59a9.55,9.55,0,0,0,12.7-4.59A9.69,9.69,0,0,0,101.81,196.79Z"/><path class="cls-2" d="M129.71,156.44l-.09,0a8.28,8.28,0,0,0-4.68-7.21,8.16,8.16,0,0,0-5.3-.6,6.15,6.15,0,0,0-10.53,1.2,6.06,6.06,0,0,0-.39,1.08,5.43,5.43,0,0,0-4.1,10L122,169.23c.21.1.42.19.64.27a6.31,6.31,0,0,0,.63.34,7.43,7.43,0,0,0,6.41-13.4Z"/><path class="cls-40" d="M133,159.71a7.48,7.48,0,0,1-.72,3.73,7.28,7.28,0,0,1-12.15,1.74,8.52,8.52,0,0,0,8.66-12.06,8.62,8.62,0,0,1-.84,3.67,8.38,8.38,0,0,1-11.15,4A8.21,8.21,0,0,1,113,157a3.39,3.39,0,0,0,2.23-4.52,3.31,3.31,0,0,1-.31,1.73c-.78,1.63-2.7,2.46-5,1.36a3.15,3.15,0,0,1-.86-.6,3.23,3.23,0,0,0,1.63,1.82,5.38,5.38,0,0,1-6.89,2.08,5.22,5.22,0,0,1-2.11-1.83,5.34,5.34,0,0,0,2.93,3.84l18.68,8.94a7.36,7.36,0,0,0,9.79-3.55A7.45,7.45,0,0,0,133,159.71Z"/><path class="cls-2" d="M175.69,179.44l-.08,0a6.79,6.79,0,0,0-8.26-6.47,5.11,5.11,0,0,0-1.83-1.51,5.19,5.19,0,0,0-6.89,2.5,4.82,4.82,0,0,0-.32.9,4.5,4.5,0,0,0-3.4,8.3l14.41,6.9.54.22c.16.1.34.19.52.28a6.15,6.15,0,0,0,5.31-11.09Z"/><path class="cls-40" d="M178.44,182.15a6.17,6.17,0,0,1-8.7,6,6,6,0,0,1-2-1.5,7,7,0,0,0,7.16-10,7,7,0,0,1-9.92,6.38,6.77,6.77,0,0,1-3.17-3.15,2.8,2.8,0,0,0,1.84-3.74,2.67,2.67,0,0,1-.25,1.43c-.65,1.34-2.24,2-4.15,1.12a2.8,2.8,0,0,1-.71-.49,2.7,2.7,0,0,0,1.35,1.51,4.45,4.45,0,0,1-5.7,1.71,4.31,4.31,0,0,1-1.75-1.51,4.4,4.4,0,0,0,2.42,3.18l15.47,7.4a6.17,6.17,0,0,0,8.06-8.38Z"/><path class="cls-2" d="M193,143.33l-.07,0a6.88,6.88,0,0,0-3.88-6,6.78,6.78,0,0,0-4.39-.49,5,5,0,0,0-1.82-1.51,5.18,5.18,0,0,0-6.89,2.5,6,6,0,0,0-.33.89,4.5,4.5,0,0,0-3.39,8.3l14.41,6.9c.18.09.35.16.53.23l.52.28A6.15,6.15,0,0,0,193,143.33Z"/><path class="cls-40" d="M195.73,146a6.15,6.15,0,0,1-.6,3.09,6.08,6.08,0,0,1-8.1,2.93,5.7,5.7,0,0,1-1.95-1.49,7.06,7.06,0,0,0,7.16-10,7,7,0,0,1-.7,3,6.93,6.93,0,0,1-9.22,3.34,6.71,6.71,0,0,1-3.17-3.14,2.8,2.8,0,0,0,1.84-3.75,2.62,2.62,0,0,1-.26,1.44c-.64,1.34-2.23,2-4.15,1.12a2.94,2.94,0,0,1-.71-.5,2.71,2.71,0,0,0,1.36,1.51,4.47,4.47,0,0,1-5.71,1.72,4.34,4.34,0,0,1-1.74-1.51A4.38,4.38,0,0,0,172.2,147l15.46,7.41a6.1,6.1,0,0,0,8.11-2.94A6.2,6.2,0,0,0,195.73,146Z"/><path class="cls-2" d="M151.13,128.33l-.06,0a5.26,5.26,0,0,0-3-4.58,5.12,5.12,0,0,0-3.36-.37,3.86,3.86,0,0,0-1.4-1.16,4,4,0,0,0-5.28,1.91,3.83,3.83,0,0,0-.25.69,3.44,3.44,0,0,0-2.6,6.36l11,5.29.41.17.4.22a4.71,4.71,0,0,0,4.07-8.5Z"/><path class="cls-40" d="M153.24,130.4a4.73,4.73,0,0,1-6.67,4.61,4.6,4.6,0,0,1-1.5-1.14,5.4,5.4,0,0,0,5.5-7.65,5.5,5.5,0,0,1-.54,2.32A5.31,5.31,0,0,1,143,131.1a5.17,5.17,0,0,1-2.43-2.41,2.16,2.16,0,0,0,1.36-1.14,2.13,2.13,0,0,0,.05-1.73,2,2,0,0,1-.19,1.1,2.23,2.23,0,0,1-3.18.86,2.15,2.15,0,0,1-.55-.38,2.1,2.1,0,0,0,1,1.16,3.43,3.43,0,0,1-4.37,1.32,3.37,3.37,0,0,1-1.34-1.16,3.35,3.35,0,0,0,1.86,2.43l11.85,5.68a4.68,4.68,0,0,0,6.21-2.25A4.75,4.75,0,0,0,153.24,130.4Z"/><path class="cls-2" d="M153,219.11l-.12-.06a10.74,10.74,0,0,0-6.07-9.35,10.61,10.61,0,0,0-6.87-.77,7.84,7.84,0,0,0-2.85-2.36,8.12,8.12,0,0,0-10.8,3.91,7.82,7.82,0,0,0-.51,1.4,7,7,0,0,0-5.31,13L143,235.69a8.51,8.51,0,0,0,.83.34c.27.16.54.31.82.45A9.63,9.63,0,0,0,153,219.11Z"/><path class="cls-40" d="M157.27,223.35a9.76,9.76,0,0,1-.94,4.83,9.54,9.54,0,0,1-12.69,4.59,9.15,9.15,0,0,1-3.06-2.34,10.94,10.94,0,0,0,11.17-6.19,11.05,11.05,0,0,0,.06-9.45,11.11,11.11,0,0,1-1.1,4.76,10.86,10.86,0,0,1-14.45,5.23,10.59,10.59,0,0,1-5-4.93,4.35,4.35,0,0,0,2.77-2.33,4.4,4.4,0,0,0,.12-3.53,4.26,4.26,0,0,1-.41,2.25c-1,2.1-3.5,3.19-6.5,1.75a4.15,4.15,0,0,1-1.11-.77,4.26,4.26,0,0,0,2.12,2.36,7,7,0,0,1-8.93,2.7,6.88,6.88,0,0,1-2.74-2.37,6.9,6.9,0,0,0,3.8,5l24.22,11.6a9.66,9.66,0,0,0,12.63-13.13Z"/><rect class="cls-12" x="311.83" y="178.24" width="12.42" height="83.66" transform="translate(636.09 440.15) rotate(180)"/><rect class="cls-41" x="311.83" y="178.24" width="12.42" height="83.66" transform="translate(636.09 440.15) rotate(180)"/><path class="cls-32" d="M468.94,295.49c0,1.89-58.92,3.42-117.63,3.42S245,297.38,245,295.49s47.59-3.43,106.3-3.43S468.94,293.59,468.94,295.49Z"/><path class="cls-42" d="M268.84,239.64,283.36,216a2.84,2.84,0,0,1,2.43-1.36h25.92a1.42,1.42,0,0,1,1.42,1.42v58.52a1.42,1.42,0,0,1-1.42,1.42H281.35a1.39,1.39,0,0,1-1.3-.87,15.08,15.08,0,0,0-28,0,1.42,1.42,0,0,1-1.31.87H248a1.43,1.43,0,0,1-1.43-1.42v-24a6.66,6.66,0,0,1,5.16-6.49L268,240.29A1.43,1.43,0,0,0,268.84,239.64Z"/><circle cx="402.81" cy="280.34" r="14.11" transform="translate(-87.76 266.68) rotate(-33.24)"/><circle cx="267.62" cy="280.34" r="14.11" transform="translate(-115.73 223.3) rotate(-37.87)"/><rect class="cls-43" x="249.53" y="268.09" width="187.56" height="16.75" rx="5.65" transform="translate(686.63 552.92) rotate(180)"/><path class="cls-44" d="M261.23,264.06H445.58V280.7a4.1,4.1,0,0,1-4.06,4.14H261.23a4.11,4.11,0,0,1-4.06-4.14V261.36C257.17,259.08,259,255.06,261.23,264.06Z"/><circle class="cls-45" cx="273.77" cy="282.51" r="14.11" transform="translate(-119.58 276.33) rotate(-45)"/><circle class="cls-46" cx="275.17" cy="282.51" r="14.11" transform="translate(-119.1 291.68) rotate(-47.09)"/><circle class="cls-4" cx="275.17" cy="282.51" r="7.06" transform="translate(-41.6 47.59) rotate(-9.19)"/><path class="cls-47" d="M277.47,283.62a.7.7,0,0,0-.69.82l.57,3.27-.47.11-1-4.19h-.36l-.32.17,1,4.19-.47.12-1-3.15a.7.7,0,0,0-1-.4l-2.93,1.55-.26-.41,3.67-2.29-.11-.34-.26-.25-3.67,2.29-.25-.41,2.67-2a.69.69,0,0,0,.08-1.06l-2.38-2.31.31-.37,3.31,2.78.29-.21.16-.32L271,278.47l.31-.37L274,280a.7.7,0,0,0,1-.26l1.46-3,.44.18-1.61,4,.29.21.35.05,1.62-4,.45.18-1,3.16a.71.71,0,0,0,.57.91l3.28.47,0,.48-4.32-.3-.11.34.06.35,4.32.3,0,.48Zm-2.51-.69v0l0,0v0Zm.3-.19.19-.12.08-.21,0-.21-.17-.15-.23,0-.19.12-.09.21.06.22.17.15Zm-.67-.38h0Zm.43-.53,0,0v0h0Zm.63.24,0,0h0Zm0,.7h0v0h0Z"/><path class="cls-2" d="M280.81,284.85a6.15,6.15,0,1,1-3.4-8A6.16,6.16,0,0,1,280.81,284.85Zm-.68-.28a5.42,5.42,0,1,0-7.05,3A5.41,5.41,0,0,0,280.13,284.57Z"/><path class="cls-4" d="M276.67,283a1.62,1.62,0,1,1-.9-2.1A1.63,1.63,0,0,1,276.67,283Z"/><path class="cls-48" d="M276.16,282.79a1.07,1.07,0,1,1-.59-1.39A1.06,1.06,0,0,1,276.16,282.79Z"/><path class="cls-49" d="M275.76,282.63a.64.64,0,1,1-.35-.83A.64.64,0,0,1,275.76,282.63Z"/><path class="cls-50" d="M278.07,239.64,292.59,216A2.84,2.84,0,0,1,295,214.6h24.29a1.43,1.43,0,0,1,1.43,1.42v58.52a1.43,1.43,0,0,1-1.43,1.42H290.58a1.39,1.39,0,0,1-1.3-.87,15.08,15.08,0,0,0-28,0A1.42,1.42,0,0,1,260,276h-2.79a1.43,1.43,0,0,1-1.43-1.42v-24a6.66,6.66,0,0,1,5.16-6.49l16.23-3.79A1.43,1.43,0,0,0,278.07,239.64Z"/><path class="cls-50" d="M255.79,248.15h64.94a0,0,0,0,1,0,0v3.06a6.35,6.35,0,0,1-6.35,6.35H255.79a0,0,0,0,1,0,0v-9.42A0,0,0,0,1,255.79,248.15Z" transform="translate(576.53 505.72) rotate(180)"/><path class="cls-4" d="M252.89,251.9h1a1.25,1.25,0,0,1,1.25,1.25v6a1.25,1.25,0,0,1-1.25,1.25h-1a.87.87,0,0,1-.87-.87v-6.73a.87.87,0,0,1,.87-.87Z" transform="translate(507.19 512.28) rotate(-180)"/><path class="cls-4" d="M247,251.9h1a1.12,1.12,0,0,1,1.12,1.12v6.25a1.11,1.11,0,0,1-1.11,1.11h-1a1,1,0,0,1-1-1v-6.45a1,1,0,0,1,1-1Z" transform="translate(495.19 512.28) rotate(180)"/><path class="cls-51" d="M269.44,239.78h7.05a1.91,1.91,0,0,0,1.61-.89l12.44-20.25a.6.6,0,0,0-.52-.92h-6a2.87,2.87,0,0,0-2.43,1.36l-12.44,20.25A.29.29,0,0,0,269.44,239.78Z"/><path class="cls-51" d="M284.8,239.75h25.56a1.47,1.47,0,0,0,1.47-1.47V219.54a1.47,1.47,0,0,0-1.47-1.47H296.3a1.48,1.48,0,0,0-1.25.7l-11.5,18.74A1.47,1.47,0,0,0,284.8,239.75Z"/><g class="cls-52"><path class="cls-53" d="M284.17,214.05l11.59-7.58,20.7,31.68-11.59,7.57Zm15.15,36.63,4.28-2.8-20.71-31.67-4.28,2.8Z"/></g><rect class="cls-54" x="281.83" y="234.63" width="2.97" height="9.96" rx="1" transform="translate(566.63 479.22) rotate(-180)"/><path class="cls-55" d="M284.37,244.59h0a.94.94,0,0,0,.94-.94v-8.08a.94.94,0,0,0-.94-.94h0a.93.93,0,0,0-.93.94v8.08A.93.93,0,0,0,284.37,244.59Z"/><path class="cls-44" d="M324.18,261.91H452.49a0,0,0,0,1,0,0v9a0,0,0,0,1,0,0H323.37a2.63,2.63,0,0,1-2.63-2.63v-2.93A3.44,3.44,0,0,1,324.18,261.91Z" transform="translate(773.22 532.82) rotate(-180)"/><ellipse class="cls-56" cx="411.75" cy="272.13" rx="15.8" ry="7.1"/><circle class="cls-56" cx="410.16" cy="282.51" r="14.11" transform="translate(-78.46 378.92) rotate(-45.72)"/><circle class="cls-46" cx="412.32" cy="282.51" r="14.11" transform="translate(-66.55 425.71) rotate(-51.07)"/><circle class="cls-4" cx="412.32" cy="282.51" r="7.06" transform="translate(-48.5 88.96) rotate(-11.63)"/><path class="cls-47" d="M414.73,283.62a.69.69,0,0,0-.68.82l.57,3.27-.47.11-1-4.19h-.36l-.32.17,1.05,4.19-.47.12L412,285a.7.7,0,0,0-1-.4l-2.93,1.55-.26-.41,3.67-2.29-.11-.34-.26-.25-3.67,2.29-.25-.41,2.67-2a.69.69,0,0,0,.08-1.06l-2.38-2.31.31-.37,3.31,2.78.29-.21.16-.32-3.32-2.78.31-.37,2.69,1.94a.7.7,0,0,0,1-.26l1.46-3,.45.18-1.62,4,.29.21.35.05,1.62-4,.45.18-1,3.16a.71.71,0,0,0,.57.91l3.28.47,0,.48-4.32-.3-.11.34.07.35,4.31.3,0,.48Zm-2.5-.69v0l0,0v0Zm.29-.19.19-.12.09-.21-.06-.21-.17-.15-.23,0-.19.12-.08.21.05.22.17.15Zm-.66-.38h0Zm.42-.53,0,0v0h0Zm.63.24,0,0h0Zm0,.7h0v0h0Z"/><path class="cls-2" d="M418.07,284.85a6.15,6.15,0,1,1-3.4-8A6.14,6.14,0,0,1,418.07,284.85Zm-.67-.28a5.42,5.42,0,1,0-7.06,3A5.42,5.42,0,0,0,417.4,284.57Z"/><path class="cls-2" d="M413.93,283a1.62,1.62,0,1,1-.89-2.1A1.62,1.62,0,0,1,413.93,283Z"/><path class="cls-57" d="M413.42,282.79a1.07,1.07,0,1,1-.59-1.39A1.06,1.06,0,0,1,413.42,282.79Z"/><path class="cls-49" d="M413,282.63a.63.63,0,0,1-.83.35.64.64,0,0,1-.35-.83.64.64,0,0,1,1.18.48Z"/><g class="cls-58"><path class="cls-59" d="M390.94,283.23a21.38,21.38,0,1,0,42.75,0c0-11.8-9.57-21.91-21.37-21.91S390.94,271.43,390.94,283.23Z"/><circle class="cls-59" cx="275.17" cy="281.8" r="21.02" transform="translate(-103.9 388.73) rotate(-61.44)"/></g><path class="cls-2" d="M261,277.81h-6.93a1.66,1.66,0,0,1-1.66-1.66l-.72-7.57a1.66,1.66,0,0,1,1.66-1.66H261a1.67,1.67,0,0,1,1.67,1.66v7.57A1.67,1.67,0,0,1,261,277.81Z"/><path class="cls-4" d="M244.32,266.92h5.52a3.67,3.67,0,0,1,3.67,3.67v3.54a3.67,3.67,0,0,1-3.67,3.67h-5.52a0,0,0,0,1,0,0V266.92a0,0,0,0,1,0,0Z" transform="translate(497.82 544.73) rotate(-180)"/><path class="cls-7" d="M244.32,266.92h5.52a3.67,3.67,0,0,1,3.67,3.67v3.54a3.67,3.67,0,0,1-3.67,3.67h-5.52a0,0,0,0,1,0,0V266.92a0,0,0,0,1,0,0Z" transform="translate(497.82 544.73) rotate(-180)"/><path class="cls-60" d="M251.34,272.49c0,1.4.41,2.53.93,2.53s.93-1.13.93-2.53-.42-2.54-.93-2.54S251.34,271.09,251.34,272.49Z"/><path class="cls-61" d="M250.79,272.49c0,1.4.42,2.53.93,2.53s.94-1.13.94-2.53-.42-2.54-.94-2.54S250.79,271.09,250.79,272.49Z"/><path class="cls-60" d="M245,272.49c0,1.4.42,2.53.93,2.53s.94-1.13.94-2.53-.42-2.54-.94-2.54S245,271.09,245,272.49Z"/><path class="cls-61" d="M244.47,272.49c0,1.4.42,2.53.93,2.53s.93-1.13.93-2.53-.41-2.54-.93-2.54S244.47,271.09,244.47,272.49Z"/><path class="cls-62" d="M313.13,214.6l-1.33,4.62a1.66,1.66,0,0,1,0,.32v18.74a1.47,1.47,0,0,1-1.47,1.47h-4.51L295.37,276l25.37,0V214.6C320.74,214.3,313.13,214.6,313.13,214.6Z"/><line class="cls-63" x1="315.78" y1="216.44" x2="315.78" y2="274.46"/><line class="cls-63" x1="278.67" y1="243.42" x2="278.67" y2="258.9"/><rect class="cls-64" x="306.74" y="250.29" width="4.97" height="2.73" rx="0.92" transform="translate(618.45 503.32) rotate(180)"/><rect class="cls-65" x="380.12" y="261.99" width="2.64" height="19.26" transform="translate(762.88 543.23) rotate(180)"/><rect class="cls-65" x="332.3" y="261.99" width="2.64" height="19.26" transform="translate(667.23 543.23) rotate(180)"/><rect class="cls-2" x="327.07" y="268.16" width="60.14" height="3.46" transform="translate(714.28 539.77) rotate(180)"/><g class="cls-66"><polygon class="cls-50" points="388.15 271.63 384.68 268.16 381.55 268.15 385.02 271.62 388.15 271.63"/><polygon class="cls-50" points="381.72 271.63 378.25 268.16 375.12 268.15 378.59 271.62 381.72 271.63"/><polygon class="cls-50" points="375.29 271.63 371.82 268.16 368.69 268.15 372.16 271.62 375.29 271.63"/><polygon class="cls-50" points="368.86 271.63 365.39 268.16 362.26 268.15 365.73 271.62 368.86 271.63"/><polygon class="cls-50" points="362.43 271.63 358.96 268.16 355.83 268.15 359.3 271.62 362.43 271.63"/><polygon class="cls-50" points="356 271.63 352.53 268.16 349.4 268.15 352.87 271.62 356 271.63"/><polygon class="cls-50" points="349.57 271.63 346.1 268.16 342.98 268.15 346.44 271.62 349.57 271.63"/><polygon class="cls-50" points="343.14 271.63 339.67 268.16 336.55 268.15 340.01 271.62 343.14 271.63"/><polygon class="cls-50" points="336.71 271.63 333.24 268.16 330.12 268.15 333.58 271.62 336.71 271.63"/><polygon class="cls-50" points="330.29 271.63 326.81 268.16 323.69 268.15 327.15 271.62 330.29 271.63"/></g><rect class="cls-2" x="327.07" y="278.03" width="60.14" height="3.46" transform="translate(714.28 559.52) rotate(180)"/><g class="cls-67"><polygon class="cls-50" points="388.15 281.51 384.68 278.03 381.55 278.03 385.02 281.49 388.15 281.51"/><polygon class="cls-50" points="381.72 281.51 378.25 278.03 375.12 278.03 378.59 281.49 381.72 281.51"/><polygon class="cls-50" points="375.29 281.51 371.82 278.03 368.69 278.03 372.16 281.49 375.29 281.51"/><polygon class="cls-50" points="368.86 281.51 365.39 278.03 362.26 278.03 365.73 281.49 368.86 281.51"/><polygon class="cls-50" points="362.43 281.51 358.96 278.03 355.83 278.03 359.3 281.49 362.43 281.51"/><polygon class="cls-50" points="356 281.51 352.53 278.03 349.4 278.03 352.87 281.49 356 281.51"/><polygon class="cls-50" points="349.57 281.51 346.1 278.03 342.98 278.03 346.44 281.49 349.57 281.51"/><polygon class="cls-50" points="343.14 281.51 339.67 278.03 336.55 278.03 340.01 281.49 343.14 281.51"/><polygon class="cls-50" points="336.71 281.51 333.24 278.03 330.12 278.03 333.58 281.49 336.71 281.51"/><polygon class="cls-50" points="330.29 281.51 326.81 278.03 323.69 278.03 327.15 281.49 330.29 281.51"/></g><path class="cls-12" d="M329.9,178.24H470.72a5.64,5.64,0,0,1,5.64,5.64v78a0,0,0,0,1,0,0H329.9a5.64,5.64,0,0,1-5.64-5.64V183.88A5.64,5.64,0,0,1,329.9,178.24Z" transform="translate(800.62 440.15) rotate(180)"/><path class="cls-2" d="M422.05,207.74h-.24a19.84,19.84,0,0,0-17.48-10.86A19.51,19.51,0,0,0,392.25,201a14.44,14.44,0,0,0-6.63-1.71,15,15,0,0,0-15,15,14.55,14.55,0,0,0,.25,2.74,13,13,0,0,0,1.32,25.89l46.18.35c.57,0,1.12,0,1.67-.08a16,16,0,0,0,1.71.1,17.77,17.77,0,0,0,.26-35.54Z"/><path class="cls-40" d="M432.59,211.44a17.86,17.86,0,0,1,2.22,8.8,17.61,17.61,0,0,1-17.6,17.64,17.32,17.32,0,0,1-6.94-1.51,20.38,20.38,0,0,0,6.48-34.94,20.42,20.42,0,0,1,1.91,8.81,20.06,20.06,0,0,1-20,20.08A19.56,19.56,0,0,1,386.46,226a8.12,8.12,0,0,0,.23-12.06,7.89,7.89,0,0,1,1.09,4.07c0,4.31-3.34,8.08-9.48,8a8,8,0,0,1-2.46-.42,7.78,7.78,0,0,0,5.38,2.29,12.87,12.87,0,0,1-12.81,11.5,12.46,12.46,0,0,1-6.42-1.81,12.7,12.7,0,0,0,10.24,5.33l49.56.37a17.62,17.62,0,0,0,17.6-17.64A17.84,17.84,0,0,0,432.59,211.44Z"/><g class="cls-68"><g class="cls-69"><rect class="cls-2" x="386" y="139.55" width="39.78" height="162.02" transform="translate(848.86 89.51) rotate(135)"/><rect class="cls-2" x="356.33" y="160.2" width="14.88" height="127.51" transform="translate(779.35 125.09) rotate(135)"/></g></g><g class="cls-70"><line class="cls-71" x1="470.32" y1="231.93" x2="332.43" y2="231.93"/></g><g class="cls-70"><line class="cls-71" x1="470.32" y1="237.11" x2="332.43" y2="237.11"/></g><path class="cls-72" d="M325.94,179.92v80.31H474.68V179.92H325.94m-1.68-1.68H475.8a.57.57,0,0,1,.56.57v82.53a.57.57,0,0,1-.56.57h-151a.57.57,0,0,1-.56-.57v-83.1Z"/></g></g></svg>