<svg id="partners-cloud-service" xmlns="http://www.w3.org/2000/svg" width="104.699" height="104.699" viewBox="0 0 104.699 104.699">
  <g id="Labels" transform="translate(0)">
    <ellipse id="Ellipse_203" data-name="Ellipse 203" cx="52.35" cy="52.35" rx="52.35" ry="52.35" fill="#cceafa"/>
  </g>
  <g id="Icon_Art" data-name="Icon Art" transform="translate(13.384 19.241)">
    <g id="Group_1789" data-name="Group 1789">
      <g id="Group_1785" data-name="Group 1785">
        <g id="Group_1777" data-name="Group 1777" transform="translate(28.258 15.371)">
          <path id="Path_2552" data-name="Path 2552" d="M546.421,1936.167l-.1,43.878-49.575,6.968.1-43.878Z" transform="translate(-496.746 -1936.167)" fill="#50a2da"/>
        </g>
        <g id="Group_1778" data-name="Group 1778" transform="translate(0 6.971)">
          <path id="Path_2553" data-name="Path 2553" d="M490.132,1941.137l-.1,43.88-28.261-15.375.1-43.871,10.837,5.892,6.506,3.537Z" transform="translate(-461.772 -1925.771)" fill="#50a2da"/>
        </g>
        <g id="Group_1779" data-name="Group 1779" transform="translate(0.1)">
          <path id="Path_2554" data-name="Path 2554" d="M490.152,1939.481,461.9,1924.11l49.575-6.967,28.257,15.371Z" transform="translate(-461.896 -1917.142)" fill="#9ed0f0"/>
        </g>
        <g id="Group_1780" data-name="Group 1780" transform="translate(0 6.971)" style="mix-blend-mode: multiply;isolation: isolate">
          <path id="Path_2555" data-name="Path 2555" d="M490.132,1941.137l-.1,43.88-28.261-15.375.1-43.871,10.837,5.892,6.506,3.537Z" transform="translate(-461.772 -1925.771)" fill="#50a2da"/>
        </g>
        <g id="Group_1781" data-name="Group 1781" transform="translate(10.909 14.368)">
          <path id="Path_2556" data-name="Path 2556" d="M481.807,1938.463V1949.5l-.469.226-.505-.794-.514.244-.505-.794-.514.244-.514-.794-.505.244-.514-.794-.505.244-.514-.785-.505.244-.514-.794-.451.216.027-11.48Z" transform="translate(-475.274 -1934.926)" fill="#50a2da"/>
        </g>
        <g id="Group_1782" data-name="Group 1782" transform="translate(10.936 5.896)">
          <path id="Path_2557" data-name="Path 2557" d="M481.813,1934.945l-6.506-3.537,49.575-6.967,6.408,3.486Z" transform="translate(-475.307 -1924.44)" fill="#50a2da"/>
        </g>
        <g id="Group_1783" data-name="Group 1783" transform="translate(31.777 27.384)">
          <path id="Path_2558" data-name="Path 2558" d="M534.408,1955.449l-.131.021a9.093,9.093,0,0,0-9.377-4.331,12.164,12.164,0,0,0-6.439,3.1,7.32,7.32,0,0,0-3.543-.377,9.422,9.422,0,0,0-7.934,9.038,7.622,7.622,0,0,0,.145,1.417,8.11,8.11,0,0,0-6.027,7.591,5.812,5.812,0,0,0,6.834,5.885l24.668-3.43q.451-.063.889-.169.452-.018.915-.082a11.08,11.08,0,0,0,9.33-10.627A7.933,7.933,0,0,0,534.408,1955.449Z" transform="translate(-501.102 -1951.036)" fill="#e6f6fd"/>
          <path id="Path_2559" data-name="Path 2559" d="M540.37,1956.926a8.378,8.378,0,0,1,1.222,4.444A11.078,11.078,0,0,1,532.262,1972a8.785,8.785,0,0,1-3.712-.252,12.63,12.63,0,0,0,7.291-11.1,9.083,9.083,0,0,0-3.969-7.729,9.671,9.671,0,0,1,1.053,4.469,12.614,12.614,0,0,1-10.621,12.1,9.542,9.542,0,0,1-6.511-1.328,4.873,4.873,0,0,0,1.47-3.4,3.627,3.627,0,0,0-1.4-2.94,3.656,3.656,0,0,1,.6,2.048c0,2.262-1.755,4.5-5.034,4.953a4.06,4.06,0,0,1-1.316-.028,3.728,3.728,0,0,0,2.887.78,8.158,8.158,0,0,1-6.8,7.035,6.281,6.281,0,0,1-3.438-.45,5.93,5.93,0,0,0,5.488,2l26.472-3.68a11.079,11.079,0,0,0,9.33-10.627A7.958,7.958,0,0,0,540.37,1956.926Z" transform="translate(-501.422 -1951.397)" fill="#cceafa"/>
        </g>
        <g id="Group_1784" data-name="Group 1784" transform="translate(5.851 31.428)">
          <path id="Path_2560" data-name="Path 2560" d="M470.1,1965.651a4.79,4.79,0,0,1-.8-1.483,5.386,5.386,0,0,1-.285-1.747v-4.246a3.13,3.13,0,0,1,.285-1.451,1.173,1.173,0,0,1,.8-.655,1.8,1.8,0,0,1,1.189.228,3.689,3.689,0,0,1,1.19.972,4.7,4.7,0,0,1,.8,1.446,5.155,5.155,0,0,1,.285,1.711v.087a.16.16,0,0,1-.036.111.067.067,0,0,1-.088.014l-.963-.431a.218.218,0,0,1-.088-.1.305.305,0,0,1-.036-.141v-.174a2.669,2.669,0,0,0-.295-1.247,1.793,1.793,0,0,0-.772-.809.645.645,0,0,0-.781.022,1.25,1.25,0,0,0-.295.948v4.433a2.628,2.628,0,0,0,.295,1.24,1.821,1.821,0,0,0,.781.808.644.644,0,0,0,.772-.021,1.223,1.223,0,0,0,.295-.941v-.187c0-.1.041-.137.124-.1l.963.546a.2.2,0,0,1,.124.178v.115a3.1,3.1,0,0,1-.285,1.438,1.157,1.157,0,0,1-.8.647,1.831,1.831,0,0,1-1.19-.235A3.6,3.6,0,0,1,470.1,1965.651Z" transform="translate(-469.014 -1956.041)" fill="#124a88"/>
          <path id="Path_2561" data-name="Path 2561" d="M477.34,1969.351a4.383,4.383,0,0,1-.8-1.372,4.62,4.62,0,0,1-.28-1.593v-.375a.135.135,0,0,1,.036-.105.073.073,0,0,1,.088-.006l.932.472a.212.212,0,0,1,.088.1.308.308,0,0,1,.036.141v.288a2.33,2.33,0,0,0,.31,1.168,1.965,1.965,0,0,0,.827.809q.476.241.74.028a.95.95,0,0,0,.264-.776,1.962,1.962,0,0,0-.145-.745,3.7,3.7,0,0,0-.409-.727q-.264-.372-.823-1.059-.631-.768-1.014-1.331a5.826,5.826,0,0,1-.641-1.256,4.281,4.281,0,0,1-.259-1.5,1.937,1.937,0,0,1,.59-1.664,1.453,1.453,0,0,1,1.563.07,3.78,3.78,0,0,1,1.19.957,4.579,4.579,0,0,1,.8,1.411,4.818,4.818,0,0,1,.284,1.632v.3a.133.133,0,0,1-.036.1.072.072,0,0,1-.087.006l-.942-.478a.212.212,0,0,1-.088-.1.3.3,0,0,1-.036-.142v-.275a2.47,2.47,0,0,0-.295-1.175,1.874,1.874,0,0,0-.812-.816.632.632,0,0,0-.7-.029.94.94,0,0,0-.254.774,1.98,1.98,0,0,0,.134.732,3.386,3.386,0,0,0,.41.727q.274.385.823,1.053.744.97,1.1,1.48a5.383,5.383,0,0,1,.595,1.161,4.008,4.008,0,0,1,.243,1.416,2,2,0,0,1-.611,1.7,1.507,1.507,0,0,1-1.635-.071A3.857,3.857,0,0,1,477.34,1969.351Z" transform="translate(-470.406 -1956.734)" fill="#124a88"/>
          <path id="Path_2562" data-name="Path 2562" d="M484.554,1972.989a4.821,4.821,0,0,1-.807-1.514,5.674,5.674,0,0,1-.285-1.8V1965.6a3.354,3.354,0,0,1,.285-1.494,1.207,1.207,0,0,1,.807-.7,1.765,1.765,0,0,1,1.205.221,3.681,3.681,0,0,1,1.216,1.007,4.912,4.912,0,0,1,.813,1.516,5.587,5.587,0,0,1,.289,1.786v4.073a3.34,3.34,0,0,1-.289,1.506,1.229,1.229,0,0,1-.813.693,1.788,1.788,0,0,1-1.216-.227A3.661,3.661,0,0,1,484.554,1972.989Zm2.018-.486a1.4,1.4,0,0,0,.3-1.022v-4.187a2.972,2.972,0,0,0-.3-1.346,1.86,1.86,0,0,0-.813-.867.629.629,0,0,0-.8.051,1.45,1.45,0,0,0-.3,1.039v4.188a2.951,2.951,0,0,0,.3,1.329,1.821,1.821,0,0,0,.8.86A.65.65,0,0,0,486.573,1972.5Z" transform="translate(-471.789 -1957.451)" fill="#124a88"/>
        </g>
      </g>
      <g id="Group_1788" data-name="Group 1788" transform="translate(48.126 16.679)">
        <g id="Group_1786" data-name="Group 1786" transform="translate(1.731 13.965)">
          <path id="Path_2563" data-name="Path 2563" d="M532.444,1976.7l-3.062-4.816-5.9,2.263,7.942-17.665,7.436,2.118Z" transform="translate(-523.48 -1955.342)" fill="#970b22"/>
          <path id="Path_2564" data-name="Path 2564" d="M540.57,1975.576l3.062-5.677,5.9.6-7.942-15.433-7.436,4.208Z" transform="translate(-525.53 -1955.07)" fill="#970b22"/>
        </g>
        <path id="Path_2565" data-name="Path 2565" d="M548.8,1949.6c0,1.16-1.68,2.32-1.966,3.431-.3,1.148.689,2.648.128,3.7-.569,1.063-2.486,1.3-3.284,2.2s-.76,2.821-1.744,3.528-2.607-.058-3.714.393c-1.07.436-1.994,2.247-3.153,2.41s-2.085-1.388-3.154-1.524c-1.107-.141-2.745,1.075-3.715.65s-.945-2.353-1.743-3.039-2.715-.379-3.284-1.281.424-2.668.128-3.733c-.286-1.03-1.967-1.717-1.967-2.877s1.681-2.32,1.967-3.431c.3-1.148-.689-2.649-.128-3.7.569-1.063,2.486-1.3,3.284-2.2s.76-2.821,1.744-3.528,2.607.058,3.714-.393c1.07-.436,1.994-2.247,3.154-2.41s2.084,1.388,3.153,1.524c1.107.141,2.745-1.074,3.715-.65s.945,2.353,1.743,3.039,2.715.379,3.284,1.281-.424,2.668-.128,3.733C547.123,1947.755,548.8,1948.441,548.8,1949.6Z" transform="translate(-521.337 -1937.786)" fill="#d02128"/>
        <g id="Group_1787" data-name="Group 1787" transform="translate(4.832 4.756)">
          <path id="Path_2566" data-name="Path 2566" d="M545.12,1951.412a10.59,10.59,0,0,1-8.9,10.15,7.555,7.555,0,0,1-8.9-7.649,10.591,10.591,0,0,1,8.9-10.152,7.557,7.557,0,0,1,8.9,7.651" transform="translate(-527.318 -1943.673)" fill="#e0f2f7"/>
          <path id="Path_2567" data-name="Path 2567" d="M543.914,1952.014a8.711,8.711,0,0,1-7.322,8.35,6.216,6.216,0,0,1-7.322-6.292,8.711,8.711,0,0,1,7.322-8.351,6.216,6.216,0,0,1,7.322,6.293" transform="translate(-527.693 -1944.053)" fill="#fff"/>
        </g>
        <path id="Path_2568" data-name="Path 2568" d="M531.227,1954.307a.308.308,0,0,1,.026-.429l1.493-1.529a.3.3,0,0,1,.426-.033l2.111,2.095a.285.285,0,0,0,.414-.044l5.081-5.764a.309.309,0,0,1,.427-.059l1.4,1.216a.3.3,0,0,1,0,.427l-7.033,7.979a.285.285,0,0,1-.414.044Z" transform="translate(-523.222 -1939.84)" fill="#d02128"/>
      </g>
    </g>
  </g>
</svg>
