<?xml version="1.0" encoding="UTF-8"?>
<svg id="Layer_15" data-name="Layer 15" xmlns="http://www.w3.org/2000/svg" viewBox="0 0 520 360">
  <defs>
    <style>
      .cls-1 {
        fill: #385c91;
      }

      .cls-1, .cls-2, .cls-3, .cls-4, .cls-5, .cls-6, .cls-7, .cls-8, .cls-9, .cls-10, .cls-11, .cls-12, .cls-13, .cls-14, .cls-15, .cls-16 {
        stroke-width: 0px;
      }

      .cls-1, .cls-2, .cls-3, .cls-4, .cls-6, .cls-7, .cls-10, .cls-11, .cls-15 {
        fill-rule: evenodd;
      }

      .cls-2 {
        fill: #162e51;
      }

      .cls-3 {
        fill: #c6c6c6;
      }

      .cls-4 {
        fill: #ececec;
      }

      .cls-5 {
        fill: #f2f2f2;
        opacity: .6;
      }

      .cls-6 {
        fill: #5373a0;
      }

      .cls-7 {
        fill: #254d86;
      }

      .cls-8 {
        fill: #d9f1fd;
      }

      .cls-9 {
        fill: #c71f25;
      }

      .cls-10 {
        fill: #b3b3b3;
      }

      .cls-11, .cls-13 {
        fill: #fff;
      }

      .cls-12 {
        fill: #757575;
      }

      .cls-14 {
        fill: #e6e6e6;
      }

      .cls-15 {
        fill: #1a4480;
      }

      .cls-16 {
        fill: #0a90b7;
      }
    </style>
  </defs>
  <path class="cls-8" d="M504.29,264.97c23.77-81.72-4.55-170.64-127.76-185.99-58.94-7.34-97.17,30.76-168.93-9.93C151.72,37.36,83.37-.99,30.27,59.56c-77.29,88.14,116.24,215.15,219.38,262.84,113.45,52.46,224.42,46.48,254.64-57.43Z"/>
  <path class="cls-5" d="M30.88,279.02c42.62,73.67,126.45,114.67,222.72,36.24,46.05-37.52,44.94-91.48,123.95-115.21,61.52-18.48,136.48-41.36,129.43-121.58-10.27-116.78-235.82-64.72-341.58-23.16C49.06,101.04-23.32,185.36,30.88,279.02Z"/>
  <path class="cls-12" d="M435.14,196.64v-4.97h-3.96c-.25-1.07-.68-2.06-1.23-2.97l2.8-2.8-3.51-3.51-2.8,2.8c-.91-.56-1.9-.97-2.97-1.23v-3.96h-4.96v3.96c-1.07.26-2.06.68-2.98,1.23l-2.79-2.8-3.51,3.51,2.8,2.8c-.55.91-.97,1.9-1.23,2.97h-3.96v4.97h3.96c.25,1.06.68,2.06,1.23,2.97l-2.8,2.79,3.51,3.51,2.79-2.8c.92.55,1.91.97,2.98,1.23v3.96h4.96v-3.96c1.07-.25,2.06-.68,2.97-1.23l2.8,2.8,3.51-3.51-2.8-2.79c.56-.91.98-1.91,1.23-2.97h3.96ZM420.98,200.34c-3.41,0-6.17-2.77-6.17-6.18s2.76-6.18,6.17-6.18,6.18,2.76,6.18,6.18-2.76,6.18-6.18,6.18Z"/>
  <path class="cls-12" d="M117.09,311.31v-7.62h-6.07c-.39-1.64-1.04-3.16-1.89-4.56l4.3-4.3-5.39-5.39-4.3,4.3c-1.39-.86-2.92-1.49-4.56-1.89v-6.07h-7.61v6.07c-1.64.4-3.16,1.04-4.57,1.89l-4.29-4.3-5.39,5.39,4.29,4.3c-.84,1.39-1.49,2.92-1.88,4.56h-6.07v7.62h6.07c.39,1.62,1.04,3.16,1.88,4.56l-4.29,4.29,5.39,5.39,4.29-4.29c1.4.84,2.93,1.49,4.57,1.88v6.07h7.61v-6.07c1.64-.39,3.16-1.04,4.56-1.88l4.3,4.29,5.39-5.39-4.3-4.29c.85-1.39,1.5-2.93,1.89-4.56h6.07ZM95.37,316.98c-5.23,0-9.47-4.25-9.47-9.48s4.24-9.48,9.47-9.48,9.48,4.24,9.48,9.48-4.24,9.48-9.48,9.48Z"/>
  <path class="cls-16" d="M305.96,283.44v-9.91h-7.89c-.51-2.13-1.35-4.11-2.46-5.92l5.59-5.59-7.01-7.01-5.59,5.59c-1.81-1.11-3.8-1.94-5.92-2.46v-7.89h-9.9v7.89c-2.13.52-4.11,1.35-5.94,2.46l-5.58-5.59-7.01,7.01,5.58,5.59c-1.1,1.81-1.94,3.8-2.45,5.92h-7.89v9.91h7.89c.51,2.11,1.35,4.11,2.45,5.92l-5.58,5.58,7.01,7,5.58-5.58c1.83,1.1,3.81,1.94,5.94,2.45v7.89h9.9v-7.89c2.13-.51,4.11-1.35,5.92-2.45l5.59,5.58,7.01-7-5.59-5.58c1.11-1.81,1.95-3.81,2.46-5.92h7.89ZM277.72,290.81c-6.8,0-12.31-5.53-12.31-12.33s5.51-12.33,12.31-12.33,12.33,5.51,12.33,12.33-5.51,12.33-12.33,12.33Z"/>
  <g>
    <circle class="cls-9" cx="402.82" cy="78.32" r="54.15" transform="translate(62.6 307.78) rotate(-45)"/>
    <circle class="cls-13" cx="402.82" cy="78.32" r="39.67" transform="translate(62.6 307.78) rotate(-45)"/>
    <circle class="cls-9" cx="402.82" cy="78.32" r="30.47"/>
    <circle class="cls-13" cx="402.82" cy="78.32" r="17.29"/>
    <path class="cls-9" d="M413.68,78.32c0,6-4.86,10.86-10.86,10.86s-10.86-4.86-10.86-10.86,4.86-10.86,10.86-10.86,10.86,4.86,10.86,10.86Z"/>
    <path class="cls-13" d="M405.78,78.79c0,1.81-1.47,3.29-3.29,3.29s-3.29-1.47-3.29-3.29,1.47-3.29,3.29-3.29,3.29,1.47,3.29,3.29Z"/>
  </g>
  <g>
    <g>
      <polygon class="cls-14" points="109.55 75.62 120.13 91.07 155.83 68.88 116.83 70.63 109.55 75.62"/>
      <polygon class="cls-13" points="113.45 65.69 155.83 68.88 109.55 75.62 113.45 65.69"/>
      <polygon class="cls-13" points="155.83 68.88 110.26 91.01 109.34 79.73 155.83 68.88"/>
    </g>
    <path class="cls-13" d="M7.07,195.24c-.69-2.44-1.26-4.91-1.71-7.34l2.43-.44c.43,2.35.99,4.74,1.66,7.11l-2.38.67ZM4.22,177.91c-.11-2.52-.09-5.05.06-7.55l2.47.15c-.15,2.41-.17,4.86-.06,7.29l-2.47.11ZM5.61,160.39c.13-.65.28-1.29.43-1.94.42-1.79.92-3.6,1.49-5.36l2.36.75c-.54,1.71-1.03,3.45-1.43,5.18-.15.62-.28,1.24-.41,1.87l-2.42-.5ZM13.43,144.79l-2.24-1.05c1.05-2.23,2.22-4.48,3.5-6.66l2.14,1.24c-1.24,2.12-2.38,4.3-3.39,6.46ZM22.19,130.2l-1.99-1.47c1.46-1.98,3.04-3.95,4.68-5.87l1.87,1.61c-1.61,1.87-3.14,3.79-4.57,5.72ZM33.47,117.35l-1.73-1.77c1.76-1.72,3.62-3.42,5.53-5.06l1.61,1.87c-1.87,1.61-3.69,3.28-5.41,4.96ZM46.55,106.27l-1.47-1.99c1.97-1.46,4.04-2.9,6.14-4.29l1.36,2.06c-2.07,1.37-4.1,2.79-6.04,4.22ZM60.95,96.94l-1.22-2.15c2.15-1.22,4.37-2.4,6.61-3.52l1.11,2.21c-2.2,1.1-4.38,2.27-6.49,3.46ZM76.37,89.38l-.95-2.28c2.31-.96,4.67-1.87,6.99-2.69l.82,2.33c-2.28.81-4.59,1.7-6.87,2.64ZM92.59,83.85l-.63-2.39c2.51-.66,4.98-1.21,7.34-1.64l.44,2.43c-2.3.42-4.7.95-7.15,1.59ZM109.4,81.12l-.11-2.47c1.51-.06,3-.07,4.42-.01l-.1,2.47c-1.35-.05-2.77-.05-4.22.01Z"/>
  </g>
  <g>
    <g>
      <polygon class="cls-14" points="408.05 257.46 394.2 270.06 364.55 240.26 402.11 250.93 408.05 257.46"/>
      <polygon class="cls-13" points="406.53 246.9 364.55 240.26 408.05 257.46 406.53 246.9"/>
      <polygon class="cls-13" points="364.55 240.26 403.82 272.28 407.3 261.51 364.55 240.26"/>
    </g>
    <path class="cls-13" d="M478.14,396.22c1.19-2.15,2.28-4.35,3.24-6.54l2.27.99c-.99,2.26-2.12,4.53-3.35,6.75l-2.16-1.2ZM484.68,380.54c.67-2.34,1.21-4.73,1.62-7.11l2.44.42c-.42,2.46-.99,4.94-1.68,7.36l-2.38-.68ZM487.26,363.78c.02-.64.03-1.28.03-1.92,0-1.78-.07-3.58-.21-5.37l2.47-.19c.14,1.85.21,3.72.21,5.56,0,.66,0,1.32-.03,1.98l-2.47-.07ZM483.89,339.8l2.36-.72c.74,2.42,1.37,4.87,1.87,7.28l-2.42.51c-.49-2.34-1.1-4.72-1.82-7.07ZM477.4,324.02l2.2-1.14c1.16,2.24,2.24,4.53,3.21,6.78l-2.27.98c-.95-2.21-2-4.43-3.13-6.62ZM468.38,309.48l2-1.45c1.48,2.03,2.9,4.12,4.22,6.2l-2.09,1.33c-1.29-2.04-2.68-4.08-4.13-6.07ZM457.42,296.27l1.8-1.7c1.73,1.84,3.41,3.72,4.99,5.59l-1.89,1.6c-1.56-1.84-3.2-3.68-4.91-5.49ZM444.92,284.51l1.58-1.9c1.92,1.6,3.81,3.27,5.62,4.94l-1.68,1.82c-1.78-1.65-3.64-3.29-5.53-4.86ZM431.11,274.32l1.34-2.08c2.07,1.33,4.15,2.76,6.19,4.23l-1.45,2c-1.99-1.44-4.04-2.84-6.07-4.15ZM416.06,266.17l.99-2.27c2.2.96,4.47,2.06,6.76,3.28l-1.16,2.18c-2.24-1.19-4.46-2.26-6.6-3.2ZM402.82,261.87l.47-2.43c1.39.27,2.84.62,4.3,1.03l-.67,2.38c-1.39-.39-2.77-.72-4.1-.98Z"/>
  </g>
  <path class="cls-16" d="M299.24,74.07v-7.55h-6.02c-.39-1.62-1.03-3.14-1.88-4.52l4.26-4.26-5.34-5.34-4.26,4.26c-1.38-.85-2.89-1.48-4.52-1.88v-6.02h-7.54v6.02c-1.62.4-3.14,1.03-4.53,1.88l-4.25-4.26-5.34,5.34,4.25,4.26c-.84,1.38-1.48,2.89-1.86,4.52h-6.02v7.55h6.02c.39,1.61,1.03,3.14,1.86,4.52l-4.25,4.25,5.34,5.34,4.25-4.25c1.39.84,2.91,1.48,4.53,1.86v6.02h7.54v-6.02c1.62-.39,3.14-1.03,4.52-1.86l4.26,4.25,5.34-5.34-4.26-4.25c.85-1.38,1.49-2.91,1.88-4.52h6.02ZM277.72,79.68c-5.18,0-9.38-4.21-9.38-9.39s4.2-9.39,9.38-9.39,9.39,4.2,9.39,9.39-4.2,9.39-9.39,9.39Z"/>
  <path class="cls-9" d="M163.88,153.19v-4.05h-3.23c-.21-.87-.55-1.68-1.01-2.42l2.29-2.29-2.87-2.87-2.29,2.29c-.74-.45-1.55-.79-2.42-1.01v-3.23h-4.05v3.23c-.87.21-1.68.55-2.43,1.01l-2.28-2.29-2.86,2.87,2.28,2.29c-.45.74-.79,1.55-1,2.42h-3.23v4.05h3.23c.21.86.55,1.68,1,2.42l-2.28,2.28,2.86,2.86,2.28-2.28c.75.45,1.56.79,2.43,1v3.23h4.05v-3.23c.87-.21,1.68-.55,2.42-1l2.29,2.28,2.87-2.86-2.29-2.28c.45-.74.8-1.56,1.01-2.42h3.23ZM152.33,156.2c-2.78,0-5.03-2.26-5.03-5.04s2.25-5.04,5.03-5.04,5.04,2.25,5.04,5.04-2.25,5.04-5.04,5.04Z"/>
  <g>
    <path class="cls-2" d="M188.56,300.94s-56.74-16.32-19.15-59.9c0,0,0,0,0,0l158.65-103.81,10.58,6.11-21.15,61.06-21.15-12.21-95.19,54.96s-5.32,3.07-12.58,7.26c-8.31,4.8-13.43,13.67-13.43,23.27s5.12,18.47,13.43,23.27h0Z"/>
    <path class="cls-2" d="M42.49,222.72c45.19,24.73,89.72,19.48,126.92,0v18.32h0c-39.27,22.67-87.65,22.67-126.92,0h0l-21.15-12.21,21.15-6.11h0Z"/>
    <path class="cls-6" d="M222.29,149.44v-12.21c8.4,1.16,15.84,4.38,21.15,12.21v12.21l-21.15-12.21h0Z"/>
    <path class="cls-6" d="M.58,198.52l31.33,18.09c45.19,24.73,89.72,19.48,126.92,0l169.22-91.59v12.21l-169.22,97.7h0c-39.27,22.67-87.65,22.67-126.92,0h0L.58,216.84v-18.32h0Z"/>
    <path class="cls-1" d="M31.92,216.61c45.19,24.73,89.72,19.48,126.92,0v18.32h0c-39.27,22.67-87.65,22.67-126.92,0h0v-18.32h0Z"/>
    <path class="cls-15" d="M92.48,251.9v-18.67c23.58.4,46.06-5.99,66.35-16.62v18.32h0c-20.5,11.83-43.48,17.49-66.35,16.97h0Z"/>
    <path class="cls-3" d="M164.72,274.07c.86,8.53-13.69-28.54-.6-36.09l116.34-67.17,5.29,3.05c2.74,4.68,4.07,9.05,0,12.21l-95.19,54.96-13.62,7.86c-7.42,4.28-13.31,14.37-12.23,25.18h0Z"/>
    <path class="cls-10" d="M164.72,274.07c.86,8.53-13.69-28.54-.6-36.09,0,0,6.41-3.7,12.91-7.45l-.09,18.37c-7.42,4.28-13.31,14.37-12.23,25.18h0Z"/>
    <path class="cls-11" d="M306.9,198.29l-21.15-12.21v-12.21c8.65.75,15.98,4.24,21.15,12.21,2.01,1.62,1.59,6.2,0,12.21h0Z"/>
    <path class="cls-10" d="M328.06,125.02v12.21l-21.15,61.06v-12.21c1.89-23.06,9.25-43.25,21.15-61.06h0Z"/>
    <path class="cls-11" d="M245.99,358.52l-87.16-50.32s0,0,0,0c-13.09-7.56-21.15-21.52-21.15-36.64v-12.21s-.16,17.24,21.15,30.53l118.89,68.64h-31.73Z"/>
    <path class="cls-7" d="M.58,180.2l41.91,24.2c32.72,18.89,73.04,18.89,105.76,0l95.19-54.96-21.15-12.21,105.76-12.21c-45.9,41.56-101.85,74.52-169.22,97.7h0c-39.27,22.67-87.65,22.67-126.92,0h0L.58,204.62v-24.43h0Z"/>
    <path class="cls-4" d="M267.15,358.52l-108.31-62.53s0,0,0,0c-13.09-7.56-21.15-21.52-21.15-36.64s8.06-29.08,21.15-36.64l169.22-97.7-21.15,61.06-21.15-12.21-95.19,54.96s-5.32,3.07-12.58,7.26c-8.31,4.8-13.43,13.67-13.43,23.27s5.12,18.47,13.43,23.27l131.47,75.9h-42.31Z"/>
  </g>
</svg>