<svg xmlns="http://www.w3.org/2000/svg" width="105" height="105" viewBox="0 0 105 105">
  <g id="partners-agencies" transform="translate(249.877 -1544.669)">
    <g id="Circles" transform="translate(-249.877 1544.669)">
      <circle id="Ellipse_350" data-name="Ellipse 350" cx="52.5" cy="52.5" r="52.5" transform="translate(0)" fill="#cceafa"/>
    </g>
    <g id="Icon_Art" data-name="Icon Art" transform="translate(-243.606 1551.226)">
      <path id="Path_2774" data-name="Path 2774" d="M-153.145,1629.266h-2.3l.044-19.09V1574.55h-77.712v54.716h79.969Z" transform="translate(240.638 -1556.896)" fill="#7dbae3"/>
      <path id="Path_2775" data-name="Path 2775" d="M-216.6,1572.332l6.965-2.863-6.965,2.863Z" transform="translate(237.293 -1555.932)" fill="none"/>
      <path id="Path_2776" data-name="Path 2776" d="M-154.319,1570.416h-.018l-39.918-17.655h0l-39.918,17.654h79.855Z" transform="translate(240.626 -1552.762)" fill="#a4d4f4"/>
      <rect id="Rectangle_1670" data-name="Rectangle 1670" width="68.241" height="1.336" transform="translate(12.259 72.371)" fill="#84c3de"/>
      <path id="Path_2777" data-name="Path 2777" d="M-189.882,1559.2h0l22.023,9.74h-44.5Z" transform="translate(236.487 -1553.983)" fill="#1a4480"/>
      <path id="Path_2778" data-name="Path 2778" d="M-152.865,1641.093h-84.242l4.764-4.236h73.777Z" transform="translate(241.183 -1568.717)" fill="#50a2da"/>
      <path id="Path_2779" data-name="Path 2779" d="M-152.865,1641.093h-84.242l4.764-4.236h73.777Z" transform="translate(241.183 -1568.717)" fill="#50a2da" opacity="0.39" style="mix-blend-mode: multiply;isolation: isolate"/>
      <path id="Path_2780" data-name="Path 2780" d="M-233.869,1587.784h6.407l-.15,41.079h-6.108Z" transform="translate(240.568 -1559.407)" fill="#fff"/>
      <path id="Path_2781" data-name="Path 2781" d="M-227.522,1586.159a1.317,1.317,0,0,1,1.318,1.318,1.317,1.317,0,0,1-1.318,1.316,1.317,1.317,0,0,1-1.316-1.316h-4.425a1.316,1.316,0,0,1-1.317,1.316,1.317,1.317,0,0,1-1.317-1.316,1.317,1.317,0,0,1,1.317-1.318Z" transform="translate(240.953 -1559.098)" fill="#a4d4f4"/>
      <path id="Path_2782" data-name="Path 2782" d="M-197.376,1628.864h-6.108l-.15-41.079h6.408Z" transform="translate(234.832 -1559.407)" fill="#fff"/>
      <path id="Path_2783" data-name="Path 2783" d="M-197.286,1586.159a1.317,1.317,0,0,1,1.317,1.318,1.317,1.317,0,0,1-1.317,1.316,1.317,1.317,0,0,1-1.316-1.316h-4.425a1.316,1.316,0,0,1-1.317,1.316,1.318,1.318,0,0,1-1.317-1.316,1.318,1.318,0,0,1,1.317-1.318Z" transform="translate(235.217 -1559.098)" fill="#a4d4f4"/>
      <path id="Path_2784" data-name="Path 2784" d="M-168.107,1628.864h-6.109l-.149-41.079h6.406Z" transform="translate(229.279 -1559.407)" fill="#fff"/>
      <path id="Path_2785" data-name="Path 2785" d="M-168.017,1586.159a1.317,1.317,0,0,1,1.317,1.318,1.317,1.317,0,0,1-1.317,1.316,1.317,1.317,0,0,1-1.316-1.316h-4.425a1.316,1.316,0,0,1-1.317,1.316,1.318,1.318,0,0,1-1.318-1.316,1.318,1.318,0,0,1,1.318-1.318Z" transform="translate(229.663 -1559.098)" fill="#a4d4f4"/>
      <path id="Path_2786" data-name="Path 2786" d="M-137.723,1587.785h-6.406l.149,41.079h6.107Z" transform="translate(223.542 -1559.407)" fill="#fff"/>
      <path id="Path_2787" data-name="Path 2787" d="M-137.781,1586.159a1.318,1.318,0,0,1,1.318,1.318,1.317,1.317,0,0,1-1.318,1.316,1.316,1.316,0,0,1-1.316-1.316h-4.425a1.316,1.316,0,0,1-1.317,1.316,1.317,1.317,0,0,1-1.318-1.316,1.318,1.318,0,0,1,1.318-1.318Z" transform="translate(223.927 -1559.098)" fill="#a4d4f4"/>
      <path id="Path_2788" data-name="Path 2788" d="M-239.911,1651.125h87.944l2.226,3.631h-92.4Z" transform="translate(242.137 -1571.424)" fill="#cc1d1d"/>
      <g id="Group_1960" data-name="Group 1960" transform="translate(0 76.001)">
        <rect id="Rectangle_1671" data-name="Rectangle 1671" width="87.944" height="3.63" transform="translate(2.226)" fill="#a4d4f4"/>
        <rect id="Rectangle_1672" data-name="Rectangle 1672" width="92.395" height="3.63" transform="translate(0 7.331)" fill="#a4d4f4"/>
      </g>
      <g id="Group_1961" data-name="Group 1961" transform="translate(0 76.001)">
        <rect id="Rectangle_1673" data-name="Rectangle 1673" width="87.944" height="3.63" transform="translate(2.226)" fill="#a00a0f"/>
        <rect id="Rectangle_1674" data-name="Rectangle 1674" width="92.395" height="3.63" transform="translate(0 7.331)" fill="#a00a0f"/>
      </g>
      <path id="Path_2789" data-name="Path 2789" d="M-151.447,1645.709H-239.39l1.85-3.63H-153.3Z" transform="translate(241.616 -1569.708)" fill="#cc1d1d"/>
      <g id="Group_1962" data-name="Group 1962" transform="translate(18.88 33.173)">
        <rect id="Rectangle_1675" data-name="Rectangle 1675" width="3.352" height="7.003" transform="translate(0 5.366)" fill="#1a4480"/>
        <rect id="Rectangle_1676" data-name="Rectangle 1676" width="3.347" height="2.818" transform="translate(3.981 2.005)" fill="#1a4480"/>
        <rect id="Rectangle_1677" data-name="Rectangle 1677" width="3.352" height="2.818" transform="translate(0 2.005)" fill="#1a4480"/>
        <rect id="Rectangle_1678" data-name="Rectangle 1678" width="3.347" height="7.003" transform="translate(3.981 5.366)" fill="#1a4480"/>
        <path id="Path_2790" data-name="Path 2790" d="M-211.508,1594.231h-7.328v-.528h7.328Z" transform="translate(218.836 -1593.702)" fill="#1a4480"/>
      </g>
      <g id="Group_1963" data-name="Group 1963" transform="translate(42.596 33.173)">
        <rect id="Rectangle_1679" data-name="Rectangle 1679" width="3.352" height="7.003" transform="translate(0 5.366)" fill="#1a4480"/>
        <rect id="Rectangle_1680" data-name="Rectangle 1680" width="3.347" height="2.818" transform="translate(3.981 2.005)" fill="#1a4480"/>
        <rect id="Rectangle_1681" data-name="Rectangle 1681" width="3.352" height="2.818" transform="translate(0 2.005)" fill="#1a4480"/>
        <rect id="Rectangle_1682" data-name="Rectangle 1682" width="3.347" height="7.003" transform="translate(3.981 5.366)" fill="#1a4480"/>
        <path id="Path_2791" data-name="Path 2791" d="M-182.239,1594.231h-7.328v-.528h7.328Z" transform="translate(189.567 -1593.702)" fill="#1a4480"/>
      </g>
      <g id="Group_1964" data-name="Group 1964" transform="translate(66.312 33.173)">
        <rect id="Rectangle_1683" data-name="Rectangle 1683" width="3.352" height="7.003" transform="translate(0 5.366)" fill="#1a4480"/>
        <rect id="Rectangle_1684" data-name="Rectangle 1684" width="3.347" height="2.818" transform="translate(3.981 2.005)" fill="#1a4480"/>
        <rect id="Rectangle_1685" data-name="Rectangle 1685" width="3.352" height="2.818" transform="translate(0 2.005)" fill="#1a4480"/>
        <rect id="Rectangle_1686" data-name="Rectangle 1686" width="3.347" height="7.003" transform="translate(3.981 5.366)" fill="#1a4480"/>
        <path id="Path_2792" data-name="Path 2792" d="M-152.97,1594.231H-160.3v-.528h7.328Z" transform="translate(160.298 -1593.702)" fill="#1a4480"/>
      </g>
      <g id="Group_1965" data-name="Group 1965" transform="translate(18.88 52.188)">
        <rect id="Rectangle_1687" data-name="Rectangle 1687" width="3.352" height="7.003" transform="translate(0 5.366)" fill="#1a4480"/>
        <rect id="Rectangle_1688" data-name="Rectangle 1688" width="3.347" height="2.818" transform="translate(3.981 2.005)" fill="#1a4480"/>
        <rect id="Rectangle_1689" data-name="Rectangle 1689" width="3.352" height="2.818" transform="translate(0 2.005)" fill="#1a4480"/>
        <rect id="Rectangle_1690" data-name="Rectangle 1690" width="3.347" height="7.003" transform="translate(3.981 5.366)" fill="#1a4480"/>
        <path id="Path_2793" data-name="Path 2793" d="M-211.508,1617.7h-7.328v-.528h7.328Z" transform="translate(218.836 -1617.171)" fill="#1a4480"/>
      </g>
      <g id="Group_1966" data-name="Group 1966" transform="translate(42.716 52.188)">
        <rect id="Rectangle_1691" data-name="Rectangle 1691" width="3.352" height="7.003" transform="translate(0 5.366)" fill="#1a4480"/>
        <rect id="Rectangle_1692" data-name="Rectangle 1692" width="3.347" height="2.818" transform="translate(3.981 2.005)" fill="#1a4480"/>
        <rect id="Rectangle_1693" data-name="Rectangle 1693" width="3.352" height="2.818" transform="translate(0 2.005)" fill="#1a4480"/>
        <rect id="Rectangle_1694" data-name="Rectangle 1694" width="3.347" height="7.003" transform="translate(3.981 5.366)" fill="#1a4480"/>
        <path id="Path_2794" data-name="Path 2794" d="M-182.092,1617.7h-7.328v-.528h7.328Z" transform="translate(189.419 -1617.171)" fill="#1a4480"/>
      </g>
      <g id="Group_1967" data-name="Group 1967" transform="translate(66.312 52.188)">
        <rect id="Rectangle_1695" data-name="Rectangle 1695" width="3.352" height="7.003" transform="translate(0 5.366)" fill="#1a4480"/>
        <rect id="Rectangle_1696" data-name="Rectangle 1696" width="3.347" height="2.818" transform="translate(3.981 2.005)" fill="#1a4480"/>
        <rect id="Rectangle_1697" data-name="Rectangle 1697" width="3.352" height="2.818" transform="translate(0 2.005)" fill="#1a4480"/>
        <rect id="Rectangle_1698" data-name="Rectangle 1698" width="3.347" height="7.003" transform="translate(3.981 5.366)" fill="#1a4480"/>
        <path id="Path_2795" data-name="Path 2795" d="M-152.97,1617.7H-160.3v-.528h7.328Z" transform="translate(160.298 -1617.171)" fill="#1a4480"/>
      </g>
      <rect id="Rectangle_1699" data-name="Rectangle 1699" width="90.765" height="1.568" transform="translate(0.997 17.655)" fill="#fff"/>
      <rect id="Rectangle_1700" data-name="Rectangle 1700" width="88.738" height="1.718" transform="translate(2.01 25.342)" fill="#fff"/>
      <rect id="Rectangle_1701" data-name="Rectangle 1701" width="87.773" height="6.12" transform="translate(2.493 19.222)" fill="#a4d4f4"/>
      <rect id="Rectangle_1702" data-name="Rectangle 1702" width="87.773" height="1.456" transform="translate(2.493 19.222)" fill="#a4d4f4" style="mix-blend-mode: multiply;isolation: isolate"/>
      <path id="Path_2796" data-name="Path 2796" d="M-227.522,1639.491a1.317,1.317,0,0,0,1.318-1.318,1.317,1.317,0,0,0-1.318-1.317,1.317,1.317,0,0,0-1.316,1.317h-4.425a1.317,1.317,0,0,0-1.317-1.317,1.317,1.317,0,0,0-1.317,1.317,1.317,1.317,0,0,0,1.317,1.318Z" transform="translate(240.953 -1568.717)" fill="#a4d4f4"/>
      <path id="Path_2797" data-name="Path 2797" d="M-197.286,1639.491a1.317,1.317,0,0,0,1.317-1.318,1.317,1.317,0,0,0-1.317-1.317,1.317,1.317,0,0,0-1.316,1.317h-4.425a1.317,1.317,0,0,0-1.317-1.317,1.318,1.318,0,0,0-1.317,1.317,1.318,1.318,0,0,0,1.317,1.318Z" transform="translate(235.217 -1568.717)" fill="#a4d4f4"/>
      <path id="Path_2798" data-name="Path 2798" d="M-168.017,1639.491a1.317,1.317,0,0,0,1.317-1.318,1.317,1.317,0,0,0-1.317-1.317,1.317,1.317,0,0,0-1.316,1.317h-4.425a1.317,1.317,0,0,0-1.317-1.317,1.318,1.318,0,0,0-1.318,1.317,1.318,1.318,0,0,0,1.318,1.318Z" transform="translate(229.663 -1568.717)" fill="#a4d4f4"/>
      <path id="Path_2799" data-name="Path 2799" d="M-137.781,1639.491a1.318,1.318,0,0,0,1.318-1.318,1.317,1.317,0,0,0-1.318-1.317,1.316,1.316,0,0,0-1.316,1.317h-4.425a1.317,1.317,0,0,0-1.317-1.317,1.317,1.317,0,0,0-1.318,1.317,1.318,1.318,0,0,0,1.318,1.318Z" transform="translate(223.927 -1568.717)" fill="#a4d4f4"/>
      <path id="Path_2800" data-name="Path 2800" d="M-189.491,1559.2h0l2.429,1.074-20.778,8.666h-4.126Z" transform="translate(236.413 -1553.983)" fill="#1a4480" opacity="0.49" style="mix-blend-mode: multiply;isolation: isolate"/>
    </g>
  </g>
</svg>
