<?xml version="1.0" encoding="UTF-8"?>
<svg id="Layer_15" data-name="Layer 15" xmlns="http://www.w3.org/2000/svg" viewBox="0 0 500 250">
  <defs>
    <style>
      .cls-1 {
        fill: #385c91;
      }

      .cls-1, .cls-2, .cls-3, .cls-4, .cls-5, .cls-6, .cls-7, .cls-8, .cls-9, .cls-10, .cls-11, .cls-12, .cls-13, .cls-14, .cls-15, .cls-16 {
        stroke-width: 0px;
      }

      .cls-1, .cls-2, .cls-3, .cls-4, .cls-6, .cls-7, .cls-10, .cls-11, .cls-15 {
        fill-rule: evenodd;
      }

      .cls-2 {
        fill: #162e51;
      }

      .cls-3 {
        fill: #c6c6c6;
      }

      .cls-4 {
        fill: #ececec;
      }

      .cls-5 {
        fill: #f2f2f2;
        opacity: .6;
      }

      .cls-6 {
        fill: #5373a0;
      }

      .cls-7 {
        fill: #254d86;
      }

      .cls-8 {
        fill: #d9f1fd;
      }

      .cls-9 {
        fill: #c71f25;
      }

      .cls-10 {
        fill: #b3b3b3;
      }

      .cls-11, .cls-13 {
        fill: #fff;
      }

      .cls-12 {
        fill: #757575;
      }

      .cls-14 {
        fill: #e6e6e6;
      }

      .cls-15 {
        fill: #1a4480;
      }

      .cls-16 {
        fill: #0a90b7;
      }
    </style>
  </defs>
  <path class="cls-8" d="M480.44,185.05c22.5-56.4-4.3-117.77-120.93-128.37-55.79-5.07-91.97,21.23-159.9-6.85C146.73,27.97,82.04,1.49,31.78,43.29c-73.16,60.83,110.02,148.49,207.64,181.41,107.38,36.21,212.41,32.08,241.02-39.64Z"/>
  <path class="cls-5" d="M32.35,194.76c40.34,50.84,119.69,79.14,210.8,25.01,43.59-25.89,42.54-63.14,117.32-79.52,58.23-12.75,129.18-28.54,122.51-83.91-9.72-80.6-223.2-44.67-323.31-15.98C49.56,71.91-18.94,130.11,32.35,194.76Z"/>
  <path class="cls-12" d="M379.72,137.9v-3.43h-2.73c-.18-.74-.47-1.42-.85-2.05l1.93-1.93-2.42-2.42-1.93,1.93c-.63-.38-1.31-.67-2.05-.85v-2.73h-3.42v2.73c-.74.18-1.42.47-2.06.85l-1.93-1.93-2.42,2.42,1.93,1.93c-.38.63-.67,1.31-.85,2.05h-2.73v3.43h2.73c.18.73.47,1.42.85,2.05l-1.93,1.93,2.42,2.42,1.93-1.93c.63.38,1.32.67,2.06.85v2.73h3.42v-2.73c.74-.18,1.42-.47,2.05-.85l1.93,1.93,2.42-2.42-1.93-1.93c.38-.63.68-1.32.85-2.05h2.73ZM369.95,140.45c-2.35,0-4.26-1.91-4.26-4.26s1.91-4.26,4.26-4.26,4.26,1.91,4.26,4.26-1.91,4.26-4.26,4.26Z"/>
  <path class="cls-12" d="M160.22,217.04v-5.26h-4.19c-.27-1.13-.72-2.18-1.31-3.14l2.97-2.97-3.72-3.72-2.97,2.97c-.96-.59-2.02-1.03-3.14-1.31v-4.19h-5.25v4.19c-1.13.28-2.18.72-3.15,1.31l-2.96-2.97-3.72,3.72,2.96,2.97c-.58.96-1.03,2.02-1.3,3.14h-4.19v5.26h4.19c.27,1.12.72,2.18,1.3,3.14l-2.96,2.96,3.72,3.72,2.96-2.96c.97.58,2.02,1.03,3.15,1.3v4.19h5.25v-4.19c1.13-.27,2.18-.72,3.14-1.3l2.97,2.96,3.72-3.72-2.97-2.96c.59-.96,1.04-2.02,1.31-3.14h4.19ZM145.23,220.95c-3.61,0-6.53-2.93-6.53-6.54s2.93-6.54,6.53-6.54,6.54,2.93,6.54,6.54-2.93,6.54-6.54,6.54Z"/>
  <path class="cls-16" d="M290.57,197.8v-6.84h-5.45c-.35-1.47-.93-2.84-1.7-4.09l3.86-3.86-4.83-4.83-3.86,3.86c-1.25-.77-2.62-1.34-4.09-1.7v-5.45h-6.83v5.45c-1.47.36-2.84.93-4.1,1.7l-3.85-3.86-4.83,4.83,3.85,3.86c-.76,1.25-1.34,2.62-1.69,4.09h-5.45v6.84h5.45c.35,1.46.93,2.84,1.69,4.09l-3.85,3.85,4.83,4.83,3.85-3.85c1.26.76,2.63,1.34,4.1,1.69v5.45h6.83v-5.45c1.47-.35,2.84-.93,4.09-1.69l3.86,3.85,4.83-4.83-3.86-3.85c.77-1.25,1.35-2.63,1.7-4.09h5.45ZM271.08,202.89c-4.69,0-8.5-3.82-8.5-8.51s3.8-8.51,8.5-8.51,8.51,3.8,8.51,8.51-3.8,8.51-8.51,8.51Z"/>
  <g>
    <circle class="cls-9" cx="357.42" cy="56.24" r="37.37" transform="translate(64.92 269.21) rotate(-45)"/>
    <circle class="cls-13" cx="357.42" cy="56.24" r="27.38" transform="translate(64.92 269.21) rotate(-45)"/>
    <circle class="cls-9" cx="357.42" cy="56.24" r="21.03"/>
    <circle class="cls-13" cx="357.42" cy="56.24" r="11.93"/>
    <path class="cls-9" d="M364.92,56.24c0,4.14-3.35,7.49-7.49,7.49s-7.49-3.35-7.49-7.49,3.35-7.49,7.49-7.49,7.49,3.35,7.49,7.49Z"/>
    <path class="cls-13" d="M359.46,56.56c0,1.25-1.02,2.27-2.27,2.27s-2.27-1.02-2.27-2.27,1.02-2.27,2.27-2.27,2.27,1.02,2.27,2.27Z"/>
  </g>
  <g>
    <g>
      <polygon class="cls-14" points="155.01 54.37 162.31 65.03 186.95 49.72 160.04 50.93 155.01 54.37"/>
      <polygon class="cls-13" points="157.7 47.52 186.95 49.72 155.01 54.37 157.7 47.52"/>
      <polygon class="cls-13" points="186.95 49.72 155.5 65 154.87 57.21 186.95 49.72"/>
    </g>
    <path class="cls-13" d="M84.28,136.93c-.48-1.68-.87-3.39-1.18-5.07l1.68-.31c.3,1.62.68,3.27,1.14,4.91l-1.64.47ZM82.31,124.97c-.08-1.74-.07-3.49.04-5.21l1.7.1c-.1,1.66-.12,3.35-.04,5.03l-1.71.08ZM83.27,112.88c.09-.45.19-.89.3-1.34.29-1.24.64-2.48,1.03-3.7l1.63.52c-.37,1.18-.71,2.38-.99,3.58-.1.43-.2.86-.29,1.29l-1.67-.35ZM88.67,102.11l-1.55-.72c.72-1.54,1.53-3.09,2.41-4.59l1.47.86c-.85,1.46-1.64,2.96-2.34,4.46ZM94.72,92.04l-1.37-1.02c1.01-1.36,2.1-2.73,3.23-4.05l1.29,1.11c-1.11,1.29-2.17,2.62-3.15,3.95ZM102.5,83.17l-1.19-1.22c1.22-1.19,2.5-2.36,3.82-3.49l1.11,1.29c-1.29,1.11-2.54,2.26-3.74,3.42ZM111.53,75.53l-1.01-1.37c1.36-1,2.79-2,4.24-2.96l.94,1.42c-1.43.95-2.83,1.92-4.17,2.91ZM121.47,69.08l-.84-1.49c1.48-.84,3.02-1.66,4.56-2.43l.76,1.53c-1.52.76-3.03,1.56-4.48,2.39ZM132.11,63.87l-.66-1.58c1.6-.67,3.22-1.29,4.82-1.86l.57,1.61c-1.58.56-3.17,1.17-4.74,1.83ZM143.31,60.05l-.43-1.65c1.73-.45,3.44-.83,5.06-1.13l.31,1.68c-1.59.29-3.25.66-4.94,1.1ZM154.91,58.17l-.07-1.71c1.05-.04,2.07-.05,3.05,0l-.07,1.71c-.93-.04-1.91-.03-2.91,0Z"/>
  </g>
  <g>
    <g>
      <polygon class="cls-14" points="361.03 179.87 351.47 188.57 331.01 168 356.93 175.37 361.03 179.87"/>
      <polygon class="cls-13" points="359.98 172.58 331.01 168 361.03 179.87 359.98 172.58"/>
      <polygon class="cls-13" points="331.01 168 358.11 190.1 360.51 182.67 331.01 168"/>
    </g>
    <path class="cls-13" d="M409.41,275.64c.82-1.48,1.58-3,2.24-4.51l1.56.68c-.68,1.56-1.46,3.13-2.31,4.66l-1.49-.83ZM413.92,264.82c.46-1.61.84-3.26,1.12-4.9l1.68.29c-.29,1.7-.68,3.41-1.16,5.08l-1.64-.47ZM415.7,253.25c.01-.44.02-.88.02-1.32,0-1.23-.05-2.47-.14-3.71l1.7-.13c.1,1.28.15,2.57.15,3.84,0,.46,0,.91-.02,1.37l-1.71-.05ZM413.37,236.7l1.63-.5c.51,1.67.94,3.36,1.29,5.03l-1.67.35c-.34-1.62-.76-3.26-1.26-4.88ZM408.89,225.81l1.52-.79c.8,1.55,1.55,3.12,2.22,4.68l-1.57.67c-.65-1.52-1.38-3.06-2.16-4.57ZM402.67,215.77l1.38-1c1.02,1.4,2,2.84,2.91,4.28l-1.44.92c-.89-1.41-1.85-2.82-2.85-4.19ZM395.1,206.66l1.24-1.17c1.2,1.27,2.35,2.57,3.45,3.86l-1.3,1.1c-1.07-1.27-2.21-2.54-3.39-3.79ZM386.48,198.54l1.09-1.31c1.33,1.11,2.63,2.26,3.88,3.41l-1.16,1.25c-1.23-1.14-2.51-2.27-3.81-3.36ZM376.94,191.51l.92-1.44c1.43.92,2.87,1.9,4.27,2.92l-1,1.38c-1.38-1-2.79-1.96-4.19-2.87ZM366.56,185.88l.68-1.56c1.52.66,3.09,1.42,4.67,2.26l-.8,1.51c-1.54-.82-3.08-1.56-4.55-2.21ZM357.42,182.91l.33-1.68c.96.19,1.96.43,2.97.71l-.46,1.64c-.96-.27-1.92-.5-2.83-.68Z"/>
  </g>
  <path class="cls-16" d="M285.93,53.3v-5.21h-4.15c-.27-1.12-.71-2.16-1.29-3.12l2.94-2.94-3.68-3.68-2.94,2.94c-.95-.58-2-1.02-3.12-1.3v-4.15h-5.2v4.15c-1.12.28-2.16.71-3.12,1.3l-2.93-2.94-3.68,3.68,2.93,2.94c-.58.95-1.02,2-1.29,3.12h-4.15v5.21h4.15c.27,1.11.71,2.16,1.29,3.12l-2.93,2.93,3.68,3.68,2.93-2.93c.96.58,2.01,1.02,3.12,1.29v4.15h5.2v-4.15c1.12-.27,2.16-.71,3.12-1.29l2.94,2.93,3.68-3.68-2.94-2.93c.58-.95,1.03-2.01,1.29-3.12h4.15ZM271.08,57.18c-3.58,0-6.47-2.91-6.47-6.48s2.9-6.48,6.47-6.48,6.48,2.9,6.48,6.48-2.9,6.48-6.48,6.48Z"/>
  <path class="cls-9" d="M192.51,107.91v-2.8h-2.23c-.14-.6-.38-1.16-.7-1.67l1.58-1.58-1.98-1.98-1.58,1.58c-.51-.31-1.07-.55-1.67-.7v-2.23h-2.79v2.23c-.6.15-1.16.38-1.68.7l-1.57-1.58-1.98,1.98,1.57,1.58c-.31.51-.55,1.07-.69,1.67h-2.23v2.8h2.23c.14.6.38,1.16.69,1.67l-1.57,1.57,1.98,1.98,1.57-1.57c.52.31,1.08.55,1.68.69v2.23h2.79v-2.23c.6-.14,1.16-.38,1.67-.69l1.58,1.57,1.98-1.98-1.58-1.57c.31-.51.55-1.08.7-1.67h2.23ZM184.54,109.99c-1.92,0-3.47-1.56-3.47-3.48s1.56-3.48,3.47-3.48,3.48,1.56,3.48,3.48-1.56,3.48-3.48,3.48Z"/>
  <g>
    <path class="cls-2" d="M209.54,209.88s-39.16-11.26-13.22-41.34c0,0,0,0,0,0l109.49-71.64,7.3,4.21-14.6,42.14-14.6-8.43-65.7,37.93s-3.67,2.12-8.68,5.01c-5.74,3.31-9.27,9.43-9.27,16.06s3.53,12.75,9.27,16.06h0Z"/>
    <path class="cls-2" d="M108.73,155.89c31.19,17.07,61.92,13.45,87.59,0v12.64h0c-27.1,15.65-60.49,15.65-87.59,0h0l-14.6-8.43,14.6-4.21h0Z"/>
    <path class="cls-6" d="M232.82,105.32v-8.43c5.8.8,10.93,3.02,14.6,8.43v8.43l-14.6-8.43h0Z"/>
    <path class="cls-6" d="M0,92.04l101.43,59.64c31.19,17.07,61.92,13.45,87.59,0l116.79-63.22v8.43l-116.79,67.43h0c-27.1,15.65-60.49,15.65-87.59,0h0L0,104.68v-12.64h0Z"/>
    <path class="cls-1" d="M101.43,151.68c31.19,17.07,61.92,13.45,87.59,0v12.64h0c-27.1,15.65-60.49,15.65-87.59,0h0v-12.64h0Z"/>
    <path class="cls-15" d="M143.23,176.03v-12.89c16.28.28,31.79-4.13,45.8-11.47v12.64h0c-14.15,8.17-30.01,12.07-45.8,11.71h0Z"/>
    <path class="cls-3" d="M193.09,191.34c.59,5.88-9.45-19.7-.41-24.91l80.3-46.36,3.65,2.11c1.89,3.23,2.81,6.25,0,8.43l-65.7,37.93-9.4,5.43c-5.12,2.96-9.19,9.92-8.44,17.38h0Z"/>
    <path class="cls-10" d="M193.09,191.34c.59,5.88-9.45-19.7-.41-24.91,0,0,4.42-2.55,8.91-5.14l-.06,12.68c-5.12,2.96-9.19,9.92-8.44,17.38h0Z"/>
    <path class="cls-11" d="M291.22,139.04l-14.6-8.43v-8.43c5.97.52,11.03,2.93,14.6,8.43,1.39,1.12,1.1,4.28,0,8.43h0Z"/>
    <path class="cls-10" d="M305.82,88.46v8.43l-14.6,42.14v-8.43c1.3-15.92,6.39-29.85,14.6-42.14h0Z"/>
    <path class="cls-11" d="M249.18,249.62l-60.16-34.73s0,0,0,0c-9.03-5.22-14.6-14.85-14.6-25.29v-8.43s-.11,11.9,14.6,21.07l82.05,47.37h-21.9Z"/>
    <path class="cls-7" d="M0,79.39l108.73,63.86c22.58,13.04,50.41,13.04,72.99,0l65.7-37.93-14.6-8.43,73-8.43c-31.68,28.69-70.29,51.44-116.79,67.43h0c-27.1,15.65-60.49,15.65-87.59,0h0L0,96.25v-16.86h0Z"/>
    <path class="cls-4" d="M263.78,249.62l-74.75-43.16s0,0,0,0c-9.03-5.22-14.6-14.85-14.6-25.29s5.56-20.07,14.6-25.29l116.79-67.43-14.6,42.14-14.6-8.43-65.7,37.93s-3.67,2.12-8.68,5.01c-5.74,3.31-9.27,9.43-9.27,16.06s3.53,12.75,9.27,16.06l90.74,52.39h-29.2Z"/>
  </g>
</svg>