<svg xmlns="http://www.w3.org/2000/svg" xmlns:xlink="http://www.w3.org/1999/xlink" viewBox="0 0 520 360"><defs><style>.cls-1,.cls-18,.cls-20,.cls-22,.cls-25,.cls-26,.cls-27,.cls-28{fill:none;}.cls-2{fill:#fff;}.cls-3{isolation:isolate;}.cls-30,.cls-31,.cls-4,.cls-7{fill:#f2f2f2;}.cls-5{clip-path:url(#clip-path);}.cls-6{fill:#fbfbfb;}.cls-10,.cls-11,.cls-13,.cls-14,.cls-15,.cls-17,.cls-29,.cls-31,.cls-32,.cls-41,.cls-47,.cls-62,.cls-7{mix-blend-mode:multiply;}.cls-8{fill:#dedede;}.cls-10,.cls-11,.cls-12,.cls-13,.cls-14,.cls-15,.cls-41,.cls-9{fill:#0a90b7;}.cls-10,.cls-11,.cls-14,.cls-15,.cls-30,.cls-31,.cls-9{fill-rule:evenodd;}.cls-10{opacity:0.71;}.cls-11{opacity:0.31;}.cls-13{opacity:0.18;}.cls-14{opacity:0.34;}.cls-15,.cls-23{opacity:0.13;}.cls-16{fill:#085e84;opacity:0.66;}.cls-17{opacity:0.25;}.cls-18{stroke:#162e51;stroke-width:4.97px;}.cls-19{opacity:0.2;}.cls-20,.cls-22,.cls-25,.cls-26,.cls-27,.cls-28,.cls-71{stroke:#fff;}.cls-20{stroke-width:3.59px;}.cls-21{opacity:0.15;}.cls-22{stroke-width:3.11px;}.cls-24{opacity:0.3;}.cls-25{stroke-width:2.4px;}.cls-26{stroke-width:1.8px;}.cls-27{stroke-width:1.2px;}.cls-28{stroke-width:0.54px;}.cls-29{fill:#f4f4f4;}.cls-31{opacity:0.36;}.cls-32{fill:#757575;opacity:0.16;}.cls-33,.cls-36{fill:#babcbe;}.cls-34{fill:#c2c4c6;}.cls-35{fill:#c5c7c9;}.cls-36{opacity:0.5;}.cls-37{fill:#c0c2c4;}.cls-38{fill:#c48e4e;}.cls-39{fill:#b28252;}.cls-39,.cls-63{opacity:0.45;}.cls-40{fill:#e4f5fe;}.cls-41{opacity:0.32;}.cls-42{fill:#a00a0f;}.cls-43{fill:#363636;}.cls-44{fill:#1a1a1a;}.cls-45{fill:#303030;}.cls-46{fill:#6d6d6d;}.cls-47{fill:#dbdbdb;}.cls-48{fill:#6e6e6e;}.cls-49{fill:#8c8c8c;}.cls-50,.cls-62{fill:#c71f25;}.cls-51{fill:#d9f1fd;}.cls-52{clip-path:url(#clip-path-2);}.cls-53{fill:#f5fbfe;}.cls-54{fill:#333;}.cls-55{fill:#5e5e5e;}.cls-56{fill:#292929;}.cls-57{fill:#696969;}.cls-58{clip-path:url(#clip-path-3);}.cls-59{fill:#404040;}.cls-60{fill:#6b6b6b;}.cls-61{fill:#a3a3a3;}.cls-62{opacity:0.49;}.cls-63{fill:#bfbfbf;stroke:#e8e8e8;stroke-width:0.6px;}.cls-63,.cls-71{stroke-linecap:round;stroke-miterlimit:10;}.cls-64{opacity:0.42;}.cls-65{fill:#4d4d4d;}.cls-66{clip-path:url(#clip-path-4);}.cls-67{clip-path:url(#clip-path-5);}.cls-68{clip-path:url(#clip-path-6);}.cls-69{opacity:0.05;}.cls-70{opacity:0.22;}.cls-71{fill:#e0e0e0;stroke-width:1.17px;}.cls-72{fill:#4bafd2;}</style><clipPath id="clip-path"><rect class="cls-1" x="29.66" y="0.43" width="480.7" height="260.08"/></clipPath><clipPath id="clip-path-2"><path class="cls-1" d="M311.32,227.74h25.57a1.47,1.47,0,0,0,1.47-1.47V207.53a1.47,1.47,0,0,0-1.47-1.47H322.82a1.46,1.46,0,0,0-1.25.7l-11.5,18.74A1.47,1.47,0,0,0,311.32,227.74Z"/></clipPath><clipPath id="clip-path-3"><path class="cls-1" d="M287.47,232.06l16.23-3.78a1.43,1.43,0,0,0,.89-.65l14.25-23.24a3.79,3.79,0,0,1,3.23-1.8h25.39a1.43,1.43,0,0,1,1.43,1.42s1-21.38,2.28,46H478.08c5.05.67,2.28,11.66,2.28,11.66a2.29,2.29,0,0,1-2.28,2.29H454.75a2.27,2.27,0,0,1-2-1.11c-2.86-4.75-8.07-8.47-14-8.47s-11.16,3.72-14,8.47a2.29,2.29,0,0,1-2,1.11h-71.6a2.29,2.29,0,0,1-2.29-2.29v.86a1.43,1.43,0,0,1-1.43,1.43H317.11a1.41,1.41,0,0,1-1.31-.87,15.08,15.08,0,0,0-28,0,1.39,1.39,0,0,1-1.3.87h-2.8a1.43,1.43,0,0,1-1.42-1.43v-24A6.67,6.67,0,0,1,287.47,232.06Z"/></clipPath><clipPath id="clip-path-4"><rect class="cls-2" x="353.59" y="256.15" width="60.14" height="3.46" transform="translate(767.33 515.75) rotate(180)"/></clipPath><clipPath id="clip-path-5"><rect class="cls-2" x="353.59" y="266.02" width="60.14" height="3.46" transform="translate(767.33 535.5) rotate(180)"/></clipPath><clipPath id="clip-path-6"><path class="cls-1" d="M356.42,166.23H497.25a5.64,5.64,0,0,1,5.64,5.64v78a0,0,0,0,1,0,0H356.42a5.64,5.64,0,0,1-5.64-5.64V171.87A5.64,5.64,0,0,1,356.42,166.23Z" transform="translate(853.67 416.13) rotate(180)"/></clipPath></defs><g class="cls-3"><g id="Layer_7" data-name="Layer 7"><ellipse class="cls-4" cx="260" cy="316.37" rx="260" ry="34.32"/><path class="cls-2" d="M510.42,315.28H488a17,17,0,0,1-5.27-1.28l-6.82-2.83c-1.7-.71-2.15-1.28-1-1.28H496a20.53,20.53,0,0,1,5.53,1.28l7.68,2.83C511.07,314.71,511.63,315.28,510.42,315.28Zm-43.36,0H444.63A12,12,0,0,1,440,314l-5.43-2.83c-1.35-.71-1.52-1.28-.38-1.28h21.06a14.77,14.77,0,0,1,4.91,1.28l6.29,2.83C468,314.71,468.28,315.28,467.06,315.28Zm-43.35,0H401.28a8.19,8.19,0,0,1-4-1.28l-4-2.83c-1-.71-.9-1.28.25-1.28h21.06a10.22,10.22,0,0,1,4.28,1.28l4.9,2.83C424.92,314.71,424.93,315.28,423.71,315.28Zm-43.35,0H357.93a5.25,5.25,0,0,1-3.4-1.28l-2.66-2.83c-.66-.71-.27-1.28.87-1.28h21.07a6.71,6.71,0,0,1,3.65,1.28L381,314C381.85,314.71,381.57,315.28,380.36,315.28Zm-43.36,0H314.57A3.18,3.18,0,0,1,311.8,314l-1.27-2.83c-.31-.71.36-1.28,1.5-1.28H333.1a4.16,4.16,0,0,1,3,1.28l2.13,2.83C338.78,314.71,338.22,315.28,337,315.28Zm-43.35,0H271.22c-1.22,0-2.18-.57-2.15-1.28l.13-2.83c0-.71,1-1.28,2.12-1.28h21.07a2.46,2.46,0,0,1,2.4,1.28l.73,2.83C295.71,314.71,294.87,315.28,293.65,315.28Zm-43.35,0H227.87c-1.22,0-1.9-.57-1.52-1.28l1.51-2.83a3.32,3.32,0,0,1,2.75-1.28h21.06c1.15,0,1.94.57,1.78,1.28L252.8,314C252.63,314.71,251.52,315.28,250.3,315.28Zm-43.35,0H184.51c-1.21,0-1.61-.57-.89-1.28l2.9-2.83a5.48,5.48,0,0,1,3.38-1.28H211c1.14,0,1.66.57,1.15,1.28l-2,2.83A4.26,4.26,0,0,1,207,315.28Zm-43.36,0H141.16c-1.21,0-1.34-.57-.27-1.28l4.29-2.83a8.55,8.55,0,0,1,4-1.28h21.07c1.14,0,1.38.57.52,1.28L167.34,314A6.76,6.76,0,0,1,163.59,315.28Zm-43.35,0H97.81c-1.22,0-1.06-.57.36-1.28l5.67-2.83a12.67,12.67,0,0,1,4.63-1.28h21.07c1.14,0,1.09.57-.11,1.28L124.62,314A10.22,10.22,0,0,1,120.24,315.28Zm-43.35,0H54.46c-1.22,0-.78-.57,1-1.28l7.06-2.83a17.88,17.88,0,0,1,5.26-1.28H88.83c1.14,0,.81.57-.73,1.28L81.89,314A14.75,14.75,0,0,1,76.89,315.28Zm-43.35,0H11.1c-1.21,0-.49-.57,1.61-1.28l8.46-2.83a24.3,24.3,0,0,1,5.88-1.28H48.11c1.15,0,.54.57-1.35,1.28L39.16,314A20.33,20.33,0,0,1,33.54,315.28Z"/></g><g id="Layer_5" data-name="Layer 5"><path class="cls-4" d="M508.18,88.46V72.81h-5.32v9.93H492.65v5.72h-5v-79h-10V-1.08H466.3L450.08,10.37v3.27L433.28,23V36.05h-7.5V22.72h-5.14V19h-6.42v3.7h-2.57V20.49h-6.43v2.23h-5.37l-15.11,10h-5.57l-6,3.37h-3.72V30.52l-5.79-2.65-5.79,2.65v5.53h-9.44v0L325.87,54.93V73.36H312.93V69.13H297.75v4.23h-8v9.83h-5.73V79.58L279.82,78l-4.24,1.62v3.61h-.22v-34H242.14V47l-3.79-2.23L234.57,47v2.27h-4.81l-1.58-10.51H204.7V49.22h-2.89v55.92H196V87.82H165.77v-59L145.53,10.54h-5.36V8.2h-6.42v2.34h-7.13l-8.76-6.23h-8.41V2.79H103V4.31h-2.1V2.79H94.49V4.31H91.67v6.23H85.5V31H67.34v71h-4V92.29l-3.22-2.14V53.75H57V45.12h-2.1V40H52.17V37.37H50.46L49.11,26.83h-.48l-.34-7.7h-.54l-.34,7.7h-.47L45.58,37.37H43.87V40H41.15v5.12h-2.1v8.63H35.9V74.81H28.36v81.45h-6L10.78,149-1,156.26v83.38H520V88.46Zm-448,11.05h1.47l-1.47,1.23Zm2,2.5h-2v-.34l2-1.65Z"/></g><g id="Layer_8" data-name="Layer 8"><g class="cls-5"><rect class="cls-6" x="396.3" y="68.91" width="81.03" height="224.66"/><path class="cls-7" d="M407.42,82.79h8.51V293.57h-8.51Zm12.77,210.78h8.52V82.79h-8.52Zm12.77,0h8.52V82.79H433Zm12.77,0h8.52V82.79h-8.52Zm12.78,0H467V82.79h-8.51Z"/><path class="cls-4" d="M414.33,86.7H407.5v9.61h6.83Zm12.78,9.61h-6.84V86.7h6.84Zm12.72,0h-6.71V86.7h6.71Zm-25.5,18.08H407.5v-9.61h6.83Zm12.78,0h-6.84v-9.61h6.84Zm12.72,0h-6.71v-9.61h6.71Zm-25.5,18.08H407.5v-9.61h6.83Zm12.78,0h-6.84v-9.61h6.84Zm12.72,0h-6.71v-9.61h6.71Zm-25.5,18.08H407.5v-9.62h6.83Zm12.78,0h-6.84v-9.62h6.84Zm12.72,0h-6.71v-9.62h6.71Zm-25.5,18.08H407.5V159h6.83Zm12.78,0h-6.84V159h6.84Zm12.72,0h-6.71V159h6.71Zm-25.5,18.08H407.5v-9.62h6.83Zm12.78,0h-6.84v-9.62h6.84Zm12.72,0h-6.71v-9.62h6.71Zm-25.5,18.07H407.5v-9.61h6.83Zm12.78,0h-6.84v-9.61h6.84Zm12.72,0h-6.71v-9.61h6.71Zm-25.5,18.08H407.5v-9.61h6.83Zm12.78,0h-6.84v-9.61h6.84Zm12.72,0h-6.71v-9.61h6.71Zm-25.5,18.08H407.5v-9.62h6.83Zm12.78,0h-6.84v-9.62h6.84Zm12.72,0h-6.71v-9.62h6.71ZM414.33,259H407.5V249.4h6.83Zm12.78,0h-6.84V249.4h6.84Zm12.72,0h-6.71V249.4h6.71Zm-25.5,18.08H407.5v-9.62h6.83Zm12.78,0h-6.84v-9.62h6.84Zm12.72,0h-6.71v-9.62h6.71Zm-25.5,16.67H407.5v-8.21h6.83Zm12.78,0h-6.84v-8.21h6.84ZM452.57,96.31h-6.84V86.7h6.84Zm12.77,0h-6.83V86.7h6.83Zm-12.77,18.08h-6.84v-9.61h6.84Zm12.77,0h-6.83v-9.61h6.83Zm-12.77,18.08h-6.84v-9.61h6.84Zm12.77,0h-6.83v-9.61h6.83Zm-12.77,18.08h-6.84v-9.62h6.84Zm12.77,0h-6.83v-9.62h6.83Zm-12.77,18.08h-6.84V159h6.84Zm12.77,0h-6.83V159h6.83Zm-12.77,18.08h-6.84v-9.62h6.84Zm12.77,0h-6.83v-9.62h6.83Zm-12.77,18.07h-6.84v-9.61h6.84Zm12.77,0h-6.83v-9.61h6.83Zm-12.77,18.08h-6.84v-9.61h6.84Zm12.77,0h-6.83v-9.61h6.83Zm-12.77,18.08h-6.84v-9.62h6.84Zm12.77,0h-6.83v-9.62h6.83ZM452.57,259h-6.84V249.4h6.84Zm12.77,0h-6.83V249.4h6.83ZM452.57,277.1h-6.84v-9.62h6.84Zm12.77,0h-6.83v-9.62h6.83Zm-12.77,16.67h-6.84v-8.21h6.84Zm12.77,0h-6.83v-8.21h6.83Zm-25.51,0h-6.71v-8.21h6.71Z"/><path class="cls-7" d="M414.33,86.7H407.5v9.61h6.83Zm12.78,9.61h-6.84V86.7h6.84Zm12.72,0h-6.71V86.7h6.71Zm-25.5,18.08H407.5v-9.61h6.83Zm12.78,0h-6.84v-9.61h6.84Zm12.72,0h-6.71v-9.61h6.71Zm-25.5,18.08H407.5v-9.61h6.83Zm12.78,0h-6.84v-9.61h6.84Zm12.72,0h-6.71v-9.61h6.71Zm-25.5,18.08H407.5v-9.62h6.83Zm12.78,0h-6.84v-9.62h6.84Zm12.72,0h-6.71v-9.62h6.71Zm-25.5,18.08H407.5V159h6.83Zm12.78,0h-6.84V159h6.84Zm12.72,0h-6.71V159h6.71Zm-25.5,18.08H407.5v-9.62h6.83Zm12.78,0h-6.84v-9.62h6.84Zm12.72,0h-6.71v-9.62h6.71Zm-25.5,18.07H407.5v-9.61h6.83Zm12.78,0h-6.84v-9.61h6.84Zm12.72,0h-6.71v-9.61h6.71Zm-25.5,18.08H407.5v-9.61h6.83Zm12.78,0h-6.84v-9.61h6.84Zm12.72,0h-6.71v-9.61h6.71Zm-25.5,18.08H407.5v-9.62h6.83Zm12.78,0h-6.84v-9.62h6.84Zm12.72,0h-6.71v-9.62h6.71ZM414.33,259H407.5V249.4h6.83Zm12.78,0h-6.84V249.4h6.84Zm12.72,0h-6.71V249.4h6.71Zm-25.5,18.08H407.5v-9.62h6.83Zm12.78,0h-6.84v-9.62h6.84Zm12.72,0h-6.71v-9.62h6.71Zm-25.5,16.67H407.5v-8.21h6.83Zm12.78,0h-6.84v-8.21h6.84ZM452.57,96.31h-6.84V86.7h6.84Zm12.77,0h-6.83V86.7h6.83Zm-12.77,18.08h-6.84v-9.61h6.84Zm12.77,0h-6.83v-9.61h6.83Zm-12.77,18.08h-6.84v-9.61h6.84Zm12.77,0h-6.83v-9.61h6.83Zm-12.77,18.08h-6.84v-9.62h6.84Zm12.77,0h-6.83v-9.62h6.83Zm-12.77,18.08h-6.84V159h6.84Zm12.77,0h-6.83V159h6.83Zm-12.77,18.08h-6.84v-9.62h6.84Zm12.77,0h-6.83v-9.62h6.83Zm-12.77,18.07h-6.84v-9.61h6.84Zm12.77,0h-6.83v-9.61h6.83Zm-12.77,18.08h-6.84v-9.61h6.84Zm12.77,0h-6.83v-9.61h6.83Zm-12.77,18.08h-6.84v-9.62h6.84Zm12.77,0h-6.83v-9.62h6.83ZM452.57,259h-6.84V249.4h6.84Zm12.77,0h-6.83V249.4h6.83ZM452.57,277.1h-6.84v-9.62h6.84Zm12.77,0h-6.83v-9.62h6.83Zm-12.77,16.67h-6.84v-8.21h6.84Zm12.77,0h-6.83v-8.21h6.83Zm-25.51,0h-6.71v-8.21h6.71Z"/><polygon class="cls-8" points="368.98 92.32 368.98 293.57 392.85 293.57 392.85 71.87 368.98 92.32"/><polygon class="cls-4" points="396.3 68.91 392.85 71.87 392.85 293.57 396.3 293.57 396.3 68.91"/><polygon class="cls-9" points="332.08 1.95 274 50.25 302.87 36.86 332.08 1.95"/><polygon class="cls-10" points="332.08 1.95 274 50.25 302.87 36.86 332.08 1.95"/><polygon class="cls-9" points="274 321.48 302.87 308.1 302.87 36.86 274 50.25 274 321.48 274 321.48"/><polygon class="cls-11" points="274 321.48 302.87 308.1 302.87 36.86 274 50.25 274 321.48 274 321.48"/><path class="cls-12" d="M274,93.59v11.84L302.87,92V80.2L274,93.59Zm0,20.86,28.87-13.38V112.9L274,126.29V114.45Zm0,20.87,28.87-13.39v11.84L274,147.15V135.32Zm0,20.86,28.87-13.38v11.83L274,168V156.18Zm0,20.87,28.87-13.39V175.5L274,188.88V177.05Zm0,20.86,28.87-13.39v11.84L274,209.75V197.91Zm0,20.86,28.87-13.38v11.84L274,230.61V218.77Zm0,20.87,28.87-13.39v11.84L274,251.48V239.64Zm0,20.86,28.87-13.38V259L274,272.34V260.5Zm0,20.87L302.87,268v11.84L274,293.21V281.37ZM302.87,36.86V48.7L274,62.09V50.25l28.87-13.39ZM274,302.23l28.87-13.38v11.84L274,314.07V302.23Zm0-229.51,28.87-13.38V71.18L274,84.56V72.72Z"/><path class="cls-13" d="M274,93.59v11.84L302.87,92V80.2L274,93.59Zm0,20.86,28.87-13.38V112.9L274,126.29V114.45Zm0,20.87,28.87-13.39v11.84L274,147.15V135.32Zm0,20.86,28.87-13.38v11.83L274,168V156.18Zm0,20.87,28.87-13.39V175.5L274,188.88V177.05Zm0,20.86,28.87-13.39v11.84L274,209.75V197.91Zm0,20.86,28.87-13.38v11.84L274,230.61V218.77Zm0,20.87,28.87-13.39v11.84L274,251.48V239.64Zm0,20.86,28.87-13.38V259L274,272.34V260.5Zm0,20.87L302.87,268v11.84L274,293.21V281.37ZM302.87,36.86V48.7L274,62.09V50.25l28.87-13.39ZM274,302.23l28.87-13.38v11.84L274,314.07V302.23Zm0-229.51,28.87-13.38V71.18L274,84.56V72.72Z"/><polygon class="cls-9" points="332.08 1.95 384.23 36.86 302.87 36.86 332.08 1.95"/><polygon class="cls-14" points="332.08 1.95 384.23 36.86 302.87 36.86 332.08 1.95"/><polygon class="cls-9" points="384.23 308.1 302.87 308.1 302.87 36.86 384.23 36.86 384.23 308.1 384.23 308.1"/><polygon class="cls-15" points="384.23 308.1 302.87 308.1 302.87 36.86 384.23 36.86 384.23 308.1 384.23 308.1"/><path class="cls-12" d="M302.87,80.2V92h81.36V80.2Zm0,20.87h81.36V112.9H302.87V101.07Zm0,20.86h81.36v11.84H302.87V121.93Zm0,20.87h81.36v11.83H302.87V142.8Zm0,20.86h81.36V175.5H302.87V163.66Zm0,20.86h81.36v11.84H302.87V184.52Zm0,20.87h81.36v11.84H302.87V205.39Zm0,20.86h81.36v11.84H302.87V226.25Zm0,20.87h81.36V259H302.87V247.12Zm0,20.86h81.36v11.84H302.87V268Zm0,20.87h81.36v11.84H302.87V288.85Zm0-229.51h81.36V71.18H302.87V59.34ZM384.23,48.7H302.87V36.86h81.36V48.7Z"/><polygon class="cls-16" points="288.84 120.11 288.84 273 272.15 273 272.15 128.03 288.84 120.11"/><g class="cls-17"><path class="cls-18" d="M326.5,70.84a9.16,9.16,0,0,1-6.89-3.19,11.23,11.23,0,0,1-2.72-6.5.21.21,0,1,1,.41,0,10.71,10.71,0,0,0,2.62,6.25,8.72,8.72,0,0,0,6.58,3.06,10,10,0,0,0,3.08-.45,9.5,9.5,0,0,0,2.88-1.57,1.21,1.21,0,0,0,.47-.82,1.19,1.19,0,0,0-.24-.91,1.23,1.23,0,0,0-1.73-.22A6.78,6.78,0,0,1,326.5,68a6.32,6.32,0,0,1-4.74-2.23,8.17,8.17,0,0,1-2-4.63.2.2,0,0,1,.18-.23.22.22,0,0,1,.23.19,7.74,7.74,0,0,0,1.88,4.4,5.91,5.91,0,0,0,4.43,2.08,7,7,0,0,0,2.19-.31,6.55,6.55,0,0,0,2-1.11,1.65,1.65,0,0,1,1.21-.32,1.58,1.58,0,0,1,1.09.62,1.64,1.64,0,0,1-.29,2.3,9.92,9.92,0,0,1-3,1.64A10.2,10.2,0,0,1,326.5,70.84Zm-9.41-11.39h0a.21.21,0,0,1-.19-.23,11.22,11.22,0,0,1,2.72-6.51,9.16,9.16,0,0,1,6.89-3.19,8.83,8.83,0,0,1,3,.53,9.18,9.18,0,0,1,2.7,1.53,1.65,1.65,0,0,1,.23,2.31,1.65,1.65,0,0,1-2.31.24,5.88,5.88,0,0,0-1.73-1,5.59,5.59,0,0,0-1.9-.33,5.91,5.91,0,0,0-4.43,2.08,7.76,7.76,0,0,0-1.87,4.31.2.2,0,0,1-.23.18.19.19,0,0,1-.18-.23,8.2,8.2,0,0,1,2-4.53,6.34,6.34,0,0,1,4.74-2.22,6.16,6.16,0,0,1,2,.35,6.34,6.34,0,0,1,1.85,1.06,1.24,1.24,0,0,0,1.74-.18A1.23,1.23,0,0,0,332,51.9a8.71,8.71,0,0,0-2.58-1.46,8.27,8.27,0,0,0-2.87-.51A8.76,8.76,0,0,0,319.92,53a10.77,10.77,0,0,0-2.62,6.27A.21.21,0,0,1,317.09,59.45Z"/></g><g class="cls-19"><path class="cls-20" d="M327.29,69.9a9.17,9.17,0,0,1-6.89-3.2,11.23,11.23,0,0,1-2.72-6.49.21.21,0,0,1,.19-.23.23.23,0,0,1,.22.19,10.76,10.76,0,0,0,2.62,6.26,8.76,8.76,0,0,0,6.58,3.06,9.71,9.71,0,0,0,3.08-.46,9.5,9.5,0,0,0,2.88-1.57,1.21,1.21,0,0,0,.47-.81,1.23,1.23,0,0,0-.24-.91,1.24,1.24,0,0,0-1.73-.23,7.29,7.29,0,0,1-2.15,1.18,7.45,7.45,0,0,1-2.31.33,6.32,6.32,0,0,1-4.74-2.22,8.21,8.21,0,0,1-2-4.64.21.21,0,0,1,.41,0,7.79,7.79,0,0,0,1.89,4.4,5.89,5.89,0,0,0,4.43,2.09,6.32,6.32,0,0,0,4.21-1.42,1.59,1.59,0,0,1,1.21-.33,1.66,1.66,0,0,1,1.09.62,1.62,1.62,0,0,1,.33,1.22,1.66,1.66,0,0,1-.63,1.09,9.83,9.83,0,0,1-3,1.63A10.24,10.24,0,0,1,327.29,69.9Zm-9.41-11.4h0a.2.2,0,0,1-.19-.22,11.19,11.19,0,0,1,2.72-6.51,9.17,9.17,0,0,1,6.89-3.2,8.83,8.83,0,0,1,3,.53A9.22,9.22,0,0,1,333,50.63a1.62,1.62,0,0,1,.6,1.11,1.58,1.58,0,0,1-.36,1.2,1.64,1.64,0,0,1-2.31.24,6,6,0,0,0-1.74-1,5.49,5.49,0,0,0-1.89-.33A5.89,5.89,0,0,0,322.86,54a7.71,7.71,0,0,0-1.88,4.3.2.2,0,1,1-.4,0,8.23,8.23,0,0,1,2-4.54,6.32,6.32,0,0,1,4.74-2.22,5.83,5.83,0,0,1,2,.36,6.36,6.36,0,0,1,1.86,1,1.23,1.23,0,0,0,1.73-.17,1.24,1.24,0,0,0-.18-1.74,9,9,0,0,0-2.57-1.46,8.31,8.31,0,0,0-2.87-.51A8.76,8.76,0,0,0,320.71,52a10.79,10.79,0,0,0-2.62,6.27A.21.21,0,0,1,317.88,58.5Z"/></g><g class="cls-21"><path class="cls-22" d="M327.29,69.9a9.17,9.17,0,0,1-6.89-3.2,11.23,11.23,0,0,1-2.72-6.49.21.21,0,0,1,.19-.23.23.23,0,0,1,.22.19,10.76,10.76,0,0,0,2.62,6.26,8.76,8.76,0,0,0,6.58,3.06,9.71,9.71,0,0,0,3.08-.46,9.5,9.5,0,0,0,2.88-1.57,1.21,1.21,0,0,0,.47-.81,1.23,1.23,0,0,0-.24-.91,1.24,1.24,0,0,0-1.73-.23,7.29,7.29,0,0,1-2.15,1.18,7.45,7.45,0,0,1-2.31.33,6.32,6.32,0,0,1-4.74-2.22,8.21,8.21,0,0,1-2-4.64.21.21,0,0,1,.41,0,7.79,7.79,0,0,0,1.89,4.4,5.89,5.89,0,0,0,4.43,2.09,6.32,6.32,0,0,0,4.21-1.42,1.59,1.59,0,0,1,1.21-.33,1.66,1.66,0,0,1,1.09.62,1.62,1.62,0,0,1,.33,1.22,1.66,1.66,0,0,1-.63,1.09,9.83,9.83,0,0,1-3,1.63A10.24,10.24,0,0,1,327.29,69.9Zm-9.41-11.4h0a.2.2,0,0,1-.19-.22,11.19,11.19,0,0,1,2.72-6.51,9.17,9.17,0,0,1,6.89-3.2,8.83,8.83,0,0,1,3,.53A9.22,9.22,0,0,1,333,50.63a1.62,1.62,0,0,1,.6,1.11,1.58,1.58,0,0,1-.36,1.2,1.64,1.64,0,0,1-2.31.24,6,6,0,0,0-1.74-1,5.49,5.49,0,0,0-1.89-.33A5.89,5.89,0,0,0,322.86,54a7.71,7.71,0,0,0-1.88,4.3.2.2,0,1,1-.4,0,8.23,8.23,0,0,1,2-4.54,6.32,6.32,0,0,1,4.74-2.22,5.83,5.83,0,0,1,2,.36,6.36,6.36,0,0,1,1.86,1,1.23,1.23,0,0,0,1.73-.17,1.24,1.24,0,0,0-.18-1.74,9,9,0,0,0-2.57-1.46,8.31,8.31,0,0,0-2.87-.51A8.76,8.76,0,0,0,320.71,52a10.79,10.79,0,0,0-2.62,6.27A.21.21,0,0,1,317.88,58.5Z"/></g><path class="cls-23" d="M327.29,69.9a9.17,9.17,0,0,1-6.89-3.2,11.23,11.23,0,0,1-2.72-6.49.21.21,0,0,1,.19-.23.23.23,0,0,1,.22.19,10.76,10.76,0,0,0,2.62,6.26,8.76,8.76,0,0,0,6.58,3.06,9.71,9.71,0,0,0,3.08-.46,9.5,9.5,0,0,0,2.88-1.57,1.21,1.21,0,0,0,.47-.81,1.23,1.23,0,0,0-.24-.91,1.24,1.24,0,0,0-1.73-.23,7.29,7.29,0,0,1-2.15,1.18,7.45,7.45,0,0,1-2.31.33,6.32,6.32,0,0,1-4.74-2.22,8.21,8.21,0,0,1-2-4.64.21.21,0,0,1,.41,0,7.79,7.79,0,0,0,1.89,4.4,5.89,5.89,0,0,0,4.43,2.09,6.32,6.32,0,0,0,4.21-1.42,1.59,1.59,0,0,1,1.21-.33,1.66,1.66,0,0,1,1.09.62,1.62,1.62,0,0,1,.33,1.22,1.66,1.66,0,0,1-.63,1.09,9.83,9.83,0,0,1-3,1.63A10.24,10.24,0,0,1,327.29,69.9Zm-9.41-11.4h0a.2.2,0,0,1-.19-.22,11.19,11.19,0,0,1,2.72-6.51,9.17,9.17,0,0,1,6.89-3.2,8.83,8.83,0,0,1,3,.53A9.22,9.22,0,0,1,333,50.63a1.62,1.62,0,0,1,.6,1.11,1.58,1.58,0,0,1-.36,1.2,1.64,1.64,0,0,1-2.31.24,6,6,0,0,0-1.74-1,5.49,5.49,0,0,0-1.89-.33A5.89,5.89,0,0,0,322.86,54a7.71,7.71,0,0,0-1.88,4.3.2.2,0,1,1-.4,0,8.23,8.23,0,0,1,2-4.54,6.32,6.32,0,0,1,4.74-2.22,5.83,5.83,0,0,1,2,.36,6.36,6.36,0,0,1,1.86,1,1.23,1.23,0,0,0,1.73-.17,1.24,1.24,0,0,0-.18-1.74,9,9,0,0,0-2.57-1.46,8.31,8.31,0,0,0-2.87-.51A8.76,8.76,0,0,0,320.71,52a10.79,10.79,0,0,0-2.62,6.27A.21.21,0,0,1,317.88,58.5Z"/><g class="cls-24"><path class="cls-25" d="M327.29,69.9a9.17,9.17,0,0,1-6.89-3.2,11.23,11.23,0,0,1-2.72-6.49.21.21,0,0,1,.19-.23.23.23,0,0,1,.22.19,10.76,10.76,0,0,0,2.62,6.26,8.76,8.76,0,0,0,6.58,3.06,9.71,9.71,0,0,0,3.08-.46,9.5,9.5,0,0,0,2.88-1.57,1.21,1.21,0,0,0,.47-.81,1.23,1.23,0,0,0-.24-.91,1.24,1.24,0,0,0-1.73-.23,7.29,7.29,0,0,1-2.15,1.18,7.45,7.45,0,0,1-2.31.33,6.32,6.32,0,0,1-4.74-2.22,8.21,8.21,0,0,1-2-4.64.21.21,0,0,1,.41,0,7.79,7.79,0,0,0,1.89,4.4,5.89,5.89,0,0,0,4.43,2.09,6.32,6.32,0,0,0,4.21-1.42,1.59,1.59,0,0,1,1.21-.33,1.66,1.66,0,0,1,1.09.62,1.62,1.62,0,0,1,.33,1.22,1.66,1.66,0,0,1-.63,1.09,9.83,9.83,0,0,1-3,1.63A10.24,10.24,0,0,1,327.29,69.9Zm-9.41-11.4h0a.2.2,0,0,1-.19-.22,11.19,11.19,0,0,1,2.72-6.51,9.17,9.17,0,0,1,6.89-3.2,8.83,8.83,0,0,1,3,.53A9.22,9.22,0,0,1,333,50.63a1.62,1.62,0,0,1,.6,1.11,1.58,1.58,0,0,1-.36,1.2,1.64,1.64,0,0,1-2.31.24,6,6,0,0,0-1.74-1,5.49,5.49,0,0,0-1.89-.33A5.89,5.89,0,0,0,322.86,54a7.71,7.71,0,0,0-1.88,4.3.2.2,0,1,1-.4,0,8.23,8.23,0,0,1,2-4.54,6.32,6.32,0,0,1,4.74-2.22,5.83,5.83,0,0,1,2,.36,6.36,6.36,0,0,1,1.86,1,1.23,1.23,0,0,0,1.73-.17,1.24,1.24,0,0,0-.18-1.74,9,9,0,0,0-2.57-1.46,8.31,8.31,0,0,0-2.87-.51A8.76,8.76,0,0,0,320.71,52a10.79,10.79,0,0,0-2.62,6.27A.21.21,0,0,1,317.88,58.5Z"/></g><path class="cls-26" d="M327.29,69.9a9.17,9.17,0,0,1-6.89-3.2,11.23,11.23,0,0,1-2.72-6.49.21.21,0,0,1,.19-.23.23.23,0,0,1,.22.19,10.76,10.76,0,0,0,2.62,6.26,8.76,8.76,0,0,0,6.58,3.06,9.71,9.71,0,0,0,3.08-.46,9.5,9.5,0,0,0,2.88-1.57,1.21,1.21,0,0,0,.47-.81,1.23,1.23,0,0,0-.24-.91,1.24,1.24,0,0,0-1.73-.23,7.29,7.29,0,0,1-2.15,1.18,7.45,7.45,0,0,1-2.31.33,6.32,6.32,0,0,1-4.74-2.22,8.21,8.21,0,0,1-2-4.64.21.21,0,0,1,.41,0,7.79,7.79,0,0,0,1.89,4.4,5.89,5.89,0,0,0,4.43,2.09,6.32,6.32,0,0,0,4.21-1.42,1.59,1.59,0,0,1,1.21-.33,1.66,1.66,0,0,1,1.09.62,1.62,1.62,0,0,1,.33,1.22,1.66,1.66,0,0,1-.63,1.09,9.83,9.83,0,0,1-3,1.63A10.24,10.24,0,0,1,327.29,69.9Zm-9.41-11.4h0a.2.2,0,0,1-.19-.22,11.19,11.19,0,0,1,2.72-6.51,9.17,9.17,0,0,1,6.89-3.2,8.83,8.83,0,0,1,3,.53A9.22,9.22,0,0,1,333,50.63a1.62,1.62,0,0,1,.6,1.11,1.58,1.58,0,0,1-.36,1.2,1.64,1.64,0,0,1-2.31.24,6,6,0,0,0-1.74-1,5.49,5.49,0,0,0-1.89-.33A5.89,5.89,0,0,0,322.86,54a7.71,7.71,0,0,0-1.88,4.3.2.2,0,1,1-.4,0,8.23,8.23,0,0,1,2-4.54,6.32,6.32,0,0,1,4.74-2.22,5.83,5.83,0,0,1,2,.36,6.36,6.36,0,0,1,1.86,1,1.23,1.23,0,0,0,1.73-.17,1.24,1.24,0,0,0-.18-1.74,9,9,0,0,0-2.57-1.46,8.31,8.31,0,0,0-2.87-.51A8.76,8.76,0,0,0,320.71,52a10.79,10.79,0,0,0-2.62,6.27A.21.21,0,0,1,317.88,58.5Z"/><path class="cls-27" d="M327.29,69.9a9.17,9.17,0,0,1-6.89-3.2,11.23,11.23,0,0,1-2.72-6.49.21.21,0,0,1,.19-.23.23.23,0,0,1,.22.19,10.76,10.76,0,0,0,2.62,6.26,8.76,8.76,0,0,0,6.58,3.06,9.71,9.71,0,0,0,3.08-.46,9.5,9.5,0,0,0,2.88-1.57,1.21,1.21,0,0,0,.47-.81,1.23,1.23,0,0,0-.24-.91,1.24,1.24,0,0,0-1.73-.23,7.29,7.29,0,0,1-2.15,1.18,7.45,7.45,0,0,1-2.31.33,6.32,6.32,0,0,1-4.74-2.22,8.21,8.21,0,0,1-2-4.64.21.21,0,0,1,.41,0,7.79,7.79,0,0,0,1.89,4.4,5.89,5.89,0,0,0,4.43,2.09,6.32,6.32,0,0,0,4.21-1.42,1.59,1.59,0,0,1,1.21-.33,1.66,1.66,0,0,1,1.09.62,1.62,1.62,0,0,1,.33,1.22,1.66,1.66,0,0,1-.63,1.09,9.83,9.83,0,0,1-3,1.63A10.24,10.24,0,0,1,327.29,69.9Zm-9.41-11.4h0a.2.2,0,0,1-.19-.22,11.19,11.19,0,0,1,2.72-6.51,9.17,9.17,0,0,1,6.89-3.2,8.83,8.83,0,0,1,3,.53A9.22,9.22,0,0,1,333,50.63a1.62,1.62,0,0,1,.6,1.11,1.58,1.58,0,0,1-.36,1.2,1.64,1.64,0,0,1-2.31.24,6,6,0,0,0-1.74-1,5.49,5.49,0,0,0-1.89-.33A5.89,5.89,0,0,0,322.86,54a7.71,7.71,0,0,0-1.88,4.3.2.2,0,1,1-.4,0,8.23,8.23,0,0,1,2-4.54,6.32,6.32,0,0,1,4.74-2.22,5.83,5.83,0,0,1,2,.36,6.36,6.36,0,0,1,1.86,1,1.23,1.23,0,0,0,1.73-.17,1.24,1.24,0,0,0-.18-1.74,9,9,0,0,0-2.57-1.46,8.31,8.31,0,0,0-2.87-.51A8.76,8.76,0,0,0,320.71,52a10.79,10.79,0,0,0-2.62,6.27A.21.21,0,0,1,317.88,58.5Z"/><path class="cls-28" d="M327.29,69.9a9.17,9.17,0,0,1-6.89-3.2,11.23,11.23,0,0,1-2.72-6.49.21.21,0,0,1,.19-.23.23.23,0,0,1,.22.19,10.76,10.76,0,0,0,2.62,6.26,8.76,8.76,0,0,0,6.58,3.06,9.71,9.71,0,0,0,3.08-.46,9.5,9.5,0,0,0,2.88-1.57,1.21,1.21,0,0,0,.47-.81,1.23,1.23,0,0,0-.24-.91,1.24,1.24,0,0,0-1.73-.23,7.29,7.29,0,0,1-2.15,1.18,7.45,7.45,0,0,1-2.31.33,6.32,6.32,0,0,1-4.74-2.22,8.21,8.21,0,0,1-2-4.64.21.21,0,0,1,.41,0,7.79,7.79,0,0,0,1.89,4.4,5.89,5.89,0,0,0,4.43,2.09,6.32,6.32,0,0,0,4.21-1.42,1.59,1.59,0,0,1,1.21-.33,1.66,1.66,0,0,1,1.09.62,1.62,1.62,0,0,1,.33,1.22,1.66,1.66,0,0,1-.63,1.09,9.83,9.83,0,0,1-3,1.63A10.24,10.24,0,0,1,327.29,69.9Zm-9.41-11.4h0a.2.2,0,0,1-.19-.22,11.19,11.19,0,0,1,2.72-6.51,9.17,9.17,0,0,1,6.89-3.2,8.83,8.83,0,0,1,3,.53A9.22,9.22,0,0,1,333,50.63a1.62,1.62,0,0,1,.6,1.11,1.58,1.58,0,0,1-.36,1.2,1.64,1.64,0,0,1-2.31.24,6,6,0,0,0-1.74-1,5.49,5.49,0,0,0-1.89-.33A5.89,5.89,0,0,0,322.86,54a7.71,7.71,0,0,0-1.88,4.3.2.2,0,1,1-.4,0,8.23,8.23,0,0,1,2-4.54,6.32,6.32,0,0,1,4.74-2.22,5.83,5.83,0,0,1,2,.36,6.36,6.36,0,0,1,1.86,1,1.23,1.23,0,0,0,1.73-.17,1.24,1.24,0,0,0-.18-1.74,9,9,0,0,0-2.57-1.46,8.31,8.31,0,0,0-2.87-.51A8.76,8.76,0,0,0,320.71,52a10.79,10.79,0,0,0-2.62,6.27A.21.21,0,0,1,317.88,58.5Z"/><path class="cls-2" d="M327.29,69.9a9.17,9.17,0,0,1-6.89-3.2,11.23,11.23,0,0,1-2.72-6.49.21.21,0,0,1,.19-.23.23.23,0,0,1,.22.19,10.76,10.76,0,0,0,2.62,6.26,8.76,8.76,0,0,0,6.58,3.06,9.71,9.71,0,0,0,3.08-.46,9.5,9.5,0,0,0,2.88-1.57,1.21,1.21,0,0,0,.47-.81,1.23,1.23,0,0,0-.24-.91,1.24,1.24,0,0,0-1.73-.23,7.29,7.29,0,0,1-2.15,1.18,7.45,7.45,0,0,1-2.31.33,6.32,6.32,0,0,1-4.74-2.22,8.21,8.21,0,0,1-2-4.64.21.21,0,0,1,.41,0,7.79,7.79,0,0,0,1.89,4.4,5.89,5.89,0,0,0,4.43,2.09,6.32,6.32,0,0,0,4.21-1.42,1.59,1.59,0,0,1,1.21-.33,1.66,1.66,0,0,1,1.09.62,1.62,1.62,0,0,1,.33,1.22,1.66,1.66,0,0,1-.63,1.09,9.83,9.83,0,0,1-3,1.63A10.24,10.24,0,0,1,327.29,69.9Zm-9.41-11.4h0a.2.2,0,0,1-.19-.22,11.19,11.19,0,0,1,2.72-6.51,9.17,9.17,0,0,1,6.89-3.2,8.83,8.83,0,0,1,3,.53A9.22,9.22,0,0,1,333,50.63a1.62,1.62,0,0,1,.6,1.11,1.58,1.58,0,0,1-.36,1.2,1.64,1.64,0,0,1-2.31.24,6,6,0,0,0-1.74-1,5.49,5.49,0,0,0-1.89-.33A5.89,5.89,0,0,0,322.86,54a7.71,7.71,0,0,0-1.88,4.3.2.2,0,1,1-.4,0,8.23,8.23,0,0,1,2-4.54,6.32,6.32,0,0,1,4.74-2.22,5.83,5.83,0,0,1,2,.36,6.36,6.36,0,0,1,1.86,1,1.23,1.23,0,0,0,1.73-.17,1.24,1.24,0,0,0-.18-1.74,9,9,0,0,0-2.57-1.46,8.31,8.31,0,0,0-2.87-.51A8.76,8.76,0,0,0,320.71,52a10.79,10.79,0,0,0-2.62,6.27A.21.21,0,0,1,317.88,58.5Z"/><g class="cls-17"><path class="cls-18" d="M359.59,70.84A1.64,1.64,0,0,1,358,69.2v-18a1.64,1.64,0,0,1,1.64-1.64h5.81a6.23,6.23,0,0,1,4.61,2,7.09,7.09,0,0,1,0,9.55,6.27,6.27,0,0,1-4.61,2.05h-2.56a.2.2,0,0,1-.2-.2.2.2,0,0,1,.2-.21h2.56a5.8,5.8,0,0,0,4.3-1.92,6.65,6.65,0,0,0,0-9,5.8,5.8,0,0,0-4.3-1.92h-5.81a1.23,1.23,0,0,0-1.23,1.23v18a1.24,1.24,0,0,0,2.47,0V63a.2.2,0,0,1,.2-.21.21.21,0,0,1,.21.21V69.2A1.64,1.64,0,0,1,359.59,70.84Zm5.81-10.55H361a.2.2,0,0,1-.2-.2V52.6a.2.2,0,0,1,.2-.2.2.2,0,0,1,.21.2v7.28h4.16a3,3,0,0,0,2.2-1,3.82,3.82,0,0,0,0-5.09,3,3,0,0,0-2.2-1h-2.56a.21.21,0,0,1-.2-.21.2.2,0,0,1,.2-.2h2.56a3.42,3.42,0,0,1,2.5,1.12,4.21,4.21,0,0,1,0,5.65A3.42,3.42,0,0,1,365.4,60.29Z"/></g><g class="cls-19"><path class="cls-20" d="M360.38,69.9a1.64,1.64,0,0,1-1.64-1.65v-18a1.64,1.64,0,0,1,1.64-1.65h5.81a6.23,6.23,0,0,1,4.6,2,7.07,7.07,0,0,1,0,9.56,6.23,6.23,0,0,1-4.6,2h-2.56a.21.21,0,0,1,0-.42h2.56a5.86,5.86,0,0,0,4.3-1.91,6.66,6.66,0,0,0,0-9,5.83,5.83,0,0,0-4.3-1.92h-5.81a1.24,1.24,0,0,0-1.23,1.24v18a1.23,1.23,0,1,0,2.46,0V62a.21.21,0,1,1,.42,0v6.23A1.65,1.65,0,0,1,360.38,69.9Zm5.81-10.55h-4.37a.21.21,0,0,1-.21-.21V51.66a.21.21,0,1,1,.42,0v7.28h4.16a3,3,0,0,0,2.2-1,3.81,3.81,0,0,0,0-5.08,3,3,0,0,0-2.2-1h-2.56a.21.21,0,1,1,0-.41h2.56a3.41,3.41,0,0,1,2.5,1.13,4.22,4.22,0,0,1,0,5.64A3.41,3.41,0,0,1,366.19,59.35Z"/></g><g class="cls-21"><path class="cls-22" d="M360.38,69.9a1.64,1.64,0,0,1-1.64-1.65v-18a1.64,1.64,0,0,1,1.64-1.65h5.81a6.23,6.23,0,0,1,4.6,2,7.07,7.07,0,0,1,0,9.56,6.23,6.23,0,0,1-4.6,2h-2.56a.21.21,0,0,1,0-.42h2.56a5.86,5.86,0,0,0,4.3-1.91,6.66,6.66,0,0,0,0-9,5.83,5.83,0,0,0-4.3-1.92h-5.81a1.24,1.24,0,0,0-1.23,1.24v18a1.23,1.23,0,1,0,2.46,0V62a.21.21,0,1,1,.42,0v6.23A1.65,1.65,0,0,1,360.38,69.9Zm5.81-10.55h-4.37a.21.21,0,0,1-.21-.21V51.66a.21.21,0,1,1,.42,0v7.28h4.16a3,3,0,0,0,2.2-1,3.81,3.81,0,0,0,0-5.08,3,3,0,0,0-2.2-1h-2.56a.21.21,0,1,1,0-.41h2.56a3.41,3.41,0,0,1,2.5,1.13,4.22,4.22,0,0,1,0,5.64A3.41,3.41,0,0,1,366.19,59.35Z"/></g><path class="cls-23" d="M360.38,69.9a1.64,1.64,0,0,1-1.64-1.65v-18a1.64,1.64,0,0,1,1.64-1.65h5.81a6.23,6.23,0,0,1,4.6,2,7.07,7.07,0,0,1,0,9.56,6.23,6.23,0,0,1-4.6,2h-2.56a.21.21,0,0,1,0-.42h2.56a5.86,5.86,0,0,0,4.3-1.91,6.66,6.66,0,0,0,0-9,5.83,5.83,0,0,0-4.3-1.92h-5.81a1.24,1.24,0,0,0-1.23,1.24v18a1.23,1.23,0,1,0,2.46,0V62a.21.21,0,1,1,.42,0v6.23A1.65,1.65,0,0,1,360.38,69.9Zm5.81-10.55h-4.37a.21.21,0,0,1-.21-.21V51.66a.21.21,0,1,1,.42,0v7.28h4.16a3,3,0,0,0,2.2-1,3.81,3.81,0,0,0,0-5.08,3,3,0,0,0-2.2-1h-2.56a.21.21,0,1,1,0-.41h2.56a3.41,3.41,0,0,1,2.5,1.13,4.22,4.22,0,0,1,0,5.64A3.41,3.41,0,0,1,366.19,59.35Z"/><g class="cls-24"><path class="cls-25" d="M360.38,69.9a1.64,1.64,0,0,1-1.64-1.65v-18a1.64,1.64,0,0,1,1.64-1.65h5.81a6.23,6.23,0,0,1,4.6,2,7.07,7.07,0,0,1,0,9.56,6.23,6.23,0,0,1-4.6,2h-2.56a.21.21,0,0,1,0-.42h2.56a5.86,5.86,0,0,0,4.3-1.91,6.66,6.66,0,0,0,0-9,5.83,5.83,0,0,0-4.3-1.92h-5.81a1.24,1.24,0,0,0-1.23,1.24v18a1.23,1.23,0,1,0,2.46,0V62a.21.21,0,1,1,.42,0v6.23A1.65,1.65,0,0,1,360.38,69.9Zm5.81-10.55h-4.37a.21.21,0,0,1-.21-.21V51.66a.21.21,0,1,1,.42,0v7.28h4.16a3,3,0,0,0,2.2-1,3.81,3.81,0,0,0,0-5.08,3,3,0,0,0-2.2-1h-2.56a.21.21,0,1,1,0-.41h2.56a3.41,3.41,0,0,1,2.5,1.13,4.22,4.22,0,0,1,0,5.64A3.41,3.41,0,0,1,366.19,59.35Z"/></g><path class="cls-26" d="M360.38,69.9a1.64,1.64,0,0,1-1.64-1.65v-18a1.64,1.64,0,0,1,1.64-1.65h5.81a6.23,6.23,0,0,1,4.6,2,7.07,7.07,0,0,1,0,9.56,6.23,6.23,0,0,1-4.6,2h-2.56a.21.21,0,0,1,0-.42h2.56a5.86,5.86,0,0,0,4.3-1.91,6.66,6.66,0,0,0,0-9,5.83,5.83,0,0,0-4.3-1.92h-5.81a1.24,1.24,0,0,0-1.23,1.24v18a1.23,1.23,0,1,0,2.46,0V62a.21.21,0,1,1,.42,0v6.23A1.65,1.65,0,0,1,360.38,69.9Zm5.81-10.55h-4.37a.21.21,0,0,1-.21-.21V51.66a.21.21,0,1,1,.42,0v7.28h4.16a3,3,0,0,0,2.2-1,3.81,3.81,0,0,0,0-5.08,3,3,0,0,0-2.2-1h-2.56a.21.21,0,1,1,0-.41h2.56a3.41,3.41,0,0,1,2.5,1.13,4.22,4.22,0,0,1,0,5.64A3.41,3.41,0,0,1,366.19,59.35Z"/><path class="cls-27" d="M360.38,69.9a1.64,1.64,0,0,1-1.64-1.65v-18a1.64,1.64,0,0,1,1.64-1.65h5.81a6.23,6.23,0,0,1,4.6,2,7.07,7.07,0,0,1,0,9.56,6.23,6.23,0,0,1-4.6,2h-2.56a.21.21,0,0,1,0-.42h2.56a5.86,5.86,0,0,0,4.3-1.91,6.66,6.66,0,0,0,0-9,5.83,5.83,0,0,0-4.3-1.92h-5.81a1.24,1.24,0,0,0-1.23,1.24v18a1.23,1.23,0,1,0,2.46,0V62a.21.21,0,1,1,.42,0v6.23A1.65,1.65,0,0,1,360.38,69.9Zm5.81-10.55h-4.37a.21.21,0,0,1-.21-.21V51.66a.21.21,0,1,1,.42,0v7.28h4.16a3,3,0,0,0,2.2-1,3.81,3.81,0,0,0,0-5.08,3,3,0,0,0-2.2-1h-2.56a.21.21,0,1,1,0-.41h2.56a3.41,3.41,0,0,1,2.5,1.13,4.22,4.22,0,0,1,0,5.64A3.41,3.41,0,0,1,366.19,59.35Z"/><path class="cls-28" d="M360.38,69.9a1.64,1.64,0,0,1-1.64-1.65v-18a1.64,1.64,0,0,1,1.64-1.65h5.81a6.23,6.23,0,0,1,4.6,2,7.07,7.07,0,0,1,0,9.56,6.23,6.23,0,0,1-4.6,2h-2.56a.21.21,0,0,1,0-.42h2.56a5.86,5.86,0,0,0,4.3-1.91,6.66,6.66,0,0,0,0-9,5.83,5.83,0,0,0-4.3-1.92h-5.81a1.24,1.24,0,0,0-1.23,1.24v18a1.23,1.23,0,1,0,2.46,0V62a.21.21,0,1,1,.42,0v6.23A1.65,1.65,0,0,1,360.38,69.9Zm5.81-10.55h-4.37a.21.21,0,0,1-.21-.21V51.66a.21.21,0,1,1,.42,0v7.28h4.16a3,3,0,0,0,2.2-1,3.81,3.81,0,0,0,0-5.08,3,3,0,0,0-2.2-1h-2.56a.21.21,0,1,1,0-.41h2.56a3.41,3.41,0,0,1,2.5,1.13,4.22,4.22,0,0,1,0,5.64A3.41,3.41,0,0,1,366.19,59.35Z"/><path class="cls-2" d="M360.38,69.9a1.64,1.64,0,0,1-1.64-1.65v-18a1.64,1.64,0,0,1,1.64-1.65h5.81a6.23,6.23,0,0,1,4.6,2,7.07,7.07,0,0,1,0,9.56,6.23,6.23,0,0,1-4.6,2h-2.56a.21.21,0,0,1,0-.42h2.56a5.86,5.86,0,0,0,4.3-1.91,6.66,6.66,0,0,0,0-9,5.83,5.83,0,0,0-4.3-1.92h-5.81a1.24,1.24,0,0,0-1.23,1.24v18a1.23,1.23,0,1,0,2.46,0V62a.21.21,0,1,1,.42,0v6.23A1.65,1.65,0,0,1,360.38,69.9Zm5.81-10.55h-4.37a.21.21,0,0,1-.21-.21V51.66a.21.21,0,1,1,.42,0v7.28h4.16a3,3,0,0,0,2.2-1,3.81,3.81,0,0,0,0-5.08,3,3,0,0,0-2.2-1h-2.56a.21.21,0,1,1,0-.41h2.56a3.41,3.41,0,0,1,2.5,1.13,4.22,4.22,0,0,1,0,5.64A3.41,3.41,0,0,1,366.19,59.35Z"/><g class="cls-17"><path class="cls-18" d="M345.34,70.86a14.36,14.36,0,0,1-3.62-.44,6.53,6.53,0,0,1-2.83-1.4,1.58,1.58,0,0,1-.52-1.14,1.61,1.61,0,0,1,.44-1.18c.85-.91,1.73-.44,2.59,0a5.32,5.32,0,0,0,1.15.51,11,11,0,0,0,2.79.33l.31,0a3.46,3.46,0,0,0,2-1,.2.2,0,1,1,.28.29A3.88,3.88,0,0,1,345.69,68l-.35,0a11.69,11.69,0,0,1-2.89-.34,5.59,5.59,0,0,1-1.25-.55c-.91-.49-1.49-.76-2.09-.11a1.23,1.23,0,0,0,.06,1.74,6.13,6.13,0,0,0,2.66,1.3,13.9,13.9,0,0,0,3.51.42q.3,0,.6,0a6.42,6.42,0,0,0,3.75-1.75,5.67,5.67,0,0,0,1.76-4.15c0-.22,0-.44,0-.65-.33-3.17-2.51-4.3-5.55-5.55l-.21-.08c-1.28-.52-3-1.23-3.74-2.52a1.91,1.91,0,0,1-.25-.93.2.2,0,0,1,.2-.21.21.21,0,0,1,.21.21,1.54,1.54,0,0,0,.2.73c.65,1.16,2.32,1.84,3.53,2.34l.22.08c2.54,1,5.42,2.22,5.79,5.88a5.8,5.8,0,0,1,0,.7A6.17,6.17,0,0,1,350,69a6.89,6.89,0,0,1-4,1.86C345.77,70.84,345.56,70.86,345.34,70.86Zm3.44-6.15a.21.21,0,0,1-.21-.2c0-.12,0-.24,0-.36-.18-1.72-1.93-2.43-3.47-3.05l-.31-.13c-1.95-.8-4.17-1.71-5.37-3.86a4.81,4.81,0,0,1-.62-2.33,4.71,4.71,0,0,1,.83-2.65,5.83,5.83,0,0,1,2-1.81,6.59,6.59,0,0,1,3.18-.81A8.7,8.7,0,0,1,349.94,51a1.64,1.64,0,0,1-2.09,2.54,5.83,5.83,0,0,0-3.05-.72,3.25,3.25,0,0,0-1.58.39.2.2,0,0,1-.28-.08.19.19,0,0,1,.08-.27,3.6,3.6,0,0,1,1.78-.46,6.19,6.19,0,0,1,3.29.8,1.23,1.23,0,1,0,1.59-1.88,8.28,8.28,0,0,0-4.88-1.38,6.14,6.14,0,0,0-3,.76A5.4,5.4,0,0,0,340,52.36a4.25,4.25,0,0,0-.19,4.55c1.13,2,3.18,2.87,5.17,3.68l.31.13c1.56.63,3.51,1.42,3.71,3.39a2.61,2.61,0,0,1,0,.4A.2.2,0,0,1,348.78,64.71Z"/></g><g class="cls-19"><path class="cls-20" d="M346.13,69.91a14.78,14.78,0,0,1-3.62-.43,6.53,6.53,0,0,1-2.83-1.4,1.66,1.66,0,0,1-.09-2.32c.86-.92,1.74-.44,2.59,0a6,6,0,0,0,1.16.52,11.32,11.32,0,0,0,2.79.32h.3a3.53,3.53,0,0,0,2.05-1,.21.21,0,0,1,.28.3A3.87,3.87,0,0,1,346.48,67a2.06,2.06,0,0,1-.35,0,11.31,11.31,0,0,1-2.9-.34,5.1,5.1,0,0,1-1.24-.55c-.91-.49-1.49-.75-2.09-.1a1.2,1.2,0,0,0-.33.88,1.23,1.23,0,0,0,.39.86,6.13,6.13,0,0,0,2.66,1.3,14.37,14.37,0,0,0,3.51.42q.3,0,.6,0a6.49,6.49,0,0,0,3.75-1.75,5.69,5.69,0,0,0,1.76-4.16,4.73,4.73,0,0,0,0-.65c-.32-3.17-2.5-4.3-5.54-5.54l-.22-.09c-1.27-.52-3-1.23-3.73-2.51a2,2,0,0,1-.26-.94.21.21,0,0,1,.42,0,1.5,1.5,0,0,0,.2.74c.65,1.16,2.31,1.84,3.53,2.33l.21.09c2.55,1,5.43,2.22,5.8,5.88a5.64,5.64,0,0,1,0,.69A6.14,6.14,0,0,1,350.76,68a6.78,6.78,0,0,1-4,1.86A4.58,4.58,0,0,1,346.13,69.91Zm3.44-6.14a.21.21,0,0,1-.21-.21,2,2,0,0,0,0-.35c-.17-1.73-1.92-2.44-3.46-3.06l-.31-.12c-2-.8-4.17-1.71-5.37-3.87a4.78,4.78,0,0,1-.62-2.33,4.68,4.68,0,0,1,.83-2.64,5.73,5.73,0,0,1,2-1.81,6.48,6.48,0,0,1,3.17-.82A8.74,8.74,0,0,1,350.73,50a1.64,1.64,0,0,1-2.09,2.53,5.94,5.94,0,0,0-3.06-.72,3.28,3.28,0,0,0-1.58.4.21.21,0,0,1-.28-.08.21.21,0,0,1,.08-.28,3.65,3.65,0,0,1,1.78-.45,6.21,6.21,0,0,1,3.3.8,1.23,1.23,0,0,0,1.59-1.89A8.36,8.36,0,0,0,345.58,49a6.14,6.14,0,0,0-3,.77,5.3,5.3,0,0,0-1.86,1.68,4.23,4.23,0,0,0-.19,4.54c1.12,2,3.18,2.87,5.17,3.69l.31.12c1.56.63,3.51,1.42,3.71,3.39a2.68,2.68,0,0,1,0,.4A.21.21,0,0,1,349.57,63.77Z"/></g><g class="cls-21"><path class="cls-22" d="M346.13,69.91a14.78,14.78,0,0,1-3.62-.43,6.53,6.53,0,0,1-2.83-1.4,1.66,1.66,0,0,1-.09-2.32c.86-.92,1.74-.44,2.59,0a6,6,0,0,0,1.16.52,11.32,11.32,0,0,0,2.79.32h.3a3.53,3.53,0,0,0,2.05-1,.21.21,0,0,1,.28.3A3.87,3.87,0,0,1,346.48,67a2.06,2.06,0,0,1-.35,0,11.31,11.31,0,0,1-2.9-.34,5.1,5.1,0,0,1-1.24-.55c-.91-.49-1.49-.75-2.09-.1a1.2,1.2,0,0,0-.33.88,1.23,1.23,0,0,0,.39.86,6.13,6.13,0,0,0,2.66,1.3,14.37,14.37,0,0,0,3.51.42q.3,0,.6,0a6.49,6.49,0,0,0,3.75-1.75,5.69,5.69,0,0,0,1.76-4.16,4.73,4.73,0,0,0,0-.65c-.32-3.17-2.5-4.3-5.54-5.54l-.22-.09c-1.27-.52-3-1.23-3.73-2.51a2,2,0,0,1-.26-.94.21.21,0,0,1,.42,0,1.5,1.5,0,0,0,.2.74c.65,1.16,2.31,1.84,3.53,2.33l.21.09c2.55,1,5.43,2.22,5.8,5.88a5.64,5.64,0,0,1,0,.69A6.14,6.14,0,0,1,350.76,68a6.78,6.78,0,0,1-4,1.86A4.58,4.58,0,0,1,346.13,69.91Zm3.44-6.14a.21.21,0,0,1-.21-.21,2,2,0,0,0,0-.35c-.17-1.73-1.92-2.44-3.46-3.06l-.31-.12c-2-.8-4.17-1.71-5.37-3.87a4.78,4.78,0,0,1-.62-2.33,4.68,4.68,0,0,1,.83-2.64,5.73,5.73,0,0,1,2-1.81,6.48,6.48,0,0,1,3.17-.82A8.74,8.74,0,0,1,350.73,50a1.64,1.64,0,0,1-2.09,2.53,5.94,5.94,0,0,0-3.06-.72,3.28,3.28,0,0,0-1.58.4.21.21,0,0,1-.28-.08.21.21,0,0,1,.08-.28,3.65,3.65,0,0,1,1.78-.45,6.21,6.21,0,0,1,3.3.8,1.23,1.23,0,0,0,1.59-1.89A8.36,8.36,0,0,0,345.58,49a6.14,6.14,0,0,0-3,.77,5.3,5.3,0,0,0-1.86,1.68,4.23,4.23,0,0,0-.19,4.54c1.12,2,3.18,2.87,5.17,3.69l.31.12c1.56.63,3.51,1.42,3.71,3.39a2.68,2.68,0,0,1,0,.4A.21.21,0,0,1,349.57,63.77Z"/></g><path class="cls-23" d="M346.13,69.91a14.78,14.78,0,0,1-3.62-.43,6.53,6.53,0,0,1-2.83-1.4,1.66,1.66,0,0,1-.09-2.32c.86-.92,1.74-.44,2.59,0a6,6,0,0,0,1.16.52,11.32,11.32,0,0,0,2.79.32h.3a3.53,3.53,0,0,0,2.05-1,.21.21,0,0,1,.28.3A3.87,3.87,0,0,1,346.48,67a2.06,2.06,0,0,1-.35,0,11.31,11.31,0,0,1-2.9-.34,5.1,5.1,0,0,1-1.24-.55c-.91-.49-1.49-.75-2.09-.1a1.2,1.2,0,0,0-.33.88,1.23,1.23,0,0,0,.39.86,6.13,6.13,0,0,0,2.66,1.3,14.37,14.37,0,0,0,3.51.42q.3,0,.6,0a6.49,6.49,0,0,0,3.75-1.75,5.69,5.69,0,0,0,1.76-4.16,4.73,4.73,0,0,0,0-.65c-.32-3.17-2.5-4.3-5.54-5.54l-.22-.09c-1.27-.52-3-1.23-3.73-2.51a2,2,0,0,1-.26-.94.21.21,0,0,1,.42,0,1.5,1.5,0,0,0,.2.74c.65,1.16,2.31,1.84,3.53,2.33l.21.09c2.55,1,5.43,2.22,5.8,5.88a5.64,5.64,0,0,1,0,.69A6.14,6.14,0,0,1,350.76,68a6.78,6.78,0,0,1-4,1.86A4.58,4.58,0,0,1,346.13,69.91Zm3.44-6.14a.21.21,0,0,1-.21-.21,2,2,0,0,0,0-.35c-.17-1.73-1.92-2.44-3.46-3.06l-.31-.12c-2-.8-4.17-1.71-5.37-3.87a4.78,4.78,0,0,1-.62-2.33,4.68,4.68,0,0,1,.83-2.64,5.73,5.73,0,0,1,2-1.81,6.48,6.48,0,0,1,3.17-.82A8.74,8.74,0,0,1,350.73,50a1.64,1.64,0,0,1-2.09,2.53,5.94,5.94,0,0,0-3.06-.72,3.28,3.28,0,0,0-1.58.4.21.21,0,0,1-.28-.08.21.21,0,0,1,.08-.28,3.65,3.65,0,0,1,1.78-.45,6.21,6.21,0,0,1,3.3.8,1.23,1.23,0,0,0,1.59-1.89A8.36,8.36,0,0,0,345.58,49a6.14,6.14,0,0,0-3,.77,5.3,5.3,0,0,0-1.86,1.68,4.23,4.23,0,0,0-.19,4.54c1.12,2,3.18,2.87,5.17,3.69l.31.12c1.56.63,3.51,1.42,3.71,3.39a2.68,2.68,0,0,1,0,.4A.21.21,0,0,1,349.57,63.77Z"/><g class="cls-24"><path class="cls-25" d="M346.13,69.91a14.78,14.78,0,0,1-3.62-.43,6.53,6.53,0,0,1-2.83-1.4,1.66,1.66,0,0,1-.09-2.32c.86-.92,1.74-.44,2.59,0a6,6,0,0,0,1.16.52,11.32,11.32,0,0,0,2.79.32h.3a3.53,3.53,0,0,0,2.05-1,.21.21,0,0,1,.28.3A3.87,3.87,0,0,1,346.48,67a2.06,2.06,0,0,1-.35,0,11.31,11.31,0,0,1-2.9-.34,5.1,5.1,0,0,1-1.24-.55c-.91-.49-1.49-.75-2.09-.1a1.2,1.2,0,0,0-.33.88,1.23,1.23,0,0,0,.39.86,6.13,6.13,0,0,0,2.66,1.3,14.37,14.37,0,0,0,3.51.42q.3,0,.6,0a6.49,6.49,0,0,0,3.75-1.75,5.69,5.69,0,0,0,1.76-4.16,4.73,4.73,0,0,0,0-.65c-.32-3.17-2.5-4.3-5.54-5.54l-.22-.09c-1.27-.52-3-1.23-3.73-2.51a2,2,0,0,1-.26-.94.21.21,0,0,1,.42,0,1.5,1.5,0,0,0,.2.74c.65,1.16,2.31,1.84,3.53,2.33l.21.09c2.55,1,5.43,2.22,5.8,5.88a5.64,5.64,0,0,1,0,.69A6.14,6.14,0,0,1,350.76,68a6.78,6.78,0,0,1-4,1.86A4.58,4.58,0,0,1,346.13,69.91Zm3.44-6.14a.21.21,0,0,1-.21-.21,2,2,0,0,0,0-.35c-.17-1.73-1.92-2.44-3.46-3.06l-.31-.12c-2-.8-4.17-1.71-5.37-3.87a4.78,4.78,0,0,1-.62-2.33,4.68,4.68,0,0,1,.83-2.64,5.73,5.73,0,0,1,2-1.81,6.48,6.48,0,0,1,3.17-.82A8.74,8.74,0,0,1,350.73,50a1.64,1.64,0,0,1-2.09,2.53,5.94,5.94,0,0,0-3.06-.72,3.28,3.28,0,0,0-1.58.4.21.21,0,0,1-.28-.08.21.21,0,0,1,.08-.28,3.65,3.65,0,0,1,1.78-.45,6.21,6.21,0,0,1,3.3.8,1.23,1.23,0,0,0,1.59-1.89A8.36,8.36,0,0,0,345.58,49a6.14,6.14,0,0,0-3,.77,5.3,5.3,0,0,0-1.86,1.68,4.23,4.23,0,0,0-.19,4.54c1.12,2,3.18,2.87,5.17,3.69l.31.12c1.56.63,3.51,1.42,3.71,3.39a2.68,2.68,0,0,1,0,.4A.21.21,0,0,1,349.57,63.77Z"/></g><path class="cls-26" d="M346.13,69.91a14.78,14.78,0,0,1-3.62-.43,6.53,6.53,0,0,1-2.83-1.4,1.66,1.66,0,0,1-.09-2.32c.86-.92,1.74-.44,2.59,0a6,6,0,0,0,1.16.52,11.32,11.32,0,0,0,2.79.32h.3a3.53,3.53,0,0,0,2.05-1,.21.21,0,0,1,.28.3A3.87,3.87,0,0,1,346.48,67a2.06,2.06,0,0,1-.35,0,11.31,11.31,0,0,1-2.9-.34,5.1,5.1,0,0,1-1.24-.55c-.91-.49-1.49-.75-2.09-.1a1.2,1.2,0,0,0-.33.88,1.23,1.23,0,0,0,.39.86,6.13,6.13,0,0,0,2.66,1.3,14.37,14.37,0,0,0,3.51.42q.3,0,.6,0a6.49,6.49,0,0,0,3.75-1.75,5.69,5.69,0,0,0,1.76-4.16,4.73,4.73,0,0,0,0-.65c-.32-3.17-2.5-4.3-5.54-5.54l-.22-.09c-1.27-.52-3-1.23-3.73-2.51a2,2,0,0,1-.26-.94.21.21,0,0,1,.42,0,1.5,1.5,0,0,0,.2.74c.65,1.16,2.31,1.84,3.53,2.33l.21.09c2.55,1,5.43,2.22,5.8,5.88a5.64,5.64,0,0,1,0,.69A6.14,6.14,0,0,1,350.76,68a6.78,6.78,0,0,1-4,1.86A4.58,4.58,0,0,1,346.13,69.91Zm3.44-6.14a.21.21,0,0,1-.21-.21,2,2,0,0,0,0-.35c-.17-1.73-1.92-2.44-3.46-3.06l-.31-.12c-2-.8-4.17-1.71-5.37-3.87a4.78,4.78,0,0,1-.62-2.33,4.68,4.68,0,0,1,.83-2.64,5.73,5.73,0,0,1,2-1.81,6.48,6.48,0,0,1,3.17-.82A8.74,8.74,0,0,1,350.73,50a1.64,1.64,0,0,1-2.09,2.53,5.94,5.94,0,0,0-3.06-.72,3.28,3.28,0,0,0-1.58.4.21.21,0,0,1-.28-.08.21.21,0,0,1,.08-.28,3.65,3.65,0,0,1,1.78-.45,6.21,6.21,0,0,1,3.3.8,1.23,1.23,0,0,0,1.59-1.89A8.36,8.36,0,0,0,345.58,49a6.14,6.14,0,0,0-3,.77,5.3,5.3,0,0,0-1.86,1.68,4.23,4.23,0,0,0-.19,4.54c1.12,2,3.18,2.87,5.17,3.69l.31.12c1.56.63,3.51,1.42,3.71,3.39a2.68,2.68,0,0,1,0,.4A.21.21,0,0,1,349.57,63.77Z"/><path class="cls-27" d="M346.13,69.91a14.78,14.78,0,0,1-3.62-.43,6.53,6.53,0,0,1-2.83-1.4,1.66,1.66,0,0,1-.09-2.32c.86-.92,1.74-.44,2.59,0a6,6,0,0,0,1.16.52,11.32,11.32,0,0,0,2.79.32h.3a3.53,3.53,0,0,0,2.05-1,.21.21,0,0,1,.28.3A3.87,3.87,0,0,1,346.48,67a2.06,2.06,0,0,1-.35,0,11.31,11.31,0,0,1-2.9-.34,5.1,5.1,0,0,1-1.24-.55c-.91-.49-1.49-.75-2.09-.1a1.2,1.2,0,0,0-.33.88,1.23,1.23,0,0,0,.39.86,6.13,6.13,0,0,0,2.66,1.3,14.37,14.37,0,0,0,3.51.42q.3,0,.6,0a6.49,6.49,0,0,0,3.75-1.75,5.69,5.69,0,0,0,1.76-4.16,4.73,4.73,0,0,0,0-.65c-.32-3.17-2.5-4.3-5.54-5.54l-.22-.09c-1.27-.52-3-1.23-3.73-2.51a2,2,0,0,1-.26-.94.21.21,0,0,1,.42,0,1.5,1.5,0,0,0,.2.74c.65,1.16,2.31,1.84,3.53,2.33l.21.09c2.55,1,5.43,2.22,5.8,5.88a5.64,5.64,0,0,1,0,.69A6.14,6.14,0,0,1,350.76,68a6.78,6.78,0,0,1-4,1.86A4.58,4.58,0,0,1,346.13,69.91Zm3.44-6.14a.21.21,0,0,1-.21-.21,2,2,0,0,0,0-.35c-.17-1.73-1.92-2.44-3.46-3.06l-.31-.12c-2-.8-4.17-1.71-5.37-3.87a4.78,4.78,0,0,1-.62-2.33,4.68,4.68,0,0,1,.83-2.64,5.73,5.73,0,0,1,2-1.81,6.48,6.48,0,0,1,3.17-.82A8.74,8.74,0,0,1,350.73,50a1.64,1.64,0,0,1-2.09,2.53,5.94,5.94,0,0,0-3.06-.72,3.28,3.28,0,0,0-1.58.4.21.21,0,0,1-.28-.08.21.21,0,0,1,.08-.28,3.65,3.65,0,0,1,1.78-.45,6.21,6.21,0,0,1,3.3.8,1.23,1.23,0,0,0,1.59-1.89A8.36,8.36,0,0,0,345.58,49a6.14,6.14,0,0,0-3,.77,5.3,5.3,0,0,0-1.86,1.68,4.23,4.23,0,0,0-.19,4.54c1.12,2,3.18,2.87,5.17,3.69l.31.12c1.56.63,3.51,1.42,3.71,3.39a2.68,2.68,0,0,1,0,.4A.21.21,0,0,1,349.57,63.77Z"/><path class="cls-28" d="M346.13,69.91a14.78,14.78,0,0,1-3.62-.43,6.53,6.53,0,0,1-2.83-1.4,1.66,1.66,0,0,1-.09-2.32c.86-.92,1.74-.44,2.59,0a6,6,0,0,0,1.16.52,11.32,11.32,0,0,0,2.79.32h.3a3.53,3.53,0,0,0,2.05-1,.21.21,0,0,1,.28.3A3.87,3.87,0,0,1,346.48,67a2.06,2.06,0,0,1-.35,0,11.31,11.31,0,0,1-2.9-.34,5.1,5.1,0,0,1-1.24-.55c-.91-.49-1.49-.75-2.09-.1a1.2,1.2,0,0,0-.33.88,1.23,1.23,0,0,0,.39.86,6.13,6.13,0,0,0,2.66,1.3,14.37,14.37,0,0,0,3.51.42q.3,0,.6,0a6.49,6.49,0,0,0,3.75-1.75,5.69,5.69,0,0,0,1.76-4.16,4.73,4.73,0,0,0,0-.65c-.32-3.17-2.5-4.3-5.54-5.54l-.22-.09c-1.27-.52-3-1.23-3.73-2.51a2,2,0,0,1-.26-.94.21.21,0,0,1,.42,0,1.5,1.5,0,0,0,.2.74c.65,1.16,2.31,1.84,3.53,2.33l.21.09c2.55,1,5.43,2.22,5.8,5.88a5.64,5.64,0,0,1,0,.69A6.14,6.14,0,0,1,350.76,68a6.78,6.78,0,0,1-4,1.86A4.58,4.58,0,0,1,346.13,69.91Zm3.44-6.14a.21.21,0,0,1-.21-.21,2,2,0,0,0,0-.35c-.17-1.73-1.92-2.44-3.46-3.06l-.31-.12c-2-.8-4.17-1.71-5.37-3.87a4.78,4.78,0,0,1-.62-2.33,4.68,4.68,0,0,1,.83-2.64,5.73,5.73,0,0,1,2-1.81,6.48,6.48,0,0,1,3.17-.82A8.74,8.74,0,0,1,350.73,50a1.64,1.64,0,0,1-2.09,2.53,5.94,5.94,0,0,0-3.06-.72,3.28,3.28,0,0,0-1.58.4.21.21,0,0,1-.28-.08.21.21,0,0,1,.08-.28,3.65,3.65,0,0,1,1.78-.45,6.21,6.21,0,0,1,3.3.8,1.23,1.23,0,0,0,1.59-1.89A8.36,8.36,0,0,0,345.58,49a6.14,6.14,0,0,0-3,.77,5.3,5.3,0,0,0-1.86,1.68,4.23,4.23,0,0,0-.19,4.54c1.12,2,3.18,2.87,5.17,3.69l.31.12c1.56.63,3.51,1.42,3.71,3.39a2.68,2.68,0,0,1,0,.4A.21.21,0,0,1,349.57,63.77Z"/><path class="cls-2" d="M346.13,69.91a14.78,14.78,0,0,1-3.62-.43,6.53,6.53,0,0,1-2.83-1.4,1.66,1.66,0,0,1-.09-2.32c.86-.92,1.74-.44,2.59,0a6,6,0,0,0,1.16.52,11.32,11.32,0,0,0,2.79.32h.3a3.53,3.53,0,0,0,2.05-1,.21.21,0,0,1,.28.3A3.87,3.87,0,0,1,346.48,67a2.06,2.06,0,0,1-.35,0,11.31,11.31,0,0,1-2.9-.34,5.1,5.1,0,0,1-1.24-.55c-.91-.49-1.49-.75-2.09-.1a1.2,1.2,0,0,0-.33.88,1.23,1.23,0,0,0,.39.86,6.13,6.13,0,0,0,2.66,1.3,14.37,14.37,0,0,0,3.51.42q.3,0,.6,0a6.49,6.49,0,0,0,3.75-1.75,5.69,5.69,0,0,0,1.76-4.16,4.73,4.73,0,0,0,0-.65c-.32-3.17-2.5-4.3-5.54-5.54l-.22-.09c-1.27-.52-3-1.23-3.73-2.51a2,2,0,0,1-.26-.94.21.21,0,0,1,.42,0,1.5,1.5,0,0,0,.2.74c.65,1.16,2.31,1.84,3.53,2.33l.21.09c2.55,1,5.43,2.22,5.8,5.88a5.64,5.64,0,0,1,0,.69A6.14,6.14,0,0,1,350.76,68a6.78,6.78,0,0,1-4,1.86A4.58,4.58,0,0,1,346.13,69.91Zm3.44-6.14a.21.21,0,0,1-.21-.21,2,2,0,0,0,0-.35c-.17-1.73-1.92-2.44-3.46-3.06l-.31-.12c-2-.8-4.17-1.71-5.37-3.87a4.78,4.78,0,0,1-.62-2.33,4.68,4.68,0,0,1,.83-2.64,5.73,5.73,0,0,1,2-1.81,6.48,6.48,0,0,1,3.17-.82A8.74,8.74,0,0,1,350.73,50a1.64,1.64,0,0,1-2.09,2.53,5.94,5.94,0,0,0-3.06-.72,3.28,3.28,0,0,0-1.58.4.21.21,0,0,1-.28-.08.21.21,0,0,1,.08-.28,3.65,3.65,0,0,1,1.78-.45,6.21,6.21,0,0,1,3.3.8,1.23,1.23,0,0,0,1.59-1.89A8.36,8.36,0,0,0,345.58,49a6.14,6.14,0,0,0-3,.77,5.3,5.3,0,0,0-1.86,1.68,4.23,4.23,0,0,0-.19,4.54c1.12,2,3.18,2.87,5.17,3.69l.31.12c1.56.63,3.51,1.42,3.71,3.39a2.68,2.68,0,0,1,0,.4A.21.21,0,0,1,349.57,63.77Z"/><rect class="cls-6" x="67.48" y="76.57" width="129.95" height="199.62"/><polygon class="cls-4" points="197.43 76.57 229.4 109.14 229.4 276.19 197.43 276.19 197.43 76.57"/><polygon class="cls-29" points="197.43 76.57 229.4 109.14 229.4 276.19 197.43 276.19 197.43 76.57"/><path class="cls-4" d="M144.19,274.58h19V87.2h-19Zm23.65,0H179V87.2H167.84Zm-70.14,0h19V87.2h-19Zm23.66,0h11.1V87.2h-11.1Zm-39.08,0H93.39V87.2H82.28Z"/><path class="cls-7" d="M170.77,104.92H179V93.14h-8.18ZM147.53,93.14h15.69v11.78H147.53Zm-23.24,0h8.17v11.78h-8.17Zm-39.08,0h8.18v11.78H85.21Zm15.84,0h15.69v11.78H101.05Zm69.72,22H179v11.78h-8.18Zm-23.24,0h15.69v11.78H147.53Zm-23.24,0h8.17v11.78h-8.17Zm-39.08,0h8.18v11.78H85.21Zm15.84,0h15.69v11.78H101.05Zm69.72,22H179v11.78h-8.18Zm-23.24,0h15.69v11.78H147.53Zm-23.24,0h8.17v11.78h-8.17Zm-39.08,0h8.18v11.78H85.21Zm15.84,0h15.69v11.78H101.05Zm69.72,22H179v11.78h-8.18Zm-23.24,0h15.69v11.78H147.53Zm-23.24,0h8.17v11.78h-8.17Zm-39.08,0h8.18v11.78H85.21Zm15.84,0h15.69v11.78H101.05Zm69.72,22H179v11.78h-8.18Zm-23.24,0h15.69v11.78H147.53Zm-23.24,0h8.17v11.78h-8.17Zm-39.08,0h8.18v11.78H85.21Zm15.84,0h15.69v11.78H101.05Zm69.72,22H179v11.78h-8.18Zm-23.24,0h15.69v11.78H147.53Zm-23.24,0h8.17v11.78h-8.17Zm-39.08,0h8.18v11.78H85.21Zm15.84,0h15.69v11.78H101.05Zm69.72,22H179V236.7h-8.18Zm-23.24,0h15.69V236.7H147.53Zm-23.24,0h8.17V236.7h-8.17Zm-39.08,0h8.18V236.7H85.21Zm15.84,0h15.69V236.7H101.05Zm69.72,22H179v11.79h-8.18Zm-23.24,0h15.69v11.79H147.53Zm-23.24,0h8.17v11.79h-8.17Zm-39.08,0h8.18v11.79H85.21Zm15.84,0h15.69v11.79H101.05Z"/><rect class="cls-6" x="194.47" y="114.45" width="86.44" height="155.47"/><path class="cls-7" d="M265.08,251.24v18.68H253.92V251.24Zm-14.32,0H239.6v18.68h11.16V251.24Zm-14.33,0H225.27v18.68h11.16V251.24Zm-14.32,0H211v18.68h11.16V251.24Zm43-20.26H253.92v11.5h11.16V231Zm-14.32,0H239.6v11.5h11.16V231Zm-14.33,0H225.27v11.5h11.16V231Zm-14.32,0H211v11.5h11.16V231Zm43-20.26H253.92v11.5h11.16v-11.5Zm-14.32,0H239.6v11.5h11.16v-11.5Zm-14.33,0H225.27v11.5h11.16v-11.5Zm-14.32,0H211v11.5h11.16v-11.5Zm43-20.27H253.92V202h11.16v-11.5Zm-14.32,0H239.6V202h11.16v-11.5Zm-14.33,0H225.27V202h11.16v-11.5Zm-14.32,0H211V202h11.16v-11.5Zm43-20.26H253.92v11.5h11.16v-11.5Zm-14.32,0H239.6v11.5h11.16v-11.5Zm-14.33,0H225.27v11.5h11.16v-11.5Zm-14.32,0H211v11.5h11.16v-11.5Zm43-20.26H253.92v11.5h11.16v-11.5Zm-14.32,0H239.6v11.5h11.16v-11.5Zm-14.33,0H225.27v11.5h11.16v-11.5Zm-14.32,0H211v11.5h11.16v-11.5Zm43-20.26H253.92v11.5h11.16v-11.5Zm-14.32,0H239.6v11.5h11.16v-11.5Zm-14.33,0H225.27v11.5h11.16v-11.5Zm-14.32,0H211v11.5h11.16v-11.5Z"/><path class="cls-30" d="M255.63,242.48h9.45v-9.34h-9.45Zm-14.32-9.34h9.45v9.34h-9.45Zm-14.32,0h9.44v9.34H227Zm-14.33,0h9.45v9.34h-9.45Zm43-20.26h9.45v9.34h-9.45Zm-14.32,0h9.45v9.34h-9.45Zm-14.32,0h9.44v9.34H227Zm-14.33,0h9.45v9.34h-9.45Zm43-20.26h9.45V202h-9.45Zm-14.32,0h9.45V202h-9.45Zm-14.32,0h9.44V202H227Zm-14.33,0h9.45V202h-9.45Zm43-20.27h9.45v9.34h-9.45Zm-14.32,0h9.45v9.34h-9.45Zm-14.32,0h9.44v9.34H227Zm-14.33,0h9.45v9.34h-9.45Zm43-20.26h9.45v9.34h-9.45Zm-14.32,0h9.45v9.34h-9.45Zm-14.32,0h9.44v9.34H227Zm-14.33,0h9.45v9.34h-9.45Zm43-20.26h9.45v9.34h-9.45Zm-14.32,0h9.45v9.34h-9.45Zm-14.32,0h9.44v9.34H227Zm-14.33,0h9.45v9.34h-9.45Zm43,138.09h9.45V253.4h-9.45ZM241.31,253.4h9.45v16.52h-9.45Zm-14.32,0h9.44v16.52H227Zm-14.33,0h9.45v16.52h-9.45Z"/><path class="cls-31" d="M255.63,242.48h9.45v-9.34h-9.45Zm-14.32-9.34h9.45v9.34h-9.45Zm-14.32,0h9.44v9.34H227Zm-14.33,0h9.45v9.34h-9.45Zm43-20.26h9.45v9.34h-9.45Zm-14.32,0h9.45v9.34h-9.45Zm-14.32,0h9.44v9.34H227Zm-14.33,0h9.45v9.34h-9.45Zm43-20.26h9.45V202h-9.45Zm-14.32,0h9.45V202h-9.45Zm-14.32,0h9.44V202H227Zm-14.33,0h9.45V202h-9.45Zm43-20.27h9.45v9.34h-9.45Zm-14.32,0h9.45v9.34h-9.45Zm-14.32,0h9.44v9.34H227Zm-14.33,0h9.45v9.34h-9.45Zm43-20.26h9.45v9.34h-9.45Zm-14.32,0h9.45v9.34h-9.45Zm-14.32,0h9.44v9.34H227Zm-14.33,0h9.45v9.34h-9.45Zm43-20.26h9.45v9.34h-9.45Zm-14.32,0h9.45v9.34h-9.45Zm-14.32,0h9.44v9.34H227Zm-14.33,0h9.45v9.34h-9.45Zm43,138.09h9.45V253.4h-9.45ZM241.31,253.4h9.45v16.52h-9.45Zm-14.32,0h9.44v16.52H227Zm-14.33,0h9.45v16.52h-9.45Z"/></g></g><g id="Layer_15" data-name="Layer 15"><ellipse class="cls-32" cx="158.61" cy="332.26" rx="117.48" ry="6.34"/><path class="cls-33" d="M259.38,60.83a3.71,3.71,0,0,0-1-2.13,3.69,3.69,0,0,0-1.14-.86,3.82,3.82,0,0,0-3.32-.05l-19,8.57A30.86,30.86,0,0,0,220.13,81L119.27,290.6l-18.93-9.11h0L24.77,245.14a4.9,4.9,0,0,0-3.71-.23,5.06,5.06,0,0,0-1.51.83l-.2.17a4.85,4.85,0,0,0-1.08,1.4l-.07.13a.61.61,0,0,0-.05.12,4.82,4.82,0,0,0-.42,1.72c0,.09,0,.17,0,.26a5.09,5.09,0,0,0,.29,1.69A4.92,4.92,0,0,0,20.5,254l75.57,36.35-.55,1.16,32.93,15.84.55-1.15,38.71,18.62L172,316l-38.71-18.62h0l-7.06-3.39,79.86-166,.35.16h0a54.72,54.72,0,0,0-4.25,14.77L185.85,260.12l-6.71,48.26,7.62,1.05,6.55-47.13L209.78,144a46.83,46.83,0,0,1,3.56-12.51l.42.2,17.6-36.59-7.69-3.7,3.39-7.06a23.1,23.1,0,0,1,11.14-11l19-8.57a3.88,3.88,0,0,0,2.12-2.54A3.72,3.72,0,0,0,259.38,60.83Z"/><path class="cls-34" d="M235.58,67.66l21.69-9.82a3.69,3.69,0,0,1,1.14.86,3.71,3.71,0,0,1,1,2.13,3.72,3.72,0,0,1-.09,1.41L237.6,72.06a24.49,24.49,0,0,0-11.82,11.62L124.93,293.28l-4.36-2.09L221.42,81.58A29.37,29.37,0,0,1,235.58,67.66ZM18.2,247.44a.61.61,0,0,0-.05.12,4.82,4.82,0,0,0-.42,1.72c0,.09,0,.17,0,.26a5.09,5.09,0,0,0,.29,1.69l150.31,72.31,3-6.32L21.06,244.91a5.06,5.06,0,0,0-1.51.83l-.2.17a4.85,4.85,0,0,0-1.08,1.4Zm167.34,60.38,22.83-164.06a48.28,48.28,0,0,1,4.33-14.33l17-35.23-4.36-2.1-9.91,20.59c-7.31,15.19-7.38,15.34-7.6,15.86l-.07.14a53.74,53.74,0,0,0-4.13,14.4L180.75,307.16Z"/><path class="cls-35" d="M18.2,247.44a.61.61,0,0,0-.05.12,4.82,4.82,0,0,0-.42,1.72L169,322.07l1.62-3.37L19.35,245.91a4.85,4.85,0,0,0-1.08,1.4ZM236.1,68.79,258.41,58.7a3.71,3.71,0,0,1,1,2.13l-22.3,10.09a25.8,25.8,0,0,0-12.43,12.22L123.8,292.85l-2.11-1L222.54,82.12A28.18,28.18,0,0,1,236.1,68.79Zm-51.32,238,22.7-163.18A49.52,49.52,0,0,1,211.9,129l17.17-35.12-2.92-1.41-10,20.57c-7.24,15-7.38,15.32-7.6,15.83l-.06.14a52.81,52.81,0,0,0-4.07,14.16L181.75,306.4Z"/><path class="cls-36" d="M119.27,290.6l3.74-7.77,6.93,3.33-3.74,7.78ZM129,306.19l7.37,3.55,4.26-8.86-7.36-3.55ZM89.67,287.27l6.4,3.08,4.27-8.86-6.41-3.08ZM146,303.78c.15.61.32,1.21.51,1.81s.49,1.46.77,2.18a33.23,33.23,0,0,0,2.73,5.47c.58.93,1.2,1.84,1.87,2.71a33.31,33.31,0,0,0,2.25,2.66L167.5,325l4.26-8.86Zm37.47-25.54-6.71,48.26,7.61,1.06L191,280.42c-.45-.19-.9-.37-1.36-.54l-.86-.31c-1-.33-2-.62-3-.86l-.88-.2C184.43,278.41,184,278.32,183.49,278.24Zm22.92-150.12c-.17.37-.33.74-.49,1.12l6.94,3.34.48-1.13Z"/><circle class="cls-33" cx="180.51" cy="313.45" r="20.45" transform="translate(-91.49 75.01) rotate(-18.83)"/><path class="cls-37" d="M169,307.9a12.82,12.82,0,1,0,17.11-6A12.82,12.82,0,0,0,169,307.9Z"/><path class="cls-2" d="M171.84,309.28a9.62,9.62,0,1,0,12.84-4.49A9.62,9.62,0,0,0,171.84,309.28Z"/><rect class="cls-38" x="48.3" y="177.71" width="86.53" height="103.12" transform="translate(-154.73 212.38) rotate(-64.31)"/><polygon class="cls-39" points="64.06 168.28 118.99 290.47 156.41 212.7 64.06 168.28"/><rect class="cls-23" x="97.07" y="190.09" width="18.56" height="17.87" transform="translate(-119.1 208.57) rotate(-64.31)"/><polygon class="cls-38" points="106.5 188.47 156.79 212.62 179.99 164.56 129.7 140.41 106.5 188.47"/><polygon class="cls-39" points="129.82 140.56 156.64 212.55 179.81 164.56 129.82 140.56"/><polygon class="cls-23" points="146.84 158.21 155.56 162.4 159.26 154.73 150.54 150.54 146.84 158.21"/><rect class="cls-38" x="150.8" y="118.48" width="34.92" height="42.45" transform="translate(-30.58 230.76) rotate(-64.31)"/><polygon class="cls-39" points="156.79 114.91 179.7 164.59 194.8 133.2 156.79 114.91"/><path class="cls-23" d="M172.54,122.53l6.63,3.19L176,132.41l-6.63-3.19Z"/><rect class="cls-38" x="165.95" y="87" width="34.92" height="42.45" transform="translate(6.37 226.59) rotate(-64.31)"/><polygon class="cls-39" points="171.94 83.44 194.85 133.11 209.95 101.73 171.94 83.44"/><rect class="cls-23" x="185.31" y="92.55" width="7.94" height="7.36" transform="translate(20.5 225.08) rotate(-64.31)"/><rect class="cls-38" x="133.53" y="77.73" width="28.02" height="34.07" transform="translate(-1.82 186.63) rotate(-64.31)"/><polygon class="cls-39" points="138.33 74.87 156.72 114.73 168.84 89.55 138.33 74.87"/><rect class="cls-23" x="150.05" y="81.57" width="5" height="5.9" transform="translate(10.25 185.34) rotate(-64.31)"/><rect class="cls-38" x="108.01" y="92.7" width="34.92" height="52.76" transform="translate(-36.23 180.52) rotate(-64.31)"/><polygon class="cls-39" points="109.36 92.06 141.56 146.2 156.66 114.81 109.36 92.06"/><polygon class="cls-23" points="124.06 107.55 135.53 113.08 138.8 106.27 127.33 100.74 124.06 107.55"/><polygon class="cls-38" points="56.2 164.3 106.49 188.46 129.69 140.39 79.4 116.24 56.2 164.3"/><polygon class="cls-39" points="79.52 116.39 106.34 188.38 129.5 140.39 79.52 116.39"/><polygon class="cls-23" points="96.54 134.04 105.25 138.23 108.95 130.56 100.24 126.37 96.54 134.04"/><path class="cls-2" d="M114.12,228.15l-.2-.09a18,18,0,0,0-10.13-15.6,17.67,17.67,0,0,0-11.46-1.29,13.13,13.13,0,0,0-4.76-3.94,13.55,13.55,0,0,0-18,6.52,14,14,0,0,0-.84,2.34,11.75,11.75,0,0,0-8.87,21.69l37.65,18c.46.22.92.41,1.39.58s.89.51,1.36.74a16.06,16.06,0,0,0,13.87-29Z"/><path class="cls-40" d="M121.32,235.22a16.23,16.23,0,0,1-1.57,8.06,15.92,15.92,0,0,1-21.17,7.66,15.34,15.34,0,0,1-5.09-3.9A18.43,18.43,0,0,0,112.21,221a18.53,18.53,0,0,1-1.83,7.94,18.14,18.14,0,0,1-24.1,8.73A17.72,17.72,0,0,1,78,229.39a7.34,7.34,0,0,0,4.82-9.77,7.16,7.16,0,0,1-.67,3.74c-1.68,3.52-5.84,5.33-10.85,2.93A7.21,7.21,0,0,1,69.45,225,7.05,7.05,0,0,0,73,228.94a11.63,11.63,0,0,1-14.9,4.49,11.23,11.23,0,0,1-4.55-4,11.47,11.47,0,0,0,6.32,8.3l40.4,19.34a15.92,15.92,0,0,0,21.17-7.67A16.12,16.12,0,0,0,121.32,235.22Z"/><path class="cls-2" d="M105.52,152.21l-.11,0a9.71,9.71,0,0,0-5.48-8.44,9.47,9.47,0,0,0-6.19-.69,7,7,0,0,0-2.58-2.13,7.32,7.32,0,0,0-9.73,3.52A7.75,7.75,0,0,0,81,145.7a6.35,6.35,0,0,0-4.79,11.72l20.35,9.74a8,8,0,0,0,.75.32c.24.14.48.27.74.4a8.69,8.69,0,0,0,7.5-15.67Z"/><path class="cls-40" d="M109.41,156a8.72,8.72,0,0,1-.85,4.35,8.61,8.61,0,0,1-11.45,4.15,8.49,8.49,0,0,1-2.75-2.11,9.87,9.87,0,0,0,10.07-5.59,10,10,0,0,0,0-8.52,9.93,9.93,0,0,1-14,9A9.58,9.58,0,0,1,86,152.89a4,4,0,0,0,2.5-2.1,4,4,0,0,0,.1-3.19,3.84,3.84,0,0,1-.36,2c-.91,1.9-3.16,2.88-5.86,1.58a3.59,3.59,0,0,1-1-.7,3.83,3.83,0,0,0,1.9,2.14,6.29,6.29,0,0,1-8,2.42,6.09,6.09,0,0,1-2.46-2.13,6.2,6.2,0,0,0,3.42,4.48L98,167.88a8.6,8.6,0,0,0,11.44-4.15A8.72,8.72,0,0,0,109.41,156Z"/><path class="cls-2" d="M134.57,119.65l-.08,0a7.49,7.49,0,0,0-4.22-6.51,7.31,7.31,0,0,0-4.78-.53,5.45,5.45,0,0,0-2-1.65,5.66,5.66,0,0,0-7.51,2.72,6,6,0,0,0-.35,1,4.9,4.9,0,0,0-3.7,9l15.7,7.51a4.83,4.83,0,0,0,.58.25,5.12,5.12,0,0,0,.57.3,6.7,6.7,0,0,0,5.78-12.08Z"/><path class="cls-40" d="M137.57,122.6a6.76,6.76,0,0,1-.65,3.36,6.64,6.64,0,0,1-8.83,3.2,6.37,6.37,0,0,1-2.12-1.63,7.68,7.68,0,0,0,7.8-10.87A7.65,7.65,0,0,1,123,123.6a7.31,7.31,0,0,1-3.45-3.43,3,3,0,0,0,2-4.07,3,3,0,0,1-.28,1.56c-.7,1.47-2.43,2.22-4.52,1.22a2.81,2.81,0,0,1-.77-.54,2.93,2.93,0,0,0,1.47,1.65,4.86,4.86,0,0,1-6.21,1.87,4.7,4.7,0,0,1-1.9-1.65,4.75,4.75,0,0,0,2.63,3.46l16.85,8.06a6.64,6.64,0,0,0,8.83-3.19A6.73,6.73,0,0,0,137.57,122.6Z"/><path class="cls-2" d="M176,140.39l-.07,0a6.17,6.17,0,0,0-3.49-5.38,6.07,6.07,0,0,0-4-.45,4.46,4.46,0,0,0-1.64-1.36,4.68,4.68,0,0,0-6.22,2.25,6.56,6.56,0,0,0-.29.81,4.05,4.05,0,0,0-3.06,7.48l13,6.23c.15.07.31.14.48.2a5.19,5.19,0,0,0,.47.25,5.54,5.54,0,0,0,4.78-10Z"/><path class="cls-40" d="M178.51,142.83a5.58,5.58,0,0,1-.54,2.78,5.5,5.5,0,0,1-7.31,2.65,5.27,5.27,0,0,1-1.76-1.35,6.35,6.35,0,0,0,6.46-9,6.33,6.33,0,0,1-9,5.75,6.13,6.13,0,0,1-2.85-2.84,2.53,2.53,0,0,0,1.66-3.37,2.47,2.47,0,0,1-.23,1.29c-.58,1.21-2,1.84-3.74,1a2.3,2.3,0,0,1-.64-.45,2.46,2.46,0,0,0,1.21,1.37,4,4,0,0,1-5.14,1.55,4,4,0,0,1-1.57-1.37,4,4,0,0,0,2.18,2.86l14,6.68a5.49,5.49,0,0,0,7.3-2.65A5.57,5.57,0,0,0,178.51,142.83Z"/><path class="cls-2" d="M191.61,107.83l-.07,0a6.11,6.11,0,0,0-7.45-5.83,4.54,4.54,0,0,0-1.64-1.36,4.68,4.68,0,0,0-6.22,2.25,4.9,4.9,0,0,0-.29.81,4.05,4.05,0,0,0-3.06,7.48l13,6.22a3.26,3.26,0,0,0,.48.2,4.31,4.31,0,0,0,.47.26,5.54,5.54,0,0,0,4.79-10Z"/><path class="cls-40" d="M194.09,110.27a5.56,5.56,0,0,1-7.84,5.43,5.4,5.4,0,0,1-1.76-1.35,6.36,6.36,0,0,0,6.46-9,6.37,6.37,0,0,1-.63,2.73,6.25,6.25,0,0,1-8.32,3,6.15,6.15,0,0,1-2.86-2.84,2.53,2.53,0,0,0,1.67-3.38,2.4,2.4,0,0,1-.24,1.3c-.58,1.21-2,1.83-3.74,1a2.64,2.64,0,0,1-.64-.45,2.42,2.42,0,0,0,1.22,1.36,4,4,0,0,1-5.14,1.55,3.86,3.86,0,0,1-1.57-1.36,3.92,3.92,0,0,0,2.18,2.86l13.94,6.68a5.56,5.56,0,0,0,7.27-7.56Z"/><path class="cls-2" d="M153.88,94.3l0,0a4.77,4.77,0,0,0-2.68-4.13,4.64,4.64,0,0,0-3-.34,3.53,3.53,0,0,0-6,.68,5.11,5.11,0,0,0-.22.62,3.11,3.11,0,0,0-2.35,5.74l10,4.77.37.15a3.13,3.13,0,0,0,.36.19,4.25,4.25,0,0,0,3.67-7.66Z"/><path class="cls-40" d="M155.78,96.17a4.26,4.26,0,0,1-6,4.16,4.08,4.08,0,0,1-1.35-1,4.87,4.87,0,0,0,5-6.9,5,5,0,0,1-.48,2.1,4.74,4.74,0,0,1-8.57.13,1.93,1.93,0,0,0,1.23-1,2,2,0,0,0,0-1.55,1.94,1.94,0,0,1-.18,1,2,2,0,0,1-2.87.77,2.14,2.14,0,0,1-.49-.34,1.87,1.87,0,0,0,.94,1,3.08,3.08,0,0,1-3.94,1.19,3,3,0,0,1-1.21-1,3.06,3.06,0,0,0,1.67,2.2L150.21,102a4.21,4.21,0,0,0,5.6-2A4.26,4.26,0,0,0,155.78,96.17Z"/><path class="cls-2" d="M155.53,176.15l-.11,0a9.71,9.71,0,0,0-5.48-8.44,9.47,9.47,0,0,0-6.19-.69,7,7,0,0,0-2.58-2.13,7.32,7.32,0,0,0-9.73,3.52,7.75,7.75,0,0,0-.46,1.27,6.35,6.35,0,0,0-4.79,11.72l20.35,9.74a8,8,0,0,0,.75.32c.24.14.48.27.74.4a8.69,8.69,0,0,0,7.5-15.67Z"/><path class="cls-40" d="M159.42,180a8.72,8.72,0,0,1-.85,4.35,8.6,8.6,0,0,1-11.44,4.15,8.42,8.42,0,0,1-2.76-2.11,10,10,0,0,0,10.12-14.1,9.94,9.94,0,0,1-1,4.28,9.8,9.8,0,0,1-13,4.72,9.53,9.53,0,0,1-4.47-4.44,4,4,0,0,0,2.5-2.1,4,4,0,0,0,.1-3.19,3.74,3.74,0,0,1-.36,2c-.91,1.9-3.16,2.88-5.86,1.58a3.74,3.74,0,0,1-1-.7,3.85,3.85,0,0,0,1.91,2.14,6.31,6.31,0,0,1-8.06,2.42,6.09,6.09,0,0,1-2.46-2.13,6.2,6.2,0,0,0,3.42,4.48L148,191.82a8.62,8.62,0,0,0,11.45-4.15A8.75,8.75,0,0,0,159.42,180Z"/><rect class="cls-12" x="338.36" y="166.23" width="12.42" height="83.66" transform="translate(689.14 416.13) rotate(180)"/><rect class="cls-41" x="338.36" y="166.23" width="12.42" height="83.66" transform="translate(689.14 416.13) rotate(180)"/><path class="cls-32" d="M495.46,283.47c0,1.9-58.91,3.43-117.62,3.43s-106.3-1.53-106.3-3.43,47.59-3.42,106.3-3.42S495.46,281.58,495.46,283.47Z"/><path class="cls-42" d="M295.36,227.63l14.53-23.69a2.83,2.83,0,0,1,2.42-1.35h25.92a1.43,1.43,0,0,1,1.43,1.42v58.51a1.43,1.43,0,0,1-1.43,1.43H307.88a1.41,1.41,0,0,1-1.31-.87,15.08,15.08,0,0,0-28,0,1.4,1.4,0,0,1-1.31.87h-2.79a1.43,1.43,0,0,1-1.42-1.43v-24a6.67,6.67,0,0,1,5.15-6.5l16.23-3.78A1.43,1.43,0,0,0,295.36,227.63Z"/><circle cx="429.34" cy="268.33" r="14.11" transform="translate(-76.84 279.26) rotate(-33.24)"/><circle cx="294.14" cy="268.33" r="14.11" transform="translate(-102.78 237.05) rotate(-37.87)"/><rect class="cls-43" x="276.06" y="256.08" width="187.56" height="16.75" rx="5.65" transform="translate(739.68 528.9) rotate(180)"/><path class="cls-44" d="M287.75,252.05H472.11v16.64a4.11,4.11,0,0,1-4.06,4.14H287.75a4.11,4.11,0,0,1-4.06-4.14V249.35C283.69,247.07,285.51,243,287.75,252.05Z"/><circle class="cls-45" cx="300.29" cy="270.5" r="14.11" transform="translate(-103.32 291.57) rotate(-45)"/><circle class="cls-46" cx="301.69" cy="270.5" r="14.11" transform="translate(-101.84 307.28) rotate(-47.09)"/><circle class="cls-4" cx="301.69" cy="270.5" r="7.06" transform="translate(-39.34 51.67) rotate(-9.19)"/><path class="cls-47" d="M304,271.61a.69.69,0,0,0-.68.82l.57,3.27-.47.11-1.05-4.19H302l-.31.16,1,4.2-.46.12-1-3.15a.7.7,0,0,0-1-.4l-2.93,1.55-.26-.41,3.67-2.29-.11-.34-.26-.25-3.67,2.29-.25-.41,2.68-2a.69.69,0,0,0,.07-1.06l-2.38-2.31.31-.37,3.31,2.78.29-.21.16-.32-3.31-2.78.31-.37,2.68,1.94a.7.7,0,0,0,1-.26l1.46-3,.45.18-1.62,4,.29.21.35.05,1.62-4,.45.18-1,3.16a.7.7,0,0,0,.56.91l3.29.46,0,.49-4.31-.3-.11.34.06.35,4.31.3,0,.48Zm-2.5-.69v0l0,0v0Zm.29-.19.19-.12.09-.21-.06-.22-.17-.14-.23,0-.19.12-.08.21.05.22.18.15Zm-.66-.38h0Zm.42-.53,0,0v0Zm.63.24,0,0h0v0Zm0,.7h0v0h0Z"/><path class="cls-2" d="M307.33,272.83a6.15,6.15,0,1,1-3.4-8A6.15,6.15,0,0,1,307.33,272.83Zm-.67-.27a5.42,5.42,0,1,0-7.06,3A5.42,5.42,0,0,0,306.66,272.56Z"/><path class="cls-4" d="M303.19,271a1.62,1.62,0,1,1-3-1.21,1.63,1.63,0,0,1,2.11-.89A1.61,1.61,0,0,1,303.19,271Z"/><path class="cls-48" d="M302.68,270.78a1.07,1.07,0,1,1-.59-1.39A1.06,1.06,0,0,1,302.68,270.78Z"/><path class="cls-49" d="M302.28,270.62a.64.64,0,0,1-1.18-.48.64.64,0,1,1,1.18.48Z"/><path class="cls-50" d="M304.59,227.63l14.53-23.69a2.83,2.83,0,0,1,2.42-1.35h24.3a1.43,1.43,0,0,1,1.42,1.42v58.51a1.43,1.43,0,0,1-1.42,1.43H317.11a1.41,1.41,0,0,1-1.31-.87,15.08,15.08,0,0,0-28,0,1.39,1.39,0,0,1-1.3.87h-2.8a1.43,1.43,0,0,1-1.42-1.43v-24a6.67,6.67,0,0,1,5.15-6.5l16.23-3.78A1.43,1.43,0,0,0,304.59,227.63Z"/><path class="cls-50" d="M282.32,236.14h64.94a0,0,0,0,1,0,0v3.06a6.35,6.35,0,0,1-6.35,6.35H282.32a0,0,0,0,1,0,0v-9.42A0,0,0,0,1,282.32,236.14Z" transform="translate(629.58 481.7) rotate(180)"/><path class="cls-4" d="M279.42,239.89h1a1.25,1.25,0,0,1,1.25,1.25v6a1.25,1.25,0,0,1-1.25,1.25h-1a.87.87,0,0,1-.87-.87v-6.73a.87.87,0,0,1,.87-.87Z" transform="translate(560.24 488.26) rotate(-180)"/><path class="cls-4" d="M273.56,239.89h1A1.12,1.12,0,0,1,275.7,241v6.25a1.11,1.11,0,0,1-1.11,1.11h-1a1,1,0,0,1-1-1V240.9A1,1,0,0,1,273.56,239.89Z" transform="translate(548.24 488.26) rotate(180)"/><path class="cls-51" d="M296,227.77h7a1.89,1.89,0,0,0,1.6-.89l12.44-20.25a.6.6,0,0,0-.51-.92h-6a2.87,2.87,0,0,0-2.43,1.36l-12.45,20.25A.3.3,0,0,0,296,227.77Z"/><path class="cls-51" d="M311.32,227.74h25.57a1.47,1.47,0,0,0,1.47-1.47V207.53a1.47,1.47,0,0,0-1.47-1.47H322.82a1.46,1.46,0,0,0-1.25.7l-11.5,18.74A1.47,1.47,0,0,0,311.32,227.74Z"/><g class="cls-52"><path class="cls-53" d="M310.69,202l11.59-7.58L343,226.13l-11.59,7.58Zm15.15,36.63,4.28-2.8-20.7-31.67L305.14,207Z"/></g><rect class="cls-54" x="308.35" y="222.62" width="2.97" height="9.96" rx="1" transform="translate(619.68 455.19) rotate(-180)"/><path class="cls-55" d="M310.9,232.58h0a.94.94,0,0,0,.93-.94v-8.08a.94.94,0,0,0-.93-.94h0a.94.94,0,0,0-.94.94v8.08A.94.94,0,0,0,310.9,232.58Z"/><path class="cls-44" d="M350.7,249.9H479a0,0,0,0,1,0,0v9a0,0,0,0,1,0,0H349.89a2.63,2.63,0,0,1-2.63-2.63v-2.93a3.44,3.44,0,0,1,3.44-3.44Z" transform="translate(826.27 508.8) rotate(-180)"/><ellipse class="cls-56" cx="438.27" cy="260.12" rx="15.8" ry="7.1"/><circle class="cls-56" cx="436.68" cy="270.5" r="14.11" transform="translate(-61.86 394.29) rotate(-45.72)"/><circle class="cls-46" cx="438.84" cy="270.5" r="14.11" transform="translate(-47.35 441.88) rotate(-51.07)"/><circle class="cls-4" cx="438.84" cy="270.5" r="7.06" transform="translate(-45.54 94.06) rotate(-11.63)"/><path class="cls-47" d="M441.26,271.61a.7.7,0,0,0-.69.82l.57,3.27-.47.11-1.05-4.19h-.36l-.31.16L440,276l-.47.12-1-3.15a.7.7,0,0,0-1-.4l-2.93,1.55-.25-.41L438,271.4l-.11-.34-.25-.25L434,273.1l-.26-.41,2.68-2a.69.69,0,0,0,.07-1.06l-2.38-2.31.31-.37,3.32,2.78.29-.21.15-.32-3.31-2.78.31-.37,2.69,1.94a.69.69,0,0,0,1-.26l1.46-3,.45.18-1.62,4,.29.21.36.05,1.62-4,.44.18-1,3.16a.71.71,0,0,0,.56.91l3.29.46,0,.49-4.31-.3-.11.34.06.35,4.32.3,0,.48Zm-2.51-.69v0l0,0v0Zm.29-.19.19-.12.09-.21-.06-.22-.17-.14-.22,0-.2.12-.08.21.06.22.17.15Zm-.66-.38h0Zm.42-.53,0,0v0l0,0Zm.64.24,0,0h0v0Zm-.05.7h0v0h0Z"/><path class="cls-2" d="M444.6,272.83a6.15,6.15,0,1,1-3.41-8A6.16,6.16,0,0,1,444.6,272.83Zm-.68-.27a5.42,5.42,0,1,0-7.06,3A5.41,5.41,0,0,0,443.92,272.56Z"/><path class="cls-2" d="M440.45,271a1.61,1.61,0,1,1-.89-2.1A1.61,1.61,0,0,1,440.45,271Z"/><path class="cls-57" d="M440,270.78a1.07,1.07,0,1,1-.59-1.39A1.08,1.08,0,0,1,440,270.78Z"/><path class="cls-49" d="M439.55,270.62a.65.65,0,0,1-.83.35.64.64,0,1,1,.83-.35Z"/><g class="cls-58"><path class="cls-59" d="M417.47,271.22a21.38,21.38,0,1,0,42.75,0c0-11.8-9.57-21.92-21.38-21.92S417.47,259.42,417.47,271.22Z"/><circle class="cls-59" cx="301.69" cy="269.78" r="21.02" transform="translate(-79.51 405.75) rotate(-61.44)"/></g><path class="cls-2" d="M287.52,265.8h-6.93a1.67,1.67,0,0,1-1.67-1.67l-.72-7.56a1.67,1.67,0,0,1,1.67-1.66h7.65a1.66,1.66,0,0,1,1.66,1.66v7.56A1.66,1.66,0,0,1,287.52,265.8Z"/><path class="cls-4" d="M270.84,254.91h5.52a3.67,3.67,0,0,1,3.67,3.67v3.54a3.67,3.67,0,0,1-3.67,3.67h-5.52a0,0,0,0,1,0,0V254.91A0,0,0,0,1,270.84,254.91Z" transform="translate(550.87 520.71) rotate(-180)"/><path class="cls-7" d="M270.84,254.91h5.52a3.67,3.67,0,0,1,3.67,3.67v3.54a3.67,3.67,0,0,1-3.67,3.67h-5.52a0,0,0,0,1,0,0V254.91A0,0,0,0,1,270.84,254.91Z" transform="translate(550.87 520.71) rotate(-180)"/><path class="cls-60" d="M277.86,260.48c0,1.4.42,2.53.93,2.53s.93-1.13.93-2.53-.41-2.54-.93-2.54S277.86,259.08,277.86,260.48Z"/><path class="cls-61" d="M277.32,260.48c0,1.4.41,2.53.93,2.53s.93-1.13.93-2.53-.42-2.54-.93-2.54S277.32,259.08,277.32,260.48Z"/><path class="cls-60" d="M271.54,260.48c0,1.4.41,2.53.93,2.53s.93-1.13.93-2.53-.42-2.54-.93-2.54S271.54,259.08,271.54,260.48Z"/><path class="cls-61" d="M271,260.48c0,1.4.42,2.53.93,2.53s.94-1.13.94-2.53-.42-2.54-.94-2.54S271,259.08,271,260.48Z"/><path class="cls-62" d="M339.66,202.59l-1.34,4.62a1.65,1.65,0,0,1,0,.32v18.74a1.47,1.47,0,0,1-1.47,1.47h-4.51L321.89,264l25.37,0V202.59C347.26,202.29,339.66,202.59,339.66,202.59Z"/><line class="cls-63" x1="342.3" y1="204.43" x2="342.3" y2="262.44"/><line class="cls-63" x1="305.2" y1="231.4" x2="305.2" y2="246.89"/><rect class="cls-64" x="333.26" y="238.28" width="4.97" height="2.73" rx="0.92" transform="translate(671.5 479.29) rotate(180)"/><rect class="cls-65" x="406.64" y="249.98" width="2.64" height="19.26" transform="translate(815.92 519.21) rotate(180)"/><rect class="cls-65" x="358.82" y="249.98" width="2.64" height="19.26" transform="translate(720.28 519.21) rotate(180)"/><rect class="cls-2" x="353.59" y="256.15" width="60.14" height="3.46" transform="translate(767.33 515.75) rotate(180)"/><g class="cls-66"><polygon class="cls-50" points="414.68 259.62 411.2 256.15 408.08 256.14 411.54 259.6 414.68 259.62"/><polygon class="cls-50" points="408.25 259.62 404.77 256.15 401.65 256.14 405.11 259.6 408.25 259.62"/><polygon class="cls-50" points="401.82 259.62 398.34 256.15 395.22 256.14 398.68 259.6 401.82 259.62"/><polygon class="cls-50" points="395.39 259.62 391.91 256.15 388.79 256.14 392.25 259.6 395.39 259.62"/><polygon class="cls-50" points="388.96 259.62 385.48 256.15 382.36 256.14 385.82 259.6 388.96 259.62"/><polygon class="cls-50" points="382.53 259.62 379.05 256.15 375.93 256.14 379.39 259.6 382.53 259.62"/><polygon class="cls-50" points="376.1 259.62 372.62 256.15 369.5 256.14 372.96 259.6 376.1 259.62"/><polygon class="cls-50" points="369.67 259.62 366.19 256.15 363.07 256.14 366.53 259.6 369.67 259.62"/><polygon class="cls-50" points="363.24 259.62 359.76 256.15 356.64 256.14 360.1 259.6 363.24 259.62"/><polygon class="cls-50" points="356.81 259.62 353.33 256.15 350.21 256.14 353.67 259.6 356.81 259.62"/></g><rect class="cls-2" x="353.59" y="266.02" width="60.14" height="3.46" transform="translate(767.33 535.5) rotate(180)"/><g class="cls-67"><polygon class="cls-50" points="414.68 269.5 411.2 266.02 408.08 266.01 411.54 269.48 414.68 269.5"/><polygon class="cls-50" points="408.25 269.5 404.77 266.02 401.65 266.01 405.11 269.48 408.25 269.5"/><polygon class="cls-50" points="401.82 269.5 398.34 266.02 395.22 266.01 398.68 269.48 401.82 269.5"/><polygon class="cls-50" points="395.39 269.5 391.91 266.02 388.79 266.01 392.25 269.48 395.39 269.5"/><polygon class="cls-50" points="388.96 269.5 385.48 266.02 382.36 266.01 385.82 269.48 388.96 269.5"/><polygon class="cls-50" points="382.53 269.5 379.05 266.02 375.93 266.01 379.39 269.48 382.53 269.5"/><polygon class="cls-50" points="376.1 269.5 372.62 266.02 369.5 266.01 372.96 269.48 376.1 269.5"/><polygon class="cls-50" points="369.67 269.5 366.19 266.02 363.07 266.01 366.53 269.48 369.67 269.5"/><polygon class="cls-50" points="363.24 269.5 359.76 266.02 356.64 266.01 360.1 269.48 363.24 269.5"/><polygon class="cls-50" points="356.81 269.5 353.33 266.02 350.21 266.01 353.67 269.48 356.81 269.5"/></g><path class="cls-12" d="M356.42,166.23H497.25a5.64,5.64,0,0,1,5.64,5.64v78a0,0,0,0,1,0,0H356.42a5.64,5.64,0,0,1-5.64-5.64V171.87A5.64,5.64,0,0,1,356.42,166.23Z" transform="translate(853.67 416.13) rotate(180)"/><path class="cls-2" d="M448.58,195.73h-.25a19.83,19.83,0,0,0-17.47-10.86,19.59,19.59,0,0,0-12.09,4.1,14.52,14.52,0,0,0-6.62-1.7,15,15,0,0,0-15,15,15.43,15.43,0,0,0,.25,2.74,13,13,0,0,0,1.32,25.89l46.19.34a15.15,15.15,0,0,0,1.66-.07c.57.06,1.14.09,1.71.1a17.77,17.77,0,0,0,.27-35.54Z"/><path class="cls-40" d="M459.11,199.42a17.93,17.93,0,0,1,2.23,8.81,17.63,17.63,0,0,1-17.6,17.64,17.28,17.28,0,0,1-6.94-1.51,20.39,20.39,0,0,0,6.48-34.94,20.41,20.41,0,0,1,1.9,8.81,20.06,20.06,0,0,1-20,20.08A19.6,19.6,0,0,1,413,214a8.13,8.13,0,0,0,.22-12.06A7.7,7.7,0,0,1,414.3,206c0,4.31-3.34,8.07-9.48,8a8,8,0,0,1-2.46-.42,7.85,7.85,0,0,0,5.39,2.29,12.88,12.88,0,0,1-12.81,11.5,12.43,12.43,0,0,1-6.42-1.81,12.67,12.67,0,0,0,10.23,5.33l49.56.37a17.62,17.62,0,0,0,17.6-17.64A17.81,17.81,0,0,0,459.11,199.42Z"/><g class="cls-68"><g class="cls-69"><rect class="cls-2" x="412.53" y="127.54" width="39.78" height="162.02" transform="translate(885.64 50.25) rotate(135)"/><rect class="cls-2" x="382.85" y="148.19" width="14.88" height="127.51" transform="translate(816.14 85.83) rotate(135)"/></g></g><g class="cls-70"><line class="cls-71" x1="496.85" y1="219.92" x2="358.96" y2="219.92"/></g><g class="cls-70"><line class="cls-71" x1="496.85" y1="225.1" x2="358.96" y2="225.1"/></g><path class="cls-72" d="M352.46,167.91v80.31H501.21V167.91H352.46m-1.68-1.68H502.32a.58.58,0,0,1,.57.57v82.53a.58.58,0,0,1-.57.57h-151a.58.58,0,0,1-.57-.57v-83.1Z"/></g></g></svg>