<svg xmlns="http://www.w3.org/2000/svg" xmlns:xlink="http://www.w3.org/1999/xlink" viewBox="0 0 500 250"><defs><style>.cls-1,.cls-18,.cls-20,.cls-22,.cls-25,.cls-26,.cls-27,.cls-28{fill:none;}.cls-2{fill:#fff;}.cls-3{isolation:isolate;}.cls-30,.cls-31,.cls-4,.cls-7{fill:#f2f2f2;}.cls-5{clip-path:url(#clip-path);}.cls-6{fill:#fbfbfb;}.cls-10,.cls-11,.cls-13,.cls-14,.cls-15,.cls-17,.cls-29,.cls-31,.cls-32,.cls-41,.cls-47,.cls-62,.cls-7{mix-blend-mode:multiply;}.cls-8{fill:#dedede;}.cls-10,.cls-11,.cls-12,.cls-13,.cls-14,.cls-15,.cls-41,.cls-9{fill:#0a90b7;}.cls-10,.cls-11,.cls-14,.cls-15,.cls-30,.cls-31,.cls-9{fill-rule:evenodd;}.cls-10{opacity:0.71;}.cls-11{opacity:0.31;}.cls-13{opacity:0.18;}.cls-14{opacity:0.34;}.cls-15,.cls-23{opacity:0.13;}.cls-16{fill:#085e84;opacity:0.66;}.cls-17{opacity:0.25;}.cls-18{stroke:#162e51;stroke-width:4.97px;}.cls-19{opacity:0.2;}.cls-20,.cls-22,.cls-25,.cls-26,.cls-27,.cls-28,.cls-71{stroke:#fff;}.cls-20{stroke-width:3.59px;}.cls-21{opacity:0.15;}.cls-22{stroke-width:3.11px;}.cls-24{opacity:0.3;}.cls-25{stroke-width:2.4px;}.cls-26{stroke-width:1.8px;}.cls-27{stroke-width:1.2px;}.cls-28{stroke-width:0.54px;}.cls-29{fill:#f4f4f4;}.cls-31{opacity:0.36;}.cls-32{fill:#757575;opacity:0.16;}.cls-33,.cls-36{fill:#babcbe;}.cls-34{fill:#c2c4c6;}.cls-35{fill:#c5c7c9;}.cls-36{opacity:0.5;}.cls-37{fill:#c0c2c4;}.cls-38{fill:#c48e4e;}.cls-39{fill:#b28252;}.cls-39,.cls-63{opacity:0.45;}.cls-40{fill:#e4f5fe;}.cls-41{opacity:0.32;}.cls-42{fill:#a00a0f;}.cls-43{fill:#363636;}.cls-44{fill:#1a1a1a;}.cls-45{fill:#303030;}.cls-46{fill:#6d6d6d;}.cls-47{fill:#dbdbdb;}.cls-48{fill:#6e6e6e;}.cls-49{fill:#8c8c8c;}.cls-50,.cls-62{fill:#c71f25;}.cls-51{fill:#d9f1fd;}.cls-52{clip-path:url(#clip-path-2);}.cls-53{fill:#f5fbfe;}.cls-54{fill:#333;}.cls-55{fill:#5e5e5e;}.cls-56{fill:#292929;}.cls-57{fill:#696969;}.cls-58{clip-path:url(#clip-path-3);}.cls-59{fill:#404040;}.cls-60{fill:#6b6b6b;}.cls-61{fill:#a3a3a3;}.cls-62{opacity:0.49;}.cls-63{fill:#bfbfbf;stroke:#e8e8e8;stroke-width:0.6px;}.cls-63,.cls-71{stroke-linecap:round;stroke-miterlimit:10;}.cls-64{opacity:0.42;}.cls-65{fill:#4d4d4d;}.cls-66{clip-path:url(#clip-path-4);}.cls-67{clip-path:url(#clip-path-5);}.cls-68{clip-path:url(#clip-path-6);}.cls-69{opacity:0.05;}.cls-70{opacity:0.22;}.cls-71{fill:#e0e0e0;stroke-width:1.17px;}.cls-72{fill:#4bafd2;}</style><clipPath id="clip-path"><rect class="cls-1" x="76.45" y="-20.49" width="389.35" height="209.79"/></clipPath><clipPath id="clip-path-2"><path class="cls-1" d="M317,163.52h20.54a1.18,1.18,0,0,0,1.18-1.18V147.28a1.18,1.18,0,0,0-1.18-1.18h-11.3a1.2,1.2,0,0,0-1,.57L316,161.72A1.18,1.18,0,0,0,317,163.52Z"/></clipPath><clipPath id="clip-path-3"><path class="cls-1" d="M297.82,167l13-3a1.16,1.16,0,0,0,.72-.52L323,144.76a3,3,0,0,1,2.59-1.44H346a1.14,1.14,0,0,1,1.14,1.14s.83-17.17,1.84,36.93H450.91c4,.54,1.83,9.37,1.83,9.37a1.83,1.83,0,0,1-1.83,1.84H432.17a1.83,1.83,0,0,1-1.57-.89,12.73,12.73,0,0,0-22.53,0,1.85,1.85,0,0,1-1.58.89H349a1.84,1.84,0,0,1-1.85-1.84v.69A1.14,1.14,0,0,1,346,192.6H321.62a1.12,1.12,0,0,1-1.05-.7,12.11,12.11,0,0,0-22.46,0,1.12,1.12,0,0,1-1.05.7h-2.24a1.14,1.14,0,0,1-1.14-1.15V172.21A5.36,5.36,0,0,1,297.82,167Z"/></clipPath><clipPath id="clip-path-4"><rect class="cls-2" x="350.92" y="186.33" width="48.3" height="2.78" transform="translate(750.15 375.44) rotate(180)"/></clipPath><clipPath id="clip-path-5"><rect class="cls-2" x="350.92" y="194.26" width="48.3" height="2.78" transform="translate(750.15 391.3) rotate(180)"/></clipPath><clipPath id="clip-path-6"><path class="cls-1" d="M353.2,114.11H466.3a4.53,4.53,0,0,1,4.53,4.53v62.67a0,0,0,0,1,0,0H353.2a4.53,4.53,0,0,1-4.53-4.53V118.65A4.53,4.53,0,0,1,353.2,114.11Z" transform="translate(819.5 295.43) rotate(180)"/></clipPath></defs><g class="cls-3"><g id="Layer_7" data-name="Layer 7"><ellipse class="cls-4" cx="249.53" cy="227.12" rx="249.53" ry="22.82"/><path class="cls-2" d="M489.86,228.11H468.34a19.41,19.41,0,0,1-5.07-1l-6.54-2.27c-1.63-.56-2.07-1-1-1H476a23.61,23.61,0,0,1,5.31,1l7.36,2.27C490.49,227.65,491,228.11,489.86,228.11Zm-41.6,0H426.73a13.63,13.63,0,0,1-4.47-1l-5.21-2.27c-1.3-.56-1.46-1-.36-1H436.9a16.72,16.72,0,0,1,4.71,1l6,2.27C449.15,227.65,449.42,228.11,448.26,228.11Zm-41.61,0H385.12a9,9,0,0,1-3.86-1l-3.88-2.27c-1-.56-.86-1,.23-1h20.22a11.43,11.43,0,0,1,4.11,1l4.7,2.27C407.81,227.65,407.82,228.11,406.65,228.11Zm-41.61,0H343.51a5.74,5.74,0,0,1-3.26-1l-2.55-2.27c-.63-.56-.25-1,.84-1h20.22a7.34,7.34,0,0,1,3.5,1l3.38,2.27C366.48,227.65,366.21,228.11,365,228.11Zm-41.6,0H301.91a3.36,3.36,0,0,1-2.67-1L298,224.82c-.3-.56.34-1,1.44-1h20.22a4.47,4.47,0,0,1,2.9,1l2,2.27C325.14,227.65,324.6,228.11,323.44,228.11Zm-41.61,0H260.3c-1.17,0-2.09-.46-2.06-1l.12-2.27c0-.56.94-1,2-1h20.21c1.1,0,2.13.46,2.31,1l.7,2.27C283.8,227.65,283,228.11,281.83,228.11Zm-41.61,0H218.69c-1.17,0-1.82-.46-1.46-1l1.45-2.27a3.5,3.5,0,0,1,2.64-1h20.22c1.1,0,1.86.46,1.7,1l-.62,2.27C242.46,227.65,241.39,228.11,240.22,228.11Zm-41.61,0H177.09c-1.17,0-1.56-.46-.86-1l2.78-2.27a6,6,0,0,1,3.24-1h20.22c1.09,0,1.59.46,1.1,1l-2,2.27A4.56,4.56,0,0,1,198.61,228.11Zm-41.6,0H135.48c-1.17,0-1.28-.46-.26-1l4.12-2.27a9.47,9.47,0,0,1,3.84-1h20.21c1.1,0,1.33.46.51,1l-3.29,2.27A7.5,7.5,0,0,1,157,228.11Zm-41.61,0H93.87c-1.17,0-1-.46.34-1l5.45-2.27a14.29,14.29,0,0,1,4.44-1h20.22c1.1,0,1.05.46-.1,1l-4.62,2.27A11.44,11.44,0,0,1,115.4,228.11Zm-41.61,0H52.26c-1.16,0-.74-.46,1-1L60,224.82a20.37,20.37,0,0,1,5-1H85.25c1.1,0,.78.46-.7,1l-6,2.27A16.63,16.63,0,0,1,73.79,228.11Zm-41.6,0H10.66c-1.17,0-.48-.46,1.54-1l8.11-2.27a28,28,0,0,1,5.65-1H46.18c1.09,0,.51.46-1.31,1l-7.28,2.27A23.37,23.37,0,0,1,32.19,228.11Z"/></g><g id="Layer_5" data-name="Layer 5"><path class="cls-4" d="M488.66,66.08V54.54h-5.11v7.33h-9.8v4.21h-4.83V7.76h-9.57V0H448.46L432.9,8.45v2.42l-16.12,6.89v9.65h-7.2V17.56h-4.94V14.84h-6.16v2.72H396V15.92h-6.16v1.64h-5.16l-14.5,7.36h-5.35l-5.73,2.49h-3.57V23.32L350,21.37l-5.55,1.95v4.09h-9.06L313.69,41.34v13.6H301.27V51.82H286.7v3.12h-7.65V62.2h-5.5V59.53l-4.06-1.2-4.07,1.2V62.2h-5V37.13H233.33V35.45l-3.64-1.65-3.63,1.65v1.68h-4.62l-1.51-7.76H197.39v7.76h-2.77V78.39H189V65.61H160V22.06L140.61,8.58h-5.15V6.85H129.3V8.58h-6.84L114.05,4H106V2.86H99.81V4h-2V2.86H91.63V4H88.92v4.6H83V23.66H65.56V76.08H61.75V68.91l-3.09-1.57V40.47h-3V34.1h-2V30.32H51V28.38H49.37l-1.3-7.78h-.46l-.33-5.68h-.51l-.33,5.68H46l-1.3,7.78H43v1.94H40.43V34.1h-2v6.37h-3V56H28.16v60.11H22.35l-11.06-5.38L0,116.12v61.54H500V66.08Zm-430,8.16h1.42l-1.42.91Z"/></g><g id="Layer_8" data-name="Layer 8"><g class="cls-5"><rect class="cls-6" x="372.41" y="34.98" width="65.63" height="181.96"/><path class="cls-7" d="M381.42,46.22h6.9V217h-6.9ZM391.76,217h6.9V46.22h-6.9Zm10.35,0H409V46.22h-6.9Zm10.34,0h6.9V46.22h-6.9Zm10.35,0h6.89V46.22H422.8Z"/><path class="cls-4" d="M387,49.39h-5.54v7.79H387Zm10.34,7.79h-5.53V49.39h5.53Zm10.31,0h-5.43V49.39h5.43ZM387,71.82h-5.54V64H387Zm10.34,0h-5.53V64h5.53Zm10.31,0h-5.43V64h5.43ZM387,86.46h-5.54V78.68H387Zm10.34,0h-5.53V78.68h5.53Zm10.31,0h-5.43V78.68h5.43ZM387,101.11h-5.54V93.32H387Zm10.34,0h-5.53V93.32h5.53Zm10.31,0h-5.43V93.32h5.43ZM387,115.75h-5.54V108H387Zm10.34,0h-5.53V108h5.53Zm10.31,0h-5.43V108h5.43ZM387,130.39h-5.54V122.6H387Zm10.34,0h-5.53V122.6h5.53Zm10.31,0h-5.43V122.6h5.43ZM387,145h-5.54v-7.78H387Zm10.34,0h-5.53v-7.78h5.53Zm10.31,0h-5.43v-7.78h5.43ZM387,159.68h-5.54v-7.79H387Zm10.34,0h-5.53v-7.79h5.53Zm10.31,0h-5.43v-7.79h5.43ZM387,174.32h-5.54v-7.79H387Zm10.34,0h-5.53v-7.79h5.53Zm10.31,0h-5.43v-7.79h5.43ZM387,189h-5.54v-7.79H387Zm10.34,0h-5.53v-7.79h5.53Zm10.31,0h-5.43v-7.79h5.43ZM387,203.6h-5.54v-7.78H387Zm10.34,0h-5.53v-7.78h5.53Zm10.31,0h-5.43v-7.78h5.43ZM387,217.1h-5.54v-6.64H387Zm10.34,0h-5.53v-6.64h5.53ZM418,57.18h-5.54V49.39H418Zm10.34,0H422.8V49.39h5.53ZM418,71.82h-5.54V64H418Zm10.34,0H422.8V64h5.53ZM418,86.46h-5.54V78.68H418Zm10.34,0H422.8V78.68h5.53ZM418,101.11h-5.54V93.32H418Zm10.34,0H422.8V93.32h5.53ZM418,115.75h-5.54V108H418Zm10.34,0H422.8V108h5.53ZM418,130.39h-5.54V122.6H418Zm10.34,0H422.8V122.6h5.53ZM418,145h-5.54v-7.78H418Zm10.34,0H422.8v-7.78h5.53ZM418,159.68h-5.54v-7.79H418Zm10.34,0H422.8v-7.79h5.53ZM418,174.32h-5.54v-7.79H418Zm10.34,0H422.8v-7.79h5.53ZM418,189h-5.54v-7.79H418Zm10.34,0H422.8v-7.79h5.53ZM418,203.6h-5.54v-7.78H418Zm10.34,0H422.8v-7.78h5.53ZM418,217.1h-5.54v-6.64H418Zm10.34,0H422.8v-6.64h5.53Zm-20.66,0h-5.43v-6.64h5.43Z"/><path class="cls-7" d="M387,49.39h-5.54v7.79H387Zm10.34,7.79h-5.53V49.39h5.53Zm10.31,0h-5.43V49.39h5.43ZM387,71.82h-5.54V64H387Zm10.34,0h-5.53V64h5.53Zm10.31,0h-5.43V64h5.43ZM387,86.46h-5.54V78.68H387Zm10.34,0h-5.53V78.68h5.53Zm10.31,0h-5.43V78.68h5.43ZM387,101.11h-5.54V93.32H387Zm10.34,0h-5.53V93.32h5.53Zm10.31,0h-5.43V93.32h5.43ZM387,115.75h-5.54V108H387Zm10.34,0h-5.53V108h5.53Zm10.31,0h-5.43V108h5.43ZM387,130.39h-5.54V122.6H387Zm10.34,0h-5.53V122.6h5.53Zm10.31,0h-5.43V122.6h5.43ZM387,145h-5.54v-7.78H387Zm10.34,0h-5.53v-7.78h5.53Zm10.31,0h-5.43v-7.78h5.43ZM387,159.68h-5.54v-7.79H387Zm10.34,0h-5.53v-7.79h5.53Zm10.31,0h-5.43v-7.79h5.43ZM387,174.32h-5.54v-7.79H387Zm10.34,0h-5.53v-7.79h5.53Zm10.31,0h-5.43v-7.79h5.43ZM387,189h-5.54v-7.79H387Zm10.34,0h-5.53v-7.79h5.53Zm10.31,0h-5.43v-7.79h5.43ZM387,203.6h-5.54v-7.78H387Zm10.34,0h-5.53v-7.78h5.53Zm10.31,0h-5.43v-7.78h5.43ZM387,217.1h-5.54v-6.64H387Zm10.34,0h-5.53v-6.64h5.53ZM418,57.18h-5.54V49.39H418Zm10.34,0H422.8V49.39h5.53ZM418,71.82h-5.54V64H418Zm10.34,0H422.8V64h5.53ZM418,86.46h-5.54V78.68H418Zm10.34,0H422.8V78.68h5.53ZM418,101.11h-5.54V93.32H418Zm10.34,0H422.8V93.32h5.53ZM418,115.75h-5.54V108H418Zm10.34,0H422.8V108h5.53ZM418,130.39h-5.54V122.6H418Zm10.34,0H422.8V122.6h5.53ZM418,145h-5.54v-7.78H418Zm10.34,0H422.8v-7.78h5.53ZM418,159.68h-5.54v-7.79H418Zm10.34,0H422.8v-7.79h5.53ZM418,174.32h-5.54v-7.79H418Zm10.34,0H422.8v-7.79h5.53ZM418,189h-5.54v-7.79H418Zm10.34,0H422.8v-7.79h5.53ZM418,203.6h-5.54v-7.78H418Zm10.34,0H422.8v-7.78h5.53ZM418,217.1h-5.54v-6.64H418Zm10.34,0H422.8v-6.64h5.53Zm-20.66,0h-5.43v-6.64h5.43Z"/><polygon class="cls-8" points="350.28 53.94 350.28 216.95 369.62 216.95 369.62 37.38 350.28 53.94"/><polygon class="cls-4" points="372.41 34.98 369.62 37.38 369.62 216.95 372.41 216.95 372.41 34.98"/><polygon class="cls-9" points="321.4 -0.28 274.35 38.84 297.74 28 321.4 -0.28"/><polygon class="cls-10" points="321.4 -0.28 274.35 38.84 297.74 28 321.4 -0.28"/><polygon class="cls-9" points="274.35 258.52 297.74 247.68 297.74 28 274.35 38.84 274.35 258.52 274.35 258.52"/><polygon class="cls-11" points="274.35 258.52 297.74 247.68 297.74 28 274.35 38.84 274.35 258.52 274.35 258.52"/><path class="cls-12" d="M274.35,73.94v9.59l23.39-10.84V63.1L274.35,73.94Zm0,16.9L297.74,80v9.59l-23.39,10.84V90.84Zm0,16.9L297.74,96.9v9.59l-23.39,10.84v-9.59Zm0,16.9,23.39-10.84v9.59l-23.39,10.84v-9.59Zm0,16.9,23.39-10.84v9.58l-23.39,10.85v-9.59Zm0,16.9,23.39-10.84v9.58L274.35,168v-9.59Zm0,16.9,23.39-10.84v9.58l-23.39,10.85v-9.59Zm0,16.9,23.39-10.84V191l-23.39,10.84v-9.58Zm0,16.9,23.39-10.85v9.59l-23.39,10.84v-9.58Zm0,16.89,23.39-10.84v9.59l-23.39,10.84V226ZM297.74,28v9.59L274.35,48.43V38.84L297.74,28ZM274.35,242.93l23.39-10.84v9.59l-23.39,10.84v-9.59Zm0-185.89L297.74,46.2v9.59L274.35,66.63V57Z"/><path class="cls-13" d="M274.35,73.94v9.59l23.39-10.84V63.1L274.35,73.94Zm0,16.9L297.74,80v9.59l-23.39,10.84V90.84Zm0,16.9L297.74,96.9v9.59l-23.39,10.84v-9.59Zm0,16.9,23.39-10.84v9.59l-23.39,10.84v-9.59Zm0,16.9,23.39-10.84v9.58l-23.39,10.85v-9.59Zm0,16.9,23.39-10.84v9.58L274.35,168v-9.59Zm0,16.9,23.39-10.84v9.58l-23.39,10.85v-9.59Zm0,16.9,23.39-10.84V191l-23.39,10.84v-9.58Zm0,16.9,23.39-10.85v9.59l-23.39,10.84v-9.58Zm0,16.89,23.39-10.84v9.59l-23.39,10.84V226ZM297.74,28v9.59L274.35,48.43V38.84L297.74,28ZM274.35,242.93l23.39-10.84v9.59l-23.39,10.84v-9.59Zm0-185.89L297.74,46.2v9.59L274.35,66.63V57Z"/><polygon class="cls-9" points="321.4 -0.28 363.64 28 297.74 28 321.4 -0.28"/><polygon class="cls-14" points="321.4 -0.28 363.64 28 297.74 28 321.4 -0.28"/><polygon class="cls-9" points="363.64 247.68 297.74 247.68 297.74 28 363.64 28 363.64 247.68 363.64 247.68"/><polygon class="cls-15" points="363.64 247.68 297.74 247.68 297.74 28 363.64 28 363.64 247.68 363.64 247.68"/><path class="cls-12" d="M297.74,63.1v9.59h65.9V63.1Zm0,16.9h65.9v9.59h-65.9V80Zm0,16.9h65.9v9.59h-65.9V96.9Zm0,16.9h65.9v9.59h-65.9V113.8Zm0,16.9h65.9v9.58h-65.9V130.7Zm0,16.9h65.9v9.58h-65.9V147.6Zm0,16.9h65.9v9.58h-65.9V164.5Zm0,16.9h65.9V191h-65.9V181.4Zm0,16.89h65.9v9.59h-65.9v-9.59Zm0,16.9h65.9v9.59h-65.9v-9.59Zm0,16.9h65.9v9.59h-65.9v-9.59Zm0-185.89h65.9v9.59h-65.9V46.2Zm65.9-8.61h-65.9V28h65.9v9.59Z"/><polygon class="cls-16" points="286.37 71.4 286.37 195.24 272.86 195.24 272.86 77.82 286.37 71.4"/><g class="cls-17"><path class="cls-18" d="M316.73,55.7a7.4,7.4,0,0,1-5.58-2.59,9.06,9.06,0,0,1-2.2-5.26.17.17,0,0,1,.15-.18.17.17,0,0,1,.18.15,8.68,8.68,0,0,0,2.12,5.07,7.08,7.08,0,0,0,5.33,2.48,7.44,7.44,0,0,0,4.83-1.64,1,1,0,0,0,.38-.66,1,1,0,0,0-.2-.74,1,1,0,0,0-1.4-.18,5.75,5.75,0,0,1-1.74,1,5.94,5.94,0,0,1-1.87.27,5.12,5.12,0,0,1-3.84-1.8,6.68,6.68,0,0,1-1.61-3.76.17.17,0,1,1,.33,0,6.36,6.36,0,0,0,1.53,3.57A4.81,4.81,0,0,0,316.73,53a5.65,5.65,0,0,0,1.77-.25,5.24,5.24,0,0,0,1.64-.9,1.32,1.32,0,0,1,1-.26,1.28,1.28,0,0,1,.88.5,1.33,1.33,0,0,1-.24,1.87,8,8,0,0,1-2.43,1.32A8.29,8.29,0,0,1,316.73,55.7Zm-7.62-9.23h0a.18.18,0,0,1-.16-.18A9.14,9.14,0,0,1,311.15,41a7.4,7.4,0,0,1,5.58-2.59,7,7,0,0,1,2.44.43,7.6,7.6,0,0,1,2.18,1.23,1.3,1.3,0,0,1,.48.9,1.29,1.29,0,0,1-.29,1,1.33,1.33,0,0,1-1.87.19,4.71,4.71,0,0,0-1.41-.8,4.4,4.4,0,0,0-1.53-.27,4.78,4.78,0,0,0-3.59,1.69,6.34,6.34,0,0,0-1.52,3.49.15.15,0,0,1-.18.14.17.17,0,0,1-.15-.18,6.64,6.64,0,0,1,1.6-3.67,5.12,5.12,0,0,1,3.84-1.8,4.63,4.63,0,0,1,1.65.29,5.09,5.09,0,0,1,1.5.85A1,1,0,0,0,321.5,41a1,1,0,0,0-.36-.68,7.16,7.16,0,0,0-2.08-1.18,6.89,6.89,0,0,0-2.33-.41,7.08,7.08,0,0,0-5.33,2.48,8.65,8.65,0,0,0-2.12,5.08A.17.17,0,0,1,309.11,46.47Z"/></g><g class="cls-19"><path class="cls-20" d="M317.52,54.75a7.4,7.4,0,0,1-5.58-2.59,9.08,9.08,0,0,1-2.21-5.26.18.18,0,0,1,.16-.18.19.19,0,0,1,.18.16,8.68,8.68,0,0,0,2.12,5.06,7.08,7.08,0,0,0,5.33,2.48,7.84,7.84,0,0,0,2.49-.37,7.69,7.69,0,0,0,2.34-1.27,1,1,0,0,0,.38-.66,1,1,0,0,0-.2-.74,1,1,0,0,0-1.4-.18,5.66,5.66,0,0,1-1.74.95,5.94,5.94,0,0,1-1.87.27,5.11,5.11,0,0,1-3.84-1.8,6.65,6.65,0,0,1-1.61-3.75.17.17,0,0,1,.15-.18.16.16,0,0,1,.18.14,6.29,6.29,0,0,0,1.53,3.57,4.78,4.78,0,0,0,3.59,1.69,5.65,5.65,0,0,0,1.77-.25,5.57,5.57,0,0,0,1.64-.9,1.33,1.33,0,0,1,2.13,1.22,1.35,1.35,0,0,1-.51.89,8.17,8.17,0,0,1-2.43,1.32A8.29,8.29,0,0,1,317.52,54.75Zm-7.62-9.23h0a.17.17,0,0,1-.15-.18,9.07,9.07,0,0,1,2.21-5.27,7.4,7.4,0,0,1,5.58-2.59,7.29,7.29,0,0,1,2.44.43,7.4,7.4,0,0,1,2.18,1.24,1.3,1.3,0,0,1,.48.9,1.27,1.27,0,0,1-.29,1,1.33,1.33,0,0,1-1.87.2,5,5,0,0,0-1.41-.81,4.69,4.69,0,0,0-1.53-.27,4.82,4.82,0,0,0-3.59,1.69,6.3,6.3,0,0,0-1.52,3.49.17.17,0,0,1-.18.15.16.16,0,0,1-.15-.18,6.6,6.6,0,0,1,1.6-3.68,5.11,5.11,0,0,1,3.84-1.8,4.9,4.9,0,0,1,1.65.29,5.25,5.25,0,0,1,1.5.86,1,1,0,0,0,1.4-.15,1,1,0,0,0,.22-.73,1,1,0,0,0-.36-.67,7.38,7.38,0,0,0-2.09-1.19,6.83,6.83,0,0,0-2.32-.41,7.08,7.08,0,0,0-5.33,2.48,8.75,8.75,0,0,0-2.13,5.08A.15.15,0,0,1,309.9,45.52Z"/></g><g class="cls-21"><path class="cls-22" d="M317.52,54.75a7.4,7.4,0,0,1-5.58-2.59,9.08,9.08,0,0,1-2.21-5.26.18.18,0,0,1,.16-.18.19.19,0,0,1,.18.16,8.68,8.68,0,0,0,2.12,5.06,7.08,7.08,0,0,0,5.33,2.48,7.84,7.84,0,0,0,2.49-.37,7.69,7.69,0,0,0,2.34-1.27,1,1,0,0,0,.38-.66,1,1,0,0,0-.2-.74,1,1,0,0,0-1.4-.18,5.66,5.66,0,0,1-1.74.95,5.94,5.94,0,0,1-1.87.27,5.11,5.11,0,0,1-3.84-1.8,6.65,6.65,0,0,1-1.61-3.75.17.17,0,0,1,.15-.18.16.16,0,0,1,.18.14,6.29,6.29,0,0,0,1.53,3.57,4.78,4.78,0,0,0,3.59,1.69,5.65,5.65,0,0,0,1.77-.25,5.57,5.57,0,0,0,1.64-.9,1.33,1.33,0,0,1,2.13,1.22,1.35,1.35,0,0,1-.51.89,8.17,8.17,0,0,1-2.43,1.32A8.29,8.29,0,0,1,317.52,54.75Zm-7.62-9.23h0a.17.17,0,0,1-.15-.18,9.07,9.07,0,0,1,2.21-5.27,7.4,7.4,0,0,1,5.58-2.59,7.29,7.29,0,0,1,2.44.43,7.4,7.4,0,0,1,2.18,1.24,1.3,1.3,0,0,1,.48.9,1.27,1.27,0,0,1-.29,1,1.33,1.33,0,0,1-1.87.2,5,5,0,0,0-1.41-.81,4.69,4.69,0,0,0-1.53-.27,4.82,4.82,0,0,0-3.59,1.69,6.3,6.3,0,0,0-1.52,3.49.17.17,0,0,1-.18.15.16.16,0,0,1-.15-.18,6.6,6.6,0,0,1,1.6-3.68,5.11,5.11,0,0,1,3.84-1.8,4.9,4.9,0,0,1,1.65.29,5.25,5.25,0,0,1,1.5.86,1,1,0,0,0,1.4-.15,1,1,0,0,0,.22-.73,1,1,0,0,0-.36-.67,7.38,7.38,0,0,0-2.09-1.19,6.83,6.83,0,0,0-2.32-.41,7.08,7.08,0,0,0-5.33,2.48,8.75,8.75,0,0,0-2.13,5.08A.15.15,0,0,1,309.9,45.52Z"/></g><path class="cls-23" d="M317.52,54.75a7.4,7.4,0,0,1-5.58-2.59,9.08,9.08,0,0,1-2.21-5.26.18.18,0,0,1,.16-.18.19.19,0,0,1,.18.16,8.68,8.68,0,0,0,2.12,5.06,7.08,7.08,0,0,0,5.33,2.48,7.84,7.84,0,0,0,2.49-.37,7.69,7.69,0,0,0,2.34-1.27,1,1,0,0,0,.38-.66,1,1,0,0,0-.2-.74,1,1,0,0,0-1.4-.18,5.66,5.66,0,0,1-1.74.95,5.94,5.94,0,0,1-1.87.27,5.11,5.11,0,0,1-3.84-1.8,6.65,6.65,0,0,1-1.61-3.75.17.17,0,0,1,.15-.18.16.16,0,0,1,.18.14,6.29,6.29,0,0,0,1.53,3.57,4.78,4.78,0,0,0,3.59,1.69,5.65,5.65,0,0,0,1.77-.25,5.57,5.57,0,0,0,1.64-.9,1.33,1.33,0,0,1,2.13,1.22,1.35,1.35,0,0,1-.51.89,8.17,8.17,0,0,1-2.43,1.32A8.29,8.29,0,0,1,317.52,54.75Zm-7.62-9.23h0a.17.17,0,0,1-.15-.18,9.07,9.07,0,0,1,2.21-5.27,7.4,7.4,0,0,1,5.58-2.59,7.29,7.29,0,0,1,2.44.43,7.4,7.4,0,0,1,2.18,1.24,1.3,1.3,0,0,1,.48.9,1.27,1.27,0,0,1-.29,1,1.33,1.33,0,0,1-1.87.2,5,5,0,0,0-1.41-.81,4.69,4.69,0,0,0-1.53-.27,4.82,4.82,0,0,0-3.59,1.69,6.3,6.3,0,0,0-1.52,3.49.17.17,0,0,1-.18.15.16.16,0,0,1-.15-.18,6.6,6.6,0,0,1,1.6-3.68,5.11,5.11,0,0,1,3.84-1.8,4.9,4.9,0,0,1,1.65.29,5.25,5.25,0,0,1,1.5.86,1,1,0,0,0,1.4-.15,1,1,0,0,0,.22-.73,1,1,0,0,0-.36-.67,7.38,7.38,0,0,0-2.09-1.19,6.83,6.83,0,0,0-2.32-.41,7.08,7.08,0,0,0-5.33,2.48,8.75,8.75,0,0,0-2.13,5.08A.15.15,0,0,1,309.9,45.52Z"/><g class="cls-24"><path class="cls-25" d="M317.52,54.75a7.4,7.4,0,0,1-5.58-2.59,9.08,9.08,0,0,1-2.21-5.26.18.18,0,0,1,.16-.18.19.19,0,0,1,.18.16,8.68,8.68,0,0,0,2.12,5.06,7.08,7.08,0,0,0,5.33,2.48,7.84,7.84,0,0,0,2.49-.37,7.69,7.69,0,0,0,2.34-1.27,1,1,0,0,0,.38-.66,1,1,0,0,0-.2-.74,1,1,0,0,0-1.4-.18,5.66,5.66,0,0,1-1.74.95,5.94,5.94,0,0,1-1.87.27,5.11,5.11,0,0,1-3.84-1.8,6.65,6.65,0,0,1-1.61-3.75.17.17,0,0,1,.15-.18.16.16,0,0,1,.18.14,6.29,6.29,0,0,0,1.53,3.57,4.78,4.78,0,0,0,3.59,1.69,5.65,5.65,0,0,0,1.77-.25,5.57,5.57,0,0,0,1.64-.9,1.33,1.33,0,0,1,2.13,1.22,1.35,1.35,0,0,1-.51.89,8.17,8.17,0,0,1-2.43,1.32A8.29,8.29,0,0,1,317.52,54.75Zm-7.62-9.23h0a.17.17,0,0,1-.15-.18,9.07,9.07,0,0,1,2.21-5.27,7.4,7.4,0,0,1,5.58-2.59,7.29,7.29,0,0,1,2.44.43,7.4,7.4,0,0,1,2.18,1.24,1.3,1.3,0,0,1,.48.9,1.27,1.27,0,0,1-.29,1,1.33,1.33,0,0,1-1.87.2,5,5,0,0,0-1.41-.81,4.69,4.69,0,0,0-1.53-.27,4.82,4.82,0,0,0-3.59,1.69,6.3,6.3,0,0,0-1.52,3.49.17.17,0,0,1-.18.15.16.16,0,0,1-.15-.18,6.6,6.6,0,0,1,1.6-3.68,5.11,5.11,0,0,1,3.84-1.8,4.9,4.9,0,0,1,1.65.29,5.25,5.25,0,0,1,1.5.86,1,1,0,0,0,1.4-.15,1,1,0,0,0,.22-.73,1,1,0,0,0-.36-.67,7.38,7.38,0,0,0-2.09-1.19,6.83,6.83,0,0,0-2.32-.41,7.08,7.08,0,0,0-5.33,2.48,8.75,8.75,0,0,0-2.13,5.08A.15.15,0,0,1,309.9,45.52Z"/></g><path class="cls-26" d="M317.52,54.75a7.4,7.4,0,0,1-5.58-2.59,9.08,9.08,0,0,1-2.21-5.26.18.18,0,0,1,.16-.18.19.19,0,0,1,.18.16,8.68,8.68,0,0,0,2.12,5.06,7.08,7.08,0,0,0,5.33,2.48,7.84,7.84,0,0,0,2.49-.37,7.69,7.69,0,0,0,2.34-1.27,1,1,0,0,0,.38-.66,1,1,0,0,0-.2-.74,1,1,0,0,0-1.4-.18,5.66,5.66,0,0,1-1.74.95,5.94,5.94,0,0,1-1.87.27,5.11,5.11,0,0,1-3.84-1.8,6.65,6.65,0,0,1-1.61-3.75.17.17,0,0,1,.15-.18.16.16,0,0,1,.18.14,6.29,6.29,0,0,0,1.53,3.57,4.78,4.78,0,0,0,3.59,1.69,5.65,5.65,0,0,0,1.77-.25,5.57,5.57,0,0,0,1.64-.9,1.33,1.33,0,0,1,2.13,1.22,1.35,1.35,0,0,1-.51.89,8.17,8.17,0,0,1-2.43,1.32A8.29,8.29,0,0,1,317.52,54.75Zm-7.62-9.23h0a.17.17,0,0,1-.15-.18,9.07,9.07,0,0,1,2.21-5.27,7.4,7.4,0,0,1,5.58-2.59,7.29,7.29,0,0,1,2.44.43,7.4,7.4,0,0,1,2.18,1.24,1.3,1.3,0,0,1,.48.9,1.27,1.27,0,0,1-.29,1,1.33,1.33,0,0,1-1.87.2,5,5,0,0,0-1.41-.81,4.69,4.69,0,0,0-1.53-.27,4.82,4.82,0,0,0-3.59,1.69,6.3,6.3,0,0,0-1.52,3.49.17.17,0,0,1-.18.15.16.16,0,0,1-.15-.18,6.6,6.6,0,0,1,1.6-3.68,5.11,5.11,0,0,1,3.84-1.8,4.9,4.9,0,0,1,1.65.29,5.25,5.25,0,0,1,1.5.86,1,1,0,0,0,1.4-.15,1,1,0,0,0,.22-.73,1,1,0,0,0-.36-.67,7.38,7.38,0,0,0-2.09-1.19,6.83,6.83,0,0,0-2.32-.41,7.08,7.08,0,0,0-5.33,2.48,8.75,8.75,0,0,0-2.13,5.08A.15.15,0,0,1,309.9,45.52Z"/><path class="cls-27" d="M317.52,54.75a7.4,7.4,0,0,1-5.58-2.59,9.08,9.08,0,0,1-2.21-5.26.18.18,0,0,1,.16-.18.19.19,0,0,1,.18.16,8.68,8.68,0,0,0,2.12,5.06,7.08,7.08,0,0,0,5.33,2.48,7.84,7.84,0,0,0,2.49-.37,7.69,7.69,0,0,0,2.34-1.27,1,1,0,0,0,.38-.66,1,1,0,0,0-.2-.74,1,1,0,0,0-1.4-.18,5.66,5.66,0,0,1-1.74.95,5.94,5.94,0,0,1-1.87.27,5.11,5.11,0,0,1-3.84-1.8,6.65,6.65,0,0,1-1.61-3.75.17.17,0,0,1,.15-.18.16.16,0,0,1,.18.14,6.29,6.29,0,0,0,1.53,3.57,4.78,4.78,0,0,0,3.59,1.69,5.65,5.65,0,0,0,1.77-.25,5.57,5.57,0,0,0,1.64-.9,1.33,1.33,0,0,1,2.13,1.22,1.35,1.35,0,0,1-.51.89,8.17,8.17,0,0,1-2.43,1.32A8.29,8.29,0,0,1,317.52,54.75Zm-7.62-9.23h0a.17.17,0,0,1-.15-.18,9.07,9.07,0,0,1,2.21-5.27,7.4,7.4,0,0,1,5.58-2.59,7.29,7.29,0,0,1,2.44.43,7.4,7.4,0,0,1,2.18,1.24,1.3,1.3,0,0,1,.48.9,1.27,1.27,0,0,1-.29,1,1.33,1.33,0,0,1-1.87.2,5,5,0,0,0-1.41-.81,4.69,4.69,0,0,0-1.53-.27,4.82,4.82,0,0,0-3.59,1.69,6.3,6.3,0,0,0-1.52,3.49.17.17,0,0,1-.18.15.16.16,0,0,1-.15-.18,6.6,6.6,0,0,1,1.6-3.68,5.11,5.11,0,0,1,3.84-1.8,4.9,4.9,0,0,1,1.65.29,5.25,5.25,0,0,1,1.5.86,1,1,0,0,0,1.4-.15,1,1,0,0,0,.22-.73,1,1,0,0,0-.36-.67,7.38,7.38,0,0,0-2.09-1.19,6.83,6.83,0,0,0-2.32-.41,7.08,7.08,0,0,0-5.33,2.48,8.75,8.75,0,0,0-2.13,5.08A.15.15,0,0,1,309.9,45.52Z"/><path class="cls-28" d="M317.52,54.75a7.4,7.4,0,0,1-5.58-2.59,9.08,9.08,0,0,1-2.21-5.26.18.18,0,0,1,.16-.18.19.19,0,0,1,.18.16,8.68,8.68,0,0,0,2.12,5.06,7.08,7.08,0,0,0,5.33,2.48,7.84,7.84,0,0,0,2.49-.37,7.69,7.69,0,0,0,2.34-1.27,1,1,0,0,0,.38-.66,1,1,0,0,0-.2-.74,1,1,0,0,0-1.4-.18,5.66,5.66,0,0,1-1.74.95,5.94,5.94,0,0,1-1.87.27,5.11,5.11,0,0,1-3.84-1.8,6.65,6.65,0,0,1-1.61-3.75.17.17,0,0,1,.15-.18.16.16,0,0,1,.18.14,6.29,6.29,0,0,0,1.53,3.57,4.78,4.78,0,0,0,3.59,1.69,5.65,5.65,0,0,0,1.77-.25,5.57,5.57,0,0,0,1.64-.9,1.33,1.33,0,0,1,2.13,1.22,1.35,1.35,0,0,1-.51.89,8.17,8.17,0,0,1-2.43,1.32A8.29,8.29,0,0,1,317.52,54.75Zm-7.62-9.23h0a.17.17,0,0,1-.15-.18,9.07,9.07,0,0,1,2.21-5.27,7.4,7.4,0,0,1,5.58-2.59,7.29,7.29,0,0,1,2.44.43,7.4,7.4,0,0,1,2.18,1.24,1.3,1.3,0,0,1,.48.9,1.27,1.27,0,0,1-.29,1,1.33,1.33,0,0,1-1.87.2,5,5,0,0,0-1.41-.81,4.69,4.69,0,0,0-1.53-.27,4.82,4.82,0,0,0-3.59,1.69,6.3,6.3,0,0,0-1.52,3.49.17.17,0,0,1-.18.15.16.16,0,0,1-.15-.18,6.6,6.6,0,0,1,1.6-3.68,5.11,5.11,0,0,1,3.84-1.8,4.9,4.9,0,0,1,1.65.29,5.25,5.25,0,0,1,1.5.86,1,1,0,0,0,1.4-.15,1,1,0,0,0,.22-.73,1,1,0,0,0-.36-.67,7.38,7.38,0,0,0-2.09-1.19,6.83,6.83,0,0,0-2.32-.41,7.08,7.08,0,0,0-5.33,2.48,8.75,8.75,0,0,0-2.13,5.08A.15.15,0,0,1,309.9,45.52Z"/><path class="cls-2" d="M317.52,54.75a7.4,7.4,0,0,1-5.58-2.59,9.08,9.08,0,0,1-2.21-5.26.18.18,0,0,1,.16-.18.19.19,0,0,1,.18.16,8.68,8.68,0,0,0,2.12,5.06,7.08,7.08,0,0,0,5.33,2.48,7.84,7.84,0,0,0,2.49-.37,7.69,7.69,0,0,0,2.34-1.27,1,1,0,0,0,.38-.66,1,1,0,0,0-.2-.74,1,1,0,0,0-1.4-.18,5.66,5.66,0,0,1-1.74.95,5.94,5.94,0,0,1-1.87.27,5.11,5.11,0,0,1-3.84-1.8,6.65,6.65,0,0,1-1.61-3.75.17.17,0,0,1,.15-.18.16.16,0,0,1,.18.14,6.29,6.29,0,0,0,1.53,3.57,4.78,4.78,0,0,0,3.59,1.69,5.65,5.65,0,0,0,1.77-.25,5.57,5.57,0,0,0,1.64-.9,1.33,1.33,0,0,1,2.13,1.22,1.35,1.35,0,0,1-.51.89,8.17,8.17,0,0,1-2.43,1.32A8.29,8.29,0,0,1,317.52,54.75Zm-7.62-9.23h0a.17.17,0,0,1-.15-.18,9.07,9.07,0,0,1,2.21-5.27,7.4,7.4,0,0,1,5.58-2.59,7.29,7.29,0,0,1,2.44.43,7.4,7.4,0,0,1,2.18,1.24,1.3,1.3,0,0,1,.48.9,1.27,1.27,0,0,1-.29,1,1.33,1.33,0,0,1-1.87.2,5,5,0,0,0-1.41-.81,4.69,4.69,0,0,0-1.53-.27,4.82,4.82,0,0,0-3.59,1.69,6.3,6.3,0,0,0-1.52,3.49.17.17,0,0,1-.18.15.16.16,0,0,1-.15-.18,6.6,6.6,0,0,1,1.6-3.68,5.11,5.11,0,0,1,3.84-1.8,4.9,4.9,0,0,1,1.65.29,5.25,5.25,0,0,1,1.5.86,1,1,0,0,0,1.4-.15,1,1,0,0,0,.22-.73,1,1,0,0,0-.36-.67,7.38,7.38,0,0,0-2.09-1.19,6.83,6.83,0,0,0-2.32-.41,7.08,7.08,0,0,0-5.33,2.48,8.75,8.75,0,0,0-2.13,5.08A.15.15,0,0,1,309.9,45.52Z"/><g class="cls-17"><path class="cls-18" d="M343.53,55.7a1.34,1.34,0,0,1-1.33-1.33V39.76a1.33,1.33,0,0,1,1.33-1.33h4.71A5,5,0,0,1,352,40.09a5.74,5.74,0,0,1,0,7.74,5.07,5.07,0,0,1-3.73,1.66h-2.08a.17.17,0,0,1,0-.34h2.08a4.73,4.73,0,0,0,3.48-1.55,5.39,5.39,0,0,0,0-7.29,4.73,4.73,0,0,0-3.48-1.55h-4.71a1,1,0,0,0-1,1V54.37a1,1,0,1,0,2,0v-5a.17.17,0,0,1,.34,0v5A1.34,1.34,0,0,1,343.53,55.7Zm4.71-8.55H344.7a.17.17,0,0,1-.17-.16V40.92a.17.17,0,0,1,.34,0v5.9h3.37A2.45,2.45,0,0,0,350,46a3.07,3.07,0,0,0,0-4.11,2.45,2.45,0,0,0-1.78-.81h-2.08a.16.16,0,0,1-.16-.17.16.16,0,0,1,.16-.16h2.08a2.75,2.75,0,0,1,2,.91,3.41,3.41,0,0,1,0,4.57A2.75,2.75,0,0,1,348.24,47.15Z"/></g><g class="cls-19"><path class="cls-20" d="M344.32,54.75A1.33,1.33,0,0,1,343,53.42V38.81a1.34,1.34,0,0,1,1.33-1.33H349a5.09,5.09,0,0,1,3.74,1.66,5.74,5.74,0,0,1,0,7.74A5.09,5.09,0,0,1,349,48.54H347a.16.16,0,0,1-.16-.17.16.16,0,0,1,.16-.16H349a4.71,4.71,0,0,0,3.49-1.56,5.38,5.38,0,0,0,0-7.28A4.74,4.74,0,0,0,349,37.81h-4.7a1,1,0,0,0-1,1V53.42a1,1,0,1,0,2,0V48.37a.17.17,0,0,1,.17-.16.16.16,0,0,1,.16.16v5.05A1.32,1.32,0,0,1,344.32,54.75Zm4.7-8.54h-3.53a.18.18,0,0,1-.17-.17V40a.18.18,0,0,1,.17-.17.17.17,0,0,1,.16.17v5.9H349a2.45,2.45,0,0,0,1.79-.81,3.08,3.08,0,0,0,0-4.12,2.45,2.45,0,0,0-1.79-.81H347a.16.16,0,0,1-.16-.16.17.17,0,0,1,.16-.17H349a2.77,2.77,0,0,1,2,.92,3.3,3.3,0,0,1,.88,2.28,3.34,3.34,0,0,1-.88,2.29A2.8,2.8,0,0,1,349,46.21Z"/></g><g class="cls-21"><path class="cls-22" d="M344.32,54.75A1.33,1.33,0,0,1,343,53.42V38.81a1.34,1.34,0,0,1,1.33-1.33H349a5.09,5.09,0,0,1,3.74,1.66,5.74,5.74,0,0,1,0,7.74A5.09,5.09,0,0,1,349,48.54H347a.16.16,0,0,1-.16-.17.16.16,0,0,1,.16-.16H349a4.71,4.71,0,0,0,3.49-1.56,5.38,5.38,0,0,0,0-7.28A4.74,4.74,0,0,0,349,37.81h-4.7a1,1,0,0,0-1,1V53.42a1,1,0,1,0,2,0V48.37a.17.17,0,0,1,.17-.16.16.16,0,0,1,.16.16v5.05A1.32,1.32,0,0,1,344.32,54.75Zm4.7-8.54h-3.53a.18.18,0,0,1-.17-.17V40a.18.18,0,0,1,.17-.17.17.17,0,0,1,.16.17v5.9H349a2.45,2.45,0,0,0,1.79-.81,3.08,3.08,0,0,0,0-4.12,2.45,2.45,0,0,0-1.79-.81H347a.16.16,0,0,1-.16-.16.17.17,0,0,1,.16-.17H349a2.77,2.77,0,0,1,2,.92,3.3,3.3,0,0,1,.88,2.28,3.34,3.34,0,0,1-.88,2.29A2.8,2.8,0,0,1,349,46.21Z"/></g><path class="cls-23" d="M344.32,54.75A1.33,1.33,0,0,1,343,53.42V38.81a1.34,1.34,0,0,1,1.33-1.33H349a5.09,5.09,0,0,1,3.74,1.66,5.74,5.74,0,0,1,0,7.74A5.09,5.09,0,0,1,349,48.54H347a.16.16,0,0,1-.16-.17.16.16,0,0,1,.16-.16H349a4.71,4.71,0,0,0,3.49-1.56,5.38,5.38,0,0,0,0-7.28A4.74,4.74,0,0,0,349,37.81h-4.7a1,1,0,0,0-1,1V53.42a1,1,0,1,0,2,0V48.37a.17.17,0,0,1,.17-.16.16.16,0,0,1,.16.16v5.05A1.32,1.32,0,0,1,344.32,54.75Zm4.7-8.54h-3.53a.18.18,0,0,1-.17-.17V40a.18.18,0,0,1,.17-.17.17.17,0,0,1,.16.17v5.9H349a2.45,2.45,0,0,0,1.79-.81,3.08,3.08,0,0,0,0-4.12,2.45,2.45,0,0,0-1.79-.81H347a.16.16,0,0,1-.16-.16.17.17,0,0,1,.16-.17H349a2.77,2.77,0,0,1,2,.92,3.3,3.3,0,0,1,.88,2.28,3.34,3.34,0,0,1-.88,2.29A2.8,2.8,0,0,1,349,46.21Z"/><g class="cls-24"><path class="cls-25" d="M344.32,54.75A1.33,1.33,0,0,1,343,53.42V38.81a1.34,1.34,0,0,1,1.33-1.33H349a5.09,5.09,0,0,1,3.74,1.66,5.74,5.74,0,0,1,0,7.74A5.09,5.09,0,0,1,349,48.54H347a.16.16,0,0,1-.16-.17.16.16,0,0,1,.16-.16H349a4.71,4.71,0,0,0,3.49-1.56,5.38,5.38,0,0,0,0-7.28A4.74,4.74,0,0,0,349,37.81h-4.7a1,1,0,0,0-1,1V53.42a1,1,0,1,0,2,0V48.37a.17.17,0,0,1,.17-.16.16.16,0,0,1,.16.16v5.05A1.32,1.32,0,0,1,344.32,54.75Zm4.7-8.54h-3.53a.18.18,0,0,1-.17-.17V40a.18.18,0,0,1,.17-.17.17.17,0,0,1,.16.17v5.9H349a2.45,2.45,0,0,0,1.79-.81,3.08,3.08,0,0,0,0-4.12,2.45,2.45,0,0,0-1.79-.81H347a.16.16,0,0,1-.16-.16.17.17,0,0,1,.16-.17H349a2.77,2.77,0,0,1,2,.92,3.3,3.3,0,0,1,.88,2.28,3.34,3.34,0,0,1-.88,2.29A2.8,2.8,0,0,1,349,46.21Z"/></g><path class="cls-26" d="M344.32,54.75A1.33,1.33,0,0,1,343,53.42V38.81a1.34,1.34,0,0,1,1.33-1.33H349a5.09,5.09,0,0,1,3.74,1.66,5.74,5.74,0,0,1,0,7.74A5.09,5.09,0,0,1,349,48.54H347a.16.16,0,0,1-.16-.17.16.16,0,0,1,.16-.16H349a4.71,4.71,0,0,0,3.49-1.56,5.38,5.38,0,0,0,0-7.28A4.74,4.74,0,0,0,349,37.81h-4.7a1,1,0,0,0-1,1V53.42a1,1,0,1,0,2,0V48.37a.17.17,0,0,1,.17-.16.16.16,0,0,1,.16.16v5.05A1.32,1.32,0,0,1,344.32,54.75Zm4.7-8.54h-3.53a.18.18,0,0,1-.17-.17V40a.18.18,0,0,1,.17-.17.17.17,0,0,1,.16.17v5.9H349a2.45,2.45,0,0,0,1.79-.81,3.08,3.08,0,0,0,0-4.12,2.45,2.45,0,0,0-1.79-.81H347a.16.16,0,0,1-.16-.16.17.17,0,0,1,.16-.17H349a2.77,2.77,0,0,1,2,.92,3.3,3.3,0,0,1,.88,2.28,3.34,3.34,0,0,1-.88,2.29A2.8,2.8,0,0,1,349,46.21Z"/><path class="cls-27" d="M344.32,54.75A1.33,1.33,0,0,1,343,53.42V38.81a1.34,1.34,0,0,1,1.33-1.33H349a5.09,5.09,0,0,1,3.74,1.66,5.74,5.74,0,0,1,0,7.74A5.09,5.09,0,0,1,349,48.54H347a.16.16,0,0,1-.16-.17.16.16,0,0,1,.16-.16H349a4.71,4.71,0,0,0,3.49-1.56,5.38,5.38,0,0,0,0-7.28A4.74,4.74,0,0,0,349,37.81h-4.7a1,1,0,0,0-1,1V53.42a1,1,0,1,0,2,0V48.37a.17.17,0,0,1,.17-.16.16.16,0,0,1,.16.16v5.05A1.32,1.32,0,0,1,344.32,54.75Zm4.7-8.54h-3.53a.18.18,0,0,1-.17-.17V40a.18.18,0,0,1,.17-.17.17.17,0,0,1,.16.17v5.9H349a2.45,2.45,0,0,0,1.79-.81,3.08,3.08,0,0,0,0-4.12,2.45,2.45,0,0,0-1.79-.81H347a.16.16,0,0,1-.16-.16.17.17,0,0,1,.16-.17H349a2.77,2.77,0,0,1,2,.92,3.3,3.3,0,0,1,.88,2.28,3.34,3.34,0,0,1-.88,2.29A2.8,2.8,0,0,1,349,46.21Z"/><path class="cls-28" d="M344.32,54.75A1.33,1.33,0,0,1,343,53.42V38.81a1.34,1.34,0,0,1,1.33-1.33H349a5.09,5.09,0,0,1,3.74,1.66,5.74,5.74,0,0,1,0,7.74A5.09,5.09,0,0,1,349,48.54H347a.16.16,0,0,1-.16-.17.16.16,0,0,1,.16-.16H349a4.71,4.71,0,0,0,3.49-1.56,5.38,5.38,0,0,0,0-7.28A4.74,4.74,0,0,0,349,37.81h-4.7a1,1,0,0,0-1,1V53.42a1,1,0,1,0,2,0V48.37a.17.17,0,0,1,.17-.16.16.16,0,0,1,.16.16v5.05A1.32,1.32,0,0,1,344.32,54.75Zm4.7-8.54h-3.53a.18.18,0,0,1-.17-.17V40a.18.18,0,0,1,.17-.17.17.17,0,0,1,.16.17v5.9H349a2.45,2.45,0,0,0,1.79-.81,3.08,3.08,0,0,0,0-4.12,2.45,2.45,0,0,0-1.79-.81H347a.16.16,0,0,1-.16-.16.17.17,0,0,1,.16-.17H349a2.77,2.77,0,0,1,2,.92,3.3,3.3,0,0,1,.88,2.28,3.34,3.34,0,0,1-.88,2.29A2.8,2.8,0,0,1,349,46.21Z"/><path class="cls-2" d="M344.32,54.75A1.33,1.33,0,0,1,343,53.42V38.81a1.34,1.34,0,0,1,1.33-1.33H349a5.09,5.09,0,0,1,3.74,1.66,5.74,5.74,0,0,1,0,7.74A5.09,5.09,0,0,1,349,48.54H347a.16.16,0,0,1-.16-.17.16.16,0,0,1,.16-.16H349a4.71,4.71,0,0,0,3.49-1.56,5.38,5.38,0,0,0,0-7.28A4.74,4.74,0,0,0,349,37.81h-4.7a1,1,0,0,0-1,1V53.42a1,1,0,1,0,2,0V48.37a.17.17,0,0,1,.17-.16.16.16,0,0,1,.16.16v5.05A1.32,1.32,0,0,1,344.32,54.75Zm4.7-8.54h-3.53a.18.18,0,0,1-.17-.17V40a.18.18,0,0,1,.17-.17.17.17,0,0,1,.16.17v5.9H349a2.45,2.45,0,0,0,1.79-.81,3.08,3.08,0,0,0,0-4.12,2.45,2.45,0,0,0-1.79-.81H347a.16.16,0,0,1-.16-.16.17.17,0,0,1,.16-.17H349a2.77,2.77,0,0,1,2,.92,3.3,3.3,0,0,1,.88,2.28,3.34,3.34,0,0,1-.88,2.29A2.8,2.8,0,0,1,349,46.21Z"/><g class="cls-17"><path class="cls-18" d="M332,55.71a11.77,11.77,0,0,1-2.93-.35,5.18,5.18,0,0,1-2.29-1.14,1.32,1.32,0,0,1-.07-1.88c.69-.74,1.4-.35,2.09,0a4.55,4.55,0,0,0,.94.41A8.77,8.77,0,0,0,332,53h.25a2.79,2.79,0,0,0,1.65-.77.18.18,0,0,1,.24,0,.17.17,0,0,1,0,.24,3.15,3.15,0,0,1-1.85.86l-.28,0a8.88,8.88,0,0,1-2.34-.28,4.55,4.55,0,0,1-1-.44c-.74-.4-1.21-.61-1.7-.09a1.06,1.06,0,0,0-.27.72A1,1,0,0,0,327,54,5,5,0,0,0,329.14,55a11.66,11.66,0,0,0,2.85.34l.48,0a5.22,5.22,0,0,0,3-1.42,4.67,4.67,0,0,0,1.4-3.89c-.26-2.57-2-3.48-4.49-4.49l-.17-.07c-1-.42-2.45-1-3-2a1.52,1.52,0,0,1-.21-.75.17.17,0,0,1,.34,0,1.22,1.22,0,0,0,.16.59c.52.94,1.88,1.49,2.86,1.89l.17.07c2.06.85,4.4,1.8,4.7,4.77a5.55,5.55,0,0,1,0,.56,4.94,4.94,0,0,1-1.53,3.6,5.5,5.5,0,0,1-3.23,1.51A4.53,4.53,0,0,1,332,55.71Zm2.78-5a.16.16,0,0,1-.16-.16,2.64,2.64,0,0,0,0-.29c-.14-1.4-1.55-2-2.8-2.47l-.25-.11c-1.59-.65-3.38-1.38-4.35-3.13a3.74,3.74,0,0,1,.16-4A4.63,4.63,0,0,1,329,39.08a5.23,5.23,0,0,1,2.57-.66,7.12,7.12,0,0,1,4.17,1.19,1.34,1.34,0,0,1-1.7,2.06,4.68,4.68,0,0,0-2.47-.59,2.64,2.64,0,0,0-1.28.32.17.17,0,0,1-.23-.06.18.18,0,0,1,.07-.23,3,3,0,0,1,1.44-.36,4.94,4.94,0,0,1,2.67.65,1,1,0,0,0,1.41-.13,1,1,0,0,0-.13-1.4,6.67,6.67,0,0,0-3.95-1.12,4.91,4.91,0,0,0-2.41.62,4.32,4.32,0,0,0-1.51,1.36,3.55,3.55,0,0,0-.62,2,3.48,3.48,0,0,0,.47,1.72c.91,1.65,2.57,2.33,4.18,3l.25.1c1.27.51,2.85,1.15,3,2.74a1.83,1.83,0,0,1,0,.33A.16.16,0,0,1,334.77,50.73Z"/></g><g class="cls-19"><path class="cls-20" d="M332.78,54.76a11.77,11.77,0,0,1-2.93-.35,5.32,5.32,0,0,1-2.3-1.13,1.3,1.3,0,0,1-.42-.93,1.34,1.34,0,0,1,.35-1c.69-.74,1.41-.35,2.1,0a5.21,5.21,0,0,0,.94.42,9.23,9.23,0,0,0,2.26.26H333a2.88,2.88,0,0,0,1.66-.77.16.16,0,0,1,.23.23,3.17,3.17,0,0,1-1.85.87h-.28a9.48,9.48,0,0,1-2.35-.27,4.33,4.33,0,0,1-1-.45c-.73-.39-1.2-.61-1.69-.08a1,1,0,0,0-.27.71,1,1,0,0,0,.32.7,5.08,5.08,0,0,0,2.15,1.05,11.66,11.66,0,0,0,2.85.34,3.87,3.87,0,0,0,.48,0,5.21,5.21,0,0,0,3-1.41,4.62,4.62,0,0,0,1.43-3.37,4.84,4.84,0,0,0,0-.53c-.26-2.56-2-3.48-4.49-4.48l-.18-.07c-1-.42-2.44-1-3-2a1.56,1.56,0,0,1-.21-.76.17.17,0,0,1,.17-.16.16.16,0,0,1,.16.16,1.24,1.24,0,0,0,.17.6c.52.94,1.87,1.49,2.86,1.89l.17.07c2.06.84,4.4,1.8,4.7,4.76a5.55,5.55,0,0,1,0,.56,5,5,0,0,1-1.53,3.61,5.55,5.55,0,0,1-3.23,1.5Zm2.78-5a.18.18,0,0,1-.17-.17,2.81,2.81,0,0,0,0-.29c-.14-1.39-1.56-2-2.8-2.47l-.25-.1c-1.59-.65-3.39-1.39-4.35-3.13a3.75,3.75,0,0,1,.16-4,4.79,4.79,0,0,1,1.62-1.47,5.35,5.35,0,0,1,2.58-.66,7,7,0,0,1,4.16,1.2,1.33,1.33,0,0,1-1.69,2,4.77,4.77,0,0,0-2.47-.58,2.64,2.64,0,0,0-1.28.32.18.18,0,0,1-.23-.07.15.15,0,0,1,.06-.22,3,3,0,0,1,1.45-.37,5.05,5.05,0,0,1,2.67.65,1,1,0,1,0,1.28-1.53,6.76,6.76,0,0,0-4-1.12,5,5,0,0,0-2.41.62,4.44,4.44,0,0,0-1.51,1.37,3.49,3.49,0,0,0-.62,2,3.55,3.55,0,0,0,.47,1.73c.91,1.64,2.57,2.32,4.18,3l.25.1c1.27.51,2.85,1.15,3,2.75,0,.11,0,.21,0,.32A.18.18,0,0,1,335.56,49.79Z"/></g><g class="cls-21"><path class="cls-22" d="M332.78,54.76a11.77,11.77,0,0,1-2.93-.35,5.32,5.32,0,0,1-2.3-1.13,1.3,1.3,0,0,1-.42-.93,1.34,1.34,0,0,1,.35-1c.69-.74,1.41-.35,2.1,0a5.21,5.21,0,0,0,.94.42,9.23,9.23,0,0,0,2.26.26H333a2.88,2.88,0,0,0,1.66-.77.16.16,0,0,1,.23.23,3.17,3.17,0,0,1-1.85.87h-.28a9.48,9.48,0,0,1-2.35-.27,4.33,4.33,0,0,1-1-.45c-.73-.39-1.2-.61-1.69-.08a1,1,0,0,0-.27.71,1,1,0,0,0,.32.7,5.08,5.08,0,0,0,2.15,1.05,11.66,11.66,0,0,0,2.85.34,3.87,3.87,0,0,0,.48,0,5.21,5.21,0,0,0,3-1.41,4.62,4.62,0,0,0,1.43-3.37,4.84,4.84,0,0,0,0-.53c-.26-2.56-2-3.48-4.49-4.48l-.18-.07c-1-.42-2.44-1-3-2a1.56,1.56,0,0,1-.21-.76.17.17,0,0,1,.17-.16.16.16,0,0,1,.16.16,1.24,1.24,0,0,0,.17.6c.52.94,1.87,1.49,2.86,1.89l.17.07c2.06.84,4.4,1.8,4.7,4.76a5.55,5.55,0,0,1,0,.56,5,5,0,0,1-1.53,3.61,5.55,5.55,0,0,1-3.23,1.5Zm2.78-5a.18.18,0,0,1-.17-.17,2.81,2.81,0,0,0,0-.29c-.14-1.39-1.56-2-2.8-2.47l-.25-.1c-1.59-.65-3.39-1.39-4.35-3.13a3.75,3.75,0,0,1,.16-4,4.79,4.79,0,0,1,1.62-1.47,5.35,5.35,0,0,1,2.58-.66,7,7,0,0,1,4.16,1.2,1.33,1.33,0,0,1-1.69,2,4.77,4.77,0,0,0-2.47-.58,2.64,2.64,0,0,0-1.28.32.18.18,0,0,1-.23-.07.15.15,0,0,1,.06-.22,3,3,0,0,1,1.45-.37,5.05,5.05,0,0,1,2.67.65,1,1,0,1,0,1.28-1.53,6.76,6.76,0,0,0-4-1.12,5,5,0,0,0-2.41.62,4.44,4.44,0,0,0-1.51,1.37,3.49,3.49,0,0,0-.62,2,3.55,3.55,0,0,0,.47,1.73c.91,1.64,2.57,2.32,4.18,3l.25.1c1.27.51,2.85,1.15,3,2.75,0,.11,0,.21,0,.32A.18.18,0,0,1,335.56,49.79Z"/></g><path class="cls-23" d="M332.78,54.76a11.77,11.77,0,0,1-2.93-.35,5.32,5.32,0,0,1-2.3-1.13,1.3,1.3,0,0,1-.42-.93,1.34,1.34,0,0,1,.35-1c.69-.74,1.41-.35,2.1,0a5.21,5.21,0,0,0,.94.42,9.23,9.23,0,0,0,2.26.26H333a2.88,2.88,0,0,0,1.66-.77.16.16,0,0,1,.23.23,3.17,3.17,0,0,1-1.85.87h-.28a9.48,9.48,0,0,1-2.35-.27,4.33,4.33,0,0,1-1-.45c-.73-.39-1.2-.61-1.69-.08a1,1,0,0,0-.27.71,1,1,0,0,0,.32.7,5.08,5.08,0,0,0,2.15,1.05,11.66,11.66,0,0,0,2.85.34,3.87,3.87,0,0,0,.48,0,5.21,5.21,0,0,0,3-1.41,4.62,4.62,0,0,0,1.43-3.37,4.84,4.84,0,0,0,0-.53c-.26-2.56-2-3.48-4.49-4.48l-.18-.07c-1-.42-2.44-1-3-2a1.56,1.56,0,0,1-.21-.76.17.17,0,0,1,.17-.16.16.16,0,0,1,.16.16,1.24,1.24,0,0,0,.17.6c.52.94,1.87,1.49,2.86,1.89l.17.07c2.06.84,4.4,1.8,4.7,4.76a5.55,5.55,0,0,1,0,.56,5,5,0,0,1-1.53,3.61,5.55,5.55,0,0,1-3.23,1.5Zm2.78-5a.18.18,0,0,1-.17-.17,2.81,2.81,0,0,0,0-.29c-.14-1.39-1.56-2-2.8-2.47l-.25-.1c-1.59-.65-3.39-1.39-4.35-3.13a3.75,3.75,0,0,1,.16-4,4.79,4.79,0,0,1,1.62-1.47,5.35,5.35,0,0,1,2.58-.66,7,7,0,0,1,4.16,1.2,1.33,1.33,0,0,1-1.69,2,4.77,4.77,0,0,0-2.47-.58,2.64,2.64,0,0,0-1.28.32.18.18,0,0,1-.23-.07.15.15,0,0,1,.06-.22,3,3,0,0,1,1.45-.37,5.05,5.05,0,0,1,2.67.65,1,1,0,1,0,1.28-1.53,6.76,6.76,0,0,0-4-1.12,5,5,0,0,0-2.41.62,4.44,4.44,0,0,0-1.51,1.37,3.49,3.49,0,0,0-.62,2,3.55,3.55,0,0,0,.47,1.73c.91,1.64,2.57,2.32,4.18,3l.25.1c1.27.51,2.85,1.15,3,2.75,0,.11,0,.21,0,.32A.18.18,0,0,1,335.56,49.79Z"/><g class="cls-24"><path class="cls-25" d="M332.78,54.76a11.77,11.77,0,0,1-2.93-.35,5.32,5.32,0,0,1-2.3-1.13,1.3,1.3,0,0,1-.42-.93,1.34,1.34,0,0,1,.35-1c.69-.74,1.41-.35,2.1,0a5.21,5.21,0,0,0,.94.42,9.23,9.23,0,0,0,2.26.26H333a2.88,2.88,0,0,0,1.66-.77.16.16,0,0,1,.23.23,3.17,3.17,0,0,1-1.85.87h-.28a9.48,9.48,0,0,1-2.35-.27,4.33,4.33,0,0,1-1-.45c-.73-.39-1.2-.61-1.69-.08a1,1,0,0,0-.27.71,1,1,0,0,0,.32.7,5.08,5.08,0,0,0,2.15,1.05,11.66,11.66,0,0,0,2.85.34,3.87,3.87,0,0,0,.48,0,5.21,5.21,0,0,0,3-1.41,4.62,4.62,0,0,0,1.43-3.37,4.84,4.84,0,0,0,0-.53c-.26-2.56-2-3.48-4.49-4.48l-.18-.07c-1-.42-2.44-1-3-2a1.56,1.56,0,0,1-.21-.76.17.17,0,0,1,.17-.16.16.16,0,0,1,.16.16,1.24,1.24,0,0,0,.17.6c.52.94,1.87,1.49,2.86,1.89l.17.07c2.06.84,4.4,1.8,4.7,4.76a5.55,5.55,0,0,1,0,.56,5,5,0,0,1-1.53,3.61,5.55,5.55,0,0,1-3.23,1.5Zm2.78-5a.18.18,0,0,1-.17-.17,2.81,2.81,0,0,0,0-.29c-.14-1.39-1.56-2-2.8-2.47l-.25-.1c-1.59-.65-3.39-1.39-4.35-3.13a3.75,3.75,0,0,1,.16-4,4.79,4.79,0,0,1,1.62-1.47,5.35,5.35,0,0,1,2.58-.66,7,7,0,0,1,4.16,1.2,1.33,1.33,0,0,1-1.69,2,4.77,4.77,0,0,0-2.47-.58,2.64,2.64,0,0,0-1.28.32.18.18,0,0,1-.23-.07.15.15,0,0,1,.06-.22,3,3,0,0,1,1.45-.37,5.05,5.05,0,0,1,2.67.65,1,1,0,1,0,1.28-1.53,6.76,6.76,0,0,0-4-1.12,5,5,0,0,0-2.41.62,4.44,4.44,0,0,0-1.51,1.37,3.49,3.49,0,0,0-.62,2,3.55,3.55,0,0,0,.47,1.73c.91,1.64,2.57,2.32,4.18,3l.25.1c1.27.51,2.85,1.15,3,2.75,0,.11,0,.21,0,.32A.18.18,0,0,1,335.56,49.79Z"/></g><path class="cls-26" d="M332.78,54.76a11.77,11.77,0,0,1-2.93-.35,5.32,5.32,0,0,1-2.3-1.13,1.3,1.3,0,0,1-.42-.93,1.34,1.34,0,0,1,.35-1c.69-.74,1.41-.35,2.1,0a5.21,5.21,0,0,0,.94.42,9.23,9.23,0,0,0,2.26.26H333a2.88,2.88,0,0,0,1.66-.77.16.16,0,0,1,.23.23,3.17,3.17,0,0,1-1.85.87h-.28a9.48,9.48,0,0,1-2.35-.27,4.33,4.33,0,0,1-1-.45c-.73-.39-1.2-.61-1.69-.08a1,1,0,0,0-.27.71,1,1,0,0,0,.32.7,5.08,5.08,0,0,0,2.15,1.05,11.66,11.66,0,0,0,2.85.34,3.87,3.87,0,0,0,.48,0,5.21,5.21,0,0,0,3-1.41,4.62,4.62,0,0,0,1.43-3.37,4.84,4.84,0,0,0,0-.53c-.26-2.56-2-3.48-4.49-4.48l-.18-.07c-1-.42-2.44-1-3-2a1.56,1.56,0,0,1-.21-.76.17.17,0,0,1,.17-.16.16.16,0,0,1,.16.16,1.24,1.24,0,0,0,.17.6c.52.94,1.87,1.49,2.86,1.89l.17.07c2.06.84,4.4,1.8,4.7,4.76a5.55,5.55,0,0,1,0,.56,5,5,0,0,1-1.53,3.61,5.55,5.55,0,0,1-3.23,1.5Zm2.78-5a.18.18,0,0,1-.17-.17,2.81,2.81,0,0,0,0-.29c-.14-1.39-1.56-2-2.8-2.47l-.25-.1c-1.59-.65-3.39-1.39-4.35-3.13a3.75,3.75,0,0,1,.16-4,4.79,4.79,0,0,1,1.62-1.47,5.35,5.35,0,0,1,2.58-.66,7,7,0,0,1,4.16,1.2,1.33,1.33,0,0,1-1.69,2,4.77,4.77,0,0,0-2.47-.58,2.64,2.64,0,0,0-1.28.32.18.18,0,0,1-.23-.07.15.15,0,0,1,.06-.22,3,3,0,0,1,1.45-.37,5.05,5.05,0,0,1,2.67.65,1,1,0,1,0,1.28-1.53,6.76,6.76,0,0,0-4-1.12,5,5,0,0,0-2.41.62,4.44,4.44,0,0,0-1.51,1.37,3.49,3.49,0,0,0-.62,2,3.55,3.55,0,0,0,.47,1.73c.91,1.64,2.57,2.32,4.18,3l.25.1c1.27.51,2.85,1.15,3,2.75,0,.11,0,.21,0,.32A.18.18,0,0,1,335.56,49.79Z"/><path class="cls-27" d="M332.78,54.76a11.77,11.77,0,0,1-2.93-.35,5.32,5.32,0,0,1-2.3-1.13,1.3,1.3,0,0,1-.42-.93,1.34,1.34,0,0,1,.35-1c.69-.74,1.41-.35,2.1,0a5.21,5.21,0,0,0,.94.42,9.23,9.23,0,0,0,2.26.26H333a2.88,2.88,0,0,0,1.66-.77.16.16,0,0,1,.23.23,3.17,3.17,0,0,1-1.85.87h-.28a9.48,9.48,0,0,1-2.35-.27,4.33,4.33,0,0,1-1-.45c-.73-.39-1.2-.61-1.69-.08a1,1,0,0,0-.27.71,1,1,0,0,0,.32.7,5.08,5.08,0,0,0,2.15,1.05,11.66,11.66,0,0,0,2.85.34,3.87,3.87,0,0,0,.48,0,5.21,5.21,0,0,0,3-1.41,4.62,4.62,0,0,0,1.43-3.37,4.84,4.84,0,0,0,0-.53c-.26-2.56-2-3.48-4.49-4.48l-.18-.07c-1-.42-2.44-1-3-2a1.56,1.56,0,0,1-.21-.76.17.17,0,0,1,.17-.16.16.16,0,0,1,.16.16,1.24,1.24,0,0,0,.17.6c.52.94,1.87,1.49,2.86,1.89l.17.07c2.06.84,4.4,1.8,4.7,4.76a5.55,5.55,0,0,1,0,.56,5,5,0,0,1-1.53,3.61,5.55,5.55,0,0,1-3.23,1.5Zm2.78-5a.18.18,0,0,1-.17-.17,2.81,2.81,0,0,0,0-.29c-.14-1.39-1.56-2-2.8-2.47l-.25-.1c-1.59-.65-3.39-1.39-4.35-3.13a3.75,3.75,0,0,1,.16-4,4.79,4.79,0,0,1,1.62-1.47,5.35,5.35,0,0,1,2.58-.66,7,7,0,0,1,4.16,1.2,1.33,1.33,0,0,1-1.69,2,4.77,4.77,0,0,0-2.47-.58,2.64,2.64,0,0,0-1.28.32.18.18,0,0,1-.23-.07.15.15,0,0,1,.06-.22,3,3,0,0,1,1.45-.37,5.05,5.05,0,0,1,2.67.65,1,1,0,1,0,1.28-1.53,6.76,6.76,0,0,0-4-1.12,5,5,0,0,0-2.41.62,4.44,4.44,0,0,0-1.51,1.37,3.49,3.49,0,0,0-.62,2,3.55,3.55,0,0,0,.47,1.73c.91,1.64,2.57,2.32,4.18,3l.25.1c1.27.51,2.85,1.15,3,2.75,0,.11,0,.21,0,.32A.18.18,0,0,1,335.56,49.79Z"/><path class="cls-28" d="M332.78,54.76a11.77,11.77,0,0,1-2.93-.35,5.32,5.32,0,0,1-2.3-1.13,1.3,1.3,0,0,1-.42-.93,1.34,1.34,0,0,1,.35-1c.69-.74,1.41-.35,2.1,0a5.21,5.21,0,0,0,.94.42,9.23,9.23,0,0,0,2.26.26H333a2.88,2.88,0,0,0,1.66-.77.16.16,0,0,1,.23.23,3.17,3.17,0,0,1-1.85.87h-.28a9.48,9.48,0,0,1-2.35-.27,4.33,4.33,0,0,1-1-.45c-.73-.39-1.2-.61-1.69-.08a1,1,0,0,0-.27.71,1,1,0,0,0,.32.7,5.08,5.08,0,0,0,2.15,1.05,11.66,11.66,0,0,0,2.85.34,3.87,3.87,0,0,0,.48,0,5.21,5.21,0,0,0,3-1.41,4.62,4.62,0,0,0,1.43-3.37,4.84,4.84,0,0,0,0-.53c-.26-2.56-2-3.48-4.49-4.48l-.18-.07c-1-.42-2.44-1-3-2a1.56,1.56,0,0,1-.21-.76.17.17,0,0,1,.17-.16.16.16,0,0,1,.16.16,1.24,1.24,0,0,0,.17.6c.52.94,1.87,1.49,2.86,1.89l.17.07c2.06.84,4.4,1.8,4.7,4.76a5.55,5.55,0,0,1,0,.56,5,5,0,0,1-1.53,3.61,5.55,5.55,0,0,1-3.23,1.5Zm2.78-5a.18.18,0,0,1-.17-.17,2.81,2.81,0,0,0,0-.29c-.14-1.39-1.56-2-2.8-2.47l-.25-.1c-1.59-.65-3.39-1.39-4.35-3.13a3.75,3.75,0,0,1,.16-4,4.79,4.79,0,0,1,1.62-1.47,5.35,5.35,0,0,1,2.58-.66,7,7,0,0,1,4.16,1.2,1.33,1.33,0,0,1-1.69,2,4.77,4.77,0,0,0-2.47-.58,2.64,2.64,0,0,0-1.28.32.18.18,0,0,1-.23-.07.15.15,0,0,1,.06-.22,3,3,0,0,1,1.45-.37,5.05,5.05,0,0,1,2.67.65,1,1,0,1,0,1.28-1.53,6.76,6.76,0,0,0-4-1.12,5,5,0,0,0-2.41.62,4.44,4.44,0,0,0-1.51,1.37,3.49,3.49,0,0,0-.62,2,3.55,3.55,0,0,0,.47,1.73c.91,1.64,2.57,2.32,4.18,3l.25.1c1.27.51,2.85,1.15,3,2.75,0,.11,0,.21,0,.32A.18.18,0,0,1,335.56,49.79Z"/><path class="cls-2" d="M332.78,54.76a11.77,11.77,0,0,1-2.93-.35,5.32,5.32,0,0,1-2.3-1.13,1.3,1.3,0,0,1-.42-.93,1.34,1.34,0,0,1,.35-1c.69-.74,1.41-.35,2.1,0a5.21,5.21,0,0,0,.94.42,9.23,9.23,0,0,0,2.26.26H333a2.88,2.88,0,0,0,1.66-.77.16.16,0,0,1,.23.23,3.17,3.17,0,0,1-1.85.87h-.28a9.48,9.48,0,0,1-2.35-.27,4.33,4.33,0,0,1-1-.45c-.73-.39-1.2-.61-1.69-.08a1,1,0,0,0-.27.71,1,1,0,0,0,.32.7,5.08,5.08,0,0,0,2.15,1.05,11.66,11.66,0,0,0,2.85.34,3.87,3.87,0,0,0,.48,0,5.21,5.21,0,0,0,3-1.41,4.62,4.62,0,0,0,1.43-3.37,4.84,4.84,0,0,0,0-.53c-.26-2.56-2-3.48-4.49-4.48l-.18-.07c-1-.42-2.44-1-3-2a1.56,1.56,0,0,1-.21-.76.17.17,0,0,1,.17-.16.16.16,0,0,1,.16.16,1.24,1.24,0,0,0,.17.6c.52.94,1.87,1.49,2.86,1.89l.17.07c2.06.84,4.4,1.8,4.7,4.76a5.55,5.55,0,0,1,0,.56,5,5,0,0,1-1.53,3.61,5.55,5.55,0,0,1-3.23,1.5Zm2.78-5a.18.18,0,0,1-.17-.17,2.81,2.81,0,0,0,0-.29c-.14-1.39-1.56-2-2.8-2.47l-.25-.1c-1.59-.65-3.39-1.39-4.35-3.13a3.75,3.75,0,0,1,.16-4,4.79,4.79,0,0,1,1.62-1.47,5.35,5.35,0,0,1,2.58-.66,7,7,0,0,1,4.16,1.2,1.33,1.33,0,0,1-1.69,2,4.77,4.77,0,0,0-2.47-.58,2.64,2.64,0,0,0-1.28.32.18.18,0,0,1-.23-.07.15.15,0,0,1,.06-.22,3,3,0,0,1,1.45-.37,5.05,5.05,0,0,1,2.67.65,1,1,0,1,0,1.28-1.53,6.76,6.76,0,0,0-4-1.12,5,5,0,0,0-2.41.62,4.44,4.44,0,0,0-1.51,1.37,3.49,3.49,0,0,0-.62,2,3.55,3.55,0,0,0,.47,1.73c.91,1.64,2.57,2.32,4.18,3l.25.1c1.27.51,2.85,1.15,3,2.75,0,.11,0,.21,0,.32A.18.18,0,0,1,335.56,49.79Z"/><rect class="cls-6" x="98.08" y="41.19" width="105.25" height="161.68"/><polygon class="cls-4" points="203.33 41.19 229.22 67.56 229.22 202.87 203.33 202.87 203.33 41.19"/><polygon class="cls-29" points="203.33 41.19 229.22 67.56 229.22 202.87 203.33 202.87 203.33 41.19"/><path class="cls-4" d="M160.21,201.56h15.41V49.79H160.21Zm19.15,0h9V49.79h-9Zm-56.8,0H138V49.79H122.56Zm19.16,0h9V49.79h-9Zm-31.65,0h9V49.79h-9Z"/><path class="cls-7" d="M181.74,64.15h6.62V54.61h-6.62Zm-18.83-9.54h12.71v9.54H162.91Zm-18.82,0h6.62v9.54h-6.62Zm-31.65,0h6.62v9.54h-6.62Zm12.83,0H138v9.54H125.27ZM181.74,72.4h6.62v9.54h-6.62Zm-18.83,0h12.71v9.54H162.91Zm-18.82,0h6.62v9.54h-6.62Zm-31.65,0h6.62v9.54h-6.62Zm12.83,0H138v9.54H125.27Zm56.47,17.79h6.62v9.54h-6.62Zm-18.83,0h12.71v9.54H162.91Zm-18.82,0h6.62v9.54h-6.62Zm-31.65,0h6.62v9.54h-6.62Zm12.83,0H138v9.54H125.27ZM181.74,108h6.62v9.55h-6.62Zm-18.83,0h12.71v9.55H162.91Zm-18.82,0h6.62v9.55h-6.62Zm-31.65,0h6.62v9.55h-6.62Zm12.83,0H138v9.55H125.27Zm56.47,17.79h6.62v9.55h-6.62Zm-18.83,0h12.71v9.55H162.91Zm-18.82,0h6.62v9.55h-6.62Zm-31.65,0h6.62v9.55h-6.62Zm12.83,0H138v9.55H125.27Zm56.47,17.79h6.62v9.55h-6.62Zm-18.83,0h12.71v9.55H162.91Zm-18.82,0h6.62v9.55h-6.62Zm-31.65,0h6.62v9.55h-6.62Zm12.83,0H138v9.55H125.27Zm56.47,17.79h6.62v9.55h-6.62Zm-18.83,0h12.71v9.55H162.91Zm-18.82,0h6.62v9.55h-6.62Zm-31.65,0h6.62v9.55h-6.62Zm12.83,0H138v9.55H125.27Zm56.47,17.79h6.62v9.54h-6.62Zm-18.83,0h12.71v9.54H162.91Zm-18.82,0h6.62v9.54h-6.62Zm-31.65,0h6.62v9.54h-6.62Zm12.83,0H138v9.54H125.27Z"/><rect class="cls-6" x="203.01" y="71.87" width="74.94" height="125.92"/><path class="cls-7" d="M264.23,182.66v15.13h-9.68V182.66Zm-12.42,0h-9.68v15.13h9.68V182.66Zm-12.42,0h-9.67v15.13h9.67V182.66Zm-12.41,0H217.3v15.13H227V182.66Zm37.25-16.41h-9.68v9.32h9.68v-9.32Zm-12.42,0h-9.68v9.32h9.68v-9.32Zm-12.42,0h-9.67v9.32h9.67v-9.32Zm-12.41,0H217.3v9.32H227v-9.32Zm37.25-16.41h-9.68v9.31h9.68v-9.31Zm-12.42,0h-9.68v9.31h9.68v-9.31Zm-12.42,0h-9.67v9.31h9.67v-9.31Zm-12.41,0H217.3v9.31H227v-9.31Zm37.25-16.41h-9.68v9.31h9.68v-9.31Zm-12.42,0h-9.68v9.31h9.68v-9.31Zm-12.42,0h-9.67v9.31h9.67v-9.31Zm-12.41,0H217.3v9.31H227v-9.31ZM264.23,117h-9.68v9.31h9.68V117Zm-12.42,0h-9.68v9.31h9.68V117Zm-12.42,0h-9.67v9.31h9.67V117ZM227,117H217.3v9.31H227V117Zm37.25-16.42h-9.68v9.32h9.68V100.6Zm-12.42,0h-9.68v9.32h9.68V100.6Zm-12.42,0h-9.67v9.32h9.67V100.6Zm-12.41,0H217.3v9.32H227V100.6Zm37.25-16.41h-9.68v9.32h9.68V84.19Zm-12.42,0h-9.68v9.32h9.68V84.19Zm-12.42,0h-9.67v9.32h9.67V84.19Zm-12.41,0H217.3v9.32H227V84.19Z"/><path class="cls-30" d="M256,175.57h8.19V168H256ZM243.62,168h8.19v7.57h-8.19Zm-12.42,0h8.19v7.57H231.2Zm-12.41,0H227v7.57h-8.19ZM256,151.59h8.19v7.56H256Zm-12.42,0h8.19v7.56h-8.19Zm-12.42,0h8.19v7.56H231.2Zm-12.41,0H227v7.56h-8.19ZM256,135.18h8.19v7.56H256Zm-12.42,0h8.19v7.56h-8.19Zm-12.42,0h8.19v7.56H231.2Zm-12.41,0H227v7.56h-8.19ZM256,118.77h8.19v7.56H256Zm-12.42,0h8.19v7.56h-8.19Zm-12.42,0h8.19v7.56H231.2Zm-12.41,0H227v7.56h-8.19ZM256,102.35h8.19v7.57H256Zm-12.42,0h8.19v7.57h-8.19Zm-12.42,0h8.19v7.57H231.2Zm-12.41,0H227v7.57h-8.19ZM256,85.94h8.19v7.57H256Zm-12.42,0h8.19v7.57h-8.19Zm-12.42,0h8.19v7.57H231.2Zm-12.41,0H227v7.57h-8.19ZM256,197.79h8.19V184.41H256Zm-12.42-13.38h8.19v13.38h-8.19Zm-12.42,0h8.19v13.38H231.2Zm-12.41,0H227v13.38h-8.19Z"/><path class="cls-31" d="M256,175.57h8.19V168H256ZM243.62,168h8.19v7.57h-8.19Zm-12.42,0h8.19v7.57H231.2Zm-12.41,0H227v7.57h-8.19ZM256,151.59h8.19v7.56H256Zm-12.42,0h8.19v7.56h-8.19Zm-12.42,0h8.19v7.56H231.2Zm-12.41,0H227v7.56h-8.19ZM256,135.18h8.19v7.56H256Zm-12.42,0h8.19v7.56h-8.19Zm-12.42,0h8.19v7.56H231.2Zm-12.41,0H227v7.56h-8.19ZM256,118.77h8.19v7.56H256Zm-12.42,0h8.19v7.56h-8.19Zm-12.42,0h8.19v7.56H231.2Zm-12.41,0H227v7.56h-8.19ZM256,102.35h8.19v7.57H256Zm-12.42,0h8.19v7.57h-8.19Zm-12.42,0h8.19v7.57H231.2Zm-12.41,0H227v7.57h-8.19ZM256,85.94h8.19v7.57H256Zm-12.42,0h8.19v7.57h-8.19Zm-12.42,0h8.19v7.57H231.2Zm-12.41,0H227v7.57h-8.19ZM256,197.79h8.19V184.41H256Zm-12.42-13.38h8.19v13.38h-8.19Zm-12.42,0h8.19v13.38H231.2Zm-12.41,0H227v13.38h-8.19Z"/></g></g><g id="Layer_15" data-name="Layer 15"><ellipse class="cls-32" cx="164.3" cy="238.85" rx="97.86" ry="5.28"/><path class="cls-33" d="M248.25,12.74a3.28,3.28,0,0,0-.27-1,3.07,3.07,0,0,0-.54-.82,3,3,0,0,0-.95-.71,3.18,3.18,0,0,0-2.76-.05l-15.8,7.15a25.66,25.66,0,0,0-12.38,12.16l-84,174.63-15.78-7.59h0L52.81,166.27a4.11,4.11,0,0,0-3.09-.19,4.24,4.24,0,0,0-1.25.69l-.17.14a4,4,0,0,0-.9,1.17.37.37,0,0,0,0,.11l-.05.1a4.11,4.11,0,0,0-.35,1.43v.22a4,4,0,0,0,.24,1.41,4.08,4.08,0,0,0,2.07,2.3l63,30.29-.46.95,27.43,13.2.46-1,32.25,15.51,3.55-7.37-32.25-15.52h0l-5.88-2.83L203.84,68.65l.28.14h0a45.51,45.51,0,0,0-3.53,12.31L187,178.75,181.41,219l6.34.88,5.47-39.26L206.93,82a39,39,0,0,1,3-10.42l.35.16,14.66-30.47-6.41-3.09,2.83-5.88a19.23,19.23,0,0,1,9.27-9.12L246.41,16a3.2,3.2,0,0,0,1.76-2.12A3.08,3.08,0,0,0,248.25,12.74Z"/><path class="cls-34" d="M228.42,18.43l18.07-8.18a3,3,0,0,1,.95.71,3.07,3.07,0,0,1,.54.82,3.28,3.28,0,0,1,.27,1,3.08,3.08,0,0,1-.08,1.17l-18.06,8.18a20.45,20.45,0,0,0-9.85,9.68l-84,174.61-3.63-1.75L216.63,30A24.45,24.45,0,0,1,228.42,18.43ZM47.35,168.19l-.05.1a4.11,4.11,0,0,0-.35,1.43v.22a4,4,0,0,0,.24,1.41L172.4,231.58l2.53-5.26L49.72,166.08a4.24,4.24,0,0,0-1.25.69l-.17.14a4,4,0,0,0-.9,1.17A.37.37,0,0,0,47.35,168.19Zm139.39,50.3,19-136.67a40.62,40.62,0,0,1,3.61-11.94l14.12-29.35-3.63-1.74L211.6,55.94c-6.09,12.65-6.15,12.78-6.34,13.21l0,.12a44.59,44.59,0,0,0-3.45,12l-19,136.67Z"/><path class="cls-35" d="M47.35,168.19l-.05.1a4.11,4.11,0,0,0-.35,1.43l126,60.64,1.35-2.81-126-60.64a4,4,0,0,0-.9,1.17A.37.37,0,0,0,47.35,168.19ZM228.86,19.37,247.44,11a3.07,3.07,0,0,1,.54.82,3.28,3.28,0,0,1,.27,1l-18.58,8.41a21.44,21.44,0,0,0-10.35,10.17L135.31,206l-1.76-.84,84-174.69A23.45,23.45,0,0,1,228.86,19.37ZM186.11,217.65,205,81.72a41.41,41.41,0,0,1,3.67-12.16L223,40.3l-2.44-1.17-8.29,17.13c-6,12.52-6.14,12.77-6.33,13.19l-.05.12a43.9,43.9,0,0,0-3.39,11.8L183.59,217.3Z"/><path class="cls-36" d="M131.54,204.14l3.11-6.47,5.78,2.78-3.12,6.47Zm8.1,13,6.14,3,3.55-7.38-6.14-2.95Zm-32.76-15.77,5.33,2.57,3.55-7.38L110.43,194Zm46.94,13.76q.18.76.42,1.5c.19.62.41,1.23.64,1.82a27.73,27.73,0,0,0,2.28,4.56,26.69,26.69,0,0,0,1.56,2.26,28,28,0,0,0,1.87,2.21l11.12,5.35,3.55-7.38ZM185,193.84l-5.59,40.21,6.35.88,5.46-39.27q-.57-.24-1.14-.45l-.71-.26c-.82-.28-1.64-.52-2.47-.72l-.73-.16Zm19.09-125c-.14.31-.27.62-.4.94l5.77,2.78c.14-.32.27-.63.41-.94Z"/><circle class="cls-33" cx="182.55" cy="223.18" r="17.04" transform="translate(-62.25 70.84) rotate(-18.83)"/><path class="cls-37" d="M172.92,218.55a10.68,10.68,0,1,0,14.26-5A10.67,10.67,0,0,0,172.92,218.55Z"/><path class="cls-2" d="M175.33,219.7A8,8,0,1,0,186,216,8,8,0,0,0,175.33,219.7Z"/><rect class="cls-38" x="72.42" y="110.1" width="72.08" height="85.9" transform="translate(-76.48 184.43) rotate(-64.31)"/><polygon class="cls-39" points="85.55 102.25 131.3 204.03 162.47 139.25 85.55 102.25"/><rect class="cls-23" x="113.04" y="120.41" width="15.46" height="14.89" transform="translate(-46.8 181.26) rotate(-64.31)"/><polygon class="cls-38" points="120.9 119.06 162.79 139.18 182.12 99.15 140.22 79.03 120.9 119.06"/><polygon class="cls-39" points="140.33 79.15 162.67 139.12 181.96 99.15 140.33 79.15"/><polygon class="cls-23" points="154.5 93.86 161.76 97.34 164.84 90.96 157.58 87.47 154.5 93.86"/><rect class="cls-38" x="157.8" y="60.76" width="29.09" height="35.36" transform="translate(26.94 199.74) rotate(-64.31)"/><polygon class="cls-39" points="162.79 57.79 181.88 99.17 194.45 73.03 162.79 57.79"/><path class="cls-23" d="M175.91,64.14l5.52,2.65-2.68,5.58-5.52-2.66Z"/><rect class="cls-38" x="170.42" y="34.54" width="29.09" height="35.36" transform="translate(57.72 196.26) rotate(-64.31)"/><polygon class="cls-39" points="175.41 31.57 194.5 72.95 207.08 46.81 175.41 31.57"/><rect class="cls-23" x="186.55" y="39.16" width="6.62" height="6.13" transform="translate(69.49 195.01) rotate(-64.31)"/><rect class="cls-38" x="143.41" y="26.82" width="23.34" height="28.38" transform="translate(50.89 162.98) rotate(-64.31)"/><polygon class="cls-39" points="147.41 24.44 162.73 57.64 172.82 36.66 147.41 24.44"/><rect class="cls-23" x="157.17" y="30.01" width="4.16" height="4.92" transform="translate(60.95 161.9) rotate(-64.31)"/><rect class="cls-38" x="122.16" y="39.29" width="29.09" height="43.95" transform="translate(22.23 157.89) rotate(-64.31)"/><polygon class="cls-39" points="123.28 38.75 150.1 83.85 162.68 57.71 123.28 38.75"/><polygon class="cls-23" points="135.52 51.66 145.08 56.26 147.81 50.59 138.25 45.98 135.52 51.66"/><polygon class="cls-38" points="79 98.93 120.89 119.05 140.22 79.02 98.32 58.9 79 98.93"/><polygon class="cls-39" points="98.43 59.02 120.77 118.99 140.06 79.02 98.43 59.02"/><polygon class="cls-23" points="112.6 73.73 119.86 77.21 122.94 70.83 115.68 67.34 112.6 73.73"/><path class="cls-2" d="M127.24,152.12l-.16-.08a14.93,14.93,0,0,0-8.44-13A14.62,14.62,0,0,0,109.1,138a10.94,10.94,0,0,0-4-3.29,11.29,11.29,0,0,0-15,5.44,11.92,11.92,0,0,0-.71,1.94A9.79,9.79,0,0,0,82,160.14l31.36,15a10.51,10.51,0,0,0,1.16.48,11.2,11.2,0,0,0,1.13.62,13.38,13.38,0,0,0,11.55-24.13Z"/><path class="cls-40" d="M133.24,158a13.53,13.53,0,0,1-1.3,6.71,13.28,13.28,0,0,1-17.64,6.39,12.86,12.86,0,0,1-4.24-3.26,15.34,15.34,0,0,0,15.59-21.73,15.34,15.34,0,0,1-1.52,6.61A15.1,15.1,0,0,1,104.05,160a14.74,14.74,0,0,1-6.89-6.86,6.12,6.12,0,0,0,4-8.14,5.82,5.82,0,0,1-.56,3.12c-1.4,2.93-4.86,4.44-9,2.44A5.88,5.88,0,0,1,90,149.5,5.86,5.86,0,0,0,93,152.78a9.7,9.7,0,0,1-12.41,3.74,9.38,9.38,0,0,1-3.8-3.29A9.58,9.58,0,0,0,82,160.14l33.65,16.11a13.27,13.27,0,0,0,17.64-6.39A13.43,13.43,0,0,0,133.24,158Z"/><path class="cls-2" d="M120.08,88.86l-.09,0a8.08,8.08,0,0,0-4.56-7,7.94,7.94,0,0,0-5.16-.58,5.92,5.92,0,0,0-2.15-1.77A6.09,6.09,0,0,0,100,82.38a7.38,7.38,0,0,0-.38,1.05,5.29,5.29,0,0,0-4,9.77l17,8.12c.21.1.42.18.63.26s.4.23.61.33a7.24,7.24,0,0,0,6.25-13Z"/><path class="cls-40" d="M123.32,92.05a7.26,7.26,0,0,1-10.24,7.08,6.81,6.81,0,0,1-2.29-1.76,8.21,8.21,0,0,0,8.38-4.65,8.29,8.29,0,0,0,0-7.1,8.36,8.36,0,0,1-.83,3.58,8.16,8.16,0,0,1-10.85,3.93,8,8,0,0,1-3.73-3.7A3.32,3.32,0,0,0,106,85a3.26,3.26,0,0,1-.3,1.69c-.76,1.58-2.63,2.4-4.88,1.32a3.14,3.14,0,0,1-.84-.58,3.17,3.17,0,0,0,1.59,1.77,5.18,5.18,0,0,1-8.76.25,5.17,5.17,0,0,0,2.85,3.73l18.19,8.71a7.18,7.18,0,0,0,9.54-3.45A7.28,7.28,0,0,0,123.32,92.05Z"/><path class="cls-2" d="M144.28,61.74l-.07,0a6.23,6.23,0,0,0-3.51-5.42,6.16,6.16,0,0,0-4-.44,4.34,4.34,0,0,0-1.65-1.37,4.7,4.7,0,0,0-6.25,2.26,5.31,5.31,0,0,0-.3.81,4.08,4.08,0,0,0-3.08,7.54l13.08,6.26.48.2a4.23,4.23,0,0,0,.47.25,5.58,5.58,0,0,0,4.82-10.06Z"/><path class="cls-40" d="M146.78,64.2a5.68,5.68,0,0,1-.54,2.8,5.54,5.54,0,0,1-7.36,2.66,5.27,5.27,0,0,1-1.76-1.36,6.4,6.4,0,0,0,6.5-9.06A6.48,6.48,0,0,1,143,62a6.29,6.29,0,0,1-8.37,3,6.12,6.12,0,0,1-2.87-2.86,2.51,2.51,0,0,0,1.6-1.35,2.55,2.55,0,0,0,.07-2,2.48,2.48,0,0,1-.23,1.3c-.59,1.22-2,1.85-3.77,1a2.46,2.46,0,0,1-.64-.45A2.44,2.44,0,0,0,130,62a4,4,0,0,1-5.17,1.56,4,4,0,0,1-1.58-1.37,4,4,0,0,0,2.19,2.88l14,6.71a5.53,5.53,0,0,0,7.36-2.66A5.6,5.6,0,0,0,146.78,64.2Z"/><path class="cls-2" d="M178.81,79l-.06,0a5.09,5.09,0,0,0-6.2-4.86,3.83,3.83,0,0,0-6.55.75,4.12,4.12,0,0,0-.24.67,3.37,3.37,0,0,0-2.55,6.23L174,87l.4.16a3.72,3.72,0,0,0,.39.21,4.62,4.62,0,0,0,4-8.33Z"/><path class="cls-40" d="M180.88,81.05a4.64,4.64,0,0,1-6.54,4.52,4.41,4.41,0,0,1-1.46-1.12,5.3,5.3,0,0,0,5.38-7.5,5.34,5.34,0,0,1-.52,2.28,5.22,5.22,0,0,1-6.93,2.51,5.11,5.11,0,0,1-2.38-2.37,2,2,0,0,0,1.32-1.12,2.08,2.08,0,0,0,.06-1.69,2,2,0,0,1-.19,1.08,2.18,2.18,0,0,1-3.12.84,2,2,0,0,1-.53-.37,2,2,0,0,0,1,1.13,3.34,3.34,0,0,1-4.28,1.29,3.28,3.28,0,0,1-1.31-1.13,3.29,3.29,0,0,0,1.82,2.38l11.61,5.56a4.57,4.57,0,0,0,6.09-2.2A4.62,4.62,0,0,0,180.88,81.05Z"/><path class="cls-2" d="M191.8,51.89l-.06,0a5.15,5.15,0,0,0-2.91-4.48,5.06,5.06,0,0,0-3.3-.37,3.7,3.7,0,0,0-1.37-1.13A3.89,3.89,0,0,0,179,47.75a3.65,3.65,0,0,0-.25.67,3.38,3.38,0,0,0-2.55,6.24L187,59.84l.4.17.39.21a4.62,4.62,0,0,0,4-8.33Z"/><path class="cls-40" d="M193.87,53.92a4.77,4.77,0,0,1-.45,2.32,4.58,4.58,0,0,1-6.09,2.2,4.42,4.42,0,0,1-1.47-1.12,5.25,5.25,0,0,0,5.36-3,5.32,5.32,0,0,0,0-4.53,5.47,5.47,0,0,1-.53,2.28,5.2,5.2,0,0,1-6.93,2.51,5,5,0,0,1-2.38-2.36,2.11,2.11,0,0,0,1.39-2.81,2,2,0,0,1-.2,1.07,2.18,2.18,0,0,1-3.11.85A2.34,2.34,0,0,1,179,51a2,2,0,0,0,1,1.13,3.36,3.36,0,0,1-4.29,1.29,3.23,3.23,0,0,1-1.31-1.14,3.33,3.33,0,0,0,1.82,2.39l11.62,5.56A4.59,4.59,0,0,0,193.9,58,4.69,4.69,0,0,0,193.87,53.92Z"/><path class="cls-2" d="M160.36,40.62l0,0a4,4,0,0,0-2.23-3.44,3.91,3.91,0,0,0-2.53-.28,2.81,2.81,0,0,0-1.05-.87,3,3,0,0,0-4,1.44,3.24,3.24,0,0,0-.19.52,2.58,2.58,0,0,0-2,4.77l8.29,4,.31.12.3.17a3.54,3.54,0,0,0,3.05-6.39Z"/><path class="cls-40" d="M162,42.18a3.63,3.63,0,0,1-.34,1.78,3.53,3.53,0,0,1-4.67,1.69,3.45,3.45,0,0,1-1.12-.87A4.05,4.05,0,0,0,159.94,39a4,4,0,0,1-5.71,3.67,3.9,3.9,0,0,1-1.82-1.81,1.63,1.63,0,0,0,1.06-2.16,1.62,1.62,0,0,1-.15.83,1.67,1.67,0,0,1-2.39.64,1.65,1.65,0,0,1-.41-.28,1.58,1.58,0,0,0,.78.87,2.54,2.54,0,0,1-4.29.12,2.53,2.53,0,0,0,1.4,1.82l8.9,4.27A3.55,3.55,0,0,0,162,42.18Z"/><path class="cls-2" d="M161.74,108.81l-.09,0a8.09,8.09,0,0,0-4.56-7,7.94,7.94,0,0,0-5.16-.58,5.92,5.92,0,0,0-2.15-1.77,6.1,6.1,0,0,0-8.11,2.93,7.07,7.07,0,0,0-.38,1.06,5.29,5.29,0,0,0-4,9.76l16.95,8.12a5.59,5.59,0,0,0,.63.26c.2.12.4.23.61.33a7.23,7.23,0,0,0,6.25-13Z"/><path class="cls-40" d="M165,112a7.26,7.26,0,0,1-10.24,7.08,6.81,6.81,0,0,1-2.29-1.76,8.3,8.3,0,0,0,8.43-11.74,8.35,8.35,0,0,1-.83,3.57,8.16,8.16,0,0,1-10.85,3.93,8,8,0,0,1-3.73-3.7,3.3,3.3,0,0,0,2.17-4.4,3.22,3.22,0,0,1-.3,1.68c-.76,1.58-2.63,2.4-4.88,1.32a3.14,3.14,0,0,1-.84-.58,3.22,3.22,0,0,0,1.59,1.78,5.25,5.25,0,0,1-6.71,2,5.15,5.15,0,0,1-2.05-1.78,5.14,5.14,0,0,0,2.85,3.73l18.19,8.71A7.18,7.18,0,0,0,165,118.4,7.28,7.28,0,0,0,165,112Z"/><rect class="cls-12" x="338.69" y="114.11" width="9.98" height="67.2" transform="translate(687.35 295.43) rotate(180)"/><rect class="cls-41" x="338.69" y="114.11" width="9.98" height="67.2" transform="translate(687.35 295.43) rotate(180)"/><path class="cls-32" d="M464.87,208.28c0,1.52-47.32,2.75-94.47,2.75S285,209.8,285,208.28s38.22-2.75,85.38-2.75S464.87,206.76,464.87,208.28Z"/><path class="cls-42" d="M304.15,163.43l11.67-19a2.29,2.29,0,0,1,1.95-1.08h20.82a1.14,1.14,0,0,1,1.14,1.14v47a1.14,1.14,0,0,1-1.14,1.15H314.21a1.12,1.12,0,0,1-1-.7,12.11,12.11,0,0,0-22.46,0,1.12,1.12,0,0,1-1.05.7h-2.24a1.15,1.15,0,0,1-1.15-1.15V172.21A5.37,5.37,0,0,1,290.4,167l13-3A1.11,1.11,0,0,0,304.15,163.43Z"/><circle cx="411.76" cy="196.12" r="11.33" transform="translate(-40.13 257.81) rotate(-33.24)"/><circle cx="303.17" cy="196.12" r="11.33" transform="translate(-56.55 227.39) rotate(-37.87)"/><rect class="cls-43" x="288.65" y="186.27" width="150.64" height="13.45" rx="4.54" transform="translate(727.94 386) rotate(180)"/><path class="cls-44" d="M298,183H446.11v13.37a3.29,3.29,0,0,1-3.26,3.32H298a3.29,3.29,0,0,1-3.26-3.32V180.87C294.78,179,296.24,175.81,298,183Z"/><circle class="cls-45" cx="308.12" cy="197.86" r="11.33" transform="translate(-49.67 275.82) rotate(-45)"/><circle class="cls-46" cx="309.24" cy="197.86" r="11.33" transform="translate(-46.23 289.62) rotate(-47.09)"/><circle class="cls-4" cx="309.24" cy="197.86" r="5.67" transform="translate(-27.64 51.95) rotate(-9.19)"/><path class="cls-47" d="M311.09,198.75a.56.56,0,0,0-.55.66L311,202l-.37.1-.85-3.37h-.28l-.26.13.84,3.37-.37.1-.83-2.53a.56.56,0,0,0-.8-.32l-2.35,1.24-.21-.33,2.95-1.84-.09-.27-.21-.2L305.22,200l-.21-.33,2.15-1.57a.57.57,0,0,0,.06-.86l-1.91-1.85.25-.3,2.66,2.23.23-.17.13-.25-2.66-2.24.24-.29,2.16,1.55a.56.56,0,0,0,.84-.2l1.17-2.39.36.14-1.3,3.22.23.17.29,0,1.3-3.22.36.14-.82,2.54a.56.56,0,0,0,.46.73l2.63.37,0,.39-3.47-.24-.09.27.05.29,3.47.24,0,.38Zm-2-.56v0l0,0h0Zm.24-.14.15-.1.07-.17,0-.17-.14-.12h-.18l-.16.09-.06.17,0,.18.14.11Zm-.53-.31h0Zm.34-.42v0h0Zm.51.19,0,0h0Zm0,.56h0v0h0Z"/><path class="cls-2" d="M313.77,199.74a4.94,4.94,0,1,1-2.73-6.43A4.94,4.94,0,0,1,313.77,199.74Zm-.54-.22a4.36,4.36,0,1,0-5.67,2.4A4.37,4.37,0,0,0,313.23,199.52Z"/><path class="cls-4" d="M310.44,198.25a1.3,1.3,0,0,1-2.41-1,1.3,1.3,0,0,1,2.41,1Z"/><path class="cls-48" d="M310,198.08a.86.86,0,1,1-.48-1.11A.86.86,0,0,1,310,198.08Z"/><path class="cls-49" d="M309.71,198a.51.51,0,0,1-.66.29.51.51,0,1,1,.38-1A.5.5,0,0,1,309.71,198Z"/><path class="cls-50" d="M311.57,163.43l11.66-19a2.31,2.31,0,0,1,1.95-1.08h19.51a1.15,1.15,0,0,1,1.15,1.14v47a1.15,1.15,0,0,1-1.15,1.15H321.62a1.12,1.12,0,0,1-1.05-.7,12.11,12.11,0,0,0-22.46,0,1.12,1.12,0,0,1-1.05.7h-2.24a1.14,1.14,0,0,1-1.14-1.15V172.21a5.36,5.36,0,0,1,4.14-5.22l13-3A1.16,1.16,0,0,0,311.57,163.43Z"/><path class="cls-50" d="M293.68,170.26h52.16a0,0,0,0,1,0,0v2.46a5.1,5.1,0,0,1-5.1,5.1H293.68a0,0,0,0,1,0,0v-7.56A0,0,0,0,1,293.68,170.26Z" transform="translate(639.51 348.09) rotate(180)"/><path class="cls-4" d="M291.35,173.28h.82a1,1,0,0,1,1,1v4.79a1,1,0,0,1-1,1h-.82a.7.7,0,0,1-.7-.7V174a.7.7,0,0,1,.7-.7Z" transform="translate(583.82 353.36) rotate(-180)"/><path class="cls-4" d="M286.64,173.28h.82a.9.9,0,0,1,.9.9v5a.9.9,0,0,1-.9.9h-.82a.81.81,0,0,1-.81-.81v-5.18A.81.81,0,0,1,286.64,173.28Z" transform="translate(574.19 353.36) rotate(180)"/><path class="cls-51" d="M304.64,163.54h5.66a1.51,1.51,0,0,0,1.29-.72l10-16.26a.48.48,0,0,0-.41-.74h-4.79a2.3,2.3,0,0,0-1.95,1.1l-10,16.26A.23.23,0,0,0,304.64,163.54Z"/><path class="cls-51" d="M317,163.52h20.54a1.18,1.18,0,0,0,1.18-1.18V147.28a1.18,1.18,0,0,0-1.18-1.18h-11.3a1.2,1.2,0,0,0-1,.57L316,161.72A1.18,1.18,0,0,0,317,163.52Z"/><g class="cls-52"><path class="cls-53" d="M316.46,142.87l9.31-6.08,16.63,25.44-9.31,6.08Zm12.17,29.42,3.44-2.24-16.63-25.44L312,146.85Z"/></g><rect class="cls-54" x="314.59" y="159.4" width="2.38" height="8" rx="0.8" transform="translate(631.56 326.8) rotate(-180)"/><path class="cls-55" d="M316.63,167.4h0a.75.75,0,0,0,.75-.75v-6.49a.75.75,0,0,0-.75-.76h0a.75.75,0,0,0-.75.76v6.49A.75.75,0,0,0,316.63,167.4Z"/><path class="cls-44" d="M348.6,181.31H451.65a0,0,0,0,1,0,0v7.23a0,0,0,0,1,0,0H348a2.12,2.12,0,0,1-2.12-2.12v-2.35a2.76,2.76,0,0,1,2.76-2.76Z" transform="translate(797.49 369.86) rotate(-180)"/><ellipse class="cls-56" cx="418.93" cy="189.52" rx="12.69" ry="5.7"/><circle class="cls-56" cx="417.66" cy="197.86" r="11.33" transform="translate(-15.59 358.74) rotate(-45.72)"/><circle class="cls-46" cx="419.39" cy="197.86" r="11.33" transform="translate(1.93 399.76) rotate(-51.07)"/><circle class="cls-4" cx="419.39" cy="197.86" r="5.67" transform="translate(-31.29 88.64) rotate(-11.63)"/><path class="cls-47" d="M421.33,198.75a.56.56,0,0,0-.55.66l.46,2.62-.38.1-.84-3.37h-.29l-.25.13.84,3.37-.38.1-.83-2.53a.55.55,0,0,0-.79-.32L416,200.75l-.2-.33,2.94-1.84-.09-.27-.2-.2-3,1.84-.2-.33,2.15-1.57a.57.57,0,0,0,.06-.86l-1.92-1.85.25-.3,2.67,2.23.23-.17.12-.25-2.66-2.24.25-.29,2.16,1.55a.55.55,0,0,0,.83-.2l1.18-2.39.35.14-1.3,3.22.24.17.28,0,1.3-3.22.36.14-.81,2.54a.56.56,0,0,0,.45.73l2.64.37,0,.39-3.46-.24-.09.27.05.29,3.46.24,0,.38Zm-2-.56v0l0,0h0Zm.24-.14.15-.1.07-.17,0-.17-.14-.12h-.18l-.15.09-.07.17.05.18.13.11Zm-.54-.31h0Zm.34-.42,0,0v0h0Zm.51.19,0,0h0Zm0,.56h0v0h0Z"/><path class="cls-2" d="M424,199.74a4.94,4.94,0,1,1-2.73-6.43A4.93,4.93,0,0,1,424,199.74Zm-.54-.22a4.35,4.35,0,1,0-5.67,2.4A4.36,4.36,0,0,0,423.47,199.52Z"/><path class="cls-2" d="M420.69,198.25A1.31,1.31,0,0,1,419,199a1.3,1.3,0,1,1,1.69-.72Z"/><path class="cls-57" d="M420.28,198.08a.86.86,0,1,1-.47-1.11A.84.84,0,0,1,420.28,198.08Z"/><path class="cls-49" d="M420,198a.51.51,0,1,1-.95-.38.51.51,0,0,1,.67-.28A.5.5,0,0,1,420,198Z"/><g class="cls-58"><path class="cls-59" d="M402.23,198.44a17.17,17.17,0,1,0,34.33,0c0-9.48-7.68-17.6-17.17-17.6S402.23,189,402.23,198.44Z"/><circle class="cls-59" cx="309.24" cy="197.28" r="16.88" transform="translate(-11.9 374.55) rotate(-61.44)"/></g><path class="cls-2" d="M297.85,194.08h-5.56a1.34,1.34,0,0,1-1.34-1.33l-.58-6.08a1.34,1.34,0,0,1,1.34-1.33h6.14a1.34,1.34,0,0,1,1.34,1.33v6.08A1.34,1.34,0,0,1,297.85,194.08Z"/><path class="cls-4" d="M284.46,185.34h4.43a2.95,2.95,0,0,1,2.95,2.95v2.84a2.95,2.95,0,0,1-2.95,2.95h-4.43a0,0,0,0,1,0,0v-8.74A0,0,0,0,1,284.46,185.34Z" transform="translate(576.3 379.42) rotate(-180)"/><path class="cls-7" d="M284.46,185.34h4.43a2.95,2.95,0,0,1,2.95,2.95v2.84a2.95,2.95,0,0,1-2.95,2.95h-4.43a0,0,0,0,1,0,0v-8.74A0,0,0,0,1,284.46,185.34Z" transform="translate(576.3 379.42) rotate(-180)"/><path class="cls-60" d="M290.1,189.81c0,1.13.33,2,.74,2s.75-.91.75-2-.33-2-.75-2S290.1,188.69,290.1,189.81Z"/><path class="cls-61" d="M289.66,189.81c0,1.13.34,2,.75,2s.75-.91.75-2-.34-2-.75-2S289.66,188.69,289.66,189.81Z"/><path class="cls-60" d="M285,189.81c0,1.13.33,2,.75,2s.74-.91.74-2-.33-2-.74-2S285,188.69,285,189.81Z"/><path class="cls-61" d="M284.58,189.81c0,1.13.34,2,.75,2s.75-.91.75-2-.34-2-.75-2S284.58,188.69,284.58,189.81Z"/><path class="cls-62" d="M339.73,143.32,338.66,147a1,1,0,0,1,0,.25v15.06a1.18,1.18,0,0,1-1.18,1.18h-3.63l-8.42,29.08,20.38,0V143.32C345.84,143.08,339.73,143.32,339.73,143.32Z"/><line class="cls-63" x1="341.85" y1="144.79" x2="341.85" y2="191.39"/><line class="cls-63" x1="312.05" y1="166.46" x2="312.05" y2="178.9"/><rect class="cls-64" x="334.59" y="171.98" width="3.99" height="2.2" rx="0.74" transform="translate(673.18 346.16) rotate(180)"/><rect class="cls-65" x="393.53" y="181.38" width="2.12" height="15.47" transform="translate(789.18 378.22) rotate(180)"/><rect class="cls-65" x="355.12" y="181.38" width="2.12" height="15.47" transform="translate(712.37 378.22) rotate(180)"/><rect class="cls-2" x="350.92" y="186.33" width="48.3" height="2.78" transform="translate(750.15 375.44) rotate(180)"/><g class="cls-66"><polygon class="cls-50" points="399.98 189.12 397.19 186.33 394.68 186.33 397.46 189.11 399.98 189.12"/><polygon class="cls-50" points="394.82 189.12 392.03 186.33 389.52 186.33 392.3 189.11 394.82 189.12"/><polygon class="cls-50" points="389.65 189.12 386.86 186.33 384.36 186.33 387.14 189.11 389.65 189.12"/><polygon class="cls-50" points="384.49 189.12 381.7 186.33 379.19 186.33 381.97 189.11 384.49 189.12"/><polygon class="cls-50" points="379.33 189.12 376.54 186.33 374.03 186.33 376.81 189.11 379.33 189.12"/><polygon class="cls-50" points="374.16 189.12 371.37 186.33 368.86 186.33 371.64 189.11 374.16 189.12"/><polygon class="cls-50" points="369 189.12 366.21 186.33 363.7 186.33 366.48 189.11 369 189.12"/><polygon class="cls-50" points="363.83 189.12 361.04 186.33 358.54 186.33 361.32 189.11 363.83 189.12"/><polygon class="cls-50" points="358.67 189.12 355.88 186.33 353.37 186.33 356.15 189.11 358.67 189.12"/><polygon class="cls-50" points="353.51 189.12 350.72 186.33 348.21 186.33 350.99 189.11 353.51 189.12"/></g><rect class="cls-2" x="350.92" y="194.26" width="48.3" height="2.78" transform="translate(750.15 391.3) rotate(180)"/><g class="cls-67"><polygon class="cls-50" points="399.98 197.05 397.19 194.26 394.68 194.26 397.46 197.04 399.98 197.05"/><polygon class="cls-50" points="394.82 197.05 392.03 194.26 389.52 194.26 392.3 197.04 394.82 197.05"/><polygon class="cls-50" points="389.65 197.05 386.86 194.26 384.36 194.26 387.14 197.04 389.65 197.05"/><polygon class="cls-50" points="384.49 197.05 381.7 194.26 379.19 194.26 381.97 197.04 384.49 197.05"/><polygon class="cls-50" points="379.33 197.05 376.54 194.26 374.03 194.26 376.81 197.04 379.33 197.05"/><polygon class="cls-50" points="374.16 197.05 371.37 194.26 368.86 194.26 371.64 197.04 374.16 197.05"/><polygon class="cls-50" points="369 197.05 366.21 194.26 363.7 194.26 366.48 197.04 369 197.05"/><polygon class="cls-50" points="363.83 197.05 361.04 194.26 358.54 194.26 361.32 197.04 363.83 197.05"/><polygon class="cls-50" points="358.67 197.05 355.88 194.26 353.37 194.26 356.15 197.04 358.67 197.05"/><polygon class="cls-50" points="353.51 197.05 350.72 194.26 348.21 194.26 350.99 197.04 353.51 197.05"/></g><path class="cls-12" d="M353.2,114.11H466.3a4.53,4.53,0,0,1,4.53,4.53v62.67a0,0,0,0,1,0,0H353.2a4.53,4.53,0,0,1-4.53-4.53V118.65A4.53,4.53,0,0,1,353.2,114.11Z" transform="translate(819.5 295.43) rotate(180)"/><path class="cls-2" d="M427.21,137.81H427a16,16,0,0,0-14-8.73,15.73,15.73,0,0,0-9.71,3.3A11.52,11.52,0,0,0,398,131a12,12,0,0,0-12,12.05,13.33,13.33,0,0,0,.2,2.2,10.44,10.44,0,0,0,1.06,20.8l37.1.27c.45,0,.9,0,1.34-.06a12.44,12.44,0,0,0,1.37.08,14.27,14.27,0,0,0,.21-28.54Z"/><path class="cls-40" d="M435.67,140.77a14.35,14.35,0,0,1,1.79,7.08A14.16,14.16,0,0,1,423.32,162a13.86,13.86,0,0,1-5.57-1.22A16.38,16.38,0,0,0,423,132.74a16.65,16.65,0,0,1,1.53,7.07,16.11,16.11,0,0,1-16.1,16.13,15.67,15.67,0,0,1-9.76-3.49,6.53,6.53,0,0,0,.18-9.68,6.42,6.42,0,0,1,.88,3.27c0,3.46-2.69,6.48-7.62,6.45a6.48,6.48,0,0,1-2-.34,6.29,6.29,0,0,0,4.33,1.84,10.35,10.35,0,0,1-10.29,9.24,10,10,0,0,1-5.16-1.46,10.22,10.22,0,0,0,8.22,4.29l39.81.29a14.16,14.16,0,0,0,14.14-14.17A14.34,14.34,0,0,0,435.67,140.77Z"/><g class="cls-68"><g class="cls-69"><rect class="cls-2" x="398.26" y="83.04" width="31.95" height="130.13" transform="translate(811.86 -40.08) rotate(135)"/><rect class="cls-2" x="374.42" y="99.62" width="11.95" height="102.42" transform="translate(756.04 -11.5) rotate(135)"/></g></g><g class="cls-70"><line class="cls-71" x1="465.98" y1="157.23" x2="355.23" y2="157.23"/></g><g class="cls-70"><line class="cls-71" x1="465.98" y1="161.4" x2="355.23" y2="161.4"/></g><path class="cls-72" d="M350,115.46V180H469.48v-64.5H350m-1.34-1.35H470.38a.46.46,0,0,1,.45.46v66.29a.45.45,0,0,1-.45.45H349.12a.45.45,0,0,1-.45-.45V114.11Z"/></g></g></svg>