<svg xmlns="http://www.w3.org/2000/svg" width="18.562" height="22.958" viewBox="0 0 18.562 22.958">
  <g id="Group_3447" data-name="Group 3447" transform="translate(0)">
    <path id="Path_2882" data-name="Path 2882" d="M260.284,191.586l-4.406-.358-.276.285a3.755,3.755,0,0,0,.818,2.846,1.374,1.374,0,0,1,.8.41,1.478,1.478,0,0,1,0,2.044,1.369,1.369,0,0,1-1.98,0,1.476,1.476,0,0,1-.335-1.486c.064.076.128.153.2.225a.5.5,0,0,0,.728,0,.544.544,0,0,0,0-.752,3.771,3.771,0,0,1,0-5.214,3.491,3.491,0,0,1,5.048,0l2.742,2.83a2.9,2.9,0,0,0,4.187,0,3.125,3.125,0,0,0,0-4.322.5.5,0,0,0-.728,0,.544.544,0,0,0,0,.752,2.038,2.038,0,0,1,0,2.818,1.891,1.891,0,0,1-2.731,0l-2.742-2.83a4.5,4.5,0,0,0-6.5,0,4.8,4.8,0,0,0-1.347,3.359,4.927,4.927,0,0,0,.126,1.092l-2.067,2.136.345,4.55,10.1,10.43,8.118-8.385Z" transform="translate(-251.82 -187.442)" fill="#1889bc"/>
  </g>
</svg>
