<svg id="Group_8221" data-name="Group 8221" xmlns="http://www.w3.org/2000/svg" width="24.913" height="28.529" viewBox="0 0 24.913 28.529">
  <path id="Path_22557" data-name="Path 22557" d="M206.49,0V4.967h4.966Z" transform="translate(-189.89)" fill="#e5e5e5"/>
  <path id="Path_22558" data-name="Path 22558" d="M37.1,4.966V0H22.29V25.572H42.064V4.967H37.1Z" transform="translate(-20.498)" fill="#fff"/>
  <path id="Path_22559" data-name="Path 22559" d="M22.55,104.53H.652a.652.652,0,0,0-.652.652H0V112.4H22.55a.652.652,0,0,0,.652-.652v-6.567A.652.652,0,0,0,22.55,104.53Z" transform="translate(0 -96.126)" fill="#666"/>
  <path id="Path_22560" data-name="Path 22560" d="M0,202.44l1.792,1.791V202.44Z" transform="translate(0 -186.165)" fill="#1d1d1b"/>
  <path id="Path_22561" data-name="Path 22561" d="M178.95,216.793a5.226,5.226,0,0,0-6.88,7.515h6.88Z" transform="translate(-157.384 -198.736)" fill="#dbdbdb" opacity="0.5" style="isolation: isolate"/>
  <circle id="Ellipse_1301" data-name="Ellipse 1301" cx="4.191" cy="4.191" r="4.191" transform="translate(13.059 22.602) rotate(-45)" fill="#fff"/>
  <path id="Path_22562" data-name="Path 22562" d="M212.817,256.609h-.965v-2.052a.1.1,0,0,0-.1-.1h-2.069a.1.1,0,0,0-.1.1v2.052h-.965a.128.128,0,0,0-.1.209l2.094,2.544a.129.129,0,0,0,.181.017.127.127,0,0,0,.017-.017l2.09-2.544a.128.128,0,0,0-.092-.209Z" transform="translate(-191.736 -234.003)" fill="#666"/>
  <path id="Path_22563" data-name="Path 22563" d="M74.34,126.915l2.21-3.346h-2V122.55h3.494v.729l-2.2,3.353h2.217v1.019H74.34Z" transform="translate(-68.364 -112.698)" fill="#fff"/>
  <path id="Path_22564" data-name="Path 22564" d="M133.6,122.55h1.222v5.1H133.6Z" transform="translate(-122.859 -112.698)" fill="#fff"/>
  <path id="Path_22565" data-name="Path 22565" d="M165.814,122.55h1.794c1.12,0,2.037.4,2.037,1.654,0,1.222-.933,1.755-2.01,1.755h-.6v1.692H165.81ZM167.569,125c.6,0,.884-.282.884-.791s-.322-.69-.916-.69h-.5V125Z" transform="translate(-152.48 -112.698)" fill="#fff"/>
</svg>
