<svg xmlns="http://www.w3.org/2000/svg" width="25.921" height="29.558" viewBox="0 0 25.921 29.558">
  <g id="Group_4511" data-name="Group 4511" transform="translate(-7.106 -6.778)">
    <path id="Path_1567" data-name="Path 1567" d="M7.106,23.644l4.3,3-1.955-3Z" fill="#125959"/>
    <path id="Path_11433" data-name="Path 11433" d="M19.8,6.778A12.427,12.427,0,1,0,22.5,31.326l.184-.041.024-.185a5.827,5.827,0,0,1,.183-.868l.115-.4.031-.067a5.76,5.76,0,0,1,.377-.808,5.857,5.857,0,0,1,1.453-1.7l.073-.091a15.021,15.021,0,0,0,1.077-2.952h3.636a11.6,11.6,0,0,1-.841,1.359l-.271.386.47.037a5.6,5.6,0,0,1,.877.136l.182.043.1-.158A12.414,12.414,0,0,0,19.8,6.778Zm.677,23V24.218H24.61C23.759,27.264,22.209,29.342,20.475,29.773ZM25.286,19.09a20,20,0,0,1-.355,3.774H20.475v-7.32h4.5A20.043,20.043,0,0,1,25.286,19.09Zm-4.811-4.9V8.407c1.786.442,3.361,2.606,4.2,5.783Zm6.166,4.9a21.716,21.716,0,0,0-.29-3.546h3.823c.02,0,.042,0,.062,0a10.907,10.907,0,0,1,0,7.326q-.031,0-.063,0H26.31A21.591,21.591,0,0,0,26.641,19.09Zm-.559-4.9a12.317,12.317,0,0,0-2.633-5.427,11.178,11.178,0,0,1,6.21,5.427Zm-11.159,0c.838-3.176,2.413-5.341,4.2-5.783V14.19Zm4.2,10.028v5.555c-1.734-.431-3.284-2.509-4.135-5.555Zm-5.546,0A11.687,11.687,0,0,0,16.5,29.771a11.088,11.088,0,0,1-6.568-5.553Zm5.546-8.674v7.32H14.666a20.15,20.15,0,0,1-.041-7.32Zm-5.876,0a21.689,21.689,0,0,0-.289,3.546,21.461,21.461,0,0,0,.331,3.774H9.422q-.031,0-.063,0a10.915,10.915,0,0,1,0-7.326q.031,0,.063,0ZM9.938,14.19a11.17,11.17,0,0,1,6.209-5.427,12.339,12.339,0,0,0-2.633,5.427Z" fill="#fff"/>
    <path id="Path_1566" data-name="Path 1566" d="M31.849,15.007H7.821a.715.715,0,0,0-.715.715h0v7.921H31.849a.717.717,0,0,0,.715-.715V15.722A.715.715,0,0,0,31.849,15.007Z" fill="#259fa5"/>
    <circle id="Ellipse_197" data-name="Ellipse 197" cx="4.598" cy="4.598" r="4.598" transform="translate(23.831 27.14)" fill="#fff"/>
    <path id="Path_1569" data-name="Path 1569" d="M28.071,29.443V30.5H25.819a.106.106,0,0,0-.106.106h0v2.273a.106.106,0,0,0,.106.105h2.252v1.056a.14.14,0,0,0,.14.14.137.137,0,0,0,.089-.032l2.792-2.3a.14.14,0,0,0,.02-.2.126.126,0,0,0-.02-.02L28.3,29.33a.14.14,0,0,0-.2.019A.145.145,0,0,0,28.071,29.443Z" fill="#259fa5"/>
    <g id="Group_4510" data-name="Group 4510">
      <path id="Path_11434" data-name="Path 11434" d="M16.376,19.221c-.058.428-.131.98-.2,1.559-.1-.526-.2-1.061-.3-1.564l-.61-2.625-.01-.038H14.1l-.611,2.665c-.1.5-.2,1.029-.29,1.564-.068-.523-.137-1.045-.2-1.562L12.6,16.553H11.2l1.052,5.67.008.041H13.91l.542-2.588c.064-.318.117-.647.17-.967q.009-.064.021-.129c.056.369.122.744.193,1.1l.551,2.548.008.039H17.07l1.005-5.653.01-.058H16.77Z" fill="#fff"/>
      <path id="Path_11435" data-name="Path 11435" d="M20.32,19.906H22.23V18.748H20.32V17.72h2.247V16.553h-3.62v5.711h3.706V21.1H20.32Z" fill="#fff"/>
      <path id="Path_11436" data-name="Path 11436" d="M27.078,19.221A1.277,1.277,0,0,0,27.94,18c0-.972-.694-1.444-2.124-1.444H23.848v5.711h2.131c1.4,0,2.237-.636,2.237-1.7A1.287,1.287,0,0,0,27.078,19.221Zm-1.322-.405h-.535V17.634h.552c.573,0,.829.168.829.544C26.6,18.6,26.317,18.816,25.756,18.816Zm-.535,1h.656c.682,0,1,.209,1,.656,0,.475-.337.716-1,.716h-.656Z" fill="#fff"/>
    </g>
  </g>
</svg>
