<svg id="Group_1690" data-name="Group 1690" xmlns="http://www.w3.org/2000/svg" width="25.458" height="29.398" viewBox="0 0 25.458 29.398">
  <g id="Group_1687" data-name="Group 1687" transform="translate(1.966)">
    <g id="Group_1686" data-name="Group 1686">
      <g id="Group_1685" data-name="Group 1685">
        <g id="Group_1676" data-name="Group 1676" transform="translate(16.249)">
          <g id="Group_1675" data-name="Group 1675">
            <g id="Group_1674" data-name="Group 1674">
              <g id="Group_1673" data-name="Group 1673">
                <g id="Group_1672" data-name="Group 1672">
                  <g id="Group_1671" data-name="Group 1671">
                    <g id="Group_1670" data-name="Group 1670">
                      <path id="Path_1564" data-name="Path 1564" d="M80.745,0V5.449h5.449Z" transform="translate(-80.745)" fill="#e5e5e5"/>
                    </g>
                  </g>
                </g>
              </g>
            </g>
          </g>
        </g>
        <g id="Group_1684" data-name="Group 1684">
          <g id="Group_1683" data-name="Group 1683">
            <g id="Group_1682" data-name="Group 1682">
              <g id="Group_1681" data-name="Group 1681">
                <g id="Group_1680" data-name="Group 1680">
                  <g id="Group_1679" data-name="Group 1679">
                    <g id="Group_1678" data-name="Group 1678">
                      <g id="Group_1677" data-name="Group 1677">
                        <path id="Path_1565" data-name="Path 1565" d="M71.716,5.449V0H55.467V28.059h21.7V5.449H71.716Z" transform="translate(-55.467)" fill="#fff"/>
                      </g>
                    </g>
                  </g>
                </g>
              </g>
            </g>
          </g>
        </g>
      </g>
    </g>
  </g>
  <path id="Path_1566" data-name="Path 1566" d="M77.152,14.345H53.124a.715.715,0,0,0-.715.715v7.921H77.152a.716.716,0,0,0,.715-.715V15.06A.715.715,0,0,0,77.152,14.345Z" transform="translate(-52.409 -5.124)" fill="#2798d8"/>
  <path id="Path_1567" data-name="Path 1567" d="M52.409,27.781l1.966,1.966V27.781Z" transform="translate(-52.409 -9.923)" fill="#124a88"/>
  <g id="Group_1688" data-name="Group 1688" transform="translate(15.098 19.066)">
    <path id="Path_1568" data-name="Path 1568" d="M84.462,30.408a5.734,5.734,0,0,0-7.549,8.245h7.549Z" transform="translate(-75.897 -29.66)" fill="#dbdbdb" opacity="0.5"/>
  </g>
  <ellipse id="Ellipse_197" data-name="Ellipse 197" cx="4.598" cy="4.598" rx="4.598" ry="4.598" transform="translate(16.235 20.202)" fill="#fff"/>
  <path id="Path_1569" data-name="Path 1569" d="M85.761,37.277H84.705V35.025a.106.106,0,0,0-.106-.106H82.326a.106.106,0,0,0-.105.106v2.252H81.165a.14.14,0,0,0-.108.229l2.3,2.792a.14.14,0,0,0,.217,0l2.3-2.792A.14.14,0,0,0,85.761,37.277Z" transform="translate(-62.63 -12.473)" fill="#2798d8"/>
  <g id="Group_1689" data-name="Group 1689" transform="translate(4.938 10.708)">
    <path id="Path_1570" data-name="Path 1570" d="M60.09,16.818H61.7a2.516,2.516,0,0,1,2.837,2.777,2.529,2.529,0,0,1-2.76,2.82H60.09Zm1.531,4.522c.9,0,1.547-.421,1.547-1.745s-.645-1.7-1.547-1.7h-.19V21.34Z" transform="translate(-60.09 -16.715)" fill="#fff"/>
    <path id="Path_1571" data-name="Path 1571" d="M68.543,19.538c0-1.84,1.04-2.88,2.562-2.88s2.562,1.048,2.562,2.88-1.041,2.923-2.562,2.923S68.543,21.369,68.543,19.538Zm3.757,0c0-1.092-.456-1.728-1.195-1.728s-1.195.636-1.195,1.728.464,1.771,1.195,1.771S72.3,20.621,72.3,19.538Z" transform="translate(-63.109 -16.658)" fill="#fff"/>
    <path id="Path_1572" data-name="Path 1572" d="M78.065,19.6a2.7,2.7,0,0,1,2.665-2.94,2.345,2.345,0,0,1,1.7.73l-.705.809a1.315,1.315,0,0,0-.963-.387c-.739,0-1.333.653-1.333,1.736,0,1.118.525,1.763,1.307,1.763a1.424,1.424,0,0,0,1.075-.464l.7.791a2.325,2.325,0,0,1-1.814.825A2.589,2.589,0,0,1,78.065,19.6Z" transform="translate(-66.511 -16.658)" fill="#fff"/>
  </g>
</svg>
