<svg xmlns="http://www.w3.org/2000/svg" width="23.62" height="30.545" viewBox="0 0 23.62 30.545">
  <g id="Group_5054" data-name="Group 5054" transform="translate(-292 -2164)">
    <g id="Group_5026" data-name="Group 5026" transform="translate(292 2164)">
      <g id="Group_1708" data-name="Group 1708" transform="translate(0)">
        <g id="Group_1707" data-name="Group 1707">
          <g id="Group_1706" data-name="Group 1706">
            <g id="Group_1697" data-name="Group 1697" transform="translate(17.688)">
              <g id="Group_1696" data-name="Group 1696">
                <g id="Group_1695" data-name="Group 1695">
                  <g id="Group_1694" data-name="Group 1694">
                    <g id="Group_1693" data-name="Group 1693">
                      <g id="Group_1692" data-name="Group 1692">
                        <g id="Group_1691" data-name="Group 1691">
                          <path id="Path_1573" data-name="Path 1573" d="M28.337,0V5.932h5.932Z" transform="translate(-28.337)" fill="#e5e5e5"/>
                        </g>
                      </g>
                    </g>
                  </g>
                </g>
              </g>
            </g>
            <g id="Group_1705" data-name="Group 1705">
              <g id="Group_1704" data-name="Group 1704">
                <g id="Group_1703" data-name="Group 1703">
                  <g id="Group_1702" data-name="Group 1702">
                    <g id="Group_1701" data-name="Group 1701">
                      <g id="Group_1700" data-name="Group 1700">
                        <g id="Group_1699" data-name="Group 1699">
                          <g id="Group_1698" data-name="Group 1698">
                            <path id="Path_1574" data-name="Path 1574" d="M20.747,5.932V0H3.059V30.545h23.62V5.932H20.747Z" transform="translate(-3.059)" fill="#fff"/>
                          </g>
                        </g>
                      </g>
                    </g>
                  </g>
                </g>
              </g>
            </g>
          </g>
        </g>
      </g>
    </g>
    <path id="Path_13365" data-name="Path 13365" d="M530.653,522.226c-.055,0-.111-.007-.166-.007s-.113,0-.169.007a8.263,8.263,0,0,0,0,16.523c.058,0,.115.007.173.007s.113,0,.168-.007a8.243,8.243,0,0,0,2.1-.315l-.14-.489-.073-.256-.163-.569a2.9,2.9,0,0,1-1.507.826v-3q.45,0,.892.022l-.224-.783q-.332-.01-.668-.014v-3.168h3.68c-.016.416-.05.823-.1,1.217l.731.389a14.015,14.015,0,0,0,.146-1.607h2.63a7.432,7.432,0,0,1-.711,2.706l.685.365a8.262,8.262,0,0,0-7.282-11.852Zm5.422,3.277c-.5.106-1.029.2-1.589.272a8.849,8.849,0,0,0-.5-1.051,6.525,6.525,0,0,0-.924-1.273A7.525,7.525,0,0,1,536.075,525.5Zm-9.06,1.116c.976.107,2.018.169,3.085.181v3.431h-3.687A12.178,12.178,0,0,1,527.015,526.619Zm3.085-3.589v2.995c-.966-.011-1.908-.064-2.8-.155C527.98,524.31,528.982,523.234,530.1,523.03Zm.775,0c1.142.2,2.148,1.268,2.82,2.84-.9.092-1.846.145-2.82.156Zm-2.958.422a6.534,6.534,0,0,0-.925,1.273,8.964,8.964,0,0,0-.5,1.051c-.56-.075-1.093-.166-1.589-.272A7.52,7.52,0,0,1,527.917,523.451Zm-3.552,2.726c.572.136,1.195.251,1.856.344a13.078,13.078,0,0,0-.584,3.711H523A7.445,7.445,0,0,1,524.365,526.177Zm1.28,4.83a12.965,12.965,0,0,0,.577,3.449c-.662.093-1.285.208-1.856.343a7.438,7.438,0,0,1-1.351-3.792Zm-.744,4.466c.5-.106,1.029-.2,1.589-.272a8.955,8.955,0,0,0,.5,1.051,6.526,6.526,0,0,0,.925,1.273A7.523,7.523,0,0,1,524.9,535.473Zm5.2,2.472c-1.118-.2-2.119-1.279-2.8-2.84.889-.091,1.832-.143,2.8-.154Zm0-3.77c-1.066.012-2.107.074-3.085.181a12.076,12.076,0,0,1-.595-3.35H530.1Zm.775-3.944V526.8c1.074-.013,2.122-.075,3.1-.183a12.371,12.371,0,0,1,.584,3.614Zm4.462,0a13.091,13.091,0,0,0-.583-3.711c.662-.093,1.284-.208,1.856-.344a7.444,7.444,0,0,1,1.365,4.055Zm2.439,4.782-1.9.554a.111.111,0,0,0-.063.186l0,.005,1.712,2.109a.182.182,0,0,1-.026.255l-.73.592a.182.182,0,0,1-.064.034.206.206,0,0,1-.05.007.181.181,0,0,1-.141-.067l-1.7-2.093-.007-.009a.128.128,0,0,0-.1-.052.091.091,0,0,0-.027,0,.13.13,0,0,0-.076.068l-.938,1.741a.114.114,0,0,1-.059.06H533.6c-.026,0-.051-.025-.065-.076l-1.881-6.574c-.017-.059,0-.1.028-.105a.05.05,0,0,1,.018,0,.138.138,0,0,1,.064.02l6.026,3.208C537.877,534.925,537.872,534.986,537.776,535.014Z" transform="translate(-227 1649.805)" fill="#0080a7"/>
  </g>
</svg>
