<svg xmlns="http://www.w3.org/2000/svg" width="108.385" height="119.478" viewBox="0 0 108.385 119.478">
  <g id="Group_4281" data-name="Group 4281" transform="translate(-12.472 -8.572)">
    <g id="Icon_Art" data-name="Icon Art">
      <path id="Path_10507" data-name="Path 10507" d="M92.387,123.312h28.47V18.347L92.387,8.572Z" fill="#1a4480"/>
      <path id="Path_10508" data-name="Path 10508" d="M45.675,90.447V95.6l23.446-3V86.95Z" fill="#fff"/>
      <path id="Path_10509" data-name="Path 10509" d="M45.675,100.746v5.15l23.446-2V98.248Z" fill="#fff"/>
      <path id="Path_10510" data-name="Path 10510" d="M45.675,111.045v5.15l23.446-1v-5.649Z" fill="#fff"/>
      <path id="Path_10511" data-name="Path 10511" d="M45.675,121.344v5.149H69.121v-5.649Z" fill="#fff"/>
      <path id="Path_10512" data-name="Path 10512" d="M92.387,124.858H68V17.191L92.387,8.572Z" fill="#1a4480"/>
      <path id="Path_10513" data-name="Path 10513" d="M92.387,124.858H68V17.191L92.387,8.572Z" fill="#1a4480" opacity="0.21" style="mix-blend-mode: multiply;isolation: isolate"/>
      <path id="Path_10514" data-name="Path 10514" d="M68,29.35l24.384-7.829V27.6L68,34.968ZM68,46.2l24.384-6.446V33.679L68,40.586ZM68,57.44l24.384-5.525V45.836L68,51.822Zm0,11.237,24.384-4.605V57.993L68,63.059Zm0,11.236L92.387,76.23V70.151L68,74.295ZM68,91.15l24.384-2.763V82.308L68,85.531Zm0,11.236,24.384-1.842V94.465L68,96.768Zm0,11.237,24.384-.922v-6.079L68,108Zm0,11.235H92.387V118.78L68,119.24ZM68,23.317l24.384-8.094V8.572L68,17.169Z" fill="#1a4480" opacity="0.14" style="mix-blend-mode: multiply;isolation: isolate"/>
      <path id="Path_10515" data-name="Path 10515" d="M83.694,109.639l21.609-1.381v6.079l-21.609.922Z" fill="#fff"/>
      <path id="Path_10516" data-name="Path 10516" d="M83.694,120.875l21.609-.461v6.079H83.694Z" fill="#fff"/>
      <g id="Group_4279" data-name="Group 4279">
        <rect id="Rectangle_2883" data-name="Rectangle 2883" width="78.319" height="50.907" transform="translate(30.315 77.085)" fill="#162e51"/>
        <rect id="Rectangle_2884" data-name="Rectangle 2884" width="82.235" height="3.524" transform="translate(28.357 73.56)" fill="#162e51"/>
        <rect id="Rectangle_2885" data-name="Rectangle 2885" width="84.193" height="5.874" transform="translate(27.378 122.118)" fill="#162e51"/>
        <rect id="Rectangle_2886" data-name="Rectangle 2886" width="78.319" height="0.979" transform="translate(30.315 77.085)" fill="#ccecfc" opacity="0.5" style="mix-blend-mode: multiply;isolation: isolate"/>
        <rect id="Rectangle_2887" data-name="Rectangle 2887" width="18.013" height="30.304" transform="translate(60.468 97.726)" fill="#162e51"/>
        <g id="Group_4264" data-name="Group 4264">
          <rect id="Rectangle_2888" data-name="Rectangle 2888" width="14.881" height="28.672" transform="translate(62.034 99.378)" fill="#1a4480"/>
          <rect id="Rectangle_2889" data-name="Rectangle 2889" width="24.365" height="10.573" transform="translate(74.761 101.532) rotate(90)" fill="#fff"/>
          <g id="Group_4263" data-name="Group 4263">
            <path id="Path_10517" data-name="Path 10517" d="M69.93,125.9l4.83-5.735v-2.075l-6.578,7.81Z" fill="#eef9fe" opacity="0.45" style="mix-blend-mode: multiply;isolation: isolate"/>
            <path id="Path_10518" data-name="Path 10518" d="M64.188,121.616l10.573-12.553v-7.53h-.729l-9.844,11.687Z" fill="#eef9fe" opacity="0.45" style="mix-blend-mode: multiply;isolation: isolate"/>
          </g>
          <rect id="Rectangle_2890" data-name="Rectangle 2890" width="12.107" height="0.979" transform="translate(63.421 112.748)" fill="#1a4480"/>
        </g>
        <g id="Group_4270" data-name="Group 4270">
          <g id="Group_4266" data-name="Group 4266">
            <g id="Group_4265" data-name="Group 4265">
              <rect id="Rectangle_2891" data-name="Rectangle 2891" width="25.454" height="26.628" transform="translate(32.661 93.155)" fill="#162e51"/>
            </g>
          </g>
          <g id="Group_4268" data-name="Group 4268">
            <g id="Group_4267" data-name="Group 4267">
              <rect id="Rectangle_2892" data-name="Rectangle 2892" width="23.496" height="24.67" transform="translate(33.64 94.134)" fill="#fff"/>
            </g>
          </g>
          <g id="Group_4269" data-name="Group 4269">
            <path id="Path_10519" data-name="Path 10519" d="M49.752,118.8l7.384-8.767v-4.15L46.256,118.8Z" fill="#eef9fe" opacity="0.45" style="mix-blend-mode: multiply;isolation: isolate"/>
            <path id="Path_10520" data-name="Path 10520" d="M33.64,112.337l15.331-18.2H47.177L33.64,110.208Z" fill="#eef9fe" opacity="0.45" style="mix-blend-mode: multiply;isolation: isolate"/>
            <path id="Path_10521" data-name="Path 10521" d="M44.825,118.8l12.31-14.616v-8.76L37.447,118.8Z" fill="#eef9fe" opacity="0.45" style="mix-blend-mode: multiply;isolation: isolate"/>
          </g>
        </g>
        <g id="Group_4274" data-name="Group 4274">
          <g id="Group_4271" data-name="Group 4271">
            <rect id="Rectangle_2893" data-name="Rectangle 2893" width="25.454" height="26.628" transform="translate(80.834 93.155)" fill="#162e51"/>
          </g>
          <g id="Group_4272" data-name="Group 4272">
            <rect id="Rectangle_2894" data-name="Rectangle 2894" width="23.496" height="24.67" transform="translate(81.813 94.134)" fill="#fff"/>
          </g>
          <g id="Group_4273" data-name="Group 4273">
            <path id="Path_10522" data-name="Path 10522" d="M100.2,118.8l5.111-6.069v-7.892L93.551,118.8Z" fill="#eef9fe" opacity="0.45" style="mix-blend-mode: multiply;isolation: isolate"/>
            <path id="Path_10523" data-name="Path 10523" d="M81.813,111.788,96.682,94.134H94.934L81.813,109.713Z" fill="#eef9fe" opacity="0.45" style="mix-blend-mode: multiply;isolation: isolate"/>
            <path id="Path_10524" data-name="Path 10524" d="M99.552,94.134,81.813,115.2v3.61h1.515l20.778-24.67Z" fill="#eef9fe" opacity="0.45" style="mix-blend-mode: multiply;isolation: isolate"/>
          </g>
        </g>
        <g id="Group_4278" data-name="Group 4278">
          <path id="Path_10525" data-name="Path 10525" d="M107.857,97.726H30.315v5.614a1.957,1.957,0,0,0,.985-1.7h0a1.958,1.958,0,0,0,1.958,1.958h1.958a1.958,1.958,0,0,0,1.958-1.958,1.958,1.958,0,0,0,1.958,1.958H41.09a1.958,1.958,0,0,0,1.958-1.958,1.958,1.958,0,0,0,1.958,1.958h1.958a1.958,1.958,0,0,0,1.958-1.958A1.958,1.958,0,0,0,50.88,103.6h1.958a1.958,1.958,0,0,0,1.958-1.958,1.958,1.958,0,0,0,1.958,1.958h1.958a1.958,1.958,0,0,0,1.958-1.958,1.958,1.958,0,0,0,1.958,1.958h1.958a1.958,1.958,0,0,0,1.958-1.958A1.958,1.958,0,0,0,68.5,103.6H70.46a1.958,1.958,0,0,0,1.958-1.958,1.958,1.958,0,0,0,1.958,1.958h1.957a1.958,1.958,0,0,0,1.958-1.958,1.958,1.958,0,0,0,1.958,1.958h1.958a1.958,1.958,0,0,0,1.958-1.958,1.958,1.958,0,0,0,1.958,1.958h1.958a1.958,1.958,0,0,0,1.958-1.958A1.958,1.958,0,0,0,92,103.6h1.958a1.958,1.958,0,0,0,1.958-1.958,1.958,1.958,0,0,0,1.958,1.958h1.958a1.958,1.958,0,0,0,1.958-1.958,1.958,1.958,0,0,0,1.958,1.958H105.7a1.958,1.958,0,0,0,1.958-1.958,1.955,1.955,0,0,0,.973,1.69V97.726Z" fill="#ccecfc" opacity="0.5" style="mix-blend-mode: multiply;isolation: isolate"/>
          <g id="Group_4277" data-name="Group 4277">
            <g id="Group_4275" data-name="Group 4275">
              <path id="Path_10526" data-name="Path 10526" d="M113.529,94.548H25.42l4.895-12.727h78.319Z" fill="#cc1d1d"/>
              <path id="Path_10527" data-name="Path 10527" d="M37.168,94.548H31.294l4.242-12.727h5.221Z" fill="#fff"/>
              <path id="Path_10528" data-name="Path 10528" d="M48.916,94.548H43.042l2.937-12.727H51.2Z" fill="#fff"/>
              <path id="Path_10529" data-name="Path 10529" d="M60.663,94.548H54.789l1.632-12.727h5.221Z" fill="#fff"/>
              <path id="Path_10530" data-name="Path 10530" d="M72.411,94.548H66.537l.326-12.727h5.221Z" fill="#fff"/>
              <path id="Path_10531" data-name="Path 10531" d="M84.159,94.548H78.285l-.979-12.727h5.221Z" fill="#fff"/>
              <path id="Path_10532" data-name="Path 10532" d="M95.907,94.548H90.033L87.749,81.821H92.97Z" fill="#fff"/>
              <path id="Path_10533" data-name="Path 10533" d="M107.655,94.548h-5.874l-3.59-12.727h5.221Z" fill="#fff"/>
            </g>
            <g id="Group_4276" data-name="Group 4276">
              <path id="Rectangle_2895" data-name="Rectangle 2895" d="M0,0H5.874a0,0,0,0,1,0,0V3.916A1.958,1.958,0,0,1,3.916,5.874H1.958A1.958,1.958,0,0,1,0,3.916V0A0,0,0,0,1,0,0Z" transform="translate(101.781 94.548)" fill="#f0f0f0"/>
              <path id="Rectangle_2896" data-name="Rectangle 2896" d="M0,0H5.874a0,0,0,0,1,0,0V3.916A1.958,1.958,0,0,1,3.916,5.874H1.958A1.958,1.958,0,0,1,0,3.916V0A0,0,0,0,1,0,0Z" transform="translate(107.655 94.548)" fill="#a00a0f"/>
              <path id="Rectangle_2897" data-name="Rectangle 2897" d="M0,0H5.874a0,0,0,0,1,0,0V3.916A1.958,1.958,0,0,1,3.916,5.874H1.958A1.958,1.958,0,0,1,0,3.916V0A0,0,0,0,1,0,0Z" transform="translate(90.033 94.548)" fill="#f0f0f0"/>
              <path id="Rectangle_2898" data-name="Rectangle 2898" d="M0,0H5.874a0,0,0,0,1,0,0V3.916A1.958,1.958,0,0,1,3.916,5.874H1.958A1.958,1.958,0,0,1,0,3.916V0A0,0,0,0,1,0,0Z" transform="translate(95.907 94.548)" fill="#a00a0f"/>
              <path id="Rectangle_2899" data-name="Rectangle 2899" d="M0,0H5.874a0,0,0,0,1,0,0V3.916A1.958,1.958,0,0,1,3.916,5.874H1.958A1.958,1.958,0,0,1,0,3.916V0A0,0,0,0,1,0,0Z" transform="translate(78.285 94.548)" fill="#f0f0f0"/>
              <path id="Rectangle_2900" data-name="Rectangle 2900" d="M0,0H5.874a0,0,0,0,1,0,0V3.916A1.958,1.958,0,0,1,3.916,5.874H1.958A1.958,1.958,0,0,1,0,3.916V0A0,0,0,0,1,0,0Z" transform="translate(84.159 94.548)" fill="#a00a0f"/>
              <path id="Rectangle_2901" data-name="Rectangle 2901" d="M0,0H5.874a0,0,0,0,1,0,0V3.916A1.958,1.958,0,0,1,3.916,5.874H1.958A1.958,1.958,0,0,1,0,3.916V0A0,0,0,0,1,0,0Z" transform="translate(66.537 94.548)" fill="#f0f0f0"/>
              <path id="Rectangle_2902" data-name="Rectangle 2902" d="M0,0H5.874a0,0,0,0,1,0,0V3.916A1.958,1.958,0,0,1,3.916,5.874H1.958A1.958,1.958,0,0,1,0,3.916V0A0,0,0,0,1,0,0Z" transform="translate(72.411 94.548)" fill="#a00a0f"/>
              <path id="Rectangle_2903" data-name="Rectangle 2903" d="M0,0H5.874a0,0,0,0,1,0,0V3.916A1.958,1.958,0,0,1,3.916,5.874H1.958A1.958,1.958,0,0,1,0,3.916V0A0,0,0,0,1,0,0Z" transform="translate(54.789 94.548)" fill="#f0f0f0"/>
              <path id="Rectangle_2904" data-name="Rectangle 2904" d="M0,0H5.874a0,0,0,0,1,0,0V3.916A1.958,1.958,0,0,1,3.916,5.874H1.958A1.958,1.958,0,0,1,0,3.916V0A0,0,0,0,1,0,0Z" transform="translate(60.663 94.548)" fill="#a00a0f"/>
              <path id="Rectangle_2905" data-name="Rectangle 2905" d="M0,0H5.874a0,0,0,0,1,0,0V3.916A1.958,1.958,0,0,1,3.916,5.874H1.958A1.958,1.958,0,0,1,0,3.916V0A0,0,0,0,1,0,0Z" transform="translate(43.042 94.548)" fill="#f0f0f0"/>
              <path id="Rectangle_2906" data-name="Rectangle 2906" d="M0,0H5.874a0,0,0,0,1,0,0V3.916A1.958,1.958,0,0,1,3.916,5.874H1.958A1.958,1.958,0,0,1,0,3.916V0A0,0,0,0,1,0,0Z" transform="translate(48.916 94.548)" fill="#a00a0f"/>
              <path id="Rectangle_2907" data-name="Rectangle 2907" d="M0,0H5.874a0,0,0,0,1,0,0V3.916A1.958,1.958,0,0,1,3.916,5.874H1.958A1.958,1.958,0,0,1,0,3.916V0A0,0,0,0,1,0,0Z" transform="translate(31.294 94.548)" fill="#f0f0f0"/>
              <path id="Rectangle_2908" data-name="Rectangle 2908" d="M0,0H5.874a0,0,0,0,1,0,0V3.916A1.958,1.958,0,0,1,3.916,5.874H1.958A1.958,1.958,0,0,1,0,3.916V0A0,0,0,0,1,0,0Z" transform="translate(37.168 94.548)" fill="#a00a0f"/>
              <path id="Rectangle_2909" data-name="Rectangle 2909" d="M0,0H5.874a0,0,0,0,1,0,0V3.916A1.958,1.958,0,0,1,3.916,5.874H1.958A1.958,1.958,0,0,1,0,3.916V0A0,0,0,0,1,0,0Z" transform="translate(25.42 94.548)" fill="#a00a0f"/>
            </g>
          </g>
        </g>
      </g>
      <g id="Group_4280" data-name="Group 4280">
        <path id="Path_10534" data-name="Path 10534" d="M61.485,25.868c-.064,0-.128,0-.192,0a15.591,15.591,0,0,0-13.8-8.435,15.361,15.361,0,0,0-9.475,3.3,11.393,11.393,0,0,0-5.213-1.3A11.779,11.779,0,0,0,21.129,31.31a12.093,12.093,0,0,0,.213,2.151A10.216,10.216,0,0,0,22.53,53.8h36.3a12.841,12.841,0,0,0,1.308-.067q.665.066,1.345.067a13.97,13.97,0,0,0,0-27.935Z" fill="#eaf7fd"/>
        <path id="Path_10535" data-name="Path 10535" d="M69.765,28.607a14.144,14.144,0,0,1,1.806,6.937A13.909,13.909,0,0,1,57.783,49.57,13.532,13.532,0,0,1,52.3,48.415,16.091,16.091,0,0,0,57.208,20.8a16.162,16.162,0,0,1,1.555,6.939,15.834,15.834,0,0,1-15.7,15.967,15.457,15.457,0,0,1-9.623-3.357,6.407,6.407,0,0,0,.109-9.517,6.211,6.211,0,0,1,.884,3.2c0,3.4-2.593,6.394-7.438,6.394a6.16,6.16,0,0,1-1.945-.317,6.169,6.169,0,0,0,4.266,1.775,10.169,10.169,0,0,1-10.043,9.156,9.922,9.922,0,0,1-5.08-1.4,10.034,10.034,0,0,0,8.111,4.15H61.427A13.909,13.909,0,0,0,75.216,39.777,14.083,14.083,0,0,0,69.765,28.607Z" fill="#ccecfc" style="mix-blend-mode: multiply;isolation: isolate"/>
      </g>
    </g>
  </g>
</svg>
