<svg xmlns="http://www.w3.org/2000/svg" width="99.753" height="99.753" viewBox="0 0 99.753 99.753">
  <g id="Group_3879" data-name="Group 3879" transform="translate(0 0)">
    <g id="Circles" transform="translate(0 0)">
      <ellipse id="Ellipse_672" data-name="Ellipse 672" cx="49.876" cy="49.877" rx="49.876" ry="49.877" fill="#fff"/>
    </g>
    <g id="Icon_Art" data-name="Icon Art" transform="translate(0 9.945)">
      <g id="Group_3874" data-name="Group 3874" transform="translate(25.519)">
        <g id="Group_3873" data-name="Group 3873">
          <path id="Path_8198" data-name="Path 8198" d="M65.081,25.408,41.905,64.034a10.88,10.88,0,0,0,9.329,16.477H74.41V20.126A10.792,10.792,0,0,0,65.081,25.408Z" transform="translate(-40.358 -20.126)" fill="#cc1d1d"/>
          <path id="Path_8199" data-name="Path 8199" d="M117.1,64.034,93.924,25.408a10.793,10.793,0,0,0-9.33-5.282V80.511H107.77A10.879,10.879,0,0,0,117.1,64.034Z" transform="translate(-50.542 -20.126)" fill="#a00a0f"/>
          <path id="Path_8200" data-name="Path 8200" d="M72.957,30.95,49.782,69.577a4.067,4.067,0,0,0,3.487,6.16H76.445V28.976A4.033,4.033,0,0,0,72.957,30.95Z" transform="translate(-42.392 -22.163)" fill="#fff"/>
          <path id="Path_8201" data-name="Path 8201" d="M111.258,69.577,88.082,30.95a4.031,4.031,0,0,0-3.488-1.974v46.76H107.77A4.067,4.067,0,0,0,111.258,69.577Z" transform="translate(-50.542 -22.163)" fill="#eef9fe"/>
          <g id="Group_3871" data-name="Group 3871" transform="translate(30.916 17.085)">
            <path id="Path_8202" data-name="Path 8202" d="M81.619,42.32a1.1,1.1,0,0,0-1.1,1.127L81.1,66.562a1.1,1.1,0,0,0,1.1,1.072h1.459V42.32Z" transform="translate(-80.52 -42.32)" fill="#cc1d1d"/>
            <path id="Path_8203" data-name="Path 8203" d="M81.306,80.545a2.531,2.531,0,0,0,2.531,2.531V78.014A2.531,2.531,0,0,0,81.306,80.545Z" transform="translate(-80.701 -50.537)" fill="#cc1d1d"/>
          </g>
          <g id="Group_3872" data-name="Group 3872" transform="translate(34.052 17.085)">
            <path id="Path_8204" data-name="Path 8204" d="M86.631,42.32H84.594V67.634h1.459a1.1,1.1,0,0,0,1.1-1.072l.578-23.115A1.1,1.1,0,0,0,86.631,42.32Z" transform="translate(-84.594 -42.32)" fill="#a00a0f"/>
            <path id="Path_8205" data-name="Path 8205" d="M84.594,78.014v5.062a2.531,2.531,0,1,0,0-5.062Z" transform="translate(-84.594 -50.537)" fill="#a00a0f"/>
          </g>
        </g>
      </g>
      <g id="Group_3878" data-name="Group 3878" transform="translate(0 29.314)">
        <path id="Path_8206" data-name="Path 8206" d="M62.482,89.7a16.364,16.364,0,1,1-1.4-23.1A16.363,16.363,0,0,1,62.482,89.7Z" transform="translate(-13.345 -59.191)" fill="#d9f1fd" opacity="0.8"/>
        <path id="Glass_Effect" d="M45.353,66.226a3.451,3.451,0,0,0-1.24,1.2c-1.6,3.429,4.319,8.677,8.192,12.109s9.8,8.681,13.009,6.674a3.457,3.457,0,0,0,1.044-1.376,14.966,14.966,0,0,0-21-18.609Z" transform="translate(-15.641 -59.63)" fill="#fff" opacity="0.5"/>
        <path id="Path_8207" data-name="Path 8207" d="M35.033,105.445l2.538-2.864q.756.669,1.561,1.248l-2.913,3.286a4.54,4.54,0,0,0-1.185-1.669Z" transform="translate(-13.613 -68.423)" fill="#162e51"/>
        <path id="Path_8208" data-name="Path 8208" d="M37.032,102.163l-2.538,2.864a4.551,4.551,0,0,0-1.8-.977l2.912-3.286A19.932,19.932,0,0,0,37.032,102.163Z" transform="translate(-13.074 -68.005)" fill="#162e51"/>
        <path id="Path_8209" data-name="Path 8209" d="M62.122,66.979l2.116-2.389A19.536,19.536,0,0,1,39.891,95.083q-.8-.578-1.561-1.248l1.582-1.787.535-.6A16.343,16.343,0,1,0,62.122,66.979Z" transform="translate(-14.372 -59.677)" fill="#162e51"/>
        <path id="Path_8210" data-name="Path 8210" d="M62.269,63.121,60.153,65.51A16.343,16.343,0,1,0,38.479,89.975l-.535.6-1.582,1.787a19.934,19.934,0,0,1-1.427-1.4A19.536,19.536,0,0,1,62.269,63.121Z" transform="translate(-12.404 -58.208)" fill="#162e51"/>
        <path id="Path_8211" data-name="Path 8211" d="M62.269,63.121,60.153,65.51A16.343,16.343,0,1,0,38.479,89.975l-.535.6-1.582,1.787a19.934,19.934,0,0,1-1.427-1.4A19.536,19.536,0,0,1,62.269,63.121Z" transform="translate(-12.404 -58.208)" fill="#fff" opacity="0.1"/>
        <g id="Group_3875" data-name="Group 3875" transform="translate(0.899 35.867)">
          <path id="Path_8212" data-name="Path 8212" d="M20.571,111.336l1.247,1.1,1.493,1.323-6.652,7.509-7.388,8.34c-1.112-3.272-1.046-3.649-.572-7.411C9.013,121.847,9.017,122.554,20.571,111.336Z" transform="translate(-8.375 -106.305)" fill="#162e51"/>
          <path id="Path_8213" data-name="Path 8213" d="M24.219,109.831c.976-.953,4.016-3.926,5.138-5.03a4.8,4.8,0,0,1,1.386.178,4.551,4.551,0,0,1,1.8.977l-5.584,6.3Z" transform="translate(-12.022 -104.801)" fill="#162e51"/>
        </g>
        <path id="Path_8214" data-name="Path 8214" d="M24.219,109.832l2.741,2.426,5.583-6.3a4.557,4.557,0,0,0-1.8-.978c-.091-.025-.183-.048-.276-.067a4.8,4.8,0,0,0-1.111-.11c-.356.35-.906.891-1.522,1.493C26.511,107.592,24.885,109.181,24.219,109.832Z" transform="translate(-11.123 -68.934)" fill="#fff" opacity="0.1"/>
        <g id="Group_3876" data-name="Group 3876" transform="translate(1.795 37.022)">
          <path id="Path_8215" data-name="Path 8215" d="M26.32,116.917c-9.736,12.808-9.127,12.863-9.435,13.21a26.66,26.66,0,0,0-7.345.212h0L16.927,122l6.652-7.509,1.493,1.323Z" transform="translate(-9.539 -108.187)" fill="#162e51"/>
          <path id="Path_8216" data-name="Path 8216" d="M27.78,112.6l2.74,2.427c.567-.738,1.947-2.546,3.075-4.015.523-.684.992-1.295,1.3-1.69a4.784,4.784,0,0,0-.242-1.088c-.031-.089-.065-.179-.1-.266a4.567,4.567,0,0,0-1.188-1.67Z" transform="translate(-13.738 -106.302)" fill="#162e51"/>
        </g>
        <path id="Path_8217" data-name="Path 8217" d="M32.126,108.962l2.469,2.188c.523-.684.992-1.295,1.3-1.69a4.784,4.784,0,0,0-.242-1.088l-.189-.167-1.493-1.323Z" transform="translate(-12.944 -69.413)" fill="#cc1d1d"/>
        <path id="Path_8218" data-name="Path 8218" d="M32.126,108.962l2.469,2.188c.523-.684.992-1.295,1.3-1.69a4.784,4.784,0,0,0-.242-1.088l-.189-.167-1.493-1.323Z" transform="translate(-12.944 -69.413)" fill="#cc1d1d" style="mix-blend-mode: multiply;isolation: isolate"/>
        <path id="Path_8219" data-name="Path 8219" d="M28.915,106.3l.976.864,1.5,1.323L33.23,106.4l-1.493-1.323-.189-.167a4.8,4.8,0,0,0-1.111-.11C30.08,105.152,29.531,105.693,28.915,106.3Z" transform="translate(-12.204 -68.934)" fill="#cc1d1d"/>
        <g id="Group_3877" data-name="Group 3877" transform="translate(0 40.897)">
          <path id="Path_8220" data-name="Path 8220" d="M12.794,125.745l-4-3.543c.354-.261,1.506-.8,11.872-10.866l1.247,1.1,1.493,1.323-6.652,7.509Z" transform="translate(-7.573 -111.336)" fill="#fff" opacity="0.1"/>
          <path id="Path_8221" data-name="Path 8221" d="M8.43,125.452l4,3.543L9,132.863c-1.945-1.725-2.516-5.24-.675-7.318A.6.6,0,0,1,8.43,125.452Z" transform="translate(-7.207 -114.586)" fill="#cc1d1d"/>
          <path id="Path_8222" data-name="Path 8222" d="M17.952,122,24.6,114.49l1.493,1.323,1.247,1.1c-8.72,11.473-9.142,12.713-9.356,13.1l-4-3.543Z" transform="translate(-8.768 -112.062)" fill="#162e51"/>
          <path id="Path_8223" data-name="Path 8223" d="M16.964,133.6a.681.681,0,0,1-.079.114c-1.841,2.078-5.4,1.934-7.345.212h0l3.426-3.868Z" transform="translate(-7.744 -115.645)" fill="#cc1d1d"/>
          <path id="Path_8224" data-name="Path 8224" d="M16.964,133.6a.681.681,0,0,1-.079.114c-1.841,2.078-5.4,1.934-7.345.212h0l3.426-3.868Z" transform="translate(-7.744 -115.645)" fill="#cc1d1d" style="mix-blend-mode: multiply;isolation: isolate"/>
        </g>
      </g>
    </g>
  </g>
</svg>
