<svg xmlns="http://www.w3.org/2000/svg" width="99.958" height="99.753" viewBox="0 0 99.958 99.753">
  <g id="Group_3870" data-name="Group 3870" transform="translate(0 0)">
    <g id="Circles" transform="translate(0.205 0)">
      <ellipse id="Ellipse_669" data-name="Ellipse 669" cx="49.876" cy="49.877" rx="49.876" ry="49.877" fill="#fff"/>
    </g>
    <g id="Icon_Art" data-name="Icon Art" transform="translate(0 14.607)">
      <g id="Group_3869" data-name="Group 3869">
        <ellipse id="Ellipse_670" data-name="Ellipse 670" cx="33.687" cy="33.687" rx="33.687" ry="33.687" transform="translate(23.069 3.066)" fill="#c2e9f9" opacity="0.6" style="mix-blend-mode: multiply;isolation: isolate"/>
        <ellipse id="Ellipse_671" data-name="Ellipse 671" cx="33.687" cy="33.687" rx="33.687" ry="33.687" transform="translate(20.546 0.543)" fill="#fff"/>
        <path id="Path_8195" data-name="Path 8195" d="M1145.181-1399.1l19.789-60.22,11.371,6.6,6.994,10.813,3.274,15.041-4.413,10.783-8.257,11.507-11.389,5.472-9.965,1.139Z" transform="translate(-1100.554 1463.694)" fill="#eef9fe" style="mix-blend-mode: multiply;isolation: isolate"/>
        <rect id="Rectangle_2522" data-name="Rectangle 2522" width="3.26" height="3.26" transform="translate(52.603 57.488)" fill="#ccecfc"/>
        <rect id="Rectangle_2523" data-name="Rectangle 2523" width="3.26" height="3.26" transform="translate(52.603 7.713)" fill="#d9f1fd"/>
        <g id="Group_3867" data-name="Group 3867" transform="translate(43.64 19.061)">
          <rect id="Rectangle_2524" data-name="Rectangle 2524" width="21.627" height="3.26" transform="translate(10.6 15.293) rotate(-45)" fill="#fff"/>
          <rect id="Rectangle_2525" data-name="Rectangle 2525" width="3.26" height="11.73" transform="translate(0 9.303) rotate(-45)" fill="#fff"/>
          <rect id="Rectangle_2526" data-name="Rectangle 2526" width="3.26" height="3.26" transform="translate(8.295 17.598) rotate(-45)" fill="#fff"/>
        </g>
        <g id="Group_3868" data-name="Group 3868" transform="translate(43.64 17.353)">
          <rect id="Rectangle_2527" data-name="Rectangle 2527" width="21.627" height="3.26" transform="translate(10.6 15.293) rotate(-45)" fill="#cc1d1d"/>
          <rect id="Rectangle_2528" data-name="Rectangle 2528" width="3.26" height="11.73" transform="translate(0 9.303) rotate(-45)" fill="#cc1d1d"/>
          <rect id="Rectangle_2529" data-name="Rectangle 2529" width="3.26" height="3.26" transform="translate(8.295 17.598) rotate(-45)" fill="#cc1d1d"/>
        </g>
        <rect id="Rectangle_2530" data-name="Rectangle 2530" width="3.26" height="3.26" transform="translate(64.45 55.187) rotate(-30)" fill="#ccecfc"/>
        <rect id="Rectangle_2531" data-name="Rectangle 2531" width="3.26" height="3.26" transform="translate(39.563 12.081) rotate(-30)" fill="#d9f1fd"/>
        <rect id="Rectangle_2532" data-name="Rectangle 2532" width="3.26" height="3.26" transform="translate(73.56 47.271) rotate(-60)" fill="#ccecfc"/>
        <rect id="Rectangle_2533" data-name="Rectangle 2533" width="3.26" height="3.26" transform="translate(30.454 22.384) rotate(-60)" fill="#d9f1fd"/>
        <rect id="Rectangle_2534" data-name="Rectangle 2534" width="3.26" height="3.26" transform="translate(77.491 35.861) rotate(-90)" fill="#ccecfc"/>
        <rect id="Rectangle_2535" data-name="Rectangle 2535" width="3.26" height="3.26" transform="translate(27.716 35.861) rotate(-90)" fill="#d9f1fd"/>
        <rect id="Rectangle_2536" data-name="Rectangle 2536" width="3.26" height="3.26" transform="translate(75.19 24.014) rotate(-120)" fill="#ccecfc"/>
        <rect id="Rectangle_2537" data-name="Rectangle 2537" width="3.26" height="3.26" transform="translate(32.084 48.901) rotate(-120)" fill="#d9f1fd"/>
        <rect id="Rectangle_2538" data-name="Rectangle 2538" width="3.26" height="3.26" transform="translate(67.274 14.905) rotate(-150)" fill="#ccecfc"/>
        <rect id="Rectangle_2539" data-name="Rectangle 2539" width="3.26" height="3.26" transform="translate(42.387 58.011) rotate(-150)" fill="#d9f1fd"/>
        <path id="Path_8196" data-name="Path 8196" d="M1149.494-1456.8a29.118,29.118,0,0,1,29.085,29.085,29.118,29.118,0,0,1-29.085,29.085,29.118,29.118,0,0,1-29.085-29.085,29.118,29.118,0,0,1,29.085-29.085m0-1.519a30.6,30.6,0,0,0-30.6,30.6,30.6,30.6,0,0,0,30.6,30.6,30.6,30.6,0,0,0,30.6-30.6,30.6,30.6,0,0,0-30.6-30.6Z" transform="translate(-1094.501 1463.463)" fill="#d9f1fd"/>
        <path id="Path_8197" data-name="Path 8197" d="M1143.291-1464.953a34.361,34.361,0,0,0-10.216.984,39.613,39.613,0,0,1-9.672,1.108h-17.636a3.071,3.071,0,0,0-3.071,3.071h0a3.07,3.07,0,0,0,3.071,3.07h7.283a2.558,2.558,0,0,1,1.957,4.2q-.114.139-.226.278a2.6,2.6,0,0,1-2.016.988h-20.43a3.068,3.068,0,0,0-3.068,3.071h0a3.071,3.071,0,0,0,3.071,3.071h14.251a2.551,2.551,0,0,1,2.432,3.349q-.059.173-.116.347a2.56,2.56,0,0,1-2.43,1.771h-10.294a3.071,3.071,0,0,0-3.071,3.071h0a3.071,3.071,0,0,0,3.071,3.071h8.472a2.567,2.567,0,0,1,2.557,2.6c0,.044,0,.089,0,.133s0,.089,0,.133a2.568,2.568,0,0,1-2.557,2.6h-2.161a3.07,3.07,0,0,0-3.071,3.07h0a3.071,3.071,0,0,0,3.071,3.071h3.983a2.56,2.56,0,0,1,2.43,1.771c.038.116.076.232.116.347a2.548,2.548,0,0,1-2.427,3.349h-13.645a3.066,3.066,0,0,0-3.065,3.071h0a3.071,3.071,0,0,0,3.071,3.071h19.806a2.606,2.606,0,0,1,2.021.988l.226.277a2.558,2.558,0,0,1-1.957,4.2h-16.558a3.071,3.071,0,0,0-3.071,3.071h0a3.071,3.071,0,0,0,3.071,3.071H1122.7a44.833,44.833,0,0,1,10.618,1.168,34.25,34.25,0,0,0,8.118.971,34.231,34.231,0,0,0,34.209-35.476A34.368,34.368,0,0,0,1143.291-1464.953Zm.256,63.022a28.788,28.788,0,0,1-14.847-2.891,29.056,29.056,0,0,1-7.649-5.467,29.121,29.121,0,0,1-4.7-6.141,28.747,28.747,0,0,1-2.424-5.467,28.713,28.713,0,0,1-1.266-6.141c-.085-.9-.132-1.811-.132-2.733s.048-1.834.132-2.734a28.713,28.713,0,0,1,1.266-6.141,28.766,28.766,0,0,1,2.424-5.467,29.119,29.119,0,0,1,4.7-6.141,29.082,29.082,0,0,1,7.649-5.467,28.74,28.74,0,0,1,12.741-2.966,28.948,28.948,0,0,1,28.905,29.729A29.049,29.049,0,0,1,1143.547-1401.931Zm-50.992-19.966h-2.278a3.071,3.071,0,0,1-3.071-3.071h0a3.07,3.07,0,0,1,3.071-3.07h2.278a3.07,3.07,0,0,1,3.071,3.07h0A3.071,3.071,0,0,1,1092.556-1421.9Zm3.274-34.824h-2.278a3.07,3.07,0,0,1-3.071-3.07h0a3.071,3.071,0,0,1,3.071-3.071h2.278a3.071,3.071,0,0,1,3.071,3.071h0A3.07,3.07,0,0,1,1095.829-1456.721Z" transform="translate(-1087.207 1465.001)" fill="#1294c2"/>
      </g>
    </g>
  </g>
</svg>
