<?xml version="1.0" encoding="utf-8"?>
<!-- Generator: Adobe Illustrator 24.2.3, SVG Export Plug-In . SVG Version: 6.00 Build 0)  -->
<svg version="1.1" id="Layer_1" xmlns="http://www.w3.org/2000/svg" xmlns:xlink="http://www.w3.org/1999/xlink" x="0px" y="0px"
	 viewBox="0 0 51 82.4" style="enable-background:new 0 0 51 82.4;" xml:space="preserve">
<style type="text/css">
	.st0{enable-background:new    ;}
	.st1{fill:#C71F25;}
	.st2{fill:none;stroke:#C71F25;stroke-width:2;}
</style>
<g id="Group_4507" transform="translate(-1254 -548.597)">
	<g class="st0">
		<path class="st1" d="M1261.6,599.6c-0.6-0.4-1.1-0.9-1.5-1.5c-0.3-0.7-0.5-1.4-0.5-2.3c0-0.9,0.2-1.6,0.5-2.3
			c0.3-0.7,0.8-1.2,1.5-1.5c0.6-0.4,1.4-0.5,2.3-0.5c0.6,0,1.1,0.1,1.6,0.3c0.5,0.2,0.9,0.4,1.3,0.7l-0.6,1.3
			c-0.4-0.3-0.8-0.5-1.1-0.6c-0.4-0.1-0.7-0.2-1.1-0.2c-0.8,0-1.4,0.2-1.8,0.7c-0.4,0.5-0.6,1.2-0.6,2.1c0,0.9,0.2,1.7,0.6,2.2
			c0.4,0.5,1,0.7,1.8,0.7c0.4,0,0.8-0.1,1.1-0.2c0.4-0.1,0.7-0.3,1.1-0.6l0.6,1.3c-0.3,0.3-0.8,0.6-1.3,0.7
			c-0.5,0.2-1.1,0.3-1.6,0.3C1263,600.1,1262.2,599.9,1261.6,599.6z"/>
		<path class="st1" d="M1268.4,600v-8.5h1.9v7h3.8v1.5H1268.4z"/>
		<path class="st1" d="M1276.8,599.6c-0.6-0.4-1.1-0.9-1.5-1.5s-0.5-1.4-0.5-2.3s0.2-1.7,0.5-2.3c0.3-0.7,0.8-1.2,1.5-1.5
			c0.6-0.4,1.4-0.5,2.2-0.5s1.6,0.2,2.2,0.5c0.6,0.4,1.1,0.9,1.4,1.5c0.3,0.7,0.5,1.4,0.5,2.3s-0.2,1.7-0.5,2.3s-0.8,1.2-1.4,1.5
			c-0.6,0.4-1.4,0.5-2.2,0.5S1277.4,599.9,1276.8,599.6z M1280.7,597.9c0.4-0.5,0.6-1.2,0.6-2.2c0-0.9-0.2-1.7-0.6-2.2
			c-0.4-0.5-1-0.7-1.7-0.7c-0.7,0-1.3,0.2-1.7,0.7c-0.4,0.5-0.6,1.2-0.6,2.2c0,1,0.2,1.7,0.6,2.2c0.4,0.5,1,0.8,1.7,0.8
			C1279.7,598.6,1280.3,598.4,1280.7,597.9z"/>
		<path class="st1" d="M1286.1,599.8c-0.6-0.2-1.1-0.4-1.5-0.7l0.6-1.3c0.8,0.6,1.7,0.9,2.8,0.9c0.5,0,1-0.1,1.3-0.3
			c0.3-0.2,0.4-0.4,0.4-0.7c0-0.3-0.1-0.5-0.4-0.6c-0.3-0.2-0.7-0.3-1.4-0.4c-0.8-0.2-1.3-0.3-1.8-0.6c-0.4-0.2-0.8-0.5-1-0.8
			s-0.3-0.7-0.3-1.2c0-0.5,0.1-1,0.4-1.4c0.3-0.4,0.7-0.7,1.2-1c0.5-0.2,1.1-0.3,1.8-0.3c0.6,0,1.2,0.1,1.8,0.3s1,0.4,1.3,0.7
			l-0.6,1.3c-0.8-0.6-1.6-0.9-2.5-0.9c-0.5,0-0.9,0.1-1.2,0.3c-0.3,0.2-0.4,0.5-0.4,0.8c0,0.2,0.1,0.4,0.2,0.5
			c0.1,0.1,0.3,0.2,0.5,0.3s0.6,0.2,1.1,0.3c1.1,0.2,1.9,0.6,2.4,0.9c0.5,0.4,0.7,0.9,0.7,1.6c0,0.8-0.3,1.4-0.9,1.9
			s-1.5,0.7-2.6,0.7C1287.3,600.1,1286.7,600,1286.1,599.8z"/>
		<path class="st1" d="M1293.2,600v-8.5h5.9v1.5h-4.1v2h3.8v1.5h-3.8v2.2h4.1v1.5H1293.2z"/>
	</g>
	<g id="Group_4483" transform="translate(-15.28 -16)">
		<line id="Line_273" class="st2" x1="1278.3" y1="565.3" x2="1310.2" y2="597.2"/>
		<line id="Line_274" class="st2" x1="1279.1" y1="597.2" x2="1311" y2="565.3"/>
	</g>
</g>
</svg>
