<svg xmlns="http://www.w3.org/2000/svg" width="33.369" height="34.092" viewBox="0 0 33.369 34.092">
  <g id="thumbs-up" transform="translate(-40.123 -38.825)">
    <path id="Path_2882" data-name="Path 2882" d="M98.427,53.391A3.605,3.605,0,0,0,95.7,52.065c-.694,0-1.387,0-2.081.009-1.269.008-1.9.015-3.167,0a1.233,1.233,0,0,1-1.236-2.044c.079-.157.16-.314.241-.471a13.2,13.2,0,0,0,.956-2.167c.826-2.7.828-7.308-2.43-8.411a2.312,2.312,0,0,0-.746-.154c-.992,0-1.113,1-1.159,1.37a14.937,14.937,0,0,1-2.928,7.627,30.141,30.141,0,0,0-4.891,8.315,2.256,2.256,0,0,1-.637,1.078c-1.733.613-1.677,2-1.64,2.924,0,.085.007.17.009.256.008.279,0,.557,0,.852,0,.161,0,.322,0,.483v9.515l.6.1c.385.062.76.118,1.129.174.8.12,1.556.233,2.3.392.443.095.884.231,1.35.375a10.225,10.225,0,0,0,2.534.55c1.232.057,2.528.085,3.963.085,1.732,0,3.46-.042,4.771-.079a4.628,4.628,0,0,0,4.347-4.416,1.011,1.011,0,0,1,.073-.325c1.957-1.415,1.706-3.4,1.345-4.777a1.817,1.817,0,0,1,.09-.557c.023-.092.046-.183.065-.271a6.636,6.636,0,0,1,.216-.71,3.53,3.53,0,0,0,.277-1.944,4.107,4.107,0,0,1,.1-2.877,1.926,1.926,0,0,0,.149-.537l.006-.038A3.707,3.707,0,0,0,98.427,53.391Z" transform="translate(-25.856)" fill="#0f96c2" opacity="0.742"/>
    <path id="Path_2883" data-name="Path 2883" d="M49,112.347q0-2.906,0-5.812c0-1.144-.34-1.519-1.513-1.532-2.176-.025-4.352.006-6.528-.017-.706-.007-.886.378-.825.956.448,4.241.911,8.48,1.361,12.72a.8.8,0,0,0,.925.837c1.778-.018,3.556.007,5.334-.01.925-.009,1.243-.343,1.246-1.251C49.006,116.275,49,114.311,49,112.347Z" transform="translate(0 -47.726)" fill="#0f96c2"/>
  </g>
</svg>
