<svg id="Group_3724" data-name="Group 3724" xmlns="http://www.w3.org/2000/svg" width="102" height="101.453" viewBox="0 0 102 101.453">
  <ellipse id="Ellipse_603" data-name="Ellipse 603" cx="50.726" cy="50.726" rx="50.726" ry="50.726" transform="translate(0.547 0)" fill="#d9f1fd"/>
  <rect id="Rectangle_2314" data-name="Rectangle 2314" width="71.251" height="44.2" transform="translate(16.117 30.856)" fill="#d9f1fd" style="mix-blend-mode: multiply;isolation: isolate"/>
  <path id="Path_7330" data-name="Path 7330" d="M-499.372,34.257l6.73-2.766-6.73,2.766Z" transform="translate(525.91 -12.479)" fill="none"/>
  <path id="Path_7331" data-name="Path 7331" d="M-439.785,31.842h-.017l-38.569-17.058h0l-38.569,17.058h77.157Z" transform="translate(529.725 -8.852)" fill="#fff"/>
  <path id="Path_7332" data-name="Path 7332" d="M-473.409,21.219h0l21.279,9.411h-43Z" transform="translate(524.988 -10.249)" fill="#c71f25"/>
  <rect id="Rectangle_2315" data-name="Rectangle 2315" width="87.698" height="1.515" transform="translate(7.512 22.99)" fill="#fff"/>
  <rect id="Rectangle_2316" data-name="Rectangle 2316" width="84.807" height="5.913" transform="translate(8.957 24.505)" fill="#d9f1fd"/>
  <rect id="Rectangle_2317" data-name="Rectangle 2317" width="84.807" height="1.407" transform="translate(8.957 24.505)" fill="#c2e9f9" style="mix-blend-mode: multiply;isolation: isolate"/>
  <rect id="Rectangle_2318" data-name="Rectangle 2318" width="85.74" height="2.443" transform="translate(8.491 29.635)" fill="#fff"/>
  <path id="Path_7333" data-name="Path 7333" d="M-464.42,52.462l-.128,36.087a1.221,1.221,0,0,1,.438-.085,1.232,1.232,0,0,1,1.232,1.231,1.232,1.232,0,0,1-1.232,1.232h-6.6a1.232,1.232,0,0,1-1.232-1.232,1.232,1.232,0,0,1,1.232-1.231,1.229,1.229,0,0,1,.438.084l-.127-36.087a1.236,1.236,0,0,1-.311.045,1.232,1.232,0,0,1-1.232-1.231,1.232,1.232,0,0,1,1.232-1.232h6.6a1.232,1.232,0,0,1,1.232,1.232,1.232,1.232,0,0,1-1.232,1.231A1.231,1.231,0,0,1-464.42,52.462Zm-44.786.045a1.232,1.232,0,0,0,1.232-1.231,1.232,1.232,0,0,0-1.232-1.232h-6.6a1.232,1.232,0,0,0-1.232,1.232,1.232,1.232,0,0,0,1.232,1.231,1.232,1.232,0,0,0,.311-.045l.128,36.087a1.233,1.233,0,0,0-.438-.084,1.232,1.232,0,0,0-1.232,1.231,1.232,1.232,0,0,0,1.232,1.232h6.6a1.232,1.232,0,0,0,1.232-1.232,1.232,1.232,0,0,0-1.232-1.231,1.221,1.221,0,0,0-.438.085l.128-36.087A1.226,1.226,0,0,0-509.205,52.507Zm22.915,0a1.232,1.232,0,0,0,1.232-1.231,1.232,1.232,0,0,0-1.232-1.232h-6.6a1.232,1.232,0,0,0-1.232,1.232,1.232,1.232,0,0,0,1.232,1.231,1.226,1.226,0,0,0,.31-.045l.128,36.087a1.23,1.23,0,0,0-.438-.084,1.232,1.232,0,0,0-1.232,1.231,1.232,1.232,0,0,0,1.232,1.232h6.6a1.232,1.232,0,0,0,1.232-1.232,1.232,1.232,0,0,0-1.232-1.231,1.213,1.213,0,0,0-.438.085l.128-36.087A1.225,1.225,0,0,0-486.291,52.507Zm45.1,35.958a1.182,1.182,0,0,0-.236.024L-441.3,52.5c.036,0,.071.011.109.011a1.232,1.232,0,0,0,1.232-1.231,1.232,1.232,0,0,0-1.232-1.232h-6.6a1.232,1.232,0,0,0-1.231,1.232,1.232,1.232,0,0,0,1.231,1.231,1.221,1.221,0,0,0,.513-.115l.128,36.257a1.224,1.224,0,0,0-.64-.184,1.232,1.232,0,0,0-1.231,1.231,1.232,1.232,0,0,0,1.231,1.232h6.6a1.232,1.232,0,0,0,1.232-1.232A1.232,1.232,0,0,0-441.194,88.465Z" transform="translate(529.746 -16.507)" fill="#c2e9f9" style="mix-blend-mode: multiply;isolation: isolate"/>
  <path id="Path_7334" data-name="Path 7334" d="M-464.308,50.679l-.132,37.28a1.261,1.261,0,0,1,.452-.087,1.272,1.272,0,0,1,1.273,1.271,1.272,1.272,0,0,1-1.273,1.273h-6.819a1.274,1.274,0,0,1-1.273-1.273,1.273,1.273,0,0,1,1.273-1.271,1.256,1.256,0,0,1,.452.086l-.132-37.278a1.27,1.27,0,0,1-.32.045,1.273,1.273,0,0,1-1.273-1.271,1.274,1.274,0,0,1,1.273-1.274h6.819a1.273,1.273,0,0,1,1.273,1.274,1.272,1.272,0,0,1-1.273,1.271A1.237,1.237,0,0,1-464.308,50.679Zm-46.265.046a1.272,1.272,0,0,0,1.273-1.271,1.273,1.273,0,0,0-1.273-1.274h-6.819a1.274,1.274,0,0,0-1.272,1.274,1.273,1.273,0,0,0,1.272,1.271,1.247,1.247,0,0,0,.322-.046l.131,37.279a1.273,1.273,0,0,0-.452-.086,1.272,1.272,0,0,0-1.272,1.271,1.273,1.273,0,0,0,1.272,1.273h6.819a1.272,1.272,0,0,0,1.273-1.273,1.272,1.272,0,0,0-1.273-1.271,1.264,1.264,0,0,0-.453.087l.132-37.28A1.241,1.241,0,0,0-510.573,50.725Zm23.672,0a1.272,1.272,0,0,0,1.273-1.271A1.273,1.273,0,0,0-486.9,48.18h-6.819a1.274,1.274,0,0,0-1.273,1.274,1.273,1.273,0,0,0,1.273,1.271,1.27,1.27,0,0,0,.32-.045l.132,37.278a1.277,1.277,0,0,0-.453-.086,1.273,1.273,0,0,0-1.273,1.271,1.273,1.273,0,0,0,1.273,1.273h6.819a1.272,1.272,0,0,0,1.273-1.273,1.272,1.272,0,0,0-1.273-1.271,1.257,1.257,0,0,0-.452.087l.132-37.279A1.275,1.275,0,0,0-486.9,50.725Zm46.586,37.147a1.253,1.253,0,0,0-.244.024l.132-37.182c.038,0,.074.011.113.011a1.273,1.273,0,0,0,1.273-1.271,1.274,1.274,0,0,0-1.273-1.274h-6.819a1.274,1.274,0,0,0-1.273,1.274,1.273,1.273,0,0,0,1.273,1.271,1.262,1.262,0,0,0,.529-.118l.132,37.455a1.263,1.263,0,0,0-.662-.19,1.273,1.273,0,0,0-1.273,1.271,1.273,1.273,0,0,0,1.273,1.273h6.819a1.273,1.273,0,0,0,1.273-1.273A1.273,1.273,0,0,0-440.315,87.872Z" transform="translate(530.099 -16.102)" fill="#0a90b7"/>
  <path id="Path_7335" data-name="Path 7335" d="M-473.409,21.219h0l2.347,1.038-20.076,8.373h-3.987Z" transform="translate(524.988 -10.249)" fill="#c71f25" opacity="0.5" style="mix-blend-mode: multiply;isolation: isolate"/>
  <path id="Path_7336" data-name="Path 7336" d="M-433.454,111.091v-3.314h-1.9v-2.906h-1.9v-2.742h-90.2v2.742h-1.9v2.906h-1.9v3.314h-2.01v3.485h101.826v-3.485Z" transform="translate(533.27 -27.815)" fill="#fff"/>
  <rect id="Rectangle_2319" data-name="Rectangle 2319" width="94.001" height="2.906" transform="translate(3.912 77.056)" fill="#cdecfc" style="mix-blend-mode: multiply;isolation: isolate"/>
  <rect id="Rectangle_2320" data-name="Rectangle 2320" width="101.826" height="3.485" transform="translate(0 83.276)" fill="#cdecfc" style="mix-blend-mode: multiply;isolation: isolate"/>
  <rect id="Rectangle_2321" data-name="Rectangle 2321" width="94.001" height="2.906" transform="translate(3.912 77.056)" fill="#0a90b7"/>
  <path id="Path_7337" data-name="Path 7337" d="M-498.365,67.676H-501.6V60.909h3.239Zm.608-7.291h3.234V57.662h-3.234Zm-.608,0V57.662H-501.6v2.723Zm.608,7.291h3.234V60.909h-3.234Zm3.234-11.952H-501.6v.51h7.081Zm19.073,5.185h-3.239v6.767h3.239Zm.608-.525h3.234V57.662h-3.234Zm-.608,0V57.662h-3.239v2.723Zm.608,7.291h3.234V60.909h-3.234Zm3.234-11.952h-7.08v.51h7.08Zm19.073,5.185h-3.239v6.767h3.239Zm.608-.525h3.234V57.662h-3.234Zm-.608,0V57.662h-3.239v2.723Zm.608,7.291h3.234V60.909h-3.234Zm3.234-11.952h-7.081v.51h7.081Zm-49.671,23.558H-501.6v6.767h3.239Zm.608-.525h3.234V76.035h-3.234Zm-.608,0V76.035H-501.6v2.723Zm.608,7.291h3.234V79.282h-3.234Zm3.234-11.952H-501.6v.51h7.081Zm41.987,5.185h-3.239v6.767h3.239Zm.608-.525h3.234V76.035h-3.234Zm-.608,0V76.035h-3.239v2.723Zm.608,7.291h3.234V79.282h-3.234Zm3.234-11.952h-7.081v.51h7.081Zm-31.517,18.06V81.094h10.124V92.157Zm0-12.612a5.265,5.265,0,0,1,5.062-5.447,5.263,5.263,0,0,1,5.061,5.447v.777h-10.124Z" transform="translate(526.395 -17.74)" fill="#d9f1fd"/>
  <rect id="Rectangle_2322" data-name="Rectangle 2322" width="101.826" height="3.485" transform="translate(0 83.276)" fill="#0a90b7"/>
  <path id="Path_7338" data-name="Path 7338" d="M-498.365,67.676H-501.6V60.909h3.239Zm.608-7.291h3.234V57.662h-3.234Zm-.608,0V57.662H-501.6v2.723Zm.608,7.291h3.234V60.909h-3.234Zm3.234-11.952H-501.6v.51h7.081Zm19.073,5.185h-3.239v6.767h3.239Zm.608-.525h3.234V57.662h-3.234Zm-.608,0V57.662h-3.239v2.723Zm.608,7.291h3.234V60.909h-3.234Zm3.234-11.952h-7.08v.51h7.08Zm19.073,5.185h-3.239v6.767h3.239Zm.608-.525h3.234V57.662h-3.234Zm-.608,0V57.662h-3.239v2.723Zm.608,7.291h3.234V60.909h-3.234Zm3.234-11.952h-7.081v.51h7.081Zm-49.671,23.558H-501.6v6.767h3.239Zm.608-.525h3.234V76.035h-3.234Zm-.608,0V76.035H-501.6v2.723Zm.608,7.291h3.234V79.282h-3.234Zm3.234-11.952H-501.6v.51h7.081Zm41.987,5.185h-3.239v6.767h3.239Zm.608-.525h3.234V76.035h-3.234Zm-.608,0V76.035h-3.239v2.723Zm.608,7.291h3.234V79.282h-3.234Zm3.234-11.952h-7.081v.51h7.081Zm-31.517,18.06V81.094h10.124V92.157Zm0-12.612a5.265,5.265,0,0,1,5.062-5.447,5.263,5.263,0,0,1,5.061,5.447v.777h-10.124Z" transform="translate(526.395 -17.74)" fill="#fff"/>
</svg>
