<svg xmlns="http://www.w3.org/2000/svg" viewBox="0 0 129.62 129.59"><defs><style>.cls-1{fill:#d9f1fd;}.cls-11,.cls-2{fill:#f0f0f0;}.cls-3{opacity:0.13;}.cls-4{fill:#757575;}.cls-5{fill:#333;}.cls-6{fill:#c81f25;}.cls-7{fill:gray;}.cls-8{fill:#b5b5b5;}.cls-13,.cls-9{fill:#162e51;}.cls-10{fill:#fff;}.cls-11{opacity:0.5;}.cls-12{fill:#1a4480;}.cls-13{opacity:0.37;}.cls-14{fill:#981c20;opacity:0.55;}</style></defs><g id="Layer_2" data-name="Layer 2"><g id="Icon_Art" data-name="Icon Art"><circle class="cls-1" cx="64.82" cy="64.79" r="64.79"/><path class="cls-2" d="M4.87,93,0,95.8V98l15.73,9.09A64.75,64.75,0,0,1,5.26,90.31,8.8,8.8,0,0,1,4.87,93Z"/><g class="cls-3"><path class="cls-4" d="M9.35,86.86C8,87.92,6.67,89,5.25,90.19h0s0,.08,0,.12a64.75,64.75,0,0,0,10.47,16.75l32,18.47h0l33-19.07a1.67,1.67,0,0,0,.44-.44c.66,1.13,2.5,1.14,4.74-.16a11,11,0,0,0,4.75-5.32.53.53,0,0,0,.43-.07l33-19.07V79.24L104.55,90.57l19.61-11.33-5.21-3c0-.12,0-.26.09-.41l-3.44-2,.17-.74h0l-5.47-3.16,1-.44.09-.77m3.65,4.56-.28.08h0ZM90.66,98.59l-.93.53h0Z"/></g><path class="cls-5" d="M76.43,49.58v2.17l-33,19.07a.53.53,0,0,1-.43.06,8.68,8.68,0,0,1-1.54,2.61,11.9,11.9,0,0,1-3.21,2.72c-2.24,1.29-4.08,1.29-4.75.15a1.21,1.21,0,0,1-.43.44l-31.15,18L0,93.7,34.46,73.81c.34-.19.63,0,.63.38a.48.48,0,0,0,.15.36,1,1,0,0,0,.7.24A4.72,4.72,0,0,0,38.22,74,8.93,8.93,0,0,0,40,72.68c.18-.18.34-.36.49-.53a4.88,4.88,0,0,0,.69-1,1.39,1.39,0,0,0,.15-.53A1.4,1.4,0,0,1,42,69.46l1.23-.71.08,0Z"/><polygon class="cls-6" points="85.96 99.2 124.17 77.14 76.43 49.58 38.22 71.64 85.96 99.2"/><polygon class="cls-7" points="87.21 96.31 43.23 70.92 76.43 51.75 120.41 77.14 87.21 96.31"/><path class="cls-6" d="M82.45,101.23l.14.08a.51.51,0,0,0-.41.08l-1.24.7-.07,0L47.74,121.27,1.89,94.78,0,93.7,34.46,73.81l3.76-2.17,1.8,1,1.41.81L82.79,97.37l-.42.59a12,12,0,0,1-1.85,2.16Z"/><path class="cls-8" d="M86,99.2l-3.51,2-1.93-1.11A12,12,0,0,0,82.37,98l.42-.59Z"/><path class="cls-9" d="M124.17,77.14v2.17l-33,19.07a.55.55,0,0,1-.44.07A10.93,10.93,0,0,1,86,103.77c-2.24,1.3-4.09,1.29-4.74.16a1.56,1.56,0,0,1-.45.44l-33,19.07v-2.17l33.13-19.13.07,0,1.24-.7a.51.51,0,0,1,.41-.08l.06,0h0a.34.34,0,0,1,.12.2.32.32,0,0,1,0,.09v.1a.49.49,0,0,0,.15.36,1,1,0,0,0,.71.24h.08l.23,0,.29,0,.18,0,.53-.18a6.05,6.05,0,0,0,1-.47,8.69,8.69,0,0,0,2.28-1.89,4.14,4.14,0,0,0,.7-1,1.31,1.31,0,0,0,.15-.52A1.4,1.4,0,0,1,89.74,97L91,96.3l.07,0Z"/><path class="cls-1" d="M42.4,66.66c-.71.88-1.42,1.8-2.13,2.74l-.34-.4c.67-.89,1.34-1.76,2-2.6l.42.25Z"/><path class="cls-1" d="M42.12,66.5c-.59.91-1.19,1.86-1.81,2.85L39.9,69c.61-1,1.2-1.9,1.78-2.8l.27.16Z"/><path class="cls-2" d="M49.24,113.48a9.1,9.1,0,0,1-.66,3.66c0,.15-.12.32-.18.48-.2.5-.42,1-.66,1.47L3.77,93.7c.23-.47.45-1,.65-1.48.07-.16.13-.32.18-.47a9.12,9.12,0,0,0,.66-3.66l4.11,2.37Z"/><path class="cls-2" d="M82.22,94.62C75.3,95.06,67,99.4,54.53,109.19,64.64,97.92,73.73,93.14,82.22,94.62Z"/><path class="cls-10" d="M84.07,94.59c-.61,0-1.22,0-1.85,0-8.49-1.48-17.58,3.3-27.69,14.57l-1.2,1c-1.32,1-2.69,2.17-4.1,3.34l-39.86-23L5.26,88.09C22,74.22,31.9,68.9,40.1,69.2h0L82.8,93.86Z"/><polygon class="cls-2" points="53.48 110.39 9.5 84.99 9.22 84.51 9.68 84.78 53.19 109.9 53.48 110.39"/><path class="cls-1" d="M9.68,84.78c0,.07-.12.14-.18.21l-.28-.48Z"/><path class="cls-2" d="M82.8,93.86c-6-1.14-12.38.82-19.17,6l-44-25.39C27,68.88,33.8,67,40.28,68.8l-.19.4L76.63,90.29l4.08.67Z"/><path class="cls-10" d="M63.63,99.85A71.4,71.4,0,0,0,53.19,109.9L9.68,84.78l-.46-.27A71.37,71.37,0,0,1,19.65,74.46Z"/><path class="cls-2" d="M83,92.82a10.05,10.05,0,0,0-1.57-1.13l-7.49-4.32a10.57,10.57,0,0,1,8.9,5.13C82.87,92.61,82.92,92.71,83,92.82Z"/><path class="cls-10" d="M79.59,88.12a12.61,12.61,0,0,0-7-1.53,20,20,0,0,0-11.68,5.17l-39.82-23-.62-.36-3-1.73-.52-.31c6.5-5.58,13.57-6.32,18.31-3.85L36,63l.06,0,5.6,3.23.27.16.17.1.25.15h0L46.5,69Z"/><polygon class="cls-2" points="61.03 92.37 20.61 69.04 19.99 68.68 17.06 66.99 16.91 66.37 17.43 66.68 20.45 68.41 21.07 68.77 60.89 91.76 61.03 92.37"/><polygon class="cls-2" points="57.27 99.79 13.3 74.4 13.14 73.8 13.65 74.09 57.11 99.19 57.27 99.79"/><path class="cls-2" d="M119.05,73.72c-16.52,5.37-26.54,11-34.69,20.54A11.19,11.19,0,0,0,84,93.19a10.1,10.1,0,0,0-4.41-5.07L46.5,69l-4.13-2.38c7.81-8.24,17.5-13.38,32.7-18.32Z"/><path class="cls-10" d="M111.71,72.2c-9.91,3.46-19,10.54-27.46,21.72-.07-.25-.16-.49-.25-.73a10.1,10.1,0,0,0-4.41-5.07L46.5,69l-4.1-2.37h0L42,66.4c8-10,16.53-16.35,25.79-19.59Z"/><path class="cls-10" d="M115.77,71c-1.37.34-2.72.74-4.06,1.21l-44-25.39c1.33-.47,2.68-.87,4.05-1.21Z"/><path class="cls-2" d="M120.41,77.14,87.86,95.94a3.24,3.24,0,0,1-2.08,0,2.1,2.1,0,0,0-1.7,0h0A7.09,7.09,0,0,0,82.37,98a10.81,10.81,0,0,1-2.07,2.34L47.74,119.09c.24-.47.46-1,.66-1.47.06-.16.13-.33.18-.48a9.1,9.1,0,0,0,.66-3.66c10.55-8.77,18.4-14.11,24.82-16.78a23.5,23.5,0,0,1,10-2.11l0,0,.27-.31a2.2,2.2,0,0,1,.2-.23c8.11-9.43,18.11-15,34.49-20.31-.39,1.47-.07,1.5.52,2.44a2.48,2.48,0,0,0,.19.26A3.78,3.78,0,0,0,120.41,77.14Z"/><path class="cls-1" d="M54.92,113.2l-1.08.71c-.64.41-1.5,1-2.36,1.54s-1.71,1.17-2.35,1.61l-.73.55.18-.47.52-.37c.65-.41,1.51-1,2.38-1.5s1.72-1,2.36-1.42Z"/><path class="cls-2" d="M84.38,94.32l-.29.25h0l-.29.26a10.17,10.17,0,0,0-.79-2h0c0-.11-.1-.21-.16-.32a10.57,10.57,0,0,0-8.9-5.13c-4-.21-8.54,1.28-12.88,5l-.14-.61a20,20,0,0,1,11.68-5.17,12.61,12.61,0,0,1,7,1.53A10.1,10.1,0,0,1,84,93.19a5.3,5.3,0,0,1,.23.67.14.14,0,0,1,0,.06,3.38,3.38,0,0,1,.11.34Z"/><path class="cls-2" d="M84.25,94.19l-.18.4-.19.4a15.89,15.89,0,0,0-1.66-.37c-8.49-1.48-17.58,3.3-27.69,14.57l-1.06,1.2-.14-.25-.14-.24c10.86-12.49,20.56-17.76,29.61-16C83.29,94,83.77,94.06,84.25,94.19Z"/><path class="cls-2" d="M81.4,91.69a11,11,0,0,0-4.77-1.4,21,21,0,0,0-10.88,2.77L62.51,91.2A17.8,17.8,0,0,1,73.9,87.37Z"/><path class="cls-10" d="M65.75,93.06a43.53,43.53,0,0,0-8.64,6.12L13.65,74.09l-.52-.29A45.33,45.33,0,0,1,20,68.68l.62.36L61,92.37c.49-.42,1-.81,1.48-1.17Z"/><path class="cls-2" d="M84.34,94.24l-.28.36-.25.34a9.4,9.4,0,0,0-1-1.08,9.61,9.61,0,0,0-4-2.32c-5.7-1.7-13.62,1.19-21.52,8.25l-.17-.61c7-6.23,14-9.28,19.52-8.89a11,11,0,0,1,4.77,1.4A10.05,10.05,0,0,1,83,92.82h0A10.79,10.79,0,0,1,84.34,94.24Z"/><path class="cls-2" d="M115.77,71l-.17.79c-11.46,2.83-21.77,10.25-31.36,23l-.17-.2-.17-.2c.12-.16.23-.32.35-.47C93.9,81.23,104.26,73.83,115.77,71Z"/><path class="cls-2" d="M111.42,66.62l-.09.77C99,72.48,94.26,78.94,84.28,94.74l-.21-.15h0l-.2-.15c.12-.2.24-.38.36-.57C94.11,78.23,99,71.74,111.42,66.62Z"/><path class="cls-10" d="M111.42,66.62C99,71.74,94.11,78.23,84.23,93.86a5.3,5.3,0,0,0-.23-.67,10.1,10.1,0,0,0-4.41-5.07L46.5,69l-4.1-2.37h0l-.25-.15L42,66.4l-.27-.16c9-14,13.9-20.13,25.76-25Z"/><polygon class="cls-9" points="47.74 121.27 47.74 123.43 0.01 95.87 0.01 93.7 1.89 94.78 47.74 121.27"/><path class="cls-9" d="M89.74,97a1.4,1.4,0,0,0-.65,1.12,1.31,1.31,0,0,1-.15.52,4.14,4.14,0,0,1-.7,1A8.69,8.69,0,0,1,86,101.6a6.05,6.05,0,0,1-1,.47l-.53.18-.18,0-.29,0-.23,0h-.08a1,1,0,0,1-.71-.24.49.49,0,0,1-.15-.36v-.1a.32.32,0,0,0,0-.09.34.34,0,0,0-.12-.2h0l-.06,0-.14-.08-1.93-1.11A12,12,0,0,0,82.37,98l.42-.59A4.84,4.84,0,0,1,84.07,96h0a2.1,2.1,0,0,1,1.7,0,3.24,3.24,0,0,0,2.08,0Z"/><path class="cls-11" d="M91.09,5.06A32.19,32.19,0,0,0,62,51.08l-5.6,16L73.16,64A32.17,32.17,0,1,0,91.09,5.06Z"/><path class="cls-12" d="M89.91,3.33a32.18,32.18,0,0,0-29,46l-5.61,16L72,62.22A32.17,32.17,0,1,0,89.91,3.33Z"/><path class="cls-6" d="M83.14,52.57V46.83H86V31.62h-2.9V25.88H94v21h2.55v5.74ZM94.7,18.38a4.63,4.63,0,1,1-7.89-3.27,4.63,4.63,0,0,1,7.89,3.27Z"/><path class="cls-13" d="M89.91,3.33H89.6V13.8a3.71,3.71,0,0,1,.48-.05,4.51,4.51,0,0,1,3.26,1.36,4.62,4.62,0,0,1,0,6.54A4.5,4.5,0,0,1,90.08,23,3.71,3.71,0,0,1,89.6,23v2.92H94v21h2.55v5.74H89.6V67.66h.31a32.17,32.17,0,0,0,0-64.34Z"/><path class="cls-14" d="M90.08,23A3.71,3.71,0,0,1,89.6,23V13.8a3.71,3.71,0,0,1,.48-.05,4.51,4.51,0,0,1,3.26,1.36,4.62,4.62,0,0,1,0,6.54A4.5,4.5,0,0,1,90.08,23Zm6.46,23.82H94V25.88H89.6V52.57h6.94Z"/></g></g></svg>