<svg xmlns="http://www.w3.org/2000/svg" width="169.773" height="169.773" viewBox="0 0 169.773 169.773">
  <g id="Group_3693" data-name="Group 3693" transform="translate(0 0)">
    <g id="Circles" transform="translate(0 0)">
      <ellipse id="Ellipse_627" data-name="Ellipse 627" cx="84.887" cy="84.887" rx="84.887" ry="84.887" fill="#d9f1fd"/>
    </g>
    <g id="Icon_Art" data-name="Icon Art" transform="translate(12.713 27.007)">
      <g id="Group_3692" data-name="Group 3692">
        <path id="Path_7784" data-name="Path 7784" d="M157.98,112.582H20.633a3.526,3.526,0,0,1-3.556-3.5V99.449H161.535v9.636A3.527,3.527,0,0,1,157.98,112.582Z" transform="translate(-17.035 -5.608)" fill="#fff"/>
        <path id="Path_7785" data-name="Path 7785" d="M161.587,119.865H17.045V35.4a1.788,1.788,0,0,1,1.788-1.788H159.8a1.788,1.788,0,0,1,1.788,1.788Z" transform="translate(-17.045 -26.024)" fill="#162e51"/>
        <rect id="Rectangle_2399" data-name="Rectangle 2399" width="132.433" height="74.508" transform="translate(6.055 13.738)" fill="#1a98c5"/>
        <path id="Path_7786" data-name="Path 7786" d="M94,123.22a1.145,1.145,0,0,1-.838-.979l-1.437-12.768H62.513l-1.349,12.768a1.125,1.125,0,0,1-.786.979l-4.727,1.457H99.037Z" transform="translate(-5.073 -2.499)" fill="#fff"/>
        <path id="Path_7787" data-name="Path 7787" d="M91.1,121.214,89.78,109.473H60.566l-.018.167Z" transform="translate(-3.554 -2.499)" fill="#f4f4f4" style="mix-blend-mode: multiply;isolation: isolate"/>
        <g id="Group_3683" data-name="Group 3683" transform="translate(35.39 39.91)" opacity="0.5" style="mix-blend-mode: multiply;isolation: isolate">
          <path id="Path_7788" data-name="Path 7788" d="M44.058,106.62H117.82L44.058,58.284Z" transform="translate(-44.058 -58.284)" fill="#d9f1fd"/>
        </g>
        <g id="Group_3684" data-name="Group 3684" transform="translate(15.479)">
          <rect id="Rectangle_2400" data-name="Rectangle 2400" width="113.585" height="6.503" transform="translate(0 81.414)" fill="#d9f1fd"/>
          <path id="Path_7789" data-name="Path 7789" d="M79.153,27.821H28.86v81.413H79.153a6.5,6.5,0,0,1,6.5,6.5V34.322A6.5,6.5,0,0,0,79.153,27.821Z" transform="translate(-28.86 -27.821)" fill="#fff"/>
          <path id="Path_7790" data-name="Path 7790" d="M78.71,27.821H129v81.413H78.71a6.5,6.5,0,0,0-6.5,6.5V34.322A6.5,6.5,0,0,1,78.71,27.821Z" transform="translate(-15.416 -27.821)" fill="#fff"/>
          <path id="Path_7791" data-name="Path 7791" d="M67.248,27.821v81.413a6.5,6.5,0,0,1,6.5,6.5V34.322A6.5,6.5,0,0,0,67.248,27.821Z" transform="translate(-16.955 -27.821)" fill="#eff9fe"/>
        </g>
        <g id="Group_3691" data-name="Group 3691" transform="translate(21.98 8.59)">
          <g id="Group_3686" data-name="Group 3686" transform="translate(63.291)">
            <g id="Group_3685" data-name="Group 3685">
              <rect id="Rectangle_2401" data-name="Rectangle 2401" width="37.291" height="3.059" fill="#d9f1fd"/>
              <rect id="Rectangle_2402" data-name="Rectangle 2402" width="37.291" height="3.057" transform="translate(0 6.118)" fill="#d9f1fd"/>
              <rect id="Rectangle_2403" data-name="Rectangle 2403" width="37.291" height="3.061" transform="translate(0 12.234)" fill="#d9f1fd"/>
              <rect id="Rectangle_2404" data-name="Rectangle 2404" width="37.291" height="3.059" transform="translate(0 18.353)" fill="#d9f1fd"/>
              <rect id="Rectangle_2405" data-name="Rectangle 2405" width="37.291" height="3.06" transform="translate(0 24.47)" fill="#d9f1fd"/>
              <rect id="Rectangle_2406" data-name="Rectangle 2406" width="37.291" height="3.059" transform="translate(0 30.587)" fill="#d9f1fd"/>
              <rect id="Rectangle_2407" data-name="Rectangle 2407" width="37.291" height="3.059" transform="translate(0 36.704)" fill="#d9f1fd"/>
              <rect id="Rectangle_2408" data-name="Rectangle 2408" width="37.291" height="3.059" transform="translate(0 42.822)" fill="#d9f1fd"/>
              <rect id="Rectangle_2409" data-name="Rectangle 2409" width="37.291" height="3.058" transform="translate(0 48.94)" fill="#d9f1fd"/>
              <rect id="Rectangle_2410" data-name="Rectangle 2410" width="37.291" height="3.058" transform="translate(0 55.057)" fill="#d9f1fd"/>
              <rect id="Rectangle_2411" data-name="Rectangle 2411" width="37.291" height="3.059" transform="translate(0 61.174)" fill="#d9f1fd"/>
            </g>
          </g>
          <g id="Group_3690" data-name="Group 3690">
            <g id="Group_3687" data-name="Group 3687" transform="translate(0 30.587)">
              <rect id="Rectangle_2412" data-name="Rectangle 2412" width="18.645" height="3.059" fill="#c71f25"/>
              <rect id="Rectangle_2413" data-name="Rectangle 2413" width="27.967" height="3.059" transform="translate(9.325 6.117)" fill="#d9f1fd"/>
              <rect id="Rectangle_2414" data-name="Rectangle 2414" width="27.967" height="3.059" transform="translate(9.325 12.234)" fill="#d9f1fd"/>
            </g>
            <g id="Group_3688" data-name="Group 3688" transform="translate(0 48.94)">
              <rect id="Rectangle_2415" data-name="Rectangle 2415" width="18.645" height="3.058" fill="#c71f25"/>
              <rect id="Rectangle_2416" data-name="Rectangle 2416" width="27.967" height="3.059" transform="translate(9.325 6.117)" fill="#d9f1fd"/>
              <rect id="Rectangle_2417" data-name="Rectangle 2417" width="27.967" height="3.059" transform="translate(9.325 12.234)" fill="#d9f1fd"/>
            </g>
            <rect id="Rectangle_2418" data-name="Rectangle 2418" width="37.292" height="3.061" fill="#d9f1fd"/>
            <g id="Group_3689" data-name="Group 3689" transform="translate(0 6.118)">
              <rect id="Rectangle_2419" data-name="Rectangle 2419" width="37.292" height="21.412" fill="#d9f1fd"/>
              <path id="Path_7792" data-name="Path 7792" d="M45.711,44.513l6.142,3.545L45.711,51.6Z" transform="translate(-30.135 -37.353)" fill="#c71f25"/>
            </g>
          </g>
        </g>
      </g>
    </g>
  </g>
</svg>
