<svg xmlns="http://www.w3.org/2000/svg" xmlns:xlink="http://www.w3.org/1999/xlink" width="138.598" height="138.5" viewBox="0 0 138.598 138.5">
  <defs>
    <clipPath id="clip-path">
      <ellipse id="Ellipse_626" data-name="Ellipse 626" cx="69.25" cy="69.25" rx="69.25" ry="69.25" fill="none"/>
    </clipPath>
    <linearGradient id="linear-gradient" x1="-28.057" y1="-14.67" x2="-27.091" y2="-14.67" gradientUnits="objectBoundingBox">
      <stop offset="0" stop-color="#f1f0f5"/>
      <stop offset="1" stop-color="#e1e1e5"/>
    </linearGradient>
    <linearGradient id="linear-gradient-2" x1="0.276" y1="0.287" x2="1.095" y2="1.065" gradientUnits="objectBoundingBox">
      <stop offset="0" stop-color="#361a15"/>
      <stop offset="1" stop-color="#412420"/>
    </linearGradient>
    <linearGradient id="linear-gradient-3" y1="0.5" x2="1" y2="0.5" gradientUnits="objectBoundingBox">
      <stop offset="0" stop-color="#412420"/>
      <stop offset="1" stop-color="#51312c"/>
    </linearGradient>
    <linearGradient id="linear-gradient-4" x1="0.351" y1="0.778" x2="0.808" y2="-0.055" xlink:href="#linear-gradient-2"/>
    <linearGradient id="linear-gradient-5" x1="0.592" y1="0.931" x2="0.303" y2="-0.032" xlink:href="#linear-gradient-2"/>
    <linearGradient id="linear-gradient-6" y1="0.5" x2="1" y2="0.5" gradientUnits="objectBoundingBox">
      <stop offset="0" stop-color="#412420"/>
      <stop offset="1" stop-color="#361a15"/>
    </linearGradient>
    <linearGradient id="linear-gradient-7" x1="0.43" y1="-0.762" x2="0.537" y2="1.403" xlink:href="#linear-gradient-2"/>
    <linearGradient id="linear-gradient-8" x1="0.369" y1="-1.602" x2="0.522" y2="1.097" xlink:href="#linear-gradient-2"/>
    <linearGradient id="linear-gradient-9" x1="0.508" y1="0.306" x2="0.061" y2="1.428" xlink:href="#linear-gradient-2"/>
    <linearGradient id="linear-gradient-10" x1="0.598" y1="0.095" x2="0.228" y2="1.628" xlink:href="#linear-gradient-2"/>
    <linearGradient id="linear-gradient-11" x1="0.5" y1="0.392" x2="0.462" y2="4.283" xlink:href="#linear-gradient-2"/>
    <linearGradient id="linear-gradient-12" x1="0.434" y1="-0.471" x2="0.521" y2="0.927" xlink:href="#linear-gradient-3"/>
    <linearGradient id="linear-gradient-13" x1="0.46" y1="-0.29" x2="0.525" y2="0.912" xlink:href="#linear-gradient-3"/>
    <linearGradient id="linear-gradient-14" x1="0.437" y1="-0.438" x2="0.592" y2="0.923" xlink:href="#linear-gradient-3"/>
    <linearGradient id="linear-gradient-15" x1="-0.223" y1="-0.385" x2="0.981" y2="0.911" xlink:href="#linear-gradient-3"/>
    <linearGradient id="linear-gradient-16" x1="0.488" y1="0.023" x2="1.159" y2="2.113" xlink:href="#linear-gradient-2"/>
    <linearGradient id="linear-gradient-17" x1="0.299" y1="0.03" x2="0.733" y2="2.125" xlink:href="#linear-gradient-2"/>
    <linearGradient id="linear-gradient-18" x1="0.416" y1="0.036" x2="0.799" y2="2.117" xlink:href="#linear-gradient-2"/>
    <linearGradient id="linear-gradient-19" x1="0.464" y1="0.246" x2="0.883" y2="2.482" xlink:href="#linear-gradient-2"/>
    <linearGradient id="linear-gradient-20" x1="0.311" y1="-0.362" x2="0.593" y2="0.915" xlink:href="#linear-gradient-3"/>
    <linearGradient id="linear-gradient-21" x1="0.233" y1="-0.407" x2="0.577" y2="0.921" xlink:href="#linear-gradient-3"/>
    <linearGradient id="linear-gradient-22" x1="0" y1="0.5" x2="1" y2="0.5" xlink:href="#linear-gradient-2"/>
    <linearGradient id="linear-gradient-23" x1="3.343" y1="-0.301" x2="-2.44" y2="1.084" gradientUnits="objectBoundingBox">
      <stop offset="0" stop-color="#f0c499"/>
      <stop offset="0.517" stop-color="#f1c69b"/>
      <stop offset="0.855" stop-color="#f4cea4"/>
      <stop offset="1" stop-color="#f7d4ab"/>
    </linearGradient>
    <linearGradient id="linear-gradient-24" x1="-0.121" y1="0.87" x2="1.479" y2="-0.228" xlink:href="#linear-gradient-23"/>
    <linearGradient id="linear-gradient-25" x1="0.541" y1="-0.317" x2="0.474" y2="1.158" gradientUnits="objectBoundingBox">
      <stop offset="0" stop-color="#e74e44"/>
      <stop offset="0.402" stop-color="#e7554c"/>
      <stop offset="1" stop-color="#ea6861"/>
    </linearGradient>
    <linearGradient id="linear-gradient-26" x1="-0.617" y1="-0.582" x2="0.766" y2="0.788" gradientUnits="objectBoundingBox">
      <stop offset="0" stop-color="#d43629"/>
      <stop offset="0.608" stop-color="#de4337"/>
      <stop offset="1" stop-color="#e74e44"/>
    </linearGradient>
    <linearGradient id="linear-gradient-27" x1="0" y1="0.5" x2="1" y2="0.5" xlink:href="#linear-gradient-26"/>
  </defs>
  <g id="Group_3911" data-name="Group 3911" transform="translate(0 0)">
    <g id="Circles" transform="translate(0 0)">
      <ellipse id="Ellipse_624" data-name="Ellipse 624" cx="69.25" cy="69.25" rx="69.25" ry="69.25" fill="#fff"/>
    </g>
    <g id="Icon_Art" data-name="Icon Art" transform="translate(0.098 0)">
      <g id="Group_3681" data-name="Group 3681">
        <g id="Group_3669" data-name="Group 3669" transform="translate(8.44 15)">
          <g id="Group_3668" data-name="Group 3668">
            <g id="Group_3635" data-name="Group 3635" transform="translate(2.443 0.886)">
              <path id="Path_7633" data-name="Path 7633" d="M778.955,22.232l-.064.019-.029.008-.531.155-.057.016-1,.288-31.337,9.043-2.315.668-3.236.934-.251.072L736.094,34.6l-.048-.163.064-.019,3.415-.985.248-.072,3.239-.934,2.312-.668,31.952-9.222,1.079-.31h0l.19-.056h0l.256-.075.054-.016.048-.013.008.029Z" transform="translate(-736.046 -22.07)" fill="#101010"/>
            </g>
            <g id="Group_3636" data-name="Group 3636" transform="translate(45.165 0.886)">
              <path id="Path_7634" data-name="Path 7634" d="M818.924,34.439l-.048.163-.064-.019-3.978-1.148-.248-.072-3.239-.934-2.312-.668-31.323-9.041-.932-.27-.049-.013-.619-.179-.094-.027.037-.133.005-.021v0l0-.005.014,0h0l.029.011.019.005.037.011.385.112h0l.154.045h0l1,.289,31.935,9.217,2.312.668,3.239.934.248.072Z" transform="translate(-776.019 -22.07)" fill="#101010"/>
            </g>
            <g id="Group_3639" data-name="Group 3639" transform="translate(44.97 81.438)">
              <g id="Group_3637" data-name="Group 3637">
                <path id="Path_7635" data-name="Path 7635" d="M799.57,120.474l-.379.379-.32.318-1.45-1.45-.3-.3-18.473-18.474-.424-.424-.5-.5-1.172-1.172-.363-.364-.352-.352.352-.352.347-.348.016.016.643.643.529.529.5.5.424.424,19.171,19.174.3.3Z" transform="translate(-775.836 -97.438)" fill="#474747"/>
              </g>
              <g id="Group_3638" data-name="Group 3638" transform="translate(21.213 21.152)">
                <path id="Path_7636" data-name="Path 7636" d="M799.623,120.794l-.248.249-.128.128a.8.8,0,0,1-1.123,0l-.3-.3-2.141-2.144.371-.368.317-.322.812-.81,2.439,2.439A.8.8,0,0,1,799.623,120.794Z" transform="translate(-795.684 -117.229)" fill="#474747"/>
              </g>
            </g>
            <g id="Group_3640" data-name="Group 3640" transform="translate(21.942 81.438)">
              <path id="Path_7637" data-name="Path 7637" d="M778.02,98.137l-.35.352-.561.558-22.123,22.124-.328-.329-.369-.369,1.452-1.452.211-.211L775.1,99.665l.425-.425.5-.5.942-.94.147-.149.214-.214.347.348Z" transform="translate(-754.29 -97.438)" fill="#323232"/>
            </g>
            <path id="Path_7638" data-name="Path 7638" d="M756.9,118.729l-2.233,2.235a.8.8,0,0,1-1.123,0l-.136-.139-.238-.237a.8.8,0,0,1,0-1.126l2.229-2.228.433.432.211-.212.369.369.328.329-.21.209Z" transform="translate(-732.441 -14.639)" opacity="0.2"/>
            <path id="Path_7639" data-name="Path 7639" d="M756.917,118.729l-2.233,2.235-.207.208a.8.8,0,0,1-1.128,0l-.136-.139-.237-.238a.8.8,0,0,1,0-1.126l.211-.211,2.229-2.228.433.432.369.369.328.327Z" transform="translate(-732.454 -14.639)" fill="#242424"/>
            <g id="Group_3641" data-name="Group 3641" transform="translate(44.97 81.438)">
              <path id="Path_7640" data-name="Path 7640" d="M799.57,120.474l-.379.379-.32.318-1.45-1.45-.3-.3-18.473-18.474-.424-.424-.5-.5-1.172-1.172-.363-.364-.352-.352.352-.352.347-.348.016.016.643.643.529.529.5.5.424.424,19.171,19.174.3.3Z" transform="translate(-775.836 -97.438)" fill="#323232"/>
            </g>
            <path id="Path_7641" data-name="Path 7641" d="M799.323,120.493l-.249.249-.125.127a.793.793,0,0,1-1.124,0l-2.141-2.144.371-.368-.3-.3.318-.32.379-.379.3.3.433-.432,2.139,2.138A.8.8,0,0,1,799.323,120.493Z" transform="translate(-729.501 -14.639)" opacity="0.2"/>
            <path id="Path_7642" data-name="Path 7642" d="M799.623,120.794l-.248.249-.128.128a.8.8,0,0,1-1.123,0l-.3-.3-2.141-2.144.371-.368.317-.322.812-.81,2.439,2.439A.8.8,0,0,1,799.623,120.794Z" transform="translate(-729.501 -14.639)" fill="#242424"/>
            <g id="Group_3642" data-name="Group 3642" transform="translate(44.803 68.099)">
              <rect id="Rectangle_2381" data-name="Rectangle 2381" width="0.922" height="30.442" fill="#162e51"/>
            </g>
            <rect id="Rectangle_2382" data-name="Rectangle 2382" width="0.922" height="2.247" transform="translate(44.803 96.294)" fill="#101010" opacity="0.2"/>
            <path id="Path_7643" data-name="Path 7643" d="M777.164,111.645v3.223a.746.746,0,0,1-.743.747h-.5a.742.742,0,0,1-.737-.747v-3.223Z" transform="translate(-730.911 -15.023)" fill="#242424"/>
            <g id="Group_3643" data-name="Group 3643" transform="translate(44.803 68.099)" opacity="0.2">
              <rect id="Rectangle_2383" data-name="Rectangle 2383" width="0.922" height="20.545"/>
            </g>
            <g id="Group_3644" data-name="Group 3644" transform="translate(43.674)">
              <path id="Path_7644" data-name="Path 7644" d="M777.8,21.31v88.172c0,.062-.106.106-.24.106h-2.709c-.13,0-.233-.044-.233-.106V21.31c0-.038.066-.069.155-.069h2.868C777.735,21.241,777.8,21.272,777.8,21.31Z" transform="translate(-774.623 -21.241)" fill="#373737"/>
            </g>
            <g id="Group_3645" data-name="Group 3645" transform="translate(42.749 77.979)" opacity="0.2">
              <path id="Path_7645" data-name="Path 7645" d="M778.789,99.77v1.4l-.427-.423v1.106a.791.791,0,0,1-.495.734v.835h0a.141.141,0,0,1-.036,0h-3.112a.116.116,0,0,1-.033,0v-.835a.788.788,0,0,1-.5-.734v-.992l-.425.423V99.888l.425-.426V95.778a.79.79,0,0,1,.5-.737v-.836a.116.116,0,0,1,.033,0h3.112a.14.14,0,0,1,.036,0h0v.836a.793.793,0,0,1,.495.737v3.567Z" transform="translate(-773.758 -94.202)"/>
            </g>
            <path id="Path_7646" data-name="Path 7646" d="M777.438,98.147l-21.01,21.009-.211.212-1.453,1.452-1.34,1.339-.212.212-.237-.238a.8.8,0,0,1,0-1.126l.211-.211,2.229-2.228.433.432.211-.212L775.2,99.641l.424-.424.5-.5.943-.941Z" transform="translate(-732.454 -15.977)" fill="#787878" opacity="0.2"/>
            <path id="Path_7647" data-name="Path 7647" d="M800.926,122.113l-.248.249-.3-.3-1.249-1.25-1.453-1.452-.3-.3-20.62-20.621.378-.382.53.528.5.5.424.423,19.171,19.174.3.3.433-.432,2.439,2.439A.8.8,0,0,1,800.926,122.113Z" transform="translate(-730.803 -15.958)" fill="#787878" opacity="0.2"/>
            <path id="Path_7648" data-name="Path 7648" d="M778.335,95.728V101.8a.791.791,0,0,1-.495.734h0a.762.762,0,0,1-.3.059h-2.586a.755.755,0,0,1-.3-.059.788.788,0,0,1-.5-.734V95.728a.8.8,0,0,1,.8-.8h2.586a.8.8,0,0,1,.3.059h0A.793.793,0,0,1,778.335,95.728Z" transform="translate(-730.982 -16.172)" fill="#434343"/>
            <path id="Path_7649" data-name="Path 7649" d="M776.272,21.241V121.834h-.251a.742.742,0,0,1-.737-.747v-3.223h.529v-8.275h-.9c-.13,0-.233-.044-.233-.106V107.6a.788.788,0,0,1-.5-.734v-.992l-.425.423v-1.395l.425-.426V100.8a.79.79,0,0,1,.5-.737V21.31c0-.038.066-.069.155-.069Z" transform="translate(-731.009 -21.241)" fill="#787878" opacity="0.3"/>
            <g id="Group_3646" data-name="Group 3646" transform="translate(0 70.784)" opacity="0.2">
              <path id="Path_7650" data-name="Path 7650" d="M824.287,87.652v1.866a.184.184,0,0,1-.182.185H780.619v.668h-3.186V89.7H733.942a.184.184,0,0,1-.182-.185V87.652a.184.184,0,0,1,.182-.182h90.163A.184.184,0,0,1,824.287,87.652Z" transform="translate(-733.76 -87.47)"/>
            </g>
            <g id="Group_3647" data-name="Group 3647" transform="translate(0 10.578)" opacity="0.2">
              <path id="Path_7651" data-name="Path 7651" d="M824.287,31.987v1.866a.184.184,0,0,1-.182.185H733.942a.184.184,0,0,1-.182-.185V31.987a.184.184,0,0,1,.182-.182h9.227l2.313-.667h.615l-2.315.667h33.652v-.667h3.186V31.8h33.635l-2.312-.667h.611l2.313.667h9.24A.184.184,0,0,1,824.287,31.987Z" transform="translate(-733.76 -31.138)"/>
            </g>
            <path id="Path_7652" data-name="Path 7652" d="M775.539,22.713a.643.643,0,1,0,.643-.643A.642.642,0,0,0,775.539,22.713Z" transform="translate(-730.886 -21.184)" opacity="0.2"/>
            <path id="Path_7653" data-name="Path 7653" d="M775.539,22.583a.643.643,0,1,0,.643-.643A.643.643,0,0,0,775.539,22.583Z" transform="translate(-730.886 -21.193)" fill="#474747"/>
            <g id="Group_3667" data-name="Group 3667" transform="translate(0 11.245)">
              <rect id="Rectangle_2384" data-name="Rectangle 2384" width="87.304" height="60.376" transform="translate(1.612 1.008)" fill="#fff"/>
              <path id="Path_7654" data-name="Path 7654" d="M822.572,32.7v1.91l-87.3,56.006V32.7Z" transform="translate(-733.656 -31.697)" fill="#fff" opacity="0.42" style="mix-blend-mode: multiply;isolation: isolate"/>
              <g id="Group_3663" data-name="Group 3663" transform="translate(9.401 10.53)">
                <g id="Group_3648" data-name="Group 3648" transform="translate(14.785)">
                  <rect id="Rectangle_2385" data-name="Rectangle 2385" width="16.567" height="1.495" fill="#d9f1fd"/>
                </g>
                <g id="Group_3649" data-name="Group 3649" transform="translate(14.782 3.792)">
                  <rect id="Rectangle_2386" data-name="Rectangle 2386" width="56.789" height="1.495" fill="#d9f1fd"/>
                </g>
                <g id="Group_3650" data-name="Group 3650" transform="translate(14.78 7.476)">
                  <rect id="Rectangle_2387" data-name="Rectangle 2387" width="56.789" height="1.495" fill="#d9f1fd"/>
                </g>
                <g id="Group_3651" data-name="Group 3651" transform="translate(14.777 11.16)">
                  <rect id="Rectangle_2388" data-name="Rectangle 2388" width="56.789" height="1.495" fill="#d9f1fd"/>
                </g>
                <g id="Group_3652" data-name="Group 3652" transform="translate(14.775 14.815)">
                  <rect id="Rectangle_2389" data-name="Rectangle 2389" width="16.567" height="1.495" fill="#d9f1fd"/>
                </g>
                <g id="Group_3653" data-name="Group 3653" transform="translate(14.772 18.607)">
                  <rect id="Rectangle_2390" data-name="Rectangle 2390" width="56.789" height="1.495" fill="#d9f1fd"/>
                </g>
                <g id="Group_3654" data-name="Group 3654" transform="translate(14.77 22.291)">
                  <rect id="Rectangle_2391" data-name="Rectangle 2391" width="56.789" height="1.495" fill="#d9f1fd"/>
                </g>
                <g id="Group_3655" data-name="Group 3655" transform="translate(14.767 25.975)">
                  <rect id="Rectangle_2392" data-name="Rectangle 2392" width="56.789" height="1.495" fill="#d9f1fd"/>
                </g>
                <g id="Group_3656" data-name="Group 3656" transform="translate(14.764 29.975)">
                  <rect id="Rectangle_2393" data-name="Rectangle 2393" width="16.567" height="1.495" fill="#d9f1fd"/>
                </g>
                <g id="Group_3657" data-name="Group 3657" transform="translate(14.762 33.767)">
                  <rect id="Rectangle_2394" data-name="Rectangle 2394" width="56.789" height="1.495" fill="#d9f1fd"/>
                </g>
                <g id="Group_3658" data-name="Group 3658" transform="translate(14.759 37.451)">
                  <rect id="Rectangle_2395" data-name="Rectangle 2395" width="56.789" height="1.495" fill="#d9f1fd"/>
                </g>
                <g id="Group_3659" data-name="Group 3659" transform="translate(14.757 41.135)">
                  <rect id="Rectangle_2396" data-name="Rectangle 2396" width="56.789" height="1.495" fill="#d9f1fd"/>
                </g>
                <path id="Path_7655" data-name="Path 7655" d="M746.764,44.494a3.36,3.36,0,1,1-3.362,3.358,3.365,3.365,0,0,1,3.362-3.358h0m0-.826a4.186,4.186,0,0,0,0,8.373h0a4.186,4.186,0,0,0,0-8.373Z" transform="translate(-742.555 -41.473)" fill="#c71f25"/>
                <g id="Group_3660" data-name="Group 3660" transform="translate(3.358 4.992)">
                  <path id="Path_7656" data-name="Path 7656" d="M747.394,48.851a.7.7,0,0,1-.006.1.226.226,0,0,1-.018.066.075.075,0,0,1-.027.034.054.054,0,0,1-.034.011h-1.523a.05.05,0,0,1-.031-.011.073.073,0,0,1-.027-.035.209.209,0,0,1-.018-.065.891.891,0,0,1,0-.205.2.2,0,0,1,.017-.067.1.1,0,0,1,.027-.037.055.055,0,0,1,.034-.012h.514v-1.8l-.444.245a.308.308,0,0,1-.08.029.049.049,0,0,1-.049-.013.113.113,0,0,1-.025-.063.948.948,0,0,1-.006-.125c0-.034,0-.062,0-.084a.2.2,0,0,1,.011-.057.1.1,0,0,1,.024-.038.3.3,0,0,1,.041-.032l.593-.384a.128.128,0,0,1,.027-.014.256.256,0,0,1,.042-.009.565.565,0,0,1,.067,0h.108c.054,0,.1,0,.13,0a.344.344,0,0,1,.076.011.056.056,0,0,1,.034.02.06.06,0,0,1,.008.032v2.28h.45a.061.061,0,0,1,.035.012.094.094,0,0,1,.027.037.206.206,0,0,1,.017.067A.725.725,0,0,1,747.394,48.851Z" transform="translate(-745.698 -46.285)" fill="#c71f25"/>
                </g>
                <path id="Path_7657" data-name="Path 7657" d="M746.754,58.355a3.359,3.359,0,1,1-3.362,3.358,3.343,3.343,0,0,1,3.362-3.358h0m0-.826a4.186,4.186,0,0,0,0,8.373h0a4.186,4.186,0,0,0,0-8.373Z" transform="translate(-742.555 -40.519)" fill="#c71f25"/>
                <g id="Group_3661" data-name="Group 3661" transform="translate(3.269 19.792)">
                  <path id="Path_7658" data-name="Path 7658" d="M747.467,62.713a.972.972,0,0,1-.005.106.42.42,0,0,1-.016.072.1.1,0,0,1-.028.04.071.071,0,0,1-.038.012h-1.587a.3.3,0,0,1-.081-.01.1.1,0,0,1-.056-.032.165.165,0,0,1-.031-.072.632.632,0,0,1-.01-.122.991.991,0,0,1,.006-.121.365.365,0,0,1,.024-.09.494.494,0,0,1,.044-.076.835.835,0,0,1,.069-.082l.479-.512a2.473,2.473,0,0,0,.23-.271,1.526,1.526,0,0,0,.137-.224.787.787,0,0,0,.067-.186.735.735,0,0,0,.018-.162.4.4,0,0,0-.022-.134.314.314,0,0,0-.065-.109.3.3,0,0,0-.11-.074.408.408,0,0,0-.156-.027.677.677,0,0,0-.222.031,1.125,1.125,0,0,0-.171.072c-.049.027-.09.05-.123.073a.158.158,0,0,1-.077.033.048.048,0,0,1-.033-.013.112.112,0,0,1-.022-.043.516.516,0,0,1-.013-.08,1.018,1.018,0,0,1-.005-.123c0-.032,0-.06,0-.082a.345.345,0,0,1,.01-.057.141.141,0,0,1,.017-.043.175.175,0,0,1,.037-.044.461.461,0,0,1,.1-.065,1.17,1.17,0,0,1,.176-.077,1.71,1.71,0,0,1,.231-.063,1.386,1.386,0,0,1,.262-.025,1.169,1.169,0,0,1,.376.055.742.742,0,0,1,.268.152.6.6,0,0,1,.158.23.772.772,0,0,1,.052.288,1.357,1.357,0,0,1-.026.264,1,1,0,0,1-.107.281,2.292,2.292,0,0,1-.229.332c-.1.121-.229.262-.39.423l-.323.33h1.088a.067.067,0,0,1,.04.013.108.108,0,0,1,.031.04.256.256,0,0,1,.019.071A.737.737,0,0,1,747.467,62.713Z" transform="translate(-745.615 -60.132)" fill="#c71f25"/>
                </g>
                <path id="Path_7659" data-name="Path 7659" d="M746.745,72.216a3.36,3.36,0,1,1-3.362,3.358,3.363,3.363,0,0,1,3.362-3.358h0m0-.826a4.186,4.186,0,0,0,0,8.373h0a4.186,4.186,0,0,0,0-8.373Z" transform="translate(-742.556 -39.566)" fill="#c71f25"/>
                <g id="Group_3662" data-name="Group 3662" transform="translate(3.263 34.582)">
                  <path id="Path_7660" data-name="Path 7660" d="M747.454,75.971a.812.812,0,0,1-.079.368.773.773,0,0,1-.219.268.988.988,0,0,1-.338.165,1.512,1.512,0,0,1-.429.057,1.586,1.586,0,0,1-.264-.02,1.719,1.719,0,0,1-.219-.05,1.07,1.07,0,0,1-.157-.062.444.444,0,0,1-.08-.049.123.123,0,0,1-.029-.038.254.254,0,0,1-.017-.05.394.394,0,0,1-.011-.073q0-.043,0-.106a.386.386,0,0,1,.017-.141.055.055,0,0,1,.051-.04.2.2,0,0,1,.074.029,1.342,1.342,0,0,0,.133.062,1.731,1.731,0,0,0,.19.062.968.968,0,0,0,.247.029.71.71,0,0,0,.207-.028.439.439,0,0,0,.153-.078.322.322,0,0,0,.094-.121.4.4,0,0,0,.031-.159.4.4,0,0,0-.037-.173.353.353,0,0,0-.111-.131.558.558,0,0,0-.185-.083,1.011,1.011,0,0,0-.264-.031h-.238a.12.12,0,0,1-.047-.007.06.06,0,0,1-.032-.031.176.176,0,0,1-.018-.065.949.949,0,0,1-.005-.107.847.847,0,0,1,.005-.1.174.174,0,0,1,.017-.061.068.068,0,0,1,.03-.03.107.107,0,0,1,.044-.009h.24a.764.764,0,0,0,.22-.029.45.45,0,0,0,.161-.081.378.378,0,0,0,.1-.129.406.406,0,0,0,.034-.168.4.4,0,0,0-.023-.133.29.29,0,0,0-.069-.109.321.321,0,0,0-.119-.073.481.481,0,0,0-.17-.027.643.643,0,0,0-.21.033,1.376,1.376,0,0,0-.176.072q-.077.04-.131.074a.187.187,0,0,1-.08.034.054.054,0,0,1-.03-.007.057.057,0,0,1-.021-.029.276.276,0,0,1-.013-.062.946.946,0,0,1,0-.1c0-.035,0-.064,0-.088a.283.283,0,0,1,.009-.059.168.168,0,0,1,.016-.041.178.178,0,0,1,.031-.037.557.557,0,0,1,.088-.061,1.021,1.021,0,0,1,.167-.079,1.368,1.368,0,0,1,.231-.064,1.406,1.406,0,0,1,.285-.027,1.235,1.235,0,0,1,.355.047.731.731,0,0,1,.26.136.563.563,0,0,1,.16.218.737.737,0,0,1,.054.291.86.86,0,0,1-.033.235.651.651,0,0,1-.093.193.592.592,0,0,1-.155.145.694.694,0,0,1-.215.089v.006a.817.817,0,0,1,.261.074.7.7,0,0,1,.194.142.615.615,0,0,1,.123.193A.632.632,0,0,1,747.454,75.971Z" transform="translate(-745.609 -73.97)" fill="#c71f25"/>
                </g>
              </g>
              <g id="Group_3664" data-name="Group 3664" transform="translate(0 57.984)" opacity="0.2">
                <path id="Path_7661" data-name="Path 7661" d="M824.287,87.084v1.645a.181.181,0,0,1-.182.182H733.942a.181.181,0,0,1-.182-.182V87.084a.184.184,0,0,1,.182-.182h1.431v-.888h87.3V86.9h1.43A.184.184,0,0,1,824.287,87.084Z" transform="translate(-733.76 -86.014)"/>
              </g>
              <path id="Path_7662" data-name="Path 7662" d="M824.287,32.818v1.6a.183.183,0,0,1-.182.184h-1.43v2.716h-87.3V34.6h-1.431a.183.183,0,0,1-.182-.184v-1.6a.183.183,0,0,1,.182-.181h90.163A.183.183,0,0,1,824.287,32.818Z" transform="translate(-733.76 -31.702)" fill="#4d4d4f" opacity="0.12" style="mix-blend-mode: multiply;isolation: isolate"/>
              <g id="Group_3665" data-name="Group 3665" transform="translate(0 58.872)">
                <path id="Rectangle_2397" data-name="Rectangle 2397" d="M.17,0H90.355a.172.172,0,0,1,.172.172V2.73a.17.17,0,0,1-.17.17H.17A.17.17,0,0,1,0,2.73V.17A.17.17,0,0,1,.17,0Z" fill="#373737"/>
              </g>
              <g id="Group_3666" data-name="Group 3666" transform="translate(0 0)">
                <path id="Rectangle_2398" data-name="Rectangle 2398" d="M.17,0H90.355a.172.172,0,0,1,.172.172V2.73a.17.17,0,0,1-.17.17H.17A.17.17,0,0,1,0,2.73V.17A.17.17,0,0,1,.17,0Z" fill="#373737"/>
              </g>
              <path id="Path_7663" data-name="Path 7663" d="M824.287,31.944v1.269H733.76V31.944a.184.184,0,0,1,.182-.182h90.163A.184.184,0,0,1,824.287,31.944Z" transform="translate(-733.76 -31.762)" fill="#787878" opacity="0.3"/>
              <path id="Path_7664" data-name="Path 7664" d="M824.287,87.027V88.3H733.76V87.027a.184.184,0,0,1,.182-.182h90.163A.184.184,0,0,1,824.287,87.027Z" transform="translate(-733.76 -27.973)" fill="#787878" opacity="0.3"/>
            </g>
          </g>
        </g>
        <g id="Group_3680" data-name="Group 3680">
          <g id="Group_3679" data-name="Group 3679" clip-path="url(#clip-path)">
            <g id="Group_3678" data-name="Group 3678" transform="translate(52.599 30.111)">
              <path id="Path_7665" data-name="Path 7665" d="M829.55,59.086c-.257.67-.611,1.339-.91,2.009a4.488,4.488,0,0,0,.678.526s5.831-10.539,3.029-16.661c-2.192-4.786-5.781-10.631-10.1-9.418-5.081,1.428-13.129,15.116-4.451,26.753,0,0,.088-.757.3-.895a19.245,19.245,0,0,1-.619-3.485,10.479,10.479,0,0,0,.817,3.054,5.148,5.148,0,0,1,.682-.533,9.581,9.581,0,0,1,2.82-1.258,7.031,7.031,0,0,1,6.545,1.638A6.259,6.259,0,0,0,829.55,59.086Z" transform="translate(-772.403 -35.379)" fill="#162e51"/>
              <path id="Path_7666" data-name="Path 7666" d="M793.565,77.345a6.446,6.446,0,0,1,1.25-1.271,8.13,8.13,0,0,1,1.831-1.5S795.553,77.422,793.565,77.345Z" transform="translate(-773.806 -32.684)" fill="url(#linear-gradient)"/>
              <path id="Path_7667" data-name="Path 7667" d="M794.638,78.841s.147-.652,3.317-3.309a8.426,8.426,0,0,1-1.587,2.187A4.5,4.5,0,0,1,794.638,78.841Z" transform="translate(-773.732 -32.618)" fill="#c71f25"/>
              <path id="Path_7668" data-name="Path 7668" d="M837.857,63.224c-.581-1.21-3.371-1.97-3.714-2-1.2-.115-6.048-.495-6.549-2.1a9.279,9.279,0,0,1,.121-4.543l-7.479-.374a7.731,7.731,0,0,1,.775,4.408c-.038,1.661-5.068,2.831-6.8,3.023-.946.1-4.278,1.2-4.738,2.829-.646,2.284-.6,3.047-.4,6.046l30.1-2.885A9.962,9.962,0,0,0,837.857,63.224Z" transform="translate(-772.748 -34.084)" fill="#47add1"/>
              <g id="Group_3671" data-name="Group 3671" transform="translate(0 27.873)">
                <path id="Path_7669" data-name="Path 7669" d="M797.07,75.058a51.05,51.05,0,0,1-4.878-5l-2.97,1.863a50.272,50.272,0,0,1,5.1,5.7A7.617,7.617,0,0,0,797.07,75.058Z" transform="translate(-774.105 -60.868)" fill="#47add1"/>
                <path id="Path_7670" data-name="Path 7670" d="M803.322,79.414c-2.115-.609-2.409-.58-5.089-3.232a9,9,0,0,1-2.932,2.847c4.057,4.609,6.983,7.7,9.041,7.7C807.277,86.742,803.322,79.414,803.322,79.414Z" transform="translate(-773.686 -60.446)" fill="#c71f25"/>
                <g id="Group_3670" data-name="Group 3670" transform="translate(0 3.515)">
                  <path id="Path_7671" data-name="Path 7671" d="M793.3,70.725a3.94,3.94,0,0,0-1.7-2.528c-.364-.23-3.5-1.39-3.744-1.58s-1.76-1.539-2.053-1.687-1.3-.371-1.692.107c-.31.375.448.683.845.962.25.175,1.645,1.316,1.645,1.316s-3,.283-3.3.307-4.395-.195-4.785-.176-2.435.1-2.384.8c.072.993,6.1-.085,6.1-.085Z" transform="translate(-775.005 -64.747)" fill="#47add1"/>
                  <path id="Path_7672" data-name="Path 7672" d="M784.792,68.146s-2.057-.261-4.1-.456a13.911,13.911,0,0,0-4.555.278.465.465,0,0,0,.08.327Z" transform="translate(-775.005 -64.55)" fill="#47add1"/>
                  <path id="Path_7673" data-name="Path 7673" d="M785.517,69.424l5.36-1.386s-7.88-.048-9-.122a44.96,44.96,0,0,0-4.658.016c-.622.086-2.033.229-2.124.65-.142.663.658.535,1.012.5s2.9-.174,2.9-.174Z" transform="translate(-775.077 -64.533)" fill="#47add1"/>
                  <path id="Path_7674" data-name="Path 7674" d="M784.762,68.62a17.347,17.347,0,0,0-3.978-.361,12.856,12.856,0,0,0-4.325.762Z" transform="translate(-774.982 -64.507)" fill="#47add1"/>
                  <path id="Path_7675" data-name="Path 7675" d="M787.331,68.433a71.65,71.65,0,0,0-8.175.112c-1.463.187-2.632.376-2.552.972.06.442,1.243.209,1.788.178.656-.036,5.371-.465,5.761-.454Z" transform="translate(-774.973 -64.499)" fill="#47add1"/>
                  <path id="Path_7676" data-name="Path 7676" d="M779.535,69.569l-.6.052a3.188,3.188,0,0,1,.812-.485,13.089,13.089,0,0,1,2.157-.456c.321-.005,1.862-.053,3.755.067Z" transform="translate(-774.812 -64.478)" fill="#47add1"/>
                  <path id="Path_7677" data-name="Path 7677" d="M793.9,71.54a19.606,19.606,0,0,0-2.174-3.018c-1.882-1.308-4.449-.39-5.145-.124a9.336,9.336,0,0,1-3.052.453c-.39.018-4.347.146-4.542,1.255-.067.384.19.4,1.062.283s1.382-.079,2.467-.139a16.576,16.576,0,0,1,2.4.126,24.205,24.205,0,0,1,4.983,1.648,13.542,13.542,0,0,1,1.664,1.589Z" transform="translate(-774.81 -64.535)" fill="#47add1"/>
                  <path id="Path_7678" data-name="Path 7678" d="M792.678,69.69a3.472,3.472,0,0,0-1.662-1.6,6.077,6.077,0,0,0-4.239.176,12.117,12.117,0,0,1-3.72.528c-.55,0-3.424.3-3.982,1.092a4.505,4.505,0,0,1,1.388-.556,33.714,33.714,0,0,1,3.5-.382,8.466,8.466,0,0,0,3.03-.41,7.723,7.723,0,0,1,3.279-.428A3.591,3.591,0,0,1,792.678,69.69Z" transform="translate(-774.803 -64.539)" fill="#47add1"/>
                  <path id="Path_7679" data-name="Path 7679" d="M784.415,65.947c-.151-.122-.58-.348-.682-.459a2.805,2.805,0,0,1,.714.191c.155.108,2.038,1.579,2.038,1.579l-.4.006S785.1,66.5,784.415,65.947Z" transform="translate(-774.482 -64.696)" fill="#47add1"/>
                  <path id="Path_7680" data-name="Path 7680" d="M787.39,67.33s-4.029.093-4.31.1-3.328-.145-4.009-.135a25.851,25.851,0,0,0,4.094.344C784.2,67.539,787.39,67.33,787.39,67.33Z" transform="translate(-774.803 -64.573)" fill="#47add1"/>
                  <path id="Path_7681" data-name="Path 7681" d="M789.435,67.528s-2.051-.874-2.155-.946a22.6,22.6,0,0,0-2.094-1.663c.236.308,1.844,1.911,2.048,2.1A12.56,12.56,0,0,0,789.435,67.528Z" transform="translate(-774.382 -64.736)" fill="#47add1"/>
                  <path id="Path_7682" data-name="Path 7682" d="M780.244,70.223a27.765,27.765,0,0,1,2.8-.5,19.416,19.416,0,0,1,2.437.649A28.554,28.554,0,0,0,780.244,70.223Z" transform="translate(-774.722 -64.405)" fill="#47add1"/>
                </g>
                <path id="Path_7683" data-name="Path 7683" d="M796.458,78.937c-.164-.213-.642-.167-1.016-.643-.151.087-.52.38-.678.454,4.47,5.041,9.525,9.765,10.957,8.2C803.441,86.282,800.393,83.625,796.458,78.937Z" transform="translate(-773.723 -60.301)" fill="#c71f25"/>
                <path id="Path_7684" data-name="Path 7684" d="M789.921,71.471c-.826-.248-4.77-1.139-4.77-1.139s1.739.65,2.342.85a8.6,8.6,0,0,1,2.034.88c.779.6,3.39,3.618,5.184,5.666.157-.074.141-.243.291-.328C793.683,75.717,790.5,71.643,789.921,71.471Z" transform="translate(-774.385 -60.849)" fill="#47add1"/>
                <path id="Path_7685" data-name="Path 7685" d="M813.969,61.459c-.83.191-3.054.483-4,1.349-1.1,1.008-2.745,6.726-3.575,9.133-.231.669-2.551,6.83-3.372,8.58.4,3.208.879,4.5,1.032,7.711,1.574-.424,4.416-4.982,5.522-6.553,1.214-1.726,3.312-8.406,3.312-8.406C814.1,69.644,813.969,61.459,813.969,61.459Z" transform="translate(-773.155 -61.459)" fill="#c71f25"/>
                <path id="Path_7686" data-name="Path 7686" d="M812.986,68.362a4.316,4.316,0,0,1,.514,2.6c-.175,1.226-.3,3.042-.432,3.518a45.438,45.438,0,0,1-3.118,7.651,25.607,25.607,0,0,1-3.393,4.837c-.271.247-1.316,1.232-2.071,1.089-1.568-.3-4.066-2.52-4.066-2.52s3.23,2.117,5.09.491c3.407-2.981,5.419-9.017,6.673-14.556A15,15,0,0,1,812.986,68.362Z" transform="translate(-773.334 -60.984)" fill="#c71f25"/>
                <path id="Path_7687" data-name="Path 7687" d="M792.541,70.677a60.815,60.815,0,0,0,3.934,4.872c.1-.138.282-.386.367-.533C794.876,73.19,792.541,70.677,792.541,70.677Z" transform="translate(-773.876 -60.825)" fill="#47add1"/>
                <path id="Path_7688" data-name="Path 7688" d="M803.4,79.5a21.486,21.486,0,0,1-2.924-1.831c-.085.147-2.814-1.5-2.91-1.36a53.642,53.642,0,0,0,6.337,6.117C805,83.041,803.4,79.5,803.4,79.5Z" transform="translate(-773.531 -60.438)" fill="#c71f25"/>
              </g>
              <g id="Group_3674" data-name="Group 3674" transform="translate(35.754 55.527)">
                <path id="Path_7689" data-name="Path 7689" d="M821.833,105.666s1.82,9.232,4.439,17.812c2.017,6.605,4.546,14.9,6.695,18.366,0,0,.424,2.547,1.213,6.657.839,4.368,2.583,8.3,4.261,13.627.446,1.412,2.464,8.948,2.464,8.948a5.478,5.478,0,0,0,4.353-.6s-.731-15.977-1.523-20.815c-.809-4.939-4.375-16.163-4.375-16.163-.457-3.158-2.077-21.944-3.766-30.894a122.04,122.04,0,0,0-3.75-15.024L820.9,89.207Z" transform="translate(-807.68 -87.316)" fill="#1a98c5"/>
                <path id="Path_7690" data-name="Path 7690" d="M824.03,89.919a8.379,8.379,0,0,1-.1-.913,42.438,42.438,0,0,1-11.649-1.674s-4.051,8.36-3.719,16.962c.167,4.322,4.813,26.91,4.99,27.108.035.195.435,14.123.6,16.6.193,2.932,4.8,17.95,5.785,20.509,0,0,1.162.341,3.712-.814,0,0,.205-9.134.047-10.594-.508-4.672-1.256-14.517-1.069-15.178.665-2.343.213-35.369.213-35.369S825,96.235,824.03,89.919Z" transform="translate(-808.53 -87.333)" fill="#1a98c5"/>
                <g id="Group_3673" data-name="Group 3673" transform="translate(12.841 2.553)">
                  <g id="Group_3672" data-name="Group 3672">
                    <path id="Path_7691" data-name="Path 7691" d="M821.773,89.939a.756.756,0,0,1,0,1.047.706.706,0,0,1-1.017,0,.756.756,0,0,1,0-1.047A.7.7,0,0,1,821.773,89.939Z" transform="translate(-820.545 -89.722)" fill="url(#linear-gradient-2)"/>
                  </g>
                  <path id="Path_7692" data-name="Path 7692" d="M821.759,90.372a.607.607,0,1,1-.607-.624A.616.616,0,0,1,821.759,90.372Z" transform="translate(-820.545 -89.72)" fill="url(#linear-gradient-3)"/>
                  <path id="Path_7693" data-name="Path 7693" d="M820.642,90.355s.007.5.44.527a.536.536,0,0,0,.44-.883s.089.547-.265.652A.466.466,0,0,1,820.642,90.355Z" transform="translate(-820.538 -89.703)" fill="#78534b"/>
                </g>
                <path id="Path_7694" data-name="Path 7694" d="M836.218,100.466l-27.464-.143a4.117,4.117,0,0,0-.211,1.944s4.164,3.181,7.3,4.08a22.577,22.577,0,0,0,3.9.7c1.567,6.2,3.2,15.327,3.2,15.327l-.1-16.372,2.779,11.312a41.931,41.931,0,0,1,.731-10.358,24.351,24.351,0,0,0,2.9-.546c5.432-1.388,7.271-4.279,7.271-4.279Z" transform="translate(-808.531 -86.44)" fill="#1a98c5" opacity="0.5" style="mix-blend-mode: multiply;isolation: isolate"/>
                <path id="Path_7695" data-name="Path 7695" d="M822.225,116.024l-.077-9.8,1.811,7.077s-1.16-7.918-1.029-8.37,1.124-1.568,1.023-1.568a9.489,9.489,0,0,1-4.943-.279s1.338,1.786,1.507,2.134S822.225,116.024,822.225,116.024Z" transform="translate(-807.81 -86.249)" fill="#1a4480" opacity="0.41" style="mix-blend-mode: multiply;isolation: isolate"/>
                <path id="Path_7696" data-name="Path 7696" d="M827.374,91.716s-.149,2.563,1.51,3.649,4.968,1.024,4.968,1.024l-.817-4.733Z" transform="translate(-807.235 -87.036)" fill="url(#linear-gradient-4)"/>
                <path id="Path_7697" data-name="Path 7697" d="M811.327,89.8l4.568,1.361s-.407,3.277-2.67,3.575a10.176,10.176,0,0,1-3.306.049Z" transform="translate(-808.435 -87.163)" fill="url(#linear-gradient-5)"/>
                <path id="Path_7698" data-name="Path 7698" d="M824.256,102.5s7.607-1.669,11.119-.353Z" transform="translate(-807.449 -86.349)" fill="url(#linear-gradient-6)"/>
                <path id="Path_7699" data-name="Path 7699" d="M815.392,91.184s7.321,1.052,7.535,1.125.224,1.72-.3,1.708c-.583-.013-7.281-.788-7.686-.73A3.792,3.792,0,0,0,815.392,91.184Z" transform="translate(-808.09 -87.068)" fill="url(#linear-gradient-7)"/>
                <path id="Path_7700" data-name="Path 7700" d="M822.379,91.734l5.349-.022a11.158,11.158,0,0,0,.15,2.274l-5.658-.111Z" transform="translate(-807.589 -87.032)" fill="url(#linear-gradient-8)"/>
                <path id="Path_7701" data-name="Path 7701" d="M822.3,88.879s.218,1.788.189,1.982-.057,1.242-.285,1.279l-.229.036s-.2,2.421-.2,4.9a31.92,31.92,0,0,0,.571,5.223c.033-.9-.084-4.932-.057-5.177s.058-4.594.314-4.771.229-.7.229-.7l.048-2.752Z" transform="translate(-807.62 -87.227)" fill="url(#linear-gradient-9)"/>
                <path id="Path_7702" data-name="Path 7702" d="M811.419,89.854s3.8,1.213,4.372,1.3,2.953.325,5.589.849c0,0-5.013-.208-5.589-.309S811.419,89.854,811.419,89.854Z" transform="translate(-808.332 -87.16)" fill="url(#linear-gradient-10)"/>
                <path id="Path_7703" data-name="Path 7703" d="M822.24,91.752s5.287-.205,5.38-.167,4.388-.317,5.574,0c0,0-4.819.439-5.574.465S822.24,91.752,822.24,91.752Z" transform="translate(-807.588 -87.05)" fill="url(#linear-gradient-11)"/>
                <path id="Path_7704" data-name="Path 7704" d="M827.365,91.9a5.469,5.469,0,0,0,.814,2.555c.711.9,1.908,1.856,5.679,1.92a7.075,7.075,0,0,1-5.145-.43C826.832,94.815,827.365,91.9,827.365,91.9Z" transform="translate(-807.24 -87.019)" fill="url(#linear-gradient-12)"/>
                <path id="Path_7705" data-name="Path 7705" d="M809.944,94.685a13.167,13.167,0,0,0,3.827-.392,3.817,3.817,0,0,0,2.073-2.974s-.188,3.106-1.949,3.591A8.11,8.11,0,0,1,809.944,94.685Z" transform="translate(-808.433 -87.059)" fill="url(#linear-gradient-13)"/>
                <path id="Path_7706" data-name="Path 7706" d="M820.069,88.761s2.355.071,2.625.151.147,2,.136,2.305,0,1.341-.438,1.27-1.606-.407-1.606-.407a4.465,4.465,0,0,0,1.446-.137,5.29,5.29,0,0,0,.14-2.6C822.2,89.345,820.069,88.761,820.069,88.761Z" transform="translate(-807.737 -87.235)" fill="url(#linear-gradient-14)"/>
                <path id="Path_7707" data-name="Path 7707" d="M821.971,92.25s-.13,3.04-.1,3.439.508,6.6.508,6.6-.38-2.453-.512-2.778-.385-4.151-.41-4.48S821.971,92.25,821.971,92.25Z" transform="translate(-807.641 -86.995)" fill="url(#linear-gradient-15)"/>
                <path id="Path_7708" data-name="Path 7708" d="M824.668,88.919a4.992,4.992,0,0,1,.3,1c0,.243.271,3.547.271,3.671a2.018,2.018,0,0,0,.169.478l.237-4.525-.358-.623Z" transform="translate(-807.421 -87.224)" fill="url(#linear-gradient-16)"/>
                <path id="Path_7709" data-name="Path 7709" d="M826.1,91.761h.849l-.385-2.869-.311.009Z" transform="translate(-807.322 -87.226)" fill="url(#linear-gradient-17)"/>
                <path id="Path_7710" data-name="Path 7710" d="M816.209,88.307l.256.041.006,3.089-1.042-.175Z" transform="translate(-808.056 -87.266)" fill="url(#linear-gradient-18)"/>
                <path id="Path_7711" data-name="Path 7711" d="M817.564,88.5l.393.049-.671,2.487-.007,1.47-.364.761-.517-.624Z" transform="translate(-807.989 -87.253)" fill="url(#linear-gradient-19)"/>
                <path id="Path_7712" data-name="Path 7712" d="M817.608,88.513a7.475,7.475,0,0,0-.421,1.143,11.44,11.44,0,0,0-.229,3.624l-1.194-.065a14.9,14.9,0,0,1,.152-2.491c.178-.732.526-2.377.526-2.377Z" transform="translate(-808.033 -87.263)" fill="#412420"/>
                <path id="Path_7713" data-name="Path 7713" d="M817.608,88.5a22.891,22.891,0,0,0-.67,2.747c.012.438.02,2.02.02,2.02l-1.194-.065.678-.558s.261-1.848.249-2.013S817.608,88.5,817.608,88.5Z" transform="translate(-808.033 -87.253)" fill="url(#linear-gradient-20)"/>
                <path id="Path_7714" data-name="Path 7714" d="M825.056,88.92l1.27-.019a17.253,17.253,0,0,1,.328,2.424c.031,1.165.1,2.55.1,2.74-.081-.04-1.371,0-1.371,0s.153-2.678.1-3.436A6.878,6.878,0,0,0,825.056,88.92Z" transform="translate(-807.394 -87.225)" fill="#412420"/>
                <path id="Path_7715" data-name="Path 7715" d="M825.056,88.919a16.433,16.433,0,0,1,.388,3.183c-.076,1.169-.058,1.965-.058,1.965l1.371,0s-1.1-.037-1.067-.455S826.107,90.228,825.056,88.919Z" transform="translate(-807.394 -87.224)" fill="url(#linear-gradient-21)"/>
                <path id="Path_7716" data-name="Path 7716" d="M820.12,92.091s.077,6.074.048,6.537-.113,2.947,2.028,3.482c0,0-2.228.114-2.4-1.923S820.12,92.091,820.12,92.091Z" transform="translate(-807.758 -87.006)" fill="url(#linear-gradient-22)"/>
              </g>
              <path id="Path_7717" data-name="Path 7717" d="M834.2,73.2s.481-2.881,1.149-2.12l-1.149-2.47Z" transform="translate(-771.011 -33.094)" fill="url(#linear-gradient-23)"/>
              <path id="Path_7718" data-name="Path 7718" d="M830.793,60.854a6.077,6.077,0,0,0,.776-.419c-2.906-.376-3.782-.872-3.992-1.014a3.05,3.05,0,0,1-.52-1.724c-.035-.369-.09-1.293-.1-1.776-.1.125-6.477-.107-6.723-.47l-.741.006a16.68,16.68,0,0,1-.129,4.026c-.07.342-2.136.826-3.493,1.108.1.076.446.31.524.352a14.63,14.63,0,0,0,2.632.168,12,12,0,0,0,2.259-.866c3.823-1.753,5.016-2.331,5.016-2.331a5.126,5.126,0,0,0,1.319,2.69A12.683,12.683,0,0,0,830.793,60.854Z" transform="translate(-772.272 -33.999)" fill="#31a2cb"/>
              <path id="Path_7719" data-name="Path 7719" d="M819.394,58.907s.477,5.055,3.281,5.618,3.836-2.6,3.887-2.9.181-3.517.181-3.517a10.092,10.092,0,0,1-2.12,4.546c-1.255,1.272-1.893,1.752-3.532-.384A12.537,12.537,0,0,1,819.394,58.907Z" transform="translate(-772.029 -33.816)" fill="#d9f1fd"/>
              <path id="Path_7720" data-name="Path 7720" d="M819.29,58.464a26.865,26.865,0,0,0-.205-3.949s7.494.27,7.835.3a15.241,15.241,0,0,0-.155,1.91A7.678,7.678,0,0,1,819.29,58.464Z" transform="translate(-772.051 -34.063)" fill="#1a98c5"/>
              <path id="Path_7721" data-name="Path 7721" d="M819.29,58.464a26.865,26.865,0,0,0-.205-3.949s7.494.27,7.835.3a15.241,15.241,0,0,0-.155,1.91A7.678,7.678,0,0,1,819.29,58.464Z" transform="translate(-772.051 -34.063)" fill="#1a98c5" opacity="0.3"/>
              <g id="Group_3675" data-name="Group 3675" transform="translate(60.804 26.96)">
                <path id="Path_7722" data-name="Path 7722" d="M832.335,60.6s4.227,1.307,4.442,1.452c1.221.826,3.26,2.931,13.8,19.574,1.24,1.958-.142,4.544-.142,4.544a83.406,83.406,0,0,1-12.014,8.555,12.057,12.057,0,0,1-2.39-2.834s4.287-2.142,8.592-8.349c-1.017-1.2-3.543-5.335-7.465-10.435,0,0-2.86-3.984-3.192-3.48C833.749,69.958,830.993,62.995,832.335,60.6Z" transform="translate(-831.968 -60.604)" fill="#47add1"/>
              </g>
              <path id="Path_7723" data-name="Path 7723" d="M835.591,61.4l.608.139-1.562,9.708s-.366,2.075-.515,2.958c0,0-.252-4.843-.229-5.519S835.591,61.4,835.591,61.4Z" transform="translate(-771.032 -33.59)" fill="url(#linear-gradient-24)"/>
              <path id="Path_7724" data-name="Path 7724" d="M809.371,95.69l-.913,5.7s3.881,4.718,13.244,5.047c.664.023,1.162-8.018,1.162-8.018Z" transform="translate(-772.781 -31.231)" fill="#f0f0f0"/>
              <path id="Path_7725" data-name="Path 7725" d="M834.407,96.876l1.153,4.6s-3.543,4.548-13.077,4.877c-.658.022-.976-8.588-.976-8.588Z" transform="translate(-771.884 -31.15)" fill="#f0f0f0"/>
              <path id="Path_7726" data-name="Path 7726" d="M834.2,87.288c0-3.077,1.148-9.66,1.615-13.015-.313-4.021,1.809-12.754,1.809-12.754L829.4,59.4c-4.788,12.4-10.915.167-10.915.167l-8.065,2.663a61.068,61.068,0,0,1,2.165,13.378c0,.464-1.4,13.219-1.4,13.219l-2.442,11.377c3.51,3.031,7.533,3.447,11.764,3.376,14.494-.242,15.472-3.291,15.472-3.291l-1.848-7.74.074-4.979C834.2,87.48,834.2,87.385,834.2,87.288Z" transform="translate(-772.762 -33.727)" fill="#c71f25"/>
              <path id="Path_7727" data-name="Path 7727" d="M815.039,75.427c2.047.459,16.984.7,17.9.244.48-.239.495-3.2.4-5.973-.087-2.542-2.27-4.928-2.27-4.928H816.124s-3.086,2.551-2.682,5.158C813.852,72.579,814.418,75.288,815.039,75.427Z" transform="translate(-772.441 -33.358)" opacity="0.48" fill="url(#linear-gradient-25)"/>
              <path id="Path_7728" data-name="Path 7728" d="M820.763,62.637l1.557,1.227.138.229-2.321-1.109Z" transform="translate(-771.978 -33.505)" fill="#d7d7d9"/>
              <path id="Path_7729" data-name="Path 7729" d="M823.395,63.865l1.769-1.227,1.572.728Z" transform="translate(-771.754 -33.505)" fill="#d7d7d9"/>
              <path id="Path_7730" data-name="Path 7730" d="M824.677,87.178s.144.7,2.413.514a4.625,4.625,0,0,0,2.134.277l-4.319,2.557s.343.232,2.331-.346l-1.11,1.5a4.645,4.645,0,0,0,1.818-.223l-.344.727s3.33-.089,3.867-.089a14.561,14.561,0,0,0,2.589,2.874l-.917-3.841-2.768-4.4Z" transform="translate(-771.666 -31.848)" fill="#c71f25"/>
              <path id="Path_7731" data-name="Path 7731" d="M816.1,60.241,819.111,59s1.161,5.047,3.973,5.245,4.395-5.563,4.395-5.563l3.009,1.182s-.721,3.593-3.384,5.2c-3.4,2.055-5.747,1.475-9.164-.91C816.807,63.369,816.1,60.241,816.1,60.241Z" transform="translate(-772.256 -33.777)" fill="#c71f25"/>
              <g id="Group_3677" data-name="Group 3677" transform="translate(52.549 49.829)">
                <g id="Group_3676" data-name="Group 3676" transform="translate(0 4.44)">
                  <path id="Path_7732" data-name="Path 7732" d="M836.678,90.262a3.061,3.061,0,0,1-1.144.3c-.293-.077-1.41-1.073-3.281-3.947,0,0-.1-.164-3.914-.43-.48-.033-3.345.383-3.593.43s-.786,1.232,2.565.74l2.015.37s-1.7.554-2.015.664a20.543,20.543,0,0,0-3.051,1.613c0,.183-.429,1.283,3.327-.308l2.015-.457-2.08.686s-2.166.888-2.466,1.092c-.246.168-.206,1.342,2.822.146a5.551,5.551,0,0,0-.986.62c-.149.122-.149.9,1.316.216.329-.153.765-.289,1.286-.521L832,91.214s2,2.9,2.7,2.869a20.66,20.66,0,0,0,4.248-1.114Z" transform="translate(-824.245 -86.154)" fill="#47add1"/>
                  <path id="Path_7733" data-name="Path 7733" d="M836.032,90.083a5.864,5.864,0,0,1-.886.342c-.639.113-2.927-3.168-3.177-3.484a29.108,29.108,0,0,0,.843,3.142,11.84,11.84,0,0,0,2.3,1.834c.591,0,1.681-.994,1.681-.994Z" transform="translate(-823.714 -86.102)" fill="#47add1"/>
                  <path id="Path_7734" data-name="Path 7734" d="M834.805,92.218A23.62,23.62,0,0,0,831.9,90.2a4.492,4.492,0,0,0,2.148,3.027C835.246,93.651,835.421,92.762,834.805,92.218Z" transform="translate(-823.72 -85.878)" fill="#47add1"/>
                  <path id="Path_7735" data-name="Path 7735" d="M829.3,87.673s-1.9-.323-2.015-.37c0,0-1.913.419-2.6-.144a24.428,24.428,0,0,0,2.686-.151,20,20,0,0,0,3.568.116l-.3.181Z" transform="translate(-824.215 -86.097)" fill="#47add1"/>
                  <path id="Path_7736" data-name="Path 7736" d="M829.6,89.1s-1.526.4-2.015.457c0,0-2.692,1.278-3.24.734a14.518,14.518,0,0,0,3.045-1.062,32.639,32.639,0,0,0,3.947-.937,1.983,1.983,0,0,1-.282.279Z" transform="translate(-824.238 -86.009)" fill="#47add1"/>
                  <path id="Path_7737" data-name="Path 7737" d="M827.818,90.944s-1.961.908-2.712.4l3.839-1.132,2.491-.8a.846.846,0,0,1-.439.358,18.2,18.2,0,0,1-2.052.616C828.88,90.372,827.818,90.944,827.818,90.944Z" transform="translate(-824.185 -85.932)" fill="#47add1"/>
                  <path id="Path_7738" data-name="Path 7738" d="M831.468,86.482c-.986-.171-3.088-.332-3.348-.326s-2.712.354-2.712.354,2.589.018,2.8,0C828.387,86.495,831.236,86.506,831.468,86.482Z" transform="translate(-824.165 -86.156)" fill="#47add1"/>
                  <path id="Path_7739" data-name="Path 7739" d="M830.216,87.388a24.946,24.946,0,0,0-2.953.922c-.681.249-2.317,1.135-2.317,1.135s2.273-.775,2.4-.836S830.216,87.388,830.216,87.388Z" transform="translate(-824.197 -86.071)" fill="#47add1"/>
                  <path id="Path_7740" data-name="Path 7740" d="M829.925,88.9s-2.119.675-2.5.824-1.835.8-1.835.8a21.817,21.817,0,0,0,2.156-.576C827.826,89.847,829.925,88.9,829.925,88.9Z" transform="translate(-824.153 -85.967)" fill="#47add1"/>
                  <path id="Path_7741" data-name="Path 7741" d="M830.2,89.957s-1.274.346-1.395.387a11.719,11.719,0,0,0-1.586.813s1.491-.511,1.66-.581C828.993,90.526,830.2,89.957,830.2,89.957Z" transform="translate(-824.041 -85.894)" fill="#47add1"/>
                </g>
                <path id="Path_7742" data-name="Path 7742" d="M850.679,82a5.805,5.805,0,0,1-.723,2.9,64.14,64.14,0,0,1-11.95,8.359S849.132,85.747,850.679,82Z" transform="translate(-823.298 -82.002)" fill="#47add1"/>
                <path id="Path_7743" data-name="Path 7743" d="M835.77,90.014a3.129,3.129,0,0,0,.762.84,28.448,28.448,0,0,0,2.687-2.329c-.238-.2-.483-.39-.731-.577A12.26,12.26,0,0,1,835.77,90.014Z" transform="translate(-823.452 -81.593)" fill="#47add1"/>
              </g>
              <path id="Path_7744" data-name="Path 7744" d="M839.533,86.825l-1.839,1.807,2.751,3.169,3.178-2.206Z" transform="translate(-770.771 -31.841)" fill="#f0f0f0"/>
              <path id="Path_7745" data-name="Path 7745" d="M851.534,82.3c-.233-.719-5.288-7.768-5.288-7.768s-7.055-10.562-8.224-11.72a5.625,5.625,0,0,0-2.089-1.429c-2.276,1.878-2.53,10.235-2.53,10.235S844.77,83.07,844.525,83.492s-5.336,5.242-5.336,5.242l3.775,3.684s7.5-5.233,8.032-5.952A7.866,7.866,0,0,0,851.534,82.3Z" transform="translate(-771.066 -33.591)" fill="#c71f25"/>
              <path id="Path_7746" data-name="Path 7746" d="M834.091,71.718l10.4,11.3s.8-.506,1.606-.891c0,0-10.932-10.034-12.2-13.914Z" transform="translate(-771.032 -33.121)" fill="#c71f25"/>
              <path id="Path_7747" data-name="Path 7747" d="M848.635,80.815a4.542,4.542,0,0,0-4.487,1.35c-1.8,1.848-3.25,3.244-5.269,5.308.248.187.639.6.877.8,2.34-2.275,3.32-3.791,5.242-5.036C848.175,81.182,851.247,81.523,848.635,80.815Z" transform="translate(-770.689 -32.264)" fill="#c71f25"/>
              <path id="Path_7748" data-name="Path 7748" d="M834.053,69.106l-4.691-6.539,4.319,8.97Z" transform="translate(-771.344 -33.509)" fill="#c71f25"/>
              <path id="Path_7749" data-name="Path 7749" d="M818.292,105.833s2.311.134,2.734.234.936-4.348.9-4.683l-.039-.336-2.621.28Z" transform="translate(-772.105 -30.863)" fill="#fff"/>
              <path id="Path_7750" data-name="Path 7750" d="M825.036,105.887a18.5,18.5,0,0,1-2.556.2c-.657-.063-.916-5.344-.916-5.344l2.4.325Z" transform="translate(-771.88 -30.884)" fill="#fff"/>
              <path id="Path_7751" data-name="Path 7751" d="M811.863,68.353l5.025-5.633-4.7,7.877Z" transform="translate(-772.547 -33.499)" fill="#c71f25"/>
              <path id="Path_7752" data-name="Path 7752" d="M838.816,87.148l2.821-2.707,4.121,4.15-3.168,2.241Z" transform="translate(-770.693 -32.005)" fill="url(#linear-gradient-26)"/>
              <path id="Path_7753" data-name="Path 7753" d="M808.255,99.615l.928-3.634s1.2,1.785,6.244,2.474,12.278.426,15.735-.423,4.471-1.825,4.471-1.825l.84,3.494s-.018,1.325-5.7,2.507-13.019,1.3-17.762,0S808.255,99.615,808.255,99.615Z" transform="translate(-772.795 -31.211)" fill="#c71f25"/>
              <path id="Path_7754" data-name="Path 7754" d="M819.434,56.808s-1.961,1.633-2.292,1.986-.3,6.041-.3,6.041,4.073-1.47,4.152-1.47,1.549.9,1.549.9-1.239-1.517-1.448-1.707A8.7,8.7,0,0,1,819.434,56.808Z" transform="translate(-772.205 -33.906)" fill="#fff"/>
              <path id="Path_7755" data-name="Path 7755" d="M826.486,56.851s1.983,1.587,2.313,1.94.3,6.041.3,6.041-4.073-1.47-4.152-1.47-1.549.9-1.549.9,1.239-1.517,1.448-1.707A8.558,8.558,0,0,0,826.486,56.851Z" transform="translate(-771.754 -33.903)" fill="#fff"/>
              <path id="Path_7756" data-name="Path 7756" d="M819.281,56.808A20.8,20.8,0,0,0,819.417,59a10.027,10.027,0,0,0,1.33,3.312,6.839,6.839,0,0,1-1.66-3.372A4.255,4.255,0,0,1,819.281,56.808Z" transform="translate(-772.052 -33.906)" fill="#f0f0f0"/>
              <path id="Path_7757" data-name="Path 7757" d="M826.382,56.851a11.027,11.027,0,0,1-.156,2.3,11.825,11.825,0,0,1-1.322,3.2,5.883,5.883,0,0,0,1.616-3.217C826.693,57.321,826.382,56.851,826.382,56.851Z" transform="translate(-771.65 -33.903)" fill="#f0f0f0"/>
              <path id="Path_7758" data-name="Path 7758" d="M823.4,63.859l1.549-.9,4.152,1.47,0-1.6s-.283,1.011-.324,1.03-3.839-1.152-3.948-1.138S823.4,63.859,823.4,63.859Z" transform="translate(-771.754 -33.499)" fill="#f0f0f0"/>
              <path id="Path_7759" data-name="Path 7759" d="M822.546,63.865l-1.549-.9-4.152,1.47.006-1.8s.211,1.237.251,1.228,3.887-1.228,3.887-1.228Z" transform="translate(-772.205 -33.505)" fill="#f0f0f0"/>
              <path id="Path_7760" data-name="Path 7760" d="M833.922,77.387s-1.324,9.375-1.371,10.422c0,0,.186-11.208.186-11.835s1.094-7.713,1.321-8.2.307,4.022.479,4.493Z" transform="translate(-771.124 -33.154)" fill="#c71f25"/>
              <path id="Path_7761" data-name="Path 7761" d="M812.06,67.991c-.034-.244-.1,6.384,0,7.175a54.045,54.045,0,0,1-.524,5.411s-.884,6.654-1.026,7.172c-.189.683-1.5,10.544-1.5,10.544s2.348-9.644,2.5-10.524c.125-.743.695-5.921.695-5.921s.767-6.1.837-6.377S812.095,68.235,812.06,67.991Z" transform="translate(-772.744 -33.137)" fill="#c71f25"/>
              <path id="Path_7762" data-name="Path 7762" d="M837.384,88.8l.331-.282,2.617,3.041-.429.253Z" transform="translate(-770.792 -31.725)" fill="#1a98c5" opacity="0.39" style="mix-blend-mode: multiply;isolation: isolate"/>
              <path id="Path_7763" data-name="Path 7763" d="M796.364,74.385a10.423,10.423,0,0,1-2.714,2.52l.682.842,2.493-2.938Z" transform="translate(-773.8 -32.697)" fill="#1a98c5" opacity="0.39" style="mix-blend-mode: multiply;isolation: isolate"/>
              <path id="Path_7764" data-name="Path 7764" d="M793.565,77.345s1.456-.4,3.081-2.775l1.59,1.277-2.98,3.306Z" transform="translate(-773.806 -32.684)" fill="#f0f0f0"/>
              <path id="Path_7765" data-name="Path 7765" d="M794.638,78.841s1.529-.407,3.317-3.309c0,0,2.264,1.824,2.722,2.19a7.207,7.207,0,0,1-3.249,4.09C796.842,81.287,794.638,78.841,794.638,78.841Z" transform="translate(-773.732 -32.618)" fill="url(#linear-gradient-27)"/>
            </g>
            <path id="Path_7766" data-name="Path 7766" d="M824.658,37.9c-4.409-.813-7.548,3.489-8.373,8.7-.463,2.925-.282,5.536,1.131,7.687a9.1,9.1,0,0,0,2.1,1.98c.524.436,1.342,1.372,1.9,1.827a2.941,2.941,0,0,0,1.745.775c2.073.082,3.436-1.634,4.033-2.253,2.095-2.173,4.016-2.981,3.594-9.031C830.461,42.831,827.547,38,824.658,37.9Z" transform="translate(-719.66 -5.103)" fill="#47add1"/>
            <path id="Path_7767" data-name="Path 7767" d="M830.841,49.863a17.412,17.412,0,0,0-.695-5.754c-.855-2.721-2.5-5.609-4.8-6.107,0,0-4.667-1.4-7.685,3.972A15.217,15.217,0,0,0,816.4,52.106a7.281,7.281,0,0,1,.786-3.641s1.837-8.7,6.794-9.006C828.793,41.273,829.848,46.236,830.841,49.863Z" transform="translate(-719.663 -5.1)" fill="#31a2cb"/>
            <path id="Path_7768" data-name="Path 7768" d="M829.589,44.824s.2,3.577.388,4.506l.175-1.421A26.627,26.627,0,0,0,829.589,44.824Z" transform="translate(-718.729 -4.619)" fill="#1a4480"/>
            <path id="Path_7769" data-name="Path 7769" d="M816.5,44.648s-.253,3.171-.5,4.272l-.123-1.321Z" transform="translate(-719.672 -4.631)" fill="#1a4480"/>
            <path id="Path_7770" data-name="Path 7770" d="M829.166,44.85s.311,3.749.513,4.642l.113-1.345A30.3,30.3,0,0,0,829.166,44.85Z" transform="translate(-718.758 -4.618)" fill="#162e51"/>
            <path id="Path_7771" data-name="Path 7771" d="M825.585,35.655a23.478,23.478,0,0,0-1.712,3.371s4.334.554,5.907,6.968c1.139,4.644,1.727,9.01-1.5,15.993,0,0,4.315-4.2,4.675-12.348C833.167,44.761,831.458,35.256,825.585,35.655Z" transform="translate(-719.122 -5.251)" fill="#1a4480"/>
            <path id="Path_7772" data-name="Path 7772" d="M826.389,35.679a7.147,7.147,0,0,0-7.433-.361c-3.014,1.549-6.962,6.642-6.747,16.083a15.024,15.024,0,0,0,5.69,11.015s-2.049-7.717-1.756-12.031c.413-6.082,4.761-12.206,8.538-11.275A13.7,13.7,0,0,0,826.389,35.679Z" transform="translate(-719.925 -5.333)" fill="#1a4480"/>
            <path id="Path_7773" data-name="Path 7773" d="M830.628,51.783c.3,4.035-2.349,9.992-2.349,9.992,8.009-14.329.551-20.623-1.933-22.255-1.81-1.19-2.471-.705-2.471-.705C830.107,41.38,830.37,48.34,830.628,51.783Z" transform="translate(-719.122 -5.039)" fill="#162e51"/>
            <path id="Path_7774" data-name="Path 7774" d="M816.967,36.5s4.185-4.28,9.094-.81c0,0,3.953-.686,6.068,5.29,0,0-3.291-5.487-6.323-4.425C825.806,36.553,822.639,33.249,816.967,36.5Z" transform="translate(-719.598 -5.341)" fill="#284f88"/>
            <path id="Path_7775" data-name="Path 7775" d="M826.76,37.627s4.217.516,5.376,9.1C832.136,46.73,829.986,39.147,826.76,37.627Z" transform="translate(-718.924 -5.114)" fill="#284f88"/>
            <path id="Path_7776" data-name="Path 7776" d="M825.047,36.563s-9.477-4.379-11.591,10.291C813.456,46.855,816.6,34.456,825.047,36.563Z" transform="translate(-719.839 -5.23)" fill="#284f88"/>
            <path id="Path_7777" data-name="Path 7777" d="M832.6,47.013c-.238,8.4-3.592,13.211-3.592,13.211C833.876,55.347,832.6,47.013,832.6,47.013Z" transform="translate(-718.769 -4.469)" fill="#1a4480"/>
            <path id="Path_7778" data-name="Path 7778" d="M812.306,48.025s-.729,9.286,4.872,13.295C817.179,61.32,813.126,56.909,812.306,48.025Z" transform="translate(-719.92 -4.399)" fill="#1a4480"/>
            <path id="Path_7779" data-name="Path 7779" d="M820.494,38.855c-4.251,2.636-7.842,10.689-2.8,23.3,0,0-2.915-11.536.168-17.724,2.032-4.078,3.707-5.755,6.616-5.578A3.423,3.423,0,0,0,820.494,38.855Z" transform="translate(-719.717 -5.073)" fill="#162e51"/>
            <path id="Path_7780" data-name="Path 7780" d="M829.218,45.093a8.59,8.59,0,0,0-.486-1.519c.977,1.665,3.761,5.342.884,13.072A42.8,42.8,0,0,0,829.218,45.093Z" transform="translate(-718.788 -4.705)" fill="#162e51"/>
            <path id="Path_7781" data-name="Path 7781" d="M829.185,44.983s.326,3.691.524,4.564l.108-1.322A27.112,27.112,0,0,0,829.185,44.983Z" transform="translate(-718.757 -4.608)" fill="#162e51"/>
            <path id="Path_7782" data-name="Path 7782" d="M815.6,43.249s-5.149,9.467,1.119,16.516A19.454,19.454,0,0,1,815.6,43.249Z" transform="translate(-719.828 -4.728)" fill="#1a4480"/>
            <path id="Path_7783" data-name="Path 7783" d="M818.108,43.461s-2.271,3.767-1.55,11.789C816.558,55.25,814.8,47.4,818.108,43.461Z" transform="translate(-719.658 -4.713)" fill="#162e51"/>
            <ellipse id="Ellipse_625" data-name="Ellipse 625" cx="34.649" cy="7.366" rx="34.649" ry="7.366" transform="translate(18.594 112.623)" fill="#c2e9f9" opacity="0.5" style="mix-blend-mode: multiply;isolation: isolate"/>
          </g>
        </g>
      </g>
    </g>
  </g>
</svg>
